<svg xmlns="http://www.w3.org/2000/svg" width="528px" height="189px" viewBox="0 0 496 178" fill="#ee2c49"><path d="M89.51 0h.11l86.05 172.28a54.7 54.7 0 0 0 3.13 5.72h-1.08c-2.6-2.49-5.92-3.94-8.98-5.75l-75.97-44.04c-1.18-.58-2.34-1.41-3.7-1.47-2.82 1.18-5.35 2.91-8 4.41l-70.33 40.73A155.4 155.4 0 0 0 .62 178H0v-.23c2.42-3.35 3.97-7.19 5.84-10.84L89.51 0M72.8 116.66c5.56 3.15 11.2 6.16 16.51 9.71 5.52-3.33 11.08-6.61 16.75-9.68-5.13-11.41-11.23-22.37-16.53-33.7-5.69 11.16-11.48 22.3-16.73 33.67zM218.04 11.88c19.52-9.21 42.52-10.63 63.08-4.11 29.07 8.93 52.2 34.18 58.76 63.86-12.86.27-25.72.08-38.58.1-6-14.46-18.96-25.84-34.2-29.56a50.2 50.2 0 0 0-38.8 6.07c-12.81 7.87-21.68 21.8-23.32 36.76-1.57 13.2 2.38 26.95 10.8 37.25a50.2 50.2 0 0 0 42.27 18.56c18.71-.97 36.18-13.52 43.14-30.9l38.7.12c-4.27 18.26-14.39 35.1-28.76 47.18-12.7 10.75-28.57 17.93-45.13 19.81-7.31 0-14.63-.11-21.93.12-16.64-1.95-32.61-9.03-45.4-19.82-16.51-13.85-27.65-34.03-30.22-55.45-1.91-14.77-.01-30.02 5.64-43.81a87.4 87.4 0 0 1 43.95-46.18zm119.74-8.1L496 3.77v36.44l-60.8.05-.2 134.31c-12.13-.19-24.26.08-36.39-.14l.04-134.15c-20.29-.07-40.58.02-60.87-.05V3.78z"/></svg>