<?xml version="1.0" encoding="utf-8"?>
<!-- Generator: Adobe Illustrator 27.7.0, SVG Export Plug-In . SVG Version: 6.00 Build 0)  -->
<svg version="1.1" id="Layer_1" xmlns="http://www.w3.org/2000/svg" xmlns:xlink="http://www.w3.org/1999/xlink" x="0px" y="0px"
	 viewBox="0 0 512 512" style="enable-background:new 0 0 512 512;" xml:space="preserve">
<style type="text/css">
	.st0{fill:#805AD5;}
	.st1{fill:#FFFFFF;}
</style>
<path class="st0" d="M378.5,512h-245C59.8,512,0,452.2,0,378.5v-245C0,59.8,59.8,0,133.5,0h245C452.2,0,512,59.8,512,133.5v245
	C512,452.2,452.2,512,378.5,512z"/>
<g>
	<path class="st1" d="M112.2,405.6L256.5,99.2c0.6-1.2,1.7-1.9,3-1.9h6.3c1.3,0,2.4,0.7,3,1.9L362,290.3l29.2-11.2
		c1.7-0.7,3.7,0.2,4.3,1.9l7.8,20.2c0.7,1.7-0.2,3.7-1.9,4.3l-26.9,10.4l33.2,68.2c0.8,1.7,0.1,3.7-1.5,4.5l-19.5,9.5
		c-1.7,0.8-3.7,0.1-4.5-1.6l-34.3-70.4l-229.8,88.3c-1.7,0.7-3.7-0.2-4.3-1.9v-0.1l-1.6-4.3C111.8,407.3,111.9,406.4,112.2,405.6z
		 M263,151.8L161.5,367.4l173.8-66.8L263,151.8z"/>
	<path class="st1" d="M328,239.8l9.7,26.6l-221.7,81.3c-1.7,0.6-3.7-0.2-4.3-2l-7.4-20.3c-0.6-1.7,0.2-3.7,2-4.3L328,239.8z"/>
</g>
</svg>
