<svg xmlns="http://www.w3.org/2000/svg" width="80" height="80"><g fill="none" fill-rule="evenodd"><rect width="80" height="80" fill="#FFF" rx="20"/><path fill="#68BC71" d="M40.222 12C31.401 12 20.76 14.074 12 18.64c0 9.862-.12 34.429 28.222 51.215C68.566 53.069 68.445 28.502 68.445 18.64c-8.76-4.566-19.4-6.64-28.223-6.64Z"/><path fill="#67B279" d="M40.193 69.838C11.88 53.052 12 28.498 12 18.64c8.75-4.56 19.378-6.635 28.193-6.64v57.838Z"/><path fill="#FFF" d="M39.193 50.603 56.259 27.6c-1.25-1.002-2.347-.295-2.951.253l-.022.002-14.23 14.803-5.362-6.453c-2.557-2.955-6.035-.7-6.847-.105l12.346 14.502"/></g></svg>