<svg xmlns="http://www.w3.org/2000/svg" xmlns:xlink="http://www.w3.org/1999/xlink" version="1.1" id="Layer_1" x="0px" y="0px" style="enable-background:new 0 0 512 512;" xml:space="preserve" viewBox="0 25.74 512.2 460.51">
<style type="text/css">
	.st0{fill:#F4301C;}
	.st1{fill:#1E5781;}
</style>
<g>
	<polygon class="st0" points="409.8,77.7 397.2,63 330.9,120.3 397.4,176.8 410,162.1 360.7,120.2  "/>
	<path class="st0" d="M465.7,154.7c-6.7,0-12.2,5.5-12.2,12.2c0,0,0,0,0,0c0,6.7,5.5,12.2,12.2,12.2c6.7,0,12.2-5.5,12.2-12.2   c0,0,0,0,0,0C477.9,160.1,472.4,154.7,465.7,154.7z"/>
	<path class="st0" d="M500.1,42.7c-7.1-7.3-16.1-11.2-24.4-13.6c-7.4-2-15-3.1-22.7-3.3c-6.1-0.2-10.1,0.2-10.1,0.2l1.8,19.3   c0,0,13.3-1,25.8,2.5c6.3,1.8,12,4.6,15.9,8.5c3.8,3.9,6.4,8.8,6.4,17.5c0,4.5-1.2,6.8-3.2,9c-2.4,2.4-5.4,4.3-8.7,5.3   c-7.2,2.6-15,2.7-15,2.7l-9.7,0v50.1h19.4v-32.4c4.1-0.4,5.8,0.1,11.9-2.1c5.6-2,11.6-5.1,16.5-10.5c5.4-6.1,8.3-13.9,8.2-22   C512,60.7,507.2,50,500.1,42.7z"/>
	<path class="st1" d="M24.6,466.2c13.6,6.3,32,11.3,54.6,14.8c45.2,7,99.9,7,145.1,0c22.6-3.5,41-8.4,54.6-14.7   c6.8-3.2,12.4-6.7,16.9-11.1c4.4-4.4,7.8-10.2,7.8-16.8V148.9c0-10.1-7.1-17.6-15.7-23c-8.5-5.4-19.7-9.7-33.1-13.3   c-26.9-7.2-63-11.5-103-11.5c-40,0-76.1,4.3-103,11.5c-13.5,3.6-24.6,7.9-33.1,13.3C7.1,131.2,0,138.7,0,148.9v289.4   c0,6.6,3.3,12.4,7.8,16.8C12.2,459.5,17.8,463,24.6,466.2z M26,142.1c5.8-3.7,15.5-7.7,27.8-11c24.5-6.6,59.5-10.9,98-10.9   c38.5,0,73.4,4.3,97.9,10.9c12.3,3.3,22,7.3,27.8,11c5.8,3.7,6.7,6.3,6.7,6.7c0,0.4-0.9,3-6.7,6.7c-5.9,3.7-15.5,7.7-27.8,11   c-24.5,6.6-59.4,10.9-98,10.9c-38.6,0-73.5-4.3-98-10.9c-12.3-3.3-21.9-7.3-27.8-11c-5.9-3.7-6.7-6.3-6.7-6.7   C19.4,148.5,20.2,145.9,26,142.1z M19.3,173.4c8.1,4.6,17.5,8.6,29.4,11.8c26.9,7.2,63,11.5,103,11.5c39.9,0,76.1-4.3,103-11.5   c11.9-3.2,21.3-7.3,29.4-11.8v72c0,0.2,0,1.1-2.1,3.1c-3.4,3-7.2,5.4-11.4,7.2c-10.9,5.1-28,9.9-49.4,13.2   c-42.8,6.6-96.3,6.6-139.1,0c-21.4-3.3-38.5-8.1-49.4-13.2c-4.2-1.8-8-4.2-11.4-7.2c-2-2-2.1-2.9-2.1-3.1V173.4z M19.3,269.7   c1.9,1.1,3.2,2.5,5.3,3.5c13.6,6.4,32,11.3,54.6,14.8c45.2,7,99.9,7,145.1,0c22.6-3.5,41-8.4,54.6-14.8c2.1-1,3.4-2.4,5.3-3.5v72.1   c0,0.2,0,1.1-2.1,3.1c-3.4,3-7.2,5.4-11.4,7.2c-10.9,5.1-28,9.9-49.4,13.2c-42.8,6.6-96.3,6.6-139.1,0   c-21.4-3.3-38.5-8.1-49.4-13.2c-4.2-1.8-8-4.2-11.4-7.2c-2-2-2.1-2.9-2.1-3.1V269.7z M19.3,366.2c1.9,1.1,3.2,2.5,5.3,3.5   c13.6,6.3,32,11.3,54.6,14.8c45.2,7,99.9,7,145.1,0c22.6-3.5,41-8.5,54.6-14.8c2.1-1,3.4-2.4,5.3-3.5v72.1c0,0.2,0,1.1-2.1,3.1   c-3.4,3-7.2,5.4-11.4,7.2c-10.9,5.1-28,9.9-49.4,13.2c-42.8,6.6-96.3,6.6-139.1,0c-21.4-3.3-38.5-8.1-49.4-13.2   c-4.2-1.8-8-4.2-11.4-7.2c-2-2-2.1-2.9-2.1-3.1V366.2z"/>
</g>
</svg>