<svg xmlns="http://www.w3.org/2000/svg" xml:space="preserve" id="svg1" x="0" y="0" version="1.1" viewBox="0 0 512 512"><style>.st1{fill:#0f0}</style><g id="layer1"><g id="g379" transform="translate(-68.268 -68.723)scale(1.26041)"><path id="path1" d="M249.4 401.8 196 374.9l-57.6 24.4-57.6 24.4-.2-136.5c-.1-75 .1-136.7.3-136.9.3-.2 26.1-11.3 57.5-24.6l57-24.2 53.6 26.9c29.5 14.8 53.9 26.9 54.3 26.9s26.9-12.6 58.9-28 60.8-29.2 64-30.6l5.7-2.7-.2 136.7-.2 136.7-63.8 30.6c-35.1 16.8-64.1 30.6-64.5 30.6-.1.2-24.4-11.9-53.8-26.8" style="fill:#48b5ff"/><path id="path2" d="M153.3 115c-2.7 6.1-3.7 16.3-.2 22.2 2.8 4.7 7.8 6.2 12.5 8.5 3.7 1.8 7.5 3.7 10.8 6.1 12.8 9.4 22.5 25.9 18.8 42.1-.1.5-1.4 6.6-1.7 7.4-2.2 5-11.8 14.1-16.9 16.5-.3.1-5.8 1.5-6.4 1.7-5.4 1.4-11.1 2.8-15.7 6.1-2.6 1.9-12.4 10.8-13.9 13.6-.7 1.4-1.1 2.9-1.8 4.4-2.2 4.5-5.4 9-8.6 12.8-2.9 3.5-2.2 2-5.5 5-5.7 5.2-11.6 10-17.5 15-2.8 2.3-1.7 1.9-4.5 4-4.1 3-18.3 11.1-23.5 7.7-5.4-3.5-1.5-17.7-2.4-22.8-.6-3.7-2.7-7.2-3.6-10.9-1-4.1.2-8.1.4-12.1.2-3.9.4-8.1 0-12-.5-4.5-2.1-7.7-2.1-12.5 0-3.6-.2-7.5 0-11 .1-1.3.6-2.6.8-3.9.7-5 1.2-10.4.8-15.4-.2-2.5 5.2-10.1 4.8-12.5-.9-5.8-6.7-5.9-5.9-11.6.4-3 .2-6.7 1.6-9.4.8-1.5 1.5-3.8 2.7-5 3.5-3.5 12.5-5.7 17.1-7.1 2.9-.9 5.7-2.3 8.4-3.6 3.1-1.5 5.5-3.5 8.4-5.3 3.3-2 7.3-3.1 10.8-4.7 10.5-5 20.9-10.4 32.3-13.3" class="st1"/><path id="path5" d="M273.4 234.8c-1-.5-1.9-1.3-3-1.5-1.8-.2-4.8.8-6.6 1.4-7.9 2.5-17.3 6.4-21.1 14.4-3 6.4-1.7 13.1-1.1 19.7.7 7.9.6 16.5 2.9 24.2 3.6 11.8 14.8 26.3 27.3 29.3 5.4 1.3 8.1.9 14.2.2 10.9-1.2 21.8-7.4 29.1-15.4 2.9-3.1 5.2-6.8 8.1-9.9 3-3.3 5.2-6.6 7.6-10.3 3.3-5.1 5.5-8.8 3.2-15.1-1-2.6-4.7-5.6-6.6-7.6-4.6-4.8-8.3-9.3-8.8-16.2-.5-5.8.8-11.7.1-17.5-.8-7.3-3.1-14.3-5.2-21.3-1.8-6.2-4.9-13.4-11-16.7-14.7-8.1-33.8 2.7-46 11-1.8 1.2-3.8 1.9-5.5 3.1-1.4 1-2.5 2.4-3.8 3.5-2.6 2.2-5.4 4.4-8.1 6.6-6 4.8-14.3 9.2-15.8 17.4-.6 3.5 6.7 3.3 8.5 3.2 8.6-.2 17.2-4.5 24.5-8.8 2.4-1.5 5.3-3.1 8.1-3.7 3-.6 6.3-.9 9.1.5 1.3.7 2.2 2.5 3.2 3.5 3.3 4.1 3.6 7.2-3.3 6" class="st1"/><path id="path6" d="M101.3 419c4.4-2.7 7.1-7.1 10.7-10.7 10.5-10.4 19-22.7 26.7-35.4 5.2-8.5 9.1-18.2 15.2-26.2 2.9-3.9 7-6.7 10.7-9.8 3.9-3.3 7.2-6.4 12.1-8.1 14.4-5.1 25.1 1.8 36.1 10.5 3.3 2.6 6.6 4 10.2 6.1 4 2.3 7.2 5.8 11.4 7.9 8.4 4.2 18.2 5.3 27.3 6.5 6.7.8 13.3 2.3 19.8 3.9 15.4 3.6 31.5 8.2 30.6 27.5-.3 5.6-3.1 11.8-7.5 15.4-3.7 3-8.6 3.1-13 3.9-5.5 1-11.2 2.6-16.8 2.7-3 .1-10.7-2.4-14.1-3.1-3.6-.8-7.8-.9-11-2.7-3.6-2-6.5-5.1-9.8-7.5-4.6-3.3-1-.6-4.7-2.7-3.1-1.9-5.8-4.4-9-6.1-4.8-2.7-13-3.4-18.5-4.5-5.3-1.1-10.3-3.1-15.8-3.8-13-1.6-27.6 5.4-38.4 12.3-2.4 1.5-4.7 3.3-7 5-2.5 1.8-5.4 3.1-8.2 4.6-7.1 3.8-14.5 6.8-21.5 10.6-1.9 1-10.7 5.7-12.4 5.3-.9-.2-1.9-2-3.1-1.6-2.1.6-3 3.4-5 4.4" class="st1"/><path id="path7" d="M430.4 292.3c-5.2.5-10.6-.2-15.5 1.4-11.4 3.8-26.9 14.3-32 26.5-1.9 4.7-2.8 9.6-3.2 14.6-.2 2.7-.1 5.5-.8 8.2-1.5 5.9-4.4 12.2-8.2 17-2.7 3.4-6.3 6.1-9.5 8.9-7.7 6.7-22.1 22.4-20.6 34 .2 1.4.7 2.1 2 2.7 2 .9 6-.5 8.1-.8 7.3-1 11.4-1.2 18.4-4.7 1.4-.7 2.7-1.3 4-1.9 5.7-2.6 11.1-5.6 16.7-8.5 2.1-1.1 4.5-1.7 6.6-2.7 2-1 3.6-2.5 5.6-3.4 1.5-.7 3-1 4.5-1.6 1.7-.8 3.3-1.8 5-2.7 2-1 4.3-1.2 6.5-1.8 1.4-.4 2.5-1.2 3.8-1.7 1.5-.6 3.3-.5 4.9-.9 1.5-.4 2.3-2 3.5-2.8.6-.4 1.4-.5 1.9-1.1s.2-1.5.6-2.1c.4-.8 1.4-1.1 1.8-2 1.7-3.5.3-11.7.4-15.6.1-4.2.4-8.3.7-12.5.2-3.2-.2-6.5-.2-9.7 0-1.4.4-2.7.3-4.1s-.4-2.8-.4-4.2c0-2.9 0 .3.5-2.4.3-2 0-4.3.1-6.3.1-2.3.6-4.6.4-6.9-.1-1.6-1.1-2.6-1.2-4.1-.2-1.4.6-5.3 0-6.3-.4-.6-1.6-.3-2.1-.7-1-.4-1.7-1.2-2.6-1.8" class="st1"/><path id="path8" d="M360.3 126.6c3.2 21.5-2.1 41.1-7.7 61.4-2.9 10.6-4 21.1-4.7 32-.3 5.3-.8 5.7-.2 11.6.3 3.3 1.7 7.3 3.1 10.3 1.1 2.4 4.1 3.8 6.4 4.4 13.5 3.6 25-2.1 31.6-14.2 6.3-11.6 4.3-22.9 3.6-35.4-.4-6.7-.7-14-.2-20.7.6-8.1 4.7-15.5 8.2-22.7 2.1-4.4 3.4-9.2 5.2-13.8 1.2-3.1 2.5-5.5 3.6-8.8 1.4-4.3.6-8.6 1.1-12.9.4-3.8 2.6-7.1 3.6-10.7s1.8-7.3 2.7-10.9" class="st1"/><path id="path2-2" d="M436.7 370.1 303.4 434l-107.6-54.1-119.9 50.9V147.4l119.8-50.8 107.6 54.1 133.3-63.9v283.3z" style="fill:none;stroke:#afafaf;stroke-width:47.6375;stroke-miterlimit:19.055"/></g><path id="rect378" d="m180.8 47.5 133.7 68.1v369.5l-133.7-68.2z" style="fill:#6d6d6d;fill-opacity:.3191"/></g></svg>