<svg xmlns="http://www.w3.org/2000/svg" width="512" height="512" viewBox="0 0 135.467 135.467"><g style="fill:#2f7bd9;fill-opacity:1" transform="matrix(1.03436 0 0 1.08687 -2.068 -181.524)"><rect width="5.994" height="23.366" x="9.929" y="224.546" rx="2.997" ry="2.997" style="opacity:1;fill:#2f7bd9;fill-opacity:1;stroke:none;stroke-width:1.04446661;stroke-linecap:round;stroke-miterlimit:4;stroke-dasharray:none;stroke-opacity:1"/><rect width="5.994" height="41.989" x="19.849" y="215.201" rx="2.997" ry="2.819" style="opacity:1;fill:#2f7bd9;fill-opacity:1;stroke:none;stroke-width:1.40014637;stroke-linecap:round;stroke-miterlimit:4;stroke-dasharray:none;stroke-opacity:1"/><rect width="5.994" height="49.213" x="29.768" y="211.489" rx="2.997" ry="2.997" style="opacity:1;fill:#2f7bd9;fill-opacity:1;stroke:none;stroke-width:1.51581287;stroke-linecap:round;stroke-miterlimit:4;stroke-dasharray:none;stroke-opacity:1"/><rect width="5.994" height="58.69" x="39.688" y="202.012" rx="2.997" ry="3.038" style="opacity:1;fill:#2f7bd9;fill-opacity:1;stroke:none;stroke-width:1.65534711;stroke-linecap:round;stroke-miterlimit:4;stroke-dasharray:none;stroke-opacity:1"/><rect width="5.994" height="62.402" x="49.607" y="198.301" rx="2.997" ry="2.997" style="opacity:1;fill:#2f7bd9;fill-opacity:1;stroke:none;stroke-width:1.7068845;stroke-linecap:round;stroke-miterlimit:4;stroke-dasharray:none;stroke-opacity:1"/><rect width="5.994" height="62.733" x="59.526" y="197.969" rx="2.997" ry="2.997" style="opacity:1;fill:#2f7bd9;fill-opacity:1;stroke:none;stroke-width:1.71141064;stroke-linecap:round;stroke-miterlimit:4;stroke-dasharray:none;stroke-opacity:1"/><rect width="5.994" height="58.889" x="69.446" y="201.813" rx="2.997" ry="2.997" style="opacity:1;fill:#2f7bd9;fill-opacity:1;stroke:none;stroke-width:1.65814853;stroke-linecap:round;stroke-miterlimit:4;stroke-dasharray:none;stroke-opacity:1"/><rect width="5.994" height="49.412" x="79.365" y="211.291" rx="2.997" ry="2.997" style="opacity:1;fill:#2f7bd9;fill-opacity:1;stroke:none;stroke-width:1.51887178;stroke-linecap:round;stroke-miterlimit:4;stroke-dasharray:none;stroke-opacity:1"/><rect width="5.994" height="48.948" x="89.285" y="211.755" rx="2.997" ry="2.997" style="opacity:1;fill:#2f7bd9;fill-opacity:1;stroke:none;stroke-width:1.51172459;stroke-linecap:round;stroke-miterlimit:4;stroke-dasharray:none;stroke-opacity:1"/><rect width="5.994" height="44.176" x="99.204" y="216.526" rx="2.997" ry="2.997" style="opacity:1;fill:#2f7bd9;fill-opacity:1;stroke:none;stroke-width:1.43614817;stroke-linecap:round;stroke-miterlimit:4;stroke-dasharray:none;stroke-opacity:1"/><rect width="5.994" height="36.886" x="109.123" y="223.552" rx="2.997" ry="2.997" style="opacity:1;fill:#2f7bd9;fill-opacity:1;stroke:none;stroke-width:1.31230652;stroke-linecap:round;stroke-miterlimit:4;stroke-dasharray:none;stroke-opacity:1"/><rect width="5.994" height="22.372" x="119.043" y="230.776" rx="2.997" ry="2.997" style="opacity:1;fill:#2f7bd9;fill-opacity:1;stroke:none;stroke-width:1.02200592;stroke-linecap:round;stroke-miterlimit:4;stroke-dasharray:none;stroke-opacity:1"/></g></svg>