<svg version="1.2" xmlns="http://www.w3.org/2000/svg" viewBox="0 0 972 1056" width="972" height="1056">
	<title>Bharti_Airtel_Limited_logo-svg</title>
	<defs>
		<clipPath clipPathUnits="userSpaceOnUse" id="cp1">
			<path d="m-1765.8-1593.98h23935.55v33895.07h-23935.55z"/>
		</clipPath>
	</defs>
	<style>
		.s0 { fill: #ed1d24 } 
	</style>
	<g id="layer1">
		<g id="g4569">
			<g id="Clip-Path: g4571" clip-path="url(#cp1)">
				<g id="g4571">
					<g id="g4597">
						<path id="path4599" class="s0" d="m289.6 1055.9c-45.3 0-78.2-16.7-97.9-49.7-49.4-82.4 1.3-185.7 25.3-226.2 16.6-27.9 41.5-57.8 64.9-77.7 23.4-19.6 59.2-43.2 96.9-43.2h2.9c39.4 1.2 81.1 28.5 82.9 72.2 1.3 32.8-20.3 55.7-36.1 72.5l-2.8 3.1c-12.8 13.5-25.4 26-37.6 38.2-21.6 21.1-41.8 41.3-61.7 66.4 0 0-55.1 84.4 35.3 58.7 5-1.7 10.5-4 16.9-6.5l2.9-1.2c21.5-8.5 41.8-20.4 60-31l3.5-2c38.7-22.2 82.2-55.2 129.4-97.9 92.3-83.8 159-171.3 197.7-260 28.4-65.2 33.4-136.3 12.6-181.5-12-25.9-32-42.4-59.4-49-8.7-2.3-17.8-3.1-27.1-3.1-18.8 0-39.2 4-62.6 12.5-90 33.1-170 90-247.2 144.8l-9.2 6.7c-9.6 6.8-18.9 13.5-28.5 20.1-3.5 2.2-6.9 4.7-10.3 7.4-54.4 35.3-133.8 77.1-206.3 77.1-35.4 0-65.7-10.1-89.8-30.2-26.9-22.3-41.5-52.5-43.3-89.4-4.1-87.1 64-189.6 123.8-250.9 25.6-24.1 53.4-46.7 82.3-67.5 4.1-2.5 7.6-5 10.9-7.6 4.5-3.2 8.5-5.9 12.6-8.6l0.7-0.5 4.5-3c141.5-98.4 275-148.1 396.8-148.1 133.3 0 203.8 59.8 210.3 65.6 56.6 42.3 95.5 98.5 115.7 166.5 27.4 93.5 5.1 193-10.8 244.3-39 125.9-107.2 229.2-220.6 334.4-51.3 47.5-101.2 87.3-152.2 121.4l-13.1 8.7c-48.2 32.3-98.3 65.8-161.3 89.9-42.1 16.2-79.5 24.3-111 24.3z"/>
					</g>
				</g>
			</g>
		</g>
	</g>
</svg>