<svg xmlns="http://www.w3.org/2000/svg" xmlns:xlink="http://www.w3.org/1999/xlink" version="1.1" id="Layer_1" shape-rendering="geometricPrecision" x="0px" y="0px" style="enable-background:new 0 0 512 512;" xml:space="preserve" viewBox="0 41.8 512 428.4">
<style type="text/css">
	.st0{fill:#FCB400;}
	.st1{fill:#18BFFF;}
	.st2{fill:#F82B60;}
	.st3{opacity:0.29;}
</style>
<g>
	<path class="st0" d="M228.6,47.2l-190.9,79c-10.6,4.4-10.5,19.5,0.2,23.7l191.7,76c16.8,6.7,35.6,6.7,52.4,0l191.7-76   c10.7-4.2,10.8-19.3,0.2-23.7L283,47.2C265.6,40,246,40,228.6,47.2"/>
	<path class="st1" d="M272.8,267.5v189.9c0,9,9.1,15.2,17.5,11.9l213.6-82.9c4.9-1.9,8.1-6.6,8.1-11.9V184.6c0-9-9.1-15.2-17.5-11.9   l-213.6,82.9C276,257.5,272.8,262.2,272.8,267.5"/>
	<path class="st2" d="M222.9,277.3l-63.4,30.6l-6.4,3.1L19.3,375.1C10.8,379.2,0,373,0,363.6V185.4c0-3.4,1.7-6.4,4.1-8.6   c1-1,2.1-1.8,3.2-2.4c3.2-1.9,7.8-2.4,11.6-0.9l202.9,80.4C232.2,258,233,272.4,222.9,277.3"/>
	<path class="st3" d="M222.9,277.3l-63.4,30.6L4.1,176.8c1-1,2.1-1.8,3.2-2.4c3.2-1.9,7.8-2.4,11.6-0.9l202.9,80.4   C232.2,258,233,272.4,222.9,277.3"/>
</g>
</svg>