<?xml version="1.0" encoding="utf-8"?><!-- Uploaded to: SVG Repo, www.svgrepo.com, Generator: SVG Repo Mixer Tools -->
<svg width="800px" height="800px" viewBox="0 0 1024 1024" xmlns="http://www.w3.org/2000/svg">
   <circle cx="512" cy="512" r="512" style="fill:#26c"/>
   <path d="M506.5 319.8c39-12.5 85.5-3.1 114.1 27 13.5 13.3 23.3 30.8 26.1 49.6 1.3 7.7-.1 15.4-2.2 22.8 5.6-1.5 11.2-3.8 17.1-3.9 11.3-.6 22.6 3.9 31 11.4 10.7 8.3 16.3 23.1 12.4 36.2-1.4 5.9-4.7 11.1-7.4 16.5 28.7.9 58.2 9.7 79.5 29.7 8.8 9.5 16.9 20.1 20.9 32.6 3.6 12 4.1 24.7 3.1 37.1-2.7 18.4-8.9 37.1-21.6 51.1-7.9 8.5-18 15.3-29.2 18.4-11.1 2.9-22.6 4-34.1 3.8-33.9 1-67.9-11.9-92.9-34.7-2.7 5.4-8.1 14.3-18 21.9-14.8 11.4-30.4 12.7-38.4 13.3-7.2.5-31.6 2.2-50.3-14.2-4.4-3.9-7.4-7.8-9.4-10.7-2.5 5.2-4.2 10.9-7.8 15.5-7.5 9.9-18.9 16.8-31.2 19-16 2.8-33.2 1.8-47.5-6.5-8.8-5.3-16.4-12.7-21.4-21.7-9.7-15-13.3-33.5-11.5-51.1 2-21.4 10.5-42.6 25.7-58.1 12.8-13.8 30.5-22.2 48.6-26.7 32.8-7.7 67.3-2.9 98.7 8.1-1.8-3.1-4.6-5.5-7.3-7.7-14.7-12.3-32.9-19.6-51.6-23.5-18.2-3.4-37-4.4-55.1-.1-19.2 4.5-37.9 12.7-52.9 25.7-16.9 13.6-29.3 33.1-33.5 54.5-2.7 12.9-4.4 26.1-4.1 39.3 1 14.5 1.9 29.1 5.8 43.1-15.8 5.6-32.8 7.2-49.5 6.4-12 0-23.7-3.4-34.9-7.7-19-7.8-33.7-23.6-43.1-41.5-13.7-25.1-16.9-57.1-3.6-83 8.6-19.3 25.3-34.5 44.8-42.3 14.8-6 31.7-5.6 46.8-.4-3.6-17.4-.1-36.6 10.7-50.9 7.3-10.6 17.9-18.9 29.9-23.5 13.9-5.9 30-4.4 43.9 1 5.3 1.9 9.8 5.5 15 7.5 8.9-19.7 20.7-38.5 36.5-53.4 13.1-13.7 29.7-24.2 47.9-29.9" style="fill:#fff"/>
</svg>