<svg xmlns="http://www.w3.org/2000/svg" width="64" height="64"><path d="M5 0a5 5 0 0 0-5 5v54a5 5 0 0 0 5 5h54a5 5 0 0 0 5-5V5a5 5 0 0 0-5-5z" fill="#e62e04"/><path d="M17.6 21.452c.245 1 .107 2.08.348 3.097.84-.615 1.4-1.63 1.285-2.687-.017-1.892-2.145-3.375-3.926-2.738-1.12.32-1.948 1.325-2.136 2.46-.224 1.3.557 2.63 1.718 3.224-.115-1.12-.384-2.3-.083-3.396.46-1.194 2.37-1.17 2.795.04zm33.138 1.356c.408-1.468-.48-3.17-1.936-3.64-1.4-.55-3.133.15-3.75 1.514-.688 1.263-.272 3.06.986 3.8.248-1.014.065-2.1.36-3.085.47-1.177 2.355-1.143 2.784.05.273 1.066.026 2.186-.077 3.262.854-.264 1.387-1.08 1.632-1.898z" fill="#b32100"/><path d="M46.4 21.396c-.296.995-.113 2.072-.36 3.085-.732 4.4-3.678 8.332-7.667 10.303a14.2 14.2 0 0 1-12.798-.016c-3.952-1.966-6.875-5.865-7.626-10.218-.24-1.018-.104-2.087-.348-3.097-.424-1.2-2.334-1.235-2.794-.04-.3 1.106-.03 2.277.083 3.396.84 5.44 4.48 10.325 9.412 12.75a17.34 17.34 0 0 0 14.635.346c5.333-2.303 9.32-7.446 10.173-13.2.103-1.076.35-2.197.076-3.262-.43-1.193-2.314-1.226-2.785-.05z" fill="#fff"/><path d="M5 0a5 5 0 0 0-5 5v9.5a5 5 0 0 1 5-5h54a5 5 0 0 1 5 5V5a5 5 0 0 0-5-5z" fill="#f90"/></svg>