<?xml version="1.0" encoding="utf-8"?>
<!-- Generator: Adobe Illustrator 19.0.0, SVG Export Plug-In . SVG Version: 6.00 Build 0)  -->
<svg version="1.1" id="Livello_1" xmlns="http://www.w3.org/2000/svg" xmlns:xlink="http://www.w3.org/1999/xlink" x="0px" y="0px"
	 viewBox="0 0 512 512" style="enable-background:new 0 0 512 512;" xml:space="preserve">
<style type="text/css">
	.st0{fill:#F78F1E;}
	.st1{fill:#DC3326;}
	.st2{fill:#B72025;}
	.st3{fill:#FFFFFF;}
</style>
<path class="st0" d="M469.3,470.8H42.7C18.5,470.8,0,452.3,0,428.1V42.7C0,18.5,18.5,0,42.7,0h426.7C493.5,0,512,18.5,512,42.7
	v385.4C512,450.8,493.5,470.8,469.3,470.8z"/>
<path class="st1" d="M469.3,512H42.7C18.5,512,0,493.5,0,469.3V113.8c0-24.2,18.5-42.7,42.7-42.7h426.7c24.2,0,42.7,18.5,42.7,42.7
	v355.6C512,493.5,493.5,512,469.3,512z"/>
<circle class="st2" cx="128" cy="156.4" r="28.4"/>
<circle class="st2" cx="384" cy="156.4" r="28.4"/>
<path class="st3" d="M256,298.7c-78.2,0-142.2-64-142.2-142.2c0-8.5,5.7-14.2,14.2-14.2s14.2,5.7,14.2,14.2
	c0,62.6,51.2,113.8,113.8,113.8S369.8,219,369.8,156.4c0-8.5,5.7-14.2,14.2-14.2s14.2,5.7,14.2,14.2
	C398.2,234.7,334.2,298.7,256,298.7z"/>
</svg>
