<svg xmlns="http://www.w3.org/2000/svg" xmlns:xlink="http://www.w3.org/1999/xlink" version="1.1" id="Layer_1" x="0px" y="0px" style="enable-background:new 0 0 512 512;" xml:space="preserve" viewBox="0 96 512.03 320.01">
<style type="text/css">
	.st0{fill:#00A8E1;}
</style>
<g>
	<path class="st0" d="M7.4,282.9c-1.4,0.1-2.7-0.4-3.8-1.3c-0.9-1.1-1.3-2.5-1.2-3.8V147.3c-0.2-1.4,0.3-2.8,1.2-3.8   c1.1-0.8,2.4-1.2,3.7-1.1h14.2c2.7-0.3,5.1,1.6,5.5,4.3l1.4,5.1c4.1-3.9,8.9-7.1,14.2-9.1c5.4-2.2,11.2-3.3,17-3.3   c11.6-0.4,22.7,4.8,29.9,13.9c7.9,10.9,11.9,24.2,11.1,37.7c0.2,9.8-1.7,19.5-5.5,28.5c-3.2,7.5-8.3,14-14.9,18.7   c-6.4,4.3-13.9,6.6-21.6,6.4c-5.2,0-10.4-0.8-15.4-2.6c-4.5-1.5-8.7-3.9-12.3-7v43c0.1,1.4-0.2,2.7-1.1,3.8   c-1.1,0.8-2.5,1.2-3.8,1.1L7.4,282.9z M50.4,223c6.3,0.5,12.4-2.4,16.2-7.5c4-7.2,5.8-15.3,5.2-23.5c0.6-8.2-1.2-16.5-5.1-23.7   c-3.8-5.2-9.9-8-16.3-7.5c-6.8,0-13.4,1.8-19.2,5.3v51.5C36.9,221.3,43.6,223.1,50.4,223L50.4,223z"/>
	<path class="st0" d="M125,242.5c-2.3,0.4-4.5-1.1-4.9-3.4c-0.1-0.5-0.1-1,0-1.5v-90.3c-0.2-1.4,0.3-2.8,1.2-3.8   c1.1-0.8,2.4-1.2,3.7-1.1h14.1c2.7-0.3,5.1,1.6,5.5,4.3l2.6,10.5c4.2-4.9,9.2-9.1,14.8-12.3c4.6-2.4,9.7-3.6,14.8-3.6h2.8   c1.4-0.1,2.8,0.3,3.9,1.1c0.9,1.1,1.3,2.5,1.2,3.8v16.5c0.1,1.3-0.3,2.6-1.1,3.7c-1.1,0.9-2.5,1.3-3.8,1.2h-3.5c-1.5,0-3.3,0-5.5,0   c-3.7,0.1-7.4,0.5-11,1.3c-3.8,0.7-7.5,1.8-11,3.3v65.6c0.1,1.3-0.3,2.6-1.1,3.7c-1.1,0.9-2.5,1.3-3.8,1.2H125z"/>
	<path class="st0" d="M213,126.8c-4.4,0.2-8.6-1.2-12-4.1c-3.1-2.9-4.7-7-4.5-11.2c-0.2-4.2,1.4-8.4,4.5-11.3c7-5.6,17-5.6,24,0   c3.1,2.9,4.7,7,4.5,11.2c0.2,4.2-1.5,8.3-4.5,11.2C221.7,125.5,217.4,127,213,126.8z M203.6,242.6c-2.3,0.4-4.5-1.1-4.9-3.4   c-0.1-0.5-0.1-1,0-1.5v-90.3c-0.2-1.4,0.3-2.8,1.2-3.8c1.1-0.8,2.4-1.2,3.7-1.1h18.9c1.4-0.1,2.7,0.2,3.8,1.1   c0.8,1.1,1.2,2.5,1.1,3.8v90.3c0.1,1.3-0.3,2.6-1.1,3.7c-1.1,0.9-2.5,1.3-3.8,1.2L203.6,242.6z"/>
	<path class="st0" d="M256.6,242.5c-2.3,0.4-4.5-1.1-4.9-3.4c-0.1-0.5-0.1-1,0-1.5v-90.3c-0.2-1.4,0.3-2.8,1.2-3.8   c1.1-0.8,2.4-1.2,3.7-1.1h14.1c2.7-0.3,5.1,1.6,5.5,4.3l1.6,5.3c5.8-4,12.1-7.3,18.7-9.7c5.5-1.9,11.2-2.9,17-2.9   c10.1-0.9,19.8,4.1,24.9,12.8c5.8-4,12.2-7.2,18.9-9.6c5.9-2,12.1-3,18.3-2.9c7.9-0.5,15.6,2.3,21.3,7.7c5.3,5.8,8,13.5,7.5,21.4   v69c0.1,1.3-0.3,2.6-1.1,3.7c-1.1,0.9-2.5,1.3-3.8,1.2h-18.6c-2.3,0.4-4.5-1.1-4.9-3.4c-0.1-0.5-0.1-1,0-1.5v-62.9   c0-8.9-4-13.4-12-13.4c-7.4,0.1-14.8,1.8-21.4,5.1v71.3c0.1,1.3-0.3,2.6-1.1,3.7c-1.1,0.9-2.5,1.3-3.8,1.2h-18.8   c-2.3,0.4-4.5-1.1-4.9-3.4c-0.1-0.5-0.1-1,0-1.5v-62.9c0-8.9-4-13.4-12-13.4c-7.5,0-14.9,1.9-21.6,5.3v71c0.1,1.3-0.3,2.6-1.1,3.7   c-1.1,0.9-2.5,1.3-3.8,1.2L256.6,242.5z"/>
	<path class="st0" d="M472.9,245.4c-13.8,0.9-27.3-3.9-37.4-13.4c-9.2-10.6-13.8-24.4-12.8-38.4c-0.9-14.5,3.7-28.8,13.1-40   c9.7-10,23.3-15.3,37.2-14.5c10.3-0.6,20.4,2.5,28.6,8.8c6.9,5.9,10.7,14.6,10.3,23.7c0.5,8.9-3.8,17.3-11.1,22.3   c-9.9,5.7-21.3,8.3-32.7,7.5c-6.5,0.1-12.9-0.7-19.2-2.2c0,7.1,2.9,13.8,7.9,18.8c6,4.2,13.2,6.3,20.5,5.7c3.6,0,7.1-0.2,10.7-0.7   c4.9-0.8,9.7-1.8,14.5-3.1h1.2h1c2.2,0,3.3,1.5,3.3,4.5v9c0.1,1.5-0.2,3.1-0.9,4.4c-0.9,1.1-2.1,1.8-3.5,2.2   C493.7,243.9,483.3,245.6,472.9,245.4z M466.5,183.8c5,0.4,10.1-0.7,14.5-3.1c3.1-2.1,4.8-5.6,4.5-9.3c0-8.2-4.9-12.3-14.7-12.3   c-12.6,0-19.9,7.7-21.8,23.2c5.7,1.1,11.5,1.6,17.3,1.6H466.5z"/>
	<path class="st0" d="M462.6,352.7C406.6,394,325.3,416,255.4,416C162,416.5,71.7,382.1,2.3,319.6C-3,314.8,1.7,308.4,8,312   c77.1,44,164.4,67.2,253.3,67.1c66.3-0.4,131.8-13.8,192.9-39.5C463.9,335.6,471.9,345.6,462.6,352.7z"/>
	<path class="st0" d="M486.2,326.4c-7.2-9.1-47.3-4.4-65.4-2.2c-5.5,0.6-6.4-4.1-1.4-7.5c32-22.5,84.6-16,90.7-8.4   c6.1,7.5-1.6,60.2-32,85.3c-4.6,3.8-9,1.8-7-3.3C478,373.1,493.1,335.3,486.2,326.4z"/>
</g>
</svg>