<svg xmlns="http://www.w3.org/2000/svg" xmlns:xlink="http://www.w3.org/1999/xlink" id="new" x="0px" y="0px" viewBox="0 0 559.62 146.41" style="enable-background:new 0 0 559.62 146.41;" xml:space="preserve">
<style type="text/css">
	.st0{fill:#CC0000;}
</style>
<path d="M322.32,73.83h14.08v70.55h-14.08v-9.86c-4.69,5.27-13.49,11.9-27.76,11.9c-20.53,0-39.49-12.58-39.49-37.4  c0-24.31,18.77-36.89,39.49-36.89c15.64,0,24.05,7.48,27.76,11.73V73.83z M269.53,109.01c0,15.13,9.77,26.52,26.59,26.52  c17.2,0,26.98-12.41,26.98-26.35C323.1,91,308.63,83,296.12,83C282.24,83,269.53,91.84,269.53,109.01z"></path>
<path d="M372.76,73.83h14.08v7.48c4.5-5.78,11.53-9.18,20.14-9.18c14.66,0,20.53,9.01,22.09,11.39  c7.82-10.71,18.96-11.39,24.44-11.39c24.05,0,26.39,17.51,26.39,27.54v44.71h-14.08v-42.84c0-7.99-1.17-18.53-14.47-18.53  c-16.23,0-17.99,13.6-17.99,22.1v39.27h-14.08v-41.82c0-4.93,0.2-19.55-14.66-19.55c-16.03,0-17.79,14.45-17.79,22.95v38.42h-14.08  V73.83z"></path>
<path d="M530.52,73.83v70.55h-14.08V73.83H530.52z"></path>
<path class="st0" d="M523.75,55.97c2.85,0,5.28-1.01,7.31-3.04c2.02-2.02,3.04-4.43,3.04-7.21c0-2.85-1.01-5.25-3.04-7.21  c-2.03-1.96-4.46-2.94-7.31-2.94c-2.66,0-5,1.03-7.02,3.08c-2.03,2.06-3.04,4.41-3.04,7.07c0,2.72,1.01,5.11,3.04,7.16  C518.75,54.94,521.09,55.97,523.75,55.97z"></path>
<path class="st0" d="M239.33,129.89L39.52,133.7L0,144.84h245.59C245.59,144.84,241.45,134.69,239.33,129.89z"></path>
<path class="st0" d="M221.78,119.49l2.71,5.84h12.43c-1.32-2.89-2.71-5.86-4.05-8.63L68.28,98.1l-50.51,26.15l41.48-15.04  l110.95,7.01l3.39,9.11h24.73l-3.1-7.52L221.78,119.49z"></path>
<polygon class="st0" points="225.34,102.02 185.5,92.96 182.86,93.66 181.98,92.16 89.88,71.2 35.45,106.98 82.74,80.27   159.85,94.18 163.5,101.39 188.91,104.82 185.96,99.03 213.79,103.67 216.38,108.53 229.7,110.33 "></polygon>
<polygon class="st0" points="130.2,48.36 134.14,54.09 164.93,65.55 156.72,53.15 117.07,36.55 70.59,74.55 112.75,42.25 "></polygon>
<polygon class="st0" points="217.39,88.23 188.12,78.33 177.36,84.67 174.34,79.99 189.24,71.17 195.63,73.3 198.88,78.18   214.86,84.15 209.35,75.71 189.94,67.39 173.65,78.91 169.15,71.92 106.27,50.66 55.91,87.91 101.42,56.86 144.47,69.42   150.07,78.08 177.52,85.36 178.37,86.5 187.32,83.01 205.24,88.38 208.24,93.5 222.7,97.33 "></polygon>
<polygon class="st0" points="151.93,46.41 147.36,40.06 183.76,56.92 188.29,62.91 206.04,70.92 197.08,58.83 126.78,23.22   90.05,56.45 120.37,32.12 "></polygon>
<polygon class="st0" points="169.76,39.99 174.86,45.91 194.62,55.72 187.45,47.07 132.4,14.8 104.04,41.63 129.7,19.09 "></polygon>
<polygon class="st0" points="155.06,24.31 159.65,28.9 184.4,43.51 174.49,32.57 135.94,9.63 118.36,26.13 134.39,12.07 "></polygon>
<polygon class="st0" points="140.92,10.05 145.07,14.08 170.42,28.33 162.07,19.85 137.9,6.42 129.13,14.8 137.05,7.83 "></polygon>
<polygon class="st0" points="158.26,16.09 152.04,10.12 139.95,2.8 135.24,8.09 138.66,5.11 "></polygon>
<polygon class="st0" points="147.67,5.91 141.38,0 138.7,2.95 140.55,1.65 "></polygon>
<g>
	<g>
		<g>
			<path d="M558.08,79.45c-0.36-0.85-0.86-1.59-1.5-2.21c-0.64-0.63-1.38-1.11-2.22-1.45c-0.84-0.34-1.75-0.51-2.71-0.51     c-1.01,0-1.95,0.17-2.79,0.51c-0.85,0.34-1.59,0.83-2.21,1.45s-1.11,1.37-1.45,2.21c-0.34,0.85-0.51,1.78-0.51,2.79     c0,1.01,0.17,1.94,0.51,2.79c0.34,0.85,0.83,1.59,1.45,2.21s1.37,1.11,2.21,1.45c0.85,0.34,1.78,0.51,2.79,0.51     c1.01,0,1.94-0.17,2.79-0.51c0.85-0.34,1.59-0.83,2.21-1.45s1.11-1.36,1.45-2.21c0.34-0.85,0.51-1.78,0.51-2.79     C558.62,81.23,558.44,80.29,558.08,79.45z M557.08,84.63c-0.3,0.72-0.73,1.35-1.27,1.89c-0.54,0.54-1.17,0.95-1.88,1.24     c-0.71,0.29-1.47,0.44-2.28,0.44c-0.86,0-1.65-0.16-2.38-0.47c-0.72-0.31-1.35-0.74-1.87-1.28c-0.53-0.54-0.93-1.18-1.23-1.9     c-0.29-0.72-0.44-1.49-0.44-2.32c0-1.15,0.25-2.18,0.76-3.08s1.21-1.61,2.1-2.12s1.91-0.77,3.05-0.77c0.86,0,1.65,0.16,2.37,0.47     c0.72,0.31,1.34,0.74,1.86,1.28c0.53,0.54,0.93,1.18,1.23,1.9c0.29,0.72,0.44,1.49,0.44,2.32     C557.54,83.11,557.39,83.91,557.08,84.63z"></path>
			<path d="M554.03,81.96c0.3-0.35,0.46-0.82,0.46-1.42c0-0.81-0.24-1.42-0.72-1.83c-0.48-0.41-1.24-0.62-2.28-0.62h-2.43v8.3h1.44     v-3.29h1.18l1.9,3.29h1.63l-2.2-3.69C553.38,82.56,553.72,82.31,554.03,81.96z M551.44,81.93h-0.95v-2.62h0.93     c0.56,0,0.96,0.1,1.22,0.3c0.25,0.2,0.38,0.53,0.38,0.97c0,0.41-0.14,0.73-0.42,0.98C552.32,81.81,551.94,81.93,551.44,81.93z"></path>
		</g>
	</g>
</g>
</svg>