<svg xmlns="http://www.w3.org/2000/svg" xml:space="preserve" viewBox="0 0 2751 2813.6"><path fill="#03A9F4" fill-rule="evenodd" d="M187.6 2438.4C84 2438.4 0 2354.4 0 2250.8c0-34.1 9.1-66.1 25.1-93.6L1213 94c32.2-56.1 92.9-94 162.4-94s130.2 37.9 162.5 94l1188 2063.2c16 27.5 25.1 59.5 25.1 93.6 0 103.6-84 187.6-187.6 187.6H187.6z" clip-rule="evenodd"/><linearGradient id="a" x1="1039.848" x2="2691.901" y1="1466.263" y2="2404.459" gradientUnits="userSpaceOnUse"><stop offset="0" style="stop-color:#1a237e;stop-opacity:.2"/><stop offset="1" style="stop-color:#1a237e;stop-opacity:2.000000e-02"/></linearGradient><path fill="url(#a)" d="M2751 2250.9 1375.4 875.3v1563h1188c103.6.1 187.5-83.9 187.6-187.4z"/><path fill="#039BE5" fill-rule="evenodd" d="M1212.9 94 25.1 2157.1c-16 27.5-25.1 59.5-25.1 93.6 0 103.6 84 187.6 187.6 187.6h1188V0c-69.7 0-130.4 37.9-162.7 94z" clip-rule="evenodd"/><path fill="#F1F1F1" fill-rule="evenodd" d="M1375.4 875.3 2438.2 2751l-62.6 62.6-1000.4-375.1-1000.2 375-62.6-62.6 1063-1875.6z" clip-rule="evenodd"/><path fill="#E1E1E1" fill-rule="evenodd" d="M1375.4 875.3 2438.2 2751l-62.6 62.6-1000.4-375.1" clip-rule="evenodd"/><path fill="#FFF" fill-rule="evenodd" d="m1375.4 891.3 1057.1 1865.5 5.7-5.8L1375.4 875.3 312.5 2750.9l5.8 5.8z" clip-rule="evenodd" opacity=".2"/><path fill="#1A237E" fill-rule="evenodd" d="M489.6 2424.4h-302c-101.3 0-183.8-80.3-187.5-180.7-.1 2.3-.1 4.7-.1 7.1 0 103.6 84 187.6 187.6 187.6h294.1l7.9-14z" clip-rule="evenodd" opacity=".2"/><path fill-rule="evenodd" d="m2375.7 2799.6-1000.4-375.1-1000.2 375-57.5-57.6-5.1 9 62.6 62.6 1000.2-375 1000.4 375.1 62.5-62.6-5-8.9z" clip-rule="evenodd" opacity=".07"/><path fill="#1A237E" fill-rule="evenodd" d="M2750.9 2243.7c0 .9-.1 1.9-.1 2.8v.2c-.1 1.5-.2 3.1-.3 4.6-.1 1.6-.3 3.1-.4 4.7v.1c-3.7 36.2-17.7 69.4-39.1 96.5v.1c-.9 1.2-1.8 2.3-2.8 3.4v.1c-.9 1.1-1.9 2.3-2.9 3.4l-.1.1c-1 1.1-1.9 2.2-2.9 3.3l-.1.1c-1 1.1-2 2.1-3 3.2l-.2.2c-1 1-2 2.1-3 3.1l-.1.1c-1 1-2.1 2-3.1 3l-.2.2c-1 1-2 1.9-3.1 2.9l-.2.2c-1 .9-2.1 1.9-3.2 2.8l-.4.4c-1 .9-2 1.7-3 2.5-.2.1-.3.3-.5.4l-3 2.4c-.2.1-.4.3-.5.4-1 .8-2 1.6-3 2.3-.2.1-.3.2-.5.3-1.1.8-2.1 1.6-3.2 2.3-.2.1-.4.3-.6.4-1 .7-2.1 1.5-3.1 2.2l-.9.6c-1 .6-1.9 1.3-2.9 1.9l-.9.6c-1 .6-1.9 1.2-2.9 1.8-.3.2-.6.3-.8.5-1 .6-2 1.2-3.1 1.8-.4.2-.7.4-1.1.6-1 .5-1.9 1.1-2.9 1.6-.4.2-.7.4-1.1.6-1 .5-2 1-2.9 1.6-.4.2-.8.4-1.3.6-.9.5-1.9.9-2.8 1.4-.5.2-.9.4-1.4.7-.9.4-1.8.9-2.7 1.3-.4.2-.9.4-1.3.6-1 .4-1.9.8-2.9 1.3-.5.2-.9.4-1.4.6-.9.4-1.9.8-2.8 1.2-.5.2-1.1.4-1.6.6-.9.3-1.8.7-2.7 1-.6.2-1.1.4-1.7.6-.9.3-1.8.6-2.6.9l-1.8.6c-.9.3-1.7.6-2.6.8l-2.1.6c-.8.2-1.6.5-2.3.7-.6.2-1.3.3-1.9.5-.8.2-1.7.5-2.5.7-.7.2-1.4.3-2 .5-.8.2-1.6.4-2.5.6-.8.2-1.7.4-2.5.5-.7.1-1.4.3-2 .4-.8.2-1.6.3-2.4.5-.7.1-1.4.3-2.2.4-.8.1-1.6.3-2.4.4-.7.1-1.5.3-2.2.4-.8.1-1.7.2-2.5.4l-2.1.3c-1 .1-1.9.2-2.9.3-.6.1-1.2.1-1.8.2-.8.1-1.7.2-2.6.2-.7.1-1.5.1-2.2.2-.8.1-1.6.1-2.4.2-.8.1-1.6.1-2.4.2-1.6.1-3.1.1-4.7.2h-.1c-1.6 0-3.2.1-4.8.1h-302.3l7.9 14h294.4c4.9 0 9.7-.2 14.4-.5.3 0 .5 0 .8-.1 1.3-.1 2.7-.2 4-.4h.2c1.5-.2 3-.3 4.5-.5.3 0 .7-.1 1-.1 1.2-.2 2.5-.3 3.7-.5.4-.1.8-.1 1.2-.2 1.2-.2 2.3-.4 3.5-.6.5-.1.9-.2 1.4-.3 1.1-.2 2.2-.4 3.2-.6.4-.1.9-.2 1.3-.3 1.1-.2 2.2-.5 3.3-.7.6-.1 1.1-.3 1.7-.4.9-.2 1.9-.4 2.8-.7.7-.2 1.3-.4 2-.5.8-.2 1.7-.4 2.5-.7.6-.2 1.2-.4 1.8-.5.9-.3 1.7-.5 2.6-.8.7-.2 1.4-.4 2-.7.8-.3 1.6-.5 2.4-.8.7-.3 1.5-.5 2.2-.8.7-.2 1.4-.5 2.1-.7.8-.3 1.5-.6 2.2-.9.7-.3 1.4-.5 2-.8.8-.3 1.6-.7 2.4-1 .6-.2 1.2-.5 1.8-.7.8-.4 1.7-.7 2.5-1.1.6-.2 1.1-.5 1.7-.7.8-.4 1.6-.7 2.4-1.1.6-.3 1.1-.5 1.7-.8.8-.4 1.7-.8 2.5-1.2.5-.3 1-.5 1.6-.8.9-.5 1.8-.9 2.7-1.4.4-.2.9-.5 1.4-.7.9-.5 1.8-1 2.6-1.5.4-.2.9-.5 1.3-.7.9-.5 1.9-1.1 2.8-1.7.4-.2.7-.4 1.1-.6 1-.6 1.9-1.2 2.9-1.8.3-.2.7-.4 1-.6 1-.6 1.9-1.3 2.9-1.9l.9-.6 3-2.1c.2-.2.5-.3.7-.5 1-.7 2-1.4 3-2.2.2-.2.4-.3.7-.5 1-.7 1.9-1.5 2.9-2.2.2-.2.5-.3.7-.5 1-.8 1.9-1.5 2.9-2.3.2-.2.4-.3.6-.5 1-.8 1.9-1.6 2.8-2.4.2-.2.4-.3.6-.5l3-2.7.3-.3c1-.9 2.1-1.9 3.1-2.9l.2-.2c1-1 2-1.9 3-2.9.1-.1.2-.1.2-.2 1-1 2-2 3-3.1l.2-.2c1-1 2-2.1 3-3.2l.1-.1c1-1.1 1.9-2.1 2.8-3.2l.2-.2c1-1.1 1.9-2.2 2.9-3.4l.1-.1c.9-1.1 1.9-2.3 2.8-3.4v-.1c.9-1.2 1.8-2.3 2.7-3.5v-.1c19.8-26.4 32.8-58.3 36.3-92.9v-.1c.2-1.6.3-3.1.4-4.7.1-1.5.2-3.1.3-4.6v-.2c.1-1.5.1-3 .2-4.5v-.3c0-1.5.1-3 .1-4.5v-.4c-.5-2.6-.6-5-.6-7.3z" clip-rule="evenodd" opacity=".2"/><path fill="#FFF" fill-rule="evenodd" d="M25.1 2171.1 1212.9 108c16.2-28.1 39.5-51.6 67.4-68.1 27.9-16.5 60.4-25.9 95.1-25.9h.2c69.5 0 130.1 37.9 162.4 94l1188 2063.2c14.9 25.6 23.7 55.1 24.9 86.5 0-.6 0-1.1.1-1.7v-.3c0-1.5.1-3 .1-4.5v-.4c0-34.1-9.1-66.1-25.1-93.6L1538 94c-32.3-56.1-93-93.9-162.4-94h-.2c-34.7 0-67.2 9.4-95 25.9-28 16.5-51.3 40-67.5 68.1L25.1 2157.1c-16 27.5-25.1 59.5-25.1 93.6 0 2.3.1 4.6.1 6.9 1.2-31.4 10.1-60.8 25-86.5z" clip-rule="evenodd" opacity=".2"/><radialGradient id="b" cx="1006.982" cy="188.699" r="3140.371" gradientUnits="userSpaceOnUse"><stop offset="0" style="stop-color:#fff;stop-opacity:.1"/><stop offset="1" style="stop-color:#fff;stop-opacity:0"/></radialGradient><path fill="url(#b)" fill-rule="evenodd" d="m2702.1 2377.1.1-.1c1-1.1 1.9-2.1 2.8-3.2l.2-.2c1-1.1 1.9-2.2 2.9-3.4l.1-.1c.9-1.1 1.9-2.3 2.8-3.4v-.1c.9-1.2 1.8-2.3 2.7-3.5v-.1c19.8-26.4 32.8-58.3 36.3-92.9v-.1c.2-1.6.3-3.1.4-4.7.1-1.5.2-3.1.3-4.6v-.2c.1-1.5.1-3 .2-4.5v-.3c0-1.5.1-3 .1-4.5v-.4c0-34.1-9.1-66.1-25.1-93.6L1538 94c-32.3-56.1-93-93.9-162.4-94h-.2c-34.7 0-67.2 9.4-95 25.9-28 16.5-51.3 40-67.5 68.1L25.1 2157.1c-16 27.5-25.1 59.5-25.1 93.6 0 103.6 84 187.6 187.6 187.6h302l-177.1 312.5 62.6 62.6 1000.2-375 1000.4 375.1 62.6-62.6-177.1-312.6h302.3c4.9 0 9.7-.2 14.4-.5.3 0 .5 0 .8-.1 1.3-.1 2.7-.2 4-.4h.2c1.5-.2 3-.3 4.5-.5.3 0 .7-.1 1-.1 1.2-.2 2.5-.3 3.7-.5.4-.1.8-.1 1.2-.2 1.2-.2 2.3-.4 3.5-.6.5-.1.9-.2 1.4-.3 1.1-.2 2.2-.4 3.2-.6.4-.1.9-.2 1.3-.3 1.1-.2 2.2-.5 3.3-.7.6-.1 1.1-.3 1.7-.4.9-.2 1.9-.4 2.8-.7.7-.2 1.3-.4 2-.5.8-.2 1.7-.4 2.5-.7.6-.2 1.2-.4 1.8-.5.9-.3 1.7-.5 2.6-.8.7-.2 1.4-.4 2-.7.8-.3 1.6-.5 2.4-.8.7-.3 1.5-.5 2.2-.8.7-.2 1.4-.5 2.1-.7.8-.3 1.5-.6 2.2-.9.7-.3 1.4-.5 2-.8.8-.3 1.6-.7 2.4-1 .6-.2 1.2-.5 1.8-.7.8-.4 1.7-.7 2.5-1.1.6-.2 1.1-.5 1.7-.7.8-.4 1.6-.7 2.4-1.1.6-.3 1.1-.5 1.7-.8.8-.4 1.7-.8 2.5-1.2.5-.3 1-.5 1.6-.8.9-.5 1.8-.9 2.7-1.4.4-.2.9-.5 1.4-.7.9-.5 1.8-1 2.6-1.5.4-.2.9-.5 1.3-.7.9-.5 1.9-1.1 2.8-1.7.4-.2.7-.4 1.1-.6 1-.6 1.9-1.2 2.9-1.8.3-.2.7-.4 1-.6 1-.6 1.9-1.3 2.9-1.9l.9-.6 3-2.1c.2-.2.5-.3.7-.5 1-.7 2-1.4 3-2.2.2-.2.4-.3.7-.5 1-.7 1.9-1.5 2.9-2.2.2-.2.5-.3.7-.5 1-.8 1.9-1.5 2.9-2.3.2-.2.4-.3.6-.5 1-.8 1.9-1.6 2.8-2.4.2-.2.4-.3.6-.5l3-2.7.3-.3c1-.9 2.1-1.9 3.1-2.9l.2-.2c1-1 2-1.9 3-2.9.1-.1.2-.1.2-.2 1-1 2-2 3-3.1l.2-.2c.8-.9 1.7-2 2.7-3z" clip-rule="evenodd"/></svg>