<?xml version="1.0" encoding="utf-8"?>
<!-- Generator: Adobe Illustrator 23.0.1, SVG Export Plug-In . SVG Version: 6.00 Build 0)  -->
<!DOCTYPE svg PUBLIC "-//W3C//DTD SVG 1.1//EN" "http://www.w3.org/Graphics/SVG/1.1/DTD/svg11.dtd" [
	<!ENTITY ns_extend "http://ns.adobe.com/Extensibility/1.0/">
	<!ENTITY ns_ai "http://ns.adobe.com/AdobeIllustrator/10.0/">
	<!ENTITY ns_graphs "http://ns.adobe.com/Graphs/1.0/">
	<!ENTITY ns_vars "http://ns.adobe.com/Variables/1.0/">
	<!ENTITY ns_imrep "http://ns.adobe.com/ImageReplacement/1.0/">
	<!ENTITY ns_sfw "http://ns.adobe.com/SaveForWeb/1.0/">
	<!ENTITY ns_custom "http://ns.adobe.com/GenericCustomNamespace/1.0/">
	<!ENTITY ns_adobe_xpath "http://ns.adobe.com/XPath/1.0/">
]>
<svg version="1.1" id="Livello_1" xmlns:x="&ns_extend;" xmlns:i="&ns_ai;" xmlns:graph="&ns_graphs;"
	 xmlns="http://www.w3.org/2000/svg" xmlns:xlink="http://www.w3.org/1999/xlink" x="0px" y="0px" viewBox="0 0 2751 2813.6"
	 enable-background="new 0 0 2751 2813.6" xml:space="preserve">
<metadata>
	<sfw  xmlns="&ns_sfw;">
		<slices></slices>
		<sliceSourceBounds  bottomLeftOrigin="true" height="2813.6" width="2751" x="-127.1" y="-211.6"></sliceSourceBounds>
	</sfw>
</metadata>
<g>
	<path fill-rule="evenodd" clip-rule="evenodd" fill="#03A9F4" d="M187.6,2438.4C84,2438.4,0,2354.4,0,2250.8
		c0-34.1,9.1-66.1,25.1-93.6L1213,94c32.2-56.1,92.9-94,162.4-94s130.2,37.9,162.5,94l1188,2063.2c16,27.5,25.1,59.5,25.1,93.6
		c0,103.6-84,187.6-187.6,187.6H187.6z"/>
	<linearGradient id="SVGID_1_" gradientUnits="userSpaceOnUse" x1="1039.8481" y1="1466.2634" x2="2691.9006" y2="2404.459">
		<stop  offset="0" style="stop-color:#1A237E;stop-opacity:0.2"/>
		<stop  offset="1" style="stop-color:#1A237E;stop-opacity:2.000000e-02"/>
	</linearGradient>
	<path fill="url(#SVGID_1_)" d="M2751,2250.9L1375.4,875.3v1563h1188C2667,2438.4,2750.9,2354.4,2751,2250.9z"/>
	<path fill-rule="evenodd" clip-rule="evenodd" fill="#039BE5" d="M1212.9,94L25.1,2157.1c-16,27.5-25.1,59.5-25.1,93.6
		c0,103.6,84,187.6,187.6,187.6h1188V0C1305.9,0,1245.2,37.9,1212.9,94L1212.9,94z"/>
	<path fill-rule="evenodd" clip-rule="evenodd" fill="#F1F1F1" d="M1375.4,875.3L2438.2,2751l-62.6,62.6l-1000.4-375.1l-1000.2,375
		l-62.6-62.6L1375.4,875.3z"/>
	<path fill-rule="evenodd" clip-rule="evenodd" fill="#E1E1E1" d="M1375.4,875.3L2438.2,2751l-62.6,62.6l-1000.4-375.1"/>
	<polygon opacity="0.2" fill-rule="evenodd" clip-rule="evenodd" fill="#FFFFFF" points="1375.4,891.3 2432.5,2756.8 2438.2,2751 
		1375.4,875.3 312.5,2750.9 318.3,2756.7 	"/>
	<path opacity="0.2" fill-rule="evenodd" clip-rule="evenodd" fill="#1A237E" d="M489.6,2424.4h-302
		c-101.3,0-183.8-80.3-187.5-180.7c-0.1,2.3-0.1,4.7-0.1,7.1c0,103.6,84,187.6,187.6,187.6h294.1L489.6,2424.4z"/>
	<polygon opacity="7.000000e-02" fill-rule="evenodd" clip-rule="evenodd" enable-background="new    " points="2375.7,2799.6 
		1375.3,2424.5 375.1,2799.5 317.6,2741.9 312.5,2750.9 375.1,2813.5 1375.3,2438.5 2375.7,2813.6 2438.2,2751 2433.2,2742.1 	"/>
	<path opacity="0.2" fill-rule="evenodd" clip-rule="evenodd" fill="#1A237E" d="M2750.9,2243.7c0,0.9-0.1,1.9-0.1,2.8
		c0,0.1,0,0.1,0,0.2c-0.1,1.5-0.2,3.1-0.3,4.6c0,0,0,0,0,0c-0.1,1.6-0.3,3.1-0.4,4.7c0,0,0,0.1,0,0.1c-3.7,36.2-17.7,69.4-39.1,96.5
		c0,0,0,0,0,0.1c-0.9,1.2-1.8,2.3-2.8,3.4c0,0,0,0,0,0.1c-0.9,1.1-1.9,2.3-2.9,3.4c0,0-0.1,0.1-0.1,0.1c-1,1.1-1.9,2.2-2.9,3.3
		c0,0-0.1,0.1-0.1,0.1c-1,1.1-2,2.1-3,3.2c-0.1,0.1-0.1,0.1-0.2,0.2c-1,1-2,2.1-3,3.1c0,0-0.1,0.1-0.1,0.1c-1,1-2.1,2-3.1,3
		c-0.1,0.1-0.1,0.1-0.2,0.2c-1,1-2,1.9-3.1,2.9c-0.1,0.1-0.1,0.1-0.2,0.2c-1,0.9-2.1,1.9-3.2,2.8c-0.1,0.1-0.3,0.3-0.4,0.4
		c-1,0.9-2,1.7-3,2.5c-0.2,0.1-0.3,0.3-0.5,0.4c-1,0.8-2,1.6-3,2.4c-0.2,0.1-0.4,0.3-0.5,0.4c-1,0.8-2,1.6-3,2.3
		c-0.2,0.1-0.3,0.2-0.5,0.3c-1.1,0.8-2.1,1.6-3.2,2.3c-0.2,0.1-0.4,0.3-0.6,0.4c-1,0.7-2.1,1.5-3.1,2.2c-0.3,0.2-0.6,0.4-0.9,0.6
		c-1,0.6-1.9,1.3-2.9,1.9c-0.3,0.2-0.6,0.4-0.9,0.6c-1,0.6-1.9,1.2-2.9,1.8c-0.3,0.2-0.6,0.3-0.8,0.5c-1,0.6-2,1.2-3.1,1.8
		c-0.4,0.2-0.7,0.4-1.1,0.6c-1,0.5-1.9,1.1-2.9,1.6c-0.4,0.2-0.7,0.4-1.1,0.6c-1,0.5-2,1-2.9,1.6c-0.4,0.2-0.8,0.4-1.3,0.6
		c-0.9,0.5-1.9,0.9-2.8,1.4c-0.5,0.2-0.9,0.4-1.4,0.7c-0.9,0.4-1.8,0.9-2.7,1.3c-0.4,0.2-0.9,0.4-1.3,0.6c-1,0.4-1.9,0.8-2.9,1.3
		c-0.5,0.2-0.9,0.4-1.4,0.6c-0.9,0.4-1.9,0.8-2.8,1.2c-0.5,0.2-1.1,0.4-1.6,0.6c-0.9,0.3-1.8,0.7-2.7,1c-0.6,0.2-1.1,0.4-1.7,0.6
		c-0.9,0.3-1.8,0.6-2.6,0.9c-0.6,0.2-1.2,0.4-1.8,0.6c-0.9,0.3-1.7,0.6-2.6,0.8c-0.7,0.2-1.4,0.4-2.1,0.6c-0.8,0.2-1.6,0.5-2.3,0.7
		c-0.6,0.2-1.3,0.3-1.9,0.5c-0.8,0.2-1.7,0.5-2.5,0.7c-0.7,0.2-1.4,0.3-2,0.5c-0.8,0.2-1.6,0.4-2.5,0.6c-0.8,0.2-1.7,0.4-2.5,0.5
		c-0.7,0.1-1.4,0.3-2,0.4c-0.8,0.2-1.6,0.3-2.4,0.5c-0.7,0.1-1.4,0.3-2.2,0.4c-0.8,0.1-1.6,0.3-2.4,0.4c-0.7,0.1-1.5,0.3-2.2,0.4
		c-0.8,0.1-1.7,0.2-2.5,0.4c-0.7,0.1-1.4,0.2-2.1,0.3c-1,0.1-1.9,0.2-2.9,0.3c-0.6,0.1-1.2,0.1-1.8,0.2c-0.8,0.1-1.7,0.2-2.6,0.2
		c-0.7,0.1-1.5,0.1-2.2,0.2c-0.8,0.1-1.6,0.1-2.4,0.2c-0.8,0.1-1.6,0.1-2.4,0.2c-1.6,0.1-3.1,0.1-4.7,0.2c0,0-0.1,0-0.1,0
		c-1.6,0-3.2,0.1-4.8,0.1h0h-302.3l7.9,14h294.4c4.9,0,9.7-0.2,14.4-0.5c0.3,0,0.5,0,0.8-0.1c1.3-0.1,2.7-0.2,4-0.4
		c0.1,0,0.1,0,0.2,0c1.5-0.2,3-0.3,4.5-0.5c0.3,0,0.7-0.1,1-0.1c1.2-0.2,2.5-0.3,3.7-0.5c0.4-0.1,0.8-0.1,1.2-0.2
		c1.2-0.2,2.3-0.4,3.5-0.6c0.5-0.1,0.9-0.2,1.4-0.3c1.1-0.2,2.2-0.4,3.2-0.6c0.4-0.1,0.9-0.2,1.3-0.3c1.1-0.2,2.2-0.5,3.3-0.7
		c0.6-0.1,1.1-0.3,1.7-0.4c0.9-0.2,1.9-0.4,2.8-0.7c0.7-0.2,1.3-0.4,2-0.5c0.8-0.2,1.7-0.4,2.5-0.7c0.6-0.2,1.2-0.4,1.8-0.5
		c0.9-0.3,1.7-0.5,2.6-0.8c0.7-0.2,1.4-0.4,2-0.7c0.8-0.3,1.6-0.5,2.4-0.8c0.7-0.3,1.5-0.5,2.2-0.8c0.7-0.2,1.4-0.5,2.1-0.7
		c0.8-0.3,1.5-0.6,2.2-0.9c0.7-0.3,1.4-0.5,2-0.8c0.8-0.3,1.6-0.7,2.4-1c0.6-0.2,1.2-0.5,1.8-0.7c0.8-0.4,1.7-0.7,2.5-1.1
		c0.6-0.2,1.1-0.5,1.7-0.7c0.8-0.4,1.6-0.7,2.4-1.1c0.6-0.3,1.1-0.5,1.7-0.8c0.8-0.4,1.7-0.8,2.5-1.2c0.5-0.3,1-0.5,1.6-0.8
		c0.9-0.5,1.8-0.9,2.7-1.4c0.4-0.2,0.9-0.5,1.4-0.7c0.9-0.5,1.8-1,2.6-1.5c0.4-0.2,0.9-0.5,1.3-0.7c0.9-0.5,1.9-1.1,2.8-1.7
		c0.4-0.2,0.7-0.4,1.1-0.6c1-0.6,1.9-1.2,2.9-1.8c0.3-0.2,0.7-0.4,1-0.6c1-0.6,1.9-1.3,2.9-1.9c0.3-0.2,0.6-0.4,0.9-0.6
		c1-0.7,2-1.4,3-2.1c0.2-0.2,0.5-0.3,0.7-0.5c1-0.7,2-1.4,3-2.2c0.2-0.2,0.4-0.3,0.7-0.5c1-0.7,1.9-1.5,2.9-2.2
		c0.2-0.2,0.5-0.3,0.7-0.5c1-0.8,1.9-1.5,2.9-2.3c0.2-0.2,0.4-0.3,0.6-0.5c1-0.8,1.9-1.6,2.8-2.4c0.2-0.2,0.4-0.3,0.6-0.5
		c1-0.9,2-1.8,3-2.7c0.1-0.1,0.2-0.2,0.3-0.3c1-0.9,2.1-1.9,3.1-2.9c0.1-0.1,0.1-0.1,0.2-0.2c1-1,2-1.9,3-2.9
		c0.1-0.1,0.2-0.1,0.2-0.2c1-1,2-2,3-3.1c0.1-0.1,0.1-0.1,0.2-0.2c1-1,2-2.1,3-3.2c0,0,0.1-0.1,0.1-0.1c1-1.1,1.9-2.1,2.8-3.2
		c0.1-0.1,0.1-0.1,0.2-0.2c1-1.1,1.9-2.2,2.9-3.4c0,0,0,0,0.1-0.1c0.9-1.1,1.9-2.3,2.8-3.4c0,0,0,0,0-0.1c0.9-1.2,1.8-2.3,2.7-3.5
		c0,0,0,0,0-0.1c19.8-26.4,32.8-58.3,36.3-92.9c0,0,0-0.1,0-0.1c0.2-1.6,0.3-3.1,0.4-4.7c0,0,0,0,0,0c0.1-1.5,0.2-3.1,0.3-4.6
		c0-0.1,0-0.1,0-0.2c0.1-1.5,0.1-3,0.2-4.5c0-0.1,0-0.2,0-0.3c0-1.5,0.1-3,0.1-4.5c0-0.1,0-0.2,0-0.3l0,0c0,0,0-0.1,0-0.1
		C2751,2248.4,2750.9,2246,2750.9,2243.7z"/>
	<path opacity="0.2" fill-rule="evenodd" clip-rule="evenodd" fill="#FFFFFF" d="M25.1,2171.1L1212.9,108
		c16.2-28.1,39.5-51.6,67.4-68.1c27.9-16.5,60.4-25.9,95.1-25.9c0,0,0,0,0.1,0c0,0,0,0,0.1,0v0c69.5,0,130.1,37.9,162.4,94
		l1188,2063.2c14.9,25.6,23.7,55.1,24.9,86.5c0-0.6,0-1.1,0.1-1.7c0-0.1,0-0.2,0-0.3c0-1.5,0.1-3,0.1-4.5c0-0.1,0-0.2,0-0.3l0,0
		c0,0,0-0.1,0-0.1c0-34.1-9.1-66.1-25.1-93.6L1538,94c-32.3-56.1-93-93.9-162.4-94v0c0,0,0,0-0.1,0c0,0,0,0-0.1,0
		c-34.7,0-67.2,9.4-95,25.9c-28,16.5-51.3,40-67.5,68.1L25.1,2157.1c-16,27.5-25.1,59.5-25.1,93.6c0,2.3,0.1,4.6,0.1,6.9
		C1.3,2226.2,10.2,2196.8,25.1,2171.1z"/>
	<radialGradient id="SVGID_2_" cx="1006.9824" cy="188.6988" r="3140.3711" gradientUnits="userSpaceOnUse">
		<stop  offset="0" style="stop-color:#FFFFFF;stop-opacity:0.1"/>
		<stop  offset="1" style="stop-color:#FFFFFF;stop-opacity:0"/>
	</radialGradient>
	<path fill-rule="evenodd" clip-rule="evenodd" fill="url(#SVGID_2_)" d="M2702.1,2377.1c0,0,0.1-0.1,0.1-0.1c1-1.1,1.9-2.1,2.8-3.2
		c0.1-0.1,0.1-0.1,0.2-0.2c1-1.1,1.9-2.2,2.9-3.4c0,0,0,0,0.1-0.1c0.9-1.1,1.9-2.3,2.8-3.4c0,0,0,0,0-0.1c0.9-1.2,1.8-2.3,2.7-3.5
		c0,0,0,0,0-0.1c19.8-26.4,32.8-58.3,36.3-92.9c0,0,0-0.1,0-0.1c0.2-1.6,0.3-3.1,0.4-4.7c0,0,0,0,0,0c0.1-1.5,0.2-3.1,0.3-4.6
		c0-0.1,0-0.1,0-0.2c0.1-1.5,0.1-3,0.2-4.5c0-0.1,0-0.2,0-0.3c0-1.5,0.1-3,0.1-4.5c0-0.1,0-0.2,0-0.3l0,0c0,0,0-0.1,0-0.1
		c0-34.1-9.1-66.1-25.1-93.6L1538,94c-32.3-56.1-93-93.9-162.4-94v0c0,0,0,0-0.1,0c0,0,0,0-0.1,0c-34.7,0-67.2,9.4-95,25.9
		c-28,16.5-51.3,40-67.5,68.1L25.1,2157.1c-16,27.5-25.1,59.5-25.1,93.6c0,103.6,84,187.6,187.6,187.6h302l-177.1,312.5l62.6,62.6
		l1000.2-375l1000.4,375.1l62.6-62.6l-177.1-312.6h302.3c4.9,0,9.7-0.2,14.4-0.5c0.3,0,0.5,0,0.8-0.1c1.3-0.1,2.7-0.2,4-0.4
		c0.1,0,0.1,0,0.2,0c1.5-0.2,3-0.3,4.5-0.5c0.3,0,0.7-0.1,1-0.1c1.2-0.2,2.5-0.3,3.7-0.5c0.4-0.1,0.8-0.1,1.2-0.2
		c1.2-0.2,2.3-0.4,3.5-0.6c0.5-0.1,0.9-0.2,1.4-0.3c1.1-0.2,2.2-0.4,3.2-0.6c0.4-0.1,0.9-0.2,1.3-0.3c1.1-0.2,2.2-0.5,3.3-0.7
		c0.6-0.1,1.1-0.3,1.7-0.4c0.9-0.2,1.9-0.4,2.8-0.7c0.7-0.2,1.3-0.4,2-0.5c0.8-0.2,1.7-0.4,2.5-0.7c0.6-0.2,1.2-0.4,1.8-0.5
		c0.9-0.3,1.7-0.5,2.6-0.8c0.7-0.2,1.4-0.4,2-0.7c0.8-0.3,1.6-0.5,2.4-0.8c0.7-0.3,1.5-0.5,2.2-0.8c0.7-0.2,1.4-0.5,2.1-0.7
		c0.8-0.3,1.5-0.6,2.2-0.9c0.7-0.3,1.4-0.5,2-0.8c0.8-0.3,1.6-0.7,2.4-1c0.6-0.2,1.2-0.5,1.8-0.7c0.8-0.4,1.7-0.7,2.5-1.1
		c0.6-0.2,1.1-0.5,1.7-0.7c0.8-0.4,1.6-0.7,2.4-1.1c0.6-0.3,1.1-0.5,1.7-0.8c0.8-0.4,1.7-0.8,2.5-1.2c0.5-0.3,1-0.5,1.6-0.8
		c0.9-0.5,1.8-0.9,2.7-1.4c0.4-0.2,0.9-0.5,1.4-0.7c0.9-0.5,1.8-1,2.6-1.5c0.4-0.2,0.9-0.5,1.3-0.7c0.9-0.5,1.9-1.1,2.8-1.7
		c0.4-0.2,0.7-0.4,1.1-0.6c1-0.6,1.9-1.2,2.9-1.8c0.3-0.2,0.7-0.4,1-0.6c1-0.6,1.9-1.3,2.9-1.9c0.3-0.2,0.6-0.4,0.9-0.6
		c1-0.7,2-1.4,3-2.1c0.2-0.2,0.5-0.3,0.7-0.5c1-0.7,2-1.4,3-2.2c0.2-0.2,0.4-0.3,0.7-0.5c1-0.7,1.9-1.5,2.9-2.2
		c0.2-0.2,0.5-0.3,0.7-0.5c1-0.8,1.9-1.5,2.9-2.3c0.2-0.2,0.4-0.3,0.6-0.5c1-0.8,1.9-1.6,2.8-2.4c0.2-0.2,0.4-0.3,0.6-0.5
		c1-0.9,2-1.8,3-2.7c0.1-0.1,0.2-0.2,0.3-0.3c1-0.9,2.1-1.9,3.1-2.9c0.1-0.1,0.1-0.1,0.2-0.2c1-1,2-1.9,3-2.9
		c0.1-0.1,0.2-0.1,0.2-0.2c1-1,2-2,3-3.1c0.1-0.1,0.1-0.1,0.2-0.2C2700.2,2379.2,2701.1,2378.1,2702.1,2377.1z"/>
</g>
</svg>
