<?xml version="1.0" encoding="UTF-8"?>
<!-- Created with Inkscape (http://www.inkscape.org/) -->
<svg width="432" height="432" version="1.1" viewBox="0 0 432 432" xmlns="http://www.w3.org/2000/svg">
 <path d="m196.61 406.2c-55.061-5.3108-106.1-36.364-137.05-83.388-31.049-47.169-38.676-106.73-20.614-161 22.106-66.422 80.62-115.12 150.21-125.02 13.377-1.9018 38.789-1.8795 52.595 0.0462 71.917 10.031 132.23 62.598 152.57 132.97 6.6791 23.108 8.7688 55.096 5.1283 78.5-15.388 98.922-103.46 167.47-202.84 157.89zm104.73-91.94c4.283-2.583 6.8976-7.5411 6.8169-12.927-0.0538-3.5903-7.8198-23.138-37.75-95.02-20.725-49.775-38.468-91.848-39.429-93.497-6.0387-10.364-19.911-9.8073-25.783 1.0353-4.3251 7.986-82.494 197.5-82.166 199.2 0.30608 1.5894 1.8354 1.76 15.772 1.76h15.433l15.607-39c8.5836-21.45 16.12-39 16.749-39 0.62812 0 22.832 17.513 49.343 38.918 26.511 21.405 49.823 39.497 51.805 40.204 4.2171 1.5053 9.3852 0.86889 13.604-1.6752zm-71.5-78.592c-16.225-12.908-30.373-24.109-31.44-24.89-1.875-1.3726-1.5723-2.3436 9-28.869 6.0171-15.097 11.243-26.909 11.613-26.249 0.91785 1.6366 41.827 102.53 41.827 103.15 0 1.3429-3.5846-1.3334-31-23.145z" fill="#fe574f"/>
</svg>
