<svg xmlns="http://www.w3.org/2000/svg" viewBox="0 0 48 48"><path fill="none" d="M.002 3.282h48.006v41.445H.002z"/><path fill="#fff" d="M23.998 44.717H0V3.28h47.997v41.437z"/><path fill="none" d="M0 3.28h48v41.44H0z"/><path fill="#809cc9" d="M0 3.28v12.66c6.485-2.714 15.164-5.445 26.058-8.197A331.574 331.574 0 0 1 46.296 3.28zm31.012 6.022c-5.716 1.442-10.314 2.91-13.794 4.4-3.487 1.458-5.115 2.645-4.885 3.555.202.803 1.66 1.169 4.384 1.09 1.398-.025 3.67-.177 6.818-.457 3.15-.277 7.213-.683 12.189-1.212 4.928-.514 9-.863 12.273-1.065V5.992c-6.324.945-11.993 2.047-16.985 3.31zm-2.863 13.06c-2.475.186-5.546.47-9.218.857-5.697.61-10.43 1.074-14.197 1.386-1.802.15-3.37.261-4.734.34v10.26c7.474-1.102 14.232-2.412 20.26-3.933 5.924-1.496 10.488-2.948 13.694-4.356 3.203-1.41 4.68-2.595 4.437-3.565-.21-.838-1.691-1.266-4.434-1.285-1.405.016-3.339.114-5.808.296zm19.848 3.32c-6.57 2.589-14.72 5.111-24.458 7.57C14.465 35.543 6.626 37.19 0 38.202v.091h47.997z"/><path fill="#fff" d="M2.066 27.82c.126 0 .233.047.324.142a.443.443 0 0 1 .139.324c0 .133-.047.246-.139.337s-.201.136-.33.136a.466.466 0 0 1-.472-.472.466.466 0 0 1 .479-.466zm.324 3.165a.454.454 0 0 1 .139.334.47.47 0 0 1-.655.428.433.433 0 0 1-.148-.097.411.411 0 0 1-.1-.151.456.456 0 0 1-.039-.186.473.473 0 0 1 .479-.47c.126 0 .233.048.324.142zm1.301-3.165c.126 0 .233.047.324.142a.443.443 0 0 1 .14.324c0 .133-.048.246-.14.337s-.201.136-.33.136a.463.463 0 0 1-.472-.472c0-.13.043-.24.135-.331a.478.478 0 0 1 .343-.136zm.324 3.165a.454.454 0 0 1 .14.334.47.47 0 0 1-.655.428.48.48 0 0 1-.152-.097.447.447 0 0 1-.098-.151.456.456 0 0 1-.038-.186c0-.13.044-.24.136-.33a.48.48 0 0 1 .343-.14c.126 0 .233.048.324.142z"/><path fill="#809cc9" d="M2.68 42.437c-.1.15-.246.27-.434.359a1.67 1.67 0 0 1-.68.129c-.313 0-.57-.06-.776-.177a1.022 1.022 0 0 1-.352-.343.764.764 0 0 1-.136-.416.28.28 0 0 1 .08-.201.293.293 0 0 1 .207-.082.24.24 0 0 1 .173.066.477.477 0 0 1 .12.192c.04.101.085.186.132.255.047.066.113.123.199.167s.198.066.337.066a.764.764 0 0 0 .466-.132.407.407 0 0 0 .18-.334.347.347 0 0 0-.099-.258.594.594 0 0 0-.248-.151 4.539 4.539 0 0 0-.41-.11 3.015 3.015 0 0 1-.576-.19.89.89 0 0 1-.365-.292.75.75 0 0 1-.136-.46c0-.176.047-.334.142-.47a.922.922 0 0 1 .416-.311c.18-.076.393-.11.639-.11.192 0 .362.025.504.072s.261.113.356.192a.786.786 0 0 1 .204.255.572.572 0 0 1 .067.259.316.316 0 0 1-.082.207.259.259 0 0 1-.202.092.233.233 0 0 1-.167-.057.723.723 0 0 1-.123-.18.877.877 0 0 0-.21-.283c-.08-.066-.212-.1-.391-.1a.68.68 0 0 0-.403.11c-.101.072-.151.16-.151.264 0 .063.015.12.05.164a.395.395 0 0 0 .145.12c.06.034.12.06.182.078s.167.047.31.082c.179.044.342.091.487.142s.268.11.369.183.182.163.24.274a.904.904 0 0 1 .084.409c0 .192-.05.365-.148.52zm2.705-2.413c0-.129.029-.227.089-.293a.289.289 0 0 1 .23-.097c.1 0 .18.031.239.097s.088.164.088.293v1.569c0 .18.019.327.06.447.038.12.11.214.21.28s.243.098.423.098c.252 0 .428-.066.532-.202.104-.132.158-.337.158-.61v-1.582c0-.132.028-.23.085-.293.06-.066.135-.097.233-.097s.176.031.236.097c.06.063.091.16.091.293v1.534c0 .249-.025.457-.072.623a.972.972 0 0 1-.277.438 1.052 1.052 0 0 1-.403.233 1.786 1.786 0 0 1-.536.073c-.245 0-.456-.025-.633-.079s-.318-.135-.431-.246a.974.974 0 0 1-.243-.425 2.123 2.123 0 0 1-.079-.62zm5.755 2.847c-.14 0-.24-.031-.3-.094s-.091-.164-.091-.303v-2.39c0-.142.031-.243.091-.302.063-.063.164-.092.3-.092h1.032c.155 0 .284.007.397.026.11.018.211.056.3.107a.802.802 0 0 1 .198.173c.06.066.104.142.132.227a.71.71 0 0 1 .047.261c0 .321-.16.551-.478.7.419.135.626.393.626.777 0 .18-.044.34-.135.482a.821.821 0 0 1-.369.318 1.42 1.42 0 0 1-.336.085 3.472 3.472 0 0 1-.441.025zm.255-2.702v.825h.592c.16 0 .283-.016.371-.044a.368.368 0 0 0 .202-.176.376.376 0 0 0 .053-.205c0-.16-.056-.268-.17-.321s-.29-.079-.526-.079zm0 1.285v.935h.692c.438 0 .655-.157.655-.475 0-.16-.056-.277-.17-.353-.113-.072-.28-.107-.504-.107z"/><path fill="#999" d="m17.142 42.19.721-2.15c.041-.113.067-.192.085-.233a.307.307 0 0 1 .095-.12.262.262 0 0 1 .176-.053.296.296 0 0 1 .265.15.26.26 0 0 1 .04.14c0 .03-.006.066-.012.1-.01.038-.019.076-.034.11a4.43 4.43 0 0 0-.038.11l-.769 2.08-.082.226a.885.885 0 0 1-.097.189c-.035.053-.085.1-.145.135s-.132.05-.217.05a.412.412 0 0 1-.366-.185c-.038-.054-.069-.117-.097-.189s-.054-.148-.082-.227l-.756-2.063c-.016-.037-.028-.075-.041-.11a.712.712 0 0 1-.05-.223.28.28 0 0 1 .09-.202.283.283 0 0 1 .221-.091c.11 0 .19.031.237.1.044.067.09.174.138.322zm4.516-2.008v.784h1.339c.098 0 .17.022.22.066.048.044.073.104.073.176s-.025.13-.073.177c-.047.044-.122.069-.22.069h-1.339v.91h1.503c.1 0 .18.022.23.07s.075.107.075.185a.23.23 0 0 1-.075.18c-.05.047-.13.072-.23.072H21.41c-.142 0-.243-.031-.303-.094-.063-.063-.094-.164-.094-.303v-2.39a.6.6 0 0 1 .04-.227.27.27 0 0 1 .13-.129.588.588 0 0 1 .227-.038h1.7c.104 0 .18.022.23.066s.076.104.076.177a.226.226 0 0 1-.076.18c-.05.047-.126.069-.23.069zm4.961 1.326v1.023c0 .135-.032.236-.092.3a.3.3 0 0 1-.233.094c-.1 0-.18-.032-.239-.101a.457.457 0 0 1-.082-.293v-2.447c0-.139.032-.24.091-.302.063-.063.164-.092.303-.092h1.049c.144 0 .267.003.371.016a.944.944 0 0 1 .542.255c.075.079.135.17.173.271a.89.89 0 0 1 .06.33c0 .237-.066.429-.199.57-.135.142-.336.243-.61.3.116.063.223.151.327.27a2.88 2.88 0 0 1 .472.74.751.751 0 0 1 .067.224.235.235 0 0 1-.038.126.33.33 0 0 1-.11.098.376.376 0 0 1-.161.035c-.072 0-.132-.016-.183-.05s-.091-.08-.126-.13a3.692 3.692 0 0 1-.145-.23l-.258-.431a2.514 2.514 0 0 0-.249-.36.596.596 0 0 0-.223-.17.719.719 0 0 0-.284-.046zm0-1.339v.882h.576c.154 0 .284-.016.39-.041a.471.471 0 0 0 .243-.139.406.406 0 0 0 .082-.267.43.43 0 0 0-.066-.237.43.43 0 0 0-.19-.15c-.072-.032-.22-.048-.443-.048zm6.824 2.268a.993.993 0 0 1-.434.359 1.655 1.655 0 0 1-.677.129c-.315 0-.573-.06-.778-.177-.145-.085-.262-.201-.353-.343s-.135-.28-.135-.416a.282.282 0 0 1 .29-.283.25.25 0 0 1 .173.066.552.552 0 0 1 .12.192c.04.101.084.186.128.255.05.066.117.123.202.167s.198.066.337.066a.77.77 0 0 0 .466-.132.407.407 0 0 0 .18-.334.36.36 0 0 0-.098-.258.627.627 0 0 0-.252-.151 4.12 4.12 0 0 0-.41-.11 2.978 2.978 0 0 1-.573-.19.899.899 0 0 1-.368-.292.772.772 0 0 1-.135-.46.79.79 0 0 1 .144-.47.896.896 0 0 1 .413-.311c.183-.076.394-.11.64-.11.195 0 .361.025.506.072.142.047.262.113.353.192.095.082.164.167.208.255s.063.173.063.259a.312.312 0 0 1-.079.207.264.264 0 0 1-.201.092.237.237 0 0 1-.17-.057.723.723 0 0 1-.123-.18.829.829 0 0 0-.208-.283c-.082-.066-.211-.1-.39-.1a.68.68 0 0 0-.404.11c-.104.072-.154.16-.154.264 0 .063.016.12.053.164a.41.41 0 0 0 .142.12c.063.034.123.06.186.078.06.02.164.047.309.082.18.044.34.091.485.142s.267.11.371.183c.101.072.18.163.236.274a.904.904 0 0 1 .085.409.927.927 0 0 1-.148.52zm2.727-2.413c0-.129.03-.227.089-.293s.135-.097.23-.097c.098 0 .176.031.236.097.06.063.091.16.091.293v2.507c0 .132-.031.23-.09.296s-.14.098-.237.098a.303.303 0 0 1-.23-.098c-.06-.066-.088-.164-.088-.296zm5.613-.189c.236.132.413.325.535.57s.183.536.183.87c0 .245-.034.469-.1.67s-.168.378-.3.523a1.313 1.313 0 0 1-.488.34c-.195.079-.416.117-.665.117s-.472-.041-.667-.12a1.36 1.36 0 0 1-.495-.34 1.444 1.444 0 0 1-.296-.53 2.055 2.055 0 0 1-.1-.664c0-.245.034-.469.103-.674s.17-.378.306-.522c.132-.142.293-.252.485-.328s.406-.113.649-.113c.33 0 .614.066.85.201zm-.047.825a.856.856 0 0 0-.321-.387.893.893 0 0 0-.482-.132.899.899 0 0 0-.356.072.768.768 0 0 0-.28.214.975.975 0 0 0-.186.356c-.047.145-.07.306-.07.488 0 .18.023.347.07.492a.98.98 0 0 0 .192.365.813.813 0 0 0 .64.29.876.876 0 0 0 .453-.123c.138-.085.249-.211.33-.384s.123-.388.123-.64c0-.236-.038-.437-.113-.61zm5.404 1.238v-1.896c0-.123.025-.214.079-.277s.123-.091.211-.091c.094 0 .167.028.22.091s.08.154.08.277v2.504c0 .28-.114.419-.347.419a.397.397 0 0 1-.155-.025.36.36 0 0 1-.132-.08.877.877 0 0 1-.11-.125 2.562 2.562 0 0 1-.104-.151l-1.216-1.855v1.867c0 .12-.028.214-.085.274a.28.28 0 0 1-.217.095.27.27 0 0 1-.217-.095c-.057-.063-.085-.154-.085-.274V40.1c0-.104.012-.186.034-.246a.377.377 0 0 1 .347-.22c.056 0 .107.01.148.028s.078.044.107.076a.88.88 0 0 1 .097.122c.032.05.067.104.101.161z"/><path fill="none" stroke="#809cc9" stroke-width=".444" d="M0 44.493h47.997"/><path fill="none" d="M0 3.28h48v41.437H0z"/></svg>