<?xml version="1.0" encoding="UTF-8"?>
<svg id="Capa_1" data-name="Capa 1" xmlns="http://www.w3.org/2000/svg" xmlns:xlink="http://www.w3.org/1999/xlink" viewBox="0 0 860 860">
  <defs>
    <style>
      .cls-1 {
        fill: url(#linear-gradient);
      }

      .cls-1, .cls-2 {
        stroke-width: 0px;
      }

      .cls-2 {
        fill: #fff;
      }
    </style>
    <linearGradient id="linear-gradient" x1="430.05" y1="-.77" x2="430.05" y2="799.23" gradientTransform="translate(0 30.77)" gradientUnits="userSpaceOnUse">
      <stop offset="0" stop-color="#18bffb"/>
      <stop offset="1" stop-color="#2072f3"/>
    </linearGradient>
  </defs>
  <path class="cls-1" d="m668.4,30H191.6C102.3,30,30,102.3,30,191.6v476.9c0,89.2,72.3,161.5,161.6,161.5h476.9c89.2,0,161.6-72.3,161.6-161.6V191.6c-.1-89.3-72.4-161.6-161.7-161.6Z"/>
  <path class="cls-2" d="m426.6,213.8l16.2-28c10-17.5,32.3-23.4,49.8-13.4s23.4,32.3,13.4,49.8l-156.1,270.2h112.9c36.6,0,57.1,43,41.2,72.8H173c-20.2,0-36.4-16.2-36.4-36.4s16.2-36.4,36.4-36.4h92.8l118.8-205.9-37.1-64.4c-10-17.5-4.1-39.6,13.4-49.8,17.5-10,39.6-4.1,49.8,13.4l15.9,28.1h0Zm-140.4,388.9l-35,60.7c-10,17.5-32.3,23.4-49.8,13.4s-23.4-32.3-13.4-49.8l26-45c29.4-9.1,53.3-2.1,72.2,20.7h0Zm301.4-110.1h94.7c20.2,0,36.4,16.2,36.4,36.4s-16.2,36.4-36.4,36.4h-52.6l35.5,61.6c10,17.5,4.1,39.6-13.4,49.8-17.5,10-39.6,4.1-49.8-13.4-59.8-103.7-104.7-181.3-134.5-233-30.5-52.6-8.7-105.4,12.8-123.3,23.9,41,59.6,102.9,107.3,185.5h0Z"/>
</svg>