<?xml version="1.0" encoding="utf-8"?>
<!-- Generator: Adobe Illustrator 27.7.0, SVG Export Plug-In . SVG Version: 6.00 Build 0)  -->
<svg version="1.1" id="Layer_1" xmlns="http://www.w3.org/2000/svg" xmlns:xlink="http://www.w3.org/1999/xlink" x="0px" y="0px"
	 viewBox="0 0 512 512" style="enable-background:new 0 0 512 512;" xml:space="preserve">
<style type="text/css">
	.st0{fill:#F7931E;}
	.st1{fill:#FFCE00;}
	.st2{fill:#8427E0;}
	.st3{fill:#00B5FF;}
	.st4{fill:#FFBD00;}
	.st5{fill:#E3006D;}
	.st6{fill:#9327FF;}
	.st7{fill:#00C8FF;}
	.st8{fill:#FB006D;}
</style>
<g>
	<path class="st0" d="M511.7,309.1C497,388.6,432.9,458,358.7,497c-9.3,4.9-13,7.7-23.5,8.3h150.7c3.4,0.1,6.8-0.5,9.9-1.7
		c3.2-1.2,6.1-3.1,8.5-5.4c2.4-2.4,4.4-5.2,5.7-8.3c1.3-3.1,2-6.5,2-9.9v-171H511.7z"/>
	<path class="st1" d="M347.5,500.8c-3,0.2-6.1,0.2-9.2,0H347.5z"/>
	<path class="st2" d="M197.4,155.7c-2.3,1.9-4.5,3.6-6.9,5.2C152.4,187.8,36,274.8,9.6,237.4C-16.2,200.6,11,96.3,78,46.1
		c1.3-1,2.6-1.9,3.9-2.8c72.8-51.1,127.2-44.1,153.5-6.6C260.2,71.9,232.5,127,197.4,155.7z"/>
	<path class="st3" d="M482,236.3c-36,25.3-92.9-4.2-121-40.4c-1.2-1.5-2.2-3-3.2-4.5C331,153.2,244,36.8,281.4,10.5
		c37.5-26.3,145,2.4,194.1,72.3c1.1,1.5,2.1,3.2,3.2,4.6C526.3,158,518.8,210.5,482,236.3z"/>
	<path class="st4" d="M433.8,466c-1.3,1-2.5,1.9-3.8,2.8c-72.8,51.2-127.2,44-153.5,6.6c-24.7-35.2,2.9-90.2,38-119
		c2.2-1.9,4.6-3.7,6.9-5.3c38.1-26.8,154.6-113.8,180.9-76.4C528.1,311.4,500.9,415.8,433.8,466z"/>
	<path class="st5" d="M230.6,501.5c-37.5,26.3-145-2.4-194.1-72.3c-1-1.4-2-2.8-2.9-4.2C-14.3,354.3-6.7,301.5,30,275.7
		c36-25.3,92.9,4.2,121,40.4c1.2,1.5,2.2,2.9,3.2,4.5C181.1,358.8,268.1,475.2,230.6,501.5z"/>
	<path class="st6" d="M197.4,155.7c-52,22.9-162.4,70.4-179,32.3C4.6,156,30.3,90.4,78.1,46.1c1.3-1,2.6-1.9,3.9-2.8
		c72.8-51.1,127.2-44.1,153.5-6.6C260.2,71.9,232.5,127,197.4,155.7z"/>
	<path class="st7" d="M482,236.3c-36,25.3-92.9-4.2-121-40.4c-23.4-53.4-68-159-30.7-175.2c33.6-14.6,104,14.4,148.3,66.7
		C526.3,158,518.8,210.5,482,236.3z"/>
	<path class="st1" d="M433.8,465.9c-1.3,1-2.5,1.9-3.8,2.8c-72.8,51.2-127.2,44-153.5,6.6c-24.7-35.2,2.9-90.2,38-119
		c52-22.9,162.4-70.4,179-32.3C507.4,356,481.6,421.6,433.8,465.9z"/>
	<path class="st8" d="M181.6,491.4C148.1,505.9,77.9,477,33.7,425C-14.3,354.3-6.7,301.5,30,275.7c36-25.3,92.9,4.2,121,40.4
		C174.4,369.6,218.9,475.2,181.6,491.4z"/>
</g>
</svg>
