<?xml version="1.0" encoding="utf-8"?>
<!-- Generator: Adobe Illustrator 27.7.0, SVG Export Plug-In . SVG Version: 6.00 Build 0)  -->
<svg version="1.1" id="Artwork" xmlns="http://www.w3.org/2000/svg" xmlns:xlink="http://www.w3.org/1999/xlink" x="0px" y="0px"
	 viewBox="0 0 512 512" style="enable-background:new 0 0 512 512;" xml:space="preserve">
<style type="text/css">
	.st0{fill-rule:evenodd;clip-rule:evenodd;fill:url(#SVGID_1_);}
	.st1{fill-rule:evenodd;clip-rule:evenodd;fill:#FFFFFF;}
</style>
<g id="Layer_5">
</g>
<g>
	<g>
		
			<linearGradient id="SVGID_1_" gradientUnits="userSpaceOnUse" x1="256" y1="2.9784" x2="256" y2="501.9595" gradientTransform="matrix(1 0 0 -1 0 513)">
			<stop  offset="0" style="stop-color:#FA233B"/>
			<stop  offset="1" style="stop-color:#FB5C74"/>
		</linearGradient>
		<path class="st0" d="M512,160.2c0-6.1,0-12.2,0-18.3c0-5.1-0.1-10.3-0.2-15.4c-0.3-11.2-1-22.5-3-33.6c-2-11.3-5.3-21.7-10.5-32
			c-5.1-10.1-11.8-19.2-19.8-27.2c-8-8-17.2-14.7-27.2-19.8c-10.2-5.2-20.7-8.5-32-10.5c-11.1-2-22.4-2.7-33.6-3
			c-5.1-0.1-10.3-0.2-15.4-0.2c-6.1,0-12.2,0-18.3,0H160.2c-6.1,0-12.2,0-18.3,0c-5.1,0-10.3,0.1-15.4,0.2c-11.2,0.3-22.5,1-33.6,3
			c-11.3,2-21.7,5.3-32,10.5c-10.1,5.1-19.3,11.8-27.2,19.8S18.9,50.7,13.8,60.8C8.5,71,5.2,81.5,3.2,92.8c-2,11.1-2.7,22.4-3,33.6
			c-0.1,5.1-0.2,10.3-0.2,15.4c0,6.1,0,12.2,0,18.3v191.7c0,6.1,0,12.2,0,18.3c0,5.1,0.1,10.3,0.2,15.4c0.3,11.2,1,22.5,3,33.6
			c2,11.3,5.3,21.7,10.5,32c5.1,10.1,11.8,19.2,19.8,27.2c8,8,17.2,14.7,27.2,19.8c10.2,5.2,20.7,8.5,32,10.5
			c11.1,2,22.4,2.7,33.6,3c5.1,0.1,10.3,0.2,15.4,0.2c6.1,0,12.2,0,18.3,0h191.7c6.1,0,12.2,0,18.3,0c5.1,0,10.3-0.1,15.4-0.2
			c11.2-0.3,22.5-1,33.6-3c11.3-2,21.7-5.3,32-10.5c10.1-5.1,19.3-11.8,27.2-19.8s14.7-17.2,19.8-27.2c5.2-10.2,8.5-20.7,10.5-32
			c2-11.1,2.7-22.4,3-33.6c0.1-5.1,0.2-10.3,0.2-15.4c0-6.1,0-12.2,0-18.3L512,160.2L512,160.2z"/>
	</g>
	<g id="Glyph_2_">
		<g>
			<path class="st1" d="M362,78.2c-1.2,0.1-12.2,2.1-13.6,2.3l-152.2,30.7l-0.1,0c-4,0.8-7.1,2.2-9.5,4.3c-2.9,2.4-4.5,5.9-5.1,9.9
				c-0.1,0.9-0.3,2.6-0.3,5.1c0,0,0,155.5,0,190.5c0,4.5-0.4,8.8-3.4,12.5c-3,3.7-6.7,4.8-11.1,5.7c-3.3,0.7-6.6,1.3-9.9,2
				c-12.6,2.5-20.8,4.3-28.2,7.1c-7.1,2.7-12.4,6.2-16.6,10.7c-8.4,8.8-11.8,20.7-10.6,31.8c1,9.5,5.3,18.6,12.6,25.3
				c5,4.6,11.2,8,18.5,9.5c7.6,1.5,15.7,1,27.5-1.4c6.3-1.3,12.2-3.2,17.8-6.6c5.5-3.3,10.3-7.6,14-13c3.7-5.3,6.1-11.3,7.5-17.6
				c1.4-6.5,1.7-12.4,1.7-18.9V203.1c0-8.8,2.5-11.2,9.6-12.9c0,0,126.5-25.5,132.4-26.7c8.2-1.6,12.1,0.8,12.1,9.4v112.8
				c0,4.5,0,9-3.1,12.7c-3,3.7-6.7,4.8-11.1,5.7c-3.3,0.7-6.6,1.3-9.9,2c-12.6,2.5-20.8,4.3-28.2,7.1c-7.1,2.7-12.4,6.2-16.6,10.7
				c-8.4,8.8-12.1,20.7-10.9,31.8c1,9.5,5.6,18.6,12.9,25.3c5,4.6,11.2,7.9,18.5,9.4c7.6,1.5,15.7,1,27.5-1.4
				c6.3-1.3,12.2-3.2,17.8-6.5c5.5-3.3,10.3-7.6,14-13c3.7-5.3,6.1-11.3,7.5-17.6c1.4-6.5,1.4-12.4,1.4-18.9V91.7
				C374.8,82.9,370.2,77.5,362,78.2z"/>
		</g>
	</g>
</g>
</svg>
