<svg xmlns="http://www.w3.org/2000/svg" viewBox="0 0 48 48"><g fill-rule="evenodd" clip-rule="evenodd"><path fill="#61bb46" stroke="#61bb46" stroke-miterlimit="2.613" stroke-width=".259" d="M5.652 17.412a2 2 0 0 1 .044-.07c2.46-3.802 6.338-6.027 9.985-6.027 3.714 0 6.048 2.045 9.118 2.045 2.979 0 4.793-2.048 9.087-2.048 3.244 0 6.684 1.774 9.134 4.842-.678.372-1.289.795-1.835 1.26l-35.533-.002z"/><path fill="#61bb46" stroke="#61bb46" stroke-miterlimit="2.613" stroke-width=".259" d="M30.629 7.887c1.559-2.01 2.744-4.848 2.314-7.75-2.548.176-5.528 1.805-7.269 3.925-1.58 1.927-2.884 4.784-2.376 7.56 2.782.087 5.66-1.581 7.331-3.735z"/><path fill="#fdb827" d="M5.525 17.356c-1.06 1.665-1.792 4.053-1.986 6.147H37.89c.371-2.292 1.606-4.48 3.564-6.145l-35.93-.002h.003z"/><path fill="#f5821f" stroke="#f5821f" stroke-miterlimit="2.613" stroke-width=".259" d="M3.85 29.596c-.333-2.139-.387-4.2-.177-6.093h34.083a10.846 10.846 0 0 0 .79 6.095L3.85 29.596z"/><path fill="#e03a3e" stroke="#e03a3e" stroke-miterlimit="2.613" stroke-width=".259" d="M5.516 35.689a28.828 28.828 0 0 1-1.665-6.093l34.695.002a10.374 10.374 0 0 0 5.86 5.559c-.082.186-.163.363-.24.534l-38.65-.002z"/><path fill="#963d97" stroke="#963d97" stroke-miterlimit="2.613" stroke-width=".259" d="M44.166 35.691c-.96 2.122-1.518 3.223-2.848 5.255a52.53 52.53 0 0 1-.556.834l-32.025.003a31.114 31.114 0 0 1-3.22-6.095l38.65.003z"/><path fill="#009ddc" stroke="#009ddc" stroke-miterlimit="2.613" stroke-width=".259" d="M40.762 41.78c-1.96 2.882-4.59 6.054-7.78 6.084-3.115.028-3.914-2.035-8.139-2.012-4.225.024-5.107 2.048-8.22 2.018-3.33-.03-5.916-3.145-7.886-6.087l32.025-.003z"/></g></svg>