<svg id="Layer_1" data-name="Layer 1" xmlns="http://www.w3.org/2000/svg" xmlns:xlink="http://www.w3.org/1999/xlink" viewBox="0 0 360 360"><defs><style>.cls-1{fill:none;}.cls-2{fill:#e9654b;}.cls-3{fill:#b6cfea;}.cls-4{fill:#e6f5f8;}.cls-5{fill:#d0e8f0;}.cls-6{fill:#ee794b;}.cls-7{clip-path:url(#clip-path);}.cls-8{opacity:0.22;}.cls-9{fill:#e34e3b;}.cls-10{opacity:0.5;}.cls-11{fill:#fbdfc3;}.cls-12{fill:#010101;}.cls-13{fill:#fff;}.cls-14{opacity:0.25;}</style><clipPath id="clip-path"><polyline class="cls-1" points="241.019 115.687 233.846 279.479 126.245 279.479 120.267 115.687"/></clipPath></defs><title>cloudevents-icon-color</title><path class="cls-2" d="M123.8541,251.98156s-2.39112,7.17338-5.97781,10.76006a10.85361,10.85361,0,0,1-8.36894,3.58668A138.60589,138.60589,0,0,1,91.57391,269.915s8.36893,1.19557,17.93344,2.39114c3.58669,0,3.58669,0,5.97782,1.19556,5.97781,0,8.36893-3.58668,8.36893-3.58668Z"/><path class="cls-2" d="M233.84591,251.98156s2.39113,7.17338,5.97781,10.76006a10.85365,10.85365,0,0,0,8.36895,3.58668,138.60621,138.60621,0,0,0,17.93345,3.58668s-8.369,1.19557-19.129,2.39114c-3.58667,0-3.58667,0-5.97781,1.19556-7.17338,0-8.369-3.58668-8.369-3.58668Z"/><circle class="cls-3" cx="180.04557" cy="133.6208" r="129.1208"/><circle class="cls-4" cx="180.04557" cy="133.6208" r="124.33855"/><circle class="cls-5" cx="180.04557" cy="136.01194" r="101.62285"/><g id="Body"><path class="cls-6" d="M120.26741,183.83446s8.36894,135.09861,8.36894,137.48974c0,1.19555,1.19557,3.58668-4.78225,5.97782s-25.10682,7.17336-25.10682,7.17336h28.6935c13.1512,0,13.1512-10.76009,13.1512-13.15118s3.58668-53.80033,3.58668-53.80033,1.19557,60.97369,1.19557,63.36483-1.19555,5.97781-9.5645,8.369c-5.97781,1.19554-23.91126,4.78227-23.91126,4.78227h27.49794c16.73788,0,16.73788-10.76009,16.73788-10.76009l3.5867-53.80033s1.19557,53.80033,1.19557,59.77815c0,4.78227-3.58668,8.36895-16.73788,10.76008-8.369,2.39114-19.129,4.78227-19.129,4.78227h31.08464c15.54231-1.19554,17.93345-11.95563,17.93345-11.95563l26.30239-133.90306Z"/><path class="cls-6" d="M239.82372,183.83446s-8.369,135.09861-8.369,137.48974c0,1.19555-1.19557,3.58668,4.78225,5.97782s25.10683,7.17336,25.10683,7.17336H232.65034c-13.1512,0-13.1512-10.76009-13.1512-13.15118s-3.58668-53.80033-3.58668-53.80033-1.19556,60.97369-1.19556,63.36483,1.19556,5.97781,9.56449,8.369c5.97781,1.19554,23.91126,4.78227,23.91126,4.78227H220.69471c-16.73788,0-16.73788-10.76009-16.73788-10.76009l-3.5867-53.80033s-1.19557,53.80033-1.19557,59.77815c0,4.78227,3.58668,8.36895,16.73788,10.76008,8.36895,2.39114,19.129,4.78227,19.129,4.78227H203.95681c-15.54231-1.19554-17.93344-11.95563-17.93344-11.95563L159.721,208.94129Z"/><path class="cls-6" d="M241.01927,118.0785c0,33.47575-27.49794,59.77814-59.77815,59.77814S121.463,150.3587,121.463,118.0785s27.49794-59.77815,59.77815-59.77815S241.01927,84.60273,241.01927,118.0785Z"/><g class="cls-7"><circle class="cls-6" cx="181.24112" cy="150.3587" r="106.4051"/></g><g class="cls-8"><path class="cls-9" d="M237.43259,183.83446s7.17338-63.36483-2.39114-87.2761c-17.93344-41.84471-59.77815-38.258-59.77815-38.258s23.91126,9.5645,25.10683,45.43139c1.19557,25.10682,0,62.16927,0,62.16927Z"/></g></g><g id="Face"><g class="cls-10"><circle class="cls-11" cx="156.13431" cy="85.7983" r="8.36894"/></g><path class="cls-12" d="M201.5657,207.74572c0,20.32458-9.5645,33.47575-21.52013,33.47575s-21.52012-15.54231-21.52012-35.86689c0,0,9.56449,19.129,22.71569,19.129S201.5657,207.74572,201.5657,207.74572Z"/><path class="cls-13" d="M201.5657,207.74572c0,13.1512-9.5645,20.32458-21.52013,20.32458S159.721,218.50578,159.721,206.55015c0,0,9.5645,11.95563,22.7157,11.95563S201.5657,207.74572,201.5657,207.74572Z"/><circle class="cls-2" cx="221.89028" cy="151.55425" r="37.06246"/><circle class="cls-2" cx="138.20087" cy="151.55425" r="37.06246"/><circle class="cls-13" cx="221.89028" cy="151.55425" r="28.69351"/><circle class="cls-13" cx="135.80973" cy="151.55425" r="28.69351"/><circle class="cls-12" cx="135.80973" cy="147.96757" r="8.36895"/><circle class="cls-12" cx="221.89028" cy="147.96757" r="8.36895"/></g><path class="cls-3" d="M48.53363,165.901h0a5.64768,5.64768,0,0,1-5.97781-5.97781V112.10068a5.64767,5.64767,0,0,1,5.97781-5.97781h0a5.64768,5.64768,0,0,1,5.97782,5.97781V159.9232A5.64768,5.64768,0,0,1,48.53363,165.901Z"/><path class="cls-3" d="M309.16637,165.901h0a5.64769,5.64769,0,0,1-5.97782-5.97781V112.10068a5.64768,5.64768,0,0,1,5.97782-5.97781h0a5.64768,5.64768,0,0,1,5.97781,5.97781V159.9232A5.64768,5.64768,0,0,1,309.16637,165.901Z"/><circle class="cls-13" cx="139.39641" cy="37.97578" r="5.97781"/><path class="cls-13" d="M96.35615,199.37677a4.3921,4.3921,0,0,1-3.58669-1.19557c-14.34675-17.93344-21.52013-40.64914-21.52013-63.36485A106.68348,106.68348,0,0,1,85.59608,81.016a117.00911,117.00911,0,0,1,38.258-38.258,5.25731,5.25731,0,0,1,5.97783,1.19557,5.25728,5.25728,0,0,1-1.19557,5.97781A96.49634,96.49634,0,0,0,79.61826,133.6208a94.22212,94.22212,0,0,0,20.32457,58.58259c1.19557,1.19556,1.19557,4.78224-1.19557,5.97781C97.55172,199.37677,97.55172,199.37677,96.35615,199.37677Z"/><g class="cls-14"><path class="cls-2" d="M233.84591,255.56824v-9.5645c-16.73788,9.5645-34.67132,19.129-56.19147,19.129-23.91126,0-39.45357-10.76007-54.9959-19.129l1.19556,9.5645s17.93345,19.129,54.99591,19.129C213.52133,273.50168,233.84591,255.56824,233.84591,255.56824Z"/></g></svg>