<svg xmlns="http://www.w3.org/2000/svg" id="LOGO" viewBox="239 215.58 772 271.84"><defs><style>.cls-1,.cls-3{fill:#001a70;}.cls-2{fill:#76bc21;}.cls-2,.cls-3{fill-rule:evenodd;}</style></defs><title>asrock-rack-logo</title><rect class="cls-1" x="239.725" y="446.63" width="179.778" height="2.562"/><rect class="cls-1" x="830.502" y="446.63" width="179.778" height="2.562"/><path class="cls-2" d="M887.585,249.231v23.75h-16.3a93.922,93.922,0,0,0-19.773,1.726,44.511,44.511,0,0,0-14.159,5.659c-7.935,4.968-11.948,11.1-11.948,18.387q0,10.273,11.468,17.666a44.463,44.463,0,0,0,14.959,6.109,104.621,104.621,0,0,0,21.344,1.777h14.41v23.75H865.841q-29.359,0-48.142-6.874c-15.77-5.814-26.838-14.24-33.332-25.207a33.149,33.149,0,0,1-4.963-17q0-11.378,8.275-22.1a57.9,57.9,0,0,1,16.541-14.329c9.987-5.949,21.915-9.8,35.713-11.668a206.917,206.917,0,0,1,27.558-1.65Z"/><path class="cls-2" d="M932.754,215.578v57.093l.331,1.14c14.789,1.907,30.76-1.74,38.154-15.064a32.841,32.841,0,0,0,4.774-9.516H1008.7c5.764,16.935-8.826,31.825-23.455,37.679,23.535,15.525,26.567,32.436,25.6,61.145H972c.6-23-3.032-49.783-39.316-47.6l.07,47.6H892.018V215.578Z"/><path class="cls-2" d="M402.377,348.986h74.559l5.943-.175c24.787-.731,41.388-20.2,41.578-41.437.22-23.676-21.5-38.3-46.491-38.3H433.717c-6.754,0-11.287-5.749-11.677-11.492A12.93,12.93,0,0,1,434.748,244H517.5v-28.2H433.307c-32.151,0-45.87,17.936-46.491,39.521-.61,21.073,16.591,41.787,41.378,41.787h45.88l5.123.345a11.125,11.125,0,0,1,10.447,10.442c.45,6.619-6.144,12.713-13.929,12.713l-91.47.365.621-105.358-56.247-.02c-17.612-.271-26.8,10.441-33.363,25.386L239,348.641v.17l44.839-.366q22.065-45.757,44.119-91.494c5.6-9.732,8.746-11.183,18.933-10.072l-.031,102.107Z"/><path class="cls-2" d="M592.9,215.578c10.868.351,19.373-.645,26.418,1.446,15,4.183,23.1,10.833,27.048,18.993a31.463,31.463,0,0,1,2.942,14.249c0,9.141-2.712,16.966-8.826,22.825a30.006,30.006,0,0,1-9,6.224,73.225,73.225,0,0,1-14.64,4.408c24.467,13.639,30.88,28.764,30.88,64H605.29c-.07-35.778-14.28-49.8-44.309-49.448v49.783H529.19V215.578Zm-31.92,51.414H590.92c7.125,0,11.378-1.351,13.509-3.552a9.493,9.493,0,0,0,2.6-6.605,7.943,7.943,0,0,0-3.572-7.139c-2.4-1.541-6.395-2.682-11.548-2.682l-30.93.025v19.953Z"/><path class="cls-2" d="M712.09,277.794c12.358,0,22.434,9.361,22.434,20.849s-10.076,20.844-22.434,20.844-22.435-9.362-22.435-20.844,10.077-20.849,22.435-20.849Z"/><path class="cls-2" d="M712.09,249.231c35.913,0,65.192,22.2,65.192,49.412S748,348.055,712.09,348.055s-65.193-22.2-65.193-49.412,29.279-49.412,65.193-49.412Zm0,21.574c16.5,0,29.959,12.5,29.959,27.838s-13.459,27.833-29.959,27.833-29.95-12.5-29.95-27.833,13.449-27.838,29.95-27.838Z"/><path class="cls-2" d="M992.993,221.758a8.646,8.646,0,1,1-8.645,8.64,8.669,8.669,0,0,1,8.645-8.64Zm0-2.052A10.7,10.7,0,1,1,982.287,230.4a10.712,10.712,0,0,1,10.706-10.692Z"/><path class="cls-2" d="M988.631,235.867V224.93h4.653a7.92,7.92,0,0,1,2.542.3,2.519,2.519,0,0,1,1.27,1.051,3.113,3.113,0,0,1,.481,1.715,2.9,2.9,0,0,1-.731,2.042,3.464,3.464,0,0,1-2.151,1.006,5.4,5.4,0,0,1,1.18.92,14.768,14.768,0,0,1,1.261,1.776l1.321,2.127h-2.631l-1.6-2.372a15.247,15.247,0,0,0-1.161-1.606,1.729,1.729,0,0,0-.661-.46,3.6,3.6,0,0,0-1.11-.125h-.451v4.563Zm2.211-6.3h1.621a8.821,8.821,0,0,0,2-.136,1.153,1.153,0,0,0,.611-.465,1.418,1.418,0,0,0,.23-.821,1.3,1.3,0,0,0-.3-.89,1.356,1.356,0,0,0-.84-.425c-.171-.025-.711-.045-1.6-.045h-1.722v2.782Z"/><path class="cls-3" d="M716.758,413.313v17.812H704.535a70.779,70.779,0,0,0-14.83,1.29,33.477,33.477,0,0,0-10.617,4.248c-5.949,3.723-8.956,8.321-8.956,13.784q0,7.709,8.591,13.249a33.481,33.481,0,0,0,11.222,4.583,78.49,78.49,0,0,0,16.01,1.331h10.8v17.812H700.447q-22,0-36.094-5.159c-11.832-4.358-20.128-10.677-25-18.9a24.86,24.86,0,0,1-3.722-12.749q0-8.526,6.209-16.566a43.374,43.374,0,0,1,12.4-10.747c7.485-4.458,16.431-7.349,26.777-8.75a155.8,155.8,0,0,1,20.669-1.236Z"/><path class="cls-3" d="M751.841,388.076v42.813l.245.856c11.082,1.431,23.065-1.306,28.614-11.3a24.737,24.737,0,0,0,3.577-7.135h24.506c4.333,12.7-6.609,23.865-17.582,28.254,17.652,11.642,19.924,24.325,19.2,45.855H781.27c.45-17.252-2.277-37.335-29.484-35.7l.055,35.7h-30.55V388.076Z"/><path class="cls-3" d="M495.217,388.076c8.151.266,14.535-.48,19.819,1.086,11.247,3.137,17.316,8.125,20.273,14.244a23.552,23.552,0,0,1,2.216,10.682c0,6.855-2.036,12.724-6.629,17.117a22.4,22.4,0,0,1-6.735,4.667,54.889,54.889,0,0,1-10.982,3.308C531.526,449.406,536.34,461,536.34,487.422H504.514c-.05-26.833-10.707-37.6-33.227-37.335v37.335H447.441V388.076Zm-23.93,38.555h22.454c5.334,0,8.531-1.01,10.127-2.661a7.117,7.117,0,0,0,1.947-4.953,5.951,5.951,0,0,0-2.672-5.354,16.517,16.517,0,0,0-8.661-2.011l-23.2.02v14.959Z"/><path class="cls-1" d="M631.1,411.272l-40.812-.015c-10.066-.155-15.31,5.963-19.048,14.5l-33.216,61.666H567.98c8.4-17.417,16.786-31.046,25.192-48.452,3.187-5.554,3.9-6.389,9.711-5.749l-.015,54.2H631.1Z"/></svg>