<svg xmlns="http://www.w3.org/2000/svg" xmlns:xlink="http://www.w3.org/1999/xlink" version="1.1" id="Layer_1" x="0px" y="0px" style="enable-background:new 0 0 512 512;" xml:space="preserve" viewBox="30.72 -0.2 450.39 512.2">
<g>
	<path d="M265.9,512c-6.7,0-13.3,0-20,0c-7.7-2.1-15.6-2.9-23.1-5.8c-23.4-8.9-39.5-25.8-51.8-46.9c-10.9-18.8-18.4-39.1-26.4-59.2   c-2.9-7.3-7.5-12.9-14-17.1c-10.4-6.8-21.8-11.3-33.6-15c-19.5-6-39.4-9.8-59.7-11.3c-6.8-0.5-6.9-0.6-6.4-7.1   c0.5-7.3,1.2-14.6,1.9-21.9c4.7-48.9,17.3-95.4,41.7-138.4c1.1-2,1.4-3.3-0.5-5.1c-24.6-24.1-34.9-54.4-38.1-87.8   c-3.2-32.9,1.6-65.1,11-96.6c0.3,0,0.7,0,1,0c0.5,1.4,1.9,1.7,3,2.4c45.7,27,91.4,54,137.1,81.1c2.3,1.4,4,0.9,6,0.2   c13.7-5,27.8-8.1,42.2-9.7c27.8-3,54.8,0.2,81.1,9.5c2.4,0.8,4.3,1.3,6.9-0.3c45.1-26.8,90.2-53.4,135.3-80.1   c1.5-0.9,3.4-1.3,4.3-3.1c0.3,0,0.7,0,1,0c10.4,34.8,15.1,70.3,9.9,106.5c-4.2,29.3-14.7,55.9-36.3,77.1c-2.4,2.4-2.3,4-0.7,6.7   c28.6,50.4,40.2,105.2,43.4,162.4c0.1,2.6-0.7,3.5-3.2,3.7c-5.3,0.4-10.6,0.9-15.9,1.6c-26.2,3.6-51.7,9.1-75.3,21.6   c-9.3,4.9-16.2,11.7-20.1,21.8c-7.7,19.7-15.1,39.5-25.8,57.8c-12.3,21.1-28.4,38-51.8,46.9C281.6,509.1,273.6,509.9,265.9,512z    M257.6,412.1c4.5,0,9-0.3,13.5,0.1c4.8,0.5,6.8-1.1,7.9-6c7.4-33.2,24.7-60.5,51-81.9c29.4-24,63.8-36.6,100.6-43.7   c10.1-2,10.1-1.9,7.4-11.8c-14.3-51.4-39.9-95.5-82-129.4c-26.4-21.3-56.3-34.1-90.3-36.1c-41.4-2.4-77.9,10.4-110.1,36.5   C111.7,175,86.3,221.5,72.1,275c-1,3.6,1.1,3.7,3.6,4.1c17.9,2.5,35.3,6.9,52.1,13.3c55.5,21,95.5,56.6,108.9,116.9   c0.5,2.3,1.6,2.9,3.7,2.9C246.3,412,251.9,412.1,257.6,412.1z M353.5,100.7c9.5,6.1,18,12.5,26.1,19.4   c13.5,11.4,25.8,24.1,36.6,38.2c2,2.7,3.1,2.5,5.1,0c3.2-3.9,6.3-7.8,8.8-12.1c18-31,18.6-64.5,14.7-99.4   C414.2,64.9,384.2,82.6,353.5,100.7z M158.3,100.7C127.6,82.6,97.6,64.8,67.4,47c-1.5,7.2-1.7,13.9-2,20.5   c-1,22.2,1.2,43.9,9.4,64.7c4.3,10.7,10.1,20.5,18.6,28.9c9.3-11.8,19-22.8,29.8-32.8C133.9,118.3,145.4,109.3,158.3,100.7z    M207.7,457.9c0-6.3,0-12.5,0-18.8c-0.1-8.2,1.1-16.6-0.5-24.4c-5.2-25.9-18.2-47.7-38.4-64.9c-28.9-24.5-63.4-35.8-100.1-41.5   c-2.7-0.4-3.5,0.4-3.7,3c-0.4,4.6-1.1,9.3-1.8,13.9c-0.5,3.2,0.2,4.6,3.8,5.2c22.8,4,45.3,9.4,66.3,19.6   c19.1,9.3,33.9,22.4,41.1,43.3c4.2,12.1,9.5,23.8,14.7,35.5C193.6,439.2,199,449.3,207.7,457.9z M305.7,457.6   c4.3-5.1,7.3-10,10.2-15.1c8.9-15.9,15.1-32.9,22-49.7c2.7-6.5,5.2-13,9.5-18.6c10.9-14.3,26-22.6,42.2-29.2   c18-7.3,36.8-11.6,55.8-14.9c3.1-0.5,3.9-1.7,3.4-4.6c-0.6-3.6-1-7.3-1.5-10.9c-1-6.6-1-6.6-7.5-5.5c-25.3,4.4-49.4,12-71.8,24.9   C321.5,361.1,300.6,404.8,305.7,457.6z M256.5,442.1c-5,0-10,0.1-15,0c-2.6-0.1-3.9,0.5-3.9,3.5c0.1,10.3,0.1,20.6,0,30.9   c0,2.5,0.9,3.3,3.3,3.9c10.4,2.3,20.8,2,31.2-0.2c2.5-0.5,3.2-1.7,3.2-4.1c-0.1-10.1-0.1-20.3,0-30.4c0-3-1.2-3.6-3.8-3.6   C266.4,442.2,261.4,442.1,256.5,442.1z"/>
	<path d="M328.4,247.3c0.7,0.6,1.3,1.1,1.9,1.7c5.7,5.6,11.2,11.3,17,16.9c1.9,1.9,1.8,3-0.1,4.8c-10,9.9-20,20-29.9,30.1   c-2,2-3.1,1.5-4.8-0.2c-5.5-5.6-11-11.1-16.6-16.5c-1.5-1.5-2.1-2.5-0.2-4.3c10.3-10.1,20.5-20.5,30.7-30.7   C327.1,248.4,327.7,247.9,328.4,247.3z"/>
	<path d="M196.3,302.7c-0.8-0.7-1.6-1.4-2.3-2.1c-10-10-19.9-20-30-30c-1.8-1.8-2-2.9,0-4.7c5.6-5.4,11.2-10.9,16.6-16.5   c1.8-1.9,3-1.8,4.8,0c9.9,10.1,19.9,20.1,29.9,30.1c1.2,1.2,2.5,2.2,0.6,4c-6.1,5.9-12,11.9-18,17.9   C197.4,301.9,196.9,302.2,196.3,302.7z"/>
</g>
</svg>