<svg viewBox="0 0 537.0999999999999 106.60000000000001" xmlns="http://www.w3.org/2000/svg" width="2500" height="496"><path d="M514.3 13.5c0-6.1 4.9-11.1 10.9-11.1 2.9 0 5.6 1.2 7.7 3.2 2.1 2.1 3.2 4.9 3.2 7.8s-1.1 5.7-3.2 7.8-4.8 3.3-7.7 3.3c-6 0-10.9-4.9-10.9-11m-.9 0c0 6.6 5.3 12 11.9 12 3.2 0 6.1-1.2 8.3-3.5s3.5-5.3 3.5-8.5-1.2-6.2-3.5-8.5-5.2-3.5-8.3-3.5c-6.6 0-11.9 5.4-11.9 12m7.4 7.1h1.7V15h3.8c.6 0 1.1 0 1.5.2.5.3.8.9.9 1.7l.2 2.2v1c.1.2.1.3.2.4h2.1v-.3c-.3-.1-.4-.4-.5-.8-.1-.2-.1-.6-.1-1.1l-.1-1.7c0-.8-.2-1.3-.4-1.6-.3-.3-.7-.6-1.2-.8.6-.3 1-.7 1.3-1.2s.4-1.1.4-1.9c0-1.5-.6-2.5-1.7-3.1-.6-.3-1.4-.4-2.3-.4h-5.7zm1.6-7.1V9h4c.6 0 1.1.1 1.4.3.6.3.9 1 .9 1.9s-.2 1.5-.7 1.8c-.4.3-1 .5-1.8.5zM48.6 30L0 106.4h33.2l46.8-73zm200.1-1.7V0h-94.5c-12.9.8-18.5 7-22.7 11.4-4.5 4.7-7 14.6-7 14.6V.2H74.2c-3.8 0-7.4 1.6-10.1 5.4-2.8 3.7-14.3 22.7-14.3 22.7zm257 0V0H404.6c-12.8.8-18.5 7-22.7 11.4-4.5 4.7-7 14.6-7 14.6v2.3zM281.9.1h-28.3v28.2h28.3zm92.7 0h-28.2v28.2h28.2zm0 38.4l-27.8-1.7v32.7s-.1 9.4-9.2 9.4H290s-8.1-.7-8.1-9.3V32.4l-28-2v50.1c4.5 24 26.2 25.9 26.2 25.9s2.2.1 2.6.2h64.5s27.6-2.2 27.6-28.8zM95.7 106.4h132.2c23-4.6 25.4-25.6 25.4-25.6 1.1-6.2.5-11.3.5-11.3-.7-4.2-8.7-22.8-25.9-24.4-10.3-1-102-8.3-102-8.3 1.8 9.2 5.9 13.9 8.7 16.5 6.4 6.1 16.5 7.9 16.5 7.9l70.7 5.9c2.2.1 6.3.7 6.2 6.1 0 .7-.6 5.4-5.8 5.4h-98.9v-42l-27.5-2c-.1 0-.1 71.8-.1 71.8zm279.1.2H476c25.4-1.5 29-25.6 29-25.6.9-6.3.2-11.5.2-11.5-.7-5.7-8.8-22.9-26.1-24.6-10.2-1-102.5-6.4-102.5-6.4 2.7 9.5 6.4 12.4 9.2 15 6.4 6.2 15.9 7.6 15.9 7.6 2.4.2 71.4 6 71.4 6 2.2.1 6.7.3 6.7 5.7 0 1.6-.8 3.3-1.8 4.2 0 0-2.4 1.3-4.7 1.3h-98.2z" fill="#00539b"/></svg>