<svg xmlns="http://www.w3.org/2000/svg" xml:space="preserve" style="fill-rule:evenodd;clip-rule:evenodd;stroke-linejoin:round;stroke-miterlimit:2" viewBox="0 0 256 256"><path d="M130.624 255.95V-.44L58.76-.43C26.416-.414-.194 26.196-.21 58.54v138.45c.016 32.344 26.626 58.954 58.97 58.97" style="fill:#0090c9" transform="matrix(.998479 0 0 .99844 .209681 .439314)"/><path d="M127.35-.43h-68.6C26.414-.403-.184 26.204-.2 58.54v138.45c.016 32.344 26.626 58.954 58.97 58.97h68.59V-.44l-.01.01Z" style="fill:url(#a)" transform="matrix(-.998479 0 0 -.99844 255.78 255.561)"/><path d="M48.6 30 0 106.4h33.2l46.8-73L48.6 30Zm200.1-1.7V0h-94.5c-12.9.8-18.5 7-22.7 11.4-4.5 4.7-7 14.6-7 14.6V.2H74.2c-3.8 0-7.4 1.6-10.1 5.4-2.8 3.7-14.3 22.7-14.3 22.7h198.9Zm-153 78.1h132.2c23-4.6 25.4-25.6 25.4-25.6 1.1-6.2.5-11.3.5-11.3-.7-4.2-8.7-22.8-25.9-24.4-10.3-1-102-8.3-102-8.3 1.8 9.2 5.9 13.9 8.7 16.5 6.4 6.1 16.5 7.9 16.5 7.9 2.4.2 70.7 5.9 70.7 5.9 2.2.1 6.3.7 6.2 6.1 0 .7-.6 5.4-5.8 5.4h-98.9v-42l-27.5-2c-.1 0-.1 71.8-.1 71.8Z" style="fill:#fff;fill-rule:nonzero" transform="translate(96.93009515 212.7704769) scale(.125507)"/><path d="M514.3 13.5c0-6.1 4.9-11.1 10.9-11.1 2.9 0 5.6 1.2 7.7 3.2 2.1 2.1 3.2 4.9 3.2 7.8 0 2.9-1.1 5.7-3.2 7.8-2.1 2.1-4.8 3.3-7.7 3.3-6 0-10.9-4.9-10.9-11m-.9 0c0 6.6 5.3 12 11.9 12 3.2 0 6.1-1.2 8.3-3.5 2.2-2.3 3.5-5.3 3.5-8.5s-1.2-6.2-3.5-8.5-5.2-3.5-8.3-3.5c-6.6 0-11.9 5.4-11.9 12m7.4 7.1h1.7V15h3.8c.6 0 1.1 0 1.5.2.5.3.8.9.9 1.7l.2 2.2v1c.1.2.1.3.2.4h2.1v-.3c-.3-.1-.4-.4-.5-.8-.1-.2-.1-.6-.1-1.1l-.1-1.7c0-.8-.2-1.3-.4-1.6-.3-.3-.7-.6-1.2-.8.6-.3 1-.7 1.3-1.2.3-.5.4-1.1.4-1.9 0-1.5-.6-2.5-1.7-3.1-.6-.3-1.4-.4-2.3-.4h-5.7l-.1 13Zm1.6-7.1V9h4c.6 0 1.1.1 1.4.3.6.3.9 1 .9 1.9 0 .9-.2 1.5-.7 1.8-.4.3-1 .5-1.8.5h-3.8Zm-16.7 14.8V0H404.6c-12.8.8-18.5 7-22.7 11.4-4.5 4.7-7 14.6-7 14.6v2.3h130.8ZM281.9.1h-28.3v28.2h28.3V.1Zm92.7 0h-28.2v28.2h28.2V.1ZM253.9 80.5c4.5 24 26.2 25.9 26.2 25.9s2.2.1 2.6.2h64.5s27.6-2.2 27.6-28.8l-.2-39.3-27.8-1.7v32.7s-.1 9.4-9.2 9.4H290s-8.1-.7-8.1-9.3V32.4l-28-2m120.9 76.2H476c25.4-1.5 29-25.6 29-25.6.9-6.3.2-11.5.2-11.5-.7-5.7-8.8-22.9-26.1-24.6-10.2-1-102.5-6.4-102.5-6.4 2.7 9.5 6.4 12.4 9.2 15 6.4 6.2 15.9 7.6 15.9 7.6 2.4.2 71.4 6 71.4 6 2.2.1 6.7.3 6.7 5.7 0 1.6-.8 3.3-1.8 4.2 0 0-2.4 1.3-4.7 1.3h-98.2l-.3 28.3Z" style="fill:#d8e1e5;fill-rule:nonzero" transform="translate(96.93009515 212.7704769) scale(.125507)"/><path d="M34.47 142.03h94.474c0 8.479.01 51.451.01 59.93H34.47c-5.592-.005-10.19-4.608-10.19-10.2v-39.55c.011-5.584 4.606-10.175 10.19-10.18Zm39.51 19.98c-3.199-4.899-8.669-7.86-14.519-7.86-9.513 0-17.34 7.827-17.34 17.34 0 9.512 7.827 17.34 17.34 17.34 5.825 0 11.274-2.936 14.479-7.8h55.015v-19.02H73.98Zm-14.53-3.5c7.119.003 12.975 5.861 12.975 12.98 0 7.121-5.859 12.98-12.98 12.98h-.005c-6.98-.196-12.615-5.992-12.615-12.975 0-6.986 5.641-12.784 12.625-12.975v-.01Z" style="fill:#fff"/><path d="M179.737 142.03V87.985c.052-.001.131-.002.196-.002 4.57 0 8.33 3.76 8.33 8.33 0 2.78-1.391 5.383-3.703 6.927v38.79h39.24c5.584 0 10.184 4.586 10.2 10.17v9.8h-17.78v3.98H234v3.03h-17.77V173H234v2.97h-17.77v3.98H234v11.82c-.005 5.588-4.602 10.185-10.19 10.19h-95.196v-59.93h51.123Zm-51.083 19.98c0 5.851-.04 13.169-.04 19.02H209.2c1.563 0 2.85-1.287 2.85-2.85v-13.32c0-1.563-1.287-2.85-2.85-2.85h-80.546Zm77.066 6.33h-17.44v6.46h17.44v-6.46Zm-23.01 0h-17.45v6.46h17.45v-6.46Zm-23.06 0h-17.44v6.46h17.44v-6.46Zm33.25-84.87c-1.179 0-2.31-.472-3.14-1.31-2.573-2.582-6.075-4.03-9.72-4.02-.101 0-.202.001-.303.003v-8.892c.101-.001.202-.001.303-.001 6.05 0 11.73 2.35 16 6.64.824.833 1.287 1.958 1.287 3.13 0 2.433-1.995 4.437-4.427 4.45Zm12.04-12.02c-1.183.002-2.318-.47-3.15-1.31-6.05-6.026-14.064-9-22.053-8.923 0-2.24-.037-8.894 0-8.894 10.277-.077 20.579 3.765 28.353 11.527.836.834 1.307 1.969 1.307 3.15 0 2.441-2.009 4.45-4.45 4.45h-.007Zm12.22-12.22c-1.183.002-2.318-.47-3.15-1.31-9.402-9.376-21.85-14.025-34.273-13.947V34.95h.323c15.21 0 29.5 5.92 40.26 16.68.836.834 1.307 1.969 1.307 3.15 0 2.441-2.009 4.45-4.45 4.45h-.017Z" style="fill:#d8e1e5"/><path d="M175.16 103.14c-2.227-1.557-3.557-4.109-3.557-6.827 0-4.57 3.76-8.33 8.33-8.33 0 2.508.013 54.047.013 54.047h-4.786v-38.89Zm4.88-33.89v8.89c-3.66 0-7.13 1.43-9.72 4.02-.817.736-1.879 1.144-2.979 1.144-2.441 0-4.45-2.009-4.45-4.45 0-1.102.41-2.166 1.149-2.984 4.234-4.253 9.999-6.638 16-6.62Zm.02-16.928v8.894c-7.895-.005-15.792 2.969-21.77 8.924-.835.836-1.969 1.306-3.15 1.306-2.442 0-4.451-2.009-4.451-4.451 0-1.179.468-2.311 1.301-3.145 7.703-7.691 17.887-11.533 28.07-11.528Zm0-17.372v9.022c-12.324-.212-24.652 4.646-33.98 13.948-.825.773-1.914 1.204-3.044 1.204-2.441 0-4.45-2.009-4.45-4.45 0-1.13.431-2.219 1.204-3.044 10.651-10.713 25.163-16.724 40.27-16.68Z" style="fill:#fff"/><defs><linearGradient id="a" x1="0" x2="1" y1="0" y2="0" gradientTransform="translate(-.21 127.76) scale(127.559)" gradientUnits="userSpaceOnUse"><stop offset="0" style="stop-color:#008cc5;stop-opacity:1"/><stop offset="1" style="stop-color:#0079af;stop-opacity:1"/></linearGradient></defs></svg>