<svg xmlns="http://www.w3.org/2000/svg" xmlns:xlink="http://www.w3.org/1999/xlink" xml:space="preserve" width="800.224" height="799.944" viewBox="99.938 -236.648 800.224 799.944"><defs><radialGradient xlink:href="#a" id="b" cx="309.19" cy="132.241" r="400.112" fx="309.19" fy="132.241" gradientTransform="matrix(0 1.2026 -1.44789 0 551.765 -203.019)" gradientUnits="userSpaceOnUse"/><linearGradient id="a"><stop offset="0" stop-color="#00a8e0"/><stop offset="1" stop-color="#1696d4"/></linearGradient></defs><path fill="url(#b)" d="M254.695 479.198c67.835 52.511 152.979 84.06 245.354 84.06 101.092 0 193.248-37.531 263.584-99.141.854-.753.432-1.251-.408-.753-31.561 21.079-121.516 67.09-263.172 67.09-123.104 0-200.902-27.468-244.837-51.989-.841-.415-1.152.216-.521.733m272.513 20.443c98.461 0 206.658-26.84 271.369-79.97 17.708-14.478 34.575-33.743 49.683-59.637 8.696-14.899 17.202-32.599 24.131-49.998.308-.848-.217-1.263-.854-.309C811.36 398.284 637.101 453.52 457.171 453.52c-127.184 0-264.027-40.671-317.604-118.327-.528-.718-1.055-.41-.733.414 49.91 106.085 201.324 164.034 388.374 164.034M419.63 323.657c-204.782 0-301.341-95.374-318.855-160.461-.217-.943-.837-.736-.837.109 0 21.911 2.192 50.188 5.968 68.956 1.799 9.138 9.234 23.474 20.135 34.902 49.588 51.686 173.213 124.111 387.316 124.111 291.705 0 358.401-97.168 372.021-129.125 9.739-22.854 14.784-64.151 14.784-98.845 0-8.396-.211-15.1-.528-21.683 0-1.067-.619-1.155-.832-.114C884.227 219.701 635 323.657 419.63 323.657M138.511-8.272c-11.732 23.287-24.74 62.574-28.607 82.908-1.695 8.711-.973 12.896 2.082 19.396 24.545 52.076 148.695 135.398 438.289 135.398 176.674 0 313.918-43.404 336.152-122.61 4.096-14.581 4.313-29.976-.946-50.72-5.876-23.182-16.883-50.211-26.198-69.192-.308-.62-.85-.526-.739.205C862.004 91 572.296 157.954 426.121 157.954c-158.332 0-290.426-63.084-290.426-142.738 0-7.652 1.585-15.309 3.562-23.275.198-.731-.426-.852-.746-.213m625.77-127.551c1.682 2.633 2.52 5.445 2.52 9.231C766.8-82.154 630.796-3.54 414.293-3.54c-159.078 0-188.86-59.014-188.86-96.544 0-13.415 5.145-27.143 16.477-41.083.619-.829.093-1.148-.622-.533-20.666 17.514-39.654 37.221-56.312 58.493-7.958 10.061-12.898 18.974-12.898 24.313 0 77.773 195.016 134.164 377.361 134.164 194.291 0 281.004-63.426 281.004-119.167 0-19.921-7.755-31.55-27.591-54.095-12.877-14.668-25.056-26.609-37.948-38.365-.623-.512-1.057-.093-.623.534m-59.565-44.429c-59.964-35.941-129.594-56.389-204.664-56.389-75.592 0-147.322 21.163-207.5 58.056-18.053 11.109-28.211 20.01-28.211 31.456 0 33.735 78.84 70.007 218.713 70.007 138.421 0 245.783-39.73 245.783-77.975.002-9.127-7.976-15.514-24.121-25.155" transform="translate(0 .001)"/></svg>