<svg xmlns="http://www.w3.org/2000/svg" viewBox="0 0 48 48"><path fill="#2684ff" d="M43.38 27.316h-10c-.616 0-1.232.48-1.3 1.096-.549 3.972-3.973 7.054-8.082 7.054l2.67 12.328c9.726-1.301 17.328-9.246 18.013-19.108.069-.754-.548-1.37-1.301-1.37zM26.188 26.974 40.57 14.646c.616-.548.616-1.438 0-1.986L26.188.332c-.822-.753-2.123-.137-2.123.959v24.656c-.069 1.164 1.233 1.78 2.123 1.027z"/><path fill="url(#a)" d="M6.069 18.994c.65 5.068 5 9.006 10.273 9.006v-6.266c-2.26 0-4.11-1.815-4.11-4.076z" transform="matrix(2 0 0 2 -8.686 -8)"/><path fill="url(#b)" d="M6 17.556v.103h6.267c0-2.26 1.849-4.075 4.109-4.075L15.04 7.42C9.972 8.07 6.034 12.35 6 17.556z" transform="matrix(2 0 0 2 -8.686 -8)"/><defs><linearGradient id="a" x1="11.218" x2="11.218" y1="7.486" y2="21.607" gradientUnits="userSpaceOnUse"><stop offset="0" stop-color="#0052CC"/><stop offset="1" stop-color="#2684FF"/></linearGradient><linearGradient id="b" x1="11.168" x2="11.168" y1="7.486" y2="21.607" gradientUnits="userSpaceOnUse"><stop offset="0" stop-color="#0052CC"/><stop offset="1" stop-color="#2684FF"/></linearGradient></defs></svg>
