<svg xmlns="http://www.w3.org/2000/svg" viewBox="0 0 48 48"><path fill="url(#a)" d="M11.129 15.081c-.364-.4-.91-.364-1.165.11L4.07 26.98c-.218.473.11 1.02.619 1.02h8.188c.255 0 .51-.146.618-.401 1.784-3.64.728-9.207-2.365-12.52z" transform="matrix(2 0 0 2 -7.989 -8)"/><path fill="#2684ff" d="M22.857.764c-6.55 10.408-6.114 21.98-1.82 30.642 4.367 8.661 7.643 15.357 7.934 15.794.218.51.728.8 1.237.8h16.376c1.02 0 1.747-1.091 1.237-2.037 0 0-22.051-44.106-22.635-45.198-.437-1.02-1.674-1.02-2.33 0z"/><defs><linearGradient id="a" x1="14.346" x2="8.133" y1="16.905" y2="27.666" gradientUnits="userSpaceOnUse"><stop offset="0" stop-color="#0052CC"/><stop offset=".923" stop-color="#2684FF"/></linearGradient></defs></svg>
