<?xml version="1.0" encoding="utf-8"?>
<!-- Generator: Adobe Illustrator 27.7.0, SVG Export Plug-In . SVG Version: 6.00 Build 0)  -->
<svg version="1.1" id="Layer_1" xmlns="http://www.w3.org/2000/svg" xmlns:xlink="http://www.w3.org/1999/xlink" x="0px" y="0px"
	 viewBox="0 0 512 512" style="enable-background:new 0 0 512 512;" xml:space="preserve">
<style type="text/css">
	.st0{fill:#FFFFFF;}
	.st1{fill:url(#SVGID_1_);}
</style>
<g id="Layer_2_1_">
	<g id="Layer_2-2">
		<g id="Layer_4">
			<g id="Layer_5">
				<circle class="st0" cx="256" cy="256" r="256"/>
			</g>
			
				<linearGradient id="SVGID_1_" gradientUnits="userSpaceOnUse" x1="255.5034" y1="-477.4336" x2="255.5034" y2="17.4336" gradientTransform="matrix(1 0 0 1 0 486)">
				<stop  offset="0.32" style="stop-color:#CD9D49"/>
				<stop  offset="0.99" style="stop-color:#875D27"/>
			</linearGradient>
			<circle class="st1" cx="255.5" cy="256" r="247.4"/>
		</g>
		<path class="st0" d="M416.2,237.6c-2-1.7-5.1-4.1-9.4-7v-32.8c0-83.6-67.7-151.3-151.3-151.3l0,0c-83.6,0-151.3,67.7-151.3,151.3
			v32.8c-4.2,2.9-7.3,5.4-9.4,7c-1.7,1.4-2.7,3.5-2.7,5.8v39.3c0,2.2,1,4.3,2.7,5.8c4.7,3.9,15.4,12,32.1,20.4v3.8
			c0,10.3,6.6,18.6,14.8,18.6l0,0c8.2,0,14.8-8.4,14.8-18.6v-94.2c0-10.3-6.6-18.6-14.8-18.6l0,0c-7.9,0-14.3,7.7-14.8,17.3h0v-19.4
			c0-71,57.6-128.6,128.6-128.6l0,0c71.1,0,128.6,57.6,128.6,128.6v19.4l0,0c-0.5-9.7-7-17.3-14.8-17.3l0,0
			c-8.2,0-14.8,8.4-14.8,18.6v94.2c0,10.3,6.6,18.6,14.8,18.6l0,0c8.2,0,14.8-8.4,14.8-18.6v-3.8c16.7-8.4,27.4-16.5,32.1-20.4
			c1.7-1.4,2.7-3.6,2.7-5.8v-39.3C418.8,241.1,417.9,239,416.2,237.6z"/>
		<path class="st0" d="M202.7,401.3c9.9,0,17.9-8,17.9-17.9V182.8c0-9.9-8-17.9-17.9-17.9h-18.5c-9.9,0-17.9,8-17.9,17.9v200.6
			c0,9.9,8,17.9,17.9,17.9H202.7z M173.1,213h40.8v4.3h-40.8V213z"/>
		<path class="st0" d="M264.7,401.3c9.9,0,17.9-8,17.9-17.9V182.8c0-9.9-8-17.9-17.9-17.9h-18.5c-9.9,0-17.9,8-17.9,17.9v200.6
			c0,9.9,8,17.9,17.9,17.9H264.7z M235.1,213h40.8v4.3h-40.8V213z"/>
		<path class="st0" d="M326.8,401.3c9.9,0,17.9-8,17.9-17.9V182.8c0-9.9-8-17.9-17.9-17.9h-18.5c-9.9,0-17.9,8-17.9,17.9v200.6
			c0,9.9,8,17.9,17.9,17.9H326.8z M297.1,213h40.8v4.3h-40.8V213z"/>
		<path class="st0" d="M135.4,407.5h240.2c7.4,0,13.5,6,13.5,13.5l0,0c0,7.4-6,13.5-13.5,13.5H135.4c-7.4,0-13.5-6-13.5-13.5l0,0
			C121.9,413.5,127.9,407.5,135.4,407.5z"/>
	</g>
</g>
</svg>
