<svg xmlns="http://www.w3.org/2000/svg" xml:space="preserve" id="logo-cropped_xA0_Image_00000070110367150779417010000004701629182138364035_" x="0" y="0" style="enable-background:new 0 0 268 268" version="1.1" viewBox="0 0 268 268"><style>.st1{fill:url(#SVGID_00000021842447372033016190000004633594876680095906_)}.st2{fill:url(#SVGID_00000076605990896464297630000013879319723116065682_)}.st3{fill:url(#SVGID_00000129172603719806689390000013165533589324112017_)}.st4{fill:url(#SVGID_00000033365920039280121200000005818583595035107215_)}</style><linearGradient id="SVGID_1_" x1="-.592" x2="265.99" y1="134.085" y2="135.224" gradientUnits="userSpaceOnUse"><stop offset="0" style="stop-color:#3f51b4"/><stop offset="1" style="stop-color:#113155"/></linearGradient><path d="M135.05 201.03c-36.56-.01-66.7-30-66.44-66.48.28-38.3 32.06-66.61 67.02-66.25 34.53.36 65.85 27.43 65.95 66.44.1 37.61-30.09 66.23-66.53 66.29zm17.28-92.47c.03-8.46-4.93-15.14-12.72-17.16-7.65-1.98-15.64 1.39-19.49 8.22-4.02 7.14-2.95 15.28 3.44 20.97 3.13 2.78 3.39 5.42 2.43 9.13-2.92 11.19-5.54 22.45-8.3 33.68-1.02 4.15.08 7.7 3.29 10.42 6.72 5.69 18.96 6.24 26.23 1.3 5.21-3.54 6.53-6.38 5.13-12.49-2.68-11.65-5.5-23.28-8.41-34.88-.66-2.61-.41-4.36 1.9-6.17 4.13-3.23 6.78-7.46 6.5-13.02z" style="fill:url(#SVGID_1_)"/><linearGradient id="SVGID_00000078021550110243797630000014812504150058184111_" x1="-.612" x2="265.97" y1="138.714" y2="139.853" gradientUnits="userSpaceOnUse"><stop offset="0" style="stop-color:#3f51b4"/><stop offset="1" style="stop-color:#113155"/></linearGradient><path d="M134.55 233.7c-46.99 1.51-92.09-34.1-98.42-86.74-4.12-34.3 6.37-63.81 32.26-87.09 5.94-5.35 13.15-9.38 20.09-13.5 5.38-3.2 9.91-1.82 12.68 2.92 2.86 4.9 1.48 9.35-3.83 12.9-4.96 3.31-10.16 6.37-14.71 10.19-16.88 14.16-26.31 32.42-28.33 54.32-1.85 20.03 2.58 38.69 14.57 54.94 15.67 21.25 36.96 32.67 63.48 33.66 23.63.89 43.94-7.5 60.24-24.26 6.63-6.82 11.22-15.67 16.42-23.8 2.89-4.52 6.77-6.8 11.14-5.47 5.56 1.69 8.46 6.61 5.76 12.25-3.76 7.85-7.85 15.8-13.23 22.57-17.27 21.75-40.29 33.61-67.75 37.03-.39.05-.79.08-1.19.08-3.07.01-6.13 0-9.18 0z" style="fill:url(#SVGID_00000078021550110243797630000014812504150058184111_)"/><linearGradient id="SVGID_00000182502361117118273650000010358136585432439968_" x1="-.519" x2="266.063" y1="116.917" y2="118.056" gradientUnits="userSpaceOnUse"><stop offset="0" style="stop-color:#3f51b4"/><stop offset="1" style="stop-color:#113155"/></linearGradient><path d="M2.18 138.52c.45-36.23 10.6-63.74 30.28-87.67 19.89-24.18 45.32-39.44 76.07-45.37 6.29-1.21 12.96-.62 19.45-.59 3.42.01 5.2 2.28 5.8 5.52.67 3.64-1 8.25-4.17 9.58-2.88 1.2-6.08 1.81-9.2 2.22-21.46 2.84-40.86 10.65-57.54 24.48-23.59 19.57-37.93 44.44-41.33 75.15-3.32 30.02 4.51 57.09 22.27 81.36 2.73 3.74 6.05 7.04 8.91 10.7 4.18 5.36 3.88 9.53-.7 13.63-3.86 3.45-8.62 3-12.99-1.47-16.95-17.34-28.14-37.94-33.34-61.53-2.24-10.17-2.83-20.71-3.51-26.01z" style="fill:url(#SVGID_00000182502361117118273650000010358136585432439968_)"/><linearGradient id="SVGID_00000137122619772890105950000011479294109599487666_" x1="-.756" x2="265.827" y1="172.345" y2="173.484" gradientUnits="userSpaceOnUse"><stop offset="0" style="stop-color:#3f51b4"/><stop offset="1" style="stop-color:#113155"/></linearGradient><path d="M148.59 264.81c-1.33 0-2.66.08-3.99-.01-4.99-.35-8.37-3.27-8.85-7.59-.52-4.65 2.44-8.69 7.49-9.8 3.5-.77 7.08-1.13 10.61-1.77 35.49-6.4 62.32-25.07 80.22-56.5 9.27-16.29 14.09-33.9 14.53-52.46.34-14.12-1.91-28.05-7.16-41.36-.82-2.08-1.27-4.77-.69-6.84 1.09-3.87 3.72-6.75 8.17-7.09 4.13-.32 7.69 1.56 9.26 6.12 2.54 7.39 5 14.9 6.43 22.56 5.17 27.69 2.12 54.53-10.01 80.06-9.87 20.78-24.13 38.04-42.96 51.4-16.75 11.89-35.17 19.69-55.53 22.76-2.49.37-5.01.52-7.51.78.01-.09 0-.18-.01-.26z" style="fill:url(#SVGID_00000137122619772890105950000011479294109599487666_)"/><linearGradient id="SVGID_00000089539764051531647730000006810769399172282524_" x1="-.371" x2="266.211" y1="82.417" y2="83.556" gradientUnits="userSpaceOnUse"><stop offset="0" style="stop-color:#3f51b4"/><stop offset="1" style="stop-color:#113155"/></linearGradient><path d="M232.15 114.52c0 5.45-2.74 8.89-7.43 9.73-4.53.82-8.3-1.57-10.1-6.45-2.39-6.46-4.28-13.16-7.19-19.37-7.66-16.33-19.99-28.22-36.08-36.27-1.31-.65-2.64-1.27-3.91-1.98-4.87-2.74-6.74-7.83-4.64-12.49 2.19-4.87 6.98-7.09 12.32-4.45 7.21 3.58 14.43 7.48 20.82 12.33 17.93 13.63 29.45 31.75 35.34 53.47.31 1.15.55 2.33.75 3.5.11.77.1 1.58.12 1.98z" style="fill:url(#SVGID_00000089539764051531647730000006810769399172282524_)"/></svg>