<svg xmlns="http://www.w3.org/2000/svg" xmlns:xlink="http://www.w3.org/1999/xlink" width="200" height="151" viewBox="0 0 200 151"><path id="Path" fill="#fff" stroke="none" d="M 107.099998 34.279999 L 113.470001 34.279999 L 113.470001 52.480003 L 107.099998 52.480003 Z"/><path id="path1" fill="#fff" stroke="none" d="M 123.669998 33.510002 L 130.039993 33.510002 L 130.039993 47.739998 L 123.669998 47.739998 Z"/><path id="path2" fill="#fff" stroke="none" d="M 30.83 54.349998 C 22.314568 54.345032 14.478931 58.999596 10.41 66.479996 L 21.209999 66.479996 C 26 62.349998 32.939999 61.150002 38 66.479996 L 49.389999 66.479996 C 44.93 60.440002 38.240002 54.349998 30.83 54.349998 Z"/><path id="path3" fill="#fff" stroke="none" d="M 46.25 77.459999 C 31.360001 108.610001 5.25 82.059998 21.25 66.459999 L 10.41 66.459999 C 1.94 81.220001 13.65 101.139999 30.83 100.689995 C 44.110001 100.689995 55.07 80.970001 55.07 77.479996 C 55.07 75.939995 52.93 71.229996 49.389999 66.479996 L 38 66.479996 C 41.354752 69.64389 44.144821 73.357216 46.25 77.459999 Z M 46.650002 76.549995 Z"/><path id="path4" fill="#fff" stroke="none" d="M 189.619995 34.059998 L 189.619995 116.349998 C 189.575897 132.125137 176.775208 144.89006 161 144.889999 L 148.889999 144.889999 L 148.889999 116.889999 L 90.940002 116.889999 L 90.940002 144.889999 L 78.809998 144.889999 C 63.046509 144.87355 50.264053 132.113449 50.220001 116.349998 L 50.220001 90.43 L 142.089996 90.43 L 142.089996 40.970001 L 97.739998 40.970001 L 97.739998 68.760002 L 50.220001 68.760002 L 50.220001 34.059998 C 50.217339 32.960518 50.280788 31.86187 50.41 30.769997 C 50.553982 29.474586 50.791264 28.191254 51.119999 26.93 C 51.220001 26.519997 51.34 26.110001 51.459999 25.720001 C 51.482597 25.617928 51.51268 25.517654 51.549999 25.419998 C 51.619999 25.209999 51.68 25.019997 51.75 24.830002 C 51.82 24.639999 51.889999 24.43 51.959999 24.239998 C 52.029999 24.050003 52.119999 23.800003 52.209999 23.589996 C 52.299999 23.379997 52.389999 23.159996 52.470001 22.949997 C 53.184547 21.265808 54.055004 19.652115 55.07 18.130005 L 55.07 18.080002 C 55.330002 17.710007 55.599998 17.330002 55.880001 16.960007 C 56.16 16.589996 56.349998 16.350006 56.580002 16.050003 C 56.810001 15.75 57.150002 15.380005 57.439999 15.050003 C 57.73 14.720001 58 14.419998 58.299999 14.119995 L 58.299999 14.119995 C 58.450584 13.944397 58.614395 13.780579 58.790001 13.630005 C 59.849861 12.598694 60.986458 11.649292 62.189999 10.789993 C 62.509998 10.550003 62.849998 10.330002 63.189999 10.110001 C 63.529999 9.889999 63.959999 9.619995 64.360001 9.389999 C 65.100784 8.945358 65.86525 8.541428 66.650002 8.179993 L 67.400002 7.839996 C 68.489693 7.36557 69.60865 6.961411 70.75 6.630005 C 71.190002 6.5 71.629997 6.389999 72.080002 6.279999 C 72.293816 6.218353 72.510796 6.168274 72.730003 6.130005 C 74.005623 5.852692 75.298592 5.662262 76.599998 5.559998 L 77.160004 5.559998 L 77.440002 5.559998 C 77.870003 5.559998 78.309998 5.559998 78.75 5.559998 L 161 5.559998 C 161.429993 5.559998 161.869995 5.559998 162.300003 5.559998 L 162.580002 5.559998 L 163.139999 5.559998 C 164.444626 5.662994 165.740875 5.853409 167.020004 6.130005 C 167.240005 6.130005 167.449997 6.220001 167.669998 6.279999 C 168.119995 6.389999 168.550003 6.5 168.990005 6.630005 C 170.131882 6.959793 171.250931 7.363983 172.339996 7.839996 L 173.089996 8.179993 C 173.876968 8.543488 174.644669 8.947357 175.389999 9.389999 C 175.779999 9.619995 176.169998 9.860001 176.550003 10.110001 C 176.929993 10.360001 177.240005 10.550003 177.550003 10.789993 C 178.949753 11.792648 180.258179 12.917023 181.460007 14.149994 C 181.76001 14.449997 182.050003 14.76001 182.330002 15.080002 C 182.619995 15.399994 182.899994 15.740005 183.179993 16.080002 L 183.889999 16.990005 C 184.169998 17.360001 184.429993 17.740005 184.690002 18.110001 L 184.690002 18.160004 C 185.708801 19.679825 186.579453 21.293884 187.289993 22.979996 L 187.559998 23.620003 L 187.800003 24.269997 C 187.880005 24.459999 187.949997 24.659996 188.020004 24.860001 L 188.210007 25.449997 C 188.210007 25.540001 188.270004 25.639999 188.309998 25.75 C 188.419998 26.139999 188.539993 26.550003 188.649994 26.959999 C 188.970627 28.222542 189.204514 29.505531 189.350006 30.800003 C 189.504791 31.880325 189.594955 32.968925 189.619995 34.059998 Z"/><path id="path5" fill="#fff" stroke="none" d="M 184.759995 18.130005 L 55.07 18.130005 C 60.377235 10.220535 69.274956 5.473587 78.800003 5.470001 L 161 5.470001 C 170.53566 5.463577 179.446838 10.211716 184.759995 18.130005 Z"/><path id="path6" fill="#fff" stroke="none" d="M 189.429993 30.779999 L 50.400002 30.779999 C 50.91428 26.248558 52.516457 21.908615 55.07 18.130005 L 184.759995 18.130005 C 187.31781 21.906418 188.920395 26.247444 189.429993 30.779999 Z"/><path id="path7" fill="#fff" stroke="none" d="M 189.630005 34.059998 L 189.630005 43.43 L 142.089996 43.43 L 142.089996 40.970001 L 97.739998 40.970001 L 97.739998 43.43 L 50.209999 43.43 L 50.209999 34.059998 C 50.20734 32.960518 50.270786 31.86187 50.400002 30.769997 L 189.399994 30.769997 C 189.542603 31.861061 189.619415 32.959709 189.630005 34.059998 Z"/><path id="path8" fill="#fff" stroke="none" d="M 50.209999 43.43 L 97.75 43.43 L 97.75 56.090004 L 50.209999 56.090004 Z"/><path id="path9" fill="#fff" stroke="none" d="M 142.089996 43.43 L 189.630005 43.43 L 189.630005 56.090004 L 142.089996 56.090004 Z"/><path id="path10" fill="#fff" stroke="none" d="M 50.209999 56.090004 L 97.75 56.090004 L 97.75 68.739998 L 50.209999 68.739998 Z"/><path id="path11" fill="#fff" stroke="none" d="M 142.089996 56.090004 L 189.630005 56.090004 L 189.630005 68.739998 L 142.089996 68.739998 Z"/></svg>