<?xml version="1.0" encoding="utf-8"?>
<!-- Generator: Adobe Illustrator 15.0.1, SVG Export Plug-In  -->
<!DOCTYPE svg PUBLIC "-//W3C//DTD SVG 1.1//EN" "http://www.w3.org/Graphics/SVG/1.1/DTD/svg11.dtd" [
	<!ENTITY ns_flows "http://ns.adobe.com/Flows/1.0/">
]>
<svg version="1.1"
	 xmlns="http://www.w3.org/2000/svg" xmlns:xlink="http://www.w3.org/1999/xlink" xmlns:a="http://ns.adobe.com/AdobeSVGViewerExtensions/3.0/"
	 x="0px" y="0px" width="270px" height="270px" viewBox="-16.2 -42 270 270"
	 overflow="visible" enable-background="new -16.2 -42 270 270" xml:space="preserve">
<defs>
</defs>
<path d="M193.8,103l9.5-17.2c-7.2-7.5-19.1-19.2-39.1-37.7c-46.6-43.2-49.4-43-50.5-43c-1.2,0-3.4-0.8-49.8,42.9
	C11.7,97.1,13.5,98.8,13.5,98.8s-1.6,2.7,50.9,51.2c47.1,43.6,48,42.4,49.3,42.4c1.3,0,4.1,0.7,50.6-43
	c25.1-23.6,37.6-36.2,43.7-42.9L193.8,103"/>
<path d="M193.8,103l0.5,0.2l9.6-17.5l-0.3-0.3c-7.2-7.5-19.1-19.2-39.1-37.7c-23.1-21.4-35.4-32.1-42.1-37.5
	c-3.4-2.7-5.3-4.1-6.5-4.8c-0.6-0.4-1-0.5-1.4-0.7c-0.3-0.1-0.6-0.1-0.8-0.1h0l-0.1,0c-0.2,0-0.5,0-0.8,0.1
	c-1.2,0.4-3.7,1.9-10.8,7.9c-7.1,6-18.8,16.5-38.4,35c-24.4,23-37,35.6-43.5,42.5c-3.2,3.4-5,5.5-5.9,6.7c-0.5,0.6-0.7,1-0.9,1.3
	c-0.2,0.3-0.2,0.4-0.2,0.6c0,0.1,0,0.3,0.2,0.4l0.4-0.4L13,98.5c-0.1,0.1-0.1,0.2-0.1,0.3c0,0.2,0.1,0.4,0.2,0.7
	c0.5,1,2.4,3.7,9.6,11.2c7.2,7.5,19.6,19.7,41.3,39.7c22.3,20.6,34.3,31.2,40.8,36.7c3.3,2.7,5.2,4.2,6.4,4.9c0.6,0.4,1,0.6,1.4,0.7
	c0.3,0.1,0.6,0.2,0.8,0.2c0.1,0,0.2,0,0.2,0l0.1,0c0.2,0,0.5,0,0.9-0.1c1.3-0.4,3.9-1.9,11.2-7.9c7.2-6,19.1-16.6,38.8-35.1
	c25.1-23.6,37.6-36.2,43.7-43l0.6-0.6l-15-3.6L193.8,103l0.5,0.2L193.8,103l-0.1,0.5l14.1,3.4l0.1-0.5l-0.4-0.3
	c-6.1,6.7-18.5,19.3-43.7,42.9c-22.5,21.1-34.7,31.9-41.5,37.3c-3.4,2.7-5.4,4.1-6.7,4.8c-0.6,0.4-1,0.5-1.3,0.6
	c-0.3,0.1-0.4,0.1-0.6,0.1l-0.1,0l-0.2,0c-0.1,0-0.2,0-0.5-0.1c-0.4-0.2-1.3-0.6-2.8-1.8c-4.7-3.5-16.2-13.3-45.4-40.4
	C40,126.7,27.2,114,20.7,107c-3.3-3.5-5-5.6-5.9-6.8c-0.4-0.6-0.7-1-0.8-1.2C14,98.9,14,98.8,14,98.8l0,0l-0.2,0H14l0,0l-0.2,0H14
	h-0.5l0.4,0.2c0.1-0.1,0.1-0.2,0.1-0.2h-0.5l0.4,0.2l0.2-0.4l-0.3-0.3l-0.3,0.3H14c0-0.1,0-0.2-0.2-0.3l-0.3,0.3H14h-0.3l0.3,0.1
	l0-0.1h-0.3l0.3,0.1l-0.1,0l0.1,0l0,0l-0.1,0l0.1,0l0-0.1c0.1-0.3,0.6-1,1.9-2.5c3.9-4.6,15.3-16.7,48.3-47.7
	c22.4-21.1,34.5-31.8,41.1-37.2c3.3-2.7,5.3-4.1,6.5-4.8c0.6-0.4,1-0.5,1.2-0.6c0.3-0.1,0.4-0.1,0.5-0.1l0.1,0h0
	c0.1,0,0.2,0,0.5,0.1c0.4,0.1,1.2,0.5,2.8,1.6c4.8,3.3,16.5,13.1,46.9,41.1c20,18.5,31.9,30.2,39.1,37.7l0.4-0.4l-0.5-0.2l-9.8,17.8
	l0.7,0.2L193.8,103"/>
<path fill="#FFE500" d="M193.8,103l8.1-14.8c-6.1-6.8-18.6-19.4-43.9-42.8c-46.3-42.8-48.8-43-50.5-43c-1.7,0-3.3-0.9-49.8,42.9
	C5.6,94.4,7.4,96,7.4,96s-1.6,2.7,50.9,51.2c46.8,43.3,47.9,42.4,49.3,42.4c1.4,0,4.1,0.7,50.6-43c23.9-22.5,36.3-35,42.7-41.9
	L193.8,103"/>
<path d="M193.8,103l0.7,0.4l8.1-14.8l-0.1-0.9c-6.1-6.8-18.6-19.4-43.9-42.8c-23.2-21.4-35.4-32.2-42-37.6c-3.3-2.7-5.3-4.1-6.5-4.8
	c-0.6-0.4-1.1-0.6-1.5-0.7c-0.4-0.1-0.7-0.1-1-0.1l-0.2,0c-0.2,0-0.6,0-1,0.2c-0.7,0.2-1.7,0.7-3.4,1.9c-5,3.6-16.5,13.4-45.8,41
	c-24.4,23-37,35.6-43.5,42.5c-3.3,3.4-5,5.5-5.9,6.7c-0.5,0.6-0.7,1-0.9,1.3c-0.2,0.3-0.2,0.5-0.3,0.8c0,0.2,0.1,0.4,0.2,0.6L7.4,96
	l-0.7-0.4c-0.1,0.1-0.1,0.3-0.1,0.4c0,0.3,0.1,0.5,0.2,0.8c0.3,0.6,0.9,1.5,2.3,3.2c4.3,5.2,16.1,17.7,48.5,47.7
	c22.5,20.8,34.4,31.4,40.9,36.8c3.3,2.7,5.2,4.1,6.4,4.9c0.6,0.4,1.1,0.6,1.4,0.7c0.4,0.1,0.7,0.2,0.9,0.2l0.2,0l0.1,0
	c0.2,0,0.6,0,1-0.1c0.7-0.2,1.7-0.7,3.4-1.9c5.2-3.5,17-13.4,46.6-41.1c23.9-22.5,36.3-35,42.8-41.9l-0.4-1.3l-7.1-1.7L193.8,103
	l0.7,0.4L193.8,103l-0.2,0.7l7.1,1.7l0.2-0.7l-0.6-0.5c-6.4,6.9-18.8,19.4-42.7,41.9c-22.5,21.1-34.7,31.9-41.5,37.3
	c-3.4,2.7-5.4,4.1-6.6,4.8c-0.6,0.3-1,0.5-1.3,0.6c-0.3,0.1-0.4,0.1-0.5,0.1l-0.1,0l-0.2,0c-0.1,0-0.2,0-0.4-0.1
	c-0.4-0.1-1.2-0.5-2.7-1.7c-4.6-3.4-16-13.1-45.5-40.4c-24.7-22.9-37.4-35.5-43.9-42.5c-3.3-3.5-5-5.6-5.8-6.8
	c-0.4-0.6-0.7-1-0.8-1.2C8.2,96,8.1,96,8.1,96l0,0l-0.4,0.1h0.4l0-0.1l-0.4,0.1h0.4H7.4L8,96.4c0.1-0.1,0.1-0.3,0.1-0.4H7.4L8,96.4
	l-0.1-1L7.4,96h0.7c0-0.1,0-0.4-0.2-0.5L7.4,96h0.7H7.6l0.5,0.1l0-0.1H7.6l0.5,0.1l-0.2,0l0.2,0.1l0,0l-0.2,0l0.2,0.1
	c0,0,0.3-0.6,1.4-2C13,90,23.9,78.2,58.2,45.9c22.3-21,34.3-31.7,40.9-37.2c3.3-2.7,5.2-4.1,6.4-4.8c0.6-0.3,1-0.5,1.2-0.6
	c0.3-0.1,0.4-0.1,0.6-0.1l0.2,0c0.2,0,0.3,0,0.6,0.1c0.4,0.1,1.2,0.5,2.8,1.6c4.7,3.3,16.3,13,46.6,41.1
	c25.3,23.4,37.7,36,43.8,42.7l0.6-0.5l-0.7-0.4l-8.1,14.8l0.5,1.1L193.8,103"/>
<g>
	<defs>
		<path id="SVGID_1_" d="M107.5,3.9L107.5,3.9L107.5,3.9l0.2,0l-0.1,0C107.9,3.9,107.3,3.9,107.5,3.9 M201.3,90.3
			c-5.5-6.2-17.3-18.8-44.3-43.8c-40.9-38-48.4-42.1-49.5-42.6c-1.1,0.4-8.5,4.5-48.8,42.5C38.2,65.7,23.6,80,15.3,88.8
			c-3.6,3.8-6.1,6.8-6.4,7.1c0.8,1.4,6.5,9.6,50.4,50.2c18.8,17.4,32.6,29.7,41.2,36.7c1.2,1,6.9,5.3,6.9,5.3l0.2,0
			c0.6-0.1,7.1-2.5,49.7-42.6c26.2-24.7,38-37.3,43.8-43.6L201.3,90.3 M8.6,96.8c0.2-0.3,0.2-0.5,0.2-0.7l0,0L8.6,96.8"/>
	</defs>
	<clipPath id="SVGID_2_">
		<use xlink:href="#SVGID_1_"  overflow="visible"/>
	</clipPath>
	<path clip-path="url(#SVGID_2_)" fill="#FFE500" d="M90.7,170.7l-5-6l-5.2-5.8l-3.5-3.6c-18.5-18.5-56.1-56.3-56.5-56.6
		c-0.1-0.1-0.2-0.2-0.2-0.3v0c0-0.1,0.1-0.2,0.1-0.3c1.6-1.5,38.4-37,58.4-54L109.8,19l-0.9-19l-47,41.9C44.7,57,11.9,93,11.6,93.3
		c-0.8,0.7-1.3,1.8-1.3,3c0,1.2,0.5,2.2,1.4,3l0.2,0.2c5.7,5.4,34.6,33,49.3,47.1c5,4.8,6.8,6.3,8.6,7.8l8,6.6L90.7,170.7z"/>
	<path clip-path="url(#SVGID_2_)" fill="#FFE500" d="M85.5,164.7L85.5,164.7c-0.1-0.1-0.7-0.8-5.2-5.8l-3.5-3.6l-48.6-48.7l-7.9-7.9
		l-0.2-0.4l0.2-0.4c3.9-3.8,39-37.5,58.4-54c0,0,30.2-24.4,30.8-24.9c0-0.1-0.9-18-0.9-18.6C108.2,0.8,62,42,62,42
		C44.8,57.1,12,93.1,11.7,93.4c-0.8,0.7-1.2,1.8-1.2,2.9c0,1.1,0.5,2.1,1.3,2.9l0,0l0.2,0.2c5.7,5.4,34.6,33,49.3,47.1
		c4.9,4.7,6.7,6.2,8.5,7.7l8.1,6.6c0,0,8.9,6.7,11.9,9C88.6,168.4,85.5,164.7,85.5,164.7z"/>
	<path clip-path="url(#SVGID_2_)" fill="#FFE600" d="M85.4,164.8L85.4,164.8c0,0-0.5-0.5-5.2-5.8l-3.5-3.6l-48.6-48.7l-7.9-7.9
		L20,98.3v0c0-0.1,0.2-0.5,0.2-0.5c3.9-3.8,38.9-37.4,58.5-54c0,0,30.2-24.4,30.7-24.9c0-0.1-0.9-17.6-0.9-18.2
		c-0.5,0.4-46.5,41.5-46.5,41.5c-17.2,15.1-50,51.1-50.3,51.4c-0.8,0.7-1.2,1.7-1.2,2.8c0,1.1,0.4,2.1,1.3,2.8l0.2,0.2
		c10.3,9.8,35.8,34.1,49.3,47.1c4.9,4.7,6.7,6.2,8.5,7.7l8.1,6.6c0,0,9.4,7.1,10.9,8.2C87.7,167.6,85.4,164.8,85.4,164.8z"/>
	<path clip-path="url(#SVGID_2_)" fill="#FFE600" d="M85.3,164.9l0.1,0.1c-0.2-0.1-0.5-0.6-5.3-5.9l-3.5-3.6l-48.6-48.7l-7.9-7.9
		l-0.3-0.5v0c0-0.1,0.2-0.6,0.2-0.6c0.4-0.4,37.8-36.5,58.5-54.1c0,0,30.1-24.3,30.7-24.8c0-0.1-0.9-17.2-0.9-17.8
		C108,1.4,62.2,42.2,62.2,42.2c-16.8,14.8-49,50-50.3,51.3c-0.8,0.7-1.2,1.7-1.2,2.7c0,1,0.4,2,1.2,2.7l0.2,0.2
		c10.3,9.8,35.7,34,49.3,47.1c4.9,4.7,6.7,6.2,8.5,7.6l8.1,6.6c0,0,8.3,6.3,9.9,7.5C86.9,166.8,85.3,164.9,85.3,164.9z"/>
	<path clip-path="url(#SVGID_2_)" fill="#FFE600" d="M85.2,165l0.2,0.1c-0.2-0.1-0.4-0.4-5-5.6l-0.3-0.3l-3.5-3.6L28,106.9l-7.9-7.9
		l-0.3-0.5l0,0c0-0.1,0.2-0.8,0.2-0.8c0.3-0.3,37.9-36.6,58.6-54.1c0,0,30.1-24.3,30.6-24.8c0-0.1-0.9-16.8-0.9-17.4
		c-0.5,0.4-46,41-46,41c-16.9,14.9-49,50-50.3,51.3c-0.7,0.7-1.1,1.6-1.1,2.6c0,1,0.4,1.9,1.2,2.6l0.2,0.2
		c10.3,9.8,35.7,34,49.3,47.1c4.9,4.7,6.7,6.2,8.5,7.6l8.1,6.6c0,0,6.3,4.8,8.8,6.7C86.2,166.2,85.2,165,85.2,165z"/>
	<path clip-path="url(#SVGID_2_)" fill="#FFE707" d="M85.1,165.1L85.1,165.1c-0.4-0.4-1.3-1.5-4.9-5.5l-0.3-0.3l-3.5-3.6L27.9,107
		L20,99l-0.3-0.5l0,0c0-0.1,0.2-0.9,0.2-0.9c0.2-0.3,37.8-36.5,58.6-54.2c0,0,30-24.2,30.6-24.7c0-0.1-0.9-16.4-0.9-17.1
		c-0.5,0.4-45.8,40.8-45.8,40.8c-17,14.9-49,50-50.3,51.3c-0.7,0.6-1.1,1.5-1.1,2.5c0,0.9,0.4,1.8,1.1,2.5l0.2,0.2
		c10.3,9.8,35.6,33.9,49.3,47.1c4.9,4.7,6.7,6.2,8.5,7.6l8.1,6.6c0,0,6.5,5,7.8,5.9C85.5,165.6,85.1,165.1,85.1,165.1z"/>
	<path clip-path="url(#SVGID_2_)" fill="#FFE71C" d="M85,165.2L85,165.2l-5.2-5.8l-3.4-3.6l-48.6-48.7l-7.9-7.9l-0.3-0.6l0,0
		c0-0.2,0.2-1,0.2-1c0.2-0.2,37.4-36.2,58.6-54.3c0,0,30-24.2,30.5-24.7c0-0.1-0.9-16-0.9-16.7c-0.5,0.4-45.5,40.6-45.5,40.6
		C46,57,15.5,90.6,12.2,93.9c-0.7,0.6-1.1,1.5-1.1,2.4c0,0.9,0.4,1.7,1.1,2.4l0.2,0.2c10.2,9.7,35.5,33.8,49.3,47.1
		c4.9,4.7,6.7,6.2,8.4,7.6l8.1,6.6c0,0,5.4,4.1,6.8,5.1L85,165.2z"/>
	<path clip-path="url(#SVGID_2_)" fill="#FFE829" d="M79.7,159.5l-3.4-3.6l-48.6-48.7l-7.9-7.9l-0.4-0.6l0,0c0-0.2,0.1-1.1,0.1-1.1
		c0.1-0.2,37.5-36.4,58.7-54.4c0,0,29.9-24.2,30.5-24.6c0-0.1-0.9-15.7-0.9-16.3c-0.5,0.4-45.3,40.4-45.3,40.4
		c-16.5,14.5-47,48-50.3,51.3c-0.6,0.6-1,1.4-1,2.3c0,0.9,0.4,1.7,1,2.3l0.2,0.2c10.2,9.7,35.4,33.7,49.3,47.1
		c4.9,4.7,6.7,6.2,8.4,7.6c0,0,0,0,8.1,6.7c0,0,3.8,2.8,5.7,4.3C82.9,163.1,79.7,159.5,79.7,159.5z"/>
	<path clip-path="url(#SVGID_2_)" fill="#FFE833" d="M79.6,159.6l-3.4-3.6l-48.6-48.7l-7.9-7.9l-0.4-0.6l0,0c0-0.2,0.1-1.2,0.1-1.2
		c0.1-0.2,37-36,58.7-54.4c0,0,29.9-24.1,30.4-24.6c0-0.1-0.9-15.3-0.9-15.9c-0.5,0.4-45,40.1-45,40.1c-16.4,14.4-47,48-50.3,51.3
		c-0.6,0.6-1,1.4-1,2.2c0,0.8,0.3,1.6,1,2.2l0.2,0.2c10.1,9.7,35.3,33.6,49.3,47.1c4.9,4.7,6.7,6.2,8.4,7.6l-0.2,0
		c0.2,0,1,0.7,7.5,6l0.8,0.7c0,0,3.7,2.8,4.5,3.4C81.8,162,79.6,159.6,79.6,159.6z"/>
	<path clip-path="url(#SVGID_2_)" fill="#FFE93C" d="M79.5,159.6L79.5,159.6l-3.4-3.6l-48.6-48.7l-7.9-7.9l-0.4-0.7l0,0
		c0-0.2,0.1-1.2,0.1-1.2C19.3,97.4,56.3,61.4,78,43c0,0,29.8-24.1,30.4-24.6c0-0.1-0.9-14.9-0.9-15.5c-0.5,0.4-44.8,39.9-44.8,39.9
		c-16.4,14.4-47,48-50.3,51.3c-0.6,0.5-0.9,1.3-0.9,2.1c0,0.8,0.3,1.5,0.9,2.1l0.2,0.2c10.2,9.7,35.3,33.6,49.3,47.1
		c4.8,4.7,6.7,6.2,8.4,7.6l0,0l0,0c0.5,0.3,1.9,1.4,7.3,5.9l0.8,0.7c0,0,2,1.5,3.3,2.5C81.4,161.8,79.5,159.6,79.5,159.6z"/>
	<path clip-path="url(#SVGID_2_)" fill="#FFE944" d="M79.4,159.7L79.4,159.7l-3.4-3.5l-48.6-48.7l-7.9-7.9L19,98.9l0-0.1l0.1-1.3
		c0.1-0.1,36.6-35.8,58.8-54.6c0,0,29.8-24,30.3-24.5c0-0.1-0.9-14.5-0.9-15.1C106.9,3.7,62.9,43,62.9,43
		C46.5,57.4,15.9,91,12.6,94.3c-0.6,0.5-0.9,1.2-0.9,2c0,0.7,0.3,1.4,0.9,2l0.2,0.2C23,108,48.1,132,62.1,145.5
		c4.8,4.7,6.6,6.2,8.4,7.6c0.5,0.4,8.1,6.6,8.1,6.6c0,0,1.1,0.8,2,1.5C80,160.5,79.4,159.7,79.4,159.7z"/>
	<path clip-path="url(#SVGID_2_)" fill="#FFEA4B" d="M79.2,159.8L79.2,159.8l-3.4-3.5l-48.6-48.7l-7.9-7.9l-0.4-0.7l0-0.2l0.1-1.3
		c0.2-0.5,37.7-36.8,58.9-54.7c0,0,29.7-24,30.3-24.5c0-0.1-0.9-14.1-0.9-14.7C106.8,4,63,43.1,63,43.1C46.6,57.5,16,91.1,12.7,94.4
		c-0.5,0.5-0.8,1.2-0.8,1.9c0,0.7,0.3,1.4,0.8,1.8l0.2,0.2c10.2,9.7,35.3,33.6,49.3,47.1c4.8,4.7,6.6,6.1,8.4,7.6l8.2,6.7
		c0,0,0.2,0.1,0.8,0.6C79.5,160.1,79.2,159.8,79.2,159.8z"/>
	<path clip-path="url(#SVGID_2_)" fill="#FFEA52" d="M75.7,156.4l-48.6-48.7l-7.9-7.9L18.8,99l-0.1-0.3l0.1-1.3
		C19,97,56.5,60.6,77.7,42.6c0,0,29.7-23.9,30.2-24.4c0-0.1-0.9-13.7-0.9-14.3c-0.5,0.4-44,39.3-44,39.3
		c-16.4,14.4-46.9,48-50.2,51.3c-0.5,0.5-0.8,1.1-0.8,1.7c0,0.7,0.3,1.3,0.8,1.7l0.2,0.2c10.1,9.7,35.3,33.6,49.3,47.1
		c4.8,4.7,6.6,6.1,8.4,7.6c0,0,6.3,5.2,7.4,6.1C77.1,157.9,75.7,156.4,75.7,156.4z"/>
	<path clip-path="url(#SVGID_2_)" fill="#FFEB58" d="M75.6,156.5L27,107.8l-7.9-7.9l-0.5-0.8l-0.1-0.3c0-0.1,0.1-1.3,0.1-1.3
		c0.2-0.5,37.7-36.9,59-54.9c0,0,29.6-23.9,30.2-24.4c0-0.1-0.9-13.3-0.9-13.9c-0.5,0.4-43.8,39.1-43.8,39.1
		C46.9,57.6,16.3,91.3,13,94.6c-0.5,0.4-0.8,1-0.8,1.6c0,0.6,0.3,1.2,0.7,1.6l0.2,0.2c10.1,9.6,35.2,33.5,49.3,47.1
		c4.8,4.7,6.6,6.1,8.3,7.5c0,0,5.2,4.2,5.6,4.5C76,156.9,75.6,156.5,75.6,156.5z"/>
	<path clip-path="url(#SVGID_2_)" fill="#FFEB5E" d="M26.9,107.9L19,100l-0.5-0.8l-0.1-0.2l0-0.2l0.1-1.3c0.2-0.5,37.7-36.9,59-55
		c0,0,29.6-23.9,30.1-24.3c0-0.1-0.9-12.9-0.9-13.5C106.3,5,63.3,43.4,63.3,43.4C47,57.7,16.4,91.4,13.1,94.7
		c-0.5,0.4-0.7,1-0.7,1.5c0,0.6,0.2,1.1,0.7,1.5l0.2,0.2c10.1,9.6,35.1,33.4,49.3,47.1c4.8,4.7,6.6,6.1,8.3,7.5c0,0,1.9,1.5,3.5,2.8
		C70.2,151.2,54.3,135.3,26.9,107.9z"/>
	<path clip-path="url(#SVGID_2_)" fill="#FFEC64" d="M18.9,100.1l-0.5-0.8L18.3,99l0-0.2l0.1-1.4c0.2-0.5,37.7-37,59.1-55.1
		c0,0,29.5-23.8,30.1-24.3c0-0.1-0.9-12.5-0.9-13.1c-0.5,0.4-43.3,38.6-43.3,38.6c-16.3,14.3-46.9,48-50.2,51.3
		c-0.4,0.4-0.7,0.9-0.7,1.4c0,0.5,0.2,1,0.6,1.4l0.2,0.2c10.1,9.6,35.2,33.5,49.3,47.1c4.8,4.7,6.6,6.1,8.3,7.5c0,0,0.6,0.5,1.2,1
		C68.6,149.9,18.9,100.1,18.9,100.1z"/>
	<path clip-path="url(#SVGID_2_)" fill="#FFEC64" d="M18.8,100.2L18.8,100.2l-0.6-0.8L18.1,99c0-0.1,0-0.2,0-0.2l0.1-1.4
		c0.2-0.5,37.7-37,59.2-55.2c0,0,29.5-23.8,30-24.2c0-0.1-0.9-12.1-0.9-12.7c-0.5,0.4-43,38.4-43,38.4c-16.2,14.2-46.9,48-50.2,51.3
		c-0.4,0.4-0.6,0.9-0.6,1.3c0,0.5,0.2,1,0.6,1.3l0.2,0.2c10.1,9.6,35.2,33.5,49.3,47.1c3.9,3.8,5.8,5.4,7.3,6.7
		C66.2,147.7,18.8,100.2,18.8,100.2z"/>
	<path clip-path="url(#SVGID_2_)" fill="#FFEC6A" d="M18.7,100.3L18.7,100.3l-0.6-0.9L18,99.1l0-0.2l0.1-1.4
		c0.2-0.5,37.7-37.1,59.2-55.3c0,0,29.4-23.7,30-24.2c0-0.1-0.9-11.7-0.9-12.3C105.9,6,63.6,43.7,63.6,43.7
		C47.4,58,16.7,91.7,13.4,95c-0.4,0.3-0.6,0.8-0.6,1.2c0,0.4,0.2,0.9,0.6,1.2l0.2,0.2c7.9,7.5,34.6,33,49.3,47.1
		c1.6,1.6,2.9,2.8,3.9,3.7C61.3,142.9,18.7,100.3,18.7,100.3z"/>
	<path clip-path="url(#SVGID_2_)" fill="#FFEC6A" d="M18.6,100.4L18.6,100.4L18,99.5l-0.1-0.4l-0.1-0.3l0.1-1.4
		c0.1-0.5,37.7-37.2,59.3-55.4c0,0,29.4-23.7,29.9-24.2c0-0.1-0.9-11.3-0.9-11.9c-0.5,0.4-42.5,38-42.5,38
		c-16.2,14.2-46.9,48-50.2,51.3c-0.3,0.3-0.5,0.7-0.5,1.1c0,0.4,0.2,0.8,0.5,1.1l0.2,0.2c7,6.7,29.2,27.8,44.3,42.3
		C46.2,128,18.6,100.4,18.6,100.4z"/>
	<path clip-path="url(#SVGID_2_)" fill="#FFED75" d="M18.5,100.5L18.5,100.5l-0.6-0.9l-0.2-0.4l-0.1-0.3l0.1-1.5
		c0.1-0.5,37.7-37.2,59.3-55.5c0,0,29.3-23.6,29.9-24.1c0-0.1-0.9-10.9-0.9-11.5C105.6,6.6,63.8,44,63.8,44
		C47.6,58.2,16.9,91.9,13.6,95.2c-0.3,0.3-0.5,0.7-0.5,1c0,0.4,0.2,0.7,0.5,1c0,0,22.8,21.8,35.7,34.1
		C38.8,120.8,18.5,100.5,18.5,100.5z"/>
	<path clip-path="url(#SVGID_2_)" fill="#FFEE7B" d="M18.4,100.6l-0.1-0.1l-0.5-0.8l-0.2-0.4l-0.1-0.4l0.1-1.5
		c0.1-0.5,37.7-37.3,59.4-55.6c0,0,29.3-23.6,29.8-24.1c0-0.1-0.9-10.6-0.9-11.1c-0.5,0.4-42,37.5-42,37.5
		C47.7,58.3,17,92,13.7,95.3c-0.3,0.3-0.5,0.6-0.5,0.9c0,0.3,0.1,0.6,0.4,0.9c0,0,17.9,17.1,27,25.7
		C31.7,113.9,18.4,100.6,18.4,100.6z"/>
	<path clip-path="url(#SVGID_2_)" fill="#FFEE80" d="M18.3,100.7l-0.1-0.1l-0.5-0.8l-0.2-0.4l-0.1-0.4l0.1-1.5
		c0.1-0.5,37.7-37.4,59.4-55.7c0,0,29.2-23.6,29.8-24c0-0.1-0.9-10.2-0.9-10.8C105.3,7.3,64,44.2,64,44.2
		C47.9,58.3,17.1,92.1,13.8,95.4c-0.3,0.2-0.4,0.5-0.4,0.8c0,0.3,0.1,0.6,0.4,0.8c0,0,11.8,11.2,18.2,17.4
		C25.5,107.9,18.3,100.7,18.3,100.7z"/>
	<path clip-path="url(#SVGID_2_)" fill="#FFEF85" d="M18.2,100.8l-0.1-0.2l0,0c-0.1-0.1-0.2-0.3-0.6-0.9l-0.2-0.5l-0.1-0.4l0.1-1.5
		c0.1-0.5,37.8-37.4,59.5-55.8c0,0,29.2-23.5,29.7-24c0-0.1-0.9-9.8-0.9-10.4c-0.5,0.4-41.6,37.1-41.6,37.1
		C48,58.4,17.2,92.2,13.9,95.5c-0.2,0.2-0.4,0.5-0.4,0.7c0,0.2,0.1,0.5,0.3,0.7c0,0,6.8,6.4,9.5,9C20.9,103.5,18.2,100.8,18.2,100.8
		z"/>
	<path clip-path="url(#SVGID_2_)" fill="#FFF08A" d="M18.1,100.9L18.1,100.9L18.1,100.9z M17.4,99.9l-0.2-0.5l-0.1-0.5v0l0.1-1.6
		c0.1-0.5,37.8-37.5,59.5-55.9c0,0,29.1-23.5,29.7-23.9c0-0.1-0.9-9.4-0.9-10C105,7.9,64.2,44.4,64.2,44.4
		C48.1,58.5,17.3,92.3,14,95.6c-0.2,0.2-0.3,0.4-0.3,0.6c0,0.2,0.1,0.4,0.3,0.6c0,0,2.5,2.4,3.8,3.6C17.6,100.2,17.4,99.9,17.4,99.9
		z"/>
	<path clip-path="url(#SVGID_2_)" fill="#FFF08F" d="M17.3,100L17.3,100L17.3,100z M17,99.4L16.9,99v0l0.1-1.6
		c0.1-0.5,37.8-37.6,59.6-56c0,0,29.1-23.4,29.6-23.9c0-0.1-0.9-9-0.9-9.6c-0.5,0.4-41.1,36.7-41.1,36.7
		c-16,14.1-46.8,47.9-50.2,51.2c-0.2,0.2-0.3,0.4-0.3,0.5c0,0.2,0.1,0.3,0.2,0.5c0,0,2.2,2.1,3.1,2.9L17,99.4z"/>
	<path clip-path="url(#SVGID_2_)" fill="#FFF194" d="M16.8,99c0-0.1,0.1-1.7,0.1-1.7c0.1-0.5,37.8-37.6,59.6-56.1
		c0,0,29-23.4,29.6-23.9c0-0.1-0.9-8.6-0.9-9.2c-0.5,0.4-40.8,36.4-40.8,36.4c-16,14-46.8,47.9-50.2,51.2L14,96.2l0.2,0.4
		c0,0,2.3,2.2,2.7,2.5L16.8,99z"/>
	<path clip-path="url(#SVGID_2_)" fill="#FFF199" d="M16.7,97.3c0.1-0.5,37.8-37.7,59.7-56.2c0.3-0.2,28.5-23,29.5-23.8
		c0-0.1-0.1-2-0.1-2s-0.8-6.2-0.8-6.8c-0.5,0.4-40.6,36.2-40.6,36.2c-12.4,10.9-34,34-44.4,45.1l-5.8,6.1l0,0c0,0-0.1,0.2-0.2,0.3
		l0.1,0.3c0,0,1.7,1.6,2.4,2.3C16.7,98.4,16.7,97.3,16.7,97.3z"/>
	<path clip-path="url(#SVGID_2_)" fill="#FFF29E" d="M16.6,97.3L16.6,97.3c0.1-0.5,37.8-37.8,59.7-56.3c0,0,28.9-23.3,29.5-23.8
		c0-0.1-0.1-2-0.1-2s-0.7-5.1-0.8-6.4c-0.5,0.4-40.3,36-40.3,36c-12.5,10.9-34,34-44.3,45.1L14.4,96l0-0.1c0,0-0.1,0.2-0.2,0.4
		l0.1,0.2l-0.1,0c0.2,0.1,0.7,0.6,2.2,2C16.5,98.1,16.6,97.3,16.6,97.3z"/>
	<path clip-path="url(#SVGID_2_)" fill="#FFF2A3" d="M16.4,97.3L16.4,97.3c0.1-0.5,37.9-37.9,59.8-56.5c0,0,28.8-23.2,29.4-23.7
		c0-0.1-0.1-1.9-0.1-1.9s-0.7-4.9-0.8-6.1c-0.5,0.4-40.1,35.8-40.1,35.8c-12.4,10.9-34,34-44.3,45c0,0,0,0-5.8,6.2l0,0l0,0.1
		l0.1,0.2l-0.1-0.1c0.2,0.1,0.7,0.6,2,1.8C16.4,97.8,16.4,97.3,16.4,97.3z"/>
	<path clip-path="url(#SVGID_2_)" fill="#FFF3A8" d="M16.3,97.3L16.3,97.3c0.1-0.5,37.9-38,59.8-56.6c0,0,0,0,16-13.2
		c0,0,13.3-10.4,13.4-10.5c0-0.1-0.8-6.4-0.8-7.6C104.2,9.8,64.8,45,64.8,45C52.3,56,30.8,79,20.5,90l0,0c-0.1,0.1-0.3,0.4-0.9,0.9
		l-5,5.3l0.1,0.1c0.2,0.2,0.7,0.6,1.6,1.5C16.3,97.6,16.3,97.3,16.3,97.3z"/>
	<path clip-path="url(#SVGID_2_)" fill="#FFF4AC" d="M16.1,97.3l0-0.1c0.1-0.4,37.9-37.9,59.9-56.5l0,0c0.1-0.1,0.2-0.2,0.5-0.4
		c0,0,28.7-23.2,28.8-23.3c0-0.1-0.8-6.7-0.8-7.3c-0.5,0.4-39.6,35.4-39.6,35.4c-12.4,10.9-34,33.9-44.3,45L19.8,91
		c-0.1,0.1-4.5,4.7-4.9,5.2c0.1,0.2,0.9,0.9,1.3,1.3L16.1,97.3z"/>
	<path clip-path="url(#SVGID_2_)" fill="#FFF4B1" d="M65,45.3C52.5,56.2,31,79.2,20.7,90.2l-0.8,0.8c0,0-4.3,4.6-4.8,5.1
		c0.1,0.1,0.7,0.7,1,0.9c0.1-0.5,38-38,59.9-56.6l0.5-0.4c0,0,28.1-22.7,28.8-23.2c0-0.1-0.2-1.7-0.2-1.7c-0.2-1.8-0.5-4.4-0.6-5.2
		C104,10.4,65,45.3,65,45.3z"/>
	<path clip-path="url(#SVGID_2_)" fill="#FFF5B5" d="M65.1,45.4c-12.4,10.9-33.9,33.9-44.3,45c0,0-5,5.3-5.6,5.9
		c0.1,0.1,0.6,0.6,0.8,0.7c2.5-2.7,38.6-38.5,59.8-56.5l0.5-0.4c0,0,27.9-22.5,28.7-23.2c0-0.1-0.2-1.6-0.2-1.6s-0.4-3.9-0.5-4.9
		C103.9,10.7,65.1,45.4,65.1,45.4z"/>
	<path clip-path="url(#SVGID_2_)" fill="#FFF5B9" d="M65.1,45.5C52.7,56.4,31.2,79.4,20.9,90.4c0,0-5.3,5.6-5.5,5.8
		c0.1,0.1,0.4,0.4,0.6,0.5c3.1-3.3,38.8-38.7,59.7-56.4l0.5-0.4c0,0,28.5-23,28.7-23.1c0-0.1-0.2-1.5-0.2-1.5c0,0-0.4-3.6-0.5-4.6
		C103.7,11,65.1,45.5,65.1,45.5z"/>
	<path clip-path="url(#SVGID_2_)" fill="#FFF6BE" d="M65.2,45.6C52.8,56.5,31.4,79.5,21,90.5c0,0-5.2,5.5-5.4,5.7
		c0.1,0.1,0.3,0.3,0.4,0.3c3.5-3.8,38.7-38.6,59.6-56.4l0.5-0.4c0,0,0,0,16-12.9c0,0,12.5-10.1,12.6-10.2c0-0.1-0.2-1.5-0.2-1.5
		c0,0-0.4-3.9-0.5-4.4C103.6,11.3,65.2,45.6,65.2,45.6z"/>
	<path clip-path="url(#SVGID_2_)" fill="#FFF6C2" d="M65.3,45.7C52.9,56.6,31.5,79.6,21.1,90.6c0,0,0,0-2.8,2.9c0,0-2.3,2.5-2.5,2.7
		l0.1,0.1c3.9-4.2,38.8-38.6,59.5-56.3l0.5-0.4l0,0.1c0.1-0.1,0.6-0.5,2.8-2.3c0,0,25.7-20.7,25.8-20.8c0-0.1-0.2-1.4-0.2-1.4
		c0,0-0.4-3.7-0.5-4.1C103.5,11.6,65.3,45.7,65.3,45.7z"/>
	<path clip-path="url(#SVGID_2_)" fill="#FFF7C6" d="M65.4,45.8C53,56.7,31.6,79.7,21.2,90.7v0c0,0.1-0.2,0.2-0.5,0.6
		c0,0-0.9,1-1.6,1.7c10-10,38.4-37.8,56.3-53l0.5-0.4l0,0.1c0.1-0.2,0.4-0.5,2.8-2.4c0,0,25.6-20.7,25.7-20.8c0-0.1-0.1-1.3-0.1-1.3
		c0,0-0.4-3.5-0.4-3.8C103.4,11.9,65.4,45.8,65.4,45.8z"/>
	<path clip-path="url(#SVGID_2_)" fill="#FFE500" d="M124.3,22.5l5,6l5.2,5.8L138,38c18.5,18.5,56.1,56.3,56.5,56.6
		c0.1,0.1,0.2,0.2,0.2,0.3v0c0,0.1-0.1,0.2-0.1,0.3c-1.6,1.5-38.4,37-58.4,54l-30.8,24.9l0.9,19l47-41.9
		c17.2-15.1,50-51.1,50.3-51.4c0.8-0.7,1.3-1.8,1.3-3c0-1.2-0.5-2.2-1.3-3l-0.2-0.2c-5.7-5.4-34.6-33-49.3-47.1
		c-5-4.8-6.8-6.3-8.6-7.8l-8-6.6L124.3,22.5"/>
	<path clip-path="url(#SVGID_2_)" fill="#FFE500" d="M200.9,101.7c-2.6,2.8-7.4,7.9-13.1,14c4.5-4.6,7.9-8.2,10.4-10.9
		c0.4-0.5,0.8-0.9,1.2-1.3c0.5-0.6,1-1.1,1.5-1.6L200.9,101.7 M126.2,24.3c1.1,1.3,3.4,4.1,3.4,4.1l-0.1-0.1
		c0.1,0.1,0.6,0.6,5.3,5.9l3.5,3.6l48.6,48.7l7.9,7.9l0.2,0.4v0c0,0.1-0.2,0.5-0.2,0.5c-4,3.8-38.9,37.4-58.5,54
		c0,0-30.2,24.4-30.7,24.9c0,0.1,0.4,7.6,0.6,13c0.1,0.1,0.2,0.2,0.3,0.3c-0.3-5.1-0.7-13-0.7-13.1c0.6-0.5,30.6-24.8,30.6-24.8
		c20.6-17.5,58.2-53.8,58.5-54.1c0,0,0.2-0.6,0.2-0.8l0,0l-0.3-0.5l-7.9-7.9l-48.6-48.7L135,34l-0.3-0.3c-4.6-5.2-4.9-5.5-5-5.6
		l0.2,0.1c0,0-1-1.2-1.7-2.1c2.5,1.9,8.8,6.7,8.8,6.7l8.1,6.6c1.8,1.4,3.6,2.9,8.5,7.6c12.9,12.5,36.7,35.1,47.8,45.7l0-0.4
		c-11.2-10.7-34.8-33.1-47.6-45.5c-4.9-4.7-6.7-6.2-8.5-7.7l-8.1-6.6C137,32.5,127.6,25.4,126.2,24.3"/>
	<path clip-path="url(#SVGID_2_)" fill="#FFE400" d="M200.9,101.2c-3.9,4.2-12.8,13.8-22.5,23.9c3.6-3.5,6.7-6.6,9.4-9.4
		c5.7-6.1,10.5-11.2,13.1-14L200.9,101.2 M128,26.1c0.8,0.9,1.7,2.1,1.7,2.1l-0.2-0.1c0.2,0.1,0.4,0.4,5,5.6L135,34l3.5,3.6
		L187,86.3l7.9,7.9l0.3,0.5l0,0c0,0.1-0.2,0.8-0.2,0.8c-0.3,0.3-37.9,36.6-58.5,54.1c0,0-30.1,24.3-30.6,24.8c0,0.1,0.4,8,0.7,13.1
		c0.1,0.1,0.2,0.2,0.3,0.3c-0.3-4.9-0.7-13.2-0.7-13.3c0.6-0.5,30.5-24.7,30.5-24.7c21.2-18,58.5-54,58.6-54.3c0,0,0.2-0.8,0.2-1
		l0,0l-0.3-0.6l-7.9-7.9l-48.6-48.7l-3.4-3.6L130,28l0,0l-0.1-0.1c1.4,1,6.8,5.1,6.8,5.1l8.1,6.6c1.8,1.4,3.6,2.9,8.4,7.6
		c13.3,12.8,37,35.5,48,45.9l0-0.4c-11.1-10.6-34.8-33.2-47.8-45.7c-4.9-4.7-6.7-6.2-8.5-7.6l-8.1-6.6C136.9,32.8,130.6,28,128,26.1
		"/>
	<path clip-path="url(#SVGID_2_)" fill="#FFE400" d="M142.7,159c-5.4,4.8-12.2,10.9-18.4,16.4C129,171.3,135,166,142.7,159
		 M200.9,100.8c-4.7,5-17.5,18.9-30,31.6c2.7-2.6,5.2-5,7.5-7.3c9.7-10.1,18.6-19.7,22.5-23.9L200.9,100.8 M129.9,27.9L130,28l0,0
		l5.2,5.8l3.4,3.6l48.6,48.7l7.9,7.9l0.3,0.6l0,0c0,0.2-0.2,1-0.2,1c-0.2,0.2-37.4,36.2-58.6,54.3c0,0-30,24.2-30.5,24.7
		c0,0.1,0.5,8.4,0.7,13.3c0.1,0.1,0.3,0.2,0.3,0.3c-0.2-4.5-0.7-13.3-0.7-13.4c0.6-0.5,30.4-24.6,30.4-24.6
		c21.7-18.4,58.6-54.3,58.7-54.4c0,0,0.1-0.9,0.1-1.2l0,0l-0.4-0.6l-7.9-7.9l-48.6-48.7l-3.4-3.6c0,0-2.2-2.4-3.4-3.8
		c0.8,0.6,4.4,3.4,4.5,3.4l0.8,0.7c6.5,5.3,7.3,6,7.5,6l-0.2,0c1.8,1.4,3.6,2.9,8.4,7.6c13.5,13.1,37.4,35.8,48.1,46l0-0.4
		c-10.9-10.4-34.7-33-48-45.9c-4.9-4.7-6.7-6.2-8.4-7.6l-8.1-6.6C136.7,33,131.3,28.9,129.9,27.9"/>
	<path clip-path="url(#SVGID_2_)" fill="#FFE100" d="M153.8,148.7c-0.6,0.5-1.2,1-1.7,1.5c0,0-21.6,19.3-34.8,31
		c1.9-1.6,4.2-3.5,7-5.8c6.2-5.6,13.1-11.7,18.4-16.4C146.1,155.9,149.8,152.4,153.8,148.7 M201,100.3c-5.7,6-24.9,27-39.9,41.5
		c3.6-3.4,6.9-6.6,9.9-9.5c12.5-12.7,25.3-26.6,30-31.6L201,100.3 M132,29.9c1.2,1.3,3.4,3.8,3.4,3.8l3.4,3.6l48.6,48.7l7.9,7.9
		l0.4,0.6l0,0c0,0.2-0.1,1.2-0.1,1.2c-0.1,0.2-37,36-58.7,54.4c0,0-29.9,24.1-30.4,24.6c0,0.1,0.5,8.9,0.7,13.4
		c0.1,0.1,0.1,0.1,0.1,0.1l0.2,0c0,0,0,0,0,0c-0.2-4-0.8-13.2-0.8-13.3c0.6-0.5,30.3-24.5,30.3-24.5c22.2-18.9,58.8-54.5,58.8-54.6
		l0.1-1.3l0-0.1l-0.4-0.7l-7.9-7.9L139.1,37l-3.4-3.6l0,0c0,0-0.7-0.8-1.4-1.5c0.9,0.7,2,1.5,2,1.5c0,0,7.7,6.3,8.1,6.6
		c1.7,1.4,3.6,2.9,8.4,7.6c13.6,13.1,37.6,36,48.3,46.2l0-0.4c-10.8-10.3-34.6-33-48.1-46c-4.9-4.7-6.7-6.2-8.4-7.6l0.2,0
		c-0.2,0-1-0.7-7.5-6l-0.8-0.7C136.5,33.2,132.8,30.5,132,29.9"/>
	<path clip-path="url(#SVGID_2_)" fill="#FFDE00" d="M201,99.9c-6.6,6.9-33.9,36.8-49.1,50.1c0,0-26.4,23.5-38.3,34.2
		c1.1-0.8,2.3-1.8,3.7-2.9c13.1-11.7,34.8-31,34.8-31c0.6-0.5,1.1-1,1.7-1.5c1.1-1,2.2-2.1,3.3-3.1c1.3-1.3,2.6-2.5,3.9-3.7
		c15-14.6,34.2-35.5,39.9-41.5L201,99.9 M134.3,31.9c0.7,0.7,1.4,1.5,1.4,1.5l0,0l3.4,3.6l48.6,48.7l7.9,7.9l0.4,0.7l0,0.1l-0.1,1.3
		c-0.1,0.1-36.6,35.8-58.8,54.6c0,0-29.8,24-30.3,24.5c0,0.1,0.6,9.3,0.8,13.3c0.1,0,0.2,0,0.3-0.1c-0.2-3.5-0.8-13-0.8-13.1
		c0.6-0.5,30.2-24.4,30.2-24.4c21.2-18,58.8-54.4,58.9-54.8l0.1-1.3l-0.1-0.3l-0.5-0.7l-7.9-7.9l-48.6-48.7c0,0-1.4-1.5-2.4-2.5
		c1.1,0.9,7.4,6.1,7.4,6.1c1.7,1.4,3.5,2.9,8.4,7.6c13.7,13.2,37.9,36.3,48.5,46.4l0-0.4c-10.7-10.2-34.8-33.1-48.3-46.2
		c-4.8-4.7-6.6-6.2-8.4-7.6c-0.5-0.4-8.1-6.6-8.1-6.6C136.3,33.5,135.2,32.6,134.3,31.9"/>
	<path clip-path="url(#SVGID_2_)" fill="#FFDA00" d="M201,99.4c-6.1,6.5-34,36.9-49.3,50.3c0,0-30.8,27.5-40.6,36.2
		c0.7-0.5,1.5-1.1,2.5-1.8c11.9-10.6,38.3-34.2,38.3-34.2c15.2-13.3,42.5-43.2,49.1-50.1L201,99.4 M136.8,34.3c1,1,2.4,2.5,2.4,2.5
		l48.6,48.7l7.9,7.9l0.5,0.7l0.1,0.3l-0.1,1.3c-0.2,0.5-37.7,36.8-58.9,54.8c0,0-29.7,23.9-30.2,24.4c0,0.1,0.6,9.6,0.8,13.1
		c0.1,0,0.2-0.1,0.3-0.2c-0.2-2.8-0.8-12.7-0.8-12.8c0.6-0.5,30.1-24.3,30.1-24.3c21.3-18.1,58.9-54.6,59-55l0.1-1.3l0-0.2l-0.1-0.2
		l-0.5-0.8l-7.9-7.9c-27.4-27.5-43.3-43.4-47.4-47.5c1.6,1.3,3.5,2.8,3.5,2.8c1.7,1.4,3.5,2.9,8.3,7.5
		c13.9,13.4,38.3,36.7,48.7,46.6l0-0.4c-10.6-10.1-34.8-33.2-48.5-46.4c-4.8-4.7-6.6-6.1-8.4-7.6C144.3,40.3,138,35.2,136.8,34.3"/>
	<path clip-path="url(#SVGID_2_)" fill="#FFD800" d="M201,99c-5.6,5.9-34.1,37-49.5,50.6c0,0-36,32.2-42.2,37.6
		c0.5-0.3,1.1-0.7,1.8-1.2c9.8-8.7,40.6-36.2,40.6-36.2c15.3-13.4,43.2-43.9,49.3-50.3L201,99 M140.6,37.7
		c4.2,4.2,20,20.1,47.4,47.5l7.9,7.9l0.5,0.8l0.1,0.2l0,0.2l-0.1,1.3c-0.2,0.5-37.7,36.9-59,55c0,0-29.6,23.9-30.1,24.3
		c0,0.1,0.7,9.9,0.8,12.8c0.1,0,0.2-0.1,0.3-0.2c-0.1-1.8-0.9-12.4-0.9-12.5c0.6-0.5,30-24.2,30-24.2c21.4-18.2,59-54.8,59.1-55.2
		l0.1-1.4c0,0,0-0.1,0-0.2l-0.1-0.3l-0.5-0.8l0,0c0,0-47.4-47.5-51.2-51.4c1.5,1.2,3.4,2.9,7.3,6.7c13.9,13.4,38.6,36.9,48.9,46.8
		l0-0.4c-10.4-9.9-34.8-33.1-48.7-46.6c-4.8-4.7-6.6-6.1-8.3-7.5C144.1,40.6,142.2,39,140.6,37.7"/>
	<path clip-path="url(#SVGID_2_)" fill="#FFD700" d="M144.9,41.6c3.8,3.8,51.2,51.4,51.2,51.4l0,0l0.5,0.8l0.1,0.3
		c0,0.1,0,0.2,0,0.2l-0.1,1.4c-0.2,0.5-37.7,37-59.1,55.2c0,0-29.5,23.8-30,24.2c0,0.1,0.8,10.6,0.9,12.5c0.2-0.1,0.5-0.3,0.9-0.5
		c6.1-5.5,42.2-37.6,42.2-37.6C166.9,136,195.4,104.9,201,99l0-0.4c-5.1,5.3-34.1,37.1-49.7,50.8c0,0-42,37.5-42.5,38
		c0-0.6-0.9-11.8-0.9-11.9c0.6-0.5,29.9-24.2,29.9-24.2c21.5-18.3,59.1-55,59.2-55.4l0.1-1.4l-0.1-0.3l-0.1-0.4l-0.5-0.8l-0.1-0.1
		c0,0-27.6-27.7-39.3-39.4c15,14.4,36.9,35.2,44.1,42.1l0-0.4c-10.4-9.9-35-33.3-48.9-46.8C148.3,44.5,146.4,42.9,144.9,41.6"/>
	<path clip-path="url(#SVGID_2_)" fill="#FED500" d="M157.1,53.4c11.7,11.8,39.3,39.4,39.3,39.4l0.1,0.1l0.5,0.8l0.1,0.4l0.1,0.3
		l-0.1,1.4c-0.1,0.5-37.7,37.2-59.2,55.4c0,0-29.4,23.7-29.9,24.2c0,0.1,0.9,11.3,0.9,11.9c0.5-0.4,42.5-38,42.5-38
		c15.6-13.7,44.7-45.5,49.7-50.8l0-0.4c-4.3,4.4-34.1,37.1-49.9,51c0,0-41.6,37.1-42,37.5c0-0.6-0.9-11-0.9-11.1
		c0.6-0.5,29.8-24.1,29.8-24.1c21.6-18.3,59.2-55.2,59.3-55.6l0.1-1.5l-0.1-0.4l-0.2-0.4l-0.5-0.8l-0.1-0.1c0,0-13.3-13.3-22.2-22.3
		c8.5,8.1,24.8,23.7,26.8,25.6l0-0.4C193.9,88.6,172,67.8,157.1,53.4"/>
	<path clip-path="url(#SVGID_2_)" fill="#FED400" d="M174.4,70.3c8.9,8.9,22.2,22.3,22.2,22.3l0.1,0.1l0.5,0.8l0.2,0.4l0.1,0.4
		l-0.1,1.5c-0.1,0.5-37.7,37.3-59.3,55.6c0,0-29.3,23.6-29.8,24.1c0,0.1,0.9,10.6,0.9,11.1c0.5-0.4,42-37.5,42-37.5
		c15.8-13.9,45.6-46.6,49.9-51l0-0.4c-3.4,3.4-34.1,37.1-50.2,51.2c0,0-41.1,36.7-41.5,37.1c0-0.6-0.9-10.2-0.9-10.4
		c0.6-0.5,29.7-24,29.7-24c21.7-18.4,59.3-55.4,59.4-55.8l0.1-1.5l-0.1-0.4l-0.2-0.5c-0.4-0.5-0.5-0.8-0.6-0.9l0,0l-0.1-0.2
		c0,0-2.7-2.7-5.1-5.1c2.6,2.5,9.1,8.7,9.4,9l0-0.4C199.1,94,182.8,78.4,174.4,70.3"/>
	<path clip-path="url(#SVGID_2_)" fill="#FDD200" d="M197.7,93.2L197.7,93.2L197.7,93.2 M191.7,87.2c2.4,2.4,5.1,5.1,5.1,5.1
		l0.1,0.2l0,0c0.1,0.1,0.2,0.3,0.6,0.9l0.2,0.5l0.1,0.4l-0.1,1.5c-0.1,0.5-37.8,37.4-59.4,55.8c0,0-29.2,23.5-29.7,24
		c0,0.1,0.9,9.8,0.9,10.4c0.5-0.4,41.5-37.1,41.5-37.1c16.1-14.1,46.7-47.8,50.2-51.2l0-0.5c0,0.1-0.1,0.2-0.2,0.3
		c-3.3,3.3-34.2,37.2-50.2,51.2c0,0-40.6,36.2-41.1,36.7c0-0.6-0.9-9.4-0.9-9.6c0.6-0.5,29.6-23.9,29.6-23.9
		c21.8-18.5,59.4-55.6,59.6-56l0.1-1.6v0l-0.1-0.5l-0.1-0.2c0.9,0.9,3.1,2.9,3.1,2.9c0.1,0.1,0.1,0.2,0.2,0.2l0-0.5
		C200.8,96,194.3,89.8,191.7,87.2"/>
	<path clip-path="url(#SVGID_2_)" fill="#FDD000" d="M109.9,184.7c0-0.6-0.7-6.8-0.7-6.8s-0.2-1.9-0.2-2c1-0.8,29.2-23.6,29.5-23.8
		c21.8-18.5,59.5-55.8,59.7-56.2c0,0,0.1-1.1,0.1-1.4c0.7,0.6,2.4,2.3,2.4,2.3l0,0l0.1,0.3c-0.1,0.1-0.2,0.3-0.2,0.3l0,0l-5.8,6.1
		c-10.4,11.1-31.9,34.1-44.3,45.1C150.5,148.5,110.4,184.3,109.9,184.7 M197.9,93.6l0.1,0.2l0.1,0.5v0l-0.1,1.6
		c-0.1,0.5-37.8,37.6-59.6,56c0,0-29.1,23.4-29.6,23.9c0,0.1,0.9,9,0.9,9.6c0.5-0.4,41.1-36.7,41.1-36.7
		c16-14.1,46.8-47.9,50.2-51.2c0.1-0.1,0.2-0.2,0.2-0.3l0-0.5c0-0.1-0.1-0.2-0.2-0.2C200.9,96.5,198.8,94.4,197.9,93.6 M197.7,93.2
		L197.7,93.2L197.7,93.2"/>
	<path clip-path="url(#SVGID_2_)" fill="#FCCE00" d="M110.2,184.1c0-1.3-0.6-6-0.6-6s-0.2-1.9-0.2-2c0.6-0.5,29.4-23.7,29.4-23.7
		c21.9-18.6,59.6-56,59.7-56.4l0-0.1c0,0,0-0.5,0-0.8c1.3,1.2,1.8,1.7,2,1.8l-0.1-0.1l0.1,0.2l0,0.1l0,0c-5.6,5.9-5.8,6.2-5.8,6.2
		c0,0,0,0,0,0c-10.3,11.1-31.9,34.1-44.3,45C150.3,148.2,110.7,183.7,110.2,184.1 M198.3,94.4c0,0.3-0.1,1.4-0.1,1.4
		c-0.1,0.5-37.8,37.7-59.7,56.2c-0.3,0.2-28.5,23-29.5,23.8c0,0.1,0.2,2,0.2,2s0.6,6.2,0.7,6.8c0.5-0.4,40.6-36.2,40.6-36.2
		c12.4-10.9,34-34,44.3-45.1l5.8-6.1l0,0c0,0,0.1-0.2,0.2-0.3l-0.1-0.3l0,0C200.7,96.7,199,95,198.3,94.4"/>
	<path clip-path="url(#SVGID_2_)" fill="#FBCD00" d="M139,152.5c21.9-18.6,59.7-56.1,59.8-56.5l0-0.1l0-0.2c0.4,0.4,1.2,1.1,1.3,1.3
		c-0.5,0.5-4.9,5.2-4.9,5.2l-0.8,0.8c-10.3,11.1-31.8,34.1-44.3,45c0,0-39.2,35-39.6,35.4c0-0.6-0.8-7.1-0.8-7.3
		c0.1-0.1,28.8-23.3,28.8-23.3C138.8,152.7,138.9,152.6,139,152.5L139,152.5 M198.6,95.1c0,0.3,0,0.8,0,0.8l0,0.1
		c-0.1,0.4-37.9,37.8-59.7,56.4c0,0-28.8,23.2-29.4,23.7c0,0.1,0.2,2,0.2,2s0.6,4.7,0.6,6c0.5-0.4,40.1-35.8,40.1-35.8
		c12.4-10.9,34-33.9,44.3-45c0,0,0,0,0,0c0,0,0.2-0.3,5.8-6.2l0,0l0-0.1l-0.1-0.2l0.1,0.1C200.3,96.7,199.9,96.3,198.6,95.1"/>
	<path clip-path="url(#SVGID_2_)" fill="#FBCB00" d="M198.8,95.7l0,0.2l0,0.1c-0.1,0.4-37.9,37.9-59.8,56.5l0,0
		c-0.1,0.1-0.2,0.2-0.5,0.4c0,0-28.7,23.2-28.8,23.3c0,0.1,0.8,6.7,0.8,7.3c0.5-0.4,39.6-35.4,39.6-35.4
		c12.4-10.9,33.9-33.9,44.3-45l0.8-0.8c0.1-0.1,4.5-4.7,4.9-5.2C200,96.8,199.2,96.1,198.8,95.7"/>
</g>
<rect x="15.3" y="66.6" transform="matrix(0.706 0.7082 -0.7082 0.706 58.1477 6.1217)" fill="#FFE500" width="12.7" height="13.1"/>
<rect x="186.4" y="65.1" fill="#FFE500" width="2.6" height="10.1"/>
<polygon fill-rule="evenodd" clip-rule="evenodd" points="119.8,62.7 119.8,121.7 102.4,121.7 102.3,73.4 109.8,71.6 107.6,62.8 "/>
<path fill-rule="evenodd" clip-rule="evenodd" d="M49.5,75.5c7.2-0.3,17.7-0.8,24.3,0c8.4,1,19.4,3.2,20.3,15
	c0.4,5.6-1.5,10.4-9.4,16.7c0,0,8,8.7,15.3,17c0,0-9.1,8.6-14.1,12.7l-17.9-29.7c4-3.1,8.8-7.6,8.8-12.9c0-5.1-4.8-7.5-6.5-7.5h-3.7
	v49.6H49.5V75.5z"/>
<polygon fill-rule="evenodd" clip-rule="evenodd" points="140.1,136.1 140.1,89.5 123.3,89.5 123.3,74.5 174.5,74.5 174.5,89.5 
	157.8,89.5 157.8,136.1 "/>
<path d="M42.9,60.1L42.8,75l-18.1,0l0,13.8l16.7-0.1v14.2l-16.4,0l0,23.9H7V60.9C25,60.1,42.9,60.1,42.9,60.1z"/>
<polygon fill-rule="evenodd" clip-rule="evenodd" points="229,97.7 240.6,98.1 245.2,68.2 230.8,67 "/>
<polygon points="223.8,104.3 232.9,96.9 242.5,108.9 233.4,116.2 226.1,107.1 "/>
<polygon fill-rule="evenodd" clip-rule="evenodd" points="115.8,118.3 95.4,118.3 95.3,67.3 102.5,65.5 100.2,56.3 115.8,56.3 "/>
<path fill-rule="evenodd" clip-rule="evenodd" d="M133.1,86.1c0,0-15.2,0.4-15.1,0.4l-1.7,0.2V68.1h54.3v18.6l-1.8,0l-14.9-0.6v46.6
	h-20.7V86.1z"/>
<path fill-rule="evenodd" clip-rule="evenodd" d="M169.5,53.3l0.6,0c5.9,0,23-0.3,46.2,1l2.6,0.2l-24.4,45.4
	c5,0.1,11.5,0.2,20.1-0.4l1.9-0.1l0,18.4c0,0-47.4,0-48.2,0h-3.6L189,71.2c-5.2,0-11.4,0-18.9,0.4l-0.7,0.1V53.3z"/>
<path d="M38.9,55l0,16.7l-1.7,0l-16.5,0l0,10.2l16.7-0.1l0,17.4h-1.7l-14.7,0l0,23.9H0V54.6l1.4-0.1c18-0.8,37-0.7,37-0.7"/>
<path fill-rule="evenodd" clip-rule="evenodd" d="M62.6,100.4c3.7-3.1,7.3-6.8,7.3-11.1c0-4.1-3.9-6-5.1-6h-2.2V100.4z M68.5,69.1
	c8.2,1,20.6,3.3,21.6,16.4c0.4,5.9-1.6,10.9-8.7,17l15.3,17.9l-0.9,0.9c-4.2,4.3-8.9,8.4-13.9,12.4l-1.3,1.1l-17.9-29.7v27.8H42.5
	V69.2l1.4-0.1C51.2,68.8,61.8,68.4,68.5,69.1z"/>
<polygon fill-rule="evenodd" clip-rule="evenodd" points="224.2,62.6 241.8,64 236.7,96.9 222.2,96.4 "/>
<path d="M239.1,106.5l-9.3-11.5l-11.5,9.3h-1.8v1.8c-8.2,0.4-14.4,0.2-18.9,0.1l24.5-45.5c-23.2-1.3-40-1-52.2-0.7v15.3
	c15.1-0.8,21.6-0.7,27.2-0.8l-24.2,46.6h1.1c0.8,0,46.7,0,46.7,0l0-14l7,8.7L239.1,106.5z"/>
<polygon fill-rule="evenodd" clip-rule="evenodd" fill="#E2001A" points="114.3,57.8 114.3,116.7 96.9,116.7 96.8,68.5 104.3,66.7 
	102.1,57.8 "/>
<path fill-rule="evenodd" clip-rule="evenodd" fill="#E2001A" d="M44,70.6c7.2-0.3,17.7-0.8,24.3,0c8.4,1,19.4,3.2,20.3,15
	c0.4,5.6-1.5,10.4-9.4,16.7l15.4,18c-4.1,4.2-8.8,8.3-13.7,12.3l-18.3-30.4c4-3.1,8.8-7.6,8.8-12.9c0-5.1-4.8-7.5-6.5-7.5h-3.7v49.6
	H44V70.6z"/>
<polygon fill-rule="evenodd" clip-rule="evenodd" fill="#E2001A" points="134.6,131.2 134.6,84.6 117.8,85 117.8,69.6 169,69.6 
	169,85 152.3,84.6 152.3,131.2 "/>
<path fill-rule="evenodd" clip-rule="evenodd" fill="#E2001A" d="M170.7,70.1V54.8c5.9,0,22.7-0.3,45.9,1l-24.5,45.5
	c5.3,0.1,12.8,0.3,23-0.4l0,15.3c0,0-45.9,0-46.7,0l-1.1,0l24.2-46.6C185.9,69.7,179.4,69.7,170.7,70.1z"/>
<polygon fill="#E2001A" points="37.4,64.5 37.4,70 19.2,70 19.2,83.8 35.9,83.7 35.9,97.9 19.4,97.9 19.4,121.8 1.5,121.8 1.5,56 
	37.4,55.3 "/>
<polygon fill-rule="evenodd" clip-rule="evenodd" fill="#E2001A" points="223.8,94.9 235.4,95.3 240,65.4 225.6,64.2 "/>
<rect x="222.8" y="99.6" transform="matrix(-0.777 0.6295 -0.6295 -0.777 472.7412 43.5246)" fill="#E2001A" width="11.7" height="11.7"/>
</svg>
