<svg xmlns="http://www.w3.org/2000/svg" xmlns:xlink="http://www.w3.org/1999/xlink" xml:space="preserve" width="270" height="270" overflow="visible" viewBox="-16.2 -42 270 270"><path d="m193.8 103 9.5-17.2c-7.2-7.5-19.1-19.2-39.1-37.7-46.6-43.2-49.4-43-50.5-43-1.2 0-3.4-.8-49.8 42.9-52.2 49.1-50.4 50.8-50.4 50.8s-1.6 2.7 50.9 51.2c47.1 43.6 48 42.4 49.3 42.4 1.3 0 4.1.7 50.6-43 25.1-23.6 37.6-36.2 43.7-42.9l-14.2-3.5"/><path d="m193.8 103 .5.2 9.6-17.5-.3-.3c-7.2-7.5-19.1-19.2-39.1-37.7-23.1-21.4-35.4-32.1-42.1-37.5-3.4-2.7-5.3-4.1-6.5-4.8-.6-.4-1-.5-1.4-.7-.3-.1-.6-.1-.8-.1h-.1c-.2 0-.5 0-.8.1-1.2.4-3.7 1.9-10.8 7.9-7.1 6-18.8 16.5-38.4 35-24.4 23-37 35.6-43.5 42.5-3.2 3.4-5 5.5-5.9 6.7-.5.6-.7 1-.9 1.3-.2.3-.2.4-.2.6 0 .1 0 .3.2.4l.4-.4-.7-.2c-.1.1-.1.2-.1.3 0 .2.1.4.2.7.5 1 2.4 3.7 9.6 11.2 7.2 7.5 19.6 19.7 41.3 39.7 22.3 20.6 34.3 31.2 40.8 36.7 3.3 2.7 5.2 4.2 6.4 4.9.6.4 1 .6 1.4.7.3.1.6.2.8.2h.3c.2 0 .5 0 .9-.1 1.3-.4 3.9-1.9 11.2-7.9 7.2-6 19.1-16.6 38.8-35.1 25.1-23.6 37.6-36.2 43.7-43l.6-.6-15-3.6-.1.4.5.2-.5-.2-.1.5 14.1 3.4.1-.5-.4-.3c-6.1 6.7-18.5 19.3-43.7 42.9-22.5 21.1-34.7 31.9-41.5 37.3-3.4 2.7-5.4 4.1-6.7 4.8-.6.4-1 .5-1.3.6-.3.1-.4.1-.6.1h-.3c-.1 0-.2 0-.5-.1-.4-.2-1.3-.6-2.8-1.8-4.7-3.5-16.2-13.3-45.4-40.4C40 126.7 27.2 114 20.7 107c-3.3-3.5-5-5.6-5.9-6.8-.4-.6-.7-1-.8-1.2v-.2h-.2.2-.2.2-.5l.4.2c.1-.1.1-.2.1-.2h-.5l.4.2.2-.4-.3-.3-.3.3h.5c0-.1 0-.2-.2-.3l-.3.3h.5-.3l.3.1v-.1h-.3l.3.1h-.1.1-.1.1v-.1c.1-.3.6-1 1.9-2.5 3.9-4.6 15.3-16.7 48.3-47.7 22.4-21.1 34.5-31.8 41.1-37.2 3.3-2.7 5.3-4.1 6.5-4.8.6-.4 1-.5 1.2-.6.3-.1.4-.1.5-.1h.1c.1 0 .2 0 .5.1.4.1 1.2.5 2.8 1.6 4.8 3.3 16.5 13.1 46.9 41.1 20 18.5 31.9 30.2 39.1 37.7l.4-.4-.5-.2-9.8 17.8.7.2.1-.6"/><path fill="#FFE500" d="m193.8 103 8.1-14.8c-6.1-6.8-18.6-19.4-43.9-42.8-46.3-42.8-48.8-43-50.5-43-1.7 0-3.3-.9-49.8 42.9C5.6 94.4 7.4 96 7.4 96s-1.6 2.7 50.9 51.2c46.8 43.3 47.9 42.4 49.3 42.4 1.4 0 4.1.7 50.6-43 23.9-22.5 36.3-35 42.7-41.9l-7.1-1.7"/><path d="m193.8 103 .7.4 8.1-14.8-.1-.9c-6.1-6.8-18.6-19.4-43.9-42.8-23.2-21.4-35.4-32.2-42-37.6-3.3-2.7-5.3-4.1-6.5-4.8-.6-.4-1.1-.6-1.5-.7-.4-.1-.7-.1-1-.1h-.2c-.2 0-.6 0-1 .2-.7.2-1.7.7-3.4 1.9-5 3.6-16.5 13.4-45.8 41-24.4 23-37 35.6-43.5 42.5-3.3 3.4-5 5.5-5.9 6.7-.5.6-.7 1-.9 1.3-.2.3-.2.5-.3.8 0 .2.1.4.2.6l.6-.7-.7-.4c-.1.1-.1.3-.1.4 0 .3.1.5.2.8.3.6.9 1.5 2.3 3.2 4.3 5.2 16.1 17.7 48.5 47.7 22.5 20.8 34.4 31.4 40.9 36.8 3.3 2.7 5.2 4.1 6.4 4.9.6.4 1.1.6 1.4.7.4.1.7.2.9.2h.3c.2 0 .6 0 1-.1.7-.2 1.7-.7 3.4-1.9 5.2-3.5 17-13.4 46.6-41.1 23.9-22.5 36.3-35 42.8-41.9l-.4-1.3-7.1-1.7v.7l.7.4-.7-.4-.2.7 7.1 1.7.2-.7-.6-.5c-6.4 6.9-18.8 19.4-42.7 41.9-22.5 21.1-34.7 31.9-41.5 37.3-3.4 2.7-5.4 4.1-6.6 4.8-.6.3-1 .5-1.3.6-.3.1-.4.1-.5.1h-.3c-.1 0-.2 0-.4-.1-.4-.1-1.2-.5-2.7-1.7-4.6-3.4-16-13.1-45.5-40.4-24.7-22.9-37.4-35.5-43.9-42.5-3.3-3.5-5-5.6-5.8-6.8-.4-.6-.7-1-.8-1.2-.1-.2-.2-.2-.2-.2l-.4.1h.4V96l-.4.1h.4-.7l.6.3c.1-.1.1-.3.1-.4h-.7l.6.4-.1-1-.5.6h.7c0-.1 0-.4-.2-.5l-.5.5h.7-.5l.5.1V96h-.5l.5.1h-.2l.2.1h-.2l.2.1s.3-.6 1.4-2C13 90 23.9 78.2 58.2 45.9c22.3-21 34.3-31.7 40.9-37.2 3.3-2.7 5.2-4.1 6.4-4.8l1.2-.6c.3-.1.4-.1.6-.1h.2c.2 0 .3 0 .6.1.4.1 1.2.5 2.8 1.6 4.7 3.3 16.3 13 46.6 41.1 25.3 23.4 37.7 36 43.8 42.7l.6-.5-.7-.4-8.1 14.8.5 1.1.2-.7"/><defs><path id="a" d="M107.5 3.9h.2-.2m93.8 86.4c-5.5-6.2-17.3-18.8-44.3-43.8-40.9-38-48.4-42.1-49.5-42.6-1.1.4-8.5 4.5-48.8 42.5C38.2 65.7 23.6 80 15.3 88.8c-3.6 3.8-6.1 6.8-6.4 7.1.8 1.4 6.5 9.6 50.4 50.2 18.8 17.4 32.6 29.7 41.2 36.7 1.2 1 6.9 5.3 6.9 5.3h.2c.6-.1 7.1-2.5 49.7-42.6 26.2-24.7 38-37.3 43.8-43.6l.2-11.6M8.6 96.8c.2-.3.2-.5.2-.7l-.2.7"/></defs><clipPath id="b"><use xlink:href="#a" overflow="visible"/></clipPath><path fill="#FFE500" d="m90.7 170.7-5-6-5.2-5.8-3.5-3.6C58.5 136.8 20.9 99 20.5 98.7c-.1-.1-.2-.2-.2-.3 0-.1.1-.2.1-.3 1.6-1.5 38.4-37 58.4-54l31-25.1-.9-19-47 41.9C44.7 57 11.9 93 11.6 93.3c-.8.7-1.3 1.8-1.3 3s.5 2.2 1.4 3l.2.2c5.7 5.4 34.6 33 49.3 47.1 5 4.8 6.8 6.3 8.6 7.8l8 6.6 12.9 9.7z" clip-path="url(#b)"/><path fill="#FFE500" d="M85.5 164.7c-.1-.1-.7-.8-5.2-5.8l-3.5-3.6-48.6-48.7-7.9-7.9-.2-.4.2-.4c3.9-3.8 39-37.5 58.4-54 0 0 30.2-24.4 30.8-24.9 0-.1-.9-18-.9-18.6C108.2.8 62 42 62 42 44.8 57.1 12 93.1 11.7 93.4c-.8.7-1.2 1.8-1.2 2.9 0 1.1.5 2.1 1.3 2.9l.2.2c5.7 5.4 34.6 33 49.3 47.1 4.9 4.7 6.7 6.2 8.5 7.7l8.1 6.6s8.9 6.7 11.9 9c-1.2-1.4-4.3-5.1-4.3-5.1z" clip-path="url(#b)"/><path fill="#FFE600" d="M85.4 164.8s-.5-.5-5.2-5.8l-3.5-3.6-48.6-48.7-7.9-7.9-.2-.5c0-.1.2-.5.2-.5 3.9-3.8 38.9-37.4 58.5-54 0 0 30.2-24.4 30.7-24.9 0-.1-.9-17.6-.9-18.2C108 1.1 62 42.2 62 42.2 44.8 57.3 12 93.3 11.7 93.6c-.8.7-1.2 1.7-1.2 2.8 0 1.1.4 2.1 1.3 2.8l.2.2c10.3 9.8 35.8 34.1 49.3 47.1 4.9 4.7 6.7 6.2 8.5 7.7l8.1 6.6s9.4 7.1 10.9 8.2c-1.1-1.4-3.4-4.2-3.4-4.2z" clip-path="url(#b)"/><path fill="#FFE600" d="m85.3 164.9.1.1c-.2-.1-.5-.6-5.3-5.9l-3.5-3.6L28 106.8l-7.9-7.9-.3-.5c0-.1.2-.6.2-.6.4-.4 37.8-36.5 58.5-54.1 0 0 30.1-24.3 30.7-24.8 0-.1-.9-17.2-.9-17.8-.3.3-46.1 41.1-46.1 41.1-16.8 14.8-49 50-50.3 51.3-.8.7-1.2 1.7-1.2 2.7 0 1 .4 2 1.2 2.7l.2.2c10.3 9.8 35.7 34 49.3 47.1 4.9 4.7 6.7 6.2 8.5 7.6l8.1 6.6s8.3 6.3 9.9 7.5c-1-1.1-2.6-3-2.6-3z" clip-path="url(#b)"/><path fill="#FFE600" d="m85.2 165 .2.1c-.2-.1-.4-.4-5-5.6l-.3-.3-3.5-3.6L28 106.9 20.1 99l-.3-.5c0-.1.2-.8.2-.8.3-.3 37.9-36.6 58.6-54.1 0 0 30.1-24.3 30.6-24.8 0-.1-.9-16.8-.9-17.4-.5.4-46 41-46 41-16.9 14.9-49 50-50.3 51.3-.7.7-1.1 1.6-1.1 2.6s.4 1.9 1.2 2.6l.2.2c10.3 9.8 35.7 34 49.3 47.1 4.9 4.7 6.7 6.2 8.5 7.6l8.1 6.6s6.3 4.8 8.8 6.7c-.8-.9-1.8-2.1-1.8-2.1z" clip-path="url(#b)"/><path fill="#FFE707" d="M85.1 165.1c-.4-.4-1.3-1.5-4.9-5.5l-.3-.3-3.5-3.6L27.9 107 20 99l-.3-.5c0-.1.2-.9.2-.9.2-.3 37.8-36.5 58.6-54.2 0 0 30-24.2 30.6-24.7 0-.1-.9-16.4-.9-17.1-.5.4-45.8 40.8-45.8 40.8-17 14.9-49 50-50.3 51.3-.7.6-1.1 1.5-1.1 2.5 0 .9.4 1.8 1.1 2.5l.2.2c10.3 9.8 35.6 33.9 49.3 47.1 4.9 4.7 6.7 6.2 8.5 7.6l8.1 6.6s6.5 5 7.8 5.9c-.5-.5-.9-1-.9-1z" clip-path="url(#b)"/><path fill="#FFE71C" d="m85 165.2-5.2-5.8-3.4-3.6-48.6-48.7-7.9-7.9-.3-.6c0-.2.2-1 .2-1 .2-.2 37.4-36.2 58.6-54.3 0 0 30-24.2 30.5-24.7 0-.1-.9-16-.9-16.7-.5.4-45.5 40.6-45.5 40.6C46 57 15.5 90.6 12.2 93.9c-.7.6-1.1 1.5-1.1 2.4 0 .9.4 1.7 1.1 2.4l.2.2c10.2 9.7 35.5 33.8 49.3 47.1 4.9 4.7 6.7 6.2 8.4 7.6l8.1 6.6s5.4 4.1 6.8 5.1v-.1z" clip-path="url(#b)"/><path fill="#FFE829" d="m79.7 159.5-3.4-3.6-48.6-48.7-7.9-7.9-.4-.6c0-.2.1-1.1.1-1.1.1-.2 37.5-36.4 58.7-54.4 0 0 29.9-24.2 30.5-24.6 0-.1-.9-15.7-.9-16.3-.5.4-45.3 40.4-45.3 40.4-16.5 14.5-47 48-50.3 51.3-.6.6-1 1.4-1 2.3 0 .9.4 1.7 1 2.3l.2.2c10.2 9.7 35.4 33.7 49.3 47.1 4.9 4.7 6.7 6.2 8.4 7.6l8.1 6.7s3.8 2.8 5.7 4.3c-1-1.4-4.2-5-4.2-5z" clip-path="url(#b)"/><path fill="#FFE833" d="m79.6 159.6-3.4-3.6-48.6-48.7-7.9-7.9-.4-.6c0-.2.1-1.2.1-1.2.1-.2 37-36 58.7-54.4 0 0 29.9-24.1 30.4-24.6 0-.1-.9-15.3-.9-15.9-.5.4-45 40.1-45 40.1-16.4 14.4-47 48-50.3 51.3-.6.6-1 1.4-1 2.2 0 .8.3 1.6 1 2.2l.2.2c10.1 9.7 35.3 33.6 49.3 47.1 4.9 4.7 6.7 6.2 8.4 7.6H70c.2 0 1 .7 7.5 6l.8.7s3.7 2.8 4.5 3.4c-1-1.5-3.2-3.9-3.2-3.9z" clip-path="url(#b)"/><path fill="#FFE93C" d="m79.5 159.6-3.4-3.6-48.6-48.7-7.9-7.9-.4-.7c0-.2.1-1.2.1-1.2 0-.1 37-36.1 58.7-54.5 0 0 29.8-24.1 30.4-24.6 0-.1-.9-14.9-.9-15.5-.5.4-44.8 39.9-44.8 39.9-16.4 14.4-47 48-50.3 51.3-.6.5-.9 1.3-.9 2.1s.3 1.5.9 2.1l.2.2c10.2 9.7 35.3 33.6 49.3 47.1 4.8 4.7 6.7 6.2 8.4 7.6.5.3 1.9 1.4 7.3 5.9l.8.7s2 1.5 3.3 2.5c-.3-.5-2.2-2.7-2.2-2.7z" clip-path="url(#b)"/><path fill="#FFE944" d="m79.4 159.7-3.4-3.5-48.6-48.7-7.9-7.9-.5-.7v-.1l.1-1.3c.1-.1 36.6-35.8 58.8-54.6 0 0 29.8-24 30.3-24.5 0-.1-.9-14.5-.9-15.1-.4.4-44.4 39.7-44.4 39.7-16.4 14.4-47 48-50.3 51.3-.6.5-.9 1.2-.9 2 0 .7.3 1.4.9 2l.2.2c10.2 9.5 35.3 33.5 49.3 47 4.8 4.7 6.6 6.2 8.4 7.6.5.4 8.1 6.6 8.1 6.6s1.1.8 2 1.5c-.6-.7-1.2-1.5-1.2-1.5z" clip-path="url(#b)"/><path fill="#FFEA4B" d="m79.2 159.8-3.4-3.5-48.6-48.7-7.9-7.9-.4-.7v-.2l.1-1.3c.2-.5 37.7-36.8 58.9-54.7 0 0 29.7-24 30.3-24.5 0-.1-.9-14.1-.9-14.7C106.8 4 63 43.1 63 43.1c-16.4 14.4-47 48-50.3 51.3-.5.5-.8 1.2-.8 1.9s.3 1.4.8 1.8l.2.2c10.2 9.7 35.3 33.6 49.3 47.1 4.8 4.7 6.6 6.1 8.4 7.6l8.2 6.7s.2.1.8.6c-.1-.2-.4-.5-.4-.5z" clip-path="url(#b)"/><path fill="#FFEA52" d="m75.7 156.4-48.6-48.7-7.9-7.9-.4-.8-.1-.3.1-1.3c.2-.4 37.7-36.8 58.9-54.8 0 0 29.7-23.9 30.2-24.4 0-.1-.9-13.7-.9-14.3-.5.4-44 39.3-44 39.3-16.4 14.4-46.9 48-50.2 51.3-.5.5-.8 1.1-.8 1.7 0 .7.3 1.3.8 1.7l.2.2c10.1 9.7 35.3 33.6 49.3 47.1 4.8 4.7 6.6 6.1 8.4 7.6 0 0 6.3 5.2 7.4 6.1-1-1-2.4-2.5-2.4-2.5z" clip-path="url(#b)"/><path fill="#FFEB58" d="M75.6 156.5 27 107.8l-7.9-7.9-.5-.8-.1-.3c0-.1.1-1.3.1-1.3.2-.5 37.7-36.9 59-54.9 0 0 29.6-23.9 30.2-24.4 0-.1-.9-13.3-.9-13.9-.5.4-43.8 39.1-43.8 39.1C46.9 57.6 16.3 91.3 13 94.6c-.5.4-.8 1-.8 1.6 0 .6.3 1.2.7 1.6l.2.2c10.1 9.6 35.2 33.5 49.3 47.1 4.8 4.7 6.6 6.1 8.3 7.5 0 0 5.2 4.2 5.6 4.5-.3-.2-.7-.6-.7-.6z" clip-path="url(#b)"/><path fill="#FFEB5E" d="M26.9 107.9 19 100l-.5-.8-.1-.2v-.2l.1-1.3c.2-.5 37.7-36.9 59-55 0 0 29.6-23.9 30.1-24.3 0-.1-.9-12.9-.9-13.5-.4.3-43.4 38.7-43.4 38.7-16.3 14.3-46.9 48-50.2 51.3-.5.4-.7 1-.7 1.5 0 .6.2 1.1.7 1.5l.2.2c10.1 9.6 35.1 33.4 49.3 47.1 4.8 4.7 6.6 6.1 8.3 7.5 0 0 1.9 1.5 3.5 2.8-4.2-4.1-20.1-20-47.5-47.4z" clip-path="url(#b)"/><path fill="#FFEC64" d="m18.9 100.1-.5-.8-.1-.3v-.2l.1-1.4c.2-.5 37.7-37 59.1-55.1 0 0 29.5-23.8 30.1-24.3 0-.1-.9-12.5-.9-13.1-.5.4-43.3 38.6-43.3 38.6-16.3 14.3-46.9 48-50.2 51.3-.4.4-.7.9-.7 1.4 0 .5.2 1 .6 1.4l.2.2c10.1 9.6 35.2 33.5 49.3 47.1 4.8 4.7 6.6 6.1 8.3 7.5l1.2 1c-3.5-3.5-53.2-53.3-53.2-53.3z" clip-path="url(#b)"/><path fill="#FFEC64" d="m18.8 100.2-.6-.8-.1-.4v-.2l.1-1.4c.2-.5 37.7-37 59.2-55.2 0 0 29.5-23.8 30-24.2 0-.1-.9-12.1-.9-12.7-.5.4-43 38.4-43 38.4-16.2 14.2-46.9 48-50.2 51.3-.4.4-.6.9-.6 1.3 0 .5.2 1 .6 1.3l.2.2c10.1 9.6 35.2 33.5 49.3 47.1 3.9 3.8 5.8 5.4 7.3 6.7-3.9-3.9-51.3-51.4-51.3-51.4z" clip-path="url(#b)"/><path fill="#FFEC6A" d="m18.7 100.3-.6-.9-.1-.3v-.2l.1-1.4c.2-.5 37.7-37.1 59.2-55.3 0 0 29.4-23.7 30-24.2 0-.1-.9-11.7-.9-12.3-.5.3-42.8 38-42.8 38C47.4 58 16.7 91.7 13.4 95c-.4.3-.6.8-.6 1.2 0 .4.2.9.6 1.2l.2.2c7.9 7.5 34.6 33 49.3 47.1 1.6 1.6 2.9 2.8 3.9 3.7l-48.1-48.1z" clip-path="url(#b)"/><path fill="#FFEC6A" d="m18.6 100.4-.6-.9-.1-.4-.1-.3.1-1.4c.1-.5 37.7-37.2 59.3-55.4 0 0 29.4-23.7 29.9-24.2 0-.1-.9-11.3-.9-11.9-.5.4-42.5 38-42.5 38-16.2 14.2-46.9 48-50.2 51.3-.3.3-.5.7-.5 1.1 0 .4.2.8.5 1.1l.2.2c7 6.7 29.2 27.8 44.3 42.3-11.8-11.9-39.4-39.5-39.4-39.5z" clip-path="url(#b)"/><path fill="#FFED75" d="m18.5 100.5-.6-.9-.2-.4-.1-.3.1-1.5c.1-.5 37.7-37.2 59.3-55.5 0 0 29.3-23.6 29.9-24.1 0-.1-.9-10.9-.9-11.5-.4.3-42.2 37.7-42.2 37.7-16.2 14.2-46.9 47.9-50.2 51.2-.3.3-.5.7-.5 1 0 .4.2.7.5 1 0 0 22.8 21.8 35.7 34.1l-30.8-30.8z" clip-path="url(#b)"/><path fill="#FFEE7B" d="m18.4 100.6-.1-.1-.5-.8-.2-.4-.1-.4.1-1.5c.1-.5 37.7-37.3 59.4-55.6 0 0 29.3-23.6 29.8-24.1 0-.1-.9-10.6-.9-11.1-.5.4-42 37.5-42 37.5C47.7 58.3 17 92 13.7 95.3c-.3.3-.5.6-.5.9 0 .3.1.6.4.9 0 0 17.9 17.1 27 25.7l-22.2-22.2z" clip-path="url(#b)"/><path fill="#FFEE80" d="m18.3 100.7-.1-.1-.5-.8-.2-.4-.1-.4.1-1.5c.1-.5 37.7-37.4 59.4-55.7 0 0 29.2-23.6 29.8-24 0-.1-.9-10.2-.9-10.8-.5.3-41.8 37.2-41.8 37.2-16.1 14.1-46.9 47.9-50.2 51.2-.3.2-.4.5-.4.8 0 .3.1.6.4.8 0 0 11.8 11.2 18.2 17.4l-13.7-13.7z" clip-path="url(#b)"/><path fill="#FFEF85" d="m18.2 100.8-.1-.2c-.1-.1-.2-.3-.6-.9l-.2-.5-.1-.4.1-1.5c.1-.5 37.8-37.4 59.5-55.8 0 0 29.2-23.5 29.7-24 0-.1-.9-9.8-.9-10.4-.5.4-41.6 37.1-41.6 37.1-16 14.2-46.8 48-50.1 51.3-.2.2-.4.5-.4.7 0 .2.1.5.3.7 0 0 6.8 6.4 9.5 9l-5.1-5.1z" clip-path="url(#b)"/><path fill="#FFF08A" d="M18.1 100.9zm-.7-1-.2-.5-.1-.5.1-1.6c.1-.5 37.8-37.5 59.5-55.9 0 0 29.1-23.5 29.7-23.9 0-.1-.9-9.4-.9-10-.5.4-41.3 36.9-41.3 36.9C48.1 58.5 17.3 92.3 14 95.6c-.2.2-.3.4-.3.6 0 .2.1.4.3.6 0 0 2.5 2.4 3.8 3.6-.2-.2-.4-.5-.4-.5z" clip-path="url(#b)"/><path fill="#FFF08F" d="M17.3 100zm-.3-.6-.1-.4.1-1.6c.1-.5 37.8-37.6 59.6-56 0 0 29.1-23.4 29.6-23.9 0-.1-.9-9-.9-9.6-.5.4-41.1 36.7-41.1 36.7-16 14.1-46.8 47.9-50.2 51.2-.2.2-.3.4-.3.5 0 .2.1.3.2.5 0 0 2.2 2.1 3.1 2.9v-.3z" clip-path="url(#b)"/><path fill="#FFF194" d="M16.8 99c0-.1.1-1.7.1-1.7.1-.5 37.8-37.6 59.6-56.1 0 0 29-23.4 29.6-23.9 0-.1-.9-8.6-.9-9.2-.5.4-40.8 36.4-40.8 36.4-16 14-46.8 47.9-50.2 51.2l-.2.5.2.4s2.3 2.2 2.7 2.5l-.1-.1z" clip-path="url(#b)"/><path fill="#FFF199" d="M16.7 97.3c.1-.5 37.8-37.7 59.7-56.2.3-.2 28.5-23 29.5-23.8 0-.1-.1-2-.1-2s-.8-6.2-.8-6.8c-.5.4-40.6 36.2-40.6 36.2-12.4 10.9-34 34-44.4 45.1l-5.8 6.1s-.1.2-.2.3l.1.3s1.7 1.6 2.4 2.3c.2-.4.2-1.5.2-1.5z" clip-path="url(#b)"/><path fill="#FFF29E" d="M16.6 97.3c.1-.5 37.8-37.8 59.7-56.3 0 0 28.9-23.3 29.5-23.8 0-.1-.1-2-.1-2s-.7-5.1-.8-6.4c-.5.4-40.3 36-40.3 36-12.5 10.9-34 34-44.3 45.1L14.4 96v-.1l-.2.4.1.2h-.1c.2.1.7.6 2.2 2 .1-.4.2-1.2.2-1.2z" clip-path="url(#b)"/><path fill="#FFF2A3" d="M16.4 97.3c.1-.5 37.9-37.9 59.8-56.5 0 0 28.8-23.2 29.4-23.7 0-.1-.1-1.9-.1-1.9s-.7-4.9-.8-6.1c-.5.4-40.1 35.8-40.1 35.8-12.4 10.9-34 34-44.3 45l-5.8 6.2v.1l.1.2-.1-.1c.2.1.7.6 2 1.8-.1-.3-.1-.8-.1-.8z" clip-path="url(#b)"/><path fill="#FFF3A8" d="M16.3 97.3c.1-.5 37.9-38 59.8-56.6l16-13.2s13.3-10.4 13.4-10.5c0-.1-.8-6.4-.8-7.6-.5.4-39.9 35.6-39.9 35.6-12.5 11-34 34-44.3 45-.1.1-.3.4-.9.9l-5 5.3.1.1c.2.2.7.6 1.6 1.5v-.5z" clip-path="url(#b)"/><path fill="#FFF4AC" d="M16.1 97.3v-.1c.1-.4 37.9-37.9 59.9-56.5.1-.1.2-.2.5-.4 0 0 28.7-23.2 28.8-23.3 0-.1-.8-6.7-.8-7.3-.5.4-39.6 35.4-39.6 35.4-12.4 10.9-34 33.9-44.3 45l-.8.9c-.1.1-4.5 4.7-4.9 5.2.1.2.9.9 1.3 1.3l-.1-.2z" clip-path="url(#b)"/><path fill="#FFF4B1" d="M65 45.3C52.5 56.2 31 79.2 20.7 90.2l-.8.8s-4.3 4.6-4.8 5.1c.1.1.7.7 1 .9.1-.5 38-38 59.9-56.6l.5-.4s28.1-22.7 28.8-23.2c0-.1-.2-1.7-.2-1.7-.2-1.8-.5-4.4-.6-5.2-.5.5-39.5 35.4-39.5 35.4z" clip-path="url(#b)"/><path fill="#FFF5B5" d="M65.1 45.4c-12.4 10.9-33.9 33.9-44.3 45 0 0-5 5.3-5.6 5.9.1.1.6.6.8.7 2.5-2.7 38.6-38.5 59.8-56.5l.5-.4s27.9-22.5 28.7-23.2c0-.1-.2-1.6-.2-1.6s-.4-3.9-.5-4.9c-.4.3-39.2 35-39.2 35z" clip-path="url(#b)"/><path fill="#FFF5B9" d="M65.1 45.5C52.7 56.4 31.2 79.4 20.9 90.4c0 0-5.3 5.6-5.5 5.8.1.1.4.4.6.5 3.1-3.3 38.8-38.7 59.7-56.4l.5-.4s28.5-23 28.7-23.1c0-.1-.2-1.5-.2-1.5s-.4-3.6-.5-4.6c-.5.3-39.1 34.8-39.1 34.8z" clip-path="url(#b)"/><path fill="#FFF6BE" d="M65.2 45.6C52.8 56.5 31.4 79.5 21 90.5c0 0-5.2 5.5-5.4 5.7.1.1.3.3.4.3 3.5-3.8 38.7-38.6 59.6-56.4l.5-.4 16-12.9s12.5-10.1 12.6-10.2c0-.1-.2-1.5-.2-1.5s-.4-3.9-.5-4.4c-.4.6-38.8 34.9-38.8 34.9z" clip-path="url(#b)"/><path fill="#FFF6C2" d="M65.3 45.7C52.9 56.6 31.5 79.6 21.1 90.6l-2.8 2.9S16 96 15.8 96.2l.1.1c3.9-4.2 38.8-38.6 59.5-56.3l.5-.4v.1c.1-.1.6-.5 2.8-2.3 0 0 25.7-20.7 25.8-20.8 0-.1-.2-1.4-.2-1.4s-.4-3.7-.5-4.1c-.3.5-38.5 34.6-38.5 34.6z" clip-path="url(#b)"/><path fill="#FFF7C6" d="M65.4 45.8C53 56.7 31.6 79.7 21.2 90.7c0 .1-.2.2-.5.6 0 0-.9 1-1.6 1.7 10-10 38.4-37.8 56.3-53l.5-.4v.1c.1-.2.4-.5 2.8-2.4 0 0 25.6-20.7 25.7-20.8 0-.1-.1-1.3-.1-1.3s-.4-3.5-.4-3.8c-.5.5-38.5 34.4-38.5 34.4z" clip-path="url(#b)"/><path fill="#FFE500" d="m124.3 22.5 5 6 5.2 5.8L138 38c18.5 18.5 56.1 56.3 56.5 56.6.1.1.2.2.2.3 0 .1-.1.2-.1.3-1.6 1.5-38.4 37-58.4 54l-30.8 24.9.9 19 47-41.9c17.2-15.1 50-51.1 50.3-51.4.8-.7 1.3-1.8 1.3-3s-.5-2.2-1.3-3l-.2-.2c-5.7-5.4-34.6-33-49.3-47.1-5-4.8-6.8-6.3-8.6-7.8l-8-6.6-13.2-9.6" clip-path="url(#b)"/><path fill="#FFE500" d="M200.9 101.7c-2.6 2.8-7.4 7.9-13.1 14 4.5-4.6 7.9-8.2 10.4-10.9.4-.5.8-.9 1.2-1.3.5-.6 1-1.1 1.5-1.6v-.2m-74.7-77.4c1.1 1.3 3.4 4.1 3.4 4.1l-.1-.1c.1.1.6.6 5.3 5.9l3.5 3.6 48.6 48.7 7.9 7.9.2.4c0 .1-.2.5-.2.5-4 3.8-38.9 37.4-58.5 54 0 0-30.2 24.4-30.7 24.9 0 .1.4 7.6.6 13l.3.3c-.3-5.1-.7-13-.7-13.1.6-.5 30.6-24.8 30.6-24.8 20.6-17.5 58.2-53.8 58.5-54.1 0 0 .2-.6.2-.8l-.3-.5-7.9-7.9-48.6-48.7L135 34l-.3-.3c-4.6-5.2-4.9-5.5-5-5.6l.2.1s-1-1.2-1.7-2.1c2.5 1.9 8.8 6.7 8.8 6.7l8.1 6.6c1.8 1.4 3.6 2.9 8.5 7.6 12.9 12.5 36.7 35.1 47.8 45.7v-.4c-11.2-10.7-34.8-33.1-47.6-45.5-4.9-4.7-6.7-6.2-8.5-7.7l-8.1-6.6c-.2 0-9.6-7.1-11-8.2" clip-path="url(#b)"/><path fill="#FFE400" d="M200.9 101.2c-3.9 4.2-12.8 13.8-22.5 23.9 3.6-3.5 6.7-6.6 9.4-9.4 5.7-6.1 10.5-11.2 13.1-14v-.5M128 26.1c.8.9 1.7 2.1 1.7 2.1l-.2-.1c.2.1.4.4 5 5.6l.5.3 3.5 3.6L187 86.3l7.9 7.9.3.5c0 .1-.2.8-.2.8-.3.3-37.9 36.6-58.5 54.1 0 0-30.1 24.3-30.6 24.8 0 .1.4 8 .7 13.1l.3.3c-.3-4.9-.7-13.2-.7-13.3.6-.5 30.5-24.7 30.5-24.7 21.2-18 58.5-54 58.6-54.3 0 0 .2-.8.2-1l-.3-.6-7.9-7.9-48.6-48.7-3.4-3.6L130 28l-.1-.1c1.4 1 6.8 5.1 6.8 5.1l8.1 6.6c1.8 1.4 3.6 2.9 8.4 7.6 13.3 12.8 37 35.5 48 45.9v-.4c-11.1-10.6-34.8-33.2-47.8-45.7-4.9-4.7-6.7-6.2-8.5-7.6l-8.1-6.6c.1 0-6.2-4.8-8.8-6.7" clip-path="url(#b)"/><path fill="#FFE400" d="M142.7 159c-5.4 4.8-12.2 10.9-18.4 16.4 4.7-4.1 10.7-9.4 18.4-16.4m58.2-58.2c-4.7 5-17.5 18.9-30 31.6 2.7-2.6 5.2-5 7.5-7.3 9.7-10.1 18.6-19.7 22.5-23.9v-.4m-71-72.9.1.1 5.2 5.8 3.4 3.6 48.6 48.7 7.9 7.9.3.6c0 .2-.2 1-.2 1-.2.2-37.4 36.2-58.6 54.3 0 0-30 24.2-30.5 24.7 0 .1.5 8.4.7 13.3.1.1.3.2.3.3-.2-4.5-.7-13.3-.7-13.4.6-.5 30.4-24.6 30.4-24.6 21.7-18.4 58.6-54.3 58.7-54.4 0 0 .1-.9.1-1.2l-.4-.6-7.9-7.9-48.6-48.7-3.4-3.6s-2.2-2.4-3.4-3.8c.8.6 4.4 3.4 4.5 3.4l.8.7c6.5 5.3 7.3 6 7.5 6h-.2c1.8 1.4 3.6 2.9 8.4 7.6 13.5 13.1 37.4 35.8 48.1 46v-.4c-10.9-10.4-34.7-33-48-45.9-4.9-4.7-6.7-6.2-8.4-7.6l-8.1-6.6c.2-.2-5.2-4.3-6.6-5.3" clip-path="url(#b)"/><path fill="#FFE100" d="M153.8 148.7c-.6.5-1.2 1-1.7 1.5 0 0-21.6 19.3-34.8 31 1.9-1.6 4.2-3.5 7-5.8 6.2-5.6 13.1-11.7 18.4-16.4 3.4-3.1 7.1-6.6 11.1-10.3m47.2-48.4c-5.7 6-24.9 27-39.9 41.5 3.6-3.4 6.9-6.6 9.9-9.5 12.5-12.7 25.3-26.6 30-31.6v-.4m-69-70.4c1.2 1.3 3.4 3.8 3.4 3.8l3.4 3.6L187.4 86l7.9 7.9.4.6c0 .2-.1 1.2-.1 1.2-.1.2-37 36-58.7 54.4 0 0-29.9 24.1-30.4 24.6 0 .1.5 8.9.7 13.4l.1.1h.2c-.2-4-.8-13.2-.8-13.3.6-.5 30.3-24.5 30.3-24.5 22.2-18.9 58.8-54.5 58.8-54.6l.1-1.3v-.1l-.4-.7-7.9-7.9L139.1 37l-3.4-3.6s-.7-.8-1.4-1.5c.9.7 2 1.5 2 1.5s7.7 6.3 8.1 6.6c1.7 1.4 3.6 2.9 8.4 7.6 13.6 13.1 37.6 36 48.3 46.2v-.4c-10.8-10.3-34.6-33-48.1-46-4.9-4.7-6.7-6.2-8.4-7.6h.2c-.2 0-1-.7-7.5-6l-.8-.7c0 .1-3.7-2.6-4.5-3.2" clip-path="url(#b)"/><path fill="#FFDE00" d="M201 99.9c-6.6 6.9-33.9 36.8-49.1 50.1 0 0-26.4 23.5-38.3 34.2 1.1-.8 2.3-1.8 3.7-2.9 13.1-11.7 34.8-31 34.8-31 .6-.5 1.1-1 1.7-1.5 1.1-1 2.2-2.1 3.3-3.1 1.3-1.3 2.6-2.5 3.9-3.7 15-14.6 34.2-35.5 39.9-41.5l.1-.6m-66.7-68c.7.7 1.4 1.5 1.4 1.5l3.4 3.6 48.6 48.7 7.9 7.9.4.7v.1l-.1 1.3c-.1.1-36.6 35.8-58.8 54.6 0 0-29.8 24-30.3 24.5 0 .1.6 9.3.8 13.3.1 0 .2 0 .3-.1-.2-3.5-.8-13-.8-13.1.6-.5 30.2-24.4 30.2-24.4 21.2-18 58.8-54.4 58.9-54.8l.1-1.3-.1-.3-.5-.7-7.9-7.9-48.6-48.7s-1.4-1.5-2.4-2.5c1.1.9 7.4 6.1 7.4 6.1 1.7 1.4 3.5 2.9 8.4 7.6 13.7 13.2 37.9 36.3 48.5 46.4V94c-10.7-10.2-34.8-33.1-48.3-46.2-4.8-4.7-6.6-6.2-8.4-7.6-.5-.4-8.1-6.6-8.1-6.6 0-.1-1.1-1-2-1.7" clip-path="url(#b)"/><path fill="#FFDA00" d="M201 99.4c-6.1 6.5-34 36.9-49.3 50.3 0 0-30.8 27.5-40.6 36.2.7-.5 1.5-1.1 2.5-1.8 11.9-10.6 38.3-34.2 38.3-34.2 15.2-13.3 42.5-43.2 49.1-50.1v-.4m-64.2-65.1c1 1 2.4 2.5 2.4 2.5l48.6 48.7 7.9 7.9.5.7.1.3-.1 1.3c-.2.5-37.7 36.8-58.9 54.8 0 0-29.7 23.9-30.2 24.4 0 .1.6 9.6.8 13.1.1 0 .2-.1.3-.2-.2-2.8-.8-12.7-.8-12.8.6-.5 30.1-24.3 30.1-24.3 21.3-18.1 58.9-54.6 59-55l.1-1.3v-.2l-.1-.2-.5-.8-7.9-7.9c-27.4-27.5-43.3-43.4-47.4-47.5 1.6 1.3 3.5 2.8 3.5 2.8 1.7 1.4 3.5 2.9 8.3 7.5 13.9 13.4 38.3 36.7 48.7 46.6v-.4c-10.6-10.1-34.8-33.2-48.5-46.4-4.8-4.7-6.6-6.1-8.4-7.6 0 0-6.3-5.1-7.5-6" clip-path="url(#b)"/><path fill="#FFD800" d="M201 99c-5.6 5.9-34.1 37-49.5 50.6 0 0-36 32.2-42.2 37.6.5-.3 1.1-.7 1.8-1.2 9.8-8.7 40.6-36.2 40.6-36.2 15.3-13.4 43.2-43.9 49.3-50.3V99m-60.4-61.3c4.2 4.2 20 20.1 47.4 47.5l7.9 7.9.5.8.1.2v.2l-.1 1.3c-.2.5-37.7 36.9-59 55 0 0-29.6 23.9-30.1 24.3 0 .1.7 9.9.8 12.8.1 0 .2-.1.3-.2-.1-1.8-.9-12.4-.9-12.5.6-.5 30-24.2 30-24.2 21.4-18.2 59-54.8 59.1-55.2l.1-1.4V94l-.1-.3-.5-.8s-47.4-47.5-51.2-51.4c1.5 1.2 3.4 2.9 7.3 6.7 13.9 13.4 38.6 36.9 48.9 46.8v-.4c-10.4-9.9-34.8-33.1-48.7-46.6-4.8-4.7-6.6-6.1-8.3-7.5 0 .1-1.9-1.5-3.5-2.8" clip-path="url(#b)"/><path fill="gold" d="M144.9 41.6c3.8 3.8 51.2 51.4 51.2 51.4l.5.8.1.3v.2l-.1 1.4c-.2.5-37.7 37-59.1 55.2 0 0-29.5 23.8-30 24.2 0 .1.8 10.6.9 12.5.2-.1.5-.3.9-.5 6.1-5.5 42.2-37.6 42.2-37.6C166.9 136 195.4 104.9 201 99v-.4c-5.1 5.3-34.1 37.1-49.7 50.8 0 0-42 37.5-42.5 38 0-.6-.9-11.8-.9-11.9.6-.5 29.9-24.2 29.9-24.2 21.5-18.3 59.1-55 59.2-55.4l.1-1.4-.1-.3-.1-.4-.5-.8-.1-.1S168.7 65.2 157 53.5c15 14.4 36.9 35.2 44.1 42.1v-.4c-10.4-9.9-35-33.3-48.9-46.8-3.9-3.9-5.8-5.5-7.3-6.8" clip-path="url(#b)"/><path fill="#FED500" d="M157.1 53.4c11.7 11.8 39.3 39.4 39.3 39.4l.1.1.5.8.1.4.1.3-.1 1.4c-.1.5-37.7 37.2-59.2 55.4 0 0-29.4 23.7-29.9 24.2 0 .1.9 11.3.9 11.9.5-.4 42.5-38 42.5-38 15.6-13.7 44.7-45.5 49.7-50.8v-.4c-4.3 4.4-34.1 37.1-49.9 51 0 0-41.6 37.1-42 37.5 0-.6-.9-11-.9-11.1.6-.5 29.8-24.1 29.8-24.1 21.6-18.3 59.2-55.2 59.3-55.6l.1-1.5-.1-.4-.2-.4-.5-.8-.1-.1s-13.3-13.3-22.2-22.3c8.5 8.1 24.8 23.7 26.8 25.6v-.4c-7.3-6.9-29.2-27.7-44.1-42.1" clip-path="url(#b)"/><path fill="#FED400" d="M174.4 70.3c8.9 8.9 22.2 22.3 22.2 22.3l.1.1.5.8.2.4.1.4-.1 1.5c-.1.5-37.7 37.3-59.3 55.6 0 0-29.3 23.6-29.8 24.1 0 .1.9 10.6.9 11.1.5-.4 42-37.5 42-37.5 15.8-13.9 45.6-46.6 49.9-51v-.4c-3.4 3.4-34.1 37.1-50.2 51.2 0 0-41.1 36.7-41.5 37.1 0-.6-.9-10.2-.9-10.4.6-.5 29.7-24 29.7-24 21.7-18.4 59.3-55.4 59.4-55.8l.1-1.5-.1-.4-.2-.5c-.4-.5-.5-.8-.6-.9l-.1-.2-5.1-5.1c2.6 2.5 9.1 8.7 9.4 9v-.4c-1.9-1.8-18.2-17.4-26.6-25.5" clip-path="url(#b)"/><path fill="#FDD200" d="m191.7 87.2 5.1 5.1.1.2c.1.1.2.3.6.9l.2.5.1.4-.1 1.5c-.1.5-37.8 37.4-59.4 55.8 0 0-29.2 23.5-29.7 24 0 .1.9 9.8.9 10.4.5-.4 41.5-37.1 41.5-37.1 16.1-14.1 46.7-47.8 50.2-51.2v-.5c0 .1-.1.2-.2.3-3.3 3.3-34.2 37.2-50.2 51.2 0 0-40.6 36.2-41.1 36.7 0-.6-.9-9.4-.9-9.6.6-.5 29.6-23.9 29.6-23.9 21.8-18.5 59.4-55.6 59.6-56l.1-1.6-.1-.5-.1-.2c.9.9 3.1 2.9 3.1 2.9.1.1.1.2.2.2v-.5c-.4-.2-6.9-6.4-9.5-9" clip-path="url(#b)"/><path fill="#FDD000" d="M109.9 184.7c0-.6-.7-6.8-.7-6.8s-.2-1.9-.2-2c1-.8 29.2-23.6 29.5-23.8 21.8-18.5 59.5-55.8 59.7-56.2 0 0 .1-1.1.1-1.4.7.6 2.4 2.3 2.4 2.3l.1.3c-.1.1-.2.3-.2.3l-5.8 6.1c-10.4 11.1-31.9 34.1-44.3 45.1 0-.1-40.1 35.7-40.6 36.1m88-91.1.1.2.1.5-.1 1.6c-.1.5-37.8 37.6-59.6 56 0 0-29.1 23.4-29.6 23.9 0 .1.9 9 .9 9.6.5-.4 41.1-36.7 41.1-36.7 16-14.1 46.8-47.9 50.2-51.2.1-.1.2-.2.2-.3v-.5c0-.1-.1-.2-.2-.2s-2.2-2.1-3.1-2.9m-.2-.4" clip-path="url(#b)"/><path fill="#FCCE00" d="M110.2 184.1c0-1.3-.6-6-.6-6s-.2-1.9-.2-2c.6-.5 29.4-23.7 29.4-23.7 21.9-18.6 59.6-56 59.7-56.4v-.9c1.3 1.2 1.8 1.7 2 1.8l-.1-.1.1.2v.1c-5.6 5.9-5.8 6.2-5.8 6.2-10.3 11.1-31.9 34.1-44.3 45-.1-.1-39.7 35.4-40.2 35.8m88.1-89.7c0 .3-.1 1.4-.1 1.4-.1.5-37.8 37.7-59.7 56.2-.3.2-28.5 23-29.5 23.8 0 .1.2 2 .2 2s.6 6.2.7 6.8c.5-.4 40.6-36.2 40.6-36.2 12.4-10.9 34-34 44.3-45.1l5.8-6.1s.1-.2.2-.3l-.1-.3c0 .1-1.7-1.6-2.4-2.2" clip-path="url(#b)"/><path fill="#FBCD00" d="M139 152.5c21.9-18.6 59.7-56.1 59.8-56.5v-.3c.4.4 1.2 1.1 1.3 1.3-.5.5-4.9 5.2-4.9 5.2l-.8.8c-10.3 11.1-31.8 34.1-44.3 45 0 0-39.2 35-39.6 35.4 0-.6-.8-7.1-.8-7.3.1-.1 28.8-23.3 28.8-23.3.3-.1.4-.2.5-.3m59.6-57.4v.9c-.1.4-37.9 37.8-59.7 56.4 0 0-28.8 23.2-29.4 23.7 0 .1.2 2 .2 2s.6 4.7.6 6c.5-.4 40.1-35.8 40.1-35.8 12.4-10.9 34-33.9 44.3-45 0 0 .2-.3 5.8-6.2V97l-.1-.2.1.1c-.2-.2-.6-.6-1.9-1.8" clip-path="url(#b)"/><path fill="#FBCB00" d="M198.8 95.7v.3c-.1.4-37.9 37.9-59.8 56.5-.1.1-.2.2-.5.4 0 0-28.7 23.2-28.8 23.3 0 .1.8 6.7.8 7.3.5-.4 39.6-35.4 39.6-35.4 12.4-10.9 33.9-33.9 44.3-45l.8-.8c.1-.1 4.5-4.7 4.9-5.2-.1-.3-.9-1-1.3-1.4" clip-path="url(#b)"/><path fill="#FFE500" d="m21.783 63.977 8.967 8.994-9.278 9.248-8.966-8.994zM186.4 65.1h2.6v10.1h-2.6z"/><path fill-rule="evenodd" d="M119.8 62.7v59h-17.4l-.1-48.3 7.5-1.8-2.2-8.8zM49.5 75.5c7.2-.3 17.7-.8 24.3 0 8.4 1 19.4 3.2 20.3 15 .4 5.6-1.5 10.4-9.4 16.7 0 0 8 8.7 15.3 17 0 0-9.1 8.6-14.1 12.7L68 107.2c4-3.1 8.8-7.6 8.8-12.9 0-5.1-4.8-7.5-6.5-7.5h-3.7v49.6H49.5V75.5zm90.6 60.6V89.5h-16.8v-15h51.2v15h-16.7v46.6z" clip-rule="evenodd"/><path d="M42.9 60.1 42.8 75H24.7v13.8l16.7-.1v14.2H25v23.9H7V60.9c18-.8 35.9-.8 35.9-.8z"/><path fill-rule="evenodd" d="m229 97.7 11.6.4 4.6-29.9-14.4-1.2z" clip-rule="evenodd"/><path d="m223.8 104.3 9.1-7.4 9.6 12-9.1 7.3-7.3-9.1z"/><path fill-rule="evenodd" d="M115.8 118.3H95.4l-.1-51 7.2-1.8-2.3-9.2h15.6zm17.3-32.2s-15.2.4-15.1.4l-1.7.2V68.1h54.3v18.6h-1.8l-14.9-.6v46.6h-20.7V86.1z" clip-rule="evenodd"/><path fill-rule="evenodd" d="M169.5 53.3h.6c5.9 0 23-.3 46.2 1l2.6.2-24.4 45.4c5 .1 11.5.2 20.1-.4l1.9-.1v18.4h-51.8L189 71.2c-5.2 0-11.4 0-18.9.4l-.7.1V53.3z" clip-rule="evenodd"/><path d="M38.9 55v16.7H20.7v10.2l16.7-.1v17.4H21v23.9H0V54.6l1.4-.1c18-.8 37-.7 37-.7"/><path fill-rule="evenodd" d="M62.6 100.4c3.7-3.1 7.3-6.8 7.3-11.1 0-4.1-3.9-6-5.1-6h-2.2v17.1zm5.9-31.3c8.2 1 20.6 3.3 21.6 16.4.4 5.9-1.6 10.9-8.7 17l15.3 17.9-.9.9c-4.2 4.3-8.9 8.4-13.9 12.4l-1.3 1.1-17.9-29.7v27.8H42.5V69.2l1.4-.1c7.3-.3 17.9-.7 24.6 0zm155.7-6.5 17.6 1.4-5.1 32.9-14.5-.5z" clip-rule="evenodd"/><path d="M239.1 106.5 229.8 95l-11.5 9.3h-1.8v1.8c-8.2.4-14.4.2-18.9.1l24.5-45.5c-23.2-1.3-40-1-52.2-.7v15.3c15.1-.8 21.6-.7 27.2-.8l-24.2 46.6h47.8v-14l7 8.7 11.4-9.3z"/><path fill="#E2001A" fill-rule="evenodd" d="M114.3 57.8v58.9H96.9l-.1-48.2 7.5-1.8-2.2-8.9zM44 70.6c7.2-.3 17.7-.8 24.3 0 8.4 1 19.4 3.2 20.3 15 .4 5.6-1.5 10.4-9.4 16.7l15.4 18c-4.1 4.2-8.8 8.3-13.7 12.3l-18.3-30.4c4-3.1 8.8-7.6 8.8-12.9 0-5.1-4.8-7.5-6.5-7.5h-3.7v49.6H44V70.6zm90.6 60.6V84.6l-16.8.4V69.6H169V85l-16.7-.4v46.6zm36.1-61.1V54.8c5.9 0 22.7-.3 45.9 1l-24.5 45.5c5.3.1 12.8.3 23-.4v15.3h-47.8l24.2-46.6c-5.6.1-12.1.1-20.8.5z" clip-rule="evenodd"/><path fill="#E2001A" d="M37.4 64.5V70H19.2v13.8l16.7-.1v14.2H19.4v23.9H1.5V56l35.9-.7z"/><path fill="#E2001A" fill-rule="evenodd" d="m223.8 94.9 11.6.4 4.6-29.9-14.4-1.2z" clip-rule="evenodd"/><path fill="#E2001A" d="m236.927 106.388-9.09 7.365-7.366-9.09 9.091-7.366z"/></svg>