<svg xmlns="http://www.w3.org/2000/svg" xmlns:xlink="http://www.w3.org/1999/xlink" viewBox="0 0 85 85" fill="#fff" fill-rule="evenodd" stroke="#000" stroke-linecap="round" stroke-linejoin="round"><style><![CDATA[.B{stroke:none}.C{fill:#9d5025}.D{fill:#f58536}]]></style><use xlink:href="#A" x="2.5" y="2.5"/><symbol id="A" overflow="visible"><path d="M4.282 5.345L0 7.627v64.746l4.282 2.282 16.871-33.306L4.282 5.345zm13.036 11.686l6.306-9.568 28.259 13.464-6.588 1.122-27.976-5.017zm-4.894 46.631l6.941 10.224 32.518-15.039L45.6 57.8l-33.176 5.862z" class="B C"/><path d="M14.258 72.146l-9.976 2.509V5.345l9.976 2.433v64.368z" class="B D"/><path d="M9.012 2.811L14.259 0l9.882 44.488L14.259 80l-5.247-2.811V2.811zM45.247 57.75l6.635 1.097 6.071-18.115-6.071-19.805-6.635 1.122V57.75z" class="B C"/><g class="D"><path d="M24.471 76.912L14.259 80V0l10.212 3.101v73.81z" class="B"/><path d="M58.836 57.447L14.26 66.322V80l44.577-13.489v-9.064zm.082-35.096l-44.659-9.089V0l44.659 13.577v8.774z" class="B"/><path d="M51.882 11.434l7.165 2.118v52.959l-7.165 2.105V11.434z" class="B"/></g><path d="M80 33.003l-19.177.971-6.776-.492 19.388-16.741L80 33.003z" fill="#6b3a19" class="B"/><path d="M54.047 33.482l19.388-1.172V16.741l-19.388 3.366v13.375z" class="B C"/><path d="M35.8 32.172l19.647-21.217 9.988 20.498-20.365 1.387-9.271-.668z" fill="#6b3a19" class="B"/><g class="C"><path d="M35.8 32.172l19.647-1.79V10.955L35.8 15.884v16.287zm18.247 14.623L80 47.274l-6.565 16.262-19.388-3.366V46.795z" class="B"/><path d="M35.8 48.106l29.635.731-9.988 20.485L35.8 64.406v-16.3z" class="B"/></g><path d="M35.8 48.106l19.647 1.803 9.988-1.072-20.365-1.399-9.271.668zm44.2-.832l-19.177-.958-6.776.479 19.388 1.185L80 47.274z" class="B" fill="#fbbf93"/><path d="M73.435 32.31l6.565.693V18.846l-6.565-2.105V32.31zm-8-.857l-9.988-1.072V10.955l9.988 3.215v17.283zm8 16.527L80 47.274v14.157l-6.565 2.105V47.98zm-8 .857l-9.988 1.072v19.414l9.988-3.202V48.837z" class="B D"/></symbol></svg>