<svg xmlns="http://www.w3.org/2000/svg" viewBox="0 0 18 18"><defs><linearGradient id="a" x1="9" x2="9" y1="11.95" gradientUnits="userSpaceOnUse"><stop offset="0" stop-color="#0078d4"/><stop offset=".16" stop-color="#1380da"/><stop offset=".53" stop-color="#3c91e5"/><stop offset=".82" stop-color="#559cec"/><stop offset="1" stop-color="#5ea0ef"/></linearGradient></defs><path fill="url(#a)" d="M17.43 8.21a3.78 3.78 0 0 0-3.29-3.64A4.77 4.77 0 0 0 9.22 0a4.91 4.91 0 0 0-4.68 3.19 4.52 4.52 0 0 0-4 4.35A4.6 4.6 0 0 0 5.32 12h8.31a3.84 3.84 0 0 0 3.8-3.79z"/><path fill="#f2f2f2" d="M6.36 6.46 9 3.87a.3.3 0 0 1 .43 0L12 6.46a.13.13 0 0 1-.1.23h-1.62a.15.15 0 0 0-.14.14v3.24a.11.11 0 0 1-.11.11H8.29a.11.11 0 0 1-.11-.11V6.83a.14.14 0 0 0-.13-.14h-1.6a.13.13 0 0 1-.09-.23z"/><path fill="#a67af4" d="M14 11.37a.13.13 0 0 0-.09-.13L9.16 9.65H9V18h.13l4.71-1.88A.13.13 0 0 0 14 16z"/><path fill="#552f99" d="m9 9.68-4.51.83a.14.14 0 0 0-.12.13v6.23a.15.15 0 0 0 .11.14L9 18a.13.13 0 0 0 .16-.13v-8A.14.14 0 0 0 9 9.68z"/><path fill="#b77af4" d="M6.92 10.92v5.81l1.57.25v-6.33l-1.57.27zm-1.94.32v5.08l1.37.28v-5.59l-1.37.23z" opacity=".75"/></svg>