<svg xmlns="http://www.w3.org/2000/svg" viewBox="0 0 18 18"><defs><radialGradient id="a" cx="-6811.4" cy="6729.69" r="17" gradientTransform="matrix(.5 0 0 -.5 3414.91 3374.05)" gradientUnits="userSpaceOnUse"><stop offset=".18" stop-color="#5ea0ef"/><stop offset="1" stop-color="#0078d4"/></radialGradient></defs><path d="M14.21 15.72A8.5 8.5 0 013.79 2.28l.09-.06a8.5 8.5 0 0110.33 13.5" fill="url(#a)"/><path d="M9 1.31A7.69 7.69 0 1016.69 9 7.7 7.7 0 009 1.31zm5.15 2.59a7.37 7.37 0 01-2.15.8A8.83 8.83 0 0010.75 2a7.2 7.2 0 013.4 1.9zM9 1.74a6.59 6.59 0 011.09.09 7.48 7.48 0 011.53 3 15.12 15.12 0 01-5.45 0 7.38 7.38 0 011.51-2.94A7.34 7.34 0 019 1.74zM7 2a8.72 8.72 0 00-1.27 2.68 5.58 5.58 0 01-1.9-.77A7.35 7.35 0 017 2zM3.72 14a5.27 5.27 0 011.78-.76 7.08 7.08 0 001.35 2.72A7.25 7.25 0 013.72 14zm6.41 2.2a7.08 7.08 0 01-1.13.06 6.83 6.83 0 01-1.44-.15 6 6 0 01-1.67-3 14.73 14.73 0 015.88 0 6 6 0 01-1.69 3zm.73-.16a7.13 7.13 0 001.38-2.8 6.68 6.68 0 012 .83A7.13 7.13 0 0110.86 16zm1.48-3.22c.08-.36.15-.73.2-1.12l-.46.11c-.05.31-.1.62-.17.91a15.23 15.23 0 00-6.09 0c-.07-.27-.12-.56-.17-.86a.28.28 0 010-.09l-.46-.13a2.36 2.36 0 000 .28c0 .32.11.62.17.91a5.9 5.9 0 00-2 .85 7.24 7.24 0 01.11-9.4 6.29 6.29 0 002.08.86c-.07.24-.13.5-.18.76s0 .25-.08.37l.47-.11v-.17c.06-.26.12-.51.19-.75A14.89 14.89 0 009 5.48a15 15 0 002.78-.26c.07.27.14.56.2.85l.46.11q-.11-.54-.24-1a7.73 7.73 0 002.3-.91 7.22 7.22 0 01.06 9.49 7.28 7.28 0 00-2.22-.97z" fill="#5ea0ef"/><path d="M3.69 7a7.92 7.92 0 011.16-.08 2.44 2.44 0 011.71.52 2 2 0 01.59 1.46 2.21 2.21 0 01-.61 1.64 2.6 2.6 0 01-1.86.61 9.17 9.17 0 01-1-.05zm.55 3.73a4 4 0 00.55 0 1.62 1.62 0 001.79-1.81A1.5 1.5 0 004.87 7.3a3.17 3.17 0 00-.63 0zM7.86 11.11V6.9h.59L9.8 9a12.18 12.18 0 01.76 1.37c-.05-.56-.06-1.07-.06-1.73V6.9h.5v4.21h-.55L9.13 9c-.29-.47-.57-1-.79-1.4v3.54zM11.89 10.45a2 2 0 001 .27c.56 0 .88-.29.88-.72s-.22-.62-.79-.83-1.12-.6-1.12-1.2a1.22 1.22 0 011.37-1.14 2 2 0 01.93.2l-.16.45a1.63 1.63 0 00-.8-.2c-.58 0-.8.34-.8.63s.26.59.84.81 1.08.62 1.08 1.24-.48 1.21-1.48 1.21a2.16 2.16 0 01-1.07-.27z" fill="#fff"/></svg>