<svg xmlns="http://www.w3.org/2000/svg" width="512" height="512" viewBox="0 0 135.47 135.47"><path stroke="#fff" stroke-width="2.646" d="M48.906 127.15c-.568-.084-1.343-.282-1.722-.441-.379-.16-1.154-.475-1.722-.701-.568-.227-1.984-1.028-3.147-1.78-1.34-.868-3.192-1.656-5.063-2.156-3.453-.922-5.333-2.112-6.773-4.287-1.422-2.147-1.822-3.88-1.645-7.122.166-3.053.9-4.884 2.666-6.65 1.317-1.317 1.31-1.69-.053-2.828-.982-.82-1.1-1.112-1.1-2.74 0-1.614.126-1.934 1.1-2.804.605-.54 1.781-1.154 2.614-1.364l1.514-.381 1.44-3.74c.791-2.057 1.388-4.077 1.327-4.489-.09-.6-.831-1.03-3.729-2.171-5.142-2.024-7.084-3.124-9.414-5.333-3.839-3.64-4.619-6.21-5.555-18.3-.323-4.183-.73-7.135-1.186-8.595-.38-1.223-.637-2.28-.57-2.347.316-.316 2.682.423 4.28 1.335 2.301 1.315 4.137 3.693 7.494 9.71 1.647 2.953 3.396 5.578 4.454 6.685 1.59 1.663 1.875 1.822 3.272 1.825 1.48.003 1.615-.09 4.113-2.841 8.946-9.851 13.063-12.788 21.525-15.354 4.1-1.243 7.801-1.877 16.36-2.8 8.889-.96 11.71-2.026 11.71-4.426 0-1.408-1.268-2.966-7.06-8.678-8.96-8.838-12.288-14.34-12.288-20.32 0-1.939.835-5.855 1.248-5.855.054 0 .528.66 1.053 1.464 4.365 6.693 9.389 10.745 21.868 17.638 12.787 7.063 16.585 10.318 19.907 17.061 1.596 3.239 1.613 3.312 1.732 7.233.104 3.443.019 4.23-.652 6.027-1.17 3.13-4.832 6.593-9.966 9.427-10.341 5.705-11.278 7.253-8.792 14.509 2.73 7.968 1.736 13.996-3.391 20.548-3.195 4.082-5.88 5.79-12.911 8.21-6.172 2.123-11.491 5.156-16.861 9.615-4.802 3.987-5.756 4.673-8.155 5.862-2.432 1.204-5.44 1.718-7.922 1.353zm-2.796-8.225c6.845-1.783 9.413-7.273 5.526-11.815-2.278-2.661-3.468-2.745-2.7-.192.958 3.183-.179 5.867-3.05 7.204-3.495 1.627-8.493.814-9.732-1.583-.724-1.4-.639-4.056.181-5.665 1.298-2.546.704-2.89-1.934-1.119-4.766 3.2-4.574 9.648.363 12.223 2.908 1.516 7.643 1.911 11.345.947zm12.775-13.188c-.007-1.895-.188-2.635-1.02-4.148-1.97-3.587-5.56-5.88-10.078-6.438-.994-.122-1.895-.364-2.002-.537-.33-.533 7.183-12.357 11.952-18.812 4.104-5.556 7.944-8.71 12.742-10.47l1.942-.711-.001-3.326c-.001-3.624.71-6.299 2.328-8.742 1.543-2.332 1.372-2.359-5.78-.926-7.099 1.422-12.634 3.771-16.829 7.142-5.136 4.128-7.438 7.184-9.224 12.244-1.189 3.367-1.295 4.36-.585 5.48 1.349 2.128.829 6.32-1.452 11.7-.742 1.75-1.613 3.99-1.935 4.975-.604 1.85-.75 1.961-3.123 2.369-2.921.502-4.182 1.89-3.268 3.597.448.836.336.836 6.023-.017 1.621-.243 4.168-.33 6.19-.212 2.885.169 3.774.368 5.564 1.25 2.695 1.327 5.621 4.19 6.851 6.705 1.195 2.441 1.718 2.097 1.707-1.123zm8.966-25.163c1.786-.811 3.517-2.798 3.813-4.377.305-1.627-.304-3.592-1.44-4.644l-.906-.84-1.596 1.887c-.878 1.038-2.797 3.14-4.265 4.673-1.468 1.532-2.67 2.896-2.67 3.031 0 1.004 5.027 1.196 7.064.27zm-40.47-3.619c0-.07-.307-.823-.683-1.673-.832-1.88-1.81-7.797-1.663-10.058l.107-1.65 1.822 3.397c3.526 6.577 5.389 8.43 8.714 8.671 2.805.203 3.473-.298 4.257-3.191.34-1.257.542-2.361.45-2.454-.094-.093-.85-.016-1.681.17-3.705.83-6.031-1.043-9.396-7.566-2.656-5.148-4.602-8.154-6.666-10.296-1.914-1.986-3.052-2.32-2.7-.793.12.52.532 4.124.914 8.007.383 3.883.928 7.99 1.211 9.127.967 3.875 3.578 8.438 4.828 8.438.267 0 .486-.058.486-.129zM83.347 58.34c3.41-1.164 7.44-2.47 8.955-2.9 5.394-1.536 8.293-3.255 9.511-5.643 1.792-3.513-.767-7.96-9.337-16.221-2.293-2.211-4.077-4.02-3.965-4.02.361 0 7.52 3.986 10.764 5.993 7.158 4.428 11.426 8.614 14.035 13.765.568 1.122 1.188 2.012 1.378 1.977 1.027-.187-.62-5.914-2.57-8.93-2.87-4.441-6.679-7.523-16.543-13.388-13.369-7.95-17.492-11.05-20.5-15.417-1.846-2.68-2.372-2.56-2.154.494.134 1.867.478 3.04 1.542 5.253 1.864 3.876 4.363 6.897 11.901 14.386 6.729 6.684 7.809 8.174 7.824 10.789.016 2.819-2.432 3.987-10.557 5.037-3.002.387-5.185.842-5.667 1.18-1.91 1.337-4.088 6.227-4.088 9.176 0 1.566.446 1.804 2.066 1.105.663-.286 3.995-1.472 7.405-2.636z" opacity=".2"/><path fill="#fff" d="M46.108 118.92c6.845-1.783 9.413-7.273 5.526-11.815-2.278-2.661-3.468-2.746-2.699-.192.958 3.182-.18 5.867-3.05 7.204-3.495 1.627-8.493.814-9.733-1.583-.723-1.4-.638-4.057.182-5.665 1.298-2.546.704-2.89-1.934-1.12-4.766 3.2-4.575 9.65.363 12.224 2.907 1.516 7.643 1.911 11.345.947zm12.776-13.188c-.006-1.896-.188-2.635-1.02-4.149-1.971-3.586-5.561-5.88-10.078-6.437-.995-.123-1.895-.365-2.002-.538-.33-.532 7.183-12.357 11.952-18.812 4.104-5.555 7.943-8.71 12.742-10.469l1.941-.711V61.29c-.002-3.624.71-6.3 2.327-8.743 1.543-2.33 1.373-2.358-5.78-.925-7.098 1.422-12.633 3.771-16.828 7.142-5.137 4.128-7.439 7.184-9.225 12.244-1.188 3.367-1.294 4.36-.584 5.48 1.348 2.128.828 6.319-1.453 11.7-.742 1.75-1.613 3.99-1.934 4.975-.605 1.85-.75 1.961-3.124 2.369-2.92.501-4.181 1.89-3.267 3.597.447.836.336.836 6.022-.017 1.622-.243 4.169-.33 6.19-.212 2.885.168 3.774.368 5.564 1.25 2.696 1.326 5.621 4.19 6.852 6.704 1.194 2.442 1.717 2.098 1.706-1.122zm8.966-25.163c1.785-.811 3.516-2.799 3.813-4.377.305-1.627-.305-3.593-1.44-4.645l-.907-.84-1.596 1.887c-.877 1.038-2.797 3.141-4.265 4.673-1.468 1.532-2.669 2.897-2.669 3.032 0 1.003 5.026 1.196 7.063.27zM27.38 76.95c0-.07-.308-.823-.684-1.673-.832-1.88-1.81-7.798-1.663-10.058l.108-1.65 1.821 3.397c3.526 6.577 5.39 8.43 8.715 8.67 2.805.204 3.473-.297 4.256-3.19.34-1.257.543-2.361.45-2.454-.093-.093-.85-.017-1.68.17-3.706.83-6.032-1.043-9.397-7.566-2.655-5.149-4.601-8.154-6.666-10.296-1.914-1.986-3.051-2.32-2.699-.794.12.521.532 4.125.914 8.008.382 3.883.927 7.99 1.21 9.127.967 3.875 3.578 8.437 4.829 8.437.267 0 .486-.057.486-.128zm55.966-18.615c3.41-1.164 7.439-2.47 8.954-2.9 5.395-1.536 8.293-3.255 9.512-5.643 1.792-3.513-.768-7.96-9.337-16.221-2.293-2.211-4.077-4.02-3.965-4.02.36 0 7.52 3.985 10.764 5.993 7.158 4.427 11.426 8.613 14.035 13.765.568 1.122 1.188 2.012 1.377 1.977 1.028-.188-.62-5.914-2.57-8.93-2.87-4.442-6.678-7.523-16.542-13.388-13.37-7.95-17.492-11.05-20.5-15.417-1.846-2.681-2.372-2.56-2.154.494.134 1.867.478 3.04 1.542 5.252 1.864 3.877 4.363 6.898 11.9 14.386 6.73 6.685 7.81 8.175 7.824 10.79.016 2.819-2.432 3.987-10.557 5.036-3.001.388-5.184.843-5.666 1.18-1.91 1.338-4.088 6.228-4.088 9.177 0 1.565.445 1.804 2.066 1.105.663-.286 3.995-1.472 7.405-2.637z"/><path fill="#347aa1" d="M76.462 49.11c-5.205.404-10.689 2.016-14.3 3.2-7.228 2.368-12.611 6.983-18.748 14.106a38.738 38.738 0 0 1-2.105 2.259l-.496 3.948.167-.014-.208.978a16.98 16.98 0 0 1-.172.731l-1.534 12.21c.065.153.07.316.042.51a5.78 5.78 0 0 1-.192.684l-.29 2.315-.525-.066c-.087.222-.17.441-.26.666-1.164 2.878-1.168 2.884-2.638 3.307-3.315.954-4.575 4.494-2.459 6.904l.98 1.117-.938 1.192c-1.633 2.075-2.218 3.285-2.382 5.436l3.058-6.16 9.791 4.861 4.535-5.414 18.153 15.205c4.492-3.477 8.496-5.628 13.825-7.505 2.092-.736 4.516-1.675 5.387-2.087 2.257-1.066 5.217-3.572 6.964-5.896 4.575-6.086 5.518-11.453 3.247-18.477l-.101-.315-23.214 22.983-18.97-19.159 25.218-24.966c-.377.135-.79.28-1.065.384a386.727 386.727 0 0 0-3.723 1.429c-.48.195-.555.033-.555-1.178 0-1.316.42-2.892 1.063-4.302l-.119-.034z"/><path d="M48.904 127.15c-.568-.084-1.343-.282-1.722-.441-.379-.16-1.154-.475-1.722-.701-.568-.227-1.984-1.028-3.147-1.78-1.34-.868-3.192-1.656-5.063-2.156-3.453-.922-5.333-2.112-6.773-4.287-1.422-2.147-1.822-3.88-1.645-7.122.166-3.053.9-4.884 2.666-6.65 1.318-1.317 1.31-1.69-.053-2.828-.982-.82-1.1-1.112-1.1-2.74 0-1.614.126-1.934 1.1-2.804.605-.54 1.781-1.154 2.614-1.364l1.514-.381 1.44-3.74c.791-2.057 1.388-4.077 1.327-4.489-.09-.6-.831-1.03-3.729-2.171-5.142-2.024-7.084-3.124-9.414-5.333-3.839-3.64-4.619-6.21-5.555-18.3-.323-4.183-.73-7.135-1.186-8.595-.38-1.223-.637-2.28-.57-2.347.316-.316 2.682.423 4.28 1.335 2.301 1.315 4.137 3.693 7.494 9.71 1.647 2.953 3.396 5.578 4.454 6.685 1.59 1.663 1.875 1.822 3.272 1.825 1.48.003 1.615-.09 4.113-2.841 8.946-9.851 13.063-12.788 21.525-15.354 4.1-1.243 7.802-1.877 16.36-2.8 8.889-.96 11.71-2.026 11.71-4.426 0-1.408-1.268-2.966-7.06-8.678-8.96-8.838-12.288-14.34-12.288-20.32 0-1.939.835-5.855 1.248-5.855.054 0 .528.66 1.053 1.464 4.365 6.693 9.389 10.745 21.868 17.638 12.787 7.063 16.585 10.318 19.907 17.061 1.596 3.239 1.613 3.312 1.732 7.233.104 3.443.019 4.23-.652 6.027-1.17 3.13-4.832 6.593-9.966 9.427-10.341 5.705-11.278 7.253-8.792 14.509 2.73 7.968 1.736 13.996-3.391 20.548-3.195 4.082-5.88 5.79-12.911 8.21-6.172 2.123-11.491 5.156-16.861 9.615-4.802 3.987-5.756 4.673-8.155 5.862-2.432 1.204-5.44 1.718-7.922 1.353zm-2.796-8.225c6.845-1.783 9.413-7.273 5.526-11.815-2.278-2.661-3.468-2.745-2.7-.192.958 3.183-.179 5.867-3.05 7.204-3.494 1.627-8.493.814-9.732-1.583-.724-1.4-.639-4.056.181-5.665 1.299-2.546.704-2.89-1.934-1.119-4.766 3.2-4.574 9.648.363 12.223 2.908 1.516 7.643 1.911 11.345.947zm12.776-13.188c-.007-1.895-.189-2.635-1.02-4.148-1.972-3.587-5.562-5.88-10.079-6.438-.994-.122-1.895-.364-2.002-.537-.33-.533 7.183-12.357 11.952-18.812 4.104-5.556 7.944-8.71 12.742-10.47l1.942-.711-.001-3.326c-.002-3.624.71-6.299 2.327-8.742 1.543-2.332 1.373-2.359-5.779-.926-7.099 1.422-12.634 3.771-16.829 7.142-5.137 4.128-7.439 7.184-9.225 12.244-1.188 3.367-1.294 4.36-.584 5.48 1.348 2.128.828 6.32-1.453 11.7-.742 1.75-1.612 3.99-1.934 4.975-.604 1.85-.75 1.961-3.124 2.369-2.92.502-4.18 1.89-3.267 3.597.447.836.336.836 6.022-.017 1.622-.243 4.169-.33 6.19-.212 2.886.169 3.774.368 5.564 1.25 2.696 1.327 5.622 4.19 6.852 6.705 1.195 2.441 1.717 2.097 1.706-1.123zm8.965-25.163c1.786-.811 3.517-2.798 3.813-4.377.305-1.627-.304-3.592-1.44-4.644l-.906-.84L67.72 72.6c-.878 1.038-2.797 3.14-4.265 4.673-1.468 1.532-2.67 2.896-2.67 3.031 0 1.004 5.027 1.196 7.064.27zm-40.47-3.619c0-.07-.307-.823-.683-1.673-.832-1.88-1.81-7.797-1.663-10.058l.107-1.65 1.822 3.397c3.526 6.577 5.389 8.43 8.714 8.671 2.805.203 3.473-.298 4.257-3.191.34-1.257.542-2.361.45-2.454-.094-.093-.85-.016-1.681.17-3.705.83-6.031-1.043-9.396-7.566-2.656-5.148-4.602-8.154-6.666-10.296-1.914-1.986-3.052-2.32-2.7-.793.12.52.532 4.124.914 8.007s.928 7.99 1.211 9.127c.967 3.875 3.578 8.438 4.828 8.438.267 0 .486-.058.486-.129zM83.345 58.34c3.41-1.164 7.44-2.47 8.954-2.9 5.395-1.536 8.294-3.255 9.512-5.643 1.792-3.513-.767-7.96-9.337-16.221-2.293-2.211-4.077-4.02-3.965-4.02.361 0 7.52 3.986 10.764 5.993 7.158 4.428 11.426 8.614 14.035 13.765.568 1.122 1.188 2.012 1.378 1.977 1.027-.187-.62-5.914-2.57-8.93-2.87-4.441-6.679-7.523-16.543-13.388-13.369-7.95-17.492-11.05-20.5-15.417-1.846-2.68-2.372-2.56-2.154.494.134 1.867.478 3.04 1.542 5.253 1.864 3.876 4.363 6.897 11.901 14.386 6.729 6.684 7.809 8.174 7.824 10.789.016 2.819-2.432 3.987-10.557 5.037-3.002.387-5.185.842-5.667 1.18-1.91 1.337-4.088 6.227-4.088 9.176 0 1.566.446 1.804 2.066 1.105.663-.286 3.995-1.472 7.405-2.636z"/><path fill="#fff" d="M117.563 51.982c-.063 1.175-.253 1.9-.662 2.995-1.169 3.129-4.83 6.594-9.965 9.427-8.307 4.583-10.543 6.486-9.813 10.818.605-2.694 3.4-4.634 9.813-8.172 5.135-2.834 8.796-6.297 9.965-9.427.644-1.723.747-2.543.662-5.641zM99.575 88.174c-.286 3.903-1.865 7.508-4.822 11.287-3.195 4.083-5.88 5.791-12.911 8.21-6.172 2.124-11.491 5.157-16.861 9.616-4.802 3.987-5.756 4.673-8.156 5.861-2.431 1.205-5.438 1.719-7.92 1.354-.57-.084-1.344-.282-1.723-.441-.378-.16-1.154-.475-1.722-.702-.568-.226-1.984-1.027-3.147-1.78-1.34-.867-3.192-1.656-5.063-2.155-3.452-.922-5.333-2.112-6.773-4.287-1.001-1.511-1.494-2.82-1.638-4.592l-.008.116c-.176 3.242.224 4.975 1.646 7.121 1.44 2.175 3.32 3.366 6.773 4.287 1.871.5 3.723 1.288 5.063 2.156 1.163.753 2.579 1.554 3.147 1.78.568.226 1.344.542 1.722.701.38.16 1.154.358 1.722.442 2.483.364 5.49-.15 7.921-1.354 2.4-1.189 3.354-1.874 8.156-5.861 5.37-4.46 10.69-7.493 16.861-9.616 7.03-2.419 9.716-4.127 12.91-8.21 3.614-4.617 5.172-8.974 4.823-13.933zM36.7 102.004c-.384-.041-1.147.329-2.3 1.104-2.768 1.857-3.86 4.81-3.327 7.464.36-1.82 1.463-3.567 3.326-4.819.717-.48 1.277-.8 1.695-.967.071-.196.15-.385.239-.56.73-1.431.862-2.167.367-2.221zm12.441.407c-.486-.034-.591.583-.207 1.86.08.266.14.527.191.786.483.02 1.356.705 2.508 2.051.87 1.018 1.416 2.083 1.663 3.143.445-1.873-.056-3.912-1.663-5.788-1.139-1.331-2.006-2.017-2.492-2.052zm-.018 5.279c-.374 1.637-1.479 2.965-3.24 3.784-3.494 1.627-8.492.814-9.731-1.583a4.302 4.302 0 0 1-.382-1.196c-.225 1.381-.107 2.898.382 3.842 1.24 2.397 6.237 3.21 9.732 1.583 2.635-1.227 3.804-3.59 3.239-6.43z" opacity=".2"/></svg>