<svg width="512" height="512" version="1.1" viewBox="0 0 135.47 135.47" xmlns="http://www.w3.org/2000/svg"><path d="m48.906 127.15c-0.56825-0.0836-1.3432-0.28206-1.722-0.44122-0.37884-0.15915-1.1538-0.47464-1.722-0.70107-0.56826-0.22644-1.9843-1.0274-3.1466-1.7799-1.3406-0.86785-3.1922-1.6562-5.0635-2.156-3.4525-0.92193-5.3326-2.1119-6.7733-4.2869-1.4218-2.1465-1.822-3.8792-1.6451-7.1218 0.16656-3.0527 0.90087-4.8837 2.6668-6.6496 1.3172-1.3172 1.3102-1.6902-0.053-2.8282-0.98216-0.81994-1.0994-1.1122-1.0994-2.7402 0-1.6144 0.12548-1.9344 1.0993-2.8046 0.60461-0.54021 1.7808-1.1538 2.6137-1.3635l1.5144-0.38133 1.4393-3.74c0.79163-2.057 1.3888-4.0767 1.3271-4.4883-0.0899-0.59963-0.8307-1.0311-3.7285-2.1715-5.1421-2.0238-7.0842-3.1239-9.414-5.3329-3.8388-3.6396-4.6189-6.2098-5.5548-18.3-0.32383-4.1834-0.73121-7.1352-1.1862-8.5953-0.38115-1.2231-0.6376-2.2792-0.5699-2.3469 0.31531-0.31531 2.6817 0.42334 4.2792 1.3357 2.3015 1.3144 4.1371 3.6926 7.4941 9.7092 1.6478 2.9533 3.3967 5.5779 4.4545 6.6849 1.5898 1.6638 1.8748 1.8229 3.2718 1.8257 1.4801 3e-3 1.6152-0.0904 4.1134-2.8413 8.9461-9.8511 13.063-12.788 21.525-15.354 4.0992-1.2431 7.8012-1.8769 16.359-2.8006 8.8896-0.95952 11.71-2.0252 11.71-4.4249 0-1.4082-1.2677-2.9667-7.0585-8.6782-8.9614-8.8386-12.289-14.341-12.289-20.32 0-1.9393 0.83471-5.8549 1.2481-5.8549 0.0543 0 0.52829 0.65868 1.0533 1.4637 4.3645 6.6928 9.3884 10.745 21.868 17.638 12.787 7.0631 16.585 10.318 19.907 17.061 1.5957 3.2388 1.6132 3.3119 1.7318 7.2325 0.10414 3.443 0.0188 4.2307-0.6522 6.0271-1.1691 3.1296-4.8315 6.5938-9.9661 9.427-10.341 5.7057-11.278 7.2529-8.7918 14.509 2.7305 7.9688 1.7359 13.996-3.3911 20.548-3.1945 4.0827-5.8807 5.7908-12.911 8.2096-6.1719 2.1234-11.491 5.157-16.861 9.6161-4.8018 3.987-5.7557 4.6726-8.1553 5.8613-2.4316 1.2046-5.4386 1.7184-7.9213 1.3535zm-2.7965-8.2248c6.8452-1.7829 9.4134-7.2734 5.5263-11.815-2.2779-2.6612-3.468-2.7457-2.6993-0.19173 0.95766 3.1821-0.17929 5.867-3.0504 7.2038-3.4946 1.627-8.4928 0.81379-9.7325-1.5834-0.72349-1.3991-0.63831-4.0563 0.1816-5.6645 1.2983-2.5464 0.70416-2.8903-1.9339-1.1193-4.7662 3.1997-4.5746 9.6484 0.36313 12.223 2.9073 1.5159 7.6428 1.9111 11.345 0.94674zm12.776-13.188c-7e-3 -1.8956-0.18841-2.6349-1.0203-4.1486-1.9711-3.5867-5.5608-5.8796-10.078-6.4373-0.99425-0.12275-1.8952-0.36472-2.0022-0.53772-0.32926-0.53276 7.1832-12.357 11.952-18.812 4.1043-5.5555 7.9438-8.71 12.742-10.469l1.9418-0.71176-1e-3 -3.3258c-1e-3 -3.6236 0.71094-6.2989 2.328-8.7424 1.5428-2.3313 1.3724-2.3586-5.7794-0.92585-7.099 1.4221-12.634 3.7714-16.829 7.1427-5.1367 4.1279-7.4388 7.1834-9.2248 12.244-1.1882 3.3664-1.2942 4.3602-0.58443 5.4799 1.3486 2.1276 0.82833 6.3187-1.4524 11.699-0.74227 1.7512-1.6129 3.9904-1.9347 4.976-0.60413 1.8502-0.75008 1.9609-3.1235 2.3685-2.9209 0.50165-4.1812 1.8894-3.2671 3.5974 0.44723 0.83567 0.33558 0.83598 6.0223-0.0172 1.6215-0.24327 4.1684-0.33063 6.1894-0.21231 2.8857 0.16893 3.7744 0.36853 5.5646 1.2499 2.6955 1.327 5.6212 4.19 6.8516 6.7049 1.1945 2.4415 1.7174 2.0975 1.7062-1.1225zm8.9655-25.163c1.7857-0.81124 3.5169-2.7986 3.8131-4.3774 0.30513-1.6264-0.30423-3.5923-1.4396-4.6442l-0.907-0.8404-1.5957 1.8873c-0.87765 1.038-2.7968 3.1408-4.2649 4.673-1.468 1.5321-2.6691 2.8963-2.6691 3.0316 0 1.0036 5.0257 1.1958 7.0632 0.27019zm-40.47-3.619c0-0.0707-0.30744-0.82348-0.68322-1.673-0.832-1.8808-1.8101-7.7975-1.6629-10.058l0.10752-1.65 1.8213 3.397c3.5259 6.5765 5.389 8.4303 8.7143 8.6708 2.8054 0.20293 3.4734-0.29794 4.2566-3.1914 0.34016-1.2566 0.54249-2.3607 0.44963-2.4536-0.0928-0.0928-0.84905-0.0164-1.6804 0.16993-3.7049 0.8303-6.0309-1.0427-9.3959-7.5659-2.6558-5.1484-4.6016-8.1536-6.6663-10.296-1.914-1.9857-3.0516-2.3201-2.699-0.79335 0.12028 0.52091 0.53147 4.1242 0.91377 8.0074 0.3823 3.8832 0.92713 7.9902 1.2107 9.1267 0.96689 3.8751 3.5777 8.4379 4.828 8.4379 0.26729 0 0.48598-0.0578 0.48598-0.12847zm55.966-18.615c3.4096-1.1642 7.4391-2.4695 8.9545-2.9007 5.395-1.5353 8.2933-3.2547 9.5117-5.6428 1.792-3.5126-0.76734-7.9588-9.337-16.221-2.293-2.2107-4.0772-4.0194-3.965-4.0194 0.36076 0 7.5196 3.9852 10.764 5.9924 7.1582 4.4279 11.426 8.6139 14.035 13.765 0.56828 1.1223 1.1882 2.0122 1.3776 1.9776 1.0273-0.18763-0.62045-5.9142-2.5694-8.9296-2.8711-4.4422-6.6789-7.524-16.543-13.389-13.369-7.9489-17.492-11.05-20.5-15.417-1.8461-2.6805-2.3724-2.5596-2.1539 0.49472 0.13357 1.8666 0.47788 3.0396 1.5418 5.2522 1.8639 3.8763 4.363 6.8974 11.901 14.386 6.7284 6.6848 7.8086 8.1745 7.8236 10.789 0.0161 2.8193-2.4321 3.9873-10.557 5.0369-3.0016 0.3877-5.1844 0.84228-5.6667 1.1801-1.9097 1.3376-4.0882 6.2274-4.0882 9.1762 0 1.5658 0.44561 1.8041 2.0664 1.1052 0.66298-0.28586 3.9951-1.4722 7.4047-2.6364z" opacity=".2" stroke="#fff" stroke-width="2.6459"/><path d="m46.108 118.92c6.8452-1.7829 9.4134-7.2734 5.5263-11.815-2.2779-2.6612-3.468-2.7457-2.6993-0.19173 0.95765 3.1821-0.1793 5.867-3.0504 7.2038-3.4946 1.627-8.4928 0.81379-9.7325-1.5834-0.72349-1.3991-0.63831-4.0563 0.18159-5.6645 1.2983-2.5464 0.70417-2.8903-1.9339-1.1193-4.7662 3.1997-4.5746 9.6484 0.36313 12.223 2.9073 1.5159 7.6428 1.9111 11.345 0.94674zm12.776-13.188c-6e-3 -1.8956-0.1884-2.6349-1.0203-4.1486-1.9711-3.5867-5.5608-5.8796-10.078-6.4373-0.99424-0.12275-1.8952-0.36472-2.0022-0.53772-0.32927-0.53276 7.1832-12.357 11.952-18.812 4.1043-5.5555 7.9438-8.71 12.742-10.469l1.9418-0.71177-1e-3 -3.3258c-1e-3 -3.6236 0.71094-6.2989 2.328-8.7424 1.5428-2.3313 1.3724-2.3586-5.7794-0.92585-7.099 1.4221-12.634 3.7714-16.829 7.1427-5.1367 4.1279-7.4388 7.1834-9.2248 12.244-1.1882 3.3664-1.2942 4.3602-0.58443 5.4799 1.3486 2.1276 0.82833 6.3187-1.4524 11.699-0.74227 1.7512-1.6129 3.9904-1.9347 4.976-0.60413 1.8502-0.75008 1.9609-3.1235 2.3685-2.9209 0.50165-4.1812 1.8894-3.2671 3.5974 0.44723 0.83567 0.33558 0.83598 6.0223-0.0172 1.6215-0.24326 4.1684-0.33062 6.1894-0.21231 2.8857 0.16894 3.7744 0.36854 5.5646 1.2499 2.6955 1.327 5.6212 4.19 6.8516 6.7049 1.1945 2.4415 1.7174 2.0975 1.7062-1.1225zm8.9655-25.163c1.7857-0.81124 3.5169-2.7986 3.8131-4.3774 0.30512-1.6264-0.30423-3.5923-1.4396-4.6442l-0.90701-0.8404-1.5957 1.8873c-0.87765 1.038-2.7968 3.1408-4.2649 4.673-1.468 1.5321-2.6691 2.8963-2.6691 3.0316 0 1.0036 5.0257 1.1958 7.0632 0.27019zm-40.47-3.619c0-0.0707-0.30744-0.82348-0.68322-1.673-0.83201-1.8808-1.8101-7.7975-1.6629-10.058l0.10752-1.65 1.8213 3.397c3.5259 6.5765 5.389 8.4303 8.7143 8.6708 2.8054 0.20293 3.4734-0.29794 4.2566-3.1914 0.34016-1.2566 0.54249-2.3607 0.44963-2.4536-0.0928-0.0928-0.84905-0.0164-1.6804 0.16992-3.7049 0.8303-6.0309-1.0427-9.3959-7.5659-2.6558-5.1484-4.6016-8.1536-6.6663-10.296-1.914-1.9857-3.0516-2.3201-2.699-0.79335 0.12028 0.52091 0.53147 4.1242 0.91377 8.0074 0.3823 3.8832 0.92713 7.9902 1.2107 9.1267 0.96688 3.8751 3.5777 8.4379 4.828 8.4379 0.26729 0 0.48597-0.0578 0.48597-0.12847zm55.966-18.615c3.4096-1.1642 7.4391-2.4695 8.9545-2.9007 5.395-1.5353 8.2933-3.2547 9.5117-5.6428 1.792-3.5126-0.76734-7.9588-9.337-16.221-2.293-2.2107-4.0772-4.0194-3.965-4.0194 0.36076 0 7.5196 3.9852 10.764 5.9924 7.1582 4.4279 11.426 8.6139 14.035 13.765 0.56827 1.1223 1.1882 2.0122 1.3776 1.9776 1.0273-0.18763-0.62045-5.9142-2.5694-8.9296-2.8711-4.4422-6.6789-7.524-16.543-13.389-13.369-7.9489-17.492-11.05-20.5-15.417-1.8461-2.6805-2.3724-2.5596-2.1539 0.49472 0.13357 1.8666 0.47787 3.0396 1.5418 5.2522 1.8639 3.8763 4.363 6.8974 11.901 14.386 6.7284 6.6848 7.8086 8.1745 7.8236 10.789 0.0161 2.8193-2.4321 3.9873-10.557 5.0369-3.0016 0.3877-5.1844 0.84228-5.6667 1.1801-1.9097 1.3376-4.0882 6.2274-4.0882 9.1762 0 1.5658 0.44561 1.8041 2.0664 1.1052 0.66298-0.28586 3.9951-1.4722 7.4047-2.6364z" fill="#fff" stroke-width=".3444"/><g transform="translate(0 -161.53)"><path d="m76.462 210.64c-5.2055 0.40372-10.689 2.0156-14.3 3.1992-7.2276 2.3693-12.611 6.9837-18.748 14.107-0.71253 0.82692-1.4669 1.6314-2.1051 2.2585l-0.49611 3.948 0.16745-0.014-0.20801 0.97818c-0.05657 0.26552-0.11372 0.50608-0.17213 0.73115l-1.5336 12.21c0.06482 0.15325 0.06899 0.31554 0.04108 0.50911-0.01707 0.11935-0.09238 0.37577-0.19137 0.68488l-0.2907 2.3146-0.52471-0.0661c-0.08664 0.22238-0.16981 0.44157-0.26054 0.66616-1.1634 2.8788-1.1673 2.8839-2.6376 3.3074-3.3144 0.95429-4.5749 4.4943-2.4587 6.9044l0.98025 1.1165-0.93813 1.1919c-1.633 2.0754-2.2179 3.285-2.3822 5.4358l3.0583-6.1597 9.7911 4.8612 4.5352-5.4145 18.153 15.205c4.4913-3.4762 8.4951-5.6277 13.825-7.5045 2.0912-0.73612 4.5152-1.6753 5.3864-2.0869 2.2575-1.0664 5.2173-3.5727 6.9642-5.8966 4.575-6.0861 5.5181-11.453 3.2465-18.477-0.03801-0.11754-0.06464-0.20221-0.10089-0.31462l-23.214 22.983-18.969-19.159 25.217-24.966c-0.3768 0.13451-0.78978 0.27984-1.065 0.3843-1.7426 0.66166-3.4179 1.305-3.7229 1.4285-0.4789 0.19471-0.55435 0.0334-0.55435-1.1779 0-1.3155 0.41909-2.8924 1.0624-4.3017l-0.11857-0.0343z" fill="#347aa1" stroke-width=".31685"/><path d="m48.904 288.68c-0.56826-0.0836-1.3432-0.28206-1.722-0.44122-0.37884-0.15915-1.1538-0.47464-1.722-0.70107-0.56826-0.22644-1.9843-1.0274-3.1466-1.7799-1.3406-0.86785-3.1922-1.6562-5.0635-2.156-3.4525-0.92193-5.3326-2.1119-6.7733-4.2869-1.4218-2.1465-1.822-3.8792-1.6451-7.1218 0.16656-3.0527 0.90087-4.8837 2.6668-6.6496 1.3172-1.3172 1.3102-1.6902-0.05298-2.8282-0.98216-0.81994-1.0994-1.1122-1.0994-2.7402 0-1.6144 0.12548-1.9344 1.0993-2.8046 0.60461-0.54021 1.7808-1.1538 2.6137-1.3635l1.5144-0.38133 1.4393-3.74c0.79163-2.057 1.3888-4.0767 1.3271-4.4883-0.08994-0.59963-0.8307-1.0311-3.7285-2.1715-5.1421-2.0238-7.0842-3.1239-9.414-5.3329-3.8388-3.6396-4.6189-6.2098-5.5548-18.3-0.32383-4.1834-0.73121-7.1352-1.1862-8.5953-0.38115-1.2231-0.6376-2.2792-0.5699-2.3469 0.31531-0.31531 2.6817 0.42334 4.2792 1.3357 2.3015 1.3144 4.1371 3.6926 7.4941 9.7092 1.6478 2.9533 3.3967 5.5779 4.4545 6.6849 1.5898 1.6638 1.8748 1.8229 3.2718 1.8257 1.4801 3e-3 1.6152-0.0904 4.1134-2.8413 8.9461-9.8511 13.063-12.788 21.525-15.354 4.0992-1.2431 7.8012-1.8769 16.359-2.8006 8.8896-0.95952 11.71-2.0252 11.71-4.4249 0-1.4082-1.2677-2.9667-7.0585-8.6782-8.9614-8.8386-12.289-14.341-12.289-20.32 0-1.9393 0.83471-5.8549 1.2481-5.8549 0.05428 0 0.52829 0.65868 1.0533 1.4637 4.3645 6.6928 9.3884 10.745 21.868 17.638 12.787 7.0631 16.585 10.318 19.907 17.061 1.5957 3.2388 1.6132 3.3119 1.7318 7.2325 0.10414 3.443 0.0188 4.2307-0.6522 6.0271-1.1691 3.1296-4.8315 6.5938-9.9661 9.427-10.341 5.7057-11.278 7.2529-8.7918 14.509 2.7305 7.9688 1.7359 13.996-3.3911 20.548-3.1945 4.0827-5.8807 5.7908-12.911 8.2096-6.1719 2.1234-11.491 5.157-16.861 9.6161-4.8018 3.987-5.7557 4.6726-8.1553 5.8613-2.4316 1.2046-5.4386 1.7184-7.9213 1.3535zm-2.7965-8.2248c6.8452-1.7829 9.4134-7.2734 5.5263-11.815-2.2779-2.6612-3.468-2.7457-2.6993-0.19173 0.95766 3.1821-0.17929 5.867-3.0504 7.2038-3.4946 1.627-8.4928 0.81379-9.7325-1.5834-0.72349-1.3991-0.63831-4.0563 0.1816-5.6645 1.2983-2.5464 0.70416-2.8903-1.9339-1.1193-4.7662 3.1997-4.5746 9.6484 0.36313 12.223 2.9073 1.5159 7.6428 1.9111 11.345 0.94674zm12.776-13.188c-0.0065-1.8956-0.18841-2.6349-1.0203-4.1486-1.9711-3.5867-5.5608-5.8796-10.078-6.4373-0.99425-0.12275-1.8952-0.36472-2.0022-0.53772-0.32926-0.53276 7.1832-12.357 11.952-18.812 4.1043-5.5555 7.9438-8.71 12.742-10.469l1.9418-0.71177-0.0013-3.3258c-0.0013-3.6236 0.71094-6.2989 2.328-8.7424 1.5428-2.3313 1.3724-2.3586-5.7794-0.92585-7.099 1.4221-12.634 3.7714-16.829 7.1427-5.1367 4.1279-7.4388 7.1834-9.2248 12.244-1.1882 3.3664-1.2942 4.3602-0.58443 5.4799 1.3486 2.1276 0.82833 6.3187-1.4524 11.699-0.74227 1.7512-1.6129 3.9904-1.9347 4.976-0.60413 1.8502-0.75008 1.9609-3.1235 2.3685-2.9209 0.50165-4.1812 1.8894-3.2671 3.5974 0.44723 0.83567 0.33558 0.83598 6.0223-0.0172 1.6215-0.24326 4.1684-0.33062 6.1894-0.21231 2.8857 0.16894 3.7744 0.36854 5.5646 1.2499 2.6955 1.327 5.6212 4.19 6.8516 6.7049 1.1945 2.4415 1.7174 2.0975 1.7062-1.1225zm8.9655-25.163c1.7857-0.81124 3.5169-2.7986 3.8131-4.3774 0.30513-1.6264-0.30423-3.5923-1.4396-4.6442l-0.907-0.8404-1.5957 1.8873c-0.87765 1.038-2.7968 3.1408-4.2649 4.673-1.468 1.5321-2.6691 2.8963-2.6691 3.0316 0 1.0036 5.0257 1.1958 7.0632 0.27019zm-40.47-3.619c0-0.0707-0.30744-0.82348-0.68322-1.673-0.832-1.8808-1.8101-7.7975-1.6629-10.058l0.10752-1.65 1.8213 3.397c3.5259 6.5765 5.389 8.4303 8.7143 8.6708 2.8054 0.20293 3.4734-0.29794 4.2566-3.1914 0.34016-1.2566 0.54249-2.3607 0.44963-2.4536-0.09281-0.0928-0.84905-0.0164-1.6804 0.16992-3.7049 0.8303-6.0309-1.0427-9.3959-7.5659-2.6558-5.1484-4.6016-8.1536-6.6663-10.296-1.914-1.9857-3.0516-2.3201-2.699-0.79335 0.12028 0.52091 0.53147 4.1242 0.91377 8.0074s0.92713 7.9902 1.2107 9.1267c0.96689 3.8751 3.5777 8.4379 4.828 8.4379 0.26729 0 0.48598-0.0578 0.48598-0.12847zm55.966-18.615c3.4096-1.1642 7.4391-2.4695 8.9545-2.9007 5.395-1.5353 8.2933-3.2547 9.5117-5.6428 1.792-3.5126-0.76734-7.9588-9.337-16.221-2.293-2.2107-4.0772-4.0194-3.965-4.0194 0.36076 0 7.5196 3.9852 10.764 5.9924 7.1582 4.4279 11.426 8.6139 14.035 13.765 0.56828 1.1223 1.1882 2.0122 1.3776 1.9776 1.0273-0.18763-0.62045-5.9142-2.5694-8.9296-2.8711-4.4422-6.6789-7.524-16.543-13.389-13.369-7.9489-17.492-11.05-20.5-15.417-1.8461-2.6805-2.3724-2.5596-2.1539 0.49472 0.13357 1.8666 0.47788 3.0396 1.5418 5.2522 1.8639 3.8763 4.363 6.8974 11.901 14.386 6.7284 6.6848 7.8086 8.1745 7.8236 10.789 0.01614 2.8193-2.4321 3.9873-10.557 5.0369-3.0016 0.3877-5.1844 0.84228-5.6667 1.1801-1.9097 1.3376-4.0882 6.2274-4.0882 9.1762 0 1.5658 0.44561 1.8041 2.0664 1.1052 0.66298-0.28586 3.9951-1.4722 7.4047-2.6364z" stroke-width=".3444"/><path transform="matrix(.26458 0 0 .26458 0 161.53)" d="m444.34 196.47c-0.24037 4.4391-0.95664 7.1814-2.502 11.318-4.4188 11.828-18.259 24.923-37.666 35.631-31.397 17.324-39.848 24.514-37.09 40.887 2.2901-10.18 12.851-17.512 37.09-30.887 19.407-10.708 33.247-23.8 37.666-35.629 2.4317-6.51 2.8204-9.6124 2.502-21.32zm-67.988 136.79c-1.0803 14.752-7.05 28.378-18.227 42.662-12.074 15.431-22.225 21.887-48.797 31.029-23.327 8.0256-43.431 19.49-63.729 36.344-18.148 15.069-21.755 17.662-30.824 22.154-9.1904 4.5527-20.554 6.4942-29.938 5.1152-2.1478-0.31597-5.0759-1.0664-6.5078-1.668-1.4318-0.60151-4.362-1.7946-6.5098-2.6504-2.1478-0.85583-7.4994-3.8825-11.893-6.7266-5.0667-3.2801-12.064-6.2598-19.137-8.1484-13.049-3.4845-20.155-7.9827-25.6-16.203-3.7831-5.7115-5.6475-10.656-6.1894-17.354-9e-3 0.14787-0.0212 0.28809-0.0293 0.4375-0.66875 12.255 0.84506 18.803 6.2188 26.916 5.445 8.2204 12.551 12.719 25.6 16.203 7.0724 1.8886 14.07 4.8684 19.137 8.1484 4.3932 2.8441 9.7448 5.8707 11.893 6.7266 2.1478 0.8558 5.0779 2.0489 6.5098 2.6504 1.4319 0.60155 4.36 1.352 6.5078 1.668 9.3836 1.379 20.747-0.56256 29.938-5.1152 9.0696-4.4928 12.676-7.0852 30.824-22.154 20.297-16.853 40.402-28.318 63.729-36.344 26.572-9.1419 36.723-15.599 48.797-31.029 13.655-17.452 19.544-33.92 18.227-52.662zm-237.64 52.275c-1.4528-0.15923-4.3351 1.2396-8.6973 4.168-10.459 7.0214-14.59 18.18-12.572 28.211 1.3615-6.8745 5.5281-13.482 12.572-18.211 2.7076-1.8176 4.8246-3.0241 6.4043-3.6562 0.27047-0.74163 0.5681-1.4539 0.9043-2.1133 2.76-5.4137 3.2566-8.1937 1.3887-8.3984zm47.021 1.5352c-1.8375-0.13051-2.2358 2.2028-0.7832 7.0293 0.30272 1.0058 0.52989 1.993 0.72266 2.9707 1.825 0.0745 5.1242 2.6669 9.4785 7.7539 3.2908 3.8445 5.3501 7.8702 6.2852 11.877 1.6823-7.077-0.21303-14.783-6.2852-21.877-4.3047-5.0291-7.5805-7.6234-9.418-7.7539zm-0.0703 19.951c-1.4111 6.1882-5.5882 11.207-12.242 14.305-13.208 6.1493-32.098 3.076-36.783-5.9844-0.65746-1.2714-1.1334-2.8215-1.4414-4.5215-0.85311 5.2203-0.40417 10.953 1.4414 14.521 4.6854 9.0604 23.575 12.134 36.783 5.9844 9.9592-4.6368 14.378-13.571 12.242-24.305z" fill="#fff" opacity=".2" stroke-width="1.3017"/></g></svg>
