<svg width="64" height="64" viewBox="0 0 64 64" fill="none" xmlns="http://www.w3.org/2000/svg">
<path d="M0 32C0 14.3269 14.3269 0 32 0C49.6731 0 64 14.3269 64 32C64 49.6731 49.6731 64 32 64C14.3269 64 0 49.6731 0 32Z" fill="#FF6600"/>
<path d="M63.6 37.8C60.6 49.7999 55.8 52.7999 56.6 52.3999C56.6 52.3999 53.6 57.3999 43.6 61.7999L21 42.2C40.4337 7.59995 34.1544 38.4 45 24.2L63.6 37.8Z" fill="#0A0A0A" fill-opacity="0.24"/>
<rect x="22.4" y="24" width="19.6" height="15.6" fill="#FF6600"/>
<path d="M19 31.45H26.75V22.15H19V31.45ZM19 42.3H26.75V33H19V42.3ZM28.3 42.3H36.05V33H28.3V42.3ZM37.6 42.3H45.35V33H37.6V42.3ZM28.3 31.45H36.05V22.15H28.3V31.45ZM37.6 22.15V31.45H45.35V22.15H37.6Z" fill="white"/>
</svg>
