<svg xmlns="http://www.w3.org/2000/svg" xmlns:xlink="http://www.w3.org/1999/xlink" version="1.1" id="Layer_1" x="0px" y="0px" style="enable-background:new 0 0 512 512;" xml:space="preserve" viewBox="51.2 0 409.67 512">
<style type="text/css">
	.st0{fill:#2D2D2D;}
</style>
<g>
	<path class="st0" d="M307.2,512h-256V0h256c21.5,0,41.4,4.1,60,12.4c18,7.8,34.4,19,48.3,32.9c14.1,13.7,25.1,29.7,32.9,48.3   c8.3,19,12.4,39,12.4,60c0.1,7.9-0.6,15.7-2.2,23.4c-0.4,2-0.9,3.9-1.5,5.9c-2.6,10.1-6.2,19.9-11,29.3c-4.8,9-10.7,17.3-17.6,24.9   c-5.6,6.4-12,12.1-19,16.8c-1,0.8-1.9,1.5-2.9,2.2c8.3,4.9,15.6,11,21.9,18.3c6.8,7.8,12.7,16.3,17.6,25.6   c4.8,9.3,8.5,19.1,11,29.3c1.9,7.2,3.1,14.5,3.7,21.9c0.1,2.4,0.1,4.9,0,7.3c0,21.5-4.1,41.4-12.4,60c-7.8,18-19,34.4-32.9,48.3   c-13.7,14.1-29.7,25.4-48.3,33.6C348.6,508.1,328.6,512,307.2,512z M153.6,102.4v102.4h153.6c5.7,0.2,11.4-0.5,16.8-2.2   c1-0.5,2-0.9,2.9-1.5c6.3-2.4,11.9-6.1,16.8-11c4.7-4.6,8.4-10.1,11-16.1c2.4-6.3,3.7-13.2,3.7-20.5c0-5.7-1-11.4-2.9-16.8   c-0.2-1-0.5-2-0.7-2.9c-2.9-6.3-6.6-11.9-11-16.8c-4.9-4.5-10.6-7.9-16.8-10.2c-5.8-2.6-12-4.1-18.3-4.4c-0.5,0-1,0-1.5,0H153.6z    M153.6,307.2v102.4h153.6c5.7,0,11.4-1,16.8-2.9c1-0.2,2-0.5,2.9-0.7c6.3-2.9,11.9-6.6,16.8-11c4.7-4.6,8.4-10.1,11-16.1   c2.4-6,3.7-12.5,3.7-19c0-0.5,0-1,0-1.5c0-5.7-1-11.4-2.9-16.8c-0.2-1-0.5-2-0.7-2.9c-2.9-6.3-6.6-11.9-11-16.8   c-4.8-4.7-10.5-8.5-16.8-11c-5.8-2.6-12-4.1-18.3-4.4c-0.5,0-1,0-1.5,0H153.6V307.2z"/>
</g>
</svg>