<svg xmlns="http://www.w3.org/2000/svg" xmlns:xlink="http://www.w3.org/1999/xlink" version="1.1" id="Layer_1" x="0px" y="0px" style="enable-background:new 0 0 512 512;" xml:space="preserve" viewBox="0 121.7 512 268.6">
<g>
	<path d="M512,390.3h-82.1l-39.5-67.5h75.1L512,390.3z" fill="#ffffff"/>
	<path d="M334.6,389.5h-32.8v-88.4v44.1l72.4-44.4V350C374.2,371.8,356.4,389.5,334.6,389.5" fill="#ffffff"/>
	<path d="M301.8,301.1h-44l12.7-36.1c4.7-13.4,17.2-22.6,31.3-23.2v-120h92.7c18.3,0,34.2,2.2,47.6,6.5c11.3,3.6,20.9,8.9,28.7,15.6   c16.9,14.8,25.4,35.8,25.4,63c0,10.3-1,19.7-3.1,28.4c-4,16.6-11.7,30.2-23.3,40.9c-2.7,2.5-5.5,4.7-8.5,6.8   c-15.9,11.1-36.7,17-62.2,17.6h-0.4l-22.8,0.1h-1.6L301.8,301.1L301.8,301.1z M374.2,195.1l-72.4,46.7l72.4,0v0h14.9   c8.1,0,16.1-2.5,22.3-7.7c0.6-0.4,1.1-0.9,1.6-1.4l0.2-0.2c6.4-6.1,9.6-14.5,9.6-25.3c0-18.1-10-27.1-30.1-27.1h-18.7V195.1" fill="#ffffff"/>
	<path d="M301.8,241.8l72.4-46.7v46.7L301.8,241.8" fill="#ffffff"/>
	<path d="M301.8,345.1v-44.1h1.6l70.8-0.3L301.8,345.1" fill="#ffffff"/>
	<path d="M244.5,188.3c0,13.9-3.3,25.9-9.9,36h-64.1v-18.5c0.2-2.1,0.2-4.4,0-6.9c-1.1-15-11.3-22.5-34-22.5h-20.3v42.7H43.9v-97.4   h93.3c36.4,0,63.3,5.4,80.9,16.2C235.7,148.7,244.5,165.5,244.5,188.3" fill="#ffffff"/>
	<path d="M148,389.1H43.9v-82.3H0l12.6-36.1c4.9-13.9,18-23.2,32.8-23.2h145.1c4.2,0,8.2,0.4,12.1,1.3v0.2   c7.1,1.9,13.4,4.3,18.9,7.3l0.2,0.1c11.2,7,19.9,17.5,24.5,30c0.3,0.8,0.6,1.7,0.8,2.6l0,0.2c1.5,5.4,2.3,11.2,2.6,17.6   c0.1,1.3,0.1,2.6,0.1,4c0,24.3-9.1,43.4-27.4,57.3C204.3,382.1,179.4,389.1,148,389.1 M43.9,306.8v47.3l72.3-47.3v26.5h25.4   c21.7,0,33-8.8,33.7-26.5h-59.1H43.9z" fill="#ffffff"/>
	<path d="M43.9,354.1v-47.3h72.3L43.9,354.1z" fill="#ffffff"/>
</g>
</svg>