<svg xmlns="http://www.w3.org/2000/svg" xmlns:xlink="http://www.w3.org/1999/xlink" viewBox="0 0 234 343.41"><defs><linearGradient id="a" x1="-29.25" y1="662.02" x2="-23.09" y2="658.46" gradientTransform="matrix(24.45, 0, 0, -24.45, 967.18, 16420.97)" gradientUnits="userSpaceOnUse"><stop offset="0" stop-color="#37bdff"/><stop offset="0.18" stop-color="#33bffd"/><stop offset="0.36" stop-color="#28c5f5"/><stop offset="0.53" stop-color="#15d0e9"/><stop offset="0.55" stop-color="#12d1e7"/><stop offset="0.59" stop-color="#1cd2e5"/><stop offset="0.77" stop-color="#42d8dc"/><stop offset="0.91" stop-color="#59dbd6"/><stop offset="1" stop-color="#62dcd4"/></linearGradient><linearGradient id="b" x1="-32.86" y1="656.68" x2="-23.89" y2="656.68" gradientTransform="matrix(24.45, 0, 0, -24.45, 967.18, 16420.97)" gradientUnits="userSpaceOnUse"><stop offset="0" stop-color="#39d2ff"/><stop offset="0.15" stop-color="#38cefe"/><stop offset="0.29" stop-color="#35c3fa"/><stop offset="0.43" stop-color="#2fb0f3"/><stop offset="0.55" stop-color="#299aeb"/><stop offset="0.58" stop-color="#2692ec"/><stop offset="0.76" stop-color="#1a6cf1"/><stop offset="0.91" stop-color="#1355f4"/><stop offset="1" stop-color="#104cf5"/></linearGradient><linearGradient id="c" x1="-31.2" y1="655.9" x2="-31.2" y2="667.89" gradientTransform="matrix(24.45, 0, 0, -24.45, 967.18, 16420.97)" gradientUnits="userSpaceOnUse"><stop offset="0" stop-color="#1b48ef"/><stop offset="0.12" stop-color="#1c51f0"/><stop offset="0.32" stop-color="#1e69f5"/><stop offset="0.57" stop-color="#2190fb"/><stop offset="1" stop-color="#26b8f4"/></linearGradient><clipPath id="d" transform="translate(-163 -82.94)"><rect x="163.02" y="288.38" width="227.17" height="140.76" style="fill:none"/></clipPath><linearGradient id="e" x1="-31.08" y1="654.47" x2="-25.54" y2="660" gradientTransform="matrix(24.45, 0, 0, -24.45, 967.18, 16420.97)" gradientUnits="userSpaceOnUse"><stop offset="0" stop-color="#fff"/><stop offset="0.37" stop-color="#fdfdfd"/><stop offset="0.51" stop-color="#f6f6f6"/><stop offset="0.6" stop-color="#ebebeb"/><stop offset="0.68" stop-color="#dadada"/><stop offset="0.75" stop-color="#c4c4c4"/><stop offset="0.81" stop-color="#a8a8a8"/><stop offset="0.86" stop-color="#888"/><stop offset="0.91" stop-color="#626262"/><stop offset="0.95" stop-color="#373737"/><stop offset="0.99" stop-color="#090909"/><stop offset="1"/></linearGradient><clipPath id="f" transform="translate(-163 -82.94)"><rect x="163.02" y="82.87" width="86.51" height="302.96" style="fill:none"/></clipPath><linearGradient id="g" x1="-31.2" y1="668.1" x2="-31.2" y2="656.02" xlink:href="#e"/></defs><title>bing-logo</title><path d="M397,303.4a92.73,92.73,0,0,1-24.84,63.16,41.81,41.81,0,0,0,4.5-6,38.11,38.11,0,0,0,2.69-5.08,17.7,17.7,0,0,0,.74-1.78,17.25,17.25,0,0,0,.65-1.78c.21-.56.39-1.14.55-1.72s.33-1.2.46-1.81l.07-.21c.14-.6.25-1.2.37-1.81s.23-1.25.33-1.88v0c.09-.58.16-1.16.21-1.76a40,40,0,0,0,.21-4.13A41.41,41.41,0,0,0,377,317.11a36.51,36.51,0,0,0-2.85-4.17,39.93,39.93,0,0,0-4-4.43,41.45,41.45,0,0,0-12.36-8.28,38.78,38.78,0,0,0-6.22-2.14l-.09,0-.74-.25-10.81-3.71v0l-28.27-9.72c-.09,0-.21,0-.28,0l-1.77-.65A26.23,26.23,0,0,1,296.29,272L286,245.62l-11.83-30.16-2.27-5.82-.58-1.18a13.35,13.35,0,0,1-1-5.08,12,12,0,0,1,0-1.35,13.19,13.19,0,0,1,18.26-10.79l52.69,27,10.39,5.31A91.11,91.11,0,0,1,367,235a92.45,92.45,0,0,1,29.79,61.87C396.91,299.06,397,301.22,397,303.4Z" transform="translate(-163 -82.94)" style="fill:url(#a)"/><path d="M382.91,338.56a42.8,42.8,0,0,1-.72,7.82c-.14.67-.28,1.35-.44,2-.3,1.2-.62,2.36-1,3.53-.21.6-.42,1.2-.65,1.78s-.49,1.18-.74,1.78a38.1,38.1,0,0,1-2.69,5.08,42.22,42.22,0,0,1-4.5,6c-7.68,8.49-33.75,23.63-43.36,29.79l-21.33,13c-15.63,9.63-30.41,16.45-49,16.91-.88,0-1.74,0-2.6,0-1.2,0-2.39,0-3.57-.07a92.86,92.86,0,0,1-74.92-43.17,91.58,91.58,0,0,1-13.68-38.67,41.13,41.13,0,0,0,60,28.95l.14-.07,2.09-1.25,8.49-5,10.81-6.4v-.3l1.39-.83,96.71-57.29,7.44-4.41.74.25.09,0a38.31,38.31,0,0,1,6.22,2.14,41.45,41.45,0,0,1,12.36,8.28,40,40,0,0,1,4,4.43,37,37,0,0,1,2.85,4.17A41.64,41.64,0,0,1,382.91,338.56Z" transform="translate(-163 -82.94)" style="fill:url(#b)"/><path d="M245.24,147.35l0,213.29L234.39,367l-8.5,5-2.09,1.27a.24.24,0,0,0-.13.06,41.13,41.13,0,0,1-60-28.94c-.16-.89-.28-1.81-.38-2.7-.13-1.68-.22-3.33-.25-5v-240a13.77,13.77,0,0,1,21.46-11.41l42.07,27.48a5.55,5.55,0,0,0,.73.51A41.14,41.14,0,0,1,245.24,147.35Z" transform="translate(-163 -82.94)" style="fill:url(#c)"/><g style="opacity:0.14900000393390656;isolation:isolate"><g style="clip-path:url(#d)"><path d="M382.91,338.56a42.8,42.8,0,0,1-.72,7.82c-.14.67-.28,1.35-.44,2-.3,1.2-.62,2.36-1,3.53-.21.6-.42,1.2-.65,1.78s-.49,1.18-.74,1.78a38.1,38.1,0,0,1-2.69,5.08,41.81,41.81,0,0,1-4.5,6c-7.68,8.49-33.75,23.63-43.36,29.79l-21.33,13c-15.63,9.63-30.41,16.45-49,16.91-.88,0-1.74,0-2.6,0-1.2,0-2.39,0-3.57-.07a92.86,92.86,0,0,1-74.92-43.17,91.58,91.58,0,0,1-13.68-38.67,41.13,41.13,0,0,0,60,28.95l.14-.07,2.09-1.25,8.49-5,10.81-6.4v-.3l1.39-.83,96.71-57.29,7.44-4.41.74.25.09,0a38.31,38.31,0,0,1,6.22,2.14,41.45,41.45,0,0,1,12.36,8.28,40,40,0,0,1,4,4.43,37,37,0,0,1,2.85,4.17A41.64,41.64,0,0,1,382.91,338.56Z" transform="translate(-163 -82.94)" style="fill:url(#e)"/></g></g><g style="opacity:0.09799999743700027;isolation:isolate"><g style="clip-path:url(#f)"><path d="M245.24,147.35l0,213.29L234.39,367l-8.5,5-2.09,1.27a.24.24,0,0,0-.13.06,41.13,41.13,0,0,1-60-28.94c-.16-.89-.28-1.81-.38-2.7-.13-1.68-.22-3.33-.25-5v-240a13.77,13.77,0,0,1,21.46-11.41l42.07,27.48a5.55,5.55,0,0,0,.73.51A41.14,41.14,0,0,1,245.24,147.35Z" transform="translate(-163 -82.94)" style="fill:url(#g)"/></g></g></svg>