<svg xmlns="http://www.w3.org/2000/svg" version="1.2" viewBox="0 0 1000 1000"><defs><linearGradient id="b" x1="283.3" x2="888450" y1="163.3" y2="163.3" gradientUnits="userSpaceOnUse"><stop offset="0" stop-opacity=".3"/><stop offset="1" stop-opacity="0"/></linearGradient><clipPath id="a" clipPathUnits="userSpaceOnUse"><path d="M999.99 500.1v376.42c0 57.51-43.38 110.07-100.01 120.86-8.39 1.62-17.05 2.51-25.55 2.51-250.13.15-500.2.1-750.33.1-61.32 0-114.82-47.03-122.85-108.04q-.29-2.02-.5-4.05-.22-2.03-.37-4.06-.15-2.04-.23-4.08-.08-2.04-.1-4.08C0 624.93 0 374.18 0 123.47 0 65.96 43.38 13.35 100.01 2.61 108.4.99 117.06.1 125.56.1 375.9 0 626.23 0 876.52 0c57.51 0 110.18 43.43 120.86 100.01 1.57 8.39 2.51 17.05 2.51 25.55.15 124.88.1 249.71.1 374.54z"/></clipPath></defs><g clip-path="url(#a)"><path fill="#175ddc" d="M1000 500.1v376.4c0 57.5-43.4 110.1-100 120.9-8.4 1.6-17.1 2.5-25.6 2.5-250.1.1-500.2.1-750.3.1-61.3 0-114.8-47-122.8-108q-.3-2.1-.6-4.1-.2-2-.3-4.1-.2-2-.3-4v-4.1C0 624.9 0 374.2 0 123.5 0 66 43.4 13.3 100 2.6 108.4 1 117.1.1 125.6.1 375.9 0 626.2 0 876.5 0 934 0 986.7 43.4 997.4 100c1.5 8.4 2.5 17.1 2.5 25.6.1 124.8.1 249.7.1 374.5z"/><path fill="url(#b)" d="M803.3 163.3 1500 860l-391.7 723.3-825-825 216.7 125 291.7-291.6z"/></g><path fill="#fff" fill-rule="evenodd" d="M812.2 183.8v374c0 27.9-5.5 55.5-16.4 83-10.8 27.4-24.3 51.7-40.3 73q-24.3 31.8-57.5 62c-22.3 20.2-42.8 36.9-61.7 50.2-18.8 13.2-38.5 25.8-59 37.7-20.5 11.8-35 20-43.6 24.1-8.5 4.2-15.5 7.4-20.7 9.7-3.8 2-8.2 3-12.7 3s-8.8-1-12.6-3c-5.2-2.2-12-5.5-20.7-9.7-8.7-4.3-23.2-12.3-43.7-24.1-20.5-11.9-40.1-24.4-59-37.7-18.8-13.3-39.5-30-61.6-50.2q-33.5-30-57.5-62-24.3-31.7-40.5-73c-10.9-27.3-16.4-55.1-16.4-83v-374c0-8.5 3.2-15.6 9.4-21.8 6.1-6.2 13.3-9.3 21.8-9.3h561c8.3 0 15.7 3.1 21.8 9.3 6.2 6.2 9.4 13.3 9.9 21.8zM730 232.7H500v580.6s230-116.6 230-252V232.7z"/></svg>