<svg xmlns="http://www.w3.org/2000/svg" version="1.2" viewBox="0 0 1000 1000"><path fill="#394655" d="M556.7 817.6c-15.9-10.6-31.7-19.3-43.8-26.8-12-7.5-20.6-13.7-25.7-18.7-5.1-4.9-7-8.6-5.8-10.8 1.3-2.3 4.8-2.7 10.5-1.2 5.7 1.4 13.5 4.7 24 9.8 10.5 5.2 23.9 12.2 39.5 21.2 15.6 9 33.4 20 47.7 34 14.3 13.9 23.1 28.1 29.5 40.2 6.5 12.1 9.6 23.2 12.4 32.5 2.8 9.4 4.9 17.1 5 24.1.1 6.9-1.8 13-6.6 18.3-4.8 5.4-9.2 6.9-13.5 5.5-4.4-1.5-8.6-5.9-13.5-12.7-4.8-6.8-11-15.5-12.5-29-1.6-13.6 1.5-31.8-6.9-47.6-8.3-15.8-24.3-28.3-40.3-38.8z"/><path fill="#e1d6b9" d="M566 818.6c-13.2-9.2-26.6-16.8-37.3-23.3-10.6-6.5-18.7-11.7-23.8-15.8-5.1-4.1-7.4-7-6.7-8.5.8-1.5 3.6-1.4 8.6.3 4.9 1.6 11.9 4.8 21.2 9.5 9.3 4.7 21.1 10.9 34.2 18.8 13.1 7.9 27.6 17.5 39.4 29.6 11.8 12 20 24.5 25.8 35.8 5.7 11.3 8.4 21.9 11.1 30.9 2.7 9 5.2 16.3 5.9 22.7.8 6.3-.4 11.6-4.3 15.9-4 4.4-7.6 5-11.4 2.9-3.8-2.2-8-7-12.2-14.1-4.2-7-7.3-16.9-7.4-30.1-.2-13.2-.7-28.1-8.9-41.2-8.3-13.1-21-24.1-34.2-33.4z"/><path fill="#96d6ff" d="M605.7 110.2c.6-6.4 2.9-12.8 6.3-18.6 3.5-5.8 8.2-11.2 13.7-15.8 5.5-4.7 11.7-8.7 18.4-12 6.8-3.3 13.4-5.6 19.7-7 6.3-1.3 12.3-1.8 17.7-1.3 5.5.4 10.5 1.8 14.7 4.3 4.2 2.4 7.8 5.9 10.3 10.6 2.6 4.6 4 10 4.3 16 .3 5.9-3.2 14-7.1 22-3.9 8-4.9 14.6-6.2 20.5-1.3 5.9-3.4 12.3-9.5 17.4-6 5.2-14.5 8.1-21.6 9.9-7.2 1.8-14.4 2-21.7.8-7.3-1.1-14.9-3.6-21.5-7.6-6.7-4-12.3-9.6-15.2-16.5-3-7-2.8-16.2-2.3-22.7z"/><path fill="#394655" d="M647.5 57.9q1.9-.8 3.9-1.5t4-1.3q2-.6 4-1.1l4.2-1q2.4-.5 4.8-.8 2.4-.4 4.9-.6 2.4-.1 4.9-.1 2.5 0 4.9.1c6 .6 11.5 2.1 16.2 4.7q1.9 1 3.6 2.3 1.6 1.3 3.1 2.7 1.5 1.5 2.7 3.1 1.2 1.6 2.2 3.3c2.9 5.1 4.6 10.9 5 17.4.5 6.4-2 14.6-6.4 23.3-4.4 8.7-5.7 16-7 22.4-1.4 6.3-5.6 12.2-13.3 17-.9.6-2.8-1.8-2.2-2.4 6-5.4 7.5-11.7 9.5-17 1.3-5.7 2.3-12.2 6.2-20 3.8-7.8 7.3-15.7 7-21.5-.3-5.7-1.6-11-4.1-15.5q-.8-1.6-1.9-3-1-1.5-2.3-2.8-1.3-1.3-2.8-2.4-1.4-1.2-3.1-2.1c-4.1-2.4-8.9-3.8-14.3-4.2-5.3-.5-11.2 0-17.3 1.3l-2.4.6-2.4.6q-1.2.3-2.4.7-1.2.4-2.3.8-3.9 1.3-7.6 3-3.7 1.7-7.2 3.7t-6.8 4.2q-3.3 2.3-6.3 4.8c-5.3 4.6-9.9 9.8-13.3 15.5-3.4 5.6-5.7 11.8-6.2 18.1-.6 6.3-.7 15.3 2.1 22 2.3 5.6 6.3 10.3 11.4 13.8 1 .7-2.9 4.7-5.8 2.9-5.4-3.3-9-8.6-11.4-14.2-3.1-7.6-3.6-17.2-3-24.4q.2-2.6.8-5.2.5-2.7 1.3-5.2.9-2.6 2-5.1 1.2-2.4 2.6-4.8 1.4-2.4 3.1-4.6 1.7-2.3 3.5-4.4 1.9-2.2 3.9-4.2 2.1-2 4.3-3.8 2.8-2.4 5.9-4.5 3-2.1 6.2-4t6.6-3.6q3.4-1.6 7-3z"/><path fill="#394655" d="M689.8 95.9c-4.1 1.7-4.6 3.7-8.7 6.6-4.8 3.3-8.6 7.9-11.3 13-.6 1.3-1.6 3-3 3.3-.3-1.5.1-2.6.5-3.7 1.1-3.2 3.4-5.8 5.4-8.5 3.7-4.9 10.3-11.3 16.1-12.9 3.9-1.1 6.3-.6 7.3 1-2.2.7-3.7.1-6.3 1.2z"/><path fill="#394655" d="M676.2 104.8c2.6 1.4 4.1 3.1 6.9 4.3 1.4.7 3 .9 4.5 1.4 1.6.6 3.1 1.2 4.6 2.2 1.4.9.9 2.7-.8 2-5.2-2-10.3-4.3-15.6-6.1-1.4-.5-3.5-4.2-2.4-3 .6.7 1.8-1.3 2.8-.8zM804.1 580.6c-12.8 106.1-35.6 209.1-116 279.4-101.4 88.8-257.9 90.5-389.8 6.3-38.2-24.3-68.5-91.9-73.4-135.7-10.2-91.4-2.5-143.3-11.2-227.7-7-67.1-41-122.7-37.8-202.7 2.1-53.6 15.3-116 56-149.2 53.4-43.4 115.7-68.3 186.3-66.6 100.6 2.4 209.1 9.4 293.5 73.9 60.3 46 94.8 122.1 100.9 200.1 6.2 80.2-.2 154.6-8.5 222.2z"/><path fill="#8dc9f0" d="M778.9 678.7c-21.5 97.5-80.8 188.4-185.9 224.4-97.7 33.4-196.3 15.6-291.3-47.7-36.2-24.2-63.8-91-67.7-132.4-8.4-87.2-3.6-141.2-11.5-221.7-6.6-67.2-38.8-115.9-37.8-195.6.7-52.1 12.5-113.8 52.3-146.1 50.6-41 108.4-66.9 175-66.6 105.4.5 224.3 8.2 308.2 83.8 76.8 69.1 87.7 190.9 84.2 285.9-3 78.4-10.7 148.9-25.5 216z"/><path fill="#96d6ff" d="M261.8 131.6c4.9 8.5 6.4 17.9 5.7 26.8-.7 9-3.6 17.4-7.6 24.5-4 7.1-9.2 13.1-16 17.7-6.8 4.6-15.6 9.4-25 10.2-9.3.8-17.2-3-24.1-7.3-6.9-4.3-14.6-9.9-25.6-14-10.9-4.2-21.7-8.6-27.7-14.7s-10.8-12.8-14-19.9c-3.2-7.2-4.6-14.1-4.4-20.6.2-6.6 2-12.8 5.1-18.4 3.2-5.6 7.7-10.7 13.4-14.9 5.8-4.2 12.9-7.5 21.2-9.6 8.3-2.1 17.2-2.8 26.2-2.1 9 .7 18.2 2.7 26.9 6 8.8 3.3 17.1 7.8 24.3 13.6 7.1 5.8 16.7 14.2 21.6 22.7z"/><path fill="#394655" d="m156 88.2 1.6-.6q.8-.2 1.6-.5.9-.2 1.7-.4 3.4-.9 6.9-1.5 3.5-.7 7.1-1 3.5-.3 7.1-.4 3.5 0 7.1.3 3.7.2 7.4.7 3.7.5 7.3 1.3 3.7.8 7.2 1.8 3.6 1.1 7.1 2.4 3.5 1.3 7 2.8 3.4 1.6 6.7 3.5 3.3 1.8 6.4 3.9 3.1 2.1 6.1 4.5c7.7 6.2 17.2 15.3 22.6 24.4 3.9 6.8 6.6 14.3 6.1 21.5-.3 4-7 3.8-7 2.5q0-2.9-.3-5.6-.4-2.8-1.1-5.5-.7-2.8-1.8-5.4-1.1-2.6-2.5-5c-4.8-8.3-14.1-16.5-21.1-22.1q-2.7-2.1-5.5-4t-5.8-3.6q-3-1.7-6.1-3.1-3.1-1.4-6.3-2.6-3.1-1.2-6.4-2.2-3.2-.9-6.5-1.7-3.3-.7-6.7-1.2-3.3-.5-6.7-.7-3.2-.3-6.4-.3t-6.5.3q-3.2.2-6.4.7-3.1.5-6.3 1.3-6.1 1.6-11.3 4c-3.4 1.5-6.5 3.4-9.4 5.4q-2 1.5-3.8 3.1-1.9 1.7-3.5 3.5-1.7 1.8-3.1 3.8-1.5 2.1-2.7 4.2c-3.1 5.5-4.8 11.6-5 18q0 2.6.2 5.1.3 2.6.8 5.1.5 2.6 1.4 5 .8 2.5 1.9 4.8 1.3 2.7 2.8 5.3 1.5 2.6 3.2 5.1 1.7 2.4 3.6 4.7 2 2.3 4.1 4.4c5.8 5.9 16.4 10.2 27.1 14.2 10.7 4.1 18.2 9.5 24.9 13.7 6.9 3.2 14.3 7.6 23.9 7 1.1 0 2.1 3.6.9 3.9-10.2 2.5-19 1.2-26.4-3.3-7.4-4.6-15.8-10.5-27.8-14.6-12-4.2-22.1-9.6-28.5-16.2q-2.3-2.4-4.4-4.9-2.1-2.6-3.9-5.3-1.9-2.8-3.5-5.7-1.6-2.9-3-5.9-1.1-2.6-2-5.4-.9-2.8-1.5-5.6-.5-2.9-.8-5.8-.2-2.9-.1-5.8.1-2.6.5-5.3.4-2.6 1.2-5.2.7-2.5 1.7-5 1-2.4 2.3-4.8 1.4-2.4 3-4.7 1.6-2.3 3.4-4.4 1.9-2.1 3.9-3.9 2.1-1.9 4.3-3.6 1.9-1.4 3.9-2.7 1.9-1.2 4-2.3 2-1.1 4.2-2.1 2.1-1 4.3-1.8.8-.2 1.6-.5z"/><path fill="#394655" d="M173.2 145c.7-2.7 4.1-4.6 10.2-4.9 9.3-.5 22.2 5.9 29.9 11.4 4.2 3 8.8 5.7 12.1 9.9 1.1 1.4 2.1 2.8 2.4 5.2-2.1.2-4.4-1.8-6-3.4-6.4-6.3-14.1-11.2-22.8-13.9-7.4-2.2-9.1-4.9-15.9-5.5-4.4-.4-6.3 1.2-9.9 1.2z"/><path fill="#394655" d="M211.8 150.3c1.1-2.3-.3 4.2-2.1 5.6-7 5.1-13.3 11-20.1 16.4-2.2 1.7-3.7-.6-2.1-2.7 1.7-2 3.7-3.7 5.7-5.3 1.9-1.5 4.2-2.6 6-4.2 3.5-3.1 4.9-6.3 8.2-9.7 1.1-1.1 3.8 1.2 4.4-.1z"/><path fill="#e1d6b9" d="M399.8 887.9c1.5 2.3 1.4 5.2.1 8.5-1.3 3.4-3.7 7.1-6.3 11.1-2.6 3.9-5.3 8.1-7.1 12.4-1.8 4.3-2.9 8.5-3.9 12.3-1 3.8-1.9 7.2-3.3 10-1.3 2.8-3.1 5-5.6 6.3-2.4 1.3-5.5 1.7-9.4 1-3.8-.8-6.5-2.3-8.3-4.5-1.7-2.1-2.6-4.9-2.8-8.1-.2-3.1.2-6.7 1.1-10.6.8-3.9 2.1-8.1 3.8-12.4 1.8-4.3 3.5-8.5 5.3-12.5 1.8-4 3.6-7.8 5.7-10.8 2-3.1 4.5-5.5 7.8-6.9 3.3-1.4 7.5-1.7 12.8-.7 5.4 1 8.6 2.6 10.1 4.9z"/><path fill="#394655" d="M402.9 895.9c-.9 3.2-2.8 6.8-4.9 10.7-2.4 4.4-5.2 9.1-7.3 14-2 5-3.4 9.7-4.8 14-1.3 4.4-2.7 8.2-4.6 11.4-1.8 3.2-4.2 5.7-7.3 7.2-3 1.5-6.7 2-10.9 1.3s-7.4-2.4-9.5-4.9c-2.2-2.5-3.4-5.8-3.9-9.5-.5-3.8-.3-8.1.5-12.7s2.2-9.4 4.1-14.4c2-4.9 4-9.6 6-13.9 2-4.3 4.1-8.1 6.5-11.2q.3-.5.6-.9.4-.4.7-.8l.8-.8q.4-.4.8-.7c2.1-1.9 8.1-.4 5.5 1.1-2.4 1.3-3.1 3.1-4.7 5.6-2 2.9-3.4 6.8-5 10.4-1.5 3.7-4.4 7.2-6 11-1.5 3.8-2.7 7.5-3.5 11.1-.7 3.5-1.1 6.9-.9 9.9.2 3 1 5.6 2.6 7.6 1.7 2 4.1 3.4 7.5 4.1 3.5.6 6.2.3 8.2-1 2-1.2 2.2-4.7 3.1-7.3 1-2.6 2.5-5.8 3.4-9.1.8-3.4 2.3-5.5 4.3-9.2 2.1-3.7 5.3-7.4 8.2-11.1 2.9-3.8 5.3-7.4 6.5-10.6q.3-.6.5-1.2c.3-1 .5-1.9.5-2.8 0-1.1 4.1-1.4 3.4 1.3-.2.5-.2.9-.4 1.4zM298.1 269.4c7.3-16.6 18-31.5 31.4-44.1 13.4-12.5 29.4-22.8 47.3-30.1q6.9-2.8 14-4.9 7.1-2.2 14.4-3.7 7.3-1.4 14.7-2.2 7.4-.8 14.9-.9c20.5-.3 40.2 3.4 58.1 10.5 17.9 7.2 34.2 17.7 48 31.1 13.7 13.4 25 29.6 33 47.7 8.1 18.1 12.8 38.2 13.4 59.3.6 21-3 41.1-10.1 59.1-7 18-17.5 34.1-30.6 47.2-13 13.2-28.8 23.4-46.4 30-17.6 6.6-37 9.5-57.6 8.1-20.6-1.4-40.3-6.9-58.5-15.6-18.2-8.6-34.7-20.4-48.8-34.3-14.1-13.9-25.7-29.9-33.9-47.3-8.3-17.4-13.1-36.1-13.7-55.6-.6-19.4 3.2-37.7 10.4-54.3z"/><path fill="#fff" d="M308.9 269c7.2-15.2 17.5-28.6 30.2-39.8 12.6-11.1 27.7-20.1 44.4-26.3 16.7-6.2 35-9.6 54.3-9.5 19.2.1 37.5 3.7 54.2 10.4 16.8 6.7 31.9 16.5 44.8 28.9q4.8 4.6 9.2 9.8 4.4 5.1 8.3 10.7 3.9 5.5 7.2 11.4 3.3 5.9 6 12.1c7.4 16.7 11.7 35.4 12.2 55 .4 19.7-3.2 38.4-9.9 55.4-6.8 17-16.8 32.2-29.3 44.7-12.5 12.4-27.4 22.3-44.2 28.6-16.8 6.3-35.4 9.2-55.1 7.8-19.6-1.4-38.5-6.9-55.7-15.5-17.2-8.6-32.7-20.3-45.7-34s-23.5-29.5-30.8-46.3c-7.2-16.9-11.2-34.8-11.2-53.1 0-18.3 4-35.2 11.1-50.3z"/><path fill="#394455" d="M503.5 352.3c-22.4 0-40.5-18.1-40.5-40.5s18.1-40.5 40.5-40.5 40.5 18.1 40.5 40.5-18.1 40.5-40.5 40.5z"/><path fill="#fff" d="M521.4 313.1c-11 0-19.9-8.9-19.9-19.9 0-11 8.9-20 19.9-20 11.1 0 20 9 20 20s-8.9 19.9-20 19.9z"/><path fill="#394655" d="M699.1 197.2c7-10.1 17.1-17.5 29.1-22.1 12-4.5 26-6.2 40.7-4.7 14.8 1.5 30.4 6.1 45.7 14.2 15.3 8 28.7 18.8 39.6 31.4 10.9 12.7 23.4 31.9 28.9 47.5 5.5 15.6 8.1 32.3 7.6 49.1-.4 16.8-4 33.7-10.6 49.7-6.6 16.1-15.6 29.7-25.8 40.7-10.3 10.9-21.8 19.2-33.5 24.5-11.6 5.3-25.3 3.4-36.2 2.5-10.9-.9-20.9-5.2-30.1-13.3-9.1-8.2-16.5-19.7-23.3-33.4-6.7-13.8-13-29.9-19.1-46.8-6.2-17-12.3-34.7-16.9-51.9-4.7-17.2-7.9-33.8-7.5-49.2.4-15.3 4.4-28.1 11.4-38.2z"/><path fill="#fff" d="M705.5 202.2c6.5-9.2 15.5-15.9 26.4-19.9 10.9-4.1 23.5-5.5 37-4 13.5 1.6 27.8 6 41.9 13.6q5.2 2.8 10.1 6 4.9 3.3 9.5 7t8.8 7.8q4.3 4.1 8.1 8.6c10.2 11.8 22.2 30.2 27.4 44.7 5.2 14.6 7.7 30.1 7.5 45.7-.3 15.6-3.3 31.4-9.1 46.4-5.8 14.9-13.8 27.7-22.9 38-9.2 10.2-19.4 18-29.9 22.9-10.5 5-23.1 3-33.1 2.2-10-.9-19.5-4.9-28.4-12.6-8.9-7.7-16.6-18.4-23.7-31.4-7.1-13.1-13.8-28.3-19.9-44.5-6.1-16.1-11.6-33.1-15.4-49.3-3.9-16.3-6.1-31.9-5.3-46.1.8-14.3 4.6-26 11-35.1z"/><path fill="#394455" d="M813.8 285.2c5.3-16.4 22.8-25.4 39.1-20.1 16.4 5.2 25.4 22.7 20.2 39.1-5.2 16.4-22.7 25.4-39.1 20.1-16.4-5.2-25.4-22.7-20.2-39.1z"/><path fill="#fff" d="M841.4 278.3c2.6-8 11.2-12.5 19.3-9.9 8 2.6 12.5 11.2 9.9 19.2-2.6 8.1-11.2 12.5-19.3 10-8-2.6-12.4-11.2-9.9-19.3z"/><path fill="#b3b3b3" d="m247.4 734.2 96-54.1 16.4 29.1-96 54z"/><path fill="#aeece6" d="m648.2 528.8 88.3-20.5-61.4 58.7-303.5 148.2-25.3-45.2z"/><path fill="#d3f5f1" d="m675.1 567.1-303.3 148-.6-.6-1.8-3.2 304.4-146.7 52.8-50.5-78.1 17.9-299.8 142.2-2.4-4.2 301.9-141.2 88.3-20.5z"/><path fill="#d3f5f1" d="m355.5 678.4 297.3-139.1 54.9-15.9-43.6 31.4-299.2 142.8z"/><path fill="#616161" d="m320.7 663.8 2.5-15.3 17.9 3.2 44.7 76.6-5.7 14.7-17.3-8.9z"/><path fill="#7d7d7d" d="m334.4 657 41.2 67.1 9.2 4.5-13.3 1.4-45.5-77.4 12.7 1.7z"/><path fill="#b3b3b3" d="m257 721.7 21.2 37.2 1.7 11.9-21.9-1.3-18.6-29.9 4.3-23.2z"/><path fill="#616161" d="M245.3 721.3c.4 3 18.3 31.9 18.3 31.9l-3.7 11.6-17.6-26.9z"/><path fill="#b3b3b3" d="m337.1 657.5 40.4 66.7-.7 2.1-2.3-1.4-41.1-68.1z"/><path fill="#2e3436" d="M670.6 428.1q.8.2 1.6.5t1.5.8q.7.5 1.3 1.1c1.5 1.6 2.7 3.9 2.5 6.4l-1.1 14.1-1.3 14.1c-.2 2.6-1.3 4.9-3.3 6.6l-1.6 1.2q-.9.5-1.9.8-.9.4-1.9.6-1 .2-2 .2l-14.9.4-7.5-.2c-2.2 0-4.1-1-5.4-2.6-1.2-1.7-1.9-3.9-1.4-6.5l2.8-14.3 2.1-14.2c.3-2.5 1.1-4.8 2.6-6.4 1.6-1.7 3.7-2.8 6.1-2.8l7.4.2 12.7-.2q.9 0 1.7.2z"/><path fill="#fff" d="M668 432.4q.6.1 1.2.4.7.2 1.2.6.6.4 1 .9c1.2 1.4 2 3.2 1.8 5.3l-1.3 11.5-1.4 11.6q-.1.7-.4 1.5-.2.7-.6 1.4-.3.7-.8 1.3-.5.6-1.1 1.1-.6.5-1.3 1-.7.4-1.5.7-.7.3-1.5.5-.8.1-1.7.1l-11.8.3-5.1-.2c-1.8-.1-3.4-.8-4.4-2.2-.9-1.3-1.4-3.2-.9-5.2l2.5-11.7 2-11.6c.3-2.1 1.1-3.9 2.4-5.3 1.3-1.4 3.1-2.3 4.9-2.2l5 .2 10.4-.2q.7 0 1.4.2z"/><path fill="#394655" d="M611.8 402.8c2.6-4.3 7-8 12.4-11.3 5.4-3.2 11.8-5.9 18.7-7.8 6.9-1.9 14.1-3.1 21.3-3.3 7.3-.3 13.9.4 19.9 1.9 6.1 1.5 11.6 3.8 16.3 6.6 4.8 2.8 8.9 6.2 11.9 10 3 3.7 5 7.8 5.6 12 .6 4.1-.1 8-1.8 11.5-1.8 3.5-4.5 6.7-8.3 9.5-3.7 2.8-8.4 5.4-14.1 7.5q-2.3.9-4.7 1.7-2.4.7-4.8 1.3-2.5.6-4.9 1-2.5.5-5 .8c-7.2.9-14.6.7-21.9-.4q-2.7-.4-5.3-1-2.7-.5-5.3-1.3-2.6-.7-5.2-1.6-2.5-.9-5-1.9c-6.4-2.7-11.9-6-15.9-9.7-4-3.7-6.8-7.8-7.2-12.4-.3-3.9.6-8.8 3.3-13.1z"/><path fill="#e1d0cb" d="M626.3 404.5c2.2-3.3 5.6-6.2 9.7-8.8 4.2-2.5 9.1-4.6 14.3-6.1q2-.6 4.1-1 2-.5 4.1-.8 2-.4 4.1-.6 2.1-.2 4.1-.3c5.7-.2 10.9.3 15.6 1.4 4.8 1.1 9.1 2.8 12.8 5 3.8 2.1 6.9 4.7 9.4 7.6 2.4 2.9 4 6.1 4.6 9.4q.3 1.1.3 2.3.1 1.2 0 2.4-.2 1.2-.5 2.3-.3 1.2-.7 2.2c-1.3 2.9-3.4 5.5-6.3 7.9-2.9 2.4-6.6 4.5-11 6.3-4.4 1.7-9.5 3.1-15.2 3.8-5.6.7-11.4.6-17.1-.2q-2.1-.3-4.1-.8-2.1-.4-4.1-1-2-.5-4-1.2t-3.9-1.6c-5-2.1-9.4-4.8-12.6-7.8-3.3-3-5.4-6.4-6-10-.6-3.6.3-7.2 2.4-10.4z"/><path fill="#394655" d="M644.4 385.1c1.1-2.5 3.1-4.9 5.7-6.9 2.6-2.1 5.8-3.9 9.4-5.2q1.4-.6 2.9-1 1.4-.4 2.9-.8 1.5-.3 3-.5 1.4-.3 2.9-.4c4.2-.4 8.1-.1 11.7.6 3.6.7 6.8 1.9 9.6 3.5 2.7 1.6 5 3.6 6.7 5.8 1.7 2.2 2.8 4.6 3.3 7.1q.2.9.2 1.8.1.9 0 1.8 0 .9-.2 1.8-.1.9-.4 1.8c-.7 2.2-2 4.1-3.6 5.9-1.7 1.7-3.8 3.1-6.4 4.3-2.6 1.1-5.7 1.9-9.3 2.3-3.6.4-7.5.4-11.5-.1-3.9-.4-8-1.3-11.7-2.5-3.8-1.2-7.3-2.8-10-4.8-2.7-1.9-4.7-4.2-5.6-6.8-.9-2.6-.7-5.2.4-7.7z"/><path fill="#e1d6b9" d="M301.9 667.9c2.6.7 4.4 3 5.6 6.4 1.2 3.4 1.8 7.8 2.4 12.4.7 4.7 1.4 9.7 2.8 14.1 1.5 4.4 3.4 8.3 5.1 11.8 1.7 3.5 3.3 6.7 4.1 9.8.8 3 .9 5.8-.1 8.4-1 2.6-3.1 4.9-6.5 6.8-3.4 2-6.4 2.6-9.2 2.1-2.7-.5-5.2-2-7.4-4.3-2.2-2.2-4.3-5.2-6.2-8.7-1.9-3.5-3.6-7.5-5.1-11.9-1.5-4.3-3-8.7-4.3-12.9-1.2-4.2-2.3-8.2-2.8-11.9-.4-3.7-.1-7.1 1.5-10.3 1.6-3.2 4.5-6.2 9.2-8.9 4.7-2.8 8.2-3.7 10.9-2.9z"/><path fill="#394655" d="M309.4 671.9c1.4 3 2.4 7 3.3 11.3 1 4.9 2 10.3 3.7 15.4 1.7 5.1 3.7 9.6 5.5 13.7 1.8 4.2 3.3 8 4 11.6.7 3.7.5 7.1-.8 10.2-1.3 3.2-3.7 6-7.4 8.2-3.7 2.2-7.2 3-10.5 2.5-3.2-.5-6.3-2.2-9.1-4.7-2.9-2.5-5.5-5.9-7.9-9.9-2.4-4-4.5-8.5-6.3-13.5-1.8-5.1-3.3-9.9-4.6-14.5-1.3-4.6-2.2-8.8-2.5-12.7V686.2q.1-.5.2-1.1c.3-2.8 5.8-5.5 4.8-2.7-.9 2.5-1 5.3-.6 8.2.4 3.5 1.4 7.4 2.6 11.4 1.3 4 2.7 8.2 4.1 12.4 1.5 4.3 3.2 8.1 5 11.5 1.8 3.3 3.8 6.2 5.9 8.4 2.2 2.2 4.5 3.6 7.1 4.1 2.7.4 5.6-.1 8.9-2 3.3-1.9 5.3-4.1 6.3-6.6.9-2.5.8-5.2 0-8.1-.7-2.9-2.2-6-3.9-9.4-1.7-3.4-3.5-7.1-4.9-11.4-1.4-4.2-2.1-9-2.7-13.5-.6-4.5-1.2-8.7-2.3-11.9q-.2-.6-.5-1.2c-.4-.9-.9-1.8-1.4-2.5-.7-.8 2.2-3.7 3.4-1.2.2.4.4.9.6 1.3z"/><path fill="#1f8179" d="M684.5 609.1c53.7-22 100.7-48.7 131.5-87 36.5 39.3 63.8 46.5 99.7 52.4 5.5 61.2-10.8 244.4-129.1 300.6-129.7-82.2-95-176.7-102.1-266z"/><path fill="#30cabd" d="M696.8 611.5c49.8-20.3 93.4-45.1 122-80.7 33.8 36.5 59.1 43.2 92.4 48.7 5.1 56.7-10 226.5-119.7 278.7-120.3-76.2-88.1-163.9-94.7-246.7z"/><path fill="#d3f5f1" d="m768.3 636.3 43.8-17.7 43.8-.1 18.5-18.2 11.3 3.9 6.7 10-7.8 20.7 4.7 38.6-77.2 87.6-77.2-56.3 4.8-40.5-7.9-17.6 6.7-12.7 11.4-8.5z"/><path fill="#aeece6" d="m770.3 641 40.5-16.3 40.5-.1 17-16.8 10.4 3.6 6.2 9.2-7.2 19.1 4.4 35.7-71.3 80.9-71.3-52 4.4-37.5-7.3-16.2 6.2-11.7 10.5-7.8z"/><path fill="#d3f5f1" d="m820.3 532.5 1.6 1.6q.7.8 1.5 1.6l1.6 1.6q3.1 3.1 6 5.8.8.7 1.5 1.4.7.6 1.5 1.3.7.6 1.4 1.3.8.6 1.5 1.3.7.5 1.4 1.1.7.6 1.4 1.1l1.4 1.2q.7.5 1.4 1.1.1 0 .2.1.7.5 1.4 1.1l1.4 1q.7.5 1.5 1l1.4 1q.5.4 1 .7.6.4 1.1.7.5.4 1.1.7.5.4 1.1.7c.4.3.9.6 1.3.9 1.4.8 2.7 1.5 4 2.3.5.3 1 .6 1.6.8q.6.4 1.2.7.7.3 1.3.7.6.3 1.3.6.6.3 1.3.6.2.1.3.2c1.4.7 2.8 1.2 4.1 1.8q.8.3 1.5.7l1.2.4q.6.3 1.3.5.6.3 1.2.5l1.2.4.6.2q.5.2 1.1.4.5.2 1.1.4.5.2 1.1.3.5.2 1.1.4l1.2.4q.6.2 1.2.3l1.2.4q.7.2 1.3.3l1.2.4q.4.1.7.1l1.4.4 1.4.4q.7.1 1.5.3.7.2 1.4.3l5.4 1.2q.2 0 .4.1 3 .6 6 1.1.7.1 1.5.3.8.1 1.5.2.8.2 1.6.3.7.1 1.5.2l.4 1.2c1.4 16.8 1.1 43-2.8 72.9 1.3-36.1.9-57.6-4.4-66.7-30.7-4.3-58.3-20.3-86.7-33.4l-6.4-13.6q.5-.5.9-1 .5-.5.9-1 .5-.5.9-1 .5-.5.9-1 .3-.4.7-.8.4-.5.9-1 .4-.5.8-1.1.5-.5.9-1t.9-1.1q.7.9 1.5 1.7z"/><path fill="#27a49a" d="M819 534.9c.6 6.5-.3 19.5-.3 19.5s-86 54.7-111 63.4c-8.4 74.3 1.6 179.3 82.7 239.2l1.1 1.1v.1c-120.3-76.2-88.1-163.9-94.7-246.7 49.8-20.3 93.4-45.1 122-80.7.8 1-.6 3.2.2 4.1z"/></svg>