<svg xmlns="http://www.w3.org/2000/svg" width="191.488" height="191.151" viewBox="0 0 179.52 179.204"><path fill="#f06a35" d="M20.512 178.499c-3.359-.884-6.258-2.184-8.931-4.006-2.257-1.538-5.556-4.717-6.81-6.563-1.533-2.255-3.294-6.117-4.012-8.795-.732-2.732-.743-3.82-.757-69.395-.013-65.245.002-66.68.72-69.483C3.259 10.34 11.117 2.797 21.252.547c2.913-.648 133.08-.76 136.222-.119 8.51 1.738 15.198 6.846 19.068 14.564 3.078 6.135 2.803-.617 2.943 72.23.09 46.35.007 65.81-.288 68.233-1.386 11.345-9.211 20.143-20.47 23.019-2.88.735-3.883.746-69.276.726-63.227-.02-66.474-.052-68.939-.701z"/><path fill="none" d="M-82.995 87.838v-171.9h1020v343.8h-1020v-171.9z"/><path fill="#fff" d="M115.162 144.835c8.064-1.1 14.384-4.333 20.313-10.39 4.289-4.382 6.974-9.125 8.728-15.42.73-2.614.79-3.887.924-19.24.1-11.589.017-17.016-.285-18.386-.437-1.986-1.677-3.83-3.092-4.599-.435-.237-3.224-.538-6.198-.67-4.982-.221-5.54-.318-7.113-1.24-2.494-1.462-3.181-3.04-3.188-7.327-.013-8.19-3.421-15.792-10.155-22.654-4.797-4.889-10.149-8.198-16.257-10.052-1.462-.444-4.736-.595-15.702-.725-17.207-.203-21.026.15-26.884 2.483-10.8 4.302-18.56 13.368-21.39 24.99-.532 2.183-.635 5.682-.76 25.779-.158 25.177.015 28.874 1.589 33.864 1.3 4.122 2.61 6.648 5.313 10.234 5.146 6.83 12.86 11.763 20.572 13.156 3.67.663 48.948.83 53.585.197z"/><path fill="#f06a35" d="M67.575 75.717c-4.123-1.136-5.663-7.051-2.633-10.11 1.937-1.956 2.472-2.03 14.595-2.03 10.883 0 11.25.023 12.848.83 2.31 1.168 3.314 2.813 3.314 5.433 0 2.367-.943 4.025-3.046 5.357-1.129.716-1.804.76-12.467.823-6.584.039-11.83-.087-12.611-.303zm-.517 39.81c-1.77-.772-3.417-2.914-3.702-4.814-.272-1.809.638-4.296 2.032-5.558 1.757-1.59 2.528-1.643 24.134-1.66 22.227-.017 22.111-.027 24.219 1.941 2.976 2.78 2.349 7.728-1.239 9.76l-3.686.6-19.213.224c-16.883.198-21.666-.111-22.545-.494z"/></svg>