<svg xmlns="http://www.w3.org/2000/svg" viewBox="0 0 48 48"><g fill="#0082fc"><path d="M39.408 46.008h.348a.473.473 0 0 0 .322-.1.347.347 0 0 0 .121-.281c0-.251-.159-.39-.443-.39h-.348zm.72.987-.444-.787h-.276v.808h-.255v-1.958h.661a.75.75 0 0 1 .26.042.674.674 0 0 1 .205.125.615.615 0 0 1 .134.188.515.515 0 0 1 .05.23.531.531 0 0 1-.117.344.573.573 0 0 1-.302.209l-.083.03.46.79zm-.419-2.582a1.624 1.624 0 0 0-.623.122 1.599 1.599 0 0 0-.502.343 1.674 1.674 0 0 0-.34.514 1.737 1.737 0 0 0 0 1.256 1.573 1.573 0 0 0 .34.515 1.599 1.599 0 0 0 .502.343 1.578 1.578 0 0 0 1.745-.343 1.452 1.452 0 0 0 .339-.515 1.737 1.737 0 0 0 0-1.256 1.532 1.532 0 0 0-.339-.514 1.553 1.553 0 0 0-.502-.343 1.62 1.62 0 0 0-.62-.122m0 3.478a1.804 1.804 0 0 1-.723-.147 1.896 1.896 0 0 1-.586-.418 1.858 1.858 0 0 1-.419-.59 1.854 1.854 0 0 1 0-1.444 1.9 1.9 0 0 1 .984-.992 1.804 1.804 0 0 1 .724-.142 1.866 1.866 0 0 1 .728.142 1.938 1.938 0 0 1 .59.419 1.992 1.992 0 0 1 .418.59 1.854 1.854 0 0 1 0 1.444 1.938 1.938 0 0 1-.418.59 1.854 1.854 0 0 1-1.318.548"/><path d="M24 48C34.462 48 41.7 43.02 41.7 24S34.483 0 24 0 6.298 4.98 6.298 24 13.538 48 24 48m-2.298-24-8.583-8.6 2.486-2.51 6.842 6.858V3.365L34.88 15.793 26.67 24l8.21 8.206-12.429 12.429V28.252l-6.82 6.837-2.487-2.51zm4.24 12.136 3.967-3.972-3.967-3.963zm0-24.297 3.967 3.971-3.967 3.963z"/></g></svg>