<svg xmlns:svg="http://www.w3.org/2000/svg" xmlns="http://www.w3.org/2000/svg" xmlns:xlink="http://www.w3.org/1999/xlink" version="1.1" id="svg10" x="0px" y="0px" style="enable-background:new 0 0 512 512;" xml:space="preserve" viewBox="0.02 49.8 512 412.3">
<style type="text/css">
	.st0{fill:#292929;}
	.st1{fill:#0891B2;}
	.st2{fill:#E0E0E0;}
	.st3{fill:#ffffff;}
</style>
<g>
	<g id="layer2" transform="translate(-131.58154,-166.50114)">
		<path id="rect959" class="st0" d="M171.5,269.4h433.7c15.1,0,27.3,12.2,27.3,27.3v261.9c0,15.1-12.2,27.3-27.3,27.3H171.5    c-15.1,0-27.3-12.2-27.3-27.3V296.8C144.2,281.7,156.4,269.4,171.5,269.4z" fill="#000000"/>
		<path id="rect961" class="st0" d="M189.8,225.6l138.5,9.5l29.5-12.3l32.1,29.3l61.6-35.8l130.4,9.2v59H189.8V225.6z" fill="#000000"/>
	</g>
	<g id="layer1" transform="translate(-131.58154,-166.50114)">
		<g id="g1074">
			<path id="path4" class="st1" d="M226.5,296.8h113.6v19.4H226.5V296.8z M226.5,339.7h113.6v18.7H226.5V339.7z M226.5,382h113.6     v19.4H226.5V382z M435,296.8h113.6v19.4H435V296.8z M435,339.7h113.6v18.7H435V339.7z M435,382h113.6v19.4H435V382z" fill="#000000"/>
			<path id="path8" class="st2" d="M340.1,472.3c0,5.2-4.2,9.5-9.5,9.5H236c-5.2,0-9.5-4.2-9.5-9.5v-37.9c0-5.2,4.2-9.5,9.5-9.5     h94.7c5.2,0,9.5,4.2,9.5,9.5V472.3z M548.7,472.3c0,5.2-4.2,9.5-9.5,9.5h-94.7c-5.2,0-9.5-4.2-9.5-9.5v-37.9     c0-5.2,4.2-9.5,9.5-9.5h94.7c5.2,0,9.5,4.2,9.5,9.5V472.3z" fill="#000000"/>
			<path id="path6" class="st3" d="M612.7,259.3h-12v-3.4c0-20.9-14.5-39.6-35.4-39.6H451.5c-26.3,0-49.3,14.4-61.6,35.8     c-12.3-21.3-35.3-35.8-61.6-35.8H214.6c-20.9,0-40,18.7-40,39.6v3.4h-7.4c-18.3,0-35.6,18.4-35.6,39.3v255.9     c0,26.1,22.6,45.7,47.4,45.7h173c15.7,0,28.4,13.9,28.4,28.4h19c0-14.5,12.8-28.4,28.4-28.4h173c24.8,0,42.8-19.6,42.8-45.7     V298.6C643.6,277.7,630.9,259.3,612.7,259.3z M451.5,235.1h113.7c10.5,0,16.7,10.4,16.7,20.9v270.1c0,10.5-6.2,17.3-16.7,17.3     H451.5c-20.6,0-40,10.5-54.6,24.6V289.1C396.9,260.4,422.8,235.1,451.5,235.1z M193.2,255.9c0-10.5,10.9-20.9,21.3-20.9h113.7     c28.7,0,49.9,25.3,49.9,54v278.7c-9.7-14-29.3-24.4-49.9-24.4H214.6c-10.5,0-21.3-6.9-21.3-17.3L193.2,255.9L193.2,255.9z      M179,581.5c-14.4,0-28.7-11.3-28.7-27V298.6c0-10.3,9.2-20.5,16.9-20.5h7.4v248c0,20.9,19.1,36,40,36h113.7     c18.1,0,34,9.5,43.4,23.5c-6-2.8-12.7-4.1-19.7-4.1H179z M624.2,554.5c0,15.7-9,27-23.4,27h-173c-7,0-13.7,1.4-19.7,4.1     c9.4-14,25.3-23.5,43.4-23.5h113.7c20.9,0,35.4-15.1,35.4-36V278h12c7.7,0,11.5,10.3,11.5,20.5L624.2,554.5L624.2,554.5z" fill="#000000"/>
		</g>
	</g>
</g>
</svg>