<svg xmlns="http://www.w3.org/2000/svg" width="1232" height="512"><path fill="#0d0" d="M248.936 175.881h-65.771V122.75h102.867l53.339 53.132v54.136l-26.67 26.667 26.67 26.666v52.33l-53.34 53.134H183.166V335.68h65.77v-56.742h-65.77v-46.316h65.77ZM80.498 122.75h88.63v266.065h-88.63Zm534.789 212.93-53.138 53.134h-59.354v-49.725h22.057V229.014h-22.057v-53.133h59.354l53.138 53.133Zm-149.588 3.41h23.06v49.724h-59.555l-53.138-53.133V229.014l53.138-53.133h59.554v53.133h-23.06Zm330.255-110.076h-37.698v-23.258l29.678-29.875h53.74l43.111 49.725v55.138h-88.83Zm-140.565 159.8V175.88h88.63v212.933Zm396.831-159.8h-39.302v-53.133h74.794l53.138 53.133v180.852l-53.138 53.534H970.81l-26.67-26.867v-19.649h108.081Zm-14.036 110.075v23.46l-26.469 26.265H963.39l-53.138-53.133V229.014l53.138-53.133h35.492V339.09Z"/></svg>