<?xml version="1.0" encoding="UTF-8"?>
<!-- Generated by Pixelmator Pro 3.3.2 -->
<svg width="1232" height="512" viewBox="0 0 1232 512" xmlns="http://www.w3.org/2000/svg" xmlns:xlink="http://www.w3.org/1999/xlink">
    <path id="p1" fill="#00dd00" stroke="none" d="M 248.935608 175.8815 L 183.164917 175.8815 L 183.164917 122.748596 L 286.031891 122.748596 L 339.370575 175.8815 L 339.370575 230.016815 L 312.701233 256.683563 L 339.370575 283.349915 L 339.370575 335.680939 L 286.031891 388.813843 L 183.164917 388.813843 L 183.164917 335.680939 L 248.935608 335.680939 L 248.935608 278.939026 L 183.164917 278.939026 L 183.164917 232.623413 L 248.935608 232.623413 Z M 80.498108 122.748596 L 169.128189 122.748596 L 169.128189 388.813843 L 80.498108 388.813843 Z"/>
    <path id="p2" fill="#00dd00" stroke="none" d="M 615.286987 335.680908 L 562.148865 388.813843 L 502.794983 388.813843 L 502.794983 339.089386 L 524.85199 339.089386 L 524.85199 229.014404 L 502.794983 229.014404 L 502.794983 175.8815 L 562.148865 175.8815 L 615.286987 229.014404 Z M 465.6987 339.089386 L 488.75827 339.089386 L 488.75827 388.813843 L 429.203766 388.813843 L 376.065674 335.680908 L 376.065674 229.014404 L 429.203766 175.8815 L 488.75827 175.8815 L 488.75827 229.014404 L 465.6987 229.014404 Z"/>
    <path id="p3" fill="#00dd00" stroke="none" d="M 795.954346 229.014404 L 758.256348 229.014404 L 758.256348 205.756195 L 787.933655 175.8815 L 841.673096 175.8815 L 884.785034 225.605927 L 884.785034 280.743713 L 795.954346 280.743713 Z M 655.389343 388.813843 L 655.389343 175.8815 L 744.019409 175.8815 L 744.019409 388.813843 Z"/>
    <path id="p4" fill="#00dd00" stroke="none" d="M 1052.220337 229.014404 L 1012.918457 229.014404 L 1012.918457 175.8815 L 1087.712402 175.8815 L 1140.850464 229.014404 L 1140.850464 409.866272 L 1087.712402 463.400299 L 970.809082 463.400299 L 944.139648 436.53299 L 944.139648 416.884125 L 1052.220337 416.884125 Z M 1038.184082 339.089386 L 1038.184082 362.548218 L 1011.715332 388.813843 L 963.389709 388.813843 L 910.251648 335.680908 L 910.251648 229.014404 L 963.389709 175.8815 L 998.881714 175.8815 L 998.881714 339.089386 Z"/>
</svg>
