<?xml version="1.0" encoding="utf-8"?>
<!-- Generator: Adobe Illustrator 27.7.0, SVG Export Plug-In . SVG Version: 6.00 Build 0)  -->
<svg version="1.1" id="Layer_1" xmlns="http://www.w3.org/2000/svg" xmlns:xlink="http://www.w3.org/1999/xlink" x="0px" y="0px"
	 viewBox="0 0 512 512" style="enable-background:new 0 0 512 512;" xml:space="preserve">
<style type="text/css">
	.st0{fill:#0071F7;}
	.st1{fill:#FFFFFF;}
</style>
<g>
	<path class="st0" d="M435.2,512H76.8C34.4,512,0,477.6,0,435.2V76.8C0,34.4,34.4,0,76.8,0h358.5C477.6,0,512,34.4,512,76.8v358.5
		C512,477.6,477.6,512,435.2,512z"/>
	<path class="st1" d="M432,331.1c4.5,6.3,3.6,14.3-1.8,18.8c-6.3,4.5-15.2,3.6-19.7-1.8l-31.3-40.3l-30.4,39.4
		c-4.5,6.3-13.4,6.3-19.7,1.8c-6.3-4.5-7.2-12.5-2.7-18.8l35.8-46.5l-35.8-46.5c-4.5-6.3-2.7-15.2,2.7-19.7
		c6.3-4.5,15.2-2.7,19.7,2.7l30.4,40.3l31.3-38.5c4.5-6.3,12.5-7.2,19.7-2.7c6.3,4.5,6.3,13.4,1.8,19.7l-34.9,45.6L432,331.1z
		 M269.2,325.7c-23.3,0-42.1-17.9-42.1-41.2c0-22.4,18.8-41.2,42.1-41.2s42.1,18.8,42.1,41.2C310.3,307.8,291.6,325.7,269.2,325.7z
		 M145.7,325.7c-23.3,0-42.1-17.9-42.1-41.2c0-22.4,18.8-41.2,42.1-41.2s42.1,18.8,42.1,41.2C187.8,307.8,169,325.7,145.7,325.7z
		 M269.2,216.5c-25.9,0-49.2,14.3-60.8,35.8c-11.6-21.5-34.9-35.8-61.7-35.8c-16.1,0-30.4,5.4-42.1,13.4v-57.3
		c0-7.2-6.3-13.4-13.4-13.4c-8.1,0-14.3,6.3-14.3,13.4v112.7c0.9,37.6,31.3,67.1,68.9,67.1c26.8,0,50.1-15.2,61.7-36.7
		c11.6,21.5,34.9,36.7,60.8,36.7c38.5,0,69.8-30.4,69.8-68.9C339,247,307.7,216.5,269.2,216.5z"/>
</g>
</svg>
