<svg xmlns="http://www.w3.org/2000/svg" xmlns:xlink="http://www.w3.org/1999/xlink" version="1.1" id="Layer_1" x="0px" y="0px" style="enable-background:new 0 0 512 512;" xml:space="preserve" viewBox="37.6 0 436.7 511.9">
<style type="text/css">
	.st0{fill:url(#SVGID_1_);}
	.st1{fill:#FFFFFF;}
</style>
<g>
	
		<linearGradient id="SVGID_1_" gradientUnits="userSpaceOnUse" x1="206.0784" y1="128.75" x2="642.6616" y2="128.75" gradientTransform="matrix(1 0 0 -1 -168.37 384.75)">
		<stop offset="0" style="stop-color:#F1562B"/>
		<stop offset="0.3" style="stop-color:#F1542B"/>
		<stop offset="0.41" style="stop-color:#F04D2A"/>
		<stop offset="0.49" style="stop-color:#EF4229"/>
		<stop offset="0.5" style="stop-color:#EF4029"/>
		<stop offset="0.56" style="stop-color:#E83E28"/>
		<stop offset="0.67" style="stop-color:#E13C26"/>
		<stop offset="1" style="stop-color:#DF3C26"/>
	</linearGradient>
	<path class="st0" d="M474.3,165.6l-15.8-42.9l11-24.6c1.4-3.2,0.7-6.9-1.7-9.4l-29.9-30.2c-13.1-13.3-32.6-17.8-50.2-11.7l-8.4,2.9   L333.7,0.4L256.3,0h-0.5L178,0.6l-45.6,49.8l-8.1-2.9c-17.7-6.2-37.4-1.6-50.6,11.8L43.3,90.1c-2,2-2.5,4.9-1.4,7.5l11.4,25.5   l-15.7,42.8l10.2,38.6l46.3,176.1c5.3,20.3,17.6,38.1,34.7,50.2c0,0,56.2,39.7,111.7,75.7c9,7.2,21.9,7.2,30.9,0   c62.3-40.8,111.6-75.8,111.6-75.8c17.1-12.2,29.3-30,34.7-50.2l46.1-176.2L474.3,165.6z"/>
	<path class="st1" d="M268.8,317.4c-3-1.3-6-2.4-9.1-3.3h-5.5c-3.1,0.9-6.2,2-9.1,3.3l-13.8,5.7c-4.4,1.8-11.4,5.1-15.6,7.2   l-25.4,13.2c-2.5,0.8-3.9,3.6-3.1,6.1c0.4,1.3,1.3,2.3,2.5,2.9l22.1,15.6c3.9,2.7,10,7.5,13.6,10.8l6.2,5.3   c3.6,3.1,9.4,8.2,13,11.4l5.9,5.2c3.8,3.1,9.2,3.1,13,0l6.2-5.4l13-11.3l6.2-5.5c3.6-3.1,9.7-7.9,13.5-10.8l22.1-15.8   c2.4-1.1,3.4-4,2.3-6.4c-0.6-1.2-1.6-2.1-2.9-2.5l-25.4-12.9c-4.2-2.2-11.3-5.4-15.7-7.2L268.8,317.4z"/>
	<path class="st1" d="M425.2,175.2l0.7-2.3c0-3.1-0.1-6.1-0.6-9.2c-2.1-5.4-4.9-10.6-8.2-15.4l-14.4-21.1   c-2.7-3.9-7.2-10.2-10.2-13.9l-19.2-24.1c-1.8-2.3-3.7-4.6-5.7-6.7h-0.4c0,0-3.9,0.7-8.5,1.6l-29.4,5.7l-12.9,2.5   c-4.3,0.2-8.6-0.4-12.6-1.8L280.6,83c-4.5-1.5-12-3.6-16.6-4.6c-4.9-0.5-9.8-0.5-14.7,0c-4.6,1.1-12.1,3.2-16.6,4.6l-23.2,7.5   c-4,1.4-8.3,2-12.6,1.8L184,90l-29.4-5.6c-4.7-0.9-8.5-1.6-8.5-1.6h-0.4c-2,2.1-4,4.3-5.7,6.7l-19.2,24.1   c-2.9,3.6-7.6,10-10.2,13.9l-14.4,21.1c-2.5,3.6-4.7,7.4-6.8,11.3c-1.2,4.3-1.9,8.8-1.9,13.3l0.7,2.3c0.3,1.5,0.8,2.9,1.3,4.3   c3,3.6,8.1,9.5,11.3,13l50.2,53.4c3.4,4,4.4,9.5,2.5,14.4l-8.2,19.5c-1.9,5.2-2,10.8-0.4,16l1.7,4.5c2.7,7.3,7.3,13.8,13.4,18.8   l7.9,6.4c4.2,3,9.6,3.7,14.4,1.7l28.1-13.4c5.2-2.6,10-5.8,14.4-9.5l22.5-20.3c3.7-3.3,4-9,0.6-12.7c-0.1-0.1-0.1-0.1-0.2-0.2   L197,237.2c-4-2.8-5.3-8.1-3.1-12.5l19.7-37c2.3-4.6,2.6-9.8,1-14.7c-2.4-4.6-6.4-8.1-11.2-10.1l-61.6-23.3   c-4.4-1.7-4.2-3.6,0.5-3.9l36.2-3.6c5.7-0.4,11.4,0.1,16.9,1.5l31.5,8.8c4.6,1.4,7.5,6,6.7,10.8l-12.4,67.6   c-0.8,3.7-1,7.6-0.6,11.4c0.5,1.6,4.7,3.6,9.4,4.7l19.2,4.1c5.6,1,11.3,1,16.9,0l17.3-3.9c4.6-1,8.8-3.2,9.4-4.8   c0.4-3.8,0.2-7.7-0.6-11.4l-12.5-67.6c-0.8-4.8,2.1-9.4,6.7-10.8l31.5-8.8c5.5-1.4,11.2-1.9,16.9-1.5l36.2,3.4   c4.7,0.4,5,2.2,0.5,3.9l-61.6,23.4c-4.8,2-8.7,5.6-11.2,10.1c-1.6,4.8-1.3,10.1,1,14.7l19.7,37c2.2,4.3,0.9,9.6-3.1,12.5   l-50.7,34.2c-3.4,3.6-3.3,9.3,0.3,12.7c0.1,0.1,0.1,0.1,0.2,0.2l22.5,20.3c4.4,3.7,9.2,6.9,14.4,9.5l28.1,13.3   c4.8,1.9,10.2,1.3,14.4-1.8l7.9-6.5c6.1-5,10.7-11.4,13.4-18.8l1.7-4.5c1.6-5.2,1.5-10.9-0.4-16l-8.3-19.5   c-1.8-4.9-0.8-10.4,2.5-14.4l50.2-53.5c3.3-3.6,8.3-9.3,11.3-13C424.3,178.1,424.8,176.7,425.2,175.2z"/>
</g>
</svg>