<svg xmlns="http://www.w3.org/2000/svg" viewBox="0 0 48 48" xmlns:xlink="http://www.w3.org/1999/xlink"><defs><linearGradient id="a" x1="0" x2="53.336" y1="27.044" y2="27.044" gradientTransform="scale(.91491 1.093)" gradientUnits="userSpaceOnUse"><stop offset="0" stop-color="#f50"/><stop offset=".41" stop-color="#f50"/><stop offset=".582" stop-color="#FF2000"/><stop offset="1" stop-color="#FF2000"/></linearGradient><linearGradient id="c" x1="2.555" x2="22.739" y1="10.459" y2="10.459" gradientTransform="scale(1.9636 .50927)" gradientUnits="userSpaceOnUse"><stop offset="0" stop-color="#FF452A"/><stop offset="1" stop-color="#FF2000"/></linearGradient><path id="b" d="M38.184 5.781 33.182 0H15.615l-5.002 5.781s-4.391-1.242-6.465.87c0 0 5.855-.538 7.868 2.797 0 0 5.43 1.056 6.161 1.056.732 0 2.318-.621 3.782-1.118s2.44-.5 2.44-.5.976.003 2.44.5c1.463.497 3.05 1.118 3.781 1.118.732 0 6.161-1.056 6.161-1.056C38.794 6.113 44.65 6.65 44.65 6.65c-2.074-2.112-6.466-.87-6.466-.87"/></defs><g fill="none" fill-rule="evenodd" transform="translate(3.91) scale(.82338)"><path fill="url(#a)" d="m47.09 13.985 1.342-3.356s-1.708-1.864-3.782-3.977-6.466-.87-6.466-.87L33.183 0H15.616l-5.002 5.782s-4.392-1.243-6.466.87S.366 10.629.366 10.629l1.342 3.356L0 18.957s5.023 19.384 5.612 21.75c1.159 4.661 1.952 6.464 5.246 8.825 3.294 2.362 9.271 6.463 10.248 7.085s2.196 1.68 3.294 1.68 2.318-1.059 3.293-1.68 6.954-4.723 10.248-7.085c3.294-2.361 4.087-4.163 5.246-8.824.589-2.367 5.612-21.751 5.612-21.751z"/><path fill="#fff" d="M24.399 36.279c.334 0 2.477.77 4.196 1.677 1.72.906 2.965 1.547 3.364 1.801.398.254.155.733-.208.994-.363.262-5.238 4.108-5.71 4.533-.474.425-1.17 1.127-1.642 1.127-.473 0-1.168-.702-1.641-1.127-.473-.425-5.348-4.271-5.711-4.533-.363-.26-.606-.74-.207-.994.398-.254 1.644-.895 3.363-1.801 1.719-.906 3.862-1.677 4.196-1.677zm.026-27.393c.164.005 1.09.05 2.414.5 1.464.497 3.05 1.119 3.782 1.119.732 0 6.16-1.057 6.16-1.057s6.434 7.924 6.434 9.617c0 1.694-.81 2.14-1.623 3.02l-4.824 5.22c-.456.494-1.406 1.242-.848 2.59s1.384 3.062.467 4.8c-.917 1.74-2.488 2.9-3.494 2.709-1.007-.192-3.37-1.451-4.24-2.026s-3.623-2.89-3.623-3.775c0-.886 2.847-2.476 3.373-2.837.527-.361 2.926-1.76 2.975-2.308.05-.55.03-.71-.677-2.067-.709-1.356-1.984-3.166-1.772-4.37.213-1.204 2.27-1.83 3.737-2.395 1.468-.565 4.294-1.631 4.647-1.797.353-.166.262-.324-.808-.427-1.069-.104-4.104-.514-5.472-.126-1.368.389-3.706.98-3.895 1.294-.19.313-.356.324-.162 1.405.195 1.081 1.196 6.27 1.293 7.191.097.922.287 1.531-.688 1.758-.976.228-2.618.622-3.182.622s-2.206-.394-3.181-.622c-.976-.227-.786-.836-.689-1.758.098-.921 1.099-6.11 1.293-7.191.194-1.081.027-1.092-.162-1.405-.19-.314-2.527-.905-3.895-1.294-1.368-.388-4.403.022-5.472.126-1.07.103-1.16.26-.808.427.353.166 3.18 1.232 4.647 1.797 1.468.565 3.525 1.19 3.737 2.395.212 1.204-1.063 3.014-1.771 4.37-.709 1.357-.727 1.518-.678 2.067.049.548 2.449 1.947 2.975 2.308.526.361 3.374 1.951 3.374 2.837 0 .886-2.755 3.2-3.624 3.775s-3.233 1.834-4.24 2.026c-1.006.191-2.577-.97-3.494-2.708-.916-1.74-.092-3.454.467-4.801.559-1.348-.391-2.096-.848-2.59l-4.824-5.22c-.814-.88-1.623-1.326-1.623-3.02 0-1.693 6.434-9.617 6.434-9.617s5.429 1.057 6.16 1.057c.732 0 2.318-.622 3.782-1.119 1.325-.45 2.25-.495 2.414-.5z"/><use xlink:href="#b" fill="url(#c)"/></g></svg>
