<svg xmlns="http://www.w3.org/2000/svg" data-name="logosandtypes com" viewBox="0 0 150 150"><path d="M0 .2h150v150H0Z" style="fill:none" transform="translate(0 -.2)"/><path d="M132.62 75.21a27.53 27.53 0 0 0 10.29-21.62A28 28 0 0 0 115 25.65H6.35c27.94 28.21 54.31 42.44 75.13 49.83-20.56 7.11-47.19 21.61-75.13 49.82H115a28.27 28.27 0 0 0 17.66-50.09Zm-19.24 34.54H48.26c24.79-17.4 46.14-25.58 65.12-25.58a12.94 12.94 0 0 1 12.92 12.92 12.72 12.72 0 0 1-12.92 12.66Zm0-43.24c-19 0-40.33-8.43-65.12-25.57h65.12a12.94 12.94 0 0 1 12.92 12.92 12.71 12.71 0 0 1-12.92 12.65Z" style="fill:#ed1c24" transform="translate(0 -.2)"/></svg>