<?xml version="1.0" encoding="utf-8"?>
<!-- Generator: Adobe Illustrator 27.7.0, SVG Export Plug-In . SVG Version: 6.00 Build 0)  -->
<svg version="1.1" id="Layer_1" xmlns="http://www.w3.org/2000/svg" xmlns:xlink="http://www.w3.org/1999/xlink" x="0px" y="0px"
	 viewBox="0 0 512 512" style="enable-background:new 0 0 512 512;" xml:space="preserve">
<style type="text/css">
	.st0{fill:#1535A3;}
	.st1{fill-rule:evenodd;clip-rule:evenodd;fill:#FFFFFF;}
</style>
<path class="st0" d="M397.2,512H114.8C51.4,512,0,460.6,0,397.2V114.8C0,51.4,51.4,0,114.8,0h282.4C460.6,0,512,51.4,512,114.8
	v282.4C512,460.6,460.6,512,397.2,512z"/>
<g id="_218150328">
	<path id="_217143760" class="st1" d="M464.2,225.9c-24.2,0-37,13.5-37.5,31.1c-3.5-19.1-20-31.6-38.7-31.6
		c-18.7,0-34.6,12.4-38.1,31.3c-0.1-16.8-13.2-31.3-30.2-31.3c-7.4,0-13.9,2.9-19,7.8v-24.5h-18.2v54.5c0,1.8-0.1,2.9-0.3,5.6
		c-1.1,11.3-8.7,16.9-17,16.9c-8.6,0-16.4-4.1-16.7-16.9c0-2.2-0.1-3.1-0.1-4.7v-20.4h28.3v-17.1h-28.3v-17.9H230v48
		c-3.5-17.9-19.2-31.4-38.2-31.4c-12.2,0-23.1,5.6-30.2,14.4v-13.9h-2c-23.7,0-36.6,13.1-37.5,30.2c-3.5-17.3-17.8-30.2-35.9-30.2
		c-9.5,0-16.9,3.4-22.7,9.2v-26.5H45.8v46c0,3.4,0.1,6.6,0.1,9.7c0.3,21.3,15.1,38.7,38.2,38.7c19.9,0,34.4-13,38-30.2v28.4h18.2
		v-35.4c0-1.6,0.1-3.4,0.1-5.1c0.3-10.8,7.4-17.2,18.7-17.4c-3.9,6.1-6.2,13.3-6.2,21c0,21.5,17.4,38.9,38.9,38.9
		c18.9,0,34.7-13.5,38.2-31.4v0c0,18.7,15,31.4,33.1,31.4c7.6,0,14.3-3.3,19.5-8.6v6.6h18.2v-38.6c0-0.9,0-1.7,0.1-2.4
		c0.5-12.4,7.7-17.8,15.7-17.8c7.9,0,14.7,5.4,15,17.7c0.1,1.1,0.1,1.8,0.1,3l0,38l18.4,0v-28.9c3.5,18.6,19.3,30.7,38.1,30.7
		c21.4,0,33.4-13.7,36.7-28h-17.8c-1.6,5.1-7.9,12.9-18.9,12.9c-9.9,0-18.4-6.8-20.5-17.8l59.2,0v31.1h18.2v-35.4
		c0-1.6,0.1-3.4,0.2-5.1c0.3-11,7.6-17.4,19.2-17.4h2v-17.4L464.2,225.9L464.2,225.9z M84.1,285.6c-12,0-21.2-9.4-21.2-21.2
		c0-11.9,9.2-21.2,21.2-21.2c12.1,0,21.2,9.3,21.2,21.2C105.3,276.3,96.1,285.6,84.1,285.6z M191.8,285.6c-12,0-21.2-9.4-21.2-21.2
		c0-11.9,9.2-21.2,21.2-21.2c12.1,0,21.2,9.3,21.2,21.2C213.1,276.3,203.8,285.6,191.8,285.6z M368.3,255.8c3-9.3,10.7-15,19.7-15
		c11.5,0,18.4,9.2,19.7,15H368.3L368.3,255.8z"/>
</g>
</svg>
