<svg width="200" height="200" xmlns="http://www.w3.org/2000/svg" preserveAspectRatio="xMidYMid meet" version="1.0">

 <g>
  <title>Layer 1</title>
  <ellipse transform="rotate(1.34718 91.6981 101.415)" stroke="#000" ry="22.16475" rx="21.56261" id="svg_9" cy="101.41507" cx="91.69809" stroke-width="0" fill="#f2d720"/>
  <ellipse stroke="#000" stroke-width="0" ry="36.32075" rx="35.9434" id="svg_8" cy="126.13204" cx="64.62263" fill="#f2d720"/>
  <g id="svg_1" fill="#000000" transform="translate(0 200) scale(0.1 -0.1)">
   <path id="svg_2" d="m1480,1859c-32,-13 -40,-26 -40,-67c0,-26 6,-36 30,-50c25,-14 30,-23 30,-56c0,-37 -41,-126 -58,-126c-4,0 -29,7 -56,15c-80,24 -144,20 -215,-16c-63,-32 -93,-63 -130,-136c-12,-24 -24,-43 -27,-43c-3,0 -48,36 -101,81c-136,115 -205,164 -291,206c-72,36 -81,38 -171,38c-79,0 -104,-4 -142,-23c-67,-33 -121,-83 -154,-143c-27,-49 -30,-62 -30,-149c0,-80 4,-102 23,-140c45,-86 123,-150 209,-171c26,-6 51,-15 55,-18c4,-4 -19,-42 -52,-86c-172,-229 -182,-495 -22,-596c59,-37 101,-49 180,-49c119,0 239,37 351,109c28,18 54,31 57,29c2,-3 11,-30 19,-62c22,-83 57,-146 108,-193c66,-61 107,-76 207,-76c105,0 160,22 228,90c67,67 94,130 100,228c5,106 -9,142 -148,375c-60,101 -110,187 -110,191c0,4 21,14 46,23c117,40 197,149 198,269c0,34 -3,73 -6,87c-9,35 30,62 97,68c50,4 53,3 74,-31c24,-39 38,-47 86,-47c37,0 45,12 45,70c0,61 -16,70 -130,70c-76,0 -112,-5 -155,-21c-88,-33 -104,-16 -60,62c13,25 29,75 34,114c6,39 13,84 17,102c5,26 1,37 -19,57c-28,28 -39,30 -77,15zm40,-70c0,-5 -4,-9 -10,-9c-5,0 -10,7 -10,16c0,8 5,12 10,9c6,-3 10,-10 10,-16zm-967,-159c48,-15 91,-40 167,-98c57,-42 112,-84 124,-92c56,-39 165,-132 170,-146c11,-28 7,-31 -91,-62c-360,-114 -490,-131 -588,-80c-108,56 -162,151 -151,265c16,185 171,274 369,213zm1257,-170c0,-5 -4,-10 -10,-10c-5,0 -10,5 -10,10c0,6 5,10 10,10c6,0 10,-4 10,-10zm-903,-353c105,-84 175,-203 154,-261c-6,-14 -13,-26 -16,-26c-3,0 -19,30 -37,67c-37,79 -101,152 -176,199c-59,38 -60,54 -4,54c27,0 49,-9 79,-33zm461,-264c145,-242 169,-302 158,-404c-7,-70 -20,-101 -64,-157c-51,-64 -101,-87 -192,-87c-87,0 -132,20 -192,82c-103,107 -104,238 -4,471c66,152 145,312 154,312c6,0 69,-98 140,-217zm-769,172c76,-31 139,-73 191,-126c72,-75 140,-238 140,-339c0,-37 -2,-41 -22,-38c-18,2 -25,17 -45,93c-58,222 -166,337 -360,386c-46,11 -53,16 -53,37c0,23 2,24 43,19c23,-3 71,-18 106,-32zm-143,-174c138,-68 230,-176 275,-324c24,-76 20,-117 -11,-117c-14,0 -22,11 -30,43c-30,114 -58,173 -113,237c-51,59 -160,127 -229,144c-18,4 -28,13 -28,25c0,43 35,41 136,-8z"/>
   <path id="svg_3" d="m370,1581c-59,-21 -93,-53 -83,-77c7,-18 18,-16 108,16c52,19 66,21 107,11c26,-6 66,-22 88,-36c47,-30 80,-33 80,-7c0,42 -104,102 -189,108c-39,3 -73,-1 -111,-15z"/>
   <path id="svg_4" d="m710,1415c0,-20 5,-25 24,-25c25,0 36,15 29,38c-3,6 -16,12 -29,12c-19,0 -24,-5 -24,-25z"/>
   <path id="svg_5" d="m1306,765c-21,-21 -20,-28 5,-43c18,-12 24,-11 38,2c12,12 13,21 5,33c-15,24 -29,26 -48,8z"/>
   <path id="svg_6" d="m1373,643c3,-16 12,-53 21,-83c24,-84 20,-120 -20,-196c-28,-52 -33,-69 -22,-75c21,-14 33,-11 55,14c66,71 85,185 49,282c-23,60 -43,85 -69,85c-16,0 -18,-5 -14,-27z"/>
  </g>
 </g>
</svg>