<svg xmlns="http://www.w3.org/2000/svg" viewBox="0 0 32 32"><path d="M12.2 17.3c-.2-.2-.4-.4-.7-.5s-.5-.2-.8-.2-.6.1-.8.2c-.3.1-.5.3-.7.5s-.3.4-.4.7-.2.6-.2.9.1.6.2.9c.1.2.2.4.4.6s.4.4.7.5.5.2.8.2.6-.1.8-.2c.3-.1.5-.3.7-.5s.3-.4.5-.7c.1-.3.2-.5.2-.8s-.1-.6-.2-.9-.3-.5-.5-.7zm10.4 0c-.2-.2-.4-.4-.7-.5s-.5-.2-.8-.2-.6.1-.8.2c-.3.1-.5.3-.7.5s-.3.4-.5.7c-.1.3-.2.6-.2.9s.1.6.2.9.3.5.5.7.4.4.7.5.5.2.8.2.6-.1.8-.2c.3-.1.5-.3.7-.5s.3-.4.5-.7c.1-.3.2-.5.2-.8s-.1-.6-.2-.9c-.2-.4-.3-.6-.5-.8zM29.3 0H2.7A2.69 2.69 0 0 0 0 2.7v26.7C0 30.8 1.2 32 2.7 32h26.7a2.69 2.69 0 0 0 2.7-2.7V2.7C32 1.2 30.8 0 29.3 0zm-3 20.8c-.2.6-.6 1.2-1 1.6-.4.5-.9.8-1.5 1.1s-1.2.4-1.9.4c-1.2 0-2.2-.5-2.9-1.4v1.1h-3.3v-2.2c-.2.3-.4.7-.7.9-.4.5-.9.8-1.5 1.1s-1.2.4-1.9.4c-1.2 0-2.2-.5-2.9-1.4v1.1H5.3V8h3.3v7c.8-.8 1.8-1.3 2.9-1.3.7 0 1.3.1 1.9.4s1.1.6 1.5 1.1l.6.9V8H19v7c.8-.8 1.8-1.3 2.9-1.3.7 0 1.3.1 1.9.4s1.1.6 1.5 1.1.7 1 1 1.6c.2.6.4 1.3.4 2s-.2 1.4-.4 2z"/></svg>