<svg xmlns="http://www.w3.org/2000/svg" xmlns:xlink="http://www.w3.org/1999/xlink" version="1.1" id="Calque_1" x="0px" y="0px" style="enable-background:new 0 0 512 512;" xml:space="preserve" viewBox="-0.02 24.89 512.04 462.31">
<style type="text/css">
	.st0{fill:#085577;}
</style>
<path class="st0" d="M510.7,382.6c-4.1-37.2-11.5-78-47.1-98.1c-15-8.5-20.7-28.9-10.6-42.8c21.4-32.1,20.6-69.6,16.5-106  c-9.7-87.8-83.5-124.4-220.4-106.3c-87.4,11.5-131,17.7-218,31.2C10.9,63.5-2.6,81,0.4,99.9C20.9,229,41.3,358.2,61.8,487.2h422.8  c22-27.2,30.9-61.9,26.2-104.7L510.7,382.6z M219.3,409.1c-1.8-38-2.7-57-4.4-94.9c-15.9-8.9-27.7-24.2-30.3-43.1  c-4.6-32.5,19.2-62.9,53.3-67.6s65.2,18.3,69.4,51c2.5,18.9-4.7,36.8-17.7,49.6c8.5,37.1,12.7,55.6,21.1,92.7  C274.1,401.6,256,404,219.3,409.1L219.3,409.1z"/>
</svg>