<svg xmlns="http://www.w3.org/2000/svg" xmlns:svg="http://www.w3.org/2000/svg" id="svg3460" width="94.649" height="150.457" version="1.1" viewBox="0 0 94.649 150.457" xml:space="preserve"><metadata id="metadata3466"/><defs id="defs3464"><linearGradient id="linearGradient3472" x1="272.65" x2="358.84" y1="412.103" y2="367.539" gradientTransform="translate(-268.34645,335.74803)" gradientUnits="userSpaceOnUse" spreadMethod="pad"><stop style="stop-opacity:1;stop-color:#b1e356" id="stop3474" offset="0"/><stop style="stop-opacity:1;stop-color:#080" id="stop3476" offset=".685"/><stop style="stop-opacity:1;stop-color:#006800" id="stop3478" offset=".978"/><stop style="stop-opacity:1;stop-color:#006800" id="stop3480" offset="1"/></linearGradient><linearGradient id="linearGradient3484" x1="326.963" x2="345.272" y1="408.838" y2="399.371" gradientTransform="translate(-268.34645,335.74803)" gradientUnits="userSpaceOnUse" spreadMethod="pad"><stop style="stop-opacity:1;stop-color:#080" id="stop3486" offset="0"/><stop style="stop-opacity:1;stop-color:#080" id="stop3488" offset=".051"/><stop style="stop-opacity:1;stop-color:#006800" id="stop3490" offset=".978"/><stop style="stop-opacity:1;stop-color:#006800" id="stop3492" offset="1"/></linearGradient><linearGradient id="linearGradient3496" x1="281.431" x2="358.317" y1="410.207" y2="370.453" gradientTransform="translate(-268.34645,335.74803)" gradientUnits="userSpaceOnUse" spreadMethod="pad"><stop style="stop-opacity:1;stop-color:#60b656" id="stop3498" offset="0"/><stop style="stop-opacity:1;stop-color:#086d05" id="stop3500" offset=".494"/><stop style="stop-opacity:1;stop-color:#080" id="stop3502" offset=".528"/><stop style="stop-opacity:1;stop-color:#004900" id="stop3504" offset=".978"/><stop style="stop-opacity:1;stop-color:#004900" id="stop3506" offset="1"/></linearGradient><linearGradient id="linearGradient3510" x1="321.17" x2="335.388" y1="396.925" y2="389.574" gradientTransform="translate(-268.34645,335.74803)" gradientUnits="userSpaceOnUse" spreadMethod="pad"><stop style="stop-opacity:1;stop-color:#080" id="stop3512" offset="0"/><stop style="stop-opacity:1;stop-color:#080" id="stop3514" offset=".051"/><stop style="stop-opacity:1;stop-color:#006800" id="stop3516" offset=".978"/><stop style="stop-opacity:1;stop-color:#006800" id="stop3518" offset="1"/></linearGradient><linearGradient id="linearGradient3522" x1="280.252" x2="304.055" y1="414.804" y2="402.497" gradientTransform="translate(-268.34645,335.74803)" gradientUnits="userSpaceOnUse" spreadMethod="pad"><stop style="stop-opacity:1;stop-color:#7cac56" id="stop3524" offset="0"/><stop style="stop-opacity:1;stop-color:#086d05" id="stop3526" offset=".494"/><stop style="stop-opacity:1;stop-color:#080" id="stop3528" offset=".528"/><stop style="stop-opacity:1;stop-color:#004900" id="stop3530" offset=".978"/><stop style="stop-opacity:1;stop-color:#004900" id="stop3532" offset="1"/></linearGradient><linearGradient id="linearGradient3536" x1="268.896" x2="303.233" y1="401.524" y2="383.77" gradientTransform="translate(-268.34645,335.74803)" gradientUnits="userSpaceOnUse" spreadMethod="pad"><stop style="stop-opacity:1;stop-color:#7cac56" id="stop3538" offset="0"/><stop style="stop-opacity:1;stop-color:#086d05" id="stop3540" offset=".494"/><stop style="stop-opacity:1;stop-color:#080" id="stop3542" offset=".528"/><stop style="stop-opacity:1;stop-color:#004900" id="stop3544" offset=".978"/><stop style="stop-opacity:1;stop-color:#004900" id="stop3546" offset="1"/></linearGradient></defs><g id="g3468" transform="matrix(1.25,0,0,-1.25,-2.1464919,988.27088)"><path d="m 32.813247,718.30853 c 0,0 0.5,-13.75 -2.5,-20 0,0 -5.25,-14.5 1,-25 0,0 17.3325,-9.166 29.9321,4.2422 0,0 1.7344,3.5918 -0.9316,10.7578 0,0 -3.25,8.75 -3.5,25 0,0 0.25,6.75 1,11 0,0 18,1 19.5,15.5005 0,0 1.499998,16 -6,18 0,0 -10.5,2.25 -10.5,-7.5 0,0 1.5,-10.75 -4,-11 0,0 -2,1 -2,7.5 0,0 2.5,20.5 -6.5,35.5 0,0 -7.5,12 -19.5005,2.5 0,0 -4.5,-4.5 0,-14 0,0 7.5,-19 4,-32 0,0 -0.75,-6.75 -4.5,-6.5 0,0 -5,-0.5 -2.5,9 0,0 5.5,12.75 -3,18 0,0 -12.5,4.5 -16.5000003,-12.5 0,0 -5.0000001,-13.5 0.5,-23.5005 0,0 4.7500003,-8.75 26.0000003,-5 z" style="fill:#155104;fill-opacity:1;fill-rule:nonzero;stroke:none" id="path3470"/><path d="m 30.813247,719.97653 c 0,0 0.5,-13.75 -2.5,-20 0,0 -5.25,-14.5 1,-25 0,0 17.3325,-9.168 29.9321,4.2422 0,0 1.7344,3.5898 -0.9316,10.7578 0,0 -3.25,8.75 -3.5,25 0,0 0.25,6.75 1,11 0,0 18,1 19.5,15.4995 0,0 1.5,16 -6,18 0,0 -10.5,2.25 -10.5,-7.5 0,0 1.5,-10.75 -4,-11 0,0 -2,1 -2,7.5 0,0 2.5,20.5 -6.5,35.5 0,0 -7.5,12 -19.5005,2.5 0,0 -4.5,-4.5 0,-14 0,0 7.5,-19 4,-32 0,0 -0.75,-6.75 -4.5,-6.5 0,0 -5,-0.5 -2.5,9 0,0 5.5,12.75 -3,18 0,0 -12.5000003,4.5 -16.5000003,-12.5 0,0 -5.00000001,-13.5 0.5,-23.4995 0,0 4.75,-8.75 26.0000003,-5 z" style="fill:url(#linearGradient3472);fill-opacity:1;fill-rule:nonzero;stroke:#000;stroke-width:1;stroke-linecap:butt;stroke-linejoin:miter;stroke-miterlimit:4;stroke-dasharray:none;stroke-opacity:1" id="path3482"/><path d="m 65.979747,759.14253 c 1,-0.3716 2.6113,-1.1284 3.2656,-2.0664 0.4102,-0.5884 -0.2852,-1.7016 0.0449,-2.2666 0.3418,-0.5869 1.5215,-1.3818 1.6895,-1.7055 0.9922,-1.8985 0.8554,-1.75 0.9922,-3.6202 0.1484,-2.0058 -0.9297,-3.0659 -1.0899,-4.6001 -0.3066,-2.9492 1.125,-5.2724 -0.2285,-8.0742 -1.4238,-2.9497 -3.1289,-4.6689 -5.9492,-6.0581 0.2871,-5.6284 -8.6387,-0.2827 -9.0137,-5.2241 3.6484,0.2422 8.9121,2.041 11.0117,5.2251 6.3203,2.0132 10.2969,10.2676 9.6114,16.7236 -0.3907,3.6817 -3.5664,14.399 -9.334,11.3335" style="fill:url(#linearGradient3484);fill-opacity:.67000002;fill-rule:nonzero;stroke:none" id="path3494"/><path d="m 37.313247,787.80953 c 4.3364,-0.9009 4.5278,-3.6885 5.5923,-7 0.875,-2.7226 2.4902,-5.0151 3.0742,-7.9819 0.5918,-3.0034 0.2793,-6.0444 1.0742,-8.936 0.6465,-2.3511 1.6133,-4.983 1.8516,-7.4898 0.5312,-5.6284 1.4082,-10.6914 1.4082,-16.2593 0,-3.3296 0.4238,-5.7177 1,-8.6665 0.1386,-0.7099 -0.1895,-1.5444 -0.008,-2.2417 0.2579,-0.9863 -0.1894,-1.9941 0.008,-2.7578 0.373,-1.4512 -0.4317,-2.7715 -0.668,-4.334 -0.7031,-4.6445 0.5019,-8.3906 0.0176,-13 -0.3164,-3.0156 1.0722,-4.6738 1.2168,-7.666 0.1074,-2.2051 0.1113,-0.8555 -0.6485,-3.0176 -0.373,-1.0586 -1.2851,-1.3046 -1.2578,-2.7246 0.043,-2.1894 2.3145,-3.9238 2.9238,-5.9336 0.6778,-2.2265 0.2872,-3.875 -0.2695,-5.9726 -0.373,-1.4063 -0.5117,-5.0488 -1.3808,-6.3692 -1.2657,-1.9218 -4.418,-1.6738 -6.2168,-3.039 -0.0469,-0.4317 -0.0274,-0.7969 0,-1.2266 4.1269,-0.6211 4.7441,1.8574 7.9492,3.3008 1.7285,0.7773 5.3203,0.3242 6.2656,2.7246 1.0137,2.5723 -2.3184,4.3613 -2.5996,6.9238 -0.3106,2.8418 -0.2246,4.9336 -0.9258,7.7403 -2.7519,11.0273 -2.8926,23.3203 -2.4062,35.205 0.1406,3.4507 0.8437,7.2505 0.3398,10.7295 -0.3242,2.2359 -1.3242,4.4038 -1.6543,6.6773 -0.7832,5.3882 -1.3535,11.102 -1.3535,16.6479 0,9.0625 -2.8867,21.8272 -11.666,25.667 -1.3369,0.585 -2.2764,1.2569 -3.8916,1.0249 1.3706,-0.7148 2.1967,-1.915 3.5581,-2.6919" style="fill:url(#linearGradient3496);fill-opacity:.77999998;fill-rule:nonzero;stroke:none" id="path3508"/><path d="m 52.313747,730.80953 c 1.205,-0.0122 2.4277,0.01 3.6171,-0.0493 1.1856,-6.1411 8.334,1.6577 11.3379,1 -3.0429,-4.6489 -9.5586,-5.4849 -15.2382,-5.2329 0.1582,1.2461 -0.1934,2.2832 -1.0254,2.873 4.0996,0.3047 8.4785,0.2305 12.5898,0.0274 -0.0156,-0.166 -0.0293,-0.7422 -0.008,-0.8945 -0.7891,-0.2579 -1.7539,-0.6993 -2.6074,-0.7247" style="fill:url(#linearGradient3510);fill-opacity:.67000002;fill-rule:nonzero;stroke:none" id="path3520"/><path d="m 17.646747,758.14253 c 3.2016,-0.8598 1.6938,-7.0908 1.0835,-9.0913 -0.2329,-0.7646 -1.3506,-0.8906 -1.4493,-1.9248 -0.0459,-0.4824 1.1958,-1.2134 1.2823,-1.7417 0.2534,-1.5503 0.1543,-2.9702 0.0757,-4.5674 -0.1402,-2.8637 -0.1065,-6.8315 2.2417,-8.4326 2.7402,-1.8691 6.7402,0.1377 7.9921,2.6904 -1.7529,-0.1152 -3.2983,-0.8969 -5.1757,-0.5488 -0.4927,2.3687 -1.4375,5.0152 -1.3838,7.6162 0.0547,2.6573 1.7343,5.2339 2,8 0.2754,2.8658 -0.7627,6.0352 -2.3335,8.3335 -1.3384,1.9585 -6.5616,4.1787 -5.3076,-0.2583 0.3168,-0.1543 0.642,-0.2905 0.9746,-0.4082" style="fill:url(#linearGradient3522);fill-opacity:.47999998;fill-rule:nonzero;stroke:none" id="path3534"/><path d="m 4.3132467,745.14253 c -0.3589,-3.602 -1.5274,-7.2627 -0.7569,-11.0078 0.6104,-2.9643 1.5518,-7.8086 3.8228,-10 4.4033003,-4.25 14.5928003,-3.9043 20.5395003,-3.6094 0.167,0.1778 0.2588,0.3887 0.2764,0.6348 -1.9614,1.0742 -5.0146,0.5254 -7.124,1.0664 -2.2017,0.5664 -5.9893,1.1055 -8.0913,1.9824 -2.2915,0.9571 -3.6958003,2.9766 -4.3330003,4.9336 -1.2032,3.6944 0.7983,5.2242 -3.3335,7.3335 1.2832,3.6094 -1.6665,4.3028 -1.6665,7" style="fill:url(#linearGradient3536);fill-opacity:.47999998;fill-rule:nonzero;stroke:none" id="path3548"/><path d="m 38.979747,788.80953 c 0,0 8.334,-5.3335 8.334,-30.3335 l 2,-84.6245" style="fill:none;stroke:#fff;stroke-width:2;stroke-linecap:round;stroke-linejoin:miter;stroke-miterlimit:4;stroke-dasharray:none;stroke-opacity:.25" id="path3550"/><path d="m 32.646747,789.14253 c 0,0 10.333,-6.3335 10.333,-27 l 2.0508,-88.9492" style="fill:none;stroke:#fff;stroke-width:2;stroke-linecap:round;stroke-linejoin:miter;stroke-miterlimit:4;stroke-dasharray:none;stroke-opacity:.25" id="path3552"/><path d="m 29.646747,787.47603 c 0,0 9.333,-11.0005 8.9995,-28.3335 -0.333,-17.333 1.3335,-86.334 1.3335,-86.334" style="fill:none;stroke:#fff;stroke-width:2;stroke-linecap:round;stroke-linejoin:miter;stroke-miterlimit:4;stroke-dasharray:none;stroke-opacity:.25" id="path3554"/><path d="m 25.979747,783.47603 c 0,0 8,-11 8,-40.6665 0,-29.667 0.3335,-68.833 0.3335,-68.833" style="fill:none;stroke:#fff;stroke-width:2;stroke-linecap:round;stroke-linejoin:miter;stroke-miterlimit:4;stroke-dasharray:none;stroke-opacity:.25" id="path3556"/><path d="m 30.646747,738.47603 -0.3335,-64.3335" style="fill:none;stroke:#fff;stroke-width:1;stroke-linecap:round;stroke-linejoin:miter;stroke-miterlimit:4;stroke-dasharray:none;stroke-opacity:.25" id="path3558"/><path d="m 16.979747,761.14253 c 0,0 -16.66600035,-7.6674 -9.3330003,-39.334" style="fill:none;stroke:#fff;stroke-width:1;stroke-linecap:round;stroke-linejoin:miter;stroke-miterlimit:4;stroke-dasharray:none;stroke-opacity:.25" id="path3560"/><path d="m 20.646747,760.14253 c 0,0 -12.8330003,-7.9995 -10.1665,-38.666" style="fill:none;stroke:#fff;stroke-width:1;stroke-linecap:round;stroke-linejoin:miter;stroke-miterlimit:4;stroke-dasharray:none;stroke-opacity:.25" id="path3562"/><path d="m 22.646747,758.80953 c 0,0 -9.4995,-13.3335 -8.1665,-38.667" style="fill:none;stroke:#fff;stroke-width:1;stroke-linecap:round;stroke-linejoin:miter;stroke-miterlimit:4;stroke-dasharray:none;stroke-opacity:.25" id="path3564"/><path d="m 24.980247,752.30953 c 0,0 -9,-12.5005 -7.3335,-32.501" style="fill:none;stroke:#fff;stroke-width:1;stroke-linecap:round;stroke-linejoin:miter;stroke-miterlimit:4;stroke-dasharray:none;stroke-opacity:.25" id="path3566"/><path d="m 22.980247,736.14253 c 0,0 -2.5,-9 -1.8335,-16.334" style="fill:none;stroke:#fff;stroke-width:1;stroke-linecap:round;stroke-linejoin:miter;stroke-miterlimit:4;stroke-dasharray:none;stroke-opacity:.25" id="path3568"/><path d="m 26.188247,733.60103 c 0,0 -0.708,-6.1245 -0.0415,-13.7925" style="fill:none;stroke:#fff;stroke-width:1;stroke-linecap:round;stroke-linejoin:miter;stroke-miterlimit:4;stroke-dasharray:none;stroke-opacity:.25" id="path3570"/><path d="m 53.563747,675.22653 -2.25,84.2495 c 0,0 -1,18.0005 -4,22.3335" style="fill:none;stroke:#fff;stroke-width:1;stroke-linecap:round;stroke-linejoin:miter;stroke-miterlimit:4;stroke-dasharray:none;stroke-opacity:.25" id="path3572"/><path d="m 58.063747,678.22653 -2.084,20.75" style="fill:none;stroke:#fff;stroke-width:1;stroke-linecap:round;stroke-linejoin:miter;stroke-miterlimit:4;stroke-dasharray:none;stroke-opacity:.25" id="path3574"/><path d="m 63.313747,758.47603 c 0,0 7.332,-9.6665 5,-27.6665" style="fill:none;stroke:#fff;stroke-width:1;stroke-linecap:round;stroke-linejoin:miter;stroke-miterlimit:4;stroke-dasharray:none;stroke-opacity:.25" id="path3576"/><path d="m 60.313747,756.47603 c 0,0 4,-12.334 4,-27.9995" style="fill:none;stroke:#fff;stroke-width:1;stroke-linecap:round;stroke-linejoin:miter;stroke-miterlimit:4;stroke-dasharray:none;stroke-opacity:.25" id="path3578"/><path d="m 58.979747,746.47603 c 0,0 1.334,-12.5 1,-19.4995" style="fill:none;stroke:#fff;stroke-width:1;stroke-linecap:round;stroke-linejoin:miter;stroke-miterlimit:4;stroke-dasharray:none;stroke-opacity:.25" id="path3580"/><path d="m 55.645747,740.80953 c 0,0 1.668,-8.6665 1.0019,-14.333" style="fill:none;stroke:#fff;stroke-width:1;stroke-linecap:round;stroke-linejoin:miter;stroke-miterlimit:4;stroke-dasharray:none;stroke-opacity:.25" id="path3582"/></g></svg>