<?xml version="1.0" encoding="utf-8"?>
<!-- Generator: Adobe Illustrator 27.7.0, SVG Export Plug-In . SVG Version: 6.00 Build 0)  -->
<svg version="1.1" id="Layer_1" xmlns:serif="http://www.serif.com/"
	 xmlns="http://www.w3.org/2000/svg" xmlns:xlink="http://www.w3.org/1999/xlink" x="0px" y="0px" viewBox="0 0 512 512"
	 style="enable-background:new 0 0 512 512;" xml:space="preserve">
<style type="text/css">
	.st0{fill-rule:evenodd;clip-rule:evenodd;fill:#1F88C0;}
	.st1{fill:none;stroke:#1F88C0;stroke-width:5.7819;stroke-linejoin:round;stroke-miterlimit:22.0264;}
	.st2{fill:none;stroke:#22B638;stroke-width:9.5045;stroke-miterlimit:20.1153;}
	.st3{fill:none;stroke:#22B638;stroke-width:9.5045;stroke-linejoin:round;stroke-miterlimit:20.1153;}
	.st4{fill:none;stroke:#1F88C0;stroke-width:8.4748;stroke-linejoin:round;stroke-miterlimit:34.5908;}
</style>
<g id="Icon" transform="matrix(0.858013,0,0,0.907485,-3224.99,-1435.83)">
	<g>
		<g transform="matrix(-0.191794,-0.715786,0.715786,-0.191794,4329.14,4673.64)">
			<path class="st0" d="M3757,986.5c-46.9-2.2-90.4-14.9-130.2-34.1c-40.4-19.5-76.3-46.6-106.4-79.7c-12-13.2-23.2-27.2-33.5-42
				c-10.1-14.7-19.5-30.2-27.6-46.5c-24.1-47.8-39-101.8-40.1-160.1c-1.2-46.3,5.6-90.9,19.6-132.5c14.8-43.8,37-84,65.3-119.1
				l-6-5.8c-32,33.9-58.1,73.7-76.9,117.8c-18.5,43.2-29.7,90.3-32.4,140c-2.9,64.6,9,126,33.2,180.1c8.4,18.7,18.4,36.5,29.8,53.2
				c11.5,16.7,24.3,32.4,38.4,46.6c34.9,35.2,76.9,63,123.6,80.2c44.4,16.3,92.8,23,143.1,19.1L3757,986.5z"/>
		</g>
		<g transform="matrix(-0.191794,-0.715786,0.715786,-0.191794,4329.14,4673.64)">
			<path class="st0" d="M3615.4,288.3c23.1-12.8,47.7-23.2,73.5-30.4c25.2-7,51.3-10.9,78.2-11.9c13.2,0.4,26.1,1.5,38.8,3.5
				c52,8.2,98.8,30,140,59.3c22.1,15.7,42.1,34.1,60.6,53.9c24.6,26.4,46.4,55.7,63.3,88.7c24.8,48.5,40.1,103.4,41.4,162.8
				c1,48.3-6.3,95-22,138c-10.9,29.9-25.2,58.2-43.3,83.5c-20.5,28.6-45.7,53.3-73.4,74.2c-27.2,20.5-57.4,36.7-89.4,48.6
				c-4.2,1.6-8.7,2.1-12.7,4.4c-3,1.8-4.7,4.3-7.3,6.6l3.8,13.2c3.6,0.2,6.4,1,9.9,0.4c4.6-0.9,8.7-3.7,13-5.8
				c45.3-21.2,85.7-51.6,119.8-88.4c14.5-15.7,27.8-32.6,40.1-50.3c13.6-19.5,26-40,36.6-61.7c24.3-49.5,39.9-104.4,42.7-163
				c3.1-63.6-8.2-124-31.9-177.4c-16.5-37.1-38.5-71.2-66-99.6c-20.6-21.3-44.4-39.2-70-53.7c-46.2-26.1-98.6-40.3-154.1-42.8
				c-13.1-0.6-26.3-0.7-39.8,0.1c-27.4-0.2-54.1,3-80,8.8c-26.9,6-52.8,14.8-77.4,26.4L3615.4,288.3z"/>
		</g>
	</g>
	<g>
		<g transform="matrix(-3.37109,-0.514565,0.514565,-3.37109,4078.07,1806.88)">
			<path class="st1" d="M-51.7,26.4c0.1-6.4-5.5-11.6-12.2-11.6c-3.6,0-6.8,1.5-9.1,3.9c-2,2.1-3.3,4.9-3.3,7.9
				c-0.1,6.4,5.5,11.6,12.2,11.6C-57.4,38.1-51.8,32.8-51.7,26.4z"/>
		</g>
		<g transform="matrix(-5.33921,-5.26159,-3.12106,-6.96393,4073.87,1861.55)">
			<path class="st0" d="M-52.5,43.9c0,0-3.4,3.5-7.8,8c-7.6,7.9-18,18.8-18,18.8l1.2,0.2c0,0,11-10.7,19-18.6c4.5-4.5,8.1-8,8.1-8
				L-52.5,43.9z"/>
		</g>
	</g>
	<g id="Padlock" transform="matrix(3.11426,0,0,3.11426,3938.31,1737.25)">
		<g>
			<path class="st2" d="M24.1,91.2h51c2.9,0,5.2-2.2,5.2-4.9V37.9c0-2.7-2.3-4.9-5.2-4.9H-0.8c-2.9,0-5.2,2.2-5.2,4.9v28.6"/>
			<path class="st3" d="M12.6,33V9.7c0-12.8,11.1-23.3,24.6-23.3S61.8-3.1,61.8,9.7V33"/>
		</g>
	</g>
	<g>
		<g transform="matrix(5.30977,0.697415,-0.697415,5.30977,3852.72,1727.97)">
			<path class="st4" d="M28.5,56.3c0-2-0.5-3.9-1.4-5.5c-2.1-3.6-6.1-6.1-10.8-6.1c-6.7,0-12.3,5.3-12.4,11.7
				c0,6.4,5.5,11.6,12.2,11.6S28.4,62.7,28.5,56.3z"/>
		</g>
		<g transform="matrix(4.93114,2.49604,1.11018,5.44847,3921.41,1726.72)">
			<path class="st0" d="M17,28.3c0,0-10.2,8.9-17.6,15.5C-4.8,47.6-8,50.6-8,50.6l4.4,3.7c0,0,3.1-3.1,6.9-7.2C10,39.9,19,30,19,30
				L17,28.3z"/>
		</g>
	</g>
</g>
</svg>
