<?xml version="1.0" encoding="utf-8"?>
<!-- Generator: Adobe Illustrator 27.7.0, SVG Export Plug-In . SVG Version: 6.00 Build 0)  -->
<svg version="1.1" id="Layer_1" xmlns="http://www.w3.org/2000/svg" xmlns:xlink="http://www.w3.org/1999/xlink" x="0px" y="0px"
	 viewBox="0 0 512 512" style="enable-background:new 0 0 512 512;" xml:space="preserve">
<style type="text/css">
	.st0{fill:#292929;}
	.st1{fill:#FFFFFF;}
</style>
<path class="st0" d="M458,512H56c-30.4,0-55-24.6-55-55V55C1,24.6,25.6,0,56,0h402c30.4,0,55,24.6,55,55v402
	C513,487.4,488.4,512,458,512z"/>
<g>
	<g>
		<path class="st1" d="M162.8,347.3c-50.4,0-88.4-39.9-88.4-89.3s35.9-89.6,88.4-89.6c27.9,0,47,8.6,62.1,28l-24.3,20.1
			c-10.1-10.8-22.5-16.2-37.8-16.2c-34.1,0-52.8,26.1-52.8,57.6s20.5,57.1,52.8,57.1c15.1,0,28-5.3,38.4-16.2l23.9,21
			C210.6,338.7,190.8,347.3,162.8,347.3z"/>
		<path class="st1" d="M329.2,216.1h32.7v128.1h-32.7v-18.7c-6.7,13.2-18.1,22.2-39.7,22.2c-34.6,0-62.3-30.1-62.3-66.9
			c0-37,27.7-66.9,62.3-66.9c21.5,0,33,8.9,39.7,22.2V216.1z M330.3,280.6c0-20-13.8-36.6-35.4-36.6c-20.8,0-34.4,16.7-34.4,36.6
			c0,19.4,13.6,36.6,34.4,36.6C316.3,317.2,330.3,300.5,330.3,280.6z"/>
		<path class="st1" d="M385,164.3h32.7v179.6H385V164.3z"/>
	</g>
</g>
</svg>
