<?xml version="1.0" encoding="utf-8"?>
<!-- Generator: Adobe Illustrator 27.7.0, SVG Export Plug-In . SVG Version: 6.00 Build 0)  -->
<svg version="1.1" id="Layer_1" xmlns="http://www.w3.org/2000/svg" xmlns:xlink="http://www.w3.org/1999/xlink" x="0px" y="0px"
	 viewBox="0 0 512 512" style="enable-background:new 0 0 512 512;" xml:space="preserve">
<style type="text/css">
	.st0{fill-rule:evenodd;clip-rule:evenodd;fill:#5B757B;}
	.st1{fill-rule:evenodd;clip-rule:evenodd;fill:#4D1E00;}
	.st2{fill:url(#SVGID_1_);}
	.st3{fill-rule:evenodd;clip-rule:evenodd;fill:url(#SVGID_00000010294082982294892640000003374397428636969392_);}
	.st4{fill-rule:evenodd;clip-rule:evenodd;fill:url(#SVGID_00000072267593599886929040000004186325359452677564_);}
	.st5{fill-rule:evenodd;clip-rule:evenodd;fill:url(#SVGID_00000023283608688428396270000012462053605762298803_);}
	.st6{fill-rule:evenodd;clip-rule:evenodd;fill:url(#SVGID_00000076572611205264085220000006999407760919774399_);}
	.st7{fill:url(#SVGID_00000075867704496556240440000008415149529539888807_);}
	.st8{fill:url(#SVGID_00000005968355336691137190000002204554986072329892_);}
	.st9{fill-rule:evenodd;clip-rule:evenodd;fill:#79ABFF;}
	.st10{filter:url(#m);}
	.st11{fill-rule:evenodd;clip-rule:evenodd;fill:#0C13BA;}
	.st12{fill:none;stroke:#000000;stroke-width:5.868712e-02;stroke-miterlimit:10;}
	.st13{fill-rule:evenodd;clip-rule:evenodd;fill:#D6B865;}
	.st14{fill-rule:evenodd;clip-rule:evenodd;fill:url(#SVGID_00000015315686744745595820000006015480773958866316_);}
	.st15{fill-rule:evenodd;clip-rule:evenodd;fill:url(#SVGID_00000155851762609577000940000016030112095323844799_);}
</style>
<filter  color-interpolation-filters="sRGB" height="1.077" id="m" width="1.222" x="-.08" y="-.026">
	<feFlood  flood-opacity=".498" result="flood"></feFlood>
	<feComposite  in="flood" in2="SourceGraphic" operator="in" result="composite1"></feComposite>
	<feGaussianBlur  in="composite1" result="blur" stdDeviation="3"></feGaussianBlur>
	<feOffset  dx="6" dy="6" result="offset"></feOffset>
	<feComposite  in="SourceGraphic" in2="offset" operator="over" result="composite2"></feComposite>
</filter>
<g transform="translate(-3.015 -1.381) scale(.05212)">
	<path class="st0" d="M2643.2,1182.4h1816.2c80.7,0,146.1,65.4,146.1,146.1v8309.7c0,80.7-65.4,146.1-146.1,146.1H2643.2
		c-80.7,0-146.1-65.4-146.1-146.1V1328.5C2497.1,1247.8,2562.5,1182.4,2643.2,1182.4z"/>
	<path class="st1" d="M269.8,287.9h1976.1c110.2,0,199.6,89.4,199.6,199.6v9097.3c0,110.2-89.4,199.6-199.6,199.6H269.8
		c-110.2,0-199.6-89.4-199.6-199.6V487.5C70.2,377.2,159.6,287.9,269.8,287.9z"/>
	<g>
		
			<linearGradient id="SVGID_1_" gradientUnits="userSpaceOnUse" x1="-211492.25" y1="-29913.1035" x2="-204651.6094" y2="-29897.6367" gradientTransform="matrix(-5.733200e-05 -5.304252e-02 -5.121468e-02 5.941680e-05 -281.2443 -2694.3774)">
			<stop  offset="0" style="stop-color:#FFA900"/>
			<stop  offset="1" style="stop-color:#FFEDA0"/>
		</linearGradient>
		<path class="st2" d="M985.6,7662.7l4.6,31.9l-202.2,58.4c-15.8,65.9-23.7,125.6-23.7,179.3c0.1,130.1,44.1,232.3,131.9,306.6
			c87.8,74.2,201.7,111.3,341.6,111.1c149.7-0.2,269.2-42.8,358.3-127.9c89.1-85.1,133.6-202.8,133.5-353.1
			c-0.1-84.4-15.8-173.4-47.2-266.8l34.6-8.8c69.9,104.5,104.8,222.9,105,355.2c0.2,171.5-50.2,310-151.1,415.2
			c-100.9,105.3-233.9,158-399,158.2c-175.9,0.2-315.2-57.5-417.9-173.2s-154.1-267-154.3-453.9c-0.1-89.8,10.3-181.6,31.2-275.7
			l6.1-5.6L985.6,7662.7z M700.2,6882.2l940.3-354.8c35.4-13.3,59.5-25.3,72.3-35.9c12.3-11.2,21.5-26.9,27.6-47l21.5-74.9l33.1-1.6
			c-1.5,69.6-2.2,134.1-2.1,193.6c0.1,60.5,0.9,132,2.5,214.3l-33.1,3.2l-21.6-75.6c-3.6-10.6-7.5-18.1-11.6-22.3
			c-4.6-4.8-11.6-7.2-20.8-7.1c-10.3,0-23.6,2.9-40,8.8c-16.9,5.3-39.2,13.1-66.9,23.2l-206.1,75.1l0.4,384l205.5,83.4
			c28.7,11.1,51.6,19.8,68.5,26.2c16.9,6.4,30.3,9.5,40,9.5c8.7,0,15.4-2.4,20-7.2c4.1-5.3,7.7-13,10.7-23.1l20.7-74.1l34.6-1.6
			c-1.5,75.4-2.2,137-2.1,184.8c0.1,47.8,0.9,101.2,2.5,160.1l-33.1,4l-23.9-80.4c-6.2-20.2-15.7-35-28.5-44.6
			c-12.8-9.5-32.8-20.1-60-31.8l-938.9-406L700.2,6882.2z M1325.8,7135.7l-0.4-328.2l-423.7,155.8L1325.8,7135.7z M929.2,5973.7
			l625.4-0.7c56.9-0.1,113.1-0.7,168.4-1.8l-0.4-388l-203.9-101.7l-5.4-35.8l275.4,17.2l5.4,4.8c-1.4,137.6-2,264.8-1.9,381.6
			l0.2,200c0.1,64.3,0.9,130.1,2.5,197.6l-33.1,3.2l-28.6-97.9c-3.6-13.3-11.6-20.4-23.9-21.5c-20.5-0.5-43.3-0.7-68.5-0.7
			c-25.6-0.5-53.9-0.7-84.6-0.7l-623.8,0.7c-26.1,0-49.7,0.3-70.8,0.9c-21,0-40,0.3-56.9,0.9c-13.3,0.6-22.1,6.9-26.1,19.1
			l-29.9,98.8l-33.1,1.6c2-68.5,2.9-134.4,2.9-197.6c-0.1-63.7-1.2-129.6-3.3-197.6l33.1-3.2l28.6,98.8c3.1,12.7,11,19.6,23.9,20.7
			c17.9,0.5,44.1,1,78.5,1.5L929.2,5973.7L929.2,5973.7z M1555.1,5010.5l83.8-0.1c25.1-0.6,47.9-1.1,68.5-1.7
			c12.8-0.5,21.5-9.8,26.1-27.9l26.8-90.1l33.1-1.6c-1.5,68.5-2.2,134.4-2.1,197.6c0.1,64.3,0.9,130.1,2.5,197.6l-33.1,3.2
			l-28.6-97.9c-3.6-13.3-11.6-20.4-23.9-21.5c-20.5-0.5-43.3-0.7-68.5-0.7c-25.6-0.5-53.8-0.7-84.6-0.7l-623.8,0.7
			c-26.2,0-49.7,0.3-70.8,0.9c-21,0-40,0.3-56.9,0.9c-13.3,0.5-22,6.9-26.1,19.1l-29.9,98.8l-33.1,1.6c2-68.5,2.9-134.4,2.9-197.6
			c-0.1-63.7-1.2-129.6-3.3-197.6l33.1-3.2l28.6,98.8c3.1,12.7,11,19.6,23.9,20.7c18,0.5,37.7,1,59.2,1.5l69.2-0.1L1555.1,5010.5z
			 M714,4679.9c2-68.5,2.9-135.2,2.9-200c-1.1-24.4-2.6-64-4.7-118.7c-2.1-54.7-3.2-91.6-3.2-110.7
			c-0.1-114.7,20.8-201.3,62.8-259.8c41.5-59,101.4-88.5,179.9-88.6c126.1-0.1,212.1,70.1,257.9,210.8
			c13.2-82.3,42.7-146.9,88.3-193.7c45.6-47.3,103.8-71,174.5-71.1c102.6-0.1,182.1,38.3,238.6,115.2c56,77,84,183.7,84.2,320.2
			c0,27.1-0.7,56.6-2.2,88.4c-1.5,31.3-2.2,66.7-2.2,106c0.1,64.3,0.9,130.1,2.5,197.6l-33.1,3.2l-28.6-98
			c-3.6-13.3-11.6-20.4-23.9-21.5c-20.5-0.5-43.3-0.8-68.5-0.7c-25.6-0.5-53.8-0.7-84.6-0.7l-623.8,0.7c-26.2,0-49.7,0.3-70.8,0.9
			c-21,0-40,0.3-56.9,0.9c-13.3,0.5-22,6.9-26.1,19.1l-29.9,98.8L714,4679.9z M1255.2,4403.7l466.9-0.5c5.6-15.9,9.2-34.3,10.7-55
			c1.5-21.2,2.3-40.6,2.2-58.2c-0.1-88.2-21.2-155.1-63.3-200.7c-42.1-46.2-103.2-69.2-183.1-69.1c-80,0.1-139.2,23.5-177.6,70.3
			c-38.9,46.2-58.3,121.2-58.2,224.7C1252.8,4345.5,1253.6,4375,1255.2,4403.7z M1193.7,4403.8c0.5-32.9,0.7-66.4,0.7-100.4
			c-0.1-78.6-18.4-137.8-54.8-177.6c-37-40.3-90.3-60.4-160.1-60.4c-73.3,0.1-125.9,20.9-157.6,62.3
			c-32.3,40.9-48.3,100.2-48.3,177.7c0,13.8,0.5,28.9,1.6,45.4c0.5,16.5,1.8,34.3,3.9,53.4L1193.7,4403.8z M1553.3,3372.4l83.1-0.1
			c24.6-0.6,46.9-1.1,66.9-1.7c15.9-0.5,25.9-7.5,30-20.7l25.3-88.5l33.1-2.4c-1.5,63.2-2.2,126.4-2.1,189.6
			c0.1,64.3,0.9,130.1,2.5,197.6l-33.1,3.2l-28.6-98c-3.6-13.3-11.6-20.4-23.9-21.5c-20.5-0.5-43.3-0.7-68.4-0.7
			c-25.6-0.5-53.9-0.7-84.6-0.7l-623.8,0.7c-26.2,0-49.7,0.3-70.8,0.9c-21,0-40,0.3-56.9,0.9c-13.3,0.5-22,6.9-26.1,19.1l-29.9,98.8
			l-33.1,1.6c2-68.5,2.9-135.2,2.9-200c0-12.7-0.3-28.9-0.8-48.6c-1-19.6-2.1-43.5-3.1-71.7c-1.1-28.7-1.9-52.6-2.4-71.7
			c-0.5-19.1-0.8-34.3-0.8-45.4c-0.1-121.1,21.8-211.9,65.9-272.5c44-60.6,108.4-90.9,193-91c76.4-0.1,138.5,20.6,186.2,61.9
			c47.2,41.4,83.7,104.5,109.4,189.5c49.2-33.5,96.8-64.4,143-92.6c45.6-28.2,87.6-54.3,126.1-78.2c37.9-24.5,71.5-46.8,100.7-67
			c29.2-20.2,52.3-39.1,69.2-56.6c8.7-9,16.4-18.1,23-27.1c6.1-9,11.3-18.3,15.4-27.9c4.1-10.1,7.7-20.5,10.7-31.1
			c3.1-11.1,6.1-23.4,9.2-36.7l33.9-2.4c4.7,38.2,7,70.4,7,96.4c0,21.8-0.5,40.9-1.5,57.4c-1,16.5-3,31.1-6.1,43.8
			c-3.1,12.7-6.9,24.4-11.5,35.1c-5.1,10.1-11.5,20.2-19.2,30.3c-15.9,21.8-38.7,43.3-68.4,64.6c-30.2,20.7-64.3,42.6-102.2,65.4
			c-37.9,22.4-78.2,45.8-120.7,70.2c-43,24.5-85.1,50.3-126.1,77.4c-12.3,8-22,14.9-29.2,20.7c-7.2,5.3-12.8,11.4-16.9,18.3
			c-4.1,6.4-6.9,14.1-8.4,23.1c-1.5,8.5-2.5,19.7-3,33.5l-1.5,55L1553.3,3372.4L1553.3,3372.4z M1228.7,3372.8
			c1.5-32.4,2.2-62.4,2.2-90c-0.1-91.9-18.9-159-56.4-201.5c-38-43-97.2-64.4-177.8-64.3c-77.9,0.1-134.8,20.6-170.7,61.5
			s-53.7,105-53.6,192.1c0,14.9,0.5,30.8,1.6,47.8c1,17,2.6,35.3,4.7,55L1228.7,3372.8z M714.5,2369.4l-0.2-193.6
			c-0.1-119-1.3-244.6-3.5-376.8l6.2-4.8l237.7,45.9l5.4,31.9l-177.6,49.6l0.4,368l423.1-0.5l-0.1-72.5
			c-0.1-55.2-0.6-116.8-1.7-184.8c-0.5-13.8-7.2-22.8-20-27.1l-103.9-27.8l-1.6-43c71.8,1.5,124.9,2.2,159.2,2.2
			c33.3,0,85.6-0.9,156.9-2.6l3.1,43l-105.4,28.8c-13.3,4.3-20.2,12.5-20.7,24.7c-1,69-1.4,131.4-1.3,187.2l0.1,71.7l280-0.3
			c56.9-0.1,113.1-0.7,168.4-1.8l-0.4-382.4l-195.5-97l-6.2-35.8l267.7,17.2l5.4,5.6c-1.4,137.6-2,264.5-1.9,380.8l0.2,189.6
			c0.1,64.3,0.9,130.1,2.5,197.6l-33.1,3.2l-28.6-98c-3.6-13.3-11.6-20.4-23.9-21.5c-20.5-0.5-43.3-0.8-68.5-0.7
			c-25.6-0.5-53.8-0.7-84.6-0.7l-623.8,0.7c-26.2,0-49.7,0.3-70.8,0.9c-21,0-40,0.3-56.9,0.9c-13.3,0.5-22.1,6.9-26.1,19.1
			l-29.9,98.8l-33.1,1.6C713.6,2498.5,714.6,2432.6,714.5,2369.4L714.5,2369.4z"/>
	</g>
	<g>
		
			<linearGradient id="SVGID_00000176015374854534756030000004325690872411834807_" gradientUnits="userSpaceOnUse" x1="40851.0781" y1="-63177.0352" x2="40851.0781" y2="-62811.2695" gradientTransform="matrix(5.268811e-02 0 0 -5.197407e-02 -894.8199 -2042.3118)">
			<stop  offset="0" style="stop-color:#000001;stop-opacity:0"/>
			<stop  offset="0.5" style="stop-color:#000000"/>
			<stop  offset="1" style="stop-color:#000000;stop-opacity:0"/>
		</linearGradient>
		<path style="fill-rule:evenodd;clip-rule:evenodd;fill:url(#SVGID_00000176015374854534756030000004325690872411834807_);" d="
			M59.8,869h2395.5v379.9H59.8V869z"/>
		
			<linearGradient id="SVGID_00000116915035170958020060000013600375171866842291_" gradientUnits="userSpaceOnUse" x1="41010.7422" y1="-199834.4375" x2="41010.7422" y2="-199468.6719" gradientTransform="matrix(5.212000e-02 0 0 -5.212000e-02 -894.8671 -1303.0515)">
			<stop  offset="0" style="stop-color:#000001;stop-opacity:0"/>
			<stop  offset="0.5" style="stop-color:#000000"/>
			<stop  offset="1" style="stop-color:#000000;stop-opacity:0"/>
		</linearGradient>
		<path style="fill-rule:evenodd;clip-rule:evenodd;fill:url(#SVGID_00000116915035170958020060000013600375171866842291_);" d="
			M57.8,8739.1h2369.5v381H57.8V8739.1z"/>
		
			<radialGradient id="SVGID_00000075848729317829426270000005670591411664090542_" cx="51589.6211" cy="-976010.0625" r="1192.0944" gradientTransform="matrix(9.098589e-02 -2.272432e-04 0 -4.662655e-03 -1162.0435 -2405.8521)" gradientUnits="userSpaceOnUse">
			<stop  offset="0" style="stop-color:#FFFFFF"/>
			<stop  offset="1" style="stop-color:#5B757B;stop-opacity:0"/>
		</radialGradient>
		<path style="fill-rule:evenodd;clip-rule:evenodd;fill:url(#SVGID_00000075848729317829426270000005670591411664090542_);" d="
			M2488.3,2026.6h2125.8v213.3H2488.3V2026.6z"/>
		
			<radialGradient id="SVGID_00000069357364041999806870000015800942701451543440_" cx="51626.7266" cy="-2286594" r="1192.0977" gradientTransform="matrix(9.033438e-02 -2.272432e-04 0 -4.662655e-03 -1157.6882 -1773.712)" gradientUnits="userSpaceOnUse">
			<stop  offset="0" style="stop-color:#FFFFFF"/>
			<stop  offset="1" style="stop-color:#5B757B;stop-opacity:0"/>
		</radialGradient>
		<path style="fill-rule:evenodd;clip-rule:evenodd;fill:url(#SVGID_00000069357364041999806870000015800942701451543440_);" d="
			M2496,8769.5h2110.5v213.3H2496V8769.5z"/>
	</g>
	<g>
		
			<radialGradient id="SVGID_00000155832051472370018130000006866743270059207041_" cx="-146725.2656" cy="-119819.7109" r="2185.5278" gradientTransform="matrix(6.071980e-04 -6.227819e-02 -3.349335e-02 -3.267924e-04 -372.8241 -2777.9189)" gradientUnits="userSpaceOnUse">
			<stop  offset="0" style="stop-color:#FFFFFF"/>
			<stop  offset="1" style="stop-color:#FFFFFF;stop-opacity:0.392"/>
		</radialGradient>
		<path style="fill:url(#SVGID_00000155832051472370018130000006866743270059207041_);" d="M3839.8,7856.2
			c54.7,37.1,70.6,56.8,71.4,89.5c0.8,33.6-26.2,67.9-76.4,97c-51.1,29.1-85.4,43.4-219.5,95.7c-54.2,21.5-84.7,32.8-145.5,57.4
			c-128.4-143.8-157.3-185.3-158.3-227.5c-0.4-17.3,2.1-29.8,13-57l-71.9-33.8c-9,24.2-11.6,36.8-11.2,54.1
			c0.6,24,6.8,40.2,23.6,62.8c10,14.2,10,14.2,111.8,134.6l83,94c3,2.8,11.9,14.1,24.7,30.1l-201.8-45c-8.4-27.6-13.3-35.2-31-49.2
			c-1.8,43.3-2.3,64.4-1.7,88.4c1.9,75.8,13.9,136,35.1,177.8c37.3,71.1,94.9,109.1,164,107.4c24.9-0.6,40.2-4.8,71.6-18.1
			l-35.5-77.9c-37.1,16.3-59.9,22.6-90.7,23.4c-67.2,1.7-104.8-45.4-107-134.7c-0.2-9.6,0.3-25.9,1.7-46.1l37.7,8.7
			c241.3,51.7,289.7,64.9,355.7,93c61.2,30.2,87.1,66,85.6,120.8l0.9,36.5l42.3,41.2l-3.3-131.5c-1.7-67.2-1.7-71-9.9-89.1
			c-9.1-19-21.2-39.8-35.1-61.5l2.9,116.1c-120-114.2-145.3-128.9-266-156.7l20.9-7.2c16.2-6.2,17.1-6.2,52.4-18.6l57.2-18.7
			c133.3-44.6,198.9-75,237.3-110.5c46.9-43.4,70.5-102.6,68.7-173.6c-0.8-31.7-4.1-48.9-18.4-84.1L3839.8,7856.2z"/>
		
			<radialGradient id="SVGID_00000068646798979053327420000012885267614673585046_" cx="-146725.2656" cy="-119819.7109" r="2185.5278" gradientTransform="matrix(6.071980e-04 -6.227819e-02 -3.349335e-02 -3.267924e-04 -372.8241 -2777.9189)" gradientUnits="userSpaceOnUse">
			<stop  offset="0" style="stop-color:#FFFFFF"/>
			<stop  offset="1" style="stop-color:#FFFFFF;stop-opacity:0.392"/>
		</radialGradient>
		<path style="fill:url(#SVGID_00000068646798979053327420000012885267614673585046_);" d="M3396.1,7736.3
			c0.9,38.4,30.3,99.1,73.9,154.7c47.6,60.3,148.5,101,244.4,98.6c57.6-1.4,94.2-35,93-85.8c-0.7-26.9-10.9-54.5-35.1-97.1
			c-28.1-47.3-52.8-78.4-75.3-95.1c-53.7-37.1-148.5-65.5-214.8-63.8C3430.4,7649,3394.8,7685.4,3396.1,7736.3z M3442.4,7785.1
			c-0.9-38.4,34.9-63.3,93.5-64.7c41.3-1,90.6,11.2,138.1,33.1c55.4,26.5,86,60.3,86.9,96.8c1,39.4-33.9,65.2-88.6,66.5
			C3561,7919.5,3444.1,7852.3,3442.4,7785.1z M3580.6,7586.5c-87.1-25.7-95.9-32.2-98.7-67.7c-2.3-53.7-3.6-68.1-9.9-91.9
			c64.7,55.1,84.3,70,106.7,82.8c46.8,26.7,101.9,41.7,148.9,40.5c44.1-1.1,70.5-21.9,69.7-53.6c-1.9-75.8-84-173.7-198.9-237.1
			c-65.2-36.8-140.7-59.9-188.7-58.7c-23,0.6-35.3,7.6-51.2,26.2c7.3,22.9,11.4,33.3,27.5,63.6c25.6-12.2,39.9-16.4,66.8-17
			c58.6-1.4,119.4,14.3,175.9,45.6c64.3,35.9,111.6,87.5,112.5,123c0.5,22.1-24,39-56.6,39.8c-44.1,1.1-97.3-13-146-38.7
			c-35-18.3-61.4-36.9-113.4-79.8l-6.7,0.2c-1.9,0-5.8,0.1-10.5,1.2l0.2,9.6c13.7,10.2,16.8,20.7,17.6,50.5
			c0.3,12.5,0.6,24-0.6,53.8c-0.4,24-0.9,40.4-0.8,47.1c0.5,19.2,3.6,27.8,11.4,33.3c15.7,12.1,55.4,26.5,125,44L3580.6,7586.5z
			 M3181.1,7004.6c21.8,26.3,39.6,48,51.5,65c20-7.2,36.1-16.3,66.3-38.1c-24.7-26.3-27.6-29.1-53.4-61.1c-5.7,3-9.5,5-21.8,13
			c-11.4,6-11.4,7-30.4,15.2L3181.1,7004.6z M3660.1,6956.2l9,16.1c38.1,65.3,43.2,76.7,43.5,88.2c0.3,10.6-10.1,17.5-26.5,17.9
			c-16.3,0.4-16.3,0.4-143.8-28.1c-146.8-31.9-146.8-31.9-154.4-31.7c-5.8,0.1-9.5,5-9.3,11.8c0.4,16.3,33.5,72.2,88.2,149.5
			l26.9,1.2c-33.1-57.8-34.1-60.6-34.4-69.2c-0.2-7.7,5.5-11.7,16-11.9c13.4-0.3,26.9,2.2,82,15.3c168.1,41,168.1,41,193.1,40.4
			c23-0.6,38.2-9.6,37.8-24c-0.4-16.3-13.5-41.9-47.4-92c-12-17.9-23.9-35.9-36.9-53.8c-5-8.5-10-15.1-17-26.5L3660.1,6956.2z
			 M3635.5,6547.6l17.9,26.5c16.9,23.6,28.8,39.6,31.8,44.3c13,19.8,22.1,37.9,22.2,42.7c0.2,7.7-10.2,13.7-24.6,14
			c-31.7,0.8-381.1-70.3-441.1-89.9c-58.1-19.7-80.7-40.3-81.6-74.8c-0.3-13.4,1.4-22.1,6.6-44.3l-54.6-32.3
			c-2.5,14.5-3.3,21.2-3.1,30.8c0.6,23,4.7,36.4,17.7,57.2c14,23.7,39.8,55.7,65.4,81.9c46.3,45.9,53.1,48.6,152.5,71.1
			c3.9,0.9,17.4,3.4,30.9,6.9c-3.4,17.4-5,30.8-4.8,39.5c0.7,29.8,54.6,111,97.8,148.4c38.2,31.7,174.6,71.6,240.8,69.9
			c36.5-0.9,73.4-21,73-38.3c-0.5-18.2-28.4-61.7-102.8-158.8c26,4.2,51,6.4,69.3,6c19.2-0.5,29.6-7.5,29.2-21.8
			c-0.4-15.4-53.3-97.6-112.9-175.8L3635.5,6547.6z M3644,6735.6c59.6,80.2,72.6,101,72.9,114.4c0.3,13.4-12.9,20.5-41.7,21.2
			c-31.7,0.8-67.3-4.1-110.8-14.5c-97.6-24.5-146.5-61.7-147.7-110.6c-0.4-18.2,6-30.9,24.7-50.6L3644,6735.6z M3513.3,5835
			l-0.5-20.2l-28-43.5c-2,37.5-1.9,118.2,0.5,216.1l31.2,57.8l7.7-0.2c-3.9-46.6-7-93.3-9.2-140l139.1,31.1
			c39.4,40.3,66.7,96.3,67.8,140.5c1.8,71-52.8,116.5-140.2,118.7c-187.1,4.6-364.9-116.8-368.3-252.1c-1-39.4,14.5-73.3,42.9-92.3
			c18.9-12.9,35.1-18.2,75.2-24.9l-81.4-69c-54.3,19.6-74.5,54.7-72.7,128.6c2.6,105.6,48.1,198.6,132.5,273.3
			c85.4,75.7,203.7,121.7,305.4,119.2c93.1-2.3,149.4-54.6,147.4-137.1c-1.5-59.5-17.1-109.1-63.4-194.3
			c57.9,13,120.7,28.7,142.1,36.8c52.3,17.9,74.1,45.2,75.4,96.1c0.7,27.8-2,74-6.1,103.9l64.3,38.8c3-34.6,3.6-49.1,3.1-69.2
			c-1.9-76.8-38.1-141.2-112.6-202.7c-49-40.1-89.7-56.4-201.8-81.4L3513.3,5835z M3340.3,5477.6c0.9,38.4,30.3,99.1,73.9,154.7
			c47.6,60.3,148.5,101,244.4,98.6c57.6-1.4,94.2-35,93-85.8c-0.7-26.9-10.9-54.5-35.1-97.1c-28.1-47.3-52.8-78.4-75.3-95.1
			c-53.7-37.1-148.5-65.5-214.8-63.8C3374.6,5390.3,3339,5426.7,3340.3,5477.6z M3386.6,5526.4c-0.9-38.4,34.9-63.3,93.5-64.7
			c41.3-1,90.6,11.2,138.1,33.1c55.4,26.5,86,60.3,86.9,96.8c1,39.4-33.9,65.2-88.6,66.5C3505.2,5660.8,3388.3,5593.6,3386.6,5526.4
			z M3964.6,5404.4c3.1-30.8,5-71.2,4.1-105.7c-1.7-67.2-20.8-104.2-80.7-158.4c-61.8-54.2-71.5-57.8-228.8-87.5
			c-154.4-29.8-225.8-46.3-335.1-76.2c7,12.3,13,22.7,15.1,26.5l17.2,33.2c4.1,8.5,7.1,14.2,11.1,20.9l34.8,7.8l79.2,18.2l79.2,17.2
			l41.5,9.5c61.9,94.5,64.9,99.2,65.3,116.5c0.3,11.5-12,20.5-30.2,20.9c-26.9,0.7-61.6-6.2-189.1-36.6
			c-96.5-20.7-96.5-20.7-103.3-20.5c-6.7,0.2-11.4,5.1-11.3,10.8c0.3,10.6,33.4,70.2,83.4,150.6l26,2.2
			c-25.2-47.4-28.2-55-28.5-65.6c-0.2-9.6,4.4-14.5,14-14.8c17.3-0.4,45.3,5.6,131.3,26.5c87.9,21.8,104.3,25.3,130.3,24.6
			c31.7-0.8,53.4-15.7,52.9-34.9c-0.3-11.5-7.3-24.8-28.3-56.9c-53.9-81.3-53.9-81.3-83.6-120.9l51.1,9.3
			c138,25.4,155.3,29.8,180.6,40.7c34,15.5,49.1,44.9,50.4,98.6c0.7,28.8-2.6,50-14.6,107L3964.6,5404.4z M3586.5,4559.8
			c49.7,68.9,59.7,85,59.9,94.6c0.2,6.7-7.4,11.7-18.9,12c-25.9,0.6-127.2-18.9-259.6-51.2c-15.6-10.2-17.6-12.1-35.2-27
			c-9.4,46.3-12.4,79.1-11.4,121.3c1,39.4,5.3,58.5,21.2,82.1c21,34.1,51.8,73.6,65.5,85.8c41.2,35.5,171.7,71.6,249.5,69.7
			c46.1-1.1,76.4-17.2,75.8-41.2c-0.5-21.1-20.5-52.3-109.8-170.1c49.2,9.3,73.3,12.6,85.8,12.3c13.4-0.3,20-6.3,19.8-15.9
			c-0.3-12.5-4.3-20.1-51.1-87.1c-22.9-32.1-35.8-50-62.6-84.9L3586.5,4559.8z M3583.9,4728.9c25.8,33,38.7,49.9,39.7,50.9
			c20.9,31.2,34,55.8,34.3,68.3c0.4,16.3-16.7,25.4-47.4,26.1c-49,1.2-112.6-11.6-168.9-35.2c-53.4-21.7-74-42.3-74.8-75
			c-0.4-17.3,3.6-50,10.5-81.9c69.6,17.5,95.7,23.6,100.5,24.4c24.1,5.2,48.2,9.4,73.3,14.5
			C3555.9,4721.9,3567.5,4724.5,3583.9,4728.9L3583.9,4728.9z M3582.8,4334.3c12,19.9,12,19.9,38.9,60.5c18,27.4,26,43.5,26.3,54.1
			c0.2,9.6-11.1,17.6-24.5,17.9l-17.3,0.4c-17.3,0.4-204.5-38.2-340.7-70.3c-143-33.9-159.5-42.2-160.5-84.4
			c-0.4-14.4,0.4-24,5.6-47.2l-51.9-40c-4.3,20.3-5,29.9-4.7,43.3c0.9,38.4,16.1,67.8,59.5,113.8c38.5,41.3,54.1,51.5,89,63.1
			c23.2,7.1,101.5,26.3,143.9,34.9l302.1,61.7c5.8,0.8,11.6,1.6,17.3,1.5c29.7-0.7,58.1-17.8,57.8-33.1l-0.1-5.8l-0.1-2.9
			c2.7-5.8-19.1-36-119.4-168L3582.8,4334.3z"/>
	</g>
	<g>
		<path class="st9" d="M6495.6,3568l2036.7-366.3c78.1-14,154,37.7,169.4,115.5l1176.8,5932.1c15.4,77.9-35.4,152.4-113.5,166.4
			L7728.4,9782c-78.1,14-154-37.7-169.4-115.5L6382.1,3734.4C6366.7,3656.6,6417.5,3582.1,6495.6,3568z"/>
		<g class="st10">
			<polygon class="st11" points="7817.9,6506.1 8014.6,6077.4 8341.8,6416.3 7814.6,3339.7 7290.7,3429.5 			"/>
			<polygon class="st12" points="7817.9,6506.1 8014.6,6077.4 8341.8,6416.3 7814.6,3339.7 7290.7,3429.5 			"/>
		</g>
		<path class="st13" d="M5780.4,92.5c-8.9-0.7-18-0.4-27.3,0.8l-1131.8,145c-73.4,9.2-125.5,76.3-116.2,149.7c0,0.2,0,0.4,0.1,0.6
			l1189,9278.5c9.3,73.4,76.3,125.5,149.7,116.2c0.2,0,0.4,0,0.6-0.1l1131.8-145c73.4-9.2,125.5-76.3,116.2-149.7
			c0-0.2,0-0.4-0.1-0.6l-1189-9278.5C5895.5,146.1,5844,97.2,5780.4,92.5L5780.4,92.5z"/>
		
			<radialGradient id="SVGID_00000054969571149006464190000017595510940110899076_" cx="18976.625" cy="-317295.9688" r="438.2043" gradientTransform="matrix(0.6202 -9.069401e-02 -5.649287e-03 -3.863134e-02 -7177.1343 -1094.7139)" gradientUnits="userSpaceOnUse">
			<stop  offset="0" style="stop-color:#601A22"/>
			<stop  offset="0.867" style="stop-color:#45181D"/>
			<stop  offset="1" style="stop-color:#A13642;stop-opacity:0"/>
		</radialGradient>
		<path style="fill-rule:evenodd;clip-rule:evenodd;fill:url(#SVGID_00000054969571149006464190000017595510940110899076_);" d="
			M5780.4,92.5c-8.9-0.7-18-0.4-27.3,0.8l-1131.8,145c-73.4,9.2-125.5,76.3-116.2,149.7c0,0.2,0,0.4,0.1,0.6l1189,9278.5
			c9.3,73.4,76.3,125.5,149.7,116.2c0.2,0,0.4,0,0.6-0.1l1131.8-145c73.4-9.2,125.5-76.3,116.2-149.7c0-0.2,0-0.4-0.1-0.6
			l-1189-9278.5C5895.5,146.1,5844,97.2,5780.4,92.5L5780.4,92.5z"/>
		
			<radialGradient id="SVGID_00000031910311574639787740000015498629684036197543_" cx="19985.3965" cy="-84408.7891" r="438.2043" gradientTransform="matrix(0.5681 -8.172416e-02 -5.558598e-03 -3.864489e-02 -6583.6118 -1196.3296)" gradientUnits="userSpaceOnUse">
			<stop  offset="0" style="stop-color:#601A22"/>
			<stop  offset="0.867" style="stop-color:#45181D"/>
			<stop  offset="1" style="stop-color:#A13642;stop-opacity:0"/>
		</radialGradient>
		<path style="fill-rule:evenodd;clip-rule:evenodd;fill:url(#SVGID_00000031910311574639787740000015498629684036197543_);" d="
			M5780.4,92.5c-8.9-0.7-18-0.4-27.3,0.8l-1131.8,145c-73.4,9.2-125.5,76.3-116.2,149.7c0,0.2,0,0.4,0.1,0.6l1189,9278.5
			c9.3,73.4,76.3,125.5,149.7,116.2c0.2,0,0.4,0,0.6-0.1l1131.8-145c73.4-9.2,125.5-76.3,116.2-149.7c0-0.2,0-0.4-0.1-0.6
			l-1189-9278.5C5895.5,146.1,5844,97.2,5780.4,92.5L5780.4,92.5z"/>
	</g>
</g>
</svg>
