<?xml version="1.0" encoding="utf-8"?>
<!-- Generator: Adobe Illustrator 27.7.0, SVG Export Plug-In . SVG Version: 6.00 Build 0)  -->
<svg version="1.1"
	 id="svg8" xmlns:sodipodi="http://sodipodi.sourceforge.net/DTD/sodipodi-0.dtd" xmlns:inkscape="http://www.inkscape.org/namespaces/inkscape" xmlns:svg="http://www.w3.org/2000/svg" xmlns:cc="http://creativecommons.org/ns#" xmlns:dc="http://purl.org/dc/elements/1.1/" xmlns:rdf="http://www.w3.org/1999/02/22-rdf-syntax-ns#" sodipodi:docname="drawing.svg"
	 xmlns="http://www.w3.org/2000/svg" xmlns:xlink="http://www.w3.org/1999/xlink" x="0px" y="0px" viewBox="0 0 512 512"
	 style="enable-background:new 0 0 512 512;" xml:space="preserve">
<style type="text/css">
	.st0{fill:#FFFFFA;stroke:#DE6A0B;stroke-width:7.3135;stroke-miterlimit:8.7403;}
	.st1{fill:#ED5B26;}
	.st2{fill:#F59120;}
	.st3{fill:#F2E713;}
</style>
<sodipodi:namedview  bordercolor="#666666" borderopacity="1.0" id="base" inkscape:current-layer="layer1" inkscape:cx="269.37782" inkscape:cy="668.39863" inkscape:document-units="mm" inkscape:pageopacity="0.0" inkscape:pageshadow="2" inkscape:window-height="1052" inkscape:window-maximized="1" inkscape:window-width="1920" inkscape:window-x="1366" inkscape:window-y="0" inkscape:zoom="0.7" pagecolor="#ffffff" showgrid="false">
	</sodipodi:namedview>
<g id="layer1" inkscape:groupmode="layer" inkscape:label="Layer 1">
	<g id="g890" transform="matrix(0.77084685,0,0,0.77084685,46.981668,-18.105653)">
		<circle id="path865" class="st0" cx="272.5" cy="356.4" r="325"/>
		<path id="path848" inkscape:connector-curvature="0" class="st1" d="M244.8,681.8c0.8-0.3,2-0.3,2.8,0c0.8,0.3,0.1,0.6-1.4,0.6
			C244.6,682.3,244,682.1,244.8,681.8L244.8,681.8z M232.6,680.7c0.8-0.3,1.8-0.3,2.1,0.1c0.4,0.4-0.3,0.6-1.5,0.6
			C232,681.3,231.7,681,232.6,680.7L232.6,680.7z M223.8,679.5c0.8-0.3,1.8-0.3,2.1,0.1c0.4,0.4-0.3,0.6-1.5,0.6
			C223.1,680.2,222.9,679.9,223.8,679.5L223.8,679.5z M216,678.4c0.8-0.3,1.8-0.3,2.1,0.1c0.4,0.4-0.3,0.6-1.5,0.6
			C215.4,679.1,215.1,678.8,216,678.4L216,678.4z M230.6,625.5c0-0.3,3.4-5.2,7.4-10.9c17.6-24.4,23.5-36.3,28.6-57.8
			c5.1-21.6,6.5-48.3,3.3-65.1c-6.2-32.9-27.2-68-64.7-108.2c-41.7-44.8-74.4-90.1-92.8-128.4c-7.3-15.3-11-26.2-13.3-39
			c-2.1-12.3-2.1-17.4,0-28.1c5.4-26.3,22.3-42.6,52.6-50.7c23.4-6.2,28.6-6.6,84.3-6.7c56-0.1,57.8-0.2,58.6-6
			c0.9-6.3-16.9-19.7-45.9-34.6c-9.8-5-18-9.4-18.3-9.7c-1.4-1.3,53.5,6.6,67.8,9.8c29.6,6.6,69.1,23.6,95.9,41.3
			c17.6,11.6,35.4,29.9,41.9,43c4.9,9.8,5.6,21.4,1.7,28.9c-4.4,8.5-12.9,12.2-27.9,12.2c-15.5,0-43.7-6.2-73.5-16.1
			c-52.2-17.3-69.8-21.6-89-21.6c-14.2,0-21.2,1.5-27.8,5.9c-17,11.5-16.2,45,2,78.4c7.3,13.5,14.4,23.7,26.8,38.5
			c18.9,22.6,48.9,64.4,60.4,84.1c6.4,11,11.9,23.7,15.7,36.6c5.5,18.4,6.3,24.6,6.3,50.5c0,21.4-0.3,24.9-2.6,33.8
			c-10,38-38.6,74.5-90.3,114.8C234,623.5,230.6,625.9,230.6,625.5L230.6,625.5z"/>
		<path id="path850" inkscape:connector-curvature="0" class="st2" d="M331.1,546.1c0.6-1.2,3.7-7.7,6.8-14.4
			c13.5-28.4,16.4-36.5,20.7-57.6c2.7-13.2,3-16.9,3-41.1c0.1-25.8,0-27-3-37.5c-5.2-18.8-16.1-38.8-31.2-57.3
			c-3.7-4.6-15.5-17.3-26.3-28.3c-35.4-36.3-45.8-50.8-51.1-71.3c-4-15.6-2.2-23.6,7-32.1c6.5-6,11.7-7.4,25.8-6.8
			c12.9,0.5,17.6,2.5,31.6,12.8c35.6,26.4,69.4,81.1,80.1,129.6c3.5,16,3.5,45.1,0,65.8c-5.5,32.4-14,59.5-25.5,81.7
			c-6.5,12.5-29.5,48-35.6,54.9C331.6,546.6,330.5,547.4,331.1,546.1L331.1,546.1z"/>
		<path id="path852" inkscape:connector-curvature="0" class="st3" d="M416.5,382.8c2.1-7.2,4.3-28.6,4.3-41.3
			c0-11.1-0.5-16.5-2.3-23.3c-3.3-12.4-14.1-33.3-24.7-47.7c-15.7-21.3-19.1-28.9-15.9-35c1-2,3.4-4.1,5.7-5.1
			c3.6-1.5,4.3-1.4,9.8,1.1c11.2,5.1,22,13.3,27,20.5c6.3,9,13.9,25.4,16.4,35.6c2.8,11.1,2.7,32,0,42.2
			c-2.8,10.3-13.8,42.8-16.8,49.7C417.3,385.4,415.2,387.5,416.5,382.8L416.5,382.8z"/>
	</g>
</g>
</svg>
