<?xml version="1.0" encoding="UTF-8" standalone="no"?>
<svg
   xmlns:dc="http://purl.org/dc/elements/1.1/"
   xmlns:cc="http://creativecommons.org/ns#"
   xmlns:rdf="http://www.w3.org/1999/02/22-rdf-syntax-ns#"
   xmlns:svg="http://www.w3.org/2000/svg"
   xmlns="http://www.w3.org/2000/svg"
   xmlns:sodipodi="http://sodipodi.sourceforge.net/DTD/sodipodi-0.dtd"
   xmlns:inkscape="http://www.inkscape.org/namespaces/inkscape"
   version="1.1"
   id="Layer_1"
   x="0px"
   y="0px"
   width="1000"
   height="802.20697"
   viewBox="0 0 1000 802.20699"
   enable-background="new 0 0 708.661 827.717"
   xml:space="preserve"
   inkscape:version="0.91 r13725"
   sodipodi:docname="Carrefour 2009.svg"><metadata
   id="metadata13"><rdf:RDF><cc:Work
       rdf:about=""><dc:format>image/svg+xml</dc:format><dc:type
         rdf:resource="http://purl.org/dc/dcmitype/StillImage" /><dc:title></dc:title></cc:Work></rdf:RDF></metadata><defs
   id="defs11" /><sodipodi:namedview
   pagecolor="#ffffff"
   bordercolor="#666666"
   borderopacity="1"
   objecttolerance="10"
   gridtolerance="10"
   guidetolerance="10"
   inkscape:pageopacity="0"
   inkscape:pageshadow="2"
   inkscape:window-width="1366"
   inkscape:window-height="705"
   id="namedview9"
   showgrid="false"
   inkscape:zoom="0.1767767"
   inkscape:cx="845.16211"
   inkscape:cy="524.65341"
   inkscape:window-x="-8"
   inkscape:window-y="-8"
   inkscape:window-maximized="1"
   inkscape:current-layer="Layer_1" />
<path
   style="fill:#004e9f;fill-opacity:1"
   inkscape:connector-curvature="0"
   d="m 203.5223,744.33324 c -12.96359,0 -22.43158,6.53666 -22.43158,19.04571 0,11.71737 8.22963,19.88429 20.58188,19.88429 8.23744,0 16.47488,-4.57723 21.61644,-11.12175 l 0,-16.68653 c 0,-5.56479 -7.21072,-11.12172 -19.76674,-11.12172 m 280.19877,-2.31213 c 0.61134,21.96129 14.61735,37.84836 38.70266,37.84836 14.62519,0 25.74698,-7.92392 29.65015,-12.90087 1.84969,1.39509 3.71506,3.47996 3.71506,8.33146 0,10.92585 -13.18303,26.03696 -43.85989,26.03696 -30.87283,0 -56.00839,-24.61827 -56.00839,-56.80001 0,-35.43437 23.27017,-60.75806 57.66212,-60.75806 31.2647,0 45.69399,23.02726 45.69399,42.63725 0,5.78423 -1.23839,11.13742 -3.71514,15.60491 l -71.84056,0 z m 43.65612,-14.19414 c 4.93778,0 5.14938,-2.89209 5.14938,-6.76393 -0.21141,-11.55282 -9.28769,-22.25131 -23.06642,-22.25131 -17.90921,0 -24.9161,15.00923 -25.52748,29.01524 l 43.44452,0 z m 290.47407,12.11714 c 0,26.83638 3.72288,40.51323 21.02857,40.51323 18.90466,0 24.07753,-16.88245 24.07753,-32.22093 l 0,-29.27393 c 0,-10.05578 -4.76535,-13.95898 -15.65981,-12.78328 -4.52236,-11.302 10.48694,-18.49706 18.95945,-20.15082 2.6492,-0.40757 5.13372,-0.81514 7.42234,-0.81514 11.9212,0 16.49843,7.43802 16.49843,18.55191 0,4.08344 -0.39974,11.52933 -0.39974,42.33157 0,13.02629 -0.21138,19.90002 -0.21138,22.05534 0,10.14207 4.69483,15.30712 15.58143,14.12362 4.45963,11.32553 -10.45549,16.69436 -18.96731,18.26972 -2.6099,0.39188 -4.98475,0.79162 -6.94422,0.79162 -11.3177,0 -13.61418,-7.34393 -15.89494,-17.87001 -1.59887,1.97508 -3.07237,3.58965 -6.14474,6.55232 -7.41448,6.94423 -17.08629,11.12175 -28.01203,11.12175 -11.9447,0 -22.0319,-4.58503 -28.41965,-12.10927 -9.8755,-11.71741 -9.8755,-26.82072 -9.8755,-48.87609 l 0,-21.18537 c 0,-10.05581 -4.74182,-13.95901 -15.64413,-12.78332 -4.53019,-11.30199 10.51043,-18.49702 18.94379,-20.15081 2.67267,-0.40758 5.13368,-0.81512 7.40666,-0.81512 11.92903,0 16.46703,7.43796 16.46703,18.55191 l -0.21138,36.1711 z m -52.07392,2.30427 c 0,-34.8152 -24.08535,-58.47727 -57.44269,-58.47727 -30.87283,0 -58.26566,23.66207 -58.26566,58.47727 0,35.25413 25.73124,58.88484 57.23891,58.88484 33.34171,0 58.46944,-24.02259 58.46944,-58.88484 m -516.74919,30.67689 c 0,8.88015 5.7529,11.70954 15.8479,13.1047 -0.61921,10.31444 -7.82993,14.31166 -16.26328,15.10325 -9.47585,0.79162 -18.74001,-3.59748 -22.43942,-13.48868 -4.3343,3.93453 -17.09409,13.88059 -33.77277,13.88059 -22.84699,0 -39.94109,-15.30708 -39.94109,-36.15543 0,-22.03968 19.1476,-35.09733 46.11719,-35.09733 9.2799,0 18.93597,1.92806 24.70453,4.91423 l 0,-14.75843 c 0,-13.22225 -5.76856,-21.61644 -20.78563,-21.61644 -3.09594,0 -9.8834,0.81512 -15.24442,2.85289 0.6192,2.0927 1.04245,4.32647 1.04245,6.37997 0,8.07284 -5.14939,14.61733 -13.79438,14.61733 -7.62616,0 -13.39472,-6.14478 -13.39472,-13.99034 0,-14.41359 18.12867,-24.90833 43.24857,-24.90833 19.97058,0 32.12688,4.73401 38.50679,12.95578 5.7529,7.23423 6.16828,18.35598 6.16828,34.40762 l 0,41.79862 z m 487.31068,-28.98391 c 0,26.75016 -11.5371,41.28913 -27.79257,41.28913 -14.41355,0 -28.41176,-14.53113 -28.41176,-46.25824 0,-24.72022 10.29091,-40.15268 27.1734,-40.15268 16.67086,-0.006 29.03093,17.10192 29.03093,45.12179 M 330.54834,703.33407 c 0.61921,7.02262 6.59155,11.94471 13.58281,11.94471 8.85661,0 14.20977,-7.85339 14.20977,-15.456 0,-10.71418 -8.64498,-16.2633 -17.29786,-16.2633 -9.87551,0 -20.37805,7.42235 -26.34262,18.52054 l -0.41538,0.20378 c -1.84969,-9.8599 -6.59151,-17.29793 -16.47488,-17.29793 -2.2651,0 -4.73401,0.42324 -7.40665,1.23839 -8.23748,2.46888 -20.38596,8.83312 -15.84791,20.15081 11.5293,-2.21808 15.64413,1.6616 15.64413,11.71738 l 0,47.8807 c 0,9.50716 -1.23052,13.48874 -4.53021,16.27894 -3.09592,2.36702 -6.37991,3.34672 -8.44124,3.75429 -4.73398,10.31444 4.53021,13.5279 27.385,13.5279 22.85482,0 30.67689,-3.20563 25.94291,-13.5279 -2.06133,-0.41541 -7.82207,-1.39513 -10.91012,-3.75429 -3.29972,-2.7902 -4.73401,-6.77178 -4.73401,-16.27894 l 0,-28.88206 c -0.006,-25.74691 9.46016,-32.51869 15.63626,-33.75708 m 283.29466,-16.69435 29.4385,0 c 3.5035,8.42558 -1.23049,15.22086 -7.82203,15.84788 -2.06133,0.21937 -4.32641,0.21937 -6.37991,0.21937 -5.36102,0 -10.70635,-0.42324 -14.41361,-0.42324 l 0,63.69721 c 0,9.50716 1.64593,13.48872 4.93779,16.27898 3.09591,2.36695 10.30663,3.34671 12.36794,3.75426 4.73398,10.31443 -6.39561,13.52791 -29.24257,13.52791 -22.847,0 -32.31496,-3.20561 -27.58881,-13.52791 2.05351,-0.41541 5.36102,-1.39514 8.44122,-3.75426 3.29185,-2.79026 4.52241,-6.77182 4.52241,-16.27898 l 0,-64.12828 -17.29004,-0.61135 c -3.50348,-8.40988 1.23052,-14.39791 8.22958,-14.39791 l 8.66074,0 0,-8.23748 c 0,-16.67864 3.0802,-25.95067 7.20287,-32.12681 6.37207,-9.88337 17.29002,-16.67085 34.36842,-16.67085 21.62427,0 39.11807,10.08717 39.11807,25.31584 0,6.59154 -4.53018,14.61737 -13.99814,14.61737 -6.99126,0 -13.5828,-5.97233 -13.5828,-13.37116 0,-3.10372 1.23838,-6.39561 2.87645,-8.44121 -2.46105,-2.88431 -7.61043,-4.3343 -12.55602,-4.3343 -14.20981,0 -17.29006,10.50257 -17.29006,23.6778 l 0,19.36703 z m -189.61815,16.69435 c 0.61921,7.02262 6.59154,11.94471 13.59066,11.94471 8.85659,0 14.20192,-7.8534 14.20192,-15.45599 0,-10.71419 -8.64499,-16.26328 -17.29,-16.26328 -9.88337,0 -20.38592,7.42232 -26.34262,18.52051 l -0.42321,0.20378 c -1.8419,-9.85991 -6.58371,-17.29793 -16.46711,-17.29793 -2.25725,0 -4.73398,0.42324 -7.40663,1.23838 -8.24531,2.46888 -20.39378,8.83313 -15.8557,20.15082 11.52926,-2.21808 15.63623,1.66159 15.63623,11.71737 l 0,47.8807 c 0,9.50716 -1.22266,13.48875 -4.52237,16.27894 -3.08806,2.36703 -6.37202,3.34672 -8.42552,3.75429 -4.74182,10.31445 4.53018,13.52791 27.36931,13.52791 22.84698,0 30.68472,-3.20564 25.9429,-13.52791 -2.0535,-0.4154 -7.81423,-1.39512 -10.91011,-3.75429 -3.29186,-2.79019 -4.73402,-6.77178 -4.73402,-16.27894 l 0,-28.88205 c -0.006,-25.74691 9.46017,-32.51869 15.63627,-33.75708 m 547.95124,0 c 0.68974,7.02261 6.7091,11.94471 13.73948,11.94471 8.7313,0 14.08443,-7.8534 14.08443,-15.456 0,-10.71418 -8.5196,-16.26328 -17.28997,-16.26328 -9.8442,0 -20.22918,7.42233 -26.17802,18.52055 l -0.6035,0.20345 c -1.80272,-9.8599 -6.58372,-17.29789 -16.28681,-17.29789 -2.41408,0 -4.75749,0.4232 -7.57909,1.23836 -8.11995,2.46887 -20.22918,8.83312 -15.81656,20.15081 11.56847,-2.21808 15.62058,1.66159 15.62058,11.71737 l 0,47.8807 c 0,9.50716 -1.1835,13.48874 -4.58502,16.27895 -2.95485,2.36702 -6.34859,3.34671 -8.31592,3.75429 -4.78099,10.31443 4.56945,13.52791 27.40853,13.52791 22.84702,0 30.57508,-3.20564 25.79401,-13.52791 -1.95939,-0.41541 -7.72012,-1.39514 -10.92582,-3.75429 -3.13511,-2.79021 -4.52229,-6.77179 -4.52229,-16.27895 l 0,-28.88202 c 0.008,-25.74693 9.31122,-32.51873 15.45597,-33.75711"
   id="path7-1" /><path
   style="fill:#004e9f;fill-opacity:1"
   inkscape:connector-curvature="0"
   d="m 0,719.47978 c 0,51.9563 35.810582,82.72725 74.724915,82.72725 35.003295,0 59.496225,-24.61047 59.496225,-45.09833 0,-10.91009 -6.78749,-18.84184 -15.64414,-18.84184 -9.06039,0 -16.67085,6.14473 -16.67085,16.70217 0,6.74046 3.69939,10.51042 6.3799,13.48088 -4.74181,9.15448 -14.828947,16.68652 -30.480914,16.68652 -25.935014,0 -44.667201,-27.01665 -44.667201,-65.86823 0,-38.89867 17.901375,-66.0799 43.852085,-66.0799 15.651968,0 25.73128,7.61827 30.47309,16.68652 -2.68048,3.08023 -6.37991,6.78749 -6.37991,13.58277 0,10.50257 7.61826,16.67085 16.67868,16.67085 8.85665,0 15.63627,-8.00231 15.63627,-18.93595 0,-20.39379 -24.49288,-45.09041 -59.496183,-45.09041 C 34.979802,636.09571 0,669.86699 0,719.47978"
   id="path11-4" /><path
   style="fill:#e3000d;fill-opacity:1"
   inkscape:connector-curvature="0"
   d="M 337.21045,17.89344 118.76511,229.22212 c -10.91012,9.26416 -17.87785,20.14294 -17.87785,35.70869 0,15.49513 6.97556,26.41312 17.87785,35.74783 l 218.44534,211.25814 c 1.40293,1.4343 2.75886,2.00645 3.911,2.00645 2.06916,0 3.49562,-1.88103 3.43296,-4.09128 -0.0627,-1.30104 -0.62703,-2.79809 -1.92028,-4.0913 -51.27441,-63.70505 -88.58198,-136.76837 -88.58198,-240.06178 0,-103.3561 37.30757,-177.85372 88.58198,-241.60576 1.29325,-1.27758 1.85756,-2.75103 1.92028,-4.08348 0.0704,-2.25726 -1.3638,-4.08347 -3.43296,-4.08347 -1.15214,-0.0223 -2.50807,0.54082 -3.911,1.96728"
   id="path15-9" /><path
   style="fill:#004e9f;fill-opacity:1"
   inkscape:connector-curvature="0"
   d="M 505.1494,-7.0214844e-5 C 419.61628,-7.0214844e-5 386.19622,121.21035 386.19622,265.68321 c 0,144.51987 33.42006,264.11573 118.95318,264.11573 51.32927,0 95.07947,-30.05765 95.22058,-54.76218 0.0223,-5.40805 -2.06133,-10.5888 -6.59937,-15.11114 -24.32835,-23.50533 -33.84334,-46.995 -33.91386,-67.7258 -0.15697,-39.5727 34.17249,-69.0504 65.8212,-69.0504 43.50724,0 69.16799,34.19601 69.16799,78.4792 0,41.96319 -17.87788,76.9116 -37.3311,104.90015 -0.76812,1.14427 -1.11297,2.42185 -1.11297,3.54265 0.0159,2.19455 1.30891,3.99722 3.24483,3.99722 1.17563,0 2.55507,-0.62704 4.05991,-2.13972 L 882.2068,300.6708 c 10.91009,-9.32687 17.87782,-20.25266 17.87782,-35.74785 0,-15.55789 -6.97551,-26.4445 -17.87782,-35.70866 L 663.70661,17.88561 c -1.49698,-1.49699 -2.87642,-2.13185 -4.05991,-2.13185 -1.95158,0 -3.22914,1.81833 -3.24483,4.02075 0,1.12863 0.34475,2.39052 1.11297,3.55048 19.44542,27.94936 37.3311,62.93695 37.3311,104.86878 0,44.25183 -25.66075,78.47918 -69.16799,78.47918 -31.64871,0 -65.97795,-29.45417 -65.8212,-69.03471 0.0703,-20.73076 9.58551,-44.24393 33.91386,-67.72577 4.53804,-4.54593 6.62284,-9.67962 6.59937,-15.09547 C 600.22893,30.07328 556.47867,-7.0214844e-5 505.1494,-7.0214844e-5"
   id="path17-4" /></svg>