<svg xmlns="http://www.w3.org/2000/svg" xmlns:xlink="http://www.w3.org/1999/xlink" version="1.1" id="Layer_1" x="0px" y="0px" style="enable-background:new 0 0 512 512;" xml:space="preserve" viewBox="0 86.4 512 339.2">
<style type="text/css">
	.st0{fill:#009486;}
	.st1{fill:#E7F9E4;}
</style>
<g>
	<path class="st0" d="M477.7,425.6h-89.3c0,0-3.3-6.8-6.9-13.4c-3.6-6.6-12.1-6.3-12.1-6.3H142c0,0-8.2-1.1-12.4,6.3   c-2.6,4.3-5,8.8-7.1,13.4H34.6C15.7,425.6,0,410.3,0,391.4V120.9C0,102,15.4,86.4,34.3,86.4h443.1c18.9,0,34.6,15.3,34.6,34.2   v270.5C512.3,410,496.6,425.6,477.7,425.6L477.7,425.6z"/>
	<path class="st1" d="M372.7,159.7H139c-40.1,0-72.8,32.8-72.8,72.8S98.9,305,139,305h233.8c40.1,0,72.8-32.5,72.8-72.5   c0.4-39.8-31.7-72.4-71.5-72.8C373.6,159.7,373.2,159.7,372.7,159.7z M165.6,253.3c0,0-10.7-7.9-25.8-7.9   c-11.3,0-24.4,6.8-24.4,6.8c-3.7-5.3-5.7-11.6-5.8-18.1c0-17.3,14-31.2,31.3-31.2c0,0,0,0,0,0c17.3,0,31.3,13.9,31.3,31.2   c0,0,0,0,0,0C172.2,241.5,169.8,248.1,165.6,253.3z M256,271.3c-34.3,0-33-26.3-33-26.3c-0.5-4.9,5.8-6.6,8-3.6   c1.1,1.6,1.1,1.6,1.9,4.6c4.7,16.1,23.1,15.3,23.1,15.3s18.4,1.1,23.1-15.3c0.8-2.7,0.8-3,1.9-4.6c2.2-2.7,8.5-1.4,8,3.6   C289,245.1,290.3,271.3,256,271.3z M396.4,252.4c0,0-13.2-6.8-24.5-6.8c-15.1,0-25.8,7.9-25.8,7.9c-4.3-5.4-6.6-12.2-6.6-19.1   c0-17.3,14-31.2,31.3-31.2c0,0,0,0,0,0c17.3,0,31.3,13.9,31.3,31.2c0,0,0,0,0,0C402.3,240.9,400.3,247.3,396.4,252.4z"/>
	<path class="st0" d="M371.1,203.2c-17.3,0-31.3,13.9-31.3,31.2c0,0,0,0,0,0c0,7.1,2.5,13.7,6.6,19.1c0,0,10.7-7.9,25.8-7.9   c11.3,0,24.4,6.8,24.4,6.8c3.6-5.2,5.8-11.2,5.8-18.1C402.4,217.1,388.4,203.2,371.1,203.2C371.1,203.2,371.1,203.2,371.1,203.2   L371.1,203.2z M140.9,203.2c-17.3,0-31.3,13.9-31.3,31.2c0,0,0,0,0,0c0,6.8,2.2,12.9,5.8,18.1c0,0,13.2-6.8,24.4-6.8   c15.1,0,25.8,7.9,25.8,7.9c4.1-5.2,6.6-11.8,6.6-19.1C172.2,217.1,158.2,203.2,140.9,203.2C140.9,203.2,140.9,203.2,140.9,203.2   L140.9,203.2z"/>
	<path class="st1" d="M107.4,129.1c-17.3-4.6-32.1,5.7-40.4,20c-1.9,3.3-0.6,6,1.4,7.1c2.8,0.8,4.7,0.3,7.7-4.1   c6-10.7,16.2-16.7,27.7-14.5c0,0,8,2.5,9.1-2.7C113.7,131.5,110.7,129.9,107.4,129.1z M417.2,140c-0.3,5.2,8,5.2,8,5.2   c11.5,1.1,18.7,6.3,21.4,18.3c1.6,5.2,3.3,6,6.3,6c2.2-0.3,4.4-2.7,3.3-6.6c-3.8-15.9-14-26.8-32.1-27.1   C420.8,135.6,417.5,136.5,417.2,140z"/>
</g>
</svg>