<svg xmlns="http://www.w3.org/2000/svg" width="512" height="512" viewBox="0 0 512 512" version="1.1"><path d="M 265 37.357 L 265 65.713 247.250 66.292 C 217.373 67.265, 194.510 72.787, 170 84.949 C 145.318 97.197, 125.725 112.529, 108.236 133.283 C 77.279 170.018, 61.382 218.851, 64.975 266.175 C 66.272 283.259, 69.007 297.195, 73.969 312 C 78.168 324.532, 84.479 339, 85.746 339 C 86.183 339, 90.517 335.006, 95.376 330.124 L 104.211 321.249 100.601 312.120 C 92.305 291.140, 89.560 274.257, 90.246 248.444 C 90.771 228.744, 92.454 218.704, 98.035 202 C 113.698 155.114, 152.812 115.611, 199 100.030 C 216.932 93.981, 227.889 92.002, 247.250 91.318 L 265 90.690 265 118.929 C 265 137.009, 265.354 147.047, 265.984 146.833 C 267.163 146.434, 335 78.804, 335 78.028 C 335 77.191, 266.585 9, 265.745 9 C 265.335 9, 265 21.760, 265 37.357 M 244.056 151.090 C 241.612 151.570, 236.311 153.530, 232.276 155.446 C 222.460 160.108, 215.422 167.221, 210.407 177.552 L 206.548 185.500 206.167 200.750 L 205.786 216 199.643 216.044 C 189.143 216.119, 183.675 218.978, 179.644 226.500 C 177.532 230.441, 177.500 231.261, 177.500 282 L 177.500 333.500 179.842 337.586 C 182.889 342.903, 188.862 346.720, 195.360 347.503 C 198.187 347.844, 226.150 347.983, 257.500 347.812 C 312.402 347.511, 314.625 347.426, 317.894 345.500 C 319.761 344.400, 322.686 341.771, 324.394 339.658 L 327.500 335.816 327.804 284.158 C 328.004 250.105, 327.749 231.271, 327.057 228.893 C 325.796 224.569, 320.374 219.005, 315.807 217.350 C 313.988 216.691, 309.738 216.118, 306.361 216.076 L 300.222 216 299.747 201.750 C 299.220 185.934, 297.866 180.160, 292.939 172.722 C 281.848 155.977, 262.592 147.456, 244.056 151.090 M 410.293 177.250 C 401.461 186.161, 401.175 186.592, 402.462 189 C 405.091 193.916, 410.841 211.805, 413.089 222.061 C 415.076 231.125, 415.379 235.332, 415.388 254 C 415.398 274.055, 415.211 276.305, 412.597 287.484 C 404.799 320.832, 391.787 344.374, 368.070 368.042 C 352.972 383.109, 342.685 390.651, 325.500 399.257 C 302.158 410.945, 281.799 415.764, 254.500 416.063 L 240.500 416.217 240 388.119 L 239.500 360.022 204.932 394.549 L 170.364 429.076 204.932 463.493 L 239.500 497.910 239.765 470.093 L 240.031 442.277 256.265 441.553 C 276.084 440.669, 292.029 438.169, 307.236 433.559 C 336.418 424.714, 361.112 410.249, 383.390 388.951 C 414.301 359.400, 433.168 322.394, 439.589 278.724 C 440.863 270.056, 441.119 263.173, 440.714 248.500 C 440.111 226.717, 438.073 214.371, 432.048 196.024 C 428.206 184.325, 421.241 168, 420.091 168 C 419.744 168, 415.335 172.162, 410.293 177.250 M 245.500 170.293 C 236.806 172.929, 230.594 178.226, 227.079 186 C 225.379 189.759, 225.040 192.600, 225.022 203.250 L 225 216 253.098 216 L 281.196 216 280.840 202.750 C 280.525 191.055, 280.194 188.932, 278.018 184.657 C 272.155 173.139, 257.486 166.659, 245.500 170.293 M 196 282 L 196 329 252.500 329 L 309 329 309 282 L 309 235 252.500 235 L 196 235 196 282 M 245.500 264.890 C 229.407 272.318, 230.802 294.689, 247.664 299.591 C 253.515 301.292, 257.980 300.573, 263.805 296.994 C 267.228 294.890, 271.972 286.419, 271.990 282.376 C 272.006 278.987, 269.129 271.771, 266.716 269.147 C 263.743 265.913, 257.295 263.044, 253 263.044 C 251.075 263.044, 247.700 263.875, 245.500 264.890" stroke="none" fill="#121314" fill-rule="evenodd"/><path d="M 78.905 1.954 C 60.833 5.767, 41.977 15.971, 28.974 28.974 C 15.963 41.984, 5.751 60.862, 1.963 78.905 C 0.266 86.985, 0.154 97.562, 0.088 255.500 C 0.021 416.437, 0.097 423.884, 1.906 432.627 C 9.936 471.449, 40.571 502.082, 79.373 510.090 C 88.100 511.891, 95.847 511.974, 256 511.974 C 416.153 511.974, 423.900 511.891, 432.627 510.090 C 451.091 506.279, 469.841 496.211, 483.026 483.026 C 496.010 470.043, 506.362 450.928, 509.915 433.380 C 510.840 428.809, 511.917 424.750, 512.307 424.359 C 512.697 423.969, 513.005 347.611, 512.991 254.675 C 512.977 161.739, 512.663 86.003, 512.293 86.373 C 511.923 86.743, 510.858 83.280, 509.927 78.678 C 502.254 40.782, 471.111 9.852, 432.627 1.910 C 423.893 0.107, 416.267 0.029, 255.500 0.083 C 97.218 0.137, 87.003 0.246, 78.905 1.954 M 265 37.357 L 265 65.713 247.250 66.292 C 217.373 67.265, 194.510 72.787, 170 84.949 C 145.318 97.197, 125.725 112.529, 108.236 133.283 C 77.279 170.018, 61.382 218.851, 64.975 266.175 C 66.272 283.259, 69.007 297.195, 73.969 312 C 78.168 324.532, 84.479 339, 85.746 339 C 86.183 339, 90.517 335.006, 95.376 330.124 L 104.211 321.249 100.601 312.120 C 92.305 291.140, 89.560 274.257, 90.246 248.444 C 90.771 228.744, 92.454 218.704, 98.035 202 C 113.698 155.114, 152.812 115.611, 199 100.030 C 216.932 93.981, 227.889 92.002, 247.250 91.318 L 265 90.690 265 118.929 C 265 137.009, 265.354 147.047, 265.984 146.833 C 267.163 146.434, 335 78.804, 335 78.028 C 335 77.191, 266.585 9, 265.745 9 C 265.335 9, 265 21.760, 265 37.357 M 0.488 257.500 C 0.488 349.900, 0.606 387.552, 0.750 341.171 C 0.894 294.790, 0.894 219.190, 0.750 173.171 C 0.606 127.152, 0.488 165.100, 0.488 257.500 M 244.056 151.090 C 241.612 151.570, 236.311 153.530, 232.276 155.446 C 222.460 160.108, 215.422 167.221, 210.407 177.552 L 206.548 185.500 206.167 200.750 L 205.786 216 199.643 216.044 C 189.143 216.119, 183.675 218.978, 179.644 226.500 C 177.532 230.441, 177.500 231.261, 177.500 282 L 177.500 333.500 179.842 337.586 C 182.889 342.903, 188.862 346.720, 195.360 347.503 C 198.187 347.844, 226.150 347.983, 257.500 347.812 C 312.402 347.511, 314.625 347.426, 317.894 345.500 C 319.761 344.400, 322.686 341.771, 324.394 339.658 L 327.500 335.816 327.804 284.158 C 328.004 250.105, 327.749 231.271, 327.057 228.893 C 325.796 224.569, 320.374 219.005, 315.807 217.350 C 313.988 216.691, 309.738 216.118, 306.361 216.076 L 300.222 216 299.747 201.750 C 299.220 185.934, 297.866 180.160, 292.939 172.722 C 281.848 155.977, 262.592 147.456, 244.056 151.090 M 410.293 177.250 C 401.461 186.161, 401.175 186.592, 402.462 189 C 405.091 193.916, 410.841 211.805, 413.089 222.061 C 415.076 231.125, 415.379 235.332, 415.388 254 C 415.398 274.055, 415.211 276.305, 412.597 287.484 C 404.799 320.832, 391.787 344.374, 368.070 368.042 C 352.972 383.109, 342.685 390.651, 325.500 399.257 C 302.158 410.945, 281.799 415.764, 254.500 416.063 L 240.500 416.217 240 388.119 L 239.500 360.022 204.932 394.549 L 170.364 429.076 204.932 463.493 L 239.500 497.910 239.765 470.093 L 240.031 442.277 256.265 441.553 C 276.084 440.669, 292.029 438.169, 307.236 433.559 C 336.418 424.714, 361.112 410.249, 383.390 388.951 C 414.301 359.400, 433.168 322.394, 439.589 278.724 C 440.863 270.056, 441.119 263.173, 440.714 248.500 C 440.111 226.717, 438.073 214.371, 432.048 196.024 C 428.206 184.325, 421.241 168, 420.091 168 C 419.744 168, 415.335 172.162, 410.293 177.250 M 245.500 170.293 C 236.806 172.929, 230.594 178.226, 227.079 186 C 225.379 189.759, 225.040 192.600, 225.022 203.250 L 225 216 253.098 216 L 281.196 216 280.840 202.750 C 280.525 191.055, 280.194 188.932, 278.018 184.657 C 272.155 173.139, 257.486 166.659, 245.500 170.293 M 196 282 L 196 329 252.500 329 L 309 329 309 282 L 309 235 252.500 235 L 196 235 196 282 M 245.500 264.890 C 229.407 272.318, 230.802 294.689, 247.664 299.591 C 253.515 301.292, 257.980 300.573, 263.805 296.994 C 267.228 294.890, 271.972 286.419, 271.990 282.376 C 272.006 278.987, 269.129 271.771, 266.716 269.147 C 263.743 265.913, 257.295 263.044, 253 263.044 C 251.075 263.044, 247.700 263.875, 245.500 264.890" stroke="none" fill="#2bb3f3" fill-rule="evenodd"/></svg>