<svg xmlns="http://www.w3.org/2000/svg" xmlns:xlink="http://www.w3.org/1999/xlink" version="1.1" id="Layer_1" x="0px" y="0px" style="enable-background:new 0 0 512 512;" xml:space="preserve" viewBox="5.1 84.81 501.9 342.29">
<style type="text/css">
	.st0{clip-path:url(#SVGID_00000039842759799946077040000009963022796375393172_);}
	.st1{fill:#EDDA6F;}
	.st2{fill:#7592CA;}
	.st3{fill:#A4C45E;}
	.st4{fill:#4851A3;}
	.st5{fill:#65BBC5;}
	.st6{fill:#E46D62;}
	.st7{fill:#C683A0;}
	.st8{fill:#544A9E;}
	.st9{fill:#65BAC4;}
	.st10{fill:#60429A;}
	.st11{fill:#FFFFFF;}
</style>
<g>
	<defs>
		<rect id="SVGID_1_" x="5.1" y="84.9" width="501.8" height="342.2"/>
	</defs>
	<clipPath id="SVGID_00000106860413325755931990000010594802091348501919_">
		<use xlink:href="#SVGID_1_" style="overflow:visible;"/>
	</clipPath>
	<g style="clip-path:url(#SVGID_00000106860413325755931990000010594802091348501919_);">
		<path class="st1" d="M101.1,158.2H21.6v223.5h79.6V158.2z"/>
		<path class="st2" d="M101.1,380.7H21.6v30.8h79.6V380.7z"/>
		<path class="st3" d="M180.3,158.2h-79.6v223.5h79.6V158.2z"/>
		<path class="st4" d="M180.3,380.7h-79.6v30.8h79.6V380.7z"/>
		<path class="st5" d="M259.4,158.2h-79.6v223.5h79.6V158.2z"/>
		<path class="st6" d="M259.4,380.7h-79.6v30.8h79.6V380.7z"/>
		<path class="st7" d="M338.6,158.2H259v223.5h79.6V158.2z"/>
		<path class="st8" d="M338.6,380.7H259v30.8h79.6V380.7z"/>
		<path class="st6" d="M417.7,158.2h-79.6v223.5h79.6V158.2z"/>
		<path class="st9" d="M417.7,380.7h-79.6v30.8h79.6V380.7z"/>
		<path class="st2" d="M496.9,158.2h-79.6v223.5h79.6V158.2z"/>
		<path class="st10" d="M496.9,380.7h-79.6v30.8h79.6V380.7z"/>
		<path class="st11" d="M498.5,142.4H288c13.5-14.2,41.2-43.1,44.8-47.1c2.7-3.1,1.9-6.5-0.2-8.5c-2.3-2.1-6.2-2.9-8.5-0.6    c-2.5,2.5-54.2,50.6-60.2,56.2h-15.2c-6-5.6-57.9-53.7-60.2-56.2c-2.3-2.3-6.2-1.5-8.5,0.6c-2.1,2.1-2.9,5.4-0.2,8.3    c3.5,3.7,31.2,32.9,44.8,47.1h-211c-4.6,0-8.3,3.7-8.3,8.3v268.1c0,4.6,3.7,8.3,8.3,8.3h485.1c4.6,0,8.3-3.7,8.3-8.3V150.7    C506.9,146.1,503.1,142.4,498.5,142.4z M490.2,410.4H21.8V159h468.4V410.4z"/>
	</g>
</g>
</svg>