<svg xmlns="http://www.w3.org/2000/svg" width="241" height="165" fill="none"><g clip-path="url(#a)"><path fill="#EDDA6F" d="M46.1 35.2H7.9v107.3h38.2V35.2Z"/><path fill="#7592CA" d="M46.1 142H7.9v14.8h38.2V142Z"/><path fill="#A4C45E" d="M84.1 35.2H45.9v107.3h38.2V35.2Z"/><path fill="#4851A3" d="M84.1 142H45.9v14.8h38.2V142Z"/><path fill="#65BBC5" d="M122.1 35.2H83.9v107.3h38.2V35.2Z"/><path fill="#E46D62" d="M122.1 142H83.9v14.8h38.2V142Z"/><path fill="#C683A0" d="M160.1 35.2h-38.2v107.3h38.2V35.2Z"/><path fill="#544A9E" d="M160.1 142h-38.2v14.8h38.2V142Z"/><path fill="#E46D62" d="M198.1 35.2h-38.2v107.3h38.2V35.2Z"/><path fill="#65BAC4" d="M198.1 142h-38.2v14.8h38.2V142Z"/><path fill="#7592CA" d="M236.1 35.2h-38.2v107.3h38.2V35.2Z"/><path fill="#60429A" d="M236.1 142h-38.2v14.8h38.2V142Z"/><path fill="#fff" d="M236.9 27.6H135.8c6.5-6.8 19.8-20.7 21.5-22.6 1.3-1.5.9-3.1-.1-4.1-1.1-1-3-1.4-4.1-.3-1.2 1.2-26 24.3-28.9 27h-7.3C114 24.9 89.1 1.8 88 .6c-1.1-1.1-3-.7-4.1.3-1 1-1.4 2.6-.1 4 1.7 1.8 15 15.8 21.5 22.6H4c-2.2 0-4 1.8-4 4v128.7c0 2.2 1.8 4 4 4h232.9c2.2 0 4-1.8 4-4V31.6c0-2.2-1.8-4-4-4Zm-4 128.7H8V35.6h224.9v120.7Z"/></g><defs><clipPath id="a"><path fill="#fff" d="M0 0h240.9v164.3H0z"/></clipPath></defs></svg>