<svg xmlns="http://www.w3.org/2000/svg" xmlns:xlink="http://www.w3.org/1999/xlink" version="1.1" id="Layer_1" x="0px" y="0px" style="enable-background:new 0 0 512 512;" xml:space="preserve" viewBox="66.8 0 378.3 512">
<style type="text/css">
	.st0{fill:#6E56CF;}
</style>
<path class="st0" d="M289.6,512L289.6,512c-31.2,0-60.4-5.5-87.6-16.6s-50.7-27.4-70.6-49.1c-19.9-21.6-35.6-48.3-47.2-80  s-17.4-68-17.4-108.7l0,0c0-40.3,5.9-76.4,17.7-108.4s27.9-59,48.3-81.2s44.3-39,71.7-50.6S261.4,0,292.6,0l0,0  c31.2,0,58.9,6.3,83.1,18.9c24.2,12.6,44.1,27.2,59.7,43.8l0,0l-46.8,56.6c-13.1-13.1-27.2-23.5-42.3-31.3S314,76.3,294.9,76.3l0,0  c-20.1,0-38.6,4.2-55.5,12.5c-16.9,8.3-31.5,20.1-43.8,35.5c-12.3,15.4-21.9,34.1-28.7,56.3s-10.2,47.1-10.2,74.8l0,0  c0,56.4,12.2,100.6,36.6,132.5s57.5,48,99.3,48l0,0c22.2,0,41.8-4.7,58.9-14c17.1-9.3,32.7-21.5,46.8-36.6l0,0l46.8,55.1  c-20.1,23.2-43.2,40.9-69.1,53.2C350.1,505.8,321.3,512,289.6,512z"/>
</svg>