<?xml version="1.0" encoding="utf-8"?>
<!-- Generator: Adobe Illustrator 27.7.0, SVG Export Plug-In . SVG Version: 6.00 Build 0)  -->
<svg version="1.1" id="svg44" xmlns:svg="http://www.w3.org/2000/svg"
	 xmlns="http://www.w3.org/2000/svg" xmlns:xlink="http://www.w3.org/1999/xlink" x="0px" y="0px" viewBox="0 0 512 512"
	 style="enable-background:new 0 0 512 512;" xml:space="preserve">
<style type="text/css">
	.st0{fill:url(#path34-4_00000136392890114003482390000015971506912715456656_);}
	.st1{fill:url(#path36-1_00000066493604510004503740000005461960827682442144_);}
	.st2{fill:url(#path38-7_00000142872332058746822720000003191581615959239348_);}
	.st3{fill:#FFFFFF;}
	.st4{fill:url(#path42-5_00000109015263472871351740000002415006185705093268_);}
</style>
<g>
	
		<linearGradient id="path34-4_00000130628807433808582630000011361595628973630641_" gradientUnits="userSpaceOnUse" x1="65.597" y1="582.5043" x2="65.4524" y2="480.8181" gradientTransform="matrix(3.7794 0 0 -3.7794 136.1723 2328.9924)">
		<stop  offset="0" style="stop-color:#AFCCFB"/>
		<stop  offset="1" style="stop-color:#8BB5F8"/>
	</linearGradient>
	<path id="path34-4" style="fill:url(#path34-4_00000130628807433808582630000011361595628973630641_);" d="M256,256l110.9,64
		L256,512c141.4,0,256-114.6,256-256c0-46.6-12.5-90.3-34.3-128H256L256,256z"/>
	
		<linearGradient id="path36-1_00000076604050743266580880000015102976338743766928_" gradientUnits="userSpaceOnUse" x1="-48.1889" y1="653.0892" x2="-48.0975" y2="651.6039" gradientTransform="matrix(231.6257 0 0 -231.6247 11410.0303 151273.7031)">
		<stop  offset="0" style="stop-color:#1972E7"/>
		<stop  offset="1" style="stop-color:#1969D5"/>
	</linearGradient>
	<path id="path36-1" style="fill:url(#path36-1_00000076604050743266580880000015102976338743766928_);" d="M256,0
		C161.2,0,78.6,51.5,34.3,128l110.8,192L256,256V128h221.7C433.4,51.5,350.7,0,256,0z"/>
	
		<linearGradient id="path38-7_00000127743634756151452260000006612831434075940005_" gradientUnits="userSpaceOnUse" x1="-48.2112" y1="653.3767" x2="-46.4598" y2="652.3655" gradientTransform="matrix(94.9316 164.4269 164.4276 -94.9311 -102672.9688 70081.0391)">
		<stop  offset="0" style="stop-color:#659CF6"/>
		<stop  offset="1" style="stop-color:#4285F4"/>
	</linearGradient>
	<path id="path38-7" style="fill:url(#path38-7_00000127743634756151452260000006612831434075940005_);" d="M0,256
		c0,141.4,114.6,256,256,256l110.9-192L256,256l-110.9,64L34.3,128C12.5,165.7,0,209.4,0,256"/>
	<path id="path40" class="st3" d="M384,256c0,70.7-57.3,128-128,128s-128-57.3-128-128s57.3-128,128-128S384,185.3,384,256"/>
	
		<linearGradient id="path42-5_00000092449158279173572680000013719779628864973500_" gradientUnits="userSpaceOnUse" x1="31.5654" y1="575.9101" x2="31.8461" y2="520.9792" gradientTransform="matrix(3.7794 0 0 -3.7794 136.1723 2328.9924)">
		<stop  offset="0" style="stop-color:#3680F0"/>
		<stop  offset="1" style="stop-color:#2678EC"/>
	</linearGradient>
	<path id="path42-5" style="fill:url(#path42-5_00000092449158279173572680000013719779628864973500_);" d="M360,256
		c0,57.4-46.6,104-104,104s-104-46.6-104-104s46.6-104,104-104S360,198.6,360,256"/>
</g>
</svg>
