<svg xmlns="http://www.w3.org/2000/svg" xmlns:xlink="http://www.w3.org/1999/xlink" width="18" height="18" x="0" y="0" enable-background="new 0 0 18 18" version="1.1" viewBox="0 0 18 18" xml:space="preserve"><g><g><circle cx="9" cy="9" r="8.5" fill="#FFF"/></g><g><path d="M9,0C4,0,0,4,0,9c0,5,4,9,9,9c5,0,9-4,9-9C18,4,14,0,9,0z M1.2,10.8l3.5-2.3c0-0.1,0-0.2,0-0.3c0-1.8,1.3-3.2,3.1-3.4 c0.1,0,0.2,0,0.4,0c1.2,0,2.3,0.6,2.9,1.6c0.3-0.1,0.6-0.1,0.9-0.1c0.4,0,0.8,0,1.2,0.1c0.7,0.2,1.4,0.5,2,0.9 C14.6,7.1,14,7,13.3,7c-1.2,0-2.2,0.4-2.9,1.4c-0.7,0.9-1.1,2-1.1,3.2c0,1.5-0.4,2.9-1.3,4.2c-0.3,0.4-0.5,0.7-0.8,1 C4.2,16.1,1.9,13.8,1.2,10.8z"/><circle cx="9.5" cy="6.4" r=".5"/></g></g></svg>