<svg xmlns="http://www.w3.org/2000/svg" xmlns:xlink="http://www.w3.org/1999/xlink" width="72" height="38" style="fill:#c4122e"><path d="M23.521 25.245h-3.157v12.51h3.157z" style="fill:#c4122e;stroke-width:.09673701"/><use xlink:href="#a" transform="translate(32.953)"/><path id="a" d="M16.024 28.83c-.127-.066-1.142-.668-2.652-.668-2.045 0-3.46 1.42-3.46 3.337 0 1.859 1.356 3.34 3.46 3.34 1.484 0 2.516-.59 2.652-.664v3.358c-.392.11-1.47.445-2.88.445-3.548 0-6.661-2.448-6.661-6.48 0-3.735 2.82-6.475 6.662-6.475 1.486 0 2.582.36 2.879.449z"/><path d="M58.908 28.209c-1.873 0-3.264 1.474-3.264 3.29 0 1.82 1.391 3.293 3.264 3.293 1.871 0 3.266-1.473 3.266-3.293 0-1.816-1.395-3.29-3.266-3.29m6.611 3.29c0 3.579-2.763 6.479-6.61 6.479-3.849 0-6.608-2.9-6.608-6.48 0-3.572 2.76-6.475 6.607-6.475 3.848 0 6.611 2.903 6.611 6.476m-30.026-3.41c-.047-.015-1.376-.382-2.468-.382-1.265 0-1.953.424-1.953 1.025 0 .762.928 1.028 1.447 1.192l.871.277c2.05.652 2.983 2.055 2.983 3.579 0 3.143-2.764 4.199-5.18 4.199-1.679 0-3.252-.31-3.407-.342v-2.88c.278.07 1.602.466 2.981.466 1.571 0 2.293-.46 2.293-1.168 0-.634-.625-1-1.408-1.246-.19-.064-.478-.154-.674-.218-1.758-.556-3.224-1.59-3.224-3.66 0-2.34 1.752-3.911 4.662-3.911 1.537 0 2.983.373 3.077.398z"/><path id="b" d="M3.135 11.8c0-.862-.704-1.561-1.567-1.561S0 10.938 0 11.799v3.285a1.568 1.568 0 0 0 3.135 0zm8.609-4.31a1.567 1.567 0 0 0-3.135 0v7.594a1.567 1.567 0 0 0 3.135 0zm8.61-5.898C20.354.73 19.65.03 18.787.03c-.864 0-1.568.7-1.568 1.562v16.613a1.568 1.568 0 0 0 3.135 0zm8.609 5.898a1.567 1.567 0 0 0-3.135 0v7.594a1.567 1.567 0 0 0 3.135 0zm8.6 4.31a1.56 1.56 0 0 0-1.558-1.561c-.863 0-1.567.699-1.567 1.56v3.285a1.562 1.562 0 1 0 3.125 0z" style="fill:#15495d"/><use xlink:href="#b" transform="translate(34.432)"/><path d="M70.194 36.108v.196h-.558v1.451h-.23v-1.45h-.56v-.197zm.116 0h.36l.493 1.351h.008l.477-1.35H72v1.646h-.235v-1.35h-.008l-.5 1.35h-.217l-.488-1.35h-.011v1.35h-.23z"/></svg>