<svg xmlns="http://www.w3.org/2000/svg" xmlns:xlink="http://www.w3.org/1999/xlink" version="1.1" id="Layer_1" x="0px" y="0px" style="enable-background:new 0 0 512 512;" xml:space="preserve" viewBox="1.3 94.68 509.4 322.6">
<style type="text/css">
	.st0{filter:url(#Adobe_OpacityMaskFilter);}
	.st1{fill-rule:evenodd;clip-rule:evenodd;fill:#FFFFFF;}
	
		.st2{mask:url(#prefix__b_00000038384119818626818920000018081950963885186692_);fill-rule:evenodd;clip-rule:evenodd;fill:#4598D3;}
	.st3{fill-rule:evenodd;clip-rule:evenodd;fill:#4598D3;}
</style>
<g transform="translate(0 .676)">
	<defs>
		<filter id="Adobe_OpacityMaskFilter" filterUnits="userSpaceOnUse" x="1.3" y="94" width="509.4" height="322.6">
			<feColorMatrix type="matrix" values="1 0 0 0 0  0 1 0 0 0  0 0 1 0 0  0 0 0 1 0"/>
		</filter>
	</defs>
	
		<mask maskUnits="userSpaceOnUse" x="1.3" y="94" width="509.4" height="322.6" id="prefix__b_00000038384119818626818920000018081950963885186692_">
		<g class="st0">
			<path id="prefix__a_00000012443928732259398160000006511949397819744188_" class="st1" d="M1.3,94h509.4v322.6H1.3V94z"/>
		</g>
	</mask>
	<path class="st2" d="M422.6,252.2C420,252.2,422.6,252.2,422.6,252.2c0-84.5-75.2-158.1-159.7-158.1c-62.3,0-117.8,37.6-141.7,91   c-0.8,0,0,0-0.8,0C54.7,185,1.3,243.9,1.3,309.6c0,46.7,19.5,83.1,58.7,102.5c6.3-6.5,21.8-6.6,29.8-11   c-14.1-4.7-25.5-14.2-37.7-23.3c-42-31.3-35.7-107.6-8.2-133.4c44.1-41.3,93.2-30.8,93.2-30.8l6.1-13.6   c10.2-22.7,30.6-88.5,124-87.4C366,113.8,392.9,218.3,393,253.1l0,0.4l-0.1,24.6l24.5-2.1c1.9-0.2,3.9-0.3,5.7-0.3   c35.9,0,72.5,27.9,72.5,63.8c0,35.9-36.6,54.6-72.5,54.6H220.2c2.3,1.2,25.7,22.5,64.2,22.5h138.7c48.4,0,87.6-27.4,87.6-75.8   C510.7,292.4,471,252.2,422.6,252.2"/>
	<path class="st3" d="M357.7,203.8c-9.2-3.5-33-1.1-49.7,5.4c-8.2,3.2-14.7,7.4-16.9,12.4c-6.1,13.8,31.4,37.7,46.5,33.3   c7.2-2.1,17.5-17.4,22.2-30.8C363,214.5,363.4,205.9,357.7,203.8 M273.8,215.1c-4.3-0.5-13.1-1.7-16-4.9   c-6.3-7.2-16.4-9.1-23.8-7.5c-7.8,1.7-12,10.8-6.6,22.1c2.4,5.1,1.8,11.2-0.7,15.8c7.7-7.1,14.8-13,20.2-15.8   C257.5,219.3,266.8,216.4,273.8,215.1 M350.4,319.8c0,0-7.7,26-13,37.9c-4.7,10.5-6.2,9.6-9.6,10.8c1.3-3.2,2.2-7.5,3.9-14.7   c2-8.6,0-10.9,0-10.9c-2.7,12.9-6.8,22.1-10.3,28.2c-4.5,1.5-10.1,2.5-14.2,0.9c-5.7-2.3-6.7-29.3-6.7-30.8   C325.4,343,338.7,332.8,350.4,319.8 M227.6,291.4c0.5,2.5,1.1,4.9,1.7,7.1l-0.6-0.7c0,0,0.5,1.1,1.2,3.1c1,3.6,2.2,6.9,3.4,9.9   c4.1,13.2,8.5,33.4,2,46.1c-4.9,9.5-66.9,40.5,39.1,59.2l95.2-22c-41.9-5.7-25.1-27.6-15.1-45.6c12-21.6,16.1-35.4,18.7-55.3   c1.6-11.9,0.4-20.9,0.1-23c0-0.3-0.1-0.5-0.1-0.5s0,0.7-0.2,1.8l0.2-3c0,0-7.6,30.4-22.5,41.3c-3.5,2.5-5.7,4.2-7.1,5.4   c1.5-5.7,7.1-29.6-0.9-42.7c0,0-3.3,55-32.7,57.9C280.8,333.5,239.5,303.5,227.6,291.4"/>
	<path class="st3" d="M143.3,289.6c-1.2,6.6-1.7,12.5-1.5,17.7c-5.7,9-46.8,106.8-97.9,62.9c8.7,7.7,16.1,41.8,16.1,41.8   c48.1,28.1,81.3-82.1,85.1-89.3c3.1,6.6,8.3,20.1,37.4,20.7c0,0-34.1-16.7-18.9-61c15.2-44.3,37.7-82,68.6-99.4s62.1-16.2,90.8-4   c0,0-43.3-39.8-93.1-9.7c-28.6,17.3-47.6,36.5-60.7,56.1c-11,2-24.3,0.2-29.8,0.2c-6.8,0-17.4,4.6-12.6,21.5   C131.4,263.6,144.3,280.2,143.3,289.6"/>
</g>
</svg>