<svg xmlns="http://www.w3.org/2000/svg" viewBox="0 0 48 48"><g fill="#4598d3" fill-rule="evenodd" clip-rule="evenodd"><path d="M39.696 23.7c-.244 0 0 0 0 0 0-7.982-7.08-14.932-15.045-14.932-5.867 0-11.1 3.554-13.353 8.595l-.079-.001C5.036 17.362 0 22.92 0 29.12c0 4.411 1.834 7.845 5.528 9.679.589-.615 2.05-.627 2.804-1.043-1.324-.44-2.402-1.344-3.553-2.203C.822 32.596 1.415 25.39 4.011 22.96c4.158-3.895 8.783-2.906 8.783-2.906l.575-1.286c.958-2.142 2.883-8.358 11.687-8.248 9.308.117 11.843 9.98 11.847 13.267v.04l-.006 2.323 2.31-.2c.182-.016.364-.024.539-.024 3.381 0 6.833 2.636 6.833 6.024s-3.452 5.154-6.833 5.154H20.63c.218.112 2.422 2.125 6.052 2.125h13.064c4.558 0 8.252-2.59 8.252-7.158 0-4.568-3.744-8.372-8.302-8.372"/><path d="M33.58 19.13c-.872-.326-3.108-.106-4.68.508-.771.303-1.382.699-1.593 1.173-.577 1.3 2.956 3.558 4.38 3.142.678-.198 1.653-1.645 2.086-2.911.309-.9.345-1.708-.194-1.911zm-7.9 1.072c-.404-.051-1.237-.165-1.503-.467-.596-.676-1.55-.857-2.244-.705-.736.162-1.127 1.02-.622 2.087.227.48.169 1.058-.062 1.49.722-.676 1.398-1.226 1.9-1.49.988-.521 1.864-.791 2.53-.915zm7.214 9.89s-.721 2.456-1.226 3.574c-.444.988-.585.909-.906 1.026.121-.307.208-.71.365-1.386.192-.815 0-1.03 0-1.03-.249 1.22-.638 2.092-.968 2.663-.428.143-.954.236-1.338.083-.54-.217-.632-2.763-.632-2.909 2.352.163 3.606-.794 4.705-2.022zm-11.566-2.686c.05.237.105.458.163.673l-.055-.062s.047.107.118.29c.098.34.208.649.325.935.386 1.246.799 3.158.184 4.356-.46.896-6.303 3.828 3.684 5.588l8.966-2.082c-3.95-.535-2.363-2.603-1.422-4.304 1.129-2.041 1.515-3.34 1.759-5.216.145-1.127.038-1.971.007-2.174l-.008-.048s-.004.063-.017.17l.017-.279s-.713 2.872-2.119 3.903c-.327.24-.536.398-.67.505.141-.535.672-2.792-.087-4.028 0 0-.315 5.192-3.077 5.468-2.762.275-6.655-2.557-7.768-3.695"/><path d="M13.38 27.234a8.005 8.005 0 0 0-.142 1.676c-.536.853-4.412 10.088-9.227 5.938.824.724 1.518 3.95 1.518 3.95 4.529 2.653 7.663-7.748 8.022-8.43.29.625.784 1.895 3.52 1.95 0 0-3.21-1.576-1.776-5.762 1.432-4.186 3.55-7.738 6.459-9.382 2.91-1.642 5.849-1.53 8.552-.374 0 0-4.08-3.759-8.768-.918-2.694 1.633-4.487 3.445-5.721 5.3-1.036.185-2.295.019-2.805.019-.644 0-1.64.438-1.19 2.026.441 1.553 1.656 3.125 1.558 4.007"/></g></svg>
