<?xml version="1.0" encoding="UTF-8"?>
<!-- Created with Inkscape (http://www.inkscape.org/) -->
<svg width="100.89mm" height="69.39mm" version="1.1" viewBox="0 0 100.89 69.39" xmlns="http://www.w3.org/2000/svg" xmlns:cc="http://creativecommons.org/ns#" xmlns:dc="http://purl.org/dc/elements/1.1/" xmlns:rdf="http://www.w3.org/1999/02/22-rdf-syntax-ns#" xmlns:xlink="http://www.w3.org/1999/xlink">
 <defs>
  <linearGradient id="linearGradient1472" x1="-350.13" x2="-157.25" y1="532.73" y2="532.73" gradientTransform="matrix(.25221 0 0 .25221 -81.26 -39.018)" gradientUnits="userSpaceOnUse" xlink:href="#linearGradient1470"/>
  <linearGradient id="linearGradient1470">
   <stop stop-color="#00aaec" offset="0"/>
   <stop stop-color="#0076d0" offset="1"/>
  </linearGradient>
  <linearGradient id="linearGradient2075" x1="725.2" x2="861.7" gradientTransform="matrix(.12603 0 0 .12603 -201.79 69.006)" gradientUnits="userSpaceOnUse" xlink:href="#linearGradient1470"/>
 </defs>
 <metadata>
  <rdf:RDF>
   <cc:Work rdf:about="">
    <dc:format>image/svg+xml</dc:format>
    <dc:type rdf:resource="http://purl.org/dc/dcmitype/StillImage"/>
    <dc:title/>
   </cc:Work>
  </rdf:RDF>
 </metadata>
 <g transform="translate(194.07 -77.853)">
  <path d="m-108.7 125.66c3.0008-4.0847 9.7335-4.3595 13.209-0.75115 2.2194 2.295 2.9177 5.9324 1.7317 8.8916-0.70579 1.9207-1.7783 3.6738-2.74 5.4723-1.4569 2.6542-2.9013 5.316-4.3658 7.9665-1.9913-6e-3 -3.9826 3e-3 -5.974 0 2.5471-4.5687 5.1068-9.1311 7.6577-13.698 0.31004-0.56714 0.55076-1.1746 0.70578-1.8035 0.30248-1.1834-0.0857-2.5396-1.0297-3.331-1.1129-0.98558-2.8735-1.0902-4.1288-0.31887-1.7405 1.0184-1.9989 3.544-0.94777 5.1409 0.68562 0.97927 1.9283 1.3095 3.0626 1.3801-0.82678 1.5489-1.6561 3.0966-2.498 4.638-2.8496-0.63899-5.2127-2.9177-6.0193-5.7131-0.74359-2.6404-0.32516-5.6551 1.336-7.8733" fill="url(#linearGradient2075)" stroke-width=".12603"/>
  <path d="m-156.11 122.15c-0.38697 4e-3 -0.77374 0.0314-1.157 0.0829-3.4493 0.36681-6.5144 3.0828-7.2595 6.474-0.42729 1.8728-0.33766 3.9044 0.47399 5.6634 0.97549 2.1879 2.935 3.8793 5.2064 4.6153 3.7608 1.283 8.3333-0.20538 10.403-3.6519 2.2353-3.5163 1.448-8.6156-1.8541-11.199-1.6223-1.3314-3.7228-2.0051-5.8126-1.9849m-29.236 2e-3c-2.6076 0.0159-5.2136 1.1151-6.8473 3.1957-2.6933 3.2325-2.4627 8.4573 0.52933 11.422 2.7314 2.9214 7.5317 3.5102 10.926 1.4257 1.9348-1.157 3.3384-3.1266 3.8596-5.3148-1.4897-0.0213-2.9795-3e-3 -4.4696-9e-3 -0.38949 0.79905-0.9145 1.5565-1.656 2.0682-1.3599 0.9881-3.3323 0.97801-4.7062 0.0215-2.2522-1.5515-2.7515-4.9768-1.1884-7.1839 1.0674-1.6283 3.3323-2.3382 5.1207-1.5388 1.1355 0.47641 1.9661 1.4833 2.4319 2.6012 1.4909-8e-3 2.9806 6e-3 4.4716-7e-3 -0.40966-2.3114-1.9749-4.3426-3.9864-5.5151-1.3559-0.7931-2.921-1.1737-4.4856-1.1642m60.534 4e-3c-0.93496-2e-3 -1.8697 0-2.8043 0.0144 3e-3 5.7511 1e-3 11.502 0 17.253 2.2056-1e-3 4.4123 1e-3 6.6182-1e-3 2.3177-0.0655 4.7701-0.77646 6.3483-2.5661 1.6497-1.8502 2.0883-4.4575 1.9547-6.8612-0.121-2.5862-1.3926-5.1623-3.5957-6.587-1.6875-1.0839-3.7578-1.2741-5.7156-1.2515-0.93516 4e-3 -1.8704-5.3e-4 -2.8054-2e-3m-50.255 2e-3c1e-3 5.7562-1e-3 11.511 1e-3 17.267 3.1925-3e-3 6.3833-3e-3 9.5765 0 3e-3 -1.3032 0-2.605 1e-3 -3.9082-1.7115-1e-3 -3.4242 0-5.1359 0-1e-3 -4.4525 3e-3 -8.906-1e-3 -13.358-1.4809-4e-3 -2.9606-1e-3 -4.4414-1e-3m33.903 0c-1.4809 0-2.9606-3e-3 -4.4414 1e-3 0.0202 3.7497-0.0491 7.5015 0.0378 11.25 0 1.9157 0.95038 3.7986 2.5287 4.8931 1.2894 0.84946 2.8697 1.1518 4.396 1.1229 2.9401-1e-3 5.8812-1e-3 8.8213 1e-3 3e-3 -5.7562 0-11.511 1e-3 -17.267h-3.907v13.391c-1.7231-1e-3 -3.4472 3e-3 -5.1704-1e-3 -0.59104-1e-3 -1.2276-0.16768-1.6193-0.63904-0.54194-0.66293-0.62008-1.5616-0.6465-2.3845v-10.367m-14.686 3.7296c1.3597 0.0356 2.6664 0.76255 3.4382 1.8814 1.5692 2.1476 1.1406 5.5139-1.0449 7.084-1.5918 1.1986-4.0128 1.021-5.4557-0.33514-1.8993-1.7557-2.1011-4.9899-0.49294-7.0004 0.77757-1.0007 2.0185-1.6044 3.2832-1.6284 0.0909-4e-3 0.18189-5e-3 0.27254-2e-3m34.189 0.16485c1.1484 3e-3 2.2949 0.12301 3.1727 0.94273 1.5401 1.4834 1.6253 3.9183 1.1002 5.8671-0.28604 1.0044-0.99183 1.9081-1.9698 2.3128-1.214 0.52429-2.5624 0.34028-3.8455 0.37437-1e-3 -3.1609-1e-3 -6.3218 0-9.4837 0.49788 8e-3 1.0203-0.0141 1.5423-0.0126" stroke-width=".10083"/>
  <path d="m-151 79.842c3.597-2.7652 9.1928-2.6555 12.602 0.37684 2.319 2.0316 3.3247 5.2972 2.9252 8.3106-0.31256 1.8136-1.1356 3.4861-1.9724 5.1081-1.433 2.6215-2.8635 5.2467-4.3065 7.8632 2.7198 1.5111 5.4345 3.0298 8.1518 4.5435 0.66923 0.38818 1.3876 0.69696 2.135 0.90239 1.2868 0.36424 2.7803 0.024 3.7142-0.95406 1.3927-1.3964 1.4116-3.9108 0.0366-5.3249-1.2679-1.3712-3.4924-1.4431-5.0652-0.59235-1.225 0.71586-1.6586 2.2056-1.7279 3.539-1.709-0.93894-3.4331-1.8464-5.1484-2.774 0.60118-2.653 2.4702-4.9468 4.9203-6.1151 3.82-1.8476 8.8992-0.99188 11.656 2.3203 2.9378 3.5705 2.8824 9.3188-0.21048 12.78-1.7178 1.9598-4.3343 2.9945-6.9141 3.0046-2.1413 0.0907-4.1276-0.86458-6.0067-1.7733-7.0767-3.8163-14.09-7.7472-21.143-11.609-1.065-0.52051-2.2711-0.98179-3.4722-0.71208-1.2402 0.21047-2.3026 1.1469-2.7248 2.324-0.48397 1.3775-0.20543 3.0525 0.8608 4.0885 1.2603 1.2666 3.36 1.341 4.8913 0.55832 1.2906-0.67931 1.743-2.2131 1.8237-3.5718 1.7153 0.92256 3.442 1.8262 5.1421 2.7752-0.86585 4.028-4.7653 7.0591-8.8614 7.0465-2.4891 0.10587-5.0438-0.70956-6.8915-2.406-4.178-3.7646-3.9423-11.325 0.56462-14.741 2.6404-2.0039 6.3772-2.498 9.4272-1.1734 3.4193 1.3914 6.502 3.4684 9.823 5.0665 1.5968-2.8584 3.2-5.7131 4.793-8.574 0.59613-1.1734 1.0902-2.5396 0.68688-3.8566-0.44364-1.7367-2.3001-2.8647-4.0494-2.6316-1.6183 0.10587-3.0752 1.404-3.3096 3.0197-0.16511 1.2288 6e-3 2.6177 0.88475 3.5592 0.8066 0.84568 2.0077 1.1166 3.1319 1.1998-0.93516 1.7115-1.8212 3.452-2.7929 5.1421-3.636-0.81921-6.5171-4.0646-6.957-7.7548-0.4701-3.2983 0.702-6.8927 3.384-8.9647" fill="url(#linearGradient1472)" stroke-width=".12603"/>
 </g>
</svg>
