<svg id="Layer_1" data-name="Layer 1" xmlns="http://www.w3.org/2000/svg" xmlns:xlink="http://www.w3.org/1999/xlink" viewBox="0 0 427.41 387.6"><defs><style>.cls-1,.cls-2,.cls-3,.cls-4,.cls-5,.cls-6,.cls-7,.cls-8,.cls-9{fill:none;}.cls-10,.cls-2{stroke:#ff5912;}.cls-10,.cls-11,.cls-2,.cls-3,.cls-4,.cls-5,.cls-6,.cls-7,.cls-8,.cls-9{stroke-miterlimit:10;stroke-width:1.5px;}.cls-3{stroke:#ff6412;}.cls-4{stroke:#ff7012;}.cls-5{stroke:#ff7c12;}.cls-6{stroke:#ff8712;}.cls-7{stroke:#ff9312;}.cls-8{stroke:#ff9f11;}.cls-9{stroke:#fa1;}.cls-10,.cls-12{fill:#fff;}.cls-11{fill:#bcecf7;stroke:#0050e5;}.cls-13{clip-path:url(#clip-path);}.cls-14{fill:#ff7b00;}.cls-15{fill:#0055dc;}</style><clipPath id="clip-path"><path class="cls-1" d="M317.76,316.83l-3.31-1.65C311,313.43,229,271.48,229,186.52V120.91l6.35-.9c48.27-6.9,76.61-38,76.88-38.26l5.52-6.17,5.54,6.17c.27.3,28.61,31.36,76.88,38.26l6.35.9v65.61c0,85-82,126.91-85.45,128.66Z"/></clipPath></defs><circle class="cls-2" cx="193.6" cy="193.8" r="170.46"/><circle class="cls-3" cx="193.6" cy="193.8" r="156.23"/><circle class="cls-4" cx="193.6" cy="193.8" r="141.99"/><circle class="cls-5" cx="193.6" cy="193.8" r="127.76"/><circle class="cls-6" cx="193.6" cy="193.8" r="113.53"/><circle class="cls-7" cx="193.6" cy="193.8" r="99.3"/><circle class="cls-8" cx="193.6" cy="193.8" r="85.06"/><circle class="cls-9" cx="193.6" cy="193.8" r="70.83"/><circle class="cls-10" cx="193.57" cy="37.36" r="36.61"/><circle class="cls-10" cx="81.98" cy="84.17" r="36.61"/><circle class="cls-10" cx="37.36" cy="194.23" r="36.61"/><circle class="cls-10" cx="83.09" cy="304.29" r="36.61"/><circle class="cls-10" cx="193.57" cy="350.24" r="36.61"/><path class="cls-11" d="M305.45,333.18c-3.95-2-96.59-49.42-96.59-146.66V103.45l23.64-3.38c39.42-5.63,63.67-30.64,64.83-31.86l20.38-22.83,20.56,22.93c.11.11,24.55,26,64.75,31.76l23.64,3.38v83.07c0,97.26-92.64,144.69-96.59,146.66l-12.31,6.16Z"/><path class="cls-12" d="M317.76,316.83l-3.31-1.65C311,313.43,229,271.48,229,186.52V120.91l6.35-.9c48.27-6.9,76.61-38,76.88-38.26l5.52-6.17,5.54,6.17c.27.3,28.61,31.36,76.88,38.26l6.35.9v65.61c0,85-82,126.91-85.45,128.66Z"/><g class="cls-13"><line class="cls-2" x1="317.75" y1="75.58" x2="317.75" y2="323.33"/><line class="cls-9" x1="226.99" y1="197.82" x2="411.16" y2="197.82"/></g><path class="cls-10" d="M270.09,172.49a53.23,53.23,0,1,1,0,47.43"/><polygon class="cls-14" points="310.64 213.52 317.03 219.92 340.75 196.2 317.03 172.49 310.64 178.89 323.43 191.68 165.57 191.68 165.57 200.73 323.43 200.73 310.64 213.52"/><path class="cls-15" d="M205.16,23l1.61-2.53c-7.28-4.68-19.2-4.68-26.57,0L181.78,23C188.28,18.92,198.75,18.92,205.16,23Z"/><path class="cls-15" d="M193.42,21.49a23,23,0,0,0-18.75,10l2.53,1.61A20,20,0,0,1,210,33l2.55-1.56A23,23,0,0,0,193.42,21.49Z"/><path class="cls-15" d="M193.43,26.12a16.33,16.33,0,0,0-14.06,7.25,18.9,18.9,0,0,0-1.6,17.47l2.78-1.14A15.87,15.87,0,0,1,181.86,35a13.47,13.47,0,0,1,11.57-5.91A12.87,12.87,0,0,1,206.87,41c.24,3.87-2,4.33-2.4,4.37l-.24,0a4.53,4.53,0,0,1-3.24-.51,4.33,4.33,0,0,1-1.56-3.22,6.17,6.17,0,0,0-6.52-5.84c-3,.18-6.34,2.65-6.34,7.66,0,7.22,6.63,13,12.75,14.25l.6-2.94c-4.33-.85-10.35-5.24-10.35-11.31,0-3.08,1.76-4.56,3.51-4.66A3.2,3.2,0,0,1,196.46,42a7.09,7.09,0,0,0,2.85,5.37,7.48,7.48,0,0,0,5.52.95c1.95-.22,5.37-2,5-7.5C209.62,36.71,206.18,26.12,193.43,26.12Z"/><path class="cls-15" d="M185.06,39.93c1.22-3.87,4.05-6.17,7.62-6.17,8.39,0,9,7.23,9,9.44h3c0-5.74-3.15-12.44-12-12.44-4.89,0-8.9,3.18-10.5,8.25a15.92,15.92,0,0,0,6.19,17.68l1.69-2.48a12.91,12.91,0,0,1-5-14.28Z"/><path class="cls-15" d="M197,48.15a8.25,8.25,0,0,1-1.89-2.87,8.12,8.12,0,0,1-.55-3.38h-3a11.29,11.29,0,0,0,.8,4.56,11.46,11.46,0,0,0,2.57,3.85,13.84,13.84,0,0,0,9.57,3.48h.81l-.14-3A11.08,11.08,0,0,1,197,48.15Z"/><path class="cls-15" d="M97,92.8V74.05l-1.5-1.5h-27L67,74.05V92.8h-4.5l1.5,3h36l1.5-3Zm-27,0V75.55H94V92.8Z"/><path class="cls-15" d="M208.48,356.68l6.46-6.44-6.44-6.44-2.12,2.12,2.79,2.82H198.94a7.86,7.86,0,0,0-1.32-3.12l7.1-7.38.07,4,3-.05-.17-9.09-9.1.17,0,3,4-.07-7.12,7.36a8,8,0,0,0-3.66-1.27,7.84,7.84,0,0,0-3.83.61,7.93,7.93,0,0,0-3.1,2.34,8.07,8.07,0,0,0-1.63,3.52h-1.75a4.74,4.74,0,0,0-8.13-1.58,4.75,4.75,0,1,0,8.13,4.58h1.75a8,8,0,0,0,12.22,5.2l7.1,7.36-4-.07-.05,3,9.11.18.16-9.11-3-.05-.05,4-7.1-7.38a7.92,7.92,0,0,0,1.32-3.12h10.23l-2.82,2.82ZM177,352a1.64,1.64,0,0,1-1-.29,1.76,1.76,0,0,1-.76-1.8,1.76,1.76,0,0,1,1.37-1.38,1.69,1.69,0,0,1,1,.1,1.71,1.71,0,0,1,.79.64,1.76,1.76,0,0,1-.21,2.22A1.76,1.76,0,0,1,177,352Zm9.1-1.75a5.06,5.06,0,0,1,.85-2.79,5,5,0,0,1,5.14-2.13,5.1,5.1,0,0,1,2.57,1.38,5,5,0,0,1,1.08,5.46,5,5,0,0,1-9.64-1.92Z"/><path class="cls-15" d="M50.53,187H47v-6.6a9.59,9.59,0,0,0-19.18,0V187H24.19l-1.5,1.5v19.79l1.5,1.5H50.53l1.5-1.5V188.49Zm-19.76-6.6a6.59,6.59,0,1,1,13.18,0V187H30.77ZM49,206.78H25.69V190H49Z"/><path class="cls-15" d="M37.36,193.13a2.93,2.93,0,0,0-1.8.62,2.88,2.88,0,0,0-1,1.61,3,3,0,0,0,.2,1.9,2.9,2.9,0,0,0,1.34,1.36v4.71h2.58v-4.71A2.83,2.83,0,0,0,40,197.26a2.9,2.9,0,0,0-.82-3.51A2.93,2.93,0,0,0,37.36,193.13Z"/><path class="cls-15" d="M104.48,299a7.4,7.4,0,0,0-4.79-1.71,12,12,0,0,0-20.18-6.68l-.26,0a11.93,11.93,0,0,0-11,7.29,8.56,8.56,0,0,0-5.88,2,9.21,9.21,0,0,0-3.26,6.91A8.93,8.93,0,0,0,68,315.74H91a7.53,7.53,0,0,0,6.29-3.39h2.32a7.58,7.58,0,0,0,7.29-9.47A7.61,7.61,0,0,0,104.48,299ZM91,312.74H68a5.92,5.92,0,0,1-5.9-5.91,6.12,6.12,0,0,1,2.19-4.61,5.49,5.49,0,0,1,3.59-1.32,6.72,6.72,0,0,1,1.1.1l1.3.22.4-1.26a9,9,0,0,1,9.79-6.26,9,9,0,0,1,7.77,8.65l0,1.71,1.69-.27a4.76,4.76,0,0,1,2.09,0,4.85,4.85,0,0,1,1.87.9,4.57,4.57,0,0,1,1.16,1.59,4.69,4.69,0,0,1,.4,1.92A4.54,4.54,0,0,1,91,312.74Zm8.6-3.39H98.39a7.52,7.52,0,0,0-.36-3.79,7.65,7.65,0,0,0-2.15-3.14,7.34,7.34,0,0,0-4.79-1.71,11.89,11.89,0,0,0-7.62-9.33,9,9,0,0,1,12.08,3.21A9,9,0,0,1,96.84,299l0,1.71,1.7-.27a4.71,4.71,0,0,1,2.08,0,4.2,4.2,0,0,1,3,2.49,4.71,4.71,0,0,1,.39,1.92,4.52,4.52,0,0,1-4.53,4.53Z"/></svg>