<?xml version="1.0" encoding="utf-8"?>
<!-- Generator: Adobe Illustrator 27.7.0, SVG Export Plug-In . SVG Version: 6.00 Build 0)  -->
<svg version="1.1" id="Layer_1" xmlns="http://www.w3.org/2000/svg" xmlns:xlink="http://www.w3.org/1999/xlink" x="0px" y="0px"
	 viewBox="0 0 512 512" style="enable-background:new 0 0 512 512;" xml:space="preserve">
<g>
	<path d="M256,0C114.8,0,0,114.8,0,256s114.8,256,256,256s256-114.8,256-256S397.2,0,256,0z M256,38.4c120.1-0.2,217.5,97,217.7,217
		c0,0.2,0,0.4,0,0.6c0.1,120.1-97.1,217.5-217.2,217.6c-0.2,0-0.4,0-0.6,0c-120,0.2-217.4-97-217.6-217c0-0.2,0-0.4,0-0.6
		c-0.2-120,97-217.4,217-217.6C255.6,38.4,255.8,38.4,256,38.4z M341.7,151.1c-10.5-0.4-26.3,7.9-40.5,22l-30.7,30.5l-91.9-30.9
		l-18,18.5l69.4,52.7l-15.5,15.4c-5.1,5.1-9.7,10.7-13.6,16.8l-41.8-3.1l-10.2,10.3l41.5,30.8l30.4,41.5l10.2-10.2l-3.1-42.2
		c5.2-3.4,10.6-7.7,15.8-12.9l16.3-16.2l53.2,69.8l18.5-17.9l-31-92.4l29.7-29.5c19-18.9,27.7-41,19.6-49.5
		C347.8,152.3,344.8,151.1,341.7,151.1L341.7,151.1z"/>
</g>
</svg>
