<svg width="2500" height="2500" viewBox="0 0 256 256" xmlns="http://www.w3.org/2000/svg" preserveAspectRatio="xMidYMid"><path d="M256 128c0 70.692-57.308 128-128 128C57.308 256 0 198.692 0 128 0 57.308 57.308 0 128 0c70.692 0 128 57.308 128 128"/><path d="M86.812 61.672l24.472 24.472-36.909 36.908c-9.628 9.629-.267 18.989 9.361 9.36l55.095-55.094c35.84-35.84 92.673 20.995 56.834 56.834L179.217 150.6l23.268 23.268-27.815 27.815-44.932-44.932 41.455-41.455c7.845-7.845-3.254-18.944-11.099-11.1l-58.037 58.038c-36.64 31.827-87.992-18.99-56.968-56.967l41.723-43.595z" fill="#FFF"/></svg>