<svg xmlns="http://www.w3.org/2000/svg" viewBox="0 0 48 48"><defs><linearGradient id="a" x1="42519" x2="42575" y1="-7078.8" y2="-6966.9" gradientTransform="translate(-11680 1960) scale(.27529)" gradientUnits="userSpaceOnUse"><stop offset="0" stop-color="#2185d0" stop-opacity="0"/><stop offset=".495" stop-color="#2185d0" stop-opacity=".3"/><stop offset="1" stop-color="#2185d0" stop-opacity=".3"/></linearGradient></defs><path fill="url(#a)" d="M24.447 11.322a.21.156 0 0 0-.203.186l9.246 34.655a24 24 0 0 0 10.84-9.295l-19.7-25.47a.21.156 0 0 0-.183-.076z" style="font-variation-settings:normal;paint-order:stroke markers fill" transform="translate(.004 .859)"/><path fill="#2185d0" d="M23.996.12c-13.255 0-24 10.745-24 24 0 4.508 1.27 8.926 3.664 12.747l20.01-25.87c.144-.186.506-.186.65 0l20.01 25.87a24.001 24.001 0 0 0 3.666-12.747c0-13.255-10.745-24-24-24z" style="paint-order:markers fill stroke" transform="translate(.004 .859)"/></svg>