<?xml version="1.0" encoding="utf-8"?>
<!-- Generator: Adobe Illustrator 27.7.0, SVG Export Plug-In . SVG Version: 6.00 Build 0)  -->
<svg version="1.1"
	 id="svg6989" xmlns:svg="http://www.w3.org/2000/svg" xmlns:sodipodi="http://sodipodi.sourceforge.net/DTD/sodipodi-0.dtd" xmlns:inkscape="http://www.inkscape.org/namespaces/inkscape" xmlns:rdf="http://www.w3.org/1999/02/22-rdf-syntax-ns#" xmlns:dc="http://purl.org/dc/elements/1.1/" xmlns:cc="http://creativecommons.org/ns#" inkscape:export-filename="/home/robert/Documents/Codeberg/Logo-Kit/svg/Codeberg-logo_stacked.png" inkscape:export-xdpi="191.92" inkscape:export-ydpi="191.92" inkscape:version="1.0 (b51213c273, 2020-08-10)" sodipodi:docname="Codeberg-logo_stacked.svg"
	 xmlns="http://www.w3.org/2000/svg" xmlns:xlink="http://www.w3.org/1999/xlink" x="0px" y="0px" viewBox="0 0 512 512"
	 style="enable-background:new 0 0 512 512;" xml:space="preserve">
<style type="text/css">
	.st0{opacity:0.5;fill:url(#path6733_00000143578146078971769920000007140979807785435540_);enable-background:new    ;}
	.st1{fill:#2185D0;}
</style>
<g id="g6933">
	
		<linearGradient id="path6733_00000078017655262957938390000017903047227331355565_" gradientUnits="userSpaceOnUse" x1="42506.7148" y1="7642.5396" x2="42624.2227" y2="7408.0308" gradientTransform="matrix(1.4006 0 0 -1.4006 -59281.4023 10836.918)">
		<stop  offset="0" style="stop-color:#FFFFFF;stop-opacity:0"/>
		<stop  offset="0.4952" style="stop-color:#71C2FF"/>
		<stop  offset="1" style="stop-color:#39AAFF"/>
	</linearGradient>
	
		<path id="path6733" style="opacity:0.5;fill:url(#path6733_00000078017655262957938390000017903047227331355565_);enable-background:new    ;" d="
		M260.8,129.9c-1.2,0-2.2,0.8-2.2,1.7c0,0.1,0,0.2,0,0.3l98.6,369.7c47.7-20.5,88-55.1,115.6-99.1L262.8,130.7
		C262.4,130.2,261.6,129.9,260.8,129.9z"/>
	<path id="circle6810" class="st1" d="M255,10.4C114,11,0,125.4,0,266.4c0,48.1,13.5,95.2,39.1,136l213.4-275.9
		c1.1-1.4,3.5-1.9,5.5-1.1c0.6,0.3,1.1,0.6,1.5,1.1l213.5,276c25.5-40.8,39.1-87.9,39.1-136c0-141.4-114.6-256-256-256l0,0
		C255.7,10.4,255.4,10.4,255,10.4L255,10.4z"/>
</g>
</svg>
