<?xml version="1.0" encoding="UTF-8" standalone="no"?> <svg xmlns:inkscape="http://www.inkscape.org/namespaces/inkscape" xmlns:sodipodi="http://sodipodi.sourceforge.net/DTD/sodipodi-0.dtd" xmlns="http://www.w3.org/2000/svg" xmlns:svg="http://www.w3.org/2000/svg" xmlns:rdf="http://www.w3.org/1999/02/22-rdf-syntax-ns#" xmlns:cc="http://creativecommons.org/ns#" xmlns:dc="http://purl.org/dc/elements/1.1/" inkscape:version="1.1.1 (3bf5ae0d25, 2021-09-20)" sodipodi:docname="collabora-online-primary.svg" id="svg44" xml:space="preserve" viewBox="0 0 146.25012 67.214482" version="1.1" height="67.214485" width="146.25012"><metadata id="metadata50"></metadata><defs id="defs48"><marker inkscape:stockid="TriangleOutS" orient="auto" refY="0.0" refX="0.0" id="TriangleOutS" style="overflow:visible" inkscape:isstock="true"><path id="path1029" d="M 5.77,0.0 L -2.88,5.0 L -2.88,-5.0 L 5.77,0.0 z " style="fill-rule:evenodd;stroke:#504999;stroke-width:1pt;stroke-opacity:1;fill:#504999;fill-opacity:1" transform="scale(0.2)"></path></marker><marker inkscape:stockid="TriangleOutM" orient="auto" refY="0.0" refX="0.0" id="TriangleOutM" style="overflow:visible" inkscape:isstock="true"><path id="path1026" d="M 5.77,0.0 L -2.88,5.0 L -2.88,-5.0 L 5.77,0.0 z " style="fill-rule:evenodd;stroke:#000000;stroke-width:1pt;stroke-opacity:1;fill:#000000;fill-opacity:1" transform="scale(0.4)"></path></marker></defs><g id="COnline-logomark" transform="matrix(0.79058116,0,0,0.7855015,7.6901661,7.9840747)" style="stroke:none;stroke-width:1.26897" inkscape:label="COnline-logomark"><path style="fill:#ffffff;stroke:none;stroke-width:1.26898px;stroke-linecap:butt;stroke-linejoin:miter;stroke-opacity:1" d="M 2.0988724,16.566254 3.1191844,15.539343 20.091471,32.621383 3.1191844,49.703423 2.0988724,48.674025 18.050844,32.621383 Z" id="path1178" inkscape:connector-curvature="0"></path><path transform="matrix(1.2648923,0,0,1.273072,64.142828,-8.1840554)" d="M -49.050781,19.441406 V 44.662109 L -36.439453,32.052734 Z" style="fill:#c8c8c8;fill-opacity:1;stroke:none;stroke-width:1px;stroke-linecap:butt;stroke-linejoin:miter;stroke-opacity:1" id="path1156" inkscape:connector-curvature="0"></path><path sodipodi:nodetypes="ccccccc" transform="matrix(1.2648923,0,0,1.273072,64.142828,-8.1840554)" d="M -37.621094,8.0097656 -48.244141,18.634766 -34.826172,32.052734 -48.244141,45.470703 -37.621094,56.09375 -13.578125,32.052734 Z" style="fill:#5c2983;fill-opacity:1;stroke:none;stroke-width:6.00001;stroke-linejoin:round;paint-order:stroke fill markers" id="rect1144" inkscape:connector-curvature="0"></path><path sodipodi:nodetypes="cccc" transform="matrix(1.2648923,0,0,1.273072,64.142828,-8.1840554)" d="m -38.115234,35.341797 -8.873675,8.865852 13.090471,-2.88929 z" style="fill:#2d0b47;fill-opacity:1;stroke:none;stroke-width:1.68107" id="polygon1099" inkscape:connector-curvature="0"></path></g> <g id="COnline-txt" inkscape:label="COnline-txt" transform="translate(0,-7.8099874)" style="fill:#5c2983;fill-opacity:1"><g id="text1246" style="font-size:17.9798px;line-height:1.25;font-family:'Segoe UI';-inkscape-font-specification:'Segoe UI';letter-spacing:0px;word-spacing:0px;fill:#5c2983;fill-opacity:1;stroke-width:1" aria-label="Collabora"><path inkscape:connector-curvature="0" id="path866" style="font-style:normal;font-variant:normal;font-weight:normal;font-stretch:normal;font-family:Montserrat;-inkscape-font-specification:Montserrat;fill:#5c2983;fill-opacity:1;stroke-width:1" d="m 59.3668,36.43419 q 1.096767,0 1.887879,-0.359596 0.791111,-0.377576 1.654141,-1.186667 l 1.366465,1.402424 q -1.995758,2.211516 -4.854546,2.211516 -2.840808,0 -4.728687,-1.83394 -1.869899,-1.833939 -1.869899,-4.638788 0,-2.804849 1.905859,-4.674748 1.923838,-1.869899 4.836566,-1.869899 2.930707,0 4.890505,2.157576 l -1.348485,1.474344 q -0.89899,-0.863031 -1.708081,-1.204647 -0.791111,-0.341616 -1.869899,-0.341616 -1.905859,0 -3.200404,1.240606 -1.294546,1.222626 -1.294546,3.146465 0,1.905859 1.276566,3.200404 1.294545,1.276566 3.056566,1.276566 z"></path><path inkscape:connector-curvature="0" id="path868" style="font-style:normal;font-variant:normal;font-weight:normal;font-stretch:normal;font-family:Montserrat;-inkscape-font-specification:Montserrat;fill:#5c2983;fill-opacity:1;stroke-width:1" d="m 68.536441,35.840857 q 0.86303,0.86303 2.175556,0.86303 1.312525,0 2.157576,-0.86303 0.86303,-0.881011 0.86303,-2.265455 0,-1.384445 -0.86303,-2.247475 -0.845051,-0.88101 -2.157576,-0.88101 -1.312526,0 -2.175556,0.88101 -0.845051,0.86303 -0.845051,2.247475 0,1.384444 0.845051,2.265455 z m 5.771516,1.240606 q -1.438384,1.420404 -3.59596,1.420404 -2.157576,0 -3.59596,-1.420404 -1.438384,-1.438384 -1.438384,-3.506061 0,-2.067677 1.438384,-3.488081 1.438384,-1.438384 3.59596,-1.438384 2.157576,0 3.59596,1.438384 1.438383,1.420404 1.438383,3.488081 0,2.067677 -1.438383,3.506061 z"></path><path inkscape:connector-curvature="0" id="path870" style="font-style:normal;font-variant:normal;font-weight:normal;font-stretch:normal;font-family:Montserrat;-inkscape-font-specification:Montserrat;fill:#5c2983;fill-opacity:1;stroke-width:1" d="M 80.043485,38.358028 H 78.029747 V 25.017017 h 2.013738 z"></path><path inkscape:connector-curvature="0" id="path872" style="font-style:normal;font-variant:normal;font-weight:normal;font-stretch:normal;font-family:Montserrat;-inkscape-font-specification:Montserrat;fill:#5c2983;fill-opacity:1;stroke-width:1" d="M 84.969918,38.358028 H 82.956181 V 25.017017 h 2.013737 z"></path><path inkscape:connector-curvature="0" id="path874" style="font-style:normal;font-variant:normal;font-weight:normal;font-stretch:normal;font-family:Montserrat;-inkscape-font-specification:Montserrat;fill:#5c2983;fill-opacity:1;stroke-width:1" d="m 95.631908,38.358028 h -1.83394 v -1.276565 q -1.186667,1.420404 -3.182424,1.420404 -1.492324,0 -2.481213,-0.845051 -0.970909,-0.84505 -0.970909,-2.247475 0,-1.420404 1.042829,-2.121616 1.042828,-0.701212 2.822828,-0.701212 h 2.607071 v -0.359596 q 0,-1.905859 -2.121616,-1.905859 -1.330505,0 -2.768889,0.970909 l -0.89899,-1.258586 q 1.74404,-1.384444 3.955555,-1.384444 1.690102,0 2.75091,0.86303 1.078788,0.845051 1.078788,2.67899 z m -2.013738,-3.56 v -0.809091 h -2.265455 q -2.175555,0 -2.175555,1.366465 0,0.701212 0.539394,1.078788 0.539394,0.359596 1.492323,0.359596 0.970909,0 1.690101,-0.539394 0.719192,-0.539394 0.719192,-1.456364 z"></path><path inkscape:connector-curvature="0" id="path876" style="font-style:normal;font-variant:normal;font-weight:normal;font-stretch:normal;font-family:Montserrat;-inkscape-font-specification:Montserrat;fill:#5c2983;fill-opacity:1;stroke-width:1" d="m 103.561,28.648937 q 1.92384,0 3.2903,1.330505 1.36647,1.330505 1.36647,3.54202 0,2.211516 -1.36647,3.59596 -1.34848,1.384445 -3.16444,1.384445 -1.79798,0 -3.23637,-1.582223 v 1.438384 H 98.436756 V 25.017017 h 2.013734 v 5.44788 q 1.18667,-1.81596 3.11051,-1.81596 z m -3.14647,4.944445 q 0,1.366464 0.82707,2.247475 0.82708,0.86303 2.01374,0.86303 1.18667,0 2.06768,-0.86303 0.88101,-0.863031 0.88101,-2.229496 0,-1.384444 -0.86303,-2.283434 -0.86303,-0.91697 -2.06768,-0.91697 -1.20464,0 -2.03172,0.91697 -0.82707,0.89899 -0.82707,2.265455 z"></path><path inkscape:connector-curvature="0" id="path878" style="font-style:normal;font-variant:normal;font-weight:normal;font-stretch:normal;font-family:Montserrat;-inkscape-font-specification:Montserrat;fill:#5c2983;fill-opacity:1;stroke-width:1" d="m 112.74866,35.840857 q 0.86303,0.86303 2.17555,0.86303 1.31253,0 2.15758,-0.86303 0.86303,-0.881011 0.86303,-2.265455 0,-1.384445 -0.86303,-2.247475 -0.84505,-0.88101 -2.15758,-0.88101 -1.31252,0 -2.17555,0.88101 -0.84505,0.86303 -0.84505,2.247475 0,1.384444 0.84505,2.265455 z m 5.77151,1.240606 q -1.43838,1.420404 -3.59596,1.420404 -2.15757,0 -3.59596,-1.420404 -1.43838,-1.438384 -1.43838,-3.506061 0,-2.067677 1.43838,-3.488081 1.43839,-1.438384 3.59596,-1.438384 2.15758,0 3.59596,1.438384 1.43839,1.420404 1.43839,3.488081 0,2.067677 -1.43839,3.506061 z"></path><path inkscape:connector-curvature="0" id="path880" style="font-style:normal;font-variant:normal;font-weight:normal;font-stretch:normal;font-family:Montserrat;-inkscape-font-specification:Montserrat;fill:#5c2983;fill-opacity:1;stroke-width:1" d="m 127.25833,30.680654 q -1.49232,0 -2.24747,0.970909 -0.75516,0.970909 -0.75516,2.607071 v 4.099394 h -2.01373 v -9.565253 h 2.01373 v 1.923839 q 0.48546,-0.89899 1.31253,-1.474344 0.84505,-0.575353 1.78,-0.593333 l 0.018,2.031717 q -0.0539,0 -0.10788,0 z"></path><path inkscape:connector-curvature="0" id="path882" style="font-style:normal;font-variant:normal;font-weight:normal;font-stretch:normal;font-family:Montserrat;-inkscape-font-specification:Montserrat;fill:#5c2983;fill-opacity:1;stroke-width:1" d="m 137.03931,38.358028 h -1.83394 v -1.276565 q -1.18667,1.420404 -3.18242,1.420404 -1.49233,0 -2.48122,-0.845051 -0.97091,-0.84505 -0.97091,-2.247475 0,-1.420404 1.04283,-2.121616 1.04283,-0.701212 2.82283,-0.701212 h 2.60707 v -0.359596 q 0,-1.905859 -2.12161,-1.905859 -1.33051,0 -2.76889,0.970909 l -0.89899,-1.258586 q 1.74404,-1.384444 3.95555,-1.384444 1.6901,0 2.75091,0.86303 1.07879,0.845051 1.07879,2.67899 z m -2.01374,-3.56 v -0.809091 h -2.26545 q -2.17556,0 -2.17556,1.366465 0,0.701212 0.5394,1.078788 0.53939,0.359596 1.49232,0.359596 0.97091,0 1.6901,-0.539394 0.71919,-0.539394 0.71919,-1.456364 z"></path></g><g id="text1254" style="font-size:17.9798px;line-height:1.25;font-family:'Segoe UI';-inkscape-font-specification:'Segoe UI';letter-spacing:0px;word-spacing:0px;fill:#5c2983;fill-opacity:1;stroke-width:1" aria-label="Online"><path inkscape:connector-curvature="0" id="path853" style="font-style:normal;font-variant:normal;font-weight:normal;font-stretch:normal;font-family:Montserrat;-inkscape-font-specification:Montserrat;fill:#5c2983;fill-opacity:1;stroke-width:1" d="m 62.585184,48.072394 q -1.276566,-1.330505 -3.146465,-1.330505 -1.869899,0 -3.164445,1.330505 -1.276566,1.330505 -1.276566,3.236364 0,1.887879 1.276566,3.218384 1.294546,1.330505 3.164445,1.330505 1.869899,0 3.146465,-1.330505 1.294545,-1.330505 1.294545,-3.218384 0,-1.905859 -1.294545,-3.236364 z m 1.564242,7.875152 q -1.905858,1.851919 -4.710707,1.851919 -2.804849,0 -4.710707,-1.851919 -1.905859,-1.869899 -1.905859,-4.638788 0,-2.786869 1.905859,-4.638788 1.905858,-1.869899 4.710707,-1.869899 2.804849,0 4.710707,1.869899 1.905859,1.851919 1.905859,4.638788 0,2.768889 -1.905859,4.638788 z"></path><path inkscape:connector-curvature="0" id="path855" style="font-style:normal;font-variant:normal;font-weight:normal;font-stretch:normal;font-family:Montserrat;-inkscape-font-specification:Montserrat;fill:#5c2983;fill-opacity:1;stroke-width:1" d="m 70.370386,52.495425 v 5.178182 h -2.013737 v -9.565253 h 2.013737 v 1.74404 q 0.485455,-0.88101 1.330505,-1.384444 0.863031,-0.503435 1.851919,-0.503435 1.618182,0 2.607071,0.988889 1.006869,0.988889 1.006869,2.858788 v 5.861415 h -2.013737 v -5.250102 q 0,-2.64303 -2.193536,-2.64303 -1.042828,0 -1.81596,0.701212 -0.773131,0.683233 -0.773131,2.013738 z"></path><path inkscape:connector-curvature="0" id="path857" style="font-style:normal;font-variant:normal;font-weight:normal;font-stretch:normal;font-family:Montserrat;-inkscape-font-specification:Montserrat;fill:#5c2983;fill-opacity:1;stroke-width:1" d="M 81.985333,57.673607 H 79.971596 V 44.332596 h 2.013737 z"></path><path inkscape:connector-curvature="0" id="path859" style="font-style:normal;font-variant:normal;font-weight:normal;font-stretch:normal;font-family:Montserrat;-inkscape-font-specification:Montserrat;fill:#5c2983;fill-opacity:1;stroke-width:1" d="m 86.911767,57.673607 h -2.013738 v -9.565253 h 2.013738 z M 85.023888,46.202495 q -0.377576,-0.377576 -0.377576,-0.89899 0,-0.521414 0.377576,-0.89899 0.377576,-0.377576 0.89899,-0.377576 0.521414,0 0.89899,0.377576 0.377576,0.377576 0.377576,0.89899 0,0.521414 -0.377576,0.89899 -0.377576,0.377576 -0.89899,0.377576 -0.521414,0 -0.89899,-0.377576 z"></path><path inkscape:connector-curvature="0" id="path861" style="font-style:normal;font-variant:normal;font-weight:normal;font-stretch:normal;font-family:Montserrat;-inkscape-font-specification:Montserrat;fill:#5c2983;fill-opacity:1;stroke-width:1" d="m 91.8382,52.495425 v 5.178182 H 89.824463 V 48.108354 H 91.8382 v 1.74404 q 0.485455,-0.88101 1.330506,-1.384444 0.86303,-0.503435 1.851919,-0.503435 1.618182,0 2.607071,0.988889 1.006869,0.988889 1.006869,2.858788 v 5.861415 h -2.013738 v -5.250102 q 0,-2.64303 -2.193535,-2.64303 -1.042829,0 -1.81596,0.701212 Q 91.8382,51.16492 91.8382,52.495425 Z"></path><path inkscape:connector-curvature="0" id="path863" style="font-style:normal;font-variant:normal;font-weight:normal;font-stretch:normal;font-family:Montserrat;-inkscape-font-specification:Montserrat;fill:#5c2983;fill-opacity:1;stroke-width:1" d="m 110.33941,53.77199 h -7.49757 q 0.0719,1.042829 0.95292,1.690102 0.88102,0.629293 2.01374,0.629293 1.79798,0 2.73293,-1.132728 l 1.15071,1.258586 q -1.54626,1.600202 -4.02748,1.600202 -2.01373,0 -3.43414,-1.330505 -1.40242,-1.348485 -1.40242,-3.59596 0,-2.265454 1.43838,-3.59596 1.43839,-1.330505 3.3802,-1.330505 1.9598,0 3.32627,1.186667 1.36646,1.168687 1.36646,3.236364 z m -7.49757,-1.582222 h 5.48383 q 0,-1.204646 -0.75515,-1.851919 -0.75515,-0.647273 -1.8699,-0.647273 -1.09676,0 -1.97777,0.683232 -0.88101,0.665253 -0.88101,1.81596 z"></path></g></g> </svg> 