<?xml version="1.0" encoding="utf-8"?>
<!-- Generator: Adobe Illustrator 27.7.0, SVG Export Plug-In . SVG Version: 6.00 Build 0)  -->
<svg version="1.1" id="Layer_1" xmlns="http://www.w3.org/2000/svg" xmlns:xlink="http://www.w3.org/1999/xlink" x="0px" y="0px"
	 viewBox="0 0 512 512" style="enable-background:new 0 0 512 512;" xml:space="preserve">
<style type="text/css">
	.st0{opacity:0.1;fill:#40BFEF;enable-background:new    ;}
	.st1{fill-rule:evenodd;clip-rule:evenodd;fill:#40BFEF;}
	.st2{fill:#40BFEF;}
	.st3{fill:#0082CA;}
</style>
<g>
	<path class="st0" d="M391.3,120.7c72.3,98.9-27.8,127.1-75,88.9c-83.5,111.4-78.9-107.1-184.7,18.9c-67.8-46.1-46.3-39.7,0-107.8
		C177.9,52.6,342.7,54.3,391.3,120.7z"/>
	<path class="st1" d="M256,470.1c-73.5,0-114.2-52.4-144.3-103.8c-0.3-0.5-8.4-15.6-11.8-23.4c-10.1-24.5-15.2-50.3-15.2-76.8v-79.2
		c0-69.6,45.1-95.1,76.9-100.7c7-16.9,28.5-42.6,94-44.3c50.7-1.5,99.9,16.4,131.8,47.5c26.1,25.4,39.9,59,39.9,97.2v79.2
		c0,26.4-5.1,52.3-15.2,76.8c-3.9,8.9-12.2,23.7-13.1,25.4C366.9,421.3,327.6,470.1,256,470.1z M256.4,74c1.4,0,2.9,0,4.3,0
		c40.1,0,79.7,14.5,104.2,38.5c20,19.5,30.2,44.5,30.2,74.2v27.3c0,0-25.2-0.3-30.9,0c-2.4,0.1-4.8,0.2-10.5,0.2
		c-15.7,0-39.8-30.9-51.2-51.9c-3.3-6-10.2-9.4-16.9-8.1c-6.8,1.2-12.1,6.6-13.1,13.4c-0.2,1.3-3.6,24.7,4.6,51.1
		c-49.5-15.4-70.7-68.7-71.7-71.3c-2.8-7.2-10.3-11.5-17.9-10.1c-7.6,1.4-13.1,8.1-13.1,15.8c0,40.4-47,62.3-47.5,62.5l-10.2,4.8
		v-33.4c0-66,51.9-69.6,57.8-69.8c8.2-0.2,15-7.3,15.7-15.4C191.1,92.7,205.9,75.4,256.4,74z M129.6,330.5
		c-8.5-20.5-12.8-42.1-12.8-64.4v-10.8l23.3-10.5c2-0.9,37.2-17,55.6-50c19.6,27.3,54.5,60,109.2,60c6,0,11.5-3.4,14.3-8.7
		c2.1-4,2.3-8.5,0.9-12.6c10.3,7.6,21.7,12.7,33.8,12.7c6.4,0,9.2-0.1,11.9-0.3l0.1,0c4.8-0.3,29.4,0.1,29.4,0.1v19.7
		c0,22.2-4.3,44-12.7,64.4c-3.2,7.5-11.2,21.6-11.2,21.6C339.2,405,308.7,438,256,438c-54,0-85.7-35.1-116.3-87.4
		C139.7,350.6,132.4,337.3,129.6,330.5z"/>
	<path class="st2" d="M256,394.2c-21.2,0-41.1-8.5-56-23.9c-5.8-6-5.6-15.5,0.4-21.3c6-5.8,15.5-5.6,21.3,0.3
		c18.4,19,50.3,19,68.7,0c5.8-6,15.4-6.1,21.3-0.3c6,5.8,6.2,15.3,0.4,21.3C297.1,385.7,277.2,394.2,256,394.2z"/>
	<path class="st3" d="M29.1,28.2h-1v1v48.2c0,7.8-6.3,14.1-14.1,14.1C6.3,91.4,0,85.1,0,77.3V14.1C0,6.3,6.3,0,14.1,0h63.2
		c7.8,0,14.1,6.3,14.1,14.1c0,7.8-6.3,14.1-14.1,14.1H29.1z M482.9,483.8h1v-1v-48.2c0-7.8,6.3-14.1,14.1-14.1
		c7.8,0,14.1,6.3,14.1,14.1v63.2c0,7.8-6.3,14.1-14.1,14.1h-63.2c-7.8,0-14.1-6.3-14.1-14.1s6.3-14.1,14.1-14.1H482.9z M28.2,482.9
		v1h1h48.2c7.8,0,14.1,6.3,14.1,14.1S85.1,512,77.3,512H14.1C6.3,512,0,505.7,0,497.9v-63.2c0-7.8,6.3-14.1,14.1-14.1
		c7.8,0,14.1,6.3,14.1,14.1V482.9z M483.8,29.1v-1h-1h-48.2c-7.8,0-14.1-6.3-14.1-14.1c0-7.8,6.3-14.1,14.1-14.1h63.2
		c7.8,0,14.1,6.3,14.1,14.1v63.2c0,7.8-6.3,14.1-14.1,14.1c-7.8,0-14.1-6.3-14.1-14.1V29.1z"/>
</g>
</svg>
