<svg xmlns="http://www.w3.org/2000/svg" xmlns:svg="http://www.w3.org/2000/svg" id="svg922" width="62.928" height="63.52" version="1.1" viewBox="0 0 16.65 16.806"><g id="layer1" transform="translate(-8.0958706,-110.46823)"><path id="path18" d="m 16.503701,127.27456 a 8.4031666,8.4031666 0 1 1 5.688542,-14.58383 v 0 l -1.987021,2.08492 v 0 a 5.5218541,5.5218541 0 1 0 0,8.20208 v 0 l 1.987021,2.07698 v 0 a 8.3767082,8.3767082 0 0 1 -5.688542,2.21985 z" class="cls-1" style="fill:#e03875;stroke:none;stroke-width:1.32292;stroke-linecap:square;stroke-miterlimit:4;stroke-dasharray:none;stroke-opacity:1;paint-order:markers stroke fill"/><path id="path20" d="m 23.266451,123.07033 a 0.68791666,0.68791666 0 1 1 0.687917,-0.68791 0.68791666,0.68791666 0 0 1 -0.687917,0.68791 z" class="cls-1" style="fill:#e03875;stroke:none;stroke-width:1.32292;stroke-linecap:square;stroke-miterlimit:4;stroke-dasharray:none;stroke-opacity:1;paint-order:markers stroke fill"/><path id="path22" d="m 16.450785,120.69173 a 1.8203333,1.8203333 0 1 1 1.820333,-1.82033 1.8203333,1.8203333 0 0 1 -1.820333,1.82033 z" class="cls-1" style="fill:#e03875;stroke:none;stroke-width:1.32292;stroke-linecap:square;stroke-miterlimit:4;stroke-dasharray:none;stroke-opacity:1;paint-order:markers stroke fill"/><path id="path24" d="m 24.057555,120.71819 a 0.68791666,0.68791666 0 1 1 0.687917,-0.68792 0.69056249,0.69056249 0 0 1 -0.687917,0.68792 z" class="cls-1" style="fill:#e03875;stroke:none;stroke-width:1.32292;stroke-linecap:square;stroke-miterlimit:4;stroke-dasharray:none;stroke-opacity:1;paint-order:markers stroke fill"/><path id="path26" d="m 22.009681,120.63881 a 0.68791666,0.68791666 0 1 1 0.687916,-0.68791 0.68791666,0.68791666 0 0 1 -0.687916,0.68791 z" class="cls-1" style="fill:#e03875;stroke:none;stroke-width:1.32292;stroke-linecap:square;stroke-miterlimit:4;stroke-dasharray:none;stroke-opacity:1;paint-order:markers stroke fill"/><path id="path28" d="m 24.057555,118.40308 a 0.68791666,0.68791666 0 1 1 0.687917,-0.68791 0.69056249,0.69056249 0 0 1 -0.687917,0.68791 z" class="cls-1" style="fill:#e03875;stroke:none;stroke-width:1.32292;stroke-linecap:square;stroke-miterlimit:4;stroke-dasharray:none;stroke-opacity:1;paint-order:markers stroke fill"/><path id="path30" d="m 22.009681,118.48246 a 0.68791666,0.68791666 0 1 1 0.687916,-0.68792 0.68791666,0.68791666 0 0 1 -0.687916,0.68792 z" class="cls-1" style="fill:#e03875;stroke:none;stroke-width:1.32292;stroke-linecap:square;stroke-miterlimit:4;stroke-dasharray:none;stroke-opacity:1;paint-order:markers stroke fill"/><path id="path32" d="m 23.306139,116.08798 a 0.68791666,0.68791666 0 1 1 0.687916,-0.68792 0.68791666,0.68791666 0 0 1 -0.687916,0.68792 z" class="cls-1" style="fill:#e03875;stroke:none;stroke-width:1.32292;stroke-linecap:square;stroke-miterlimit:4;stroke-dasharray:none;stroke-opacity:1;paint-order:markers stroke fill"/></g></svg>