<?xml version="1.0" encoding="utf-8"?>
<!-- Generator: Adobe Illustrator 27.7.0, SVG Export Plug-In . SVG Version: 6.00 Build 0)  -->
<svg version="1.1" id="Layer_1" xmlns:svg="http://www.w3.org/2000/svg"
	 xmlns="http://www.w3.org/2000/svg" xmlns:xlink="http://www.w3.org/1999/xlink" x="0px" y="0px" viewBox="0 0 512 512"
	 style="enable-background:new 0 0 512 512;" xml:space="preserve">
<g>
	<g>
		<g>
			<path d="M311.5,145.9c0,26.5-41.3,26.5-41,0C270.2,119.4,311.5,119.4,311.5,145.9z"/>
			<path d="M253,5.8C116.7,5.8,6.2,116.3,6.2,252.7S116.7,499.5,253,499.5S499.9,389,499.9,252.7S389.4,5.8,253,5.8L253,5.8z
				 M195.7,377.9c-0.3-25.1,38.8-25.1,38.8,0C234.5,402.9,195.3,403,195.7,377.9L195.7,377.9z M307.5,236.6c-6,3.3-12.4,6-18.9,8.1
				c-3.6,1.2-6.7,3.5-8.8,6.5l-44.1,61c-0.6,0.9-1.8,1-2.7,0.4c-0.5-0.4-0.8-0.9-0.8-1.5v-50.4c0-2-1.6-3.6-3.6-3.6
				c-0.2,0-0.4,0-0.7,0.1c-21.7,4.2-42.5,10.8-60.1,28c-54.6,53.5-41.4,148.7,22.6,187.3c-52.9-15-98.6-48.6-128.7-94.6
				C-5.4,256.4,48.5,66.5,194.6,36.1c66-13.7,166.3,7.3,174,88.4C373,169.7,346.8,215.1,307.5,236.6z"/>
		</g>
	</g>
</g>
</svg>
