<svg xmlns="http://www.w3.org/2000/svg" xmlns:xlink="http://www.w3.org/1999/xlink" width="500" zoomAndPan="magnify" viewBox="0 0 375 374.999991" height="500" preserveAspectRatio="xMidYMid meet" version="1.0"><defs><g/></defs><rect x="-37.5" width="450" fill="transparent" y="-37.499999" height="449.999989" fill-opacity="0"/><rect x="-37.5" width="450" fill="transparent" y="-37.499999" height="449.999989" fill-opacity="0"/><rect x="-37.5" width="450" fill="transparent" y="-37.499999" height="449.999989" fill-opacity="0"/><g fill="#8c52ff" fill-opacity="0.302"><g transform="translate(84.663793, 310.016484)"><g><path d="M 63 -168 L 21 -168 L 21 -42 L 63 -42 Z M 63 0 L 231 0 L 231 -42 L 63 -42 Z M 63 -168 L 231 -168 L 231 -210 L 63 -210 Z M 63 -168 "/></g></g></g><g fill="#8c52ff" fill-opacity="0.502"><g transform="translate(71.405537, 296.758233)"><g><path d="M 63 -168 L 21 -168 L 21 -42 L 63 -42 Z M 63 0 L 231 0 L 231 -42 L 63 -42 Z M 63 -168 L 231 -168 L 231 -210 L 63 -210 Z M 63 -168 "/></g></g></g><g fill="#8c52ff" fill-opacity="1"><g transform="translate(58.147287, 283.499981)"><g><path d="M 63 -168 L 21 -168 L 21 -42 L 63 -42 Z M 63 0 L 231 0 L 231 -42 L 63 -42 Z M 63 -168 L 231 -168 L 231 -210 L 63 -210 Z M 63 -168 "/></g></g></g></svg>