<?xml version="1.0" encoding="utf-8"?>
<!-- Generator: Adobe Illustrator 27.7.0, SVG Export Plug-In . SVG Version: 6.00 Build 0)  -->
<svg version="1.1" id="Layer_1" xmlns="http://www.w3.org/2000/svg" xmlns:xlink="http://www.w3.org/1999/xlink" x="0px" y="0px"
	 viewBox="0 0 512 512" style="enable-background:new 0 0 512 512;" xml:space="preserve">
<style type="text/css">
	.st0{fill:#8C52FF;fill-opacity:0.302;}
	.st1{fill:#8C52FF;fill-opacity:0.502;}
	.st2{fill:#8C52FF;}
</style>
<g>
	<g>
		<g transform="translate(84.663793, 310.016484)">
			<g>
				<path class="st0" d="M63.7-161.7h-90.9v272.8h90.9V-161.7z M63.7,202h363.7v-90.9H63.7V202z M63.7-161.7h363.7v-90.9H63.7
					V-161.7z"/>
			</g>
		</g>
	</g>
	<g>
		<g transform="translate(71.405537, 296.758233)">
			<g>
				<path class="st1" d="M48.2-177.1h-90.9V95.6h90.9V-177.1z M48.2,186.5h363.7V95.6H48.2V186.5z M48.2-177.1h363.7v-90.9H48.2
					V-177.1z"/>
			</g>
		</g>
	</g>
	<g>
		<g transform="translate(58.147287, 283.499981)">
			<g>
				<path class="st2" d="M32.8-192.6h-90.9V80.2h90.9V-192.6z M32.8,171.1h363.7V80.2H32.8V171.1z M32.8-192.6h363.7v-90.9H32.8
					V-192.6z"/>
			</g>
		</g>
	</g>
</g>
</svg>
