<svg xmlns="http://www.w3.org/2000/svg" data-name="Layer 1" viewBox="0 0 504 504"><path d="M162.5 191.1h67.8l-10.5 40.2a25.38 25.38 0 0 1-9 13.5 24.32 24.32 0 0 1-15.3 5.1H164a30.53 30.53 0 0 0-19 6.3 33 33 0 0 0-11.55 17.1 31.91 31.91 0 0 0-.45 15.3 33.1 33.1 0 0 0 5.85 12.75 30.29 30.29 0 0 0 10.8 8.85 31.74 31.74 0 0 0 14.4 3.3h19.2a10.8 10.8 0 0 1 8.85 4.35 10.4 10.4 0 0 1 1.9 9.75L182 372h-21a84.77 84.77 0 0 1-39.75-9.45A89.78 89.78 0 0 1 91.1 337.5 88.4 88.4 0 0 1 74.75 302a87.51 87.51 0 0 1 1-40.95l1.2-4.5a88.69 88.69 0 0 1 31.65-47.25 89.91 89.91 0 0 1 25-13.35 87 87 0 0 1 28.9-4.85ZM196.7 372l59.1-221.4a25.38 25.38 0 0 1 9-13.5 24.32 24.32 0 0 1 15.3-5.1h62.7a84.77 84.77 0 0 1 39.75 9.45 89.21 89.21 0 0 1 46.65 60.6A83.8 83.8 0 0 1 428 243l-1.2 4.5a89.88 89.88 0 0 1-12 26.55 87.65 87.65 0 0 1-73.2 39.15h-54.3l10.8-40.5a25.38 25.38 0 0 1 9-13.2 24.32 24.32 0 0 1 15.3-5.1h17.4a31.56 31.56 0 0 0 30.6-23.7 29.39 29.39 0 0 0 .45-14.7 33.1 33.1 0 0 0-5.85-12.75 31.76 31.76 0 0 0-10.8-9 30.61 30.61 0 0 0-14.4-3.45h-33.6l-43.8 162.9a25.38 25.38 0 0 1-9 13.2 23.88 23.88 0 0 1-15 5.1Z" style="fill:#ff6c2c"/></svg>