<svg xmlns="http://www.w3.org/2000/svg" viewBox="0 0 425 425"><rect x="0" y="0" rx="105" ry="105" width="425" height="425" style="fill: #22283A"/><path fill="hsl(160, 59%, 45%)" d="M 162.5 182.5 l 38 -15 q 0 -40 -40 -40 l -95 0 q -40 0 -40 40 l 0 90 q 0 40 40 40 l 95 0 q 40 0 40 -40 l -38 -20 l 0 28 l -100 0 l 0 -108 l 100 0 z"/><path fill="hsl(192, 99%, 45%)" d="M 262.5 182.5 l -38 -15 q 0 -40 40 -40 l 95 0 q 40 0 40 40 l 0 90 q 0 40 -40 40 l -95 0 q -40 0 -40 -40 l 38 -20 l 0 28 l 100 0 l 0 -108 l -100 0 z"/><path fill="hsl(266, 71%, 57%)" d="M 142.5 191.5 q -10 0 -10 10 l 0 19 q 0 10 10 10 l 140 0 q 10 0 10 -10 l 0 -19 q 0 -10 -10 -10 z"/></svg>