<svg xmlns="http://www.w3.org/2000/svg" width="1000" height="1000" version="1.2"><style>.s0{fill:#39a652}.s1{fill:#273}.s2{fill:#c0ecb5}</style><g id="Layer"><g id="Layer_2"><path d="M826.6 392.8c-109.8 107.7-196.8 94-256.2 33.5q-4.5-4.6-8.5-9.3c7.8-22.1-13.3-118.5 65.7-195.9C720.5 130 902.9 63.9 959.8 44.8c3.8 3.9 5.8 9.4 4.8 15.3-11.1 65.1-48.9 245.3-138 332.7z" class="s0"/><path d="M627.6 221.1c-79 77.4-57.9 173.8-65.7 195.9-51.5-59.8-54.6-141.1 49.7-243.4 89-87.3 267.8-123.4 332.6-134 6.1-1 11.8 1.2 15.6 5.2-56.9 19.1-239.3 85.2-332.2 176.3z" class="s1"/><path d="M393 175.3c107.8 109.9 94.1 196.9 33.5 256.2q-4.5 4.5-9.2 8.6c-22.1-7.9-118.5 13.2-196-65.7C130.2 281.5 64.1 99.1 45 42.1c3.9-3.7 9.5-5.7 15.4-4.7 65 11.1 245.2 48.8 332.6 137.9z" class="s0"/><path d="M221.3 374.4c77.5 78.9 173.9 57.9 196 65.7-59.8 51.4-141.1 54.6-243.5-49.8-87.3-89-123.4-267.8-133.9-332.5-1-6.1 1.2-11.8 5.1-15.7 19.1 57 85.2 239.4 176.3 332.3z" class="s1"/><g><path d="M173.4 606.7c109.8-107.7 196.8-94.1 256.2-33.5q4.4 4.5 8.5 9.3c-7.8 22 13.3 118.4-65.7 195.9-92.9 91.1-275.3 157.2-332.2 176.3-3.8-3.9-5.8-9.5-4.8-15.4 11.1-65 48.9-245.2 138-332.6z" class="s0"/><path d="M372.4 778.4c79-77.5 57.9-173.9 65.7-195.9 51.5 59.7 54.6 141.1-49.7 243.4-89 87.3-267.9 123.4-332.6 133.9-6.1 1-11.8-1.2-15.6-5.1 56.9-19.1 239.3-85.2 332.2-176.3z" class="s1"/></g><g><path d="M605.3 824.7c-107.7-109.9-94.1-196.9-33.5-256.2q4.5-4.5 9.3-8.6c22 7.9 118.4-13.2 195.9 65.7 91.1 92.9 157.2 275.3 176.3 332.3-3.9 3.7-9.4 5.7-15.4 4.7-65-11.1-245.2-48.8-332.6-137.9z" class="s0"/><path d="M953.3 957.9c-19.1-57-85.2-239.4-176.3-332.3-77.5-78.9-173.9-57.9-195.9-65.7 59.7-51.4 141.1-54.6 243.4 49.8 87.3 89 123.4 267.8 134 332.5.9 6.1-1.3 11.8-5.2 15.7z" class="s1"/></g></g><g id="Layer_1"><path d="M166.2 817.2c-4.3-4.4-4.3-11.5.2-15.9l637.5-625.2c4.4-4.3 11.5-4.2 15.9.2l7.7 7.9c4.4 4.4 4.3 11.5-.1 15.9L189.8 825.3c-4.4 4.3-11.5 4.3-15.8-.2z" class="s2"/><path d="M723.8 331.6C647 406.9 573 455.6 558.3 440.5c-14.8-15.1 35.3-88.1 112.1-163.4 76.7-75.3 150.7-123.9 165.5-108.9 14.8 15.1-35.3 88.1-112.1 163.4zM327 719.7c-76.8 75.2-150.8 123.9-165.5 108.9-14.8-15.1 35.3-88.1 112.1-163.4 76.7-75.3 150.7-124 165.5-108.9 14.8 15-35.3 88.1-112.1 163.4zM176.3 193c-4.3-4.4-4.2-11.5.2-15.9l7.9-7.7c4.4-4.4 11.5-4.3 15.9.1l625.2 637.6c4.3 4.4 4.2 11.5-.2 15.9l-7.9 7.7c-4.4 4.4-11.5 4.3-15.9-.1z" class="s2"/><path d="M442.2 439.5c-15.1 14.7-88.1-35.4-163.4-112.1-75.3-76.8-124-150.8-108.9-165.6C185 147 258 197.1 333.3 273.9c75.3 76.8 123.9 150.8 108.9 165.6zM828.5 834.6c-15 14.8-88.1-35.4-163.3-112.1-75.3-76.8-124-150.8-108.9-165.6 15-14.8 88.1 35.4 163.4 112.1 75.2 76.8 123.9 150.8 108.8 165.6z" class="s2"/></g></g></svg>