<svg xmlns="http://www.w3.org/2000/svg" width="1000" height="1000" version="1.2"><style>.s1{fill:#39a652}.s2{fill:#273}.s3{fill:#c0ecb5}</style><path id="Layer" d="M0 250C0 111.9 111.9 0 250 0h500c138.1 0 250 111.9 250 250v500c0 138.1-111.9 250-250 250H250C111.9 1000 0 888.1 0 750z" style="fill:#fff"/><g id="Layer_2"><path d="M781.1 407.7c-94.6 92.7-169.4 81-220.5 28.9q-3.8-3.9-7.4-8c6.8-19-11.4-102 56.6-168.6 79.9-78.4 236.9-135.3 285.9-151.7 3.2 3.3 4.9 8.1 4.1 13.2-9.6 56-42.1 211-118.7 286.2z" class="s1"/><path d="M609.8 260c-68 66.6-49.8 149.6-56.6 168.6-44.2-51.5-46.9-121.4 42.9-209.5 76.5-75.1 230.4-106.2 286.1-115.3 5.3-.8 10.2 1.1 13.5 4.5-49 16.4-206 73.3-285.9 151.7z" class="s2"/><path d="M407.9 220.6c92.7 94.6 81 169.4 28.9 220.5q-3.9 3.8-8 7.3c-19-6.7-101.9 11.4-168.6-56.5C181.8 312 124.9 155 108.5 106c3.3-3.2 8.1-5 13.2-4.1 56 9.6 211 42 286.2 118.7z" class="s1"/><path d="M260.2 391.9c66.7 67.9 149.6 49.8 168.6 56.5-51.4 44.3-121.4 47-209.5-42.8C144.2 329 113.1 175.2 104 119.4c-.8-5.2 1.1-10.1 4.5-13.4 16.4 49 73.3 206 151.7 285.9z" class="s2"/><g><path d="M218.9 591.8c94.6-92.7 169.4-80.9 220.5-28.8q3.8 3.9 7.3 8c-6.7 18.9 11.5 101.9-56.5 168.5-79.9 78.4-236.9 135.3-285.9 151.7-3.2-3.3-5-8.1-4.1-13.2 9.6-55.9 42.1-211 118.7-286.2z" class="s1"/><path d="M390.2 739.5c68-66.6 49.8-149.6 56.6-168.5 44.2 51.4 46.9 121.4-42.9 209.5-76.6 75.1-230.4 106.1-286.1 115.2-5.3.9-10.2-1-13.5-4.5 49-16.4 206-73.3 285.9-151.7z" class="s2"/></g><g><path d="M590.6 779.4c-92.7-94.6-80.9-169.4-28.8-220.5q3.9-3.8 8-7.3c19 6.7 101.9-11.4 168.5 56.5C816.7 688 873.6 845 890.1 894c-3.4 3.2-8.1 5-13.2 4.1-56-9.6-211.1-42-286.3-118.7z" class="s1"/><path d="M890.1 894c-16.5-49-73.4-206-151.8-285.9-66.6-67.9-149.5-49.8-168.5-56.5 51.4-44.3 121.4-47 209.5 42.8 75.1 76.6 106.1 230.4 115.2 286.2.9 5.2-1 10.1-4.4 13.4z" class="s2"/></g></g><g id="Layer_1"><path d="M212.7 773c-3.7-3.8-3.6-9.9.2-13.7l548.6-538c3.8-3.7 9.9-3.7 13.7.1l6.7 6.8c3.7 3.9 3.6 10-.2 13.7l-548.6 538c-3.8 3.8-9.9 3.7-13.7-.1z" class="s3"/><path d="M692.6 355.1c-66.1 64.8-129.7 106.7-142.5 93.7-12.7-13 30.4-75.8 96.5-140.6s129.8-106.7 142.5-93.7c12.7 13-30.4 75.8-96.5 140.6zM351.1 689c-66 64.8-129.7 106.7-142.4 93.7-12.7-12.9 30.4-75.8 96.4-140.6 66.1-64.8 129.8-106.6 142.5-93.7 12.7 13-30.4 75.8-96.5 140.6zM221.5 235.8c-3.8-3.8-3.7-9.9.1-13.6l6.8-6.7c3.8-3.8 9.9-3.7 13.7.1l538 548.7c3.7 3.8 3.7 9.9-.1 13.6l-6.9 6.7c-3.8 3.7-9.9 3.7-13.6-.1z" class="s3"/><path d="M450.2 447.9c-12.9 12.7-75.8-30.4-140.6-96.5-64.8-66-106.6-129.7-93.7-142.4 13-12.7 75.8 30.4 140.6 96.4 64.8 66.1 106.7 129.8 93.7 142.5zM782.7 787.9c-12.9 12.7-75.8-30.4-140.6-96.5-64.8-66-106.6-129.7-93.7-142.4 13-12.7 75.8 30.4 140.6 96.5 64.8 66 106.7 129.7 93.7 142.4z" class="s3"/></g></svg>