<svg viewBox="0 0 90 90" xmlns="http://www.w3.org/2000/svg" xmlns:xlink="http://www.w3.org/1999/xlink"><defs><path id="a" d="M0 0h46.685v83.987H0z"/></defs><g fill="none" fill-rule="evenodd"><g transform="translate(21.583)"><mask id="b" fill="#fff"><use xlink:href="#a"/></mask><path d="M13.202 83.987c11.566 0 21.042-17.756 23.389-39.555 2.456-.04 4.48-1.834 4.9-4.19.046-.26.078-.524.083-.796.05.005.098.013.149.015a3.198 3.198 0 0 0 3.354-3.036 3.208 3.208 0 0 0-1.405-2.824 5.093 5.093 0 0 0 3.013-4.654 5.084 5.084 0 0 0-4.295-5.029 3.198 3.198 0 0 0 .676-1.969 3.199 3.199 0 0 0-3.123-3.204c.837-.42 1.569-1.05 2.05-1.809 1.19-1.873 1.38-10.322-2.846-15.752-1.741-2.238-3.448-.889-3.555.639-.332 4.673-.372 8.186-1.579 12.186a3.195 3.195 0 0 0-3.147-2.691c-1.018 0-1.923.48-2.507 1.225-.361-2.458-2.463-4.347-5.01-4.347-2.552 0-4.658 1.896-5.013 4.361a3.178 3.178 0 0 0-2.517-1.24 3.195 3.195 0 0 0-3.147 2.692c-1.207-4-1.248-7.513-1.578-12.186-.109-1.528-1.815-2.877-3.557-.639-4.225 5.43-4.035 13.879-2.845 15.752.481.758 1.213 1.39 2.05 1.81a3.199 3.199 0 0 0-3.123 3.203 3.2 3.2 0 0 0 .675 1.97A5.084 5.084 0 0 0 0 28.946 5.094 5.094 0 0 0 3.013 33.6a3.208 3.208 0 0 0-1.405 2.824 3.198 3.198 0 0 0 3.354 3.036c.05-.002.099-.01.148-.015.006.261.037.516.08.767.412 2.397 2.482 4.223 4.986 4.223h.01c-1.402 6.099-3.557 23.557-5.298 39.54.098-.905.31-1.816.411-2.73 2.508 1.773 5.093 2.74 7.903 2.74" fill="#F7AA13" fill-rule="nonzero" mask="url(#b)"/></g><path d="M45 88.442c6.455 0 12.72.102 18.7.294-.155-1.477-.315-2.977-.478-4.493-.638-5.951-1.278-12.29-1.932-18.237-1.13-9.534-2.243-17.765-3.117-21.574-2.346 21.799-11.822 39.555-23.388 39.555-2.81 0-5.395-.968-7.903-2.74-.1.913-.313 1.824-.411 2.73a298.93 298.93 0 0 0-.473 4.769A584.752 584.752 0 0 1 45 88.442" fill="#F29219" fill-rule="nonzero"/><path d="M25.445 40.793a4.591 4.591 0 0 1-2.458-1.406c-.656.143-1.308.333-1.955.58-1.341.51-2.75.5-4.106.002a15.32 15.32 0 0 0-5.035-.925c-2.347-.044-4.659.17-6.959.884 0 .79-.016 1.504.012 2.215.006.175.145.35.24.515.229.4.537.771.688 1.199.342.971.573 1.982.913 2.954.378 1.082 1.173 1.792 2.298 1.94 1.307.17 2.637.294 3.952.255.833-.025 1.57-.21 2.196-.567.385-1.572.854-3.118 1.6-4.61 1.027-2.053 2.67-2.14 3.78 0 .71 1.369 1.162 2.792 1.526 4.24.382.323.841.545 1.37.677 1.74.433 3.477.432 5.235.057.291-.062.558-.15.804-.259.18-1.07.355-2.05.524-2.91a6.48 6.48 0 0 1-4.625-4.841" fill="#F7AA13" fill-rule="nonzero"/><path d="M19.374 51.895c.015.977-.012 1.948-.091 2.903-.097 1.17-.147 2.338-.327 3.432-.128.774-.332.807-.47 0-.186-1.087-.23-2.261-.327-3.432a29.603 29.603 0 0 1-.09-2.903c-1.267-.336-2.272-1.628-2.565-3.284.9.538 2.012.856 3.217.856s2.317-.318 3.217-.856c-.294 1.656-1.299 2.948-2.564 3.284m4.566 5.3a25.985 25.985 0 0 0-.7-4.27c-.407-1.626-.701-3.257-1.103-4.856-.364-1.449-.817-2.871-1.527-4.24-1.11-2.14-2.752-2.053-3.779 0-.746 1.492-1.215 3.038-1.6 4.61-.363 1.48-.653 2.982-1.03 4.487a25.947 25.947 0 0 0-.7 4.269c-.176 2.22 1.269 4.134 3.085 4.134h4.27c1.816 0 3.26-1.914 3.084-4.134" fill="#FEFEFE" fill-rule="nonzero"/><path d="M15.504 48.611c.294 1.656 1.298 2.947 2.564 3.284-.016.977.012 1.948.09 2.903.098 1.17.142 2.345.328 3.432.138.807.342.774.47 0 .18-1.094.23-2.261.326-3.432.08-.955.107-1.926.092-2.903 1.265-.337 2.27-1.628 2.563-3.284-.899.538-2.011.856-3.216.856s-2.317-.318-3.217-.856" fill="#1D1A8B" fill-rule="nonzero"/><path d="M64.406 40.793a6.513 6.513 0 0 1-4.54 4.812c.147.759.302 1.63.465 2.614.365.278.801.465 1.31.531 1.307.17 2.638.295 3.952.256.834-.025 1.57-.21 2.196-.567.386-1.572.854-3.118 1.6-4.61 1.027-2.053 2.67-2.14 3.78 0 .71 1.369 1.162 2.791 1.526 4.24.383.323.842.545 1.37.677 1.74.433 3.478.432 5.235.058 1.263-.27 2.1-.972 2.506-2.184.298-.89.561-1.795.803-2.703.137-.515.196-1.038.775-1.294.112-.05.183-.306.187-.47.02-.734.009-1.469.009-2.348-1.421-.232-2.807-.54-4.208-.667-2.638-.24-5.25-.137-7.782.828-1.34.512-2.75.5-4.107.003-.83-.305-1.671-.53-2.525-.682a4.595 4.595 0 0 1-2.552 1.506" fill="#F7AA13" fill-rule="nonzero"/><path d="M71.932 51.895c.015.977-.012 1.948-.091 2.903-.097 1.17-.147 2.338-.327 3.432-.128.774-.332.807-.47 0-.185-1.087-.23-2.261-.327-3.432a29.494 29.494 0 0 1-.09-2.903c-1.267-.336-2.271-1.628-2.565-3.284.9.538 2.012.856 3.217.856s2.317-.318 3.216-.856c-.293 1.656-1.298 2.948-2.563 3.284m4.566 5.3a25.947 25.947 0 0 0-.699-4.27c-.408-1.626-.702-3.257-1.104-4.856-.364-1.449-.817-2.871-1.527-4.24-1.109-2.14-2.752-2.053-3.778 0-.747 1.492-1.215 3.038-1.6 4.61-.364 1.48-.654 2.982-1.031 4.487a25.985 25.985 0 0 0-.7 4.269c-.176 2.22 1.269 4.134 3.085 4.134h4.27c1.816 0 3.26-1.914 3.084-4.134" fill="#FEFEFE" fill-rule="nonzero"/><path d="M68.062 48.611c.294 1.656 1.298 2.947 2.564 3.284-.015.977.012 1.948.091 2.903.097 1.17.142 2.345.327 3.432.138.807.342.774.47 0 .18-1.094.23-2.261.327-3.432.078-.955.106-1.926.09-2.903 1.267-.337 2.271-1.628 2.565-3.284-.9.538-2.012.856-3.217.856s-2.317-.318-3.217-.856" fill="#1D1A8B" fill-rule="nonzero"/><path d="M81.904 54.43c.7 3.055 1.593 9.656 2.5 17.302-.794-7.218-1.615-13.713-2.5-17.301" fill="#F29219" fill-rule="nonzero"/><path d="M27.733 26.35c2.868-.892 5.75-1.158 8.676-1.104 2.157.04 4.245.408 6.278 1.154 1.692.62 3.448.634 5.12-.003 3.157-1.203 6.413-1.333 9.702-1.033 1.748.159 3.476.543 5.247.831 0 1.097.015 2.014-.01 2.929-.006.203-.094.524-.233.586-.723.318-.796.971-.967 1.613a56.845 56.845 0 0 1-1.001 3.37c-.505 1.511-1.55 2.387-3.125 2.723-2.191.466-4.358.467-6.527-.072-1.197-.298-2.12-.954-2.67-2.094-.671-1.392-1.318-2.797-2.048-4.157-.183-.342-.63-.714-.98-.738-.282-.019-.702.406-.88.734-.53.98-1.038 1.983-1.435 3.023-.893 2.349-2.65 3.485-5.044 3.556-1.64.049-3.298-.106-4.928-.32-1.403-.182-2.393-1.067-2.865-2.416-.424-1.213-.713-2.473-1.139-3.684-.187-.533-.572-.995-.857-1.495-.118-.206-.291-.424-.3-.642-.034-.887-.014-1.776-.014-2.761" fill="#1D1A8B" fill-rule="nonzero"/><path d="M50.561 42.555c-.97-3.867-1.418-7.751-3.28-11.343-1.383-2.668-3.432-2.56-4.712 0-1.807 3.614-2.31 7.476-3.28 11.343a32.399 32.399 0 0 0-.872 5.323c-.22 2.769 1.582 5.156 3.847 5.156h5.323c2.265 0 4.066-2.387 3.846-5.156a32.399 32.399 0 0 0-.872-5.323" fill="#FEFEFE" fill-rule="nonzero"/><path d="M48.936 37.176c-1.121.67-2.508 1.067-4.01 1.067-1.503 0-2.89-.397-4.011-1.067.365 2.065 1.618 3.675 3.196 4.094a37.141 37.141 0 0 0 .114 3.62c.12 1.46.176 2.924.408 4.279.171 1.006.426.965.585 0 .225-1.363.287-2.82.408-4.279a36.83 36.83 0 0 0 .113-3.62c1.579-.42 2.831-2.03 3.197-4.094" fill="#F7AA13" fill-rule="nonzero"/><path d="M10.588 86.154c7.083 0 13.19-8.304 16.518-20.015.786-6.385 1.654-12.898 2.44-17.595-.246.11-.513.198-.804.26-1.758.374-3.496.375-5.235-.058a3.339 3.339 0 0 1-1.37-.677c.402 1.599.696 3.23 1.104 4.857a25.98 25.98 0 0 1 .7 4.268c.176 2.22-1.269 4.135-3.085 4.135h-4.27c-1.816 0-3.261-1.914-3.085-4.135.114-1.432.345-2.857.7-4.268.377-1.505.667-3.007 1.03-4.487-.626.356-1.363.542-2.196.567-1.315.039-2.645-.085-3.952-.256-1.125-.147-1.92-.857-2.298-1.939-.34-.972-.572-1.983-.914-2.954-.15-.428-.458-.798-.687-1.199-.095-.165-.234-.34-.24-.514-.028-.712-.012-1.425-.012-2.215 2.3-.716 4.612-.93 6.96-.885a15.32 15.32 0 0 1 5.034.924c1.357.498 2.765.51 4.106-.002a13.57 13.57 0 0 1 1.955-.578 4.624 4.624 0 0 1-1.21-2.89 4.615 4.615 0 0 1 .645-2.616 6.55 6.55 0 0 1-1.55-7.895 4.022 4.022 0 0 0-2.146-.618c-2.047 0-3.736 1.52-4.02 3.497a2.55 2.55 0 0 0-2.019-.993 2.562 2.562 0 0 0-2.524 2.158c-.968-3.208-1-6.025-1.266-9.773-.086-1.226-1.455-2.307-2.852-.513C2.656 24.1 2.81 30.876 3.763 32.38c.386.608.972 1.114 1.644 1.45a2.565 2.565 0 0 0-2.505 2.57c0 .596.204 1.143.542 1.58A4.077 4.077 0 0 0 0 42.011c0 1.666.993 3.096 2.416 3.732A2.573 2.573 0 0 0 1.29 48.01a2.565 2.565 0 0 0 2.69 2.435c.04-.002.08-.008.12-.012.004.21.028.414.063.615.33 1.923 1.991 3.387 3.999 3.387h.009c-1.125 4.891-2.854 18.893-4.25 31.712.079-.727.25-1.457.33-2.19 2.011 1.422 4.084 2.198 6.338 2.198" fill="#2F2BAE" fill-rule="nonzero"/><path d="M25.064 83.821c.45-4.138 1.2-10.835 2.042-17.682-3.329 11.71-9.434 20.015-16.518 20.015-2.254 0-4.327-.776-6.338-2.197-.08.732-.25 1.462-.33 2.189A240.038 240.038 0 0 0 3.539 90c6.401-.529 13.477-.94 21.033-1.206.151-1.627.309-3.291.492-4.973" fill="#0F0C63" fill-rule="nonzero"/><path d="M85.834 51.07a4.08 4.08 0 0 0 .067-.638c.04.004.079.01.12.012a2.565 2.565 0 0 0 2.69-2.435 2.573 2.573 0 0 0-1.127-2.265A4.086 4.086 0 0 0 90 42.012a4.078 4.078 0 0 0-3.444-4.034c.338-.436.542-.983.542-1.579a2.566 2.566 0 0 0-2.505-2.57c.671-.336 1.258-.843 1.644-1.45.954-1.503 1.107-8.279-2.282-12.633-1.397-1.795-2.766-.713-2.853.511-.265 3.749-.297 6.566-1.265 9.774a2.562 2.562 0 0 0-2.524-2.159 2.55 2.55 0 0 0-2.01.984c-.29-1.972-1.976-3.487-4.02-3.487-.84 0-1.616.26-2.263.698.424.87.663 1.847.663 2.88a6.533 6.533 0 0 1-2.254 4.934 4.62 4.62 0 0 1 .644 2.618 4.626 4.626 0 0 1-1.115 2.788c.854.152 1.695.377 2.526.682 1.357.497 2.765.509 4.106-.002 2.532-.966 5.144-1.07 7.782-.83 1.401.128 2.787.436 4.208.668 0 .88.01 1.614-.009 2.348-.004.164-.075.42-.187.47-.579.256-.638.78-.775 1.294a45.315 45.315 0 0 1-.803 2.704c-.405 1.211-1.244 1.914-2.506 2.183-1.758.374-3.495.375-5.235-.058a3.339 3.339 0 0 1-1.37-.677c.402 1.599.696 3.23 1.104 4.857.354 1.412.586 2.836.7 4.268.176 2.221-1.269 4.135-3.085 4.135h-4.27c-1.816 0-3.26-1.914-3.085-4.135.114-1.432.346-2.856.7-4.268.377-1.505.667-3.007 1.03-4.487-.626.356-1.363.542-2.196.567-1.315.039-2.645-.085-3.952-.256a2.705 2.705 0 0 1-1.31-.532c1.085 6.567 2.514 18.21 4.409 35.873l.201 1.883c8.45-1.696 15.205-15.203 16.963-31.543 1.97-.032 3.593-1.471 3.93-3.36Z" fill="#2F2BAE" fill-rule="nonzero"/><path d="M85.953 86.36c-.512-4.773-1.024-9.858-1.55-14.628-.906-7.646-1.799-14.247-2.499-17.301-1.758 16.34-8.514 29.847-16.963 31.543l.3 2.814c7.578.264 14.677.673 21.1 1.202a3634.23 3634.23 0 0 0-.388-3.63" fill="#0F0C63" fill-rule="nonzero"/><path d="m63.7 88.736.112.004c-.157-1.478-.316-2.98-.48-4.497a1678.829 1678.829 0 0 0-2.041-18.237c.653 5.947 1.293 12.286 1.931 18.237.162 1.516.323 3.016.479 4.493" fill="#4E4A98" fill-rule="nonzero"/><path d="M58.174 44.432c.873 3.809 1.986 12.04 3.117 21.574-.99-9-2.014-17.1-3.117-21.574M26.47 83.976c-.175 1.61-.347 3.204-.515 4.771l.043-.001c.146-1.567.297-3.16.473-4.77" fill="#3E3977" fill-rule="nonzero"/></g></svg>