<svg xmlns="http://www.w3.org/2000/svg" width="480" height="540"><path d="M154.258 308.98c-4.796-2.425-7.436-5.808-8.198-10.503l-.564-3.473h4.631c3.51 0 4.631.374 4.631 1.546 0 .85 1.105 2.65 2.455 4 2.015 2.016 3.445 2.454 8 2.454 6.036 0 9.545-2.197 9.545-5.977 0-2.82-3.291-4.584-13-6.965-4.675-1.146-9.625-2.909-11-3.917-7.741-5.677-6.105-17.804 3.02-22.39 4.958-2.49 15.125-2.343 20.581.298 4.628 2.24 7.124 5.328 8.05 9.956.596 2.98.575 2.995-4 2.995-4.056 0-4.776-.34-6.088-2.879-1.763-3.408-3.307-4.12-8.922-4.12-6.614 0-10.36 3.742-7.794 7.787.45.708 5.652 2.552 11.56 4.098 12.985 3.397 15.659 5.495 16.287 12.775.573 6.65-1.889 11.181-7.656 14.09-5.952 3-15.844 3.104-21.538.225zm88 0c-4.796-2.425-7.436-5.808-8.198-10.503l-.564-3.473h4.631c3.51 0 4.631.374 4.631 1.546 0 .85 1.105 2.65 2.455 4 2.015 2.016 3.445 2.454 8 2.454 6.036 0 9.545-2.197 9.545-5.977 0-2.82-3.291-4.584-13-6.965-4.675-1.146-9.625-2.909-11-3.917-7.741-5.677-6.105-17.804 3.02-22.39 4.958-2.49 15.125-2.343 20.581.298 4.628 2.24 7.124 5.328 8.05 9.956.596 2.98.575 2.995-4 2.995-4.056 0-4.776-.34-6.088-2.879-1.763-3.408-3.307-4.12-8.922-4.12-6.614 0-10.36 3.742-7.794 7.787.45.708 5.652 2.552 11.56 4.098 12.985 3.397 15.659 5.495 16.287 12.775.573 6.65-1.889 11.181-7.656 14.09-5.952 3-15.844 3.104-21.538.225zm-38.5-7.854c0-9.754 1.036-7.141-12.641-31.872l-3.457-6.25h11.678l9.887 20.096 9.4-20.096h11.273l-4.236 7.75a1909.446 1909.446 0 0 1-8.07 14.59c-3.647 6.505-3.834 7.275-3.834 15.75v8.91h-10v-8.878zm86-10.622v-19.5h-14v-8h39v8h-15v39h-10zm30-4v-23.5h35v8h-26v10h24v8h-24v13h27v8h-36zm44 0v-23.5h13.923l.957 3.75c.527 2.063 2.424 10.158 4.217 17.989 1.792 7.831 3.39 14.108 3.55 13.948.16-.16 1.879-7.242 3.82-15.739s3.765-16.46 4.051-17.698c.478-2.069 1.082-2.25 7.501-2.25h6.981v47h-8.955l-.545-36.5-8.035 36-5.034.296-5.033.295-3.95-18.295-3.948-18.296-.545 36.5h-8.955v-23.5zm59.007-43.093c-4.578-1.985-7.715-4.992-10.332-9.907-1.688-3.167-2.136-5.773-2.153-12.52-.027-10.507 2.71-16.79 9.346-21.454 5.693-4.002 16.449-4.806 23.364-1.747 4.891 2.163 9.57 7.447 9.997 11.289.249 2.232-.114 2.457-4.395 2.734-3.954.255-4.765-.008-5.31-1.724-1.725-5.438-10.296-7.798-16.557-4.56-8.777 4.538-9.18 24.333-.602 29.563 5.867 3.578 12.945 2.03 16.689-3.648 3.082-4.676 2.587-5.433-3.554-5.433h-5.5v-8h20v26h-3.5c-3.067 0-3.5-.31-3.5-2.5 0-2.891-1.169-3.207-3.128-.845-3.514 4.238-14.192 5.646-20.865 2.752zm-275.007-22.907v-23.5l12.75.002c10.168.001 13.442.356 16.165 1.75 8.593 4.4 9.475 18.011 1.635 25.248-2.387 2.204-3.767 2.542-11.63 2.85l-8.92.35v16.8h-10v-23.5zm24-3.5c1.226-1.225 2-3.333 2-5.443 0-4.73-2.848-6.557-10.222-6.557h-5.778v14h6c4.667 0 6.445-.444 8-2zm20 3.5v-23.5h14.032c16.022 0 19.788 1.017 22.942 6.19 3.412 5.595 1.92 14.191-2.911 16.777-1.82.973-1.768 1.174 1.01 3.952 2.707 2.707 2.927 3.482 2.927 10.304 0 4.566.476 7.855 1.25 8.632 1.002 1.006.06 1.195-4.75.95l-6-.305-.5-7.833c-.627-9.826-1.549-10.667-11.691-10.667h-7.309v19h-9v-23.5zm27.171-5.155c2.4-2.172 2.325-5.849-.17-8.345-1.668-1.666-3.334-2-10-2h-8v12h8.17c6.2 0 8.613-.399 10-1.655zm19.83 5.155v-23.5h10v47h-10zm19-.052V196.9l10.256.604 18.243 31.55.275-16.024.275-16.026h8.95v47h-9.866l-19.123-33.5-.01 33.5h-9v-23.552zm58 4.052v-19.5h-14v-8h39v8h-15v39h-10zm29-4v-23.5h10v47h-10zm19-.052V196.9l10.256.604 18.243 31.55.275-16.024.275-16.026h8.95v47h-9.866l-19.123-33.5-.01 33.5h-9v-23.552zm-207.874-43.561c-7.141-3.62-8.079-6.875-8.105-28.137l-.022-17.75h9.874l.313 18.09c.305 17.627.374 18.14 2.674 20 3.467 2.805 9.599 2.542 12.684-.544 2.42-2.42 2.455-2.705 2.455-20v-17.546h10.121l-.31 18.93c-.34 20.709-.572 21.563-7.19 26.504-4.25 3.173-16.636 3.422-22.494.452zm39.873-22.439V130.9l10.257.604 18.243 31.55.275-16.024.275-16.026h8.95v47h-9.866l-19.123-33.5-.011 33.5h-9v-23.552zm47 .052v-23.5h10v47h-10zm16.574 20.75c.992-1.512 4.452-6.952 7.689-12.088l5.885-9.339-5.762-9.161a6253.38 6253.38 0 0 0-7.189-11.412c-1.421-2.24-1.403-2.25 4.502-2.25h5.93l3.935 6.998c2.165 3.849 4.19 6.999 4.5 7 .31.001 2.335-3.147 4.5-6.995l3.936-6.998 5.78-.002 5.781-.003-3.69 5.75-7.11 11.075c-1.88 2.928-3.2 5.853-2.934 6.5.266.646 3.643 6.125 7.503 12.175l7.02 11-5.056.307c-2.78.169-5.566.111-6.19-.128-.623-.24-2.89-3.64-5.037-7.557s-4.227-7.122-4.623-7.122-2.65 3.375-5.01 7.5l-4.29 7.5h-11.874z"/><path d="M225.258 523.302c-19.53-1.336-45.952-7.056-63.286-13.7-27.714-10.623-49.95-25.255-70.262-46.235-35.147-36.305-55.801-84.793-63.621-149.363-2.448-20.211-2.464-69.848-.028-88.914C37.013 155 64.176 100.624 108.758 63.54c47.235-39.29 116.97-55.517 186.72-43.449 30.845 5.337 59.714 17.238 83.479 34.413 11.208 8.1 29.802 26.932 38.036 38.521 8.39 11.81 18.54 32.078 23.186 46.302 3.103 9.5 7.58 29.124 7.58 33.228 0 1.235-4.653 1.449-31.462 1.449h-31.461l-1.053-4.25c-14.237-57.463-55.225-89.877-119.85-94.777-55.635-4.22-104.273 17.294-134.76 59.605-13.747 19.08-25.52 47.204-30.737 73.422-4.095 20.585-5.146 32.776-5.126 59.5.02 25.901 1.198 41.802 4.561 61.5 11.452 67.086 44.036 110.768 95.388 127.88 28.052 9.349 65.914 11.263 91.982 4.65 50.912-12.915 85.118-51.522 101.031-114.03l3.31-13 63.273-.528-.655 3.764c-12.427 71.377-40.638 119.282-89.561 152.084-35.809 24.008-88.414 36.827-137.38 33.478z"/></svg>