<?xml version="1.0" encoding="utf-8"?>
<!-- Generator: Adobe Illustrator 27.7.0, SVG Export Plug-In . SVG Version: 6.00 Build 0)  -->
<svg version="1.1" id="Layer_1" xmlns="http://www.w3.org/2000/svg" xmlns:xlink="http://www.w3.org/1999/xlink" x="0px" y="0px"
	 viewBox="0 0 512 512" style="enable-background:new 0 0 512 512;" xml:space="preserve">
<style type="text/css">
	.st0{fill:#F6F5F4;}
	.st1{fill:url(#SVGID_1_);}
	.st2{fill:url(#SVGID_00000152958426349034464510000007482250240448806583_);}
	.st3{fill:url(#SVGID_00000005262319446682569140000010407768224899876513_);}
	.st4{fill:url(#SVGID_00000170997514517621262100000010542502026897795220_);}
	.st5{filter:url(#a);}
	.st6{opacity:0.104;}
	.st7{mask:url(#k_00000108284265726524986450000011440074620691340978_);}
	.st8{fill:url(#SVGID_00000163036148928442189550000005656242023990813833_);}
	.st9{fill:url(#SVGID_00000176723946345333057610000010316785813448284323_);}
	.st10{fill:url(#SVGID_00000027588137937496513860000012295475342055408273_);}
	.st11{fill:url(#SVGID_00000024697152223045532360000011311268322348670362_);}
	.st12{fill:#DEDDDA;}
	.st13{fill:#C0BFBC;}
	.st14{fill:#9A9996;}
	.st15{fill:url(#SVGID_00000155855050992503720880000015346116740987681664_);}
	.st16{mask:url(#q_00000017484493083678120980000002679859168726325157_);}
	.st17{fill:url(#SVGID_00000023981831056597406680000014494053542896717500_);}
	.st18{fill:url(#SVGID_00000142139022964868515340000013764614725962370716_);}
</style>
<filter  height="100%" id="a" width="100%" x="0%" y="0%">
	<feColorMatrix  in="SourceGraphic" type="matrix" values="0 0 0 0 1 0 0 0 0 1 0 0 0 0 1 0 0 0 1 0"></feColorMatrix>
</filter>
<g>
	<path class="st0" d="M201.2,253.5H241v159.1h-39.8V253.5z"/>
	
		<linearGradient id="SVGID_1_" gradientUnits="userSpaceOnUse" x1="1521.5133" y1="-1129.5184" x2="-263.4174" y2="-1129.5184" gradientTransform="matrix(0.1838 0 0 -0.1834 55.767 73.4379)">
		<stop  offset="0" style="stop-color:#9A9996"/>
		<stop  offset="3.571430e-02" style="stop-color:#F6F5F4"/>
		<stop  offset="0.1061" style="stop-color:#C0BFBC"/>
		<stop  offset="0.8939" style="stop-color:#C0BFBC"/>
		<stop  offset="0.9394" style="stop-color:#DEDDDA"/>
		<stop  offset="1" style="stop-color:#9A9996"/>
	</linearGradient>
	<path class="st1" d="M41.6,77l182.3-27.8l106.6,109.8v323.1c0,17.2-9.6,29.8-25.8,29.8H41.6c-16.2,0-29.2-13.9-29.2-31.1V108.1
		C12.3,90.9,25.4,77,41.6,77z"/>
	
		<linearGradient id="SVGID_00000004525188417819599660000005475977619341643670_" gradientUnits="userSpaceOnUse" x1="-236.3729" y1="-671.1142" x2="1494.469" y2="-671.1142" gradientTransform="matrix(0.1838 0 0 -0.1834 55.767 73.4379)">
		<stop  offset="0" style="stop-color:#C0BFBC"/>
		<stop  offset="0.8955" style="stop-color:#C0BFBC"/>
		<stop  offset="0.9419" style="stop-color:#DEDDDA"/>
		<stop  offset="1" style="stop-color:#9A9996"/>
	</linearGradient>
	<path style="fill:url(#SVGID_00000004525188417819599660000005475977619341643670_);" d="M234.4,316.9h51.2v14.6h-51.2V316.9z
		 M234.4,280.4h51.2V295h-51.2V280.4z M234.4,244h51.2v14.6h-51.2V244z M234.4,207.5h51.2v14.6h-51.2V207.5z M234.4,171h51.2v14.6
		h-51.2V171z M66.3,134.5h219.3v14.6H66.3V134.5z M66.3,98.1h138.9v14.6H66.3V98.1z M66.3,61.6h138.9v14.6H66.3V61.6z"/>
	
		<linearGradient id="SVGID_00000072270120857039147320000012969458337053462693_" gradientUnits="userSpaceOnUse" x1="-236.3729" y1="2334.6917" x2="1494.469" y2="2334.6917" gradientTransform="matrix(0.1838 0 0 0.1834 55.767 -166.1282)">
		<stop  offset="0" style="stop-color:#C0BFBC"/>
		<stop  offset="0.8955" style="stop-color:#C0BFBC"/>
		<stop  offset="0.9419" style="stop-color:#DEDDDA"/>
		<stop  offset="1" style="stop-color:#9A9996"/>
	</linearGradient>
	<path style="fill:url(#SVGID_00000072270120857039147320000012969458337053462693_);" d="M66.3,353.4h153.5V170.9H66.3V353.4z"/>
	
		<linearGradient id="SVGID_00000000913397844114778320000005430802384345341625_" gradientUnits="userSpaceOnUse" x1="-236.3729" y1="2334.6917" x2="1494.469" y2="2334.6917" gradientTransform="matrix(0.1838 0 0 0.1834 55.767 -166.1282)">
		<stop  offset="0" style="stop-color:#C0BFBC"/>
		<stop  offset="0.8955" style="stop-color:#C0BFBC"/>
		<stop  offset="0.9419" style="stop-color:#DEDDDA"/>
		<stop  offset="1" style="stop-color:#9A9996"/>
	</linearGradient>
	<path style="fill:url(#SVGID_00000000913397844114778320000005430802384345341625_);" d="M66.3,353.4h153.5V170.9H66.3V353.4z"/>
	<g>
		<defs>
			<filter id="Adobe_OpacityMaskFilter" filterUnits="userSpaceOnUse" x="12.3" y="422.5" width="318.1" height="45.7">
				<feColorMatrix  type="matrix" values="1 0 0 0 0  0 1 0 0 0  0 0 1 0 0  0 0 0 1 0"/>
			</filter>
		</defs>
		
			<mask maskUnits="userSpaceOnUse" x="12.3" y="422.5" width="318.1" height="45.7" id="k_00000108284265726524986450000011440074620691340978_">
			<g class="st5">
				<g>
					<rect x="192" y="192" class="st6" width="128" height="128"/>
				</g>
			</g>
		</mask>
		<g transform="matrix(1 0 0 1 -8 -16)" class="st7">
			
				<radialGradient id="SVGID_00000179644239340942988790000007148295592227318951_" cx="225.3092" cy="-870.5895" r="159.068" gradientTransform="matrix(1.3125 -3.125010e-02 -9.670130e-03 -0.4061 -5.4476 136.7264)" gradientUnits="userSpaceOnUse">
				<stop  offset="0" style="stop-color:#000000"/>
				<stop  offset="1" style="stop-color:#000000;stop-opacity:0"/>
			</radialGradient>
			<path style="fill:url(#SVGID_00000179644239340942988790000007148295592227318951_);" d="M47.2,483.5c-9.9-2-21.4-1.6-24.2-10.8
				c-0.9-2.9-2.7-6.2-2.7-20.4l0-6.5l3.6,11.6c2,6.6,10.2,11.3,17.3,13.2c7.2,1.9,272.1,1.9,277.9-0.1c6.8-2.3,11.8-6.8,15.4-13.8
				l4-18.3v24.9c-3.2,12.8-8.7,16.7-17.3,20.7l-134.8,0.2c-71.6,0.1-132.5-0.2-138.7-0.7C47.4,483.6,47.3,483.5,47.2,483.5z"/>
		</g>
	</g>
	
		<linearGradient id="SVGID_00000054257687706189530450000001214865263515951027_" gradientUnits="userSpaceOnUse" x1="-236.3729" y1="-671.1142" x2="1494.469" y2="-671.1142" gradientTransform="matrix(0.1838 0 0 -0.1834 55.767 73.4379)">
		<stop  offset="0" style="stop-color:#000000"/>
		<stop  offset="1" style="stop-color:#000000;stop-opacity:0"/>
	</linearGradient>
	<path style="fill:url(#SVGID_00000054257687706189530450000001214865263515951027_);" d="M234.4,316.9h51.2v14.6h-51.2V316.9z
		 M234.4,280.4h51.2V295h-51.2V280.4z M234.4,244h51.2v14.6h-51.2V244z M234.4,207.5h51.2v14.6h-51.2V207.5z M234.4,171h51.2v14.6
		h-51.2V171z M66.3,134.5h219.3v14.6H66.3V134.5z M66.3,98.1h138.9v14.6H66.3V98.1z M66.3,61.6h138.9v14.6H66.3V61.6z"/>
	
		<linearGradient id="SVGID_00000013890647872592503120000016558041328063640469_" gradientUnits="userSpaceOnUse" x1="-236.3729" y1="2334.6917" x2="1494.469" y2="2334.6917" gradientTransform="matrix(0.1838 0 0 0.1834 55.767 -166.1282)">
		<stop  offset="0" style="stop-color:#000000"/>
		<stop  offset="1" style="stop-color:#000000;stop-opacity:0"/>
	</linearGradient>
	<path style="fill:url(#SVGID_00000013890647872592503120000016558041328063640469_);" d="M66.3,353.4h153.5V170.9H66.3V353.4z"/>
	
		<linearGradient id="SVGID_00000004506930352800559790000008659505925452100779_" gradientUnits="userSpaceOnUse" x1="-236.3729" y1="2334.6917" x2="1494.469" y2="2334.6917" gradientTransform="matrix(0.1838 0 0 0.1834 55.767 -166.1282)">
		<stop  offset="0" style="stop-color:#000000"/>
		<stop  offset="1" style="stop-color:#000000;stop-opacity:0"/>
	</linearGradient>
	<path style="fill:url(#SVGID_00000004506930352800559790000008659505925452100779_);" d="M66.3,353.4h153.5V170.9H66.3V353.4z"/>
	<path class="st12" d="M223.9,49.3v80.3c0,16.2,13.2,28.9,29.3,28.9l80.3,0L223.9,49.3z"/>
	<path class="st12" d="M41.5,49.3h182.4l106.6,109.8v268.4c0,16.2-10.2,30.3-26.3,30.3H41.5c-16.2,0-29.2-13-29.2-29.2V78.4
		C12.3,62.3,25.3,49.3,41.5,49.3z"/>
	<path class="st13" d="M62,382.8h109.4v19.9H62V382.8z"/>
	<path class="st13" d="M62,343h238.6v19.9H62V343z"/>
	<path class="st13" d="M62,303.2h238.6v19.9H62V303.2z"/>
	<path class="st14" d="M181.3,193.9h79.5v19.9h-79.5V193.9z"/>
	<path class="st13" d="M62,94.4h109.4v19.9H62V94.4z"/>
	<path class="st13" d="M62,134.2h119.3v19.9H62V134.2z"/>
	<path class="st14" d="M181.3,233.6h109.4v19.9H181.3V233.6z"/>
	<path class="st0" d="M207.7,0c-16.2,0-26.4,13.7-26.4,29.8v382.8h29.8V253.5H241v119.3h29.8V253.5h29.8v59.7h29.8v-59.7h24.9v159.1
		h29.8V253.5H410v188.9h29.8V253.5h29.8v159.1h29.8V253.5l0.2-144.4L390.1,0H207.7z"/>
	<path class="st12" d="M390.1,0v80.2c0,16.2,13.2,28.9,29.3,28.9l80.2,0L390.1,0z"/>
	<path class="st0" d="M410,253.5h29.8v159.1H410V253.5z"/>
	
		<linearGradient id="SVGID_00000083047515832390970400000015322467841010903468_" gradientUnits="userSpaceOnUse" x1="62.0291" y1="340.0194" x2="161.4466" y2="270.4272" gradientTransform="matrix(1 0 0 -1 0 514)">
		<stop  offset="0" style="stop-color:#9141AC"/>
		<stop  offset="1" style="stop-color:#1C71D8"/>
	</linearGradient>
	<path style="fill:url(#SVGID_00000083047515832390970400000015322467841010903468_);" d="M62,174h99.4v69.6H62V174z"/>
	<g>
		<path class="st13" d="M221.1,34.8h109.4v19.9H221.1V34.8z"/>
		<path class="st13" d="M221.1,74.6h129.2v19.9H221.1V74.6z"/>
		<path class="st13" d="M340.4,164h119.3v19.9H340.4V164z"/>
		<path class="st13" d="M340.4,124.3h79.5v19.9h-79.5V124.3z"/>
		<path class="st13" d="M62,263.5h119.3v19.9H62V263.5z"/>
		<path class="st13" d="M221.1,203.8h238.6v19.9H221.1V203.8z"/>
	</g>
	<g>
		<defs>
			
				<filter id="Adobe_OpacityMaskFilter_00000119804471159932097450000015969052371896999095_" filterUnits="userSpaceOnUse" x="12.3" y="442.4" width="318.1" height="45.7">
				<feColorMatrix  type="matrix" values="1 0 0 0 0  0 1 0 0 0  0 0 1 0 0  0 0 0 1 0"/>
			</filter>
		</defs>
		
			<mask maskUnits="userSpaceOnUse" x="12.3" y="442.4" width="318.1" height="45.7" id="q_00000017484493083678120980000002679859168726325157_">
			<g class="st5">
				<g>
					<rect x="192" y="192" class="st6" width="128" height="128"/>
				</g>
			</g>
		</mask>
		<g transform="matrix(1 0 0 1 -8 -16)" class="st16">
			
				<radialGradient id="SVGID_00000090257184123351409290000005576101364732815284_" cx="225.0213" cy="-909.6763" r="159.068" gradientTransform="matrix(1.3125 -3.125010e-02 -9.670130e-03 -0.4061 -5.4476 140.7264)" gradientUnits="userSpaceOnUse">
				<stop  offset="0" style="stop-color:#000000"/>
				<stop  offset="1" style="stop-color:#000000;stop-opacity:0"/>
			</radialGradient>
			<path style="fill:url(#SVGID_00000090257184123351409290000005576101364732815284_);" d="M47.2,503.4c-9.9-2-21.4-1.6-24.2-10.8
				c-0.9-2.9-2.7-6.2-2.7-20.4l0-6.5l3.6,11.6c2,6.6,10.2,11.3,17.3,13.2c7.2,1.9,266.3,3.1,272.4,2.6c9.2-0.8,18.5-6,20.8-16.5
				l4-18.3v24.9c-3.2,12.8-8.7,16.7-17.3,20.7l-134.8,0.2c-71.6,0.1-132.5-0.2-138.7-0.7C47.4,503.4,47.3,503.4,47.2,503.4z"/>
		</g>
	</g>
	<path class="st13" d="M410,422.5h29.8v19.9H410V422.5z"/>
	<path class="st13" d="M469.6,392.7h29.8v19.9h-29.8V392.7z"/>
	<path class="st13" d="M355.3,392.7h29.8v19.9h-29.8V392.7z"/>
	<path class="st13" d="M300.6,293.3h29.8v19.9h-29.8V293.3z"/>
	<path class="st13" d="M241,352.9h29.8v19.9H241V352.9z"/>
	<path class="st13" d="M181.3,392.7h29.8v19.9h-29.8V392.7z"/>
	
		<linearGradient id="SVGID_00000053542024090613280210000017558487748073690262_" gradientUnits="userSpaceOnUse" x1="221.0971" y1="399.6699" x2="320.5146" y2="330.0777" gradientTransform="matrix(1 0 0 -1 0 514)">
		<stop  offset="0" style="stop-color:#C061CB"/>
		<stop  offset="1" style="stop-color:#3584E4"/>
	</linearGradient>
	<path style="fill:url(#SVGID_00000053542024090613280210000017558487748073690262_);" d="M221.1,114.3h99.4v69.6h-99.4V114.3z"/>
</g>
</svg>
