<svg xmlns="http://www.w3.org/2000/svg" width="560" height="560" fill="none"><path fill="#4F43DD" d="M221.556 440.815a14.2 14.2 0 0 0 1.201 5.679 14.2 14.2 0 0 0 8.343 7.714 14.2 14.2 0 0 0 5.754.751c74.087-5.304 144.059-57.735 166.398-139.627 1.174-4.71 4.708-7.072 9.417-7.072a9.18 9.18 0 0 1 8.808 9.434c0 18.259-23.471 65.98-57.035 93.674a14.85 14.85 0 0 0-3.99 5.286 14.85 14.85 0 0 0-1.298 6.495 13.81 13.81 0 0 0 8.794 12.612 13.8 13.8 0 0 0 5.316.938c2.941 0 7.649-1.768 13.531-7.072C410.266 408.412 455 348.909 455 283.508 455 187.624 380.872 105 277.418 105c-92.312 0-172.28 75.414-172.28 162.611 0 57.734 45.866 101.326 106.422 101.326 46.459 0 89.385-32.984 101.148-78.357 1.173-4.71 4.694-7.072 9.402-7.072a9.2 9.2 0 0 1 8.823 9.434c0 20.622-38.811 92.542-117.606 92.542-18.818 0-42.331-5.304-58.803-14.738a17.8 17.8 0 0 0-7.055-1.768 13.597 13.597 0 0 0-14.11 14.144 14.115 14.115 0 0 0 7.055 11.782c21.759 12.43 47.633 18.853 74.087 18.853 65.858 0 125.834-44.779 143.479-110.76 1.174-4.71 4.708-7.071 9.403-7.071a9.195 9.195 0 0 1 8.822 9.433c0 27.1-48.213 114.296-141.118 121.368a14.62 14.62 0 0 0-9.462 4.453 14.63 14.63 0 0 0-4.069 9.635"/><path fill="#fff" d="M313.62 215.178a67 67 0 0 1 35.897 10.11 111.3 111.3 0 0 0 1.795-18.052c0-27.97-21.317-53.025-47.274-53.025-20.185 0-32.805 16.726-32.805 37.389a46.52 46.52 0 0 0 11.046 30.498 71.05 71.05 0 0 1 31.341-6.92"/><path fill="#352D8E" d="M374.439 316.505c3.603-12.32 5.191-20.87 5.191-26.422a9.346 9.346 0 0 0-9.305-8.923 10.02 10.02 0 0 0-9.582 7.776c-.981 4.047-3.079 15.014-5.15 21.976a139 139 0 0 0 2.347-7.942c1.174-4.724 4.708-7.072 9.402-7.072a9.18 9.18 0 0 1 8.823 9.42 43.5 43.5 0 0 1-1.809 11.201zM424.418 303.632a9.364 9.364 0 0 0-9.292-8.923 10.02 10.02 0 0 0-9.568 7.776c-.994 4.144-3.134 15.276-5.233 22.224h.097c1.022-3.094 1.974-6.229 2.761-9.42 1.174-4.724 4.708-7.072 9.416-7.072a9.17 9.17 0 0 1 8.809 9.42 38.4 38.4 0 0 1-1.201 8.688c2.927-10.276 4.211-17.707 4.211-22.693"/><path fill="#030615" d="M313.619 215.178a69.8 69.8 0 0 1 18.653 2.5 23.486 23.486 0 0 0-15.302-37.084 23.47 23.47 0 0 0-15.446 2.913l9.665 15.912-18.1-7.832a23.65 23.65 0 0 0 .828 26.16 74.6 74.6 0 0 1 19.702-2.569"/><path fill="#352D8E" d="M174.172 317.583c7.625 0 13.807-6.184 13.807-13.812s-6.182-13.812-13.807-13.812-13.807 6.184-13.807 13.812 6.182 13.812 13.807 13.812M174.172 262.335c7.625 0 13.807-6.184 13.807-13.812s-6.182-13.812-13.807-13.812-13.807 6.184-13.807 13.812 6.182 13.812 13.807 13.812M146.558 289.958c7.625 0 13.806-6.184 13.806-13.812s-6.181-13.812-13.806-13.812c-7.626 0-13.807 6.184-13.807 13.812s6.181 13.812 13.807 13.812"/><path fill="#352D8E" d="M208.688 368.91h2.762c46.459 0 89.385-32.983 101.148-78.356 1.173-4.71 4.694-7.072 9.402-7.072a9.2 9.2 0 0 1 6.345 2.907 9.2 9.2 0 0 1 2.478 6.527 39.6 39.6 0 0 1-3.217 13.992q.5-.774.87-1.616a63.3 63.3 0 0 0 5.301-25.332c0-13.55-9.416-22.389-22.933-22.389-23.568 0-28.29 20.58-38.23 42.583-10.314 22.845-29.257 47.555-77.028 47.555-49.635 0-100.637-34.765-88.197-105.456a63 63 0 0 0 .372-2.403A143 143 0 0 0 105 267.584c.138 56.907 44.582 100.001 103.688 101.326"/></svg>