<svg xmlns:rdf="http://www.w3.org/1999/02/22-rdf-syntax-ns#" xmlns:svg="http://www.w3.org/2000/svg" xmlns:cc="http://creativecommons.org/ns#" xmlns:dc="http://purl.org/dc/elements/1.1/" xmlns:sodipodi="http://sodipodi.sourceforge.net/DTD/sodipodi-0.dtd" xmlns:inkscape="http://www.inkscape.org/namespaces/inkscape" xmlns="http://www.w3.org/2000/svg" xmlns:xlink="http://www.w3.org/1999/xlink" version="1.1" id="svg974" sodipodi:docname="logo_pev2_2.svg" x="0px" y="0px" style="enable-background:new 0 0 512 512;" xml:space="preserve" viewBox="25.74 0.03 460.5 511.95">
<style type="text/css">
	.st0{fill:#774B85;}
	.st1{fill:#FFFFFF;}
	.st2{fill:#AB90B4;}
</style>
<sodipodi:namedview bordercolor="#666666" borderopacity="1.0" fit-margin-bottom="0" fit-margin-left="0" fit-margin-right="0" fit-margin-top="0" id="base" inkscape:current-layer="layer1" inkscape:cx="141.17157" inkscape:cy="139.52042" inkscape:document-units="mm" inkscape:pageopacity="0.0" inkscape:pageshadow="2" inkscape:window-height="1385" inkscape:window-maximized="1" inkscape:window-width="2560" inkscape:window-x="0" inkscape:window-y="0" inkscape:zoom="2.8" pagecolor="#ffffff" showgrid="false" showguides="true">
	</sodipodi:namedview>
<g>
	<g id="layer1" transform="translate(-464.65567,15.775256)" inkscape:groupmode="layer" inkscape:label="Calque 1">
		<path id="path1916" class="st0" d="M720.7,496.2c-11,0-21.9-2.9-31.5-8.4l-167.3-96.6c-19.4-11.3-31.4-32-31.5-54.4V143.5    c0-22.5,12-43.2,31.5-54.4L689.2-7.5c19.5-11,43.4-11,62.9,0l167.3,96.6c19.4,11.3,31.4,32,31.5,54.4v193.2    c0,22.4-12,43.2-31.5,54.4l-167.2,96.6C742.6,493.3,731.7,496.2,720.7,496.2"/>
		<path id="path2" class="st1" d="M720.7,16.8c-5.3,0-10.5,1.4-15.1,4.1l-167.3,96.5c-9.3,5.4-15.1,15.3-15.1,26.1v193.2    c0,10.8,5.8,20.7,15.1,26.1l167.3,96.6c9.3,5.3,20.8,5.3,30.1,0l167.3-96.6c9.3-5.4,15.1-15.3,15.1-26.1V143.5    c0-10.8-5.8-20.7-15.1-26.1L735.8,20.8C731.2,18.2,726,16.7,720.7,16.8"/>
	</g>
	<g id="layer10" inkscape:groupmode="layer" inkscape:label="Calque 7">
		<path id="path1881" inkscape:connector-curvature="0" class="st2" d="M228.8,113.1c-9,0-16.3,7.3-16.3,16.3v54.4    c0,9,7.3,16.3,16.3,16.3h16.3v32.6h-87c-11.9,0-21.8,9.9-21.8,21.8v32.6H120c-9,0-16.3,7.3-16.3,16.3V358c0,9,7.3,16.3,16.3,16.3    h54.4c9,0,16.3-7.3,16.3-16.3v-54.4c0-9-7.3-16.3-16.3-16.3h-16.3v-32.6h87v32.6h-16.3c-9,0-16.3,7.3-16.3,16.3V358    c0,9,7.3,16.3,16.3,16.3h54.4c9,0,16.3-7.3,16.3-16.3v-54.4c0-9-7.3-16.3-16.3-16.3h-16.3v-32.6h87v32.6h-16.3    c-9,0-16.3,7.3-16.3,16.3V358c0,9,7.3,16.3,16.3,16.3H392c9,0,16.3-7.3,16.3-16.3v-54.4c0-9-7.3-16.3-16.3-16.3h-16.3v-32.6    c0-11.9-9.9-21.8-21.8-21.8h-87v-32.6h16.3c9,0,16.3-7.3,16.3-16.3v-54.4c0-9-7.3-16.3-16.3-16.3H228.8z"/>
	</g>
	<g id="layer9" inkscape:groupmode="layer" inkscape:label="Calque 6">
		<path id="path1877-9" inkscape:connector-curvature="0" class="st0" d="M375.7,287.2h-21.8h-16.3c-9,0-16.3,7.3-16.3,16.3V358    c0,9,7.3,16.3,16.3,16.3H392c9,0,16.3-7.3,16.3-16.3v-54.4c0-9-7.3-16.3-16.3-16.3H375.7z"/>
	</g>
</g>
</svg>