<?xml version="1.0" encoding="utf-8"?>
<!-- Generator: Adobe Illustrator 24.0.3, SVG Export Plug-In . SVG Version: 6.00 Build 0)  -->
<svg version="1.1" id="Layer_1" xmlns="http://www.w3.org/2000/svg" xmlns:xlink="http://www.w3.org/1999/xlink" x="0px" y="0px"
	 viewBox="0 0 300 300" style="enable-background:new 0 0 300 300;" xml:space="preserve">
<style type="text/css">
	.st0{fill:#632CA6;}
</style>
<g>
	<path class="st0" d="M118.1,79.1c10.3-7,23.7-4.3,21.4-2.2c-4.2,4,1.4,2.9,2,10.3c0.4,5.5-1.4,8.5-2.9,10.3
		c-3.2,0.4-7.1,1.2-11.9,2.7c-2.8,0.9-5.2,1.9-7.4,2.9c-0.6-0.4-1.2-0.8-1.9-1.4C110.2,95.4,110.4,84.3,118.1,79.1 M179.8,122.6
		c1.9-1.4,10.4-4.2,18.3-5.1c4.1-0.5,10.1-0.8,11.3-0.1c2.5,1.4,2.5,5.6,0.8,9.6c-2.5,5.8-6,12.1-10,12.6
		c-6.5,0.9-12.7-2.7-19.7-7.9C178,129.8,176.4,125.2,179.8,122.6 M191.7,66.8c9.6,4.5,8.4,13,8.6,18c0.1,1.4,0.1,2.4-0.1,3.1
		c-1.3-0.7-3.4-1.3-6.8-1.1c-1,0-1.9,0.2-2.9,0.3c-3.6-1.9-5.7-5.6-7.6-9.6c-0.2-0.4-0.3-0.7-0.5-1c0-0.1-0.1-0.3-0.2-0.4
		c0-0.1,0-0.1-0.1-0.2c-1.1-3.4-0.4-4.1,0.1-5.1c0.5-1.1,2.2-1.9-0.4-2.8c-0.2-0.1-0.5-0.1-0.8-0.2C183,65.6,188.1,65.1,191.7,66.8
		 M139.2,168.6c-10.4-6.7-21.1-16.2-25.8-21.5c-0.8-0.6-0.7-3.2-0.7-3.2c4.2,3.3,21.8,15.8,40.4,21.6c6.5,2,16.6,2.8,25.3-2.2
		c6.7-3.8,14.7-10.4,19.5-17.1l0.9,1.5c0,1-2.2,5.9-3.4,7.9c2,1.2,3.5,1.5,5.8,2.1l15.4-2.4c5.5-8.9,9.5-23.3,5.3-37
		c-2.4-7.8-15-23.5-15.8-24.3c-3.2-3,0.5-14.7-5.7-27.5C193.7,53,176.5,38.9,169,32.8c2.2,1.6,15.8,7.1,22.1,14.7
		c0.6-0.8,0.8-4.9,1.4-5.9c-5.4-7.1-5.9-19.8-5.9-23.1c0-6.2-3.2-13.2-3.2-13.2s5.4,4.3,6.8,11.7c1.7,8.8,5.2,15.7,9.9,21.5
		C209,49.4,217,55,221,51c4.8-4.9-4.9-26.8-17.3-39c-14.5-14.2-18.3-12.4-26.8-9.4c-6.8,2.4-10.5,21.7-28.2,21.3
		c-3-0.3-10.7-0.5-14.5-0.5c2-2.8,3.7-4.9,3.7-4.9s-5.9,2.4-11,5.4l-0.4-0.6c1.7-3.6,3.5-5.9,3.5-5.9s-4.7,2.9-9.1,6.3
		c0.8-4.3,3.8-7,3.8-7s-6,1.1-13.6,9.5c-8.7,2.4-10.8,3.9-17.7,7c-11.2-2.5-16.5-6.4-21.6-13.7C68,13.9,61.1,13.1,54.1,16
		C43.9,20.2,31,26,31,26s4.2-0.2,8.6,0c-6,2.3-11.8,5.4-11.8,5.4s2.8-0.1,6.3,0c-2.4,2-3.7,2.9-6,4.4c-5.5,4-9.9,8.6-9.9,8.6
		s3.7-1.7,7.1-2.6c-2.3,5.4-7,9.3-6.1,15.9c0.8,6,8.2,18.3,17.7,25.9c0.8,0.7,13.8,12.7,23.6,7.7c9.8-4.9,13.6-9.3,15.2-16
		c1.9-7.7,0.8-13.6-3.2-30.3c-1.3-5.5-4.8-16.9-6.5-22.4l0.4-0.3C69.5,29,77.7,46.8,81,58.8c5.2,18.7,3.5,28.1,1.2,31.6
		c-7.1,10.5-25.3,11.8-33.6,6c-1.3,20.1,3.2,28.9,4.7,33.4c-0.8,5.1,2.6,14.6,2.6,14.6s0.4-4.3,1.9-6.6c0.4,5.1,3,11.1,3,11.1
		s-0.2-3.7,1-6.9c1.6,2.8,2.9,3.4,4.4,5.5c1.5,5.4,4.7,9.4,4.7,9.4s-0.5-2.9-0.2-5.9c7.6,7.3,8.9,18,9.7,26.1
		c2.1,22.5-35.5,40.4-42.8,54.5c-5.5,8.3-8.8,21.5,0.5,29.3c22.6,18.8,13.9,23.9,25.2,32.2c15.5,11.3,35,6.2,41.6-3
		c9.2-12.8,6.8-24.9,3.4-36.2c-2.7-8.9-9.9-23.6-18.9-29.2c-9.2-5.8-18.1-6.9-25.7-6.1l0.7-0.8c10.9-2.2,22.3-1,30.5,4.3
		c9.3,6,17.9,16.3,22.4,32.1c5.1-0.7,5.8-1.1,10.4-1.7L117.2,171L139.2,168.6z M145.3,270.5l-1.2-11.3l23.5-35.8l26.7,7.8l22.9-38.3
		l27.5,18.1l20.9-43.8L273,247L145.3,270.5z M273.3,150.9l-84,15.2c-2.1,2.7-7.2,7.4-9.7,8.6c-10.6,5.3-17.8,3.8-24,2.2
		c-4-1-6.3-1.6-9.6-3.1l-20.5,2.8L138,280.4l143.8-25.9L273.3,150.9z"/>
</g>
</svg>
