<svg xmlns:sodipodi="http://sodipodi.sourceforge.net/DTD/sodipodi-0.dtd" xmlns:dc="http://purl.org/dc/elements/1.1/" xmlns:inkscape="http://www.inkscape.org/namespaces/inkscape" xmlns:cc="http://web.resource.org/cc/" xmlns:rdf="http://www.w3.org/1999/02/22-rdf-syntax-ns#" xmlns:svg="http://www.w3.org/2000/svg" xmlns="http://www.w3.org/2000/svg" xmlns:xlink="http://www.w3.org/1999/xlink" version="1.1" id="svg2" inkscape:output_extension="org.inkscape.output.svg.inkscape" sodipodi:docbase="/home/andrew/projects/rscds/docs/website/images" sodipodi:docname="davical_logo.svg" x="0px" y="0px" style="enable-background:new 0 0 512 512;" xml:space="preserve" viewBox="53.57 0 404.54 512.03">
<style type="text/css">
	.st0{fill:#BE1E1D;}
</style>
<sodipodi:namedview bordercolor="#666666" borderlayer="false" borderopacity="1.0" gridtolerance="10000" guidetolerance="10" height="260px" id="base" inkscape:current-layer="layer1" inkscape:cx="186.53159" inkscape:cy="91.978333" inkscape:document-units="px" inkscape:pageopacity="0.0" inkscape:pageshadow="2" inkscape:showpageshadow="false" inkscape:window-height="964" inkscape:window-width="1400" inkscape:window-x="0" inkscape:window-y="16" inkscape:zoom="1.4" objecttolerance="10" pagecolor="#ffffff" showborder="false" width="260px">
	</sodipodi:namedview>
<g>
	<path class="st0" d="M201.1,350.5c0-2.2-5.7-8.8-12.7-14.7c-36-30.3-61.9-84.3-61.9-129c0-26.9,1-29.8,14.9-43.7   c11.4-10.9,24.6-16,41.2-20.1c12.8-3.2,11.4-2.6,3.7,27.7c-3.8,14.9-6.4,28-5.1,29.3c1.3,1.3,13.5-9.9,27.1-24.9   c25.9-28.6,64.5-58.6,87.2-64.9c25.3-7.1,25-11.7,0-20.3C272.6,82,237,56.2,209.8,26.5c-14.5-15.8-27.4-27.7-28.8-26.4   c-1.3,1.3,0.7,14.3,4.4,28.7c8.3,31.9,8.5,34.8,1.3,35.5c-9.4,1-39.7,5.2-61.4,13.7c-91.3,36-96,131.2-10.9,222.2   C149.2,337.3,201.1,367.4,201.1,350.5z"/>
	<path class="st0" d="M318.9,157.1c-11.9,0-10.3,3.4,13.9,29c46.4,49,67.7,126.1,43.4,157c-11.7,17.4-29.4,22.5-46.5,25.3   c-17.1,2.8-11.8,0.1-4.1-27.5c4.1-14.8,6.4-27.9,5.2-29.2c-1.3-1.3-14.7,11.2-29.8,27.6c-27.7,30.2-60.5,53.9-84.6,62.2   c-27,9.3-26.5,11-3.5,20.2c22.1,8.9,63.8,35.1,89.2,63.7c24.4,27.4,33,33.2,28.9,19.5c-12.9-43.2-17.3-53.9-1.3-56   c19.1-2.5,58.1-13.4,77.9-25.3c70-42,67-126.1-7.5-209.1C377.3,188.9,332.2,157.1,318.9,157.1z"/>
</g>
</svg>