<svg xmlns="http://www.w3.org/2000/svg" xmlns:xlink="http://www.w3.org/1999/xlink" version="1.1" id="Layer_1" x="0px" y="0px" style="enable-background:new 0 0 512 512;" xml:space="preserve" viewBox="94.2 0.12 323.76 511.98">
<style type="text/css">
	.st0{fill:#508AC7;}
	.st1{fill:#487BB6;}
	.st2{fill:#47739E;}
	.st3{fill:#436E99;}
	.st4{fill:#4E7CA8;}
	.st5{fill:#5789B8;}
	.st6{fill:#4176BE;}
	.st7{fill:#5583AD;}
	.st8{fill:#4076BE;}
	.st9{fill:#5883AA;}
	.st10{fill:#4E79A3;}
	.st11{fill:#9BB5CD;}
	.st12{fill:#4774A1;}
	.st13{fill:#4A78A6;}
	.st14{fill:#4776A2;}
	.st15{fill:#4E7FAE;}
	.st16{fill:#4375AE;}
	.st17{fill:#527CA4;}
	.st18{fill:#416D98;}
	.st19{fill:#9EB7CC;}
	.st20{fill:#B0C8DE;}
	.st21{fill:#C8D5E1;}
	.st22{fill:#4978A5;}
	.st23{fill:#5283B0;}
	.st24{fill:#BDCEDD;}
	.st25{fill:#49759F;}
	.st26{fill:#4F779E;}
	.st27{fill:#BFCEDC;}
	.st28{fill:#4F7AA4;}
	.st29{fill:#D7E1EB;}
	.st30{fill:#7899B7;}
	.st31{fill:#608BB2;}
	.st32{fill:#C6D7E6;}
	.st33{fill:#6E90AE;}
	.st34{fill:#45719A;}
	.st35{fill:#7999B5;}
	.st36{fill:#44729E;}
	.st37{fill:#78A1C7;}
	.st38{fill:#436F99;}
	.st39{fill:#426F99;}
	.st40{fill:#4F81B2;}
	.st41{fill:#D1DDE9;}
	.st42{fill:#DDE7F1;}
	.st43{fill:#C8D8E6;}
	.st44{fill:#87A3BD;}
	.st45{fill:#C8D5E2;}
	.st46{fill:#C9D6E2;}
	.st47{fill:#B2C5D6;}
	.st48{fill:#DEE8F1;}
	.st49{fill:#6085A7;}
	.st50{fill:#5D91C2;}
	.st51{fill:#4879A6;}
	.st52{fill:#44709B;}
	.st53{fill:#8FAECB;}
	.st54{fill:#AEC1D3;}
	.st55{fill:#5588BA;}
	.st56{fill:#8EADC9;}
	.st57{fill:#D1DEEA;}
	.st58{fill:#A7BBCF;}
	.st59{fill:#CEDAE6;}
	.st60{fill:#A5BACD;}
	.st61{fill:#818CDF;}
	.st62{fill:#83A4C2;}
	.st63{fill:#B7CCDF;}
	.st64{fill:#D2D7EF;}
	.st65{fill:#4376AE;}
	.st66{fill:#A2BBD1;}
	.st67{fill:#A8BFD3;}
	.st68{fill:#5980A3;}
	.st69{fill:#688FB2;}
	.st70{fill:#48739C;}
	.st71{fill:#C2D4E4;}
	.st72{fill:#87ABCB;}
	.st73{fill:#D6E0E9;}
	.st74{fill:#DEE4F5;}
	.st75{fill:#C6D8E7;}
	.st76{fill:#E2E9EF;}
	.st77{fill:#AFC2D3;}
	.st78{fill:#6A8EAF;}
	.st79{fill:#9AB2C8;}
	.st80{fill:#D0DCE5;}
	.st81{fill:#6387A8;}
	.st82{fill:#7CA0C0;}
	.st83{fill:#A9BDD0;}
	.st84{fill:#88A4BD;}
	.st85{fill:#DAE3EC;}
	.st86{fill:#6B8FB1;}
	.st87{fill:#86A9C9;}
	.st88{fill:#7B9FC0;}
	.st89{fill:#6689AA;}
	.st90{fill:#4D81BC;}
	.st91{fill:#90B2D0;}
	.st92{fill:#819FB9;}
	.st93{fill:#B4CADD;}
	.st94{fill:#4F82B4;}
	.st95{fill:#C4D6E4;}
	.st96{fill:#E6EDF5;}
	.st97{fill:#D8E1EA;}
	.st98{fill:#7394B1;}
	.st99{fill:#EAEFF5;}
	.st100{fill:#8CABC8;}
	.st101{fill:#719CC2;}
	.st102{fill:#7898B4;}
	.st103{fill:#668AAA;}
	.st104{fill:#7697B4;}
</style>
<g>
	<path class="st0" d="M303.4,237.8c0-2,0-3.9,0-5.9c0-3.1,0-6.2-0.1-9.3c0-2,0-4,0-6.1c0-1,0-1.9,0-2.9c0-3.2-0.1-6.3-0.2-9.5   c-1.5-1.4-1.5-1.4-2.3-4c-0.4-1.1-0.7-2.2-1.1-3.3c-0.5-1.7-0.5-1.7-1.1-3.3c-0.3-0.9-0.5-1.7-0.8-2.5c-0.9,0-1.8,0-2.6,0   c0-5.3,0-5.3-3.1-9.1c-1.2-1.3-2.3-2.7-3.4-4c-1.7-4.2-2.8-6.8-5.7-10.3c-1.9-2.1-3.5-4.1-4.9-6.6c-1.2-2.3-2.5-4.5-3.8-6.7   c-1.3-0.4-2.6-0.9-3.9-1.3c0-0.9,0-1.8,0-2.6c-2.7-1.8-2.7-1.8-6.6-3.9c-3.2-1.6-6.3-3.2-9.2-5.3c-3.4-4.7-4.3-6.3-10.1-7.9   c-3.2-0.6-5.4-1.2-8.2-2.8c-7.2-4.7-13.1-5.9-21.6-6.2c-1.5,0-3,0-4.4,0c-12.6-0.3-27.2-2.1-38.9,3.1c-3.5,2.3-3.5,2.3-8.5,2.9   c-1.4,0.1-2.7,0.3-4.1,0.4c-0.4,1.3-0.9,2.6-1.3,3.9c-7.9,0-12.8,4-18.4,9.2c-2.2,2.2-4.3,4.4-6.6,6.6c-1.3,0.4-2.6,0.9-3.9,1.3   c-0.4,0.9-0.9,1.8-1.3,2.6c-3.4,1.5-5,2.1-6.9,5.4c-0.3,0.8-0.7,1.6-1,2.5c-0.9,0-1.8,0-2.6,0c-2.7,3-4,5.4-5.3,9.2   c-0.4,1.3-0.9,2.6-1.3,3.9c-2.6,3.5-4.7,6.7-6.5,10.7c-0.9,2.1-1.8,4.3-2.7,6.4c-4.5,9.1-5.9,16.7-5.8,26.8c0,1.6,0.1,3.2,0.1,4.8   c0,5.7,0,11.3,0.4,17c1.6,1.3,1.6,1.3,1.8,4.1c1,6.5,2.2,12.4,4.7,18.5c1.3,3,2.5,5.9,3.5,9c0.6,2.2,1.2,4.3,1.8,6.5   c0.9,1.3,1.8,2.6,2.6,3.9c1.2,3,2.4,6.1,3.9,9c1.9,3.6,3.7,6.8,4.4,10.8c0.4,4.9,0.8,7.7,3.4,11.9c2.9,3.7,2.9,3.7,4.2,8.1   c0.6,1.8,0.6,1.8,1.1,3.5c0.9,0.4,1.8,0.9,2.6,1.3c2,6.6,4.9,11.9,8.5,17.8c0.7,1.1,1.4,2.2,2,3.2c1.3,2.2,2.6,4.4,3.9,6.6   c3.7,5.4,6.8,9.8,7.6,16.4c0.1,1.6,0.2,3.1,0.2,4.6c0.9,0,1.8,0,2.6,0c0.5,3.9,0.5,3.9,1.3,7.9c0.9,0.4,1.8,0.9,2.6,1.3   c0.4,1.3,0.9,2.6,1.3,3.9c0.9,0.4,1.8,0.9,2.6,1.3c0.4,2.2,0.9,4.4,1.3,6.6c0.9,0.4,1.8,0.9,2.6,1.3c0.8,2.4,0.8,2.4,1.2,5.3   c0.5,2.9,0.5,2.9,1.4,5.3c1.3,0.4,2.6,0.9,3.9,1.3c0.4,0.9,0.9,1.8,1.3,2.6c1,3.6,2.1,7,4,10.2c4.4,6.7,7.5,13.5,10.5,20.9   c0.6,1.6,0.6,1.6,1.2,3.1c1.3,0,2.6,0,3.9,0c0.7,3.3,0.7,3.3,1.3,6.6c2.2,0,4.4,0,6.6,0c1.3-2.7,2.6-5.3,3.9-7.9   c3.1-4.7,6-9.3,8.7-14.2c1-1.9,2-3.7,3.1-5.5c0.9-0.4,1.8-0.9,2.6-1.3c0.4-1.6,0.9-3.1,1.3-4.6c0.4-1.6,0.9-3.1,1.3-4.6   c0.9-0.4,1.8-0.9,2.6-1.3c0.2-1.1,0.4-2.2,0.7-3.3c0.2-1.1,0.4-2.2,0.7-3.3c0.9-0.4,1.8-0.9,2.6-1.3c0.8-4.4,1.6-7.1,3.9-11.1   c1.3-2.1,1.3-2.1,2.7-4.7c1.4-4.1,2.7-8.1,4.5-12c0.7-1.4,1.4-2.8,2.1-4.1c1.2-2.5,2.5-5,3.9-7.5c0.9-0.4,1.8-0.9,2.6-1.3   c0.2-1.1,0.4-2.1,0.7-3.2c0.2-1.1,0.4-2.3,0.7-3.4c5.4-5.4,8.5-13.3,10.6-20.5c2.1-7.4,5.7-13.8,9.8-20.3c2.1-3.2,4-6.4,5.9-9.8   c1.4-2.5,2.8-4.9,4.3-7.2c2.7-4.1,4.8-7.7,6.4-12.4c0.4-1.1,0.7-2.3,1.1-3.4c1.3-0.7,1.3-0.7,2.6-1.3c0.3-1.4,0.5-2.7,0.8-4   c0.2-1.9,0.2-1.9,0.5-3.9c0.9,0,1.8,0,2.6,0c0.1-1.5,0.1-1.5,0.2-3.1c0.1-1.4,0.2-2.7,0.3-4c0.2-3.9,0.2-3.9,0.8-7.4   c2.6-2.6,2.6-2.6,3.3-7.2c0.2-1.6,0.4-3.1,0.7-4.6c2.9-2.9,2.9-2.9,3-9.5C303.5,239.7,303.4,238.8,303.4,237.8z M230.9,237   c-2,4.9-4.4,9.2-7.9,13.1c-0.9,0-1.7,0-2.6,0c0,0.9,0,1.7,0,2.6c-6.7,5.9-12.7,6.3-21.4,6.2c-1.2,0-2.5,0-3.7,0   c-7.4-0.2-12.2-1-17.9-6.1c-4.2-4.7-4.2-4.7-4.2-8c-0.9,0-1.7,0-2.6,0c0-0.9,0-1.7,0-2.6c-0.9,0-1.7,0-2.6,0   c-3.4-5.1-3-10.5-3-16.4c0-1,0-2,0-3c0-7.5,0.9-11.1,5.9-16.6c1.2-1.1,2.4-2.2,3.6-3.4c1.2-1.1,2.4-2.3,3.6-3.4   c10.8-8.8,26.4-10,38.4-3.1c0.7,2,0.7,2,1.3,3.9c1.3,0.4,2.6,0.9,3.9,1.3c1.7,2.2,1.7,2.2,3.4,4.9c0.5,0.9,1.1,1.8,1.6,2.7   C231.6,218.3,232.2,226.8,230.9,237z"/>
	<path class="st1" d="M241.4,348.7c0.9,0,1.7,0,2.6,0c-2.6,5.3-2.6,5.3-3.9,7.6c-1.5,3.1-1.5,3.1-2.6,7.6c-1.3,4.4-1.3,4.4-3.9,7.1   c-0.2,0.9-0.4,1.8-0.7,2.7c-0.2,0.8-0.4,1.7-0.7,2.5c-0.9,0.4-1.7,0.9-2.6,1.3c-2.4,4.1-3.9,7.4-4.6,12.1c-0.7,4.1-1.4,5-4.6,7.6   c-0.9,0.9-1.9,1.9-2.9,2.9c-0.8,0.8-1.6,1.6-2.4,2.4c2.5-7.6,2.5-7.6,3.9-10.5c0.9,0,1.7,0,2.6,0c0.1-1.1,0.2-2.2,0.3-3.3   c0.8-3.8,1.6-6.1,3.3-9.5c0.7-1.4,0.7-1.4,1.4-2.8c0.5-0.9,1-1.9,1.5-2.9c0.9-1.8,1.8-3.7,2.7-5.5c1.3-2.7,1.3-2.7,2.7-5.4   c0.5-0.9,0.9-1.8,1.4-2.8C237,356,239,352.3,241.4,348.7z"/>
	<path class="st2" d="M292.6,192.4c0.4,0.8,0.7,1.5,1.1,2.3c1.4,2.9,1.4,2.9,3.2,5.5c6.8,11,5.7,23.1,4.9,35.6   c-0.4,0.4-0.9,0.9-1.3,1.3c-0.7,4.7-1.3,9.4-1.8,14.2c-0.8,4.2-0.8,4.2-3.4,6.9c-0.1,1.5-0.3,3-0.4,4.6c-0.6,6.1-3.1,10.5-5.9,15.8   c-1.4,2.9-2.2,5.2-2.8,8.4c-2,9.4-7.3,18.8-14.5,25c-0.9,0-1.7,0-2.6,0c0.1,1.2,0.2,2.4,0.2,3.7c-0.2,4.2-0.2,4.2-2,6.2   c-0.7,0.7-1.5,1.3-2.2,2c-2.6,4.6-4.3,9-5.7,14c-1.5,4.7-1.8,5.4-6.2,8.1c-1.3,0.5-2.5,1-3.9,1.5c-0.9,1.3-1.7,2.6-2.6,3.9   c-0.9,0.4-1.8,0.8-2.7,1.2c-2.8,1.2-2.8,1.2-3.5,4.2c-0.1,0.8-0.2,1.6-0.3,2.5c0.9-1.7,1.7-3.5,2.6-5.3c1.3,0,2.6,0,3.9,0   c0,2.2,0,4.3,0,6.6c-0.9,0.4-1.7,0.9-2.6,1.3c-0.2,1.1-0.4,2.2-0.7,3.3c-0.2,1.1-0.4,2.2-0.7,3.3c-0.9,0.4-1.7,0.9-2.6,1.3   c-0.9,4-0.9,4-1.3,7.9c-1.3,0-2.6,0-3.9,0c0.1,1.3,0.2,2.5,0.3,3.9c0,5.4-1.8,9.4-4.2,14.3c-1.5,2.9-1.5,2.9-2.7,6.2   c-1.4,3.3-2.9,5.8-5,8.7c-4.6,6.7-8.4,13.7-12.1,20.8c-0.9,0-1.7,0-2.6,0c-0.2,0.8-0.4,1.6-0.6,2.4c-0.6,2.3-1.3,4.6-2.1,6.8   c-1.3,0-2.6,0-3.9,0c-0.4,2.6-0.9,5.2-1.3,7.9c-1.3,0-2.6,0-3.9,0c-0.4-2.6-0.9-5.2-1.3-7.9c-0.9,0-1.7,0-2.6,0   c-1.5-5.6-1-10.1,0-15.8c2.2,2.2,4.4,4.4,6.6,6.6c0.4-0.9,0.9-1.8,1.4-2.7c6.1-12.2,12.2-24.5,18.3-36.7c0.9,0,1.7,0,2.6,0   c0.1-1.1,0.2-2.2,0.3-3.3c0.8-3.8,1.6-6.1,3.3-9.5c0.5-0.9,0.9-1.8,1.4-2.8c0.5-0.9,1-1.9,1.5-2.9c0.9-1.8,1.8-3.7,2.7-5.5   c0.9-1.8,1.8-3.6,2.7-5.4c0.5-0.9,0.9-1.8,1.4-2.8c1.9-3.9,3.9-7.6,6.3-11.2c0.9,0,1.7,0,2.6,0c0.5-1.3,0.5-1.3,1-2.7   c1.9-4.6,4.2-8.9,6.5-13.3c0.5-0.9,0.9-1.7,1.4-2.6c2.7-4.9,5.4-9.8,8.4-14.6c6.5-10.7,11.1-21.4,15.2-33.2   c1.9-5.1,4.2-9.7,6.8-14.5c8.3-17.8,9.1-39,8-58.3c-0.7-0.7-0.7-0.7-1.3-1.3c-0.2-3.5-0.1-7,0-10.5c0.9,0,1.7,0,2.6,0   C292.6,195.9,292.6,194.2,292.6,192.4z"/>
	<path class="st3" d="M123.2,296.1c2.1,2,2.1,2,3.9,5.3c0,3.6-0.7,6.9-1.3,10.5c0.9,0,1.7,0,2.6,0c0.4,3,0.9,6.1,1.3,9.2   c1.3,0.4,2.6,0.9,3.9,1.3c0,2.2,0,4.3,0,6.6c1.3,0,2.6,0,3.9,0c0,1.3,0,2.6,0,3.9c0.9,0,1.7,0,2.6,0c0.4-1.3,0.9-2.6,1.3-3.9   c10.5,16.4,10.5,16.4,14.4,22.7c1.2,1.9,2.4,3.8,3.7,5.7c1.9,3.7,2.5,6.9,3,11c-4.2-2.1-4.9-6.3-6.6-10.5c-1.1-2.9-1.1-2.9-3.9-4   c-0.2,4.5-0.2,4.5,0,9.2c0.9,0.9,1.7,1.7,2.6,2.6c0,1.3,0,2.6,0,3.9c0.9,0,1.7,0,2.6,0c0.5,1.7,1,3.3,1.6,5   c4.1,13.6,4.1,13.6,12.9,23.9c0.9,2.2,1.8,4.4,2.6,6.6c1.3,1.3,2.6,2.7,3.9,3.9c0,0.9,0,1.7,0,2.6c0.9,0,1.7,0,2.6,0   c0-2.2,0-4.3,0-6.6c0.9,0,1.7,0,2.6,0c0,0.9,0,1.7,0,2.6c0.9,0,1.7,0,2.6,0c3.9,7.4,3.9,7.4,3.9,11.8c0.9,0,1.7,0,2.6,0   c1.1,7.4,1.4,13.7,0,21c0.9,0,1.7,0,2.6,0c0.4,2.6,0.9,5.2,1.3,7.9c1.3,0,2.6,0,3.9,0c0.4-2.6,0.9-5.2,1.3-7.9c1.3,0,2.6,0,3.9,0   c0.3-1.2,0.3-1.2,0.6-2.4c0.6-2.3,1.3-4.6,2.1-6.8c0.9,0,1.7,0,2.6,0c0.4-1.2,0.7-2.3,1.1-3.5c1.8-5.1,4.3-9.1,7.3-13.6   c8-11.7,13.5-22.5,15.3-36.7c1.3,0,2.6,0,3.9,0c0-2.6,0-5.2,0-7.9c1.3-0.4,2.6-0.9,3.9-1.3c0-2.2,0-4.3,0-6.6   c1.3-0.4,2.6-0.9,3.9-1.3c-1.3-2.6-1.3-2.6-2.6-5.3c-2.2,2.2-4.3,4.3-6.6,6.6c2.3-7.6,2.3-7.6,5.3-10.5c1.3,0,2.6,0,3.9,0   c0.3-0.8,0.6-1.6,0.9-2.5c1.7-2.8,1.7-2.8,4.9-3.8c3.6-1.3,3.6-1.3,5-4.7c0.4-1.2,0.7-2.5,1.1-3.8c1.9-5.9,4.3-10.3,7.8-15.4   c0.4-1.6,0.9-3.1,1.3-4.8c1.4-4.7,2.8-6.6,6.6-9.7c1.3,0.7,1.3,0.7,2.6,1.3c-1.3,2.4-2.5,4.7-3.8,7.1c-0.7,1.3-1.4,2.6-2.1,4   c-2,3.4-2,3.4-4.6,6c-2.1,4.5-3.8,8.7-5.1,13.5c-2.2,7.3-5.2,15.2-10.7,20.6c-0.2,1.1-0.4,2.2-0.7,3.4c-0.2,1.1-0.4,2.1-0.7,3.2   c-1.3,0.7-1.3,0.7-2.6,1.3c-1.4,2.4-2.7,4.9-3.9,7.5c-1,2-1,2-2.1,4.1c-1.8,4-3.1,7.9-4.5,12c-1.4,2.5-1.4,2.5-2.7,4.7   c-2.3,4-3.1,6.7-3.9,11.1c-1.3,0.7-1.3,0.7-2.6,1.3c-0.2,1.1-0.4,2.2-0.7,3.3c-0.2,1.1-0.4,2.2-0.7,3.3c-1.3,0.7-1.3,0.7-2.6,1.3   c-0.4,1.5-0.9,3-1.3,4.6c-0.4,1.5-0.9,3-1.3,4.6c-1.3,0.7-1.3,0.7-2.6,1.3c-1.1,1.8-2.1,3.6-3.1,5.5c-2.7,4.9-5.6,9.5-8.7,14.2   c-1.4,2.6-2.7,5.2-3.9,7.9c-2.2,0-4.3,0-6.6,0c-0.4-2.2-0.9-4.3-1.3-6.6c-1.3,0-2.6,0-3.9,0c-0.4-1-0.8-2-1.2-3.1   c-3-7.4-6.1-14.2-10.5-20.9c-2-3.2-3-6.6-4-10.2c-0.4-0.9-0.9-1.7-1.3-2.6c-1.3-0.4-2.6-0.9-3.9-1.3c-0.9-2.4-0.9-2.4-1.4-5.3   c-0.5-2.8-0.5-2.8-1.2-5.3c-1.3-0.7-1.3-0.7-2.6-1.3c-0.4-2.2-0.9-4.4-1.3-6.6c-1.3-0.7-1.3-0.7-2.6-1.3c-0.4-1.3-0.9-2.6-1.3-3.9   c-0.9-0.4-1.7-0.9-2.6-1.3c-0.8-4-0.8-4-1.3-7.9c-0.9,0-1.7,0-2.6,0c-0.1-1.5-0.2-3-0.2-4.6c-0.8-6.6-3.9-11-7.6-16.4   c-1.3-2.2-2.6-4.4-3.9-6.6c-0.7-1.1-1.3-2.1-2-3.2c-3.6-5.9-6.5-11.2-8.5-17.8c-0.9-0.4-1.7-0.9-2.6-1.3c-0.4-1.2-0.8-2.3-1.1-3.5   c-1.3-4.5-1.3-4.5-4.3-8.3c-2.8-4.4-2.9-6.7-2.5-11.8c0.9,0,1.7,0,2.6,0C122.3,300.5,122.8,298.4,123.2,296.1z"/>
	<path class="st4" d="M200,182.9c1.7,0,3.4,0,5.2-0.1c4.4,0.3,7.4,1,11.3,2.9c0,0.9,0,1.7,0,2.6c1.4,0.2,2.7,0.5,4.1,0.7   c6.2,1.8,9.7,5.6,13,11.1c1.3,4.9,1.3,4.9,1.3,9.2c-0.9,1.3-1.7,2.6-2.6,3.9c-2.6-2.6-2.6-2.6-2.8-6.1c0.1-1,0.1-2.1,0.2-3.1   c-1.3-0.4-2.6-0.9-3.9-1.3c-0.7-1.3-0.7-1.3-1.3-2.6c-1.1-0.7-2.2-1.3-3.4-2c-1.1-0.7-2.1-1.3-3.2-2c0-0.9,0-1.7,0-2.6   c-6.3-2.5-12-3.1-18.6-3c-0.9,0-1.9,0-2.8-0.1c-5.3-0.1-5.3-0.1-9.8,2.3c-0.5,0.7-1.1,1.4-1.6,2.1c-1.5,0.8-2.9,1.5-4.4,2.3   c-5.4,2.9-8.3,6.9-11.3,12.1c-0.5,0.7-1,1.5-1.5,2.2c-1.8,4.6-1.5,9.3-1.4,14.2c0,1.5,0,1.5,0,3c0,4.7,0.3,8.9,1.6,13.4   c0.9,0,1.7,0,2.6,0c0,0.9,0,1.7,0,2.6c0.9,0,1.7,0,2.6,0c1.9,2.2,1.9,2.2,3.9,5c1,1.4,1,1.4,2.1,2.8c1.5,2.2,3,4.4,4.5,6.6   c3,0.5,6.1,1,9.2,1.3c0.7,0.7,0.7,0.7,1.3,1.3c2,0.1,3.9,0.2,5.9,0.2c1.1,0,2.1,0,3.2,0c2.7,0.1,2.7,0.1,4-1.5   c1.4-0.2,2.9-0.3,4.4-0.5c4.8-0.8,6.5-1.7,10.1-4.8c0.9,0,1.7,0,2.6,0c0.2-1.2,0.2-1.2,0.5-2.5c0.8-2.8,0.8-2.8,3.4-5.4   c0.8-2.7,0.8-2.7,1.3-5.3c1.3,0,2.6,0,3.9,0c-0.1-1.6-0.2-3.1-0.2-4.8c0-5.5,1.7-8.7,4.2-13.6c0.7-3.9,1.1-7.8,1.3-11.8   c0.4,0,0.9,0,1.3,0c1.2,7.1,1.5,13.8,1.3,21c0,1.5,0,2.9,0,4.4c-2.9,10.4-10.9,19.7-19.7,25.8c-0.9,0-1.7,0-2.6,0   c0,0.9,0,1.7,0,2.6c-0.8,0.3-1.7,0.5-2.5,0.8c-1.1,0.4-2.2,0.7-3.3,1.1c-1.1,0.4-2.2,0.7-3.3,1.1c-2.7,0.8-2.7,0.8-4,2.3   c-7,0.4-11.8-0.2-18.4-2.6c-3.1-0.5-6.1-0.9-9.2-1.3c0-1.3,0-2.6,0-3.9c-1.2-0.6-1.2-0.6-2.4-1.1c-2.9-1.5-2.9-1.5-6.8-4.1   c0-0.9,0-1.7,0-2.6c-0.9,0-1.7,0-2.6,0c-1.3-2.6-2.6-5.2-3.9-7.9c-1.3,0.7-1.3,0.7-2.6,1.3c-0.2-1.5-0.4-3-0.6-4.5   c-0.2-4.4-0.2-4.4-2.1-6c-0.8-11.6-0.8-23.3,3.9-34.1c1.3-1.3,2.6-2.7,3.9-3.9c0.4-1.3,0.9-2.6,1.3-3.9c3.1-3.8,6.8-5.8,11.1-8   c1.9-1,1.9-1,3.8-2.1C187.7,183.2,192.9,183,200,182.9z"/>
	<path class="st5" d="M210.5,124.3c2.2,0,2.2,0,4.5,0.1c13.9,0.5,13.9,0.5,19.8,6.2c0,1.3,0,2.6,0,3.9c1.8,0.2,1.8,0.2,3.6,0.4   c4.3,0.9,6.3,2,9.5,4.8c-0.9,0-1.7,0-2.6,0c-0.4,1.7-0.9,3.5-1.3,5.3c0-0.9,0-1.7,0-2.6c-2.6-0.4-5.2-0.9-7.9-1.3   c0-1.3,0-2.6,0-3.9c-2.3-0.3-2.3-0.3-4.6-0.6c-3.6-0.4-7.2-0.9-10.8-1.5c-15.6-2.2-30.6-1.7-46.3-0.6c0,0.4,0,0.9,0,1.3   c0.9,0.4,1.7,0.9,2.6,1.3c-3.2,1.8-6.1,2.9-9.7,3.9c-8,2.3-14.4,6.3-20.9,11.4c-0.7,0.6-1.5,1.2-2.2,1.7   c-10.6,8.4-19.2,17.3-26.2,28.9c-1.3-2.6-1.3-2.6-0.6-5.2c0.4-0.9,0.8-1.9,1.2-2.9c0.4-1,0.8-1.9,1.1-2.9c0.3-0.7,0.6-1.5,0.9-2.2   c-0.4,0-0.9,0-1.3,0c-0.9,0.9-1.7,1.7-2.6,2.6c-1.3,0-2.6,0-3.9,0c-0.1,0.7-0.2,1.4-0.3,2.1c-1.3,4.3-3.6,7.4-6.2,11   c-1.3,0.7-1.3,0.7-2.6,1.3c1.2-3.4,2.4-6.2,4.6-9.1c2.2-2.7,2.2-2.7,3.3-6.6c1.3-3.8,2.5-6.2,5.3-9.2c0.9,0,1.7,0,2.6,0   c0.3-0.8,0.7-1.6,1-2.5c1.9-3.3,3.5-3.9,6.9-5.4c0.4-0.9,0.9-1.7,1.3-2.6c1.3-0.4,2.6-0.9,3.9-1.3c2.2-2.2,4.4-4.4,6.6-6.6   c5.6-5.2,10.5-9.2,18.4-9.2c0.4-1.3,0.9-2.6,1.3-3.9c1.4-0.1,2.7-0.3,4.1-0.4c5-0.6,5-0.6,8.5-2.9   C183.1,122.1,197.8,124,210.5,124.3z"/>
	<path class="st6" d="M295.3,411.7c0.9,0.4,1.7,0.9,2.6,1.3c1.1,3.3,1.3,5.7,1.3,9.2c-2.7,2.5-5.4,4.7-8.3,7   c-0.9,0.7-1.8,1.4-2.7,2.1c-11.1,8.6-22.4,16.9-33.7,25.1c-1.1,0.8-2.2,1.6-3.3,2.4c-3.2,2.3-6.4,4.7-9.7,7c-1,0.7-2,1.4-3,2.2   c-10.1,7.3-10.1,7.3-14.3,9.4c-3-1.1-3-1.1-5.3-2.6c2.6-0.7,2.6-0.7,5.3-1.3c0-1.3,0-2.7,0-4c1-6.9,5.9-9.9,11.2-13.9   c1-0.8,2-1.6,3-2.4c3.1-2.4,6.2-4.8,9.3-7.2c0.9-0.7,1.8-1.4,2.7-2.1c6-4.6,12.1-9.2,18.3-13.7c1-0.8,2.1-1.5,3.2-2.3   c3.3-2.4,6.5-4.8,9.8-7.1c1.5-1.1,1.5-1.1,3.1-2.2c1.4-1,1.4-1,2.9-2.1c0.8-0.6,1.7-1.2,2.6-1.8C292.6,413,292.6,413,295.3,411.7z"/>
	<path class="st7" d="M121.9,166.1c0,5.1-1.9,7.6-4.4,12c-3.9,6.9-6.1,13.1-7.4,20.8c-0.8,3.1-1.7,6.1-2.6,9.2c-0.9,0-1.7,0-2.6,0   c-1,20.2-1,20.2,3.8,39.6c2.3,5.9,3.3,12.1,4.6,18.3c0.7,3.9,0.7,3.9,2.1,7.8c-0.6,2.9-0.6,2.9-1.3,5.3c-1.7-0.4-3.5-0.9-5.3-1.3   c0-2.2,0-4.3,0-6.6c-1.3-0.4-2.6-0.9-3.9-1.3c-4.4-7.6-6.1-16.2-7.4-24.8c-0.2-2.8-0.2-2.8-1.8-4.1c-0.4-5.7-0.4-11.3-0.4-17   c0-1.6-0.1-3.2-0.1-4.8c-0.1-16.4,5.2-27.5,14.9-40.4c1.7-2.3,1.7-2.3,2.7-6.1c2.1-1.4,4.3-2.7,6.6-3.9   C120.2,167.9,121,167,121.9,166.1z"/>
	<path class="st8" d="M415.4,324.1c-1.1-1-2.2-2-3.3-3c-4.7-4.8-8.8-9.5-15.8-10.4c-1.3,0-2.6-0.1-3.9-0.1c0-0.9,0-1.8,0-2.6   c1.3,0,2.6,0,3.9,0c0.9-0.9,1.8-1.8,2.6-2.6c1.5-8.7,1.5-8.7,1.5-42.5c0-4.4,0-8.8,0-13.2c0-17.7-0.3-35.4-1.3-53.1   c-0.6-10.3-2.6-20.2,3.7-29c1.4-1.7,2.7-3.5,4-5.3c2.3-6.4,1.5-12.3-1.1-18.4c-3.2-5.4-7.5-10.8-13.6-12.7   c-0.8-0.1-1.6-0.3-2.3-0.4c0-1.8,0-3.5,0-5.3c-7.8-3.7-15.6-7.1-23.7-9.9c-52.3-18-100.3-47.6-147-76.7c1.7-8.1,4.2-16.1,0.7-23.9   c-1.7-1.9-1.7-1.9-3.4-3.7c-3.1-4-6-6.8-10.5-9.2c-8.1-2-16.8-3.4-24.6,0.5c-5.6,4.7-10.4,10.4-11.4,17.9c0,1.4,0,2.7,0.1,4   c0,4,0,4,0.4,7.9c2.8,8.5,7.7,17.9,15.8,22.3c6.4,1.2,11.6,0.5,17.4-2.5c3.8-2.2,7-3.5,11.5-4c1.1,4.3,1.8,7.2,5.2,10.1   c1.2,0.6,2.3,1.3,3.5,1.9c2.3,1.2,4.5,2.5,6.8,3.6c1,0.5,1.9,1,2.9,1.5c22.5,11.6,45.4,22.5,68.2,33.4c2.5,1.2,5,2.4,7.6,3.6   c1.3,0.6,2.5,1.2,3.7,1.8c10.8,5.1,21.5,10.4,32.2,15.8c6.3,3.2,12.5,6.5,19.2,8.9c1,0.3,2,0.6,3,0.9c-1.3,2-1.3,2-2.6,3.9   c-6.7,8.1-10.3,13.6-9.6,24.4c1,7.3,3,12.6,8.7,17.7c1.7,1.2,1.7,1.2,3.4,2.4c3.7,2.7,5.8,4.1,10.4,4.4c1-0.1,1.9-0.2,2.9-0.3   c0,2.1,0,4.3-0.1,6.4c0,0.9,0,1.8,0,2.7c0,5.4,0,10.7,0.4,16.1c1.4,28.1,1.4,28.1,1.7,56.3c0.1,5,0.1,10,0.2,15   c0.2,10.7,0.3,21.5,0.4,32.2c-3.9,0-3.9,0-7.9,2.6c-5.9,5.9-8.3,11.7-8.6,19.9c0,1,0,1.9,0,2.8c0,3.5,0.2,6.6,0.7,10.1   c2,3.5,3.3,4.9,6.8,6.9c0.8,0.3,1.6,0.7,2.4,1c0,0.9,0,1.8,0,2.6c-2.9,0-2.9,0-8.7,3.8c-0.9,0.6-1.7,1.1-2.5,1.7   c-9.9,6.6-19.5,13.6-29.1,20.5c-10.3,7.5-20.6,15-31.2,22c-11.3,7.5-22.4,15.3-33.4,23.4c-1,0.7-1.9,1.4-2.9,2.1   c-6.1,4.5-12.2,9-18.3,13.7c-0.9,0.7-1.8,1.4-2.7,2.1c-3.1,2.4-6.3,4.8-9.3,7.2c-1.5,1.2-1.5,1.2-3,2.4c-5.3,4-10.2,7-11.2,13.9   c0,1.4,0,2.7,0,4c-2.2,0-4.4,0-6.6,0c-0.7-2.8-0.7-2.8-2.6-6.6c-4.8-5-9.5-8.4-16.6-8.8c-5,0.4-8,1.9-11.7,5.5   c-1.9,2-1.9,2-4.3,3.8c-5.4,4.3-9.9,8.5-12.1,15.2c-1.1,7.7-0.9,13.3,3.9,19.7c8.6,6.1,17.6,8.8,28,9.7c4.7-0.7,6.7-2.5,10.1-5.8   c7-8.4,10.3-15.3,9.5-26.2c-0.1-0.9-0.2-1.8-0.3-2.7c1.3,0,2.6,0,3.9,0c2.4-2.6,2.4-2.6,4.8-4.2c0.9-0.6,1.7-1.2,2.6-1.7   c1-0.7,2-1.3,3-2c13.1-8.8,25.7-18.1,38.2-27.8c5.1-3.9,10.2-7.8,15.3-11.6c5.3-4,10.7-7.9,15.9-12.1   c22.6-18.4,47.9-33.5,73.9-46.7c3.6-1.8,7-3.6,10.5-5.6c0.4-1.3,0.9-2.6,1.3-3.9c5.5,0.6,10.8,1.1,15.9-1.3c4.7-3.6,7.1-7.3,9-12.8   C417.9,339.8,419.5,331.4,415.4,324.1z M208.2,35c-3.1,4.3-5.7,7.3-10.1,10.3c-3.8,0.6-3.8,0.6-7.9,0c-5.1-4-8.3-8.3-10.5-14.4   c0.1-7.4,2.2-12.5,6.6-18.4c4.8-1.6,8.4-1.7,13.1,0c2.4,0.8,2.4,0.8,4.8,1.6c4.4,2.3,4.4,2.3,6.4,5.3   C211.6,25.3,211.3,29.8,208.2,35z M206,499.7c-4.5,3-6.5,2.8-11.6,2c-6.3-1.6-11-4.4-14.6-9.9c-0.7-5-0.2-7.5,2.1-12   c6.2-7.5,10.5-10.3,19.9-7.6c4.8,2,7.4,3.7,10.8,7.7C212.8,487.1,209.9,493.8,206,499.7z M379.3,172.7c-6.8-2.1-9.9-5.7-13.3-11.7   c-2.2-5.2-2-9.7-0.1-15c2.4-3.4,4.9-4.7,8.9-5.7c5.4-0.6,10.8-0.6,16.3-0.5c0.5,1.1,0.5,1.1,1.1,2.3c0.5,1,1,1.9,1.4,2.9   c0.5,1,0.9,1.9,1.4,2.9c1.1,2.4,1.1,2.4,2.6,3.7c0,7.8-2.7,12-8,17.6C386.2,172.2,383.9,173,379.3,172.7z M405.1,348.2   c-2.6,3.1-3.9,4.3-8,4.9c-7.9-0.6-13.6-2.6-18.9-8.5c-2.5-6.5-1.6-13.5,1.1-19.9c3.9-6.3,13.6-3.4,19.8-2.3   c4.1,1.8,7.1,3.8,9.2,7.9C409.3,337,408.7,342.3,405.1,348.2z"/>
	<path class="st9" d="M292.6,192.4c0.5,1.1,0.5,1.1,1.1,2.3c1.4,2.9,1.4,2.9,3.2,5.5c6.8,11,5.7,23.1,4.9,35.6   c-0.4,0.4-0.9,0.9-1.3,1.3c-0.7,4.7-1.3,9.4-1.8,14.2c-0.8,4.2-0.8,4.2-3.4,6.9c-0.2,2.3-0.2,2.3-0.4,4.6   c-0.6,6.1-3.1,10.5-5.9,15.8c-1.4,2.9-2.2,5.3-2.9,8.5c-1.4,6.7-4.7,12.4-7.9,18.4c-1.3-3.5-1.5-4.8,0-8.3c0.9-1.6,0.9-1.6,1.9-3.3   c3.1-5.8,4.1-9.5,3.4-16c-0.9-0.4-1.7-0.9-2.6-1.3c0.7-4.9,1.1-7.6,3.9-11.8c5.8-18.3,7.6-36.1,6.6-55.2c-0.4-0.4-0.9-0.9-1.3-1.3   c-0.2-3.5-0.1-7,0-10.5c0.9,0,1.7,0,2.6,0C292.6,195.9,292.6,194.2,292.6,192.4z"/>
	<path class="st10" d="M123.2,296.1c2.1,2,2.1,2,3.9,5.3c0,3.6-0.7,6.9-1.3,10.5c0.9,0,1.7,0,2.6,0c0.4,3,0.9,6.1,1.3,9.2   c1.3,0.4,2.6,0.9,3.9,1.3c0,2.2,0,4.3,0,6.6c1.3,0,2.6,0,3.9,0c0,1.3,0,2.6,0,3.9c0.9,0,1.7,0,2.6,0c0.4-1.3,0.9-2.6,1.3-3.9   c10.5,16.4,10.5,16.4,14.4,22.7c1.2,1.9,2.4,3.8,3.7,5.7c1.9,3.7,2.5,6.9,3,11c-4.2-2.1-4.9-6.3-6.6-10.5c-1.1-2.9-1.1-2.9-3.9-4   c-0.2,4.5-0.2,4.5,0,9.2c0.9,0.9,1.7,1.7,2.6,2.6c0,1.3,0,2.6,0,3.9c0.9,0,1.7,0,2.6,0c0.4,2.6,0.9,5.2,1.3,7.9   c-4.5-4-6.6-7.7-9.2-13.1c-4.3-8.3-8.9-16.1-14.4-23.6c-3-4.5-4.2-7.9-5.3-13.1c-0.9-0.4-1.7-0.9-2.6-1.3c-0.4-1.2-0.8-2.3-1.1-3.5   c-1.3-4.5-1.3-4.5-4.3-8.3c-2.8-4.4-2.9-6.7-2.5-11.8c0.9,0,1.7,0,2.6,0C122.3,300.5,122.8,298.4,123.2,296.1z"/>
	<path class="st11" d="M199,189.4c0.9,0,1.9-0.1,2.8-0.1c6.3,0,10.5,0.9,16,4.4c0.9,1.3,1.7,2.6,2.6,3.9c1.7,0.9,3.5,1.8,5.3,2.6   c4.2,3.2,5.1,6.9,6.6,11.8c0.4,0.4,0.9,0.9,1.3,1.3c0.1,2.1,0.1,4.3,0.1,6.4c0,1.3,0,2.6,0,3.9c0,2.1,0,2.1,0,4.1   c0,1.4,0,2.7,0,4.2c0,3.4,0,6.8-0.1,10.2c-1.3,0-2.6,0-3.9,0c-0.2,1.4-0.2,1.4-0.4,2.9c-1.5,6-3.7,9.3-8.5,13.2   c-4.6,2.5-8.3,3.1-13.5,3.6c-0.4,0.4-0.9,0.9-1.3,1.3c-2,0.1-3.9,0.2-5.9,0.2c-1.1,0-2.1,0-3.2,0c-2.7-0.2-2.7-0.2-4-1.5   c-1.5-0.1-2.9-0.2-4.4-0.3c-4.8-1-4.8-1-7.3-4.4c-0.5-1.1-0.9-2.1-1.4-3.2c0.7,0.4,1.5,0.9,2.2,1.3c5.4,2.4,11,1.8,16.8,1.7   c1.2,0,2.5,0,3.8,0.1c1.2,0,2.4,0,3.6,0c1.1,0,2.2,0,3.3,0c3.7-0.6,5.4-2.1,8.3-4.4c0.9,0,1.7,0,2.6,0c0-0.9,0-1.7,0-2.6   c0.8-0.8,1.6-1.5,2.4-2.3c5.8-5.9,7.4-11.7,7.4-19.9c-0.2-8.1-1.6-13.1-5.8-19.9c-0.7-1.9-0.7-1.9-1.3-3.9   c-0.7-1.3-0.7-1.3-1.3-2.7c-2.7-0.9-2.7-0.9-5.3-1.3c-0.7-2-0.7-2-1.3-3.9c-7.7-3.7-16.4-3.9-24.5-1.6c-8.8,3.3-14.9,8-21.4,14.8   c2.2-8.2,8.7-12.5,15.6-16.8c0.9-0.5,1.8-1,2.8-1.6C190.2,188.4,195.4,189.5,199,189.4z"/>
	<path class="st12" d="M152.1,353.9c2.4,0.7,2.4,0.7,5.3,2.6c1.2,2.6,2,5.3,2.9,8c1.4,3.3,3.4,4.5,6.3,6.4c0,1.7,0,3.5,0,5.3   c0.9,0,1.7,0,2.6,0c0,1.3,0,2.6,0,3.9c0.9,0,1.7,0,2.6,0c0.4,2.6,0.9,5.2,1.3,7.9c0.9,0,1.7,0,2.6,0c0.4,2.6,0.9,5.2,1.3,7.9   c0.9,0,1.7,0,2.6,0c1.9,5.8,3.1,9.8,1.3,15.8c-0.9,0-1.7,0-2.6,0c-4.1-4.4-6.6-7.2-7.9-13.1c-1.3-0.9-2.6-1.7-3.9-2.6   c-5.2-8.4-8.8-16.4-9.2-26.3c-0.9,0-1.7,0-2.6,0c-3.4-4.2-4-6.1-3.5-11.6C151.5,356.7,151.8,355.3,152.1,353.9z"/>
	<path class="st13" d="M115.3,276.4c2.4,0.8,2.4,0.8,5.3,2.6c1.8,3.7,1.8,3.7,3.4,8.1c0.6,1.5,1.1,3.1,1.7,4.7   c0.5,1.4,1,2.8,1.5,4.3c0.7,1.8,1.5,3.5,2.2,5.3c1.1,2.5,2.1,5.1,3,7.6c1.2,3.3,1.2,3.3,5.3,5.5c1.5,3,1.5,3,2.8,6.5   c0.4,1.1,0.9,2.3,1.3,3.5c0.8,2.4,1.7,4.7,2.5,7.1c0.9,0,1.7,0,2.6,0c0.4,2.2,0.9,4.3,1.3,6.6c-3.3-3.3-3.3-3.3-6.6-6.6   c-2,0.7-2,0.7-3.9,1.3c0-1.3,0-2.6,0-3.9c-1.3,0-2.6,0-3.9,0c-0.2-1.5-0.2-1.5-0.4-3c-0.6-3.6-0.6-3.6-3-5.5c-1.9-2-1.9-2-2.1-5.5   c0.1-1,0.2-2,0.2-3c-0.9,0-1.7,0-2.6,0c0.1-4,0.1-4,0.1-8c0-2.7,0-2.7-1.4-5.2c-0.9,1.3-1.7,2.6-2.6,3.9c-0.9,0-1.7,0-2.6,0   c-3-4.5-3.2-7.8-3.9-13.1c-0.4-0.4-0.9-0.9-1.3-1.3c0.1-2,0.3-4,0.6-6c0.1-1.1,0.3-2.2,0.4-3.3   C115.1,278.1,115.2,277.3,115.3,276.4z"/>
	<path class="st14" d="M238.8,212.1c0.4,0,0.9,0,1.3,0c1.2,7.1,1.5,13.8,1.3,21c0,1.5,0,2.9,0,4.4c-2.5,9-9.1,18.1-17.1,23.1   c-4.3,0.9-4.3,0.9-7.9,1.3c-0.4,1.3-0.9,2.6-1.3,3.9c-5.3,1.3-10.1,1.4-15.5,1.4c-1.5,0-3.1,0-4.6,0c-1.2,0-2.3,0-3.5,0   c3.5-2.4,5.4-3.1,9.4-4c4.8-0.7,4.8-0.7,6.4-2.5c1.4-0.2,2.9-0.3,4.4-0.5c4.8-0.8,6.5-1.7,10.1-4.8c0.9,0,1.7,0,2.6,0   c0.2-0.8,0.3-1.6,0.5-2.5c0.8-2.8,0.8-2.8,3.4-5.4c0.8-2.7,0.8-2.7,1.3-5.3c1.3,0,2.6,0,3.9,0c-0.1-1.6-0.2-3.1-0.2-4.8   c0-5.5,1.7-8.7,4.2-13.6C238.2,220,238.5,216.1,238.8,212.1z"/>
	<path class="st15" d="M292.6,192.4c0.4,0.8,0.8,1.7,1.2,2.5c1.2,2.6,1.2,2.6,2.7,4c0.1,4,0.2,7.9,0.1,11.9c0,1.2,0,2.4,0,3.6   c0,3.8,0,7.7,0,11.5c0,2.6,0,5.2,0,7.8c0,6.4,0,12.7-0.1,19.1c-0.9,0-1.7,0-2.6,0c-0.4,4.3-0.9,8.7-1.3,13.1   c-2.2,0.9-4.3,1.7-6.6,2.6c0.2-1.4,0.2-1.4,0.5-2.7c3.3-18.8,6.1-37.2,4.8-56.4c-0.4-0.4-0.9-0.9-1.3-1.3c-0.2-3.5-0.1-7,0-10.5   c0.9,0,1.7,0,2.6,0C292.6,195.9,292.6,194.2,292.6,192.4z"/>
	<path class="st16" d="M241.4,348.7c0.9,0,1.7,0,2.6,0c-2.6,5.3-2.6,5.3-3.9,7.6c-1.5,3.1-1.5,3.1-2.6,7.6c-1.3,4.4-1.3,4.4-3.9,7.1   c-0.2,0.9-0.4,1.8-0.7,2.7c-0.2,0.8-0.4,1.7-0.7,2.5c-0.9,0.4-1.7,0.9-2.6,1.3c-3.1,5.3-4.3,9.8-5.3,15.8c-1.3,0.7-1.3,0.7-2.6,1.3   c-0.9,2.6-1.8,5.2-2.6,7.9c-2.1,4.5-4.4,8.7-7.1,12.8c-3.3,5.1-5.4,10.3-7.4,16c-1.2,2.8-1.2,2.8-3.8,5.4c-2.6-0.1-2.6-0.1-5.3-1.3   c-1.7-3.1-1.7-3.1-2.6-6.6c0.4-1.3,0.9-2.6,1.3-3.9c1.7,2.2,3.5,4.3,5.3,6.6c0.4-0.9,0.9-1.8,1.4-2.7c6.1-12.2,12.2-24.5,18.3-36.7   c0.9,0,1.7,0,2.6,0c0.1-1.1,0.2-2.2,0.3-3.3c0.8-3.8,1.6-6.1,3.3-9.5c0.5-0.9,0.9-1.8,1.4-2.8c0.5-0.9,1-1.9,1.5-2.9   c0.9-1.8,1.8-3.7,2.7-5.5c0.9-1.8,1.8-3.6,2.7-5.4c0.5-0.9,0.9-1.8,1.4-2.8C237,356,239,352.3,241.4,348.7z"/>
	<path class="st17" d="M274.2,306.6c0.9,0.4,1.7,0.9,2.6,1.3c-1.3,2.4-2.5,4.7-3.8,7.1c-0.7,1.3-1.4,2.6-2.1,4c-2,3.4-2,3.4-4.6,6   c-2.1,4.5-3.8,8.7-5.1,13.5c-2.9,9.6-7.2,17.5-14.1,24.9c-3.2,3.9-5,8.2-7.1,12.8c-0.4,0-0.9,0-1.3,0c0-2.2,0-4.3,0-6.6   c2-0.7,2-0.7,3.9-1.3c0-2.2,0-4.3,0-6.6c2-0.7,2-0.7,3.9-1.3c-0.9-1.7-1.7-3.5-2.6-5.3c-3.3,3.3-3.3,3.3-6.6,6.6   c2.3-7.6,2.3-7.6,5.3-10.5c1.3,0,2.6,0,3.9,0c0.3-0.8,0.6-1.6,0.9-2.5c1.7-2.8,1.7-2.8,4.9-3.8c3.6-1.3,3.6-1.3,5-4.7   c0.4-1.2,0.7-2.5,1.1-3.8c1.9-5.9,4.3-10.3,7.8-15.4c0.4-1.6,0.9-3.1,1.3-4.8C269.1,311.6,270.5,309.7,274.2,306.6z"/>
	<path class="st18" d="M220.4,402.5c0.8,2.5,0.8,2.5,1.3,5.3c-0.9,0.9-1.7,1.7-2.6,2.6c-0.8,2.7-0.8,2.7-1.3,5.3c-0.9,0-1.7,0-2.6,0   c-0.1,0.8-0.1,1.6-0.2,2.4c-0.1,1.1-0.2,2.1-0.3,3.2c-0.1,1.1-0.2,2.1-0.3,3.2c-0.5,3-0.5,3-3.2,6.9c-0.9,0-1.7,0-2.6,0   c-0.3,1.2-0.3,1.2-0.6,2.4c-0.6,2.3-1.3,4.6-2.1,6.8c-1.3,0-2.6,0-3.9,0c-0.4,2.6-0.9,5.2-1.3,7.9c-1.3,0-2.6,0-3.9,0   c-0.4-2.6-0.9-5.2-1.3-7.9c-0.9,0-1.7,0-2.6,0c-1.5-6.2-1.5-6.2,0-9.2c0.9,0,1.7,0,2.6,0c0.4,1.3,0.9,2.6,1.3,3.9   c2.5-0.2,2.5-0.2,5.3-1.3c1.8-2.9,1.8-2.9,3.1-6.5C208.9,418.5,213.1,409.2,220.4,402.5z"/>
	<path class="st19" d="M295.3,191.1c0.9,0,1.7,0,2.6,0c0.3,0.8,0.5,1.7,0.8,2.5c0.5,1.6,0.5,1.6,1.1,3.3c0.4,1.1,0.7,2.2,1.1,3.3   c0.8,2.7,0.8,2.7,2.3,4c0.1,3.2,0.2,6.3,0.2,9.5c0,1,0,1.9,0,2.9c0,2,0,4,0,6.1c0,3.1,0,6.2,0.1,9.3c0,2,0,3.9,0,5.9   c0,0.9,0,1.9,0,2.8c0,6.6,0,6.6-3,9.5c-0.2,1.5-0.4,3-0.7,4.6c-0.7,4.6-0.7,4.6-3.3,7.2c-0.6,3.5-0.6,3.5-0.8,7.4   c-0.1,1.3-0.2,2.6-0.3,4c-0.1,1-0.1,2-0.2,3.1c-0.9,0-1.7,0-2.6,0c-0.2,1.3-0.3,2.5-0.5,3.9c-0.3,1.3-0.5,2.7-0.8,4   c-1.3,0.7-1.3,0.7-2.6,1.3c-0.4,1.1-0.7,2.2-1.1,3.4c-1.9,5.6-4.9,10.1-8.1,15c0-4.1,0.5-5.4,2.5-8.9c2.5-4.8,3.9-9.5,5.4-14.8   c0.9-2,1.8-3.9,2.7-5.8c1.9-4,2.9-7.4,3.4-11.8c0.5-4.7,0.5-4.7,3.1-7.3c0.6-3.1,1-6.2,1.4-9.3c1.1-9,1.1-9,2.5-10.4   c0.3-4.1,0.2-8.2,0.2-12.2c0-1.7,0-1.7,0-3.5c0-1.1,0-2.2,0-3.3c0-1,0-2,0-3.1c-0.4-3.2-1.4-5.3-2.9-8.1c-0.6-2.5-1.1-5-1.5-7.6   c-0.2-1.3-0.4-2.6-0.7-3.9C295.6,193.1,295.4,192.1,295.3,191.1z"/>
	<path class="st20" d="M207,122.1c5.3,1.3,10.9,1.2,16.4,1.4c7.2,0.4,7.2,0.4,10.1,3.3c1.4,0.1,2.8,0.3,4.2,0.4   c5.5,1,7.9,2.6,12.1,5.9c2.1,1.7,2.1,1.7,5,3c2.3,1.2,2.3,1.2,4.2,3.9c1.9,2.9,1.9,2.9,5.3,3.9c4.3,1.8,6,4.2,8.6,8   c-0.9,0.4-1.7,0.9-2.6,1.3c0-0.9,0-1.7,0-2.6c-0.7-0.1-1.5-0.2-2.2-0.3c-4-1.3-6.4-3.6-9.6-6.2c-1.1-0.7-2.2-1.3-3.4-2   c-3.2-2-3.2-2-5.7-4.7c-3.7-3.4-7.2-3.9-12-5.2c-2.2-1.3-2.2-1.3-4.5-2.6c-7.3-3.7-14.6-3.6-22.6-3.7c-1.5,0-3-0.1-4.6-0.1   c-12.4-0.3-24.4-0.1-36.5,2.5c2.6-3.9,2.6-3.9,6.1-4.9C198.6,119.9,198.6,119.9,207,122.1z"/>
	<path class="st21" d="M248,360.5c0.7,2.6,0.7,2.6,1.3,5.3c-0.9,0.4-1.7,0.9-2.6,1.3c-1.4,2.4-2.7,4.9-3.9,7.5c-1,2-1,2-2.1,4.1   c-1.8,4-3.1,7.9-4.5,12c-1.4,2.5-1.4,2.5-2.7,4.7c-2.3,4-3.1,6.7-3.9,11.1c-1.3,0.7-1.3,0.7-2.6,1.3c-0.2,1.1-0.4,2.2-0.7,3.3   c-0.2,1.1-0.4,2.2-0.7,3.3c-1.3,0.7-1.3,0.7-2.6,1.3c-0.4,1.5-0.9,3-1.3,4.6c-0.4,1.5-0.9,3-1.3,4.6c-1.3,0.7-1.3,0.7-2.6,1.3   c-1.1,1.8-2.1,3.6-3.1,5.5c-7.3,13.5-7.3,13.5-11.3,15.5c0.4-0.7,0.7-1.4,1.1-2.1c2.7-5.6,5-11.4,7.4-17.1c2.7-6,6.1-11.3,9.8-16.7   c7.1-10.7,11.7-20.9,13.2-33.7c1.3-0.4,2.6-0.9,3.9-1.3c1.8-2.6,1.8-2.6,3.4-5.7C244,367,245.8,363.8,248,360.5z"/>
	<path class="st22" d="M169.2,202.9c-0.8,3.9-1.6,5.8-3.9,9.2c-0.4,3.2-0.4,3.2-0.3,6.9c0,1.3,0,2.7,0,4c0,1.4,0,2.8,0.1,4.2   c0,2.1,0,2.1,0,4.2c0,2.6,0.1,5.2,0.1,7.7c0.1,7,0.1,7-1.3,9.7c-1.3,0-2.6,0-3.9,0c-0.2-1.5-0.4-3-0.6-4.5c-0.2-4.4-0.2-4.4-2.1-6   c-1.6-24.7-1.6-24.7,5.8-33.8C165.2,202.9,165.2,202.9,169.2,202.9z"/>
	<path class="st23" d="M200.1,182.9c0.9,0,1.8,0,2.7,0c4.9,0,6.9,0.2,11,2.9c-2.2,0-2.2,0-4.4-0.1c-1.9,0-3.8,0-5.8-0.1   c-1,0-1.9,0-2.9-0.1c-5,0-8.9,0-13.2,2.9c0,1.3,0,2.6,0,3.9c-3,2.5-3,2.5-7,5.3c-6.1,4.2-6.1,4.2-11.4,9.2c0-1.3,0-2.6,0-3.9   c-2.6,1.3-5.2,2.6-7.9,3.9c0.9-1.8,1.8-3.5,2.6-5.3c0.4-0.9,0.8-1.8,1.2-2.7c2.9-5.3,7.2-7.7,12.5-10.6c1.2-0.7,2.5-1.4,3.8-2.1   C187.8,183.1,193,183,200.1,182.9z"/>
	<path class="st24" d="M97,201.6c0,4,0,7.9-0.1,11.8c0,3.2,0,6.4-0.1,9.7c0,1.6,0,3.2-0.1,4.9c0,1.6,0,3.1,0,4.7c0,1.4,0,2.9,0,4.3   c0.3,4,1.3,6.8,2.9,10.5c0.1,1.4,0.3,2.7,0.4,4.1c1.1,5.9,3.3,10.6,5.9,16c1.4,3.2,2.4,6.2,3.1,9.6c0.7,4.6,0.7,4.6,3.7,7.1   c1,2.3,1.9,4.7,2.8,7.1c0.5,1.3,0.9,2.5,1.4,3.9c1.1,3.5,1.1,3.5,1.1,7.4c-3.9-6.1-3.9-6.1-3.9-10.5c-0.9,0-1.7,0-2.6,0   c-1.4-2.1-2.7-4.3-3.9-6.6c-0.4-0.4-0.9-0.9-1.3-1.3c-0.2-1.5-0.4-3-0.6-4.5c-0.3-4.7-0.3-4.7-3.4-7.3c-0.8-2.7-1.3-5.4-1.9-8.2   c-0.2-0.8-0.5-1.5-0.7-2.3c-0.9-0.4-1.7-0.9-2.6-1.3c0-3,0-6.1,0-9.2c-0.9,0-1.7,0-2.6,0c-0.1-6.7-0.1-13.4-0.1-20.1   c0-2.3,0-4.6-0.1-6.8c0-3.3,0-6.5-0.1-9.8c0-1,0-2,0-3.1c0-2.5,0.1-5,0.3-7.5C95.2,203.3,96.1,202.5,97,201.6z"/>
	<path class="st25" d="M100.9,234.4c0.4,0.8,0.8,1.6,1.2,2.5c0.9,1.7,1.8,3.4,2.7,5.1c1.6,3.6,2.4,7.1,3.2,11   c0.7,2.9,0.7,2.9,3.4,6.4c0.8,2.4,1.5,4.7,2.2,7.1c0.4,1.2,0.7,2.5,1.1,3.8c0.6,3.5,0.5,5.5-0.7,8.8c-1.7-0.4-3.5-0.9-5.3-1.3   c0-2.2,0-4.3,0-6.6c-1.3-0.4-2.6-0.9-3.9-1.3c-0.2-0.9-0.3-1.9-0.5-2.8c-0.2-1.2-0.5-2.4-0.7-3.7c-0.2-1.2-0.5-2.4-0.7-3.6   c-0.4-2.9-0.4-2.9-2-4.3c-0.1-3.5-0.1-7-0.1-10.6c0-1,0-2,0-3C100.9,239.3,100.9,236.9,100.9,234.4z"/>
	<path class="st26" d="M123.2,296.1c2.1,2,2.1,2,3.9,5.3c0,3.6-0.7,6.9-1.3,10.5c0.9,0,1.7,0,2.6,0c0.4,3,0.9,6.1,1.3,9.2   c1.3,0.4,2.6,0.9,3.9,1.3c0.2,1.5,0.3,2.9,0.5,4.4c0.4,4.8,0.4,4.8,3.4,7.4c1.1,2.9,1.9,5.9,2.8,8.9c1.2,3.1,2.7,4.5,5.1,6.8   c-0.4,2.9-0.4,2.9-1.3,5.3c-0.6-0.9-1.1-1.9-1.7-2.9c-1.4-2.3-2.8-4.6-4.2-6.9c-3.6-5.9-6.5-11.2-8.5-17.8   c-0.9-0.4-1.7-0.9-2.6-1.3c-0.4-1.2-0.8-2.3-1.1-3.5c-1.3-4.5-1.3-4.5-4.3-8.3c-2.8-4.4-2.9-6.7-2.5-11.8c0.9,0,1.7,0,2.6,0   C122.3,300.5,122.8,298.4,123.2,296.1z"/>
	<path class="st27" d="M152.1,369.7c6.2,7.5,10.8,14.7,14.4,23.7c1.3,3,1.3,3,5.3,5.2c0.9,2.2,1.8,4.4,2.6,6.6   c1.7,2.2,3.5,4.4,5.3,6.6c2.1,3.6,3.2,7,4,11.1c0.2,1,0.4,2.1,0.7,3.1c0.2,1,0.4,1.9,0.6,2.9c0.3,1.3,0.5,2.7,0.8,4   c0.2,0.8,0.3,1.7,0.5,2.5c-4-5-6.7-10.3-9.2-16.2c-0.4-1.1-0.9-2.1-1.3-3.2c-0.6-1.5-0.6-1.5-1.2-3.1c-1.3-2.9-1.3-2.9-5.3-3.7   c-0.9-2.4-0.9-2.4-1.4-5.3c-0.5-2.8-0.5-2.8-1.2-5.3c-0.9-0.4-1.7-0.9-2.6-1.3c-0.4-2.2-0.9-4.4-1.3-6.6c-0.9-0.4-1.7-0.9-2.6-1.3   c-0.4-1.3-0.9-2.6-1.3-3.9c-0.9-0.4-1.7-0.9-2.6-1.3c-0.8-4-0.8-4-1.3-7.9c-0.9,0-1.7,0-2.6,0C152.1,374.1,152.1,371.9,152.1,369.7   z"/>
	<path class="st28" d="M296.6,248.9c0.4,0,0.9,0,1.3,0c0.2,3.1,0.2,3.1,0,6.6c-0.9,0.9-1.7,1.7-2.6,2.6c-0.2,2.3-0.2,2.3-0.4,4.6   c-0.6,6.1-3.1,10.5-5.9,15.8c-1.4,2.9-2.2,5.3-2.9,8.5c-1.4,6.7-4.7,12.4-7.9,18.4c-1.3-3.5-1.5-4.8,0-8.3c0.6-1.1,1.2-2.1,1.9-3.3   c3.1-5.8,4.1-9.5,3.4-16c-0.9-0.4-1.7-0.9-2.6-1.3c0.7-4.9,1.1-7.6,3.9-11.8c0.9-3,1.8-6.1,2.6-9.2c2,4,0.7,7.5,0,11.8   c1.7-0.4,3.5-0.9,5.3-1.3c0-1.4-0.1-2.9-0.1-4.4c0.1-4.8,0.1-4.8,1.4-8.8c0.9,0,1.7,0,2.6,0C296.6,251.5,296.6,250.2,296.6,248.9z"/>
	<path class="st29" d="M177.1,200.3c0.9,0.4,1.7,0.9,2.6,1.3c-1,1.1-2.1,2.1-3.1,3.2c-3.7,4.4-4.7,8.5-5.6,14.1   c-0.5,2.4-0.5,2.4-1.8,3.7c-0.2,3.3-0.2,3.3,0,6.6c0.4,0.4,0.9,0.9,1.3,1.3c0.2,3.5,0.1,7,0,10.5c1.3,0,2.6,0,3.9,0   c0.4,2.6,0.9,5.2,1.3,7.9c-0.9-0.4-1.7-0.9-2.6-1.3c0-0.9,0-1.7,0-2.6c-0.9,0-1.7,0-2.6,0c0-0.9,0-1.7,0-2.6c-0.9,0-1.7,0-2.6,0   c-3.4-5.1-3-10.5-3-16.4c0-1,0-2,0-3c0-7.8,1-11.3,6.3-16.8c1.1-1,2.2-2.1,3.3-3.1C175.3,202,176.2,201.2,177.1,200.3z"/>
	<path class="st30" d="M224.3,251.5c0,1.3,0,2.6,0,3.9c-5.5,4.6-10,5.9-17.1,6.6c-0.4,0.4-0.9,0.9-1.3,1.3c-2,0.1-3.9,0.2-5.9,0.2   c-1.1,0-2.1,0-3.2,0c-2.7-0.2-2.7-0.2-4-1.5c-1.5-0.1-2.9-0.2-4.4-0.3c-4.8-1-4.8-1-7.3-4.4c-0.5-1.1-0.9-2.1-1.4-3.2   c0.7,0.4,1.5,0.9,2.2,1.3c5.4,2.4,11,1.8,16.8,1.7c1.2,0,2.5,0,3.8,0.1c1.2,0,2.4,0,3.6,0c1.1,0,2.2,0,3.3,0   c3.7-0.6,5.4-2.1,8.3-4.4C221.7,251.5,221.7,251.5,224.3,251.5z"/>
	<path class="st31" d="M199,189.4c0.9,0,1.9-0.1,2.8-0.1c6.3,0,10.5,0.9,16,4.4c0.9,1.3,1.7,2.6,2.6,3.9c1.7,0.9,3.5,1.8,5.3,2.6   c2.4,1.8,2.4,1.8,3.9,3.9c-0.4,2.9-0.4,2.9-1.3,5.3c0-0.9,0-1.7,0-2.6c-1.3-0.4-2.6-0.9-3.9-1.3c-0.7-2-0.7-2-1.3-3.9   c-2.9-2.1-2.9-2.1-6.6-3.9c-1.4-0.7-2.8-1.5-4.2-2.2c-8.4-3.4-16.7-2.6-25.1,0.6c-7.3,3.2-12.5,7.7-18,13.5   c2.2-8.2,8.7-12.5,15.6-16.8c0.9-0.5,1.8-1,2.8-1.6C190.2,188.4,195.4,189.5,199,189.4z"/>
	<path class="st32" d="M169.2,129.4c-1.3,1.3-1.3,1.3-5.9,1.9c-1.5,0.2-3,0.5-4.6,0.7c-0.4,0.9-0.9,1.7-1.3,2.6   c-1.8,0.8-3.6,1.6-5.4,2.3c-5.5,2.3-9.4,5.2-13.7,9.3c-1.9,1.5-1.9,1.5-4.5,1.5c-0.4,1.3-0.9,2.6-1.3,3.9c-1.3,0-2.6,0-3.9,0   c-0.4,1.3-0.9,2.6-1.3,3.9c-0.9-0.4-1.7-0.9-2.6-1.3c0.9-2.2,1.7-4.3,2.6-6.6c0.9,0,1.7,0,2.6,0c0-0.9,0-1.7,0-2.6   c1.7,0,3.5,0,5.3,0c0.4-1.7,0.9-3.5,1.3-5.3c0.9,0,1.7,0,2.6,0c0-0.9,0-1.7,0-2.6c2.6-0.4,5.2-0.9,7.9-1.3c0.4-1.3,0.9-2.6,1.3-3.9   c3.4-1.3,3.4-1.3,7.6-2.3c1.4-0.3,2.8-0.7,4.2-1C163.7,128.1,165.7,128.1,169.2,129.4z"/>
	<path class="st33" d="M208.6,431.4c0.9,0,1.7,0,2.6,0c-1.3,3.5-2.6,6.5-4.6,9.7c-2.3,4.1-3.4,8.1-4.6,12.6c-2.2,0-4.3,0-6.6,0   c-0.4-2.2-0.9-4.3-1.3-6.6c-1.3,0-2.6,0-3.9,0c-1.3-3.9-2.6-7.8-3.9-11.8c1.7,0.4,3.5,0.9,5.3,1.3c0,1.3,0,2.6,0,3.9   c1.3,0,2.6,0,3.9,0c0.4,2.6,0.9,5.2,1.3,7.9c1.3,0,2.6,0,3.9,0c0.4-2.6,0.9-5.2,1.3-7.9c1.3,0,2.6,0,3.9,0c0.2-0.8,0.4-1.6,0.6-2.4   C207.1,435.9,207.8,433.6,208.6,431.4z"/>
	<path class="st34" d="M152.1,353.9c3.4,1.3,5,2.2,6.9,5.4c0.4,1,0.8,2.1,1.3,3.2c0.4,1,0.8,2.1,1.3,3.2c0.5,1.4,0.5,1.4,1.1,2.7   c0.4,0.9,0.9,1.7,1.3,2.6c0.1,2.6,0.1,5.3,0,7.9c-1.7-0.4-3.5-0.9-5.3-1.3c-0.4-2.6-0.9-5.2-1.3-7.9c-0.9,0-1.7,0-2.6,0   c-3.4-4.2-4-6.1-3.5-11.6C151.5,356.7,151.8,355.3,152.1,353.9z"/>
	<path class="st35" d="M274.2,306.6c0.9,0.4,1.7,0.9,2.6,1.3c-1.3,2.4-2.5,4.7-3.8,7.1c-0.7,1.3-1.4,2.6-2.1,4c-2,3.4-2,3.4-4.6,6   c-2.1,4.5-3.8,8.7-5.1,13.5c-2.4,7.8-5.1,16-12,20.6c1.7-5.8,3.5-11.4,6.6-16.6c2.7-4.3,2.7-4.3,3.9-9.1c1.4-4.9,3.7-8.1,6.6-12.4   c0.7-2.4,0.7-2.4,1.3-4.8C269.1,311.6,270.5,309.7,274.2,306.6z"/>
	<path class="st36" d="M295.3,233.1c0.4,0,0.9,0,1.3,0c0,6.5,0,13,0,19.7c-0.9,0-1.7,0-2.6,0c-0.4,4.3-0.9,8.7-1.3,13.1   c-2.2,0.9-4.3,1.7-6.6,2.6c1.4-8.5,3.6-16.2,6.7-24.3C294.1,240.6,294.8,237,295.3,233.1z"/>
	<path class="st37" d="M210.6,124.4c1.5,0,3,0.1,4.6,0.1c2.2,0.1,2.2,0.1,4.4,0.2c1.3,0,2.6,0.1,3.9,0.1c3.9,0.7,5.8,1.9,8.7,4.5   c-2.6,0.1-5.3,0.1-7.9,0c-0.7-0.7-0.7-0.7-1.3-1.3c-3.2-0.1-6.3-0.2-9.5-0.2c-1.4,0-1.4,0-2.9,0c-2,0-4,0-6,0c-3.1,0-6.2,0-9.3-0.1   c-2,0-3.9,0-5.9,0c-1.4,0-1.4,0-2.8,0c-4.8,0-6.8,0.2-11,3c-4.2,0.2-4.2,0.2-7.9,0c5.4-5.9,11.4-5.9,19-6.4   C194.8,123.9,202.7,124.2,210.6,124.4z"/>
	<path class="st38" d="M127.2,305.3c0.4,0.9,0.9,1.7,1.3,2.6c0.9,0,1.7,0,2.6,0c0.3,0.9,0.6,1.7,0.9,2.6c1.5,3.4,3.1,6,5.2,9.1   c3,4.6,3.8,7.7,3.1,13.2c-0.9,0-1.7,0-2.6,0c0-1.3,0-2.6,0-3.9c-1.3,0-2.6,0-3.9,0c-0.1-1-0.3-2-0.4-3c-0.6-3.6-0.6-3.6-3-5.5   c-1.9-2-1.9-2-2.1-5.5c0.1-1,0.2-2,0.2-3c-0.9,0-1.7,0-2.6,0C126.3,309.7,126.7,307.6,127.2,305.3z"/>
	<path class="st39" d="M242.7,353.9c1.3,0,2.6,0,3.9,0c0,2.2,0,4.3,0,6.6c-1.3,0.7-1.3,0.7-2.6,1.3c-0.2,1.1-0.4,2.2-0.7,3.3   c-0.2,1.1-0.4,2.2-0.7,3.3c-1.3,0.7-1.3,0.7-2.6,1.3c-0.9,4-0.9,4-1.3,7.9c-1.7,0-3.5,0-5.3,0C234.8,369.3,237.7,360.6,242.7,353.9   z M229.6,378.9c1.3,0.7,1.3,0.7,2.6,1.3c-1.3,0.7-1.3,0.7-2.6,1.3C229.6,380.6,229.6,379.8,229.6,378.9z"/>
	<path class="st40" d="M219.1,260.7c2,0.7,2,0.7,3.9,1.3c-1.3,0.4-2.6,0.9-3.9,1.3c0,0.9,0,1.7,0,2.6c-1.3,0.4-1.3,0.4-2.5,0.8   c-1.1,0.4-2.2,0.7-3.3,1.1c-1.6,0.5-1.6,0.5-3.3,1.1c-2.7,0.8-2.7,0.8-4,2.3c-7,0.4-11.8-0.2-18.4-2.6c-3.1-0.5-6.1-0.9-9.2-1.3   c0-1.3,0-2.6,0-3.9c0.9,0,1.7,0,2.6,0c0,0.9,0,1.7,0,2.6c4.5,0,8.9,0.1,13.4,0.1c1.3,0,2.5,0,3.8,0c1.2,0,2.4,0,3.7,0   c1.1,0,2.2,0,3.4,0c6.6-0.3,6.6-0.3,12.2-3.5C218,261.9,218.6,261.3,219.1,260.7z"/>
	<path class="st41" d="M216.5,196.3c0,0.4,0,0.9,0,1.3c-6.8,0.1-13-0.1-19.7-1.3c-0.4,0.4-0.9,0.9-1.3,1.3c-2,0.1-4,0.1-6,0.1   c-1.1,0-2.2,0-3.3,0c-0.8,0-1.7,0-2.5,0c0,0.9,0,1.7,0,2.6c-1.3-0.4-2.6-0.9-3.9-1.3C191.7,191.2,203.7,189.7,216.5,196.3z"/>
	<path class="st42" d="M237.5,128c5.2,0.8,8.8,2.3,13.3,5c1.1,0.7,2.2,1.3,3.4,2c3.1,2.2,4.8,4.4,7,7.4c1.1,0.4,2.1,0.8,3.2,1.2   c4.3,1.8,6,4.2,8.6,8c-0.9,0.4-1.7,0.9-2.6,1.3c0-0.9,0-1.7,0-2.6c-0.7-0.1-1.5-0.2-2.2-0.3c-4-1.3-6.4-3.6-9.6-6.2   c-1.1-0.7-2.2-1.3-3.4-2c-3.2-2-3.2-2-5.8-4.7c-2.9-2.8-5.5-3.7-9.2-5.2C239.2,130.7,238.4,129.4,237.5,128z"/>
	<path class="st43" d="M272.9,153c2.5,1,2.5,1,5.3,2.6c0.5,1.7,0.9,3.5,1.3,5.3c1.3,0.4,2.6,0.9,3.9,1.3c0.2,0.8,0.4,1.6,0.6,2.5   c0.5,3,0.5,3,3.3,4.6c3.6,2.8,4,5.7,5.3,10c0.9,0.4,1.7,0.9,2.6,1.3c-0.4,1.7-0.9,3.5-1.3,5.3c-1.3-1.4-2.5-2.8-3.8-4.2   c-0.7-0.8-1.4-1.6-2.1-2.4c-2-2.7-2-2.7-3.3-5.9c-2-4.8-5.2-8.3-8.5-12.3C274.3,158.3,273.5,156.4,272.9,153z"/>
	<path class="st44" d="M169.2,397.2c2.6,1.3,2.6,1.3,3.8,4.3c1.7,4.1,4,6.8,6.7,10.2c2.1,3.6,3.2,7,4,11.1c0.3,1.5,0.3,1.5,0.7,3.1   c0.3,1.4,0.3,1.4,0.6,2.9c0.3,1.3,0.5,2.7,0.8,4c0.2,0.8,0.3,1.7,0.5,2.5C177.7,424.7,172.5,410.4,169.2,397.2z"/>
	<path class="st45" d="M292.6,268.6c0.9,0,1.7,0,2.6,0c0,2.6,0,5.2,0,7.9c-0.9,0-1.7,0-2.6,0c-0.2,1.3-0.3,2.5-0.5,3.9   c-0.3,1.3-0.5,2.7-0.8,4c-1.3,0.7-1.3,0.7-2.6,1.3c-0.5,1.7-0.5,1.7-1.1,3.4c-1.9,5.6-4.9,10.1-8.1,15c0-4.1,0.5-5.4,2.5-8.9   c2.5-4.8,3.9-9.5,5.4-14.8C289,276.4,290.8,272.5,292.6,268.6z"/>
	<path class="st46" d="M276.9,305.3c0.4,0,0.9,0,1.3,0c0.7,5.6-1,8.8-3.9,13.5c-1.5,2.3-1.5,2.3-2.5,5.6c-1.9,4.4-4.8,7.4-8,11.1   c-0.9,1.3-1.7,2.6-2.6,3.9c1.4-9,5.4-16.2,10.2-23.7C273.4,312.4,275.2,308.9,276.9,305.3z"/>
	<path class="st47" d="M102.2,262c3.8,5.7,5.7,10.6,7.1,17.3c0.6,2.7,0.6,2.7,3.4,5c1,2.3,1.9,4.7,2.8,7.1c0.5,1.3,0.9,2.5,1.4,3.9   c1.1,3.5,1.1,3.5,1.1,7.4c-3.9-6.1-3.9-6.1-3.9-10.5c-0.9,0-1.7,0-2.6,0c-1.4-2.1-2.7-4.3-3.9-6.6c-0.4-0.4-0.9-0.9-1.3-1.3   c-0.2-1.5-0.4-3-0.6-4.5c-0.3-4.7-0.3-4.7-3.4-7.3C101.9,269,102.1,265.5,102.2,262z"/>
	<path class="st48" d="M189,119.6c1.6,0,3.1,0,4.8,0c1.6,0,3.3,0,5,0c1.6,0,3.3,0,5,0c2.4,0,2.4,0,4.8,0c1.4,0,2.9,0,4.4,0   c4,0.6,5.2,1.3,7.6,4.4c-1.6,0-3.3,0.1-4.9,0.1c-0.9,0-1.8,0-2.8,0c-2.8-0.1-2.8-0.1-5.3-0.8c-9.6-2.3-20.6-0.6-30.3,0.7   C180.5,119.5,183.5,119.7,189,119.6z"/>
	<path class="st49" d="M230.9,392c0.4,0.9,0.9,1.7,1.3,2.6c-3.1,7.1-7,13.3-11.3,19.6c-2,3-3.9,6.1-5.8,9.3c-1.5-4.9-1.5-4.9,0-7.9   c0.9,0,1.7,0,2.6,0c0.1-0.9,0.3-1.9,0.4-2.9c1-4.1,2.4-6.9,4.8-10.3c0.9,0,1.7,0,2.6,0c0.2-1.9,0.2-1.9,0.4-3.8   C227,394.6,227,394.6,230.9,392z"/>
	<path class="st50" d="M190.2,183.2c-1.1,0.5-1.1,0.5-2.3,1.1c-3.8,2-7.4,4.4-11,6.8c-2.5,1.3-2.5,1.3-6.4,1.3   c-0.4,1.3-0.9,2.6-1.3,3.9c-0.9,0-1.7,0-2.6,0c-0.2,0.8-0.3,1.5-0.5,2.3c-0.9,3.1-2.1,4.9-4.1,7.5c-2.4,3.2-4.4,6.2-6,9.8   c-0.6-8,3.3-12.2,7.9-18.4c1.3-1.8,1.3-1.8,2.5-3.7c3.6-3.8,7.2-5.7,11.9-8.1c0.9-0.5,1.8-1.1,2.8-1.6   C184.3,182.9,186.9,183,190.2,183.2z"/>
	<path class="st51" d="M108.8,187.1c1.3,3.9,1.3,3.9,0.2,6.5c-0.5,0.9-1,1.8-1.5,2.7c-0.5,1.9-0.9,3.8-1.3,5.7   c-1.1,5.2-2.4,10.3-3.9,15.3c-0.4,0-0.9,0-1.3,0c-0.1-2.8-0.1-5.6-0.2-8.4c0-1.6-0.1-3.1-0.1-4.7c0.3-4,0.3-4,2.9-6.6   c0.4-1.3,0.9-2.6,1.3-3.9C106.2,189.8,106.2,189.8,108.8,187.1z"/>
	<path class="st52" d="M182.3,422.2c2,1.3,2,1.3,3.9,2.6c0,0.9,0,1.7,0,2.6c0.9,0,1.7,0,2.6,0c0.4-1.3,0.9-2.6,1.3-3.9   c0.9,0.4,1.7,0.9,2.6,1.3c1.8,5.5,1,10.2,0,15.8c-0.9-1.3-1.7-2.6-2.6-3.9c-1.3-0.4-2.6-0.9-3.9-1.3c-1.2-3-1.2-3-2.2-6.6   c-0.3-1.2-0.7-2.4-1-3.7C182.8,424.1,182.6,423.2,182.3,422.2z"/>
	<path class="st53" d="M123.2,155.6c0,5.8-2.8,9.1-6.4,13.5c-3.1,4.1-5.4,8.3-7.7,12.8c-1.6,2.6-1.6,2.6-5.6,5.2   c1.2-3.4,2.4-6.2,4.6-9.1c2.2-2.7,2.2-2.7,3.3-6.6c1.3-3.8,2.5-6.2,5.3-9.2c0.9,0,1.7,0,2.6,0c0.4-0.8,0.8-1.7,1.2-2.5   C121.9,156.9,121.9,156.9,123.2,155.6z"/>
	<path class="st54" d="M127.2,321.1c7.2,6.8,10.6,12.8,13.3,22.2c1.2,3,2.8,4.4,5,6.7c-0.4,2.9-0.4,2.9-1.3,5.3   c-0.6-0.9-1.1-1.9-1.7-2.9c-1.4-2.3-2.8-4.6-4.2-6.9c-3.6-5.9-6.5-11.2-8.5-17.8c-0.9-0.4-1.7-0.9-2.6-1.3   C127.2,324.6,127.2,322.9,127.2,321.1z"/>
	<path class="st55" d="M104.8,208.1c0.4,0,0.9,0,1.3,0c0,1.4-0.1,2.9-0.1,4.3c0,1.9,0,3.8-0.1,5.7c0,1.4,0,1.4-0.1,2.8   c-0.1,5.9,0.8,10.4,2.9,16c0.3,3.4,0.3,3.4,0.2,6.4c0,1,0,2.1-0.1,3.1c0,1.1,0,1.1-0.1,2.3c-4.6-8.5-5.6-15.7-5.5-25.2   c0-1.1,0-2.1,0-3.2C103.3,215.9,103.4,212.5,104.8,208.1z"/>
	<path class="st56" d="M198.5,190.8c1.5,0,1.5,0,2.9,0.1c2.4,0,4.8,0.1,7.1,0.2c0.4,0.9,0.9,1.7,1.3,2.6c-1.5-0.1-1.5-0.1-3-0.2   c-11.5-0.4-20.2,1.4-29.7,8.1c-2.7,2.6-5.4,5.2-8,7.9c1.8-6.9,6.3-10.4,11.8-14.4c1-0.7,1.9-1.4,2.9-2.2   C188.8,190.5,193.2,190.6,198.5,190.8z"/>
	<path class="st57" d="M110.1,166.1c1.3,0.4,2.6,0.9,3.9,1.3c-2.1,5.2-4.4,10.1-7.2,15c-3,5.4-5.2,10.7-7.2,16.5c-0.4,0-0.9,0-1.3,0   c-0.9-7.1,1.5-11.5,4.8-17.6C105.6,176.4,107.9,171.3,110.1,166.1z"/>
	<path class="st58" d="M219.1,414.3c0.8,2.4,0.8,2.4,1.3,5.3c-1.3,2-1.3,2-2.6,3.9c-0.3,1.1-0.7,2.2-1,3.4   c-2.8,7.7-6.6,15.7-13.5,20.3c0.4-0.7,0.7-1.4,1.1-2.1c2.7-5.6,5-11.4,7.4-17.1c1.8-3.9,3.7-7.4,6-11   C218.2,416.1,218.6,415.2,219.1,414.3z"/>
	<path class="st59" d="M175.8,248.9c1.7,0,3.5,0,5.3,0c0.7,1.1,1.4,2.1,2.2,3.2c3.5,3.8,4.2,3.9,9.1,4.3c2.3,0.1,4.6,0.1,6.8,0.1   c1.7,0,1.7,0,3.5,0.1c2.9,0.1,5.7,0.1,8.6,0.1c0-0.9,0-1.7,0-2.6c2.2-0.4,4.3-0.9,6.6-1.3c-2.3,3.3-4.1,5-8.1,5.8   c-3.6,0.2-7.1,0.3-10.7,0.3c-1.2,0-2.4,0.1-3.7,0.1c-8,0-12.3-1.4-18-7C175.8,250.2,175.8,250.2,175.8,248.9z"/>
	<path class="st60" d="M248,360.5c0.4,1.7,0.9,3.5,1.3,5.3c-1.3,0.7-1.3,0.7-2.6,1.3c-1.3,2.5-2.6,4.9-3.8,7.5   c-2.8,5.7-5.6,11-9.4,16.2c0-4.5,0.6-8.7,1.3-13.1c1.3-0.4,2.6-0.9,3.9-1.3c1.8-2.6,1.8-2.6,3.4-5.7C244,367,245.8,363.8,248,360.5   z"/>
	<path class="st61" d="M302.6,410c3.2,1.7,3.2,1.7,4.3,4.5c0.1,0.8,0.2,1.6,0.2,2.5c-3.3,2-3.3,2-6.6,3.9c-2-1.6-2-1.6-3.9-3.9   c-0.2-3.5-0.2-3.5,0-6.6C299.2,409.1,299.2,409.1,302.6,410z"/>
	<path class="st62" d="M102.2,188.4c0.4,0,0.9,0,1.3,0c0.3,7.4,0.3,7.4-2.6,11.8c-0.6,3.5-0.6,3.5-0.7,7.3c-0.4,6.9-0.4,6.9-1.9,9.8   c-0.9,0-1.7,0-2.6,0c-0.6-9.7,1.3-16.2,5.3-25C101.3,191.1,101.8,189.8,102.2,188.4z"/>
	<path class="st63" d="M142.9,138.5c0.9,0.4,1.7,0.9,2.6,1.3c-1.5,1.3-2.9,2.6-4.4,3.9c-1.2,1.1-1.2,1.1-2.5,2.2   c-2.3,1.7-2.3,1.7-4.9,1.7c-0.4,1.3-0.9,2.6-1.3,3.9c-1.3,0-2.6,0-3.9,0c-0.4,1.3-0.9,2.6-1.3,3.9c-0.9-0.4-1.7-0.9-2.6-1.3   c0.9-2.2,1.7-4.3,2.6-6.6c0.9,0,1.7,0,2.6,0c0-0.9,0-1.7,0-2.6c1.2-0.4,2.4-0.7,3.6-1.1C137.3,142.6,139.8,141.2,142.9,138.5z"/>
	<path class="st64" d="M222.5,465.4c1,0.1,2.1,0.1,3.1,0.2c0.1,2.6,0.1,5.3,0,7.9c-1.3,1.3-1.3,1.3-4.7,1.4c-1.6,0-1.6,0-3.2-0.1   c-0.8-3.1-0.8-3.1-1.3-6.6C219.1,465.5,219.1,465.5,222.5,465.4z"/>
	<path class="st65" d="M182.3,405.1c0.4,0.9,0.9,1.7,1.3,2.6c0.9,0,1.7,0,2.6,0c3.9,7.4,3.9,7.4,3.9,11.8c0.9,0,1.7,0,2.6,0   c0,1.7,0,3.5,0,5.3c-3.6-1.3-5-2.2-6.9-5.6c-0.6-1.7-0.6-1.7-1.3-3.5c-0.4-1.1-0.9-2.3-1.3-3.5   C182.3,409.1,182.3,409.1,182.3,405.1z"/>
	<path class="st66" d="M167.9,209.5c0.4,0,0.9,0,1.3,0c-0.1,1.5-0.2,3-0.3,4.5c-0.1,2-0.3,4-0.4,6c-0.1,1.5-0.1,1.5-0.2,3   c-0.4,6.7-0.1,12.8,1,19.4c-3.5-3.5-4-5.4-4.4-10.5c0-2,0-4,0.1-6c0-1,0-2,0-3C164.9,217.8,165,213.7,167.9,209.5z"/>
	<path class="st67" d="M295.3,191.1c0.9,0,1.7,0,2.6,0c0.3,0.8,0.5,1.7,0.8,2.5c0.4,1.1,0.7,2.2,1.1,3.3c0.4,1.1,0.7,2.2,1.1,3.3   c0.8,2.7,0.8,2.7,2.3,4c0.1,2.9,0.1,5.7,0.1,8.6c0,1.6,0,3.1,0,4.8c0,1.2,0,2.4,0,3.7c-0.4,0-0.9,0-1.3,0c-0.3-2.6-0.5-5.1-0.8-7.7   c-0.4-2.8-0.4-2.8-1.8-5.3c-1.7-3.4-2.2-6.6-2.8-10.3c-0.2-1.3-0.4-2.6-0.7-3.9C295.6,193.1,295.4,192.1,295.3,191.1z"/>
	<path class="st68" d="M107.5,271.2c0.4,0,0.9,0,1.3,0c0,2.2,0,4.3,0,6.6c2.6,0.7,2.6,0.7,5.3,1.3c0.4-1.7,0.9-3.5,1.3-5.3   c0,1,0,1.9,0,2.9c0,1.3,0,2.6,0,3.9c0,1.3,0,2.5,0,3.8c0.1,3.6,0.6,6.9,1.4,10.4c-3.1-3.8-4.8-7.3-6.6-11.8   c-0.9-1.3-1.7-2.6-2.6-3.9C107.3,274.9,107.3,274.9,107.5,271.2z"/>
	<path class="st69" d="M167.9,206.8c0.4,0.9,0.9,1.7,1.3,2.6c-0.6,1-0.6,1-1.2,2.1c-2.1,4.7-1.7,9.3-1.7,14.3c0,1,0,2,0,3   c0,4.7,0.3,8.9,1.6,13.4c-0.9,0-1.7,0-2.6,0c-1.9-5.6-1.6-11.1-1.6-17c0-1.2-0.1-2.4-0.1-3.6c0-1.2,0-2.3,0-3.5c0-1,0-2.1,0-3.2   C164,211.4,165.5,209.6,167.9,206.8z"/>
	<path class="st70" d="M213.8,418.3c0.5,8.6,0.5,8.6-2,11.7c-0.7,0.5-1.3,0.9-2,1.4c-0.4-1.3-0.9-2.6-1.3-3.9   c-1.3,0.9-2.6,1.7-3.9,2.6c1.9-8.7,1.9-8.7,5.3-11.1C212.5,418.3,212.5,418.3,213.8,418.3z"/>
	<path class="st44" d="M145.5,355.2c4.9,3.3,7.1,6.6,8.8,12.2c0.1,0.7,0.3,1.5,0.4,2.2c0.9,0,1.7,0,2.6,0c0.4,2.6,0.9,5.2,1.3,7.9   c-4.4-4-6.7-7.8-9.2-13.1c-1.1-1.8-1.1-1.8-2.2-3.6C145.5,357.9,145.5,357.9,145.5,355.2z"/>
	<path class="st71" d="M251.9,138.5c9,2.8,15.5,5.3,21,13.1c-1.3,0.7-1.3,0.7-2.6,1.3c0-0.9,0-1.7,0-2.6c-0.7-0.1-1.5-0.2-2.2-0.3   c-4-1.3-6.4-3.6-9.6-6.2c-1.2-0.7-2.4-1.5-3.7-2.2c-0.9-0.6-1.9-1.1-2.9-1.7C251.9,139.4,251.9,139,251.9,138.5z"/>
	<path class="st72" d="M234.8,130.7c2.4,0.6,4.7,1.1,7.1,1.7c1.3,0.3,2.6,0.6,4,1c3.4,1.2,3.4,1.2,6,5.2c-6.9,0.5-11-1-17.1-3.9   C234.8,133.3,234.8,132,234.8,130.7z"/>
	<path class="st73" d="M139,347.3c4.5,2.9,6.5,5.7,8.9,10.5c0.6,1.1,1.1,2.3,1.7,3.4c1.3,3.1,1.3,3.1,1.3,7.1   c-1.3-0.9-2.6-1.7-3.9-2.6c0-1.7,0-3.5,0-5.3c-1.3-0.4-2.6-0.9-3.9-1.3C141.1,355.3,139.9,351.5,139,347.3z"/>
	<path class="st74" d="M379.3,355.2c2.2,0.4,4.3,0.9,6.6,1.3c-0.4,2.2-0.9,4.3-1.3,6.6c-2.2-0.4-4.3-0.9-6.6-1.3   C378.4,359.6,378.9,357.5,379.3,355.2z"/>
	<path class="st75" d="M215.1,124.1c15.1-1.4,15.1-1.4,22,3.9c1.5,1.3,2.9,2.6,4.3,3.9c-4.2,0-5.2-0.5-8.7-2.5   c-5.8-3-11.1-3.7-17.6-4C215.1,125,215.1,124.5,215.1,124.1z"/>
	<path class="st76" d="M211.2,436.6c0.8,2.5,0.8,2.5,1.3,5.3c-0.9,0.9-1.7,1.7-2.6,2.6c-0.4,1.1-0.8,2.2-1.2,3.4   c-0.5,1.1-0.9,2.1-1.4,3.2c-1.3,0.4-2.6,0.9-3.9,1.3C203.9,445.8,207.3,441.7,211.2,436.6z"/>
	<path class="st77" d="M259.8,339.5c0,4.5-1,6.6-3,10.6c-0.6,1.2-1.1,2.3-1.7,3.5c-1.8,3-1.8,3-5.8,5.6   C251.5,351.1,254,345.6,259.8,339.5z"/>
	<path class="st78" d="M296.6,248.9c0.4,0,0.9,0,1.3,0c0.2,3.1,0.2,3.1,0,6.6c-0.9,0.9-1.7,1.7-2.6,2.6c-0.3,2.5-0.6,5.1-0.9,7.6   c-0.7,4.4-2.5,8-4.4,12c-0.8-2.3-0.8-2.3-1.3-5.3c0.4-0.8,0.8-1.5,1.2-2.3c1.7-3.5,2.3-6.7,2.9-10.5c0.2-1.3,0.4-2.6,0.7-3.9   c0.2-1,0.3-2,0.5-3c0.9,0,1.7,0,2.6,0C296.6,251.5,296.6,250.2,296.6,248.9z"/>
	<path class="st79" d="M186.3,435.3c1.7,0.4,3.5,0.9,5.3,1.3c4.1,7.6,4.1,7.6,3.5,12.4c-0.3,0.7-0.6,1.4-0.9,2.1c0-1.3,0-2.6,0-3.9   c-1.3,0-2.6,0-3.9,0C188.9,443.2,187.6,439.3,186.3,435.3z"/>
	<path class="st80" d="M192.8,447.1c2.6,3.9,2.6,3.9,2.6,6.6c2.6-0.4,5.2-0.9,7.9-1.3c0,1.7,0,3.5,0,5.3c-2.6,0-5.2,0-7.9,0   C193.1,453.6,192.8,452.1,192.8,447.1z"/>
	<path class="st81" d="M244,360.5c1.3,0,2.6,0,3.9,0c-2.6,5.3-5.3,10.5-7.9,15.8c-0.4,0-0.9,0-1.3,0c0-2.2,0-4.3,0-6.6   c1.3-0.4,2.6-0.9,3.9-1.3c0-1.1-0.1-2.1-0.1-3.2C242.7,361.8,242.7,361.8,244,360.5z"/>
	<path class="st82" d="M290,181.9c3.1,1.6,4.9,3.1,6.2,6.4c1.3,5,1.9,8.3,0.3,13.3C293.6,195.1,291.6,188.9,290,181.9z"/>
	<path class="st83" d="M119.3,302.7c5.1,5.5,6.4,9.9,7.9,17.1c-4.3-2.9-5.7-4.6-7.9-9.2C119,306.2,119,306.2,119.3,302.7z"/>
	<path class="st84" d="M284.8,284.3c1.6,3.9,1.3,5.2-0.3,9.2c-1.1,2.1-1.1,2.1-2.3,4.2c-0.7,1.4-1.5,2.8-2.3,4.3   c-0.6,1.1-1.2,2.2-1.8,3.3c-1.6-3.9-1.3-5.2,0.3-9.2c0.7-1.4,1.5-2.8,2.3-4.2c0.7-1.4,1.5-2.8,2.3-4.3   C283.6,286.5,284.1,285.4,284.8,284.3z"/>
	<path class="st85" d="M110.1,288.2c0.4,1.3,0.9,2.6,1.3,3.9c0.9,0,1.7,0,2.6,0c3.8,8.7,3.8,8.7,5.3,13.1c-2.5-0.2-2.5-0.2-5.3-1.3   C111.8,298.9,110.9,293.7,110.1,288.2z"/>
	<path class="st86" d="M179.7,254.1c2.6,1.3,2.6,1.3,5.3,2.6c0,0.9,0,1.7,0,2.6c6.5,0.4,13,0.9,19.7,1.3c0,0.4,0,0.9,0,1.3   c-14.8,0.3-14.8,0.3-21-1.3C181.1,257.3,181.1,257.3,179.7,254.1z"/>
	<path class="st87" d="M263.7,147.7c3.3,1.3,3.3,1.3,6.6,2.6c0,0.9,0,1.7,0,2.6c1.3,0.4,2.6,0.9,3.9,1.3c0.9,2.7,0.9,2.7,1.3,5.3   c-1.3-0.4-2.6-0.9-3.9-1.3c0-0.9,0-1.7,0-2.6c-1.1-0.3-2.1-0.7-3.2-1c-3.4-1.6-3.4-1.6-4.4-4.4   C263.9,149.4,263.8,148.6,263.7,147.7z"/>
	<path class="st88" d="M215.1,195c1.8,0.9,3.5,1.8,5.3,2.6c0.9,0.4,1.8,0.8,2.7,1.2c2.8,1.5,4.6,2.8,6.5,5.3   c-0.4,2.9-0.4,2.9-1.3,5.3c0-0.9,0-1.7,0-2.6c-1.3-0.4-2.6-0.9-3.9-1.3c-0.4-1.3-0.9-2.6-1.3-3.9c-2.2-1.4-4.4-2.7-6.6-3.9   C216,196.8,215.6,195.9,215.1,195z"/>
	<path class="st89" d="M182.3,422.2c2,1.3,2,1.3,3.9,2.6c0,0.9,0,1.7,0,2.6c0.9,0,1.7,0,2.6,0c0.4,2.6,0.9,5.2,1.3,7.9   c-1.3,0-2.6,0-3.9,0C185,431,183.7,426.7,182.3,422.2z"/>
	<path class="st90" d="M241.4,348.7c0.9,0,1.7,0,2.6,0c-3.1,6.1-6.1,12.3-9.2,18.4c-0.4-0.9-0.9-1.7-1.3-2.6c1.6-3.7,1.6-3.7,3.9-8   c0.7-1.4,1.5-2.9,2.3-4.4C240.2,350.9,240.8,349.8,241.4,348.7z"/>
	<path class="st91" d="M209.9,125.4c2.7-0.1,5.5-0.2,8.2-0.2c2.3-0.1,2.3-0.1,4.6-0.1c4.5,0.4,6.2,1.2,9.5,4.3   c-2.6,0.1-5.3,0.1-7.9,0c-0.4-0.4-0.9-0.9-1.3-1.3c-2.2-0.3-4.4-0.5-6.6-0.7c-1.2-0.1-2.4-0.2-3.7-0.3c-1.4-0.1-1.4-0.1-2.8-0.2   C209.9,126.3,209.9,125.9,209.9,125.4z"/>
	<path class="st92" d="M230.9,392c0.4,0.9,0.9,1.7,1.3,2.6c-0.9,2.5-0.9,2.5-2.4,5.3c-0.5,0.9-0.9,1.9-1.4,2.8   c-1.5,2.3-1.5,2.3-4.1,3.6c0.3-1.9,0.7-3.8,1.1-5.7c0.2-1.1,0.4-2.1,0.6-3.2C227,394.6,227,394.6,230.9,392z"/>
	<path class="st93" d="M286.1,171.4c1.8,1.8,3.5,3.5,5.3,5.3c0.8,0.7,1.6,1.3,2.4,2c0.5,0.7,1,1.3,1.6,2c-0.6,2.7-0.6,2.7-1.3,5.3   c-1.3-1.4-2.6-2.8-3.9-4.3c-0.7-0.8-1.5-1.6-2.2-2.4C286.1,176.6,286.1,176.6,286.1,171.4z"/>
	<path class="st94" d="M111.4,260.7c5.6,8.4,5.6,8.4,5.3,14.4c0.9,0,1.7,0,2.6,0c0,0.9,0,1.7,0,2.6c-3.9-1.3-3.9-1.3-5.2-3.6   c-0.3-0.9-0.6-1.8-1-2.8c-0.3-0.9-0.7-1.8-1-2.7C111.4,265.9,111.4,265.9,111.4,260.7z"/>
	<path class="st95" d="M103.5,181.9c0.9,0.4,1.7,0.9,2.6,1.3c-3.3,7.8-3.3,7.8-6.6,15.8c-0.4,0-0.9,0-1.3,0   C97.6,191.6,99.7,187.9,103.5,181.9z"/>
	<path class="st96" d="M190.2,120.2c-0.4,0.9-0.9,1.7-1.3,2.6c-2.7,0.5-2.7,0.5-6,0.8c-1.1,0.1-2.2,0.2-3.3,0.3   c-1.3,0.1-1.3,0.1-2.5,0.2C181.1,119.4,184.1,119.8,190.2,120.2z"/>
	<path class="st97" d="M173.1,410.4c4.1,3.3,5.1,6.8,6.6,11.8c0.4,1.3,0.9,2.6,1.3,3.9c-1.3-0.4-2.6-0.9-3.9-1.3   c-0.4-3-0.9-6.1-1.3-9.2c-0.9,0-1.7,0-2.6,0C173.1,413.9,173.1,412.2,173.1,410.4z"/>
	<path class="st98" d="M125.9,315.8c0.9,0,1.7,0,2.6,0c0.1,0.8,0.3,1.7,0.4,2.5c0.3,0.9,0.6,1.8,0.9,2.7c1.3,0.4,2.6,0.9,3.9,1.3   c-0.4,1.7-0.9,3.5-1.3,5.3C126.6,320.9,126.6,320.9,125.9,315.8z"/>
	<path class="st99" d="M265.1,332.9c1.3,3.9,1.3,3.9,0.3,6.3c-1.4,2.3-2.8,4.5-4.2,6.8c-0.9,0-1.7,0-2.6,0   C260.2,341.3,262.4,337.2,265.1,332.9z"/>
	<path class="st100" d="M102.2,188.4c0.4,0,0.9,0,1.3,0c0.5,6.4-0.8,10.2-3.9,15.8c-1.5-4.3-1.2-6.6,0.6-10.8   c0.4-0.9,0.8-1.9,1.1-2.8C101.6,189.9,101.9,189.2,102.2,188.4z"/>
	<path class="st101" d="M179.7,126.7c-1.5,2-1.5,2-3.9,3.9c-4.2,0.2-4.2,0.2-7.9,0C171.3,126.1,174.2,126.4,179.7,126.7z"/>
	<path class="st102" d="M234.8,377.5c1.3,0,2.6,0,3.9,0c-0.6,1.9-1.2,3.9-1.8,5.8c-0.3,1.1-0.7,2.2-1,3.3c-1.1,2.7-1.1,2.7-3.7,4   C233.1,386.3,234,382,234.8,377.5z"/>
	<path class="st103" d="M158.7,377.5c3.9,1.3,3.9,1.3,5.6,4.4c1,3.4,1,3.4-0.3,7.4C158.7,380.5,158.7,380.5,158.7,377.5z"/>
	<path class="st104" d="M107.5,272.2c0.4,0,0.9,0,1.3,0c0,2.2,0,4.3,0,6.6c1.3,0.4,2.6,0.9,3.9,1.3c-0.4,1.7-0.9,3.5-1.3,5.3   c-3.1-3.3-3.9-4.9-4.2-9.5C107.3,274.6,107.4,273.4,107.5,272.2z"/>
</g>
</svg>