<svg xmlns="http://www.w3.org/2000/svg" xmlns:xlink="http://www.w3.org/1999/xlink" width="2000" height="2500" preserveAspectRatio="xMidYMid" viewBox="0 0 256 320"><defs><path id="a" d="M126.19 255.89.75 130.45c-1-1-1-2.62 0-3.62L126.19 1.39c1-1 2.62-1 3.62 0l125.44 125.44c1 1 1 2.62 0 3.62L129.81 255.89c-1 1-2.62 1-3.62 0"/><path id="d" d="M129.825 193.069a2.58 2.58 0 0 0-3.65 0l-35.071 35.07a2.583 2.583 0 0 0 0 3.651l35.07 35.07a2.58 2.58 0 0 0 3.651 0l35.071-35.07a2.583 2.583 0 0 0 0-3.65l-35.07-35.071z"/><path id="f" d="M174.999 147.895a2.58 2.58 0 0 0-3.65 0l-35.07 35.07a2.58 2.58 0 0 0 0 3.65l35.07 35.07a2.583 2.583 0 0 0 3.65 0l35.07-35.07a2.58 2.58 0 0 0 0-3.65L175 147.895z"/><path id="h" d="m119.721 182.965-35.07-35.07a2.58 2.58 0 0 0-3.65 0l-35.07 35.07a2.58 2.58 0 0 0 0 3.65L81 221.685a2.583 2.583 0 0 0 3.65 0l35.07-35.07a2.58 2.58 0 0 0 0-3.65z"/><path id="j" d="m255.244 137.79-35.07-35.07a2.583 2.583 0 0 0-3.65 0l-35.071 35.07a2.583 2.583 0 0 0 0 3.651l35.07 35.07a2.58 2.58 0 0 0 3.651 0l35.07-35.07a2.58 2.58 0 0 0 0-3.65z"/><path id="l" d="m126.175 102.72-35.071 35.07a2.583 2.583 0 0 0 0 3.651l35.07 35.07a2.58 2.58 0 0 0 3.651 0l35.071-35.07a2.583 2.583 0 0 0 0-3.65l-35.07-35.07a2.583 2.583 0 0 0-3.651 0z"/><path id="n" d="m74.547 141.441-35.07 35.07a2.58 2.58 0 0 1-3.651 0L.756 141.44a2.58 2.58 0 0 1 0-3.65l35.07-35.07a2.583 2.583 0 0 1 3.65 0l35.071 35.07a2.583 2.583 0 0 1 0 3.65z"/><path id="p" d="m136.279 91.114 35.07 35.071a2.58 2.58 0 0 0 3.65 0l35.07-35.07a2.58 2.58 0 0 0 0-3.651L175 52.394a2.58 2.58 0 0 0-3.65 0l-35.07 35.07a2.58 2.58 0 0 0 0 3.65z"/><path id="r" d="M81.001 126.185a2.58 2.58 0 0 0 3.65 0l35.07-35.07a2.58 2.58 0 0 0 0-3.651l-35.07-35.07a2.58 2.58 0 0 0-3.65 0l-35.07 35.07a2.58 2.58 0 0 0 0 3.65L81 126.185z"/><path id="t" d="M126.175 74.546a2.58 2.58 0 0 0 3.65 0l35.071-35.07a2.583 2.583 0 0 0 0-3.65L129.826.756a2.583 2.583 0 0 0-3.651 0l-35.071 35.07a2.583 2.583 0 0 0 0 3.65l35.07 35.07z"/><filter id="e" width="200%" height="200%" x="-50%" y="-50%" filterUnits="objectBoundingBox"><feOffset dy="7" in="SourceAlpha" result="shadowOffsetOuter1"/><feGaussianBlur in="shadowOffsetOuter1" result="shadowBlurOuter1" stdDeviation="3.5"/><feColorMatrix in="shadowBlurOuter1" values="0 0 0 0 0 0 0 0 0 0 0 0 0 0 0 0 0 0 0.2 0"/></filter><filter id="g" width="200%" height="200%" x="-50%" y="-50%" filterUnits="objectBoundingBox"><feOffset dy="7" in="SourceAlpha" result="shadowOffsetOuter1"/><feGaussianBlur in="shadowOffsetOuter1" result="shadowBlurOuter1" stdDeviation="3.5"/><feColorMatrix in="shadowBlurOuter1" values="0 0 0 0 0 0 0 0 0 0 0 0 0 0 0 0 0 0 0.2 0"/></filter><filter id="i" width="200%" height="200%" x="-50%" y="-50%" filterUnits="objectBoundingBox"><feOffset dy="7" in="SourceAlpha" result="shadowOffsetOuter1"/><feGaussianBlur in="shadowOffsetOuter1" result="shadowBlurOuter1" stdDeviation="3.5"/><feColorMatrix in="shadowBlurOuter1" values="0 0 0 0 0 0 0 0 0 0 0 0 0 0 0 0 0 0 0.2 0"/></filter><filter id="k" width="200%" height="200%" x="-50%" y="-50%" filterUnits="objectBoundingBox"><feOffset dy="7" in="SourceAlpha" result="shadowOffsetOuter1"/><feGaussianBlur in="shadowOffsetOuter1" result="shadowBlurOuter1" stdDeviation="3.5"/><feColorMatrix in="shadowBlurOuter1" values="0 0 0 0 0 0 0 0 0 0 0 0 0 0 0 0 0 0 0.2 0"/></filter><filter id="m" width="200%" height="200%" x="-50%" y="-50%" filterUnits="objectBoundingBox"><feOffset dy="7" in="SourceAlpha" result="shadowOffsetOuter1"/><feGaussianBlur in="shadowOffsetOuter1" result="shadowBlurOuter1" stdDeviation="3.5"/><feColorMatrix in="shadowBlurOuter1" values="0 0 0 0 0 0 0 0 0 0 0 0 0 0 0 0 0 0 0.2 0"/></filter><filter id="o" width="200%" height="200%" x="-50%" y="-50%" filterUnits="objectBoundingBox"><feOffset dy="7" in="SourceAlpha" result="shadowOffsetOuter1"/><feGaussianBlur in="shadowOffsetOuter1" result="shadowBlurOuter1" stdDeviation="3.5"/><feColorMatrix in="shadowBlurOuter1" values="0 0 0 0 0 0 0 0 0 0 0 0 0 0 0 0 0 0 0.2 0"/></filter><filter id="q" width="200%" height="200%" x="-50%" y="-50%" filterUnits="objectBoundingBox"><feOffset dy="7" in="SourceAlpha" result="shadowOffsetOuter1"/><feGaussianBlur in="shadowOffsetOuter1" result="shadowBlurOuter1" stdDeviation="3.5"/><feColorMatrix in="shadowBlurOuter1" values="0 0 0 0 0 0 0 0 0 0 0 0 0 0 0 0 0 0 0.2 0"/></filter><filter id="s" width="200%" height="200%" x="-50%" y="-50%" filterUnits="objectBoundingBox"><feOffset dy="7" in="SourceAlpha" result="shadowOffsetOuter1"/><feGaussianBlur in="shadowOffsetOuter1" result="shadowBlurOuter1" stdDeviation="3.5"/><feColorMatrix in="shadowBlurOuter1" values="0 0 0 0 0 0 0 0 0 0 0 0 0 0 0 0 0 0 0.2 0"/></filter><filter id="u" width="200%" height="200%" x="-50%" y="-50%" filterUnits="objectBoundingBox"><feOffset dy="7" in="SourceAlpha" result="shadowOffsetOuter1"/><feGaussianBlur in="shadowOffsetOuter1" result="shadowBlurOuter1" stdDeviation="3.5"/><feColorMatrix in="shadowBlurOuter1" values="0 0 0 0 0 0 0 0 0 0 0 0 0 0 0 0 0 0 0.2 0"/></filter><linearGradient id="b" x1="50%" x2="50%" y1="0%" y2="100%"><stop offset="0%" stop-color="#7540B7"/><stop offset="100%" stop-color="#9351E5"/></linearGradient><linearGradient id="v" x1="50%" x2="50%" y1="100%" y2="0%"><stop offset="0%" stop-color="#E9DCF9"/><stop offset="100%" stop-color="#FFF"/></linearGradient><linearGradient id="w" x1="-63.234%" x2="-63.234%" y1="100%" y2="0%"><stop offset="0%" stop-color="#DECBF7"/><stop offset="100%" stop-color="#F4EDFC"/></linearGradient><linearGradient id="x" x1="50%" x2="50%" y1="0%" y2="100%"><stop offset="0%" stop-color="#D3B9F4"/><stop offset="100%" stop-color="#BE96EF"/></linearGradient><linearGradient id="y" x1="50%" x2="50%" y1="0%" y2="100%"><stop offset="0%" stop-color="#BE96EF"/><stop offset="100%" stop-color="#A873EA"/></linearGradient><linearGradient id="z" x1="50%" x2="50%" y1="0%" y2="100%"><stop offset="0%" stop-color="#A873EA"/><stop offset="100%" stop-color="#9351E5"/></linearGradient></defs><g transform="translate(0 62.72)"><mask id="c" fill="#fff"><use xlink:href="#a"/></mask><use xlink:href="#a" fill="url(#b)"/><g mask="url(#c)"><use xlink:href="#d" filter="url(#e)" transform="translate(0 -62.72)"/><use xlink:href="#f" filter="url(#g)" transform="translate(0 -62.72)"/><use xlink:href="#h" filter="url(#i)" transform="translate(0 -62.72)"/><use xlink:href="#j" filter="url(#k)" transform="translate(0 -62.72)"/><use xlink:href="#l" filter="url(#m)" transform="translate(0 -62.72)"/><use xlink:href="#n" filter="url(#o)" transform="translate(0 -62.72)"/><use xlink:href="#p" filter="url(#q)" transform="translate(0 -62.72)"/><use xlink:href="#r" filter="url(#s)" transform="translate(0 -62.72)"/><use xlink:href="#t" filter="url(#u)" transform="translate(0 -62.72)"/></g></g><path fill="url(#v)" d="M129.825 193.069a2.58 2.58 0 0 0-3.65 0l-35.071 35.07a2.583 2.583 0 0 0 0 3.651l35.07 35.07a2.58 2.58 0 0 0 3.651 0l35.071-35.07a2.583 2.583 0 0 0 0-3.65l-35.07-35.071z"/><path fill="url(#w)" d="M174.999 147.895a2.58 2.58 0 0 0-3.65 0l-35.07 35.07a2.58 2.58 0 0 0 0 3.65l35.07 35.07a2.583 2.583 0 0 0 3.65 0l35.07-35.07a2.58 2.58 0 0 0 0-3.65L175 147.895zm-55.278 35.07-35.07-35.07a2.58 2.58 0 0 0-3.65 0l-35.07 35.07a2.58 2.58 0 0 0 0 3.65L81 221.685a2.583 2.583 0 0 0 3.65 0l35.07-35.07a2.58 2.58 0 0 0 0-3.65z"/><path fill="url(#x)" d="m255.244 137.79-35.07-35.07a2.583 2.583 0 0 0-3.65 0l-35.071 35.07a2.583 2.583 0 0 0 0 3.651l35.07 35.07a2.58 2.58 0 0 0 3.651 0l35.07-35.07a2.58 2.58 0 0 0 0-3.65zm-129.069-35.07-35.071 35.07a2.583 2.583 0 0 0 0 3.651l35.07 35.07a2.58 2.58 0 0 0 3.651 0l35.071-35.07a2.583 2.583 0 0 0 0-3.65l-35.07-35.07a2.583 2.583 0 0 0-3.651 0zm-51.628 38.721-35.07 35.07a2.58 2.58 0 0 1-3.651 0L.756 141.44a2.58 2.58 0 0 1 0-3.65l35.07-35.07a2.583 2.583 0 0 1 3.65 0l35.071 35.07a2.583 2.583 0 0 1 0 3.65z"/><path fill="url(#y)" d="m136.279 91.114 35.07 35.071a2.58 2.58 0 0 0 3.65 0l35.07-35.07a2.58 2.58 0 0 0 0-3.651L175 52.394a2.58 2.58 0 0 0-3.65 0l-35.07 35.07a2.58 2.58 0 0 0 0 3.65zm-55.278 35.071a2.58 2.58 0 0 0 3.65 0l35.07-35.07a2.58 2.58 0 0 0 0-3.651l-35.07-35.07a2.58 2.58 0 0 0-3.65 0l-35.07 35.07a2.58 2.58 0 0 0 0 3.65L81 126.185z"/><path fill="url(#z)" d="M126.175 74.546a2.58 2.58 0 0 0 3.65 0l35.071-35.07a2.583 2.583 0 0 0 0-3.65L129.826.756a2.583 2.583 0 0 0-3.651 0l-35.071 35.07a2.583 2.583 0 0 0 0 3.65l35.07 35.07z"/></svg>