<svg xmlns="http://www.w3.org/2000/svg" xmlns:xlink="http://www.w3.org/1999/xlink" width="2000" height="2500" preserveAspectRatio="xMidYMid" viewBox="0 0 256 320"><defs><linearGradient id="b" x1="50%" x2="50%" y1="0%" y2="100%"><stop offset="0%" stop-color="#7540B7"/><stop offset="100%" stop-color="#9351E5"/></linearGradient><path id="a" d="M126.19 255.89L.75 130.45c-1-1-1-2.62 0-3.62L126.19 1.39c1-1 2.62-1 3.62 0l125.44 125.44c1 1 1 2.62 0 3.62L129.81 255.89c-1 1-2.62 1-3.62 0"/><path id="e" d="M129.825 193.069a2.58 2.58 0 0 0-3.65 0l-35.071 35.07a2.583 2.583 0 0 0 0 3.651l35.07 35.07a2.58 2.58 0 0 0 3.651 0l35.071-35.07a2.583 2.583 0 0 0 0-3.65l-35.07-35.071z"/><filter id="d" width="200%" height="200%" x="-50%" y="-50%" filterUnits="objectBoundingBox"><feOffset dy="7" in="SourceAlpha" result="shadowOffsetOuter1"/><feGaussianBlur in="shadowOffsetOuter1" result="shadowBlurOuter1" stdDeviation="3.5"/><feColorMatrix in="shadowBlurOuter1" values="0 0 0 0 0 0 0 0 0 0 0 0 0 0 0 0 0 0 0.2 0"/></filter><path id="g" d="M174.999 147.895a2.58 2.58 0 0 0-3.65 0l-35.07 35.07a2.58 2.58 0 0 0 0 3.65l35.07 35.07a2.583 2.583 0 0 0 3.65 0l35.07-35.07a2.58 2.58 0 0 0 0-3.65L175 147.895z"/><filter id="f" width="200%" height="200%" x="-50%" y="-50%" filterUnits="objectBoundingBox"><feOffset dy="7" in="SourceAlpha" result="shadowOffsetOuter1"/><feGaussianBlur in="shadowOffsetOuter1" result="shadowBlurOuter1" stdDeviation="3.5"/><feColorMatrix in="shadowBlurOuter1" values="0 0 0 0 0 0 0 0 0 0 0 0 0 0 0 0 0 0 0.2 0"/></filter><path id="i" d="M119.721 182.965l-35.07-35.07a2.58 2.58 0 0 0-3.65 0l-35.07 35.07a2.58 2.58 0 0 0 0 3.65L81 221.685a2.583 2.583 0 0 0 3.65 0l35.07-35.07a2.58 2.58 0 0 0 0-3.65z"/><filter id="h" width="200%" height="200%" x="-50%" y="-50%" filterUnits="objectBoundingBox"><feOffset dy="7" in="SourceAlpha" result="shadowOffsetOuter1"/><feGaussianBlur in="shadowOffsetOuter1" result="shadowBlurOuter1" stdDeviation="3.5"/><feColorMatrix in="shadowBlurOuter1" values="0 0 0 0 0 0 0 0 0 0 0 0 0 0 0 0 0 0 0.2 0"/></filter><path id="k" d="M255.244 137.79l-35.07-35.07a2.583 2.583 0 0 0-3.65 0l-35.071 35.07a2.583 2.583 0 0 0 0 3.651l35.07 35.07a2.58 2.58 0 0 0 3.651 0l35.07-35.07a2.58 2.58 0 0 0 0-3.65z"/><filter id="j" width="200%" height="200%" x="-50%" y="-50%" filterUnits="objectBoundingBox"><feOffset dy="7" in="SourceAlpha" result="shadowOffsetOuter1"/><feGaussianBlur in="shadowOffsetOuter1" result="shadowBlurOuter1" stdDeviation="3.5"/><feColorMatrix in="shadowBlurOuter1" values="0 0 0 0 0 0 0 0 0 0 0 0 0 0 0 0 0 0 0.2 0"/></filter><path id="m" d="M126.175 102.72l-35.071 35.07a2.583 2.583 0 0 0 0 3.651l35.07 35.07a2.58 2.58 0 0 0 3.651 0l35.071-35.07a2.583 2.583 0 0 0 0-3.65l-35.07-35.07a2.583 2.583 0 0 0-3.651 0z"/><filter id="l" width="200%" height="200%" x="-50%" y="-50%" filterUnits="objectBoundingBox"><feOffset dy="7" in="SourceAlpha" result="shadowOffsetOuter1"/><feGaussianBlur in="shadowOffsetOuter1" result="shadowBlurOuter1" stdDeviation="3.5"/><feColorMatrix in="shadowBlurOuter1" values="0 0 0 0 0 0 0 0 0 0 0 0 0 0 0 0 0 0 0.2 0"/></filter><path id="o" d="M74.547 141.441l-35.07 35.07a2.58 2.58 0 0 1-3.651 0L.756 141.44a2.58 2.58 0 0 1 0-3.65l35.07-35.07a2.583 2.583 0 0 1 3.65 0l35.071 35.07a2.583 2.583 0 0 1 0 3.65z"/><filter id="n" width="200%" height="200%" x="-50%" y="-50%" filterUnits="objectBoundingBox"><feOffset dy="7" in="SourceAlpha" result="shadowOffsetOuter1"/><feGaussianBlur in="shadowOffsetOuter1" result="shadowBlurOuter1" stdDeviation="3.5"/><feColorMatrix in="shadowBlurOuter1" values="0 0 0 0 0 0 0 0 0 0 0 0 0 0 0 0 0 0 0.2 0"/></filter><path id="q" d="M136.279 91.114l35.07 35.071a2.58 2.58 0 0 0 3.65 0l35.07-35.07a2.58 2.58 0 0 0 0-3.651L175 52.394a2.58 2.58 0 0 0-3.65 0l-35.07 35.07a2.58 2.58 0 0 0 0 3.65z"/><filter id="p" width="200%" height="200%" x="-50%" y="-50%" filterUnits="objectBoundingBox"><feOffset dy="7" in="SourceAlpha" result="shadowOffsetOuter1"/><feGaussianBlur in="shadowOffsetOuter1" result="shadowBlurOuter1" stdDeviation="3.5"/><feColorMatrix in="shadowBlurOuter1" values="0 0 0 0 0 0 0 0 0 0 0 0 0 0 0 0 0 0 0.2 0"/></filter><path id="s" d="M81.001 126.185a2.58 2.58 0 0 0 3.65 0l35.07-35.07a2.58 2.58 0 0 0 0-3.651l-35.07-35.07a2.58 2.58 0 0 0-3.65 0l-35.07 35.07a2.58 2.58 0 0 0 0 3.65L81 126.185z"/><filter id="r" width="200%" height="200%" x="-50%" y="-50%" filterUnits="objectBoundingBox"><feOffset dy="7" in="SourceAlpha" result="shadowOffsetOuter1"/><feGaussianBlur in="shadowOffsetOuter1" result="shadowBlurOuter1" stdDeviation="3.5"/><feColorMatrix in="shadowBlurOuter1" values="0 0 0 0 0 0 0 0 0 0 0 0 0 0 0 0 0 0 0.2 0"/></filter><path id="u" d="M126.175 74.546a2.58 2.58 0 0 0 3.65 0l35.071-35.07a2.583 2.583 0 0 0 0-3.65L129.826.756a2.583 2.583 0 0 0-3.651 0l-35.071 35.07a2.583 2.583 0 0 0 0 3.65l35.07 35.07z"/><filter id="t" width="200%" height="200%" x="-50%" y="-50%" filterUnits="objectBoundingBox"><feOffset dy="7" in="SourceAlpha" result="shadowOffsetOuter1"/><feGaussianBlur in="shadowOffsetOuter1" result="shadowBlurOuter1" stdDeviation="3.5"/><feColorMatrix in="shadowBlurOuter1" values="0 0 0 0 0 0 0 0 0 0 0 0 0 0 0 0 0 0 0.2 0"/></filter><linearGradient id="v" x1="50%" x2="50%" y1="100%" y2="0%"><stop offset="0%" stop-color="#E9DCF9"/><stop offset="100%" stop-color="#FFF"/></linearGradient><linearGradient id="w" x1="-63.234%" x2="-63.234%" y1="100%" y2="0%"><stop offset="0%" stop-color="#DECBF7"/><stop offset="100%" stop-color="#F4EDFC"/></linearGradient><linearGradient id="x" x1="50%" x2="50%" y1="0%" y2="100%"><stop offset="0%" stop-color="#D3B9F4"/><stop offset="100%" stop-color="#BE96EF"/></linearGradient><linearGradient id="y" x1="50%" x2="50%" y1="0%" y2="100%"><stop offset="0%" stop-color="#BE96EF"/><stop offset="100%" stop-color="#A873EA"/></linearGradient><linearGradient id="z" x1="50%" x2="50%" y1="0%" y2="100%"><stop offset="0%" stop-color="#A873EA"/><stop offset="100%" stop-color="#9351E5"/></linearGradient></defs><g transform="translate(0 62.72)"><mask id="c" fill="#fff"><use xlink:href="#a"/></mask><use fill="url(#b)" xlink:href="#a"/><g mask="url(#c)"><use filter="url(#d)" transform="translate(0 -62.72)" xlink:href="#e"/><use filter="url(#f)" transform="translate(0 -62.72)" xlink:href="#g"/><use filter="url(#h)" transform="translate(0 -62.72)" xlink:href="#i"/><use filter="url(#j)" transform="translate(0 -62.72)" xlink:href="#k"/><use filter="url(#l)" transform="translate(0 -62.72)" xlink:href="#m"/><use filter="url(#n)" transform="translate(0 -62.72)" xlink:href="#o"/><use filter="url(#p)" transform="translate(0 -62.72)" xlink:href="#q"/><use filter="url(#r)" transform="translate(0 -62.72)" xlink:href="#s"/><use filter="url(#t)" transform="translate(0 -62.72)" xlink:href="#u"/></g></g><path fill="url(#v)" d="M129.825 193.069a2.58 2.58 0 0 0-3.65 0l-35.071 35.07a2.583 2.583 0 0 0 0 3.651l35.07 35.07a2.58 2.58 0 0 0 3.651 0l35.071-35.07a2.583 2.583 0 0 0 0-3.65l-35.07-35.071z"/><path fill="url(#w)" d="M174.999 147.895a2.58 2.58 0 0 0-3.65 0l-35.07 35.07a2.58 2.58 0 0 0 0 3.65l35.07 35.07a2.583 2.583 0 0 0 3.65 0l35.07-35.07a2.58 2.58 0 0 0 0-3.65L175 147.895zM119.721 182.965l-35.07-35.07a2.58 2.58 0 0 0-3.65 0l-35.07 35.07a2.58 2.58 0 0 0 0 3.65L81 221.685a2.583 2.583 0 0 0 3.65 0l35.07-35.07a2.58 2.58 0 0 0 0-3.65z"/><path fill="url(#x)" d="M255.244 137.79l-35.07-35.07a2.583 2.583 0 0 0-3.65 0l-35.071 35.07a2.583 2.583 0 0 0 0 3.651l35.07 35.07a2.58 2.58 0 0 0 3.651 0l35.07-35.07a2.58 2.58 0 0 0 0-3.65zM126.175 102.72l-35.071 35.07a2.583 2.583 0 0 0 0 3.651l35.07 35.07a2.58 2.58 0 0 0 3.651 0l35.071-35.07a2.583 2.583 0 0 0 0-3.65l-35.07-35.07a2.583 2.583 0 0 0-3.651 0zM74.547 141.441l-35.07 35.07a2.58 2.58 0 0 1-3.651 0L.756 141.44a2.58 2.58 0 0 1 0-3.65l35.07-35.07a2.583 2.583 0 0 1 3.65 0l35.071 35.07a2.583 2.583 0 0 1 0 3.65z"/><path fill="url(#y)" d="M136.279 91.114l35.07 35.071a2.58 2.58 0 0 0 3.65 0l35.07-35.07a2.58 2.58 0 0 0 0-3.651L175 52.394a2.58 2.58 0 0 0-3.65 0l-35.07 35.07a2.58 2.58 0 0 0 0 3.65zM81.001 126.185a2.58 2.58 0 0 0 3.65 0l35.07-35.07a2.58 2.58 0 0 0 0-3.651l-35.07-35.07a2.58 2.58 0 0 0-3.65 0l-35.07 35.07a2.58 2.58 0 0 0 0 3.65L81 126.185z"/><path fill="url(#z)" d="M126.175 74.546a2.58 2.58 0 0 0 3.65 0l35.071-35.07a2.583 2.583 0 0 0 0-3.65L129.826.756a2.583 2.583 0 0 0-3.651 0l-35.071 35.07a2.583 2.583 0 0 0 0 3.65l35.07 35.07z"/></svg>