<svg xmlns="http://www.w3.org/2000/svg" xmlns:xlink="http://www.w3.org/1999/xlink" version="1.1" id="Layer_1" x="0px" y="0px" style="enable-background:new 0 0 512 512;" xml:space="preserve" viewBox="48.9 -1.51 413.2 514.96">
<style type="text/css">
	.st0{fill-rule:evenodd;clip-rule:evenodd;fill:#7ACDC9;stroke:#000000;stroke-width:3;stroke-linecap:round;}
	.st1{fill-rule:evenodd;clip-rule:evenodd;fill:#F6D2A2;stroke:#000000;stroke-width:3;stroke-linecap:round;}
	.st2{fill:none;stroke:#000000;stroke-width:3;stroke-linecap:round;}
	.st3{fill-rule:evenodd;clip-rule:evenodd;}
	.st4{fill-rule:evenodd;clip-rule:evenodd;fill:#FFFFFF;stroke:#000000;stroke-width:2.91;stroke-linecap:round;}
	.st5{fill-rule:evenodd;clip-rule:evenodd;fill:#FFFFFF;stroke:#000000;stroke-width:2.82;stroke-linecap:round;}
	.st6{fill:#010101;}
	.st7{fill-rule:evenodd;clip-rule:evenodd;fill:#FFFFFF;stroke:#000000;stroke-width:3;stroke-linecap:round;}
	.st8{fill-rule:evenodd;clip-rule:evenodd;fill:#FFFFFF;}
	.st9{fill-rule:evenodd;clip-rule:evenodd;fill:#F6D2A2;stroke:#231F20;stroke-width:3;stroke-linecap:round;}
	.st10{fill-rule:evenodd;clip-rule:evenodd;fill:#010101;}
	.st11{fill:#FEBD19;}
	.st12{fill:#F6F6F6;}
	.st13{font-family:'Arial-BoldMT';}
	.st14{font-size:24.744px;}
	.st15{fill:none;}
	.st16{fill:#F6F6F6;stroke:#010101;stroke-width:2;stroke-miterlimit:10;}
</style>
<g>
	<path class="st0" d="M101.6,99.4C43.9,83.1,86.8,9.7,133.2,39.9L101.6,99.4z"/>
	<path class="st0" d="M358,34.4c45.7-32.1,87,40.3,33.9,58.5L358,34.4z"/>
	<path class="st1" d="M367.9,464.5c11.6,7.2,32.8,28.9,15.4,39.4c-16.7,15.3-26.1-16.8-40.7-21.2C348.8,474,356.8,466.2,367.9,464.5   z"/>
	<path class="st2" d="M383.3,503.9c-2.6-5.1-3.4-11.1-7.8-15.2"/>
	<path class="st1" d="M160.5,489c-13.6,2.1-21.2,14.4-32.7,20.6c-10.6,6.4-14.8-2.1-15.7-3.7c-1.8-0.8-1.5,0.7-4.1-1.9   c-9.9-15.7,10.3-27.1,20.9-34.9C143.6,466.2,152.8,478.9,160.5,489z"/>
	<path class="st2" d="M112.2,505.9c0.5-6,5.3-10,7.5-15"/>
	<path class="st3" d="M104,79.1c-7.6-4-13.2-9.5-8.5-18.3c4.3-8.2,12.4-7.3,20-3.2L104,79.1z"/>
	<path class="st3" d="M379.8,71.4c7.6-4,13.2-9.5,8.5-18.3c-4.3-8.2-12.4-7.3-19.9-3.2L379.8,71.4z"/>
	<path class="st0" d="M243.8,3.9c7.2,0,14.4,0.1,21.5,0.5c2.5,0.1,7.8-4.6,10.2-4.4c3.8,0.3,4.7,5.4,8.3,5.8   c41.9,4.7,78.6,19.5,100.1,61.9c7,17.6,11.9,36,14.5,54.8c0.3,2,5.9,2.7,6.2,4.7c0.3,2.4-4.8,6.1-4.5,8.5   c4.4,41.8,1.6,84.6,4.1,127c2.3,39.8,6.7,84-0.1,125c-0.5,3,3,7.3,2.4,10.2c-0.7,3.4-5.5,5.3-6.4,8.6c-2.7,10.4-6.5,20.5-11.3,30.2   c-11.8,23.7-31.3,39.7-54.1,50.2c-4.6,2.1-8.1,10.2-13,11.8c-5.3,1.8-12.2-2.7-17.7-1.4c-22.4,5.1-45.3,7.2-68.3,6.3   C191,502,137.2,487.5,112,446.8c-14.1-22.9-18.3-51.1-18.6-80.2c0-4.7-9.1-9.9-8.9-14.6s9.5-9.5,9.8-14.5   c1.3-21.9,3.5-43.4,4.4-62.6c1.8-45.5-7.9-91-5.6-136c0.3-7.5-12.1-15.1,2.1-22.3c8.8-4.5,3.8-19.6,7.1-29.3   c8-24,21.2-41,37.8-53.1c3.5-2.5,4.4-10.7,8.1-12.9c4.2-2.4,11.2,1.3,15.8-0.6C187.5,10.5,215.2,6.2,243.8,3.9"/>
	<path class="st4" d="M254,81.5c10.4,60.3,108.9,44.4,94.8-16.5C336.1,10.5,250.5,25.6,254,81.5"/>
	<path class="st5" d="M136.2,91.2c13.4,52.5,97.5,39.1,94.3-13.6C226.7,14.6,123.3,26.7,136.2,91.2"/>
	<ellipse class="st6" cx="248" cy="177.7" rx="30.1" ry="38.9"/>
	<path class="st7" d="M265.9,153.8c0,7.8,1.8,16.6,0.3,25c-2,3.8-5.9,4.2-9.3,5.7c-4.7-0.7-8.6-3.8-10.5-8.2   c-1.2-9.5,0.4-18.7,0.8-28.3L265.9,153.8z"/>
	<ellipse cx="185.9" cy="80.9" rx="14.2" ry="15.4"/>
	<path class="st8" d="M193.2,80.6c0.4,3.4-2,6.6-5.4,7c-3.4,0.4-6.6-2-7-5.4c-0.1-0.5-0.1-1.1,0-1.6c-0.4-3.4,2-6.6,5.4-7   c3.4-0.4,6.6,2,7,5.4C193.2,79.5,193.2,80,193.2,80.6z"/>
	<ellipse cx="304.8" cy="77" rx="14" ry="15.4"/>
	<path class="st8" d="M313.5,76.9c0,4.9-3.3,8.8-7.5,8.8s-7.6-3.9-7.6-8.8s3.3-8.8,7.5-8.8S313.5,72,313.5,76.9z"/>
	<path class="st7" d="M225.3,153c-6.2,15,3.5,45,20.3,22.9c-1.2-9.5,0.4-18.7,0.7-28.3L225.3,153z"/>
	<path class="st9" d="M227.4,124.1c-11.5,1-21,14.7-15,25.6c7.9,14.4,25.7-1.3,36.7,0.2c12.7,0.3,23.1,13.4,33.3,2.4   c11.4-12.4-4.9-24.3-17.6-29.6L227.4,124.1z"/>
	<path class="st10" d="M225.9,123.5c-0.8-20,37.3-22.5,41.8-5.8S227.8,138.4,225.9,123.5z"/>
	<polygon id="lighting_bolt" class="st11" points="383,232 418.6,220.2 414.1,214.7 446.1,200.5 422.8,215.9 429.3,222.8  "/>
	<polygon id="lighting_bolt-2" class="st11" points="55.8,301 91.4,289.1 86.8,283.7 118.9,269.5 95.6,284.9 102.1,291.8  "/>
	<path class="st1" d="M100.2,251.8c0,0,2.8,25.7-7.8,20.4c-8.8,12.4-17.9-4.8-17.9-4.8c-1.6-5.4-1.5-11.1,0.2-16.4   C78.7,239.8,96.5,234.3,100.2,251.8z"/>
	<path class="st1" d="M428.5,265.5c0,0,2.8-25.8-7.8-20.4c-8.8-12.4-17.8,4.8-17.8,4.8s-5.1,5.8,0.2,16.4   C408.3,276.9,420.4,280.6,428.5,265.5z"/>
	<g id="dns_logo">
		<circle class="st12" cx="421.4" cy="165.3" r="40.7"/>
		<path class="st6" d="M421.4,206c-22.5,0-40.7-18.2-40.7-40.7s18.2-40.7,40.7-40.7c22.5,0,40.7,18.2,40.7,40.7S443.8,206,421.4,206    z M421.4,129.3c-19.9,0-36.1,16.1-36.1,36.1s16.1,36.1,36.1,36.1c19.9,0,36.1-16.1,36.1-36.1l0,0    C457.4,145.4,441.3,129.3,421.4,129.3z"/>
		<text transform="matrix(1 0 0 1 394.5586 174.097)" class="st6 st13 st14">DNS</text>
		<path class="st6" d="M420.9,129.6c12.5,0,15.7,21.9,15.7,21.9h5.5c0,0-6-26.8-21.2-26.8L420.9,129.6z"/>
		<path class="st6" d="M420.9,129.6c-12.5,0-15.7,21.9-15.7,21.9h-5.5c0,0,6-26.8,21.2-26.8L420.9,129.6z"/>
		<line class="st15" x1="421.4" y1="127" x2="421.4" y2="151.5"/>
		<rect x="419.1" y="127" class="st6" width="4.6" height="24.5"/>
		<line class="st15" x1="421.4" y1="179.2" x2="421.4" y2="203.7"/>
		<rect x="419.1" y="179.2" class="st6" width="4.6" height="24.5"/>
		<rect x="383" y="163" class="st6" width="8.8" height="4.6"/>
		<rect x="450.5" y="163" class="st6" width="8.8" height="4.6"/>
		<path class="st6" d="M424.1,148.6c-11.3-0.1-22.4-2-33.1-5.6l1.6-4.3l0,0c0.4,0.1,32.7,11.7,57.3,0.1l1.9,4.2    C443.2,146.9,433.7,148.8,424.1,148.6z"/>
		<path class="st6" d="M420.9,201.1c12.5,0,15.7-21.8,15.7-21.8h5.5c0,0-6,26.8-21.2,26.8L420.9,201.1z"/>
		<path class="st6" d="M420.9,201.1c-12.5,0-15.7-21.8-15.7-21.8h-5.5c0,0,6,26.8,21.2,26.8L420.9,201.1z"/>
		<path class="st6" d="M391.9,193.4l-1.6-4.4c1.4-0.5,34.4-12.4,60.9,0l-2,4.2C424.5,181.7,392.2,193.2,391.9,193.4z"/>
	</g>
	<g id="server">
		<path class="st16" d="M55.2,306.8H119c2.9,0,5.3,2.4,5.3,5.3v12.5c0,2.9-2.4,5.3-5.3,5.3H55.2c-2.9,0-5.3-2.4-5.3-5.3v-12.5    C49.9,309.2,52.3,306.8,55.2,306.8z"/>
		<path class="st6" d="M58.1,315.7h3.2c0.6,0,1.1,0.5,1.1,1.1v3.2c0,0.6-0.5,1.1-1.1,1.1h-3.2c-0.6,0-1.1-0.5-1.1-1.1v-3.2    C57,316.1,57.5,315.7,58.1,315.7z"/>
		<path class="st6" d="M74,315.7h3.2c0.6,0,1.1,0.5,1.1,1.1v3.2c0,0.6-0.5,1.1-1.1,1.1H74c-0.6,0-1.1-0.5-1.1-1.1v-3.2    C72.9,316.1,73.4,315.7,74,315.7z"/>
		<path class="st6" d="M66,315.7h3.2c0.6,0,1.1,0.5,1.1,1.1v3.2c0,0.6-0.5,1.1-1.1,1.1H66c-0.6,0-1.1-0.5-1.1-1.1v-3.2    C65,316.1,65.5,315.7,66,315.7z"/>
	</g>
	<g id="server-2">
		<path class="st16" d="M55.2,335.1H119c2.9,0,5.3,2.4,5.3,5.3v12.5c0,2.9-2.4,5.3-5.3,5.3H55.2c-2.9,0-5.3-2.4-5.3-5.3v-12.5    C49.9,337.5,52.3,335.1,55.2,335.1z"/>
		<path class="st6" d="M58.1,344h3.2c0.6,0,1.1,0.5,1.1,1.1v3.2c0,0.6-0.5,1.1-1.1,1.1h-3.2c-0.6,0-1.1-0.5-1.1-1.1V345    C57,344.4,57.5,344,58.1,344z"/>
		<path class="st6" d="M74,344h3.2c0.6,0,1.1,0.5,1.1,1.1v3.2c0,0.6-0.5,1.1-1.1,1.1H74c-0.6,0-1.1-0.5-1.1-1.1V345    C72.9,344.4,73.4,344,74,344z"/>
		<path class="st6" d="M66,344h3.2c0.6,0,1.1,0.5,1.1,1.1v3.2c0,0.6-0.5,1.1-1.1,1.1H66c-0.6,0-1.1-0.5-1.1-1.1V345    C65,344.4,65.5,344,66,344z"/>
	</g>
	<g id="server-3">
		<path class="st16" d="M55.2,363.4H119c2.9,0,5.3,2.4,5.3,5.3v12.5c0,2.9-2.4,5.3-5.3,5.3H55.2c-2.9,0-5.3-2.4-5.3-5.3v-12.5    C49.9,365.8,52.3,363.4,55.2,363.4z"/>
		<path class="st6" d="M58.1,372.3h3.2c0.6,0,1.1,0.5,1.1,1.1v3.2c0,0.6-0.5,1.1-1.1,1.1h-3.2c-0.6,0-1.1-0.5-1.1-1.1v-3.2    C57,372.7,57.5,372.3,58.1,372.3z"/>
		<path class="st6" d="M74,372.3h3.2c0.6,0,1.1,0.5,1.1,1.1v3.2c0,0.6-0.5,1.1-1.1,1.1H74c-0.6,0-1.1-0.5-1.1-1.1v-3.2    C72.9,372.7,73.4,372.3,74,372.3z"/>
		<path class="st6" d="M66,372.3h3.2c0.6,0,1.1,0.5,1.1,1.1v3.2c0,0.6-0.5,1.1-1.1,1.1H66c-0.6,0-1.1-0.5-1.1-1.1v-3.2    C65,372.7,65.5,372.3,66,372.3z"/>
	</g>
</g>
</svg>