<svg id="Layer_1" data-name="Layer 1" xmlns="http://www.w3.org/2000/svg" viewBox="0 0 234 292.5"><defs><style>.cls-1{fill:#7acdc9;}.cls-1,.cls-2,.cls-3,.cls-5,.cls-6,.cls-8{stroke:#000;}.cls-1,.cls-10,.cls-2,.cls-3,.cls-5,.cls-6,.cls-8{stroke-linecap:round;}.cls-1,.cls-10,.cls-2,.cls-3,.cls-8{stroke-width:3px;}.cls-1,.cls-10,.cls-11,.cls-2,.cls-3,.cls-4,.cls-5,.cls-6,.cls-8,.cls-9{fill-rule:evenodd;}.cls-10,.cls-2{fill:#f6d2a2;}.cls-3{fill:none;}.cls-5,.cls-6,.cls-8,.cls-9{fill:#fff;}.cls-5{stroke-width:2.91px;}.cls-6{stroke-width:2.82px;}.cls-11,.cls-14,.cls-7{fill:#010101;}.cls-10{stroke:#231f20;}.cls-12{fill:#febd19;}.cls-13,.cls-15{fill:#f6f6f6;}.cls-14{font-size:13.99px;font-family:Arial-BoldMT, Arial;font-weight:700;}.cls-15{stroke:#010101;stroke-miterlimit:10;stroke-width:2px;}</style></defs><title>ddnsgopher</title><path class="cls-1" d="M32.71,59.94C.08,50.77,24.35,9.26,50.55,26.33Z" transform="translate(-2.5 -2.24)"/><path class="cls-1" d="M177.68,23.22C203.51,5.08,226.85,46,196.83,56.3Z" transform="translate(-2.5 -2.24)"/><path class="cls-2" d="M183.24,266.38c6.56,4.06,18.55,16.33,8.71,22.28-9.46,8.66-14.75-9.5-23-12C172.47,271.79,177,267.37,183.24,266.38Z" transform="translate(-2.5 -2.24)"/><path class="cls-3" d="M192,288.66c-1.46-2.9-1.95-6.28-4.39-8.62" transform="translate(-2.5 -2.24)"/><path class="cls-2" d="M66,280.25c-7.7,1.19-12,8.14-18.46,11.67-6,3.6-8.36-1.16-8.9-2.12-1-.44-.87.4-2.33-1.08-5.61-8.85,5.84-15.31,11.8-19.71C56.45,267.33,61.66,274.53,66,280.25Z" transform="translate(-2.5 -2.24)"/><path class="cls-3" d="M38.68,289.8c.29-3.38,3-5.64,4.24-8.49" transform="translate(-2.5 -2.24)"/><path class="cls-4" d="M34.07,48.48c-4.3-2.28-7.46-5.37-4.83-10.35,2.44-4.61,7-4.11,11.28-1.83Z" transform="translate(-2.5 -2.24)"/><path class="cls-4" d="M190,44.15c4.3-2.28,7.46-5.37,4.83-10.35-2.44-4.61-7-4.11-11.27-1.83Z" transform="translate(-2.5 -2.24)"/><path class="cls-1" d="M113.08,6c4.08,0,8.13.07,12.13.26,1.41.07,4.4-2.59,5.79-2.49,2.13.15,2.64,3.07,4.72,3.3,23.67,2.63,44.42,11,56.61,35a132.67,132.67,0,0,1,8.19,31c.17,1.14,3.34,1.53,3.48,2.68.17,1.34-2.69,3.43-2.55,4.78,2.5,23.62.89,47.86,2.3,71.79,1.32,22.52,3.78,47.5-.08,70.65-.28,1.68,1.68,4.12,1.33,5.78-.4,1.9-3.13,3-3.63,4.89A89,89,0,0,1,195,250.7c-6.69,13.38-17.69,22.45-30.61,28.36-2.62,1.19-4.6,5.74-7.36,6.69-3,1-6.87-1.54-10-.78a144.56,144.56,0,0,1-38.59,3.54c-25.19-.9-55.62-9.12-69.84-32.14-8-12.94-10.35-28.91-10.49-45.34,0-2.66-5.14-5.6-5.06-8.28s5.36-5.38,5.52-8.19c.71-12.39,2-24.54,2.46-35.39,1-25.7-4.46-51.46-3.18-76.91C28,78,21,73.75,29.05,69.63c5-2.55,2.13-11.07,4-16.57,4.55-13.55,12-23.17,21.38-30,2-1.43,2.48-6.07,4.59-7.27,2.38-1.36,6.36.75,8.91-.35,13.36-5.73,29-8.14,45.17-9.42" transform="translate(-2.5 -2.24)"/><path class="cls-5" d="M118.85,49.83c5.86,34.09,61.59,25.08,53.58-9.31-7.17-30.83-55.53-22.29-53.58,9.31" transform="translate(-2.5 -2.24)"/><path class="cls-6" d="M52.25,55.34c7.6,29.68,55.12,22.09,53.33-7.69C103.44,12,45,18.88,52.25,55.34" transform="translate(-2.5 -2.24)"/><ellipse class="cls-7" cx="113" cy="102" rx="17" ry="22"/><path class="cls-8" d="M125.57,90.74c0,4.43,1,9.41.17,14.12-1.13,2.14-3.35,2.37-5.27,3.23a7.74,7.74,0,0,1-5.93-4.62c-.68-5.39.25-10.6.43-16Z" transform="translate(-2.5 -2.24)"/><ellipse cx="77.86" cy="47.26" rx="8.02" ry="8.69"/><path class="cls-9" d="M84.48,49.32a3.53,3.53,0,1,1-7,0,3.53,3.53,0,1,1,7,0Z" transform="translate(-2.5 -2.24)"/><ellipse cx="145.09" cy="45.09" rx="7.89" ry="8.69"/><path class="cls-9" d="M152.5,47.22c0,2.78-1.89,5-4.23,5S144,50,144,47.22s1.89-5,4.23-5S152.5,44.45,152.5,47.22Z" transform="translate(-2.5 -2.24)"/><path class="cls-8" d="M102.64,90.26c-3.5,8.48,2,25.45,11.45,12.93-.68-5.38.25-10.59.42-16Z" transform="translate(-2.5 -2.24)"/><path class="cls-10" d="M103.84,73.92c-6.53.55-11.86,8.31-8.47,14.45,4.49,8.13,14.52-.72,20.77.11,7.19.15,13.08,7.6,18.85,1.35,6.42-7-2.77-13.73-9.94-16.76Z" transform="translate(-2.5 -2.24)"/><path class="cls-11" d="M103,73.58c-.48-11.31,21.07-12.72,23.62-3.26S104.08,82,103,73.58Z" transform="translate(-2.5 -2.24)"/><polygon id="lighting_bolt" data-name="lighting bolt" class="cls-12" points="189.33 132.71 209.46 126 206.86 122.92 225 114.91 211.79 123.61 215.48 127.51 189.33 132.71"/><polygon id="lighting_bolt-2" data-name="lighting bolt" class="cls-12" points="4.33 171.71 24.46 165 21.86 161.92 40 153.91 26.79 162.61 30.48 166.51 4.33 171.71"/><path class="cls-2" d="M31.92,146.12s1.58,14.55-4.42,11.55c-5,7-10.1-2.73-10.1-2.73a15.72,15.72,0,0,1,.1-9.27C19.78,139.37,29.84,136.25,31.92,146.12Z" transform="translate(-2.5 -2.24)"/><path class="cls-2" d="M217.52,153.88s1.57-14.56-4.43-11.56c-5-7-10.09,2.73-10.09,2.73s-2.91,3.27.09,9.27S212.94,162.43,217.52,153.88Z" transform="translate(-2.5 -2.24)"/><g id="dns_logo" data-name="dns logo"><circle class="cls-13" cx="211" cy="95" r="23"/><path class="cls-7" d="M213.5,120.25a23,23,0,1,1,23-23A23,23,0,0,1,213.5,120.25Zm0-43.39a20.39,20.39,0,1,0,20.39,20.39A20.41,20.41,0,0,0,213.5,76.86Z" transform="translate(-2.5 -2.24)"/><text class="cls-14" transform="translate(195.84 99.96)">DNS</text><path class="cls-7" d="M213.24,77.05c7.06,0,8.89,12.36,8.89,12.36h3.13s-3.39-15.16-12-15.16Z" transform="translate(-2.5 -2.24)"/><path class="cls-7" d="M213.24,77.05c-7.06,0-8.89,12.36-8.89,12.36h-3.13s3.4-15.16,12-15.16Z" transform="translate(-2.5 -2.24)"/><line class="cls-7" x1="211" y1="73.31" x2="211" y2="87.16"/><rect class="cls-7" x="209.69" y="73.31" width="2.61" height="13.85"/><line class="cls-7" x1="211" y1="102.84" x2="211" y2="116.7"/><rect class="cls-7" x="209.69" y="102.84" width="2.61" height="13.85"/><rect class="cls-7" x="189.31" y="93.7" width="4.97" height="2.61"/><rect class="cls-7" x="227.47" y="93.7" width="4.97" height="2.61"/><path class="cls-7" d="M215.06,87.79a59.83,59.83,0,0,1-18.7-3.17l.9-2.45h0c.21.08,18.47,6.59,32.42.08l1.1,2.37A37.1,37.1,0,0,1,215.06,87.79Z" transform="translate(-2.5 -2.24)"/><path class="cls-7" d="M213.24,117.44c7.06,0,8.89-12.35,8.89-12.35h3.13s-3.39,15.16-12,15.16Z" transform="translate(-2.5 -2.24)"/><path class="cls-7" d="M213.24,117.44c-7.06,0-8.89-12.35-8.89-12.35h-3.13s3.4,15.16,12,15.16Z" transform="translate(-2.5 -2.24)"/><path class="cls-7" d="M196.82,113.09l-.9-2.46c.79-.28,19.47-7,34.43,0L229.24,113C215.28,106.49,197,113,196.82,113.09Z" transform="translate(-2.5 -2.24)"/></g><g id="server"><rect class="cls-15" x="1" y="175" width="42" height="13" rx="2.97"/><rect class="cls-7" x="5" y="180" width="3" height="3" rx="0.6"/><rect class="cls-7" x="14" y="180" width="3" height="3" rx="0.6"/><rect class="cls-7" x="9.5" y="180" width="3" height="3" rx="0.6"/></g><g id="server-2" data-name="server"><rect class="cls-15" x="1" y="191" width="42" height="13" rx="2.97"/><rect class="cls-7" x="5" y="196" width="3" height="3" rx="0.6"/><rect class="cls-7" x="14" y="196" width="3" height="3" rx="0.6"/><rect class="cls-7" x="9.5" y="196" width="3" height="3" rx="0.6"/></g><g id="server-3" data-name="server"><rect class="cls-15" x="1" y="207" width="42" height="13" rx="2.97"/><rect class="cls-7" x="5" y="212" width="3" height="3" rx="0.6"/><rect class="cls-7" x="14" y="212" width="3" height="3" rx="0.6"/><rect class="cls-7" x="9.5" y="212" width="3" height="3" rx="0.6"/></g></svg>