<svg xmlns="http://www.w3.org/2000/svg" xmlns:xlink="http://www.w3.org/1999/xlink" version="1.1" id="Layer_1" x="0px" y="0px" style="enable-background:new 0 0 512 512;" xml:space="preserve" viewBox="132.7 0 247 512">
<style type="text/css">
	.st0{clip-path:url(#SVGID_00000116229217458085974800000008576942022242975912_);}
	.st1{fill:#0C8CE0;}
</style>
<g>
	<defs>
		<rect id="SVGID_1_" x="132.7" width="246.5" height="512"/>
	</defs>
	<clipPath id="SVGID_00000044889219800143957830000013742356153949522074_">
		<use xlink:href="#SVGID_1_" style="overflow:visible;"/>
	</clipPath>
	<g style="clip-path:url(#SVGID_00000044889219800143957830000013742356153949522074_);">
		<path class="st1" d="M352.3,0v110.9l-96-55.5l-123.6,71.3v269.4l123.5,71.3l96-55.5v57.2l-46.5,26.9l27.5,15.9l46.5-26.9V253.5    l-123.5-71.3l-96,55.5v-95l96-55.5l96,55.5v31.6l27.5,15.9V15.9L352.2,0H352.3z M160.2,380.3v-95l96,55.5l96-55.5v95l-96,55.5    L160.2,380.3z M338.5,261.5l-82.3,47.6l-82.3-47.6l82.3-47.6L338.5,261.5z"/>
	</g>
</g>
</svg>