<svg xmlns="http://www.w3.org/2000/svg" xmlns:xlink="http://www.w3.org/1999/xlink" width="48" height="48"><defs><radialGradient xlink:href="#a" id="f" cx="15.116" cy="63.965" r="12.289" fx="15.116" fy="63.965" gradientTransform="scale(1.64399 .60828)" gradientUnits="userSpaceOnUse"/><radialGradient xlink:href="#b" id="k" cx="12.071" cy="12.493" r="6.718" fx="12.071" fy="12.493" gradientUnits="userSpaceOnUse"/><radialGradient xlink:href="#c" id="j" cx="17.904" cy="40.159" r="14.337" fx="17.904" fy="40.159" gradientTransform="matrix(.25463 -.89837 .97979 .2777 -18.009 32.033)" gradientUnits="userSpaceOnUse"/><radialGradient xlink:href="#c" id="i" cx="12.526" cy="38.09" r="14.337" fx="12.526" fy="38.09" gradientTransform="matrix(.58327 -.43153 .57715 .78008 -5.8 4.004)" gradientUnits="userSpaceOnUse"/><radialGradient xlink:href="#d" id="h" cx="65.8" cy="27.168" r="12.972" fx="65.8" fy="27.168" gradientTransform="matrix(.76823 1.13675 -.82097 .55482 -3.722 -85.071)" gradientUnits="userSpaceOnUse"/><radialGradient xlink:href="#e" id="g" cx="16.652" cy="32.187" r="17.09" fx="16.652" fy="32.187" gradientTransform="matrix(1.48618 -1.5361 .93232 .90202 -38.105 31.426)" gradientUnits="userSpaceOnUse"/><linearGradient id="c"><stop offset="0" style="stop-color:#eeeeec;stop-opacity:1"/><stop offset="1" style="stop-color:#eeeeec;stop-opacity:0"/></linearGradient><linearGradient id="a"><stop offset="0" style="stop-color:#000;stop-opacity:1"/><stop offset="1" style="stop-color:#000;stop-opacity:0"/></linearGradient><linearGradient id="d"><stop offset="0" style="stop-color:#fff;stop-opacity:1"/><stop offset="1" style="stop-color:#fff;stop-opacity:0"/></linearGradient><linearGradient id="e"><stop offset="0" style="stop-color:#d3e9ff;stop-opacity:1"/><stop offset=".155" style="stop-color:#d3e9ff;stop-opacity:1"/><stop offset=".75" style="stop-color:#4074ae;stop-opacity:1"/><stop offset="1" style="stop-color:#36486c;stop-opacity:1"/></linearGradient><linearGradient id="b"><stop offset="0" style="stop-color:#fff;stop-opacity:1"/><stop offset="1" style="stop-color:#fff;stop-opacity:0"/></linearGradient></defs><path d="M45.053 38.909a20.203 7.475 0 1 1-40.406 0 20.203 7.475 0 1 1 40.406 0z" style="fill:url(#f);fill-opacity:1;stroke:none;stroke-opacity:1" transform="matrix(.9474 0 0 1.17786 1.244 -6.853)"/><path d="m23.943.956 13.388 17.31C46.999 29.847 41.497 43.925 26.774 45 6.06 45.583 6.51 27.375 11.255 18.61L23.943.955z" style="fill:url(#g);fill-opacity:1;fill-rule:evenodd;stroke:none;stroke-width:.07523891px;stroke-linecap:butt;stroke-linejoin:miter;stroke-opacity:1"/><path d="M35.111 26.143c-6.138-13.112-17.55-8.445-17.837.807-.38 12.273 17.475 10.665 19.441 14.519-7.893 6.206-21.742 3.758-25.753-1.754-4.005-5.503-3.724-14.085-.178-20.127C24.16.978 39.75 24.384 35.111 26.143z" style="fill:#1b4075;fill-opacity:1;fill-rule:evenodd;stroke:none;stroke-width:.07523891px;stroke-linecap:butt;stroke-linejoin:miter;stroke-opacity:1"/><path d="m23.997 3.543 12.06 15.608c8.713 10.432 3.362 23.263-9.932 24.358-18.733.506-18.697-15.39-13.952-23.176l11.824-16.79z" style="fill:none;fill-opacity:1;fill-rule:evenodd;stroke:#fff;stroke-width:1.1000706;stroke-linecap:butt;stroke-linejoin:miter;stroke-miterlimit:4;stroke-dasharray:none;stroke-opacity:.36612022"/><path d="M23.94.965 34.728 14.91c7.92 9.482 5.72 5.374-6.365 6.369-3.279-10.075-10.223-9.42-14.838-5.604L23.94.965z" style="opacity:.46;fill:url(#h);fill-opacity:1;fill-rule:evenodd;stroke:none;stroke-width:.07523891px;stroke-linecap:butt;stroke-linejoin:miter;stroke-opacity:1"/><path d="M35.16 26.174c-6.14-13.114-16.426-8.196-16.712 1.056-.38 12.273 16.35 10.415 18.316 14.268-7.894 6.207-21.742 3.758-25.753-1.753-4.005-5.503-3.724-14.085-.178-20.128C24.207 1.01 39.797 24.414 35.16 26.174z" style="fill:url(#i);fill-opacity:1;fill-rule:evenodd;stroke:none;stroke-width:.07523891px;stroke-linecap:butt;stroke-linejoin:miter;stroke-opacity:1"/><path d="M35.12 26.142c-6.567-13.327-19.434-8.918-19.72.334-.38 12.274 17.474 10.666 19.44 14.52-7.893 6.206-21.741 3.757-25.752-1.755-4.005-5.502-3.724-14.084-.178-20.127C22.316.476 40.032 23.66 35.12 26.142z" style="fill:url(#j);fill-opacity:1;fill-rule:evenodd;stroke:none;stroke-width:.07523891px;stroke-linecap:butt;stroke-linejoin:miter;stroke-opacity:1"/><path d="M18.789 12.493a6.718 6.718 0 1 1-13.435 0 6.718 6.718 0 1 1 13.435 0z" style="opacity:.21999996;color:#000;fill:url(#k);fill-opacity:1;fill-rule:evenodd;stroke:none;stroke-width:1;stroke-linecap:round;stroke-linejoin:round;marker:none;marker-start:none;marker-mid:none;marker-end:none;stroke-miterlimit:4;stroke-dasharray:none;stroke-dashoffset:0;stroke-opacity:1;visibility:visible;display:inline;overflow:visible" transform="matrix(-.82914 1.0523 1.2393 .07583 26.329 25.586)"/></svg>