<?xml version="1.0" encoding="utf-8"?>
<!-- Generator: Adobe Illustrator 15.1.0, SVG Export Plug-In . SVG Version: 6.00 Build 0)  -->
<!DOCTYPE svg PUBLIC "-//W3C//DTD SVG 1.1//EN" "http://www.w3.org/Graphics/SVG/1.1/DTD/svg11.dtd">
<svg version="1.1" id="Layer_1" xmlns="http://www.w3.org/2000/svg" xmlns:xlink="http://www.w3.org/1999/xlink" x="0px" y="0px"
	 width="112.167px" height="33.333px" viewBox="0 0 112.167 33.333" enable-background="new 0 0 112.167 33.333"
	 xml:space="preserve">
<polygon points="44.936,13.024 59.264,27.298 59.264,5.765 55.976,5.765 55.976,19.188 41.621,5.243 41.621,26.805 44.909,26.805 
	44.909,13.161 "/>
<polygon points="25.951,26.805 25.951,5.765 37.731,5.765 37.731,9.047 29.238,9.049 29.238,13.99 35.813,13.988 35.813,17.271 
	29.238,17.271 29.238,17.277 29.238,23.521 29.245,23.521 37.676,23.52 37.676,26.805 "/>
<polygon points="92.281,12.991 106.712,27.215 106.712,5.765 103.425,5.765 103.425,19.354 103.404,19.291 88.961,5.231 
	88.961,26.805 92.296,26.805 92.296,13.072 "/>
<path fill="#020202" d="M5.405,5.765v21.039h6.986c0,0,9.862-0.821,9.862-10.602c0-10.081-9.89-10.438-9.89-10.438H5.405z
	 M8.692,23.683V8.806h2.904c0,0,7.41-0.138,7.41,7.52c0,6.994-6.725,7.355-6.725,7.355L8.692,23.683z"/>
<path d="M66.153,16.395c0-4.408,3.539-7.981,7.904-7.981c4.365,0,8.068,3.051,8.068,7.981c0,4.408-3.703,7.98-8.068,7.98
	C69.692,24.375,66.153,20.803,66.153,16.395 M74.057,27.542c6.465,0.084,11.477-5.575,11.477-10.765
	c0-5.588-4.026-11.696-11.313-11.696c-5.424,0-11.422,4.409-11.422,11.313C62.799,21.582,66.759,27.448,74.057,27.542"/>
</svg>
