<?xml version="1.0" encoding="UTF-8"?>
<!-- Generator: visioncortex VTracer 0.6.3 -->
<svg version="1.1" xmlns="http://www.w3.org/2000/svg" width="512" height="512">
<path d="M0 0 C1.41 -0 2.82 -0.01 4.23 -0.02 C8.07 -0.03 11.9 -0.03 15.74 -0.02 C19.89 -0.01 24.04 -0.03 28.19 -0.04 C36.31 -0.05 44.43 -0.06 52.55 -0.05 C59.15 -0.05 65.76 -0.05 72.36 -0.05 C73.77 -0.05 73.77 -0.05 75.22 -0.05 C77.13 -0.06 79.05 -0.06 80.96 -0.06 C98.89 -0.07 116.82 -0.07 134.75 -0.06 C151.12 -0.05 167.5 -0.06 183.87 -0.08 C200.72 -0.11 217.56 -0.12 234.41 -0.11 C243.85 -0.11 253.3 -0.11 262.74 -0.13 C270.78 -0.14 278.82 -0.14 286.86 -0.12 C290.96 -0.12 295.05 -0.11 299.15 -0.13 C330.71 -0.24 330.71 -0.24 344.45 4.39 C345.7 4.8 345.7 4.8 346.98 5.22 C372.58 14.49 392.75 33.82 404.33 58.25 C410.45 71.79 412.9 85.09 412.83 99.94 C412.84 101.35 412.84 102.76 412.85 104.17 C412.87 108.01 412.86 111.84 412.85 115.68 C412.85 119.83 412.86 123.98 412.87 128.13 C412.89 136.25 412.89 144.37 412.88 152.49 C412.88 159.09 412.88 165.7 412.89 172.3 C412.89 173.24 412.89 174.18 412.89 175.16 C412.89 177.07 412.89 178.99 412.89 180.9 C412.91 198.83 412.9 216.76 412.89 234.69 C412.88 251.06 412.89 267.44 412.92 283.81 C412.94 300.66 412.95 317.5 412.95 334.35 C412.94 343.79 412.94 353.24 412.96 362.68 C412.98 370.72 412.98 378.76 412.96 386.8 C412.95 390.9 412.95 394.99 412.96 399.09 C413.07 430.65 413.07 430.65 408.45 444.39 C408.17 445.22 407.9 446.06 407.61 446.92 C398.35 472.52 379.02 492.69 354.58 504.27 C341.05 510.39 327.74 512.85 312.89 512.78 C311.48 512.78 310.07 512.79 308.66 512.79 C304.83 512.81 300.99 512.8 297.16 512.79 C293.01 512.79 288.85 512.8 284.7 512.81 C276.58 512.83 268.46 512.83 260.35 512.83 C253.74 512.82 247.14 512.82 240.53 512.83 C239.12 512.83 239.12 512.83 237.68 512.83 C235.76 512.83 233.85 512.83 231.93 512.83 C214 512.85 196.07 512.84 178.14 512.83 C161.77 512.82 145.4 512.83 129.02 512.86 C112.18 512.88 95.33 512.89 78.49 512.89 C69.04 512.88 59.6 512.88 50.15 512.9 C42.11 512.92 34.07 512.92 26.03 512.9 C21.94 512.89 17.84 512.89 13.75 512.9 C-17.81 513.02 -17.81 513.02 -31.55 508.39 C-32.39 508.11 -33.23 507.84 -34.09 507.55 C-59.69 498.29 -79.86 478.96 -91.44 454.52 C-97.55 440.99 -100.01 427.68 -99.94 412.83 C-99.94 411.42 -99.95 410.01 -99.96 408.6 C-99.97 404.77 -99.97 400.93 -99.96 397.1 C-99.95 392.95 -99.97 388.79 -99.98 384.64 C-99.99 376.52 -100 368.4 -99.99 360.29 C-99.99 353.68 -99.99 347.08 -99.99 340.48 C-99.99 339.53 -99.99 338.59 -100 337.62 C-100 335.7 -100 333.79 -100 331.87 C-100.01 313.95 -100.01 296.02 -100 278.09 C-99.99 261.71 -100 245.34 -100.02 228.96 C-100.05 212.12 -100.06 195.27 -100.05 178.43 C-100.05 168.98 -100.05 159.54 -100.07 150.09 C-100.08 142.05 -100.08 134.01 -100.07 125.97 C-100.06 121.88 -100.05 117.78 -100.07 113.69 C-100.18 82.13 -100.18 82.13 -95.55 68.39 C-95.14 67.13 -95.14 67.13 -94.72 65.85 C-85.45 40.25 -66.12 20.09 -41.69 8.5 C-28.15 2.39 -14.85 -0.07 0 0 Z " fill="#1D284B" transform="translate(99.55281066894531,-0.3876800537109375)"/>
<path d="M0 0 C31.08 4.54 60.21 21.35 79.28 46.42 C99 73.6 106.22 104.14 102.54 137.4 C97.42 169.06 80.37 197.98 54.41 217.01 C41.16 226.28 26.77 232.27 11.23 236.53 C10.58 236.71 9.93 236.89 9.26 237.07 C4.71 238.27 0.25 239.03 -4.46 239.46 C-5.72 239.6 -6.98 239.73 -8.28 239.87 C-11.77 239.53 -11.77 239.53 -14.45 237.78 C-18 232.81 -17.47 228.12 -17.4 222.15 C-17.4 220.94 -17.4 219.74 -17.41 218.5 C-17.4 215.96 -17.39 213.41 -17.37 210.87 C-17.33 206.98 -17.35 203.08 -17.37 199.19 C-17.36 196.71 -17.35 194.24 -17.34 191.77 C-17.34 190.61 -17.35 189.44 -17.35 188.24 C-17.33 186.61 -17.33 186.61 -17.3 184.95 C-17.3 184 -17.29 183.04 -17.28 182.06 C-16.62 178.8 -15.32 177.6 -12.77 175.53 C-10.65 174.88 -10.65 174.88 -8.33 174.59 C5.41 172.24 18.42 165.51 27.23 154.53 C34.68 143.53 38.99 133 38.79 119.65 C38.78 118.6 38.77 117.55 38.76 116.46 C38.54 108.2 37.33 101.82 33.23 94.53 C32.7 93.56 32.17 92.59 31.62 91.59 C24.85 80.16 14.95 70.76 2 66.86 C-1.01 66.1 -4.02 65.43 -7.08 64.89 C-11.61 64.06 -13.91 63.14 -16.77 59.53 C-17.28 56.95 -17.28 56.95 -17.29 54 C-17.3 52.89 -17.31 51.78 -17.33 50.64 C-17.32 49.45 -17.31 48.26 -17.3 47.03 C-17.3 45.8 -17.31 44.57 -17.31 43.31 C-17.32 40.71 -17.31 38.12 -17.29 35.52 C-17.27 31.54 -17.29 27.57 -17.32 23.59 C-17.31 21.07 -17.31 18.55 -17.3 16.03 C-17.31 14.84 -17.32 13.64 -17.33 12.42 C-17.31 11.31 -17.3 10.2 -17.29 9.06 C-17.28 8.08 -17.28 7.11 -17.28 6.11 C-15.51 -2.86 -6.94 -0.87 0 0 Z " fill="#F9A51A" transform="translate(331.76953125,136.47265625)"/>
<path d="M0 0 C33.31 -0.09 66.62 -0.16 99.93 -0.2 C103.86 -0.21 107.79 -0.21 111.72 -0.22 C112.5 -0.22 113.28 -0.22 114.09 -0.22 C126.77 -0.24 139.45 -0.27 152.12 -0.31 C165.13 -0.35 178.13 -0.37 191.14 -0.38 C199.16 -0.38 207.19 -0.4 215.22 -0.43 C221.37 -0.46 227.52 -0.46 233.67 -0.45 C236.2 -0.45 238.72 -0.46 241.25 -0.48 C244.69 -0.5 248.13 -0.49 251.57 -0.48 C253.08 -0.5 253.08 -0.5 254.63 -0.52 C261.36 -0.46 261.36 -0.46 264.62 1.87 C266.37 4.57 266.5 6.24 266.5 9.44 C266.52 11.07 266.52 11.07 266.53 12.74 C266.51 14.49 266.51 14.49 266.5 16.28 C266.5 17.49 266.5 18.69 266.5 19.93 C266.5 22.48 266.49 25.03 266.47 27.58 C266.44 31.49 266.45 35.39 266.46 39.29 C266.45 41.77 266.44 44.24 266.43 46.72 C266.44 47.89 266.44 49.06 266.44 50.26 C266.43 51.35 266.42 52.44 266.4 53.56 C266.4 54.52 266.39 55.47 266.39 56.46 C265.91 59.56 265.21 60.77 263 63 C260.28 63.5 260.28 63.5 256.93 63.51 C255.66 63.52 254.39 63.53 253.08 63.54 C251.67 63.53 250.26 63.53 248.85 63.52 C247.36 63.52 245.88 63.53 244.4 63.54 C240.36 63.56 236.33 63.55 232.3 63.54 C228.09 63.53 223.87 63.54 219.66 63.54 C212.58 63.55 205.5 63.54 198.42 63.52 C190.24 63.5 182.05 63.51 173.86 63.53 C166.83 63.55 159.81 63.55 152.78 63.54 C148.59 63.53 144.39 63.53 140.19 63.55 C136.24 63.56 132.3 63.55 128.35 63.53 C126.9 63.52 125.45 63.52 124 63.53 C122.03 63.54 120.05 63.53 118.07 63.51 C116.41 63.51 116.41 63.51 114.72 63.5 C112 63 112 63 109 59 C109 47.45 109 35.9 109 24 C133.42 24 157.84 24 183 24 C183 20.04 183 16.08 183 12 C122.61 12 62.22 12 0 12 C0 8.04 0 4.08 0 0 Z " fill="#F9A51A" transform="translate(37,136)"/>
<path d="M0 0 C28.85 -0.09 57.7 -0.16 86.55 -0.2 C89.96 -0.21 93.36 -0.21 96.77 -0.22 C97.44 -0.22 98.12 -0.22 98.82 -0.22 C109.8 -0.24 120.78 -0.27 131.76 -0.31 C143.03 -0.35 154.29 -0.37 165.55 -0.38 C171.88 -0.38 178.21 -0.39 184.54 -0.42 C190.49 -0.45 196.44 -0.46 202.39 -0.45 C204.58 -0.45 206.77 -0.46 208.96 -0.48 C211.94 -0.5 214.92 -0.49 217.9 -0.48 C218.77 -0.49 219.64 -0.5 220.54 -0.52 C226.38 -0.46 226.38 -0.46 229.54 1.87 C231.4 4.59 231.51 6.25 231.52 9.53 C231.53 10.64 231.54 11.75 231.56 12.89 C231.55 14.08 231.54 15.27 231.53 16.5 C231.54 17.73 231.54 18.96 231.54 20.22 C231.55 22.82 231.54 25.41 231.52 28.01 C231.5 31.98 231.52 35.96 231.55 39.94 C231.54 42.46 231.54 44.98 231.53 47.5 C231.54 48.69 231.55 49.88 231.56 51.11 C231.54 52.77 231.54 52.77 231.52 54.47 C231.51 55.44 231.51 56.42 231.51 57.42 C230.84 60.82 229.7 61.85 227 64 C224.19 64.5 224.19 64.5 220.89 64.51 C219.64 64.52 218.38 64.53 217.09 64.54 C215.7 64.53 214.32 64.53 212.93 64.52 C211.47 64.52 210.01 64.53 208.55 64.54 C204.58 64.56 200.61 64.55 196.64 64.54 C192.49 64.53 188.33 64.54 184.18 64.54 C177.21 64.55 170.23 64.54 163.26 64.52 C155.19 64.5 147.13 64.51 139.07 64.53 C132.14 64.55 125.22 64.55 118.3 64.54 C114.16 64.53 110.03 64.53 105.89 64.55 C102.01 64.56 98.12 64.55 94.23 64.53 C92.81 64.52 91.38 64.52 89.95 64.53 C88 64.54 86.06 64.53 84.11 64.51 C82.48 64.51 82.48 64.51 80.81 64.5 C78 64 78 64 74 60 C74 48.12 74 36.24 74 24 C98.42 24 122.84 24 148 24 C148 20.37 148 16.74 148 13 C99.16 13 50.32 13 0 13 C0 8.71 0 4.42 0 0 Z " fill="#F5A31B" transform="translate(72,224)"/>
<path d="M0 0 C0.74 0 1.47 0 2.23 0 C3.01 -0 3.79 -0.01 4.59 -0.01 C7.21 -0.02 9.84 -0.03 12.46 -0.03 C14.34 -0.04 16.21 -0.04 18.08 -0.05 C23.19 -0.07 28.29 -0.08 33.4 -0.09 C36.59 -0.09 39.77 -0.1 42.96 -0.1 C52.93 -0.12 62.89 -0.14 72.86 -0.14 C84.37 -0.15 95.89 -0.18 107.4 -0.22 C116.3 -0.25 125.19 -0.27 134.08 -0.27 C139.4 -0.27 144.71 -0.28 150.02 -0.31 C155.02 -0.33 160.02 -0.33 165.03 -0.32 C166.86 -0.32 168.7 -0.33 170.53 -0.34 C173.04 -0.36 175.54 -0.35 178.05 -0.34 C179.14 -0.36 179.14 -0.36 180.26 -0.37 C183.83 -0.33 185.79 0.08 188.85 2.02 C191.43 4.71 191.52 5.99 191.53 9.68 C191.54 10.79 191.55 11.89 191.56 13.04 C191.55 14.23 191.54 15.42 191.52 16.65 C191.53 17.88 191.53 19.1 191.53 20.37 C191.53 22.96 191.52 25.56 191.49 28.16 C191.46 32.13 191.47 36.11 191.49 40.09 C191.48 42.61 191.47 45.13 191.46 47.65 C191.47 48.84 191.47 50.03 191.48 51.26 C191.46 52.37 191.44 53.47 191.43 54.62 C191.42 56.08 191.42 56.08 191.41 57.57 C190.73 60.97 189.59 62 186.9 64.15 C184.09 64.65 184.09 64.65 180.78 64.66 C179.53 64.67 178.28 64.68 176.99 64.69 C175.6 64.68 174.21 64.67 172.83 64.67 C171.36 64.67 169.9 64.68 168.44 64.69 C164.47 64.7 160.5 64.7 156.53 64.69 C152.38 64.67 148.23 64.68 144.08 64.69 C137.1 64.7 130.13 64.69 123.15 64.67 C115.09 64.65 107.03 64.65 98.96 64.68 C92.04 64.69 85.12 64.7 78.19 64.69 C74.06 64.68 69.92 64.68 65.79 64.69 C61.9 64.7 58.02 64.7 54.13 64.67 C52.7 64.67 51.27 64.67 49.85 64.68 C47.9 64.69 45.95 64.67 44.01 64.66 C42.92 64.65 41.83 64.65 40.7 64.65 C37.9 64.15 37.9 64.15 33.9 60.15 C33.9 48.27 33.9 36.39 33.9 24.15 C58.32 24.15 82.74 24.15 107.9 24.15 C107.9 20.52 107.9 16.89 107.9 13.15 C70.28 13.15 32.66 13.15 -6.1 13.15 C-6.1 0.04 -6.1 0.04 0 0 Z " fill="#F5A31A" transform="translate(112.10483574867249,311.8522703051567)"/>
<path d="M0 0 C3.8 3.36 5.38 6.31 6.12 11.31 C5.55 15.35 4.26 18.21 1.69 21.38 C-2.08 24.03 -5.63 25.03 -10.28 24.87 C-14.1 23.94 -16.83 21.33 -19.31 18.38 C-20.68 14.28 -21.08 10.65 -20.31 6.38 C-15.73 -1.46 -8.3 -4.07 0 0 Z " fill="#222B4A" transform="translate(278.3125,244.625)"/>
<path d="M0 0 C4.92 2.37 7.15 4.87 9 10 C9.57 13.9 9.2 15.61 7.38 19.12 C3.87 23.37 1.03 25.71 -4.5 26.5 C-9.62 25.77 -12.54 23.7 -15.88 19.81 C-17.49 15.78 -17.93 12.27 -17 8 C-12.67 0.88 -8.13 -0.97 0 0 Z " fill="#212A4A" transform="translate(275,155)"/>
<path d="M0 0 C3.79 2.15 6.4 4.94 8 9 C8.24 13.47 7.54 17.1 5.25 20.94 C1.29 24.57 -2.52 25.57 -7.93 25.46 C-11.79 24.6 -14.51 21.97 -17 19 C-18.36 14.93 -18.65 11.26 -18 7 C-13.99 -0.61 -7.8 -2.11 0 0 Z " fill="#212A4A" transform="translate(276,332)"/>
</svg>
