<?xml version="1.0" encoding="utf-8"?>
<!-- Generator: Adobe Illustrator 27.7.0, SVG Export Plug-In . SVG Version: 6.00 Build 0)  -->
<svg version="1.1" id="Layer_1" xmlns="http://www.w3.org/2000/svg" xmlns:xlink="http://www.w3.org/1999/xlink" x="0px" y="0px"
	 viewBox="0 0 512 512" style="enable-background:new 0 0 512 512;" xml:space="preserve">
<style type="text/css">
	.st0{fill:#FFF9AE;}
	.st1{fill:#00AEEF;}
	.st2{fill:#00A94F;}
	.st3{fill:#F15D22;}
	.st4{fill:#D0232B;}
</style>
<g>
	<path d="M258.2,0C119.3,0,2.3,112.6,2.3,251.5V512l255.8-0.2c138.9,0,251.5-116.9,251.5-255.8S396.9,0,258.2,0z"/>
	<path class="st0" d="M260.8,97.4c-54.9,0-105.8,29-133.9,76.2s-29.3,105.7-3.2,154l-28.2,90.8l101.3-22.9
		c58,26.1,126.1,14.4,172-29.7c45.9-44.1,60.4-111.6,36.7-170.7c-23.7-59-80.9-97.8-144.6-97.8L260.8,97.4z"/>
	<path class="st1" d="M382.7,349.7c-44.3,55.9-120.8,74.6-185.9,45.4L95.5,418.3l103.1-12.2c68.4,40,155.9,22.4,203.4-41
		s40-152.4-17.6-206.8C427.7,215,427,293.9,382.7,349.7L382.7,349.7z"/>
	<path class="st2" d="M374,320.1c-38.2,60.2-112.4,86.8-180.1,64.6l-98.3,33.6l101.3-22.9c72.2,32.6,157.3,5.9,197.9-62
		c40.6-68,23.9-155.6-38.9-203.7C404.7,181.5,412.2,260,374,320.1L374,320.1z"/>
	<path class="st3" d="M133,331c-28.2-68.1-5-146.6,55.8-188.3c60.8-41.7,142.4-35.2,195.8,15.7C335.2,93.5,244.2,77.7,175.8,122
		c-68.4,44.4-91.1,133.9-52,205.5l-28.2,90.8L133,331z"/>
	<path class="st4" d="M123.7,327.5c-35-64.7-20-145.1,35.9-192.8c56-47.7,137.8-49.9,196.1-5c-56-58.9-147.9-65-211.1-13.9
		s-76.5,142.2-30.6,209.3l-18.5,93.2L123.7,327.5z"/>
</g>
</svg>
