<svg xmlns="http://www.w3.org/2000/svg" xmlns:xlink="http://www.w3.org/1999/xlink" version="1.1" id="Layer_1" x="0px" y="0px" style="enable-background:new 0 0 512 512;" xml:space="preserve" viewBox="0.02 57.8 511.92 396.3">
<style type="text/css">
	.st0{fill:#5865F2;}
</style>
<g>
	<path class="st0" d="M433.7,91c-33.1-15.5-68.6-26.8-105.6-33.2c-4.6,8.2-9.9,19.3-13.5,28.1c-39.4-5.9-78.4-5.9-117.1,0   c-3.7-8.8-9.1-19.9-13.7-28.1c-37.1,6.4-72.6,17.7-105.7,33.3c-66.8,101-85,199.5-75.9,296.6c44.3,33.1,87.3,53.2,129.6,66.4   c10.4-14.4,19.7-29.6,27.7-45.7c-15.3-5.8-29.9-13-43.7-21.3c3.7-2.7,7.2-5.6,10.7-8.5c84.2,39.4,175.8,39.4,259,0   c3.5,2.9,7.1,5.8,10.7,8.5c-13.9,8.3-28.5,15.5-43.8,21.3c8,16,17.3,31.3,27.7,45.7c42.3-13.2,85.3-33.3,129.6-66.4   C520.5,275.2,491.7,177.6,433.7,91z M170.9,328c-25.3,0-46-23.6-46-52.4c0-28.8,20.3-52.4,46-52.4c25.7,0,46.5,23.6,46,52.4   C217,304.4,196.7,328,170.9,328z M341.1,328c-25.3,0-46-23.6-46-52.4c0-28.8,20.3-52.4,46-52.4c25.7,0,46.5,23.6,46,52.4   C387.1,304.4,366.8,328,341.1,328z"/>
</g>
</svg>