<?xml version="1.0" encoding="utf-8"?>
<!-- Generator: Adobe Illustrator 27.7.0, SVG Export Plug-In . SVG Version: 6.00 Build 0)  -->
<svg version="1.1" id="Layer_1" xmlns:serif="http://www.serif.com/"
	 xmlns="http://www.w3.org/2000/svg" xmlns:xlink="http://www.w3.org/1999/xlink" x="0px" y="0px" viewBox="0 0 512 512"
	 style="enable-background:new 0 0 512 512;" xml:space="preserve">
<style type="text/css">
	.st0{fill:#1A1D29;}
	.st1{fill:#FFFFFF;}
	.st2{fill:none;}
	.st3{fill:url(#SVGID_1_);}
</style>
<g id="Artboard1" transform="matrix(0.267857,0,0,0.441176,0,0)">
	<path class="st0" d="M1528.8,1160.5H382.7C171.3,1160.5,0,1056.5,0,928.2V232.3C0,104,171.3,0,382.7,0h1146.1
		c211.3,0,382.7,104,382.7,232.3v695.9C1911.5,1056.5,1740.1,1160.5,1528.8,1160.5z"/>
	<g transform="matrix(0.955463,0,0,0.580103,-356.942,25.8683)">
		<g id="Disney-Plus" serif:id="Disney Plus">
			<g>
				<path class="st1" d="M1722.6,1090.6c-23.3,5.4-84.8,8.4-84.8,8.4l-7.8,24.3c0,0,30.6-2.6,53-0.3c0,0,7.3-0.8,8.1,8.3
					c0.3,8.4-0.6,17.5-0.6,17.5s-0.5,5.5-8.3,6.8c-8.4,1.5-66.2,3.6-66.2,3.6l-9.4,31.6c0,0-3.4,7.3,4.4,5.2
					c7.3-1.9,67.8-13.3,75.7-11.7c8.4,2.1,17.8,13.3,15.1,23.7c-3.2,12.6-63.6,51.2-100.4,48.5c0,0-19.3,1.3-35.7-24.8
					c-15.2-24.8,5.8-72,5.8-72s-9.6-22.1-2.6-29.3c0,0,4.2-3.7,16.2-4.7l14.8-30.6c0,0-16.9,1.1-26.9-11.2
					c-9.4-11.8-10.1-17.2-2.9-20.4c7.6-3.7,77.8-16.5,126.1-14.9c0,0,16.9-1.6,31.3,27.6C1727.5,1076,1734.6,1087.8,1722.6,1090.6z
					 M1540.9,1208.3c-6.2,14.6-22.5,30.2-42.8,20.4c-20.1-9.7-52-75.1-52-75.1s-12.2-24.3-14.4-23.8c0,0-2.6-4.7-4.2,21.9
					c-1.6,26.6,0.3,78.3-10.2,86.4c-10.1,8.1-22.2,4.9-28.5-4.7c-5.7-9.4-8.1-31.8-5-71c3.7-39.2,12.8-81.1,24.5-94.2
					c11.7-13,21.1-3.6,24.6-0.2c0,0,15.6,14.1,41.3,55.6l4.5,7.6c0,0,23.3,39.2,25.8,39.1c0,0,1.9,1.8,3.6,0.5
					c2.4-0.6,1.5-13.3,1.5-13.3s-4.9-42.6-26.1-115c0,0-3.2-9.1-1-17.5c2.1-8.6,10.7-4.5,10.7-4.5s33.1,16.5,49,70.4
					C1557.7,1145.2,1547,1193.7,1540.9,1208.3z M1378.4,1070c-2.8,5.5-4.4,13.5-18.3,15.6c0,0-133.4,9.1-139.8,18.5
					c0,0-4.7,5.5,2.6,7.1c7.3,1.5,37.5,5.5,52,6.3c15.6,0.2,68.1,0.6,86.9,24.2c0,0,11.2,11.2,10.7,36.5c-0.5,25.9-5,35-15.1,44.4
					c-10.5,8.8-101,49.3-159.4-13c0,0-26.9-30,9.2-52.7c0,0,26.1-15.7,92.4,2.8c0,0,20.1,7.3,19.1,14.6
					c-1.1,7.8-16.5,16.1-38.9,15.6c-21.7-0.6-37.6-11-34.5-9.4c2.9,1.1-23.3-12.6-31.5-3.2c-8.1,8.6-6.2,13.9,1.8,19.3
					c20.3,11.5,98.6,7.5,121.9-18.5c0,0,9.2-10.5-4.9-19.1c-14.1-8.1-54.5-13-70.2-13.8c-15.1-0.8-71.2,0.2-79.3-14.8
					c0,0-8.1-10.1,0.8-38.6c9.4-29.8,74.7-41.3,103-43.9c0,0,77.7-2.8,91.9,13.1C1378.9,1060.9,1380.9,1064.6,1378.4,1070z
					 M1157.9,1244.9c-9.4,7-29.3,3.9-35-3.9c-5.7-7-7.6-34.7-6.5-78.1c1.1-43.9,2.1-98.4,11.5-107c10.1-8.8,16.2-1.1,20.1,4.9
					c4.2,5.8,9.2,12.3,10.4,26.1c1,13.8,4.2,86.1,4.2,86.1S1166.8,1238.1,1157.9,1244.9z M1178.2,1011.8c-27.4,9.1-46.2,6-62.1-0.8
					c-7,12.2-11,15.9-16.4,16.7c-7.8,0.8-14.8-11.7-16.1-15.7c-1.3-3.1-5-8.3-0.5-20.6c-15.6-13.9-16.7-32.8-14.1-45.4
					c3.9-14.6,30.2-70,110.1-76.5c0,0,39.1-2.9,45.7,18h1.1c0,0,37.9,0.2,37.1,33.9C1262.7,955.2,1221,997.3,1178.2,1011.8z
					 M1103.6,936.7c-8.1,13-8.4,20.8-4.7,26.1c9.2-14.1,26.1-36.3,50.9-53.2C1130.7,911.2,1114.6,919.5,1103.6,936.7z M1214,915
					c-25.1,3.7-64,37.5-82.5,65c28.4,5.2,78.5,3.2,100.7-42C1232,938,1242.7,910,1214,915z M1896.3,1176.2
					c-15.1,26.3-57.4,81.1-113.8,68.3c-18.6,45.2-34.2,90.8-43.1,159.2c0,0-1.9,13.3-13,8.6c-10.9-3.9-29-22.1-32.6-47.2
					c-3.9-33.1,10.9-89,40.9-153.1c-8.8-14.3-14.8-34.7-9.6-63.7c0,0,7.6-53.8,61.6-102.5c0,0,6.5-5.7,10.2-3.9
					c4.2,1.8,2.3,19.3-1.1,27.7s-27.6,50.3-27.6,50.3s-15.1,28.2-10.9,50.4c28.4-43.6,92.9-131.7,132.9-103.9
					c13.5,9.6,19.6,30.5,19.6,53C1909.7,1139.4,1905,1160.4,1896.3,1176.2z M1884.6,1107.1c0,0-2.3-17.3-19.1,1.8
					c-14.6,16.1-40.9,46.4-62.1,87.4c22.2-2.4,43.6-14.6,50.1-20.8C1864,1166.1,1888.5,1140.8,1884.6,1107.1z M1097.5,1129.2
					c-3.1,39.2-18.2,105.2-125,137.8c-70.5,21.2-137.2,11-173.5,1.8c-0.8,14.4-2.4,20.6-4.7,23c-3.1,3.1-26.1,16.4-38.7-2.4
					c-5.7-8.9-8.6-25.1-10.2-39.6c-81.7-37.6-119.3-91.8-120.8-94.2c-1.8-1.8-20.4-21.2-1.8-45.1c17.5-21.6,74.7-43.1,126.3-51.9
					c1.8-44.1,7-77.3,13.1-92.6c7.5-17.7,16.9-1.8,25,10.2c6.8,8.9,10.9,47.3,11.2,78c33.7-1.6,53.7,0.8,91.3,7.6
					c49,8.9,81.7,33.9,78.8,62.3c-2.1,27.9-27.7,39.4-37.5,40.2c-10.2,0.8-26.1-6.5-26.1-6.5c-10.9-5.2-0.8-9.7,12.3-15.4
					c14.3-7,11-14.1,11-14.1c-5.4-15.6-68.9-26.4-132.1-26.4c-0.3,34.9,1.5,92.7,2.3,126.5c44.3,8.4,77.3,6.8,77.3,6.8
					s161.5-4.5,166.3-107.7c5-103.3-161-202.3-283.7-233.8c-122.6-32.1-192-9.7-198-6.6c-6.5,3.2-0.5,4.2-0.5,4.2s6.6,1,18.2,4.9
					c12.2,3.9,2.8,10.2,2.8,10.2c-20.9,6.6-44.4,2.4-49-7.1c-4.5-9.6,3.1-18.2,11.8-30.5c8.8-13,18.3-12.5,18.3-12.5
					c151.6-52.5,336.3,42.5,336.3,42.5C1071.2,986.5,1100.7,1089.3,1097.5,1129.2z M639.9,1123.8c-17.2,8.4-5.4,20.6-5.4,20.6
					c32.3,34.7,72,56.4,109.8,69.9c4.4-59.8,3.7-80.9,4.2-111.1C689.5,1107.3,655.5,1116.7,639.9,1123.8z"/>
				<path class="st1" d="M2217.3,1111.5v21.4c0,4.7-3.7,8.4-8.4,8.4h-102c0,5.4,0.2,10.1,0.2,14.4c0,31.6-1.3,57.4-4.4,86.4
					c-0.5,4.4-4.1,7.6-8.3,7.6h-22.1c-2.3,0-4.4-1-5.8-2.6s-2.3-3.9-1.9-6.2c3.1-28.9,4.5-54.3,4.5-85.3c0-4.5,0-9.2-0.2-14.4
					h-100.8c-4.7,0-8.4-3.7-8.4-8.4v-21.4c0-4.7,3.7-8.4,8.4-8.4h99.4c-2.1-34.9-6.3-68.4-13.1-102.5c-0.3-2.1,0.2-4.2,1.5-5.8
					c1.3-1.6,3.2-2.6,5.4-2.6h23.8c3.7,0,6.8,2.6,7.6,6.3c6.6,35.2,10.9,69.4,13,104.6h103.3
					C2213.4,1103.1,2217.3,1106.9,2217.3,1111.5z"/>
				<g>
					<path class="st2" d="M854.3,828.9h-0.2 M853,829c-0.5,0-1-0.2-1.5-0.2C852,829,852.5,829,853,829h0.5H853z M853,829
						c-0.5,0-1-0.2-1.5-0.2C852,829,852.5,829,853,829h0.5H853z"/>
					
						<radialGradient id="SVGID_1_" cx="177.7672" cy="2503.001" r="0.7948" gradientTransform="matrix(396.8546 0 0 -396.8548 -68489.9531 994279.25)" gradientUnits="userSpaceOnUse">
						<stop  offset="0" style="stop-color:#FFFFFF"/>
						<stop  offset="1.000000e-02" style="stop-color:#FFFFFF"/>
						<stop  offset="3.000000e-02" style="stop-color:#CBFFFF"/>
						<stop  offset="6.000000e-02" style="stop-color:#96FFFF"/>
						<stop  offset="8.000000e-02" style="stop-color:#68FFFF"/>
						<stop  offset="0.11" style="stop-color:#43FFFF"/>
						<stop  offset="0.14" style="stop-color:#25FFFF"/>
						<stop  offset="0.16" style="stop-color:#11FFFF"/>
						<stop  offset="0.19" style="stop-color:#04FFFF"/>
						<stop  offset="0.22" style="stop-color:#00FFFF"/>
						<stop  offset="1" style="stop-color:#0000FF;stop-opacity:0"/>
					</radialGradient>
					<path class="st3" d="M2078.5,941.7c-52.7-129.5-141.7-240-257.5-319.4c-118.5-81.2-257.5-124.2-401.8-124.2
						c-238.7,0-460.1,118.5-592.3,317.1c-1.5,2.1-1.8,4.9-1,7.3c0.8,2.6,2.8,4.4,5.2,5.2l18.5,6.3c1.1,0.3,2.3,0.5,3.2,0.5
						c3.4,0,6.6-1.8,8.6-4.5c60.6-89.2,142.7-163.3,237.4-214.5c97.8-52.9,208.5-80.9,320.2-80.9c135.1,0,265.3,39.9,376.8,115.1
						c108.8,73.4,193.3,176.1,244.3,296.5c1.5,3.6,5,6,8.9,6h22.1c2.6,0,5-1.3,6.3-3.4C2079.2,946.8,2079.5,944.2,2078.5,941.7z
						 M853,829c-0.5,0-1-0.2-1.5-0.3C852,828.9,852.5,829,853,829h0.3H853z M2044.6,949.4c0.5,0.3,1,0.6,1.5,0.8
						C2045.6,949.8,2045.1,949.7,2044.6,949.4z"/>
				</g>
			</g>
		</g>
	</g>
</g>
</svg>
