<svg xmlns:sodipodi="http://sodipodi.sourceforge.net/DTD/sodipodi-0.dtd" xmlns:dc="http://purl.org/dc/elements/1.1/" xmlns:inkscape="http://www.inkscape.org/namespaces/inkscape" xmlns:cc="http://creativecommons.org/ns#" xmlns:rdf="http://www.w3.org/1999/02/22-rdf-syntax-ns#" xmlns:svg="http://www.w3.org/2000/svg" xmlns="http://www.w3.org/2000/svg" xmlns:xlink="http://www.w3.org/1999/xlink" version="1.1" id="svg2" inkscape:export-filename="/home/jpyle/gh-page-da/img/docassemble-sq-125.png" inkscape:export-xdpi="31.440001" inkscape:export-ydpi="31.440001" sodipodi:docname="cat.svg" x="0px" y="0px" style="enable-background:new 0 0 512 512;" xml:space="preserve" viewBox="-0.03 82.59 512.01 346.81">
<sodipodi:namedview bordercolor="#666666" borderopacity="1.0" fit-margin-bottom="2" fit-margin-left="1" fit-margin-right="1" fit-margin-top="2" id="base" inkscape:current-layer="layer1" inkscape:cx="17.257632" inkscape:cy="12.232985" inkscape:document-units="px" inkscape:pageopacity="0" inkscape:pageshadow="2" inkscape:window-height="715" inkscape:window-maximized="1" inkscape:window-width="1366" inkscape:window-x="0" inkscape:window-y="31" inkscape:zoom="15.839192" pagecolor="#ffffff" showgrid="false" units="pt" fill="#ffffff">
	</sodipodi:namedview>
<g id="layer1" transform="translate(-234.58207,-131.20891)" inkscape:groupmode="layer" inkscape:label="Layer 1">
	<path id="path4186" inkscape:connector-curvature="0" d="M743.4,320.1c-3.1-3.6-16.6-11-19.3-19.6c-7.5-27.2-39.3-37.1-39.3-37.1   l3.4-49.6c-14.1,4.3-33.7,20.5-54.2,41.1c-3.2-0.4-6.5-0.7-9.8-0.7c-23.5,0-44.5,11-58.1,28c-29.7-24.3-61.9-41.3-114.4-39.4   c-111,4-171.9,79-191.8,182.7c-25.5,20.3-26.7,43-24.7,55.5c5.9,38.1,51,65.8,81.2,73.2c90.4,22.4,183.4-15,236.8-95.3   c7.2-10.8,4.2-25.3-6.5-32.5c-10.8-7.2-25.3-4.2-32.5,6.5c-42.3,63.6-115.5,93.4-186.5,75.8c-19.7-4.9-42.3-21.6-45.8-33.5l5.9,1.5   h161.4c20.6-12.5,38.9-29.9,53.3-51.5c11.4-17.2,34.7-21.9,51.9-10.5c17.2,11.4,21.9,34.7,10.5,51.9c-2.3,3.4-4.7,6.8-7.1,10.1   h97.4c-0.4-0.8,0.4-0.3,0.4-0.3c-0.8-1.2-9.9-15.3-10.9-31.3c-1.9-30.3,18.4-55.4,18.4-55.4l0.2-0.3c63.5,11.1,77.3-28.8,80.8-48.2   C745.8,332.2,749,323.9,743.4,320.1L743.4,320.1z M690,313.1c-4.8,0-8.8-3.9-8.8-8.8c0-4.8,3.9-8.8,8.8-8.8c4.8,0,8.8,3.9,8.8,8.8   C698.8,309.2,694.8,313.1,690,313.1z" fill="#ffffff"/>
</g>
</svg>