<svg xmlns="http://www.w3.org/2000/svg" viewBox="0 0 48 48"><g style="stroke-width:3.33335"><path fill="#2854a1" d="M158.424 43.397c-.433-.344-4.485-3.404-13.031-3.404a41.14 41.14 0 0 0-6.726.576c-1.654-11.32-11.011-16.842-11.444-17.086l-2.298-1.32-1.509 2.174c-.111.166-2.775 4.025-4.074 9.524-1.532 6.464-.599 12.53 2.686 17.718-3.207 1.785-7.958 2.495-10.356 2.717v-14.68a3.446 3.446 0 0 0-3.452-3.449H91.96V3.448A3.447 3.447 0 0 0 88.508 0H72.78a3.447 3.447 0 0 0-3.452 3.448v14.636H33.509a3.447 3.447 0 0 0-3.452 3.448v14.635H14.03a3.447 3.447 0 0 0-3.452 3.449v14.768H6.315a6.291 6.291 0 0 0-4.495 1.874A6.224 6.224 0 0 0 0 60.76c.122 9.468 1.809 18.571 4.873 26.31 3.63 9.17 8.946 15.955 15.805 20.146 7.87 4.823 20.7 7.584 35.175 7.584 6.77 0 13.53-.61 19.524-1.763 9.457-1.818 18.037-4.934 25.507-9.247a69.87 69.87 0 0 0 17.393-14.225c8.358-9.436 13.33-19.969 17.026-29.304.5.022.988.033 1.477.033 9.146 0 14.762-3.648 17.87-6.708 3.363-3.326 4.562-6.63 4.695-6.996l.655-1.92Z" style="stroke-width:11.1112" transform="matrix(.3 0 0 .3 0 6.78)"/><path fill="#2496ed" d="M28.648 39.183H15.14c-.855 0-1.543.688-1.543 1.541v11.953c0 .854.688 1.54 1.543 1.54h13.508c.855 0 1.543-.686 1.543-1.54V40.724c0-.853-.688-1.54-1.543-1.54z" style="stroke-width:11.1112" transform="matrix(.3 0 0 .3 0 6.78)"/><path fill="#2854a1" d="M18.126 50.825c0 .21-.167.388-.389.388h-.744a.386.386 0 0 1-.388-.388v-8.227c0-.21.166-.388.388-.388h.744c.211 0 .389.177.389.388zm4.528 0c0 .21-.166.388-.388.388h-.744a.386.386 0 0 1-.389-.388v-8.227c0-.21.167-.388.389-.388h.744c.21 0 .388.177.388.388zm4.518 0c0 .21-.167.388-.389.388h-.743a.386.386 0 0 1-.389-.388v-8.227c0-.21.167-.388.389-.388h.743c.211 0 .389.177.389.388z" style="stroke-width:11.1112" transform="matrix(.3 0 0 .3 0 6.78)"/><path fill="#2496ed" d="M48.105 39.183H34.597a1.54 1.54 0 0 0-1.543 1.541v11.953c0 .854.689 1.54 1.543 1.54h13.508c.855 0 1.543-.686 1.543-1.54V40.724c0-.853-.688-1.54-1.543-1.54z" style="stroke-width:11.1112" transform="matrix(.3 0 0 .3 0 6.78)"/><path fill="#2854a1" d="M37.583 50.825c0 .21-.166.388-.388.388h-.744a.386.386 0 0 1-.389-.388v-8.227c0-.21.167-.388.389-.388h.744c.21 0 .388.177.388.388zm4.529 0c0 .21-.167.388-.389.388h-.744a.386.386 0 0 1-.388-.388v-8.227c0-.21.167-.388.389-.388h.743c.211 0 .389.177.389.388zm4.528 0c0 .21-.166.388-.388.388h-.744a.386.386 0 0 1-.388-.388v-8.227c0-.21.166-.388.388-.388h.744c.21 0 .388.177.388.388z" style="stroke-width:11.1112" transform="matrix(.3 0 0 .3 0 6.78)"/><path fill="#2496ed" d="M67.874 39.183H54.366c-.855 0-1.543.688-1.543 1.541v11.953c0 .854.688 1.54 1.543 1.54h13.508c.854 0 1.543-.686 1.543-1.54V40.724c0-.853-.689-1.54-1.543-1.54z" style="stroke-width:11.1112" transform="matrix(.3 0 0 .3 0 6.78)"/><path fill="#2854a1" d="M57.352 50.825c0 .21-.167.388-.389.388h-.744a.386.386 0 0 1-.388-.388v-8.227c0-.21.166-.388.388-.388h.744c.21 0 .389.177.389.388zm4.517 0c0 .21-.167.388-.389.388h-.743a.386.386 0 0 1-.389-.388v-8.227c0-.21.167-.388.389-.388h.743c.211 0 .389.177.389.388zm4.528 0c0 .21-.166.388-.388.388h-.744a.386.386 0 0 1-.388-.388v-8.227c0-.21.166-.388.388-.388h.744c.21 0 .388.177.388.388z" style="stroke-width:11.1112" transform="matrix(.3 0 0 .3 0 6.78)"/><path fill="#2496ed" d="M87.398 39.183H73.89c-.855 0-1.543.688-1.543 1.541v11.953c0 .854.688 1.54 1.543 1.54h13.508c.855 0 1.543-.686 1.543-1.54V40.724c0-.853-.688-1.54-1.543-1.54z" style="stroke-width:11.1112" transform="matrix(.3 0 0 .3 0 6.78)"/><path fill="#2854a1" d="M76.876 50.825c0 .21-.167.388-.389.388h-.743a.386.386 0 0 1-.389-.388v-8.227c0-.21.167-.388.389-.388h.743c.211 0 .389.177.389.388zm4.517 0c0 .21-.167.388-.389.388h-.743a.386.386 0 0 1-.389-.388v-8.227c0-.21.167-.388.389-.388h.744c.21 0 .388.177.388.388zm4.529 0c0 .21-.167.388-.389.388h-.732a.386.386 0 0 1-.389-.388v-8.227c0-.21.167-.388.389-.388h.743c.211 0 .389.177.389.388v8.227z" style="stroke-width:11.1112" transform="matrix(.3 0 0 .3 0 6.78)"/><path fill="#2496ed" d="M48.105 21.1H34.597c-.854 0-1.543.687-1.543 1.54v11.953c0 .854.689 1.541 1.543 1.541h13.508c.855 0 1.543-.687 1.543-1.541V22.641c0-.854-.688-1.541-1.543-1.541z" style="stroke-width:11.1112" transform="matrix(.3 0 0 .3 0 6.78)"/><path fill="#2854a1" d="M37.583 32.741a.385.385 0 0 1-.388.388h-.744a.386.386 0 0 1-.389-.388v-8.227c0-.21.167-.388.389-.388h.744c.21 0 .388.167.388.388zm4.529 0a.386.386 0 0 1-.389.388h-.744a.386.386 0 0 1-.388-.388v-8.227c0-.21.167-.388.389-.388h.743c.211 0 .389.167.389.388zm4.528 0a.385.385 0 0 1-.388.388h-.744a.386.386 0 0 1-.388-.388v-8.227c0-.21.166-.388.388-.388h.744c.21 0 .388.167.388.388z" style="stroke-width:11.1112" transform="matrix(.3 0 0 .3 0 6.78)"/><path fill="#2496ed" d="M67.874 21.1H54.366c-.855 0-1.543.687-1.543 1.54v11.953c0 .854.688 1.541 1.543 1.541h13.508c.854 0 1.543-.687 1.543-1.541V22.641c0-.854-.689-1.541-1.543-1.541z" style="stroke-width:11.1112" transform="matrix(.3 0 0 .3 0 6.78)"/><path fill="#2854a1" d="M57.352 32.741a.386.386 0 0 1-.389.388h-.744a.386.386 0 0 1-.388-.388v-8.227c0-.21.166-.388.388-.388h.744c.21 0 .389.167.389.388zm4.517 0a.386.386 0 0 1-.389.388h-.743a.386.386 0 0 1-.389-.388v-8.227c0-.21.167-.388.389-.388h.743c.211 0 .389.167.389.388zm4.528 0a.385.385 0 0 1-.388.388h-.744a.386.386 0 0 1-.388-.388v-8.227c0-.21.166-.388.388-.388h.744c.21 0 .388.167.388.388z" style="stroke-width:11.1112" transform="matrix(.3 0 0 .3 0 6.78)"/><path fill="#2496ed" d="M87.398 21.1H73.89c-.855 0-1.543.687-1.543 1.54v11.953c0 .854.688 1.541 1.543 1.541h13.508c.855 0 1.543-.687 1.543-1.541V22.641c0-.854-.688-1.541-1.543-1.541z" style="stroke-width:11.1112" transform="matrix(.3 0 0 .3 0 6.78)"/><path fill="#2854a1" d="M76.876 32.741a.386.386 0 0 1-.389.388h-.743a.386.386 0 0 1-.389-.388v-8.227c0-.21.167-.388.389-.388h.743c.211 0 .389.167.389.388zm4.517 0a.386.386 0 0 1-.389.388h-.743a.386.386 0 0 1-.389-.388v-8.227c0-.21.167-.388.389-.388h.744c.21 0 .388.167.388.388zm4.529 0a.386.386 0 0 1-.389.388h-.732a.386.386 0 0 1-.389-.388v-8.227c0-.21.167-.388.389-.388h.743c.211 0 .389.167.389.388v8.227z" style="stroke-width:11.1112" transform="matrix(.3 0 0 .3 0 6.78)"/><path fill="#2496ed" d="M87.398 3.016H73.89c-.855 0-1.543.687-1.543 1.541v11.952c0 .854.688 1.541 1.543 1.541h13.508c.855 0 1.543-.687 1.543-1.54V4.556c0-.854-.688-1.541-1.543-1.541z" style="stroke-width:11.1112" transform="matrix(.3 0 0 .3 0 6.78)"/><path fill="#2854a1" d="M76.876 14.658c0 .21-.167.388-.389.388h-.743a.386.386 0 0 1-.389-.388V6.43c0-.21.167-.388.389-.388h.743c.211 0 .389.166.389.388zm4.517 0c0 .21-.167.388-.389.388h-.743a.386.386 0 0 1-.389-.388V6.43c0-.21.167-.388.389-.388h.744c.21 0 .388.166.388.388zm4.529 0c0 .21-.167.388-.389.388h-.732a.386.386 0 0 1-.389-.388V6.43c0-.21.167-.388.389-.388h.743c.211 0 .389.166.389.388v8.227z" style="stroke-width:11.1112" transform="matrix(.3 0 0 .3 0 6.78)"/><path fill="#2496ed" d="M107.1 39.183H93.591c-.854 0-1.542.688-1.542 1.541v11.953c0 .854.688 1.54 1.542 1.54H107.1c.854 0 1.542-.686 1.542-1.54V40.724c0-.853-.699-1.54-1.542-1.54z" style="stroke-width:11.1112" transform="matrix(.3 0 0 .3 0 6.78)"/><path fill="#2854a1" d="M96.566 50.825c0 .21-.166.388-.388.388h-.744a.386.386 0 0 1-.388-.388v-8.227c0-.21.166-.388.388-.388h.744c.21 0 .388.177.388.388zm4.529 0c0 .21-.167.388-.389.388h-.744a.386.386 0 0 1-.388-.388v-8.227c0-.21.167-.388.389-.388h.743c.211 0 .389.177.389.388zm4.528 0c0 .21-.166.388-.388.388h-.744a.385.385 0 0 1-.388-.388v-8.227c0-.21.166-.388.388-.388h.744c.211 0 .388.177.388.388z" style="stroke-width:11.1112" transform="matrix(.3 0 0 .3 0 6.78)"/><path fill="#2496ed" d="M2.886 60.493a3.215 3.215 0 0 1 3.208-3.237h104.302c.755 0 11.133-.543 15.606-5.078-10.012-12.141-.233-26.2-.233-26.2s10.245 5.899 10.245 18.05c14.429-3.337 20.589 1.608 20.589 1.608s-4.595 13.416-23.22 11.598c-6.937 17.972-19.602 45.47-58.561 52.976-16.838 3.237-40.27 2.129-52.645-5.444C8.635 96.472 3.03 77.579 2.886 60.493Z" style="stroke-width:11.1112" transform="matrix(.3 0 0 .3 0 6.78)"/><path fill="#fff" d="M51.313 89.066c2.9 0 5.25-2.363 5.25-5.278 0-2.915-2.35-5.277-5.25-5.277s-5.25 2.363-5.25 5.277c0 2.915 2.35 5.278 5.25 5.278z" style="stroke-width:11.1112" transform="matrix(.3 0 0 .3 0 6.78)"/><path fill="#2854a1" d="M51.757 82.17c-.11-.477.033-.92.311-1.276a2.878 2.878 0 0 0-1.41-.033c-1.61.366-2.62 1.974-2.253 3.604a3.01 3.01 0 0 0 3.596 2.273c1.61-.366 2.62-1.974 2.254-3.604-.012-.055-.045-.11-.056-.166a1.469 1.469 0 0 1-.633.344 1.51 1.51 0 0 1-1.809-1.142Z" style="stroke-width:11.1112" transform="matrix(.3 0 0 .3 0 6.78)"/><path fill="#fff" d="M42.012 94.909c-.011 0-.011.011-.022.011a42.106 42.106 0 0 1-21.456 5.865c-.988 0-2.342-.077-3.685-.199a29.906 29.906 0 0 0 5.328 4.169c8.125 4.967 21.011 7.162 33.665 7.162 2.608 0 5.206-.088 7.747-.277-8.98-2.927-16.582-8.914-21.577-16.731z" style="stroke-width:11.1112" transform="matrix(.3 0 0 .3 0 6.78)"/><path fill="#2854a1" d="M20.534 100.785c-2.098 0-4.45-.199-6.304-.454-.789-.111-1.72-3.138-.922-3.016 1.72.244 5.284.599 7.226.599a39.133 39.133 0 0 0 19.98-5.466 1.445 1.445 0 0 1 1.975.499c.41.676.178 1.563-.5 1.973a42.106 42.106 0 0 1-21.455 5.865z" style="stroke-width:11.1112" transform="matrix(.3 0 0 .3 0 6.78)"/></g></svg>