<?xml version="1.0" encoding="utf-8"?>
<!-- Generator: Adobe Illustrator 27.7.0, SVG Export Plug-In . SVG Version: 6.00 Build 0)  -->
<svg version="1.1"
	 id="svg8" xmlns:sodipodi="http://sodipodi.sourceforge.net/DTD/sodipodi-0.dtd" xmlns:dc="http://purl.org/dc/elements/1.1/" xmlns:inkscape="http://www.inkscape.org/namespaces/inkscape" xmlns:cc="http://creativecommons.org/ns#" xmlns:rdf="http://www.w3.org/1999/02/22-rdf-syntax-ns#" xmlns:svg="http://www.w3.org/2000/svg" sodipodi:docname="logo-only.svg"
	 xmlns="http://www.w3.org/2000/svg" xmlns:xlink="http://www.w3.org/1999/xlink" x="0px" y="0px" viewBox="0 0 512 512"
	 style="enable-background:new 0 0 512 512;" xml:space="preserve">
<style type="text/css">
	.st0{fill:#1C2D61;}
	.st1{fill:#F0F8FF;}
	.st2{fill:#9C0011;}
</style>
<g>
	
		<sodipodi:namedview  bordercolor="#666666" borderopacity="1.0" id="base" inkscape:current-layer="g4744" inkscape:cx="-280.5528" inkscape:cy="36.929238" inkscape:document-units="mm" inkscape:guide-bbox="true" inkscape:pageopacity="0.0" inkscape:pageshadow="2" inkscape:snap-text-baseline="true" inkscape:window-height="2141" inkscape:window-maximized="0" inkscape:window-width="2371" inkscape:window-x="1468" inkscape:window-y="18" inkscape:zoom="0.7" pagecolor="#ffffff" showgrid="false" showguides="true">
		<sodipodi:guide  id="guide4763" inkscape:locked="false" orientation="0,1" position="157.48529,365.37511"></sodipodi:guide>
	</sodipodi:namedview>
	<g id="layer1" transform="translate(-36.01786,-22.720551)" inkscape:groupmode="layer" inkscape:label="Ebene 1">
		
			<path id="path4746" sodipodi:cx="103.27543" sodipodi:cy="89.978119" sodipodi:end="6.0351217" sodipodi:open="true" sodipodi:rx="67.257568" sodipodi:ry="67.257568" sodipodi:start="6.0364656" sodipodi:type="arc" class="st0" d="
			M540.2,216.2c34.5,137-48.6,276.1-185.6,310.7c-137,34.6-276.1-48.5-310.7-185.5S92.3,65.2,229.3,30.6
			c137-34.7,276.2,48.3,310.9,185.3"/>
		
			<path id="path4746-6" sodipodi:cx="103.54803" sodipodi:cy="89.966118" sodipodi:end="6.0351217" sodipodi:open="true" sodipodi:rx="48.911774" sodipodi:ry="48.911774" sodipodi:start="6.0364656" sodipodi:type="arc" class="st1" d="
			M473.5,233.2c25.1,99.7-35.3,200.8-135,225.9s-200.8-35.3-226-134.9s35.2-200.8,134.8-226C347,73,448.3,133.4,473.5,233"/>
		<g id="g4744" transform="translate(8.5571306,109.20034)">
			
				<path id="path4677-7-3-9" sodipodi:cx="94.276443" sodipodi:cy="-19.170753" sodipodi:end="6.0351217" sodipodi:open="true" sodipodi:rx="34.40884" sodipodi:ry="35.990559" sodipodi:start="6.0364643" sodipodi:type="arc" class="st2" d="
				M408.8,136.3c17.7,73.3-24.8,147.8-95,166.2s-141.3-25.9-159-99.3s24.8-147.8,94.8-166.3s141.3,25.8,159,99.1"/>
			<path id="rect4736-4" class="st2" d="M418.2-57.9l7.8,0.9c13.5,1.6,23.1,13.8,21.3,27.4l-41.9,320c-1.8,13.5-14.2,23.2-27.7,21.6
				l-7.8-0.9c-13.5-1.6-23.1-13.8-21.3-27.4l41.9-320C392.2-49.8,404.7-59.4,418.2-57.9z"/>
			<g id="flowRoot4789" transform="matrix(0.26458333,0,0,0.26458333,-8.5571306,-109.20034)">
			</g>
		</g>
	</g>
</g>
</svg>
