<svg xmlns="http://www.w3.org/2000/svg" xmlns:svg="http://www.w3.org/2000/svg" id="svg8" width="508.404" height="508.404" version="1.1" viewBox="0 0 134.515 134.515"><metadata id="metadata5"/><g id="layer1" transform="translate(-36.01786,-22.720551)"><path style="opacity:1;fill:#1c2d61;fill-opacity:1;fill-rule:nonzero;stroke:none;stroke-width:.48060441;stroke-linecap:round;stroke-linejoin:miter;stroke-miterlimit:4;stroke-dasharray:none;stroke-dashoffset:0;stroke-opacity:1;paint-order:stroke fill markers" id="path4746" d="M 168.49635,73.552185 A 67.257568,67.257568 0 0 1 119.72327,155.19352 67.257568,67.257568 0 0 1 38.065555,106.44787 67.257568,67.257568 0 0 1 86.783766,24.773782 67.257568,67.257568 0 0 1 168.47422,73.46455"/><path style="opacity:1;fill:#f0f8ff;fill-opacity:1;fill-rule:nonzero;stroke:none;stroke-width:.34951028;stroke-linecap:round;stroke-linejoin:miter;stroke-miterlimit:4;stroke-dasharray:none;stroke-dashoffset:0;stroke-opacity:1;paint-order:stroke fill markers" id="path4746-6" d="M 150.97869,78.020673 A 48.911774,48.911774 0 0 1 115.50941,137.39277 48.911774,48.911774 0 0 1 56.1254,101.94343 48.911774,48.911774 0 0 1 91.554782,42.547517 48.911774,48.911774 0 0 1 150.9626,77.956942"/><g id="g4744" transform="translate(8.5571306,109.20034)" style="fill:#9c0011;fill-opacity:1;stroke:none"><path id="path4677-7-3-9" d="M 127.64333,-27.960568 A 34.40884,35.990559 0 0 1 102.69116,15.727003 34.40884,35.990559 0 0 1 60.915205,-10.357512 34.40884,35.990559 0 0 1 85.83933,-54.062594 34.40884,35.990559 0 0 1 127.63202,-28.007418" style="opacity:1;fill:#9c0011;fill-opacity:1;fill-rule:nonzero;stroke:none;stroke-width:.12413885;stroke-linecap:round;stroke-linejoin:miter;stroke-miterlimit:4;stroke-dasharray:none;stroke-dashoffset:0;stroke-opacity:1;paint-order:stroke fill markers"/><rect id="rect4736-4" width="15.057" height="97.792" x="112.296" y="-93.585" ry="6.491" transform="matrix(0.9932084,0.11634897,-0.12978749,0.99154183,0,0)" style="opacity:1;fill:#9c0011;fill-opacity:1;fill-rule:nonzero;stroke:none;stroke-width:.15839411;stroke-linecap:round;stroke-linejoin:miter;stroke-miterlimit:4;stroke-dasharray:none;stroke-dashoffset:0;stroke-opacity:1;paint-order:stroke fill markers"/><flowRoot id="flowRoot4789" transform="matrix(0.26458333,0,0,0.26458333,-8.5571306,-109.20034)" xml:space="preserve" style="font-style:normal;font-variant:normal;font-weight:400;font-stretch:normal;font-size:192px;line-height:1.25;font-family:'Liberation Sans';-inkscape-font-specification:'Liberation Sans';font-variant-ligatures:normal;font-variant-caps:normal;font-variant-numeric:normal;font-feature-settings:normal;text-align:start;letter-spacing:0;word-spacing:0;writing-mode:lr-tb;text-anchor:start;fill:#000;fill-opacity:1;stroke:none"><flowRegion id="flowRegion4791" style="font-size:192px"><rect id="rect4793" width="200" height="308.571" x="480" y="733.948" style="font-size:192px"/></flowRegion><flowPara id="flowPara4795"/></flowRoot></g></g></svg>