<svg xmlns="http://www.w3.org/2000/svg" xmlns:xlink="http://www.w3.org/1999/xlink" version="1.1" id="Layer_1" x="0px" y="0px" style="enable-background:new 0 0 512 512;" xml:space="preserve" viewBox="0 38.28 512.1 435.93">
<style type="text/css">
	.st0{fill-rule:evenodd;clip-rule:evenodd;fill:#FFFFFF;}
	.st1{fill-rule:evenodd;clip-rule:evenodd;fill:#3ECC5F;}
	.st2{fill-rule:evenodd;clip-rule:evenodd;fill:#44D860;}
	.st3{fill-rule:evenodd;clip-rule:evenodd;}
	.st4{fill-rule:evenodd;clip-rule:evenodd;fill:#FFFF50;}
</style>
<g>
	<path class="st0" d="M252.1,129.7h220.6v89.3H252.1V129.7z"/>
	<path class="st1" d="M52.5,421.1c-19.4,0-36.3-10.6-45.4-26.3c-4.6,8-7.1,17-7.1,26.3c0,29,23.5,52.5,52.5,52.5H105v-52.5H52.5z"/>
	<path class="st1" d="M288.8,143.8l183.8-11.5V106c0-29-23.5-52.5-52.5-52.5H183.8l-6.6-11.4c-2.9-5.1-10.2-5.1-13.1,0l-6.6,11.4   L151,42.2c-2.9-5.1-10.2-5.1-13.1,0l-6.6,11.4l-6.6-11.4c-2.9-5.1-10.2-5.1-13.1,0L105,53.5c-0.1,0-0.1,0-0.2,0L94,42.7   c-4.1-4.1-11.2-2.2-12.7,3.4l-3.6,13.4l-13.6-3.7c-5.6-1.5-10.8,3.6-9.3,9.3l3.6,13.6L45,82.3c-5.6,1.5-7.5,8.6-3.4,12.7l10.9,10.9   c0,0.1,0,0.1,0,0.2l-11.4,6.6c-5.1,2.9-5.1,10.2,0,13.1l11.4,6.6l-11.4,6.6c-5.1,2.9-5.1,10.2,0,13.1l11.4,6.6l-11.4,6.6   c-5.1,2.9-5.1,10.2,0,13.1l11.4,6.6l-11.4,6.6c-5.1,2.9-5.1,10.2,0,13.1l11.4,6.6l-11.4,6.6c-5.1,2.9-5.1,10.2,0,13.1l11.4,6.6   l-11.4,6.6c-5.1,2.9-5.1,10.2,0,13.1l11.4,6.6l-11.4,6.6c-5.1,2.9-5.1,10.2,0,13.1l11.4,6.6l-11.4,6.6c-5.1,2.9-5.1,10.2,0,13.1   l11.4,6.6l-11.4,6.6c-5.1,2.9-5.1,10.2,0,13.1l11.4,6.6l-11.4,6.6c-5.1,2.9-5.1,10.2,0,13.1l11.4,6.6l-11.4,6.6   c-5.1,2.9-5.1,10.2,0,13.1l11.4,6.6l-11.4,6.6c-5.1,2.9-5.1,10.2,0,13.1l11.4,6.6c0,29,23.5,52.5,52.5,52.5h315.1   c29,0,52.5-23.5,52.5-52.5V211.1l-183.8-11.5c-14.7-0.9-26.2-13.1-26.2-27.9C262.6,156.9,274,144.7,288.8,143.8"/>
	<path class="st1" d="M367.6,473.6h78.8v-105h-78.8V473.6z"/>
	<path class="st2" d="M498.9,408c-0.6,0-1.1,0.1-1.7,0.2c-0.1-0.4-0.2-0.8-0.3-1.2c6.7-2.8,9.8-10.5,7-17.2c-2-4.9-6.8-8.1-12.1-8.1   c-2.9,0-5.7,1-7.9,2.7c-0.3-0.3-0.6-0.6-0.9-0.9c1.7-2.3,2.6-5,2.7-7.8c0-7.3-5.9-13.1-13.1-13.1c-5.3,0-10,3.1-12.1,8   c-0.4-0.1-0.8-0.2-1.2-0.3c0.1-0.6,0.2-1.1,0.2-1.7c0-7.3-5.9-13.1-13.1-13.1s-13.1,5.9-13.1,13.1c0,0.6,0.1,1.1,0.2,1.7   c-0.4,0.1-0.8,0.2-1.2,0.3c-2.8-6.7-10.5-9.8-17.2-7c-4.9,2.1-8,6.8-8,12.1c0,3,1,5.6,2.7,7.8c-9.8,9.5-15.8,22.8-15.8,37.5   c0,29,23.5,52.5,52.5,52.5c24.5,0,45.1-16.8,50.8-39.6c0.6,0.1,1.1,0.2,1.7,0.2c7.3,0,13.1-5.9,13.1-13.1S506.1,408,498.9,408"/>
	<path class="st1" d="M393.8,316.1h78.8v-52.5h-78.8V316.1z"/>
	<path class="st2" d="M498.9,296.4c3.6,0,6.6-2.9,6.6-6.6c0-3.6-2.9-6.6-6.6-6.6c-0.3,0-0.6,0-0.8,0.1c-0.1-0.2-0.1-0.4-0.2-0.6   c3.3-1.4,4.9-5.3,3.5-8.6c-1-2.4-3.4-4-6-4c-1.5,0-2.9,0.5-4,1.4c-0.1-0.1-0.3-0.3-0.4-0.4c0.8-1.1,1.3-2.4,1.3-3.9   c0-3.6-2.9-6.6-6.6-6.6c-2.6,0-5,1.6-6,4c-2.3-0.7-4.7-1-7.1-1c-14.5,0-26.3,11.8-26.3,26.3c0,14.5,11.8,26.3,26.3,26.3   c2.5,0,4.8-0.4,7.1-1c1.4,3.3,5.3,4.9,8.6,3.5c2.4-1,4-3.4,4-6c0-1.5-0.5-2.8-1.3-3.9c0.1-0.1,0.3-0.3,0.4-0.4   c1.1,0.8,2.5,1.4,4,1.4c3.6,0,6.6-2.9,6.6-6.6c0-2.6-1.6-5-4-6.1c0.1-0.2,0.1-0.4,0.2-0.6C498.3,296.4,498.6,296.4,498.9,296.4"/>
	<path class="st3" d="M157.5,138.9c-3.6,0-6.6-2.9-6.6-6.6c0-10.9-8.8-19.7-19.7-19.7s-19.7,8.8-19.7,19.7c0,3.6-2.9,6.6-6.6,6.6   s-6.6-2.9-6.6-6.6c0-18.1,14.7-32.8,32.8-32.8s32.8,14.7,32.8,32.8C164.1,135.9,161.2,138.9,157.5,138.9"/>
	<path class="st4" d="M262.6,473.6h157.5c29,0,52.5-23.5,52.5-52.5V237.3H315.1c-29,0-52.5,23.5-52.5,52.5V473.6z"/>
	<path class="st3" d="M433.3,318.7H301.9c-1.5,0-2.6-1.2-2.6-2.6c0-1.5,1.2-2.6,2.6-2.6h131.4c1.5,0,2.6,1.2,2.6,2.6   C435.9,317.5,434.7,318.7,433.3,318.7 M433.3,371.2H301.9c-1.5,0-2.6-1.2-2.6-2.6c0-1.5,1.2-2.6,2.6-2.6h131.4   c1.5,0,2.6,1.2,2.6,2.6C435.9,370.1,434.7,371.2,433.3,371.2 M433.3,423.7H301.9c-1.5,0-2.6-1.2-2.6-2.6c0-1.5,1.2-2.6,2.6-2.6   h131.4c1.5,0,2.6,1.2,2.6,2.6C435.9,422.6,434.7,423.7,433.3,423.7 M433.3,293H301.9c-1.5,0-2.6-1.2-2.6-2.6c0-1.5,1.2-2.6,2.6-2.6   h131.4c1.5,0,2.6,1.2,2.6,2.6C435.9,291.8,434.7,293,433.3,293 M433.3,345H301.9c-1.5,0-2.6-1.2-2.6-2.6c0-1.5,1.2-2.6,2.6-2.6   h131.4c1.5,0,2.6,1.2,2.6,2.6C435.9,343.8,434.7,345,433.3,345 M433.3,397.5H301.9c-1.5,0-2.6-1.2-2.6-2.6s1.2-2.6,2.6-2.6h131.4   c1.5,0,2.6,1.2,2.6,2.6S434.7,397.5,433.3,397.5 M472.6,154.9C472.6,154.9,472.6,154.9,472.6,154.9c-8.2,0.3-12,8.4-15.4,15.5   c-3.5,7.5-6.3,12.3-10.7,12.2c-5-0.2-7.8-5.8-10.8-11.7c-3.5-6.8-7.4-14.5-15.7-14.2c-8,0.3-11.8,7.3-15.2,13.6   c-3.6,6.6-6.1,10.7-10.8,10.5c-5.1-0.2-7.7-4.7-10.9-10c-3.5-5.9-7.5-12.5-15.6-12.2c-7.9,0.3-11.7,6.3-15.1,11.6   c-3.6,5.6-6.1,9-10.9,8.8c-5.2-0.2-7.9-4-11-8.3c-3.5-4.9-7.4-10.5-15.5-10.2c-7.7,0.3-11.6,5.2-15,9.5c-3.2,4.1-5.8,7.4-11.1,7.2   c-1.5-0.1-2.7,1.1-2.7,2.5c-0.1,1.5,1.1,2.7,2.5,2.7c7.9,0.3,11.9-4.7,15.4-9.2c3.1-3.9,5.8-7.3,11-7.5c5.1-0.2,7.4,2.9,11,8   c3.4,4.8,7.3,10.3,15,10.6c8.1,0.3,12.1-5.8,15.5-11.2c3.1-4.8,5.8-9,10.9-9.1c4.7-0.2,7.3,3.5,10.9,9.7   c3.4,5.8,7.3,12.3,15.2,12.6c8.2,0.3,12.2-6.9,15.6-13.2c3-5.5,5.8-10.7,10.8-10.8c4.7-0.1,7.2,4.2,10.8,11.4   c3.4,6.7,7.2,14.3,15.3,14.6l0.4,0c8,0,11.9-8.1,15.2-15.2c3-6.3,5.8-12.3,10.7-12.5C472.6,160.2,472.6,154.9,472.6,154.9z"/>
	<path class="st1" d="M210.1,473.6h105v-105h-105V473.6z"/>
	<path class="st2" d="M367.6,408c-0.6,0-1.1,0.1-1.7,0.2c-0.1-0.4-0.2-0.8-0.3-1.2c6.7-2.8,9.8-10.5,7-17.2c-2-4.9-6.8-8.1-12.1-8.1   c-2.9,0-5.7,1-7.9,2.7c-0.3-0.3-0.6-0.6-0.9-0.9c1.7-2.3,2.6-5,2.7-7.8c0-7.3-5.9-13.1-13.1-13.1c-5.3,0-10,3.1-12.1,8   c-0.4-0.1-0.8-0.2-1.2-0.3c0.1-0.6,0.2-1.1,0.2-1.7c0-7.3-5.9-13.1-13.1-13.1c-7.3,0-13.1,5.9-13.1,13.1c0,0.6,0.1,1.1,0.2,1.7   c-0.4,0.1-0.8,0.2-1.2,0.3c-2.8-6.7-10.5-9.8-17.2-7c-4.9,2.1-8,6.8-8,12.1c0,3,1,5.6,2.7,7.8c-9.8,9.5-15.8,22.8-15.8,37.5   c0,29,23.5,52.5,52.5,52.5c24.5,0,45.1-16.8,50.8-39.6c0.6,0.1,1.1,0.2,1.7,0.2c7.3,0,13.1-5.9,13.1-13.1S374.8,408,367.6,408"/>
	<path class="st1" d="M210.1,316.1h105v-52.5h-105V316.1z"/>
	<path class="st2" d="M341.3,296.4c3.6,0,6.6-2.9,6.6-6.6c0-3.6-2.9-6.6-6.6-6.6c-0.3,0-0.6,0-0.8,0.1c-0.1-0.2-0.1-0.4-0.2-0.6   c3.3-1.4,4.9-5.3,3.5-8.6c-1-2.4-3.4-4-6-4c-1.5,0-2.9,0.5-4,1.4c-0.1-0.1-0.3-0.3-0.4-0.4c0.8-1.1,1.3-2.4,1.3-3.9   c0-3.6-2.9-6.6-6.6-6.6c-2.6,0-5,1.6-6,4c-2.3-0.7-4.7-1-7.1-1c-14.5,0-26.3,11.8-26.3,26.3c0,14.5,11.8,26.3,26.3,26.3   c2.5,0,4.8-0.4,7.1-1c1.4,3.3,5.3,4.9,8.6,3.5c2.4-1,4-3.4,4-6c0-1.5-0.5-2.8-1.3-3.9c0.1-0.1,0.3-0.3,0.4-0.4   c1.1,0.8,2.5,1.4,4,1.4c3.6,0,6.6-2.9,6.6-6.6c0-2.6-1.6-5-4-6.1c0.1-0.2,0.1-0.4,0.2-0.6C340.8,296.4,341,296.4,341.3,296.4"/>
	<path class="st3" d="M367.6,102.8c-0.4,0-0.9-0.1-1.3-0.1c-0.4-0.1-0.8-0.2-1.2-0.4c-0.4-0.2-0.8-0.4-1.1-0.6   c-0.3-0.2-0.7-0.5-1-0.8c-0.3-0.3-0.6-0.6-0.8-1c-0.2-0.4-0.4-0.7-0.6-1.1c-0.3-0.8-0.5-1.7-0.5-2.5c0-0.4,0.1-0.9,0.1-1.3   c0.1-0.4,0.2-0.8,0.4-1.2c0.2-0.4,0.4-0.8,0.6-1.1c0.2-0.3,0.5-0.7,0.8-1c0.3-0.3,0.7-0.6,1-0.8c0.4-0.2,0.7-0.4,1.1-0.6   c0.4-0.2,0.8-0.3,1.2-0.4c0.8-0.2,1.7-0.2,2.6,0c0.4,0.1,0.8,0.2,1.2,0.4c0.4,0.2,0.8,0.4,1.1,0.6c0.3,0.2,0.7,0.5,1,0.8   c0.3,0.3,0.6,0.7,0.8,1c0.2,0.4,0.4,0.7,0.6,1.1c0.2,0.4,0.3,0.8,0.4,1.2c0.1,0.4,0.1,0.9,0.1,1.3c0,1.7-0.7,3.4-1.9,4.6   c-0.3,0.3-0.7,0.6-1,0.8c-0.4,0.2-0.7,0.4-1.1,0.6C369.3,102.6,368.5,102.8,367.6,102.8 M420.1,99.5c-1.7,0-3.4-0.7-4.6-1.9   c-0.3-0.3-0.6-0.6-0.8-1c-0.2-0.4-0.4-0.7-0.6-1.1c-0.3-0.8-0.5-1.7-0.5-2.5c0-1.7,0.7-3.4,1.9-4.6c0.3-0.3,0.7-0.6,1-0.8   c0.4-0.2,0.7-0.4,1.1-0.6c0.4-0.2,0.8-0.3,1.2-0.4c0.8-0.2,1.7-0.2,2.6,0c0.4,0.1,0.8,0.2,1.2,0.4c0.4,0.2,0.8,0.4,1.1,0.6   c0.3,0.2,0.7,0.5,1,0.8c1.2,1.2,1.9,2.9,1.9,4.6c0,0.4-0.1,0.9-0.1,1.3c-0.1,0.4-0.2,0.8-0.4,1.2c-0.2,0.4-0.4,0.8-0.6,1.1   c-0.2,0.3-0.5,0.7-0.8,1c-0.3,0.3-0.7,0.6-1,0.8c-0.4,0.2-0.7,0.4-1.1,0.6C421.8,99.3,421,99.5,420.1,99.5"/>
</g>
</svg>