<svg xmlns="http://www.w3.org/2000/svg" xmlns:xlink="http://www.w3.org/1999/xlink" version="1.1" id="Layer_1" x="0px" y="0px" style="enable-background:new 0 0 512 512;" xml:space="preserve" viewBox="-0.03 24 512.07 464">
<style type="text/css">
	.st0{fill:#AA968C;}
	.st1{fill:#C8AF9B;}
	.st2{fill:#464655;}
	.st3{fill:#8C7873;}
</style>
<g>
	<path class="st0" d="M504,248c0,128.1-111,240-248,240S8,376.1,8,248S119,24,256,24S504,119.9,504,248z"/>
	<path class="st0" d="M256,24C119,24,8,119.9,8,248c0,24.6,4.1,48.6,11.7,71.4C45.3,353.7,86,376,132,376   c53.9,0,100.6-30.5,124-75.1c23.4,44.6,70.1,75.1,124,75.1c46,0,86.7-22.3,112.3-56.6c7.6-22.8,11.7-46.8,11.7-71.4   C504,119.9,393,24,256,24z"/>
	<circle class="st1" cx="256" cy="352" r="136"/>
	<g>
		<circle class="st2" cx="132" cy="204" r="28"/>
		<circle class="st2" cx="380" cy="204" r="28"/>
		<path class="st2" d="M269.9,284.5c-7.7,10.7-20.2,10.7-27.9,0l-12.1-16.9c-7.7-10.7-3.2-19.5,10.1-19.5h32    c13.2,0,17.7,8.8,10.1,19.5L269.9,284.5z"/>
	</g>
	<path class="st0" d="M351,400c-34.3,0-51.9-48-95.1-48c-43.1,0-60.7,48-95.1,48c-15.4,0-29.1-5.9-40.2-25.2   C131.6,439,187.9,488,255.9,488c68,0,124.3-49,135.3-113.2C380,394.1,366.4,400,351,400z"/>
	<g>
		<path class="st3" d="M32,424c-3.2,0-6.2-1.9-7.4-5c-1.6-4.1,0.4-8.8,4.5-10.4l160-64c4.1-1.6,8.8,0.4,10.4,4.5    c1.6,4.1-0.4,8.8-4.5,10.4l-160,64C34,423.8,33,424,32,424z"/>
		<path class="st3" d="M16,376c-3.5,0-6.8-2.4-7.7-6c-1.1-4.3,1.4-8.6,5.7-9.8l152-40c4.3-1.1,8.6,1.4,9.8,5.7    c1.1,4.3-1.4,8.6-5.7,9.8l-152,40C17.4,375.9,16.7,376,16,376z"/>
		<path class="st3" d="M8,336c-3.8,0-7.2-2.7-7.9-6.6c-0.8-4.4,2.1-8.5,6.5-9.3l136-24c4.3-0.8,8.5,2.1,9.3,6.5    c0.8,4.4-2.1,8.5-6.5,9.3l-136,24C8.9,336,8.5,336,8,336z"/>
		<path class="st3" d="M480,424c3.2,0,6.2-1.9,7.4-5c1.6-4.1-0.4-8.8-4.5-10.4l-160-64c-4.1-1.6-8.8,0.4-10.4,4.5    c-1.6,4.1,0.4,8.8,4.5,10.4l160,64C478,423.8,479,424,480,424z"/>
		<path class="st3" d="M496,376c3.5,0,6.8-2.4,7.7-6c1.1-4.3-1.4-8.6-5.7-9.8l-152-40c-4.3-1.1-8.6,1.4-9.8,5.7    c-1.1,4.3,1.4,8.6,5.7,9.8l152,40C494.6,375.9,495.3,376,496,376z"/>
		<path class="st3" d="M504,336c3.8,0,7.2-2.7,7.9-6.6c0.8-4.4-2.1-8.5-6.5-9.3l-136-24c-4.3-0.8-8.5,2.1-9.3,6.5    c-0.8,4.4,2.1,8.5,6.5,9.3l136,24C503.1,336,503.5,336,504,336z"/>
	</g>
</g>
</svg>