<?xml version="1.0" encoding="utf-8"?>
<!-- Generator: Adobe Illustrator 27.7.0, SVG Export Plug-In . SVG Version: 6.00 Build 0)  -->
<svg version="1.1" id="Layer_1" xmlns="http://www.w3.org/2000/svg" xmlns:xlink="http://www.w3.org/1999/xlink" x="0px" y="0px"
	 viewBox="0 0 512 512" style="enable-background:new 0 0 512 512;" xml:space="preserve">
<style type="text/css">
	.st0{fill:#A7E575;}
	.st1{fill:none;stroke:#000000;}
</style>
<path class="st0" d="M444,512H68c-37.6,0-68-30.4-68-68V68C0,30.4,30.4,0,68,0h376c37.6,0,68,30.4,68,68v376
	C512,481.6,481.6,512,444,512z"/>
<g>
	<path d="M225.1,113.6c-4.6,4.2-9.7,9.1-15.6,14.9c-3.7,2.9-8.2,4.5-13,4.6l-19.5,0.4l5.7-5.7C217.3,93.3,234.5,76,256,76
		c21.5,0,38.7,17.3,73.3,51.8l5.7,5.7l-18.9-0.4c-5.3-0.1-10.4-2.2-14.3-5.8l-11.3-10.5c-1.1-1-2.1-2-3.1-2.9l-0.6-0.6
		c-3.9-3.5-7.4-6.5-10.7-9c-9.6-7.3-15.2-9-19.9-9c-4.8,0-10.4,1.7-19.9,9C232.7,107,229.1,110,225.1,113.6L225.1,113.6z"/>
	<path d="M398,224.7c-0.9-1-1.9-2.1-2.9-3.1l-10.5-11.3c-3.6-3.9-5.7-9-5.8-14.3l-0.4-18.9l5.7,5.7c34.5,34.5,51.8,51.8,51.8,73.3
		c0,18.3-12.5,33.5-37.6,59c-4.4,4.4-9.1,9.2-14.2,14.3l-5.7,5.7l0.4-18.9c0.1-5.3,2.2-10.4,5.8-14.3l10.5-11.3c1-1.1,2-2.1,2.9-3.1
		l0.6-0.6c3.5-3.9,6.5-7.4,9-10.7c7.3-9.6,9-15.2,9-19.9c0-4.8-1.7-10.4-9-19.9c-2.5-3.3-5.5-6.8-9-10.7L398,224.7z"/>
	<path d="M287.1,398.2c1.2-1.1,2.3-2.1,3.6-3.3l11.1-10.3c3.9-3.6,9-5.7,14.3-5.8l18.9-0.4l-5.7,5.7c-5.1,5.1-9.8,9.8-14.3,14.2
		c-25.5,25.1-40.7,37.6-59,37.6c-18.3,0-33.5-12.5-59-37.6c-4.4-4.4-9.2-9.1-14.3-14.2l-5.7-5.7l18.9,0.4c5.3,0.1,10.4,2.1,14.3,5.7
		l7.6,7c7,6.7,12.8,11.9,18.2,16c9.6,7.3,15.2,9,19.9,9c4.8,0,10.4-1.7,19.9-9c3.4-2.6,6.9-5.6,10.8-9.2L287.1,398.2z"/>
	<path d="M113.6,286.9c1.2,1.3,2.4,2.6,3.6,3.9l10.1,10.9c3.6,3.9,5.7,9,5.8,14.3l0.4,18.9l-5.7-5.7c-5.1-5.1-9.8-9.8-14.2-14.3
		C88.5,289.5,76,274.3,76,256c0-21.5,17.3-38.7,51.8-73.3l5.7-5.7l-0.4,18.9c-0.1,5.3-2.2,10.4-5.8,14.3L117,221.5
		c-1,1.1-2,2.2-3,3.2l-0.6,0.6c-3.5,3.9-6.5,7.4-9,10.7c-7.3,9.6-9,15.2-9,19.9c0,4.8,1.7,10.4,9,19.9
		C107,279.3,110,282.9,113.6,286.9L113.6,286.9z"/>
	<path d="M113.5,225.2l13.8-14.9c3.2-3.5,5.2-7.9,5.7-12.5c0.1-7.7,0.2-14.4,0.5-20.3l0-0.8l0,0c0.3-5.1,0.6-9.6,1.2-13.7
		c1.6-12,4.4-17.1,7.8-20.4c3.4-3.4,8.5-6.2,20.4-7.8c4.1-0.6,8.8-0.9,14-1.2l0,0l0.3,0c6.1-0.3,13.1-0.4,21.1-0.5
		c4.8-0.5,9.4-2.6,12.9-6l13.9-13.5l-8.1,0c-48.8,0-73.3,0-88.4,15.2c-15.2,15.2-15.2,39.6-15.2,88.4V225.2z"/>
	<path d="M379,197.8c0.5,4.6,2.5,9,5.7,12.5l13.8,14.9v-8.1c0-48.8,0-73.3-15.2-88.4c-15.2-15.2-39.6-15.2-88.4-15.2h-8.1l14.9,13.8
		c3.5,3.2,7.9,5.2,12.5,5.7c7.6,0.1,14.3,0.2,20.2,0.5l1.2,0l0,0c5,0.3,9.4,0.6,13.4,1.2c12,1.6,17.1,4.4,20.4,7.8
		c3.4,3.4,6.2,8.5,7.8,20.4c0.6,4.2,0.9,8.8,1.2,14l0,0.2C378.8,183.1,378.9,189.9,379,197.8z"/>
	<path d="M197,398.4c-4.4-4.4-9.2-9.1-14.3-14.2l-5.7-5.7l-0.1,0l0,0c-5.2-0.3-9.9-0.6-14-1.2c-12-1.6-17.1-4.4-20.4-7.8
		c-3.4-3.4-6.2-8.5-7.8-20.4c-0.6-4.1-0.9-8.8-1.2-14l0,0l0-0.1l-5.7-5.7c-5.1-5.1-9.8-9.8-14.2-14.3c0.3,35.7,2.2,55.4,15.1,68.3
		C141.6,396.2,161.3,398.1,197,398.4z"/>
	<path d="M398.4,315c-4.4,4.4-9.1,9.2-14.2,14.3l-5.7,5.7l0,0.1c-0.3,5.2-0.6,9.9-1.2,14c-1.6,12-4.4,17.1-7.8,20.4
		c-3.4,3.4-8.5,6.2-20.4,7.8c-4.1,0.5-8.6,0.9-13.7,1.2l0,0l-0.4,0l-5.7,5.7c-5.1,5.1-9.8,9.8-14.3,14.2
		c35.7-0.3,55.4-2.2,68.3-15.1C396.2,370.4,398.1,350.7,398.4,315z"/>
	<path class="st1" d="M301.7,127.4c3.9,3.6,9,5.7,14.3,5.8l18.9,0.4l-5.7-5.7C294.7,93.3,277.5,76,256,76
		c-21.5,0-38.7,17.3-73.3,51.8l-5.7,5.7l19.5-0.4c4.7-0.1,9.3-1.7,13-4.6c5.8-5.8,10.9-10.7,15.6-14.9l0.1-0.1 M301.7,127.4
		l-11.3-10.5c-1.1-1-2.1-2-3.1-2.9l-0.6-0.6c-3.9-3.5-7.4-6.5-10.7-9c-9.6-7.3-15.2-9-19.9-9c-4.8,0-10.4,1.7-19.9,9
		c-3.4,2.6-6.9,5.6-10.8,9.2 M301.7,127.4l-14.9-13.8h8.1c48.8,0,73.3,0,88.4,15.2c15.2,15.2,15.2,39.6,15.2,88.4v8.1l-13.8-14.9
		 M301.7,127.4c3.5,3.2,7.9,5.2,12.5,5.7c7.6,0.1,14.3,0.2,20.2,0.5l1.2,0l0,0c5,0.3,9.4,0.6,13.4,1.2c12,1.6,17.1,4.4,20.4,7.8
		c3.4,3.4,6.2,8.5,7.8,20.4c0.6,4.2,0.9,8.8,1.2,14l0,0.2c0.3,6,0.4,12.8,0.5,20.7c0.5,4.6,2.5,9,5.7,12.5 M225.2,113.5L211.3,127
		c-3.5,3.4-8.1,5.5-12.9,6c-8,0.1-15,0.2-21.1,0.5l-0.3,0l0,0c-5.2,0.3-9.9,0.6-14,1.2c-12,1.6-17.1,4.4-20.4,7.8
		c-3.4,3.4-6.2,8.5-7.8,20.4c-0.5,4.1-0.9,8.6-1.2,13.7l0,0l0,0.8c-0.3,5.9-0.4,12.6-0.5,20.3c-0.5,4.7-2.5,9.1-5.7,12.5
		 M225.2,113.5l-8.1,0c-48.8,0-73.3,0-88.4,15.2c-15.2,15.2-15.2,39.6-15.2,88.4v8l13.8-14.9 M384.6,210.3l10.5,11.3
		c1,1.1,2,2.1,2.9,3.1l0.6,0.6c3.5,3.9,6.5,7.4,9,10.7c7.3,9.6,9,15.2,9,19.9c0,4.8-1.7,10.4-9,19.9c-2.5,3.3-5.5,6.9-9,10.7
		l-0.6,0.6c-0.9,1-1.9,2.1-2.9,3.1l-10.5,11.3 M384.6,210.3c-3.6-3.9-5.7-9-5.8-14.3l-0.4-18.9l5.7,5.7
		c34.5,34.5,51.8,51.8,51.8,73.3c0,18.3-12.5,33.5-37.6,59 M378.5,335l5.7-5.7c5.1-5.1,9.8-9.8,14.2-14.3 M378.5,335l0.4-18.9
		c0.1-5.3,2.2-10.4,5.8-14.3 M378.5,335l0,0.1 M384.6,301.7l13.8-14.9v8.1c0,7.2,0,13.9,0,20.1 M384.6,301.7
		c-3.2,3.5-5.2,7.8-5.7,12.5c-0.1,7.8-0.2,14.7-0.5,20.7l0,0.2 M301.7,384.6l-11.1,10.3c-1.2,1.1-2.4,2.2-3.6,3.3l-0.3,0.2
		 M301.7,384.6c3.9-3.6,9-5.7,14.3-5.8l18.9-0.4 M301.7,384.6c3.5-3.2,7.9-5.2,12.5-5.7c7.7-0.1,14.5-0.2,20.4-0.5l0.7,0
		 M301.7,384.6l-14.9,13.8 M334.9,378.5l-5.7,5.7c-5.1,5.1-9.8,9.8-14.3,14.2 M334.9,378.5l0.4,0 M177,378.5l5.7,5.7
		c5.1,5.1,9.8,9.8,14.3,14.2 M177,378.5l18.9,0.4c5.3,0.1,10.4,2.1,14.3,5.7 M177,378.5l-0.1,0 M210.3,384.6l7.6,7
		c7,6.7,12.8,11.9,18.2,16c9.6,7.3,15.2,9,19.9,9c4.8,0,10.4-1.7,19.9-9c3.4-2.6,6.9-5.6,10.8-9.2 M210.3,384.6l15.1,13.9l-8.2,0
		c-7.2,0-13.9,0-20.1,0 M210.3,384.6c-3.4-3.2-7.8-5.1-12.4-5.6c-7.8-0.1-14.6-0.2-20.6-0.5l-0.3,0 M286.8,398.5l8.1,0
		c7.2,0,13.9,0,20.1,0 M127.4,301.7l-10.1-10.9c-1.3-1.4-2.5-2.7-3.6-3.9l-0.1-0.1 M127.4,301.7c3.6,3.9,5.7,9,5.8,14.3l0.4,18.9
		 M127.4,301.7c3.2,3.5,5.2,7.9,5.7,12.5c0.1,7.8,0.2,14.5,0.5,20.5l0,0.4 M127.4,301.7l-13.8-14.9 M133.5,335l-5.7-5.7
		c-5.1-5.1-9.8-9.8-14.2-14.3 M133.5,335l0,0.1 M127.4,210.3c3.6-3.9,5.7-9,5.8-14.3l0.4-18.9l-5.7,5.7C93.3,217.3,76,234.5,76,256
		c0,18.3,12.5,33.5,37.6,59 M127.4,210.3L117,221.5c-1,1.1-2,2.2-3,3.2l-0.6,0.6c-3.5,3.9-6.5,7.4-9,10.7c-7.3,9.6-9,15.2-9,19.9
		c0,4.8,1.7,10.4,9,19.9c2.6,3.4,5.6,6.9,9.2,10.9 M113.5,286.8v8.1c0,7.2,0,13.9,0,20.1 M378.5,335.1c-0.3,5.2-0.6,9.9-1.2,14
		c-1.6,12-4.4,17.1-7.8,20.4c-3.4,3.4-8.5,6.2-20.4,7.8c-4.1,0.5-8.6,0.9-13.7,1.2l0,0 M176.9,378.5L176.9,378.5
		c-5.2-0.3-9.9-0.6-14-1.2c-12-1.6-17.1-4.4-20.4-7.8c-3.4-3.4-6.2-8.5-7.8-20.4c-0.6-4.1-0.9-8.8-1.2-14l0,0 M197,398.4
		c-35.7-0.3-55.4-2.2-68.3-15.1c-12.9-12.9-14.8-32.6-15.1-68.3 M197,398.4c25.5,25.1,40.7,37.6,59,37.6c18.3,0,33.5-12.5,59-37.6
		 M398.4,315c-0.3,35.7-2.2,55.4-15.1,68.3c-12.9,12.9-32.6,14.8-68.3,15.1"/>
	<path d="M241.3,169.9l-13.1,11.1c-2.3,2-5.3,3.1-8.3,3.3l-21.9,1l11.4-11.4c22.1-22.1,33.1-33.1,46.8-33.1
		c13.7,0,24.7,11,46.8,33.1l11.4,11.4l-22.2-1c-3.1-0.1-6.1-1.3-8.5-3.4l-9.9-8.5c-3.5-3.3-6.4-5.9-9.1-7.9
		c-5.5-4.2-7.6-4.3-8.5-4.3c-0.9,0-3,0.1-8.5,4.3c-0.1,0.1-0.2,0.1-0.3,0.2h0l-0.1,0.1C245.4,166.3,243.4,168,241.3,169.9z"/>
	<path d="M346.7,246.4c-3.7-4.7-9.1-10.3-16.9-18.1c-1.3-2-2-4.4-2.1-6.8l-1-23.7l11.3,11.3c22.1,22.1,33.1,33.1,33.1,46.8
		c0,11.7-8,21.4-24,37.7c-2.8,2.8-5.8,5.9-9.1,9.1L326.8,314l-0.1,0.1l1.1-22.7c0.2-3.2,1.4-6.2,3.5-8.5l8.3-9.4
		c2.6-2.8,4.8-5.2,6.6-7.5l1-1.2v-0.1c0.1-0.1,0.2-0.2,0.2-0.3c4.2-5.5,4.3-7.6,4.3-8.5c0-0.9-0.1-3-4.3-8.5
		c-0.1-0.1-0.2-0.2-0.2-0.3v-0.1L346.7,246.4z"/>
	<path d="M165.1,247l15.1-16.5c2.1-2.3,3.4-5.3,3.6-8.5l0.8-12.9c0.1-4.1,0.3-7.6,0.7-10.6l0.1-0.9l0.1-0.1c0-0.1,0-0.2,0-0.3
		c0.9-6.9,2.3-8.4,3-9c0.6-0.6,2.2-2,9-3c2.2-0.3,4.6-0.5,7.4-0.7l18.6-1.8c3-0.3,5.8-1.5,8-3.6l15.7-14.4h-16
		c-31.2,0-46.8,0-56.5,9.7c-8.3,8.3-9.5,20.8-9.7,43.6c0,4,0,8.2,0,12.9V247L165.1,247z"/>
	<path d="M327.6,210l0.9,12.3c0.2,3.1,1.5,6.1,3.6,8.4l15.1,16.4V231c0-31.2,0-46.8-9.7-56.5c-9.7-9.7-25.3-9.7-56.5-9.7h-16.2
		l16.2,14.7c2.3,2.1,5.2,3.3,8.2,3.6l18.8,1.5c1.8,0.1,3.4,0.2,5,0.4l1.4,0.1l0.1,0.1c0.1,0,0.2,0,0.3,0c6.9,0.9,8.4,2.3,9,3
		c0.6,0.6,2,2.2,3,9C327.2,200.8,327.5,204.9,327.6,210z"/>
	<path d="M185.5,314L185.5,314L185.5,314l0,0.1L185.5,314z"/>
	<path d="M198,326.5l20.5,0.9C209.7,327.4,203.2,327.2,198,326.5z"/>
	<path d="M184.7,291.7c0-0.9-0.2-1.8-0.4-2.7c0.1,0.6,0.2,1.2,0.2,1.8l0.1,2.3c0.1,8.8,0.3,15.3,0.9,20.4l0,0.5l0.1,0.1L184.7,291.7
		z"/>
	<path d="M141.1,255.9c0,11.7,8,21.4,24,37.7c0-4,0-8.2,0-12.9v-16l0,0v0c-0.1-0.1-0.2-0.2-0.2-0.3c-4.2-5.5-4.3-7.6-4.3-8.5
		c0-0.9,0.1-3,4.3-8.5c0.1-0.1,0.2-0.2,0.3-0.4v-16c0-4.6,0-8.9,0-12.9C149.1,234.4,141.1,244.2,141.1,255.9z"/>
	<path d="M247.7,347.2c-0.1-0.1-0.2-0.1-0.2-0.2h0l-0.1-0.1h-16c-4.6,0-8.9,0-12.9,0c16.3,16,26,24,37.7,24s21.4-8,37.7-24
		c-4,0-8.2,0-12.9,0h-16c-0.1,0.1-0.2,0.2-0.4,0.3c-5.5,4.2-7.6,4.3-8.5,4.3C255.3,351.5,253.2,351.4,247.7,347.2z"/>
	<path d="M173.3,274c-3.3-3.5-6-6.5-8.1-9.2l-0.1-0.1v16c0,4.6,0,8.9,0,12.9c2.8,2.8,5.8,5.9,9.1,9.1l11.2,11.2l0-0.5
		c-0.6-5.2-0.8-11.6-0.9-20.4l-0.1-2.3c0-0.6-0.1-1.2-0.2-1.8c-0.5-2.2-1.6-4.2-3.1-5.9L173.3,274z"/>
	<path d="M197.6,326.4c-6.9-0.9-8.4-2.3-9-3c-0.6-0.6-2-2.2-3-9l0-0.3l-0.1-0.1l0-0.1l-11.2-11.2c-3.3-3.3-6.3-6.3-9.1-9.1
		c0.2,22.8,1.4,35.4,9.7,43.6c8.3,8.3,20.8,9.5,43.6,9.7c-2.8-2.8-5.9-5.8-9.1-9.1L198,326.5C197.9,326.5,197.7,326.5,197.6,326.4z"
		/>
	<path d="M230.2,331.2c-2.4-2.2-5.5-3.5-8.7-3.6l-2.9-0.1c-8.8-0.1-15.3-0.3-20.5-0.9l11.3,11.3c3.3,3.3,6.3,6.3,9.1,9.1
		c4,0,8.2,0,12.9,0h16l-0.1-0.1c-0.2-0.1-0.3-0.2-0.5-0.4c-4.2-3.3-9-7.9-15.5-14.3L230.2,331.2z"/>
	<path d="M314.2,326.6l-0.8,0c-3.4,0.4-7.3,0.6-12.1,0.7l-11.1,0.7c-3.2,0.2-6.1,1.5-8.5,3.6l-0.3,0.2c-7,6.9-12,11.7-16.4,15.1h16
		c4.6,0,8.9,0,12.9,0c2.8-2.8,5.8-5.8,9.1-9.1l0,0L314.2,326.6z"/>
	<path d="M347.2,293.6c-2.8,2.8-5.8,5.9-9.1,9.1L326.8,314l-0.1,0.5c-0.9,6.9-2.3,8.4-3,9c-0.6,0.6-2.2,2-9,3l-0.5,0.1l0,0l-0.5,0
		l-0.3,0l0.8,0L303,337.8l0,0c-3.3,3.3-6.3,6.3-9.1,9.1c22.8-0.2,35.4-1.4,43.6-9.7C345.8,328.9,347,316.4,347.2,293.6z"/>
	<path class="st1" d="M264.6,347.2c-5.5,4.2-7.6,4.3-8.5,4.3c-0.9,0-3-0.1-8.5-4.3c-0.1-0.1-0.2-0.1-0.2-0.2h0l-0.1-0.1
		 M264.6,347.2c0.1-0.1,0.2-0.2,0.4-0.3 M264.6,347.2l16.8-15.4 M185.5,314.1c0,0.1,0,0.2,0,0.3 M185.5,314.1L185.5,314.1l-0.1-0.2
		 M185.5,314.1l0-0.1 M185.5,314.1l0,0.3 M198,326.5l11.3,11.3c3.3,3.3,6.3,6.3,9.1,9.1 M198,326.5l20.5,0.9 M198,326.5
		c5.2,0.7,11.6,0.9,20.5,0.9 M198,326.5c-0.2,0-0.3,0-0.5-0.1 M326.7,314.4c-0.9,6.9-2.3,8.4-3,9c-0.6,0.6-2.2,2-9,3 M326.7,314.4
		l0.1-0.5 M326.7,314.4c0-0.2,0-0.3,0.1-0.5 M314.7,326.4c-0.2,0-0.3,0-0.5,0.1 M314.7,326.4l-0.5,0.1 M314.3,326.5L314.3,326.5
		l-0.6,0.1 M313.7,326.6c-0.1,0-0.2,0-0.3,0 M313.7,326.6l-0.3,0 M247.2,346.9l-0.5-0.5 M197.6,326.4c-6.9-0.9-8.4-2.3-9-3
		c-0.6-0.6-2-2.2-3-9 M197.6,326.4c5.2,0.7,11.8,0.9,20.9,1 M185.5,314L185.5,314 M185.5,314l-0.9-22.3c0-0.9-0.2-1.8-0.4-2.7
		 M185.5,313.9l0-0.5c-0.6-5.2-0.8-11.6-0.9-20.4l-0.1-2.3c0-0.6-0.1-1.2-0.2-1.8 M185.5,313.9l-11.2-11.2c-3.3-3.3-6.3-6.3-9.1-9.1
		 M218.5,327.4c1.2,0,2.5,0,3.8,0c3,0.3,5.8,1.6,8.1,3.7l16.4,15.3 M218.5,327.4l2.9,0.1c3.2,0.2,6.3,1.4,8.7,3.6l1,0.9
		c6.5,6.4,11.3,11,15.5,14.3 M184.3,288.9c-0.5-2.6-1.6-5-3.4-7l-15.8-17.3v0.1 M184.3,288.9c-0.5-2.2-1.6-4.2-3.1-5.9l-7.9-9
		c-3.3-3.5-6-6.5-8.1-9.2l-0.1-0.1 M165.1,293.6c-16-16.3-24-26-24-37.7c0-11.7,8-21.4,24-37.7 M165.1,293.6c0-4,0-8.2,0-12.9v-16
		 M165.1,293.6c0.2,22.8,1.4,35.4,9.7,43.6c8.3,8.3,20.8,9.5,43.6,9.7 M165.1,264.7L165.1,264.7L165.1,264.7
		c-0.1-0.2-0.2-0.3-0.3-0.4c-4.2-5.5-4.3-7.6-4.3-8.5c0-0.9,0.1-3,4.3-8.5c0.1-0.1,0.2-0.2,0.3-0.4 M165.1,247v-16
		c0-4.6,0-8.9,0-12.9 M165.1,247L165.1,247l15.1-16.4c2.1-2.3,3.4-5.3,3.6-8.5l0.8-12.9c0.1-4.1,0.3-7.6,0.7-10.6l0.1-0.9l0.1-0.1
		c0-0.1,0-0.2,0-0.3c0.9-6.9,2.3-8.4,3-9c0.6-0.6,2.2-2,9-3c2.2-0.3,4.6-0.5,7.4-0.7l18.6-1.8c3-0.3,5.8-1.5,8-3.6l15.7-14.4h-16
		c-31.2,0-46.8,0-56.5,9.7c-8.3,8.3-9.5,20.8-9.7,43.6 M165.1,247c1.5-1.9,3.2-3.9,5.2-6.1l11.2-13.7c1.9-2.3,3-5.2,3.1-8.2
		l0.9-21.4L174.2,209c-3.3,3.3-6.3,6.3-9.1,9.1 M247.3,346.9h-16c-4.6,0-8.9,0-12.9,0 M247.3,346.9l-0.1-0.1
		c-0.2-0.1-0.3-0.2-0.5-0.4 M218.5,346.9c16.3,16,26,24,37.7,24s21.4-8,37.7-24 M293.9,346.9c-4,0-8.2,0-12.9,0h-16 M293.9,346.9
		c22.8-0.2,35.4-1.4,43.6-9.7c8.3-8.3,9.5-20.8,9.7-43.6 M293.9,346.9c2.8-2.8,5.8-5.8,9.1-9.1l0,0l11.2-11.2l-0.8,0 M265,346.9
		c4.4-3.4,9.5-8.2,16.4-15.1 M313.4,326.6c-3.4,0.4-7.3,0.6-12.1,0.7l-11.1,0.7c-3.2,0.2-6.1,1.5-8.5,3.6l-0.3,0.2 M313.4,326.6
		l-22.2,0.7c-3.2,0.1-6.4,1.4-8.8,3.5c-0.3,0.3-0.6,0.6-1,1 M347.2,293.6c-2.8,2.8-5.8,5.9-9.1,9.1L326.8,314 M347.2,293.6
		c0-4,0-8.2,0-12.9v-16.1l-16.1,17.5c-1.6,1.8-2.7,3.9-3.3,6.2c0,11.3-0.2,19.2-0.9,25.3l0,0.3l0,0l0,0 M347.2,293.6
		c16-16.3,24-26,24-37.7c0-13.7-11-24.7-33.1-46.8l-11.3-11.3l1,23.7c0.1,2.4,0.8,4.8,2.1,6.8c7.8,7.8,13.1,13.4,16.9,18.1l0.5,0.5
		v0.1c0.1,0.1,0.2,0.2,0.2,0.3c4.2,5.5,4.3,7.6,4.3,8.5c0,0.9-0.1,3-4.3,8.5c-0.1,0.1-0.2,0.2-0.2,0.3v0.1l-1,1.2
		c-1.8,2.2-4,4.7-6.6,7.5l-8.3,9.4c-2.1,2.4-3.3,5.4-3.5,8.5l-1.1,22.7l0.1-0.1 M241.3,169.9l-13.1,11.1c-2.3,2-5.3,3.1-8.3,3.3
		l-21.9,1l11.4-11.4c22.1-22.1,33.1-33.1,46.8-33.1c13.7,0,24.7,11,46.8,33.1l11.4,11.4l-22.2-1c-3.1-0.1-6.1-1.3-8.5-3.4l-9.9-8.5
		c-3.5-3.3-6.4-5.9-9.1-7.9c-5.5-4.2-7.6-4.3-8.5-4.3c-0.9,0-3,0.1-8.5,4.3c-0.1,0.1-0.2,0.1-0.3,0.2h0l-0.1,0.1
		C245.4,166.3,243.4,168,241.3,169.9z M328.5,222.3l-0.9-12.3c-0.1-5.1-0.4-9.2-0.9-12.7c-0.9-6.9-2.3-8.4-3-9c-0.6-0.6-2.2-2-9-3
		c-0.1,0-0.2,0-0.3,0l-0.1-0.1l-1.4-0.1c-1.5-0.2-3.2-0.3-5-0.4l-18.8-1.5c-3.1-0.2-5.9-1.5-8.2-3.6l-16.2-14.7H281
		c31.2,0,46.8,0,56.5,9.7c9.7,9.7,9.7,25.3,9.7,56.5v16.1l-15.1-16.4C330,228.3,328.7,225.4,328.5,222.3z"/>
</g>
</svg>
