<svg xmlns="http://www.w3.org/2000/svg" xmlns:xlink="http://www.w3.org/1999/xlink" width="128.009" height="128.517"><defs><linearGradient id="k"><stop offset="0" style="stop-color:#3a9030;stop-opacity:.83673471"/><stop offset="1" style="stop-color:#3d9c32;stop-opacity:.79591835"/></linearGradient><linearGradient id="j"><stop offset="0" style="stop-color:#25901b;stop-opacity:.83673471"/><stop offset="1" style="stop-color:#25901b;stop-opacity:.37755102"/></linearGradient><linearGradient id="i"><stop offset="0" style="stop-color:#e32525;stop-opacity:.81632656"/><stop offset="1" style="stop-color:#e32525;stop-opacity:.5714286"/></linearGradient><linearGradient id="h"><stop offset="0" style="stop-color:#000;stop-opacity:.17346939"/><stop offset="1" style="stop-color:#c7cec2;stop-opacity:0"/></linearGradient><linearGradient id="g"><stop offset="0" style="stop-color:#000;stop-opacity:.17346939"/><stop offset="1" style="stop-color:#c7cec2;stop-opacity:0"/></linearGradient><linearGradient id="f"><stop offset="0" style="stop-color:#fbfaf9;stop-opacity:1"/><stop offset="1" style="stop-color:#e9dac7;stop-opacity:1"/></linearGradient><linearGradient id="e"><stop offset="0" style="stop-color:#fbf6f0;stop-opacity:1"/><stop offset="1" style="stop-color:#e9dac7;stop-opacity:1"/></linearGradient><linearGradient id="d"><stop offset="0" style="stop-color:#ede1ae;stop-opacity:1"/><stop offset="1" style="stop-color:#fefdfa;stop-opacity:1"/></linearGradient><linearGradient id="a"><stop offset="0" style="stop-color:#00a423;stop-opacity:1"/><stop offset="1" style="stop-color:#00b427;stop-opacity:1"/></linearGradient><linearGradient id="b"><stop offset="0" style="stop-color:#00b62b;stop-opacity:1"/><stop offset="1" style="stop-color:#a1d784;stop-opacity:1"/></linearGradient><linearGradient id="c"><stop offset="0" style="stop-color:#d69c00;stop-opacity:1"/><stop offset="1" style="stop-color:#ffe658;stop-opacity:1"/></linearGradient><linearGradient id="l"><stop offset="0" style="stop-color:#ce411e;stop-opacity:1"/><stop offset="1" style="stop-color:#ecad8d;stop-opacity:1"/></linearGradient><linearGradient id="m"><stop offset="0" style="stop-color:#8f2a15;stop-opacity:1"/><stop offset="1" style="stop-color:#c8381b;stop-opacity:1"/></linearGradient><linearGradient xlink:href="#a" id="z" x1="192.039" x2="263.671" y1="262.258" y2="262.258" gradientUnits="userSpaceOnUse"/><linearGradient xlink:href="#b" id="B" x1="191.751" x2="255.656" y1="258.916" y2="258.916" gradientUnits="userSpaceOnUse"/><linearGradient xlink:href="#c" id="y" x1="184.071" x2="201.406" y1="246.359" y2="246.359" gradientUnits="userSpaceOnUse"/><linearGradient xlink:href="#d" id="p" x1="162.764" x2="240.849" y1="184.993" y2="289.503" gradientUnits="userSpaceOnUse"/><linearGradient xlink:href="#e" id="n" x1="140.158" x2="136.142" y1="303.79" y2="195.872" gradientUnits="userSpaceOnUse"/><linearGradient xlink:href="#f" id="o" x1="286.156" x2="185.813" y1="262.287" y2="172.324" gradientUnits="userSpaceOnUse"/><linearGradient xlink:href="#g" id="t" x1="213.966" x2="244.791" y1="220.072" y2="265.404" gradientUnits="userSpaceOnUse"/><linearGradient xlink:href="#h" id="x" x1="184.306" x2="224.674" y1="241.528" y2="307.528" gradientUnits="userSpaceOnUse"/><linearGradient xlink:href="#i" id="q" x1="202.418" x2="206.06" y1="222.051" y2="210.356" gradientUnits="userSpaceOnUse"/><linearGradient xlink:href="#j" id="r" x1="248.622" x2="251.644" y1="234.522" y2="213.122" gradientUnits="userSpaceOnUse"/><linearGradient xlink:href="#k" id="s" x1="275.718" x2="255.684" y1="251.564" y2="217.94" gradientUnits="userSpaceOnUse"/><linearGradient xlink:href="#l" id="w" x1="219.663" x2="277.876" y1="192.733" y2="192.733" gradientUnits="userSpaceOnUse"/><linearGradient xlink:href="#m" id="v" x1="219.213" x2="286.227" y1="189.016" y2="189.016" gradientUnits="userSpaceOnUse"/><radialGradient xlink:href="#c" id="A" cx="257.411" cy="274.642" r="7.144" fx="257.411" fy="274.642" gradientTransform="matrix(1 0 0 1.63138 0 -173.405)" gradientUnits="userSpaceOnUse"/><radialGradient xlink:href="#c" id="u" cx="224.414" cy="212.8" r="8.681" fx="224.414" fy="212.8" gradientTransform="matrix(1 0 0 .98418 0 3.367)" gradientUnits="userSpaceOnUse"/></defs><g style="display:inline"><path d="m120.215 196.438 70.907-.793-2.403 109.054-71.717.373 3.213-108.634z" style="fill:url(#n);fill-opacity:1;fill-rule:evenodd;stroke:#000;stroke-width:.7216621px;stroke-linecap:butt;stroke-linejoin:miter;stroke-opacity:1;display:inline" transform="matrix(.98998 -.14124 .20107 .97958 -158.147 -158.453)"/><path d="m179.2 182.087 79.842-19.517 26.614 101.725-82.503 21.587L179.2 182.087z" style="fill:url(#o);fill-opacity:1;fill-rule:evenodd;stroke:#000;stroke-width:1px;stroke-linecap:butt;stroke-linejoin:miter;stroke-opacity:1;display:inline" transform="translate(-158.147 -158.453)"/><path d="m159.014 181.744 85.585.534v110.474l-84.533-2.513-1.052-108.495z" style="fill:url(#p);fill-opacity:1;fill-rule:evenodd;stroke:#000;stroke-width:1.00418305px;stroke-linecap:butt;stroke-linejoin:miter;stroke-opacity:1;display:inline" transform="matrix(.99568 -.0929 .08102 .99671 -158.147 -158.453)"/><path d="M167.551 214.008v-20.185h5.35v2.374h-2.482v15.437h2.482v2.374h-5.35m7.348 0v-20.185h5.35v2.374h-2.482v15.437h2.481v2.374h-5.35m7.37-20.185h5.812c1.31 0 2.31.1 2.997.3a5.267 5.267 0 0 1 2.374 1.451c.658.695 1.16 1.547 1.504 2.557.343 1.002.515 2.241.515 3.717 0 1.296-.161 2.413-.483 3.351-.394 1.146-.956 2.073-1.687 2.782-.551.537-1.296.956-2.234 1.257-.702.222-1.64.333-2.815.333h-5.983v-15.748m3.18 2.664v10.43h2.374c.888 0 1.529-.05 1.923-.15.515-.128.941-.347 1.278-.655.344-.308.623-.813.838-1.514.215-.71.322-1.673.322-2.89 0-1.218-.107-2.152-.322-2.804-.215-.651-.516-1.16-.903-1.525-.386-.365-.877-.612-1.471-.741-.444-.1-1.314-.15-2.61-.15h-1.43m14.965 13.083-3.76-15.748h3.255l2.374 10.818 2.879-10.818h3.78l2.762 11 2.417-11h3.2l-3.823 15.748h-3.374l-3.136-11.773-3.126 11.773h-3.448m22.762-15.748v20.185h-5.35v-2.374h2.482v-15.458h-2.481v-2.353h5.35m7.347 0v20.185h-5.35v-2.374h2.482v-15.458h-2.482v-2.353h5.35" style="font-size:12.0000124px;font-style:normal;font-weight:400;line-height:125%;fill:#6184a3;fill-opacity:1;stroke:none;display:inline;font-family:Bitstream Vera Sans" transform="rotate(-5.478 -1735.168 1573.663)"/><g style="display:inline"><path d="M174.756 201.602c-6.046 2.467-10.168 4.42-12.885 6.35-2.716 1.932-3.192 4.6-3.246 6.267-.027.833.08 1.777.632 2.44.55.662 1.808 1.874 2.758 2.385 1.9 1.023 7.542 2.43 10.519 3.074 11.909 2.576 26.806 1.68 26.806 1.68 1.693 1.246 2.832 2.825 3.269 4.27 4.576-1.887 11.81-6.585 13.156-8.577-5.451-4.2-10.797-6.334-16.513-8.309-1.599-.719-2.88-1.226-.718 2.557.985 2.472.858 5.051.572 7.418 0 0-16.528.407-28.238-2.127-2.928-.633-5.467-.955-7.22-1.898-.875-.472-1.482-.82-1.915-1.341-.433-.52-.22-1.29-.201-1.859.036-1.136.253-1.67 2.862-3.525 2.608-1.854 5.654-3.362 11.659-5.812-.088-1.291-.29-2.506-1.297-2.993z" style="fill:url(#q);fill-opacity:1;fill-rule:evenodd;stroke:none;stroke-width:1px;marker-end:none" transform="translate(-158.147 -158.453)"/><path d="M269.625 220.748c-1.435-.14-2.58.303-2.56 1.502.943.857 1.349 2.436 1.485 3.14.136.705.036 1.22-.485 1.89-1.043 1.342-3.125 1.57-6.501 2.721-6.751 2.304-16.893 2.526-27.907 3.847-22.028 2.641-39.032 3.76-39.032 3.76 1.984-4.647 6.329-4.411 6.35-8.21.273-.897-3.147-1.315-5.1-.106-4.267 3.701-7.592 6.753-10.694 10.513l1.888 3.084s26.13-2.89 48.198-5.536c11.033-1.323 20.956-1.999 27.81-4.337 3.426-1.17 5.959-1.49 7.64-3.52.632-.762 1.353-3.047 1.068-4.734-.22-1.302-1.15-3.097-2.16-4.014z" style="fill:url(#r);fill-opacity:1;fill-rule:evenodd;stroke:none" transform="translate(-158.147 -158.453)"/><path d="M254.362 220.34c-6.85 3.241-7.153 8.609-5.96 12.798 1.194 4.19 5.263 8.757 9.322 12.406 8.116 7.299 12.06 9.332 12.06 9.332-3.715-.103-7.899-1.412-8.133.493-.948 2.976 11.491 3.475 17.438 2.702-1.395-7.578-3.794-13.215-7.732-14.903-1.684-.148.313 4.724.77 9.396 0 0-3.624-1.731-11.605-8.908-3.99-3.588-7.374-7.342-8.473-11.2-1.1-3.86.077-6.121 4.95-9.532.929-.996-1.29-2.46-2.637-2.585z" style="fill:url(#s);fill-opacity:1;fill-rule:evenodd;stroke:none" transform="translate(-158.147 -158.453)"/></g><path d="m213.966 234.578 2.187-14.429 15.22 6.088 21.494 29.948-20.406 9.219-18.495-30.826z" style="fill:url(#t);fill-opacity:1;stroke:none;display:inline" transform="translate(-158.147 -158.453)"/><g style="display:inline"><path d="m232.558 219.53-15.928.321 3.088-15.157 12.84 14.836z" style="fill:url(#u);fill-opacity:1;fill-rule:evenodd;stroke:#000;stroke-width:1px;stroke-linecap:butt;stroke-linejoin:round;stroke-opacity:1" transform="translate(-158.147 -158.453)"/><path d="m221.6 219.293-4.412.078.855-3.982 3.557 3.904z" style="fill:#812310;fill-opacity:1;fill-rule:evenodd;stroke:none" transform="translate(-158.147 -158.453)"/><path d="m269.442 159.274.098 8.915 8.058 8.723 7.759.8-52.807 41.84-6.665-3.306-5.083-5.618-1.09-5.912 49.73-45.442z" style="fill:url(#v);fill-opacity:1;fill-rule:evenodd;stroke:#000;stroke-width:1px;stroke-linecap:butt;stroke-linejoin:round;stroke-opacity:1" transform="translate(-158.147 -158.453)"/><path d="m268.948 168.328 8.342 8.828-51.1 38.682-4.92-5.443 47.678-42.067z" style="fill:url(#w);fill-opacity:1;fill-rule:evenodd;stroke:none" transform="translate(-158.147 -158.453)"/><path d="m285.338 177.732-8.162-.866-7.752-8.679.013-9.143 8.362.753 7.189 9.576.35 8.36z" style="fill:#ffe965;fill-opacity:1;fill-rule:evenodd;stroke:#000;stroke-width:1px;stroke-linecap:butt;stroke-linejoin:round;stroke-opacity:1;display:inline" transform="translate(-158.147 -158.453)"/><path d="m280.72 168.464.165 4.056-3.813-.717-2.876-3.189-.28-3.533 3.854-.167 2.95 3.55z" style="fill:#cb391c;fill-opacity:1;fill-rule:evenodd;stroke:none" transform="translate(-158.147 -158.453)"/></g><g style="display:inline"><path d="m183.886 256.828 1-16.307 17.288 8.44 26.055 38.01-29.281-1.134-15.062-29.009z" style="fill:url(#x);fill-opacity:1;stroke:none" transform="translate(-158.147 -158.453)"/><path d="m200.906 238.448-8.046 15.774-7.055-13.573 15.101-2.2z" style="fill:url(#y);fill-opacity:1;stroke:#000;stroke-linejoin:round;stroke-opacity:1;display:inline" transform="translate(-158.147 -158.453)"/><path d="m201.054 238.554 62.117 24.92-7.887 3.213-4.351 9.31 1.171 9.964-59.314-31.727-.494-7.364 3.095-5.829 5.663-2.487z" style="fill:url(#z);fill-opacity:1;stroke:#000;stroke-linejoin:round;stroke-opacity:1" transform="translate(-158.147 -158.453)"/><path d="m255.278 266.535 7.924-3.048.853 10.24-3.9 8.29-8.047 3.78-1.34-9.631 4.51-9.631z" style="fill:url(#A);fill-opacity:1;stroke:#000;stroke-linejoin:round;stroke-opacity:1;display:inline" transform="translate(-158.147 -158.453)"/><path d="m195.755 241.421 59.13 24.796-4.591 9.766-57.49-29.01 2.95-5.552z" style="fill:url(#B);fill-opacity:1;stroke:none;display:inline" transform="translate(-158.147 -158.453)"/><path d="m255.023 275.21 2.084-4.107 2.964-1.07.695 3.372-1.768 3.858-3.155 1.383-.82-3.436z" style="fill:#00b527;fill-opacity:1;stroke:none" transform="translate(-158.147 -158.453)"/><path d="m186.568 241.004 3.55-.473-2.023 3.539-1.527-3.066z" style="fill:#258209;fill-opacity:1;stroke:none;display:inline" transform="translate(-158.147 -158.453)"/></g></g></svg>