<svg xmlns="http://www.w3.org/2000/svg" width="300" height="300" x="0" y="0" fill="#fff" viewBox="0 0 96 96"><g data-name="Layer 2"><style>@media (prefers-color-scheme:light){path{fill:#000}}</style><g><path d="M93,30.55a3,3,0,0,1-3-3V19.36A13.38,13.38,0,0,0,76.64,6H68.45a3,3,0,0,1,0-6h8.19A19.39,19.39,0,0,1,96,19.36v8.19A3,3,0,0,1,93,30.55Z"/><path d="M76.64,96H68.45a3,3,0,1,1,0-6h8.19A13.38,13.38,0,0,0,90,76.64V68.45a3,3,0,1,1,6,0v8.19A19.39,19.39,0,0,1,76.64,96Z"/><path d="M3,30.55a3,3,0,0,1-3-3V19.36A19.39,19.39,0,0,1,19.36,0h8.19a3,3,0,0,1,0,6H19.36A13.38,13.38,0,0,0,6,19.36v8.19A3,3,0,0,1,3,30.55Z"/><path d="M27.55,96H19.36A19.39,19.39,0,0,1,0,76.64V68.45a3,3,0,0,1,6,0v8.19A13.38,13.38,0,0,0,19.36,90h8.19a3,3,0,0,1,0,6Z"/><path d="M27.55,35.64a4,4,0,0,1-2.83-1.17,4.16,4.16,0,0,1-.5-.61,4.58,4.58,0,0,1-.37-.69,5.37,5.37,0,0,1-.23-.75,4.44,4.44,0,0,1,0-1.57,4.87,4.87,0,0,1,.23-.74,3.78,3.78,0,0,1,.37-.69,4,4,0,0,1,1.11-1.11,4.14,4.14,0,0,1,.69-.37,3.81,3.81,0,0,1,.75-.22,4,4,0,0,1,3.6,1.09,4,4,0,0,1,.87,1.3,4,4,0,0,1,.23.74,3.89,3.89,0,0,1,0,1.57,4.3,4.3,0,0,1-.23.75,3.83,3.83,0,0,1-.37.69,3.61,3.61,0,0,1-.5.61,3.56,3.56,0,0,1-.6.49,3.83,3.83,0,0,1-.69.37,4.3,4.3,0,0,1-.75.23A4.13,4.13,0,0,1,27.55,35.64Z"/><path d="M68.45,35.64a4.13,4.13,0,0,1-.78-.08,4.05,4.05,0,0,1-.75-.23,3.83,3.83,0,0,1-.69-.37,3.56,3.56,0,0,1-.6-.49,4,4,0,0,1-1.18-2.83,4.15,4.15,0,0,1,.08-.79,4,4,0,0,1,.23-.74,4.14,4.14,0,0,1,.37-.69,3.25,3.25,0,0,1,.5-.61,3.62,3.62,0,0,1,.6-.5,4.58,4.58,0,0,1,.69-.37,5,5,0,0,1,.75-.23,4.15,4.15,0,0,1,1.57,0,4.87,4.87,0,0,1,.74.23,3.78,3.78,0,0,1,.69.37,3.69,3.69,0,0,1,.61.5,4.28,4.28,0,0,1,.5.61,4.14,4.14,0,0,1,.37.69,3.92,3.92,0,0,1,.22.74,3.47,3.47,0,0,1,.08.79,4,4,0,0,1-4,4Z"/><path d="M43.91,55.09H39.82a3,3,0,1,1,0-6h4.09A1.09,1.09,0,0,0,45,48V31.64a3,3,0,0,1,6,0V48A7.1,7.1,0,0,1,43.91,55.09Z"/><path d="M48,75.25a24.75,24.75,0,0,1-13.55-4L34.09,71a3,3,0,1,1,3.28-5l.36.24A18.75,18.75,0,0,0,58.58,66a3,3,0,1,1,3.38,5A24.73,24.73,0,0,1,48,75.25Z"/></g></g></svg>