<?xml version="1.0" encoding="utf-8"?>
<!-- Generator: Adobe Illustrator 27.7.0, SVG Export Plug-In . SVG Version: 6.00 Build 0)  -->
<svg version="1.1" id="Layer_1" xmlns="http://www.w3.org/2000/svg" xmlns:xlink="http://www.w3.org/1999/xlink" x="0px" y="0px"
	 viewBox="0 0 512 512" style="enable-background:new 0 0 512 512;" xml:space="preserve">
<style type="text/css">
	.st0{fill:#AEAEAE;}
</style>
<g>
	<g>
		<path class="st0" d="M496,162.9c-8.8,0-16-7.2-16-16v-43.7c-0.1-39.3-31.9-71.2-71.3-71.3h-43.7c-8.8,0-16-7.2-16-16s7.2-16,16-16
			h43.7c57,0.1,103.2,46.3,103.3,103.3v43.7C512,155.8,504.8,162.9,496,162.9z"/>
		<path class="st0" d="M408.7,512h-43.7c-8.8,0-16-7.2-16-16s7.2-16,16-16h43.7c39.3-0.1,71.2-31.9,71.3-71.3v-43.7
			c0-8.8,7.2-16,16-16s16,7.2,16,16v43.7C511.9,465.7,465.7,511.9,408.7,512z"/>
		<path class="st0" d="M16,162.9c-8.8,0-16-7.2-16-16v-43.7C0.1,46.3,46.3,0.1,103.3,0h43.7c8.8,0,16,7.2,16,16s-7.2,16-16,16h-43.7
			C63.9,32.1,32.1,63.9,32,103.3v43.7C32,155.8,24.8,162.9,16,162.9z"/>
		<path class="st0" d="M146.9,512h-43.7C46.3,511.9,0.1,465.7,0,408.7v-43.7c0-8.8,7.2-16,16-16s16,7.2,16,16v43.7
			c0.1,39.3,31.9,71.2,71.3,71.3h43.7c8.8,0,16,7.2,16,16S155.8,512,146.9,512z"/>
		<path class="st0" d="M146.9,190.1c-5.7,0-11.1-2.2-15.1-6.2c-1-1-1.9-2.1-2.7-3.3c-0.8-1.2-1.4-2.4-2-3.7c-0.5-1.3-0.9-2.6-1.2-4
			c-0.5-2.8-0.5-5.6,0-8.4c0.3-1.3,0.7-2.7,1.2-3.9c0.5-1.3,1.2-2.5,2-3.7c1.6-2.3,3.6-4.4,5.9-5.9c1.2-0.8,2.4-1.4,3.7-2
			c1.3-0.5,2.6-0.9,4-1.2c7-1.4,14.2,0.8,19.2,5.8c2,2,3.6,4.3,4.6,6.9c0.5,1.3,0.9,2.6,1.2,3.9c0.6,2.8,0.6,5.6,0,8.4
			c-0.3,1.4-0.7,2.7-1.2,4c-0.5,1.3-1.2,2.5-2,3.7c-0.8,1.2-1.7,2.3-2.7,3.3c-1,1-2,1.9-3.2,2.6c-1.2,0.8-2.4,1.4-3.7,2
			c-1.3,0.5-2.6,0.9-4,1.2C149.7,189.9,148.3,190.1,146.9,190.1z"/>
		<path class="st0" d="M365.1,190.1c-1.4,0-2.8-0.2-4.2-0.4c-1.4-0.3-2.7-0.7-4-1.2c-1.3-0.5-2.5-1.2-3.7-2
			c-1.2-0.8-2.2-1.6-3.2-2.6c-4-4-6.3-9.4-6.3-15.1c0-1.4,0.2-2.8,0.4-4.2c0.3-1.4,0.7-2.7,1.2-3.9c0.5-1.3,1.2-2.5,2-3.7
			c0.8-1.2,1.6-2.3,2.7-3.3c1-1,2-1.9,3.2-2.7c1.2-0.8,2.4-1.4,3.7-2c1.3-0.5,2.6-0.9,4-1.2c2.8-0.5,5.6-0.5,8.4,0
			c1.3,0.3,2.7,0.7,3.9,1.2c1.3,0.5,2.5,1.2,3.7,2c1.2,0.8,2.3,1.7,3.3,2.7c1,1,1.9,2.1,2.7,3.3c0.8,1.2,1.4,2.4,2,3.7
			c0.5,1.3,0.9,2.6,1.2,3.9c0.3,1.4,0.4,2.8,0.4,4.2C386.4,180.5,376.8,190.1,365.1,190.1L365.1,190.1L365.1,190.1z"/>
		<path class="st0" d="M234.2,293.8h-21.8c-8.8,0-16-7.2-16-16s7.2-16,16-16h21.8c3.2,0,5.8-2.6,5.8-5.8l0,0v-87.3
			c0-8.8,7.2-16,16-16s16,7.2,16,16l0,0V256C272,276.9,255.1,293.8,234.2,293.8z"/>
		<path class="st0" d="M256,401.3c-25.6,0.1-50.8-7.4-72.3-21.3l-1.9-1.3c-7.8-4.2-10.6-13.9-6.4-21.7c4.2-7.8,13.9-10.6,21.7-6.4
			c0.8,0.4,1.5,0.9,2.2,1.4l1.9,1.3c33.9,22.1,77.8,21.6,111.2-1.3c7.4-5,17.4-3,22.3,4.3c5,7.4,3,17.4-4.3,22.3
			C308.5,393.5,282.5,401.4,256,401.3z"/>
	</g>
</g>
</svg>
