<svg xmlns:svg="http://www.w3.org/2000/svg" xmlns="http://www.w3.org/2000/svg" xmlns:xlink="http://www.w3.org/1999/xlink" version="1.1" id="svg3667" x="0px" y="0px" style="enable-background:new 0 0 512 512;" xml:space="preserve" viewBox="0.05 179 511.83 153.97">
<style type="text/css">
	.st0{fill:#4B9BD7;}
</style>
<path id="path3628" class="st0" d="M187.4,179c-4.2,0-8.5,1.4-12,4.1L2.6,315.1c-3.4,2.6-3.4,7.8,0,10.4l7.1,5.4  c3.3,2.5,7.9,2.5,11.2,0l85.7-65.3c4.8-3.6,11.4-3.6,16,0l56.7,43.4c4.8,3.6,11.4,3.6,16,0l75-57.3c4.9-3.6,4.9-10.8,0-14.5  L199.5,183C195.9,180.3,191.7,179,187.4,179z M385.8,179c-4.2,0-8.5,1.4-12,4.1L200.9,315.3c-3.4,2.6-3.4,7.8,0,10.4l7.1,5.4  c3.3,2.5,7.9,2.5,11.2,0l98.9-75.4c4.8-3.6,11.2-3.6,16,0l96.5,73.6c4.6,3.6,11.2,3.6,16,0l61.6-47.2c4.9-3.7,4.9-11,0-14.7  L397.8,183C394.2,180.3,390,179,385.8,179z"/>
</svg>