<svg xmlns="http://www.w3.org/2000/svg" width="1024" height="424" viewBox="-6.002 -6.002 512.004 212.079"><path d="M320.7 139.975c-18.8 0-35.9 11.1-35.9 30.1s17.1 29.9 35.9 29.9c6.8 0 13-1.3 18.5-3.9 5.5-2.7 9.9-6.8 13.4-11.8 1-1.4.6-2.801-.3-3.601-.9-.8-6.4-4.299-7.3-4.899-2-1.2-3.8-.8-5.1 1-1.3 1.8-7.8 9.399-19.2 9.399-10.2 0-20.4-5.6-20.4-16.2 0-10.7 10.2-16.199 20.4-16.199 6.9 0 13.9 2.2 18.1 7.6 1 1.3 3.2 1.199 4.7.299 1.5-.9 5.9-3.8 6.8-4.5 1.6-1.4 1.7-2.8.7-4-7-9.1-18.6-13.2-30.3-13.2zm-216.3.1c-18.9 0-36.3 10.7-36.3 29.9 0 8.6 3.5 15.9 10.4 21.6 6.9 5.7 15.6 8.4 25.9 8.5 18.9 0 36.4-10.9 36.4-30.1 0-19.3-17.5-29.9-36.4-29.9zm293.7 0c-18.9 0-36.3 10.7-36.3 29.9 0 8.6 3.5 15.9 10.4 21.6 6.9 5.7 15.6 8.4 25.9 8.5 18.9 0 36.4-10.9 36.4-30.1 0-19.3-17.5-29.9-36.4-29.9zm-252.3 1.2c-3.2 0-4.4 2.6-3.5 4.2 4.4 8.2 16.1 29.2 28.2 51.1.4.7 1.8 1.8 3.2 1.8h5.3c1.7 0 2.8-1.1 3.2-1.8 11.1-21.4 26.1-48.5 27.5-50.9.8-1.4-.1-4.3-2.9-4.3h-10c-1.2 0-2.5.2-3.2 1.8l-17.3 32-17.6-32.1c-.7-1.3-1.5-1.8-3.2-1.8h-9.7zm76.2.1c-1.8 0-3.4 1.5-3.4 3.2v50.4c0 1.7 1.6 3.2 3.4 3.2h52.7c1.8 0 3.4-1.5 3.4-3.2v-6.3c0-1.7-1.6-3.2-3.4-3.2h-40.9v-10.5h24.1c1.8 0 3.4-1.499 3.4-3.199v-6.3c0-1.7-1.6-3.2-3.4-3.2h-24.1v-8h38.5c1.8 0 3.4-1.501 3.4-3.201v-6.5c0-1.7-1.6-3.2-3.4-3.2H222zm-193.037.097c-.582-.01-1.17-.01-1.764 0H3.4c-1.8 0-3.4 1.499-3.4 3.199v50.601c0 1.7 1.6 3.2 3.4 3.2h23.8c18.5 0 32.7-10.1 32.7-28.4 0-8.4-3-15.4-9.1-20.8-5.718-5.062-13.108-7.664-21.837-7.804zm413.937 0c-1.8 0-3.4 1.499-3.4 3.199v7c0 1.7 1.6 3.201 3.4 3.201h19.3v40.299c0 1.7 1.6 3.201 3.4 3.201h8.4c1.8 0 3.4-1.501 3.4-3.201v-40.299h19.2c1.8 0 3.4-1.501 3.4-3.201v-7c0-1.7-1.6-3.2-3.4-3.2h-53.7zM104.4 153.67c10.4 0 20.9 5.301 20.9 16.201 0 4.7-1.8 8.5-5.6 11.5-3.8 3.1-8.8 4.7-15.3 4.7-10.4 0-20.8-5.2-20.8-16.2S94 153.67 104.4 153.67zm293.7 0c10.4 0 20.9 5.301 20.9 16.201 0 4.7-1.8 8.5-5.6 11.5-3.8 3.1-8.8 4.7-15.3 4.7-10.4 0-20.8-5.2-20.8-16.2s10.4-16.201 20.8-16.201zm-382.9 1.5h12.1c9.7 0 17.1 5.3 17.1 14.8 0 9.9-7 14.7-17.1 14.7H15.2v-29.5z"/><path d="M185 0c-3.2 0-6.4 1.024-9.1 3.074l-130.7 99.9c-2.6 2-2.6 5.901 0 7.901l5.4 4.1c2.5 1.9 6 1.9 8.5 0l64.8-49.4c3.6-2.7 8.6-2.7 12.1 0l42.9 32.8c3.6 2.7 8.6 2.7 12.1 0l56.7-43.3c3.7-2.7 3.7-8.2 0-11l-53.6-41A15.02 15.02 0 0 0 185 0Zm150 0c-3.2 0-6.4 1.024-9.1 3.074l-130.7 100c-2.6 2-2.6 5.9 0 7.9l5.4 4.1c2.5 1.9 6 1.9 8.5 0l74.8-57c3.6-2.7 8.5-2.7 12.1 0l73 55.701c3.5 2.7 8.5 2.7 12.1 0l46.6-35.7c3.7-2.8 3.7-8.3 0-11.1l-83.6-63.9A15.02 15.02 0 0 0 335 0Z" style="fill:#4b9bd7"/></svg>