<svg xmlns="http://www.w3.org/2000/svg" width="128" height="128" fill="none"><rect width="128" height="128" fill="#222" rx="6"/><path fill="#FFDD57" d="M82.325 94.386H123v9.707H67.802v-8.742l38.362-50.977H68.381v-9.836h52.691v8.421L82.325 94.386Z"/><path fill="#FFDD57" d="M8 107.107 17.566 14l26.271 2.701c8.097.833 15.072 3.36 20.926 7.58 5.854 4.22 10.124 9.808 12.812 16.762 2.73 6.959 3.676 14.724 2.839 23.298l-.611 5.947c-.903 8.782-3.398 16.301-7.486 22.559-4.045 6.261-9.403 10.837-16.073 13.727-6.628 2.894-14.123 3.955-22.484 3.181L8 107.107Zm20.8-81.742L21.304 98.33l12.912 1.328c9.46.972 17.114-1.213 22.96-6.558 5.888-5.34 9.391-13.445 10.508-24.316l.558-5.435c1.087-10.573-.563-19.036-4.949-25.389-4.339-6.391-11.063-10.098-20.174-11.121L28.8 25.365Z"/></svg>