<svg xmlns="http://www.w3.org/2000/svg" xmlns:xlink="http://www.w3.org/1999/xlink" version="1.1" id="Layer_1" x="0px" y="0px" style="enable-background:new 0 0 512 512;" xml:space="preserve" viewBox="0 42.4 512 427.22">
<style type="text/css">
	.st0{fill:#FFDD57;}
</style>
<g>
	<path class="st0" d="M330.9,400.2H512v43.2H266.2v-39L437,177.5H268.8v-43.7h234.6v37.5L330.9,400.2z"/>
	<path class="st0" d="M0,456.9L42.6,42.4l117,12c36.1,3.7,67.1,14.9,93.2,33.7c26,18.8,45.1,43.6,57,74.6   c12.1,30.9,16.4,65.6,12.7,103.7l-2.7,26.5c-4,39.1-15.1,72.6-33.3,100.4c-18,27.8-41.9,48.2-71.6,61.1   c-29.5,12.9-62.9,17.6-100.1,14.1L0,456.9z M92.6,93L59.2,417.9l57.4,5.9c42.1,4.3,76.2-5.5,102.2-29.2   c26.3-23.8,41.9-59.9,46.7-108.3l2.4-24.2c4.8-47.1-2.6-84.7-22-113.1c-19.4-28.5-49.3-45-89.8-49.5L92.6,93z"/>
</g>
</svg>