<svg xmlns="http://www.w3.org/2000/svg" xml:space="preserve" width="331.76" height="84.72" version="1.0"><defs><clipPath id="a" clipPathUnits="userSpaceOnUse"><path d="M-9-9h614v860H-9V-9z" clip-rule="evenodd"/></clipPath></defs><g clip-path="url(#a)" transform="matrix(1.25 0 0 -1.25 -214.662 299.715)"><path d="m521.747 215.548.284 12.507 19.519-13.454 27.497 10.2.189-12.887c-4.927-1.705-11.01-3.662-16.032-5.462 0-.19-.094-.38-.19-.663l16.033-10.106v-12.602M536.15 81.895c.094 2.937-.05 5.874-.05 8.812l14.925 9.907.095.758-15.16 3.032v9.465l43.111-8.802.19 5.022 2.084-.284 1.421-15.255-26.245 5.59-.11-1.374 7.406-7.911c5.306-5.307 4.737-3.885 5.021-11.276l-2.802.663c-1.99 4.738-5.82 11.655-10.178 14.403-9.95-6.917-9.95-6.917-17.53-12.697-1.326-.095-1.326-.527-2.179-.053m.569 257.494v-19.235c-.285 0-.285 19.235 0 19.235m0-45.197v-11.655c-.285 0-.285 11.655 0 11.655m0-50.218v-11.94c-.285 0-.285 11.94 0 11.94m0 50.218 32.12-6.253v-8.528c0-.474.144-1.801.144-2.275l-5.025.956c4.548-2.085 4.692-7.967 5.166-12.326-3.79.57-7.58 1.137-11.465 1.706 6.917 13.834-12.791 13.739-20.94 15.065" style="fill:#ed1c24;fill-opacity:1;fill-rule:evenodd;stroke:none" transform="rotate(90 430.835 83.484)"/><path d="M567.606 241.32c-.568-.568-1.137-1.231-1.705-1.894l3.146-.57v-11.749l-32.33 4.928v12.226c.759 0 1.422-.287 2.085-.382a184.56 184.56 0 0 1-2.274 4.359c-6.299 28.348 41.368 19.793 31.078-6.917zm-8.181 6.76c0-4.093-3.224-7.432-7.177-7.432-3.952 0-7.176 3.339-7.176 7.433 0 4.093 3.224 7.433 7.176 7.433 3.953 0 7.177-3.34 7.177-7.433m-22.707 91.308 47.205-7.012-.46-11.07c-.715-17.178-10.396-30.283-28.168-24.305-10.116 3.403-15.992 11.519-18.577 23.152v19.235zm10.896-14.024 24.73-3.695c-1.141-22.048-26.67-15.414-24.73 3.695m16.676-190.261c11.059-11.861-.228-24.896-8.538-14.557-3.795 4.722-3.198 8.307-3.4 13.988-12.642 2.058-13.146-4.7-7.676-14.213-1.137-.758-1.137-.758-1.8-.852-16.737 21.659 4.312 33.81 21.414 15.634zm-9.664-1.327c1.373-.278 2.628-.725 3.849-1.246 2.762-1.18 4.622-2.226 6.484-4.669 4.376-5.738-3.092-6.06-7.54-2.223-2.844 2.454-2.393 4.733-2.793 8.138m22.361 37.237c-1.99 3.223-3.316 3.79-6.633 5.402v2.274l9.95-2.085.188-40.46-10.232 1.422c.094.948.094 1.896.094 2.843 3.41.379 4.643.473 6.633 3.127v9.001c-1.286.482-25.33 4.916-32.84 6.484-2.446.511-4.86 1.43-4.982-2.24l-.078-2.349-2.843.19v21.508l2.675-.379.148-2.45c.22-3.643 2.753-3.898 5.649-4.496a3731.322 3731.322 0 0 0 32.27-6.793v9.001" style="fill:#ed1c24;fill-opacity:1;fill-rule:evenodd;stroke:none" transform="rotate(90 430.835 83.484)"/></g></svg>