<?xml version="1.0" encoding="UTF-8" standalone="no"?>
<!-- Created with Inkscape (http://www.inkscape.org/) -->
<svg
   xmlns:dc="http://purl.org/dc/elements/1.1/"
   xmlns:cc="http://creativecommons.org/ns#"
   xmlns:rdf="http://www.w3.org/1999/02/22-rdf-syntax-ns#"
   xmlns:svg="http://www.w3.org/2000/svg"
   xmlns="http://www.w3.org/2000/svg"
   xmlns:sodipodi="http://sodipodi.sourceforge.net/DTD/sodipodi-0.dtd"
   xmlns:inkscape="http://www.inkscape.org/namespaces/inkscape"
   id="svg2443"
   sodipodi:version="0.32"
   inkscape:version="0.46"
   width="331.76001"
   height="84.720001"
   xml:space="preserve"
   sodipodi:docname="DrayTek Logo.svg"
   version="1.0"
   inkscape:output_extension="org.inkscape.output.svg.inkscape"><metadata
     id="metadata2448"><rdf:RDF><cc:Work
         rdf:about=""><dc:format>image/svg+xml</dc:format><dc:type
           rdf:resource="http://purl.org/dc/dcmitype/StillImage" /></cc:Work></rdf:RDF></metadata><defs
     id="defs2446"><inkscape:perspective
       sodipodi:type="inkscape:persp3d"
       inkscape:vp_x="0 : 526.18109 : 1"
       inkscape:vp_y="0 : 1000 : 0"
       inkscape:vp_z="744.09448 : 526.18109 : 1"
       inkscape:persp3d-origin="372.04724 : 350.78739 : 1"
       id="perspective2450" /><clipPath
       clipPathUnits="userSpaceOnUse"
       id="clipPath2458"><path
         d="M -9,-9 L 605,-9 L 605,851 L -9,851 L -9,-9 z"
         clip-rule="evenodd"
         id="path2460" /></clipPath></defs><sodipodi:namedview
     inkscape:window-height="974"
     inkscape:window-width="1280"
     inkscape:pageshadow="2"
     inkscape:pageopacity="0.0"
     guidetolerance="10.0"
     gridtolerance="10.0"
     objecttolerance="10.0"
     borderopacity="1.0"
     bordercolor="#666666"
     pagecolor="#ffffff"
     id="base"
     showgrid="false"
     inkscape:zoom="1"
     inkscape:cx="376.41793"
     inkscape:cy="172.78376"
     inkscape:window-x="-8"
     inkscape:window-y="-8"
     inkscape:current-layer="g2456" /><g
     id="g2452"
     inkscape:groupmode="layer"
     inkscape:label="Vigor2200eplus_datasheet"
     transform="matrix(1.25,0,0,-1.25,-214.66219,299.71481)"><g
       id="g2454"><g
         id="g2456"
         clip-path="url(#clipPath2458)"><g
           id="g2462"
           transform="matrix(623.52142,0,0,870.33798,-14.1228,-14.224)" /><g
           id="g2796"
           transform="matrix(0,1,-1,0,514.31855,-347.35075)"><path
             id="path2484"
             style="fill:#ed1c24;fill-opacity:1;fill-rule:evenodd;stroke:none"
             d="M 521.7467,215.54813 L 522.03107,228.05508 L 541.55,214.60063 L 569.04653,224.80031 L 569.23603,211.91411 C 564.30929,210.20887 558.22594,208.25178 553.20409,206.45166 C 553.20409,206.26216 553.10996,206.07291 553.01484,205.78854 L 569.04653,195.68298 L 569.04653,183.08115" /><path
             id="path2486"
             style="fill:#ed1c24;fill-opacity:1;fill-rule:evenodd;stroke:none"
             d="M 536.14939,81.895213 C 536.24377,84.832329 536.10022,87.769444 536.10022,90.70656 L 551.02522,100.61417 L 551.11959,101.37167 L 535.9594,104.40391 L 535.9594,113.86869 L 579.07112,105.06703 L 579.26037,110.08889 L 581.34511,109.80526 L 582.76648,94.549944 L 556.5207,100.14055 L 556.41167,98.766118 L 563.81655,90.854583 C 569.12278,85.548353 568.55378,86.969723 568.83815,79.579 L 566.0364,80.242123 C 564.04603,84.980104 560.21606,91.897202 555.85757,94.644818 C 545.90849,87.727968 545.90849,87.727968 538.32826,81.948114 C 537.00202,81.852992 537.00202,81.421341 536.14939,81.895213" /><path
             id="path2488"
             style="fill:#ed1c24;fill-opacity:1;fill-rule:evenodd;stroke:none"
             d="M 536.71764,339.3888 C 536.71764,333.0407 536.71764,326.59747 536.71764,320.15424 C 536.43302,320.15424 536.43302,339.3888 536.71764,339.3888" /><path
             id="path2490"
             style="fill:#ed1c24;fill-opacity:1;fill-rule:evenodd;stroke:none"
             d="M 536.71764,294.19234 C 536.71764,290.30748 536.71764,286.42212 536.71764,282.53726 C 536.43302,282.53726 536.43302,294.19234 536.71764,294.19234" /><path
             id="path2492"
             style="fill:#ed1c24;fill-opacity:1;fill-rule:evenodd;stroke:none"
             d="M 536.71764,243.97352 C 536.71764,239.99379 536.71764,236.01455 536.71764,232.03482 C 536.43302,232.03482 536.43302,243.97352 536.71764,243.97352" /><path
             id="path2494"
             style="fill:#ed1c24;fill-opacity:1;fill-rule:evenodd;stroke:none"
             d="M 536.71764,294.19234 L 568.83815,287.93861 C 568.83815,285.09587 568.83815,282.25363 568.83815,279.41089 C 568.83815,278.93702 568.98196,277.61003 568.98196,277.13616 L 563.95662,278.0916 C 568.50461,276.00686 568.6489,270.12493 569.12278,265.7662 C 565.33229,266.33519 561.54255,266.90319 557.65769,267.47219 C 564.57479,281.30614 544.86661,281.21101 536.71764,282.53726" /><path
             id="path2496"
             style="fill:#ed1c24;fill-opacity:1;fill-rule:evenodd;stroke:none"
             d="M 567.60628,241.32078 C 567.03804,240.75204 566.46929,240.08866 565.90104,239.42554 L 569.04653,238.85679 L 569.04653,227.10734 L 536.71764,232.03482 C 536.71764,236.01455 536.71764,240.28164 536.71764,244.26137 C 537.47589,244.26137 538.13901,243.97352 538.80214,243.87915 C 538.04389,245.39489 537.28639,246.81626 536.52815,248.23763 C 530.22947,276.58554 577.89612,268.0305 567.60628,241.32078 z M 559.42478,248.08067 C 559.42478,243.98694 556.20131,240.64772 552.24815,240.64772 C 548.29573,240.64772 545.07201,243.98694 545.07201,248.08067 C 545.07201,252.1739 548.29573,255.51386 552.24815,255.51386 C 556.20131,255.51386 559.42478,252.1739 559.42478,248.08067" /><path
             id="path2498"
             style="fill:#ed1c24;fill-opacity:1;fill-rule:evenodd;stroke:none"
             d="M 536.71764,339.3888 L 583.9226,332.37732 L 583.46214,321.30738 C 582.7481,304.12876 573.0665,291.02425 555.29504,297.00205 C 545.17905,300.40533 539.30283,308.52053 536.71764,320.15424 L 536.71764,339.3888 z M 547.61423,325.36535 L 572.34427,321.66999 C 571.20305,299.6225 545.67403,306.25622 547.61423,325.36535" /><path
             id="path2500"
             style="fill:#ed1c24;fill-opacity:1;fill-rule:evenodd;stroke:none"
             d="M 564.29042,135.10404 C 575.34893,123.24258 564.06218,110.20785 555.75202,120.54712 C 551.95732,125.26945 552.55437,128.85379 552.35171,134.53505 C 539.71039,136.59297 539.20622,129.83581 544.67637,120.32235 C 543.53937,119.56411 543.53937,119.56411 542.87625,119.46998 C 526.13896,141.12878 547.18829,153.28083 564.29042,135.10404 z M 554.6257,133.7768 C 555.99914,133.49889 557.25436,133.05184 558.47455,132.53078 C 561.23707,131.35081 563.09705,130.30472 564.95851,127.86234 C 569.33463,122.12396 561.86716,121.80159 557.41902,125.63926 C 554.57479,128.09257 555.02606,130.37153 554.6257,133.7768" /><path
             id="path2502"
             style="fill:#ed1c24;fill-opacity:1;fill-rule:evenodd;stroke:none"
             d="M 576.98663,171.01429 C 574.99701,174.23653 573.67051,174.80478 570.3539,176.41564 L 570.3539,178.68964 L 580.30324,176.6049 L 580.49249,136.14592 L 570.25977,137.56729 C 570.3539,138.51478 570.3539,139.46253 570.3539,140.41003 C 573.76489,140.78878 574.99701,140.88315 576.98663,143.53664 C 576.98663,146.56888 576.98663,149.60112 576.98663,152.53823 C 575.70111,153.0198 551.65605,157.45429 544.14711,159.02219 C 541.70125,159.53332 539.28719,160.45126 539.16549,156.78197 L 539.08651,154.43347 L 536.24377,154.62272 L 536.24377,176.13102 L 538.91912,175.75227 L 539.06689,173.30244 C 539.28644,169.65924 541.82022,169.40417 544.71586,168.80587 C 555.5198,166.57261 566.25321,164.33115 576.98663,162.01345 C 576.98663,165.04494 576.98663,168.07718 576.98663,171.01429" /></g></g></g></g></svg>