<svg xmlns="http://www.w3.org/2000/svg" xmlns:xlink="http://www.w3.org/1999/xlink" x="0" y="0" version="1.1" viewBox="0 0 32 32" xml:space="preserve" style="enable-background:new 0 0 32 32"><style type="text/css">.st0{display:none}.st1{fill:#d0cdc6}.st2{fill:#fff}.st3{fill:#1d4775}.st4{fill:#8194a9}.st5{fill:#ebf1f5}.st6{fill:#65b1dd}.st7{fill:#336697}</style><g id="backgrounds" class="st0"><rect id="black" width="64" height="64" x="-16" y="-16"/><rect id="win2k" width="64" height="64" x="-16" y="-16" class="st1"/><rect id="white" width="64" height="64" x="-16" y="-16" class="st2"/><rect id="win7_aero" width="64" height="64" x="-16" y="-16" class="st3"/><rect id="win7_1_" width="64" height="64" x="-16" y="-16" class="st4"/><rect id="macosx" width="64" height="64" x="-16" y="-16" class="st5"/></g><g id="icon"><g id="small_8_"><path d="M15,28c-1.7,0-3-1.3-3-3v-5c0-1.7,1.3-3,3-3h8c1.7,0,3,1.3,3,3v5c0,1.7-1.3,3-3,3H15z" class="st6"/><path d="M23,18c1.1,0,2,0.9,2,2v5c0,1.1-0.9,2-2,2h-8c-1.1,0-2-0.9-2-2v-5c0-1.1,0.9-2,2-2H23 M23,16h-8 c-2.2,0-4,1.8-4,4v5c0,2.2,1.8,4,4,4h8c2.2,0,4-1.8,4-4v-5C27,17.8,25.2,16,23,16L23,16z" class="st2"/></g><g id="middle_8_"><path d="M4,30c-1.7,0-3-1.3-3-3v-7c0-1.7,1.3-3,3-3h10c1.7,0,3,1.3,3,3v7c0,1.7-1.3,3-3,3H4z" class="st7"/><path d="M14,18c1.1,0,2,0.9,2,2v7c0,1.1-0.9,2-2,2H4c-1.1,0-2-0.9-2-2v-7c0-1.1,0.9-2,2-2H14 M14,16H4 c-2.2,0-4,1.8-4,4v7c0,2.2,1.8,4,4,4h10c2.2,0,4-1.8,4-4v-7C18,17.8,16.2,16,14,16L14,16z" class="st2"/></g><g id="big_10_"><path d="M12,21c-1.7,0-3-1.3-3-3V6c0-1.7,1.3-3,3-3h16c1.7,0,3,1.3,3,3v12c0,1.7-1.3,3-3,3H12z" class="st3"/><path d="M28,4c1.1,0,2,0.9,2,2v12c0,1.1-0.9,2-2,2H12c-1.1,0-2-0.9-2-2V6c0-1.1,0.9-2,2-2H28 M28,2H12 C9.8,2,8,3.8,8,6v12c0,2.2,1.8,4,4,4h16c2.2,0,4-1.8,4-4V6C32,3.8,30.2,2,28,2L28,2z" class="st2"/></g></g></svg>