<svg xmlns="http://www.w3.org/2000/svg" xml:space="preserve" style="enable-background:new 0 0 32 32" viewBox="0 0 32 32"><style>.st2{fill:#fff}</style><g id="icon"><g id="small_8_"><path d="M15 28c-1.7 0-3-1.3-3-3v-5c0-1.7 1.3-3 3-3h8c1.7 0 3 1.3 3 3v5c0 1.7-1.3 3-3 3h-8z" style="fill:#65b1dd"/><path d="M23 18c1.1 0 2 .9 2 2v5c0 1.1-.9 2-2 2h-8c-1.1 0-2-.9-2-2v-5c0-1.1.9-2 2-2h8m0-2h-8c-2.2 0-4 1.8-4 4v5c0 2.2 1.8 4 4 4h8c2.2 0 4-1.8 4-4v-5c0-2.2-1.8-4-4-4z" class="st2"/></g><g id="middle_8_"><path d="M4 30c-1.7 0-3-1.3-3-3v-7c0-1.7 1.3-3 3-3h10c1.7 0 3 1.3 3 3v7c0 1.7-1.3 3-3 3H4z" style="fill:#336697"/><path d="M14 18c1.1 0 2 .9 2 2v7c0 1.1-.9 2-2 2H4c-1.1 0-2-.9-2-2v-7c0-1.1.9-2 2-2h10m0-2H4c-2.2 0-4 1.8-4 4v7c0 2.2 1.8 4 4 4h10c2.2 0 4-1.8 4-4v-7c0-2.2-1.8-4-4-4z" class="st2"/></g><g id="big_10_"><path d="M12 21c-1.7 0-3-1.3-3-3V6c0-1.7 1.3-3 3-3h16c1.7 0 3 1.3 3 3v12c0 1.7-1.3 3-3 3H12z" style="fill:#1d4775"/><path d="M28 4c1.1 0 2 .9 2 2v12c0 1.1-.9 2-2 2H12c-1.1 0-2-.9-2-2V6c0-1.1.9-2 2-2h16m0-2H12C9.8 2 8 3.8 8 6v12c0 2.2 1.8 4 4 4h16c2.2 0 4-1.8 4-4V6c0-2.2-1.8-4-4-4z" class="st2"/></g></g></svg>