<svg id="Layer_1" xmlns="http://www.w3.org/2000/svg" viewBox="0 0 80 80" width="2500" height="2500"><style>.st0{fill:#07a5de}.st1{fill:#3ebeb0}.st2{opacity:.26;enable-background:new}.st2,.st3{fill:#353535}.st4{fill:none}</style><path class="st0" d="M38.8 45.1H17.4V10.5h21.4c9.6 0 17.3 7.7 17.3 17.3 0 9.6-7.7 17.3-17.3 17.3z"/><path class="st1" d="M45.3 69.5H17.4V34.9h27.9c9.6 0 17.3 7.7 17.3 17.3 0 9.6-7.7 17.3-17.3 17.3z"/><path class="st2" d="M58.4 40.9c-3.2-3.7-7.9-6-13.1-6H17.4v16h25.9c9.2 0 15.6-9.5 15.1-10z"/><path class="st3" d="M38.8 45.1c6.2 0 11.6-3.3 14.7-8.2-.4-.2-.8-.4-1.3-.6-.1 0-.2-.1-.3-.1-.4-.2-.8-.3-1.3-.5h-.1c-.1 0-.1 0-.2-.1l-1.2-.3h-.2c-.1 0-.2 0-.2-.1-.4-.1-.8-.1-1.2-.2h-.6c-.5 0-.9-.1-1.4-.1H17.4v10.2h21.4z"/><path class="st4" d="M0 0h80v80H0z"/></svg>
