<svg xmlns="http://www.w3.org/2000/svg" width="54" height="54" fill="none"><path fill="#0DBD8B" fill-rule="evenodd" d="M19.441 3.24A3.24 3.24 0 0 1 22.681 0c11.93 0 21.6 9.67 21.6 21.6a3.24 3.24 0 0 1-6.48 0c0-8.35-6.769-15.12-15.12-15.12a3.24 3.24 0 0 1-3.24-3.24Zm15.118 47.52a3.24 3.24 0 0 1-3.24 3.24c-11.93 0-21.6-9.67-21.6-21.6a3.24 3.24 0 1 1 6.48 0c0 8.35 6.77 15.12 15.12 15.12a3.24 3.24 0 0 1 3.24 3.24ZM3.24 34.56A3.24 3.24 0 0 1 0 31.32c0-11.93 9.67-21.6 21.6-21.6a3.24 3.24 0 0 1 0 6.48c-8.35 0-15.12 6.77-15.12 15.12a3.24 3.24 0 0 1-3.24 3.24Zm47.52-15.12A3.24 3.24 0 0 1 54 22.68c0 11.93-9.67 21.6-21.6 21.6a3.24 3.24 0 0 1 0-6.48c8.35 0 15.12-6.77 15.12-15.12a3.24 3.24 0 0 1 3.24-3.24Z" clip-rule="evenodd"/></svg>