<?xml version="1.0" encoding="utf-8"?>
<!-- Generator: Adobe Illustrator 27.7.0, SVG Export Plug-In . SVG Version: 6.00 Build 0)  -->
<svg version="1.1" id="Layer_1" xmlns="http://www.w3.org/2000/svg" xmlns:xlink="http://www.w3.org/1999/xlink" x="0px" y="0px"
	 viewBox="0 0 512 512" style="enable-background:new 0 0 512 512;" xml:space="preserve">
<style type="text/css">
	.st0{fill-rule:evenodd;clip-rule:evenodd;fill:#0DBD8B;}
</style>
<g>
	<path class="st0" d="M184.3,30.7c0-17,13.8-30.7,30.7-30.7c113.1,0,204.8,91.7,204.8,204.8c0,17-13.8,30.7-30.7,30.7
		s-30.7-13.8-30.7-30.7c0-79.2-64.2-143.4-143.4-143.4C198.1,61.4,184.3,47.7,184.3,30.7z"/>
	<path class="st0" d="M327.7,481.3c0,17-13.8,30.7-30.7,30.7c-113.1,0-204.8-91.7-204.8-204.8c0-17,13.8-30.7,30.7-30.7
		s30.7,13.8,30.7,30.7c0,79.2,64.2,143.4,143.4,143.4C313.9,450.6,327.7,464.3,327.7,481.3z"/>
	<path class="st0" d="M30.7,327.7C13.8,327.7,0,313.9,0,297C0,183.9,91.7,92.2,204.8,92.2c17,0,30.7,13.8,30.7,30.7
		s-13.8,30.7-30.7,30.7c-79.2,0-143.4,64.2-143.4,143.4C61.4,313.9,47.7,327.7,30.7,327.7z"/>
	<path class="st0" d="M481.3,184.3c17,0,30.7,13.8,30.7,30.7c0,113.1-91.7,204.8-204.8,204.8c-17,0-30.7-13.8-30.7-30.7
		c0-17,13.8-30.7,30.7-30.7c79.2,0,143.4-64.2,143.4-143.4C450.6,198.1,464.3,184.3,481.3,184.3z"/>
</g>
</svg>
