<svg xmlns:v="https://svgstorm.com" xmlns="http://www.w3.org/2000/svg" xmlns:xlink="http://www.w3.org/1999/xlink" version="1.1" id="Layer_1" x="0px" y="0px" style="enable-background:new 0 0 512 512;" xml:space="preserve" viewBox="-0.13 45.54 512.32 420.93">
<style type="text/css">
	.st0{fill:none;stroke:#083554;stroke-width:0.3;stroke-opacity:0.13;}
	.st1{fill:none;stroke:#083553;stroke-width:0.3;stroke-opacity:0.98;}
	.st2{fill:none;stroke:#093452;stroke-width:0.3;stroke-opacity:0.4;}
	.st3{fill:none;stroke:#083552;stroke-width:0.3;stroke-opacity:0.73;}
	.st4{fill:none;stroke:#0A3453;stroke-width:0.3;stroke-opacity:0.34;}
	.st5{fill:none;stroke:#053152;stroke-width:0.3;stroke-opacity:0.21;}
	.st6{fill:none;stroke:#093453;stroke-width:0.3;stroke-opacity:0.6;}
	.st7{fill:none;stroke:#063556;stroke-width:0.3;stroke-opacity:0.31;}
	.st8{fill:none;stroke:#084D70;stroke-width:0.3;stroke-opacity:0.77;}
	.st9{fill:none;stroke:#0299CB;stroke-width:0.3;stroke-opacity:0.84;}
	.st10{fill:none;stroke:#084668;stroke-width:0.3;stroke-opacity:0.81;}
	.st11{fill:none;stroke:#048BBA;stroke-width:0.3;stroke-opacity:0.76;}
	.st12{fill:none;stroke:#00B8F0;stroke-width:0.3;}
	.st13{fill:none;stroke:#084D6F;stroke-width:0.3;stroke-opacity:0.81;}
	.st14{fill:none;stroke:#083455;stroke-width:0.3;stroke-opacity:0.27;}
	.st15{fill:none;stroke:#093553;stroke-width:0.3;stroke-opacity:0.41;}
	.st16{fill:none;stroke:#003159;stroke-width:0.3;stroke-opacity:0.24;}
	.st17{fill:none;stroke:#002F60;stroke-width:0.3;stroke-opacity:0.18;}
	.st18{fill:none;stroke:#07384D;stroke-width:0.3;stroke-opacity:0.2;}
	.st19{fill:none;stroke:#063256;stroke-width:0.3;stroke-opacity:0.23;}
	.st20{fill:none;stroke:#063254;stroke-width:0.3;stroke-opacity:0.17;}
	.st21{fill:none;stroke:#00315E;stroke-width:0.3;stroke-opacity:9.000000e-02;}
	.st22{fill:none;stroke:#023357;stroke-width:0.3;stroke-opacity:0.41;}
	.st23{fill:none;stroke:#083452;stroke-width:0.3;stroke-opacity:0.75;}
	.st24{fill:none;stroke:#023058;stroke-width:0.3;stroke-opacity:4.000000e-02;}
	.st25{fill:none;stroke:#01A5D9;stroke-width:0.3;stroke-opacity:0.66;}
	.st26{fill:none;stroke:#083A5B;stroke-width:0.3;stroke-opacity:0.84;}
	.st27{fill:none;stroke:#084668;stroke-width:0.3;stroke-opacity:0.6;}
	.st28{fill:none;stroke:#093452;stroke-width:0.3;stroke-opacity:0.8;}
	.st29{fill:none;stroke:#053153;stroke-width:0.3;stroke-opacity:0.27;}
	.st30{fill:none;stroke:#083354;stroke-width:0.3;stroke-opacity:0.28;}
	.st31{fill:none;stroke:#023158;stroke-width:0.3;stroke-opacity:0.36;}
	.st32{fill:none;stroke:#0381AB;stroke-width:0.3;stroke-opacity:0.76;}
	.st33{fill:none;stroke:#0096C3;stroke-width:0.3;}
	.st34{fill:none;stroke:#056388;stroke-width:0.3;stroke-opacity:0.78;}
	.st35{fill:none;stroke:#0280A9;stroke-width:0.3;stroke-opacity:0.8;}
	.st36{fill:none;stroke:#0091BD;stroke-width:0.3;stroke-opacity:0.84;}
	.st37{fill:none;stroke:#073351;stroke-width:0.3;stroke-opacity:0.27;}
	.st38{fill:none;stroke:#0C3358;stroke-width:0.3;stroke-opacity:8.000000e-02;}
	.st39{fill:none;stroke:#04668C;stroke-width:0.3;stroke-opacity:0.78;}
	.st40{fill:none;stroke:#0094C0;stroke-width:0.3;stroke-opacity:0.86;}
	.st41{fill:none;stroke:#027BA4;stroke-width:0.3;stroke-opacity:0.75;}
	.st42{fill:none;stroke:#093553;stroke-width:0.3;}
	.st43{fill:none;stroke:#0185AF;stroke-width:0.3;stroke-opacity:0.78;}
	.st44{fill:none;stroke:#0283AD;stroke-width:0.3;stroke-opacity:0.82;}
	.st45{fill:none;stroke:#083453;stroke-width:0.3;stroke-opacity:0.56;}
	.st46{fill:none;stroke:#000000;stroke-width:0.3;stroke-opacity:0;}
	.st47{fill:none;stroke:#023356;stroke-width:0.3;stroke-opacity:0.34;}
	.st48{fill:none;stroke:#073352;stroke-width:0.3;stroke-opacity:0.15;}
	.st49{fill:none;stroke:#093553;stroke-width:0.3;stroke-opacity:0.8;}
	.st50{fill:none;stroke:#093553;stroke-width:0.3;stroke-opacity:0.69;}
	.st51{fill:none;stroke:#073551;stroke-width:0.3;stroke-opacity:0.15;}
	.st52{fill:none;stroke:#00335D;stroke-width:0.3;stroke-opacity:0.22;}
	.st53{fill:none;stroke:#056A90;stroke-width:0.3;stroke-opacity:0.78;}
	.st54{fill:none;stroke:#073251;stroke-width:0.3;stroke-opacity:0.44;}
	.st55{fill:none;stroke:#065275;stroke-width:0.3;stroke-opacity:0.83;}
	.st56{fill:none;stroke:#083452;stroke-width:0.3;stroke-opacity:0.18;}
	.st57{fill:none;stroke:#046E95;stroke-width:0.3;stroke-opacity:0.78;}
	.st58{fill:none;stroke:#0183AD;stroke-width:0.3;stroke-opacity:0.75;}
	.st59{fill:none;stroke:#05648A;stroke-width:0.3;stroke-opacity:0.77;}
	.st60{fill:none;stroke:#0096C1;stroke-width:0.3;stroke-opacity:0.89;}
	.st61{fill:none;stroke:#046990;stroke-width:0.3;stroke-opacity:0.78;}
	.st62{fill:none;stroke:#0281AB;stroke-width:0.3;stroke-opacity:0.77;}
	.st63{fill:none;stroke:#063353;stroke-width:0.3;stroke-opacity:0.47;}
	.st64{fill:none;stroke:#083654;stroke-width:0.3;stroke-opacity:0.52;}
	.st65{fill:none;stroke:#014858;stroke-width:0.3;stroke-opacity:4.000000e-02;}
	.st66{fill:none;stroke:#093453;stroke-width:0.3;stroke-opacity:0.21;}
	.st67{fill:none;stroke:#093653;stroke-width:0.3;stroke-opacity:0.14;}
	.st68{fill:none;stroke:#083553;stroke-width:0.3;stroke-opacity:0.82;}
	.st69{fill:none;stroke:#083453;stroke-width:0.3;stroke-opacity:0.83;}
	.st70{fill:none;stroke:#093553;stroke-width:0.3;stroke-opacity:0.64;}
	.st71{fill:none;stroke:#0C3A51;stroke-width:0.3;stroke-opacity:9.000000e-02;}
	.st72{fill:none;stroke:#073750;stroke-width:0.3;stroke-opacity:0.25;}
	.st73{fill:none;stroke:#003359;stroke-width:0.3;stroke-opacity:0.33;}
	.st74{fill:none;stroke:#003459;stroke-width:0.3;stroke-opacity:0.36;}
	.st75{fill:none;stroke:#093553;stroke-width:0.3;stroke-opacity:0.38;}
	.st76{fill:none;stroke:#083454;stroke-width:0.3;stroke-opacity:0.24;}
	.st77{fill:none;stroke:#083553;stroke-width:0.3;stroke-opacity:0.43;}
	.st78{fill:none;stroke:#037AA2;stroke-width:0.3;stroke-opacity:0.78;}
	.st79{fill:none;stroke:#093452;stroke-width:0.3;stroke-opacity:0.39;}
	.st80{fill:none;stroke:#0A3353;stroke-width:0.3;stroke-opacity:0.28;}
	.st81{fill:none;stroke:#073453;stroke-width:0.3;stroke-opacity:0.5;}
	.st82{fill:none;stroke:#055D81;stroke-width:0.3;stroke-opacity:0.79;}
	.st83{fill:none;stroke:#093552;stroke-width:0.3;stroke-opacity:0.24;}
	.st84{fill:none;stroke:#063453;stroke-width:0.3;stroke-opacity:0.2;}
	.st85{fill:none;stroke:#00385E;stroke-width:0.3;stroke-opacity:7.000000e-02;}
	.st86{fill:none;stroke:#083453;stroke-width:0.3;stroke-opacity:0.3;}
	.st87{fill:none;stroke:#073353;stroke-width:0.3;stroke-opacity:0.17;}
	.st88{fill:none;stroke:#093453;stroke-width:0.3;stroke-opacity:0.81;}
	.st89{fill:none;stroke:#083553;stroke-width:0.3;stroke-opacity:0.69;}
	.st90{fill:none;stroke:#073458;stroke-width:0.3;stroke-opacity:0.23;}
	.st91{fill:none;stroke:#002D5F;stroke-width:0.3;stroke-opacity:0.21;}
	.st92{fill:none;stroke:#0A3653;stroke-width:0.3;stroke-opacity:0.45;}
	.st93{fill:none;stroke:#0A3652;stroke-width:0.3;stroke-opacity:0.29;}
	.st94{fill:none;stroke:#063551;stroke-width:0.3;stroke-opacity:0.15;}
	.st95{fill:none;stroke:#093652;stroke-width:0.3;stroke-opacity:0.29;}
	.st96{fill:none;stroke:#065375;stroke-width:0.3;stroke-opacity:0.83;}
	.st97{fill:none;stroke:#093553;stroke-width:0.3;stroke-opacity:0.7;}
	.st98{fill:none;stroke:#0091BC;stroke-width:0.3;stroke-opacity:0.83;}
	.st99{fill:none;stroke:#083653;stroke-width:0.3;stroke-opacity:0.13;}
	.st100{fill:none;stroke:#083553;stroke-width:0.3;stroke-opacity:0.29;}
	.st101{fill:none;stroke:#083553;stroke-width:0.3;stroke-opacity:0.64;}
	.st102{fill:none;stroke:#083552;stroke-width:0.3;stroke-opacity:0.64;}
	.st103{fill:none;stroke:#04749B;stroke-width:0.3;stroke-opacity:0.75;}
	.st104{fill:none;stroke:#03779F;stroke-width:0.3;stroke-opacity:0.78;}
	.st105{fill:none;stroke:#037AA2;stroke-width:0.3;stroke-opacity:0.77;}
	.st106{fill:none;stroke:#093453;stroke-width:0.3;stroke-opacity:0.49;}
	.st107{fill:none;stroke:#075072;stroke-width:0.3;stroke-opacity:0.84;}
	.st108{fill:none;stroke:#083653;stroke-width:0.3;stroke-opacity:0.16;}
	.st109{fill:none;stroke:#083551;stroke-width:0.3;stroke-opacity:0.31;}
	.st110{fill:none;stroke:#073750;stroke-width:0.3;stroke-opacity:0.3;}
	.st111{fill:none;stroke:#093653;stroke-width:0.3;stroke-opacity:0.39;}
	.st112{fill:none;stroke:#0B3354;stroke-width:0.3;stroke-opacity:0.27;}
	.st113{fill:none;stroke:#093452;stroke-width:0.3;stroke-opacity:0.43;}
	.st114{fill:none;stroke:#04698F;stroke-width:0.3;stroke-opacity:0.78;}
	.st115{fill:none;stroke:#065073;stroke-width:0.3;stroke-opacity:0.83;}
	.st116{fill:none;stroke:#073551;stroke-width:0.3;stroke-opacity:0.36;}
	.st117{fill:none;stroke:#0A3653;stroke-width:0.3;stroke-opacity:0.31;}
	.st118{fill:none;stroke:#065477;stroke-width:0.3;stroke-opacity:0.84;}
	.st119{fill:none;stroke:#056B91;stroke-width:0.3;stroke-opacity:0.79;}
	.st120{fill:none;stroke:#046F95;stroke-width:0.3;stroke-opacity:0.78;}
	.st121{fill:none;stroke:#065578;stroke-width:0.3;stroke-opacity:0.8;}
	.st122{fill:none;stroke:#053357;stroke-width:0.3;stroke-opacity:0.28;}
	.st123{fill:none;stroke:#073752;stroke-width:0.3;stroke-opacity:0.31;}
	.st124{fill:none;stroke:#0189B3;stroke-width:0.3;stroke-opacity:0.78;}
	.st125{fill:none;stroke:#083453;stroke-width:0.3;stroke-opacity:0.63;}
	.st126{fill:none;stroke:#093552;stroke-width:0.3;stroke-opacity:0.87;}
	.st127{fill:none;stroke:#093756;stroke-width:0.3;stroke-opacity:0.89;}
	.st128{fill:none;stroke:#093553;stroke-width:0.3;stroke-opacity:0.87;}
	.st129{fill:none;stroke:#073851;stroke-width:0.3;stroke-opacity:0.6;}
	.st130{fill:none;stroke:#084464;stroke-width:0.3;stroke-opacity:0.63;}
	.st131{fill:none;stroke:#033355;stroke-width:0.3;stroke-opacity:0.46;}
	.st132{fill:none;stroke:#013056;stroke-width:0.3;stroke-opacity:4.000000e-02;}
	.st133{fill:none;stroke:#01A4D7;stroke-width:0.3;stroke-opacity:0.67;}
	.st134{fill:none;stroke:#084263;stroke-width:0.3;stroke-opacity:0.67;}
	.st135{fill:none;stroke:#013057;stroke-width:0.3;stroke-opacity:0.22;}
	.st136{fill:none;stroke:#053954;stroke-width:0.3;stroke-opacity:0.37;}
	.st137{fill:none;stroke:#063653;stroke-width:0.3;stroke-opacity:0.28;}
	.st138{fill:none;stroke:#085275;stroke-width:0.3;stroke-opacity:0.76;}
	.st139{fill:none;stroke:#084C6E;stroke-width:0.3;stroke-opacity:0.8;}
	.st140{fill:none;stroke:#085276;stroke-width:0.3;stroke-opacity:0.76;}
	.st141{fill:none;stroke:#019DCF;stroke-width:0.3;stroke-opacity:0.85;}
	.st142{fill:none;stroke:#085277;stroke-width:0.3;stroke-opacity:0.79;}
	.st143{fill:none;stroke:#0A3553;stroke-width:0.3;stroke-opacity:0.43;}
	.st144{fill:none;stroke:#0A3755;stroke-width:0.3;stroke-opacity:0.27;}
	.st145{fill:none;stroke:#083452;stroke-width:0.3;stroke-opacity:0.47;}
	.st146{fill:none;stroke:#093453;stroke-width:0.3;stroke-opacity:0.31;}
	.st147{fill:none;stroke:#093553;stroke-width:0.3;stroke-opacity:0.66;}
	.st148{fill:none;stroke:#073553;stroke-width:0.3;stroke-opacity:0.25;}
	.st149{fill:none;stroke:#083653;stroke-width:0.3;stroke-opacity:0.11;}
	.st150{fill:#083554;fill-opacity:0.13;}
	.st151{fill:#083553;fill-opacity:0.98;}
	.st152{fill:#093452;fill-opacity:0.4;}
	.st153{fill:#083552;fill-opacity:0.73;}
	.st154{fill:#0A3453;fill-opacity:0.34;}
	.st155{fill:#053152;fill-opacity:0.21;}
	.st156{fill:#093453;fill-opacity:0.6;}
	.st157{fill:#063556;fill-opacity:0.31;}
	.st158{fill:#084D70;fill-opacity:0.77;}
	.st159{fill:#0299CB;fill-opacity:0.84;}
	.st160{fill:#084668;fill-opacity:0.81;}
	.st161{fill:#048BBA;fill-opacity:0.76;}
	.st162{fill:#00B8F0;}
	.st163{fill:#084D6F;fill-opacity:0.81;}
	.st164{fill:#083455;fill-opacity:0.27;}
	.st165{fill:#093553;fill-opacity:0.41;}
	.st166{fill:#003159;fill-opacity:0.24;}
	.st167{fill:#002F60;fill-opacity:0.18;}
	.st168{fill:#07384D;fill-opacity:0.2;}
	.st169{fill:#063256;fill-opacity:0.23;}
	.st170{fill:#063254;fill-opacity:0.17;}
	.st171{fill:#00315E;fill-opacity:9.000000e-02;}
	.st172{fill:#023357;fill-opacity:0.41;}
	.st173{fill:#083452;fill-opacity:0.75;}
	.st174{fill:#023058;fill-opacity:4.000000e-02;}
	.st175{fill:#01A5D9;fill-opacity:0.66;}
	.st176{fill:#083A5B;fill-opacity:0.84;}
	.st177{fill:#084668;fill-opacity:0.6;}
	.st178{fill:#093452;fill-opacity:0.8;}
	.st179{fill:#053153;fill-opacity:0.27;}
	.st180{fill:#083354;fill-opacity:0.28;}
	.st181{fill:#023158;fill-opacity:0.36;}
	.st182{fill:#0381AB;fill-opacity:0.76;}
	.st183{fill:#0096C3;}
	.st184{fill:#056388;fill-opacity:0.78;}
	.st185{fill:#0280A9;fill-opacity:0.8;}
	.st186{fill:#0091BD;fill-opacity:0.84;}
	.st187{fill:#073351;fill-opacity:0.27;}
	.st188{fill:#0C3358;fill-opacity:8.000000e-02;}
	.st189{fill:#04668C;fill-opacity:0.78;}
	.st190{fill:#0094C0;fill-opacity:0.86;}
	.st191{fill:#027BA4;fill-opacity:0.75;}
	.st192{fill:#093553;}
	.st193{fill:#0185AF;fill-opacity:0.78;}
	.st194{fill:#0283AD;fill-opacity:0.82;}
	.st195{fill:#083453;fill-opacity:0.56;}
	.st196{fill-opacity:0;}
	.st197{fill:#023356;fill-opacity:0.34;}
	.st198{fill:#073352;fill-opacity:0.15;}
	.st199{fill:#093553;fill-opacity:0.8;}
	.st200{fill:#093553;fill-opacity:0.69;}
	.st201{fill:#073551;fill-opacity:0.15;}
	.st202{fill:#00335D;fill-opacity:0.22;}
	.st203{fill:#056A90;fill-opacity:0.78;}
	.st204{fill:#073251;fill-opacity:0.44;}
	.st205{fill:#065275;fill-opacity:0.83;}
	.st206{fill:#083452;fill-opacity:0.18;}
	.st207{fill:#046E95;fill-opacity:0.78;}
	.st208{fill:#0183AD;fill-opacity:0.75;}
	.st209{fill:#05648A;fill-opacity:0.77;}
	.st210{fill:#0096C1;fill-opacity:0.89;}
	.st211{fill:#046990;fill-opacity:0.78;}
	.st212{fill:#0281AB;fill-opacity:0.77;}
	.st213{fill:#063353;fill-opacity:0.47;}
	.st214{fill:#083654;fill-opacity:0.52;}
	.st215{fill:#014858;fill-opacity:4.000000e-02;}
	.st216{fill:#093453;fill-opacity:0.21;}
	.st217{fill:#093653;fill-opacity:0.14;}
	.st218{fill:#083553;fill-opacity:0.82;}
	.st219{fill:#083453;fill-opacity:0.83;}
	.st220{fill:#093553;fill-opacity:0.64;}
	.st221{fill:#0C3A51;fill-opacity:9.000000e-02;}
	.st222{fill:#073750;fill-opacity:0.25;}
	.st223{fill:#003359;fill-opacity:0.33;}
	.st224{fill:#003459;fill-opacity:0.36;}
	.st225{fill:#093553;fill-opacity:0.38;}
	.st226{fill:#083454;fill-opacity:0.24;}
	.st227{fill:#083553;fill-opacity:0.43;}
	.st228{fill:#037AA2;fill-opacity:0.78;}
	.st229{fill:#093452;fill-opacity:0.39;}
	.st230{fill:#0A3353;fill-opacity:0.28;}
	.st231{fill:#073453;fill-opacity:0.5;}
	.st232{fill:#055D81;fill-opacity:0.79;}
	.st233{fill:#093552;fill-opacity:0.24;}
	.st234{fill:#063453;fill-opacity:0.2;}
	.st235{fill:#00385E;fill-opacity:7.000000e-02;}
	.st236{fill:#083453;fill-opacity:0.3;}
	.st237{fill:#073353;fill-opacity:0.17;}
	.st238{fill:#093453;fill-opacity:0.81;}
	.st239{fill:#083553;fill-opacity:0.69;}
	.st240{fill:#073458;fill-opacity:0.23;}
	.st241{fill:#002D5F;fill-opacity:0.21;}
	.st242{fill:#0A3653;fill-opacity:0.45;}
	.st243{fill:#0A3652;fill-opacity:0.29;}
	.st244{fill:#063551;fill-opacity:0.15;}
	.st245{fill:#093652;fill-opacity:0.29;}
	.st246{fill:#065375;fill-opacity:0.83;}
	.st247{fill:#093553;fill-opacity:0.7;}
	.st248{fill:#0091BC;fill-opacity:0.83;}
	.st249{fill:#083653;fill-opacity:0.13;}
	.st250{fill:#083553;fill-opacity:0.29;}
	.st251{fill:#083553;fill-opacity:0.64;}
	.st252{fill:#083552;fill-opacity:0.64;}
	.st253{fill:#04749B;fill-opacity:0.75;}
	.st254{fill:#03779F;fill-opacity:0.78;}
	.st255{fill:#037AA2;fill-opacity:0.77;}
	.st256{fill:#093453;fill-opacity:0.49;}
	.st257{fill:#075072;fill-opacity:0.84;}
	.st258{fill:#083653;fill-opacity:0.16;}
	.st259{fill:#083551;fill-opacity:0.31;}
	.st260{fill:#073750;fill-opacity:0.3;}
	.st261{fill:#093653;fill-opacity:0.39;}
	.st262{fill:#0B3354;fill-opacity:0.27;}
	.st263{fill:#093452;fill-opacity:0.43;}
	.st264{fill:#04698F;fill-opacity:0.78;}
	.st265{fill:#065073;fill-opacity:0.83;}
	.st266{fill:#073551;fill-opacity:0.36;}
	.st267{fill:#0A3653;fill-opacity:0.31;}
	.st268{fill:#065477;fill-opacity:0.84;}
	.st269{fill:#056B91;fill-opacity:0.79;}
	.st270{fill:#046F95;fill-opacity:0.78;}
	.st271{fill:#065578;fill-opacity:0.8;}
	.st272{fill:#053357;fill-opacity:0.28;}
	.st273{fill:#073752;fill-opacity:0.31;}
	.st274{fill:#0189B3;fill-opacity:0.78;}
	.st275{fill:#083453;fill-opacity:0.63;}
	.st276{fill:#093552;fill-opacity:0.87;}
	.st277{fill:#093756;fill-opacity:0.89;}
	.st278{fill:#093553;fill-opacity:0.87;}
	.st279{fill:#073851;fill-opacity:0.6;}
	.st280{fill:#084464;fill-opacity:0.63;}
	.st281{fill:#033355;fill-opacity:0.46;}
	.st282{fill:#013056;fill-opacity:4.000000e-02;}
	.st283{fill:#01A4D7;fill-opacity:0.67;}
	.st284{fill:#084263;fill-opacity:0.67;}
	.st285{fill:#013057;fill-opacity:0.22;}
	.st286{fill:#053954;fill-opacity:0.37;}
	.st287{fill:#063653;fill-opacity:0.28;}
	.st288{fill:#085275;fill-opacity:0.76;}
	.st289{fill:#084C6E;fill-opacity:0.8;}
	.st290{fill:#085276;fill-opacity:0.76;}
	.st291{fill:#019DCF;fill-opacity:0.85;}
	.st292{fill:#085277;fill-opacity:0.79;}
	.st293{fill:#0A3553;fill-opacity:0.43;}
	.st294{fill:#0A3755;fill-opacity:0.27;}
	.st295{fill:#083452;fill-opacity:0.47;}
	.st296{fill:#093453;fill-opacity:0.31;}
	.st297{fill:#093553;fill-opacity:0.66;}
	.st298{fill:#073553;fill-opacity:0.25;}
	.st299{fill:#083653;fill-opacity:0.11;}
</style>
<g>
	<g>
		<path class="st0" d="M245,47c6,0,11.9,0,17.9,0C258.1,45.2,249.8,45.3,245,47z"/>
	</g>
	<g>
		<path class="st1" d="M227.1,48.1c-0.6,1.7-2.9,0.8-4.2,1.1c-22.7,2.4-44,10.4-64.1,21c-1.5,2.5-4.7,3.6-7.4,4.2    c-4.7,2.6-9.2,5.3-13.7,8.4c-1.6,3.1-4.7,4.5-7.4,6.3c0,0-0.6-0.2-1.1,0c-1,1.6-2.4,3.4-4.2,4.2c-0.7,0.2-2.1-0.1-2.1,1.1    c-1,1.6-2.4,3.4-4.2,4.2c-1.1,0.1-1.7,1.2-2.1,2.1c-7.4,12.5-19.7,16-33.6,13.7c-15.2-0.7-31.8,1.4-46.2-1.1    c-7.5,1.3-15.9,3.5-21,9.5c-2.3,3.1-5.3,6.2-8.4,8.4c-3.8,5.5-6.6,12-6.3,18.9c0,70.7,0,141.4,0,212.1c-0.3,7,2.5,13.3,6.3,18.9    c4.2,3.4,8.3,7.4,11.6,11.6c5.4,2.7,10.8,5.7,16.8,6.3c0.6-1.7,2.9-0.8,4.2-1.1c21.2,0.7,43.8-1.4,64.1,1.1    c4.2,3.4,8.3,7.4,11.6,11.6c1.1,2.1,3.2,3.9,5.3,5.3c1.9-0.2,3.5,1.6,4.2,3.2c1.1,1.8,2.9,4.3,5.3,4.2c1.3,1.2,3.3,1.7,4.2,3.2    c22.2,18.3,50.2,28.7,77.7,35.7c0.5-1.4,3.8-1.6,4.2,0c2.2,1.5,4.8,1,7.4,1.1c1.3,0.3,3.7-0.8,4.2,1.1c1.1,0,2.1,0,3.2,0    c2.3,0.5,5.9-1.2,7.4,1.1c2.8,0,5.6,0,8.4,0c4.5,0,9.1,0,13.7,0c1.8,0,3.5,0,5.3,0c0.6-1.7,2.9-0.8,4.2-1.1c2.1,0,4.2,0,6.3,0    c0,0,0.5-0.1,1.1,0c1.2-2,4.3-0.6,6.3-1.1c37.3-4.1,71.8-21.3,100.8-45.2c2.3-3.1,5.3-6.2,8.4-8.4c3-3.8,6.7-7.6,10.5-10.5    c21.6-1.7,46.7-1.8,68.3,0c8.1,0.2,15.6-2.8,22.1-7.4c3.5-4.4,8.1-8.5,11.6-12.6c3.5-6.1,6.1-12.6,5.3-20c0-68.6,0-137.2,0-205.8    c0.9-9.1-3-17.5-8.4-24.2c-3.1-2.3-6.2-5.3-8.4-8.4c0,0-0.6,0.1-1.1,0c-1.4-1-3.7-1.1-4.2-3.2c-5.2-2.7-10.8-4.4-16.8-4.2    c-21.6,1.7-46.7,1.8-68.3,0c-5.2-4.4-10.4-9.5-14.7-14.7c-1.6-1-3.4-2.4-4.2-4.2c0,0-0.6,0.2-1.1,0c-1.6-1-3.4-2.4-4.2-4.2    c0,0-0.6,0.2-1.1,0c-1.3-0.3-1.8-1.9-3.2-2.1c-2.9-2.9-7.1-4.2-9.5-7.4c-10-7.4-21.7-14-33.6-17.9c-1.9-0.3-4.5-1.1-5.3-3.2    c-12.5-4.1-24.9-8.1-37.8-10.5c-0.5,1.4-3.8,1.6-4.2,0c-1.8-2.3-5.8-0.5-8.4-1.1c-2.3-0.5-5.9,1.2-7.4-1.1c-2.1,0-4.2,0-6.3,0    c-6,0-11.9,0-17.9,0c-1.1,0-2.1,0-3.2,0c-0.6,1.7-2.9,0.8-4.2,1.1c-1.3-0.3-3.7,0.8-4.2-1.1C231.2,47.2,229.5,48.7,227.1,48.1     M272.3,62.8c1.4,0,2.8,0,4.2,0c1.3,0.3,3.7-0.8,4.2,1.1c35.2,4.8,67.9,21.1,95.6,43.1c2.4,2,5.9,4.1,6.3,7.4    c-85.6-0.7-172.6,1.4-257.3-1.1c1.3-2,3.2-4.1,5.3-5.3c1.3-0.3,1.8-1.9,3.2-2.1c27.7-22.9,61-38.3,96.6-42    c0.6-1.7,2.9-0.8,4.2-1.1c0.5,0.1,1.1,0,1.1,0c1.5-2.1,5-0.6,7.4-1.1c7.7,0,15.4,0,23.1,0C268,62.2,271.2,60.6,272.3,62.8     M473.9,128.9c10.1,0.7,19.5,10.2,21,20c1.8,70.3,1.8,144,0,214.3c0.1,4-2.9,7-4.2,10.5c-1.3,2-3.2,4.1-5.3,5.3    c-4.1,1.8-7.7,5-12.6,4.2c-143.5,1.8-290.4,1.8-433.8,0c-4.9,0.9-8.5-2.5-12.6-4.2c-3.1-2.2-6-4.9-7.4-8.4    c-7-21.8-1.3-47.1-3.2-70.4c0-49.4,0-98.7,0-148.1c0.3-1.3-0.8-3.7,1.1-4.2c-0.3-3.2,2.1-5.6,3.2-8.4c1.6-2.4,3.9-4.8,6.3-6.3    c4.1-1.8,7.7-5,12.6-4.2C182.9,127.2,330.2,127.2,473.9,128.9 M377.3,404.1c-28,23-61,39-96.6,44.1c-0.6,1.7-2.9,0.8-4.2,1.1    c-1.8,0-3.5,0-5.3,0c-1.5,2.1-5,0.6-7.4,1.1c-6.6,0-13.3,0-20,0c-2.6-0.6-6.6,1.2-8.4-1.1c-1.1,0-2.1,0-3.2,0    c-1.6-0.4-4.4,1-5.3-1.1c-32.5-4.4-62.8-18.8-89.3-37.8c-1.6-1-3.4-2.4-4.2-4.2c-0.8-0.1-1.2-1.1-2.1-1.1    c-2.4-1.6-4.8-3.9-6.3-6.3c84.8-2.4,171.7-0.3,257.3-1.1C382.4,400.6,379.4,402.6,377.3,404.1z"/>
	</g>
	<g>
		<path class="st2" d="M237.6,48.1c-0.2-0.1,0-1.1,0-1.1c-1.4,0-2.8,0-4.2,0C233.9,48.9,236.3,47.8,237.6,48.1z"/>
	</g>
	<g>
		<path class="st3" d="M237.6,48.1c1.3-0.3,3.6,0.6,4.2-1.1c-1.4,0-2.8,0-4.2,0C237.6,47,237.4,48,237.6,48.1z"/>
	</g>
	<g>
		<path class="st4" d="M276.5,48.1c-1.4-2.2-5.1-0.5-7.4-1.1C270.6,49.3,274.2,47.5,276.5,48.1z"/>
	</g>
	<g>
		<path class="st5" d="M222.9,49.1c1.3-0.3,3.6,0.6,4.2-1.1C225.8,48.4,223.5,47.4,222.9,49.1z"/>
	</g>
	<g>
		<path class="st6" d="M289.1,49.1c-1.4,0-2.8,0-4.2,0C285.3,50.8,288.6,50.5,289.1,49.1z"/>
	</g>
	<g>
		<path class="st7" d="M332.1,62.8c-1-1.8-3.6-1.9-5.3-3.2C327.6,61.7,330.2,62.5,332.1,62.8z"/>
	</g>
	<g>
		<path class="st8" d="M235.5,62.8c2.4,0,4.9,0,7.4,0c0.1,0,0-1.1,0-1.1C240.6,62.2,237,60.7,235.5,62.8z"/>
	</g>
	<g>
		<path class="st9" d="M242.9,62.8c7.7,0,15.4,0,23.1,0c-0.1,0,0-1.1,0-1.1c-7.7,0-15.4,0-23.1,0C242.9,61.7,242.9,62.8,242.9,62.8z    "/>
	</g>
	<g>
		<path class="st10" d="M266,62.8c2.1,0,4.2,0,6.3,0c-1.1-2.2-4.3-0.6-6.3-1.1C266,61.7,265.9,62.7,266,62.8z"/>
	</g>
	<g>
		<path class="st11" d="M230.3,63.8c1.3-0.3,3.7,0.8,4.2-1.1C233.2,63.1,230.8,62.1,230.3,63.8z"/>
	</g>
	<g>
		<path class="st12" d="M230.3,63.8c-35.6,3.7-68.9,19.1-96.6,42c-1,1.6-2.4,3.4-4.2,4.2c-1.3,0.7-2.7,1.7-3.2,3.2    c85.1,0,170.1,0,255.2,0c-1.2-2.5-4.2-3.8-5.3-6.3c-27.7-22-60.4-38.3-95.6-43.1c-1.3-0.3-3.7,0.8-4.2-1.1c-1.4,0-2.8,0-4.2,0    c-2.1,0-4.2,0-6.3,0c-7.7,0-15.4,0-23.1,0c-2.4,0-4.9,0-7.4,0c0,0-0.5,0.1-1.1,0C233.9,64.6,231.6,63.5,230.3,63.8z"/>
	</g>
	<g>
		<path class="st13" d="M280.7,63.8c-0.5-1.8-2.9-0.8-4.2-1.1C277,64.6,279.3,63.5,280.7,63.8z"/>
	</g>
	<g>
		<path class="st14" d="M151.5,74.3c2.7-0.6,5.9-1.7,7.4-4.2C156.4,71.5,153.4,72.3,151.5,74.3z"/>
	</g>
	<g>
		<path class="st15" d="M375.2,88c-0.1-0.8-1.1-1.2-1.1-2.1c-2.8-1.7-5.3-3.9-8.4-5.3C368.1,83.8,372.3,85.1,375.2,88z"/>
	</g>
	<g>
		<path class="st16" d="M130.5,89c2.6-1.8,5.8-3.2,7.4-6.3C135.5,84.9,132.1,86.1,130.5,89z"/>
	</g>
	<g>
		<path class="st17" d="M375.2,88c1.4,0.2,1.8,1.8,3.2,2.1c-0.8-1.8-2.6-3.2-4.2-4.2C374.1,86.8,375.1,87.1,375.2,88z"/>
	</g>
	<g>
		<path class="st18" d="M125.2,93.2c1.8-0.8,3.2-2.6,4.2-4.2C127.7,89.8,126.3,91.6,125.2,93.2z"/>
	</g>
	<g>
		<path class="st19" d="M383.6,94.3c-0.8-1.8-2.6-3.2-4.2-4.2C380.2,91.8,382,93.3,383.6,94.3z"/>
	</g>
	<g>
		<path class="st20" d="M118.9,98.5c1.8-0.8,3.2-2.6,4.2-4.2C121.4,95.1,120,96.8,118.9,98.5z"/>
	</g>
	<g>
		<path class="st21" d="M388.9,98.5c-0.8-1.8-2.6-3.2-4.2-4.2C385.4,96,387.2,97.5,388.9,98.5z"/>
	</g>
	<g>
		<path class="st22" d="M403.6,113.2c-4.2-5.7-9-10.4-14.7-14.7C393.2,103.7,398.3,108.8,403.6,113.2z"/>
	</g>
	<g>
		<path class="st23" d="M113.7,102.7c-2,2.8-4.6,5.5-7.4,7.4c-8.4,6.8-22.7,1.4-33.6,3.2c-11.9,0-23.8,0-35.7,0    c14.4,2.4,31,0.3,46.2,1.1c13.9,2.4,26.2-1.2,33.6-13.7C115.8,101.2,114.3,101.6,113.7,102.7z"/>
	</g>
	<g>
		<path class="st24" d="M106.3,110c2.8-1.8,5.4-4.6,7.4-7.4C110.9,104.5,108.3,107.3,106.3,110z"/>
	</g>
	<g>
		<path class="st25" d="M130.5,107.9c-0.1,0.8-1.1,1.2-1.1,2.1c1.8-0.8,3.2-2.6,4.2-4.2C132.3,106,131.8,107.6,130.5,107.9z"/>
	</g>
	<g>
		<path class="st26" d="M126.3,113.2c-0.5,0-1.1,0-1.1,0c84.7,2.4,171.7,0.3,257.3,1.1c-0.4-3.3-3.9-5.4-6.3-7.4    c1.1,2.5,4.1,3.8,5.3,6.3C296.4,113.2,211.4,113.2,126.3,113.2z"/>
	</g>
	<g>
		<path class="st27" d="M125.2,113.2c0,0,0.5,0,1.1,0c0.4-1.4,1.9-2.4,3.2-3.2c-0.1-0.9,0.9-1.3,1.1-2.1    C128.4,109.1,126.6,111.1,125.2,113.2z"/>
	</g>
	<g>
		<path class="st28" d="M471.8,113.2c-22.8,0-45.5,0-68.3,0C425.1,114.9,450.2,114.9,471.8,113.2z"/>
	</g>
	<g>
		<path class="st29" d="M492.8,120.5c-0.5-2-2.8-2.1-4.2-3.2C489.1,119.4,491.4,119.5,492.8,120.5z"/>
	</g>
	<g>
		<path class="st30" d="M502.3,128.9c-2.2-3.1-5.3-6.1-8.4-8.4C496.1,123.7,499.2,126.6,502.3,128.9z"/>
	</g>
	<g>
		<path class="st31" d="M7.6,131c3.1-2.2,6.1-5.3,8.4-8.4C12.4,124.5,10.3,127.8,7.6,131z"/>
	</g>
	<g>
		<path class="st32" d="M39.1,128.9c144.9,0,289.9,0,434.8,0C330.2,127.2,182.9,127.2,39.1,128.9z"/>
	</g>
	<g>
		<path class="st33" d="M26.5,133.1c-1.6,2.4-3.9,4.8-6.3,6.3c-1.1,2.8-3.5,5.2-3.2,8.4c-0.3,1.3,0.8,3.7-1.1,4.2    c0,49.4,0,98.7,0,148.1c1.8,23.2-3.8,48.5,3.2,70.4c2.5,2.5,5.1,5.6,7.4,8.4c4.1,1.7,7.7,5.1,12.6,4.2c144.6,0,289.2,0,433.8,0    c4.9,0.8,8.5-2.4,12.6-4.2c1.3-2,3.2-4.1,5.3-5.3c1.3-3.5,4.3-6.5,4.2-10.5c0-71.4,0-142.8,0-214.3c-1.5-9.8-10.9-19.3-21-20    c-144.9,0-289.9,0-434.8,0C34.2,128.1,30.6,131.4,26.5,133.1 M386.8,160.4c7.3,0.9,13.8,4.9,20,8.4c3.9,2.7,7.1,6.5,9.5,10.5    c2.8,5.9,6.3,11.9,6.3,18.9c3.4,2.9-1.9,11.4,3.2,12.6c3.2,0,6.3,0,9.5,0c1.3,0.3,3.7-0.8,4.2,1.1c6.8,1.4,13,4.8,18.9,8.4    c2.8,2,5.5,4.6,7.4,7.4c3.8,6.7,8.3,13.8,8.4,22.1c1.6,2.4,1.8,8.2,0,10.5c-0.3,8.1-3.9,15.5-8.4,22.1c-2.3,3.1-5.3,6.2-8.4,8.4    c-6.5,4.2-13.3,7.5-21,8.4c-3.1,2.9-9.6-0.9-12.6,2.1c-0.7,3.7,1.3,8.7-1.1,11.6c-0.2,7.3-4.3,13.5-7.4,20    c-2.3,3.1-5.3,6.2-8.4,8.4c-5.4,4.1-11.3,7-17.9,8.4c-0.6,1.7-2.9,0.8-4.2,1.1c-12.3,1-24.1-2-33.6-9.5c-2.8-2-5.5-4.6-7.4-7.4    c-7.3-9.2-10.2-20.6-9.5-32.6c-3.4-3-10.3,0.9-13.7-2.1c-8.1-1.1-15.2-5.2-22.1-9.5c-2.4-1.6-4.8-3.9-6.3-6.3    c-6.3-9.8-10.8-21.2-9.5-33.6c0.3-1.3-0.8-3.7,1.1-4.2c1.5-6,3.9-11.6,7.4-16.8c2.3-3.1,5.3-6.2,8.4-8.4c10-7.3,22-10.4,34.7-9.5    c0-3.9,0-7.7,0-11.6c0.3-1.3-0.8-3.7,1.1-4.2c1.6-6.7,4.5-13.2,8.4-18.9c2-2.8,4.6-5.5,7.4-7.4c6.9-3.5,13.7-8.5,22.1-8.4    C376.5,158.8,383.4,158.6,386.8,160.4 M183,211.9c14.2,0.7,29.7-1.4,43.1,1.1c1.7,27.2,1.8,57.9,0,85.1c-14.7,0-29.4,0-44.1,0    c0,14.4,0,28.7,0,43.1c-27.4,2.4-56.9,0.3-85.1,1.1c-2.4-13.7-0.4-29.6-1.1-44.1c-14.4,0-28.7,0-43.1,0    c-2.4-27.4-0.3-56.9-1.1-85.1c13.7-2.4,29.6-0.4,44.1-1.1c0-14.4,0-28.7,0-43.1c27.7-1.9,58.2-1.4,86.4-0.2    C184.1,182.5,182.5,197.5,183,211.9z"/>
	</g>
	<g>
		<path class="st34" d="M20.2,139.4c2.4-1.5,4.7-3.9,6.3-6.3C24.1,134.6,21.9,137,20.2,139.4z"/>
	</g>
	<g>
		<path class="st35" d="M16,152c1.8-0.5,0.8-2.9,1.1-4.2C15.2,148.4,16.3,150.7,16,152z"/>
	</g>
	<g>
		<path class="st36" d="M494.9,363.1c1.8-70.2,1.8-144,0-214.3C494.9,220.3,494.9,291.7,494.9,363.1z"/>
	</g>
	<g>
		<path class="st37" d="M1.3,362.1c0-70.7,0-141.4,0-212.1C-0.4,219.5-0.4,292.5,1.3,362.1z"/>
	</g>
	<g>
		<path class="st38" d="M510.7,358.9c1.8-67.4,1.8-138.3,0-205.8C510.7,221.7,510.7,290.3,510.7,358.9z"/>
	</g>
	<g>
		<path class="st39" d="M373.1,160.4c4.5,0,9.1,0,13.7,0C383.4,158.6,376.5,158.8,373.1,160.4z"/>
	</g>
	<g>
		<path class="st1" d="M351,168.8c-2,2.8-4.6,5.5-7.4,7.4c-3.9,5.7-6.8,12.2-8.4,18.9c-0.3,1.3,0.8,3.7-1.1,4.2c0,3.9,0,7.7,0,11.6    c-12.7-1-24.7,2.2-34.7,9.5c-2.3,3.1-5.3,6.2-8.4,8.4c-3.4,5.2-5.9,10.8-7.4,16.8c-0.3,1.3,0.8,3.7-1.1,4.2    c-1.3,12.4,3.2,23.8,9.5,33.6c2.4,1.6,4.8,3.9,6.3,6.3c6.9,4.3,13.9,8.4,22.1,9.5c3.7,1,15-2.2,13.7,2.1    c-0.7,11.9,2.2,23.3,9.5,32.6c2.8,2,5.5,4.6,7.4,7.4c9.5,7.4,21.3,10.5,33.6,9.5c0.6-1.7,2.9-0.8,4.2-1.1    c6.6-1.4,12.5-4.3,17.9-8.4c2.3-3.1,5.3-6.2,8.4-8.4c3.1-6.4,7.1-12.6,7.4-20c0-3.9,0-7.7,0-11.6c1.6-4.4,9.5-1,13.7-2.1    c7.7-0.9,14.5-4.2,21-8.4c2.3-3.1,5.3-6.2,8.4-8.4c4.5-6.5,8.1-13.9,8.4-22.1c0-3.5,0-7,0-10.5c-0.1-8.3-4.6-15.3-8.4-22.1    c-2.8-2-5.5-4.6-7.4-7.4c-5.9-3.6-12.1-7-18.9-8.4c-1.3-0.3-3.7,0.8-4.2-1.1c-3.2,0-6.3,0-9.5,0c-0.3,1.5-2.2,0.8-3.2,1.1    c0-4.5,0-9.1,0-13.7c0-7-3.5-13-6.3-18.9c-3.5-3-6.3-7-9.5-10.5c-6.2-3.5-12.6-7.5-20-8.4c-4.5,0-9.1,0-13.7,0    C364.7,160.3,358,165.3,351,168.8 M383.6,175.1c3.9,1.4,7.6,3,11.6,4.2c0.8,0.1,1.2,1.1,2.1,1.1c2,1.3,4.1,3.2,5.3,5.3    c0.2,0.4,0,1.1,0,1.1c1.4,3.5,4.3,6.5,4.2,10.5c3.3,1.7,2.7,8.2,1.1,10.5c-0.7,4.9-2.9,9.3-5.3,13.7c-0.2,2.8-3.2,4.9-5.3,6.3    c-0.4,0.2-1.1,0-1.1,0c-0.8,0.1-1.2,1.1-2.1,1.1c-0.9,2-3.2,2.9-5.3,3.2c-1.6-0.4-2.8,0.5-4.2,1.1c-2.7,1.6-8.9,1.8-11.6,0    c-4.4-1.7-8.8-3.4-12.6-6.3c-1.2,1.3-6.7-4.1-5.3-5.3c-2.5-4.3-4.9-8.6-5.3-13.7c-1.5-1.4-1.8-6,0-7.4c-0.7-2,1.3-3.3,1.1-5.3    c-1.2-1.4,1.2-5.4,3.2-6.3c0.2-0.5,0-1.1,0-1.1c1.5-3.7,4.7-7,8.4-8.4c3.5-1.1,7.4-2.9,10.5-4.2    C375.5,173.5,381.3,173.3,383.6,175.1 M333.2,226.6c3.4,1.7,7.2,2.1,10.5,4.2c4.2,1.5,8.6,6,9.5,10.5c1.6,2.2,1.1,5.7,3.2,7.4    c1.6,2.4,1.8,8.2,0,10.5c-0.2,5-3.2,9.2-5.3,13.7c-2.3,2.7-4.8,6.7-8.4,7.4c-0.4,0.1-0.8,0.7-1.1,1.1c-1.1,1.5-3.3,2.3-5.3,2.1    c-1.9-0.2-3.6,0.1-5.3,1.1c-1.4,1.5-6,1.8-7.4,0c-4.8-1.2-9.3-3.1-13.7-5.3c-0.5-0.1-1.1,0-1.1,0c-2-1.3-4.1-3.2-5.3-5.3    c-0.6-1.5-2.5-2.3-2.1-4.2c-0.6-3.6-3.3-6.6-3.2-10.5c-1.5-1.4-1.8-6,0-7.4c0.3-5.3,3.3-10,5.3-14.7c1.3-2,3.2-4.1,5.3-5.3    c4.7-2,9.2-5.2,14.7-5.3C325.8,225,331.2,224.8,333.2,226.6 M434,226.6c4.6,0.1,8.5,2.8,12.6,4.2c2.2,1,7.6,4.1,6.3,6.3    c2.2,3.6,5.1,7.2,5.3,11.6c3.3,1.7,2.7,8.2,1.1,10.5c-1.2,4.4-2.3,9-5.3,12.6c0.9,2.2-4.3,5.6-6.3,7.4c-0.4,0.2-1.1,0-1.1,0    c-0.5,1.4-3.4,3.8-4.2,2.1c-2.5,2-5.7,1.7-8.4,3.2c-1.4,1.5-6,1.8-7.4,0c-4.6-1.6-9.4-2.6-13.7-5.3c-0.5-0.2-1.1,0-1.1,0    c-2-1.3-4.1-3.2-5.3-5.3c-0.1-0.8-1.1-1.2-1.1-2.1c-2.3-5.4-5.6-12-4.2-17.9c-1.5-0.8-1.7-4.5,0-5.3c1.1-4.2,3.9-7.6,5.3-11.6    c1.3-2,3.2-4.1,5.3-5.3c4.8-1.7,9.1-5.8,14.7-5.3C428.1,225.1,432.7,224.8,434,226.6 M389.9,279.1c2.5,0.3,5.3,1.8,6.3,4.2    c0.4,0.2,1.1,0,1.1,0c2,1.3,4.1,3.2,5.3,5.3c1.9,4.1,3.8,8.2,5.3,12.6c1.6,2.4,1.8,8.2,0,10.5c-1.3,3.6-2.8,7-4.2,10.5    c-1.2,3-3.5,5.7-6.3,7.4c-1.9-0.6-2.6,1.8-4.2,2.1c-0.7,1.6-4.1,4.2-5.3,2.1c-0.8,0.1-1.2,1.1-2.1,1.1c-0.6,1.7-2.9,0.8-4.2,1.1    c-1.8,0-3.5,0-5.3,0c-1.6-0.4-4.4,1-5.3-1.1c-0.3-1.5-2.2-0.8-3.2-1.1c-1.9-0.3-4.5-1.1-5.3-3.2c0-1.2-1.4-0.9-2.1-1.1    c-4.3-3.2-8.5-7.3-9.5-12.6c0.3-2.6-1.7-4.6-1.1-7.4c-1.5-1.1-1.8-5.3,0-6.3c-0.3-5.5,3.1-9.9,5.3-14.7c1.3-2,3.2-4.1,5.3-5.3    C369.3,277.5,379.9,275.4,389.9,279.1z"/>
	</g>
	<g>
		<path class="st40" d="M95.8,168.8c0,0,1.1,0,1.1,0c28.4,0,56.7,0,85.1,0c0,14.4,0,28.7,0,43.1c0,0.1,1.1,0,1.1,0    c-0.5-14.3,1.1-29.4-0.8-43.3C154.1,167.4,123.6,166.9,95.8,168.8z"/>
	</g>
	<g>
		<path class="st41" d="M51.7,212.9c0,0,1.1,0,1.1,0c14.7,0,29.4,0,44.1,0c0-14.7,0-29.4,0-44.1c0,0-1.1,0-1.1,0    c0,14.4,0,28.7,0,43.1C81.3,212.6,65.5,210.5,51.7,212.9z"/>
	</g>
	<g>
		<path class="st42" d="M52.8,212.9c0,28.4,0,56.7,0,85.1c14.4,0,28.7,0,43.1,0c2.4,13.4,0.4,28.9,1.1,43.1c28.4,0,56.7,0,85.1,0    c0-14.4,0-28.7,0-43.1c14.7,0,29.4,0,44.1,0c0-28.4,0-56.7,0-85.1c-14.5-0.7-30.4,1.4-44.1-1.1c0-14.4,0-28.7,0-43.1    c-28.4,0-56.7,0-85.1,0c0,14.7,0,29.4,0,44.1C82.2,212.9,67.5,212.9,52.8,212.9 M167.3,226.6c14.5,0.7,30.4-1.4,44.1,1.1    c0,18.2,0,36.4,0,54.6c-13.7,2.4-29.6,0.4-44.1,1.1c0,14.4,0,28.7,0,43.1c-17.6,2.4-37.3,0.4-55.7,1.1    c-2.4-13.7-0.4-29.6-1.1-44.1c-14.4,0-28.7,0-43.1,0c-1.7-17.4-1.8-38.3,0-55.7c13.4-2.4,28.9-0.4,43.1-1.1    c0.7-14.2-1.4-29.7,1.1-43.1c18.2,0,36.4,0,54.6,0C168.6,196.9,166.6,212.4,167.3,226.6z"/>
	</g>
	<g>
		<path class="st43" d="M343.7,176.2c2.8-1.8,5.4-4.6,7.4-7.4C348.3,170.7,345.7,173.4,343.7,176.2z"/>
	</g>
	<g>
		<path class="st44" d="M416.2,179.3c-2.4-4-5.5-7.8-9.5-10.5C409.8,172.3,412.7,176.4,416.2,179.3z"/>
	</g>
	<g>
		<path class="st45" d="M373.1,175.1c3.5,0,7,0,10.5,0C381.3,173.3,375.5,173.5,373.1,175.1z"/>
	</g>
	<g>
		<path class="st46" d="M362.6,179.3c-2.8,2.9-5.4,5.7-8.4,8.4c0,0,0.2,0.6,0,1.1c-1.1,2.1-2.1,4.2-3.2,6.3c0.2,2-1.7,3.2-1.1,5.3    c0,2.4,0,4.9,0,7.4c0.4,5.1,2.8,9.4,5.3,13.7c1.6,1.6,2.9,4.3,5.3,5.3c3.8,2.9,8.2,4.6,12.6,6.3c3.9,0,7.7,0,11.6,0    c1.4-0.6,2.6-1.5,4.2-1.1c1.2-1.6,3.5-2.1,5.3-3.2c0.9,0.1,1.3-0.9,2.1-1.1c1-1.6,2.4-3.4,4.2-4.2c0.4-0.9,1-2,2.1-2.1    c2.4-4.4,4.5-8.8,5.3-13.7c-0.3-3.5,0.9-7.4-1.1-10.5c0.1-4-2.8-7-4.2-10.5c-2.8-2-5.5-4.6-7.4-7.4c-3.9-1.2-7.7-2.8-11.6-4.2    c-3.5,0-7,0-10.5,0C370,176.5,366.1,178.2,362.6,179.3z"/>
	</g>
	<g>
		<path class="st47" d="M354.2,187.7c3-2.7,5.6-5.5,8.4-8.4C358.9,180.8,355.7,184,354.2,187.7z"/>
	</g>
	<g>
		<path class="st48" d="M402.5,186.7c0,0,0.2-0.6,0-1.1c-2-1.3-4.1-3.2-5.3-5.3c-0.9,0.1-1.3-0.9-2.1-1.1    C397,182.1,399.8,184.7,402.5,186.7z"/>
	</g>
	<g>
		<path class="st49" d="M402.5,185.6c-1.1-2.1-3.2-3.9-5.3-5.3C398.4,182.5,400.5,184.3,402.5,185.6z"/>
	</g>
	<g>
		<path class="st50" d="M110.5,226.6c0,0.5,0,1.1,0,1.1c2.4-13.7,0.4-29.6,1.1-44.1C109.1,196.9,111.2,212.4,110.5,226.6z"/>
	</g>
	<g>
		<path class="st46" d="M110.5,227.6c-14.4,0-28.7,0-43.1,0c0,18.2,0,36.4,0,54.6c14.5,0.7,30.4-1.4,44.1,1.1c0,14.4,0,28.7,0,43.1    c18.2,0,36.4,0,54.6,0c0.7-14.5-1.4-30.4,1.1-44.1c14.4,0,28.7,0,43.1,0c0-18.2,0-36.4,0-54.6c-14.4,0-28.7,0-43.1,0    c-2.4-13.7-0.4-29.6-1.1-44.1c-18.2,0-36.4,0-54.6,0C110.9,198.1,113,213.9,110.5,227.6z"/>
	</g>
	<g>
		<path class="st51" d="M167.3,227.6c0,0,0-1.1,0-1.1c-0.7-14.2,1.4-29.7-1.1-43.1C166.9,198.1,164.8,213.9,167.3,227.6z"/>
	</g>
	<g>
		<path class="st52" d="M351,195.1c1.1-2.1,2-4.2,3.2-6.3C352.2,189.7,349.9,193.7,351,195.1z"/>
	</g>
	<g>
		<path class="st53" d="M334.2,199.3c1.8-0.5,0.8-2.9,1.1-4.2C333.4,195.6,334.5,197.9,334.2,199.3z"/>
	</g>
	<g>
		<path class="st54" d="M407.8,207.7c1.6-2.3,2.3-8.8-1.1-10.5C408.6,200.3,407.4,204.2,407.8,207.7z"/>
	</g>
	<g>
		<path class="st55" d="M425.6,210.8c-5.1-1.2,0.2-9.7-3.2-12.6c0,4.5,0,9.1,0,13.7C423.5,211.7,425.3,212.3,425.6,210.8z"/>
	</g>
	<g>
		<path class="st56" d="M350,207.7c0-2.4,0-4.9,0-7.4C348.2,201.7,348.5,206.3,350,207.7z"/>
	</g>
	<g>
		<path class="st57" d="M439.3,211.9c-0.5-1.8-2.9-0.8-4.2-1.1C435.6,212.7,437.9,211.6,439.3,211.9z"/>
	</g>
	<g>
		<path class="st58" d="M226.1,212.9c-13.3-2.4-28.9-0.3-43.1-1.1c0,0-1.1,0.1-1.1,0C195.6,214.3,211.5,212.2,226.1,212.9z"/>
	</g>
	<g>
		<path class="st59" d="M52.8,298c0-28.4,0-56.7,0-85.1c0,0-1.1,0-1.1,0C52.4,241.1,50.3,270.6,52.8,298z"/>
	</g>
	<g>
		<path class="st60" d="M226.1,298c1.8-27.2,1.7-57.8,0-85.1C226.1,241.3,226.1,269.7,226.1,298z"/>
	</g>
	<g>
		<path class="st61" d="M291.2,228.7c3.1-2.2,6.1-5.3,8.4-8.4C296.5,222.5,293.5,225.6,291.2,228.7z"/>
	</g>
	<g>
		<path class="st62" d="M465.5,227.6c-1.8-2.8-4.6-5.4-7.4-7.4C460,223.1,462.8,225.7,465.5,227.6z"/>
	</g>
	<g>
		<path class="st63" d="M360.5,226.6c-2.4-0.9-3.7-3.7-5.3-5.3C353.8,222.5,359.3,227.9,360.5,226.6z"/>
	</g>
	<g>
		<path class="st64" d="M400.4,223.4c-0.6,1.7-2.7,2.4-3.2,4.2c2.1-1.4,5.1-3.5,5.3-6.3C401.4,221.5,400.8,222.6,400.4,223.4z"/>
	</g>
	<g>
		<path class="st65" d="M396.2,227.6c0,0,0.6,0.2,1.1,0c0.5-1.8,2.6-2.5,3.2-4.2C398.6,224.2,397.2,226,396.2,227.6z"/>
	</g>
	<g>
		<path class="st66" d="M323.7,226.6c3.2,0,6.3,0,9.5,0C331.2,224.8,325.8,225,323.7,226.6z"/>
	</g>
	<g>
		<path class="st67" d="M426.7,226.6c2.4,0,4.9,0,7.4,0C432.7,224.8,428.1,225.1,426.7,226.6z"/>
	</g>
	<g>
		<path class="st68" d="M67.5,227.6c14.4,0,28.7,0,43.1,0c0,0,0-0.5,0-1.1C96.4,227.3,80.9,225.2,67.5,227.6z"/>
	</g>
	<g>
		<path class="st69" d="M167.3,227.6c14.4,0,28.7,0,43.1,0c0.5,0,1.1,0,1.1,0c-13.7-2.4-29.6-0.3-44.1-1.1    C167.3,226.6,167.2,227.6,167.3,227.6z"/>
	</g>
	<g>
		<path class="st46" d="M309,231.9c-1.3,2-3.2,4.1-5.3,5.3c-2,4.7-4.9,9.4-5.3,14.7c0,2.4,0,4.9,0,7.4c-0.2,3.9,2.5,6.9,3.2,10.5    c2.2,3.3,6.2,6,8.4,9.5c4.3,2.2,8.9,4,13.7,5.3c2.4,0,4.9,0,7.4,0c1.6-1,3.3-1.3,5.3-1.1c1.2-1.3,3.5-1.7,5.3-2.1    c0.2-0.3,0.7-0.9,1.1-1.1c2.9-1.9,5.3-5.5,8.4-7.4c2-4.5,5.1-8.6,5.3-13.7c0-3.5,0-7,0-10.5c-2.1-1.7-1.5-5.2-3.2-7.4    c-2.6-3.8-5.9-7.6-9.5-10.5c-3.3-2.1-7.1-2.5-10.5-4.2c-3.2,0-6.3,0-9.5,0C318.2,226.6,313.8,229.8,309,231.9z"/>
	</g>
	<g>
		<path class="st46" d="M412,231.9c-1.3,2-3.2,4.1-5.3,5.3c-1.4,3.9-4.2,7.4-5.3,11.6c0,1.8,0,3.5,0,5.3c-1.4,5.8,1.9,12.4,4.2,17.9    c2.8,2,5.5,4.6,7.4,7.4c4.3,2.7,9,3.7,13.7,5.3c2.4,0,4.9,0,7.4,0c2.7-1.4,5.9-1.2,8.4-3.2c1.4-0.8,2.8-1.4,4.2-2.1    c0,0,0.6,0.2,1.1,0c1.5-2.9,4.9-4.5,6.3-7.4c3-3.6,4.1-8.2,5.3-12.6c-0.3-3.5,0.9-7.4-1.1-10.5c-0.2-4.4-3-8-5.3-11.6    c-1.3-2.8-5.1-3.3-6.3-6.3c-4.1-1.4-8-4.1-12.6-4.2c-2.4,0-4.9,0-7.4,0C421,226.1,416.8,230.1,412,231.9z"/>
	</g>
	<g>
		<path class="st70" d="M67.5,283.3c0,0,0-1.1,0-1.1c0-18.2,0-36.4,0-54.6C65.7,245,65.7,265.9,67.5,283.3z"/>
	</g>
	<g>
		<path class="st71" d="M210.3,282.3c0.5,0,1.1,0,1.1,0c0-18.2,0-36.4,0-54.6c0,0-0.5,0-1.1,0C210.3,245.8,210.3,264.1,210.3,282.3z    "/>
	</g>
	<g>
		<path class="st72" d="M388.9,231.9c2-0.2,4.4-1.1,5.3-3.2C392.4,229.7,390.1,230.3,388.9,231.9z"/>
	</g>
	<g>
		<path class="st73" d="M353.1,241.3c-0.9-4.5-5.2-9-9.5-10.5C347.2,233.7,350.6,237.5,353.1,241.3z"/>
	</g>
	<g>
		<path class="st74" d="M452.9,237.1c1.3-2.2-4.1-5.3-6.3-6.3C447.9,233.8,451.7,234.3,452.9,237.1z"/>
	</g>
	<g>
		<path class="st75" d="M303.8,237.1c2.1-1.1,3.9-3.2,5.3-5.3C306.9,233,305.1,235.1,303.8,237.1z"/>
	</g>
	<g>
		<path class="st76" d="M406.7,237.1c2.1-1.1,3.9-3.2,5.3-5.3C409.9,233,408,235.1,406.7,237.1z"/>
	</g>
	<g>
		<path class="st77" d="M384.7,232.9c-3.9,0-7.7,0-11.6,0C375.8,234.7,381.9,234.5,384.7,232.9z"/>
	</g>
	<g>
		<path class="st78" d="M282.8,249.7c1.8-0.5,0.8-2.9,1.1-4.2C282,246,283.1,248.4,282.8,249.7z"/>
	</g>
	<g>
		<path class="st79" d="M356.3,259.2c1.8-2.3,1.6-8.1,0-10.5C356.3,252.2,356.3,255.7,356.3,259.2z"/>
	</g>
	<g>
		<path class="st80" d="M401.5,253.9c0-1.8,0-3.5,0-5.3C399.7,249.4,400,253.1,401.5,253.9z"/>
	</g>
	<g>
		<path class="st81" d="M459.2,259.2c1.6-2.3,2.3-8.8-1.1-10.5C460.1,251.7,458.9,255.6,459.2,259.2z"/>
	</g>
	<g>
		<path class="st82" d="M473.9,260.2c1.8-2.3,1.6-8.1,0-10.5C473.9,253.2,473.9,256.7,473.9,260.2z"/>
	</g>
	<g>
		<path class="st83" d="M298.5,259.2c0-2.4,0-4.9,0-7.4C296.7,253.1,297,257.8,298.5,259.2z"/>
	</g>
	<g>
		<path class="st84" d="M303.8,273.9c2,1.3,4.1,3.2,5.3,5.3c0,0,0.5-0.1,1.1,0c-2.2-3.5-6.2-6.1-8.4-9.5    C301.3,271.6,303.2,272.3,303.8,273.9z"/>
	</g>
	<g>
		<path class="st85" d="M406.7,273.9c2,1.3,4.1,3.2,5.3,5.3c0,0,0.6-0.2,1.1,0c-1.8-2.8-4.6-5.4-7.4-7.4    C405.6,272.7,406.6,273,406.7,273.9z"/>
	</g>
	<g>
		<path class="st86" d="M447.7,279.1c2-1.7,7.2-5.1,6.3-7.4C452.6,274.6,449.2,276.2,447.7,279.1z"/>
	</g>
	<g>
		<path class="st87" d="M342.6,280.2c3.6-0.7,6.1-4.7,8.4-7.4C348,274.7,345.6,278.3,342.6,280.2z"/>
	</g>
	<g>
		<path class="st88" d="M309,279.1c-1.1-2.1-3.2-3.9-5.3-5.3C304.9,276,307,277.8,309,279.1z"/>
	</g>
	<g>
		<path class="st89" d="M412,279.1c-1.1-2.1-3.2-3.9-5.3-5.3C407.9,276,409.9,277.8,412,279.1z"/>
	</g>
	<g>
		<path class="st46" d="M360.5,283.3c-1.3,2-3.2,4.1-5.3,5.3c-2.1,4.8-5.5,9.2-5.3,14.7c0,2.1,0,4.2,0,6.3c-0.7,2.7,1.4,4.7,1.1,7.4    c2.7,4.2,5.9,8.7,9.5,12.6c0.7,0.2,2.1-0.1,2.1,1.1c1.6,1.3,4.2,1.3,5.3,3.2c1,0.2,2.9-0.4,3.2,1.1c1.6,0.4,4.4-1,5.3,1.1    c1.8,0,3.5,0,5.3,0c0.6-1.7,2.9-0.8,4.2-1.1c0.9,0.1,1.3-0.9,2.1-1.1c2,0.1,3.5-1.5,5.3-2.1c1.6-0.3,2.3-2.7,4.2-2.1    c2.2-2.4,3.8-5.5,6.3-7.4c1.4-3.5,2.9-6.9,4.2-10.5c0-3.5,0-7,0-10.5c-1.4-4.4-3.3-8.5-5.3-12.6c-2-1.3-4.1-3.2-5.3-5.3    c0,0-0.7,0.2-1.1,0c-1.9-1.8-4.8-2.3-6.3-4.2C379.9,275.4,369.3,277.5,360.5,283.3z"/>
	</g>
	<g>
		<path class="st90" d="M396.2,283.3c-1.1-2.4-3.8-3.9-6.3-4.2C391.4,281,394.3,281.5,396.2,283.3z"/>
	</g>
	<g>
		<path class="st91" d="M442.4,281.2c0.8,1.7,3.7-0.7,4.2-2.1C445.2,279.8,443.8,280.4,442.4,281.2z"/>
	</g>
	<g>
		<path class="st92" d="M336.3,283.3c2,0.2,4.1-0.6,5.3-2.1C339.8,281.6,337.5,282.1,336.3,283.3z"/>
	</g>
	<g>
		<path class="st93" d="M67.5,283.3c14.4,0,28.7,0,43.1,0c0.5,0,1.1,0,1.1,0c-13.7-2.4-29.6-0.3-44.1-1.1    C67.5,282.3,67.4,283.3,67.5,283.3z"/>
	</g>
	<g>
		<path class="st94" d="M166.2,326.4c0.5,0,1.1,0,1.1,0c0-14.4,0-28.7,0-43.1c0-0.5,0-1.1,0-1.1    C164.8,295.9,166.9,311.8,166.2,326.4z"/>
	</g>
	<g>
		<path class="st95" d="M167.3,283.3c14.5-0.7,30.4,1.4,44.1-1.1c0,0-0.5,0-1.1,0c-14.4,0-28.7,0-43.1,0    C167.3,282.3,167.3,282.8,167.3,283.3z"/>
	</g>
	<g>
		<path class="st96" d="M457.1,290.7c3.1-2.2,6.1-5.3,8.4-8.4C462.4,284.5,459.4,287.6,457.1,290.7z"/>
	</g>
	<g>
		<path class="st97" d="M111.6,327.4c0,0,0-1.1,0-1.1c0-14.4,0-28.7,0-43.1c0,0-0.5,0-1.1,0C111.2,297.9,109.2,313.7,111.6,327.4z"/>
	</g>
	<g>
		<path class="st98" d="M298.5,289.6c-1.5-2.4-3.9-4.7-6.3-6.3C293.7,285.8,296.1,288,298.5,289.6z"/>
	</g>
	<g>
		<path class="st99" d="M355.2,288.6c2.1-1.1,3.9-3.2,5.3-5.3C358.4,284.5,356.6,286.5,355.2,288.6z"/>
	</g>
	<g>
		<path class="st100" d="M402.5,288.6c-1.1-2.1-3.2-3.9-5.3-5.3C398.4,285.4,400.5,287.2,402.5,288.6z"/>
	</g>
	<g>
		<path class="st101" d="M331.1,284.4c-2.4,0-4.9,0-7.4,0C325.1,286.2,329.7,285.9,331.1,284.4z"/>
	</g>
	<g>
		<path class="st102" d="M434,284.4c-2.4,0-4.9,0-7.4,0C428,286.2,432.6,285.9,434,284.4z"/>
	</g>
	<g>
		<path class="st103" d="M96.9,342.1c0,0,0-1.1,0-1.1c-0.7-14.2,1.4-29.7-1.1-43.1C96.5,312.6,94.5,328.4,96.9,342.1z"/>
	</g>
	<g>
		<path class="st104" d="M334.2,301.2c1.3-4.3-10-1.1-13.7-2.1C324,302.1,330.8,298.2,334.2,301.2z"/>
	</g>
	<g>
		<path class="st105" d="M422.5,301.2c0,0,1.1,0,1.1,0c3-3,9.5,0.8,12.6-2.1C432,300.1,424.1,296.7,422.5,301.2z"/>
	</g>
	<g>
		<path class="st106" d="M407.8,311.7c1.8-2.3,1.6-8.1,0-10.5C407.8,304.7,407.8,308.2,407.8,311.7z"/>
	</g>
	<g>
		<path class="st107" d="M422.5,312.7c2.4-2.8,0.4-7.9,1.1-11.6c0,0-1.1,0-1.1,0C422.5,305,422.5,308.9,422.5,312.7z"/>
	</g>
	<g>
		<path class="st108" d="M350,309.6c0-2.1,0-4.2,0-6.3C348.2,304.3,348.5,308.5,350,309.6z"/>
	</g>
	<g>
		<path class="st109" d="M360.5,329.5c-3.5-3.9-6.8-8.4-9.5-12.6C352,322.2,356.2,326.3,360.5,329.5z"/>
	</g>
	<g>
		<path class="st110" d="M397.3,329.5c2.8-1.6,5.1-4.4,6.3-7.4C401.1,324,399.5,327.1,397.3,329.5z"/>
	</g>
	<g>
		<path class="st111" d="M111.6,327.4c18.4-0.7,38.1,1.4,55.7-1.1c0,0-0.5,0-1.1,0c-18.2,0-36.4,0-54.6,0    C111.6,326.4,111.5,327.4,111.6,327.4z"/>
	</g>
	<g>
		<path class="st112" d="M367.9,333.7c-1-1.8-3.6-1.9-5.3-3.2C363.3,332.7,365.9,333.4,367.9,333.7z"/>
	</g>
	<g>
		<path class="st113" d="M387.8,333.7c1.2,2.1,4.5-0.5,5.3-2.1C391.3,332.2,389.8,333.8,387.8,333.7z"/>
	</g>
	<g>
		<path class="st114" d="M406.7,341.1c3.1-2.2,6.1-5.3,8.4-8.4C412,334.9,409,338,406.7,341.1z"/>
	</g>
	<g>
		<path class="st115" d="M351,341.1c-1.8-2.8-4.6-5.4-7.4-7.4C345.5,336.5,348.3,339.1,351,341.1z"/>
	</g>
	<g>
		<path class="st116" d="M376.3,335.8c-0.8-2-3.6-0.6-5.3-1.1C371.8,336.8,374.6,335.4,376.3,335.8z"/>
	</g>
	<g>
		<path class="st117" d="M381.5,335.8c1.3-0.3,3.6,0.6,4.2-1.1C384.4,335.1,382.1,334.1,381.5,335.8z"/>
	</g>
	<g>
		<path class="st118" d="M96.9,342.1c28.2-0.7,57.7,1.4,85.1-1.1c-28.4,0-56.7,0-85.1,0C96.9,341.1,96.8,342.1,96.9,342.1z"/>
	</g>
	<g>
		<path class="st119" d="M384.7,350.5c1.3-0.3,3.6,0.6,4.2-1.1C387.5,349.8,385.2,348.8,384.7,350.5z"/>
	</g>
	<g>
		<path class="st120" d="M26.5,378.9c-2.3-2.8-4.9-5.9-7.4-8.4C20.5,373.9,23.5,376.7,26.5,378.9z"/>
	</g>
	<g>
		<path class="st121" d="M485.5,378.9c2.1-1.1,3.9-3.2,5.3-5.3C488.6,374.8,486.8,376.9,485.5,378.9z"/>
	</g>
	<g>
		<path class="st122" d="M493.9,391.5c4.2-3.6,9.1-7.5,11.6-12.6C501.9,383,497.4,387.1,493.9,391.5z"/>
	</g>
	<g>
		<path class="st123" d="M19.2,392.5c-3.3-4.2-7.4-8.2-11.6-11.6C10.9,385.6,14.5,389.2,19.2,392.5z"/>
	</g>
	<g>
		<path class="st124" d="M472.9,383.1c-144.6,0-289.2,0-433.8,0C182.5,384.8,329.4,384.8,472.9,383.1z"/>
	</g>
	<g>
		<path class="st125" d="M36,398.8c1.4,0,2.8,0,4.2,0c0.2-0.1,0-1.1,0-1.1C38.9,398.1,36.5,397.2,36,398.8z"/>
	</g>
	<g>
		<path class="st126" d="M40.2,398.8c21.4,0,42.7,0,64.1,0c-20.3-2.4-42.9-0.3-64.1-1.1C40.2,397.8,40.4,398.7,40.2,398.8z"/>
	</g>
	<g>
		<path class="st127" d="M125.2,398.8c0.1,0.2,1.1,0,1.1,0c85.1,0,170.1,0,255.2,0c-0.9,2.1-3.4,3.1-4.2,5.3    c2.1-1.4,5.1-3.5,5.3-6.3C296.9,398.5,210.1,396.4,125.2,398.8z"/>
	</g>
	<g>
		<path class="st128" d="M403.6,398.8c22.8,0,45.5,0,68.3,0C450.3,397.1,425.2,397.1,403.6,398.8z"/>
	</g>
	<g>
		<path class="st129" d="M105.3,400.9c3.1,2.3,6.2,5.3,8.4,8.4c0.1,1,1.3,1.2,2.1,1.1c-3.3-4.2-7.4-8.2-11.6-11.6    C104.4,399.5,104.1,400.9,105.3,400.9z"/>
	</g>
	<g>
		<path class="st130" d="M131.5,405.1c-0.3-1.3-1.9-1.8-2.1-3.2c-1.3-0.7-2.7-1.7-3.2-3.2c0,0-1,0.2-1.1,0    C126.7,401.3,129.2,403.5,131.5,405.1z"/>
	</g>
	<g>
		<path class="st12" d="M129.4,402c1.6,1,3.4,2.4,4.2,4.2c1.6,1,3.4,2.4,4.2,4.2c26.4,19,56.8,33.4,89.3,37.8c1.6,0.4,4.4-1,5.3,1.1    c1.1,0,2.1,0,3.2,0c2.8,0,5.6,0,8.4,0c6.6,0,13.3,0,20,0c2.4,0,4.9,0,7.4,0c1.8,0,3.5,0,5.3,0c0.6-1.7,2.9-0.8,4.2-1.1    c35.7-5.1,68.7-21.1,96.6-44.1c0.8-2.1,3.4-3.1,4.2-5.3c-85.1,0-170.1,0-255.2,0C126.7,400.3,128.2,401.3,129.4,402z"/>
	</g>
	<g>
		<path class="st131" d="M393.1,409.3c4.6-2.3,7.1-6.7,10.5-10.5C399.7,401.7,396.1,405.5,393.1,409.3z"/>
	</g>
	<g>
		<path class="st132" d="M113.7,409.3c-2.2-3.1-5.3-6.1-8.4-8.4C107.5,404.1,110.6,407,113.7,409.3z"/>
	</g>
	<g>
		<path class="st133" d="M131.5,405.1c0.9-0.1,1.3,0.9,2.1,1.1c-0.8-1.8-2.6-3.2-4.2-4.2C129.6,403.3,131.2,403.8,131.5,405.1z"/>
	</g>
	<g>
		<path class="st134" d="M137.8,410.4c-0.8-1.8-2.6-3.2-4.2-4.2C134.4,408,136.2,409.4,137.8,410.4z"/>
	</g>
	<g>
		<path class="st135" d="M384.7,417.7c3.1-2.2,6.1-5.3,8.4-8.4C389.9,411.5,387,414.6,384.7,417.7z"/>
	</g>
	<g>
		<path class="st136" d="M125.2,418.8c-0.7-1.5-2.3-3.4-4.2-3.2C121.7,417.2,123.4,419,125.2,418.8z"/>
	</g>
	<g>
		<path class="st137" d="M134.7,426.1c-0.9-1.5-2.9-1.9-4.2-3.2C131.2,424.5,132.8,426.4,134.7,426.1z"/>
	</g>
	<g>
		<path class="st138" d="M232.4,449.3c-0.8-2-3.6-0.6-5.3-1.1C227.9,450.2,230.7,448.8,232.4,449.3z"/>
	</g>
	<g>
		<path class="st139" d="M276.5,449.3c1.3-0.3,3.6,0.6,4.2-1.1C279.4,448.5,277,447.6,276.5,449.3z"/>
	</g>
	<g>
		<path class="st140" d="M243.9,450.3c0,0,0-1.1,0-1.1c-2.8,0-5.6,0-8.4,0C237.3,451.6,241.3,449.7,243.9,450.3z"/>
	</g>
	<g>
		<path class="st141" d="M243.9,450.3c6.6,0,13.3,0,20,0c0,0,0-1.1,0-1.1c-6.6,0-13.3,0-20,0C243.9,449.3,243.9,450.3,243.9,450.3z"/>
	</g>
	<g>
		<path class="st142" d="M263.9,450.3c2.3-0.5,5.8,1,7.4-1.1c-2.4,0-4.9,0-7.4,0C263.9,449.3,263.9,450.3,263.9,450.3z"/>
	</g>
	<g>
		<path class="st143" d="M212.4,461.9c1.4,0,2.8,0,4.2,0C216.2,460.2,212.9,460.4,212.4,461.9z"/>
	</g>
	<g>
		<path class="st144" d="M228.2,464c-0.5-1.8-2.9-0.8-4.2-1.1C224.5,464.8,226.8,463.7,228.2,464z"/>
	</g>
	<g>
		<path class="st145" d="M277.5,464c2-0.4,5.1,0.9,6.3-1.1C281.9,463.3,278.7,462,277.5,464z"/>
	</g>
	<g>
		<path class="st146" d="M238.7,465c-1.4-2.2-5.1-0.5-7.4-1.1C232.8,466.2,236.4,464.5,238.7,465z"/>
	</g>
	<g>
		<path class="st147" d="M266,465c1.4,0,2.8,0,4.2,0c0.2-0.1,0-1.1,0-1.1C268.9,464.2,266.5,463.3,266,465z"/>
	</g>
	<g>
		<path class="st148" d="M270.2,465c2-0.4,5.1,0.9,6.3-1.1c-2.1,0-4.2,0-6.3,0C270.2,464,270.4,464.9,270.2,465z"/>
	</g>
	<g>
		<path class="st149" d="M260.7,465c-4.5,0-9.1,0-13.7,0C250.4,466.8,257.3,466.7,260.7,465z"/>
	</g>
	<g>
		<path class="st150" d="M245,47c6,0,11.9,0,17.9,0C258.1,45.2,249.8,45.3,245,47z"/>
	</g>
	<g>
		<path class="st151" d="M227.1,48.1c-0.6,1.7-2.9,0.8-4.2,1.1c-22.7,2.4-44,10.4-64.1,21c-1.5,2.5-4.7,3.6-7.4,4.2    c-4.7,2.6-9.2,5.3-13.7,8.4c-1.6,3.1-4.7,4.5-7.4,6.3c0,0-0.6-0.2-1.1,0c-1,1.6-2.4,3.4-4.2,4.2c-0.7,0.2-2.1-0.1-2.1,1.1    c-1,1.6-2.4,3.4-4.2,4.2c-1.1,0.1-1.7,1.2-2.1,2.1c-7.4,12.5-19.7,16-33.6,13.7c-15.2-0.7-31.8,1.4-46.2-1.1    c-7.5,1.3-15.9,3.5-21,9.5c-2.3,3.1-5.3,6.2-8.4,8.4c-3.8,5.5-6.6,12-6.3,18.9c0,70.7,0,141.4,0,212.1c-0.3,7,2.5,13.3,6.3,18.9    c4.2,3.4,8.3,7.4,11.6,11.6c5.4,2.7,10.8,5.7,16.8,6.3c0.6-1.7,2.9-0.8,4.2-1.1c21.2,0.7,43.8-1.4,64.1,1.1    c4.2,3.4,8.3,7.4,11.6,11.6c1.1,2.1,3.2,3.9,5.3,5.3c1.9-0.2,3.5,1.6,4.2,3.2c1.1,1.8,2.9,4.3,5.3,4.2c1.3,1.2,3.3,1.7,4.2,3.2    c22.2,18.3,50.2,28.7,77.7,35.7c0.5-1.4,3.8-1.6,4.2,0c2.2,1.5,4.8,1,7.4,1.1c1.3,0.3,3.7-0.8,4.2,1.1c1.1,0,2.1,0,3.2,0    c2.3,0.5,5.9-1.2,7.4,1.1c2.8,0,5.6,0,8.4,0c4.5,0,9.1,0,13.7,0c1.8,0,3.5,0,5.3,0c0.6-1.7,2.9-0.8,4.2-1.1c2.1,0,4.2,0,6.3,0    c0,0,0.5-0.1,1.1,0c1.2-2,4.3-0.6,6.3-1.1c37.3-4.1,71.8-21.3,100.8-45.2c2.3-3.1,5.3-6.2,8.4-8.4c3-3.8,6.7-7.6,10.5-10.5    c21.6-1.7,46.7-1.8,68.3,0c8.1,0.2,15.6-2.8,22.1-7.4c3.5-4.4,8.1-8.5,11.6-12.6c3.5-6.1,6.1-12.6,5.3-20c0-68.6,0-137.2,0-205.8    c0.9-9.1-3-17.5-8.4-24.2c-3.1-2.3-6.2-5.3-8.4-8.4c0,0-0.6,0.1-1.1,0c-1.4-1-3.7-1.1-4.2-3.2c-5.2-2.7-10.8-4.4-16.8-4.2    c-21.6,1.7-46.7,1.8-68.3,0c-5.2-4.4-10.4-9.5-14.7-14.7c-1.6-1-3.4-2.4-4.2-4.2c0,0-0.6,0.2-1.1,0c-1.6-1-3.4-2.4-4.2-4.2    c0,0-0.6,0.2-1.1,0c-1.3-0.3-1.8-1.9-3.2-2.1c-2.9-2.9-7.1-4.2-9.5-7.4c-10-7.4-21.7-14-33.6-17.9c-1.9-0.3-4.5-1.1-5.3-3.2    c-12.5-4.1-24.9-8.1-37.8-10.5c-0.5,1.4-3.8,1.6-4.2,0c-1.8-2.3-5.8-0.5-8.4-1.1c-2.3-0.5-5.9,1.2-7.4-1.1c-2.1,0-4.2,0-6.3,0    c-6,0-11.9,0-17.9,0c-1.1,0-2.1,0-3.2,0c-0.6,1.7-2.9,0.8-4.2,1.1c-1.3-0.3-3.7,0.8-4.2-1.1C231.2,47.2,229.5,48.7,227.1,48.1     M272.3,62.8c1.4,0,2.8,0,4.2,0c1.3,0.3,3.7-0.8,4.2,1.1c35.2,4.8,67.9,21.1,95.6,43.1c2.4,2,5.9,4.1,6.3,7.4    c-85.6-0.7-172.6,1.4-257.3-1.1c1.3-2,3.2-4.1,5.3-5.3c1.3-0.3,1.8-1.9,3.2-2.1c27.7-22.9,61-38.3,96.6-42    c0.6-1.7,2.9-0.8,4.2-1.1c0.5,0.1,1.1,0,1.1,0c1.5-2.1,5-0.6,7.4-1.1c7.7,0,15.4,0,23.1,0C268,62.2,271.2,60.6,272.3,62.8     M473.9,128.9c10.1,0.7,19.5,10.2,21,20c1.8,70.3,1.8,144,0,214.3c0.1,4-2.9,7-4.2,10.5c-1.3,2-3.2,4.1-5.3,5.3    c-4.1,1.8-7.7,5-12.6,4.2c-143.5,1.8-290.4,1.8-433.8,0c-4.9,0.9-8.5-2.5-12.6-4.2c-3.1-2.2-6-4.9-7.4-8.4    c-7-21.8-1.3-47.1-3.2-70.4c0-49.4,0-98.7,0-148.1c0.3-1.3-0.8-3.7,1.1-4.2c-0.3-3.2,2.1-5.6,3.2-8.4c1.6-2.4,3.9-4.8,6.3-6.3    c4.1-1.8,7.7-5,12.6-4.2C182.9,127.2,330.2,127.2,473.9,128.9 M377.3,404.1c-28,23-61,39-96.6,44.1c-0.6,1.7-2.9,0.8-4.2,1.1    c-1.8,0-3.5,0-5.3,0c-1.5,2.1-5,0.6-7.4,1.1c-6.6,0-13.3,0-20,0c-2.6-0.6-6.6,1.2-8.4-1.1c-1.1,0-2.1,0-3.2,0    c-1.6-0.4-4.4,1-5.3-1.1c-32.5-4.4-62.8-18.8-89.3-37.8c-1.6-1-3.4-2.4-4.2-4.2c-0.8-0.1-1.2-1.1-2.1-1.1    c-2.4-1.6-4.8-3.9-6.3-6.3c84.8-2.4,171.7-0.3,257.3-1.1C382.4,400.6,379.4,402.6,377.3,404.1z"/>
	</g>
	<g>
		<path class="st152" d="M237.6,48.1c-0.2-0.1,0-1.1,0-1.1c-1.4,0-2.8,0-4.2,0C233.9,48.9,236.3,47.8,237.6,48.1z"/>
	</g>
	<g>
		<path class="st153" d="M237.6,48.1c1.3-0.3,3.6,0.6,4.2-1.1c-1.4,0-2.8,0-4.2,0C237.6,47,237.4,48,237.6,48.1z"/>
	</g>
	<g>
		<path class="st154" d="M276.5,48.1c-1.4-2.2-5.1-0.5-7.4-1.1C270.6,49.3,274.2,47.5,276.5,48.1z"/>
	</g>
	<g>
		<path class="st155" d="M222.9,49.1c1.3-0.3,3.6,0.6,4.2-1.1C225.8,48.4,223.5,47.4,222.9,49.1z"/>
	</g>
	<g>
		<path class="st156" d="M289.1,49.1c-1.4,0-2.8,0-4.2,0C285.3,50.8,288.6,50.5,289.1,49.1z"/>
	</g>
	<g>
		<path class="st157" d="M332.1,62.8c-1-1.8-3.6-1.9-5.3-3.2C327.6,61.7,330.2,62.5,332.1,62.8z"/>
	</g>
	<g>
		<path class="st158" d="M235.5,62.8c2.4,0,4.9,0,7.4,0c0.1,0,0-1.1,0-1.1C240.6,62.2,237,60.7,235.5,62.8z"/>
	</g>
	<g>
		<path class="st159" d="M242.9,62.8c7.7,0,15.4,0,23.1,0c-0.1,0,0-1.1,0-1.1c-7.7,0-15.4,0-23.1,0    C242.9,61.7,242.9,62.8,242.9,62.8z"/>
	</g>
	<g>
		<path class="st160" d="M266,62.8c2.1,0,4.2,0,6.3,0c-1.1-2.2-4.3-0.6-6.3-1.1C266,61.7,265.9,62.7,266,62.8z"/>
	</g>
	<g>
		<path class="st161" d="M230.3,63.8c1.3-0.3,3.7,0.8,4.2-1.1C233.2,63.1,230.8,62.1,230.3,63.8z"/>
	</g>
	<g>
		<path class="st162" d="M230.3,63.8c-35.6,3.7-68.9,19.1-96.6,42c-1,1.6-2.4,3.4-4.2,4.2c-1.3,0.7-2.7,1.7-3.2,3.2    c85.1,0,170.1,0,255.2,0c-1.2-2.5-4.2-3.8-5.3-6.3c-27.7-22-60.4-38.3-95.6-43.1c-1.3-0.3-3.7,0.8-4.2-1.1c-1.4,0-2.8,0-4.2,0    c-2.1,0-4.2,0-6.3,0c-7.7,0-15.4,0-23.1,0c-2.4,0-4.9,0-7.4,0c0,0-0.5,0.1-1.1,0C233.9,64.6,231.6,63.5,230.3,63.8z"/>
	</g>
	<g>
		<path class="st163" d="M280.7,63.8c-0.5-1.8-2.9-0.8-4.2-1.1C277,64.6,279.3,63.5,280.7,63.8z"/>
	</g>
	<g>
		<path class="st164" d="M151.5,74.3c2.7-0.6,5.9-1.7,7.4-4.2C156.4,71.5,153.4,72.3,151.5,74.3z"/>
	</g>
	<g>
		<path class="st165" d="M375.2,88c-0.1-0.8-1.1-1.2-1.1-2.1c-2.8-1.7-5.3-3.9-8.4-5.3C368.1,83.8,372.3,85.1,375.2,88z"/>
	</g>
	<g>
		<path class="st166" d="M130.5,89c2.6-1.8,5.8-3.2,7.4-6.3C135.5,84.9,132.1,86.1,130.5,89z"/>
	</g>
	<g>
		<path class="st167" d="M375.2,88c1.4,0.2,1.8,1.8,3.2,2.1c-0.8-1.8-2.6-3.2-4.2-4.2C374.1,86.8,375.1,87.1,375.2,88z"/>
	</g>
	<g>
		<path class="st168" d="M125.2,93.2c1.8-0.8,3.2-2.6,4.2-4.2C127.7,89.8,126.3,91.6,125.2,93.2z"/>
	</g>
	<g>
		<path class="st169" d="M383.6,94.3c-0.8-1.8-2.6-3.2-4.2-4.2C380.2,91.8,382,93.3,383.6,94.3z"/>
	</g>
	<g>
		<path class="st170" d="M118.9,98.5c1.8-0.8,3.2-2.6,4.2-4.2C121.4,95.1,120,96.8,118.9,98.5z"/>
	</g>
	<g>
		<path class="st171" d="M388.9,98.5c-0.8-1.8-2.6-3.2-4.2-4.2C385.4,96,387.2,97.5,388.9,98.5z"/>
	</g>
	<g>
		<path class="st172" d="M403.6,113.2c-4.2-5.7-9-10.4-14.7-14.7C393.2,103.7,398.3,108.8,403.6,113.2z"/>
	</g>
	<g>
		<path class="st173" d="M113.7,102.7c-2,2.8-4.6,5.5-7.4,7.4c-8.4,6.8-22.7,1.4-33.6,3.2c-11.9,0-23.8,0-35.7,0    c14.4,2.4,31,0.3,46.2,1.1c13.9,2.4,26.2-1.2,33.6-13.7C115.8,101.2,114.3,101.6,113.7,102.7z"/>
	</g>
	<g>
		<path class="st174" d="M106.3,110c2.8-1.8,5.4-4.6,7.4-7.4C110.9,104.5,108.3,107.3,106.3,110z"/>
	</g>
	<g>
		<path class="st175" d="M130.5,107.9c-0.1,0.8-1.1,1.2-1.1,2.1c1.8-0.8,3.2-2.6,4.2-4.2C132.3,106,131.8,107.6,130.5,107.9z"/>
	</g>
	<g>
		<path class="st176" d="M126.3,113.2c-0.5,0-1.1,0-1.1,0c84.7,2.4,171.7,0.3,257.3,1.1c-0.4-3.3-3.9-5.4-6.3-7.4    c1.1,2.5,4.1,3.8,5.3,6.3C296.4,113.2,211.4,113.2,126.3,113.2z"/>
	</g>
	<g>
		<path class="st177" d="M125.2,113.2c0,0,0.5,0,1.1,0c0.4-1.4,1.9-2.4,3.2-3.2c-0.1-0.9,0.9-1.3,1.1-2.1    C128.4,109.1,126.6,111.1,125.2,113.2z"/>
	</g>
	<g>
		<path class="st178" d="M471.8,113.2c-22.8,0-45.5,0-68.3,0C425.1,114.9,450.2,114.9,471.8,113.2z"/>
	</g>
	<g>
		<path class="st179" d="M492.8,120.5c-0.5-2-2.8-2.1-4.2-3.2C489.1,119.4,491.4,119.5,492.8,120.5z"/>
	</g>
	<g>
		<path class="st180" d="M502.3,128.9c-2.2-3.1-5.3-6.1-8.4-8.4C496.1,123.7,499.2,126.6,502.3,128.9z"/>
	</g>
	<g>
		<path class="st181" d="M7.6,131c3.1-2.2,6.1-5.3,8.4-8.4C12.4,124.5,10.3,127.8,7.6,131z"/>
	</g>
	<g>
		<path class="st182" d="M39.1,128.9c144.9,0,289.9,0,434.8,0C330.2,127.2,182.9,127.2,39.1,128.9z"/>
	</g>
	<g>
		<path class="st183" d="M26.5,133.1c-1.6,2.4-3.9,4.8-6.3,6.3c-1.1,2.8-3.5,5.2-3.2,8.4c-0.3,1.3,0.8,3.7-1.1,4.2    c0,49.4,0,98.7,0,148.1c1.8,23.2-3.8,48.5,3.2,70.4c2.5,2.5,5.1,5.6,7.4,8.4c4.1,1.7,7.7,5.1,12.6,4.2c144.6,0,289.2,0,433.8,0    c4.9,0.8,8.5-2.4,12.6-4.2c1.3-2,3.2-4.1,5.3-5.3c1.3-3.5,4.3-6.5,4.2-10.5c0-71.4,0-142.8,0-214.3c-1.5-9.8-10.9-19.3-21-20    c-144.9,0-289.9,0-434.8,0C34.2,128.1,30.6,131.4,26.5,133.1 M386.8,160.4c7.3,0.9,13.8,4.9,20,8.4c3.9,2.7,7.1,6.5,9.5,10.5    c2.8,5.9,6.3,11.9,6.3,18.9c3.4,2.9-1.9,11.4,3.2,12.6c3.2,0,6.3,0,9.5,0c1.3,0.3,3.7-0.8,4.2,1.1c6.8,1.4,13,4.8,18.9,8.4    c2.8,2,5.5,4.6,7.4,7.4c3.8,6.7,8.3,13.8,8.4,22.1c1.6,2.4,1.8,8.2,0,10.5c-0.3,8.1-3.9,15.5-8.4,22.1c-2.3,3.1-5.3,6.2-8.4,8.4    c-6.5,4.2-13.3,7.5-21,8.4c-3.1,2.9-9.6-0.9-12.6,2.1c-0.7,3.7,1.3,8.7-1.1,11.6c-0.2,7.3-4.3,13.5-7.4,20    c-2.3,3.1-5.3,6.2-8.4,8.4c-5.4,4.1-11.3,7-17.9,8.4c-0.6,1.7-2.9,0.8-4.2,1.1c-12.3,1-24.1-2-33.6-9.5c-2.8-2-5.5-4.6-7.4-7.4    c-7.3-9.2-10.2-20.6-9.5-32.6c-3.4-3-10.3,0.9-13.7-2.1c-8.1-1.1-15.2-5.2-22.1-9.5c-2.4-1.6-4.8-3.9-6.3-6.3    c-6.3-9.8-10.8-21.2-9.5-33.6c0.3-1.3-0.8-3.7,1.1-4.2c1.5-6,3.9-11.6,7.4-16.8c2.3-3.1,5.3-6.2,8.4-8.4c10-7.3,22-10.4,34.7-9.5    c0-3.9,0-7.7,0-11.6c0.3-1.3-0.8-3.7,1.1-4.2c1.6-6.7,4.5-13.2,8.4-18.9c2-2.8,4.6-5.5,7.4-7.4c6.9-3.5,13.7-8.5,22.1-8.4    C376.5,158.8,383.4,158.6,386.8,160.4 M183,211.9c14.2,0.7,29.7-1.4,43.1,1.1c1.7,27.2,1.8,57.9,0,85.1c-14.7,0-29.4,0-44.1,0    c0,14.4,0,28.7,0,43.1c-27.4,2.4-56.9,0.3-85.1,1.1c-2.4-13.7-0.4-29.6-1.1-44.1c-14.4,0-28.7,0-43.1,0    c-2.4-27.4-0.3-56.9-1.1-85.1c13.7-2.4,29.6-0.4,44.1-1.1c0-14.4,0-28.7,0-43.1c27.7-1.9,58.2-1.4,86.4-0.2    C184.1,182.5,182.5,197.5,183,211.9z"/>
	</g>
	<g>
		<path class="st184" d="M20.2,139.4c2.4-1.5,4.7-3.9,6.3-6.3C24.1,134.6,21.9,137,20.2,139.4z"/>
	</g>
	<g>
		<path class="st185" d="M16,152c1.8-0.5,0.8-2.9,1.1-4.2C15.2,148.4,16.3,150.7,16,152z"/>
	</g>
	<g>
		<path class="st186" d="M494.9,363.1c1.8-70.2,1.8-144,0-214.3C494.9,220.3,494.9,291.7,494.9,363.1z"/>
	</g>
	<g>
		<path class="st187" d="M1.3,362.1c0-70.7,0-141.4,0-212.1C-0.4,219.5-0.4,292.5,1.3,362.1z"/>
	</g>
	<g>
		<path class="st188" d="M510.7,358.9c1.8-67.4,1.8-138.3,0-205.8C510.7,221.7,510.7,290.3,510.7,358.9z"/>
	</g>
	<g>
		<path class="st189" d="M373.1,160.4c4.5,0,9.1,0,13.7,0C383.4,158.6,376.5,158.8,373.1,160.4z"/>
	</g>
	<g>
		<path class="st151" d="M351,168.8c-2,2.8-4.6,5.5-7.4,7.4c-3.9,5.7-6.8,12.2-8.4,18.9c-0.3,1.3,0.8,3.7-1.1,4.2    c0,3.9,0,7.7,0,11.6c-12.7-1-24.7,2.2-34.7,9.5c-2.3,3.1-5.3,6.2-8.4,8.4c-3.4,5.2-5.9,10.8-7.4,16.8c-0.3,1.3,0.8,3.7-1.1,4.2    c-1.3,12.4,3.2,23.8,9.5,33.6c2.4,1.6,4.8,3.9,6.3,6.3c6.9,4.3,13.9,8.4,22.1,9.5c3.7,1,15-2.2,13.7,2.1    c-0.7,11.9,2.2,23.3,9.5,32.6c2.8,2,5.5,4.6,7.4,7.4c9.5,7.4,21.3,10.5,33.6,9.5c0.6-1.7,2.9-0.8,4.2-1.1    c6.6-1.4,12.5-4.3,17.9-8.4c2.3-3.1,5.3-6.2,8.4-8.4c3.1-6.4,7.1-12.6,7.4-20c0-3.9,0-7.7,0-11.6c1.6-4.4,9.5-1,13.7-2.1    c7.7-0.9,14.5-4.2,21-8.4c2.3-3.1,5.3-6.2,8.4-8.4c4.5-6.5,8.1-13.9,8.4-22.1c0-3.5,0-7,0-10.5c-0.1-8.3-4.6-15.3-8.4-22.1    c-2.8-2-5.5-4.6-7.4-7.4c-5.9-3.6-12.1-7-18.9-8.4c-1.3-0.3-3.7,0.8-4.2-1.1c-3.2,0-6.3,0-9.5,0c-0.3,1.5-2.2,0.8-3.2,1.1    c0-4.5,0-9.1,0-13.7c0-7-3.5-13-6.3-18.9c-3.5-3-6.3-7-9.5-10.5c-6.2-3.5-12.6-7.5-20-8.4c-4.5,0-9.1,0-13.7,0    C364.7,160.3,358,165.3,351,168.8 M383.6,175.1c3.9,1.4,7.6,3,11.6,4.2c0.8,0.1,1.2,1.1,2.1,1.1c2,1.3,4.1,3.2,5.3,5.3    c0.2,0.4,0,1.1,0,1.1c1.4,3.5,4.3,6.5,4.2,10.5c3.3,1.7,2.7,8.2,1.1,10.5c-0.7,4.9-2.9,9.3-5.3,13.7c-0.2,2.8-3.2,4.9-5.3,6.3    c-0.4,0.2-1.1,0-1.1,0c-0.8,0.1-1.2,1.1-2.1,1.1c-0.9,2-3.2,2.9-5.3,3.2c-1.6-0.4-2.8,0.5-4.2,1.1c-2.7,1.6-8.9,1.8-11.6,0    c-4.4-1.7-8.8-3.4-12.6-6.3c-1.2,1.3-6.7-4.1-5.3-5.3c-2.5-4.3-4.9-8.6-5.3-13.7c-1.5-1.4-1.8-6,0-7.4c-0.7-2,1.3-3.3,1.1-5.3    c-1.2-1.4,1.2-5.4,3.2-6.3c0.2-0.5,0-1.1,0-1.1c1.5-3.7,4.7-7,8.4-8.4c3.5-1.1,7.4-2.9,10.5-4.2    C375.5,173.5,381.3,173.3,383.6,175.1 M333.2,226.6c3.4,1.7,7.2,2.1,10.5,4.2c4.2,1.5,8.6,6,9.5,10.5c1.6,2.2,1.1,5.7,3.2,7.4    c1.6,2.4,1.8,8.2,0,10.5c-0.2,5-3.2,9.2-5.3,13.7c-2.3,2.7-4.8,6.7-8.4,7.4c-0.4,0.1-0.8,0.7-1.1,1.1c-1.1,1.5-3.3,2.3-5.3,2.1    c-1.9-0.2-3.6,0.1-5.3,1.1c-1.4,1.5-6,1.8-7.4,0c-4.8-1.2-9.3-3.1-13.7-5.3c-0.5-0.1-1.1,0-1.1,0c-2-1.3-4.1-3.2-5.3-5.3    c-0.6-1.5-2.5-2.3-2.1-4.2c-0.6-3.6-3.3-6.6-3.2-10.5c-1.5-1.4-1.8-6,0-7.4c0.3-5.3,3.3-10,5.3-14.7c1.3-2,3.2-4.1,5.3-5.3    c4.7-2,9.2-5.2,14.7-5.3C325.8,225,331.2,224.8,333.2,226.6 M434,226.6c4.6,0.1,8.5,2.8,12.6,4.2c2.2,1,7.6,4.1,6.3,6.3    c2.2,3.6,5.1,7.2,5.3,11.6c3.3,1.7,2.7,8.2,1.1,10.5c-1.2,4.4-2.3,9-5.3,12.6c0.9,2.2-4.3,5.6-6.3,7.4c-0.4,0.2-1.1,0-1.1,0    c-0.5,1.4-3.4,3.8-4.2,2.1c-2.5,2-5.7,1.7-8.4,3.2c-1.4,1.5-6,1.8-7.4,0c-4.6-1.6-9.4-2.6-13.7-5.3c-0.5-0.2-1.1,0-1.1,0    c-2-1.3-4.1-3.2-5.3-5.3c-0.1-0.8-1.1-1.2-1.1-2.1c-2.3-5.4-5.6-12-4.2-17.9c-1.5-0.8-1.7-4.5,0-5.3c1.1-4.2,3.9-7.6,5.3-11.6    c1.3-2,3.2-4.1,5.3-5.3c4.8-1.7,9.1-5.8,14.7-5.3C428.1,225.1,432.7,224.8,434,226.6 M389.9,279.1c2.5,0.3,5.3,1.8,6.3,4.2    c0.4,0.2,1.1,0,1.1,0c2,1.3,4.1,3.2,5.3,5.3c1.9,4.1,3.8,8.2,5.3,12.6c1.6,2.4,1.8,8.2,0,10.5c-1.3,3.6-2.8,7-4.2,10.5    c-1.2,3-3.5,5.7-6.3,7.4c-1.9-0.6-2.6,1.8-4.2,2.1c-0.7,1.6-4.1,4.2-5.3,2.1c-0.8,0.1-1.2,1.1-2.1,1.1c-0.6,1.7-2.9,0.8-4.2,1.1    c-1.8,0-3.5,0-5.3,0c-1.6-0.4-4.4,1-5.3-1.1c-0.3-1.5-2.2-0.8-3.2-1.1c-1.9-0.3-4.5-1.1-5.3-3.2c0-1.2-1.4-0.9-2.1-1.1    c-4.3-3.2-8.5-7.3-9.5-12.6c0.3-2.6-1.7-4.6-1.1-7.4c-1.5-1.1-1.8-5.3,0-6.3c-0.3-5.5,3.1-9.9,5.3-14.7c1.3-2,3.2-4.1,5.3-5.3    C369.3,277.5,379.9,275.4,389.9,279.1z"/>
	</g>
	<g>
		<path class="st190" d="M95.8,168.8c0,0,1.1,0,1.1,0c28.4,0,56.7,0,85.1,0c0,14.4,0,28.7,0,43.1c0,0.1,1.1,0,1.1,0    c-0.5-14.3,1.1-29.4-0.8-43.3C154.1,167.4,123.6,166.9,95.8,168.8z"/>
	</g>
	<g>
		<path class="st191" d="M51.7,212.9c0,0,1.1,0,1.1,0c14.7,0,29.4,0,44.1,0c0-14.7,0-29.4,0-44.1c0,0-1.1,0-1.1,0    c0,14.4,0,28.7,0,43.1C81.3,212.6,65.5,210.5,51.7,212.9z"/>
	</g>
	<g>
		<path class="st192" d="M52.8,212.9c0,28.4,0,56.7,0,85.1c14.4,0,28.7,0,43.1,0c2.4,13.4,0.4,28.9,1.1,43.1c28.4,0,56.7,0,85.1,0    c0-14.4,0-28.7,0-43.1c14.7,0,29.4,0,44.1,0c0-28.4,0-56.7,0-85.1c-14.5-0.7-30.4,1.4-44.1-1.1c0-14.4,0-28.7,0-43.1    c-28.4,0-56.7,0-85.1,0c0,14.7,0,29.4,0,44.1C82.2,212.9,67.5,212.9,52.8,212.9 M167.3,226.6c14.5,0.7,30.4-1.4,44.1,1.1    c0,18.2,0,36.4,0,54.6c-13.7,2.4-29.6,0.4-44.1,1.1c0,14.4,0,28.7,0,43.1c-17.6,2.4-37.3,0.4-55.7,1.1    c-2.4-13.7-0.4-29.6-1.1-44.1c-14.4,0-28.7,0-43.1,0c-1.7-17.4-1.8-38.3,0-55.7c13.4-2.4,28.9-0.4,43.1-1.1    c0.7-14.2-1.4-29.7,1.1-43.1c18.2,0,36.4,0,54.6,0C168.6,196.9,166.6,212.4,167.3,226.6z"/>
	</g>
	<g>
		<path class="st193" d="M343.7,176.2c2.8-1.8,5.4-4.6,7.4-7.4C348.3,170.7,345.7,173.4,343.7,176.2z"/>
	</g>
	<g>
		<path class="st194" d="M416.2,179.3c-2.4-4-5.5-7.8-9.5-10.5C409.8,172.3,412.7,176.4,416.2,179.3z"/>
	</g>
	<g>
		<path class="st195" d="M373.1,175.1c3.5,0,7,0,10.5,0C381.3,173.3,375.5,173.5,373.1,175.1z"/>
	</g>
	<g>
		<path class="st196" d="M362.6,179.3c-2.8,2.9-5.4,5.7-8.4,8.4c0,0,0.2,0.6,0,1.1c-1.1,2.1-2.1,4.2-3.2,6.3c0.2,2-1.7,3.2-1.1,5.3    c0,2.4,0,4.9,0,7.4c0.4,5.1,2.8,9.4,5.3,13.7c1.6,1.6,2.9,4.3,5.3,5.3c3.8,2.9,8.2,4.6,12.6,6.3c3.9,0,7.7,0,11.6,0    c1.4-0.6,2.6-1.5,4.2-1.1c1.2-1.6,3.5-2.1,5.3-3.2c0.9,0.1,1.3-0.9,2.1-1.1c1-1.6,2.4-3.4,4.2-4.2c0.4-0.9,1-2,2.1-2.1    c2.4-4.4,4.5-8.8,5.3-13.7c-0.3-3.5,0.9-7.4-1.1-10.5c0.1-4-2.8-7-4.2-10.5c-2.8-2-5.5-4.6-7.4-7.4c-3.9-1.2-7.7-2.8-11.6-4.2    c-3.5,0-7,0-10.5,0C370,176.5,366.1,178.2,362.6,179.3z"/>
	</g>
	<g>
		<path class="st197" d="M354.2,187.7c3-2.7,5.6-5.5,8.4-8.4C358.9,180.8,355.7,184,354.2,187.7z"/>
	</g>
	<g>
		<path class="st198" d="M402.5,186.7c0,0,0.2-0.6,0-1.1c-2-1.3-4.1-3.2-5.3-5.3c-0.9,0.1-1.3-0.9-2.1-1.1    C397,182.1,399.8,184.7,402.5,186.7z"/>
	</g>
	<g>
		<path class="st199" d="M402.5,185.6c-1.1-2.1-3.2-3.9-5.3-5.3C398.4,182.5,400.5,184.3,402.5,185.6z"/>
	</g>
	<g>
		<path class="st200" d="M110.5,226.6c0,0.5,0,1.1,0,1.1c2.4-13.7,0.4-29.6,1.1-44.1C109.1,196.9,111.2,212.4,110.5,226.6z"/>
	</g>
	<g>
		<path class="st196" d="M110.5,227.6c-14.4,0-28.7,0-43.1,0c0,18.2,0,36.4,0,54.6c14.5,0.7,30.4-1.4,44.1,1.1c0,14.4,0,28.7,0,43.1    c18.2,0,36.4,0,54.6,0c0.7-14.5-1.4-30.4,1.1-44.1c14.4,0,28.7,0,43.1,0c0-18.2,0-36.4,0-54.6c-14.4,0-28.7,0-43.1,0    c-2.4-13.7-0.4-29.6-1.1-44.1c-18.2,0-36.4,0-54.6,0C110.9,198.1,113,213.9,110.5,227.6z"/>
	</g>
	<g>
		<path class="st201" d="M167.3,227.6c0,0,0-1.1,0-1.1c-0.7-14.2,1.4-29.7-1.1-43.1C166.9,198.1,164.8,213.9,167.3,227.6z"/>
	</g>
	<g>
		<path class="st202" d="M351,195.1c1.1-2.1,2-4.2,3.2-6.3C352.2,189.7,349.9,193.7,351,195.1z"/>
	</g>
	<g>
		<path class="st203" d="M334.2,199.3c1.8-0.5,0.8-2.9,1.1-4.2C333.4,195.6,334.5,197.9,334.2,199.3z"/>
	</g>
	<g>
		<path class="st204" d="M407.8,207.7c1.6-2.3,2.3-8.8-1.1-10.5C408.6,200.3,407.4,204.2,407.8,207.7z"/>
	</g>
	<g>
		<path class="st205" d="M425.6,210.8c-5.1-1.2,0.2-9.7-3.2-12.6c0,4.5,0,9.1,0,13.7C423.5,211.7,425.3,212.3,425.6,210.8z"/>
	</g>
	<g>
		<path class="st206" d="M350,207.7c0-2.4,0-4.9,0-7.4C348.2,201.7,348.5,206.3,350,207.7z"/>
	</g>
	<g>
		<path class="st207" d="M439.3,211.9c-0.5-1.8-2.9-0.8-4.2-1.1C435.6,212.7,437.9,211.6,439.3,211.9z"/>
	</g>
	<g>
		<path class="st208" d="M226.1,212.9c-13.3-2.4-28.9-0.3-43.1-1.1c0,0-1.1,0.1-1.1,0C195.6,214.3,211.5,212.2,226.1,212.9z"/>
	</g>
	<g>
		<path class="st209" d="M52.8,298c0-28.4,0-56.7,0-85.1c0,0-1.1,0-1.1,0C52.4,241.1,50.3,270.6,52.8,298z"/>
	</g>
	<g>
		<path class="st210" d="M226.1,298c1.8-27.2,1.7-57.8,0-85.1C226.1,241.3,226.1,269.7,226.1,298z"/>
	</g>
	<g>
		<path class="st211" d="M291.2,228.7c3.1-2.2,6.1-5.3,8.4-8.4C296.5,222.5,293.5,225.6,291.2,228.7z"/>
	</g>
	<g>
		<path class="st212" d="M465.5,227.6c-1.8-2.8-4.6-5.4-7.4-7.4C460,223.1,462.8,225.7,465.5,227.6z"/>
	</g>
	<g>
		<path class="st213" d="M360.5,226.6c-2.4-0.9-3.7-3.7-5.3-5.3C353.8,222.5,359.3,227.9,360.5,226.6z"/>
	</g>
	<g>
		<path class="st214" d="M400.4,223.4c-0.6,1.7-2.7,2.4-3.2,4.2c2.1-1.4,5.1-3.5,5.3-6.3C401.4,221.5,400.8,222.6,400.4,223.4z"/>
	</g>
	<g>
		<path class="st215" d="M396.2,227.6c0,0,0.6,0.2,1.1,0c0.5-1.8,2.6-2.5,3.2-4.2C398.6,224.2,397.2,226,396.2,227.6z"/>
	</g>
	<g>
		<path class="st216" d="M323.7,226.6c3.2,0,6.3,0,9.5,0C331.2,224.8,325.8,225,323.7,226.6z"/>
	</g>
	<g>
		<path class="st217" d="M426.7,226.6c2.4,0,4.9,0,7.4,0C432.7,224.8,428.1,225.1,426.7,226.6z"/>
	</g>
	<g>
		<path class="st218" d="M67.5,227.6c14.4,0,28.7,0,43.1,0c0,0,0-0.5,0-1.1C96.4,227.3,80.9,225.2,67.5,227.6z"/>
	</g>
	<g>
		<path class="st219" d="M167.3,227.6c14.4,0,28.7,0,43.1,0c0.5,0,1.1,0,1.1,0c-13.7-2.4-29.6-0.3-44.1-1.1    C167.3,226.6,167.2,227.6,167.3,227.6z"/>
	</g>
	<g>
		<path class="st196" d="M309,231.9c-1.3,2-3.2,4.1-5.3,5.3c-2,4.7-4.9,9.4-5.3,14.7c0,2.4,0,4.9,0,7.4c-0.2,3.9,2.5,6.9,3.2,10.5    c2.2,3.3,6.2,6,8.4,9.5c4.3,2.2,8.9,4,13.7,5.3c2.4,0,4.9,0,7.4,0c1.6-1,3.3-1.3,5.3-1.1c1.2-1.3,3.5-1.7,5.3-2.1    c0.2-0.3,0.7-0.9,1.1-1.1c2.9-1.9,5.3-5.5,8.4-7.4c2-4.5,5.1-8.6,5.3-13.7c0-3.5,0-7,0-10.5c-2.1-1.7-1.5-5.2-3.2-7.4    c-2.6-3.8-5.9-7.6-9.5-10.5c-3.3-2.1-7.1-2.5-10.5-4.2c-3.2,0-6.3,0-9.5,0C318.2,226.6,313.8,229.8,309,231.9z"/>
	</g>
	<g>
		<path class="st196" d="M412,231.9c-1.3,2-3.2,4.1-5.3,5.3c-1.4,3.9-4.2,7.4-5.3,11.6c0,1.8,0,3.5,0,5.3    c-1.4,5.8,1.9,12.4,4.2,17.9c2.8,2,5.5,4.6,7.4,7.4c4.3,2.7,9,3.7,13.7,5.3c2.4,0,4.9,0,7.4,0c2.7-1.4,5.9-1.2,8.4-3.2    c1.4-0.8,2.8-1.4,4.2-2.1c0,0,0.6,0.2,1.1,0c1.5-2.9,4.9-4.5,6.3-7.4c3-3.6,4.1-8.2,5.3-12.6c-0.3-3.5,0.9-7.4-1.1-10.5    c-0.2-4.4-3-8-5.3-11.6c-1.3-2.8-5.1-3.3-6.3-6.3c-4.1-1.4-8-4.1-12.6-4.2c-2.4,0-4.9,0-7.4,0C421,226.1,416.8,230.1,412,231.9z"/>
	</g>
	<g>
		<path class="st220" d="M67.5,283.3c0,0,0-1.1,0-1.1c0-18.2,0-36.4,0-54.6C65.7,245,65.7,265.9,67.5,283.3z"/>
	</g>
	<g>
		<path class="st221" d="M210.3,282.3c0.5,0,1.1,0,1.1,0c0-18.2,0-36.4,0-54.6c0,0-0.5,0-1.1,0C210.3,245.8,210.3,264.1,210.3,282.3    z"/>
	</g>
	<g>
		<path class="st222" d="M388.9,231.9c2-0.2,4.4-1.1,5.3-3.2C392.4,229.7,390.1,230.3,388.9,231.9z"/>
	</g>
	<g>
		<path class="st223" d="M353.1,241.3c-0.9-4.5-5.2-9-9.5-10.5C347.2,233.7,350.6,237.5,353.1,241.3z"/>
	</g>
	<g>
		<path class="st224" d="M452.9,237.1c1.3-2.2-4.1-5.3-6.3-6.3C447.9,233.8,451.7,234.3,452.9,237.1z"/>
	</g>
	<g>
		<path class="st225" d="M303.8,237.1c2.1-1.1,3.9-3.2,5.3-5.3C306.9,233,305.1,235.1,303.8,237.1z"/>
	</g>
	<g>
		<path class="st226" d="M406.7,237.1c2.1-1.1,3.9-3.2,5.3-5.3C409.9,233,408,235.1,406.7,237.1z"/>
	</g>
	<g>
		<path class="st227" d="M384.7,232.9c-3.9,0-7.7,0-11.6,0C375.8,234.7,381.9,234.5,384.7,232.9z"/>
	</g>
	<g>
		<path class="st228" d="M282.8,249.7c1.8-0.5,0.8-2.9,1.1-4.2C282,246,283.1,248.4,282.8,249.7z"/>
	</g>
	<g>
		<path class="st229" d="M356.3,259.2c1.8-2.3,1.6-8.1,0-10.5C356.3,252.2,356.3,255.7,356.3,259.2z"/>
	</g>
	<g>
		<path class="st230" d="M401.5,253.9c0-1.8,0-3.5,0-5.3C399.7,249.4,400,253.1,401.5,253.9z"/>
	</g>
	<g>
		<path class="st231" d="M459.2,259.2c1.6-2.3,2.3-8.8-1.1-10.5C460.1,251.7,458.9,255.6,459.2,259.2z"/>
	</g>
	<g>
		<path class="st232" d="M473.9,260.2c1.8-2.3,1.6-8.1,0-10.5C473.9,253.2,473.9,256.7,473.9,260.2z"/>
	</g>
	<g>
		<path class="st233" d="M298.5,259.2c0-2.4,0-4.9,0-7.4C296.7,253.1,297,257.8,298.5,259.2z"/>
	</g>
	<g>
		<path class="st234" d="M303.8,273.9c2,1.3,4.1,3.2,5.3,5.3c0,0,0.5-0.1,1.1,0c-2.2-3.5-6.2-6.1-8.4-9.5    C301.3,271.6,303.2,272.3,303.8,273.9z"/>
	</g>
	<g>
		<path class="st235" d="M406.7,273.9c2,1.3,4.1,3.2,5.3,5.3c0,0,0.6-0.2,1.1,0c-1.8-2.8-4.6-5.4-7.4-7.4    C405.6,272.7,406.6,273,406.7,273.9z"/>
	</g>
	<g>
		<path class="st236" d="M447.7,279.1c2-1.7,7.2-5.1,6.3-7.4C452.6,274.6,449.2,276.2,447.7,279.1z"/>
	</g>
	<g>
		<path class="st237" d="M342.6,280.2c3.6-0.7,6.1-4.7,8.4-7.4C348,274.7,345.6,278.3,342.6,280.2z"/>
	</g>
	<g>
		<path class="st238" d="M309,279.1c-1.1-2.1-3.2-3.9-5.3-5.3C304.9,276,307,277.8,309,279.1z"/>
	</g>
	<g>
		<path class="st239" d="M412,279.1c-1.1-2.1-3.2-3.9-5.3-5.3C407.9,276,409.9,277.8,412,279.1z"/>
	</g>
	<g>
		<path class="st196" d="M360.5,283.3c-1.3,2-3.2,4.1-5.3,5.3c-2.1,4.8-5.5,9.2-5.3,14.7c0,2.1,0,4.2,0,6.3    c-0.7,2.7,1.4,4.7,1.1,7.4c2.7,4.2,5.9,8.7,9.5,12.6c0.7,0.2,2.1-0.1,2.1,1.1c1.6,1.3,4.2,1.3,5.3,3.2c1,0.2,2.9-0.4,3.2,1.1    c1.6,0.4,4.4-1,5.3,1.1c1.8,0,3.5,0,5.3,0c0.6-1.7,2.9-0.8,4.2-1.1c0.9,0.1,1.3-0.9,2.1-1.1c2,0.1,3.5-1.5,5.3-2.1    c1.6-0.3,2.3-2.7,4.2-2.1c2.2-2.4,3.8-5.5,6.3-7.4c1.4-3.5,2.9-6.9,4.2-10.5c0-3.5,0-7,0-10.5c-1.4-4.4-3.3-8.5-5.3-12.6    c-2-1.3-4.1-3.2-5.3-5.3c0,0-0.7,0.2-1.1,0c-1.9-1.8-4.8-2.3-6.3-4.2C379.9,275.4,369.3,277.5,360.5,283.3z"/>
	</g>
	<g>
		<path class="st240" d="M396.2,283.3c-1.1-2.4-3.8-3.9-6.3-4.2C391.4,281,394.3,281.5,396.2,283.3z"/>
	</g>
	<g>
		<path class="st241" d="M442.4,281.2c0.8,1.7,3.7-0.7,4.2-2.1C445.2,279.8,443.8,280.4,442.4,281.2z"/>
	</g>
	<g>
		<path class="st242" d="M336.3,283.3c2,0.2,4.1-0.6,5.3-2.1C339.8,281.6,337.5,282.1,336.3,283.3z"/>
	</g>
	<g>
		<path class="st243" d="M67.5,283.3c14.4,0,28.7,0,43.1,0c0.5,0,1.1,0,1.1,0c-13.7-2.4-29.6-0.3-44.1-1.1    C67.5,282.3,67.4,283.3,67.5,283.3z"/>
	</g>
	<g>
		<path class="st244" d="M166.2,326.4c0.5,0,1.1,0,1.1,0c0-14.4,0-28.7,0-43.1c0-0.5,0-1.1,0-1.1    C164.8,295.9,166.9,311.8,166.2,326.4z"/>
	</g>
	<g>
		<path class="st245" d="M167.3,283.3c14.5-0.7,30.4,1.4,44.1-1.1c0,0-0.5,0-1.1,0c-14.4,0-28.7,0-43.1,0    C167.3,282.3,167.3,282.8,167.3,283.3z"/>
	</g>
	<g>
		<path class="st246" d="M457.1,290.7c3.1-2.2,6.1-5.3,8.4-8.4C462.4,284.5,459.4,287.6,457.1,290.7z"/>
	</g>
	<g>
		<path class="st247" d="M111.6,327.4c0,0,0-1.1,0-1.1c0-14.4,0-28.7,0-43.1c0,0-0.5,0-1.1,0C111.2,297.9,109.2,313.7,111.6,327.4z"/>
	</g>
	<g>
		<path class="st248" d="M298.5,289.6c-1.5-2.4-3.9-4.7-6.3-6.3C293.7,285.8,296.1,288,298.5,289.6z"/>
	</g>
	<g>
		<path class="st249" d="M355.2,288.6c2.1-1.1,3.9-3.2,5.3-5.3C358.4,284.5,356.6,286.5,355.2,288.6z"/>
	</g>
	<g>
		<path class="st250" d="M402.5,288.6c-1.1-2.1-3.2-3.9-5.3-5.3C398.4,285.4,400.5,287.2,402.5,288.6z"/>
	</g>
	<g>
		<path class="st251" d="M331.1,284.4c-2.4,0-4.9,0-7.4,0C325.1,286.2,329.7,285.9,331.1,284.4z"/>
	</g>
	<g>
		<path class="st252" d="M434,284.4c-2.4,0-4.9,0-7.4,0C428,286.2,432.6,285.9,434,284.4z"/>
	</g>
	<g>
		<path class="st253" d="M96.9,342.1c0,0,0-1.1,0-1.1c-0.7-14.2,1.4-29.7-1.1-43.1C96.5,312.6,94.5,328.4,96.9,342.1z"/>
	</g>
	<g>
		<path class="st254" d="M334.2,301.2c1.3-4.3-10-1.1-13.7-2.1C324,302.1,330.8,298.2,334.2,301.2z"/>
	</g>
	<g>
		<path class="st255" d="M422.5,301.2c0,0,1.1,0,1.1,0c3-3,9.5,0.8,12.6-2.1C432,300.1,424.1,296.7,422.5,301.2z"/>
	</g>
	<g>
		<path class="st256" d="M407.8,311.7c1.8-2.3,1.6-8.1,0-10.5C407.8,304.7,407.8,308.2,407.8,311.7z"/>
	</g>
	<g>
		<path class="st257" d="M422.5,312.7c2.4-2.8,0.4-7.9,1.1-11.6c0,0-1.1,0-1.1,0C422.5,305,422.5,308.9,422.5,312.7z"/>
	</g>
	<g>
		<path class="st258" d="M350,309.6c0-2.1,0-4.2,0-6.3C348.2,304.3,348.5,308.5,350,309.6z"/>
	</g>
	<g>
		<path class="st259" d="M360.5,329.5c-3.5-3.9-6.8-8.4-9.5-12.6C352,322.2,356.2,326.3,360.5,329.5z"/>
	</g>
	<g>
		<path class="st260" d="M397.3,329.5c2.8-1.6,5.1-4.4,6.3-7.4C401.1,324,399.5,327.1,397.3,329.5z"/>
	</g>
	<g>
		<path class="st261" d="M111.6,327.4c18.4-0.7,38.1,1.4,55.7-1.1c0,0-0.5,0-1.1,0c-18.2,0-36.4,0-54.6,0    C111.6,326.4,111.5,327.4,111.6,327.4z"/>
	</g>
	<g>
		<path class="st262" d="M367.9,333.7c-1-1.8-3.6-1.9-5.3-3.2C363.3,332.7,365.9,333.4,367.9,333.7z"/>
	</g>
	<g>
		<path class="st263" d="M387.8,333.7c1.2,2.1,4.5-0.5,5.3-2.1C391.3,332.2,389.8,333.8,387.8,333.7z"/>
	</g>
	<g>
		<path class="st264" d="M406.7,341.1c3.1-2.2,6.1-5.3,8.4-8.4C412,334.9,409,338,406.7,341.1z"/>
	</g>
	<g>
		<path class="st265" d="M351,341.1c-1.8-2.8-4.6-5.4-7.4-7.4C345.5,336.5,348.3,339.1,351,341.1z"/>
	</g>
	<g>
		<path class="st266" d="M376.3,335.8c-0.8-2-3.6-0.6-5.3-1.1C371.8,336.8,374.6,335.4,376.3,335.8z"/>
	</g>
	<g>
		<path class="st267" d="M381.5,335.8c1.3-0.3,3.6,0.6,4.2-1.1C384.4,335.1,382.1,334.1,381.5,335.8z"/>
	</g>
	<g>
		<path class="st268" d="M96.9,342.1c28.2-0.7,57.7,1.4,85.1-1.1c-28.4,0-56.7,0-85.1,0C96.9,341.1,96.8,342.1,96.9,342.1z"/>
	</g>
	<g>
		<path class="st269" d="M384.7,350.5c1.3-0.3,3.6,0.6,4.2-1.1C387.5,349.8,385.2,348.8,384.7,350.5z"/>
	</g>
	<g>
		<path class="st270" d="M26.5,378.9c-2.3-2.8-4.9-5.9-7.4-8.4C20.5,373.9,23.5,376.7,26.5,378.9z"/>
	</g>
	<g>
		<path class="st271" d="M485.5,378.9c2.1-1.1,3.9-3.2,5.3-5.3C488.6,374.8,486.8,376.9,485.5,378.9z"/>
	</g>
	<g>
		<path class="st272" d="M493.9,391.5c4.2-3.6,9.1-7.5,11.6-12.6C501.9,383,497.4,387.1,493.9,391.5z"/>
	</g>
	<g>
		<path class="st273" d="M19.2,392.5c-3.3-4.2-7.4-8.2-11.6-11.6C10.9,385.6,14.5,389.2,19.2,392.5z"/>
	</g>
	<g>
		<path class="st274" d="M472.9,383.1c-144.6,0-289.2,0-433.8,0C182.5,384.8,329.4,384.8,472.9,383.1z"/>
	</g>
	<g>
		<path class="st275" d="M36,398.8c1.4,0,2.8,0,4.2,0c0.2-0.1,0-1.1,0-1.1C38.9,398.1,36.5,397.2,36,398.8z"/>
	</g>
	<g>
		<path class="st276" d="M40.2,398.8c21.4,0,42.7,0,64.1,0c-20.3-2.4-42.9-0.3-64.1-1.1C40.2,397.8,40.4,398.7,40.2,398.8z"/>
	</g>
	<g>
		<path class="st277" d="M125.2,398.8c0.1,0.2,1.1,0,1.1,0c85.1,0,170.1,0,255.2,0c-0.9,2.1-3.4,3.1-4.2,5.3    c2.1-1.4,5.1-3.5,5.3-6.3C296.9,398.5,210.1,396.4,125.2,398.8z"/>
	</g>
	<g>
		<path class="st278" d="M403.6,398.8c22.8,0,45.5,0,68.3,0C450.3,397.1,425.2,397.1,403.6,398.8z"/>
	</g>
	<g>
		<path class="st279" d="M105.3,400.9c3.1,2.3,6.2,5.3,8.4,8.4c0.1,1,1.3,1.2,2.1,1.1c-3.3-4.2-7.4-8.2-11.6-11.6    C104.4,399.5,104.1,400.9,105.3,400.9z"/>
	</g>
	<g>
		<path class="st280" d="M131.5,405.1c-0.3-1.3-1.9-1.8-2.1-3.2c-1.3-0.7-2.7-1.7-3.2-3.2c0,0-1,0.2-1.1,0    C126.7,401.3,129.2,403.5,131.5,405.1z"/>
	</g>
	<g>
		<path class="st162" d="M129.4,402c1.6,1,3.4,2.4,4.2,4.2c1.6,1,3.4,2.4,4.2,4.2c26.4,19,56.8,33.4,89.3,37.8    c1.6,0.4,4.4-1,5.3,1.1c1.1,0,2.1,0,3.2,0c2.8,0,5.6,0,8.4,0c6.6,0,13.3,0,20,0c2.4,0,4.9,0,7.4,0c1.8,0,3.5,0,5.3,0    c0.6-1.7,2.9-0.8,4.2-1.1c35.7-5.1,68.7-21.1,96.6-44.1c0.8-2.1,3.4-3.1,4.2-5.3c-85.1,0-170.1,0-255.2,0    C126.7,400.3,128.2,401.3,129.4,402z"/>
	</g>
	<g>
		<path class="st281" d="M393.1,409.3c4.6-2.3,7.1-6.7,10.5-10.5C399.7,401.7,396.1,405.5,393.1,409.3z"/>
	</g>
	<g>
		<path class="st282" d="M113.7,409.3c-2.2-3.1-5.3-6.1-8.4-8.4C107.5,404.1,110.6,407,113.7,409.3z"/>
	</g>
	<g>
		<path class="st283" d="M131.5,405.1c0.9-0.1,1.3,0.9,2.1,1.1c-0.8-1.8-2.6-3.2-4.2-4.2C129.6,403.3,131.2,403.8,131.5,405.1z"/>
	</g>
	<g>
		<path class="st284" d="M137.8,410.4c-0.8-1.8-2.6-3.2-4.2-4.2C134.4,408,136.2,409.4,137.8,410.4z"/>
	</g>
	<g>
		<path class="st285" d="M384.7,417.7c3.1-2.2,6.1-5.3,8.4-8.4C389.9,411.5,387,414.6,384.7,417.7z"/>
	</g>
	<g>
		<path class="st286" d="M125.2,418.8c-0.7-1.5-2.3-3.4-4.2-3.2C121.7,417.2,123.4,419,125.2,418.8z"/>
	</g>
	<g>
		<path class="st287" d="M134.7,426.1c-0.9-1.5-2.9-1.9-4.2-3.2C131.2,424.5,132.8,426.4,134.7,426.1z"/>
	</g>
	<g>
		<path class="st288" d="M232.4,449.3c-0.8-2-3.6-0.6-5.3-1.1C227.9,450.2,230.7,448.8,232.4,449.3z"/>
	</g>
	<g>
		<path class="st289" d="M276.5,449.3c1.3-0.3,3.6,0.6,4.2-1.1C279.4,448.5,277,447.6,276.5,449.3z"/>
	</g>
	<g>
		<path class="st290" d="M243.9,450.3c0,0,0-1.1,0-1.1c-2.8,0-5.6,0-8.4,0C237.3,451.6,241.3,449.7,243.9,450.3z"/>
	</g>
	<g>
		<path class="st291" d="M243.9,450.3c6.6,0,13.3,0,20,0c0,0,0-1.1,0-1.1c-6.6,0-13.3,0-20,0C243.9,449.3,243.9,450.3,243.9,450.3z"/>
	</g>
	<g>
		<path class="st292" d="M263.9,450.3c2.3-0.5,5.8,1,7.4-1.1c-2.4,0-4.9,0-7.4,0C263.9,449.3,263.9,450.3,263.9,450.3z"/>
	</g>
	<g>
		<path class="st293" d="M212.4,461.9c1.4,0,2.8,0,4.2,0C216.2,460.2,212.9,460.4,212.4,461.9z"/>
	</g>
	<g>
		<path class="st294" d="M228.2,464c-0.5-1.8-2.9-0.8-4.2-1.1C224.5,464.8,226.8,463.7,228.2,464z"/>
	</g>
	<g>
		<path class="st295" d="M277.5,464c2-0.4,5.1,0.9,6.3-1.1C281.9,463.3,278.7,462,277.5,464z"/>
	</g>
	<g>
		<path class="st296" d="M238.7,465c-1.4-2.2-5.1-0.5-7.4-1.1C232.8,466.2,236.4,464.5,238.7,465z"/>
	</g>
	<g>
		<path class="st297" d="M266,465c1.4,0,2.8,0,4.2,0c0.2-0.1,0-1.1,0-1.1C268.9,464.2,266.5,463.3,266,465z"/>
	</g>
	<g>
		<path class="st298" d="M270.2,465c2-0.4,5.1,0.9,6.3-1.1c-2.1,0-4.2,0-6.3,0C270.2,464,270.4,464.9,270.2,465z"/>
	</g>
	<g>
		<path class="st299" d="M260.7,465c-4.5,0-9.1,0-13.7,0C250.4,466.8,257.3,466.7,260.7,465z"/>
	</g>
</g>
</svg>