<?xml version="1.0" encoding="utf-8"?>
<!-- Generator: Adobe Illustrator 27.7.0, SVG Export Plug-In . SVG Version: 6.00 Build 0)  -->
<svg version="1.1" id="Layer_1" xmlns="http://www.w3.org/2000/svg" xmlns:xlink="http://www.w3.org/1999/xlink" x="0px" y="0px"
	 viewBox="0 0 512 512" style="enable-background:new 0 0 512 512;" xml:space="preserve">
<g transform="translate(0.000000,548.000000) scale(0.100000,-0.100000)">
	<path d="M2287,5423.3c-53.3-4.6-135.9-15.6-183.7-23.9c-145.1-24.8-414.1-94.6-459.1-119.4c-12.9-7.3-58.8-26.6-103.8-44.1
		c-73.5-29.4-215.8-101-304.9-154.3c-103.8-61.5-135-82.6-233.2-155.2c-173.6-128.6-283.8-231.4-416-387.5
		c-251.6-298.4-427-640-524.3-1021.1c-89.1-344.4-80.8-908.2,16.5-1239.7c92.7-315.9,203.9-540,405.9-823.7
		C602.8,1289.2,768.1,1119.3,960,965c192.8-154.3,494-324.2,706.2-395.8c330.6-112.9,688.7-169.9,983.5-155.2
		c327.8,15.6,648.3,89.1,922.9,210.3c631.8,281,1080.8,731.9,1352.6,1360.9c33.1,76.2,102.8,291.1,129.5,398.5
		c52.3,215.8,76.2,473.8,60.6,684.1c-9.2,130.4-41.3,337.9-67,436.2c-62.4,233.2-105.6,353.5-183.7,510.6
		c-158.9,322.3-335.2,553.7-594.1,782.4c-53.3,47.8-119.4,101-146.9,118.5c-27.5,18.4-67,46.8-87.2,62.4
		c-88.2,68.9-329.7,202-486.7,268.1c-194.7,80.8-423.3,140.5-647.4,168C2793.9,5427,2403.6,5433.4,2287,5423.3z M2736.9,5331.5
		c252.5-18.4,516.1-73.5,711.7-149.7c112-43.2,340.7-159.8,436.2-221.3c202-129.5,351.7-252.5,506-414.1
		c94.6-100.1,251.6-317.7,314.1-436.2c141.4-270,214.9-470.2,271.8-743.8c28.5-138.7,39.5-256.2,39.5-435.3
		c0.9-297.5-31.2-472.9-153.4-836.6c-43.2-128.6-149.7-335.2-245.2-474.8c-26.6-39.5-68.9-101.9-94.6-139.6
		c-24.8-37.6-49.6-67-55.1-66.1c-15.6,3.7-107.4,118.5-170.8,213c-176.3,263.5-202,365.5-214.9,843.9
		c-6.4,249.8-11.9,298.4-47.8,450c-26.6,113.9-85.4,270-123.1,326c-8.3,12.9-28.5,47.8-45,78.1
		c-132.2,243.3-346.2,454.6-606.1,598.7c-66.1,35.8-229.6,107.4-293.9,126.7c-27.5,8.3-67,22-87.2,29.4
		c-20.2,7.3-69.8,21.1-110.2,30.3c-40.4,9.2-115.7,31.2-167.1,49.6c-51.4,17.4-120.3,36.7-151.5,42.2c-32.1,6.4-73.5,16.5-91.8,23.9
		c-29.4,10.1-40.4,10.1-81.7-1.8c-56.9-17.4-90.9-37.6-90.9-55.1c0-7.3,41.3-25.7,111.1-47.8l112-35.8l-58.8-11
		c-302.1-59.7-596-213-828.3-432.5c-238.8-226.8-412.3-557.4-460.1-877c-7.3-52.3-15.6-195.6-18.4-335.2
		c-8.3-433.4-53.3-586.8-244.3-840.2c-14.7-20.2-34.9-47.8-43.2-60.6c-29.4-43.2-99.2-126.7-105.6-127.6c-3.7,0-20.2,19.3-36.7,42.2
		c-16.5,23-50.5,67-74.4,98.3c-24.8,31.2-61.5,86.3-82.6,121.2c-20.2,35.8-55.1,94.6-77.1,130.4c-22,36.7-39.5,68.9-39.5,71.6
		c0,1.8-10.1,25.7-22,52.3c-95.5,204.8-158.9,409.6-184.6,593.2c-56,396.7-31.2,829.2,64.3,1131.3c43.2,135.9,139.6,370.1,165.3,404
		c6.4,7.3,24.8,38.6,41.3,68.9c33.1,60.6,121.2,194.7,145.1,222.2c9.2,9.2,28.5,34.9,43.2,57.9c41.3,61.5,224.1,256.2,294.8,315
		c34.9,28.5,96.4,79,136.8,112c135.9,112,337,229.6,558.3,326.9c202,89.1,535.4,166.2,777.8,180c53.3,2.8,98.3,6.4,100.1,8.3
		C2467.9,5343.4,2602.8,5340.6,2736.9,5331.5z M1839.8,3095.4c42.2-20.2,112.9-90,137.7-136.8c17.4-32.1,20.2-52.3,20.2-129.5
		c-0.9-80.8-3.7-97.3-24.8-138.7c-27.5-51.4-97.3-120.3-151.5-146.9c-47.8-23.9-132.2-23-188.2,2.8
		c-53.3,23.9-123.1,94.6-145.1,145.1c-33.1,77.1-31.2,180.9,5.5,258c20.2,43.2,90.9,120.3,126.7,138.7
		C1683.6,3121.1,1778.2,3124.8,1839.8,3095.4z M3449.5,3100.9c72.5-33.1,144.2-121.2,165.3-202.9c27.5-108.4,0.9-214-73.5-290.2
		c-86.3-87.2-184.6-104.7-295.7-53.3c-57.9,27.5-98.3,76.2-124,151.5c-77.1,226.8,25.7,409.6,230.5,411.4
		C3391.7,3117.5,3424.7,3112,3449.5,3100.9z M2583.6,2553.6c28.5-8.3,71.6-25.7,95.5-39.5c52.3-29.4,118.5-95.5,126.7-127.6
		c2.8-12.9,14.7-34.9,25.7-50.5c28.5-38.6,27.5-124.9-1.8-181.8c-55.1-107.4-193.8-201.1-356.3-239.7
		c-65.2-15.6-97.3-18.4-170.8-14.7c-104.7,6.4-153.4,23.9-67,24.8c57.9,0,148.8,22,242.4,58.8c112,44.1,236.9,146.9,291.1,239.7
		c21.1,35.8,23.9,45.9,15.6,65.2c-6.4,11.9-14.7,22-20.2,22c-4.6,0-29.4-27.5-54.2-61.5c-50.5-69.8-60.6-79-142.3-135
		c-103.8-70.7-266.3-124.9-377.4-124.9c-48.7,0-108.4,20.2-148.8,51.4c-35.8,26.6-38.6,51.4-16.5,146
		c23.9,101.9,81.7,191,178.1,273.6C2329.2,2567.4,2442.1,2595,2583.6,2553.6z M2877.4,2308.5c2.8-9.2,3.7-16.5,1.8-16.5
		c-4.6,0-50.5,73.5-50.5,79.9C2829.7,2383.8,2872.8,2326.8,2877.4,2308.5z M2158.4,1518.7c172.6-24.8,501.4-29.4,615.3-8.3
		c104.7,19.3,357.2,18.4,431.6-1.8c68-18.4,229.6-93.7,287.4-134.1c133.2-93.7,258-281,324.2-487.6c5.5-17.4-139.6-107.4-271.8-169
		c-120.3-56-358.1-127.6-560.2-169.9c-253.4-52.3-594.1-52.3-877,0c-304,56.9-619.8,175.4-843,316.8c-104.7,67-100.1,58.8-79,134.1
		c25.7,91.8,64.3,172.6,118.5,245.2c99.2,134.1,286.5,254.4,436.2,281C1840.7,1543.5,1999.5,1540.8,2158.4,1518.7z"/>
	<path d="M1763.5,3010c-60.6-60.6-58.8-169,3.7-236c24.8-26.6,37.6-32.1,67-32.1c33.1,0,39.5,4.6,62.4,36.7
		c23,34,24.8,42.2,21.1,103.8c-4.6,77.1-32.1,128.6-75.3,144.2C1803,3040.3,1792,3038.5,1763.5,3010z"/>
	<path d="M3232.8,3000.8c-76.2-76.2-67-196.5,20.2-248.9c26.6-16.5,31.2-17.4,56-4.6c59.7,31.2,83.6,157.9,45,246.1
		c-17.4,39.5-22,42.2-53.3,42.2C3274.1,3035.7,3260.3,3028.4,3232.8,3000.8z"/>
</g>
</svg>
