<?xml version="1.0" encoding="iso-8859-1"?>
<!-- Generator: Adobe Illustrator 15.1.0, SVG Export Plug-In . SVG Version: 6.00 Build 0)  -->
<!DOCTYPE svg PUBLIC "-//W3C//DTD SVG 1.1//EN" "http://www.w3.org/Graphics/SVG/1.1/DTD/svg11.dtd">
<svg version="1.1" id="Ebene_1" xmlns="http://www.w3.org/2000/svg" xmlns:xlink="http://www.w3.org/1999/xlink" x="0px" y="0px"
	 width="133.127px" height="37.051px" viewBox="0 0 133.127 37.051" style="enable-background:new 0 0 133.127 37.051;"
	 xml:space="preserve">
<g>
	<defs>
		<rect id="SVGID_1_" x="-231.073" y="-345.474" width="595.28" height="841.89"/>
	</defs>
	<clipPath id="SVGID_2_">
		<use xlink:href="#SVGID_1_"  style="overflow:visible;"/>
	</clipPath>
	<path style="clip-path:url(#SVGID_2_);fill:#E30613;" d="M114.1,8.231c-0.926-0.942-1.391-2.079-1.391-3.41
		c0-1.301,0.465-2.441,1.377-3.383C115.012,0.486,116.133,0,117.434,0c1.277,0,2.395,0.476,3.322,1.425
		c0.932,0.943,1.406,2.095,1.406,3.396c0,1.331-0.465,2.468-1.395,3.41c-0.93,0.949-2.057,1.423-3.334,1.423
		C116.133,9.654,115.012,9.18,114.1,8.231 M133.127,19.118v-2.932c0-2.771-2.248-5.025-5.021-5.025H106.76
		c-2.773,0-5.02,2.254-5.02,5.025v11.041h23.811v1.674H101.74v2.927c0,2.773,2.246,5.022,5.02,5.022h21.346
		c2.773,0,5.021-2.249,5.021-5.022V20.79h-23.809v-1.672H133.127z"/>
	<path style="clip-path:url(#SVGID_2_);fill:#00497B;" d="M0,13.454c0-1.525,0.683-2.288,2.207-2.288h14.046v3.171
		c0,1.525-0.762,2.247-2.287,2.247H6.421v4.615h8.428v5.217H6.421v5.017h10.032v3.169c0,1.526-0.761,2.248-2.287,2.248H2.207
		C0.683,36.85,0,36.086,0,34.562V13.454z M19.066,13.454c0-1.525,0.682-2.288,2.208-2.288h8.346c5.86,0,9.231,2.689,9.231,7.746
		c0,3.491-1.324,5.738-4.495,7.022l5.016,9.792c0.16,0.361,0.362,0.722,0.362,1.124h-5.538c-1.164,0-1.646,0-2.207-1.164
		l-4.496-9.27h-2.006V36.85h-6.421V13.454z M25.487,16.583v4.615h3.652c1.846,0,3.291-0.241,3.291-2.287
		c0-2.007-1.445-2.328-3.291-2.328H25.487z M49.368,10.966c5.338,0,8.107,0.602,8.107,3.09v2.528h-7.304
		c-1.966,0-2.528,0.522-2.528,1.565c0,3.09,11.156,2.448,11.156,11.117c0,4.133-2.367,7.785-9.591,7.785
		c-4.735,0-8.467-0.763-8.467-3.09v-2.528h8.627c1.766,0,2.609-0.563,2.609-1.807c0-3.37-11.116-2.729-11.116-11.637
		C40.861,14.056,43.469,10.966,49.368,10.966 M76.46,11.166v3.251c0,1.485-0.762,2.167-2.247,2.167h-3.171V36.85h-6.421V16.583
		h-5.417v-3.251c0-1.484,0.762-2.167,2.247-2.167H76.46z M78.47,13.454c0-1.525,0.683-2.288,2.208-2.288h14.045v3.171
		c0,1.525-0.762,2.247-2.287,2.247h-7.545v4.615h8.428v5.217h-8.428v5.017h10.033v3.169c0,1.526-0.763,2.248-2.287,2.248H80.678
		c-1.525,0-2.208-0.763-2.208-2.288V13.454z"/>
</g>
</svg>
