<svg xmlns="http://www.w3.org/2000/svg" viewBox="0 0 48 48"><g fill="#419eda"><path d="M21.97 21.43a3.13 3.13 0 1 1-6.261.001 3.13 3.13 0 0 1 6.26 0zm4.046 0a3.13 3.13 0 1 0 6.261.001 3.13 3.13 0 0 0-6.261 0z"/><path d="M47.32 24.83a9.013 9.013 0 0 1-4.665-.9c.407-2.333.58-4.684.535-7.027a36.5 36.5 0 0 0-4.548-5.39 9.04 9.04 0 0 1 3.206-3.435l.588-.363-.458-.516c-2.36-2.657-5.175-4.71-8.367-6.104l-.636-.277-.162.673a9.01 9.01 0 0 1-2.268 4.118 36.345 36.345 0 0 0-6.555-2.701 36.377 36.377 0 0 0-6.544 2.695 9.007 9.007 0 0 1-2.26-4.108l-.163-.673-.635.276c-3.151 1.373-6.044 3.482-8.365 6.1l-.459.517.587.363a9.024 9.024 0 0 1 3.198 3.417 36.659 36.659 0 0 0-4.54 5.369c-.052 2.341.112 4.71.52 7.076a8.995 8.995 0 0 1-4.641.89l-.69-.052.065.688a23.809 23.809 0 0 0 3.216 9.848l.35.596.527-.447a9.007 9.007 0 0 1 4.264-1.997 36.536 36.536 0 0 0 3.648 5.943 36.915 36.915 0 0 0 6.915 1.7 8.989 8.989 0 0 1-.576 4.719l-.263.64.676.148c1.729.38 3.473.574 5.18.574l5.18-.574.676-.149-.264-.64a9.013 9.013 0 0 1-.574-4.722 36.866 36.866 0 0 0 6.888-1.696 36.583 36.583 0 0 0 3.653-5.949 9.048 9.048 0 0 1 4.284 1.999l.527.446.35-.594a23.72 23.72 0 0 0 3.213-9.846l.065-.687zm-15.918 8.418a28.23 28.23 0 0 1-7.412 1.003c-2.48 0-4.966-.336-7.418-1.003a28.735 28.735 0 0 1-3.175-6.688 28.398 28.398 0 0 1-1.338-7.337 28.258 28.258 0 0 1 5.375-5.118 28.616 28.616 0 0 1 6.556-3.565c2.33.9 4.526 2.093 6.544 3.557a28.423 28.423 0 0 1 5.398 5.151 28.458 28.458 0 0 1-1.351 7.305 28.644 28.644 0 0 1-3.179 6.695z"/></g></svg>