<svg xmlns:sodipodi="http://sodipodi.sourceforge.net/DTD/sodipodi-0.dtd" xmlns:dc="http://purl.org/dc/elements/1.1/" xmlns:inkscape="http://www.inkscape.org/namespaces/inkscape" xmlns:cc="http://creativecommons.org/ns#" xmlns:rdf="http://www.w3.org/1999/02/22-rdf-syntax-ns#" xmlns:svg="http://www.w3.org/2000/svg" xmlns="http://www.w3.org/2000/svg" xmlns:xlink="http://www.w3.org/1999/xlink" version="1.1" id="svg3688" inkscape:export-filename="/home/tom/projects/securesync/graphics/logo.png" inkscape:export-xdpi="1000" inkscape:export-ydpi="1000" sodipodi:docname="logo.svg" x="0px" y="0px" style="enable-background:new 0 0 512 512;" xml:space="preserve" viewBox="5.2 8 501.7 497.9">
<style type="text/css">
	.st0{fill:none;}
	.st1{filter:url(#filter4498-9);}
	.st2{fill:#FFC107;}
	.st3{fill:#FFD740;stroke:#FFD740;stroke-width:44.1816;stroke-linecap:round;stroke-linejoin:round;}
	.st4{fill:#448AFF;}
</style>
<filter id="filter4498-9" inkscape:label="Drop Shadow" style="color-interpolation-filters:sRGB">
	<feFlood flood-color="rgb(0,0,0)" flood-opacity="0.498039" id="feFlood4488-1" result="flood"/>
	<feComposite id="feComposite4490-7" in="flood" in2="SourceGraphic" operator="in" result="composite1"/>
	<feGaussianBlur id="feGaussianBlur4492-7" in="composite1" result="blur" stdDeviation="4"/>
	<feOffset dx="0" dy="4" id="feOffset4494-1" result="offset"/>
	<feComposite id="feComposite4496-1" in="SourceGraphic" in2="offset" operator="over" result="composite2"/>
</filter>
<g>
	
		<sodipodi:namedview bordercolor="#666666" borderopacity="1" gridtolerance="10" guidetolerance="10" id="namedview3690" inkscape:current-layer="svg3688" inkscape:cx="169.753" inkscape:cy="122.38481" inkscape:pageopacity="0" inkscape:pageshadow="2" inkscape:window-height="2088" inkscape:window-maximized="0" inkscape:window-width="3832" inkscape:window-x="0" inkscape:window-y="68" inkscape:zoom="8" objecttolerance="10" pagecolor="#ffffff" showgrid="false">
		</sodipodi:namedview>
	<path id="path3684" inkscape:connector-curvature="0" class="st0" d="M-10.2-9.1h530.2V521H-10.2V-9.1z"/>
	<g id="layer2" transform="translate(0,168)" inkscape:groupmode="layer" inkscape:label="circle">
	</g>
	<g id="layer1" transform="translate(0,168)" inkscape:groupmode="layer" inkscape:label="arrow">
		<path id="path4" inkscape:connector-curvature="0" class="st0" d="M-10.2-177.1h530.2V353H-10.2V-177.1z"/>
	</g>
	<g id="path3686-3" inkscape:connector-curvature="0" sodipodi:nodetypes="ccccccccccccccccc" class="st1">
		<polygon class="st2" points="433.5,184.1 433.5,80.8 329.5,80.8 256.1,8 182.7,80.8 78.6,80.8 78.6,184.1 5.2,257 78.6,329.8     78.6,433.1 182.7,433.1 256.1,505.9 329.5,433.1 433.5,433.1 433.5,329.8 506.9,257   "/>
	</g>
	<g id="g6594" transform="matrix(1.430883,0,0,1.3318324,-104.95215,-30.494868)">
		<path id="path3684-6" inkscape:connector-curvature="0" class="st0" d="M66.3,17.5h372v396.7h-372V17.5z"/>
		<ellipse id="path5101-5" class="st3" cx="252.4" cy="215.7" rx="31.2" ry="33.3"/>
		<path id="path2-6" inkscape:connector-curvature="0" class="st4" d="M252.3,121.3V85.8L206,133.1l46.3,47.4V145    c38.3,0,69.4,31.9,69.4,71.1c0,12-2.9,23.3-8.1,33.2l16.9,17.3c9-14.6,14.3-31.9,14.3-50.5C344.8,163.7,303.4,121.3,252.3,121.3    L252.3,121.3z M252.3,287.1c-38.3,0-69.4-31.9-69.4-71.1c0-12,2.9-23.3,8.1-33.2l-16.9-17.3c-9,14.6-14.3,31.9-14.3,50.5    c0,52.4,41.4,94.8,92.5,94.8v35.5l46.3-47.4l-46.3-47.4V287.1z"/>
		<path id="path4-3" inkscape:connector-curvature="0" class="st0" d="M66.3,17.5h372v396.7h-372V17.5z"/>
	</g>
</g>
</svg>