<svg xmlns="http://www.w3.org/2000/svg" width="192" height="192" style="fill:#000"><defs><filter id="a" style="color-interpolation-filters:sRGB"><feFlood flood-color="#000" flood-opacity=".498" result="flood"/><feComposite in="flood" in2="SourceGraphic" operator="in" result="composite1"/><feGaussianBlur in="composite1" result="blur" stdDeviation="4"/><feOffset dy="4" result="offset"/><feComposite in="SourceGraphic" in2="offset" result="composite2"/></filter><filter id="b" style="color-interpolation-filters:sRGB"><feFlood flood-color="#000" flood-opacity=".498" result="flood"/><feComposite in="flood" in2="SourceGraphic" operator="in" result="composite1"/><feGaussianBlur in="composite1" result="blur" stdDeviation="4"/><feOffset dy="4" result="offset"/><feComposite in="SourceGraphic" in2="offset" result="composite2"/></filter></defs><path d="M0-2h192v192H0Z" style="fill:none;stroke-width:8"/><g style="display:inline"><path d="M0-170h192V22H0Z" style="fill:none;stroke-width:8" transform="translate(0 168)"/></g><path d="M210.912 166.802v-37.52h-37.52l-26.48-26.48-26.48 26.48h-37.52v37.52l-26.48 26.48 26.48 26.48v37.52h37.52l26.48 26.48 26.48-26.48h37.52v-37.52l26.48-26.48z" style="fill:#ffc107;fill-opacity:1;stroke-width:8;filter:url(#a)" transform="matrix(1.00412 0 0 .99663 -51.07 -98.264)"/><g transform="matrix(1.43088 0 0 1.33183 -104.952 -30.495)"><path d="M73.384 21.914h134.735v143.675H73.384Z" style="fill:none;stroke-width:5.79724312"/><ellipse cx="140.78" cy="93.719" rx="11.3" ry="12.05" style="display:inline;fill:#ffd740;fill-opacity:1;fill-rule:nonzero;stroke:#ffd740;stroke-width:44.18160629;stroke-linecap:round;stroke-linejoin:round;stroke-miterlimit:4;stroke-dasharray:none;stroke-opacity:1"/><path d="M146.912-329.248v-17.45l-23.295 23.266 23.295 23.267v-17.45c19.276 0 34.942 15.647 34.942 34.9 0 5.875-1.456 11.458-4.077 16.286l8.503 8.493c4.543-7.155 7.221-15.647 7.221-24.78 0-25.709-20.848-46.532-46.59-46.532zm0 81.432c-19.277 0-34.943-15.646-34.943-34.9 0-5.874 1.456-11.458 4.077-16.286l-8.503-8.492c-4.542 7.154-7.221 15.647-7.221 24.779 0 25.71 20.849 46.533 46.59 46.533v17.45L170.207-242l-23.295-23.266z" style="display:inline;fill:#448aff;fill-opacity:1;stroke-width:5.82016563;filter:url(#b)" transform="matrix(.7193 0 0 .73752 35.063 302.34)"/><path d="M73.384 21.914h134.735v143.675H73.384Z" style="display:inline;fill:none;stroke-width:5.79724312"/></g></svg>