<svg xmlns="http://www.w3.org/2000/svg" xmlns:svg="http://www.w3.org/2000/svg" xmlns:xlink="http://www.w3.org/1999/xlink" id="svg9" width="340" height="340" version="1.1" viewBox="0 0 340 340"><title id="title1">Group 10</title><defs id="defs4"><linearGradient id="linearGradient-1" x1="170" x2="170" y1="-181.282" y2="372.825" gradientUnits="userSpaceOnUse"><stop id="stop1" offset="0%" stop-color="#65D09B"/><stop id="stop2" offset="100%" stop-color="#4DB38E"/></linearGradient><rect id="path-2" width="168" height="27" x="42" y="167" rx="13.5"/><filter id="filter-3" width="1.114" height="2.007" x="-.057" y="-.356" filterUnits="objectBoundingBox"><feOffset id="feOffset2" dx="0" dy="8" in="SourceAlpha" result="shadowOffsetOuter1"/><feGaussianBlur id="feGaussianBlur2" in="shadowOffsetOuter1" result="shadowBlurOuter1" stdDeviation="4"/><feColorMatrix id="feColorMatrix2" in="shadowBlurOuter1" type="matrix" values="0 0 0 0 0 0 0 0 0 0 0 0 0 0 0 0 0 0 0.0568181818 0"/></filter><rect id="path-4" width="142" height="25" x="41" y="110" rx="12.5"/><filter id="filter-5" width="1.135" height="2.088" x="-.068" y="-.384" filterUnits="objectBoundingBox"><feOffset id="feOffset3" dx="0" dy="8" in="SourceAlpha" result="shadowOffsetOuter1"/><feGaussianBlur id="feGaussianBlur3" in="shadowOffsetOuter1" result="shadowBlurOuter1" stdDeviation="4"/><feColorMatrix id="feColorMatrix3" in="shadowBlurOuter1" type="matrix" values="0 0 0 0 0 0 0 0 0 0 0 0 0 0 0 0 0 0 0.0568181818 0"/></filter><rect id="path-6" width="105" height="25" x="41" y="226" rx="12.5"/><filter id="filter-7" width="1.183" height="2.088" x="-.091" y="-.384" filterUnits="objectBoundingBox"><feOffset id="feOffset4" dx="0" dy="8" in="SourceAlpha" result="shadowOffsetOuter1"/><feGaussianBlur id="feGaussianBlur4" in="shadowOffsetOuter1" result="shadowBlurOuter1" stdDeviation="4"/><feColorMatrix id="feColorMatrix4" in="shadowBlurOuter1" type="matrix" values="0 0 0 0 0 0 0 0 0 0 0 0 0 0 0 0 0 0 0.0568181818 0"/></filter></defs><g id="Page-1" fill="none" fill-rule="evenodd" stroke="none" stroke-width="1" transform="translate(0,-15)"><g id="Group-5-Copy-2" transform="translate(-415,-351)"><g id="Group-10" transform="translate(415,351)"><g id="Group-9" transform="translate(0,15)"><rect id="Rectangle-Copy-54" width="340" height="340" x="0" y="0" fill="url(#linearGradient-1)" rx="70" style="fill:url(#linearGradient-1)"/><path id="Path-Copy-26" fill="#000" fill-opacity=".2" fill-rule="nonzero" d="m 237.61221,138.15765 c -2.88643,-2.87573 -7.56096,-2.87801 -10.44739,0 -2.88643,2.87801 -2.88643,7.54118 0,10.41919 7.77506,7.75237 12.05791,18.02454 12.05791,28.92256 0,10.89802 -4.28285,21.17019 -12.05791,28.9253 -2.88643,2.87573 -2.88643,7.54117 0,10.41691 1.44345,1.43877 3.33243,2.15839 5.2237,2.15839 1.88898,0 3.78025,-0.71962 5.22369,-2.15839 C 248.18012,206.30453 254,192.33415 254,177.4994 c 0,-14.83429 -5.81988,-28.80467 -16.38779,-39.34175 z" opacity=".754"/><path id="Path-Copy-27" fill="#131514" fill-opacity=".251" fill-rule="nonzero" d="m 267.33303,113.15866 c -2.82254,-2.87821 -7.39359,-2.87821 -10.21613,0 -2.82253,2.88049 -2.82253,7.55042 0,10.42818 28.58694,29.1762 28.58694,76.6508 0,105.82701 -2.82253,2.87821 -2.82253,7.54768 0,10.42589 1.41149,1.44048 3.25866,2.16026 5.10806,2.16026 1.8494,0 3.69657,-0.72024 5.10807,-2.16299 34.22263,-34.92443 34.22263,-91.753 0,-126.67835 z" opacity=".754"/><g id="Rectangle-Copy-55"><use id="use4" fill="#000" fill-opacity="1" filter="url(#filter-3)" xlink:href="#path-2"/><use id="use5" fill="#fff" fill-rule="evenodd" xlink:href="#path-2"/></g><g id="Rectangle-Copy-56"><use id="use6" fill="#000" fill-opacity="1" filter="url(#filter-5)" xlink:href="#path-4"/><use id="use7" fill="#fff" fill-rule="evenodd" xlink:href="#path-4"/></g><g id="Rectangle-Copy-57"><use id="use8" fill="#000" fill-opacity="1" filter="url(#filter-7)" xlink:href="#path-6"/><use id="use9" fill="#fff" fill-rule="evenodd" xlink:href="#path-6"/></g></g></g></g></g><metadata id="metadata9"/></svg>