<svg xmlns="http://www.w3.org/2000/svg" width="512.041" height="502.439" viewBox="0 0 135.478 132.937"><path fill="#51A2DA" d="M67.775 0C30.367 0 .079 29.732.013 66.439H0v51.43h.013c.017 8.325 6.902 15.068 15.392 15.068H67.78c37.415-.024 67.697-29.752 67.697-66.439C135.478 29.792 105.157.06 67.715.06z"/><path fill="#FFF" d="M81.546 27.338c-10.568 0-19.903 7.801-21.195 18.039a21.848 21.848 0 0 0-.117 2.251l.012 41.855c0 8.029-6.128 13.493-13.784 13.493-7.667 0-13.843-6.008-13.843-13.506.125-8.23 6.842-13.45 14.677-13.678h.042l7.954-.072V64.669l-7.954.059c-14.26-.126-25.58 10.826-25.993 24.749 0 13.539 11.342 24.577 25.113 24.577 12.99 0 23.8-9.953 24.98-22.407.171-4.239.088-9.833.088-9.833.024-2.304-.036-1.477-.012-6.05l9.866-.072c7.635.052 7.549-11.226-.087-11.071l-9.781.071c0-5.678.09-11.32 0-17.007.007-4.918 4.756-9.264 10.025-9.264 5.271 0 10.846 2.58 10.846 9.264 0 .955-.02 1.511-.073 1.865-.588 3.1 1.57 6.062 4.752 6.51 3.18.441 6.102-1.812 6.417-4.947.182-1.24.175-2.333.175-3.427 0-11.785-10.74-20.328-22.115-20.328z"/></svg>