<svg xmlns="http://www.w3.org/2000/svg" xml:space="preserve" id="svg2" x="0" y="0" version="1.1" viewBox="0 0 512 512"><style>.st1{fill:none;stroke:#3c6eb4;stroke-width:29.21}.st2{fill:#fff}</style><path id="voice" d="M512 256C512 114.6 397.4 0 256 0 114.7 0 .1 114.5 0 255.8v198.1C.1 486 26.1 512 58.2 512h197.9C397.4 511.9 512 397.4 512 256" style="fill:#294172"/><path id="in" d="M147.6 272.5h92v92c0 50.8-41.2 92-92 92s-92-41.2-92-92c0-50.7 41.2-92 92-92z" class="st1"/><g id="finity" transform="rotate(180 124.856 142.144)"><path id="in_00000116956553852042306170000003434787291094268839_" d="M331.2 272.7h-92v-92c0-50.8 41.2-92 92-92s92 41.2 92 92-41.3 92-92 92z" class="st1"/></g><path id="free" d="M267.7 244.5v119.9c0 66.4-53.8 120.1-120.1 120.1-10.1 0-17.2-1.1-26.5-3.6-13.6-3.6-24.7-14.7-24.7-27.7 0-15.7 11.4-27.1 28.4-27.1 8.1 0 11 1.6 22.9 1.6 35 0 63.4-28.3 63.4-63.3v-55.1c0-4.9-4-8.9-9-8.9h-41.7c-15.5 0-28.1-12.4-28.1-27.9 0-15.7 12.7-28 28.4-28" class="st2"/><g id="dom" transform="rotate(180 124.856 142.144)"><path id="free_00000081612186563392985250000017922005100778838682_" d="M211 300.7V180.8c0-66.4 53.8-120.1 120.1-120.1 10.1 0 17.2 1.1 26.5 3.6 13.6 3.6 24.7 14.7 24.7 27.7 0 15.7-11.4 27.1-28.4 27.1-8.1 0-11-1.6-22.9-1.6-35 0-63.4 28.3-63.4 63.3v55.1c0 4.9 4 8.9 9 8.9h41.7c15.5 0 28.1 12.4 28.1 27.9 0 15.7-12.7 28-28.4 28" class="st2"/></g></svg>