<?xml version="1.0" encoding="utf-8"?>
<!-- Generator: Adobe Illustrator 27.7.0, SVG Export Plug-In . SVG Version: 6.00 Build 0)  -->
<svg version="1.1" id="svg2" xmlns:svg="http://www.w3.org/2000/svg"
	 xmlns="http://www.w3.org/2000/svg" xmlns:xlink="http://www.w3.org/1999/xlink" x="0px" y="0px" viewBox="0 0 512 512"
	 style="enable-background:new 0 0 512 512;" xml:space="preserve">
<style type="text/css">
	.st0{fill:#294172;}
	.st1{fill:none;stroke:#3C6EB4;stroke-width:29.21;}
	.st2{fill:#FFFFFF;}
</style>
<g>
	<path id="voice" class="st0" d="M512,256C512,114.6,397.4,0,256,0C114.7,0,0.1,114.5,0,255.8v198.1C0.1,486,26.1,512,58.2,512
		h197.9C397.4,511.9,512,397.4,512,256"/>
	<path id="in" class="st1" d="M147.6,272.5h92v92c0,50.8-41.2,92-92,92s-92-41.2-92-92C55.6,313.8,96.8,272.5,147.6,272.5z"/>
	<g id="finity" transform="matrix(-1,0,0,-1,249.71151,284.2882)">
		<path id="in_00000116956553852042306170000003434787291094268839_" class="st1" d="M331.2,272.7h-92v-92c0-50.8,41.2-92,92-92
			s92,41.2,92,92S381.9,272.7,331.2,272.7z"/>
	</g>
	<path id="free" class="st2" d="M267.7,244.5v119.9c0,66.4-53.8,120.1-120.1,120.1c-10.1,0-17.2-1.1-26.5-3.6
		c-13.6-3.6-24.7-14.7-24.7-27.7c0-15.7,11.4-27.1,28.4-27.1c8.1,0,11,1.6,22.9,1.6c35,0,63.4-28.3,63.4-63.3v-55.1
		c0-4.9-4-8.9-9-8.9l-41.7,0c-15.5,0-28.1-12.4-28.1-27.9c0-15.7,12.7-28,28.4-28"/>
	<g id="dom" transform="matrix(-1,0,0,-1,249.71152,284.28821)">
		<path id="free_00000081612186563392985250000017922005100778838682_" class="st2" d="M211,300.7V180.8
			c0-66.4,53.8-120.1,120.1-120.1c10.1,0,17.2,1.1,26.5,3.6c13.6,3.6,24.7,14.7,24.7,27.7c0,15.7-11.4,27.1-28.4,27.1
			c-8.1,0-11-1.6-22.9-1.6c-35,0-63.4,28.3-63.4,63.3v55.1c0,4.9,4,8.9,9,8.9l41.7,0c15.5,0,28.1,12.4,28.1,27.9
			c0,15.7-12.7,28-28.4,28"/>
	</g>
</g>
</svg>
