<svg xmlns="http://www.w3.org/2000/svg" xmlns:xlink="http://www.w3.org/1999/xlink" version="1.1" id="Layer_1" x="0px" y="0px" style="enable-background:new 0 0 512 512;" xml:space="preserve" viewBox="55.8 0 400.4 512">
<g>
	<path d="M122.2,0h267.6c36.7,0,66.4,29.7,66.4,66.4v0c0,36.7-29.7,66.4-66.4,66.4H122.2c-36.7,0-66.4-29.7-66.4-66.4v0   C55.8,29.7,85.6,0,122.2,0z"/>
	<path d="M55.8,266.5c0-36.7,29.7-66.4,66.4-66.4h179.1c36.7,0,66.4,29.7,66.4,66.4l0,0c0,36.7-29.7,66.4-66.4,66.4H122.2   C85.6,332.9,55.8,303.2,55.8,266.5L55.8,266.5z"/>
	<path d="M122.2,512c-36.7,0-66.4-29.7-66.4-66.4V266.5c0-36.7,29.7-66.4,66.4-66.4l0,0c36.7,0,66.4,29.7,66.4,66.4v179.1   C188.6,482.3,158.9,512,122.2,512L122.2,512z"/>
</g>
</svg>