<svg xmlns="http://www.w3.org/2000/svg" xmlns:xlink="http://www.w3.org/1999/xlink" version="1.1" id="Layer_1" x="0px" y="0px" style="enable-background:new 0 0 512 512;" xml:space="preserve" viewBox="-0.04 19.24 512.05 473.47">
<path id="logo_foreground" d="M508.9,249.5c-2.8-9.5-7-18.4-12.4-26.7c-1.5-2.2-2-4.3-1.4-7c4.1-19.5,3.1-38.8-2.3-57.9  c-5.8-20.6-16.3-38.7-30.1-55c-16.7-19.7-36.9-35.1-59.5-47.4c-41.8-22.9-86.9-33.8-134.2-35.9c-21.3-1-42.5,0.1-63.6,3.1  c-26.1,3.8-51.4,10.5-75.7,20.8C103.4,54.7,79.4,69.3,58.7,89c-15.1,14.4-27.7,30.7-36.3,49.8c-13,28.9-15.9,58.6-6.1,89.1  c0.8,2.5,0.3,4.3-1.2,6.4c-4.6,6.2-8.6,12.8-11.5,20.1c-1.6,4-2.8,8-3.2,12.3c-0.5,7.3-0.7,14.7,0.1,22c1.4,13.2,5.6,25.2,15.5,34.6  c0.6,0.5,1,1.2,1.5,1.8c0,3.1,0,6.2,0,9.3c0,12.9,0.5,25.8,2.5,38.7c4.2,27.9,17.1,51,38.4,69.4c11.2,9.7,23.7,17.3,37.1,23.4  c17.5,8,35.7,13.4,54.5,17.4c26.6,5.6,53.5,8.3,80.5,9c34.4,0.9,68.8,0.5,103.1-3c17.1-1.7,34.1-4.2,50.8-8.4  c16.6-4.1,32.5-9.8,47.4-18.3c22.2-12.7,38.6-30.6,48.7-54.2c5.9-13.7,9.6-28.1,11.8-42.9c2.2-15.2,2.6-30.4,1.7-45.7  c-0.1-1.7,0-3.4,0-5.2c0.9-0.7,1.6-1.4,2.3-1.9c7.4-5.4,11.8-12.6,13.7-21.5C512.8,277.3,512.9,263.4,508.9,249.5z M54.4,161.9  c4.5-12.3,11.2-23.3,19.6-33.3c11.7-13.9,25.6-25.1,41-34.6C136.4,80.9,159.6,72,184,66c27.8-6.8,56-9.3,84.5-7.9  c36.4,1.8,71.5,9.5,104.6,25.2c10.2,4.8,19.6,10.8,28.2,18.1c6.8,5.9,12.3,12.8,16,21c4.8,10.6,5.5,21.7,3.5,32.9  c-4.4,24.3-17,43.6-36.9,58.2c-9.4,6.9-19.6,12.3-30.3,16.9c-6,2.6-12.2,4.9-18.2,7.5c-2.1,0.9-4.2,1.9-6.2,3  c-1.1,0.7-2.2,1.6-3.1,2.6c-1.3,1.4-1,3.6,0.6,4.5c1.8,1,3.8,1.8,5.9,2.3c6.9,1.6,13.9,1.3,20.8,0.7c19.1-1.4,37.9-4.8,56.3-10.3  c14.7-4.4,28.6-10.6,41-19.7c0.6-0.4,1.3-0.8,2-1.1c0.1-0.1,0.3,0.1,0.9,0.2c-0.4,1-0.7,2.1-1.2,3.1c-4.7,9.5-11.2,17.5-19.1,24.5  c-9.3,8.2-19.9,14.7-31,20.1c-17.3,8.4-35.5,14-54.3,18.1c-21.4,4.7-43,7.3-64.8,8.5c-21.7,1.3-43.3,1.1-64.9-0.4  c-29.6-2.1-58.7-6.7-86.9-16.1c-12.9-4.3-25.3-9.5-37-16.4c-8.2-4.8-15.9-10.3-22.7-17c-10.6-10.4-18.2-22.5-21.1-37.2  C47.4,192,49,176.8,54.4,161.9z M459.2,365.2c-2.3,12-7.9,22.5-15.8,31.8c-7.3,8.7-16.1,15.5-25.8,21.3c-14.4,8.5-30,14.2-46.1,18.5  c-17.8,4.7-35.8,7.7-54.1,9.5c-24.3,2.5-48.6,3.5-72.9,3.1c-20.5-0.3-40.9-1.6-61.2-4.6c-21.3-3.1-42.1-7.9-62.1-16.1  c-13.1-5.4-25.4-12.1-36.4-21.2c-14.4-11.8-25-26.2-30.3-44.3c-2-6.9-3.2-13.9-3.1-21.1c0-1.1,0.2-2.2,0.4-3.5c1.8,0,3.3-0.2,4.8,0  c6.9,0.8,13.9,0.9,20.8,0.4c18.1-1.3,34.4,3.4,49.3,13.6c9,6.1,17.2,13.1,25,20.6c6.2,5.9,12.2,11.9,18.2,17.8  c7.1,7,14.9,12.9,23.8,17.3c10,4.9,20.6,7.7,31.8,7.5c10.4-0.2,20.2-2.9,29.5-7.4c7.5-3.7,14.3-8.4,20.7-13.7  c2.2-1.9,4.4-3.7,6.8-5.4c11.6-8.4,24.5-10.9,38.5-8.7c7.9,1.2,15.4,3.7,23,5.9c7.2,2.1,14.5,4.2,21.8,5.7  c7.8,1.6,15.7,1.6,23.6-0.5c8-2.1,13.9-6.7,17.1-14.3c1.8-4.4,3.1-9.1,4.5-13.7c1.2-3.9,2.2-7.8,3.5-11.6  c3.5-10.1,10.5-16.5,20.9-19c8.4-2,16.8-4,25.6-6.1c0.3,1.2,0.7,2.1,0.7,3C461.8,341.8,461.4,353.6,459.2,365.2z"/>
</svg>