<svg xmlns="http://www.w3.org/2000/svg" xmlns:xlink="http://www.w3.org/1999/xlink" version="1.1" id="Layer_1" x="0px" y="0px" style="enable-background:new 0 0 512 512;" xml:space="preserve" viewBox="0.05 25.68 511.98 460.62">
<style type="text/css">
	.st0{fill:#2AB14C;}
</style>
<g>
	<path class="st0" d="M295.7,42.4c-21.5-22-56.8-22.3-78.7-0.8c-0.3,0.3-0.5,0.5-0.8,0.8L16.4,245.9c-21.8,22.6-21.8,58.4,0,81   L159,472.1c9.9,8.8,22.9,14.2,37.1,14.2h119.7c15,0,29.4-6.1,39.9-16.9L495.6,327c21.9-22.6,21.9-58.4,0-81L295.7,42.4L295.7,42.4z    M290.2,414.1l-20,20.3c-1.5,1.6-3.6,2.4-5.7,2.4h-17.1c-1.9,0-3.8-0.7-5.3-2l-20.4-20.7c-3.1-3.2-3.1-8.3,0-11.6l28.5-29   c3-3.1,8.1-3.2,11.2-0.2c0.1,0.1,0.1,0.1,0.2,0.2l28.5,29.1C293.3,405.7,293.3,410.9,290.2,414.1z M290.2,292.3l-79.7,81.2   c-1.5,1.5-3.6,2.4-5.7,2.4h-17c-2,0-3.9-0.7-5.3-2L162,353.2c-3.1-3.2-3.1-8.4,0-11.6l88.3-89.9c3.1-3.1,8.1-3.2,11.2-0.1   c0,0,0.1,0.1,0.1,0.1l28.5,29.1C293.3,283.9,293.3,289.1,290.2,292.3L290.2,292.3z M290.2,170.5L150.6,312.6   c-1.5,1.5-3.6,2.4-5.7,2.4h-17.1c-2,0-3.8-0.7-5.3-2l-20.3-20.7c-3.1-3.2-3.1-8.3,0-11.5l148.1-150.8c3.1-3.1,8.1-3.2,11.2-0.1   c0,0,0.1,0.1,0.1,0.1l28.5,29C293.3,162.2,293.3,167.3,290.2,170.5z"/>
</g>
</svg>