<?xml version="1.0" encoding="utf-8"?>
<!-- Generator: Adobe Illustrator 27.7.0, SVG Export Plug-In . SVG Version: 6.00 Build 0)  -->
<svg version="1.1" id="Layer_1" xmlns="http://www.w3.org/2000/svg" xmlns:xlink="http://www.w3.org/1999/xlink" x="0px" y="0px"
	 viewBox="0 0 512 512" style="enable-background:new 0 0 512 512;" xml:space="preserve">
<style type="text/css">
	.st0{fill-rule:evenodd;clip-rule:evenodd;fill:#FF0090;}
	.st1{fill-rule:evenodd;clip-rule:evenodd;}
	.st2{fill-rule:evenodd;clip-rule:evenodd;fill:#FCFCFC;}
	.st3{fill-rule:evenodd;clip-rule:evenodd;fill:#020002;}
	.st4{fill-rule:evenodd;clip-rule:evenodd;fill:#9C8590;}
	.st5{fill-rule:evenodd;clip-rule:evenodd;fill:#626262;}
	.st6{fill-rule:evenodd;clip-rule:evenodd;fill:#010000;}
	.st7{fill-rule:evenodd;clip-rule:evenodd;fill:#FEFEFE;}
	.st8{fill-rule:evenodd;clip-rule:evenodd;fill:#090909;}
	.st9{opacity:0.7;fill-rule:evenodd;clip-rule:evenodd;fill:#4B0A2B;enable-background:new    ;}
	.st10{opacity:0.6;fill-rule:evenodd;clip-rule:evenodd;fill:#260A17;enable-background:new    ;}
	.st11{opacity:0.9;fill-rule:evenodd;clip-rule:evenodd;fill:#1D0410;enable-background:new    ;}
	.st12{opacity:0.7;fill-rule:evenodd;clip-rule:evenodd;fill:#200313;enable-background:new    ;}
	.st13{opacity:0.9;fill-rule:evenodd;clip-rule:evenodd;fill:#31091C;enable-background:new    ;}
	.st14{opacity:0.9;fill-rule:evenodd;clip-rule:evenodd;fill:#3D0C24;enable-background:new    ;}
	.st15{opacity:0.5;fill-rule:evenodd;clip-rule:evenodd;fill:#0D0006;enable-background:new    ;}
</style>
<g>
	<path class="st0" d="M184.2,13C209.4,26.2,234,40.6,258.1,56c5.1,4,10.1,8,15.2,11.9c2.1,3.7,3.7,7.5,4.9,11.5
		c6.1,6.3,12.8,11.8,20.1,16.4c-0.6,0.8-1.4,1-2.5,0.8c-4.9,0-9.8,0-14.8,0c0.8,4.6,2.5,9,4.9,13.1c-1,0.8-2.1,0.6-3.3-0.4
		c-23.1-16.1-44.1-34.7-63.2-55.8c-12-9.8-24.1-19.7-36.1-29.5c-10-6.7-20.3-12.7-31.2-18c-1-0.5-2-0.4-2.9,0.4
		c-1,1.8-1.4,3.7-1.2,5.7c-8.3,24-13,48.7-13.9,74.2c0.1,13.6,2.1,26.8,6.2,39.8c4.2,13.1,9,25.9,14.4,38.6c0,0.3,0,0.5,0,0.8
		c-16.2,22.8-33,45.2-50.4,67.3c-13.5,17.6-24.4,36.8-32.8,57.4c-7.2,19.6-9.6,39.9-7.4,60.7c2.9,49.8,23,90.8,60.3,123
		c-0.8,0-1.6,0-2.5,0c-2.2-1.1-4.1-2.5-5.7-4.1c-0.4-1.1-1.2-1.7-2.5-1.6c-0.4-1.1-1.2-1.7-2.5-1.6c-0.6-1.4-1.7-2.2-3.3-2.5
		c-0.4-1.1-1.2-1.7-2.5-1.6c-0.6-1.4-1.7-2.2-3.3-2.5c-0.9-1.7-2.2-2.8-4.1-3.3c-0.9-1.7-2.2-2.8-4.1-3.3
		C73,436.7,55.5,417,41.5,394.4c-13.8-46.2-8.7-90.2,15.2-132.1c5-8.6,10.2-17.1,15.6-25.4c17.9-23.2,36.3-46.2,55-68.9
		c3-3.9,5.7-8,8.2-12.3c0.5-1.4,0.5-2.7,0-4.1c-6-6.9-10.1-14.8-12.3-23.8c-5.1-31.2-2.8-61.9,7-91.9c4.3-11.7,8.4-23.5,12.3-35.3
		c7-1.3,13.8-0.6,20.5,2.1C170,6.2,177.1,9.6,184.2,13z"/>
	<path class="st1" d="M345.8,18.7c-12.4,17.3-23.7,35.4-34,54.1c-3.9,7.7-7,15.6-9.4,23.8c-1.5,0.1-2.8-0.2-4.1-0.8
		c-7.3-4.6-14-10.1-20.1-16.4c-1.2-4-2.8-7.8-4.9-11.5c-5.1-4-10.1-8-15.2-11.9c-24-15.4-48.6-29.8-73.8-43.1
		c34.1-9.6,68.9-12.5,104.2-8.6C308,7.3,327.1,12.1,345.8,18.7z"/>
	<path class="st2" d="M295.8,96.6c2,0.8,4.2,1.1,6.6,0.8c0.7,0.5,1.2,1.2,1.6,2.1c5.9,2.8,11.9,5.4,18,7.8
		c3.9-8.6,7.4-17.4,10.7-26.3c3-5.1,5.1-10.6,6.6-16.4c4.9-9.8,9.8-19.6,14.8-29.5c1.8-1.7,2.4-3.6,1.6-5.7c0.5-0.8,1.1-1.6,1.6-2.5
		c0.8-0.7,1.3-1.5,1.6-2.5c0-0.3,0-0.5,0-0.8c0-0.3,0-0.5,0-0.8c0.5,0,0.8-0.3,0.8-0.8c0-0.3,0-0.5,0-0.8c1.9-2.7,3.8-5.5,5.7-8.2
		c4.5,6.5,8.4,13.3,11.5,20.5c6,15.6,9.6,31.7,10.7,48.4c0,5.4-1.5,10.3-4.5,14.8c-4.7,5.9-9.2,11.9-13.5,18c-0.8-1.1-1-2.5-0.8-4.1
		c0.4-10.4,0.9-20.8,1.6-31.2c-0.3-1.9-0.5-3.8-0.8-5.7c-5.6,6.4-9.6,13.8-11.9,22.1c-4.2,14.5-6.9,29.3-8.2,44.3
		c4.5,5.6,8.3,11.6,11.5,18c8.1,7.3,16.4,14.2,25,20.9c16.4,8.2,32.8,16.4,49.2,24.6c1.3,0.9,1.8,2.2,1.6,3.7
		c-0.5,1.1-1.1,2.2-1.6,3.3c-25.6,0.1-50.5-4.1-74.6-12.7c-7.5-3-15.2-5.7-23-8.2c-0.7-0.9-1.5-1.6-2.5-2.1
		c-12.9-26.9-34.2-42.4-64-46.3c-7.4-0.5-14.8-0.5-22.1,0c-6.2,1.2-11.4,4.1-15.6,8.6c9.6,4.3,19.3,8.4,29.1,12.3
		c0.3-1.6,0.5-3.3,0.8-4.9c12.8,0.2,25,3.4,36.5,9.4c14.4,6.9,26.4,16.6,36.1,29.1c4.5,4.9,6.9,10.6,7.4,17.2
		c-23.1-5.7-46.4-11.1-69.7-16c-41.4-3.6-77.4,8.6-107.9,36.5c-12.5,15.6-21.5,33.1-27.1,52.5c-0.3,1.1-1,2-2.1,2.5
		c-4.5-10.1-7.1-20.8-7.8-32c-2-32.6,6.5-62.2,25.4-88.6c0.4-0.8,0.5-1.6,0.4-2.5c0-0.3,0-0.5,0-0.8c9.2-8,18.1-16.5,26.7-25.4
		c-1.6-8.8-3.6-17.5-5.7-26.3c-0.4-4.4-0.5-8.8-0.4-13.1c2.8,6.2,6.5,12,11.1,17.2c4.8,4.3,9.6,8.5,14.4,12.7
		c0.8,0.4,1.6,0.5,2.5,0.4c0-1.9,0-3.8,0-5.7c6.2-3.7,12.4-7.5,18.5-11.5c0.5-1.4,0.5-2.7,0-4.1c-12.6-29.8-30.3-56.2-52.9-79.2
		c-4.6-4.2-9.6-8-14.8-11.5c-2-2-3.9-4.1-5.7-6.2c-0.2-2,0.2-3.9,1.2-5.7c0.9-0.8,1.8-1,2.9-0.4c10.8,5.4,21.2,11.4,31.2,18
		c12,9.8,24.1,19.7,36.1,29.5c19,21.1,40.1,39.7,63.2,55.8c1.1,1,2.2,1.2,3.3,0.4c-2.5-4.1-4.1-8.5-4.9-13.1
		C285.9,96.6,290.9,96.6,295.8,96.6z"/>
	<path class="st0" d="M359.8,21.2c0,0.3,0,0.5,0,0.8c-0.5,0-0.8,0.3-0.8,0.8c0,0.3,0,0.5,0,0.8c-0.5,0-0.8,0.3-0.8,0.8
		c-0.8,0.6-1,1.4-0.8,2.5c-0.5,0.8-1.1,1.6-1.6,2.5c-1.1,1.6-1.7,3.6-1.6,5.7c-5,9.9-9.9,19.7-14.8,29.5c-2.3,3.9-4.3,8-6.2,12.3
		c-0.4,1.4-0.5,2.7-0.4,4.1c-3.2,8.9-6.8,17.6-10.7,26.3c-6.1-2.4-12.1-4.9-18-7.8c-0.4-0.8-1-1.5-1.6-2.1c0-0.3,0-0.5,0-0.8
		c2.4-8.2,5.6-16.1,9.4-23.8c10.3-18.8,21.7-36.8,34-54.1c2.7-5.5,7.1-8.8,13.1-9.8c2,0.3,3.6,1.1,4.9,2.5
		C362.5,14.6,361.1,17.9,359.8,21.2z"/>
	<path class="st3" d="M148.1,12.1c1.8,2.1,3.7,4.1,5.7,6.2c5.2,3.4,10.1,7.3,14.8,11.5c22.6,23,40.3,49.4,52.9,79.2
		c0.5,1.4,0.5,2.7,0,4.1c-6.1,4-12.2,7.8-18.5,11.5c-1.1-5-3.2-9.7-6.2-13.9c-4.7-5.3-9.9-9.9-15.6-13.9c-2.6-3-4.8-6.3-6.6-9.8
		c-0.3,4.4-0.1,8.8,0.4,13.1c-0.1,4.4,0,8.8,0.4,13.1c2.2,8.8,4.1,17.5,5.7,26.3c-8.5,9-17.4,17.4-26.7,25.4
		c-5.4-12.6-10.1-25.5-14.4-38.6c-4-13-6.1-26.2-6.2-39.8C135.2,60.8,139.8,36.1,148.1,12.1z"/>
	<path class="st0" d="M358.1,24.4c0.3,0,0.5,0,0.8,0c-0.3,1-0.9,1.8-1.6,2.5C357.1,25.9,357.4,25,358.1,24.4z"/>
	<path class="st0" d="M355.7,29.4c0.7,2.1,0.2,4-1.6,5.7C354,32.9,354.5,31,355.7,29.4z"/>
	<path class="st1" d="M377,33.5c71.2,39.8,114.5,99.9,130,180.5c1.5,10,2.8,19.8,3.7,29.5c0,9.3,0,18.6,0,27.9
		c-5,71.5-34.2,130.9-87.8,178c2.8-5.9,4.2-12.2,4.1-18.9c-3.4-35.8-19.3-64.7-47.6-86.5c-13-8.7-27.2-14.7-42.7-18
		c-7.1-1.5-14.2-2.9-21.3-4.1c17.9-14.4,37.6-25.9,59.1-34.5c22.4-6.2,43.8-14.9,64-26.3c1.6-1.4,3-2.9,4.1-4.5
		c12.9-1,23.9-6,33.2-14.8c16.9-21.9,12.1-36.2-14.4-43.1c-4.2-0.6-8.3-0.3-12.3,0.8c-4.4,2.2-8.5,4.8-12.3,7.8
		c0.2-1.5-0.4-2.8-1.6-3.7c-16.4-8.2-32.8-16.4-49.2-24.6c-8.6-6.7-16.9-13.6-25-20.9c-3.2-6.5-7-12.5-11.5-18
		c1.3-15,4-29.8,8.2-44.3c2.3-8.4,6.3-15.8,11.9-22.1c0.3,1.9,0.5,3.8,0.8,5.7c-0.7,10.4-1.3,20.8-1.6,31.2
		c-0.9,1.8-1.1,3.7-0.4,5.7c0.6-0.4,1-1,1.2-1.6c4.3-6.1,8.8-12.1,13.5-18c3-4.5,4.5-9.4,4.5-14.8C386.6,65.2,383,49,377,33.5z"/>
	<path class="st1" d="M130.1,35.9c-9.7,30-12.1,60.6-7,91.9c2.2,9,6.3,16.9,12.3,23.8c0.5,1.4,0.5,2.7,0,4.1
		c-2.5,4.3-5.3,8.4-8.2,12.3c-18.7,22.7-37,45.7-55,68.9c-5.4,8.3-10.6,16.8-15.6,25.4c-23.9,41.8-29,85.9-15.2,132.1
		C7.5,340.6-4.9,282.1,4.2,218.9C18.2,138.3,60.1,77.3,130.1,35.9z"/>
	<path class="st0" d="M339.3,64.6c-1.4,5.9-3.6,11.3-6.6,16.4c-0.1-1.4,0-2.7,0.4-4.1C334.9,72.6,337,68.5,339.3,64.6z"/>
	<path class="st0" d="M203.1,124.5c0,1.9,0,3.8,0,5.7c-0.9,0.1-1.7,0-2.5-0.4c-4.8-4.3-9.6-8.5-14.4-12.7c-4.5-5.3-8.2-11-11.1-17.2
		c-0.5-4.4-0.7-8.8-0.4-13.1c1.8,3.6,4,6.8,6.6,9.8c5.7,4,10.9,8.7,15.6,13.9C199.9,114.8,201.9,119.5,203.1,124.5z"/>
	<path class="st4" d="M298.2,95.8c1.3,0.7,2.6,0.9,4.1,0.8c0,0.3,0,0.5,0,0.8c-2.4,0.3-4.5,0-6.6-0.8
		C296.8,96.8,297.6,96.6,298.2,95.8z"/>
	<path class="st5" d="M368.8,110.6c-0.2,1.6,0.1,3,0.8,4.1c-0.2,0.7-0.6,1.2-1.2,1.6C367.7,114.2,367.9,112.3,368.8,110.6z"/>
	<path class="st0" d="M335.2,187.7c0.4,2.1,1,4.1,1.6,6.2c0,0.9-0.3,1.6-0.8,2.1c-9.7-12.5-21.7-22.2-36.1-29.1
		c-11.5-6.1-23.7-9.2-36.5-9.4c-0.3,1.6-0.5,3.3-0.8,4.9c-9.8-3.9-19.6-8-29.1-12.3c4.2-4.5,9.4-7.4,15.6-8.6
		c7.4-0.5,14.8-0.5,22.1,0C301,145.3,322.3,160.8,335.2,187.7z"/>
	<path class="st6" d="M154.7,165.5c0.1,0.9,0,1.7-0.4,2.5c-18.9,26.4-27.4,55.9-25.4,88.6c0.7,11.2,3.3,21.9,7.8,32
		c1-0.5,1.7-1.3,2.1-2.5c5.6-19.4,14.6-36.9,27.1-52.5c30.5-27.9,66.5-40.1,107.9-36.5c23.4,4.9,46.6,10.3,69.7,16
		c-0.4-6.6-2.9-12.4-7.4-17.2c0.5-0.5,0.8-1.2,0.8-2.1c-0.7-2-1.2-4.1-1.6-6.2c0.9,0.5,1.8,1.2,2.5,2.1c7.8,2.5,15.4,5.2,23,8.2
		c24.1,8.6,49,12.8,74.6,12.7c-4.5,12.4-2.9,23.9,4.9,34.5c-1.6,0.5-3.3,1.1-4.9,1.6c-9.2,1.3-18.5,1.7-27.9,1.2
		c-16.8-1.6-33.5-3.8-50-6.6c-51.6-8.6-100,0.1-145.2,26.3c-38.7,25.9-63.7,61.6-75.1,107.1c-9,43-0.3,81.9,26.3,116.5
		c2.5,1.8,4.8,3.7,7,5.7c-16-5.1-31.1-12.3-45.1-21.3c1.9-0.7,1.6-1.2-0.8-1.6C87,441.8,66.9,400.7,64,350.9
		c-2.2-20.8,0.2-41.1,7.4-60.7c8.4-20.7,19.4-39.8,32.8-57.4C121.7,210.8,138.5,188.3,154.7,165.5z"/>
	<path class="st0" d="M442.6,256.6c-9.3,0.8-18.6,1-27.9,0.4c-17.3-2-34.5-4.5-51.7-7.4c-8.7-1.2-17.4-1.5-26.3-0.8
		c-21.2,1.7-41.4,6.9-60.7,15.6c-18.8,8.8-36.6,19.1-53.3,31.2c-14.9,13.5-27.6,28.7-38.1,45.5c-11.3,20.2-16.5,41.8-15.6,64.8
		c2.4,23.4,11.4,43.6,27.1,60.7c14.3,15.1,31.4,25.9,51.3,32.4c13,3.2,26.1,6,39.4,8.2c1.9,0.2,3.6,0.9,4.9,2.1
		c-41.5,6.1-82,2-121.4-12.3c-2.2-2-4.5-3.9-7-5.7c-26.5-34.6-35.3-73.4-26.3-116.5c11.3-45.4,36.3-81.1,75.1-107.1
		c45.2-26.1,93.6-34.9,145.2-26.3c16.6,2.8,33.3,5,50,6.6c9.4,0.5,18.6,0.1,27.9-1.2c2,0.3,3.9,0,5.7-0.8c-0.1-0.5-0.4-0.8-0.8-0.8
		c-7.8-10.6-9.5-22-4.9-34.5c0.5-1.1,1.1-2.2,1.6-3.3c3.8-3,7.9-5.6,12.3-7.8c4-1.1,8.1-1.4,12.3-0.8c26.5,6.8,31.3,21.2,14.4,43.1
		C466.6,250.6,455.5,255.5,442.6,256.6z"/>
	<path class="st0" d="M440.2,245.1c0.4,0.1,0.7,0.3,0.8,0.8c-1.9,0.8-3.8,1.1-5.7,0.8C436.9,246.2,438.5,245.7,440.2,245.1z"/>
	<path class="st7" d="M442.6,256.6c-1.1,1.6-2.5,3.1-4.1,4.5c-20.2,11.3-41.6,20.1-64,26.3c-21.5,8.5-41.2,20-59.1,34.5
		c7.2,1.2,14.3,2.6,21.3,4.1c15.4,3.3,29.6,9.4,42.7,18c28.3,21.9,44.1,50.7,47.6,86.5c0.1,6.7-1.3,13-4.1,18.9
		c-37.5,33.2-81.2,53.2-131.3,59.9c-1.4-1.1-3-1.8-4.9-2.1c-13.2-2.2-26.4-5-39.4-8.2c-19.9-6.5-36.9-17.3-51.3-32.4
		c-15.6-17.1-24.7-37.4-27.1-60.7c-0.9-23,4.3-44.6,15.6-64.8c10.6-16.8,23.3-32,38.1-45.5c16.7-12,34.5-22.4,53.3-31.2
		c19.3-8.7,39.5-13.9,60.7-15.6c8.8-0.7,17.6-0.4,26.3,0.8c17.2,2.9,34.4,5.4,51.7,7.4C424,257.5,433.3,257.4,442.6,256.6z"/>
	<path class="st8" d="M271.2,410c26.6-2.2,48.6,6.8,66,27.1c9.4,11,12.6,23.6,9.8,37.7c-3.7-12-8.9-23.2-15.6-33.6
		c-13.8-16.4-31.5-23.1-52.9-20.1c-8.1,2.5-15.7,6.2-22.6,11.1C255,420.5,260,413.2,271.2,410z"/>
	<path class="st9" d="M94,453.5c1.9,0.5,3.2,1.6,4.1,3.3C96.2,456.3,94.9,455.2,94,453.5z"/>
	<path class="st10" d="M98.1,456.7c1.9,0.5,3.2,1.6,4.1,3.3C100.3,459.5,99,458.4,98.1,456.7z"/>
	<path class="st11" d="M102.2,460c1.6,0.2,2.7,1,3.3,2.5C103.9,462.3,102.8,461.5,102.2,460z"/>
	<path class="st12" d="M105.5,462.5c1.3-0.1,2.1,0.5,2.5,1.6C106.7,464.2,105.9,463.6,105.5,462.5z"/>
	<path class="st13" d="M107.9,464.1c1.6,0.2,2.7,1,3.3,2.5C109.6,466.4,108.5,465.6,107.9,464.1z"/>
	<path class="st14" d="M111.2,466.6c1.3-0.1,2.1,0.5,2.5,1.6C112.4,468.3,111.6,467.7,111.2,466.6z"/>
	<path class="st0" d="M113.7,468.2c1.3-0.1,2.1,0.5,2.5,1.6C114.9,469.9,114.1,469.4,113.7,468.2z"/>
	<path class="st15" d="M121.9,474c0.8,0,1.6,0,2.5,0c0.3,0.5,0.5,1.1,0.8,1.6C123.8,475.5,122.7,475,121.9,474z"/>
	<path class="st0" d="M124.3,474c2.4,0.4,2.7,1,0.8,1.6C124.9,475.1,124.6,474.5,124.3,474z"/>
</g>
</svg>
