<?xml version="1.0" encoding="utf-8"?>
<!-- Generator: Adobe Illustrator 27.7.0, SVG Export Plug-In . SVG Version: 6.00 Build 0)  -->
<svg version="1.1" id="svg1205" xmlns:svg="http://www.w3.org/2000/svg"
	 xmlns="http://www.w3.org/2000/svg" xmlns:xlink="http://www.w3.org/1999/xlink" x="0px" y="0px" viewBox="0 0 512 512"
	 style="enable-background:new 0 0 512 512;" xml:space="preserve">
<style type="text/css">
	.st0{fill:#092032;}
</style>
<g id="g1203" transform="matrix(0.1,0,0,-0.1,-51,212.70055)">
	<g>
		<path id="path1181_00000047756638480174617320000013855018372067261630_" class="st0" d="M2818.3,2024.2
			c-561.8-125.2-1138.9-543.5-1401.4-1013.7l-82.4-152.7l235.1,134.3c632,360.3,1367.9,412.2,1951,131.3
			c238.2-109.9,522.1-409.1,650.3-674.8C4293,192.3,4409-219.9,4436.5-488.6c18.3-213.7,21.4-216.8,79.4-164.9
			c91.6,82.4,265.6,470.2,314.5,702.2c125.2,592.3-21.4,1114.4-424.4,1499.1C3960.2,1975.4,3380.1,2149.4,2818.3,2024.2z"/>
		<path id="path1183_00000115504927471324570640000012141905541657127870_" class="st0" d="M1535.9,641.1
			c-119.1-116-277.8-262.6-348.1-326.7C800.1-24.5,510-656.5,510-1163.4c0-241.2,91.6-619.8,204.6-851.9
			c247.3-509.9,897.7-858,1685.4-903.8c287-18.3,290.1-18.3,216.8,36.6c-210.7,149.6-436.6,400-525.2,583.2
			c-85.5,174-100.8,238.2-109.9,494.6c-12.2,259.5-3.1,317.5,61.1,479.4c134.3,329.8,302.3,476.3,668.7,589.3
			c329.8,100.8,458,235.1,577.1,616.8c67.2,219.8,45.8,290.1-100.8,311.4c-625.9,91.6-796.9,161.8-1099.2,461
			c-122.1,122.1-229,198.5-268.7,198.5C1780.2,851.8,1670.2,769.4,1535.9,641.1z M2235.1,381.6c51.9-36.6,51.9-55,18.3-229
			c-33.6-164.9-30.5-201.5,12.2-265.6c76.3-119.1,198.5-97.7,354.2,64.1c134.3,137.4,171,152.7,354.2,143.5
			c70.2-6.1,94.7-18.3,82.4-48.9c-18.3-48.9,64.1-140.4,128.2-140.4c55,0,55-15.3-9.2-116c-164.9-265.6-396.9-403-687-403
			c-430.5,3.1-705.3,338.9-622.9,772.5C1908.4,381.6,2085.5,491.5,2235.1,381.6z"/>
		<path id="path1191_00000049219488066479275850000014085728365102302390_" class="st0" d="M5150.9-0.1
			c0-33.6-39.7-180.1-88.5-323.6c-235.1-705.3-784.7-1285.4-1377-1465.6c-314.5-91.6-1059.5-91.6-1380.1,3.1
			c-155.7,45.8,24.4-314.5,293.1-586.2c436.6-439.7,980.1-589.3,1599.9-439.7c1120.5,268.7,1673.2,1215.2,1331.2,2289.9
			C5425.7-192.4,5150.9,186.2,5150.9-0.1z"/>
	</g>
</g>
</svg>
