<svg xmlns="http://www.w3.org/2000/svg" xmlns:xlink="http://www.w3.org/1999/xlink" version="1.1" id="Layer_1" x="0px" y="0px" style="enable-background:new 0 0 512 512;" xml:space="preserve" viewBox="79.68 0 352.63 512">
<style type="text/css">
	.st0{fill:#FDBC3D;}
	.st1{fill:#8EC63F;}
	.st2{fill:#208ECB;}
	.st3{fill:#273C8B;}
	.st4{fill:#EE4649;}
	.st5{fill:#F6944E;}
	.st6{fill:#FFC951;}
	.st7{fill:#F6CC18;}
	.st8{fill:#C5D82D;}
	.st9{fill:#0D77B3;}
	.st10{fill:#2A377E;}
	.st11{fill:#DA2128;}
	.st12{fill:#F8A561;}
	.st13{fill:#FAD412;}
	.st14{fill:#C4D52D;}
	.st15{fill:#1B80C1;}
	.st16{fill:#1A4685;}
	.st17{fill:#B12026;}
	.st18{fill:#E42028;}
	.st19{fill:#F16B4E;}
	.st20{fill:#981C20;}
	.st21{fill:#C92039;}
	.st22{fill:#F05B41;}
	.st23{fill:#7A1319;}
	.st24{fill:#15796E;}
	.st25{fill:#29B364;}
	.st26{fill:#21A29F;}
	.st27{fill:#12827F;}
	.st28{fill:#0C6355;}
	.st29{fill:#1B974D;}
	.st30{fill:#16669F;}
	.st31{fill:#44BFBD;}
	.st32{fill:#0D5650;}
	.st33{fill:#3FAF49;}
	.st34{fill:#4EB648;}
	.st35{fill:#FBB139;}
	.st36{fill:#E2B523;}
	.st37{fill:#189590;}
	.st38{fill:#1953A2;}
	.st39{fill:#ED3551;}
	.st40{fill:#E9B520;}
</style>
<g>
	<path class="st0" d="M270.3,226.8l-2.3,0.9l-48.5,19.4l14.9,15.4L270.3,226.8z"/>
	<path class="st1" d="M200.8,157.1l-34.2,35.5l24.2,24.8c20.4-16.9,42-24.7,43.9-25.4L200.8,157.1z"/>
	<path class="st2" d="M200.8,157.1L166,122.6l-33.5,34.9l34.1,35.2L200.8,157.1z"/>
	<path class="st3" d="M152.8,109l-16.3,6.6c-10.2,4.1-19.6,10-27.6,17.5l23.7,24.4l33.5-34.9L152.8,109L152.8,109z"/>
	<path class="st4" d="M337.2,298.9l-0.6-0.6l-13.3,13.4C327.8,308.1,333.4,303.1,337.2,298.9z"/>
	<path class="st5" d="M297.2,327.1l8.7-4.4c6.1-3.1,11.9-6.8,17.4-11l13.3-13.4l-33.7-36l-34.1,35.5L297.2,327.1L297.2,327.1z"/>
	<path class="st6" d="M269.4,227.8l-34.9,34.7l34.4,35.3l34.1-35.5L269.4,227.8z"/>
	<path class="st7" d="M219.5,247.1L193,257.7c-7.8,2.3-14.4,6.7-19.9,12l27.2,28l34.1-35.1L219.5,247.1L219.5,247.1z"/>
	<path class="st8" d="M190.7,217.5l-24.1-24.9l-34.5,35.1l27.7,28.2C167.7,239.8,179.1,227.2,190.7,217.5L190.7,217.5z"/>
	<path class="st9" d="M132.5,157.5l-34.2,35.2l33.8,35.2l34.5-35.1L132.5,157.5z"/>
	<path class="st10" d="M132.5,157.5l-23.7-24.4c-12.7,11.7-21.7,26.8-26.1,43.5l15.6,16.1L132.5,157.5L132.5,157.5z"/>
	<path class="st11" d="M280.1,356.2L268.6,368l34.9,36.3c-1.5-4.6-3.8-10.5-6.1-14.9L280.1,356.2L280.1,356.2z"/>
	<path class="st12" d="M271.6,340l25.5-12.9l-28.4-29.3L234.6,333l34,35l11.5-11.8L271.6,340z"/>
	<path class="st0" d="M234.4,262.5l-34.1,35.1l34.3,35.4l34.2-35.2L234.4,262.5z"/>
	<path class="st13" d="M173.1,269.7c-15.8,15.2-22.8,37.8-22.8,37.8c-0.7-10.8,0.1-20.8,2.1-29.9l-20,20.6l33.7,34.7l34.2-35.2   L173.1,269.7L173.1,269.7z"/>
	<path class="st14" d="M159.9,256.1l-27.8-28.2L100.8,260l8.7,14.5l22.9,23.5l20.1-20.7C154.1,270.1,156.6,262.9,159.9,256.1   L159.9,256.1z"/>
	<path class="st15" d="M98.3,192.6l-18,18.2c1.5,12,5.5,24.3,12.2,35.4l8.3,13.8l31.3-32.2C132.1,227.8,98.3,192.6,98.3,192.6z"/>
	<path class="st16" d="M82.7,176.5c-2.9,11-3.8,22.8-2.3,34.3l18-18.2C98.3,192.6,82.7,176.5,82.7,176.5z"/>
	<path class="st17" d="M268.6,438.4l29.4,30.7c9.8-19.7,12.1-43,5.4-64.8l-0.7-0.7C302.8,403.6,268.6,438.4,268.6,438.4z"/>
	<path class="st18" d="M268.6,368l-34,35.4l34,35l34.2-34.8L268.6,368z"/>
	<path class="st19" d="M234.6,333l-34.3,35l34.3,35.3l34-35.3L234.6,333z"/>
	<path class="st13" d="M200.3,297.7l-34.2,35.2l34.2,35.2l34.3-35L200.3,297.7z"/>
	<path class="st6" d="M132.4,298.1l-5.4,5.6l25.7,42.9l13.4-13.8L132.4,298.1z"/>
	<path class="st6" d="M109.6,274.6l17.5,29.1l5.4-5.6L109.6,274.6z"/>
	<path class="st20" d="M298,469.1l-29.4-30.7l-34.2,35.2l30.4,31.3C279.1,496.4,290.6,483.9,298,469.1L298,469.1z"/>
	<path class="st21" d="M234.6,403.4L205,433.6l15.1,25.2l14.4,14.8l34.2-35.2L234.6,403.4z"/>
	<path class="st22" d="M200.3,368l-21.4,22.1l26.1,43.5l29.6-30.2L200.3,368z"/>
	<path class="st7" d="M166.1,332.9l-13.4,13.8l26.1,43.5l21.4-22.1L166.1,332.9z"/>
	<path class="st23" d="M231.1,477.1l21,34.9l9.7-5.3c1-0.5,2.2-1.3,3.2-1.8l-30.4-31.3L231.1,477.1L231.1,477.1z"/>
	<path class="st20" d="M220.1,458.8l11,18.3l3.4-3.5L220.1,458.8z"/>
	<path class="st24" d="M404.9,86.9L430,61.1c1.2-5.4,1.9-10.8,2.2-16.3l-26.9-27.7l-34.1,35.2L404.9,86.9z"/>
	<path class="st25" d="M371.2,52.2l34.1-35.1l-6.4-7l-49.3,19.8L371.2,52.2z"/>
	<path class="st26" d="M414.3,96.6c7.2-10.2,12.8-23.4,15.7-35.5l-25.1,25.8C404.9,86.9,414.3,96.6,414.3,96.6z"/>
	<path class="st27" d="M432.2,44.8C432.9,30,430.4,14.5,424,0l-3.3,1.3l-15.3,15.7L432.2,44.8L432.2,44.8z M420.7,1.3l-21.8,8.8   l6.4,7L420.7,1.3z"/>
	<path class="st28" d="M370.8,122.1l34.2-35.2l-33.7-34.6l-34.1,35.1L370.8,122.1z"/>
	<path class="st29" d="M302.9,52.3l34.2,35.2l34.1-35.2l-21.7-22.3l-40.9,16.4L302.9,52.3z"/>
	<path class="st30" d="M308.6,46.4l-8.2,3.3l2.5,2.6L308.6,46.4z"/>
	<path class="st31" d="M376.8,128.3c15-7.2,27.9-18.2,37.5-31.8l-9.4-9.6l-34.2,35.2L376.8,128.3L376.8,128.3z"/>
	<path class="st32" d="M329.3,149.7l26-11.7l15.5-15.9l-33.7-34.7l-34.2,35.2L329.3,149.7z"/>
	<path class="st33" d="M337.1,87.4l-34.2-35.2l-34.3,35l34.3,35.3L337.1,87.4z"/>
	<path class="st9" d="M302.9,52.3l-2.5-2.6l-49.4,19.9l17.6,17.7L302.9,52.3z"/>
	<path class="st28" d="M374.1,129.6c0.8-0.4,1.9-0.9,2.7-1.3l-6-6.2l-15.5,15.9L374.1,129.6L374.1,129.6z"/>
	<path class="st27" d="M329.3,149.7l-26.3-27.1l-34.2,35.2l12.9,13.3L329.3,149.7z"/>
	<path class="st34" d="M302.9,122.6l-34.3-35.3l-34,35.3l34.1,35.1L302.9,122.6z"/>
	<path class="st30" d="M268.6,87.3l-17.6-17.7l-49.1,19.8l32.7,33.3L268.6,87.3z"/>
	<path class="st35" d="M361.8,253.9c4.5-16.8,5-35.4,0.8-53.1l-26,26.8L361.8,253.9L361.8,253.9z"/>
	<path class="st36" d="M317.3,208.1l19.3,19.6l26-26.8c-0.8-3.3-1.7-6.6-2.8-9.8L317.3,208.1L317.3,208.1z"/>
	<path class="st37" d="M268.8,157.8L236,191.5l45.6-20.4L268.8,157.8z"/>
	<path class="st1" d="M235.9,191.5l32.8-33.8l-34.2-35.2l-33.9,34.5l33.9,35L235.9,191.5z"/>
	<path class="st9" d="M234.6,122.6l-32.7-33.3l-5.3,2.1L166,122.6l34.8,34.5L234.6,122.6z"/>
	<path class="st38" d="M196.6,91.4L152.8,109l13.2,13.6L196.6,91.4z"/>
	<path class="st39" d="M337.8,298.3c2.1-2.3,5.1-6.1,6.9-8.6l-7.5,8L337.8,298.3z"/>
	<path class="st12" d="M336.6,298.3l8.1-8.7c7.8-10.8,13.6-22.9,17.1-35.7l-25.2-26.3l-33.7,34.7L336.6,298.3z"/>
	<path class="st40" d="M269.4,227.8l33.5,34.5l33.7-34.7l-19.3-19.6l-46.9,18.7L269.4,227.8z"/>
	<path class="st4" d="M336.6,298.3l0.6,0.6c0.2-0.2,0.4-0.5,0.6-0.7l-0.5-0.6L336.6,298.3L336.6,298.3z"/>
</g>
</svg>