<svg height="96" width="96" xmlns="http://www.w3.org/2000/svg" xmlns:xlink="http://www.w3.org/1999/xlink"><linearGradient id="a"><stop offset="0" stop-color="#fefefe"/><stop offset="1" stop-color="#fefefe" stop-opacity="0"/></linearGradient><linearGradient id="b" gradientUnits="userSpaceOnUse" x1="36.357143" x2="36.357143" xlink:href="#a" y1="6" y2="63.893143"/><radialGradient id="c" cx="48" cy="90.171875" gradientTransform="matrix(1.1573129 0 0 .99590774 -7.551021 .197132)" gradientUnits="userSpaceOnUse" r="42" xlink:href="#a"/><linearGradient id="d" gradientUnits="userSpaceOnUse" x1="48" x2="48" y1="-6" y2="-128"><stop offset="0" stop-color="#f0f0f0"/><stop offset="1" stop-color="#c6c6c6"/></linearGradient><linearGradient id="e" gradientTransform="matrix(1.0058652 0 0 .994169 100 0)" gradientUnits="userSpaceOnUse" x1="45.447727" x2="45.447727" y1="92.539597" y2="7.01654"><stop offset="0"/><stop offset="1" stop-opacity=".588235"/></linearGradient><linearGradient id="f" gradientTransform="matrix(1.0238095 0 0 -1.0119048 -1.142857 98.071429)" gradientUnits="userSpaceOnUse" x1="32.251034" x2="32.251034" xlink:href="#e" y1="6.131708" y2="90.238609"/><linearGradient id="g" gradientTransform="matrix(1.0238095 0 0 1.0119048 -1.142857 -98.071429)" gradientUnits="userSpaceOnUse" x1="32.251034" x2="32.251034" xlink:href="#e" y1="6.131708" y2="90.238609"/><linearGradient id="h" gradientTransform="translate(0 -97)" gradientUnits="userSpaceOnUse" x1="32.251034" x2="32.251034" xlink:href="#e" y1="6.131708" y2="90.238609"/><g fill="url(#f)"><path d="m12 95.03125c-5.5110903 0-10.03125-4.52016-10.03125-10.03125v-71c0-5.5110902 4.5201598-10.03125 10.03125-10.03125h72c5.51109 0 10.03125 4.5201597 10.03125 10.03125v71c0 5.51109-4.52016 10.03125-10.03125 10.03125z" opacity=".08"/><path d="m12 94.03125c-4.971633 0-9.03125-4.059617-9.03125-9.03125v-71c0-4.9716329 4.0596171-9.03125 9.03125-9.03125h72c4.971633 0 9.03125 4.059617 9.03125 9.03125v71c0 4.971633-4.059617 9.03125-9.03125 9.03125z" opacity=".1"/><path d="m12 93c-4.4091333 0-8-3.590867-8-8v-71c0-4.4091333 3.5908667-8 8-8h72c4.409133 0 8 3.5908667 8 8v71c0 4.409133-3.590867 8-8 8z" opacity=".2"/></g><rect fill="url(#g)" height="85" opacity=".3" rx="7" transform="scale(1 -1)" width="86" x="5" y="-92"/><rect fill="url(#h)" height="84" opacity=".45" rx="6" transform="scale(1 -1)" width="84" x="6" y="-91"/><rect fill="url(#d)" height="84" rx="6" transform="scale(1 -1)" width="84" x="6" y="-90"/><path d="m12 6c-3.324 0-6 2.676-6 6v2 68 2c0 .334721.04135.6507.09375.96875.0487.295596.09704.596915.1875.875.00988.03038.020892.0636.03125.09375.098865.287771.2348802.547452.375.8125.1445918.273507.3156161.535615.5.78125s.3737765.473472.59375.6875c.439947.428056.94291.814526 1.5 1.09375.278545.139612.5734731.246947.875.34375-.2562018-.100222-.4867109-.236272-.71875-.375-.00741-.0044-.023866.0045-.03125 0-.031933-.0193-.062293-.04251-.09375-.0625-.120395-.0767-.2310226-.163513-.34375-.25-.1061728-.0808-.2132809-.161112-.3125-.25-.1779299-.161433-.3474596-.345388-.5-.53125-.1075789-.130255-.2183939-.265285-.3125-.40625-.025089-.03838-.038446-.08587-.0625-.125-.064763-.103032-.1302275-.204517-.1875-.3125-.1010083-.194706-.2056748-.415701-.28125-.625-.00796-.02181-.023589-.04055-.03125-.0625-.0318251-.09195-.0358045-.186831-.0625-.28125-.0303323-.106618-.0703894-.203031-.09375-.3125-.0728786-.341512-.125-.698205-.125-1.0625v-2-68-2c0-2.781848 2.2181517-5 5-5h2 68 2c2.781848 0 5 2.218152 5 5v2 68 2c0 .364295-.05212.720988-.125 1.0625-.04415.206893-.08838.397658-.15625.59375-.0077.02195-.0233.04069-.03125.0625-.06274.173739-.138383.367449-.21875.53125-.04158.0828-.07904.169954-.125.25-.0546.09721-.126774.18835-.1875.28125-.09411.140965-.204921.275995-.3125.40625-.143174.17445-.303141.346998-.46875.5-.01117.0102-.01998.02115-.03125.03125-.138386.125556-.285091.234436-.4375.34375-.102571.07315-.204318.153364-.3125.21875-.0074.0045-.02384-.0044-.03125 0-.232039.138728-.462548.274778-.71875.375.301527-.0968.596455-.204138.875-.34375.55709-.279224 1.060053-.665694 1.5-1.09375.219973-.214028.409366-.441865.59375-.6875s.355408-.507743.5-.78125c.14012-.265048.276135-.524729.375-.8125.01041-.03078.02133-.06274.03125-.09375.09046-.278085.1388-.579404.1875-.875.0524-.31805.09375-.634029.09375-.96875v-2-68-2c0-3.324-2.676-6-6-6z" fill="url(#b)" opacity=".5"/><path d="m12 90c-3.324 0-6-2.676-6-6v-2-68-2c0-.334721.04135-.6507.09375-.96875.0487-.295596.09704-.596915.1875-.875.00988-.03038.020892-.0636.03125-.09375.098865-.287771.2348802-.547452.375-.8125.1445918-.273507.3156161-.535615.5-.78125s.3737765-.473472.59375-.6875c.439947-.428056.94291-.814526 1.5-1.09375.278545-.139612.5734731-.246947.875-.34375-.2562018.100222-.4867109.236272-.71875.375-.00741.0044-.023866-.0045-.03125 0-.031933.0193-.062293.04251-.09375.0625-.120395.0767-.2310226.163513-.34375.25-.1061728.0808-.2132809.161112-.3125.25-.1779299.161433-.3474596.345388-.5.53125-.1075789.130255-.2183939.265285-.3125.40625-.025089.03838-.038446.08587-.0625.125-.064763.103032-.1302275.204517-.1875.3125-.1010083.194706-.2056748.415701-.28125.625-.00796.02181-.023589.04055-.03125.0625-.0318251.09195-.0358045.186831-.0625.28125-.0303323.106618-.0703894.203031-.09375.3125-.0728786.341512-.125.698205-.125 1.0625v2 68 2c0 2.781848 2.2181517 5 5 5h2 68 2c2.781848 0 5-2.218152 5-5v-2-68-2c0-.364295-.05212-.720988-.125-1.0625-.04415-.206893-.08838-.397658-.15625-.59375-.0077-.02195-.0233-.04069-.03125-.0625-.06274-.173739-.138383-.367449-.21875-.53125-.04158-.0828-.07904-.169954-.125-.25-.0546-.09721-.126774-.18835-.1875-.28125-.09411-.140965-.204921-.275995-.3125-.40625-.143174-.17445-.303141-.346998-.46875-.5-.01117-.0102-.01998-.02115-.03125-.03125-.138386-.125556-.285091-.234436-.4375-.34375-.102571-.07315-.204318-.153364-.3125-.21875-.0074-.0045-.02384.0044-.03125 0-.232039-.138728-.462548-.274778-.71875-.375.301527.0968.596455.204138.875.34375.55709.279224 1.060053.665694 1.5 1.09375.219973.214028.409366.441865.59375.6875s.355408.507743.5.78125c.14012.265048.276135.524729.375.8125.01041.03078.02133.06274.03125.09375.09046.278085.1388.579404.1875.875.0524.31805.09375.634029.09375.96875v2 68 2c0 3.324-2.676 6-6 6z" fill="url(#c)" opacity=".3"/><path d="m14.502334 81.148254c-.327805-.33655-.423881-1.23444-.232746-2.17516.315677-1.55368.418099-1.60958 3.394948-1.8532 3.447628-.28214 4.882516-1.22251 6.039688-3.95816.581315-1.37428 7.181477-32.92244 7.181477-34.32679 0-.21927-1.137461-.39868-2.527692-.39868-2.805951 0-3.215459-.43768-2.585285-2.76312.385768-1.423537.566619-1.515506 3.259783-1.657721 2.638358-.139321 2.8737-.251906 3.150459-1.507155 1.801929-8.17262 3.324838-11.394649 6.389637-13.518556 1.86001-1.288988 2.401008-1.402421 6.688591-1.402421 5.516186 0 6.128849.354198 5.414649 3.130363-.327776 1.274095-.727288 1.831173-1.221303 1.702994-2.049172-.531685-5.411303-.591119-6.636966-.117326-2.249363.869513-3.844299 4.091372-4.691134 9.476341l-.335769 2.135136h4.083289c4.462714 0 4.731345.239609 3.601185 3.212155-.454422 1.19522-.719064 1.27641-4.609813 1.41426l-4.12771.14624-3.461748 17.08109c-3.88801 19.18438-4.70182 21.53605-8.336747 24.09077-1.879218 1.32077-2.693347 1.54972-6.025666 1.69459-2.436804.10594-4.058059-.0432-4.411127-.40565z" fill="#ff6311" stroke-width=".502385"/><path d="m59.306751 66.485813c-1.333213-.626212-2.834963-1.600671-3.337238-2.165462-1.061625-1.193804-1.753225-.965519-1.753225.578713 0 .597544-.2618 1.348239-.581762 1.668212-.563988.563985-3.861638.824825-4.342938.343523-.4546-.454592 9.255913-48.407612 9.883175-48.805719 1.067238-.677338 4.259263-.4689 4.553288.297327.232225.605161-2.990588 17.259832-3.981838 20.57717-.272775.912851.08.698114 1.648575-1.003633 3.988338-4.326842 9.613975-6.187615 13.834213-4.575892 4.220262 1.611735 5.788075 4.673054 5.738712 11.205486-.119625 15.831484-11.0444 26.866859-21.660962 21.880275zm8.833062-4.655412c5.467638-3.333765 9.0496-16.160592 6.126138-21.937355-2.601075-5.139697-11.033963-1.420845-14.950313 6.592986-.667337 1.36552-1.660462 4.533871-2.206962 7.04078l-.993625 4.558015 1.35345 1.442295c.7444.793262 2.007937 1.850162 2.807875 2.348667 1.969162 1.227154 5.81275 1.204969 7.863437-.04539z" fill="#4d62ff" stroke-width=".484807"/></svg>