<svg xmlns="http://www.w3.org/2000/svg" xmlns:xlink="http://www.w3.org/1999/xlink" width="380.001" height="379.999"><defs><linearGradient id="a" x1="187.947" x2="187.947" y1="123.859" y2="258.865" gradientUnits="userSpaceOnUse"><stop offset="0" style="stop-color:#bf0000;stop-opacity:1"/><stop offset="1" style="stop-color:#8f0000;stop-opacity:1"/></linearGradient><linearGradient xlink:href="#a" id="b" x1="187.947" x2="187.947" y1="123.859" y2="258.865" gradientTransform="matrix(2.17444 0 0 2.17437 -218.687 -223.172)" gradientUnits="userSpaceOnUse"/></defs><path d="M0 12.724V29.5c7.015 0 12.723 5.707 12.723 12.72 0 7.016-5.708 12.724-12.723 12.724V71.72c7.015 0 12.723 5.708 12.723 12.72 0 7.017-5.708 12.725-12.723 12.725v16.775c7.015 0 12.723 5.708 12.723 12.729 0 7.021-5.708 12.729-12.723 12.729v16.775c7.015 0 12.723 5.703 12.723 12.72S7.015 181.616 0 181.616v16.776c7.015 0 12.723 5.703 12.723 12.72 0 7.016-5.708 12.724-12.723 12.724v16.775c7.015 0 12.723 5.704 12.723 12.72 0 7.017-5.708 12.725-12.723 12.725v16.775c7.015 0 12.723 5.704 12.723 12.72 0 7.017-5.708 12.725-12.723 12.725v16.775c7.015 0 12.723 5.703 12.723 12.72S7.015 350.495 0 350.495v16.784a12.81 12.81 0 0 1 8.998 3.725 12.81 12.81 0 0 1 3.725 8.995h16.775c0-7.016 5.708-12.72 12.723-12.72 7.015 0 12.723 5.704 12.723 12.72H71.72c0-7.016 5.707-12.72 12.722-12.72s12.723 5.704 12.723 12.72h16.776c0-7.016 5.708-12.72 12.722-12.72 7.015 0 12.723 5.704 12.723 12.72h16.776c0-7.016 5.708-12.72 12.722-12.72 7.015 0 12.723 5.704 12.723 12.72h16.776c0-7.016 5.708-12.72 12.722-12.72 7.015 0 12.723 5.704 12.723 12.72h16.776c0-7.016 5.708-12.72 12.723-12.72 7.014 0 12.722 5.704 12.722 12.72h16.776c0-7.016 5.708-12.72 12.723-12.72 7.014 0 12.722 5.704 12.722 12.72h16.776c0-7.016 5.708-12.72 12.723-12.72 7.015 0 12.722 5.704 12.722 12.72h16.785c0-3.35 1.359-6.63 3.73-8.995a12.793 12.793 0 0 1 8.995-3.725v-16.775c-7.017 0-12.725-5.708-12.725-12.724 0-7.017 5.708-12.72 12.725-12.72v-16.776c-7.017 0-12.725-5.707-12.725-12.724s5.708-12.72 12.725-12.72v-16.775c-7.017 0-12.725-5.708-12.725-12.725 0-7.017 5.708-12.72 12.725-12.72v-16.775c-7.017 0-12.725-5.708-12.725-12.725 0-7.016 5.708-12.72 12.725-12.72v-16.775c-7.017 0-12.725-5.708-12.725-12.724 0-7.017 5.708-12.72 12.725-12.72v-16.776c-7.017 0-12.725-5.707-12.725-12.728s5.708-12.73 12.725-12.73V97.174c-7.017 0-12.725-5.708-12.725-12.725 0-7.012 5.708-12.72 12.725-12.72V54.953c-7.017 0-12.725-5.708-12.725-12.725 0-7.012 5.708-12.72 12.725-12.72V12.724c-3.351 0-6.63-1.359-8.996-3.724a12.814 12.814 0 0 1-3.729-9H350.5c0 7.017-5.708 12.724-12.723 12.724-7.014 0-12.722-5.707-12.722-12.724h-16.776c0 7.017-5.708 12.724-12.723 12.724-7.014 0-12.722-5.707-12.722-12.724h-16.776c0 7.017-5.708 12.724-12.723 12.724-7.014 0-12.722-5.707-12.722-12.724h-16.776c0 7.017-5.708 12.724-12.723 12.724-7.015 0-12.722-5.707-12.722-12.724h-16.776c0 7.017-5.708 12.724-12.723 12.724-7.015 0-12.723-5.707-12.723-12.724h-16.775c0 7.017-5.708 12.724-12.723 12.724-7.015 0-12.723-5.707-12.723-12.724H97.174c0 7.017-5.708 12.724-12.723 12.724-7.015 0-12.723-5.707-12.723-12.724H54.952c0 7.017-5.707 12.724-12.722 12.724S29.507 7.017 29.507 0H12.723c0 3.35-1.36 6.63-3.725 9A12.828 12.828 0 0 1 0 12.724z" style="fill:url(#b)"/><path d="M323.713 152.05H134.091l9.896-46.3H259.56l10.602-49.832H104.047L51.739 302.61h50.188l22.968-107.796h120.38L140.673 298.367l18.379 32.513c8.48-5.653 22.264-6.362 31.807-6.362 16.967 0 33.578 5.658 50.89 5.658 15.876 0 32.128-1.061 58.639-13.786l9.263-43.47c-18.028 7.42-44.702 14.49-67.901 14.49-9.537 0-18.374-2.12-27.563-3.533l101.396-98.603 8.13-33.225z" style="fill:#fff"/></svg>