<svg xmlns="http://www.w3.org/2000/svg" xmlns:xlink="http://www.w3.org/1999/xlink" fill="#ffffff" width="2rem" height="2rem" version="1.1" id="lni_lni-skipping-rope" x="0px" y="0px" viewBox="0 0 64 64" style="enable-background:new 0 0 64 64;" xml:space="preserve" b-4c64fgwaxx="">
<path d="M55.4,43.4h-7.2c-3.3,0-6.2,2.2-7.1,5.3H18.9c-4.1,0-7.5-3.4-7.5-7.5s3.4-7.5,7.5-7.5h26.2c6.1,0,11-4.9,11-11 &#10;&#9;c0-6.1-4.9-11-11-11H23.2v-0.5c0-4.1-3.3-7.4-7.4-7.4H8.6c-4.1,0-7.4,3.3-7.4,7.4v1.9c0,4.1,3.3,7.4,7.4,7.4h7.2 &#10;&#9;c3.3,0,6.2-2.2,7.1-5.3h22.2c4.1,0,7.5,3.4,7.5,7.5s-3.4,7.5-7.5,7.5H18.9c-6.1,0-11,4.9-11,11s4.9,11,11,11h21.9v0.5 &#10;&#9;c0,4.1,3.3,7.4,7.4,7.4h7.2c4.1,0,7.4-3.3,7.4-7.4v-1.9C62.8,46.7,59.4,43.4,55.4,43.4z M19.7,13.2c0,2.1-1.7,3.9-3.9,3.9H8.6 &#10;&#9;c-2.1,0-3.9-1.7-3.9-3.9v-1.9c0-2.1,1.7-3.9,3.9-3.9h7.2c2.1,0,3.9,1.7,3.9,3.9V13.2z M59.3,52.7c0,2.1-1.7,3.9-3.9,3.9h-7.2 &#10;&#9;c-2.1,0-3.9-1.7-3.9-3.9v-1.9c0-2.1,1.7-3.9,3.9-3.9h7.2c2.1,0,3.9,1.7,3.9,3.9V52.7z" b-4c64fgwaxx="" fill="#fe008a"/>
</svg>