<svg xmlns="http://www.w3.org/2000/svg" xmlns:xlink="http://www.w3.org/1999/xlink" width="96" height="96"><linearGradient id="a"><stop offset="0" stop-color="#fefefe"/><stop offset="1" stop-color="#fefefe" stop-opacity="0"/></linearGradient><linearGradient xlink:href="#a" id="g" x1="36.357" x2="36.357" y1="6" y2="63.893" gradientUnits="userSpaceOnUse"/><radialGradient xlink:href="#a" id="h" cx="48" cy="90.172" r="42" gradientTransform="matrix(1.15731 0 0 .9959 -7.551 .197)" gradientUnits="userSpaceOnUse"/><linearGradient id="f" x1="48" x2="48" y1="-6" y2="-128" gradientUnits="userSpaceOnUse"><stop offset="0" stop-color="#f0f0f0"/><stop offset="1" stop-color="#c6c6c6"/></linearGradient><linearGradient id="b" x1="45.448" x2="45.448" y1="92.54" y2="7.017" gradientTransform="matrix(1.00587 0 0 .99417 100 0)" gradientUnits="userSpaceOnUse"><stop offset="0"/><stop offset="1" stop-opacity=".588"/></linearGradient><linearGradient xlink:href="#b" id="c" x1="32.251" x2="32.251" y1="6.132" y2="90.239" gradientTransform="matrix(1.0238 0 0 -1.0119 -1.143 98.071)" gradientUnits="userSpaceOnUse"/><linearGradient xlink:href="#b" id="d" x1="32.251" x2="32.251" y1="6.132" y2="90.239" gradientTransform="matrix(1.0238 0 0 1.0119 -1.143 -98.071)" gradientUnits="userSpaceOnUse"/><linearGradient xlink:href="#b" id="e" x1="32.251" x2="32.251" y1="6.132" y2="90.239" gradientTransform="translate(0 -97)" gradientUnits="userSpaceOnUse"/><g fill="url(#c)"><path d="M12 95.031c-5.511 0-10.031-4.52-10.031-10.031V14C1.969 8.489 6.489 3.969 12 3.969h72c5.511 0 10.031 4.52 10.031 10.031v71c0 5.511-4.52 10.031-10.031 10.031z" opacity=".08"/><path d="M12 94.031c-4.972 0-9.031-4.06-9.031-9.031V14c0-4.972 4.06-9.031 9.031-9.031h72c4.972 0 9.031 4.06 9.031 9.031v71c0 4.972-4.06 9.031-9.031 9.031z" opacity=".1"/><path d="M12 93c-4.41 0-8-3.59-8-8V14c0-4.41 3.59-8 8-8h72c4.41 0 8 3.59 8 8v71c0 4.41-3.59 8-8 8z" opacity=".2"/></g><rect width="86" height="85" x="5" y="-92" fill="url(#d)" opacity=".3" rx="7" transform="scale(1 -1)"/><rect width="84" height="84" x="6" y="-91" fill="url(#e)" opacity=".45" rx="6" transform="scale(1 -1)"/><rect width="84" height="84" x="6" y="-90" fill="url(#f)" rx="6" transform="scale(1 -1)"/><path fill="url(#g)" d="M12 6c-3.324 0-6 2.676-6 6v72c0 .335.041.65.094.969.048.295.097.597.187.875l.032.094c.098.287.234.547.375.812.144.274.315.536.5.781s.373.474.593.688c.44.428.943.814 1.5 1.094.279.14.574.246.875.343a4.843 4.843 0 0 1-.719-.375c-.007-.004-.023.005-.03 0-.033-.02-.063-.042-.095-.062-.12-.077-.23-.164-.343-.25-.106-.081-.214-.161-.313-.25a5.042 5.042 0 0 1-.5-.531 5.092 5.092 0 0 1-.312-.407c-.025-.038-.039-.086-.063-.125-.065-.103-.13-.204-.187-.312a5.371 5.371 0 0 1-.282-.625c-.007-.022-.023-.04-.03-.063-.033-.092-.037-.187-.063-.281-.03-.107-.07-.203-.094-.313A5.098 5.098 0 0 1 7 85V13c0-2.782 2.218-5 5-5h72c2.782 0 5 2.218 5 5v72a5.1 5.1 0 0 1-.125 1.063 4.896 4.896 0 0 1-.156.593c-.008.022-.024.04-.031.063a5.482 5.482 0 0 1-.22.531c-.04.083-.078.17-.124.25-.055.097-.127.188-.188.281a5.092 5.092 0 0 1-.312.406 5.05 5.05 0 0 1-.469.5l-.031.032a4.818 4.818 0 0 1-.438.344c-.102.073-.204.153-.312.218-.008.005-.024-.004-.031 0a4.843 4.843 0 0 1-.72.375c.302-.097.597-.204.876-.344a6.105 6.105 0 0 0 2.094-1.78 6 6 0 0 0 .5-.782 5.69 5.69 0 0 0 .374-.813l.032-.093c.09-.278.139-.58.187-.875.053-.318.094-.634.094-.969V12c0-3.324-2.676-6-6-6z" opacity=".5"/><path fill="url(#h)" d="M12 90c-3.324 0-6-2.676-6-6V12c0-.335.041-.65.094-.969.048-.295.097-.597.187-.875l.032-.094a5.69 5.69 0 0 1 .375-.812c.144-.274.315-.536.5-.781s.373-.474.593-.688a6.1 6.1 0 0 1 1.5-1.093c.279-.14.574-.247.875-.344-.256.1-.486.236-.719.375-.007.004-.023-.005-.03 0-.033.019-.063.042-.095.062-.12.077-.23.164-.343.25-.106.081-.214.161-.313.25a5.042 5.042 0 0 0-.5.532 5.14 5.14 0 0 0-.312.406c-.025.038-.039.086-.063.125-.065.103-.13.204-.187.312a5.371 5.371 0 0 0-.282.625c-.007.022-.023.04-.03.063-.033.092-.037.187-.063.281-.03.107-.07.203-.094.313A5.098 5.098 0 0 0 7 11v72c0 2.782 2.218 5 5 5h72c2.782 0 5-2.218 5-5V11a5.1 5.1 0 0 0-.125-1.063 4.896 4.896 0 0 0-.156-.593c-.008-.022-.024-.04-.031-.063a5.482 5.482 0 0 0-.22-.531c-.04-.083-.078-.17-.124-.25-.055-.097-.127-.188-.188-.281a5.092 5.092 0 0 0-.312-.406 5.05 5.05 0 0 0-.469-.5l-.031-.032a4.818 4.818 0 0 0-.438-.343c-.102-.074-.204-.154-.312-.22-.008-.004-.024.005-.031 0a4.843 4.843 0 0 0-.72-.374c.302.097.597.204.876.343a6.105 6.105 0 0 1 2.094 1.782c.184.245.355.507.5.781.14.265.276.525.374.813l.032.093c.09.278.139.58.187.875.053.318.094.634.094.969v72c0 3.324-2.676 6-6 6z" opacity=".3"/><path fill="#ff6311" d="M14.502 81.148c-.327-.336-.424-1.234-.232-2.175.315-1.554.418-1.61 3.395-1.853 3.447-.282 4.882-1.223 6.04-3.958.58-1.375 7.18-32.923 7.18-34.327 0-.22-1.137-.399-2.527-.399-2.806 0-3.215-.437-2.585-2.763.385-1.423.566-1.515 3.26-1.658 2.638-.139 2.873-.251 3.15-1.507 1.802-8.172 3.325-11.394 6.39-13.518 1.86-1.29 2.4-1.403 6.688-1.403 5.516 0 6.129.354 5.415 3.13-.328 1.275-.727 1.832-1.221 1.704-2.05-.532-5.412-.591-6.637-.118-2.25.87-3.845 4.092-4.692 9.477l-.335 2.135h4.083c4.463 0 4.731.24 3.601 3.212-.454 1.195-.719 1.276-4.61 1.414l-4.127.146-3.462 17.082c-3.888 19.184-4.702 21.536-8.337 24.09-1.88 1.321-2.693 1.55-6.026 1.695-2.436.106-4.058-.043-4.41-.406z"/><path fill="#4d62ff" d="M59.307 66.486c-1.333-.626-2.835-1.6-3.337-2.166-1.062-1.193-1.754-.965-1.754.58 0 .597-.262 1.347-.581 1.667-.564.564-3.862.825-4.343.344-.455-.455 9.256-48.408 9.883-48.806 1.067-.677 4.259-.469 4.553.297.232.606-2.99 17.26-3.982 20.578-.273.912.08.698 1.649-1.004 3.988-4.327 9.614-6.188 13.834-4.576 4.22 1.612 5.788 4.673 5.739 11.206-.12 15.831-11.045 26.866-21.661 21.88zm8.833-4.656c5.467-3.333 9.05-16.16 6.126-21.937-2.601-5.14-11.034-1.42-14.95 6.593-.668 1.366-1.66 4.534-2.207 7.04l-.994 4.559 1.354 1.442c.744.793 2.007 1.85 2.807 2.349 1.97 1.227 5.813 1.205 7.864-.046z"/></svg>