<svg xmlns="http://www.w3.org/2000/svg" xmlns:xlink="http://www.w3.org/1999/xlink" version="1.1" id="Layer_1" x="0px" y="0px" style="enable-background:new 0 0 512 512;" xml:space="preserve" viewBox="34.2 0 443.5 512">
<style type="text/css">
	.st0{fill-rule:evenodd;clip-rule:evenodd;fill:#590099;}
</style>
<path class="st0" d="M326,200.8l-24.3,66.7H279c-24.2,0-51,19.7-59.9,43.9l-40.7,111.8h44.2L101.6,512l-56.5-88.8h44.4l48.9-134.5  c17.7-48.6,71.4-87.9,119.9-87.9L326,200.8z M398.8,0l78.9,89l-143.8,89l16.2-44.5H238.6c-49.1,0-103.3,39.7-121.2,88.7l-16.3,44.7  H34.2l24.4-67C89.9,114.1,185,44.5,271,44.5h111.6L398.8,0z"/>
</svg>