<?xml version="1.0" encoding="UTF-8"?>
<svg id="svg5" xmlns="http://www.w3.org/2000/svg" xmlns:xlink="http://www.w3.org/1999/xlink" viewBox="0 0 604.64 717.15">
  <defs>
    <style>
      .cls-1 {
        fill: url(#linear-gradient);
      }

      .cls-1, .cls-2, .cls-3, .cls-4 {
        stroke-width: 0px;
      }

      .cls-2 {
        fill: #4f87d3;
      }

      .cls-3 {
        fill: rgba(131, 116, 211, .98);
      }

      .cls-4 {
        fill: url(#linear-gradient-2);
      }
    </style>
    <linearGradient id="linear-gradient" x1="-420.63" y1="727.47" x2="-436.09" y2="724.6" gradientTransform="translate(3708.44 5989.72) scale(7.78 -7.78)" gradientUnits="userSpaceOnUse">
      <stop offset="0" stop-color="#ac5fc8"/>
      <stop offset="1" stop-color="#ac5fc8" stop-opacity="0"/>
    </linearGradient>
    <linearGradient id="linear-gradient-2" x1="-521.09" y1="727.23" x2="-562.95" y2="724.58" gradientTransform="translate(4531.86 5997.19) scale(7.78 -7.78)" gradientUnits="userSpaceOnUse">
      <stop offset="0" stop-color="#03a2db"/>
      <stop offset="1" stop-color="#03a2db" stop-opacity="0"/>
    </linearGradient>
  </defs>
  <g id="layer1">
    <g id="g19295">
      <path id="path357" class="cls-3" d="m433.17,316.49c5.93,13.89-6.09,32.13-54.28,82.41-51.66,53.89-66.13,63.31-87.48,56.95-21.35-6.36-28.32-22.16-42.1-95.52-21.01-111.9-13.87-118.27,96-85.56,55.67,16.57,82.58,29.35,87.86,41.72h0Z"/>
      <path id="path357-3" class="cls-1" d="m433.17,316.49c5.93,13.89-6.09,32.13-54.28,82.41-51.66,53.89-66.13,63.31-87.48,56.95-21.35-6.36-28.32-22.16-42.1-95.52-21.01-111.9-13.87-118.27,96-85.56,55.67,16.57,82.58,29.35,87.86,41.72h0Z"/>
    </g>
    <path id="path129" class="cls-2" d="m183.71,662.15C302.63,524.9-4.27,127.42,304.85,178.88c37.9,5.88,70.33,8.52,125.92,2.99,77.35-46.59,69.13-60.25,118.87-107.27-253.81,3.08-157.78,18.7-297.37-5.24-46.8-8.03-115.83-27.08-160.15-1.42-48.13,27.86-36.95,115.23-33.54,161.4,9.94,134.43,31.8,329.96,125.13,432.82"/>
    <path id="path129-6" class="cls-4" d="m183.71,662.15C302.63,524.9-4.27,127.42,304.85,178.88c37.9,5.88,70.33,8.52,125.92,2.99,77.35-46.59,69.13-60.25,118.87-107.27-253.81,3.08-157.78,18.7-297.37-5.24-46.8-8.03-115.83-27.08-160.15-1.42-48.13,27.86-36.95,115.23-33.54,161.4,9.94,134.43,31.8,329.96,125.13,432.82"/>
  </g>
</svg>