<?xml version="1.0" encoding="utf-8"?>
<!-- Generator: Adobe Illustrator 28.0.0, SVG Export Plug-In . SVG Version: 6.00 Build 0)  -->
<svg version="1.1" id="Layer_1" xmlns="http://www.w3.org/2000/svg" xmlns:xlink="http://www.w3.org/1999/xlink" x="0px" y="0px"
	 viewBox="0 0 110 110" style="enable-background:new 0 0 110 110;" xml:space="preserve">
<style type="text/css">
	.st0{fill:#3DDB83;}
	.st1{fill:#00A3DB;}
	.st2{fill:#39D888;}
	.st3{fill:#05A8D4;}
	.st4{fill:#3CDA85;}
	.st5{fill:#3BD984;}
	.st6{fill:#36D58D;}
	.st7{fill:#38D68B;}
	.st8{fill:#29C89F;}
	.st9{fill:#3BD986;}
	.st10{fill:#23C3A8;}
	.st11{fill:#34D390;}
	.st12{fill:#1DBEB0;}
	.st13{fill:#33D291;}
	.st14{fill:#1FC0AE;}
	.st15{fill:#35D48E;}
	.st16{fill:#2ACA9E;}
	.st17{fill:#12B4C0;}
	.st18{fill:#1BBBB3;}
	.st19{fill:#27C6A2;}
	.st20{fill:#1EBFB0;}
	.st21{fill:#10B2C3;}
	.st22{fill:#0BADCB;}
	.st23{fill:#30CE95;}
	.st24{fill:#2DCC9A;}
	.st25{fill:#0EB0C6;}
	.st26{fill:#21C1AC;}
	.st27{fill:#0AACCC;}
	.st28{fill:#2FCE97;}
	.st29{fill:#25C4A5;}
	.st30{fill:#33D191;}
	.st31{fill:#32D093;}
	.st32{fill:#08AACF;}
	.st33{fill:#23C3A9;}
	.st34{fill:#32D193;}
	.st35{fill:#19BAB6;}
	.st36{fill:#17B8B9;}
	.st37{fill:#31D094;}
	.st38{fill:#2ECC99;}
	.st39{fill:#0DAFC8;}
	.st40{fill:#2BCA9C;}
	.st41{fill:#24C4A7;}
	.st42{fill:#04A7D4;}
	.st43{fill:#11B3C2;}
	.st44{fill:#2ECC98;}
	.st45{fill:#28C7A1;}
	.st46{fill:#0FB1C5;}
	.st47{fill:#15B5BC;}
	.st48{fill:#22C2AA;}
	.st49{fill:#1DBDB0;}
	.st50{fill:#1FBFAE;}
	.st51{fill:#01A4D9;}
	.st52{fill:#02A5D7;}
	.st53{fill:#02A5D8;}
	.st54{fill:#07A9D1;}
	.st55{fill:#03A6D6;}
	.st56{fill:#0CAEC9;}
	.st57{fill:#28C8A1;}
	.st58{fill:#1CBDB2;}
	.st59{fill:#29C9A0;}
	.st60{fill:#14B5BE;}
	.st61{fill:#12B4C1;}
	.st62{fill:#16B7BB;}
	.st63{fill:#1ABBB5;}
	.st64{fill:#18B9B9;}
	.st65{fill:#19BAB7;}
	.st66{fill:#17B8BA;}
	.st67{fill:#25C5A6;}
	.st68{fill:#26C6A4;}
	.st69{fill:#08AAD0;}
	.st70{fill:#0AACCD;}
	.st71{fill:#09ABCE;}
	.st72{fill:#10B2C4;}
	.st73{fill:#2FCE98;}
	.st74{fill:#31D095;}
	.st75{fill:#27C7A3;}
	.st76{fill:#18B9B8;}
	.st77{fill:#2DCC9B;}
	.st78{fill:#0CAECA;}
	.st79{fill:#0EB0C7;}
	.st80{fill:#31CF94;}
	.st81{fill:#1ABBB6;}
	.st82{fill:#1BBCB4;}
	.st83{fill:#10B1C2;}
	.st84{fill:#0D9AAB;}
	.st85{fill:#31CD90;}
	.st86{fill:#2DC28C;}
	.st87{fill:#1EB9A8;}
	.st88{fill:#31C485;}
	.st89{fill:#30C78B;}
	.st90{fill:#30CF96;}
	.st91{fill:#2ECD99;}
	.st92{fill:#2CCB9C;}
</style>
<path class="st0" d="M8.2,97.6c-2-1.2-3.2-2.9-3.2-5.3c-0.1-3.8,0.8-7.4,1.9-11c4-12.8,9.9-24.8,16.3-36.5c6-10.9,12.5-21.4,20.5-31
	c2.2-2.6,4.5-5.1,7.3-7.1c3.4-2.3,5.8-2.1,8.9,0.7c0.3,0.5,0.4,1,0,1.6c-2.4,4.2-4.9,8.3-7.2,12.6C51,24.8,49,27.8,47.1,31
	c-2,2.9-4.1,5.7-6.1,8.6c-6.1,9.2-11.1,19-15.5,29.2c-0.8,0.5-0.9,1.4-1.3,2.2C20,78.6,15.1,86,11,93.9C10.3,95.2,9.9,96.9,8.2,97.6
	L8.2,97.6z"/>
<path class="st1" d="M96.3,63.9c3.5,7.8,6.8,15.7,8.3,24.3c1.2,6.6-0.1,8.9-6.3,11.4c-5.8,2.3-11.9,3.3-18.1,3.9
	c-2.6,0.2-5.2,0.4-7.8,0.6c3.2-5.4,6.1-11,9.6-16.3c0.1-0.1,0.2-0.3,0.3-0.4c1.8-0.8,3.7-1.5,5-3.1c0.6-0.5,0.8-1.1,0.8-1.8
	c-0.1-1.5-0.2-3-0.3-4.6c2.2-4.9,5.2-9.3,8-13.8C96,63.9,96.1,63.9,96.3,63.9L96.3,63.9z"/>
<path class="st2" d="M12.1,99.6c-0.6,0-1.1-0.3-1.6-0.7c1.6-2.9,3.1-5.9,4.8-8.8c2.1-3.7,4.3-7.3,6.7-11.3c0.1,0.8,0.1,1.2,0.1,1.5
	c0,0.9,0,1.7,0,2.6C18.8,88.4,15.4,94,12.1,99.6L12.1,99.6z"/>
<path class="st3" d="M72.5,104c2.6-0.2,5.2-0.4,7.8-0.6c-3.4,0.7-6.9,0.8-10.3,1c-1.2,0-2.4,0-3.6-0.1c1.2-2.2,2.3-4.4,3.5-6.6
	c1.6-2.8,3.5-5.4,4.8-8.4c0.1,0,0.2,0,0.3,0c0.7-0.1,1.5-0.2,2.2-0.3c-2.5,5-5.4,9.8-8.2,14.5c0.4,0.7,0.8,0.6,1.2,0.6
	c0.3,0,0.7,0,1,0C71.6,104,72,104,72.5,104L72.5,104z"/>
<path class="st4" d="M8.2,97.6c1.7-0.7,2.1-2.4,2.8-3.7c4.1-7.8,9-15.2,13.2-23c0.4-0.7,0.5-1.6,1.3-2.2c-0.7,2-1.4,4.1-2.1,6.1
	c-0.4,0.5-0.8,1-1.1,1.6c-3.5,6.1-7,12.3-10.6,18.4c-0.7,1.2-1,2.7-2.5,3.4C8.9,98,8.6,97.8,8.2,97.6L8.2,97.6z"/>
<path class="st2" d="M62.2,9.4l0.9,0.9c0.2,0.9-0.2,1.5-0.6,2.2c-1.2,2-2.3,3.9-3.6,5.9c-1.4,2.1-2.2,4.6-4.2,6.4
	c-0.6,0.2-1.3,0.5-1.9,0.7c1.6-2.9,3.3-5.7,4.8-8.6C59.1,14.3,60.4,11.6,62.2,9.4L62.2,9.4z"/>
<path class="st5" d="M47.1,31c1.9-3.1,3.9-6.2,5.7-9.4c2.3-4.2,4.8-8.4,7.2-12.6c0.4-0.6,0.2-1.1,0-1.6c0.8,0.4,1.4,0.9,1.9,1.7
	c-1.1,0.4-1.6,1.4-2.1,2.3c-2.1,3.6-4.1,7.3-6.1,11c-0.7,1.2-1.8,2.2-1.7,3.8C50.3,27.7,48.7,29.3,47.1,31L47.1,31z"/>
<path class="st6" d="M22.1,82.8c0-0.9,0-1.7,0-2.6c0.1,0,0.2,0,0.2,0c0,1.7,0,3.4,1.4,4.8c-2.5,4.3-5,8.6-7.5,12.8
	c-0.5,0.9-0.8,2.2-2.2,2.3c-0.3-0.1-0.6-0.2-0.9-0.3c0.3-0.3,0.7-0.5,0.9-0.8c2.6-4.4,5.2-8.8,7.7-13.2
	C22.3,84.9,22.5,83.9,22.1,82.8L22.1,82.8z"/>
<path class="st7" d="M22.1,82.8c0.4,1.1,0.2,2.1-0.4,3c-2.6,4.4-5.1,8.8-7.7,13.2c-0.2,0.3-0.6,0.6-0.9,0.8
	c-0.3-0.1-0.6-0.2-0.9-0.3C15.4,94,18.8,88.4,22.1,82.8L22.1,82.8z"/>
<path class="st8" d="M29.5,103.4c-1.5,0-3.1-0.2-4.5-0.6c0.2,0,0.4-0.1,0.7-0.1c1.4,0.2,1.6-1,2.1-1.8c2.5-3.6,4.4-7.6,6.4-11.3
	c-0.2-0.6-0.5-0.6-0.8-0.6c0-0.1,0-0.2,0-0.3c1.3,0.2,2.6,0.4,3.9,0.6c-0.3,0-0.7,0-1,0.1c-1.8,1.6-2.2,3.9-3.5,5.8
	c-1.6,2.4-3,5-4.4,7.4c0.3,0.6,0.7,0.5,1.1,0.5C29.4,103.1,29.4,103.3,29.5,103.4L29.5,103.4z"/>
<path class="st9" d="M22.3,80.3c-0.1,0-0.2,0-0.2,0c0-0.4-0.1-0.7-0.1-1.5c-2.4,4-4.6,7.6-6.7,11.3c-1.7,2.9-3.2,5.9-4.8,8.8
	c-0.4-0.2-0.8-0.4-1.3-0.6c1.5-0.7,1.7-2.2,2.5-3.4c3.6-6.1,7.1-12.3,10.6-18.4c0.3-0.5,0.7-1,1.1-1.6
	C23.1,76.7,22.7,78.5,22.3,80.3L22.3,80.3z"/>
<path class="st10" d="M39.1,104.3c-2.3,0-4.5-0.2-6.7-0.6c0-0.1,0-0.2,0-0.4c0.6,0.3,1.1,0.2,1.5-0.4c2.2-4.5,5-8.7,7.5-13
	c0.6,0,1.1,0,1.7-0.1c1.7,0,3.4,0,5.1,0.3c-1.1,0-2.2,0-3.3,0.1c-0.5,0-1.1,0-1.6,0c-0.7,0-1.2,0.5-1.5,1.1c-2,3.8-4.6,7.2-6.3,11
	c-0.2,0.5-0.7,0.9,0.1,1.3c0.5,0.1,1.1,0.2,1.6,0.3c0.6,0,1.3,0,1.9,0l0,0C39.1,104.1,39.1,104.2,39.1,104.3L39.1,104.3z"/>
<path class="st7" d="M54.8,24.7c2-1.7,2.8-4.2,4.2-6.4c1.2-1.9,2.4-3.9,3.6-5.9c0.4-0.7,0.9-1.4,0.6-2.2c0.3,0.3,0.6,0.7,1,1
	c0.1,0.6,0,1.1-0.3,1.7c-2.2,3.7-4.3,7.3-6.5,11c-0.3,0.5-0.7,0.8-1.3,0.8C55.6,24.8,55.2,24.8,54.8,24.7L54.8,24.7z"/>
<path class="st11" d="M15.9,100.8l-0.2,0l-0.1-0.1c1.7-3.8,4.2-7.1,6.2-10.8c0.8-1.5,1.4-3.1,2.8-4.2c0.2,0.1,0.4,0.2,0.7,0.4
	c-2.2,4-4.4,8-6.7,12C17.9,99.1,17.6,100.7,15.9,100.8L15.9,100.8z"/>
<path class="st12" d="M41.3,104.5c-0.4,0.1-0.9,0.1-1.3-0.1c-0.3-0.1-0.6-0.2-0.9-0.3l0,0c2.6-4.4,5.2-8.8,7.9-13.3
	c0.5,0,0.9-0.1,1.4-0.1c-2.3,4.1-4.7,8.2-7,12.4C41.1,103.4,40.5,103.9,41.3,104.5L41.3,104.5L41.3,104.5z"/>
<path class="st6" d="M56,24.8c0.6-0.1,1-0.3,1.3-0.8c2.2-3.7,4.3-7.4,6.5-11c0.3-0.5,0.5-1.1,0.3-1.7c0.4,0.4,0.8,0.9,1.3,1.3
	c-1.5,2.7-2.9,5.5-4.6,8c-1.1,1.6-1.5,3.8-3.5,4.8C56.9,25.2,56.4,25,56,24.8L56,24.8z"/>
<path class="st13" d="M15.9,100.8c1.7-0.2,2-1.7,2.6-2.7c2.3-3.9,4.5-8,6.7-12c0.2,0.1,0.4,0.2,0.7,0.3c0.1,0.1,0.3,0.2,0.4,0.2l0,0
	c-2.4,4.3-4.9,8.6-7.3,12.9c-0.4,0.7-0.8,1.5-1.8,1.6C16.7,101.2,16.3,101.1,15.9,100.8z"/>
<path class="st14" d="M78.9,31.5c0.3,0.5,0.7,1.1,1,1.6c-0.4-0.1-0.7,0.1-0.9,0.4c-1.2,2.1-2.3,4.2-3.5,6.2c-1,1.6-1.4,3.6-3.2,4.6
	c-0.2-0.3-0.4-0.6-0.6-0.9c0-0.1,0-0.3,0.1-0.4c0.7-0.4,0.9-1.1,1.3-1.8C74.9,38,76.6,34.6,78.9,31.5L78.9,31.5z"/>
<path class="st15" d="M57.3,25.4c1.9-1.1,2.4-3.2,3.5-4.8c1.7-2.5,3.1-5.3,4.6-8c0.2,0.3,0.5,0.5,0.7,0.8c-2.1,4.4-4.3,8.7-7.1,12.6
	c-0.2,0-0.5,0-0.7,0C58,25.9,57.6,25.7,57.3,25.4z"/>
<path class="st16" d="M72.5,21.9c0.1,0.1,0.2,0.2,0.2,0.3c0,0.2,0,0.4,0,0.7c-1.5,2.5-2.9,5.1-4.4,7.6c-0.8,1.4-1.3,2.9-2.6,3.9
	c-0.1-0.2-0.3-0.4-0.4-0.5c0.1-0.3,0.1-0.7,0.2-0.9c1.8-3.3,3.6-6.5,5.4-9.8C71.3,22.6,72,22.3,72.5,21.9L72.5,21.9z"/>
<path class="st17" d="M86.6,44.6c0.1,0.2,0.2,0.4,0.3,0.6c-2.2,4.1-4.2,8.3-7.1,12c-0.2-0.4-0.4-0.9-0.6-1.3
	c2.3-3.8,4.8-7.5,6.7-11.5C86.1,44.4,86.4,44.5,86.6,44.6z"/>
<path class="st18" d="M41.3,104.5L41.3,104.5c0.3-0.3,0.8-0.4,0.9-0.7c2.5-4.3,4.9-8.6,7.5-13.1c-0.4-0.1-0.7-0.2-1-0.2
	c0-0.1,0-0.2,0-0.3c4.1,0,8.1,0,12.2,0c0,0.1,0,0.2,0,0.3c-0.5,0-1.1,0-1.6,0c-0.5,0-1.1,0-1.6,0c-0.3,0-0.7,0-1,0
	c-0.4,0-0.9,0-1.3,0c-0.3,0-0.6,0-1,0h-1.3c-0.3,0-0.6,0-1,0c-1-0.1-1.6,0.4-2,1.2c-0.7,1.2-1.6,2.4-2.2,3.7
	c-1.5,2.9-3.5,5.5-4.7,8.7c0.4,0.1,0.7,0.1,1,0.2c0.4,0,0.8,0,1.3,0c0.4,0,0.9,0,1.3,0c0.3,0,0.6,0,1,0l0,0c0,0.1,0,0.2,0,0.2
	l-0.1,0.1C45.6,104.8,43.4,104.7,41.3,104.5L41.3,104.5z"/>
<path class="st19" d="M43,89.9c-0.6,0-1.1,0-1.7,0.1c-0.4,0-0.8,0-1.3,0c-0.4,0-0.9,0-1.3,0c-0.6-0.3-0.9,0.2-1.1,0.6
	c-2.3,3.9-4.5,7.8-6.7,11.6c-0.3,0.6-0.5,1.2,0.5,1.2c0.3,0,0.6,0,1,0l0,0c0,0.1,0,0.2,0,0.4c-1,0-1.9,0-2.9-0.4c0-0.1,0-0.2,0-0.3
	c2.2-3.9,4.4-7.8,6.6-11.7c0.4-0.6,0.9-1.3,0.2-2c0.3,0,0.7,0,1-0.1C39.1,89.4,41,89.7,43,89.9L43,89.9z"/>
<path class="st20" d="M72.3,44.4c1.8-1,2.2-3,3.2-4.6c1.2-2,2.3-4.1,3.5-6.2c0.2-0.4,0.5-0.5,0.9-0.4c0.1,0.2,0.2,0.3,0.3,0.5
	c-1.7,3.8-3.9,7.4-6,11c-0.3,0.5-0.6,0.9-1.2,1C72.8,45.2,72.6,44.8,72.3,44.4L72.3,44.4z"/>
<path class="st21" d="M87.6,46.5c0.3,0.6,0.6,1.1,0.9,1.7c-0.8-0.2-1.2,0.3-1.4,0.9c-0.8,2.1-2.2,3.9-3.2,5.8
	c-1,1.9-2.7,3.5-2.8,5.8c-0.1-0.2-0.2-0.4-0.3-0.7c-0.4-1.4,0.1-2.5,0.8-3.7c1.3-2,2.3-4.2,3.5-6.2C85.9,48.9,86.3,47.4,87.6,46.5
	L87.6,46.5z"/>
<path class="st22" d="M66.4,104.3c1.2,0,2.4,0,3.6,0.1c-2,0.3-3.9,0.4-5.9,0.3c-1.3,0-2.6-0.1-3.8-0.1c-0.1-1,0.6-1.6,1-2.3
	c2.2-4.1,5-7.9,6.8-12.3c0.4,0,0.9,0,1.3,0c-2.6,4.7-5.2,9.3-7.8,13.9c0.3,0.5,0.7,0.5,1.1,0.5c0.3,0,0.6,0,1,0c0.4,0,0.9,0,1.3,0
	C65.3,104.3,65.8,104.3,66.4,104.3L66.4,104.3z"/>
<path class="st23" d="M21.7,102.1c-1,0-2-0.2-2.9-0.6c0.1,0,0.1-0.1,0.2-0.1c0.8,0.1,1.3-0.2,1.7-0.9c2.2-3.9,4.7-7.7,6.6-11.8
	c0.2-0.5,0.6-0.9-0.1-1.4c0-0.1,0-0.2,0-0.3c1,0.3,2,0.6,3,0.9c-0.1,0-0.3,0.1-0.4,0.1c-0.8,0.1-1.2,0.6-1.6,1.2
	c-2.2,3.8-4.3,7.5-6.5,11.3C21.4,101.1,21.1,101.5,21.7,102.1L21.7,102.1L21.7,102.1z"/>
<path class="st24" d="M70.9,19.6c0.2,0.3,0.4,0.6,0.6,0.9c-1.7,3-3.3,6-5,9c-0.6,1.1-0.9,2.4-2.2,3l-0.2-0.3
	C65.7,27.6,68.3,23.6,70.9,19.6L70.9,19.6z"/>
<path class="st25" d="M88.8,48.8c0.2,0.3,0.4,0.7,0.6,1c-1.1,0.9-1.6,2.3-2.2,3.5c-1.7,3.2-3.9,6-5.1,9.5c-0.2-0.4-0.4-0.9-0.6-1.3
	c1.6-3.7,3.9-7.1,5.9-10.6C87.7,50.1,87.6,49,88.8,48.8L88.8,48.8z"/>
<path class="st26" d="M78.9,31.5c-2.3,3.1-3.9,6.5-5.8,9.8c-0.4,0.7-0.6,1.3-1.3,1.8c-0.2-0.4-0.3-0.9-0.5-1.3
	c1.5-2.6,3-5.2,4.5-7.7c0.8-1.2,1.1-2.8,2.5-3.6L78.9,31.5L78.9,31.5z"/>
<path class="st27" d="M91,53c0.2,0.4,0.4,0.9,0.6,1.3l0,0c-0.4-0.1-0.6,0-0.8,0.3c-2.3,4.2-4.6,8.4-6.9,12.5
	c-0.1-0.2-0.2-0.5-0.3-0.7c-0.1-0.2-0.2-0.4-0.3-0.7c0-0.1-0.1-0.2-0.1-0.3c1.5-1.7,2.4-3.8,3.5-5.7C88,57.5,89,54.9,91,53L91,53z"
	/>
<path class="st9" d="M51.9,26.1c-0.1-1.6,1.1-2.6,1.7-3.8c2-3.7,4.1-7.3,6.1-11c0.5-0.9,1-1.9,2.1-2.3c0.1,0.1,0.2,0.2,0.3,0.3
	c-1.8,2.3-3.1,4.9-4.5,7.5c-1.5,2.9-3.2,5.7-4.8,8.6C52.6,25.7,52.2,25.9,51.9,26.1L51.9,26.1z"/>
<path class="st28" d="M69.6,18c0.1,0.1,0.2,0.2,0.2,0.3c-0.1,0.6-0.1,1.2-0.4,1.7c-1.3,2.3-2.6,4.5-3.9,6.7
	c-0.9,1.4-1.2,3.1-2.5,4.2c-0.1-0.1-0.2-0.2-0.2-0.3c-0.2-2,1.2-3.2,2.1-4.7C66.3,23.2,67.6,20.4,69.6,18L69.6,18z"/>
<path class="st29" d="M75.4,26c0.4,0.6,0.8,1.3,1.2,1.9c-0.6-0.2-0.9,0.1-1.1,0.6c-1.2,2.1-2.4,4.2-3.5,6.4
	c-0.8,1.6-2.4,2.9-2.5,4.9c-0.8-0.9-1.4-1.9-1.9-2.9l0.1-0.1c0.2,0.1,0.4,0.2,0.6,0.3c0.2,0.3,0.2,0.6,0.7,0.6
	c2.3-3.2,4.1-6.9,6.1-10.4c0.3-0.5,0.1-0.9-0.1-1.4v0C75.1,26.1,75.3,26,75.4,26L75.4,26z"/>
<path class="st15" d="M24.6,85.7c-1.4,1.1-2,2.8-2.8,4.2c-2,3.6-4.5,7-6.2,10.8c-0.6-0.2-1.1-0.4-1.7-0.6c1.4-0.2,1.6-1.4,2.2-2.3
	c2.5-4.3,5-8.5,7.5-12.8C24,85.3,24.3,85.5,24.6,85.7L24.6,85.7z"/>
<path class="st30" d="M58.3,26.1c0.2,0,0.5,0,0.7,0c0.8,0.9,1.1-0.1,1.4-0.5c2.4-3.7,4.4-7.5,6.3-11.4c0.3,0.4,0.7,0.9,1,1.3
	c-0.9,0.3-1.1,1.1-1.5,1.8c-2,3.5-3.9,6.9-5.9,10.4c-0.1,0-0.2,0-0.3,0C59.4,27.1,58.8,26.6,58.3,26.1L58.3,26.1z"/>
<path class="st31" d="M27.2,87c0,0.1,0,0.2,0,0.3c-0.5,0.6-1,1.2-1.4,1.9c-2.3,4-4.6,8.1-6.8,12.2c-0.1,0-0.1,0.1-0.2,0.1
	c-0.6,0.1-1.1-0.1-1.6-0.4c1-0.1,1.4-0.9,1.8-1.6c2.4-4.3,4.9-8.6,7.3-12.9C26.6,86.8,26.9,86.9,27.2,87L27.2,87z"/>
<path class="st32" d="M92,54.9c0.8,1.3,1.5,2.7,2,4.1c-0.1,0-0.3,0-0.4,0c-0.1-0.3-0.2-0.6-0.4-0.9c-0.3-0.5-0.3-1.2-1.1-1.4
	c-0.7,1.2-1.5,2.3-2.1,3.5c-1.6,3.2-3.8,6-5.1,9.4c-0.2-0.5-0.4-1.1-0.6-1.6C87.3,64,89.5,59.4,92,54.9L92,54.9L92,54.9z"/>
<path class="st33" d="M77,28.6c0.1,0.1,0.1,0.2,0.2,0.3c-0.1,0.6-0.1,1.2-0.4,1.7c-1.7,3.1-3.5,6.2-5.3,9.3
	c-0.3,0.4-0.5,1.1-1.3,0.9c0.1-0.4,0-0.9,0.2-1.2C72.7,36,74.5,32,77,28.6L77,28.6z"/>
<path class="st23" d="M60,27.7c0.1,0,0.2,0,0.3,0c0.3,0.2,0.6,0.4,0.9,0.7c0.6,0.8,0.9,0.3,1.3-0.3c0.6-1,1.2-1.9,1.7-2.9
	c1.4-2.8,3.5-5.4,4.4-8.5c0.3,0.4,0.7,0.9,1,1.3c-2,2.4-3.3,5.2-4.8,7.9c-0.8,1.5-2.3,2.8-2.1,4.7C61.9,29.6,60.9,28.6,60,27.7
	L60,27.7z"/>
<path class="st34" d="M61.2,28.3c-0.3-0.2-0.6-0.4-0.9-0.7c2-3.5,3.9-6.9,5.9-10.4c0.4-0.7,0.6-1.5,1.5-1.8c0.1,0.1,0.2,0.2,0.3,0.3
	c-0.2,1-0.7,1.9-1.2,2.8C64.9,21.8,63.1,25.1,61.2,28.3L61.2,28.3z"/>
<path class="st35" d="M82.8,37.9c0.7,0.8,1.2,1.6,1.5,2.6c-0.2-0.1-0.4-0.2-0.6-0.3c-0.2-0.3-0.3-0.7-1-0.6
	c-2.2,3.8-4.8,7.5-6.5,11.6c-0.3-0.6-0.6-1.1-0.9-1.7c3-3.5,4.8-7.7,7.1-11.6C82.5,37.9,82.7,37.9,82.8,37.9L82.8,37.9z"/>
<path class="st36" d="M83.7,40.2c0.2,0.1,0.4,0.2,0.6,0.3c0.3,0.5,0.6,1.1,0.9,1.6c-0.1,0-0.2,0-0.3,0c-0.3-0.2-0.3-0.8-0.9-0.8
	c-2,3.3-3.9,6.6-5.9,9.9c-0.5,0.9-0.6,1.8-0.2,2.7c0,0.1,0,0.3,0,0.4c-0.5-0.9-0.9-1.7-1.4-2.6c0.8-0.5,1.2-1.2,1.5-2
	C79.8,46.5,81.6,43.3,83.7,40.2L83.7,40.2z"/>
<path class="st37" d="M61.2,28.3c1.9-3.3,3.7-6.5,5.6-9.8c0.5-0.9,0.9-1.8,1.2-2.8c0.2,0.3,0.5,0.6,0.7,0.9c-1,3.1-3,5.6-4.4,8.5
	c-0.5,1-1.1,1.9-1.7,2.9C62.2,28.6,61.8,29.1,61.2,28.3L61.2,28.3z"/>
<path class="st38" d="M29.8,88c0.1,0,0.3-0.1,0.4-0.1c0.2,0,0.4,0.1,0.5,0.1c0.1,0.2,0.2,0.4,0.3,0.6c-2.5,4.2-5,8.4-7.4,12.6
	c-0.2,0.4-0.5,0.7-0.2,1.2l-0.1,0.1c-0.5-0.1-1.1-0.2-1.6-0.3l0-0.1c0.5-0.2,0.8-0.7,1.1-1.1c1.7-3,3.4-6,5.1-9
	C28.6,90.7,30,89.7,29.8,88L29.8,88z"/>
<path class="st22" d="M91,53c-2,1.9-3,4.5-4.3,6.8c-1.1,1.9-2,4-3.5,5.7c-0.2-0.4-0.4-0.9-0.6-1.3l0.1-0.1c1.7-0.9,2-2.8,2.8-4.2
	c1.6-2.8,3.5-5.4,4.5-8.5l0.1-0.1C90.4,51.9,90.7,52.5,91,53L91,53z"/>
<path class="st39" d="M82,62.8c1.2-3.4,3.5-6.3,5.1-9.5c0.6-1.2,1.2-2.5,2.2-3.5c0.1,0.3,0.3,0.6,0.4,0.9c0,0.1-0.1,0.1-0.1,0.2
	c-2.3,3.9-4.5,7.8-6.8,11.6c-0.3,0.6-0.3,1.1-0.1,1.7l-0.1,0.1C82.5,63.7,82.2,63.2,82,62.8L82,62.8z"/>
<path class="st40" d="M31.1,88.6c-0.1-0.2-0.2-0.4-0.3-0.6c0.9,0.2,1.7,0.4,2.6,0.6c0,0.1,0,0.2,0,0.3c-1.9,3-3.7,6-5.6,9
	c-0.9,1.5-1.9,2.9-2.1,4.7c-0.2,0-0.4,0.1-0.7,0.1c-0.5-0.1-1.1-0.2-1.6-0.3l0.1-0.1c0.5,0,1,0,1.2-0.5c2.4-4,4.7-8,7.1-12
	C32.1,89.2,31.9,88.7,31.1,88.6z"/>
<path class="st41" d="M77,28.6c-2.5,3.5-4.3,7.4-6.6,11c-0.2,0.3-0.1,0.8-0.2,1.2l-0.1,0.1c-0.2-0.3-0.4-0.6-0.6-0.9
	c0.1-2,1.7-3.3,2.5-4.9c1.1-2.2,2.4-4.3,3.5-6.4c0.3-0.5,0.5-0.8,1.1-0.6C76.8,28.2,76.9,28.4,77,28.6L77,28.6z"/>
<path class="st42" d="M93.6,59.1c0.1,0,0.3,0,0.4,0c0.9,1.5,1.7,3.1,2.3,4.8c-0.1,0-0.3,0-0.4,0c-0.2-0.4-0.4-0.9-0.6-1.3
	c-0.2-0.4-0.4-0.9-0.6-1.3c-0.1-0.3,0-0.8-0.7-0.8c-1.3,2.2-2.7,4.5-4,6.8c-1.3,2.2-2.8,4.4-3.3,7c-0.2-0.6-0.4-1.1-0.6-1.7
	c0.8-0.6,1-1.6,1.4-2.4C89.3,66.4,91.9,63,93.6,59.1L93.6,59.1z"/>
<path class="st43" d="M87.6,46.5c-1.4,0.8-1.7,2.4-2.5,3.6c-1.2,2-2.3,4.2-3.5,6.2c-0.7,1.2-1.2,2.3-0.8,3.7c-0.3-0.7-0.6-1.3-1-2
	c0-0.3,0-0.7,0-1c2.9-3.7,4.9-7.9,7.1-12C87.1,45.7,87.4,46.1,87.6,46.5L87.6,46.5z"/>
<path class="st44" d="M63,30.9c1.3-1.1,1.7-2.8,2.5-4.2c1.4-2.2,2.7-4.5,3.9-6.7c0.3-0.5,0.3-1.1,0.4-1.7c0.5,0.3,0.8,0.8,1,1.3
	c-2.6,4-5.2,8-6.8,12.6C63.7,31.8,63.4,31.3,63,30.9L63,30.9z"/>
<path class="st45" d="M75.4,26c-0.1,0-0.3,0-0.4,0c-0.3-0.4-0.5-0.9-1.3-0.6c-1.9,3.2-3.8,6.5-5.8,9.8c-0.3,0.5-0.5,1-0.3,1.7
	L67.6,37c-0.5-0.6-0.9-1.3-1.4-1.9c0.5,0.1,1,0,1.3-0.5c2.1-3.5,4.1-7,6.2-10.4c-0.3-0.5-0.6-0.9-0.9-1.3c0-0.2,0-0.4,0-0.7
	C73.8,23.4,74.7,24.6,75.4,26L75.4,26z"/>
<path class="st46" d="M88.8,48.8c-1.2,0.1-1.1,1.3-1.5,2c-2,3.5-4.3,6.8-5.9,10.6c-0.1-0.2-0.2-0.4-0.3-0.7c0.2-2.3,1.9-3.9,2.8-5.8
	c1-2,2.3-3.8,3.2-5.8c0.2-0.6,0.6-1.2,1.4-0.9C88.6,48.4,88.7,48.6,88.8,48.8L88.8,48.8z"/>
<path class="st47" d="M79.8,57.2c0,0.3,0,0.7,0,1c-0.8-1.2-1.4-2.5-1.9-3.8c0-0.1,0-0.3,0-0.4c2.3-3.9,4.7-7.9,7-11.8
	c0.1,0,0.2,0,0.3,0c0.5,0.8,0.9,1.7,1.4,2.5c-0.2-0.1-0.5-0.2-0.7-0.3c-0.1-0.4-0.1-0.9-0.9-0.9c-2,3.5-4.1,7-6.2,10.6
	c-0.4,0.7-0.2,1.3,0.3,1.9C79.4,56.3,79.6,56.8,79.8,57.2L79.8,57.2z"/>
<path class="st48" d="M70.2,40.8c0.8,0.2,1-0.5,1.3-0.9c1.8-3.1,3.6-6.1,5.3-9.3c0.3-0.5,0.3-1.1,0.4-1.7c0.3,0.5,0.7,1.1,1,1.6
	c-1.4,0.8-1.7,2.4-2.5,3.6c-1.5,2.5-2.9,5-4.5,7.7c0.2,0.4,0.3,0.8,0.5,1.3c0,0.1,0,0.3-0.1,0.4C71.2,42.6,70.7,41.7,70.2,40.8
	L70.2,40.8L70.2,40.8z"/>
<path class="st11" d="M66.7,14.2c-1.9,3.9-4,7.7-6.3,11.4c-0.3,0.4-0.6,1.4-1.4,0.5c2.8-4,5-8.3,7.1-12.6
	C66.3,13.7,66.5,13.9,66.7,14.2L66.7,14.2z"/>
<path class="st40" d="M64.3,32.5c1.3-0.6,1.6-2,2.2-3c1.7-3,3.3-6,5-9c0.3,0.5,0.7,0.9,1,1.4c-0.5,0.4-1.3,0.8-1.6,1.3
	c-1.9,3.2-3.6,6.5-5.4,9.8c-0.1,0.3-0.1,0.6-0.2,0.9C65,33.4,64.7,33,64.3,32.5L64.3,32.5z"/>
<path class="st18" d="M82.8,37.9c-0.1,0-0.3,0-0.4,0c-0.2-0.3-0.2-0.6-1-0.6c-2.1,3.8-4.3,7.7-6.5,11.6c-0.2-0.3-0.4-0.7-0.6-1
	c1.6-2.7,3.3-5.4,4.9-8.2c0.7-1.3,1.8-2.4,1.9-4c0.1,0,0.2,0,0.4,0C82.1,36.3,82.5,37.1,82.8,37.9z"/>
<path class="st49" d="M81.5,35.7c-0.1,0-0.2,0-0.4,0c-0.8-0.9-1-0.1-1.3,0.4c-1,1.9-2.1,3.7-3.1,5.6c-0.9,1.8-2.4,3.4-2.7,5.6
	c-0.3-0.5-0.6-1.1-1-1.6c0.6-0.1,0.9-0.5,1.2-1c2.1-3.6,4.2-7.2,6-11C80.8,34.2,81.2,34.9,81.5,35.7L81.5,35.7z"/>
<path class="st18" d="M60.2,104.6c1.3,0,2.6,0.1,3.8,0.1c-5.4,0.3-10.9,0.4-16.3,0l0.1-0.1c0.8,0,1.7,0,2.5,0c0.3,0,0.7,0,1,0h1.6
	c0.3,0,0.6,0,1,0c0.4,0,0.9,0,1.3,0c0.3,0,0.6,0,1,0c0.5,0,1.1,0,1.6,0c0.3,0,0.6,0,1,0C59.2,104.6,59.7,104.6,60.2,104.6
	L60.2,104.6z"/>
<path class="st50" d="M39.1,104c0.3,0.1,0.6,0.2,0.9,0.3c-0.3,0-0.6-0.1-1-0.1C39.1,104.2,39.1,104.1,39.1,104z"/>
<path class="st39" d="M89.8,50.7c0.1,0.2,0.2,0.4,0.3,0.6l-0.1,0.1c-0.1-0.2-0.2-0.4-0.3-0.6C89.7,50.8,89.8,50.7,89.8,50.7z"/>
<path class="st32" d="M91.7,54.3c0.1,0.2,0.2,0.4,0.3,0.6l0,0C91.9,54.7,91.8,54.5,91.7,54.3L91.7,54.3L91.7,54.3z"/>
<path class="st51" d="M72.5,104c-0.4,0-0.9,0-1.3,0c3-5.2,6-10.5,9-15.7l0,0c0.1-0.1,0.2-0.2,0.3-0.3c0.1,0,0.2,0,0.3,0
	c0.4-0.1,0.9-0.2,1.3-0.3C78.6,92.9,75.7,98.5,72.5,104L72.5,104z"/>
<path class="st51" d="M95.2,62.6c0.2,0.4,0.4,0.9,0.6,1.3c-2.8,4.5-5.8,8.9-8,13.8c-0.5-0.9-0.5-1.8,0.1-2.7
	C90.3,70.9,92.8,66.8,95.2,62.6z"/>
<path class="st52" d="M95.2,62.6c-2.4,4.1-4.9,8.3-7.3,12.4c-0.6,0.9-0.6,1.8-0.1,2.7c0.1,1.5,0.2,3,0.3,4.6c0,0.7-0.2,1.4-0.8,1.8
	c1-2.9-0.1-5.8-0.5-8.6c0.7-1.3,1.3-2.5,2-3.8c1.8-3.5,4.4-6.6,5.7-10.3C94.8,61.8,95,62.2,95.2,62.6L95.2,62.6z"/>
<path class="st53" d="M82.1,87.7c-0.4,0.1-0.9,0.2-1.3,0.3c0-0.1,0-0.2,0-0.3c0.5-0.2,1-0.3,1.6-0.5C82.2,87.4,82.2,87.5,82.1,87.7z
	"/>
<path class="st54" d="M66.4,104.3c-0.5,0-1.1,0-1.6,0c0.7-1.3,1.3-2.6,2-3.8c2.1-3.7,4.2-7.3,6.3-10.9l0,0c0.1-0.1,0.2-0.1,0.3-0.2
	l1.3-0.1c-1.3,3-3.2,5.6-4.8,8.4C68.7,99.9,67.5,102.1,66.4,104.3L66.4,104.3z"/>
<path class="st55" d="M70.2,104c-0.4,0-0.8,0.1-1.2-0.6c2.8-4.7,5.7-9.5,8.2-14.5c0.5-0.1,1.1-0.2,1.6-0.3
	C76.2,93.9,73.2,98.9,70.2,104L70.2,104z"/>
<path class="st53" d="M70.2,104c3-5.1,6-10.1,8.7-15.4l0,0l0.3-0.3c0.2,0,0.4,0,0.7-0.1c0.1,0,0.2,0,0.3,0c-3,5.2-6,10.5-9,15.7
	C70.8,104,70.5,104,70.2,104L70.2,104z"/>
<path class="st56" d="M74.7,89.3c-0.4,0-0.9,0.1-1.3,0.1c-0.1,0.1-0.2,0.1-0.3,0.2l0,0c-0.4,0-0.9,0-1.3,0c-0.4,0.1-0.8,0.2-1.3,0.3
	c-0.3,0-0.6,0-1,0c0-0.1,0-0.2,0-0.3c1.8-0.2,3.6-0.5,5.5-0.7c0,0.1,0,0.2,0,0.3C74.9,89.3,74.8,89.3,74.7,89.3L74.7,89.3z"/>
<path class="st54" d="M75,89.2c0-0.1,0-0.2,0-0.3c1.6-0.3,3.2-0.6,4.8-1c0,0.1,0,0.2,0,0.3c-0.2,0-0.4,0-0.7,0.1
	c-0.1,0.1-0.2,0.2-0.3,0.3l0,0c-0.5,0.1-1.1,0.2-1.6,0.3C76.5,89,75.7,89.1,75,89.2L75,89.2z"/>
<path class="st16" d="M25.6,102.7c0.2-1.8,1.3-3.2,2.1-4.7c1.8-3,3.7-6,5.6-9c0.3,0.1,0.6,0.1,0.8,0.6c-2,3.7-3.9,7.7-6.4,11.3
	C27.2,101.7,27,102.9,25.6,102.7L25.6,102.7z"/>
<path class="st57" d="M36.2,89.3c0.7,0.8,0.1,1.4-0.2,2c-2.2,3.9-4.4,7.8-6.6,11.7c-0.4,0-0.8,0-1.1-0.5c1.4-2.4,2.8-5,4.4-7.4
	C34,93.2,34.4,90.9,36.2,89.3L36.2,89.3z"/>
<path class="st50" d="M48.1,90.2c0.2,0,0.4,0,0.6,0c0,0.1,0,0.2,0,0.3c-0.1,0-0.2,0-0.3,0c-0.5,0-0.9,0.1-1.4,0.1
	c-2.7,4.5-5.3,8.9-7.9,13.3c-0.6,0-1.3,0-1.9,0c2.6-4.6,5.1-9.1,7.7-13.7C45.9,90.2,47,90.2,48.1,90.2L48.1,90.2z"/>
<path class="st26" d="M44.8,90.2c-2.6,4.6-5.1,9.1-7.7,13.7c-0.5-0.1-1.1-0.2-1.6-0.3c2.6-4.5,5.1-9,7.7-13.4
	C43.8,90.2,44.3,90.2,44.8,90.2L44.8,90.2z"/>
<path class="st41" d="M40,89.9c0.4,0,0.8,0,1.3,0c-2.5,4.3-5.3,8.5-7.5,13c-0.3,0.7-0.8,0.7-1.5,0.4l0,0c0.2-0.4,0.4-0.7,0.6-1.1
	C35.3,98.1,37.7,94,40,89.9L40,89.9z"/>
<path class="st48" d="M43.2,90.2c-2.6,4.5-5.1,9-7.7,13.4c-0.8-0.4-0.3-0.9-0.1-1.3c1.8-3.9,4.3-7.3,6.3-11
	C42.1,90.7,42.5,90.2,43.2,90.2L43.2,90.2z"/>
<path class="st58" d="M48.4,90.5c0.1,0,0.2,0,0.3,0c0.3,0.1,0.6,0.1,1,0.2c-2.5,4.4-5,8.8-7.5,13.1c-0.2,0.3-0.6,0.4-0.9,0.6
	c-0.8-0.5-0.2-1,0.1-1.5C43.7,98.8,46,94.7,48.4,90.5L48.4,90.5z"/>
<path class="st31" d="M25.9,86.4c0.1,0.1,0.3,0.2,0.4,0.2C26.2,86.6,26.1,86.5,25.9,86.4z"/>
<path class="st59" d="M66.2,35.1c-0.2-0.2-0.3-0.5-0.5-0.7c1.3-1,1.8-2.6,2.6-3.9c1.5-2.5,3-5.1,4.4-7.6c0.3,0.4,0.5,0.8,0.9,1.3
	c-2.1,3.5-4.1,7-6.2,10.4C67.2,35.1,66.7,35.2,66.2,35.1L66.2,35.1z"/>
<path class="st60" d="M79.2,55.9c-0.5-0.6-0.7-1.2-0.3-1.9c2.1-3.6,4.1-7.1,6.2-10.6c0.8,0,0.7,0.5,0.9,0.9
	C84,48.4,81.5,52.1,79.2,55.9L79.2,55.9z"/>
<path class="st60" d="M51.3,104.6c-0.3,0-0.7,0-1,0c-0.3-0.6,0.1-1.1,0.4-1.6c2.3-4.1,4.7-8.3,7-12.4c0.5,0,1.1,0,1.6,0
	C56.6,95.2,53.9,99.9,51.3,104.6L51.3,104.6z"/>
<path class="st61" d="M51.3,104.6c2.7-4.7,5.3-9.4,8-14c0.5,0,1.1,0,1.6,0c-2.7,4.7-5.3,9.4-8,14.1
	C52.4,104.6,51.8,104.6,51.3,104.6L51.3,104.6z"/>
<path class="st62" d="M55.4,90.6c0.4,0,0.9,0,1.3,0c-2,4.4-4.7,8.5-7.1,12.7c-0.4,0.7-1,1.1-1.8,1.1l0,0c0.2-0.5,0.4-1,0.7-1.4
	C50.8,98.8,53.3,94.8,55.4,90.6L55.4,90.6z"/>
<path class="st63" d="M44.2,104.3c-0.3,0-0.6-0.1-1-0.2c1.2-3.2,3.2-5.8,4.7-8.7c0.7-1.3,1.5-2.4,2.2-3.7c0.5-0.8,1.1-1.3,2-1.2
	C49.5,95.2,46.9,99.7,44.2,104.3L44.2,104.3z"/>
<path class="st64" d="M53.2,90.6c0.4,0,0.9,0,1.3,0c-0.6,1.1-1.2,2.2-1.8,3.4c-1.8,3.6-4.4,6.7-5.9,10.4c-0.4,0-0.9,0-1.3,0
	C47.7,99.5,50.7,95.2,53.2,90.6L53.2,90.6z"/>
<path class="st65" d="M53.2,90.6c-2.4,4.6-5.5,8.9-7.7,13.7c-0.4,0-0.8,0-1.3,0c2.7-4.6,5.3-9.2,8-13.7
	C52.5,90.6,52.8,90.6,53.2,90.6L53.2,90.6z"/>
<path class="st43" d="M52.9,104.6c2.7-4.7,5.3-9.4,8-14.1c0-0.1,0-0.2,0-0.3c1.6-0.3,3.2-0.3,4.8-0.3c0,0.1,0,0.2,0,0.2
	c-0.4,0-0.9,0-1.3,0.1c-0.3,0-0.6,0-1,0c-1.1,0.1-1.8,0.7-2.4,1.6c-2.5,4.2-5,8.3-7.2,12.7H52.9L52.9,104.6z"/>
<path class="st66" d="M46.8,104.3c1.5-3.7,4.1-6.8,5.9-10.4c0.6-1.1,1.2-2.2,1.8-3.4c0.3,0,0.6,0,1,0c-2.1,4.2-4.6,8.2-7,12.3
	c-0.3,0.5-0.4,1-0.7,1.4C47.4,104.3,47.1,104.3,46.8,104.3L46.8,104.3z"/>
<path class="st47" d="M47.7,104.3c0.9,0.1,1.4-0.4,1.8-1.1c2.4-4.2,5.1-8.2,7.1-12.7c0.3,0,0.7,0,1,0c-2.3,4.1-4.7,8.3-7,12.4
	c-0.3,0.5-0.7,1-0.4,1.6c-0.8,0-1.7,0-2.5,0C47.8,104.5,47.8,104.4,47.7,104.3L47.7,104.3z"/>
<path class="st67" d="M40,89.9c-2.4,4.1-4.7,8.2-7.1,12.3c-0.2,0.4-0.4,0.7-0.6,1.1c-0.3,0-0.6,0-1,0c0.3-0.5,0.5-1.1,0.8-1.6
	c2.2-4,4.4-7.9,6.6-11.9C39.2,89.9,39.6,89.9,40,89.9L40,89.9z"/>
<path class="st68" d="M38.8,89.9c-2.2,4-4.4,7.9-6.6,11.9c-0.3,0.5-0.5,1.1-0.8,1.6c-1-0.1-0.8-0.7-0.5-1.2
	c2.2-3.9,4.5-7.8,6.7-11.6C37.9,90.1,38.1,89.6,38.8,89.9L38.8,89.9z"/>
<path class="st69" d="M71.8,89.6c0.4,0,0.9,0,1.3,0c-2.1,3.6-4.2,7.3-6.3,10.9c-0.7,1.2-1.3,2.5-2,3.8c-0.4,0-0.9,0-1.3,0
	c0.4-0.8,0.7-1.6,1.1-2.3C67,97.9,69.4,93.7,71.8,89.6L71.8,89.6z"/>
<path class="st56" d="M60.2,104.6c-0.5,0-1,0-1.6,0c0.3-0.6,0.6-1.3,1-1.8c2.5-4.1,5.1-8.2,7.1-12.5c0.4-0.1,0.9-0.2,1.3-0.3
	c-1.7,4.4-4.5,8.2-6.8,12.3C60.8,103,60.1,103.6,60.2,104.6L60.2,104.6z"/>
<path class="st70" d="M69.5,89.9c0.3,0,0.6,0,1,0c-0.5,0.8-0.9,1.7-1.4,2.5c-2.2,4-4.7,7.8-6.7,11.9c-0.4,0-0.8,0.1-1.1-0.5
	c2.6-4.6,5.2-9.2,7.8-13.9C69.3,89.9,69.4,89.9,69.5,89.9L69.5,89.9z"/>
<path class="st71" d="M62.5,104.3c1.9-4.1,4.5-7.9,6.7-11.9c0.5-0.8,0.9-1.7,1.4-2.5c0.4-0.1,0.8-0.2,1.3-0.3
	c-2.4,4.1-4.8,8.3-7.2,12.4c-0.4,0.7-0.7,1.5-1.1,2.3C63.1,104.3,62.8,104.3,62.5,104.3z"/>
<path class="st72" d="M69.5,89.9c-0.1,0-0.2,0-0.3,0c-0.4,0-0.9,0-1.3,0c-0.4,0.1-0.9,0.2-1.3,0.3c-0.3,0-0.6,0-0.9,0l0,0
	c0-0.1,0-0.2,0-0.2c1.3-0.3,2.5-0.4,3.8-0.3C69.5,89.7,69.5,89.8,69.5,89.9L69.5,89.9z"/>
<path class="st73" d="M29.8,88c0.2,1.7-1.1,2.7-1.8,3.9c-1.7,3-3.4,6-5.1,9c-0.3,0.5-0.6,0.9-1.1,1.1c-0.7-0.5-0.4-1-0.1-1.5
	c2.2-3.8,4.3-7.5,6.5-11.3C28.6,88.6,29,88.1,29.8,88L29.8,88z"/>
<path class="st74" d="M19,101.4c2.3-4.1,4.5-8.1,6.8-12.2c0.4-0.7,0.9-1.3,1.4-1.9c0.6,0.4,0.3,0.9,0.1,1.4c-2,4.1-4.4,7.8-6.6,11.8
	C20.3,101.2,19.7,101.5,19,101.4L19,101.4z"/>
<path class="st71" d="M84.3,68.1c-0.1-0.3-0.2-0.6-0.4-0.9c2.3-4.2,4.6-8.4,6.9-12.5c0.2-0.3,0.4-0.5,0.8-0.3
	c0.1,0.2,0.2,0.4,0.3,0.6C89.5,59.4,87.3,64,84.3,68.1L84.3,68.1z"/>
<path class="st22" d="M83.6,66.5c-0.1-0.2-0.2-0.4-0.3-0.7C83.4,66.1,83.5,66.3,83.6,66.5z"/>
<path class="st75" d="M67.6,37c-0.2-0.6,0-1.1,0.3-1.7c2-3.3,3.9-6.6,5.8-9.8c0.8-0.3,1,0.2,1.3,0.6v0c-2.4,3.6-4.7,7.4-6.7,11.2
	C68.1,37.2,67.9,37.1,67.6,37L67.6,37z"/>
<path class="st68" d="M68.3,37.3c2-3.9,4.3-7.6,6.7-11.2c0.2,0.5,0.3,0.9,0.1,1.4c-2,3.5-3.7,7.1-6.1,10.4
	C68.5,37.9,68.4,37.5,68.3,37.3L68.3,37.3z"/>
<path class="st3" d="M85.9,72.6c-0.1-0.4-0.3-0.8-0.4-1.2c0.8-2.9,2.6-5.3,4.1-7.8c1.1-1.8,1.7-4.1,3.6-5.4c0.1,0.3,0.2,0.6,0.4,0.9
	c-1.7,3.9-4.3,7.3-6.2,11C87,71,86.8,72,85.9,72.6L85.9,72.6z"/>
<path class="st54" d="M93.2,58.2c-1.9,1.3-2.5,3.6-3.6,5.4c-1.5,2.5-3.3,4.9-4.1,7.8c-0.2-0.6-0.4-1.1-0.6-1.7
	c1.3-3.4,3.4-6.2,5.1-9.4c0.6-1.2,1.4-2.4,2.1-3.5C92.9,57,93,57.7,93.2,58.2L93.2,58.2z"/>
<path class="st63" d="M75.3,49.5c-0.1-0.2-0.2-0.4-0.3-0.6c2.2-3.9,4.4-7.8,6.5-11.6c0.7,0,0.8,0.3,1,0.6
	C80.1,41.8,78.3,46,75.3,49.5L75.3,49.5z"/>
<path class="st76" d="M76.5,51.8l-0.3-0.6c1.7-4.2,4.2-7.9,6.5-11.6c0.7-0.1,0.8,0.3,1,0.6c-2.1,3.1-3.9,6.3-5.6,9.6
	C77.7,50.5,77.2,51.3,76.5,51.8L76.5,51.8z"/>
<path class="st62" d="M84.9,42.1c-2.3,3.9-4.7,7.9-7,11.8c-0.4-1-0.3-1.9,0.2-2.7c2-3.3,3.9-6.6,5.9-9.9
	C84.6,41.3,84.6,41.9,84.9,42.1L84.9,42.1z"/>
<path class="st77" d="M31.1,88.6c0.8,0.1,1,0.6,0.6,1.2c-2.3,4-4.7,8-7.1,12c-0.3,0.5-0.7,0.6-1.2,0.5c-0.2-0.5,0-0.8,0.2-1.2
	C26.1,97,28.6,92.8,31.1,88.6z"/>
<path class="st78" d="M89.7,50.9c0.1,0.2,0.2,0.4,0.3,0.6c-1,3.1-2.9,5.7-4.5,8.5c-0.8,1.5-1.1,3.4-2.8,4.2
	c-0.1-0.6-0.2-1.1,0.1-1.7C85.2,58.6,87.4,54.7,89.7,50.9L89.7,50.9z"/>
<path class="st55" d="M94.6,61.3c-1.3,3.8-3.9,6.8-5.7,10.3c-0.7,1.3-1.3,2.5-2,3.8c-0.1-0.4-0.2-0.8-0.4-1.2c0.5-2.6,2-4.7,3.3-7
	c1.3-2.3,2.7-4.6,4-6.8C94.5,60.6,94.4,61,94.6,61.3L94.6,61.3z"/>
<path class="st58" d="M74,47.3c0.3-2.2,1.8-3.7,2.7-5.6c0.9-1.9,2-3.7,3.1-5.6c0.3-0.5,0.5-1.4,1.3-0.4c0,1.6-1.1,2.7-1.9,4
	c-1.6,2.8-3.3,5.5-4.9,8.2l0,0C74.2,47.7,74.1,47.5,74,47.3L74,47.3L74,47.3z"/>
<path class="st72" d="M53.9,104.6c2.2-4.4,4.7-8.5,7.2-12.7c0.6-0.9,1.3-1.5,2.4-1.6c-2.8,4.8-5.5,9.6-8.3,14.3
	C54.7,104.6,54.3,104.6,53.9,104.6L53.9,104.6z"/>
<path class="st79" d="M64.4,90.3c0.4,0,0.9,0,1.3-0.1l0,0c-0.7,1.3-1.4,2.6-2.1,3.9c-1.8,3.6-4.4,6.7-5.9,10.4c-0.5,0-1.1,0-1.6,0
	C58.9,99.8,61.6,95,64.4,90.3L64.4,90.3z"/>
<path class="st39" d="M57.7,104.6c1.5-3.7,4.1-6.9,5.9-10.4c0.7-1.3,1.4-2.6,2.1-3.9c0.3,0,0.6,0,0.9,0c-2,4.4-4.5,8.5-7.1,12.5
	c-0.4,0.6-0.6,1.2-1,1.8C58.3,104.6,58,104.6,57.7,104.6L57.7,104.6z"/>
<path class="st46" d="M64.4,90.3c-2.8,4.8-5.5,9.6-8.3,14.4c-0.3,0-0.6,0-1,0c2.8-4.8,5.5-9.6,8.3-14.3
	C63.7,90.3,64.1,90.3,64.4,90.3z"/>
<path class="st20" d="M66.1,59.7c0.2,0.1,0.4,0.2,0.5,0.4c-0.3,0.2-0.6,0.3-0.8,0.5c-2.7,4.7-5.8,9.2-8.1,14.1c-0.7,0-1.5,0-2.2,0
	c0-0.1,0-0.1,0-0.2c3.1-5.3,6.2-10.7,9.3-16C64.9,59.2,65.3,59.6,66.1,59.7L66.1,59.7z"/>
<path class="st14" d="M64.7,58.5c-3.1,5.3-6.2,10.7-9.3,16c-0.4,0-0.9,0-1.3,0c0.3-0.6,0.5-1.3,0.8-1.9c2.7-4.7,5.4-9.4,8.1-14.1
	c0.4,0,0.8,0.2,0.9-0.4l0,0c0.1-0.2,0.3-0.4,0.4-0.7l0,0c0.1-0.2,0.2-0.4,0.4-0.6v0c0.1-0.2,0.2-0.3,0.3-0.5c0-0.1,0-0.2,0.1-0.2
	c0.1-0.1,0.2-0.3,0.2-0.4c0-0.1,0-0.2,0.1-0.3c0.1-0.1,0.2-0.2,0.2-0.3c0-0.1,0.1-0.2,0.1-0.3c0.1-0.1,0.1-0.2,0.2-0.3v0
	c0.1-0.1,0.2-0.3,0.3-0.4l-0.1,0.1c0.1-0.2,0.3-0.4,0.4-0.7l0,0c0.6-0.3,0.8-1.1,1.6-1.2l0,0c0,0.2,0,0.4,0.1,0.6l0,0
	c-0.1,0.2-0.2,0.5-0.3,0.7l0,0c-0.1,0.2-0.2,0.4-0.4,0.6l0,0c-0.1,0.2-0.2,0.4-0.3,0.6l0,0c-0.1,0.1-0.2,0.3-0.3,0.4
	c0,0.1,0,0.2-0.1,0.2c-0.1,0.1-0.2,0.2-0.2,0.4l0,0c-0.1,0-0.2,0-0.4,0c-0.8,0.6-1,1.4-1.3,2.2L64.7,58.5L64.7,58.5z"/>
<path class="st73" d="M44.4,54.9c0,0.1,0.1,0.2,0.1,0.3c0.1,0.1,0.2,0.2,0.2,0.4c0.1,0.1,0.1,0.1,0.1,0.2l0.3,0.4
	c0.1,0,0.1,0.1,0.1,0.2c0.1,0.2,0.2,0.3,0.3,0.5v0c0.1,0.2,0.2,0.4,0.4,0.6l0,0c0.1,0.2,0.2,0.4,0.4,0.6l-0.1-0.1
	c0.3,0.4,0.8,0.4,1.3,0.4c-3.1,5.3-6.2,10.7-9.3,16c-0.4,0-0.9,0-1.3,0c0.8-2,2.2-3.8,3.2-5.7c1.7-3.1,3.9-6,5.1-9.4
	c0-0.1,0-0.2,0.1-0.3c0-0.1,0-0.2,0-0.3c-0.1-0.1-0.2-0.2-0.3-0.3c-0.1-0.1-0.1-0.1-0.1-0.3c-0.1-0.1-0.2-0.3-0.2-0.4
	c-0.1,0-0.1-0.1-0.1-0.2c-0.1-0.1-0.2-0.3-0.3-0.4v0c-0.1-0.2-0.2-0.4-0.3-0.6l0,0c-0.1-0.2-0.2-0.4-0.4-0.6l0,0
	c-0.1-0.1-0.2-0.2-0.2-0.4c-0.1,0-0.1-0.1-0.1-0.2c-0.1-0.1-0.2-0.3-0.3-0.4v0c-0.1-0.2-0.2-0.4-0.3-0.6l0,0c0-0.1,0-0.2,0-0.4
	c-0.1-0.1-0.2-0.2-0.4-0.3l0,0c0-0.1,0-0.2,0-0.4c-0.1-0.1-0.3-0.2-0.4-0.3l0,0c0-0.2,0-0.4,0.1-0.7l0,0c0.3,0.2,0.6,0.4,0.9,0.6
	c0.1,0.1,0.2,0.2,0.3,0.3c0,0.1,0,0.2,0,0.3c0.1,0.1,0.2,0.2,0.3,0.3h0c0.1,0.1,0.3,0.2,0.4,0.3l0,0c0.1,0.1,0.2,0.3,0.3,0.4v0
	C44.3,54.7,44.3,54.8,44.4,54.9L44.4,54.9z"/>
<path class="st80" d="M41.6,61.6c0.4-0.3,0.8-0.6,1.2-1c0,0,0.1,0.1,0.1,0.1c0.3,0.7,0,1.3-0.3,1.8c-2.4,4-4.7,8-7.1,12
	c-0.4-0.6-0.1-1.2,0-1.8c0.4-2.3,1.7-4.3,2.2-6.6l0,0c0.4-0.2,0.6-0.6,0.7-1l0,0c0.5-0.3,0.9-0.7,1-1.3l0,0c0.1-0.1,0.2-0.2,0.3-0.4
	l0,0c0.1-0.1,0.2-0.3,0.4-0.4c0,0-0.1,0.1-0.1,0.1c0.1-0.1,0.3-0.3,0.4-0.4l-0.1,0.1c0.1-0.1,0.3-0.3,0.4-0.4l-0.1,0.1
	c0.2-0.2,0.5-0.5,0.7-0.7l0,0.1c0,0-0.1,0-0.1,0C41.3,61.8,41.5,61.7,41.6,61.6L41.6,61.6z"/>
<path class="st58" d="M57.7,74.7c2.4-4.9,5.5-9.4,8.1-14.1c0.1-0.2,0.5-0.3,0.8-0.5c0.3,0.2,0.5,0.4,0.8,0.6
	c-1.1,1.9-2.4,3.6-3.4,5.6c-1.5,2.9-3.5,5.4-4.7,8.5C58.7,74.7,58.2,74.7,57.7,74.7L57.7,74.7z"/>
<path class="st81" d="M68.3,61.3c0.2,0.2,0.5,0.4,0.7,0.6c-0.8,0.5-1.2,1.4-1.6,2.1c-2,3.5-3.9,6.9-5.9,10.4
	c-0.4-0.1-0.9,0.2-1.2-0.4c1.8-3.2,3.7-6.4,5.6-9.6C66.5,63.4,66.8,61.9,68.3,61.3L68.3,61.3z"/>
<path class="st62" d="M70.8,63.9c0.2,0.3,0.5,0.6,0.7,0.8c-0.1,0.3,0,0.7-0.2,0.9c-1.6,2.7-3.1,5.4-4.7,8.1
	c-0.3,0.6-0.9,0.7-1.5,0.7C66.8,70.9,68.7,67.3,70.8,63.9L70.8,63.9z"/>
<path class="st76" d="M69.6,62.6c0.3,0.3,0.6,0.7,0.9,1c-0.3,0.2-0.7,0.2-0.8,0.5c-1.9,3.3-3.7,6.6-5.6,10c-0.1,0.1,0.2,0.3,0.2,0.5
	c0,0.1,0,0.1,0,0.2c-0.6,0-1.3,0-1.9,0c0-0.1,0-0.1,0-0.2c0.7-0.7,1.1-1.6,1.5-2.4C65.7,68.8,67.4,65.5,69.6,62.6L69.6,62.6z"/>
<path class="st60" d="M72.8,66.8c0.4,0.3,0.6,0.8,0.6,1.3l-0.1,0.1c-0.4-0.2-0.8-0.2-1.1,0.3c-1.2,1.9-2.5,3.7-3.4,5.8
	c0.4,0.4,0.9,0.3,1.3,0.3c0,0.1,0,0.1,0,0.2c-1.1,0-2.1,0-3.2,0c1.4-2.4,2.8-4.9,4.2-7.3C71.6,66.7,72,66.2,72.8,66.8L72.8,66.8z"/>
<path class="st65" d="M69.6,62.6c-2.3,2.9-3.9,6.2-5.6,9.5c-0.4,0.8-0.8,1.7-1.5,2.4c-0.3,0-0.6,0-1,0c2-3.5,3.9-6.9,5.9-10.4
	c0.4-0.8,0.8-1.6,1.6-2.1C69.2,62.2,69.4,62.4,69.6,62.6L69.6,62.6z"/>
<path class="st82" d="M61.5,74.5c0.3,0,0.6,0,1,0c0,0.1,0,0.1,0,0.2c-1.1,0-2.1,0-3.2,0c1.2-3,3.2-5.6,4.7-8.5
	c1-1.9,2.3-3.7,3.4-5.6c0.3,0.2,0.6,0.5,0.9,0.7c-1.4,0.6-1.7,2.1-2.4,3.2c-1.9,3.2-3.7,6.4-5.6,9.6C60.7,74.6,61.1,74.4,61.5,74.5
	L61.5,74.5z"/>
<path class="st83" d="M70.2,74.7c0-0.1,0-0.1,0-0.2c2-1,3.6-4.3,3.2-6.4l0.1-0.1c0.7,1.1,1.1,2.2,1.3,3.5c-0.1,0.5,0,0.9,0.3,1.4
	c0.1,0.1,0.1,0.1,0,0.2c0,0.6,0,1.2,0,1.7h0C73.4,74.8,71.8,74.7,70.2,74.7L70.2,74.7z"/>
<path class="st84" d="M70.2,74.7c1.6,0.1,3.2,0.1,4.8,0.2c-0.2,0-0.4,0.1-0.6,0.1c-11.6,0-23.2,0-34.8,0c-0.2,0-0.3-0.1-0.5-0.1
	c0.4-0.1,0.8-0.1,1.3-0.2c0.6,0,1.2,0,1.8,0c0.4,0,0.9,0,1.3,0c0.3,0,0.7,0,1,0c0.2,0,0.5,0,0.7,0c1.3,0,2.5,0,3.8,0
	c0.7,0,1.5,0,2.2,0c1.4,0,2.8,0,4.2,0c0.7,0,1.5,0,2.2,0c0.5,0,1.1,0,1.6,0c1.1,0,2.1,0,3.2,0c0.6,0,1.3,0,1.9,0c0.9,0,1.7,0,2.6,0
	L70.2,74.7L70.2,74.7z"/>
<path class="st66" d="M64.4,74.5c-0.1-0.2-0.3-0.4-0.2-0.5c1.8-3.3,3.7-6.6,5.6-10c0.1-0.2,0.5-0.3,0.8-0.5l0.3,0.3
	c-2.1,3.4-4.1,6.9-5.8,10.6C64.8,74.5,64.6,74.5,64.4,74.5L64.4,74.5z"/>
<path class="st47" d="M64.4,74.5c0.2,0,0.4,0,0.6,0c0.6,0,1.2-0.1,1.5-0.7c1.6-2.7,3.2-5.4,4.7-8.1c0.2-0.3,0.1-0.6,0.2-0.9
	c0.6,0.6,1.1,1.2,1.3,2c-0.8-0.6-1.2-0.1-1.6,0.6c-1.4,2.4-2.8,4.9-4.2,7.3c-0.9,0-1.7,0-2.6,0C64.4,74.6,64.4,74.6,64.4,74.5
	L64.4,74.5z"/>
<path class="st85" d="M40.4,74.7c-0.4,0.1-0.8,0.1-1.3,0.2c-1.4,0-2.7,0-4.3,0c0.2-3.3,1.1-6.2,2.9-8.8c-0.6,2.2-1.9,4.2-2.2,6.6
	c-0.1,0.6-0.4,1.2,0,1.8c0.4,0,0.9,0,1.3,0c0.4,0,0.9,0,1.3,0c0.3,0,0.6,0,1,0c0.4,0,0.9,0,1.3,0C40.4,74.6,40.4,74.6,40.4,74.7
	L40.4,74.7z"/>
<path class="st86" d="M47.4,58.5c-0.5,0-0.9,0-1.3-0.4c0.7,0.2,1.2-0.1,1.8-0.3c3.4-1.1,6.8-1.7,10.4-0.9c-0.1,0-0.2,0.1-0.4,0.1
	c-0.4,0-0.8-0.1-1.3-0.1c-0.4,0-0.9,0-1.3,0c-0.3,0-0.6,0-1,0c-0.4,0-0.9,0-1.3,0c-0.6,0.1-1.3,0.2-1.9,0.3c-0.3,0.1-0.6,0.2-1,0.3
	c-0.2,0-0.4,0-0.7,0.1c-0.1,0.1-0.2,0.2-0.3,0.3c-0.2,0-0.4,0-0.7,0c-0.1,0.1-0.2,0.2-0.3,0.3l0,0C48.1,58.2,47.7,58.4,47.4,58.5
	L47.4,58.5z"/>
<path class="st87" d="M58,57c0.1,0,0.2-0.1,0.4-0.1c2-0.1,3.7,1.2,5.7,1.2c-0.1,0.6-0.6,0.4-0.9,0.4c-0.4-0.1-0.8-0.2-1.3-0.3
	c-0.2-0.1-0.4-0.2-0.7-0.3c-0.4-0.1-0.9-0.2-1.3-0.3c-0.3-0.1-0.6-0.2-1-0.3c-0.3,0-0.6,0-1,0C58,57.1,58,57,58,57L58,57z"/>
<path class="st20" d="M65.1,58.1c0.2-0.9,0.5-1.7,1.3-2.2c0,0.2,0,0.4,0,0.7v0c-0.1,0.2-0.2,0.4-0.3,0.6l0,0
	c-0.1,0.1-0.2,0.3-0.3,0.4c0,0.1,0,0.2-0.1,0.2l-0.2,0.4l0,0C65.3,58.2,65.2,58.2,65.1,58.1L65.1,58.1z"/>
<path class="st87" d="M68.2,52.4c-0.8,0.1-1,1-1.6,1.2C67,53,66.9,51.7,68.2,52.4z"/>
<path class="st87" d="M65.1,58.1c0.1,0,0.2,0,0.4,0c0,0.3-0.1,0.5-0.2,0.9c0.2,0.2,0.5,0.4,0.8,0.7c-0.7-0.1-1.2-0.5-1.3-1.3
	C64.8,58.4,64.9,58.3,65.1,58.1L65.1,58.1z"/>
<path class="st85" d="M39.4,63.9c-0.1,0.6-0.5,1-1,1.3C38.6,64.6,38.9,64.2,39.4,63.9z"/>
<path class="st88" d="M42.9,53c-0.3-0.2-0.6-0.4-0.9-0.6c0.9-0.7,1,0,1.3,0.6l-0.1,0.1C43.1,53,43,53,42.9,53L42.9,53z"/>
<path class="st86" d="M45.2,59.1c0,0.1,0,0.2-0.1,0.3c-0.3,0.1-0.6,0.2-1,0.4l0-0.1c0.3-0.4,0.9-0.6,0.7-1.2
	c0.1,0.1,0.2,0.2,0.3,0.3C45.2,58.9,45.2,59,45.2,59.1L45.2,59.1z"/>
<path class="st84" d="M75,74.9c0-0.6,0-1.2,0-1.7C75.3,73.7,75.6,74.3,75,74.9z"/>
<path class="st85" d="M38.4,65.1c0,0.4-0.3,0.8-0.7,1C37.8,65.7,38,65.4,38.4,65.1z"/>
<path class="st3" d="M79.8,88.3c0-0.1,0-0.2,0-0.3c0.3-0.1,0.6-0.2,1-0.3c0,0.1,0,0.2,0,0.3c-0.1,0-0.2,0-0.3,0
	c-0.1,0.1-0.2,0.2-0.3,0.3l0,0C80,88.3,79.9,88.3,79.8,88.3L79.8,88.3z"/>
<path class="st84" d="M75,72.9c-0.3-0.4-0.4-0.9-0.3-1.4C75,71.9,75,72.4,75,72.9z"/>
<path class="st80" d="M43.2,60.4c0.3-0.2,0.7-0.4,1-0.7l0,0.1C43.9,60,43.6,60.2,43.2,60.4L43.2,60.4L43.2,60.4z"/>
<path class="st85" d="M41.3,61.9c-0.2,0.2-0.5,0.5-0.7,0.7C40.8,62.4,41,62.1,41.3,61.9z"/>
<path class="st88" d="M42,52.4c0,0.2,0,0.4-0.1,0.7C41.6,52.8,41.7,52.6,42,52.4z"/>
<path class="st87" d="M66.6,53.6c-0.1,0.2-0.3,0.4-0.4,0.7C66.4,54,66.5,53.8,66.6,53.6z"/>
<path class="st86" d="M46.2,58.1c-0.1-0.2-0.2-0.4-0.4-0.6C45.9,57.7,46.1,57.9,46.2,58.1z"/>
<path class="st87" d="M64.4,57.5c-0.1,0.2-0.2,0.4-0.4,0.7C64.1,57.9,64.3,57.7,64.4,57.5z"/>
<path class="st87" d="M68,53.7c0.1-0.2,0.2-0.5,0.3-0.7C68.2,53.2,68.1,53.5,68,53.7z"/>
<path class="st87" d="M64.7,56.9c-0.1,0.2-0.2,0.4-0.4,0.6C64.5,57.3,64.6,57.1,64.7,56.9z"/>
<path class="st88" d="M43.2,53.7c0-0.1,0-0.2,0-0.3c0-0.1,0-0.2,0-0.3l0.1-0.1c0.1,0.2,0.2,0.4,0.3,0.6l-0.1,0.1
	C43.4,53.7,43.3,53.7,43.2,53.7L43.2,53.7z"/>
<path class="st86" d="M45.8,57.5c-0.1-0.2-0.2-0.4-0.4-0.6C45.6,57.1,45.7,57.3,45.8,57.5z"/>
<path class="st87" d="M66,57.2l0.3-0.6L66,57.2z"/>
<path class="st87" d="M67.3,54.9c0.1-0.2,0.2-0.4,0.3-0.6C67.5,54.5,67.4,54.7,67.3,54.9z"/>
<path class="st88" d="M42.6,54.3c0.1,0.2,0.2,0.4,0.3,0.6C42.8,54.7,42.7,54.5,42.6,54.3z"/>
<path class="st89" d="M43.9,56.5c0.1,0.2,0.2,0.4,0.3,0.6C44.1,57,44,56.8,43.9,56.5z"/>
<path class="st87" d="M66.3,56.5c0-0.2,0-0.4,0-0.7c0.1,0,0.2,0,0.4,0C66.6,56.1,66.5,56.3,66.3,56.5z"/>
<path class="st18" d="M74,47.2c0.1,0.2,0.2,0.4,0.4,0.6C74.2,47.7,74.1,47.5,74,47.2z"/>
<path class="st87" d="M68.3,53.1c0-0.2,0-0.4-0.1-0.6C68.5,52.6,68.5,52.8,68.3,53.1z"/>
<path class="st89" d="M43.5,55.9c0.1,0.2,0.2,0.4,0.4,0.6C43.8,56.3,43.6,56.1,43.5,55.9z"/>
<path class="st87" d="M67.6,54.3c0.1-0.2,0.2-0.4,0.4-0.6C67.9,53.9,67.8,54.1,67.6,54.3z"/>
<path class="st89" d="M41.9,53c0.1,0.1,0.3,0.2,0.4,0.3c-0.1,0-0.2,0-0.3,0C42,53.2,41.9,53.1,41.9,53L41.9,53z"/>
<path class="st85" d="M39.7,63.5c-0.1,0.1-0.2,0.2-0.3,0.4C39.5,63.8,39.6,63.7,39.7,63.5z"/>
<path class="st87" d="M65.7,55.2c-0.1,0.1-0.2,0.2-0.2,0.3C65.5,55.4,65.6,55.3,65.7,55.2z"/>
<path class="st87" d="M65.7,57.6c0.1-0.1,0.2-0.3,0.3-0.4C65.9,57.3,65.8,57.5,65.7,57.6z"/>
<path class="st89" d="M44.8,55.6c-0.1-0.1-0.2-0.2-0.2-0.4C44.6,55.3,44.7,55.5,44.8,55.6z"/>
<path class="st86" d="M44.6,57.8c0.1,0.1,0.2,0.3,0.2,0.4C44.7,58.1,44.7,58,44.6,57.8z"/>
<path class="st87" d="M67,55.4c0.1-0.1,0.2-0.3,0.3-0.4C67.2,55.1,67.1,55.2,67,55.4z"/>
<path class="st86" d="M44.2,57.2c0.1,0.1,0.2,0.3,0.3,0.4C44.4,57.5,44.3,57.3,44.2,57.2z"/>
<path class="st87" d="M65.4,58.2l0.2-0.4L65.4,58.2z"/>
<path class="st89" d="M43.3,55.6c0.1,0.1,0.2,0.2,0.2,0.4C43.5,55.8,43.4,55.7,43.3,55.6z"/>
<path class="st88" d="M42.9,54.9c0.1,0.1,0.2,0.3,0.3,0.4C43.1,55.2,43,55.1,42.9,54.9L42.9,54.9z"/>
<path class="st87" d="M66,54.6c-0.1,0.1-0.1,0.2-0.2,0.3C65.9,54.8,66,54.7,66,54.6z"/>
<path class="st89" d="M44.4,54.9c-0.1-0.1-0.1-0.2-0.2-0.3C44.3,54.7,44.3,54.8,44.4,54.9z"/>
<path class="st87" d="M66.3,54.2c-0.1,0.1-0.2,0.3-0.3,0.4C66.1,54.5,66.2,54.3,66.3,54.2z"/>
<path class="st88" d="M44.2,54.6c-0.1-0.1-0.2-0.3-0.3-0.4C44,54.3,44.1,54.5,44.2,54.6z"/>
<path class="st89" d="M44,54.2c-0.1-0.1-0.3-0.2-0.4-0.3c0.1,0,0.2,0,0.3,0C43.9,54,44,54.1,44,54.2z"/>
<path class="st87" d="M65,56.4c-0.1,0.2-0.2,0.3-0.3,0.5C64.8,56.7,64.9,56.6,65,56.4z"/>
<path class="st88" d="M42.6,54c0,0.1,0,0.2,0,0.4c-0.1-0.1-0.2-0.2-0.2-0.3C42.4,54,42.5,54,42.6,54z"/>
<path class="st88" d="M43.9,54c-0.1,0-0.2,0-0.3,0h0c0-0.1,0-0.2,0-0.3l0.1-0.1C43.7,53.7,43.8,53.8,43.9,54L43.9,54z"/>
<path class="st86" d="M45.5,56.9c-0.1-0.2-0.2-0.3-0.3-0.5C45.3,56.6,45.4,56.7,45.5,56.9z"/>
<path class="st80" d="M42.8,60.6c0.1-0.1,0.3-0.2,0.4-0.3l0,0c-0.1,0.1-0.2,0.2-0.3,0.3C42.9,60.7,42.9,60.7,42.8,60.6L42.8,60.6z"
	/>
<path class="st89" d="M42.6,54c-0.1,0-0.2,0-0.2,0c0-0.1-0.1-0.2-0.1-0.3C42.3,53.8,42.5,53.9,42.6,54L42.6,54z"/>
<path class="st88" d="M42,53.3c0.1,0,0.2,0,0.3,0c0,0.1,0,0.2,0,0.4C42.2,53.6,42.1,53.5,42,53.3L42,53.3z"/>
<path class="st87" d="M65.3,55.8c-0.1,0.1-0.2,0.3-0.2,0.4C65.2,56.1,65.3,55.9,65.3,55.8z"/>
<path class="st86" d="M45.1,56.2l-0.3-0.4C45,55.9,45,56.1,45.1,56.2z"/>
<path class="st85" d="M41.6,61.6c-0.1,0.1-0.3,0.3-0.4,0.4C41.3,61.8,41.5,61.7,41.6,61.6z"/>
<path class="st85" d="M40.6,62.5c-0.1,0.1-0.3,0.3-0.4,0.4C40.4,62.8,40.5,62.7,40.6,62.5z"/>
<path class="st87" d="M66.7,55.9c0.1-0.1,0.2-0.2,0.2-0.4C66.8,55.7,66.8,55.8,66.7,55.9z"/>
<path class="st85" d="M40.3,62.9c-0.1,0.1-0.3,0.3-0.4,0.4C40.1,63.1,40.2,63,40.3,62.9z"/>
<path class="st85" d="M40,63.2c-0.1,0.1-0.2,0.3-0.4,0.4C39.8,63.5,39.9,63.3,40,63.2z"/>
<path class="st53" d="M80.1,88.3c0.1-0.1,0.2-0.2,0.3-0.3C80.3,88.1,80.2,88.2,80.1,88.3z"/>
<path class="st71" d="M73.1,89.6c0.1-0.1,0.2-0.1,0.3-0.2C73.3,89.4,73.2,89.5,73.1,89.6z"/>
<path class="st55" d="M78.8,88.6c0.1-0.1,0.2-0.2,0.3-0.3C79.1,88.4,78.9,88.5,78.8,88.6z"/>
<path class="st48" d="M61.2,57.8c0.2,0.1,0.4,0.2,0.7,0.3c-3,5.3-6.4,10.5-9.1,16.2c0.6,0.1,1,0.1,1.4,0.2c0.4,0,0.9,0,1.3,0
	c0,0.1,0,0.1,0,0.2c-1.4,0-2.8,0-4.2,0c0-0.1,0-0.1,0-0.2c0.6-0.2,0.8-0.7,1.1-1.1C55.1,68.1,58.1,62.9,61.2,57.8L61.2,57.8z"/>
<path class="st26" d="M54.1,74.5c-0.4,0-0.8-0.1-1.4-0.2c2.7-5.7,6.1-10.9,9.1-16.2c0.4,0.1,0.8,0.2,1.3,0.3
	c-2.7,4.7-5.4,9.4-8.1,14.1C54.7,73.2,54.4,73.9,54.1,74.5z"/>
<path class="st90" d="M43,60.7c0.1-0.1,0.2-0.2,0.3-0.3c0.3-0.2,0.6-0.4,0.9-0.6c0.3-0.1,0.6-0.2,1-0.4c-1.2,3.4-3.4,6.2-5.1,9.4
	c-1,1.9-2.4,3.6-3.2,5.7c-0.4,0-0.9,0-1.3,0c2.4-4,4.7-8,7.1-12C43,62,43.2,61.4,43,60.7L43,60.7z"/>
<path class="st91" d="M47.4,58.5c0.3-0.1,0.6-0.2,1-0.3c-3.1,5.5-6.2,10.9-9.3,16.4c-0.3,0-0.6,0-1,0C41.2,69.2,44.3,63.8,47.4,58.5
	L47.4,58.5z"/>
<path class="st89" d="M45.2,59.1c0-0.1,0-0.2,0-0.3C45.2,58.9,45.2,59,45.2,59.1z"/>
<path class="st89" d="M43.5,53.7c0,0.1,0,0.2,0,0.3c-0.1-0.1-0.2-0.2-0.3-0.3C43.3,53.7,43.4,53.7,43.5,53.7z"/>
<path class="st89" d="M43.2,53.1c0,0.1,0,0.2,0,0.3c-0.1-0.1-0.2-0.2-0.3-0.3C43,53,43.1,53,43.2,53.1L43.2,53.1z"/>
<path class="st61" d="M73.4,68.1c0.4,2.1-1.2,5.4-3.2,6.4c-0.4,0-0.9,0.1-1.3-0.3c0.8-2.1,2.2-3.9,3.4-5.8
	C72.5,67.9,72.9,67.9,73.4,68.1L73.4,68.1z"/>
<path class="st59" d="M53.2,56.9c0.4,0,0.9,0,1.3,0c-0.2,0.5-0.5,1.1-0.7,1.6c-3.1,5.4-6.1,10.8-9.2,16.2c-0.3,0-0.7,0-1,0
	c-0.3-0.7,0.2-1.2,0.4-1.8C46.7,67.4,50.1,62.2,53.2,56.9L53.2,56.9z"/>
<path class="st16" d="M53.2,56.9c-3.1,5.3-6.4,10.5-9.2,16.1c-0.3,0.6-0.7,1.1-0.4,1.8c-0.4,0-0.9,0-1.3,0c-0.5-0.5-0.2-1,0.1-1.5
	c1.1-2,2.2-4.1,3.3-6.1c1.9-3.3,3.8-6.7,5.7-10C51.9,57.1,52.5,57,53.2,56.9L53.2,56.9z"/>
<path class="st41" d="M51.3,74.5c0,0.1,0,0.1,0,0.2c-0.7,0-1.5,0-2.2,0c0-0.1,0-0.1,0-0.2c3.3-5.8,6.6-11.5,9.9-17.3
	c0.3,0.1,0.6,0.2,1,0.3c-0.3,0.5-0.5,1-0.8,1.5c-2.7,4.7-5.4,9.3-8,14C50.8,73.5,49.8,74.2,51.3,74.5L51.3,74.5z"/>
<path class="st68" d="M49,74.5c0,0.1,0,0.1,0,0.2c-1.3,0-2.5,0-3.8,0c0.1-0.1,0.2-0.1,0.3-0.2c1,0.1,1.6-0.5,2-1.3
	c0.8-1.3,1.6-2.6,2.4-4c2.4-4.1,4.9-8.1,6.8-12.4c0.4,0,0.8,0.1,1.3,0.1c0,0.1,0,0.1,0,0.2c-1.3,1.2-1.7,2.9-2.6,4.4
	c-2.5,4.2-4.9,8.4-7.5,12.8C48.4,74.4,48.7,74.4,49,74.5L49,74.5z"/>
<path class="st57" d="M45.5,74.5c-0.1,0.1-0.2,0.1-0.3,0.2c-0.2,0-0.5,0-0.7,0c3.1-5.4,6.1-10.8,9.2-16.2c0.3-0.5,0.5-1.1,0.7-1.6
	c0.3,0,0.6,0,1,0C52.5,63,48.7,68.6,45.5,74.5L45.5,74.5z"/>
<path class="st92" d="M51.3,57.2c-1.9,3.3-3.8,6.7-5.7,10c-1.1,2-2.2,4-3.3,6.1c-0.2,0.5-0.6,0.9-0.1,1.5c-0.6,0-1.2,0-1.8,0
	c0-0.1,0-0.1,0-0.2c1.2-0.9,1.5-2.4,2.2-3.6c2.6-4.4,5.2-8.9,7.7-13.3C50.6,57.4,50.9,57.3,51.3,57.2L51.3,57.2z"/>
<path class="st77" d="M50.3,57.5c-2.6,4.5-5.1,8.9-7.7,13.3c-0.7,1.2-1,2.7-2.2,3.6c-0.4,0-0.9,0-1.3,0c3.1-5.5,6.2-10.9,9.3-16.4
	l0,0c0.1-0.1,0.2-0.2,0.3-0.3c0.2,0,0.4,0,0.7,0c0.1-0.1,0.2-0.2,0.3-0.3L50.3,57.5L50.3,57.5z"/>
<path class="st75" d="M45.5,74.5c3.2-5.9,7-11.5,9.9-17.6c0.4,0,0.9,0,1.3,0c-1.9,4.3-4.4,8.3-6.8,12.4c-0.8,1.3-1.6,2.6-2.4,4
	C47.1,74,46.5,74.6,45.5,74.5L45.5,74.5z"/>
<path class="st91" d="M48.7,57.9c-0.1,0.1-0.2,0.2-0.3,0.3C48.5,58.1,48.6,58,48.7,57.9z"/>
<path class="st91" d="M49.6,57.6c-0.1,0.1-0.2,0.2-0.3,0.3C49.4,57.7,49.5,57.7,49.6,57.6z"/>
<path class="st33" d="M51.3,74.5c-1.4-0.3-0.5-1-0.2-1.5c2.7-4.7,5.4-9.3,8-14c0.3-0.5,0.6-1,0.8-1.5c0.4,0.1,0.9,0.2,1.3,0.3
	c-3.1,5.1-6.1,10.2-8.9,15.5C52.1,73.8,51.8,74.3,51.3,74.5L51.3,74.5z"/>
<path class="st67" d="M49,74.5c-0.3-0.1-0.6-0.1-1.1-0.2c2.5-4.3,5-8.6,7.5-12.8c0.9-1.4,1.2-3.2,2.6-4.4c0.3,0,0.6,0,1,0
	C55.6,63,52.3,68.7,49,74.5L49,74.5z"/>
</svg>
