<?xml version="1.0" encoding="UTF-8"?>
<svg id="Layer_1" data-name="Layer 1" xmlns="http://www.w3.org/2000/svg" viewBox="0 0 110.01 110">
  <defs>
    <style>
      .cls-1 {
        stroke-width: 0px;
      }
    </style>
  </defs>
  <path class="cls-1" d="m64.96,59.03l3.38-5.85c.47-.81-.75-1.52-1.22-.7l-3.42,5.93c-2.62-1.19-5.56-1.86-8.69-1.86s-6.08.67-8.69,1.86l-3.42-5.93c-.47-.81-1.69-.11-1.22.7l3.38,5.86c-5.8,3.16-9.78,9.03-10.36,15.98h40.62c-.58-6.94-4.55-12.82-10.36-15.98M55.01,5C41.77,5-.82,82.23,5.67,95.28c6.49,13.04,92.25,12.89,98.68,0S68.25,5,55.01,5Zm32.34,78.96c-4.21,8.45-60.41,8.55-64.66,0-4.25-8.55,23.66-59.16,32.32-59.16s36.55,50.69,32.34,59.16Z"/>
</svg>