<?xml version="1.0" encoding="UTF-8"?>
<svg id="Layer_1" data-name="Layer 1" xmlns="http://www.w3.org/2000/svg" viewBox="0 0 512 512">
  <defs>
    <style>
      .cls-1 {
        fill: #29c9a0;
      }

      .cls-1, .cls-2, .cls-3, .cls-4, .cls-5, .cls-6, .cls-7, .cls-8, .cls-9, .cls-10, .cls-11, .cls-12, .cls-13, .cls-14, .cls-15, .cls-16, .cls-17, .cls-18, .cls-19, .cls-20, .cls-21, .cls-22, .cls-23, .cls-24, .cls-25, .cls-26, .cls-27, .cls-28, .cls-29, .cls-30, .cls-31, .cls-32, .cls-33, .cls-34, .cls-35, .cls-36, .cls-37, .cls-38, .cls-39, .cls-40, .cls-41, .cls-42, .cls-43, .cls-44, .cls-45, .cls-46, .cls-47, .cls-48, .cls-49, .cls-50, .cls-51, .cls-52, .cls-53, .cls-54, .cls-55, .cls-56, .cls-57, .cls-58, .cls-59, .cls-60, .cls-61, .cls-62, .cls-63, .cls-64, .cls-65, .cls-66, .cls-67, .cls-68, .cls-69, .cls-70, .cls-71, .cls-72, .cls-73, .cls-74, .cls-75, .cls-76, .cls-77, .cls-78, .cls-79, .cls-80, .cls-81, .cls-82, .cls-83, .cls-84, .cls-85, .cls-86, .cls-87, .cls-88, .cls-89, .cls-90, .cls-91, .cls-92, .cls-93, .cls-94 {
        stroke-width: 0px;
      }

      .cls-2 {
        fill: #24c4a7;
      }

      .cls-3 {
        fill: #18b9b8;
      }

      .cls-4 {
        fill: #39d888;
      }

      .cls-5 {
        fill: #3cda85;
      }

      .cls-6 {
        fill: #2ecc99;
      }

      .cls-7 {
        fill: #31c485;
      }

      .cls-8 {
        fill: #05a8d4;
      }

      .cls-9 {
        fill: #33d191;
      }

      .cls-10 {
        fill: #1bbbb3;
      }

      .cls-11 {
        fill: #1cbdb2;
      }

      .cls-12 {
        fill: #30cf96;
      }

      .cls-13 {
        fill: #30ce95;
      }

      .cls-14 {
        fill: #23c3a9;
      }

      .cls-15 {
        fill: #19bab6;
      }

      .cls-16 {
        fill: #10b1c2;
      }

      .cls-17 {
        fill: #38d68b;
      }

      .cls-18 {
        fill: #14b5be;
      }

      .cls-19 {
        fill: #1ebfb0;
      }

      .cls-20 {
        fill: #23c3a8;
      }

      .cls-21 {
        fill: #31d094;
      }

      .cls-22 {
        fill: #27c6a2;
      }

      .cls-23 {
        fill: #2dcc9b;
      }

      .cls-24 {
        fill: #0aaccd;
      }

      .cls-25 {
        fill: #17b8b9;
      }

      .cls-26 {
        fill: #0eb0c7;
      }

      .cls-27 {
        fill: #07a9d1;
      }

      .cls-29 {
        fill: #17b8ba;
      }

      .cls-30 {
        fill: #00a3db;
      }

      .cls-31 {
        fill: #0aaccc;
      }

      .cls-32 {
        fill: #27c7a3;
      }

      .cls-33 {
        fill: #1fc0ae;
      }

      .cls-34 {
        fill: #2aca9e;
      }

      .cls-35 {
        fill: #29c89f;
      }

      .cls-36 {
        fill: #22c2aa;
      }

      .cls-37 {
        fill: #36d58d;
      }

      .cls-38 {
        fill: #32d093;
      }

      .cls-39 {
        fill: #34d390;
      }

      .cls-40 {
        fill: #2ecd99;
      }

      .cls-41 {
        fill: #0badcb;
      }

      .cls-42 {
        fill: #0eb0c6;
      }

      .cls-43 {
        fill: #12b4c1;
      }

      .cls-44 {
        fill: #09abce;
      }

      .cls-45 {
        fill: #12b4c0;
      }

      .cls-46 {
        fill: #1fbfae;
      }

      .cls-47 {
        fill: #0fb1c5;
      }

      .cls-48 {
        fill: #1eb9a8;
      }

      .cls-49 {
        fill: #02a5d8;
      }

      .cls-50 {
        fill: #31d095;
      }

      .cls-51 {
        fill: #2fce98;
      }

      .cls-52 {
        fill: #0d9aab;
      }

      .cls-53 {
        fill: #25c4a5;
      }

      .cls-54 {
        fill: #02a5d7;
      }

      .cls-55 {
        fill: #25c5a6;
      }

      .cls-56 {
        fill: #2dc28c;
      }

      .cls-57 {
        fill: #0caec9;
      }

      .cls-58 {
        fill: #0dafc8;
      }

      .cls-59 {
        fill: #10b2c3;
      }

      .cls-60 {
        fill: #04a7d4;
      }

      .cls-61 {
        fill: #2bca9c;
      }

      .cls-62 {
        fill: #19bab7;
      }

      .cls-63 {
        fill: #15b5bc;
      }

      .cls-64 {
        fill: #0caeca;
      }

      .cls-65 {
        fill: #21c1ac;
      }

      .cls-66 {
        fill: #31cd90;
      }

      .cls-67 {
        fill: #2ccb9c;
      }

      .cls-68 {
        fill: #08aad0;
      }

      .cls-69 {
        fill: #33d291;
      }

      .cls-70 {
        fill: #1dbeb0;
      }

      .cls-71 {
        fill: #1abbb5;
      }

      .cls-72 {
        fill: #10b2c4;
      }

      .cls-73 {
        fill: #35d48e;
      }

      .cls-74 {
        fill: #18b9b9;
      }

      .cls-75 {
        fill: #2ecc98;
      }

      .cls-76 {
        fill: #3ddb83;
      }

      .cls-77 {
        fill: #1abbb6;
      }

      .cls-78 {
        fill: #32d193;
      }

      .cls-79 {
        fill: #03a6d6;
      }

      .cls-80 {
        fill: #2fce97;
      }

      .cls-81 {
        fill: #08aacf;
      }

      .cls-82 {
        fill: #26c6a4;
      }

      .cls-83 {
        fill: #11b3c2;
      }

      .cls-84 {
        fill: #01a4d9;
      }

      .cls-85 {
        fill: #31cf94;
      }

      .cls-86 {
        fill: #28c8a1;
      }

      .cls-87 {
        fill: #2dcc9a;
      }

      .cls-88 {
        fill: #30c78b;
      }

      .cls-89 {
        fill: #16b7bb;
      }

      .cls-90 {
        fill: #1bbcb4;
      }

      .cls-91 {
        fill: #3bd986;
      }

      .cls-92 {
        fill: #3bd984;
      }

      .cls-93 {
        fill: #28c7a1;
      }

      .cls-94 {
        fill: #1dbdb0;
      }
    </style>
  </defs>
  <path class="cls-28" d="m0,0h512v512H0V0Zm338.14,195.95c-.86-2.44-2.2-4.59-3.99-6.45-.33-.51-.65-1.02-.98-1.53-1.03-1.67-2.07-3.33-3.1-5l-1.89-3.04c-1.06-1.66-2.11-3.32-3.17-4.99-.23-.36-.46-.73-.69-1.09l-1.23-1.88c-1.29-2.02-2.59-4.04-3.88-6.06-2.15-4.38-5.07-8.24-8.21-11.95-.23-.36-.47-.72-.7-1.08-1.06-1.43-2.12-2.85-3.18-4.28l-2.02-2.67c-.57-1.7-1.6-3.06-3.06-4.1-.25-.33-.49-.66-.74-.98-1.06-1.39-2.12-2.78-3.18-4.17-.7-.92-1.41-1.84-2.11-2.76-.27-.34-.54-.68-.81-1.01-1.06-1.34-2.12-2.68-3.19-4.02-.63-.76-1.26-1.53-1.9-2.29-.72-.85-1.44-1.71-2.16-2.56-1.31-1.4-2.61-2.8-3.92-4.2-.99-1.02-1.99-2.03-2.98-3.05l-2.96-2.85c-.34-.33-.67-.66-1.01-.99-1.51-2.33-3.53-4.08-6.02-5.29-9.52-8.83-17.27-9.56-27.75-2.24-8.81,6.16-16.06,14.02-22.9,22.21-24.91,29.79-45.06,62.76-63.78,96.62-20.18,36.49-38.45,73.88-50.95,113.82-3.49,11.15-6.21,22.48-5.91,34.32.19,7.52,3.78,12.88,10.1,16.62,1.07.64,2.13,1.29,3.2,1.93,1.3.67,2.61,1.35,3.91,2.02,1.44,1.22,3.04,2.05,4.96,2.12.93.33,1.87.66,2.8,1,.98.33,1.96.66,2.94.99,1.77.58,3.53,1.16,5.3,1.75l.41.25.47-.06c1.17.81,2.43,1.28,3.87,1.04,1.57.87,3.24,1.28,5.04,1.1,2.91,1.27,5.97,1.84,9.13,1.96,1.66.33,3.32.66,4.97.99,1.65.31,3.3.62,4.95.93,4.64,1.22,9.35,1.88,14.14,1.93,2.9,1.01,5.9,1.28,8.95,1.15,6.97,1.13,13.98,1.8,21.04,1.72,1,.08,1.99.17,2.99.25,1.3.69,2.64.66,4.01.28,6.63.91,13.29,1.07,19.96.68,16.97,1.36,33.94.95,50.91.06,6.15.16,12.28-.1,18.38-1.03,10.78-.36,21.55-.89,32.17-2.99,19.27-1.79,38.24-5.09,56.31-12.2,19.37-7.62,23.27-14.7,19.62-35.4-4.68-26.56-14.97-51.24-26.03-75.64-1.87-5.21-4.13-10.25-7.06-14.96-1.56-4.56-3.63-8.87-6.25-12.91-.34-.66-.68-1.32-1.02-1.98-.67-1.34-1.34-2.67-2.01-4.01-.9-1.74-1.81-3.49-2.71-5.23-.36-.67-.72-1.34-1.08-2.01-.46-.91-.92-1.82-1.39-2.73-.57-1.02-1.15-2.04-1.72-3.06-.35-.66-.69-1.32-1.04-1.99-.89-1.72-1.77-3.43-2.66-5.15-.75-1.39-1.51-2.77-2.26-4.16-.3-.59-.6-1.17-.91-1.76-1.47-2.64-2.94-5.28-4.41-7.92-.96-1.67-1.92-3.33-2.88-5-1-3.02-2.58-5.7-4.65-8.11-.9-2.6-2.27-4.92-4.13-6.95Z"/>
  <path class="cls-76" d="m109.89,389.04c-6.32-3.74-9.91-9.1-10.1-16.62-.3-11.84,2.42-23.17,5.91-34.32,12.5-39.93,30.77-77.32,50.95-113.82,18.72-33.86,38.87-66.83,63.78-96.62,6.85-8.19,14.1-16.05,22.9-22.21,10.47-7.32,18.23-6.6,27.75,2.24.88,1.68,1.23,3.18.11,5.1-7.58,13.03-15.26,26.01-22.44,39.26-5.44,10.03-11.74,19.5-17.66,29.22-6.34,8.92-12.92,17.68-18.97,26.79-19.06,28.73-34.68,59.3-48.24,90.95-2.37,1.64-2.78,4.46-4.04,6.76-13.27,24.15-28.48,47.17-41.28,71.6-2.21,4.21-3.4,9.58-8.67,11.69Z"/>
  <path class="cls-30" d="m384.31,283.87c11.06,24.39,21.35,49.08,26.03,75.64,3.65,20.7-.25,27.78-19.62,35.4-18.07,7.11-37.05,10.41-56.31,12.2-8.1.57-16.2,1.15-24.3,1.72,9.97-16.94,19.15-34.35,29.9-50.83.3-.44.59-.89.89-1.33,5.61-2.59,11.59-4.59,15.59-9.75,1.83-1.47,2.48-3.55,2.41-5.71-.16-4.74-.58-9.48-.89-14.22,6.94-15.15,16.2-28.94,25-43,.43-.04.87-.08,1.3-.12Z"/>
  <path class="cls-4" d="m121.96,395.11c-1.92-.07-3.52-.9-4.96-2.12,4.94-9.18,9.7-18.46,14.86-27.52,6.53-11.46,13.38-22.73,20.78-35.24.21,2.54.3,3.65.39,4.76-.02,2.67-.03,5.34-.05,8.01-10.34,17.37-20.68,34.73-31.03,52.1Z"/>
  <path class="cls-8" d="m310.1,408.83c8.1-.57,16.2-1.15,24.3-1.72-10.62,2.1-21.39,2.63-32.17,2.99-3.73-.07-7.45-.13-11.18-.2,3.68-6.85,7.31-13.73,11.06-20.54,4.86-8.82,10.95-16.96,14.89-26.3.33-.04.66-.07.99-.09,2.33-.32,4.67-.64,7-.95-7.81,15.6-16.77,30.57-25.6,45.08,1.25,2.03,2.49,1.78,3.62,1.87,1.01-.02,2.03-.03,3.04-.05,1.35-.03,2.69-.05,4.04-.08Z"/>
  <path class="cls-5" d="m109.89,389.04c5.27-2.11,6.46-7.48,8.67-11.69,12.8-24.43,28.01-47.45,41.28-71.6,1.26-2.29,1.67-5.12,4.04-6.76-2.23,6.36-4.45,12.71-6.68,19.07-1.16,1.61-2.46,3.14-3.45,4.85-11.01,19.14-21.88,38.36-33.03,57.41-2.19,3.73-3.08,8.56-7.64,10.65-1.07-.64-2.13-1.29-3.2-1.93Z"/>
  <path class="cls-4" d="m278.11,113.95l2.96,2.85c.74,2.72-.73,4.82-2,6.95-3.66,6.12-7.26,12.27-11.07,18.29-4.22,6.67-6.71,14.49-13,19.8-1.99.75-3.98,1.5-5.97,2.25,5.04-8.94,10.28-17.78,15.06-26.86,4.23-8.05,8.26-16.18,14.02-23.29Z"/>
  <path class="cls-92" d="m231.09,181.25c5.93-9.71,12.22-19.19,17.66-29.22,7.18-13.25,14.86-26.23,22.44-39.26,1.11-1.91.76-3.42-.11-5.1,2.49,1.21,4.51,2.95,6.02,5.29-3.49,1.14-4.97,4.28-6.57,7.08-6.48,11.33-12.88,22.72-19.11,34.19-2.05,3.78-5.71,6.9-5.33,11.79-5,5.07-10,10.15-15,15.22Z"/>
  <path class="cls-37" d="m152.99,343.01c.02-2.67.03-5.34.04-8.01.25,0,.5,0,.74,0-.08,5.39.02,10.73,4.26,14.88-7.83,13.32-15.59,26.68-23.52,39.94-1.71,2.85-2.51,6.77-6.81,7.28-.98-.33-1.96-.66-2.94-.99.97-.85,2.24-1.52,2.87-2.57,8.1-13.66,16.09-27.39,24.15-41.07,1.78-3.01,2.58-6.07,1.21-9.45Z"/>
  <path class="cls-17" d="m152.99,343.01c1.37,3.38.57,6.44-1.21,9.45-8.06,13.68-16.05,27.41-24.15,41.07-.62,1.05-1.9,1.72-2.87,2.57-.93-.33-1.87-.66-2.8-1,10.34-17.37,20.68-34.73,31.03-52.1Z"/>
  <path class="cls-35" d="m176,406.99c-4.79-.06-9.51-.72-14.14-1.93.69-.09,1.39-.18,2.08-.27,4.37.75,4.88-3.09,6.57-5.53,7.82-11.28,13.8-23.6,20.07-35.28-.56-1.74-1.61-1.79-2.58-1.99,0-.31,0-.62,0-.93,4.07.62,8.13,1.23,12.2,1.85-1.05.08-2.09.15-3.14.23-5.48,4.93-6.99,12.24-10.83,18.18-4.89,7.58-9.2,15.53-13.62,23.08.97,1.73,2.23,1.47,3.34,1.59.01.33.02.67.04,1Z"/>
  <path class="cls-91" d="m153.78,335c-.25,0-.5,0-.74,0-.09-1.11-.18-2.22-.39-4.76-7.4,12.51-14.25,23.78-20.78,35.24-5.16,9.05-9.92,18.34-14.86,27.52-1.3-.67-2.61-1.35-3.91-2.02,4.56-2.09,5.45-6.92,7.64-10.65,11.16-19.05,22.02-38.27,33.03-57.41.98-1.71,2.29-3.24,3.45-4.85-1.14,5.65-2.29,11.29-3.43,16.94Z"/>
  <path class="cls-20" d="m205.99,409.86c-7.07.08-14.07-.59-21.04-1.72.02-.38.04-.75.07-1.13,1.93.9,3.47.77,4.54-1.38,6.96-13.98,15.64-26.97,23.41-40.48,1.72-.07,3.45-.15,5.17-.22,5.37-.06,10.74-.08,16.04.98-3.41.07-6.83.13-10.24.2-1.65-.02-3.31-.04-4.96-.06-2.33.03-3.6,1.59-4.54,3.38-6.16,11.71-14.19,22.36-19.71,34.45-.65,1.41-2.21,2.89.29,4.08,1.67.29,3.33.57,5,.86,1.98.05,3.97.1,5.95.15l.09.11c-.03.26-.05.53-.07.8Z"/>
  <path class="cls-17" d="m255,161.85c6.29-5.31,8.78-13.13,13-19.8,3.81-6.02,7.41-12.17,11.07-18.29,1.27-2.13,2.74-4.23,2-6.95.99,1.02,1.99,2.03,2.98,3.05.41,1.89-.03,3.56-1.03,5.23-6.8,11.44-13.55,22.9-20.27,34.38-.92,1.57-2.16,2.48-3.96,2.64-1.26-.08-2.53-.16-3.79-.25Z"/>
  <path class="cls-39" d="m133.88,399.04l-.47.06-.41-.25c5.19-11.92,13.11-22.29,19.29-33.65,2.5-4.59,4.27-9.74,8.6-13.16.7.39,1.4.77,2.1,1.16-6.94,12.45-13.67,25.03-20.94,37.28-1.95,3.28-3.01,8.08-8.17,8.57Z"/>
  <path class="cls-70" d="m212.99,410.39c-1.37.38-2.71.41-4.01-.28-.97-.35-1.94-.7-2.92-1.05,0,0-.09-.11-.09-.11,8.17-13.75,16.34-27.51,24.64-41.49,1.48-.14,2.93-.29,4.38-.43-7.27,12.85-14.56,25.69-21.78,38.57-.78,1.38-2.84,2.94-.21,4.58v.2Z"/>
  <path class="cls-37" d="m258.79,162.09c1.8-.16,3.04-1.06,3.96-2.64,6.73-11.48,13.48-22.94,20.27-34.38.99-1.67,1.43-3.34,1.03-5.23,1.31,1.4,2.61,2.8,3.92,4.2-4.71,8.36-8.93,17.05-14.3,24.97-3.44,5.07-4.83,11.74-10.78,15.02-1.37-.65-2.73-1.3-4.1-1.95Z"/>
  <path class="cls-69" d="m133.88,399.04c5.16-.49,6.22-5.29,8.17-8.57,7.28-12.25,14.01-24.83,20.94-37.28.68.34,1.36.68,2.03,1.02.39.25.78.5,1.17.75l-.05-.08c-7.57,13.41-15.14,26.82-22.72,40.22-1.31,2.31-2.51,4.78-5.67,4.98-1.45.24-2.71-.23-3.87-1.04Z"/>
  <path class="cls-33" d="m330.08,182.97c1.03,1.67,2.07,3.33,3.1,5-1.32-.31-2.2.25-2.83,1.4-3.6,6.48-7.08,13.03-10.87,19.39-2.97,5-4.33,11.14-9.87,14.39-.58-.96-1.15-1.91-1.73-2.87.05-.42.11-.84.16-1.27,2.09-1.28,2.88-3.44,4.02-5.47,5.79-10.32,10.95-21.01,18.03-30.57Z"/>
  <path class="cls-73" d="m262.9,164.04c5.95-3.28,7.34-9.95,10.78-15.02,5.37-7.91,9.59-16.6,14.3-24.97.72.85,1.44,1.71,2.16,2.56-6.57,13.58-13.46,26.99-22.14,39.39-.72.02-1.43.03-2.15.05-.98-.67-1.97-1.34-2.95-2.01Z"/>
  <path class="cls-34" d="m310.31,152.89c.23.36.47.72.7,1.08,0,.68,0,1.36,0,2.04-4.59,7.9-9.11,15.83-13.79,23.67-2.52,4.22-3.95,9.18-8.14,12.3-.4-.56-.8-1.13-1.2-1.69.2-.97.18-2.07.64-2.9,5.56-10.18,11.1-20.38,16.9-30.43,1-1.72,3.23-2.73,4.89-4.07Z"/>
  <path class="cls-45" d="m354.21,223.93c.3.59.6,1.17.91,1.76-6.8,12.78-13.19,25.8-22.12,37.31-.67-1.33-1.33-2.67-2-4,7.29-11.83,14.97-23.44,21-36,.74.31,1.47.62,2.21.93Z"/>
  <path class="cls-10" d="m212.99,410.39s0-.2,0-.2c.97-.6,2.35-.96,2.85-1.83,7.77-13.42,15.43-26.91,23.34-40.77-1.34-.28-2.26-.47-3.18-.65,0-.3,0-.6,0-.9,12.65.02,25.31.05,37.96.07,0,.29-.02.59-.06.88-1.65.04-3.3.07-4.95.11-1.65.01-3.31.02-4.96.03-1.02,0-2.04,0-3.06,0-1.33,0-2.67,0-4,0-1,0-2,0-3.01,0h-3.99c-1,0-2,0-3,0-3.04-.35-4.91,1.12-6.37,3.68-2.21,3.86-4.89,7.46-6.96,11.39-4.73,9.01-10.97,17.23-14.78,27.24,1.36.21,2.29.35,3.21.49,1.32,0,2.65,0,3.97,0,1.33,0,2.66,0,4,.01.99.01,1.98.02,2.97.03l.06.05c.03.26.08.52.15.77l-.24.27c-6.67.39-13.33.24-19.96-.68Z"/>
  <path class="cls-22" d="m218.14,364.93c-1.72.07-3.45.15-5.17.22-1.33-.03-2.65-.06-3.98-.09-1.33-.02-2.66-.04-3.99-.06-1.98-.99-2.76.55-3.49,1.8-7.04,12.08-14.05,24.19-21.02,36.31-1,1.74-1.65,3.6,1.52,3.78.99.03,1.98.06,2.98.1l.02.03c-.02.38-.04.75-.07,1.13-3.05.13-6.05-.14-8.95-1.15-.01-.33-.02-.67-.04-1,6.81-12.19,13.63-24.39,20.44-36.58,1.12-2,2.88-3.93.66-6.28,1.05-.08,2.09-.15,3.14-.23,5.98.67,11.96,1.34,17.94,2.02Z"/>
  <path class="cls-19" d="m309.61,223.14c5.54-3.24,6.9-9.39,9.87-14.39,3.78-6.37,7.27-12.92,10.87-19.39.64-1.15,1.51-1.7,2.83-1.4.33.51.65,1.02.98,1.53-5.36,11.93-12.1,23.1-18.6,34.42-.86,1.5-1.84,2.75-3.63,3.11-.77-1.29-1.54-2.59-2.32-3.88Z"/>
  <path class="cls-59" d="m357.38,229.84c.89,1.72,1.77,3.43,2.66,5.15-2.62-.76-3.62,1.07-4.39,2.93-2.65,6.44-6.87,12.03-9.94,18.21-2.98,5.98-8.29,10.86-8.78,18.04-.33-.68-.66-1.36-.98-2.04-1.2-4.34.27-7.91,2.6-11.62,3.95-6.3,7.21-13.03,11.06-19.39,2.36-3.9,3.5-8.69,7.78-11.29Z"/>
  <path class="cls-41" d="m291.05,409.9c3.73.07,7.45.13,11.18.2-6.09.93-12.22,1.19-18.37,1.03-3.99-.11-7.98-.23-11.97-.34-.37-2.98,1.83-4.88,3.05-7.16,6.91-12.88,15.64-24.76,21.05-38.46,1.34-.03,2.67-.06,4.01-.09-8.18,14.53-16.35,29.05-24.39,43.34,1.02,1.71,2.27,1.45,3.39,1.56,1,0,2,0,3.01,0,1.34,0,2.67-.01,4.01-.02,1.68-.02,3.36-.04,5.04-.06Z"/>
  <path class="cls-13" d="m151.93,403.14c-3.16-.12-6.22-.69-9.13-1.96.16-.12.32-.24.48-.35,2.45.35,4.04-.71,5.24-2.83,6.88-12.23,14.53-24.02,20.66-36.68.75-1.55,1.73-2.95-.18-4.31,0-.33,0-.67,0-1,3.1.95,6.21,1.9,9.31,2.85-.43.1-.85.19-1.28.28-2.38.3-3.81,1.9-4.9,3.8-6.77,11.72-13.49,23.47-20.27,35.18-.97,1.68-1.89,3.2.17,4.71l-.1.32Z"/>
  <path class="cls-87" d="m305.12,145.94c.67.89,1.35,1.78,2.02,2.67-5.17,9.39-10.18,18.86-15.59,28.11-1.94,3.31-2.86,7.53-6.86,9.4l-.75-.96c4.92-14.23,13.07-26.71,21.18-39.21Z"/>
  <path class="cls-42" d="m361.07,236.98c.57,1.02,1.15,2.04,1.72,3.06-3.29,2.96-4.96,7.03-6.92,10.8-5.18,9.94-12.31,18.81-16.05,29.53-.64-1.38-1.28-2.76-1.92-4.15,4.91-11.68,12.28-21.99,18.43-32.98,1.22-2.18.98-5.87,4.73-6.26Z"/>
  <path class="cls-65" d="m330.08,182.97c-7.07,9.56-12.24,20.25-18.03,30.57-1.14,2.03-1.93,4.19-4.02,5.47-.52-1.35-1.04-2.71-1.52-3.97,4.76-8.19,9.23-16.1,13.94-23.88,2.35-3.88,3.49-8.64,7.73-11.23l1.89,3.04Z"/>
  <path class="cls-31" d="m367.97,250.01c.67,1.34,1.34,2.67,2.01,4.01,0,0-.05.06-.05.06-1.14-.38-1.92.1-2.46,1.08-7.19,13.03-14.39,26.06-21.58,39.09-.31-.71-.62-1.43-.93-2.14-.3-.7-.61-1.39-.91-2.09-.11-.31-.22-.61-.34-.92,4.67-5.3,7.38-11.77,10.82-17.81,4.15-7.28,7.08-15.37,13.44-21.27Z"/>
  <path class="cls-91" d="m246.09,166.03c-.38-4.9,3.28-8.02,5.33-11.79,6.23-11.47,12.63-22.86,19.11-34.19,1.6-2.8,3.08-5.94,6.57-7.08.34.33.67.66,1.01.99-5.76,7.11-9.79,15.24-14.02,23.29-4.77,9.08-10.02,17.92-15.06,26.86-.98.64-1.96,1.29-2.94,1.93Z"/>
  <path class="cls-80" d="m301.31,140.87c.25.33.49.66.74.98-.4,1.75-.43,3.72-1.27,5.23-3.94,7.08-7.96,14.12-12.23,21-2.68,4.31-3.87,9.52-7.85,13.04-.25-.31-.51-.62-.76-.93-.67-6.11,3.81-10.06,6.41-14.71,4.67-8.38,8.73-17.17,14.97-24.61Z"/>
  <path class="cls-53" d="m319.22,165.91c1.29,2.02,2.59,4.04,3.88,6.06-1.82-.55-2.7.44-3.5,1.91-3.64,6.7-7.57,13.24-10.97,20.06-2.56,5.12-7.56,9.02-7.75,15.33-2.5-2.73-4.48-5.79-6.04-9.14l.23-.19c.64.35,1.29.7,1.93,1.05.52.78.71,1.95,2.31,1.72,7.28-10.11,12.7-21.49,18.91-32.4.81-1.43.43-2.9-.23-4.3v-.02c.41-.03.82-.05,1.23-.08Z"/>
  <path class="cls-73" d="m160.89,352.03c-4.33,3.43-6.1,8.58-8.6,13.16-6.18,11.36-14.1,21.73-19.29,33.65-1.77-.58-3.53-1.16-5.3-1.75,4.31-.5,5.11-4.43,6.81-7.28,7.93-13.26,15.7-26.62,23.52-39.94.95.72,1.9,1.43,2.85,2.15Z"/>
  <path class="cls-9" d="m265.85,166.05c.72-.02,1.43-.03,2.15-.05,2.61,2.69,3.42-.19,4.32-1.59,7.39-11.38,13.65-23.38,19.71-35.5,1.06,1.34,2.12,2.68,3.19,4.02-2.7.89-3.48,3.44-4.69,5.55-6.19,10.79-12.31,21.62-18.45,32.44-.28.01-.56.03-.84.04-1.8-1.63-3.59-3.27-5.39-4.9Z"/>
  <path class="cls-38" d="m169,356c0,.33,0,.67,0,1-1.48,1.96-3.19,3.79-4.4,5.9-7.17,12.6-14.23,25.27-21.32,37.92-.16.12-.32.23-.48.35-1.8.18-3.47-.23-5.04-1.1,3.17-.21,4.36-2.67,5.67-4.98,7.58-13.4,15.15-26.81,22.72-40.22.95.37,1.9.75,2.85,1.12Z"/>
  <path class="cls-81" d="m371,256c2.62,4.05,4.69,8.35,6.25,12.91-.41.03-.83.06-1.24.09-.37-.98-.74-1.97-1.11-2.95-.85-1.5-.94-3.6-3.47-4.21-2.2,3.64-4.61,7.19-6.59,10.98-5.13,9.83-11.92,18.76-15.86,29.23-.66-1.68-1.32-3.37-1.98-5.05,9.37-12.84,16.3-27.09,23.86-40.98l.14-.02Z"/>
  <path class="cls-14" d="m324.33,173.85c.23.36.46.73.69,1.09-.39,1.76-.38,3.75-1.23,5.26-5.42,9.68-10.97,19.3-16.63,28.84-.82,1.39-1.65,3.49-4.1,2.91.18-1.3-.03-2.85.6-3.86,7.13-11.27,12.74-23.45,20.66-34.24Z"/>
  <path class="cls-13" d="m271.24,170.96c.28-.02.56-.03.84-.04.97.7,1.95,1.39,2.92,2.09,1.98,2.49,2.95.81,3.96-.93,1.76-3.02,3.72-5.92,5.3-9.03,4.49-8.85,10.88-16.71,13.87-26.35,1.06,1.39,2.12,2.78,3.18,4.17-6.24,7.44-10.3,16.22-14.97,24.61-2.59,4.65-7.07,8.6-6.41,14.71-2.9-3.08-5.79-6.15-8.69-9.23Z"/>
  <path class="cls-78" d="m275,173c-.97-.7-1.95-1.39-2.92-2.09,6.14-10.82,12.26-21.65,18.45-32.44,1.21-2.11,2-4.66,4.69-5.55.27.34.54.68.81,1.01-.68,3.09-2.03,5.86-3.63,8.6-5.89,10.1-11.61,20.3-17.39,30.47Z"/>
  <path class="cls-15" d="m342.27,202.9c2.07,2.41,3.64,5.09,4.65,8.11-.64-.34-1.28-.67-1.92-1.01-.6-.91-.87-2.25-2.99-1.9-6.97,11.71-14.96,23.23-20.2,36.31-.98-1.79-1.96-3.58-2.94-5.37,9.3-10.83,14.96-23.9,22.14-36.04.42-.03.85-.07,1.27-.1Z"/>
  <path class="cls-25" d="m345,210c.64.34,1.28.67,1.92,1.01.96,1.67,1.92,3.33,2.88,5-.27,0-.55.02-.82.03-1.04-.64-1.01-2.53-2.83-2.42-6.1,10.27-12.17,20.54-18.32,30.77-1.67,2.78-1.97,5.57-.76,8.55-.04.4-.08.8-.12,1.2-1.43-2.66-2.85-5.33-4.28-7.99,2.36-1.48,3.62-3.86,4.83-6.19,5.32-10.28,11.08-20.31,17.5-29.95Z"/>
  <path class="cls-21" d="m275,173c5.78-10.16,11.5-20.36,17.39-30.47,1.6-2.74,2.95-5.51,3.63-8.6.7.92,1.41,1.84,2.11,2.76-2.99,9.64-9.38,17.49-13.87,26.35-1.58,3.11-3.54,6.01-5.3,9.03-1.01,1.74-1.98,3.42-3.96.93Z"/>
  <path class="cls-6" d="m177.03,359.13c.43-.1.85-.19,1.28-.28.56.12,1.13.24,1.69.36.33.6.67,1.2,1,1.8-7.72,13.07-15.44,26.13-23.16,39.19-.68,1.15-1.43,2.27-.76,3.68l-.18.25c-1.66-.33-3.32-.66-4.97-.99,0,0,.1-.32.1-.32,1.58-.74,2.49-2.09,3.32-3.55,5.31-9.32,10.75-18.57,15.94-27.95,2.17-3.92,6.38-6.93,5.74-12.19Z"/>
  <path class="cls-41" d="m367.97,250.01c-6.36,5.89-9.29,13.98-13.44,21.27-3.44,6.05-6.15,12.52-10.82,17.81-.59-1.35-1.19-2.7-1.78-4.05,0,0,.26-.29.26-.29,5.35-2.79,6.11-8.66,8.68-13.24,4.89-8.71,10.91-16.84,14.05-26.48l.33-.25c.9,1.74,1.81,3.49,2.71,5.23Z"/>
  <path class="cls-58" d="m339.83,280.37c3.74-10.71,10.86-19.59,16.05-29.53,1.96-3.77,3.63-7.84,6.92-10.8.46.91.92,1.82,1.39,2.73-.1.16-.19.33-.28.5-7.08,12.08-14.14,24.18-21.26,36.24-1.03,1.75-.88,3.45-.44,5.24l-.26.29c-.7-1.56-1.41-3.12-2.11-4.68Z"/>
  <path class="cls-61" d="m181,361c-.33-.6-.67-1.2-1-1.8,2.67.62,5.33,1.24,8,1.86,0,.31,0,.62,0,.93-5.81,9.38-11.69,18.72-17.39,28.16-2.77,4.6-5.98,9.06-6.68,14.64-.69.09-1.39.18-2.08.27-1.65-.31-3.3-.62-4.95-.93,0,0,.18-.25.18-.25,1.56.06,2.97-.12,3.87-1.66,7.34-12.47,14.72-24.92,22.02-37.41,1.21-2.08.57-3.52-1.97-3.81Z"/>
  <path class="cls-2" d="m324.33,173.85c-7.92,10.78-13.53,22.97-20.66,34.24-.64,1.01-.42,2.56-.6,3.86l-.26.21c-.64-.96-1.28-1.93-1.93-2.89.19-6.31,5.19-10.21,7.75-15.33,3.4-6.81,7.34-13.36,10.97-20.06.8-1.47,1.68-2.46,3.5-1.91.41.63.82,1.25,1.23,1.88Z"/>
  <path class="cls-60" d="m376.01,269c.41-.03.83-.06,1.24-.09,2.93,4.71,5.19,9.75,7.06,14.96-.43.04-.87.08-1.3.12-.67-1.33-1.33-2.66-2-4-.67-1.33-1.33-2.67-2-4-.37-.99-.15-2.41-2.26-2.58-4.11,6.93-8.4,13.97-12.51,21.12-4.01,6.98-8.81,13.6-10.36,21.76-.59-1.77-1.17-3.54-1.76-5.3,2.6-1.86,3.17-4.99,4.5-7.57,6.03-11.72,14.13-22.27,19.4-34.41Z"/>
  <path class="cls-83" d="m357.38,229.84c-4.27,2.59-5.42,7.39-7.78,11.29-3.85,6.36-7.11,13.09-11.06,19.39-2.33,3.71-3.79,7.28-2.6,11.62-.99-2.03-1.98-4.05-2.97-6.08,0-1.02.02-2.04.02-3.06,8.93-11.51,15.31-24.54,22.12-37.31.75,1.39,1.51,2.77,2.26,4.16Z"/>
  <path class="cls-75" d="m280.7,181.11c3.98-3.52,5.18-8.72,7.85-13.04,4.27-6.88,8.29-13.92,12.23-21,.84-1.51.87-3.47,1.27-5.23,1.47,1.03,2.49,2.39,3.06,4.1-8.1,12.51-16.26,24.99-21.18,39.21-1.08-1.35-2.16-2.7-3.25-4.05Z"/>
  <path class="cls-93" d="m319.22,165.91c-.41.03-.81.05-1.22.08-.9-1.13-1.55-2.71-3.91-1.86-5.9,10.03-11.94,20.34-18.03,30.63-.98,1.65-1.64,3.27-.99,5.19,0,0-.23.19-.23.19-1.43-2.01-2.86-4.01-4.3-6.02,1.61.34,3.04.06,3.92-1.43,6.41-10.83,12.8-21.67,19.2-32.53-1.07-1.68-1.87-2.92-2.67-4.15,0-.68,0-1.36,0-2.04,3.14,3.71,6.06,7.57,8.21,11.95Z"/>
  <path class="cls-47" d="m361.07,236.98c-3.75.4-3.51,4.08-4.73,6.26-6.15,10.99-13.52,21.3-18.43,32.98-.33-.68-.65-1.36-.98-2.05.49-7.18,5.8-12.06,8.78-18.04,3.08-6.18,7.29-11.77,9.94-18.21.77-1.87,1.77-3.69,4.39-2.93.35.66.69,1.32,1.04,1.99Z"/>
  <path class="cls-63" d="m333,263c0,1.02-.02,2.04-.02,3.06-2.53-3.71-4.47-7.72-6.02-11.93.04-.4.08-.8.12-1.2,7.3-12.3,14.61-24.6,21.91-36.9.27,0,.55-.02.82-.03,1.47,2.64,2.94,5.28,4.41,7.92-.74-.31-1.47-.62-2.21-.93-.41-1.17-.29-2.75-2.74-2.84-6.35,10.85-12.84,21.9-19.27,32.98-1.24,2.14-.66,4.14,1.01,5.86.67,1.33,1.33,2.67,2,4Z"/>
  <path class="cls-36" d="m303.07,211.95c2.45.58,3.27-1.52,4.1-2.91,5.66-9.54,11.21-19.16,16.63-28.84.84-1.51.84-3.49,1.23-5.26,1.06,1.66,2.11,3.32,3.17,4.99-4.24,2.59-5.39,7.34-7.73,11.23-4.7,7.78-9.18,15.7-13.94,23.88.48,1.26,1,2.61,1.52,3.97-.05.42-.11.84-.16,1.27-1.69-2.7-3.38-5.41-5.07-8.11,0,0,.26-.21.26-.21Z"/>
  <path class="cls-39" d="m292.03,128.9c-6.06,12.12-12.32,24.13-19.71,35.5-.91,1.4-1.72,4.29-4.32,1.59,8.68-12.4,15.56-25.8,22.14-39.39.63.76,1.26,1.53,1.9,2.29Z"/>
  <path class="cls-61" d="m284.69,186.12c3.99-1.87,4.92-6.08,6.86-9.4,5.41-9.25,10.42-18.72,15.59-28.11,1.06,1.43,2.12,2.85,3.18,4.28-1.66,1.34-3.9,2.34-4.89,4.07-5.81,10.04-11.34,20.24-16.9,30.43-.46.83-.44,1.93-.64,2.9-1.06-1.39-2.13-2.78-3.19-4.16Z"/>
  <path class="cls-10" d="m342.27,202.9c-.42.03-.85.07-1.27.1-.5-.81-.76-1.89-2.99-1.82-6.55,11.74-13.34,23.91-20.13,36.08-.63-1.09-1.26-2.17-1.89-3.26,5.1-8.53,10.34-16.99,15.25-25.63,2.24-3.94,5.73-7.37,5.77-12.37.38-.02.76-.04,1.13-.05,1.87,2.03,3.24,4.35,4.13,6.95Z"/>
  <path class="cls-94" d="m338.14,195.95c-.38.02-.76.04-1.13.05-2.48-2.85-3.21-.3-4.15,1.38-3.24,5.78-6.66,11.47-9.6,17.41-2.84,5.74-7.56,10.59-8.35,17.31-.99-1.69-1.99-3.39-2.98-5.08,1.79-.36,2.77-1.61,3.63-3.11,6.49-11.31,13.24-22.49,18.6-34.42,1.79,1.87,3.13,4.01,3.99,6.45Z"/>
  <path class="cls-10" d="m271.89,410.79c3.99.11,7.98.23,11.97.34-16.98.89-33.94,1.3-50.91-.06,0,0,.24-.27.24-.27,2.58.02,5.17.03,7.75.05,1.05,0,2.09,0,3.14.01h5.01c1,0,1.99,0,2.99,0,1.34,0,2.67,0,4,0,1,0,2,0,3.01,0,1.65,0,3.29,0,4.94,0,1,0,1.99,0,2.99,0,1.63-.03,3.25-.05,4.88-.08Z"/>
  <path class="cls-46" d="m206.06,409.07c.97.35,1.94.7,2.92,1.05-1-.08-1.99-.17-2.99-.25.02-.27.04-.53.07-.8Z"/>
  <path class="cls-58" d="m364.18,242.77c.36.67.72,1.34,1.08,2.01,0,0-.33.25-.33.25-.34-.59-.69-1.17-1.03-1.76.08-.17.18-.34.28-.5Z"/>
  <path class="cls-81" d="m369.98,254.02c.34.66.68,1.32,1.02,1.98,0,0-.14.02-.14.02-.31-.65-.62-1.3-.93-1.94,0,0,.05-.06.05-.06Z"/>
  <path class="cls-28" d="m311.93,227.02c.99,1.69,1.99,3.39,2.98,5.08l-.03-.08c.37.66.75,1.32,1.12,1.98h0c.63,1.09,1.26,2.17,1.89,3.26.33.59.65,1.19.98,1.78.98,1.79,1.96,3.58,2.94,5.37.29.58.58,1.15.86,1.73,1.43,2.66,2.85,5.33,4.28,7.99,1.55,4.21,3.5,8.22,6.02,11.93.99,2.03,1.98,4.05,2.97,6.08.33.68.66,1.36.98,2.04.33.68.65,1.36.98,2.05.64,1.38,1.28,2.76,1.92,4.15.7,1.56,1.41,3.12,2.11,4.68.59,1.35,1.19,2.7,1.78,4.05.11.31.22.61.34.92.3.7.61,1.39.91,2.09.31.71.62,1.43.93,2.14.37.92.74,1.84,1.1,2.76.66,1.68,1.32,3.37,1.98,5.05.64,1.74,1.28,3.48,1.93,5.21.4,1.24.8,2.48,1.2,3.72.59,1.77,1.17,3.54,1.76,5.3.37,1.27.73,2.53,1.1,3.8,1.33,8.9,4.73,17.68,1.51,26.84-4,5.17-9.98,7.16-15.59,9.75-1.63.49-3.26.97-4.89,1.46-1,.28-2,.57-3.01.85-5,1-10.01,2-15.01,3.01-5.67.71-11.33,1.41-17,2.12-4.05-.19-8.05.1-11.99,1.08-5.04-.18-10.07-.18-15.03.92-12.65-.02-25.31-.05-37.96-.07-.6-.05-1.21-.09-1.81-.14-5.3-1.06-10.67-1.03-16.04-.98-5.98-.67-11.96-1.34-17.94-2.02-4.07-.62-8.13-1.23-12.2-1.85-2.67-.62-5.33-1.24-8-1.86-.56-.12-1.13-.24-1.69-.36-3.1-.95-6.21-1.9-9.31-2.85-.95-.37-1.9-.75-2.85-1.12,0,0,.05.08.05.08-.39-.25-.78-.5-1.17-.75-.68-.34-1.36-.68-2.03-1.02-.7-.39-1.4-.77-2.1-1.16-.95-.72-1.9-1.43-2.85-2.15-4.25-4.15-4.34-9.49-4.26-14.88,1.14-5.65,2.29-11.29,3.43-16.94,2.23-6.36,4.45-12.71,6.68-19.07,13.56-31.66,29.18-62.23,48.24-90.95,6.05-9.11,12.63-17.87,18.97-26.79,5-5.07,10-10.15,15-15.22.98-.64,1.96-1.29,2.94-1.93,1.99-.75,3.98-1.5,5.97-2.25,1.26.08,2.53.16,3.79.25,1.37.65,2.73,1.3,4.1,1.95.98.67,1.97,1.34,2.95,2.01,1.8,1.63,3.59,3.27,5.39,4.9,2.9,3.08,5.79,6.15,8.69,9.23.25.31.51.62.76.93,1.08,1.35,2.16,2.7,3.25,4.05l.75.96c1.06,1.39,2.13,2.78,3.19,4.16.4.56.8,1.13,1.2,1.69.49.71.98,1.43,1.47,2.14,1.43,2.01,2.86,4.01,4.3,6.02,1.56,3.35,3.54,6.41,6.04,9.14.64.96,1.28,1.93,1.93,2.89,1.69,2.7,3.38,5.41,5.07,8.11.58.96,1.15,1.91,1.73,2.87.77,1.29,1.54,2.59,2.32,3.88Zm-102.98,54.73c-.37.41-.74.82-1.11,1.23l.14-.15c-.34.39-.69.77-1.03,1.16l.03-.04c-1.5.98-2.6,2.27-3.14,4l.08-.11c-1.13.75-1.83,1.77-2.04,3.12,0,0,.06-.09.06-.09-5.62,8.08-8.38,17.06-9.09,27.31,4.83,0,9.1,0,13.36,0,.49.1.97.28,1.46.28,36.17.03,72.35.05,108.52.05.64,0,1.28-.27,1.92-.42h-.01c1.94-1.78.81-3.61.08-5.43.12-.25.08-.47-.12-.66.11-1.5.11-2.98-.92-4.23-.58-3.9-1.83-7.56-3.97-10.89-.17-1.56-.84-2.86-2-3.92-.74-2.49-2.1-4.58-4.02-6.32-.71-.88-1.43-1.75-2.14-2.63l-.91-1.03c-.93-1.03-1.86-2.07-2.79-3.1-.65-.68-1.31-1.35-1.96-2.03-.75-.62-1.5-1.25-2.25-1.87-.91-.72-1.83-1.44-2.74-2.16-.83-.59-1.67-1.18-2.5-1.77-.56-.37-1.12-.73-1.68-1.1-.87-.72-1.74-1.44-2.48-2.05.2-1.23.34-2.02.47-2.81l-.07.08.76-1.14c.26-.16.36-.38.3-.68.27-.46.55-.91.82-1.37l.02-.06,1.07-1.91v.02c.35-.65.72-1.31,1.08-1.96,0,0-.06.08-.06.08.25-.37.51-.75.76-1.12.26-.16.36-.4.3-.7.28-.45.55-.9.83-1.35l.02-.05c.36-.64.72-1.28,1.08-1.92v.03c.36-.67.74-1.34,1.12-2.01l-.06.12,1.04-2.12-.04.1c.76-.74.72-1.41-.16-2.01l-.05-.07c-4.22-2-3.83,2.02-5.08,3.89l.08-.1c-.42.69-.83,1.39-1.25,2.08l.21-.24c-.27.44-.54.89-.81,1.33v.03c-.24.3-.46.61-.69.91-.13.31-.26.61-.38.92-.24.36-.48.73-.72,1.09-.26.2-.37.46-.32.78-.26.41-.51.82-.77,1.23-.25.13-.33.33-.27.6-.28.48-.56.95-.85,1.43v.03c-.38.65-.74,1.3-1.11,1.95l.03-.06c-.39.68-.78,1.36-1.16,2.04,0,0,.08-.15.08-.15-6.21-.08-11.56-4.11-17.83-3.86-11.05-2.46-21.74-.74-32.29,2.73-1.86.61-3.62,1.81-5.74,1.06l.19.19-1.15-2.02.03.05c-.37-.65-.73-1.3-1.1-1.94v-.02c-.29-.48-.58-.96-.86-1.44.07-.25-.02-.44-.24-.57l-.79-1.25c.03-.31-.07-.57-.32-.76-.24-.37-.48-.74-.73-1.11-.12-.3-.24-.6-.37-.9-.23-.31-.46-.62-.69-.94v-.03c-.27-.45-.53-.89-.8-1.34l.14.15c0-.35-.14-.62-.42-.81-.24-.39-.48-.78-.73-1.17-.36-.64-.72-1.28-1.08-1.92-.82-1.77-1.37-4.1-4.04-1.87l-.02.02c-.96.62-1.04,1.32-.19,2.1l-.03-.09c.1.31.2.61.3.92.25.38.51.76.76,1.14,0,0-.04-.07-.04-.07.12.31.25.62.37.92.25.36.5.72.74,1.08l-.02-.05c.36.65.73,1.3,1.09,1.95v.02c.29.46.58.92.86,1.38-.06.28.04.49.28.64.26.39.52.77.77,1.16l-.09-.13c.37.67.75,1.34,1.12,2.01,0,0-.01-.03-.01-.03.36.64.71,1.28,1.07,1.93v.04c.29.46.57.92.85,1.39-.05.28.04.49.27.64.25.41.51.82.76,1.23-.04.32.07.58.33.78.5,2.04-1.45,2.62-2.3,3.85-1.01.68-2.03,1.36-3.04,2.04-.39.28-.79.56-1.18.84-1.27,1-2.53,2-3.8,3l-1.27,1.19.25-.05-.05-.25c-.73.74-1.46,1.48-2.19,2.22,0,0,.26-.2.26-.2-.4.43-.8.86-1.2,1.29,0,0,.22-.24.22-.24-.39.42-.79.84-1.18,1.26l.2-.22Z"/>
  <path class="cls-84" d="m310.1,408.83c-1.35.03-2.69.05-4.04.08,9.31-16.3,18.63-32.6,27.94-48.91,0,0,0,0,0,0,.32-.29.64-.58.96-.87.35-.05.69-.09,1.04-.14,1.33-.33,2.67-.66,4-.98-10.75,16.48-19.93,33.89-29.9,50.83Z"/>
  <path class="cls-84" d="m381,280c.67,1.33,1.33,2.66,2,4-8.81,14.06-18.07,27.86-25,43-1.56-2.85-1.56-5.57.17-8.45,7.67-12.82,15.23-25.69,22.83-38.55Z"/>
  <path class="cls-54" d="m381,280c-7.6,12.86-15.17,25.73-22.83,38.55-1.73,2.88-1.73,5.6-.17,8.45.31,4.74.73,9.47.89,14.22.07,2.16-.58,4.24-2.41,5.71,3.22-9.16-.18-17.94-1.51-26.84,2.08-3.96,4.19-7.9,6.22-11.88,5.58-10.93,13.74-20.44,17.81-32.2.67,1.33,1.33,2.67,2,4Z"/>
  <path class="cls-49" d="m340,358c-1.33.33-2.67.66-4,.98,0-.28,0-.57,0-.85,1.63-.49,3.26-.97,4.89-1.46-.3.44-.59.89-.89,1.33Z"/>
  <path class="cls-27" d="m291.05,409.9c-1.68.02-3.36.04-5.04.06,2.09-3.96,4.07-7.99,6.29-11.88,6.51-11.38,13.11-22.71,19.67-34.06l.04-.04c.28-.23.56-.46.84-.69l4.14-.24c-3.94,9.35-10.03,17.48-14.89,26.3-3.75,6.81-7.38,13.69-11.06,20.54Z"/>
  <path class="cls-79" d="m303.02,408.96c-1.12-.09-2.36.16-3.62-1.87,8.83-14.51,17.79-29.48,25.6-45.08,1.66-.33,3.33-.67,4.99-1-8.13,16.47-17.64,32.16-26.98,47.96Z"/>
  <path class="cls-49" d="m303.02,408.96c9.33-15.79,18.85-31.48,26.98-47.96,0,0,.01-.01.01-.01l.94-.85c.68-.05,1.37-.11,2.05-.16.33,0,.67,0,1,.01-9.31,16.3-18.63,32.61-27.94,48.91-1.01.02-2.02.03-3.04.05Z"/>
  <path class="cls-57" d="m317,363.05c-1.38.08-2.76.16-4.14.23-.28.23-.56.46-.84.69,0,0-.04.04-.04.04-1.34.03-2.68.06-4.03.09-1.32.3-2.64.6-3.96.91-1-.03-2-.06-3-.08,0-.27,0-.54-.01-.81,5.67-.71,11.33-1.41,17-2.12,0,.32.01.65.02.97-.33.02-.66.05-.99.09Z"/>
  <path class="cls-27" d="m318,362.96c0-.32,0-.65-.02-.97,5-1,10.01-2,15.01-3.01,0,.33,0,.67,0,1-.68.05-1.37.11-2.05.16-.31.28-.63.56-.94.85,0,0-.01.01-.01.01-1.66.33-3.33.67-4.99,1-2.33.32-4.67.64-7,.95Z"/>
  <path class="cls-34" d="m163.94,404.79c.7-5.57,3.91-10.03,6.68-14.64,5.69-9.45,11.58-18.78,17.39-28.16.97.19,2.02.25,2.58,1.99-6.27,11.69-12.25,24-20.07,35.28-1.69,2.44-2.2,6.28-6.57,5.53Z"/>
  <path class="cls-86" d="m197.06,363.14c2.22,2.35.46,4.28-.66,6.28-6.81,12.19-13.63,24.39-20.44,36.58-1.12-.12-2.37.14-3.34-1.59,4.42-7.55,8.72-15.5,13.62-23.08,3.84-5.94,5.34-13.25,10.83-18.18Z"/>
  <path class="cls-46" d="m234.18,365.9c.6.05,1.21.09,1.81.14,0,.3,0,.6,0,.9-.34.03-.68.06-1.01.09-1.45.14-2.9.28-4.38.43-8.3,13.98-16.47,27.74-24.64,41.49-1.98-.05-3.97-.1-5.95-.15,7.97-14.23,15.95-28.47,23.92-42.71,3.41-.07,6.83-.13,10.24-.2Z"/>
  <path class="cls-65" d="m223.95,366.1c-7.98,14.24-15.95,28.47-23.92,42.71-1.67-.29-3.33-.57-5-.86,7.99-13.97,15.97-27.94,23.96-41.9,1.65.02,3.31.04,4.96.06Z"/>
  <path class="cls-2" d="m208.99,365.06c1.33.03,2.65.06,3.98.09-7.78,13.51-16.46,26.5-23.41,40.49-1.07,2.15-2.61,2.28-4.54,1.38,0,0-.02-.03-.02-.03.66-1.15,1.33-2.3,1.99-3.46,7.34-12.82,14.67-25.65,22.01-38.47Z"/>
  <path class="cls-36" d="m218.98,366.04c-7.99,13.97-15.97,27.94-23.96,41.9-2.5-1.19-.94-2.66-.29-4.08,5.51-12.09,13.54-22.73,19.71-34.45.94-1.79,2.21-3.35,4.54-3.38Z"/>
  <path class="cls-11" d="m234.99,367.03c.34-.03.68-.06,1.01-.09.92.19,1.84.38,3.18.65-7.9,13.85-15.56,27.34-23.34,40.77-.5.87-1.88,1.23-2.85,1.83-2.62-1.64-.56-3.2.21-4.58,7.22-12.88,14.51-25.72,21.78-38.57Z"/>
  <path class="cls-38" d="m165.03,354.2c.39.25.78.5,1.17.75-.39-.25-.78-.5-1.17-.75Z"/>
  <path class="cls-1" d="m290.55,194.12c-.49-.71-.98-1.43-1.47-2.14,4.18-3.12,5.61-8.08,8.14-12.3,4.69-7.84,9.21-15.78,13.79-23.67.8,1.24,1.59,2.48,2.67,4.15-6.4,10.86-12.79,21.7-19.2,32.53-.88,1.49-2.32,1.77-3.92,1.43Z"/>
  <path class="cls-18" d="m331,259c-1.66-1.73-2.25-3.72-1.01-5.86,6.43-11.08,12.93-22.13,19.27-32.98,2.45.09,2.33,1.67,2.74,2.84-6.04,12.56-13.71,24.17-21,36Z"/>
  <path class="cls-18" d="m244.07,410.85c-1.05,0-2.09,0-3.14,0-1.02-2,.23-3.49,1.13-5.07,7.31-12.88,14.62-25.76,21.92-38.64,1.65-.01,3.31-.02,4.96-.04-8.29,14.59-16.59,29.17-24.88,43.76Z"/>
  <path class="cls-43" d="m244.07,410.85c8.29-14.59,16.59-29.17,24.88-43.76,1.65-.04,3.3-.07,4.95-.11-8.27,14.62-16.55,29.25-24.82,43.87-1.67,0-3.34,0-5.01,0Z"/>
  <path class="cls-89" d="m256.93,367.13c1.33,0,2.67,0,4-.01-6.28,13.8-14.57,26.48-22.2,39.53-1.21,2.07-3.02,3.57-5.7,3.38,0,0-.06-.05-.06-.05.68-1.5,1.23-3.08,2.06-4.48,7.51-12.66,15.32-25.16,21.89-38.36Z"/>
  <path class="cls-71" d="m222.04,409.93c-.93-.14-1.85-.28-3.21-.49,3.81-10.01,10.05-18.23,14.78-27.24,2.06-3.93,4.75-7.53,6.96-11.39,1.46-2.56,3.33-4.04,6.38-3.68-8.3,14.27-16.6,28.54-24.9,42.81Z"/>
  <path class="cls-74" d="m249.93,367.14c1.33,0,2.66,0,3.99,0-1.88,3.49-3.84,6.94-5.62,10.48-5.58,11.08-13.64,20.75-18.3,32.34-1.33,0-2.66,0-4-.01,6.74-14.95,16.35-28.3,23.92-42.79Z"/>
  <path class="cls-62" d="m249.93,367.14c-7.57,14.49-17.18,27.84-23.92,42.79-1.32,0-2.65,0-3.97,0,8.3-14.27,16.6-28.54,24.9-42.81,1,0,2,0,3,.01Z"/>
  <path class="cls-83" d="m249.08,410.86c8.27-14.62,16.55-29.25,24.82-43.87.04-.29.05-.59.05-.88,4.96-1.09,9.99-1.09,15.03-.92-.02.25-.03.5-.05.76-1.33.06-2.67.12-4.01.18-1.01,0-2.02.02-3.02.03-3.44.27-5.67,2.16-7.42,5.06-7.86,13-15.71,26-22.42,39.64h-2.99Z"/>
  <path class="cls-29" d="m230.01,409.94c4.66-11.59,12.72-21.26,18.3-32.34,1.78-3.54,3.74-6.99,5.62-10.48,1,0,2,0,3.01,0-6.57,13.2-14.39,25.69-21.9,38.36-.83,1.41-1.38,2.99-2.06,4.48-.99-.01-1.98-.02-2.97-.03Z"/>
  <path class="cls-63" d="m233.03,410.03c2.68.19,4.49-1.3,5.7-3.38,7.63-13.04,15.92-25.72,22.2-39.53,1.02,0,2.04,0,3.06,0-7.31,12.88-14.61,25.77-21.92,38.64-.9,1.58-2.15,3.07-1.13,5.07-2.59-.02-5.17-.03-7.76-.05-.07-.25-.12-.51-.15-.77Z"/>
  <path class="cls-55" d="m208.99,365.06c-7.34,12.82-14.67,25.65-22.01,38.47-.66,1.15-1.32,2.31-1.99,3.46-.99-.03-1.98-.06-2.98-.09.78-1.64,1.47-3.33,2.35-4.92,6.86-12.34,13.75-24.65,20.64-36.98,1.33.02,2.66.04,3.99.06Z"/>
  <path class="cls-82" d="m205,365c-6.88,12.32-13.78,24.64-20.64,36.98-.88,1.58-1.57,3.28-2.35,4.92-3.17-.19-2.52-2.05-1.52-3.78,6.97-12.13,13.98-24.23,21.02-36.31.73-1.25,1.51-2.79,3.49-1.8Z"/>
  <path class="cls-68" d="m307.95,364.11c1.34-.03,2.69-.06,4.03-.09-6.57,11.35-13.17,22.68-19.67,34.06-2.22,3.89-4.2,7.91-6.29,11.88-1.34,0-2.67.01-4.01.02,1.15-2.39,2.14-4.86,3.46-7.15,7.45-12.93,14.98-25.82,22.48-38.73Z"/>
  <path class="cls-57" d="m271.89,410.79c-1.63.03-3.25.05-4.88.08.99-1.91,1.87-3.9,3-5.73,7.84-12.74,15.82-25.41,21.98-39.1,1.34-.29,2.67-.58,4.01-.86-5.42,13.7-14.14,25.58-21.05,38.46-1.23,2.28-3.43,4.18-3.05,7.16Z"/>
  <path class="cls-24" d="m301,364.93c1,.03,2,.06,3,.08-1.41,2.62-2.81,5.24-4.23,7.85-6.79,12.44-14.76,24.24-20.76,37.12-1.12-.11-2.37.16-3.39-1.56,8.04-14.29,16.22-28.81,24.39-43.34.33-.05.66-.1.99-.15Z"/>
  <path class="cls-44" d="m279,409.98c6.01-12.89,13.97-24.68,20.76-37.12,1.42-2.61,2.82-5.23,4.23-7.85,1.32-.3,2.64-.6,3.96-.91-7.5,12.9-15.03,25.79-22.48,38.73-1.32,2.29-2.32,4.76-3.46,7.15-1,0-2,0-3.01,0Z"/>
  <path class="cls-72" d="m301,364.93c-.33.05-.66.1-.99.15-1.34.03-2.67.06-4.01.09-1.34.29-2.67.58-4.01.87-.99,0-1.97.02-2.96.02l-.09-.11c.02-.25.03-.5.05-.76,3.94-.98,7.94-1.27,11.99-1.08,0,.27.01.54.01.81Z"/>
  <path class="cls-51" d="m177.03,359.13c.64,5.25-3.57,8.27-5.74,12.19-5.19,9.38-10.62,18.63-15.94,27.95-.83,1.46-1.75,2.8-3.32,3.55-2.06-1.5-1.14-3.03-.17-4.71,6.78-11.71,13.49-23.46,20.27-35.18,1.1-1.89,2.52-3.5,4.9-3.8Z"/>
  <path class="cls-50" d="m143.28,400.83c7.09-12.65,14.15-25.32,21.32-37.92,1.2-2.12,2.92-3.94,4.4-5.9,1.91,1.37.93,2.77.18,4.31-6.13,12.66-13.78,24.45-20.66,36.68-1.2,2.12-2.79,3.19-5.24,2.83Z"/>
  <path class="cls-44" d="m347,297c-.37-.92-.74-1.84-1.1-2.76,7.19-13.03,14.38-26.06,21.58-39.09.54-.98,1.32-1.46,2.46-1.08.31.65.62,1.3.93,1.94-7.56,13.89-14.49,28.15-23.86,40.98Z"/>
  <path class="cls-41" d="m344.96,292.1c-.3-.7-.61-1.39-.91-2.09.3.7.61,1.39.91,2.09Z"/>
  <path class="cls-32" d="m295.07,199.95c-.65-1.92.02-3.54.99-5.19,6.09-10.28,12.13-20.59,18.03-30.63,2.36-.85,3,.73,3.91,1.86,0,0,0,.02,0,.02-7.48,11.37-14.64,22.94-20.99,34.99-.64-.35-1.29-.7-1.93-1.05Z"/>
  <path class="cls-82" d="m297,201c6.35-12.05,13.51-23.62,20.99-34.99.65,1.41,1.04,2.88.23,4.3-6.21,10.91-11.64,22.29-18.91,32.4-1.6.23-1.79-.94-2.31-1.72Z"/>
  <path class="cls-8" d="m352.11,310.99c-.4-1.24-.8-2.48-1.2-3.72,2.53-9.06,8.26-16.47,12.91-24.38,3.39-5.76,5.24-12.65,11.08-16.83.37.98.74,1.97,1.11,2.95-5.27,12.14-13.37,22.69-19.4,34.41-1.33,2.58-1.89,5.72-4.5,7.57Z"/>
  <path class="cls-27" d="m374.9,266.05c-5.84,4.17-7.69,11.07-11.08,16.83-4.66,7.91-10.38,15.33-12.91,24.38-.64-1.74-1.28-3.48-1.93-5.21,3.94-10.47,10.73-19.4,15.86-29.23,1.98-3.79,4.39-7.34,6.59-10.98,2.53.61,2.61,2.71,3.47,4.21Z"/>
  <path class="cls-71" d="m318.87,239.04c-.33-.59-.65-1.19-.98-1.78,6.79-12.17,13.58-24.34,20.13-36.08,2.23-.07,2.49,1.01,2.99,1.82-7.18,12.14-12.83,25.21-22.14,36.04Z"/>
  <path class="cls-3" d="m322.67,246.14l-.86-1.73c5.25-13.08,13.23-24.6,20.2-36.31,2.12-.35,2.39.98,2.99,1.9-6.42,9.64-12.17,19.66-17.5,29.95-1.21,2.34-2.48,4.71-4.83,6.19Z"/>
  <path class="cls-89" d="m348.97,216.03c-7.3,12.3-14.61,24.6-21.91,36.9-1.21-2.98-.91-5.77.76-8.55,6.15-10.23,12.22-20.5,18.32-30.77,1.82-.11,1.79,1.78,2.83,2.42Z"/>
  <path class="cls-23" d="m181,361c2.55.29,3.19,1.73,1.97,3.81-7.3,12.49-14.68,24.94-22.02,37.41-.91,1.54-2.32,1.73-3.87,1.66-.67-1.42.08-2.54.76-3.69,7.72-13.06,15.44-26.13,23.16-39.19Z"/>
  <path class="cls-64" d="m363.9,243.27c.34.59.69,1.17,1.03,1.76-3.14,9.64-9.16,17.77-14.05,26.48-2.57,4.58-3.33,10.46-8.68,13.24-.44-1.8-.59-3.5.44-5.24,7.12-12.06,14.18-24.15,21.26-36.24Z"/>
  <path class="cls-79" d="m379,276c-4.08,11.76-12.23,21.27-17.81,32.2-2.03,3.98-4.14,7.92-6.22,11.88-.37-1.27-.73-2.53-1.1-3.8,1.55-8.16,6.35-14.78,10.36-21.76,4.11-7.15,8.39-14.19,12.51-21.12,2.12.18,1.9,1.59,2.26,2.58Z"/>
  <path class="cls-11" d="m314.91,232.1c.8-6.72,5.51-11.57,8.35-17.31,2.93-5.93,6.36-11.62,9.6-17.41.94-1.68,1.67-4.23,4.15-1.38-.03,4.99-3.53,8.42-5.77,12.37-4.9,8.65-10.14,17.1-15.25,25.63h0c-.37-.66-.75-1.32-1.12-1.98l.03.08Z"/>
  <path class="cls-72" d="m252.07,410.86c6.72-13.64,14.57-26.64,22.42-39.64,1.75-2.9,3.98-4.79,7.42-5.06-8.61,14.9-17.23,29.8-25.84,44.71-1.34,0-2.67,0-4.01,0Z"/>
  <path class="cls-26" d="m284.94,366.13c1.34-.06,2.67-.12,4.01-.18,0,0,.09.11.09.11-2.19,4.1-4.46,8.16-6.57,12.3-5.65,11.12-13.67,20.89-18.44,32.5-1.65,0-3.29,0-4.94.01,8.62-14.91,17.24-29.83,25.86-44.74Z"/>
  <path class="cls-58" d="m264.02,410.86c4.77-11.62,12.79-21.39,18.44-32.5,2.11-4.14,4.38-8.2,6.57-12.3.99,0,1.97-.02,2.96-.02-6.16,13.69-14.14,26.35-21.98,39.1-1.13,1.83-2.01,3.82-3,5.73-1,0-1.99,0-2.99,0Z"/>
  <path class="cls-47" d="m284.94,366.13c-8.62,14.91-17.24,29.83-25.86,44.74-1,0-2,0-3,0,8.62-14.9,17.23-29.81,25.84-44.71,1.01,0,2.01-.02,3.02-.03Z"/>
  <path class="cls-19" d="m290.14,270.94c.56.37,1.12.73,1.68,1.1-.82.53-1.98.86-2.41,1.61-8.3,14.73-18,28.66-25.4,43.91-2.33,0-4.66,0-6.99.01-.01-.19-.02-.38-.03-.58,9.67-16.67,19.35-33.33,29.02-50,.49,2.24,1.81,3.62,4.13,3.94Z"/>
  <path class="cls-33" d="m286.01,267c-9.67,16.67-19.35,33.33-29.02,50-1.33,0-2.66,0-3.98-.01.87-1.97,1.58-4.03,2.64-5.88,8.4-14.7,16.88-29.35,25.33-44.02,1.17.04,2.54.53,2.91-1.27,0,0-.08.15-.08.15.39-.68.78-1.36,1.16-2.04,0,0-.03.06-.03.06.37-.65.73-1.3,1.1-1.95v-.03c.29-.48.57-.95.86-1.43-.07-.27.02-.47.27-.6.26-.41.51-.82.77-1.23-.04-.32.06-.58.32-.78.24-.36.48-.73.72-1.09.13-.31.26-.61.38-.92.22-.3.45-.61.67-.91v-.03c.29-.44.56-.89.83-1.33,0,0-.21.24-.21.24.42-.7.83-1.39,1.25-2.08,0,0-.08.1-.08.1,2.01-.88,2.65-3.55,5.08-3.89l.05.07c.05.67.11,1.34.16,2.01,0,0,.04-.1.04-.1-.35.71-.7,1.42-1.04,2.12,0,0,.06-.12.06-.12-.38.67-.76,1.34-1.14,2.01,0,0,.01-.03.01-.03-.36.64-.72,1.28-1.08,1.92l-.02.05c-.28.45-.55.9-.83,1.35.06.3-.04.53-.3.7-.25.37-.51.75-.76,1.12,0,0,.06-.08.06-.08-.37-.02-.74-.05-1.11-.07-2.35,1.75-3.27,4.32-4,7l-.99,1Z"/>
  <path class="cls-51" d="m222.67,255.97c.12.3.24.6.37.9.24.37.48.74.73,1.11.25.19.36.44.32.76l.79,1.25c.23.13.31.32.24.57.28.48.57.96.85,1.44v.02c.37.65.74,1.3,1.11,1.94,0,0-.03-.05-.03-.05.38.67.77,1.35,1.15,2.02,0,0-.19-.19-.19-.19,1.07,1.25,2.52,1.27,3.98,1.27-9.67,16.66-19.33,33.32-29,49.98-1.33,0-2.66,0-4,0,2.57-6.37,6.89-11.74,10.11-17.72,5.26-9.76,12.17-18.62,15.89-29.21.05-.35.1-.7.16-1.05.01-.32.02-.64.03-.96-.32-.34-.63-.68-.95-1.02-.26-.2-.37-.46-.33-.78-.25-.41-.51-.82-.76-1.23-.24-.15-.33-.36-.27-.64-.28-.46-.56-.92-.84-1.39,0,0,0-.04,0-.04-.36-.64-.71-1.28-1.07-1.93,0,0,.01.03.01.03-.37-.67-.75-1.34-1.12-2.01,0,0,.09.13.09.13-.26-.39-.52-.77-.77-1.16-.24-.15-.34-.36-.28-.64-.28-.46-.57-.92-.85-1.38,0,0,0-.02,0-.02-.36-.65-.73-1.3-1.09-1.95,0,0,.02.05.02.05,0-.37,0-.73,0-1.1-.37-.3-.74-.6-1.11-.91,0,0,.04.07.04.07.04-.38.08-.76.12-1.15-.4-.3-.79-.61-1.19-.91,0,0,.03.09.03.09.06-.7.12-1.4.18-2.1,0,0,.02-.02.02-.02.98.65,1.97,1.31,2.95,1.96.3.34.6.69.91,1.03.04.32.08.64.11.96.32.34.63.67.95,1.01h.02c.44.27.89.54,1.33.81,0,0-.14-.15-.14-.15.27.45.53.89.8,1.34,0,0,0,.03,0,.03.23.31.46.62.69.94Z"/>
  <path class="cls-85" d="m213.92,276.75c1.27-1,2.53-2,3.8-3,.13.11.27.2.41.29.88,2.1.01,3.91-1.02,5.65-7.36,12.44-14.73,24.87-22.1,37.3-1.36-1.88-.38-3.76-.09-5.68,1.1-7.25,5.15-13.46,7.01-20.44,0,0-.06.09-.06.09,1.24-.68,1.91-1.72,2.04-3.12,0,0-.08.11-.08.11,1.7-.82,2.83-2.09,3.14-4,0,0-.03.04-.03.04.34-.39.69-.77,1.03-1.16,0,0-.14.15-.14.15.37-.41.74-.82,1.11-1.23,0,0-.2.22-.19.21.39-.42.79-.84,1.18-1.25,0,0-.22.24-.22.24.4-.43.8-.86,1.2-1.29,0,0-.26.2-.26.2.73-.74,1.46-1.48,2.19-2.22l.05.25s-.25.05-.25.04c.42-.4.85-.79,1.27-1.19Z"/>
  <path class="cls-11" d="m264.01,317.56c7.41-15.25,17.1-29.17,25.4-43.9.42-.75,1.59-1.08,2.41-1.61.83.59,1.67,1.18,2.5,1.77-3.57,5.77-7.49,11.35-10.64,17.34-4.69,8.92-11,16.93-14.67,26.41-1.67,0-3.33,0-5,0Z"/>
  <path class="cls-77" d="m297.06,275.98c.75.62,1.5,1.25,2.25,1.87-2.46,1.63-3.68,4.21-5.06,6.66-6.09,10.82-12.17,21.65-18.26,32.48-1.24-.17-2.67.47-3.85-1.1,5.75-9.91,11.46-19.94,17.38-29.87,2.14-3.59,3.05-8.18,7.53-10.04Z"/>
  <path class="cls-89" d="m304.98,284.01c.71.88,1.43,1.75,2.14,2.63-.2.97-.15,2.08-.62,2.9-4.88,8.45-9.82,16.87-14.79,25.27-1.04,1.76-2.78,2.24-4.71,2.18,5.32-11.36,11.35-22.33,17.98-32.98Z"/>
  <path class="cls-3" d="m301.28,279.88c.93,1.03,1.86,2.07,2.79,3.1-.84.48-2.06.75-2.47,1.48-5.86,10.3-11.63,20.65-17.35,31.03-.16.28.49,1,.76,1.52,0,.18,0,.36,0,.53-2,0-4,0-6,.01,0-.18,0-.36,0-.54,2.04-2.21,3.29-4.88,4.69-7.52,5.37-10.16,10.56-20.44,17.59-29.62Z"/>
  <path class="cls-18" d="m311.15,292.96c1.16,1.05,1.83,2.36,2,3.92l-.23.19c-1.38-.69-2.6-.5-3.42.84-3.66,5.96-7.84,11.63-10.49,18.04,1.34,1.36,2.72.94,3.99,1.06,0,.18,0,.36,0,.55-3.31,0-6.63,0-9.94,0,4.36-7.58,8.71-15.17,13.07-22.75,1.15-2,2.43-3.71,5.01-1.84Z"/>
  <path class="cls-62" d="m301.28,279.88c-7.03,9.18-12.22,19.46-17.59,29.62-1.39,2.63-2.65,5.31-4.69,7.52-1,0-2-.02-3-.03,6.08-10.83,12.17-21.66,18.26-32.48,1.38-2.45,2.6-5.03,5.06-6.66.65.68,1.31,1.35,1.96,2.03Z"/>
  <path class="cls-90" d="m276,316.99c1,0,2,.02,3,.03,0,.18,0,.36,0,.54-3.34,0-6.67,0-10.01,0,3.67-9.47,9.98-17.48,14.67-26.4,3.15-5.99,7.07-11.57,10.64-17.34.91.72,1.83,1.44,2.74,2.16-4.48,1.86-5.39,6.45-7.53,10.04-5.91,9.92-11.63,19.96-17.38,29.87,1.18,1.57,2.61.93,3.85,1.1Z"/>
  <path class="cls-16" d="m303,317.55c0-.18,0-.36,0-.55,6.13-3.22,11.16-13.33,9.92-19.95l.23-.19c2.14,3.33,3.39,6.99,3.97,10.89-.24,1.53,0,2.96.92,4.23.2.19.24.41.12.66-.03,1.81-.05,3.63-.08,5.44,0,0,.01,0,.01,0-5.03-.18-10.06-.36-15.09-.54Z"/>
  <path class="cls-52" d="m303,317.55c5.03.18,10.06.36,15.09.54-.64.15-1.28.42-1.92.42-36.17,0-72.35-.02-108.52-.05-.49,0-.97-.18-1.46-.28,1.3-.18,2.61-.35,3.92-.53,1.87,0,3.75,0,5.63,0,1.37,0,2.73-.02,4.1-.02,1.08,0,2.16,0,3.24,0,.72.01,1.43.03,2.15.04,3.93-.02,7.85-.04,11.78-.06,2.33,0,4.67,0,7-.01,4.34,0,8.68-.01,13.02-.02,2.33,0,4.66,0,6.99-.01,1.67,0,3.33,0,5,0,3.34,0,6.67,0,10.01,0,2,0,4,0,6-.01,2.68,0,5.37,0,8.05,0h9.94Z"/>
  <path class="cls-29" d="m285,317.01c-.27-.52-.91-1.24-.76-1.52,5.72-10.38,11.49-20.73,17.35-31.03.41-.73,1.63-1,2.47-1.48l.91,1.03c-6.63,10.65-12.65,21.62-17.98,32.98-.67,0-1.33.02-2,.02Z"/>
  <path class="cls-63" d="m285,317.01c.67,0,1.33-.02,2-.02,1.94.06,3.67-.42,4.71-2.18,4.96-8.4,9.91-16.82,14.79-25.27.47-.81.43-1.92.62-2.9,1.92,1.74,3.28,3.83,4.02,6.32-2.58-1.87-3.86-.16-5.01,1.84-4.36,7.58-8.72,15.17-13.07,22.75-2.68,0-5.37,0-8.05,0,0-.18,0-.36,0-.53Z"/>
  <path class="cls-66" d="m210.11,317.66c-1.31.18-2.62.35-3.92.53-4.26,0-8.53,0-13.36,0,.71-10.25,3.47-19.23,9.09-27.31-1.86,6.97-5.92,13.19-7.01,20.44-.29,1.92-1.26,3.81.09,5.68,1.33,0,2.66,0,3.99,0,1.33,0,2.66,0,4,0,1,0,2,0,3,0,1.33,0,2.66.01,3.99.02.03.22.07.44.12.65Z"/>
  <path class="cls-56" d="m232,267.01c-1.46,0-2.92-.01-3.98-1.27,2.11.75,3.88-.46,5.74-1.06,10.55-3.47,21.24-5.19,32.29-2.73-.38.12-.77.24-1.15.36-1.3-.09-2.6-.17-3.91-.25-1.34,0-2.67-.01-4.01-.02-1,0-1.99,0-2.99.01-1.34,0-2.68.01-4.02.02-1.99.34-3.98.68-5.98,1.01-1,.32-2,.63-3,.95-.7.06-1.4.12-2.1.18-.29.26-.59.52-.88.78-.69.05-1.39.1-2.08.15-.31.28-.62.57-.93.85h0c-1,.34-2,.67-3,1.01Z"/>
  <path class="cls-48" d="m264.89,262.31c.38-.12.77-.24,1.15-.37,6.28-.24,11.63,3.79,17.83,3.86-.37,1.8-1.73,1.31-2.91,1.27-1.32-.36-2.65-.72-3.97-1.07-.68-.32-1.35-.63-2.03-.95-1.33-.34-2.66-.68-3.98-1.02-1-.32-2-.64-3-.96-.99-.03-1.99-.06-2.98-.08-.03-.23-.06-.46-.12-.68Z"/>
  <path class="cls-19" d="m287,266c.73-2.68,1.65-5.25,4-7,0,.68.01,1.35.02,2.03v-.02c-.35.64-.7,1.28-1.06,1.91l-.02.06c-.27.46-.55.91-.82,1.37.06.29-.04.52-.3.68l-.76,1.14.07-.08c-.38-.03-.75-.06-1.13-.09Z"/>
  <path class="cls-48" d="m296.89,248.05c-2.43.33-3.07,3.01-5.08,3.89,1.25-1.87.86-5.89,5.08-3.89Z"/>
  <path class="cls-48" d="m287,266c.38.03.75.06,1.13.09-.13.79-.26,1.58-.47,2.81.74.61,1.61,1.33,2.48,2.05-2.33-.32-3.64-1.7-4.13-3.94.33-.33.66-.67.99-1Z"/>
  <path class="cls-66" d="m206.97,283.95c-.31,1.91-1.44,3.18-3.14,4,.54-1.73,1.64-3.02,3.14-4Z"/>
  <path class="cls-7" d="m218.01,250c-.98-.65-1.97-1.31-2.95-1.96,2.67-2.23,3.22.11,4.04,1.87,0,0-.28.26-.28.26-.27-.07-.54-.13-.81-.17Z"/>
  <path class="cls-56" d="m225.16,269c-.05.35-.1.7-.16,1.05-1.01.38-2.01.77-3.02,1.16l-.04-.34c.85-1.23,2.8-1.81,2.3-3.85.32.34.63.68.95,1.02-.02.32-.03.64-.03.96Z"/>
  <path class="cls-52" d="m318.08,318.1c.03-1.81.05-3.63.08-5.44.73,1.82,1.86,3.65-.08,5.44Z"/>
  <path class="cls-66" d="m203.9,287.84c-.13,1.4-.8,2.45-2.04,3.12.21-1.35.91-2.38,2.04-3.12Z"/>
  <path class="cls-8" d="m333,359.99c0-.33,0-.67,0-1,1-.28,2-.57,3.01-.85,0,.28,0,.57,0,.85-.35.05-.69.09-1.04.14-.32.29-.64.58-.96.87,0,0,0,0,0,0-.33,0-.67,0-1-.01Z"/>
  <path class="cls-52" d="m318.04,312c-.93-1.28-1.16-2.7-.92-4.23,1.04,1.25,1.04,2.73.92,4.23Z"/>
  <path class="cls-85" d="m218.9,272.9c1.01-.68,2.03-1.36,3.04-2.04,0,0,.04.34.04.34-.98.62-1.97,1.23-2.95,1.85,0,0-.13-.15-.13-.15Z"/>
  <path class="cls-66" d="m212.84,277.64c-.73.74-1.46,1.48-2.19,2.22.73-.74,1.46-1.48,2.19-2.22Z"/>
  <path class="cls-7" d="m215.04,248.06c-.06.7-.12,1.4-.18,2.1-.85-.78-.77-1.48.18-2.1Z"/>
  <path class="cls-48" d="m291.89,251.84c-.42.69-.83,1.39-1.25,2.08.42-.69.83-1.39,1.25-2.08Z"/>
  <path class="cls-56" d="m228.2,265.94c-.38-.67-.77-1.35-1.15-2.02.38.67.77,1.35,1.15,2.02Z"/>
  <path class="cls-48" d="m284.95,263.92c-.39.68-.77,1.36-1.16,2.04.39-.68.78-1.36,1.16-2.04Z"/>
  <path class="cls-48" d="m296.1,252.15c.35-.71.7-1.42,1.04-2.12-.35.71-.7,1.42-1.04,2.12Z"/>
  <path class="cls-48" d="m286.02,262.03c-.37.65-.73,1.3-1.1,1.95.37-.65.73-1.3,1.1-1.95Z"/>
  <path class="cls-7" d="m219.02,252c-.03-.32-.07-.64-.11-.96-.02-.29-.05-.58-.1-.87,0,0,.28-.26.28-.26.36.64.72,1.28,1.08,1.92,0,0-.31.3-.31.3-.28-.06-.56-.1-.84-.14Z"/>
  <path class="cls-56" d="m227.08,263.97c-.37-.65-.73-1.3-1.1-1.94.37.65.73,1.3,1.1,1.94Z"/>
  <path class="cls-48" d="m289.96,262.92l1.07-1.91-1.07,1.91Z"/>
  <path class="cls-48" d="m293.96,255.93c.36-.64.72-1.28,1.08-1.92-.36.64-.72,1.28-1.08,1.92Z"/>
  <path class="cls-7" d="m216.93,254.02c.36.65.73,1.3,1.09,1.95-.36-.65-.73-1.3-1.09-1.95Z"/>
  <path class="cls-88" d="m220.96,261.01c.36.64.71,1.28,1.07,1.93-.36-.64-.71-1.28-1.07-1.93Z"/>
  <path class="cls-48" d="m291.02,261.03c0-.68-.01-1.35-.02-2.03.37.02.74.05,1.11.07-.36.65-.73,1.31-1.09,1.96Z"/>
  <path class="cls-10" d="m314.88,232.02c.37.66.75,1.32,1.12,1.98-.37-.66-.75-1.32-1.12-1.98Z"/>
  <path class="cls-48" d="m297.11,250.13c-.05-.67-.11-1.34-.16-2.01.88.6.93,1.28.16,2.01Z"/>
  <path class="cls-88" d="m219.86,259.03c.37.67.75,1.34,1.12,2.01-.37-.67-.75-1.34-1.12-2.01Z"/>
  <path class="cls-48" d="m295.03,254.05c.38-.67.76-1.34,1.14-2.01-.38.67-.76,1.34-1.14,2.01Z"/>
  <path class="cls-88" d="m214.82,250.07c.4.3.79.61,1.19.91-.3,0-.59,0-.89,0-.1-.31-.2-.61-.3-.92Z"/>
  <path class="cls-66" d="m207.97,282.83c-.34.39-.69.77-1.03,1.16.34-.39.69-.77,1.03-1.16Z"/>
  <path class="cls-48" d="m288.96,256.87c-.24.36-.48.73-.72,1.09.24-.36.48-.73.72-1.09Z"/>
  <path class="cls-48" d="m289.12,264.35c.27-.46.55-.91.82-1.37-.27.46-.55.91-.82,1.37Z"/>
  <path class="cls-88" d="m223.76,257.98c-.24-.37-.48-.74-.73-1.11.24.37.48.74.73,1.11Z"/>
  <path class="cls-56" d="m223.16,265.01c.25.41.51.82.76,1.23-.25-.41-.51-.82-.76-1.23Z"/>
  <path class="cls-48" d="m293.11,257.33c.28-.45.55-.9.83-1.35-.28.45-.55.9-.83,1.35Z"/>
  <path class="cls-56" d="m222.04,262.98c.28.46.56.92.84,1.39-.28-.46-.56-.92-.84-1.39Z"/>
  <path class="cls-48" d="m288.06,266.16l.76-1.14-.76,1.14Z"/>
  <path class="cls-88" d="m219.17,258.01c.26.39.52.77.77,1.16-.26-.39-.52-.77-.77-1.16Z"/>
  <path class="cls-7" d="m218.03,255.98c.28.46.57.92.85,1.38-.28-.46-.57-.92-.85-1.38Z"/>
  <path class="cls-48" d="m290.02,255.04c-.22.3-.45.61-.67.91.22-.3.45-.61.67-.91Z"/>
  <path class="cls-88" d="m222.67,255.97c-.23-.31-.46-.62-.69-.94.23.31.46.62.69.94Z"/>
  <path class="cls-48" d="m290.84,253.68c-.27.44-.54.89-.81,1.33.27-.44.54-.89.81-1.33Z"/>
  <path class="cls-7" d="m221.98,255.01c-.27-.45-.53-.89-.8-1.34.27.45.53.89.8,1.34Z"/>
  <path class="cls-88" d="m221.32,253.82c-.44-.27-.89-.54-1.33-.81.3,0,.6,0,.91,0,.28.2.42.47.42.81Z"/>
  <path class="cls-48" d="m286.87,260.58c-.28.48-.56.95-.85,1.43.28-.48.56-.95.85-1.43Z"/>
  <path class="cls-7" d="m216.95,252.97c0,.37,0,.73,0,1.1-.25-.36-.5-.72-.74-1.08.25-.01.49-.02.74-.02Z"/>
  <path class="cls-7" d="m220.9,253c-.3,0-.6,0-.91,0,0,0-.02,0-.02,0-.03-.29-.06-.58-.11-.87,0,0,.31-.3.31-.3.24.39.48.78.73,1.17Z"/>
  <path class="cls-56" d="m225.98,262.01c-.28-.48-.57-.96-.85-1.44.28.48.57.96.85,1.44Z"/>
  <path class="cls-85" d="m217.72,273.75c.39-.28.79-.56,1.18-.84,0,0,.13.15.13.15-.3.33-.61.66-.91.98-.14-.09-.28-.19-.41-.29Z"/>
  <path class="cls-88" d="m216.95,252.97c-.25,0-.49,0-.74.02-.12-.31-.25-.62-.37-.93.37.3.74.6,1.11.91Z"/>
  <path class="cls-7" d="m215.12,250.99c.3,0,.59,0,.89,0-.04.38-.08.76-.12,1.15-.26-.38-.51-.76-.76-1.14Z"/>
  <path class="cls-48" d="m287.91,258.75c-.26.41-.51.82-.77,1.23.26-.41.51-.82.77-1.23Z"/>
  <path class="cls-56" d="m224.88,259.99l-.79-1.25c.26.42.53.83.79,1.25Z"/>
  <path class="cls-66" d="m213.92,276.75c-.42.4-.85.79-1.27,1.19.42-.39.85-.79,1.27-1.19Z"/>
  <path class="cls-66" d="m210.91,279.66c-.4.43-.8.86-1.2,1.29.4-.43.8-.86,1.2-1.29Z"/>
  <path class="cls-48" d="m292.05,259.15c.25-.37.51-.75.76-1.12-.25.37-.51.75-.76,1.12Z"/>
  <path class="cls-66" d="m209.93,280.71c-.39.42-.79.84-1.18,1.25.39-.42.79-.84,1.18-1.25Z"/>
  <path class="cls-66" d="m208.95,281.75c-.37.41-.74.82-1.11,1.23.37-.41.74-.82,1.11-1.23Z"/>
  <path class="cls-49" d="m334,359.99c.32-.29.64-.58.96-.87-.32.29-.64.58-.96.87Z"/>
  <path class="cls-44" d="m312.02,363.98c.28-.23.56-.46.84-.69-.28.23-.56.46-.84.69Z"/>
  <path class="cls-79" d="m330.01,360.99c.31-.28.63-.57.94-.85-.31.28-.63.56-.94.85Z"/>
  <path class="cls-36" d="m274.97,265.06c.68.32,1.35.63,2.03.95-9.38,16.65-19.86,32.69-28.35,50.48,1.83.21,3.09.35,4.35.5,1.33,0,2.66,0,3.98.01,0,.19.02.39.03.58-4.34,0-8.68.01-13.02.02,0-.2,0-.39,0-.59,1.77-.56,2.51-2.07,3.28-3.55,8.56-16.52,18.03-32.51,27.7-48.4Z"/>
  <path class="cls-65" d="m253,316.99c-1.26-.14-2.52-.29-4.35-.5,8.49-17.79,18.97-33.83,28.35-50.48,1.32.36,2.65.71,3.97,1.07-8.45,14.67-16.92,29.33-25.33,44.03-1.06,1.86-1.77,3.92-2.64,5.88Z"/>
  <path class="cls-12" d="m218.13,274.04c.3-.33.61-.66.91-.98.98-.62,1.97-1.24,2.95-1.85,1.01-.38,2.01-.77,3.02-1.15-3.72,10.59-10.63,19.45-15.89,29.22-3.22,5.99-7.54,11.36-10.11,17.72-1.33,0-2.66,0-3.99,0,7.37-12.43,14.74-24.86,22.1-37.3,1.03-1.74,1.9-3.55,1.02-5.65Z"/>
  <path class="cls-40" d="m232,267.01c1-.34,2-.68,3-1.01-9.67,17-19.33,34-29,50.99-1,0-2,0-3,0,9.67-16.66,19.33-33.32,29-49.98Z"/>
  <path class="cls-88" d="m225.16,269c0-.32,0-.64.03-.96-.01.32-.02.64-.03.96Z"/>
  <path class="cls-88" d="m219.86,252.13c.05.29.08.58.11.87-.32-.34-.63-.67-.95-1.01.28.03.56.08.84.14Z"/>
  <path class="cls-88" d="m218.82,250.17c.05.29.08.57.1.87-.3-.34-.61-.69-.91-1.03.27.04.54.1.81.17Z"/>
  <path class="cls-43" d="m312.92,297.06c1.24,6.62-3.79,16.73-9.92,19.95-1.27-.12-2.66.3-3.99-1.06,2.65-6.41,6.83-12.08,10.49-18.04.82-1.34,2.04-1.53,3.42-.84Z"/>
  <path class="cls-1" d="m249.97,262.08c1.34,0,2.68-.01,4.02-.02-.77,1.64-1.44,3.34-2.32,4.92-9.51,16.9-19.05,33.77-28.59,50.65-1.08,0-2.16,0-3.24,0-.95-2.19.47-3.73,1.37-5.51,8.72-17.19,19.13-33.39,28.76-50.05Z"/>
  <path class="cls-34" d="m249.97,262.08c-9.63,16.66-20.04,32.87-28.76,50.05-.9,1.77-2.32,3.32-1.37,5.51-1.37,0-2.73.02-4.1.02-1.61-1.59-.55-3.1.22-4.54,3.38-6.31,6.72-12.64,10.23-18.87,5.87-10.42,11.86-20.78,17.8-31.16,1.99-.34,3.98-.68,5.98-1.01Z"/>
  <path class="cls-2" d="m244,317.01c0,.2,0,.39,0,.59-2.33,0-4.67,0-7,.01,0-.2,0-.41,0-.61,10.33-17.97,20.66-35.95,31-53.92,1,.32,2,.64,3,.96-.86,1.61-1.67,3.24-2.58,4.82-8.36,14.5-16.77,28.97-25.04,43.52-.8,1.4-3.85,3.7.63,4.62Z"/>
  <path class="cls-82" d="m236.99,317c0,.2,0,.41,0,.61-3.93.02-7.85.04-11.78.06.26-.23.52-.46.78-.68,3.13.33,4.87-1.51,6.3-3.94,2.44-4.13,4.99-8.19,7.41-12.34,7.41-12.71,15.3-25.15,21.27-38.66,1.3.08,2.6.17,3.91.25.05.23.09.45.11.68-4.17,3.64-5.3,9.09-8.01,13.61-7.8,13.05-15.38,26.23-23.29,39.78,1.45.27,2.37.45,3.28.62Z"/>
  <path class="cls-86" d="m226.01,316.99c-.26.23-.52.46-.78.68-.71-.01-1.43-.03-2.15-.04,9.54-16.88,19.08-33.76,28.59-50.65.89-1.58,1.56-3.28,2.32-4.92,1,0,1.99,0,2.99-.01-9.13,18.99-21.01,36.42-30.97,54.95Z"/>
  <path class="cls-67" d="m243.99,263.09c-5.94,10.38-11.93,20.74-17.8,31.16-3.51,6.23-6.85,12.56-10.23,18.87-.77,1.44-1.83,2.95-.22,4.54-1.88,0-3.75,0-5.63,0-.05-.21-.09-.43-.12-.65,3.84-2.84,4.59-7.57,6.84-11.37,8.18-13.79,16.12-27.72,24.16-41.59,1-.32,2-.63,3-.95Z"/>
  <path class="cls-23" d="m240.99,264.04c-8.03,13.88-15.98,27.8-24.16,41.59-2.25,3.8-3,8.53-6.84,11.37-1.33,0-2.66-.01-3.99-.02,9.67-17,19.33-34,29-50.99,0,0,0,0,0,0,.31-.28.62-.57.93-.85.69-.05,1.39-.1,2.08-.15.29-.26.59-.52.88-.78l2.1-.18Z"/>
  <path class="cls-32" d="m226.01,316.99c9.96-18.52,21.84-35.96,30.97-54.95,1.34,0,2.67.01,4.01.02-5.97,13.5-13.86,25.95-21.27,38.66-2.42,4.14-4.97,8.21-7.41,12.34-1.43,2.42-3.17,4.27-6.3,3.94Z"/>
  <path class="cls-40" d="m235.93,265.15c-.31.28-.62.57-.93.85.31-.28.62-.57.93-.85Z"/>
  <path class="cls-40" d="m238.89,264.22c-.29.26-.59.52-.88.78.29-.26.59-.52.88-.78Z"/>
  <path class="cls-14" d="m244,317.01c-4.48-.92-1.43-3.22-.63-4.62,8.28-14.55,16.69-29.02,25.04-43.52.91-1.58,1.72-3.21,2.58-4.82,1.33.34,2.66.68,3.98,1.02-9.66,15.89-19.14,31.88-27.7,48.4-.77,1.49-1.51,2.99-3.28,3.55Z"/>
  <path class="cls-55" d="m236.99,317c-.92-.17-1.83-.35-3.28-.62,7.91-13.55,15.49-26.73,23.29-39.78,2.7-4.52,3.83-9.96,8.01-13.61.99.03,1.99.05,2.98.08-10.33,17.97-20.66,35.95-31,53.92Z"/>
</svg>