<?xml version="1.0" encoding="UTF-8" standalone="no"?>
<!-- Created with Inkscape (http://www.inkscape.org/) -->

<svg
   xmlns:dc="http://purl.org/dc/elements/1.1/"
   xmlns:cc="http://creativecommons.org/ns#"
   xmlns:rdf="http://www.w3.org/1999/02/22-rdf-syntax-ns#"
   xmlns:svg="http://www.w3.org/2000/svg"
   xmlns="http://www.w3.org/2000/svg"
   xmlns:sodipodi="http://sodipodi.sourceforge.net/DTD/sodipodi-0.dtd"
   xmlns:inkscape="http://www.inkscape.org/namespaces/inkscape"
   width="147.20946"
   height="89.449371"
   viewBox="0 0 38.949169 23.666812"
   version="1.1"
   id="svg3138"
   inkscape:version="0.92.0 r15299"
   sodipodi:docname="fios by verizon.svg">
  <defs
     id="defs3132">
    <clipPath
       id="clipPath2892"
       clipPathUnits="userSpaceOnUse">
      <path
         inkscape:connector-curvature="0"
         id="path2890"
         d="M 27.765,27.766 H 137.331 V 94.102 H 27.765 Z" />
    </clipPath>
  </defs>
  <sodipodi:namedview
     id="base"
     pagecolor="#ffffff"
     bordercolor="#666666"
     borderopacity="1.0"
     inkscape:pageopacity="0.0"
     inkscape:pageshadow="2"
     inkscape:zoom="6.0261398"
     inkscape:cx="73.043863"
     inkscape:cy="44.225124"
     inkscape:document-units="mm"
     inkscape:current-layer="layer1"
     showgrid="false"
     fit-margin-top="0"
     fit-margin-left="0"
     fit-margin-right="0"
     fit-margin-bottom="0"
     units="px"
     inkscape:window-width="1280"
     inkscape:window-height="744"
     inkscape:window-x="-4"
     inkscape:window-y="-4"
     inkscape:window-maximized="1" />
  <metadata
     id="metadata3135">
    <rdf:RDF>
      <cc:Work
         rdf:about="">
        <dc:format>image/svg+xml</dc:format>
        <dc:type
           rdf:resource="http://purl.org/dc/dcmitype/StillImage" />
        <dc:title></dc:title>
      </cc:Work>
    </rdf:RDF>
  </metadata>
  <g
     inkscape:label="Layer 1"
     inkscape:groupmode="layer"
     id="layer1"
     transform="translate(-32.078573,-177.68918)">
    <g
       id="g3258"
       transform="translate(0.13229147,-0.13228788)">
      <path
         d="m 35.780269,198.5056 c 0,-0.74224 -0.301978,-1.29611 -0.918633,-1.29611 -0.717198,0 -1.044223,0.57927 -1.044223,1.29611 0,0.73625 0.346075,1.28976 1.037873,1.28976 0.623005,0 0.924983,-0.54716 0.924983,-1.28976 m -1.918758,1.19556 h -0.01905 v 0.47802 h -0.578909 v -4.68101 h 0.585259 v 1.19556 c 0,0.25788 -0.0127,0.49707 -0.01905,0.64171 h 0.01905 c 0.220133,-0.35878 0.597605,-0.61666 1.088319,-0.61666 0.855839,0 1.440745,0.6671 1.440745,1.78082 0,1.08832 -0.547159,1.78012 -1.459442,1.78012 -0.452967,0 -0.837142,-0.20108 -1.056922,-0.57856"
         style="fill:#231f20;fill-opacity:1;fill-rule:nonzero;stroke:none;stroke-width:0.35277778"
         id="path2896"
         inkscape:connector-curvature="0" />
      <path
         d="m 36.875009,201.28648 v -0.50306 h 0.02505 c 0.06315,0.0377 0.207786,0.0628 0.352425,0.0628 0.232834,0 0.383822,-0.0882 0.503414,-0.40887 0,-0.0127 0.131939,-0.39017 0.119592,-0.42792 l -1.289756,-3.20886 h 0.635353 l 0.698147,1.87501 c 0.138642,0.38382 0.282928,0.91229 0.282928,0.91229 h 0.01305 c 0,0 0.156986,-0.53482 0.289278,-0.91229 l 0.6731,-1.87501 h 0.610305 l -1.434747,3.68688 c -0.276578,0.71085 -0.547158,0.86854 -0.981075,0.86854 -0.188736,0 -0.40252,-0.0317 -0.497064,-0.0695"
         style="fill:#231f20;fill-opacity:1;fill-rule:nonzero;stroke:none;stroke-width:0.35277778"
         id="path2900"
         inkscape:connector-curvature="0" />
      <path
         d="M 41.404747,196.80059 H 42.0274 l 0.591608,1.82457 c 0.144639,0.45296 0.307975,1.07597 0.307975,1.07597 h 0.01305 c 0,0 0.144639,-0.62301 0.295628,-1.07597 l 0.603955,-1.82457 h 0.603603 l -1.214261,3.37855 h -0.6477 z"
         style="fill:#231f20;fill-opacity:1;fill-rule:nonzero;stroke:none;stroke-width:0.35277778"
         id="path2904"
         inkscape:connector-curvature="0" />
      <path
         d="m 45.261525,198.21004 h 1.956858 c -0.03175,-0.64805 -0.365125,-1.03822 -0.95003,-1.03822 -0.610306,0 -0.931334,0.44061 -1.006828,1.03822 m -0.610306,0.28328 c 0,-0.98178 0.648053,-1.77447 1.617134,-1.77447 0.503414,0 0.893233,0.19473 1.157816,0.52246 0.276578,0.33338 0.414867,0.81774 0.414867,1.3903 h -2.592211 c 0.04445,0.6604 0.402872,1.16381 1.057275,1.16381 0.465667,0 0.786342,-0.22048 0.893233,-0.57891 h 0.572559 c -0.150989,0.62901 -0.69215,1.05728 -1.472142,1.05728 -1.038225,0 -1.648531,-0.79304 -1.648531,-1.78047"
         style="fill:#231f20;fill-opacity:1;fill-rule:nonzero;stroke:none;stroke-width:0.35277778"
         id="path2908"
         inkscape:connector-curvature="0" />
      <path
         d="m 49.061647,197.41086 h 0.0187 c 0.207786,-0.38982 0.553861,-0.65405 1.000478,-0.65405 0.09419,0 0.150989,0.0127 0.214136,0.0377 v 0.55351 h -0.01905 c -0.08184,-0.0254 -0.138642,-0.0318 -0.239183,-0.0318 -0.522111,0 -0.969081,0.39017 -0.969081,1.02587 v 1.83692 h -0.584905 v -3.37856 h 0.578908 z"
         style="fill:#231f20;fill-opacity:1;fill-rule:nonzero;stroke:none;stroke-width:0.35277778"
         id="path2912"
         inkscape:connector-curvature="0" />
      <path
         inkscape:connector-curvature="0"
         id="path2914"
         style="fill:#231f20;fill-opacity:1;fill-rule:nonzero;stroke:none;stroke-width:0.35277778"
         d="m 50.886143,196.80063 h 0.585258 v 3.37855 h -0.585258 z m -0.0127,-1.30246 h 0.610306 v 0.67945 h -0.610306 z" />
      <path
         d="m 52.16969,199.72632 1.509889,-1.96956 c 0.138642,-0.17603 0.402872,-0.45931 0.402872,-0.45931 v -0.0187 c 0,0 -0.402872,0.0187 -0.635705,0.0187 h -1.163814 v -0.49707 h 2.535413 v 0.36513 l -1.535288,2.0073 c -0.144639,0.18239 -0.427567,0.49072 -0.427567,0.49072 v 0.0187 c 0,0 0.427567,-0.0187 0.6731,-0.0187 h 1.36525 v 0.51576 h -2.72415 z"
         style="fill:#231f20;fill-opacity:1;fill-rule:nonzero;stroke:none;stroke-width:0.35277778"
         id="path2918"
         inkscape:connector-curvature="0" />
      <path
         d="m 57.926529,198.49311 c 0,-0.7299 -0.358775,-1.30881 -1.050925,-1.30881 -0.69215,0 -1.050572,0.57891 -1.050572,1.30881 0,0.7299 0.358422,1.30246 1.050572,1.30246 0.69215,0 1.050925,-0.57256 1.050925,-1.30246 m -2.699455,0 c 0,-0.98143 0.635705,-1.77412 1.65488,-1.77412 1.019528,0 1.642181,0.79269 1.642181,1.77412 0,0.98778 -0.622653,1.78047 -1.642181,1.78047 -1.019175,0 -1.65488,-0.79269 -1.65488,-1.78047"
         style="fill:#231f20;fill-opacity:1;fill-rule:nonzero;stroke:none;stroke-width:0.35277778"
         id="path2922"
         inkscape:connector-curvature="0" />
      <path
         d="m 59.744746,197.27878 h 0.0187 c 0.245534,-0.33972 0.578909,-0.55986 1.069622,-0.55986 0.704498,0 1.138767,0.39617 1.138767,1.10102 v 2.35938 H 61.39328 v -2.29023 c 0,-0.43427 -0.283634,-0.67945 -0.742598,-0.67945 -0.522111,0 -0.899583,0.37147 -0.899583,0.91228 v 2.0574 h -0.585258 v -3.37855 h 0.578908 z"
         style="fill:#231f20;fill-opacity:1;fill-rule:nonzero;stroke:none;stroke-width:0.35277778"
         id="path2926"
         inkscape:connector-curvature="0" />
      <path
         d="m 33.260731,192.85519 h 3.022953 v -7.75123 H 38.2797 v -2.17029 h -1.996016 v -0.29034 c 0,-0.87206 0.736247,-0.98848 1.996016,-0.92992 v -2.30611 c -1.666522,-0.17462 -3.391252,0 -4.224513,0.85231 -0.503767,0.50412 -0.794456,1.25942 -0.794456,2.13184 v 0.54222 h -1.182158 v 2.17029 h 1.182158 z m 5.871986,0 h 3.042355 v -9.92152 h -3.042355 z m 9.068505,0.31009 c 3.158772,0 5.270853,-2.2867 5.270853,-5.25145 0,-2.98415 -2.112081,-5.25145 -5.270853,-5.25145 -3.158419,0 -5.270852,2.2673 -5.270852,5.25145 0,2.96475 2.112433,5.25145 5.270852,5.25145 m -0.0194,-2.2285 c -1.434042,0 -2.189692,-1.2012 -2.189692,-3.02295 0,-1.84079 0.75565,-3.02295 2.189692,-3.02295 1.434041,0 2.228497,1.18216 2.228497,3.02295 0,1.82175 -0.794456,3.02295 -2.228497,3.02295 m -9.049103,-8.85542 h 3.042355 v -2.69381 h -3.042355 z m 19.474744,11.08392 c 2.577394,0 4.476397,-1.14335 4.476397,-3.29424 0,-2.51918 -2.015419,-2.96509 -3.778955,-3.27519 -1.259417,-0.21307 -2.40277,-0.30973 -2.40277,-1.02658 0,-0.62018 0.600781,-0.93027 1.395236,-0.93027 0.910873,0 1.5113,0.29068 1.627717,1.20156 h 2.84868 c -0.155222,-1.97662 -1.666522,-3.19723 -4.456641,-3.19723 -2.325864,0 -4.243917,1.08515 -4.243917,3.17747 0,2.30611 1.782939,2.79083 3.54577,3.10092 1.33738,0.23248 2.538589,0.31009 2.538589,1.20121 0,0.63958 -0.600781,1.00753 -1.588559,1.00753 -1.046691,0 -1.725083,-0.48436 -1.841147,-1.4919 h -2.945694 c 0.116416,2.18969 1.918758,3.52672 4.825294,3.52672"
         style="fill:#231f20;fill-opacity:1;fill-rule:nonzero;stroke:none;stroke-width:0.35277778"
         id="path2930"
         inkscape:connector-curvature="0" />
      <path
         d="m 69.246215,177.95376 -3.742267,8.02569 -1.414286,-3.04553 h -1.529291 l 2.322336,4.97981 h 1.23578 l 4.644672,-9.95997 z"
         style="fill:#ed1c24;fill-opacity:1;fill-rule:nonzero;stroke:none;stroke-width:0.35277778"
         id="path2934"
         inkscape:connector-curvature="0" />
    </g>
  </g>
</svg>
