<svg xmlns="http://www.w3.org/2000/svg" xmlns:svg="http://www.w3.org/2000/svg" id="Layer_1" width="508.509" height="779.01" data-name="Layer 1" version="1.1" viewBox="0 0 508.509 779.01"><defs id="defs4"><style id="style2">.cls-1{fill:none}.cls-2{fill:#db3731}.cls-3{fill:#f5c300}</style></defs><title id="title6">Logo_Refine</title><rect id="rect8" width="1024" height="1024" x="-256.185" y="-129.49" class="cls-1"/><path id="path10" d="m 65.315377,223.01 c -24,229 330.000003,327 193.000003,556" class="cls-1"/><path id="path12" d="m 327.73538,727.27 c 85.45,-150.2 63.06,-254.28 16.31,-341.27 43.67,-88.9 61.83,-175.17 7.27,-292 l 0.55,-0.56 c 103.82,100.91 160.4,152.74 156.45,292.57 0,0 9.76,179.79 -180.58,341.26 z" class="cls-2"/><path id="path14" d="m 344.04538,386 c 46.75,87 69.14,191.07 -16.31,341.27 a 705.59,705.59 0 0 1 -69.42,51.74 c 59,-121.88 39.27,-183.47 -5.33,-235.17 l 2.33,-0.83 c 32.05,-57 64.36,-107.42 88.73,-157.01 z" class="cls-3"/><path id="path16" d="m 344.04538,386 c -72,-133.89 -201.64,-227.28 -84.73,-386 34,36.33 65,66.62 92.55,93.44 l -0.55,0.56 c 54.56,116.83 36.4,203.1 -7.27,292 z" class="cls-3"/><path id="path18" d="m 154.53538,447.51 c 33.86,36.24 70.91,64.39 98.45,96.31 44.6,51.7 64.3,113.29 5.33,235.17 0,0 -258.00000314,-160 -258.00000314,-393 0,0 -8.73999996,-92.07 65.80000014,-191.37 -4.95,127.79 38.250003,199.23 88.420003,252.89 z" class="cls-2"/><path id="path20" d="m 128.31538,129.01 c 0,0 110.81,130.78 26.22,318.5 -50.17,-53.68 -93.370003,-125.12 -88.420003,-252.89 a 407.51,407.51 0 0 1 62.200003,-65.61 z" class="cls-3"/><metadata id="metadata252"/></svg>