<svg xmlns="http://www.w3.org/2000/svg"><path fill="#CD5029" d="M862.27 134.603S886.975 218.282 839.54 267c-47.436 48.718-42.308 102.564-23.077 128.205s17.948 44.871 2.563 58.974c-15.384 14.103-28.205 24.359-37.179 1.282-8.974-23.077-19.23-23.077-23.077-34.615s-11.539-32.051-11.539-32.051-24.359 38.462-39.744 61.539-15.384 58.975-5.128 78.205 6.41 42.307-1.282 74.358 2.564 80.769 38.461 100 79.488 34.615 98.718 52.564 64.103 34.615 121.795 21.795 130.77-71.794 143.59-111.538c0 0 33.333-37.179 26.923-85.897s-29.488-47.437-39.744-84.616 22.193-28.012-5.128-91.845c0 0-12.178-30.382-58.448-52.27-29.73-14.063-9.5-77.68-62.064-141.782s-102.91-74.705-102.91-74.705z"/><path fill="#FFF" d="m843.701 452.443 2.249 53.018s-40.103 29.566-45.538 68l-16.001 1.231s-11.539 2.564-11.539 14.103v37.18s3.846 11.538 12.82 11.538l16.487-.319s8 30.5 36.5 50.5v25.5s-2 8.5 15.5 11 40.75 2.25 44.5-1.5 3.75-4.5 3.75-9c0 0 21.25 5 60.25 0v5s3.5 7 29 7 33-3 37.5-12v-25s37.009-36.264 35.75-91.75c-1.083-47.75-15.901-64.299-35.806-82.96-22.67-21.254-69.944-31.165-117.944-25.353.001-.001-24.341-43.938-67.478-36.188z"/><circle cx="838.68" cy="588.193" r="9.5" fill="#CD5029"/><path fill="#CD5029" d="M1063.292 564.309s-18.218-8.742-40.662 3.996c0 0-26.711-8.987-40.99 2.593-14.828 12.025-16.299 26.115-15.525 42.785 0 0 12.837-43.915 45.252-32.571 0 0-22.947 40.43 12.761 47.508 0 0 8.436-.05 15.401-4.256 6.644-4.011 11.842-11.433 9.711-24.814 0 0-4.348-13.336-15.569-21.42 0 0 11.042-7.806 31.988-2.209l-2.367-11.612z"/><path fill="#FFF" d="M1023.401 586.816s-16.689 31.461 5.607 29.767c0 0 11.838-5.656 4.887-17.127-7.147-11.796-10.494-12.64-10.494-12.64z"/></svg>