<?xml version="1.0" encoding="utf-8"?>
<!-- Generator: Adobe Illustrator 27.7.0, SVG Export Plug-In . SVG Version: 6.00 Build 0)  -->
<svg version="1.1" id="Capa_1" xmlns="http://www.w3.org/2000/svg" xmlns:xlink="http://www.w3.org/1999/xlink" x="0px" y="0px"
	 viewBox="0 0 512 512" style="enable-background:new 0 0 512 512;" xml:space="preserve">
<style type="text/css">
	.st0{fill:#73D4FF;}
	.st1{fill:#249FD3;}
	.st2{fill:#324A97;}
	.st3{fill:#E8509A;}
	.st4{fill:#4E62B1;}
	.st5{fill:#36539C;}
</style>
<path class="st0" d="M512,256c0,6.2-0.2,12.3-0.6,18.3C501.9,407.2,391.2,512,256,512c-85.8,0-161.7-42.2-208.2-107
	C34.1,386,23,364.9,15,342.5c-9.7-27-15-56.1-15-86.5C0,114.6,114.6,0,256,0c99.9,0,186.4,57.2,228.6,140.6
	C502.1,175.2,512,214.5,512,256z"/>
<path class="st1" d="M512,256c0,6.2-0.2,12.3-0.6,18.3C501.9,407.2,391.2,512,256,512c-85.8,0-161.7-42.2-208.2-107
	C34.1,386,23,364.9,15,342.5l93.3-230L171,212.8L272.9,40.4L421,204.1l63.6-63.6C502.1,175.2,512,214.5,512,256z"/>
<g>
	<path class="st2" d="M147.1,349.5c-54,15.2-110.3-16.3-125.5-70.3S37.9,169,91.8,153.7S202.1,170,217.4,224
		S201.1,334.3,147.1,349.5z M97,172C53,184.3,27.4,230.2,39.8,274.1s58.2,69.6,102.2,57.2s69.6-58.2,57.2-102.2S140.9,159.6,97,172z
		"/>
	<path class="st2" d="M407.3,276.1c-54,15.2-110.3-16.3-125.5-70.3s16.3-110.3,70.3-125.5s110.3,16.3,125.5,70.3
		S461.3,260.9,407.3,276.1z M357.2,98.5c-43.9,12.4-69.6,58.2-57.2,102.2s58.2,69.6,102.2,57.2c43.9-12.4,69.6-58.2,57.2-102.2
		C447,111.8,401.2,86.2,357.2,98.5z"/>
</g>
<path class="st3" d="M123.2,242.6l29.4-121.3l84.6,89.1L123.2,242.6z M247.9,199.4l-85.1-89.6L284,75.6L247.9,199.4z M366.6,16.1
	C360.2,5.1,346.9,0.3,335,4.5l-29,10.3l-22.3,8c-2.2,0.8-3.9,2.5-4.7,4.7c-0.8,2.2-0.5,4.6,0.8,6.6l14.3,22.7
	c-0.3,0-0.6,0.1-0.9,0.2L150.8,97.2l-16.1-17l-11.1,10.6l16.4,17.3l-34.8,143.7c-0.7,2.7,0.2,5.4,2.1,7.4c2,1.9,4.8,2.6,7.4,1.9
	L252.8,222l0,0c0.2,0,0.4-0.1,0.5-0.1l0.3-0.1c2.6-0.7,4.5-2.7,5.3-5.2l43-147.4l71.3,113.2c1.9,3,5.4,4.2,8.6,3.3
	c0.7-0.2,1.4-0.5,2-0.9c3.6-2.3,4.7-7,2.4-10.6L297.9,34.1l16.6-5.9l25.6-9.1c5-1.8,10.5,0.2,13.2,4.8c1.6,2.8,1.9,6.2,0.8,9.3
	c-1.1,3.1-3.5,5.5-6.6,6.6l-10.2,3.7c-4,1.4-6.1,5.9-4.6,9.8c1.4,4,5.9,6.1,9.8,4.6l10.2-3.7c7.4-2.7,13.1-8.4,15.8-15.8
	C371.3,31,370.5,22.9,366.6,16.1z"/>
<g>
	<circle class="st2" cx="119.5" cy="251.6" r="15.8"/>
	<circle class="st2" cx="379.7" cy="178.2" r="15.8"/>
	<path class="st2" d="M368.6,38.3c-2.7,7.4-8.4,13.1-15.8,15.8l-10.2,3.7c-4,1.4-8.4-0.6-9.8-4.6c-1.4-4,0.6-8.4,4.6-9.8l10.2-3.7
		c3.1-1.1,5.5-3.5,6.6-6.6c1.1-3.1,0.8-6.4-0.8-9.3c-2.7-4.6-8.2-6.6-13.2-4.8l-18,6.4c-4.1,1.5-8.6-0.9-9.8-5.1l0,0
		c-1.1-3.8,1-7.8,4.7-9.2l18-6.7c11.9-4.3,25.2,0.6,31.6,11.5C370.5,22.9,371.3,31,368.6,38.3z"/>
	<path class="st2" d="M174.1,57.4l-61,7.2c-6.4,0.8-10.6,7-8.8,13.2l3.6,12.8c1.2,4.3,5.7,6.9,10.1,5.7l60.5-17.1
		c5.9-1.7,9.4-7.8,7.7-13.8l0,0C184.7,60.2,179.5,56.7,174.1,57.4z"/>
</g>
<path class="st4" d="M511.4,274.3c-3.3,46.7-19.1,89.9-44.1,126.3c-14.1,20.6-31.2,39-50.6,54.7c-22,17.8-47.1,32-74.3,41.7
	c-27,9.7-56,14.9-86.3,14.9c-45.6,0-88.5-11.9-125.6-32.9c-32.7-18.4-60.9-43.8-82.6-74.1l99.2-57.6l102.3,20.5l50.2-84.6
	L511.4,274.3z"/>
<path class="st5" d="M467.2,400.7c-14.1,20.6-31.2,39-50.6,54.7c-22,17.8-47.1,32-74.3,41.7c-27,9.7-56,14.9-86.3,14.9
	c-45.6,0-88.5-11.9-125.6-32.9l42.1-67.3l142.6,25.1l76.8-76.8L467.2,400.7z"/>
</svg>
