<?xml version="1.0" encoding="utf-8"?>
<!-- Generator: Adobe Illustrator 27.7.0, SVG Export Plug-In . SVG Version: 6.00 Build 0)  -->
<svg version="1.1" id="Layer_1" xmlns:serif="http://www.serif.com/"
	 xmlns="http://www.w3.org/2000/svg" xmlns:xlink="http://www.w3.org/1999/xlink" x="0px" y="0px" viewBox="0 0 512 512"
	 style="enable-background:new 0 0 512 512;" xml:space="preserve">
<style type="text/css">
	.st0{fill:url(#SVGID_1_);}
	.st1{fill:url(#SVGID_00000007418267782435437330000014348698008893697469_);}
</style>
<g id="icon-solid" transform="matrix(2.69448e-16,4.40042,-4.40042,2.69448e-16,2150.46,-102.509)">
	<g id="inner-shape" transform="matrix(0.787109,6.16298e-33,-6.16298e-33,0.787109,54.5003,23.593)">
		
			<linearGradient id="SVGID_1_" gradientUnits="userSpaceOnUse" x1="145.1165" y1="714.1526" x2="145.9635" y2="714.1526" gradientTransform="matrix(289.3716 -501.2148 -501.2148 -289.3716 315939.6875 279892.5625)">
			<stop  offset="0" style="stop-color:#F2364D"/>
			<stop  offset="1" style="stop-color:#FDC92F"/>
		</linearGradient>
		<path class="st0" d="M34.3,499.7c-6.5,0-27.4,37.9-24.2,44.3s45.3,6.3,48.4,0C61.6,537.7,40.8,499.7,34.3,499.7z"/>
	</g>
	<g id="outer-shape" transform="matrix(0.787109,6.16298e-33,-6.16298e-33,0.787109,54.5003,23.593)">
		
			<linearGradient id="SVGID_00000173843069778307885120000008270940598129658805_" gradientUnits="userSpaceOnUse" x1="145.1132" y1="714.1526" x2="145.9602" y2="714.1526" gradientTransform="matrix(289.3716 -501.2148 -501.2148 -289.3716 315939.6875 279892.5625)">
			<stop  offset="0" style="stop-color:#F2364D"/>
			<stop  offset="1" style="stop-color:#FDC92F"/>
		</linearGradient>
		<path style="fill:url(#SVGID_00000173843069778307885120000008270940598129658805_);" d="M34.3,443.1
			c-19.6,0-82.5,114.2-72.9,133.4s136.4,19.1,145.9,0C116.7,557.5,53.8,443.1,34.3,443.1z M82.1,559.8c-6.2,12.5-89.3,12.6-95.6,0
			c-6.3-12.6,35-87.4,47.8-87.4S88.3,547.3,82.1,559.8z"/>
	</g>
</g>
</svg>
