<svg xmlns="http://www.w3.org/2000/svg" width="400" height="400"><g style="fill:#4a90d9;fill-opacity:1;fill-rule:nonzero"><g style="mix-blend-mode:normal;fill:#4a90d9;fill-opacity:1;fill-rule:nonzero"><path d="M474.61 255.118V406.3l-130.927 75.59V330.71zm-130.927 75.591V179.528l-130.927 75.59Z" style="fill:#4a90d9;fill-opacity:1;fill-rule:nonzero;stroke:none;stroke-width:1px;stroke-linecap:butt;stroke-linejoin:miter;stroke-opacity:1" transform="translate(-24.616 -64.38) scale(.65356)"/><path d="M218.612 233.262a43.667 43.667 0 0 0-21.856 37.856V390.3a43.667 43.667 0 0 0 21.856 37.857l103.214 59.59a43.667 43.667 0 0 0 43.713 0l103.214-59.59a43.667 43.667 0 0 0 21.856-37.857V271.12a43.667 43.667 0 0 0-21.856-37.857l-103.214-59.59a43.667 43.667 0 0 0-43.713 0zm130.927-31.878 103.214 59.59a11.759 11.759 0 0 1 5.856 10.144V390.3c0 4.166-2.249 8.06-5.856 10.144l-103.214 59.59a11.759 11.759 0 0 1-11.713 0l-103.214-59.59a11.759 11.759 0 0 1-5.856-10.144V271.12c0-4.167 2.249-8.062 5.856-10.144l103.214-59.591a11.759 11.759 0 0 1 11.713 0z" style="fill:#4a90d9;fill-opacity:1;fill-rule:nonzero;stroke:none;stroke-width:82.9362;stroke-linecap:round;stroke-linejoin:round;stroke-dasharray:none;stroke-opacity:1" transform="translate(-24.616 -64.38) scale(.65356)"/></g><g style="font-weight:700;font-size:48.2186px;line-height:1.25;font-family:Inter;-inkscape-font-specification:&quot;Inter, Bold&quot;;text-align:center;letter-spacing:0;word-spacing:0;text-anchor:middle;fill:#4a90d9;fill-opacity:1;fill-rule:nonzero;stroke-width:1.69387"><path d="M1224.922 467.702h7.415v-14.486h14.263v-6.113h-14.263v-8.356h15.804v-6.113h-23.219zm35.36-35.068h-7.295v35.068h7.295zm13.321 35.565c3.887 0 6.404-1.695 7.689-4.144h.205v3.647h6.918v-17.74c0-6.266-5.308-8.903-11.164-8.903-6.302 0-10.445 3.013-11.456 7.808l6.747.548c.496-1.747 2.055-3.031 4.674-3.031 2.483 0 3.904 1.25 3.904 3.407v.103c0 1.695-1.798 1.918-6.37 2.363-5.205.48-9.88 2.226-9.88 8.1 0 5.205 3.716 7.842 8.733 7.842zm2.09-5.034c-2.244 0-3.853-1.045-3.853-3.048 0-2.055 1.695-3.065 4.263-3.425 1.593-.223 4.195-.6 5.069-1.181v2.79c0 2.757-2.278 4.864-5.48 4.864zm32.379-21.764h-4.948V435.1h-7.295v6.301h-3.596v5.48h3.596v13.698c-.034 5.154 3.476 7.705 8.767 7.483 1.884-.069 3.22-.445 3.956-.685l-1.148-5.428c-.36.068-1.13.24-1.815.24-1.455 0-2.465-.548-2.465-2.569v-12.74h4.948zm4.743 36.164h7.294V463.49h.223c1.01 2.192 3.22 4.64 7.466 4.64 5.993 0 10.668-4.743 10.668-13.544 0-9.041-4.88-13.527-10.651-13.527-4.4 0-6.507 2.62-7.483 4.76h-.325V441.4h-7.192zm7.14-23.013c0-4.692 1.987-7.689 5.531-7.689 3.613 0 5.53 3.134 5.53 7.689 0 4.589-1.951 7.773-5.53 7.773-3.51 0-5.53-3.082-5.53-7.773zm30.856 13.647c3.887 0 6.404-1.695 7.688-4.144h.206v3.647h6.918v-17.74c0-6.266-5.309-8.903-11.165-8.903-6.3 0-10.445 3.013-11.455 7.808l6.747.548c.496-1.747 2.054-3.031 4.674-3.031 2.483 0 3.904 1.25 3.904 3.407v.103c0 1.695-1.798 1.918-6.37 2.363-5.205.48-9.88 2.226-9.88 8.1 0 5.205 3.716 7.842 8.733 7.842zm2.09-5.034c-2.244 0-3.854-1.045-3.854-3.048 0-2.055 1.696-3.065 4.264-3.425 1.593-.223 4.195-.6 5.068-1.181v2.79c0 2.757-2.277 4.864-5.479 4.864zm18.389 4.537h7.295v-8.356l1.969-2.243 7.174 10.6h8.545l-10.257-14.915 9.76-11.387h-8.373l-8.424 9.983h-.394v-18.75h-7.295z" aria-label="Flatpak" style="fill:#4a90d9;fill-opacity:1;fill-rule:nonzero" transform="translate(-1108.571 -122.857)"/></g></g></svg>