<?xml version="1.0" encoding="utf-8"?>
<!-- Generator: Adobe Illustrator 27.7.0, SVG Export Plug-In . SVG Version: 6.00 Build 0)  -->
<svg version="1.1" id="Layer_1" xmlns="http://www.w3.org/2000/svg" xmlns:xlink="http://www.w3.org/1999/xlink" x="0px" y="0px"
	 viewBox="0 0 512 512" style="enable-background:new 0 0 512 512;" xml:space="preserve">
<style type="text/css">
	.st0{fill:#F8A66B;}
	.st1{fill:#FFFFFF;}
</style>
<g>
	<path class="st0" d="M58.9,2.6h394.2c31.1,0,56.3,25.2,56.3,56.3v394.2c0,31.1-25.2,56.3-56.3,56.3H58.9
		c-31.1,0-56.3-25.2-56.3-56.3V58.9C2.6,27.8,27.8,2.6,58.9,2.6z"/>
	<path class="st1" d="M142,409.2c-2.1,0-4.4-1.5-6.8-4.5c-2.1-3-3.9-6.5-5.4-10.4c-1.2-3.9-1.8-7.1-1.8-9.5
		c0.6-11.7,3.3-24.9,8.1-39.6c1.5-4.2,3.8-6,6.8-5.4c0.6-5.1,1.2-11.6,1.8-19.4c0.9-7.8,2-16.8,3.2-27c-1.5-4.2-4.7-6.3-9.5-6.3
		c-1.2,0-5.7,0.8-13.5,2.3c-7.5,1.5-18.6,3.8-33.3,6.8c-0.3,0-0.6,0.2-0.9,0.5c-0.3,0-0.8-0.2-1.4-0.5c-3,0-4.5-1.8-4.5-5.4
		c0-4.2,2-7.2,5.9-9l-0.5,0.5c4.5-2.1,15.5-5.3,32.9-9.5c12.9-3.3,23.3-7.5,31.1-12.6l2.7-23c1.2-11.1,3.2-22.5,5.9-34.2
		c2.7-12,6.5-24.2,11.3-36.5c9.9-26.7,21.6-48.2,35.1-64.4c11.4-13.2,22.8-19.8,34.2-19.8c9.9,0,18.6,4.7,26.1,14
		c1.2,1.2,1.8,2.6,1.8,4.1c0,3.3-1.8,5-5.4,5c-2.1,0-3.9-0.9-5.4-2.7c-4.8-5.7-10.1-8.6-15.8-8.6c-13.5,0-27.8,14.9-42.8,44.6
		c-6,12-11.3,26.3-15.8,42.8c-4.5,16.2-8,34.5-10.4,55l-0.5,7.7l-0.9,12.2c8.7,2.7,18.3,4.1,28.8,4.1l28.8-0.9
		c9,0.3,13.5,3.3,13.5,9c0,5.1-2.4,7.7-7.2,7.7h-35.1c-12.6,0.9-23.7,4.4-33.3,10.4c-9,69.7-16.7,109.5-23,119.4
		C145.5,408,143.8,409.2,142,409.2z M253.7,394.8c-6.9,0-12.3-0.9-16.2-2.7c-3.6-1.8-5.4-3.8-5.4-5.9c0-1.8,0.9-3.5,2.7-5
		c2.1-1.5,5.6-2.4,10.4-2.7c6-0.3,14.4-0.6,25.2-0.9c10.8-0.3,22.7-0.6,35.6-0.9c13.2-0.3,26.1-0.5,38.7-0.5c6.6,0,13.1,0,19.4,0
		s11.9,0.2,16.7,0.5c5.1,0.3,8.9,0.8,11.3,1.4c2.4,0.6,3.6,2.3,3.6,5c0,3.3-1.4,5.4-4.1,6.3c-2.7,0.9-6,1.4-9.9,1.4
		c-6.9,0-15.9,0.2-27,0.5c-11.1,0.6-23,1.1-35.6,1.4c-12.6,0.6-24.8,1.1-36.5,1.4C271.2,394.5,261.5,394.8,253.7,394.8z"/>
</g>
</svg>
