<svg xmlns="http://www.w3.org/2000/svg" viewBox="0 0 389.1 395.17"><defs><style>.a{fill:#4d3f92;}.b{fill:#fff;}</style></defs><title>fluffychat</title><path class="a" d="M365,208.86a20.67,20.67,0,0,0,10.68-5.62C387,188.33,378,170.05,363.07,167.8a4.54,4.54,0,0,1-4.22-4.22v-1.41a60,60,0,0,0,7-9.28c22.78-30.38,33.19-142.32,10.69-151C349-7.43,293,19.57,268.85,50.79A6.17,6.17,0,0,1,266,45.73a19.8,19.8,0,0,0-9.84-19.12c-12.66-6.47-24.75,0-29.81,9.28-1.41,2.25-3.66,3.65-5.63,2.81a4.54,4.54,0,0,1-4.22-4.22A20.75,20.75,0,0,0,204.44,19c-13.5-5.62-27.57,2.25-29.82,14.91-.84,2.25-2.25,4.22-4.22,4.22-2.25.84-4.21-.85-5.62-2.82-4.22-6.46-11.25-10.68-18.28-10.68-11.25,0-21.38,9.28-21.94,20.53v1.69a6.2,6.2,0,0,1-2.81,5.06h-.85C97.56,21.54,40.74-6.3,12.62,3-10.16,10.85.52,122.8,23.87,153.17a119.88,119.88,0,0,0,10.69,12.66c-.85,2.25-2.82,4.22-5.07,4.22a15.74,15.74,0,0,0-9.84,3.65c-14.91,14.07-6.47,34,8.44,37.69,2.25.85,4.22,2.82,4.22,5.07s-1.41,5.06-3.66,5.62c-2.81,1.41-5.63,2.81-7.88,5.63C9.52,244,20.77,262.3,36.24,262.3A5.42,5.42,0,0,1,41.31,266c.84,2.25.84,4.22-1.41,5.62-4.22,4.22-6.47,9.85-5.62,15.47a22.19,22.19,0,0,0,13.5,18.28c4.21,2.25,8.43,2.25,12.65,1.41,2.25-.84,4.22,0,5.63,2.25,1.4,1.41,1.4,4.22.84,5.62a18.76,18.76,0,0,0-1.41,14.07A21.56,21.56,0,0,0,81,344.15c7,1.4,12.1-.85,15.47-2.25,1.41-.85-9.28,25.59-16.87,43.31-2.25,5.63,3.65,12.1,9.84,9.28,23.35-10.69,62.44-29,62.44-27.56,1.41,14.91,18.28,25.59,34.6,14.91,3.65-2.25,5.62-6.47,6.47-9.85a6.08,6.08,0,0,1,5.62-4.22c2.81,0,5.06,1.41,5.63,4.22.84,3.66,2.25,6.47,5.06,8.44,16.31,12.66,34.59,2.25,36-13.5a5.4,5.4,0,0,1,3.66-5.06,5.13,5.13,0,0,1,5.62,1.4c4.22,4.22,9.28,7,14.91,7h0a21.33,21.33,0,0,0,18.28-10.68c2.81-4.22,3.66-8.44,2.81-14.07a7.86,7.86,0,0,1,2.25-5.62,4.28,4.28,0,0,1,5.63,0c4.22,2.25,9.28,3.65,14.06,2.25,7.88-1.41,14.06-7.88,16.31-14.91a21.2,21.2,0,0,0-1.4-14.91c-.85-2.25-.85-4.21.84-5.62a8.93,8.93,0,0,1,5.63-2.25c5.06.84,9.28.84,13.5-1.41a20.73,20.73,0,0,0,12.09-15.47,19.76,19.76,0,0,0-5.62-18.28,5.26,5.26,0,0,1-1.41-5.62,5.82,5.82,0,0,1,5.06-3.66c5.06,0,10.69-1.41,14.07-5.62,12.09-12.66,6.46-29.82-7-35.44a5.62,5.62,0,0,1-3.65-5.63A4.39,4.39,0,0,1,365,208.86Z"/><path class="b" d="M308.22,60.08a19.44,19.44,0,0,1,0,12.65,5.15,5.15,0,0,0,1.41,5.63,5.25,5.25,0,0,0,5.62,1.4c2.82-1.4,5.63-1.4,8.44-1.4A19.75,19.75,0,0,1,340,86.79c2.82,3.66,5.07,8.44,4.22,13.51a19.91,19.91,0,0,1-3.65,11.25,4.26,4.26,0,0,0,0,5.62c.84.84,1.4,2.25,2.81,2.25a16.48,16.48,0,0,0,7.87-5.62c12.66-17.72,14.91-73.69,2.25-77.91s-34.59,4.22-50.34,16.87C306.25,54.17,307.66,56.42,308.22,60.08Z"/><path class="b" d="M48.34,120.26,50.59,118a5.07,5.07,0,0,0,0-5.62,21.47,21.47,0,0,1-3.66-16.31C48.34,88.2,54.81,82,62.4,79.76c4.22-1.4,8.44-.84,12.66.85a5.13,5.13,0,0,0,5.62-1.41,5.27,5.27,0,0,0,1.41-5.62,19.47,19.47,0,0,1,0-12.66A21.37,21.37,0,0,1,86.31,53C70.84,40.39,47.21,31.11,34.56,35.32s-10.41,60.19,2.53,77.91C39.9,117.45,43.28,119.42,48.34,120.26Z"/><circle class="b" cx="109.93" cy="207.45" r="26.16"/><path class="b" d="M221.88,207.45a26.16,26.16,0,0,1-52.32,0C169.56,193.39,221.88,192.55,221.88,207.45Z"/><circle class="b" cx="280.66" cy="207.45" r="26.16" transform="translate(30.93 451.26) rotate(-80.78)"/></svg>