<svg xmlns="http://www.w3.org/2000/svg" viewBox="0 0 48 48"><g fill="none" fill-rule="evenodd"><path fill="#326ce5" d="M7.595 12.738a1.396 1.396 0 0 1 0-2.342L23.239.226a1.396 1.396 0 0 1 1.522 0l15.644 10.17c.847.55.847 1.791 0 2.342l-15.644 10.17a1.396 1.396 0 0 1-1.522 0z"/><path fill="#c1d2f7" d="M26.47 14.533h1.085a.823.823 0 0 0 .713-1.235L24.713 7.14a.824.824 0 0 0-1.426 0l-3.555 6.158a.823.823 0 0 0 .713 1.235h1.085c.455 0 .823.368.823.823v7.03l.728.473a1.684 1.684 0 0 0 1.837 0l.729-.474v-7.029c0-.455.368-.823.823-.823"/><path fill="#326ce5" d="m29.42 28.123-3.774-2.453v1.163c1.232.527 2.498.938 3.774 1.29m-3.773.8v1.632c1.246.38 2.508.693 3.757 1 4.078 1.006 7.93 1.955 11.026 5.053.158.157.305.317.452.477a1.398 1.398 0 0 0-.477-1.82l-6.128-3.984c-1.487-.491-3.003-.867-4.5-1.235-1.413-.349-2.795-.696-4.13-1.123m-3.294-1.339a15.32 15.32 0 0 1-1.552-.905l-1.401.911a17.075 17.075 0 0 0 2.953 1.73zm4.69 5.195c-.469-.115-.934-.23-1.396-.348v1.604l1.023.254c4.078 1.005 7.93 1.955 11.027 5.052l.015.016 1.325-.861c-.08-.084-.157-.171-.24-.254-3.404-3.404-7.65-4.45-11.754-5.463m-4.69-1.303c-1.772-.607-3.451-1.388-4.984-2.566l-1.372.892c1.951 1.61 4.123 2.586 6.356 3.31zm0 3.544c-3.05-.8-5.918-1.775-8.369-3.909l-1.349.877c2.878 2.652 6.303 3.76 9.718 4.638zm3.294 2.432c3.19.824 6.19 1.809 8.732 4.072l1.341-.872c-2.97-2.791-6.532-3.906-10.073-4.806zm-15.004-4.169-1.331.866c.046.048.089.098.136.145 3.404 3.404 7.65 4.45 11.755 5.463 3.555.876 6.938 1.711 9.799 3.963l1.365-.887c-3.224-2.715-7.065-3.668-10.792-4.586-4.037-.996-7.851-1.94-10.932-4.964m-2.828 2.645a14.036 14.036 0 0 1-.446-.472 1.393 1.393 0 0 0 .226 2.15l4.606 2.996c2.04.844 4.171 1.371 6.268 1.888 3.273.807 6.4 1.58 9.11 3.456l1.392-.906c-3.08-2.316-6.654-3.203-10.13-4.06-4.077-1.005-7.929-1.954-11.026-5.052m14.989 11.567c.307.149.61.306.909.474.355.075.733.013 1.048-.192l.773-.503c-2.483-1.66-5.245-2.502-7.997-3.203Z"/></g></svg>