<svg xmlns="http://www.w3.org/2000/svg" xmlns:xlink="http://www.w3.org/1999/xlink" width="473.292" height="511.768" viewBox="0 0 125.225 135.405"><defs><radialGradient id="m" cx="116.262" cy="207.331" r="17.964" fx="116.262" fy="207.331" gradientTransform="matrix(.16052 0 0 .16172 -133.60104 -196.97319)" gradientUnits="userSpaceOnUse" xlink:href="#a"/><radialGradient id="n" cx="116.262" cy="207.331" r="17.964" fx="116.262" fy="207.331" gradientTransform="matrix(.35482 0 0 .35745 52.845463 85.74806)" gradientUnits="userSpaceOnUse" xlink:href="#a"/><radialGradient id="k" cx="116.262" cy="207.331" r="17.964" fx="116.262" fy="207.331" gradientTransform="matrix(.14816 0 0 .14926 -138.46003 -205.27159)" gradientUnits="userSpaceOnUse" xlink:href="#a"/><radialGradient id="h" cx="116.262" cy="207.331" r="17.964" fx="116.262" fy="207.331" gradientTransform="matrix(.2423 0 0 .2441 36.676716 96.039879)" gradientUnits="userSpaceOnUse" xlink:href="#a"/><radialGradient id="o" cx="116.262" cy="207.331" r="17.964" fx="116.262" fy="207.331" gradientTransform="matrix(.1731 0 0 .17439 33.758025 163.42129)" gradientUnits="userSpaceOnUse" xlink:href="#a"/><radialGradient id="e" cx="116.262" cy="207.331" r="17.964" fx="116.262" fy="207.331" gradientTransform="matrix(.16028 0 0 .16147 30.240704 175.66263)" gradientUnits="userSpaceOnUse" xlink:href="#a"/><linearGradient id="a"><stop offset="0" stop-color="#fff"/><stop offset="1" stop-color="#fff" stop-opacity="0"/></linearGradient><linearGradient id="l" x1="48.501" x2="48.234" y1="196.648" y2="217.22" gradientTransform="matrix(1.2231 0 0 1.72123 -174.64023 -522.81612)" gradientUnits="userSpaceOnUse" xlink:href="#a"/><linearGradient id="j" x1="48.501" x2="48.234" y1="196.648" y2="217.22" gradientTransform="matrix(.86267 0 0 1.21401 -162.90485 -427.77136)" gradientUnits="userSpaceOnUse" xlink:href="#a"/><linearGradient id="g" x1="48.501" x2="48.234" y1="196.648" y2="217.22" gradientTransform="matrix(1.41083 0 0 1.98542 -3.3007082 -267.83949)" gradientUnits="userSpaceOnUse" xlink:href="#a"/><linearGradient id="c" x1="48.501" x2="48.234" y1="196.648" y2="217.22" gradientTransform="matrix(1.09685 0 0 1.54356 3.7379654 -123.1387)" gradientUnits="userSpaceOnUse" xlink:href="#a"/><linearGradient id="d" x1="48.501" x2="48.234" y1="196.648" y2="217.22" gradientTransform="matrix(.93325 0 0 1.31333 3.7959955 -65.040289)" gradientUnits="userSpaceOnUse" xlink:href="#a"/><filter id="i" width="1.12" height="1.125" x="-.06" y="-.062" color-interpolation-filters="sRGB"><feGaussianBlur stdDeviation="6.243"/></filter><filter id="f" width="1.084" height="1.08" x="-.042" y="-.04" color-interpolation-filters="sRGB"><feGaussianBlur stdDeviation="6.547"/></filter><filter id="b" width="1.137" height="1.137" x="-.069" y="-.068" color-interpolation-filters="sRGB"><feGaussianBlur stdDeviation="1.911"/></filter></defs><g transform="translate(-22.446377 -113.17169)"><path fill-opacity=".737" d="M59.269101 174.81753a18.48723 18.624756 0 0 0-18.487241 18.62522 18.48723 18.624756 0 0 0 .390673 3.71295 24.239647 24.419963 0 0 0-7.08174 12.52637 19.140913 19.283302 0 0 0-5.059121 13.02659 19.140913 19.283302 0 0 0 19.14095 19.28306 19.140913 19.283302 0 0 0 9.575644-2.61431 24.239647 24.419963 0 0 0 9.339479-1.91409 18.48723 18.624756 0 0 0 10.355442 3.20187 18.48723 18.624756 0 0 0 18.487242-18.6247 18.48723 18.624756 0 0 0-16.804658-18.53996 24.239647 24.419963 0 0 0-2.46755-3.80183 18.48723 18.624756 0 0 0 1.098124-6.25595 18.48723 18.624756 0 0 0-18.487244-18.62522z" filter="url(#b)"/><ellipse cx="57.946" cy="192.309" fill="#ff02ef" stroke="#000" stroke-linecap="round" stroke-linejoin="round" stroke-width=".545" rx="18.487" ry="18.625"/><ellipse cx="78.577" cy="221.095" fill="#ff02ef" stroke="#000" stroke-linecap="round" stroke-linejoin="round" stroke-width=".529" rx="18.487" ry="18.625"/><ellipse cx="58.874" cy="214.013" fill="#ff0802" stroke="#000" stroke-linecap="round" stroke-linejoin="round" stroke-width=".529" rx="24.24" ry="24.42"/><ellipse cx="56.799" cy="201.014" fill="url(#c)" rx="15.83" ry="8.87"/><ellipse cx="49.306" cy="221.764" fill="#ff02ef" stroke="#000" stroke-linecap="round" stroke-linejoin="round" stroke-width=".529" rx="19.141" ry="19.283"/><ellipse cx="48.943" cy="210.765" fill="url(#d)" rx="13.469" ry="7.547"/><ellipse cx="48.875" cy="209.141" fill="url(#e)" rx="2.879" ry="2.901"/><path fill-opacity=".51" d="M413.42383 464.49023a93.32787 94.022128 0 0 0-79.50391 45.00196 149.42678 150.53837 0 0 0-46.84765 14.84961 114.51071 115.36254 0 0 0-41.60547-7.94922 114.51071 115.36254 0 0 0-114.50977 115.36328A114.51071 115.36254 0 0 0 234.16016 746.4375a149.42678 150.53837 0 0 0 45.09765 41.42578 114.51071 115.36254 0 0 0 105.60938 71.04102 114.51071 115.36254 0 0 0 114.51172-115.36133 114.51071 115.36254 0 0 0-4.60743-32.17383 149.42678 150.53837 0 0 0 9.76368-53.01367 149.42678 150.53837 0 0 0-9.86914-53.68359A93.32787 94.022128 0 0 0 506.75 558.51172a93.32787 94.022128 0 0 0-93.32617-94.02149z" filter="url(#f)" transform="translate(-.5716395 3.2187682) scale(.26458)"/><ellipse cx="109.385" cy="147.773" fill="#fd0802" stroke="#000" stroke-linecap="round" stroke-linejoin="round" stroke-width=".529" rx="24.693" ry="24.877"/><ellipse cx="101.83" cy="196.729" fill="#ff0802" stroke="#000" stroke-linecap="round" stroke-linejoin="round" stroke-width=".529" rx="30.298" ry="30.523"/><ellipse cx="93.956" cy="174.19" fill="#fdea05" stroke="#000" stroke-linecap="round" stroke-linejoin="round" stroke-width=".529" rx="39.536" ry="39.83"/><path fill="#ff0802" stroke="#000" stroke-linecap="round" stroke-linejoin="round" stroke-width=".529" d="M64.946423 136.62887a30.297625 30.523005 0 0 0-30.297376 30.5232 30.297625 30.523005 0 0 0 30.297376 30.5232 30.297625 30.523005 0 0 0 6.325712-.71055 71.897787 72.432623 0 0 0 20.232356-44.43656 30.297625 30.523005 0 0 0-26.558068-15.89929z"/><ellipse cx="64.949" cy="149.105" fill="url(#g)" rx="20.362" ry="11.409"/><ellipse cx="64.847" cy="146.65" fill="url(#h)" rx="4.353" ry="4.385"/><path fill-opacity=".54" d="M470.73047 443.00586a69.873011 70.392785 0 0 0-54.44922 26.37695 91.614421 92.295926 0 0 0-23.12305 9.34961 79.797067 79.20785 69.471429 0 0-51.15625 1.29297 79.797067 79.20785 69.471429 0 0-46.19336 102.50586 79.797067 79.20785 69.471429 0 0 88.49024 50.67773 91.614421 92.295926 0 0 0 10.00195 6.5293 69.873011 70.392785 0 0 0 64.3086 43.04688 69.873011 70.392785 0 0 0 69.87304-70.39258 69.873011 70.392785 0 0 0-3.83203-22.73047 91.614421 92.295926 0 0 0 5.37109-30.80664 91.614421 92.295926 0 0 0-.3789-7.75391 69.873011 70.392785 0 0 0 10.96094-37.70312 69.873011 70.392785 0 0 0-69.87305-70.39258z" filter="url(#i)" transform="translate(-1.3276652 1.9242731) scale(.26458)"/><ellipse cx="121.34" cy="162.029" fill="#04f0ff" stroke="#000" stroke-linecap="round" stroke-linejoin="round" stroke-width=".529" rx="18.487" ry="18.625"/><ellipse cx="-121.172" cy="-172.824" fill="url(#j)" rx="12.451" ry="6.976" transform="scale(-1)"/><ellipse cx="124.548" cy="135.836" fill="#04f0ff" stroke="#000" stroke-linecap="round" stroke-linejoin="round" stroke-width=".529" rx="18.487" ry="18.625"/><ellipse cx="115.995" cy="147.864" fill="#0915e8" stroke="#000" stroke-linecap="round" stroke-linejoin="round" stroke-width=".529" rx="24.24" ry="24.42"/><ellipse cx="-121.235" cy="-174.325" fill="url(#k)" rx="2.662" ry="2.681" transform="scale(-1)"/><ellipse cx="-115.472" cy="-161.351" fill="url(#l)" rx="17.652" ry="9.891" transform="scale(-1)"/><path fill="#04f0ff" stroke="#000" stroke-linecap="round" stroke-linejoin="round" stroke-width=".529" d="M90.488183 127.00683a21.112974 20.957077 69.471429 0 0-12.222263 27.12142 21.112974 20.957077 69.471429 0 0 27.02992 12.42332 21.112974 20.957077 69.471429 0 0 3.92532-1.99467 50.102148 49.732198 69.471429 0 0 2.32746-33.69285 21.112974 20.957077 69.471429 0 0-21.060437-3.85722z"/><ellipse cx="-114.938" cy="-163.444" fill="url(#m)" rx="2.884" ry="2.905" transform="scale(-1)"/><ellipse cx="94.097" cy="159.859" fill="url(#n)" opacity=".97" rx="6.374" ry="6.421"/><ellipse cx="53.883" cy="199.577" fill="url(#o)" rx="3.11" ry="3.133"/></g></svg>