<svg xmlns="http://www.w3.org/2000/svg" xml:space="preserve" id="Layer_1" width="64" height="64" x="0" y="0" style="enable-background:new 0 0 64 64" version="1.1"><style>.st1{fill:#25aae1}</style><path d="M43 19.4c-1.5-1.5-3.1-2.6-5-3.3-2-.8-3.9-1.2-6-1.2s-4.2.4-6 1.2c-1.8.7-3.5 1.9-5 3.3-1.5 1.5-2.6 3.3-3.5 5.4-.8 2.1-1.2 4.5-1.2 7.2s.4 5.2 1.2 7.3c.9 2.1 2 3.9 3.5 5.4 1.5 1.5 3.2 2.5 5 3.3 1.9.8 3.9 1.2 6 1.2 2 0 4-.4 6-1.2 1.9-.8 3.6-1.9 5-3.3 1.5-1.5 2.7-3.3 3.5-5.4.9-2.1 1.3-4.6 1.3-7.3s-.4-5.1-1.3-7.2c-.8-2.2-1.9-4-3.5-5.4zM32 40.3c-4.6 0-8.3-3.7-8.3-8.3 0-4.6 3.7-8.3 8.3-8.3 4.6 0 8.3 3.7 8.3 8.3.1 4.6-3.7 8.3-8.3 8.3z" style="fill:none"/><path d="M54.9 9c-2.8-2.8-6.2-5-10-6.6C40.9.8 36.7 0 32 0s-9 .8-12.8 2.4C15.4 4 12 6.2 9.2 9s-5 6.2-6.6 10.1C.9 23.1.1 27.3.1 32c0 4.7.8 9 2.4 12.9 1.6 3.9 3.8 7.3 6.6 10.1s6.2 5 10 6.6c4 1.6 8.3 2.4 12.9 2.4s8.9-.8 12.8-2.4c3.9-1.6 7.2-3.8 10-6.6s5-6.2 6.6-10.1C63 41 63.7 36.7 63.7 32c0-4.7-.7-8.9-2.3-12.8-1.5-4-3.7-7.3-6.5-10.2zm-8.4 30.2c-.8 2.1-2 3.9-3.5 5.4-1.5 1.5-3.1 2.5-5 3.3-2 .8-3.9 1.2-6 1.2s-4.2-.4-6-1.2c-1.8-.8-3.5-1.9-5-3.3-1.5-1.5-2.6-3.3-3.5-5.4-.8-2.1-1.2-4.6-1.2-7.3s.4-5.1 1.2-7.2c.9-2.1 2-3.9 3.5-5.4 1.5-1.5 3.2-2.6 5-3.3 1.9-.8 3.9-1.2 6-1.2 2 0 4 .4 6 1.2 1.9.7 3.6 1.9 5 3.3 1.5 1.5 2.7 3.3 3.5 5.4.9 2.1 1.3 4.5 1.3 7.2s-.4 5.2-1.3 7.3z" class="st1"/><path d="M32 23.7c-4.6 0-8.3 3.7-8.3 8.3 0 4.6 3.7 8.3 8.3 8.3 4.6 0 8.3-3.7 8.3-8.3.1-4.6-3.7-8.3-8.3-8.3z" class="st1"/></svg>