<svg xmlns="http://www.w3.org/2000/svg" xml:space="preserve" id="Layer_1" x="0" y="0" style="enable-background:new 0 0 50 50" version="1.1" viewBox="0 0 50 50"><style>.st0{fill:#009d9d}.st2{fill:#0f5a59}</style><path d="M47 21.9C47 10.9 37.2 2 25 2S3 10.9 3 21.9s9.8 19.9 22 19.9c1.3 0 2.5-.1 3.7-.3V48s16.7-5.6 18.1-23.8c.1-.7.2-1.5.2-2.3z" class="st0"/><path d="M14.5 17.1s-.2-10.9 10.1-7.2c0 0 6.6-3.8 9.7 2.1.6 1.1.9 2.3 1 3.6 0 .6.1 1.4.1 1.8 0 0 3.3 2.1 4.1 3.3.8 1.1 1.1 2.1.7 3.6-.3.8-1.8 4.1-5 6.8-4.4 3.7-10.4 4.6-15.7 2.6-3.3-1.2-7.1-3.6-9.2-8.3 0 0-1.8-3.1 1.3-5.7s2.9-2.6 2.9-2.6z" style="fill:#fff"/><path d="M25.5 32.6c-1.5 0-3-.3-4.5-.8-3.2-1.2-7.5-3.4-9.2-7.6-.5-1.1-.4-3.7 3-5.4.8-.4 1.3-.7 1.6-.9-.1-1.5 0-4.3 1.6-6.1.9-1 2.1-1.5 3.5-1.5.3 0 .7 0 1 .1.9.1 1.8.9 2.5 1.5.1-.1.2-.3.3-.3.2-.2.3-.4.5-.5.8-.7 1.9-1.1 3-1.1 1.9 0 4.4 1.2 5 4.5.1.7.1 1.4.2 2V18c1 .6 2.6 1.6 3.2 2.2 1.6 1.4 1.7 2.3 1.1 3.9-.2.5-1.9 4.7-7.3 7.3-1.6.7-3.6 1.2-5.5 1.2z" class="st2"/><path d="M18.1 18.8s-1.1-7.7 4.3-6.9c.9.1 2.4 1.9 2.8 1.9s1.4-1.3 1.8-1.5c1.5-1.3 4.9-1 5.5 2.5.2.9.1 1.8.2 2.7V19s3 1.8 3.7 2.4c1.1 1 1.1 1.2.7 2.3-.3.9-2 4.3-6.5 6.5-2.8 1.3-6 1.5-9 .4s-6.8-3.1-8.3-6.7c0 0-.8-2 2.3-3.6 2.4-1.3 2.5-1.5 2.5-1.5z" style="fill:#4fb580"/><path d="M30.4 30.3c-.1 0 .7-.7.8-.8 1.5-1.5 3.2-4.2 3.5-5 .3-.8.7-1.1.3-2.1-.3-.8-1.7-2.7-2.2-3.3-.1-.1.3.2.4.2.7.2 2.3 1 3.9 2.8 1.1 1.3-1.5 4.4-3.3 6-.7.6-1.5 1.2-2.2 1.5-.5.3-1 .6-1.2.7z" class="st0"/><path d="m25.5 25.6-1.4-.3s0-.8.1-.7.2.1.2.1 5.4 1.1 7.2-2.3c0 0-.8-.7-.8-.2v-.8s2.2-.2 3.1 2.1c0 0-.8 0-.5.4.1.1-.9-1.1-.9-1.1s0 4.4-1.3 5.9-2.8.8-3.3.2l-2.4-3.3z" class="st2"/><path d="M29.8 26.9s0-1.1 1.5-1.1c0 0 0 2.4-1.6 2.9s-1.1-1-1.1-1 .1-.6 1.2-.8z" style="fill:#f3a25e"/><path d="M27 19.6h2.7v-2.9c0-.7-.6-1.3-1.3-1.3-.7 0-1.3.6-1.3 1.3v2.9zm-5.8 0h2.4V17c0-.7-.5-1.2-1.2-1.2s-1.2.5-1.2 1.2v2.6z" class="st2"/></svg>