<?xml version="1.0" encoding="utf-8"?>
<!-- Generator: Adobe Illustrator 25.4.1, SVG Export Plug-In . SVG Version: 6.00 Build 0)  -->
<svg version="1.1" id="Layer_1" xmlns="http://www.w3.org/2000/svg" xmlns:xlink="http://www.w3.org/1999/xlink" x="0px" y="0px"
	 viewBox="0 0 50 50" style="enable-background:new 0 0 50 50;" xml:space="preserve">
<style type="text/css">
	.st0{fill:#009D9D;}
	.st1{fill:#FFFFFF;}
	.st2{fill:#0F5A59;}
	.st3{fill:#4FB580;}
	.st4{fill:#F3A25E;}
</style>
<g>
	<path class="st0" d="M47,21.9C47,10.9,37.2,2,25,2S3,10.9,3,21.9s9.8,19.9,22,19.9c1.3,0,2.5-0.1,3.7-0.3V48
		c0,0,16.7-5.6,18.1-23.8C46.9,23.5,47,22.7,47,21.9z"/>
	<g>
		<path class="st1" d="M14.5,17.1c0,0-0.2-10.9,10.1-7.2c0,0,6.6-3.8,9.7,2.1c0.6,1.1,0.9,2.3,1,3.6c0,0.6,0.1,1.4,0.1,1.8
			c0,0,3.3,2.1,4.1,3.3c0.8,1.1,1.1,2.1,0.7,3.6c-0.3,0.8-1.8,4.1-5,6.8c-4.4,3.7-10.4,4.6-15.7,2.6c-3.3-1.2-7.1-3.6-9.2-8.3
			c0,0-1.8-3.1,1.3-5.7S14.5,17.1,14.5,17.1z"/>
		<path class="st2" d="M25.5,32.6c-1.5,0-3-0.3-4.5-0.8c-3.2-1.2-7.5-3.4-9.2-7.6c-0.5-1.1-0.4-3.7,3-5.4c0.8-0.4,1.3-0.7,1.6-0.9
			c-0.1-1.5,0-4.3,1.6-6.1c0.9-1,2.1-1.5,3.5-1.5c0.3,0,0.7,0,1,0.1c0.9,0.1,1.8,0.9,2.5,1.5c0,0,0,0,0,0c0.1-0.1,0.2-0.3,0.3-0.3
			c0.2-0.2,0.3-0.4,0.5-0.5c0.8-0.7,1.9-1.1,3-1.1c1.9,0,4.4,1.2,5,4.5c0.1,0.7,0.1,1.4,0.2,2c0,0.3,0,0.6,0,0.8c0,0.2,0,0.5,0,0.7
			c1,0.6,2.6,1.6,3.2,2.2c1.6,1.4,1.7,2.3,1.1,3.9c-0.2,0.5-1.9,4.7-7.3,7.3C29.4,32.1,27.4,32.6,25.5,32.6z"/>
		<g>
			<path class="st3" d="M18.1,18.8c0,0-1.1-7.7,4.3-6.9c0.9,0.1,2.4,1.9,2.8,1.9s1.4-1.3,1.8-1.5c1.5-1.3,4.9-1,5.5,2.5
				c0.2,0.9,0.1,1.8,0.2,2.7c0,0.5,0,1.1,0,1.5c0,0,3,1.8,3.7,2.4c1.1,1,1.1,1.2,0.7,2.3c-0.3,0.9-2,4.3-6.5,6.5
				c-2.8,1.3-6,1.5-9,0.4c-3-1.1-6.8-3.1-8.3-6.7c0,0-0.8-2,2.3-3.6C18,19,18.1,18.8,18.1,18.8z"/>
			<path class="st0" d="M30.4,30.3c-0.1,0,0.7-0.7,0.8-0.8c1.5-1.5,3.2-4.2,3.5-5c0.3-0.8,0.7-1.1,0.3-2.1c-0.3-0.8-1.7-2.7-2.2-3.3
				c-0.1-0.1,0.3,0.2,0.4,0.2c0.7,0.2,2.3,1,3.9,2.8c1.1,1.3-1.5,4.4-3.3,6c-0.7,0.6-1.5,1.2-2.2,1.5C31.1,29.9,30.6,30.2,30.4,30.3
				z"/>
			<path class="st2" d="M25.5,25.6l-1.4-0.3c0,0,0-0.8,0.1-0.7s0.2,0.1,0.2,0.1s5.4,1.1,7.2-2.3c0,0-0.8-0.7-0.8-0.2
				c0,0,0-0.8,0-0.8s2.2-0.2,3.1,2.1c0,0-0.8,0-0.5,0.4c0.1,0.1-0.9-1.1-0.9-1.1s0,4.4-1.3,5.9c-1.3,1.5-2.8,0.8-3.3,0.2L25.5,25.6z
				"/>
			<path class="st4" d="M29.8,26.9c0,0,0-1.1,1.5-1.1c0,0,0,2.4-1.6,2.9c-1.6,0.5-1.1-1-1.1-1S28.7,27.1,29.8,26.9z"/>
			<path class="st2" d="M27,19.6h2.7v-2.9c0-0.7-0.6-1.3-1.3-1.3h0c-0.7,0-1.3,0.6-1.3,1.3V19.6z"/>
			<path class="st2" d="M21.2,19.6h2.4V17c0-0.7-0.5-1.2-1.2-1.2h0c-0.7,0-1.2,0.5-1.2,1.2V19.6z"/>
		</g>
	</g>
</g>
</svg>
