<?xml version="1.0" encoding="utf-8"?>
<!-- Generator: Adobe Illustrator 24.0.0, SVG Export Plug-In . SVG Version: 6.00 Build 0)  -->
<svg version="1.1" id="Layer_1" xmlns="http://www.w3.org/2000/svg" xmlns:xlink="http://www.w3.org/1999/xlink" x="0px" y="0px"
	 viewBox="0 0 64 64" width="64" height="64" style="enable-background:new 0 0 64 64;" xml:space="preserve">
<style type="text/css">
	.st0{fill:none;}
	.st1{fill:#25AAE1;}
</style>
<g>
	<path class="st0" d="M43,19.4c-1.5-1.5-3.1-2.6-5-3.3c-2-0.8-3.9-1.2-6-1.2c-2.1,0-4.2,0.4-6,1.2c-1.8,0.7-3.5,1.9-5,3.3
		c-1.5,1.5-2.6,3.3-3.5,5.4c-0.8,2.1-1.2,4.5-1.2,7.2s0.4,5.2,1.2,7.3c0.9,2.1,2,3.9,3.5,5.4c1.5,1.5,3.2,2.5,5,3.3
		c1.9,0.8,3.9,1.2,6,1.2c2,0,4-0.4,6-1.2c1.9-0.8,3.6-1.9,5-3.3c1.5-1.5,2.7-3.3,3.5-5.4c0.9-2.1,1.3-4.6,1.3-7.3s-0.4-5.1-1.3-7.2
		C45.7,22.6,44.6,20.8,43,19.4z M32,40.3c-4.6,0-8.3-3.7-8.3-8.3c0-4.6,3.7-8.3,8.3-8.3c4.6,0,8.3,3.7,8.3,8.3
		C40.4,36.6,36.6,40.3,32,40.3z"/>
	<path class="st1" d="M54.9,9c-2.8-2.8-6.2-5-10-6.6C40.9,0.8,36.7,0,32,0s-9,0.8-12.8,2.4C15.4,4,12,6.2,9.2,9
		c-2.8,2.8-5,6.2-6.6,10.1C0.9,23.1,0.1,27.3,0.1,32c0,4.7,0.8,9,2.4,12.9c1.6,3.9,3.8,7.3,6.6,10.1c2.8,2.8,6.2,5,10,6.6
		C23.1,63.2,27.4,64,32,64s8.9-0.8,12.8-2.4c3.9-1.6,7.2-3.8,10-6.6c2.8-2.8,5-6.2,6.6-10.1c1.6-3.9,2.3-8.2,2.3-12.9
		c0-4.7-0.7-8.9-2.3-12.8C59.9,15.2,57.7,11.9,54.9,9z M46.5,39.2c-0.8,2.1-2,3.9-3.5,5.4c-1.5,1.5-3.1,2.5-5,3.3
		c-2,0.8-3.9,1.2-6,1.2c-2.1,0-4.2-0.4-6-1.2c-1.8-0.8-3.5-1.9-5-3.3c-1.5-1.5-2.6-3.3-3.5-5.4c-0.8-2.1-1.2-4.6-1.2-7.3
		s0.4-5.1,1.2-7.2c0.9-2.1,2-3.9,3.5-5.4c1.5-1.5,3.2-2.6,5-3.3c1.9-0.8,3.9-1.2,6-1.2c2,0,4,0.4,6,1.2c1.9,0.7,3.6,1.9,5,3.3
		c1.5,1.5,2.7,3.3,3.5,5.4c0.9,2.1,1.3,4.5,1.3,7.2S47.4,37.1,46.5,39.2z"/>
	<path class="st1" d="M32,23.7c-4.6,0-8.3,3.7-8.3,8.3c0,4.6,3.7,8.3,8.3,8.3c4.6,0,8.3-3.7,8.3-8.3C40.4,27.4,36.6,23.7,32,23.7z"
		/>
</g>
</svg>
