<svg xmlns="http://www.w3.org/2000/svg" width="64" height="64" fill="none" viewBox="0 0 64 64"><path fill="#1F9999" d="M31.9632 63.9265C14.3195 63.9265 0 49.6069 0 31.9632C0 14.3195 14.3195 0 31.9632 0H55.9357C60.3466 0 63.9265 3.57988 63.9265 7.99081V31.9632C63.9265 49.6069 49.6069 63.9265 31.9632 63.9265Z"/><path fill="#fff" d="M31.9631 48.6202C41.1624 48.6202 48.6199 41.1626 48.6199 31.9633C48.6199 22.7639 41.1624 15.3064 31.9631 15.3064C22.7637 15.3064 15.3062 22.7639 15.3062 31.9633C15.3062 41.1626 22.7637 48.6202 31.9631 48.6202Z"/><path stroke="#1F9999" stroke-linecap="round" stroke-linejoin="round" stroke-width="4" d="M10.2534 32.9473H24.3649L29.4876 39.771L34.2544 26.0508L39.5972 32.9473H41.3672H54.792"/></svg>