<?xml version="1.0" encoding="utf-8"?>
<!-- Generator: Adobe Illustrator 27.7.0, SVG Export Plug-In . SVG Version: 6.00 Build 0)  -->
<svg version="1.1" id="Layer_1" xmlns="http://www.w3.org/2000/svg" xmlns:xlink="http://www.w3.org/1999/xlink" x="0px" y="0px"
	 viewBox="0 0 512 512" style="enable-background:new 0 0 512 512;" xml:space="preserve">
<style type="text/css">
	.st0{fill:#F7C130;}
</style>
<g id="layer1">
	<g>
		<path id="path3425_00000096030033241766835730000004334451114294678659_" class="st0" d="M69.3,509.7l-3.7-1.3
			c-4.4-1.5-8.5-3.1-12.6-5c-9-4-20.2-11.1-24.7-15.6C23,482.5,5.9,465.5,0,455.7c0,0,0.9-267.8,0.8-387.2
			C4.1,54,13.5,41.4,20.6,31.4c12.5-12.2,32.2-28,40.3-30c0,0,264.4-0.3,382.9-1.2c17.4,6.9,32.1,18.1,43.3,28.5
			c10.1,8.3,15,20.5,20.3,31.1c1.6,131.9,5.8,264.6,4.1,370.5c-7,38.8-28.5,62.3-60.9,76.2c-1.9,0.5-5.7,1.4-8.4,2
			C314,513.7,180.7,511.7,69.3,509.7z M433,487.8c15.6-1.6,26.7-9.9,36.9-18.1c7.5-7.4,18-17.9,20-26.4
			c5.8-128.7-0.1-256.7-0.7-374.3c-2-5.5-6.4-13-11.3-19.2c-11.7-15.4-30.9-23-45.8-28.9c-34.3-2.4-55.7-2.1-84-2.5
			c0,45.2,0.2,90.4-0.2,135.6c-52.7,0.8-105.6,0.9-163.6,1.6c-0.1,34.9-0.1,61.4-0.1,99c54.1,0.4,108.3,0.9,162.3,2.1
			c1.7,40.8,2.5,80.9,0.6,121.2c-57.3,1.1-102,1.6-162.9,2.6c0,38.6-0.3,68.9,0.3,109.7C271.4,488.6,357.4,491.2,433,487.8z"/>
	</g>
</g>
</svg>
