<svg xmlns="http://www.w3.org/2000/svg" xmlns:xlink="http://www.w3.org/1999/xlink" version="1.1" id="Layer_1" x="0px" y="0px" style="enable-background:new 0 0 512 512;" xml:space="preserve" viewBox="32.55 -0.26 446.82 512.21">
<path d="M96,484.8c1.8,14.8,17.3,24.8,8.1,27.1c-9.2,2.3-49.6-73.3-58.9-105.6s-14.4-68.7-12.1-89.5c2.3-20.8,121.8-53.1,121.8-61.8  s-38.7-0.6-40.4-7.5c-1.7-6.9,29.2-2.8,37.5-13.9c13-17.3,29.4-14.4,39.8-23.7c10.4-9.2,23.1-44.5,25.4-59.5s-23.1-32.3-30-43.9  c-6.9-11.5,15-19.6,68.1-41.6s221.7-70.4,224-64.7s-55.4,30-95.8,45s-106.2,43.9-106.2,52s3.5,14.4,1.2,32.9s-2.6,27.1-6.9,39.3  c-2.9,8.1-5.8,27.1,0,44.5c4.6,13.9,19.6,24.2,26.6,26.6c5.8,0.4,21.7,0.9,39.3,0c21.9-1.2,53.1,1.2,53.1,6.9s-47.3,2.3-47.3,10.4  s48.5-1.2,47.3,6.9c-1.2,8.1-40.4,4.6-61.2,4.6c-16.6,0-41.2-0.8-52-4.6L275,273c-3.8,0-11.9,2.3-20.2,2.3c-10.4,0-11,3.5-30,3.5  s-13.3-1.2-30.6-2.3s-82,48.5-93.5,64.7c-11.5,16.2-4.6,55.4-4.6,73.3C96,430.5,93.7,466.3,96,484.8z"/>
</svg>