<?xml version="1.0" encoding="utf-8"?>
<!-- Generator: Adobe Illustrator 27.7.0, SVG Export Plug-In . SVG Version: 6.00 Build 0)  -->
<svg version="1.1" id="Layer_1" xmlns="http://www.w3.org/2000/svg" xmlns:xlink="http://www.w3.org/1999/xlink" x="0px" y="0px"
	 viewBox="0 0 512 512" style="enable-background:new 0 0 512 512;" xml:space="preserve">
<style type="text/css">
	.st0{fill:#1E293B;}
	.st1{fill:#F58320;}
</style>
<g id="fa_horizontal_text_purple_orange">
	<g id="logo-gray-copy" transform="translate(6, 4)">
		<path id="Path_00000177478181713106339060000013741504374515678640_" class="st0" d="M142,448.6c-18-10.3-34.4-23.2-48.7-38.1
			c-4.2,5.2-9.2,9.6-15,13c-3.2,1.8-6.5,3.3-10,4.4c77.5,84.6,203.1,104.7,303.1,48.5c4.7-2.7,7.6-7.8,7.6-13.2
			c0-5.5-2.9-10.5-7.6-13.2l0,0c-4.6-2.8-10.3-2.8-15-0.2C289.8,487.3,208.3,486.9,142,448.6z"/>
		<path id="Path_00000075842569447927450120000011328622329074220424_" class="st0" d="M141.9,74.3c18-10.4,37.3-18.1,57.5-22.9
			c-2.5-6.4-3.8-13.1-3.8-20c0-3.7,0.4-7.4,1.1-11C84.8,45.3,4.7,144,3.4,258.8c0,5.4,2.9,10.5,7.7,13.2s10.5,2.7,15.3,0l0,0
			c4.6-2.6,7.5-7.5,7.6-12.8C34.8,182.8,75.8,112.5,141.9,74.3z"/>
		<path id="Path_00000142169838057706439360000005261435645611144873_" class="st0" d="M466.1,261.4c0,20.7-3,41.4-8.9,61.3
			c6.7,1,13.2,3.2,19.1,6.6c3.2,1.8,6.2,3.9,8.9,6.2C519.6,226.1,474.1,107.4,375.3,49c-4.7-2.5-10.4-2.3-15,0.4
			c-4.6,2.8-7.4,7.7-7.4,13l0,0c-0.1,5.3,2.7,10.2,7.2,13C425.9,114.4,466.1,185.1,466.1,261.4z"/>
		<path id="Shape_00000109709008054410056220000002381151595044389796_" class="st0" d="M250.1,158.7c41.6,0,79.1,25,95,63.4
			s7.1,82.6-22.2,112s-73.6,38.2-112,22.3c-38.4-15.9-63.4-53.4-63.4-94.9C147.4,204.7,193.3,158.8,250.1,158.7 M250.1,128.2
			c-73.6,0-133.3,59.7-133.3,133.3s59.7,133.3,133.3,133.3s133.3-59.7,133.3-133.3c0-35.4-14-69.3-39-94.3
			C319.3,142.2,285.4,128.2,250.1,128.2z"/>
		<circle id="Oval" class="st1" cx="250" cy="31.6" r="35.6"/>
		
			<ellipse id="Oval_00000084507688397612035760000012986102322887300757_" transform="matrix(0.9985 -5.530038e-02 5.530038e-02 0.9985 -20.7342 3.3917)" class="st1" cx="50.9" cy="376.3" rx="35.6" ry="35.6"/>
		<circle id="Oval_00000152224844234704349880000012902706124281211311_" class="st1" cx="449.1" cy="376.3" r="35.6"/>
		<path id="Path_00000142162060577844282360000006640727944932564364_" class="st1" d="M279.5,237.1c0-14.3-10.3-26.6-24.4-29.1
			c-14.1-2.5-28,5.6-32.8,19.1c-4.8,13.5,0.8,28.5,13.3,35.6l-9.3,47.1c-0.3,1.5,0.1,3,1.1,4.2c1,1.2,2.4,1.8,3.9,1.8h37.8
			c1.5,0,3-0.6,3.9-1.8c1-1.2,1.4-2.7,1.1-4.2l-9.3-47.1C273.9,257.5,279.6,247.7,279.5,237.1L279.5,237.1z"/>
	</g>
</g>
</svg>
