<svg xmlns:sodipodi="http://sodipodi.sourceforge.net/DTD/sodipodi-0.dtd" xmlns:svg="http://www.w3.org/2000/svg" xmlns:inkscape="http://www.inkscape.org/namespaces/inkscape" xmlns:dc="http://purl.org/dc/elements/1.1/" xmlns:rdf="http://www.w3.org/1999/02/22-rdf-syntax-ns#" xmlns:cc="http://creativecommons.org/ns#" xmlns="http://www.w3.org/2000/svg" xmlns:xlink="http://www.w3.org/1999/xlink" version="1.1" id="Calque_1" inkscape:export-filename="/home/lx/Deuxfleurs/garage/doc/logo/garage.png" inkscape:export-xdpi="96" inkscape:export-ydpi="96" inkscape:version="1.0.2 (e86c870879, 2021-01-15)" sodipodi:docname="garage.svg" x="0px" y="0px" style="enable-background:new 0 0 512 512;" xml:space="preserve" viewBox="-0.25 81.12 512.53 392.3">
<style type="text/css">
	.st0{fill:#FFD952;}
	.st1{fill:#49C8FA;}
	.st2{fill:#45C8FF;}
	.st3{fill:#FF9329;}
	.st4{fill:#4E4E4E;}
</style>
<sodipodi:namedview bordercolor="#666666" borderopacity="1" gridtolerance="10" guidetolerance="10" id="namedview31" inkscape:current-layer="Calque_1" inkscape:cx="90.853672" inkscape:cy="123.63257" inkscape:document-rotation="0" inkscape:guide-bbox="true" inkscape:pageopacity="1" inkscape:pageshadow="2" inkscape:snap-global="false" inkscape:window-height="1080" inkscape:window-maximized="0" inkscape:window-width="1920" inkscape:window-x="0" inkscape:window-y="0" inkscape:zoom="2.1842656" objecttolerance="10" pagecolor="#ffffff" showgrid="false" showguides="false" units="px" width="250mm">
	<sodipodi:guide id="guide1016" orientation="0,-1" position="102.90662,161.07694"/>
	<sodipodi:guide id="guide1018" orientation="0,-1" position="122.45269,170.65683"/>
	<sodipodi:guide id="guide1020" orientation="0,-1" position="128.86504,180.08221"/>
</sodipodi:namedview>
<g id="g1663" transform="matrix(1.7099534,0,0,1.7099534,-88.607712,-87.994557)">
	<path id="path6" d="M242,189.5c-2.8,0.2-5.7-0.1-8.4-0.9l-104.9-28.3c-2.8-0.8-5.5-2-7.9-3.7L242,189.5z"/>
	<path id="path24-3-6" class="st0" d="M201.2,98.9c-4.5,0-8.9,1-13.1,2.8l-133.3,59c-2.5,1-3.6,3.9-2.6,6.3c0,0,0,0.1,0.1,0.1   c0,0.2,0.1,0.4,0.2,0.5L73.8,210h18.6l-2.6-14.7c-0.2-1.2-2.1-9.6-4-15.7l62.4,19.5c0.8,3.9,1.9,7.5,3.2,10.9h101.2   c1.1-3.4,2-7,2.6-10.9l62.3-19.4c-1.8,6.1-3.7,14.4-3.9,15.6l-2.6,14.7h18.6l21.2-41.9l0.2-0.4l0.2-0.5c0,0,0-0.1,0-0.1   c0.2-0.5,0.2-1,0.2-1.6c0.1-2.1-1.1-4-3-4.8l-133.3-59C210.6,99.8,205.9,98.9,201.2,98.9z"/>
	<path id="path24-3" class="st1" d="M201.2,126.8c-4.5,0-8.9,1-13.1,2.8l-133.3,59c-2.5,1-3.6,3.9-2.6,6.3c0,0,0,0.1,0.1,0.1   c0,0.2,0.1,0.4,0.2,0.5l11.6,22.9h24.7c-0.8-3.3-1.8-7.3-2.9-11.1l35.4,11.1h161l35.3-11c-1.1,3.7-2.1,7.7-2.9,11h24.7l11.4-22.5   l0.2-0.4l0.2-0.5c0,0,0-0.1,0-0.1c0.2-0.5,0.2-1,0.2-1.6c0.1-2.1-1.1-4-3-4.8l-133.3-59C210.6,127.7,205.9,126.8,201.2,126.8z"/>
	<path id="path24" class="st0" d="M351.2,221.8c0,0.5,0,1.1-0.2,1.6c0,0,0,0.1,0,0.1l-0.2,0.5l0,0l-0.2,0.4l-32.3,63.8   c-4.5,8.9-12.7,8.6-11.4-0.4l6.5-36.3c0.2-1.2,2.1-9.6,4-15.6l-62.3,19.4c-9.8,63.5-93.3,64.6-107,0l-62.4-19.5   c1.8,6.1,3.8,14.5,4,15.7l6.5,36.3c1.4,9-6.9,9.2-11.4,0.4l-32.5-64.2c-0.1-0.2-0.2-0.3-0.2-0.5c-1.1-2.4,0-5.3,2.4-6.4   c0,0,0.1,0,0.1-0.1l133.3-59c8.5-3.8,18.3-3.8,26.8,0l133.3,59C350.2,217.8,351.4,219.8,351.2,221.8z"/>
	<path id="path26" class="st2" d="M244.1,233l57.6-23.2c1.3-0.5,1.9-1.9,1.4-3.2c-0.2-0.6-0.7-1.1-1.4-1.4c-6.7-2.8-15-6-23.1-9.4   c-1.5-0.6-15.6,9.5-16.9,10.5L237,226.3C230.9,231.3,236.1,236.2,244.1,233L244.1,233z"/>
	
		<ellipse id="circle28" transform="matrix(0.7071 -0.7071 0.7071 0.7071 -121.5025 217.9411)" class="st2" cx="202.3" cy="255.6" rx="51.4" ry="51.4"/>
	<path id="path6-0" d="M242,189.5c-2.8,0.2-5.7-0.1-8.4-0.9l-104.9-28.3c-2.8-0.8-5.5-2-7.9-3.7L242,189.5z"/>
	<path id="path24-3-6-9" class="st3" d="M201.2,98.9c-4.5,0-8.9,1-13.1,2.8l-133.3,59c-2.5,1-3.6,3.9-2.6,6.3c0,0,0,0.1,0.1,0.1   c0,0.2,0.1,0.4,0.2,0.5L73.8,210h18.6l-2.6-14.7c-0.2-1.2-2.1-9.6-4-15.7l62.4,19.5c0.8,3.9,1.9,7.5,3.2,10.9h101.2   c1.1-3.4,2-7,2.6-10.9l62.3-19.4c-1.8,6.1-3.7,14.4-3.9,15.6l-2.6,14.7h18.6l21.2-41.9l0.2-0.4l0.2-0.5c0,0,0-0.1,0-0.1   c0.2-0.5,0.2-1,0.2-1.6c0.1-2.1-1.1-4-3-4.8l-133.3-59C210.6,99.8,205.9,98.9,201.2,98.9z"/>
	<path id="path24-3-2" class="st4" d="M201.2,126.8c-4.5,0-8.9,1-13.1,2.8l-133.3,59c-2.5,1-3.6,3.9-2.6,6.3c0,0,0,0.1,0.1,0.1   c0,0.2,0.1,0.4,0.2,0.5l11.6,22.9h24.7c-0.8-3.3-1.8-7.3-2.9-11.1l35.4,11.1h161l35.3-11c-1.1,3.7-2.1,7.7-2.9,11h24.7l11.4-22.5   l0.2-0.4l0.2-0.5c0,0,0-0.1,0-0.1c0.2-0.5,0.2-1,0.2-1.6c0.1-2.1-1.1-4-3-4.8l-133.3-59C210.6,127.7,205.9,126.8,201.2,126.8z"/>
	<path id="path24-0" class="st3" d="M351.2,221.8c0,0.5,0,1.1-0.2,1.6c0,0,0,0.1,0,0.1l-0.2,0.5l0,0l-0.2,0.4l-32.3,63.8   c-4.5,8.9-12.7,8.6-11.4-0.4l6.5-36.3c0.2-1.2,2.1-9.6,4-15.6l-62.3,19.4c-9.8,63.5-93.3,64.6-107,0l-62.4-19.5   c1.8,6.1,3.8,14.5,4,15.7l6.5,36.3c1.4,9-6.9,9.2-11.4,0.4l-32.5-64.2c-0.1-0.2-0.2-0.3-0.2-0.5c-1.1-2.4,0-5.3,2.4-6.4   c0,0,0.1,0,0.1-0.1l133.3-59c8.5-3.8,18.3-3.8,26.8,0l133.3,59C350.2,217.8,351.4,219.8,351.2,221.8z"/>
	<path id="path26-2" class="st4" d="M244.1,233l57.6-23.2c1.3-0.5,1.9-1.9,1.4-3.2c-0.2-0.6-0.7-1.1-1.4-1.4c-6.7-2.8-15-6-23.1-9.4   c-1.5-0.6-15.6,9.5-16.9,10.5L237,226.3C230.9,231.3,236.1,236.2,244.1,233L244.1,233z"/>
	
		<ellipse id="circle28-3" transform="matrix(0.7071 -0.7071 0.7071 0.7071 -121.5025 217.9411)" class="st4" cx="202.3" cy="255.6" rx="51.4" ry="51.4"/>
</g>
</svg>