<?xml version="1.0" encoding="utf-8"?>
<!-- Generator: Adobe Illustrator 27.7.0, SVG Export Plug-In . SVG Version: 6.00 Build 0)  -->
<svg version="1.1" id="Layer_1" xmlns="http://www.w3.org/2000/svg" xmlns:xlink="http://www.w3.org/1999/xlink" x="0px" y="0px"
	 viewBox="0 0 512 512" style="enable-background:new 0 0 512 512;" xml:space="preserve">
<style type="text/css">
	.st0{fill:#3CAD4B;}
	.st1{fill:#017400;}
	.st2{fill:#1E9025;}
</style>
<g id="Layer_2_00000178918838613446795550000005137651627480127106_">
	<g id="Layer_1-2">
		<path class="st0" d="M192.1,373c-64.5-35.3-88.2-116.3-52.8-180.8c12.3-22.4,30.8-40.9,53.3-53.1c6.9-3.8,14.2-6.9,21.7-9.4
			c54.1-17.1,91-67.1,91.6-123.8c-3.4-5.7-14.8-5.7-49.7-5.7c-51.8,0-52.5,1-50.3,18.4c6.1,46.3-53.7,71.3-82.4,34.2
			c-11.1-14.4-12-14.4-49.5,23.7c-35.5,35.9-36.1,35.8-21.5,47.1C69,136.3,75,158.6,67,177.9c-8.3,19.3-28.6,30.6-49.4,27.6
			C0,203.4,0,204,0,258c0.5,49.1,0,50.2,18.8,48.1c25.2-3,48.1,15,51.1,40.2c1.7,14.5-3.6,29-14.2,39
			c-17.1,16.1-16.2,14.9,16.2,48.4c31,32.1,36.1,38.4,46.5,29.9l75.5-75.5c3.8-3.4,4.1-9.3,0.7-13.1
			C193.9,374.1,193,373.5,192.1,373z"/>
		<path class="st1" d="M487.3,206.3c-25.5-0.2-46.1-21.1-45.8-46.7c0.1-13.2,5.9-25.7,15.8-34.4c16.3-14.3,16.1-13.5-20.3-49.9
			c-24.6-24.6-32.6-32.8-39.2-30.8L318,124.4c-3.7,3.7-3.7,9.6,0,13.3c0.6,0.6,1.3,1.2,2.1,1.6c64.5,35.4,88.1,116.3,52.7,180.8
			c-12.3,22.4-30.8,40.8-53.3,53c-9.3,4.9-19,8.7-29.2,11.4c-48.7,13-84,54.9-84,105.4v7.2c0.9,14.5,6.8,13.8,46,14.4
			c53.2,0.8,51.9,2,53.5-26.6c1.5-25.5,23.4-45,48.9-43.5c11.8,0.7,22.9,5.9,31,14.5c17.1,18,13.6,17.7,49.8-17.9
			c37.4-36.9,39.1-35.7,21-52.1c-18.9-17.2-20.3-46.4-3.1-65.3c9.6-10.5,23.5-16.1,37.7-15c21,1.5,20,0.3,20.7-46.1
			C512.6,207.1,513.4,206.5,487.3,206.3z"/>
		<path class="st2" d="M234.5,336.7h45.6c2.4,0,4.4-1.9,4.4-4.3c0,0,0,0,0-0.1v-44.6c0-2.4,1.9-4.3,4.3-4.3c0,0,0,0,0.1,0h44.7
			c2.4,0,4.4-2,4.4-4.4v-46c0-2.4-2-4.3-4.4-4.3h-44.4c-2.4,0-4.4-1.9-4.4-4.3c0,0,0-0.1,0-0.1v-44.7c0-2.4-1.9-4.4-4.3-4.4
			c0,0-0.1,0-0.1,0h-45.6c-2.4,0-4.4,1.9-4.4,4.3c0,0,0,0.1,0,0.1v44.7c0,2.4-1.9,4.4-4.3,4.4c0,0-0.1,0-0.1,0h-45
			c-2.4,0-4.4,1.9-4.4,4.3v46c0,2.4,2,4.4,4.4,4.4h44.7c2.4,0,4.4,1.9,4.4,4.3c0,0,0,0,0,0.1v44.8
			C230.2,335,232.2,336.8,234.5,336.7z"/>
	</g>
</g>
</svg>
