<?xml version="1.0" encoding="UTF-8"?>
<svg width="594.7" height="622.5" version="1.1" xmlns="http://www.w3.org/2000/svg" xmlns:xlink="http://www.w3.org/1999/xlink">
<title>Gentoo Linux logo (matte)</title>
 <defs>
  <linearGradient id="vlpa">
   <stop style="stop-color:#fff" offset="0"/>
   <stop style="stop-color:#fff" offset=".3421"/>
   <stop style="stop-color:#bebdf3" offset=".52"/>
   <stop style="stop-color:#8f82f9" offset=".7541"/>
   <stop style="stop-color:#9f99c7" offset=".8711"/>
   <stop style="stop-color:#524c76" offset="1"/>
  </linearGradient>
  <linearGradient id="vlpe" x1="464" x2="368.6" y1="697.4" y2="269.7" gradientTransform="matrix(1.237 0 0 1.237 -161.1 -377.3)" gradientUnits="userSpaceOnUse" xlink:href="#vlpa"/>
  <linearGradient id="vlpd" x1="783.9" x2="1100" y1="-313.5" y2="1341" gradientTransform="matrix(1.237 0 0 1.237 -1037 -1010)" gradientUnits="userSpaceOnUse" xlink:href="#vlpa"/>
  <radialGradient id="vlpc" cx="332.7" cy="590.6" r="218" gradientTransform="matrix(-.06604 4.19 -3.574 -.05627 2168 -1171)" gradientUnits="userSpaceOnUse" xlink:href="#vlpa"/>
  <radialGradient id="vlpb" cx="49.53" cy="320.1" r="31.95" gradientTransform="matrix(3.287 0 0 2.52 111.7 -642.7)" gradientUnits="userSpaceOnUse" xlink:href="#vlpa"/>
 </defs>
 <g transform="translate(-25.69 -25.52)">
  <path d="m25.76 521.9c0.06818-26.26 22.39-62.92 54.11-96.23 21.2-22.26 42.73-41.8 89.66-81.81-32.46-17.81-82.95-39.3-108.3-67.45-9.374-10.41-26.36-34.01-23.07-65.53 6.716-64.25 86.01-161.7 198.7-182.4 37.5-6.859 80.56-1.908 116 14.02 111.2 49.98 247.1 174.2 263.9 234.8 5.888 21.34 4.757 55.36-5.395 74.32-12.58 23.5-56.14 71.22-115.7 120.5-93.5 77.27-224.5 160.2-322.4 174.2-31.61 4.511-63.91-0.194-86.57-12.98-35.46-20.01-47.23-46.72-51.37-54.73-11-21.29-9.637-48.27-9.613-56.73zm263.1-295c1.207-14.89 59.59-0.06577 55.9 11.73-3.892 12.44-57.29 5.355-55.9-11.73z" style="fill-rule:evenodd;fill:url(#vlpd)"/>
  <path d="m201.1 319.3c-30.72 25.94-51.15 43.43-76.76 66.84-61.68 56.37-103.6 99.28-81.98 157.9 24.92 67.66 79.56 64.23 143.6 51.65 165.1-32.57 436.6-241.3 422.8-318.3-11.2-62.37-162.9-186.4-252.6-230.5-28.05-13.79-60.38-20.91-92.81-19.39-123.5 5.828-219.9 118.2-215 179.2 4.792 59.26 154.6 110.9 152.8 112.7zm-18.53-206.9c-37.15 41.34-13.4 121.3 48.21 164.9 72.1 51.01 188.8 60.24 212.1 20.91 43.34-73.37-3.98-151-74.61-185.6-69.8-34.2-162.5-26.01-185.7-0.245z" style="fill-rule:evenodd;fill:url(#vlpe)"/>
  <path d="m309.3 275.6c52.16 7.25 97.12-13.64 104.1-65.14 5.355-39.23-54.69-82.1-90.79-91.99-30.15-8.256-95.6 2.36-100 59.38-4.587 59.27 56.24 93.53 86.65 97.75zm-25.54-98.58c-34.28 53.1 49.77 69.43 62.64 59.75 55.48-41.75-47.54-83.14-62.64-59.75z" style="fill-rule:evenodd;fill:url(#vlpb)"/>
  <path d="m253.4 41.57c-60.63 6.39-72.25 14.19-127.2 55.75-18.41 13.93-52.29 47.82-60.98 88.03-3.307 15.31 0.6019 28.53 11.63 37.8 35.31 29.69 94.42 53.77 142.9 77.06 14.2 6.82 4.799 19.19-18.1 39.01-57.79 50.03-135.9 110.9-141.4 157.3-2.57 21.87 4.916 51.58 31.46 66.79 31.01 17.76 95.37 6.17 138.4-9.835 62.81-23.39 145.3-75 210.8-125.7 68.11-52.76 131.4-119.8 134.6-130.7 3.847-13.42 3.463-25.82-3.96-40.07-11.66-22.38-27.24-39.01-43.98-57.63-44.9-47.34-92.41-88.93-149.3-120.8-41.05-23.02-77.16-42.03-124.9-37zm89.07 106.1c43.81 21.18 88.79 76.81-0.3904 108.8-24.25 8.706-101.2-21.38-98.8-62.44 3.433-60.66 45.71-72.24 99.19-46.38z" style="fill-rule:evenodd;fill:url(#vlpc)"/>
 </g>
</svg>
