<svg xmlns="http://www.w3.org/2000/svg" xmlns:xlink="http://www.w3.org/1999/xlink" width="1024" height="321" version="1.0" viewBox="-2.7 -2.7 304.631 95.416"><defs><linearGradient id="a"><stop offset="0" style="stop-color:#ec7504;stop-opacity:1"/><stop offset=".223" style="stop-color:#ed7a04;stop-opacity:1"/><stop offset=".319" style="stop-color:#ee7c03;stop-opacity:1"/><stop offset=".76" style="stop-color:#f18d01;stop-opacity:1"/><stop offset="1" style="stop-color:#f29400;stop-opacity:1"/></linearGradient><linearGradient xlink:href="#a" id="b" x1="288.14" x2="288.14" y1="-.003" y2="90.015" gradientUnits="userSpaceOnUse"/></defs><path d="M0 34.902c0 21.192 14.092 33.824 32.33 33.824 13.813 0 22.377-4.84 23.964-5.63v-26.7s0-1.24-1.22-1.24h-16.91s-.41 0-.669.396c-.947 1.46-4.321 6.719-4.604 7.182-.332.596.141 1.221.693 1.221h11.87v13.027c-.508.181-4.443 1.983-11.333 1.983-14.204 0-22.495-10.069-22.495-24.961 0-15.274 10.059-24.248 22.676-24.248 7.94 0 13.257 3.056 15.112 4.277.732.405 1.113-.263 1.113-.263l4.121-6.436s.381-.615-.224-1.064C52.397 4.61 45.434 0 33.72 0 14.883 0 0 12.91 0 34.902M275.142 6.807c-1.558 0-1.558 1.357-1.558 1.357v11.89h-4.14c-1.553 0-1.553 1.352-1.553 1.352v5.943c0 1.367 1.552 1.367 1.552 1.367h4.141v21.289c0 6.089-.186 10.727 3.57 14.473 2.817 2.797 7.143 3.955 11.376 3.955 4.488 0 7.808-1.187 9.575-2.027 1.553-.664 1.045-1.9 1.045-1.9l-1.884-5.15s-.337-1.148-1.973-.586a16.132 16.132 0 0 1-4.722.712c-6.176 0-6.372-4.257-6.372-8.52V28.716h8.482c.8 0 1.562-1.367 1.562-1.367l3.15-5.943s.869-1.352-.645-1.352H284.2V8.164s0-1.357-1.562-1.357h-7.495m-137.76 15.957 2.882 5.4s.678 1.533 1.577 1.07c1.909-1.002 6.738-3.267 12.036-3.267 4.375 0 6.318.776 7.666 2.143 1.26 1.255 1.562 2.915 1.562 5.923v1.841h-1.757c-6.602 0-26.68.39-26.68 16.592 0 8.818 5.918 14.936 15.23 14.936 7.763 0 13.29-3.965 13.974-4.458v2.574c0 1.362 1.06 1.362 1.577 1.362h7.866V37.324c0-6.299-.127-10.957-3.813-14.658-3.389-3.374-7.647-5.034-14.756-5.034-10.488 0-16.592 4.463-17.363 5.132m6.875 29.214c0-2.041.59-3.604 1.855-4.854 2.715-2.715 8.042-3.696 14.77-3.696h2.222v12.539c-.79.38-4.95 3.193-10.478 3.193-4.575 0-8.37-2.334-8.37-7.182m76.124-8.497c0 14.19 8.384 24.932 23.457 24.932 8.916 0 15.19-3.56 17.143-4.78.547-.44.181-1.065.181-1.065s-3.15-4.912-3.496-5.459c-.366-.58-.86-.44-1.099-.322-2.265 1.123-6.567 2.964-11.84 2.964-10.04 0-13.697-7.505-13.697-13.315 0 0 31.265-.015 31.665 0 .581 0 .957-.464 1.001-.733.044-.82.152-1.943.152-3.12 0-15.376-7.593-24.834-20.694-24.834-13.603 0-22.773 10.645-22.773 25.732m22.969-17.45c8.579 0 10.254 8.168 10.254 12.319H231.03c.884-7.305 5.61-12.32 12.32-12.32m-61.729 6.104c0 8.77 7.388 11.938 12.715 14.204 6.499 2.759 10.351 4.033 10.351 7.788 0 3.35-2.856 5.908-8.369 5.908-5.102 0-9.843-2.221-11.904-3.335-.723-.351-1.089.283-1.089.283l-3.076 5.782s-.386.503.166 1.04c1.914 1.255 8.115 4.707 16.973 4.707 10.644 0 18.354-5.62 18.354-15.073 0-9.483-8.003-12.535-14.712-15.284-4.936-2.07-8.56-3.55-8.56-7.011 0-2.75 2.261-5.425 7.676-5.425 4.092 0 8.497 1.89 10.406 2.856.659.293 1.07-.342 1.07-.342l3.065-5.507s.352-.664-.273-1.06c-1.714-1.108-6.802-3.916-14.946-3.916-10.547 0-17.847 5.718-17.847 14.385m-97.68 11.455c0 12.505 7.485 23.657 21.288 23.657 7.105 0 11.334-2.964 12.13-3.36v3.262c0 4.737-.298 8.467-3.253 11.026-1.87 1.592-4.628 2.768-9.17 2.768-6.835 0-12.29-3.232-14.145-4.428-.747-.45-1.055.254-1.055.254s-3.56 5.542-3.77 5.878c-.253.494-.116.82.142 1.036 1.939 1.606 8.931 6.333 20.015 6.333 8.574 0 13.696-2.657 17.05-6.006 4.63-4.727 4.928-9.76 4.928-17.056V23.047c0-.366-.313-.606-.552-.733-2.276-1.093-9.649-4.555-18.374-4.555-15.078 0-25.235 11.333-25.235 25.83m10.943-.503c0-10.151 6.02-16.45 14.106-16.45 4.429 0 7.68 1.474 8.37 1.767V55.21c-.396.327-4.732 3.262-9.864 3.262-6.987 0-12.612-5.708-12.612-15.386M66.548 19.12s-1.226 0-1.226 1.226v45.327s0 1.206 1.226 1.206h8.281s1.22 0 1.22-1.206v-45.24s0-1.313-1.22-1.313h-8.281m9.502 46.553v.068-.068" style="fill:url(#b);fill-opacity:1;stroke:none"/></svg>