<svg xmlns="http://www.w3.org/2000/svg" xml:space="preserve" width="800" height="800" viewBox="0 0 70 70"><path d="M217.505 179.83a2.05 2.05 0 0 1 2.048 2.047 2.05 2.05 0 0 1-2.048 2.047 2.05 2.05 0 0 1-2.047-2.047 2.049 2.049 0 0 1 2.047-2.047m32.154-12.681a2.05 2.05 0 0 1-2.048-2.047 2.05 2.05 0 0 1 2.048-2.048 2.05 2.05 0 0 1 2.047 2.048 2.049 2.049 0 0 1-2.047 2.047m0-8.388a6.348 6.348 0 0 0-6.341 6.341c0 .681.113 1.359.336 2.018l-20.946 11.15a6.315 6.315 0 0 0-5.205-2.731 6.35 6.35 0 0 0-5.686 3.544l-18.818-9.921c-1.988-1.045-3.476-4.32-3.318-7.3.082-1.555.619-2.761 1.437-3.227.519-.295 1.144-.269 1.807.078l.126.066c4.985 2.627 21.304 11.222 21.991 11.541 1.06.49 1.65.689 3.456-.167l33.732-17.543c.494-.187 1.071-.66 1.071-1.38 0-.998-1.032-1.391-1.035-1.391-1.918-.92-4.867-2.301-7.744-3.647-6.148-2.879-13.116-6.141-16.176-7.744-2.642-1.383-4.768-.217-5.148.019l-.737.365c-13.772 6.811-32.203 15.939-33.253 16.577-1.879 1.143-3.043 3.421-3.193 6.249-.235 4.483 2.052 9.156 5.321 10.871l19.898 10.262a6.343 6.343 0 0 0 6.27 5.429 6.348 6.348 0 0 0 6.34-6.244l21.915-11.877a6.35 6.35 0 0 0 3.9 1.345c3.496 0 6.341-2.845 6.341-6.341s-2.845-6.342-6.341-6.342" style="fill:#3884ff" transform="translate(-186 -128)"/></svg>