<svg xmlns="http://www.w3.org/2000/svg" xmlns:xlink="http://www.w3.org/1999/xlink" version="1.1" id="main_outline" x="0px" y="0px" style="enable-background:new 0 0 512 512;" xml:space="preserve" viewBox="-0.05 98.32 512.15 315.48">
<style type="text/css">
	.st0{fill:#FFFFFF;}
	.st1{fill:#609926;}
</style>
<g>
	<path id="teabag" class="st0" d="M317.8,376l-103.4-49.7c-10.2-4.9-14.6-17.3-9.6-27.5l49.7-103.4c4.9-10.2,17.3-14.6,27.5-9.6   c14,6.8,22.1,10.6,22.1,10.6l-0.1-88.9l13.6-0.1l0.1,95.4c0,0,46.8,19.7,67.7,32.7c3,1.9,8.3,5.5,10.5,11.7   c1.7,5,1.6,10.7-0.8,15.7l-49.7,103.4C340.4,376.6,328,381,317.8,376z"/>
	<g>
		<g>
			<path class="st1" d="M502.6,103.7c-3.3-3.3-7.8-3.3-7.8-3.3s-95.5,5.4-144.9,6.5c-10.8,0.2-21.6,0.5-32.3,0.6     c0,31.8,0,63.7,0,95.5c-4.5-2.1-9-4.3-13.5-6.4c0-29.6-0.1-88.9-0.1-88.9c-23.6,0.3-72.7-1.8-72.7-1.8s-115.2-5.8-127.7-6.9     c-8-0.5-18.3-1.7-31.8,1.2c-7.1,1.5-27.3,6-43.8,21.9c-36.7,32.7-27.3,84.6-26.1,92.4c1.4,9.5,5.6,36,25.8,59     c37.3,45.7,117.6,44.6,117.6,44.6s9.9,23.5,24.9,45.2c20.4,27,41.3,48,61.7,50.5c51.3,0,153.9-0.1,153.9-0.1s9.8,0.1,23-8.4     c11.4-6.9,21.6-19.1,21.6-19.1s10.5-11.2,25.2-36.9c4.5-7.9,8.2-15.6,11.5-22.8c0,0,45-95.4,45-188.2     C511.1,110.3,504.2,105.3,502.6,103.7z M97.7,269.9c-21.1-6.9-30.1-15.2-30.1-15.2s-15.6-10.9-23.4-32.4c-13.4-36-1.1-58-1.1-58     s6.8-18.3,31.4-24.4c11.2-3,25.2-2.5,25.2-2.5s5.8,48.4,12.8,76.7c5.9,23.8,20.2,63.3,20.2,63.3S111.4,274.8,97.7,269.9z      M342.3,357.5c0,0-5,11.8-16,12.5c-4.7,0.3-8.4-1-8.4-1s-0.2-0.1-4.3-1.7l-92-44.8c0,0-8.9-4.6-10.4-12.7     c-1.8-6.6,2.2-14.7,2.2-14.7l44.2-91.1c0,0,3.9-7.9,9.9-10.6c0.5-0.2,1.9-0.8,3.7-1.2c6.6-1.7,14.7,2.3,14.7,2.3l90.2,43.7     c0,0,10.3,4.6,12.5,13.2c1.5,6-0.4,11.4-1.5,14C381.9,278,342.3,357.5,342.3,357.5z"/>
			<path class="st1" d="M261.6,291.2c-6.7,0.1-12.5,4.7-14.1,11.2c-1.5,6.5,1.6,13.3,7.4,16.3c6.3,3.3,14.3,1.5,18.5-4.4     c4.2-5.8,3.5-13.8-1.5-18.8l19.5-40c1.2,0.1,3,0.2,5-0.4c3.3-0.7,5.8-2.9,5.8-2.9c3.4,1.5,7,3.1,10.8,5c3.9,2,7.6,4,10.9,5.9     c0.7,0.4,1.5,0.9,2.3,1.5c1.3,1.1,2.8,2.5,3.8,4.5c1.5,4.5-1.5,12.1-1.5,12.1c-1.9,6.2-15,33.1-15,33.1     c-6.6-0.2-12.5,4.1-14.4,10.2c-2.1,6.6,0.9,14.1,7.2,17.3c6.4,3.3,14.2,1.4,18.3-4.3c4.1-5.5,3.7-13.3-0.9-18.4     c1.5-3,3-6,4.6-9.2c4.1-8.5,11-24.8,11-24.8c0.7-1.4,4.6-8.4,2.2-17.3c-2-9.3-10.3-13.6-10.3-13.6c-9.9-6.4-23.8-12.4-23.8-12.4     s0-3.3-0.9-5.8c-0.9-2.5-2.3-4.2-3.2-5.1c3.8-7.9,7.7-15.7,11.5-23.6c-3.3-1.6-6.6-3.3-9.9-5c-3.9,8-7.9,16-11.8,24     c-5.5-0.1-10.5,2.9-13.1,7.7c-2.8,5.1-2.2,11.5,1.5,16.1C274.9,263.9,268.2,277.6,261.6,291.2z"/>
		</g>
	</g>
</g>
</svg>