<svg width="90" height="90" xmlns="http://www.w3.org/2000/svg">
 <!-- Generator: Sketch 61.2 (89653) - https://sketch.com -->

 <title>logo-black</title>
 <desc>Created with Sketch.</desc>
 <g>
  <title>background</title>
  <rect fill="none" id="canvas_background" height="92" width="92" y="-1" x="-1"/>
 </g>
 <g>
  <title>Layer 1</title>
  <g id="Group" stroke="null">
   <circle id="Combined-Shape" fill="#C71D23" cx="44.85444" cy="44.85444" r="44.85443" stroke="null"/>
   <path d="m67.55855,39.87143l-25.47275,0c-1.2231,0.00058 -2.2147,0.99192 -2.21561,2.21502l-0.00145,5.53733c-0.00091,1.22333 0.99053,2.21528 2.21385,2.2156c0.0002,0 0.0004,0 0.0006,-0.00059l15.50776,-0.00013c1.22332,-0.00003 2.21503,0.99166 2.21504,2.21498c0,0.00001 0,0.00001 -0.00002,0.00002l0,0.55369l0,0l0,0.55377c0,3.66996 -2.9751,6.64506 -6.64507,6.64506l-21.04435,0c-1.22315,-0.00006 -2.21471,-0.9916 -2.21481,-2.21475l-0.00058,-21.04231c-0.00028,-3.66997 2.97473,-6.64515 6.6447,-6.64525c0.00006,0 0.00012,0 0.00018,0.00018l31.00632,0c1.22279,-0.00137 2.21427,-0.99223 2.2164,-2.21502l0.00343,-5.53733c0.00214,-1.22332 -0.98895,-2.21564 -2.21227,-2.21639c-0.00046,0 -0.00092,-0.00001 -0.00137,0.00137l-31.01058,0c-9.17492,0 -16.61267,7.43774 -16.61267,16.61266l0,31.00921c0,1.22332 0.9917,2.21502 2.21503,2.21502l32.67217,0c8.25725,0 14.95107,-6.69382 14.95107,-14.95107l0,-12.73605c0,-1.22332 -0.9917,-2.21502 -2.21502,-2.21502z" id="G" fill="#FFFFFF" stroke="null"/>
  </g>
 </g>
</svg>