<svg xmlns="http://www.w3.org/2000/svg" version="1.2" viewBox="0 0 1024 1024"><path fill="#FFF" fill-rule="evenodd" d="M1024 525c0 225.9-146.6 417.9-348.8 485.8-25.6 5.1-35.2-10.9-35.2-24.4 0-17.2.6-72.3.6-140.8 0-48-16-78.7-34.5-94.7 113.9-12.8 233.6-56.3 233.6-252.8 0-56.3-19.9-101.7-52.5-137.6 5.1-12.8 23-65.3-5.1-135.7 0 0-42.9-14-140.8 52.5-41-11.5-84.5-17.3-128-17.3s-87.1 5.8-128 17.3c-97.9-65.9-140.8-52.5-140.8-52.5-28.2 70.4-10.3 122.9-5.1 135.7-32.7 35.9-52.5 81.9-52.5 137.6 0 195.9 119 240 232.9 252.8-14.7 12.8-28.1 35.2-32.6 68.5-29.4 13.4-103 35.2-149.1-42.2-9.6-15.4-38.4-53.2-78.7-52.5-42.9.6-17.3 24.3.6 33.9 21.8 12.2 46.7 57.6 52.5 72.3 10.2 28.8 43.5 83.9 172.1 60.2 0 42.9.7 83.2.7 95.3 0 13.5-9.6 28.8-35.2 24.4C146.6 942.9 0 751.6 0 525 0 242.1 229.1 13 512 13s512 229.1 512 512z"/></svg>