<?xml version="1.0" encoding="utf-8"?>
<!-- Generator: Adobe Illustrator 27.7.0, SVG Export Plug-In . SVG Version: 6.00 Build 0)  -->
<svg version="1.1" id="Layer_1" xmlns="http://www.w3.org/2000/svg" xmlns:xlink="http://www.w3.org/1999/xlink" x="0px" y="0px"
	 viewBox="0 0 512 512" style="enable-background:new 0 0 512 512;" xml:space="preserve">
<style type="text/css">
	.st0{fill-rule:evenodd;clip-rule:evenodd;fill:#1B1F23;}
</style>
<g>
	<path class="st0" d="M256,6.3C114.6,6.3,0,120.9,0,262.3c0,113.3,73.3,209,175,242.9c12.8,2.2,17.6-5.4,17.6-12.2
		c0-6.1-0.3-26.2-0.3-47.7c-64.3,11.8-81-15.7-86.1-30.1c-2.9-7.4-15.4-30.1-26.2-36.2c-9-4.8-21.8-16.6-0.3-17
		c20.2-0.3,34.6,18.6,39.4,26.2c23,38.7,59.8,27.8,74.6,21.1c2.2-16.6,9-27.8,16.3-34.2c-57-6.4-116.5-28.5-116.5-126.4
		c0-27.8,9.9-50.9,26.2-68.8c-2.6-6.4-11.5-32.6,2.6-67.8c0,0,21.4-6.7,70.4,26.2c20.5-5.8,42.2-8.6,64-8.6c21.8,0,43.5,2.9,64,8.6
		c49-33.3,70.4-26.2,70.4-26.2c14.1,35.2,5.1,61.4,2.6,67.8c16.3,17.9,26.2,40.6,26.2,68.8c0,98.2-59.8,120-116.8,126.4
		c9.3,8,17.3,23.4,17.3,47.4c0,34.2-0.3,61.8-0.3,70.4c0,6.7,4.8,14.7,17.6,12.2C438.7,471.3,512,375.3,512,262.3
		C512,120.9,397.4,6.3,256,6.3z"/>
</g>
</svg>
