<?xml version="1.0" encoding="UTF-8"?>
<svg id="Layer_1" data-name="Layer 1" xmlns="http://www.w3.org/2000/svg" viewBox="0 0 125 120">
  <defs>
    <style>
      .cls-1 {
        fill: #faf7ef;
      }

      .cls-2 {
        fill: #a9cb38;
      }
    </style>
  </defs>
  <path class="cls-1" d="m77.3126659,7.8158838c.8335571.2568359,1.664978.5258789,2.5092773.7431641,3.6004639.9267578,6.6469116,2.7246094,9.0009766,5.640625.359375.4448242.7702026.8496094,1.168335,1.2617188.178833.1855469.3973389.3129883.6543579.2734375.1555176-.046875.2070923-.1591797.1779785-.2729492-.0563965-.2207031-.112915-.4506836-.222229-.6469727-2.8853149-5.1899414-7.3543091-7.6289062-13.2368164-7.5927734-.2037964.0009766-.5460815-.1425781-.5886841.1538086-.0411987.2875977.3013306.3671875.5368042.4399414Z"/>
  <path class="cls-1" d="m106.0054149,59.5341455c.163147-21.7119141-15.2355347-40.8852539-36.1751709-45.2524414-23.3215942-4.8652344-42.4655151,8.4853516-49.3034668,22.1425781,1.496521-1.8442383,2.7498169-3.6088867,4.2210693-5.1679688,12.1602783-12.8837891,29.5657349-17.5366211,45.5683594-13.6147461,6.8934326,1.6894531,13.5281982,4.9604492,19.3685303,9.8666992,10.4701538,8.7949219,15.7736206,22.2143555,14.6230469,35.3530273-.3206177,3.6616211-1.1417847,7.3012695-2.4928589,10.8129883-7.6157227,19.7944336-28.7977905,31.4790039-50.5445557,27.7958984-11.9971924-2.0322266-21.7636719-7.9013672-29.3483276-17.453125,6.7340698,12.6591797,25.4223633,24.2207031,45.7973633,20.5454102,22.3269653-4.0273438,38.118042-22.6845703,38.2860107-45.0283203Z"/>
  <path class="cls-1" d="m19.7339916,42.6313135c-.2819824.2368164-.5772095.4799805-.7871094.7768555-5.5400391,7.8378906-5.963501,16.0566406-1.7913208,24.6015625.1445312.2958984.1744995.8955078.6369629.7495117.4475708-.1411133.3234253-.6958008.2644043-1.0898438-.2091064-1.3945312-.4000854-2.7939453-.6747437-4.1757812-1.1710205-5.8945312-.6853027-11.5917969,1.9140015-17.0634766.3968506-.8354492.6983032-1.7172852,1.020752-2.5859375.1447754-.390625.177002-.7978516-.0599365-1.1450195-.1777954-.1933594-.3771973-.1899414-.5230103-.0678711Z"/>
  <path class="cls-1" d="m105.8782787,83.0199854c-.4285889-.1914062-.7036133.3061523-.9206543.6401367-.7685547,1.1821289-1.5537109,2.355957-2.2650146,3.5727539-3.0332642,5.1879883-7.1756592,9.1293945-12.7501221,11.5-.8509521.3618164-1.661499.8217773-2.4790039,1.2583008-.3673706.1962891-.6616821.4794922-.7146606.8964844.0048218.2626953.15625.3925781.3464355.3974609.368042.0097656.7503662.0239258,1.1044312-.059082,9.3447266-2.1914062,15.112915-8.0610352,17.6580811-17.2226562.0881958-.3173828.4633789-.7861328.0205078-.9833984Z"/>
  <path class="cls-2" d="m109.9423045,38.9818994c-7.100769-6.0888672-7.9071655-9.5507812-10.3548584-19.015625-2.6619263-10.2939453-16.9299927-19.2294922-27.3804321-16.996582-8.0006104,1.7094727-15.8115234,2.1591797-23.7595215.2646484-.8413086-.2001953-1.7322998-.2231445-2.6032104-.2626953-4.2260742-.190918-7.663208,1.347168-10.2867432,4.7001953-1.5772095,2.015625-2.961853,4.1655273-4.1110229,6.434082-3.048645,6.0185547-7.7230835,10.2895508-13.6537476,13.3623047-2.7096558,1.4038086-5.385498,2.9223633-7.8926392,4.65625-3.8612061,2.6689453-7.0163574,5.9614258-7.6196899,10.9404297-.4396973,3.6279297.6728516,6.9765625,2.3781128,10.0488281,3.1351318,5.6479492,4.6774902,11.5854492,4.0576172,17.4433594,0,2.4204102-.0651855,4.2441406.0117798,6.0615234.2650757,6.2592773,1.7304688,11.9863281,7.2492676,15.8515625,2.0961914,1.4682617,4.3218384,2.7392578,6.675293,3.6982422,6.8986206,2.8095703,12.4552612,7.1445312,16.2451172,13.6445312.5064087.8686523,1.2446289,1.6142578,1.9368896,2.359375,3.1467285,3.3886719,7.0062256,5.0961914,11.6685181,4.9428711,3.4735718-.1142578,6.7943115-.9423828,9.9241333-2.3574219,9.3667603-4.2353516,18.8435669-7.8881836,29.1243286-9.5375977,7.2749634-1.1669922,12.0172119-6.1279297,14.5369873-13.1069336.8239136-2.2817383,1.2300415-4.6474609,1.5775146-7.0170898.6915283-4.7163086,2.9851685-8.2841797,7.1491089-10.6445312.9477539-.5375977,1.3181763-1.159668,2.2012329-1.800293,3.1641846-2.2958984,5.0458374-5.387207,5.6109009-9.2607422.5878906-4.0297852-.2290649-7.8164062-2.0206909-11.4311523-2.6206055-5.2871094-6.2943115-9.2304688-10.6642456-12.9775391ZM77.3645458,7.2221338c5.8825073-.0361328,10.3515015,2.402832,13.2368164,7.5927734.109314.1962891.1658325.4262695.222229.6469727.0291138.1137695-.0224609.2260742-.1779785.2729492-.257019.0395508-.4755249-.0878906-.6543579-.2734375-.3981323-.4121094-.80896-.8168945-1.168335-1.2617188-2.3540649-2.9160156-5.4005127-4.7138672-9.0009766-5.640625-.8442993-.2172852-1.6757202-.4863281-2.5092773-.7431641-.2354736-.0727539-.5780029-.1523438-.5368042-.4399414.0426025-.2963867.3848877-.152832.5886841-.1538086ZM20.3169383,43.8442041c-.3224487.8686523-.6239014,1.7504883-1.020752,2.5859375-2.5993042,5.4716797-3.085022,11.1689453-1.9140015,17.0634766.2746582,1.3818359.4656372,2.78125.6747437,4.1757812.059021.394043.1831665.9487305-.2644043,1.0898438-.4624634.1459961-.4924316-.4536133-.6369629-.7495117-4.1721802-8.5449219-3.7487183-16.7636719,1.7913208-24.6015625.2098999-.296875.505127-.5400391.7871094-.7768555.145813-.1220703.3452148-.1254883.5230103.0678711.2369385.347168.2047119.7543945.0599365,1.1450195Zm1.6051025,40.1728516c7.5846558,9.5517578,17.3511353,15.4208984,29.3483276,17.453125,21.7467651,3.6831055,42.928833-8.0014648,50.5445557-27.7958984,1.3510742-3.5117188,2.1722412-7.1513672,2.4928589-10.8129883,1.1505737-13.1386719-4.1528931-26.5581055-14.6230469-35.3530273-5.840332-4.90625-12.4750977-8.1772461-19.3685303-9.8666992-16.0026245-3.921875-33.4080811.730957-45.5683594,13.6147461-1.4712524,1.559082-2.7245483,3.3237305-4.2210693,5.1679688,6.8379517-13.6572266,25.9818726-27.0078125,49.3034668-22.1425781,20.9396362,4.3671875,36.3383179,23.5405273,36.1751709,45.2524414-.1679688,22.34375-15.9590454,41.0009766-38.2860107,45.0283203-20.375,3.675293-39.0632935-7.8862305-45.7973633-20.5454102Zm28.1140747-16.3198242c.6370239-.236084,1.3225708-.371582,2.0407104-.371582,1.1020508,0,2.1306763.3095703,3.0139771.8381348l20.7705078-20.7680664c-.4334106-.8203125-.6815796-1.7531738-.6815796-2.7436523,0-3.2507324,2.6445923-5.8952637,5.8954468-5.8952637,3.2507935,0,5.8953857,2.6445312,5.8953857,5.8952637,0,3.2509766-2.6445923,5.8955078-5.8953857,5.8955078-.8605957,0-1.6762695-.1896973-2.4140625-.5227051l-21.0866699,21.0854492c.2528687.6564941.3972778,1.3662109.3972778,2.1108398,0,3.2507324-2.6445923,5.8952637-5.8948975,5.8952637-3.2507935,0-5.8954468-2.6445312-5.8954468-5.8952637,0-1.1306152.3255005-2.184082.8794556-3.0822754l-5.3193359-7.5021973c-.526123.154541-1.0809937.2412109-1.6563721.2412109-3.2508545,0-5.8954468-2.6445312-5.8954468-5.8955078,0-3.2507324,2.6445923-5.8955078,5.8954468-5.8955078,3.2507935,0,5.8953857,2.6447754,5.8953857,5.8955078,0,1.2802734-.4146118,2.4628906-1.1103516,3.4304199l5.1659546,7.2844238Zm55.8216553,16.3061523c-2.545166,9.1616211-8.3133545,15.03125-17.6580811,17.2226562-.3540649.0830078-.7363892.0688477-1.1044312.059082-.1901855-.0048828-.3416138-.1347656-.3464355-.3974609.0529785-.4169922.34729-.7001953.7146606-.8964844.8175049-.4365234,1.6280518-.8964844,2.4790039-1.2583008,5.5744629-2.3706055,9.7168579-6.3120117,12.7501221-11.5.7113037-1.2167969,1.49646-2.390625,2.2650146-3.5727539.217041-.3339844.4920654-.831543.9206543-.6401367.4428711.1972656.067688.6660156-.0205078.9833984Z"/>
  <path class="cls-1" d="m40.0851268,51.0868799c-3.2508545,0-5.8954468,2.6447754-5.8954468,5.8955078,0,3.2509766,2.6445923,5.8955078,5.8954468,5.8955078.5753784,0,1.130249-.0866699,1.6563721-.2412109l5.3193359,7.5021973c-.5539551.8981934-.8794556,1.9516602-.8794556,3.0822754,0,3.2507324,2.6446533,5.8952637,5.8954468,5.8952637,3.2503052,0,5.8948975-2.6445312,5.8948975-5.8952637,0-.7446289-.1444092-1.4543457-.3972778-2.1108398l21.0866699-21.0854492c.737793.3330078,1.5534668.5227051,2.4140625.5227051,3.2507935,0,5.8953857-2.6445312,5.8953857-5.8955078,0-3.2507324-2.6445923-5.8952637-5.8953857-5.8952637-3.2508545,0-5.8954468,2.6445312-5.8954468,5.8952637,0,.9904785.2481689,1.9233398.6815796,2.7436523l-20.7705078,20.7680664c-.8833008-.5285645-1.9119263-.8381348-3.0139771-.8381348-.7181396,0-1.4036865.135498-2.0407104.371582l-5.1659546-7.2844238c.6957397-.9675293,1.1103516-2.1501465,1.1103516-3.4304199,0-3.2507324-2.6445923-5.8955078-5.8953857-5.8955078Z"/>
</svg>