<?xml version="1.0" encoding="utf-8"?>
<!-- Generator: Adobe Illustrator 27.7.0, SVG Export Plug-In . SVG Version: 6.00 Build 0)  -->
<svg version="1.1" id="Layer_1" xmlns="http://www.w3.org/2000/svg" xmlns:xlink="http://www.w3.org/1999/xlink" x="0px" y="0px"
	 viewBox="0 0 512 512" style="enable-background:new 0 0 512 512;" xml:space="preserve">
<style type="text/css">
	.st0{fill:#1C1C1C;}
	.st1{fill:#FC1262;}
	.st2{fill:#B0D52B;}
	.st3{fill:#65D8FD;}
	.st4{fill:#C6C6C6;}
	.st5{fill:#585858;}
</style>
<g>
	<rect class="st0" width="512" height="512"/>
	<g>
		<rect x="70.6" y="411.6" class="st1" width="58.3" height="27.4"/>
		<rect x="156.3" y="411.6" class="st2" width="58.3" height="27.4"/>
		<rect x="242.1" y="411.6" class="st3" width="58.3" height="27.4"/>
		<rect x="327.8" y="411.6" class="st4" width="58.3" height="27.4"/>
		<rect x="70.6" y="355.6" class="st1" width="58.3" height="27.4"/>
		<rect x="156.3" y="355.6" class="st2" width="58.3" height="27.4"/>
		<rect x="242.1" y="355.6" class="st3" width="58.3" height="27.4"/>
		<rect x="327.8" y="355.6" class="st4" width="111.7" height="27.4"/>
		<rect x="70.6" y="299.6" class="st1" width="58.3" height="27.4"/>
		<rect x="156.3" y="299.6" class="st2" width="58.3" height="27.4"/>
		<rect x="242.1" y="299.6" class="st3" width="58.3" height="27.4"/>
		<rect x="327.8" y="299.6" class="st4" width="83.2" height="27.4"/>
		<rect x="70.6" y="156.5" class="st4" width="85.7" height="31.2"/>
		<rect x="185.5" y="156.5" class="st2" width="111.8" height="31.2"/>
		<rect x="43.7" y="73" class="st5" width="424.6" height="56.3"/>
		<rect x="43.7" y="215.5" class="st5" width="424.6" height="56.3"/>
	</g>
</g>
</svg>
