<?xml version="1.0" encoding="UTF-8"?>
<svg xmlns="http://www.w3.org/2000/svg" xmlns:xlink="http://www.w3.org/1999/xlink" width="92" height="82">
  <defs>
    <path id="a" d="M0 0h92v82H0z"/>
  </defs>
  <g fill="none" fill-rule="evenodd">
    <mask id="b" fill="#fff">
      <use xlink:href="#a"/>
    </mask>
    <path fill="#1BDBDB" d="M82.4347129 40.1803494c-1.2305306 4.6860569-3.224879 9.2565822-5.9265096 13.5851155-1.7253162 2.7641726-3.6681976 5.3089911-5.8009612 7.6129886 2.4345477-9.9333791.7868221-22.1020612-5.1853061-33.5135426-.4199243-.8024766-1.3900004-1.0682774-2.1577173-.5881966l-18.598323 11.6335676c-.711961.4457336-.9287464 1.3844282-.4838683 2.0975238l2.7269742 4.3683449c.4448781.7130956 1.3829822.9297175 2.0953331.4843742l12.0538187-7.540391c.4039385 1.1588292.7661574 2.3254646 1.0745698 3.5002965 1.1599583 4.415182 1.5919697 8.7238096 1.2839471 12.8064479-.5727659 7.6001084-3.6635187 13.5218855-8.7033913 16.674416-2.5168171 1.5745089-5.4410817 2.4082102-8.6191725 2.4989214-.0690126-.0013303-.139195.0010115-.2082076 0-.0592651 0-.11931-.0013303-.1785751 0-3.1784807-.0903209-6.1031352-.9244125-8.6207321-2.4993117-5.0394827-3.1521402-8.1306253-9.0739173-8.7033913-16.6740257-.3076326-4.0826383.1243787-8.3912659 1.2839471-12.8064479 1.2309205-4.686057 3.2244891-9.2565823 5.9268995-13.5851156 2.7016307-4.3285334 5.9311885-8.1262457 9.599386-11.2877534 3.455701-2.9788428 7.1348158-5.2562992 10.9351901-6.7691392 7.0751608-2.81647401 13.746773-2.63107696 18.7866456.5214536 5.0394827 3.1521403 8.1306253 9.0739174 8.7033913 16.6740257.3080225 4.0826383-.1239888 8.3912659-1.2839471 12.806448M15.4920574 53.7654649c-2.7020205-4.3285333-4.6959791-8.8990586-5.92689956-13.5851155-1.1595684-4.4151821-1.59157976-8.7238097-1.28394712-12.806448.57315586-7.6001083 3.66390858-13.5218854 8.70378118-16.6740257 5.0394827-3.15253056 11.7114849-3.33792761 18.7862557-.5214536 1.0652122.4238762 2.1191171.9168372 3.1628846 1.4613191-3.7711316 3.4206732-7.2358003 7.5314138-10.1830692 12.252989-7.8046673 12.5027871-10.1783903 26.3903926-7.4572646 37.4868942-2.1327637-2.3039975-4.076035-4.8495966-5.801741-7.6141595M79.3533178 3.74963283C69.7917523-2.23147133 57.2053275-.8099638 45.9968161 6.2554204 34.7902543-.80762194 22.2069487-2.2303004 12.6465529 3.75002314-2.45824857 13.1982474-4.29273724 37.5356116 8.54907336 58.1084398c9.46915874 15.1689919 24.27256604 24.05478 37.45164184 23.8892887 13.1782959.1647107 27.9813133-8.7206871 37.4500822-23.8892887C96.292608 37.5356116 94.4585092 13.1982474 79.3533178 3.74963283" mask="url(#b)"/>
  </g>
</svg>