<svg xmlns="http://www.w3.org/2000/svg" xmlns:xlink="http://www.w3.org/1999/xlink" id="logo_x5F_contacts_x5F_192px_1_" x="0" y="0" enable-background="new 0 0 500 500" version="1.1" viewBox="0 0 500 500" xml:space="preserve"><g id="art_layer"><circle id="bg_circle" cx="250" cy="250" r="250" fill="#1A73E8"/><path id="body_shadow" fill="#185ABC" d="M332.4,375H170.5c-19.6,0-36.9-11.8-36.9-31.2V358c0,19.4,17.3,34.1,36.9,34.1h161.9 c19.6,0,36.9-14.7,36.9-34.1v-14.2C369.3,363.2,352,375,332.4,375z"/><path id="head_shadow" fill="#185ABC" d="M250,227.3c-29.3-0.1-52.4-20.4-54-48.3v11.4c0,28.9,24.2,54,54,54s54-25.1,54-54V179 C301.7,207.1,279.3,227.4,250,227.3z"/><g id="subject"><path id="body" fill="#FFF" d="M250,261.4c-57,0-116.5,27.8-116.5,65.3v17c0,19.4,15.9,34.1,35.5,34.1h164.7 c19.6,0,35.5-14.7,35.5-34.1v-17C369.3,289.1,307,261.4,250,261.4z"/><circle id="head" cx="250" cy="176.1" r="54" fill="#FFF"/></g></g></svg>