<svg xmlns="http://www.w3.org/2000/svg" xmlns:xlink="http://www.w3.org/1999/xlink" id="Capa_1" style="enable-background:new 0 0 150 150" version="1.1" viewBox="0 0 150 150" xml:space="preserve"><style type="text/css">.st5{fill:#4caf50}.st6{fill:#1e88e5}.st7{fill:#e53935}.st9{fill:#fbc02d}.st11{fill:#2e7d32}.st23{fill:#fa7b17}</style><g><path d="M100.5,32.9h-51c-6.7,0-12.2,5.5-12.2,12.2s5.5,12.2,12.2,12.2h51V32.9z" class="st5"/><circle id="Green_1_" cx="100.5" cy="45.1" r="12.2" class="st11"/><path d="M69.5,63.9H49.5v24.4h19.9c6.7,0,12.2-5.5,12.2-12.2S76.2,63.9,69.5,63.9z" class="st9"/><path d="M37.3,104.9c0,6.7,5.5,12.2,12.2,12.2s12.2-5.5,12.2-12.2l0,0V76.1H37.3V104.9z" class="st7"/><path id="Orange_1_" d="M49.5,63.9c-6.7,0-12.2,5.5-12.2,12.2s5.5,12.2,12.2,12.2h12.2V76.1 C61.7,69.4,56.2,63.9,49.5,63.9z" class="st23"/><path id="Blue_1_" d="M112.7,76.1c0-6.7-5.5-12.2-12.2-12.2s-12.2,5.5-12.2,12.2l0,0v28.8c0,6.7,5.5,12.2,12.2,12.2 s12.2-5.5,12.2-12.2l0,0V76.1z" class="st6"/></g></svg>