<svg xmlns="http://www.w3.org/2000/svg" xml:space="preserve" id="Capa_1" style="enable-background:new 0 0 150 150" version="1.1" viewBox="0 0 150 150"><style>.st0{fill:#1a73e8}.st1{fill:#ea4335}.st2{fill:#4285f4}.st3{fill:#fbbc04}.st4{fill:#34a853}.st8{fill:#c62828}.st10{fill:#1565c0}.st12{fill:#f6b704}.st13{fill:#e54335}.st14{fill:#4280ef}.st15{fill:#34a353}.st16{clip-path:url(#SVGID_2_)}.st17{fill:#188038}.st18,.st19{opacity:.2;fill:#fff;enable-background:new}.st19{opacity:.3;fill:#0d652d}.st20{clip-path:url(#SVGID_4_)}.st21{opacity:.3;fill:url(#_45_shadow_1_);enable-background:new}.st22{clip-path:url(#SVGID_6_)}.st24{fill:#174ea6}.st24,.st25,.st26{opacity:.3;enable-background:new}.st25{fill:#a50e0e}.st26{fill:#e37400}.st27{fill:url(#Finish_mask_1_)}.st28{fill:#fff}.st29{fill:#0c9d58}.st30,.st31{opacity:.2;fill:#004d40;enable-background:new}.st31{fill:#3e2723}.st32{fill:#ffc107}.st33{fill:#1a237e;enable-background:new}.st33,.st34{opacity:.2}.st35{fill:#1a237e}.st36{fill:url(#SVGID_7_)}.st37{fill:#fbbc05}.st38{clip-path:url(#SVGID_9_);fill:#e53935}.st39{clip-path:url(#SVGID_11_);fill:#fbc02d}.st40{clip-path:url(#SVGID_13_);fill:#e53935}.st41{clip-path:url(#SVGID_15_);fill:#fbc02d}</style><path d="M100.5 32.9h-51c-6.7 0-12.2 5.5-12.2 12.2s5.5 12.2 12.2 12.2h51V32.9z" style="fill:#4caf50"/><circle id="Green_1_" cx="100.5" cy="45.1" r="12.2" style="fill:#2e7d32"/><path d="M69.5 63.9h-20v24.4h19.9c6.7 0 12.2-5.5 12.2-12.2s-5.4-12.2-12.1-12.2z" style="fill:#fbc02d"/><path d="M37.3 104.9c0 6.7 5.5 12.2 12.2 12.2s12.2-5.5 12.2-12.2V76.1H37.3v28.8z" style="fill:#e53935"/><path id="Orange_1_" d="M49.5 63.9c-6.7 0-12.2 5.5-12.2 12.2s5.5 12.2 12.2 12.2h12.2V76.1c0-6.7-5.5-12.2-12.2-12.2z" style="fill:#fa7b17"/><path id="Blue_1_" d="M112.7 76.1c0-6.7-5.5-12.2-12.2-12.2s-12.2 5.5-12.2 12.2v28.8c0 6.7 5.5 12.2 12.2 12.2s12.2-5.5 12.2-12.2V76.1z" style="fill:#1e88e5"/></svg>