<svg xmlns="http://www.w3.org/2000/svg" xmlns:svg="http://www.w3.org/2000/svg" id="svg425" width="768" height="768" version="1.1" viewBox="0 0 768 768"><path id="path352" d="m 552.96,84.48 c 69.12,0 126.72,57.6 126.72,126.72 v 84.48 H 768 V 215.04 C 768,96 672,0 552.96,0 h -84.48 v 84.48 z" style="fill:#fbbc04;stroke-width:38.4"/><path id="path354" d="M 215.04,683.52 C 145.92,683.52 88.32,625.92 88.32,556.8 V 472.32 H 0 V 556.8 C 0,672 96,768 215.04,768 h 84.48 v -84.48 z" style="fill:#4285f4;stroke-width:38.4"/><path id="path356" d="m 215.04,84.48 c -69.12,0 -126.72,57.6 -126.72,126.72 v 84.48 H 0 V 215.04 C 0,96 96,0 215.04,0 h 84.48 v 84.48 z" style="fill:#ea4335;stroke-width:38.4"/><circle id="circle358" cx="384" cy="384" r="149.76" style="fill:#4285f4;stroke-width:38.4"/><circle id="circle360" cx="641.28" cy="641.28" r="84.48" style="fill:#34a853;stroke-width:38.4"/></svg>