<svg xmlns="http://www.w3.org/2000/svg" xmlns:xlink="http://www.w3.org/1999/xlink" version="1.1" id="Layer_1" x="0px" y="0px" style="enable-background:new 0 0 512 512;" xml:space="preserve" viewBox="69.8 0 372.4 512">
<style type="text/css">
	.st0{fill:#F29900;}
	.st1{fill:#FBBC04;}
	.st2{fill:#FFFFFF;}
</style>
<g>
	<path class="st0" d="M314.2,128l70.2,13.3l57.8-13.3L314.2,0l-17.7,60.7L314.2,128z"/>
	<path class="st1" d="M314.2,128V0H104.7C85.4,0,69.8,15.6,69.8,34.9v442.2c0,19.3,15.6,34.9,34.9,34.9h302.5   c19.3,0,34.9-15.6,34.9-34.9V128H314.2z"/>
	<path class="st2" d="M296.7,372.4h-81.5v-29.1h81.5V372.4z M296.3,314.2h-80.6c-21.2-13.4-35.3-37-35.3-64   c0-41.8,33.9-75.6,75.6-75.6s75.6,33.9,75.6,75.6C331.6,277.1,317.5,300.8,296.3,314.2L296.3,314.2z"/>
</g>
</svg>