<svg height="1952" viewBox="0 0 509.58086729 397.8808683" width="2500" xmlns="http://www.w3.org/2000/svg"><path d="m0 387.4 245.52-385.39 131.6 83.84-192.11 301.55z" fill="#fbbc04"/><path d="m240.33 0h151.13v387.4h-151.13z" fill="#1a73e8"/><circle cx="83.72" cy="81.35" fill="#ea4335" r="74.91"/><path d="m499.1 279.76a107.64 107.64 0 0 1 -107.64 107.64v-215.27a107.64 107.64 0 0 1 107.64 107.63z" fill="#34a853"/><path d="m391.46 172.13v215.27a107.64 107.64 0 0 1 0-215.27z" fill="#0d652d"/><path d="m474.3 89.29a82.85 82.85 0 0 1 -82.84 82.84v-165.69a82.85 82.85 0 0 1 82.84 82.85z" fill="#1a73e8"/><path d="m391.46 6.44v165.69a82.85 82.85 0 0 1 0-165.69z" fill="#174ea6"/></svg>