<svg xmlns="http://www.w3.org/2000/svg" xmlns:xlink="http://www.w3.org/1999/xlink" viewBox="0 0 3579.16 3580.65"><defs><path id="A" d="M3247.753 2232.326v-703.05c201.6-156.186 331.402-400.632 331.402-675.405C3579.155 382.294 3196.867 0 2725.28 0c-275.446 0-520.423 130.432-676.56 332.894H256.4C115.38 332.894 0 448.275 0 589.296l.126 2742.617.168 4.373.082 1.72.37 5.78.062.724.453 5.065.2 1.9.47 4.072.226 1.83.778 5.517.222 1.37.713 4.27.383 2.11.716 3.71.397 1.976 1.147 5.235.433 1.805.906 3.688.578 2.228.943 3.465.56 2.002 1.427 4.787.004-.004c24.988 80.74 89 144.75 169.74 169.74l-.003.003 4.777 1.425 2.04.57 3.427.933 2.25.584 3.66.9 1.828.438 5.227 1.146 1.988.4 3.693.713 2.13.386 4.218.704 1.423.23 5.49.774 1.88.232 4.005.46 1.97.206 4.937.442.846.072 5.73.366 1.8.086 4.255.163 1.845.053 5.88.075h2734.95c.044 0 .087-.002.13-.002l5.787-.074 1.75-.05 4.373-.167h.01l1.7-.08h.004l5.793-.37.662-.057c.006 0 .013-.001.02-.002l5.1-.458c.002 0 .004 0 .006-.001l1.867-.195c.002 0 .005-.001.008-.001l4.118-.474c.006-.001.012-.001.018-.002l1.765-.218h.004l1.848-.26 3.695-.52c.003 0 .005-.001.008-.001l1.254-.203c.014-.002.028-.005.042-.007l4.35-.726c.004-.001.01-.002.013-.002l2.026-.367c.004-.001.01-.001.014-.002l3.793-.732c.008-.001.016-.003.025-.005l1.872-.376c.003-.001.007-.001.01-.002l5.273-1.156c.004-.001.01-.002.013-.003l1.67-.4c.014-.003.03-.007.043-.01l2.513-.617 1.256-.31c.005-.001.01-.002.014-.004l2.155-.56c.006-.001.01-.003.016-.004l3.514-.957c.015-.004.03-.01.045-.013l1.904-.532c.005-.002.01-.003.016-.005l4.796-1.43-.003-.004c.005-.001.01-.003.014-.004l2.32-.738 2.795-.912 2.324-.78c.022-.008.045-.015.067-.022l4.108-1.456 2.36-.873.95-.352 1.895-.735 3.214-1.272 2.965-1.217 2.318-.982 3.505-1.54 2.677-1.222 2.66-1.247 2.204-1.056 3.934-1.962 2.186-1.13 2.644-1.4 2.844-1.548 2.993-1.678 2.143-1.236 3.014-1.787 2.695-1.646 2.544-1.592 2.037-1.3 3.673-2.423 1.967-1.342 2.467-1.714 2.306-1.636 3.105-2.27 1.94-1.456 2.66-2.042 2.507-1.974 2.42-1.952 1.85-1.522 3.367-2.85 1.745-1.525 2.257-2.004 1.687-1.52 3.238-3.015 1.724-1.65.694-.663 1.635-1.61 2.23-2.23 1.613-1.637.664-.695 1.646-1.722 3.02-3.243 1.5-1.676 2.017-2.27 1.6-1.83 2.778-3.285 2.192-2.665 1.297-1.625 1.92-2.438 2.082-2.71 1.437-1.915 2.342-3.205 1.552-2.19 1.748-2.516 1.32-1.936 2.272-3.436.17-.267 1.27-1.99 1.645-2.628 1.546-2.53 1.867-3.15 1.206-2.09.377-.653 1.38-2.48 1.45-2.666.912-1.698.542-1.047 1.1-2.124 1.898-3.797.1-.187 1.02-2.126 1.304-2.782 1.096-2.396 1.647-3.75.95-2.243 1.283-3.127 1.185-2.994.773-1.993.37-1 .84-2.27 1.505-4.25.74-2.2.965-2.956.7-2.2c.005-.017.01-.034.016-.05l.003.003 1.42-4.764a1.176 1.176 0 0 1 .016-.056l.52-1.864.044-.16.46-1.695.462-1.695c.01-.032.017-.065.025-.097l.544-2.098c.006-.025.013-.05.02-.073l.89-3.62.05-.206.388-1.618c.003-.015.007-.03.01-.046l1.142-5.208c.004-.02.008-.042.013-.063l.392-1.955.706-3.658.017-.095.36-1.987c.004-.024.01-.047.013-.07l.698-4.182.03-.182.2-1.228c.002-.015.005-.03.008-.045l.772-5.48.01-.068.21-1.7.017-.136.46-3.99.008-.077.192-1.84.006-.06.44-4.926.022-.256.047-.55c.001-.017.003-.033.004-.05l.366-5.727.003-.062.078-1.644c.001-.037.003-.074.005-.11l.082-2.124.08-2.124.003-.1.048-1.686c0-.02.001-.04.002-.062l.072-5.7.002-.2V2232.326z"/></defs><clipPath id="B"><use xlink:href="#A"/></clipPath><g clip-path="url(#B)"><path fill="#139f5a" d="M3066.657 344.25c-23.836-7.377-49.13-11.356-75.306-11.356H256.4C115.38 332.894 0 448.275 0 589.296v2734.95c0 26.177 3.98 51.47 11.356 75.306l3055.3-3055.302z"/><g fill="#cdcdcd"><path d="M3237.817 3394.787l.58-2.08.923-3.4.59-2.27.89-3.62.448-1.87 1.142-5.208.405-2.018.706-3.658.4-2.153.698-4.182.236-1.455.773-5.48.234-1.895.46-3.99.207-1.977.44-4.926.073-.856.366-5.727.086-1.817.163-4.248.053-1.847.075-5.88-.001-.001V589.296c0-26.177-3.98-51.47-11.356-75.306L181.095 3569.29c23.836 7.377 49.13 11.356 75.306 11.356l2742.616-.126 4.373-.167 1.715-.082 5.8-.37.684-.06 5.11-.458 1.88-.197 4.118-.475 1.787-.22 5.542-.78 1.304-.21 4.35-.726 2.052-.372 3.792-.732 1.907-.383 5.273-1.156 1.726-.414 3.77-.926 2.186-.567 3.514-.957 1.966-.55 4.796-1.43-.003-.004c80.74-24.988 144.75-89 169.74-169.74l.003.003 1.426-4.76z"/></g><path fill="#f5f5f5" d="M2991.352 332.894L0 3324.246c0 141.02 115.38 256.4 256.4 256.4h42.734L3247.753 632.03v-42.734c0-141.02-115.38-256.4-256.4-256.4z"/><path fill="#fff" d="M2991.352 332.894H256.4C115.38 332.894 0 448.275 0 589.296v21.367c0-141.02 115.38-256.4 256.4-256.4h2734.95c141.02 0 256.4 115.38 256.4 256.4v-21.367c.001-141.02-115.38-256.402-256.4-256.402z" opacity=".2"/><linearGradient id="C" x1="2408.21" x2="3084.61" y1="1174.04" y2="1850.44" gradientUnits="userSpaceOnUse"><stop offset="0" stop-color="#263238" stop-opacity=".2"/><stop offset="1" stop-color="#263238" stop-opacity=".02"/></linearGradient><path fill="url(#C)" d="M2651.7 1974.65h596.04V1443.3l-1128.36 12.23z"/><path fill="#ffc108" d="M2308.514 1934.965c-229.906 63.44-693.015 234.28-693.015 496.977v1148.705H2991.35l5.918-.076 1.75-.05 4.373-.167 1.715-.082 5.8-.37.684-.06 5.11-.458 1.88-.197 4.118-.474 1.787-.22 5.542-.78 1.304-.21 4.35-.726 2.052-.372 3.793-.732 1.907-.383 5.273-1.156 1.726-.414 3.77-.926 2.186-.567 3.515-.957 1.966-.55 4.796-1.43-.003-.004c80.74-24.988 144.75-89 169.74-169.74l.003.003 1.42-4.764.58-2.08.923-3.4.59-2.27.89-3.62.448-1.87 1.142-5.208.405-2.018.706-3.657.4-2.153.698-4.182.236-1.455.772-5.48.234-1.895.46-3.99.207-1.977.44-4.926.073-.856.366-5.727.086-1.817.163-4.248.053-1.847.075-5.88V1984.193s-1012.463-29.004-939.24-49.228z"/><path fill="#f79022" d="M2322.888 1931.053l-6.488 1.752-1.467.4-6.42 1.76c-73.224 20.225-169.594 51.368-266.9 92.926l703.25 705.126 502.888-506.713V1957.1c-283.896-91.045-561.407-123.43-924.863-26.037z"/><path fill="#fff" d="M2308.514 1962.07l.14-.038 6.28-1.722 1.467-.4 6.488-1.752c363.456-97.392 640.967-65.008 924.865 26.035v-27.105c-283.898-91.043-561.408-123.427-924.865-26.035l-6.488 1.752-1.467.4-6.42 1.76c-229.906 63.44-693.015 234.28-693.015 496.977v27.105c0-262.698 463.11-433.54 693.015-496.977z" opacity=".2"/><g fill-rule="evenodd"><path fill="#ffc20b" d="M2725.28 0c471.586 0 853.874 382.294 853.874 853.873 0 471.586-382.288 853.874-853.874 853.874-471.58 0-853.874-382.287-853.874-853.874C1871.407 382.294 2253.702 0 2725.28 0h0z"/><path fill="#fff" d="M2725.28 26.1c467.227 0 846.79 375.262 853.765 840.823l.108-13.05C3579.155 382.294 3196.867 0 2725.28 0c-471.58 0-853.874 382.294-853.874 853.873l.108 13.05C1878.492 401.363 2258.06 26.1 2725.28 26.1z" opacity=".2"/><g fill="#263238"><path d="M2725.28 1686.665c-468.06 0-848.16-376.604-853.807-843.333l-.067 10.54c0 471.587 382.295 853.874 853.874 853.874 471.586 0 853.874-382.287 853.874-853.874l-.067-10.54c-5.647 466.73-385.74 843.333-853.807 843.333z" opacity=".1"/></g></g><path fill="#263238" d="M2991.352 3559.28H256.4C115.38 3559.28 0 3443.9 0 3302.88v21.367c0 141.02 115.38 256.4 256.4 256.4h2734.95c141.02 0 256.4-115.38 256.4-256.4v-21.367c.001 141.02-115.38 256.402-256.4 256.402z" opacity=".1"/><path fill="#eee" d="M723.473 981.922v182.045h252.983c-20.085 108.116-114.953 186.746-252.983 186.746-153.413 0-278.195-129.9-278.195-282.896S570.06 784.92 723.473 784.92c69.23 0 130.765 23.93 179.91 70.083l134.61-134.61c-81.62-76.493-187.6-123.073-314.52-123.073-259.82 0-470.07 210.25-470.07 470.07s210.25 470.07 470.07 470.07c271.358 0 451.267-191.02 451.267-459.386 0-33.332-2.99-65.383-8.546-96.15l-442.722-.002z"/></g><radialGradient id="D" cx="191.18" cy="379.8" r="4241.73" gradientUnits="userSpaceOnUse"><stop offset="0" stop-color="#fff" stop-opacity=".1"/><stop offset="1" stop-color="#fff" stop-opacity="0"/></radialGradient><path fill="url(#D)" fill-rule="evenodd" d="M3247.753 2232.326v-703.05c18.894-14.638 37.156-30.05 54.74-46.188l.048-.045 8.755-8.15a858.724 858.724 0 0 0 41.796-42.283l.257-.28 7.682-8.45.356-.396c13.148-14.673 25.796-29.803 37.917-45.364l.54-.695 6.603-8.607.644-.85 6.703-8.994.226-.307c7.044-9.595 13.893-19.34 20.54-29.234l.135-.202 6.185-9.348.805-1.24 5.494-8.562.917-1.45 5.496-8.836.618-1.003c6.154-10.06 12.107-20.258 17.85-30.588l.48-.87 5.007-9.162 1.014-1.894 4.42-8.365 1.1-2.118 4.36-8.543.9-1.785 4.973-10.097.09-.182 10.017-21.473.717-1.612 3.905-8.862 1.11-2.578 3.427-8.088 1.17-2.815 3.336-8.2 1.024-2.55 3.675-9.416.506-1.305 8.068-22.055.816-2.364 2.908-8.518 1.07-3.228 2.542-7.812 1.098-3.455 2.436-7.87.995-3.27 2.595-8.834.66-2.267 6.11-22.593.755-3.014 2.033-8.23.903-3.803 1.756-7.58.9-4.012 1.648-7.617.814-3.856 1.688-8.395.606-3.06 2.16-11.606c.001-.008.003-.017.004-.025l1.958-11.46.562-3.53 1.254-8.05.62-4.235 1.052-7.466.6-4.42.944-7.496.517-4.283.907-8.175.386-3.582 1.135-11.803.022-.268.937-11.526.267-3.837.535-8.047.257-4.504.387-7.484.207-4.676.278-7.516.144-4.537.18-8.145.074-3.884.09-12.03C3579.155 382.294 3196.867 0 2725.28 0l-12.052.09-3.88.074-8.165.18-4.542.144-7.537.28-4.668.207-7.53.4-4.476.255-8.174.545-3.722.26-11.843.965-.374.036-11.403 1.1-3.767.407-8.015.892-4.354.526-7.455.94-4.446.594-7.5 1.06-4.204.615-8.265 1.29-3.323.53-11.618 2-.333.062-11.14 2.077-3.464.686-8.008 1.614-4.037.853-7.47 1.62-4.108.92-7.552 1.754-3.816.906-8.47 2.098-2.776.696-11.39 2.998c-.013.003-.025.007-.038.01l-11.09 3.09-3.047.886-8.078 2.38-3.623 1.102-7.55 2.343-3.663 1.164-7.693 2.5-3.307 1.096-8.827 3.022-2.034.702-21.913 8.033-2.508.97-8.226 3.22-3.125 1.254-7.668 3.128-3.155 1.312-7.872 3.344-2.712 1.167-9.264 4.093-1.175.522-21.237 9.928-1.938.948-8.368 4.133-2.58 1.302-7.795 3.988-2.594 1.35-8.06 4.27-2.07 1.11-9.766 5.352-.2.11-20.476 11.79-1.386.83-8.44 5.102-2.05 1.263-7.86 4.904-2.042 1.292-8.177 5.263-1.46.95c-9.82 6.427-19.502 13.05-29.037 19.866l-.9.647-8.4 6.097-1.565 1.156-7.82 5.845-1.553 1.176-8.177 6.293-.907.705c-9.3 7.268-18.447 14.724-27.433 22.363l-.536.46-8.18 7.055-1.177 1.03-7.627 6.767-1.143 1.026-8.03 7.326-.45.414c-8.71 8.063-17.254 16.306-25.622 24.722l-.286.29-7.782 7.94-.9.934-7.25 7.604-.863.916-7.816 8.43c-8.04 8.796-15.9 17.76-23.57 26.89l-.195.233-7.172 8.658-.75.918-6.682 8.3-.704.885-7.08 9.05c-.004.006-.01.01-.013.017H256.4c-33.052 0-64.695 6.338-93.774 17.86-5.816 2.304-11.53 4.816-17.13 7.525-7.47 3.613-14.74 7.577-21.788 11.872s-13.878 8.92-20.464 13.854a259.703 259.703 0 0 0-9.694 7.629c-28.52 23.564-51.91 53.148-68.166 86.758-4.516 9.336-8.482 18.982-11.854 28.897a253.507 253.507 0 0 0-10.561 43.096 255.067 255.067 0 0 0-1.638 12.793l-.58 6.466C.254 576.13 0 582.685 0 589.296h0l.126 2742.62.168 4.37.082 1.72.37 5.78.062.724.453 5.065.2 1.91.47 4.073.226 1.83.778 5.517.222 1.37.712 4.27v.004l.383 2.1.716 3.71.397 1.977 1.147 5.235.433 1.805.906 3.688.578 2.227.943 3.464v.003l.56 2 1.427 4.787.004-.004.753 2.368.89 2.728.796 2.375 1.464 4.135.893 2.412 1.055 2.76 1.324 3.343 1.174 2.86 1.007 2.376 1.462 3.327 1.313 2.882 1.2 2.56 1.1 2.275 1.936 3.88 1.17 2.26 1.333 2.518 1.666 3.06 1.58 2.818 1.28 2.22 1.676 2.826 1.782 2.92 1.5 2.412 1.357 2.124 2.38 3.605 1.408 2.064 1.6 2.318 1.855 2.6 2.08 2.845 1.523 2.03 1.893 2.465 2.17 2.755 1.826 2.265 1.597 1.94 2.79 3.295 1.614 1.846 1.877 2.114 1.754 1.942 2.81 3.016 1.74 1.82 2.093 2.143 2.49 2.49 2.145 2.095 1.82 1.74 3.03 2.82 1.928 1.74 2.11 1.875 1.85 1.616 3.298 2.79 1.936 1.593 2.274 1.834 2.744 2.16 2.473 1.9 2.026 1.52 2.875 2.1 2.577 1.83 2.324 1.614 2.066 1.41 3.604 2.378 2.123 1.356 2.414 1.51 2.915 1.778 2.835 1.68 2.215 1.277 2.83 1.587 3.043 1.656 2.53 1.34 2.254 1.167 3.884 1.937 2.273 1.09 2.56 1.2 2.9 1.317 3.323 1.46 2.37 1.005 2.864 1.176 3.345 1.325 2.76 1.055 2.404.9 4.143 1.467 2.367.794 2.736.893 2.362.75-.002.003 4.777 1.425 2.036.57c.001 0 .002 0 .003.001s.002 0 .003.001l3.424.932h.002l2.25.583 3.66.9 1.828.438 5.226 1.145 1.99.4 3.7.712h.006l2.126.385 4.214.703c.001 0 .003 0 .004.001h.004l1.418.23 5.493.774 1.877.232 4.006.46 1.967.206h.004l4.936.442.846.072 5.73.366 1.8.086 4.255.163 1.845.053 5.88.075 2742.615-.125 4.375-.167h.01l1.698-.08h.006l5.8-.37.66-.056h.005c.006 0 .013-.001.02-.002l5.1-.458h.006l1.867-.195c.002 0 .005-.001.008-.001l4.118-.474c.006-.001.012-.001.018-.002l1.765-.218h.004l1.848-.26 3.695-.52c.003 0 .005-.001.008-.001l1.252-.203c.016-.002.03-.005.044-.007l4.35-.726c.004-.001.01-.002.013-.002l2.024-.367c.006-.001.01-.001.016-.002l3.793-.732c.008-.001.016-.003.025-.005l1.87-.375c.004-.001.008-.001.01-.002l5.273-1.156c.004-.001.01-.002.013-.003l1.668-.4c.016-.003.03-.007.045-.01l3.43-.842.34-.084c.005-.001.01-.002.014-.004l2.155-.56c.006-.001.01-.003.016-.004l3.514-.957c.015-.004.03-.01.045-.013l1.904-.532c.005-.002.01-.003.016-.005l4.796-1.43-.003-.004c.005-.001.01-.003.014-.004s.002-.001.002-.001l2.317-.737 2.79-.91c.001 0 .002-.001.003-.001s.002-.001.003-.001l2.318-.777c.001 0 .002-.001.003-.001.022-.008.045-.015.067-.022l4.108-1.456 2.36-.873.95-.352 1.895-.735 3.214-1.272 2.965-1.217 2.314-.98c.001-.001.003-.001.004-.002s.003-.001.004-.002l3.484-1.53c.006-.003.01-.005.017-.008.001 0 .002-.001.003-.001l2.675-1.22 2.66-1.247 2.203-1.056 3.934-1.962 2.183-1.13c.001 0 .002-.001.003-.001s.002-.001.003-.002l2.64-1.398 2.844-1.548 2.993-1.678 2.143-1.235 3.014-1.787 2.695-1.646 2.544-1.592 2.035-1.3c.001 0 .001-.001.002-.001s.001-.001.002-.001l3.67-2.42 1.962-1.338c.002-.001.003-.002.005-.003s.003-.002.005-.003l2.456-1.706c.002-.002.004-.003.006-.005s.003-.002.004-.003l2.302-1.634 3.1-2.265c.001-.001.003-.002.004-.003s.003-.002.004-.003l1.936-1.453 2.66-2.042 2.507-1.974 2.42-1.952 1.844-1.517c.002-.002.004-.003.006-.005s.004-.003.006-.005l3.358-2.843c.001-.001.002-.001.003-.002s.002-.001.002-.002l1.735-1.516c.003-.002.005-.005.008-.007s.005-.005.008-.007l2.25-1.997 1.687-1.52 3.238-3.015 1.72-1.644.005-.005.694-.663.495-.487 1.14-1.124 2.23-2.23 1.613-1.637.664-.695.003-.003 1.643-1.72 3.02-3.243 1.51-1.675.002-.002 2.015-2.27c.002-.001.001-.001.002-.002l1.51-1.73.003-.003.085-.097 2.776-3.283c0-.001.001-.001.002-.002s.001-.001.001-.002l2.19-2.663 1.19-1.492.106-.133 1.917-2.434c.001-.001.002-.002.003-.004l.01-.013 2.07-2.696c.001-.001.001-.002.002-.002s.001-.002.002-.003l1.43-1.907c.001-.002.002-.003.004-.005s.002-.003.004-.005l2.338-3.2 1.55-2.187c0-.001.001-.001.001-.002s.001-.002.002-.003l1.74-2.506c.002-.002.003-.005.005-.007s.003-.005.005-.007l1.316-1.93 2.272-3.436.094-.146.077-.12c.001-.002.002-.003.003-.005l1.267-1.984 1.645-2.628 1.544-2.527c0-.001.001-.002.002-.003s.006-.01.01-.014l1.86-3.136 1.206-2.09.16-.276.218-.377 1.38-2.48c.001-.002.003-.005.004-.008l1.445-2.658.912-1.698.542-1.047 1.1-2.124 1.898-3.797.1-.187s.001-.001.001-.002l1.018-2.125 1.302-2.778c.001-.001.001-.003.002-.004s.001-.002.001-.003l1.092-2.387c.001-.002.002-.004.003-.007.006-.014.012-.03.02-.043l1.628-3.706.948-2.236c.001-.002.002-.005.003-.008s.002-.005.003-.008l1.28-3.115c0-.001.001-.003.002-.004l1.183-2.99c0-.001.001-.002.001-.003l.773-1.993.218-.588.153-.413.838-2.263c.001-.002.001-.003.002-.005s.001-.003.002-.005l1.5-4.24c0-.001.001-.003.001-.004s.001-.003.001-.004l.74-2.206.962-2.947c.001-.003.002-.005.003-.008s.002-.005.003-.008l.695-2.185c0-.002.001-.004.002-.006.005-.017.01-.034.016-.05h0l.003.003 1.42-4.764a1.176 1.176 0 0 1 .016-.056l.52-1.864.044-.16.46-1.695.462-1.695c.01-.032.017-.065.025-.097l.542-2.1c0-.003.001-.005.002-.008l.012-.048c.002-.01.005-.017.007-.026l.89-3.62.04-.166c.003-.013.006-.027.01-.04 0-.002.001-.003.001-.005l.386-1.61c0-.001 0-.002.001-.003s.002-.01.004-.015c.002-.01.005-.02.007-.03l1.142-5.208c.004-.02.008-.042.013-.063 0-.001 0-.002.001-.003l.363-1.806.03-.145.353-1.83.23-1.2.12-.63.017-.095.36-1.98c0-.002.001-.004.001-.007.004-.024.01-.047.013-.07l.698-4.182c.003-.022.007-.043.01-.065l.02-.117c.001-.008.002-.015.004-.022l.195-1.206c.002-.015.005-.03.008-.045l.772-5.48.01-.068c0-.002 0-.005.001-.007l.208-1.683.017-.136.46-3.99.008-.077.192-1.84.006-.06.44-4.926.07-.803v-.003c.001-.017.003-.033.004-.05l.366-5.727.003-.062.078-1.633v-.01c.001-.037.003-.074.005-.11l.082-2.124.08-2.124c.001-.02.001-.037.002-.056s.001-.03.001-.044v-.005l.048-1.68c0-.02.001-.04.002-.062l.024-1.897.02-1.52.03-2.273.002-.2V2232.326z"/></svg>