<?xml version="1.0" encoding="utf-8"?>
<!-- Generator: Adobe Illustrator 27.7.0, SVG Export Plug-In . SVG Version: 6.00 Build 0)  -->
<svg version="1.1" id="Layer_1" xmlns="http://www.w3.org/2000/svg" xmlns:xlink="http://www.w3.org/1999/xlink" x="0px" y="0px"
	 viewBox="0 0 512 512" style="enable-background:new 0 0 512 512;" xml:space="preserve">
<style type="text/css">
	.st0{fill:#86A9FF;}
	.st1{fill:#578CFF;}
	.st2{fill:#0057CC;}
</style>
<g>
	<path class="st0" d="M156.4,329.1C69.9,329.1,0,255.4,0,164.6S69.9,0,156.4,0h162.7c86.4,0,156.4,73.8,156.4,164.6
		s-69.9,164.6-156.4,164.6L156.4,329.1L156.4,329.1z"/>
	<path class="st1" d="M261.8,395.6V496c0,8.7-7,16-15.5,16c-4.1,0-8.1-1.7-10.9-4.7L83,350.2c-29.9-30.5-46.4-72.3-46.4-115.6
		c0-89.1,69.9-161.4,156.4-161.4h162.7c86.4,0,156.4,72.4,156.4,161.4S442.1,396,355.6,396h-93.8V395.6z"/>
	<path class="st2" d="M155.6,329.1h163.1c86.6,0,156.7-75.5,156.7-168.4c0-11-1.1-21.6-2.8-32.2c-28.5-34.1-70.1-55.4-116.2-55.4
		H193.3c-86.6,0-156.7,75.5-156.7,168.4c0,11,1.1,21.6,2.8,31.9C67.9,307.5,109.5,329.1,155.6,329.1
		C155.6,329.1,155.6,329.1,155.6,329.1z"/>
</g>
</svg>
