<svg xmlns="http://www.w3.org/2000/svg" viewBox="0 0 236.2 200"><path fill="#EA4335" d="m22.6 105.8 11.9 11.9 25.7-25.6-11.8-11.9-5.4-5.4c-4.3-4.3-6.6-9.9-6.6-16 0-5.3 1.8-10.1 4.9-13.9 4.2-5.3 10.6-8.7 17.8-8.7 6.1 0 11.7 2.4 16.1 6.7l5.3 5.1 11.9 12 25.8-25.6-12-11.9-5.4-5.2C90.1 6.6 75.4 0 59.1 0 26.4 0 0 26.4 0 58.9 0 67 1.6 74.7 4.6 81.8c3 7.1 7.3 13.4 12.7 18.7l5.3 5.3"/><path fill="#FBBC04" d="m81.5 122.2 36.7-36.5L92.4 60 60.2 92.1l-25.7 25.6 13.8 13.9 11.9 11.8L72.6 131"/><path fill="#34A853" d="m143.8 175.6 58-57.9L176 92.1l-57.9 57.8-32.2-32.1-25.7 25.6 32.2 32.2-.1.1 25.8 24.3 25.8-24.4z"/><path fill="#4285F4" d="M218.9 100.5c12-12 18.9-30.4 17-49-2.8-28.2-26.2-49.4-54.6-51.3C163.4-1 147 5.7 135.4 17.3L92.4 60l25.7 25.7 43-42.8c5.2-5.1 12.4-7.5 19.8-6.3 9.6 1.5 17.4 9.4 18.7 19 1 7.2-1.4 14.2-6.5 19.3L176 92.1l25.8 25.6 17.1-17.2z"/></svg>