<svg xmlns="http://www.w3.org/2000/svg" xmlns:xlink="http://www.w3.org/1999/xlink" version="1.1" id="Layer_1" x="0px" y="0px" style="enable-background:new 0 0 512 512;" xml:space="preserve" viewBox="0 45.4 512 421.2">
<style type="text/css">
	.st0{fill:#00832D;}
	.st1{fill:#0066DA;}
	.st2{fill:#E94235;}
	.st3{fill:#2684FC;}
	.st4{fill:#00AC47;}
	.st5{fill:#FFBA00;}
</style>
<g>
	<path class="st0" d="M289.6,256l49.9,57l67.1,42.9l11.7-99.6L406.6,159l-68.4,37.7L289.6,256z"/>
	<path class="st1" d="M0,346.7v84.8c0,19.4,15.7,35.1,35.1,35.1h84.8l17.6-64.1l-17.6-55.8l-58.2-17.6L0,346.7z"/>
	<path class="st2" d="M119.9,45.4L0,165.3l61.7,17.6l58.2-17.6l17.3-55.1L119.9,45.4z"/>
	<path class="st3" d="M119.9,165.3H0v181.4h119.9V165.3z"/>
	<path class="st4" d="M483.3,96.2L406.6,159v196.9l77,63.1c11.5,9,28.4,0.8,28.4-13.9V109.7C512,94.9,494.8,86.8,483.3,96.2z    M289.6,256v90.7H119.9v119.9h251.6c19.4,0,35.1-15.7,35.1-35.1v-75.6L289.6,256z"/>
	<path class="st5" d="M371.5,45.4H119.9v119.9h169.7V256l117-96.9V80.5C406.6,61.1,390.9,45.4,371.5,45.4z"/>
</g>
</svg>