<svg xmlns="http://www.w3.org/2000/svg" xmlns:xlink="http://www.w3.org/1999/xlink" width="47" height="65"><defs><path id="a" d="M29.375 0H4.406C1.983 0 0 1.994 0 4.432v56.136C0 63.006 1.983 65 4.406 65h38.188C45.017 65 47 63.006 47 60.568v-42.84L29.375 0Z"/><path id="c" d="M29.375 0H4.406C1.983 0 0 1.994 0 4.432v56.136C0 63.006 1.983 65 4.406 65h38.188C45.017 65 47 63.006 47 60.568v-42.84L29.375 0Z"/><path id="f" d="M29.375 0H4.406C1.983 0 0 1.994 0 4.432v56.136C0 63.006 1.983 65 4.406 65h38.188C45.017 65 47 63.006 47 60.568v-42.84L29.375 0Z"/><path id="h" d="M29.375 0H4.406C1.983 0 0 1.994 0 4.432v56.136C0 63.006 1.983 65 4.406 65h38.188C45.017 65 47 63.006 47 60.568v-42.84L29.375 0Z"/><path id="j" d="M29.375 0H4.406C1.983 0 0 1.994 0 4.432v56.136C0 63.006 1.983 65 4.406 65h38.188C45.017 65 47 63.006 47 60.568v-42.84L29.375 0Z"/><path id="l" d="M29.375 0H4.406C1.983 0 0 1.994 0 4.432v56.136C0 63.006 1.983 65 4.406 65h38.188C45.017 65 47 63.006 47 60.568v-42.84L29.375 0Z"/><path id="n" d="M29.375 0H4.406C1.983 0 0 1.994 0 4.432v56.136C0 63.006 1.983 65 4.406 65h38.188C45.017 65 47 63.006 47 60.568v-42.84L29.375 0Z"/><radialGradient id="p" cx="3.168%" cy="2.717%" r="161.249%" fx="3.168%" fy="2.717%" gradientTransform="matrix(1 0 0 .72308 0 .008)"><stop offset="0%" stop-color="#FFF" stop-opacity=".1"/><stop offset="100%" stop-color="#FFF" stop-opacity="0"/></radialGradient><linearGradient id="d" x1="50.005%" x2="50.005%" y1="8.586%" y2="100.014%"><stop offset="0%" stop-color="#1A237E" stop-opacity=".2"/><stop offset="100%" stop-color="#1A237E" stop-opacity=".02"/></linearGradient></defs><g fill="none" fill-rule="evenodd"><mask id="b" fill="#fff"><use xlink:href="#a"/></mask><path fill="#4285F4" fill-rule="nonzero" d="M29.375 0H4.406C1.983 0 0 1.994 0 4.432v56.136C0 63.006 1.983 65 4.406 65h38.188C45.017 65 47 63.006 47 60.568v-42.84L36.719 10.34 29.375 0Z" mask="url(#b)"/><mask id="e" fill="#fff"><use xlink:href="#c"/></mask><path fill="url(#d)" fill-rule="nonzero" d="M30.664 16.431 47 32.858v-15.13z" mask="url(#e)"/><mask id="g" fill="#fff"><use xlink:href="#f"/></mask><path fill="#F1F1F1" fill-rule="nonzero" d="M11.75 47.273h23.5v-2.955h-23.5v2.955Zm0 5.909h17.625v-2.955H11.75v2.955Zm0-20.682v2.955h23.5V32.5h-23.5Zm0 8.864h23.5v-2.955h-23.5v2.955Z" mask="url(#g)"/><mask id="i" fill="#fff"><use xlink:href="#h"/></mask><g mask="url(#i)"><path fill="#A1C2FA" fill-rule="nonzero" d="M29.375 0v13.295c0 2.449 1.972 4.432 4.406 4.432H47L29.375 0Z"/></g><mask id="k" fill="#fff"><use xlink:href="#j"/></mask><path fill="#FFF" fill-opacity=".2" fill-rule="nonzero" d="M4.406 0C1.983 0 0 1.994 0 4.432v.37C0 2.363 1.983.368 4.406.368h24.969V0H4.406Z" mask="url(#k)"/><mask id="m" fill="#fff"><use xlink:href="#l"/></mask><path fill="#1A237E" fill-opacity=".2" fill-rule="nonzero" d="M42.594 64.63H4.406C1.983 64.63 0 62.637 0 60.2v.37C0 63.005 1.983 65 4.406 65h38.188C45.017 65 47 63.006 47 60.568v-.37c0 2.438-1.983 4.433-4.406 4.433Z" mask="url(#m)"/><mask id="o" fill="#fff"><use xlink:href="#n"/></mask><path fill="#1A237E" fill-opacity=".1" fill-rule="nonzero" d="M33.781 17.727c-2.434 0-4.406-1.983-4.406-4.432v.37c0 2.448 1.972 4.432 4.406 4.432H47v-.37H33.781Z" mask="url(#o)"/><path fill="url(#p)" fill-rule="nonzero" d="M29.375 0H4.406C1.983 0 0 1.994 0 4.432v56.136C0 63.006 1.983 65 4.406 65h38.188C45.017 65 47 63.006 47 60.568v-42.84L29.375 0Z"/></g></svg>