<svg xmlns="http://www.w3.org/2000/svg" width="512" height="512"><path d="m322.4 140.9-44.1-76.8H162.6c-10.3 0-19.9 5.5-24.9 14.5L44.1 241.7c-5.1 8.9-5.1 19.7 0 28.7l35.6 62.1 44-76.4 66.2-115.2h132.5z" style="fill:#f8bb16"/><path d="M468.2 241.7 374.6 78.6c-5.2-8.9-14.7-14.5-24.9-14.5h-71.4l44.1 76.8 66.2 115.2-66.2 115.2h88l57.8-100.9c5-8.9 5-19.8 0-28.7" style="fill:#ea4334"/><path d="M410.3 371.2H189.7L123.5 256l-44 76.4 58 101c5.2 8.9 14.7 14.5 24.9 14.5h187.1c10.3 0 19.9-5.5 24.9-14.5l35.9-62.2z" style="fill:#0074bc"/><path d="M322.2 371.2H189.6L123.5 256l66.2-115.2h132.5L388.6 256l-66.4 115.2zM256 198.5c-31.9 0-57.6 25.7-57.6 57.6s25.7 57.6 57.6 57.6 57.6-25.7 57.6-57.6-25.8-57.6-57.6-57.6z" style="fill:#e2e3e4"/></svg>