<svg xmlns="http://www.w3.org/2000/svg" width="512" height="512"><path d="m65.414 346.668 55.172 95.57a48.834 48.834 0 0 0 42.293 24.43h117.496l-21.148-64.188-50.829-55.812-71.492-12.43Zm420.078-115.094-53.57-92.8-46.082 51.011L358.64 256l29.548 70.852 43.386 46.933 53.918-93.36a48.87 48.87 0 0 0 0-48.85ZM280.398 45.332H162.906a48.824 48.824 0 0 0-42.293 24.43l-55.199 95.57 71.492 12.43 71.492-12.43 52.188-55.812Zm0 0" style="stroke:none;fill-rule:nonzero;fill:#1967d2;fill-opacity:1"/><path d="m154 256 54.398-90.668H65.414l-38.242 66.242a48.89 48.89 0 0 0 0 48.852l38.242 66.242h142.984Zm150.238-90.668L358.641 256l73.254-117.227-39.84-69.011a48.834 48.834 0 0 0-42.293-24.43h-69.364l-72 120Zm0 0" style="stroke:none;fill-rule:nonzero;fill:#4285f4;fill-opacity:1"/><path d="M304.238 346.668h-95.84l72 120h69.364a48.834 48.834 0 0 0 42.293-24.43l39.52-68.453L358.64 256Zm0 0" style="stroke:none;fill-rule:nonzero;fill:#4285f4;fill-opacity:1"/></svg>