<svg xmlns="http://www.w3.org/2000/svg" xmlns:xlink="http://www.w3.org/1999/xlink" version="1.1" id="Layer_1" x="0px" y="0px" style="enable-background:new 0 0 512 512;" xml:space="preserve" viewBox="77.3 0 357.4 512">
<style type="text/css">
	.st0{fill:#1A73E8;}
	.st1{fill:#EA4335;}
	.st2{fill:#4285F4;}
	.st3{fill:#FBBC04;}
	.st4{fill:#34A853;}
</style>
<g>
	<path class="st0" d="M310.1,8.5c-17-5.4-35.6-8.5-54.5-8.5C201.1,0,152,24.7,119.1,63.8l84.3,70.8L310.1,8.5z"/>
	<path class="st1" d="M119.1,63.8C93.2,94.7,77.3,135,77.3,178.3c0,33.6,6.6,60.7,17.8,85.1l108.3-128.8   C203.4,134.6,119.1,63.8,119.1,63.8z"/>
	<path class="st2" d="M256,110.2c37.9,0,68.4,30.5,68.4,68.4c0,16.6-6.2,32.1-16.2,44.1c0,0,53.8-64.2,106.3-126.5   c-21.7-41.8-59.2-73.5-104.4-87.8L203.4,134.6C216.2,119.9,234.7,110.2,256,110.2"/>
	<path class="st3" d="M256,246.7c-37.9,0-68.4-30.5-68.4-68.4c0-16.6,5.8-32.1,15.9-43.7L95.1,263.3c18.6,41,49.5,74.2,81.2,115.6   l131.9-156.6C295.4,237.4,276.9,246.7,256,246.7"/>
	<path class="st4" d="M305.9,422.3c59.6-93.2,128.8-135.3,128.8-243.6c0-29.8-7.3-57.6-20.1-82.4L176.3,379   c10.1,13.1,20.5,28.2,30.5,43.7c36.4,56.1,26.3,89.3,49.5,89.3S269.5,478.4,305.9,422.3"/>
</g>
</svg>