<?xml version="1.0" encoding="utf-8"?>
<!-- Generator: Adobe Illustrator 27.7.0, SVG Export Plug-In . SVG Version: 6.00 Build 0)  -->
<svg version="1.1" id="Layer_1" xmlns="http://www.w3.org/2000/svg" xmlns:xlink="http://www.w3.org/1999/xlink" x="0px" y="0px"
	 viewBox="0 0 512 512" style="enable-background:new 0 0 512 512;" xml:space="preserve">
<style type="text/css">
	.st0{fill:#4285F4;}
	.st1{fill:#34A853;}
	.st2{fill:#FBBC05;}
	.st3{fill:#EA4335;}
	.st4{fill:none;}
</style>
<g>
	<path class="st0" d="M501.8,261.8c0-18.2-1.6-35.6-4.7-52.4H256v99.1h137.8c-6.1,31.9-24.2,58.9-51.4,77v64.5h83.1
		C473.8,405.4,501.8,339.8,501.8,261.8z"/>
	<path class="st1" d="M256,512c69.1,0,127.1-22.8,169.4-61.9l-83.1-64.5c-22.8,15.4-51.9,24.7-86.3,24.7
		c-66.6,0-123.1-44.9-143.4-105.4H27.5V371C69.6,454.5,155.9,512,256,512z"/>
	<path class="st2" d="M112.6,304.6c-5.1-15.4-8.1-31.7-8.1-48.6s3-33.3,8.1-48.6v-66.1H27.5C10,175.7,0,214.6,0,256
		s10,80.3,27.5,114.7l66.3-51.7C93.8,319.1,112.6,304.6,112.6,304.6z"/>
	<path class="st3" d="M256,101.9c37.7,0,71.2,13,98,38.2l73.3-73.3C382.8,25.4,325.1,0,256,0C155.9,0,69.6,57.5,27.5,141.3
		l85.2,66.1C132.9,146.9,189.4,101.9,256,101.9z"/>
	<path class="st4" d="M0,0h512v512H0V0z"/>
</g>
</svg>
