<svg xmlns="http://www.w3.org/2000/svg" xmlns:xlink="http://www.w3.org/1999/xlink" id="Capa_1" style="enable-background:new 0 0 150 150" version="1.1" viewBox="0 0 150 150" xml:space="preserve"><style type="text/css">.st5{fill:#4caf50}.st6{fill:#1e88e5}.st7{fill:#e53935}.st9{fill:#fbc02d}</style><g><path d="M54.8,94.5c-3.4-3.5-6.3-7.4-9.4-11.1c-5.8-6.9-11.6-13.8-17.4-20.7c-3-3.5-2.9-5.1,0.3-8.6 c9.3-10.4,20.9-16.7,34.6-19.4c4-0.8,8.1-1.3,12.3-1c0,4.9,0,9.8,0,14.6c0,2.9,0,2.9,2.8,3.2c-10.1-0.4-19.5,1.7-28,7.2 c-1.3,0.8-0.7,1.3-0.1,2c3,3.6,6.1,7.1,9.1,10.8c2.5,3.1,5.3,5.9,7.5,9.2c-0.1,0-0.4,0-0.4,0.1c-3.3,4.3-6.9,8.4-10.5,12.5 C55,93.7,54.8,94.1,54.8,94.5z" class="st6"/><path d="M77.8,51.5C75,51.2,75,51.2,75,48.3c0-4.9,0-9.8,0-14.6c4.8-0.3,9.5,0.3,14.1,1.4c13.2,3,24.4,9.4,33.3,19.7 c2.4,2.8,2.4,4.7,0.1,7.4c-2.6,3.1-5.2,6.1-7.8,9.1c-1.1-1.6-2.6-2.9-4-4.3c-2.8-2.8-5.8-5.4-9.3-7.4c-0.7-0.5-1.3-1-2-1.5 C92.7,54.1,85.5,52,77.8,51.5z" class="st7"/><path d="M101.3,59.7c3.5,2,6.5,4.6,9.3,7.4c1.4,1.4,2.9,2.7,4,4.3c-4.1,4.9-8.2,9.9-12.3,14.8 c-5.2,6.2-10.4,12.4-15.6,18.5c-1.6-1.2-2.7-2.9-3.9-4.5c-2.6-3.1-5.2-6.3-7.8-9.4c2.5-3,5-6,7.6-8.9 C88.9,74.5,95.1,67.1,101.3,59.7z" class="st5"/><path d="M75.1,90.8c2.6,3.1,5.2,6.3,7.8,9.4c1.3,1.5,2.3,3.2,3.9,4.5c-2.7,3.2-5.4,6.5-8.1,9.7 c-2.2,2.5-5.1,2.7-7.2,0.1c-5.6-6.6-11.1-13.2-16.6-19.8c-0.1-0.1-0.1-0.2-0.1-0.3c0.1-0.4,0.2-0.8,0.5-1.1 c3.6-4.1,7.2-8.2,10.5-12.5c0.1-0.1,0.3-0.1,0.4-0.1c1.1,0.7,1.7,1.9,2.6,2.8C70.9,85.9,72.8,88.6,75.1,90.8z" class="st9"/></g></svg>