<svg xmlns="http://www.w3.org/2000/svg" width="768" height="768"><path d="M552.96 84.48c69.12 0 126.72 57.6 126.72 126.72v84.48H768v-80.64C768 96 672 0 552.96 0h-84.48v84.48z" style="fill:#fbbc04;stroke-width:38.4"/><path d="M215.04 683.52c-69.12 0-126.72-57.6-126.72-126.72v-84.48H0v84.48C0 672 96 768 215.04 768h84.48v-84.48z" style="fill:#4285f4;stroke-width:38.4"/><path d="M215.04 84.48c-69.12 0-126.72 57.6-126.72 126.72v84.48H0v-80.64C0 96 96 0 215.04 0h84.48v84.48z" style="fill:#ea4335;stroke-width:38.4"/><circle cx="384" cy="384" r="149.76" style="fill:#4285f4;stroke-width:38.4"/><circle cx="641.28" cy="641.28" r="84.48" style="fill:#34a853;stroke-width:38.4"/></svg>