<?xml version="1.0" encoding="utf-8"?>
<!-- Generator: Adobe Illustrator 27.7.0, SVG Export Plug-In . SVG Version: 6.00 Build 0)  -->
<svg version="1.1" id="Layer_1" xmlns="http://www.w3.org/2000/svg" xmlns:xlink="http://www.w3.org/1999/xlink" x="0px" y="0px"
	 viewBox="0 0 512 512" style="enable-background:new 0 0 512 512;" xml:space="preserve">
<style type="text/css">
	.st0{fill:#0066DA;}
	.st1{fill:#00AC47;}
	.st2{fill:#EA4335;}
	.st3{fill:#00832D;}
	.st4{fill:#2684FC;}
	.st5{fill:#FFBA00;}
</style>
<g>
	<path class="st0" d="M38.7,419.3l22.6,39c4.7,8.2,11.4,14.7,19.4,19.4l80.6-139.6H0c0,9.1,2.3,18.2,7,26.4L38.7,419.3z"/>
	<path class="st1" d="M256,173.9L175.4,34.3c-7.9,4.7-14.7,11.1-19.4,19.4L7,311.7c-4.6,8-7,17.1-7,26.4h161.3L256,173.9z"/>
	<path class="st2" d="M431.4,477.7c7.9-4.7,14.7-11.1,19.4-19.4l9.4-16.1l44.9-77.7c4.7-8.2,7-17.3,7-26.4H350.7l34.3,67.4
		L431.4,477.7z"/>
	<path class="st3" d="M256,173.9l80.6-139.6c-7.9-4.7-17-7-26.4-7H201.8c-9.4,0-18.5,2.6-26.4,7L256,173.9z"/>
	<path class="st4" d="M350.7,338.1H161.3L80.6,477.7c7.9,4.7,17,7,26.4,7H405c9.4,0,18.5-2.6,26.4-7L350.7,338.1z"/>
	<path class="st5" d="M430.5,182.7L356,53.7c-4.7-8.2-11.4-14.7-19.4-19.4L256,173.9l94.7,164.2h161c0-9.1-2.3-18.2-7-26.4
		L430.5,182.7z"/>
</g>
</svg>
