<?xml version="1.0" ?><svg id="Capa_1" style="enable-background:new 0 0 150 150;" version="1.1" viewBox="0 0 150 150" xml:space="preserve" xmlns="http://www.w3.org/2000/svg" xmlns:xlink="http://www.w3.org/1999/xlink"><style type="text/css">
	.st0{fill:#1A73E8;}
	.st1{fill:#EA4335;}
	.st2{fill:#4285F4;}
	.st3{fill:#FBBC04;}
	.st4{fill:#34A853;}
	.st5{fill:#4CAF50;}
	.st6{fill:#1E88E5;}
	.st7{fill:#E53935;}
	.st8{fill:#C62828;}
	.st9{fill:#FBC02D;}
	.st10{fill:#1565C0;}
	.st11{fill:#2E7D32;}
	.st12{fill:#F6B704;}
	.st13{fill:#E54335;}
	.st14{fill:#4280EF;}
	.st15{fill:#34A353;}
	.st16{clip-path:url(#SVGID_2_);}
	.st17{fill:#188038;}
	.st18{opacity:0.2;fill:#FFFFFF;enable-background:new    ;}
	.st19{opacity:0.3;fill:#0D652D;enable-background:new    ;}
	.st20{clip-path:url(#SVGID_4_);}
	.st21{opacity:0.3;fill:url(#_45_shadow_1_);enable-background:new    ;}
	.st22{clip-path:url(#SVGID_6_);}
	.st23{fill:#FA7B17;}
	.st24{opacity:0.3;fill:#174EA6;enable-background:new    ;}
	.st25{opacity:0.3;fill:#A50E0E;enable-background:new    ;}
	.st26{opacity:0.3;fill:#E37400;enable-background:new    ;}
	.st27{fill:url(#Finish_mask_1_);}
	.st28{fill:#FFFFFF;}
	.st29{fill:#0C9D58;}
	.st30{opacity:0.2;fill:#004D40;enable-background:new    ;}
	.st31{opacity:0.2;fill:#3E2723;enable-background:new    ;}
	.st32{fill:#FFC107;}
	.st33{opacity:0.2;fill:#1A237E;enable-background:new    ;}
	.st34{opacity:0.2;}
	.st35{fill:#1A237E;}
	.st36{fill:url(#SVGID_7_);}
	.st37{fill:#FBBC05;}
	.st38{clip-path:url(#SVGID_9_);fill:#E53935;}
	.st39{clip-path:url(#SVGID_11_);fill:#FBC02D;}
	.st40{clip-path:url(#SVGID_13_);fill:#E53935;}
	.st41{clip-path:url(#SVGID_15_);fill:#FBC02D;}
</style><g><g id="XMLID_54_"><path class="st7" d="M73.4,32.7c0.4-0.2,0.9-0.4,1.4-0.3c0.4,0,0.8-0.1,1.1,0.1c0.9,0.2,1.7,0.7,2.3,1.3    c2.7,2.7,5.4,5.4,8.1,8c0.3,0.3,0.6,0.5,0.8,0.9c-3,3.1-6.1,6.1-9.1,9.1c-1,1-2,2-3,3c-1.3,1.3-2.6,2.6-3.9,3.9    c-5.9,5.9-11.8,11.8-17.7,17.8c-2.7,2.8-5.5,5.6-8.3,8.3c-3,3-5.9,6-8.9,8.9c0-6.5,0-13,0-19.5c0-1.2,0-2.5,0-3.7    c0-0.2,0.2-0.4,0.2-0.7c0.2-0.3,0.3-0.6,0.5-0.9c0.4-0.6,1-1,1.4-1.5c11.1-11.2,22.3-22.4,33.4-33.6C72.2,33.4,72.7,33,73.4,32.7z    " id="XMLID_55_"/></g><g id="XMLID_52_"><path class="st6" d="M78,51.9c3-3,6.1-6.1,9.1-9.1c8.2,8.2,16.4,16.4,24.6,24.7c0.7,0.8,1.6,1.5,1.9,2.5    c0.3,0.7,0.2,1.5,0.2,2.2c0,12,0,24.1,0,36.1c0.2,2.4-2.1,4.6-4.4,4.4c-4.3,0-8.5,0-12.8,0c0-5.7,0-11.5,0-17.2c0-6.3,0-12.6,0-19    c-5.3-5.3-10.6-10.7-16-16c-1.9-1.9-3.7-3.7-5.6-5.6C76,53.9,77,52.9,78,51.9z" id="XMLID_53_"/></g><g id="XMLID_48_"><path class="st9" d="M45.1,84.8c2.8-2.8,5.5-5.5,8.3-8.3c0,6.3,0,12.6,0,18.9c0,5.7,0,11.5,0,17.2    c-4.5,0-9,0-13.5,0c-1.9-0.2-3.5-1.8-3.8-3.7c0-5.1,0-10.1,0-15.2C39.2,90.8,42.1,87.8,45.1,84.8z" id="XMLID_51_"/></g><g id="XMLID_1_"><path class="st5" d="M53.5,95.3c14.4,0.1,28.8,0.1,43.1,0.2c0,5.7-0.1,11.5-0.1,17.2c-14.4-0.1-28.8-0.1-43.2-0.2    C53.4,106.8,53.4,101.1,53.5,95.3z" id="XMLID_25_"/></g></g></svg>