<?xml version="1.0" encoding="utf-8"?><svg xmlns="http://www.w3.org/2000/svg" xml:space="preserve" viewBox="0 0 478.633 534.478"><path fill="#1A8039" d="M0 475.22V59.229C0 13.727 49.285-14.776 88.774 8.027l360.28 207.969c39.438 22.803 39.438 79.705 0 102.456L88.774 526.473C49.336 549.224 0 520.773 0 475.22z"/><path fill="#94FED6" fill-rule="evenodd" d="M257.98 236.208c-7.981-46.486-48.3-80.275-95.46-80.275H0v222.584h115.567l84.007 84.007 89.034-51.409-30.628-174.907zm-142.62-50.166c15.34 0 27.829 12.49 27.829 27.985 0 15.34-12.49 27.829-27.829 27.829-15.495 0-27.985-12.49-27.985-27.829 0-15.495 12.49-27.985 27.985-27.985zM62.085 295.183c-15.34 0-27.829-12.49-27.829-27.985 0-15.34 12.49-27.829 27.829-27.829 15.495 0 27.985 12.49 27.985 27.829 0 15.496-12.49 27.985-27.985 27.985zm53.275 53.12c-15.495 0-27.985-12.334-27.985-27.829 0-15.34 12.49-27.829 27.985-27.829 15.34 0 27.829 12.49 27.829 27.829.001 15.495-12.489 27.829-27.829 27.829zm53.845-53.12c-15.495 0-27.985-12.49-27.985-27.985 0-15.34 12.49-27.829 27.985-27.829 15.34 0 27.829 12.49 27.829 27.829-.051 15.496-12.541 27.985-27.829 27.985z" clip-rule="evenodd"/></svg>