<?xml version="1.0" encoding="utf-8"?>
<!-- Generator: Adobe Illustrator 27.7.0, SVG Export Plug-In . SVG Version: 6.00 Build 0)  -->
<svg version="1.1" id="Layer_1" xmlns="http://www.w3.org/2000/svg" xmlns:xlink="http://www.w3.org/1999/xlink" x="0px" y="0px"
	 viewBox="0 0 512 512" style="enable-background:new 0 0 512 512;" xml:space="preserve">
<style type="text/css">
	.st0{fill:#3BAB59;}
	.st1{fill:#4586F7;}
	.st2{fill:#FDC00D;}
	.st3{fill:#EC5043;}
</style>
<g>
	<path class="st0" d="M393.5,401.9c0,18.2,6.4,36.8,6.4,55c0,18.5-6.4,36.5-6.3,55c-91.8,0-183.5,0-275.3,0c0-18.2-8.6-36.8-8.6-55
		c0-18.5,8.6-36.5,8.6-55C210.1,401.9,301.8,401.9,393.5,401.9z"/>
	<path class="st1" d="M287.4,98.4c12.7-12.7,33.1-19.4,45.7-32.3c52.2,52.5,104.6,104.9,157,157.3c4.7,4.9,10.5,9.3,12.3,16.2
		c1.8,4.5,1.2,9.3,1.3,14c0,76.8,0,153.5,0,230.3c1.2,15.1-13.3,29.3-28.4,28.1c-27.2,0-54.5,0-81.7,0c-0.1-36.7,0-73.4-0.1-110
		c0.1-40.3,0-80.6,0-121c-34-33.9-67.9-68-101.9-101.9c-11.9-12-23.9-23.7-35.6-35.8C262.5,137.1,280.7,105.1,287.4,98.4z"/>
	<path class="st2" d="M118.3,281.1c0.2,40.3,0,80.5,0.1,120.8c-0.1,36.7,0,73.3-0.1,110c-28.7,0-57.3,0-86,0
		c-12-1.5-22.5-11.6-24-23.6c-0.1-32.4,0-64.7,0-97.1c19.1-18.9,31-43.5,50-62.5C76,311,100.7,298.9,118.3,281.1z"/>
	<path class="st3" d="M254.5,0c2.4,0.3,5.2-0.6,7.3,0.7c5.7,1.1,10.7,4.4,14.8,8.6c17.1,17.1,34.2,34.2,51.3,51.3
		c1.7,1.8,3.7,3.4,5.2,5.5c-19.2,19.6-38.7,38.8-58.1,58.3c-6.3,6.3-12.5,12.7-19,18.8c-8.5,8-16.5,16.5-24.8,24.7
		c-37.6,37.7-75.4,75.4-112.9,113.2c-17.5,17.8-35.3,35.4-52.9,53.1c-19,19-38,38.1-57.1,57c-0.1-41.5,0-83,0-124.5
		c0-7.8-0.1-15.7,0.1-23.5c-0.1-1.6,1.1-2.8,1-4.4c1.1-1.9,2.1-3.8,3.2-5.7c2.7-3.6,6.1-6.6,9.2-9.8
		c71.2-71.3,142.4-142.7,213.6-214c2.9-3.1,6.2-5.8,10.3-7.2C248.6,1.1,251.4-0.3,254.5,0z"/>
</g>
</svg>
