<svg xmlns="http://www.w3.org/2000/svg" width="256" height="256"><path d="M96.486 247.687c-10.062-.972-24.617-3.799-32.381-6.289-7.408-2.375-15.574-7.033-21.482-12.251-1.492-1.32-1.717-1.372-3.139-.737-5.321 2.377-6.977 2.8-10.95 2.803-8.495.006-17.668-5.135-20.026-11.225-.66-1.704-.669-2.174-.076-3.703 1.295-3.339 4.812-3.486 8.482-.355 2.679 2.286 4.908 3.149 8.103 3.135 2.874-.011 6.136-1.226 7.275-2.71.508-.661.448-1.268-.34-3.421-1.767-4.83-2.59-10.723-2.333-16.704.295-6.862 1.368-11.404 4.013-16.989l2.059-4.346-4.34-3.733c-2.579-2.219-4.662-4.461-5.133-5.526-.774-1.748-.759-1.864.594-4.647 1.996-4.107 3.791-6.029 5.442-5.823 1.053.13 2.138 1.297 5.116 5.5 2.079 2.933 4.056 5.334 4.394 5.334.666 0 10.754-10.956 14.374-15.611 3.242-4.169 6.54-9.886 8.024-13.913 1.199-3.252 1.297-4.094 1.295-11.065-.003-6.995-.15-8.229-2.01-16.912-3.354-15.65-3.695-18.286-3.705-28.62-.01-10.679.762-15.472 3.817-23.698.954-2.569 1.618-4.874 1.475-5.122-.142-.249-1.513-.989-3.045-1.644-5.168-2.21-8.375-4.155-8.775-5.32-.506-1.472.126-3.894 2.241-8.584 2.268-5.028 4.237-6.888 7.295-6.888 2.891 0 7.376 1.61 10.96 3.935 1.516.984 2.97 1.79 3.231 1.79.261 0 1.58-1.07 2.929-2.378 5.137-4.976 18.269-13.224 23.16-14.547 1.683-.455 2.594-1.67 2.975-3.968.948-5.707 5.653-6.867 15.425-3.804 3.794 1.19 4.355 1.224 14.81.928 14.969-.424 24.433.78 35.983 4.58 12.297 4.044 22.766 11.584 30.828 22.201l2.75 3.622 3.98.234c3.114.183 4.59.56 6.79 1.728 3.43 1.824 7.74 6.64 9.695 10.832.888 1.904 1.915 3.286 2.816 3.787 2.781 1.55 4.229 7.876 2.43 10.622-.674 1.03-.813 2.167-.699 5.71.155 4.795-.72 9.416-2.346 12.388-1.198 2.19-1.183 2.83.092 4.053 1.29 1.237 2.805 4.72 2.82 6.483.02 2.674-2.35 6.66-5.293 8.895l-2.78 2.112-.256 4.76c-.14 2.618-.183 4.843-.093 4.945.09.102 2.552-.19 5.472-.65 6.542-1.03 10.86-1.085 11.584-.147.292.38.795 1.924 1.119 3.433.463 2.161.952 3.036 2.305 4.124 2.5 2.01 2.892 2.699 2.91 5.113.01 1.59-.318 2.598-1.228 3.763l-1.243 1.591 1.238 9.507c1.919 14.738 2.792 24.928 2.868 33.465.088 9.89.075 9.918-5.798 11.866-12.848 4.261-44.987 14.62-52.03 16.768-7.864 2.4-9.962 3.5-9.962 5.224 0 .352 1.085 1.029 2.41 1.503 4.825 1.726 6.606 6.105 6.173 15.174-.304 6.386-1.617 10.691-3.981 13.058-1.875 1.876-2.904 2.08-4.48.891-1.6-1.207-2.213-4.477-1.864-9.933.269-4.19.196-4.892-.615-5.971-.786-1.046-1.444-1.252-4.55-1.42l-3.63-.198-2.097 2.073c-10.37 10.252-25.848 17.517-42.942 20.156-6.523 1.007-21.432 1.413-28.13.766zm29.612-2.506c18.31-3.356 31.22-9.942 42.406-21.636 5.167-5.401 10.627-12.55 10.056-13.165-.18-.195-4.572.764-9.76 2.13-10.973 2.892-14.302 3.396-15.484 2.346-2.73-2.425-11.08-29.887-15.884-52.239-.738-3.434-1.552-6.537-1.809-6.895-.257-.357-.944-.65-1.527-.65-2.308 0-6.196-1.69-8.058-3.503-1.977-1.924-3.141-3.893-3.829-6.477-.72-2.703.432-2.026 2.022 1.188 1.748 3.531 3.771 5.293 7.451 6.486 6.615 2.145 17.6-1.114 17.6-5.222 0-2.346-1.108-2.621-5.203-1.294-4.517 1.464-7.923 1.549-10.41.258-2.006-1.04-3.055-2.436-3.306-4.397-.236-1.848.82-1.895 1.523-.068.668 1.736 1.94 2.143 1.94.62 0-1.561 1.431-2.523 6.283-4.217 8.954-3.127 40.839-11.378 66.89-17.309l5.312-1.21v-8.306l-3.039-.36c-5.234-.623-8.72-4.11-9.146-9.149-.335-3.962 2.35-8.183 6.98-10.974.519-.314.831-1.323.922-2.981.214-3.92 3.136-7.163 7.063-7.84 1.04-.178 2.014-.67 2.164-1.092.425-1.192-1.668-11.778-3.487-17.637-2.002-6.449-4.78-12.535-8.392-18.384-3.013-4.88-10.415-13.263-14.607-16.544-9.724-7.612-22.293-12.384-37.243-14.138-6.048-.71-19.39-.707-25.395.006-18.37 2.18-36.538 10.062-47.362 20.548-2.05 1.986-2.433 2.624-2.191 3.66.16.69.153 1.254-.016 1.254-.17 0-1.443-.973-2.83-2.162-3.56-3.053-8.167-5.203-11.836-5.524-2.72-.237-3.166-.135-4.275.978-2.19 2.2-5.731 10.624-5.15 12.253.392 1.103 5.714 3.727 13.078 6.447 3.247 1.2 5.903 2.387 5.903 2.64 0 .688-1.558.554-3.895-.334-2.601-.989-2.801-.8-4.77 4.518-2.935 7.93-3.61 12.176-3.632 22.813-.021 10.646.178 12.242 3.463 27.84 5.227 24.807 3.13 32.29-14.682 52.403-12.291 13.879-15.917 19.696-18.084 29.014-1.33 5.722-1.098 15.522.494 20.902 1.248 4.215 1.973 5.026 3.193 3.573.894-1.064 2.172-1.404 2.172-.578 0 .254-1.032 1.646-2.294 3.094-5.406 6.204-12.98 6.856-19.368 1.667-1.421-1.155-3.09-2.1-3.709-2.1-1.27 0-2.642 1.25-2.642 2.405 0 2.49 3.908 6.847 7.911 8.82 9.35 4.61 19.059 3.315 24.43-3.259 2.27-2.78 3.153-2.575 1.58.368-.593 1.11-1.078 2.33-1.078 2.707 0 1.672 8.798 7.905 15.511 10.988 7.229 3.32 21.86 6.863 33.512 8.113 2.922.313 6.074.664 7.004.779 4.506.555 22.213-.199 27.53-1.174zm26.474-128.62c-8.821-1.512-15.51-4.773-20.208-9.856-3.621-3.916-5.745-7.933-7.314-13.835-1.517-5.702-1.519-16.243-.005-22.246 1.633-6.478 4.55-11.995 8.754-16.562 3.067-3.331 4.457-4.384 8.72-6.605 6.672-3.478 9.632-4.283 17.02-4.631 9.16-.433 14.742 1.157 20.75 5.909 5.459 4.317 10.822 13.53 12.98 22.298 1.346 5.47 1.487 15.12.293 20.034-3.006 12.363-11.515 21.131-23.755 24.48-4.426 1.21-13.107 1.721-17.236 1.014zm18.19-2.845c5.597-1.778 9.416-4 12.996-7.558 7.57-7.525 10.786-18.87 8.81-31.07-2.577-15.904-11.73-27.627-23.726-30.387-1.594-.366-5.071-.651-7.728-.633-14.147.096-26.869 7.811-32.023 19.42-2.99 6.735-3.662 10.055-3.687 18.212-.015 5.13.208 7.938.827 10.408 3.083 12.286 11.35 19.973 24.33 22.62 5.794 1.182 14.698.735 20.2-1.012zm-2.886-24.39c-2.259-1.12-3.258-2.68-3.507-5.478-.3-3.367.537-5.906 2.588-7.846 1.398-1.322 2.085-1.587 4.124-1.587 2.125 0 2.656.227 4.045 1.723 2.987 3.218 3.339 8.818.75 11.94-1.103 1.33-1.742 1.619-3.934 1.777-1.567.113-3.198-.1-4.066-.53zm6.245-6.362c.898-.967 1-3.398.179-4.282-.319-.343-1.145-.624-1.835-.624-1.578 0-2.415.879-2.415 2.535 0 2.618 2.493 4.07 4.07 2.371zM60.68 42.557c-1.708-2.626-.325-5.608 2.6-5.608 3.124 0 12.1 5.38 10.983 6.584-.17.183-1.133-.255-2.141-.973-4.652-3.317-8.418-4.835-9.89-3.986-.812.468-.905.887-.633 2.844.36 2.581.17 2.816-.92 1.14zm123.175 197.476c3.557-3.833 4.677-18.184 1.756-22.499-.925-1.365-3.282-2.833-5.469-3.406-1.12-.293-1.606.126-4.467 3.853-1.766 2.3-3.211 4.296-3.211 4.437 0 .14.815.4 1.81.577 5.385.961 5.917 1.84 5.917 9.761 0 3.39.225 6.616.5 7.17.62 1.248 2.06 1.297 3.164.107zm-17.52-28.479c9.725-2.503 26.514-7.576 47.65-14.399 25.613-8.267 29.962-9.79 29.952-10.493-.012-.878-30.323-22.978-33.076-24.117-.326-.135-2.085 1.7-3.909 4.076-4.321 5.635-5.391 6.665-6.908 6.656-.692-.004-3.832-.94-6.978-2.081s-5.799-2.074-5.895-2.074c-.817 0-30.765 43.602-30.393 44.25.33.577.042.631 9.557-1.818zm-2.937-11.52c4.853-7.04 11.718-16.886 15.256-21.882 3.537-4.996 6.356-9.326 6.265-9.622-.092-.296-2.552-1.587-5.466-2.869-2.914-1.281-10.918-4.911-17.786-8.067l-12.488-5.738-2.726 1.307c-1.5.718-4.086 1.59-5.746 1.935-2.427.506-3.018.822-3.018 1.61 0 1.367 4.432 19.938 6.999 29.326 4.236 15.491 8.21 26.799 9.42 26.799.257 0 4.437-5.76 9.29-12.799zm83.081-17.424c.948-5.824-2.139-37.204-5.471-55.638-1.253-6.928-1.355-7.29-2.045-7.258-.315.015-3.613 4.74-7.33 10.5a1441.38 1441.38 0 0 1-13.452 20.384l-6.692 9.912 1.135.945c.624.52 8.029 5.863 16.454 11.874 8.426 6.011 15.455 11.166 15.621 11.454.607 1.058 1.416.07 1.78-2.173zM39.12 170.481c1.568-2.13 1.832-3.15.965-3.728-.288-.192-2.037-2.547-3.887-5.234s-3.671-4.886-4.046-4.886c-.939 0-2.28 1.648-3.817 4.693-1.076 2.129-1.202 2.756-.743 3.68 1.15 2.316 8.484 8.445 9.422 7.873.339-.206 1.286-1.285 2.105-2.398zm163.379-.709c2.37-2.667 7.847-10.325 15.262-21.342 7.907-11.747 19.907-30.152 19.907-30.533 0-2.76-76.87 14.738-97.322 22.154-5.326 1.932-5.922 2.728-3.14 4.194 2.116 1.114 3.664 1.153 6.28.16 5.014-1.907 8.114-.167 7.504 4.212l-.299 2.148 11.974 5.511c19.645 9.043 35.1 15.433 37.353 15.444.41.002 1.527-.874 2.481-1.948zm42.323-40.082c.171-1.25-.673-3.238-1.375-3.238-.525 0-.602 1.741-.157 3.534.356 1.432 1.321 1.246 1.532-.296zm-27.538-14.636c.08-2.119-.052-4.063-.292-4.322-.24-.258-.984-.32-1.655-.14-1.006.273-1.257.708-1.44 2.501-.123 1.194-.124 3.062-.003 4.15.207 1.865.308 1.971 1.734 1.822l1.513-.158zm3.485 2.284c.81-1.052 1.257-7.8.547-8.272-.293-.195-.972-.101-1.509.208-.854.492-.976 1.081-.976 4.707 0 3.174.156 4.145.666 4.145.366 0 .938-.355 1.272-.788zm-4.575-8.863c3.75-1.049 7.576-2.952 9.866-4.906 3.855-3.289 4.471-8.38 1.425-11.766-1.883-2.094-2.732-2.238-3.13-.533-.159.684-.927 1.903-1.707 2.708-1.19 1.229-1.924 1.499-4.568 1.68-2.796.192-3.504.027-6.32-1.466-3.562-1.89-4.087-1.815-7.067 1.004-2.325 2.2-3.418 5.235-2.788 7.746 1.463 5.828 6.4 7.74 14.29 5.533zm5.052-16.69c1.64-1.715 1.631-5.352-.017-7.243-2.564-2.94-7.421-2.777-9.849.33-2.046 2.62-1.518 5.471 1.308 7.057 3.564 2 6.556 1.95 8.558-.143zm6.52-7.743c1.377-2.965 1.448-3.437 1.42-9.366-.086-17.821-8.607-32.003-19.228-32.003-1.14 0-2.205.14-2.365.313-.16.172.471 1.752 1.401 3.512 4.225 7.991 7.243 16.976 8.882 26.443 1.343 7.75 1.166 7.292 3.315 8.61 1.349.829 2.13 1.82 2.778 3.523.573 1.51 1.162 2.319 1.624 2.23.399-.077 1.377-1.545 2.174-3.262zM114.749 13.734c6.827-1.752 6.52-1.647 6.52-2.231 0-.811-7.101-2.286-9.566-1.987-2.67.324-4.44 2.17-4.44 4.627 0 1.4.131 1.554 1.086 1.273.598-.176 3.478-.933 6.4-1.682z" style="fill:#000;stroke-width:.50132799"/><path d="M217.017 93.37c-1.275-.121-2.37-.456-3.746-1.145-.915-.458-1.48-.858-1.994-1.407-.576-.617-.92-1.284-1.066-2.073a4.32 4.32 0 0 1 .012-1.41c.205-1.054.765-2.08 1.612-2.957a6.381 6.381 0 0 1 3.46-1.825c.608-.108 1.471-.131 2.024-.054 1.22.172 2.279.621 3.165 1.344 1.069.871 1.65 1.907 1.896 3.371.053.317.058.41.06.988.002.675-.013.853-.114 1.346a5.39 5.39 0 0 1-.376 1.149c-.29.633-.647 1.081-1.246 1.566a4.976 4.976 0 0 1-2.374 1.05 8.477 8.477 0 0 1-1.313.057z" style="opacity:1;fill:#888e93;fill-opacity:1;fill-rule:nonzero;stroke:none;stroke-width:.03510291;stroke-linecap:round;stroke-miterlimit:4;stroke-dasharray:none;stroke-dashoffset:0;stroke-opacity:1"/><path d="M209.532 109.319c-3.797-.285-6.29-2.19-7.4-5.656a8.562 8.562 0 0 1-.339-1.42c-.06-.455-.024-1.52.068-2.013.244-1.308.885-2.687 1.79-3.853.835-1.076 2.547-2.62 3.437-3.103.449-.243.796-.336 1.25-.336.802 0 1.428.235 3.508 1.318 2.389 1.243 3.13 1.472 4.77 1.471.714 0 1.443-.04 2.327-.127 1.598-.157 2.351-.412 3.13-1.056.325-.27.944-.932 1.24-1.33.563-.751.882-1.354 1.095-2.066.094-.317.183-.54.265-.666.435-.669 1.13-.405 2.403.912.782.81 1.285 1.523 1.664 2.359 1.51 3.326.362 7.297-2.876 9.954-3.343 2.743-9.166 5.086-13.816 5.56-.674.068-1.949.094-2.516.052z" style="opacity:1;fill:#ddcba2;fill-opacity:1;fill-rule:nonzero;stroke:none;stroke-width:.05265435;stroke-linecap:round;stroke-miterlimit:4;stroke-dasharray:none;stroke-dashoffset:0;stroke-opacity:1"/><path d="M100.856 246.231c-11.492-.51-28.353-3.73-38.51-7.354-6.534-2.332-15.808-7.857-18.713-11.15l-1.04-1.177.944-2.194c.52-1.207.944-2.36.944-2.565 0-.838-1.082-.27-2.503 1.314-3.836 4.28-7.329 5.837-13.168 5.872-6.59.04-12.119-2.135-16.074-6.321-2.694-2.851-3.298-4.472-2.218-5.952.422-.577 1.148-1.049 1.614-1.049.466 0 2.204.922 3.86 2.05 4.156 2.826 6.06 3.445 9.9 3.217 4.49-.267 7.827-2.261 10.994-6.57.892-1.212 1.09-1.752.77-2.097-.32-.345-.743-.217-1.641.498-1.634 1.302-2.216.832-3.315-2.67-1.973-6.294-1.995-16.641-.048-23.459 2.228-7.803 5.416-12.673 17.401-26.582 3.23-3.749 6.767-8.01 7.858-9.47 7.664-10.252 10.12-18.068 9.119-29.02-.42-4.587-1.093-8.418-4.09-23.256-1.364-6.755-1.372-6.854-1.412-17.295-.044-11.778.235-14.263 2.33-20.758 1.66-5.147 2.754-7.666 3.459-7.957.303-.125 1.693.07 3.088.436 1.707.446 2.663.527 2.922.248.551-.594.081-.841-7.06-3.712-6.874-2.763-11.297-4.988-11.565-5.817-.5-1.543 2.706-9.197 4.9-11.704.975-1.114 1.503-1.384 2.696-1.379 3.955.016 9.145 2.276 13.707 5.968 1.257 1.017 2.418 1.85 2.58 1.85.162 0 .294-.632.294-1.405 0-1.204.358-1.758 2.502-3.875 9.118-9.001 24.937-16.352 41.86-19.45 6.079-1.113 21.584-1.562 28.894-.837 13.725 1.361 26.707 5.861 36.255 12.567 3.563 2.501 8.338 7.227 12.645 12.514 7.847 9.63 13.298 22.653 15.614 37.301.698 4.416.665 4.54-1.322 5.006-.525.123-1.862.678-2.97 1.232-2.384 1.192-4.061 3.679-4.472 6.629-.376 2.701-.412 2.762-2.688 4.45-6.035 4.479-6.97 11.904-2.065 16.426 1.534 1.415 4.617 2.735 6.41 2.745 2.65.015 2.727.138 2.727 4.339 0 3.3-.093 3.865-.668 4.043-.368.114-4.797 1.159-9.842 2.323-23.54 5.43-53.329 13.224-61.409 16.07-5.043 1.775-6.343 2.545-6.67 3.948-.306 1.313-.81 1.233-1.596-.254-.36-.68-.973-1.234-1.37-1.235-.605-.002-.685.22-.507 1.405.73 4.845 6.023 6.577 13.542 4.43 4.038-1.152 4.607-1.136 5.149.145.603 1.427-.473 2.94-3.106 4.365-2.573 1.392-5.469 2.006-9.464 2.006-5.331 0-9.046-1.894-11.214-5.716-1.595-2.813-2.682-4.203-3.078-3.94-.91.606 1.22 5.483 3.344 7.657 1.747 1.79 4.752 3.477 6.838 3.842 3.293.575 3.147.45 3.949 3.41.413 1.528 1.446 5.834 2.296 9.571 3.853 16.946 10.001 37.616 13.235 44.49 1.447 3.077 2.242 3.476 5.785 2.908 1.606-.257 5.925-1.214 9.598-2.127 3.673-.913 6.743-1.589 6.823-1.503.284.306-.351 5.235-.674 5.235-.18 0-.328.34-.328.757 0 .878-7.442 8.82-11.037 11.778-1.34 1.103-4.072 3.08-6.07 4.392l-3.632 2.386-1.84-1.004c-3.157-1.724-7.42-3.073-9.708-3.073-3.73 0-5.343 1.504-8.064 7.523-.898 1.986-1.69 3.787-1.758 4.003-.422 1.325-20.062 3.016-29.937 2.578zm61.242-129.403c7.792-.653 13.392-2.513 18.61-6.183 10.069-7.082 14.868-18.661 13.635-32.895-.479-5.525-1.163-8.493-3.037-13.176-4.195-10.484-10.823-17.62-19.062-20.526-5.628-1.985-17.633-1.751-23.666.46-3.939 1.445-9.886 4.757-12.3 6.851-7 6.074-11.414 15.301-12.316 25.75-.926 10.72 1.122 20.034 5.9 26.825 4.837 6.877 13.433 11.578 23.548 12.877 3.51.451 3.51.451 8.688.017zM61.792 41.28c-.208-2.17-.183-2.246.827-2.519 1.498-.405 3.747.418 7.567 2.769 3.848 2.368 5.481 2.575 3.394.43-1.957-2.01-7.31-4.711-9.774-4.932-1.836-.164-2.182-.064-3.054.875-1.193 1.285-1.264 2.86-.211 4.72 1.044 1.845 1.508 1.346 1.25-1.343z" style="opacity:1;fill:#71caee;fill-opacity:1;fill-rule:nonzero;stroke:none;stroke-width:.59976602;stroke-linecap:round;stroke-miterlimit:4;stroke-dasharray:none;stroke-dashoffset:0;stroke-opacity:1"/><path d="M93.785 245.523c-10.24-1.216-23.144-3.957-30.194-6.412-7.792-2.714-19.732-9.906-20.44-12.313-.118-.397.13-1.539.55-2.536 1.526-3.623.912-3.712-2.677-.384-3.171 2.94-4.166 3.529-7.322 4.33-4.9 1.245-11.344.449-15.976-1.975-2.908-1.522-7.076-5.675-7.484-7.457-.228-.996-.1-1.366.745-2.149 1.202-1.113 1.356-1.068 5.784 1.679 3.924 2.434 5.395 2.845 9.274 2.59 4.126-.273 6.454-1.487 9.582-4.996 1.296-1.454 2.356-2.851 2.356-3.105 0-.8-1.078-.944-1.978-.265-1.349 1.018-1.827.8-2.653-1.212-1.432-3.489-1.975-8.07-1.755-14.81.426-13.064 2.77-17.703 18.116-35.872 12.554-14.863 15.547-19.907 17.16-28.918 1.081-6.047.529-11.613-2.78-27.994L61.959 93.15l-.177-10.38c-.113-6.632-.017-11.676.266-13.964.467-3.781 2.506-10.922 4.068-14.241.823-1.751 1.07-1.975 2.165-1.966.68.006 1.994.199 2.92.429 1.184.294 1.809.286 2.1-.027.585-.631.276-.798-7.989-4.321-3.994-1.703-7.95-3.523-8.79-4.046-1.404-.872-1.522-1.08-1.439-2.53.105-1.82 2.657-7.752 4.168-9.686 1.441-1.846 2.472-2.168 5.222-1.63 3.412.666 6.669 2.206 10.462 4.948 1.855 1.34 3.501 2.437 3.659 2.438.157.002.286-.5.286-1.114 0-2.386 8.043-9.356 15.418-13.361 9.915-5.386 22.627-9.452 33.314-10.655 2.312-.26 8.676-.482 14.141-.493 8.294-.015 10.823.128 15.289.863 14.14 2.328 26.154 7.35 34.285 14.332 7.383 6.339 14.26 15.43 18.403 24.322 3.126 6.71 6.702 19.61 6.857 24.733l.079 2.594-1.982.731c-4.255 1.57-6.139 3.781-7.027 8.245-.363 1.825-.677 2.277-2.942 4.235-3.269 2.826-4.675 5.548-4.675 9.05 0 5.274 3.475 8.95 9.3 9.838 1.235.188 2.314.414 2.396.503.367.395.606 4.115.373 5.792-.251 1.803-.302 1.86-2.055 2.295-.988.246-6.885 1.648-13.104 3.116-24.13 5.697-50.227 12.62-57.261 15.193-4.338 1.587-5.772 2.439-6.053 3.596-.251 1.035-.562.986-1.558-.248-1.117-1.385-1.982-1.34-1.98.103.001 1.713 1.307 3.668 3.136 4.7 2.085 1.176 6.54 1.258 10.48.193 3.594-.972 4.882-.814 5.036.617.292 2.723-5.475 5.403-11.701 5.44-6.536.037-9.225-1.47-13.068-7.326-2.153-3.28-3.04-2.229-1.317 1.562 1.883 4.142 5.685 7.19 10.155 8.137 1.345.285 2.407.753 2.598 1.146.178.365 1.311 4.833 2.518 9.929 5.812 24.538 12.227 45.15 14.98 48.131 1.26 1.366 1.335 1.389 3.662 1.127 1.307-.147 5.823-1.44 9.606-2.342 3.783-.903 12.63-3.431 12.894-3.431.728 0-4.908 6.644-5.725 8.563-1.534 3.603-12.375 12.189-19.288 16.5l-1.83 1.141c-15.037 7.447-13.939 6.447-22.934 8.147-5.434 1.577-27.016 2.455-35.514 1.446zm69.828-128.726c18.333-2.202 29.826-14.197 30.948-32.296 1.123-18.127-8.947-36.132-22.806-40.773-3.194-1.07-13.985-1.32-18.718-.433-6.517 1.22-13.945 5.118-18.476 9.695-5.992 6.053-9.49 13.723-10.598 23.239-1.636 14.048 2.658 26.77 11.27 33.39 7.866 6.048 17.502 8.485 28.38 7.178zM61.998 41.322l-.127-2.117 1.657-.128c1.387-.108 2.334.244 5.817 2.162 4.042 2.225 5.33 2.688 5.33 1.915 0-1.564-7.794-5.877-11.081-6.134-2.024-.157-2.235-.087-3.037 1.008-1.002 1.37-.914 3.802.186 5.111.977 1.164 1.397.555 1.255-1.817z" style="opacity:1;fill:#1d98dc;fill-opacity:1;fill-rule:nonzero;stroke:none;stroke-width:.59976602;stroke-linecap:round;stroke-miterlimit:4;stroke-dasharray:none;stroke-dashoffset:0;stroke-opacity:1"/><path d="M35.992 172.514c-2.473-1.26-7.57-5.896-8.33-7.578-.255-.562-.296-.774-.231-1.21.154-1.038 2.074-4.638 3.199-5.998.259-.313.697-.687.972-.831.483-.252.514-.254.804-.049.413.292 1.86 2.073 3.13 3.855 2.888 4.051 3.811 5.305 4.362 5.922.698.783.745 1.07.321 1.971-.586 1.247-2.966 4.281-3.357 4.281-.087 0-.479-.163-.87-.363z" style="opacity:1;fill:#1d98dc;fill-opacity:1;fill-rule:nonzero;stroke:none;stroke-width:.17770845;stroke-linecap:round;stroke-miterlimit:4;stroke-dasharray:none;stroke-dashoffset:0;stroke-opacity:1"/><path d="m31.394 191.505.09-.594c.235-1.58.696-3.513 1.307-5.486 2.02-6.523 5.41-11.903 13.377-21.22a332.105 332.105 0 0 1 3.569-4.098 321.336 321.336 0 0 0 2.414-2.76c.75-.871.7-.819.788-.819.043 0 .075.01.071.022-.01.027-1.309 1.558-2.568 3.026-1.583 1.847-2.51 2.93-3.01 3.52-7.224 8.518-10.56 13.18-12.646 17.678-.732 1.578-1.248 2.933-1.828 4.808a33.433 33.433 0 0 0-1.232 5.416l-.085.573h-.129c-.128 0-.128 0-.118-.067z" style="opacity:1;fill:#71caee;fill-opacity:1;fill-rule:nonzero;stroke:none;stroke-width:.03510291;stroke-linecap:round;stroke-miterlimit:4;stroke-dasharray:none;stroke-dashoffset:0;stroke-opacity:1"/><path d="M36.74 172.904c-.275-.046-.711-.249-1.257-.583l-.071-.043-.002-.044a.21.21 0 0 1 .001-.044 8.296 8.296 0 0 0 .908.484c.248.114.443.19.53.204.057.01.17-.062.332-.208.317-.286.838-.884 1.386-1.592.621-.802 1.178-1.612 1.492-2.172.192-.342.35-.711.4-.94a.983.983 0 0 0 .03-.23.863.863 0 0 0-.036-.291c-.003-.011-.003-.011.05-.011h.053l.003.013a1.4 1.4 0 0 1-.01.415c-.086.515-.43 1.19-1.077 2.121a22.775 22.775 0 0 1-1.803 2.273c-.359.39-.592.603-.702.641a.546.546 0 0 1-.227.007z" style="opacity:1;fill:#71caee;fill-opacity:1;fill-rule:nonzero;stroke:none;stroke-width:.00693391;stroke-linecap:round;stroke-miterlimit:4;stroke-dasharray:none;stroke-dashoffset:0;stroke-opacity:1"/><path d="M181.22 239.73c-.325-.35-.591-3.407-.591-6.791 0-7.07-1.046-9.18-4.984-10.062l-2.75-.616 3.222-4.01c2.95-3.673 3.417-3.93 5.542-3.053 3.997 1.65 5.222 4.789 4.836 12.383-.431 8.492-3.057 14.538-5.275 12.149z" style="opacity:1;fill:#ddcba2;fill-opacity:1;fill-rule:nonzero;stroke:none;stroke-width:1.34947348;stroke-linecap:round;stroke-miterlimit:4;stroke-dasharray:none;stroke-dashoffset:0;stroke-opacity:1"/><path d="M24.168 228.507c-2.663-.471-5.86-1.702-7.913-3.045-1.951-1.277-4.441-3.744-5.376-5.326-.944-1.599-.931-2.577.05-3.633.938-1.01 1.379-.94 3.943.625.98.599 2.851 1.661 4.157 2.361 2.262 1.213 2.495 1.278 4.98 1.397 2.092.1 3.03.01 4.734-.454 2.598-.707 3.992-1.557 6.068-3.698l1.593-1.643 1.836 1.897a619.088 619.088 0 0 1 2.324 2.412c.43.454 1.178 2.759 1.187 3.66.004.468-3.187 3.173-4.725 4.006-.708.383-1.97.895-2.803 1.139-2.128.62-7.364.778-10.055.302z" style="opacity:1;fill:#ddcba2;fill-opacity:1;fill-rule:nonzero;stroke:none;stroke-width:.39984402;stroke-linecap:round;stroke-miterlimit:4;stroke-dasharray:none;stroke-dashoffset:0;stroke-opacity:1"/><path d="M107.559 13.81c0-.62.637-1.773 1.416-2.562 1.299-1.314 1.771-1.404 5.7-1.084 2.357.192 4.74.623 5.296.959 1.087.655 1.324.56-7.049 2.85-4.53 1.24-5.363 1.215-5.363-.163z" style="opacity:1;fill:#1d98dc;fill-opacity:1;fill-rule:nonzero;stroke:none;stroke-width:.89964902;stroke-linecap:round;stroke-miterlimit:4;stroke-dasharray:none;stroke-dashoffset:0;stroke-opacity:1"/><path d="M150.421 114.41c-12.588-2.922-20.166-9.714-23.594-21.151-1.273-4.248-1.294-18.038-.034-22.791 3.483-13.138 13.5-22.575 26.84-25.286 11.754-2.388 20.647-.01 28.02 7.494 4.285 4.361 7.17 9.517 9.338 16.688 1.308 4.326 1.53 6.083 1.56 12.359.031 6.572-.121 7.763-1.503 11.72-3.68 10.54-11.276 17.635-21.795 20.36-4.952 1.283-14.581 1.594-18.832.607zm24.563-25.136c2.684-1.436 3.536-7.423 1.597-11.223-1.554-3.045-3.38-4.147-6.239-3.764-3.953.53-6.151 3.652-6.114 8.684.023 3.099.939 5.063 2.855 6.126 1.636.907 6.341 1.012 7.901.177z" style="opacity:1;fill:#fff;fill-opacity:1;fill-rule:nonzero;stroke:none;stroke-width:.85074091;stroke-linecap:round;stroke-miterlimit:4;stroke-dasharray:none;stroke-dashoffset:0;stroke-opacity:1"/><path d="M170.751 82.27c-.96-2.504.308-4.368 2.57-3.777.853.223 1.04.703.905 2.318-.144 1.727-.395 2.063-1.646 2.208-.962.112-1.599-.15-1.829-.75zm53.615 2.98c-.418-1.009-1.712-2.722-2.876-3.807-2.013-1.876-2.185-2.324-3.559-9.287-1.725-8.745-4.428-17.085-7.545-23.285-1.257-2.5-2.285-4.804-2.285-5.12 0-.944 4.613-.629 7.034.48 2.978 1.364 7.097 5.866 9.227 10.084 2.74 5.43 4.01 10.846 4.382 18.685.306 6.465.23 7.272-.932 9.971-1.757 4.08-2.497 4.57-3.446 2.28zm-9.96 29.533c.147-3.368.294-3.798 1.292-3.798.997 0 1.144.43 1.291 3.798.165 3.755.15 3.798-1.291 3.798-1.442 0-1.457-.043-1.292-3.798zm-23.75 53.39c-8.55-3.452-16.573-6.963-30.669-13.42l-8.44-3.866-.292-2.788c-.16-1.533-.486-3.095-.723-3.47-.784-1.236-4.056-1.432-7.23-.432-2.772.875-3.211.881-5.131.08-1.155-.483-2.1-1.158-2.1-1.501 0-.343 1.077-1.098 2.392-1.678 11.07-4.883 79.984-21.483 94.964-22.875l4.076-.379-1.04 1.635c-.572.899-5.192 7.965-10.267 15.703-16.55 25.234-24.607 36.3-26.42 36.29-.528-.002-4.632-1.487-9.12-3.3zm51.771 14.614c-1.083-.877-8.047-5.957-15.475-11.287-7.428-5.33-13.838-10.011-14.245-10.4-.606-.58 1.677-4.358 12.553-20.77 11.37-17.158 14.354-21.275 14.354-19.803 0 .142.629 3.877 1.398 8.3 3.505 20.162 6.35 51.217 5.013 54.704-.484 1.261-1.342 1.084-3.598-.744z" style="opacity:1;fill:#fff;fill-opacity:1;fill-rule:nonzero;stroke:none;stroke-width:.85074091;stroke-linecap:round;stroke-miterlimit:4;stroke-dasharray:none;stroke-dashoffset:0;stroke-opacity:1"/><path d="M157.455 212.744c0-1.15 28.533-42.363 29.617-42.78.374-.142 3.514.656 6.978 1.776 7.431 2.403 7.21 2.467 11.965-3.492 4.088-5.122 4.522-5.452 6.076-4.62 2.479 1.326 23.201 16.281 28.528 20.588l2.975 2.405-1.568.798c-4.368 2.223-55.948 18.512-74.393 23.494-8.087 2.184-10.178 2.56-10.178 1.83zm-4.403-1.7c-2.137-4.034-7.293-21.399-11.633-39.181-4.116-16.863-4.117-15.523.012-16.702 1.865-.532 4.195-1.384 5.178-1.892.982-.508 2.055-.924 2.384-.924.329 0 8.457 3.585 18.062 7.966 14.005 6.388 17.398 8.143 17.129 8.863-.803 2.144-29.014 42.368-29.926 42.67-.366.12-.909-.24-1.206-.8z" style="opacity:1;fill:#fff;fill-opacity:1;fill-rule:nonzero;stroke:none;stroke-width:.85074091;stroke-linecap:round;stroke-miterlimit:4;stroke-dasharray:none;stroke-dashoffset:0;stroke-opacity:1"/></svg>