<svg xmlns="http://www.w3.org/2000/svg" xmlns:xlink="http://www.w3.org/1999/xlink" style="enable-background:new 0 0 500 500" id="Layer_2" x="0" y="0" version="1.1" viewBox="0 0 500 500" xml:space="preserve"><style type="text/css">.st0{fill:#ddcba2}.st0,.st1,.st2,.st3,.st4,.st5{stroke:#000;stroke-width:2;stroke-linecap:round;stroke-miterlimit:10}.st1{fill:#71caee}.st2{fill:#fff}.st3{fill:#888e93}.st4{fill:#f0f0f0}.st5{fill:none}.st6{fill:url(#SVGID_1_)}.st7{fill:url(#SVGID_2_)}.st8{fill:#fff}.st9{fill:url(#SVGID_3_)}.st10{fill:url(#SVGID_4_)}.st11{fill:url(#SVGID_5_)}</style><switch><g><g><path d="M317.7,376.2c6.2-1.7,15.8,0,19.5,3.2c5.5,4.8,4.9,20.9,1.1,29c-0.8,1.7-1.8,3.4-3.2,4.4 c-1.4,1-3.4,1.2-4.7,0c-1.3-1.2-1.7-3.3-1.9-5.2c-0.2-3.1-0.2-6.2,0.3-9.2c0.2-1.3,0.2-2.9-0.2-4.2c-0.6-2.2-2.5-3.1-4.5-3.5 c-3.4-0.8-14.3-0.7-19.5-0.7c-0.8,0,1.5-9.1,2-9.7C309.2,377.4,314.1,377.2,317.7,376.2z" class="st0"/><path d="M258.9,119.7c-3-0.9-6-1.8-9-2.7c-4.6-1.4-9.2-2.8-14-2.5c-2.8,0.2-6.1,1.3-6.9,4c-0.6,2-1.6,7.3-1.3,7.9 c1.5,3.4,13.9,6.7,18.3,6.7" class="st1"/><path d="M392.6,177.9c-1.4,1.4-2.2,3.5-2.5,5.5c-0.2,1.4-0.1,3,0.5,4.3c0.6,1.3,1.8,2.3,3.1,3c1.3,0.6,2.8,0.9,4.3,0.9 c1.1,0,2.3-0.1,3.1-0.9c0.6-0.7,0.8-1.6,0.9-2.5c0.2-2.3-0.1-4.7-0.9-6.9c-0.4-1.1-0.9-2.3-1.8-3.1c-1.7-1.8-4.5-2.2-6.4-0.5 C392.8,177.7,392.7,177.8,392.6,177.9z"/><path d="M358.5,164.2c-1-1,0-2.7,1-3.7c5.8-5.2,15.1-4.6,21.8-0.6c10.9,6.6,15.6,19.9,17.2,32.5 c0.6,5.2,0.9,10.6-0.5,15.7c-1.4,5.1-4.6,9.9-9.3,12.1c-1.1,0.5-2.3,0.9-3.4,0.5c-1.1-0.4-1.9-1.8-1.2-2.8 c-9.4-13.6-19-26.8-20.9-43.2C362.7,170.6,361.4,167.3,358.5,164.2z" class="st2"/><path d="M134.7,328.4c-5.1-3.1-9.9-6.6-14.3-10.6c-1.3-1.2-2.6-2.5-2.6-4.3c0-1.2,0.6-2.2,1.2-3.2 c0.8-1.4,1.7-2.8,2.5-4.1c1.1-1.8,2.9-3.9,4.9-3.2c0.9,0.3,1.5,1.1,2,1.8c2.4,3.3,4.9,6.6,7.3,9.8c1.5,2,3.7,4.3,6.1,3.5" class="st1"/><path d="M209.6,133c33.2-18,77.8-19.6,111.5-8.7c24.3,7.9,43.4,26.7,53.3,50c8.7,20.6,10.5,43.6,8.1,65.7 c-4.4,40.2-20.2,77.9-40.3,112.6c-11.1,19-21.8,36-40.5,48.5c-36.8,24.6-87.2,22.1-128.4,11.5c-19.9-5.1-39.7-17.3-47.2-37.3 c-4.8-12.8-4.2-27.6,1.5-40c11.6-24.8,43.2-38.4,45.6-67.9c0.7-8.7-1.6-17.3-3.6-25.7c-5.6-23.4-8.9-45.8,1.4-68.7 C179.1,155.3,192.9,142,209.6,133z" class="st1"/><g><path d="M189.8,151.4c-5.4-5.2-11.9-8.8-19-10.3c-2.2-0.5-4.7-0.7-6.9,0.7c-1.8,1.2-3.1,3.3-4.2,5.3 c-1.6,3-3,6.2-4.1,9.4c-0.4,1.2-0.6,2.5,0,3.5c0.3,0.6,0.9,0.9,1.5,1.2c8.1,4.2,16.8,7.1,25.5,9.8" class="st1"/><path d="M183.7,158.7c-2.5-1.8-16.8-12.1-18.7-4.8c-0.4,1.6,0.5,3.9,1.5,4.8" class="st1"/></g><path d="M264.5,174.9c-0.5,0.5-0.9,1-1.3,1.6c-9,11.6-12,27.9-9.3,42.1c1.7,9,5.9,17.9,13.2,23.4 c19.3,14.6,51.5,13.5,68.4-1.5c24.4-21.7,13-67.6-14-78.8C303.9,154.5,277.8,160.1,264.5,174.9z" class="st2"/><g><path d="M382.1,237.1c1.4-0.1,2.9-0.1,4.3,0.1c0.3,0,0.7,0.1,1,0.4c0.2,0.3,0.4,0.7,0.5,1.1c1,3.9,0.5,8.2,0.1,12.4 c-0.1,0.9-0.2,1.8-0.6,2.6c-1,2.1-3.1,2.7-4.7,2.7c-0.1,0-0.2,0-0.3-0.1c-0.3-0.2-0.3-0.7-0.2-1.2 C382.5,249.2,382.1,243.2,382.1,237.1C382.1,237.2,382.1,237.2,382.1,237.1z" class="st2"/><path d="M378.7,236.8c-1.4,0.4-2.5,2-2.8,4.4c-0.5,4.4-0.7,8.9-0.5,13.4c0,0.9,0.1,1.9,0.5,2.4 c0.2,0.3,0.5,0.4,0.8,0.4c1.6,0.3,4.1-0.6,5.6-1c0,0,0-5.2-0.1-8c-0.1-2.8-0.1-6.1-0.2-8.9c0-0.6,0-1.5,0-2.2 C382.1,236.6,379.4,236.6,378.7,236.8z" class="st2"/></g><path d="M358.3,231.8c-0.3,2.2,0.1,4.7,1.7,7.4c2.6,4.4,7,6.1,11.9,5.8c8.9-0.6,25.3-5.4,27.5-15.7 c0.6-3-0.3-6.1-2.2-8.5c-6.2-7.8-17.8-5.7-25.6-2C365.7,221.5,359.2,225.8,358.3,231.8z" class="st0"/><path d="M386.4,208.6c2.2,1.4,3.7,3.8,4,7c0.3,3.6-1.4,7.5-5,8.8c-2.9,1.1-6.2,0.6-9.1-0.4c-2.9-1-5.8-2.8-6.8-5.7 c-0.7-2-0.3-4.3,0.7-6.1c1.1-1.8,2.8-3.2,4.7-4.1C378.8,206.3,383.3,206.5,386.4,208.6z" class="st3"/><path d="M414.7,262.6c2.4,0.6,4.8,2.1,5.6,4.4c0.8,2.3,0.1,4.9-1.6,6.7s-4.2,2.5-6.6,2.5c-0.8,0-1.7-0.1-2.4-0.5 c-2.5-1.1-3.5-4-4.2-6.6C403.7,262.3,409.1,261.3,414.7,262.6z" class="st0"/><g><path d="M267.1,284.7c2.3-4.5,141.3-36.2,144.7-31.6c3.4,4.5,15.8,88.2,9,90.4c-6.8,2.3-119.8,37.3-126.6,35 C287.4,376.2,264.8,289.2,267.1,284.7z" class="st4"/><path d="M294.2,378.5c0,0,54.3-74.6,59.9-76.9c5.7-2.3,67.3,41.3,67.3,41.3" class="st5"/><path d="M267,287.7c0,0,86,38.8,91.6,36.6c5.7-2.3,53.1-71.2,53.1-71.2" class="st4"/></g><g><linearGradient id="SVGID_1_" x1="131.119" x2="103.259" y1="373.573" y2="396.951" gradientUnits="userSpaceOnUse"><stop style="stop-color:#71caee" offset="0"/><stop style="stop-color:#83cae2" offset=".041"/><stop style="stop-color:#9fcace" offset=".121"/><stop style="stop-color:#b6cbbe" offset=".211"/><stop style="stop-color:#c7cbb1" offset=".314"/><stop style="stop-color:#d4cba8" offset=".438"/><stop style="stop-color:#dbcba3" offset=".606"/><stop style="stop-color:#ddcba2" offset="1"/></linearGradient><path d="M132.8,375.6c-3.5,3.8-7.3,7.8-13,9.2c-4.6,1.2-10,0.2-13.6-2.3c-1.4-1-2.6-2.2-4-3.2 c-1.5-1-3.4-1.7-5.3-1.3c-2.7,0.5-4.1,3.1-3.6,5.3c2,8.8,17,15.6,27.5,15.5c9,0,19-4.6,21.4-11.8" class="st6"/><path d="M132.8,375.6c-3.5,3.8-7.3,7.8-13,9.2c-4.6,1.2-10,0.2-13.6-2.3c-1.4-1-2.6-2.2-4-3.2 c-1.5-1-3.4-1.7-5.3-1.3c-2.7,0.5-4.1,3.1-3.6,5.3c2,8.8,17,15.6,27.5,15.5c9,0,19-4.6,21.4-11.8" class="st5"/></g><g><linearGradient id="SVGID_2_" x1="265.033" x2="275.301" y1="280.295" y2="302.314" gradientUnits="userSpaceOnUse"><stop style="stop-color:#71caee" offset="0"/><stop style="stop-color:#83cae2" offset=".041"/><stop style="stop-color:#9fcace" offset=".121"/><stop style="stop-color:#b6cbbe" offset=".211"/><stop style="stop-color:#c7cbb1" offset=".314"/><stop style="stop-color:#d4cba8" offset=".438"/><stop style="stop-color:#dbcba3" offset=".606"/><stop style="stop-color:#ddcba2" offset="1"/></linearGradient><path d="M261.9,283.5c-0.1,4.2,4.3,7.3,8.4,7.6s8.2-1.3,12.2-2.6c1.4-0.4,2.9-0.8,4.2-0.2c1.8,0.9,2.7,4.1,1.8,5.9 c-0.9,1.8-3.4,3.5-5.3,4.4c-6.5,3-12.9,3.6-19.9,2c-5.3-1.2-11.3-4.3-13-13.5" class="st7"/><path d="M261.9,283.5c-0.1,4.2,4.3,7.3,8.4,7.6s8.2-1.3,12.2-2.6c1.4-0.4,2.9-0.8,4.2-0.2c1.8,0.9,2.7,4.1,1.8,5.9 c-0.9,1.8-3.4,3.5-5.3,4.4c-6.5,3-12.9,3.6-19.9,2c-5.3-1.2-11.3-4.3-13-13.5" class="st5"/></g><path d="M318.4,198.4c-2-0.3-4.1,0.1-5.9,1.3c-3.2,2.1-4.7,6.2-4.7,9.9c0,1.9,0.4,3.8,1.4,5.3c1.2,1.7,3.1,2.9,5.2,3.4 c3.4,0.8,8.2,0.7,10.5-2.5c1-1.5,1.4-3.3,1.5-5.1C326.9,205,324.6,199.3,318.4,198.4z"/><path d="M320.4,203.3c0.9,0.3,1.7,0.8,2.1,1.7c0.4,0.8,0.4,1.7,0.3,2.5c-0.1,1-0.6,2-1.5,2.7 c-0.7,0.5-1.7,0.7-2.6,0.5c-0.9-0.2-1.7-0.8-2.2-1.6c-1.1-1.6-0.9-4.4,0.9-5.5C318.3,203.2,319.4,203,320.4,203.3z" class="st8"/><g><linearGradient id="SVGID_3_" x1="-18.456" x2="110.382" y1="252.286" y2="252.286" gradientTransform="matrix(0.9957 -9.229364e-02 9.229364e-02 0.9957 78.9604 -6.0958)" gradientUnits="userSpaceOnUse"><stop style="stop-color:#333;stop-opacity:0" offset="0"/><stop style="stop-color:#575756;stop-opacity:.2" offset=".477"/><stop style="stop-color:#333;stop-opacity:1.911551e-03" offset=".995"/><stop style="stop-color:#333;stop-opacity:0" offset="1"/></linearGradient><path d="M81.6,222.4c0,0,56.5,68.4,123.9,42.4l6.6-29.7c-62.1,37.1-129.3-20.8-129.3-20.8L81.6,222.4z" class="st9"/><linearGradient id="SVGID_4_" x1="110.198" x2="283.737" y1="262.493" y2="262.493" gradientTransform="matrix(0.9991 4.164194e-02 -4.164194e-02 0.9991 -36.3228 1.0511)" gradientUnits="userSpaceOnUse"><stop style="stop-color:#333;stop-opacity:0" offset="0"/><stop style="stop-color:#575756;stop-opacity:.2" offset=".477"/><stop style="stop-color:#333;stop-opacity:1.911551e-03" offset=".995"/><stop style="stop-color:#333;stop-opacity:0" offset="1"/></linearGradient><path d="M64.2,234.9c0,0,63.1,101.5,157.8,78.9l14.2-38.5c-89.5,38.3-168.9-51-168.9-51L64.2,234.9z" class="st10"/><linearGradient id="SVGID_5_" x1="218.967" x2="428.745" y1="263.594" y2="263.594" gradientTransform="matrix(0.9869 0.161 -0.161 0.9869 -133.493 -4.5243)" gradientUnits="userSpaceOnUse"><stop style="stop-color:#333;stop-opacity:0" offset="0"/><stop style="stop-color:#575756;stop-opacity:.2" offset=".477"/><stop style="stop-color:#333;stop-opacity:1.911551e-03" offset=".995"/><stop style="stop-color:#333;stop-opacity:0" offset="1"/></linearGradient><path d="M46.6,251.5c0,0,61.1,130.9,178,117.5l22.6-44.2c-113,33-195.3-85.7-195.3-85.7L46.6,251.5z" class="st11"/></g></g></g></switch></svg>