<?xml version="1.0" encoding="UTF-8" standalone="no"?>
<!-- Created with Inkscape (http://www.inkscape.org/) -->

<svg
   xmlns:dc="http://purl.org/dc/elements/1.1/"
   xmlns:cc="http://creativecommons.org/ns#"
   xmlns:rdf="http://www.w3.org/1999/02/22-rdf-syntax-ns#"
   xmlns:svg="http://www.w3.org/2000/svg"
   xmlns="http://www.w3.org/2000/svg"
   xmlns:sodipodi="http://sodipodi.sourceforge.net/DTD/sodipodi-0.dtd"
   xmlns:inkscape="http://www.inkscape.org/namespaces/inkscape"
   version="1.1"
   id="svg869"
   width="256"
   height="256"
   viewBox="0 0 256 256"
   sodipodi:docname="gotify-indicator.svg"
   inkscape:version="0.92.3 (2405546, 2018-03-11)">
  <metadata
     id="metadata875">
    <rdf:RDF>
      <cc:Work
         rdf:about="">
        <dc:format>image/svg+xml</dc:format>
        <dc:type
           rdf:resource="http://purl.org/dc/dcmitype/StillImage" />
        <dc:title></dc:title>
      </cc:Work>
    </rdf:RDF>
  </metadata>
  <defs
     id="defs873" />
  <sodipodi:namedview
     pagecolor="#ffffff"
     bordercolor="#666666"
     borderopacity="1"
     objecttolerance="10"
     gridtolerance="10"
     guidetolerance="10"
     inkscape:pageopacity="0"
     inkscape:pageshadow="2"
     inkscape:window-width="1920"
     inkscape:window-height="1055"
     id="namedview871"
     showgrid="false"
     inkscape:zoom="1.7770522"
     inkscape:cx="259.30918"
     inkscape:cy="57.398424"
     inkscape:window-x="0"
     inkscape:window-y="0"
     inkscape:window-maximized="1"
     inkscape:current-layer="svg869" />
  <g
     id="g1478">
    <path
       style="fill:#000000;stroke-width:0.50132799"
       d="m 96.486123,247.68715 c -10.06255,-0.97212 -24.617502,-3.79883 -32.38122,-6.28873 -7.407463,-2.37566 -15.573847,-7.03332 -21.481436,-12.25187 -1.492838,-1.31872 -1.717686,-1.37146 -3.139416,-0.73652 -5.321303,2.3765 -6.976891,2.80035 -10.949663,2.80326 -8.495444,0.006 -17.668326,-5.13573 -20.0259728,-11.22575 -0.6595583,-1.70369 -0.6692618,-2.17359 -0.076433,-3.70223 1.2950457,-3.33934 4.8120568,-3.48669 8.4817108,-0.35534 2.679306,2.28627 4.9079,3.14859 8.103522,3.13551 2.873848,-0.0118 6.135741,-1.22685 7.274584,-2.70986 0.508368,-0.662 0.448151,-1.26902 -0.339437,-3.42179 -1.767077,-4.83004 -2.590024,-10.72238 -2.332924,-16.70375 0.294937,-6.8616 1.367911,-11.40398 4.013054,-16.98906 l 2.058205,-4.34578 -4.339844,-3.73366 c -2.57855,-2.21839 -4.661786,-4.46102 -5.133106,-5.52588 -0.773433,-1.74744 -0.75859,-1.86356 0.594066,-4.64705 1.995759,-4.10683 3.79138,-6.02821 5.441734,-5.82284 1.053268,0.13106 2.138405,1.29756 5.116478,5.50009 2.078835,2.93356 4.056314,5.33375 4.394402,5.33375 0.665694,0 10.753247,-10.95567 14.373981,-15.61096 3.241984,-4.16834 6.539495,-9.88606 8.023752,-13.91278 1.198527,-3.25157 1.297061,-4.09378 1.294493,-11.06476 -0.0023,-6.99468 -0.149252,-8.22883 -2.009913,-16.91187 -3.353663,-15.650322 -3.694907,-18.286681 -3.704561,-28.620093 -0.01001,-10.678808 0.76205,-15.472241 3.816869,-23.698399 0.953883,-2.568666 1.617675,-4.873673 1.475084,-5.122239 -0.142583,-0.248565 -1.512676,-0.98811 -3.044649,-1.643434 -5.168501,-2.210902 -8.375981,-4.155061 -8.775705,-5.319234 -0.505737,-1.472958 0.12664,-3.894837 2.24168,-8.585111 2.267127,-5.027544 4.236922,-6.88757 7.294046,-6.88757 2.891933,0 7.376596,1.610129 10.960127,3.935021 1.516638,0.983949 2.970938,1.789001 3.231773,1.789001 0.260845,0 1.578717,-1.069858 2.928619,-2.377457 5.137226,-4.976256 18.268627,-13.224209 23.159617,-14.54677 1.68356,-0.45525 2.5939,-1.669055 2.97572,-3.967691 0.94795,-5.7069567 5.65281,-6.8673437 15.42471,-3.8042832 3.79396,1.1892432 4.3547,1.2243822 14.81047,0.9280862 14.96849,-0.424174 24.43252,0.780319 35.98255,4.579518 12.29679,4.044839 22.7659,11.584337 30.82806,22.201327 l 2.75052,3.622128 3.97916,0.234125 c 3.11376,0.183205 4.59035,0.559004 6.78943,1.727933 3.43072,1.823614 7.74164,6.639342 9.69614,10.831553 0.88776,1.904151 1.91486,3.286063 2.81513,3.787648 2.78148,1.54967 4.2293,7.875243 2.4312,10.621932 -0.6746,1.030494 -0.81386,2.167084 -0.69956,5.709714 0.1547,4.794555 -0.72078,9.416496 -2.3466,12.388423 -1.19766,2.189286 -1.18301,2.829696 0.0927,4.052527 1.29031,1.236788 2.80503,4.720169 2.81911,6.483046 0.0213,2.674104 -2.34968,6.659439 -5.29193,8.894949 l -2.77995,2.11219 -0.2564,4.75969 c -0.14102,2.61782 -0.18288,4.84324 -0.093,4.94538 0.0899,0.10213 2.55235,-0.19057 5.47221,-0.65046 6.54182,-1.03035 10.8605,-1.08504 11.58333,-0.14667 0.29212,0.37923 0.79562,1.92406 1.11891,3.43297 0.46308,2.16144 0.95213,3.03634 2.30519,4.12389 2.50017,2.00958 2.89244,2.69895 2.90952,5.11313 0.0113,1.58982 -0.31762,2.59798 -1.2275,3.763 l -1.24286,1.59135 1.23773,9.50633 c 1.91893,14.73838 2.79235,24.92796 2.86856,33.4656 0.0883,9.8904 0.0748,9.91796 -5.7979,11.86575 -12.84818,4.26131 -44.98761,14.61934 -52.02978,16.76837 -7.86417,2.39988 -9.96214,3.49991 -9.96214,5.22346 0,0.35233 1.08476,1.02879 2.41057,1.50323 4.82379,1.7262 6.60494,6.10482 6.17238,15.17359 -0.3046,6.38597 -1.61732,10.69134 -3.98137,13.0578 -1.87451,1.87641 -2.90378,2.08124 -4.48026,0.89158 -1.59937,-1.20693 -2.21289,-4.47729 -1.86342,-9.933 0.26836,-4.18962 0.196,-4.8923 -0.61492,-5.97124 -0.78604,-1.04585 -1.44454,-1.25142 -4.54982,-1.42037 l -3.63075,-0.19753 -2.09676,2.07295 c -10.36983,10.25206 -25.84783,17.51725 -42.94176,20.15636 -6.5228,1.00706 -21.43196,1.41297 -28.130147,0.76587 z m 29.611687,-2.50571 c 18.31071,-3.35608 31.22017,-9.94263 42.40616,-21.63608 5.16731,-5.40174 10.62742,-12.54976 10.05631,-13.16507 -0.18084,-0.19483 -4.57278,0.76383 -9.75986,2.13036 -10.97321,2.89088 -14.30222,3.39503 -15.48457,2.34504 -2.73052,-2.42486 -11.08055,-29.8864 -15.88376,-52.23842 -0.73801,-3.43441 -1.55199,-6.53709 -1.80883,-6.89484 -0.25684,-0.35775 -0.94427,-0.65046 -1.52764,-0.65046 -2.30731,0 -6.19586,-1.69034 -8.05786,-3.50272 -1.97692,-1.92425 -3.14073,-3.89313 -3.82852,-6.47689 -0.71952,-2.70296 0.4322,-2.0268 2.0222,1.1872 1.74716,3.53169 3.77055,5.29325 7.45061,6.4865 6.61488,2.14485 17.59914,-1.11434 17.59914,-5.22192 0,-2.34587 -1.10762,-2.62144 -5.20206,-1.29425 -4.51681,1.4641 -7.92349,1.54865 -10.41044,0.25838 -2.0057,-1.04059 -3.05456,-2.43587 -3.30533,-4.39706 -0.23636,-1.84845 0.8201,-1.89562 1.52275,-0.068 0.66743,1.73599 1.93949,2.14305 1.93949,0.62063 0,-1.56222 1.43178,-2.52334 6.28313,-4.21772 8.95429,-3.12738 40.83898,-11.37822 66.88944,-17.30906 l 5.31286,-1.20957 v -4.15302 -4.15302 l -3.03858,-0.36109 c -5.23492,-0.62208 -8.72062,-4.10851 -9.14645,-9.14837 -0.33478,-3.962155 2.34932,-8.18271 6.97913,-10.974194 0.51975,-0.31338 0.83217,-1.32254 0.92284,-2.980903 0.21432,-3.919589 3.13635,-7.162513 7.06342,-7.839067 1.03993,-0.179165 2.01369,-0.670808 2.1639,-1.092543 0.42464,-1.192233 -1.66845,-11.778455 -3.48727,-17.637643 -2.00178,-6.448586 -4.77984,-12.534353 -8.39189,-18.383789 -3.01317,-4.879572 -10.41479,-13.262994 -14.60679,-16.544325 -9.72441,-7.61186 -22.29355,-12.383164 -37.24297,-14.137611 -6.04793,-0.709777 -19.38954,-0.706518 -25.3949,0.0062 -18.36985,2.180149 -36.538233,10.06219 -47.362719,20.547496 -2.050154,1.985914 -2.43239,2.624359 -2.19117,3.659848 0.160713,0.689863 0.153567,1.254297 -0.01585,1.254297 -0.169429,0 -1.442722,-0.972958 -2.829537,-2.162128 -3.560302,-3.052908 -8.167367,-5.202752 -11.83669,-5.523489 -2.718574,-0.237633 -3.165981,-0.135249 -4.27455,0.978183 -2.189581,2.199189 -5.731088,10.623746 -5.150842,12.252857 0.392954,1.103265 5.715113,3.726653 13.079076,6.446911 3.246647,1.199327 5.903011,2.387062 5.903011,2.639423 0,0.688156 -1.558476,0.554638 -3.895516,-0.333728 -2.601144,-0.988764 -2.800956,-0.799461 -4.769316,4.518427 -2.935162,7.9299 -3.611247,12.176076 -3.632294,22.81277 -0.02105,10.646186 0.177467,12.242061 3.463426,27.839538 5.22626,24.80755 3.129672,32.2904 -14.68284,52.40381 -12.290922,13.87859 -15.9166,19.69591 -18.083178,29.0141 -1.330346,5.72167 -1.098938,15.52195 0.493544,20.90162 1.247728,4.21505 1.972603,5.02612 3.193221,3.57298 0.893602,-1.06384 2.171899,-1.40384 2.171899,-0.57768 0,0.25367 -1.032385,1.64594 -2.294191,3.09393 -5.406425,6.20415 -12.980727,6.8559 -19.367986,1.66656 -1.4213,-1.15473 -3.090191,-2.09952 -3.708653,-2.09952 -1.269857,0 -2.642431,1.24907 -2.642431,2.40466 0,2.49021 3.907637,6.84712 7.911326,8.82093 9.349561,4.60932 19.058782,3.31387 24.429241,-3.25947 2.271392,-2.78013 3.153362,-2.57511 1.581401,0.36761 -0.593359,1.11077 -1.078838,2.32906 -1.078838,2.7073 0,1.67179 8.798385,7.9044 15.511081,10.98777 7.228815,3.32043 21.859919,6.86239 33.512125,8.11273 2.922071,0.31355 6.073563,0.66396 7.003316,0.77867 4.506114,0.55596 22.213244,-0.19856 27.530274,-1.17309 z m 26.47444,-128.62063 c -8.82156,-1.51131 -15.50975,-4.77307 -20.2085,-9.85548 -3.62112,-3.91679 -5.7447,-7.933666 -7.3142,-13.835282 -1.5163,-5.701572 -1.51825,-16.242833 -0.005,-22.246452 1.63362,-6.477363 4.55007,-11.994517 8.75491,-16.56201 3.06613,-3.330569 4.45617,-4.383577 8.71903,-6.604978 6.67256,-3.477112 9.63286,-4.282598 17.01986,-4.63104 9.16052,-0.432092 14.74311,1.157592 20.75086,5.908983 5.45854,4.31703 10.82137,13.530093 12.97968,22.298423 1.34629,5.469397 1.48723,15.119644 0.29262,20.034066 -3.00512,12.36248 -11.5142,21.13133 -23.75425,24.47944 -4.42634,1.21077 -13.10728,1.72165 -17.2359,1.01433 z m 18.18889,-2.845 c 5.59769,-1.77792 9.41707,-3.999 12.9971,-7.55818 7.56905,-7.524967 10.78552,-18.869379 8.80915,-31.06969 -2.57635,-15.904013 -11.7291,-27.626561 -23.72521,-30.386491 -1.59386,-0.366696 -5.07137,-0.651913 -7.7278,-0.633809 -14.14707,0.0964 -26.86909,7.811495 -32.0232,19.42004 -2.99037,6.735192 -3.66255,10.055448 -3.68716,18.212784 -0.0154,5.13023 0.20769,7.937198 0.82739,10.407305 3.08248,12.286531 11.35042,19.973411 24.33026,22.620331 5.79332,1.18141 14.69767,0.73517 20.19947,-1.01229 z M 167.8762,89.325326 c -2.259,-1.119267 -3.2578,-2.679105 -3.50738,-5.477462 -0.30029,-3.367079 0.53698,-5.905499 2.5877,-7.84541 1.39798,-1.322423 2.08576,-1.587102 4.12421,-1.587102 2.12524,0 2.65633,0.226154 4.0453,1.722615 2.98676,3.217897 3.33847,8.81851 0.74983,11.939911 -1.10325,1.330312 -1.74188,1.618749 -3.93388,1.776747 -1.56671,0.112931 -3.19827,-0.09947 -4.06578,-0.529299 z m 6.24434,-6.361115 c 0.89819,-0.967704 1,-3.397755 0.17939,-4.281867 -0.31877,-0.343441 -1.14468,-0.624438 -1.83535,-0.624438 -1.57758,0 -2.41493,0.878936 -2.41493,2.534839 0,2.618597 2.49336,4.07108 4.07089,2.371466 z M 60.680423,42.557279 c -1.707448,-2.626373 -0.324776,-5.608232 2.600506,-5.608232 3.124554,0 12.100111,5.380459 10.983107,6.583908 -0.170068,0.183223 -1.133528,-0.254586 -2.141031,-0.972915 -4.651887,-3.316714 -8.418151,-4.83486 -9.889608,-3.986414 -0.812269,0.468353 -0.905601,0.887659 -0.633196,2.844746 0.359234,2.580945 0.170027,2.815232 -0.919778,1.138907 z M 183.85635,240.03258 c 3.55683,-3.83209 4.67667,-18.18393 1.75548,-22.49821 -0.92442,-1.36527 -3.28193,-2.83371 -5.46844,-3.40617 -1.11969,-0.29315 -1.606,0.12623 -4.46763,3.85284 -1.76615,2.29999 -3.21118,4.29643 -3.21118,4.43654 0,0.1401 0.81504,0.40013 1.8112,0.57786 5.3842,0.96056 5.9166,1.83888 5.9166,9.76096 0,3.38955 0.22499,6.61574 0.49998,7.16933 0.62022,1.24859 2.05916,1.29719 3.16399,0.10685 z m -17.52067,-28.4781 c 9.72533,-2.50324 26.5141,-7.57641 47.65119,-14.39905 25.6122,-8.26712 29.96083,-9.79069 29.95135,-10.49364 -0.0118,-0.87773 -30.32292,-22.97824 -33.07591,-24.11643 -0.32671,-0.13507 -2.08574,1.69917 -3.90893,4.07608 -4.32157,5.63408 -5.39151,6.66489 -6.9083,6.65565 -0.69173,-0.004 -3.83188,-0.94087 -6.97811,-2.08146 -3.14622,-1.14058 -5.79897,-2.07379 -5.89498,-2.07379 -0.81745,0 -30.76543,43.60185 -30.39341,44.25037 0.33068,0.57646 0.0427,0.63124 9.5571,-1.81773 z M 163.39913,200.034 c 4.85317,-7.03918 11.7182,-16.88599 15.2556,-21.8818 3.5374,-4.99581 6.35663,-9.32574 6.26495,-9.62208 -0.0917,-0.29633 -2.55124,-1.58728 -5.46567,-2.86877 -2.91444,-1.28149 -10.91829,-4.91184 -17.78634,-8.06745 l -12.48736,-5.73747 -2.72673,1.30628 c -1.49971,0.71846 -4.08514,1.5895 -5.74541,1.93566 -2.42708,0.50603 -3.01867,0.82136 -3.01867,1.60903 0,1.36788 4.4321,19.93818 6.99919,29.32631 4.23605,15.49173 8.21104,26.79881 9.42107,26.79881 0.25598,0 4.43619,-5.75933 9.28937,-12.79852 z m 83.08136,-17.42356 c 0.94706,-5.82412 -2.13902,-37.20431 -5.47174,-55.63819 -1.25265,-6.92863 -1.35469,-7.29073 -2.04523,-7.25827 -0.31415,0.0148 -3.61286,4.73946 -7.33046,10.49935 -3.71761,5.75987 -9.77052,14.933 -13.45093,20.38471 l -6.69165,9.91222 1.13475,0.94505 c 0.62412,0.51979 8.02853,5.8631 16.45426,11.87403 8.42573,6.01094 15.455,11.16518 15.6206,11.45387 0.60652,1.05732 1.41574,0.0698 1.7804,-2.17277 z M 39.119411,170.48129 c 1.568211,-2.1296 1.832805,-3.15101 0.965819,-3.7283 -0.288113,-0.19184 -2.037557,-2.5473 -3.887659,-5.23436 -1.850107,-2.68706 -3.670687,-4.88556 -4.045728,-4.88556 -0.938352,0 -2.279194,1.64841 -3.817063,4.69265 -1.075591,2.12916 -1.202122,2.75597 -0.742928,3.68038 1.150598,2.31628 8.484563,8.4444 9.422344,7.87311 0.338559,-0.20625 1.285904,-1.28531 2.105215,-2.39792 z m 163.379539,-0.709 c 2.37041,-2.66729 7.84685,-10.32532 15.26226,-21.34212 7.90688,-11.74696 19.90665,-30.15243 19.90665,-30.53319 0,-2.76048 -76.86994,14.73814 -97.32193,22.1543 -5.32613,1.93132 -5.92208,2.72732 -3.13941,4.19323 2.11563,1.11452 3.66392,1.15397 6.27883,0.15997 5.01513,-1.90637 8.11417,-0.16667 7.5046,4.21284 l -0.2989,2.14751 11.97349,5.51124 c 19.6458,9.0427 35.10139,15.43295 37.35304,15.44394 0.41097,0.002 1.52758,-0.87446 2.48137,-1.94772 z m 42.3233,-40.08204 c 0.17123,-1.25043 -0.67317,-3.23837 -1.37554,-3.23837 -0.52499,0 -0.60207,1.74131 -0.15641,3.53375 0.35614,1.43239 1.32082,1.24639 1.53195,-0.29538 z M 217.2843,115.05427 c 0.0789,-2.11878 -0.0527,-4.0636 -0.29238,-4.32182 -0.23968,-0.25823 -0.98422,-0.3212 -1.65454,-0.13994 -1.00679,0.27224 -1.2574,0.70715 -1.44091,2.50054 -0.12218,1.19404 -0.12337,3.0619 -0.002,4.15082 0.20669,1.86419 0.30794,1.97058 1.73329,1.82128 l 1.51341,-0.15856 z m 3.48486,2.28362 c 0.81019,-1.05176 1.25665,-7.79919 0.54731,-8.27152 -0.29326,-0.19527 -0.97238,-0.10181 -1.50915,0.2077 -0.85389,0.49234 -0.97597,1.08118 -0.97597,4.70735 0,3.17346 0.1559,4.14462 0.66535,4.14462 0.36593,0 0.93854,-0.35467 1.27246,-0.78815 z m -4.57496,-8.86314 c 3.74903,-1.04849 7.57603,-2.95127 9.86614,-4.90543 3.85445,-3.28904 4.4709,-8.380181 1.42471,-11.766281 -1.88351,-2.093679 -2.73195,-2.238154 -3.12921,-0.532837 -0.15938,0.684141 -0.92799,1.902664 -1.70804,2.707829 -1.1906,1.228943 -1.92377,1.498622 -4.56736,1.679978 -2.79604,0.19182 -3.50462,0.02746 -6.32031,-1.465972 -3.56203,-1.889287 -4.08762,-1.814608 -7.06747,1.004209 -2.32501,2.19938 -3.41738,5.234764 -2.78738,7.745364 1.46251,5.82827 6.39882,7.73977 14.28892,5.53314 z m 5.05209,-16.689176 c 1.63987,-1.715347 1.63101,-5.352613 -0.0176,-7.243329 -2.56395,-2.940417 -7.42118,-2.777576 -9.84833,0.330166 -2.04665,2.620539 -1.51865,5.470754 1.30727,7.056842 3.56437,2.000564 6.55684,1.950326 8.55871,-0.143679 z m 6.52033,-7.743466 c 1.37591,-2.964789 1.44745,-3.436991 1.41885,-9.366575 -0.0859,-17.820888 -8.60619,-32.002469 -19.227,-32.002469 -1.14115,0 -2.20547,0.140757 -2.36514,0.31279 -0.15968,0.172033 0.47082,1.752642 1.40111,3.512466 4.22429,7.991084 7.24215,16.975686 8.8818,26.442425 1.34242,7.750661 1.16606,7.292484 3.31457,8.611089 1.34896,0.827898 2.13093,1.81935 2.7777,3.521832 0.57397,1.510843 1.16274,2.319008 1.62467,2.230094 0.39846,-0.0767 1.37651,-1.544446 2.17344,-3.261652 z M 114.74761,13.733633 c 6.82769,-1.751823 6.52033,-1.646668 6.52033,-2.23066 0,-0.81115 -7.10132,-2.2860637 -9.56582,-1.9867821 -2.66977,0.3242104 -4.44081,2.1693091 -4.44081,4.6264881 0,1.399469 0.13188,1.554017 1.08672,1.273439 0.5977,-0.175633 3.4775,-0.93275 6.39958,-1.682485 z"
       id="path883"
       inkscape:connector-curvature="0" />
    <path
       inkscape:connector-curvature="0"
       id="path911"
       d="m 217.0169,93.369606 c -1.27444,-0.120686 -2.36996,-0.455433 -3.74576,-1.144551 -0.91471,-0.458164 -1.4808,-0.857606 -1.99423,-1.407164 -0.57641,-0.61696 -0.91932,-1.284041 -1.06547,-2.072699 -0.0741,-0.399718 -0.0692,-0.996866 0.0115,-1.410982 0.20528,-1.052981 0.76462,-2.078747 1.61214,-2.956487 0.91062,-0.94309 2.13397,-1.588342 3.4593,-1.824589 0.6091,-0.108576 1.47159,-0.13147 2.02446,-0.05374 1.21986,0.171507 2.27875,0.621054 3.1653,1.343816 1.06841,0.87102 1.65057,1.906361 1.89548,3.371011 0.0529,0.316507 0.0586,0.409691 0.0601,0.988134 0.002,0.674797 -0.0132,0.852575 -0.11362,1.34599 -0.0781,0.383953 -0.20874,0.782593 -0.37624,1.148445 -0.28969,0.632764 -0.64644,1.081451 -1.24543,1.566396 -0.68441,0.554106 -1.47851,0.905537 -2.37424,1.05073 -0.28437,0.0461 -1.06513,0.0792 -1.31339,0.05569 z"
       style="opacity:1;fill:#888e93;fill-opacity:1;fill-rule:nonzero;stroke:none;stroke-width:0.03510291;stroke-linecap:round;stroke-miterlimit:4;stroke-dasharray:none;stroke-dashoffset:0;stroke-opacity:1" />
    <path
       inkscape:connector-curvature="0"
       id="path915"
       d=""
       style="opacity:1;fill:#ddcba2;fill-opacity:1;fill-rule:nonzero;stroke:none;stroke-width:0.05265435;stroke-linecap:round;stroke-miterlimit:4;stroke-dasharray:none;stroke-dashoffset:0;stroke-opacity:1" />
    <path
       inkscape:connector-curvature="0"
       id="path917"
       d=""
       style="opacity:1;fill:#ddcba2;fill-opacity:1;fill-rule:nonzero;stroke:none;stroke-width:0.05265435;stroke-linecap:round;stroke-miterlimit:4;stroke-dasharray:none;stroke-dashoffset:0;stroke-opacity:1" />
    <path
       inkscape:connector-curvature="0"
       id="path919"
       d="m 209.53197,109.31895 c -3.79716,-0.28478 -6.29071,-2.19076 -7.3998,-5.65616 -0.16686,-0.52134 -0.2849,-1.01638 -0.33876,-1.42062 -0.0605,-0.4538 -0.0249,-1.51892 0.0672,-2.01261 0.2439,-1.307344 0.88493,-2.68676 1.79043,-3.852755 0.83542,-1.075765 2.54671,-2.620668 3.43733,-3.103116 0.44853,-0.242969 0.79513,-0.336173 1.24989,-0.336112 0.80174,1.05e-4 1.42727,0.235136 3.50764,1.317936 2.38867,1.243262 3.13066,1.472168 4.77061,1.471753 0.71398,-1.81e-4 1.44203,-0.03998 2.32635,-0.127172 1.59769,-0.157529 2.35161,-0.411886 3.12938,-1.055788 0.32591,-0.269815 0.94497,-0.932643 1.2416,-1.329383 0.56243,-0.75226 0.88138,-1.355011 1.09382,-2.067135 0.0945,-0.316728 0.18354,-0.54008 0.26561,-0.666176 0.43514,-0.668581 1.13055,-0.404359 2.40257,0.912861 0.78242,0.810224 1.28546,1.522966 1.66461,2.358566 1.50919,3.326012 0.36171,7.297131 -2.87614,9.953561 -3.34339,2.74301 -9.16655,5.08614 -13.81641,5.55947 -0.67432,0.0686 -1.94862,0.0954 -2.51595,0.0529 z"
       style="opacity:1;fill:#ddcba2;fill-opacity:1;fill-rule:nonzero;stroke:none;stroke-width:0.05265435;stroke-linecap:round;stroke-miterlimit:4;stroke-dasharray:none;stroke-dashoffset:0;stroke-opacity:1" />
    <path
       inkscape:connector-curvature="0"
       id="path925"
       d=""
       style="opacity:1;fill:#71caee;fill-opacity:1;fill-rule:nonzero;stroke:none;stroke-width:0.07898153;stroke-linecap:round;stroke-miterlimit:4;stroke-dasharray:none;stroke-dashoffset:0;stroke-opacity:1" />
    <path
       inkscape:connector-curvature="0"
       id="path927"
       d=""
       style="opacity:1;fill:#71caee;fill-opacity:1;fill-rule:nonzero;stroke:none;stroke-width:0.07898153;stroke-linecap:round;stroke-miterlimit:4;stroke-dasharray:none;stroke-dashoffset:0;stroke-opacity:1" />
    <path
       inkscape:connector-curvature="0"
       id="path931"
       d="M 100.85621,246.23147 C 89.36353,245.72166 72.503348,242.50182 62.346634,238.87718 55.811563,236.545 46.538443,231.01985 43.632904,227.72709 l -1.038964,-1.17742 0.943409,-2.19385 c 0.518878,-1.20661 0.943415,-2.36074 0.943415,-2.56473 0,-0.83823 -1.081981,-0.26996 -2.502325,1.31423 -3.836864,4.27949 -7.329206,5.83676 -13.168142,5.87181 -6.590489,0.0396 -12.119251,-2.13471 -16.074622,-6.32158 -2.69338,-2.85102 -3.2973252,-4.47201 -2.217314,-5.95128 0.421258,-0.57699 1.147459,-1.04907 1.613785,-1.04907 0.466326,0 2.203459,0.92225 3.860292,2.04944 4.155065,2.82681 6.059087,3.44554 9.900511,3.21727 4.488358,-0.26669 7.826177,-2.26128 10.992906,-6.56902 0.891645,-1.21292 1.089773,-1.75312 0.76952,-2.09815 -0.320247,-0.34503 -0.74261,-0.21668 -1.640491,0.49853 -1.633818,1.30141 -2.216332,0.83206 -3.314731,-2.67078 -1.973504,-6.29359 -1.994795,-16.64066 -0.04827,-23.45814 2.227978,-7.80325 5.415956,-12.67319 17.401242,-26.58208 3.230528,-3.74902 6.766778,-8.01099 7.85833,-9.47106 7.664012,-10.25139 10.11978,-18.06693 9.118493,-29.01984 C 66.610646,116.9647 65.936906,113.1338 62.9401,98.296431 61.575572,91.540548 61.567557,91.442362 61.528363,81.001455 61.484173,69.222826 61.762954,66.738107 63.85756,60.243147 c 1.660066,-5.147524 2.754865,-7.665702 3.45935,-7.956961 0.303445,-0.125451 1.693153,0.0705 3.088249,0.435441 1.706497,0.446405 2.662762,0.527539 2.922275,0.247946 0.550959,-0.5936 0.08091,-0.840686 -7.060903,-3.711641 -6.873816,-2.763224 -11.296409,-4.987899 -11.564684,-5.817327 -0.498914,-1.542515 2.705895,-9.196616 4.900271,-11.703397 0.975137,-1.113968 1.503311,-1.384135 2.696377,-1.37924 3.954561,0.01623 9.144442,2.275955 13.706784,5.968084 1.257141,1.017361 2.418095,1.849747 2.579894,1.849747 0.161795,0 0.294171,-0.632145 0.294171,-1.404767 0,-1.203875 0.357776,-1.757974 2.501773,-3.874598 9.118212,-9.001789 24.937273,-16.352171 41.860513,-19.450628 6.07825,-1.112861 21.58316,-1.561906 28.89347,-0.836796 13.7249,1.361376 26.70722,5.861228 36.25519,12.566557 3.56247,2.501849 8.33768,7.227601 12.64516,12.514206 7.84618,9.629685 13.29727,22.65273 15.61336,37.301451 0.69813,4.415465 0.66513,4.540454 -1.32177,5.006077 -0.52554,0.123156 -1.86226,0.677411 -2.9705,1.231677 -2.38314,1.191884 -4.06054,3.678696 -4.47114,6.628605 -0.376,2.701397 -0.41274,2.762222 -2.6885,4.450903 -6.03538,4.478407 -6.96896,11.903184 -2.06532,16.425354 1.53424,1.41488 4.61765,2.73533 6.4107,2.74534 2.64982,0.0148 2.7271,0.13774 2.7271,4.3384 0,3.30009 -0.0935,3.86512 -0.66886,4.04328 -0.36787,0.1139 -4.79669,1.15914 -9.84181,2.32275 -23.54062,5.42945 -53.32829,13.22438 -61.40829,16.06952 -5.04304,1.77575 -6.34347,2.54562 -6.67038,3.94895 -0.30593,1.31328 -0.81097,1.23298 -1.59623,-0.25382 -0.35956,-0.68079 -0.97295,-1.23392 -1.36995,-1.23535 -0.60516,-0.002 -0.68533,0.22012 -0.5068,1.40538 0.72967,4.84442 6.02307,6.57628 13.54169,4.43047 4.03794,-1.15243 4.60729,-1.13647 5.14894,0.14432 0.60349,1.42703 -0.47306,2.93985 -3.10605,4.36475 -2.57256,1.3922 -5.46833,2.00603 -9.46352,2.00603 -5.33151,0 -9.04644,-1.89356 -11.21422,-5.71604 -1.59524,-2.81292 -2.6816,-4.20304 -3.07822,-3.93895 -0.90921,0.60541 1.22075,5.48177 3.34427,7.6564 1.74746,1.78952 4.75159,3.47719 6.8383,3.84164 3.2926,0.57505 3.14705,0.44932 3.94868,3.41095 0.41323,1.5267 1.44646,5.83331 2.29608,9.57026 3.85283,16.9463 10.00148,37.61568 13.23468,44.48985 1.44704,3.07661 2.24182,3.47617 5.7851,2.90839 1.60618,-0.25738 5.92534,-1.21474 9.59813,-2.12747 3.67278,-0.91272 6.74337,-1.58884 6.82353,-1.50248 0.28351,0.30545 -0.3517,5.23414 -0.67457,5.23414 -0.18027,0 -0.32776,0.34066 -0.32776,0.75701 0,0.87852 -7.44245,8.8211 -11.03703,11.77871 -1.34056,1.10301 -4.07193,3.07919 -6.0697,4.3915 l -3.63232,2.38602 -1.83923,-1.00414 c -3.15735,-1.72377 -7.42025,-3.07304 -9.70898,-3.07304 -3.73,0 -5.34247,1.50435 -8.06392,7.52318 -0.89806,1.98618 -1.68904,3.78767 -1.75773,4.00334 -0.42198,1.32482 -20.06247,3.01636 -29.937,2.57834 z m 61.24173,-129.40334 c 7.79187,-0.65289 13.39178,-2.51352 18.60929,-6.18313 10.06933,-7.08204 14.86913,-18.661145 13.63561,-32.894766 -0.47885,-5.525584 -1.16282,-8.493336 -3.03659,-13.175947 -4.19551,-10.484697 -10.82288,-17.621156 -19.06227,-20.526563 -5.62813,-1.984615 -17.63304,-1.750753 -23.66629,0.461032 -3.93865,1.443903 -9.88553,4.756189 -12.29959,6.850608 -7.00005,6.073176 -11.41365,15.300915 -12.31619,25.75012 -0.92587,10.719167 1.12252,20.033125 5.8994,26.824386 4.83755,6.87749 13.43324,11.57803 23.54828,12.87732 3.50968,0.45083 3.51007,0.45083 8.68835,0.0169 z M 61.791618,41.28037 c -0.207885,-2.1701 -0.182963,-2.246004 0.827185,-2.519156 1.497964,-0.40506 3.747006,0.417774 7.567035,2.768476 3.848247,2.368062 5.48159,2.575508 3.394288,0.431098 -1.957525,-2.011083 -7.310252,-4.712247 -9.774216,-4.932392 -1.835708,-0.164011 -2.182041,-0.06486 -3.053714,0.874273 -1.193383,1.285737 -1.26392,2.860365 -0.211449,4.720203 1.044059,1.844971 1.508469,1.34654 1.250871,-1.342502 z"
       style="opacity:1;fill:#71caee;fill-opacity:1;fill-rule:nonzero;stroke:none;stroke-width:0.59976602;stroke-linecap:round;stroke-miterlimit:4;stroke-dasharray:none;stroke-dashoffset:0;stroke-opacity:1" />
    <path
       sodipodi:nodetypes="ssccsccccssssccsssscscssccsccssccssscsssscccssscsssccccssscscccsccssssccsssssssssscsssscss"
       inkscape:connector-curvature="0"
       id="path933"
       d="m 93.785394,245.52307 c -10.241039,-1.2165 -23.144709,-3.9567 -30.194311,-6.412 -7.792516,-2.71405 -19.731593,-9.90565 -20.440656,-12.3126 -0.117221,-0.39791 0.130375,-1.53918 0.550211,-2.53615 1.525988,-3.62371 0.912049,-3.71184 -2.67654,-0.38421 -3.171184,2.94058 -4.165814,3.52886 -7.321716,4.33047 -4.900914,1.24485 -11.344777,0.44798 -15.976071,-1.97565 -2.908532,-1.52208 -7.076697,-5.67488 -7.484557,-7.45697 -0.22794,-0.99597 -0.09971,-1.36572 0.745223,-2.14875 1.201529,-1.11349 1.356392,-1.06854 5.783821,1.67859 3.923793,2.43464 5.395539,2.84558 9.274496,2.58962 4.125234,-0.27221 6.453485,-1.48612 9.581368,-4.99558 1.296123,-1.45424 2.356591,-2.85123 2.356591,-3.10442 0,-0.80027 -1.077905,-0.94484 -1.978349,-0.26534 -1.348952,1.01797 -1.827114,0.79954 -2.652967,-1.21194 -1.432362,-3.48868 -1.975383,-8.07072 -1.755254,-14.81095 0.426633,-13.06339 2.76959,-17.7026 18.116205,-35.87127 12.554071,-14.86259 15.547599,-19.90741 17.159668,-28.91817 1.081722,-6.04634 0.529161,-11.61286 -2.778769,-27.99332 L 61.958172,93.149117 61.781163,82.768236 c -0.113083,-6.631615 -0.01721,-11.674867 0.265522,-13.963639 0.466996,-3.780871 2.506731,-10.921407 4.067951,-14.240758 0.823676,-1.751238 1.069497,-1.974416 2.164916,-1.965493 0.679654,0.0055 1.994084,0.198401 2.920953,0.428587 1.18377,0.29399 1.808327,0.285891 2.098939,-0.02722 0.585543,-0.630858 0.276281,-0.798149 -7.988429,-4.321168 -3.994059,-1.702557 -7.949896,-3.52304 -8.790751,-4.045517 -1.403415,-0.872036 -1.521374,-1.079619 -1.437995,-2.530601 0.104579,-1.819943 2.65659,-7.75117 4.167404,-9.685624 1.44135,-1.845514 2.472798,-2.167553 5.222067,-1.630434 3.412033,0.666601 6.669063,2.20704 10.462744,4.948435 1.854349,1.339997 3.500542,2.4374 3.658203,2.438673 0.15766,0.0013 0.286654,-0.500213 0.286654,-1.114414 0,-2.385824 8.042833,-9.356102 15.417505,-13.361488 9.915534,-5.385401 22.627574,-9.451126 33.313814,-10.654838 2.31235,-0.260464 8.67609,-0.481979 14.14164,-0.492248 8.29367,-0.01556 10.82243,0.127064 15.28825,0.862428 14.14064,2.328472 26.1545,7.350493 34.28543,14.331959 7.38267,6.338991 14.2609,15.42927 18.40334,24.321867 3.12599,6.710579 6.70205,19.609592 6.85701,24.733546 l 0.0784,2.593291 -1.98201,0.731697 c -4.25447,1.570607 -6.13834,3.781016 -7.0269,8.244861 -0.36322,1.824728 -0.67711,2.276546 -2.94167,4.234399 -3.26915,2.826374 -4.6754,5.54829 -4.6754,9.049603 0,5.27522 3.47509,8.9517 9.29978,9.83873 1.23594,0.18822 2.31426,0.41449 2.39625,0.50283 0.36684,0.39523 0.60638,4.11518 0.37297,5.79209 -0.25093,1.80285 -0.30201,1.85993 -2.05444,2.29566 -0.98842,0.24577 -6.88523,1.64795 -13.10402,3.11595 -24.13098,5.69637 -50.22755,12.62045 -57.26172,15.19299 -4.33723,1.58623 -5.77133,2.43813 -6.05217,3.59521 -0.25137,1.03559 -0.56206,0.98617 -1.55794,-0.24783 -1.11758,-1.38481 -1.98288,-1.33985 -1.98106,0.10294 0.002,1.71304 1.30714,3.66849 3.13678,4.70031 2.08487,1.17576 6.54001,1.25771 10.47946,0.19276 3.5943,-0.97164 4.88198,-0.81377 5.03593,0.61737 0.29284,2.7224 -5.47462,5.40335 -11.70086,5.43903 -6.53581,0.0374 -9.22466,-1.46984 -13.06804,-7.32556 -2.15294,-3.2802 -3.03949,-2.22862 -1.31678,1.56189 1.88285,4.14287 5.68538,7.18979 10.15518,8.13723 1.34493,0.28507 2.40715,0.75365 2.59823,1.14614 0.17777,0.36517 1.31069,4.83326 2.5176,9.9291 5.81165,24.53796 12.22661,45.1502 14.97949,48.13132 1.26085,1.3654 1.33527,1.38829 3.66258,1.12652 1.30657,-0.14696 5.82309,-1.43957 9.60609,-2.34226 3.78299,-0.90268 12.63035,-3.43073 12.89396,-3.43073 0.72834,0 -4.90768,6.64415 -5.72513,8.56361 -1.53413,3.60227 -12.37532,12.18838 -19.2878,16.49913 l -1.83083,1.14174 c -15.03665,7.44709 -13.93805,6.44649 -22.93306,8.14717 -5.43401,1.57646 -27.01643,2.45497 -35.513836,1.44559 z M 163.61333,116.79692 c 18.33232,-2.20237 29.82585,-14.19659 30.94763,-32.295765 1.12348,-18.126791 -8.94737,-36.132188 -22.80546,-40.773229 -3.19493,-1.069974 -13.98555,-1.319806 -18.71874,-0.43339 -6.51704,1.220488 -13.94515,5.118438 -18.4755,9.69514 -5.99235,6.053657 -9.49028,13.72367 -10.59835,23.239238 -1.63583,14.047721 2.658,26.769146 11.27011,33.390206 7.86604,6.04749 17.50228,8.48464 28.38031,7.1778 z M 61.998095,41.321932 l -0.126938,-2.11667 1.656987,-0.12834 c 1.387236,-0.107446 2.334133,0.244502 5.816395,2.161872 4.042191,2.225674 5.330531,2.68852 5.330531,1.915032 0,-1.563332 -7.793942,-5.877255 -11.081252,-6.13344 -2.023896,-0.157725 -2.234969,-0.08768 -3.03634,1.007684 -1.002831,1.370722 -0.914494,3.801562 0.185748,5.111402 0.976999,1.16312 1.39713,0.554611 1.254869,-1.81754 z"
       style="opacity:1;fill:#1d98dc;fill-opacity:1;fill-rule:nonzero;stroke:none;stroke-width:0.59976602;stroke-linecap:round;stroke-miterlimit:4;stroke-dasharray:none;stroke-dashoffset:0;stroke-opacity:1" />
    <path
       inkscape:connector-curvature="0"
       id="path935"
       d="m 35.9918,172.51421 c -2.47326,-1.26059 -7.568891,-5.89599 -8.330638,-7.57822 -0.254596,-0.56225 -0.294963,-0.77427 -0.230335,-1.20971 0.154084,-1.03816 2.073799,-4.63779 3.199068,-5.99853 0.258947,-0.31313 0.696606,-0.68709 0.97257,-0.83102 0.482644,-0.25172 0.513254,-0.25358 0.803526,-0.0487 0.413357,0.29181 1.859294,2.07271 3.129803,3.85485 2.888152,4.05122 3.811665,5.30505 4.361827,5.92195 0.698549,0.78328 0.745482,1.07081 0.321828,1.97156 -0.586417,1.2468 -2.966446,4.28105 -3.357815,4.28082 -0.08678,-6e-5 -0.478207,-0.16342 -0.869834,-0.36303 z"
       style="opacity:1;fill:#1d98dc;fill-opacity:1;fill-rule:nonzero;stroke:none;stroke-width:0.17770845;stroke-linecap:round;stroke-miterlimit:4;stroke-dasharray:none;stroke-dashoffset:0;stroke-opacity:1" />
    <path
       inkscape:connector-curvature="0"
       id="path937"
       d=""
       style="opacity:1;fill:#71caee;fill-opacity:1;fill-rule:nonzero;stroke:none;stroke-width:0.03510291;stroke-linecap:round;stroke-miterlimit:4;stroke-dasharray:none;stroke-dashoffset:0;stroke-opacity:1" />
    <path
       inkscape:connector-curvature="0"
       id="path939"
       d="m 31.3939,191.5045 c 0.0058,-0.0364 0.04587,-0.30334 0.08919,-0.59309 0.23615,-1.57947 0.697291,-3.51389 1.30787,-5.48633 2.019128,-6.52271 5.410667,-11.90293 13.376986,-21.22078 1.041867,-1.21863 2.043738,-2.36898 3.568716,-4.09762 1.080844,-1.22519 1.834621,-2.08685 2.414241,-2.75977 0.75049,-0.8713 0.699863,-0.81872 0.78834,-0.81872 0.04306,0 0.07495,0.01 0.07084,0.0214 -0.0095,0.0272 -1.308639,1.55861 -2.567737,3.0267 -1.583602,1.84645 -2.510611,2.93026 -3.010204,3.51936 -7.224428,8.51871 -10.559327,13.18048 -12.64632,17.67795 -0.732292,1.57809 -1.247597,2.93389 -1.827689,4.80877 -0.597416,1.93087 -0.93732,3.42448 -1.232523,5.416 l -0.08485,0.5724 h -0.128641 c -0.127948,0 -0.128586,-3.6e-4 -0.118222,-0.0663 z"
       style="opacity:1;fill:#71caee;fill-opacity:1;fill-rule:nonzero;stroke:none;stroke-width:0.03510291;stroke-linecap:round;stroke-miterlimit:4;stroke-dasharray:none;stroke-dashoffset:0;stroke-opacity:1" />
    <path
       inkscape:connector-curvature="0"
       id="path941"
       d="m 36.740628,172.90415 c -0.275656,-0.0465 -0.711988,-0.24866 -1.25778,-0.58284 l -0.07111,-0.0435 -0.0014,-0.044 c -9.05e-4,-0.0241 -2.4e-4,-0.0439 9.06e-4,-0.0439 0.0014,0 0.03563,0.02 0.07639,0.0446 0.274742,0.16535 0.531511,0.30106 0.831908,0.4397 0.247343,0.11416 0.442092,0.18914 0.528975,0.20366 0.05709,0.01 0.17081,-0.0614 0.332691,-0.20754 0.316648,-0.28586 0.837794,-0.88456 1.385801,-1.59203 0.621432,-0.80226 1.177838,-1.61218 1.492172,-2.17205 0.19216,-0.34225 0.349358,-0.71122 0.400701,-0.94047 0.02169,-0.0968 0.02726,-0.13997 0.02966,-0.22946 0.0032,-0.10989 -0.0045,-0.16856 -0.03677,-0.2916 -0.0027,-0.0107 -0.0027,-0.0107 0.05037,-0.0107 h 0.05319 l 0.0023,0.0131 c 0.01829,0.0968 0.01444,0.27853 -0.0088,0.41536 -0.08731,0.51405 -0.430387,1.18922 -1.077679,2.12087 -0.554124,0.79756 -1.231228,1.65105 -1.802848,2.27252 -0.358827,0.39011 -0.591992,0.60323 -0.701823,0.64149 -0.04988,0.0174 -0.147328,0.0203 -0.227306,0.007 z"
       style="opacity:1;fill:#71caee;fill-opacity:1;fill-rule:nonzero;stroke:none;stroke-width:0.00693391;stroke-linecap:round;stroke-miterlimit:4;stroke-dasharray:none;stroke-dashoffset:0;stroke-opacity:1" />
    <path
       inkscape:connector-curvature="0"
       id="path945"
       d="m 181.21995,239.72962 c -0.32517,-0.35034 -0.59122,-3.40633 -0.59122,-6.79109 0,-7.0688 -1.0454,-9.17939 -4.98363,-10.06163 l -2.7497,-0.61598 3.22169,-4.01047 c 2.95051,-3.67289 3.41697,-3.92983 5.54162,-3.05253 3.99681,1.65035 5.22265,4.78875 4.8367,12.38298 -0.43158,8.49192 -3.05727,14.53857 -5.27546,12.14872 z"
       style="opacity:1;fill:#ddcba2;fill-opacity:1;fill-rule:nonzero;stroke:none;stroke-width:1.34947348;stroke-linecap:round;stroke-miterlimit:4;stroke-dasharray:none;stroke-dashoffset:0;stroke-opacity:1" />
    <path
       inkscape:connector-curvature="0"
       id="path951"
       d="m 24.168005,228.50706 c -2.662639,-0.47119 -5.860955,-1.70194 -7.913228,-3.04511 -1.950986,-1.27688 -4.440814,-3.74377 -5.37582,-5.32629 -0.9443741,-1.59837 -0.9309848,-2.57621 0.04974,-3.63283 0.937949,-1.01054 1.37904,-0.94063 3.94305,0.62493 0.980997,0.59899 2.851607,1.66162 4.156908,2.3614 2.26187,1.2126 2.495697,1.2782 4.981055,1.39729 2.091613,0.10022 3.028498,0.0103 4.733391,-0.45417 2.597803,-0.70777 3.992329,-1.55772 6.067817,-3.69826 l 1.593265,-1.64321 1.835549,1.89731 c 1.009551,1.04352 2.055275,2.12868 2.323831,2.41147 0.431338,0.45421 1.178785,2.75917 1.187012,3.66048 0.0041,0.4683 -3.186552,3.1734 -4.724729,4.0055 -0.708343,0.38319 -1.969623,0.89575 -2.802844,1.13902 -2.127796,0.62125 -7.363587,0.77875 -10.054993,0.30247 z"
       style="opacity:1;fill:#ddcba2;fill-opacity:1;fill-rule:nonzero;stroke:none;stroke-width:0.39984402;stroke-linecap:round;stroke-miterlimit:4;stroke-dasharray:none;stroke-dashoffset:0;stroke-opacity:1" />
    <path
       inkscape:connector-curvature="0"
       id="path971"
       d="m 107.5587,13.809704 c 0,-0.620225 0.63736,-1.772787 1.41635,-2.561243 1.29899,-1.3147794 1.77132,-1.4046351 5.70061,-1.084469 2.35635,0.192005 4.73931,0.623458 5.29547,0.958791 1.08711,0.65546 1.32437,0.559507 -7.04874,2.850693 -4.53034,1.239666 -5.36369,1.214221 -5.36369,-0.163772 z"
       style="opacity:1;fill:#1d98dc;fill-opacity:1;fill-rule:nonzero;stroke:none;stroke-width:0.89964902;stroke-linecap:round;stroke-miterlimit:4;stroke-dasharray:none;stroke-dashoffset:0;stroke-opacity:1" />
    <path
       inkscape:connector-curvature="0"
       id="path838"
       d="m 150.42099,114.41014 c -12.58841,-2.92171 -20.16565,-9.7145 -23.59421,-21.151555 -1.2732,-4.247164 -1.29346,-18.037895 -0.0335,-22.790551 3.48315,-13.13852 13.49978,-22.575178 26.83967,-25.285632 11.75433,-2.388296 20.6471,-0.0099 28.02014,7.494066 4.28488,4.360968 7.17009,9.51678 9.33816,16.687057 1.30819,4.326466 1.52997,6.083803 1.5598,12.359102 0.0312,6.572257 -0.12153,7.763013 -1.50353,11.720438 -3.68042,10.539065 -11.27563,17.634465 -21.79431,20.360125 -4.95212,1.28323 -14.58132,1.59357 -18.83224,0.60695 z m 24.56338,-25.135958 c 2.6837,-1.436272 3.53519,-7.422983 1.59631,-11.223486 -1.55342,-3.044968 -3.38019,-4.147103 -6.23834,-3.763745 -3.95335,0.530256 -6.15181,3.652468 -6.11453,8.683743 0.023,3.099163 0.93873,5.063753 2.85565,6.126219 1.63572,0.90661 6.34087,1.012177 7.90091,0.177269 z"
       style="opacity:1;fill:#ffffff;fill-opacity:1;fill-rule:nonzero;stroke:none;stroke-width:0.85074091;stroke-linecap:round;stroke-miterlimit:4;stroke-dasharray:none;stroke-dashoffset:0;stroke-opacity:1" />
    <path
       inkscape:connector-curvature="0"
       id="path840"
       d="m 170.75115,82.269773 c -0.96098,-2.504257 0.30743,-4.368222 2.56992,-3.776569 0.85261,0.222962 1.03988,0.702719 0.90485,2.318017 -0.14433,1.726438 -0.39517,2.062945 -1.6459,2.207988 -0.96153,0.111506 -1.59869,-0.14959 -1.82887,-0.749436 z"
       style="opacity:1;fill:#ffffff;fill-opacity:1;fill-rule:nonzero;stroke:none;stroke-width:0.85074091;stroke-linecap:round;stroke-miterlimit:4;stroke-dasharray:none;stroke-dashoffset:0;stroke-opacity:1" />
    <path
       inkscape:connector-curvature="0"
       id="path842"
       d="m 224.36629,85.250834 c -0.41826,-1.009771 -1.71251,-2.723163 -2.87611,-3.807537 -2.01367,-1.876558 -2.18521,-2.324197 -3.55899,-9.287074 -1.72542,-8.745194 -4.42778,-17.084848 -7.54529,-23.285257 -1.25681,-2.499684 -2.28512,-4.803728 -2.28512,-5.1201 0,-0.943413 4.61276,-0.628546 7.03412,0.48015 2.97807,1.363598 7.09743,5.865586 9.22677,10.08379 2.74076,5.42941 4.01125,10.846645 4.38227,18.685511 0.30599,6.464964 0.2306,7.271733 -0.93175,9.970734 -1.75682,4.079391 -2.4975,4.569419 -3.4459,2.279783 z"
       style="opacity:1;fill:#ffffff;fill-opacity:1;fill-rule:nonzero;stroke:none;stroke-width:0.85074091;stroke-linecap:round;stroke-miterlimit:4;stroke-dasharray:none;stroke-dashoffset:0;stroke-opacity:1" />
    <path
       inkscape:connector-curvature="0"
       id="path844"
       d="m 214.40578,114.78299 c 0.14753,-3.3678 0.29398,-3.79842 1.29185,-3.79842 0.99787,0 1.14433,0.43062 1.29186,3.79842 0.16449,3.75503 0.14973,3.79843 -1.29186,3.79843 -1.44158,0 -1.45634,-0.0434 -1.29185,-3.79843 z"
       style="opacity:1;fill:#ffffff;fill-opacity:1;fill-rule:nonzero;stroke:none;stroke-width:0.85074091;stroke-linecap:round;stroke-miterlimit:4;stroke-dasharray:none;stroke-dashoffset:0;stroke-opacity:1" />
    <path
       inkscape:connector-curvature="0"
       id="path846"
       d=""
       style="opacity:1;fill:#ffffff;fill-opacity:1;fill-rule:nonzero;stroke:none;stroke-width:0.85074091;stroke-linecap:round;stroke-miterlimit:4;stroke-dasharray:none;stroke-dashoffset:0;stroke-opacity:1" />
    <path
       inkscape:connector-curvature="0"
       id="path848"
       d="m 190.65616,168.17277 c -8.54923,-3.45189 -16.57273,-6.96266 -30.66876,-13.41945 l -8.44095,-3.86644 -0.29139,-2.7879 c -0.16026,-1.53335 -0.48568,-3.09463 -0.72315,-3.46952 -0.78341,-1.23676 -4.05582,-1.43231 -7.22915,-0.43201 -2.77314,0.87416 -3.21203,0.88089 -5.13193,0.0787 -1.15469,-0.48247 -2.09944,-1.1576 -2.09944,-1.50029 0,-0.3427 1.07622,-1.09779 2.3916,-1.67798 11.06961,-4.88257 79.98441,-21.48282 94.96414,-22.87504 l 4.07599,-0.37882 -1.04014,1.63483 c -0.57207,0.89917 -5.19223,7.96555 -10.26703,15.70308 -16.55006,25.23384 -24.60683,36.3008 -26.41968,36.29073 -0.52829,-0.003 -4.63234,-1.48789 -9.12011,-3.2999 z"
       style="opacity:1;fill:#ffffff;fill-opacity:1;fill-rule:nonzero;stroke:none;stroke-width:0.85074091;stroke-linecap:round;stroke-miterlimit:4;stroke-dasharray:none;stroke-dashoffset:0;stroke-opacity:1" />
    <path
       inkscape:connector-curvature="0"
       id="path850"
       d="m 242.42729,182.78742 c -1.08325,-0.87761 -8.04703,-5.95706 -15.47506,-11.28766 -7.42803,-5.33062 -13.83858,-10.01076 -14.24565,-10.40033 -0.60552,-0.57947 1.67767,-4.35704 12.55299,-20.76906 11.37014,-17.15875 14.35407,-21.27545 14.35407,-19.80321 0,0.14166 0.62923,3.87677 1.39828,8.30026 3.50515,20.16112 6.35099,51.21628 5.01291,54.70325 -0.48413,1.26163 -1.34146,1.08451 -3.59754,-0.74325 z"
       style="opacity:1;fill:#ffffff;fill-opacity:1;fill-rule:nonzero;stroke:none;stroke-width:0.85074091;stroke-linecap:round;stroke-miterlimit:4;stroke-dasharray:none;stroke-dashoffset:0;stroke-opacity:1" />
    <path
       inkscape:connector-curvature="0"
       id="path852"
       d="m 157.45511,212.74392 c 0,-1.14997 28.53315,-42.36297 29.61736,-42.77902 0.37371,-0.1434 3.51357,0.65547 6.97749,1.77528 7.43118,2.40234 7.20925,2.46711 11.96517,-3.49214 4.08789,-5.12221 4.5221,-5.45245 6.0758,-4.62093 2.4789,1.32666 23.20107,16.28198 28.52819,20.58897 l 2.97504,2.40531 -1.56821,0.79789 c -4.36781,2.22231 -55.94795,18.51167 -74.39335,23.49393 -8.0862,2.18416 -10.17749,2.56034 -10.17749,1.83071 z"
       style="opacity:1;fill:#ffffff;fill-opacity:1;fill-rule:nonzero;stroke:none;stroke-width:0.85074091;stroke-linecap:round;stroke-miterlimit:4;stroke-dasharray:none;stroke-dashoffset:0;stroke-opacity:1" />
    <path
       inkscape:connector-curvature="0"
       id="path854"
       d="m 153.05224,211.04396 c -2.1377,-4.03403 -7.29353,-21.39875 -11.6335,-39.18134 -4.11537,-16.86232 -4.11638,-15.52301 0.0126,-16.70156 1.8647,-0.53226 4.19449,-1.38357 5.1773,-1.8918 0.98282,-0.50823 2.05586,-0.92406 2.38455,-0.92406 0.32868,0 8.45657,3.58451 18.06197,7.96558 14.00532,6.38789 17.39782,8.14333 17.12835,8.86299 -0.80298,2.14456 -29.01338,42.36778 -29.92596,42.66932 -0.36592,0.12091 -0.9083,-0.23869 -1.20528,-0.79913 z"
       style="opacity:1;fill:#ffffff;fill-opacity:1;fill-rule:nonzero;stroke:none;stroke-width:0.85074091;stroke-linecap:round;stroke-miterlimit:4;stroke-dasharray:none;stroke-dashoffset:0;stroke-opacity:1" />
  </g>
</svg>
