<?xml version="1.0" encoding="utf-8"?>
<!-- Generator: Adobe Illustrator 27.7.0, SVG Export Plug-In . SVG Version: 6.00 Build 0)  -->
<svg version="1.1" id="Layer_1" xmlns="http://www.w3.org/2000/svg" xmlns:xlink="http://www.w3.org/1999/xlink" x="0px" y="0px"
	 viewBox="0 0 512 512" style="enable-background:new 0 0 512 512;" xml:space="preserve">
<style type="text/css">
	.st0{fill:url(#SVGID_1_);}
</style>
<g id="Layer_1_1_">
</g>
<linearGradient id="SVGID_1_" gradientUnits="userSpaceOnUse" x1="256" y1="359.9642" x2="256" y2="4.7377" gradientTransform="matrix(1 0 0 -1 0 513)">
	<stop  offset="0" style="stop-color:#F05A28"/>
	<stop  offset="1" style="stop-color:#FBCA0A"/>
</linearGradient>
<path class="st0" d="M490.8,226c-0.8-8.6-2.3-18.5-5.1-29.5c-2.8-10.9-7.1-22.8-13.3-35.3c-6.2-12.4-14.2-25.2-24.7-37.8
	c-4.1-4.9-8.6-9.7-13.4-14.4c7.2-28.6-8.7-53.5-8.7-53.5c-27.5-1.7-45,8.6-51.5,13.3c-1.1-0.4-2.1-1-3.2-1.4
	c-4.7-1.8-9.5-3.7-14.5-5.2c-4.9-1.6-10-3-15.2-4.2c-5.2-1.3-10.4-2.3-15.8-3.1c-1-0.1-1.8-0.3-2.8-0.4C310.6,16.1,276.1,0,276.1,0
	c-38.5,24.4-45.7,58.5-45.7,58.5s-0.1,0.7-0.4,2c-2.1,0.6-4.2,1.3-6.3,1.8c-3,0.8-5.9,2-8.7,3.1c-3,1.1-5.8,2.3-8.7,3.5
	c-5.8,2.5-11.6,5.4-17.2,8.5c-5.5,3.1-10.9,6.5-16.1,10c-0.7-0.3-1.4-0.6-1.4-0.6C118.2,66.6,70.9,91,70.9,91
	c-4.4,56.7,21.3,92.4,26.4,98.9c-1.3,3.5-2.4,7.1-3.5,10.6c-3.9,12.8-6.9,26-8.7,39.6c-0.3,2-0.6,3.9-0.7,5.9
	c-49.4,24.4-63.9,74.2-63.9,74.2c41,47.3,89,50.2,89,50.2l0.1-0.1c6.1,10.9,13.1,21.2,21,30.9c3.4,4.1,6.8,7.9,10.4,11.7
	c-15,42.9,2.1,78.4,2.1,78.4c45.7,1.7,75.7-20,82.1-25c4.5,1.6,9.2,3,13.8,4.1c14.1,3.7,28.5,5.8,42.9,6.3c3.5,0.1,7.2,0.3,10.7,0.1
	h1.7h1.1h2.3l2.3-0.1v0.1c21.6,30.7,59.4,35.1,59.4,35.1c26.9-28.4,28.5-56.6,28.5-62.6l0,0c0,0,0-0.1,0-0.4c0-0.6,0-0.8,0-0.8l0,0
	c0-0.4,0-0.8,0-1.3c5.6-3.9,11-8.2,16.1-12.8c10.7-9.7,20.2-20.9,28.1-32.9c0.7-1.1,1.4-2.3,2.1-3.4c30.5,1.7,52-18.9,52-18.9
	c-5.1-31.7-23.1-47.3-26.9-50.2l0,0c0,0-0.1-0.1-0.4-0.3c-0.3-0.1-0.3-0.3-0.3-0.3l0,0c-0.1-0.1-0.4-0.3-0.7-0.4
	c0.1-2,0.3-3.8,0.4-5.8c0.3-3.4,0.3-6.9,0.3-10.3V309v-1.3v-0.7c0-0.8,0-0.6,0-0.8l-0.1-2.1l-0.1-2.8c0-1-0.1-1.8-0.3-2.7
	s-0.1-1.8-0.3-2.7l-0.3-2.7l-0.4-2.7c-0.6-3.5-1.1-6.9-2-10.4c-3.2-13.7-8.6-26.7-15.5-38.4c-7.1-11.7-15.8-22-25.8-30.7
	c-9.9-8.7-21-15.8-32.6-21c-11.7-5.2-23.8-8.6-36-10.2c-6.1-0.8-12.1-1.1-18.2-1h-2.3h-0.6c-0.1,0-0.8,0-0.7,0h-1l-2.3,0.1
	c-0.8,0-1.7,0.1-2.4,0.1c-3.1,0.3-6.2,0.7-9.2,1.3c-12.1,2.3-23.6,6.6-33.6,12.7c-10,6.1-18.8,13.5-25.8,22
	c-7.1,8.5-12.6,17.9-16.4,27.6c-3.8,9.7-5.9,19.9-6.5,29.6c-0.1,2.4-0.1,4.9-0.1,7.3c0,0.6,0,1.3,0,1.8l0.1,2
	c0.1,1.1,0.1,2.4,0.3,3.5c0.4,4.9,1.4,9.7,2.7,14.2c2.7,9.2,6.9,17.5,12.1,24.5c5.2,7.1,11.6,12.8,18.2,17.5
	c6.6,4.5,13.8,7.8,20.9,9.9c7.1,2.1,14.1,3,20.7,3c0.8,0,1.7,0,2.4,0c0.4,0,0.8,0,1.3,0s0.8,0,1.3-0.1c0.7,0,1.4-0.1,2.1-0.1
	c0.1,0,0.4,0,0.6-0.1l0.7-0.1c0.4,0,0.8-0.1,1.3-0.1c0.8-0.1,1.6-0.3,2.4-0.4c0.8-0.1,1.6-0.3,2.3-0.6c1.6-0.3,3-0.8,4.4-1.3
	c2.8-1,5.6-2.1,8-3.4c2.5-1.3,4.8-2.8,7.1-4.2c0.6-0.4,1.3-0.8,1.8-1.4c2.3-1.8,2.7-5.2,0.8-7.5c-1.6-2-4.4-2.5-6.6-1.3
	c-0.6,0.3-1.1,0.6-1.7,0.8c-2,1-3.9,1.8-6.1,2.5c-2.1,0.7-4.4,1.3-6.6,1.7c-1.1,0.1-2.3,0.3-3.5,0.4c-0.6,0-1.1,0.1-1.8,0.1
	c-0.6,0-1.3,0-1.7,0c-0.6,0-1.1,0-1.7,0c-0.7,0-1.4,0-2.1-0.1c0,0-0.4,0-0.1,0h-0.3h-0.4c-0.3,0-0.7,0-1-0.1c-0.7-0.1-1.3-0.1-2-0.3
	c-5.2-0.7-10.4-2.3-15.4-4.5c-5.1-2.3-9.9-5.4-14.2-9.3s-8.2-8.6-11.1-14c-3-5.4-5.1-11.3-6.1-17.5c-0.4-3.1-0.7-6.3-0.6-9.5
	c0-0.8,0.1-1.7,0.1-2.5c0,0.3,0-0.1,0-0.1v-0.3v-0.7c0-0.4,0.1-0.8,0.1-1.3c0.1-1.7,0.4-3.4,0.7-5.1c2.4-13.5,9.2-26.8,19.6-36.8
	c2.7-2.5,5.5-4.8,8.5-6.9c3-2.1,6.2-3.9,9.6-5.5c3.4-1.6,6.8-2.8,10.4-3.8c3.5-1,7.2-1.6,11-2c1.8-0.1,3.7-0.3,5.6-0.3
	c0.6,0,0.8,0,1.3,0h1.6h1c0.4,0,0,0,0.1,0h0.4l1.6,0.1c4.1,0.3,8,0.8,12,1.8c7.9,1.7,15.7,4.7,22.8,8.6c14.4,8,26.7,20.5,34.1,35.4
	c3.8,7.5,6.5,15.5,7.8,23.8c0.3,2.1,0.6,4.2,0.7,6.3l0.1,1.6l0.1,1.6c0,0.6,0,1.1,0,1.6c0,0.6,0,1.1,0,1.6v1.4v1.6
	c0,1-0.1,2.7-0.1,3.7c-0.1,2.3-0.4,4.7-0.7,6.9c-0.3,2.3-0.7,4.5-1.1,6.8c-0.4,2.3-1,4.5-1.6,6.6c-1.1,4.4-2.5,8.7-4.2,13.1
	c-3.4,8.5-7.9,16.6-13.3,24.1c-10.9,15-25.7,27.1-42.6,34.8c-8.5,3.8-17.3,6.6-26.5,8c-4.5,0.8-9.2,1.3-13.8,1.4h-0.8h-0.7h-1.6
	h-2.3h-1.1c0.6,0-0.1,0-0.1,0h-0.4c-2.5,0-4.9-0.1-7.5-0.4c-9.9-0.7-19.6-2.5-29.2-5.2c-9.5-2.7-18.6-6.5-27.4-11
	c-17.3-9.3-33-22-45.1-37.4c-6.1-7.6-11.4-15.9-15.8-24.5s-7.9-17.8-10.4-26.9c-2.5-9.3-4.1-18.8-4.8-28.4l-0.1-1.8v-0.4v-0.4v-0.8
	v-1.6v-0.4v-0.6v-1.1V268v-0.4c0,0,0,0.1,0-0.1v-0.8c0-1.1,0-2.4,0-3.5c0.1-4.7,0.6-9.6,1.1-14.4c0.6-4.8,1.4-9.7,2.4-14.5
	s2.1-9.6,3.5-14.4c2.7-9.5,6.1-18.6,10-27.2c8-17.2,18.5-32.6,31-44.9c3.1-3.1,6.3-5.9,9.7-8.7c3.4-2.7,6.9-5.2,10.6-7.6
	c3.5-2.4,7.3-4.5,11.1-6.5c1.8-1,3.8-2,5.8-2.8c1-0.4,2-0.8,3-1.3c1-0.4,2-0.8,3-1.3c3.9-1.7,8-3.1,12.3-4.4c1-0.3,2.1-0.6,3.1-1
	c1-0.3,2.1-0.6,3.1-0.8c2.1-0.6,4.2-1.1,6.3-1.6c1-0.3,2.1-0.4,3.2-0.7s2.1-0.4,3.2-0.7c1.1-0.1,2.1-0.4,3.2-0.6l1.6-0.3l1.7-0.3
	c1.1-0.1,2.1-0.3,3.2-0.4c1.3-0.1,2.4-0.3,3.7-0.4c1-0.1,2.7-0.3,3.7-0.4c0.7-0.1,1.6-0.1,2.3-0.3l1.6-0.1l0.7-0.1h0.8
	c1.3-0.1,2.4-0.1,3.7-0.3l1.8-0.1c0,0,0.7,0,0.1,0h0.4h0.8c1,0,2.1-0.1,3.1-0.1c4.1-0.1,8.3-0.1,12.4,0c8.2,0.3,16.2,1.3,24,2.7
	c15.7,3,30.3,7.9,43.7,14.5c13.4,6.5,25.2,14.5,35.7,23.3c0.7,0.6,1.3,1.1,2,1.7c0.6,0.6,1.3,1.1,1.8,1.7c1.3,1.1,2.4,2.3,3.7,3.4
	c1.3,1.1,2.4,2.3,3.5,3.4c1.1,1.1,2.3,2.3,3.4,3.5c4.4,4.7,8.5,9.3,12.1,14.1c7.3,9.5,13.3,19,17.9,28.1c0.3,0.6,0.6,1.1,0.8,1.7
	c0.3,0.6,0.6,1.1,0.8,1.7c0.6,1.1,1.1,2.3,1.6,3.4c0.6,1.1,1,2.1,1.6,3.2c0.4,1.1,1,2.1,1.4,3.2c1.7,4.2,3.4,8.3,4.7,12.1
	c2.1,6.2,3.7,11.7,4.9,16.5c0.4,2,2.3,3.2,4.2,3c2.1-0.1,3.7-1.8,3.7-3.9C491.7,238.9,491.5,232.9,490.8,226z"/>
</svg>
