<svg xmlns="http://www.w3.org/2000/svg" xmlns:xlink="http://www.w3.org/1999/xlink" id="svg602" width="500pt" height="500pt" xml:space="preserve"><defs id="defs604"><linearGradient id="linearGradient627"><stop style="stop-color:#7f7f7f;stop-opacity:1" id="stop628" offset="0"/><stop style="stop-color:#000;stop-opacity:0" id="stop629" offset="1"/></linearGradient><linearGradient id="linearGradient630" xlink:href="#linearGradient627"/><radialGradient id="radialGradient631" cx=".492" cy=".484" r=".713" fx=".492" fy=".484" xlink:href="#linearGradient627"/><radialGradient id="radialGradient634" cx=".5" cy=".5" r=".5" fx=".5" fy=".5" xlink:href="#linearGradient627"/><radialGradient id="radialGradient637" cx=".495" cy=".535" r=".558" fx=".495" fy=".535" gradientTransform="scale(1.038947,0.962513)" gradientUnits="objectBoundingBox" xlink:href="#linearGradient627"/></defs><path style="font-size:12;fill:none;fill-rule:evenodd;stroke:#000;stroke-width:1.036376" id="path617" d="M 156.0099 324.2898 L 204.6063 324.2898"/><path style="fill:none;fill-rule:evenodd;stroke:#000;stroke-opacity:1;stroke-width:12.5;stroke-linejoin:miter;stroke-linecap:butt;fill-opacity:1;stroke-dasharray:none" id="path618" d="M 239.7523 190.8234 L 204.6063 191.0687 L 206.2821 456.673 L 238.6627 456.6221"/><path style="font-size:12;fill:none;fill-rule:evenodd;stroke:#000;stroke-width:13.13064;stroke-opacity:.2695" id="path638" d="M 155.172 333.5064 L 208.7956 333.5064"/><path style="fill:none;fill-rule:evenodd;stroke:#000;stroke-opacity:.2695;stroke-width:12.5;stroke-linejoin:miter;stroke-linecap:butt;fill-opacity:1;stroke-dasharray:none" id="path640" d="M 465.4795 398.8601 L 431.1269 398.7585 L 431.6686 532.0811 L 465.7758 532.2757"/><path style="font-size:12;fill:none;fill-rule:evenodd;stroke:#000;stroke-width:13.30727;stroke-opacity:.2695" id="path641" d="M 367.1527 199.4475 L 424.1279 199.4475"/><path style="fill:none;fill-rule:evenodd;stroke:#000;stroke-opacity:.2695;stroke-width:12.5;stroke-linejoin:miter;stroke-linecap:butt;fill-opacity:1;stroke-dasharray:none" id="path642" d="M 466.4191 119.9008 L 429.9928 119.85 L 430.7291 253.3673 L 464.2946 253.3164"/><path style="font-size:12;fill:none;fill-rule:evenodd;stroke:#000;stroke-width:13.59266;stroke-opacity:.2695" id="path643" d="M 364.8845 465.0517 L 425.0302 465.0517"/><path style="fill:none;fill-rule:evenodd;stroke:#000;stroke-opacity:1;stroke-width:12.5;stroke-linejoin:miter;stroke-linecap:butt;fill-opacity:1;stroke-dasharray:none" id="path622" d="M 453.8511 110.6842 L 417.4248 110.6334 L 418.1611 244.1507 L 451.7266 244.0998"/><path style="font-size:12;fill:none;fill-rule:evenodd;stroke:#000;stroke-width:12.5;stroke-dasharray:none" id="path621" d="M 370.5042 190.2309 L 420.7764 190.2309"/><path style="font-size:12;fill:none;fill-rule:evenodd;stroke:#000;stroke-width:12.5;stroke-dasharray:none" id="path623" d="M 369.9117 456.673 L 420.7764 456.673"/><path style="fill:none;fill-rule:evenodd;stroke:#000;stroke-opacity:1;stroke-width:12.5;stroke-linejoin:miter;stroke-linecap:butt;fill-opacity:1;stroke-dasharray:none" id="path620" d="M 452.9115 389.6435 L 418.5589 389.5419 L 419.1006 522.8645 L 453.2078 523.0591"/><path style="fill:none;fill-rule:evenodd;stroke:#000;stroke-opacity:.2695;stroke-width:12.5;stroke-linejoin:miter;stroke-linecap:butt;fill-opacity:1;stroke-dasharray:none" id="path639" d="M 251.8231 200.04 L 217.1743 200.2853 L 218.8501 465.8896 L 251.2307 465.8387"/><path style="fill:none;fill-rule:evenodd;stroke:#000;stroke-opacity:1;stroke-width:12.5;stroke-linejoin:miter;stroke-linecap:butt;fill-opacity:1;stroke-dasharray:none" id="path614" d="M 156.01 325.1277 L 202.0927 325.1277"/><path style="fill:#70d4bc;fill-rule:evenodd;stroke:none;stroke-opacity:1;stroke-width:0;stroke-linejoin:miter;stroke-linecap:square;stroke-dasharray:none;fill-opacity:1" id="path664" d="M 152.47 221.4361 C 258.0944 269.1659 258.0944 269.1659 258.0944 269.1659"/><path style="font-size:12;fill:#d7d7d7;fill-rule:evenodd;stroke:#b8b8b8;stroke-width:1.875;stroke-linecap:square;stroke-dasharray:none" id="path670" d="M 211.973 452.3667 C 211.9525 452.3929 237.9633 452.4482 237.9633 452.4482 L 237.9639 452.4482"/><path style="font-size:12;fill:#d7d7d7;fill-rule:evenodd;stroke:#b8b8b8;stroke-width:1.865471;stroke-linecap:square;stroke-opacity:1" id="path671" d="M 201.9894 460.6508 C 202.0165 460.7533 201.1578 331.1745 201.1578 331.1745 L 201.1577 331.1716"/><path style="font-size:12;fill:#d7d7d7;fill-rule:evenodd;stroke:#b8b8b8;stroke-width:1.875;stroke-linecap:square;stroke-dasharray:none;stroke-opacity:1" id="path672" d="M 201.2082 320.0251 C 201.2352 320.1305 200.3765 187.0357 200.3765 187.0357 L 200.3764 187.0326"/><path style="font-size:12;fill:#d7d7d7;fill-rule:evenodd;stroke:#b8b8b8;stroke-width:1.875;stroke-linecap:square;stroke-dasharray:none;stroke-opacity:1" id="path673" d="M 200.3291 186.9318 C 200.2993 186.9585 238.5676 186.6442 238.5676 186.6442 L 238.5683 186.6442"/><path style="font-size:12;fill:#d7d7d7;fill-rule:evenodd;stroke:#b8b8b8;stroke-width:1.875;stroke-linecap:square;stroke-dasharray:none;stroke-opacity:1" id="path674" d="M 157.2396 321.2826 C 157.2053 321.3093 201.2233 320.995 201.2233 320.995 L 201.2241 320.995"/><path style="font-size:12;fill:#d7d7d7;fill-rule:evenodd;stroke:#b8b8b8;stroke-width:1.869468;stroke-linecap:square" id="path875" d="M 414.0218 185.6494 C 414.0488 185.7122 413.1901 106.5653 413.1901 106.5653 L 413.19 106.5634"/><path style="font-size:12;fill:#d7d7d7;fill-rule:evenodd;stroke:#b8b8b8;stroke-width:1.875;stroke-linecap:square;stroke-dasharray:none;stroke-opacity:1" id="path876" d="M 414.7052 106.6189 C 414.6754 106.6456 452.9437 106.3313 452.9437 106.3313 L 452.9444 106.3313"/><path style="font-size:12;fill:#d7d7d7;fill-rule:evenodd;stroke:#b8b8b8;stroke-width:1.841395;stroke-linecap:square" id="path877" d="M 371.6157 186.5944 C 371.5826 186.6211 414.0369 186.3068 414.0369 186.3068 L 414.0377 186.3068"/><rect style="font-size:12;fill:url(#radialGradient631);fill-rule:evenodd;stroke:none;stroke-width:0;stroke-dashoffset:5;stroke-opacity:1;stroke-dasharray:none;fill-opacity:.2908" id="rect644" width="136.532" height="99.2" x="247.502" y="151.234"/><path style="font-size:12;fill:#d7d7d7;fill-rule:evenodd;stroke:#b8b8b8;stroke-width:1.875;stroke-linecap:square;stroke-dasharray:none" id="path878" d="M 423.7126 239.8883 C 423.6909 239.9145 451.1822 239.9698 451.1822 239.9698 L 451.1828 239.9698"/><path style="font-size:12;fill:#d7d7d7;fill-rule:evenodd;stroke:#b8b8b8;stroke-width:1.874993;stroke-linecap:square" id="path879" d="M 414.0284 247.8598 C 414.0555 247.9007 413.8233 196.5997 413.8233 196.5997 L 413.8232 196.5986"/><path style="font-size:12;fill:#d7d7d7;fill-rule:evenodd;stroke:#b8b8b8;stroke-width:1.874995;stroke-linecap:square" id="path880" d="M 414.7178 452.2609 C 414.7446 452.3139 414.4684 385.5465 414.4684 385.5465 L 414.4683 385.5449"/><path style="font-size:12;fill:#d7d7d7;fill-rule:evenodd;stroke:#b8b8b8;stroke-width:1.875;stroke-linecap:square;stroke-dasharray:none" id="path881" d="M 415.2487 385.6363 C 415.2193 385.6828 452.1647 385.5016 452.1647 385.5016 L 452.1653 385.5016"/><path style="font-size:12;fill:#d7d7d7;fill-rule:evenodd;stroke:#b8b8b8;stroke-width:1.841395;stroke-linecap:square" id="path882" d="M 371.2783 452.761 C 371.2452 452.7877 413.6995 452.4734 413.6995 452.4734 L 413.7003 452.4734"/><path style="font-size:12;fill:#d7d7d7;fill-rule:evenodd;stroke:#b8b8b8;stroke-width:1.875;stroke-linecap:square;stroke-dasharray:none" id="path884" d="M 424.6743 518.715 C 424.6524 518.7412 452.3001 518.7965 452.3001 518.7965 L 452.3007 518.7965"/><path style="font-size:12;fill:#d7d7d7;fill-rule:evenodd;stroke:#b8b8b8;stroke-width:1.875;stroke-linecap:square;stroke-dasharray:none" id="path885" d="M 415.4588 526.8428 C 415.4859 526.8941 415.2537 462.5457 415.2537 462.5457 L 415.2536 462.5443"/><rect style="font-size:12;fill:url(#radialGradient631);fill-rule:evenodd;stroke:none;stroke-width:0;stroke-dashoffset:5;stroke-opacity:1;stroke-dasharray:none;fill-opacity:.2908" id="rect886" width="136.532" height="99.2" x="246.252" y="419.361"/><rect style="font-size:12;fill:url(#radialGradient631);fill-rule:evenodd;stroke:none;stroke-width:0;stroke-dashoffset:5;stroke-opacity:1;stroke-dasharray:none;fill-opacity:.2908" id="rect887" width="136.532" height="99.2" x="31.251" y="286.235"/><rect style="font-size:12;fill:url(#radialGradient631);fill-rule:evenodd;stroke:none;stroke-width:0;stroke-dashoffset:5;stroke-opacity:1;stroke-dasharray:none;fill-opacity:.2908" id="rect888" width="136.532" height="99.2" x="460.004" y="69.358"/><rect style="font-size:12;fill:url(#radialGradient631);fill-rule:evenodd;stroke:none;stroke-width:0;stroke-dashoffset:5;stroke-opacity:1;stroke-dasharray:none;fill-opacity:.2908" id="rect889" width="136.532" height="99.2" x="458.754" y="204.359"/><rect style="font-size:12;fill:url(#radialGradient631);fill-rule:evenodd;stroke:none;stroke-width:0;stroke-dashoffset:5;stroke-opacity:1;stroke-dasharray:none;fill-opacity:.2908" id="rect890" width="136.532" height="99.2" x="459.379" y="348.735"/><rect style="font-size:12;fill:url(#radialGradient631);fill-rule:evenodd;stroke:none;stroke-width:0;stroke-dashoffset:5;stroke-opacity:1;stroke-dasharray:none;fill-opacity:.2908" id="rect892" width="136.532" height="99.2" x="460.004" y="483.736"/><g id="g711" transform="translate(168.9851,300.1636)" style="font-size:12"><rect style="font-size:12;fill:#ead4bc;fill-rule:evenodd;stroke:#b39166;stroke-width:12.5;stroke-dashoffset:5;fill-opacity:1;stroke-dasharray:none" id="rect712" width="118.977" height="81.273" x="290.74" y="182.763"/><path style="fill:#d4b993;fill-rule:evenodd;stroke:none;stroke-opacity:1;stroke-width:0;stroke-linejoin:miter;stroke-linecap:square;stroke-dasharray:none;fill-opacity:1" id="path713" d="M 284.4987 176.5118 L 415.9331 176.5096 L 403.4166 189.0328 L 296.9416 188.9893 L 284.4987 176.5118 z"/><path style="fill:#b39a7d;fill-rule:evenodd;stroke:none;stroke-opacity:1;stroke-width:0;stroke-linejoin:miter;stroke-linecap:square;stroke-dasharray:none;fill-opacity:1" id="path714" d="M 284.5556 176.58 L 296.9299 188.9543 L 296.8747 257.6765 L 284.5555 270.106 L 284.5556 176.58 z"/><path style="fill:#887058;fill-rule:evenodd;stroke:none;stroke-opacity:1;stroke-width:0;stroke-linejoin:miter;stroke-linecap:square;stroke-dasharray:none;fill-opacity:1" id="path715" d="M 415.9927 176.7363 L 403.6184 189.1105 L 403.6736 257.8327 L 415.9928 270.2622 L 415.9927 176.7363 z"/><path style="fill:#695144;fill-rule:evenodd;stroke:none;stroke-opacity:1;stroke-width:0;stroke-linejoin:miter;stroke-linecap:square;stroke-dasharray:none;fill-opacity:1" id="path716" d="M 416.0892 270.2808 L 284.6549 270.283 L 297.1714 257.7598 L 403.6463 257.8033 L 416.0892 270.2808 z"/></g><g id="g705" transform="translate(168.36,166.413)" style="font-size:12"><rect style="font-size:12;fill:#ead4bc;fill-rule:evenodd;stroke:#b39166;stroke-width:12.5;stroke-dashoffset:5;fill-opacity:1;stroke-dasharray:none" id="rect706" width="118.977" height="81.273" x="290.74" y="182.763"/><path style="fill:#d4b993;fill-rule:evenodd;stroke:none;stroke-opacity:1;stroke-width:0;stroke-linejoin:miter;stroke-linecap:square;stroke-dasharray:none;fill-opacity:1" id="path707" d="M 284.4987 176.5118 L 415.9331 176.5096 L 403.4166 189.0328 L 296.9416 188.9893 L 284.4987 176.5118 z"/><path style="fill:#b39a7d;fill-rule:evenodd;stroke:none;stroke-opacity:1;stroke-width:0;stroke-linejoin:miter;stroke-linecap:square;stroke-dasharray:none;fill-opacity:1" id="path708" d="M 284.5556 176.58 L 296.9299 188.9543 L 296.8747 257.6765 L 284.5555 270.106 L 284.5556 176.58 z"/><path style="fill:#887058;fill-rule:evenodd;stroke:none;stroke-opacity:1;stroke-width:0;stroke-linejoin:miter;stroke-linecap:square;stroke-dasharray:none;fill-opacity:1" id="path709" d="M 415.9927 176.7363 L 403.6184 189.1105 L 403.6736 257.8327 L 415.9928 270.2622 L 415.9927 176.7363 z"/><path style="fill:#695144;fill-rule:evenodd;stroke:none;stroke-opacity:1;stroke-width:0;stroke-linejoin:miter;stroke-linecap:square;stroke-dasharray:none;fill-opacity:1" id="path710" d="M 416.0892 270.2808 L 284.6549 270.283 L 297.1714 257.7598 L 403.6463 257.8033 L 416.0892 270.2808 z"/></g><g id="g699" transform="translate(167.4225,20.78735)" style="font-size:12"><rect style="font-size:12;fill:#ead4bc;fill-rule:evenodd;stroke:#b39166;stroke-width:12.5;stroke-dashoffset:5;fill-opacity:1;stroke-dasharray:none" id="rect700" width="118.977" height="81.273" x="290.74" y="182.763"/><path style="fill:#d4b993;fill-rule:evenodd;stroke:none;stroke-opacity:1;stroke-width:0;stroke-linejoin:miter;stroke-linecap:square;stroke-dasharray:none;fill-opacity:1" id="path701" d="M 284.4987 176.5118 L 415.9331 176.5096 L 403.4166 189.0328 L 296.9416 188.9893 L 284.4987 176.5118 z"/><path style="fill:#b39a7d;fill-rule:evenodd;stroke:none;stroke-opacity:1;stroke-width:0;stroke-linejoin:miter;stroke-linecap:square;stroke-dasharray:none;fill-opacity:1" id="path702" d="M 284.5556 176.58 L 296.9299 188.9543 L 296.8747 257.6765 L 284.5555 270.106 L 284.5556 176.58 z"/><path style="fill:#887058;fill-rule:evenodd;stroke:none;stroke-opacity:1;stroke-width:0;stroke-linejoin:miter;stroke-linecap:square;stroke-dasharray:none;fill-opacity:1" id="path703" d="M 415.9927 176.7363 L 403.6184 189.1105 L 403.6736 257.8327 L 415.9928 270.2622 L 415.9927 176.7363 z"/><path style="fill:#695144;fill-rule:evenodd;stroke:none;stroke-opacity:1;stroke-width:0;stroke-linejoin:miter;stroke-linecap:square;stroke-dasharray:none;fill-opacity:1" id="path704" d="M 416.0892 270.2808 L 284.6549 270.283 L 297.1714 257.7598 L 403.6463 257.8033 L 416.0892 270.2808 z"/></g><g id="g693" transform="translate(169.4538,-114.2133)" style="font-size:12"><rect style="font-size:12;fill:#ead4bc;fill-rule:evenodd;stroke:#b39166;stroke-width:12.5;stroke-dashoffset:5;fill-opacity:1;stroke-dasharray:none" id="rect694" width="118.977" height="81.273" x="290.74" y="182.763"/><path style="fill:#d4b993;fill-rule:evenodd;stroke:none;stroke-opacity:1;stroke-width:0;stroke-linejoin:miter;stroke-linecap:square;stroke-dasharray:none;fill-opacity:1" id="path695" d="M 284.4987 176.5118 L 415.9331 176.5096 L 403.4166 189.0328 L 296.9416 188.9893 L 284.4987 176.5118 z"/><path style="fill:#b39a7d;fill-rule:evenodd;stroke:none;stroke-opacity:1;stroke-width:0;stroke-linejoin:miter;stroke-linecap:square;stroke-dasharray:none;fill-opacity:1" id="path696" d="M 284.5556 176.58 L 296.9299 188.9543 L 296.8747 257.6765 L 284.5555 270.106 L 284.5556 176.58 z"/><path style="fill:#887058;fill-rule:evenodd;stroke:none;stroke-opacity:1;stroke-width:0;stroke-linejoin:miter;stroke-linecap:square;stroke-dasharray:none;fill-opacity:1" id="path697" d="M 415.9927 176.7363 L 403.6184 189.1105 L 403.6736 257.8327 L 415.9928 270.2622 L 415.9927 176.7363 z"/><path style="fill:#695144;fill-rule:evenodd;stroke:none;stroke-opacity:1;stroke-width:0;stroke-linejoin:miter;stroke-linecap:square;stroke-dasharray:none;fill-opacity:1" id="path698" d="M 416.0892 270.2808 L 284.6549 270.283 L 297.1714 257.7598 L 403.6463 257.8033 L 416.0892 270.2808 z"/></g><g id="g675" transform="translate(-45.39099,-32.96295)" style="font-size:12"><rect style="font-size:12;fill:#ead4bc;fill-rule:evenodd;stroke:#b39166;stroke-width:12.5;stroke-dashoffset:5;fill-opacity:1;stroke-dasharray:none" id="rect607" width="118.977" height="81.273" x="290.74" y="182.763"/><path style="fill:#d4b993;fill-rule:evenodd;stroke:none;stroke-opacity:1;stroke-width:0;stroke-linejoin:miter;stroke-linecap:square;stroke-dasharray:none;fill-opacity:1" id="path660" d="M 284.4987 176.5118 L 415.9331 176.5096 L 403.4166 189.0328 L 296.9416 188.9893 L 284.4987 176.5118 z"/><path style="fill:#b39a7d;fill-rule:evenodd;stroke:none;stroke-opacity:1;stroke-width:0;stroke-linejoin:miter;stroke-linecap:square;stroke-dasharray:none;fill-opacity:1" id="path661" d="M 284.5556 176.58 L 296.9299 188.9543 L 296.8747 257.6765 L 284.5555 270.106 L 284.5556 176.58 z"/><path style="fill:#887058;fill-rule:evenodd;stroke:none;stroke-opacity:1;stroke-width:0;stroke-linejoin:miter;stroke-linecap:square;stroke-dasharray:none;fill-opacity:1" id="path662" d="M 415.9927 176.7363 L 403.6184 189.1105 L 403.6736 257.8327 L 415.9928 270.2622 L 415.9927 176.7363 z"/><path style="fill:#695144;fill-rule:evenodd;stroke:none;stroke-opacity:1;stroke-width:0;stroke-linejoin:miter;stroke-linecap:square;stroke-dasharray:none;fill-opacity:1" id="path663" d="M 416.0892 270.2808 L 284.6549 270.283 L 297.1714 257.7598 L 403.6463 257.8033 L 416.0892 270.2808 z"/></g><g id="g687" transform="translate(-45.72247,234.5384)" style="font-size:12"><rect style="font-size:12;fill:#ead4bc;fill-rule:evenodd;stroke:#b39166;stroke-width:12.5;stroke-dashoffset:5;fill-opacity:1;stroke-dasharray:none" id="rect688" width="118.977" height="81.273" x="290.74" y="182.763"/><path style="fill:#d4b993;fill-rule:evenodd;stroke:none;stroke-opacity:1;stroke-width:0;stroke-linejoin:miter;stroke-linecap:square;stroke-dasharray:none;fill-opacity:1" id="path689" d="M 284.4987 176.5118 L 415.9331 176.5096 L 403.4166 189.0328 L 296.9416 188.9893 L 284.4987 176.5118 z"/><path style="fill:#b39a7d;fill-rule:evenodd;stroke:none;stroke-opacity:1;stroke-width:0;stroke-linejoin:miter;stroke-linecap:square;stroke-dasharray:none;fill-opacity:1" id="path690" d="M 284.5556 176.58 L 296.9299 188.9543 L 296.8747 257.6765 L 284.5555 270.106 L 284.5556 176.58 z"/><path style="fill:#887058;fill-rule:evenodd;stroke:none;stroke-opacity:1;stroke-width:0;stroke-linejoin:miter;stroke-linecap:square;stroke-dasharray:none;fill-opacity:1" id="path691" d="M 415.9927 176.7363 L 403.6184 189.1105 L 403.6736 257.8327 L 415.9928 270.2622 L 415.9927 176.7363 z"/><path style="fill:#695144;fill-rule:evenodd;stroke:none;stroke-opacity:1;stroke-width:0;stroke-linejoin:miter;stroke-linecap:square;stroke-dasharray:none;fill-opacity:1" id="path692" d="M 416.0892 270.2808 L 284.6549 270.283 L 297.1714 257.7598 L 403.6463 257.8033 L 416.0892 270.2808 z"/></g><g id="g681" transform="translate(-259.767,101.4127)" style="font-size:12"><rect style="font-size:12;fill:#ead4bc;fill-rule:evenodd;stroke:#b39166;stroke-width:12.5;stroke-dashoffset:5;fill-opacity:1;stroke-dasharray:none" id="rect682" width="118.977" height="81.273" x="290.74" y="182.763"/><path style="fill:#d4b993;fill-rule:evenodd;stroke:none;stroke-opacity:1;stroke-width:0;stroke-linejoin:miter;stroke-linecap:square;stroke-dasharray:none;fill-opacity:1" id="path683" d="M 284.4987 176.5118 L 415.9331 176.5096 L 403.4166 189.0328 L 296.9416 188.9893 L 284.4987 176.5118 z"/><path style="fill:#b39a7d;fill-rule:evenodd;stroke:none;stroke-opacity:1;stroke-width:0;stroke-linejoin:miter;stroke-linecap:square;stroke-dasharray:none;fill-opacity:1" id="path684" d="M 284.5556 176.58 L 296.9299 188.9543 L 296.8747 257.6765 L 284.5555 270.106 L 284.5556 176.58 z"/><path style="fill:#887058;fill-rule:evenodd;stroke:none;stroke-opacity:1;stroke-width:0;stroke-linejoin:miter;stroke-linecap:square;stroke-dasharray:none;fill-opacity:1" id="path685" d="M 415.9927 176.7363 L 403.6184 189.1105 L 403.6736 257.8327 L 415.9928 270.2622 L 415.9927 176.7363 z"/><path style="fill:#695144;fill-rule:evenodd;stroke:none;stroke-opacity:1;stroke-width:0;stroke-linejoin:miter;stroke-linecap:square;stroke-dasharray:none;fill-opacity:1" id="path686" d="M 416.0892 270.2808 L 284.6549 270.283 L 297.1714 257.7598 L 403.6463 257.8033 L 416.0892 270.2808 z"/></g></svg>