<svg id="Layer_1" data-name="Layer 1" xmlns="http://www.w3.org/2000/svg" xmlns:xlink="http://www.w3.org/1999/xlink" viewBox="0 0 638 356.23"><defs><style>.cls-1,.cls-4{fill:none;}.cls-2{fill:#0f218b;}.cls-3{fill:#345990;}.cls-4{stroke:#345990;stroke-miterlimit:10;stroke-width:0.06px;}.cls-5{clip-path:url(#clip-path);}.cls-6{fill:url(#Degradado_sin_nombre_2);}.cls-7{clip-path:url(#clip-path-2);}.cls-8{fill:url(#Degradado_sin_nombre_3);}.cls-9{clip-path:url(#clip-path-3);}.cls-10{fill:url(#Degradado_sin_nombre_4);}</style><clipPath id="clip-path" transform="translate(-181 -288.83)"><path class="cls-1" d="M509.47,413.26s41.4,41.53,34.83,68.32c0,0,4.48-2.68,10.21-6.49l1.34-.91c1.56-2.25,3.64-3.53,6.06-4.87l1.85-1c1.22-1,2.37-2.08,3.54-3l.32-.27c2.33-1.3,4.85-3.61,6.68-4.92l.06-.06c2.65-2.68,4.31-5.3,4.31-7.11C578.67,445.93,557.88,423.74,509.47,413.26Z"/></clipPath><linearGradient id="Degradado_sin_nombre_2" x1="119.67" y1="816.15" x2="123.26" y2="816.15" gradientTransform="matrix(19.28, 0, 0, -19.28, -1978.6, 15893.32)" gradientUnits="userSpaceOnUse"><stop offset="0" stop-color="#939598"/><stop offset="0.48" stop-color="#797b7d"/><stop offset="1" stop-color="#58595b"/></linearGradient><clipPath id="clip-path-2" transform="translate(-181 -288.83)"><path class="cls-1" d="M457.43,355A86.35,86.35,0,0,0,441,357.24a50,50,0,0,0-12,5.06c-.52.32-1,.66-1.55,1a26.19,26.19,0,0,0-4.44,3.87,7.79,7.79,0,0,0-1.59,4.18c-.21,14.8,21.7,47.64,21.7,47.64-.61-47.39,108.61-37,108.61-37-41.39-20.93-70.89-27.07-91.27-27.07-1,0-2,0-3,.05"/></clipPath><linearGradient id="Degradado_sin_nombre_3" x1="116.44" y1="800.74" x2="120.08" y2="800.74" gradientTransform="matrix(20.21, -20.21, -20.21, -20.21, 14100.6, 18676.84)" gradientUnits="userSpaceOnUse"><stop offset="0" stop-color="#00052c"/><stop offset="0.11" stop-color="#00052c"/><stop offset="0.13" stop-color="#030d33"/><stop offset="0.22" stop-color="#12365c"/><stop offset="0.33" stop-color="#20597e"/><stop offset="0.43" stop-color="#2b769b"/><stop offset="0.54" stop-color="#338cb1"/><stop offset="0.67" stop-color="#399cc0"/><stop offset="0.81" stop-color="#3da5c9"/><stop offset="1" stop-color="#3ea8cc"/></linearGradient><clipPath id="clip-path-3" transform="translate(-181 -288.83)"><path class="cls-1" d="M421.36,373.58c6.6,94.47,43.15,141,54.32,147.24C489.32,528.44,574.3,460,574.3,460c-89.35,15.5-150-80.89-152.53-90.48a11.4,11.4,0,0,0-.41,4"/></clipPath><linearGradient id="Degradado_sin_nombre_4" x1="107.95" y1="807.81" x2="111.54" y2="807.81" gradientTransform="matrix(42.62, 0, 0, -42.62, -4360.41, 34587.51)" gradientUnits="userSpaceOnUse"><stop offset="0" stop-color="#0d274d"/><stop offset="0.11" stop-color="#183560"/><stop offset="0.28" stop-color="#244575"/><stop offset="0.46" stop-color="#2d5084"/><stop offset="0.68" stop-color="#32578d"/><stop offset="1" stop-color="#345990"/></linearGradient></defs><title>Grandstream Logo Vector</title><path class="cls-2" d="M684.68,580" transform="translate(-181 -288.83)"/><path class="cls-3" d="M220,560.43H187.84v30.2H220V578.46H203.34v-5.31h23.45V586.6q0,5.71-2,7.77c-1.35,1.37-3.89,2-7.59,2H190.62q-5.56,0-7.59-2t-2-7.77V564.69q0-5.72,2-7.77t7.59-2h26.56q5.4,0,7.51,1.94t2.1,7.32v1l-6.83,0Z" transform="translate(-181 -288.83)"/><path class="cls-3" d="M275.84,560.26H252.31v14.58h23.53a5.22,5.22,0,0,0,3.46-.88c.66-.59,1-1.72,1-3.39v-6a4.49,4.49,0,0,0-1-3.34,5,5,0,0,0-3.46-.93m-30.36,36.16V554.87h33q4.51,0,6.58,1.89c1.38,1.26,2.06,3.31,2.06,6.16v9.26c0,2.85-.68,4.91-2.06,6.16s-3.57,1.9-6.58,1.9h-6l18.76,16.18H281l-16.67-16.18H252.31v16.18Z" transform="translate(-181 -288.83)"/><path class="cls-3" d="M311.86,580.88H334l-11-21.26ZM297,596.42l22.42-41.55h7.31l22.82,41.55H342l-5.25-10.23H309l-5.24,10.23Z" transform="translate(-181 -288.83)"/><path class="cls-3" d="M361.78,596.42V554.87h4.3l30.69,27.78a39,39,0,0,1,4.69,5.24,64.9,64.9,0,0,1-.64-10.23V554.87h6.35v41.55h-3.81L371.8,567.51c-1.17-1.07-1.83-1.69-2-1.85a13.86,13.86,0,0,1-2.15-2.82,72.48,72.48,0,0,1,.48,9.1v24.48Z" transform="translate(-181 -288.83)"/><path class="cls-3" d="M449,560.43H434.2v30.2H449q9.54,0,13.67-3.23,4.54-3.48,4.54-12,0-8.25-4.54-11.72-4.2-3.23-13.67-3.22m1-5.56q10.8,0,15.74,3.22a17.57,17.57,0,0,1,6.24,7.17,22.6,22.6,0,0,1,2.26,10.14q0,12.17-8.5,17.8-4.85,3.22-15.74,3.22H427.37V554.87Z" transform="translate(-181 -288.83)"/><path class="cls-3" d="M525.55,560.43h-29V572.1h25.83q5.57,0,7.55,2.1t2,7.73v4.67q0,5.71-2,7.77t-7.55,2H498.44q-5.56,0-7.59-2t-2-7.77v-1.13l6.36,0v5.14h30.53V578.14H500c-3.65,0-6.16-.68-7.51-2s-2-4-2-7.77v-3.63c0-3.86.68-6.47,2-7.81s3.86-2,7.51-2h21.86q5.25,0,7.44,1.9t2.18,7.12v.88h-5.88Z" transform="translate(-181 -288.83)"/><polygon class="cls-3" points="386.53 271.67 386.53 307.59 379.69 307.59 379.69 271.67 360.93 271.67 360.93 266.04 405.37 266.04 405.37 271.67 386.53 271.67"/><path class="cls-3" d="M627.23,560.26H603.7v14.58h23.53a5.25,5.25,0,0,0,3.46-.88q1-.88,1-3.39v-6a4.49,4.49,0,0,0-1-3.34,5.07,5.07,0,0,0-3.46-.93m-30.37,36.16V554.87h33q4.51,0,6.59,1.89t2.06,6.16v9.26c0,2.85-.69,4.91-2.06,6.16s-3.58,1.9-6.59,1.9h-6l18.76,16.18H632.42l-16.67-16.18h-12v16.18Z" transform="translate(-181 -288.83)"/><polygon class="cls-3" points="475.4 307.59 475.4 266.04 514.91 266.04 514.91 271.6 482.24 271.6 482.24 283.19 502.19 283.19 502.19 288.67 482.24 288.67 482.24 301.88 515.24 301.88 515.24 307.59 475.4 307.59"/><path class="cls-3" d="M718.34,580.88h22.09l-11-21.26Zm-14.87,15.54,22.42-41.55h7.31L756,596.42h-7.56l-5.25-10.23H715.47l-5.25,10.23Z" transform="translate(-181 -288.83)"/><path class="cls-3" d="M773.74,562.28a46.85,46.85,0,0,1,.32,6.12v28h-5.8V554.87h5.56l20,27.06,18.6-27.06h6.36v41.56h-6.36v-28l.32-6.12a31.89,31.89,0,0,1-2.47,4.51L794.57,589.9h-1.75l-16.29-22.47a35.66,35.66,0,0,1-2.79-5.15" transform="translate(-181 -288.83)"/><path class="cls-3" d="M194.32,631.37H183.85v11.48h10.47v-3.4h2.51v1.87a4.39,4.39,0,0,1-.73,3,3.83,3.83,0,0,1-2.78.77h-8.44a3.87,3.87,0,0,1-2.79-.78,4.36,4.36,0,0,1-.75-3V633a4.31,4.31,0,0,1,.75-3,3.78,3.78,0,0,1,2.79-.78h8.44a3.84,3.84,0,0,1,2.78.75,4.33,4.33,0,0,1,.73,3v1.5h-2.51Z" transform="translate(-181 -288.83)"/><path class="cls-3" d="M217.87,642.85h12.48V631.37H217.87ZM215.36,633a4.31,4.31,0,0,1,.75-3,3.81,3.81,0,0,1,2.79-.79h10.45a3.77,3.77,0,0,1,2.78.79,4.38,4.38,0,0,1,.73,3v8.33a4.43,4.43,0,0,1-.73,3,3.81,3.81,0,0,1-2.78.78H218.9a3.86,3.86,0,0,1-2.79-.78,4.36,4.36,0,0,1-.75-3Z" transform="translate(-181 -288.83)"/><path class="cls-3" d="M252.59,645.06V629.25h1.58l11.28,10.57a14.6,14.6,0,0,1,1.73,2,25.18,25.18,0,0,1-.24-3.89v-8.67h2.34v15.81h-1.41l-11.6-11c-.43-.41-.67-.64-.73-.71a5.41,5.41,0,0,1-.79-1.06,27.93,27.93,0,0,1,.18,3.46v9.31Z" transform="translate(-181 -288.83)"/><path class="cls-3" d="M289.18,645.06V629.25h1.58L302,639.82a14.6,14.6,0,0,1,1.72,2,25.38,25.38,0,0,1-.23-3.89v-8.67h2.33v15.81h-1.4l-11.6-11c-.43-.41-.67-.64-.73-.71a5,5,0,0,1-.79-1.06,27.93,27.93,0,0,1,.18,3.46v9.31Z" transform="translate(-181 -288.83)"/><polygon class="cls-3" points="144.77 340.43 144.77 356.23 159.41 356.23 159.41 354.05 147.28 354.05 147.28 349.03 154.62 349.03 154.62 346.95 147.28 346.95 147.28 342.54 159.29 342.54 159.29 340.43 144.77 340.43"/><path class="cls-3" d="M371.27,631.37H360.81v11.48h10.46v-3.4h2.51v1.87a4.39,4.39,0,0,1-.73,3,3.8,3.8,0,0,1-2.77.77h-8.45a3.87,3.87,0,0,1-2.79-.78,4.36,4.36,0,0,1-.75-3V633a4.31,4.31,0,0,1,.75-3,3.78,3.78,0,0,1,2.79-.78h8.45a3.81,3.81,0,0,1,2.77.75,4.33,4.33,0,0,1,.73,3v1.5h-2.51Z" transform="translate(-181 -288.83)"/><polygon class="cls-3" points="207.95 340.43 207.95 342.57 214.85 342.57 214.85 356.23 217.36 356.23 217.36 342.57 224.28 342.57 224.28 340.43 207.95 340.43"/><rect class="cls-3" x="240.62" y="340.43" width="2.51" height="15.8"/><path class="cls-3" d="M444.06,645.06V629.25h1.59l11.27,10.57a14.6,14.6,0,0,1,1.73,2,25.18,25.18,0,0,1-.24-3.89v-8.67h2.34v15.81h-1.4l-11.6-11c-.43-.41-.67-.64-.73-.71a4.72,4.72,0,0,1-.79-1.06,30.31,30.31,0,0,1,.17,3.46v9.31Z" transform="translate(-181 -288.83)"/><path class="cls-3" d="M494.77,631.37H483v11.48h11.81v-4.62h-6.11v-2h8.62v5.11a4.42,4.42,0,0,1-.74,3,3.89,3.89,0,0,1-2.79.78H484a3.89,3.89,0,0,1-2.79-.78,4.42,4.42,0,0,1-.74-3V633a4.37,4.37,0,0,1,.74-3,3.8,3.8,0,0,1,2.79-.78h9.77a4,4,0,0,1,2.76.73,3.88,3.88,0,0,1,.77,2.79v.39h-2.51Z" transform="translate(-181 -288.83)"/><polygon class="cls-3" points="355.09 340.43 355.09 342.57 361.99 342.57 361.99 356.23 364.5 356.23 364.5 342.57 371.43 342.57 371.43 340.43 355.09 340.43"/><polygon class="cls-3" points="402.17 340.43 402.17 346.88 390.28 346.88 390.28 340.43 387.76 340.43 387.76 356.23 390.28 356.23 390.28 349.06 402.17 349.06 402.17 356.23 404.68 356.23 404.68 340.43 402.17 340.43"/><polygon class="cls-3" points="424.61 340.43 424.61 356.23 439.25 356.23 439.25 354.05 427.13 354.05 427.13 349.03 434.46 349.03 434.46 346.95 427.13 346.95 427.13 342.54 439.13 342.54 439.13 340.43 424.61 340.43"/><path class="cls-3" d="M809.16,631.37h-5.44v11.48h5.44c2.33,0,4-.41,5-1.23s1.67-2.4,1.67-4.57-.56-3.57-1.67-4.45-2.7-1.23-5-1.23m.35-2.12q4,0,5.78,1.23a6.61,6.61,0,0,1,2.3,2.72,9,9,0,0,1,.83,3.87q0,4.62-3.13,6.76c-1.19.82-3.11,1.23-5.78,1.23h-8.3V629.25Z" transform="translate(-181 -288.83)"/><path class="cls-3" d="M700.94,642.85h12.48V631.37H700.94ZM698.43,633a4.37,4.37,0,0,1,.74-3,3.87,3.87,0,0,1,2.8-.79h10.45a3.78,3.78,0,0,1,2.78.79,4.37,4.37,0,0,1,.74,3v8.33a4.42,4.42,0,0,1-.74,3,3.83,3.83,0,0,1-2.78.78H702a3.92,3.92,0,0,1-2.8-.78,4.42,4.42,0,0,1-.74-3Z" transform="translate(-181 -288.83)"/><path class="cls-3" d="M746.82,631.31h-8.65v5.54h8.65a1.92,1.92,0,0,0,1.28-.34,1.78,1.78,0,0,0,.36-1.28v-2.3a1.35,1.35,0,0,0-1.64-1.62m-11.16,13.75V629.25h12.13a3.4,3.4,0,0,1,2.42.72,3.1,3.1,0,0,1,.76,2.35v3.52a3.09,3.09,0,0,1-.76,2.34,3.4,3.4,0,0,1-2.42.72h-2.21l6.89,6.16h-3.74l-6.13-6.16h-4.43v6.16Z" transform="translate(-181 -288.83)"/><polygon class="cls-3" points="589.03 340.43 589.03 356.23 602.97 356.23 602.97 354.02 591.54 354.02 591.54 340.43 589.03 340.43"/><polygon class="cls-3" points="498.43 340.43 494.31 352.98 490.02 340.43 488.47 340.43 484.03 352.98 479.94 340.43 477.39 340.43 482.86 356.23 484.84 356.23 489.17 344.28 493.35 356.23 495.22 356.23 500.68 340.43 498.43 340.43"/><line class="cls-3" y1="324.21" x2="638" y2="324.21"/><line class="cls-4" y1="324.21" x2="638" y2="324.21"/><g class="cls-5"><rect class="cls-6" x="328.47" y="124.43" width="69.19" height="68.32"/></g><g class="cls-7"><polygon class="cls-8" points="208.58 98.14 305.46 0 402.33 98.14 305.46 196.27 208.58 98.14"/></g><g class="cls-9"><rect class="cls-10" x="240.26" y="80.73" width="153.04" height="158.88"/></g></svg>