<svg viewBox="0 0 90 90" xmlns="http://www.w3.org/2000/svg"><g fill="none"><path fill="#42494B" d="M0 0h90v90H0z"/><path d="M72 20h-8.09c-3.732 0-6.762 3.196-6.762 7.133v7.108H65.3c3.697 0 6.699-3.166 6.699-7.066V20Zm-33.818 0h8.09c3.732 0 6.762 3.196 6.762 7.133v7.108h-8.153c-3.697 0-6.7-3.166-6.7-7.066V20Z" fill="#2CB0AF"/><path d="M19 38.072h8.09c3.732 0 6.762 3.196 6.762 7.133v7.108H25.7c-3.697 0-6.699-3.167-6.699-7.066v-7.175Zm0 17.688h8.09c3.732 0 6.762 3.195 6.762 7.132V70H25.7c-3.698 0-6.7-3.166-6.7-7.066V55.76Z" fill="#F9AE41"/><path d="M38.182 38.072h8.09c3.732 0 6.762 3.196 6.762 7.133v7.108h-8.153c-3.697 0-6.7-3.167-6.7-7.066v-7.175Zm33.818 0h-8.09c-3.732 0-6.762 3.196-6.762 7.133v7.108H65.3c3.697 0 6.699-3.167 6.699-7.066v-7.175ZM38.182 55.76h8.09c3.732 0 6.762 3.195 6.762 7.132V70h-8.153c-3.697 0-6.7-3.166-6.7-7.066V55.76Zm33.818 0h-8.09c-3.732 0-6.762 3.195-6.762 7.132V70H65.3c3.698 0 6.7-3.166 6.7-7.066V55.76Z" fill="#D2D2D2"/></g></svg>