<svg xmlns="http://www.w3.org/2000/svg" width="400" height="400"><g fill-rule="evenodd"><path d="M179.4.458c-3.08.188-5.913.521-6.295.742-.382.22-1.687.4-2.9.4-1.213 0-2.205.164-2.205.364 0 .2-1.53.492-3.4.647-1.87.156-3.4.419-3.4.585 0 .165-1.256.424-2.791.576-1.535.151-2.884.426-2.999.612-.115.185-1.327.467-2.693.626-1.367.158-2.762.425-3.101.592-1.632.807-2.756 1.174-4.314 1.41-.934.142-1.789.405-1.9.585-.112.181-1.103.452-2.202.603-1.1.151-2 .418-2 .592s-.806.438-1.791.586c-.985.147-1.883.417-1.995.6-.113.182-.859.454-1.659.604-.799.15-1.746.425-2.104.612-1.602.834-3.626 1.606-4.211 1.606-.352 0-.64.164-.64.365 0 .201-.72.486-1.6.635-.88.149-1.6.415-1.6.592s-.495.441-1.1.587c-1.541.372-3.3 1.165-3.3 1.487 0 .149-.54.389-1.2.534-.66.145-1.2.413-1.2.597 0 .183-.72.454-1.6.603-.88.149-1.6.42-1.6.603 0 .184-.54.452-1.2.597-.66.145-1.201.384-1.201.532-.001.147-.856.615-1.9 1.039-1.045.423-1.989.873-2.099 1-.11.126-1.1.679-2.2 1.229s-2.09 1.09-2.2 1.2c-.11.11-.875.543-1.7.963-.825.42-1.5.9-1.5 1.068 0 .168-.54.424-1.2.569-.66.145-1.2.41-1.2.588 0 .179-.45.438-1 .576-.55.138-1 .428-1 .644 0 .215-.261.392-.58.392-.319 0-.724.225-.9.5-.176.275-.995.843-1.82 1.263-.825.42-1.5.895-1.5 1.057 0 .161-.45.406-1 .544s-1 .428-1 .644c0 .215-.276.392-.613.392-.336 0-.716.27-.842.6-.127.33-.473.6-.77.6-.296 0-.989.45-1.539 1-.55.55-1.193 1-1.43 1-.237 0-.535.27-.661.6-.127.33-.468.6-.759.6s-.767.231-1.057.513c-.291.282-1.159.95-1.929 1.484s-1.635 1.293-1.923 1.687c-.287.394-.773.716-1.08.716-.306 0-.701.231-.877.514-.176.283-.86.91-1.52 1.394-1.412 1.035-3.765 3.087-6.835 5.963-1.216 1.139-2.975 2.696-3.907 3.46-2.183 1.789-7.138 6.744-8.927 8.927-.764.932-2.321 2.691-3.46 3.907-2.876 3.07-4.928 5.423-5.963 6.835-.484.66-1.111 1.344-1.394 1.52-.283.176-.514.571-.514.877 0 .307-.322.793-.716 1.08-.394.288-1.153 1.153-1.687 1.923s-1.202 1.638-1.484 1.929c-.282.29-.513.766-.513 1.057 0 .291-.27.632-.6.759-.33.126-.6.424-.6.661 0 .237-.45.88-1 1.43-.55.55-1 1.243-1 1.539 0 .297-.27.643-.6.77-.33.126-.6.506-.6.842 0 .337-.177.613-.392.613-.216 0-.506.45-.644 1s-.383 1-.544 1c-.162 0-.637.675-1.057 1.5-.42.825-.988 1.644-1.263 1.82-.275.176-.5.581-.5.9 0 .319-.177.58-.392.58-.216 0-.506.45-.644 1s-.397 1-.576 1c-.178 0-.443.54-.588 1.2-.145.66-.401 1.2-.569 1.2-.168 0-.648.675-1.068 1.5-.42.825-.853 1.59-.963 1.7-.11.11-.65 1.1-1.2 2.2-.55 1.1-1.103 2.09-1.229 2.2-.127.11-.577 1.054-1 2.099-.424 1.044-.892 1.899-1.039 1.9-.148 0-.387.541-.532 1.201-.145.66-.427 1.2-.627 1.2s-.479.72-.619 1.6c-.141.88-.399 1.6-.573 1.6-.175 0-.436.54-.581 1.2-.145.66-.385 1.2-.534 1.2-.322 0-1.115 1.759-1.487 3.3-.146.605-.41 1.1-.587 1.1s-.443.72-.592 1.6c-.149.88-.434 1.6-.635 1.6s-.365.288-.365.64c0 .585-.772 2.609-1.606 4.211-.187.358-.462 1.305-.612 2.104-.15.8-.422 1.546-.604 1.659-.183.112-.453 1.01-.6 1.995-.148.985-.412 1.791-.586 1.791s-.441.9-.592 2c-.151 1.099-.422 2.09-.603 2.202-.18.111-.443.966-.585 1.9-.236 1.558-.603 2.682-1.41 4.314-.167.339-.434 1.734-.592 3.101-.159 1.366-.441 2.578-.626 2.693-.186.115-.461 1.464-.612 2.999-.152 1.535-.411 2.791-.576 2.791-.166 0-.429 1.53-.585 3.4-.155 1.87-.447 3.4-.647 3.4s-.364 1.044-.364 2.32c0 1.276-.162 2.491-.359 2.7-1.577 1.668-1.577 52.292 0 53.96.197.209.359 1.424.359 2.7 0 1.276.164 2.32.364 2.32.2 0 .492 1.533.648 3.406.156 1.873.424 3.492.595 3.598.171.106.438 1.454.593 2.994.155 1.541.425 2.802.601 2.802s.45 1.118.609 2.484c.158 1.366.425 2.761.592 3.1.764 1.545 1.16 2.735 1.405 4.216.146.88.406 1.78.578 2 .173.22.438 1.255.589 2.3.151 1.045.424 1.9.605 1.9.182 0 .451.806.599 1.791.147.985.417 1.883.6 1.995.182.113.454.859.604 1.659.15.799.425 1.746.612 2.104.834 1.602 1.606 3.626 1.606 4.211 0 .352.164.64.365.64.201 0 .486.72.635 1.6.149.88.434 1.6.635 1.6s.365.269.365.597c0 .812 1.318 3.803 1.676 3.803.158 0 .406.63.55 1.4.145.77.403 1.4.574 1.4.171 0 .429.63.574 1.4.144.77.434 1.4.644 1.4.21 0 .382.214.382.476 0 .461 2.389 5.52 2.798 5.924.111.11.652 1.1 1.202 2.2.55 1.1 1.09 2.09 1.2 2.2.11.11.543.875.963 1.7.42.825.9 1.5 1.068 1.5.168 0 .424.54.569 1.2.145.66.41 1.2.588 1.2.179 0 .438.45.576 1 .138.55.428 1 .644 1 .215 0 .392.261.392.58 0 .319.225.724.5.9.275.176.843.995 1.263 1.82.42.825.895 1.5 1.057 1.5.161 0 .406.45.544 1s.428 1 .644 1c.215 0 .392.187.392.416 0 .507 1.538 2.74 2.5 3.63.385.356.7.824.7 1.04 0 .215.357.824.793 1.353 1.235 1.498 1.367 1.672 2.399 3.161.533.77 1.294 1.691 1.689 2.047.395.356.719.842.719 1.08 0 .238.234.577.52.753.286.176.957.95 1.49 1.72s1.559 1.961 2.28 2.647c.72.686 1.31 1.411 1.31 1.611 0 .2.315.644.7.986.385.342 1.178 1.171 1.762 1.843.584.672 1.214 1.287 1.4 1.367.186.08 1.058 1.042 1.938 2.138 1.736 2.162 5.891 6.318 9.807 9.808 1.357 1.21 3.054 2.785 3.771 3.5.716.715 1.432 1.3 1.589 1.3.158 0 .86.585 1.56 1.3.7.715 1.879 1.726 2.619 2.246.74.52 1.64 1.2 2 1.511.36.31 1.374 1.19 2.254 1.955.88.764 1.915 1.492 2.3 1.616.385.124.7.382.7.572 0 .19.378.466.839.613.462.146 1.151.563 1.531.926 1.369 1.31 3.014 2.461 3.517 2.461.282 0 .513.186.513.413 0 .226.315.532.7.679.385.147 1.003.547 1.374.888.37.341 1.54 1.07 2.6 1.62 1.059.55 2.07 1.225 2.246 1.5.176.275.581.5.9.5.319 0 .58.168.58.373s.405.499.9.654c.495.154.99.392 1.1.527.201.247 1.388.932 4 2.308.77.406 1.49.828 1.6.938.11.11.83.538 1.6.952 4.246 2.28 5.83 3.048 6.289 3.048.281 0 .511.166.511.368 0 .203.54.487 1.2.632.66.145 1.2.427 1.2.627s.72.479 1.6.619c.88.141 1.6.413 1.6.605s.27.349.6.349c.33 0 .6.18.6.4 0 .22.225.401.5.402.275.002.983.255 1.573.563.59.308 1.625.681 2.3.829.675.148 1.227.419 1.227.603 0 .183.72.454 1.6.603.88.149 1.6.434 1.6.635s.249.365.554.365c.305 0 1.07.269 1.7.598.63.328 1.461.598 1.846.6.385.001.7.162.7.357 0 .195.806.475 1.791.623.985.147 1.889.427 2.009.622.12.195 1.024.475 2.009.622.985.148 1.791.412 1.791.586s.9.441 2 .592c1.1.151 2 .438 2 .638 0 .199.439.362.976.362.537 0 1.073.156 1.191.347.118.191 1.112.466 2.208.612 1.095.145 2.087.418 2.203.605.116.188 1.381.467 2.812.62 1.431.153 2.698.434 2.815.624.117.19 1.469.469 3.004.62 1.535.152 2.791.432 2.791.624 0 .191.774.348 1.72.348s1.892.172 2.103.383c.21.21 1.911.494 3.78.63 1.868.137 3.757.406 4.197.599 3.42 1.501 53.183 1.504 54.2.004.11-.162 1.815-.416 3.789-.565 1.974-.148 3.765-.445 3.98-.66.215-.215 1.154-.391 2.087-.391.933 0 1.797-.162 1.919-.359.122-.198 1.483-.486 3.023-.641 1.541-.155 2.802-.422 2.802-.594s1.168-.438 2.596-.591c1.427-.153 2.695-.438 2.816-.635.122-.196 1.118-.476 2.213-.621 1.096-.146 2.09-.421 2.208-.612.118-.191.654-.347 1.191-.347s.976-.157.976-.348c0-.192.9-.468 2-.614 1.1-.146 2-.422 2-.614s.9-.473 2-.624c1.1-.151 2-.427 2-.613s.81-.459 1.8-.608c.99-.148 1.8-.406 1.8-.573 0-.167.72-.419 1.6-.56.88-.14 1.6-.433 1.6-.651 0-.217.249-.395.554-.395.305 0 1.07-.269 1.7-.598.63-.328 1.461-.598 1.846-.6.385-.001.7-.182.7-.402 0-.22.315-.406.7-.414.385-.007 1.42-.361 2.3-.786.88-.425 1.825-.779 2.1-.786.275-.008.5-.194.5-.414 0-.22.36-.4.8-.4.44 0 .8-.16.8-.355 0-.196.63-.474 1.4-.619.77-.144 1.4-.434 1.4-.644 0-.21.225-.382.5-.382.64 0 7.929-3.629 8.629-4.296.29-.277.785-.504 1.1-.504.314 0 .571-.166.571-.368 0-.203.54-.487 1.2-.632.66-.145 1.2-.426 1.2-.624s.45-.474 1-.612 1-.411 1-.607c0-.197.27-.357.6-.357.33 0 .6-.16.6-.357 0-.196.45-.469 1-.607s1-.428 1-.644c0-.215.276-.392.613-.392.336 0 .716-.27.842-.6.127-.33.472-.6.768-.6.585 0 4.294-2.371 4.51-2.884.074-.174.306-.316.517-.316.389 0 2.489-1.392 3.468-2.3.296-.275.661-.5.811-.5.149-.001.811-.447 1.471-.993l1.605-1.326a9.452 9.452 0 0 1 1.046-.708c.783-.456 3.318-2.45 4.671-3.673.547-.495 1.12-.9 1.274-.9.154 0 1.218-.9 2.365-2 1.147-1.1 2.215-2 2.374-2 .158 0 .569-.315.913-.7.344-.385 2.019-1.96 3.722-3.5a180.582 180.582 0 0 0 12.03-12.03c1.54-1.703 3.115-3.378 3.5-3.722.385-.344.7-.755.7-.913 0-.159.9-1.227 2-2.374s2-2.211 2-2.365c0-.154.405-.727.9-1.274 1.223-1.353 3.217-3.888 3.673-4.671.205-.353.524-.824.708-1.046l1.326-1.605c.546-.66.992-1.322.993-1.471 0-.15.225-.515.5-.811.908-.979 2.3-3.079 2.3-3.468 0-.211.142-.443.316-.517.513-.216 2.884-3.925 2.884-4.51 0-.296.27-.641.6-.768.33-.126.6-.506.6-.842 0-.337.177-.613.392-.613.216 0 .506-.45.644-1s.411-1 .607-1c.197 0 .357-.27.357-.6 0-.33.18-.6.4-.6.22 0 .4-.257.4-.571 0-.315.246-.818.547-1.119.301-.301.685-.989.854-1.529.169-.539.418-1.071.553-1.181.581-.473 5.246-9.61 5.246-10.275 0-.289.172-.525.382-.525.21 0 .5-.63.644-1.4.145-.77.423-1.4.619-1.4.195 0 .355-.36.355-.8 0-.44.18-.8.4-.8.22 0 .406-.225.414-.5.007-.275.361-1.22.786-2.1.425-.88.779-1.915.786-2.3.008-.385.194-.7.414-.7.22 0 .401-.315.402-.7.002-.385.272-1.216.6-1.846.329-.63.598-1.395.598-1.7 0-.305.178-.554.395-.554.218 0 .511-.72.651-1.6.141-.88.393-1.6.56-1.6.167 0 .425-.81.573-1.8.149-.99.422-1.8.608-1.8s.462-.9.613-2c.151-1.1.432-2 .624-2s.468-.9.614-2c.146-1.1.422-2 .614-2 .191 0 .348-.439.348-.976 0-.537.156-1.073.347-1.191.191-.118.466-1.112.612-2.208.145-1.095.425-2.091.621-2.213.197-.121.482-1.389.635-2.816.153-1.428.419-2.596.591-2.596s.439-1.261.594-2.802c.155-1.54.443-2.901.641-3.023.197-.122.359-.986.359-1.919s.176-1.872.391-2.087c.215-.215.512-2.006.66-3.98.149-1.974.403-3.679.565-3.789 1.5-1.017 1.497-50.78-.004-54.2-.193-.44-.462-2.329-.599-4.197-.136-1.869-.42-3.57-.63-3.78-.211-.211-.383-1.157-.383-2.103 0-.946-.157-1.72-.348-1.72-.192 0-.472-1.256-.624-2.791-.151-1.535-.423-2.882-.604-2.994-.181-.112-.455-1.374-.608-2.805-.153-1.431-.439-2.701-.636-2.822-.196-.122-.476-1.118-.621-2.213-.146-1.096-.421-2.09-.612-2.208-.191-.118-.347-.654-.347-1.191s-.163-.976-.362-.976c-.2 0-.487-.9-.638-2-.151-1.1-.418-2-.592-2s-.438-.806-.586-1.791c-.147-.985-.427-1.889-.622-2.009-.195-.12-.475-1.024-.622-2.009-.148-.985-.428-1.791-.623-1.791s-.356-.315-.357-.7c-.002-.385-.272-1.216-.6-1.846-.329-.63-.598-1.395-.598-1.7 0-.305-.164-.554-.365-.554-.201 0-.486-.72-.635-1.6-.149-.88-.42-1.6-.603-1.6-.184 0-.455-.552-.603-1.227-.148-.675-.521-1.71-.829-2.3-.308-.59-.561-1.298-.563-1.573-.001-.275-.182-.5-.402-.5-.22 0-.4-.27-.4-.6 0-.33-.157-.6-.349-.6-.192 0-.464-.72-.605-1.6-.14-.88-.419-1.6-.619-1.6s-.482-.54-.627-1.2c-.145-.66-.429-1.2-.632-1.2-.202 0-.368-.23-.368-.511 0-.459-.768-2.043-3.048-6.289-.414-.77-.842-1.49-.952-1.6-.11-.11-.532-.83-.938-1.6-1.376-2.612-2.061-3.799-2.308-4-.135-.11-.373-.605-.527-1.1-.155-.495-.449-.9-.654-.9-.205 0-.373-.261-.373-.58 0-.319-.225-.724-.5-.9-.275-.176-.95-1.187-1.5-2.246-.55-1.06-1.315-2.267-1.7-2.684-.385-.416-.7-.95-.7-1.186s-.27-.533-.6-.659c-.33-.127-.6-.442-.6-.701 0-.466-1.189-2.145-2.461-3.474-.363-.38-.78-1.069-.926-1.531-.147-.461-.423-.839-.613-.839s-.448-.315-.572-.7c-.124-.385-.852-1.42-1.616-2.3-.765-.88-1.645-1.894-1.955-2.254-.311-.36-.991-1.26-1.511-2-.52-.74-1.531-1.919-2.246-2.619-.715-.7-1.3-1.402-1.3-1.56 0-.157-.585-.873-1.3-1.589-.715-.717-2.29-2.414-3.5-3.771-3.49-3.916-7.646-8.071-9.808-9.807-1.096-.88-2.058-1.752-2.138-1.938-.08-.186-.695-.816-1.367-1.4s-1.501-1.377-1.843-1.762c-.342-.385-.786-.7-.986-.7-.2 0-.925-.59-1.611-1.31-.686-.721-1.877-1.747-2.647-2.28-.77-.533-1.544-1.204-1.72-1.49-.176-.286-.515-.52-.753-.52s-.724-.324-1.08-.719c-.356-.395-1.277-1.156-2.047-1.689-1.489-1.032-1.663-1.164-3.161-2.399-.529-.436-1.138-.793-1.353-.793-.216 0-.684-.315-1.04-.7-.89-.962-3.123-2.5-3.63-2.5-.229 0-.416-.177-.416-.392 0-.216-.45-.506-1-.644s-1-.383-1-.544c0-.162-.675-.637-1.5-1.057-.825-.42-1.644-.988-1.82-1.263-.176-.275-.581-.5-.9-.5-.319 0-.58-.177-.58-.392 0-.216-.45-.506-1-.644s-1-.397-1-.576c0-.178-.54-.443-1.2-.588-.66-.145-1.2-.401-1.2-.569 0-.168-.675-.648-1.5-1.068-.825-.42-1.59-.853-1.7-.963-.11-.11-1.1-.65-2.2-1.2-1.1-.55-2.09-1.091-2.2-1.202-.404-.409-5.463-2.798-5.924-2.798-.262 0-.476-.172-.476-.382 0-.21-.63-.5-1.4-.644-.77-.145-1.4-.403-1.4-.574 0-.171-.63-.429-1.4-.574-.77-.144-1.4-.392-1.4-.55 0-.358-2.991-1.676-3.803-1.676-.328 0-.597-.164-.597-.365 0-.201-.72-.486-1.6-.635-.88-.149-1.6-.434-1.6-.635s-.288-.365-.64-.365c-.585 0-2.609-.772-4.211-1.606-.358-.187-1.305-.462-2.104-.612-.8-.15-1.546-.422-1.659-.604-.112-.183-1.01-.453-1.995-.6-.985-.148-1.791-.417-1.791-.599 0-.181-.855-.454-1.9-.605-1.045-.151-2.08-.416-2.3-.589-.22-.172-1.12-.432-2-.578-1.5-.248-2.712-.655-4.255-1.429-.36-.18-1.755-.452-3.1-.605-1.345-.152-2.445-.415-2.445-.584 0-.169-1.261-.434-2.802-.589-1.54-.155-2.888-.422-2.994-.593-.106-.171-1.725-.439-3.598-.595-1.873-.156-3.406-.448-3.406-.648s-1.044-.364-2.32-.364c-1.276 0-2.491-.162-2.7-.359C225.848.17 192.995-.37 179.4.458M306.401 70.76c13.221 3.865 37.221 18.82 41.671 25.967 3.587 5.759-11.204 18.941-38.072 33.931-8.805 4.912-7.775 4.823-9.792.842-1.795-3.544-2.538-4.364-5.607-6.193-3.524-2.1-4.043-2.696-5.26-6.034-1.349-3.697-3.438-6.031-6.341-7.081-3.107-1.125-3.157-.144.53-10.392 3.789-10.532 10.243-24.054 13.92-29.166L299.345 70h2.229c1.226 0 3.398.342 4.827.76m-101.099 4.209c1.634.312 5.385 1.405 8.335 2.427 8.484 2.94 10.914 3.367 21.637 3.8 19.583.791 20.639 1.052 28.047 6.912 2.023 1.602 4.61 3.502 5.748 4.224 3.244 2.057 3.219 1.641.501 8.445-2.603 6.516-6 15.856-6.106 16.791-.083.733 5.817 4.455 9.494 5.989 1.563.652 2.968 1.424 3.123 1.714.155.291.583 1.249.953 2.129 1.743 4.151 2.466 5.341 4.369 7.2 1.127 1.1 3.222 2.681 4.657 3.514 3.611 2.097 5.536 5.773 6.148 11.743.155 1.508.491 3.692.748 4.851l.465 2.108 5.59-3.334c10.993-6.557 22.214-12.758 22.729-12.56.288.11.96 1.523 1.492 3.139 6.22 18.894-15.682 39.068-54.432 50.137-5.08 1.451-7.872 2.187-9.8 2.581-.88.18-3.31.699-5.4 1.154-71.005 15.458-160.311-5.55-172.412-40.557-2.134-6.174-1.251-10.799 3.373-17.662 1.154-1.712 3.435-5.094 5.069-7.514 1.633-2.42 3.491-5.75 4.128-7.4 3.559-9.226 3.215-8.919 16.642-14.802 7.636-3.346 12.334-6.595 19.899-13.76 5.646-5.347 6.375-5.876 9.638-6.994 6.128-2.098 11.346-2.934 18.063-2.894 9.905.059 17.117-2.008 24.773-7.1 3.506-2.333 4.134-2.5 15.827-4.227 1.98-.293 3.629-.553 3.665-.578.035-.025 1.402.211 3.037.524M83.2 109.107c0 .169-.425.934-.945 1.7-1.064 1.568-2.15 3.898-3.401 7.301-1.289 3.505-2.727 6.168-5.234 9.692-5.371 7.549-7.88 11.9-8.998 15.6-.399 1.32-.882 2.813-1.074 3.319-1.052 2.777-.151 11.845 1.668 16.782 2.752 7.473 10.371 17.255 17.531 22.51.74.544 1.91 1.46 2.6 2.035 9.492 7.926 36.795 19.593 54.253 23.182.99.204 2.97.662 4.4 1.019 27.513 6.857 72.04 7.87 103.6 2.356 1.87-.327 4.566-.781 5.991-1.01 1.426-.228 3.226-.582 4-.785.775-.203 2.579-.643 4.009-.978 5.75-1.346 9.134-2.207 11.8-3.005 4.078-1.22 10.274-3.224 11.2-3.623.44-.19 1.901-.709 3.246-1.154 1.346-.446 3.416-1.243 4.6-1.773 1.185-.53 2.778-1.213 3.541-1.519 16.644-6.671 33.362-19.777 39.98-31.343 5.798-10.134 6.241-24.763 1.002-33.062-.533-.844-.969-1.694-.969-1.888 0-.55 8.243-6.463 9.01-6.463 2.404 0 13.39 12.003 13.39 14.63 0 .137.253.816.563 1.51 1.886 4.223 2.038 5.552 2.008 17.525-.036 13.881-.376 16.264-3.512 24.587-.342.909-.808 3.069-1.036 4.8-.573 4.361-1.493 9.821-2.216 13.148-.335 1.54-.822 3.969-1.083 5.397-1.076 5.888-14.116 15.657-34.124 25.564-7.337 3.633-9.11 4.456-13 6.031-3.033 1.228-3.595 1.463-5.2 2.175-1.779.789-9.795 3.646-13.2 4.704-1.43.445-3.86 1.216-5.4 1.714-1.54.498-3.88 1.206-5.2 1.573-1.32.367-2.949.841-3.621 1.052-.672.212-2.022.556-3 .766-.978.21-2.859.664-4.179 1.01-1.32.345-3.66.889-5.2 1.208-1.54.32-4.06.861-5.6 1.204-2.778.617-3.49.744-11.2 1.999-4.086.665-11.852 1.67-15.8 2.045-12.283 1.165-16.236 1.358-27.8 1.358-11.589 0-15.077-.17-27.8-1.355-4.748-.442-15.674-1.95-19-2.623-1.1-.223-3.53-.682-5.4-1.021-1.87-.339-4.48-.877-5.8-1.196-1.32-.318-3.66-.858-5.2-1.199-2.979-.66-4.402-1.02-7.6-1.923-1.1-.31-3.17-.881-4.6-1.268-1.43-.387-2.96-.848-3.4-1.025-.44-.177-2.87-.976-5.4-1.776-11.472-3.624-28.997-11.114-38-16.24-11.86-6.753-19.625-12.269-25.221-17.917l-3.821-3.857-.715-5c-.394-2.75-.865-5.902-1.048-7.005-.183-1.103-.444-3.803-.58-6-.385-6.21-.581-7.235-1.703-8.87-3.1-4.518-3.891-9.081-3.903-22.525l-.009-11 1.147-3.5c3.38-10.313 12.476-20.511 27.091-30.372 3.425-2.311 5.195-3.374 10.962-6.579 1.676-.932 2.6-1.16 2.6-.642M65.863 254.008c6.961 6.612 19.557 14.535 31.337 19.712.77.338 2.628 1.17 4.128 1.848 1.5.677 2.823 1.232 2.939 1.232.117 0 .779.249 1.473.553.693.304 1.89.781 2.66 1.06.77.279 1.94.738 2.6 1.021.66.283 4.26 1.507 8 2.721 5.928 1.924 8.365 2.666 14 4.26.66.187 2.46.628 4 .982 1.54.353 3.501.828 4.357 1.056a60.75 60.75 0 0 0 3.6.795c1.124.21 3.393.65 5.043.977 1.65.327 4.62.849 6.6 1.161 1.98.311 4.77.758 6.2.993 19.786 3.252 54.278 3.28 76 .062 8.957-1.327 15.087-2.403 19.6-3.44 1.65-.379 3.63-.824 4.4-.988 1.808-.387 9.442-2.336 11-2.809l5.4-1.63c3.881-1.17 9.907-3.206 11.8-3.987.44-.182 1.79-.687 3-1.123 2.084-.751 6.169-2.464 10.6-4.444 2.556-1.143 10.674-5.208 11.2-5.609.22-.168 1.438-.876 2.707-1.574 2.077-1.142 8.29-5.106 9.293-5.929.22-.181 1.57-1.218 3-2.306s3.14-2.477 3.8-3.088c3.316-3.068 1.817.088-4.789 10.086-9.06 13.711-22.45 27.504-34.011 35.034-1.32.86-2.49 1.655-2.6 1.766-1.599 1.617-19.982 11.6-21.36 11.6-.176 0-.886.262-1.58.582-2.944 1.359-10.551 4.054-15.26 5.407-3.642 1.046-10.847 2.841-12.755 3.178-18.276 3.225-20.231 3.395-39.045 3.383-16.69-.01-24.01-.496-35.6-2.367-2.09-.337-4.861-.776-6.157-.976-3.137-.482-3.427-.551-19.11-4.533-1.027-.261-2.002-.609-2.167-.774-.164-.165-.584-.301-.933-.302-3.421-.012-23.776-9.342-31.833-14.593a444.427 444.427 0 0 0-4.836-3.11c-.9-.563-1.892-1.265-2.205-1.56-.312-.294-1.736-1.424-3.163-2.511-5.841-4.447-16.199-14.583-18.738-18.336-.331-.488-1.115-1.518-1.743-2.288a65.603 65.603 0 0 1-1.432-1.8c-.16-.22-.828-1.121-1.487-2.002-.658-.88-1.414-1.96-1.679-2.4a865.625 865.625 0 0 0-2.851-4.598c-2.324-3.732-6.866-12.251-6.866-12.88 0-.665.59-.241 3.463 2.488"/><path fill="#fff" d="M80 110.8c-.99.658-1.932 1.197-2.093 1.198-.486.003-10.785 6.451-11.507 7.204-.11.115-1.635 1.287-3.389 2.604-10.039 7.536-18.263 18.089-20.257 25.994-1.48 5.866-.736 27.564 1.086 31.66.308.694.56 1.373.56 1.51s.63 1.165 1.4 2.285c1.026 1.492 1.406 2.477 1.422 3.69.052 3.769.856 10.995 2.321 20.855.399 2.687.667 3.093 4.523 6.84 8.905 8.653 29.492 21.068 43.734 26.374 1.1.41 2.09.86 2.2 1.001.11.14.56.359 1 .486.44.127 1.79.615 3 1.084 1.21.469 3.28 1.228 4.6 1.687 1.32.459 2.58.969 2.8 1.135.22.165 1.024.434 1.787.598.763.163 1.663.434 2 .602.337.167 2.503.886 4.813 1.598 4.469 1.376 5.288 1.614 8.897 2.59l4.4 1.19c1.157.313 3.453.858 5.103 1.211 1.65.354 3.63.819 4.4 1.035 5.267 1.475 21.506 4.014 30.6 4.784 2.64.224 6.235.61 7.988.858 4.252.601 34.155.603 38.424.002 1.753-.247 5.438-.638 8.188-.87 7.145-.6 11.059-1.134 22.2-3.024 5.641-.957 14.572-2.917 20-4.388 1.32-.358 3.21-.828 4.2-1.045.99-.217 2.16-.548 2.6-.736.44-.187 1.7-.602 2.8-.922 4.261-1.24 10.455-3.202 11.6-3.675.66-.272 1.74-.687 2.4-.922 6.431-2.285 10.051-3.705 11.495-4.507.382-.212.864-.386 1.072-.386 2.035 0 21.948-10.431 31.434-16.467 6.429-4.09 14.599-11.585 14.599-13.394 0-.598.272-2.269.604-3.713.333-1.444.805-3.503 1.05-4.574a65.11 65.11 0 0 0 .772-4.2l.911-6.252c.584-4.002 1.278-6.848 1.852-7.6.391-.512 1.366-3.721 2.065-6.8.912-4.011.772-27.777-.179-30.4-2.639-7.281-7.483-13.898-13.007-17.767-1.423-.997-2.228-.846-3.961.743-.389.356-1.599 1.272-2.689 2.036-3.648 2.554-3.493 2.252-2.215 4.344 4.238 6.941 4.929 18.463 1.643 27.444-.749 2.048-4.195 8.571-4.984 9.434-.486.531-1.714 2.046-2.729 3.366-6.555 8.526-21.458 18.875-35.733 24.816-2.008.836-3.12 1.306-5 2.113-.99.425-3.24 1.26-5 1.855-1.76.595-3.56 1.232-4 1.415-1.022.425-3.985 1.348-7.8 2.427-3.267.925-5.248 1.509-6.8 2.005-.55.176-1.81.431-2.8.567-.99.136-2.16.406-2.6.599-.44.194-1.79.532-3 .753-1.21.22-3.73.697-5.6 1.059-4.668.903-7.251 1.329-11 1.811-1.76.227-4.28.591-5.6.81-2.388.395-7.823.908-16.6 1.565-5.95.445-30.45.445-36.4 0-8.704-.652-14.205-1.168-16.6-1.559-1.32-.216-3.93-.6-5.8-.854-5.246-.713-11.804-1.888-16.6-2.974-1.54-.349-3.61-.803-4.6-1.01-.99-.206-2.52-.582-3.4-.836-.88-.253-2.41-.688-3.4-.967-6.604-1.86-9.818-2.892-16.6-5.326-3.647-1.309-5.255-1.926-6.4-2.455-.44-.204-1.7-.76-2.8-1.236-4.558-1.974-13.751-6.771-15.6-8.141-.66-.489-2.28-1.54-3.6-2.335-1.32-.795-2.76-1.778-3.2-2.184-.44-.406-1.88-1.57-3.2-2.586-4.56-3.512-13.8-13.877-13.8-15.481 0-.248-.145-.451-.323-.451-.178 0-.659-.765-1.07-1.7l-1.45-3.3c-5.254-11.961-3.173-21.94 7.767-37.252 3.284-4.596 3.537-5.068 5.667-10.548 1.138-2.93 3.128-6.978 3.585-7.294 1.354-.938-.674-.104-2.176.894M64 253.478c0 .473 3.26 6.796 4.637 8.993 3.478 5.551 8.447 12.732 9.361 13.529.126.11.644.74 1.151 1.4 1.59 2.071 6.942 7.847 9.613 10.375 1.41 1.334 3.053 2.893 3.653 3.465.599.572 2.236 1.917 3.637 2.99 1.402 1.072 2.908 2.283 3.348 2.69.44.407 2.06 1.56 3.6 2.562 1.54 1.002 3.52 2.312 4.4 2.912 2.793 1.903 10.964 6.328 15 8.124.77.342 2.48 1.104 3.8 1.694 1.32.589 3.39 1.422 4.6 1.851 1.21.429 2.513.95 2.895 1.158.382.209.894.379 1.139.379s1.012.253 1.706.563c1.182.528 2.982 1.077 8.26 2.518 1.21.331 2.65.763 3.2.96 1.064.382 3.607.949 7.2 1.607 1.21.222 2.56.555 3 .742.44.186 2.15.524 3.8.75 1.65.227 4.854.702 7.121 1.056 13.685 2.139 47.81 3.014 56.679 1.453 1.32-.233 4.47-.711 7-1.062 2.53-.352 5.692-.898 7.026-1.213 1.334-.316 2.988-.574 3.676-.574.688 0 1.347-.156 1.465-.347.118-.191 1.16-.473 2.314-.626 1.154-.153 2.284-.423 2.509-.601.226-.177 1.13-.45 2.01-.607 1.727-.307 7.612-2.085 8.613-2.601.337-.174 1.231-.452 1.987-.618.756-.166 1.65-.453 1.987-.637.337-.185 2.053-.901 3.813-1.591 1.76-.69 3.83-1.524 4.6-1.854 1.52-.651 10.624-5.148 11.6-5.73 18.249-10.884 30.507-21.738 41.279-36.554.814-1.119 1.669-2.251 1.9-2.517.232-.266.421-.589.421-.717 0-.129.716-1.204 1.592-2.389.875-1.185 1.967-2.842 2.426-3.683.459-.84 1.279-2.293 1.82-3.228.969-1.672.785-2.333-.289-1.039-.301.363-1.538 1.386-2.749 2.272-1.21.886-2.29 1.717-2.4 1.846-.228.268-6.287 4.245-8.4 5.514-4.151 2.493-12.707 6.863-17.4 8.888-1.1.474-2.36 1.028-2.8 1.23-.44.202-1.79.737-3 1.189-1.21.452-2.56.977-3 1.167-.44.19-2.42.922-4.4 1.626-1.98.705-3.876 1.422-4.213 1.593-.337.172-1.237.436-2 .586-.763.151-1.747.436-2.187.634-.876.394-6.655 2.128-9.2 2.76-.88.219-2.68.689-4 1.044-7.746 2.084-18.654 4.197-28.8 5.58-2.2.3-4.72.648-5.6.773-8.622 1.226-16.103 1.594-32.4 1.592-19.693-.001-22.907-.241-44.8-3.344-1.54-.218-3.61-.576-4.6-.795a663.86 663.86 0 0 0-8.4-1.769c-.55-.11-2.17-.491-3.6-.845-1.43-.354-3.401-.816-4.379-1.026-.978-.21-2.328-.554-3-.766-.672-.211-2.301-.68-3.621-1.041-4.564-1.249-6.403-1.813-7.051-2.163-.358-.193-1.305-.474-2.104-.624-.8-.15-1.552-.432-1.673-.627s-.551-.355-.956-.355c-.61 0-8.142-2.714-11.016-3.97-.44-.192-2.42-1.017-4.4-1.833-3.804-1.568-14.261-6.56-14.6-6.971-.11-.133-.65-.458-1.2-.721-5.072-2.426-14.594-8.983-19.325-13.306-1.251-1.144-2.275-1.918-2.275-1.721"/><path fill="#598d36" d="M297.558 72.484c-1.771 2.503-3.593 5.584-4.12 6.968-.504 1.323.403.061 1.763-2.452 1.447-2.673 4.207-6.451 4.93-6.745.266-.109.191-.206-.173-.223-.353-.018-1.433 1.086-2.4 2.452m5.842-2.055c.88.227 2.555.693 3.722 1.036 1.168.343 2.216.53 2.33.416.29-.29-4.12-1.543-6.052-1.719l-1.6-.146 1.6.413m6.8 1.903c.22.214 1.948 1.025 3.841 1.802 1.892.777 4.114 1.792 4.939 2.255.824.462 3.055 1.673 4.959 2.689 1.904 1.017 5.261 3.012 7.461 4.433 2.2 1.421 4.38 2.821 4.844 3.109.464.289 1.094.768 1.4 1.065.306.297 1.726 1.432 3.156 2.522 5.163 3.934 7.866 7.365 7.448 9.454-.517 2.584-4.92 8.002-9.248 11.378-1.1.859-2.09 1.656-2.2 1.771-1.959 2.06-20.013 13.597-29.4 18.786-1.32.73-3.006 1.668-3.747 2.085-.741.417-1.393.704-1.449.639-.056-.066-.764-1.41-1.574-2.986-1.819-3.544-6.22-7.734-8.122-7.734-.648 0-1.709-1.63-2.408-3.701-.976-2.891-2.648-5.637-3.984-6.542-1.655-1.122-3.821-2.128-4.616-2.143-.385-.008-.694-.149-.687-.314.014-.325 1.179-3.609 1.925-5.426.539-1.315.604-2.363.091-1.474-.817 1.416-2.477 6.908-2.167 7.175.186.161 1.238.618 2.338 1.017 2.903 1.05 4.992 3.384 6.341 7.081 1.217 3.338 1.736 3.934 5.26 6.034 3.069 1.829 3.812 2.649 5.607 6.193 1.864 3.679 1.697 3.615 4.89 1.865 30.976-16.97 46.813-30.473 42.974-36.638-3.016-4.844-16.779-14.633-29.272-20.821-4.804-2.379-9.287-4.242-8.6-3.574m-111.6 2.691c-11.693 1.727-12.321 1.894-15.827 4.227-7.656 5.092-14.868 7.159-24.773 7.1-6.717-.04-11.935.796-18.063 2.894-3.263 1.118-3.992 1.647-9.638 6.994-7.565 7.165-12.263 10.414-19.899 13.76-13.427 5.883-13.083 5.576-16.642 14.802-.637 1.65-2.495 4.98-4.128 7.4-1.634 2.42-3.915 5.802-5.069 7.514-4.624 6.863-5.507 11.488-3.373 17.662 6.809 19.699 38.414 36.028 83.212 42.994 26.923 4.187 63.347 3.192 89.2-2.437 2.09-.455 4.52-.974 5.4-1.154 1.928-.394 4.72-1.13 9.8-2.581 38.75-11.069 60.652-31.243 54.432-50.137-.532-1.616-1.204-3.029-1.492-3.139-.515-.198-11.736 6.003-22.729 12.56l-5.59 3.334-.465-2.108c-.257-1.159-.593-3.343-.748-4.851-.612-5.97-2.537-9.646-6.148-11.743-1.435-.833-3.53-2.414-4.657-3.514-1.903-1.859-2.626-3.049-4.369-7.2-.37-.88-.798-1.838-.953-2.129-.155-.29-1.56-1.062-3.123-1.714-3.677-1.534-9.577-5.256-9.494-5.989.106-.935 3.503-10.275 6.106-16.791 2.718-6.804 2.743-6.388-.501-8.445-1.138-.722-3.725-2.622-5.748-4.224-7.408-5.86-8.464-6.121-28.047-6.912-10.723-.433-13.153-.86-21.637-3.8-4.229-1.466-10.989-3.219-11.372-2.951-.036.025-1.685.285-3.665.578m92.8 8.177c-.798 1.585-1.371 2.962-1.274 3.06.098.097.835-1.116 1.638-2.696.803-1.581 1.376-2.958 1.273-3.06-.102-.102-.839 1.111-1.637 2.696m-2.407 5.057c-4.603 10.868-5.974 14.495-5.616 14.854.112.112.308-.137.436-.554.281-.92 2.511-6.843 2.995-7.957.192-.44.731-1.7 1.199-2.8.468-1.1 1.123-2.6 1.456-3.332.333-.733.511-1.428.395-1.544-.116-.116-.505.484-.865 1.333M81.376 109.422c-.745.597-.74.605.124.186 1.06-.514 1.147-.138.259 1.129-.352.503-.553 1.003-.445 1.11.194.194 1.886-2.312 1.886-2.794 0-.469-1.041-.258-1.824.369m-2.176 1.105c-3.73 1.947-13.803 8.431-14.269 9.185-.126.203 1.909-1.061 4.52-2.809 2.612-1.748 6.144-3.943 7.849-4.877 1.705-.934 3.1-1.772 3.1-1.862 0-.241-.102-.21-1.2.363m1.214 2.647c-.507.947-.53 1.345-.062 1.056.353-.218.903-1.83.625-1.83-.082 0-.335.348-.563.774m-1.17 2.87c-.246.707-.378 1.356-.292 1.441.086.086.357-.423.604-1.129.246-.707.378-1.356.292-1.441-.086-.086-.357.423-.604 1.129m-1.564 4.036c-.479 1.134-.808 2.126-.73 2.203.078.078.538-.782 1.023-1.91.486-1.128.814-2.119.73-2.203-.083-.084-.544.776-1.023 1.91m-16.48 2.392c-1.65 1.32-3.068 2.608-3.151 2.864-.083.255.457-.09 1.2-.766 1.089-.992 2.688-2.256 5.118-4.047.091-.068.091-.197 0-.287-.092-.09-1.517.916-3.167 2.236m12.739 4.228c-2.325 3.274-3.153 4.592-2.45 3.9.921-.907 5.103-7 4.805-7-.085 0-1.144 1.395-2.355 3.1m-20.181 2.6c-2.796 2.89-5.334 5.98-6.327 7.7-.683 1.185-.683 1.187.039.21 1.738-2.356 4.811-5.98 6.875-8.11 1.227-1.265 2.14-2.3 2.031-2.3-.11 0-1.287 1.125-2.618 2.5m290.104-1c-.102.165.41.3 1.138.3s1.24-.135 1.138-.3c-.102-.165-.614-.3-1.138-.3-.524 0-1.036.135-1.138.3m-2.662 1.973c-2.677 2.058-2.914 2.487-.4.721 1.21-.849 2.275-1.601 2.367-1.669.091-.069.091-.195 0-.281-.092-.085-.977.468-1.967 1.229m6.2-.809c2.603 2.598 5.951 5.461 4.2 3.592-.99-1.057-2.52-2.477-3.4-3.156-.88-.679-1.24-.875-.8-.436M70.093 132.3c-1.173 1.693-1.459 2.414-.516 1.3.976-1.154 1.736-2.4 1.464-2.4-.102 0-.529.495-.948 1.1m267.007.946c-1.124.839-1.411 1.715-.705 2.151.232.143.291-.028.143-.415-.169-.44.133-.976.904-1.607 1.422-1.162 1.17-1.257-.342-.129m.624 4.549c.482.987.936 1.617 1.009 1.401.123-.365-1.42-3.196-1.742-3.196-.079 0 .251.808.733 1.795m19.368 3.27c.829 1.576 1.571 2.803 1.649 2.726.207-.205-1.459-3.431-2.371-4.591-.433-.55-.108.289.722 1.865M339.07 141c.131.66.388 1.47.572 1.8.599 1.077.393-.45-.244-1.8l-.565-1.2.237 1.2M64.6 142c-.15.473-.183.95-.073 1.06.11.11.323-.187.473-.66.15-.473.183-.95.073-1.06-.11-.11-.323.187-.473.66m-1.011 3.24c-.243.903-.349 1.734-.235 1.848.114.113.323-.31.464-.941.141-.631.342-1.462.446-1.847.105-.385.095-.7-.022-.7-.116 0-.41.738-.653 1.64m276.739 1.56c.349 3.853.345 7.576-.011 10.6-.228 1.944-.196 2.21.169 1.4.563-1.25.545-12.124-.023-13.8-.307-.907-.34-.468-.135 1.8m-297.699-.571c-.148.586-.191 1.143-.097 1.237.095.094.292-.308.439-.895.148-.586.191-1.143.097-1.237-.095-.094-.292.308-.439.895m-.903 3.23c-.503 2.38-.319 23.32.218 24.741l.453 1.2-.21-1.2c-.459-2.62-.649-19.728-.253-22.794.441-3.417.327-4.479-.208-1.947m318.524.141c.325 2.241.552 2.56.544.767-.003-.752-.186-1.637-.406-1.967-.279-.419-.321-.058-.138 1.2m-297.308 2.6c-.001 1.98.066 2.84.15 1.912.084-.928.085-2.548.003-3.6-.083-1.052-.152-.292-.153 1.688m298.025 7.6c0 4.18.059 5.836.131 3.679.073-2.156.072-5.576 0-7.6-.073-2.023-.132-.259-.131 3.921m-297.508-1.4c.134.99.397 2.16.586 2.6.415.97-.007-1.907-.499-3.4-.217-.658-.246-.384-.087.8m275.781 3.44c-.543 1.968-.263 2.248.36.36.264-.799.385-1.548.269-1.664-.116-.116-.399.471-.629 1.304m-274.611.96c.147.55.435 1.27.638 1.6.258.417.29.295.104-.4-.147-.55-.435-1.27-.638-1.6-.258-.417-.29-.295-.104.4m273.438 2.38c-.234.671-.34 1.22-.236 1.22.27 0 1.025-2.078.826-2.276-.09-.091-.356.384-.59 1.056m-272.456.13c-.021.607 2.714 5.707 3.587 6.69l.889 1-.733-1.2c-.403-.66-1.408-2.46-2.233-4-.825-1.54-1.505-2.661-1.51-2.49m269.913 4.773c-1.032 1.747-1.611 2.955-1.286 2.685.659-.546 3.537-5.538 3.308-5.735-.08-.069-.99 1.304-2.022 3.05m24.955.761a77.402 77.402 0 0 1-.277 4.2c-.183 1.801-.166 1.852.217.634.228-.727.353-2.617.278-4.2-.126-2.622-.145-2.679-.218-.634m-288.675 4.664c2.421 3.272 10.252 10.892 11.195 10.892.15 0-.598-.697-1.663-1.549-1.903-1.522-7.456-7.197-10.062-10.281-.729-.864-.491-.441.53.938m260.725-1.008c-.902 1.002-1.469 1.9-1.2 1.9.097 0 .657-.63 1.244-1.4 1.204-1.579 1.18-1.859-.044-.5m-290.061 1.9c-.006.55.143 1.36.332 1.8l.344.8-.012-.8c-.006-.44-.156-1.25-.332-1.8l-.32-1-.012 1m284.542 4.397-3.589 3.803 3.771-3.685c2.075-2.026 3.69-3.738 3.59-3.803-.1-.065-1.797 1.593-3.772 3.685m32.303-.956c-.246 1.077-.384 2.021-.307 2.099.223.222 1.057-3.15.898-3.628-.078-.235-.344.453-.591 1.529m-316.092-.528c-.039.577 1.203 3.25 1.832 3.946.343.378.868 1.375 1.167 2.215.32.896.552 1.196.561.726.009-.44-.375-1.43-.853-2.2a50.422 50.422 0 0 1-1.777-3.2c-.5-.99-.918-1.659-.93-1.487m314.439 5.296c-.517 1.182-.847 2.384-.732 2.67.132.33.22.258.24-.195.018-.394.403-1.442.855-2.33.453-.887.768-1.767.7-1.954-.067-.187-.546.627-1.063 1.809M321 186.044c-3.049 2.462-3.515 3.118-.717 1.008 2.124-1.602 3.296-2.69 2.841-2.638-.068.008-1.024.741-2.124 1.63m-236.2 1.94c.77.68 1.76 1.431 2.2 1.67.44.238.17-.128-.6-.814-.77-.686-1.76-1.437-2.2-1.669-.44-.232-.17.134.6.813M46.897 190.8c-.006.99.124 2.88.288 4.2l.297 2.4.024-2.2c.013-1.21-.116-3.1-.288-4.2l-.311-2-.01 1.8m41.303-.537c.725.742 4.292 2.978 4.469 2.801.155-.155-.524-.613-3.869-2.613-.55-.329-.82-.413-.6-.188m267.615 2.352c-.154 1.239-.191 2.342-.081 2.452.11.11.327-.813.481-2.052.155-1.238.192-2.342.082-2.452-.11-.11-.327.814-.482 2.052m-43.315-.569c-1.363.873-1.805 1.46-.6.797.918-.504 2.356-1.616 2.1-1.624-.11-.003-.785.369-1.5.827m-219.144 1.483c.164.265 1.051.86 1.971 1.321 1.958.981 1.56.489-.698-.862-.864-.518-1.437-.724-1.273-.459m213.344 1.897c-1.873.975-2.565 1.6-1.2 1.084.942-.356 3.3-1.749 3.3-1.95 0-.227.001-.227-2.1.866m-208.924.794c.86.642 1.592.776 1.254.228-.12-.193-.625-.454-1.124-.58-.874-.22-.879-.208-.13.352m1.824.778c0 .267 5.649 3.087 5.827 2.908.08-.079-1.199-.809-2.841-1.622-1.642-.813-2.986-1.391-2.986-1.286m202.6.812c-.88.542-1.471.987-1.312.988.383.003 3.512-1.635 3.512-1.838 0-.35-.674-.089-2.2.85m52.454 2.144c-.154.964-.196 1.837-.093 1.94.269.269.754-2.549.546-3.172-.095-.286-.299.268-.453 1.232m-55.354-.742c-.495.199-.9.458-.9.575 0 .388.637.221 1.424-.374.884-.67.761-.717-.524-.201M48.097 201.4c-.001.88.135 2.14.303 2.8.44 1.73.455-.157.02-2.6l-.32-1.8-.003 1.6m58.703-.8c.55.314 1.18.572 1.4.572.22 0-.05-.258-.6-.572-.55-.314-1.18-.572-1.4-.572-.22 0 .05.258.6.572m189.642-.166c-.527.211-.858.483-.735.606.122.122.733-.054 1.358-.393 1.256-.681.874-.812-.623-.213M109.6 201.8c.55.314 1.18.572 1.4.572.22 0-.05-.258-.6-.572-.55-.314-1.18-.572-1.4-.572-.22 0 .05.258.6.572m184.1-.188c-1.339.539-1.089.812.3.328.66-.23 1.2-.491 1.2-.579 0-.237-.487-.156-1.5.251M112.4 203c.55.314 1.18.572 1.4.572.22 0-.05-.258-.6-.572-.55-.314-1.18-.572-1.4-.572-.22 0 .05.258.6.572m241.438.971-.47 2.429c-.127.66-.14 1.2-.028 1.2.287 0 1.172-4.421.933-4.66-.108-.109-.304.356-.435 1.031M114.8 204c.33.213.87.388 1.2.388.533 0 .533-.043 0-.388-.33-.213-.87-.388-1.2-.388-.533 0-.533.043 0 .388m173.2 0c-.533.345-.533.388 0 .388.33 0 .87-.175 1.2-.388.533-.345.533-.388 0-.388-.33 0-.87.175-1.2.388m-170.8.733c.33.203 1.05.491 1.6.638.695.186.817.154.4-.104-.33-.203-1.05-.491-1.6-.638-.695-.186-.817-.154-.4.104m168.6-.048c-.44.106-.98.375-1.2.599-.27.274-.075.311.6.113 2.071-.608 2.555-1.182.6-.712m-165.4 1.248c.33.203 1.05.491 1.6.638.695.186.817.154.4-.104-.33-.203-1.05-.491-1.6-.638-.695-.186-.817-.154-.4.104m161.4.269-1.2.565 1.2-.237c.66-.131 1.47-.388 1.8-.572 1.077-.599-.45-.393-1.8.244M49.046 208c.129 1.21.375 2.349.546 2.531.17.182.144-.628-.06-1.8-.516-2.976-.767-3.352-.486-.731m229.154-.598-1.2.565 1.2-.237c.66-.131 1.47-.388 1.8-.572 1.077-.599-.45-.393-1.8.244m-151.8.547c.33.197 1.23.471 2 .607.944.167 1.14.136.6-.095-1.237-.529-3.31-.938-2.6-.512m148.2.451-.8.344h.8c.44 0 1.16-.155 1.6-.344l.8-.344h-.8c-.44 0-1.16.155-1.6.344m77.997 1.673c-.458 2.798-4.208 6.584-12.097 12.213-2.183 1.558-3.431 2.719-2 1.861 8.023-4.81 16.388-13.793 14.553-15.627-.095-.096-.301.603-.456 1.553m-221.397-.7c.77.311 1.67.574 2 .584 1.052.032-.413-.633-2-.908l-1.4-.242 1.4.566m140.456-.114c-.739.213-1.269.461-1.177.553.202.202 3.121-.575 3.121-.831 0-.235-.318-.19-1.944.278M134.8 210.361c.831.481 3.581.983 2.8.511-.33-.199-1.23-.474-2-.61-.871-.155-1.173-.117-.8.099m132.2.254c-1.577.546-1.58.55-.2.317 1.632-.275 3.3-.884 2.4-.876-.33.003-1.32.255-2.2.559m-214.012 3.773c1.743 1.753 3.223 3.134 3.289 3.069.149-.15-5.94-6.257-6.239-6.257-.12 0 1.207 1.435 2.95 3.188m86.612-2.842c1.493.492 4.37.914 3.4.499-.44-.189-1.61-.452-2.6-.586-1.184-.159-1.458-.13-.8.087m122.2.261-1.6.545 1.6-.233c.88-.128 1.96-.376 2.4-.551l.8-.317-.8.005c-.44.003-1.52.251-2.4.551m-117 .993c.55.176 1.36.32 1.8.32.633 0 .592-.066-.2-.32-.55-.176-1.36-.32-1.8-.32-.633 0-.592.066.2.32m112.6 0-.8.344h.8c.44 0 1.16-.155 1.6-.344l.8-.344h-.8c-.44 0-1.16.155-1.6.344M150.6 214c.66.168 1.56.314 2 .325l.8.019-.8-.344c-.44-.189-1.34-.335-2-.325l-1.2.02 1.2.305m100.4 0c-1.064.457.603.457 2.4 0l1.2-.305-1.4-.02c-.77-.01-1.76.136-2.2.325m-95.723.78c.593.186 2.033.443 3.2.571 1.347.147 1.757.112 1.123-.096-.55-.181-1.99-.438-3.2-.571-1.455-.16-1.835-.128-1.123.096m90.584.039c-1.067.179-2.057.445-2.2.591-.28.284 2.457-.062 4.745-.6 1.874-.441.098-.434-2.545.009m-83.061 1.158c.77.181 2.66.427 4.2.546 1.756.136 2.319.098 1.511-.101-.709-.174-2.599-.42-4.2-.546-1.927-.152-2.438-.118-1.511.101m74.609.069c-1.315.191-2.575.432-2.8.535-.546.251 4.369-.202 6.391-.588l1.6-.305-1.4.005c-.77.002-2.476.161-3.791.353m-65.209 1.143c1.192.314 6.886.544 6.567.265-.092-.08-1.877-.243-3.967-.363-2.159-.124-3.282-.082-2.6.098m55 .011-2.6.262 2.6.046c1.43.025 3.32-.103 4.2-.285l1.6-.331-1.6.023c-.88.013-2.77.141-4.2.285m-170.384.673c.009.18 1.204 1.205 2.655 2.278 1.452 1.073 2.536 1.783 2.409 1.578-.39-.63-5.081-4.203-5.064-3.856m123.689.014c.609.092 1.509.09 2-.005.492-.095-.005-.171-1.105-.168-1.1.003-1.503.081-.895.173m40.8 0c.609.092 1.509.09 2-.005.492-.095-.005-.171-1.105-.168-1.1.003-1.503.081-.895.173m-28.448.655c5.061.193 13.003.194 18 .002 8.306-.32 7.661-.344-9.057-.345-16.808-.001-17.4.021-8.943.343M62.4 222.141c0 .172 4.311 3.317 5.5 4.014 1.553.909.082-.344-2.5-2.129-1.65-1.141-3-1.989-3-1.885m273.7 3.105c-1.363.873-1.805 1.46-.6.797.918-.504 2.356-1.616 2.1-1.624-.11-.003-.785.369-1.5.827m-4.409 2.711c-3.179 1.936-3.68 2.444-1.091 1.105 1.822-.942 4.284-2.652 3.8-2.639-.11.003-1.329.693-2.709 1.534M80.4 233.361c0 .308 5.675 3.097 5.882 2.891.089-.09-1.058-.768-2.55-1.508-3.395-1.683-3.332-1.656-3.332-1.383m237.694 1.929c-2.259 1.117-4.033 2.104-3.942 2.195.193.193 8.248-3.8 8.248-4.089 0-.256.374-.42-4.306 1.894M89.2 237.81c0 .115.405.37.9.565.495.195 1.575.643 2.4.996 2.361 1.007 1.75.402-.748-.742-2.394-1.096-2.552-1.146-2.552-.819m223 .404c-1.005.484-1.037.539-.2.337.55-.132 1.171-.401 1.38-.596.518-.484.234-.422-1.18.259m-217.8 1.92c0 .103.581.39 1.291.638.71.247 1.115.285.9.084-.456-.427-2.191-.998-2.191-.722m210.2 1.252c-.66.302-.93.557-.6.567.33.01 1.05-.239 1.6-.553 1.273-.728.58-.738-1-.014M100 242.6c.55.314 1.18.572 1.4.572.22 0-.05-.258-.6-.572-.55-.314-1.18-.572-1.4-.572-.22 0 .05.258.6.572m201.8.014c-1.005.484-1.037.539-.2.337.55-.132 1.171-.401 1.38-.596.518-.484.234-.422-1.18.259m-199.4.919c.33.203 1.05.491 1.6.638.695.186.817.154.4-.104-.33-.203-1.05-.491-1.6-.638-.695-.186-.817-.154-.4.104m196.442.101c-.527.211-.867.474-.756.586.234.233 2.314-.495 2.314-.81 0-.289-.431-.227-1.558.224M105.6 244.733c.33.203 1.05.491 1.6.638.695.186.817.154.4-.104-.33-.203-1.05-.491-1.6-.638-.695-.186-.817-.154-.4.104m189.8.269-1.2.565 1.2-.237c.66-.131 1.47-.388 1.8-.572 1.077-.599-.45-.393-1.8.244m-3.2 1.212c-1 .482-1.034.537-.2.334 1.133-.277 2.407-.927 1.8-.918-.22.003-.94.266-1.6.584m-180.8.784c1.35.637 2.877.843 1.8.244-.33-.184-1.14-.441-1.8-.572l-1.2-.237 1.2.565m177.8.202c-.533.345-.533.388 0 .388.33 0 .87-.175 1.2-.388.533-.345.533-.388 0-.388-.33 0-.87.175-1.2.388m-174.8.741c.33.193 1.14.468 1.8.611.768.166.984.132.6-.093-.33-.193-1.14-.468-1.8-.611-.768-.166-.984-.132-.6.093m172.056.118c-.739.213-1.269.461-1.177.553.202.202 3.121-.575 3.121-.831 0-.235-.318-.19-1.944.278M118 249.158c.33.184 1.14.441 1.8.572l1.2.237-1.2-.565c-1.35-.637-2.877-.843-1.8-.244m164.456.101c-.739.213-1.269.461-1.177.553.202.202 3.121-.575 3.121-.831 0-.235-.318-.19-1.944.278M121.8 250.4c.136.22.642.387 1.124.372.845-.027.847-.041.076-.372-1.101-.473-1.492-.473-1.2 0m157.2 0-.8.344.8.022c.44.012 1.07-.153 1.4-.366.795-.514-.204-.514-1.4 0m-3.4 1.031-1.8.553 1.6-.229c.88-.125 1.87-.386 2.2-.579.832-.487.124-.397-2 .255m-213.2.345c0 .317.18.688.4.824.22.136.4.04.4-.213s1.035.523 2.3 1.724c3.462 3.288 9.052 7.683 11.3 8.885 1.13.605-.147-.434-4.091-3.327-2.139-1.569-5.22-4.117-6.846-5.661-3.093-2.938-3.463-3.177-3.463-2.232m63.4-.176c.44.189 1.16.344 1.6.344h.8l-.8-.344c-.44-.189-1.16-.344-1.6-.344h-.8l.8.344m3 .761c.831.481 3.581.983 2.8.511-.33-.199-1.23-.474-2-.61-.871-.155-1.173-.117-.8.099m142.88.034c-.726.172-1.446.444-1.6.605-.352.369 2.31-.172 3.12-.634.712-.405.278-.397-1.52.029m-138.48 1.136c.33.202 1.32.477 2.2.611 1.907.292.746-.295-1.4-.708-.913-.175-1.191-.141-.8.097m133.4.284c-1.584.548-1.586.551-.2.323.77-.126 1.67-.384 2-.572.881-.502.03-.384-1.8.249m-128.4.985c.44.189 1.25.338 1.8.332l1-.012-1-.32c-.55-.176-1.36-.326-1.8-.332l-.8-.012.8.344m123.224.05c-.867.203-1.67.463-1.785.578-.282.281 3.156-.265 4.161-.662l.8-.315-.8.015c-.44.008-1.509.181-2.376.384m73.276.543c-.605.533-1.1 1.099-1.1 1.258 0 .158.479-.148 1.064-.681.956-.872 1.037-.889.799-.17-.261.788-.256.788.336.024 1.25-1.616.556-1.888-1.099-.431m-270.032.913c.126.499.387 1.004.58 1.124.548.338.414-.394-.228-1.254-.56-.749-.572-.744-.352.13M143.4 256c.44.189 1.25.338 1.8.332l1-.012-1-.32c-.55-.176-1.36-.326-1.8-.332l-.8-.012.8.344m113 0-1 .32 1 .012c.55.006 1.36-.143 1.8-.332l.8-.344-.8.012c-.44.006-1.25.156-1.8.332m-107 1.223c2.137.442 3.604.427 2.2-.023-.55-.176-1.63-.317-2.4-.314l-1.4.006 1.6.331m101-.023-1 .32 1-.007c.55-.004 1.54-.145 2.2-.313l1.2-.305-1.2-.008c-.66-.004-1.65.137-2.2.313m80.117 1.525c-1.366 1.031-2.491 2.021-2.5 2.198-.019.354 4.598-3.101 4.989-3.733.369-.597.18-.48-2.489 1.535m3.592-.646c-1.897 3.204-2.929 5.121-2.756 5.121.304 0 3.903-6.077 3.712-6.268-.095-.096-.526.42-.956 1.147m-180.309-.132c.44.186 1.79.444 3 .574 2.67.288 1.089-.287-1.808-.657-1.211-.155-1.678-.122-1.192.083m90.8.266-2.4.525 2.4-.223c1.32-.123 2.76-.368 3.2-.544l.8-.32-.8.018c-.44.01-1.88.255-3.2.544M66.525 259.8c.556 1.1 1.303 2.36 1.66 2.8.357.44.073-.28-.633-1.6-1.589-2.976-2.408-3.932-1.027-1.2m94.675-.648c.55.179 2.35.431 4 .56 2.01.157 2.472.127 1.4-.091-2.412-.489-6.575-.851-5.4-.469m75.659.079c-1.397.181-2.747.417-3 .524-.715.302 5.416-.246 6.541-.585l1-.301-1 .016c-.55.009-2.143.165-3.541.346m-66.459 1.16c.97.32 6.301.555 5.967.264-.092-.08-1.697-.246-3.567-.369-1.996-.132-2.987-.088-2.4.105m56.8.009-2.2.27 2.4.025c1.32.014 2.85-.119 3.4-.295 1.293-.414-.221-.414-3.6 0m-49.3.682a5.661 5.661 0 0 0 1.8 0c.495-.095.09-.173-.9-.173s-1.395.078-.9.173m43.6 0a5.661 5.661 0 0 0 1.8 0c.495-.095.09-.173-.9-.173s-1.395.078-.9.173m-37.7.568c1.54.138 9.1.251 16.8.251 7.7 0 15.26-.113 16.8-.251 1.54-.137-6.02-.25-16.8-.25-10.78 0-18.34.113-16.8.25m140.8 1.383c-2.606 1.705-4.452 3.154-3 2.354 1.29-.71 6-3.868 6-4.023 0-.281-.128-.21-3 1.669m-247 .268c0 .267 2.909 2.166 5.469 3.572 3.134 1.719 2.594 1.092-.769-.894-1.595-.942-3.305-1.974-3.8-2.292-.495-.318-.9-.492-.9-.386M329.2 266c-.896 1.32-1.54 2.4-1.43 2.4.11 0 .934-1.08 1.83-2.4.896-1.32 1.54-2.4 1.43-2.4-.11 0-.934 1.08-1.83 2.4m-258.533.731c.403.732.987 1.542 1.298 1.8.76.63.013-.711-1.187-2.131l-.845-1 .734 1.331m246.214.95c-.725.448-1.243.89-1.15.983.177.178 3.069-1.428 3.069-1.704 0-.314-.619-.082-1.919.721m-231.281.511c0 .105.72.559 1.6 1.008 1.983 1.012 2.1.774.177-.36-1.465-.865-1.777-.979-1.777-.648m227.5 1.634c-1.045.544-1.9 1.079-1.9 1.188 0 .11.9-.257 2-.814 1.1-.557 2-1.1 2-1.207 0-.264.036-.279-2.1.833m13.309.274c-3.374 4.661-9.304 11.529-14.155 16.393-3.863 3.873-4.611 4.741-2.362 2.738 4.786-4.261 15.049-15.861 17.102-19.331.886-1.497.564-1.387-.585.2M72.4 269.337c0 .469 2.563 3.83 2.934 3.847.183.009-.254-.749-.972-1.684-1.739-2.266-1.962-2.512-1.962-2.163m23.339 4.109c1.067.555 2.027.922 2.133.815.189-.188-3.322-1.88-3.823-1.842-.137.01.624.472 1.69 1.027m210.325-.182c-.955.439-1.647.886-1.539.994.108.109 1.069-.257 2.136-.812 2.297-1.195 1.885-1.321-.597-.182m-230.115 1.04c.207.388.787 1.063 1.288 1.5.746.652.708.524-.211-.704-1.186-1.587-1.706-1.971-1.077-.796m23.251.665c1.114.672 1.991.847 1.38.276-.209-.195-.83-.473-1.38-.617l-1-.261 1 .602m201.8.66c-1.32.642-1.95 1.055-1.4.918 1.142-.285 4.807-2.116 4.2-2.098-.22.007-1.48.538-2.8 1.18m-199.58.326c.209.195.83.473 1.38.617l1 .261-1-.602c-1.114-.672-1.991-.847-1.38-.276m-22.944 1.533c2.202 3.357 12.415 13.441 18.124 17.895 2.941 2.295 3 2.335 3 2.084 0-.127-1.405-1.301-3.123-2.609-3.288-2.502-11.836-10.722-16.076-15.458-1.379-1.54-2.245-2.4-1.925-1.912m25.524-.554c0 .103.581.39 1.291.638.71.247 1.115.285.9.084-.456-.427-2.191-.998-2.191-.722m189.105 1.829c-2.005.734-3.203 1.552-1.507 1.029 1.426-.44 4.278-1.737 3.802-1.729-.22.004-1.253.319-2.295.7M110 279.369c1.114.672 1.991.847 1.38.276-.209-.195-.83-.473-1.38-.617l-1-.261 1 .602m2.6.934c.22.217.94.509 1.6.651 1.377.295.615-.277-1-.751-.657-.192-.863-.158-.6.1m175.6.299-1.2.565 1.2-.235c.66-.129 1.371-.392 1.58-.584.57-.522-.193-.4-1.58.254m-172.2.956c.33.184 1.14.441 1.8.572l1.2.237-1.2-.565c-1.35-.637-2.877-.843-1.8-.244m169 .256c-1 .482-1.034.537-.2.334 1.133-.277 2.407-.927 1.8-.918-.22.003-.94.266-1.6.584m-165.4.986c.33.213.87.388 1.2.388.533 0 .533-.043 0-.388-.33-.213-.87-.388-1.2-.388-.533 0-.533.043 0 .388m162 0c-.795.514.204.514 1.4 0l.8-.344-.8-.022c-.44-.012-1.07.153-1.4.366M123.4 284c.44.189 1.07.344 1.4.344.378 0 .304-.127-.2-.344-.44-.189-1.07-.344-1.4-.344-.378 0-.304.127.2.344m3.4.973c.77.311 1.67.574 2 .584 1.052.032-.413-.633-2-.908l-1.4-.242 1.4.566m148.08-.178c-.726.172-1.446.444-1.6.605-.352.369 2.31-.172 3.12-.634.712-.405.278-.397-1.52.029m-144.68 1.144c1.237.529 3.31.938 2.6.512-.33-.197-1.23-.471-2-.607-.944-.167-1.14-.136-.6.095m140 .276c-1.577.546-1.58.55-.2.317 1.632-.275 3.3-.884 2.4-.876-.33.003-1.32.255-2.2.559m-135.4.985c.33.213 1.05.373 1.6.354l1-.034-1-.32c-1.542-.494-2.364-.494-1.6 0m130.6.207-1.6.545 1.6-.233c.88-.128 1.96-.376 2.4-.551l.8-.317-.8.005c-.44.003-1.52.251-2.4.551m-125.8.993c.55.176 1.36.326 1.8.332l.8.012-.8-.344c-.44-.189-1.25-.338-1.8-.332l-1 .012 1 .32m121.4 0-.8.344.8-.012c.44-.006 1.25-.156 1.8-.332l1-.32-1-.012c-.55-.006-1.36.143-1.8.332m-4.2.912c-.99.234-1.53.484-1.2.554.33.071 1.5-.124 2.6-.433 2.329-.654 1.246-.748-1.4-.121m-112.767.035c.092.081.887.267 1.767.415 1.146.192 1.43.152 1-.141-.54-.368-3.168-.628-2.767-.274m4.967.999c1.152.484 4.537.932 3.8.503-.33-.192-1.5-.46-2.6-.594-1.221-.15-1.689-.114-1.2.091m101.845.086c-.966.19-1.859.449-1.985.575-.267.267 2.868-.193 4.34-.637 1.411-.425-.073-.386-2.355.062m-95.245 1.137c2.016.488 6.081.878 4.731.453-.588-.185-2.208-.439-3.6-.564-1.82-.165-2.137-.133-1.131.111m88 .084c-1.21.197-2.38.439-2.6.537-.639.286 4.696-.283 5.8-.618l1-.303-1 .012c-.55.007-1.99.174-3.2.372M163 292.8c.66.168 1.83.306 2.6.307l1.4.001-1.6-.331c-2.155-.446-4.166-.426-2.4.023m73.2 0-1.2.305h1.4c.77 0 1.94-.137 2.6-.305l1.2-.305h-1.4c-.77 0-1.94.137-2.6.305m65.46 3.005c-2.277 1.845-4.347 3.429-4.6 3.52-.253.091-.363.272-.244.402.118.131 2.278-1.393 4.8-3.386 5.314-4.2 5.022-3.948 4.551-3.916-.202.014-2.23 1.535-4.507 3.38m-132.76-2.329c.385.1 1.015.1 1.4 0 .385-.101.07-.183-.7-.183s-1.085.082-.7.183m62.8 0c.385.1 1.015.1 1.4 0 .385-.101.07-.183-.7-.183s-1.085.082-.7.183m-58.5.541c3.161.437 5.699.407 3.2-.037-.99-.177-2.61-.309-3.6-.294l-1.8.027 2.2.304m52-.017-1.4.295 1.4.013c.77.007 2.39-.124 3.6-.291l2.2-.304-2.2-.004c-1.21-.002-2.83.129-3.6.291m-43.693.69c.719.089 1.799.087 2.4-.004s.013-.164-1.307-.162c-1.32.002-1.812.077-1.093.166m35.993-.001c.715.089 1.885.089 2.6 0 .715-.088.13-.161-1.3-.161-1.43 0-2.015.073-1.3.161m-24.548.512c4.373.147 11.393.147 15.6-.001 6.193-.217 4.679-.268-7.952-.268-12.932.001-14.24.047-7.648.269M101.2 299c.745.55 1.455.994 1.578.986.371-.024-2.15-1.982-2.556-1.984-.207-.001.233.448.978.998m2.6 1.607c.44.359 1.16.828 1.6 1.044l.8.393-.8-.651c-.44-.359-1.16-.828-1.6-1.044l-.8-.393.8.651m190.8.443c-.66.562-.84.838-.4.615 1.196-.607 2.457-1.64 2-1.638-.22.001-.94.461-1.6 1.023m-187.931 1.385c.258.311 1.068.895 1.8 1.298l1.331.734-1-.845c-1.42-1.2-2.761-1.947-2.131-1.187m180.254 3.476c-2.462 1.468-4.41 2.735-4.33 2.816.173.173 7.743-4.229 8.593-4.998.996-.9.365-.577-4.263 2.182M110 304.552c0 .301 2.895 1.886 3.089 1.692.104-.103-.549-.564-1.45-1.024-.902-.46-1.639-.76-1.639-.668m3.6 2.054c0 .099.9.637 2 1.194 2.245 1.138 2.691 1.084.7-.083-1.497-.878-2.7-1.373-2.7-1.111m4.57 2.546c.12.193.625.454 1.124.58.874.22.879.208.13-.352-.86-.642-1.592-.776-1.254-.228m4.23 1.863c0 .297 4.497 2.222 4.705 2.014.162-.163-1.191-.822-3.805-1.854-.495-.195-.9-.267-.9-.16m154.5.197c-.495.199-.9.458-.9.575 0 .388.637.221 1.424-.374.884-.67.761-.717-.524-.201m-2.4 1.2c-.495.199-.9.458-.9.575 0 .388.637.221 1.424-.374.884-.67.761-.717-.524-.201M128 313.533c.33.203 1.05.491 1.6.638.695.186.817.154.4-.104-.33-.203-1.05-.491-1.6-.638-.695-.186-.817-.154-.4.104m143.4.281c-1 .482-1.034.537-.2.334 1.133-.277 2.407-.927 1.8-.918-.22.003-.94.266-1.6.584m-140.2.919c.33.203 1.05.491 1.6.638.695.186.817.154.4-.104-.33-.203-1.05-.491-1.6-.638-.695-.186-.817-.154-.4.104m137.2.298-1 .602 1-.261c.55-.144 1.171-.422 1.38-.617.611-.571-.266-.396-1.38.276m-134 .902c.33.203 1.05.491 1.6.638.695.186.817.154.4-.104-.33-.203-1.05-.491-1.6-.638-.695-.186-.817-.154-.4.104M263.2 317c-.77.297-1.13.545-.8.552.33.006 1.14-.235 1.8-.538 1.545-.707.826-.717-1-.014m-125.6.2c.33.213.87.388 1.2.388.533 0 .533-.043 0-.388-.33-.213-.87-.388-1.2-.388-.533 0-.533.043 0 .388m2.6.719c.22.206 1.03.486 1.8.621 1.632.287.835-.283-1-.714-.753-.178-1.051-.143-.8.093m119.4.281c-.77.297-1.13.545-.8.552.33.006 1.14-.235 1.8-.538 1.545-.707.826-.717-1-.014m-115.2.949c.33.197 1.23.471 2 .607.944.167 1.14.136.6-.095-1.237-.529-3.31-.938-2.6-.512m111.656.11c-.739.213-1.269.461-1.177.553.202.202 3.121-.575 3.121-.831 0-.235-.318-.19-1.944.278M148.6 320.35c.44.185 1.52.449 2.4.587 1.015.158 1.308.127.8-.087-.44-.185-1.52-.449-2.4-.587-1.015-.158-1.308-.127-.8.087m101.2.656c-1.76.513-2.93.943-2.6.954.719.025 6.443-1.469 6.731-1.758.385-.384-.943-.126-4.131.804m-96.2.594c.55.176 1.45.32 2 .32h1l-1-.32c-.55-.176-1.45-.32-2-.32h-1l1 .32m3.847.782c.466.194 1.726.456 2.8.582 2.421.283.798-.318-1.847-.685-1.203-.167-1.519-.132-.953.103m86.198.05c-.966.19-1.866.461-2 .602-.303.318 3.057-.216 4.155-.66 1.022-.413.121-.389-2.155.058M164 323.558c.55.174 1.99.425 3.2.558 1.284.141 1.784.111 1.2-.074-.55-.174-1.99-.425-3.2-.558-1.284-.141-1.784-.111-1.2.074m73.623.078c-.977.192-1.967.437-2.2.545-.694.322 3.508-.264 4.377-.611 1.028-.41.11-.382-2.177.066m-65.823 1.135c.88.18 3.04.426 4.8.547 2.123.146 2.661.112 1.6-.102-.88-.177-3.04-.423-4.8-.547-2.148-.151-2.674-.117-1.6.102m57.609.075c-3.36.489-3.703.767-.609.493 3.25-.287 6.098-.864 4.2-.85-.66.005-2.276.165-3.591.357M183 326.015c1.32.164 3.66.289 5.2.279l2.8-.02-2.8-.287c-1.54-.158-3.88-.284-5.2-.279l-2.4.01 2.4.297m35.4-.015-2.2.27 2.4.025c1.32.014 3.39-.111 4.6-.278l2.2-.304-2.4.009c-1.32.004-3.39.13-4.6.278m-20.3.699c2.805.069 7.395.069 10.2 0 2.805-.069.51-.125-5.1-.125-5.61 0-7.905.056-5.1.125"/><path fill="#d7ba44" d="M300.131 70.255c-1.638.668-7.501 10.721-10.933 18.745l-1.454 3.4-.941 2.2c-.188.44-.918 2.33-1.622 4.2-.704 1.87-1.438 3.713-1.631 4.095-.192.382-.35.865-.35 1.074 0 .208-.208.886-.462 1.505-.746 1.817-1.911 5.101-1.925 5.426-.007.165.302.306.687.314.795.015 2.961 1.021 4.616 2.143 1.336.905 3.008 3.651 3.984 6.542.699 2.071 1.76 3.701 2.408 3.701 1.902 0 6.303 4.19 8.122 7.734.81 1.576 1.518 2.92 1.574 2.986.056.065.708-.222 1.449-.639.741-.417 2.427-1.355 3.747-2.085 9.387-5.189 27.441-16.726 29.4-18.786.11-.115 1.1-.912 2.2-1.771 4.328-3.376 8.731-8.794 9.248-11.378.418-2.089-2.285-5.52-7.448-9.454-1.43-1.09-2.85-2.225-3.156-2.522-.306-.297-.936-.776-1.4-1.065a647.354 647.354 0 0 1-4.844-3.109c-2.2-1.421-5.557-3.416-7.461-4.433a371.613 371.613 0 0 1-4.959-2.689c-.825-.463-3.047-1.48-4.939-2.259-1.893-.78-3.621-1.552-3.841-1.715-.451-.336-2.763-.979-6.6-1.835-2.774-.619-2.755-.617-3.469-.325M54.388 129.1l-2.588 2.7 2.7-2.588c1.485-1.424 2.7-2.639 2.7-2.7 0-.295-.407.08-2.812 2.588M350.8 133c1.195 1.21 2.263 2.2 2.373 2.2.11 0-.778-.99-1.973-2.2-1.195-1.21-2.263-2.2-2.373-2.2-.11 0 .778.99 1.973 2.2m7.228 10.4c0 .22.258.85.572 1.4.314.55.572.82.572.6 0-.22-.258-.85-.572-1.4-.314-.55-.572-.82-.572-.6m-315.582 4.667c-.025.367-.15.997-.276 1.4-.218.695-.207.696.227.02.251-.391.376-1.021.276-1.4-.162-.619-.185-.621-.227-.02m20.088 4.333c0 1.65.071 2.325.157 1.5.087-.825.087-2.175 0-3-.086-.825-.157-.15-.157 1.5m278.794 0c0 1.43.073 2.015.161 1.3.089-.715.089-1.885 0-2.6-.088-.715-.161-.13-.161 1.3m19.242 7.8c.001 4.84.059 6.765.129 4.278s.07-6.447-.001-8.8c-.07-2.353-.128-.318-.128 4.522m-318.801.8c.001 4.62.059 6.455.13 4.078.071-2.377.07-6.157-.001-8.4-.071-2.243-.129-.298-.129 4.322m21.124-4.2c0 .77.082 1.085.183.7.1-.385.1-1.015 0-1.4-.101-.385-.183-.07-.183.7M359.4 178c-.152.691-.193 1.341-.091 1.442.102.102.3-.389.441-1.092.333-1.667.01-1.99-.35-.35m-33.4 4.106c-2.53 2.459-3.7 3.724-2.6 2.812 2.001-1.659 7.746-7.334 7.389-7.3-.104.01-2.259 2.03-4.789 4.488m-248.2.294c1.528 1.54 2.869 2.8 2.979 2.8.11 0-1.051-1.26-2.579-2.8-1.528-1.54-2.869-2.8-2.979-2.8-.11 0 1.051 1.26 2.579 2.8m-31.909 1.482c.39.595.818 2.08.95 3.3l.241 2.218.058-2c.051-1.803-1.008-4.6-1.743-4.6-.119 0 .104.487.494 1.082m310.358 3.933c-.137.358-.228 1.131-.203 1.718.034.799.124.665.358-.533.331-1.7.258-2.26-.155-1.185M47.293 191.2c0 .77.082 1.085.183.7.1-.385.1-1.015 0-1.4-.101-.385-.183-.07-.183.7m307.763 4.484c-.135.504-.228 1.366-.207 1.916.023.589.182.271.387-.775.367-1.873.237-2.698-.18-1.141M47.872 197.8c.127 1.1.297 2.075.379 2.167.281.315.069-2.168-.271-3.167-.229-.674-.264-.349-.108 1m59.328 3.231c0 .27 2.078 1.025 2.276.826.091-.09-.384-.356-1.056-.59-.671-.234-1.22-.34-1.22-.236m246.629 1.598c-.148.586-.191 1.143-.097 1.237.095.094.292-.308.439-.895.148-.586.191-1.143.097-1.237-.095-.094-.292.308-.439.895M110 202.231c0 .27 2.078 1.025 2.276.826.091-.09-.384-.356-1.056-.59-.671-.234-1.22-.34-1.22-.236M49.062 206.2c.134.88.31 1.675.391 1.767.303.343.076-1.799-.272-2.567-.252-.558-.288-.315-.119.8m216.738 5c-1.107.282-1.123.309-.2.347.55.022 1.27-.134 1.6-.347.681-.44.329-.44-1.4 0m-212.6 3c1.417 1.43 2.667 2.6 2.777 2.6.11 0-.96-1.17-2.377-2.6-1.417-1.43-2.667-2.6-2.777-2.6-.11 0 .96 1.17 2.377 2.6m88.8-1.818c.33.223.945.409 1.367.412 1.023.008.704-.221-.767-.55-.876-.196-1.038-.159-.6.138m118.6.018-1.2.305 1.076.048c.592.026 1.188-.133 1.324-.353.136-.22.192-.379.124-.353-.068.026-.664.185-1.324.353m88.923 2.209c-1.032.985-1.744 1.791-1.583 1.791.161 0 1.088-.81 2.06-1.8 2.277-2.32 1.958-2.314-.477.009M147.2 213.594c.33.217 1.035.397 1.567.4 1.284.008.958-.219-.767-.536-.985-.181-1.222-.14-.8.136m108 .006c-.824.264-.859.326-.2.354.44.019 1.07-.141 1.4-.354.701-.453.214-.453-1.2 0m-101.6 1.2c.55.176 1.36.32 1.8.32.633 0 .592-.066-.2-.32-.55-.176-1.36-.32-1.8-.32-.633 0-.592.066.2.32m7 1.223c2.026.419 3.663.4 2-.023a11.81 11.81 0 0 0-2.4-.307c-1.009-.001-.945.052.4.33m82.3-.147c.385.1 1.015.1 1.4 0 .385-.101.07-.183-.7-.183s-1.085.082-.7.183m-74.2 1.206a5.661 5.661 0 0 0 1.8 0c.495-.095.09-.173-.9-.173s-1.395.078-.9.173m64.805.001c.497.096 1.217.092 1.6-.008.382-.1-.025-.179-.905-.174-.88.004-1.193.086-.695.182m-54.905.915c1.212.311 5.675.525 5.367.258-.092-.079-1.607-.239-3.367-.354-1.815-.12-2.681-.078-2 .096m43.2.002-2.4.266 2.2.019c1.21.011 2.74-.117 3.4-.285 1.538-.391.337-.391-3.2 0m-33.288.695c1.052.082 2.672.081 3.6-.003.928-.084.068-.151-1.912-.15-1.98.001-2.74.07-1.688.153m23.2 0c1.052.082 2.672.081 3.6-.003.928-.084.068-.151-1.912-.15-1.98.001-2.74.07-1.688.153m-150.733 2.071c.301.486 3.821 2.966 3.821 2.691 0-.1-.919-.842-2.042-1.649-1.123-.807-1.923-1.276-1.779-1.042m48.221 24.968c0 .103.581.39 1.291.638.71.247 1.115.285.9.084-.456-.427-2.191-.998-2.191-.722m-45.994 6.734c.009.801.78 1.924.788 1.149.003-.34.759.155 1.806 1.183.99.972 1.8 1.67 1.8 1.551s-.99-1.161-2.2-2.315c-1.21-1.155-2.197-1.861-2.194-1.568m68.394.314c.33.223.945.409 1.367.412 1.023.008.704-.221-.767-.55-.876-.196-1.038-.159-.6.138m137.6.018c-.824.264-.859.326-.2.354.44.019 1.07-.141 1.4-.354.701-.453.214-.453-1.2 0m-133 1.2c.44.189 1.16.338 1.6.332.643-.009.604-.075-.2-.332-1.368-.438-2.419-.438-1.4 0m128.4 0c-.504.217-.578.344-.2.344.33 0 .96-.155 1.4-.344.504-.217.578-.344.2-.344-.33 0-.96.155-1.4.344m-123.767.944c.092.079.707.264 1.367.412.876.196 1.038.159.6-.138-.54-.365-2.368-.62-1.967-.274m194.102.756c-.6.96-.522 1.751.09.924.563-.761.749-1.424.399-1.424-.097 0-.317.225-.489.5m-188.902.444c.092.079.707.264 1.367.412.876.196 1.038.159.6-.138-.54-.365-2.368-.62-1.967-.274m107.567.274c-.438.297-.276.334.6.138 1.471-.329 1.79-.558.767-.55-.422.003-1.037.189-1.367.412m-5.9 1.058c.385.1 1.015.1 1.4 0 .385-.101.07-.183-.7-.183s-1.085.082-.7.183m-89.7.911c.991.33 3.887.548 3.567.267-.092-.08-1.157-.248-2.367-.373-1.42-.147-1.846-.11-1.2.106m82.5.289c.385.1 1.015.1 1.4 0 .385-.101.07-.183-.7-.183s-1.085.082-.7.183m-74.867.668c.092.08.977.252 1.967.383 1.202.159 1.534.12 1-.117-.764-.338-3.314-.567-2.967-.266m67.167.256c-1.344.431.108.431 1.8 0 1.078-.274 1.098-.306.2-.313-.55-.004-1.45.137-2 .313m-56.367.944c.092.08 1.517.241 3.167.359 1.758.125 2.503.085 1.8-.097-1.213-.315-5.275-.528-4.967-.262m43.367.258c-.681.174.185.216 2 .096 1.76-.115 3.275-.275 3.367-.354.308-.267-4.155-.053-5.367.258m-30.485.694c1.273.08 3.253.079 4.4-.002 1.147-.08.105-.145-2.315-.144-2.42.001-3.358.066-2.085.146m18.4 0c1.273.08 3.253.079 4.4-.002 1.147-.08.105-.145-2.315-.144-2.42.001-3.358.066-2.085.146m90.885 15.518c-1.005.484-1.037.539-.2.337.55-.132 1.171-.401 1.38-.596.518-.484.234-.422-1.18.259m-219 1.511c0 .069.585.654 1.3 1.3L82.2 281l-1.175-1.3c-1.095-1.212-1.425-1.484-1.425-1.175m236.863 3.24c-1.354 1.411-2.463 2.701-2.463 2.867 0 .166.053.226.118.135.065-.092 1.263-1.382 2.663-2.867s2.456-2.7 2.346-2.7c-.11 0-1.309 1.154-2.664 2.565M114 281.133c.33.203 1.05.491 1.6.638.695.186.817.154.4-.104-.33-.203-1.05-.491-1.6-.638-.695-.186-.817-.154-.4.104m173 .281c-1 .482-1.034.537-.2.334 1.133-.277 2.407-.927 1.8-.918-.22.003-.94.266-1.6.584M84.6 284c.859.88 1.652 1.6 1.762 1.6.11 0-.503-.72-1.362-1.6-.859-.88-1.652-1.6-1.762-1.6-.11 0 .503.72 1.362 1.6m40.4.8c.44.189 1.07.344 1.4.344.378 0 .304-.127-.2-.344-.44-.189-1.07-.344-1.4-.344-.378 0-.304.127.2.344m-36 3.6c.859.88 1.652 1.6 1.762 1.6.11 0-.503-.72-1.362-1.6-.859-.88-1.652-1.6-1.762-1.6-.11 0 .503.72 1.362 1.6m43.833-1.456c.092.079.707.264 1.367.412.876.196 1.038.159.6-.138-.54-.365-2.368-.62-1.967-.274M264.4 288c-.824.264-.859.326-.2.354.44.019 1.07-.141 1.4-.354.701-.453.214-.453-1.2 0m43.68 2.056c-1.165 1.121-2.055 2.102-1.976 2.181.079.079 1.116-.842 2.306-2.047 2.723-2.757 2.495-2.85-.33-.134M142 289.182c.33.223.945.409 1.367.412 1.023.008.704-.221-.767-.55-.876-.196-1.038-.159-.6.138m117.2.018c-.824.264-.859.326-.2.354.44.019 1.07-.141 1.4-.354.701-.453.214-.453-1.2 0m-111.6 1.2c1.368.438 2.419.438 1.4 0-.44-.189-1.16-.338-1.6-.332-.643.009-.604.075.2.332m105.6 0c-.792.254-.833.32-.2.32.44 0 1.25-.144 1.8-.32.792-.254.833-.32.2-.32-.44 0-1.25.144-1.8.32m-4.4.8c-1.384.291-1.386.295-.2.341.66.026 1.47-.128 1.8-.341.666-.43.445-.43-1.6 0m-89.8 1.19c.764.338 3.314.567 2.967.266-.092-.08-.977-.252-1.967-.383-1.202-.159-1.534-.12-1 .117m82.4.01-1.6.286 1.4.051c.77.028 1.67-.124 2-.337.655-.423.562-.423-1.8 0m-73.8 1.187c.991.33 3.887.548 3.567.267-.092-.08-1.157-.248-2.367-.373-1.42-.147-1.846-.11-1.2.106m64.6.013-1.6.286 1.6.029c.88.016 1.96-.126 2.4-.315l.8-.344-.8.029c-.44.016-1.52.157-2.4.315m-54.9 1.087a8.899 8.899 0 0 0 2.2 0c.605-.092.11-.167-1.1-.167-1.21 0-1.705.075-1.1.167m44.8 0a8.899 8.899 0 0 0 2.2 0c.605-.092.11-.167-1.1-.167-1.21 0-1.705.075-1.1.167m-40 .4a8.899 8.899 0 0 0 2.2 0c.605-.092.11-.167-1.1-.167-1.21 0-1.705.075-1.1.167m35 .002c.715.089 1.885.089 2.6 0 .715-.088.13-.161-1.3-.161-1.43 0-2.015.073-1.3.161m-24.787.406c1.163.081 2.963.081 4-.002 1.038-.082.087-.148-2.113-.147-2.2.001-3.049.068-1.887.149m13.2 0c1.163.081 2.963.081 4-.002 1.038-.082.087-.148-2.113-.147-2.2.001-3.049.068-1.887.149m92.687 2.755c-.719.612-.866.855-.367.607.733-.364 2.108-1.681 1.716-1.643-.082.008-.689.474-1.349 1.036m-33.3 17.762c-1.339.539-1.089.812.3.328.66-.23 1.2-.491 1.2-.579 0-.237-.487-.156-1.5.251m-122.1 2.329c.33.193 1.14.468 1.8.611.768.166.984.132.6-.093-.33-.193-1.14-.468-1.8-.611-.768-.166-.984-.132-.6.093m97.8 4.459c-1.089.277-1.107.307-.2.325.55.01 1.36-.136 1.8-.325.986-.424.066-.424-1.6 0m-78.1.276c.385.1 1.015.1 1.4 0 .385-.101.07-.183-.7-.183s-1.085.082-.7.183m5.9.904c.999.34 3.482.552 3.167.271-.092-.082-1.067-.252-2.167-.379-1.349-.156-1.674-.121-1 .108m65.8.02c-1.078.274-1.098.306-.2.313.55.004 1.45-.137 2-.313 1.344-.431-.108-.431-1.8 0m-56.967.949c.092.082 1.067.252 2.167.379 1.349.156 1.674.121 1-.108-.999-.34-3.482-.552-3.167-.271m48.167.251c-1.07.272-1.092.305-.2.305.55 0 1.54-.137 2.2-.305 1.07-.272 1.092-.305.2-.305-.55 0-1.54.137-2.2.305m-38.695.683c.497.096 1.217.092 1.6-.008.382-.1-.025-.179-.905-.174-.88.004-1.193.086-.695.182m31.795-.007c.385.1 1.015.1 1.4 0 .385-.101.07-.183-.7-.183s-1.085.082-.7.183m-21.4.423c3.575.067 9.425.067 13 0 3.575-.066.65-.12-6.5-.12s-10.075.054-6.5.12"/></g></svg>