<svg xmlns="http://www.w3.org/2000/svg" xmlns:xlink="http://www.w3.org/1999/xlink" width="64" height="64"><g fill="none" style="stroke-miterlimit:10"><g stroke="#284a6a"><path stroke-width=".26" d="m31.973 23.69-6.65-7.518"/><path stroke-width=".13" d="m11 17.908 5.205 7.6"/><path stroke-width=".26" d="m31.973 23.7 6.578-7.6m1.374 15.987 7.807-6.578m-7.807 6.568 7.807 6.867m-9.108 8.676-6.65-7.373m-6.65 7.373 6.65-7.373m-15.76-1.592 7.518-6.578m-7.517-6.58 7.518 6.578m8.24-8.386-15.76 1.807m15.76-1.806 15.76 1.807m-7.808 6.58L38.55 16.1m1.375 15.977-1.3 15.542m9.107-8.675-15.76 1.3m-15.758-1.59 15.76 1.6m-6.651 7.366-1.6-15.542m1.6-15.905-1.6 15.903"/><path stroke-width=".13" d="m8.985 27.522 7.23-2.024m1.517-14.746 7.6 5.422m1.726-8.82-1.735 8.82m1.735-8.82L38.55 16.1m-1.734-8.746L38.55 16.1m7.592-5.348-7.6 5.35m14.395 1.806L38.55 16.1m9.182 9.398 5.205-7.6m-5.205 7.6 7.373 2.024m-7.373-2.024 7.23 10.988M36.816 7.354l-11.494 8.82m22.41 9.324-1.6-14.747m1.6 28.193 7.23-2.458m-7.23 2.458 7.373-11.422m-7.373 11.422 5.205 7.012m-5.205-7.012-1.6 14.168m-7.508-5.492 7.518 5.494m-7.518-5.494 14.313-1.663M38.624 47.62 36.9 56.5m1.724-8.88L27.058 56.5m-1.735-8.88 1.735 8.9m-1.735-8.9L36.9 56.5m-11.567-8.88-7.6 5.494m7.6-5.494L11 46.028m5.214-7.373L11 46.028m5.214-7.373 1.518 14.458m-1.518-14.458-7.3-2.24m7.3-10.917-7.3 10.916m7.3 2.241-7.23-11.132m8.748-16.77L16.214 25.5M11 17.908l14.313-1.735"/></g><path stroke="#24405d" stroke-width=".101" d="M17.732 10.752 12.166 8.15m5.566 2.602L17.3 4.68m9.758 2.674L17.3 4.68m9.758 2.674-4.193-5.132m4.193 5.132L28.792 1.2m-11.06 9.552 5.132-8.53m13.952 5.132L28.792 1.2m8.024 6.154L35 .993m-7.952 6.36L35 .993m1.816 6.36 4.193-5.132m5.133 8.53L41 2.222m5.142 8.53.506-6.072m-9.832 2.674 9.83-2.675m-.504 6.073 5.7-2.892m-5.7 2.892 9.903 1.518m-3.108 5.638 3.108-5.638m-3.108 5.638L51.852 7.86m1.085 10.048 6.506-.506m-6.506.506 8.9 5.06m-6.732 4.554 4.337-10.12m-4.337 10.12 6.723-4.554m-6.723 4.554 7.518 1.518m-7.663 7.446 7.663-7.446m-7.663 7.446 7.88-1.446m-7.735-7.518 7.735 7.518m-7.88 1.446 6.723 4.482m-8.746 4.988 8.747-4.988m-8.747 4.988 6.434.65m-4.4-10.12 4.4 10.12m-6.424-.65 3.036 5.7m-3.036-5.7-1.157 9.976m-.01 0-5.638-2.82m0 0 .434 6.3m-.434-6.3 9.83-1.446m-9.83 1.446L41 61.787M36.9 56.5l4.1 5.277M36.9 56.5l9.687 2.892M36.9 56.5 35 63.006m1.9-6.506-8.096 6.506M27.058 56.5l1.735 6.506M27.058 56.5 35 63.006M27.058 56.5l-4.12 5.277m-5.206-8.665 5.205 8.675m4.121-5.287-9.83 3.036m.504-6.424-.506 6.434m.506-6.434-5.638 3.108M11 46.028l1.084 10.193m5.648-3.109L7.83 51.74M11 46.028l-3.18 5.7m3.18-5.7-6.506.65m6.506-.65L2.046 41.04m6.867-4.626L2.046 41.04m6.867-4.626L1.106 35.04m7.807 1.374-4.4 10.265m4.472-19.157-7.88 7.518m7.808 1.374L1.106 29.04m7.88-1.518L2.263 23.04m6.722 4.482-7.88 1.518m7.88-1.518-4.482-10.12m6.497.506-6.506-.506m6.506.506L2.263 23.04M11 17.908 7.9 12.56m3.1 5.348 1.157-9.76m5.575 2.604L7.9 12.56"/></g><path fill="#256ea5" d="m19.862 35.835.053-7.6 7.605.053-.053 7.6zm8.228-8.372.053-7.6 7.605.053-.053 7.6zm-.002 16.67.053-7.6 7.605.053-.053 7.6zm8.3-8.37.053-7.6 7.605.053-.053 7.6z"/><path fill="#3378bc" d="m35.95 18.744.037-5.277 5.3.037-.037 5.277zm-13.25-.001.037-5.277 5.3.037L28 18.78zm-9.172 9.4.037-5.277 5.3.037-.037 5.277zM13.522 41.4l.055-5.277 5.298.055-.055 5.277zm31.598-.1.037-5.277 5.3.037-.037 5.277zm.107-13.12.055-5.277 5.298.055-.055 5.277z"/><path fill="#169bd6" d="m9.233 19.63.024-3.47 3.463.024-.024 3.47zm6.77-7.062.024-3.47 3.463.024-.024 3.47zm9.32-3.493.024-3.47 3.463.024-.024 3.47zM7.194 29.24l.024-3.47 3.44.024-.024 3.47zm43.993-13.032 3.47-.024.024 3.463-3.47.024zm-6.773-7.18 3.47-.024.024 3.463-3.47.024zm-9.35-3.406 3.47-.024.024 3.463-3.47.024zm18.14 20.186 3.47-.024.024 3.463-3.47.024z"/><path fill="#3378bc" d="m22.627 50.4.037-5.277 5.3.037-.037 5.277zm13.25 0 .037-5.277 5.3.037-.037 5.277z"/><path fill="#169bd6" d="m51.164 47.73.024-3.47 3.463.024-.024 3.47zm-6.698 7.134.024-3.47 3.463.024-.024 3.47zm-9.32 3.42.024-3.47 3.463.024-.024 3.47zM53.202 38.12l.024-3.47 3.463.024-.024 3.47zM9.24 44.26l3.47-.024.024 3.463-3.47.024zm6.772 7.108 3.47-.024.024 3.463-3.47.024zm9.276 3.405 3.47-.024.024 3.463-3.47.024zM7.22 34.66l3.47-.024.024 3.463-3.47.024z"/><g fill="#00a8da"><use xlink:href="#a" x="47.244" y="9.319"/><use xlink:href="#a" x="49.718" y="14.997"/><use xlink:href="#a" x="43.896" y="4.295"/><use xlink:href="#a"/><use xlink:href="#a" x="-10.993" y="20.964"/><use xlink:href="#a" x="39.674" y=".001"/><use xlink:href="#a" x="-9.9" y="14.995"/><use xlink:href="#a" x="10.772" y="-5.823"/><use xlink:href="#a" x="-7.572" y="9.317"/><use xlink:href="#a" x="-4.15" y="4.223"/><path d="m16.33 3.73 1.88-.013.013 1.916-1.88.013zM27.942.034l1.88-.013.013 1.916-1.88.013z"/><use xlink:href="#a" x="34.577" y="-3.348"/><use xlink:href="#a" x="50.666" y="20.893"/><path d="M34.057 1.88 34.07 0l1.916.013-.013 1.88z"/><use xlink:href="#a" x="28.827" y="-5.896"/><use xlink:href="#a" x="39.672" y="47.9"/><use xlink:href="#a" x="50.666" y="26.935"/><use xlink:href="#a" x="-.002" y="47.899"/><use xlink:href="#a" x="49.718" y="32.987"/><use xlink:href="#a" x="28.825" y="53.797"/><use xlink:href="#a" x="47.243" y="38.655"/><use xlink:href="#a" x="43.895" y="43.751"/><path d="m45.7 58.534 1.88-.013.013 1.916-1.88.013zm-11.542 3.55 1.88-.013.013 1.916-1.88.013z"/><use xlink:href="#a" x="5.167" y="51.467"/><use xlink:href="#a" x="-7.645" y="38.581"/><use xlink:href="#a" x="-9.902" y="32.977"/><use xlink:href="#a" x="-4.225" y="43.749"/><use xlink:href="#a" x="-10.993" y="26.934"/><use xlink:href="#a" x="16.814" y="54.961"/><use xlink:href="#a" x="10.7" y="53.723"/></g><defs><path id="a" d="m11.2 9.013.013-1.88 1.916.013-.013 1.88z"/></defs></svg>