<svg xmlns="http://www.w3.org/2000/svg" viewBox="0 0 48 48"><defs><style>.cls-2{fill:#fff}</style></defs><g transform="matrix(.24 0 0 .24 0 4.2)"><rect width="200" height="165" rx="20" style="fill:#00a580"/><path d="M158.94 121.74h-39.534a5 5 0 0 1-4.33-2.5L95.309 85.003a4.998 4.998 0 0 1 0-5l19.767-34.237a5 5 0 0 1 4.33-2.5h39.534a5 5 0 0 1 4.33 2.5l19.767 34.237a4.998 4.998 0 0 1 0 5L163.27 119.24a5 5 0 0 1-4.33 2.5zm-36.647-10h33.761l16.88-29.237-16.88-29.237h-33.761l-16.88 29.237z" class="cls-2"/><path d="M147.39 101.74h-16.439a5 5 0 0 1-4.33-2.5l-8.22-14.236a4.998 4.998 0 0 1 0-5l8.22-14.237a5 5 0 0 1 4.33-2.5h16.439a5 5 0 0 1 4.33 2.5l8.22 14.237a4.998 4.998 0 0 1 0 5l-8.22 14.236a5 5 0 0 1-4.33 2.5zm-13.553-10h10.666l5.333-9.236-5.333-9.238h-10.666l-5.333 9.238zM50.341 121.74h-9.383a5 5 0 0 1-4.33-2.5L16.861 85.003a4.998 4.998 0 0 1 0-5l19.767-34.237a5 5 0 0 1 4.33-2.5h9.383a5 5 0 0 1 0 10h-6.496l-16.88 29.237 16.88 29.237h6.496a5 5 0 1 1 0 10z" class="cls-2"/><path d="M76.49 121.74h-9.383a5 5 0 0 1-4.33-2.5L43.01 85.003a4.998 4.998 0 0 1 0-5l19.767-34.237a5 5 0 0 1 4.33-2.5h9.383a5 5 0 0 1 0 10h-6.496l-16.88 29.237 16.88 29.237h6.496a5 5 0 0 1 0 10z" class="cls-2"/><path d="M102.64 121.74h-9.382a5 5 0 0 1-4.33-2.5L69.161 85.003a4.998 4.998 0 0 1 0-5l19.767-34.237a5 5 0 0 1 4.33-2.5h9.382a5 5 0 0 1 0 10h-6.495l-16.88 29.237 16.88 29.237h6.495a5 5 0 1 1 0 10zM130.96 73.264a4.998 4.998 0 0 1-4.335-2.501l-11.548-20a5 5 0 1 1 8.66-5l11.548 20a5.002 5.002 0 0 1-4.325 7.501zM147.39 73.264a5.002 5.002 0 0 1-4.325-7.501l11.547-20a5 5 0 1 1 8.66 5l-11.547 20a4.998 4.998 0 0 1-4.335 2.501zM178.71 87.5h-23.094a5 5 0 0 1 0-10h23.094a5 5 0 0 1 0 10z" class="cls-2"/><path d="M122.73 87.5H99.635a5 5 0 1 1 0-10h23.095a5 5 0 1 1 0 10zM119.4 121.74a5.002 5.002 0 0 1-4.325-7.501l11.548-20a5 5 0 1 1 8.66 5l-11.548 20a4.998 4.998 0 0 1-4.335 2.501zM158.94 121.74a4.998 4.998 0 0 1-4.335-2.501l-11.547-20a5 5 0 0 1 8.66-5l11.547 20a5.002 5.002 0 0 1-4.325 7.501z" class="cls-2"/><path d="M101.5 87.5H21.189a5 5 0 0 1 0-10H101.5a5 5 0 0 1 0 10z" class="cls-2"/></g></svg>
