<?xml version="1.0" encoding="utf-8"?>
<!-- Generator: Adobe Illustrator 27.7.0, SVG Export Plug-In . SVG Version: 6.00 Build 0)  -->
<svg version="1.1" id="Logos" xmlns="http://www.w3.org/2000/svg" xmlns:xlink="http://www.w3.org/1999/xlink" x="0px" y="0px"
	 viewBox="0 0 512 512" style="enable-background:new 0 0 512 512;" xml:space="preserve">
<style type="text/css">
	.st0{fill:#E03875;}
</style>
<g>
	<path class="st0" d="M258.6,512c-41.7,0-82.7-10.1-119.5-29.6c-36.9-19.4-68.4-47.5-92-81.9S8.8,326.5,4,285.2
		c-4.7-41.4,0.6-83.3,15.8-122.1s39.5-73.4,71-100.6S160,16,200.6,6.6s82.8-8.8,123.1,1.9s77.4,30.9,108,59.1l0,0l-60.8,63.5
		c-24.2-21.8-54.1-36.1-86.2-41.2c-32.1-5.1-65.1-0.8-94.8,12.4c-29.7,13.2-55,34.8-72.7,62C99.5,191.6,90,223.5,90,256.1
		s9.4,64.4,27.2,91.7c17.7,27.3,43,48.8,72.7,62s62.7,17.5,94.8,12.4c32.1-5.1,62.1-19.4,86.2-41.2l60.8,63.5
		C384.5,487.9,322.7,512.1,258.6,512L258.6,512L258.6,512z"/>
	<path class="st0" d="M464.6,384c-4.1,0-8.2-1.2-11.7-3.6c-3.5-2.3-6.1-5.6-7.8-9.4c-1.6-3.8-2-8-1.2-12.1c0.8-4.1,2.8-7.8,5.7-10.8
		s6.7-4.9,10.8-5.7s8.3-0.4,12.1,1.2c3.8,1.6,7.1,4.3,9.4,7.8c2.3,3.5,3.6,7.5,3.6,11.7c0,5.6-2.2,10.9-6.1,14.8
		C475.6,381.7,470.2,383.9,464.6,384L464.6,384L464.6,384z"/>
	<path class="st0" d="M257,311.4c-10.9,0-21.7-3.2-30.8-9.2c-9.1-6.1-16.3-14.7-20.5-24.8c-4.2-10.1-5.4-21.3-3.3-32
		c2.1-10.8,7.4-20.7,15.1-28.5c7.8-7.8,17.6-13,28.4-15.2c10.8-2.2,21.9-1.1,32.1,3.1c10.1,4.2,18.8,11.3,24.9,20.4
		c6.1,9.1,9.3,19.9,9.3,30.8c0,14.7-5.8,28.7-16.2,39.1C285.7,305.5,271.7,311.4,257,311.4C257,311.4,257,311.4,257,311.4z"/>
	<path class="st0" d="M488.6,312.4c-4.1,0-8.2-1.2-11.7-3.6c-3.5-2.3-6.1-5.6-7.8-9.4c-1.6-3.8-2-8-1.2-12.1s2.8-7.8,5.7-10.8
		c2.9-2.9,6.7-4.9,10.8-5.7s8.3-0.4,12.1,1.2c3.8,1.6,7.1,4.3,9.4,7.8s3.6,7.5,3.6,11.7c0,5.6-2.2,10.9-6.1,14.8
		S494.2,312.4,488.6,312.4L488.6,312.4z"/>
	<path class="st0" d="M426.3,309.8c-4.2,0-8.2-1.3-11.7-3.6s-6.1-5.6-7.8-9.5c-1.6-3.8-2-8.1-1.2-12.1c0.8-4.1,2.8-7.8,5.8-10.8
		c2.9-2.9,6.8-4.9,10.8-5.7c4.1-0.8,8.3-0.4,12.1,1.3c3.8,1.6,7.1,4.4,9.4,7.8s3.5,7.6,3.4,11.7c0,5.6-2.3,10.8-6.2,14.7
		S431.8,309.7,426.3,309.8L426.3,309.8L426.3,309.8z"/>
	<path class="st0" d="M488.6,241.7c-4.1,0-8.2-1.3-11.7-3.6s-6.1-5.6-7.8-9.4c-1.6-3.8-2-8-1.2-12.1s2.8-7.8,5.7-10.8
		s6.7-4.9,10.8-5.7c4.1-0.8,8.3-0.4,12.1,1.2s7.1,4.3,9.4,7.8c2.3,3.5,3.6,7.5,3.6,11.7c0,5.6-2.2,10.9-6.1,14.8
		C499.6,239.5,494.2,241.6,488.6,241.7L488.6,241.7z"/>
	<path class="st0" d="M426.3,244.1c-4.1,0-8.2-1.2-11.7-3.6c-3.5-2.3-6.1-5.6-7.8-9.4c-1.6-3.8-2-8-1.2-12.1
		c0.8-4.1,2.8-7.8,5.7-10.8s6.7-4.9,10.8-5.7c4.1-0.8,8.3-0.4,12.1,1.2s7.1,4.3,9.4,7.8c2.3,3.5,3.6,7.5,3.6,11.7
		c0,5.6-2.2,10.9-6.1,14.9C437.3,241.9,431.9,244.1,426.3,244.1C426.3,244.1,426.3,244.1,426.3,244.1z"/>
	<path class="st0" d="M465.8,171.2c-4.1,0-8.2-1.2-11.7-3.5c-3.5-2.3-6.1-5.6-7.8-9.4c-1.6-3.8-2-8-1.2-12.1
		c0.8-4.1,2.8-7.8,5.7-10.8s6.7-4.9,10.8-5.7c4.1-0.8,8.3-0.4,12.1,1.2s7.1,4.3,9.4,7.8c2.3,3.5,3.6,7.5,3.6,11.7
		c0,5.6-2.2,10.9-6.1,14.8C476.8,169,471.5,171.2,465.8,171.2L465.8,171.2z"/>
</g>
</svg>
