<svg xmlns="http://www.w3.org/2000/svg" width="81" height="84" fill="none"><g fill="#1EB4D4" clip-path="url(#a)"><path d="M79.719 28.602c2.403-7.529.959-22.566-3.703-28.114-.609-.726-1.754-.622-2.259.176l-5.745 9.064a4.403 4.403 0 0 1-5.9.964 39.324 39.324 0 0 0-21.68-6.481 39.324 39.324 0 0 0-21.68 6.481 4.414 4.414 0 0 1-5.9-.964L7.107.664C6.602-.134 5.457-.238 4.85.488.187 6.036-1.257 21.073 1.146 28.602c.794 2.5 1.02 5.144.546 7.726-.464 2.551-.938 5.641-.938 7.778C.754 66.132 18.525 84 40.432 84 62.35 84 80.11 66.143 80.11 44.106c0-2.147-.464-5.227-.938-7.778-.474-2.582-.248-5.227.547-7.726Zm-39.287 46.48c-16.936 0-30.715-13.855-30.715-30.883 0-.56.02-1.11.041-1.66.619-11.604 7.622-21.528 17.544-26.257a30.3 30.3 0 0 1 13.13-2.966c4.693 0 9.149 1.068 13.14 2.976 9.922 4.73 16.926 14.654 17.545 26.248.03.55.04 1.099.04 1.659-.01 17.028-13.79 30.883-30.725 30.883Z"/><path d="m53.737 56.083-7.849-13.679-6.735-11.407a.874.874 0 0 0-.763-.436h-6.436A.883.883 0 0 0 31.2 31.9l6.436 10.89-8.643 13.252a.903.903 0 0 0-.042.913.88.88 0 0 0 .774.467h6.477c.3 0 .578-.156.743-.405l4.672-7.342 4.188 7.3c.154.28.453.447.763.447h6.384c.32 0 .609-.166.764-.446a.822.822 0 0 0 .02-.892Z"/></g><defs><clipPath id="a"><path fill="#fff" d="M0 0h81v84H0z"/></clipPath></defs></svg>