<svg xmlns="http://www.w3.org/2000/svg" width="554.667" height="310.667" preserveAspectRatio="xMidYMid meet" version="1.0" viewBox="0 0 416 233"><g fill="#000" stroke="none"><path d="M1896 2305 c-296 -61 -500 -208 -644 -465 -17 -30 -67 -136 -111 -236 -135 -309 -182 -387 -284 -481 -148 -135 -273 -144 -574 -42 -149 50 -219 59 -252 32 -20 -17 -23 -25 -17 -56 14 -75 138 -238 406 -532 247 -272 396 -448 435 -512 1 -2 25 7 55 18 29 11 72 24 94 29 23 4 95 19 161 33 168 35 282 56 340 61 28 3 95 10 150 17 91 10 548 17 670 10 109 -7 345 -32 430 -47 235 -40 414 -78 489 -104 33 -11 60 -19 61 -18 50 79 186 239 435 513 268 294 392 457 406 532 6 31 3 39 -17 56 -33 27 -103 18 -252 -32 -301 -102 -426 -93 -574 42 -102 94 -136 151 -292 492 -171 372 -287 514 -506 616 -132 62 -217 80 -390 85 -104 2 -171 -1 -219 -11z m-54 -848 c35 -40 101 -117 146 -170 46 -53 87 -97 92 -97 4 0 36 33 71 73 35 39 70 79 79 88 8 8 46 52 84 97 69 82 69 82 117 82 44 0 49 -2 55 -26 4 -17 1 -36 -7 -49 -14 -23 -156 -186 -256 -294 -60 -64 -64 -47 44 -172 40 -46 96 -111 124 -144 28 -33 64 -75 80 -92 50 -56 33 -114 -33 -113 -29 1 -39 9 -118 100 -36 41 -98 113 -139 160 -41 47 -80 92 -88 100 -16 17 -14 19 -217 -214 -125 -143 -150 -160 -195 -135 -50 28 -40 54 70 179 154 174 169 192 207 232 30 31 33 39 21 51 -29 30 -243 279 -277 322 -32 42 -34 48 -22 70 11 21 21 25 56 25 41 0 46 -3 106 -73z" transform="translate(0.000000,233.000000) scale(0.100000,-0.100000)"/></g></svg>