<svg xmlns:svg="http://www.w3.org/2000/svg" xmlns:sodipodi="http://sodipodi.sourceforge.net/DTD/sodipodi-0.dtd" xmlns:inkscape="http://www.inkscape.org/namespaces/inkscape" xmlns:rdf="http://www.w3.org/1999/02/22-rdf-syntax-ns#" xmlns:cc="http://creativecommons.org/ns#" xmlns="http://www.w3.org/2000/svg" xmlns:xlink="http://www.w3.org/1999/xlink" version="1.1" id="svg200" inkscape:version="1.2 (dc2aedaf03, 2022-05-15)" sodipodi:docname="Hbo logo 1.svg" x="0px" y="0px" style="enable-background:new 0 0 512 512;" xml:space="preserve" viewBox="0 150.6 512 210.9">
<style type="text/css">
	.st0{fill-rule:evenodd;clip-rule:evenodd;}
</style>
<sodipodi:namedview bordercolor="#fcfcfc" borderopacity="1" id="namedview202" inkscape:current-layer="hbo-logo-blk" inkscape:cx="129.33648" inkscape:cy="119.7796" inkscape:deskcolor="#141414" inkscape:pagecheckerboard="1" inkscape:pageopacity="0" inkscape:showpageshadow="0" inkscape:window-height="1009" inkscape:window-maximized="1" inkscape:window-width="1920" inkscape:window-x="-8" inkscape:window-y="-8" inkscape:zoom="2.3543242" pagecolor="#080707" showgrid="false" fill="#ffffff">
	</sodipodi:namedview>
<g id="hbo-logo-blk" transform="translate(0,3.0006123e-5)">
	<polyline id="Fill-15" class="st0" points="150.3,360.5 94.2,360.5 94.2,280.2 57.8,280.2 57.8,360.5 0,360.5 0,153.6 57.8,153.6    57.8,230.5 94.2,230.5 94.2,153.6 150.3,153.6 150.3,360.5  " fill="#ffffff"/>
	<path id="Fill-16" class="st0" d="M407.4,296.9c22.8,0,41.2-18.5,41.2-41.3c0-22.8-18.5-41.3-41.2-41.3   c-22.8,0-41.2,18.5-41.2,41.3C366.1,278.4,384.6,296.9,407.4,296.9z M354.9,255.6c0-29,23.5-52.6,52.4-52.6   c29,0,52.4,23.5,52.4,52.6c0,29-23.5,52.6-52.4,52.6C378.4,308.1,354.9,284.6,354.9,255.6z M281.9,255.6c6.5-0.8,17.3-8.3,21.1-13   c-1.3,5.9-1.4,22.9,0.1,28.8C298.8,264.7,288.5,256.4,281.9,255.6L281.9,255.6z M244.2,199.9c8.2,0,14.7,8.2,14.7,17.4   c0,9.3-6.5,17.5-14.7,17.5h-28.3v-34.9H244.2z M244.1,277.5c8.2,0,14.7,8.2,14.7,17.4c0,9.3-6.5,17.4-14.7,17.4h-28.3v-34.9H244.1z    M407.3,361.5c57.7,0,104.7-48.1,104.7-105.9c0-59.1-47-105-104.7-105c-57.6,0-87.1,42.5-94.4,59.7C313,184.4,287.7,154,258,154   h-95.5v206.5l89,0c35.9,0,61.4-31.2,61.5-57.9C321.3,319.4,349.7,361.5,407.3,361.5L407.3,361.5z" fill="#ffffff"/>
</g>
</svg>