<svg xmlns="http://www.w3.org/2000/svg" xmlns:xlink="http://www.w3.org/1999/xlink" version="1.1" id="Layer_1" x="0px" y="0px" style="enable-background:new 0 0 512 512;" xml:space="preserve" viewBox="0 0 512 512">
<style type="text/css">
	.st0{fill:url(#SVGID_1_);}
</style>
<g>
	<linearGradient id="SVGID_1_" gradientUnits="userSpaceOnUse" x1="256" y1="0" x2="256" y2="512">
		<stop offset="4.155676e-07" style="stop-color:#7DFD00"/>
		<stop offset="0.2036" style="stop-color:#67E500"/>
		<stop offset="0.7421" style="stop-color:#32AA00"/>
		<stop offset="1" style="stop-color:#1D9300"/>
	</linearGradient>
	<path class="st0" d="M450.9,512H61.1C27.4,512,0,484.6,0,450.9V61.1C0,27.4,27.4,0,61.1,0h389.8C484.6,0,512,27.4,512,61.1v389.8   C512,484.6,484.6,512,450.9,512z"/>
	<g>
		<path d="M327.9,191.8h-16.2v131.7h16.2c41.8,0,65.9-21.1,65.9-66.6C393.8,211.5,369.8,191.8,327.9,191.8z"/>
		<path d="M425.3,123.9H86.7c-22.1,0-40,17.9-40,40V348c0,22.1,17.9,40,40,40h338.6c22.1,0,40-17.9,40-40V164    C465.3,141.8,447.4,123.9,425.3,123.9z M233.5,350.1h-36.9v-80.2H121v80.2H84.1V165.2H121v74.9h75.5v-74.9h36.9V350.1z     M332.2,350.1h-57.4V165.2h55.5c63.7,0,101.4,30.5,101.4,91.7S394.1,350.1,332.2,350.1z"/>
	</g>
</g>
</svg>