<?xml version="1.0" encoding="utf-8"?><!-- Uploaded to: SVG Repo, www.svgrepo.com, Generator: SVG Repo Mixer Tools -->
<svg width="800px" height="800px" viewBox="0 0 1024 1024" xmlns="http://www.w3.org/2000/svg">
   <circle cx="512" cy="512" r="512" style="fill:#d50c2d"/>
   <path d="M822.2 523.2c6.1-1.1 11.9-3.6 16.9-7.4 4.5-4.8 6.8-11.2 6.3-17.8 0-5.3-1.5-10.6-4.2-15.1-4.1-7-11.5-11.5-19.7-11.9h-4.1l-9.5-.3h-43c-2.6 0-3.7 1.1-3.7 3.7v75.3c0 2.6 1.1 3.7 3.7 3.7h11.2c2.6 0 3.7-1.1 3.7-3.7v-24.9h13.7c3 .2 5.9 1.4 8.1 3.4l21.7 21.8c2 2 4.6 3.2 7.4 3.4h16.6c2.6 0 3.2-1.5 1.4-3.4l-26.5-26.8zm-2.8-16.1h-39.6v-19h39.6c4 .5 7 3.9 7 8v2.9c0 4.2-3 7.6-7 8.1zm-75.6 28.7h-61.5v-15.5h49.1c2.6 0 3.7-1.1 3.7-3.7v-9c0-2.6-1.1-3.7-3.7-3.7h-49.1v-15.5h61.6c2.6 0 3.7-1.1 3.7-3.7v-10.3c0-2.6-1.1-3.7-3.7-3.7h-76.8c-2.6 0-3.7 1.1-3.7 3.7v75.4c0 2.6 1.1 3.7 3.7 3.7h76.8c2.6 0 3.7-1.1 3.7-3.7v-10.2c0-2.7-1.3-3.8-3.8-3.8zm-94-38c.1-5.3-1.4-10.4-4.2-14.9-4.1-7.2-11.7-11.8-20-12.3h-56.4c-2.6 0-3.7 1.1-3.7 3.7v75.3c0 2.6 1.1 3.7 3.7 3.7h12.1c2.6 0 3.7-1 3.7-3.7v-61.4h32.7c7 0 13.7 4.6 13.7 11.6v49.9c0 2.6 1.1 3.7 3.7 3.7h11c2.6 0 3.7-1.1 3.7-3.7v-51.9zm-101.5 37.5h-53.1l53.2-46.7c2.2-1.7 3.5-4.1 3.7-6.9v-7.4c0-2.6-1.1-3.7-3.7-3.7h-77c-2.6 0-3.7 1.1-3.7 3.7v10.3c0 2.6 1.1 3.7 3.7 3.7h49.3l-49.5 46.4c-2.1 1.7-3.5 4.1-3.7 6.9v8.1c0 2.6 1.1 3.7 3.7 3.7h76.9c2.6 0 3.7-1.1 3.7-3.7V539c.2-2.6-.9-3.7-3.5-3.7zm-97.9-64.7h-76.8c-2.6 0-3.7 1-3.7 3.7v10.3c0 2.6 1 3.7 3.7 3.7h29v61.4c0 2.6 1.1 3.7 3.7 3.7h12.3c2.6 0 3.7-1.1 3.7-3.7v-61.4h28.2c2.6 0 3.7-1.1 3.7-3.7v-10.2c-.1-2.6-1.2-3.8-3.8-3.8zm-97.8 65.2h-61.4v-15.5h49.1c2.6 0 3.7-1.1 3.7-3.7v-9c0-2.6-1-3.7-3.7-3.7h-49.1v-15.5h61.4c2.6 0 3.7-1.1 3.7-3.7v-10.3c0-2.6-1.1-3.7-3.7-3.7H276c-2.6 0-3.7 1.1-3.7 3.7v75.4c0 2.6 1.1 3.7 3.7 3.7h76.6c2.6 0 3.7-1.1 3.7-3.7v-10.2c0-2.7-1.1-3.8-3.7-3.8zm-97.8-65.2h-11.6c-2.6 0-3.7 1.1-3.7 3.7v29.3h-46.1v-29.3c0-2.6-1.1-3.7-3.7-3.7H178c-2.6 0-3.7 1.1-3.7 3.7v75.4c0 2.6 1.1 3.7 3.7 3.7h11.7c2.6 0 3.7-1 3.7-3.7v-29.8h46.2v29.8c0 2.6 1.1 3.7 3.7 3.7h11.6c2.6 0 3.7-1.1 3.7-3.7v-75.4c-.1-2.5-1.2-3.7-3.8-3.7z" style="fill:#fff"/>
</svg>