<svg xmlns="http://www.w3.org/2000/svg" width="1544" height="536" baseProfile="tiny-ps" version="1.2"><path fill-rule="evenodd" d="M614.42 535.16 810.93 2.95h159.61L774.47 535.16H614.42ZM472.15 207.65 547.73 2.5h159.61L523.28 502.23s0 .45-.44.45c-7.56 18.69-25.35 31.59-46.69 32.04H351.23l93.8-254.54H255.19l-93.8 254.54H1.78L197.84 2.5h159.61l-75.58 205.15h190.28ZM1424.02 2.5h119.15l-266.31 204.7 168.94 327.52h-135.6c.45 0 .89 0 1.34-.45-20.9 1.34-40.02-10.68-48.91-28.48 0 0 0-.44-.44-.44v.44l-105.81-205.58-40.02 30.7-75.13 204.25H881.62L1077.68 2.95h159.61l-73.8 199.8L1424.02 2.5Z" style="fill:#d71820"/></svg>