<?xml version="1.0" encoding="utf-8"?>
<!-- Generator: Adobe Illustrator 28.2.0, SVG Export Plug-In . SVG Version: 6.00 Build 0)  -->
<svg version="1.1" id="Layer_1" xmlns="http://www.w3.org/2000/svg" xmlns:xlink="http://www.w3.org/1999/xlink" x="0px" y="0px"
	 viewBox="0 0 1918.2 512" style="enable-background:new 0 0 1918.2 512;" xml:space="preserve">
<style type="text/css">
	.st0{fill:#288FC9;}
	.st1{fill:#727171;}
</style>
<polygon class="st0" points="763.1,439.7 763.1,512 597.3,512 597.3,511.8 525,511.8 525,0.2 597.3,0.2 597.3,439.7 "/>
<rect x="1594.7" y="0.1" class="st0" width="72.3" height="511.7"/>
<polygon class="st0" points="1918.2,511.8 1820,511.8 1654.9,307.2 1752.7,307.2 "/>
<polygon class="st0" points="1901.6,124.3 1803.6,124.3 1656.8,307.2 1752.7,307.2 "/>
<polygon class="st1" points="351.3,0.2 351.3,511.8 279,511.8 279,289.9 72.3,289.9 72.3,511.8 0,511.8 0,0.2 72.3,0.2 72.3,217.5 
	279,217.5 279,0.2 "/>
<rect x="396.3" y="123.8" class="st1" width="72.3" height="388.1"/>
<rect x="396.3" class="st1" width="72.3" height="81"/>
<path class="st0" d="M1159.8,285.2h-63c-14.4-55.2-63.3-95.8-121.5-95.8c-58.1,0-107.1,40.6-121.5,95.8h-63
	C806.3,194.7,883,126,975.3,126S1144.4,194.7,1159.8,285.2z"/>
<path class="st0" d="M1159.8,352.8c-15.5,90.4-92.2,159-184.5,159c-92.3,0-168.9-68.6-184.4-159h63c14.5,55.2,63.4,95.7,121.5,95.7
	c58.1,0,107-40.6,121.5-95.7H1159.8z"/>
<path class="st0" d="M1034.9,318.9c0,12.5-3.7,24.2-9.9,33.9c-10.7,16.5-28.9,27.4-49.6,27.4c-20.7,0-38.9-10.9-49.6-27.4
	c-6.3-9.7-9.9-21.4-9.9-33.9c0-12.5,3.6-24.1,9.9-33.7c10.7-16.6,28.9-27.5,49.6-27.5c20.8,0,39,10.9,49.7,27.5
	C1031.2,294.9,1034.9,306.4,1034.9,318.9z"/>
<path class="st0" d="M1565.9,352.8c-15.5,90.4-92.2,159-184.5,159c-92.3,0-168.9-68.6-184.4-159h63c14.5,55.2,63.4,95.7,121.5,95.7
	c58.1,0,107-40.6,121.5-95.7H1565.9z"/>
<path class="st0" d="M1566,285.2h-63c-14.4-55.2-63.3-95.8-121.5-95.8c-58.1,0-107.1,40.6-121.5,95.8h-63
	c15.5-90.5,92.2-159.2,184.5-159.2C1473.8,126,1550.5,194.7,1566,285.2z"/>
<path class="st0" d="M1441,318.9c0,12.5-3.7,24.2-9.9,33.9c-10.7,16.5-28.9,27.4-49.6,27.4c-20.7,0-38.9-10.9-49.6-27.4
	c-6.3-9.7-9.9-21.4-9.9-33.9c0-12.5,3.6-24.1,9.9-33.7c10.7-16.6,28.9-27.5,49.6-27.5c20.8,0,39,10.9,49.7,27.5
	C1437.4,294.9,1441,306.4,1441,318.9z"/>
</svg>
