<?xml version="1.0" encoding="utf-8"?>
<!-- Generator: Adobe Illustrator 27.7.0, SVG Export Plug-In . SVG Version: 6.00 Build 0)  -->
<svg version="1.1"
	 id="svg1" xmlns:inkscape="http://www.inkscape.org/namespaces/inkscape" xmlns:sodipodi="http://sodipodi.sourceforge.net/DTD/sodipodi-0.dtd" xmlns:svg="http://www.w3.org/2000/svg" inkscape:version="1.3.2 (091e20ef0f, 2023-11-25)" sodipodi:docname="hive.svg"
	 xmlns="http://www.w3.org/2000/svg" xmlns:xlink="http://www.w3.org/1999/xlink" x="0px" y="0px" viewBox="0 0 512 512"
	 style="enable-background:new 0 0 512 512;" xml:space="preserve">
<style type="text/css">
	.st0{fill:none;}
	.st1{fill:url(#path31_00000160167151537881968900000007852761270464256688_);}
	.st2{fill:url(#path32_00000102513241847120824070000007454369577022784905_);}
	.st3{fill:url(#path35_00000051352290165909107860000003325085281714051461_);}
	.st4{fill:#FFFFFF;}
	.st5{fill:url(#path38_00000163062179386338426800000005168490361355294627_);}
	.st6{fill:url(#path37_00000052074594976528018950000003129790131846543284_);}
	.st7{fill:url(#path23_00000101076826672022519500000014723274974902462115_);}
	.st8{fill:url(#path24_00000136388827579595837510000008971414718169543079_);}
	.st9{fill:url(#path25_00000013872460025180079040000010713843262279887777_);}
	.st10{fill:#03FF5A;stroke:#D602FF;stroke-width:11.3386;stroke-linecap:round;stroke-linejoin:round;stroke-miterlimit:11.3386;}
	.st11{fill:url(#path41_00000152958184197241565700000015784708922685938576_);}
	.st12{fill:#D602FF;}
	.st13{fill:none;stroke:#000000;stroke-width:6.9874;stroke-linecap:round;stroke-linejoin:round;stroke-miterlimit:11.3386;}
	
		.st14{fill:url(#path36_00000010308608567855596780000008269389858764810427_);stroke:#000000;stroke-width:6.9874;stroke-linecap:round;stroke-linejoin:round;stroke-miterlimit:11.3386;}
	.st15{fill:none;stroke:#000000;stroke-width:1.0346;stroke-linecap:round;stroke-linejoin:round;stroke-miterlimit:11.3386;}
	.st16{fill:none;stroke:#000000;stroke-width:1.2497;stroke-linecap:round;stroke-linejoin:round;stroke-miterlimit:11.3386;}
	.st17{fill:none;stroke:#000000;stroke-width:0.9014;stroke-linecap:round;stroke-linejoin:round;stroke-miterlimit:11.3386;}
	.st18{fill:none;stroke:#000000;stroke-width:1.131;stroke-linecap:round;stroke-linejoin:round;stroke-miterlimit:11.3386;}
	.st19{fill:none;stroke:#000000;stroke-width:1.046;stroke-linecap:round;stroke-linejoin:round;stroke-miterlimit:11.3386;}
	.st20{fill:none;stroke:#000000;stroke-width:0.9043;stroke-linecap:round;stroke-linejoin:round;stroke-miterlimit:11.3386;}
	.st21{fill:none;stroke:#000000;stroke-width:0.7795;stroke-linecap:round;stroke-linejoin:round;stroke-miterlimit:11.3386;}
	.st22{fill:#FFFFFF;fill-opacity:0.1843;}
	.st23{fill:#FFEF95;fill-opacity:0.7686;}
	.st24{fill:#FFFFFF;fill-opacity:0.1857;}
	.st25{fill:#FFF5B9;fill-opacity:0.9283;}
	.st26{fill:#FFEF95;fill-opacity:0.7679;}
	.st27{fill:#2A2300;fill-opacity:0.1657;}
</style>
<pattern  x="-41.6" y="676.9" width="595.3" height="841.9" patternUnits="userSpaceOnUse" id="pattern73" viewBox="0 -841.9 595.3 841.9" style="overflow:visible;">
	<g>
		<rect y="-841.9" class="st0" width="595.3" height="841.9"/>
	</g>
</pattern>
<pattern  x="-41.6" y="676.9" width="595.3" height="841.9" patternUnits="userSpaceOnUse" id="pattern74" viewBox="0 -841.9 595.3 841.9" style="overflow:visible;">
	<g>
		<rect y="-841.9" class="st0" width="595.3" height="841.9"/>
	</g>
</pattern>
<sodipodi:namedview  bordercolor="#000000" borderopacity="0.25" id="namedview1" inkscape:current-layer="layer3" inkscape:cx="357.8942" inkscape:cy="452.79905" inkscape:deskcolor="#d1d1d1" inkscape:document-units="mm" inkscape:pagecheckerboard="0" inkscape:pageopacity="0.0" inkscape:showpageshadow="2" inkscape:window-height="696" inkscape:window-maximized="1" inkscape:window-width="1368" inkscape:window-x="0" inkscape:window-y="0" inkscape:zoom="0.43728007" pagecolor="#ffffff" showguides="false">
	<sodipodi:guide  id="guide1" inkscape:locked="false" orientation="0,-1" position="116.14118,215.20072"></sodipodi:guide>
	<sodipodi:guide  id="guide2" inkscape:locked="false" orientation="0,-1" position="145.08663,201.71555"></sodipodi:guide>
	<sodipodi:guide  id="guide3" inkscape:locked="false" orientation="0,-1" position="75.044424,186.02975"></sodipodi:guide>
	<sodipodi:guide  id="guide4" inkscape:locked="false" orientation="0,-1" position="127.09952,171.97135"></sodipodi:guide>
	<sodipodi:guide  id="guide5" inkscape:locked="false" orientation="0,-1" position="125.55298,155.84149"></sodipodi:guide>
	<sodipodi:guide  id="guide6" inkscape:locked="false" orientation="1,0" position="142.5905,195.14964"></sodipodi:guide>
	<sodipodi:guide  id="guide7" inkscape:locked="false" orientation="1,0" position="123.94563,206.40938"></sodipodi:guide>
	<sodipodi:guide  id="guide8" inkscape:locked="false" orientation="1,0" position="115.15504,196.13272"></sodipodi:guide>
</sodipodi:namedview>
<g>
	<g id="layer3" inkscape:groupmode="layer" inkscape:label="FILL">
		
			<linearGradient id="path31_00000024721746299733973390000015051477428736380838_" gradientUnits="userSpaceOnUse" x1="30.0731" y1="546.6665" x2="3.3295" y2="582.4577" gradientTransform="matrix(2.8346 0 0 -2.8346 89.2331 1708.4003)">
			<stop  offset="0" style="stop-color:#FFD90B"/>
			<stop  offset="1" style="stop-color:#FFED99"/>
		</linearGradient>
		
			<path id="path31" inkscape:export-filename="hive.png" inkscape:export-xdpi="96" inkscape:export-ydpi="96" sodipodi:nodetypes="cccc" style="fill:url(#path31_00000024721746299733973390000015051477428736380838_);" d="
			M103.1,160.5c16.9-53.6,70.7-68.6,70.7-68.6c46.8,14.5,64.3,59.9,64.3,59.9C205.1,189.4,118.7,172.4,103.1,160.5z"/>
		
			<linearGradient id="path32_00000176028242318136264290000007974875056273468844_" gradientUnits="userSpaceOnUse" x1="-1.5544" y1="546.8206" x2="-13.9654" y2="568.8797" gradientTransform="matrix(2.8346 0 0 -2.8346 89.2331 1708.4003)">
			<stop  offset="0" style="stop-color:#FFD90B"/>
			<stop  offset="1" style="stop-color:#FFED99"/>
		</linearGradient>
		
			<path id="path32" sodipodi:nodetypes="ccccc" style="fill:url(#path32_00000176028242318136264290000007974875056273468844_);" d="
			M21.6,152.8c27.7-48.4,55.2-56.9,55.2-56.9c22.9,4.6,47,24.9,47,24.9l-20.7,39.6C89.6,172.5,55.1,170.5,21.6,152.8z"/>
		
			<pattern  id="path35_00000014634109589930362890000000773797652108575142_" xlink:href="#pattern74" patternTransform="matrix(0.5803 0 0 -0.5803 -3404.3911 -13720.6182)">
		</pattern>
		
			<path id="path35" sodipodi:nodetypes="cccccc" style="fill:url(#path35_00000014634109589930362890000000773797652108575142_);" d="
			M244.8,172.5l1.5,52.4c53.7,13.7,69,24.1,108.2,60l23.2-41.2l-46.4-71.1H244.8z"/>
		<path id="path42" sodipodi:nodetypes="ccccc" class="st4" d="M21.6,152.8c0,0,55.4,31.2,81.5,7.7c0,0-17.6,54.9,3,112.9
			c-49,29.4-75.2,20.4-75.2,20.4S-31.3,285.9,21.6,152.8L21.6,152.8z"/>
		<path id="path43" sodipodi:nodetypes="ccccc" class="st4" d="M238.1,151.8c-6.7,13.1-85.2,37.5-135,8.7
			c-7.9,68.6-17.5,105.3,28.8,128.1c-8.1-113.7,82.6-103.3,114.4-104.3C244.3,168.5,238.1,151.8,238.1,151.8z"/>
		<path id="path33" sodipodi:nodetypes="cccc" d="M96.2,187.4C-6.5,168.1,5.4,269.1,5.4,269.1c35.3,48.1,100.7,4.3,100.7,4.3
			C90.5,235.6,96.2,187.4,96.2,187.4L96.2,187.4z"/>
		<path id="path34" sodipodi:nodetypes="cccc" d="M246.3,184.3C87.3,132,106.1,273.4,106.1,273.4c40.2,33.5,120.5-19.4,120.5-19.4
			C243.6,232.2,245.5,223.9,246.3,184.3L246.3,184.3z"/>
		
			<linearGradient id="path38_00000054261854082172605040000011702927912479611579_" gradientUnits="userSpaceOnUse" x1="35.6699" y1="486.7798" x2="21.9107" y2="512.0444" gradientTransform="matrix(2.8346 0 0 -2.8346 89.2331 1708.4003)">
			<stop  offset="0" style="stop-color:#FFD90B"/>
			<stop  offset="1" style="stop-color:#FFED99"/>
		</linearGradient>
		
			<path id="path38" sodipodi:nodetypes="ccccc" style="fill:url(#path38_00000054261854082172605040000011702927912479611579_);" d="
			M176.6,283.4l30-14.4c8.7,36.5-5.1,70.2-22,87.4l-30.6-5.6C170.6,336.8,174.5,304.2,176.6,283.4L176.6,283.4z"/>
		
			<linearGradient id="path37_00000161602324917584621010000002506137619385023886_" gradientUnits="userSpaceOnUse" x1="72.6264" y1="493.3578" x2="55.4658" y2="518.6577" gradientTransform="matrix(2.8346 0 0 -2.8346 89.2331 1708.4003)">
			<stop  offset="0" style="stop-color:#FFD90B"/>
			<stop  offset="1" style="stop-color:#FFED99"/>
		</linearGradient>
		
			<path id="path37" sodipodi:nodetypes="ccccc" style="fill:url(#path37_00000161602324917584621010000002506137619385023886_);" d="
			M262.3,227.4c5.1,41.2-6.7,77.8-13,98.6h36.3c0,0,27.1-46.1,25.4-76.6L262.3,227.4z"/>
		<path id="path27" sodipodi:nodetypes="ccccc" class="st4" d="M331.3,326l11.8,21.1c5.5-51.8,40.2-65,40.2-65l-11.1-28.8L331.3,326
			z"/>
		<path id="path21" sodipodi:nodetypes="ccccc" d="M335.2,328.4c21-30.4,39.1-29.1,54.7-31.2l18.6,13.7l-51.9,52.4L335.2,328.4z"/>
		<path id="path22" sodipodi:nodetypes="cccccc" d="M364.2,374.7c30.1-27.8,37.8-34.1,78-36.5l48.3,32.3l-14.4,29.9h-98.4
			L364.2,374.7z"/>
		
			<pattern  id="path23_00000117649585539504581380000005943148080602382762_" xlink:href="#pattern73" patternTransform="matrix(0.5803 0 0 -0.5803 -3404.3911 -13720.6182)">
		</pattern>
		
			<path id="path23" sodipodi:nodetypes="ccccccc" style="fill:url(#path23_00000117649585539504581380000005943148080602382762_);" d="
			M377.7,243.6v11.2c49.2-11.2,51.6,51.1,51.6,51.1c41.3-4.1,74.4,37.3,74.4,37.3L512,326l-35.9-82.4L377.7,243.6z"/>
		
			<linearGradient id="path24_00000089539931282803493660000004936642605873411753_" gradientUnits="userSpaceOnUse" x1="111.4458" y1="501.7765" x2="96.3977" y2="514.2161" gradientTransform="matrix(2.8346 0 0 -2.8346 89.2331 1708.4003)">
			<stop  offset="0" style="stop-color:#FFD90B"/>
			<stop  offset="1" style="stop-color:#FFED99"/>
		</linearGradient>
		
			<path id="path24" sodipodi:nodetypes="ccccc" style="fill:url(#path24_00000089539931282803493660000004936642605873411753_);" d="
			M372.2,253.3c0,0,13.1,32.9,36.2,57.5l20.9-4.9C437.2,266.2,372.2,253.3,372.2,253.3L372.2,253.3"/>
		
			<linearGradient id="path25_00000097484216042049711060000003999297226685321617_" gradientUnits="userSpaceOnUse" x1="134.6732" y1="484.6317" x2="123.8855" y2="498.3318" gradientTransform="matrix(2.8346 0 0 -2.8346 89.2331 1708.4003)">
			<stop  offset="0" style="stop-color:#FFD90B"/>
			<stop  offset="1" style="stop-color:#FFED99"/>
		</linearGradient>
		<path id="path25" sodipodi:nodetypes="cccc" style="fill:url(#path25_00000097484216042049711060000003999297226685321617_);" d="
			M429.3,305.9c0,0,12.1,46,61.2,64.7l13.2-27.4C487.9,309.5,429.3,305.9,429.3,305.9z"/>
		<path id="path26" sodipodi:nodetypes="ccccc" class="st4" d="M429.3,305.9l15.6,38.2c0,0-32.3-17.1-80.6,30.6l-7.7-11.4
			C380.2,309.6,429.3,305.9,429.3,305.9L429.3,305.9z"/>
		<path id="path28" sodipodi:nodetypes="ccccc" d="M310.9,249.5c-3.3,42.2-22,65.2-32.1,76.6h52.6l23.2-41.2L310.9,249.5z"/>
		<path id="path29" sodipodi:nodetypes="cccccccc" d="M251.5,322.2c10.7-20.1,17.6-63.9,10.8-94.7l-16-2.6l-39.7,44.2
			c7.3,24.7-4.3,61.2-22,87.4l25.4-3.8l16.3-26.6L251.5,322.2z"/>
		<path id="path30" sodipodi:nodetypes="ccccc" d="M176.6,283.4c3.2,27.2-13.1,64.3-22.7,67.5l-26.2-24.5l37.3-39.1L176.6,283.4z"/>
		<path id="path39" class="st4" d="M226.2,326l105.1,0.3l46.4,74.2l-46.4,85.1H227.5l-47.1-85.1L226.2,326z"/>
		<g id="g43" inkscape:label="CROSS">
			<path id="path8" sodipodi:nodetypes="cc" class="st10" d="M244.5,367.2l77.3,86.3"/>
			<path id="path9" sodipodi:nodetypes="cc" class="st10" d="M237.7,453.7l76.6-86.6"/>
		</g>
		
			<linearGradient id="path41_00000167354520327266560850000001598784585750925738_" gradientUnits="userSpaceOnUse" x1="6.31" y1="479.34" x2="-5.6612" y2="498.7673" gradientTransform="matrix(2.8346 0 0 -2.8346 89.2331 1708.4003)">
			<stop  offset="0" style="stop-color:#FFD90B"/>
			<stop  offset="1" style="stop-color:#FFED99"/>
		</linearGradient>
		
			<path id="path41" sodipodi:nodetypes="ccccc" style="fill:url(#path41_00000167354520327266560850000001598784585750925738_);" d="
			M79.5,290.7l26.6-17.3c14.7,12.3,29.4,14,58.9,13.9c0,0-67.1,79.8-105.1,142L79.5,290.7z"/>
	</g>
	<g id="layer2" inkscape:groupmode="layer" inkscape:label="STROKE">
		<path id="path2" inkscape:label="EYE-1" class="st12" d="M50.8,264.4c-5.6,0-10.1,9.9-10.1,22c0,0,0,0,0,0c0,1.4,0.1,2.7,0.2,4
			h19.7c0.1-1.3,0.2-2.7,0.2-4C60.9,274.3,56.4,264.4,50.8,264.4C50.8,264.4,50.8,264.4,50.8,264.4L50.8,264.4z"/>
		<path id="path2-6" inkscape:label="EYE-1" class="st12" d="M164.2,254.6c-5.6,0-10.1,9.9-10.1,22c0,0,0,0,0,0c0,1.4,0.1,2.7,0.2,4
			h19.7c0.1-1.3,0.2-2.7,0.2-4C174.3,264.4,169.8,254.6,164.2,254.6C164.2,254.6,164.2,254.6,164.2,254.6L164.2,254.6z"/>
		
			<path id="path2-6-6" inkscape:label="EYE-2" inkscape:transform-center-x="1.3093954" inkscape:transform-center-y="-0.3801063" class="st12" d="
			M367,336.2c-2.5-4.9-13.4-4.5-24.2,1.1c0,0,0,0,0,0c-1.2,0.6-2.4,1.3-3.5,2l9,17.6c1.2-0.5,2.5-1.1,3.7-1.7
			C362.8,349.6,369.5,341.1,367,336.2C367,336.2,367,336.2,367,336.2L367,336.2z"/>
		<path id="path2-6-6-9-3" inkscape:label="EYE-2" class="st12" d="M400.5,380.8c-2.9-4.7-13.7-3.4-24,3c0,0,0,0,0,0
			c-1.1,0.7-2.3,1.5-3.3,2.3l10.4,16.8c1.2-0.6,2.4-1.2,3.5-2C397.4,394.6,403.4,385.6,400.5,380.8
			C400.5,380.8,400.5,380.8,400.5,380.8L400.5,380.8z"/>
		<path id="path1" sodipodi:nodetypes="ccccccccccccc" class="st13" d="M244.8,172.5h86.5l46.4,71.1L331.3,326H226.2l-45.8,74.5
			l47.1,85.1h103.8l46.4-85.1h98.4L512,326l-35.9-82.4h-98.4"/>
		<path id="path5" sodipodi:nodetypes="ccc" class="st13" d="M331.3,326l50.3,74.5l0,0"/>
		<path id="path10" sodipodi:nodetypes="cccc" class="st13" d="M354.5,284.8c-45.3-56.3-108.2-60-108.2-60 M129.7,328.8
			c24.5,44.9,80.2,23.9,80.2,23.9"/>
		<path id="path11" sodipodi:nodetypes="ccsc" class="st13" d="M246.3,224.8c0,0,6.2-35.1-8.1-73.1c-57.7-127-160.9-23.2-142.1,92.5
			C111.4,339,241.1,262.9,246.3,224.8"/>
		<path id="path12" sodipodi:nodetypes="cscc" class="st13" d="M123.8,120.9c-16.7-19.3-32.2-26.3-46.2-25
			C28.6,100.3-2.2,206.2,0.1,243.6c10.7,98.6,106,29.7,106,29.7"/>
		<path id="path13" sodipodi:nodetypes="ccc" class="st13" d="M21.6,152.8c10.2,10.1,71.2,28.1,81.5,7.7
			c27.3,28.8,138.5,14.1,135-8.7"/>
		<path id="path15" sodipodi:nodetypes="ccc" class="st13" d="M200.8,69.6c0,0-65.2-19.6-77,51.3C118.9,62.7,147,50.3,147,50.3"/>
		<path id="path14" sodipodi:nodetypes="ccc" class="st13" d="M79.5,290.7L59.9,429.3c0,0,50.4-93.3,105.1-142"/>
		<circle id="path16" class="st13" cx="145.9" cy="50.9" r="6.4"/>
		<circle id="path16-6" class="st13" cx="200.6" cy="69.5" r="6.4"/>
		<path id="path17" sodipodi:nodetypes="ccc" class="st13" d="M372.2,253.3c34.8,3.1,52.2,12.2,57,52.6
			c46.8-5.6,74.4,37.3,74.4,37.3"/>
		<path id="path18" sodipodi:nodetypes="cc" class="st13" d="M429.3,305.9c0,0-45.8,0.4-72.8,57.3"/>
		<path id="path19" sodipodi:nodetypes="cc" class="st13" d="M429.3,305.9c4.6,22.7,19.4,52.4,61.2,64.7"/>
		<path id="path20" sodipodi:nodetypes="csc" class="st13" d="M372.2,253.3c1.5,15.4,6.5,24.5,16.8,36.5c5.1,5.9,11.4,12.6,19.3,21"
			/>
		
			<linearGradient id="path36_00000077325105693410298580000002520941509560583296_" gradientUnits="userSpaceOnUse" x1="77.9225" y1="458.9626" x2="71.5539" y2="466.7737" gradientTransform="matrix(2.8346 0 0 -2.8346 89.2331 1708.4003)">
			<stop  offset="0" style="stop-color:#FFD90B"/>
			<stop  offset="1" style="stop-color:#FFED99"/>
		</linearGradient>
		
			<path id="path36" inkscape:export-filename="hive.png" inkscape:export-xdpi="96" inkscape:export-ydpi="96" sodipodi:nodetypes="cccc" style="fill:url(#path36_00000077325105693410298580000002520941509560583296_);stroke:#000000;stroke-width:6.9874;stroke-linecap:round;stroke-linejoin:round;stroke-miterlimit:11.3386;" d="
			M337.2,336.6c-26.4,3.8-84.2,54.6-100.5,84.9c72-21.3,134.2-33.9,134.2-33.9L337.2,336.6z"/>
		<path id="path3" sodipodi:nodetypes="cc" class="st15" d="M151,26.4c8.9-0.6,14.4,3.7,17.5,12.1"/>
		<path id="path3-6" sodipodi:nodetypes="cc" class="st16" d="M40.5,104c4.4-7.1,22.6-18.3,36.9-19.5"/>
		<path id="path3-6-6" sodipodi:nodetypes="cc" class="st17" d="M57.6,86.4c4.1-2.8,11.1-4.7,15.1-4.9"/>
		<path id="path3-7" sodipodi:nodetypes="cc" class="st18" d="M221.7,59.3c3.7,1.7,6.5,8.4,1.8,15.1"/>
		<path id="path3-5" sodipodi:nodetypes="cc" class="st19" d="M150.5,32.9c5-0.9,9.8,4,10.4,8.2"/>
		<path id="path3-5-2" sodipodi:nodetypes="cc" class="st20" d="M217.5,62.7c2.5,1.8,3.1,6.8,0.6,9.5"/>
		<path id="path4" sodipodi:nodetypes="cc" class="st20" d="M51.2,385c-1.3,5.1-5,31.8-4.5,37.1"/>
		<path id="path4-9" sodipodi:nodetypes="cc" class="st21" d="M44.5,406.4c-1,3.1-2,14-2,14"/>
		<path id="path6" sodipodi:nodetypes="cc" class="st13" d="M111.1,282.5c-6.1,11-9,24.6-9,24.6"/>
		
			<path id="path6-3" inkscape:export-filename="hive.png" inkscape:export-xdpi="96" inkscape:export-ydpi="96" sodipodi:nodetypes="cc" class="st13" d="
			M346.4,359.6c-12.1,5.2-17.7,10.6-17.7,10.6"/>
	</g>
	<g id="layer4" inkscape:groupmode="layer" inkscape:label="LIGHT">
		<path id="path90" sodipodi:nodetypes="cccc" class="st22" d="M80.6,193.2c-47-6.1-64,33.6-64.4,59.3c2,1.7,8.3,3.5,13.5,3.8
			C31.6,234.7,39.4,198.2,80.6,193.2z"/>
		<path id="path90-2" sodipodi:nodetypes="cccc" class="st23" d="M96.7,111.4c-27.4-19.4-55.9,27.7-58,36c1.3,1.6,12.1,2.1,17.2,1.5
			C59.1,140.9,72.1,107.2,96.7,111.4L96.7,111.4z"/>
		<path id="path90-2-7" sodipodi:nodetypes="cccc" class="st23" d="M183.4,110.7c-27.4-19.4-60.2,34.6-62.3,42.8
			c1.3,1.6,13.9,2.7,17.8,1.9C142.2,147.5,158.5,111.1,183.4,110.7L183.4,110.7z"/>
		<path id="path90-5" sodipodi:nodetypes="cccc" class="st24" d="M186.3,182.3c-57-1.4-71.1,42.8-70,78.9c3.9,5.6,8.7,5.5,20.2,5.8
			C135.1,239.4,135.4,192.9,186.3,182.3z"/>
		<path id="path7" sodipodi:nodetypes="cccc" class="st23" d="M88.9,296.8l-12.5,86.3c0,0,13.8-77.7,20.3-90.4
			C96.8,292.7,92.4,293.8,88.9,296.8L88.9,296.8z"/>
		<path id="path7-2" sodipodi:nodetypes="cccc" class="st25" d="M331.7,348.7c-17.6,5.1-45.1,29.4-71,55.5c0,0,59-45.9,74.9-50.5
			C335.7,353.7,334,349.8,331.7,348.7z"/>
		<path id="path40" sodipodi:nodetypes="ccccc" class="st26" d="M268.3,241.1c14.2,3.2,27.4,9.5,37.2,16.2c-0.1,7.4-2.6,15-4.5,18.2
			c-5-7.1-28.8-12.8-32.5-12.6C269.7,257.2,270.8,249.7,268.3,241.1z"/>
		<path id="path40-9" sodipodi:nodetypes="ccccc" class="st27" d="M206.5,280.6c-0.1,7.4-0.7,16-2.6,19.3c-6.3,3.1-18.2,4-23.7,3.6
			c0.6-5.9,0.1-4.4,0.1-10.9C186.1,291.2,198.1,285.3,206.5,280.6L206.5,280.6z"/>
		<path id="path44" sodipodi:nodetypes="cccccccc" class="st23" d="M382.7,263.7c2.5,5.8,9.8,15.7,9.8,15.7c4.8-4.1,5.5-7,6.4-10.7
			C394.4,266.4,387.8,264.5,382.7,263.7z M443.2,316.1c2.5,5.8,7.1,13.4,9.8,17.2c4.4-0.3,7.7-8.5,7.7-12.2
			C456.2,318.8,449.3,316,443.2,316.1z"/>
	</g>
</g>
</svg>
