<?xml version="1.0" encoding="utf-8"?>
<!-- Generator: Adobe Illustrator 27.7.0, SVG Export Plug-In . SVG Version: 6.00 Build 0)  -->
<svg version="1.1"
	 id="svg1" xmlns:svg="http://www.w3.org/2000/svg" xmlns:inkscape="http://www.inkscape.org/namespaces/inkscape" xmlns:sodipodi="http://sodipodi.sourceforge.net/DTD/sodipodi-0.dtd" inkscape:export-filename="hollo.png"
	 xmlns="http://www.w3.org/2000/svg" xmlns:xlink="http://www.w3.org/1999/xlink" x="0px" y="0px" viewBox="0 0 512 512"
	 style="enable-background:new 0 0 512 512;" xml:space="preserve">
<style type="text/css">
	.st0{stroke:#000000;stroke-width:0.3356;stroke-miterlimit:15.472;}
</style>
<sodipodi:namedview  bordercolor="#000000" borderopacity="0.25" id="namedview1" inkscape:current-layer="g5" inkscape:cx="160.66967" inkscape:cy="190.2984" inkscape:deskcolor="#d1d1d1" inkscape:document-units="mm" inkscape:export-bgcolor="#ffffffff" inkscape:pagecheckerboard="0" inkscape:pageopacity="0.0" inkscape:showpageshadow="2" inkscape:window-height="1216" inkscape:window-maximized="0" inkscape:window-width="1499" inkscape:window-x="26" inkscape:window-y="23" inkscape:zoom="2.0756874" pagecolor="#ffffff">
	</sodipodi:namedview>
<g id="layer1" inkscape:groupmode="layer" inkscape:label="Layer 1">
	<g id="g3" transform="matrix(0.95518407,0,0,0.95518407,41.233688,-43.063485)">
		<g id="g4" transform="matrix(1.4285658,0,0,1.4285658,-112.98154,-95.182896)">
			<g id="g5" transform="translate(0.30119891,0.32758198)">
				<circle id="path1" class="st0" cx="271" cy="320.2" r="152.7"/>
				<path id="text2" d="M135.7,251.7l-4,15.1l-30.9-8.2L93.3,287l30.9,8.2l-4,15.1l-71.6-19l4-15.1l28.1,7.5l7.5-28.4l-28.1-7.5
					l4-15.1L135.7,251.7z M158.8,179c3.5,3.1,6.2,6.4,8,9.8c1.9,3.4,3,6.8,3.3,10.3c0.3,3.4-0.2,6.8-1.5,10.2
					c-1.3,3.4-3.4,6.6-6.3,9.8c-2.6,2.9-5.5,5.3-8.7,6.9c-3.2,1.6-6.5,2.5-10,2.6c-3.5,0.1-7.1-0.6-10.8-2
					c-3.6-1.5-7.2-3.8-10.7-6.9c-4.7-4.2-7.9-8.5-9.6-13.1c-1.8-4.6-2.1-9.1-1.1-13.8c1.1-4.6,3.5-9,7.3-13.3c3.6-4,7.5-6.7,12-8.2
					c4.4-1.5,9-1.7,13.9-0.6C149.4,172.1,154.1,174.8,158.8,179L158.8,179z M132.8,208.1c2.8,2.5,5.4,4.3,7.8,5.4
					c2.4,1,4.7,1.4,6.8,0.9c2.1-0.5,4-1.7,5.9-3.8c1.8-2.1,2.9-4.1,3-6.2c0.2-2.2-0.4-4.4-1.8-6.6c-1.4-2.3-3.4-4.7-6.2-7.2
					s-5.4-4.3-7.8-5.3c-2.4-1.1-4.6-1.4-6.7-1c-2.1,0.5-4,1.7-5.9,3.8c-2.7,3-3.6,6.2-2.8,9.5C126.1,200.9,128.6,204.4,132.8,208.1
					L132.8,208.1z M205.4,184.3l-13.4,7.8L152.4,124l13.4-7.8L205.4,184.3z M234.8,172.8l-14.7,4.9l-24.8-74.8L210,98L234.8,172.8z
					 M301.9,138.9c0,4.7-0.6,8.9-1.9,12.6c-1.2,3.7-3,6.8-5.4,9.4c-2.3,2.5-5.2,4.4-8.6,5.8c-3.4,1.3-7.2,1.9-11.5,1.9
					c-3.9,0-7.6-0.6-11-1.8c-3.3-1.3-6.2-3.2-8.6-5.7c-2.4-2.5-4.4-5.6-5.8-9.3c-1.3-3.7-2-7.8-2-12.5c0-6.3,1-11.6,3.2-15.9
					c2.2-4.4,5.3-7.7,9.5-10c4.1-2.3,9-3.5,14.7-3.5c5.3,0,10,1.1,14.1,3.3c4.1,2.3,7.3,5.6,9.7,9.9
					C300.6,127.3,301.8,132.6,301.9,138.9L301.9,138.9z M262.8,139.1c0,3.7,0.4,6.9,1.2,9.4c0.8,2.5,2.1,4.4,3.9,5.7
					c1.7,1.2,4,1.8,6.8,1.8c2.8,0,5-0.7,6.6-1.9c1.7-1.3,3-3.2,3.7-5.7c0.8-2.6,1.2-5.7,1.2-9.4c0-3.7-0.5-6.8-1.3-9.3
					c-0.8-2.5-2-4.3-3.8-5.6c-1.7-1.2-4-1.8-6.8-1.8c-4.1,0-7,1.5-8.9,4.3C263.6,129.3,262.7,133.5,262.8,139.1z"/>
			</g>
		</g>
	</g>
</g>
</svg>
