<svg xmlns="http://www.w3.org/2000/svg" version="1.2" viewBox="0 0 1000 1000"><path fill="#fa5252" d="M245 246.6c-9.9-8.3-20.3-16-31.2-23 25.3-37.5 68.2-62.2 116.7-62.2 77.6 0 140.7 63.1 140.7 140.7v143.1c-6.2-8.8-16.3-14.5-27.8-14.5-3.8 0-7.4.8-10.8 2V302.1c0-56.3-45.8-102.1-102.1-102.1-35.8 0-67.3 18.6-85.5 46.6zM556.3 430.8c-11.5 0-21.6 5.7-27.8 14.4V302.1c0-77.6 63.1-140.7 140.7-140.7 48.5 0 91.4 24.7 116.7 62.2-10.9 7-21.3 14.7-31.2 23-18.2-28-49.7-46.6-85.5-46.6-56.3 0-102.1 45.8-102.1 102.1v130.6c-3.4-1.2-7-2-10.8-2zM421 635.4c161.9-38.9 324.7 50.2 381.7 202.2l-.1.1-518.7-2.3-91-.6c13.2-34 32.1-65.9 55.9-93.8C292 690.2 351.3 652.2 421 635.4zm22.4-52.3c-18.9 0-34.2-15.3-34.2-34.2 0-19 15.3-34.3 34.2-34.3 19 0 34.3 15.3 34.3 34.3 0 18.9-15.3 34.2-34.3 34.2zm112.9 0c-18.9 0-34.2-15.3-34.2-34.2 0-19 15.3-34.3 34.2-34.3 18.9 0 34.3 15.3 34.3 34.3 0 18.9-15.4 34.2-34.3 34.2zm317.4-147.7H1000c-12.9 99.2-83.6 180.2-177.3 208.1l-18.1 73.8c-25.1-17.3-47.3-38.9-65.3-63.7-32.8-45-52.1-100.4-52.1-160.3 0-77.3 32.1-147 83.8-196.6 10.7-10.3 22.3-19.8 34.7-28.2 35-24.1 75.9-40.2 120.1-45.7l.1.1-52.2 212.6zM260.4 653.7c-18 24.7-40.1 46.3-65.3 63.6L177 643.5C83.3 615.7 12.6 534.7-.3 435.5H126L73.8 222.9c0-.1.1-.1.1-.1 44.2 5.5 85.1 21.6 120.1 45.7 12.3 8.4 24 17.8 34.7 28.2 51.7 49.6 83.8 119.3 83.8 196.6 0 59.9-19.3 115.3-52.1 160.3z"/></svg>