<?xml version="1.0" encoding="utf-8"?>
<!-- Generator: Adobe Illustrator 27.7.0, SVG Export Plug-In . SVG Version: 6.00 Build 0)  -->
<svg version="1.1" id="Layer_1" xmlns="http://www.w3.org/2000/svg" xmlns:xlink="http://www.w3.org/1999/xlink" x="0px" y="0px"
	 viewBox="0 0 6900 6900" style="enable-background:new 0 0 6900 6900;" xml:space="preserve">
<style type="text/css">
	
		.st0{fill-rule:evenodd;clip-rule:evenodd;fill:#808080;stroke:#000000;stroke-width:156.3197;stroke-linecap:round;stroke-linejoin:round;stroke-miterlimit:4.1099;}
	
		.st1{fill-rule:evenodd;clip-rule:evenodd;fill:#DADADA;stroke:#000000;stroke-width:156.3273;stroke-linecap:round;stroke-linejoin:round;stroke-miterlimit:4.1099;}
	
		.st2{fill-rule:evenodd;clip-rule:evenodd;fill:#808080;stroke:#000000;stroke-width:156.3273;stroke-linecap:round;stroke-linejoin:round;stroke-miterlimit:4.1099;}
	.st3{fill:none;stroke:#000000;stroke-width:116.2496;stroke-linecap:round;stroke-linejoin:round;stroke-miterlimit:4.1099;}
	.st4{fill-rule:evenodd;clip-rule:evenodd;fill:#567F67;}
	.st5{fill-rule:evenodd;clip-rule:evenodd;}
	.st6{fill:none;stroke:#000000;stroke-width:156.3425;stroke-linecap:round;stroke-miterlimit:4.1099;}
	.st7{fill:none;stroke:#000000;stroke-width:156.3349;stroke-linecap:round;stroke-miterlimit:4.1099;}
</style>
<g>
	<path class="st0" d="M6369.2,1774.1c185.8,189.3,317.9,408.9,428.2,640.1c35.6,74.9,27.4,163.2-21.4,230.3
		c-48.8,67.1-130.3,102-212.5,91.1c0,0,0,0,0,0"/>
	<path class="st1" d="M3409.1,203.5c-96.9,4.7-193,30.9-281,78.5C2548.6,595.7,1312.5,1264.7,710,1590.9
		c-104.5,56.5-189.6,139-249,237.1l3001.4,1607.4c0,0-188.6,315.4-356.4,596c-143.3,239.7-449,325.5-696.1,195.6L365.5,3151.9
		v1677.9c0,171.4,97.5,329.7,255.8,415.4c579.1,313.4,1984.9,1074.4,2564,1387.8c158.3,85.7,353.3,85.7,511.6,0
		c579.1-313.4,1984.9-1074.4,2564-1387.8c158.3-85.7,255.8-244,255.8-415.4V2169c0-241.3-132.2-463.3-344.5-578.1
		C5569.7,1264.7,4333.6,595.7,3754.1,282C3646.7,223.9,3527.3,197.7,3409.1,203.5"/>
	<path class="st2" d="M3462.4,3435.3V216.9c-96.9,4.7-246.2,17.5-334.2,65.1C2548.6,595.7,1312.5,1264.7,710,1590.9
		c-104.5,56.5-189.6,139-249,237.1L3462.4,3435.3L3462.4,3435.3z"/>
	<path class="st1" d="M423.6,1899.1l-283.1,542c-134.2,257-35.2,574.1,221.4,709l3.6,1.9 M365.5,3151.9l2044.3,1074.9
		c247.2,130,552.8,44.1,696.1-195.5c167.8-280.6,356.4-596,356.4-596L461,1827.9l-1.6,2.6l-35.8,68.5"/>
	<path class="st3" d="M3441.1,229.1v3142.7"/>
	<path class="st4" d="M6097.5,2941.7c0-31.5-16.8-60.7-44.1-76.5c-27.3-15.8-61-15.8-88.3,0L4117.3,3932.1
		c-27.3,15.8-44.1,44.9-44.1,76.5v1171.3c0,31.5,16.8,60.7,44.1,76.5c27.3,15.8,61,15.8,88.3,0l1847.8-1066.8
		c27.3-15.8,44.1-44.9,44.1-76.5V2941.7L6097.5,2941.7z"/>
	<path class="st5" d="M6097.5,2941.7c0-31.5-16.8-60.7-44.1-76.5c-27.3-15.8-61-15.8-88.3,0L4117.3,3932.1
		c-27.3,15.8-44.1,44.9-44.1,76.5v1171.3c0,31.5,16.8,60.7,44.1,76.5c27.3,15.8,61,15.8,88.3,0l1847.8-1066.8
		c27.3-15.8,44.1-44.9,44.1-76.5V2941.7L6097.5,2941.7z M4213.7,4038.8v1050.5l1743.2-1006.4V3032.3L4213.7,4038.8z"/>
	<path class="st6" d="M3441.1,6682.2V3442"/>
	<path class="st7" d="M3462.3,3450l2900.1-1657.2"/>
</g>
</svg>
