<?xml version="1.0" encoding="UTF-8"?><svg enable-background="new 0 0 50 50" version="1.1" viewBox="0 0 50 50" xml:space="preserve" xmlns="http://www.w3.org/2000/svg"><style type="text/css">.st0{fill:#FEB400;}</style><path class="st0" d="m40.5 0h-31c-5.1 0-9.2 4.2-9.2 9.3v31.3c0 5.1 4.2 9.3 9.2 9.3h31c5.1 0 9.2-4.2 9.2-9.3v-31.3c0-5.1-4.1-9.3-9.2-9.3zm1.2 24.1c-0.1 0.6-0.5 0.9-1.1 1.1-0.6 0.1-1.1-0.1-1.3-0.6-0.5-1.4-1.6-2.2-2.6-3.1-0.9-0.8-1.3-1.8-1.2-3 0.1-0.8 0-1.5 0-2.3v-3.1c0-0.9-0.6-1.1-1.3-1.1-0.8 0-1.6-0.1-1.7 1v2.8c0 0.3 0.1 0.7-0.1 0.9-0.3 0.2-0.5-0.3-0.7-0.5-2-1.9-4.1-3.8-6.1-5.8-0.6-0.6-1.1-0.6-1.7 0-4.4 4.5-8.8 8.9-13.3 13.4-0.6 0.6-0.7 1 0 1.6l0.4 0.4c0.9 0.9 1 0.8 1.9 0 2.9-2.7 5.6-5.6 8.4-8.3 0.6-0.6 1.2-1.1 1.8-1.7 1.1-1.1 2.4-1.1 3.5 0l3.6 3.6c2.2 2.2 4.4 4.4 6.7 6.6 1.5 1.5 1.4 2.7 0 4.2-2.3 2.3-3.1 2.3-5.4 0-2-2-4-3.9-6-5.9-0.6-0.6-1.1-0.6-1.7 0-2.1 2.2-4.2 4.3-6.4 6.4-0.6 0.6-0.6 1 0 1.5l0.6 0.6c0.5 0.6 1 0.6 1.5 0 1.1-1.1 2.3-2.2 3.4-3.3s2.5-1.2 3.6-0.1c1.3 1.2 2.5 2.4 3.8 3.7 1 1 1 2.5 0 3.5-0.8 0.9-1.7 1.8-2.6 2.7-0.5 0.5-1.1 1-1.4 1.8-0.2 0.5-0.7 0.8-1.3 0.8-0.6-0.1-1-0.4-1.1-1-0.1-0.7 0-1.2 0.7-1.6 1.8-0.9 2.8-2.6 4.3-3.9 0.4-0.3 0.4-0.7 0-1.1-1.1-1.2-2.3-2.3-3.4-3.5-0.5-0.5-0.9-0.3-1.3 0.1-1.1 1.1-2.3 2.2-3.4 3.3s-2.4 1.2-3.6 0.2l-0.9-0.9c-1.5-1.5-1.5-2.8 0-4.3 2.2-2.2 4.3-4.4 6.5-6.5 1.4-1.4 2.7-1.4 4.1 0 2.2 2.1 4.4 4.3 6.6 6.4 0.9 0.9 1 0.9 2.1-0.2 0.9-0.9 0.9-1.1 0-2-3.2-3.2-6.5-6.4-9.7-9.6-0.5-0.6-1-0.6-1.5 0-1.5 1.5-3 2.9-4.5 4.4-2 1.9-3.9 3.9-5.9 5.8-1.1 1.1-2.5 1.1-3.6 0.1-2.4-2.1-2.9-3.3-0.2-5.9 4.3-4.1 8.4-8.4 12.5-12.6 1.5-1.5 2.8-1.5 4.3 0 1 1 2.1 2 3.1 3 0.4 0.4 0.7 0.7 0.9-0.2s0.9-1.4 1.8-1.6c0.4-0.1 0.8-0.1 1.1-0.1 2.6-0.1 3.6 0.8 3.6 3.5v4.8c0 0.7 0.2 1.2 0.7 1.6 1 0.9 1.8 2.1 3.1 2.6 0.4 0.3 0.6 0.8 0.4 1.4z"/></svg>