<svg xmlns="http://www.w3.org/2000/svg" viewBox="0 0 1000 1278.9"><g fill="#ffb64c"><path fill="#ffdf8e" d="M511.099 8.83c-7.319-6.142-15.81-8.865-24.077-8.815-19.253.123-37.463 15.31-37.463 37.513C449.559 453.089.003 470.168.003 866.67c0 242.026 231.589 399.216 241.453 405.788 28.945 19.307 66.334-8.065 56.792-41.457-58.74-205.64-52.048-419.151 106.417-563.997-28.371 104.618-3.346 189.158 82.34 226.345 63.612 27.62 146.827 23.029 215.682 12.686 77.122 68.054 21.927 225.847-24.427 318.501-17.109 34.242 22.55 69.106 54.296 47.926 167.879-111.912 257.612-252.394 266.7-417.583 18.33-333.134-308.533-695.353-488.17-846.058z"/><path d="M999.27 854.888c-9.093 165.181-98.823 305.663-266.702 417.583-31.742 21.18-71.404-13.684-54.296-47.926 46.354-92.654 101.545-250.446 24.427-318.5-68.854 10.338-152.07 14.934-215.68-12.686V.023c8.267-.05 16.757 2.673 24.076 8.816 179.64 150.696 506.528 512.923 488.17 846.058zm-618.248 317.59v-134.15h-70.068v-40.491H432.78v174.64zm23.59-202.105q-15.141 0-25.001-8.449-9.505-8.449-9.505-22.888 0-14.435 9.505-23.239 9.86-9.154 25-9.154t24.646 9.154q9.86 8.804 9.86 23.24t-9.86 22.887q-9.505 8.45-24.646 8.45z"/><path fill="#ffdf8e" d="M600.003 1176.719q-17.253 0-33.45-5.987-15.845-6.336-28.519-17.958-12.323-11.621-19.716-28.52-7.393-17.252-7.393-39.084 0-21.828 7.393-38.73 7.393-17.253 19.716-28.87 12.674-11.622 28.52-17.604 16.196-6.337 33.45-6.337t33.098 6.337q16.197 5.986 28.52 17.603 12.673 11.622 20.07 28.87 7.393 16.903 7.393 38.73t-7.393 39.086q-7.393 16.902-20.07 28.52-12.323 11.62-28.52 17.957-15.846 5.987-33.099 5.987zm0-41.9q17.959 0 26.758-13.378 9.155-13.38 9.155-36.267t-9.155-36.268q-8.804-13.379-26.758-13.379-17.958 0-27.113 13.38-8.803 13.378-8.803 36.267t8.803 36.267q9.155 13.379 27.113 13.379z"/></g></svg>