<?xml version="1.0" encoding="utf-8"?>
<!-- Generator: Adobe Illustrator 27.7.0, SVG Export Plug-In . SVG Version: 6.00 Build 0)  -->
<svg version="1.1"
	 id="svg2" xmlns:inkscape="http://www.inkscape.org/namespaces/inkscape" xmlns:sodipodi="http://sodipodi.sourceforge.net/DTD/sodipodi-0.dtd" xmlns:rdf="http://www.w3.org/1999/02/22-rdf-syntax-ns#" xmlns:cc="http://creativecommons.org/ns#" xmlns:dc="http://purl.org/dc/elements/1.1/" xmlns:svg="http://www.w3.org/2000/svg" inkscape:version="0.92.4 (5da689c313, 2019-01-14)" sodipodi:docname="hubzilla.svg"
	 xmlns="http://www.w3.org/2000/svg" xmlns:xlink="http://www.w3.org/1999/xlink" x="0px" y="0px" viewBox="0 0 512 512"
	 style="enable-background:new 0 0 512 512;" xml:space="preserve">
<style type="text/css">
	.st0{fill:#43488A;}
</style>
<sodipodi:namedview  bordercolor="#666666" borderopacity="1" fit-margin-bottom="0" fit-margin-left="0" fit-margin-right="0" fit-margin-top="-0.1" gridtolerance="10" guidetolerance="10" id="namedview4" inkscape:current-layer="svg2" inkscape:cx="-52.623812" inkscape:cy="300.45057" inkscape:pageopacity="0" inkscape:pageshadow="2" inkscape:window-height="949" inkscape:window-maximized="1" inkscape:window-width="1680" inkscape:window-x="0" inkscape:window-y="0" inkscape:zoom="0.58202081" objecttolerance="10" pagecolor="#ffffff" showgrid="false">
	</sodipodi:namedview>
<path id="path841" inkscape:connector-curvature="0" class="st0" d="M256.6,37.3L0,189.5l63.8,0.1v285.1h384.5V190.3l63.7,0.1
	L256.6,37.3z M320.6,157.2c44.1,0,79.8,35.7,79.8,79.8c0,44.1-35.7,79.8-79.8,79.8c-2,0-4-0.1-6-0.3l-11.4,42.1
	c16.2,6.4,27.1,22.1,27.1,39.8c0,23.6-19.1,42.7-42.7,42.7c-23.6,0-42.7-19.1-42.7-42.7c0-5.5,1.1-11,3.2-16.1l-0.4,0.6l-40.8-26.5
	c-10.6,11.1-25.6,18.1-42.1,18.1c-32.2,0-58.2-26.1-58.2-58.2c0-32.2,26.1-58.2,58.2-58.2c18,0,34.6,8.3,45.5,22l34.8-17.5
	c-2.8-8.2-4.2-16.8-4.3-25.5C240.7,192.9,276.5,157.2,320.6,157.2z M254.8,282.2L220,298c2,5.9,3,12,3,18.2c0,7.7-1.5,15.1-4.2,21.8
	l41.3,27.7c6.6-5.6,14.9-9.1,23.6-9.9l10.2-43.7C277.9,306.5,264.3,296,254.8,282.2z"/>
</svg>
