<?xml version="1.0" encoding="utf-8"?>
<!-- Generator: Adobe Illustrator 27.7.0, SVG Export Plug-In . SVG Version: 6.00 Build 0)  -->
<svg version="1.1" id="Layer_1" xmlns="http://www.w3.org/2000/svg" xmlns:xlink="http://www.w3.org/1999/xlink" x="0px" y="0px"
	 viewBox="0 0 512 512" style="enable-background:new 0 0 512 512;" xml:space="preserve">
<style type="text/css">
	.st0{fill:#FFB74D;}
	.st1{fill:#212121;}
	.st2{fill:#FAFAFA;}
	.st3{fill:#FFC107;}
	.st4{fill:#BDBDBD;}
	.st5{fill:#424242;}
	.st6{fill:#616161;}
	.st7{fill:#B71C1C;}
	.st8{fill:#898989;}
	.st9{fill:#4C4C4C;}
	.st10{fill:#B5B5B5;}
	.st11{fill:#303030;}
</style>
<circle class="st0" cx="256" cy="256" r="256"/>
<g id="raven">
	<path class="st1" d="M185.4,114c-48.7,0.6-102.8,18.7-110.6,21.7c11.6-0.8,22.2,1,24.8,5.4c-6.7,3.4-57.4,31.8-74.4,44.6
		c10.6-1,16.1,2.4,16.1,2.4c-14,9.3-26.8,18.8-38.4,28.5c-2,12.8-3,26-3,39.4c0,123.4,87.3,226.4,203.5,250.6
		c32.2-75.6,32.8-173.3,100.3-214.3c24.9-13.2,101.3-53.1,182.6-43c0,0,0.2-15.6-22.2-36.3c-22.4-20.7-61.2-31-84.8-35.9
		c-23.6-4.8-68.3-3.5-72.2-10.7c-4-7.2-5.7-17-17.1-25.9c-11.4-8.9-50.2-25.9-100-26.5C188.6,114,187,114,185.4,114L185.4,114z"/>
	<path class="st2" d="M250.4,174.8c-3.6,0-6.4,2.9-6.4,6.4c0,3.6,2.9,6.4,6.4,6.4c3.6,0,6.5-2.9,6.5-6.4
		C256.9,177.6,254,174.8,250.4,174.8z"/>
	<path class="st3" d="M240,173.1c-7.2,2-12.7,8.4-12.7,16.3c0,9.5,7.7,17.2,17.2,17.2s17.2-7.7,17.2-17.2c0-7.2-4.4-13.3-10.7-15.9
		c0.8,0.5,1.6,0.8,2.2,1.5c1,1,1.8,2.2,2.4,3.6c0.6,1.4,0.9,2.9,0.9,4.5c0,1.6-0.3,3-0.9,4.4c-0.6,1.4-1.4,2.6-2.4,3.6
		s-2.2,1.9-3.6,2.4c-1.4,0.6-2.9,0.9-4.5,0.9c-1.6,0-3-0.3-4.4-0.9c-1.4-0.6-2.6-1.4-3.6-2.4s-1.9-2.2-2.4-3.6
		c-0.6-1.4-0.8-2.8-0.8-4.4c0-1.6,0.3-3.1,0.8-4.5c0.6-1.4,1.4-2.6,2.4-3.6C238,174.1,239,173.6,240,173.1L240,173.1z"/>
	<path class="st4" d="M293,154.6c7.7,10.6,5.3,18.6,13.7,21.9c8.2,3,49.5,1.8,91.6,13.4c42.1,11.6,62.5,29.8,73.1,44.2
		c-39.4-4.7-121.8,1.6-163.6,14.9c-29.5,9.3-46.2,17.9-47.7,11.3c-5.1-22,21.4-64.4,10.1-82C283.6,184,292.8,169.5,293,154.6
		L293,154.6z"/>
	<path class="st4" d="M252.8,244.7c0,0-6.7,14.4-1.8,22.3c5,7.9,11.7,7.9,46-3.8c34.3-11.7,94.6-23.7,155.6-23.1
		c-92.9,9.4-150.6,28.4-175.8,37.8c-25.2,9.4-33.7,3.2-37.2-6.4C236.1,261.7,241.1,251.1,252.8,244.7L252.8,244.7z"/>
	<path class="st5" d="M184.5,124.8c-20.3,0.1-43.7,2-70.2,6.2c23.7,4.1,27.8,12,27.8,12s-46.6,8.8-87,34.9c13.8-0.6,19,5.6,19,5.6
		c-27,17.6-52.1,35.8-73.6,56C0.2,244.9,0,250.4,0,256c0,65.1,24.3,124.6,64.4,169.8c2.9-1.9,4.8-3,4.8-3c-0.6,2.2-1.1,4.4-1.6,6.6
		c12.7,13.8,26.8,26.1,42.2,36.9c6.7-5.4,11.5-8.4,11.5-8.4s1.3,6.2,1.8,17.1c8.7,5.3,17.6,10,26.9,14.3c2-7.1,2.1-11.2,2.1-11.2
		s2.6,5.1,5,14.3c5.4,2.3,10.9,4.3,16.5,6.2c2.4-34.4-11.4-60.6-2.7-113.4c0,0-18,39.6-33.8,48.7c-8.6-42.2,0.3-138.7,109.1-213.8
		c-39.5,7.7-72.8-29.4-122.4-13.7c48.7-28,71.7-40.1,105.9-42.4c34.2-2.3,40.9,8.6,48.7,4.9c7.4-3.5,8.5-13.6,5.2-19.7
		C278.5,139.3,245.4,124.5,184.5,124.8L184.5,124.8z"/>
	<path class="st6" d="M228.2,141.1c-41.6-0.5-100.4,9-142.7,34.8c17.3-0.3,20.8,6.1,20.8,6.1s-60.9,41.3-89.8,72.5
		c19.9-9.1,37.8-6.2,37.8-6.2c-21.8,17-38.3,33.4-50.9,49.6c3.5,21.4,9.7,41.9,18.1,61.1c12.1-8,19.9-10.4,19.9-10.4
		c-5,9.1-8.9,18-12,26.7c8,15.1,17.4,29.3,28.1,42.4C77.5,403.3,96,396.5,96,396.5c-4.6,14.2-8.8,32.5-10.2,50.6
		c5,4.5,10.3,8.8,15.6,12.9c4.6-3.8,10.2-7.8,17.7-13c-19.6-94.3,58.1-195.9,106.2-220.6c-28.8,2.6-83.8-45.8-141.4,15
		c27.4-40.6,71.5-71.1,122.4-83c47.9-11.2,66.4,10.3,71.8-1C282.4,147.9,260.6,141.5,228.2,141.1L228.2,141.1z"/>
	<path class="st7" d="M246.4,219.9C137.5,295,128.7,391.5,137.2,433.7c15.9-9.1,33.8-48.7,33.8-48.7
		C178.2,337.2,179.8,282.9,246.4,219.9L246.4,219.9z"/>
</g>
<g id="headset">
	<path class="st8" d="M141.8,163.9c-34.3,0-62.2,27.8-62.2,62.2s27.8,62.2,62.2,62.2s62.2-27.8,62.2-62.2S176.2,163.9,141.8,163.9z"
		/>
	<path class="st9" d="M131.6,243.8c0,0,61.5,62.9,219.8,57.3c6.7-12.4,2-10.7,2-10.7s-130,2.9-194.7-77.5
		C126.9,216,131.6,243.8,131.6,243.8L131.6,243.8z"/>
	<path class="st10" d="M353.8,282.4c-7.6,0-13.8,6.2-13.8,13.8c0,7.6,6.2,13.8,13.8,13.8c7.6,0,13.8-6.2,13.8-13.8
		C367.7,288.6,361.5,282.4,353.8,282.4z"/>
	<path class="st11" d="M95.2,108.3c-14.1,0-25.5,11.4-25.5,25.5c0,4.1,1,8,2.8,11.5l0.3,0.5c0,0,0,0.1,0.1,0.2l46.4,91.7l45.5-23
		l-46.7-92.3h-0.1C113.7,114,105.1,108.3,95.2,108.3L95.2,108.3z"/>
	<path class="st11" d="M141.8,192.1c-18.8,0-34,15.2-34,34c0,18.8,15.2,34,34,34c18.8,0,34-15.2,34-34
		C175.9,207.3,160.6,192.1,141.8,192.1z"/>
</g>
</svg>
