<svg xmlns="http://www.w3.org/2000/svg" xmlns:xlink="http://www.w3.org/1999/xlink" id="Layer_1" version="1.1" viewBox="0 0 370 391" xml:space="preserve"><style type="text/css">.st0,.st1{fill-rule:evenodd;clip-rule:evenodd}.st0{fill:#ff4088;stroke:#c9177e;stroke-width:27}.st1{fill:#fff}</style><path d="M207.5,22.4L321.9,89c13.5,7.9,21.9,22.4,21.9,38v136.4c0,17.3-9.3,33.3-24.5,41.8l-113.5,63.9	c-15.1,8.5-33.5,8.4-48.5-0.2L52.8,308.8c-16.4-9.5-26.6-27-26.6-45.9V133.4c0-19.1,9.9-36.8,26.1-46.8l102.8-63.5	C171.1,13.2,191.3,13,207.5,22.4z" class="st0"/><polygon points="105.6 298.2 105.6 91 149 91 149 166.5 220.9 166.5 220.9 91 264.4 91 264.4 298.2 220.9 298.2 220.9 207.6 149 207.6 149 298.2" class="st1"/></svg>