<svg xmlns="http://www.w3.org/2000/svg" xmlns:xlink="http://www.w3.org/1999/xlink" version="1.1" id="hugo-h-only" x="0px" y="0px" style="enable-background:new 0 0 512 512;" xml:space="preserve" viewBox="28.88 -0.02 445.46 508.99">
<style type="text/css">
	.st0{fill-rule:evenodd;clip-rule:evenodd;fill:#FF4088;}
	.st1{fill-rule:evenodd;clip-rule:evenodd;fill:#C9177E;}
	.st2{fill:#FFFFFF;}
</style>
<g>
	<g transform="matrix(1.36352,0,0,1.43298,-313.768,-237.035)">
		<path class="st0" d="M571.9,394.5c0,0,0-73.7,0-112.8c0-14.7-8.2-28.2-21.5-35.7c-28.5-16-78.9-44.1-109.8-61.4    c-16.3-9.1-36.6-8.9-52.6,0.5c-27.3,16-69.9,41-97.5,57.2c-16.6,9.7-26.7,27-26.7,45.5c0,32.2,0,83.3,0,115.5    c0,18.4,10.3,35.4,27,44.7c29,16.2,74.7,41.5,101.6,56.5c13.5,7.5,30.2,7.7,43.8,0.4c29.7-15.7,82.2-43.6,112.5-59.6    c14.4-7.6,23.3-22,23.3-37.6C571.9,400.4,571.9,394.5,571.9,394.5z"/>
		<path class="st1" d="M414.9,165.4h0.2h0l0.2,0h0l0.2,0h0l0.2,0l0,0l0.2,0l0,0l0.2,0l0,0l0.2,0h0l0.2,0l0,0l0.2,0l0,0l0.2,0l0,0    l0.2,0l0,0l0.2,0l0,0l0.2,0l0,0l0.2,0l0,0l0.2,0l0,0l0.2,0l0,0l0.2,0l0,0l0.2,0l0,0l0.2,0l0,0l0.2,0l0,0l0.2,0l0,0l0.2,0l0,0    l0.2,0l0,0l0.2,0l0,0l0.2,0l0,0l0.2,0l0,0l0.2,0l0,0l0.2,0l0,0l0.2,0l0,0l0.2,0l0,0l0.2,0l0,0l0.2,0l0,0l0.2,0l0,0l0.2,0l0,0    l0.2,0l0,0l0.2,0l0,0l0.2,0l0,0l0.2,0l0,0l0.2,0l0,0l0.2,0l0,0l0.2,0l0,0l0.2,0l0,0l0.2,0l0,0l0.2,0l0,0l0.2,0l0,0l0.2,0l0,0    l0.2,0l0,0l0.2,0l0,0l0.2,0l0,0l0.2,0l0,0l0.2,0l0,0l0.2,0.1l0,0l0.2,0.1l0,0l0.2,0.1l0,0l0.2,0.1l0,0l0.2,0.1l0,0l0.2,0.1l0,0    l0.2,0.1l0,0l0.2,0.1l0,0l0.2,0.1l0,0l0.2,0.1l0,0l0.2,0.1l0,0l0.2,0.1l0,0l0.2,0.1l0,0l0.2,0.1l0,0l0.2,0.1l0,0l0.2,0.1l0,0    l0.2,0.1l0,0l0.2,0.1l0,0l0.2,0.1l0,0l0.2,0.1l0,0l0.2,0.1l0,0l0.2,0.1l0,0l0.2,0.1l0,0l0.2,0.1l0,0l0.2,0.1l0,0l0.2,0.1l0,0    l0.2,0.1l0,0l0.2,0.1l0,0l0.2,0.1l0,0l0.2,0.1l0,0l0.2,0.1l0,0l0.2,0.1l0,0l0.2,0.1l0,0l0.2,0.1l0,0l0.2,0.1l0,0l0.2,0.1l0,0    l0.2,0.1l0,0l0.2,0.1l0,0l0.2,0.1l0,0l0.2,0.1l0,0l0.2,0.1l0,0l0.2,0.1l0,0l0.2,0.1l0,0l0.2,0.1l0,0l0.2,0.1l0,0l0.2,0.1l0,0    l0.2,0.1l0,0l0.2,0.1l0,0l0.2,0.1l0,0l0.2,0.1l0,0l0.2,0.1l0,0l0.2,0.1l0,0l0.2,0.1l0,0l0.2,0.1l0,0l0.2,0.1l0,0l0.2,0.1l0,0    l0.2,0.1l0,0l0.2,0.1l0,0l0.2,0.1l0,0l0.2,0.1l0,0l0.2,0.1l0,0l0.2,0.1l0,0l0.2,0.1l0,0l0.2,0.1l0,0l0.2,0.1l0,0l0.2,0.1l0,0    l0.2,0.1l0,0l0.2,0.1l0,0l0.2,0.1l0,0l0.2,0.1l0,0l0.2,0.1l0,0l0.2,0.1l0,0l0.2,0.1l0,0l0.2,0.1l0,0l109.8,61.4l0.2,0.1l0,0    l0.2,0.1l0,0l0.2,0.1l0,0l0.2,0.1l0,0l0.2,0.1l0,0l0.2,0.1l0,0l0.2,0.1l0,0l0.2,0.1l0,0l0.2,0.1l0,0l0.2,0.1l0,0l0.2,0.1l0,0    l0.2,0.1l0,0l0.2,0.1l0,0l0.2,0.1l0,0l0.2,0.1l0,0l0.2,0.1l0,0l0.2,0.1l0,0l0.2,0.1l0,0l0.2,0.1l0,0l0.2,0.1l0,0l0.2,0.1l0,0    l0.2,0.1l0,0l0.2,0.1l0,0l0.2,0.1l0,0l0.2,0.1l0,0l0.2,0.1l0,0l0.2,0.1l0,0l0.2,0.1l0,0l0.2,0.1l0,0l0.2,0.1l0,0l0.2,0.1l0,0    l0.2,0.1l0,0l0.2,0.1l0,0l0.2,0.1l0,0l0.3,0.2l0,0l0.3,0.2l0,0l0.3,0.2l0,0l0.3,0.2l0,0l0.3,0.3l0,0l0.3,0.3l0,0l0.3,0.3l0,0    l0.3,0.3l0,0l0.3,0.3l0,0l0.3,0.3l0,0l0.3,0.3l0,0l0.3,0.3l0,0l0.3,0.3l0,0l0.3,0.3l0,0l0.3,0.3l0,0l0.3,0.3l0,0l0.3,0.3l0,0    l0.3,0.3l0,0l0.3,0.3l0,0l0.3,0.3l0,0l0.3,0.3l0,0l0.3,0.3l0,0l0.3,0.3l0,0l0.3,0.3l0,0l0.3,0.3l0,0l0.3,0.3l0,0l0.3,0.3l0,0    l0.3,0.3l0,0l0.2,0.3l0,0l0.2,0.3l0,0l0.2,0.3l0,0l0.2,0.3l0,0l0.2,0.3l0,0l0.2,0.3l0,0l0.2,0.3l0,0l0.2,0.3l0,0l0.2,0.3l0,0    l0.2,0.3l0,0l0.2,0.3l0,0l0.2,0.3l0,0l0.2,0.3l0,0l0.2,0.3l0,0l0.2,0.3l0,0l0.2,0.3l0,0l0.2,0.3l0,0l0.2,0.3l0,0l0.2,0.3l0,0    l0.2,0.3l0,0l0.2,0.3l0,0l0.2,0.3l0,0l0.2,0.3l0,0l0.2,0.3l0,0l0.2,0.3l0,0l0.2,0.3l0,0l0.2,0.3l0,0l0.2,0.3l0,0l0.2,0.3l0,0    l0.2,0.3l0,0l0.2,0.3l0,0l0.2,0.4l0,0l0.2,0.4l0,0l0.2,0.4l0,0l0.2,0.4l0,0l0.2,0.4l0,0l0.1,0.4l0,0l0.1,0.4l0,0l0.1,0.4l0,0    l0.1,0.4l0,0l0.1,0.4l0,0l0.1,0.4l0,0l0.1,0.4l0,0l0.1,0.4l0,0l0.1,0.4l0,0l0.1,0.4l0,0l0.1,0.4l0,0l0.1,0.4l0,0l0.1,0.4l0,0    l0.1,0.4l0,0l0.1,0.4l0,0l0.1,0.4l0,0l0.1,0.4l0,0l0.1,0.4l0,0l0.1,0.4l0,0l0.1,0.4l0,0l0.1,0.4l0,0.1l0.1,0.4l0,0l0.1,0.4l0,0.1    l0.1,0.4l0,0.1l0.1,0.4l0,0.1l0.1,0.4l0,0.1l0.1,0.4l0,0.1l0.1,0.4l0,0.1l0.1,0.4l0,0.1l0.1,0.4l0,0l0,0.2l0,0l0,0.2l0,0l0,0.2    l0,0l0,0.2l0,0l0,0.2l0,0l0,0.2l0,0l0,0.2l0,0l0,0.2l0,0l0,0.2l0,0l0,0.2l0,0l0,0.2l0,0l0,0.2l0,0l0,0.2l0,0l0,0.2l0,0l0,0.2l0,0    l0,0.2l0,0l0,0.2l0,0l0,0.2l0,0l0,0.2l0,0l0,0.2l0,0l0,0.2l0,0l0,0.2l0,0l0,0.2l0,0l0,0.2l0,0l0,0.2l0,0l0,0.2v0l0,0.2l0,0l0,0.2    v0l0,0.2v0l0,0.2l0,0l0,0.2v0l0,0.2v0l0,0.2v0v0.2v126.1v0v0.2v0l0,0.2v0l0,0.2v0l0,0.2v0l0,0.2l0,0l0,0.2v0l0,0.2v0l0,0.2v0    l0,0.2l0,0l0,0.2l0,0l0,0.2l0,0l0,0.2l0,0l0,0.2l0,0l0,0.2l0,0l0,0.2l0,0l0,0.2l0,0l0,0.2l0,0l0,0.2l0,0l0,0.2l0,0l0,0.2l0,0    l0,0.2l0,0l0,0.2l0,0l0,0.2l0,0l0,0.2l0,0l0,0.2l0,0l0,0.2l0,0l0,0.2l0,0l0,0.2l0,0l0,0.2l0,0l0,0.2l0,0l0,0.2l0,0l0,0.2l0,0    l0,0.2l0,0l0,0.2l0,0l0,0.2l0,0l0,0.2l0,0l0,0.2l0,0l0,0.2l0,0l0,0.2l0,0l0,0.2l0,0l0,0.2l0,0l0,0.2l0,0l0,0.2l0,0l0,0.2l0,0    l0,0.2l0,0l0,0.2l0,0l0,0.2l0,0l0,0.2l0,0l0,0.2l0,0l0,0.2l0,0l0,0.2l0,0l0,0.2l0,0l0,0.2l0,0l0,0.2l0,0l0,0.2l0,0l-0.1,0.2l0,0    l-0.1,0.2l0,0l-0.1,0.2l0,0l-0.1,0.2l0,0l-0.1,0.2l0,0l-0.1,0.2l0,0l-0.1,0.2l0,0l-0.1,0.2l0,0l-0.1,0.2l0,0l-0.1,0.2l0,0    l-0.1,0.2l0,0l-0.1,0.2l0,0l-0.1,0.2l0,0l-0.1,0.2l0,0l-0.1,0.2l0,0l-0.1,0.2l0,0l-0.1,0.2l0,0l-0.1,0.2l0,0l-0.1,0.2l0,0    l-0.1,0.2l0,0l-0.1,0.2l0,0l-0.1,0.2l0,0l-0.1,0.2l0,0l-0.1,0.2l0,0l-0.1,0.2l0,0l-0.1,0.2l0,0l-0.1,0.2l0,0l-0.1,0.2l0,0    l-0.1,0.2l0,0l-0.1,0.2l0,0l-0.1,0.2l0,0l-0.1,0.2l0,0l-0.1,0.2l0,0l-0.1,0.2l0,0l-0.1,0.2l0,0l-0.1,0.2l0,0l-0.1,0.2l0,0    l-0.1,0.2l0,0l-0.1,0.2l0,0l-0.1,0.2l0,0l-0.1,0.2l0,0l-0.1,0.2l0,0l-0.1,0.2l0,0l-0.1,0.2l0,0l-0.1,0.2l0,0l-0.1,0.2l0,0    l-0.1,0.2l0,0l-0.1,0.2l0,0l-0.1,0.2l0,0l-0.1,0.2l0,0l-0.1,0.2l0,0l-0.1,0.2l0,0l-0.1,0.2l0,0l-0.1,0.2l0,0l-0.1,0.2l0,0    l-0.1,0.2l0,0l-0.1,0.2l0,0l-0.1,0.2l0,0l-0.1,0.2l0,0l-0.1,0.2l0,0l-0.1,0.2l0,0l-0.1,0.2l0,0l-0.1,0.2l0,0L578,434l0,0l-0.1,0.2    l0,0l-0.1,0.2l0,0l-0.1,0.2l0,0l-0.1,0.2l0,0l-0.1,0.2l0,0l-0.1,0.2l0,0l-0.1,0.2l0,0l-0.1,0.2l0,0l-0.1,0.2l0,0l-0.1,0.2l0,0    l-0.1,0.2l0,0l-0.1,0.2l0,0l-0.1,0.2l0,0l-0.1,0.2l0,0l-0.1,0.2l0,0l-0.1,0.2l0,0l-0.1,0.2l0,0l-0.1,0.2l0,0l-0.1,0.2l0,0    l-0.1,0.2l0,0l-0.1,0.2l0,0l-0.1,0.2l0,0l-0.1,0.2l0,0l-0.1,0.2l0,0l-0.1,0.2l0,0l-0.1,0.2l0,0l-0.1,0.2l0,0l-0.1,0.2l0,0    l-0.1,0.2l0,0l-0.1,0.2l0,0l-0.1,0.2l0,0l-0.1,0.2l0,0l-0.1,0.2l0,0l-0.1,0.2l0,0l-0.1,0.2l0,0l-0.1,0.2l0,0l-0.1,0.2l0,0    l-0.1,0.2l0,0l-0.1,0.2l0,0l-0.1,0.2l0,0l-0.1,0.2l0,0l-0.1,0.2l0,0l-0.1,0.2l0,0l-0.1,0.2l0,0l-0.1,0.2l0,0l-0.1,0.2l0,0    l-0.1,0.2l0,0l-0.1,0.2l0,0l-0.1,0.2l0,0l-0.1,0.2l0,0l-0.1,0.2l0,0l-0.1,0.2l0,0l-0.1,0.2l0,0l-0.1,0.2l0,0l-0.1,0.2l0,0    l-0.1,0.2l0,0l-0.1,0.2l0,0l-0.1,0.2l0,0l-0.1,0.2l0,0l-0.1,0.2l0,0l-0.1,0.1l0,0l-0.1,0.1l0,0l-0.1,0.1l0,0l-0.1,0.1l0,0    l-0.1,0.1l0,0l-0.1,0.1l0,0l-0.1,0.1l0,0l-0.1,0.1l0,0l-0.2,0.1l0,0l-0.2,0.1l0,0l-0.2,0.1l0,0l-0.2,0.1l0,0l-0.2,0.1l0,0    l-0.2,0.1l0,0l-0.2,0.1l0,0l-0.2,0.1l0,0l-0.2,0.1l0,0l-0.2,0.1l0,0l-0.2,0.1l0,0l-0.2,0.1l0,0l-0.2,0.1l0,0l-0.2,0.1l0,0    l-0.2,0.1l0,0l-0.2,0.1l0,0l-0.2,0.1l0,0l-0.2,0.1l0,0l-0.2,0.1l0,0l-0.2,0.1l0,0l-0.2,0.1l0,0l-0.2,0.1l0,0l-0.2,0.1l0,0    l-0.2,0.1l0,0l-0.2,0.1l0,0l-0.2,0.1l0,0l-0.2,0.1l0,0l-0.2,0.1l0,0l-0.2,0.1l0,0l-0.2,0.1l0,0l-0.2,0.1l0,0l-0.2,0.1l0,0    l-0.2,0.1l0,0l-0.2,0.1l0,0l-0.2,0.1l0,0l-0.2,0.1l0,0l-0.2,0.1l0,0l-0.2,0.1l0,0l-0.2,0.1l0,0l-0.2,0.1l0,0l-0.2,0.1l0,0    l-0.2,0.1l0,0l-0.2,0.1l0,0l-0.2,0.1l0,0l-0.2,0.1l0,0l-0.2,0.1l0,0l-0.2,0.1l0,0l-0.2,0.1l0,0l-0.2,0.1l0,0l-0.2,0.1l0,0    l-0.2,0.1l0,0l-0.2,0.1l0,0l-0.2,0.1l0,0l-0.2,0.1l0,0l-0.2,0.1l0,0l-0.2,0.1l0,0l-0.2,0.1l0,0l-0.2,0.1l0,0l-0.2,0.1l0,0    l-0.2,0.1l0,0l-0.2,0.1l0,0l-0.2,0.1l0,0l-0.2,0.1l0,0l-0.2,0.1l0,0l-0.2,0.1l0,0l-0.2,0.1l0,0l-0.2,0.1l0,0l-0.2,0.1l0,0    l-0.2,0.1l0,0l-112.5,59.6l0,0l-0.2,0.1l0,0l-0.2,0.1l0,0l-0.2,0.1l0,0l-0.2,0.1l0,0l-0.2,0.1l0,0l-0.2,0.1l0,0l-0.2,0.1l0,0    l-0.2,0.1l0,0l-0.2,0.1l0,0l-0.2,0.1l0,0l-0.2,0.1l0,0l-0.2,0.1l0,0l-0.2,0.1l0,0l-0.2,0.1l0,0l-0.2,0.1l0,0l-0.2,0.1l0,0    l-0.2,0.1l0,0l-0.2,0.1l0,0l-0.2,0.1l0,0l-0.2,0.1l0,0l-0.2,0.1l0,0l-0.2,0.1l0,0l-0.2,0.1l0,0l-0.2,0.1l0,0l-0.2,0.1l0,0    l-0.2,0.1l0,0l-0.2,0.1l0,0l-0.2,0.1l0,0l-0.2,0.1l0,0l-0.2,0.1l0,0l-0.2,0.1l0,0l-0.2,0.1l0,0l-0.2,0.1l0,0l-0.2,0.1l0,0    l-0.2,0.1l0,0l-0.2,0.1l0,0l-0.2,0.1l0,0l-0.2,0.1l0,0l-0.2,0.1l0,0l-0.2,0.1l0,0l-0.2,0.1l0,0l-0.2,0.1l0,0l-0.2,0.1l0,0    l-0.2,0.1l0,0l-0.2,0.1l0,0l-0.2,0.1l0,0l-0.2,0.1l0,0l-0.2,0.1l0,0l-0.2,0.1l0,0l-0.2,0.1l0,0l-0.2,0.1l0,0l-0.2,0.1l0,0    l-0.4,0.1l-0.1,0l-0.4,0.1l-0.1,0l-0.4,0.1l-0.1,0l-0.4,0.1l-0.1,0l-0.4,0.1l-0.1,0l-0.4,0.1l-0.1,0l-0.4,0.1l-0.1,0l-0.4,0.1    l-0.1,0l-0.4,0.1l-0.1,0l-0.4,0.1l-0.1,0l-0.4,0.1l-0.1,0l-0.4,0.1l-0.1,0l-0.4,0.1l-0.1,0l-0.4,0.1l-0.1,0l-0.4,0.1l-0.1,0    l-0.4,0.1l-0.1,0l-0.4,0.1l-0.1,0l-0.4,0.1l-0.1,0l-0.4,0.1l-0.1,0l-0.4,0.1l-0.1,0l-0.4,0.1l-0.1,0l-0.4,0l-0.1,0l-0.4,0l-0.1,0    l-0.4,0l-0.1,0l-0.4,0l-0.1,0l-0.4,0l-0.1,0l-0.4,0l-0.1,0l-0.4,0l-0.1,0l-0.4,0l-0.1,0l-0.4,0l-0.1,0l-0.4,0l-0.1,0l-0.4,0    l-0.1,0l-0.4,0l-0.1,0l-0.4,0l-0.1,0l-0.4,0h-0.1l-0.4,0H415l-0.4,0h-0.1l-0.4,0h-0.1l-0.4,0h-0.1l-0.4,0l-0.1,0l-0.4,0l-0.1,0    l-0.4,0l-0.1,0l-0.4,0l-0.1,0l-0.4,0l-0.1,0l-0.4,0l-0.1,0l-0.4,0l-0.1,0l-0.4,0l-0.1,0l-0.4,0l-0.1,0l-0.4,0l-0.1,0l-0.4,0    l-0.1,0l-0.4,0l-0.1,0l-0.4,0l-0.1,0l-0.4,0l-0.1,0l-0.4-0.1l-0.1,0l-0.4-0.1l-0.1,0l-0.4-0.1l-0.1,0l-0.4-0.1l-0.1,0l-0.4-0.1    l-0.1,0l-0.4-0.1l-0.1,0l-0.4-0.1l-0.1,0l-0.4-0.1l-0.1,0l-0.4-0.1l-0.1,0l-0.4-0.1l-0.1,0l-0.4-0.1l-0.1,0l-0.4-0.1l-0.1,0    l-0.4-0.1l-0.1,0l-0.4-0.1l-0.1,0l-0.4-0.1l-0.1,0l-0.4-0.1l-0.1,0l-0.4-0.1l-0.1,0l-0.4-0.1l-0.1,0l-0.4-0.1l-0.1,0l-0.4-0.1    l-0.1,0l-0.4-0.1l-0.1,0l-0.4-0.1l-0.1,0l-0.4-0.1l0,0l-0.2-0.1l0,0l-0.2-0.1l0,0l-0.2-0.1l0,0l-0.2-0.1l0,0l-0.2-0.1l0,0    l-0.2-0.1l0,0l-0.2-0.1l0,0l-0.2-0.1l0,0l-0.2-0.1l0,0l-0.2-0.1l0,0l-0.2-0.1l0,0l-0.2-0.1l0,0L394,519l0,0l-0.2-0.1l0,0l-0.2-0.1    l0,0l-0.2-0.1l0,0l-0.2-0.1l0,0l-0.2-0.1l0,0l-0.2-0.1l0,0l-0.2-0.1l0,0l-0.2-0.1l0,0l-0.2-0.1l0,0l-0.2-0.1l0,0l-0.2-0.1l0,0    l-0.2-0.1l0,0l-0.2-0.1l0,0l-0.2-0.1l0,0l-0.2-0.1l0,0l-0.2-0.1l0,0l-0.2-0.1l0,0l-0.2-0.1l0,0l-0.2-0.1l0,0l-0.2-0.1l0,0    l-0.2-0.1l0,0l-0.2-0.1l0,0l-0.2-0.1l0,0l-0.2-0.1l0,0l-0.2-0.1l0,0l-0.2-0.1l0,0l-0.2-0.1l0,0l-0.2-0.1l0,0l-0.2-0.1l0,0    l-0.2-0.1l0,0l-0.2-0.1l0,0l-0.2-0.1l0,0l-0.2-0.1l0,0l-0.2-0.1l0,0l-0.2-0.1l0,0l-0.2-0.1l0,0l-0.2-0.1l0,0l-0.2-0.1l0,0    l-0.2-0.1l0,0l-101.6-56.5l0,0l-0.2-0.1l0,0l-0.2-0.1l0,0l-0.2-0.1l0,0l-0.2-0.1l0,0l-0.2-0.1l0,0l-0.2-0.1l0,0l-0.2-0.1l0,0    l-0.2-0.1l0,0l-0.2-0.1l0,0l-0.2-0.1l0,0l-0.2-0.1l0,0l-0.2-0.1l0,0l-0.2-0.1l0,0l-0.2-0.1l0,0l-0.2-0.1l0,0l-0.2-0.1l0,0    l-0.2-0.1l0,0l-0.2-0.1l0,0l-0.2-0.1l0,0l-0.2-0.1l0,0l-0.2-0.1l0,0l-0.2-0.1l0,0l-0.2-0.1l0,0l-0.2-0.1l0,0l-0.2-0.1l0,0    l-0.2-0.1l0,0l-0.2-0.1l0,0l-0.2-0.1l0,0l-0.2-0.1l0,0l-0.2-0.1l0,0l-0.2-0.1l0,0l-0.2-0.1l0,0l-0.2-0.1l0,0l-0.2-0.1l0,0    l-0.2-0.1l0,0l-0.2-0.1l0,0l-0.2-0.1l0,0l-0.2-0.1l0,0l-0.2-0.1l0,0l-0.2-0.2l0,0l-0.2-0.2l0,0l-0.2-0.2l0,0l-0.2-0.2l0,0    l-0.2-0.2l0,0l-0.2-0.2l0,0l-0.2-0.2l0,0l-0.2-0.2l0,0l-0.2-0.2l0,0l-0.2-0.2l0,0L273,451l0,0l-0.2-0.2l0,0l-0.2-0.2l0,0l-0.2-0.2    l0,0l-0.2-0.2l0,0l-0.2-0.2l0,0l-0.2-0.2l0,0l-0.2-0.2l0,0l-0.2-0.2l0,0l-0.2-0.2l0,0l-0.2-0.2l0,0l-0.2-0.2l0,0l-0.2-0.2l0,0    l-0.2-0.2l0,0l-0.2-0.2l0,0l-0.2-0.2l0,0l-0.2-0.2l0,0l-0.2-0.2l0,0l-0.2-0.2l0,0l-0.2-0.2l0,0l-0.2-0.2l0,0l-0.2-0.2l0,0    l-0.2-0.2l0,0l-0.2-0.2l0,0l-0.2-0.2l0,0l-0.2-0.2l0,0l-0.2-0.2l0,0l-0.2-0.2l0,0l-0.2-0.2l0,0l-0.2-0.2l0,0l-0.2-0.2l0,0    l-0.2-0.2l0,0l-0.2-0.2l0,0l-0.2-0.2l0,0l-0.2-0.2l0,0l-0.2-0.2l0,0l-0.2-0.2l0,0L266,444l0,0l-0.2-0.2l0,0l-0.2-0.2l0,0l-0.2-0.2    l0,0l-0.2-0.2l0,0l-0.2-0.2l0,0l-0.2-0.2l0,0l-0.2-0.2l0,0l-0.1-0.2l0,0l-0.1-0.2l0,0l-0.1-0.2l0,0l-0.1-0.2l0,0l-0.1-0.2l0,0    l-0.1-0.2l0,0l-0.1-0.2l0,0l-0.1-0.2l0,0l-0.1-0.2l0,0l-0.1-0.2l0,0l-0.1-0.2l0,0l-0.1-0.2l0,0l-0.1-0.2l0,0l-0.1-0.2l0,0    l-0.1-0.2l0,0l-0.1-0.2l0,0l-0.1-0.2l0,0l-0.1-0.2l0,0l-0.1-0.2l0,0l-0.1-0.2l0,0l-0.1-0.2l0,0l-0.1-0.2l0,0l-0.1-0.2l0,0    l-0.1-0.2l0,0l-0.1-0.2l0,0l-0.1-0.2l0,0l-0.1-0.2l0,0l-0.1-0.2l0,0l-0.1-0.2l0,0l-0.1-0.2l0,0l-0.1-0.2l0,0l-0.1-0.2l0,0    l-0.1-0.2l0,0l-0.1-0.2l0,0l-0.1-0.2l0,0l-0.1-0.2l0,0l-0.1-0.2l0,0l-0.1-0.2l0,0l-0.1-0.2l0,0l-0.1-0.2l0,0l-0.1-0.2l0,0    l-0.1-0.2l0,0l-0.1-0.2l0,0l-0.1-0.2l0,0l-0.1-0.2l0,0l-0.1-0.2l0,0l-0.1-0.2l0,0l-0.1-0.2l0,0l-0.1-0.2l0,0l-0.1-0.2l0,0    l-0.1-0.2l0,0l-0.1-0.2l0,0l-0.1-0.2l0,0l-0.1-0.2l0,0l-0.1-0.2l0,0l-0.1-0.2l0,0l-0.1-0.2l0,0l-0.1-0.2l0,0l-0.1-0.2l0,0    l-0.1-0.2l0,0l-0.1-0.2l0,0l-0.1-0.2l0,0l-0.1-0.2l0,0l-0.1-0.2l0,0l-0.1-0.2l0,0l-0.1-0.2l0,0l-0.1-0.2l0,0l-0.1-0.2l0,0    l-0.1-0.2l0,0l-0.1-0.2l0,0l-0.1-0.2l0,0l-0.1-0.2l0,0l-0.1-0.2l0,0l-0.1-0.2l0,0l-0.1-0.2l0,0l-0.1-0.2l0,0l-0.1-0.2l0,0    l-0.1-0.2l0,0l-0.1-0.2l0,0l-0.1-0.2l0,0l-0.1-0.2l0,0l-0.1-0.2l0,0l-0.1-0.2l0,0l-0.1-0.2l0,0l-0.1-0.2l0,0L254,423l0,0l-0.1-0.2    l0,0l-0.1-0.2l0,0l-0.1-0.2l0,0l-0.1-0.2l0,0l-0.1-0.2l0,0l-0.1-0.2l0,0l-0.1-0.2l0,0l-0.1-0.2l0,0l-0.1-0.2l0,0l-0.1-0.2l0,0    l-0.1-0.2l0,0l-0.1-0.2l0,0l-0.1-0.2l0,0l-0.1-0.2l0,0l-0.1-0.2l0,0l-0.1-0.2l0,0l-0.1-0.2l0,0l-0.1-0.2l0,0l-0.1-0.2l0,0    l-0.1-0.2l0,0l-0.1-0.2l0,0l-0.1-0.2l0,0l-0.1-0.2l0,0l-0.1-0.2l0,0l-0.1-0.2l0,0l-0.1-0.2l0,0l-0.1-0.2l0,0l0-0.2l0,0l0-0.2l0,0    l0-0.2l0,0l0-0.2l0,0l0-0.2l0,0l0-0.2l0,0l0-0.2l0,0l0-0.2l0,0l0-0.2l0,0l0-0.2l0,0l0-0.2l0,0l0-0.2l0,0l0-0.2l0,0l0-0.2l0,0    l0-0.2l0,0l0-0.2l0,0l0-0.2l0,0l0-0.2l0,0l0-0.2l0,0l0-0.2l0,0l0-0.2l0,0l0-0.2l0,0l0-0.2l0,0l0-0.2l0,0l0-0.2l0,0l0-0.2l0,0    l0-0.2l0,0l0-0.2l0,0l0-0.2l0,0l0-0.2l0,0l0-0.2l0,0l0-0.2l0,0l0-0.2l0,0l0-0.2l0,0l0-0.2l0,0l0-0.2l0,0l0-0.2l0,0l0-0.2l0,0    l0-0.2l0,0l0-0.2l0,0l0-0.2l0,0l0-0.2v0l0-0.2v0l0-0.2l0,0l0-0.2l0,0l0-0.2v0l0-0.2v0l0-0.2v0l0-0.2v0V287.8v0l0-0.2v0l0-0.2v0    l0-0.2v0l0-0.2v0l0-0.2v0l0-0.2v0l0-0.2l0,0l0-0.2v0l0-0.2v0l0-0.2l0,0l0-0.2l0,0l0-0.2l0,0l0-0.2l0,0l0-0.2l0,0l0-0.2l0,0l0-0.2    l0,0l0-0.2l0,0l0-0.2l0,0l0-0.2l0,0l0-0.2l0,0l0-0.2l0,0l0-0.2l0,0l0-0.2l0,0l0-0.2l0,0l0-0.2l0,0l0-0.2l0,0l0-0.2l0,0l0-0.2l0,0    l0-0.2l0,0l0-0.2l0,0l0-0.2l0,0l0-0.2l0,0l0-0.2l0,0l0-0.2l0,0l0-0.2l0,0l0-0.2l0,0l0-0.2l0,0l0-0.2l0,0l0-0.2l0,0l0-0.2l0,0    l0-0.2l0,0l0-0.2l0,0l0-0.2l0,0l0-0.2l0,0l0-0.2l0,0l0-0.2l0,0l0-0.2l0,0l0-0.2l0,0l0-0.2l0,0l0-0.2l0,0l0.1-0.2l0,0l0.1-0.2l0,0    l0.1-0.2l0,0l0.1-0.2l0,0l0.1-0.2l0,0l0.1-0.2l0,0l0.1-0.2l0,0l0.1-0.2l0,0l0.1-0.2l0,0l0.1-0.2l0,0l0.1-0.2l0,0l0.1-0.2l0,0    l0.1-0.2l0,0l0.1-0.2l0,0l0.1-0.2l0,0l0.1-0.2l0,0l0.1-0.2l0,0l0.1-0.2l0,0l0.1-0.2l0,0l0.1-0.2l0,0l0.1-0.2l0,0l0.1-0.2l0,0    l0.1-0.2l0,0l0.1-0.2l0,0l0.1-0.2l0,0l0.1-0.2l0,0l0.1-0.2l0,0l0.1-0.2l0,0l0.1-0.2l0,0l0.1-0.2l0,0l0.1-0.2l0,0l0.1-0.2l0,0    l0.1-0.2l0,0l0.1-0.2l0,0l0.1-0.2l0,0l0.1-0.2l0,0l0.1-0.2l0,0l0.1-0.2l0,0l0.1-0.2l0,0l0.1-0.2l0,0l0.1-0.2l0,0l0.1-0.2l0,0    l0.1-0.2l0,0l0.1-0.2l0,0l0.1-0.2l0,0l0.1-0.2l0,0l0.1-0.2l0,0l0.1-0.2l0,0l0.1-0.2l0,0l0.1-0.2l0,0l0.1-0.2l0,0l0.1-0.2l0,0    l0.1-0.2l0,0l0.1-0.2l0,0l0.1-0.2l0,0l0.1-0.2l0,0l0.1-0.2l0,0l0.1-0.2l0,0l0.1-0.2l0,0l0.1-0.2l0,0l0.1-0.2l0,0l0.1-0.2l0,0    l0.1-0.2l0,0l0.1-0.2l0,0l0.1-0.2l0,0l0.1-0.2l0,0l0.1-0.2l0,0l0.1-0.2l0,0l0.1-0.2l0,0l0.1-0.2l0,0l0.1-0.2l0,0l0.1-0.2l0,0    l0.1-0.2l0,0l0.1-0.2l0,0l0.1-0.2l0,0l0.1-0.2l0,0l0.1-0.2l0,0l0.1-0.2l0,0l0.1-0.2l0,0l0.1-0.2l0,0l0.1-0.2l0,0l0.1-0.2l0,0    l0.1-0.2l0,0l0.1-0.2l0,0l0.1-0.2l0,0l0.1-0.2l0,0l0.1-0.2l0,0l0.1-0.2l0,0l0.1-0.2l0,0l0.1-0.2l0,0l0.1-0.2l0,0l0.1-0.2l0,0    l0.1-0.2l0,0l0.1-0.2l0,0l0.1-0.2l0,0l0.1-0.2l0,0l0.1-0.2l0,0l0.1-0.2l0,0l0.1-0.2l0,0l0.1-0.2l0,0l0.1-0.2l0,0l0.1-0.2l0,0    l0.1-0.2l0,0l0.1-0.2l0,0l0.1-0.2l0,0l0.1-0.2l0,0l0.1-0.2l0,0l0.1-0.2l0,0l0.1-0.2l0,0l0.1-0.2l0,0l0.1-0.2l0,0l0.1-0.2l0,0    l0.1-0.2l0,0l0.1-0.2l0,0l0.1-0.2l0,0l0.2-0.2l0,0l0.2-0.2l0,0l0.2-0.2l0,0l0.2-0.2l0,0l0.2-0.2l0,0l0.2-0.2l0,0l0.2-0.2l0,0    l0.2-0.2l0,0l0.2-0.2l0,0l0.2-0.2l0,0l0.2-0.2l0,0l0.2-0.2l0,0l0.2-0.2l0,0l0.2-0.2l0,0l0.2-0.2l0,0l0.2-0.2l0,0l0.2-0.2l0,0    l0.2-0.2l0,0l0.2-0.2l0,0l0.2-0.2l0,0l0.2-0.2l0,0l0.2-0.2l0,0l0.2-0.2l0,0l0.2-0.2l0,0l0.2-0.2l0,0l0.2-0.2l0,0l0.2-0.2l0,0    l0.2-0.2l0,0l0.2-0.2l0,0l0.2-0.2l0,0l0.2-0.2l0,0l0.2-0.2l0,0l0.2-0.2l0,0l0.2-0.2l0,0l0.2-0.2l0,0l0.2-0.2l0,0l0.2-0.2l0,0    l0.2-0.2l0,0l0.2-0.2l0,0l0.2-0.2l0,0l0.2-0.2l0,0l0.2-0.2l0,0l0.2-0.2l0,0l0.2-0.2l0,0l0.2-0.2l0,0l0.2-0.2l0,0l0.2-0.2l0,0    l0.2-0.2l0,0l0.2-0.2l0,0l0.2-0.2l0,0l0.2-0.2l0,0l0.2-0.2l0,0l0.2-0.2l0,0l0.2-0.2l0,0l0.2-0.2l0,0l0.2-0.2l0,0l0.2-0.2l0,0    l0.2-0.2l0,0l0.2-0.2l0,0l0.2-0.1l0,0l0.2-0.1l0,0l0.2-0.1l0,0l0.2-0.1l0,0l0.2-0.1l0,0l0.2-0.1l0,0l0.2-0.1l0,0l0.2-0.1l0,0    l0.2-0.1l0,0l0.2-0.1l0,0l0.2-0.1l0,0l0.2-0.1l0,0l0.2-0.1l0,0l0.2-0.1l0,0l0.2-0.1l0,0l0.2-0.1l0,0l0.2-0.1l0,0l0.2-0.1l0,0    l0.2-0.1l0,0l0.2-0.1l0,0l0.2-0.1l0,0l0.2-0.1l0,0l0.2-0.1l0,0l0.2-0.1l0,0l0.2-0.1l0,0l0.2-0.1l0,0l0.2-0.1l0,0l0.2-0.1l0,0    l0.2-0.1l0,0l0.2-0.1l0,0l0.2-0.1l0,0l0.2-0.1l0,0l97.5-57.2l0,0l0.2-0.1l0,0l0.2-0.1l0,0l0.2-0.1l0,0l0.2-0.1l0,0l0.2-0.1l0,0    l0.2-0.1l0,0l0.2-0.1l0,0l0.2-0.1l0,0l0.2-0.1l0,0l0.2-0.1l0,0l0.2-0.1l0,0l0.2-0.1l0,0l0.2-0.1l0,0l0.2-0.1l0,0l0.2-0.1l0,0    l0.2-0.1l0,0l0.2-0.1l0,0l0.2-0.1l0,0l0.2-0.1l0,0l0.2-0.1l0,0l0.2-0.1l0,0l0.2-0.1l0,0l0.2-0.1l0,0l0.2-0.1l0,0l0.2-0.1l0,0    l0.2-0.1l0,0l0.2-0.1l0,0l0.2-0.1l0,0l0.2-0.1l0,0l0.2-0.1l0,0l0.2-0.1l0,0l0.2-0.1l0,0l0.2-0.1l0,0l0.2-0.1l0,0l0.2-0.1l0,0    l0.2-0.1l0,0l0.2-0.1l0,0l0.2-0.1l0,0l0.2-0.1l0,0l0.2-0.1l0,0l0.2-0.1l0,0l0.2-0.1l0,0l0.2-0.1l0,0l0.2-0.1l0,0l0.2-0.1l0,0    l0.2-0.1l0,0l0.2-0.1l0,0l0.2-0.1l0,0l0.2-0.1l0,0l0.2-0.1l0,0l0.2-0.1l0,0l0.2-0.1l0,0l0.2-0.1l0,0l0.2-0.1l0,0l0.2-0.1l0,0    l0.2-0.1l0,0l0.2-0.1l0,0l0.2-0.1l0,0l0.2-0.1l0,0l0.2-0.1l0,0l0.2-0.1l0,0l0.2-0.1l0,0l0.2-0.1l0,0l0.2-0.1l0,0l0.2-0.1l0,0    l0.2-0.1l0,0l0.2-0.1l0,0l0.2-0.1l0,0l0.2-0.1l0,0l0.2-0.1l0,0l0.2-0.1l0,0l0.2-0.1l0,0l0.2-0.1l0,0l0.2-0.1l0,0l0.2-0.1l0,0    l0.2-0.1l0,0l0.2-0.1l0,0l0.2-0.1l0,0l0.2-0.1l0,0l0.2,0l0,0l0.2,0l0,0l0.2,0l0,0l0.2,0l0,0l0.2,0l0,0l0.2,0l0,0l0.2,0l0,0l0.2,0    l0,0l0.2,0l0,0l0.2,0l0,0l0.2,0l0,0l0.2,0l0,0l0.2,0l0,0l0.2,0l0,0l0.2,0l0,0l0.2,0l0,0l0.2,0l0,0l0.2,0l0,0l0.2,0l0,0l0.2,0l0,0    l0.2,0l0,0l0.2,0l0,0l0.2,0l0,0l0.2,0l0,0l0.2,0l0,0l0.2,0l0,0l0.2,0l0,0l0.2,0l0,0l0.2,0l0,0l0.2,0l0,0l0.2,0l0,0l0.2,0l0,0    l0.2,0l0,0l0.2,0l0,0l0.2,0l0,0l0.2,0l0,0l0.2,0l0,0l0.2,0l0,0l0.2,0l0,0l0.2,0l0,0l0.2,0l0,0l0.2,0l0,0l0.2,0h0l0.2,0l0,0l0.2,0    h0l0.2,0h0l0.2,0h0l0.2,0l0,0l0.2,0h0l0.2,0l0,0h0.2h0H414.9L414.9,165.4z M414.7,190.3l-0.2,0l-0.2,0l-0.2,0l-0.2,0l-0.2,0    l-0.2,0l-0.2,0l-0.2,0l-0.2,0l-0.2,0l-0.2,0l-0.2,0l-0.2,0l-0.2,0l-0.2,0l-0.2,0l-0.2,0l-0.2,0l-0.2,0l-0.2,0l-0.2,0l-0.2,0    l-0.2,0l-0.2,0l-0.2,0l-0.2,0l-0.2,0l-0.2,0l-0.2,0l-0.2,0l-0.2,0l-0.2,0l-0.2,0l-0.2,0l-0.2,0l-0.2,0l-0.2,0l-0.2,0l-0.2,0    l-0.2,0l-0.2,0l-0.2,0l-0.2,0l-0.2,0l-0.2,0l-0.2,0l-0.2,0l-0.2,0l-0.2,0l-0.2,0l-0.2,0l-0.2,0l-0.2,0l-0.2,0l-0.2,0l-0.2,0    l-0.2,0l-0.2,0l-0.2,0l-0.2,0l-0.2,0l-0.2,0l-0.2,0l-0.2,0l-0.2,0l-0.2,0l-0.2,0l-0.2,0l-0.2,0l-0.2,0l-0.2,0l-0.2,0l-0.2,0    l-0.2,0l-0.2,0l-0.2,0l-0.2,0l-0.2,0l-0.2,0.1l-0.2,0.1l-0.2,0.1l-0.2,0.1l-0.2,0.1l-0.2,0.1l-0.2,0.1l-0.2,0.1l-0.2,0.1l-0.1,0.1    l-0.2,0.1l-0.1,0.1l-0.1,0.1l-0.1,0.1l-0.1,0.1l-0.1,0.1l-0.1,0.1l-0.1,0.1l-0.1,0.1l-0.1,0.1l-0.1,0.1l-0.1,0.1l-0.1,0.1    l-0.1,0.1l-0.1,0.1l-0.1,0.1l-0.1,0.1l-0.1,0.1l-0.1,0.1L398,194l-0.1,0.1l-0.1,0.1l-0.1,0.1l-0.1,0.1l-0.1,0.1l-0.1,0.1l-0.1,0.1    l-0.1,0.1l-0.1,0.1l-0.1,0.1l-0.1,0.1l-0.1,0.1l-0.1,0.1l-0.1,0.1l-0.1,0.1l-0.1,0.1l-0.1,0.1l-0.1,0.1l-0.1,0.1l-0.1,0.1    l-0.1,0.1l-0.2,0.1l-97.4,57.2l-0.2,0.1l-0.1,0.1l-0.1,0.1l-0.1,0.1l-0.1,0.1l-0.1,0.1l-0.1,0.1l-0.1,0.1l-0.1,0.1l-0.1,0.1    l-0.1,0.1l-0.1,0.1l-0.1,0.1l-0.1,0.1l-0.1,0.1l-0.1,0.1l-0.1,0.1l-0.1,0.1l-0.1,0.1l-0.1,0.1l-0.1,0.1l-0.1,0.1l-0.1,0.1    l-0.1,0.1l-0.1,0.1l-0.1,0.1l-0.1,0.1l-0.1,0.1l-0.1,0.1l-0.1,0.1l-0.1,0.1l-0.1,0.1l-0.1,0.1l-0.1,0.1l-0.1,0.1l-0.1,0.1    l-0.1,0.1l-0.1,0.1l-0.1,0.1l-0.1,0.1l-0.1,0.1l-0.1,0.1l-0.1,0.1l-0.1,0.1l-0.1,0.1l-0.1,0.1l-0.1,0.1l-0.1,0.1l-0.1,0.1    l-0.1,0.1l-0.1,0.1l-0.1,0.1l-0.1,0.1l-0.1,0.1l-0.1,0.1l-0.1,0.1l-0.1,0.1l-0.1,0.1l-0.1,0.1l-0.1,0.1l-0.1,0.1l-0.1,0.1    l-0.1,0.1l-0.1,0.1l-0.1,0.1l-0.1,0.1l-0.1,0.1l-0.1,0.1l-0.1,0.1l-0.1,0.1l-0.1,0.1l-0.1,0.1l-0.1,0.1l-0.1,0.1l-0.1,0.1    l-0.1,0.1l-0.1,0.1l-0.1,0.1l-0.1,0.1l-0.1,0.1l-0.1,0.1l-0.1,0.1l-0.1,0.1l-0.1,0.1l-0.1,0.1l-0.1,0.1l-0.1,0.1l-0.1,0.1    l-0.1,0.1l-0.1,0.1l-0.1,0.1l-0.1,0.1l-0.1,0.1l-0.1,0.1l-0.1,0.1l-0.1,0.1l-0.1,0.1l-0.1,0.1l-0.1,0.1l-0.1,0.1l-0.1,0.1    l-0.1,0.1l-0.1,0.1l-0.1,0.1l-0.1,0.1l-0.1,0.1l-0.1,0.1l-0.1,0.1l-0.1,0.1l-0.1,0.1l-0.1,0.1l-0.1,0.1l-0.1,0.1l-0.1,0.1    l-0.1,0.1l-0.1,0.1l-0.1,0.1l-0.1,0.1l-0.1,0.1l-0.1,0.1l-0.1,0.1l-0.1,0.1l-0.1,0.1l-0.1,0.1l-0.1,0.1l-0.1,0.1l-0.1,0.1    l-0.1,0.1l-0.1,0.1l-0.1,0.1l-0.1,0.1l-0.1,0.1l-0.1,0.1l-0.1,0.1l-0.1,0.1l-0.1,0.1l-0.1,0.1l-0.1,0.1l-0.1,0.1l-0.1,0.1    l-0.1,0.1l-0.1,0.1l-0.1,0.1l-0.1,0.1l-0.1,0.1l-0.1,0.1l-0.1,0.1l-0.1,0.1l-0.1,0.1l-0.1,0.1l-0.1,0.1l-0.1,0.1l-0.1,0.1    l-0.1,0.1l-0.1,0.1l-0.1,0.1l-0.1,0.1l-0.1,0.1l-0.1,0.1l-0.1,0.1l-0.1,0.2l-0.1,0.1l-0.1,0.2l-0.1,0.2l-0.1,0.2l-0.1,0.2    l-0.1,0.2l-0.1,0.2l-0.1,0.2l-0.1,0.2l-0.1,0.2l-0.1,0.2l-0.1,0.2l-0.1,0.2l-0.1,0.2l-0.1,0.2l-0.1,0.2l-0.1,0.2l-0.1,0.2    l-0.1,0.2l-0.1,0.2l-0.1,0.2l-0.1,0.2l0,0.2l0,0.2l0,0.2l0,0.2l0,0.2l0,0.2l0,0.2l0,0.2l0,0.2l0,0.2l0,0.2l0,0.2l0,0.2l0,0.2    l0,0.2l0,0.2l0,0.2l0,0.2l0,0.2l0,0.2l0,0.2l0,0.2l0,0.2l0,0.2l0,0.2l0,0.2l0,0.2l0,0.2l0,0.2l0,0.2l0,0.2l0,0.2l0,0.2l0,0.2    l0,0.2l0,0.2l0,0.2l0,0.2l0,0.2l0,0.2l0,0.2l0,0.2l0,0.2l0,0.2l0,0.2l0,0.2l0,0.2l0,0.2l0,0.2l0,0.2l0,0.2l0,0.2l0,0.2l0,0.2    l0,0.2l0,0.2l0,0.2l0,0.2l0,0.2l0,0.2l0,0.2l0,0.2l0,0.2l0,0.2l0,0.2l0,0.2l0,0.2l0,0.2l0,0.2l0,0.2l0,0.2l0,0.2v0.2v115.5v0.2    l0,0.2l0,0.2l0,0.2l0,0.2l0,0.2l0,0.2l0,0.2l0,0.2l0,0.2l0,0.2l0,0.2l0,0.2l0,0.2l0,0.2l0,0.2l0,0.2l0,0.2l0,0.2l0,0.2l0,0.2    l0,0.2l0,0.2l0,0.2l0,0.2l0,0.2l0,0.2l0,0.2l0,0.2l0,0.2l0,0.2l0,0.2l0,0.2l0,0.2l0,0.2l0,0.2l0,0.2l0,0.2l0,0.2l0,0.2l0,0.2    l0,0.2l0,0.2l0,0.2l0,0.2l0,0.2l0,0.2l0,0.2l0,0.2l0,0.2l0,0.2l0,0.2l0,0.2l0,0.2l0,0.2l0,0.2l0,0.2l0,0.2l0,0.2l0,0.2l0,0.2    l0,0.2l0,0.2l0,0.2l0,0.2l0,0.2l0,0.2l0,0.2l0,0.2l0,0.2l0,0.2l0,0.2l0,0.2l0,0.2l0.1,0.2l0.1,0.2l0.1,0.2l0.1,0.2l0.1,0.2    l0.1,0.2l0.1,0.2l0.1,0.1l0.1,0.1l0.1,0.2l0.1,0.1l0.1,0.1l0.1,0.1l0.1,0.1l0.1,0.1l0.1,0.1l0.1,0.1l0.1,0.1l0.1,0.1l0.1,0.1    l0.1,0.1l0.1,0.1l0.1,0.1l0.1,0.1l0.1,0.1l0.1,0.1l0.1,0.1l0.1,0.1l0.1,0.1l0.1,0.1l0.1,0.1l0.1,0.1l0.1,0.1l0.1,0.1l0.1,0.1    l0.1,0.1l0.1,0.1l0.1,0.1l0.1,0.1l0.1,0.1l0.1,0.1l0.1,0.1l0.1,0.1l0.1,0.1l0.1,0.1l0.1,0.1l0.1,0.1l0.1,0.1l0.1,0.1l0.1,0.1    l0.1,0.1l0.1,0.1l0.1,0.1l0.1,0.1l0.1,0.1l0.1,0.1l0.1,0.1l0.1,0.1l0.1,0.1l0.1,0.1l0.1,0.1l0.1,0.1l0.1,0.1l0.1,0.1l0.1,0.1    l0.1,0.1l0.1,0.1l0.1,0.1l0.1,0.1l0.1,0.1l0.1,0.1l0.1,0.1l0.1,0.1l0.1,0.1l0.1,0.1l0.1,0.1l0.1,0.1l0.1,0.1l0.1,0.1l0.1,0.1    l0.1,0.1l0.1,0.1l0.1,0.1l0.1,0.1l0.1,0.1l0.1,0.1l0.1,0.1l0.1,0.1l0.1,0.1l0.1,0.1l0.1,0.1l0.1,0.1l0.1,0.1l0.1,0.1l0.1,0.1    l0.1,0.1l0.1,0.1l0.1,0.1l0.1,0.1l0.1,0.1l0.1,0.1l0.1,0.1l0.1,0.1l0.1,0.1l0.1,0.1l0.1,0.1l0.1,0.1l0.1,0.1l0.1,0.1l0.1,0.1    l0.1,0.1l0.1,0.1l0.1,0.1l0.1,0.1l0.1,0.1l0.1,0.1l0.1,0.1l0.1,0.1l0.1,0.1l0.1,0.1l0.1,0.1l0.1,0.1l0.1,0.1l0.1,0.1l0.1,0.1    l0.1,0.1l0.1,0.1l0.1,0.1l0.1,0.1l0.1,0.1l0.1,0.1l0.1,0.1l0.1,0.1l0.1,0.1l0.1,0.1l0.1,0.1l0.1,0.1l0.1,0.1l0.1,0.1l0.1,0.1    l0.1,0.1l0.1,0.1l0.1,0.1l0.1,0.1l0.1,0.1l0.1,0.1l0.1,0.1l0.1,0.1l0.1,0.1l0.1,0.1l0.1,0.1l0.1,0.1l0.1,0.1l0.1,0.1l0.1,0.1    l0.1,0.1l0.1,0.1l0.1,0.1l0.1,0.1l0.1,0.1l0.1,0.1l0.1,0.1l0.1,0.1l0.1,0.1l0.1,0.1l0.1,0.1l0.1,0.1l0.1,0.1l0.1,0.1l0.1,0.1    l0.1,0.1l0.1,0.1l0.1,0.1l0.1,0.1l0.1,0.1l0.1,0.1l0.1,0.1l0.1,0.1l0.1,0.1l0.1,0.1l0.1,0.1l0.2,0.1l101.5,56.5l0.1,0.1l0.1,0.1    l0.1,0.1l0.1,0.1l0.1,0.1l0.1,0.1l0.1,0.1l0.1,0.1l0.1,0.1l0.1,0.1l0.1,0.1l0.1,0.1l0.1,0.1l0.1,0.1l0.1,0.1l0.1,0.1l0.1,0.1    l0.1,0.1l0.1,0.1l0.1,0.1l0.1,0.1l0.1,0.1l0.1,0.1l0.1,0.1l0.1,0.1l0.1,0l0.1,0l0.1,0.1l0.1,0l0.1,0l0.1,0l0.1,0l0.1,0l0.1,0    l0.1,0l0.1,0l0.1,0l0.1,0l0.1,0l0.1,0l0.1,0l0.1,0l0.1,0l0.1,0l0.1,0l0.1,0l0.1,0l0.1,0l0.1,0l0.1,0l0.1,0l0.1,0l0.3,0.1l0.2,0.1    l0.2,0.1l0.2,0.1l0.2,0.1l0.2,0.1l0.2,0.1l0.2,0.1l0.2,0.1l0.2,0.1l0.2,0.1l0.2,0.1l0.2,0.1l0.2,0l0.2,0l0.2,0l0.2,0l0.2,0l0.2,0    l0.2,0l0.2,0l0.2,0l0.2,0l0.2,0l0.2,0l0.2,0l0.2,0l0.2,0l0.2,0l0.2,0l0.2,0l0.2,0l0.2,0l0.2,0l0.2,0l0.2,0l0.2,0l0.2,0l0.2,0h0.2    l0.2,0l0.3,0l0.2,0l0.2,0l0.2,0l0.2,0l0.2,0l0.2,0l0.2,0l0.2,0l0.2,0l0.2,0l0.2,0l0.2,0l0.2,0l0.2,0l0.2,0l0.2,0l0.2,0l0.2,0    l0.2,0l0.2,0l0.2,0l0.2,0l0.2,0l0.2-0.1l0.2-0.1l0.2-0.1l0.2-0.1l0.2-0.1l0.2-0.1l0.2-0.1l0.2-0.1l0.2-0.1l0.2-0.1l0.3-0.1l0.1,0    l0.1,0l0.1,0l0.1,0l0.1,0l0.1,0l0.1,0l0.1,0l0.1,0l0.1,0l0.1,0l0.1,0l0.1,0l0.1,0l0.1,0l0.1,0l0.1,0l0.1,0l0.1,0l0.1,0l0.1,0    l0.1,0l0.1,0l0.1,0l0.1,0l0.1,0l0.1,0l0.1,0l0.1,0l0.1,0l0.1,0l0.1,0l0.1-0.1l0.1-0.1l0.1-0.1l0.1-0.1l0.1-0.1l0.1-0.1l0.1-0.1    l0.1-0.1l0.1-0.1l0.1-0.1l0.1-0.1l0.1-0.1l0.1-0.1l0.1-0.1l0.1-0.1l0.1-0.1l0.1-0.1l0.1-0.1l0.1-0.1l0.1-0.1l112.4-59.6l0.1-0.1    l0.1-0.1l0.1-0.1l0.1-0.1l0.1-0.1l0.1-0.1l0.1-0.1l0.1-0.1l0.1-0.1l0.1-0.1l0.1-0.1l0.1-0.1l0.1-0.1l0.1-0.1l0.1-0.1l0.1-0.1    l0.1-0.1l0.1-0.1l0.1-0.1l0.1-0.1l0.1-0.1l0.1-0.1l0.1-0.1l0.1-0.1l0.1-0.1l0.1-0.1l0.1-0.1l0.1-0.1l0.1-0.1l0.1-0.1l0.1-0.1    l0.1-0.1l0.1-0.1l0.1-0.1l0.1-0.1l0.1-0.1l0.1-0.1l0.1-0.1l0.1-0.1l0.1-0.1l0.1-0.1l0.1-0.1l0.1-0.1l0.1-0.1l0.1-0.1l0.1-0.1    l0.1-0.1l0.1-0.1l0.1-0.1l0.1-0.1l0.1-0.1l0.1-0.1l0.1-0.1l0.1-0.1l0.1-0.1l0.1-0.1l0.1-0.1l0.1-0.1l0.1-0.1l0.1-0.1l0.1-0.1    l0.1-0.1l0.1-0.1l0.1-0.1l0.1-0.1l0.1-0.1l0.1-0.1l0.1-0.1l0.1-0.1l0.1-0.1l0.1-0.1l0.1-0.1l0.1-0.1l0.1-0.1l0.1-0.1l0.1-0.1    l0.1-0.1l0.1-0.1l0.1-0.1l0.1-0.1l0.1-0.1l0.1-0.1l0.1-0.1l0.1-0.1l0.1-0.1l0.1-0.1l0.1-0.1l0.1-0.1l0.1-0.1l0.1-0.1l0.1-0.1    l0.1-0.1l0.1-0.1l0.1-0.1l0.1-0.1l0.1-0.1l0.1-0.1l0.1-0.1l0.1-0.1l0.1-0.1l0.1-0.1l0.1-0.1l0.1-0.1l0.1-0.1l0.1-0.1l0.1-0.1    l0.1-0.1l0.1-0.1l0.1-0.1l0.1-0.1l0.1-0.1l0.1-0.1l0.1-0.1l0.1-0.1l0.1-0.1l0.1-0.1l0.1-0.1l0.1-0.1l0.1-0.1l0.1-0.1l0.1-0.1    l0.1-0.1l0.1-0.1l0.1-0.1l0.1-0.1l0.1-0.1l0.1-0.1l0.1-0.1l0.1-0.1l0.1-0.1l0.1-0.1l0.1-0.1l0.1-0.1l0.1-0.1l0.1-0.1l0.1-0.1    l0.1-0.1l0.1-0.1l0.1-0.1l0.1-0.1l0.1-0.1l0.1-0.1l0.1-0.1l0.1-0.1l0.1-0.1l0.1-0.1l0.1-0.1l0.1-0.1l0.1-0.1l0.1-0.1l0.1-0.1    l0.1-0.1l0.1-0.1l0.1-0.1l0.1-0.1l0.1-0.1l0.1-0.1l0.1-0.1l0.1-0.1l0.1-0.1l0.1-0.1l0.1-0.1l0.1-0.1l0.1-0.1l0-0.1l0-0.1l0-0.1    l0-0.1l0-0.1l0-0.1l0-0.1l0-0.1l0-0.1l0-0.1l0-0.1l0-0.1l0-0.1l0-0.1l0-0.1l0-0.1l0-0.1l0-0.1l0-0.1l0-0.1l0-0.1l0-0.1l0-0.1    l0-0.1l0-0.1l0-0.1l0-0.1l0-0.1l0-0.1l0-0.1l0-0.1l0-0.1l0-0.1l0-0.1l0-0.1l0-0.1l0-0.1l0-0.1l0-0.1l0-0.1l0-0.1l0-0.1l0-0.1    l0-0.1l0-0.1l0-0.1l0-0.1l0-0.1l0-0.1l0-0.1l0-0.1l0-0.1l0-0.1l0-0.1l0-0.1l0-0.1l0-0.1l0-0.1l0-0.1l0-0.1l0-0.1l0-0.1l0-0.1    l0-0.1l0-0.1l0-0.1l0-0.1l0-0.1l0-0.1l0-0.1l0-0.1l0-0.1l0-0.1l0-0.1l0-0.1l0-0.1l0-0.1l0-0.1l0-0.1l0-0.1l0-0.1l0-0.1l0-0.1    l0-0.1l0-0.1l0-0.1l0-0.1l0-0.1l0-0.1l0-0.1v-0.1l0-0.1v-126l0-0.1v-0.1l0-0.1l0-0.1l0-0.1l0-0.1l0-0.1l0-0.1l0-0.1l0-0.1l0-0.1    l0-0.1l0-0.1l0-0.1l0-0.1l0-0.1l0-0.1l0-0.1l0-0.1l0-0.1l0-0.1l0-0.1l0-0.1l0-0.1l0-0.1l0-0.1l0-0.1l0-0.1l0-0.1l0-0.1l0-0.1    l0-0.1l0-0.1l0-0.1l0-0.2l0-0.2l0-0.2l0-0.2l0-0.2l0-0.2l0-0.2l0-0.2l-0.1-0.2l-0.1-0.2L558,275l-0.1-0.2l-0.1-0.2l-0.1-0.2    l-0.1-0.2l-0.1-0.2l-0.1-0.2l-0.1-0.2l-0.1-0.2l-0.1-0.2l-0.1-0.2l-0.1-0.2l-0.1-0.2l-0.1-0.2l-0.1-0.2l-0.1-0.2l-0.1-0.2    l-0.1-0.2l-0.1-0.2l-0.1-0.2l-0.1-0.2l-0.1-0.2l-0.1-0.2l-0.1-0.2l-0.1-0.2l-0.1-0.2l-0.1-0.2l-0.1-0.2l-0.1-0.2l-0.1-0.2    l-0.1-0.2l-0.1-0.2l-0.1-0.2l-0.1-0.2l-0.1-0.2l-0.1-0.2l-0.1-0.2l-0.1-0.2l-0.1-0.2l-0.1-0.2l-0.1-0.2l-0.1-0.2l-0.1-0.2    l-0.1-0.2l-0.1-0.2l-0.1-0.2l-0.1-0.2l-0.1-0.2l-0.1-0.2l-0.1-0.2l-0.1-0.2l-0.1-0.2l-0.1-0.2l-0.1-0.2l-0.2-0.2l-0.2-0.2    l-0.2-0.2l-0.2-0.2l-0.2-0.2l-0.2-0.2l-0.2-0.2l-0.2-0.2l-0.2-0.2l-0.2-0.2l-0.2-0.2l-0.2-0.2l-0.2-0.2l-0.2-0.2l-0.2-0.2    l-0.2-0.2l-0.2-0.2l-0.2-0.2l-0.2-0.2l-0.2-0.2l-0.2-0.2l-0.2-0.2l-0.2-0.2l-0.2-0.2l-0.2-0.2l-0.2-0.2l-0.2-0.2l-0.2-0.2    l-0.2-0.1l-0.2-0.2l-0.1-0.1l-0.1-0.1l-0.1-0.1l-0.1-0.1l-0.1-0.1l-0.1-0.1l-0.1-0.1l-0.1-0.1l-0.1-0.1l-0.1-0.1l-0.1-0.1    l-0.1-0.1l-0.1-0.1l-0.1-0.1l-0.1-0.1l-0.1-0.1l-0.1-0.1l-0.1-0.1l-0.1-0.1l-0.1-0.1l-0.1-0.1l-0.1-0.1l-0.1-0.1l-0.1-0.1    l-0.1-0.1l-0.1-0.1l-0.1-0.1l-0.1-0.1l-0.1-0.1l-0.1-0.1l-0.1-0.1l-0.1-0.1l-0.1-0.1l-0.1-0.1L434,195.3l-0.2-0.1l-0.1-0.1    l-0.1-0.1l-0.1-0.1l-0.1-0.1l-0.1-0.1l-0.1-0.1l-0.1-0.1l-0.1-0.1l-0.1-0.1l-0.1-0.1l-0.1-0.1l-0.1-0.1l-0.1-0.1l-0.1-0.1    l-0.1-0.1l-0.1-0.1l-0.1-0.1l-0.1-0.1l-0.1-0.1l-0.1-0.1l-0.1-0.1l-0.1-0.1l-0.1-0.1l-0.1-0.1l-0.1-0.1l-0.1-0.1l-0.1-0.1    l-0.1-0.1l-0.1-0.1l-0.1-0.1l-0.1-0.1l-0.1-0.1L429,193l-0.1-0.1l-0.2-0.1l-0.2-0.1l-0.1-0.1l-0.2-0.1l-0.2-0.1l-0.2-0.1l-0.2-0.1    l-0.2-0.1l-0.2-0.1l-0.2-0.1l-0.2-0.1l-0.2-0.1l-0.2,0l-0.2,0l-0.2,0l-0.2,0l-0.2,0l-0.2,0l-0.2,0l-0.2,0l-0.2,0l-0.2,0l-0.2,0    l-0.2,0l-0.2,0l-0.2,0l-0.2,0l-0.2,0l-0.2,0l-0.2,0l-0.2,0l-0.2,0l-0.2,0l-0.2,0l-0.2,0l-0.2,0l-0.2,0l-0.2,0l-0.2,0l-0.2,0    l-0.2,0l-0.2,0l-0.2,0l-0.2,0l-0.2,0l-0.2,0l-0.2,0l-0.2,0l-0.2,0l-0.2,0l-0.2,0l-0.2,0l-0.2,0l-0.2,0l-0.2,0l-0.2,0l-0.2,0    l-0.2,0l-0.2,0l-0.2,0l-0.2,0l-0.2,0l-0.2,0l-0.2,0l-0.2,0l-0.2,0l-0.2,0l-0.2,0l-0.2,0l-0.2,0l-0.2,0l-0.2,0l-0.2,0l-0.2,0    l-0.2,0l-0.2,0l-0.2,0l-0.2,0l-0.2,0l-0.2,0l-0.2,0l-0.2,0l-0.2,0l-0.2,0l-0.2,0l-0.2,0l-0.2,0l-0.2,0l-0.2,0l-0.2,0H414.7z"/>
	</g>
	<g transform="matrix(1.29126,0,0,1.3475,-306.396,-213.151)">
		<path class="st2" d="M354.3,448.9V245.5h44.4v74.1h73.7v-74.1h44.5v203.4h-44.5V360h-73.7v88.9H354.3z"/>
	</g>
</g>
</svg>