<svg xmlns="http://www.w3.org/2000/svg" xml:space="preserve" viewBox="0 0 370 391"><path d="M207.5 22.4 321.9 89c13.5 7.9 21.9 22.4 21.9 38v136.4c0 17.3-9.3 33.3-24.5 41.8l-113.5 63.9a49.06 49.06 0 0 1-48.5-.2L52.8 308.8c-16.4-9.5-26.6-27-26.6-45.9V133.4c0-19.1 9.9-36.8 26.1-46.8l102.8-63.5c16-9.9 36.2-10.1 52.4-.7z" style="fill-rule:evenodd;clip-rule:evenodd;fill:#ff4088;stroke:#c9177e;stroke-width:27"/><path d="M105.6 298.2V91H149v75.5h71.9V91h43.5v207.2h-43.5v-90.6H149v90.6z" style="fill-rule:evenodd;clip-rule:evenodd;fill:#fff"/></svg>