<svg xmlns="http://www.w3.org/2000/svg" xmlns:xlink="http://www.w3.org/1999/xlink" version="1.1" id="Layer_1" x="0px" y="0px" style="enable-background:new 0 0 512 512;" xml:space="preserve" viewBox="0 171.6 512 168.9">
<style type="text/css">
	.st0{fill:#1CE783;}
</style>
<g>
	<path class="st0" d="M113.8,234.7c8.5,6.9,12.7,17.6,12.7,32.3v73.5H86.2v-68.1c0-3-1.1-5.6-3.3-7.8c-2.2-2.2-4.8-3.3-7.8-3.3H51.5   c-3,0-5.5,1.1-7.6,3.3c-2.1,2.2-3.2,4.8-3.2,7.8v68.1H0V171.6h40.7v55c0.6-0.2,2.1-0.6,4.5-1.3c2.3-0.6,5.4-1,9.2-1h26.1   C94.2,224.4,105.4,227.8,113.8,234.7z M242,224.4h40.7v71.2c0,13.4-3.7,24.2-11,32.4c-7.3,8.3-17.2,12.4-29.7,12.4h-40.1   c-14,0-25.2-3.9-33.5-11.6c-8.4-7.7-12.6-18.8-12.6-33.2v-71.2h40.7v68.1c0,3,1.1,5.5,3.2,7.6c2.1,2.1,4.7,3.2,7.6,3.2h23.5   c3,0,5.6-1.1,7.8-3.2c2.2-2.1,3.3-4.7,3.3-7.6V224.4z M313.6,171.6h40.7v168.9h-40.7V171.6z M512,224.4v71.2   c0,13.4-3.7,24.2-11,32.4c-7.3,8.3-17.2,12.4-29.7,12.4h-39.8c-14.2,0-25.5-3.9-33.9-11.6c-8.4-7.7-12.6-18.8-12.6-33.2v-71.2h40.7   v68.1c0,3,1.1,5.5,3.2,7.6c2.1,2.1,4.7,3.2,7.6,3.2h23.9c3,0,5.5-1.1,7.6-3.2c2.1-2.1,3.2-4.7,3.2-7.6v-68.1H512z"/>
</g>
</svg>