<svg xmlns="http://www.w3.org/2000/svg" viewBox="0 0 84.61 84.88"><g data-name="Ebene 2"><path d="M0 40.69c-.28-4.23 2.06-7.28 4.63-10.26 4.33-5.06 8.6-10.17 12.9-15.26 3.06-3.62 6-7.38 9.25-10.8C31.14-.16 36.56-1 42.32 1.13 53.43 5.31 64.47 9.69 75.54 14a13.82 13.82 0 018.92 15.22c-.16 1.19-.15 2.42-.41 3.59a5.34 5.34 0 01-6.16 4 8.35 8.35 0 01-5.51-3.32 10.1 10.1 0 00-5.68-4c-2.78-.61-4.92.62-6.7 2.48-4.93 5.17-6 13.59-2.88 20 2.71 5.66 12.57 7.25 16.2 1.08a4.91 4.91 0 015.35-2.58c2.07.29 3.89 1.58 4 3.56.13 4.43.44 9-1.22 13.19a13.19 13.19 0 01-9.27 8.24q-17.58 4.62-35.23 9a14.2 14.2 0 01-15.37-6q-9.71-14.84-19.31-29.7A13.23 13.23 0 010 40.69z" fill="#47bbc7" data-name="Ebene 1"/></g></svg>