<svg xmlns="http://www.w3.org/2000/svg" xml:space="preserve" width="95" height="95"><defs><clipPath id="d" clipPathUnits="userSpaceOnUse"><path d="M135.645 210.252h1.885v-1.077h-1.885z"/></clipPath><clipPath id="c" clipPathUnits="userSpaceOnUse"><path d="M126.569 209.477h1.845v-1.143h-1.845z"/></clipPath><clipPath id="b" clipPathUnits="userSpaceOnUse"><path d="M129.917 210.792h3.768v-2.157h-3.768z"/></clipPath><clipPath id="a" clipPathUnits="userSpaceOnUse"><path d="M144.017 161.6h2.159v-3.766h-2.159z"/></clipPath></defs><path d="M37.724 2.403a2.13 2.13 0 0 0-1.273.326l-.307.186c-5.827 3.773-8.186 11.2-5.732 17.574.014.053 0 .092-.04.12-.013.012-.041.027-.054.04.013.04.027.066.04.106-3.626 3.16-5.8 6.64-6.413 10.36a20.282 20.282 0 0 1-7.547 12.72C5.33 52.46 1.678 62.529 6.093 72.169c1.625 3.546 4.411 6.64 7.824 8.707 4.28 2.573 8.734 3.865 13.32 3.865a25.69 25.69 0 0 0 6.282-.799c.307-.08.6-.16.908-.24 1.439 4.88 4.317 8.133 8.037 8.92.587.12 1.173.187 1.76.187s1.161-.067 1.734-.187c.214-.04.44-.094.653-.16h.013c.28-.08.548-.173.815-.266.213-.08.425-.16.625-.254 1.413-.667 2.788-1.64 4.068-2.92.054-.04.12-.04.147 0l.24-.24c-.313 2.095-.7 4.164-1.115 6.217h36.66c-.643-1.507-2.728-2.344-5.172-2.057-.053 0-.107-.04-.107-.094a43.424 43.424 0 0 1-.266-1.959c0-.053.027-.094.08-.107.161-.04.319-.107.479-.174a4.343 4.343 0 0 0 1.853-1.32c.013-.027.028-.04.041-.067.56-.72.826-1.585.732-2.425-.093-.88-.547-1.693-1.279-2.293a4.57 4.57 0 0 0-1.213-.694c-.013-.013-.041-.013-.054-.013-.134-.04-.266-.095-.413-.121-.04-.014-.093-.026-.146-.04a1.592 1.592 0 0 0-.268-.052 3.423 3.423 0 0 0-.533-.069.09.09 0 0 1-.093-.091c-.8-7.987-1.333-16.708-1.68-26.588l.174-.094-.348-12.398c-.013-6.734-.24-13.229-2.227-18.989-.013-.04 0-.065.014-.105 4.227-5.574 4.973-13.32 1.44-19.72-.227-.4-.465-.788-.705-1.161-.574-.893-1.614-1.494-2.668-1.32h-.026a.107.107 0 0 0-.068.027 2.467 2.467 0 0 0-2 2.254c-.28 3.386-1.574 6.533-3.694 9.053l-.011.013c-.04.04-.108.054-.147.014a22.206 22.206 0 0 0-2.08-1.268c-5.16-2.8-10.774-3.079-15.88-2.279a37.953 37.953 0 0 0-3.12.64c-.48.12-.947.24-1.414.374a47.671 47.671 0 0 0-7.094 2.68 4.916 4.916 0 0 0-.386.173c-.054.027-.12 0-.133-.054-1.094-2.96-1.107-6.212 0-9.252a2.238 2.238 0 0 0-1.928-3.02z" style="fill:#6ca6c0;fill-opacity:1;fill-rule:nonzero;stroke:none;stroke-width:1.33333325" transform="matrix(-1 0 0 1 92.528 0)"/><path d="M64.804 62.393c-.133 1.462-.26 2.922-.432 4.381-.246 2.081-.594 4.17-1.158 6.19-.577 2.072-1.385 4.096-2.008 6.162a126.31 126.31 0 0 0-3.095 12.564 142.55 142.55 0 0 0-.582 3.31h8.656c.008-3.009.038-6.017.08-9.018.061-4.305.158-8.612.127-12.918a99.836 99.836 0 0 0-.135-4.974c-.046-.791-.1-1.581-.156-2.368a5.96 5.96 0 0 0-.438-1.908c-.12-.284-.879-1.193-.859-1.42z" style="fill:#cbcbcb;fill-opacity:1;fill-rule:nonzero;stroke:none;stroke-width:1.33333325" transform="matrix(-1 0 0 1 92.528 0)"/><g style="fill:#fff"><path d="M0 0c-.09 1.62-.81 3.22-.57 4.83.06.37.45 1.15.39 1.53-.04.27-.45.58-.73.65-.3.07-.56-.53-.8-.69-1.56-1.03-2.78-2.54-3.63-4.2A14.778 14.778 0 0 1-6.07.409a.698.698 0 0 0 .339-.573c0-.933.008-1.867-.204-2.783-.003-.014-.014-.024-.018-.037v-1.041c0-.155 0-.312-.002-.469.027-.025.052-.053.08-.077.222-.16.453-.305.663-.483.017-.014.032-.031.049-.046 1.329.401 2.68.83 3.803 1.65.38.28.74.61 1.04.99C.27-1.72.06-.94 0 0" style="fill:#fff;fill-opacity:1;fill-rule:nonzero;stroke:none" transform="rotate(180 26.878 6.35) scale(1.33333)"/></g><g style="fill:#fff"><path d="M0 0c-.056-1.537-.3-3.084-.656-4.622a39.413 39.413 0 0 0-.923-3.342c-.634-.598-1.49-.928-2.413-.98-1.257-.072-2.636.351-3.77 1.259-1.613 1.3-2.236 3.208-1.668 4.735.133.392.355.753.656 1.083.044.052.1.103.155.144.289.217.623.423.934.63.501.34.968.691 1.18 1.093 1.011 1.929 2.635 3.507 3.314 5.571.155.485.211 1.619.478 2.042.189.32.778.495 1.101.444.344-.062.244-.908.4-1.217C-.245 4.838.1 2.424 0 0" style="fill:#fff;fill-opacity:1;fill-rule:nonzero;stroke:none" transform="matrix(-1.37993 0 0 -1.33333 12.98 15.18)"/></g><path d="M0 0c0-.01-.01-.02-.01-.03-.15-.5-.34-1.05-.73-1.31a.882.882 0 0 0-.9-.03c-.2.1-.37.25-.53.42.83.05 1.6.37 2.17.95" style="fill:#fff;fill-opacity:1;fill-rule:nonzero;stroke:none" transform="rotate(180 7.66 12.572) scale(1.33333)"/><path d="M0 0a12.174 12.174 0 0 0-.167-1.971C-.644-4.91-2.21-7.135-4.117-7.436a1.85 1.85 0 0 0-.467-.054c-2.544-.003-4.612 3.343-4.618 7.469-.006 4.135 2.041 7.487 4.584 7.5C-2.075 7.482-.017 4.135 0 0" style="fill:#fff;fill-opacity:1;fill-rule:nonzero;stroke:none" transform="rotate(180 18.652 17.556) scale(1.33333)"/><path d="M0 0c.121.004.23.011.351.041 1.705.27 3.125 2.299 3.573 5.058.102.597.156 1.233.16 1.892-.016 3.849-1.861 6.978-4.114 6.978h-.003c-2.257-.012-4.09-3.152-4.084-6.999C-4.111 3.19-2.228 0-.003 0Zm.024-1c-.011 0-.028.002-.033 0-2.807 0-5.101 3.573-5.108 7.968-.007 4.472 2.225 7.986 5.081 8.001h.004c2.853 0 5.098-3.502 5.116-7.977v-.005a12.597 12.597 0 0 0-.174-2.052C4.394 1.752 2.64-.61.546-.939A2.13 2.13 0 0 0 .024-1" style="fill:#006577;fill-opacity:1;fill-rule:nonzero;stroke:none" transform="rotate(180 21.709 22.216) scale(1.33333)"/><path d="M0 0a7.851 7.851 0 0 0-.059-1.042c-.246-2.624-1.472-4.722-3.039-5.32a2.472 2.472 0 0 0-.899-.169C-6.215-6.534-8.018-3.616-8.023-.01c-.006 3.597 1.779 6.528 3.997 6.531C-1.809 6.524-.005 3.606 0 0" style="fill:#fff;fill-opacity:1;fill-rule:nonzero;stroke:none" transform="rotate(180 26.288 16.78) scale(1.33333)"/><path d="M0 0c.251.047.481.045.721.137C2.123.672 3.215 2.641 3.44 5.036c.041.31.059.629.058.993v.001c-.006 3.266-1.619 6.023-3.523 6.023h-.003c-.891-.001-1.746-.598-2.407-1.679-.706-1.156-1.094-2.701-1.091-4.352C-3.521 2.757-1.907 0-.001 0Zm.008-1h-.012C-2.533-1-4.52 2.083-4.526 6.021c-.003 1.833.437 3.563 1.238 4.875.85 1.389 2.006 2.155 3.259 2.157h.004c2.53 0 4.516-3.082 4.523-7.02a8.206 8.206 0 0 0-.064-1.109C4.172 2.133 2.854-.12 1.078-.797A2.98 2.98 0 0 0 .008-1" style="fill:#006577;fill-opacity:1;fill-rule:nonzero;stroke:none" transform="rotate(180 28.953 20.801) scale(1.33333)"/><path d="M0 0c-.247-2.624-1.473-4.722-3.039-5.32-.68.646-1.127 1.836-1.137 3.197-.003 2.061 1.027 3.73 2.284 3.735C-1.106 1.61-.409.974 0 0" style="fill:#006577;fill-opacity:1;fill-rule:nonzero;stroke:none" transform="rotate(180 26.328 17.474) scale(1.33333)"/><path d="M0 0c-.477-2.939-2.043-5.164-3.95-5.464-.561.781-.933 1.953-.931 3.256-.004 2.362 1.167 4.276 2.619 4.282C-1.301 2.075-.456 1.248 0 0" style="fill:#006577;fill-opacity:1;fill-rule:nonzero;stroke:none" transform="rotate(180 18.764 18.87) scale(1.33333)"/><path d="M0 0c.791-.166 1.225-1.289.969-2.509-.255-1.22-1.103-2.075-1.894-1.91-.79.165-1.224 1.289-.969 2.509S-.791.165 0 0" style="fill:#006577;fill-opacity:1;fill-rule:nonzero;stroke:none" transform="rotate(180 39.35 29.852) scale(1.33333)"/><path d="M0 0c-.438 0-1.011-.587-1.209-1.532-.103-.49-.077-.989.069-1.367.07-.18.229-.491.513-.55.284-.058.555.161.69.298.287.289.51.735.612 1.224C.887-.913.538-.103.093-.009A.48.48 0 0 1 0 0m-.534-4.459a1.5 1.5 0 0 0-.298.031c-.545.114-.998.539-1.24 1.168-.218.563-.259 1.249-.116 1.933C-1.871.186-.78 1.197.297.97h.001C1.375.744 1.971-.619 1.654-2.132c-.143-.683-.456-1.296-.881-1.723-.388-.393-.852-.604-1.307-.604" style="fill:#006577;fill-opacity:1;fill-rule:nonzero;stroke:none" transform="rotate(180 39.48 30.172) scale(1.33333)"/><path d="M0 0c1.113-.282 1.66-1.911 1.223-3.639C.786-5.367-.471-6.54-1.583-6.258c-1.113.281-1.661 1.911-1.224 3.639C-2.37-.891-1.113.282 0 0" style="fill:#006577;fill-opacity:1;fill-rule:nonzero;stroke:none" transform="rotate(180 35.709 31.423) scale(1.33333)"/><path d="M0 0c-.411 0-.778-.278-.976-.463-.461-.43-.818-1.077-1.006-1.821-.363-1.433.031-2.82.861-3.031.83-.206 1.836.825 2.199 2.257.188.744.181 1.483-.019 2.08-.102.301-.346.826-.842.952H.216A.892.892 0 0 1 0 0m-.902-6.343a1.9 1.9 0 0 0-.465.059c-1.401.355-2.097 2.22-1.585 4.246.235.928.694 1.747 1.294 2.306.658.615 1.411.855 2.12.674C1.171.764 1.719.194 2.006-.659c.262-.778.276-1.716.041-2.645C1.591-5.106.353-6.343-.902-6.343" style="fill:#006577;fill-opacity:1;fill-rule:nonzero;stroke:none" transform="rotate(180 35.935 31.729) scale(1.33333)"/><path d="M0 0a.692.692 0 1 0-1.384 0A.692.692 0 0 0 0 0" style="fill:#006577;fill-opacity:1;fill-rule:nonzero;stroke:none" transform="rotate(180 19.52 26.172) scale(1.33333)"/><path d="M0 0a1.077 1.077 0 1 0-2.154 0A1.077 1.077 0 0 0 0 0" style="fill:#006577;fill-opacity:1;fill-rule:nonzero;stroke:none" transform="rotate(180 16.346 26.89) scale(1.33333)"/><path d="M0 0a1.076 1.076 0 1 0-2.153 0A1.076 1.076 0 0 0 0 0" style="fill:#006577;fill-opacity:1;fill-rule:nonzero;stroke:none" transform="rotate(180 18.767 28.916) scale(1.33333)"/><path d="M37.927 2.018a2.515 2.515 0 0 0-1.488.377l-.309.2c-4.893 3.173-7.372 8.88-6.718 14.413.106.894.293 1.773.56 2.653h.012c.093.333.2.653.334.986.013.04.027.068.04.108-3.626 3.16-5.8 6.639-6.413 10.359a20.286 20.286 0 0 1-7.547 12.72C5.33 52.462 1.678 62.53 6.09 72.17c1.627 3.546 4.413 6.638 7.826 8.705 4.28 2.573 8.734 3.867 13.32 3.867a25.692 25.692 0 0 0 6.28-.799c.307-.08.602-.16.908-.24 1.44 4.88 4.32 8.133 8.04 8.92.586.12 1.172.185 1.759.185s1.161-.065 1.734-.185c.214-.04.44-.094.653-.16h.013c.28-.08.546-.175.813-.268.213-.08.427-.159.627-.252 1.467-.627 2.881-1.613 4.215-2.92l.238-.24c-.313 2.095-.7 4.164-1.115 6.217h2.064c.217-1.043.437-2.085.625-3.137.254-1.333.414-2.68.56-4.027.107-.907.266-1.894.72-2.707.533-.974 1.173-1.907 1.64-2.907.48-1.026.986-2.026 1.44-3.066.44-1.027.868-2.067 1.28-3.107.454-1.134.988-2.28 1.548-3.48 1.36-2.934 2.758-5.973 3.092-9.2.493.16.88.44 1.146.892.453.76.52 1.761.547 2.801.133 3.334-.186 6.706-.492 9.973-.174 1.827-.347 3.708-.453 5.588A234.687 234.687 0 0 0 64.784 95h2.002c.002-4 .11-8.107.334-12.272.093-1.84.266-3.706.439-5.506.32-3.333.64-6.773.506-10.226-.04-1.254-.133-2.573-.826-3.746-.547-.947-1.427-1.615-2.547-1.908-1.854-.48-3.894.173-5.08.867-2.187 1.28-3.814 3.36-5.307 5.254-1.787 2.293-3.96 4.28-5.853 5.933-4.174 3.627-8.226 6.147-12.426 7.707-.414.147-.827.279-1.227.412-6.92 2.214-13.6 1.415-19.84-2.345-3.08-1.867-5.588-4.64-7.054-7.84-5.387-11.76 3.787-21.293 9.72-25.92a22.237 22.237 0 0 0 8.293-13.975c.574-3.426 2.694-6.678 6.307-9.638.013-.014.014-.042.041-.055 2.093-1.72 4.733-3.373 7.84-4.906l.119-.067c.013 0 .026 0 .04-.013a.558.558 0 0 0 .16-.08c5.866-2.854 17.104-6.907 26.478-1.827.586.307 1.148.666 1.681 1.04a17.38 17.38 0 0 1-1.96 1.56c-.454.307-.587.92-.28 1.387a1.02 1.02 0 0 0 1.387.279 18.628 18.628 0 0 0 2.933-2.44.838.838 0 0 0 .307-.265.258.258 0 0 0 .066-.135 18.065 18.065 0 0 0 4.747-10.84.497.497 0 0 1 .4-.453.489.489 0 0 1 .547.201c.267.414.533.826.773 1.266 3.214 5.827 2.452 12.867-1.508 17.853l-.039.04a16.074 16.074 0 0 1-3.107 2.974.988.988 0 0 0-.227 1.387c.2.28.508.412.815.412.2 0 .4-.052.586-.186.8-.586 1.546-1.24 2.226-1.92-.093.08.413 1.52.453 1.708.147.6.28 1.212.4 1.826.228 1.253.4 2.52.534 3.787.227 2.28.32 4.585.36 6.879.053 2.613.267 5.214.36 7.814.094 2.28.187 4.56.294 6.84.213 4.787.466 9.572.76 14.346.293 4.76.64 9.534 1.066 14.281.31 3.516.676 7.018 1.098 10.51h6.685c-.313-.77-1-1.39-1.996-1.778-.853-.333-1.88-.439-2.947-.359-.08-.733-.16-1.507-.24-2.254a.12.12 0 0 1-.014-.066c.773-.294 1.441-.747 1.908-1.32.613-.694.92-1.56.826-2.467-.106-1-.667-1.88-1.574-2.48a3.918 3.918 0 0 0-1.014-.468c-.013-.013-.04-.011-.052-.011-.134-.04-.266-.095-.412-.121-.04-.014-.096-.026-.149-.04a.972.972 0 0 1-.185-.027c-.027 0-.054-.014-.08-.027-.52-.374-.428-3.507-.428-3.92-.227-10.867-1.12-21.733-1.586-32.586-.254-5.76-.16-11.588-1.307-17.268a33.827 33.827 0 0 0-1.226-4.558c4.253-5.587 5.013-13.335 1.466-19.762a16.9 16.9 0 0 0-.867-1.426 2.466 2.466 0 0 0-2.68-1.013h-.027a.102.102 0 0 0-.066.027c-1.014.293-1.733 1.146-1.813 2.199a16.16 16.16 0 0 1-3.8 9.16c-.027-.013-.054-.04-.08-.052a18.462 18.462 0 0 0-2.067-1.293c-5.227-2.84-10.92-3.08-16.053-2.227-1.067.16-2.108.385-3.12.639-.48.12-.946.24-1.413.373a49.793 49.793 0 0 0-7.08 2.707c0-.014 0-.012-.014-.026a12.944 12.944 0 0 1-.027-9.068 2.567 2.567 0 0 0-2.217-3.469zm-.156 1.99c.133 0 .254.08.32.133a.59.59 0 0 1 .174.666c-1.28 3.494-1.241 7.241.106 10.655-2.427 1.253-4.56 2.572-6.387 3.959-1.893-5.56.227-11.892 5.254-15.159l.254-.16a.531.531 0 0 1 .279-.093zm24.6 59.266c-.32 2.88-1.64 5.707-2.907 8.453-.546 1.174-1.119 2.388-1.586 3.588-1.146 2.853-2.52 6.132-4.386 9.026-.227.346-.468.694-.721 1.04-.76 1.027-1.746 2.188-2.96 3.174-1.212.987-2.626 1.786-4.253 2.106a6.482 6.482 0 0 1-2.68 0c-2.973-.627-5.333-3.385-6.547-7.559a4.43 4.43 0 0 0 .387-.135c1.2-.44 2.4-.972 3.586-1.572.52 1.187 1.294 2.04 2.254 2.52a3.86 3.86 0 0 0 1.68.373c.56 0 1.146-.12 1.746-.36 2.36-.946 4.56-3.613 5.867-7.146.587-1.56.92-3.174 1.027-4.734 1.04-1.04 2.093-2.174 3.053-3.4 1.387-1.787 2.827-3.626 4.693-4.72a5.738 5.738 0 0 1 1.747-.654z" style="fill:#006577;fill-opacity:1;fill-rule:nonzero;stroke:none;stroke-width:1.33333325" transform="matrix(-1 0 0 1 92.528 0)"/><g clip-path="url(#a)" style="opacity:.38999903" transform="rotate(180 107.405 147.809) scale(1.33333)"><path d="M0 0c.053-1.04-.385-1.907-.979-1.937-.594-.031-1.118.787-1.171 1.827-.054 1.04.385 1.907.979 1.938C-.578 1.858-.053 1.04 0 0" style="fill:#006577;fill-opacity:1;fill-rule:nonzero;stroke:none" transform="translate(146.172 159.772)"/></g><path d="M76.413 91.569c-.792.041-1.376 1.197-1.304 2.582.015.3.064.584.133.848h2.668a4.17 4.17 0 0 0 .066-.992c-.07-1.387-.772-2.478-1.563-2.438z" style="opacity:.5;fill:#006577;fill-opacity:1;fill-rule:nonzero;stroke:none;stroke-width:1.33333325" transform="matrix(-1 0 0 1 92.528 0)"/><g clip-path="url(#b)" style="opacity:.38999903" transform="rotate(180 107.405 147.809) scale(1.33333)"><path d="M0 0c-1.04-.042-1.903.406-1.926 1-.024.594.8 1.109 1.84 1.151 1.04.042 1.903-.406 1.926-1C1.864.557 1.041.042 0 0" style="fill:#006577;fill-opacity:1;fill-rule:nonzero;stroke:none" transform="translate(131.844 208.638)"/></g><g clip-path="url(#c)" style="opacity:.38999903" transform="rotate(180 107.405 147.809) scale(1.33333)"><path d="M0 0c-.504-.129-.973-.001-1.047.287-.074.288.275.626.779.756.504.129.973.001 1.047-.287C.853.468.504.13 0 0" style="fill:#006577;fill-opacity:1;fill-rule:nonzero;stroke:none" transform="translate(127.626 208.384)"/></g><g clip-path="url(#d)" style="opacity:.38999903" transform="rotate(180 107.405 147.809) scale(1.33333)"><path d="M0 0c-.521.006-.94.251-.937.549.003.297.428.534.949.528.52-.006.94-.252.936-.549C.945.231.521-.005 0 0" style="fill:#006577;fill-opacity:1;fill-rule:nonzero;stroke:none" transform="translate(136.582 209.175)"/></g></svg>