<?xml version="1.0" encoding="utf-8"?>
<!-- Generator: Adobe Illustrator 27.7.0, SVG Export Plug-In . SVG Version: 6.00 Build 0)  -->
<svg version="1.1" id="Layer_1" xmlns="http://www.w3.org/2000/svg" xmlns:xlink="http://www.w3.org/1999/xlink" x="0px" y="0px"
	 viewBox="0 0 512 512" style="enable-background:new 0 0 512 512;" xml:space="preserve">
<style type="text/css">
	.st0{fill:#181818;}
	.st1{fill:#9F9F9F;}
</style>
<path class="st0" d="M434.9,512H77.1C34.5,512,0,477.5,0,434.9V77.1C0,34.5,34.5,0,77.1,0h357.7C477.5,0,512,34.5,512,77.1v357.7
	C512,477.5,477.5,512,434.9,512z"/>
<g>
	<path class="st1" d="M186.4,378.3c1-38.5,33-68.9,71.5-67.8c37.1,1,66.9,30.8,67.8,67.8c0,38.5-31.2,69.6-69.7,69.7
		C217.6,448,186.4,416.8,186.4,378.3z"/>
	<path class="st1" d="M116.7,342.8c-19.6,8.5-28.6,31.4-20.1,51c8.5,19.6,31.4,28.6,51,20.1c14.1-6.2,23.3-20.1,23.3-35.5
		c0-15.9-9.6-29.5-23.2-35.5V226l74.3,49.6V172.1l34.4-52.3l33.7,50.2v105.6l74.3-49.6v116.9c-19.6,8.5-28.6,31.4-20.1,51
		c8.5,19.6,31.4,28.6,51,20.1c14.1-6.2,23.3-20.1,23.3-35.5c0-15.9-9.6-29.5-23.2-35.5V168.4l-74.3,49.6v-57.6L255.7,64L191,162.8
		v55.1l-74.3-49.6V342.8z"/>
</g>
</svg>
