<?xml version="1.0" encoding="UTF-8"?><svg id="Layer_1" xmlns="http://www.w3.org/2000/svg" width="30.52" height="31.66" viewBox="0 0 30.52 31.66"><path d="M12.22,16.24l-8,11.4M12.22,16.24l16.5-4.1M12.52,16.64l4.6,7.7M10.62,14.34l-6.8-5.6M13.22,13.14l4-8.3" style="fill:none; stroke:#332931; stroke-width:.8px;"/><path d="M.02,28.24c-.2-2,1.4-3.7,3.4-3.9,2-.2,3.7,1.3,3.9,3.4.2,2-1.3,3.7-3.4,3.9-2,.2-3.7-1.4-3.9-3.4" style="fill:#332931; fill-rule:evenodd;"/><path d="M16.02,24.44c0-.6.6-1.1,1.3-1,.6,0,1.1.6,1,1.3,0,.6-.6,1.1-1.3,1-.6,0-1.1-.6-1-1.3M2.32,9.64c-.4-.8,0-1.8.7-2.2.8-.4,1.8,0,2.2.7.4.8,0,1.8-.7,2.2-.8.4-1.8,0-2.2-.7M26.12,12.04c0-1.2.8-2.3,2-2.4,1.2,0,2.3.8,2.4,2,0,1.2-.8,2.3-2,2.4-1.2,0-2.3-.8-2.4-2M16.22.64c1.2-1,3-.8,4,.4,1,1.2.8,3-.4,4-1.2,1-3,.8-4-.4-1-1.2-.8-3,.4-4M8.62,11.64c2.3-1.9,5.7-1.5,7.6.8,1.9,2.3,1.5,5.7-.8,7.6s-5.7,1.5-7.6-.8-1.5-5.7.8-7.6" style="fill:#332931; fill-rule:evenodd;"/></svg>