<?xml version="1.0" encoding="UTF-8"?><svg id="Layer_1" xmlns="http://www.w3.org/2000/svg" width="122.09" height="125.51" viewBox="0 0 122.09 125.51"><path d="M112.31,38.41c-4.88.42-8.5,4.6-8.08,9.47,0,.7.28,1.39.42,2.09l-35.66,8.78c-.56-3.48-2.09-6.83-4.46-9.75-1.95-2.37-4.18-4.18-6.83-5.43l10.45-21.73c3.48,1.11,7.38.42,10.45-1.95,4.74-3.9,5.57-11,1.67-15.74-3.9-4.74-11-5.57-15.74-1.67-4.74,3.9-5.57,11-1.67,15.74,1.11,1.25,2.37,2.23,3.76,2.93l-10.45,21.73c-7.1-3.06-15.6-2.09-22.01,3.06-.7.56-1.39,1.25-1.95,1.81l-11.56-9.47c.98-1.81,1.11-3.9,0-5.85-1.53-3.2-5.43-4.46-8.64-2.93-3.2,1.53-4.46,5.43-2.93,8.64s5.43,4.46,8.64,2.93c.7-.42,1.39-.84,1.81-1.39l11.42,9.33c-6.41,7.8-6.55,19.08,0,27.16,1.53,1.95,3.34,3.48,5.29,4.6l-13.09,18.81c-2.65-2.09-6.13-3.2-9.75-2.93-7.94.56-13.93,7.52-13.37,15.46.56,7.94,7.52,13.93,15.6,13.37,7.94-.56,13.93-7.52,13.37-15.6-.28-3.76-1.95-6.96-4.46-9.33l13.37-19.08c6.27,3.34,14.07,3.2,20.48-.28l7.52,12.54c-.98.7-1.67,1.81-1.81,3.2-.28,2.51,1.53,4.74,3.9,5.01,2.51.28,4.74-1.53,5.01-3.9.28-2.51-1.53-4.74-3.9-5.01h-1.67l-7.52-12.68c.56-.42,1.11-.84,1.67-1.25,5.85-4.74,8.5-11.98,7.8-18.94l36.22-8.92c1.67,2.93,4.74,4.74,8.36,4.46,4.88-.42,8.5-4.6,8.08-9.47-.42-4.88-4.6-8.5-9.47-8.08" style="fill:#fefefe;"/></svg>