<?xml version="1.0" encoding="UTF-8"?>
<svg id="Layer_1" xmlns="http://www.w3.org/2000/svg" version="1.1" xmlns:serif="http://www.serif.com/" xmlns:xlink="http://www.w3.org/1999/xlink" viewBox="0 0 100 35">
  <!-- Generator: Adobe Illustrator 29.2.0, SVG Export Plug-In . SVG Version: 2.1.0 Build 108)  -->
  <defs>
    <style>
      .st0 {
        fill: #332931;
        fill-rule: evenodd;
      }

      .st1 {
        fill: none;
        stroke: #332931;
        stroke-width: .8px;
      }
    </style>
  </defs>
  <g id="icinga-logo-dark">
    <g>
      <path class="st0" d="M26.9,32.6c0,.4.2.8.5,1,.3.3.6.4,1,.4s.8-.1,1-.4c.3-.3.4-.6.4-1v-14.7c0-.4-.1-.8-.4-1-.3-.3-.6-.4-1-.4s-.8.1-1,.4-.4.6-.4,1v14.7Z"/>
      <path class="st0" d="M32.5,28.1c0,.9.2,1.7.5,2.5.3.8.8,1.5,1.4,2.1.6.6,1.3,1,2.1,1.4.8.3,1.6.5,2.5.5s1.4-.1,2-.3c.6-.2,1.2-.5,1.7-.9.5-.3,1-.8,1.4-1.3.4-.5.7-1,.9-1.7,0-.2.1-.3.1-.6,0-.3-.1-.7-.4-1-.3-.3-.6-.5-1.1-.5s-.5,0-.7.2c-.3.2-.5.4-.6.6-.3.7-.7,1.2-1.3,1.6-.6.5-1.3.7-2.1.7s-.9-.1-1.4-.3c-.5-.2-.8-.4-1.2-.8-.3-.3-.6-.7-.8-1.2-.2-.4-.3-.9-.3-1.4v-5.8c0-.5.1-.9.3-1.4.2-.4.4-.8.8-1.1.3-.3.7-.6,1.2-.8.4-.2.9-.3,1.4-.3.8,0,1.4.2,2.1.6.6.4,1,1,1.3,1.6.3.6.7.9,1.3.9s.8-.2,1.1-.5c.2-.3.4-.6.4-1s0-.2,0-.4c0-.1,0-.3-.2-.4-.2-.6-.6-1.1-1-1.6-.4-.5-.9-.9-1.4-1.2-.5-.3-1.1-.6-1.7-.8-.6-.2-1.2-.3-1.9-.3s-1.8.2-2.5.5c-.8.3-1.5.8-2.1,1.4-.6.6-1,1.3-1.4,2.1-.3.8-.5,1.7-.5,2.5v5.8Z"/>
      <path class="st0" d="M48.1,32.6c0,.4.2.8.5,1s.6.4,1,.4.8-.1,1-.4c.3-.3.4-.6.4-1v-14.7c0-.4-.1-.8-.4-1-.3-.3-.6-.4-1-.4s-.8.1-1,.4c-.3.3-.4.6-.4,1v14.7ZM53.7,32.6c0,.4.1.8.4,1s.6.4,1,.4.8-.1,1-.4c.3-.3.4-.6.4-1v-10.3c0-.5.1-.9.3-1.4.2-.4.4-.8.8-1.1.3-.3.7-.6,1.2-.8.4-.2.9-.3,1.4-.3s1,0,1.4.3c.4.2.8.5,1.2.8.3.3.6.7.8,1.1.2.5.3.9.3,1.4v10.3c0,.4.2.8.5,1,.3.3.6.4,1,.4s.8-.1,1-.4c.3-.3.4-.6.4-1v-10.3c0-.9-.2-1.7-.5-2.5-.3-.8-.8-1.5-1.4-2.1-.6-.6-1.3-1.1-2.1-1.4-.8-.3-1.7-.5-2.5-.5s-1.7.2-2.5.5c-.8.3-1.5.8-2.1,1.4s-1,1.3-1.4,2.1c-.3.8-.5,1.6-.5,2.5v10.3Z"/>
      <path class="st0" d="M69.7,28.1c0,.9.2,1.7.5,2.5.3.8.8,1.5,1.4,2.1.6.6,1.3,1,2.1,1.4.8.3,1.6.5,2.5.5s1.7-.2,2.5-.5c.8-.3,1.5-.8,2.1-1.4.6-.6,1.1-1.3,1.4-2.1.3-.8.5-1.6.5-2.5v-2.2c0-.4-.1-.8-.4-1-.3-.3-.6-.4-1-.4h-2.9c-.4,0-.8.1-1,.4-.3.3-.4.6-.4,1s.1.8.4,1c.3.3.6.4,1,.4h1.4v.7c0,.5,0,.9-.3,1.4-.2.5-.5.8-.8,1.2-.3.3-.7.6-1.1.8-.5.2-.9.3-1.4.3s-.9-.1-1.4-.3c-.5-.2-.8-.4-1.2-.8-.3-.3-.6-.7-.8-1.2-.2-.4-.3-.9-.3-1.4v-5.8c0-.5.1-.9.3-1.4.2-.4.4-.8.8-1.1.3-.3.7-.6,1.2-.8.4-.2.9-.3,1.4-.3.8,0,1.4.2,2.1.6.6.4,1,1,1.3,1.7.1.3.3.5.6.6.2.1.5.2.8.2.5,0,.8-.2,1.1-.5.2-.3.4-.6.4-1v-.3c0,0,0-.2,0-.3-.2-.6-.6-1.2-1-1.7-.4-.5-.9-.9-1.4-1.3-.5-.3-1.1-.6-1.7-.8-.6-.2-1.3-.3-2-.3s-1.7.2-2.5.5c-.8.3-1.5.8-2.1,1.4-.6.6-1,1.3-1.4,2.1-.3.8-.5,1.7-.5,2.5v5.8Z"/>
      <path class="st0" d="M94.3,26.4h-4.3c.2-.5.4-.9.6-1.3.2-.4.3-.8.5-1.2.2-.4.3-.8.5-1.2.2-.4.3-.8.5-1.2l2.1,5ZM84.4,32.1c0,0,0,.2,0,.3,0,.1,0,.2,0,.3,0,.3.1.7.4,1,.2.3.6.5,1,.5s.5,0,.8-.2c.2-.1.4-.4.6-.7.3-.7.5-1.3.8-2,.3-.6.5-1.3.8-1.9h6.8l1.7,3.9c.2.6.7.9,1.3.9s.8-.2,1.1-.5c.2-.3.4-.6.4-1s0-.3-.1-.6l-6.4-14.9c-.1-.3-.4-.6-.8-.8,0,0-.2,0-.3-.1-.1,0-.2,0-.3,0-.6,0-1,.3-1.3.9l-6.4,14.9Z"/>
      <path class="st1" d="M12.2,16.2l-8,11.4M12.2,16.2l16.5-4.1M12.5,16.6l4.6,7.7M10.6,14.3l-6.8-5.6M13.2,13.1l4-8.3"/>
      <path class="st0" d="M0,28.2c-.2-2,1.4-3.7,3.4-3.9,2-.2,3.7,1.3,3.9,3.4.2,2-1.3,3.7-3.4,3.9-2,.2-3.7-1.4-3.9-3.4"/>
      <path class="st0" d="M16,24.4c0-.6.6-1.1,1.3-1,.6,0,1.1.6,1,1.3,0,.6-.6,1.1-1.3,1-.6,0-1.1-.6-1-1.3M2.3,9.6c-.4-.8,0-1.8.7-2.2.8-.4,1.8,0,2.2.7.4.8,0,1.8-.7,2.2-.8.4-1.8,0-2.2-.7M26.1,12c0-1.2.8-2.3,2-2.4,1.2,0,2.3.8,2.4,2,0,1.2-.8,2.3-2,2.4-1.2,0-2.3-.8-2.4-2M16.2.6c1.2-1,3-.8,4,.4,1,1.2.8,3-.4,4-1.2,1-3,.8-4-.4-1-1.2-.8-3,.4-4M8.6,11.6c2.3-1.9,5.7-1.5,7.6.8,1.9,2.3,1.5,5.7-.8,7.6-2.3,1.9-5.7,1.5-7.6-.8-1.9-2.3-1.5-5.7.8-7.6"/>
    </g>
  </g>
</svg>