<svg xmlns="http://www.w3.org/2000/svg" width="794" height="790" fill="none"><path fill="#FED10A" d="m305.182 335.227 188.364 85.818L683.364 254.5a198.99 198.99 0 0 0 4-41.818A212.186 212.186 0 0 0 537.983 9.858a212.184 212.184 0 0 0-237.892 82.824l-31.636 164 36.727 78.545Z"/><path fill="#24BBB1" d="M110.273 534.5a205.85 205.85 0 0 0-4 42.545 213.019 213.019 0 0 0 389.091 119.637l31.272-163.273-41.818-80-189.091-86.182L110.273 534.5Z"/><path fill="#EF5098" d="m109.182 208.976 129.091 30.545 28.363-146.545a101.815 101.815 0 0 0-159.417 51.567 101.81 101.81 0 0 0 1.963 64.433"/><path fill="#17A8E0" d="M97.91 239.591A142.184 142.184 0 0 0 .096 371.406a142.18 142.18 0 0 0 91.63 136.185l181.091-163.636-33.091-70.91-141.818-33.454Z"/><path fill="#93C83E" d="M528.091 696.682a101.819 101.819 0 0 0 157.091-116L556.455 550.5l-28.364 146.182Z"/><path fill="#0779A1" d="m554.273 516.682 141.818 33.091a142.186 142.186 0 0 0 97.812-131.815 142.18 142.18 0 0 0-91.63-136.185L516.818 444.318l37.455 72.364Z"/></svg>