<?xml version="1.0" encoding="UTF-8"?>
<svg id="Layer_1" xmlns="http://www.w3.org/2000/svg" version="1.1" viewBox="0 0 288.9 100">
  <!-- Generator: Adobe Illustrator 29.2.0, SVG Export Plug-In . SVG Version: 2.1.0 Build 108)  -->
  <defs>
    <style>
      .st0 {
        fill: #fefefe;
      }
    </style>
  </defs>
  <path id="Mask" class="st0" d="M78.8,48.5c-.8.8-1.2,1.8-1.2,3v42.6c0,1.2.4,2.2,1.3,3,.9.8,1.8,1.2,3,1.2s2.2-.4,3-1.2,1.2-1.8,1.2-3v-42.6c0-1.2-.4-2.2-1.3-3s-1.8-1.2-3-1.2-2.2.4-3,1.2ZM103.3,60.4c.5-1.3,1.3-2.4,2.2-3.3,1-.9,2.1-1.7,3.3-2.2,1.3-.5,2.6-.8,4.1-.8,2.2,0,4.2.6,5.9,1.9,1.7,1.2,3,2.8,3.8,4.7.8,1.7,2.1,2.6,3.9,2.6s2.4-.4,3.1-1.3c.7-.9,1.1-1.8,1.1-2.9s0-.7-.1-1.1c0-.4-.2-.8-.4-1.2-.7-1.7-1.7-3.2-2.8-4.5-1.2-1.4-2.5-2.6-4-3.6-1.5-1-3.1-1.8-4.9-2.3-1.8-.5-3.6-.8-5.5-.8s-5.1.5-7.4,1.5c-2.3,1-4.3,2.3-6,4-1.7,1.7-3,3.7-4,6-1,2.3-1.5,4.7-1.5,7.3v16.8c0,2.6.5,5,1.5,7.3,1,2.3,2.4,4.3,4.1,6,1.7,1.7,3.7,3.1,6,4.1,2.3,1,4.7,1.5,7.3,1.5s3.9-.3,5.7-.9c1.8-.6,3.5-1.4,5-2.4,1.5-1.1,2.8-2.3,4-3.8,1.2-1.4,2.1-3,2.8-4.8.2-.5.3-1,.3-1.6,0-1-.4-2-1.1-2.9-.7-.9-1.8-1.3-3.1-1.3s-1.4.2-2.1.7c-.7.5-1.3,1.1-1.7,1.8-.8,1.9-2.1,3.5-3.8,4.8-1.7,1.3-3.7,1.9-5.9,1.9s-2.7-.3-4-.8c-1.3-.5-2.4-1.3-3.3-2.2-1-.9-1.7-2-2.3-3.3-.6-1.3-.9-2.6-.9-4v-16.8c0-1.4.3-2.7.8-4M143.1,47.2c-1.2,0-2.2.4-3,1.2-.8.8-1.2,1.8-1.2,3v42.6c0,1.2.4,2.2,1.3,3,.9.8,1.8,1.2,3,1.2s2.2-.4,3-1.2,1.2-1.8,1.2-3v-42.6c0-1.2-.4-2.2-1.3-3s-1.8-1.2-3-1.2M187.4,51.2c-1.7-1.7-3.7-3.1-6-4.1-2.3-1-4.7-1.5-7.3-1.5s-5,.5-7.3,1.5c-2.3,1-4.3,2.4-6,4.1-1.7,1.7-3,3.7-4,6-1,2.3-1.5,4.7-1.5,7.3v29.7c0,1.2.4,2.2,1.2,3,.8.8,1.8,1.2,3,1.2s2.2-.4,3-1.2c.8-.8,1.2-1.8,1.2-3v-29.7c0-1.4.3-2.7.8-4,.5-1.3,1.3-2.4,2.2-3.3s2-1.7,3.3-2.2c1.3-.5,2.6-.8,4.1-.8s2.8.3,4.1.8c1.3.5,2.4,1.3,3.3,2.2,1,.9,1.7,2,2.2,3.3.5,1.3.8,2.6.8,4v29.7c0,1.2.4,2.2,1.3,3,.9.8,1.8,1.2,3,1.2s2.2-.4,3-1.2c.8-.8,1.2-1.8,1.2-3v-29.7c0-2.6-.5-5-1.5-7.3-1-2.3-2.4-4.3-4.1-6M235,70.6h-8.4c-1.2,0-2.2.4-3,1.2-.8.8-1.2,1.8-1.2,2.9s.4,2.2,1.2,3c.8.8,1.8,1.2,3,1.2h4.2v2.1c0,1.4-.3,2.7-.8,4-.5,1.3-1.3,2.4-2.2,3.3-.9.9-2,1.7-3.3,2.2-1.3.5-2.6.8-4.1.8s-2.7-.3-4-.8c-1.3-.5-2.4-1.3-3.3-2.2-1-.9-1.7-2-2.2-3.3-.5-1.3-.8-2.6-.8-4v-16.7c0-1.4.3-2.7.8-4,.5-1.3,1.3-2.4,2.2-3.3.9-.9,2-1.7,3.3-2.2,1.3-.5,2.6-.8,4.1-.8,2.2,0,4.2.6,5.9,1.9,1.7,1.2,3,2.8,3.8,4.8.4.8.9,1.4,1.6,1.9.7.4,1.4.6,2.2.6,1.3,0,2.4-.4,3.1-1.3.7-.9,1.1-1.8,1.1-2.9s0-.6,0-.9c0-.3,0-.6-.2-.8-.7-1.8-1.7-3.4-2.8-4.8-1.2-1.4-2.5-2.7-4-3.7-1.5-1-3.2-1.8-5-2.4-1.8-.6-3.7-.9-5.7-.9s-5,.5-7.3,1.5c-2.3,1-4.3,2.3-6,4-1.7,1.7-3.1,3.7-4.1,6-1,2.3-1.5,4.7-1.5,7.3v16.7c0,2.6.5,5,1.5,7.3,1,2.3,2.4,4.3,4.1,6,1.7,1.7,3.7,3.1,6,4.1,2.3,1,4.7,1.5,7.3,1.5s5-.5,7.3-1.5c2.3-1,4.3-2.4,6-4.1,1.7-1.7,3.1-3.7,4.1-6,1-2.3,1.5-4.7,1.5-7.3v-6.4c0-1.2-.4-2.2-1.2-3-.8-.8-1.8-1.2-3-1.2"/>
  <path class="st0" d="M260,76.1c.6-1.3,1.1-2.6,1.6-3.8.5-1.2,1-2.3,1.6-3.5.5-1.1,1-2.3,1.5-3.4.5-1.2,1-2.4,1.6-3.6l6.2,14.3h-12.5,0ZM288.5,92.6l-18.4-43.2c-.4-.9-1.2-1.7-2.2-2.2-.3-.2-.5-.3-.8-.3-.3,0-.6,0-.8,0-1.8,0-3,.9-3.9,2.6l-18.4,43.2c-.1.2-.2.5-.2.8,0,.3,0,.6,0,.9,0,1,.4,1.9,1.1,2.8.7.9,1.8,1.4,3.1,1.4s1.6-.2,2.2-.6c.7-.4,1.2-1.1,1.6-1.9.8-1.9,1.6-3.8,2.4-5.6.8-1.8,1.6-3.7,2.4-5.6h19.6l4.8,11.2c.7,1.7,2,2.6,3.9,2.6s2.3-.5,3.1-1.4c.7-.9,1.1-1.8,1.1-2.8s-.1-1-.4-1.6h0ZM81.4,27.9c-3.5.3-6.1,3.3-5.9,6.8,0,.5.2,1,.3,1.5l-25.9,6.4c-.5-2.5-1.5-4.9-3.2-7.1-1.4-1.7-3.1-3-4.9-4l7.6-15.8c2.5.8,5.4.3,7.6-1.4,3.5-2.8,4-7.9,1.2-11.4-2.8-3.5-7.9-4-11.4-1.2-3.5,2.8-4,7.9-1.2,11.4.8.9,1.7,1.7,2.7,2.2l-7.6,15.7c-5.2-2.2-11.3-1.5-16,2.3-.5.4-1,.9-1.4,1.3l-8.3-6.8c.7-1.3.8-2.8,0-4.2-1.1-2.3-3.9-3.3-6.2-2.1-2.3,1.1-3.3,3.9-2.1,6.2,1.1,2.3,3.9,3.3,6.2,2.1.5-.3,1-.6,1.4-1l8.2,6.7c-4.6,5.6-4.8,13.9,0,19.7,1.1,1.4,2.4,2.5,3.8,3.4l-9.5,13.7c-2-1.5-4.5-2.3-7.1-2.1-5.8.4-10.1,5.5-9.7,11.3.4,5.8,5.5,10.1,11.3,9.7,5.8-.4,10.1-5.5,9.7-11.3-.2-2.7-1.4-5.1-3.2-6.8l9.7-13.8c4.6,2.4,10.2,2.4,14.8-.2l5.4,9.1c-.7.5-1.3,1.3-1.4,2.3-.2,1.8,1.1,3.4,2.9,3.6,1.8.2,3.4-1.1,3.6-2.9.2-1.8-1.1-3.4-2.9-3.6-.4,0-.8,0-1.2,0l-5.5-9.2c.4-.3.8-.6,1.2-.9,4.2-3.4,6.2-8.7,5.6-13.7l26.2-6.5c1.2,2.1,3.5,3.4,6,3.2,3.5-.3,6.1-3.3,5.9-6.8-.3-3.5-3.3-6.1-6.8-5.9"/>
</svg>