<svg xmlns="http://www.w3.org/2000/svg" xml:space="preserve" id="svg2781" x="0" y="0" style="enable-background:new 0 0 564.2 553.5" version="1.1" viewBox="0 0 564.2 553.5"><style>.st0{fill:#4081ef}.st0,.st1,.st2,.st3,.st4{stroke:#512d8c;stroke-miterlimit:10}.st1{fill:#31a452}.st2{fill:#de7fb3}.st3{fill:#ffb800}.st4{fill:#e64132}</style><path d="M210.5 549.6c-2.2-.2-5.5-1-9.7-2.2-52.4-15.7-99-46.5-133.8-88.5-8.8-10.7-17.2-22.4-19.4-27.5-8.1-18.1-6.3-38.7 4.8-55.4 5-7.5 13.2-15 20.5-18.7 1.2-.6 54.1-20 55.8-20.4.5-.1.5.2-.3 2.1-.7 1.7-1 3.1-1.1 5.5l-.1 3.2 2.8 5.8c8.7 17.9 19.2 32.7 33.2 46.4 6.3 6.2 7.8 7.6 13.8 12.3 22.7 18.1 52 30.7 79.9 34.3 2.5.3 5 .8 5.7 1 2.8.9 7.7-.8 11-3.7l1.8-1.6-.2 4.8c-.1 2.7-.6 15.4-1 28.3-.6 20.3-.8 24-1.5 27.5-3.9 20.7-18.6 37.5-38.4 44.1-4.6 1.5-8 2.2-13.1 2.7-4.6.5-5.9.4-10.7 0z" class="st0"/><path d="M339.8 549.4c-4-.4-9.4-1.6-13.2-2.9-3.4-1.2-10-4.4-12.5-6.1-10.9-7.4-19-17.9-23.1-30-2.2-6.7-2.3-7.5-3.3-36.9-.5-14.9-.9-27.9-.9-28.9v-1.9l2.3 1.8c2.6 2 6.6 3.4 8.5 3.1.6-.1 3-.5 5.3-.8 37.7-5.3 71.2-22.2 97.4-49.1 12.2-12.5 21.4-25.5 29.9-42.4l3.5-7v-3.6c0-3.1-.1-3.8-1-5.7-.5-1.2-.9-2.1-.9-2.2.2-.2 55.3 20.1 56.9 20.9 2.6 1.3 6.6 4.1 9.9 7 9.2 7.7 16.1 19.4 18.8 31.8.7 3.1.8 4.8.8 11.3 0 8.6-.5 11.7-2.9 18.7-1.7 5-2.9 7.2-7.1 13.1-7.6 11-15.3 20.5-25.2 31.2-32.8 35.4-76.5 62.5-123.4 76.3-8 2.5-12.4 3-19.8 2.3z" class="st1"/><path d="M255.6 438c-25.9-4.2-50.7-14.9-71.7-31-5.2-4-8.7-7.1-14.1-12.4-12.7-12.5-21.9-24.9-30.5-41.4-2.3-4.4-2.4-4.7-2.4-7.1 0-8.8 8.5-15.2 16.9-12.7 5.6 1.7 9.6 6.8 9.7 12.2 0 2.6-.8 4.6-2.6 6.2-1.2 1.1-3.2 1.9-4.6 1.9-1.2 0-3.3-.8-4.3-1.6-2.1-1.8-2-1 .4 3.2 19.3 33.8 52.3 59.1 90 69.1 5.7 1.5 11.5 2.7 11.8 2.4.1-.1-.4-.8-1.3-1.6-5.1-4.5-2.3-11.7 5-12.8 5.4-.8 11.4 2.7 13.9 8 .8 1.7 1 2.5 1 5.3s-.1 3.5-1 5.3c-2 4.3-6.8 7.9-10.3 7.8-.9-.1-3.6-.5-5.9-.8z" class="st2"/><path d="M297.6 438.2c-3.4-1.3-6.4-4.3-7.8-8.1-1.1-2.9-.9-7.3.5-10.2 2.6-5.3 8.7-8.5 14.4-7.5 2.9.5 4.7 1.9 6 4.3.8 1.6 1 2.2.8 3.6-.3 2.2-.9 3.3-2.7 4.8-.8.7-1.4 1.4-1.3 1.5.5.5 13.4-2.7 21.3-5.4 33.6-11.3 62.5-35.1 80.4-66.1 2.5-4.4 2.6-5 .5-3.2-2.8 2.4-7 1.9-9.6-1-4-4.6-.7-13.8 6.1-16.9 2-.9 2.7-1 5.5-1 2.9 0 3.5.1 5.6 1.1 4.4 2.1 7.4 6.4 7.8 11 .2 2.2.1 2.3-2.2 6.9-23 45.9-67 78.1-117.2 85.9-5.5.9-6.3 1-8.1.3z" class="st0"/><path d="M211.1 398.5c-4.7-.9-8.7-2.7-12.9-5.9-10.8-8.1-13.5-22.3-6.6-33.7.7-1.2 1.1-2.2 1-2.4-.2-.2-1.2-.6-2.3-1.1-7.6-3-13-10.6-13.5-19.1-.5-7.4 3.1-15 9-19.4 1-.7 2.2-1.5 2.6-1.8.8-.4 68.9-22.7 69.4-22.7.2 0 .7.7 1.2 1.5s1.6 2.3 2.4 3.3c1.2 1.4 1.5 1.9 1.2 2.3-.2.3-6.9 9.5-14.8 20.5-15.9 21.9-15.5 21.3-13.4 23.4 1.3 1.3 2.9 1.4 4.4.3.6-.4 7.5-9.7 15.5-20.7 11.2-15.4 14.6-19.9 15-19.7.9.4 5.5 1.9 6.6 2.1l1 .2v35.3c0 39.7 0 38.8-2.5 44-2.6 5.3-7.2 9.3-12.7 11.2-3.7 1.3-6.8 1.6-10.2 1-5.5-.9-9.8-3.2-13.7-7.4l-2.2-2.4-.6.9c-3 4.3-8.6 8.1-14 9.5-2.8.9-7.8 1.2-9.9.8z" class="st1"/><path d="M342.9 398.5c-5.5-.9-9.9-3.2-14.3-7.6l-3.2-3.2-.7 1c-2.3 3.3-6.8 6.5-11.1 7.9-3.7 1.2-9.2 1.4-12.6.3-7.1-2.1-12.7-7.4-15.2-14.3l-.9-2.6v-74.2l1.8-.4c1-.2 2.7-.8 3.9-1.2 1.1-.5 2.1-.8 2.2-.7.1.1 6.5 9 14.4 19.9 7.8 10.9 14.7 20.1 15.2 20.5 2.2 1.9 5.4.4 5.4-2.6 0-1.4-1-2.9-13.8-20.5-7.6-10.5-14.2-19.6-14.7-20.4l-.9-1.3 1.4-1.7c.8-.9 1.9-2.5 2.5-3.4l1-1.6 34.4 11.2c18.9 6.2 35.1 11.6 35.9 12.1 6.8 4 11.1 11.3 11.1 19.1 0 4.1-.5 6.4-2.4 10.2-2 4.1-5.5 7.6-9.6 9.7-1.6.8-3.2 1.5-3.4 1.5-1 0-.9.7.3 2.6 2.8 4.3 4 8.5 3.9 13.7 0 8.1-3.7 15.2-10.6 20.3-6.5 4.8-13.4 6.7-20 5.7z" class="st3"/><path d="M53.9 341.9c-.5-.1-2.3-.4-3.9-.7-15.6-2.6-30.4-12.6-38.8-26.2-3.5-5.7-6.4-13.2-7.8-19.9-1.2-6.1-.8-28.1.8-43.1 4.5-43 19-84.3 42.2-120.7 6.5-10.2 14.9-21.5 18.2-24.6 17.8-16.6 43.1-20.5 64.8-10 4.3 2.1 8.8 5.1 12.7 8.6 2.8 2.4 5.8 6.1 20.9 25.5 9.7 12.5 17.8 22.8 17.9 23 .2.2-.9.4-3.2.4-2.5 0-4.1.2-5.7.7-2.1.7-2.6 1.1-7.9 6.3-8.2 8.1-14.4 15.3-20.3 23.9-15.5 22.2-25.4 47.7-28.8 74.8-2.2 16.9-1.6 37.5 1.6 52.3.3 1.4.5 2.8.4 3-.1.2.2 1.3.8 2.4 1.1 2.4 4.3 5.7 6.5 6.8l1.5.8-1.2.4c-.7.2-13.1 3.8-27.6 8-16.4 4.7-27.7 7.8-29.8 8.1-3.1.4-11.1.6-13.3.2z" class="st2"/><path d="M494.7 341.7c-2.1-.3-33.8-9.1-56.5-15.8l-2.5-.7 1.6-.8c3.4-1.7 7.2-6.6 7.3-9.6 0-.7.4-3.3.8-5.8 3.9-22.7 3.1-46.1-2.5-68.4-6.4-25.5-18.6-49.2-35.8-69.1-4.6-5.3-14.8-15.4-16.4-16.1-2.4-1.1-5.1-1.6-8-1.4l-2.7.2 1.2-1.5c.7-.8 8.5-10.8 17.5-22.3 8.9-11.5 17.2-21.8 18.5-23.1 2.6-2.7 7-6.2 10.3-8.2 19.3-11.6 43-11.1 61.6 1.2 5.4 3.6 8.2 6.2 12.3 11.7 26.4 34.5 44 73.7 52.3 116.2 3.4 17.6 4.9 33.3 5 52.4 0 13-.2 14.8-2.5 21.8-8.4 26.2-34.5 42.8-61.5 39.3z" class="st3"/><path d="M133.9 318.5c-2-.5-4.6-1.9-6-3.3-2.5-2.4-3.1-3.5-3.7-7.3-4.4-27.3-2.2-54 6.7-79.3 5.3-15.1 13.5-30.5 23-43.1 5.8-7.8 16.6-19.5 19-20.7 4.7-2.4 11.3-1.2 15.2 2.7 5.4 5.4 5.2 13.9-.3 19.1-4.3 4-9.4 4.4-12.6.9-1.7-1.9-2.2-3.9-1.7-6.4.2-1.1.3-2 .2-2.2-.3-.3-3.6 3.3-8.3 9.1-17.6 21.8-28.5 48-31.9 76.5-1.1 9.3-1 26.4.1 34.6.3 1.8.8 1.9 1.4.1.9-2.6 4-4.7 6.8-4.7 3 0 5.9 2.2 7.5 5.7.6 1.3.8 2.3.8 5.2 0 3.3-.1 3.8-1.1 5.7-1.4 2.7-4.6 5.7-7.1 6.6-2.5.9-6.1 1.2-8 .8z" class="st4"/><path d="M422.6 318.5c-3.7-.6-7.7-3.6-9.4-7.1-3.8-7.5.1-16.9 6.9-16.9 3.1 0 5.8 2 6.9 5.2.4 1.2.5 1.3.7.7 1.3-3.7 1.7-26.4.6-35.7-3.6-29.6-14.5-55.3-33-77.9-5.5-6.7-8.4-9.4-7.1-6.6.7 1.4.5 4.3-.3 5.9-.9 1.7-3.2 3.5-5 3.8-3.2.6-7.9-1.6-10.2-4.8-6.5-8.8-.5-21.2 10.4-21.4 4.6-.1 5.2.3 11.2 6.4 12.1 12.3 21.1 24.9 28.8 40.3 13.2 26.3 18.6 54.9 16.1 84.5-.5 5.6-2 15.7-2.6 17.1-1.3 2.8-4.8 5.5-8.4 6.5-2.3.4-3.1.4-5.6 0z" class="st1"/><path d="M178.2 307.2c-6-1.3-12.2-6.2-14.9-11.7-3.4-7-3.1-15.1.9-21.6.7-1.2 1.2-2.3 1.1-2.4-.1-.1-1.1-.6-2.1-1-3.9-1.5-8.1-4.8-10.7-8.3-4.6-6.2-6.1-14.6-3.9-22.1 2.9-10.3 9.4-16.8 19.1-19.3 2.8-.7 9-.8 11.7 0 1.1.3 2.2.5 2.4.5.2 0 .3-.7.3-1.5 0-2.9.8-5.8 2.4-9.2 5.2-10.8 18.1-15.5 29-10.5 2.7 1.2 6.2 3.8 7.8 5.8.7.8 10.3 14 21.5 29.4l20.3 27.9-1.5 1.8c-.8 1-1.9 2.6-2.5 3.5-.6 1-1.2 1.7-1.5 1.6-4.5-1.7-46.7-15-47.7-15-1.9 0-3.1 1.3-3.1 3.2 0 1 .2 1.7.8 2.3.6.6 7.8 3.1 24.5 8.5l23.7 7.7-.1 4.3-.1 4.3-32.6 10.5c-18 5.9-33.9 10.9-35.2 11.2-3.1.7-6.6.7-9.6.1z" class="st0"/><path d="M372.5 306.8c-1.8-.5-17.5-5.6-35-11.3l-31.8-10.4 1-4.3v-4.3l22.6-7.7c15-4.9 24-8 24.6-8.5.7-.6.9-1.1.9-2.2 0-2-1.2-3.3-3.1-3.3-.9 0-10.5 2.9-24.7 7.5-12.8 4.1-23.4 7.5-23.6 7.5-.1 0-.7-.8-1.3-1.9-.6-1-1.6-2.5-2.2-3.2-.7-.7-1.2-1.5-1.2-1.6 0-.2 9.6-13.5 21.4-29.6 18.9-26 21.6-29.6 23.6-31.1 5.7-4.4 13.1-5.8 19.7-3.9 9 2.7 16.1 11.6 16.1 20.3 0 2.3-.1 2.3 3.1 1.5 4.7-1.1 11.5-.5 16 1.5 4.6 2 9 6 11.5 10.2 2.1 3.6 3.9 9.4 4.2 13.2.3 5.2-1.1 10.7-4 15.3-2.6 4.1-7.8 8.3-12.1 9.8-.9.3-1.7.8-1.7 1 0 .2.4 1 .9 1.7 2.4 3.6 3.6 7.7 3.5 12.7 0 5.8-2.1 10.7-6.4 15.1-4 4.1-8.9 6.3-14.9 6.5-3.3.4-4.3.3-7.1-.5z" class="st4"/><path d="M276.2 298.9c-6.1-1.6-11.4-6.8-13.2-12.9-.7-2.4-.7-7.5 0-9.9 1.7-5.8 6.6-10.8 12.3-12.5 2.7-.8 7.2-.9 10-.2 6.2 1.6 11.6 7.1 13.2 13.3 1.6 6-.3 12.6-5 17.3-4.6 4.6-11.3 6.5-17.3 4.9z" style="fill:#f2f5fb;stroke:#512d8c;stroke-miterlimit:10"/><path d="M248.3 229.8c-13.3-18.3-21.2-29.6-22-31.1-1.4-3-1.9-5.5-1.9-9.4 0-14.1 13.1-24.4 27.1-21.4 1.4.3 2.6.5 2.7.5s.3-1.3.4-2.8c.8-10.7 8.4-19.6 18.9-22.4 3.9-1 10.6-1 14.5 0 8.9 2.3 15.9 9.3 18.2 18.2.4 1.5.7 3.7.7 4.9 0 1.2.1 2.1.3 2.1s1.5-.3 3-.6c7.4-1.6 15.2.7 20.5 6 4.3 4.3 6.6 9.6 6.6 15.6 0 4-.6 6.5-2.4 10-.6 1.2-10.4 15-21.7 30.7-17.8 24.5-20.8 28.5-21.4 28.3-.4-.1-1.9-.6-3.4-1.1-1.5-.5-2.9-.9-3.3-.9-.7 0-.7-.8-.3-25.5v-25.5l-1.4-.9c-1-1.1-2.5-1.5-3.8-.9-2 .8-2-.5-1.8 27.2v25.8h-1.2c-.5-.2-2.4.3-4 .9s-3.1 1.1-3.2 1.1c-.2-.1-9.6-13-21.1-28.8z" class="st2"/><path d="M210.9 164.8c-4.1-.9-7.7-3.6-9.6-7.4-1.4-2.8-1.7-7.3-.5-10.3 1.7-4.5 3.9-6.1 15.6-11.2 15.8-7 31.4-11.1 49.2-12.9 7.3-.8 23.2-.8 30.6 0 17.4 1.8 33.3 6 49.1 13 7.3 3.2 12.5 6.1 13.6 7.5 4.3 5.6 3.8 12.7-1.1 17.6-5.1 5.1-12.9 5.4-18.1.7-2-1.8-3-3.5-3.4-5.6-.7-4 2.9-8.1 7.3-8.2 1.4 0 1.5-.1 1.1-.5-.3-.3-2.2-1.2-4.3-2.1-33.2-14.5-70.5-16.4-105-5.4-7.5 2.4-19 7.2-18.6 7.7.1.2.8.3 1.6.3 5.6 0 9.1 6.2 6.1 10.8-2.9 4.5-8.6 7.1-13.6 6z" class="st3"/><path d="M174.7 123.4c-8.9-13.1-16.8-25.1-17.5-26.6-1.6-3.3-3.6-9.2-4.4-13-2.6-12.5-.9-25.8 5-37.5C162 38 169 30 176.4 25c5-3.4 6.1-3.9 12.8-6.3 23.1-8.2 47.2-13.1 73.4-15 7.5-.6 28.5-.6 36.3 0 25.5 1.8 50.6 6.9 73 14.8 6.4 2.2 8.2 3.1 13.1 6.5 9.8 6.6 18.1 17.5 22 29.2 2.2 6.5 2.7 10 2.7 17.9 0 7.9-.5 11.3-2.7 17.9-2.3 6.8-3.7 9.1-20.3 33.6l-16.1 23.8-.4-2.2c-.2-1.2-.9-3-1.4-4-1-1.8-4.4-5.6-4.7-5.2-.1.1-1.2-.4-2.4-1.1-9.1-5.2-21.9-10.5-33.2-13.9-37-11-77.2-8.8-113 6.1-4.9 2.1-17.7 8.4-19.2 9.5-2.2 1.6-5.1 6.8-5.1 9 0 .4-.1 1-.3 1.2.1.2-6.2-8.8-16.2-23.4z" class="st4"/></svg>