<?xml version="1.0" encoding="utf-8"?>
<!-- Generator: Adobe Illustrator 27.7.0, SVG Export Plug-In . SVG Version: 6.00 Build 0)  -->
<svg version="1.1" id="Layer_1" xmlns="http://www.w3.org/2000/svg" xmlns:xlink="http://www.w3.org/1999/xlink" x="0px" y="0px"
	 viewBox="0 0 512 512" style="enable-background:new 0 0 512 512;" xml:space="preserve">
<style type="text/css">
	.st0{fill:#010101;}
	.st1{fill:#FA2921;}
	.st2{fill:#ED79B5;}
	.st3{fill:#FFB400;}
	.st4{fill:#1E83F7;}
	.st5{fill:#18C249;}
</style>
<g>
	<path class="st0" d="M507.8,445.7c0.1-6.9,0-13.8,0-20.7c-0.1-7.3-0.1-14.7-0.1-22c0-12.3,0-24.6-0.1-36.9
		c0-15.9-0.1-31.8-0.1-47.7c0-13.8-0.1-27.6-0.1-41.4c0-4.4,0-8.8,0-13.2c0-7-0.1-14.1-0.1-21.1c0-2.6,0-5.2,0-7.8
		c0-3.6,0-7.2,0-10.8c0-1.1,0-2.2,0-3.3c0.1-13.3-3.6-23.1-12.6-32.9c-12.8-12.4-24.6-16-42.1-16.5c-1.9,0-1.9,0-3.9,0
		c-1.2,0-2.5,0-3.7,0c-4,0-5.8-0.1-9.2-2.3c-0.9-0.7-1.7-1.5-2.6-2.2c-10.3-7.8-20.7-15.7-30.8-23.8c-6.7-5.5-13.5-10.8-20.4-16
		c-11.2-8.3-22.3-16.8-33.1-25.6c-8.4-6.9-16.8-13.6-25.4-20.1c-7.3-5.6-14.5-11.2-21.7-16.9c-3.7-3-7.3-5.9-11.5-8.2
		c-0.8-0.3-1.5-0.6-2.2-0.9c3.6-4.8,4.6-8.5,4.6-14.5c0-0.9,0-1.9,0-2.8c0.1-2.8,0.1-5.5-0.1-8.3c-1.4-9.8-7.5-17.5-15.1-23.5
		c-14.2-9-34.4-8.7-47.1,2.5c-7.1,7.7-11.4,15.2-11.3,25.9c0.1,1.4,0.1,1.4,0.1,2.8c0,4.9,0.2,9.7,1,14.6c0.3,0.9,0.5,1.8,0.7,2.7
		c-9.8,7.8-19.6,15.7-29.6,23.2c-6.7,4.9-13.3,9.9-19.7,15.2c-9.2,7.5-18.5,14.9-28,22.1c-12.8,9.7-25.4,19.5-38,29.4
		c-1.6,1.2-3.1,2.5-4.7,3.7c-3.8,3-7.7,5.8-11.2,9.2c-0.7,0.7-1.4,1.4-2.1,2.1C76.8,170,68,171.9,53.1,171.6
		c-14.5-0.3-24.1,4.2-35.2,13.5C4.8,198.5,3.6,213.6,3.7,231.3c0,2.6,0,5.1,0,7.6c0,6.9,0,13.8,0,20.7c0,5.9,0,11.7,0,17.6
		c0,13.7,0,27.5,0,41.3c0,14.3,0,28.6,0,42.9c-0.1,12.4-0.1,24.8-0.1,37.2c0,7.3,0,14.7,0,22.1c0,7,0,14.1,0,21.1c0,2.6,0,5.2,0,7.8
		c-0.1,13.1-1.1,25.2,5.9,36.8c0.9,1.2,0.9,1.2,1.7,2.4c2.3,3.4,4.5,6.1,7.4,9C34,511.7,34,511.7,76,511.4c5.1,0,10.3,0,15.4,0
		c10.1,0.1,20.2,0,30.3,0c11.9-0.1,23.7-0.1,35.6-0.1c21.2,0,42.3,0,63.5-0.1c20.5,0,41.1-0.1,61.7-0.1c1.3,0,2.5,0,3.8,0
		s2.5,0,3.8,0c2.6,0,5.1,0,7.7,0c1.3,0,2.5,0,3.8,0c19.8,0,39.5-0.1,59.2-0.1c7.1,0,14.2,0,21.3,0c11.4,0,22.8-0.1,34.2-0.1
		c5.2,0,10.4,0,15.6,0c4.9,0,9.7,0,14.5,0c2.7,0,2.7,0,5.3,0c5.8,0.1,11.6,0.1,17.4-0.5c10.7-2.8,20.7-8.4,27.5-17.3
		c0.7-0.9,1.4-1.9,2.1-2.8c8.9-11.9,9.2-22.8,9.1-37C507.8,450.8,507.8,448.2,507.8,445.7z M241.1,29.7c3.3-4,3.3-4,6.7-6.7
		c2.3-2,4.8-1.5,7.8-1.6c5,0,6.8,0.2,11.2,2.9c4.4,4.8,4.3,8.3,4.2,14.6c-0.4,4.2-1.6,6.5-4.3,9.7c-3.6,2.9-6.1,3.9-10.7,4.6
		c-5.3-0.8-8.1-2.6-12.2-6C240.4,41.6,240,36.1,241.1,29.7z M104.6,161.9c0.8-0.6,1.5-1.2,2.3-1.9c1.2-1,1.2-1,2.5-2s1.3-1,2.6-2.1
		c7.5-5.9,15.1-11.8,22.7-17.6c7.2-5.5,14.4-11.2,21.4-16.9c6-4.8,12.1-9.6,18.2-14.2c5.2-4,10.3-8,15.5-12
		c7.6-6,15.2-11.9,22.8-17.8c1-0.8,2.1-1.6,3.1-2.4c1.5-1.1,1.5-1.1,3-2.3c0.9-0.7,1.7-1.3,2.6-2c1.3-1,1.3-1,2.5-1.9
		c0.9-0.8,1.9-1.5,2.8-2.3c2.5-1.7,2.5-1.7,5.2-1.4c2.6,1.1,5,2.3,7.4,3.8c8.4,4.2,16.3,5.3,25.4,2.6c3-1.2,6-2.4,9-3.7
		c6.5-2.8,6.5-2.8,9.2-3c2.8,1.7,2.8,1.7,5.9,4.4c1.2,1,2.4,2,3.6,3c2,1.7,2,1.7,4,3.4c3,2.4,6,4.8,9.1,7.1c1.6,1.3,3.2,2.5,4.9,3.8
		c0.8,0.6,1.6,1.3,2.5,1.9c2.3,1.8,4.7,3.7,7,5.5c9.4,7.4,18.9,14.8,28.5,22c6.2,4.7,12.3,9.6,18.4,14.5c7.9,6.4,16,12.5,24.1,18.6
		c20.7,15.4,20.7,15.4,27.9,21.9c0,0.4,0,0.9,0,1.3c-107.3,0-214.5,0-325.1,0C101.2,164.6,101.2,164.6,104.6,161.9z M475.3,230
		c0,1.8,0,3.7,0,5.5c0,1.9,0,3.9,0,5.8c0,5.3,0,10.6-0.1,15.8c0,5.5,0,11,0,16.5c0,10.4,0,20.9-0.1,31.3c0,11.9-0.1,23.8-0.1,35.7
		c0,24.5-0.1,48.9-0.2,73.4c-3.9-3.9-7.6-7.6-10.9-12.1c-0.7-1-1.5-2-2.2-3c-0.8-1.1-1.5-2.1-2.3-3.2c-0.8-1.1-1.6-2.2-2.5-3.4
		c-6.2-8.5-12.3-17-18.4-25.5c-6.3-8.8-12.7-17.4-19.1-26.1c-3.2-4.3-6.4-8.7-9.3-13.2c-2.4-3.6-3.9-5.5-7.7-7.5
		c-5.3-0.7-8.2-0.8-12.6,2.2c-4,3.6-7.2,7.6-10.4,11.8c-4.9,6.4-10,12.7-15.3,18.9c-6,7-11.8,14.3-17.4,21.6
		c-5.1,6.6-5.1,6.6-9.9,7.9c-3.7,0.4-6.1,0.4-9.7-0.7c-5.2-4.4-9.2-9.5-13.4-14.8c-7.2-9-7.2-9-16.1-16.1c-4.7-0.7-4.7-0.7-9.4,1.3
		c-3.4,3.1-5.6,6.9-8.1,10.7c-1.6,2.4-3.1,4.9-4.7,7.3c-1.1,1.7-2.1,3.3-3.2,5c-6.3,10-6.3,10-11,11.3c-4.6,0.2-8,0.2-11.8-2.5
		c-2.6-2.9-4.8-5.8-7-9c-0.5-0.7-1-1.4-1.5-2.1c-2.8-4.1-5.6-8.3-8.4-12.5c-3.7-5.6-7.4-11.1-11.2-16.6c-0.6-0.9-1.3-1.8-1.9-2.8
		c-4-5.8-8-11.6-12.1-17.3c-2.1-3-4.1-6-6.1-9.1c-0.6-1-1.3-1.9-2-2.9c-1.3-1.9-2.6-3.9-3.8-5.8c-3.4-5.1-6.2-9.1-12.1-11.3
		c-5.9,0-8.6,0.6-13.1,4.5c-1.2,1.3-2.4,2.7-3.5,4.1c-0.6,0.7-1.3,1.4-1.9,2.2c-1.9,2.2-3.8,4.5-5.6,6.7c-1.1,1.3-2.1,2.5-3.2,3.8
		c-3,3.6-5.9,7.3-8.9,10.9c-7.3,9-14.8,17.9-22.3,26.7c-3.8,4.5-7.6,9-11.2,13.6c-5,6.3-10.2,12.4-15.5,18.5
		c-5.1,6-10.1,12-15.1,18.1c-3.4,4.2-6.9,8.3-10.4,12.5c-4.5,5.3-9,10.7-13.4,16.1c-4.7,5.7-9.4,11.4-14.1,17
		c-0.6,0.8-1.3,1.6-2,2.4c-1.6,1.8-3.2,3.7-4.8,5.5c-0.4,0-0.9,0-1.3,0c-0.1-31.2-0.2-62.5-0.2-93.7c0-14.5,0-29-0.1-43.5
		c0-12.6-0.1-25.3-0.1-37.9c0-6.7,0-13.4,0-20.1c0-6.3,0-12.6,0-18.9c0-2.3,0-4.6,0-6.9c0-3.2,0-6.3,0-9.5c0-1.8,0-3.5,0-5.4
		c0.7-6.4,3-9.5,7.1-14.4c6.5-3.7,13.1-3,20.6-3c1.7,0,3.4,0,5.1,0c4.7,0,9.4,0,14.1,0c5.1,0,10.1,0,15.2,0c9.9,0,19.9,0,29.8,0
		c8.1,0,16.1,0,24.2,0c1.1,0,2.3,0,3.5,0c2.3,0,4.7,0,7,0c21.9,0,43.8,0,65.7,0c18.8,0,37.6,0,56.3,0c21.8,0,43.6,0,65.4,0
		c2.3,0,4.7,0,7,0c1.1,0,2.3,0,3.5,0c8.1,0,16.1,0,24.2,0c9.8,0,19.7,0,29.5,0c5,0,10,0,15,0c5.4,0,10.9,0,16.3,0c2.4,0,2.4,0,4.8,0
		c8.1,0.1,13.7,0.2,19.9,6.1c3.9,5,4.5,8.7,4.5,15C475.3,227.4,475.3,227.4,475.3,230z"/>
</g>
<g id="Flower_00000077325900055813483940000000694823054982625702_">
	<path class="st1" d="M290.9,264.1c4,3.6,7.3,7.4,9.3,11c3.6-6.4,6-14,6-18.9v-0.1c0-7.2-7.2-10-13.3-10s-13.3,2.8-13.3,10
		c0,0.1,0,0.2,0,0.4C283,258,287.1,260.7,290.9,264.1z"/>
	<path class="st2" d="M268.9,283.6c2.5-2.8,6.4-5.8,10.7-8.4c4.6-2.7,9.3-4.6,13.3-5.5c-5-5.4-11.5-10-16.1-11.5h-0.1
		c-6.8-2.2-11.7,3.7-13.6,9.6s-1.5,13.5,5.4,15.8C268.6,283.5,268.8,283.6,268.9,283.6z"/>
	<path class="st3" d="M322.7,267.7c-1.9-5.9-6.8-11.8-13.6-9.6c-0.1,0-0.2,0.1-0.4,0.1c-0.4,3.7-1.7,8.5-3.7,13.1
		c-2.1,4.9-4.8,9.2-7.5,12.3c7.2,1.4,15.2,1.4,19.8-0.1h0.1C324.1,281.2,324.6,273.5,322.7,267.7z"/>
	<path class="st4" d="M286.8,289.4c-1.2-5.2-1.5-10.2-1.1-14.4c-6.7,3.1-13.1,7.8-16,11.7c0,0,0,0-0.1,0.1
		c-4.2,5.8-0.1,12.3,4.9,15.9s12.4,5.6,16.6-0.2c0.1-0.1,0.1-0.2,0.2-0.3C289.6,298.9,287.9,294.3,286.8,289.4z"/>
	<path class="st5" d="M316.1,286.4c-3.7,0.8-8.6,1-13.6,0.5c-5.4-0.5-10.2-1.7-14-3.4c0.9,7.3,3.4,14.9,6.2,18.8c0,0,0,0,0.1,0.1
		c4.2,5.8,11.7,3.9,16.6,0.2c5-3.6,9.1-10.1,4.9-15.9C316.2,286.7,316.2,286.6,316.1,286.4z"/>
</g>
</svg>
