<?xml version="1.0" encoding="utf-8"?>
<!-- Generator: Adobe Illustrator 27.7.0, SVG Export Plug-In . SVG Version: 6.00 Build 0)  -->
<svg version="1.1" id="Flower" xmlns="http://www.w3.org/2000/svg" xmlns:xlink="http://www.w3.org/1999/xlink" x="0px" y="0px"
	 viewBox="0 0 512 512" style="enable-background:new 0 0 512 512;" xml:space="preserve">
<style type="text/css">
	.st0{fill:#FA2921;}
	.st1{fill:#ED79B5;}
	.st2{fill:#FFB400;}
	.st3{fill:#1E83F7;}
	.st4{fill:#18C249;}
</style>
<g id="Flower_00000077325900055813483940000000694823054982625702_">
	<path class="st0" d="M238.8,155.5c33.5,29.7,60.5,61.5,77.9,91.5c29.9-53.4,49.8-116.9,50.1-157.3c0-0.3,0-0.5,0-0.8
		c0-59.8-59.7-83.1-111.1-83.1S144.6,29,144.6,88.8c0,0.8,0,1.9,0,3.2C173.3,104.8,207.2,127.6,238.8,155.5z"/>
	<path class="st1" d="M55.9,318.6c21-23.3,53.1-48.6,89.4-69.9c38.6-22.7,77.2-38.6,111.1-45.8c-41.6-44.9-95.8-83.5-134.1-96.2
		c-0.3-0.1-0.5-0.2-0.7-0.2C64.6,87.8,24,137.4,8.1,186.3S-4.1,299.1,52.8,317.6C53.6,317.8,54.6,318.2,55.9,318.6z"/>
	<path class="st2" d="M503.9,185.4C488,136.6,447.4,87,390.5,105.5c-0.8,0.3-1.8,0.6-3.1,1c-3.3,31.2-14.4,70.5-31.2,109.1
		c-17.9,41.1-39.8,76.6-62.9,102.4c60,11.9,126.5,11.3,165.1-1c0.3-0.1,0.5-0.2,0.7-0.2C516.1,298.2,519.7,234.3,503.9,185.4z"/>
	<path class="st3" d="M205,366.3c-9.7-43.7-12.8-85.3-9.3-119.8c-55.5,25.7-109,65.3-133,97.8c-0.2,0.2-0.3,0.4-0.5,0.6
		c-35.2,48.4-0.6,102.3,41,132.5c41.6,30.2,103.5,46.4,138.7-1.9c0.5-0.7,1.1-1.5,1.9-2.6C228.2,445.8,214.1,407.4,205,366.3z"/>
	<path class="st4" d="M448.8,341.9c-30.7,6.5-71.5,8.1-113.4,4c-44.6-4.3-85.1-14.2-116.8-28.2c7.2,60.8,28.4,123.8,51.9,156.7
		c0.2,0.2,0.3,0.4,0.5,0.6c35.2,48.4,97.1,32.2,138.7,1.9c41.6-30.2,76.2-84.1,41-132.5C450.2,343.8,449.6,343,448.8,341.9z"/>
</g>
</svg>
