<svg version="1.1" id="Layer_1" xmlns:x="ns_extend;" xmlns:i="ns_ai;" xmlns:graph="ns_graphs;" xmlns="http://www.w3.org/2000/svg" xmlns:xlink="http://www.w3.org/1999/xlink" x="0px" y="0px" viewBox="0 0 87.6 103.9" style="enable-background:new 0 0 87.6 103.9;" xml:space="preserve">
 <style type="text/css">
  .st0{fill:#93C73F;}
	.st1{fill:#58C8E5;}
	.st2{fill:#EAE617;}
	.st3{fill:#4FBFAE;}
	.st4{fill:#0076BA;}
	.st5{fill:#78BB43;}
	.st6{fill:#0B9DD9;}
 </style>
 <metadata>
  <sfw xmlns="ns_sfw;">
   <slices>
   </slices>
   <sliceSourceBounds bottomLeftOrigin="true" height="103.9" width="87.6" x="312.2" y="0">
   </sliceSourceBounds>
  </sfw>
 </metadata>
 <g>
  <g>
   <g>
    <g>
     <path class="st0" d="M16.5,45.5L0.7,33.8C0.5,33.6,0,33.1,0,32.5c0-0.2,0.2-0.9,0.7-1.3l15.8-11.7c1.3-0.9,3.1-0.9,4.4,0
					l15.4,11.7c0.2,0.2,0.7,0.7,0.7,1.3c0,0.2-0.2,0.9-0.7,1.3L20.9,45.5C19.6,46.4,17.4,46.4,16.5,45.5">
     </path>
     <path class="st1" d="M16.5,83.3L0.7,71.6C0.5,71.4,0,70.9,0,70.3c0-0.2,0.2-0.9,0.7-1.3l15.8-11.7c1.3-0.9,3.1-0.9,4.4,0
					L36.3,69c0.2,0.2,0.7,0.7,0.7,1.3c0,0.2-0.2,0.9-0.7,1.3L20.9,83.3C19.6,84.4,17.4,84.4,16.5,83.3">
     </path>
     <path class="st2" d="M41.8,26.6L26.4,15c-0.7-0.2-0.7-0.7-0.7-1.3c0-0.2,0.2-0.9,0.7-1.3L41.8,0.7c1.3-0.9,3.1-0.9,4.4,0
					L62,12.4c0.2,0.2,0.7,0.7,0.7,1.3c0,0.2-0.2,0.9-0.7,1.3L46.2,26.7C44.9,27.5,42.7,27.5,41.8,26.6">
     </path>
     <path class="st3" d="M41.8,64.9L26.4,53.2c-0.7-0.2-0.7-0.7-0.7-1.3c0-0.2,0.2-0.9,0.7-1.3l15.4-11.7c1.3-0.9,3.1-0.9,4.4,0
					L62,50.6c0.2,0.2,0.7,0.7,0.7,1.3c0,0.2-0.2,0.9-0.7,1.3L46.2,64.9C44.9,65.3,42.7,65.3,41.8,64.9">
     </path>
     <path class="st4" d="M41.8,103.3L26.4,91.6c-0.7-0.2-0.7-0.7-0.7-1.3c0-0.2,0.2-0.9,0.7-1.3l15.4-11.6c1.3-0.9,3.1-0.9,4.4,0
					L62,89c0.2,0.2,0.7,0.7,0.7,1.3c0,0.2-0.2,0.9-0.7,1.3l-15.8,11.7C44.9,104.2,42.7,104.2,41.8,103.3">
     </path>
     <path class="st5" d="M67.1,45.5L51.3,33.8c-0.2-0.2-0.7-0.7-0.7-1.3c0-0.2,0.2-0.9,0.7-1.3l15.8-11.7c1.3-0.9,3.1-0.9,4.4,0
					l15.4,11.7c0.2,0.2,0.7,0.7,0.7,1.3c0,0.2-0.2,0.9-0.7,1.3L71.5,45.5C70.2,46.4,68.2,46.4,67.1,45.5">
     </path>
     <path class="st6" d="M67.1,83.3L51.3,71.6c-0.2-0.2-0.7-0.7-0.7-1.3c0-0.2,0.2-0.9,0.7-1.3l15.8-11.7c1.3-0.9,3.1-0.9,4.4,0
					L86.9,69c0.2,0.2,0.7,0.7,0.7,1.3c0,0.2-0.2,0.9-0.7,1.3L71.5,83.3C70.2,84.4,68.2,84.4,67.1,83.3">
     </path>
    </g>
   </g>
  </g>
 </g>
</svg>