<svg xmlns="http://www.w3.org/2000/svg" xml:space="preserve" style="enable-background:new 0 0 87.6 103.9" viewBox="0 0 87.6 103.9"><path d="M16.5 45.5.7 33.8c-.2-.2-.7-.7-.7-1.3 0-.2.2-.9.7-1.3l15.8-11.7c1.3-.9 3.1-.9 4.4 0l15.4 11.7c.2.2.7.7.7 1.3 0 .2-.2.9-.7 1.3L20.9 45.5c-1.3.9-3.5.9-4.4 0" style="fill:#93c73f"/><path d="M16.5 83.3.7 71.6c-.2-.2-.7-.7-.7-1.3 0-.2.2-.9.7-1.3l15.8-11.7c1.3-.9 3.1-.9 4.4 0L36.3 69c.2.2.7.7.7 1.3 0 .2-.2.9-.7 1.3L20.9 83.3c-1.3 1.1-3.5 1.1-4.4 0" style="fill:#58c8e5"/><path d="M41.8 26.6 26.4 15c-.7-.2-.7-.7-.7-1.3 0-.2.2-.9.7-1.3L41.8.7c1.3-.9 3.1-.9 4.4 0L62 12.4c.2.2.7.7.7 1.3 0 .2-.2.9-.7 1.3L46.2 26.7c-1.3.8-3.5.8-4.4-.1" style="fill:#eae617"/><path d="M41.8 64.9 26.4 53.2c-.7-.2-.7-.7-.7-1.3 0-.2.2-.9.7-1.3l15.4-11.7c1.3-.9 3.1-.9 4.4 0L62 50.6c.2.2.7.7.7 1.3 0 .2-.2.9-.7 1.3L46.2 64.9c-1.3.4-3.5.4-4.4 0" style="fill:#4fbfae"/><path d="M41.8 103.3 26.4 91.6c-.7-.2-.7-.7-.7-1.3 0-.2.2-.9.7-1.3l15.4-11.6c1.3-.9 3.1-.9 4.4 0L62 89c.2.2.7.7.7 1.3 0 .2-.2.9-.7 1.3l-15.8 11.7c-1.3.9-3.5.9-4.4 0" style="fill:#0076ba"/><path d="M67.1 45.5 51.3 33.8c-.2-.2-.7-.7-.7-1.3 0-.2.2-.9.7-1.3l15.8-11.7c1.3-.9 3.1-.9 4.4 0l15.4 11.7c.2.2.7.7.7 1.3 0 .2-.2.9-.7 1.3L71.5 45.5c-1.3.9-3.3.9-4.4 0" style="fill:#78bb43"/><path d="M67.1 83.3 51.3 71.6c-.2-.2-.7-.7-.7-1.3 0-.2.2-.9.7-1.3l15.8-11.7c1.3-.9 3.1-.9 4.4 0L86.9 69c.2.2.7.7.7 1.3 0 .2-.2.9-.7 1.3L71.5 83.3c-1.3 1.1-3.3 1.1-4.4 0" style="fill:#0b9dd9"/></svg>