<svg xmlns="http://www.w3.org/2000/svg" width="400" height="400"><path d="M-151.786 359.629v112.764l97.069-56.043V303.148Z" style="fill:#ddbc91;fill-opacity:1;stroke:#000;stroke-width:1.5622561;stroke-linecap:round;stroke-linejoin:round;stroke-miterlimit:4;stroke-dasharray:none;stroke-opacity:1" transform="translate(460.051 -416.239) scale(1.71328)"/><path d="M-151.786 359.629v112.764l-97.068-56.043V303.148Z" style="fill:#d9b383;fill-opacity:1;stroke:#000;stroke-width:1.5622561;stroke-linecap:round;stroke-linejoin:round;stroke-miterlimit:4;stroke-dasharray:none;stroke-opacity:1" transform="translate(460.051 -416.239) scale(1.71328)"/><path d="m-54.717 303.148-97.069 56.48-97.068-56.48 97.068-56.173z" style="fill:#ddbc91;fill-opacity:1;stroke:#000;stroke-width:1.5622561;stroke-linecap:round;stroke-linejoin:round;stroke-miterlimit:4;stroke-dasharray:none;stroke-opacity:1" transform="translate(460.051 -416.239) scale(1.71328)"/><g style="opacity:1;vector-effect:none;fill:#f3f4e4;fill-opacity:1;stroke:#000;stroke-width:1.05833328;stroke-linecap:round;stroke-linejoin:round;stroke-miterlimit:4;stroke-dasharray:none;stroke-dashoffset:0;stroke-opacity:1"><path d="M78.834 129.191v141.305L200 340.451l121.166-69.955V129.191L200 199.693Z" style="vector-effect:none;fill:#f3f4e4;fill-opacity:1;stroke:#000;stroke-width:2.600106;stroke-linecap:round;stroke-linejoin:round;stroke-miterlimit:4;stroke-dasharray:none;stroke-dashoffset:0;stroke-opacity:1" transform="translate(-5.882 -5.882) scale(1.02941)"/><path d="m94.77 127.761-49.318 28.697-49.319-28.697 49.319-28.54Z" style="vector-effect:none;fill:#f3f4e4;fill-opacity:1;stroke:#000;stroke-width:1.05833328;stroke-linecap:round;stroke-linejoin:round;stroke-miterlimit:4;stroke-dasharray:none;stroke-dashoffset:0;stroke-opacity:1" transform="translate(85.05 -196.005) scale(2.52905)"/></g><path d="M-151.786 275.009v84.49l-72.801 42.541v-84.9z" style="opacity:1;vector-effect:none;fill:#d9dbbc;fill-opacity:1;stroke:#000;stroke-width:1.56225622;stroke-linecap:round;stroke-linejoin:round;stroke-miterlimit:4;stroke-dasharray:none;stroke-dashoffset:0;stroke-opacity:1" transform="translate(460.051 -416.239) scale(1.71328)"/><path d="M-151.786 275.009v84.49l72.802 42.541v-84.9z" style="opacity:1;vector-effect:none;fill:#eaeccf;fill-opacity:1;stroke:#000;stroke-width:1.56225622;stroke-linecap:round;stroke-linejoin:round;stroke-miterlimit:4;stroke-dasharray:none;stroke-dashoffset:0;stroke-opacity:1" transform="translate(460.051 -416.239) scale(1.71328)"/><g style="opacity:1;vector-effect:none;fill:#90a8d8;fill-opacity:1;stroke:#000;stroke-width:1.58749998;stroke-linecap:butt;stroke-linejoin:miter;stroke-miterlimit:4;stroke-dasharray:none;stroke-dashoffset:0;stroke-opacity:1"><path d="M45.452 156.458v57.293l49.318-28.474V127.76zm0 0v57.293l-49.319-28.474V127.76z" style="vector-effect:none;fill:#90a8d8;fill-opacity:1;stroke:#000;stroke-width:1.58749998;stroke-linecap:round;stroke-linejoin:round;stroke-miterlimit:4;stroke-dasharray:none;stroke-dashoffset:0;stroke-opacity:1" transform="translate(123.367 -63.892) scale(1.68604)"/><path d="m94.77 127.761-49.318 28.697-49.319-28.697 49.319-28.54Z" style="vector-effect:none;fill:#90a8d8;fill-opacity:1;stroke:#000;stroke-width:1.58749998;stroke-linecap:round;stroke-linejoin:round;stroke-miterlimit:4;stroke-dasharray:none;stroke-dashoffset:0;stroke-opacity:1" transform="translate(123.367 -63.892) scale(1.68604)"/></g><path d="M-587.597 399.253v126.39l108.797-62.815v-126.88Zm0 0v126.39l-108.798-62.815v-126.88Zm108.797-63.305-108.797 63.305-108.798-63.305 108.798-62.961z" style="opacity:1;vector-effect:none;fill:#90a8d8;fill-opacity:1;stroke:#000;stroke-width:1.7510277;stroke-linecap:round;stroke-linejoin:round;stroke-miterlimit:4;stroke-dasharray:none;stroke-dashoffset:0;stroke-opacity:1" transform="translate(460.051 -240.074) scale(1.71328)"/><path d="M-587.597 399.253v126.39l108.797-62.815v-126.88Zm0 0v126.39l-108.798-62.815v-126.88Zm108.797-63.305-108.797 63.305-108.798-63.305 108.798-62.961z" style="opacity:1;vector-effect:none;fill:#90a8d8;fill-opacity:1;stroke:#000;stroke-width:1.7510277;stroke-linecap:round;stroke-linejoin:round;stroke-miterlimit:4;stroke-dasharray:none;stroke-dashoffset:0;stroke-opacity:1" transform="translate(460.051 -456.614) scale(1.71328)"/><path d="M-587.597 249.298v126.39l108.797-62.815v-126.88Z" style="fill:#ddbc91;fill-opacity:1;stroke:#000;stroke-width:1.75102758;stroke-linecap:round;stroke-linejoin:round;stroke-miterlimit:4;stroke-dasharray:none;stroke-opacity:1" transform="translate(460.051 -416.239) scale(1.71328)"/><path d="M-587.597 249.298v126.39l-108.798-62.815v-126.88Z" style="opacity:1;vector-effect:none;fill:#d9b383;fill-opacity:1;stroke:#000;stroke-width:1.5622561;stroke-linecap:round;stroke-linejoin:round;stroke-miterlimit:4;stroke-dasharray:none;stroke-dashoffset:0;stroke-opacity:1" transform="translate(460.051 -416.239) scale(1.71328)"/><path d="m-478.8 185.993-108.797 63.305-108.798-63.305 108.798-62.962z" style="fill:#ddbc91;fill-opacity:1;stroke:#000;stroke-width:1.75102758;stroke-linecap:round;stroke-linejoin:round;stroke-miterlimit:4;stroke-dasharray:none;stroke-opacity:1" transform="translate(460.051 -416.239) scale(1.71328)"/><g style="opacity:1;vector-effect:none;fill:#f3f4e4;fill-opacity:1;stroke:#000;stroke-width:1.05833328;stroke-linecap:round;stroke-linejoin:round;stroke-miterlimit:4;stroke-dasharray:none;stroke-dashoffset:0;stroke-opacity:1"><path d="M-713.342 130.545V293.58l139.799 80.715 139.8-80.715V130.545l-139.8 81.346z" style="vector-effect:none;fill:#f3f4e4;fill-opacity:1;stroke:#000;stroke-width:3;stroke-linecap:round;stroke-linejoin:round;stroke-miterlimit:4;stroke-dasharray:none;stroke-dashoffset:0;stroke-opacity:1" transform="translate(26.875 -201.26)"/><path d="m94.77 127.761-49.318 28.697-49.319-28.697 49.319-28.54Z" style="vector-effect:none;fill:#f3f4e4;fill-opacity:1;stroke:#000;stroke-width:1.05833328;stroke-linecap:round;stroke-linejoin:round;stroke-miterlimit:4;stroke-dasharray:none;stroke-dashoffset:0;stroke-opacity:1" transform="translate(-675.506 -432.872) scale(2.83465)"/></g><path d="M-587.597 154.453v94.7l-81.598 47.681v-95.16z" style="opacity:1;vector-effect:none;fill:#d9dbbc;fill-opacity:1;stroke:#000;stroke-width:1.7510277;stroke-linecap:round;stroke-linejoin:round;stroke-miterlimit:4;stroke-dasharray:none;stroke-dashoffset:0;stroke-opacity:1" transform="translate(460.051 -416.239) scale(1.71328)"/><path d="M-587.597 154.453v94.7L-506 296.834v-95.16z" style="opacity:1;vector-effect:none;fill:#eaeccf;fill-opacity:1;stroke:#000;stroke-width:1.7510277;stroke-linecap:round;stroke-linejoin:round;stroke-miterlimit:4;stroke-dasharray:none;stroke-dashoffset:0;stroke-opacity:1" transform="translate(460.051 -416.239) scale(1.71328)"/><g style="opacity:1;vector-effect:none;fill:#90a8d8;fill-opacity:1;stroke:#000;stroke-width:1.58749998;stroke-linecap:butt;stroke-linejoin:miter;stroke-miterlimit:4;stroke-dasharray:none;stroke-dashoffset:0;stroke-opacity:1"><path d="M45.452 156.458v57.293l49.318-28.474V127.76zm0 0v57.293l-49.319-28.474V127.76z" style="vector-effect:none;fill:#90a8d8;fill-opacity:1;stroke:#000;stroke-width:1.58749998;stroke-linecap:round;stroke-linejoin:round;stroke-miterlimit:4;stroke-dasharray:none;stroke-dashoffset:0;stroke-opacity:1" transform="translate(-632.56 -284.796) scale(1.88976)"/><path d="m94.77 127.761-49.318 28.697-49.319-28.697 49.319-28.54Z" style="vector-effect:none;fill:#90a8d8;fill-opacity:1;stroke:#000;stroke-width:1.58749998;stroke-linecap:round;stroke-linejoin:round;stroke-miterlimit:4;stroke-dasharray:none;stroke-dashoffset:0;stroke-opacity:1" transform="translate(-632.56 -284.796) scale(1.88976)"/></g><path d="M-728.427 95.065h281.659V647.65h-281.659z" style="opacity:1;vector-effect:none;fill:none;fill-opacity:1;stroke:none;stroke-width:1.41293824;stroke-linecap:round;stroke-linejoin:round;stroke-miterlimit:4;stroke-dasharray:none;stroke-dashoffset:0;stroke-opacity:1" transform="translate(460.051 -416.239) scale(1.71328)"/></svg>