<?xml version="1.0" encoding="utf-8"?>
<!-- Generator: Adobe Illustrator 27.7.0, SVG Export Plug-In . SVG Version: 6.00 Build 0)  -->
<svg version="1.1" id="Layer_1" xmlns="http://www.w3.org/2000/svg" xmlns:xlink="http://www.w3.org/1999/xlink" x="0px" y="0px"
	 viewBox="0 0 512 512" style="enable-background:new 0 0 512 512;" xml:space="preserve">
<style type="text/css">
	.st0{fill:#F0F0F0;}
	.st1{fill:#00B6F0;stroke:#00B6F0;stroke-width:0.297;stroke-miterlimit:10;}
	.st2{fill:#575757;}
</style>
<g>
	<g>
		<path class="st0" d="M244.2,502.3c-25.1-1-49.2-5.4-72.6-13.3c-77.4-26.1-138-87.1-161.3-162.4C0.2,294.1-2.5,258,2.3,222.3
			c4.7-34.9,17.3-68,37.3-98.2c15.3-23.2,37-46.1,60-63.3c46.9-35.1,109.2-54,168.2-51c32.9,1.7,63.4,8.6,92.9,21.1
			c10.4,4.4,25.4,12.3,35.2,18.5c18,11.3,28.4,19.7,43.8,35c16.8,16.8,28.1,30.8,38.6,48.1c9.2,15.1,17.9,34.5,23.2,51.3
			c2,6.5,5.6,20.9,7.2,28.8c3,15.1,3.4,20,3.4,42.3c0,23.5-0.6,31-3.7,46.7c-11.8,59.6-45.2,112-95.1,149.4
			c-29,21.7-63.5,37.5-99.8,45.5C292.2,501.3,268.4,503.2,244.2,502.3L244.2,502.3z M199.6,402.2c0-0.7-0.1-2.6-0.2-4.3l-0.2-3.1
			l-6-0.3c-5.1-0.3-6.1-0.4-6.8-1c-2.6-1.9-1.9-7.7,2.9-23.4c1.1-3.7,4.2-14.4,7-23.8c2.7-9.5,6.6-22.7,8.6-29.3
			c2-6.7,5.3-18.1,7.4-25.5c2.1-7.3,4.6-15.8,5.5-18.8c0.9-3,4.1-14,7.2-24.5c6.3-21.6,10.4-35.2,11.4-37.9c0.7-1.8,0.7-1.8,1.3-1.2
			c0.3,0.3,4.9,9.4,10.1,20.1c5.3,10.7,16.6,33.8,25.3,51.2c21.8,44.1,48.1,97.3,55,111.3l5.8,11.8l14.4-0.1
			c7.9-0.1,14.8-0.2,15.2-0.4c0.7-0.3,0.7-0.4-1.7-5.5c-1.4-2.9-10.3-21.1-20-40.5C279.7,232,263.8,199.6,255.3,181
			c-6-13.1-8.8-18.8-9.8-20c-1.1-1.2-2.1-1.4-3-0.3c-1.5,1.7-5.2,12.8-11.9,35.9c-2.6,9-8.3,28.5-12.6,43.3
			c-8.4,28.7-10.8,36.9-18.2,62.1c-2.6,8.8-6.1,20.8-7.8,26.6c-1.7,5.8-5.1,17.5-7.6,26.1c-5.5,18.9-7.8,26.5-9.4,30.8
			c-2.7,7.3-3.3,8-6.3,8.6c-1.1,0.2-3.1,0.4-4.3,0.4c-2.8,0-4.5,0.5-5.2,1.4c-0.5,0.8-0.7,6.2-0.2,7c0.3,0.4,3.1,0.5,29.6,0.7
			l10.9,0.1L199.6,402.2L199.6,402.2z M246.3,141.1c5.5-1.2,10.7-6.3,12-11.7c0.5-2,0.4-6.3-0.1-8.2c-1.1-4-4.2-8-7.7-9.9
			c-4.8-2.6-12-2.6-16.9,0c-7.6,4.1-10.4,14.1-6.1,22.1C231,139.8,238.2,142.8,246.3,141.1L246.3,141.1z"/>
	</g>
	<g transform="matrix(.069892 0 0 -.069892 44.236 474.48)">
		<path class="st1" d="M2712.8,5196.2c-157.5-82.6-156.2-323.9,3.8-405.2c109.2-55.9,249-20.3,313.7,78.8
			c73.7,110.5,33,268-85.1,327.7C2880.5,5230.5,2777.6,5230.5,2712.8,5196.2z"/>
		<path class="st2" d="M2833.5,4483.6c-15.2-20.3-80-210.9-129.6-384.9c-38.1-132.1-128.3-444.6-209.6-717.7
			c-25.4-87.6-73.7-252.8-108-368.4c-33-115.6-81.3-280.7-108-368.4c-25.4-87.6-73.7-252.8-108-368.4
			c-33-115.6-81.3-280.7-108-368.4c-25.4-87.6-72.4-247.7-102.9-355.7c-74.9-262.9-118.1-379.8-146.1-393.8
			c-12.7-7.6-44.5-12.7-71.1-12.7c-92.7,0-106.7-10.2-102.9-68.6l3.8-52.1l289.6-3.8l289.6-2.5l-3.8,59.7l-3.8,61l-92.7,3.8
			c-83.8,3.8-94,6.4-106.7,34.3c-16.5,35.6,0,132.1,47,285.8c16.5,52.1,59.7,198.2,95.3,323.9c35.6,125.8,83.8,292.2,108,368.4
			c22.9,77.5,71.1,242.6,108,368.4c35.6,125.8,83.8,292.2,108,368.4c22.9,77.5,71.1,242.6,108,368.4
			c108,377.3,156.2,532.2,166.4,544.9c6.4,6.4,21.6-14,35.6-44.5c12.7-30.5,243.9-499.2,511.9-1040.3s567.8-1145.7,664.3-1343.9
			l176.6-358.2h213.4c116.9,0,213.4,5.1,213.4,10.2s-95.3,200.7-210.9,434.4c-746.9,1502.7-1230.9,2487.1-1312.1,2667.5
			c-36.8,80-87.6,191.8-113.1,247.7C2879.2,4498.9,2861.4,4517.9,2833.5,4483.6z"/>
	</g>
</g>
</svg>
