<svg xmlns="http://www.w3.org/2000/svg" width="512pt" height="512pt" version="1.0" viewBox="0 0 512 512"><path fill="#575757" d="M-.007.001h512.01v512.02H-.007z"/><path fill="#f0f0f0" d="M247.17 455.95c-19.792-.79-38.719-4.256-57.154-10.47-60.968-20.55-108.68-68.579-127-127.86-7.896-25.538-10.062-53.943-6.259-82.067 3.71-27.439 13.603-53.515 29.342-77.344 12.07-18.273 29.138-36.277 47.228-49.816 36.891-27.61 85.944-42.49 132.38-40.157 25.88 1.3 49.94 6.765 73.106 16.606 8.195 3.481 20.024 9.684 27.696 14.525 14.15 8.927 22.367 15.498 34.482 27.573 13.254 13.211 22.128 24.276 30.398 37.906 7.209 11.879 14.1 27.15 18.23 40.397 1.599 5.13 4.441 16.456 5.685 22.653 2.39 11.917 2.7 15.722 2.705 33.312.006 18.515-.463 24.413-2.917 36.758-9.327 46.92-35.58 88.167-74.872 117.64-22.814 17.112-50.027 29.535-78.547 35.858-16.714 3.706-35.421 5.245-54.498 4.485zm-35.1-78.786c0-.526-.074-2.056-.163-3.4l-.162-2.443-4.702-.262c-4.047-.226-4.796-.334-5.384-.773-2.024-1.51-1.468-6.07 2.249-18.457.864-2.878 3.337-11.32 5.497-18.762 2.159-7.44 5.2-17.836 6.757-23.1a4439.797 4439.797 0 0 0 5.861-20.039c1.667-5.756 3.615-12.4 4.329-14.764.714-2.364 3.258-11.037 5.654-19.272 4.948-17.007 8.163-27.723 8.944-29.81.518-1.387.548-1.415.997-.954.255.261 3.847 7.367 7.981 15.79a17439.02 17439.02 0 0 0 19.898 40.331c17.188 34.73 37.85 76.578 43.261 87.622l4.536 9.257 11.359-.09c6.247-.049 11.615-.196 11.929-.326.561-.234.541-.296-1.373-4.318-1.068-2.244-8.143-16.6-15.724-31.904-48.687-98.293-61.22-123.86-67.889-138.48-4.702-10.309-6.903-14.807-7.713-15.762-.83-.977-1.632-1.064-2.37-.255-1.2 1.313-4.105 10.063-9.388 28.27-2.057 7.09-6.537 22.425-9.956 34.077-6.64 22.629-8.518 29.037-14.33 48.883a29352.24 29352.24 0 0 1-6.138 20.93 6443.268 6443.268 0 0 0-5.983 20.55c-4.304 14.877-6.136 20.889-7.389 24.25-2.137 5.733-2.572 6.33-4.921 6.738-.889.155-2.41.282-3.382.283-2.2.003-3.55.363-4.056 1.086-.421.603-.564 4.88-.182 5.482.206.323 2.467.374 23.34.518l8.615.06v-.957zm36.751-205.59c4.328-.923 8.46-4.943 9.437-9.18.366-1.586.326-4.975-.077-6.48-.85-3.18-3.268-6.29-6.039-7.767-3.81-2.031-9.456-2.03-13.272.005-5.982 3.189-8.155 11.089-4.787 17.408 2.7 5.065 8.36 7.375 14.738 6.015z"/><path fill="#00b6f0" stroke="#00b6f0" stroke-width=".297" d="M239.025 148.154c-8.667 4.543-8.597 17.823.21 22.296 6.01 3.075 13.699 1.118 17.263-4.334 4.054-6.08 1.817-14.747-4.683-18.032-3.564-1.817-9.226-1.817-12.79.07z"/><path fill="#575757" d="M245.665 187.364c-.839 1.118-4.403 11.602-7.13 21.177-2.096 7.269-7.058 24.462-11.531 39.489a4005.384 4005.384 0 0 1-5.941 20.269c-1.817 6.36-4.473 15.446-5.941 20.268a4005.384 4005.384 0 0 1-5.94 20.269c-1.818 6.36-4.474 15.446-5.942 20.269-1.398 4.822-3.984 13.629-5.661 19.57-4.124 14.467-6.5 20.897-8.038 21.666-.698.42-2.446.699-3.913.699-5.103 0-5.871.559-5.662 3.774l.21 2.866 15.935.21 15.936.139-.21-3.285-.21-3.355-5.102-.21c-4.613-.21-5.172-.349-5.87-1.886-.91-1.957 0-7.27 2.585-15.726.909-2.866 3.285-10.903 5.242-17.823s4.613-16.075 5.941-20.268c1.258-4.264 3.914-13.35 5.94-20.269 1.958-6.92 4.614-16.075 5.942-20.269 1.258-4.263 3.914-13.349 5.94-20.268 5.941-20.758 8.597-29.285 9.156-29.984.35-.35 1.188.769 1.957 2.446.7 1.678 13.42 27.468 28.167 57.242s31.242 63.042 36.553 73.945l9.715 19.71h11.742c6.43 0 11.742-.28 11.742-.56s-5.242-11.042-11.602-23.902c-41.097-82.682-67.725-136.849-72.199-146.773a3722.894 3722.894 0 0 1-6.22-13.63c-3.075-6.639-4.054-7.687-5.591-5.8z"/></svg>