<?xml version="1.0" encoding="utf-8"?>
<!-- Generator: Adobe Illustrator 27.7.0, SVG Export Plug-In . SVG Version: 6.00 Build 0)  -->
<svg version="1.1" id="Layer_1" xmlns="http://www.w3.org/2000/svg" xmlns:xlink="http://www.w3.org/1999/xlink" x="0px" y="0px"
	 viewBox="0 0 512 512" style="enable-background:new 0 0 512 512;" xml:space="preserve">
<g>
	<path d="M346.6,220.3c0,13.7-11.1,24.8-24.8,24.8c-13.7,0-24.8-11.1-24.8-24.8s11.1-24.8,24.8-24.8
		C335.5,195.5,346.6,206.6,346.6,220.3z M212.5,220.3c0,13.7-11.1,24.8-24.8,24.8c-13.7,0-24.8-11.1-24.8-24.8s11.1-24.8,24.8-24.8
		C201.3,195.4,212.5,206.6,212.5,220.3z M209.5,508.7C108.9,487.8,34,417.9,7.2,320.1c-9-32.8-9-95.8,0-128.6
		C32.1,100.5,100.9,31.7,191.9,6.7c32.8-9,95.8-9,128.6,0c91,24.9,159.8,93.7,184.7,184.7c5.1,18.6,6.3,30.5,6.3,64.3
		s-1.2,45.7-6.3,64.3c-25,91.1-94.7,160.8-184.8,184.5C290.9,512.4,237,514.4,209.5,508.7L209.5,508.7z M351.1,310
		c-65-28.8-86.5-37.1-96-37.1c-9.5,0-30.6,8.1-93.4,35.9C117.1,328.6,80,346.4,79.3,347h355.5L351.1,310z M140.5,302.3
		c34.6-15.6,65.3-29.6,68.2-31.2c5.5-3.1,7.2-1.9-112.7-78.6c-11.9-7.6-21.8-14.9-21.9-13.9V332C96.2,322.2,118.4,312.3,140.5,302.3
		L140.5,302.3z M440.8,255.5v-75.9c0-2.3-35.8,21.2-74.6,45.2c-64,39.6-70,43.9-64.1,46.6c28.7,13,137,61.1,138.7,61.3V255.5z
		 M266.6,257.8c11.6,2.7,13.7,2.2,26.2-5.6c7.4-4.7,14-8.9,14.5-9.4c0.6-0.5-1.1-3.9-3.6-7.5c-2.5-3.6-4.6-10.7-4.6-15.8v-9.2
		l-12.1,4.5c-15.5,5.7-48.6,5.8-64,0.1l-11.9-4.4l0.3,9.6c0.1,5.5-1.9,12-4.8,15.3c-4.9,5.5-4.7,5.9,9.6,15.5
		c13.7,9.2,15.5,9.7,26.2,7C250.3,255.9,258.6,255.9,266.6,257.8L266.6,257.8z M176.3,201.3c-2.2-2.4-63.4-20.4-64.7-19
		c-0.6,0.6,10.8,8.8,25.3,18.2l26.5,17.1l7.3-7.3C174.6,206.2,177.2,202.2,176.3,201.3L176.3,201.3z M384.5,193.3
		c10.1-6.5,17.1-11.8,15.5-11.8c-3.3,0-61.4,17.2-64.6,19.1c-1.2,0.7,0.7,4.9,4.3,9.2l6.5,7.9l10-6.3
		C361.7,208,374.5,199.8,384.5,193.3L384.5,193.3z M349.6,181.5c45-12.6,82.5-23.5,83.3-24.3H76.6c4,4,166,46.8,177.6,47
		C262.9,204.3,297.1,196.2,349.6,181.5z"/>
</g>
</svg>
