<?xml version="1.0" encoding="UTF-8" standalone="no"?>
<!-- Created with Inkscape (http://www.inkscape.org/) -->

<svg
   width="210mm"
   height="297mm"
   viewBox="0 0 210 297"
   version="1.1"
   id="svg1"
   xml:space="preserve"
   inkscape:version="1.3 (1:1.3+202307231459+0e150ed6c4)"
   sodipodi:docname="invoke-ai.svg"
   xmlns:inkscape="http://www.inkscape.org/namespaces/inkscape"
   xmlns:sodipodi="http://sodipodi.sourceforge.net/DTD/sodipodi-0.dtd"
   xmlns="http://www.w3.org/2000/svg"
   xmlns:svg="http://www.w3.org/2000/svg"><sodipodi:namedview
     id="namedview1"
     pagecolor="#ffffff"
     bordercolor="#666666"
     borderopacity="1.0"
     inkscape:showpageshadow="2"
     inkscape:pageopacity="0.0"
     inkscape:pagecheckerboard="0"
     inkscape:deskcolor="#d1d1d1"
     inkscape:document-units="mm"
     inkscape:zoom="1.369241"
     inkscape:cx="396.93523"
     inkscape:cy="561.25984"
     inkscape:window-width="3052"
     inkscape:window-height="1776"
     inkscape:window-x="58"
     inkscape:window-y="1080"
     inkscape:window-maximized="1"
     inkscape:current-layer="g1" /><defs
     id="defs1" /><g
     inkscape:label="Layer 1"
     inkscape:groupmode="layer"
     id="layer1"><g
       id="g1"
       transform="translate(0.99843659,2.3577466)"><path
         style="fill:#dddedd"
         d="m 104.2287,236.79202 c 0.63059,-0.0782 1.66246,-0.0782 2.29305,0 0.63059,0.0783 0.11465,0.14229 -1.14653,0.14229 -1.26118,0 -1.77711,-0.064 -1.14652,-0.14229 z m -7.03351,-0.33856 c 0.254661,-0.10191 0.558932,-0.0894 0.676157,0.0279 0.117225,0.11722 -0.09113,0.2006 -0.463021,0.18528 -0.410966,-0.0169 -0.494559,-0.10052 -0.213136,-0.21313 z m 15.85295,0.007 c 0.24254,-0.0979 0.63941,-0.0979 0.88195,0 0.24253,0.0979 0.0441,0.17793 -0.44098,0.17793 -0.48507,0 -0.6835,-0.0801 -0.44097,-0.17793 z m 5.66649,-0.71291 c 0.25467,-0.10191 0.55894,-0.0894 0.67616,0.0279 0.11723,0.11723 -0.0911,0.20061 -0.46302,0.18529 -0.41097,-0.0169 -0.49456,-0.10052 -0.21314,-0.21314 z M 49.238559,216.67431 c -0.43881,-0.55953 -0.426332,-0.57201 0.133193,-0.1332 0.339549,0.2663 0.617361,0.54411 0.617361,0.61736 0,0.29035 -0.289696,0.10347 -0.750554,-0.48416 z m 114.168611,-1.85209 c 0.35118,-0.38805 0.71789,-0.70555 0.81491,-0.70555 0.097,0 -0.11095,0.3175 -0.46213,0.70555 -0.35119,0.38806 -0.7179,0.70556 -0.81491,0.70556 -0.097,0 0.11094,-0.3175 0.46213,-0.70556 z m -116.972535,-0.61736 -0.855244,-0.97014 0.970139,0.85525 c 0.906741,0.79935 1.131918,1.08503 0.855244,1.08503 -0.06319,0 -0.499755,-0.43656 -0.970139,-0.97014 z m -6.702778,-6.70278 -0.855244,-0.97014 0.970139,0.85525 c 0.906741,0.79935 1.131919,1.08503 0.855244,1.08503 -0.06319,0 -0.499755,-0.43656 -0.970139,-0.97014 z m 130.907253,0.13139 c 0,-0.0733 0.27782,-0.35106 0.61736,-0.61736 0.55953,-0.43881 0.57201,-0.42633 0.1332,0.1332 -0.46086,0.58763 -0.75056,0.77451 -0.75056,0.48416 z m 2.11667,-2.46944 c 0,-0.0733 0.27781,-0.35107 0.61736,-0.61736 0.55953,-0.43881 0.572,-0.42633 0.13319,0.13319 -0.46085,0.58764 -0.75055,0.77452 -0.75055,0.48417 z m -73.025,-7.63428 c -15.869337,-2.20753 -29.115206,-10.96222 -36.734662,-24.27931 -4.177776,-7.30181 -6.290251,-15.43612 -6.290251,-24.22127 0,-13.47117 4.935092,-25.33014 14.463873,-34.75652 6.671856,-6.60016 15.015473,-11.00787 24.820164,-13.11183 5.064816,-1.08685 13.705826,-1.08685 18.770636,0 20.54753,4.40923 35.19074,19.4618 38.75509,39.83851 0.70311,4.01957 0.70311,12.0401 0,16.05968 -3.13623,17.92924 -15.5505,32.54338 -32.40509,38.14745 -6.42894,2.13759 -15.57218,3.13117 -21.37976,2.32329 z m 9.49554,-16.23862 c 13.34178,-1.67292 24.19257,-11.26098 27.76128,-24.53065 0.92825,-3.45155 0.92825,-12.01108 0,-15.46263 -1.68614,-6.26965 -4.81605,-11.52899 -9.49001,-15.94653 -13.00027,-12.28705 -33.367993,-11.62029 -45.777094,1.49858 -3.521867,3.7233 -5.98569,8.06342 -7.626577,13.4345 -0.859052,2.81191 -0.947162,3.6254 -0.947162,8.74477 0,5.11937 0.08811,5.93285 0.947162,8.74477 2.161902,7.0765 6.019758,12.75317 11.587833,17.051 5.22275,4.03128 12.414207,6.57855 19.173558,6.79144 0.7812,0.0246 2.74816,-0.12176 4.37101,-0.32525 z m 83.31287,-22.06081 c 0.0169,-0.41096 0.10052,-0.49455 0.21313,-0.21313 0.10191,0.25466 0.0894,0.55893 -0.0279,0.67615 -0.11722,0.11723 -0.2006,-0.0911 -0.18528,-0.46302 z M 17.914186,158.52477 c 0.01693,-0.41097 0.100521,-0.49456 0.213137,-0.21314 0.101907,0.25466 0.08937,0.55893 -0.02785,0.67616 -0.117225,0.11722 -0.200604,-0.0911 -0.185287,-0.46302 z m 175.018704,-3.49838 c 0.007,-0.58208 0.0863,-0.7775 0.1757,-0.43426 0.0894,0.34324 0.0836,0.81949 -0.0131,1.05833 -0.0966,0.23885 -0.16981,-0.042 -0.16262,-0.62407 z M 17.589259,154.85 c 0,-0.48507 0.08007,-0.68351 0.177936,-0.44097 0.09786,0.24253 0.09786,0.63941 0,0.88194 -0.09787,0.24254 -0.177936,0.0441 -0.177936,-0.44097 z m 0,-11.64167 c 0,-0.48507 0.08007,-0.6835 0.177936,-0.44097 0.09786,0.24254 0.09786,0.63941 0,0.88195 -0.09787,0.24253 -0.177936,0.0441 -0.177936,-0.44098 z m 175.343631,-0.17639 c 0.007,-0.58208 0.0863,-0.7775 0.1757,-0.43425 0.0894,0.34324 0.0836,0.81949 -0.0131,1.05833 -0.0966,0.23884 -0.16981,-0.042 -0.16262,-0.62408 z M 17.914186,139.47477 c 0.01693,-0.41097 0.100521,-0.49456 0.213137,-0.21314 0.101907,0.25466 0.08937,0.55893 -0.02785,0.67616 -0.117225,0.11722 -0.200604,-0.0911 -0.185287,-0.46302 z m 174.625004,-0.70556 c 0.0169,-0.41096 0.10052,-0.49456 0.21313,-0.21313 0.10191,0.25466 0.0894,0.55893 -0.0279,0.67615 -0.11722,0.11723 -0.2006,-0.0911 -0.18528,-0.46302 z M 173.06356,93.202083 c -0.43881,-0.559525 -0.42633,-0.572003 0.13319,-0.133193 0.58764,0.460858 0.77452,0.750554 0.48417,0.750554 -0.0733,0 -0.35107,-0.277812 -0.61736,-0.617361 z M 39.758557,90.468055 c 0.4557,-0.485069 0.907919,-0.881944 1.004933,-0.881944 0.09701,0 -0.196456,0.396875 -0.652155,0.881944 -0.455699,0.48507 -0.907919,0.881945 -1.004932,0.881945 -0.09701,0 0.196455,-0.396875 0.652154,-0.881945 z m 131.188333,0.264584 c -0.43881,-0.559526 -0.42633,-0.572003 0.1332,-0.133193 0.58763,0.460858 0.77451,0.750554 0.48416,0.750554 -0.0732,0 -0.35106,-0.277813 -0.61736,-0.617361 z M 46.461335,83.765278 c 0.455699,-0.48507 0.907919,-0.881945 1.004933,-0.881945 0.09701,0 -0.196456,0.396875 -0.652155,0.881945 -0.455699,0.485069 -0.907919,0.881944 -1.004933,0.881944 -0.09701,0 0.196456,-0.396875 0.652155,-0.881944 z m 116.912315,-0.617362 -0.67204,-0.79375 0.79375,0.672038 c 0.74593,0.631549 0.95435,0.915462 0.67204,0.915462 -0.0669,0 -0.42413,-0.357187 -0.79375,-0.79375 z M 48.93078,81.691807 c 0,-0.07326 0.277812,-0.351069 0.617361,-0.617361 0.559525,-0.43881 0.572003,-0.426333 0.133193,0.133193 -0.460858,0.587639 -0.750554,0.774516 -0.750554,0.484168 z m 69.78385,-19.510573 c 0.25467,-0.101907 0.55894,-0.08937 0.67616,0.02785 0.11723,0.117225 -0.0911,0.200604 -0.46302,0.185286 -0.41097,-0.01693 -0.49456,-0.100521 -0.21314,-0.213137 z M 97.19519,61.475679 c 0.254661,-0.101907 0.558932,-0.08937 0.676157,0.02785 0.117225,0.117225 -0.09113,0.200603 -0.463021,0.185285 -0.410966,-0.01693 -0.494559,-0.10052 -0.213136,-0.213135 z m 15.85295,0.0073 c 0.24254,-0.09786 0.63941,-0.09786 0.88195,0 0.24253,0.09787 0.0441,0.177937 -0.44098,0.177937 -0.48507,0 -0.6835,-0.08007 -0.44097,-0.177937 z m -8.81944,-0.374337 c 0.63059,-0.07826 1.66246,-0.07826 2.29305,0 0.63059,0.07825 0.11465,0.142283 -1.14653,0.142283 -1.26118,0 -1.77711,-0.06403 -1.14652,-0.142283 z"
         id="path7" /><path
         style="fill:#fce1a1"
         d="M 94.439113,236.15666 C 65.31319,232.17075 40.91884,215.13272 27.432836,189.35668 22.383324,179.70545 19.263425,169.226 18.077481,157.93289 c -0.687524,-6.54692 -0.687591,-11.25557 -2.53e-4,-17.8214 2.128247,-20.33016 10.949113,-38.81828 25.36852,-53.171212 14.183827,-14.118444 31.583736,-22.557682 51.689568,-25.070279 6.439934,-0.804789 18.416514,-0.550004 24.465194,0.520463 18.9058,3.345861 34.55469,11.393627 47.7066,24.53412 13.78722,13.775238 22.03654,30.200268 25.07876,49.933748 0.46302,3.00337 0.62544,6.16411 0.62544,12.17084 0,10.82921 -1.10172,17.95449 -4.25223,27.501 -4.36241,13.21872 -11.38288,24.54324 -21.45197,34.60358 -13.15026,13.13884 -28.75305,21.16433 -47.7066,24.53849 -5.50992,0.98089 -19.55735,1.25134 -25.161397,0.48442 z m 19.806367,-0.18908 c 19.74308,-2.02162 37.61547,-10.38871 51.93824,-24.31525 14.6328,-14.22799 22.96294,-30.83354 26.01718,-51.86344 0.56376,-3.88179 0.56376,-17.63766 0,-21.51945 -2.4926,-17.16269 -8.5493,-31.39772 -18.74553,-44.057506 C 169.88937,89.784345 162.56022,82.68025 158.10144,79.329469 131.3244,59.206514 95.827038,56.011728 66.040502,71.043925 56.95644,75.628326 49.990925,80.769726 42.686341,88.282144 30.31278,101.00777 22.30204,116.65353 19.293266,133.97113 c -3.130735,18.01956 -0.561993,36.55654 7.344355,52.99953 6.67191,13.87571 17.920802,26.68757 30.936214,35.23462 11.007562,7.22853 25.399829,12.37336 38.452778,13.7458 4.153777,0.43674 14.027447,0.44568 18.218867,0.0165 z"
         id="path6" /><path
         style="fill:#fbcc5e"
         d="M 96.026613,235.95108 C 79.824979,234.24757 63.393759,227.42162 50.51828,217.04573 43.183787,211.13512 35.337523,202.13577 30.432656,194.00833 21.408147,179.05458 16.889446,160.45526 18.174629,143.55334 19.544149,125.54228 24.978777,110.77718 35.41869,96.703691 39.021651,91.846734 45.748378,84.856502 50.51828,81.012608 77.163567,59.54012 114.01582,55.605428 144.66927,70.960166 c 7.95986,3.9872 14.72454,8.843757 21.51445,15.445834 14.6328,14.22799 22.96294,30.83355 26.01718,51.86344 0.56376,3.88179 0.56376,17.63766 0,21.51945 -2.4926,17.16269 -8.5493,31.39773 -18.74553,44.05751 -3.566,4.42759 -10.89515,11.53168 -15.35393,14.88246 -12.88862,9.68581 -27.96353,15.61139 -43.85596,17.23872 -4.19142,0.42918 -14.06509,0.42024 -18.218867,-0.0165 z m 22.754167,-0.98494 c 15.537,-2.47826 29.28964,-8.59005 41.62778,-18.49972 3.85329,-3.09486 10.70117,-10.1364 13.81727,-14.20803 9.57668,-12.5133 15.60375,-27.27556 17.62731,-43.17506 0.54929,-4.31585 0.54929,-15.79247 0,-20.10833 C 189.34617,119.27725 180.88858,101.72417 167.28772,87.991376 153.56958,74.140152 137.42224,65.967229 117.72245,62.904082 112.04798,62.021752 98.737275,62.018669 93.028002,62.898362 73.891145,65.846997 57.33963,74.139495 43.985045,87.469444 17.099921,114.30497 10.701226,154.96651 28.029892,188.85903 c 8.707797,17.03128 23.801406,31.43054 41.161543,39.26802 9.23021,4.16711 18.358887,6.55059 29.304623,7.65139 3.600852,0.36213 16.046342,-0.13625 20.284722,-0.8123 z"
         id="path5" /><path
         style="fill:#9ea2a9"
         d="m 101.31828,198.21401 c -11.808348,-0.96711 -22.293558,-5.86732 -30.881807,-14.43248 -5.652444,-5.63724 -9.537187,-11.92911 -11.979186,-19.40192 -1.78603,-5.46546 -2.26872,-8.7314 -2.26872,-15.35044 0,-6.61904 0.48269,-9.88499 2.26872,-15.35045 2.441999,-7.4728 6.326742,-13.76467 11.979186,-19.40192 10.577553,-10.54911 23.755165,-15.421458 38.891137,-14.379779 14.93956,1.028159 28.86939,9.242919 37.28788,21.989569 14.34338,21.71769 9.26985,50.90292 -11.57675,66.59468 -7.1692,5.39644 -16.30227,8.97241 -24.44746,9.57217 -1.60765,0.11838 -3.558,0.26794 -4.33411,0.33236 -0.77611,0.0644 -2.99861,-0.0129 -4.93889,-0.17179 z m 13.44226,-1.35061 c 15.72821,-3.22453 28.07721,-12.88229 34.88924,-27.28575 2.99125,-6.32474 4.40652,-12.92443 4.40652,-20.54848 0,-7.62405 -1.41527,-14.22374 -4.40652,-20.54849 -6.80726,-14.39339 -18.94613,-23.89868 -34.88924,-27.31986 -5.06481,-1.08685 -13.70582,-1.08685 -18.770636,0 -4.743033,1.01779 -8.46173,2.29078 -12.310513,4.21415 -14.533871,7.26307 -24.335977,20.86819 -26.622455,36.95142 -0.451135,3.17332 -0.451135,10.23224 0,13.40555 2.878618,20.24838 17.865905,36.48977 37.734955,40.89255 6.499509,1.44022 13.689469,1.52624 19.968649,0.23891 z m -13.61865,-15.58695 c -3.253087,-0.41877 -7.857887,-1.91115 -10.874027,-3.52417 -7.936577,-4.24446 -13.446378,-11.05026 -16.173944,-19.97834 -0.859052,-2.81192 -0.947162,-3.6254 -0.947162,-8.74477 0,-5.11937 0.08811,-5.93286 0.947162,-8.74477 2.727937,-8.9293 8.244257,-15.74237 16.173944,-19.97603 18.461987,-9.85687 41.167347,0.34383 46.719737,20.98948 0.92825,3.45155 0.92825,12.01108 0,15.46263 -2.97849,11.07503 -11.06591,19.735 -21.59692,23.12589 -4.96878,1.5999 -9.32081,2.02447 -14.24879,1.39008 z m 12.17083,-1.35964 c 5.04272,-1.30848 9.86544,-3.93141 13.74065,-7.47314 13.53281,-12.36822 13.53281,-34.46078 0,-46.82901 -2.68597,-2.45482 -4.53062,-3.68724 -8.00469,-5.34796 -4.80761,-2.29821 -7.73321,-2.92378 -13.67346,-2.92378 -6.076932,0 -8.984227,0.64259 -13.934718,3.07999 -11.224466,5.5264 -17.815278,16.10937 -17.815278,28.60626 0,15.6474 10.692573,28.46112 26.226055,31.42866 3.451351,0.65935 9.822091,0.40331 13.461441,-0.54102 z"
         id="path4" /><path
         style="fill:#fab412"
         d="M 98.496058,235.77844 C 76.688552,233.58529 58.69268,225.26939 43.985045,210.58889 17.099921,183.75336 10.701226,143.09182 28.029892,109.1993 39.342589,87.073195 60.391357,70.469526 84.58151,64.590306 c 7.751249,-1.883878 11.638584,-2.317044 20.79371,-2.317044 8.8189,0 12.80522,0.417759 19.93195,2.088832 22.24429,5.215831 41.56938,19.028125 53.83331,38.476486 6.47177,10.26305 11.09074,23.39273 12.71266,36.13642 0.54929,4.31586 0.54929,15.79248 0,20.10833 -2.02356,15.8995 -8.05063,30.66176 -17.62731,43.17506 -3.1161,4.07163 -9.96398,11.11317 -13.81727,14.20803 -12.33814,9.90967 -26.09078,16.02146 -41.62778,18.49972 -4.23838,0.67605 -16.68387,1.17443 -20.284722,0.8123 z m 12.523612,-17.80128 c 13.59907,-1.2417 25.42485,-5.75581 36.1072,-13.78275 22.05341,-16.5714 32.02757,-44.80678 25.40655,-71.92219 C 166.2781,106.65448 145.26784,86.530641 119.30995,81.294249 112.72608,79.96611 106.30688,79.53284 100.52453,80.026311 83.477891,81.481088 69.189016,87.861225 57.444643,99.261945 50.975261,105.54203 47.144582,110.79422 43.274618,118.69028 c -2.721022,5.55182 -4.078061,9.40369 -5.41601,15.37299 -2.713961,12.10844 -2.035838,25.00605 1.955399,37.1909 1.356489,4.14122 5.351023,12.27084 7.8687,16.01427 5.792734,8.61297 13.914255,16.28197 22.751973,21.48426 12.056498,7.09701 26.910214,10.47307 40.58499,9.22446 z"
         id="path3" /><path
         style="fill:#947224"
         d="m 99.201613,217.95432 c -15.950198,-1.50873 -30.409701,-8.1427 -41.75697,-19.15793 -6.519731,-6.32896 -10.285884,-11.49189 -14.172178,-19.42833 -4.801577,-9.8056 -7.029459,-19.42105 -7.029459,-30.33889 0,-10.92146 2.229489,-20.54091 7.031612,-30.33889 3.869964,-7.89606 7.700643,-13.14825 14.170025,-19.428335 11.744373,-11.40072 26.033248,-17.780857 43.079887,-19.235634 13.12835,-1.120386 28.43949,2.468606 40.07595,9.393957 26.35083,15.682512 39.22992,46.482132 31.93294,76.365842 -6.25524,25.61744 -27.30723,45.779 -53.22347,50.97231 -7.31022,1.46488 -13.422,1.82836 -20.108337,1.1959 z m 17.016837,-1.18327 c 25.34655,-4.31981 45.60368,-21.26759 53.92006,-45.11127 2.63383,-7.55139 3.6756,-13.96555 3.6756,-22.63061 0,-12.95093 -2.99266,-24.16645 -9.29659,-34.84064 -15.3453,-25.983565 -45.99309,-38.906768 -75.357294,-31.77578 -18.273182,4.437574 -34.188807,16.404657 -43.30617,32.56224 -3.726786,6.60453 -5.939837,12.47167 -7.722009,20.47223 -0.93628,4.20317 -0.982291,4.83936 -0.982291,13.58195 0,8.74258 0.04601,9.37877 0.982291,13.58194 2.944256,13.21741 8.38329,23.80332 16.996524,33.08008 11.031098,11.88088 25.105414,19.071 41.956376,21.4342 4.405743,0.61786 14.529113,0.43039 19.133503,-0.35434 z m -12.86498,-18.42108 c 0.34324,-0.0894 0.81949,-0.0836 1.05833,0.0131 0.23884,0.0966 -0.042,0.16982 -0.62408,0.16263 -0.58208,-0.007 -0.7775,-0.0862 -0.43425,-0.1757 z m 3.175,0 c 0.34324,-0.0894 0.81949,-0.0836 1.05833,0.0131 0.23884,0.0966 -0.042,0.16982 -0.62408,0.16263 -0.58208,-0.007 -0.7775,-0.0862 -0.43425,-0.1757 z m -4.04161,-17.6354 c 0.25466,-0.10191 0.55893,-0.0894 0.67615,0.0279 0.11723,0.11722 -0.0911,0.2006 -0.46302,0.18528 -0.41096,-0.0169 -0.49456,-0.10052 -0.21313,-0.21313 z m 5.29166,0 c 0.25466,-0.10191 0.55894,-0.0894 0.67616,0.0279 0.11723,0.11722 -0.0911,0.2006 -0.46302,0.18528 -0.41097,-0.0169 -0.49456,-0.10052 -0.21314,-0.21313 z m -23.614961,-7.78471 c -0.43881,-0.55952 -0.426332,-0.572 0.133193,-0.13319 0.339549,0.26629 0.617361,0.5441 0.617361,0.61736 0,0.29035 -0.289696,0.10347 -0.750554,-0.48417 z M 56.014186,153.58588 c 0.01693,-0.41097 0.100521,-0.49456 0.213137,-0.21314 0.101907,0.25466 0.08937,0.55894 -0.02785,0.67616 -0.117225,0.11723 -0.200604,-0.0911 -0.185286,-0.46302 z m 81.138894,-4.58611 c 0.0169,-0.41097 0.10052,-0.49456 0.21313,-0.21314 0.10191,0.25466 0.0894,0.55893 -0.0279,0.67616 -0.11722,0.11722 -0.2006,-0.0911 -0.18528,-0.46302 z m -81.138894,-4.58611 c 0.01693,-0.41097 0.100521,-0.49456 0.213137,-0.21314 0.101907,0.25466 0.08937,0.55893 -0.02785,0.67616 -0.117225,0.11722 -0.200604,-0.0911 -0.185286,-0.46302 z M 83.85578,125.43625 c 0,-0.0733 0.277812,-0.35107 0.617361,-0.61736 0.559525,-0.43881 0.572003,-0.42633 0.133193,0.13319 -0.460858,0.58764 -0.750554,0.77452 -0.750554,0.48417 z m 18.63108,-8.22168 c 0.25466,-0.10191 0.55893,-0.0894 0.67615,0.0279 0.11723,0.11722 -0.0911,0.2006 -0.46302,0.18528 -0.41096,-0.0169 -0.49456,-0.10052 -0.21313,-0.21313 z m 5.29166,0 c 0.25466,-0.10191 0.55894,-0.0894 0.67616,0.0279 0.11723,0.11722 -0.0911,0.2006 -0.46302,0.18528 -0.41097,-0.0169 -0.49456,-0.10052 -0.21314,-0.21313 z m -4.43177,-17.641082 c 0.33955,-0.08873 0.89518,-0.08873 1.23472,0 0.33955,0.08873 0.0617,0.161333 -0.61736,0.161333 -0.67909,0 -0.95691,-0.0726 -0.61736,-0.161333 z m 2.82222,0 c 0.33955,-0.08873 0.89518,-0.08873 1.23473,0 0.33955,0.08873 0.0617,0.161333 -0.61736,0.161333 -0.6791,0 -0.95691,-0.0726 -0.61737,-0.161333 z"
         id="path2" /><path
         style="fill:#14213a"
         d="m 97.084947,217.12539 c -16.850962,-2.3632 -30.925278,-9.55332 -41.956376,-21.4342 -8.613234,-9.27676 -14.052268,-19.86267 -16.996524,-33.08008 -0.93628,-4.20317 -0.982291,-4.83936 -0.982291,-13.58194 0,-8.74259 0.04601,-9.37878 0.982291,-13.58195 2.944256,-13.21741 8.38329,-23.80332 16.996524,-33.08008 26.773559,-28.836054 72.453969,-29.235661 99.678129,-0.87197 10.20179,10.62882 16.25478,23.02902 18.48303,37.86447 0.6877,4.57861 0.6877,14.76045 0,19.33905 -2.22825,14.83545 -8.28124,27.23566 -18.48303,37.86447 -10.35718,10.7907 -23.39544,17.61858 -38.58825,20.20789 -4.60439,0.78473 -14.72776,0.9722 -19.133503,0.35434 z m 12.927203,-18.89274 c 11.39028,-1.12799 21.45801,-5.74854 29.53479,-13.55488 4.4698,-4.32014 7.39141,-8.30288 10.10591,-13.77638 3.59628,-7.2515 5.1071,-13.72191 5.1071,-21.87222 0,-8.15032 -1.51082,-14.62073 -5.1071,-21.87223 -7.7672,-15.6617 -22.37464,-25.65041 -39.99654,-27.349994 -9.63095,-0.928879 -20.595875,1.465734 -28.888594,6.308944 -15.428205,9.01056 -24.781381,25.20721 -24.781381,42.91328 0,12.81345 4.761178,24.7675 13.509266,33.91816 6.84966,7.16487 14.59962,11.70795 23.932685,14.0295 5.895112,1.46638 10.747334,1.83382 16.583864,1.25582 z m -9.00516,-17.65512 c -3.140414,-0.43278 -8.268664,-2.15564 -11.067543,-3.71821 -10.125668,-5.653 -16.314223,-16.20995 -16.314223,-27.83015 0,-15.00676 10.019402,-27.48992 24.963504,-31.10199 3.349912,-0.80969 10.047172,-0.80005 13.627272,0.0196 10.35502,2.37081 18.59536,9.28556 22.53695,18.91152 1.93628,4.7287 2.19047,6.14105 2.19047,12.17084 0,6.02979 -0.25419,7.44213 -2.19047,12.17083 -3.88756,9.49401 -12.2001,16.54734 -22.17535,18.81616 -3.20117,0.72809 -8.49649,0.985 -11.57061,0.56137 z"
         id="path1" /></g></g></svg>
