<?xml version="1.0" encoding="UTF-8" standalone="no"?>
<svg
   xmlns:dc="http://purl.org/dc/elements/1.1/"
   xmlns:cc="http://creativecommons.org/ns#"
   xmlns:rdf="http://www.w3.org/1999/02/22-rdf-syntax-ns#"
   xmlns:svg="http://www.w3.org/2000/svg"
   xmlns="http://www.w3.org/2000/svg"
   xml:space="preserve"
   viewBox="0 0 502.20001 507.39999"
   height="507.39999"
   width="502.20001"
   y="0px"
   x="0px"
   id="Layer_2"
   version="1.1"><metadata
   id="metadata21"><rdf:RDF><cc:Work
       rdf:about=""><dc:format>image/svg+xml</dc:format><dc:type
         rdf:resource="http://purl.org/dc/dcmitype/StillImage" /><dc:title></dc:title></cc:Work></rdf:RDF></metadata><defs
   id="defs19" />
<style
   id="style2"
   type="text/css">
	.st0{fill:#164477;}
	.st1{fill:#3399CC;}
</style>
<g
   transform="translate(-73.6,-73)"
   id="g14">
	<g
   id="g6">
		<path
   style="fill:#164477"
   id="path4"
   d="m 378,89 v 67.8 c 72.6,22.6 125.5,90.2 125.5,169.9 0,98.1 -80.2,177.9 -178.7,177.9 C 226.3,504.6 146,424.8 146,326.7 146,247 198.9,179.5 271.5,156.8 V 89 C 163.9,113.5 83.6,210.6 83.6,326.7 c 0,134.6 107.9,243.7 241.1,243.7 133.2,0 241.1,-109.1 241.1,-243.7 C 565.8,210.6 485.5,113.5 378,89 Z"
   class="st0" />
	</g>
	<path
   style="fill:#3399cc"
   id="path8"
   d="m 324.7,148.8 c 12.4,0 24.5,1.3 36.3,3.7 V 85.8 C 349.2,84 337.1,83 324.7,83 c -12.4,0 -24.4,0.9 -36.3,2.7 v 66.7 c 11.8,-2.4 23.9,-3.6 36.3,-3.6 z"
   class="st1" />
	<g
   id="g12">
		<path
   style="fill:#3399cc"
   id="path10"
   d="m 324.7,167 c -12.5,0 -24.6,1.4 -36.2,4.1 v 308.5 c 11.6,2.7 23.8,4.1 36.2,4.1 12.5,0 24.6,-1.4 36.3,-4.1 V 171.2 C 349.3,168.4 337.2,167 324.7,167 Z"
   class="st1" />
	</g>
</g>
</svg>