<svg xmlns="http://www.w3.org/2000/svg" xml:space="preserve" id="Layer_2" width="502.2" height="507.4" x="0" y="0" version="1.1"><style id="style2" type="text/css">.st1{fill:#39c}</style><g id="g14" transform="translate(-73.6 -73)"><g id="g6"><path id="path4" d="M378 89v67.8c72.6 22.6 125.5 90.2 125.5 169.9 0 98.1-80.2 177.9-178.7 177.9-98.5 0-178.8-79.8-178.8-177.9 0-79.7 52.9-147.2 125.5-169.9V89C163.9 113.5 83.6 210.6 83.6 326.7c0 134.6 107.9 243.7 241.1 243.7s241.1-109.1 241.1-243.7c0-116.1-80.3-213.2-187.8-237.7Z" style="fill:#164477"/></g><path id="path8" d="M324.7 148.8c12.4 0 24.5 1.3 36.3 3.7V85.8C349.2 84 337.1 83 324.7 83c-12.4 0-24.4.9-36.3 2.7v66.7c11.8-2.4 23.9-3.6 36.3-3.6z" class="st1" style="fill:#39c"/><g id="g12"><path id="path10" d="M324.7 167c-12.5 0-24.6 1.4-36.2 4.1v308.5c11.6 2.7 23.8 4.1 36.2 4.1 12.5 0 24.6-1.4 36.3-4.1V171.2c-11.7-2.8-23.8-4.2-36.3-4.2Z" class="st1" style="fill:#39c"/></g></g></svg>