<svg xmlns="http://www.w3.org/2000/svg" width="1066.667" height="800"><defs><clipPath id="a" clipPathUnits="userSpaceOnUse"><path d="M0 600h800V0H0Z"/></clipPath></defs><g clip-path="url(#a)" transform="matrix(1.33333 0 0 -1.33333 0 800)"><path d="M0 0c0-10.793-2.063-21.035-6.168-30.664-4.114-9.649-9.771-18.054-16.971-25.252-7.199-7.21-15.602-12.846-25.252-16.961-9.63-4.115-19.861-6.178-30.643-6.178h-64.638V-.949h63.167v317.333h-641.84V-1.062h458.6c10.804 0 21.015-2.062 30.643-6.167 9.64-4.125 18.054-9.773 25.253-16.971 7.209-7.209 12.846-15.603 16.971-25.263 4.105-9.619 6.168-19.841 6.168-30.643v-36.842c0-10.804-2.063-21.015-6.178-30.675-4.115-9.629-9.752-18.054-16.961-25.252-7.199-7.199-15.623-12.846-25.253-16.961-9.649-4.105-19.871-6.147-30.653-6.147h-276.08c-10.804 0-21.025 2.042-30.66 6.147-9.639 4.115-18.058 9.782-25.257 16.961-7.199 7.198-12.856 15.623-16.966 25.252-4.115 9.66-6.167 19.871-6.167 30.675v20.422h79.78v-20.525h275.462v38.732h-457.778c-10.798 0-21.015 2.103-30.644 6.34-9.644 4.238-18.063 9.875-25.257 16.951-7.199 7.046-12.856 15.398-16.961 25.028-4.11 9.629-6.168 19.84-6.168 30.613v314.929c0 10.777 2.058 20.979 6.168 30.603 4.105 9.628 9.762 17.981 16.961 25.037 7.188 7.061 15.613 12.708 25.242 16.946 9.629 4.227 19.851 6.346 30.643 6.346h642.525c10.804 0 21.015-2.119 30.643-6.356 9.629-4.243 18.054-9.9 25.253-16.972 7.189-7.061 12.846-15.423 16.96-25.063 4.116-9.639 6.168-19.855 6.168-30.644z" style="fill:#cc151c;fill-opacity:1;fill-rule:evenodd;stroke:none" transform="translate(799.513 199.501)"/><path d="M180.188 296.886h80.934v-80.607h-80.934z" style="fill:#8d9499;fill-opacity:1;fill-rule:evenodd;stroke:none"/></g></svg>