<svg xmlns="http://www.w3.org/2000/svg" viewBox="0 0 1000 1092.5"><path d="M2.745 1062.8 33.92 621.78l30.45-417.2c2.532-7.138 96.837-52.785 146.63-70.995l76.627-23.842 39.394-10.185 1.293-35.781c1.293-35.674 1.293-35.781 15.304-41.573 70.516-29.138 221.08-29.652 308.62-1.063l16.243 5.332 2.533 74.396 33.76 8.06a810.72 810.72 0 0 1 75.335 23.416c55.212 20.423 148.38 64.937 150.97 72.181 1.133 3.153 10.026 113.13 19.75 244.35l46.48 616.15 2.692 27.35h-161.63l-2.94-95.192a3808 3808 0 0 0-9.565-171.82l-30.91-233.85c-1.56-4.091-7.812-6.926-15.251-6.926h-12.56l-2.373 198.74-44.16 9.406c-72.853 15.517-67.47 12.931-67.47 32.415 0 9.46 1.507 18.103 3.366 19.237s25.95-2.586 53.618-8.325l53.565-10.539c1.807-.106 3.26 30.042 3.26 66.956v67.115l-38.314 17.997c-59.658 28.022-114.78 43.38-183.86 51.191l-22.956 2.586V72.377l20.778-.407c46.32-.94 85.059-18.51 66.743-30.343-13.8-8.946-39.04-13.391-89.753-15.924-73.05-3.614-135.77 6.926-141.25 23.736-2.888 8.839 28.589 19.29 65.663 21.823l34.027 2.32v957.29l-20.778-2.373c-65.202-7.493-136.85-27.243-195.54-53.866l-28.802-13.037v-136.39l9.866 2.32c37.906 8.892 93.437 18.67 96.218 16.952 1.86-1.134 3.365-9.778 3.365-19.183 0-19.396 1.967-18.457-71.048-33.301l-38.207-7.758-2.32-197.4-10.345-1.453c-5.686-.832-12.151.354-14.365 2.586-2.214 2.232-7.758 25.542-12.311 51.811-16.278 93.951-27.562 220.83-33.407 375.01l-2.94 77.708H-.005z"/></svg>