<svg xmlns="http://www.w3.org/2000/svg" xmlns:xlink="http://www.w3.org/1999/xlink" version="1.1" id="Layer_1" x="0px" y="0px" style="enable-background:new 0 0 512 512;" xml:space="preserve" viewBox="27.6 0.18 456.8 511.82">
<g>
	<path d="M416.4,512l68-0.8l-23.5-414c0,0-45.7-37.7-126.8-45.3c-0.4,0.5,2.8-28.9,0.8-33.6c-1.7-4-32.6-20.2-82.3-17.9v10.5   c22.8-0.6,46.3,2.4,56.3,7.4c4.7,2.4,5.3,12.8,0.9,16c-4.6,3.3-40.3,1.7-40.3,1.7l-4.2,444.3c0,0,79.3-5.8,111.7-26.9   c-0.6,0.3,0-70.5,0-70.5l-44.5,9.2l-0.8-16.8l46.2-7.6l2.5-93.2c0,0,8-6.7,16.8-0.8C396.9,274.5,416.4,512,416.4,512L416.4,512z" fill="#ffffff"/>
	<path d="M95.6,512l-68-0.8l23.5-414c0,0,45.7-37.7,126.8-45.3c0.4,0.5-2.8-28.9-0.9-33.6c1.7-4,32.6-20.2,82.3-17.9v10.5   c-22.8-0.6-46.3,2.4-56.3,7.4c-4.7,2.4-5.3,12.8-0.8,16c4.6,3.3,40.3,1.7,40.3,1.7l4.2,444.3c0,0-79.3-5.8-111.7-26.9   c0.6,0.3,0-70.5,0-70.5l44.5,9.2l0.8-16.8l-46.2-7.6l-2.5-93.2c0,0-8-6.7-16.8-0.8C115.1,274.5,95.6,512,95.6,512L95.6,512z" fill="#ffffff"/>
</g>
</svg>