<svg version="1.1" viewBox="0 0 1000 1092.5" xmlns="http://www.w3.org/2000/svg"><path d="m2.7455 1062.8 31.175-441.02 30.449-417.2c2.533-7.1384 96.838-52.785 146.63-70.995l76.627-23.842 39.394-10.185 1.2931-35.781c1.2931-35.674 1.2931-35.781 15.304-41.573 70.516-29.138 221.08-29.652 308.62-1.0628l16.243 5.3317 2.533 74.396 33.761 8.0595a810.72 810.72 0 0 1 75.334 23.417c55.212 20.423 148.38 64.937 150.97 72.181 1.1336 3.153 10.026 113.13 19.75 244.35l46.48 616.15 2.6924 27.349h-161.63l-2.9404-95.191a3808 3808 0 0 0-9.5651-171.82l-30.91-233.85c-1.5588-4.0918-7.8115-6.9259-15.251-6.9259h-12.559l-2.3736 198.74-44.159 9.4057c-72.854 15.517-67.47 12.931-67.47 32.415 0 9.4589 1.5056 18.103 3.3655 19.237s25.95-2.5861 53.618-8.3252l53.565-10.539c1.8068-0.10628 3.2592 30.042 3.2592 66.956v67.115l-38.314 17.997c-59.658 28.022-114.78 43.38-183.86 51.191l-22.956 2.5861v-958.99l20.778-0.4074c46.32-0.9388 85.059-18.51 66.743-30.343-13.799-8.9452-39.04-13.391-89.753-15.924-73.049-3.6135-135.77 6.9259-141.25 23.736-2.8873 8.8389 28.589 19.29 65.663 21.823l34.027 2.3204v957.29l-20.778-2.3735c-65.202-7.4927-136.85-27.243-195.54-53.866l-28.802-13.037v-136.39l9.8663 2.3204c37.906 8.892 93.437 18.67 96.218 16.952 1.8599-1.1336 3.3655-9.7777 3.3655-19.183 0-19.396 1.9662-18.457-71.048-33.301l-38.207-7.7584-2.3204-197.4-10.345-1.4525c-5.686-0.83253-12.151 0.35426-14.365 2.5861-2.2142 2.2319-7.7584 25.542-12.311 51.811-16.278 93.951-27.562 220.83-33.407 375.01l-2.9404 77.708h-157.42z" stroke-width="17.713"/></svg>
