<?xml version="1.0" encoding="UTF-8" standalone="no"?>
<!-- Created with Inkscape (http://www.inkscape.org/) -->

<svg
   xmlns:dc="http://purl.org/dc/elements/1.1/"
   xmlns:cc="http://creativecommons.org/ns#"
   xmlns:rdf="http://www.w3.org/1999/02/22-rdf-syntax-ns#"
   xmlns:svg="http://www.w3.org/2000/svg"
   xmlns="http://www.w3.org/2000/svg"
   xmlns:sodipodi="http://sodipodi.sourceforge.net/DTD/sodipodi-0.dtd"
   xmlns:inkscape="http://www.inkscape.org/namespaces/inkscape"
   width="283.00095"
   height="299.18234"
   id="svg2"
   version="1.1"
   inkscape:version="0.47 r22583"
   sodipodi:docname="logo-jeedom-petit-nom-couleur.svg">
  <defs
     id="defs4">
    <inkscape:perspective
       sodipodi:type="inkscape:persp3d"
       inkscape:vp_x="0 : 526.18109 : 1"
       inkscape:vp_y="0 : 1000 : 0"
       inkscape:vp_z="744.09448 : 526.18109 : 1"
       inkscape:persp3d-origin="372.04724 : 350.78739 : 1"
       id="perspective10" />
    <inkscape:perspective
       id="perspective2884"
       inkscape:persp3d-origin="0.5 : 0.33333333 : 1"
       inkscape:vp_z="1 : 0.5 : 1"
       inkscape:vp_y="0 : 1000 : 0"
       inkscape:vp_x="0 : 0.5 : 1"
       sodipodi:type="inkscape:persp3d" />
    <inkscape:perspective
       id="perspective2886"
       inkscape:persp3d-origin="0.5 : 0.33333333 : 1"
       inkscape:vp_z="1 : 0.5 : 1"
       inkscape:vp_y="0 : 1000 : 0"
       inkscape:vp_x="0 : 0.5 : 1"
       sodipodi:type="inkscape:persp3d" />
  </defs>
  <sodipodi:namedview
     id="base"
     pagecolor="#ffffff"
     bordercolor="#666666"
     borderopacity="1.0"
     inkscape:pageopacity="0.0"
     inkscape:pageshadow="2"
     inkscape:zoom="2.7532598"
     inkscape:cx="141.31886"
     inkscape:cy="149.35993"
     inkscape:document-units="px"
     inkscape:current-layer="layer1"
     showgrid="false"
     inkscape:window-width="2057"
     inkscape:window-height="1071"
     inkscape:window-x="50"
     inkscape:window-y="26"
     inkscape:window-maximized="0" />
  <metadata
     id="metadata7">
    <rdf:RDF>
      <cc:Work
         rdf:about="">
        <dc:format>image/svg+xml</dc:format>
        <dc:type
           rdf:resource="http://purl.org/dc/dcmitype/StillImage" />
        <dc:title />
      </cc:Work>
    </rdf:RDF>
  </metadata>
  <g
     inkscape:label="Layer 1"
     inkscape:groupmode="layer"
     id="layer1"
     transform="translate(-220.64444,-333.29484)">
    <text
       xml:space="preserve"
       style="font-size:64px;font-style:normal;font-variant:normal;font-weight:normal;font-stretch:normal;fill:#000000;fill-opacity:1;stroke:none;font-family:Arial Black;-inkscape-font-specification:'Arial Black,'"
       x="122.72722"
       y="265.42484"
       id="text2915"
       transform="translate(220.37886,333.74656)"><tspan
         sodipodi:role="line"
         id="tspan2917"
         x="122.72722"
         y="265.42484" /></text>
    <path
       style="fill:#94ca02;fill-opacity:1;stroke:none"
       d="m 328.28039,333.29484 c -7.07637,7.85312 -13.27485,16.49809 -19.88236,24.75897 -29.37297,37.90194 -58.74833,75.80736 -87.75359,113.98996 6.12738,0.73961 12.51004,0.27259 18.7336,0.43118 9.72045,0 19.44089,0 29.16134,0 19.67146,-25.21478 39.09761,-50.64079 59.00347,-75.6606 1.95728,0.64633 2.94732,3.11655 4.41319,4.52773 30.68351,39.29415 61.27263,78.66241 91.92133,117.9839 15.70144,-0.1361 31.42399,0.30725 47.112,-0.31771 -0.40261,-1.2179 -2.0845,-2.79297 -2.92354,-4.12178 -43.908,-57.49144 -87.81216,-114.98711 -131.93684,-172.3121 -2.6031,-3.06616 -4.86006,-6.6425 -7.8486,-9.27955 z"
       id="path2893" />
    <path
       style="fill:#454449;fill-opacity:1;stroke:none"
       d="m 171.06918,58.154725 c 0,5.82092 0,11.641839 0,17.462759 13.31643,17.174792 26.48546,34.476556 40.09967,51.412446 1.18235,1.40427 0.66728,-1.76395 0.8964,-2.3034 0.68929,-28.000577 0.28126,-56.016286 0.39713,-84.023216 -13.79773,0 -27.59547,0 -41.3932,0 0,5.817137 0,11.634274 0,17.451411 z"
       id="path2895"
       transform="translate(220.37886,333.74656)" />
    <path
       style="fill:#454449;fill-opacity:1;stroke:none"
       d="m 210.77171,16.001283 c -0.42091,0.831168 1.45948,1.634352 1.97435,2.223977 3.56931,2.716213 8.60738,5.807516 8.01085,10.983723 -0.28648,4.328576 -3.33652,7.936276 -7.09176,9.826348 -1.11811,0.810798 0.006,2.8619 1.21411,1.656636 3.72609,-2.22744 6.95743,-5.540165 9.03207,-9.338434 1.1886,-5.675606 -3.0712,-10.727371 -7.8747,-13.116926 -1.6717,-0.84289 -3.37165,-2.029027 -5.26492,-2.235324 z"
       id="path2897"
       transform="translate(220.37886,333.74656)" />
    <path
       style="fill:#454449;fill-opacity:1;stroke:none"
       d="m 207.70807,7.3550048 c -1.13148,1.5597952 -1.2692,4.1971102 -0.22694,5.8890002 1.51862,-1.323638 2.05702,-4.7361121 0.22694,-5.8890002 z"
       id="path2899"
       transform="translate(220.37886,333.74656)" />
    <path
       style="fill:#454449;fill-opacity:1;stroke:none"
       d="m 65.498351,123.03585 c -4.950997,6.50551 -9.901993,13.01102 -14.85299,19.51653 -4.882838,0.0702 -9.765753,0.1345 -14.648747,0.1929 0,31.10542 0,62.21084 0,93.31626 3.436626,3.62143 6.867141,7.24864 10.291568,10.8816 6.010033,0 12.020066,0 18.030099,0 0,-24.32758 0,-48.65517 0,-72.98275 9.198489,0 18.396982,0 27.595471,0 0,24.32758 0,48.65517 0,72.98275 26.093908,0 52.187818,0 78.281718,0 2.71805,-2.88009 5.42993,-5.76597 8.13568,-8.65762 -0.008,-25.98044 -0.0151,-51.96088 -0.0227,-77.94132 -14.81895,-18.94163 -29.6379,-37.88325 -44.45685,-56.82488 -17.82964,0 -35.659273,0 -53.488913,0 -4.954778,6.50551 -9.909558,13.01102 -14.864336,19.51653 z m 13.162313,14.97781 c 4.780795,0 9.561587,0 14.342382,0 0,8.23023 0,16.46045 0,24.69068 -9.561587,0 -19.123178,0 -28.684765,0 0,-8.23023 0,-16.46045 0,-24.69068 4.780795,0 9.561587,0 14.342383,0 z"
       id="path2901"
       transform="translate(220.37886,333.74656)" />
    <path
       style="fill:#454449;fill-opacity:1;stroke:none"
       d="m 65.044478,260.19623 c 0,4.17563 0,8.35126 0,12.52689 -12.197833,0 -24.395667,0 -36.5935,0 -0.337856,-6.55774 0.234797,-13.21677 -0.805624,-19.70943 -1.114418,-2.62783 -4.737286,-1.71983 -7.023683,-2.09916 -5.158325,0.0318 -10.487905,-0.62397 -15.5337988,0.64677 -2.207896,1.438 -1.3167268,4.69779 -1.71337,6.93291 -0.2395965,11.92389 -0.7970224,23.91007 0.3630983,35.79922 -0.023373,2.37212 1.8728178,4.19001 4.2550581,4.07351 13.9154134,0.58987 27.8706774,0.26328 41.8016874,0.3492 12.107382,-0.17286 24.248931,0.31821 36.332526,-0.5421 3.759379,-0.23934 5.084466,-4.40069 4.969908,-7.59102 0.652386,-14.29186 0.347627,-28.61031 0.453873,-42.91368 -8.83539,0 -17.670785,0 -26.506175,0 0,4.17563 0,8.35126 0,12.52689 z"
       id="path2903"
       transform="translate(220.37886,333.74656)" />
    <path
       style="fill:#454449;fill-opacity:1;stroke:none"
       d="m 97.723324,271.08918 c 0,5.74906 0,11.49811 0,17.24717 9.803656,0 19.607306,0 29.410966,0 0,-2.66272 0,-5.32544 0,-7.98816 -6.17268,0 -12.34535,0 -18.51802,0 0.23712,-2.06251 -0.47751,-5.07676 0.3631,-6.53577 5.44648,0 10.89295,0 16.33942,0 0,-2.42066 0,-4.84131 0,-7.26197 -5.5675,0 -11.13501,0 -16.70252,0 0.45088,-1.84874 -1.30345,-5.9027 1.81549,-5.08337 5.32545,0 10.65089,0 15.97633,0 0,-2.54169 0,-5.08338 0,-7.62507 -9.56159,0 -19.12318,0 -28.684766,0 0,5.74906 0,11.49811 0,17.24717 z"
       id="path2905"
       transform="translate(220.37886,333.74656)" />
    <path
       style="fill:#454449;fill-opacity:1;stroke:none"
       d="m 132.58076,271.08918 c 0,5.74906 0,11.49811 0,17.24717 9.68262,0 19.36524,0 29.04786,0 0,-2.66272 0,-5.32544 0,-7.98816 -6.05163,0 -12.10327,0 -18.15491,0 0.23711,-2.06251 -0.47751,-5.07676 0.3631,-6.53577 5.32544,0 10.65088,0 15.97632,0 0,-2.42066 0,-4.84131 0,-7.26197 -5.44647,0 -10.89295,0 -16.33942,0 0.45088,-1.84874 -1.30346,-5.9027 1.81549,-5.08337 5.32544,0 10.65088,0 15.97633,0 0,-2.54169 0,-5.08338 0,-7.62507 -9.56159,0 -19.12318,0 -28.68477,0 0,5.74906 0,11.49811 0,17.24717 z"
       id="path2907"
       transform="translate(220.37886,333.74656)" />
    <path
       style="fill:#94ca02;fill-opacity:1;stroke:none"
       d="m 387.81717,605.19894 c 0,5.76419 0,11.52837 0,17.29256 7.3151,-0.2722 14.69372,0.22976 21.96744,-0.62408 6.4405,-1.64188 10.36737,-8.41321 10.01153,-14.82932 0.52973,-6.39016 -1.13136,-13.87037 -7.08405,-17.30488 -4.67591,-2.5789 -10.27128,-1.27423 -15.3635,-1.71598 -3.17714,-0.0407 -6.35428,-0.0815 -9.53142,-0.1222 0,5.76797 0,11.53593 0,17.3039 z m 13.77504,-9.13419 c 2.96308,0.009 6.37936,1.33427 6.83079,4.66354 0.58404,3.72217 0.85763,7.89043 -0.78293,11.36952 -1.83794,2.90172 -5.66941,2.11298 -8.56685,2.45091 0,-6.23697 0,-12.47394 0,-18.71091 0.83966,0.0756 1.67932,0.15129 2.51899,0.22694 z"
       id="path2909" />
    <path
       style="fill:#94ca02;fill-opacity:1;stroke:none"
       d="m 219.9059,253.22928 c -6.88438,0.0581 -14.17887,4.19587 -15.84016,11.23336 -2.377,7.97728 -0.58848,18.42525 7.36408,22.58017 5.71625,2.76266 12.62309,2.49535 18.54071,0.49926 6.42696,-2.84503 9.54532,-10.28179 8.97534,-17.02023 0.35012,-6.77138 -3.40843,-14.04594 -10.22349,-16.02171 -2.82179,-0.97039 -5.83794,-1.37545 -8.81648,-1.27085 z m 1.18007,8.48743 c 4.13684,-0.0262 6.96712,3.84215 6.85348,7.73853 0.17919,3.89385 0.12642,9.29404 -4.32314,10.80217 -3.78904,1.43974 -8.63043,-0.79634 -9.10015,-5.06068 -0.55549,-4.15057 -0.95775,-9.48099 2.6665,-12.39073 1.12676,-0.80559 2.53174,-1.13371 3.90331,-1.08929 z"
       id="path2911"
       transform="translate(220.37886,333.74656)" />
    <path
       style="fill:#94ca02;fill-opacity:1;stroke:none"
       d="m 244.41503,271.07783 c 0,5.75284 0,11.50568 0,17.25852 3.02204,0 6.04408,0 9.06612,0 0.0702,-7.87465 0.13452,-15.74934 0.19289,-23.62408 2.01144,7.87387 3.97875,15.7593 6.02516,23.62408 2.76863,0 5.53725,0 8.30588,0 2.01255,-7.93528 4.0886,-15.85434 6.12728,-23.78294 0.0248,7.92763 0.0437,15.85528 0.0567,23.78294 3.02582,0 6.05164,0 9.07746,0 0,-11.49811 0,-22.99623 0,-34.49434 -4.70136,0 -9.40273,0 -14.1041,0 -1.91083,6.53851 -3.39799,13.38682 -5.28762,19.81155 -1.83542,-6.51209 -3.44824,-13.08522 -5.1628,-19.63 -4.76559,-0.0702 -9.53125,-0.13453 -14.297,-0.1929 0,5.74906 0,11.49812 0,17.24717 z"
       id="path2913"
       transform="translate(220.37886,333.74656)" />
  </g>
</svg>
