<svg xmlns="http://www.w3.org/2000/svg" width="283.001" height="299.182"><path d="M328.28 333.295c-7.076 7.853-13.274 16.498-19.882 24.759-29.373 37.902-58.748 75.807-87.754 113.99 6.128.74 12.51.272 18.734.431h29.161c19.672-25.215 39.098-50.64 59.004-75.66 1.957.646 2.947 3.116 4.413 4.527 30.684 39.294 61.273 78.662 91.921 117.984 15.702-.136 31.424.307 47.112-.318-.402-1.218-2.084-2.793-2.923-4.122-43.908-57.49-87.812-114.987-131.937-172.312-2.603-3.066-4.86-6.642-7.849-9.28z" style="fill:#94ca02;fill-opacity:1;stroke:none" transform="translate(-220.644 -333.295)"/><path d="M171.07 58.155v17.462c13.316 17.175 26.485 34.477 40.099 51.413 1.182 1.404.667-1.764.896-2.303.69-28.001.282-56.017.397-84.024H171.07v17.452zm39.702-42.154c-.421.831 1.46 1.635 1.974 2.224 3.57 2.716 8.607 5.808 8.01 10.984-.286 4.329-3.336 7.936-7.09 9.826-1.119.811.005 2.862 1.213 1.657 3.726-2.227 6.958-5.54 9.032-9.338 1.189-5.676-3.07-10.728-7.874-13.117-1.672-.843-3.372-2.03-5.265-2.236zm-3.064-8.646c-1.131 1.56-1.27 4.197-.227 5.889 1.519-1.324 2.057-4.736.227-5.889zM65.498 123.036l-14.853 19.516c-4.882.07-9.765.135-14.648.193v93.317c3.436 3.621 6.867 7.248 10.291 10.881h18.03V173.96h27.596v72.983h78.281a2766.4 2766.4 0 0 0 8.136-8.657l-.023-77.942-44.456-56.825h-53.49l-14.864 19.517zm13.163 14.978h14.342v24.69H64.318v-24.69h14.343zM65.044 260.196v12.527H28.451c-.338-6.558.235-13.217-.806-19.71-1.114-2.627-4.737-1.72-7.023-2.098-5.159.031-10.488-.624-15.534.646C2.88 253 3.77 256.26 3.375 258.494c-.24 11.924-.798 23.91.363 35.8-.024 2.372 1.872 4.19 4.255 4.073 13.915.59 27.87.263 41.801.35 12.108-.174 24.25.317 36.333-.543 3.76-.24 5.084-4.4 4.97-7.591.652-14.292.347-28.61.454-42.914H65.044v12.527zm32.679 10.894v17.246h29.411v-7.988h-18.518c.237-2.062-.477-5.077.363-6.536h16.34v-7.262h-16.703c.451-1.848-1.303-5.902 1.816-5.083h15.976v-7.625H97.723v17.247zm34.857 0v17.246h29.049v-7.988h-18.155c.237-2.062-.478-5.077.363-6.536h15.976v-7.262h-16.34c.452-1.848-1.303-5.902 1.816-5.083h15.977v-7.625H132.58v17.247z" style="fill:#454449;fill-opacity:1;stroke:none" transform="translate(-.266 .452)"/><path d="M387.817 605.199v17.293c7.315-.273 14.694.23 21.968-.625 6.44-1.641 10.367-8.413 10.011-14.829.53-6.39-1.131-13.87-7.084-17.305-4.676-2.579-10.271-1.274-15.363-1.716l-9.532-.122v17.304zm13.775-9.134c2.963.009 6.38 1.334 6.831 4.663.584 3.722.858 7.89-.783 11.37-1.838 2.902-5.67 2.113-8.567 2.45v-18.71l2.52.227z" style="fill:#94ca02;fill-opacity:1;stroke:none" transform="translate(-220.644 -333.295)"/><path d="M219.906 253.23c-6.884.057-14.179 4.195-15.84 11.233-2.377 7.977-.589 18.425 7.364 22.58 5.716 2.762 12.623 2.495 18.54.5 6.427-2.846 9.546-10.283 8.976-17.021.35-6.772-3.409-14.046-10.224-16.022-2.821-.97-5.838-1.375-8.816-1.27zm1.18 8.487c4.137-.026 6.967 3.842 6.853 7.738.18 3.894.127 9.294-4.323 10.802-3.789 1.44-8.63-.796-9.1-5.06-.555-4.15-.958-9.481 2.667-12.391 1.126-.806 2.531-1.134 3.903-1.09zm23.329 9.361v17.258h9.066c.07-7.874.135-15.749.193-23.624 2.011 7.874 3.979 15.76 6.025 23.624h8.306c2.013-7.935 4.089-15.854 6.127-23.783.025 7.928.044 15.856.057 23.783h9.078v-34.494h-14.105c-1.91 6.539-3.398 13.387-5.287 19.812-1.836-6.513-3.448-13.086-5.163-19.63-4.766-.07-9.531-.135-14.297-.193v17.247z" style="fill:#94ca02;fill-opacity:1;stroke:none" transform="translate(-.266 .452)"/></svg>