<svg xmlns="http://www.w3.org/2000/svg" viewBox="0 0 96 96"><linearGradient id="a" x1="28" x2="28" y1="90" y2="50" gradientTransform="matrix(1 0 0 -1 0 98)" gradientUnits="userSpaceOnUse"><stop offset="0" stop-color="#fff" stop-opacity=".4"/><stop offset="1" stop-color="#fff" stop-opacity="0"/></linearGradient><linearGradient id="b" x1="-178.075" x2="-111.501" y1="163.402" y2="124.966" gradientTransform="matrix(1 0 0 -1 194 202)" gradientUnits="userSpaceOnUse"><stop offset="0" stop-color="#fff"/><stop offset="0" stop-color="#a85dc3"/><stop offset=".15" stop-color="#9863c5"/><stop offset=".43" stop-color="#6f74cb"/><stop offset=".83" stop-color="#2d90d5"/><stop offset="1" stop-color="#0f9dda"/></linearGradient><path fill="#131928" fill-rule="evenodd" d="M80 52c0 15.5-12.5 28-28 28-15.1 0-27.5-12-28-27v1c0 16.6 13.4 30 30 30s30-13.4 30-30-13.4-30-30-30h-1c15 .5 27 12.9 27 28z" clip-rule="evenodd" opacity=".2"/><path fill="url(#a)" fill-rule="evenodd" d="M48 12c-19.9 0-36 16.1-36 36 0 2.2-1.8 4-4 4s-4-1.8-4-4C4 23.7 23.7 4 48 4c2.2 0 4 1.8 4 4s-1.8 4-4 4z" clip-rule="evenodd"/><ellipse cx="48" cy="48" fill="#000b25" rx="48" ry="46.1"/><path fill="#fff" d="M34.8 21.7h12.9V27H34.8z"/><path fill="url(#b)" d="M82.4 51.4C82 33.8 65.4 17.2 48.2 17 30.8 16.8 13.9 33 13 50.5c-.4 8.2.2 9 8.5 10.4.9 9.2-.5 14.4-6.2 20.8.8.7 1.5 1.3 2.4 2 .2-.2.4-.4.5-.7 5.1-7 7.6-9.9 7-18-.4-5.4 1.1-7.9 6.9-7.6.9 10.8-1.4 16.1-5.9 26.2-.7 1.5-1.4 2.9-2.3 4.2 1.1.6 2.2 1.2 3.3 1.7 1.2-2 2.1-4.2 2.8-6.6 2.6-9.2 4.8-13.8 5.7-23.4.3-3.7 1.4-5.1 5.5-4.2C42.6 67 40 73.2 36.4 84.5c-.8 2.6-1.8 5-3 7.3l3.3.9c.7-1.4 1.4-2.9 2-4.4C43.1 77 45.8 70.4 45 58.4c-.3-4.4 1.4-5.2 4.8-3.9.5 8.6-1.1 11.6-.1 19.9.8 7.2 2.8 13.5 5.7 19 1.1-.2 2.1-.4 3.1-.6-5.1-10.1-4.9-22.8-4.7-37.5 4.4-.9 5.6.3 5.8 4.1.5 8.5-.7 11.7 1 20 .9 4.2 2.5 8 4.9 11.3 1.1-.4 2.3-.9 3.4-1.4-7.3-8.5-6-18.8-5.9-32.2 7.1 1.4 6.5 1.5 7.1 7.5.8 7.6 1.3 8.6 3.3 16 .3.9 1.3 2.7 2.5 4.6 1-.7 1.9-1.4 2.8-2.1-5.2-10.7-6.4-15-4.5-22.7 7.7-.6 8.4-1.4 8.2-9zm-62.8-.3C17.6 42.4 25.1 29 32 28c-4 7.4-8.2 15.3-12.4 23.1zm15.8-23.9c-.2-.9-.5-1.8-.7-2.7l12.3-3 .7 2.7c-4.2 1-8.3 2-12.3 3z"/><path fill="#fff" d="M19.6 51.1C17.6 42.4 25.1 29 32 28c-4 7.4-8.2 15.3-12.4 23.1z"/><path fill="#1d1d1b" fill-rule="evenodd" d="M48 30.2c-1.6 0-3.1.5-4.3 1.4h.5c2.1 0 3.8 1.7 3.8 3.8S46.3 39 44.2 39c-1.7 0-3.2-1.1-3.6-2.7-.1.4-.1.9-.1 1.4 0 4.1 3.4 7.5 7.5 7.5s7.5-3.4 7.5-7.5-3.4-7.5-7.5-7.5z" clip-rule="evenodd"/><circle cx="44.3" cy="35.1" r="3.7" fill="#fff"/></svg>