<svg xmlns="http://www.w3.org/2000/svg" xmlns:xlink="http://www.w3.org/1999/xlink" id="Layer_1" x="0" y="0" version="1.1" viewBox="0 0 96 96" xml:space="preserve" style="enable-background:new 0 0 96 96"><style type="text/css">.st0,.st1{fill-rule:evenodd;clip-rule:evenodd}.st0{opacity:.2;fill:#131928;enable-background:new}.st1{fill:url(#SVGID_1_)}.st2{fill:#000b25}.st3{fill:#fff}.st5{fill-rule:evenodd;clip-rule:evenodd;fill:#1d1d1b}</style><path d="M80,52c0,15.5-12.5,28-28,28c-15.1,0-27.5-12-28-27c0,0.3,0,0.7,0,1c0,16.6,13.4,30,30,30s30-13.4,30-30	S70.6,24,54,24c-0.3,0-0.7,0-1,0C68,24.5,80,36.9,80,52z" class="st0"/><linearGradient id="SVGID_1_" x1="28" x2="28" y1="90" y2="50" gradientTransform="matrix(1 0 0 -1 0 98)" gradientUnits="userSpaceOnUse"><stop offset="0" style="stop-color:#fff;stop-opacity:.4"/><stop offset="1" style="stop-color:#fff;stop-opacity:0"/></linearGradient><path d="M48,12c-19.9,0-36,16.1-36,36c0,2.2-1.8,4-4,4c-2.2,0-4-1.8-4-4C4,23.7,23.7,4,48,4c2.2,0,4,1.8,4,4	C52,10.2,50.2,12,48,12z" class="st1"/><ellipse cx="48" cy="48" class="st2" rx="48" ry="46.1"/><rect width="12.9" height="5.3" x="34.8" y="21.7" class="st3"/><linearGradient id="SVGID_00000124123951135562400370000011621398912477202562_" x1="-178.075" x2="-111.501" y1="163.402" y2="124.966" gradientTransform="matrix(1 0 0 -1 194 202)" gradientUnits="userSpaceOnUse"><stop offset="0" style="stop-color:#fff"/><stop offset="0" style="stop-color:#a85dc3"/><stop offset=".15" style="stop-color:#9863c5"/><stop offset=".43" style="stop-color:#6f74cb"/><stop offset=".83" style="stop-color:#2d90d5"/><stop offset="1" style="stop-color:#0f9dda"/></linearGradient><path style="fill:url(#SVGID_00000124123951135562400370000011621398912477202562_)" d="M82.4,51.4C82,33.8,65.4,17.2,48.2,17	C30.8,16.8,13.9,33,13,50.5c-0.4,8.2,0.2,9,8.5,10.4c0.9,9.2-0.5,14.4-6.2,20.8c0.8,0.7,1.5,1.3,2.4,2c0.2-0.2,0.4-0.4,0.5-0.7	c5.1-7,7.6-9.9,7-18c-0.4-5.4,1.1-7.9,6.9-7.6c0.9,10.8-1.4,16.1-5.9,26.2c-0.7,1.5-1.4,2.9-2.3,4.2c1.1,0.6,2.2,1.2,3.3,1.7	c1.2-2,2.1-4.2,2.8-6.6c2.6-9.2,4.8-13.8,5.7-23.4c0.3-3.7,1.4-5.1,5.5-4.2c1.4,11.7-1.2,17.9-4.8,29.2c-0.8,2.6-1.8,5-3,7.3	c1.1,0.3,2.2,0.6,3.3,0.9c0.7-1.4,1.4-2.9,2-4.4c4.4-11.3,7.1-17.9,6.3-29.9c-0.3-4.4,1.4-5.2,4.8-3.9c0.5,8.6-1.1,11.6-0.1,19.9	c0.8,7.2,2.8,13.5,5.7,19c1.1-0.2,2.1-0.4,3.1-0.6c-5.1-10.1-4.9-22.8-4.7-37.5c4.4-0.9,5.6,0.3,5.8,4.1c0.5,8.5-0.7,11.7,1,20	c0.9,4.2,2.5,8,4.9,11.3c1.1-0.4,2.3-0.9,3.4-1.4c-7.3-8.5-6-18.8-5.9-32.2c7.1,1.4,6.5,1.5,7.1,7.5c0.8,7.6,1.3,8.6,3.3,16	c0.3,0.9,1.3,2.7,2.5,4.6c1-0.7,1.9-1.4,2.8-2.1c-5.2-10.7-6.4-15-4.5-22.7C81.9,59.8,82.6,59,82.4,51.4L82.4,51.4z M19.6,51.1	C17.6,42.4,25.1,29,32,28C28,35.4,23.8,43.3,19.6,51.1L19.6,51.1z M35.4,27.2c-0.2-0.9-0.5-1.8-0.7-2.7c4.1-1,8.2-2,12.3-3l0.7,2.7	C43.5,25.2,39.4,26.2,35.4,27.2z"/><path d="M19.6,51.1C17.6,42.4,25.1,29,32,28C28,35.4,23.8,43.3,19.6,51.1L19.6,51.1z" class="st3"/><path d="M48,30.2c-1.6,0-3.1,0.5-4.3,1.4c0.2,0,0.4,0,0.5,0c2.1,0,3.8,1.7,3.8,3.8S46.3,39,44.2,39	c-1.7,0-3.2-1.1-3.6-2.7c-0.1,0.4-0.1,0.9-0.1,1.4c0,4.1,3.4,7.5,7.5,7.5s7.5-3.4,7.5-7.5S52.1,30.2,48,30.2L48,30.2z" class="st5"/><circle cx="44.3" cy="35.1" r="3.7" class="st3"/></svg>