<svg xmlns="http://www.w3.org/2000/svg" width="180" height="180"><path d="M0 0h180v180H0z" style="fill:#f7f5d1;fill-opacity:1;fill-rule:evenodd;stroke-width:1.002;stroke-miterlimit:4;stroke-dasharray:none"/><g style="font-size:175.161px;line-height:1.25;font-family:Cantarell;-inkscape-font-specification:&quot;Cantarell, @wght=700&quot;;font-variation-settings:&quot;wght&quot;700;fill:#262429;stroke-width:4.57959653;paint-order:normal;stroke:#262429;stroke-opacity:1;stroke-linecap:round;stroke-linejoin:round;stroke-miterlimit:4;stroke-dasharray:none"><path d="M54.45 143.435c23.822 0 37.484-14.713 37.484-40.462V20.122h-22.77v84.427c0 12.437-5.606 19.093-16.29 19.093-5.08 0-11.561-1.576-16.29-3.678l-6.482 17.34c7.357 4.204 15.765 6.131 24.348 6.131z" aria-label="J" style="paint-order:normal;stroke:#262429;stroke-opacity:1;stroke-linecap:round;stroke-linejoin:round;stroke-width:4.57959653;stroke-miterlimit:4;stroke-dasharray:none" transform="scale(.91457 1.0934)"/></g><g style="font-size:175.161px;line-height:1.25;font-family:Cantarell;-inkscape-font-specification:&quot;Cantarell, @wght=700&quot;;font-variation-settings:&quot;wght&quot;700;fill:#262429;stroke-width:4.45935726;paint-order:normal;stroke:#262429;stroke-opacity:1;stroke-linecap:round;stroke-linejoin:round;stroke-miterlimit:4;stroke-dasharray:none"><path d="M127.326 152.085c5.43 0 11.736-1.227 16.29-3.153l-4.554-15.064c-1.927.7-3.854 1.05-5.43 1.05-5.255 0-8.057-3.327-8.057-9.283V21.24h-22.07v107.199c0 14.713 8.933 23.647 23.821 23.647z" aria-label="l" style="paint-order:normal;stroke:#262429;stroke-opacity:1;stroke-linecap:round;stroke-linejoin:round;stroke-width:4.45935726;stroke-miterlimit:4;stroke-dasharray:none" transform="scale(.96655 1.0346)"/></g></svg>