<svg xmlns="http://www.w3.org/2000/svg" xmlns:svg="http://www.w3.org/2000/svg" id="svg5" width="180" height="180" version="1.1" viewBox="0 0 180 180"><g id="layer1"><rect style="fill:#f7f5d1;fill-opacity:1;fill-rule:evenodd;stroke-width:1.002;stroke-miterlimit:4;stroke-dasharray:none" id="background" width="180" height="180" x="0" y="0"/><g id="text3176" aria-label="J" transform="scale(0.91457227,1.0934073)" style="font-size:175.161px;line-height:1.25;font-family:Cantarell;-inkscape-font-specification:'Cantarell, @wght=700';font-variation-settings:'wght' 700;fill:#262429;stroke-width:4.57959653;paint-order:normal;stroke:#262429;stroke-opacity:1;stroke-linecap:round;stroke-linejoin:round;stroke-miterlimit:4;stroke-dasharray:none"><path id="path5497" d="m 54.449649,143.43516 c 23.821895,0 37.484453,-14.71353 37.484453,-40.46219 V 20.121817 H 69.163173 v 84.427603 c 0,12.43643 -5.605152,19.09255 -16.289973,19.09255 -5.079669,0 -11.560626,-1.57645 -16.289973,-3.67839 l -6.480956,17.34094 c 7.356761,4.20387 15.764489,6.13064 24.347378,6.13064 z" style="paint-order:normal;stroke:#262429;stroke-opacity:1;stroke-linecap:round;stroke-linejoin:round;stroke-width:4.57959653;stroke-miterlimit:4;stroke-dasharray:none"/></g><g id="text4104" aria-label="l" transform="scale(0.96655236,1.0346051)" style="font-size:175.161px;line-height:1.25;font-family:Cantarell;-inkscape-font-specification:'Cantarell, @wght=700';font-variation-settings:'wght' 700;fill:#262429;stroke-width:4.45935726;paint-order:normal;stroke:#262429;stroke-opacity:1;stroke-linecap:round;stroke-linejoin:round;stroke-miterlimit:4;stroke-dasharray:none"><path id="path5500" d="m 127.32625,152.08461 c 5.42999,0 11.73578,-1.22613 16.28997,-3.1529 l -4.55419,-15.06385 c -1.92677,0.70065 -3.85354,1.05097 -5.42999,1.05097 -5.25483,0 -8.0574,-3.32806 -8.0574,-9.28353 V 21.239343 H 103.50435 V 128.43787 c 0,14.71353 8.93321,23.64674 23.8219,23.64674 z" style="paint-order:normal;stroke:#262429;stroke-opacity:1;stroke-linecap:round;stroke-linejoin:round;stroke-width:4.45935726;stroke-miterlimit:4;stroke-dasharray:none"/></g></g></svg>