<svg xmlns="http://www.w3.org/2000/svg" viewBox="35.17 44.84 217.63 210.26"><path d="M131.8 182.9l-11.5 3.2c1 2.9 1.8 8.1 1.8 15.1v34.4H135v-36.4c2.4-2.9 5-4.3 7.8-4.3 1.4 0 2.5.3 3.7 1L150 184c-2-.9-2.9-1.1-4.8-1.1-1.4 0-3.1.3-4.2.8-2.4 1.2-5.4 3.9-7.3 6.5 0-2.9-.7-5.2-1.9-7.3zm-44.4-17H86v69.6h13.4v-30.8h16.9v-11.5H99.4v-16h21.1l.8-6.1c-12.7-.9-24.2-2.9-33.9-5.2zm-31.3 78.9l6.2 7.2c6-2.4 13.5-7.8 15.5-16.4.7-2.8.9-4.6.9-13.7V166H65.2v57.4c0 7.5-.3 10.3-1.3 12.9-1.3 2.9-4.4 6.3-7.8 8.5zm121.7-35.3c0 12.2-2.4 17.4-7.9 17.4-2.5 0-5.3-1.4-6.5-4.2-1-2.6-1.6-7-1.6-13 0-5.1.5-8.7 1.3-11.5 1-3.2 3.5-5.2 6.6-5.2 2.3 0 4.3 1 5.5 2.7 1.8 2.4 2.6 6.9 2.6 13.8zm7.9 20c4.2-5 6.1-11.1 6.1-19.9 0-8.3-1.7-14-5.6-18.8-4.2-5.2-9.6-7.7-16.6-7.7-13.2 0-22 10.7-22 26.9s8.7 26.6 22 26.6c7.5.1 12.4-2.7 16.1-7.1zm36.6-28.8c0 4.7-2.8 7.3-7.8 7.3-4.5 0-7.5-2.1-7.5-7.3 0-4.8 2.8-7.6 7.6-7.6s7.7 2.8 7.7 7.6zm22.7-11l-5.3-8.5c-3 2.8-6.6 4.4-10.1 4.4-1.6 0-2.5-.2-6-1.1-3.5-1-6-1.3-8.8-1.3-12.5 0-20.6 6.8-20.6 17.4 0 7.6 3.4 12.4 10.5 14.3-2.9.7-6 2.2-7.4 3.9-1 1.2-1.5 2.8-1.5 4.7 0 1.6.4 3 1 4.2.7 1.1 1.6 2 2.8 2.5 2.3.9 6 1.5 11.7 1.6 3 0 4.8.1 5.4.1 3.5.2 5.3.8 6.7 1.5 1.3.8 2.3 2.6 2.3 4.6 0 2-1.2 4-3.1 5.2-1.7 1.2-4.5 1.7-8.1 1.7-5.9 0-9.2-2.2-9.2-6.3 0-1.8.2-2.2.6-3.3h-11.8c-.5 1-1.1 2.4-1.1 5.2 0 3.5 1.3 6.5 4 9.1 4.4 4.3 11.6 5.5 18.5 5.5 7.6 0 15-1.8 19.3-6.6 2.7-3 3.9-6.3 3.9-10.6 0-4.6-1.3-8.1-4.2-11-3.4-3.3-7.3-4.5-14.8-4.6l-6.9-.1c-1.3 0-2.1-.5-2.1-1.2 0-1.4 1.8-2.6 5.1-4.2 1 .1 1.3.1 1.9.1 10.4 0 18-6.4 18-15.3 0-3.4-1-6-2.9-8.4 1.6.2 2.1.3 3.3.3 3.4 0 6.1-1.1 8.9-3.8zM84 105.4c-16 3.9-26.9 11.6-26.9 20.4 0 5.5 4.2 10.5 11.1 14.4-2.1-3.3-3.2-6.9-3.2-10.5.1-9.1 7.2-17.6 19-24.3zm168.8 34.5c0-5.8-3.6-11.1-9.6-15.5.5 1.8.9 3.6.9 5.4 0 16.5-23.1 30.7-55.9 36.6 3.7.4 7.5.6 11.5.6 29.3-.1 53.1-12.2 53.1-27.1zm-18.9-9c0-6.1-5.2-11.7-14.1-16.3 2.1 2.5 3.2 5.2 3.2 8 0 14.7-31.2 26.6-69.8 26.6-38.5 0-69.8-11.9-69.8-26.6 0-1.9.5-3.7 1.5-5.4-6.2 4.1-9.7 8.8-9.7 13.8 0 15.9 35.5 28.8 79.3 28.8s79.4-13.1 79.4-28.9zm-34.6-.8c-16.2 10.4-66 14.4-87.4 1-16.8-10.5-11-27.2-59.1-63.8-6.3-4.8 1.2-9.9 5.9-6.6 4.7 3.3.4 4.1 9.9 13.6 19.2 19.2 19 1.9 22 8.5C97 96.5 111 110.3 111 110.3c14.1 9.2 25.3 11.2 46.1-2.9 13.2-8.9 7.8 14.2 40.1-2.5 11.8-6.1 11.3-2 23.3-18.7 5-6.9 14.5 5.3 3.7 7-4.3.7-11.6 5.4-14.7 12.8-4.5 11.1-2.6 19.3-10.2 24.1zm-89.8-28.2c-4-1.8-8.2-8.6-9.8-11.3 4.5-4.4 2.7-11.7.1-15.7-2.5-4-5.6-2.9-8.9-6.6-3.4-3.7 1.3-13.3 5.6-5.9 16.1 27.7 26.7 16.2 39.8 14.5 12.6-1.6 23.8 5.3 27.2-14.2.6-3.2 3.7-3.9 4 1.3.3 5.3 2.3 18.1 9.2 19.7 6.9 1.7 12.5-1.6 14.1-3.4 1.6-1.8 2.5-1.6 3.2 3 .7 4.5 2.5 10.8 12.2 3.8 19.9-14.2 14.2-19.7 22-23.4 4.4-2.1 11.4 4.7 1.3 9.8-14.4 7.3-15.9 16.3-25 22-15.3 9.6-10.6.4-35.2-3.1-9.5-1.3-12.5 9.2-19.9 6.2-16.9-7-28.8-5.6-39.9 3.3zm53.3-51.3c.6 4.2 1.3 4.1 2.8 4.4 1.5.4 3.4-2 3.4-4.2.1-2.3-1-3.7-3.2-3.6-2.3.1-3.1 1.2-3 3.4zm74 7.5c1.8 1.7 6.6.6 7.7-.7 2.9-3.2 3-5.1 1.5-7.3-1.5-2.1-4.6-1.8-7.7.5-3.1 2.3-2.5 6.6-1.5 7.5zm-1.3 21.2c-1.5 2-1.6 3.5-.5 4.6 1.2 1.2 3.6 2.2 5.3.9 1.7-1.4 1.7-3.4.3-5.1-1.5-1.8-3.5-1.8-5.1-.4zm-151.8-25c2.3.7 3.4 2.9 5.3.4 1-1.2 1.1-2.9-.2-4.7-.8-1.1-4.6-1.9-6.2-.3-1.6 1.6-.1 4.2 1.1 4.6zm-46.9-1.4c4.2 2.6 6.9 6.5 10.1 3 1.1-1.2 2.4-3.3.1-7.5-1.7-3.1-7.2-4.3-9.1-3.1-2 1.1-4.4 5.6-1.1 7.6zm38.7 19.9c1.3 1.4 3.6 1.3 5 .5 1.3-.8 1.1-2.9-.2-4.7-.8-1.1-3.2-1.7-4.8 0s-.9 3.2 0 4.2z" fill="#41bf47"/></svg>