<?xml version="1.0" standalone="no"?>
<!DOCTYPE svg PUBLIC "-//W3C//DTD SVG 20010904//EN"
 "http://www.w3.org/TR/2001/REC-SVG-20010904/DTD/svg10.dtd">
<svg version="1.0" xmlns="http://www.w3.org/2000/svg"
 width="900.000000pt" height="900.000000pt" viewBox="0 0 900.000000 900.000000"
 preserveAspectRatio="xMidYMid meet">
<metadata>
Created by potrace 1.10, written by Peter Selinger 2001-2011
</metadata>
<g transform="translate(0.000000,900.000000) scale(0.100000,-0.100000)"
fill="#ff0000" stroke="none">
<path d="M4060 8815 c-30 -8 -80 -14 -110 -15 -30 0 -80 -7 -110 -15 -30 -8
-68 -15 -84 -15 -72 0 -566 -130 -673 -176 -17 -8 -40 -14 -51 -14 -12 0 -23
-4 -27 -9 -3 -5 -20 -13 -37 -17 -18 -3 -39 -10 -48 -14 -8 -4 -33 -15 -55
-24 -22 -10 -53 -24 -68 -32 -16 -8 -37 -14 -47 -14 -9 0 -23 -7 -30 -15 -7
-8 -20 -15 -30 -15 -10 0 -23 -7 -30 -15 -7 -8 -21 -15 -31 -15 -9 0 -24 -7
-33 -15 -8 -8 -21 -15 -30 -15 -8 0 -17 -4 -21 -9 -3 -6 -29 -21 -58 -36 -28
-14 -59 -29 -67 -35 -8 -5 -55 -32 -105 -61 -49 -29 -91 -56 -93 -61 -2 -4 -8
-8 -14 -8 -13 0 -203 -126 -238 -157 -14 -13 -28 -23 -32 -23 -11 0 -102 -70
-106 -81 -2 -5 -10 -9 -18 -9 -8 0 -14 -4 -14 -8 0 -5 -20 -23 -44 -40 -73
-53 -113 -90 -311 -287 -220 -221 -275 -280 -275 -293 0 -6 -3 -12 -8 -14 -4
-1 -25 -25 -47 -53 -22 -27 -46 -54 -52 -58 -7 -4 -13 -12 -13 -18 0 -5 -5
-15 -10 -22 -27 -31 -110 -147 -110 -152 0 -3 -8 -15 -18 -26 -11 -10 -25 -32
-33 -47 -7 -15 -25 -43 -39 -62 -30 -42 -46 -68 -60 -95 -6 -11 -19 -33 -30
-50 -11 -16 -24 -40 -29 -52 -5 -11 -15 -24 -20 -28 -6 -3 -11 -15 -11 -26 0
-10 -4 -19 -10 -19 -5 0 -12 -11 -16 -25 -3 -13 -12 -29 -20 -36 -8 -6 -14
-19 -14 -29 0 -10 -7 -23 -15 -30 -8 -7 -15 -19 -15 -27 0 -8 -7 -21 -15 -29
-8 -9 -15 -24 -15 -33 0 -10 -7 -24 -15 -31 -8 -7 -15 -23 -15 -36 0 -13 -4
-24 -10 -24 -5 0 -13 -12 -16 -27 -4 -16 -13 -37 -20 -48 -8 -11 -14 -29 -14
-41 0 -12 -5 -24 -11 -26 -6 -2 -13 -15 -14 -28 -2 -14 -10 -38 -19 -55 -9
-16 -16 -36 -16 -43 0 -7 -4 -20 -9 -30 -30 -57 -123 -384 -156 -547 -9 -44
-23 -106 -31 -137 -8 -32 -14 -75 -14 -95 0 -21 -5 -54 -11 -73 -6 -19 -15
-84 -19 -145 -5 -60 -14 -141 -19 -180 -13 -86 -13 -558 0 -640 5 -33 13 -109
18 -170 5 -60 14 -123 20 -138 6 -16 11 -48 11 -73 0 -25 6 -73 14 -107 8 -34
22 -98 31 -142 31 -144 105 -410 132 -472 7 -17 13 -38 13 -46 0 -8 7 -28 15
-43 8 -16 15 -37 15 -46 0 -10 5 -18 10 -18 6 0 10 -13 10 -29 0 -16 7 -34 15
-41 8 -7 17 -27 21 -46 3 -19 10 -34 15 -34 5 0 9 -11 9 -24 0 -13 7 -29 15
-36 8 -7 15 -21 15 -31 0 -9 7 -24 15 -33 8 -8 15 -23 15 -34 0 -11 7 -25 15
-32 8 -7 15 -20 15 -30 0 -10 7 -23 15 -30 8 -7 15 -21 15 -32 0 -10 7 -21 15
-24 8 -4 15 -14 15 -24 0 -11 5 -22 11 -25 5 -4 15 -17 20 -28 5 -12 18 -35
29 -52 11 -16 24 -39 29 -50 5 -11 20 -36 33 -55 13 -19 27 -42 31 -50 16 -32
125 -199 137 -210 3 -3 22 -31 44 -62 21 -32 42 -58 47 -58 5 0 9 -6 9 -12 0
-7 15 -30 33 -50 17 -20 39 -46 47 -58 45 -65 548 -580 567 -580 6 0 13 -7 17
-15 3 -8 12 -15 20 -15 8 0 16 -4 18 -9 7 -19 424 -321 444 -321 2 0 23 -13
46 -30 22 -16 47 -30 55 -30 7 0 13 -4 13 -8 0 -4 25 -20 55 -36 30 -15 57
-32 60 -37 4 -5 15 -9 26 -9 10 0 19 -4 19 -8 0 -5 25 -19 55 -33 30 -13 55
-27 55 -31 0 -5 5 -8 11 -8 11 0 139 -58 192 -86 15 -8 31 -13 36 -10 5 3 14
-1 21 -9 7 -8 17 -15 24 -15 10 0 76 -24 151 -55 94 -39 471 -148 570 -165 28
-4 63 -13 78 -19 16 -6 50 -11 76 -11 26 0 52 -5 58 -11 6 -6 48 -13 94 -16
46 -3 93 -10 103 -16 25 -13 347 -31 541 -30 219 1 507 17 532 31 12 7 50 12
85 12 35 1 81 7 103 15 22 8 59 15 83 15 23 0 59 7 79 15 19 8 47 15 61 15 14
0 48 6 76 14 28 8 110 31 181 52 164 46 302 91 337 110 14 8 34 14 45 14 10 0
27 7 37 15 11 8 29 15 40 15 12 0 30 7 40 15 11 8 28 15 38 15 10 0 18 5 18
10 0 6 5 10 11 10 17 0 288 126 299 139 3 3 25 16 50 29 25 13 59 32 75 42 17
11 39 24 50 30 11 6 34 19 50 30 17 11 40 25 53 31 12 7 22 16 22 21 0 4 4 8
10 8 9 0 61 34 190 125 112 78 165 118 175 130 6 6 30 27 55 46 74 57 95 76
294 276 238 238 276 279 276 291 0 6 3 12 8 14 6 2 31 33 95 113 4 5 37 51 72
100 35 50 78 109 94 132 17 23 31 47 31 53 0 5 4 10 10 10 5 0 12 11 16 25 3
14 10 25 15 25 5 0 14 10 19 23 6 12 19 36 30 52 11 17 24 40 29 52 5 11 15
24 20 28 6 3 11 14 11 25 0 10 7 20 15 24 8 3 15 14 15 25 0 10 7 21 15 25 8
3 15 14 15 24 0 11 7 25 15 32 8 7 15 20 15 30 0 10 7 23 15 30 8 7 15 17 15
23 0 6 14 40 31 76 32 69 35 75 69 156 12 28 25 59 30 70 29 70 115 329 156
470 9 33 23 80 30 104 8 25 14 57 14 72 0 14 7 43 15 62 8 20 15 56 15 81 0
24 7 57 15 72 8 17 15 55 15 90 0 33 5 65 11 71 6 6 15 69 20 140 5 70 13 153
18 183 13 72 12 530 0 600 -6 30 -13 109 -18 175 -4 66 -13 130 -19 142 -7 12
-12 47 -12 78 0 30 -7 72 -15 92 -8 19 -15 53 -15 75 0 21 -7 55 -15 75 -8 19
-15 47 -15 60 0 14 -7 46 -14 72 -8 25 -22 71 -30 101 -64 226 -173 533 -221
622 -8 14 -15 33 -15 42 0 9 -4 16 -10 16 -5 0 -10 9 -10 19 0 11 -6 26 -13
33 -8 7 -17 26 -21 41 -3 15 -11 27 -16 27 -6 0 -10 9 -10 19 0 11 -7 26 -15
35 -8 8 -15 21 -15 28 0 8 -5 19 -11 25 -14 14 -35 50 -50 86 -6 15 -15 27
-20 27 -5 0 -9 9 -9 20 0 11 -6 23 -14 26 -8 3 -17 13 -20 22 -3 9 -15 31 -26
47 -11 17 -25 40 -31 53 -7 12 -16 22 -21 22 -4 0 -8 6 -8 13 0 6 -29 53 -65
102 -35 50 -70 98 -77 108 -13 18 -36 49 -58 74 -5 7 -10 17 -10 22 0 6 -6 14
-12 18 -7 4 -31 31 -53 58 -22 28 -43 52 -47 53 -5 2 -8 8 -8 14 0 5 -19 30
-42 55 -91 95 -365 366 -407 401 -23 20 -66 57 -95 80 -28 24 -63 55 -78 68
-14 13 -29 24 -32 24 -3 0 -42 26 -85 58 -111 80 -193 135 -281 190 -42 26
-84 53 -95 60 -11 6 -29 17 -40 22 -11 6 -33 19 -50 30 -16 10 -66 38 -110 60
-44 23 -87 45 -95 49 -61 33 -80 41 -94 41 -9 0 -16 4 -16 10 0 5 -12 13 -27
16 -16 4 -32 10 -38 14 -5 4 -23 10 -40 14 -16 4 -33 12 -36 17 -3 6 -18 11
-33 13 -15 1 -32 8 -38 14 -7 7 -18 12 -26 12 -8 0 -28 6 -45 14 -18 8 -41 16
-52 19 -11 3 -51 17 -90 30 -233 82 -609 168 -815 188 -47 4 -105 12 -130 18
-72 16 -852 13 -920 -4z m449 -2056 c75 -24 118 -44 167 -80 83 -61 129 -126
160 -228 19 -63 18 -271 -1 -334 -42 -138 -147 -248 -290 -302 -43 -16 -77
-19 -240 -19 l-190 0 -75 36 c-52 24 -92 52 -128 90 -52 53 -62 67 -96 133
-65 124 -60 349 11 485 29 56 155 180 182 180 9 0 22 5 27 10 6 6 33 17 60 24
63 17 363 21 413 5z m-1437 -394 c127 -20 235 -76 310 -160 59 -66 69 -80 95
-134 l28 -56 3 -980 c1 -675 -1 -1002 -9 -1050 -25 -163 -53 -282 -70 -299 -5
-6 -9 -19 -9 -29 0 -10 -6 -31 -14 -45 -7 -15 -30 -61 -50 -102 -46 -93 -48
-98 -118 -190 -120 -162 -318 -310 -498 -375 -201 -71 -290 -88 -530 -101
-378 -21 -794 102 -1003 295 -209 194 -266 404 -167 617 18 38 36 71 41 72 5
2 9 8 9 14 0 15 102 139 163 200 98 95 114 97 173 16 69 -94 207 -190 334
-232 25 -8 82 -20 128 -27 72 -11 96 -11 170 3 131 25 160 38 222 98 77 75 98
125 110 269 5 64 11 505 15 981 6 973 0 909 83 1015 77 99 209 172 362 200 89
17 122 17 222 0z m3653 -753 c39 -5 86 -14 105 -19 19 -6 62 -19 95 -28 356
-101 688 -377 844 -700 19 -38 40 -82 47 -97 8 -14 14 -35 14 -45 0 -10 4 -23
10 -29 5 -5 14 -30 19 -54 6 -25 15 -65 21 -90 28 -111 32 -142 37 -260 3 -78
1 -152 -7 -195 -6 -38 -15 -93 -20 -122 -4 -28 -13 -66 -19 -85 -52 -161 -72
-213 -113 -293 -90 -175 -271 -371 -467 -506 -68 -47 -245 -139 -268 -139 -7
0 -27 -6 -45 -14 -39 -17 -123 -39 -231 -60 -106 -22 -398 -22 -504 0 -185 37
-293 73 -423 143 -245 130 -487 376 -601 611 -65 134 -79 168 -79 191 0 11 -5
30 -12 42 -6 12 -15 45 -20 72 -4 28 -12 70 -17 95 -17 75 -13 374 5 460 19
94 42 175 60 218 8 18 14 37 14 42 0 16 67 153 94 193 14 21 26 41 26 44 0 3
34 48 76 99 194 240 433 404 694 477 30 9 79 23 109 31 29 9 74 17 100 17 25
1 60 5 76 9 36 10 281 5 380 -8z m-2225 -55 c158 -36 287 -157 336 -316 11
-38 14 -209 14 -996 0 -1015 1 -996 -50 -1095 -25 -49 -120 -153 -159 -175
-108 -58 -176 -69 -381 -62 -177 6 -212 16 -302 84 -87 66 -151 165 -177 276
-8 33 -11 321 -11 967 0 996 -1 973 55 1085 28 57 81 118 140 161 86 64 159
82 340 82 77 1 165 -5 195 -11z"/>
<path d="M6395 4785 c-71 -16 -131 -37 -147 -53 -7 -7 -18 -12 -25 -12 -18 0
-150 -130 -163 -161 -5 -13 -14 -31 -19 -39 -62 -101 -83 -296 -47 -430 54
-201 170 -320 371 -382 152 -46 352 0 471 110 100 92 154 200 176 350 10 70
10 98 -4 176 -22 130 -64 213 -153 301 -81 81 -158 123 -260 141 -86 16 -123
16 -200 -1z"/>
</g>
</svg>
