<svg xmlns="http://www.w3.org/2000/svg" width="1200" height="1200" version="1.0" viewBox="0 0 900 900"><g fill="red"><path d="M406 18.5c-3 .8-8 1.4-11 1.5-3 0-8 .7-11 1.5s-6.8 1.5-8.4 1.5c-7.2 0-56.6 13-67.3 17.6-1.7.8-4 1.4-5.1 1.4-1.2 0-2.3.4-2.7.9-.3.5-2 1.3-3.7 1.7-1.8.3-3.9 1-4.8 1.4-.8.4-3.3 1.5-5.5 2.4-2.2 1-5.3 2.4-6.8 3.2-1.6.8-3.7 1.4-4.7 1.4-.9 0-2.3.7-3 1.5-.7.8-2 1.5-3 1.5s-2.3.7-3 1.5c-.7.8-2.1 1.5-3.1 1.5-.9 0-2.4.7-3.3 1.5-.8.8-2.1 1.5-3 1.5-.8 0-1.7.4-2.1.9-.3.6-2.9 2.1-5.8 3.6-2.8 1.4-5.9 2.9-6.7 3.5-.8.5-5.5 3.2-10.5 6.1-4.9 2.9-9.1 5.6-9.3 6.1-.2.4-.8.8-1.4.8-1.3 0-20.3 12.6-23.8 15.7-1.4 1.3-2.8 2.3-3.2 2.3-1.1 0-10.2 7-10.6 8.1-.2.5-1 .9-1.8.9s-1.4.4-1.4.8c0 .5-2 2.3-4.4 4-7.3 5.3-11.3 9-31.1 28.7-22 22.1-27.5 28-27.5 29.3 0 .6-.3 1.2-.8 1.4-.4.1-2.5 2.5-4.7 5.3-2.2 2.7-4.6 5.4-5.2 5.8-.7.4-1.3 1.2-1.3 1.8 0 .5-.5 1.5-1 2.2-2.7 3.1-11 14.7-11 15.2 0 .3-.8 1.5-1.8 2.6-1.1 1-2.5 3.2-3.3 4.7-.7 1.5-2.5 4.3-3.9 6.2-3 4.2-4.6 6.8-6 9.5-.6 1.1-1.9 3.3-3 5-1.1 1.6-2.4 4-2.9 5.2-.5 1.1-1.5 2.4-2 2.8-.6.3-1.1 1.5-1.1 2.6 0 1-.4 1.9-1 1.9-.5 0-1.2 1.1-1.6 2.5-.3 1.3-1.2 2.9-2 3.6-.8.6-1.4 1.9-1.4 2.9s-.7 2.3-1.5 3c-.8.7-1.5 1.9-1.5 2.7 0 .8-.7 2.1-1.5 2.9-.8.9-1.5 2.4-1.5 3.3 0 1-.7 2.4-1.5 3.1-.8.7-1.5 2.3-1.5 3.6 0 1.3-.4 2.4-1 2.4-.5 0-1.3 1.2-1.6 2.7-.4 1.6-1.3 3.7-2 4.8-.8 1.1-1.4 2.9-1.4 4.1 0 1.2-.5 2.4-1.1 2.6-.6.2-1.3 1.5-1.4 2.8-.2 1.4-1 3.8-1.9 5.5-.9 1.6-1.6 3.6-1.6 4.3 0 .7-.4 2-.9 3-3 5.7-12.3 38.4-15.6 54.7-.9 4.4-2.3 10.6-3.1 13.7-.8 3.2-1.4 7.5-1.4 9.5 0 2.1-.5 5.4-1.1 7.3-.6 1.9-1.5 8.4-1.9 14.5-.5 6-1.4 14.1-1.9 18-1.3 8.6-1.3 55.8 0 64 .5 3.3 1.3 10.9 1.8 17 .5 6 1.4 12.3 2 13.8.6 1.6 1.1 4.8 1.1 7.3s.6 7.3 1.4 10.7c.8 3.4 2.2 9.8 3.1 14.2 3.1 14.4 10.5 41 13.2 47.2.7 1.7 1.3 3.8 1.3 4.6 0 .8.7 2.8 1.5 4.3.8 1.6 1.5 3.7 1.5 4.6 0 1 .5 1.8 1 1.8.6 0 1 1.3 1 2.9 0 1.6.7 3.4 1.5 4.1.8.7 1.7 2.7 2.1 4.6.3 1.9 1 3.4 1.5 3.4s.9 1.1.9 2.4c0 1.3.7 2.9 1.5 3.6.8.7 1.5 2.1 1.5 3.1 0 .9.7 2.4 1.5 3.3.8.8 1.5 2.3 1.5 3.4s.7 2.5 1.5 3.2c.8.7 1.5 2 1.5 3s.7 2.3 1.5 3c.8.7 1.5 2.1 1.5 3.2 0 1 .7 2.1 1.5 2.4.8.4 1.5 1.4 1.5 2.4 0 1.1.5 2.2 1.1 2.5.5.4 1.5 1.7 2 2.8.5 1.2 1.8 3.5 2.9 5.2 1.1 1.6 2.4 3.9 2.9 5s2 3.6 3.3 5.5c1.3 1.9 2.7 4.2 3.1 5 1.6 3.2 12.5 19.9 13.7 21 .3.3 2.2 3.1 4.4 6.2 2.1 3.2 4.2 5.8 4.7 5.8s.9.6.9 1.2c0 .7 1.5 3 3.3 5 1.7 2 3.9 4.6 4.7 5.8 4.5 6.5 54.8 58 56.7 58 .6 0 1.3.7 1.7 1.5.3.8 1.2 1.5 2 1.5s1.6.4 1.8.9c.7 1.9 42.4 32.1 44.4 32.1.2 0 2.3 1.3 4.6 3 2.2 1.6 4.7 3 5.5 3 .7 0 1.3.4 1.3.8s2.5 2 5.5 3.6c3 1.5 5.7 3.2 6 3.7.4.5 1.5.9 2.6.9 1 0 1.9.4 1.9.8 0 .5 2.5 1.9 5.5 3.3 3 1.3 5.5 2.7 5.5 3.1 0 .5.5.8 1.1.8 1.1 0 13.9 5.8 19.2 8.6 1.5.8 3.1 1.3 3.6 1 .5-.3 1.4.1 2.1.9.7.8 1.7 1.5 2.4 1.5 1 0 7.6 2.4 15.1 5.5 9.4 3.9 47.1 14.8 57 16.5 2.8.4 6.3 1.3 7.8 1.9 1.6.6 5 1.1 7.6 1.1 2.6 0 5.2.5 5.8 1.1.6.6 4.8 1.3 9.4 1.6 4.6.3 9.3 1 10.3 1.6 2.5 1.3 34.7 3.1 54.1 3 21.9-.1 50.7-1.7 53.2-3.1 1.2-.7 5-1.2 8.5-1.2 3.5-.1 8.1-.7 10.3-1.5 2.2-.8 5.9-1.5 8.3-1.5 2.3 0 5.9-.7 7.9-1.5 1.9-.8 4.7-1.5 6.1-1.5 1.4 0 4.8-.6 7.6-1.4 2.8-.8 11-3.1 18.1-5.2 16.4-4.6 30.2-9.1 33.7-11 1.4-.8 3.4-1.4 4.5-1.4 1 0 2.7-.7 3.7-1.5 1.1-.8 2.9-1.5 4-1.5 1.2 0 3-.7 4-1.5 1.1-.8 2.8-1.5 3.8-1.5s1.8-.5 1.8-1c0-.6.5-1 1.1-1 1.7 0 28.8-12.6 29.9-13.9.3-.3 2.5-1.6 5-2.9 2.5-1.3 5.9-3.2 7.5-4.2 1.7-1.1 3.9-2.4 5-3 1.1-.6 3.4-1.9 5-3 1.7-1.1 4-2.5 5.3-3.1 1.2-.7 2.2-1.6 2.2-2.1 0-.4.4-.8 1-.8.9 0 6.1-3.4 19-12.5 11.2-7.8 16.5-11.8 17.5-13 .6-.6 3-2.7 5.5-4.6 7.4-5.7 9.5-7.6 29.4-27.6 23.8-23.8 27.6-27.9 27.6-29.1 0-.6.3-1.2.8-1.4.6-.2 3.1-3.3 9.5-11.3.4-.5 3.7-5.1 7.2-10 3.5-5 7.8-10.9 9.4-13.2 1.7-2.3 3.1-4.7 3.1-5.3 0-.5.4-1 1-1 .5 0 1.2-1.1 1.6-2.5.3-1.4 1-2.5 1.5-2.5s1.4-1 1.9-2.3c.6-1.2 1.9-3.6 3-5.2 1.1-1.7 2.4-4 2.9-5.2.5-1.1 1.5-2.4 2-2.8.6-.3 1.1-1.4 1.1-2.5 0-1 .7-2 1.5-2.4.8-.3 1.5-1.4 1.5-2.5 0-1 .7-2.1 1.5-2.5.8-.3 1.5-1.4 1.5-2.4 0-1.1.7-2.5 1.5-3.2.8-.7 1.5-2 1.5-3s.7-2.3 1.5-3c.8-.7 1.5-1.7 1.5-2.3 0-.6 1.4-4 3.1-7.6 3.2-6.9 3.5-7.5 6.9-15.6 1.2-2.8 2.5-5.9 3-7 2.9-7 11.5-32.9 15.6-47 .9-3.3 2.3-8 3-10.4.8-2.5 1.4-5.7 1.4-7.2 0-1.4.7-4.3 1.5-6.2.8-2 1.5-5.6 1.5-8.1 0-2.4.7-5.7 1.5-7.2.8-1.7 1.5-5.5 1.5-9 0-3.3.5-6.5 1.1-7.1.6-.6 1.5-6.9 2-14 .5-7 1.3-15.3 1.8-18.3 1.3-7.2 1.2-53 0-60-.6-3-1.3-10.9-1.8-17.5-.4-6.6-1.3-13-1.9-14.2-.7-1.2-1.2-4.7-1.2-7.8 0-3-.7-7.2-1.5-9.2-.8-1.9-1.5-5.3-1.5-7.5 0-2.1-.7-5.5-1.5-7.5-.8-1.9-1.5-4.7-1.5-6 0-1.4-.7-4.6-1.4-7.2-.8-2.5-2.2-7.1-3-10.1-6.4-22.6-17.3-53.3-22.1-62.2-.8-1.4-1.5-3.3-1.5-4.2 0-.9-.4-1.6-1-1.6-.5 0-1-.9-1-1.9 0-1.1-.6-2.6-1.3-3.3-.8-.7-1.7-2.6-2.1-4.1-.3-1.5-1.1-2.7-1.6-2.7-.6 0-1-.9-1-1.9 0-1.1-.7-2.6-1.5-3.5-.8-.8-1.5-2.1-1.5-2.8 0-.8-.5-1.9-1.1-2.5-1.4-1.4-3.5-5-5-8.6-.6-1.5-1.5-2.7-2-2.7s-.9-.9-.9-2-.6-2.3-1.4-2.6c-.8-.3-1.7-1.3-2-2.2-.3-.9-1.5-3.1-2.6-4.7-1.1-1.7-2.5-4-3.1-5.3-.7-1.2-1.6-2.2-2.1-2.2-.4 0-.8-.6-.8-1.3 0-.6-2.9-5.3-6.5-10.2-3.5-5-7-9.8-7.7-10.8-1.3-1.8-3.6-4.9-5.8-7.4-.5-.7-1-1.7-1-2.2 0-.6-.6-1.4-1.2-1.8-.7-.4-3.1-3.1-5.3-5.8-2.2-2.8-4.3-5.2-4.7-5.3-.5-.2-.8-.8-.8-1.4 0-.5-1.9-3-4.2-5.5-9.1-9.5-36.5-36.6-40.7-40.1-2.3-2-6.6-5.7-9.5-8-2.8-2.4-6.3-5.5-7.8-6.8-1.4-1.3-2.9-2.4-3.2-2.4-.3 0-4.2-2.6-8.5-5.8-11.1-8-19.3-13.5-28.1-19-4.2-2.6-8.4-5.3-9.5-6-1.1-.6-2.9-1.7-4-2.2-1.1-.6-3.3-1.9-5-3-1.6-1-6.6-3.8-11-6-4.4-2.3-8.7-4.5-9.5-4.9-6.1-3.3-8-4.1-9.4-4.1-.9 0-1.6-.4-1.6-1 0-.5-1.2-1.3-2.7-1.6-1.6-.4-3.2-1-3.8-1.4-.5-.4-2.3-1-4-1.4-1.6-.4-3.3-1.2-3.6-1.7-.3-.6-1.8-1.1-3.3-1.3-1.5-.1-3.2-.8-3.8-1.4-.7-.7-1.8-1.2-2.6-1.2s-2.8-.6-4.5-1.4c-1.8-.8-4.1-1.6-5.2-1.9-1.1-.3-5.1-1.7-9-3-23.3-8.2-60.9-16.8-81.5-18.8-4.7-.4-10.5-1.2-13-1.8-7.2-1.6-85.2-1.3-92 .4zm44.9 205.6c7.5 2.4 11.8 4.4 16.7 8 8.3 6.1 12.9 12.6 16 22.8 1.9 6.3 1.8 27.1-.1 33.4-4.2 13.8-14.7 24.8-29 30.2-4.3 1.6-7.7 1.9-24 1.9h-19l-7.5-3.6c-5.2-2.4-9.2-5.2-12.8-9-5.2-5.3-6.2-6.7-9.6-13.3-6.5-12.4-6-34.9 1.1-48.5 2.9-5.6 15.5-18 18.2-18 .9 0 2.2-.5 2.7-1 .6-.6 3.3-1.7 6-2.4 6.3-1.7 36.3-2.1 41.3-.5zm-143.7 39.4c12.7 2 23.5 7.6 31 16 5.9 6.6 6.9 8 9.5 13.4l2.8 5.6.3 98c.1 67.5-.1 100.2-.9 105-2.5 16.3-5.3 28.2-7 29.9-.5.6-.9 1.9-.9 2.9s-.6 3.1-1.4 4.5c-.7 1.5-3 6.1-5 10.2-4.6 9.3-4.8 9.8-11.8 19-12 16.2-31.8 31-49.8 37.5-20.1 7.1-29 8.8-53 10.1-37.8 2.1-79.4-10.2-100.3-29.5-20.9-19.4-26.6-40.4-16.7-61.7 1.8-3.8 3.6-7.1 4.1-7.2.5-.2.9-.8.9-1.4 0-1.5 10.2-13.9 16.3-20 9.8-9.5 11.4-9.7 17.3-1.6 6.9 9.4 20.7 19 33.4 23.2 2.5.8 8.2 2 12.8 2.7 7.2 1.1 9.6 1.1 17-.3 13.1-2.5 16-3.8 22.2-9.8 7.7-7.5 9.8-12.5 11-26.9.5-6.4 1.1-50.5 1.5-98.1.6-97.3 0-90.9 8.3-101.5 7.7-9.9 20.9-17.2 36.2-20 8.9-1.7 12.2-1.7 22.2 0zm365.3 75.3c3.9.5 8.6 1.4 10.5 1.9 1.9.6 6.2 1.9 9.5 2.8 35.6 10.1 68.8 37.7 84.4 70 1.9 3.8 4 8.2 4.7 9.7.8 1.4 1.4 3.5 1.4 4.5s.4 2.3 1 2.9c.5.5 1.4 3 1.9 5.4.6 2.5 1.5 6.5 2.1 9 2.8 11.1 3.2 14.2 3.7 26 .3 7.8.1 15.2-.7 19.5-.6 3.8-1.5 9.3-2 12.2-.4 2.8-1.3 6.6-1.9 8.5-5.2 16.1-7.2 21.3-11.3 29.3-9 17.5-27.1 37.1-46.7 50.6-6.8 4.7-24.5 13.9-26.8 13.9-.7 0-2.7.6-4.5 1.4-3.9 1.7-12.3 3.9-23.1 6-10.6 2.2-39.8 2.2-50.4 0-18.5-3.7-29.3-7.3-42.3-14.3-24.5-13-48.7-37.6-60.1-61.1-6.5-13.4-7.9-16.8-7.9-19.1 0-1.1-.5-3-1.2-4.2-.6-1.2-1.5-4.5-2-7.2-.4-2.8-1.2-7-1.7-9.5-1.7-7.5-1.3-37.4.5-46 1.9-9.4 4.2-17.5 6-21.8.8-1.8 1.4-3.7 1.4-4.2 0-1.6 6.7-15.3 9.4-19.3 1.4-2.1 2.6-4.1 2.6-4.4 0-.3 3.4-4.8 7.6-9.9 19.4-24 43.3-40.4 69.4-47.7 3-.9 7.9-2.3 10.9-3.1 2.9-.9 7.4-1.7 10-1.7 2.5-.1 6-.5 7.6-.9 3.6-1 28.1-.5 38 .8zM450 344.3c15.8 3.6 28.7 15.7 33.6 31.6 1.1 3.8 1.4 20.9 1.4 99.6 0 101.5.1 99.6-5 109.5-2.5 4.9-12 15.3-15.9 17.5-10.8 5.8-17.6 6.9-38.1 6.2-17.7-.6-21.2-1.6-30.2-8.4-8.7-6.6-15.1-16.5-17.7-27.6-.8-3.3-1.1-32.1-1.1-96.7 0-99.6-.1-97.3 5.5-108.5 2.8-5.7 8.1-11.8 14-16.1 8.6-6.4 15.9-8.2 34-8.2 7.7-.1 16.5.5 19.5 1.1z"/><path d="M639.5 421.5c-7.1 1.6-13.1 3.7-14.7 5.3-.7.7-1.8 1.2-2.5 1.2-1.8 0-15 13-16.3 16.1-.5 1.3-1.4 3.1-1.9 3.9-6.2 10.1-8.3 29.6-4.7 43 5.4 20.1 17 32 37.1 38.2 15.2 4.6 35.2 0 47.1-11 10-9.2 15.4-20 17.6-35 1-7 1-9.8-.4-17.6-2.2-13-6.4-21.3-15.3-30.1-8.1-8.1-15.8-12.3-26-14.1-8.6-1.6-12.3-1.6-20 .1z"/></g></svg>