<svg xmlns="http://www.w3.org/2000/svg" width="1579.294" height="999.854"><defs><linearGradient id="a"><stop offset="0" style="stop-color:#212a3a;stop-opacity:1"/><stop offset="1" style="stop-color:#404e67;stop-opacity:0"/></linearGradient></defs><g style="opacity:1;stroke:none"><path d="M451.003 229.879c-16.606 9.679-36.572 20.504-40.536 30.292-13.304 27.949-18.29 78.106-14.24 75.226 39.48-28.073 85.188-35.856 101.82-50.892 49.285-44.555 68.42-136.66 58.063-123.007-33.527 44.198-87.975 58.396-105.107 68.38zm-258.35 618.489s-46.618-32.245-45.758-42.59c7.139-85.961-8.118-90.978-15.807-90.066-9.289 1.102-57.562 31.576-66.979 117.623-6.833 62.439 17.839 159.993 21.597 165.271 19.449-52.267 11.86-94.336 106.948-150.238zm509.299-380.834c-2.32-64.442-41.12-108.751-67.47-98.374-11.18 4.402-18.687 34.409-14.761 53.014 3.481 16.502 27.204 80.361 28.91 85.76 4.033 12.765 31.262 90.998 26.422 128.588-4.243 32.948-99.749 44.348-99.749 44.348s-1.605 26.818-4.897 44.939c-4.047 22.276-12.071 39.758-12.071 39.758s20.793 19.37 21.633 19.349c.84-.021 130.876-70.312 121.983-317.382zm-99.694 199.624c6.722-1.881 46.413-12.376 44.286-13.771-14.73-9.661-31.49-21.823-59.563-43.657-155.853-121.216-297.418-19.12-294.628-20.049 25.88-8.607 53.209-13.471 91.177-10.935 30.582 2.043 78.656 17.545 120.768 67.744 15.664 18.672 33.438 31.341 97.96 20.668zm-69.521-263.112c4.715-4.08 21.105-34.975 18.153-35.693-41.358-10.058-45.387-28.356-49.435-48.266-3.791-18.648-3.206-21.307-11.041-18.72-63.304 20.91-80.814 32.4-90.5 40.44-15.174 12.593-4.53 46.43 1.402 59.879 8.27 18.744 38.673 52.662 52.817 55.393 20.632 3.984 69.39-38.283 78.604-53.033zm46.008-114.183c-3.43-14.032-14.453-32.103-17.39-32.103-2.766 0-32.053 22.662-39.617 30.558-17.168 17.92-8.801 50.396 10.244 61.536 32.234 18.854 55.906-22.597 46.763-59.991zm-24.304-53.668c14.103-14.087 32.85-37.212 37.836-72.354 1.953-13.774 3.088-25.89-5.478-53.121-1.986-6.312-8.02-24.463-8.246-22.072-4.456 47.22-10.984 99.65-41.803 155.374-9.673 17.49-4.471 14.311 17.69-7.827zM223.685 517.43c-16.801 70.473 27.721 163.027 63.788 168.302 34.864 5.1 134.815-25.078 187.235-39.655 13.734-3.819 21.122-1.827-9.261-27.28-47.635-32.385-86.081-36.554-124.435-32.201-42.306 4.802-74.007 17.323-71.041 14.84 19.397-16.242 53.945-45.285 120.693-58.437 29.011-5.716 73.783-6.218 127.836 14.894 67.047 26.186 101.969 65.022 130.316 78.183 10.094 4.687 13.7 2.508 17.688-9.206 6.682-19.624-33.937-142.154-48.653-177.885-22.457-54.526 3.745-80.588-1.982-79.326-27.778 6.123-52.274 23.977-72.808 42.362-50.194 44.94-80.787 54.514-85.327 54.128-14.335-1.22-41.156-26.59-50.9-39.473-6.218-8.22-117.502 13.26-150.318 41.77-.75.651-26.071 16.89-32.831 48.984zm-35.656 306.817c36.704-15.4 72.639-48.127 69.531-48.667-19.056-3.314-89.332-51.469-89.284-50.97 2.414 24.852-3.002 47.182-5.473 71.813-1.03 10.272 12.663 26.186 25.226 27.824zm118.437-107.722c-7.022 15.653-14.353 77.205-115.822 116.704-2.94 1.144 85.033 61.298 89.82 61.508 290.517 12.754 288.055-208.478 284.2-214.056-.559-.807-25.407.058-44.653-9.074-1.467-.697-14.523-7.426-22.307-17.562-2.64-3.437-3.05-5.306-12.834-2.462-45.28 13.158-180.464 61.662-178.404 64.942zm-90.504-107.908C164.084 427.349 346.142 418.94 375.008 411.96c22.323-5.398 17.459-7.497 12.752-28.61-6.61-29.644-4.55-55.484 1.115-83.182 5.358-26.193 8.121-39.437 19.437-52.57 9.12-10.587 60.513-34.795 73.253-40.906 54.294-26.04 75.037-54.663 81.088-77.177 4.266-15.871 10.509-54.99 7.703-82.952-.69-6.882 3.75 3.902 25.84 72.537 11.287 35.07 5.729 77.178-29.87 115.196-4.835 5.164-2.49 6.186 4.011 16.93 13.508 22.32 20.976 50.231 18.872 70.537-1.724 16.637-8.835 32.367 1.336 31.145 1.47-.177 46.397-6.979 77.151 12.569 20.827 13.237 50.496 38.612 42.795 144.611C693.627 742.2 580.219 792.714 579.424 792.742c-1.92.065-23.137-21.964-24.393-19.37-65.027 134.336-199.207 129.51-274.04 130.922-14.963.282-77.177-52.103-82.42-48.52-66.233 45.263-84.62 56.568-110.158 172.254-.978-1.834-35.415-62.92-33.985-185.77 1.17-100.656 56.16-148.157 80.607-145.418 29.677 3.326 44.571 18.81 86.368 46.27 7.46 4.9 33.82 20.84 39.818 20.695 14.944-.353 25.138-27.808 27.577-45.583 2.46-17.93 4.839-13.596-9.154-18.412-17.642-6.07-48.072-39.108-63.682-91.193z" style="color:#000;font-style:normal;font-variant:normal;font-weight:400;font-stretch:normal;font-size:medium;line-height:normal;font-family:sans-serif;font-variant-ligatures:normal;font-variant-position:normal;font-variant-caps:normal;font-variant-numeric:normal;font-variant-alternates:normal;font-variant-east-asian:normal;font-feature-settings:normal;font-variation-settings:normal;text-indent:0;text-align:start;text-decoration:none;text-decoration-line:none;text-decoration-style:solid;text-decoration-color:#000;letter-spacing:normal;word-spacing:normal;text-transform:none;writing-mode:lr-tb;direction:ltr;text-orientation:mixed;dominant-baseline:auto;baseline-shift:baseline;text-anchor:start;white-space:normal;shape-padding:0;shape-margin:0;inline-size:0;clip-rule:nonzero;display:inline;overflow:visible;visibility:visible;isolation:auto;mix-blend-mode:normal;color-interpolation:sRGB;color-interpolation-filters:linearRGB;solid-color:#000;solid-opacity:1;vector-effect:none;fill:#8a8c8f;fill-opacity:1;fill-rule:nonzero;stroke:none;stroke-width:8.607;stroke-linecap:butt;stroke-linejoin:miter;stroke-miterlimit:4;stroke-dasharray:none;stroke-dashoffset:0;stroke-opacity:1;color-rendering:auto;image-rendering:auto;shape-rendering:auto;text-rendering:auto;enable-background:accumulate;stop-color:#000;stop-opacity:1" transform="translate(768.724 -40.482)"/><path d="M571.502 40.61a4.337 4.337 0 0 0-2.328.066c-1.712.534-2.476 1.838-2.768 2.517-.582 1.36-.42 1.78-.42 2.297 0 .517.036.986.088 1.502 2.703 26.934-3.497 66.23-7.576 81.406-5.649 21.016-25.223 48.72-78.793 74.415-6.334 3.037-22.434 10.647-38.117 18.84-7.842 4.096-15.582 8.337-22.02 12.275-6.437 3.938-11.462 7.315-14.517 10.861-12.023 13.955-15.034 28.318-20.393 54.516-5.73 28.012-7.866 54.634-1.1 84.982 1.208 5.417 2.42 9.6 3.147 12.672.727 3.072.8 4.919.647 5.52-.155.6-.175.856-2.174 1.841-2 .985-5.698 2.131-11.182 3.457-6.404 1.549-23.687 3.506-44.262 8.166-20.574 4.661-44.837 12.128-66.746 25.3-21.909 13.17-41.509 32.18-52.133 59.6-10.623 27.422-12.186 62.992.97 108.958l.007.025.008.026c7.953 26.539 19.68 48.254 31.771 64.214 12.091 15.96 24.26 26.243 34.633 29.813 3.65 1.256 6.292 1.941 7.756 2.414.156.05.118.047.244.092-.012.36-.004.674-.119 1.394-.327 2.045-.959 5.26-1.59 9.858-1.15 8.383-4.243 19.396-8.658 27.933-2.208 4.269-4.752 7.91-7.328 10.325-2.577 2.414-4.999 3.55-7.43 3.607h-.002c.481-.012-2.576-.632-5.828-2.102-3.252-1.469-7.27-3.56-11.344-5.816-8.149-4.511-16.604-9.723-20.18-12.072-20.783-13.655-34.898-24.363-47.85-32.262-12.954-7.9-24.907-12.951-40.401-14.688-7.657-.858-16.423 2.09-25.58 8.088-9.158 5.999-18.702 15.203-27.452 27.65-17.498 24.897-31.762 62.804-32.357 113.907-.72 61.836 7.59 108.236 16.246 139.467 4.328 15.615 8.742 27.438 12.154 35.506 3.413 8.067 6.111 12.91 6.092 12.875l5.487 10.28 2.511-11.38c12.729-57.66 23.614-88.822 39.14-110.994 15.32-21.874 35.674-35.689 68.03-57.797.368.133.679.226 1.332.545 1.927.94 4.769 2.63 8.102 4.787 6.666 4.314 15.396 10.51 24.455 16.83 9.059 6.32 18.45 12.768 26.648 17.692 4.1 2.461 7.894 4.542 11.297 6.056 3.403 1.514 6.3 2.581 9.453 2.522 37.276-.704 90.026.214 141.887-15.805 50.852-15.708 100.888-48.111 133.955-113.69 1.96 1.55 4.511 3.779 7.172 6.194 2.826 2.565 5.697 5.232 8.043 7.307 1.173 1.037 2.203 1.92 3.12 2.627.457.353.875.66 1.38.964.505.304.7.927 2.941.85h.002c1.318-.045 1.081-.172 1.219-.217.138-.044.217-.075.295-.105.157-.06.291-.117.45-.186.315-.137.704-.317 1.19-.555a69.264 69.264 0 0 0 4.004-2.136c3.37-1.928 8.083-4.911 13.74-9.211 11.316-8.6 26.395-22.47 41.93-43.64 31.07-42.343 63.902-113.864 72.383-230.593 3.882-53.422-1.594-86.949-11.033-109.091-9.44-22.143-23.063-32.675-33.746-39.465-16.369-10.404-35.973-13.607-51.662-14.348a166.335 166.335 0 0 0-19.76.26c-2.517.183-4.574.394-6.055.564-1.48.171-2.647.333-2.496.315-.325.039-.203.024-.336.015-.064-.336-.303-1.693-.008-4.091.651-5.28 2.893-13.569 3.803-22.352 2.253-21.747-5.503-50.132-19.47-73.21-3.339-5.517-5.532-8.774-5.883-9.765-.176-.495-.114-.098-.092-.158.021-.06.38-.723 1.422-1.836 36.53-39.012 42.547-83.038 30.826-119.457-11.05-34.335-17.682-54.19-21.516-64.738-1.916-5.274-2.919-7.947-4.084-9.902-.29-.49-.357-.965-1.658-1.864a4.715 4.715 0 0 0-1.533-.668zm3.762 28.704c1.533 4.492 3.053 8.933 5.132 15.22-.402-.177-.804-.361-1.5-.4-1.81-.098-3.687 1.503-4.142 2.4-.455.895-.452 1.349-.486 1.71-2.252 23.862-5.048 48.886-11.174 74.902-.02-1.1-.028-2.178-.348-3.294-.212-.742-.513-1.627-1.457-2.573-.944-.945-2.845-1.609-4.242-1.392-2.794.432-3.462 1.82-4.365 3.01-16.22 21.382-37.632 35.644-57.252 45.798-3.435 1.778-6.686 3.272-9.957 4.803 53.409-26.116 74.968-55.175 81.336-78.865 3.336-12.412 7.699-37.383 8.455-61.319zm5.607 37.25c.607 1.847 1.448 4.258 1.822 5.448 8.424 26.78 7.26 37.57 5.323 51.224-4.812 33.917-22.831 56.143-36.618 69.914-3.513 3.51-5.844 5.68-8.486 8.204 25.452-47.978 33.443-93.302 37.96-134.79zm15.352 59.477a102.384 102.384 0 0 1-2.233 11.357c.914-3.624 1.625-7.446 2.233-11.357zm-42.948 5.691c-1.335 7.027-3.782 16.563-7.882 27.989-9.495 26.458-26.479 60.118-50.233 81.591-7.135 6.45-22.542 12.392-41.045 19.75-16.854 6.704-36.284 15.05-54.906 27.317.128-4.43.74-10.923 1.885-18.383 2.36-15.394 6.947-34.716 13.26-47.976l.054-.116.047-.117c1.246-3.075 6.63-8.263 13.96-13.244 7.328-4.981 16.406-10.08 24.755-14.945 7.619-4.44 25.948-10.768 46.217-21.258 17.907-9.269 37.603-22.03 53.888-40.608zm40.643 5.94a105.724 105.724 0 0 1-3.111 10.09c1.137-3.252 2.216-6.574 3.111-10.09zm-34.057 59.082c-.477 1.786-.395 3.778.162 5.351 1.239 3.497 3.47 6.12 6.633 11.348 2.305 3.808 4.351 7.837 6.272 11.932-1.615-2.762-3.225-5.338-4.713-7.237-.852-1.086-1.652-2.005-2.557-2.806-.905-.801-1.729-1.885-4.303-1.885-1.642 0-2.015.374-2.603.643-.589.268-1.145.575-1.764.94-1.238.727-2.696 1.686-4.373 2.845-3.354 2.318-7.55 5.427-11.9 8.787-8.7 6.72-17.805 14.203-22.084 18.67-9.724 10.15-12.113 24.29-9.572 37.123 2.54 12.833 9.89 24.752 20.75 31.103 8.85 5.177 17.723 6.416 25.505 4.274 7.783-2.142 14.26-7.465 19.1-14.436 6.377-9.184 10.086-21.335 10.531-34.232.302 4.287.37 8.417-.017 12.146-.814 7.853-2.99 15.746-3.783 22.186-.397 3.22-.68 6.16.765 9.226.723 1.534 2.117 3.036 3.834 3.801 1.718.766 3.53.861 5.315.647.518-.063 1.077-.15 2.455-.309a136.57 136.57 0 0 1 5.695-.531 158.012 158.012 0 0 1 18.727-.246c14.83.7 33.065 3.872 47.45 13.015 10.144 6.448 21.77 15.223 30.446 35.577 8.39 19.681 13.737 50.584 10.633 100.128.258-12.044.255-24.445-.213-37.435-1.19-33.048-11.672-60.997-25.572-79.66-6.95-9.332-14.76-16.373-22.936-20.475-8.176-4.101-16.945-5.197-24.84-2.088-4.193 1.651-7.203 5.136-9.697 9.328-2.493 4.192-4.457 9.26-5.928 14.743-2.941 10.966-3.943 23.534-1.77 33.836 1.918 9.085 8.681 28.847 15.272 47.583a3884.501 3884.501 0 0 0 9.053 25.387c2.519 7.005 4.396 12.256 4.693 13.197 2.094 6.628 9.82 29.108 16.477 54.768 2.225 8.579 4.157 17.434 5.857 26.188-3.14-14.116-7.474-30.415-12.535-47.444-11.2-37.691-25.01-77.218-32.496-95.396-10.912-26.495-9.907-45.552-7.05-57.98 1.427-6.215 3.323-10.726 4.628-13.856.653-1.565 1.196-2.548 1.506-4.285.155-.869.513-2.638-1.207-4.448-.86-.905-2.063-1.334-2.893-1.431a5.22 5.22 0 0 0-1.873.111c-28.976 6.387-53.982 24.762-74.752 43.357-12.6 11.282-23.908 20.264-33.865 27.424 13.533-10.786 25.106-22.129 29.91-29.713 1.902-1.882 3.422-4.21 5.403-7.412 2.229-3.603 4.666-7.942 6.87-12.193 2.206-4.251 4.17-8.38 5.464-11.695.647-1.658 1.136-3.064 1.408-4.496.136-.717.274-1.415.1-2.553a4.83 4.83 0 0 0-.834-2.127c-.572-.821-1.673-1.618-2.737-1.877h-.002c-20.127-4.895-30.428-11.557-36.369-18.953-5.94-7.397-7.845-16.055-9.865-25.989-1.88-9.242-2.362-14.28-4.356-18.357-.996-2.038-3.252-4.15-5.726-4.545-2.475-.395-4.374.242-6.526.953-6.373 2.105-11.975 4.054-17.474 5.98 11.88-4.77 22.546-9.418 29.344-15.564 10.347-9.354 19.263-20.642 26.941-32.543.063.764.241 1.631 1.012 2.598 1.08 1.356 3.064 1.874 4.191 1.793 1.128-.08 1.807-.391 2.443-.697 2.547-1.225 4.794-3.223 8.34-6.446 3.547-3.223 8.058-7.604 13.621-13.162.765-.764 1.589-1.667 2.38-2.486zm-140.033 7.338c-6.065 4.386-11.049 8.852-13.32 14.412-6.946 14.67-11.486 34.3-13.922 50.19-1.223 7.975-1.903 14.957-2.016 19.997-.056 2.52-.013 4.48.338 6.274.176.897.224 1.78 1.381 3.148.579.684 1.727 1.535 3.143 1.682.184.019.323-.052.5-.055-4.665 4.524-6.79 10.579-7.578 17.115-1.22-18.866.845-36.796 4.738-55.826 5.356-26.186 7.872-38.31 18.48-50.623 1.107-1.284 4.35-3.69 8.256-6.314zm140.125 17.693c.012.01.052.06.065.072-.235-.115-.216-.206-.065-.072zm.893 1.002c.22.25.336.339.595.67 1.297 1.655 2.984 4.217 4.68 7.213 3.393 5.99 6.88 13.818 8.443 20.215 4.281 17.508.71 36.192-7.218 47.611-3.965 5.71-8.878 9.55-14.315 11.047-5.436 1.496-11.61.846-18.877-3.404-8.186-4.789-14.54-14.677-16.652-25.346-2.112-10.67-.1-21.728 7.344-29.498 3.285-3.43 12.604-11.225 21.13-17.81 4.264-3.293 8.38-6.342 11.532-8.52a68.198 68.198 0 0 1 3.338-2.178zm-67.188 42.188c.628 1.41 1.706 6.75 3.58 15.97 2.029 9.976 4.163 20.42 11.588 29.664 6.945 8.648 18.54 15.703 37.346 20.815-.102.286-.095.353-.219.67-1.096 2.807-2.971 6.79-5.084 10.863-2.113 4.073-4.473 8.27-6.55 11.629-2.079 3.36-4.318 6.137-4.397 6.205l-.492.424-.344.55c-3.779 6.05-18.343 20.701-33.947 32.378-7.803 5.838-15.94 11.074-23.168 14.521-7.228 3.447-13.565 4.857-17.022 4.19-2.19-.423-6.522-2.689-11.234-6.346-4.712-3.658-9.966-8.604-15.045-14.055-10.159-10.902-19.68-24.037-23.416-32.504-2.812-6.374-6.86-17.985-8.285-29.072-1.425-11.087-.055-20.989 5.693-25.76 9.276-7.698 26.02-18.828 89.102-39.664 1.354-.447 1.675-.435 1.894-.478zm150.826 67.058c2.974.29 6.11 1.254 9.4 2.904 6.583 3.302 13.56 9.418 19.893 17.922 12.668 17.009 22.743 43.436 23.873 74.83 2.388 66.348-5.334 119.624-17.793 162.202.705-19.54-4.527-44.945-10.521-68.053-6.756-26.045-14.662-49.063-16.602-55.201-.555-1.758-2.283-6.513-4.8-13.516a3888.638 3888.638 0 0 1-9.032-25.332c-6.567-18.668-13.406-39.087-14.97-46.504-1.752-8.303-.964-20.041 1.662-29.83 1.312-4.894 3.076-9.316 5.011-12.57 1.936-3.254 4.057-5.17 5.454-5.72 2.64-1.04 5.452-1.422 8.425-1.132zm-34.398 3.678c-1.202 3.048-2.55 6.747-3.693 11.726-3.199 13.919-4.067 35.156 7.478 63.188 7.23 17.553 21.088 57.156 32.205 94.568 5.559 18.706 10.445 36.903 13.502 51.51 1.529 7.304 2.597 13.718 3.072 18.76.476 5.042.18 8.843-.22 10.02-1.893 5.559-3.665 7.894-4.51 8.345-.422.226-.838.353-2.008.178s-2.966-.757-5.285-1.834c-26.639-12.368-62.642-51.76-130.56-78.287-54.826-21.413-100.447-20.977-130.235-15.108-67.65 13.33-103.234 43.124-122.623 59.36-.284.237-.65.392-1.227 1.49a4.256 4.256 0 0 0-.418 2.928c.284 1.379 1.412 2.53 2.186 2.953 1.548.846 2.033.567 2.45.55.415-.016.689-.062.964-.109 1.1-.188 2.225-.506 3.865-.965 3.281-.918 8.233-2.384 14.594-4.078 12.723-3.388 31.02-7.668 51.875-10.035 37.68-4.277 74.554-.389 121.356 31.375 7.42 6.222 12.586 10.815 15.709 14.018a23.61 23.61 0 0 1 2.892 3.576c-1.688.543-4.476 1.14-7.9 2.092-26.269 7.304-64.308 18.475-100.065 27.17-35.757 8.694-69.748 14.661-85.394 12.373-7.36-1.077-16.297-7.082-24.895-17.15-8.598-10.07-16.847-23.989-23.472-39.946-13.252-31.914-19.96-71.962-11.858-105.951l.014-.055.011-.057c3.187-15.13 10.76-26.554 17.67-34.304a81.85 81.85 0 0 1 9.18-8.82c1.222-1 2.233-1.765 2.963-2.3.365-.266.657-.474.885-.636.227-.162.105-.008.744-.563 14.994-13.026 50.927-25.89 83.322-33.722 16.198-3.916 31.59-6.693 43.149-7.967 5.78-.637 10.62-.891 13.959-.762 1.67.065 2.971.239 3.683.414.328.081.447.182.457.196 5.262 6.833 14.166 16.122 23.897 24.24 9.974 8.321 20.111 15.542 29.564 16.346 1.519.129 2.642-.102 4.235-.465 1.592-.364 3.5-.93 5.777-1.75 4.552-1.64 10.555-4.296 17.969-8.37 14.827-8.147 35.274-21.966 60.582-44.624 18.57-16.626 40.25-32.44 64.154-39.518zm-214.164 23.744c.485 1.213 1.007 2.946 1.457 3.967 2.896 6.564 8.062 14.318 14.107 22.043-.32-.405-.934-1.006-1.22-1.385-1.456-1.925-3.137-2.382-4.754-2.781-1.617-.399-3.378-.58-5.41-.658-4.066-.158-9.194.14-15.235.806-12.08 1.332-27.726 4.167-44.228 8.157-33.006 7.98-69.123 20.11-86.946 35.593v-.002c.545-.473.138-.114-.091.05a78.005 78.005 0 0 0-4.307 3.287 90.32 90.32 0 0 0-10.152 9.751c-7.617 8.544-16.07 21.26-19.653 38.188-8.683 36.474-1.532 77.92 12.29 111.209 6.912 16.65 15.506 31.263 24.874 42.234 9.369 10.971 19.521 18.515 30.196 20.076 19.217 2.811 52.634-3.762 88.673-12.525 31.268-7.603 62.805-16.665 88.036-23.781-24.26 7.813-57.3 19.243-87.108 30.027-19.627 7.1-37.771 13.89-50.94 19.135-6.583 2.622-11.909 4.851-15.64 6.584-1.866.866-3.31 1.587-4.47 2.29-.58.352-1.073.65-1.71 1.259-.318.304-.714.662-1.125 1.544-.036.078-.031.247-.064.34-2.055 4.614-3.691 11.098-6.85 19.418-3.177 8.37-7.765 18.416-15.22 29.207-14.912 21.583-41.287 46.243-91.35 65.73-1.211.472-2.741 2.484-2.809 3.903-.067 1.419.344 2.016.579 2.445.468.86.798 1.143 1.162 1.522.728.757 1.586 1.5 2.715 2.428 2.256 1.856 5.503 4.32 9.49 7.246 7.974 5.851 18.867 13.5 30.008 21.123 11.14 7.623 22.516 15.213 31.449 20.937 4.466 2.862 8.314 5.255 11.265 6.977 1.476.86 2.72 1.551 3.772 2.076.526.263.999.483 1.496.678.497.194.866.431 2.066.484 8.997.395 17.707.554 26.164.514-8.93.179-17.693.291-25.53.44-.588.01-2.908-.497-5.792-1.78s-6.444-3.219-10.363-5.572c-7.839-4.708-17.136-11.08-26.156-17.373-9.021-6.294-17.762-12.505-24.703-16.996-3.471-2.246-6.467-4.057-9.004-5.295-1.27-.62-2.405-1.106-3.653-1.418-1.248-.312-2.941-.808-5.095.664-33.1 22.62-54.827 37.084-71.436 60.802-9.014 12.873-16.384 28.475-23.3 49.153 3.48-12.074 7.224-23.722 13.232-35.35 12.02-23.267 33.101-47.061 80.195-74.748l5.81-3.416-5.542-3.834s-11.556-7.997-22.942-17.22c-5.693-4.613-11.34-9.541-15.357-13.774-2.009-2.116-3.605-4.071-4.559-5.568-.954-1.497-1.027-2.53-1.06-2.131 3.59-43.24 1.707-66.298-2.541-79.303-2.125-6.503-4.955-10.65-8.364-13.043-3.408-2.393-7.151-2.651-9.697-2.35-4.194.498-8.765 2.93-15.088 7.538-6.322 4.606-13.796 11.478-21.244 21.048-14.895 19.14-29.629 49.083-34.418 92.842-.603 5.51-.894 11.319-1.055 17.235-.002-2.624-.078-5.112-.047-7.795.577-49.552 14.393-85.724 30.793-109.057 8.2-11.667 17.062-20.115 25.127-25.398 8.066-5.284 15.338-7.247 19.905-6.735 14.183 1.59 24.516 5.942 36.879 13.48 12.362 7.54 26.593 18.303 47.605 32.108 3.885 2.553 12.341 7.763 20.736 12.41 4.198 2.324 8.36 4.498 11.971 6.13 3.61 1.63 6.098 2.947 9.578 2.862 5.04-.12 9.496-2.546 13.11-5.933 3.614-3.388 6.574-7.79 9.087-12.65 5.028-9.723 8.253-21.325 9.541-30.717.6-4.367 1.187-7.332 1.561-9.668.374-2.336.887-4.33-.353-6.907-.62-1.288-1.741-2.32-2.739-2.91-.997-.59-1.91-.906-2.885-1.22-1.948-.63-4.255-1.21-7.601-2.362-7.27-2.502-19.137-11.773-30.574-26.87-11.433-15.092-22.722-35.928-30.377-61.46-12.777-44.657-11.035-78.106-1.213-103.457 9.823-25.355 27.814-42.872 48.543-55.334 20.729-12.462 44.152-19.737 64.21-24.281 20.06-4.544 36.357-6.254 44.386-8.195 5.677-1.373 9.743-2.516 12.962-4.102 3.22-1.586 5.874-4.184 6.705-7.422.452-1.756.44-3.448.235-5.164zm64.514 61.899c-.203.05-.57.187-.748.228-1.146.262-1.974.247-1.59.28-.303-.026-.799-.258-1.143-.327a25.045 25.045 0 0 0 3.48-.181zm-30.891 82.58c24.444.304 54.09 4.96 87.39 17.966 66.176 25.847 100.014 64.124 130.069 78.079 2.728 1.266 5.167 2.17 7.637 2.539 2.47.368 5.098.097 7.338-1.1 4.478-2.395 6.504-7.006 8.6-13.16.396-1.167.465-2.526.622-3.828.097 4.181.023 8.133-.416 11.543-.803 6.24-6.306 12.305-15.314 17.683-1.865 1.114-3.929 2.162-6.028 3.196.431-.365 1.062-.875 1.389-2.414.358-1.685-.961-4.015-1.928-4.649-14.595-9.574-31.252-21.655-59.28-43.455-78.888-61.355-154.782-66.397-210.243-55.965-4.472.841-8.582 1.914-12.781 2.932 7.77-2.249 15.986-4.323 24.896-6.078 10.588-2.087 23.382-3.472 38.049-3.29zm-5.014 10.707c46.694-.176 102.082 13.59 159.807 58.486 24.493 19.05 39.884 30.222 53.414 39.377a341.385 341.385 0 0 1-11.227 3.451c-10.32 2.982-21.535 5.972-25.148 6.98-31.813 5.247-51.745 4.642-65.229.758-13.511-3.892-20.927-10.88-28.552-19.968-42.869-51.101-92.052-67.155-123.78-69.274-23.489-1.569-43.076-.298-60.771 2.899 14.678-6.759 34.256-14.07 57.926-18.522 13.396-2.52 27.996-4.129 43.56-4.187zm-135.68 37.173c.026.105.083.376.092.413-.245.064-.62.139-.861.203.291-.223.474-.392.77-.616zm201.444 45.645c3.597 3.72 7.177 7.59 10.707 11.797 7.882 9.395 17.015 17.901 31.902 22.418-3.784-1.055-7.552-2.296-11.049-3.955-.695-.33-13.81-7.273-20.738-16.295-.578-.753-1.116-1.574-1.982-2.52-.866-.945-2.203-2.002-3.832-2.535-2.338-.764-4.919-.448-7.946.233.455-.277.91-.53 1.36-.938 1.308-1.188 2.344-3.445 2.197-5.432a9.598 9.598 0 0 0-.62-2.773zm183.16 12.445c-9.54 26.902-20.926 48.887-32.453 66.62-15.51 23.857-31.282 40.058-43.172 50.27-5.945 5.107-10.92 8.717-14.396 11.028-1.337.889-2.228 1.42-3.086 1.934-.426-.363-.747-.626-1.276-1.09a538.832 538.832 0 0 1-7.334-6.596c-4.2-3.834-6.807-6.266-8.326-7.677 1.64-3.757 7.595-17.818 11.229-37.815 3.008-16.558 4.379-37.08 4.691-41.973 4.669-.603 23.494-3.15 45.438-9.416 12.41-3.543 25.02-8.116 35.113-14.142 5.347-3.193 10.075-6.878 13.572-11.143zM492.63 654.55c.026.009-.101-.115.158.168.26.283.762.983 1.504 1.949 8.64 11.25 21.635 17.765 23.875 18.828 10.319 4.896 21.739 6.99 30.674 8.045 4.467.528 8.32.787 11.039.963.497.032.716.052 1.133.08.139 1.72.222 4.211.16 7.336-.126 6.321-.829 15.17-2.672 25.607-3.687 20.876-11.936 48.11-29.158 74.72-34.403 53.153-104.368 104.387-248.192 98.202-.149-.064-.307-.13-.593-.273-.761-.38-1.895-1.004-3.278-1.81-2.764-1.613-6.552-3.963-10.96-6.788-8.818-5.65-20.147-13.21-31.231-20.795-11.084-7.584-21.934-15.203-29.777-20.959a235.966 235.966 0 0 1-6.87-5.242c47.308-19.619 73.876-44.202 89.073-66.2 7.938-11.49 12.842-22.237 16.185-31.044 3.231-8.512 5.047-15.065 6.469-18.41.667-.387 1.75-.957 3.328-1.69 3.444-1.599 8.694-3.802 15.201-6.394 13.015-5.184 31.11-11.957 50.682-19.037 39.143-14.161 84.31-29.586 106.691-36.09 4.634-1.347 6.506-1.184 6.559-1.166zm149.228 5.693c-6.167 2.519-12.79 4.768-19.45 6.67-23.993 6.85-47.612 9.684-47.612 9.684l-3.572.427-.215 3.59s-.672 10.05-1.858 21.73c.328-3.76.569-7.333.627-10.253.068-3.398-.013-6.175-.19-8.3-.087-1.064-.195-1.956-.345-2.759-.15-.802.012-1.276-1.039-2.797-1.105-1.598-1.831-1.543-2.244-1.687-.413-.144-.661-.19-.895-.233a13.47 13.47 0 0 0-1.293-.166c-.892-.082-1.986-.149-3.335-.236-2.699-.174-6.366-.421-10.586-.92-.756-.089-1.685-.327-2.473-.433 13.876 1.604 31.601.812 55.584-3.155l.23-.039.227-.062c3.244-.908 14.936-4.027 25.496-7.078 4.9-1.416 9.367-2.784 12.943-3.983zm-107.072 11.97c.664.182 1.37.333 2.055.499a92.917 92.917 0 0 1-2.055-.498zm33.961 33.993c-.71 6.47-1.525 13.068-2.572 18.834-3.94 21.681-11.75 38.732-11.75 38.732l-1.297 2.825 2.275 2.119.215.2c-.59-.031-1.308-.029-2.166.355-.95.424-1.865 1.342-2.293 2.226-31.999 66.105-80.546 97.568-130.74 113.072-28.776 8.89-57.983 12.35-84.816 13.881 110.203-7.42 169.836-53.434 200.964-101.527 17.995-27.803 26.565-56.125 30.41-77.9.822-4.652 1.335-8.827 1.77-12.817zm-437.15 13.781c1.298-.154 2.345-.129 3.736.848s3.37 3.287 5.129 8.67c3.517 10.765 5.693 33.196 2.144 75.918-.247 2.984.948 5.222 2.38 7.469 1.43 2.246 3.335 4.508 5.576 6.869 4.481 4.722 10.327 9.795 16.181 14.537a381.628 381.628 0 0 0 18.158 13.816c-44.025 26.813-65.62 50.978-77.908 74.762-10.716 20.742-14.732 40.845-21.27 61.824-.593-2.157-1.095-3.76-1.763-6.414-2.707-10.752-5.912-25.306-8.785-41.625-5.746-32.638-10.117-72.435-6.787-102.857 4.628-42.288 18.738-70.607 32.656-88.49 6.959-8.942 13.884-15.273 19.52-19.38 5.635-4.105 10.582-5.893 11.033-5.947zm35.672.438c-.002 0-3.276 4.601-3.276 4.603 2.33 23.988-2.963 45.972-5.47 70.967-.727 7.24 3.199 14.39 8.582 20.44 5.382 6.049 12.514 11.056 20.369 12.08l1.15.15 1.072-.45c18.893-7.926 37.261-20.127 50.659-30.466 6.698-5.17 12.134-9.862 15.804-13.406 1.835-1.772 3.208-3.215 4.213-4.512.502-.648.932-1.138 1.358-2.285.212-.574.592-1.426.152-2.988-.44-1.563-2.412-3.013-3.584-3.217-3.47-.604-11.568-4.085-20.7-8.985-9.13-4.9-19.643-11.178-29.572-17.345-9.928-6.168-19.277-12.227-26.144-16.715-3.434-2.244-6.244-4.093-8.211-5.377-.984-.642-1.752-1.14-2.31-1.492a22.16 22.16 0 0 0-.727-.446c-.116-.066-.207-.126-.475-.251-.134-.063-.23-.15-.847-.301-.31-.076-2.041-.005-2.043-.004zm5.82 12.4c1.374.901 2.369 1.555 4.084 2.676 6.892 4.504 16.294 10.598 26.31 16.82 10.017 6.223 20.644 12.574 30.047 17.62 6.388 3.427 11.985 6.188 16.86 7.99-.1.097-.107.121-.21.22-3.34 3.226-8.599 7.78-15.083 12.784-12.675 9.781-30.112 21.272-47.522 28.767-4.54-.962-9.989-4.436-14.04-8.99-4.348-4.885-6.752-10.827-6.448-13.86 2.158-21.513 6.727-41.788 6.002-64.027zm408.492 47.979c.159.074.197.124.238.187a12.24 12.24 0 0 1-.238-.187zM59.65 883.209c1.392 18.812 4.034 37.829 7.047 54.943 2.911 16.535 6.152 31.26 8.914 42.235 1.382 5.487 2.642 10.032 3.698 13.437.527 1.703 1.001 3.116 1.435 4.264.434 1.148.637 1.861 1.457 3.014l4.707 6.613 2.832-7.608c1.428-3.837 2.489-7.475 3.676-11.185-2.09 7.835-4.215 17.143-6.338 26.283-.245-.565-.363-.76-.625-1.379-3.275-7.74-7.564-19.21-11.789-34.451-6.437-23.224-12.697-55.269-15.014-96.166zm268.77 15.672c-7.094.323-13.77.5-20.412.642 7.006-.055 13.768-.303 20.412-.642z" style="color:#000;font-style:normal;font-variant:normal;font-weight:400;font-stretch:normal;font-size:medium;line-height:normal;font-family:sans-serif;font-variant-ligatures:normal;font-variant-position:normal;font-variant-caps:normal;font-variant-numeric:normal;font-variant-alternates:normal;font-variant-east-asian:normal;font-feature-settings:normal;font-variation-settings:normal;text-indent:0;text-align:start;text-decoration:none;text-decoration-line:none;text-decoration-style:solid;text-decoration-color:#000;letter-spacing:normal;word-spacing:normal;text-transform:none;writing-mode:lr-tb;direction:ltr;text-orientation:mixed;dominant-baseline:auto;baseline-shift:baseline;text-anchor:start;white-space:normal;shape-padding:0;shape-margin:0;inline-size:0;clip-rule:nonzero;display:inline;overflow:visible;visibility:visible;isolation:auto;mix-blend-mode:normal;color-interpolation:sRGB;color-interpolation-filters:linearRGB;solid-color:#000;solid-opacity:1;vector-effect:none;fill:#8a8c8f;fill-opacity:1;fill-rule:nonzero;stroke:none;stroke-width:8.607;stroke-linecap:butt;stroke-linejoin:miter;stroke-miterlimit:4;stroke-dasharray:none;stroke-dashoffset:0;stroke-opacity:1;color-rendering:auto;image-rendering:auto;shape-rendering:auto;text-rendering:auto;enable-background:accumulate;stop-color:#000;stop-opacity:1" transform="translate(768.724 -40.482)"/></g><path d="M-734.44 753.293c46.299 0 67.519-10.293 67.519-70.738V314.741h-26.364v365.885c0 39.225-6.43 49.518-41.797 49.518-10.932 0-33.642.77-33.642.77l.003 22.7s21.42-.32 34.282-.32zm54.015-513.786c13.504 0 23.792-10.289 23.792-25.721 0-14.147-10.288-24.436-23.792-24.436-13.503 0-23.792 10.289-23.792 24.436 0 15.432 10.289 25.72 23.792 25.72zM-552.792 623.094h26.364V314.439h-26.364zm13.503-383.89c13.504 0 23.792-10.288 23.792-25.721 0-14.147-10.288-24.435-23.792-24.435-13.503 0-23.792 10.288-23.792 24.435 0 15.433 10.289 25.721 23.792 25.721zM-329.584 632.835c22.488-.456 38.751-1.689 38.751-1.689l-.189-22.11s-23.772.65-35.346.65c-43.083 0-52.729-27.008-52.729-66.876V340.256l75.056-1.576.39-22.738-75.446.521 2.417-87.408-28.858.16.72 87.248-48.87 2.573v21.22h48.227V540.88c0 54.658 16.73 93.152 75.877 91.954zM-139.968 630.81c74.023-1.862 109.68-40.352 109.528-86.81-.194-59.8-58.728-75.234-107.598-93.882-37.296-14.146-70.734-27.65-70.734-63.017 0-28.936 21.98-53.857 70.734-57.23 44.333-3.066 78.875 38.203 82.24 68.594l27.27-.486c2.607-43.371-50.892-93.971-108.224-91.256-70.299 3.328-99.072 37.905-99.027 81.664.054 52.729 48.87 71.377 96.454 88.096 36.01 12.86 81.878 30.222 81.878 69.447 0 32.795-31.724 61.175-81.234 61.731-55.98.629-65.9-44.952-76.281-69.08l-24.914 2.017c7.369 35.506 34.123 91.867 99.908 90.212zM61.218 621.648h26.365V312.993H61.218Zm13.504-383.89c13.504 0 23.792-10.288 23.792-25.72 0-14.147-10.288-24.436-23.792-24.436-13.504 0-23.792 10.289-23.792 24.436 0 15.432 10.288 25.72 23.792 25.72z" style="font-style:normal;font-variant:normal;font-weight:300;font-stretch:normal;font-size:643.031px;line-height:1.25;font-family:&quot;Source Sans Pro&quot;;-inkscape-font-specification:&quot;Source Sans Pro Light&quot;;letter-spacing:0;word-spacing:0;fill:#8a8c8f;fill-opacity:1;stroke:none;stroke-width:16.0758" transform="translate(768.724 -40.482)"/><g aria-label="TM" style="font-style:normal;font-variant:normal;font-weight:400;font-stretch:normal;font-size:97.5904px;line-height:1.25;font-family:Hack;-inkscape-font-specification:Hack;letter-spacing:0;word-spacing:0;fill:#8a8c8f;fill-opacity:1;stroke:none;stroke-width:2.43976"><path d="M695.54 293.73h8.197v-57.09h19.42v-6.93h-46.94v6.93h19.322zM734.478 293.73h7.514v-35.328c0-5.66-.683-13.565-1.17-19.127h.39l5.074 14.931 11.906 33.083h5.953l12.004-33.083 4.977-14.931h.39c-.487 5.562-1.17 13.467-1.17 19.127v35.328h7.71v-64.02h-10.248l-12.101 34.255c-1.562 4.49-2.733 8.588-4.196 13.37h-.39c-1.367-4.782-2.733-8.88-4.295-13.37l-12.101-34.254h-10.247z" style="font-style:normal;font-variant:normal;font-weight:400;font-stretch:normal;font-family:&quot;Source Sans Pro&quot;;-inkscape-font-specification:&quot;Source Sans Pro&quot;;fill:#8a8c8f;fill-opacity:1;stroke-width:2.43976" transform="matrix(1.02857 0 0 .97222 768.724 -40.482)"/></g></svg>
