<svg xmlns="http://www.w3.org/2000/svg" viewBox="0 0 90 90" fill-rule="evenodd" xmlns:v="https://vecta.io/nano"><path fill="#00a0de" d="M0 0h90v90H0z"/><path d="M29.104 52.818c.021 0 .048 0 .098.054.206.224.651 1.169.327 5.078-.076.805.118 1.487.577 2.028.331.391.754.644 1.149.809-1.269.845-2.292 1.809-3.23 3.031-1.007 1.314-1.527 2.591-1.857 3.75-.41-1.963-.891-5.191-.616-7.705.569-5.208 3.146-6.953 3.529-7.044l.023-.001zM51.6 48.716l.035.046c.522.68 1.341 1.126 1.534 1.225l.041.021c.852.405 1.773.54 2.317.586-.02 2.78-1.287 5.663-3.519 7.975-2.455 2.543-5.717 4.08-9.187 4.327a17.09 17.09 0 0 1-1.225.045c-4.597 0-6.931-1.953-8.004-3.04 5.194-2.242 6.247-5.45 6.707-6.851l.121-.355a13.91 13.91 0 0 1 .963-.416l.271-.108 1.539-.588 4.966-1.709 3.138-1.08h0l.052-.016a2.22 2.22 0 0 1 .252-.061zm-19.728 5.097l.302.196.612.394c1.229.783 2.465 1.527 3.33 1.913-.704.623-2.169 1.747-3.711 2.394-.155.065-.302.099-.426.099-.16 0-.234-.057-.28-.107-.083-.088-.269-.389-.21-1.253.043-.429.103-.857.159-1.27.105-.765.213-1.549.223-2.367zm30.664-4.867c-1.838 4.596-4.502 6.621-5.314 7.152l-.825-.751a12.48 12.48 0 0 0 .657-2.286c.15-.825.243-1.909.287-2.483a22.34 22.34 0 0 0 2.707-.576c1.072-.307 1.899-.657 2.488-1.055zm-3.812-17.627c-.266.87-.477 2.357.386 4.455.446 1.084 1.303 3.527 2.013 5.918 1.222 4.12 1.052 4.844 1.028 4.913-.088.259-.148.358-.175.394a1.07 1.07 0 0 1-.273-.098c-.607-.282-1.304-.794-2.111-1.386-1.5-1.1-3.364-2.469-6.093-3.535-2.003-.783-3.995-1.181-5.919-1.181-.827 0-1.624.075-2.369.221-4.298.848-6.563 2.746-7.779 3.766h0l-.01.008c-.166.139-.227.356-.156.553a.49.49 0 0 0 .466.322c.111 0 .219-.031.577-.133.705-.201 2.173-.622 3.935-.822.514-.058.986-.086 1.44-.086 2.081 0 3.994.64 6.02 2.015.463.388.747.646.918.815l-.175.046-1.229.346c-3.042.862-7.64 2.163-9.818 2.163-.191 0-.359-.011-.5-.031-.564-.083-1.253-.672-1.893-1.616-1.36-2.009-2.384-5.527-1.709-8.363h0l.003-.013c.323-1.54 1.395-2.445 1.841-2.763.034-.025.055-.041.062-.048.659-.574 2.007-1.182 3.796-1.712a7.63 7.63 0 0 1 .4-.097c.329-.068.689-.151 1.038-.231.724-.167 1.474-.34 2.009-.394a5.9 5.9 0 0 0 .501-.08c.226-.043.459-.087.667-.087s.364.042.502.134c.663.789 2.283 2.347 3.352 2.438h0l.033.003.033-.002c1.214-.064 3.113-1.249 5.649-3.522.431-.386.831-.716 1.224-1.007h0l.049-.036c.786-.578 1.534-.997 2.265-1.266zm-11.251 11.12c3.445 0 6.759 1.221 9.85 3.627 1.261.982 2.189 1.677 2.99 2.236l-1.581.445-.258.071c-.958.158-1.758.234-2.444.234-1.923 0-2.599-.62-3.228-1.37-3.122-3.727-6.574-4.337-7.914-4.427a18.88 18.88 0 0 0-1.252-.043 16.12 16.12 0 0 0-.993.03 15.09 15.09 0 0 1 4.83-.803zm13.632-11.474c.626 0 1.396.592 2.009 1.545.739 1.149 1.178 2.663 1.235 4.261.126 3.486-.195 6.399-.763 8.818-.273-2.267-1.189-5.068-1.547-6.157l-.093-.287a33.7 33.7 0 0 0-.279-.788c-.442-1.232-1.363-3.794-1.523-4.552-.235-1.115.296-2.648.631-2.78.102-.04.213-.061.328-.061zm-9.482-4.158a17.78 17.78 0 0 1 .083.408l.075.375c.241 1.192.515 2.534 2.99 3.277-.231.513-.706 1.37-.871 1.533h0l-.055.048-.038.062c-.483.775-3.093 2.47-4.262 2.47a.79.79 0 0 1-.15-.013c-.703-.135-2.32-1.573-2.789-2.636-.918-2.084-.731-2.837-.412-3.102.615-.511 1.743-1.198 5.43-2.423zm4.308-2.628c.221.327.568.982.702 1.531.173.707.14 1.489-.089 2.149-.364.867-.854 1.307-1.455 1.307-.026 0-.053-.001-.079-.002a1.61 1.61 0 0 1-.598-.219c-.773-.452-1.191-1.652-.888-2.534a.84.84 0 0 0 .036-.08c.05-.133.191-.372.582-.75a22.47 22.47 0 0 1 1.788-1.402zm-.809-5.292c-.463 1.624-1.577 4.357-3.406 6.013-.406.368-1.229.693-2.18 1.069-1.025.405-2.258.893-3.455 1.625.093-.936.384-2.569.9-3.655h0l.006-.013.005-.013c.166-.407 1.304-1.066 2.057-1.503l.282-.164c.221-.129.59-.286 1.018-.469 1.242-.53 3.178-1.354 4.771-2.89zm2.281-3.457a5.22 5.22 0 0 1 .071 2.183c-.2 1.41-.796 2.666-1.816 3.822.936-2.039 1.437-3.972 1.745-6.006zm11.268 15.542c-1.112-2.326-2.662-3.501-3.733-4.182-.9-.572-1.935-.988-3.084-1.241a12.57 12.57 0 0 0-.648-2.426c1.938-2.891 2.404-6.142 1.345-9.435-.814-2.532-1.445-4.164-1.989-5.139C59.389 6.442 57.762 6 56.605 6a4.23 4.23 0 0 0-3.136 1.394c-.82.907-1.203 2.094-1.078 3.342.107 1.064-.172 2.997-.357 3.688-.003.009-.332.932-2.78 2.12l-.377.129c-1.408.472-4.025 1.35-5.769 3.658-1.332 1.615-1.659 3.216-2.037 5.068-.226 1.104-.462 2.547-.404 4.254-4.376.973-7.529 2.955-9.377 5.9-1.914 3.049-2.245 6.828-.986 11.238l.011.033.073.24a10.99 10.99 0 0 0-.655-.093 5.24 5.24 0 0 0-.596-.033c-2.185 0-4.51 1.375-6.219 3.678-1.299 1.749-2.859 4.838-2.914 9.624-.041 3.554.338 6.831 1.129 9.739.59 2.167 1.248 3.498 1.5 3.964L27.993 84l2.456-11.138c.838-3.794 1.665-5.404 2.733-6.469 2.484 1.499 5.419 2.287 8.534 2.287 3.472 0 7.093-1.003 10.194-2.822 2.014-1.184 3.731-2.637 5.11-4.326h.056l.147-.003c.852-.029 2.018-.451 3.197-1.158.982-.588 2.463-1.671 3.949-3.487 1.498-1.833 2.72-4.062 3.631-6.627 1.067-3.003 1.717-6.499 1.929-10.39.257-3.619-.164-6.611-1.256-8.895h0zm-2.461 8.661c-.191 3.546-.77 6.7-1.721 9.374-.768 2.161-1.779 4.016-3.005 5.516-2.111 2.581-4.173 3.273-4.392 3.282h-.017c-.2 0-.317-.082-.877-.474l-.588-.402c-1.171 2.28-3.095 4.25-5.586 5.713-2.538 1.49-5.489 2.311-8.309 2.311-3.348 0-6.288-1.106-8.526-3.205-3.053 1.944-4.889 3.565-6.376 10.311l-.282 1.279-.616-1.155c-.155-.284-.688-1.337-1.19-3.184-.7-2.575-1.036-5.508-.999-8.717.075-6.404 3.508-9.618 5.41-9.618a1.57 1.57 0 0 1 .184.01c1.803.202 2.981.982 5.119 2.397l.699.462c.766.503 1.849 1.118 2.122 1.171.519-.03 1.027-1.193 1.174-2.273l.026-.183a6.18 6.18 0 0 0 .021-.332 3.84 3.84 0 0 1-.28-.111l-.021-.007c-1.345-.464-3.31-2.74-4.299-6.046-.955-3.341-.766-6.104.561-8.218 2.152-3.429 6.823-4.235 8.369-4.5a38.79 38.79 0 0 1 1.502-.267c.24-.06.404-.111.51-.157.046-.032.066-.066.035-.19l.042-.012-.041.009c-.019-.084-.045-.183-.074-.297l-.135-.549c-.478-2.148-.234-3.948.068-5.426.34-1.664.528-2.585 1.313-3.504 1.04-1.433 2.91-2.06 4.028-2.435.312-.105.582-.195.738-.27 3.427-1.645 4.518-3.375 4.83-4.536.247-.921.639-3.344.469-5.036-.019-.192.026-.35.134-.47a.51.51 0 0 1 .375-.167c.321 0 .761 0 2.402 5.103.866 2.691.22 5.213-1.917 7.498l-.082.087c-.058.06-.146.151-.158.184 0 0-.004.082.139.319.903 1.493 1.394 3.35 1.252 4.73-.034.321-.095.631-.149.903a8.04 8.04 0 0 0-.089.494h.027a10.34 10.34 0 0 1 1.077-.055c1.072 0 2.607.164 3.835.946a6.1 6.1 0 0 1 2.37 2.644c.813 1.699 1.114 4.072.899 7.053h0z" fill="#fff" fill-rule="nonzero"/></svg>