<svg xmlns="http://www.w3.org/2000/svg" xml:space="preserve" viewBox="0 0 512 512"><path fill="#F5F5F5" d="M512 256c0 141.4-114.6 256-256 256S0 397.4 0 256 114.6 0 256 0s256 114.6 256 256z"/><path fill="#E62526" d="M399.6 358.4c0 20.2-16.4 36.6-36.5 36.6-17.7 0-32.4-12.6-35.8-29.3-20.7 6.4-44.2 1.4-60.6-15.1l26.9-27c8.8 8.8 22.9 8.8 31.7 0 8.7-8.7 8.8-22.9 0-31.7L268 234.6l27-27 57.2 57.4c15.5 15.5 20.9 37.3 16 57.2 17.8 2.5 31.4 17.8 31.4 36.2z"/><path fill="#5AA526" d="M155.4 194.2c-6.2 20.7-1.1 44 15.2 60.3l57.3 57.3 26.9-27-57.3-57.4c-8.7-8.7-8.7-23 0-31.8s22.9-8.8 31.7 0l26.9-27c-15.4-15.4-36.9-20.8-56.7-16.1-2.8-17.4-17.9-30.6-36-30.7-20.2 0-36.5 16.4-36.5 36.6 0 17.5 12.2 32.1 28.5 35.8z"/><path fill="#FC8F30" d="M266.7 168.8c16.2-16.2 39.4-21.4 59.9-15.3 2.5-17.8 17.7-31.5 36.2-31.5 20.2 0 36.5 16.4 36.5 36.6 0 18.6-13.8 33.9-31.7 36.3 5.9 20.5.7 43.5-15.4 59.6l-26.9-27c8.8-8.8 8.8-23 0-31.7-8.7-8.7-22.9-8.7-31.7 0l-57.3 57.3-27-27 57.4-57.3z"/><path fill="#0E6CAA" d="M256.1 350.7c-15.6 15.6-37.5 20.9-57.4 15.9-3.7 16.3-18.3 28.4-35.6 28.4-20.2 0-36.5-16.4-36.5-36.6 0-17.3 12-31.8 28.1-35.6-5.1-20 .2-42.2 15.9-57.9l26.9 27c-8.7 8.8-8.7 22.9 0 31.7 8.8 8.8 23 8.8 31.7 0l57.3-57.4 26.9 27-57.3 57.5z"/></svg>