<?xml version="1.0" ?><!DOCTYPE svg  PUBLIC '-//W3C//DTD SVG 1.1//EN'  'http://www.w3.org/Graphics/SVG/1.1/DTD/svg11.dtd'><svg enable-background="new 0 0 512 512" id="Layer_1" version="1.1" viewBox="0 0 512 512" xml:space="preserve" xmlns="http://www.w3.org/2000/svg" xmlns:xlink="http://www.w3.org/1999/xlink"><g><path d="M512,256c0,141.4-114.6,256-256,256C114.6,512,0,397.4,0,256S114.6,0,256,0C397.4,0,512,114.6,512,256z" fill="#F5F5F5"/><path d="M399.6,358.4c0,20.2-16.4,36.6-36.5,36.6c-17.7,0-32.4-12.6-35.8-29.3c-20.7,6.4-44.2,1.4-60.6-15.1   l26.9-27c8.8,8.8,22.9,8.8,31.7,0c8.7-8.7,8.8-22.9,0-31.7L268,234.6l27-27l57.2,57.4c15.5,15.5,20.9,37.3,16,57.2   C386,324.7,399.6,340,399.6,358.4z" fill="#E62526"/><path d="M155.4,194.2c-6.2,20.7-1.1,44,15.2,60.3l57.3,57.3l26.9-27l-57.3-57.4c-8.7-8.7-8.7-23,0-31.8   c8.7-8.8,22.9-8.8,31.7,0l26.9-27c-15.4-15.4-36.9-20.8-56.7-16.1c-2.8-17.4-17.9-30.6-36-30.7c-20.2,0-36.5,16.4-36.5,36.6   C126.9,175.9,139.1,190.5,155.4,194.2z" fill="#5AA526"/><path d="M266.7,168.8c16.2-16.2,39.4-21.4,59.9-15.3c2.5-17.8,17.7-31.5,36.2-31.5c20.2,0,36.5,16.4,36.5,36.6   c0,18.6-13.8,33.9-31.7,36.3c5.9,20.5,0.7,43.5-15.4,59.6l-26.9-27c8.8-8.8,8.8-23,0-31.7c-8.7-8.7-22.9-8.7-31.7,0l-57.3,57.3   l-27-27L266.7,168.8z" fill="#FC8F30"/><path d="M256.1,350.7c-15.6,15.6-37.5,20.9-57.4,15.9c-3.7,16.3-18.3,28.4-35.6,28.4c-20.2,0-36.5-16.4-36.5-36.6   c0-17.3,12-31.8,28.1-35.6c-5.1-20,0.2-42.2,15.9-57.9l26.9,27c-8.7,8.8-8.7,22.9,0,31.7c8.8,8.8,23,8.8,31.7,0l57.3-57.4l26.9,27   L256.1,350.7z" fill="#0E6CAA"/></g></svg>