<svg xmlns="http://www.w3.org/2000/svg" xml:space="preserve" id="Layer_1" x="0" y="0" version="1.1" viewBox="0 0 512 512"><style>.st1,.st2,.st3,.st4,.st5{fill-rule:evenodd;clip-rule:evenodd;fill:#fff}.st2,.st3,.st4,.st5{fill:#00f2e6}.st3,.st4,.st5{fill:#00b9f1}.st4,.st5{fill:#d63aff}.st5{fill:#fb015b}</style><g id="Page-1"><g id="jwt_logo" transform="translate(-250)"><g id="Group" transform="translate(250)"><path fill="#fff" d="M406.8 512H105.2C47.1 512 0 464.9 0 406.8V105.2C0 47.1 47.1 0 105.2 0h301.6C464.9 0 512 47.1 512 105.2v301.6c0 58.1-47.1 105.2-105.2 105.2" style="fill-rule:evenodd;clip-rule:evenodd"/><g id="Shape"><path fill="#fff" d="M275.2 196.9V128h-38.4v68.9l19.2 26.4zM236.8 315.1V384h38.4v-68.9L256 288.8z" class="st1"/><path fill="#fff" d="m275.2 315.1 40.4 55.8 31.2-22.8-40.7-55.6-31-10.2v32.8zM236.8 196.9l-40.4-55.8-31.2 22.8 40.7 55.6 31 10.2v-32.8z" class="st2"/><path fill="#fff" d="m205.8 219.4-65.5-21.2-12 36.6 65.5 21.2 31.2-10zM287 266l19.2 26.6 65.5 21.2 12-36.6-65.5-21.2z" class="st3"/><path fill="#fff" d="m318.2 256 65.5-21.2-12-36.6-65.5 21.2L287 246zM193.8 256l-65.5 21.2 12 36.6 65.5-21.2L225 266z" class="st4"/><path fill="#fff" d="m205.8 292.6-40.7 55.6 31.2 22.8 40.4-55.8v-32.8zM306.2 219.4l40.7-55.6-31.2-22.8-40.4 55.8v32.8z" class="st5"/></g></g></g></g></svg>