<svg xmlns="http://www.w3.org/2000/svg" xml:space="preserve" id="Layer_1" x="0" y="0" style="enable-background:new 0 0 32 32" version="1.1" viewBox="0 0 32 32"><style>.st0{opacity:.56}.st0,.st1,.st2{fill:#7bdef4;stroke:#57afde;stroke-width:.25;stroke-miterlimit:10;enable-background:new}.st1{opacity:.28}.st2{opacity:.69}</style><path d="m15.7 31.6-11-5.5v-4.9l11 5.4z" class="st0"/><path d="m15.5 31.6 11-5.5v-4.9l-11 5.4z" class="st1"/><path d="m15.5 15.6 11 5.4v5l-11-5.5z" class="st0"/><path d="M15.7 15.6 4.7 21v5l11-5.5z" class="st2"/><path d="m15.7 24-11-5.5v-4.9l11 5.4z" class="st0"/><path d="m15.5 24 11-5.5v-4.9l-11 5.4z" class="st1"/><path d="m15.5 8 11 5.5v4.9l-11-5.5z" class="st0"/><path d="m15.7 8-11 5.5v4.9l11-5.5z" class="st2"/><path d="M15.7 16.4 4.7 11V6l11 5.5z" class="st0"/><path d="m15.5 16.4 11-5.4V6l-11 5.5z" class="st1"/><path d="m15.5.4 11 5.5v4.9l-11-5.4z" class="st0"/><path d="m15.7.4-11 5.5v4.9l11-5.4z" class="st2"/></svg>