<svg xmlns="http://www.w3.org/2000/svg" xmlns:xlink="http://www.w3.org/1999/xlink" version="1.1" id="Layer_1" x="0px" y="0px" style="enable-background:new 0 0 512 512;" xml:space="preserve" viewBox="0 56.14 512 399.7">
<style type="text/css">
	.st0{fill:#D40000;}
	.st1{fill:#2B0000;}
</style>
<g transform="translate(0 -908.36)">
	<path class="st0" d="M255.8,1364h-86.7l-81.9-159.7l-16.6,29.2V1364H0V965h70.7v180.6L168.6,965h81.9l-107.1,184.6L255.8,1364z"/>
	<path class="st1" d="M512,1241.3c0,19.9-3.1,37.4-9.2,52.6c-6.1,15.2-14.3,27.7-24.6,37.6c-12.2,11.8-25.6,20.2-40.3,25.2   c-14.5,5-33,7.5-55.6,7.5h-115V964.5h96.1c23.7,0,41.4,1.1,53.2,3.2c11.8,2.1,23,6.6,33.8,13.4c11.9,7.7,20.6,17.6,25.9,29.8   c5.4,12,8.1,26.4,8.1,43.2c0,19-3.9,35.2-11.8,48.6c-7.8,13.2-18.3,23.9-31.4,31.9v2.1c21.9,5.5,39.2,17.4,51.9,35.7   C505.7,1190.6,512,1213.5,512,1241.3L512,1241.3z M439.4,1061.1c0-9.7-1.3-17.8-3.9-24.4c-2.6-6.6-6.8-12-12.6-16.1   c-6.8-4.8-15.1-7.8-24.8-8.9c-9.7-1.3-21.8-1.9-36.2-1.9h-51.4v115.4h55.8c13.5,0,24.3-0.8,32.2-2.4c8-1.8,15.4-5.4,22.2-10.7   c6.8-5.4,11.6-12.3,14.4-20.7C438,1082.9,439.4,1072.8,439.4,1061.1L439.4,1061.1z M467.1,1243.4c0-16.1-2-28.9-5.9-38.4   c-3.9-9.5-11-17.5-21.4-24.2c-7-4.5-15.5-7.3-25.5-8.6c-9.9-1.4-21.9-2.1-36.2-2.1h-67.8v148.7h57.1c18.9,0,34.4-1.2,46.4-3.5   c12.1-2.5,21.9-7,29.6-13.4c8.1-7,14.1-14.9,17.9-23.9C465.2,1269.1,467.1,1257.6,467.1,1243.4L467.1,1243.4z"/>
</g>
</svg>