<svg xmlns:cc="http://creativecommons.org/ns#" xmlns:inkscape="http://www.inkscape.org/namespaces/inkscape" xmlns:rdf="http://www.w3.org/1999/02/22-rdf-syntax-ns#" xmlns:dc="http://purl.org/dc/elements/1.1/" xmlns:sodipodi="http://sodipodi.sourceforge.net/DTD/sodipodi-0.dtd" xmlns:svg="http://www.w3.org/2000/svg" xmlns="http://www.w3.org/2000/svg" xmlns:xlink="http://www.w3.org/1999/xlink" version="1.1" id="svg5800" inkscape:export-filename="../94e4957b/kani-yellow-sign.png" inkscape:export-xdpi="86.699997" inkscape:export-ydpi="86.699997" inkscape:version="1.2 (dc2aeda, 2022-05-15)" sodipodi:docname="logo.svg" x="0px" y="0px" style="enable-background:new 0 0 512 512;" xml:space="preserve" viewBox="4.64 97.38 502.67 317.16">
<style type="text/css">
	.st0{fill:#803300;stroke:#000000;stroke-width:2.8346;stroke-linejoin:round;stroke-miterlimit:11.3386;}
	.st1{fill:#FF6600;stroke:#000000;stroke-width:2.8346;stroke-linejoin:round;stroke-miterlimit:11.3386;}
	.st2{fill:#D45500;stroke:#000000;stroke-width:2.8346;stroke-miterlimit:11.3386;}
	.st3{stroke:#000000;stroke-width:0.75;stroke-miterlimit:11.3386;}
	.st4{fill:#FFFFFF;stroke:#000000;stroke-width:0.75;stroke-miterlimit:11.3386;}
	.st5{display:none;fill:#FF6600;stroke:#000000;stroke-width:2.8346;stroke-linejoin:round;stroke-miterlimit:11.3386;}
	.st6{fill:none;stroke:#000000;stroke-width:2.8346;stroke-linejoin:round;stroke-miterlimit:11.3386;}
	.st7{fill:#2A3455;stroke:#000000;stroke-width:2.8346;stroke-linejoin:round;stroke-miterlimit:11.3386;}
	.st8{fill:#2A3455;stroke:#CCCCCC;stroke-width:0.5225;stroke-linejoin:round;stroke-miterlimit:9.8224;}
	.st9{fill:#B1B3B8;stroke:#B1B3B8;stroke-width:0.4693;stroke-miterlimit:11.3386;}
	.st10{fill:#B1B3B8;stroke:#B1B3B8;stroke-width:0.1242;stroke-miterlimit:11.3386;}
	.st11{fill:#FFFFFF;stroke:#FFFFFF;stroke-width:0.1242;stroke-miterlimit:11.3386;}
	.st12{fill:#CCCCCC;}
	.st13{font-family:'HelveticaInseratLTStd-Roman';}
	.st14{font-size:4.8638px;}
	.st15{font-family:'ArialMT';}
	.st16{font-size:5.769px;}
	.st17{font-size:7.6669px;}
	.st18{font-size:6.5662px;}
	.st19{font-size:7.7882px;}
	.st20{font-size:10.3503px;}
</style>
<g>
	
		<g id="layer2_00000005245049539692487670000001957043081216740540_" transform="translate(-40.228511,-7.4385631)" inkscape:groupmode="layer" inkscape:label="Kani">
		
			<path id="path5404_00000031896480603064281220000015497729509154348731_" inkscape:export-filename="../1d28c49c/party-kani.png" inkscape:export-xdpi="160.64" inkscape:export-ydpi="160.64" inkscape:label="kani-rear-claw-left" class="st0" d="    M166.1,337.2c-9.5,23,16.4,44.3,16.5,44.6c-4.7-13.9-9.7-25.1-0.5-34.8"/>
		<path id="path5408_00000093142638045652416300000014655809286439711150_" inkscape:label="kani-rear-claw-right" class="st0" d="    M381.3,335.7c9.5,23-16.4,44.3-16.5,44.6c4.7-13.9,9.7-25.1,0.5-34.8"/>
		<path id="path4529_00000120532768962363178160000010992441212950034850_" inkscape:label="kani-body" class="st1" d="M273,215.2    c-3.7,0-7.3,6.7-13.9,19.8c-20-22-21-22.3-27.9,7.5c-0.3,0.1-0.6,0.3-1,0.4c-25.2-15.1-26.5-15.2-24.6,14.3    c-0.6,0.5-1.2,0.9-1.8,1.4c-25.8-10.2-26.9-9.6-20.4,18.7c-0.3,0.3-0.6,0.7-0.9,1c-26.3-7.1-27-6-17.2,21.7    c-0.4,0.6-0.8,1.2-1.3,1.8c-29.6-3.2-30.2-2.6-15.2,25c-0.1,0.1-0.1,0.3-0.2,0.4c-12.1,5.8-16.2,12.9-21.9,22.4    c-0.4,18.8,19.7,35.1,48.7,53.5c-10-18.5-25.5-27.8-28.5-50.7c4.4-8.2,11.8-11.1,18.2-14.8c69.8,40.7,143.5,41.2,217-1.6    c6.4,3.7,13.9,6.6,18.3,14.8c-3,22.9-18.6,32.2-28.5,50.7c29-18.4,49.1-34.7,48.7-53.5c-5.6-9.2-9.6-16.2-20.9-21.9    c14.2-26.1,12.9-26.4-17-23.2c-0.3-0.3-0.5-0.7-0.8-1c10.3-29.1,9.7-29.8-18.1-22.3c7-30.3,6.1-30.5-22.1-19.3    c2.1-32,1.4-31.9-25.2-16c-7.1-30.7-7.9-30.6-28.2-8.3C280.8,222.3,276.8,215.3,273,215.2L273,215.2z"/>
		
			<g id="g5758_00000020383907541492792060000001452218968614409378_" transform="translate(4.4761068,-9.3324906)" inkscape:label="kani-face">
			<path id="path5399_00000170269557399286843940000000190815826102310574_" inkscape:label="kani-smile" class="st2" d="     M257.9,357.2c-1.9-0.2,12.7,28.8,22.8,0.5C281.4,355.8,270.3,365.9,257.9,357.2z"/>
			<g id="g351_00000066479026872060441220000017350167962439270291_" inkscape:label="kani-eye-left">
				<path id="path5415_00000094612249113806557210000005378351658019706016_" class="st3" d="M242,328.9      c-14.5,31.2,15.9,41.8,12.5,11.7C253.6,331.2,247.9,320.2,242,328.9z"/>
				<path id="path5417_00000183244397759925963940000002398007508375005627_" class="st4" d="M248.2,331.3      c-3.4,4.3-0.2,10.9-0.3,11.3C252.7,347.2,252.5,329.1,248.2,331.3z"/>
			</g>
			<g id="g355_00000023255626807412079490000004984628089087331208_" inkscape:label="kani-eye-right">
				<path id="path5433_00000050661445474021831270000007508282518558448560_" class="st3" d="M288.5,328.9      C274,360,304.5,370.6,301,340.6C300.1,331.2,294.4,320.2,288.5,328.9z"/>
				<path id="path5435_00000129911390606988928870000008145149001447177636_" class="st4" d="M294.7,331.3      c-3.4,4.3-0.2,10.9-0.3,11.3C299.2,347.2,299,329.1,294.7,331.3z"/>
			</g>
		</g>
		<path id="path5389_00000155859915342425851420000014207861369340222375_" inkscape:label="kani-claw-left-down" class="st1" d="    M202.4,327.5c-1.4,0-2.4,0.2-2.3,0.3c0,0-25.9,33.8,0.9,52.9c-4,8.1-2.5,18.5,4.1,26.7c7.4,9.3,19.5,13.8,29.9,11.2l-10.1-24.4    l26.1,2.1c-0.8-10.9-8.9-21.1-19.9-25.3c-6.8-2.6-13.9-2.6-19.9,0c-5.3-3.9-13.1-14-0.1-35.4C215.4,328.6,206.7,327.5,202.4,327.5    L202.4,327.5z"/>
		<path id="path8665_00000038391301246805759410000002120391589593443213_" inkscape:label="kani-claw-left-up" class="st5" d="    M207.6,339.1c-0.8,1.2-1.4,2-1.4,1.8c0,0-42.4,3.9-44.3-28.9c-9-0.9-17-7.8-20.5-17.7c-3.9-11.2-1.3-23.9,6.4-31.3l15.3,21.5    l12.1-23.2c8.7,6.5,13.1,18.7,10.8,30.3c-1.4,7.1-5.2,13.2-10.6,16.8c0.5,6.5,4.8,18.5,29.9,18.9    C213.6,327.4,209.9,335.4,207.6,339.1L207.6,339.1z"/>
	</g>
	<g>
		<path id="path5730_00000005233886469895162280000014796422535771086742_" class="st6" d="M318.5,222.4l77.6-43.3l60.7,108.7    L379.2,331L318.5,222.4z"/>
		<path id="path5734_00000126285873700645297410000017359828722858593945_" sodipodi:nodetypes="cccccccc" class="st7" d="    M318.5,222.4l77.6-43.3l60.7,108.7L379.2,331l-17.8-31.8c9.9-8.8,11.9-19.9,9-32.3l-21,10.9L318.5,222.4z"/>
		
			<g id="g1027_00000096051763114517625820000018218708722150005936_" transform="matrix(0.86024749,-0.10202883,0.10202883,0.86024749,30.096406,71.933538)" inkscape:label="passport-kani">
			<path id="path4529-1_00000124160081686066970120000016202602054160924329_" class="st8" d="M374.4,234.7c-0.7,0.3-0.9,1.9-1.1,5     c-5.7-2.7-6-2.6-4.9,3.8c-0.1,0.1-0.1,0.1-0.2,0.2c-6.2-0.9-6.4-0.8-3.6,4.8c-0.1,0.1-0.2,0.3-0.2,0.4c-5.9,0.1-6.1,0.3-2.5,5.4     c0,0.1-0.1,0.2-0.1,0.3c-5.7,0.8-5.8,1-1.6,5.7c0,0.2-0.1,0.3-0.1,0.5c-6.1,1.8-6.1,2-0.9,6.2c0,0,0,0.1,0,0.1     c-1.9,2.1-2.1,3.9-2.5,6.2c1.5,3.7,6.8,5.3,14,6.5c-3.5-2.8-7.3-3.4-9.8-7.6c0.2-2,1.4-3.1,2.4-4.4c17,2.2,31.5-3.7,42.4-18.2     c1.6,0.2,3.3,0.1,4.8,1.4c1.3,4.7-1,7.9-1.4,12.3c4.2-6,6.8-10.9,5.1-14.5c-1.9-1.4-3.2-2.4-5.9-2.6c0.6-6.3,0.3-6.2-5.2-3.1     c-0.1,0-0.2-0.1-0.2-0.1c-0.4-6.6-0.6-6.7-5.4-2.9c-1.1-6.5-1.3-6.5-5.9-2c-2.2-6.5-2.4-6.4-6.3-1.1c-3.9-5.4-4.1-5.3-6.2,0.7     C376.5,235.5,375.2,234.4,374.4,234.7L374.4,234.7z"/>
			<path id="path5389-8_00000176005177729028144810000010374352417527493811_" class="st8" d="M369.8,262.6     c-0.3,0.1-0.5,0.2-0.4,0.2c0,0-2.3,8.8,4.5,10.3c-0.1,1.9,1,3.8,3,4.9c2.2,1.2,5,1.1,6.8-0.3l-4-4l5.3-1.7     c-1.1-2.1-3.5-3.4-6-3.3c-1.5,0.1-2.9,0.6-3.9,1.6c-1.4-0.3-3.7-1.7-2.9-6.9C372.5,261.7,370.7,262.2,369.8,262.6L369.8,262.6z"/>
			<path id="path5732-7_00000086665835081275413660000018204138170252339115_" class="st8" d="M398.7,235.5     c-0.9,1.3-1.3,2.9-1.1,4.5c0.2,2.1,1.4,3.8,3.1,4.5c0.3,6.3-4.1,6-4.2,6c-0.8-0.2-2,3.2,1.5,2.8c5.5-0.7,5.8-6,5.6-8.7     c1.4-0.5,2.6-1.6,3.3-3.1c1-2.3,0.7-5-0.8-6.8l-3.6,4.3l-0.3-0.7L398.7,235.5z"/>
			
				<path id="path5399-5_00000046299321413429004000000008861543907368690081_" inkscape:label="kani-passport-smile" class="st9" d="     M385.8,260.7c-0.4,0.1,4.5,4,4-1.7C389.8,258.6,388.6,261.3,385.8,260.7z"/>
			
				<g id="g364_00000058578859718725529430000011682469140906017726_" transform="matrix(1.1463308,0.13595947,-0.13595947,1.1463308,-22.801274,-2.4500009)" inkscape:label="kani-passport-eye-left">
				<path id="path5415-5_00000168808080964775217400000003019901502443206790_" class="st10" d="M373.7,182c0.6,5.7,5.8,4.6,2.8,0.6      C375.5,181.4,373.8,180.3,373.7,182z"/>
				<path id="path5417-5_00000026148190389463454660000009772149673300692659_" class="st11" d="M374.8,181.8      c-0.1,0.9,0.9,1.6,0.9,1.6C376.8,183.7,375.2,181.2,374.8,181.8z"/>
			</g>
			
				<g id="g374_00000029731875244232630880000017277589500829692344_" transform="matrix(1.1463308,0.13595947,-0.13595947,1.1463308,-22.801274,-2.4500009)" inkscape:label="kani-passport-eye-right">
				<path id="path5433-8_00000162320023953258408580000012175362139674259644_" class="st10" d="M380.3,178.1      c0.6,5.7,5.8,4.6,2.8,0.6C382.2,177.4,380.4,176.3,380.3,178.1z"/>
				<path id="path5435-2_00000151541090203852574460000008064469412041924282_" class="st11" d="M381.4,177.9      c-0.1,0.9,0.9,1.6,0.9,1.6C383.4,179.8,381.8,177.2,381.4,177.9z"/>
			</g>
		</g>
		<text transform="matrix(0.8747 -0.4846 0.4846 0.8747 393.8423 295.3097)" class="st12 st13 st14">PASSPORT</text>
		<text transform="matrix(0.8743 -0.4854 0.4854 0.8743 384.2421 292.2773)" class="st12 st15 st16">AUTHSTRALIA</text>
		<text transform="matrix(0.8731 -0.4875 0.4875 0.8731 351.7587 225.5297)" class="st12 st13 st17">KANIDM</text>
	</g>
	
		<g id="layer3_00000067943026255706653680000002018075953615265961_" transform="translate(-40.228511,-7.4385631)" inkscape:groupmode="layer" inkscape:label="kani-claw-right-overlay">
		<path id="path523_00000114051638936754849780000008025122720076382594_" inkscape:label="under-kani-claw" class="st7" d="    M401.6,304.6c9.9-8.8,11.9-19.9,9-32.3l-21,10.9L401.6,304.6z"/>
		<path id="path5732-74_00000007421331481506422970000002137410864790668219_" class="st1" d="M376.8,262.8    c-6.2,4-10.9,10.4-13,17.6c-2.8,9.5-0.7,19.1,5.4,25.1c-10.1,27.7-28.5,18.6-28.9,18.2c-3.1-2.4-14.7,10.3,1.5,14.8    c25.3,7.1,36.2-15.5,40.1-27.4c6.9,0.5,14.2-2.2,20-7.5c8.7-8.1,12.3-20.5,9-30.7l-23.6,11.9l0-3.7L376.8,262.8z"/>
		<path id="path5728_00000127759934399549882340000004660757817960038300_" class="st1" d="M376.8,262.8c-6.2,4-10.9,10.4-13,17.6    c-2.8,9.5-0.7,19.1,5.4,25.1c-10.1,27.7-28.5,18.6-28.9,18.2c-3.1-2.4-14.7,10.3,1.5,14.8c25.3,7.1,36.2-15.5,40.1-27.4    c6.9,0.5,14.2-2.2,20-7.5c8.7-8.1,12.3-20.5,9-30.7l-23.6,11.9l0-3.7L376.8,262.8z"/>
		<path id="path5732_00000031171488295692914670000018215156570706447793_" class="st1" d="M376.8,262.8c-6.2,4-10.9,10.4-13,17.6    c-2.8,9.5-0.7,19.1,5.4,25.1c-10.1,27.7-28.5,18.6-28.9,18.2c-3.1-2.4-14.7,10.3,1.5,14.8c25.3,7.1,36.2-15.5,40.1-27.4    c6.9,0.5,14.2-2.2,20-7.5c8.7-8.1,12.3-20.5,9-30.7l-23.6,11.9l0-3.7L376.8,262.8z"/>
	</g>
</g>
<g>
	
		<g id="layer2_00000039114377799653437570000016843504497973184155_" transform="translate(-40.228511,-7.4385631)" inkscape:groupmode="layer" inkscape:label="Kani">
		
			<path id="path5404_00000038383697559713409410000006023340062100548024_" inkscape:export-filename="../1d28c49c/party-kani.png" inkscape:export-xdpi="160.64" inkscape:export-ydpi="160.64" inkscape:label="kani-rear-claw-left" class="st0" d="    M99.5,309.7c-12.9,31.1,22.1,59.8,22.3,60.2c-6.4-18.8-13.2-33.9-0.7-47"/>
		<path id="path5408_00000037658101033124498450000004334041934401099939_" inkscape:label="kani-rear-claw-right" class="st0" d="    M389.9,307.6c12.9,31.1-22.1,59.8-22.3,60.2c6.4-18.8,13.2-33.9,0.7-47"/>
		<path id="path4529_00000005254275771498134740000016741302405669510565_" inkscape:label="kani-body" class="st1" d="M243.8,145    c-5-0.1-9.8,9-18.7,26.7c-27-29.7-28.4-30-37.7,10.1c-0.4,0.2-0.9,0.4-1.3,0.6c-34-20.4-35.7-20.5-33.2,19.3    c-0.8,0.6-1.7,1.2-2.5,1.9c-34.8-13.8-36.3-12.9-27.5,25.3c-0.4,0.4-0.8,0.9-1.2,1.3c-35.5-9.6-36.5-8.2-23.3,29.3    c-0.6,0.8-1.1,1.6-1.7,2.5c-40-4.3-40.8-3.5-20.5,33.8c-0.1,0.2-0.2,0.4-0.3,0.5c-16.4,7.8-21.8,17.4-29.6,30.2    c-0.6,25.4,26.6,47.3,65.7,72.2c-13.4-24.9-34.5-37.5-38.5-68.5c5.9-11.1,16-15,24.6-20c94.2,55,193.7,55.6,292.9-2.1    c8.6,5,18.8,8.9,24.7,20c-4,30.9-25.1,43.5-38.5,68.5c39.1-24.9,66.4-46.8,65.7-72.2c-7.6-12.5-12.9-21.8-28.3-29.5    c19.2-35.3,17.4-35.6-22.9-31.3c-0.3-0.4-0.7-0.9-1-1.3c13.9-39.3,13-40.3-24.5-30.1c9.5-41,8.2-41.1-29.8-26    c2.9-43.2,1.8-43.1-34-21.6c-9.6-41.4-10.7-41.3-38-11.2C254.3,154.6,248.9,145.1,243.8,145L243.8,145z"/>
		
			<g id="g5758_00000075881377246312608210000005686968438114941113_" transform="translate(4.4761068,-9.3324906)" inkscape:label="kani-face">
			<path id="path5399_00000057142225415554890170000016245894710749846679_" inkscape:label="kani-smile" class="st2" d="     M224.9,333.4c-2.6-0.2,17.1,38.9,30.8,0.7C256.7,331.5,241.6,345.2,224.9,333.4z"/>
			<g id="g351_00000109025841848815774540000004106843963830473637_" inkscape:label="kani-eye-left">
				<path id="path5415_00000021098392677366968280000009519117631310055612_" class="st3" d="M203.5,295.2      c-19.6,42.1,21.5,56.4,16.9,15.8C219.2,298.4,211.5,283.5,203.5,295.2z"/>
				<path id="path5417_00000090996054679906658560000009516307108634426801_" class="st4" d="M211.9,298.5      c-4.5,5.8-0.3,14.7-0.4,15.3C217.9,320,217.7,295.5,211.9,298.5z"/>
			</g>
			<g id="g355_00000133527387859803411080000017532847255847078837_" inkscape:label="kani-eye-right">
				<path id="path5433_00000147213261175443752920000012635465141377914517_" class="st3" d="M266.3,295.2      c-19.6,42.1,21.5,56.4,16.9,15.8C282,298.4,274.3,283.5,266.3,295.2z"/>
				<path id="path5435_00000003065854202194064270000002039843670620702632_" class="st4" d="M274.6,298.5      c-4.5,5.8-0.3,14.7-0.4,15.3C280.7,320,280.4,295.5,274.6,298.5z"/>
			</g>
		</g>
		<path id="path5389_00000155859040191797822090000001004653412869214635_" inkscape:label="kani-claw-left-down" class="st1" d="    M148.4,296.6c-2,0-3.3,0.2-3,0.3c0,0-35,45.7,1.2,71.4c-5.5,10.9-3.3,25,5.5,36.1c10,12.5,26.3,18.7,40.4,15.2l-13.6-32.9    l35.2,2.8c-1.1-14.7-12-28.4-26.9-34.1c-9.2-3.5-18.8-3.5-26.8,0c-7.1-5.2-17.7-18.9-0.2-47.7C166,298.1,154.3,296.6,148.4,296.6    L148.4,296.6z"/>
		<path id="path8665_00000039092573107737458200000001368303279639933859_" inkscape:label="kani-claw-left-up" class="st5" d="    M155.5,312.2c-1.1,1.6-1.9,2.6-1.9,2.4c0,0-57.3,5.3-59.8-39c-12.2-1.2-22.9-10.5-27.6-23.8c-5.3-15.1-1.8-32.2,8.6-42.3    l20.6,29.1l16.3-31.3c11.8,8.8,17.7,25.3,14.6,40.9c-1.9,9.6-7.1,17.8-14.3,22.7c0.6,8.8,6.5,25,40.3,25.5    C163.5,296.5,158.6,307.3,155.5,312.2L155.5,312.2z"/>
	</g>
	<g>
		<path id="path5730_00000132046338004728597740000009446565685260907411_" class="st6" d="M319.3,157.3L424,98.8l81.9,146.7    L401.2,304L319.3,157.3z"/>
		<path id="path5734_00000058558273283187002090000012686927988967501759_" sodipodi:nodetypes="cccccccc" class="st7" d="    M319.3,157.3L424,98.8l81.9,146.7L401.2,304l-24-43c13.4-11.9,16.1-26.8,12.2-43.6L361,232.1L319.3,157.3z"/>
		
			<g id="g1027_00000007412438524403426530000012169582084105483690_" transform="matrix(0.86024749,-0.10202883,0.10202883,0.86024749,30.096406,71.933538)" inkscape:label="passport-kani">
			<path id="path4529-1_00000129197175093131374150000002689461387661786537_" class="st8" d="M406.6,168.3c-1,0.4-1.2,2.6-1.5,6.8     c-7.7-3.6-8-3.6-6.6,5.1c-0.1,0.1-0.1,0.1-0.2,0.2c-8.3-1.2-8.7-1.1-4.9,6.5c-0.1,0.2-0.2,0.4-0.3,0.6c-8,0.2-8.2,0.5-3.3,7.2     c0,0.1-0.1,0.2-0.1,0.4c-7.8,1-7.8,1.4-2.1,7.7c0,0.2-0.1,0.4-0.1,0.6c-8.2,2.5-8.3,2.7-1.2,8.3c0,0,0,0.1,0,0.1     c-2.6,2.9-2.8,5.2-3.3,8.4c2,5,9.1,7.1,18.8,8.8c-4.7-3.8-9.9-4.5-13.2-10.3c0.2-2.7,1.9-4.2,3.2-5.9c23,3,42.6-5,57.3-24.5     c2.1,0.3,4.4,0.2,6.5,1.9c1.8,6.4-1.3,10.6-1.9,16.6c5.6-8.1,9.2-14.6,6.9-19.6c-2.5-1.8-4.3-3.2-8-3.5c0.9-8.5,0.5-8.4-7.1-4.3     c-0.1-0.1-0.2-0.1-0.3-0.2c-0.5-8.8-0.8-9-7.3-3.9c-1.5-8.8-1.8-8.7-8-2.7c-3-8.7-3.2-8.6-8.5-1.4c-5.3-7.3-5.5-7.2-8.4,0.9     C409.5,169.3,407.6,167.9,406.6,168.3L406.6,168.3z"/>
			<path id="path5389-8_00000031890035635822709060000004085331308449518511_" class="st8" d="M400.4,205.9     c-0.4,0.2-0.6,0.3-0.6,0.3c0,0-3.1,11.8,6.1,13.9c-0.2,2.6,1.4,5.2,4,6.6c3,1.6,6.7,1.5,9.2-0.4l-5.4-5.3l7.1-2.3     c-1.4-2.8-4.7-4.6-8.1-4.5c-2.1,0.1-4,0.9-5.3,2.2c-1.8-0.4-5-2.2-4-9.4C404,204.7,401.6,205.4,400.4,205.9L400.4,205.9z"/>
			<path id="path5732-7_00000143604068002957641420000002633543293410764956_" class="st8" d="M439.4,169.4c-1.2,1.8-1.7,4-1.5,6.1     c0.3,2.8,1.9,5.1,4.2,6c0.4,8.5-5.5,8.1-5.6,8c-1.1-0.3-2.7,4.4,2,3.8c7.5-0.9,7.9-8.1,7.6-11.7c1.9-0.6,3.5-2.2,4.5-4.2     c1.4-3.1,1-6.8-1-9.1l-4.9,5.8l-0.4-1L439.4,169.4z"/>
			
				<path id="path5399-5_00000146492397288042737920000013107733019200700308_" inkscape:label="kani-passport-smile" class="st9" d="     M422,203.4c-0.5,0.2,6,5.5,5.4-2.3C427.4,200.6,425.8,204.2,422,203.4z"/>
			
				<g id="g364_00000145766538255888496250000011227311745978912939_" transform="matrix(1.1463308,0.13595947,-0.13595947,1.1463308,-22.801274,-2.4500009)" inkscape:label="kani-passport-eye-left">
				<path id="path5415-5_00000047780198180329838800000014928661917190226061_" class="st10" d="M397.4,128.1      c0.8,7.6,7.8,6.2,3.7,0.8C399.8,127.2,397.5,125.7,397.4,128.1z"/>
				<path id="path5417-5_00000014596387880616888640000010237999383140558214_" class="st11" d="M398.8,127.8      c-0.2,1.2,1.2,2.1,1.2,2.2C401.5,130.4,399.4,126.9,398.8,127.8z"/>
			</g>
			
				<g id="g374_00000108309744263560232860000015766503612251343291_" transform="matrix(1.1463308,0.13595947,-0.13595947,1.1463308,-22.801274,-2.4500009)" inkscape:label="kani-passport-eye-right">
				<path id="path5433-8_00000166656726676149355540000007933442812205974687_" class="st10" d="M406.3,122.8      c0.8,7.6,7.8,6.2,3.7,0.8C408.8,121.9,406.4,120.4,406.3,122.8z"/>
				<path id="path5435-2_00000165220053955801521770000015670844109766155180_" class="st11" d="M407.7,122.5      c-0.2,1.2,1.2,2.1,1.2,2.2C410.4,125.1,408.3,121.6,407.7,122.5z"/>
			</g>
		</g>
		<text transform="matrix(0.8747 -0.4846 0.4846 0.8747 420.9687 255.7609)" class="st12 st13 st18">PASSPORT</text>
		<text transform="matrix(0.8743 -0.4854 0.4854 0.8743 408.0077 251.6666)" class="st12 st15 st19">AUTHSTRALIA</text>
		<text transform="matrix(0.8731 -0.4875 0.4875 0.8731 364.1565 161.5579)" class="st12 st13 st20">KANIDM</text>
	</g>
	
		<g id="layer3_00000142157545935058898870000011811017581788736649_" transform="translate(-40.228511,-7.4385631)" inkscape:groupmode="layer" inkscape:label="kani-claw-right-overlay">
		<path id="path523_00000052808240024138191650000002175554508582283194_" inkscape:label="under-kani-claw" class="st7" d="    M417.4,265.7c13.4-11.9,16.1-26.8,12.2-43.6l-28.3,14.7L417.4,265.7z"/>
		<path id="path5732-74_00000152228457365083345840000014219999080584643994_" class="st1" d="M383.8,209.3    c-8.3,5.4-14.7,14-17.6,23.7c-3.8,12.8-1,25.8,7.3,33.9c-13.7,37.4-38.5,25.1-39,24.6c-4.2-3.3-19.8,13.9,2,20    c34.1,9.6,48.9-21,54.2-37c9.4,0.7,19.2-3,27-10.2c11.7-10.9,16.6-27.6,12.1-41.5l-31.8,16.1l0-4.9L383.8,209.3z"/>
		<path id="path5728_00000124133279986145110450000009528997083905920943_" class="st1" d="M383.8,209.3c-8.3,5.4-14.7,14-17.6,23.7    c-3.8,12.8-1,25.8,7.3,33.9c-13.7,37.4-38.5,25.1-39,24.6c-4.2-3.3-19.8,13.9,2,20c34.1,9.6,48.9-21,54.2-37    c9.4,0.7,19.2-3,27-10.2c11.7-10.9,16.6-27.6,12.1-41.5l-31.8,16.1l0-4.9L383.8,209.3z"/>
		<path id="path5732_00000160873633893156642950000000714586411987007910_" class="st1" d="M383.8,209.3c-8.3,5.4-14.7,14-17.6,23.7    c-3.8,12.8-1,25.8,7.3,33.9c-13.7,37.4-38.5,25.1-39,24.6c-4.2-3.3-19.8,13.9,2,20c34.1,9.6,48.9-21,54.2-37    c9.4,0.7,19.2-3,27-10.2c11.7-10.9,16.6-27.6,12.1-41.5l-31.8,16.1l0-4.9L383.8,209.3z"/>
	</g>
</g>
</svg>