<?xml version="1.0" encoding="utf-8"?>
<!-- Generator: Adobe Illustrator 27.7.0, SVG Export Plug-In . SVG Version: 6.00 Build 0)  -->
<svg version="1.1"
	 id="svg1" xmlns:inkscape="http://www.inkscape.org/namespaces/inkscape" xmlns:sodipodi="http://sodipodi.sourceforge.net/DTD/sodipodi-0.dtd" xmlns:svg="http://www.w3.org/2000/svg" inkscape:version="1.3 (0e150ed6c4, 2023-07-21)" sodipodi:docname="Kapowarr.svg"
	 xmlns="http://www.w3.org/2000/svg" xmlns:xlink="http://www.w3.org/1999/xlink" x="0px" y="0px" viewBox="0 0 512 512"
	 style="enable-background:new 0 0 512 512;" xml:space="preserve">
<style type="text/css">
	.st0{fill:none;stroke:#E5E5E5;stroke-width:74.25;stroke-miterlimit:3;}
	.st1{fill:#E5E5E5;stroke:#E5E5E5;stroke-width:57;stroke-miterlimit:3;}
	.st2{fill:none;stroke:#EBC700;stroke-width:9;stroke-miterlimit:3;}
	.st3{fill:#EBC700;stroke:#000000;stroke-width:5.6693;stroke-linecap:round;stroke-linejoin:round;stroke-miterlimit:3;}
</style>
<sodipodi:namedview  bordercolor="#000000" borderopacity="0.25" id="namedview1" inkscape:current-layer="lidarr-group-logo" inkscape:cx="259.88655" inkscape:cy="756.6765" inkscape:deskcolor="#d1d1d1" inkscape:document-units="mm" inkscape:pagecheckerboard="0" inkscape:pageopacity="0.0" inkscape:showpageshadow="2" inkscape:window-height="880" inkscape:window-maximized="1" inkscape:window-width="1503" inkscape:window-x="0" inkscape:window-y="32" inkscape:zoom="0.28281571" pagecolor="#ffffff">
	</sodipodi:namedview>
<g id="layer1" inkscape:groupmode="layer" inkscape:label="Layer 1">
	<g id="lidarr-group-logo" transform="matrix(0.26458333,0,0,0.26458333,16.502757,18.671125)" inkscape:label="kapowarr">
		<circle id="lidarr-black-circle" inkscape:label="black_circle" sodipodi:insensitive="true" cx="905.2" cy="897" r="733">
		</circle>
		<circle id="ellipse2" sodipodi:insensitive="true" class="st0" cx="905.2" cy="897" r="822.4">
		</circle>
		<circle id="ellipse3" sodipodi:insensitive="true" class="st1" cx="905.2" cy="897" r="482.7">
		</circle>
		<circle id="ellipse4" sodipodi:insensitive="true" class="st2" cx="905.2" cy="897" r="733">
		</circle>
		<circle id="ellipse7" cx="905.2" cy="897" r="268.2"/>
		<path id="path90" sodipodi:insensitive="true" class="st3" d="M1302.2,308.8c-0.6-0.5-46.9,57.2-110.8,116.9
			c-19.2,17.9-118.5,131.9-128.5,131.9c-43.9,0-19.7-207.5-28.4-210c-0.3-0.1-0.6,0.1-0.9,0.4c-17.9,18.3-76.5,103.8-86.8,126.2
			c-14.1,30.6-50.1,62.8-101.5,53.3c-26.9-5-65.6-31.3-79.8-81.9L742.7,377c-9.9,6.6-36.9,111.4-50.2,134.3
			c-14.5,25.1-25.9,68-33.2,68c-2.5,0-26.9-21.6-54.4-48c-27.4-26.4-60.9-57-74.3-68c-13.4-11-29.5-26.5-35.7-34.4
			c-5.6-7.2-8.5-10.8-9.6-11.3c-1.1-0.5-0.6,2.2,0.5,7.6c1.2,6,0.8,15.8-1,21.7c-2.7,9-0.2,16.5,12.8,45.3
			c59.7,132.5,24.4,46.4,56.5,143.4c5.2,15.6-24.2,30.2-58.6,33.1c-33,2.7-66.1-3.7-116.2-22.5c-22.3-8.4-54.6-20.5-71.8-26.9
			c-17.2-6.4-41.9-15.7-54.8-20.6c-12.9-4.9-24.5-7.9-25.7-6.8c-1.2,1.2-0.4,3.3,1.7,4.7c5.9,3.7,61.8,45.7,64,48
			c1,1.1,24.2,20,51.6,42.1c56.8,45.9,78.6,69.6,90.7,98.6c10.2,24.4,10.4,26.7,2.9,40.8c-7.4,14.1-23.7,20.7-59.5,24
			c-39.8,3.7-157.9,2.2-223-3c-30-2.4-55.3-3.5-56.2-2.6c-3.3,3.2,53.2,24.4,104.1,39.1c72.8,21,187.7,57.4,208.2,66
			c9.6,4,17.5,8.8,17.5,10.7c0,8.3-20.4,32.3-60.8,71.8l-41.3,38.9c-1,2.6,0.4,3.8,3.2,2.7c6-2.2,106.6-23.5,111.2-23.5l65.4,37.1
			c2.9,5.4,2.8,13.4-0.5,29.5c-2.5,12.2-5,27.9-5.8,34.9c-1.9,19.2-27.1,69.8-70.1,140.9c-21.2,35.1-41,67.1-43.8,71.1
			c-3.7,5.2-4.1,8.8-1.4,12.7c3.1,4.4,3.6,4.5,2.4,0.2c-1.5-5.6,54.6-60.7,60.2-59.1c1.8,0.5,2.9-0.4,2.4-1.9
			c-1.8-5.5,33.7-37.7,38.5-34.9c2.6,1.5,3.5,1.3,2-0.3c-3.8-4.1,8.3-16.7,13.4-13.8c2.3,1.3,2.8,0.9,1.3-0.8
			c-2.9-3.1,25.7-34.3,31.5-34.3c1.7,0,0,4.5-3.8,10c-8.6,12.3-56.1,96.9-56.1,100c0,1.2-6.5,12.6-14.3,25.3
			c-31.6,50.9-27.3,48.1,62.8-39.4c78.5-76.3,106.6-101.7,123.4-111.5c2.8-1.6,6.6,3.6,10.8,14.7c3.6,9.5,7,17.9,7.6,18.7
			s10.4-4.9,21.8-12.6c20.2-13.7,20.8-13.9,26-6.9c5.7,7.7,4.9,50.5-2,101.4c-15.3,112.7-19.5,157.5-21.3,224.7
			c-1.3,49.9-0.8,74.9,1.6,72.5c2-2,16.4-42.8,32.1-90.6c15.6-47.8,36.3-109.8,46-137.7c17.1-49.5,53.1-141.7,95.3-180.1l5.8,8.7
			c11.8,17.7,24.8,55.3,27.9,80.3c1.7,14.2,6.5,48.6,10.6,76.5c4.1,27.9,8.5,59.4,9.9,70c1.4,10.6,3.2,18.5,4.1,17.6
			c0.9-0.9,5.8-20.2,10.8-42.8s13.1-57.5,17.9-77.4c4.8-19.9,9.8-42.8,11.1-50.7c1.3-8,7.9-24,14.6-35.7
			c12.2-21.1,12.2-21.3,6.2-35.3c-3.3-7.8-7.2-14.1-8.7-14.1c-5.2-0.1-29.4,39.6-38,62.3c-6,15.9-8.7,20-8.8,13.4
			c-0.5-23-25.4-77.2-44.8-97.1c-13.6-14-37.2-25.6-52.2-25.7c-13.8-0.1-37.9,12.4-45.4,23.6l-6,9l-6.4-11.8
			c-7.2-13.3-23.2-23.8-43.5-28.5c-34.3-7.9-97.2,18.7-145.8,61.8c-8,7.1-13.8,11.3-12.8,9.3c0.9-2,5.3-11.1,9.7-20.3
			c14.2-29.6,20.6-60.5,15.7-76.5c-5.7-18.9-22.3-29.2-42.8-26.7l-15,1.9l1.4-18.9c1.9-24.4-9.6-47.3-30.9-61.8
			c-13.3-9.1-19.6-10.7-48.4-12.3l-33.1-1.9l14.3-18.5c16.1-20.9,25.4-44.3,25.4-63.8c0-16.6-15.8-48.3-28-56.2l-9.2-6l11.8-7.9
			c19.4-13,26.6-25.6,28.3-49.2c2.4-33.1-16.2-69.2-57-110.1c-20.1-20.1-20.4-20.7-8.1-15.7c18.8,7.7,72.1,14,95.3,11.2
			c26.6-3.2,51.6-14,65.4-28.3c11.1-11.4,22.9-39.2,22.9-53.7c0-5.7,1.6-6.9,6.4-5c3.5,1.4,14.9,4.3,25.3,6.5
			c17.4,3.6,20.5,3.2,38.9-5.7c21.2-10.2,37.5-28.6,48.8-55.1c11.9-26.1,23.1-41.5,39.4-68.2c40.7,58.4,70.3,99,106,99
			c13.2,0,37-12.8,48.4-26l9.4-11l9.2,17.6l9.2,17.6l25.6,2.4c14.1,1.3,33.9,5.7,44,9.8c10.8,4.4,24,6.9,32,6.2
			c22.1-2,73.2-37.5,118.1-81.8c21.8-21.5,39.6-38.7,39.6-38.2c0,0.5-2.7,6.2-5.9,12.7c-6.6,13-17.7,54.3-21.7,80.9l-2.6,17.2h15
			c14.2,0,15.2-0.7,18.6-13.6c2-7.5,4.7-20.1,6.1-28.1c1.4-8,9.1-30.9,17.1-50.8l14.6-36.3L1302.2,308.8z M1387.6,488.5
			c-13.4-0.5-49.2,10.7-80.9,39.9l-93.9,66.3l-11.6,6.9l18.8,10.6c36.2,20.4,57,60.3,62,119.3c2.3,27.7,2.8,28.8,13.9,33.4
			c12.5,5.2,66.9,6.4,95.3,2.1l17.6-2.7l-9.4,9.9c-14.8,15.6-27.6,44-27.6,61.1c0,20.8,5.3,33.3,21.1,49.3l13.3,13.5l-13.1,5.4
			c-31.5,13-52.9,42.5-49.9,69c0.9,8.2,4.5,20.6,7.8,27.6c6.7,13.9,31.4,40.9,47.8,52.3l10.5,7.2l-23.3,0.2
			c-41.3,0.3-65.8,20.1-68.7,55.8c-0.9,11.1-2.8,21.8-4.3,23.8c-1.5,2-2,9.6-1,17c1.7,13.2,2,13.4,21.7,15.8c11,1.4,20.7,1.8,21.5,1
			c0.8-0.8-0.2-8.5-2.1-17.2c-2-8.7-3-16.4-2.3-17c3-3,43,24.9,40.8,28.4c-1.5,2.3-0.7,2.8,1.9,1.3l217.3,148.6
			c6.4-3.9,87.1,74.8,38.9,12.9c-7.2-9.2-17-22.5-21.9-29.4l-73.5-83.6c1.1-1.8-0.1-2.5-2.7-1.5c-2.7,1-24.3-16.8-49.3-40.8
			c-24.5-23.4-53.1-50.4-63.5-60c-10.4-9.5-19-18.3-19-19.5c0-1.2,6.2-1.1,13.8,0.2c7.6,1.3,40.7,6.9,73.7,12.6
			c32.9,5.6,59.4,9.8,58.8,9.2c-6-5.9-51.4-33.5-116.8-71.1c-37.1-21.3-75.1-56.2-73-67c2.1-10.9,25.7-5.8,24.1-20.2
			c-0.6-5.5,23.8-32,1.4-12c-5.3,4.7-7.7,5.2-9.8,1.8c-1.7-2.7,0.4-7,5.3-10.9c8.3-6.6,62.8-28.6,71.2-28.7c2.6,0-1.8-5.5-9.9-12.2
			l-14.6-12.1l33-4.2c18.1-2.3,39.6-5.1,47.7-6.1c8.1-1.1,34.6-3.5,58.9-5.5c24.3-2,52.5-4.3,62.6-5.2c18-1.6,48.1-8.2,55-12
			c6.6-3.6-90-18.7-201.6-31.5c-42.1-4.8-79-10.1-82-11.8c-6.3-3.5,5.2-15.4,40.8-42.2c77.9-58.8,92.5-69.6,98.8-73.2
			c14.1-7.9,0-7.5-27,0.8c-118.7,36.6-150.8,45.4-160.7,44.1c-8.1-1-7.9-1.7,6.2-19.9c8-10.3,14.6-19.5,14.6-20.4
			c0-0.9-4.6-2.5-10.1-3.6c-5.6-1.1-15.1-4-21.2-6.5c-6.1-2.5-12.2-4.2-13.6-4c-4.9,1-21.4-21.8-21.4-29.5
			c0.1-19.7,23.1-70.4,51.6-113.5c11.6-14.5,12.5-33.7,16.4-51.3C1391,488.9,1389.5,488.6,1387.6,488.5L1387.6,488.5z M949,605.6
			c-6.8,0.3-13.8,1.2-20.8,2.7c-43.7,8.9-57.2,26.6-57.2,75.3l0,28l-7.7-15.3c-11.4-22.6-28.8-35.7-59.3-44.7
			c-36-10.5-60.6-8.6-79.4,6.3c-21,16.6-33.3,36.5-40.8,65.9c-5.4,20.9-7.3,24.8-9.2,18.1c-1.3-4.7-2.4-14-2.4-20.6
			c-0.1-17.4-5.7-25.2-21.3-29.5c-45.1-12.3-72.9,0.8-95.6,45.1c-14.5,28.4-20,93.4-12,142c2,12.3,5.1,50.1,6.8,83.9
			c3.6,69.4,8.4,85,32.7,106.1c28,24.2,90.2,41.2,116.5,22.5l2.8-134.3c-1.1-100.6-1.9-113-8.3-127.4c-8.2-18.5-6.7-24.5,2-7.9
			c3.2,6.2,6.8,11.2,7.8,11.2c1.1,0,1-10.2-0.1-22.7c-1.6-18.5-1.3-20.7,1.8-11.8c2.1,6,5.3,68.8,7.1,139.5
			c2.2,84.4,4.9,133.4,7.9,142.5c13.2,39.9,84.9,61.7,135.4,41.3c32-12.9,34.9-19.3,36.6-79.8c1.4-49.3-1.3-82.2-15.5-188.1
			c-2.6-19.3-3.4-34.3-1.7-33.3c1.7,1,3.2,5.4,3.3,9.8c0.2,4.4,2.3-1.4,4.8-12.8c2.5-11.4,5.3-21.5,6.1-22.3
			c0.9-0.9,1.7,24,1.9,55.2c0.2,42.1,2.4,69,8.7,103.9c4.7,26.3,9.2,69.5,10.3,97.9c1.7,46.5,2.6,51.7,10.7,62.4
			c10,13.2,34.5,30.6,51,36.4c16.9,5.9,54.3,5.2,70.4-1.3c19.7-8,45.6-27.2,52.1-39.7l-0.3-122.5c-1.6-84.7-3.1-107.3-9.2-132.9
			c-9.5-39.9-13.4-69-8.3-61.6c2.1,3,3.8,9.9,3.8,15.4c0.1,18.6,7.4,10.1,7.8-9.1c0.2-10.5,1.6-23.1,3.1-28.1
			c1.5-5,2.6,12.1,2.4,38.1c-0.2,32.3,1.7,55.8,6,74.9c3.5,15.3,8.9,61.7,12.1,103.1c6.7,88.2,7.2,90.7,19.8,104.1
			c15.9,17,36.2,25.2,66.9,27c23.1,1.4,30.4,0.4,42.9-5.9c12.9-6.5,35.9-29,32.8-32.1l22.4-40.2c8.9-22.6,7.7-45-5.8-113
			c-6.1-30.9-13.8-83.1-17-116c-7.8-80.3-15-117-28-144c-18.1-37.4-50.8-55.9-99.3-56.1c-24.9-0.1-32.2,1.4-50.3,10.3l-21.2,10.4
			l1,30.8l1,30.8l-11.4-19.5C1038.5,627.3,996.8,603.1,949,605.6L949,605.6z M1220.2,657.2l0.3,9.7c0.2,5.4,2.9,20.8,6.1,34.4
			c3.5,15,4.9,30.7,3.5,40c-1.3,8.4-3.6,16.1-5.1,17.1c-1.5,0.9-2.1-2.7-1.3-8.1c0.8-5.4-1-23.9-4.1-41.2c-3.5-20-4.4-35.1-2.4-41.7
			L1220.2,657.2z M1011.6,660.8c1.3,0.2,3.1,6,5.2,18.1c2.8,15.6,3.3,30.7,1.4,39.2c-4.8,22-6.3,19.4-8.1-14.3
			C1008.7,675.9,1009.4,660.5,1011.6,660.8z M1102.1,668.1l7.9,9.8c10.3,12.6,18.5,32.1,24.9,58.7c2.8,11.7,4.4,22,3.6,22.9
			c-1.5,1.5-28.1-63.6-33.7-82.3L1102.1,668.1z M815.3,671.7l7.6,8.6c4.3,4.8,7.6,13.6,7.6,20.1c0,6.4-2.5,14.8-5.6,18.6
			c-5.1,6.5-5.4,5.5-3.3-11.5c1.4-11.3,0.6-21.9-2-27.2L815.3,671.7z M906.4,674.3c2.4,1.4,6.9,6.6,10.5,13.4
			c2.9,5.6,9.5,21,14.5,34.2s8.4,24,7.5,24c-3.4,0-19.1-27.8-24.7-43.5c-3.2-9-7-19.4-8.6-23.2c-1.1-2.7-1.3-4.2-1-4.9
			C905,673.9,905.6,673.9,906.4,674.3L906.4,674.3z M716.9,701.8c2.3-0.6,12.1,13.5,17.7,26.5c8.2,18.7,8.9,29.9,1.3,20.9
			c-3.5-4.2-19.5-42-19.5-46.1C716.3,702.2,716.5,701.8,716.9,701.8z M1126.5,1121.1c-11.9,0.9-21.7,7.1-36.7,20.7
			c-17.2,15.5-40.6,26.8-63.4,30.4c-18.6,2.9-33.8,18.4-33.8,34.3c0,13.3,9.7,33.5,18.8,39.1c6.4,3.9,7,3.2,7-8.6
			c0-24.4,26.1-64.1,46.4-70.7c18.9-6.1,47.7-1.2,60.8,10.5c9.6,8.6,11.2,13,14.5,42.1c2,17.9,4.9,33.7,6.3,35.1
			c1.4,1.4,11.7,5,22.9,8.1c18.8,5.2,64.2,5.5,69.3,0.4c1.1-1.1,1.8-12.7,1.6-25.9c-0.3-17.7-2.8-28.8-9.6-42.6
			c-9.1-18.3-9.1-18.5-0.7-8.3c11,13.3,16.8,32.8,16.8,56.2c0,10.2,1,18.6,2.2,18.6c1.2,0,7-2.8,12.9-6.2
			c10.2-5.9,10.7-7.3,10.7-32.4c0-31.3-3.7-42.1-19.4-56.6c-7.5-7-9-9.5-4-6.9c21,10.9,37.9,49.1,32,72.5c-2.2,8.6-1.8,9.2,3.5,4.9
			c18.6-15.1,21.9-61.4,6.5-92.6c-10.7-21.7-21.7-26-45.8-17.8c-23.9,8.1-62.9,7.8-93.4-0.7
			C1141.5,1121.9,1133.6,1120.5,1126.5,1121.1z M1084.4,1173.1c-21.7-0.8-31.2,6.2-48.1,34.9c-11.2,19.2-13.1,30.5-6.9,41.9
			c3.4,6.2,8,7,42.3,7h38.5l17.8-0.8c3.4-0.7,5.9-4.2,5.6-7.8C1127.6,1177.4,1125.7,1174.6,1084.4,1173.1z M1279.2,1260.6
			c-1.6,0-8.6,3.1-15.6,7c-6.9,3.8-20.2,8.1-29.6,9.5c-9.3,1.4-17,3.1-17,3.8c0,1.7,49.1,71,79.4,112c13.2,17.9,29.9,41.2,36.9,51.6
			c7.1,10.5,13.8,19,15,19c2.8,0,3.1,0.9-30.1-92.4c-15.6-43.9-30.1-86.7-32.2-95.1C1283.9,1267.6,1280.8,1260.6,1279.2,1260.6z
			 M1122.5,1268.2c-13.5,0-29.4,0.9-38.7,2.6l-13.7,2.5c20.8,32.4,19.7,41.4,39.2,67.1c8.9,12.5,26.9,58.6,24.4,62.6
			c-1.3,2.1-0.8,2.8,1.1,1.7c4.6-2.8,46.8,86.8,44.1,93.7c-1.2,3-0.7,4.6,1.1,3.5c1.8-1.1,6.1,4.9,9.6,13.4
			c13.9,33.5,9.3-6.7-11.2-97c-5.4-23.9-12.1-54.9-14.9-68.9c-2.7-14-7.5-36.8-10.6-50.7c-3.1-14-5.7-26.6-5.7-28.1
			C1147.2,1268.9,1136,1268.1,1122.5,1268.2z"/>
	</g>
</g>
</svg>
