<?xml version="1.0" encoding="UTF-8" standalone="no"?>
<!-- Created with Inkscape (http://www.inkscape.org/) -->

<svg
   width="269.60999mm"
   height="269.60999mm"
   viewBox="0 0 269.60999 269.60999"
   version="1.1"
   id="svg1"
   inkscape:version="1.3 (0e150ed6c4, 2023-07-21)"
   sodipodi:docname="kapowarr.svg"
   xmlns:inkscape="http://www.inkscape.org/namespaces/inkscape"
   xmlns:sodipodi="http://sodipodi.sourceforge.net/DTD/sodipodi-0.dtd"
   xmlns="http://www.w3.org/2000/svg"
   xmlns:svg="http://www.w3.org/2000/svg">
  <sodipodi:namedview
     id="namedview1"
     pagecolor="#ffffff"
     bordercolor="#666666"
     borderopacity="1.0"
     inkscape:showpageshadow="2"
     inkscape:pageopacity="0.0"
     inkscape:pagecheckerboard="0"
     inkscape:deskcolor="#d1d1d1"
     inkscape:document-units="mm"
     inkscape:zoom="0.69219276"
     inkscape:cx="397.28818"
     inkscape:cy="561.25984"
     inkscape:window-width="1920"
     inkscape:window-height="991"
     inkscape:window-x="-9"
     inkscape:window-y="-9"
     inkscape:window-maximized="1"
     inkscape:current-layer="layer1" />
  <defs
     id="defs1">
    <marker
       style="overflow:visible"
       id="Triangle"
       refX="0"
       refY="0"
       orient="auto-start-reverse"
       inkscape:stockid="Triangle arrow"
       markerWidth="1"
       markerHeight="1"
       viewBox="0 0 1 1"
       inkscape:isstock="true"
       inkscape:collect="always"
       preserveAspectRatio="xMidYMid">
      <path
         transform="scale(0.5)"
         style="fill:context-stroke;fill-rule:evenodd;stroke:context-stroke;stroke-width:1pt"
         d="M 5.77,0 -2.88,5 V -5 Z"
         id="path135" />
    </marker>
    <marker
       style="overflow:visible"
       id="ColoredSquare"
       refX="0"
       refY="0"
       orient="auto"
       inkscape:stockid="Colored square"
       markerWidth="1"
       markerHeight="1"
       viewBox="0 0 1 1"
       inkscape:isstock="true"
       inkscape:collect="always"
       preserveAspectRatio="xMidYMid">
      <path
         transform="scale(0.5)"
         style="fill:context-fill;fill-rule:evenodd;stroke:context-stroke;stroke-width:2"
         d="M -5,-5 V 5 H 5 V -5 Z"
         id="path21" />
    </marker>
    <clipPath
       id="a">
      <circle
         cx="512"
         cy="512"
         r="410"
         fill="#989898"
         stroke-width="3.5906"
         id="circle1" />
    </clipPath>
  </defs>
  <g
     inkscape:label="Layer 1"
     inkscape:groupmode="layer"
     id="layer1">
    <circle
       id="lidarr-black-circle"
       cx="134.80522"
       cy="134.80522"
       r="108.47916"
       stroke-width="0.47625"
       style="display:inline;fill:#000000;fill-opacity:1"
       sodipodi:insensitive="true"
       inkscape:label="black_circle" />
    <path
       id="lidarr-honeycomb-a"
       d="M 852.12,33.49 875.58,47.93 898.8,33.49 V 4.62 L 875.58,-9.82 852.12,4.62 Z M 805.68,4.62 782.46,-9.82 759.26,4.62 v 28.87 l 23.2,14.44 23.22,-14.44 V 4.62 L 828.9,-9.82 852.12,4.62 m -46.44,28.87 23.22,14.44 23.22,-14.44 m -46.44,57.49 v 28.87 l 23.22,14.44 23.22,-14.44 V 90.98 L 828.9,76.8 805.68,90.98 782.46,76.8 759.26,90.98 m 92.86,28.87 23.46,14.44 23.22,-14.44 V 90.98 L 875.58,76.8 852.12,90.98 M 875.58,47.93 V 76.8 M 828.9,47.93 V 76.8 m 69.9,-72.18 23.22,-14.44 23.22,14.44 23.22,-14.44 23.22,14.44 23.2,-14.44 23.22,14.44 v 28.87 l 23.22,14.44 V 76.8 l -23.22,14.18 v 28.87 l 23.22,14.44 v 28.87 l -23.22,14.44 v 28.87 l 23.22,14.44 v 28.87 l -23.22,14.16 v 28.87 l 23.22,14.44 v 28.87 l -23.22,14.44 v 28.87 l 23.22,14.44 v 28.87 l -23.22,14.16 v 28.87 l 23.22,14.44 v 28.87 l -23.22,14.45 v 28.87 l 23.22,14.44 v 28.87 l -23.22,14.16 v 28.87 l 23.22,14.44 v 28.87 l -23.22,14.44 v 28.87 l 23.22,14.44 v 28.87 l -23.22,14.16 v 28.87 l 23.22,14.44 v 28.87 l -23.22,14.44 v 28.87 l 23.22,14.44 v 28.87 l -23.22,14.18 v 28.87 l 23.22,14.44 v 28.87 l -23.22,14.44 -23.22,-14.44 -23.2,14.44 -23.22,-14.44 -23.22,14.44 -23.22,-14.44 -23.22,14.44 -23.22,-14.44 -23.46,14.44 -23.22,-14.44 -23.22,14.44 -23.22,-14.44 -23.2,14.44 -23.22,-14.44 -23.22,14.44 -23.22,-14.44 -23.22,14.44 -23.22,-14.44 -23.46,14.44 -23.22,-14.44 -23.22,14.44 -23.22,-14.44 -23.2,14.44 -23.22,-14.44 -23.22,14.44 -23.22,-14.44 -23.22,14.44 -23.22,-14.44 -23.2,14.44 -23.22,-14.44 -23.22,14.44 -23.22,-14.44 -23.46,14.44 -23.22,-14.44 -23.22,14.44 -23.22,-14.44 -23.22,14.44 -23.22,-14.44 -23.22,14.44 -23.2,-14.44 -23.22,14.44 -23.22,-14.44 -23.46,14.44 -23.22,-14.44 -23.22,14.44 -23.22,-14.44 -23.22,14.44 -23.22,-14.44 V 999.12 L -77.32,984.68 V 955.81 L -54.1,941.63 V 912.76 L -77.32,898.32 V 869.45 L -54.1,855.01 V 826.14 L -77.32,811.7 V 782.83 L -54.1,768.67 V 739.8 L -77.32,725.36 V 696.49 L -54.1,682.05 V 653.18 L -77.32,638.74 V 609.87 L -54.1,595.71 V 566.84 L -77.32,552.4 V 523.53 L -54.1,509.08 V 480.21 L -77.32,465.77 V 436.9 L -54.1,422.74 V 393.87 L -77.32,379.43 V 350.56 L -54.1,336.12 V 307.25 L -77.32,292.81 V 263.94 L -54.1,249.78 V 220.91 L -77.32,206.47 V 177.6 L -54.1,163.16 V 134.29 L -77.32,119.85 V 90.98 L -54.1,76.8 V 47.93 L -77.32,33.49 V 4.62 L -54.1,-9.82 -30.88,4.62 -7.66,-9.82 15.56,4.62 38.78,-9.82 62,4.62 85.46,-9.82 108.68,4.62 131.9,-9.82 155.1,4.62 178.32,-9.82 201.54,4.62 224.76,-9.82 247.98,4.62 271.2,-9.82 294.42,4.62 317.88,-9.82 341.1,4.62 364.32,-9.82 387.54,4.62 410.74,-9.82 433.96,4.62 457.18,-9.82 480.4,4.62 503.62,-9.82 526.84,4.62 550.04,-9.82 573.26,4.62 596.48,-9.82 619.7,4.62 643.16,-9.82 666.38,4.62 689.6,-9.82 712.82,4.62 736.04,-9.82 759.26,4.62 m -46.44,0 v 28.87 l 23.22,14.44 23.22,-14.44 m -46.44,57.49 v 28.87 l 23.22,14.44 23.22,-14.44 V 90.98 L 736.04,76.8 712.82,90.98 689.6,76.8 666.38,90.98 M 782.46,47.93 V 76.8 M 736.04,47.93 V 76.8 m 23.22,100.79 v 28.87 l 23.2,14.44 23.22,-14.44 v -28.87 l -23.22,-14.44 -23.2,14.44 -23.22,-14.44 -23.22,14.44 v 28.87 l 23.22,14.44 23.22,-14.44 m 46.42,-86.61 -23.22,14.44 v 28.87 m -23.2,-43.31 23.2,14.44 m -46.42,0 v 28.87 m 0,57.74 v 28.87 l 23.22,14.16 23.2,-14.16 V 220.9 m 46.44,-86.61 v 28.87 l 23.22,14.44 23.46,-14.44 v -28.87 m -46.68,28.87 -23.22,14.44 m -23.22,72.18 23.22,14.16 23.22,-14.16 v -28.87 l -23.22,-14.44 m 46.44,-28.87 v 28.87 l 23.46,14.44 23.22,-14.44 V 177.6 l -23.22,-14.44 m 0,57.74 v 28.87 l 23.22,14.16 23.22,-14.16 V 220.9 L 898.8,206.46 m -69.9,14.44 23.22,-14.44 M 666.38,4.62 V 33.49 L 689.6,47.93 712.82,33.49 M 573.26,4.62 V 33.49 L 596.48,47.93 619.7,33.49 V 4.62 m 0,28.87 23.46,14.44 23.22,-14.44 M 619.7,90.98 v 28.87 l 23.46,14.44 23.22,-14.44 V 90.98 L 643.16,76.8 619.7,90.98 596.48,76.8 573.26,90.98 v 28.87 l 23.22,14.44 23.22,-14.44 M 596.48,47.93 V 76.8 M 689.6,47.93 V 76.8 M 643.16,47.93 V 76.8 M 526.84,4.62 v 28.87 l 23.2,14.44 23.22,-14.44 M 480.4,4.62 v 28.87 l 23.22,14.44 23.22,-14.44 M 503.62,76.8 480.4,90.98 v 28.87 l 23.22,14.44 23.22,-14.44 V 90.98 Z M 573.26,90.98 550.04,76.8 526.84,90.98 M 503.62,47.93 V 76.8 M 550.04,47.93 V 76.8 m 23.22,43.05 -23.22,14.44 v 28.87 l 23.22,14.44 23.22,-14.44 v -28.87 m -92.86,0 v 28.87 l 23.22,14.44 23.2,-14.44 m -46.42,86.61 23.22,14.16 23.2,-14.16 V 220.9 l -23.2,-14.44 -23.22,14.44 v 28.87 l -23.22,14.16 v 28.87 l 23.22,14.44 23.22,-14.44 v -28.87 m 23.2,-43.03 23.22,-14.44 v -28.87 m -46.42,-57.74 23.2,14.44 m -23.2,72.18 V 177.6 m 116.32,-43.31 v 28.87 l 23.22,14.44 23.22,-14.44 v -28.87 l -23.22,-14.44 m -93.12,86.61 23.22,14.44 23.22,-14.44 v -28.87 l -23.22,-14.44 m 46.68,0 -23.46,14.44 m 23.46,72.18 23.22,14.16 23.22,-14.16 V 220.9 l -23.22,-14.44 -23.22,14.44 v 28.87 l -23.46,14.16 v 28.87 l -23.22,14.44 v 28.87 l 23.22,14.44 23.46,-14.44 V 307.24 L 619.7,292.8 m -69.66,-43.03 23.22,14.16 23.22,-14.16 V 220.9 m 23.22,-14.44 23.46,14.44 m 23.22,-14.44 v -28.87 m 0,86.34 v 28.87 l 23.22,14.44 23.22,-14.44 V 263.93 L 689.6,249.77 m -69.9,100.77 v 28.87 l 23.46,14.44 23.22,-14.44 V 350.54 L 643.16,336.1 m 23.22,43.31 23.22,14.44 23.22,-14.44 V 350.54 L 689.6,336.1 666.38,350.54 m -23.22,-43.31 23.22,-14.44 m 23.22,14.44 v 28.87 m -93.12,-28.87 -23.22,-14.44 -23.22,14.44 v 28.87 l 23.22,14.44 23.22,-14.44 m -23.22,-43.31 v -28.87 m -69.64,72.18 -23.22,14.44 v 28.87 l 23.22,14.44 23.22,-14.44 v -28.87 z m 23.22,43.31 23.2,14.44 23.22,-14.44 v -28.87 m -69.64,-43.31 v 28.87 m 46.42,0 -23.2,14.44 m 0,-57.74 23.2,14.44 m 0,115.48 -23.2,14.16 v 28.87 l 23.2,14.44 23.22,-14.44 v -28.87 z m 0,-28.87 v 28.87 m -46.42,-28.87 v 28.87 l 23.22,14.16 m 0,28.87 -23.22,14.44 v 28.87 l 23.22,14.45 23.2,-14.45 v -28.87 m 116.34,-43.31 v 28.87 l 23.22,14.44 23.22,-14.44 V 436.88 L 689.6,422.72 Z m 23.22,-43.03 v 28.87 m -69.9,-43.31 -23.22,14.44 v 28.87 l 23.22,14.16 23.46,-14.16 v -28.87 m -69.9,71.9 23.22,14.44 23.22,-14.44 v -28.87 m 46.68,28.87 -23.22,14.44 v 28.87 l 23.22,14.45 23.22,-14.45 v -28.87 m -139.56,28.87 23.22,14.45 23.22,-14.45 v -28.87 m 23.22,-14.44 23.46,14.44 m 0,-57.47 23.22,14.16 m -93.12,-57.47 23.22,14.44 m 0,28.87 -23.22,14.16 m 302.31,-187.11 -23.46,14.16 v 28.87 l 23.46,14.44 23.22,-14.44 v -28.87 m -93.12,0 v 28.87 l 23.22,14.44 23.22,-14.44 m -46.44,86.61 23.22,14.44 23.22,-14.44 v -28.87 l -23.22,-14.44 -23.22,14.44 v 28.87 l -23.22,14.44 v 28.87 m 69.66,-43.31 23.46,14.44 23.22,-14.44 v -28.87 l -23.22,-14.44 -23.46,14.44 m 23.46,-43.31 v 28.87 m -46.68,-28.87 v 28.87 m -69.64,-72.18 v 28.87 l 23.2,14.44 23.22,-14.44 m -92.86,0 23.22,14.44 23.22,-14.44 m -46.44,86.61 23.22,14.44 23.22,-14.44 v -28.87 l -23.22,-14.44 -23.22,14.44 m 92.86,0 -23.22,-14.44 -23.2,14.44 m 23.2,-43.31 v 28.87 m -46.42,-28.87 v 28.87 m 23.22,100.77 v 28.87 l 23.2,14.44 23.22,-14.44 v -28.87 l -23.22,-14.16 -23.2,14.16 -23.22,-14.16 -23.22,14.16 m 23.22,-43.03 v 28.87 m 23.22,43.03 -23.22,14.44 v 28.87 l 23.22,14.45 23.2,-14.45 v -28.87 m -69.64,-14.44 23.22,14.44 M 875.56,393.83 V 422.7 L 898.78,436.86 922,422.7 v -28.87 l -23.22,-14.44 m -23.22,43.31 -23.46,14.16 v 28.87 l 23.46,14.44 23.22,-14.44 v -28.87 m -69.9,-43.03 v 28.87 l 23.22,14.16 m -23.22,-14.16 -23.22,14.16 m 46.44,28.87 -23.22,14.44 v 28.87 l 23.22,14.45 23.46,-14.45 v -28.87 m -69.9,-14.44 23.22,14.44 m -69.64,-100.77 23.2,14.44 M 712.8,177.58 689.58,163.14 m 0,57.74 23.22,-14.44 M 689.58,134.26 712.8,119.82 M 828.88,249.74 852.1,263.9 M 736.02,249.74 712.8,263.9 m -93.12,0 -23.22,-14.16 M 1014.85,47.9 991.65,33.46 968.43,47.9 v 28.87 l 23.22,14.18 23.2,-14.18 V 47.9 l 23.22,-14.44 m 0,57.49 -23.22,-14.18 M 991.65,4.59 v 28.87 m -92.88,0 23.22,14.44 23.22,-14.44 V 4.59 m -46.44,115.23 23.22,14.44 23.22,-14.44 V 90.95 L 921.99,76.77 898.77,90.95 m 46.44,0 23.22,-14.18 M 921.99,47.9 v 28.87 m 23.22,-43.31 23.22,14.44 m 0,86.36 v 28.87 l 23.22,14.44 23.2,-14.44 v -28.87 l -23.2,-14.44 -23.22,14.44 -23.22,-14.44 m -23.22,101.05 23.22,-14.44 v -28.87 l -23.22,-14.44 -23.22,14.44 m 23.22,-43.31 v 28.87 m 46.44,57.74 v 28.87 l 23.22,14.16 23.2,-14.16 v -28.87 l -23.2,-14.44 -23.22,14.44 -23.22,-14.44 m 46.44,-28.87 v 28.87 m -46.44,-28.87 23.22,-14.44 m 69.64,14.44 -23.22,-14.44 m 0,-28.87 23.22,-14.44 m -23.22,101.05 23.22,-14.44 M 991.65,90.93 v 28.87 m 0,144.08 v 28.87 l 23.2,14.44 23.22,-14.44 m -46.42,0 -23.22,14.44 v 28.87 l 23.22,14.44 23.2,-14.44 v -28.87 m 23.22,43.31 -23.22,-14.44 m -116.08,-43.31 23.22,14.44 23.22,-14.44 v -28.87 l -23.22,-14.16 m 0,144.08 23.22,-14.44 v -28.87 l -23.22,-14.44 -23.22,14.44 m 92.88,0 v 28.87 l 23.2,14.44 23.22,-14.44 m -92.86,-28.87 23.22,-14.44 m -46.44,-28.87 v 28.87 m 23.22,-43.31 23.22,14.44 m -46.44,115.48 23.22,14.16 23.22,-14.16 v -28.87 l -23.22,-14.44 m 0,57.47 v 28.87 l 23.22,14.44 23.22,-14.44 v -28.87 l -23.22,-14.16 m -69.66,43.03 23.22,14.44 23.22,-14.44 m -23.22,14.44 V 509 l 23.22,14.45 23.22,-14.45 v -28.87 m 23.22,-43.31 23.2,-14.16 v -28.87 m 23.22,43.03 -23.22,-14.16 m -23.2,43.03 23.2,14.44 23.22,-14.44 m -69.64,43.31 23.22,14.45 23.2,-14.45 v -28.87 m -46.42,-86.34 23.22,-14.44 m 46.42,-115.48 -23.22,-14.16 m -69.64,14.16 23.22,-14.16 m 46.42,317.04 -23.2,-14.44 -23.22,14.44 v 28.87 l 23.22,14.16 23.2,-14.16 v -28.87 l 23.22,-14.44 m 0,57.47 -23.22,-14.16 m -23.2,-72.18 v 28.87 m -46.44,-28.87 v 28.87 l 23.22,14.44 m -69.66,-14.44 -23.22,14.44 v 28.87 l 23.22,14.16 23.22,-14.16 v -28.87 l -23.22,-14.44 v -28.87 l -23.22,-14.45 m 69.66,43.32 -23.22,14.44 m 46.44,28.87 -23.22,14.16 v 28.87 l 23.22,14.44 23.22,-14.44 v -28.87 m -116.1,-14.16 -23.46,14.16 v 28.87 l 23.46,14.44 23.22,-14.44 v -28.87 m 23.22,-14.16 23.22,14.16 m 23.22,72.18 -23.22,14.44 v 28.87 l 23.22,14.44 23.22,-14.44 V 696.4 Z m 0,-28.87 v 28.87 m -23.22,-43.31 -23.22,14.44 v 28.87 l 23.22,14.44 m -23.22,-14.44 -23.22,14.44 v 28.87 l 23.22,14.44 23.22,-14.44 m -23.22,14.44 v 28.87 l 23.22,14.16 23.22,-14.16 v -28.87 m 23.22,-43.31 23.2,-14.44 v -28.87 l -23.2,-14.44 m 46.42,57.74 -23.22,-14.44 m -46.42,86.61 23.22,14.16 23.2,-14.16 v -28.87 l -23.2,-14.44 m 23.2,14.44 23.22,-14.44 m -139.3,-86.61 23.22,14.44 m 92.86,0 23.22,-14.44 m -46.42,144.08 v 28.87 l 23.2,14.44 23.22,-14.44 m 0,57.74 -23.22,-14.44 -23.2,14.44 v 28.87 l 23.2,14.44 23.22,-14.44 m -23.22,-43.31 v -28.87 m -23.2,-14.44 -23.22,14.44 v 28.87 l 23.22,14.44 m -69.66,-100.77 -23.22,14.16 v 28.87 l 23.22,14.44 23.22,-14.44 v -28.87 m -23.22,129.92 23.22,-14.44 v -28.87 l -23.22,-14.44 -23.22,14.44 v 28.87 l 23.22,14.44 v 28.87 l 23.22,14.18 23.22,-14.18 m -23.22,-43.31 23.22,14.44 23.22,-14.44 m -23.22,-43.31 -23.22,14.44 m 0,-57.74 23.22,14.44 m -46.44,0 v 28.87 m 46.44,57.74 v 28.87 l 23.22,14.18 23.2,-14.18 V 912.64 M 898.77,898.2 875.55,912.64 v 28.87 l 23.22,14.18 23.22,-14.18 m -23.22,14.18 v 28.87 L 921.99,999 945.21,984.56 V 955.69 M 921.99,999 v 28.87 m 92.86,0 V 999 L 991.65,984.56 968.43,999 v 28.87 m 23.22,-72.18 v 28.87 M 968.43,999 945.21,984.56 m 92.86,-28.87 -23.22,-14.18 m 0,57.49 23.22,-14.44 m 0,-201.84 -23.22,-14.16 M 852.09,523.44 v 28.87 l 23.46,14.44 m -46.68,-57.76 -23.22,14.45 v 28.87 l 23.22,14.44 23.22,-14.44 m 0,57.47 -23.22,-14.16 -23.22,14.16 v 28.87 l 23.22,14.44 23.22,-14.44 m -23.22,-43.03 v -28.87 m -69.64,-43.31 v 28.87 l 23.2,14.44 23.22,-14.44 m -69.64,-43.32 -23.22,14.45 v 28.87 l 23.22,14.44 23.22,-14.44 m -46.44,86.34 23.22,14.44 23.22,-14.44 v -28.87 l -23.22,-14.16 -23.22,14.16 v 28.87 l -23.22,14.44 v 28.87 m 69.66,-72.18 23.2,-14.16 v -28.87 m -46.42,0 v 28.87 m 23.22,100.77 v 28.87 l 23.2,14.44 23.22,-14.44 v -28.87 l -23.22,-14.44 z m 46.42,-57.74 -23.22,14.44 v 28.87 m -46.42,-28.87 v 28.87 l 23.22,14.44 m -23.22,-14.44 -23.22,14.44 v 28.87 l 23.22,14.44 23.22,-14.44 m -23.22,14.44 v 28.87 l 23.22,14.16 23.2,-14.16 v -28.87 m 93.12,-86.61 v 28.87 l 23.22,14.44 m -23.22,-14.44 -23.46,14.44 v 28.87 l 23.46,14.44 23.22,-14.44 m -93.12,-28.87 23.22,-14.44 V 653.1 m 23.22,72.18 -23.22,14.44 v 28.87 l 23.22,14.16 23.46,-14.16 v -28.87 m -69.9,-14.44 23.22,14.44 m 23.22,-43.31 -23.22,-14.44 m -69.64,-43.31 23.2,14.44 m 0,-57.47 23.22,14.16 M 643.13,509 619.67,523.45 v 28.87 l 23.46,14.44 23.22,-14.44 v -28.87 m -23.22,43.31 v 28.87 l 23.22,14.16 23.22,-14.16 v -28.87 l -23.22,-14.44 m -93.12,-28.87 v 28.87 l 23.22,14.44 23.22,-14.44 m 23.46,43.31 -23.46,14.16 v 28.87 l 23.46,14.44 23.22,-14.44 v -28.87 m -46.68,0 -23.22,-14.16 -23.22,14.16 v 28.87 l 23.22,14.44 23.22,-14.44 m -23.22,-43.03 v -28.87 m -23.22,-14.44 -23.22,14.44 v 28.87 l 23.22,14.16 M 503.59,509 480.37,523.45 v 28.87 l 23.22,14.44 23.22,-14.44 v -28.87 m 0,86.34 -23.22,-14.16 -23.22,14.16 v 28.87 l 23.22,14.44 23.22,-14.44 v -28.87 l 23.2,-14.16 m 0,-28.87 -23.2,-14.44 m -23.22,14.44 v 28.87 m 46.42,86.34 -23.2,14.44 v 28.87 l 23.2,14.44 23.22,-14.44 v -28.87 z m 23.22,-43.31 -23.22,14.44 v 28.87 M 503.59,653.1 v 28.87 l 23.22,14.44 m 0,28.87 -23.22,14.44 v 28.87 l 23.22,14.16 23.2,-14.16 v -28.87 m 162.77,-43.31 -23.22,-14.44 -23.22,14.44 v 28.87 l 23.22,14.44 23.22,-14.44 M 596.44,653.1 v 28.87 l 23.22,14.44 23.46,-14.44 V 653.1 m -46.68,115.48 23.22,14.16 23.46,-14.16 v -28.87 l -23.46,-14.44 -23.22,14.44 v 28.87 l -23.22,14.16 v 28.87 l 23.22,14.44 23.22,-14.44 m 23.46,-43.03 23.22,14.16 23.22,-14.16 v -28.87 m -46.44,0 23.22,-14.44 M 619.66,696.4 v 28.87 m 46.68,-28.87 -23.22,-14.44 m 23.22,-43.31 23.22,14.44 m -93.12,28.87 -23.22,14.44 m 0,28.87 23.22,14.44 M 526.8,638.66 550,653.1 m 116.34,158.52 -23.22,14.44 v 28.87 l 23.22,14.44 23.22,-14.44 v -28.87 l -23.22,-14.44 v -28.87 m -46.68,0 v 28.87 l 23.46,14.44 m 0,28.87 -23.46,14.44 v 28.87 l 23.46,14.44 23.22,-14.44 v -28.87 m -46.68,0 -23.22,-14.44 -23.22,14.44 v 28.87 l 23.22,14.44 23.22,-14.44 m 23.46,14.44 v 28.87 l 23.22,14.18 23.22,-14.18 v -28.87 l -23.22,-14.44 m -69.9,-43.31 V 826.06 M 526.8,782.75 v 28.87 l 23.2,14.44 23.22,-14.44 m -69.64,-43.03 -23.22,14.16 v 28.87 l 23.22,14.44 23.22,-14.44 m -23.22,43.31 -23.22,14.44 v 28.87 l 23.22,14.44 23.22,-14.44 v -28.87 z m 69.64,43.31 -23.22,14.44 v 28.87 l 23.22,14.18 23.22,-14.18 V 912.68 M 550,826.07 v 28.87 l 23.22,14.44 m -69.64,-43.31 v 28.87 m 23.22,14.44 23.2,-14.44 m 0,57.74 -23.2,-14.44 m -23.22,14.44 v 28.87 l 23.22,14.18 23.2,-14.18 m 0,86.36 v -28.87 l -23.2,-14.44 -23.22,14.44 v 28.87 m 92.86,0 V 999.04 L 573.22,984.6 550,999.04 M 526.8,984.6 v -28.87 m 46.42,28.87 v -28.87 m 23.22,43.31 23.22,-14.44 v -28.87 l -23.22,-14.18 m 46.68,0 -23.46,14.18 m 23.46,72.18 V 999.04 L 619.66,984.6 M 736,1027.91 v -28.87 l -23.22,-14.44 -23.22,14.44 v 28.87 m -23.22,-72.18 v 28.87 l 23.22,14.44 m -46.44,0 23.22,-14.44 M 852.08,782.76 v 28.87 l 23.46,14.44 23.22,-14.44 m -69.9,-43.03 -23.22,14.16 v 28.87 l 23.22,14.44 23.22,-14.44 m -23.22,101.05 23.22,-14.44 v -28.87 l -23.22,-14.44 -23.22,14.44 v 28.87 l 23.22,14.44 v 28.87 l 23.22,14.18 23.46,-14.18 m 23.22,-72.18 -23.22,-14.44 -23.46,14.44 m 0,28.87 23.46,14.44 m 0,-57.74 v -28.87 m -46.68,0 v 28.87 m -69.64,-72.18 v 28.87 l 23.2,14.44 23.22,-14.44 M 736,768.6 712.78,782.76 v 28.87 l 23.22,14.44 23.22,-14.44 m -46.44,57.74 v 28.87 L 736,912.68 759.22,898.24 V 869.37 L 736,854.93 712.78,869.37 689.56,854.93 m 116.08,14.44 -23.22,-14.44 -23.2,14.44 m 0,28.87 23.2,14.44 23.22,-14.44 m -23.22,-72.18 v 28.87 M 736,826.06 v 28.87 m 0,57.74 v 28.87 l 23.22,14.18 23.2,-14.18 V 912.67 M 736,941.54 712.78,955.72 v 28.87 m 69.64,43.31 V 999.03 L 759.22,984.59 736,999.03 m 23.22,-14.44 v -28.87 m 23.2,-14.18 23.22,14.18 23.22,-14.18 m -23.22,14.18 v 28.87 l 23.22,14.44 23.22,-14.44 v -28.87 m -23.22,43.31 v 28.87 m 46.68,0 v -28.87 l -23.46,-14.44 m -69.66,14.44 23.22,-14.44 M 712.78,609.8 689.56,595.64 m 0,-28.87 23.22,-14.44 m -23.22,360.34 23.22,-14.44 m -23.22,-72.18 23.22,-14.44 m 0,-28.87 -23.22,-14.16 m 116.08,14.16 -23.22,-14.16 M 573.22,782.74 550,768.58 m 162.77,187.13 -23.22,-14.18 m 185.97,57.49 23.22,-14.44 m 0,-201.84 -23.22,-14.16 M 921.96,509 898.74,523.45 m -185.97,0 L 689.55,509 M 805.63,523.45 782.41,509 M 1038.05,523.45 1014.83,509 M 619.66,523.45 596.44,509 M 15.53,4.56 V 33.43 L 38.75,47.87 61.97,33.43 V 4.56 m 0,28.87 23.46,14.44 23.22,-14.44 V 4.56 m -139.56,0 V 33.43 L -7.69,47.87 15.53,33.43 M -7.69,76.74 -30.91,90.92 v 28.87 l 23.22,14.44 23.22,-14.44 V 90.92 Z m 23.22,43.05 23.22,14.44 23.22,-14.44 V 90.92 L 38.75,76.74 15.53,90.92 m 46.44,28.87 23.46,14.44 23.22,-14.44 V 90.92 L 85.43,76.74 61.97,90.92 M -7.69,47.87 V 76.74 M 38.75,47.87 V 76.74 M 85.43,47.87 V 76.74 M -54.13,47.87 -30.91,33.43 m 0,57.49 -23.22,-14.18 m 0,144.1 23.22,-14.44 v -28.87 l -23.22,-14.44 m 0,-28.87 23.22,-14.44 m 69.66,43.31 -23.22,14.44 V 206.4 L 38.75,220.84 61.97,206.4 V 177.53 L 38.75,163.09 v -28.87 m 23.22,72.18 23.46,14.44 23.22,-14.44 V 177.53 L 85.43,163.09 61.97,177.53 m 23.46,-43.31 v 28.87 M -7.69,134.22 v 28.87 l 23.22,14.44 m 0,28.87 -23.22,14.44 v 28.87 l 23.22,14.16 23.22,-14.16 v -28.87 m 46.68,0 v 28.87 l 23.22,14.16 23.22,-14.16 V 220.84 L 108.65,206.4 M -7.69,163.09 -30.91,177.53 m 0,28.87 23.22,14.44 m 69.66,71.9 -23.22,14.44 v 28.87 l 23.22,14.44 23.46,-14.44 v -28.87 z m 23.46,-43.03 -23.46,14.16 v 28.87 m -69.66,-43.03 -23.22,14.16 v 28.87 l 23.22,14.44 23.22,-14.44 v -28.87 m 0,86.61 -23.22,-14.44 -23.22,14.44 v 28.87 l 23.22,14.44 23.22,-14.44 v -28.87 l 23.22,-14.44 m 23.22,14.44 v 28.87 l 23.46,14.44 23.22,-14.44 V 350.48 L 85.43,336.04 M -7.69,307.17 v 28.87 M 38.75,307.17 15.53,292.73 m -69.66,14.44 23.22,-14.44 m 0,57.74 -23.22,-14.44 m 0,144.08 23.22,-14.44 V 436.8 l -23.22,-14.16 m 116.1,14.16 v 28.87 l 23.46,14.44 23.22,-14.44 V 436.8 L 85.43,422.64 Z m 23.46,-43.03 v 28.87 M 61.97,379.33 38.75,393.77 v 28.87 L 61.97,436.8 M -7.69,393.77 v 28.87 l 23.22,14.16 23.22,-14.16 m -46.44,57.47 v 28.87 l 23.22,14.45 23.22,-14.45 V 480.11 L 15.53,465.67 Z m 93.12,0 v 28.87 l 23.22,14.45 23.22,-14.45 v -28.87 l -23.22,-14.44 m -69.9,14.44 23.22,-14.44 M 15.53,436.8 v 28.87 m 0,-86.34 23.22,14.44 m -46.44,28.87 -23.22,14.16 m 0,28.87 23.22,14.44 m -46.44,-86.34 23.22,-14.44 M 61.97,263.85 38.75,249.69 m -69.66,14.16 -23.22,-14.16 M 433.92,4.54 v 28.87 l 23.22,14.44 23.22,-14.44 M 387.5,4.54 v 28.87 l 23.2,14.44 23.22,-14.44 M 410.7,76.72 387.5,90.9 v 28.87 l 23.2,14.44 23.22,-14.44 V 90.9 L 410.7,76.72 V 47.85 M 480.36,90.9 457.14,76.72 433.92,90.9 M 457.14,76.72 V 47.85 M 341.06,4.54 V 33.41 L 364.28,47.85 387.5,33.41 M 294.38,4.54 v 28.87 l 23.46,14.44 23.22,-14.44 M 294.38,90.9 v 28.87 l 23.46,14.44 23.22,-14.44 V 90.9 L 317.84,76.72 294.38,90.9 271.16,76.72 247.94,90.9 M 387.5,90.9 364.28,76.72 341.06,90.9 M 317.84,47.85 v 28.87 m 46.44,-28.87 v 28.87 m 23.22,43.05 -23.22,14.44 v 28.87 l 23.22,14.44 23.2,-14.44 v -28.87 m -69.64,-14.44 23.22,14.44 m 0,28.87 -23.22,14.44 v 28.87 l 23.22,14.44 23.22,-14.44 v -28.87 m -93.12,-57.74 -23.22,14.44 v 28.87 l 23.22,14.44 23.46,-14.44 v -28.87 m 23.22,72.18 -23.22,14.44 v 28.87 l 23.22,14.16 23.22,-14.16 v -28.87 m -69.9,-43.31 v 28.87 l 23.46,14.44 m 23.22,-43.31 -23.22,-14.44 m 116.08,-43.31 23.22,14.44 23.22,-14.44 m -23.22,43.31 -23.22,14.44 v 28.87 l 23.22,14.44 23.22,-14.44 v -28.87 l -23.22,-14.44 v -28.87 m -46.44,28.87 23.22,14.44 m 0,28.87 -23.22,14.44 v 28.87 l 23.22,14.16 23.22,-14.16 v -28.87 m -46.44,0 -23.2,-14.44 M 247.94,4.56 v 28.87 l 23.22,14.44 23.22,-14.44 M 201.5,4.56 v 28.87 l 23.22,14.44 23.22,-14.44 M 201.5,90.92 v 28.87 l 23.22,14.44 23.22,-14.44 V 90.92 L 224.72,76.74 201.5,90.92 178.28,76.74 155.06,90.92 M 271.16,47.87 V 76.74 M 224.72,47.87 V 76.74 M 155.06,4.56 v 28.87 l 23.22,14.44 23.22,-14.44 m -92.86,0 23.22,14.44 23.2,-14.44 m -46.42,86.36 23.22,14.44 23.2,-14.44 V 90.92 L 131.86,76.74 108.64,90.92 M 178.28,47.87 V 76.74 M 131.86,47.87 v 28.87 m 23.2,43.05 23.22,14.44 23.22,-14.44 m -23.22,14.44 v 28.87 l 23.22,14.44 23.22,-14.44 v -28.87 m -46.44,28.87 -23.22,14.44 v 28.87 l 23.22,14.44 23.22,-14.44 v -28.87 m -92.86,0 23.22,-14.44 v -28.87 m 46.42,86.61 v 28.87 l 23.22,14.16 23.22,-14.16 V 220.84 L 201.5,206.4 m -46.44,-28.87 -23.2,-14.44 m 0,57.74 23.2,-14.44 m 92.88,-86.61 23.22,14.44 m 0,28.87 -23.22,14.44 v 28.87 l 23.22,14.44 23.22,-14.44 m -69.66,43.31 23.22,14.16 23.22,-14.16 v -28.87 m -46.44,-57.74 23.22,14.44 m -23.22,43.31 23.22,-14.44 m 0,57.47 v 28.87 l 23.22,14.44 23.22,-14.44 v -28.87 l -23.22,-14.16 m -69.66,14.16 v 28.87 l 23.22,14.44 23.22,-14.44 m -46.44,86.61 23.22,14.44 23.22,-14.44 v -28.87 l -23.22,-14.44 -23.22,14.44 v 28.87 l -23.22,14.44 v 28.87 m 69.66,-43.31 23.22,14.44 23.22,-14.44 v -28.87 l -23.22,-14.44 -23.22,14.44 m 23.22,-43.31 v 28.87 m -46.44,-28.87 v 28.87 m -46.44,-86.34 -23.22,14.16 v 28.87 l 23.22,14.44 23.22,-14.44 m -92.86,-28.87 v 28.87 l 23.22,14.44 23.2,-14.44 m -46.42,86.61 23.22,14.44 23.2,-14.44 v -28.87 l -23.2,-14.44 -23.22,14.44 m 92.86,0 -23.22,-14.44 -23.22,14.44 m -23.2,-43.31 v 28.87 m 46.42,-28.87 v 28.87 m -23.22,100.77 v 28.87 l 23.22,14.44 23.22,-14.44 v -28.87 l -23.22,-14.16 -23.22,14.16 -23.2,-14.16 -23.22,14.16 m 23.22,-43.03 v 28.87 m 46.42,57.47 v 28.87 l 23.22,14.45 23.22,-14.45 V 480.12 L 201.5,465.68 m -69.64,14.44 23.2,-14.44 m 116.1,-71.9 v 28.87 l 23.22,14.16 23.46,-14.16 v -28.87 l -23.46,-14.44 m -23.22,43.31 -23.22,14.16 v 28.87 l 23.22,14.44 23.22,-14.44 v -28.87 m -46.44,0 -23.22,-14.16 -23.22,14.16 m 23.22,-43.03 v 28.87 m 46.44,57.47 v 28.87 l 23.22,14.45 23.46,-14.45 v -28.87 l -23.46,-14.44 m -69.66,14.44 23.22,-14.44 m -92.88,-86.34 23.22,14.44 M 433.92,263.86 v 28.87 l 23.22,14.44 23.22,-14.44 m -46.44,0 -23.22,14.44 v 28.87 l 23.22,14.44 23.22,-14.44 v -28.87 m -46.44,28.87 -23.2,14.44 v 28.87 l 23.2,14.44 23.22,-14.44 v -28.87 m 46.44,0 -23.22,-14.44 M 341.06,263.86 v 28.87 l 23.22,14.44 23.22,-14.44 V 263.86 L 364.28,249.7 m -69.9,43.03 23.46,14.44 23.22,-14.44 m -23.22,101.05 23.22,-14.44 v -28.87 l -23.22,-14.44 -23.46,14.44 m 93.12,0 -23.22,-14.44 -23.22,14.44 m -23.22,-43.31 v 28.87 m 46.44,-28.87 v 28.87 m 23.22,43.31 -23.22,14.44 v 28.87 l 23.22,14.16 23.2,-14.16 v -28.87 m -46.42,28.87 -23.22,14.16 v 28.87 l 23.22,14.44 23.22,-14.44 v -28.87 m -23.22,43.31 v 28.87 l 23.22,14.45 23.2,-14.45 v -28.87 l -23.2,-14.44 m -46.44,-28.87 -23.22,-14.16 m 0,57.47 23.22,-14.44 m 116.08,-43.03 -23.22,14.16 v 28.87 l 23.22,14.44 23.22,-14.44 v -28.87 l -23.22,-14.16 v -28.87 l -23.22,-14.44 m 0,57.47 -23.22,-14.16 m 0,57.47 23.22,-14.44 m -23.22,43.31 23.22,14.45 23.22,-14.45 v -28.87 m 0,-86.34 23.22,-14.44 m -139.3,0 23.22,14.44 M 410.7,307.17 387.5,292.73 M 155.06,263.86 131.86,249.7 m 348.5,14.16 -23.22,-14.16 m -139.3,0 -23.46,14.16 M 410.7,249.7 387.5,263.86 m -302.07,43.31 23.22,-14.44 m 325.27,230.7 v 28.87 l 23.22,14.44 23.22,-14.44 m -46.44,0 -23.22,14.44 v 28.87 l 23.22,14.16 23.22,-14.16 v -28.87 m -46.44,28.87 -23.2,14.16 v 28.87 l 23.2,14.44 23.22,-14.44 v -28.87 m 46.44,0 -23.22,-14.16 M 387.5,523.43 v 28.87 l 23.2,14.44 m -23.2,-14.44 -23.22,14.44 v 28.87 l 23.22,14.16 m -23.22,-43.03 -23.22,-14.44 -23.22,14.44 v 28.87 l 23.22,14.16 23.22,-14.16 M 341.06,552.3 v -28.87 l -23.22,-14.45 m -23.46,14.45 v 28.87 l 23.46,14.44 m 0,28.87 -23.46,14.16 v 28.87 l 23.46,14.44 23.22,-14.44 v -28.87 m 0,86.61 v 28.87 l 23.22,14.44 23.22,-14.44 v -28.87 l -23.22,-14.44 -23.22,14.44 -23.22,-14.44 -23.46,14.44 v 28.87 l 23.46,14.44 23.22,-14.44 m 46.44,-86.61 -23.22,14.44 v 28.87 m -46.44,-28.87 v 28.87 m -23.46,43.31 -23.22,14.44 v 28.87 l 23.22,14.16 23.46,-14.16 V 739.7 m 46.44,0 v 28.87 l 23.22,14.16 23.2,-14.16 V 739.7 l -23.2,-14.44 m 69.64,-43.31 -23.22,14.44 v 28.87 l 23.22,14.44 23.22,-14.44 v -28.87 l -23.22,-14.44 v -28.87 l -23.22,-14.44 m -23.22,14.44 v 28.87 l 23.22,14.44 m -23.22,43.31 23.22,-14.44 m -23.22,43.31 23.22,14.16 23.22,-14.16 V 739.7 m -116.08,-101.05 23.22,14.44 m 46.42,28.87 -23.2,14.44 m 69.64,-43.31 23.22,-14.44 m -209.2,-129.66 -23.22,14.45 v 28.87 l 23.22,14.44 23.22,-14.44 M 201.5,523.44 v 28.87 l 23.22,14.44 23.22,-14.44 m -46.44,0 -23.22,14.44 v 28.87 l 23.22,14.16 23.22,-14.16 v -28.87 m -46.44,28.87 -23.22,14.16 v 28.87 l 23.22,14.44 23.22,-14.44 v -28.87 m 92.88,0 -23.22,-14.16 -23.22,14.16 v 28.87 l 23.22,14.44 23.22,-14.44 m -23.22,-71.9 v 28.87 m -46.44,0 23.22,14.16 m -69.66,-100.79 -23.22,14.45 v 28.87 l 23.22,14.44 m -69.64,-14.44 -23.22,14.44 v 28.87 l 23.22,14.16 23.22,-14.16 v -28.87 l -23.22,-14.44 v -28.87 m 0,86.34 v 28.87 l 23.22,14.44 23.2,-14.44 m 0,-28.87 -23.2,-14.16 m 0,-28.87 23.2,-14.44 m 0,144.08 v 28.87 l 23.22,14.44 23.22,-14.44 v -28.87 l -23.22,-14.44 z m 23.22,-43.31 v 28.87 m -46.42,-28.87 v 28.87 l 23.2,14.44 m -23.2,-14.44 -23.22,14.44 v 28.87 l 23.22,14.44 23.2,-14.44 m -46.42,0 -23.22,14.44 v 28.87 l 23.22,14.16 23.22,-14.16 V 739.7 m 46.42,0 v 28.87 l 23.22,14.16 23.22,-14.16 V 739.7 L 201.5,725.26 m 69.66,-72.18 v 28.87 l 23.22,14.44 m -23.22,-14.44 -23.22,14.44 v 28.87 l 23.22,14.44 m -23.22,-43.31 -23.22,-14.44 -23.22,14.44 m 46.44,-57.74 -23.22,14.44 v 28.87 m 0,57.74 23.22,-14.44 m -46.44,-86.61 23.22,14.44 M 201.5,782.73 v 28.87 l 23.22,14.44 23.22,-14.44 v -28.87 l -23.22,-14.16 m 23.22,43.03 23.22,14.44 23.22,-14.44 v -28.87 m -92.88,115.48 23.22,14.44 23.22,-14.44 V 869.34 L 224.72,854.9 201.5,869.34 Z m 46.44,0 23.22,14.44 23.22,-14.44 v -28.87 l -23.22,-14.44 -23.22,14.44 m 23.22,-43.31 V 854.9 M 224.72,826.03 V 854.9 M 108.64,782.72 v 28.87 l 23.22,14.44 23.2,-14.44 v -28.87 l -23.2,-14.16 m 23.2,43.03 23.22,14.44 23.22,-14.44 m -92.86,0 -23.22,14.44 v 28.87 l 23.22,14.44 23.22,-14.44 V 826.03 M 85.42,854.9 61.96,869.34 v 28.87 l 23.46,14.44 23.22,-14.44 v -28.87 m -23.22,43.31 v 28.87 l 23.22,14.18 23.22,-14.18 v -28.87 l -23.22,-14.44 m 92.86,-28.87 -23.22,-14.44 -23.22,14.44 v 28.87 l 23.22,14.44 23.22,-14.44 m -23.22,-72.18 v 28.87 m -46.42,57.74 23.2,-14.44 m 0,-28.87 -23.2,-14.44 m 23.2,100.79 v 28.87 l 23.22,14.44 23.22,-14.44 v -28.87 l -23.22,-14.18 -23.22,14.18 -23.2,-14.18 m -23.22,14.18 v 28.87 l 23.22,14.44 23.2,-14.44 m -23.2,14.44 v 28.87 m 46.42,-28.87 v 28.87 m 46.44,-115.23 v 28.87 l 23.22,14.18 23.22,-14.18 v -28.87 m -69.66,43.05 23.22,-14.18 m -23.22,43.05 23.22,14.44 23.22,-14.44 v -28.87 m -23.22,43.31 v 28.87 m 46.44,0 V 998.99 L 247.94,984.55 M 178.28,912.63 V 941.5 M 433.92,782.71 v 28.87 l 23.22,14.44 23.22,-14.44 M 387.5,782.71 v 28.87 l 23.2,14.44 23.22,-14.44 m -23.22,43.31 -23.2,14.44 v 28.87 l 23.2,14.44 23.22,-14.44 V 869.33 L 410.7,854.89 v -28.87 m 69.66,43.31 -23.22,-14.44 -23.22,14.44 m 0,28.87 23.22,14.44 23.22,-14.44 m -23.22,-43.31 v -28.87 m -92.86,-57.47 -23.22,14.16 v 28.87 l 23.22,14.44 23.22,-14.44 m -93.12,0 23.46,14.44 23.22,-14.44 m -46.68,86.61 23.46,14.44 23.22,-14.44 v -28.87 l -23.22,-14.44 -23.46,14.44 m 93.12,28.87 -23.22,14.44 v 28.87 l 23.22,14.18 23.2,-14.18 v -28.87 m -23.2,-43.31 -23.22,-14.44 -23.22,14.44 m 23.22,43.31 -23.22,-14.44 m -23.22,-43.31 v -28.87 m 46.44,0 v 28.87 m -46.44,57.74 v 28.87 l 23.22,14.18 23.22,-14.18 m -93.12,0 23.22,14.18 23.46,-14.18 m -23.46,14.18 v 28.87 l 23.46,14.44 23.22,-14.44 v -28.87 m -23.22,43.31 v 28.87 m 92.86,0 v -28.87 l -23.2,-14.44 -23.22,14.44 v 28.87 m 0,-28.87 -23.22,-14.44 m 46.44,-28.87 v 28.87 m 69.64,-43.05 -23.22,14.18 v 28.87 l 23.22,14.44 23.22,-14.44 v -28.87 l -23.22,-14.18 v -28.87 m -46.44,28.87 23.22,14.18 m 0,28.87 -23.22,14.44 m 46.44,28.87 v -28.87 m -185.97,0 23.22,-14.44 m -116.1,-216 -23.22,14.16 m 116.1,-14.16 -23.22,14.16 m 93.12,0 -23.22,-14.16 M 480.37,782.7 457.15,768.54 M 15.54,523.42 v 28.87 l 23.22,14.44 23.22,-14.44 V 523.42 L 38.76,508.97 m 23.22,43.32 23.46,14.44 M -7.68,508.97 -30.9,523.42 v 28.87 l 23.22,14.44 23.22,-14.44 m 0,57.47 -23.22,-14.16 -23.22,14.16 v 28.87 l 23.22,14.44 23.22,-14.44 z m 0,28.87 23.22,14.44 23.22,-14.44 V 609.76 L 38.76,595.6 15.54,609.76 M 85.44,595.6 61.98,609.76 M -7.68,566.73 v 28.87 m 46.44,0 v -28.87 m -92.88,0 23.22,-14.44 m 0,57.47 -23.22,-14.16 m 0,144.08 23.22,-14.44 v -28.87 l -23.22,-14.44 m 92.88,-28.87 v 28.87 l 23.22,14.44 23.46,-14.44 V 653.06 L 61.98,638.62 m -69.66,14.44 v 28.87 l 23.22,14.44 23.22,-14.44 M -7.68,768.54 15.54,782.7 38.76,768.54 V 739.67 L 15.54,725.23 -7.68,739.67 v 28.87 L -30.9,782.7 m 69.66,-43.03 23.22,-14.44 v -28.87 m 0,28.87 23.46,14.44 m -69.9,-43.31 v 28.87 m -69.66,-72.18 23.22,-14.44 m 23.22,43.31 -23.22,14.44 m 0,28.87 23.22,14.44 m 23.22,43.03 v 28.87 l 23.22,14.44 23.22,-14.44 V 782.7 L 38.76,768.54 m 23.22,43.03 23.46,14.44 m -69.9,-14.44 -23.22,14.44 v 28.87 l 23.22,14.44 23.22,-14.44 v -28.87 m -46.44,28.87 -23.22,14.44 v 28.87 l 23.22,14.44 23.22,-14.44 v -28.87 m 0,28.87 23.22,14.44 23.22,-14.44 m 0,-28.87 -23.22,-14.44 M -54.12,826.01 -30.9,811.57 V 782.7 l -23.22,-14.16 m 0,144.08 23.22,-14.44 m 0,-28.87 -23.22,-14.44 m 0,144.1 23.22,-14.44 v -28.87 l -23.22,-14.18 m 139.56,0 -23.46,14.18 v 28.87 l 23.46,14.44 23.22,-14.44 M 61.98,955.66 38.76,941.48 15.54,955.66 v 28.87 l 23.22,14.44 23.22,-14.44 M -7.68,912.61 v 28.87 l 23.22,14.18 m 0,28.87 -23.22,14.44 v 28.87 m 93.12,0 v -28.87 m -46.68,28.87 v -28.87 m 0,-57.49 V 912.61 M -30.9,811.56 -7.68,826 m 0,115.48 -23.22,14.18 m 0,28.87 23.22,14.44 M 85.44,768.53 61.98,782.69 m 46.68,-86.34 -23.22,-14.44 m 0,-28.87 23.22,-14.44 m 46.42,-115.21 -23.2,-14.45 m -162.77,14.45 -23.22,-14.45 m 139.56,0 -23.46,14.45 m 302.31,-14.45 -23.22,14.45 m -116.34,-14.45 23.22,14.45 m 232.41,0 -23.22,-14.45 m 23.22,-302.6 23.22,14.44 m 0,-57.74 -23.22,14.44 m 0,547.75 23.22,14.44 m 0,-57.74 -23.22,14.44 m 23.22,245.12 -23.22,14.18 m 0,28.87 23.22,14.44 m -23.22,-533.33 23.22,14.44 m 0,-57.47 -23.22,14.16"
       clip-path="url(#a)"
       fill="none"
       stroke="#989898"
       stroke-linecap="square"
       stroke-miterlimit="1"
       stroke-width="2.0228"
       style="display:none;fill:none;fill-opacity:1;stroke:#989898;stroke-width:6.17953;stroke-linecap:butt;stroke-linejoin:bevel;stroke-dasharray:6.17953, 74.1543;stroke-dashoffset:0;stroke-opacity:1;marker-start:url(#Triangle);marker-end:url(#ColoredSquare);paint-order:normal"
       sodipodi:insensitive="true"
       inkscape:label="dotstest"
       transform="matrix(0.26458333,0,0,0.26458333,-30.294792,13.096875)" />
    <circle
       cx="134.80522"
       cy="134.80522"
       style="display:inline;fill:none;stroke:#e5e5e5;stroke-width:26.1938"
       id="ellipse2"
       r="121.70833"
       sodipodi:insensitive="true" />
    <circle
       cx="134.80522"
       cy="134.80522"
       style="display:inline;fill:#e5e5e5;stroke:#e5e5e5;stroke-width:20.1083"
       id="ellipse3"
       r="71.4375"
       sodipodi:insensitive="true" />
    <circle
       cy="134.80522"
       cx="134.80522"
       style="display:inline;fill:none;stroke:#ebc700;stroke-width:3.175;stroke-opacity:1"
       id="ellipse4"
       r="108.47916"
       sodipodi:insensitive="true" />
    <circle
       cx="134.80522"
       cy="134.80522"
       style="display:inline;fill:#000000;fill-opacity:1;stroke-width:0.264583"
       id="ellipse7"
       r="39.6875" />
    <path
       id="path90"
       style="display:inline;fill:#ebc700;fill-opacity:1;stroke:#000000;stroke-width:2;stroke-linecap:round;stroke-linejoin:round;stroke-dasharray:none;stroke-opacity:1"
       d="m 193.56144,47.755336 c -0.086,-0.07648 -6.94068,8.466982 -16.3897,17.298167 -2.83939,2.653734 -17.54179,19.513024 -19.00917,19.513024 -6.49737,0 -2.90978,-30.707857 -4.2013,-31.075625 -0.0417,-0.01185 -0.0882,0.0082 -0.14056,0.06149 -2.65274,2.704055 -11.31897,15.358713 -12.84417,18.677413 -2.08257,4.531448 -7.42021,9.288862 -15.01821,7.885824 -3.98242,-0.735396 -9.7014,-4.638484 -11.81375,-12.117086 L 110.7546,57.848778 c -1.45894,0.981307 -5.46015,16.479636 -7.43107,19.875788 -2.15226,3.708638 -3.834105,10.059855 -4.906157,10.059855 -0.363173,0 -3.983318,-3.197857 -8.044471,-7.106547 -4.061082,-3.90869 -9.006586,-8.434835 -10.990027,-10.057267 -1.983372,-1.622433 -4.360508,-3.915363 -5.282364,-5.095296 -0.832194,-1.065231 -1.250873,-1.598533 -1.420069,-1.666049 -0.169196,-0.06751 -0.08884,0.330792 0.07596,1.129646 0.182566,0.885005 0.118867,2.333408 -0.141075,3.21841 -0.393372,1.33921 -0.03017,2.442686 1.890839,6.704499 8.840406,19.612714 3.605662,6.860588 8.362281,21.227134 0.766201,2.31415 -3.576135,4.472419 -8.669237,4.892719 -4.889368,0.40341 -9.788784,-0.5459 -17.200502,-3.332609 -3.296676,-1.23946 -8.078811,-3.03192 -10.626225,-3.98271 -2.547416,-0.95086 -6.194173,-2.32342 -8.103899,-3.04994 -1.909651,-0.72645 -3.619209,-1.17613 -3.798734,-0.99942 -0.179528,0.17671 -0.06306,0.48932 0.258382,0.69453 0.868111,0.5542 9.148069,6.76269 9.46454,7.09673 0.149852,0.15816 3.583122,2.962999 7.62899,6.232689 8.403768,6.79141 11.628504,10.29724 13.425022,14.59601 1.508448,3.60969 1.532538,3.94858 0.434081,6.03942 -1.093748,2.08195 -3.510786,3.0572 -8.811866,3.55586 -5.894147,0.55445 -23.365754,0.323 -32.999019,-0.43719 -4.434044,-0.34983 -8.178188,-0.52189 -8.320422,-0.38188 -0.483899,0.47625 7.873388,3.61766 15.409396,5.79189 10.774807,3.1087 27.778527,8.49678 30.807422,9.7622 1.423595,0.59466 2.588471,1.30891 2.588471,1.58698 0,1.23078 -3.019996,4.77331 -8.997384,10.63242 l -6.104535,5.75986 c -0.143161,0.38897 0.0587,0.55687 0.480073,0.39997 0.889117,-0.33106 15.77835,-3.48454 16.452226,-3.48454 l 9.678995,5.48546 c 0.431707,0.79399 0.413147,1.98177 -0.06873,4.37285 -0.36385,1.8055 -0.747138,4.132 -0.851628,5.17023 -0.286697,2.84859 -4.010194,10.33498 -10.369394,20.84783 -3.142723,5.19546 -6.061881,9.93068 -6.486942,10.52235 -0.553816,0.77108 -0.612789,1.30306 -0.208257,1.87741 0.46323,0.65757 0.526566,0.66287 0.352436,0.0289 -0.226105,-0.82275 8.077975,-8.97803 8.907981,-8.7483 0.266475,0.0737 0.423227,-0.0554 0.3483,-0.28732 -0.265176,-0.82093 4.983866,-5.57535 5.704044,-5.16661 0.384323,0.2181 0.514305,0.19655 0.288872,-0.0481 -0.565828,-0.61396 1.229436,-2.46439 1.981274,-2.04225 0.334576,0.18784 0.419118,0.13641 0.187587,-0.1142 -0.428795,-0.46413 3.803708,-5.0798 4.658114,-5.0798 0.257712,0 0.0026,0.6636 -0.567407,1.47485 -1.277726,1.81865 -8.301821,14.34087 -8.301821,14.80013 0,0.18318 -0.954519,1.86865 -2.121318,3.74499 -4.68099,7.52789 -4.040169,7.12535 9.288322,-5.83066 11.616182,-11.29141 15.777271,-15.05249 18.261417,-16.50648 0.408782,-0.23919 0.976712,0.5363 1.595253,2.17919 0.528251,1.40314 1.033187,2.64549 1.121896,2.76056 0.08871,0.11508 1.539539,-0.72511 3.224089,-1.86707 2.99106,-2.02774 3.08169,-2.0514 3.85248,-1.01389 0.85029,1.14459 0.72629,7.46709 -0.29455,15.00838 -2.25748,16.67708 -2.88639,23.31277 -3.14968,33.2543 -0.19573,7.39049 -0.11365,11.07938 0.23822,10.72752 0.29495,-0.295 2.43122,-6.3292 4.747,-13.409 2.31578,-7.07988 5.37903,-16.25235 6.80682,-20.38222 2.53271,-7.32568 7.86119,-20.97344 14.09888,-26.65109 l 0.86196,1.2945 c 1.74535,2.62185 3.67221,8.17671 4.12378,11.88713 0.25536,2.09808 0.9586,7.19443 1.5627,11.32437 0.6041,4.12987 1.2629,8.79149 1.46399,10.35906 0.20103,1.56764 0.47622,2.74162 0.61134,2.60862 0.13512,-0.133 0.85745,-2.98449 1.60507,-6.33656 0.74762,-3.35208 1.9375,-8.5088 2.64428,-11.45873 0.70678,-2.94987 1.44432,-6.3291 1.63917,-7.50911 0.19486,-1.17993 1.17053,-3.5565 2.16783,-5.28133 1.80375,-3.11953 1.80879,-3.14757 0.92294,-5.22449 -0.4898,-1.14829 -1.07174,-2.09042 -1.29346,-2.09341 -0.77312,-0.0104 -4.35541,5.86434 -5.62136,9.21908 -0.88993,2.35821 -1.28398,2.95953 -1.3038,1.98902 -0.0696,-3.40949 -3.76399,-11.41914 -6.62492,-14.36346 -2.01236,-2.07102 -5.5061,-3.7934 -7.72924,-3.81062 -2.0454,-0.0159 -5.61394,1.83779 -6.71122,3.48609 l -0.89142,1.33894 -0.94929,-1.74822 c -1.07074,-1.97156 -3.43846,-3.52325 -6.43165,-4.21472 -5.07718,-1.17304 -14.384878,2.77154 -21.57026,9.14104 -1.18368,1.0492 -2.038964,1.66649 -1.900661,1.37149 0.138303,-0.295 0.786784,-1.64923 1.441257,-3.00912 2.107306,-4.37865 3.045775,-8.95422 2.323372,-11.32747 -0.85087,-2.79532 -3.305481,-4.32662 -6.336048,-3.95222 l -2.222603,0.27441 0.214458,-2.79311 c 0.277249,-3.60584 -1.4151,-6.99528 -4.570264,-9.15242 -1.967476,-1.34512 -2.899717,-1.5821 -7.157702,-1.82107 l -4.89531,-0.27492 2.111499,-2.74505 c 2.377774,-3.09125 3.756877,-6.55635 3.756877,-9.43974 0,-2.44975 -2.343327,-7.14979 -4.143933,-8.31112 l -1.367875,-0.88212 1.752349,-1.17408 c 2.86616,-1.92059 3.937434,-3.78188 4.195093,-7.28793 0.360111,-4.90127 -2.40189,-10.23421 -8.436694,-16.29048 -2.970538,-2.98107 -3.014962,-3.06692 -1.201995,-2.3213 2.782896,1.14447 10.67616,2.07148 14.107666,1.65674 3.940865,-0.47623 7.637393,-2.07468 9.684162,-4.18734 1.637419,-1.690069 3.393594,-5.805259 3.393594,-7.951969 0,-0.84237 0.230579,-1.02118 0.953428,-0.73949 0.524484,0.20439 2.209739,0.6354 3.744992,0.95808 2.569668,0.54005 3.027162,0.47312 5.759855,-0.84284 3.140023,-1.5122 5.547003,-4.22809 7.222813,-8.149893 1.76065,-3.867957 3.41715,-6.144045 5.826,-10.085689 6.02853,8.647377 10.40745,14.645102 15.68018,14.645102 1.95648,0 5.48158,-1.89603 7.16391,-3.853512 l 1.39526,-1.623674 1.35961,2.604496 1.36012,2.60449 3.78375,0.34778 c 2.08096,0.19144 5.01019,0.84283 6.50865,1.44746 1.59943,0.64537 3.55431,1.02332 4.73407,0.91467 3.26899,-0.30106 10.8371,-5.54695 17.47129,-12.11037 3.22175,-3.187377 5.85752,-5.732256 5.85752,-5.654953 0,0.0773 -0.39599,0.921804 -0.88005,1.876888 -0.97633,1.926466 -2.61919,8.042746 -3.21582,11.971885 l -0.38706,2.54764 h 2.22054 c 2.10798,0 2.24774,-0.1019 2.75332,-2.01124 0.29295,-1.10619 0.69892,-2.976853 0.90227,-4.156857 0.20335,-1.179933 1.34079,-4.565785 2.52801,-7.52357 l 2.15904,-5.377968 z m 12.6323,26.597859 c -1.9846,-0.07331 -7.27394,1.587669 -11.96619,5.900933 l -13.89011,9.805083 -1.71566,1.02681 2.77813,1.56166 c 5.36012,3.01326 8.42813,8.920409 9.16791,17.651639 0.34742,4.10032 0.41249,4.25735 2.05414,4.93975 1.85596,0.77145 9.89361,0.94829 14.10663,0.31058 l 2.60243,-0.39378 -1.38958,1.46658 c -2.1883,2.30897 -4.08761,6.51196 -4.08761,9.04596 0,3.0831 0.78863,4.92303 3.12694,7.29206 l 1.97301,1.99833 -1.93941,0.79788 c -4.66743,1.91956 -7.83541,6.29571 -7.38767,10.20558 0.13898,1.21363 0.65956,3.05012 1.15652,4.08089 0.99271,2.05922 4.64479,6.05593 7.06985,7.73699 l 1.54771,1.07281 -3.45457,0.0222 c -6.11563,0.0392 -9.73724,2.98102 -10.1601,8.25376 -0.13176,1.64307 -0.42055,3.22889 -0.64182,3.52382 -0.22134,0.295 -0.28873,1.42732 -0.14986,2.51612 0.24917,1.95355 0.29137,1.98458 3.2184,2.34456 1.63136,0.20063 3.06346,0.26884 3.18276,0.15141 0.1193,-0.11742 -0.023,-1.26502 -0.31626,-2.54971 -0.29326,-1.28462 -0.44743,-2.41967 -0.34313,-2.52233 0.44969,-0.44264 6.36495,3.6836 6.03477,4.20957 -0.21624,0.34439 -0.10422,0.41898 0.27957,0.18551 l 32.16134,21.98419 c 0.94837,-0.57689 12.89351,11.06942 5.76296,1.90686 -1.06179,-1.36436 -2.51921,-3.32537 -3.23908,-4.35787 l -10.88409,-12.37548 c 0.16742,-0.26657 -0.0149,-0.3646 -0.40514,-0.21756 -0.39937,0.1505 -3.59128,-2.48984 -7.3024,-6.04045 -3.62599,-3.46911 -7.85566,-7.46339 -9.39943,-8.87647 -1.54384,-1.413 -2.80706,-2.71119 -2.80706,-2.88457 0,-0.17338 0.91939,-0.1602 2.04329,0.0294 1.12382,0.18966 6.03019,1.02662 10.90217,1.85984 4.87199,0.83328 8.78905,1.44708 8.70438,1.36374 -0.88524,-0.87135 -7.60869,-4.96491 -17.29041,-10.52701 -5.48972,-3.15381 -11.11216,-8.31176 -10.79986,-9.90792 0.31626,-1.61656 3.79818,-0.85959 3.57084,-2.98897 -0.0868,-0.81257 3.52667,-4.74233 0.20257,-1.78128 -0.78469,0.69898 -1.14051,0.76424 -1.45262,0.26716 -0.24833,-0.39548 0.0654,-1.03945 0.78548,-1.61333 1.23428,-0.98378 9.29258,-4.22843 10.53682,-4.24264 0.3843,-0.004 -0.27299,-0.81681 -1.46037,-1.80557 l -2.15905,-1.79783 4.88343,-0.62166 c 2.6859,-0.34196 5.86483,-0.7491 7.06365,-0.90486 1.19875,-0.15575 5.12195,-0.5207 8.71833,-0.8108 3.59638,-0.29003 7.76506,-0.63779 9.26352,-0.77256 2.662,-0.23942 7.11538,-1.20795 8.14575,-1.77199 0.97395,-0.53315 -13.31198,-2.76781 -29.83849,-4.66741 -6.23663,-0.71689 -11.69509,-1.49963 -12.12949,-1.73891 -0.93095,-0.51282 0.77553,-2.27957 6.03167,-6.2451 11.53065,-8.6993 13.6854,-10.29421 14.62702,-10.82673 2.07926,-1.17593 0.005,-1.11212 -4.00131,0.12299 -17.56933,5.41707 -22.31611,6.72057 -23.78718,6.53138 -1.20472,-0.15494 -1.17445,-0.25201 0.91726,-2.944 1.18966,-1.53115 2.16318,-2.88864 2.16318,-3.01687 0,-0.12824 -0.6745,-0.36678 -1.49862,-0.52969 -0.82419,-0.16291 -2.23403,-0.59398 -3.13314,-0.95808 -0.89911,-0.36403 -1.80159,-0.62889 -2.00557,-0.58808 -0.72768,0.1456 -3.17127,-3.22207 -3.16828,-4.366659 0.008,-2.92095 3.41321,-10.41462 7.63261,-16.794835 1.7098,-2.147935 1.84548,-4.979932 2.42518,-7.590235 -0.13725,-0.07858 -0.35314,-0.124404 -0.63666,-0.134876 z m -64.90715,17.323486 c -1.00986,0.0511 -2.03806,0.18274 -3.08094,0.39585 -6.47249,1.32256 -8.46019,3.94077 -8.46099,11.143499 l -5.2e-4,4.146 -1.14102,-2.26859 c -1.68277,-3.3463 -4.26149,-5.290269 -8.77208,-6.612519 -5.32075,-1.55969 -8.97475,-1.27009 -11.75174,0.93121 -3.1047,2.461089 -4.92707,5.403669 -6.042,9.755989 -0.79208,3.09204 -1.08735,3.6751 -1.35754,2.68149 -0.18992,-0.69832 -0.34885,-2.06973 -0.35295,-3.04787 -0.0108,-2.57978 -0.842846,-3.73372 -3.147097,-4.36356 -6.666937,-1.82252 -10.794548,0.1257 -14.149009,6.67815 -2.148203,4.19619 -2.959907,13.81878 -1.773018,21.0168 0.300807,1.82432 0.756787,7.41466 1.013375,12.4225 0.526301,10.27186 1.237597,12.57591 4.846214,15.69465 4.143177,3.58059 13.347255,6.10219 17.245455,3.32486 l 0.4098,-19.88044 c -0.16154,-14.89465 -0.281,-16.71583 -1.233,-18.85001 -1.22017,-2.73518 -0.99475,-3.62971 0.29559,-1.17358 0.47935,0.91242 1,1.65882 1.15703,1.65882 0.15704,0 0.15215,-1.50857 -0.0108,-3.35225 -0.24275,-2.74473 -0.194,-3.06048 0.26872,-1.74305 0.31082,0.885 0.78544,10.17766 1.05472,20.6499 0.3213,12.49506 0.7232,19.74443 1.16892,21.08709 1.95827,5.89898 12.5663,9.13673 20.04115,6.11694 4.73632,-1.91342 5.16749,-2.8523 5.42345,-11.80858 0.20856,-7.29752 -0.19381,-12.16419 -2.30063,-27.83861 -0.38459,-2.86122 -0.49762,-5.07987 -0.25115,-4.92994 0.24647,0.14994 0.46892,0.80171 0.49402,1.44798 0.0251,0.64634 0.3476,-0.20869 0.71676,-1.89963 0.36916,-1.69101 0.77775,-3.17862 0.90795,-3.30626 0.13021,-0.12763 0.25472,3.54903 0.27647,8.17005 0.0293,6.23008 0.36242,10.20451 1.28829,15.37477 0.69702,3.892 1.36809,10.29049 1.51929,14.4818 0.24845,6.88685 0.38025,7.65245 1.58905,9.23768 1.48706,1.95031 5.10325,4.53118 7.552,5.39037 2.49645,0.87593 8.0379,0.77012 10.42313,-0.19895 2.91943,-1.18619 6.74771,-4.02786 7.71736,-5.87355 l -0.0439,-18.12654 c -0.23145,-12.53111 -0.46435,-15.87785 -1.36684,-19.66081 -1.40874,-5.90456 -1.98981,-10.21116 -1.23042,-9.11831 0.30748,0.44243 0.56283,1.46819 0.56741,2.27945 0.0156,2.75203 1.09772,1.49274 1.15238,-1.34101 0.0299,-1.54868 0.23484,-3.41935 0.45527,-4.15685 0.22043,-0.73743 0.37952,1.79734 0.35398,5.63222 -0.0319,4.78667 0.24717,8.26268 0.88987,11.08717 0.51491,2.26287 1.31893,9.12707 1.78645,15.25334 0.99606,13.04993 1.06641,13.41891 2.93316,15.41094 2.35863,2.51683 5.3537,3.72363 9.90689,3.99149 3.42376,0.20141 4.49638,0.0531 6.35155,-0.8785 1.9132,-0.96076 5.31329,-4.29809 4.84673,-4.75733 l 3.31505,-5.95054 c 1.31162,-3.34573 1.14098,-6.65487 -0.86197,-16.72508 -0.90947,-4.57244 -2.04157,-12.29585 -2.51561,-17.16329 -1.15727,-11.88363 -2.21439,-17.31585 -4.14755,-21.31085 -2.68179,-5.541979 -7.51563,-8.271439 -14.70246,-8.302329 -3.67974,-0.0158 -4.76933,0.20719 -7.44192,1.52238 l -3.13108,1.54048 0.1416,4.559409 0.14159,4.5589 -1.69085,-2.88458 C 154.53093,94.887731 148.35604,91.318761 141.28666,91.676681 Z m 40.13192,7.63985 0.0465,1.441769 c 0.0258,0.79295 0.43368,3.08355 0.9064,5.09013 0.52225,2.21655 0.72399,4.54005 0.51367,5.92057 -0.19041,1.24972 -0.53304,2.38611 -0.76119,2.52491 -0.22816,0.1388 -0.31768,-0.39912 -0.19896,-1.19528 0.11872,-0.79622 -0.15497,-3.53931 -0.60823,-6.09575 -0.5252,-2.96158 -0.65621,-5.19967 -0.36122,-6.16758 z m -30.86633,0.5395 c 0.19203,0.026 0.45941,0.885769 0.77566,2.678389 0.40747,2.30916 0.48975,4.5452 0.21394,5.80791 -0.7116,3.25801 -0.93406,2.86385 -1.19992,-2.12183 -0.22047,-4.13429 -0.10967,-6.407709 0.21032,-6.364469 z m 13.3873,1.069189 1.17202,1.44383 c 1.51694,1.8688 2.73588,4.74719 3.67988,8.69095 0.41625,1.73882 0.6532,3.26275 0.5271,3.38687 -0.21994,0.21649 -4.15451,-9.40704 -4.98006,-12.18065 z m -42.42998,0.5364 1.12086,1.26659 c 0.6291,0.71085 1.12035,2.01831 1.12035,2.98121 0,0.94344 -0.36955,2.18437 -0.82166,2.75694 -0.75423,0.9553 -0.79453,0.815 -0.48524,-1.69964 0.20642,-1.67796 0.0911,-3.23811 -0.29817,-4.02301 z m 13.4736,0.39429 c 0.36134,0.20015 1.02305,0.9722 1.55701,1.98851 0.43631,0.83047 1.40434,3.10793 2.15129,5.06119 0.74696,1.95325 1.24939,3.55172 1.11673,3.55172 -0.4995,0 -2.83288,-4.11559 -3.64939,-6.4363 -0.46705,-1.3275 -1.03979,-2.87597 -1.27227,-3.44062 -0.16242,-0.39447 -0.19922,-0.62533 -0.14883,-0.72192 0.0378,-0.0725 0.12502,-0.0685 0.24546,-0.003 z m -28.0479,4.0566 c 0.34567,-0.0854 1.78388,2.00442 2.62051,3.91862 1.21032,2.7694 1.3127,4.42081 0.19172,3.08715 -0.51782,-0.61606 -2.88792,-6.21902 -2.88871,-6.82904 -1.5e-4,-0.10783 0.0271,-0.16453 0.0765,-0.17673 z m 60.61491,62.05306 c -1.76562,0.13383 -3.21624,1.05714 -5.43791,3.06803 -2.54205,2.30079 -6.01171,3.96269 -9.37928,4.49275 -2.74929,0.43267 -5.00589,2.71893 -5.00589,5.07204 0,1.97053 1.43656,4.96058 2.77967,5.78621 0.94386,0.5802 1.03508,0.46873 1.03508,-1.26659 0,-3.61347 3.8554,-9.48194 6.87348,-10.46241 2.79481,-0.90792 7.06262,-0.1715 9.00307,1.55339 1.4254,1.26712 1.65223,1.92634 2.14302,6.23735 0.30185,2.65133 0.72344,4.9878 0.9369,5.19193 0.21345,0.20413 1.7365,0.74327 3.3848,1.19786 2.77983,0.76676 9.49613,0.80764 10.25313,0.0625 0.15911,-0.15662 0.26462,-1.8782 0.23461,-3.82613 -0.0403,-2.6158 -0.41286,-4.26245 -1.42524,-6.29884 -1.34722,-2.70964 -1.34927,-2.73062 -0.10852,-1.22369 1.62604,1.97505 2.48925,4.85902 2.48925,8.31732 0,1.51453 0.14651,2.75383 0.32505,2.75383 0.17854,0 1.03643,-0.41424 1.90686,-0.92035 1.51431,-0.88053 1.58285,-1.08736 1.58285,-4.79247 0,-4.63921 -0.54301,-6.22327 -2.87166,-8.37882 -1.11407,-1.03125 -1.33206,-1.40611 -0.59325,-1.02164 3.11245,1.61961 5.61085,7.27311 4.73821,10.72234 -0.32365,1.27931 -0.26574,1.36091 0.5147,0.72812 2.75744,-2.23553 3.23976,-9.08557 0.96532,-13.71028 -1.58251,-3.21771 -3.20591,-3.84995 -6.77478,-2.63756 -3.53629,1.20141 -9.30127,1.16074 -13.81673,-0.0977 -1.5208,-0.42377 -2.69344,-0.62755 -3.75274,-0.54725 z m -6.21874,7.70702 c -3.20896,-0.1118 -4.62452,0.91668 -7.11792,5.17126 -1.66476,2.8408 -1.9389,4.50957 -1.01802,6.20324 0.50253,0.92418 1.18679,1.03766 6.2668,1.03766 h 5.70249 l 2.63137,-0.1235 c 0.50074,-0.10219 0.87301,-0.61847 0.82734,-1.14722 -0.90763,-10.50983 -1.18153,-10.92855 -7.29206,-11.14144 z m 28.82408,12.94856 c -0.2401,0 -1.27583,0.46429 -2.30167,1.03147 -1.02592,0.56718 -2.9952,1.19764 -4.37596,1.40146 -1.38084,0.20382 -2.51044,0.45778 -2.51044,0.56431 0,0.25665 7.2609,10.50759 11.74398,16.57986 1.96015,2.65494 4.41847,6.09471 5.46272,7.64347 1.04417,1.54868 2.04235,2.81584 2.21795,2.81584 0.41342,0 0.45636,0.13258 -4.45347,-13.6772 -2.30736,-6.4898 -4.45416,-12.82607 -4.77077,-14.07976 -0.31662,-1.25375 -0.77225,-2.27945 -1.01234,-2.27945 z m -23.19756,1.11467 c -2.00138,0.007 -4.34621,0.13824 -5.72574,0.39119 l -2.02572,0.37155 c 3.08172,4.7961 2.91077,6.12751 5.80378,9.92601 1.31486,1.84786 3.9737,8.6729 3.6065,9.25783 -0.19304,0.30745 -0.12121,0.41944 0.15968,0.24857 0.68805,-0.41857 6.92673,12.84239 6.5257,13.87098 -0.17403,0.4464 -0.10018,0.67974 0.16433,0.51883 0.26451,-0.1609 0.90647,0.73158 1.42679,1.98335 2.06004,4.95641 1.37282,-0.99495 -1.65778,-14.35107 -0.80326,-3.53994 -1.79242,-8.12617 -2.1978,-10.19111 -0.40538,-2.06493 -1.11227,-5.44416 -1.57097,-7.5091 -0.45869,-2.06493 -0.83814,-3.9356 -0.84335,-4.15685 -0.006,-0.24839 -1.66396,-0.36677 -3.66542,-0.36018 z"
       sodipodi:insensitive="true" />
  </g>
</svg>
