<svg xmlns="http://www.w3.org/2000/svg" xml:space="preserve" style="enable-background:new 0 0 480 480" viewBox="0 0 480 480"><path d="M165.8 329.8V358.7l43.6 24.9 10.6 6.3 14.3 8.3 10.1-18.1 4.3-19.4-14.4-12.6-68.5-39.7z" style="fill:#185f85"/><path d="M371.6 319.2V160.8l-28.7-1-6 9.3L328 186v108l-93.7 54.1v50.2c45.9-26.5 91.4-52.9 137.3-79.1z" style="fill:#0d84be"/><path d="M140.7 214.9v-79.3l-43.3 25.2v158.4l43.3 24.9v-79l93.6 54.1v-50.4l-50.1-28.9 50.1-29v-50.1z" style="fill:#2a2d31"/><path d="M234.3 81.7c45.8 26.4 91.4 52.6 137.2 79.1l-25.2 14.6L328 186l-93.7-54.1-68.5 39.5v-50.1l68.5-39.6z" style="fill:#1a9bd7"/></svg>