<?xml version="1.0" encoding="utf-8"?>
<!-- Generator: Adobe Illustrator 27.7.0, SVG Export Plug-In . SVG Version: 6.00 Build 0)  -->
<svg version="1.1" id="Layer_1" xmlns="http://www.w3.org/2000/svg" xmlns:xlink="http://www.w3.org/1999/xlink" x="0px" y="0px"
	 viewBox="0 0 512 512" style="enable-background:new 0 0 512 512;" xml:space="preserve">
<style type="text/css">
	.st0{fill:#4AC694;}
	.st1{fill:#424C72;}
	.st2{fill:#E4E7EF;}
	.st3{fill:#FFFFFF;}
	.st4{fill:#57D1F7;}
</style>
<g>
	<g>
		<g>
			<path class="st0" d="M256,0c141.6,0,256,114.4,256,256S397.6,512,256,512S0,397.6,0,256S114.4,0,256,0z"/>
		</g>
	</g>
	<g>
		<g>
			<path class="st1" d="M416,136H96c-4.8,0-8,3.2-8,8v240c0,4.8,3.2,8,8,8h114.4c8,0,15.2,3.2,19.2,9.6c5.6,8.8,15.2,14.4,26.4,14.4
				s20.8-5.6,26.4-14.4c4-6.4,12-9.6,19.2-9.6H416c4.8,0,8-3.2,8-8V144C424,139.2,420.8,136,416,136z"/>
		</g>
	</g>
	<g>
		<g>
			<path class="st2" d="M112,224v144h128c8.8,0,16,7.2,16,16c0-8.8,7.2-16,16-16h128V224H112z"/>
		</g>
	</g>
	<g>
		<g>
			<path class="st3" d="M280,104c-13.6,0-24,10.4-24,24c0-13.6-10.4-24-24-24H112v248h128c8.8,0,16,7.2,16,16c0-8.8,7.2-16,16-16
				h128V104H280z"/>
		</g>
	</g>
	<g>
		<g>
			<rect x="144" y="128" class="st4" width="32" height="56"/>
		</g>
	</g>
	<g>
		<g>
			<path class="st2" d="M232,212h-88c-2.4,0-4-1.6-4-4s1.6-4,4-4h88c2.4,0,4,1.6,4,4S234.4,212,232,212z"/>
		</g>
	</g>
	<g>
		<g>
			<path class="st2" d="M232,188h-35.2c-2.4,0-4-1.6-4-4s1.6-4,4-4H232c2.4,0,4,1.6,4,4S234.4,188,232,188z"/>
		</g>
	</g>
	<g>
		<g>
			<path class="st2" d="M232,164h-35.2c-2.4,0-4-1.6-4-4s1.6-4,4-4H232c2.4,0,4,1.6,4,4S234.4,164,232,164z"/>
		</g>
	</g>
	<g>
		<g>
			<path class="st2" d="M232,140h-35.2c-2.4,0-4-1.6-4-4s1.6-4,4-4H232c2.4,0,4,1.6,4,4S234.4,140,232,140z"/>
		</g>
	</g>
	<g>
		<g>
			<path class="st2" d="M232,236h-88c-2.4,0-4-1.6-4-4s1.6-4,4-4h88c2.4,0,4,1.6,4,4S234.4,236,232,236z"/>
		</g>
	</g>
	<g>
		<g>
			<path class="st2" d="M232,260h-88c-2.4,0-4-1.6-4-4s1.6-4,4-4h88c2.4,0,4,1.6,4,4S234.4,260,232,260z"/>
		</g>
	</g>
	<g>
		<g>
			<path class="st2" d="M232,284h-88c-2.4,0-4-1.6-4-4s1.6-4,4-4h88c2.4,0,4,1.6,4,4S234.4,284,232,284z"/>
		</g>
	</g>
	<g>
		<g>
			<path class="st2" d="M232,308h-88c-2.4,0-4-1.6-4-4s1.6-4,4-4h88c2.4,0,4,1.6,4,4S234.4,308,232,308z"/>
		</g>
	</g>
	<g>
		<g>
			<path class="st2" d="M232,332h-88c-2.4,0-4-1.6-4-4s1.6-4,4-4h88c2.4,0,4,1.6,4,4S234.4,332,232,332z"/>
		</g>
	</g>
	<g>
		<g>
			<path class="st2" d="M368,212h-88c-2.4,0-4-1.6-4-4s1.6-4,4-4h88c2.4,0,4,1.6,4,4S370.4,212,368,212z"/>
		</g>
	</g>
	<g>
		<g>
			<path class="st2" d="M368,236h-88c-2.4,0-4-1.6-4-4s1.6-4,4-4h88c2.4,0,4,1.6,4,4S370.4,236,368,236z"/>
		</g>
	</g>
	<g>
		<g>
			<path class="st2" d="M368,164h-88c-2.4,0-4-1.6-4-4s1.6-4,4-4h88c2.4,0,4,1.6,4,4S370.4,164,368,164z"/>
		</g>
	</g>
	<g>
		<g>
			<path class="st2" d="M368,140h-88c-2.4,0-4-1.6-4-4s1.6-4,4-4h88c2.4,0,4,1.6,4,4S370.4,140,368,140z"/>
		</g>
	</g>
	<g>
		<g>
			<path class="st2" d="M368,188h-88c-2.4,0-4-1.6-4-4s1.6-4,4-4h88c2.4,0,4,1.6,4,4S370.4,188,368,188z"/>
		</g>
	</g>
	<g>
		<g>
			<path class="st2" d="M368,260h-88c-2.4,0-4-1.6-4-4s1.6-4,4-4h88c2.4,0,4,1.6,4,4S370.4,260,368,260z"/>
		</g>
	</g>
	<g>
		<g>
			<path class="st2" d="M368,284h-88c-2.4,0-4-1.6-4-4s1.6-4,4-4h88c2.4,0,4,1.6,4,4S370.4,284,368,284z"/>
		</g>
	</g>
	<g>
		<g>
			<path class="st2" d="M368,308h-88c-2.4,0-4-1.6-4-4s1.6-4,4-4h88c2.4,0,4,1.6,4,4S370.4,308,368,308z"/>
		</g>
	</g>
	<g>
		<g>
			<path class="st2" d="M368,332h-88c-2.4,0-4-1.6-4-4s1.6-4,4-4h88c2.4,0,4,1.6,4,4S370.4,332,368,332z"/>
		</g>
	</g>
</g>
</svg>
