<?xml version="1.0" encoding="UTF-8" standalone="no"?>
<!-- Created with Inkscape (http://www.inkscape.org/) -->

<svg
   width="3.5911927mm"
   height="3.7273202mm"
   viewBox="0 0 3.5911927 3.7273202"
   version="1.1"
   id="svg1"
   xml:space="preserve"
   xmlns:inkscape="http://www.inkscape.org/namespaces/inkscape"
   xmlns:sodipodi="http://sodipodi.sourceforge.net/DTD/sodipodi-0.dtd"
   xmlns:xlink="http://www.w3.org/1999/xlink"
   xmlns="http://www.w3.org/2000/svg"
   xmlns:svg="http://www.w3.org/2000/svg"><sodipodi:namedview
     id="namedview1"
     pagecolor="#505050"
     bordercolor="#eeeeee"
     borderopacity="1"
     inkscape:showpageshadow="0"
     inkscape:pageopacity="0"
     inkscape:pagecheckerboard="0"
     inkscape:deskcolor="#505050"
     inkscape:document-units="mm" /><defs
     id="defs1"><linearGradient
       id="a"><stop
         offset="0"
         style="stop-color:#c358f8;"
         id="stop1" /><stop
         offset="1"
         style="stop-color:#7835ff;"
         id="stop2" /></linearGradient><linearGradient
       id="b"><stop
         offset="0"
         style="stop-color:#b550fa;"
         id="stop3" /><stop
         offset="1"
         style="stop-color:#f2a0af;"
         id="stop4" /></linearGradient><linearGradient
       xlink:href="#a"
       id="c"
       x1="233.20833"
       x2="235.37132"
       y1="155.57195"
       y2="159.66199"
       gradientTransform="matrix(2.6006985,0,0,2.6006985,-309.46147,-64.368588)"
       gradientUnits="userSpaceOnUse" /><linearGradient
       xlink:href="#b"
       id="d"
       x1="238.32088"
       x2="236.35451"
       y1="154.0775"
       y2="159.46535"
       gradientTransform="matrix(2.6006985,0,0,2.6006985,-314.07197,-64.368588)"
       gradientUnits="userSpaceOnUse" /></defs><g
     inkscape:label="Kbin"
     inkscape:groupmode="layer"
     id="layer1"
     transform="translate(-100.12213,-146.63634)"><path
       d="m 299.26986,340.21968 -1.80765,0.0156 c -0.76275,0 -1.01372,0.47801 -0.82928,1.16637 l 1.66575,7.39987 c 0.36633,1.36713 0.61077,1.61409 0.86218,1.61409 h 0.4816 c 0.95399,0 1.29122,-0.5716 1.66262,-1.61409 l 2.63358,-7.39987 h -3.46788 c -0.24707,-0.55343 -0.3319,-1.18116 -1.2009,-1.18116 z"
       style="fill:url(#c)"
       transform="matrix(0.26458333,0,0,0.26458333,21.653318,57.649531)"
       id="path4"
       inkscape:label="Back part" /><path
       d="m 305.0717,336.3281 h 4.24484 c 0.34061,0 1.0467,0.19401 0.76772,1.00712 l -3.52485,11.82491 c -0.36447,1.02202 -0.69821,1.2546 -1.76988,1.2546 h -5.62867 c 0.29255,0 0.60276,-0.5707 0.9742,-1.61321 l 3.35165,-11.3397 c 0.24498,-0.65062 0.57101,-1.13372 1.58499,-1.13372 z"
       style="fill:url(#d)"
       transform="matrix(0.26458333,0,0,0.26458333,21.653318,57.649531)"
       id="path5"
       inkscape:label="Front part" /></g></svg>
