<?xml version="1.0" encoding="utf-8"?>
<!-- Generator: Adobe Illustrator 27.7.0, SVG Export Plug-In . SVG Version: 6.00 Build 0)  -->
<svg version="1.1" id="logo" xmlns="http://www.w3.org/2000/svg" xmlns:xlink="http://www.w3.org/1999/xlink" x="0px" y="0px"
	 viewBox="0 0 512 512" style="enable-background:new 0 0 512 512;" xml:space="preserve">
<style type="text/css">
	.st0{fill:url(#SVGID_1_);}
	.st1{fill:url(#SVGID_00000043417554790065044600000009242209104994839448_);}
</style>
<g>
	
		<linearGradient id="SVGID_1_" gradientUnits="userSpaceOnUse" x1="228.3572" y1="398.9286" x2="306.9697" y2="250.2789" gradientTransform="matrix(2.6007 0 0 -2.6007 -528.1993 1158.4019)">
		<stop  offset="0" style="stop-color:#C358F8"/>
		<stop  offset="1" style="stop-color:#7835FF"/>
	</linearGradient>
	<path class="st0" d="M107.3,141.4L41.6,142c-27.7,0-36.8,17.4-30.1,42.4L72,453.3C85.3,503,94.2,512,103.3,512h17.5
		c34.7,0,46.9-20.8,60.4-58.7L277,184.4h-126C142,164.3,138.9,141.5,107.3,141.4L107.3,141.4z"/>
	
		<linearGradient id="SVGID_00000016038685391712041660000009684340085065131923_" gradientUnits="userSpaceOnUse" x1="359.0598" y1="436.9716" x2="287.5935" y2="241.1541" gradientTransform="matrix(2.6007 0 0 -2.6007 -532.8098 1158.4019)">
		<stop  offset="0" style="stop-color:#B550FA"/>
		<stop  offset="1" style="stop-color:#F2A0AF"/>
	</linearGradient>
	<path style="fill:url(#SVGID_00000016038685391712041660000009684340085065131923_);" d="M318.2,0h154.3c12.4,0,38,7.1,27.9,36.6
		L372.2,466.4C359,503.5,346.8,512,307.9,512H103.3c10.6,0,21.9-20.7,35.4-58.6L260.6,41.2C269.5,17.6,281.3,0,318.2,0L318.2,0z"/>
</g>
</svg>
