<svg xmlns="http://www.w3.org/2000/svg" width="70" height="70" fill="none"><circle cx="35" cy="35" r="30" fill="#fff" fill-opacity=".8"/><circle cx="35" cy="35" r="32.5" stroke="#183E40" stroke-opacity=".2" stroke-width="5"/><mask id="a" width="60" height="60" x="5" y="5" mask-type="alpha" maskUnits="userSpaceOnUse"><circle cx="35" cy="35" r="30" fill="#fff"/></mask><g mask="url(#a)"><path fill="#B4524E" d="M42.591 20.11c-1.134.314-3.81-8.084-4.732-7.589-.907.495-1.83 2.838-1.83 2.838-.347-.858-1.27-3.168-2.283-2.442-1.315.957-2.842 5.643-2.842 7.689 0 2.755-2.525 8.596-2.525 8.596S23.495 44.036 26.17 41.61c2.677-2.425 5.867-.165 7.288 1.188 1.406 1.32 2.918 3.102 5.987 3.102.938 0 3.614-.627 3.644-2.178.06-4.29 1.618-7.837 1.618-7.837s1.18-.066 5.972-.561c4.778-.495 6.093-3.91 6.093-3.91s2.39-2.674-1.648-3.977c-6.032-1.947-6.894-2.673-6.894-2.673-3.296-6.501-8.664-5.412-8.664-5.412-.801.017-1.512.066-2.162.148-4.52.545-5.473 2.41-5.473 2.41"/><path fill="#414042" d="M54.49 27.255s-.953 2.178 2.283 4.175c0 0 2.691-2.838-2.283-4.175Zm-13.23-1.897s3.871-1.93 4.204 1.897c0 0-.741-.214-1.482 0-.695.198-1.92.43-2.721-1.897Zm-9.555-3.828s-.212-1.254.06-2.673c.484-2.64 2.374-6.385 3.19-5.56.999 1.022 1.346 1.55 1.785 6.319 0 0-2.661-.116-5.035 1.914Zm5.7-2.013s-.665-6.253 1.028-6.583c.182 0 3.22 6.467 3.327 6.5.226.05-1.936-.33-4.355.083Zm-8.83 9.141s1.497 11.484 3.296 12.903c0 0-3.296-2.03-6.063.396-.015.016-2.54.396 2.767-13.3Z"/><path fill="#6D6E71" d="M30.798 21.744S32.37 45.916 42.999 44.2c0 0-.423 1.469-3.553 1.733 0 0-2.615.413-5.11-2.277 0 0-2.253-1.98-2.48-2.079 0 0-1.27-.874-1.996-5.445 0 0-1.496-6.98-1.3-7.458.015-.016 2.223-6.237 2.238-6.93Z" opacity=".66"/><path fill="#414042" d="M37.692 34.268s5.413 2.392 7.016 1.65c0 0-.635 1.716-.771 2.244 0 0-.287 1.105-.363 1.501 0-.016-5.292 1.04-5.882-5.395Z"/><path fill="#58595B" d="M37.692 34.268s.394 5.197 5.882 5.379c0 0-.423 2.36-.423 2.854 0 0-7.878.38-5.459-8.233Z"/><path fill="#C49A6C" d="M55.065 33.608s-12.05.957-17.388.66c0 0 5.458 2.458 7.016 1.65 0 0 6.032-.479 6.924-.71.016 0 1.905-.264 3.448-1.6Z" opacity=".26"/><path fill="#B4524E" d="M26.05 25.325c-1.134.313-3.81-8.085-4.732-7.59-.907.495-1.83 2.838-1.83 2.838-.347-.858-1.27-3.168-2.282-2.442-1.316.957-2.843 5.643-2.843 7.689 0 2.755-2.525 8.596-2.525 8.596S6.955 49.25 9.631 46.824c2.676-2.425 5.85-.165 7.287 1.188 1.406 1.32 2.918 3.102 5.988 3.102.937 0 3.613-.627 3.643-2.178.06-4.29 1.618-7.837 1.618-7.837s1.18-.066 5.972-.561c4.778-.495 6.093-3.91 6.093-3.91s2.39-2.674-1.648-3.977c-6.032-1.947-6.894-2.673-6.894-2.673-3.296-6.501-8.663-5.412-8.663-5.412-.802.016-1.512.066-2.163.148-4.52.545-5.473 2.41-5.473 2.41"/><path fill="#414042" d="M37.95 32.453s-.953 2.178 2.282 4.174c0 0 2.692-2.838-2.283-4.174Zm-13.23-1.898s3.87-1.93 4.203 1.898c0 0-.74-.215-1.482 0-.695.198-1.92.429-2.721-1.898Zm-9.556-3.828s-.211-1.254.06-2.673c.485-2.64 2.375-6.385 3.191-5.56.998 1.023 1.346 1.55 1.784 6.32 0 0-2.66-.116-5.035 1.913Zm5.7-2.013s-.665-6.253 1.029-6.583c.181 0 3.22 6.468 3.326 6.5.227.05-1.935-.33-4.355.083Zm-8.829 9.141S13.53 45.34 15.33 46.758c0 0-3.296-2.03-6.063.396-.015.016-2.54.396 2.767-13.299Z"/><path fill="#6D6E71" d="M14.257 26.942S15.83 51.114 26.46 49.398c0 0-.424 1.468-3.553 1.732 0 0-2.616.413-5.11-2.277 0 0-2.254-1.98-2.48-2.078 0 0-1.27-.875-1.996-5.445 0 0-1.497-6.98-1.3-7.458.015-.017 2.222-6.237 2.237-6.93Z"/><path fill="#414042" d="M21.152 39.465s5.412 2.392 7.015 1.65c0 0-.423 1.716-.544 2.244 0 0-.06 1.633-.151 2.013-.016 0-5.73.528-6.32-5.907Z"/><path fill="#58595B" d="M21.152 39.465s.635 5.296 6.123 5.494c0 0-.665 2.244-.665 2.74 0 0-7.877.395-5.458-8.234Z"/><path fill="#C49A6C" d="M38.524 38.805s-12.05.957-17.387.66c0 0 5.458 2.458 7.015 1.65 0 0 6.033-.479 6.925-.71.015 0 1.905-.247 3.447-1.6Z" opacity=".26"/><path fill="#B4524E" d="M39.25 41.429c-1.134.313-3.81-8.085-4.733-7.59-.907.495-1.83 2.838-1.83 2.838-.347-.858-1.27-3.168-2.282-2.442-1.316.957-2.797 5.643-2.843 7.689-.075 3.382-2.555 8.843-2.525 8.596 0 0-4.883 14.833-2.207 12.408 2.676-2.426 5.851-.165 7.288 1.188 1.406 1.32 2.918 3.102 5.987 3.102.937 0 3.613-.627 3.644-2.178.06-4.29 1.617-7.838 1.617-7.838s1.18-.066 5.973-.56c4.777-.496 6.093-3.911 6.093-3.911s2.389-2.673-1.648-3.977c-6.033-1.947-6.895-2.672-6.895-2.672-3.296-6.501-8.663-5.412-8.663-5.412-.802.016-1.512.066-2.162.148-4.521.545-5.474 2.409-5.474 2.409"/><path fill="#414042" d="M51.149 48.556s-.953 2.178 2.283 4.175c0 .016 2.69-2.838-2.283-4.175ZM37.92 46.659s3.87-1.93 4.202 1.897c0 0-.74-.214-1.481 0-.696.198-1.92.43-2.722-1.897Zm-9.541-3.828s-.212-1.254.06-2.673c.484-2.64 2.374-6.385 3.19-5.56.998 1.023 1.346 1.55 1.785 6.32-.016 0-2.677-.1-5.035 1.913Zm5.685-2.013s-.666-6.253 1.028-6.583c.181 0 3.22 6.468 3.326 6.5.227.05-1.92-.33-4.354.083Zm-9.027 9.521c.076.28 4.43 13.843 6.048 14.668 0 0-5.79-4.34-8.558-1.914.016 0-2.797.94 2.51-12.755Zm9.314 5.23s5.413 2.392 7.015 1.65c0 0-.635 1.716-.77 2.244 0 0-.288 1.105-.364 1.501 0-.016-5.291 1.04-5.881-5.395Z"/><path fill="#58595B" d="M34.351 55.569s.393 5.197 5.882 5.379c0 0-.424 2.36-.424 2.854 0 0-7.877.396-5.458-8.233Z"/><path fill="#C49A6C" d="M51.738 54.909s-12.05.957-17.387.66c0 0 5.458 2.458 7.015 1.65 0 0 6.033-.479 6.925-.71 0 0 1.89-.247 3.447-1.6Z" opacity=".26"/><path fill="#414042" d="M8.83 46.84s5.382 14.487 13.894 16.5l.257-3.399 1.905-6.781.166-2.838s-5.518.132-8.27-2.558c0 0-.59-.379-1.451-1.023-.862-.643-6.048-2.145-5.912-.544.136 1.6-.212-.297-.212-.297l-.378.94Zm25.31 21.582 2.176-1.617s-4.777.891-6.985-4.752c-2.207-5.643-3.31-2.227-3.31-2.227l-1.06 2.92 2.465 4.62 4.99 1.436 1.723-.38Z"/><path fill="#6D6E71" d="M11.99 34.07s2.161 25.459 13.108 16.384l-.847-.462-2.04-.363-1.951-1.435-2.797-4.587-3.01-6.254-2.464-3.283Z"/><path fill="#414042" d="M8.92 43.59s-5.443 22.192-.786 20.608c0 0 10.145-1.93 16.39 3.3 0 0 12.337 10.247 15.21-2.293-.424 1.897-12.807 4.174-14.364-3.91-1.3-6.7-10.054-8.564-10.054-8.564L8.92 43.59Z"/></g></svg>