<svg xmlns="http://www.w3.org/2000/svg" xmlns:xlink="http://www.w3.org/1999/xlink" xml:space="preserve" width="1024" height="1024" style="clip-rule:evenodd;fill-rule:evenodd;stroke-linejoin:round;stroke-miterlimit:2"><defs><linearGradient id="c" x1="0" x2="1" y1="0" y2="0" gradientTransform="matrix(1024 -1024 1024 1024 0 1024)" gradientUnits="userSpaceOnUse"><stop offset="0" style="stop-color:#77b3d8;stop-opacity:1"/><stop offset="1" style="stop-color:#8d76f3;stop-opacity:1"/></linearGradient><linearGradient id="d" x1="0" x2="1" y1="0" y2="0" gradientTransform="matrix(1024 -1024 1024 1024 0 1024)" gradientUnits="userSpaceOnUse"><stop offset="0" style="stop-color:#538eb2;stop-opacity:1"/><stop offset="1" style="stop-color:#7567b4;stop-opacity:1"/></linearGradient><linearGradient id="b" x1="0" x2="1" y1="0" y2="0" gradientTransform="matrix(1024 -1024 1024 1024 0 1024)" gradientUnits="userSpaceOnUse"><stop offset="0" style="stop-color:#c1dbed;stop-opacity:1"/><stop offset="1" style="stop-color:#dbd4fb;stop-opacity:1"/></linearGradient><linearGradient id="a" x1="0" x2="1" y1="0" y2="0" gradientTransform="matrix(1024 -1024 1024 1024 0 1024)" gradientUnits="userSpaceOnUse"><stop offset="0" style="stop-color:#388dc2;stop-opacity:1"/><stop offset="1" style="stop-color:#8d76f3;stop-opacity:1"/></linearGradient><linearGradient xlink:href="#a" id="h" x1="0" x2="1024" y1="1024" y2="0" gradientUnits="userSpaceOnUse"/><linearGradient xlink:href="#a" id="g" x1="0" x2="1024" y1="1024" y2="0" gradientUnits="userSpaceOnUse"/><linearGradient xlink:href="#a" id="j" x1="0" x2="1024" y1="1024" y2="0" gradientUnits="userSpaceOnUse"/><linearGradient xlink:href="#a" id="i" x1="0" x2="1024" y1="1024" y2="0" gradientUnits="userSpaceOnUse"/><linearGradient xlink:href="#a" id="l" x1="0" x2="1024" y1="1024" y2="0" gradientUnits="userSpaceOnUse"/><linearGradient xlink:href="#a" id="k" x1="0" x2="1024" y1="1024" y2="0" gradientUnits="userSpaceOnUse"/><linearGradient xlink:href="#a" id="o" x1="0" x2="1024" y1="1024" y2="0" gradientUnits="userSpaceOnUse"/><linearGradient xlink:href="#a" id="p" x1="0" x2="1024" y1="1024" y2="0" gradientUnits="userSpaceOnUse"/><linearGradient xlink:href="#a" id="n" x1="0" x2="1024" y1="1024" y2="0" gradientUnits="userSpaceOnUse"/><linearGradient xlink:href="#a" id="m" x1="0" x2="1024" y1="1024" y2="0" gradientUnits="userSpaceOnUse"/><linearGradient xlink:href="#b" id="f" x1="0" x2="1024" y1="1024" y2="0" gradientUnits="userSpaceOnUse"/><linearGradient xlink:href="#c" id="e" x1="0" x2="1024" y1="1024" y2="0" gradientUnits="userSpaceOnUse"/><linearGradient xlink:href="#d" id="q" x1="242.56" x2="2157.439" y1="2918.949" y2="2918.949" gradientUnits="userSpaceOnUse"/></defs><g style="clip-rule:evenodd;display:inline;fill:url(#e);fill-opacity:1;fill-rule:evenodd;stroke-linejoin:round;stroke-miterlimit:2" transform="matrix(2.34375 0 0 .78125 0 2500)"><path d="M0 0h1024v1024H0z" style="fill:url(#f);fill-opacity:1"/></g><g style="display:inline"><g style="clip-rule:evenodd;fill:url(#g);fill-opacity:1;fill-rule:evenodd;stroke-linejoin:round;stroke-miterlimit:2" transform="translate(2304)"><path d="M0 0h1024v1024H0z" style="fill:url(#h);fill-opacity:1"/></g></g><g style="display:inline"><g style="clip-rule:evenodd;fill:url(#i);fill-opacity:1;fill-rule:evenodd;stroke-linejoin:round;stroke-miterlimit:2" transform="translate(1152)"><rect width="1024" height="1024" ry="128" style="fill:url(#j);fill-opacity:1"/></g></g><g style="display:inline"><g style="clip-rule:evenodd;fill:url(#k);fill-opacity:1;fill-rule:evenodd;stroke-linejoin:round;stroke-miterlimit:2"><rect width="1024" height="1024" ry="512" style="fill:url(#l);fill-opacity:1"/></g></g><g style="display:inline"><g style="clip-rule:evenodd;fill-rule:evenodd;stroke-linejoin:round;stroke-miterlimit:2"><path d="M2253.77 664.99c-104.02.001-188.34 84.324-188.34 188.342 0 62.866 31.2 120.27 81.08 154.838 14.37 9.95 22.63 11.1 24.54 26.67 1.92 15.56-19.41 29.99-19.41 29.99l-983.69 765.1c-88.43 68.8-140.16 174.56-140.17 286.6v725.67c0 200.54 162.56 363.1 363.09 363.1 200.53 0 363.1-162.56 363.1-363.1v-548.09l948.32-737.56c139.21-108.27 179.15-299.23 99.99-452.74-5.91-11.46-7.79-15.53-20.1-20.31-12.3-4.78-22.2.57-34.51 5.19a151.4 151.4 0 0 1-53.21 9.65c-83.65 0-151.47-67.81-151.47-151.465.01-11.352 2.02-18.009-1.34-25.073-3.36-7.064-12.29-11.63-21.08-12.633a362.932 362.932 0 0 0-43.97-2.333c-14.42.109-25.38-1.186-31.6-11.734-6.21-10.549-2.88-22.638-2.88-41.77 0-104.021-84.33-188.345-188.35-188.342z" style="fill:#fff;fill-rule:nonzero" transform="scale(.26458)"/><path d="m464 508.622 245.251 163.501c44.085 29.39 56.016 89.043 26.626 133.128-29.39 44.085-89.043 56.016-133.128 26.626l-288-192A96 96 0 0 1 272 560V336c0-52.984 43.016-96 96-96s96 43.016 96 96z" style="fill:#fff"/><circle cx="503.532" cy="185.784" r="33.993" style="fill:#fff"/><circle cx="535.989" cy="119.866" r="22.178" style="fill:#fff"/><circle cx="475.598" cy="103.58" r="15.485" style="fill:#fff"/><circle cx="712.91" cy="250.527" r="27.168" style="fill:#fff"/></g><g style="clip-rule:evenodd;fill-rule:evenodd;stroke-linejoin:round;stroke-miterlimit:2" transform="translate(2303.995)"><path d="M2253.77 664.99c-104.02.001-188.34 84.324-188.34 188.342 0 62.866 31.2 120.27 81.08 154.838 14.37 9.95 22.63 11.1 24.54 26.67 1.92 15.56-19.41 29.99-19.41 29.99l-983.69 765.1c-88.43 68.8-140.16 174.56-140.17 286.6v725.67c0 200.54 162.56 363.1 363.09 363.1 200.53 0 363.1-162.56 363.1-363.1v-548.09l948.32-737.56c139.21-108.27 179.15-299.23 99.99-452.74-5.91-11.46-7.79-15.53-20.1-20.31-12.3-4.78-22.2.57-34.51 5.19a151.4 151.4 0 0 1-53.21 9.65c-83.65 0-151.47-67.81-151.47-151.465.01-11.352 2.02-18.009-1.34-25.073-3.36-7.064-12.29-11.63-21.08-12.633a362.932 362.932 0 0 0-43.97-2.333c-14.42.109-25.38-1.186-31.6-11.734-6.21-10.549-2.88-22.638-2.88-41.77 0-104.021-84.33-188.345-188.35-188.342z" style="fill:#fff;fill-rule:nonzero" transform="scale(.26458)"/><path d="m464 508.622 245.251 163.501c44.085 29.39 56.016 89.043 26.626 133.128-29.39 44.085-89.043 56.016-133.128 26.626l-288-192A96 96 0 0 1 272 560V336c0-52.984 43.016-96 96-96s96 43.016 96 96z" style="fill:#fff"/><circle cx="503.532" cy="185.784" r="33.993" style="fill:#fff"/><circle cx="535.989" cy="119.866" r="22.178" style="fill:#fff"/><circle cx="475.598" cy="103.58" r="15.485" style="fill:#fff"/><circle cx="712.91" cy="250.527" r="27.168" style="fill:#fff"/></g><g style="clip-rule:evenodd;fill-rule:evenodd;stroke-linejoin:round;stroke-miterlimit:2" transform="translate(1151.995)"><path d="M2253.77 664.99c-104.02.001-188.34 84.324-188.34 188.342 0 62.866 31.2 120.27 81.08 154.838 14.37 9.95 22.63 11.1 24.54 26.67 1.92 15.56-19.41 29.99-19.41 29.99l-983.69 765.1c-88.43 68.8-140.16 174.56-140.17 286.6v725.67c0 200.54 162.56 363.1 363.09 363.1 200.53 0 363.1-162.56 363.1-363.1v-548.09l948.32-737.56c139.21-108.27 179.15-299.23 99.99-452.74-5.91-11.46-7.79-15.53-20.1-20.31-12.3-4.78-22.2.57-34.51 5.19a151.4 151.4 0 0 1-53.21 9.65c-83.65 0-151.47-67.81-151.47-151.465.01-11.352 2.02-18.009-1.34-25.073-3.36-7.064-12.29-11.63-21.08-12.633a362.932 362.932 0 0 0-43.97-2.333c-14.42.109-25.38-1.186-31.6-11.734-6.21-10.549-2.88-22.638-2.88-41.77 0-104.021-84.33-188.345-188.35-188.342z" style="fill:#fff;fill-rule:nonzero" transform="scale(.26458)"/><path d="m464 508.622 245.251 163.501c44.085 29.39 56.016 89.043 26.626 133.128-29.39 44.085-89.043 56.016-133.128 26.626l-288-192A96 96 0 0 1 272 560V336c0-52.984 43.016-96 96-96s96 43.016 96 96z" style="fill:#fff"/><circle cx="503.532" cy="185.784" r="33.993" style="fill:#fff"/><circle cx="535.989" cy="119.866" r="22.178" style="fill:#fff"/><circle cx="475.598" cy="103.58" r="15.485" style="fill:#fff"/><circle cx="712.91" cy="250.527" r="27.168" style="fill:#fff"/></g></g><g style="clip-rule:evenodd;fill-rule:evenodd;stroke-linejoin:round;stroke-miterlimit:2"><g style="clip-rule:evenodd;display:inline;fill:url(#m);fill-opacity:1;fill-rule:evenodd;stroke-linejoin:round;stroke-miterlimit:2" transform="translate(3417.188) scale(.10547)"><path d="M0 0h1024v1024H0z" style="fill:url(#n);fill-opacity:1"/></g></g><g style="clip-rule:evenodd;fill-rule:evenodd;stroke-linejoin:round;stroke-miterlimit:2"><g style="clip-rule:evenodd;display:inline;fill-rule:evenodd;stroke-linejoin:round;stroke-miterlimit:2" transform="translate(3555.882 4.543) scale(.09474)"><path d="M2253.77 664.99c-104.02.001-188.34 84.324-188.34 188.342 0 62.866 31.2 120.27 81.08 154.838 14.37 9.95 22.63 11.1 24.54 26.67 1.92 15.56-19.41 29.99-19.41 29.99l-983.69 765.1c-88.43 68.8-140.16 174.56-140.17 286.6v725.67c0 200.54 162.56 363.1 363.09 363.1 200.53 0 363.1-162.56 363.1-363.1v-548.09l948.32-737.56c139.21-108.27 179.15-299.23 99.99-452.74-5.91-11.46-7.79-15.53-20.1-20.31-12.3-4.78-22.2.57-34.51 5.19a151.4 151.4 0 0 1-53.21 9.65c-83.65 0-151.47-67.81-151.47-151.465.01-11.352 2.02-18.009-1.34-25.073-3.36-7.064-12.29-11.63-21.08-12.633a362.932 362.932 0 0 0-43.97-2.333c-14.42.109-25.38-1.186-31.6-11.734-6.21-10.549-2.88-22.638-2.88-41.77 0-104.021-84.33-188.345-188.35-188.342z" style="fill:#fff;fill-rule:nonzero" transform="scale(.26458)"/><path d="m464 508.622 245.251 163.501c44.085 29.39 56.016 89.043 26.626 133.128-29.39 44.085-89.043 56.016-133.128 26.626l-288-192A96 96 0 0 1 272 560V336c0-52.984 43.016-96 96-96s96 43.016 96 96z" style="fill:#fff"/><circle cx="503.532" cy="185.784" r="33.993" style="fill:#fff"/><circle cx="535.989" cy="119.866" r="22.178" style="fill:#fff"/><circle cx="475.598" cy="103.58" r="15.485" style="fill:#fff"/><circle cx="712.91" cy="250.527" r="27.168" style="fill:#fff"/></g></g><g style="clip-rule:evenodd;display:inline;fill-rule:evenodd;stroke-linejoin:round;stroke-miterlimit:2" transform="translate(3704.392 16.907) scale(.07106)"><path d="M2253.77 664.99c-104.02.001-188.34 84.324-188.34 188.342 0 62.866 31.2 120.27 81.08 154.838 14.37 9.95 22.63 11.1 24.54 26.67 1.92 15.56-19.41 29.99-19.41 29.99l-983.69 765.1c-88.43 68.8-140.16 174.56-140.17 286.6v725.67c0 200.54 162.56 363.1 363.09 363.1 200.53 0 363.1-162.56 363.1-363.1v-548.09l948.32-737.56c139.21-108.27 179.15-299.23 99.99-452.74-5.91-11.46-7.79-15.53-20.1-20.31-12.3-4.78-22.2.57-34.51 5.19a151.4 151.4 0 0 1-53.21 9.65c-83.65 0-151.47-67.81-151.47-151.465.01-11.352 2.02-18.009-1.34-25.073-3.36-7.064-12.29-11.63-21.08-12.633a362.932 362.932 0 0 0-43.97-2.333c-14.42.109-25.38-1.186-31.6-11.734-6.21-10.549-2.88-22.638-2.88-41.77 0-104.021-84.33-188.345-188.35-188.342z" style="fill:#fff;fill-rule:nonzero" transform="scale(.26458)"/><path d="m464 508.622 245.251 163.501c44.085 29.39 56.016 89.043 26.626 133.128-29.39 44.085-89.043 56.016-133.128 26.626l-288-192A96 96 0 0 1 272 560V336c0-52.984 43.016-96 96-96s96 43.016 96 96z" style="fill:#fff"/><circle cx="503.532" cy="185.784" r="33.993" style="fill:#fff"/><circle cx="535.989" cy="119.866" r="22.178" style="fill:#fff"/><circle cx="475.598" cy="103.58" r="15.485" style="fill:#fff"/><circle cx="712.91" cy="250.527" r="27.168" style="fill:#fff"/></g><g style="clip-rule:evenodd;display:inline;fill:url(#o);fill-opacity:1;fill-rule:evenodd;stroke-linejoin:round;stroke-miterlimit:2" transform="translate(64 1216)"><rect width="1024" height="1024" ry="512" style="fill:url(#p);fill-opacity:1"/></g><g style="clip-rule:evenodd;display:inline;fill-rule:evenodd;stroke-linejoin:round;stroke-miterlimit:2" transform="translate(64 1216)"><path d="M2253.77 664.99c-104.02.001-188.34 84.324-188.34 188.342 0 62.866 31.2 120.27 81.08 154.838 14.37 9.95 22.63 11.1 24.54 26.67 1.92 15.56-19.41 29.99-19.41 29.99l-983.69 765.1c-88.43 68.8-140.16 174.56-140.17 286.6v725.67c0 200.54 162.56 363.1 363.09 363.1 200.53 0 363.1-162.56 363.1-363.1v-548.09l948.32-737.56c139.21-108.27 179.15-299.23 99.99-452.74-5.91-11.46-7.79-15.53-20.1-20.31-12.3-4.78-22.2.57-34.51 5.19a151.4 151.4 0 0 1-53.21 9.65c-83.65 0-151.47-67.81-151.47-151.465.01-11.352 2.02-18.009-1.34-25.073-3.36-7.064-12.29-11.63-21.08-12.633a362.932 362.932 0 0 0-43.97-2.333c-14.42.109-25.38-1.186-31.6-11.734-6.21-10.549-2.88-22.638-2.88-41.77 0-104.021-84.33-188.345-188.35-188.342z" style="fill:#fff;fill-rule:nonzero" transform="scale(.26458)"/><path d="m464 508.622 245.251 163.501c44.085 29.39 56.016 89.043 26.626 133.128-29.39 44.085-89.043 56.016-133.128 26.626l-288-192A96 96 0 0 1 272 560V336c0-52.984 43.016-96 96-96s96 43.016 96 96z" style="fill:#fff"/><circle cx="503.532" cy="185.784" r="33.993" style="fill:#fff"/><circle cx="535.989" cy="119.866" r="22.178" style="fill:#fff"/><circle cx="475.598" cy="103.58" r="15.485" style="fill:#fff"/><circle cx="712.91" cy="250.527" r="27.168" style="fill:#fff"/></g><text xml:space="preserve" x="1260.334" y="1984" style="font-style:normal;font-variant:normal;font-weight:400;font-stretch:normal;font-size:733.333px;line-height:1.25;font-family:Jost;-inkscape-font-specification:&quot;Jost, Normal&quot;;font-variant-ligatures:normal;font-variant-caps:normal;font-variant-numeric:normal;font-variant-east-asian:normal;fill:#333;fill-opacity:1;fill-rule:nonzero;stroke:none;stroke-width:18.6112"><tspan x="1260.334" y="1984" style="font-style:normal;font-variant:normal;font-weight:400;font-stretch:normal;font-size:733.33300781px;font-family:Jost;-inkscape-font-specification:&quot;Jost, Normal&quot;;font-variant-ligatures:normal;font-variant-caps:normal;font-variant-numeric:normal;font-variant-east-asian:normal;fill:#333;fill-rule:nonzero;stroke-width:18.6112;fill-opacity:1">Keyoxide</tspan></text><text xml:space="preserve" x="835.072" y="3211.781" style="font-style:normal;font-variant:normal;font-weight:400;font-stretch:normal;font-size:85.3333px;line-height:1.25;font-family:Jost;-inkscape-font-specification:&quot;Jost, Normal&quot;;font-variant-ligatures:normal;font-variant-caps:normal;font-variant-numeric:normal;font-variant-east-asian:normal;clip-rule:evenodd;opacity:.4;fill:#000;fill-opacity:1;fill-rule:nonzero;stroke:none;stroke-width:18.6112;stroke-linejoin:round;stroke-miterlimit:2"><tspan x="835.072" y="3211.781" style="font-style:normal;font-variant:normal;font-weight:400;font-stretch:normal;font-size:85.3333px;font-family:Jost;-inkscape-font-specification:&quot;Jost, Normal&quot;;font-variant-ligatures:normal;font-variant-caps:normal;font-variant-numeric:normal;font-variant-east-asian:normal;fill:#000;fill-opacity:1;fill-rule:nonzero;stroke-width:18.6112">https://keyoxide.org</tspan></text><text xml:space="preserve" x="229.76" y="2963.749" style="font-style:normal;font-variant:normal;font-weight:400;font-stretch:normal;font-size:160px;line-height:1.25;font-family:Jost;-inkscape-font-specification:&quot;Jost, Normal&quot;;font-variant-ligatures:normal;font-variant-caps:normal;font-variant-numeric:normal;font-variant-east-asian:normal;clip-rule:evenodd;fill:url(#q);fill-opacity:1;fill-rule:nonzero;stroke:none;stroke-width:18.6112;stroke-linejoin:round;stroke-miterlimit:2"><tspan x="229.76" y="2963.749" style="font-style:normal;font-variant:normal;font-weight:400;font-stretch:normal;font-size:160px;font-family:Jost;-inkscape-font-specification:&quot;Jost, Normal&quot;;font-variant-ligatures:normal;font-variant-caps:normal;font-variant-numeric:normal;font-variant-east-asian:normal;fill:url(#q);fill-opacity:1;fill-rule:nonzero;stroke-width:18.6112">Decentralized online identity</tspan></text></svg>