<svg xmlns="http://www.w3.org/2000/svg" xmlns:xlink="http://www.w3.org/1999/xlink" width="512" height="512" cursor="default" enable-background="new" viewBox="0 0 440 440"><radialGradient id="a" cx="611" cy="41.267" r="160.5" gradientTransform="matrix(1.1673343 0 0 1.4196623 -102.24121 -19.722475)" gradientUnits="userSpaceOnUse"><stop offset="0" stop-color="#01fd00"/><stop offset="1" stop-color="#009d39"/></radialGradient><radialGradient id="b" cx="873.783" cy="-16.38" r="55.747" gradientTransform="matrix(1.9295131 -1.1140049 1.1550268 2.0005649 -1087.6858 1104.8947)" gradientUnits="userSpaceOnUse"><stop offset="0" stop-color="#f9f9f9"/><stop offset="1" stop-color="#fff"/></radialGradient><linearGradient id="c" x1="611.143" x2="610.571" y1="234.571" y2="-110.916" gradientUnits="userSpaceOnUse"><stop offset="0" stop-color="#f2f2f2"/><stop offset="1" stop-color="#f2f2f2"/></linearGradient><g><g transform="translate(-390.56693 181.56689)"><path fill="#fff" stroke="#58dd58" stroke-linejoin="round" stroke-width=".041" d="m391.020508-182.838852h439.95895v439.95895h-439.95895z" visibility="hidden"/><circle cx="611" cy="38" r="187.777" fill="url(#c)"/><circle cx="611" cy="38" r="166.286" fill="url(#a)" stroke="#fff" stroke-linejoin="round" stroke-width="3"/><path fill="url(#b)" fill-rule="evenodd" d="m571.156433 108.308197 110-63.999998-110-64z"/></g><g fill="#c7efc4" fill-rule="evenodd" transform="translate(-390.56693 181.56689)"><rect width="14" height="32" x="-542.469" y="419.41" opacity=".5" ry="7" transform="matrix(-.83616052 -.5484848 .5484848 -.83616052 0 0)"/><rect width="14" height="32" x="-320.158" y="642.978" opacity=".5" ry="7" transform="matrix(-.45720822 -.88935968 .88935968 -.45720822 0 0)"/><rect width="18" height="41" x="-48.536" y="718.754" opacity=".5" ry="9" transform="rotate(-90)"/><rect width="14" height="32" x="244.405" y="673.799" opacity=".5" ry="7" transform="matrix(.47159375 -.88181593 .88181593 .47159375 0 0)"/><rect width="14" height="32" x="-505.885" y="-503.868" opacity=".5" ry="7" transform="matrix(-.8503618 .52619845 -.52619845 -.8503618 0 0)"/><rect width="18" height="41" x="-620.297" y="-187.943" opacity=".5" ry="9" transform="scale(-1)"/><rect width="14" height="32" x="-539.166" y="148.582" opacity=".5" ry="7" transform="matrix(-.84033379 -.54206929 .54206929 -.84033379 0 0)"/><rect width="14" height="32" x="-319.728" y="374.805" opacity=".5" ry="7" transform="matrix(-.45720822 -.88935968 .88935968 -.45720822 0 0)"/><rect width="18" height="41" x="-48.536" y="460.965" opacity=".5" ry="9" transform="rotate(-90)"/><rect width="14" height="32" x="250.842" y="406.196" opacity=".5" ry="7" transform="matrix(.47159375 -.88181593 .88181593 .47159375 0 0)"/><rect width="14" height="32" x="-505.958" y="-236.96" opacity=".5" ry="7" transform="matrix(-.849305 .52790248 -.52790248 -.849305 0 0)"/><g transform="scale(-1)"><rect width="18" height="41" x="-633.025" y="69.121" opacity=".5" ry="9"/><rect width="18" height="41" x="-606.761" y="69.121" opacity=".5" ry="9"/></g></g></g></svg>