<svg xmlns="http://www.w3.org/2000/svg" width="512" height="512" cursor="default" viewBox="0 0 440 440"><radialGradient id="b" cx="611" cy="41.267" r="160.5" gradientTransform="matrix(1.16733 0 0 1.41966 -102.241 -19.722)" gradientUnits="userSpaceOnUse"><stop offset="0" stop-color="#01fd00"/><stop offset="1" stop-color="#009d39"/></radialGradient><radialGradient id="c" cx="873.783" cy="-16.38" r="55.747" gradientTransform="matrix(1.92951 -1.114 1.15503 2.00056 -1087.686 1104.895)" gradientUnits="userSpaceOnUse"><stop offset="0" stop-color="#f9f9f9"/><stop offset="1" stop-color="#fff"/></radialGradient><linearGradient id="a" x1="611.143" x2="610.571" y1="234.571" y2="-110.916" gradientUnits="userSpaceOnUse"><stop offset="0" stop-color="#f2f2f2"/><stop offset="1" stop-color="#f2f2f2"/></linearGradient><g transform="translate(-390.567 181.567)"><circle cx="611" cy="38" r="187.777" fill="url(#a)"/><circle cx="611" cy="38" r="166.286" fill="url(#b)" stroke="#fff" stroke-linejoin="round" stroke-width="3"/><path fill="url(#c)" fill-rule="evenodd" d="m571.156 108.308 110-64-110-64z"/></g><g fill="#c7efc4" fill-rule="evenodd" transform="translate(-390.567 181.567)"><rect width="14" height="32" x="-542.469" y="419.41" opacity=".5" ry="7" transform="rotate(-146.737)"/><rect width="14" height="32" x="-320.158" y="642.978" opacity=".5" ry="7" transform="rotate(-117.207)"/><rect width="18" height="41" x="-48.536" y="718.754" opacity=".5" ry="9" transform="rotate(-90)"/><rect width="14" height="32" x="244.405" y="673.799" opacity=".5" ry="7" transform="rotate(-61.862)"/><rect width="14" height="32" x="-505.885" y="-503.868" opacity=".5" ry="7" transform="rotate(148.251)"/><rect width="18" height="41" x="-620.297" y="-187.943" opacity=".5" ry="9" transform="scale(-1)"/><rect width="14" height="32" x="-539.166" y="148.582" opacity=".5" ry="7" transform="rotate(-147.175)"/><rect width="14" height="32" x="-319.728" y="374.805" opacity=".5" ry="7" transform="rotate(-117.207)"/><rect width="18" height="41" x="-48.536" y="460.965" opacity=".5" ry="9" transform="rotate(-90)"/><rect width="14" height="32" x="250.842" y="406.196" opacity=".5" ry="7" transform="rotate(-61.862)"/><rect width="14" height="32" x="-505.958" y="-236.96" opacity=".5" ry="7" transform="rotate(148.136)"/><g transform="scale(-1)"><rect width="18" height="41" x="-633.025" y="69.121" opacity=".5" ry="9"/><rect width="18" height="41" x="-606.761" y="69.121" opacity=".5" ry="9"/></g></g></svg>