<svg xmlns="http://www.w3.org/2000/svg" xml:space="preserve" id="Layer_1" x="0" y="0" version="1.1" viewBox="0 0 512 512"><style>.st3{opacity:.5;fill-rule:evenodd;clip-rule:evenodd;fill:#c7efc4;enable-background:new}</style><g transform="translate(-390.567 181.567)"><linearGradient id="SVGID_1_" x1="941.609" x2="940.939" y1="81.556" y2="486.33" gradientTransform="matrix(1.1636 0 0 -1.1636 -448.68 437.324)" gradientUnits="userSpaceOnUse"><stop offset="0" style="stop-color:#f2f2f2"/><stop offset="1" style="stop-color:#f2f2f2"/></linearGradient><circle cx="646.6" cy="74.4" r="256" style="fill:url(#SVGID_1_)"/><radialGradient id="SVGID_00000133499099547874572810000009276203591456671878_" cx="888.811" cy="340.879" r="188.042" gradientTransform="matrix(1.3584 0 0 -1.652 -560.752 638.731)" gradientUnits="userSpaceOnUse"><stop offset="0" style="stop-color:#01fd00"/><stop offset="1" style="stop-color:#009d39"/></radialGradient><circle cx="646.6" cy="74.4" r="226.7" style="fill:url(#SVGID_00000133499099547874572810000009276203591456671878_);stroke:#fff;stroke-width:3.4909;stroke-linejoin:round;stroke-miterlimit:4.6545"/><radialGradient id="SVGID_00000016062444377468845040000017439189815454069160_" cx="951.443" cy="352.857" r="65.314" gradientTransform="matrix(2.2453 -1.2963 -1.344 -2.3279 -1058.533 2212.003)" gradientUnits="userSpaceOnUse"><stop offset="0" style="stop-color:#f9f9f9"/><stop offset="1" style="stop-color:#fff"/></radialGradient><path d="m592.2 170.3 150-87.3-150-87.3z" style="fill-rule:evenodd;clip-rule:evenodd;fill:url(#SVGID_00000016062444377468845040000017439189815454069160_)"/></g><path d="M347.033 126.467c-4.4-2.9-5.6-8.8-2.7-13.2l13.5-20.5c2.9-4.4 8.8-5.6 13.2-2.7s5.6 8.8 2.7 13.2l-13.5 20.5c-2.9 4.4-8.8 5.6-13.2 2.7M397.833 183.067c-2.4-4.7-.6-10.4 4.1-12.9l21.8-11.2c4.7-2.4 10.4-.6 12.9 4.1 2.4 4.7.6 10.4-4.1 12.9l-21.9 11.3c-4.7 2.4-10.4.5-12.8-4.2M402.933 258.067c0-6.8 5.5-12.3 12.3-12.3h31.4c6.8 0 12.3 5.5 12.3 12.3s-5.5 12.3-12.3 12.3h-31.4c-6.8 0-12.3-5.5-12.3-12.3M394.733 335.167c2.5-4.6 8.3-6.4 12.9-3.9l21.6 11.6c4.6 2.5 6.4 8.3 3.9 12.9s-8.3 6.4-12.9 3.9l-21.6-11.6c-4.7-2.5-6.4-8.3-3.9-12.9M362.833 430.467c-4.5 2.8-10.4 1.4-13.1-3.1l-12.9-20.9c-2.8-4.5-1.4-10.4 3.1-13.1 4.5-2.8 10.4-1.4 13.1 3.1l12.9 20.9c2.8 4.4 1.4 10.3-3.1 13.1M256.433 460.467c-6.8 0-12.3-5.5-12.3-12.3v-31.4c0-6.8 5.5-12.3 12.3-12.3s12.3 5.5 12.3 12.3v31.4c-.1 6.8-5.6 12.3-12.3 12.3M142.533 427.267c-4.4-2.9-5.7-8.8-2.8-13.2l13.3-20.6c2.9-4.4 8.8-5.7 13.2-2.8s5.7 8.8 2.8 13.2l-13.3 20.6c-2.9 4.4-8.8 5.6-13.2 2.8M72.433 349.767c-2.4-4.7-.6-10.4 4.1-12.9l21.8-11.2c4.7-2.4 10.4-.6 12.9 4.1 2.4 4.7.6 10.4-4.1 12.9l-21.8 11.2c-4.8 2.4-10.5.6-12.9-4.1M51.433 258.067c0-6.8 5.5-12.3 12.3-12.3h31.4c6.8 0 12.3 5.5 12.3 12.3s-5.5 12.3-12.3 12.3h-31.4c-6.8 0-12.3-5.5-12.3-12.3M77.133 155.367c2.5-4.6 8.3-6.4 12.9-3.9l21.6 11.6c4.6 2.5 6.4 8.3 3.9 12.9s-8.3 6.4-12.9 3.9l-21.6-11.6c-4.7-2.5-6.4-8.2-3.9-12.9M171.233 119.467c-4.5 2.8-10.4 1.4-13.1-3.1l-13-20.8c-2.8-4.5-1.4-10.4 3.1-13.1 4.5-2.8 10.4-1.4 13.1 3.1l13 20.8c2.8 4.4 1.4 10.3-3.1 13.1M273.733 109.967c-6.8 0-12.3-5.5-12.3-12.3v-31.4c0-6.8 5.5-12.3 12.3-12.3s12.3 5.5 12.3 12.3v31.4c0 6.8-5.5 12.3-12.3 12.3M237.933 109.967c-6.8 0-12.3-5.5-12.3-12.3v-31.4c0-6.8 5.5-12.3 12.3-12.3s12.3 5.5 12.3 12.3v31.4c0 6.8-5.5 12.3-12.3 12.3" class="st3"/></svg>