<?xml version="1.0" encoding="utf-8"?>
<!-- Generator: Adobe Illustrator 24.1.2, SVG Export Plug-In . SVG Version: 6.00 Build 0)  -->
<svg version="1.1"
	 id="Layer_1" xmlns:cc="http://creativecommons.org/ns#" xmlns:dc="http://purl.org/dc/elements/1.1/" xmlns:rdf="http://www.w3.org/1999/02/22-rdf-syntax-ns#" xmlns:svg="http://www.w3.org/2000/svg"
	 xmlns="http://www.w3.org/2000/svg" xmlns:xlink="http://www.w3.org/1999/xlink" x="0px" y="0px" viewBox="0 0 1256 1256"
	 style="enable-background:new 0 0 1256 1256;" xml:space="preserve">
<style type="text/css">
	.st0{fill:#010101;}
</style>
<path class="st0" d="M1165,764.1c-8.3-36.4-68.5-141.3-191.6-234.4c-22.5-17.1-42.8-31.3-59.7-42.6
	c24.6-105.3-103.3-232.3-228.1-172.5C596,230.3,496.1,195.9,404.2,197.3c-243.3,3.4-431,256.9-229.1,498.8c0.1,0.1,0.2,0.2,0.4,0.4
	c3.1,3.7,6.3,7.4,9.5,11.1c13.1,15.7,21.8,29.6,29.2,54.1L274.4,959h-21.3c-19.6,0-35.6,15.9-35.6,35.6h80.8l135.8,64.2
	c8.4-17.8,0.8-39-16.9-47.3l-35.6-16.8H484c0-19.6-15.9-35.6-35.6-35.6h-92.8c-16.2,0-30.6-10.6-35.3-26.1l-47.7-156.7
	c-11.9-41.2,15.4-68.1,41.1-71.3c23.4-2.9,35.2,12.2,46.2,48.8l42.4,139h-21.3c-19.6,0-35.6,15.9-35.6,35.6h80.8l135.8,64.2
	c8.4-17.8,0.8-39-16.9-47.3l-35.6-16.8h75.1c7.6,12.9,16.9,25.1,28,36.1c70,70,183.7,70,253.7,0s70-183.7,0-253.7s-183.7-70-253.7,0
	c-49.2,49.2-63.9,120-43.9,182h-85c-16.2,0-30.6-10.6-35.3-26.1L378,635.4l12-6.4c167.1-70.1,345.8,55.1,470.2-65.2
	c0.3-0.3,0.6-0.6,0.8-0.8c15.4-14,30.8-28.3,76.3,0.2c49,30.7,157.1,110.8,206.1,247.8C1143.5,811,1173.2,800.4,1165,764.1z
	 M821.2,460.6c-0.4-18.7-15.6-33.7-34.5-33.7c-19,0-34.5,15.4-34.5,34.5c0,10.4,4.6,19.6,11.8,25.9c-25-4.8-43.8-26.6-43.8-52.9
	c0-29.8,24.1-53.9,53.9-53.9c29.8,0,53.9,24.1,53.9,53.9C828,443.9,825.5,452.8,821.2,460.6z"/>
</svg>
