<svg clip-rule="evenodd" fill-rule="evenodd" stroke-linejoin="round" stroke-miterlimit="1.41421" viewBox="0 0 768 624" xmlns="http://www.w3.org/2000/svg"><path d="m30 34v140l260 255 115-5h80l245-250v-140h-10l-335 340-345-340z" fill="#3c4b5a"/><path d="m140 418-58 57 1 25v19l57 57h27v-1l-76-78.5 76-77.5v-1z" fill="#3c4b5a" stroke-width="1.03281"/><path d="m83.041215 464.92108h.001l-.04211 27.03092h11l73.000005-74v14.301l-63 64.199 63 65.5v14l-73.000002-75h-13c-2 0-4-2-4-4h-2v-33h2c0-1 1-2 3.00004-2 1.99996 0 2.99996 1 2.99996 2z" fill="#b12f35" transform="translate(-.000108 .048)"/><g fill="#3c4b5a"><path d="m21 426h30.015202v153h-30.015202z" fill-rule="nonzero" transform="matrix(1.03281 0 0 1.0326797 24.31099 -21.921569)"/><path d="m247 469h24v107h-24z" stroke-width="1.196096"/><path d="m371.98888 521.45953c0-10.8903-2.45322-19.36013-7.36207-25.4107-4.90765-6.05057-12.80741-9.07465-23.69929-9.07465-2.28639 0-4.6724.10081-7.16044.30241-2.48802.20161-4.94125.63842-7.36207 1.31044v60.29926c2.15197 1.47844 5.00967 2.85727 8.57188 4.13411 3.56342 1.27684 7.36208 1.91526 11.39597 1.91526 8.87554 0 15.36385-3.02409 19.46496-9.07465 4.10111-6.05057 6.15106-14.18439 6.15106-24.40148zm25.01112-.40321c0 8.06663-1.04178 15.46123-3.12654 22.18261-2.08476 6.72259-5.07568 12.50434-8.97515 17.34409-3.89947 4.83973-8.77472 8.60423-14.62333 11.29351-5.8498 2.68927-12.47254 4.0333-19.86702 4.0333-4.97606 0-9.54765-.60481-13.71597-1.81445-4.16832-1.21082-7.59731-2.55487-10.28698-4.03451v40.93913h-24.40501v-139.35264c4.97486-1.34524 11.09352-2.62207 18.35477-3.83171 7.26125-1.21083 14.92578-1.81565 22.99357-1.81565 8.33664 0 15.79953 1.27684 22.38866 3.83171 6.58794 2.55487 12.20251 6.21857 16.84131 10.9911s8.20221 10.5543 10.69024 17.34408c2.48684 6.78859 3.73145 14.4184 3.73145 22.88943z" fill-rule="nonzero" stroke-width="1.20012"/><path d="m492.9892 521.45953c0-10.8903-2.4544-19.36013-7.36198-25.4107-4.90759-6.05057-12.80725-9.07465-23.699-9.07465-2.28636 0-4.67354.10081-7.16034.30241-2.488.20161-4.94119.63842-7.36197 1.31044v60.29926c2.15074 1.47844 5.00839 2.85727 8.57176 4.13411s7.36198 1.91526 11.39582 1.91526c8.87423 0 15.36246-3.02409 19.46352-9.07465 4.10106-6.05057 6.15219-14.18439 6.15219-24.40148zm25.0108-.40321c0 8.06663-1.04297 15.46123-3.1265 22.18261-2.08474 6.72259-5.07681 12.50434-8.97624 17.34409-3.89942 4.83973-8.77341 8.60423-14.62314 11.29351-5.84854 2.68927-12.47119 4.0333-19.86677 4.0333-4.9748 0-9.54633-.60481-13.7146-1.81445-4.16827-1.21082-7.59722-2.55487-10.28684-4.03451v40.93913h-24.40591v-139.35264c4.97599-1.34524 11.09337-2.62207 18.35454-3.83171 7.26115-1.21083 14.92558-1.81565 22.99328-1.81565 8.33773 0 15.80052 1.27684 22.38838 3.83171 6.58905 2.55487 12.20235 6.21857 16.84229 10.9911 4.63875 4.77253 8.20211 10.5543 10.69012 17.34408 2.48679 6.78859 3.73139 14.4184 3.73139 22.88943z" fill-rule="nonzero" stroke-width="1.200112"/><path d="m537 521.00591c0-9.30123 1.37492-17.45591 4.12595-24.46521 2.74984-7.00931 6.40632-12.83838 10.96942-17.48839 4.56191-4.65121 9.79451-8.15587 15.699-10.51396 5.90328-2.3593 11.94191-3.53835 18.11469-3.53835 14.49054 0 25.79531 4.51527 33.91308 13.5458 8.11897 9.03174 12.17786 22.51016 12.17786 40.43768 0 1.34749-.0335 2.8646-.1006 4.54896-.0671 1.68555-.16768 3.20147-.30182 4.55015h-69.43942c.67068 8.49155 3.65646 15.06171 8.95733 19.71294 5.29967 4.65001 12.98149 6.97562 23.04547 6.97562 5.9033 0 11.30477-.5402 16.20202-1.61818 4.89726-1.07799 8.75493-2.22335 11.57304-3.43729l3.22052 20.01612c-1.34138.67495-3.18699 1.38237-5.53561 2.12349-2.34742.74112-5.03139 1.41485-8.05071 2.02242-3.01811.60637-6.27217 1.11168-9.76096 1.51592-3.4888.40425-7.04467.60637-10.66761.60637-9.25915 0-17.30985-1.38116-24.15211-4.14471-6.84346-2.76354-12.47968-6.60507-16.90744-11.52457-4.42778-4.91951-7.71537-10.7161-9.86278-17.38854-2.14622-6.67123-3.21932-13.98373-3.21932-21.93627zm70.64548-10.91821c0-3.36991-.46948-6.57138-1.40846-9.60442-.93897-3.03303-2.31508-5.66063-4.12595-7.88517-1.81207-2.22335-4.02535-3.97627-6.64226-5.25638-2.61689-1.28131-5.73561-1.92137-9.35855-1.92137-3.75708 0-7.04466.70743-9.86278 2.1235-2.8181 1.41484-5.19906 3.26883-7.14527 5.55956-1.94501 2.29192-3.45526 4.92071-4.52837 7.88516-1.0731 2.96567-1.81206 5.99871-2.21447 9.09912z" fill-rule="nonzero" stroke-width="1.200384"/><path d="m717.7869 492.26931c-2.00567-.67394-4.78138-1.38159-8.32593-2.12292-3.54453-.74135-7.65736-1.11202-12.33845-1.11202-2.67542 0-5.51799.26957-8.52649.80874-3.0097.53915-5.11684 1.01091-6.32025 1.41528v84.74161h-24.27578v-100.71896c4.68109-1.75347 10.53216-3.40464 17.55439-4.95472 7.02224-1.55128 14.81332-2.32632 23.37323-2.32632 1.60574 0 3.47769.10109 5.61827.30328 2.13938.20218 4.27996.47176 6.42053.80873 2.13939.33697 4.2131.74255 6.21878 1.21431 2.00687.47176 3.6114.90983 4.8148 1.3142z" fill-rule="nonzero" stroke-width="1.198655"/></g><path d="m259 424h101v-65l-330-325h60l295 290 285-290h60l-320 325v84.99783c0 5.00217-5 10.00217-10 10.00217h-141c-12 0-14-10-14-15s2-15 14-15z" fill="#b12f35"/><path d="m191 418h24v158h-24z" style="clip-rule:evenodd;fill:#3c4b5a;fill-rule:nonzero;stroke-width:1.03281;stroke-linejoin:round;stroke-miterlimit:1.41421"/></svg>