<svg xmlns="http://www.w3.org/2000/svg" width="784" height="784" fill="none"><circle cx="391.66" cy="391.66" r="391.66" fill="#00B9FE"/><path fill="#fff" stroke="#000" stroke-linecap="round" stroke-linejoin="round" stroke-width="30" d="M586.053 412.101a279.762 279.762 0 0 1-39.782 1.808V283.714h27.124a54.25 54.25 0 0 1 45.207 21.699 64.561 64.561 0 0 1 14.466 41.591 60.577 60.577 0 0 1-47.015 65.097Zm112.112-90.413a118.429 118.429 0 0 0-17.527-46.288 118.428 118.428 0 0 0-34.912-35.084A138.696 138.696 0 0 0 566.162 215H168.343a23.142 23.142 0 0 0-19.891 21.699v5.425s-1.808 175.402 1.808 271.24a59.49 59.49 0 0 0 59.673 56.056s182.635 0 269.432-1.808h12.658c50.631-12.658 54.248-59.673 54.248-84.988 99.455 3.616 169.977-66.906 151.894-160.936Z"/><path fill="#FF5E5B" d="M343.749 493.473c5.424 1.809 7.233 0 7.233 0s63.289-57.864 92.221-92.221c25.316-30.741 27.124-79.564-16.274-99.455-43.399-19.891-79.564 21.699-79.564 21.699a71.243 71.243 0 0 0-47.503-25.817 71.24 71.24 0 0 0-51.952 14.968l-1.808 1.808c-21.699 23.507-14.466 63.289 1.808 84.989a1088.121 1088.121 0 0 0 92.222 90.413l3.617 3.616Z"/><path fill="url(#a)" d="M347.358 495.282a6.688 6.688 0 0 0 5.424-1.809s63.29-57.864 92.222-92.221c25.316-30.741 27.124-79.564-16.274-99.455-43.399-19.891-79.564 21.699-79.564 21.699a71.243 71.243 0 0 0-47.503-25.817 71.24 71.24 0 0 0-51.952 14.968l-1.808 1.808c-21.699 23.507-14.466 63.289 1.808 84.989a1131.596 1131.596 0 0 0 94.03 92.221c0 3.617 1.808 3.617 3.617 3.617Z"/><defs><linearGradient id="a" x1="286.057" x2="361.1" y1="162.38" y2="392.753" gradientUnits="userSpaceOnUse"><stop stop-color="#FF4EA3"/><stop offset="1" stop-color="#FF5E5B"/></linearGradient></defs></svg>