<svg xmlns="http://www.w3.org/2000/svg" width="800" height="800" fill="#12b2e7" viewBox="0 0 32 32"><path d="M16.041.063c-.301 0-.604.14-.896.432-1.228 1.229-2.452 2.459-3.681 3.693-.313.307-.604.635-.937.927-.412.355-.543.776-.532 1.312.027 1.871.011 3.735.011 5.6v5.812c0 .145.005.297.041.437.115.448.401.527.724.197 1.751-1.744 3.495-3.495 5.24-5.239l5.932-5.937c.573-.579.573-1.209 0-1.781L16.927.495c-.287-.292-.588-.432-.891-.432zm9.631 9.64c-.297 0-.593.141-.865.412l-5.047 5.047c-.572.573-.567 1.193 0 1.76l5.011 5.021c.589.588 1.213.588 1.797.005 1.62-1.625 3.235-3.245 4.859-4.865.245-.239.469-.484.573-.817v-.443c-.104-.333-.328-.577-.573-.823-1.629-1.625-3.255-3.26-4.885-4.891-.276-.271-.572-.407-.869-.407zm-20.099.442c-.115.021-.193.125-.276.215L.281 15.427c-.375.38-.375.907.005 1.281l2.724 2.729c.787.787 1.568 1.579 2.353 2.365.224.224.439.181.553-.115.061-.152.083-.324.088-.485.005-1.713.005-3.421.005-5.135h-.005v-5.156c0-.115-.016-.224-.032-.333-.02-.183-.093-.344-.276-.417a.247.247 0 0 0-.124-.016zm10.547 9.12c-.303 0-.599.141-.875.423l-5.032 5.025c-.577.584-.577 1.204 0 1.781 1.625 1.62 3.245 3.24 4.86 4.865.239.239.479.473.812.577h.443c.323-.093.563-.301.797-.536 1.629-1.641 3.265-3.271 4.901-4.907.572-.573.567-1.208-.005-1.787l-5.032-5.025c-.276-.281-.573-.417-.869-.417z"/></svg>