<?xml version="1.0" encoding="utf-8"?>
<!-- Generator: Adobe Illustrator 27.7.0, SVG Export Plug-In . SVG Version: 6.00 Build 0)  -->
<svg version="1.1"
	 id="Layer_1" xmlns:sodipodi="http://sodipodi.sourceforge.net/DTD/sodipodi-0.dtd" xmlns:svg="http://www.w3.org/2000/svg" xmlns:inkscape="http://www.inkscape.org/namespaces/inkscape" sodipodi:docname="Kodi (software) logo.svg"
	 xmlns="http://www.w3.org/2000/svg" xmlns:xlink="http://www.w3.org/1999/xlink" x="0px" y="0px" viewBox="0 0 512 512"
	 style="enable-background:new 0 0 512 512;" xml:space="preserve">
<style type="text/css">
	.st0{fill:#17B2E7;}
</style>
<sodipodi:namedview  bordercolor="#000000" borderopacity="0.25" id="namedview19" inkscape:current-layer="Layer_1" inkscape:cx="137.17872" inkscape:cy="46.315494" inkscape:deskcolor="#d1d1d1" inkscape:pagecheckerboard="0" inkscape:pageopacity="0.0" inkscape:showpageshadow="2" inkscape:window-height="1009" inkscape:window-maximized="1" inkscape:window-width="1920" inkscape:window-x="-8" inkscape:window-y="-8" inkscape:zoom="2.8284271" pagecolor="#ffffff" showgrid="false">
	</sodipodi:namedview>
<g>
	<path id="path2" class="st0" d="M512,260.2c-1.6,5.4-5.3,9.3-9.1,13.1c-26,25.9-51.9,51.8-77.8,77.8c-9.3,9.4-19.3,9.3-28.7-0.1
		c-26.7-26.8-53.5-53.5-80.2-80.3c-9.1-9.1-9.1-19.1,0-28.2c26.9-26.9,53.8-53.8,80.7-80.8c8.8-8.8,19-8.8,27.8,0
		c26.1,26.1,52.1,52.2,78.2,78.2c3.9,3.9,7.5,7.8,9.1,13.2C512,255.6,512,257.9,512,260.2z"/>
	<path id="path4" class="st0" d="M254.2,511c-5.3-1.7-9.2-5.4-13-9.3c-25.9-26-51.8-51.9-77.7-77.8c-9.3-9.3-9.3-19.2,0-28.5
		c26.8-26.8,53.6-53.7,80.5-80.5c8.9-8.9,19.1-9,28-0.1c26.8,26.8,53.6,53.7,80.5,80.5c9.2,9.2,9.2,19.3,0.1,28.5
		c-26.1,26.2-52.3,52.3-78.4,78.5c-3.7,3.7-7.6,7.1-12.8,8.6C258.9,511,256.5,511,254.2,511z"/>
	<path id="path6" class="st0" d="M160.1,192.4c0-29.8,0.3-59.7-0.2-89.5c-0.1-8.6,1.9-15.4,8.5-21.1c5.3-4.6,10-9.9,15-14.9
		c19.7-19.7,39.3-39.4,59-59c9.3-9.3,19.2-9.2,28.5,0c26.8,26.8,53.5,53.5,80.2,80.3c9.2,9.2,9.2,19.3,0,28.5
		c-31.6,31.7-63.3,63.3-94.9,95c-27.9,28-55.9,55.9-83.8,83.9c-5.2,5.2-9.8,4-11.6-3.2c-0.6-2.2-0.6-4.6-0.6-6.9
		C160.1,254.4,160.1,223.4,160.1,192.4z"/>
	<path id="path8" class="st0" d="M96.1,257.1c0,27.4,0,54.8-0.1,82.2c0,2.6-0.4,5.4-1.4,7.8c-1.8,4.8-5.3,5.3-8.8,1.8
		c-12.6-12.6-25.2-25.2-37.7-37.8c-14.5-14.6-29.1-29.1-43.6-43.7c-6-6-6-14.4,0-20.4c26.7-27.1,53.5-54.1,80.3-81.1
		c1.8-1.8,3.4-4.2,6.4-3.1c2.9,1.1,4,3.7,4.4,6.6c0.3,1.8,0.5,3.6,0.5,5.4C96.1,202.1,96.1,229.6,96.1,257.1
		C96.1,257.1,96.1,257.1,96.1,257.1z"/>
</g>
</svg>
