<svg xmlns="http://www.w3.org/2000/svg" width="512pt" height="512pt" viewBox="0 0 512 512"><path fill="#005ed3" d="M512 256c0 141.387-114.613 256-256 256S0 397.387 0 256 114.613 0 256 0s256 114.613 256 256zm0 0"/><path d="M512 256c0-11.71-.805-23.23-2.324-34.523L382.48 94.28l-61.957 27.578L256 56.934l-43.305 74.37-83.175-37.023 12.347 84.14-91.918 15.395L114.32 256l-64.37 62.184 82.12 82.16-2.55 17.375 91.957 91.957A258.726 258.726 0 0 0 256 512c141.387 0 256-114.613 256-256Z" style="fill:#00459f"/><path fill="#ff0335" d="m256 86.742 37.11 63.738 70.574-31.414-10.528 71.72 77.078 12.91L376.09 256l54.144 52.305-77.078 12.91 10.528 71.719-70.575-31.414L256 425.258l-37.11-63.738-70.574 31.414 10.528-71.72-77.078-12.91L135.91 256l-54.144-52.305 77.078-12.91-10.528-71.719 70.575 31.414zm0 0"/><path fill="#c2001b" d="m430.23 308.3-77.07 12.91 10.52 71.72-70.57-31.41L256 425.262V86.738l37.11 63.742 70.57-31.41-6.758 46.102-3.762 25.617 58.8 9.852 18.27 3.058-13.39 12.93L376.09 256l11.379 10.988zm0 0"/><path fill="#ffdf47" d="m256 455.066-43.305-74.37-83.175 37.023 12.347-84.14-91.918-15.395L114.32 256l-64.37-62.184 91.917-15.394-12.347-84.14 83.18 37.023L256 56.934l43.305 74.37 83.175-37.023-12.347 84.14 91.918 15.395L397.68 256l64.37 62.184-91.917 15.398 12.347 84.137-83.175-37.024zm-30.918-112.722L256 395.445l30.918-53.101 57.965 25.8-8.703-59.292 62.238-10.426L354.5 256l43.918-42.426-62.238-10.426 8.703-59.293-57.965 25.801L256 116.555l-30.918 53.101-57.965-25.8 8.703 59.292-62.238 10.426L157.5 256l-43.918 42.426 62.238 10.426-8.703 59.293zm0 0"/><path fill="#fec000" d="m403.309 261.441-5.63-5.441 25.16-24.3 39.212-37.88-55.75-9.34-36.172-6.058 2.8-19.094 9.551-65.047-83.18 37.02L256 56.93v59.62l30.922 53.11 57.957-25.808-3.91 26.668-2.547 17.378-2.242 15.25 2.48.422 59.762 10.008L354.5 256l16.969 16.39 26.953 26.032-62.242 10.43 8.699 59.296-57.957-25.808L256 395.45v59.62l43.3-74.37 83.18 37.019-12.351-84.14 91.922-15.4zm0 0"/><g style="font-style:normal;font-variant:normal;font-weight:400;font-stretch:normal;font-size:296.55969238px;line-height:125%;font-family:Impact;-inkscape-font-specification:Impact;letter-spacing:0;word-spacing:0;fill:#fff;fill-opacity:1;stroke:#000;stroke-width:1.54528999;stroke-linecap:butt;stroke-linejoin:round;stroke-miterlimit:4;stroke-dasharray:none;stroke-opacity:1"><path d="m220.915 266.904-34.898 105.852 38.228 128.586h-62.99L136.64 400.848v100.494H75.676V266.904h60.963v91.082l27.078-91.082z" aria-label="K" style="font-size:296.55969238px;fill:#fff;fill-opacity:1;stroke:#000;stroke-width:1.54528999;stroke-linecap:butt;stroke-linejoin:round;stroke-miterlimit:4;stroke-dasharray:none;stroke-opacity:1" transform="matrix(1.15908 -.34467 .2279 .79498 0 0)"/></g></svg>