<?xml version="1.0" encoding="utf-8"?>
<!-- Generator: Adobe Illustrator 27.7.0, SVG Export Plug-In . SVG Version: 6.00 Build 0)  -->
<svg version="1.1"
	 id="svg13452" xmlns:cc="http://creativecommons.org/ns#" xmlns:inkscape="http://www.inkscape.org/namespaces/inkscape" xmlns:rdf="http://www.w3.org/1999/02/22-rdf-syntax-ns#" xmlns:dc="http://purl.org/dc/elements/1.1/" xmlns:sodipodi="http://sodipodi.sourceforge.net/DTD/sodipodi-0.dtd" xmlns:svg="http://www.w3.org/2000/svg" inkscape:version="0.92.5 (2060ec1f9f, 2020-04-08)" sodipodi:docname="favicon.svg"
	 xmlns="http://www.w3.org/2000/svg" xmlns:xlink="http://www.w3.org/1999/xlink" x="0px" y="0px" viewBox="0 0 512 512"
	 style="enable-background:new 0 0 512 512;" xml:space="preserve">
<style type="text/css">
	.st0{fill:#273773;}
	.st1{fill:#FFFFFF;}
</style>
<sodipodi:namedview  bordercolor="#eeeeee" borderopacity="1" id="namedview13454" inkscape:current-layer="layer1" inkscape:cx="-27.944081" inkscape:cy="126.64019" inkscape:deskcolor="#505050" inkscape:document-units="mm" inkscape:pagecheckerboard="0" inkscape:pageopacity="0" inkscape:showpageshadow="0" inkscape:window-height="995" inkscape:window-maximized="1" inkscape:window-width="1920" inkscape:window-x="1920" inkscape:window-y="24" inkscape:zoom="1.6819304" pagecolor="#505050" showgrid="false">
	</sodipodi:namedview>
<g id="layer1" transform="translate(-93.499298,-103.52287)" inkscape:groupmode="layer" inkscape:label="Calque 1">
	
		<path id="rect1056-5" inkscape:export-filename="rect1056-5.png" inkscape:export-xdpi="109.97723" inkscape:export-ydpi="109.97723" class="st0" d="
		M190.3,103.5h318.5c53.4,0,96.8,43.3,96.8,96.8v318.5c0,53.4-43.3,96.8-96.8,96.8H190.3c-53.4,0-96.8-43.3-96.8-96.8V200.3
		C93.5,146.8,136.8,103.5,190.3,103.5z"/>
	<path id="path13337" class="st1" d="M260.6,153.2c0,68.6,0,206.2,0,412.6c-7.2,0-21.8,0-43.9,0c0-68.6,0-206.2,0-412.6
		C223.9,153.2,238.5,153.2,260.6,153.2L260.6,153.2z M482.3,153.2c0,7.2,0,21.8,0,43.9c0,59-22.3,105.8-67,140.4
		c-44.2,34.1-95.8,51.1-154.8,51.1c0-9.6,0-24.2,0-43.9c49.4,0,91.2-14.9,125.3-44.6c34.6-29.3,51.8-63.6,51.8-103
		c0-9.6,0-24.2,0-43.9C445.4,153.2,460.3,153.2,482.3,153.2z M349.1,329.6c39.4,0,68.9,12.5,88.6,37.4
		c19.7,24.5,29.5,51.4,29.5,80.6c0,26.4,0,65.8,0,118.1c-7.2,0-21.8,0-43.9,0c0-17.3,0-51.6,0-103c0-29.8-9.8-54.5-29.5-74.2
		c-19.7-19.7-44.4-29.5-74.2-29.5C326.3,352.9,336.2,343.1,349.1,329.6z"/>
</g>
</svg>
