<svg xmlns="http://www.w3.org/2000/svg" xmlns:xlink="http://www.w3.org/1999/xlink" version="1.1" id="图层_1" x="0px" y="0px" style="enable-background:new 0 0 512 512;" xml:space="preserve" viewBox="0 0 512 512">
<style type="text/css">
	.st0{fill:#87EB00;}
	.st1{fill:#FFFFFF;}
</style>
<g>
	<path class="st0" d="M512,396.32C512,460.21,460.21,512,396.31,512H115.69C51.8,512,0,460.21,0,396.32V115.68   C0,51.79,51.8,0,115.69,0h280.62C460.21,0,512,51.79,512,115.68V396.32z"/>
	<polygon points="461.58,173.96 65.79,173.96 38.3,304.09 50.52,326.61 324.34,326.61 342.34,359.8 360.41,359.8 367.43,326.61    446.16,326.61 473.7,196.29  "/>
	<polygon class="st1" points="164.32,189.43 130.31,189.43 105.61,217.67 111.58,189.43 77.37,189.43 54.79,296.32 89,296.32    95.05,267.63 110.62,296.32 141.74,296.32 144.2,284.64 123.84,247.07 161.17,204.36  "/>
	<polygon class="st1" points="449.13,189.43 415.11,189.43 390.42,217.67 396.38,189.43 362.18,189.43 339.6,296.32 373.8,296.32    379.87,267.63 395.42,296.32 426.55,296.32 429.02,284.64 408.64,247.07 445.98,204.36  "/>
	<path class="st1" d="M249.93,189.43h-71.3l-11.17,12.77l-17.19,81.39l6.9,12.73h70.98l11.45-13.1l17.15-81.22L249.93,189.43z    M206.71,261.15h-14.14l7.73-36.56h14.14L206.71,261.15z"/>
	<path class="st1" d="M345.5,189.43h-71.3l-11.17,12.77l-17.19,81.39l6.9,12.73h70.98l11.45-13.1l17.15-81.22L345.5,189.43z    M302.28,261.15h-14.14l7.72-36.56h14.14L302.28,261.15z"/>
</g>
</svg>