<svg xmlns="http://www.w3.org/2000/svg" fill="none" viewBox="0 0 111 41">
  <path fill-rule="evenodd" clip-rule="evenodd" d="M6.98 20.14c.47-.3 1.5-.96 2.71-1.6-1.02-2.38-1.6-4.48-1.57-6.1C8.12 8.9 9 6 10.52 4.5c4-3.94 11.84 1.1 15.42 6.42 1.1-.15 2.4-.35 3.52-.36C25.88 4.25 18.6 0 14.05 0 7.79 0 5 6.25 5 12.45c.01 2.95 1.02 5.37 1.98 7.69Zm22.85-7.74c-1.78 0-2.94.26-2.94.26.39.9.67 1.93.83 3 .7-.1 1.42-.18 2.1-.17 3.98-.02 6.44 2.2 6.55 5 0 1.48-.81 3.42-1.6 5.3-.4.95-1.14 2.8-1.53 4.38-.65 2.63-2.56 9.98-6.86 7.14-1 .42-2.34 1.03-3.38 1.31C25.05 40.4 26.44 41 28.43 41c5.33 0 7.15-7.32 7.84-10.08.67-3 3.27-7.21 3.22-10.43-.07-4.86-4.6-8.24-9.66-8.1Z" fill="#00AD00"/>
  <path fill-rule="evenodd" clip-rule="evenodd" d="M24.8 35.98c-.8-.76-1.58-1.54-2.36-2.33-5.53 2.03-12.45-.35-16.5-4.19-1.45-1.42-2.31-3-2.31-4.24 0-1.73.57-2.98 1.8-3.94a54.5 54.5 0 0 1-1.17-2.94A7.74 7.74 0 0 0 .5 25.22c0 2.09 1.15 4.36 3.24 6.4 4.16 4.27 13.88 7.99 21.05 4.36Zm76.41-23.08c-3.39 0-6.22.6-8.8 1.6v16.7h5.73V17.8a7.49 7.49 0 0 1 2.93-.55c3.1 0 3.7 1.84 3.7 5.25v8.7h5.73v-9.53c0-5.33-1.82-8.76-9.29-8.76ZM46.52 31.19h5.72V6.69h-5.72v24.5Zm18.47-17.64h-6.5l-6.24 8 6.55 9.64h6.78l-7.1-9.84 6.5-7.8Zm12.35 13.92c-.9 0-2-.17-2.58-.39v-9.37c3.45-1.33 7.05-.43 6.97 4.5 0 3.4-1.3 5.26-4.4 5.26Zm.27-14.57c-3.02 0-6.18.65-8.56 1.6v23.55h5.71v-6.72c7.2 1.29 12.99-1.64 12.86-9.16 0-5.95-3.25-9.27-10-9.27Zm-59.21.87 2.13 2.16 2.13-2.16-2.13-2.16-2.14 2.16Zm2.74 11.48c.94.02 1.9.08 2.87.22 1.54-2.35 2.32-4.35 2.13-5.75-.25-2.27-2.25-3.65-4.7-2.78v2.34c1.05-.11 1.89-.02 1.85.95 0 .63-.3 1.54-1.9 4.54l-.25.48Zm4.71-.15-.56.53c.93.18 1.89.4 2.75.68 2.1-1.75 2.77-3.03 2.7-4.11.02-1.66-1.53-2.64-3.33-2.47.05.68-.03 1.4-.22 2.1 0 0 .94-.14.94.45 0 .46-.33.98-2.28 2.83Zm-5.93.15c-.95.02-1.9.08-2.88.22-1.54-2.35-2.32-4.35-2.13-5.75.25-2.27 2.25-3.65 4.7-2.78v2.34c-1.05-.11-1.89-.02-1.85.95 0 .63.3 1.54 1.9 4.54l.26.48Z" fill="#00AD00"/>
  <path fill-rule="evenodd" clip-rule="evenodd" d="m15.2 25.1.56.53c-.93.18-1.89.4-2.75.68-2.09-1.75-2.76-3.03-2.7-4.11-.02-1.66 1.53-2.64 3.33-2.47-.05.68.03 1.4.22 2.1 0 0-.94-.14-.94.45 0 .46.33.98 2.28 2.83Zm5.35 1.68c-2.3 0-4.58.3-6.76.91l.88 2.57a21.96 21.96 0 0 1 11.76 0l.88-2.57a25.23 25.23 0 0 0-6.76-.91Z" fill="#00AD00"/>
</svg>
