<svg xmlns:svg="http://www.w3.org/2000/svg" xmlns="http://www.w3.org/2000/svg" xmlns:xlink="http://www.w3.org/1999/xlink" version="1.1" id="Layer_1" x="0px" y="0px" style="enable-background:new 0 0 512 512;" xml:space="preserve" viewBox="0 41.5 512 429">
<style type="text/css">
	.st0{fill:#ffffff;}
</style>
<g>
	<path class="st0" d="M512,41.5H305.3v250h94.9v139.4H146.6v-45.7H256V73.9H0v311.3h107v64.9c0,10.8,9.6,20.4,20.4,20.4h294.5   c10.8,0,20.4-8.4,20.4-20.4V291.5H512V41.5z M40.9,114.8h173.1v229.6H40.9V114.8z M471.1,250.6H347.3V82.3h123.8V250.6z" fill="#000000"/>
	<path class="st0" d="M127.4,141.2h51.7v39.7h-51.7V141.2z" fill="#000000"/>
	<path class="st0" d="M395.4,112.4h51.7V152h-51.7V112.4z" fill="#000000"/>
	<path class="st0" d="M75.7,198.9h103.4v39.7H75.7V198.9z" fill="#000000"/>
	<path class="st0" d="M75.7,256.6h103.4v39.7H75.7V256.6z" fill="#000000"/>
</g>
</svg>