<?xml version="1.0" encoding="utf-8"?>
<!-- Generator: Adobe Illustrator 27.7.0, SVG Export Plug-In . SVG Version: 6.00 Build 0)  -->
<svg version="1.1" id="Layer_1" xmlns="http://www.w3.org/2000/svg" xmlns:xlink="http://www.w3.org/1999/xlink" x="0px" y="0px"
	 viewBox="0 0 512 512" style="enable-background:new 0 0 512 512;" xml:space="preserve">
<style type="text/css">
	.st0{fill:#D32D27;}
	.st1{fill:#FFFFFF;}
</style>
<path class="st0" d="M76.8,0h358.4C477.6,0,512,34.4,512,76.8v358.4c0,42.4-34.4,76.8-76.8,76.8H76.8C34.4,512,0,477.6,0,435.2V76.8
	C0,34.4,34.4,0,76.8,0z"/>
<g>
	<circle class="st1" cx="108" cy="256" r="44"/>
	<circle class="st1" cx="227" cy="256" r="44"/>
	<circle class="st1" cx="347" cy="256" r="44"/>
	<path class="st1" d="M438,160L438,160c5.5,0,10,4.6,10,10.2v171.5c0,5.7-4.5,10.2-10,10.2l0,0c-5.5,0-10-4.6-10-10.2V170.2
		C428,164.6,432.5,160,438,160z"/>
</g>
</svg>
