<?xml version="1.0" encoding="utf-8"?>
<!-- Generator: Adobe Illustrator 27.7.0, SVG Export Plug-In . SVG Version: 6.00 Build 0)  -->
<svg version="1.1" id="Blue" xmlns="http://www.w3.org/2000/svg" xmlns:xlink="http://www.w3.org/1999/xlink" x="0px" y="0px"
	 viewBox="0 0 512 512" style="enable-background:new 0 0 512 512;" xml:space="preserve">
<style type="text/css">
	.st0{fill:#036C9E;}
</style>
<g>
	<path class="st0" d="M256,0C114.7,0,0,114.7,0,256s114.7,256,256,256c0-16.2,0-41.4,0-69.9l0,0c-0.1,0-0.4,0-0.5,0
		c-103.2,0-186.9-83.7-186.9-186.9S152.3,68.2,255.5,68.2s186.9,83.7,186.9,186.9c0,8.7-0.9,17.2-2,25.6c23.8,0.1,47.4,0.2,68.9,0.7
		c1.2-9.2,2.1-16.6,2.6-25.6C512,114.7,397.3,0,256,0z"/>
	<rect x="242.7" y="84.9" class="st0" width="25.6" height="182.3"/>
	<rect x="242.7" y="257.5" class="st0" width="139" height="24"/>
</g>
</svg>
