<svg xmlns="http://www.w3.org/2000/svg" width="266.667" height="266.667" viewBox="0 0 200 200"><path fill="#165ea8" d="M32.1 1.6C16.7 5.7 5.6 17 1.5 32.5c-2.3 8.8-2.3 126.2 0 135 3.8 14.3 14.1 25.4 28.1 29.9 4.6 1.5 12 1.6 72 1.4l66.9-.3 6.8-3.3c8.6-4.3 15.6-11.3 19.9-19.9l3.3-6.8.3-66.9c.2-60 .1-67.4-1.4-72-4.5-14-15.6-24.3-29.9-28.1C159-.7 40.4-.6 32.1 1.6zm26.7 27c9.9 4.9 22.9 19.8 27.2 31.2l1.7 4.3 12.7.2 12.8.1 1.3-3.7c2.3-6.7 7.9-14.9 15.1-22.2 11-11.1 20.3-14.7 28.7-11.1 3.9 1.6 10.2 8.6 11.2 12.3 1.2 5-4.2 8-11.5 6.3-4.6-1.1-6.7-2.6-11.3-8.4l-2.3-2.9-3.5 1.8c-5.9 3.1-14.2 12.5-18.2 20.7-2 4.2-3.7 8.1-3.7 8.5 0 .5 1.6 1.7 3.6 2.8 1.9 1 4.7 3.2 6 4.8 2.3 2.7 2.5 3.6 2.2 12.5l-.3 9.6-7 1.9c-14.2 3.7-35.5 3.3-50.4-1l-5.3-1.5.4-9.2c.5-10.9 1.9-13.5 8.8-16.8 5.5-2.6 5.5-2.6 1.4-11.3C75 50.3 68 41.9 62.5 38.2c-5.7-3.8-7.2-4-8.5-1-1.4 3.5-3.2 5.3-7 7.3-7.9 4.1-17 1.3-15.5-4.8.9-3.5 7.2-10.7 10.9-12.3 4.9-2.1 10.6-1.7 16.4 1.2zM131 126v25l-13.4 10c-17.5 13.1-17.6 13.1-32.5 2.3-5.8-4.2-12.1-8.9-13.8-10.3l-3.3-2.5v-48.8l3.3.6c1.7.4 6.8 1.3 11.2 2.1 13.8 2.6 36.5 1.5 45.5-2.2 1.4-.6 2.6-1.1 2.8-1.1.1-.1.2 11.1.2 24.9z"/></svg>