<svg xmlns:inkscape="http://www.inkscape.org/namespaces/inkscape" xmlns:dc="http://purl.org/dc/elements/1.1/" xmlns:rdf="http://www.w3.org/1999/02/22-rdf-syntax-ns#" xmlns:cc="http://creativecommons.org/ns#" xmlns:sodipodi="http://sodipodi.sourceforge.net/DTD/sodipodi-0.dtd" xmlns:svg="http://www.w3.org/2000/svg" xmlns="http://www.w3.org/2000/svg" xmlns:xlink="http://www.w3.org/1999/xlink" version="1.1" id="svg8" inkscape:export-xdpi="300" inkscape:export-ydpi="300" x="0px" y="0px" style="enable-background:new 0 0 512 512;" xml:space="preserve" viewBox="2.52 90.79 506.7 330.65">
<style type="text/css">
	.st0{fill:none;stroke:#FFFFFF;stroke-width:5.25;stroke-linecap:round;stroke-linejoin:round;stroke-miterlimit:10;}
	.st1{fill:#FFFFFF;stroke:#000000;stroke-width:5.25;stroke-linecap:round;stroke-linejoin:round;stroke-miterlimit:10;}
	.st2{fill:none;stroke:#000000;stroke-width:6;stroke-linecap:round;stroke-miterlimit:10;}
</style>
<g id="layer1" transform="translate(-36.380379,-256.78621)" inkscape:groupmode="layer" inkscape:label="Layer 1">
	
		<path id="path817-3" inkscape:connector-curvature="0" inkscape:label="white-border" sodipodi:insensitive="true" sodipodi:nodetypes="cccssccccccscccccscccscccscccccsccscccssccscscccscc" class="st0" d="   M104.9,350.2c-0.5,0-1,0-1.5,0c-2.3,0-4.7,0.2-7,0.5c-18.4,2.1-34.9,11.9-45,29c-9.9,16.7-12.4,35.1-7.3,52.2   c5.1,17.1,17.3,32.6,35.5,44.9c0.1,0.1,0.2,0.1,0.3,0.2c15.6,9.4,31.1,15.7,47.7,19c-0.4,6.9-0.4,13.9,0,21.1   c1.3,21.8,9,41.9,20.7,59.6l-41.8,17.1c-4.5,1.8-6.7,6.9-4.9,11.4c1.8,4.5,7,6.6,11.4,4.7l46-18.8c8.5,10.2,18.3,19.4,28.9,27.5   c0.4,0.3,0.8,0.6,1.2,0.9l-27,35.7c-3,3.8-2.2,9.3,1.6,12.3s9.4,2.1,12.2-1.8l27.4-36.3c15,9.5,31,17,46.8,21.9   c8.1,14.8,23.9,24.3,42.2,24.3c18.4,0,34.3-10.2,42.3-24.7c15.6-5,31.4-12.5,46.3-22l27.8,36.8c2.9,3.9,8.4,4.7,12.2,1.8   c3.9-2.9,4.6-8.4,1.6-12.3l-27.4-36.2c0.2-0.1,0.4-0.3,0.5-0.4c10.4-8,20.1-17,28.6-27l44.9,18.3c4.5,1.9,9.6-0.2,11.4-4.7   c1.8-4.5-0.4-9.6-4.9-11.4l-40.5-16.5c12-17.8,20.1-38.1,21.8-60c0.6-7.3,0.7-14.4,0.3-21.3c16.5-3.3,31.9-9.6,47.4-18.9   c0.1-0.1,0.2-0.1,0.3-0.2c18.2-12.3,30.4-27.8,35.5-44.9c5.1-17.1,2.6-35.5-7.3-52.2c-10.1-17.1-26.7-26.8-45-29   c-2.3-0.3-4.6-0.4-7-0.5c-16.4-0.3-33.9,4.8-50.8,14.5c-12.4,7.2-23.6,18.1-32.3,30.1c-24.5-14-56.3-21.9-95.4-22.5   c-3.5-0.1-7.1-0.1-10.7,0c-43.6,0.7-78.5,9-104.8,23.9c-0.1-0.1-0.1-0.2-0.2-0.3c-8.9-12.4-20.3-23.8-33.1-31.1   C137.8,355.3,120.9,350.2,104.9,350.2L104.9,350.2z"/>
	<path id="path1087" inkscape:connector-curvature="0" inkscape:label="ears" sodipodi:insensitive="true" class="st1" d="   M403.7,400.3c8.3-11.6,19.2-22.3,30.7-29c36.2-20.9,74.5-18.1,92.4,12.2c18,30.3,8.1,63.8-25.9,86.9   c-17.4,10.5-34.2,16.8-52.8,19.3 M181.1,400.3c-8.3-11.6-19.2-22.3-30.7-29c-36.2-20.9-74.5-18.1-92.4,12.2   c-18,30.3-8.1,63.8,25.9,86.9c17.4,10.5,34.2,16.8,52.8,19.3"/>
	
		<path id="path969" inkscape:connector-curvature="0" inkscape:label="head" sodipodi:insensitive="true" sodipodi:nodetypes="szszs" class="st1" d="   M449.6,516.5c6.3-81.4-43.8-138.5-157.2-136.7c-113.4,1.9-162.1,55.8-157.2,136.7c4.7,77.2,96.1,133.9,156.6,133.9   S443.6,593.6,449.6,516.5z"/>
	
		<path id="path1084" inkscape:connector-curvature="0" inkscape:label="eyes" sodipodi:insensitive="true" sodipodi:nodetypes="ssssssssss" d="   M345.9,553.1c0,12.6,10.2,22.7,22.7,22.7c12.5,0,22.7-10.2,22.7-22.7c0-12.6-10.2-22.7-22.7-22.7   C356.1,530.4,345.9,540.6,345.9,553.1z M193.4,553.1c0,12.7,10.3,23,22.9,23c12.7,0,22.9-10.3,22.9-23c0-12.7-10.3-23-22.9-23   C203.7,530.2,193.4,540.5,193.4,553.1z"/>
	
		<path id="path1008" inkscape:connector-curvature="0" inkscape:label="whiskers" sodipodi:insensitive="true" sodipodi:nodetypes="cccccccc" class="st2" d="   M198.8,621l-29.6,39.2 M386,621l29.6,39.2 M157.4,582.2l-47.7,19.5 M424.9,582.2l47.7,19.5"/>
	
		<path id="path1115" inkscape:connector-curvature="0" inkscape:label="nose" sodipodi:insensitive="true" sodipodi:nodetypes="zszsz" class="st1" d="   M292.4,590.5c-24.9,0-40.8,17.3-40.3,38.6c0.6,23.1,17.6,38.6,40.3,38.6s40.2-17.9,40.3-38.6C332.7,607.8,317.3,590.5,292.4,590.5z   "/>
</g>
</svg>