<svg height="2500" viewBox=".58270974 .25870974 63.77358058 67.21369903" width="2390" xmlns="http://www.w3.org/2000/svg"><g fill="none"><path d="m46.489 36.568h-8.04v-4.128a5.986 5.986 0 0 0 -5.98-5.979 5.986 5.986 0 0 0 -5.979 5.979v4.128h-8.04v-4.128c0-7.73 6.289-14.02 14.02-14.02s14.02 6.289 14.02 14.02v4.128z" fill="#f9a11d"/><path d="m49.732 36.568h-34.525a2.688 2.688 0 0 0 -2.68 2.68v25.54a2.688 2.688 0 0 0 2.68 2.68h34.525a2.688 2.688 0 0 0 2.68-2.68v-25.54a2.688 2.688 0 0 0 -2.68-2.68zm-15.513 16.769v3.461a1.75 1.75 0 0 1 -3.498 0v-3.46a3.552 3.552 0 1 1 3.498-.001z" fill="#2c3c69"/><path d="m11.707 32.76h-8.331a2.446 2.446 0 1 1 0-4.892h8.331a2.446 2.446 0 1 1 0 4.892zm5.868-13.105a2.433 2.433 0 0 1 -1.552-.557l-6.59-5.419a2.446 2.446 0 0 1 3.108-3.779l6.59 5.419a2.446 2.446 0 0 1 -1.556 4.336zm14.894-5.76a2.446 2.446 0 0 1 -2.446-2.446v-8.397a2.446 2.446 0 1 1 4.892 0v8.397a2.446 2.446 0 0 1 -2.446 2.446zm14.894 5.76a2.447 2.447 0 0 1 -1.556-4.336l6.59-5.419a2.447 2.447 0 0 1 3.108 3.779l-6.59 5.419c-.437.36-.986.558-1.552.557zm14.2 13.105h-8.41a2.446 2.446 0 1 1 0-4.892h8.41a2.446 2.446 0 1 1 0 4.892z" fill="#f9a11d"/></g></svg>