<?xml version="1.0" encoding="utf-8"?>
<!-- Generator: Adobe Illustrator 27.7.0, SVG Export Plug-In . SVG Version: 6.00 Build 0)  -->
<svg version="1.1" id="Layer_1" xmlns="http://www.w3.org/2000/svg" xmlns:xlink="http://www.w3.org/1999/xlink" x="0px" y="0px"
	 viewBox="0 0 512 512" style="enable-background:new 0 0 512 512;" xml:space="preserve">
<style type="text/css">
	.st0{fill:#FFA400;}
	.st1{fill:#003A70;}
</style>
<g>
	<path class="st0" d="M363.4,275.4h-61.6v-31.6c0-25.2-20.5-45.8-45.8-45.8s-45.8,20.5-45.8,45.8v31.6h-61.6v-31.6
		c0-59.2,48.2-107.4,107.4-107.4s107.4,48.2,107.4,107.4L363.4,275.4z"/>
	<path class="st1" d="M388.2,275.4H123.8c-11.3,0-20.5,9.2-20.5,20.5v195.6c0,11.3,9.2,20.5,20.5,20.5h264.4
		c11.3,0,20.5-9.2,20.5-20.5V295.9C408.7,284.6,399.5,275.4,388.2,275.4z M269.4,403.8v26.5c0,7.4-6,13.4-13.4,13.4
		c-7.4,0-13.4-6-13.4-13.4v-26.5c-8.2-4.7-13.8-13.5-13.8-23.7c0-15,12.2-27.2,27.2-27.2c15,0,27.2,12.2,27.2,27.2
		C283.2,390.3,277.6,399.1,269.4,403.8z"/>
	<path class="st0" d="M97,246.2H33.2c-10.3,0-18.7-8.4-18.7-18.7c0-10.3,8.4-18.7,18.7-18.7H97c10.3,0,18.7,8.4,18.7,18.7
		C115.7,237.8,107.4,246.2,97,246.2z M141.9,145.9c-4.2,0-8.4-1.4-11.9-4.3l-50.5-41.5c-8-6.6-9.1-18.4-2.6-26.4
		c6.6-8,18.4-9.1,26.4-2.6l50.5,41.5c8,6.6,9.1,18.4,2.6,26.4C152.7,143.5,147.4,145.9,141.9,145.9z M256,101.8
		c-10.3,0-18.7-8.4-18.7-18.7V18.7C237.3,8.4,245.7,0,256,0c10.3,0,18.7,8.4,18.7,18.7V83C274.7,93.4,266.3,101.8,256,101.8z"/>
	<g>
		<path class="st0" d="M370.1,145.9c-5.4,0-10.8-2.3-14.5-6.8c-6.6-8-5.4-19.8,2.6-26.4l50.5-41.5c8-6.6,19.8-5.4,26.4,2.6
			c6.6,8,5.4,19.8-2.6,26.4l-50.5,41.5C378.6,144.4,374.4,145.9,370.1,145.9z"/>
	</g>
	<path class="st0" d="M478.8,246.2h-64.4c-10.3,0-18.7-8.4-18.7-18.7c0-10.3,8.4-18.7,18.7-18.7h64.4c10.3,0,18.7,8.4,18.7,18.7
		C497.5,237.8,489.1,246.2,478.8,246.2z"/>
</g>
</svg>
