<?xml version="1.0" encoding="utf-8"?>
<!-- Generator: Adobe Illustrator 27.7.0, SVG Export Plug-In . SVG Version: 6.00 Build 0)  -->
<svg version="1.1"
	 id="svg8" xmlns:rdf="http://www.w3.org/1999/02/22-rdf-syntax-ns#" xmlns:cc="http://creativecommons.org/ns#" xmlns:dc="http://purl.org/dc/elements/1.1/" xmlns:inkscape="http://www.inkscape.org/namespaces/inkscape" xmlns:sodipodi="http://sodipodi.sourceforge.net/DTD/sodipodi-0.dtd" xmlns:svg="http://www.w3.org/2000/svg"
	 xmlns="http://www.w3.org/2000/svg" xmlns:xlink="http://www.w3.org/1999/xlink" x="0px" y="0px" viewBox="0 0 512 512"
	 style="enable-background:new 0 0 512 512;" xml:space="preserve">
<style type="text/css">
	.st0{fill:#00ACFF;}
	.st1{fill:#FFFFFF;}
</style>
<sodipodi:namedview  bordercolor="#666666" borderopacity="1.0" fit-margin-bottom="0" fit-margin-left="0" fit-margin-right="0" fit-margin-top="0" id="base" inkscape:current-layer="layer1" inkscape:cx="-15.106575" inkscape:cy="110.91343" inkscape:document-units="mm" inkscape:pageopacity="0.0" inkscape:pageshadow="2" inkscape:showpageshadow="false" inkscape:window-height="711" inkscape:window-maximized="1" inkscape:window-width="1366" inkscape:window-x="0" inkscape:window-y="30" inkscape:zoom="0.9899495" pagecolor="#ffffff" showgrid="false" units="px">
	</sodipodi:namedview>
<g id="layer1" transform="translate(-42.106554,-153.8982)" inkscape:groupmode="layer" inkscape:label="Layer 1">
	<circle id="path875" class="st0" cx="298.1" cy="409.9" r="256"/>
	<path id="path847" inkscape:connector-curvature="0" class="st1" d="M272.2,613.3c-35.9-4.6-70.2-18.9-100.1-41.7
		c-9.8-7.4-28.1-25.9-36.1-36.3c-22.4-29.2-36.3-62.4-40.9-97.4c-2-15-2-42.6,0-56.3c9.9-68.5,53-127.3,115-156.7
		c28.8-13.7,55.2-19.4,88.7-19.4c54.2,0,102.2,19.4,141.2,57c18.8,18.1,31.4,35.3,42.1,57.5c14.6,30,20.5,56.2,20.5,90.7
		c0,45.4-13.1,85-40.3,121.8c-8.1,10.9-23.9,27.6-34.4,36.2c-28.8,23.6-65.5,39.5-101.8,44.3C313.4,614.6,283.7,614.8,272.2,613.3
		L272.2,613.3z M348.1,576.6c21.9-6.9,39.8-16.2,57-29.6c9.2-7.1,25-23.1,31.6-32c18-23.9,30.3-53.8,33.9-82.7
		c1.7-13.9,0.7-43.4-1.9-56.2c-7-33.9-22.2-62.5-46-87c-14.9-15.3-28.4-25.3-45.8-34.1c-26.4-13.2-49.1-18.6-78.8-18.6
		c-31.5,0-59.1,7.2-86.4,22.6c-24.9,14-50.6,39.8-64.7,64.7c-10.4,18.4-18,40.2-20.9,60.2c-1.9,13.1-2,39-0.1,51.6
		c3.8,25.1,13.3,49.8,27.1,70.6c7.5,11.3,7.3,11.2,13.9,7.4c11.9-6.8,15-10.1,21.4-22.8c7.6-14.8,15.7-27.8,23-36.8
		c8.4-10.4,9.6-12.2,13.8-22c2.1-4.9,5.9-12.2,8.5-16.1l4.6-7.1l-6-5.9c-7.9-7.8-14.5-16.6-15.8-21.1c-1.3-4.6,0.2-7.2,6.2-10.6
		c6-3.5,10.3-4.5,26.4-6.1c7.8-0.8,16.4-2.3,19-3.3c2.7-1,10.6-5.4,17.7-9.6c20.4-12.4,22.2-13,34.4-12.8
		c10.3,0.2,10.4,0.2,16.5-3.5c12.9-7.8,31.3-21.8,55.6-42.2c4.7-3.9,9.1-7,10-6.8c3.4,0.7,9.7,16.1,10.7,26.3
		c0.6,6.1-0.6,12.2-4.2,21.7c-1,2.6-1.5,5.1-1,5.5c1,1,4.6-3.4,4.6-5.8c0-3,2-3.3,4.7-0.8c2,1.8,3.6,2.4,7.6,2.4
		c4.3,0,5.3,0.4,7,2.6c2.8,3.8,3.5,14.1,1.3,20.7c-2.1,6.4-8.5,13.7-14.3,16.4c-5.2,2.4-15.7,12.7-20.6,20.1
		c-1.9,2.8-5.4,8.8-7.8,13.2c-2.4,4.4-6.5,11-9.1,14.8c-5,7.3-9.3,17.6-13.5,32c-2.4,8.5-2.6,10.7-2.7,29.7
		c-0.1,22.9-1.3,28.5-7.5,35.6c-7,8-14.1,25.6-14.7,36.7c-0.4,7-1.5,13.8-3,18.9C339.3,578.9,340.6,578.9,348.1,576.6L348.1,576.6z"
		/>
	
		<path id="path814" inkscape:flatsided="true" inkscape:randomized="0" inkscape:rounded="0" sodipodi:arg1="1.5707963" sodipodi:arg2="2.3561945" sodipodi:cx="18.854025" sodipodi:cy="172.98837" sodipodi:r1="1.6036172" sodipodi:r2="1.1339285" sodipodi:sides="4" sodipodi:type="star" class="st0" d="
		M306.3,363.7l9.2-11.8l14.9-2.1l-9.2,11.8L306.3,363.7z"/>
</g>
</svg>
