<svg xmlns="http://www.w3.org/2000/svg" viewBox="0 0 48 48"><g fill-rule="evenodd" color="#000"><path d="M746.52 1098.7c-.755-.02-1.499.452-1.794 1.138a1.898 1.898 0 0 0 .416 2.063l16.196 16.247a1.962 1.962 0 0 0 2.063.42c.69-.275 1.177-.984 1.182-1.718v-16.278c.002-.98-.903-1.874-1.898-1.872z" style="text-decoration-line:none;text-indent:0;text-transform:none" transform="translate(-426.677 -676.164) scale(.6154)"/><path fill="#fff" d="M701.98 1098.7c-.996.014-1.892.925-1.89 1.921v74.157c-.002.996.894 1.907 1.89 1.921h60.677c1.006 0 1.923-.914 1.921-1.92v-47.755a1.941 1.941 0 0 0-.557-1.364l-26.248-26.371a1.942 1.942 0 0 0-1.364-.589z" style="text-decoration-line:none;text-indent:0;text-transform:none" transform="translate(-426.677 -676.164) scale(.6154)"/><path d="M701.98 1098.7a1.918 1.918 0 0 0-1.89 1.921v74.157a1.918 1.918 0 0 0 1.89 1.921h60.677a1.918 1.918 0 0 0 1.921-1.92v-47.755a1.918 1.918 0 0 0-.557-1.364l-26.248-26.371a1.918 1.918 0 0 0-1.364-.589zm1.922 3.843h31.702l25.132 25.256v45.058h-56.834z" style="text-decoration-line:none;text-indent:0;text-transform:none" transform="translate(-426.677 -676.164) scale(.6154)"/></g></svg>