<svg xmlns="http://www.w3.org/2000/svg" width="256" height="256" fill="none"><g clip-path="url(#a)"><path fill="url(#b)" d="M256 0H0v256h256V0Z"/><g fill-rule="evenodd" clip-path="url(#c)" clip-rule="evenodd"><path fill="#FCFCFC" d="M72.872 47.319c-.514.568-.67 160.385-.159 161.341.329.614 109.919.8 110.532.188.456-.456.443-36.182-.013-36.478-.176-.113-17.082-.264-37.568-.335l-37.248-.128-.065-62.06c-.059-57.303-.096-62.097-.487-62.528-.658-.728-34.334-.727-34.992 0Z"/><path fill="#04FCFC" d="M121.097 48.876c-.549 1.027-.349 109.685.203 110.185.64.579 31.531.658 32.009.081.205-.246.303-11.096.352-38.804.066-37.738.077-38.47.564-38.826.415-.303 2.825-.363 14.604-.363 10.632 0 14.184-.076 14.416-.307.443-.444.443-31.71 0-32.154-.611-.61-61.82-.426-62.148.188Z"/><path fill="#1C1C1C" d="M0 128v128h256V0H0v128Zm107.864-80.684c.391.431.428 5.225.487 62.528l.065 62.06 37.248.128c20.486.07 37.392.221 37.568.335.456.295.469 36.021.013 36.478-.613.612-110.203.426-110.532-.188-.511-.957-.355-160.774.159-161.341.658-.727 34.334-.728 34.992 0Zm75.381 1.375c.443.444.443 31.71 0 32.154-.232.231-3.784.307-14.416.307-11.779 0-14.189.06-14.604.364-.487.356-.498 1.087-.564 38.825-.049 27.708-.147 38.558-.352 38.805-.478.576-31.369.498-32.009-.082-.552-.5-.752-109.158-.203-110.185.328-.613 61.537-.798 62.148-.188Z"/></g></g><defs><clipPath id="a"><path fill="#fff" d="M0 0h256v256H0z"/></clipPath><clipPath id="c"><path fill="#fff" d="M0 0h256v256H0z"/></clipPath><linearGradient id="b" x1="128" x2="128" y1="0" y2="256" gradientUnits="userSpaceOnUse"><stop stop-color="#494A49"/><stop offset=".432" stop-color="#989898"/><stop offset=".526" stop-color="#A8A9A8"/><stop offset=".776" stop-color="#828382"/><stop offset="1" stop-color="#505150"/></linearGradient></defs></svg>