<svg xmlns="http://www.w3.org/2000/svg" viewBox="0 0 43.303 43.301" height="163.657" width="163.665"><defs><linearGradient id="A" gradientUnits="userSpaceOnUse" x1="74.831" y1="86.738" x2="74.915" y2="75.556"><stop offset="0" stop-color="#1b75bc"/><stop offset="1" stop-color="#00aeef"/><stop offset="1"/></linearGradient></defs><path d="M43.28 20.7c.53 11.933-8.73 22.066-20.7 22.57A21.62 21.62 0 0 1 .022 22.588C-.508 10.656 8.753.522 20.712.02c11.933-.503 22.04 8.758 22.57 20.7z" fill="#d1d3d4"/><path d="M20.87 3.724c9.895-.423 18.283 7.25 18.733 17.145.423 9.895-7.25 18.283-17.145 18.732-9.895.423-18.283-7.25-18.732-17.145-.45-9.922 7.223-18.31 17.145-18.732z"/><path d="M37.143 23.514l-2.408-.317a12.48 12.48 0 0 0 0-3.44l2.408-.317a17.49 17.49 0 0 1 0 4.075z" fill="#ed1c24"/><path d="M35.502 14.254c.635 1.217 1.11 2.514 1.402 3.836l-2.38.53c-.238-1.11-.635-2.196-1.164-3.228z" fill="#ef4136"/><path d="M35.502 28.7l-2.17-1.11c.53-1.032.926-2.117 1.19-3.228l2.38.53c-.29 1.296-.767 2.593-1.402 3.8z" fill="#be1e2d"/><path d="M34.814 13.1l-2.037 1.296c-.61-.953-1.35-1.852-2.222-2.646l1.64-1.8a15.49 15.49 0 0 1 2.619 3.149z" fill="#f15a29"/><path d="M31.163 9.068L29.68 11a12.52 12.52 0 0 0-2.99-1.72l.926-2.25c1.244.53 2.434 1.19 3.545 2.037z" fill="#f7941d"/><path d="M26.215 31.108h1.826v1.826h-1.826zm-3.65 0H24.4v1.826h-1.826zm-.238-25.24a14.94 14.94 0 0 1 4.022.714l-.74 2.328c-1.032-.317-2.117-.53-3.2-.582l-.16-1.032z" fill="#d1d3d4"/><path d="M21.638 20.736c.556 0 1.032.45 1.032 1.032 0 .556-.45 1.032-1.032 1.032-.556 0-1.032-.45-1.032-1.032.026-.582.476-1.032 1.032-1.032z" fill="#e6e7e8"/><path d="M77.128 92.89c0 1.826-1.032 3.307-2.302 3.307s-2.302-1.482-2.302-3.307l.185-1.35 2.1-14.26 2.1 14.26zm-1.27.185c0-.556-.45-1.032-1.032-1.032-.556 0-1.032.45-1.032 1.032 0 .556.45 1.032 1.032 1.032s1.032-.45 1.032-1.032z" fill="url(#A)" transform="translate(-53.188 -71.332)"/><path d="M16.928 6.555c1.296-.397 2.646-.635 4.022-.714l.053 1.455-.132.98c-1.085.053-2.17.265-3.2.582zm1.958 24.553h1.826v1.826h-1.826zm-3.65 0h1.826v1.826h-1.826zm-3.122-22.04c1.1-.847 2.302-1.535 3.545-2.037l.926 2.25a12.52 12.52 0 0 0-2.99 1.72zm-1.033.9l1.64 1.8-.82.82a12.79 12.79 0 0 0-1.402 1.826l-2.064-1.296c.476-.767 1.032-1.482 1.667-2.17.318-.37.635-.688.98-.98zM9.917 27.6l-2.17 1.1a15.59 15.59 0 0 1-1.402-3.836l2.38-.53c.265 1.1.66 2.222 1.2 3.254zM8.54 23.197l-2.408.317a15.01 15.01 0 0 1 0-4.075l2.408.317a12.48 12.48 0 0 0 0 3.44zM6.372 18.1a15.48 15.48 0 0 1 1.402-3.836l2.17 1.1a14.3 14.3 0 0 0-1.19 3.228z" fill="#d1d3d4"/></svg>