<?xml version="1.0" encoding="utf-8"?>
<!-- Generator: Adobe Illustrator 27.7.0, SVG Export Plug-In . SVG Version: 6.00 Build 0)  -->
<svg version="1.1" id="Layer_1" xmlns="http://www.w3.org/2000/svg" xmlns:xlink="http://www.w3.org/1999/xlink" x="0px" y="0px"
	 viewBox="0 0 512 512" style="enable-background:new 0 0 512 512;" xml:space="preserve">
<style type="text/css">
	.st0{fill:#D1D3D4;}
	.st1{fill:#ED1C24;}
	.st2{fill:#EF4136;}
	.st3{fill:#BE1E2D;}
	.st4{fill:#F15A29;}
	.st5{fill:#F7941D;}
	.st6{fill:#E6E7E8;}
	.st7{fill:url(#SVGID_1_);}
</style>
<g id="XMLID_7_">
	<g>
		<path class="st0" d="M43.7,265.2c5,117,104.2,208,221.5,202.7c117-5,208-104.2,202.7-221.5c-5-117-104.2-208-221.5-202.7
			C129.8,49,39,148.2,43.7,265.2z M511.7,244.9C518,386,408.5,505.8,267.1,511.7C125.7,518,6.2,408.5,0.3,267.1
			C-6,126,103.5,6.2,244.9,0.2C386-5.7,505.5,103.8,511.7,244.9z"/>
		<path d="M410.7,233.6c1.9,13.5,1.9,27.2,0,40.7l28.5,3.8c2.2-16,2.2-32.2,0-48.2L410.7,233.6z M408.2,220.2l28.2-6.3
			c-3.4-15.6-9.1-31-16.6-45.4l-25.7,13.1C400.7,194.2,405.4,207,408.2,220.2z M387.5,170.1l24.1-15.3c-8.4-13.5-18.8-25.7-31-36.9
			l-19.4,21.3C371.6,148.2,380.4,158.9,387.5,170.1z M315.6,109.7c12.5,5,24.4,11.9,35.4,20.3l17.5-22.8
			c-13.1-10-27.2-18.1-41.6-24.1L315.6,109.7z M264.9,98.2c12.8,0.6,25.7,3.1,37.9,6.9l8.8-27.5c-15.3-5-31.6-7.8-47.6-8.4
			l-0.6,16.6L264.9,98.2z M248.6,86.6L248,69.4c-16,0.6-32.2,3.4-47.6,8.4l8.8,27.5c12.5-3.8,25-6.3,37.9-6.9L248.6,86.6z M247.1,44
			c117-5,216.2,85.7,221.5,202.7c5,117-85.7,216.2-202.7,221.5c-117,5-216.2-85.7-221.5-202.7C39,148.2,129.8,49,247.1,44z
			 M228.9,254.9c0,21.6,12.2,39.1,27.2,39.1c15,0,27.2-17.5,27.2-39.1l-2.5-16L256.2,70.3l-24.7,168.6L228.9,254.9z M92.2,339.4
			l25.7-13.1c-6.3-12.2-10.9-25-13.8-38.2L76,294.3C78.8,309.6,84.4,325,92.2,339.4z M72.5,278l28.5-3.8c-1.9-13.5-1.9-27.2,0-40.7
			l-28.5-3.8C70.3,245.8,70.3,262.1,72.5,278z M419.8,339.4c7.5-14.4,13.1-29.7,16.6-45.4l-28.2-6.3c-2.8,13.1-7.5,26-14.1,38.2
			L419.8,339.4z M331.9,389.4v-21.6h-21.6v21.6H331.9z M288.4,389.4v-21.6h-21.6v21.6H288.4z M244.9,389.4v-21.6h-21.6v21.6H244.9z
			 M201.7,389.4v-21.6h-21.6v21.6H201.7z M196.1,109.7l-10.9-26.6c-14.7,5.9-28.8,14.1-41.9,24.1l17.5,22.8
			C172,121.6,183.6,114.7,196.1,109.7z M150.4,138.8L131,117.6c-4.1,3.4-7.8,7.5-11.3,11.3c-7.5,8.1-14.1,16.6-19.7,25.7l24.4,15.3
			c4.7-7.5,10.3-14.7,16.6-21.6C143.8,145.1,147,142,150.4,138.8z M117.3,182l-25.7-13.1c-7.5,14.4-13.1,29.7-16.6,45.4l28.2,6.3
			C106.3,207,111,194.2,117.3,182z"/>
		<path class="st1" d="M439.2,278l-28.5-3.8c1.9-13.5,1.9-27.2,0-40.7l28.5-3.8C441,245.8,441,262.1,439.2,278z"/>
		<path class="st2" d="M419.8,168.5c7.5,14.4,13.1,29.7,16.6,45.4l-28.2,6.3c-2.8-13.1-7.5-26-13.8-38.2L419.8,168.5z"/>
		<path class="st3" d="M419.8,339.4l-25.7-13.1c6.3-12.2,10.9-25,14.1-38.2l28.2,6.3C432.9,309.6,427.3,325,419.8,339.4z"/>
		<path class="st4" d="M411.6,154.8l-24.1,15.3c-7.2-11.3-16-21.9-26.3-31.3l19.4-21.3C392.9,128.8,403.2,141.3,411.6,154.8z"/>
		<path class="st5" d="M368.5,107.2l-17.5,22.8c-10.9-8.4-22.8-15.3-35.4-20.3l10.9-26.6C341.2,89.4,355.3,97.2,368.5,107.2z"/>
		<rect x="310" y="367.8" class="st0" width="21.6" height="21.6"/>
		<rect x="266.8" y="367.8" class="st0" width="21.6" height="21.6"/>
		<path class="st0" d="M264,69.4c16,0.6,32.2,3.4,47.6,8.4l-8.8,27.5c-12.2-3.8-25-6.3-37.9-6.9L263,86.3L264,69.4z"/>
		<path class="st6" d="M255.8,245.2c6.6,0,12.2,5.3,12.2,12.2c0,6.6-5.3,12.2-12.2,12.2c-6.6,0-12.2-5.3-12.2-12.2
			C244,250.5,249.3,245.2,255.8,245.2z"/>
		
			<linearGradient id="SVGID_1_" gradientUnits="userSpaceOnUse" x1="255.8436" y1="649.8727" x2="255.8436" y2="595.6483" gradientTransform="matrix(1 0 0 1 0 -467.5604)">
			<stop  offset="0" style="stop-color:#1B75BC"/>
			<stop  offset="1" style="stop-color:#00AEEF"/>
			<stop  offset="1" style="stop-color:#000000"/>
		</linearGradient>
		<path class="st7" d="M283.1,254.9c0,21.6-12.2,39.1-27.2,39.1s-27.2-17.5-27.2-39.1l2.2-16l24.7-168.6l24.7,168.6L283.1,254.9z
			 M268,257.1c0-6.6-5.3-12.2-12.2-12.2c-6.6,0-12.2,5.3-12.2,12.2c0,6.6,5.3,12.2,12.2,12.2C262.7,269.3,268,264,268,257.1z"/>
		<path class="st0" d="M200.2,77.5c15.3-4.7,31.3-7.5,47.6-8.4l0.6,17.2l-1.6,11.6c-12.8,0.6-25.7,3.1-37.9,6.9L200.2,77.5z"/>
		<rect x="223.6" y="367.8" class="st0" width="21.6" height="21.6"/>
		<rect x="180.1" y="367.8" class="st0" width="21.6" height="21.6"/>
		<path class="st0" d="M143.2,107.2c13.1-10,27.2-18.1,41.9-24.1l10.9,26.6c-12.5,5-24.4,11.9-35.4,20.3L143.2,107.2z"/>
		<path class="st0" d="M131.3,117.9l19.4,21.3c-3.4,3.1-6.6,6.3-9.7,9.7c-6.3,6.9-11.9,14.1-16.6,21.6l-24.4-15.3
			c5.6-9.1,12.2-17.5,19.7-25.7C123.5,125.1,127,121.3,131.3,117.9z"/>
		<path class="st0" d="M117.3,326.2l-25.7,13.1C84.1,325,78.5,309.6,75,294l28.2-6.3C106.3,300.9,111,314,117.3,326.2z"/>
		<path class="st0" d="M101,274.3L72.5,278c-2.2-16-2.2-32.2,0-48.2l28.5,3.8C99.1,247.1,99.1,260.8,101,274.3z"/>
		<path class="st0" d="M75.3,213.9c3.4-15.6,9.1-31,16.6-45.4l25.7,13.1c-6.3,12.2-10.9,25-14.1,38.2L75.3,213.9z"/>
	</g>
</g>
</svg>
