<svg xmlns="http://www.w3.org/2000/svg" width="60" height="60"><path fill="#0050aa" d="M.522.522h58.957v58.957H.522z"/><path fill="#fff" d="M59.478.522v58.957H.521V.522h58.957zM60 0H0v60h60V0z"/><path fill="#fff000" d="M30 3.85C15.558 3.85 3.85 15.558 3.85 30S15.558 56.15 30 56.15c14.438 0 26.144-11.702 26.15-26.139v-.001c0-14.444-11.706-26.154-26.149-26.16H30z"/><path fill="#e60a14" d="m28.377 30.736-4.617-4.617-5.322 5.332v1.79l1.341-1.346 3.715 3.725-1.372 1.367.892.897 7.43-7.44V28.66l-2.066 2.077z"/><path fill="#0050aa" d="M6.824 25.148h8.223v1.774h-1.372v5.739l4.763-2.65v4.857H6.824v-1.784h1.377v-6.162H6.824v-1.774zm34.67 0v1.774h1.377v6.162h-1.377v1.784h11.624v-4.857l-4.769 2.65v-5.739h1.377v-1.774h-8.233z"/><path fill="#e60a14" d="M23.082 19.623a2.927 2.927 0 1 1-2.927 2.927v-.011.001a2.917 2.917 0 0 1 2.917-2.917h.011-.001z"/><path fill="#e60a14" d="M30 2.087h-.005c-15.419 0-27.918 12.499-27.918 27.918s12.499 27.918 27.918 27.918c15.417 0 27.915-12.496 27.918-27.913C57.91 14.593 45.416 2.095 30.001 2.087H30zm0 54.068c-14.442 0-26.15-11.708-26.15-26.15S15.558 3.855 30 3.855c14.442 0 26.15 11.708 26.15 26.15v.011-.001c-.012 14.434-11.714 26.131-26.149 26.134z"/><path fill="#0050aa" d="M36.913 25.148h-7.826v1.774h1.372v6.162h-1.388v1.784h7.826c5.812 0 5.885-9.72.016-9.72z"/><path fill="#fff000" d="M35.812 31.826h-.391v-3.652h.329c1.717 0 1.717 3.652.063 3.652z"/></svg>