<svg version="1.1" xmlns="http://www.w3.org/2000/svg" width="60" height="60" viewBox="0 0 60 60">
    <path fill="#0050aa" d="M0.522 0.522h58.957v58.957h-58.957z"></path>
    <path fill="#fff" d="M59.478 0.522v58.957h-58.957v-58.957h58.957zM60 0h-60v60h60v-60z"></path>
    <path fill="#fff000" d="M30 3.85c-14.442 0-26.15 11.708-26.15 26.15s11.708 26.15 26.15 26.15c14.438 0 26.144-11.702 26.15-26.139v-0.001c0-14.444-11.706-26.154-26.149-26.16h-0.001z"></path>
    <path fill="#e60a14" d="M28.377 30.736l-4.617-4.617-5.322 5.332v1.79l1.341-1.346 3.715 3.725-1.372 1.367 0.892 0.897 7.43-7.44v-1.784l-2.066 2.077z"></path>
    <path fill="#0050aa" d="M6.824 25.148h8.223v1.774h-1.372v5.739l4.763-2.65v4.857h-11.614v-1.784h1.377v-6.162h-1.377v-1.774zM41.494 25.148v1.774h1.377v6.162h-1.377v1.784h11.624v-4.857l-4.769 2.65v-5.739h1.377v-1.774h-8.233z"></path>
    <path fill="#e60a14" d="M23.082 19.623c1.616 0 2.927 1.31 2.927 2.927s-1.31 2.927-2.927 2.927c-1.616 0-2.927-1.31-2.927-2.927 0-0.004 0-0.007 0-0.011v0.001c0 0 0 0 0 0 0-1.611 1.306-2.917 2.917-2.917 0.004 0 0.007 0 0.011 0h-0.001z"></path>
    <path fill="#e60a14" d="M30 2.087c-0.002 0-0.003 0-0.005 0-15.419 0-27.918 12.499-27.918 27.918s12.499 27.918 27.918 27.918c15.417 0 27.915-12.496 27.918-27.913v-0c-0.003-15.417-12.497-27.915-27.912-27.923h-0.001zM30 56.155c-14.442 0-26.15-11.708-26.15-26.15s11.708-26.15 26.15-26.15c14.442 0 26.15 11.708 26.15 26.15 0 0.004 0 0.007 0 0.011v-0.001c-0.012 14.434-11.714 26.131-26.149 26.134h-0z"></path>
    <path fill="#0050aa" d="M36.913 25.148h-7.826v1.774h1.372v6.162h-1.388v1.784h7.826c5.812 0 5.885-9.72 0.016-9.72z"></path>
    <path fill="#fff000" d="M35.812 31.826h-0.391v-3.652h0.329c1.717 0 1.717 3.652 0.063 3.652z"></path>
</svg>
