<?xml version="1.0" encoding="utf-8"?>
<!-- Generator: Adobe Illustrator 27.7.0, SVG Export Plug-In . SVG Version: 6.00 Build 0)  -->
<svg version="1.1" id="Layer_1" xmlns="http://www.w3.org/2000/svg" xmlns:xlink="http://www.w3.org/1999/xlink" x="0px" y="0px"
	 viewBox="0 0 512 512" style="enable-background:new 0 0 512 512;" xml:space="preserve">
<style type="text/css">
	.st0{fill-rule:evenodd;clip-rule:evenodd;fill:#007EBB;}
	.st1{fill-rule:evenodd;clip-rule:evenodd;fill:#FFFFFF;}
</style>
<g>
	<path class="st0" d="M56.9,512h398.2c31.4,0,56.9-25.5,56.9-56.9V56.9C512,25.5,486.5,0,455.1,0H56.9C25.5,0,0,25.5,0,56.9v398.2
		C0,486.5,25.5,512,56.9,512z"/>
	<path class="st1" d="M440.9,440.9h-76V311.5c0-35.5-13.5-55.3-41.6-55.3c-30.5,0-46.5,20.6-46.5,55.3v129.4h-73.2V194.4h73.2v33.2
		c0,0,22-40.7,74.3-40.7c52.3,0,89.7,31.9,89.7,98V440.9z M116.3,162.1c-24.9,0-45.2-20.4-45.2-45.5s20.2-45.5,45.2-45.5
		s45.1,20.4,45.1,45.5S141.2,162.1,116.3,162.1z M78.5,440.9h76.4V194.4H78.5V440.9z"/>
</g>
</svg>
