<?xml version="1.0" encoding="utf-8"?>
<!-- Generator: Adobe Illustrator 27.7.0, SVG Export Plug-In . SVG Version: 6.00 Build 0)  -->
<svg version="1.1" id="Layer_1" xmlns="http://www.w3.org/2000/svg" xmlns:xlink="http://www.w3.org/1999/xlink" x="0px" y="0px"
	 viewBox="0 0 512 512" style="enable-background:new 0 0 512 512;" xml:space="preserve">
<style type="text/css">
	.st0{fill:url(#SVGID_1_);}
	.st1{fill:url(#SVGID_00000142149715936936375240000003530727540204099716_);}
	.st2{fill:url(#SVGID_00000181066378093670571790000001878256672776966569_);}
	.st3{fill:url(#SVGID_00000033367355565323616400000008762509878927767939_);}
	.st4{opacity:0.86;}
	.st5{fill:url(#SVGID_00000138553802335048476680000013380727868670929074_);}
	.st6{opacity:0.68;fill:#FFFFFF;enable-background:new    ;}
</style>
<g>
	<g id="Ebene_1">
		<g>
			
				<linearGradient id="SVGID_1_" gradientUnits="userSpaceOnUse" x1="376.2033" y1="423.9104" x2="137.4258" y2="94.0373" gradientTransform="matrix(1 0 0 -1 0 513.87)">
				<stop  offset="0" style="stop-color:#340B4E"/>
				<stop  offset="1" style="stop-color:#06051C"/>
			</linearGradient>
			<path class="st0" d="M323.8,447.5H188.2c-26.5,0-51-14.1-64.2-37.1L56.2,293.1C43,270.2,43,241.9,56.2,219L124,101.6
				c13.2-22.9,37.7-37.1,64.2-37.1h135.6c26.5,0,51,14.1,64.2,37.1L455.8,219c13.2,22.9,13.2,51.2,0,74.1L388,410.5
				C374.7,433.4,350.3,447.5,323.8,447.5L323.8,447.5z"/>
			
				<linearGradient id="SVGID_00000096768477445902993000000001000411701934311842_" gradientUnits="userSpaceOnUse" x1="0" y1="257.87" x2="512" y2="257.87" gradientTransform="matrix(1 0 0 -1 0 513.87)">
				<stop  offset="0" style="stop-color:#EE17FE"/>
				<stop  offset="1" style="stop-color:#19D0E0"/>
			</linearGradient>
			<path style="fill:url(#SVGID_00000096768477445902993000000001000411701934311842_);" d="M346.9,24.4H165.1
				c-26.5,0-51,14.1-64.2,37.1L9.9,218.9c-13.2,22.9-13.2,51.2,0,74.1l90.9,157.5c13.2,22.9,37.7,37.1,64.2,37.1h181.8
				c26.5,0,51-14.1,64.2-37.1l90.9-157.5c13.2-22.9,13.2-51.2,0-74.1L411.1,61.5C397.9,38.5,373.4,24.4,346.9,24.4L346.9,24.4z
				 M323.8,447.5H188.2c-26.5,0-51-14.1-64.2-37.1L56.2,293.1C43,270.2,43,241.9,56.2,219L124,101.6c13.2-22.9,37.7-37.1,64.2-37.1
				h135.6c26.5,0,51,14.1,64.2,37.1L455.8,219c13.2,22.9,13.2,51.2,0,74.1L388,410.5C374.7,433.4,350.3,447.5,323.8,447.5
				L323.8,447.5z"/>
			<g>
				
					<linearGradient id="SVGID_00000152975507393631993740000011114757842544237705_" gradientUnits="userSpaceOnUse" x1="119.721" y1="258.1165" x2="392.2576" y2="258.1165" gradientTransform="matrix(1 0 0 -1 0 513.87)">
					<stop  offset="0" style="stop-color:#EE17FE"/>
					<stop  offset="1" style="stop-color:#19D0E0"/>
				</linearGradient>
				<path style="fill:url(#SVGID_00000152975507393631993740000011114757842544237705_);" d="M390.4,253.5l-131.6-58.3
					c-1.7-0.7-3.9-0.7-5.6,0l-131.6,58.3c-1.2,0.5-1.9,1.3-1.9,2.2s0.7,1.7,1.9,2.2l131.6,58.3c1.7,0.7,3.9,0.7,5.6,0L390.4,258
					c1.2-0.5,1.9-1.3,1.9-2.2S391.6,254.1,390.4,253.5z"/>
				
					<linearGradient id="SVGID_00000105416739660912441130000002978603076180837764_" gradientUnits="userSpaceOnUse" x1="119.721" y1="203.8021" x2="392.2576" y2="203.8021" gradientTransform="matrix(1 0 0 -1 0 513.87)">
					<stop  offset="0" style="stop-color:#EE17FE"/>
					<stop  offset="1" style="stop-color:#19D0E0"/>
				</linearGradient>
				<path style="fill:url(#SVGID_00000105416739660912441130000002978603076180837764_);" d="M390.4,307.9l-131.6-58.3
					c-1.7-0.7-3.9-0.7-5.6,0l-131.6,58.3c-1.2,0.5-1.9,1.3-1.9,2.2s0.7,1.7,1.9,2.2l131.6,58.3c1.7,0.7,3.9,0.7,5.6,0l131.6-58.3
					c1.2-0.5,1.9-1.3,1.9-2.2S391.6,308.4,390.4,307.9z"/>
				<g class="st4">
					
						<linearGradient id="SVGID_00000029020009199084026090000002066515297989565356_" gradientUnits="userSpaceOnUse" x1="255.9893" y1="372.9612" x2="255.9893" y2="260.0027" gradientTransform="matrix(1 0 0 -1 0 513.87)">
						<stop  offset="0" style="stop-color:#FFFFFF"/>
						<stop  offset="1" style="stop-color:#EE17FE"/>
					</linearGradient>
					<path style="fill:url(#SVGID_00000029020009199084026090000002066515297989565356_);" d="M390.4,199.2l-131.6-58.3
						c-1.7-0.7-3.9-0.7-5.6,0l-131.6,58.3c-1.2,0.5-1.9,1.3-1.9,2.2c0,0.9,0.7,1.7,1.9,2.2l131.6,58.3c1.7,0.7,3.9,0.7,5.6,0
						l131.6-58.3c1.2-0.5,1.9-1.3,1.9-2.2S391.6,199.8,390.4,199.2z"/>
					<path class="st6" d="M390.4,199.2l-131.6-58.3c-1.7-0.7-3.9-0.7-5.6,0l-131.6,58.3c-1.2,0.5-1.9,1.3-1.9,2.2
						c0,0.9,0.7,1.7,1.9,2.2l131.6,58.3c1.7,0.7,3.9,0.7,5.6,0l131.6-58.3c1.2-0.5,1.9-1.3,1.9-2.2S391.6,199.8,390.4,199.2z"/>
				</g>
			</g>
		</g>
	</g>
</g>
</svg>
