<svg xmlns="http://www.w3.org/2000/svg" width="2085" height="2500" preserveAspectRatio="xMidYMid" viewBox="0 0 256 307"><path fill="#004711" d="M66.766 141.595l-12.64-83.896L2.919 26.102l15.254 78.884 48.594 36.609zM78.75 231.81l-8.063-59.49-45.543-37.698 11.767 58.836L78.75 231.81zm-36.173-13.292l8.063 44.67 38.788 40.315-5.448-45.544-41.403-39.441zm115.71-13.73l-19.938-14.817s-.284 5.306-.817 5.666l-14.546 10.242 15.907 13.074.927 14.873 18.903 15.417-.435-44.454zm60.253-43.472l-3.596 41.893-13.401-8.825s1.477-21.181 1.47-21.192c-.077-.142-25.822-17.433-25.822-17.433l.817-19.285 40.532 24.842z"/><path fill="#00B159" d="M133.665 106.947l-3.704-78.012-75.833 28.764 12.638 83.896 66.899-34.648zm3.487 88.472l-3.051-59.49-63.412 36.39 9.37 61.016 57.093-37.916zm1.089 24.188l-54.26 38.352 6.756 46.85 49.465-39.441-1.961-45.761zm20.92-15.036l.87 45.326 39.225-31.815 1.96-43.147-42.055 29.636zm93.429-65.646l-5.121 39.769-30.671 24.624 3.65-41.784 32.142-22.61z"/><path d="M140.278 218.847c-.002-.038-.016-.073-.02-.11a1.799 1.799 0 0 0-.107-.46 1.724 1.724 0 0 0-.125-.26c-.028-.05-.055-.1-.088-.146a1.784 1.784 0 0 0-.202-.234c-.035-.035-.066-.074-.104-.107l-.028-.03-14.511-11.843 13.343-8.99c.533-.36.839-.966.81-1.603l-.135-3.165 17.692 13.504.344 41.008-16.276-13.702-.593-13.862zm-71.23-45.953l8.205 56.072-38.886-36.633-11.26-54.382 41.94 34.943zm66.478 21.296l-54.29 36.575-8.467-57.86 60.384-34.37 2.373 55.655zm-6.982-163.451l3.229 75.494-63.888 33.245L56.037 58.6l72.507-27.861zm-76.24 27.78l11.649 79.516L20.026 103.8 4.5 28.795 52.305 58.52zm.678 204.375l-8.3-40.105 36.998 36.387 5.926 40.468-34.624-36.75zm85.558 1.459l-46.91 37.37-6.238-42.582 51.354-36.742 1.794 41.954zm58.888-46.95l-36.6 29.192-.342-41.166 39.383-28.17-2.441 40.144zm5.109-23.378l1.24-20.395c0-.023-.006-.044-.006-.067 0-.027.009-.052.008-.08-.001-.08-.022-.158-.034-.237-.01-.057-.01-.114-.024-.17a1.875 1.875 0 0 0-.156-.41c-.006-.01-.008-.023-.014-.034a1.857 1.857 0 0 0-.291-.388c-.023-.024-.051-.042-.075-.064-.074-.07-.146-.141-.232-.2l-24.655-16.282.359-17.868 38.8 24.178-3.46 39.993-11.46-7.976zm15.22 7.196l3.39-39.175 30.623-21.916-5.147 38.082-28.865 23.009zM256 136.045c-.002-.035-.015-.067-.02-.102a1.842 1.842 0 0 0-.036-.194 1.88 1.88 0 0 0-.17-.463 1.808 1.808 0 0 0-.181-.27c-.036-.045-.07-.091-.11-.133a1.773 1.773 0 0 0-.283-.233c-.032-.022-.055-.053-.09-.073-.006-.005-.016-.006-.024-.011-.011-.006-.02-.016-.031-.022l-41.91-23.223a1.836 1.836 0 0 0-1.85.043l-35.374 21.625c-.057.034-.102.083-.154.123-.063.048-.128.092-.184.148-.06.059-.106.127-.156.194-.044.058-.094.112-.13.175-.046.077-.075.162-.11.245-.024.063-.057.12-.075.187-.025.09-.032.184-.043.278-.007.06-.026.118-.028.18l-.376 18.779-14.39-9.503a1.837 1.837 0 0 0-1.976-.037l-20.702 12.656-.897-21.047c-.002-.044-.018-.084-.022-.128a2.078 2.078 0 0 0-.048-.273c-.018-.066-.045-.128-.07-.192a1.735 1.735 0 0 0-.104-.228c-.037-.065-.081-.123-.125-.183a1.74 1.74 0 0 0-.148-.183c-.055-.057-.116-.106-.18-.157-.04-.032-.072-.072-.115-.102l-21.545-14.471 20.167-10.494a1.847 1.847 0 0 0 .987-1.712l-3.387-79.222c-.004-.097-.027-.19-.046-.284-.008-.04-.01-.08-.02-.118a1.764 1.764 0 0 0-.188-.45c-.015-.026-.036-.047-.052-.071a1.802 1.802 0 0 0-.253-.311c-.035-.034-.073-.063-.111-.094-.053-.044-.1-.094-.157-.132-.045-.03-.096-.046-.143-.072-.024-.013-.042-.033-.067-.045L76.736.225a1.829 1.829 0 0 0-1.347-.1L1.279 23.209l-.015.008c-.03.009-.056.03-.086.04a1.808 1.808 0 0 0-.391.196l-.011.005c-.041.029-.07.07-.107.102-.094.077-.188.154-.265.249-.055.068-.092.146-.137.22-.045.075-.095.144-.13.224-.04.096-.06.198-.082.3-.015.062-.042.118-.051.18-.001.01.002.019 0 .028-.01.093 0 .186.005.28.003.087-.001.173.014.257.003.014 0 .027.003.04l16.536 79.869c.09.427.323.808.67 1.077l22.444 17.493-16.226 7.726c-.03.014-.052.036-.08.05-.025.015-.052.018-.076.032-.036.022-.06.054-.093.078a1.846 1.846 0 0 0-.258.216c-.045.045-.09.089-.13.138a1.884 1.884 0 0 0-.2.315c-.02.04-.047.078-.065.12a1.825 1.825 0 0 0-.133.482v.02c-.003.026.002.052 0 .078-.011.15-.004.3.022.447.003.02-.001.039.003.058l12.44 60.109c.077.372.265.708.54.967l15.622 14.714-10.352 6.332a1.86 1.86 0 0 0-.36.293c-.03.029-.05.062-.076.093-.09.106-.166.219-.23.342a1.851 1.851 0 0 0-.204.628c-.02.177-.005.352.025.524.004.019-.001.038.003.058l9.638 46.554c.069.33.228.637.463.886l38.982 41.385c.059.062.127.11.192.164.024.019.044.04.069.059.122.088.25.16.388.216.006.003.01.008.018.01.01.005.024.003.036.007.205.076.42.122.639.122a1.82 1.82 0 0 0 .659-.134c.046-.018.095-.027.14-.05.076-.036.132-.094.199-.14.048-.03.103-.045.148-.081l50.145-39.95c.46-.368.716-.931.692-1.516l-1.172-27.43 16.753 14.1c.029.025.067.034.098.057.095.07.186.144.294.196.036.016.073.023.109.038.046.018.09.032.136.046.18.057.362.096.547.096.18 0 .358-.037.535-.091.04-.013.08-.026.122-.042.042-.016.085-.024.126-.043.093-.044.168-.108.25-.165.036-.025.078-.035.112-.062l40.197-32.056c.409-.33.657-.81.689-1.332l1.223-20.115 12.23 8.513c.026.017.055.023.08.039.036.022.063.054.1.074.072.038.149.057.223.085.05.019.099.042.152.057.162.045.328.074.494.074.18 0 .36-.036.537-.09.04-.012.08-.025.12-.04.04-.016.084-.024.125-.042.1-.048.186-.115.274-.178.029-.02.064-.028.092-.05l32.79-26.134a1.85 1.85 0 0 0 .678-1.195l5.817-43.041c.006-.046-.005-.09-.002-.136.004-.073.019-.143.015-.217z"/></svg>