<?xml version="1.0" encoding="UTF-8"?>
<svg xmlns="http://www.w3.org/2000/svg" xmlns:xlink="http://www.w3.org/1999/xlink" viewBox="0 0 631.1 593.28">
  <defs>
    <style>.cls-1{fill:url(#linear-gradient);}.cls-2{fill:url(#linear-gradient-2);}.cls-3{fill:url(#linear-gradient-3);}.cls-4{fill:url(#linear-gradient-4);}.cls-5{fill:url(#linear-gradient-5);}.cls-6{fill:url(#linear-gradient-6);}.cls-7{fill:url(#linear-gradient-7);}.cls-8{fill:url(#linear-gradient-8);}.cls-9{fill:url(#linear-gradient-9);}.cls-10{fill:url(#linear-gradient-10);}.cls-11{fill:url(#linear-gradient-11);}.cls-12{fill:url(#linear-gradient-12);}</style>
    <linearGradient id="linear-gradient" x1="288.71" y1="373.54" x2="194.81" y2="266.66" gradientUnits="userSpaceOnUse">
      <stop offset="0" stop-color="#7142b7"/>
      <stop offset="1" stop-color="#4179d4"/>
    </linearGradient>
    <linearGradient id="linear-gradient-2" x1="380.91" y1="292.54" x2="287" y2="185.65" xlink:href="#linear-gradient"/>
    <linearGradient id="linear-gradient-3" x1="353.81" y1="342.07" x2="293.62" y2="273.57" xlink:href="#linear-gradient"/>
    <linearGradient id="linear-gradient-4" x1="365.87" y1="266.28" x2="311.02" y2="203.85" xlink:href="#linear-gradient"/>
    <linearGradient id="linear-gradient-5" x1="89.84" y1="-22.96" x2="67.76" y2="441.95" gradientUnits="userSpaceOnUse">
      <stop offset="0.43" stop-color="#ff4f97"/>
      <stop offset="0.63" stop-color="#d93b92"/>
      <stop offset="0.99" stop-color="#450284"/>
    </linearGradient>
    <linearGradient id="linear-gradient-6" x1="110.37" y1="12.57" x2="131.15" y2="522.93" xlink:href="#linear-gradient-5"/>
    <linearGradient id="linear-gradient-7" x1="713.7" y1="254.81" x2="266.03" y2="574.27" xlink:href="#linear-gradient-5"/>
    <linearGradient id="linear-gradient-8" x1="718.95" y1="162.1" x2="183.47" y2="545.28" xlink:href="#linear-gradient-5"/>
    <linearGradient id="linear-gradient-9" x1="177.32" y1="397.15" x2="537.2" y2="324.84" xlink:href="#linear-gradient-5"/>
    <linearGradient id="linear-gradient-10" x1="687.77" y1="108.77" x2="265.66" y2="288.71" xlink:href="#linear-gradient-5"/>
    <linearGradient id="linear-gradient-11" x1="253.81" y1="-3.46" x2="672.34" y2="161.31" xlink:href="#linear-gradient-5"/>
    <linearGradient id="linear-gradient-12" x1="229.18" y1="25.43" x2="557.11" y2="210.41" xlink:href="#linear-gradient-5"/>
  </defs>
  <title>Asset 1</title>
  <g id="Layer_2" data-name="Layer 2">
    <g id="Your_design" data-name="Your design">
      <path class="cls-1" d="M297.35,314.68v19.14a16.7,16.7,0,0,1-16.72,16.71H215.71A16.71,16.71,0,0,1,199,333.82V268.89a16.73,16.73,0,0,1,16.72-16.72h25.77a23.87,23.87,0,0,0,3.06,14.19A200.22,200.22,0,0,0,297.35,314.68Z"/>
      <path class="cls-2" d="M346.54,165.67V230.6a16.72,16.72,0,0,1-16.73,16.72H297.66q-7-4.73-13.76-10.36c.11.11.22.21.32.32-1.22-1-2.44-2-3.63-3.11.56.41,1.11.81,1.65,1.26-10.51-9.07-24.27-6.54-32.84,1.46a16.48,16.48,0,0,1-1.23-6.29V165.67A16.72,16.72,0,0,1,264.88,149h64.93A16.73,16.73,0,0,1,346.54,165.67Z"/>
      <path class="cls-3" d="M308.39,321.13a212.85,212.85,0,0,0,92.82,25.15A16.76,16.76,0,0,1,390,350.53H325.11a16.71,16.71,0,0,1-16.72-16.71Z"/>
      <path class="cls-4" d="M406.75,268.89v3.26c-30.12,5.15-62.31,1.11-93.26-15.27a16.68,16.68,0,0,1,11.62-4.71H390A16.72,16.72,0,0,1,406.75,268.89Z"/>
      <path class="cls-5" d="M52.46,203.78A282.83,282.83,0,0,0,49,243.36q0,6.19.32,12.37a.06.06,0,0,0,0,.06A205.9,205.9,0,0,0,52,282.25a1.8,1.8,0,0,0,.06.22c1.15,7.49,2.65,14.94,4.48,22.3.25,1.11.49,2.23.73,3.35,0,.1,0,.19,0,.29a250.49,250.49,0,0,1,5.14,56,255.13,255.13,0,0,1-4.6,43.67,243.64,243.64,0,0,1-10.06,36.55C-49.66,299.77,8.16,78.56,164.47,0,101.52,44.74,67,116.77,54.34,191.63,53.67,195.68,53,199.72,52.46,203.78Z"/>
      <path class="cls-6" d="M208.13,452a251.86,251.86,0,0,1-24,107.47h0c-.56,1.21-1.12,2.37-1.71,3.56A316.35,316.35,0,0,1,47.81,444.65,243.64,243.64,0,0,0,57.87,408.1a255.13,255.13,0,0,0,4.6-43.67,250.49,250.49,0,0,0-5.14-56c0-.1,0-.19,0-.29-.24-1.12-.48-2.24-.73-3.35-1.83-7.36-3.33-14.81-4.48-22.3a1.8,1.8,0,0,1-.06-.22,205.9,205.9,0,0,1-2.67-26.46.06.06,0,0,1,0-.06Q49,249.57,49,243.36a282.83,282.83,0,0,1,3.44-39.58c5.67-35.69,18.37-70.31,38.89-100.2,16-23.69,52.82.24,36.93,24.59v0C108,162.07,97.86,205.06,102,246.47,152.81,282,189.72,338.3,202.7,399.71l.07,0A240.87,240.87,0,0,1,208.13,452Z"/>
      <path class="cls-7" d="M184.14,559.45c297.5,57.9,436.25-319.76,435.94-359.18C690.18,449.85,411.73,677,182.42,563,183,561.82,183.57,560.66,184.14,559.45Z"/>
      <path class="cls-8" d="M620.08,200.27c.31,39.42-138.44,417.08-435.94,359.18,23.08-48.31,30.1-106.79,18.63-159.7q2.56,1.51,5.17,2.93c.91.49,1.8,1,2.71,1.44,2.6,1.35,5.22,2.62,7.88,3.81l3,1.3c79.86,34.12,184.43,4.45,233.08-65.71.35-.49.68-1,1-1.48v0c73.53-14.63,140-64.95,163.68-144.89C619.56,198.17,619.83,199.22,620.08,200.27Z"/>
      <path class="cls-9" d="M455.6,342v0c-.35.49-.68,1-1,1.48-48.65,70.16-153.22,99.83-233.08,65.71l-3-1.3c-2.64-1.2-5.28-2.48-7.88-3.81-.91-.47-1.8-.95-2.71-1.44q-2.61-1.41-5.17-2.93A255.64,255.64,0,0,0,183,342.4C264.84,371,371.14,358,455.6,342Z"/>
      <path class="cls-10" d="M619.28,197.13c-47.88,162-272.62,203-374.74,69.23-13.27-24,18-48,37.7-30.93-.54-.44-1.09-.85-1.65-1.26,1.19,1.07,2.41,2.1,3.63,3.11-.1-.11-.21-.21-.33-.32,60,49.72,129.33,45.34,181.07,12.53,37.19-23.56,65.27-61.82,74.18-105.24.56-3.11,1-6.25,1.34-9.41.71-6.06,1.3-12.06,1.65-18,.35-25.16-5.91-51.31-20.49-76.8l0,0C568.88,80.35,603,135.61,619.28,197.13Z"/>
      <path class="cls-11" d="M521.64,40.05C489.13,10.25,412.19-2.21,358.38,9.74a11.9,11.9,0,0,0-3.89,1.68c-17.54,11.43-39,15.67-59.55,19.43a9.36,9.36,0,0,0-7.66,8.91c-.28,9.25,4.8,20,8.25,27.27,8.69,16.91,24.34,26.86,42.83,29.2,49.22-74.11,129.52-40.65,180,11.74,1.18,1.22,2.34,2.47,3.49,3.7a219.27,219.27,0,0,1,18.6,23.15l.07,0c.71-6.06,1.3-12.06,1.65-18C542.48,91.69,536.22,65.54,521.64,40.05Zm-152.7,5.17c-12.56-.87-12.57-13.09,0-13.93C381.52,32.13,381.49,44.35,368.94,45.22Zm87.67-1.32a49.25,49.25,0,0,1-14.37,4.42c-12.44,1.74-.93-6.52-2.05-14.57s-14.47-12.84-2-14.59a38.74,38.74,0,0,1,8.43-.18c10.37.84,20.6,5.41,21.48,11.72C468.76,35.63,463.57,40.47,456.61,43.9Z"/>
      <path class="cls-12" d="M540.48,134.84c-.34,3.16-.78,6.3-1.34,9.41-8.91,43.42-37,81.68-74.18,105.24-6.08-72.17-58.65-133.82-126.6-153.26,49.22-74.11,129.52-40.65,180,11.74,1.18,1.22,2.34,2.47,3.49,3.7a219.27,219.27,0,0,1,18.6,23.15Z"/>
    </g>
  </g>
</svg>