<svg xmlns="http://www.w3.org/2000/svg" xmlns:xlink="http://www.w3.org/1999/xlink" viewBox="0 0 631.1 593.28"><defs><linearGradient id="a" x1="288.71" x2="194.81" y1="373.54" y2="266.66" gradientUnits="userSpaceOnUse"><stop offset="0" stop-color="#7142b7"/><stop offset="1" stop-color="#4179d4"/></linearGradient><linearGradient xlink:href="#a" id="c" x1="380.91" x2="287" y1="292.54" y2="185.65"/><linearGradient xlink:href="#a" id="d" x1="353.81" x2="293.62" y1="342.07" y2="273.57"/><linearGradient xlink:href="#a" id="e" x1="365.87" x2="311.02" y1="266.28" y2="203.85"/><linearGradient id="b" x1="89.84" x2="67.76" y1="-22.96" y2="441.95" gradientUnits="userSpaceOnUse"><stop offset=".43" stop-color="#ff4f97"/><stop offset=".63" stop-color="#d93b92"/><stop offset=".99" stop-color="#450284"/></linearGradient><linearGradient xlink:href="#b" id="f" x1="110.37" x2="131.15" y1="12.57" y2="522.93"/><linearGradient xlink:href="#b" id="g" x1="713.7" x2="266.03" y1="254.81" y2="574.27"/><linearGradient xlink:href="#b" id="h" x1="718.95" x2="183.47" y1="162.1" y2="545.28"/><linearGradient xlink:href="#b" id="i" x1="177.32" x2="537.2" y1="397.15" y2="324.84"/><linearGradient xlink:href="#b" id="j" x1="687.77" x2="265.66" y1="108.77" y2="288.71"/><linearGradient xlink:href="#b" id="k" x1="253.81" x2="672.34" y1="-3.46" y2="161.31"/><linearGradient xlink:href="#b" id="l" x1="229.18" x2="557.11" y1="25.43" y2="210.41"/></defs><g data-name="Layer 2"><g data-name="Your design"><path d="M297.35 314.68v19.14a16.7 16.7 0 0 1-16.72 16.71h-64.92A16.71 16.71 0 0 1 199 333.82v-64.93a16.73 16.73 0 0 1 16.72-16.72h25.77a23.87 23.87 0 0 0 3.06 14.19 200.22 200.22 0 0 0 52.8 48.32Z" style="fill:url(#a)"/><path d="M346.54 165.67v64.93a16.72 16.72 0 0 1-16.73 16.72h-32.15q-7-4.73-13.76-10.36c.11.11.22.21.32.32-1.22-1-2.44-2-3.63-3.11.56.41 1.11.81 1.65 1.26-10.51-9.07-24.27-6.54-32.84 1.46a16.48 16.48 0 0 1-1.23-6.29v-64.93A16.72 16.72 0 0 1 264.88 149h64.93a16.73 16.73 0 0 1 16.73 16.67Z" style="fill:url(#c)"/><path d="M308.39 321.13a212.85 212.85 0 0 0 92.82 25.15 16.76 16.76 0 0 1-11.21 4.25h-64.89a16.71 16.71 0 0 1-16.72-16.71Z" style="fill:url(#d)"/><path d="M406.75 268.89v3.26c-30.12 5.15-62.31 1.11-93.26-15.27a16.68 16.68 0 0 1 11.62-4.71H390a16.72 16.72 0 0 1 16.75 16.72Z" style="fill:url(#e)"/><path d="M52.46 203.78A282.83 282.83 0 0 0 49 243.36q0 6.19.32 12.37a.06.06 0 0 0 0 .06A205.9 205.9 0 0 0 52 282.25a1.8 1.8 0 0 0 .06.22c1.15 7.49 2.65 14.94 4.48 22.3.25 1.11.49 2.23.73 3.35v.29a250.49 250.49 0 0 1 5.14 56 255.13 255.13 0 0 1-4.6 43.67 243.64 243.64 0 0 1-10.06 36.55C-49.66 299.77 8.16 78.56 164.47 0 101.52 44.74 67 116.77 54.34 191.63c-.67 4.05-1.34 8.09-1.88 12.15Z" style="fill:url(#b)"/><path d="M208.13 452a251.86 251.86 0 0 1-24 107.47c-.56 1.21-1.12 2.37-1.71 3.56A316.35 316.35 0 0 1 47.81 444.65a243.64 243.64 0 0 0 10.06-36.55 255.13 255.13 0 0 0 4.6-43.67 250.49 250.49 0 0 0-5.14-56v-.29c-.24-1.12-.48-2.24-.73-3.35-1.83-7.36-3.33-14.81-4.48-22.3a1.8 1.8 0 0 1-.06-.22 205.9 205.9 0 0 1-2.67-26.46.06.06 0 0 1 0-.06q-.39-6.18-.39-12.39a282.83 282.83 0 0 1 3.44-39.58c5.67-35.69 18.37-70.31 38.89-100.2 16-23.69 52.82.24 36.93 24.59-20.26 33.9-30.4 76.89-26.26 118.3 50.81 35.53 87.72 91.83 100.7 153.24h.07a240.87 240.87 0 0 1 5.36 52.29Z" style="fill:url(#f)"/><path d="M184.14 559.45c297.5 57.9 436.25-319.76 435.94-359.18C690.18 449.85 411.73 677 182.42 563c.58-1.18 1.15-2.34 1.72-3.55Z" style="fill:url(#g)"/><path d="M620.08 200.27c.31 39.42-138.44 417.08-435.94 359.18 23.08-48.31 30.1-106.79 18.63-159.7q2.56 1.51 5.17 2.93c.91.49 1.8 1 2.71 1.44 2.6 1.35 5.22 2.62 7.88 3.81l3 1.3c79.86 34.12 184.43 4.45 233.08-65.71.35-.49.68-1 1-1.48 73.53-14.63 140-64.95 163.68-144.89.27 1.02.54 2.07.79 3.12Z" style="fill:url(#h)"/><path d="M455.6 342c-.35.49-.68 1-1 1.48-48.65 70.16-153.22 99.83-233.08 65.71l-3-1.3c-2.64-1.2-5.28-2.48-7.88-3.81-.91-.47-1.8-.95-2.71-1.44q-2.61-1.41-5.17-2.93A255.64 255.64 0 0 0 183 342.4c81.84 28.6 188.14 15.6 272.6-.4Z" style="fill:url(#i)"/><path d="M619.28 197.13c-47.88 162-272.62 203-374.74 69.23-13.27-24 18-48 37.7-30.93-.54-.44-1.09-.85-1.65-1.26 1.19 1.07 2.41 2.1 3.63 3.11-.1-.11-.21-.21-.33-.32 60 49.72 129.33 45.34 181.07 12.53 37.19-23.56 65.27-61.82 74.18-105.24.56-3.11 1-6.25 1.34-9.41.71-6.06 1.3-12.06 1.65-18 .35-25.16-5.91-51.31-20.49-76.8 47.24 40.31 81.36 95.57 97.64 157.09Z" style="fill:url(#j)"/><path d="M521.64 40.05C489.13 10.25 412.19-2.21 358.38 9.74a11.9 11.9 0 0 0-3.89 1.68c-17.54 11.43-39 15.67-59.55 19.43a9.36 9.36 0 0 0-7.66 8.91c-.28 9.25 4.8 20 8.25 27.27 8.69 16.91 24.34 26.86 42.83 29.2 49.22-74.11 129.52-40.65 180 11.74 1.18 1.22 2.34 2.47 3.49 3.7a219.27 219.27 0 0 1 18.6 23.15h.07c.71-6.06 1.3-12.06 1.65-18 .31-25.13-5.95-51.28-20.53-76.77Zm-152.7 5.17c-12.56-.87-12.57-13.09 0-13.93 12.58.84 12.55 13.06 0 13.93Zm87.67-1.32a49.25 49.25 0 0 1-14.37 4.42c-12.44 1.74-.93-6.52-2.05-14.57s-14.47-12.84-2-14.59a38.74 38.74 0 0 1 8.43-.18c10.37.84 20.6 5.41 21.48 11.72.66 4.93-4.53 9.77-11.49 13.2Z" style="fill:url(#k)"/><path d="M540.48 134.84c-.34 3.16-.78 6.3-1.34 9.41-8.91 43.42-37 81.68-74.18 105.24-6.08-72.17-58.65-133.82-126.6-153.26 49.22-74.11 129.52-40.65 180 11.74 1.18 1.22 2.34 2.47 3.49 3.7a219.27 219.27 0 0 1 18.6 23.15Z" style="fill:url(#l)"/></g></g></svg>