<svg xmlns="http://www.w3.org/2000/svg" xml:space="preserve" style="enable-background:new 0 0 256 256" viewBox="0 0 256 256"><circle cx="128" cy="128" r="128" style="fill:#fff"/><circle cx="128" cy="128" r="108" style="fill:#69b53f"/><path d="M58 63v90c.1 22.1 17.9 39.9 40 40h60c22.1-.1 39.9-17.9 40-40v-50c-.1-16.5-13.5-29.9-30-30-7.4 0-14.5 2.8-20 7.9-5.5-5-12.6-7.8-20-7.9-16.5.1-29.9 13.5-30 30v50h20v-50c0-5.5 4.5-10 10-10s10 4.5 10 10v50h20v-50c0-5.5 4.5-10 10-10s10 4.5 10 10v50c.1 11-8.8 19.9-19.7 20H98c-11 .1-19.9-8.8-20-19.7V63H58z" style="fill:#f8f8f8"/></svg>