<svg xmlns="http://www.w3.org/2000/svg" xmlns:xlink="http://www.w3.org/1999/xlink" version="1.1" id="Layer_1" x="0px" y="0px" style="enable-background:new 0 0 512 512;" xml:space="preserve" viewBox="40.01 0 431.98 512.02">
<style type="text/css">
	.st0{fill:#020204;}
	.st1{fill:#FDFDFB;}
	
		.st2{opacity:0.25;clip-path:url(#SVGID_00000090291195283999907120000000180209090764449436_);fill:url(#SVGID_00000024715041860897849880000008432760462057666194_);enable-background:new    ;}
	
		.st3{opacity:0.42;clip-path:url(#SVGID_00000077315487649192595850000012481622557103087275_);fill:url(#SVGID_00000071560064871940462720000005691236361186817685_);enable-background:new    ;}
	
		.st4{opacity:0.2;clip-path:url(#SVGID_00000120530480698794855200000008670301762452776086_);fill:url(#SVGID_00000093891897382177497410000003005232549586205368_);enable-background:new    ;}
	.st5{opacity:0.11;clip-path:url(#SVGID_00000152260575731289801830000017340220937639554727_);enable-background:new    ;}
	
		.st6{opacity:0.75;clip-path:url(#SVGID_00000011724467646709456710000010166967539794483337_);fill:#7C7C7C;enable-background:new    ;}
	.st7{clip-path:url(#SVGID_00000103234233543871827980000001019668063718224266_);fill:#7C7C7C;}
	.st8{clip-path:url(#SVGID_00000162352644474118233680000006928566530241832329_);fill:#838384;}
	
		.st9{opacity:0.95;clip-path:url(#SVGID_00000170956732396630294850000009195315260595777215_);fill:#7C7C7C;enable-background:new    ;}
	.st10{clip-path:url(#SVGID_00000122695746884403144070000007770938186048474301_);fill:#838384;}
	.st11{fill:url(#linux_svg__x_00000049943844314930879290000006449754398718896565_);}
	.st12{clip-path:url(#SVGID_00000027600166055244248250000010405237379272616861_);fill:#D99A03;}
	.st13{clip-path:url(#SVGID_00000103266965117830763000000009347069801521732016_);fill:#F5BD0C;}
	
		.st14{clip-path:url(#SVGID_00000026157222092195329820000015006403667208960445_);fill:url(#SVGID_00000085217770615400418490000005840840238400175804_);}
	
		.st15{opacity:0.2;clip-path:url(#SVGID_00000112633850353531874880000011391449009897901206_);fill:url(#SVGID_00000049920753242538327310000004033475894481667247_);enable-background:new    ;}
	.st16{fill:url(#linux_svg__y_00000088134720710595641660000010028591541330793106_);}
	.st17{clip-path:url(#SVGID_00000183243518303903449750000004756140029706488249_);fill:#CD8907;}
	.st18{clip-path:url(#SVGID_00000147941475346173576570000012701825153189722774_);fill:#F5C021;}
	
		.st19{clip-path:url(#SVGID_00000039135794276784847970000008898316313332039572_);fill:url(#SVGID_00000173163219852367403970000013069169899800300690_);}
	
		.st20{opacity:0.35;clip-path:url(#SVGID_00000097494365794611751920000008736748936413290117_);fill:url(#SVGID_00000103230319042793934830000002621654746501493903_);enable-background:new    ;}
	
		.st21{opacity:0.35;clip-path:url(#SVGID_00000003065245957307281090000003233563262463439550_);fill:url(#SVGID_00000051360982776203491660000018195983733516138926_);enable-background:new    ;}
	.st22{clip-path:url(#SVGID_00000047026020027448546360000015147339309215369877_);}
	.st23{fill:url(#linux_svg__an_00000123425519275033133410000009381560585672722100_);}
	.st24{clip-path:url(#SVGID_00000011717489196719817780000011994001095615413401_);}
	.st25{fill:url(#linux_svg__an_00000039115433360995190530000006777901255675564460_);}
	.st26{fill:url(#linux_svg__A_00000017490584152567139690000016462596691203087801_);}
	
		.st27{clip-path:url(#SVGID_00000163059439866876142530000014569846915467703192_);fill:url(#SVGID_00000103980269949139410270000016220352764317654951_);}
	
		.st28{clip-path:url(#SVGID_00000114033244550618732100000004895967273295357374_);fill:url(#SVGID_00000097466163600550613340000000768825299346149277_);}
	.st29{fill:url(#SVGID_00000042705486255976709150000006758276389736329116_);}
	.st30{fill:url(#linux_svg__C_00000006676497839779645690000007249534634810970514_);}
	
		.st31{clip-path:url(#SVGID_00000136402274215654994190000014083334893057881228_);fill:url(#SVGID_00000006666619097557558710000005428421020157009850_);}
	
		.st32{clip-path:url(#SVGID_00000145773255783729994120000016500006436732210856_);fill:url(#SVGID_00000007410067971046513980000002895856604776060290_);}
	.st33{fill:url(#SVGID_00000145051804521254938170000010546860382939973265_);}
	.st34{clip-path:url(#SVGID_00000029021886405810739200000016289911041540250280_);fill-opacity:0.259;}
	.st35{opacity:0.3;clip-path:url(#SVGID_00000002374582047469708150000011053193108529069482_);enable-background:new    ;}
	.st36{fill:url(#SVGID_00000033351564215743946870000001137980567049887381_);}
	.st37{fill:url(#linux_svg__E_00000090286915875064540320000013984980468498496179_);}
	.st38{clip-path:url(#SVGID_00000158749288871937088780000001537630997457216665_);fill:#D9B30D;}
	.st39{clip-path:url(#SVGID_00000037657422445465418200000011014273991126781841_);fill:#604405;}
	.st40{fill:url(#linux_svg__F_00000065769596230622146340000018264511375151680432_);}
	.st41{clip-path:url(#SVGID_00000057137739609448115440000000890837223829820558_);fill:#F6DA4A;}
	.st42{opacity:0.8;fill:url(#SVGID_00000044884497835674397590000015497278582404257947_);enable-background:new    ;}
	.st43{opacity:0.8;fill:url(#SVGID_00000173859661747251580480000013737209445824586942_);enable-background:new    ;}
	.st44{clip-path:url(#SVGID_00000023248177729822038340000013903069775776625579_);}
	
		.st45{clip-path:url(#SVGID_00000017492000026350855920000018336274179613126335_);fill:url(#SVGID_00000171704458057969383390000008317227973408811701_);}
</style>
<g>
	<g transform="translate(3.75) scale(.1875)">
		<path id="linux_svg__u" class="st0" d="M1334.1,0c-64,0-128.2,12.6-186.2,43.9c-61.7,33.2-112.2,86.3-143.3,149    c-31.1,62.7-43.3,129.7-45.2,203.5c-3.5,140.2,3.2,287.1,13.8,420.4c2.8,40.5,7.9,64.2,2.7,105.9    c-17.3,88.5-94.7,148.1-136.1,225.8c-45.5,85.8-64.7,182.7-99.1,273.6c-31.5,83.1-75.6,161.1-105.4,244.8    c-41.7,117-54.2,245.7-26.7,366.8c21,92.4,64.9,179,123.9,253.1c-8.5,15.4-16.9,31-25.6,46.3c-27.4,47.3-60.9,92.2-76.5,144.5    c-7.8,26.1-10.9,54.1-5.9,81c5,26.9,18.7,52.6,40,69.7c14,11.1,30.9,18.3,48.3,22.4c17.4,3.9,35.4,4.9,53.3,4.6    c67.9-1.5,133.9-22.1,199.6-39.4c39-10.2,78.3-19.3,117.7-27.5c140.2-28.7,296.5-17.2,426.6,1.6c44.1,6.7,87.8,15.4,131.1,25.9    c67.8,16.4,135.4,37.3,205.1,39.4c18.3,0.5,36.9-0.3,54.8-4.3c17.9-4.1,35.3-11.3,49.6-22.7c21.4-17.1,35.1-42.9,40.1-69.8    c5-26.9,1.9-54.9-6-81.2c-15.8-52.5-49.6-97.2-77.5-144.2c-11.1-18.7-21.3-37.7-32.3-56.3c84.3-94.6,152.1-204.1,191.4-324.3    c42.8-131.2,50.7-272.5,32.6-409.4c-18-136.9-61.4-269.5-118.5-395.2c-71.7-157.4-131.9-214.4-175.7-352.7    c-47.1-149.5-8.2-326.5-43.3-462.1c-12.5-46.1-32.4-90.1-58.1-130.5c-30.1-47.3-68.3-89.5-113.6-122.3    C1517.4,27.9,1426.5,0,1334.1,0z"/>
		<path class="st1" d="M1080.1,789.3c-9.6,12.1-15.8,26.6-19.6,41.5c-3.7,14.9-5.1,30.4-5.8,45.9c-1.2,30.8,0.7,62.2-7.5,91.9    c-8.7,31.8-28.3,59.4-47.4,86.2c-33.2,46.5-66.7,94.3-83,149c-9.9,33.2-13.2,68.1-9.7,102.6c-37,54.4-69.1,112.3-95.8,172.6    c-40.3,91.4-67.9,188.7-77.7,288.1c-11.9,121.7,3.6,246.9,51.7,359.4c34.7,81.4,86.5,155.7,153.4,213.8    c34,29.5,71.6,54.5,112,74.3c139.8,68.8,312.6,68.9,450.1-4.4c71.9-38.3,132.6-94.3,191-150.9c35.2-34.1,70.3-69.1,97.2-110.1    c51.7-79,69.8-175,81-268.8c19.5-163.8,20.2-337.1-51.7-485.7c-24.7-51.2-57.7-98.3-97.3-139.2c-10.5-71.5-31.3-141.5-61.4-207.1    c-21.9-47.5-48.4-92.6-68.7-140.6c-8.3-19.7-15.6-40-24.7-59.3c-9.3-19.3-20.6-37.9-36.2-52.7c-15.8-15.1-35.5-25.9-56.3-32.7    c-20.8-6.9-42.8-10-64.6-11.1c-43.8-2.2-87.7,3.5-131.5,1.7c-34.9-1.4-69.7-7.5-104.5-5.4c-17.4,1.1-34.8,4.2-51,10.8    C1105.9,765.5,1090.9,775.7,1080.1,789.3z"/>
		<g>
			<defs>
				<path id="SVGID_1_" d="M1334.1,0c-64,0-128.2,12.6-186.2,43.9c-61.7,33.2-112.2,86.3-143.3,149      c-31.1,62.7-43.3,129.7-45.2,203.5c-3.5,140.2,3.2,287.1,13.8,420.4c2.8,40.5,7.9,64.2,2.7,105.9      c-17.3,88.5-94.7,148.1-136.1,225.8c-45.5,85.8-64.7,182.7-99.1,273.6c-31.5,83.1-75.6,161.1-105.4,244.8      c-41.7,117-54.2,245.7-26.7,366.8c21,92.4,64.9,179,123.9,253.1c-8.5,15.4-16.9,31-25.6,46.3c-27.4,47.3-60.9,92.2-76.5,144.5      c-7.8,26.1-10.9,54.1-5.9,81c5,26.9,18.7,52.6,40,69.7c14,11.1,30.9,18.3,48.3,22.4c17.4,3.9,35.4,4.9,53.3,4.6      c67.9-1.5,133.9-22.1,199.6-39.4c39-10.2,78.3-19.3,117.7-27.5c140.2-28.7,296.5-17.2,426.6,1.6c44.1,6.7,87.8,15.4,131.1,25.9      c67.8,16.4,135.4,37.3,205.1,39.4c18.3,0.5,36.9-0.3,54.8-4.3c17.9-4.1,35.3-11.3,49.6-22.7c21.4-17.1,35.1-42.9,40.1-69.8      c5-26.9,1.9-54.9-6-81.2c-15.8-52.5-49.6-97.2-77.5-144.2c-11.1-18.7-21.3-37.7-32.3-56.3c84.3-94.6,152.1-204.1,191.4-324.3      c42.8-131.2,50.7-272.5,32.6-409.4c-18-136.9-61.4-269.5-118.5-395.2c-71.7-157.4-131.9-214.4-175.7-352.7      c-47.1-149.5-8.2-326.5-43.3-462.1c-12.5-46.1-32.4-90.1-58.1-130.5c-30.1-47.3-68.3-89.5-113.6-122.3      C1517.4,27.9,1426.5,0,1334.1,0z"/>
			</defs>
			<clipPath id="SVGID_00000134216049472149691840000002519689634571986305_">
				<use xlink:href="#SVGID_1_" style="overflow:visible;"/>
			</clipPath>
			
				<radialGradient id="SVGID_00000115511672925675902970000004755190560453983158_" cx="12.3013" cy="2915.9001" r="10.6667" gradientTransform="matrix(3.5625 0 0 -3.375 802.0967 11133.8564)" gradientUnits="userSpaceOnUse">
				<stop offset="0" style="stop-color:#000000"/>
				<stop offset="1" style="stop-color:#000000;stop-opacity:0.25"/>
			</radialGradient>
			
				<path style="opacity:0.25;clip-path:url(#SVGID_00000134216049472149691840000002519689634571986305_);fill:url(#SVGID_00000115511672925675902970000004755190560453983158_);enable-background:new    ;" d="     M925.8,1228.6c9.3,14-5.9,62.3,211.8,31.4c0,0-38.3,4.2-75.9,12.9c-58.6,19.6-109.5,41.5-149,70.5     c-38.9,28.8-67.5,66.2-103.3,98.3c0,0,57.9-105.8,72.3-137.7c14.5-31.9-2.3-30.4,9.1-77.3s39.4-92.1,39.4-92.1     S907.4,1201,925.8,1228.6z"/>
		</g>
		<g>
			<defs>
				<path id="SVGID_00000151532519932171362700000000104350165329497530_" d="M1334.1,0c-64,0-128.2,12.6-186.2,43.9      c-61.7,33.2-112.2,86.3-143.3,149c-31.1,62.7-43.3,129.7-45.2,203.5c-3.5,140.2,3.2,287.1,13.8,420.4      c2.8,40.5,7.9,64.2,2.7,105.9c-17.3,88.5-94.7,148.1-136.1,225.8c-45.5,85.8-64.7,182.7-99.1,273.6      c-31.5,83.1-75.6,161.1-105.4,244.8c-41.7,117-54.2,245.7-26.7,366.8c21,92.4,64.9,179,123.9,253.1c-8.5,15.4-16.9,31-25.6,46.3      c-27.4,47.3-60.9,92.2-76.5,144.5c-7.8,26.1-10.9,54.1-5.9,81c5,26.9,18.7,52.6,40,69.7c14,11.1,30.9,18.3,48.3,22.4      c17.4,3.9,35.4,4.9,53.3,4.6c67.9-1.5,133.9-22.1,199.6-39.4c39-10.2,78.3-19.3,117.7-27.5c140.2-28.7,296.5-17.2,426.6,1.6      c44.1,6.7,87.8,15.4,131.1,25.9c67.8,16.4,135.4,37.3,205.1,39.4c18.3,0.5,36.9-0.3,54.8-4.3c17.9-4.1,35.3-11.3,49.6-22.7      c21.4-17.1,35.1-42.9,40.1-69.8c5-26.9,1.9-54.9-6-81.2c-15.8-52.5-49.6-97.2-77.5-144.2c-11.1-18.7-21.3-37.7-32.3-56.3      c84.3-94.6,152.1-204.1,191.4-324.3c42.8-131.2,50.7-272.5,32.6-409.4c-18-136.9-61.4-269.5-118.5-395.2      c-71.7-157.4-131.9-214.4-175.7-352.7c-47.1-149.5-8.2-326.5-43.3-462.1c-12.5-46.1-32.4-90.1-58.1-130.5      c-30.1-47.3-68.3-89.5-113.6-122.3C1517.4,27.9,1426.5,0,1334.1,0z"/>
			</defs>
			<clipPath id="SVGID_00000070837005444129627050000015649097439611372973_">
				<use xlink:href="#SVGID_00000151532519932171362700000000104350165329497530_" style="overflow:visible;"/>
			</clipPath>
			
				<radialGradient id="SVGID_00000053521088098123112620000007479915171618305923_" cx="96.1024" cy="2886.084" r="10.6667" gradientTransform="matrix(4.425 0 0 -3.375 1109.3066 11144.2666)" gradientUnits="userSpaceOnUse">
				<stop offset="0" style="stop-color:#000000"/>
				<stop offset="1" style="stop-color:#000000;stop-opacity:0.25"/>
			</radialGradient>
			
				<path style="opacity:0.42;clip-path:url(#SVGID_00000070837005444129627050000015649097439611372973_);fill:url(#SVGID_00000053521088098123112620000007479915171618305923_);enable-background:new    ;" d="     M1625.7,1215.9c-44.4,30.9-70.4,27.3-124.2,33.3c-53.9,6.1-199.5,3.8-199.5,3.8s21-0.3,67.8,8.3c46.7,8.7,142,17.1,195.6,37.4     c53.8,20.5,73.3,26.3,105.9,46.9c46.4,29.3,80.5,75.3,124.9,107.5c0,0,2.1-42.7-15.8-74.6c-17.9-31.9-66.1-82.1-80.3-129.1     c-14.1-46.9-20.9-139.1-20.9-139.1S1669.9,1185.1,1625.7,1215.9z"/>
		</g>
		<g>
			<defs>
				<path id="SVGID_00000039124482364961058010000003514889042049549205_" d="M1334.1,0c-64,0-128.2,12.6-186.2,43.9      c-61.7,33.2-112.2,86.3-143.3,149c-31.1,62.7-43.3,129.7-45.2,203.5c-3.5,140.2,3.2,287.1,13.8,420.4      c2.8,40.5,7.9,64.2,2.7,105.9c-17.3,88.5-94.7,148.1-136.1,225.8c-45.5,85.8-64.7,182.7-99.1,273.6      c-31.5,83.1-75.6,161.1-105.4,244.8c-41.7,117-54.2,245.7-26.7,366.8c21,92.4,64.9,179,123.9,253.1c-8.5,15.4-16.9,31-25.6,46.3      c-27.4,47.3-60.9,92.2-76.5,144.5c-7.8,26.1-10.9,54.1-5.9,81c5,26.9,18.7,52.6,40,69.7c14,11.1,30.9,18.3,48.3,22.4      c17.4,3.9,35.4,4.9,53.3,4.6c67.9-1.5,133.9-22.1,199.6-39.4c39-10.2,78.3-19.3,117.7-27.5c140.2-28.7,296.5-17.2,426.6,1.6      c44.1,6.7,87.8,15.4,131.1,25.9c67.8,16.4,135.4,37.3,205.1,39.4c18.3,0.5,36.9-0.3,54.8-4.3c17.9-4.1,35.3-11.3,49.6-22.7      c21.4-17.1,35.1-42.9,40.1-69.8c5-26.9,1.9-54.9-6-81.2c-15.8-52.5-49.6-97.2-77.5-144.2c-11.1-18.7-21.3-37.7-32.3-56.3      c84.3-94.6,152.1-204.1,191.4-324.3c42.8-131.2,50.7-272.5,32.6-409.4c-18-136.9-61.4-269.5-118.5-395.2      c-71.7-157.4-131.9-214.4-175.7-352.7c-47.1-149.5-8.2-326.5-43.3-462.1c-12.5-46.1-32.4-90.1-58.1-130.5      c-30.1-47.3-68.3-89.5-113.6-122.3C1517.4,27.9,1426.5,0,1334.1,0z"/>
			</defs>
			<clipPath id="SVGID_00000004511987499154735710000005121948148483123844_">
				<use xlink:href="#SVGID_00000039124482364961058010000003514889042049549205_" style="overflow:visible;"/>
			</clipPath>
			
				<radialGradient id="SVGID_00000143619635053711092780000014238198889337717916_" cx="497.4835" cy="2430.1101" r="10.6667" gradientTransform="matrix(1.7531 0 0 -1.875 326.0892 5916.1367)" gradientUnits="userSpaceOnUse">
				<stop offset="0" style="stop-color:#000000"/>
				<stop offset="1" style="stop-color:#000000;stop-opacity:0.25"/>
			</radialGradient>
			
				<path style="opacity:0.2;clip-path:url(#SVGID_00000004511987499154735710000005121948148483123844_);fill:url(#SVGID_00000143619635053711092780000014238198889337717916_);enable-background:new    ;" d="     M1208.5,1150c-1.7,13.3-3.8,26.7-6.4,39.9c-1.3,6.5-2.8,13-5.1,19.2c-2.5,6.2-6,12.2-10.9,16.5c-4.4,3.9-9.6,6.6-14.9,9.1     c-20.7,9.4-42.8,15.7-65.3,18.6c9,0.6,17.9,1.5,27,2.5c5.7,0.6,11.3,1.3,16.7,2.7c5.5,1.5,11,3.6,15.6,6.9c5,3.7,9,8.7,11.9,14.3     c5.9,10.9,7.8,23.5,8.9,35.9c1.4,15.8,1.5,31.8,0.3,47.6c1.1-10.6,3.3-21.1,6.6-31.1c6.1-18.3,15.7-35.4,28.7-49.6     c5.2-5.5,10.9-10.8,17.1-15.1c19.4-13.5,43.1-19.2,66.6-16.1c-23.6,1-47.4-6.4-66.1-20.6c-9.6-7.3-17.9-16.2-23.7-26.7     C1206.4,1187.4,1203.9,1168.2,1208.5,1150z"/>
		</g>
		<g>
			<defs>
				<path id="SVGID_00000167356660828973247230000001179890391091628968_" d="M1334.1,0c-64,0-128.2,12.6-186.2,43.9      c-61.7,33.2-112.2,86.3-143.3,149c-31.1,62.7-43.3,129.7-45.2,203.5c-3.5,140.2,3.2,287.1,13.8,420.4      c2.8,40.5,7.9,64.2,2.7,105.9c-17.3,88.5-94.7,148.1-136.1,225.8c-45.5,85.8-64.7,182.7-99.1,273.6      c-31.5,83.1-75.6,161.1-105.4,244.8c-41.7,117-54.2,245.7-26.7,366.8c21,92.4,64.9,179,123.9,253.1c-8.5,15.4-16.9,31-25.6,46.3      c-27.4,47.3-60.9,92.2-76.5,144.5c-7.8,26.1-10.9,54.1-5.9,81c5,26.9,18.7,52.6,40,69.7c14,11.1,30.9,18.3,48.3,22.4      c17.4,3.9,35.4,4.9,53.3,4.6c67.9-1.5,133.9-22.1,199.6-39.4c39-10.2,78.3-19.3,117.7-27.5c140.2-28.7,296.5-17.2,426.6,1.6      c44.1,6.7,87.8,15.4,131.1,25.9c67.8,16.4,135.4,37.3,205.1,39.4c18.3,0.5,36.9-0.3,54.8-4.3c17.9-4.1,35.3-11.3,49.6-22.7      c21.4-17.1,35.1-42.9,40.1-69.8c5-26.9,1.9-54.9-6-81.2c-15.8-52.5-49.6-97.2-77.5-144.2c-11.1-18.7-21.3-37.7-32.3-56.3      c84.3-94.6,152.1-204.1,191.4-324.3c42.8-131.2,50.7-272.5,32.6-409.4c-18-136.9-61.4-269.5-118.5-395.2      c-71.7-157.4-131.9-214.4-175.7-352.7c-47.1-149.5-8.2-326.5-43.3-462.1c-12.5-46.1-32.4-90.1-58.1-130.5      c-30.1-47.3-68.3-89.5-113.6-122.3C1517.4,27.9,1426.5,0,1334.1,0z"/>
			</defs>
			<clipPath id="SVGID_00000001646622255014953890000011611375462485385405_">
				<use xlink:href="#SVGID_00000167356660828973247230000001179890391091628968_" style="overflow:visible;"/>
			</clipPath>
			
				<path style="opacity:0.11;clip-path:url(#SVGID_00000001646622255014953890000011611375462485385405_);enable-background:new    ;" d="     M1151.7,1462.8c-11.3,43.1-19.1,87-23.1,131.3c-5.9,62.6-4.5,125.7-7.9,188.5c-2.8,53.2-9.1,107.1,0.2,159.7     c4.4,25.1,12.3,49.4,23.5,72.3c1.7-8.7,3.1-17.5,3.8-26.3c3.9-42.7-3.2-85.4-5.7-128.1c-4.3-74.9,6.1-149.8,10.3-224.6     C1156.1,1578,1155.8,1520.3,1151.7,1462.8z"/>
		</g>
		<g>
			<defs>
				<path id="SVGID_00000008123955757174506460000013810344417746460057_" d="M1334.1,0c-64,0-128.2,12.6-186.2,43.9      c-61.7,33.2-112.2,86.3-143.3,149c-31.1,62.7-43.3,129.7-45.2,203.5c-3.5,140.2,3.2,287.1,13.8,420.4      c2.8,40.5,7.9,64.2,2.7,105.9c-17.3,88.5-94.7,148.1-136.1,225.8c-45.5,85.8-64.7,182.7-99.1,273.6      c-31.5,83.1-75.6,161.1-105.4,244.8c-41.7,117-54.2,245.7-26.7,366.8c21,92.4,64.9,179,123.9,253.1c-8.5,15.4-16.9,31-25.6,46.3      c-27.4,47.3-60.9,92.2-76.5,144.5c-7.8,26.1-10.9,54.1-5.9,81c5,26.9,18.7,52.6,40,69.7c14,11.1,30.9,18.3,48.3,22.4      c17.4,3.9,35.4,4.9,53.3,4.6c67.9-1.5,133.9-22.1,199.6-39.4c39-10.2,78.3-19.3,117.7-27.5c140.2-28.7,296.5-17.2,426.6,1.6      c44.1,6.7,87.8,15.4,131.1,25.9c67.8,16.4,135.4,37.3,205.1,39.4c18.3,0.5,36.9-0.3,54.8-4.3c17.9-4.1,35.3-11.3,49.6-22.7      c21.4-17.1,35.1-42.9,40.1-69.8c5-26.9,1.9-54.9-6-81.2c-15.8-52.5-49.6-97.2-77.5-144.2c-11.1-18.7-21.3-37.7-32.3-56.3      c84.3-94.6,152.1-204.1,191.4-324.3c42.8-131.2,50.7-272.5,32.6-409.4c-18-136.9-61.4-269.5-118.5-395.2      c-71.7-157.4-131.9-214.4-175.7-352.7c-47.1-149.5-8.2-326.5-43.3-462.1c-12.5-46.1-32.4-90.1-58.1-130.5      c-30.1-47.3-68.3-89.5-113.6-122.3C1517.4,27.9,1426.5,0,1334.1,0z"/>
			</defs>
			<clipPath id="SVGID_00000134247341277826479800000006564791643880351667_">
				<use xlink:href="#SVGID_00000008123955757174506460000013810344417746460057_" style="overflow:visible;"/>
			</clipPath>
			
				<path style="opacity:0.75;clip-path:url(#SVGID_00000134247341277826479800000006564791643880351667_);fill:#7C7C7C;enable-background:new    ;" d="     M1900.9,1399.8c11-1.7,78.3,55.6,69.1,76.9c-9.2,21.2-26.6,8.4-38.9,8.5c-12.4,0.2-46.2,15.6-51.8,5.9     c-5.8-9.7,14.9-32.3,25.7-51.3C1913.7,1424.5,1890,1401.5,1900.9,1399.8z"/>
		</g>
		<g>
			<defs>
				<path id="SVGID_00000070076767963652359930000007033481804528968361_" d="M1334.1,0c-64,0-128.2,12.6-186.2,43.9      c-61.7,33.2-112.2,86.3-143.3,149c-31.1,62.7-43.3,129.7-45.2,203.5c-3.5,140.2,3.2,287.1,13.8,420.4      c2.8,40.5,7.9,64.2,2.7,105.9c-17.3,88.5-94.7,148.1-136.1,225.8c-45.5,85.8-64.7,182.7-99.1,273.6      c-31.5,83.1-75.6,161.1-105.4,244.8c-41.7,117-54.2,245.7-26.7,366.8c21,92.4,64.9,179,123.9,253.1c-8.5,15.4-16.9,31-25.6,46.3      c-27.4,47.3-60.9,92.2-76.5,144.5c-7.8,26.1-10.9,54.1-5.9,81c5,26.9,18.7,52.6,40,69.7c14,11.1,30.9,18.3,48.3,22.4      c17.4,3.9,35.4,4.9,53.3,4.6c67.9-1.5,133.9-22.1,199.6-39.4c39-10.2,78.3-19.3,117.7-27.5c140.2-28.7,296.5-17.2,426.6,1.6      c44.1,6.7,87.8,15.4,131.1,25.9c67.8,16.4,135.4,37.3,205.1,39.4c18.3,0.5,36.9-0.3,54.8-4.3c17.9-4.1,35.3-11.3,49.6-22.7      c21.4-17.1,35.1-42.9,40.1-69.8c5-26.9,1.9-54.9-6-81.2c-15.8-52.5-49.6-97.2-77.5-144.2c-11.1-18.7-21.3-37.7-32.3-56.3      c84.3-94.6,152.1-204.1,191.4-324.3c42.8-131.2,50.7-272.5,32.6-409.4c-18-136.9-61.4-269.5-118.5-395.2      c-71.7-157.4-131.9-214.4-175.7-352.7c-47.1-149.5-8.2-326.5-43.3-462.1c-12.5-46.1-32.4-90.1-58.1-130.5      c-30.1-47.3-68.3-89.5-113.6-122.3C1517.4,27.9,1426.5,0,1334.1,0z"/>
			</defs>
			<clipPath id="SVGID_00000088831673543533131290000017230741923562572417_">
				<use xlink:href="#SVGID_00000070076767963652359930000007033481804528968361_" style="overflow:visible;"/>
			</clipPath>
			<path style="clip-path:url(#SVGID_00000088831673543533131290000017230741923562572417_);fill:#7C7C7C;" d="M1489.5,118.6     c-23.6,16.6-13.3,37.4-3.2,58.2c10.1,20.9-22.3,81-22.6,83.5s63.8-30.4,81.3-51.9c20.7-25.3,72.9,34.3,70,25.3     C1615.1,217.5,1513.1,102.1,1489.5,118.6z"/>
		</g>
		<g>
			<defs>
				<path id="SVGID_00000087392403415621455410000006225880510443100569_" d="M1334.1,0c-64,0-128.2,12.6-186.2,43.9      c-61.7,33.2-112.2,86.3-143.3,149c-31.1,62.7-43.3,129.7-45.2,203.5c-3.5,140.2,3.2,287.1,13.8,420.4      c2.8,40.5,7.9,64.2,2.7,105.9c-17.3,88.5-94.7,148.1-136.1,225.8c-45.5,85.8-64.7,182.7-99.1,273.6      c-31.5,83.1-75.6,161.1-105.4,244.8c-41.7,117-54.2,245.7-26.7,366.8c21,92.4,64.9,179,123.9,253.1c-8.5,15.4-16.9,31-25.6,46.3      c-27.4,47.3-60.9,92.2-76.5,144.5c-7.8,26.1-10.9,54.1-5.9,81c5,26.9,18.7,52.6,40,69.7c14,11.1,30.9,18.3,48.3,22.4      c17.4,3.9,35.4,4.9,53.3,4.6c67.9-1.5,133.9-22.1,199.6-39.4c39-10.2,78.3-19.3,117.7-27.5c140.2-28.7,296.5-17.2,426.6,1.6      c44.1,6.7,87.8,15.4,131.1,25.9c67.8,16.4,135.4,37.3,205.1,39.4c18.3,0.5,36.9-0.3,54.8-4.3c17.9-4.1,35.3-11.3,49.6-22.7      c21.4-17.1,35.1-42.9,40.1-69.8c5-26.9,1.9-54.9-6-81.2c-15.8-52.5-49.6-97.2-77.5-144.2c-11.1-18.7-21.3-37.7-32.3-56.3      c84.3-94.6,152.1-204.1,191.4-324.3c42.8-131.2,50.7-272.5,32.6-409.4c-18-136.9-61.4-269.5-118.5-395.2      c-71.7-157.4-131.9-214.4-175.7-352.7c-47.1-149.5-8.2-326.5-43.3-462.1c-12.5-46.1-32.4-90.1-58.1-130.5      c-30.1-47.3-68.3-89.5-113.6-122.3C1517.4,27.9,1426.5,0,1334.1,0z"/>
			</defs>
			<clipPath id="SVGID_00000072268600249877040060000007765059009128802702_">
				<use xlink:href="#SVGID_00000087392403415621455410000006225880510443100569_" style="overflow:visible;"/>
			</clipPath>
			<path style="clip-path:url(#SVGID_00000072268600249877040060000007765059009128802702_);fill:#838384;" d="M1668.2,817.4     c-19.8,18.1,9.4,45.3,23.1,77.2c8.6,19.8,32.4,47.9,55.5,43.4c17.4-3.4,28.1-28.4,26.5-45.9c-3.2-33.9-31.8-41.9-52.6-53.5     C1704.3,829.4,1682.2,804.7,1668.2,817.4z"/>
		</g>
	</g>
	<g transform="translate(3.75) scale(.1875)">
		<path id="linux_svg__v" class="st0" d="M875.8,1076.4c-65.1,73.8-131.9,145.4-168.6,225.3c-18.2,40.5-26.8,84.6-39.3,127.3    c-14.1,48.4-33.3,95.4-54.8,141c-19.9,42.1-41.9,83.3-63.8,124.4c-16,30-32.2,60.5-37.8,94c-4.4,26.5-1.9,53.8,4.9,79.7    c6.7,25.9,17.5,50.7,29.8,74.5c52.1,101.9,130.2,189.5,222.8,256.7c42,30.4,86.9,56.7,134.2,78.4c25.6,11.6,52.5,22.1,80.6,22.5    c14.1,0.3,28.3-2,41.2-7.7c12.8-5.7,24.3-14.7,32-26.6c9.4-14.5,12.6-32.5,10.7-49.7s-8.6-33.6-17.6-48.3    c-22-36.1-56.6-62.2-90-88c-72.1-55.8-141.7-114.8-208.5-176.9c-18.8-17.6-37.7-35.6-50.8-57.8c-12.8-21.5-19.7-46.1-24.4-70.7    c-12.9-67.5-9.6-138.6,13.3-203.4c9.1-25.4,20.9-49.6,32.4-73.9c19.8-42.1,38.6-85.1,64.7-123.7c32.5-48.1,76.1-88.9,102.5-140.5    c22.4-43.6,31.5-92.6,40.1-140.8c6.8-37.8,19.7-74.7,26.3-112.4C942.9,1004.2,901.3,1044.4,875.8,1076.4z"/>
		<g>
			<defs>
				<path id="SVGID_00000072249797982730846810000000536993162249779382_" d="M875.8,1076.4c-65.1,73.8-131.9,145.4-168.6,225.3      c-18.2,40.5-26.8,84.6-39.3,127.3c-14.1,48.4-33.3,95.4-54.8,141c-19.9,42.1-41.9,83.3-63.8,124.4c-16,30-32.2,60.5-37.8,94      c-4.4,26.5-1.9,53.8,4.9,79.7c6.7,25.9,17.5,50.7,29.8,74.5c52.1,101.9,130.2,189.5,222.8,256.7c42,30.4,86.9,56.7,134.2,78.4      c25.6,11.6,52.5,22.1,80.6,22.5c14.1,0.3,28.3-2,41.2-7.7c12.8-5.7,24.3-14.7,32-26.6c9.4-14.5,12.6-32.5,10.7-49.7      s-8.6-33.6-17.6-48.3c-22-36.1-56.6-62.2-90-88c-72.1-55.8-141.7-114.8-208.5-176.9c-18.8-17.6-37.7-35.6-50.8-57.8      c-12.8-21.5-19.7-46.1-24.4-70.7c-12.9-67.5-9.6-138.6,13.3-203.4c9.1-25.4,20.9-49.6,32.4-73.9c19.8-42.1,38.6-85.1,64.7-123.7      c32.5-48.1,76.1-88.9,102.5-140.5c22.4-43.6,31.5-92.6,40.1-140.8c6.8-37.8,19.7-74.7,26.3-112.4      C942.9,1004.2,901.3,1044.4,875.8,1076.4z"/>
			</defs>
			<clipPath id="SVGID_00000172436872489068680930000009781669927350569355_">
				<use xlink:href="#SVGID_00000072249797982730846810000000536993162249779382_" style="overflow:visible;"/>
			</clipPath>
			
				<path style="opacity:0.95;clip-path:url(#SVGID_00000172436872489068680930000009781669927350569355_);fill:#7C7C7C;enable-background:new    ;" d="     M800.9,1345.1c-21.3,19.6-39.8,42.3-54.7,67.3c-24.5,41-38.9,87-56.9,131.3c-13.2,33-28.7,66.1-30.5,101.7     c-1,18.2,1.7,36.5,2.3,54.7c0.6,18.2-1.1,37.2-10,53.1c-7.6,13.4-19.8,23.7-34.3,28.9c19.5,6.5,36.8,19.1,49.1,35.5     c10.2,13.9,16.9,30,25.7,44.6c7.3,11.9,16.1,23,27.1,31.7c10.9,8.7,24,14.9,37.8,16.6c19.1,2.5,38.9-3.8,53-16.9     c-17.7-165.9-1.5-335.1,47.4-494.6c3.1-10,6.3-20.2,7.1-30.6c0.7-10.6-1.3-21.7-7.7-30c-6.9-9.2-18.2-13.9-29.5-12.5     c-5.5,0.6-11,2.8-15.5,6.1C806.8,1335.5,803.1,1339.9,800.9,1345.1z"/>
		</g>
	</g>
	<g transform="translate(3.75) scale(.1875)">
		<path id="linux_svg__w" class="st0" d="M1929.4,1355.9c55.9,45,91.4,113,102.4,183.9c8.5,55.3,3,112.1-9.5,166.6    c-12.5,54.6-31.7,107.3-50.9,160c-7.6,20.9-15.3,42.1-18.2,64.2c-3.1,22.2-1.2,45.5,9.5,65.2c12.3,22.5,35.1,38,59.6,45.2    c24.2,7.3,50.3,7,74.9,1c24.5-6.1,65.8-14,85.8-29.5c50.7-39.4,62.7-107.7,74.8-167.7c12.5-62.6,6.4-128.2-4.6-191.5    c-15-86.3-40.3-170.6-72.4-251.9c-23.7-59.9-53.9-117-90-170.2c-35.4-52.2-85.5-92.8-122.7-143.8c-12.9-17.7-28.4-36.1-41-54    c-27.3-38.6-21.1-31.4-38.1-56.4c-12.3-18.1-31.7-24.3-52.1-32.2c-20.5-7.9-43.3-10.2-64.4-4.4c-27.7,7.8-50.5,29.8-62.5,55.9    c-12.1,26.2-14.2,56.3-9.5,84.8c6.1,36.7,22.8,70.8,41.8,102.8c21.3,36.2,46.1,71,78.4,97.9    C1854.5,1309.9,1895.2,1328.4,1929.4,1355.9z"/>
		<g>
			<defs>
				<path id="SVGID_00000023993368590817544790000004930121681158487480_" d="M1929.4,1355.9c55.9,45,91.4,113,102.4,183.9      c8.5,55.3,3,112.1-9.5,166.6c-12.5,54.6-31.7,107.3-50.9,160c-7.6,20.9-15.3,42.1-18.2,64.2c-3.1,22.2-1.2,45.5,9.5,65.2      c12.3,22.5,35.1,38,59.6,45.2c24.2,7.3,50.3,7,74.9,1c24.5-6.1,65.8-14,85.8-29.5c50.7-39.4,62.7-107.7,74.8-167.7      c12.5-62.6,6.4-128.2-4.6-191.5c-15-86.3-40.3-170.6-72.4-251.9c-23.7-59.9-53.9-117-90-170.2c-35.4-52.2-85.5-92.8-122.7-143.8      c-12.9-17.7-28.4-36.1-41-54c-27.3-38.6-21.1-31.4-38.1-56.4c-12.3-18.1-31.7-24.3-52.1-32.2c-20.5-7.9-43.3-10.2-64.4-4.4      c-27.7,7.8-50.5,29.8-62.5,55.9c-12.1,26.2-14.2,56.3-9.5,84.8c6.1,36.7,22.8,70.8,41.8,102.8c21.3,36.2,46.1,71,78.4,97.9      C1854.5,1309.9,1895.2,1328.4,1929.4,1355.9z"/>
			</defs>
			<clipPath id="SVGID_00000176017229174246510720000009841586343065968515_">
				<use xlink:href="#SVGID_00000023993368590817544790000004930121681158487480_" style="overflow:visible;"/>
			</clipPath>
			<path style="clip-path:url(#SVGID_00000176017229174246510720000009841586343065968515_);fill:#838384;" d="M1797.8,1269.2     c4.5,4.3,9.2,8.6,14,12.7c34.3,28.1,52.6,59.5,87.5,87c57,45,114.7,122.7,125.9,193.6c8.7,55.4-2.8,85.4-16.9,150.6     c-14.1,65.3-54,157.7-75.6,220.6c-8.5,25.1,17.5,14.7,14.1,41.2c-1.7,13-1.9,26.1-0.3,39.1c0.2-2.5,0.3-5.1,0.6-7.6     c4.2-36.1,15.1-70.7,27.2-104.7c23.1-65.4,49.7-129.6,68.1-196.8c18.3-67.1,16.3-115.4,6.7-173.1     c-12.1-72.6-54.3-139.6-114-183.9C1892.6,1316.7,1842.8,1296.6,1797.8,1269.2z"/>
		</g>
	</g>
	<g transform="translate(3.75) scale(.1875)">
		
			<linearGradient id="linux_svg__x_00000170251074068164983590000012132991384577629878_" gradientUnits="userSpaceOnUse" x1="3204.4919" y1="-11604.8525" x2="3643.2119" y2="-12340.96" gradientTransform="matrix(0.1875 0 0 -0.1875 -208.5833 -88.3333)">
			<stop offset="0" style="stop-color:#B98309"/>
			<stop offset="1" style="stop-color:#382605"/>
		</linearGradient>
		<path id="linux_svg__x" style="fill:url(#linux_svg__x_00000170251074068164983590000012132991384577629878_);" d="M566.5,1870.2    c14.7-6.1,31.3-7.3,46.8-4.4c15.7,2.9,30.5,9.7,43.6,18.6c26.3,17.9,45.9,43.9,64.5,69.8c43,59.1,84.3,119.5,121.8,182.2    c30.4,51,58.2,103.6,93.4,151.3c22.9,31.3,48.7,60.2,71.8,91.2c23,31.1,43.4,64.9,53.7,102.2c13.3,48.5,8.1,102-14.9,146.7    c-16.2,31.5-41.2,58.5-71.5,76.7c-30.3,18.2-62.2,26.3-97.6,26.3c-56.2,0-111.1-30.2-163.4-51c-106.5-42.5-222.1-55.7-331.8-88.7    c-33.7-10.1-66.9-22.2-100.8-31.5c-15.1-4.2-30.4-7.8-44.7-14.3c-14.3-6.4-27.6-16.1-35.5-29.5c-6.1-10.5-8.5-22.7-8.5-34.8    c0-12.2,3-24.1,7.1-35.4c8.2-22.7,21.5-43.3,30.5-65.8c14.6-36.7,17.3-77.1,15.3-116.6c-1.9-39.4-8.3-78.5-11-117.9    c-1.3-17.6-1.7-35.4,1.7-52.8c3.3-17.3,10.8-34.2,23.5-46.4c11.7-11.3,27.2-18,43.2-21.3c15.9-3.3,32.3-3.4,48.5-3.1    c16.2,0.3,32.5,1.3,48.7-0.1c16.2-1.3,32.5-4.9,46.6-13c13.4-7.7,24.4-19.1,33.5-31.6c9.1-12.5,16.4-26.1,24-39.7    c7.5-13.4,15.3-26.9,25.2-38.8C540,1886.4,552.2,1876.1,566.5,1870.2z"/>
		<g>
			<defs>
				<path id="SVGID_00000111160461483524690770000000488829740508554409_" d="M566.5,1870.2c14.7-6.1,31.3-7.3,46.8-4.4      c15.7,2.9,30.5,9.7,43.6,18.6c26.3,17.9,45.9,43.9,64.5,69.8c43,59.1,84.3,119.5,121.8,182.2c30.4,51,58.2,103.6,93.4,151.3      c22.9,31.3,48.7,60.2,71.8,91.2c23,31.1,43.4,64.9,53.7,102.2c13.3,48.5,8.1,102-14.9,146.7c-16.2,31.5-41.2,58.5-71.5,76.7      c-30.3,18.2-62.2,26.3-97.6,26.3c-56.2,0-111.1-30.2-163.4-51c-106.5-42.5-222.1-55.7-331.8-88.7      c-33.7-10.1-66.9-22.2-100.8-31.5c-15.1-4.2-30.4-7.8-44.7-14.3c-14.3-6.4-27.6-16.1-35.5-29.5c-6.1-10.5-8.5-22.7-8.5-34.8      c0-12.2,3-24.1,7.1-35.4c8.2-22.7,21.5-43.3,30.5-65.8c14.6-36.7,17.3-77.1,15.3-116.6c-1.9-39.4-8.3-78.5-11-117.9      c-1.3-17.6-1.7-35.4,1.7-52.8c3.3-17.3,10.8-34.2,23.5-46.4c11.7-11.3,27.2-18,43.2-21.3c15.9-3.3,32.3-3.4,48.5-3.1      c16.2,0.3,32.5,1.3,48.7-0.1c16.2-1.3,32.5-4.9,46.6-13c13.4-7.7,24.4-19.1,33.5-31.6c9.1-12.5,16.4-26.1,24-39.7      c7.5-13.4,15.3-26.9,25.2-38.8C540,1886.4,552.2,1876.1,566.5,1870.2z"/>
			</defs>
			<clipPath id="SVGID_00000179621260640072817600000011401346215750112668_">
				<use xlink:href="#SVGID_00000111160461483524690770000000488829740508554409_" style="overflow:visible;"/>
			</clipPath>
			<path style="clip-path:url(#SVGID_00000179621260640072817600000011401346215750112668_);fill:#D99A03;" d="M589.7,1895.5     c13.3-5.3,28.5-6,42.5-2.8c14.1,3.2,27.2,10,38.5,18.9c22.8,17.6,38.6,42.3,53.9,66.8c36.5,59.1,72.1,118.9,105.8,179.8     c25.6,46,49.9,92.8,81.3,134.9c20.8,27.9,44.6,53.7,65.8,81.3c21.2,27.6,40.1,57.7,49.5,91.3c12.2,43.2,7.3,91.1-13.7,130.8     c-15.1,28.6-38.2,52.9-66.1,69.1c-28.1,16.3-60.2,24.2-92.7,22.8c-51.4-2.3-98.5-28.1-146.9-45.4     c-92.9-33.7-193.5-38.3-288.9-64.5c-34.1-9.3-67.4-21.7-101.7-30.3c-15.3-3.8-30.7-7-45.1-13.1c-14.4-6.1-27.9-15.5-35.8-29     c-5.8-10.1-8.1-22-7.8-33.6c0.4-11.6,3.3-23.1,7.5-34c8.3-21.8,21.3-41.4,29.7-63.1c12.7-32.9,14.3-69,11.9-104.1     c-2.3-35.1-8.5-70-10.7-105.1c-0.9-15.8-1.1-31.7,2.1-47c3.2-15.5,9.9-30.4,21.1-41.5c12.2-12.1,28.8-18.6,45.8-21.2     c16.9-2.6,34-1.4,51,0.1c17.1,1.5,34.1,3.4,51.2,2.5c17.1-1.1,34.3-5.2,48.4-14.8c12.8-8.6,22.4-21.3,29.8-34.9     c7.4-13.5,12.6-28.2,18.2-42.5c5.5-14.4,11.6-28.7,20.4-41.5C563.5,1912.5,575.3,1901.3,589.7,1895.5z"/>
		</g>
		<g>
			<defs>
				<path id="SVGID_00000152953843923459606800000009279780431688320413_" d="M566.5,1870.2c14.7-6.1,31.3-7.3,46.8-4.4      c15.7,2.9,30.5,9.7,43.6,18.6c26.3,17.9,45.9,43.9,64.5,69.8c43,59.1,84.3,119.5,121.8,182.2c30.4,51,58.2,103.6,93.4,151.3      c22.9,31.3,48.7,60.2,71.8,91.2c23,31.1,43.4,64.9,53.7,102.2c13.3,48.5,8.1,102-14.9,146.7c-16.2,31.5-41.2,58.5-71.5,76.7      c-30.3,18.2-62.2,26.3-97.6,26.3c-56.2,0-111.1-30.2-163.4-51c-106.5-42.5-222.1-55.7-331.8-88.7      c-33.7-10.1-66.9-22.2-100.8-31.5c-15.1-4.2-30.4-7.8-44.7-14.3c-14.3-6.4-27.6-16.1-35.5-29.5c-6.1-10.5-8.5-22.7-8.5-34.8      c0-12.2,3-24.1,7.1-35.4c8.2-22.7,21.5-43.3,30.5-65.8c14.6-36.7,17.3-77.1,15.3-116.6c-1.9-39.4-8.3-78.5-11-117.9      c-1.3-17.6-1.7-35.4,1.7-52.8c3.3-17.3,10.8-34.2,23.5-46.4c11.7-11.3,27.2-18,43.2-21.3c15.9-3.3,32.3-3.4,48.5-3.1      c16.2,0.3,32.5,1.3,48.7-0.1c16.2-1.3,32.5-4.9,46.6-13c13.4-7.7,24.4-19.1,33.5-31.6c9.1-12.5,16.4-26.1,24-39.7      c7.5-13.4,15.3-26.9,25.2-38.8C540,1886.4,552.2,1876.1,566.5,1870.2z"/>
			</defs>
			<clipPath id="SVGID_00000117666048282029819530000017177483914425412030_">
				<use xlink:href="#SVGID_00000152953843923459606800000009279780431688320413_" style="overflow:visible;"/>
			</clipPath>
			<path style="clip-path:url(#SVGID_00000117666048282029819530000017177483914425412030_);fill:#F5BD0C;" d="M577.2,1862.1     c13-6.4,28.3-7.7,42.5-4.8c14.2,2.9,27.4,9.8,38.6,18.9c22.3,18.1,36.6,44.1,49.8,69.4c30.3,58.2,58.7,117.8,94.9,172.7     c26.5,39.8,56.9,76.8,83.5,116.5c36.2,53.7,65.6,112.7,77.8,176c8.1,42.7,7.9,88.6-12.6,126.9c-13.5,25.3-35.4,46-61.3,58.9     c-25.8,13-55.6,18.2-84.5,15.7c-45.5-3.9-86.8-26.3-129.7-42c-76.1-27.6-158.3-34.3-236.6-55.3c-33-8.7-65.4-20.2-98.8-27.1     c-14.8-3.1-29.9-5.3-43.9-10.7c-14.1-5.3-27.4-14.2-34.7-27.2c-5-9.2-6.7-19.8-6-30.3c0.7-10.3,3.8-20.5,7.9-30.2     c8.2-19.2,20.3-36.9,26.6-56.7c9.4-29.3,5.5-61-1.5-91c-6.9-29.9-17.1-59.2-20.2-89.7c-1.4-13.5-1.4-27.4,1.8-40.7     c3.1-13.3,9.4-26.1,19.3-35.6c12.8-12.3,30.7-18.5,48.6-20.2c17.8-1.7,35.7,0.6,53.4,3.2s35.6,5.3,53.4,4.5     c17.9-0.7,36.2-5.4,50.1-16.4c13.9-10.9,22.6-27,27.6-43.6c5-16.7,6.6-34.1,8.6-51.4c2-17.3,4.6-34.8,11.3-50.9     C550.1,1884.8,561.4,1870,577.2,1862.1z"/>
		</g>
		<g>
			<defs>
				<path id="SVGID_00000007386910323309104180000004306462855238946945_" d="M566.5,1870.2c14.7-6.1,31.3-7.3,46.8-4.4      c15.7,2.9,30.5,9.7,43.6,18.6c26.3,17.9,45.9,43.9,64.5,69.8c43,59.1,84.3,119.5,121.8,182.2c30.4,51,58.2,103.6,93.4,151.3      c22.9,31.3,48.7,60.2,71.8,91.2c23,31.1,43.4,64.9,53.7,102.2c13.3,48.5,8.1,102-14.9,146.7c-16.2,31.5-41.2,58.5-71.5,76.7      c-30.3,18.2-62.2,26.3-97.6,26.3c-56.2,0-111.1-30.2-163.4-51c-106.5-42.5-222.1-55.7-331.8-88.7      c-33.7-10.1-66.9-22.2-100.8-31.5c-15.1-4.2-30.4-7.8-44.7-14.3c-14.3-6.4-27.6-16.1-35.5-29.5c-6.1-10.5-8.5-22.7-8.5-34.8      c0-12.2,3-24.1,7.1-35.4c8.2-22.7,21.5-43.3,30.5-65.8c14.6-36.7,17.3-77.1,15.3-116.6c-1.9-39.4-8.3-78.5-11-117.9      c-1.3-17.6-1.7-35.4,1.7-52.8c3.3-17.3,10.8-34.2,23.5-46.4c11.7-11.3,27.2-18,43.2-21.3c15.9-3.3,32.3-3.4,48.5-3.1      c16.2,0.3,32.5,1.3,48.7-0.1c16.2-1.3,32.5-4.9,46.6-13c13.4-7.7,24.4-19.1,33.5-31.6c9.1-12.5,16.4-26.1,24-39.7      c7.5-13.4,15.3-26.9,25.2-38.8C540,1886.4,552.2,1876.1,566.5,1870.2z"/>
			</defs>
			<clipPath id="SVGID_00000116234881677202075980000005191445268865816745_">
				<use xlink:href="#SVGID_00000007386910323309104180000004306462855238946945_" style="overflow:visible;"/>
			</clipPath>
			
				<linearGradient id="SVGID_00000143598024608670244650000009538482026746819473_" gradientUnits="userSpaceOnUse" x1="5796.4482" y1="-12472.8154" x2="5934.4751" y2="-12732.8691" gradientTransform="matrix(0.1875 0 0 -0.1875 -208.5833 -88.3333)">
				<stop offset="0" style="stop-color:#EBC40C"/>
				<stop offset="1" style="stop-color:#EBC40C;stop-opacity:0"/>
			</linearGradient>
			
				<path style="clip-path:url(#SVGID_00000116234881677202075980000005191445268865816745_);fill:url(#SVGID_00000143598024608670244650000009538482026746819473_);" d="     M739.5,2007.6c24,43.3,38.6,93,62.4,136.7c21.9,40.2,46.7,81.6,68.9,118.6c9.9,16.5,33,41.9,56.2,81.3     c21.1,35.6,42.5,85.4,54.4,102.2c-6.8-19.6-20.9-72.2-37.8-109.7c-15.7-35-34-54.9-45.2-73.8c-22.2-37-46.2-70.4-69-105.7     C797.9,2108.5,773.9,2054,739.5,2007.6z"/>
		</g>
	</g>
	<g transform="translate(3.75) scale(.1875)">
		<g>
			<defs>
				<path id="SVGID_00000018200722870287703670000003082269667857213570_" d="M1334.1,0c-64,0-128.2,12.6-186.2,43.9      c-61.7,33.2-112.2,86.3-143.3,149c-31.1,62.7-43.3,129.7-45.2,203.5c-3.5,140.2,3.2,287.1,13.8,420.4      c2.8,40.5,7.9,64.2,2.7,105.9c-17.3,88.5-94.7,148.1-136.1,225.8c-45.5,85.8-64.7,182.7-99.1,273.6      c-31.5,83.1-75.6,161.1-105.4,244.8c-41.7,117-54.2,245.7-26.7,366.8c21,92.4,64.9,179,123.9,253.1c-8.5,15.4-16.9,31-25.6,46.3      c-27.4,47.3-60.9,92.2-76.5,144.5c-7.8,26.1-10.9,54.1-5.9,81c5,26.9,18.7,52.6,40,69.7c14,11.1,30.9,18.3,48.3,22.4      c17.4,3.9,35.4,4.9,53.3,4.6c67.9-1.5,133.9-22.1,199.6-39.4c39-10.2,78.3-19.3,117.7-27.5c140.2-28.7,296.5-17.2,426.6,1.6      c44.1,6.7,87.8,15.4,131.1,25.9c67.8,16.4,135.4,37.3,205.1,39.4c18.3,0.5,36.9-0.3,54.8-4.3c17.9-4.1,35.3-11.3,49.6-22.7      c21.4-17.1,35.1-42.9,40.1-69.8c5-26.9,1.9-54.9-6-81.2c-15.8-52.5-49.6-97.2-77.5-144.2c-11.1-18.7-21.3-37.7-32.3-56.3      c84.3-94.6,152.1-204.1,191.4-324.3c42.8-131.2,50.7-272.5,32.6-409.4c-18-136.9-61.4-269.5-118.5-395.2      c-71.7-157.4-131.9-214.4-175.7-352.7c-47.1-149.5-8.2-326.5-43.3-462.1c-12.5-46.1-32.4-90.1-58.1-130.5      c-30.1-47.3-68.3-89.5-113.6-122.3C1517.4,27.9,1426.5,0,1334.1,0z"/>
			</defs>
			<clipPath id="SVGID_00000175319307781191773720000012025869840212998016_">
				<use xlink:href="#SVGID_00000018200722870287703670000003082269667857213570_" style="overflow:visible;"/>
			</clipPath>
			
				<linearGradient id="SVGID_00000019647109279814228350000004011565494655243399_" gradientUnits="userSpaceOnUse" x1="11545.0576" y1="-12385.8213" x2="11579.9375" y2="-12639.3682" gradientTransform="matrix(0.1875 0 0 -0.1875 -208.5833 -88.3333)">
				<stop offset="0" style="stop-color:#000000"/>
				<stop offset="1" style="stop-color:#000000;stop-opacity:0"/>
			</linearGradient>
			
				<path style="opacity:0.2;clip-path:url(#SVGID_00000175319307781191773720000012025869840212998016_);fill:url(#SVGID_00000019647109279814228350000004011565494655243399_);enable-background:new    ;" d="     M2312.8,2299.8c-4.3,14.2-10.9,27.9-19.3,40.5c-18.7,27.6-45.9,48.5-73,67.7c-46.2,32.7-94.4,62.8-137.5,100.1     c-28.8,25-55.1,53-79.5,82.5c-20.8,25.2-40.4,51.6-64.2,74c-24,22.6-52.2,41-82.6,50.9c-37,12.1-76.1,11.5-111.7,2.3     c-25-6.4-49.4-17.5-64.9-37.7c-15.5-20.2-20.5-47.4-22.3-74c-3.2-47.1,2.5-95.3,7.6-143.1c4.3-39.8,8.2-79.6,9.8-119.3     c2.9-72.2-1.9-143.7-11.6-213.9c-1.7-11.8-3.4-23.7-2.5-35.7c1-12.2,5-24.7,13.5-34.1c7.9-8.6,18.9-13.8,29.8-16.2     c10.9-2.6,22-2.7,33-3c25.9-0.6,51.8-2.2,77.3,0.1c16.1,1.4,31.9,4.4,47.9,5.9c26.8,2.6,54.6,1.3,81.5-6.6     c28.9-8.5,56.4-24.4,85.9-28.8c12.1-1.8,24.1-1.6,35.8,0.1c11.9,1.6,23.9,4.9,33.1,12.3c7,5.5,12.2,13.1,16.1,21.2     c6,12.2,9.6,25.5,11.7,39.3c1.8,12.2,2.6,24.6,5.7,36.4c5.1,19.3,16.9,35.7,30.8,49.1c14.1,13.3,30.4,23.9,46.8,34.3     c16.3,10.3,32.7,20.6,50.1,29.1c8.2,4.1,16.6,7.7,24.4,12.3c7.9,4.7,15.1,10.3,20.4,17.8     C2312.2,2273.4,2314.9,2286.7,2312.8,2299.8z"/>
		</g>
		
			<linearGradient id="linux_svg__y_00000048485115555649571380000003536295101380585344_" gradientUnits="userSpaceOnUse" x1="10646.2695" y1="-14793.6133" x2="11088.2969" y2="-14077.0264" gradientTransform="matrix(0.1875 0 0 -0.1875 -208.5833 -88.3333)">
			<stop offset="0" style="stop-color:#3E2A06"/>
			<stop offset="1" style="stop-color:#AD780A"/>
		</linearGradient>
		<path id="linux_svg__y" style="fill:url(#linux_svg__y_00000048485115555649571380000003536295101380585344_);" d="M2470.3,2377.8    c-24.1,28.6-57.6,47.5-91,64.5c-56.9,28.9-115.8,54.4-169.3,89.3c-35.8,23.4-68.9,50.8-99.8,80.3c-26.5,25.3-51.5,52.3-81.2,73.7    c-30,21.7-64.5,37.3-101.1,42.8c-10.1,1.5-20.3,2.2-30.5,2.2c-34.6,0-69.1-8.3-100.9-22.2c-28.8-12.5-56.5-30.5-73.2-57.2    c-16.6-26.9-20.5-59.6-20.5-91.3c-0.1-55.8,10.2-111,19.9-166.1c8.1-45.8,15.8-91.5,20.8-137.7c9.1-83.8,9-168.6,3-252.9    c-1.1-14.1-2.2-28.3-0.1-42.2c2.1-14,7.9-27.9,18.6-37.1c9.9-8.5,23.1-12.4,36.3-13c13-0.7,26,1.3,38.9,3.2    c30.4,4.5,61.1,7.9,90.9,15.8c18.8,4.9,37.1,11.5,55.8,16.6c31.4,8.4,64.1,12.5,96.2,8.7c34.7-4.1,68.4-17.1,103.3-16.2    c14.3,0.3,28.5,3,42.1,7.4c13.9,4.4,27.6,10.7,37.9,21.1c7.8,7.9,13.2,17.8,17.3,28.2c6.1,15.4,9.4,31.8,10.8,48.2    c1.2,14.6,1,29.4,3.7,43.8c4.6,23.6,17.1,45.2,32.4,63.7c15.5,18.6,33.9,34.2,52.4,49.7s36.9,30.8,56.7,44.4    c9.3,6.4,18.9,12.4,27.7,19.3c8.9,7,17,15.1,22.5,25c4.8,8.6,7.4,18.3,7.4,28.3c0,5.5-0.7,11.1-2.5,16.6    C2490.1,2350,2481.2,2364.8,2470.3,2377.8z"/>
		<g>
			<defs>
				<path id="SVGID_00000026848956274375992030000003809080125951422628_" d="M2470.3,2377.8c-24.1,28.6-57.6,47.5-91,64.5      c-56.9,28.9-115.8,54.4-169.3,89.3c-35.8,23.4-68.9,50.8-99.8,80.3c-26.5,25.3-51.5,52.3-81.2,73.7      c-30,21.7-64.5,37.3-101.1,42.8c-10.1,1.5-20.3,2.2-30.5,2.2c-34.6,0-69.1-8.3-100.9-22.2c-28.8-12.5-56.5-30.5-73.2-57.2      c-16.6-26.9-20.5-59.6-20.5-91.3c-0.1-55.8,10.2-111,19.9-166.1c8.1-45.8,15.8-91.5,20.8-137.7c9.1-83.8,9-168.6,3-252.9      c-1.1-14.1-2.2-28.3-0.1-42.2c2.1-14,7.9-27.9,18.6-37.1c9.9-8.5,23.1-12.4,36.3-13c13-0.7,26,1.3,38.9,3.2      c30.4,4.5,61.1,7.9,90.9,15.8c18.8,4.9,37.1,11.5,55.8,16.6c31.4,8.4,64.1,12.5,96.2,8.7c34.7-4.1,68.4-17.1,103.3-16.2      c14.3,0.3,28.5,3,42.1,7.4c13.9,4.4,27.6,10.7,37.9,21.1c7.8,7.9,13.2,17.8,17.3,28.2c6.1,15.4,9.4,31.8,10.8,48.2      c1.2,14.6,1,29.4,3.7,43.8c4.6,23.6,17.1,45.2,32.4,63.7c15.5,18.6,33.9,34.2,52.4,49.7s36.9,30.8,56.7,44.4      c9.3,6.4,18.9,12.4,27.7,19.3c8.9,7,17,15.1,22.5,25c4.8,8.6,7.4,18.3,7.4,28.3c0,5.5-0.7,11.1-2.5,16.6      C2490.1,2350,2481.2,2364.8,2470.3,2377.8z"/>
			</defs>
			<clipPath id="SVGID_00000089537308259581693130000000800196887473177748_">
				<use xlink:href="#SVGID_00000026848956274375992030000003809080125951422628_" style="overflow:visible;"/>
			</clipPath>
			<path style="clip-path:url(#SVGID_00000089537308259581693130000000800196887473177748_);fill:#CD8907;" d="M2467.6,2305.3     c-5.7,14.2-13.7,27.5-23.7,39.1c-22.1,25.8-52.6,42.8-83,58c-52.1,26-105.8,48.9-154.7,80.2c-32.6,21-62.9,45.7-91.2,72.3     c-24.1,22.7-47,47-74.1,66.2c-27.4,19.5-59,33.5-92.3,38.4c-40.5,6-82.3-1.7-120-17.8c-26.2-11.3-51.6-27.3-66.9-51.5     c-15.1-24.1-18.7-53.5-18.7-82c-0.2-50.2,9.3-99.9,18.2-149.3c7.5-41.1,14.5-82.2,19-123.7c8.1-75.5,7.8-151.7,2.7-227.4     c-0.9-12.7-1.8-25.5,0.1-38.1c1.9-12.6,7.1-25.1,16.7-33.4c9.1-7.8,21.2-11.2,33.2-11.7c11.8-0.6,23.7,1.3,35.5,3     c27.8,4.1,55.8,7.1,83,14.2c17.2,4.5,33.9,10.5,51,14.9c28.6,7.7,58.6,11.3,87.9,7.9c31.7-3.6,62.4-15.4,94.2-14.6     c13.1,0.3,26,2.8,38.5,6.6c12.7,3.9,25.3,9.6,34.7,19c7,7.1,11.8,16.1,15.8,25.4c5.7,13.8,9.5,28.5,9.7,43.4     c0.3,15.6-3,31.1-1,46.6c1.7,12.5,7,24.3,13.9,35c6.7,10.7,14.9,20.4,23.1,30c15.8,18.7,31.6,37.7,51.4,51.9     c22.5,16.3,49.3,25.9,72.5,41.1c6.9,4.6,13.7,9.7,18.6,16.4C2470.1,2276.7,2472.3,2292.1,2467.6,2305.3z"/>
		</g>
		<g>
			<defs>
				<path id="SVGID_00000067921432148140421000000008206955507677518004_" d="M2470.3,2377.8c-24.1,28.6-57.6,47.5-91,64.5      c-56.9,28.9-115.8,54.4-169.3,89.3c-35.8,23.4-68.9,50.8-99.8,80.3c-26.5,25.3-51.5,52.3-81.2,73.7      c-30,21.7-64.5,37.3-101.1,42.8c-10.1,1.5-20.3,2.2-30.5,2.2c-34.6,0-69.1-8.3-100.9-22.2c-28.8-12.5-56.5-30.5-73.2-57.2      c-16.6-26.9-20.5-59.6-20.5-91.3c-0.1-55.8,10.2-111,19.9-166.1c8.1-45.8,15.8-91.5,20.8-137.7c9.1-83.8,9-168.6,3-252.9      c-1.1-14.1-2.2-28.3-0.1-42.2c2.1-14,7.9-27.9,18.6-37.1c9.9-8.5,23.1-12.4,36.3-13c13-0.7,26,1.3,38.9,3.2      c30.4,4.5,61.1,7.9,90.9,15.8c18.8,4.9,37.1,11.5,55.8,16.6c31.4,8.4,64.1,12.5,96.2,8.7c34.7-4.1,68.4-17.1,103.3-16.2      c14.3,0.3,28.5,3,42.1,7.4c13.9,4.4,27.6,10.7,37.9,21.1c7.8,7.9,13.2,17.8,17.3,28.2c6.1,15.4,9.4,31.8,10.8,48.2      c1.2,14.6,1,29.4,3.7,43.8c4.6,23.6,17.1,45.2,32.4,63.7c15.5,18.6,33.9,34.2,52.4,49.7s36.9,30.8,56.7,44.4      c9.3,6.4,18.9,12.4,27.7,19.3c8.9,7,17,15.1,22.5,25c4.8,8.6,7.4,18.3,7.4,28.3c0,5.5-0.7,11.1-2.5,16.6      C2490.1,2350,2481.2,2364.8,2470.3,2377.8z"/>
			</defs>
			<clipPath id="SVGID_00000151533163318668503820000008512466829312051103_">
				<use xlink:href="#SVGID_00000067921432148140421000000008206955507677518004_" style="overflow:visible;"/>
			</clipPath>
			<path style="clip-path:url(#SVGID_00000151533163318668503820000008512466829312051103_);fill:#F5C021;" d="M2464.4,2289.2     c-6.4,14.4-14.6,27.7-24.3,39.6c-22.6,27.5-53.2,46.4-85.3,58.6c-53,20.1-110.8,22.7-162.8,45.5c-31.7,13.9-60.3,34.8-89.2,54.6     c-23.3,15.9-47.1,31.4-72.7,42.5c-29,12.7-59.7,19.7-90.7,24.7c-19.6,3.1-39.6,5.4-59.4,4.4c-19.8-1.1-39.7-5.8-57.3-15.9     c-13.2-7.7-25.2-18.7-32.3-33.1c-7.8-15.9-9.2-34.6-9.1-52.7c0.5-48,10.9-95.6,10.6-143.7c-0.3-41.9-8.6-83.2-11-125     c-4.6-80.4,12.7-162.1-2.6-241c-2.3-12.7-5.7-25.3-5.5-38.2c0.1-6.4,1.1-12.9,3.3-18.9c2.3-5.9,6-11.3,10.8-15.1     c4.2-3.1,9-5,14-6c4.9-0.9,10-0.6,15,0.1c9.9,1.6,19.4,5.4,29.1,8.3c27.7,8.3,57.1,8.1,85.3,14.4c17.7,3.8,34.8,10.3,52.4,15     c29.3,8.1,60.1,11.5,90.2,8c32.4-3.8,64.1-15.6,96.7-14.7c13.4,0.3,26.7,2.8,39.6,6.6s25.8,9.3,35.6,19.2     c6.9,7.1,12.1,16.2,16.1,25.6c6.1,13.8,10.2,28.7,10.1,43.8c-0.1,7.9-1.3,15.7-2,23.6c-0.6,7.9-0.9,15.9,1,23.5     c1.9,7.7,5.9,14.6,10.3,20.9s9.6,11.9,14.3,18.1c13,17.2,22.4,37.2,32.5,56.5s21.5,38.4,37.7,52.4c21.9,18.9,50.1,26.5,74.6,41.5     c7.1,4.4,14,9.5,19,16.5c4.1,5.5,6.7,12.3,7.8,19.3C2467.1,2275.2,2466.5,2282.6,2464.4,2289.2z"/>
		</g>
		<g>
			<defs>
				<path id="SVGID_00000080916074313039961220000007463491622682632070_" d="M2470.3,2377.8c-24.1,28.6-57.6,47.5-91,64.5      c-56.9,28.9-115.8,54.4-169.3,89.3c-35.8,23.4-68.9,50.8-99.8,80.3c-26.5,25.3-51.5,52.3-81.2,73.7      c-30,21.7-64.5,37.3-101.1,42.8c-10.1,1.5-20.3,2.2-30.5,2.2c-34.6,0-69.1-8.3-100.9-22.2c-28.8-12.5-56.5-30.5-73.2-57.2      c-16.6-26.9-20.5-59.6-20.5-91.3c-0.1-55.8,10.2-111,19.9-166.1c8.1-45.8,15.8-91.5,20.8-137.7c9.1-83.8,9-168.6,3-252.9      c-1.1-14.1-2.2-28.3-0.1-42.2c2.1-14,7.9-27.9,18.6-37.1c9.9-8.5,23.1-12.4,36.3-13c13-0.7,26,1.3,38.9,3.2      c30.4,4.5,61.1,7.9,90.9,15.8c18.8,4.9,37.1,11.5,55.8,16.6c31.4,8.4,64.1,12.5,96.2,8.7c34.7-4.1,68.4-17.1,103.3-16.2      c14.3,0.3,28.5,3,42.1,7.4c13.9,4.4,27.6,10.7,37.9,21.1c7.8,7.9,13.2,17.8,17.3,28.2c6.1,15.4,9.4,31.8,10.8,48.2      c1.2,14.6,1,29.4,3.7,43.8c4.6,23.6,17.1,45.2,32.4,63.7c15.5,18.6,33.9,34.2,52.4,49.7s36.9,30.8,56.7,44.4      c9.3,6.4,18.9,12.4,27.7,19.3c8.9,7,17,15.1,22.5,25c4.8,8.6,7.4,18.3,7.4,28.3c0,5.5-0.7,11.1-2.5,16.6      C2490.1,2350,2481.2,2364.8,2470.3,2377.8z"/>
			</defs>
			<clipPath id="SVGID_00000106142543546376589860000018224807924621239172_">
				<use xlink:href="#SVGID_00000080916074313039961220000007463491622682632070_" style="overflow:visible;"/>
			</clipPath>
			
				<linearGradient id="SVGID_00000034074129027865031170000012257950091436245148_" gradientUnits="userSpaceOnUse" x1="11889.2666" y1="-10803.0127" x2="11876.2529" y2="-10920.0254" gradientTransform="matrix(0.1875 0 0 -0.1875 -208.5833 -88.3333)">
				<stop offset="0" style="stop-color:#F3CD0C"/>
				<stop offset="1" style="stop-color:#F3CD0C;stop-opacity:0"/>
			</linearGradient>
			
				<path style="clip-path:url(#SVGID_00000106142543546376589860000018224807924621239172_);fill:url(#SVGID_00000034074129027865031170000012257950091436245148_);" d="     M1772.9,1936.9c30.1-8.1,55.7,14.7,77.5,31.9c14.1,12.1,34.6,9.1,51.8,9.6c28.7-1,57.2,4.8,85.9,1.3     c56.5-4.8,111.9-18.7,168.6-21c27.1-1.7,57.6-3.3,81,12.5c9.5,6.6,23.5,34.5,32.7,24c-3.8-29.2-25.5-57.5-54.5-65.3     c-22.8-3.6-45.9,2.7-68.9,0.6c-68.2-1.6-136-14.3-204.4-10.7c-47.6,0.4-95-1.8-142.6-3.6c-18.7-3.8-25.3,12.7-35.4,19.1     C1767.3,1937.3,1768.3,1937.9,1772.9,1936.9z"/>
		</g>
	</g>
	<g transform="translate(3.75) scale(.1875)">
		<g>
			<defs>
				<path id="SVGID_00000153668012704261122600000007688898612325650837_" d="M2470.3,2377.8c-24.1,28.6-57.6,47.5-91,64.5      c-56.9,28.9-115.8,54.4-169.3,89.3c-35.8,23.4-68.9,50.8-99.8,80.3c-26.5,25.3-51.5,52.3-81.2,73.7      c-30,21.7-64.5,37.3-101.1,42.8c-10.1,1.5-20.3,2.2-30.5,2.2c-34.6,0-69.1-8.3-100.9-22.2c-28.8-12.5-56.5-30.5-73.2-57.2      c-16.6-26.9-20.5-59.6-20.5-91.3c-0.1-55.8,10.2-111,19.9-166.1c8.1-45.8,15.8-91.5,20.8-137.7c9.1-83.8,9-168.6,3-252.9      c-1.1-14.1-2.2-28.3-0.1-42.2c2.1-14,7.9-27.9,18.6-37.1c9.9-8.5,23.1-12.4,36.3-13c13-0.7,26,1.3,38.9,3.2      c30.4,4.5,61.1,7.9,90.9,15.8c18.8,4.9,37.1,11.5,55.8,16.6c31.4,8.4,64.1,12.5,96.2,8.7c34.7-4.1,68.4-17.1,103.3-16.2      c14.3,0.3,28.5,3,42.1,7.4c13.9,4.4,27.6,10.7,37.9,21.1c7.8,7.9,13.2,17.8,17.3,28.2c6.1,15.4,9.4,31.8,10.8,48.2      c1.2,14.6,1,29.4,3.7,43.8c4.6,23.6,17.1,45.2,32.4,63.7c15.5,18.6,33.9,34.2,52.4,49.7s36.9,30.8,56.7,44.4      c9.3,6.4,18.9,12.4,27.7,19.3c8.9,7,17,15.1,22.5,25c4.8,8.6,7.4,18.3,7.4,28.3c0,5.5-0.7,11.1-2.5,16.6      C2490.1,2350,2481.2,2364.8,2470.3,2377.8z"/>
			</defs>
			<clipPath id="SVGID_00000070835092275044809590000002256133152888592316_">
				<use xlink:href="#SVGID_00000153668012704261122600000007688898612325650837_" style="overflow:visible;"/>
			</clipPath>
			
				<radialGradient id="SVGID_00000121281611978424664570000008721435714711249336_" cx="451.7625" cy="2968.4087" r="10.6667" gradientTransform="matrix(3.5606 0.9541 1.0016 -3.7381 -2578.2412 12740.2744)" gradientUnits="userSpaceOnUse">
				<stop offset="0" style="stop-color:#110800"/>
				<stop offset="0.59" style="stop-color:#A65A00;stop-opacity:0.8"/>
				<stop offset="1" style="stop-color:#FF921E;stop-opacity:0"/>
			</radialGradient>
			
				<path style="opacity:0.35;clip-path:url(#SVGID_00000070835092275044809590000002256133152888592316_);fill:url(#SVGID_00000121281611978424664570000008721435714711249336_);enable-background:new    ;" d="     M2171.9,2001.2c-5.1-10.1-14.5-17.7-25.1-22.1c-10.5-4.4-22-5.9-33.4-5.8c-22.7,0.2-45.3,6.1-68.1,4.2     c-19.1-1.7-37.2-8.9-55.9-13.4c-19.3-4.7-39.8-6.5-58.9-1.3c-20.5,5.5-38.5,19.3-49.8,37.2c-10,15.8-14.7,34.5-16.2,53.1     c-1.5,18.7,0.1,37.3,2,56c1.3,13.4,2.9,26.9,6.1,40c3.3,13.1,8.3,25.9,16.2,36.9c11.4,15.8,28.4,27.1,46.6,33.8     c29.9,11,63.8,10.5,93.1-1.6c52.1-22.6,96.1-63.1,122.9-113.1c9.7-17.9,17.2-37,22-56.6c1.9-7.9,3.4-15.9,3.4-24     C2177,2016.5,2175.6,2008.3,2171.9,2001.2z"/>
		</g>
		<g>
			<defs>
				<path id="SVGID_00000177455550251209701050000013359480211034766473_" d="M2470.3,2377.8c-24.1,28.6-57.6,47.5-91,64.5      c-56.9,28.9-115.8,54.4-169.3,89.3c-35.8,23.4-68.9,50.8-99.8,80.3c-26.5,25.3-51.5,52.3-81.2,73.7      c-30,21.7-64.5,37.3-101.1,42.8c-10.1,1.5-20.3,2.2-30.5,2.2c-34.6,0-69.1-8.3-100.9-22.2c-28.8-12.5-56.5-30.5-73.2-57.2      c-16.6-26.9-20.5-59.6-20.5-91.3c-0.1-55.8,10.2-111,19.9-166.1c8.1-45.8,15.8-91.5,20.8-137.7c9.1-83.8,9-168.6,3-252.9      c-1.1-14.1-2.2-28.3-0.1-42.2c2.1-14,7.9-27.9,18.6-37.1c9.9-8.5,23.1-12.4,36.3-13c13-0.7,26,1.3,38.9,3.2      c30.4,4.5,61.1,7.9,90.9,15.8c18.8,4.9,37.1,11.5,55.8,16.6c31.4,8.4,64.1,12.5,96.2,8.7c34.7-4.1,68.4-17.1,103.3-16.2      c14.3,0.3,28.5,3,42.1,7.4c13.9,4.4,27.6,10.7,37.9,21.1c7.8,7.9,13.2,17.8,17.3,28.2c6.1,15.4,9.4,31.8,10.8,48.2      c1.2,14.6,1,29.4,3.7,43.8c4.6,23.6,17.1,45.2,32.4,63.7c15.5,18.6,33.9,34.2,52.4,49.7s36.9,30.8,56.7,44.4      c9.3,6.4,18.9,12.4,27.7,19.3c8.9,7,17,15.1,22.5,25c4.8,8.6,7.4,18.3,7.4,28.3c0,5.5-0.7,11.1-2.5,16.6      C2490.1,2350,2481.2,2364.8,2470.3,2377.8z"/>
			</defs>
			<clipPath id="SVGID_00000149380092430481809950000011243102243371942055_">
				<use xlink:href="#SVGID_00000177455550251209701050000013359480211034766473_" style="overflow:visible;"/>
			</clipPath>
			
				<radialGradient id="SVGID_00000001646845834635927750000008927135609134953397_" cx="254.8419" cy="2526.8635" r="10.6667" gradientTransform="matrix(3.698 -0.1563 -0.1176 -2.7838 1358.4581 9099.5166)" gradientUnits="userSpaceOnUse">
				<stop offset="0" style="stop-color:#110800"/>
				<stop offset="0.59" style="stop-color:#A65A00;stop-opacity:0.8"/>
				<stop offset="1" style="stop-color:#FF921E;stop-opacity:0"/>
			</radialGradient>
			
				<path style="opacity:0.35;clip-path:url(#SVGID_00000149380092430481809950000011243102243371942055_);fill:url(#SVGID_00000001646845834635927750000008927135609134953397_);enable-background:new    ;" d="     M2171.9,1972.2c-5.1-7.4-14.5-12.8-25.1-16c-10.5-3.2-22-4.2-33.4-4.2c-22.7,0.2-45.3,4.5-68.1,3c-19.1-1.2-37.2-6.4-55.9-9.6     c-19.3-3.4-39.8-4.8-58.9-1c-20.5,3.9-38.5,13.9-49.8,26.9c-10,11.4-14.7,25-16.2,38.4c-1.5,13.4,0.1,27,2,40.4     c1.3,9.7,2.9,19.5,6.1,29c3.3,9.5,8.3,18.8,16.2,26.7c11.4,11.4,28.4,19.5,46.6,24.4c29.9,8,63.8,7.6,93.1-1.2     c52.1-16.3,96.1-45.7,122.9-81.7c9.7-13,17.2-26.8,22-41c1.9-5.8,3.4-11.5,3.4-17.3C2177,1983.3,2175.6,1977.3,2171.9,1972.2z"/>
		</g>
		<path id="linux_svg__z" class="st0" d="M2215.2,1906.3c-3.7-10.1-10.3-19.1-18.3-26.3c-8-7.3-17.5-12.8-27.4-17.1    c-19.8-8.4-41.5-11.6-62.8-15.6c-19.9-3.7-39.9-8.3-59.9-11.7c-20.9-3.5-42.5-5.9-63.1-1.2c-18,4.1-34.8,13.4-48.4,25.9    s-24.3,28.1-32,44.9c-13.5,29.8-17.8,63.1-15.3,95.7c1.9,24.2,8.1,49.2,24,67.4c12.9,14.8,31.1,24.1,49.9,29.7    c32.4,9.6,67.7,9.1,99.8-1.4c53.4-18.1,99.6-52.8,131.7-99.1c10.5-15.3,19.4-31.8,23.5-49.7    C2219.9,1934.2,2220,1919.5,2215.2,1906.3z"/>
		<g>
			<defs>
				<path id="SVGID_00000180332019538159095030000011482452607358427568_" d="M2215.2,1906.3c-3.7-10.1-10.3-19.1-18.3-26.3      c-8-7.3-17.5-12.8-27.4-17.1c-19.8-8.4-41.5-11.6-62.8-15.6c-19.9-3.7-39.9-8.3-59.9-11.7c-20.9-3.5-42.5-5.9-63.1-1.2      c-18,4.1-34.8,13.4-48.4,25.9s-24.3,28.1-32,44.9c-13.5,29.8-17.8,63.1-15.3,95.7c1.9,24.2,8.1,49.2,24,67.4      c12.9,14.8,31.1,24.1,49.9,29.7c32.4,9.6,67.7,9.1,99.8-1.4c53.4-18.1,99.6-52.8,131.7-99.1c10.5-15.3,19.4-31.8,23.5-49.7      C2219.9,1934.2,2220,1919.5,2215.2,1906.3z"/>
			</defs>
			<clipPath id="SVGID_00000115494602095171580640000012388977786931286187_">
				<use xlink:href="#SVGID_00000180332019538159095030000011482452607358427568_" style="overflow:visible;"/>
			</clipPath>
			<g style="clip-path:url(#SVGID_00000115494602095171580640000012388977786931286187_);">
				
					<radialGradient id="linux_svg__an_00000062149754213107773140000004860381533937700522_" cx="2044.048" cy="1235.4758" r="10.6667" gradientTransform="matrix(1.195 0.5196 0.24 -0.552 -576.3044 1503.7479)" gradientUnits="userSpaceOnUse">
					<stop offset="0" style="stop-color:#7C7C7C"/>
					<stop offset="1" style="stop-color:#7C7C7C;stop-opacity:0.33"/>
				</radialGradient>
				<path id="linux_svg__an" style="fill:url(#linux_svg__an_00000062149754213107773140000004860381533937700522_);" d="      M1994.8,1824.7c-5,0.3-9.9,0.9-14.9,1.8c-31.9,5.7-61.1,25.8-77.5,53.7c-11.6,19.7-16.9,43-15.3,65.8c0.7-16,4.9-31.7,12.7-45.7      c13.1-23.8,37-41.7,63.8-46.6c16.4-3,33.4-1.2,49.9,0.9c16,2,32,4.2,47.7,7.5c24.3,5.3,48.3,13.4,68.7,27.6      c4.7,3.3,9.2,7,12.9,11.5c3.7,4.4,6.6,9.5,7.8,15.1c1.6,8.3-0.7,17.1-4.9,24.4c-4.2,7.5-9.8,13.9-15.8,19.8      c-4.9,4.9-10,9.5-15.3,14.1c23.6-4.6,47.4-11,67-24.6c8.2-5.9,15.8-12.8,20.7-21.5c4.9-8.9,6.9-19.5,4.6-29.3      c-1.7-6.6-5.3-12.7-9.8-17.8s-9.9-9.3-15.5-13.2c-24.7-17.3-53.3-28.2-83.3-31.9c-19.2-3.5-38.5-6.5-57.8-8.9      C2025.4,1825.5,2010,1823.9,1994.8,1824.7z"/>
			</g>
		</g>
		<g>
			<defs>
				<path id="SVGID_00000183946593720971267290000001028038695600465079_" d="M2215.2,1906.3c-3.7-10.1-10.3-19.1-18.3-26.3      c-8-7.3-17.5-12.8-27.4-17.1c-19.8-8.4-41.5-11.6-62.8-15.6c-19.9-3.7-39.9-8.3-59.9-11.7c-20.9-3.5-42.5-5.9-63.1-1.2      c-18,4.1-34.8,13.4-48.4,25.9s-24.3,28.1-32,44.9c-13.5,29.8-17.8,63.1-15.3,95.7c1.9,24.2,8.1,49.2,24,67.4      c12.9,14.8,31.1,24.1,49.9,29.7c32.4,9.6,67.7,9.1,99.8-1.4c53.4-18.1,99.6-52.8,131.7-99.1c10.5-15.3,19.4-31.8,23.5-49.7      C2219.9,1934.2,2220,1919.5,2215.2,1906.3z"/>
			</defs>
			<clipPath id="SVGID_00000098906136171003052730000008874737784130474397_">
				<use xlink:href="#SVGID_00000183946593720971267290000001028038695600465079_" style="overflow:visible;"/>
			</clipPath>
			<g style="clip-path:url(#SVGID_00000098906136171003052730000008874737784130474397_);">
				
					<linearGradient id="linux_svg__an_00000161625282628404528730000016114321276072635047_" gradientUnits="userSpaceOnUse" x1="11581.3271" y1="-10623.8623" x2="11608.8467" y2="-10622.6895" gradientTransform="matrix(0.1875 0 0 -0.1875 -208.5833 -88.3333)">
					<stop offset="0" style="stop-color:#7C7C7C"/>
					<stop offset="1" style="stop-color:#7C7C7C;stop-opacity:0.33"/>
				</linearGradient>
				
					<path id="linux_svg__an_00000084531737109398746340000009606067163811166609_" style="fill:url(#linux_svg__an_00000161625282628404528730000016114321276072635047_);" d="      M1994.8,1824.7c-5,0.3-9.9,0.9-14.9,1.8c-31.9,5.7-61.1,25.8-77.5,53.7c-11.6,19.7-16.9,43-15.3,65.8c0.7-16,4.9-31.7,12.7-45.7      c13.1-23.8,37-41.7,63.8-46.6c16.4-3,33.4-1.2,49.9,0.9c16,2,32,4.2,47.7,7.5c24.3,5.3,48.3,13.4,68.7,27.6      c4.7,3.3,9.2,7,12.9,11.5c3.7,4.4,6.6,9.5,7.8,15.1c1.6,8.3-0.7,17.1-4.9,24.4c-4.2,7.5-9.8,13.9-15.8,19.8      c-4.9,4.9-10,9.5-15.3,14.1c23.6-4.6,47.4-11,67-24.6c8.2-5.9,15.8-12.8,20.7-21.5c4.9-8.9,6.9-19.5,4.6-29.3      c-1.7-6.6-5.3-12.7-9.8-17.8s-9.9-9.3-15.5-13.2c-24.7-17.3-53.3-28.2-83.3-31.9c-19.2-3.5-38.5-6.5-57.8-8.9      C2025.4,1825.5,2010,1823.9,1994.8,1824.7z"/>
			</g>
		</g>
	</g>
	<g transform="translate(3.75) scale(.1875)">
		
			<radialGradient id="linux_svg__A_00000110446778697718445170000009593793023492234153_" cx="384.1345" cy="3056.9031" r="10.6667" gradientTransform="matrix(1.9199 -2.010562e-02 -3.078750e-02 -2.9398 472.5097 9542.8984)" gradientUnits="userSpaceOnUse">
			<stop offset="0" style="stop-color:#FEFEFC"/>
			<stop offset="0.75" style="stop-color:#FEFEFC"/>
			<stop offset="1" style="stop-color:#D4D4D4"/>
		</radialGradient>
		<path id="linux_svg__A" style="fill:url(#linux_svg__A_00000110446778697718445170000009593793023492234153_);" d="M1094.1,408.3    c-16.3,0.9-32,8.4-43.9,19.6c-12.1,11.2-20.5,25.9-25.7,41.4c-10.3,31.1-8,64.9-5.7,97.6c2.1,29.5,4.4,59.7,15.5,87.3    c5.5,13.9,13.3,26.8,23.7,37.4c10.3,10.6,23.5,18.8,37.9,22.3c13.4,3.4,27.9,2.8,41.2-1.4c13.3-4.3,25.4-11.8,35.4-21.5    c14.5-14.2,24.2-32.7,29.9-52.3c5.7-19.5,7.3-40,6.9-60.4c-0.4-25.4-3.7-50.9-11.6-75c-8-24.1-20.7-46.9-38.4-65.2    c-8.5-8.9-18.3-16.5-29.3-22C1118.8,410.8,1106.4,407.7,1094.1,408.3z"/>
		<path id="linux_svg__B" class="st0" d="M1054.7,543.9c-3.4,20.7-3.5,42.3,3.5,62c4.7,13,12.5,24.9,21.9,35    c6.1,6.6,13.1,12.6,21.2,16.5c8.2,3.9,17.6,5.5,26.5,3.4c8.1-2,15.1-7.3,20.4-13.8c5.2-6.5,8.7-14.3,11.2-22.3    c7.4-23.6,6.2-49.3-1.2-72.9c-5.2-17.2-14.1-33.7-27.7-45.2c-6.6-5.5-14.3-9.9-22.6-11.8c-8.3-2-17.4-1.5-25.2,2    c-8.6,3.9-15.4,11.4-19.7,19.8C1058.5,525.1,1056.3,534.5,1054.7,543.9z"/>
		<g>
			<defs>
				<path id="SVGID_00000087400799373268565940000002516947468884218281_" d="M1054.7,543.9c-3.4,20.7-3.5,42.3,3.5,62      c4.7,13,12.5,24.9,21.9,35c6.1,6.6,13.1,12.6,21.2,16.5c8.2,3.9,17.6,5.5,26.5,3.4c8.1-2,15.1-7.3,20.4-13.8      c5.2-6.5,8.7-14.3,11.2-22.3c7.4-23.6,6.2-49.3-1.2-72.9c-5.2-17.2-14.1-33.7-27.7-45.2c-6.6-5.5-14.3-9.9-22.6-11.8      c-8.3-2-17.4-1.5-25.2,2c-8.6,3.9-15.4,11.4-19.7,19.8C1058.5,525.1,1056.3,534.5,1054.7,543.9z"/>
			</defs>
			<clipPath id="SVGID_00000121992919909498072650000007504119919329474710_">
				<use xlink:href="#SVGID_00000087400799373268565940000002516947468884218281_" style="overflow:visible;"/>
			</clipPath>
			
				<linearGradient id="SVGID_00000159436618241344654820000003830793203949706921_" gradientUnits="userSpaceOnUse" x1="6946.5737" y1="-3120.0142" x2="7000.2271" y2="-3215.9077" gradientTransform="matrix(0.1875 0 0 -0.1875 -208.5833 -88.3333)">
				<stop offset="0" style="stop-color:#757574;stop-opacity:0"/>
				<stop offset="0.25" style="stop-color:#757574"/>
				<stop offset="0.5" style="stop-color:#757574"/>
				<stop offset="1" style="stop-color:#757574;stop-opacity:0"/>
			</linearGradient>
			
				<path style="clip-path:url(#SVGID_00000121992919909498072650000007504119919329474710_);fill:url(#SVGID_00000159436618241344654820000003830793203949706921_);" d="     M1098.3,529c2.2,5.9,9.7,8,13.9,12.7c3.9,4.5,8.1,9.3,10.3,14.9c4.2,10.8-4.2,26.8,4.6,34.5c2.7,2.3,8.2,2.5,10.9,0     c10.6-9.6,8.2-28.9,4.1-42.6c-3.8-12.3-13.1-24-24.6-29.9c-5.3-2.8-13.3-5-17.9-1.2C1096.6,520,1096.9,525.3,1098.3,529z"/>
		</g>
		<g>
			<defs>
				<path id="SVGID_00000164491422515998854490000009096192841874925755_" d="M1094.1,408.3c-16.3,0.9-32,8.4-43.9,19.6      c-12.1,11.2-20.5,25.9-25.7,41.4c-10.3,31.1-8,64.9-5.7,97.6c2.1,29.5,4.4,59.7,15.5,87.3c5.5,13.9,13.3,26.8,23.7,37.4      c10.3,10.6,23.5,18.8,37.9,22.3c13.4,3.4,27.9,2.8,41.2-1.4c13.3-4.3,25.4-11.8,35.4-21.5c14.5-14.2,24.2-32.7,29.9-52.3      c5.7-19.5,7.3-40,6.9-60.4c-0.4-25.4-3.7-50.9-11.6-75c-8-24.1-20.7-46.9-38.4-65.2c-8.5-8.9-18.3-16.5-29.3-22      C1118.8,410.8,1106.4,407.7,1094.1,408.3z"/>
			</defs>
			<clipPath id="SVGID_00000078727221999831041020000018015275872381364669_">
				<use xlink:href="#SVGID_00000164491422515998854490000009096192841874925755_" style="overflow:visible;"/>
			</clipPath>
			
				<radialGradient id="SVGID_00000114770672922669179470000012514723599907969171_" cx="631.046" cy="2229.4045" r="10.6667" gradientTransform="matrix(1.1563 -0.1904 -0.1758 -1.0675 760.9991 2966.5952)" gradientUnits="userSpaceOnUse">
				<stop offset="0" style="stop-color:#C8C8C8"/>
				<stop offset="1" style="stop-color:#797978"/>
			</radialGradient>
			
				<path style="clip-path:url(#SVGID_00000078727221999831041020000018015275872381364669_);fill:url(#SVGID_00000114770672922669179470000012514723599907969171_);" d="     M1058.8,474.2c24.7-14.7,54.7-18.1,83.4-15.5c28.6,2.8,56.2,11.1,83.9,18.7c20.4,5.5,41,10.7,60.1,19.6c19,9,36.7,22.2,47.3,40.5     c1.7,2.9,3.1,6,4.9,8.9c1.8,2.9,3.9,5.5,6.6,7.6c2.7,2,6.1,3.4,9.4,3.2c1.7-0.1,3.4-0.5,4.8-1.4c1.5-0.9,2.8-2.1,3.5-3.6     c0.9-1.7,1.2-3.7,1.1-5.7c-0.1-1.9-0.5-3.8-1.1-5.8c-6.9-25.3-23.4-46.7-35.7-69.9c-7.5-13.9-13.7-28.4-21.1-42.2     c-25.9-47.5-68.5-84.7-116.8-108.9c-48.3-24.2-102.3-35.8-156.3-38.9c-62.5-3.7-125.1,3.7-186.8,14.6     c-26.8,4.7-54,10.2-77.5,23.6c-11.8,6.6-22.7,15.1-31.1,25.8c-8.5,10.6-14.5,23.3-16.5,36.7c-1.8,13,0.1,26.3,4.7,38.6     c4.5,12.3,11.5,23.5,19.8,33.6c16.4,20.4,37.7,36.2,57.2,53.7c19.5,17.4,37.5,36.7,59.4,51.1c10.9,7.3,22.7,13.2,35.3,16.7     s26,4.5,38.8,1.8c13.2-2.7,25.6-9.2,36.4-17.5c10.8-8.2,20.1-18.1,28.9-28.4C1019,510.6,1035.6,488.1,1058.8,474.2z"/>
		</g>
		
			<linearGradient id="SVGID_00000013151129522501600000000014278910405965940887_" gradientUnits="userSpaceOnUse" x1="6964.0947" y1="-2256.7197" x2="7080.2544" y2="-2375.3333" gradientTransform="matrix(0.1875 0 0 -0.1875 -208.5833 -88.3333)">
			<stop offset="0" style="stop-color:#646464;stop-opacity:0"/>
			<stop offset="0.31" style="stop-color:#646464;stop-opacity:0.58"/>
			<stop offset="0.47" style="stop-color:#646464"/>
			<stop offset="0.73" style="stop-color:#646464;stop-opacity:0.26"/>
			<stop offset="1" style="stop-color:#646464;stop-opacity:0"/>
		</linearGradient>
		<path style="fill:url(#SVGID_00000013151129522501600000000014278910405965940887_);" d="M1161.5,390.1    c23,21.5,40.1,48.2,51.7,76.4c-5.1-31-13.1-56.1-33.4-76.4c-12.4-11.6-26.6-21.9-42.5-29c-14.1-6.3-29.5-10.2-38.5-10.3    c-8.9-0.2-11,0-12.8,0.1c-1.9,0.1-3.3,0.1,2.5,0.9c5.8,0.6,18.7,4.2,32.5,10.3C1135,368.2,1149.1,378.5,1161.5,390.1z"/>
	</g>
	<g transform="translate(3.75) scale(.1875)">
		
			<radialGradient id="linux_svg__C_00000134240140760347763660000011145635683881494165_" cx="327.1632" cy="3044.6345" r="10.6667" gradientTransform="matrix(2.5562 -8.033250e-02 -9.234750e-02 -2.9385 897.4973 9521.4629)" gradientUnits="userSpaceOnUse">
			<stop offset="0" style="stop-color:#FEFEFC"/>
			<stop offset="0.75" style="stop-color:#FEFEFC"/>
			<stop offset="1" style="stop-color:#D4D4D4"/>
		</radialGradient>
		<path id="linux_svg__C" style="fill:url(#linux_svg__C_00000134240140760347763660000011145635683881494165_);" d="M1383.8,408.3    c-25.5,17.6-46.9,42-57.4,71.3c-13.2,36.8-8.2,78,4.6,114.9c13,37.9,34.9,73.9,67.8,96.6c16.4,11.4,35.5,19.2,55.4,21.5    c19.9,2.3,40.5-1,58.3-10.1c21.5-11.3,38.1-31,48.3-53.1c10.2-22.2,14.6-46.6,16-71c1.7-30.9-1.3-62.5-11.5-91.8    c-11.1-31.9-31.1-61.3-59.5-79.7c-14.1-9.2-30.2-15.5-46.9-17.8c-16.8-2.4-33.9-0.5-49.8,5.5    C1400.2,398.1,1391.8,402.9,1383.8,408.3z"/>
		<path id="linux_svg__D" class="st0" d="M1442.8,485.5c-9.6,0.6-19,3.9-27.2,9.1c-8.1,5.1-15,12.1-20.5,20.1    c-11,15.9-15.8,35.3-16.5,54.6c-0.5,14.4,1.1,29,5.9,42.7c4.8,13.7,12.8,26.3,24,35.5c11.4,9.5,25.8,15.1,40.6,15.9    c14.8,0.6,29.8-3.6,41.9-12.1c9.7-6.7,17.5-16,23-26.5c5.5-10.3,9-21.9,10.5-33.6c2.7-20.6-0.3-42.1-9.9-60.7    c-9.5-18.6-25.7-33.8-45.2-41C1460.9,486.5,1451.8,484.9,1442.8,485.5z"/>
		<g>
			<defs>
				<path id="SVGID_00000008852147755578578200000011346226100416263810_" d="M1442.8,485.5c-9.6,0.6-19,3.9-27.2,9.1      c-8.1,5.1-15,12.1-20.5,20.1c-11,15.9-15.8,35.3-16.5,54.6c-0.5,14.4,1.1,29,5.9,42.7c4.8,13.7,12.8,26.3,24,35.5      c11.4,9.5,25.8,15.1,40.6,15.9c14.8,0.6,29.8-3.6,41.9-12.1c9.7-6.7,17.5-16,23-26.5c5.5-10.3,9-21.9,10.5-33.6      c2.7-20.6-0.3-42.1-9.9-60.7c-9.5-18.6-25.7-33.8-45.2-41C1460.9,486.5,1451.8,484.9,1442.8,485.5z"/>
			</defs>
			<clipPath id="SVGID_00000049942466439689956120000011636011399153017532_">
				<use xlink:href="#SVGID_00000008852147755578578200000011346226100416263810_" style="overflow:visible;"/>
			</clipPath>
			
				<linearGradient id="SVGID_00000143589684943037893960000012342744360808402842_" gradientUnits="userSpaceOnUse" x1="8849.6318" y1="-3158.6189" x2="8911.3916" y2="-3231.7922" gradientTransform="matrix(0.1875 0 0 -0.1875 -208.5833 -88.3333)">
				<stop offset="0" style="stop-color:#949494;stop-opacity:0.39"/>
				<stop offset="0.5" style="stop-color:#949494"/>
				<stop offset="1" style="stop-color:#949494;stop-opacity:0.39"/>
			</linearGradient>
			
				<path style="clip-path:url(#SVGID_00000049942466439689956120000011636011399153017532_);fill:url(#SVGID_00000143589684943037893960000012342744360808402842_);" d="     M1502.2,569.2c10.7-10.7-7.6-38.9-21.9-50.6c-10.3-8.3-40.3-17.2-39-8c1.3,9.1,14.8,20.8,23.8,29.8     C1476.3,551.4,1497.1,574.3,1502.2,569.2z"/>
		</g>
		<g>
			<defs>
				<path id="SVGID_00000115474949330015959730000002288756818641526424_" d="M1383.8,408.3c-25.5,17.6-46.9,42-57.4,71.3      c-13.2,36.8-8.2,78,4.6,114.9c13,37.9,34.9,73.9,67.8,96.6c16.4,11.4,35.5,19.2,55.4,21.5c19.9,2.3,40.5-1,58.3-10.1      c21.5-11.3,38.1-31,48.3-53.1c10.2-22.2,14.6-46.6,16-71c1.7-30.9-1.3-62.5-11.5-91.8c-11.1-31.9-31.1-61.3-59.5-79.7      c-14.1-9.2-30.2-15.5-46.9-17.8c-16.8-2.4-33.9-0.5-49.8,5.5C1400.2,398.1,1391.8,402.9,1383.8,408.3z"/>
			</defs>
			<clipPath id="SVGID_00000149357221775217009790000000190283823680945597_">
				<use xlink:href="#SVGID_00000115474949330015959730000002288756818641526424_" style="overflow:visible;"/>
			</clipPath>
			
				<linearGradient id="SVGID_00000028285641085450778300000014118988918248157088_" gradientUnits="userSpaceOnUse" x1="8626.3389" y1="-2429.6243" x2="8822.8184" y2="-2544.6111" gradientTransform="matrix(0.1875 0 0 -0.1875 -208.5833 -88.3333)">
				<stop offset="0" style="stop-color:#747474"/>
				<stop offset="0.13" style="stop-color:#8C8C8C"/>
				<stop offset="0.25" style="stop-color:#A4A4A4"/>
				<stop offset="0.5" style="stop-color:#D4D4D4"/>
				<stop offset="0.62" style="stop-color:#D4D4D4"/>
				<stop offset="1" style="stop-color:#7C7C7C"/>
			</linearGradient>
			
				<path style="clip-path:url(#SVGID_00000149357221775217009790000000190283823680945597_);fill:url(#SVGID_00000028285641085450778300000014118988918248157088_);" d="     M1287.3,501.4c22-18.2,47.5-32.1,74.7-40.5c56-17.3,119.5-10.5,169,21c17.1,10.8,32.3,24.2,48.2,36.8     c15.8,12.5,32.6,24.2,51.7,30.9c10.3,3.6,21.3,5.8,32.2,4.6c9.8-1,19.3-4.7,27.4-10.2c8.1-5.7,14.9-13.1,20.1-21.5     c10.2-16.9,13.5-37.3,11.7-57c-3.5-39.4-25.7-74-44.3-108.9c-5.9-10.9-11.4-22-18.5-32.1c-21.4-31.3-55.8-51.8-91.7-63.9     c-35.9-12.1-73.9-16.4-111.6-21.1c-16.9-2.1-33.8-4.4-50.6-2.3c-19.3,2.3-37.4,10.1-56.3,14.9c-9,2.3-18,3.9-26.9,6.5     c-8.9,2.6-17.6,6.1-24.9,11.8c-10.5,8.4-17.1,21.1-19.9,34.2c-2.9,13.2-2.2,26.9-0.1,40.2c4.2,26.7,14.2,52.6,13.2,79.6     c-0.6,18.5-6.5,36.7-5.8,55.1C1285.3,485,1286.3,496.1,1287.3,501.4z"/>
		</g>
		
			<linearGradient id="SVGID_00000121993203454907855460000000703205386586518177_" gradientUnits="userSpaceOnUse" x1="8956.2656" y1="-2230.707" x2="9087.0391" y2="-2354.2271" gradientTransform="matrix(0.1875 0 0 -0.1875 -208.5833 -88.3333)">
			<stop offset="0" style="stop-color:#646464;stop-opacity:0"/>
			<stop offset="0.31" style="stop-color:#646464;stop-opacity:0.58"/>
			<stop offset="0.47" style="stop-color:#646464"/>
			<stop offset="0.73" style="stop-color:#646464;stop-opacity:0.26"/>
			<stop offset="1" style="stop-color:#646464;stop-opacity:0"/>
		</linearGradient>
		<path style="fill:url(#SVGID_00000121993203454907855460000000703205386586518177_);" d="M1472.6,332.6    c-4.4,5.5-8.3,11.5-11.4,18.1c19.7,4.3,38.5,12.4,55.4,23.6c32.6,21.7,57.4,53.2,74.8,88.4c4.1-4.5,7.7-9.3,10.9-14.6    c-17.5-36.7-42.7-69.9-76.4-92.3C1509.6,345.2,1491.6,337,1472.6,332.6z"/>
	</g>
	<g>
		<defs>
			<path id="SVGID_00000073691860674622044680000005098444795947117461_" d="M253.9,0c-12,0-24,2.4-34.9,8.2     c-11.6,6.2-21,16.2-26.9,27.9c-5.8,11.8-8.1,24.3-8.5,38.2c-0.7,26.3,0.6,53.8,2.6,78.8c0.5,7.6,1.5,12,0.5,19.9     c-3.2,16.6-17.8,27.8-25.5,42.3c-8.5,16.1-12.1,34.3-18.6,51.3c-5.9,15.6-14.2,30.2-19.8,45.9c-7.8,21.9-10.2,46.1-5,68.8     c3.9,17.3,12.2,33.6,23.2,47.5c-1.6,2.9-3.2,5.8-4.8,8.7c-5.1,8.9-11.4,17.3-14.3,27.1c-1.5,4.9-2,10.1-1.1,15.2     c0.9,5,3.5,9.9,7.5,13.1c2.6,2.1,5.8,3.4,9.1,4.2c3.3,0.7,6.6,0.9,10,0.9c12.7-0.3,25.1-4.1,37.4-7.4c7.3-1.9,14.7-3.6,22.1-5.2     c26.3-5.4,55.6-3.2,80,0.3c8.3,1.3,16.5,2.9,24.6,4.9c12.7,3.1,25.4,7,38.5,7.4c3.4,0.1,6.9-0.1,10.3-0.8     c3.4-0.8,6.6-2.1,9.3-4.3c4-3.2,6.6-8,7.5-13.1c0.9-5,0.4-10.3-1.1-15.2c-3-9.8-9.3-18.2-14.5-27c-2.1-3.5-4-7.1-6.1-10.6     c15.8-17.7,28.5-38.3,35.9-60.8c8-24.6,9.5-51.1,6.1-76.8s-11.5-50.5-22.2-74.1c-13.4-29.5-24.7-40.2-32.9-66.1     c-8.8-28-1.5-61.2-8.1-86.6c-2.3-8.6-6.1-16.9-10.9-24.5c-5.6-8.9-12.8-16.8-21.3-22.9C288.3,5.2,271.2,0,253.9,0z"/>
		</defs>
		<clipPath id="SVGID_00000147914419943945072690000018058999586437968820_">
			<use xlink:href="#SVGID_00000073691860674622044680000005098444795947117461_" style="overflow:visible;"/>
		</clipPath>
		<path style="clip-path:url(#SVGID_00000147914419943945072690000018058999586437968820_);fill-opacity:0.259;" d="M202.2,178.7    c2.9,8.5,8.8,15.8,15.8,21.4c2.3,1.9,4.8,3.6,7.5,4.9c2.7,1.2,5.7,1.9,8.7,1.7c2.9-0.2,5.7-1.4,8.3-2.8s4.9-3.2,7.4-4.7    c4.2-2.7,8.8-4.9,13.2-7.3c5.3-2.9,10.5-6.2,14.9-10.3c2.1-1.9,4-3.9,6.2-5.5c2.3-1.6,5-2.8,7.7-2.6c2.1,0.1,4,1,6.1,1.5    c1,0.2,2.1,0.3,3.1,0.2c1-0.2,2-0.6,2.7-1.3c0.9-0.9,1.3-2.2,1.2-3.5c0-1.3-0.5-2.5-1.1-3.6c-1.2-2.3-3-4.2-3.8-6.6    c-0.7-2.2-0.6-4.5-0.5-6.7c0.1-2.3,0-4.6-1-6.7c-0.8-1.5-2.1-2.7-3.7-3.5c-1.5-0.8-3.2-1.2-5-1.4c-3.4-0.3-6.9,0.4-10.3,0.5    c-4.6,0.3-9.2-0.3-13.7,0c-5.7,0.4-11.3,2-17,2c-6.5,0-13-2.1-19.5-1.1c-2.8,0.4-5.4,1.4-8.1,2.3c-2.7,0.9-5.4,1.7-8.2,1.6    c-3.2-0.1-6.3-1.2-9.4-1.4c-1.6-0.1-3.2,0-4.7,0.6c-1.5,0.6-2.8,1.6-3.6,3c-0.4,0.8-0.6,1.7-0.7,2.6c0,0.9,0.1,1.8,0.3,2.7    c0.4,1.8,1.3,3.4,1.9,5.1C199.6,165.7,200.1,172.4,202.2,178.7z"/>
	</g>
	<g>
		<defs>
			<path id="SVGID_00000104697822672038288460000014173102571242196641_" d="M253.9,0c-12,0-24,2.4-34.9,8.2     c-11.6,6.2-21,16.2-26.9,27.9c-5.8,11.8-8.1,24.3-8.5,38.2c-0.7,26.3,0.6,53.8,2.6,78.8c0.5,7.6,1.5,12,0.5,19.9     c-3.2,16.6-17.8,27.8-25.5,42.3c-8.5,16.1-12.1,34.3-18.6,51.3c-5.9,15.6-14.2,30.2-19.8,45.9c-7.8,21.9-10.2,46.1-5,68.8     c3.9,17.3,12.2,33.6,23.2,47.5c-1.6,2.9-3.2,5.8-4.8,8.7c-5.1,8.9-11.4,17.3-14.3,27.1c-1.5,4.9-2,10.1-1.1,15.2     c0.9,5,3.5,9.9,7.5,13.1c2.6,2.1,5.8,3.4,9.1,4.2c3.3,0.7,6.6,0.9,10,0.9c12.7-0.3,25.1-4.1,37.4-7.4c7.3-1.9,14.7-3.6,22.1-5.2     c26.3-5.4,55.6-3.2,80,0.3c8.3,1.3,16.5,2.9,24.6,4.9c12.7,3.1,25.4,7,38.5,7.4c3.4,0.1,6.9-0.1,10.3-0.8     c3.4-0.8,6.6-2.1,9.3-4.3c4-3.2,6.6-8,7.5-13.1c0.9-5,0.4-10.3-1.1-15.2c-3-9.8-9.3-18.2-14.5-27c-2.1-3.5-4-7.1-6.1-10.6     c15.8-17.7,28.5-38.3,35.9-60.8c8-24.6,9.5-51.1,6.1-76.8s-11.5-50.5-22.2-74.1c-13.4-29.5-24.7-40.2-32.9-66.1     c-8.8-28-1.5-61.2-8.1-86.6c-2.3-8.6-6.1-16.9-10.9-24.5c-5.6-8.9-12.8-16.8-21.3-22.9C288.3,5.2,271.2,0,253.9,0z"/>
		</defs>
		<clipPath id="SVGID_00000062192165577098369620000005289836400191546501_">
			<use xlink:href="#SVGID_00000104697822672038288460000014173102571242196641_" style="overflow:visible;"/>
		</clipPath>
		
			<path style="opacity:0.3;clip-path:url(#SVGID_00000062192165577098369620000005289836400191546501_);enable-background:new    ;" d="    M194.1,154.4c5.7,3.5,10.8,7.9,15.1,12.8c4,4.6,7.4,9.8,12.6,13.2c3.7,2.4,8.1,3.7,12.6,4.2c5.3,0.5,10.6-0.3,15.7-1.7    c4.7-1.3,9.2-3.1,13.4-5.4c7.9-4.5,14.6-11.1,23.3-14.1c1.9-0.7,3.9-1.1,5.7-1.9c1.8-0.8,3.6-2,4.5-3.7c0.8-1.6,0.8-3.5,1.1-5.3    c0.3-1.9,1-3.8,1.3-5.7c0.4-1.9,0.4-3.9-0.5-5.7c-0.7-1.4-2.1-2.6-3.6-3.3c-1.5-0.7-3.3-1-5-1.1c-3.4-0.2-6.9,0.7-10.3,0.9    c-4.6,0.4-9.2-0.2-13.7,0c-5.7,0.2-11.3,1.3-17,1.6c-6.5,0.3-13-0.7-19.5-0.9c-2.8-0.1-5.7-0.1-8.4,0.4c-2.8,0.4-5.5,1.3-7.8,2.7    c-2.3,1.4-4.1,3.3-6.2,4.9c-1,0.8-2.2,1.6-3.4,2.1c-1.2,0.6-2.6,1-3.9,1c-0.7,0-1.4,0-2.1,0.1c-1.2,0.2-2.3,0.8-2.9,1.7    C194.1,152.2,193.8,153.3,194.1,154.4z"/>
	</g>
	
		<radialGradient id="SVGID_00000146501435220729412250000011519856015406198418_" cx="-18.0485" cy="470.7314" r="10.6667" gradientTransform="matrix(1.7353 -1.2608 -1.144 -1.5746 805.1061 838.6746)" gradientUnits="userSpaceOnUse">
		<stop offset="0" style="stop-color:#020204"/>
		<stop offset="0.73" style="stop-color:#020204"/>
		<stop offset="1" style="stop-color:#5C5C5C"/>
	</radialGradient>
	<path style="fill:url(#SVGID_00000146501435220729412250000011519856015406198418_);" d="M223.3,117.1c3.1-3.4,5.1-7.6,8.1-11.1   c1.5-1.8,3.2-3.4,5.1-4.5s4.3-1.8,6.6-1.6c2.5,0.2,4.9,1.5,6.8,3.2s3.2,3.9,4.3,6.2c1.1,2.2,1.9,4.6,3.4,6.5c1.6,2,3.9,3.4,5.9,5   c1,0.8,2,1.7,2.8,2.7c0.8,1,1.4,2.2,1.7,3.5c0.3,1.3,0.1,2.7-0.3,3.9c-0.5,1.2-1.2,2.4-2.2,3.3c-1.9,1.8-4.5,2.8-7.1,3.2   c-5.2,0.7-10.5-0.8-15.8-0.7c-5.3,0.2-10.6,2-15.9,1.9c-2.7-0.1-5.4-0.8-7.6-2.3c-1.1-0.8-2.1-1.8-2.8-2.9   c-0.7-1.2-1.1-2.5-1.2-3.8c0-1.3,0.3-2.6,0.8-3.7c0.5-1.2,1.2-2.2,2-3.2C219.6,120.6,221.6,119,223.3,117.1z"/>
	<g transform="translate(3.75) scale(.1875)">
		
			<radialGradient id="linux_svg__E_00000049183425507215522590000000938923269101609628_" cx="-112.6309" cy="2952.948" r="10.6667" gradientTransform="matrix(4.7065 -1.9399 -1.3626 -3.3058 5917.894 10296.6299)" gradientUnits="userSpaceOnUse">
			<stop offset="0" style="stop-color:#D2940A"/>
			<stop offset="0.75" style="stop-color:#D89C08"/>
			<stop offset="0.87" style="stop-color:#B67E07"/>
			<stop offset="1" style="stop-color:#946106"/>
		</radialGradient>
		<path id="linux_svg__E" style="fill:url(#linux_svg__E_00000049183425507215522590000000938923269101609628_);" d="M1016.2,800.5    c0.6,2.8,1.6,5.3,3,7.8c2.5,4.1,6.1,7.4,9.9,10.1c3.8,2.9,8,5.2,12.1,7.7c21.4,13.5,38.9,32.4,54.5,52.5    c20.8,26.9,39.3,56.6,67.1,76.2c19.6,13.9,43.1,21.7,67,24.1c28.1,2.8,56.4-1.7,83.5-9.7c25.1-7.4,49.3-17.7,71.5-31.5    c42.3-26,77.7-64.2,124.3-81.4c10.1-3.7,20.7-6.4,30.5-11c9.8-4.7,19.1-11.5,23.8-21.3c4.5-9.4,4.3-20.3,5.8-30.6    c1.6-11,5.1-21.7,7-32.6c1.9-11,2.1-22.7-2.6-32.9c-3.9-8.3-11.1-14.9-19.3-19.1c-8.2-4.3-17.5-6.2-26.8-6.6    c-18.3-0.9-36.6,3.8-55,5.5c-24.3,2.2-48.9-1-73.3-0.2c-30.4,1-60.4,7.8-90.8,9.3c-34.7,1.6-69.2-3.7-103.9-5.1    c-15-0.6-30.2-0.4-45,2.1c-14.8,2.5-29.3,7.6-41.7,16.1c-12.1,8.3-21.7,19.6-32.7,29.2c-5.5,4.8-11.5,9.2-18.1,12.4    c-6.5,3.2-13.8,5.2-21.1,5c-3.7-0.1-7.7-0.6-11.2,0.4c-2.2,0.7-4.3,2.1-6,3.7c-1.7,1.7-3.1,3.6-4.4,5.5    C1021.1,790.7,1018.4,795.5,1016.2,800.5z"/>
		<g>
			<defs>
				<path id="SVGID_00000158018401981753691200000000557187905758125233_" d="M1016.2,800.5c0.6,2.8,1.6,5.3,3,7.8      c2.5,4.1,6.1,7.4,9.9,10.1c3.8,2.9,8,5.2,12.1,7.7c21.4,13.5,38.9,32.4,54.5,52.5c20.8,26.9,39.3,56.6,67.1,76.2      c19.6,13.9,43.1,21.7,67,24.1c28.1,2.8,56.4-1.7,83.5-9.7c25.1-7.4,49.3-17.7,71.5-31.5c42.3-26,77.7-64.2,124.3-81.4      c10.1-3.7,20.7-6.4,30.5-11c9.8-4.7,19.1-11.5,23.8-21.3c4.5-9.4,4.3-20.3,5.8-30.6c1.6-11,5.1-21.7,7-32.6      c1.9-11,2.1-22.7-2.6-32.9c-3.9-8.3-11.1-14.9-19.3-19.1c-8.2-4.3-17.5-6.2-26.8-6.6c-18.3-0.9-36.6,3.8-55,5.5      c-24.3,2.2-48.9-1-73.3-0.2c-30.4,1-60.4,7.8-90.8,9.3c-34.7,1.6-69.2-3.7-103.9-5.1c-15-0.6-30.2-0.4-45,2.1      c-14.8,2.5-29.3,7.6-41.7,16.1c-12.1,8.3-21.7,19.6-32.7,29.2c-5.5,4.8-11.5,9.2-18.1,12.4c-6.5,3.2-13.8,5.2-21.1,5      c-3.7-0.1-7.7-0.6-11.2,0.4c-2.2,0.7-4.3,2.1-6,3.7c-1.7,1.7-3.1,3.6-4.4,5.5C1021.1,790.7,1018.4,795.5,1016.2,800.5z"/>
			</defs>
			<clipPath id="SVGID_00000096027645054147062360000017511351036417670039_">
				<use xlink:href="#SVGID_00000158018401981753691200000000557187905758125233_" style="overflow:visible;"/>
			</clipPath>
			<path style="clip-path:url(#SVGID_00000096027645054147062360000017511351036417670039_);fill:#D9B30D;" d="M1152.3,838     c-3.5,14.8-1.4,30.5,6,43.8c7.3,13.2,19.6,23.5,34,28.3c18.1,6.1,38.6,3.1,55.6-5.8c9.9-5.1,18.9-12.4,24.5-22     c2.9-4.7,4.9-10,5.7-15.6c0.6-5.4,0.2-11.2-1.7-16.4c-2.1-5.7-6-10.7-10.6-14.6c-4.7-3.9-10.2-6.9-16-8.7     c-11.5-3.8-29.5-7-41.7-7.3C1186.5,819.3,1155.8,823.4,1152.3,838z"/>
		</g>
	</g>
	<g transform="translate(3.75) scale(.1875)">
		<g>
			<defs>
				<path id="SVGID_00000021086421725282727880000008574105143501372088_" d="M1016.2,800.5c0.6,2.8,1.6,5.3,3,7.8      c2.5,4.1,6.1,7.4,9.9,10.1c3.8,2.9,8,5.2,12.1,7.7c21.4,13.5,38.9,32.4,54.5,52.5c20.8,26.9,39.3,56.6,67.1,76.2      c19.6,13.9,43.1,21.7,67,24.1c28.1,2.8,56.4-1.7,83.5-9.7c25.1-7.4,49.3-17.7,71.5-31.5c42.3-26,77.7-64.2,124.3-81.4      c10.1-3.7,20.7-6.4,30.5-11c9.8-4.7,19.1-11.5,23.8-21.3c4.5-9.4,4.3-20.3,5.8-30.6c1.6-11,5.1-21.7,7-32.6      c1.9-11,2.1-22.7-2.6-32.9c-3.9-8.3-11.1-14.9-19.3-19.1c-8.2-4.3-17.5-6.2-26.8-6.6c-18.3-0.9-36.6,3.8-55,5.5      c-24.3,2.2-48.9-1-73.3-0.2c-30.4,1-60.4,7.8-90.8,9.3c-34.7,1.6-69.2-3.7-103.9-5.1c-15-0.6-30.2-0.4-45,2.1      c-14.8,2.5-29.3,7.6-41.7,16.1c-12.1,8.3-21.7,19.6-32.7,29.2c-5.5,4.8-11.5,9.2-18.1,12.4c-6.5,3.2-13.8,5.2-21.1,5      c-3.7-0.1-7.7-0.6-11.2,0.4c-2.2,0.7-4.3,2.1-6,3.7c-1.7,1.7-3.1,3.6-4.4,5.5C1021.1,790.7,1018.4,795.5,1016.2,800.5z"/>
			</defs>
			<clipPath id="SVGID_00000023268587773480679830000017370918800117671578_">
				<use xlink:href="#SVGID_00000021086421725282727880000008574105143501372088_" style="overflow:visible;"/>
			</clipPath>
			<path style="clip-path:url(#SVGID_00000023268587773480679830000017370918800117671578_);fill:#604405;" d="M1092.6,723.8     c-12.4,7.3-24.2,15.3-35.8,23.5c-6.1,4.4-12.3,9-15.5,15.7c-2.2,4.7-2.8,10-2.9,15.3c0,5.3,0.3,10.6-0.4,15.8     c-0.4,3.5-1.4,7-1.5,10.6c-0.1,1.8,0,3.6,0.4,5.3c0.5,1.7,1.4,3.4,2.6,4.7c1.6,1.7,3.7,2.8,6,3.4c2.2,0.6,4.5,1,6.8,1.5     c10.8,2.6,20.2,9.2,28.4,16.6c8.2,7.4,15.7,15.8,24.3,22.7c23.3,19,54.1,26.9,84.2,27.3c30.1,0.5,59.8-5.8,89.2-12.4     c23-5.2,46.1-10.6,68.2-18.8c34.1-12.6,65.7-31.6,93-55.4c12.5-10.8,24.1-22.6,38.1-31.4c12.3-7.8,26-12.9,38.6-20.3     c1.2-0.6,2.2-1.4,3.2-2.1c1.1-0.9,1.9-1.9,2.6-3c1-2,1-4.5,0.3-6.6c-0.6-2.1-1.9-4.1-3.3-5.9c-1.6-1.9-3.3-3.6-5.2-5.3     c-13.1-11.2-30.8-15.3-48.1-16.6c-17.2-1.3-34.6-0.3-51.5-3.2c-16-2.7-31.1-8.6-46.6-13.5c-16.2-5.2-32.7-9.3-49.5-12.1     c-39.6-6.5-80.2-5.2-119.4,2.9C1161.4,690.3,1125.4,704.4,1092.6,723.8z"/>
		</g>
		
			<linearGradient id="linux_svg__F_00000160150386875770247420000005088437625727337089_" gradientUnits="userSpaceOnUse" x1="6585.8872" y1="-4395.769" x2="7105.1406" y2="-4391.7153" gradientTransform="matrix(0.1875 0 0 -0.1875 -208.5833 -88.3333)">
			<stop offset="0" style="stop-color:#AD780A"/>
			<stop offset="0.12" style="stop-color:#D89E08"/>
			<stop offset="0.25" style="stop-color:#EDB80B"/>
			<stop offset="0.39" style="stop-color:#EBC80D"/>
			<stop offset="0.53" style="stop-color:#F5D838"/>
			<stop offset="0.77" style="stop-color:#F6D811"/>
			<stop offset="1" style="stop-color:#F5CD31"/>
		</linearGradient>
		<path id="linux_svg__F" style="fill:url(#linux_svg__F_00000160150386875770247420000005088437625727337089_);" d="M1088.7,682.1    c-17.8,12-33.7,26.5-47.3,43.1c-7.7,9.5-14.7,19.8-18.6,31.4c-3.1,9.2-4.2,18.8-6.1,28.3c-0.7,3.5-1.6,7-1.5,10.7    c0,1.7,0.2,3.5,0.7,5.3c0.5,1.7,1.5,3.3,2.7,4.6c2.1,2.1,5,3.3,7.9,3.9c3,0.5,6,0.6,9,1c13.3,1.6,25.6,8,36.7,15.7    c11.1,7.6,21.3,16.5,32.7,23.7c25.1,15.9,55,22.9,84.8,24.1c29.7,1.2,59.3-3.3,88.5-9.2c23.1-4.6,46.2-10.1,68.2-18.8    c33.7-13.3,64.1-33.7,93-55.4c13.2-9.8,26.2-19.9,38.1-31.4c3.9-3.9,7.9-7.9,12.2-11.5c4.3-3.5,9.1-6.6,14.4-8.3    c8.1-2.6,16.9-1.8,25.3-0.4c6.3,1.1,12.6,2.5,19,2.2c3.2-0.2,6.4-0.7,9.4-1.9c3-1.2,5.8-3,7.8-5.5c2.7-3.2,4.1-7.5,4.1-11.6    c0-4.3-1.3-8.4-3.4-12.1c-4.3-7.3-11.6-12.2-19.3-15.6c-10.6-4.7-22-6.9-33.2-9.7c-34.5-8.3-67.9-20.6-99.6-36.4    c-15.8-7.8-31.1-16.4-46.6-24.7c-16-8.5-32.2-16.7-49.5-22.1c-38.8-11.7-81.1-7.9-119.4,5.4C1156,621.8,1118,647.8,1088.7,682.1z"/>
		<g>
			<defs>
				<path id="SVGID_00000148648977188633489270000016868853997993819282_" d="M1088.7,682.1c-17.8,12-33.7,26.5-47.3,43.1      c-7.7,9.5-14.7,19.8-18.6,31.4c-3.1,9.2-4.2,18.8-6.1,28.3c-0.7,3.5-1.6,7-1.5,10.7c0,1.7,0.2,3.5,0.7,5.3      c0.5,1.7,1.5,3.3,2.7,4.6c2.1,2.1,5,3.3,7.9,3.9c3,0.5,6,0.6,9,1c13.3,1.6,25.6,8,36.7,15.7c11.1,7.6,21.3,16.5,32.7,23.7      c25.1,15.9,55,22.9,84.8,24.1c29.7,1.2,59.3-3.3,88.5-9.2c23.1-4.6,46.2-10.1,68.2-18.8c33.7-13.3,64.1-33.7,93-55.4      c13.2-9.8,26.2-19.9,38.1-31.4c3.9-3.9,7.9-7.9,12.2-11.5c4.3-3.5,9.1-6.6,14.4-8.3c8.1-2.6,16.9-1.8,25.3-0.4      c6.3,1.1,12.6,2.5,19,2.2c3.2-0.2,6.4-0.7,9.4-1.9c3-1.2,5.8-3,7.8-5.5c2.7-3.2,4.1-7.5,4.1-11.6c0-4.3-1.3-8.4-3.4-12.1      c-4.3-7.3-11.6-12.2-19.3-15.6c-10.6-4.7-22-6.9-33.2-9.7c-34.5-8.3-67.9-20.6-99.6-36.4c-15.8-7.8-31.1-16.4-46.6-24.7      c-16-8.5-32.2-16.7-49.5-22.1c-38.8-11.7-81.1-7.9-119.4,5.4C1156,621.8,1118,647.8,1088.7,682.1z"/>
			</defs>
			<clipPath id="SVGID_00000096018169214044010240000009528072321257958533_">
				<use xlink:href="#SVGID_00000148648977188633489270000016868853997993819282_" style="overflow:visible;"/>
			</clipPath>
			<path style="clip-path:url(#SVGID_00000096018169214044010240000009528072321257958533_);fill:#F6DA4A;" d="M1360.8,690.7     c-2.1-2.6-5.1-4.5-8.3-5.4c-3.2-1-6.6-1-9.9-0.4c-6.6,1.2-12.6,4.7-18.1,8.5c-15.7,10.8-29.5,24.1-41.7,38.8     c-16,19.5-29.2,42-33.7,66.9c-0.7,4.2-1.2,8.5-0.7,12.7c0.5,4.3,2.1,8.4,5.2,11.4c2.6,2.7,6.2,4.3,9.8,4.8     c3.7,0.5,7.6,0,11.1-1.2c7-2.3,12.9-7.4,18.6-12.3c30.6-27.5,58.3-60.4,69.4-100.1c1.1-3.9,2-8,2-12.2     C1364.4,698.1,1363.4,694,1360.8,690.7z"/>
		</g>
		
			<radialGradient id="SVGID_00000134957501766383975420000016164926290479181230_" cx="5153.2651" cy="-1475.731" r="10.6667" gradientTransform="matrix(0.2475 0 0 -0.2662 -99.5933 245.8066)" gradientUnits="userSpaceOnUse">
			<stop offset="0" style="stop-color:#3A2903"/>
			<stop offset="0.55" style="stop-color:#735208"/>
			<stop offset="1" style="stop-color:#AC8C04"/>
		</radialGradient>
		<path style="opacity:0.8;fill:url(#SVGID_00000134957501766383975420000016164926290479181230_);enable-background:new    ;" d="    M1182.3,630c-8.2-2.7-21.7,11.7-17.3,19.1c1.2,2,4.9,4.6,7.5,3.2c3.7-2,6.8-9.5,10.9-12.4C1186.1,638,1185.5,630.9,1182.3,630z"/>
		
			<radialGradient id="SVGID_00000043455292412702264880000000350092811185173912_" cx="2531.6802" cy="-857.8546" r="10.6667" gradientTransform="matrix(0.5213 0 0 -0.3038 -10.0383 376.2267)" gradientUnits="userSpaceOnUse">
			<stop offset="0" style="stop-color:#3A2903"/>
			<stop offset="0.55" style="stop-color:#735208"/>
			<stop offset="1" style="stop-color:#AC8C04"/>
		</radialGradient>
		<path style="opacity:0.8;fill:url(#SVGID_00000043455292412702264880000000350092811185173912_);enable-background:new    ;" d="    M1287.3,633.8c2.1,6.8,13.1,5.7,19.5,9c5.5,2.9,10,9.2,16.3,9.4c6,0.1,15.4-2.1,16.1-8.1c1-7.8-10.5-12.8-17.8-15.7    c-9.5-3.6-21.7-5.5-30.5-0.6C1288.9,628.9,1286.7,631.6,1287.3,633.8z"/>
	</g>
	<g>
		<defs>
			<path id="SVGID_00000124844975253565707090000004302800620228612242_" d="M194.3,150.1c0.1,0.5,0.3,1,0.6,1.5     c0.5,0.8,1.1,1.4,1.9,1.9c0.7,0.5,1.5,1,2.3,1.4c4,2.5,7.3,6.1,10.2,9.8c3.9,5,7.4,10.6,12.6,14.3c3.7,2.6,8.1,4.1,12.6,4.5     c5.3,0.5,10.6-0.3,15.7-1.8c4.7-1.4,9.2-3.3,13.4-5.9c7.9-4.9,14.6-12,23.3-15.3c1.9-0.7,3.9-1.2,5.7-2.1c1.8-0.9,3.6-2.2,4.5-4     c0.8-1.8,0.8-3.8,1.1-5.7c0.3-2.1,1-4.1,1.3-6.1c0.4-2.1,0.4-4.3-0.5-6.2c-0.7-1.6-2.1-2.8-3.6-3.6c-1.5-0.8-3.3-1.2-5-1.2     c-3.4-0.2-6.9,0.7-10.3,1c-4.6,0.4-9.2-0.2-13.7,0c-5.7,0.2-11.3,1.5-17,1.7c-6.5,0.3-13-0.7-19.5-1c-2.8-0.1-5.7-0.1-8.4,0.4     c-2.8,0.5-5.5,1.4-7.8,3c-2.3,1.6-4.1,3.7-6.1,5.5c-1,0.9-2.2,1.7-3.4,2.3c-1.2,0.6-2.6,1-4,0.9c-0.7,0-1.4-0.1-2.1,0.1     c-0.4,0.1-0.8,0.4-1.1,0.7c-0.3,0.3-0.6,0.7-0.8,1C195.2,148.3,194.7,149.2,194.3,150.1z"/>
		</defs>
		<defs>
			<path id="SVGID_00000089566097321633378130000015785843214808088203_" d="M207.9,127.9c-3.3,2.3-6.3,5-8.9,8.1     c-1.4,1.8-2.8,3.7-3.5,5.9c-0.6,1.7-0.8,3.5-1.1,5.3c-0.1,0.7-0.3,1.3-0.3,2c0,0.3,0,0.7,0.1,1c0.1,0.3,0.3,0.6,0.5,0.9     c0.4,0.4,0.9,0.6,1.5,0.7c0.6,0.1,1.1,0.1,1.7,0.2c2.5,0.3,4.8,1.5,6.9,2.9c2.1,1.4,4,3.1,6.1,4.4c4.7,3,10.3,4.3,15.9,4.5     c5.6,0.2,11.1-0.6,16.6-1.7c4.3-0.9,8.7-1.9,12.8-3.5c6.3-2.5,12-6.3,17.4-10.4c2.5-1.8,4.9-3.7,7.1-5.9c0.7-0.7,1.5-1.5,2.3-2.2     c0.8-0.7,1.7-1.2,2.7-1.6c1.5-0.5,3.2-0.3,4.7-0.1c1.2,0.2,2.4,0.5,3.6,0.4c0.6,0,1.2-0.1,1.8-0.4s1.1-0.6,1.5-1     c0.5-0.6,0.8-1.4,0.8-2.2c0-0.8-0.2-1.6-0.6-2.3c-0.8-1.4-2.2-2.3-3.6-2.9c-2-0.9-4.1-1.3-6.2-1.8c-6.5-1.6-12.7-3.9-18.7-6.8     c-3-1.5-5.8-3.1-8.7-4.6c-3-1.6-6-3.1-9.3-4.1c-7.3-2.2-15.2-1.5-22.4,1C220.5,116.6,213.4,121.5,207.9,127.9z"/>
		</defs>
		<clipPath id="SVGID_00000145054850038444725620000005651463911402877324_">
			<use xlink:href="#SVGID_00000124844975253565707090000004302800620228612242_" style="overflow:visible;"/>
		</clipPath>
		
			<clipPath id="SVGID_00000120532612590628027050000007094649228166876571_" style="clip-path:url(#SVGID_00000145054850038444725620000005651463911402877324_);">
			<use xlink:href="#SVGID_00000089566097321633378130000015785843214808088203_" style="overflow:visible;"/>
		</clipPath>
		
			<linearGradient id="SVGID_00000160150968843339209640000008173437186324665757_" gradientUnits="userSpaceOnUse" x1="1758.2593" y1="-808.2266" x2="1758.2593" y2="-846.6266" gradientTransform="matrix(0.1875 0 0 -0.1875 -36.0625 -16.5625)">
			<stop offset="0" style="stop-color:#F5CE2D"/>
			<stop offset="1" style="stop-color:#D79B08"/>
		</linearGradient>
		
			<path style="clip-path:url(#SVGID_00000120532612590628027050000007094649228166876571_);fill:url(#SVGID_00000160150968843339209640000008173437186324665757_);" d="    M298.5,138.3c-0.4,3.4-2.9,6.1-5.6,6.1c-2.7,0-4.6-2.7-4.2-6.1c0.4-3.4,2.9-6.1,5.6-6.1c0,0,0,0,0,0    C297,132.2,298.9,134.9,298.5,138.3C298.5,138.3,298.5,138.3,298.5,138.3z"/>
	</g>
</g>
</svg>