<?xml version="1.0" encoding="UTF-8"?>
<svg width="85" height="85" version="1.1" viewBox="0 0 85 85" xmlns="http://www.w3.org/2000/svg">
 <style>
  @media (prefers-color-scheme: dark) { .logo-icon { fill: #e85e8f }}
 </style>
 <g transform="matrix(.489 0 0 .489 -10.9 -57.8)" class="logo-icon" fill="#b80040">
  <path d="m181 245-35.7 26.3c-4.68 3.46-10.5 5.37-16.5 5.37h-91.8c-2.31 0-4-1.92-4-4.23v-25.4c0-2.31 1.92-4.24 4-4.24l14.6 6e-3 12.3-9.99c5.32-4.26 12.5-6.94 19.6-6.94h42.1c5.16 0 9.23 4.6 8.37 9.89-0.695 4.17-4.6 7.04-8.83 7.04h-20.5c-2.31 0-4 1.92-4 4s1.92 4 4 4h31.9l31.7-23.3c4.71-3.49 11.3-2.47 14.8 2.24 3.7 5.18 2.69 11.8-2.02 15.3z"/>
  <path d="m106 133a44.5 43.7 0 0 1 44.5 43.7 44.5 43.7 0 0 1-44.5 43.7 44.5 43.7 0 0 1-44.5-43.7 44.5 43.7 0 0 1 44.5-43.7m0 8.74a11.1 10.9 0 0 0-11.1 10.9 11.1 10.9 0 0 0 11.1 10.9 11.1 10.9 0 0 0 11.1-10.9 11.1 10.9 0 0 0-11.1-10.9m-33.8 24.2c-1.91 5.73 1.29 11.9 7.12 13.8 5.88 1.84 12.2-1.27 14-7.04 1.91-5.73-1.29-11.9-7.12-13.8-5.83-1.84-12.2 1.27-14 7.04m67.7-0.132c-1.91-5.64-8.19-8.74-14-6.91-5.88 1.84-9.08 8-7.17 13.8 1.91 5.73 8.19 8.87 14 6.99 5.83-1.84 9.04-8.04 7.17-13.9m-54.8 39.2c4.94 3.58 12 2.49 15.5-2.4 3.61-4.9 2.49-11.7-2.49-15.3-4.94-3.54-11.9-2.45-15.5 2.4-3.61 4.9-2.49 11.7 2.49 15.3m41.8 0c4.99-3.54 6.1-10.4 2.49-15.3-3.61-4.9-10.6-5.99-15.5-2.4-4.99 3.54-6.1 10.4-2.49 15.3 3.52 4.9 10.6 5.94 15.5 2.4m-20.9-34.8a6.68 6.56 0 0 0-6.68 6.56 6.68 6.56 0 0 0 6.68 6.56 6.68 6.56 0 0 0 6.68-6.56 6.68 6.56 0 0 0-6.68-6.56z"/>
 </g>
</svg>
