<svg xmlns="http://www.w3.org/2000/svg" xmlns:xlink="http://www.w3.org/1999/xlink" viewBox="0 0 15727.56 15731.16"><defs><style>.a{stroke:#fff;stroke-miterlimit:10;fill:url(#a);}.b{fill:#fff;}</style><linearGradient id="a" x1="6023.03" y1="-5170" x2="-5131.57" y2="5984.61" gradientUnits="userSpaceOnUse"><stop offset="0" stop-color="#12d6df"/><stop offset="0.52" stop-color="#896ff0"/><stop offset="1" stop-color="#f70fff"/></linearGradient></defs><path class="a" d="M7715.67-3006.79c440.93,945.67,463.71,1029.94,317.7,1246.79-48.84,72.32-306.92,271-743.52,573.66-368.25,254.26-670.22,465.09-672,470.12,3.13,6.71,23.84,166.33,48.61,361.08,26.59,189.73,45.86,585.17,44.7,874.57l-6,526.81,688.71,388.67c375.64,212.6,724.52,429.68,773.21,481.19,191.48,216.09,180.43,316.14-140.29,1212.49-165,460.66-333.6,877.68-373.6,933.52-48.62,63.86-133.81,120.08-243.6,158.94-145.38,51.28-265.61,41.29-929.79-82.31-416.19-78.11-780.84-143.42-809.27-142.51-26.6-4.1-152.16,124.66-280.41,283.52-242.76,311.33-666.72,764.83-825.65,884.3-52.81,37-102.95,97.53-110.5,125.72-5.86,31.76,83.05,390.57,195.66,800.2,221.17,784.12,231.46,894.9,104.67,1127.29-59.9,110.48-102.26,134.41-898.89,505.84-779.63,363.51-845.76,390.17-987.56,377.91-83.36-10.67-196.2-48.77-255.32-87.25-62.48-45.26-295-349.44-554.07-728-246.11-359.72-467.21-656.89-487.11-664.13-18.28-3.81-221.26,12.27-442.84,41.37s-597,47.37-836,39.07l-426.39-11.67L-526,7380.74c-218.06,382.19-443.61,739-501.9,791-209.39,188.35-356.14,174.39-1148.25-108.38-916.54-319.64-1005.53-368.87-1114.56-602.71-91.66-196.59-91.66-196.59,112.1-1281.89l99.83-537.72-373.34-296.4c-206.49-159.56-498.83-423.5-649.85-588.24-149.5-161.46-278-295.34-284.59-300.59s-348.67,84.18-761.72,198.39c-851.4,236-885,243.36-1070.53,173.1-217.15-76.2-305.39-212.52-675.83-1042.44-320.16-713.11-338.9-762.25-318.1-912.21,9.08-86.78,55.94-207.7,104.24-263.24,43.43-57.45,337.25-276.81,646-491,308.59-214.1,598.67-415.4,641.33-447.63,70.18-53.41,73.31-108.58,24.16-514.77-29.93-250.22-49.28-645.45-39.44-881.19l10.13-429.66-690.31-392.11c-382.12-217.93-739.16-443.54-792.57-505.19-186.75-206-172.65-352.77,110-1144.82,319.5-916.46,368.88-1005.53,602.72-1114.56,196.58-91.66,196.58-91.66,1281.9,112.11l537.63,100,296.39-373.34c159.57-206.48,423.52-498.84,588.25-649.86,161.45-149.49,295.48-278,300.59-284.58s-84.19-348.66-198.39-761.72-212.57-792.12-216.15-844.16c-9.6-135.77,78.33-354.23,183-448.4,49.61-43.82,444.91-240.46,873.59-436.34,749-340.88,791.28-356.43,941.23-335.62,86.78,9.07,207.7,55.93,263.25,104.24,59,46.71,285,345.77,502.26,661.23,215.47,320.47,415.1,607,444.2,642.93,40.45,51.36,137.31,55.55,488.26,11.68,243.29-26.89,650.47-47.46,909.61-40.37l463.12,11.06,400.72-706.86c418.39-739.77,510.06-844.38,760.36-882.7,178-25.29,1815.09,564.95,1916.89,694.94,161.84,196.88,161.3,337.38,6.53,1164.7l-149,795.77,343.72,277.2c189.87,150.79,477.19,412.91,639.86,584.73s311,312.94,327.48,321.78c18.36,4,392.26-88,828.92-204.87l799-215.77A353.89,353.89,0,0,1,7028.8-4025a348.43,348.43,0,0,1,109.93,18.58c27.35,9.44,79.59,28.17,125.3,77.76a270.27,270.27,0,0,1,46.91,70.67Q7513.32-3432.41,7715.67-3006.79Z" transform="translate(7433.87 7433.4)"/><path d="M8382.57-762.22Z" transform="translate(7433.87 7433.4)"/><path class="b" d="M3340.07-2276.06c-8.08-114-23-226.77-47.23-338.3C3267-2733.23,3230-2848.44,3176.23-2957.9c-39.76-81-88.05-156.39-148.86-223.3-97.11-106.86-214.56-180.3-355.13-216.08-159-40.49-317.13-35.85-474.2,9.51-117.89,34-223.92,91.79-321.72,165.25-97.53,73.26-182.86,159.14-261,252.42-96.89,115.58-180.69,240.32-258.47,369.27-75.19,124.66-143.1,253.36-211.67,381.71-71,132.92-131.72,270.37-180.31,412.87-49.27,144.54-95.49,290.12-142.7,435.36-80.22,246.78-152.84,495.72-214,748Q526.75-287,466.37,53.19,419.65,314.66,385,577.9c-19.38,146.63-37.64,293.48-49.73,441-5.15,62.85-12,125.56-17,188.42-8.76,111.22-16.77,222.51-24.85,333.79-2.63,36.29-3.85,72.69-6.77,109-14.1,174.78-10.86,348.82,16.44,522.45,14.31,91,23,182.9,28.36,275,1.54,26.6,1.34,53.35.91,80-1.09,67.2-19.94,129.24-57.69,184.87-19,28.06-38.74,56-60.91,81.54-79.47,91.69-161.35,181.21-249.32,264.92-74,70.38-152.52,135.13-238,191.17-73.28,48-150.35,88.45-233.61,116.61-83.6,28.27-169.15,42.65-257.53,37.05-96.27-6.11-185.8-32.76-265.77-88.24-89.21-61.9-161.26-139.62-213.18-235-16.14-29.64-29-61.45-40-93.4-32.55-94.14-27.39-186.31,21.07-274.26,19.86-36.06,41.21-71.45,64.19-105.59s47.66-67.4,73.67-99.34c93.64-115,175.72-238,254.93-363.07,167.45-264.44,323.11-535.77,473.84-810,196.38-357.2,378.6-721.43,538.33-1096.65C300.28-132.71,435-511.59,534.3-902.55c45.39-178.67,84.49-358.71,111.24-541.22,11.61-79.16,21.79-158.53,32.46-237.82,11.33-84.23,17.13-169,19.94-253.81,4.66-141-5.89-281.15-23.63-421-17.45-137.54-46.64-272.37-90-404-36.59-111-83.91-217.08-147.44-315.51-46.31-71.75-100.49-136.82-165.55-192.45C188.8-3338.85,95.46-3387.7-10.54-3413.26c-108.15-26.08-216.76-25.2-325.11-6.75-180.18,30.67-342.64,103.19-487.63,214.8-88.9,68.44-167.48,147.3-238.78,233.66-68.1,82.47-128.57,170.34-184.3,261.52a3560.27,3560.27,0,0,0-176.84,326q-118.86,249.55-234.51,500.63c-26.4,57.19-49.81,115.82-72.89,174.47-88,223.72-156.67,453.67-216.53,686.24-92.48,359.29-176.61,720.54-243.54,1085.55-24,131.14-44.22,263-65,394.72q-18.67,118.56-33.54,237.7c-13.07,103.45-25.43,207-36.32,310.71-8.11,77.18-13.27,154.66-20,232-13.37,154.72-22.94,309.65-26.45,464.93q-1.65,72.77-3.25,145.53h-.8c0,89.77-.91,179.55.17,269.3,2.93,242.9,20.73,484.54,62.82,724.12,30.7,174.72,73.5,346.22,135.28,512.63,55.05,148.25,124,289.68,211.72,421.65,78.65,118.29,173.37,221.33,288,305.57,189.41,139.11,403.85,207.71,636.39,222.73,141.23,9.12,280.94-5,419.19-35.24,203.26-44.4,392.87-122.61,571.07-229.17,87.53-52.33,171.1-110.6,252.12-172.47,77.13-58.9,153.88-118.29,226-183.43,23.46-21.2,48.21-40.75,76.8-54.75,49.28-24.12,95.52-18,133.44,20.55,18.53,18.86,34.17,40.87,49.28,62.72C709.79,3746.58,731,3782,754.3,3816,874,3990.5,1032,4119.39,1224.48,4205.72c250.87,112.52,512.74,139.74,782.67,94.34,181.06-30.45,350.35-95.15,511.2-182.66,77-41.91,148.5-91.82,212.27-152.28,142.23-134.85,218.48-300.7,228.77-495.91,3.44-65.27-.14-130.92-.63-196.4-.26-34.32-8.44-67.47-17.74-100-10-35.16-25.38-68.28-50.17-96-37.19-41.52-82.76-57.08-137.72-44.16a355.5,355.5,0,0,0-113.24,48.16q-64,41.63-125.93,86.38c-80.73,58.48-165.3,110.37-254.76,154.41-50.14,24.68-101.69,45.7-155.19,61.78-134.29,40.36-264,28.75-387.33-38.21-139.81-75.89-238-189.2-296-337.26-16-40.87-25-83.71-31-126.95a295.94,295.94,0,0,1,8.31-122.52c12.57-44.79,31.63-86.42,54.62-126.49,30.25-52.72,65.66-102,102.86-149.9,116.11-149.64,223.19-305.61,323.72-466q131.39-209.6,258.41-421.93c243.86-408.6,464.71-829.15,652.53-1266.66,215.93-503,385.66-1020.15,480.68-1560.41q30.27-172,49.06-345.65c10.52-96.43,16.88-193.26,21.88-290.22C3348.7-2004.7,3349.7-2140.23,3340.07-2276.06Zm-4673.6,3849.54c-4.57,3.63-8.51,4.29-13,.1-1.58-1.5-3.84-3.27-4-5.09-1.22-12-2.81-24.06-2.7-36.08.94-97,2.23-194,3.49-297.39,7.39-114.61,14.7-235.62,23.16-356.55,5.75-82.22,12.56-164.37,19.92-246.47,5.4-60.36,11.59-120.67,19-180.82,11.78-96.23,23.92-192.44,37.59-288.41C-1234,50-1217.2-62.66-1198.9-175.07c44.78-275.11,101.47-548,155.28-821.42,38.38-195,80.41-389.29,142-578.56,55.53-170.49,114.2-339.93,177.2-507.83,58.35-155.47,140.16-298,237.66-431.89,17.17-23.58,35.57-46.1,58.52-64.41,21.2-16.9,44.26-29.14,72.18-31.13,38.68-2.75,71.43,9.63,99.29,36,26.89,25.5,45,56.79,59.76,90.36,23.54,53.42,40.11,109.17,54,165.65,36.23,147.15,45.93,296.81,38.38,447.68-7.39,147.77-22.15,295-41.51,441.61-27,204.42-68.08,406.19-120.47,605.67C-347.32-515.73-452.68-216.5-572.06,77.93-612.12,176.74-653.15,275.19-696,372.82Q-833.25,685.73-973,997.58c-43.46,97.43-90.82,193-144.12,285.48-42.42,73.64-88.62,144.74-142.41,210.67C-1282.44,1521.85-1304.8,1550.63-1333.53,1573.48ZM2560.21-1860.88c-12.38,162-32.51,323.26-56.91,483.8-41.56,273.43-102.5,542.68-180,808.28-107.49,368.31-245.5,725.11-402,1075-65.33,146-132.58,291.13-199.25,436.53-44.47,97-92.12,192.37-146.45,284.29-47,79.48-98.42,155.83-160.66,224.32-19.53,21.49-40.63,41.6-61.86,61.44-4.65,4.34-12.89,4.84-20.88,7.59-21.19-48.53-26.9-99.35-31.42-149.51a1639.49,1639.49,0,0,1,5.12-341.29c14.61-122.74,31.7-245.19,47.15-367.83,5.76-45.69,9.57-91.62,14.88-137.37,16.22-139.64,30.61-279.54,49.65-418.8q40.38-295.32,95.19-588.45c43-231.19,92.43-460.92,150.55-688.73,65.91-258.36,139.23-514.55,231-765.16,57.58-157.28,124.12-310.53,204.77-457.44,17.48-31.84,36.63-62.78,55.66-93.75a334.11,334.11,0,0,1,60.45-72.35c18.07-16.42,38.22-29.27,61.61-37.57,51.41-18.24,95.38-5,133.86,30.54,10.51,9.69,19.06,22,26.49,34.38,8.69,14.47,17.22,29.63,22.27,45.61,28.46,90,60.53,179,79.48,271.91C2562.76-2098.17,2569.3-1979.92,2560.21-1860.88Z" transform="translate(7433.87 7433.4)"/></svg>