<?xml version="1.0" encoding="utf-8"?>
<!-- Generator: Adobe Illustrator 27.7.0, SVG Export Plug-In . SVG Version: 6.00 Build 0)  -->
<svg version="1.1" id="Layer_1" xmlns="http://www.w3.org/2000/svg" xmlns:xlink="http://www.w3.org/1999/xlink" x="0px" y="0px"
	 viewBox="0 0 12.1 12.1" style="enable-background:new 0 0 12.1 12.1;" xml:space="preserve">
<style type="text/css">
	.st0{fill:#C4C4C4;filter:url(#Adobe_OpacityMaskFilter);stroke:#000000;stroke-width:4.021610e-02;}
	.st1{mask:url(#mask0_1882_6140_00000171690067354732656560000006891364428571623595_);}
	.st2{fill:url(#SVGID_1_);}
	.st3{fill:#C4C4C4;filter:url(#Adobe_OpacityMaskFilter_00000000910205557055277190000016006914033563205534_);}
	.st4{fill:#C4C4C4;}
	.st5{mask:url(#mask1_1882_6140_00000063632227879602048340000014744977176824455321_);}
	.st6{fill:url(#SVGID_00000081608952658039306070000010162467610898080671_);}
	
		.st7{fill:#C4C4C4;filter:url(#Adobe_OpacityMaskFilter_00000135657677686617235920000000777231817615148426_);stroke:#000000;stroke-width:4.021610e-02;}
	.st8{mask:url(#mask2_1882_6140_00000044862693737322906180000000957865627273765509_);}
	.st9{fill:url(#SVGID_00000070801778290717540180000002165153103458241687_);}
	.st10{fill:#C4C4C4;filter:url(#Adobe_OpacityMaskFilter_00000070830457974800259710000017537346849216391081_);}
	.st11{mask:url(#mask3_1882_6140_00000172428319931549695460000015554338363353327489_);}
	.st12{fill:url(#SVGID_00000179607655442127003490000015761943338709819271_);}
</style>
<g>
	<defs>
		<filter id="Adobe_OpacityMaskFilter" filterUnits="userSpaceOnUse" x="4" y="8.1" width="4" height="4">
			<feColorMatrix  type="matrix" values="1 0 0 0 0  0 1 0 0 0  0 0 1 0 0  0 0 0 1 0"/>
		</filter>
	</defs>
	
		<mask maskUnits="userSpaceOnUse" x="4" y="8.1" width="4" height="4" id="mask0_1882_6140_00000171690067354732656560000006891364428571623595_">
		<path class="st0" d="M6,12.1H2c-1.1,0-2-0.9-2-2l0,0c0-1.1,0.9-2,2-2h4c1.1,0,2,0.9,2,2l0,0C8,11.2,7.1,12.1,6,12.1z"/>
	</mask>
	<g class="st1">
		
			<linearGradient id="SVGID_1_" gradientUnits="userSpaceOnUse" x1="83.9824" y1="103.6145" x2="89.1514" y2="101.0251" gradientTransform="matrix(-4.371140e-08 1 -1 -4.371140e-08 108.1234 -76.9893)">
			<stop  offset="0" style="stop-color:#2AF588"/>
			<stop  offset="1" style="stop-color:#334675"/>
		</linearGradient>
		<rect x="4" y="8.1" class="st2" width="4" height="4"/>
	</g>
	<defs>
		
			<filter id="Adobe_OpacityMaskFilter_00000178203150526293924010000004834024190505536662_" filterUnits="userSpaceOnUse" x="0" y="0" width="6.2" height="12.1">
			<feColorMatrix  type="matrix" values="1 0 0 0 0  0 1 0 0 0  0 0 1 0 0  0 0 0 1 0"/>
		</filter>
	</defs>
	
		<mask maskUnits="userSpaceOnUse" x="0" y="0" width="6.2" height="12.1" id="mask1_1882_6140_00000063632227879602048340000014744977176824455321_">
		<path style="fill:#C4C4C4;filter:url(#Adobe_OpacityMaskFilter_00000178203150526293924010000004834024190505536662_);" d="M0,2
			c0-1.1,0.9-2,2-2s2,0.9,2,2v7.9v2.2H2c-1.1,0-2-0.9-2-2V2z"/>
		<path class="st4" d="M4,12.1h2.2C5.5,12,4,11.4,4,9.9V12.1z"/>
	</mask>
	<g class="st5">
		
			<linearGradient id="SVGID_00000013911351420440696020000002530003583728986289_" gradientUnits="userSpaceOnUse" x1="3.684928e-02" y1="13.2832" x2="6.1348" y2="2.8422" gradientTransform="matrix(1 0 0 -1 0 14.1)">
			<stop  offset="0" style="stop-color:#2AF588"/>
			<stop  offset="1" style="stop-color:#405A9B"/>
		</linearGradient>
		<rect x="0" y="0" style="fill:url(#SVGID_00000013911351420440696020000002530003583728986289_);" width="6.2" height="12.1"/>
	</g>
	<defs>
		
			<filter id="Adobe_OpacityMaskFilter_00000119800779585601222290000003275425877412668082_" filterUnits="userSpaceOnUse" x="4" y="0" width="4" height="4">
			<feColorMatrix  type="matrix" values="1 0 0 0 0  0 1 0 0 0  0 0 1 0 0  0 0 0 1 0"/>
		</filter>
	</defs>
	
		<mask maskUnits="userSpaceOnUse" x="4" y="0" width="4" height="4" id="mask2_1882_6140_00000044862693737322906180000000957865627273765509_">
		
			<path style="fill:#C4C4C4;filter:url(#Adobe_OpacityMaskFilter_00000119800779585601222290000003275425877412668082_);stroke:#000000;stroke-width:4.021610e-02;" d="
			M6.1,0h4c1.1,0,2,0.9,2,2l0,0c0,1.1-0.9,2-2,2h-4c-1.1,0-2-0.9-2-2l0,0C4.1,0.9,5,0,6.1,0z"/>
	</mask>
	<g class="st8">
		
			<linearGradient id="SVGID_00000179646755953248948220000008018239876823453350_" gradientUnits="userSpaceOnUse" x1="-684.0176" y1="701.5482" x2="-678.8486" y2="698.9587" gradientTransform="matrix(1.311340e-07 -1 1 1.311340e-07 -693.957 -678.9108)">
			<stop  offset="0" style="stop-color:#2AF588"/>
			<stop  offset="1" style="stop-color:#334675"/>
		</linearGradient>
		<rect x="4" y="0" style="fill:url(#SVGID_00000179646755953248948220000008018239876823453350_);" width="4" height="4"/>
	</g>
	<defs>
		
			<filter id="Adobe_OpacityMaskFilter_00000158004911603028079400000012268033510566809216_" filterUnits="userSpaceOnUse" x="5.9" y="0" width="6.2" height="12.1">
			<feColorMatrix  type="matrix" values="1 0 0 0 0  0 1 0 0 0  0 0 1 0 0  0 0 0 1 0"/>
		</filter>
	</defs>
	
		<mask maskUnits="userSpaceOnUse" x="5.9" y="0" width="6.2" height="12.1" id="mask3_1882_6140_00000172428319931549695460000015554338363353327489_">
		<path style="fill:#C4C4C4;filter:url(#Adobe_OpacityMaskFilter_00000158004911603028079400000012268033510566809216_);" d="
			M12.1,10.1c0,1.1-0.9,2-2,2c-1.1,0-2-0.9-2-2V2.2V0h2c1.1,0,2,0.9,2,2V10.1z"/>
		<path class="st4" d="M8.1,0H5.9c0.7,0.1,2.2,0.6,2.2,2.2V0z"/>
	</mask>
	<g class="st11">
		
			<linearGradient id="SVGID_00000068650047875198851060000010600702710415704494_" gradientUnits="userSpaceOnUse" x1="-585.8303" y1="769.2188" x2="-579.7324" y2="758.7778" gradientTransform="matrix(-1 0 0 1 -573.7672 -757.9356)">
			<stop  offset="0" style="stop-color:#2AF588"/>
			<stop  offset="1" style="stop-color:#405A9B"/>
		</linearGradient>
		<rect x="5.9" y="0" style="fill:url(#SVGID_00000068650047875198851060000010600702710415704494_);" width="6.2" height="12.1"/>
	</g>
</g>
</svg>
