<svg xmlns="http://www.w3.org/2000/svg" width="522.639" height="473.397" version="1.0"><path d="M730.7 556.521c.979 0 1.784-.316 3.901-1.294 6.83-2.939 12.359-4.084 18.542-4.084 17.727 0 28.957 10.75 28.957 28.161v52.214c0 1.313-1.136 2.45-2.44 2.45h-10.408c-1.304 0-2.44-1.137-2.44-2.45v-51.889c0-11.72-6.025-17.247-18.874-17.247-4.074 0-7.486.646-11.064 1.94-4.873 1.803-6.665 4.068-6.665 8.625v58.57c0 1.314-.98 2.45-2.44 2.45H717.51c-1.303 0-2.423-1.136-2.423-2.45v-109c0-1.294 1.12-2.433 2.423-2.433h10.258c1.46 0 2.44 1.14 2.44 2.433v33.84l.491.164zm-148.477 38.751c0 16.742 10.576 27.972 26.51 27.972 5.704 0 13.18-2.283 19.679-6.019l1.303-.647c.657-.496 1.635-.654 2.118-.654 1.294 0 2.282 1.137 2.282 2.588v6.36c0 2.597-.49 3.244-3.579 4.554-6.997 3.254-16.1 5.221-24.235 5.221-24.078 0-39.215-15.96-39.215-41.175 0-26.352 14.15-42.944 36.768-42.944 21.156 0 34.983 14.641 34.983 36.926v4.393c0 1.3-.98 2.44-2.45 2.44h-54.164v.985zm41.483-14c0-11.555-8.29-19.521-20.501-19.521-12.041 0-20.824 8.78-20.981 21.148h41.483v-1.628zm82.875 36.419c1.145 0 2.124 1.136 2.124 2.93v6.507c0 1.96-.49 2.764-2.124 3.578-5.53 2.762-14.966 4.555-23.415 4.555-25.538 0-40.685-15.445-40.685-41.805 0-26.195 16.276-42.314 42.793-42.314 6.988 0 13.978 1.313 20.492 4.085 2.292.797 2.939 1.625 2.939 3.086v7.644c0 1.628-.814 2.758-2.124 2.758-.815 0-1.137-.141-2.598-.972-6.832-3.743-12.201-5.204-19.03-5.204-16.917 0-26.52 10.905-26.52 30.253 0 19.695 9.925 31.082 26.841 31.082 6.018 0 12.202-1.626 18.053-4.88l.82-.315c.972-.663 1.787-.988 2.434-.988zm-190.723-54.48c-1.31 0-2.44-1.138-2.44-2.439v-6.5c0-1.31 1.13-2.447 2.44-2.447h8.957v-19.191c0-1.304.97-2.447 2.43-2.447h10.242c1.303 0 2.449 1.143 2.449 2.447v19.19h23.424c1.294 0 2.43 1.137 2.43 2.448v6.5c0 1.468-1.136 2.44-2.43 2.44h-23.424v47.183c0 8.94 3.586 12.849 11.712 12.849 2.929 0 5.85-.64 8.29-1.95l1.803-.98c.804-.324 1.46-.482 1.94-.482 1.304 0 2.109.963 2.109 2.607v5.851c0 1.619-.315 2.275-1.784 2.922-4.067 2.125-11.064 3.435-16.923 3.435-14.144 0-22.268-7.667-22.268-20.83v-50.605h-8.957zm-28.51 68.307v-76.623c0-1.303 1.137-2.44 2.433-2.44h10.25c1.469 0 2.44 1.137 2.44 2.44v76.623c0 1.313-.971 2.45-2.44 2.45h-10.25c-1.296 0-2.433-1.137-2.433-2.45zm7.644-111.434c6.01 0 9.105 3.254 9.105 9.115 0 6.009-3.096 9.105-9.279 9.105-6.009 0-9.105-3.254-9.105-9.272 0-5.536 3.421-8.948 9.28-8.948zm-41.24 109.477c-6.019 3.096-11.545 4.406-17.573 4.406-23.254 0-38.718-16.276-38.718-40.678 0-24.899 16.6-42.147 40.511-42.147 4.882 0 9.43.831 13.015 2.292.972.482 2.44 1.303 4.226 2.45.985.472 1.31.637 2.289.637l.64-.165v-1.13c0-1.959.82-2.77 2.44-2.77h8.622c1.461 0 2.442 1.136 2.442 2.439v80.855c0 20.81-13.504 31.882-38.553 31.882-9.27 0-20.01-1.793-27.174-4.715-3.576-1.46-4.383-2.275-4.383-4.557v-6.823c0-1.635.807-2.771 2.11-2.771.654 0 1.459.324 2.115.647l2.118 1.136c6.498 3.42 16.266 5.687 24.4 5.687 7.486 0 14.151-1.61 18.541-4.558 3.901-2.755 5.703-7.145 5.703-15.12v-7.812c-1.145 0-1.31.175-2.771.814zm-.158-63.437c-3.254-2.291-8.3-3.585-13.994-3.585-16.591 0-26.195 11.072-26.195 30.253 0 18.07 10.084 29.779 25.87 29.779 4.882 0 10.087-1.304 13.663-3.078 2.764-1.477 3.585-2.938 3.585-6.192v-41.325c0-3.26-.49-4.233-2.929-5.851zm-101.448-14.982c24.557 0 39.207 15.961 39.207 42.636 0 26.52-14.808 42.944-38.718 42.944-24.402 0-39.533-16.424-39.533-42.793 0-26.518 14.799-42.787 39.044-42.787zm-16.601 67.354c3.586 4.4 9.604 6.84 16.758 6.84 15.453 0 23.106-10.416 23.106-31.558 0-21.155-7.653-31.396-23.264-31.396-15.621 0-23.099 10.083-23.099 31.721 0 12.043 1.793 18.709 6.499 24.393zm-21.264 3.112c.979 0 1.941.996 1.941 1.96v7.983c0 .972-.962 1.786-1.94 1.786h-53.038c-.97 0-1.783-.814-1.783-1.786V526.618c0-.98.814-1.793 1.783-1.793h12.201c.972 0 1.786.812 1.786 1.793v94.99h39.05z" style="fill:#000;fill-rule:nonzero" transform="translate(-259.46 -194.235)"/><path d="M163.239 27.815c11.551-6.092 20.015-14.27 18.907-18.265-1.105-3.997-6.073-5.614-11.092-3.605-5.014 2.003-13.474 10.183-18.902 18.258-5.426 8.084-.46 9.7 11.087 3.612z" style="fill:#e9132e;fill-rule:nonzero" transform="translate(-2.862 -4.84) scale(2.20152)"/><path d="M177.961 72.713c6.443 2.896 15.107 2.985 21.289.422 6.617-2.515 9.196-5.975 4.917-7.826-4.8-1.908-19.27-2.658-29.644-1.365-7.936 1.565-4.713 5.681 3.438 8.768zm-15.243 40.652c7.235 8.886 18.33 17.324 23.993 17.912 4.336-.713 2.02-7.884-3.514-14.386-4.984-5.923-13.375-11.228-19.611-12.939-6.376-2.082-7.427 1.326-.868 9.413zm-32.406-26.997c-2.76-.102-6.211-2.553-6.67-1.508-.966 2.202 3.514 8.68 9.678 6.635 1.424-.472 3.682-1.9 4.332-2.472 5.705-5.025-2.979-2.085-7.34-2.655zm7.049-28.679c-5.397.837-15.47 8.966-12.06 15.3.233.432 1.538 2.232 4.35 3.045 6.56 1.897 14.163.917 17.257-5.173.55-1.084 1.346-2.636 1.048-4.402-.748-4.423-5.812-9.388-10.595-8.77zm-13.266-1.855c-7.793 1.112-11.65 7.121-8.265 16.061.218.577 1.004.424 1.192-.29.812-3.087 1.378-5.675 3.212-8.43 2.281-3.423 5.877-4.33 8.08-7.061.824-1.022-2.764-.487-4.22-.28zm-6.006-8.31c2.563-.798 3.964-1.214 6.967-1.71 6.127-1.011 21.084.944 25.531 3.211 6.992 3.564 13.725 8.77 12.301 17.55-1.393 8.595-7.672 13.324-13.112 18.367-5.322 4.936-10.817 9.415-19.253 11.598-3.657.945-11.783-.637-14.089-4.264-.868-1.364-1.686-2.982-2.425-4.314-1.544-2.79-1.308-3.068-4.267-4.745-3.375-1.916-6.908-4.176-8.913-7.783-1.29-2.322-3.28-9.644-1.937-12.862 2.663-6.388 12.54-12.983 19.197-15.047z" style="fill:#000;fill-rule:nonzero" transform="translate(-2.862 -4.84) scale(2.20152)"/><path d="M61.975 21.24c-12.96 12.796-25.745 34.09-21.9 58.968 2.206 14.876 10.017 25.805 16.706 33.953 8.768 10.167 22.725 19.502 35.011 17.346 5.667-1.12 10.044-5.757 12.106-9.56 7.925-14.636-8.252-34.098-10.08-40.68-3.612-9.387-3.141-14.349-2.38-23.548 1.21-14.563 11.25-30.74 13.769-34.857 2.733-4.471 5.323-8.128 7.348-11.518.493-.833 1.752-2.744 1.247-4.743-.648-2.51-4.053-3.8-6.93-4.173a28.968 28.968 0 0 0-3.294-.23h-.627c-3.173.032-5.93.57-8.406 1.104-9.082 1.954-16.189 5.414-21.135 8.653-3.6 2.36-7.563 5.455-11.435 9.286z" style="fill:#009b85;fill-rule:nonzero" transform="translate(-2.862 -4.84) scale(2.20152)"/></svg>