<?xml version="1.0" encoding="utf-8"?>
<!-- Generator: Adobe Illustrator 27.7.0, SVG Export Plug-In . SVG Version: 6.00 Build 0)  -->
<svg version="1.1" id="Layer_1" xmlns="http://www.w3.org/2000/svg" xmlns:xlink="http://www.w3.org/1999/xlink" x="0px" y="0px"
	 viewBox="0 0 512 512" style="enable-background:new 0 0 512 512;" xml:space="preserve">
<style type="text/css">
	.st0{fill-rule:evenodd;clip-rule:evenodd;fill:url(#SVGID_1_);}
</style>
<g>
	
		<linearGradient id="SVGID_1_" gradientUnits="userSpaceOnUse" x1="-75.5945" y1="126.1515" x2="449.9588" y2="340.9954" gradientTransform="matrix(1 0 0 -1 0 514)">
		<stop  offset="0" style="stop-color:#4B2EFB"/>
		<stop  offset="1" style="stop-color:#E65FFC"/>
	</linearGradient>
	<path class="st0" d="M42.7,79.9c0-14.7,0-22.1,2.9-28c2.5-5.2,6.6-9.6,11.6-12.7c5.8-3.5,13.5-4.6,28.8-6.6L305,2.8
		c19.9-2.7,29.8-4.1,37.5-1.2c6.8,2.5,12.4,7.2,16,13.2c4.1,6.8,4.1,16.4,4.1,35.4v411.7c0,19,0,28.6-4.1,35.4
		c-3.6,6-9.2,10.7-16,13.2c-7.7,2.9-17.7,1.5-37.5-1.2l0,0h0L86,479.4h0c-15.4-2.1-23-3.1-28.8-6.6c-5.1-3.1-9.1-7.5-11.6-12.7
		c-2.9-5.9-2.9-13.3-2.9-28V79.9z M277.3,218.7c0-4.5,0-6.7,0.8-8.5c0.7-1.6,1.7-2.9,3.1-3.7c1.5-1,3.5-1.2,7.5-1.6l17.8-1.8
		c4.7-0.5,7-0.7,8.9,0.2c1.6,0.8,2.9,2.1,3.7,3.8c0.9,1.9,0.9,4.6,0.9,9.9v78.1c0,5.3,0,7.9-0.9,9.9c-0.8,1.7-2.1,3.1-3.7,3.8
		c-1.8,0.9-4.2,0.6-8.9,0.2l-17.8-1.8c-4-0.4-6-0.6-7.5-1.6c-1.3-0.9-2.4-2.2-3.1-3.7c-0.8-1.8-0.8-4-0.8-8.5V218.7z M422.9,53.3
		h-28.2v416h28.2c16.3,0,24.4,0,30.6-3.2c5.5-2.8,9.9-7.2,12.7-12.7c3.2-6.2,3.2-14.4,3.2-30.7V99.9c0-16.3,0-24.5-3.2-30.7
		c-2.8-5.5-7.2-9.9-12.7-12.7C447.3,53.3,439.1,53.3,422.9,53.3z"/>
</g>
</svg>
