<svg xmlns="http://www.w3.org/2000/svg" width="720" height="1020" viewBox="0 0 720 1020" version="1.1"><path d="M 280.511 13.750 C 272.807 21.422, 265.922 32.347, 262.685 42.035 C 259.680 51.028, 255.080 80.471, 255.011 91.154 C 255.002 92.546, 254.171 92.363, 249.750 89.994 C 243.747 86.777, 236.298 84.369, 235.333 85.334 C 234.973 85.693, 236.311 89.478, 238.307 93.744 C 244.611 107.223, 245.198 109.600, 245.752 123.905 C 246.242 136.543, 244.607 162.128, 243.036 166.415 C 242.529 167.798, 240.970 164.502, 237.423 154.540 C 233.027 142.197, 231.025 138.641, 229.392 140.275 C 229.105 140.562, 231.206 154.680, 234.062 171.648 C 238.657 198.949, 239.189 203.593, 238.686 212 C 237.189 237.010, 224.437 261.336, 190.981 303 C 186.786 308.225, 179.588 317.841, 174.986 324.369 C 162.241 342.450, 154.469 347.605, 119.025 361.490 C 108.744 365.518, 96.321 370.828, 91.417 373.291 C 83.293 377.371, 79.557 379.695, 64.627 389.958 C 48.359 401.141, 22.351 432.540, 24.569 438.320 C 24.870 439.105, 23.481 444.417, 21.481 450.124 C 16.852 463.332, 15.897 476.673, 18.377 493.500 C 20.293 506.495, 27.930 539.155, 30.893 547.021 C 37.984 565.846, 50.255 574.899, 58.077 567.077 C 59.685 565.469, 61 563.194, 61 562.020 C 61 560.015, 60.866 559.980, 58.777 561.443 C 57.555 562.299, 55.059 563, 53.230 563 C 47.579 563, 45.744 559.880, 42.595 544.914 C 36.639 516.607, 36.063 511.589, 34.456 474 C 33.597 453.925, 32.444 436.049, 31.892 434.276 C 30.983 431.352, 31.281 430.471, 35.110 424.776 C 41.902 414.675, 60.952 396.451, 73.404 388.141 C 87.506 378.731, 97.736 373.651, 120.810 364.600 C 139.625 357.220, 149.018 352.908, 156.322 348.296 C 158.466 346.944, 159.862 346.436, 159.425 347.168 C 158.988 347.901, 156.157 352.325, 153.134 357 C 130.542 391.941, 109.282 431.850, 102.690 451.695 C 98.765 463.510, 98.217 467, 100.284 467 C 101.040 467, 102.756 463.045, 104.457 457.382 C 110.209 438.236, 124.797 409.147, 145.625 375.290 C 157.371 356.197, 169.929 337.295, 173.855 332.802 C 175.441 330.986, 178.904 326.125, 181.549 322 C 185.885 315.238, 201.848 294, 202.594 294 C 202.761 294, 202.225 295.611, 201.402 297.581 C 199.253 302.724, 192.336 331.995, 190.915 341.960 C 190.131 347.458, 189.938 355.336, 190.364 364.460 C 191.118 380.618, 191.614 383.221, 193.853 382.790 C 194.950 382.578, 196.164 379.683, 197.743 373.512 C 199.139 368.055, 202.600 359.385, 206.579 351.378 C 211.561 341.353, 213.351 336.580, 214.089 331.358 C 217.830 304.888, 229.294 270.305, 244.126 240.749 C 251.650 225.756, 264.885 204.115, 269.120 199.880 C 273.034 195.966, 278.063 194.250, 281.979 195.493 C 284.675 196.349, 290.360 201.293, 293.145 205.203 L 295.259 208.173 291.170 206.086 C 286.437 203.672, 280.078 203.385, 276.200 205.411 C 271.435 207.900, 268.290 212.178, 259.959 227.500 C 241.630 261.213, 231.203 289.410, 225.938 319.500 C 223.247 334.882, 222.281 362.597, 223.935 377 C 226.878 402.639, 235.387 428.943, 248.322 452.389 C 251.084 457.396, 253.942 463.479, 254.672 465.905 C 256.769 472.873, 256.274 487.880, 253.480 502 C 250.594 516.592, 250.564 517, 252.386 517 C 256.044 517, 260.566 477.281, 258.048 467.275 C 257.388 464.649, 253.145 455.075, 248.620 446 C 237.027 422.751, 229.162 397.706, 227.579 379 L 227.029 372.500 228.639 376.222 C 229.525 378.270, 231.127 380.223, 232.197 380.563 C 233.531 380.986, 233.932 381.704, 233.470 382.840 C 231.040 388.818, 230.828 390.088, 232.017 391.521 C 232.692 392.334, 233.854 393, 234.598 393 C 235.597 393, 235.721 393.602, 235.075 395.303 C 233.314 399.935, 237.321 402.504, 242.217 399.884 C 244.053 398.901, 244.210 398.992, 243.523 400.634 C 243.094 401.660, 242.539 403.625, 242.290 405 C 242.042 406.375, 241.100 408.958, 240.197 410.740 C 238.652 413.790, 238.667 414.170, 240.453 417.240 C 243.876 423.124, 245.076 423.260, 249.641 418.276 C 252.630 415.013, 253.296 414.703, 255.013 415.776 C 256.091 416.449, 258.630 417, 260.655 417 C 265.416 417, 276.979 415.021, 279.311 413.807 C 281.427 412.706, 281.231 409.044, 279 408.008 C 278.175 407.624, 276.494 406.791, 275.264 406.155 C 274.034 405.520, 272.234 404.990, 271.264 404.978 C 269.800 404.959, 269.908 404.642, 271.893 403.116 C 273.663 401.755, 274.157 400.602, 273.791 398.688 C 273.471 397.013, 273.797 395.908, 274.715 395.556 C 275.587 395.221, 276.012 393.949, 275.817 392.256 C 275.553 389.958, 274.960 389.448, 272.250 389.187 C 269.451 388.917, 269 388.493, 269 386.137 C 269 382.644, 267.336 381, 263.800 381 C 259.985 381, 260.289 379.882, 264.753 377.500 C 267.492 376.038, 268.586 374.751, 268.820 372.714 C 269.070 370.535, 269.988 369.588, 273.032 368.370 C 277.150 366.723, 278.895 363.784, 277.065 361.578 C 276.223 360.564, 276.569 359.857, 278.544 358.563 C 281.906 356.361, 281.585 352.622, 278 352.220 C 276.625 352.066, 274.423 351.704, 273.106 351.415 L 270.712 350.890 272.856 349.388 C 277.237 346.320, 274.865 342, 268.800 342 C 265.704 342, 265 341.640, 265 340.057 C 265 337.434, 261.283 335, 257.277 335 C 255.066 335, 254 334.524, 254 333.535 C 254 331.506, 250.815 330, 246.526 330 C 239.356 330, 231.919 335.762, 227.810 344.500 L 225.929 348.500 226.525 341.500 C 228.713 315.818, 233.277 295.844, 242.636 271 C 246.733 260.125, 262.811 227, 263.993 227 C 265.679 227, 277.107 236.165, 282.549 241.881 C 290.230 249.948, 294.304 255.779, 299.653 266.361 C 308.536 283.937, 313.750 306.450, 314.238 329.343 C 314.377 335.856, 314.900 341.438, 315.400 341.747 C 316.967 342.716, 315.202 311.258, 313.108 300.898 C 307.245 271.888, 293.773 247.585, 275.509 233.071 C 271.368 229.780, 267.262 226.687, 266.386 226.196 C 264.937 225.385, 264.951 224.994, 266.536 221.902 C 274.020 207.312, 281.416 203.707, 291.173 209.895 C 293.684 211.487, 296.874 214.299, 298.262 216.145 C 302.254 221.451, 310.135 237.983, 317.839 257.211 C 321.742 266.952, 326.588 278.202, 328.607 282.211 C 336.215 297.319, 338.500 305.270, 339.915 321.560 C 340.679 330.360, 341.218 332.603, 343.034 334.536 C 346.632 338.366, 357.688 343.604, 381.007 352.525 C 448.523 378.355, 481.165 395.802, 530.390 432.371 C 554.775 450.486, 559.503 458.108, 563.969 486.500 C 566.024 499.566, 572.678 520.439, 578.429 531.858 C 587.733 550.335, 604.014 569.512, 620.647 581.586 C 625.127 584.839, 633.874 590.425, 640.084 594 C 653.314 601.617, 667.143 612.018, 671.782 617.842 C 676.097 623.259, 679.629 630.501, 680.467 635.650 C 680.983 638.822, 680.664 640.738, 679.116 643.773 C 676.901 648.114, 664.886 661.770, 661.571 663.715 C 658.321 665.621, 653.967 665.209, 650.594 662.676 C 648.892 661.398, 646.690 660.054, 645.700 659.688 C 644.002 659.062, 644.016 658.899, 645.950 656.824 C 647.077 655.613, 648 653.961, 648 653.152 C 648 652.343, 645.606 649.165, 642.681 646.090 C 639.102 642.329, 635.303 636.512, 631.069 628.309 C 621.796 610.344, 615.894 603.756, 594.322 587.289 C 589.274 583.436, 582.703 577.406, 579.719 573.889 C 571.162 563.803, 559.668 554.770, 545.762 547.203 C 542.607 545.486, 538.557 542.721, 536.762 541.058 C 520.767 526.234, 514.202 520.955, 506.818 516.984 C 499.208 512.891, 497.904 512.512, 491.500 512.531 C 483.421 512.556, 482.038 513.169, 469.747 522.181 C 465.007 525.657, 458.512 530.300, 455.314 532.500 C 452.116 534.700, 440.686 545.275, 429.913 556 C 410.922 574.907, 397.425 590.144, 378.538 614 C 362.166 634.680, 359.796 638.027, 360.405 639.613 C 360.821 640.697, 373.122 628.964, 402.746 599.224 C 442.489 559.326, 459.708 543.342, 473.814 533.251 C 479.971 528.846, 480.274 528.747, 486.064 529.272 C 490.897 529.710, 493.719 530.816, 501.250 535.221 C 506.338 538.197, 512.975 541.768, 516 543.156 C 523.380 546.543, 527.239 549.984, 528.873 554.635 C 531.528 562.190, 536.523 569.621, 544.955 578.560 C 549.655 583.542, 554.970 590.102, 556.767 593.136 C 564.380 605.992, 570.001 624.502, 569.999 636.708 C 569.998 647.470, 563.523 657.699, 549.750 668.696 C 543.213 673.915, 541.804 676.404, 544.093 678.693 C 544.883 679.483, 542.565 681.026, 535.720 684.269 C 498.740 701.786, 491.161 723.698, 514 747.068 C 517.575 750.726, 521.607 754.453, 522.959 755.350 C 526.251 757.533, 525.218 758.375, 514.773 762.017 C 505.270 765.331, 496.011 766.116, 483.250 764.689 C 477.149 764.007, 476 764.114, 476 765.360 C 476 766.443, 477.730 767.026, 482.444 767.531 C 488.459 768.175, 488.909 768.397, 489.194 770.861 C 489.681 775.059, 494.696 776.833, 509.572 778.067 C 529.791 779.745, 557.468 777.416, 569.122 773.056 C 575.664 770.608, 581.493 765.129, 580.589 762.279 C 580.045 760.566, 581.109 760.078, 590.401 757.779 C 596.134 756.360, 604.463 753.410, 608.912 751.222 L 617 747.245 617 751.399 C 617 763.855, 612.917 783.599, 607.903 795.385 C 604.222 804.038, 597.092 814.834, 592.251 819.084 C 583.872 826.441, 563.621 833.356, 545.520 835.040 C 522.072 837.222, 502.363 833.216, 477.004 821.114 C 455.799 810.994, 446.778 807.611, 433.923 804.956 C 421.297 802.348, 411.069 802.718, 401.197 806.138 C 393.047 808.962, 386.075 815.512, 377.794 828.127 C 369.789 840.321, 368.760 843.486, 368.247 857.500 C 367.819 869.187, 367.901 869.780, 371.420 880.244 C 377.434 898.132, 379.273 911.089, 379.333 936 C 379.381 956.174, 378.569 965.464, 375.420 980.750 C 374.892 983.312, 375.080 984, 376.308 984 C 378.160 984, 378.397 983.293, 380.663 971 C 382.855 959.111, 383.212 917.737, 381.224 906 C 379.403 895.248, 376.107 882.408, 373.803 877.086 C 370.968 870.538, 370.236 855.486, 372.352 847.251 C 374.509 838.860, 376.705 834.800, 385.037 823.809 C 395.273 810.304, 401.976 806.943, 418.716 806.921 C 434.801 806.900, 450.626 811.783, 476.512 824.754 C 512.115 842.594, 551.291 843.798, 583.582 828.046 C 592.362 823.764, 594.334 822.312, 598.845 816.814 C 611.224 801.724, 618.373 781.047, 619.872 756 C 620.485 745.751, 620.560 745.492, 623 745.171 C 627.877 744.530, 640.277 737.775, 644.703 733.350 C 651.820 726.233, 654.360 719.565, 654.828 706.775 L 655.220 696.049 658.492 695.436 C 664.035 694.396, 667.492 691.526, 673.541 682.942 C 683.871 668.283, 685.988 659.903, 684.184 640.803 C 683.339 631.856, 682.654 629.130, 679.997 624.146 C 673.901 612.709, 661.565 602.300, 638 588.710 C 611.919 573.668, 593.108 553.945, 581.053 529 C 575.226 516.942, 569.358 498.169, 567.496 485.627 C 563.411 458.115, 555.903 446.001, 532.699 429.479 C 483.999 394.802, 456.420 378.899, 418.034 363.356 C 413.340 361.456, 408.600 359.481, 407.500 358.968 C 406.400 358.455, 395.482 354.224, 383.238 349.566 C 360.847 341.048, 348.375 335.261, 345.742 332.169 C 344.879 331.155, 343.864 325.926, 343.155 318.838 C 341.805 305.329, 339.367 296.682, 333.769 285.543 C 331.569 281.167, 325.827 267.892, 321.008 256.043 C 316.189 244.195, 310.435 230.900, 308.222 226.500 C 306.009 222.100, 302.986 215.575, 301.504 212 C 300.022 208.425, 298.218 204.150, 297.494 202.500 C 293.837 194.158, 283.601 165.295, 279.109 150.661 C 273.872 133.599, 274.440 125.151, 282.519 99.942 C 285.001 92.197, 286.773 85.441, 286.457 84.930 C 285.224 82.935, 283.002 84.184, 280.548 88.250 C 279.011 90.797, 278.073 91.698, 278.209 90.500 C 278.334 89.400, 278.059 81.427, 277.598 72.782 C 276.630 54.610, 277.398 47.593, 282.638 26.733 C 286.740 10.404, 286.338 7.948, 280.511 13.750 M 202.200 370.200 C 199.264 373.136, 202.197 392.641, 207.301 404.114 C 208.618 407.076, 212.005 413.515, 214.827 418.421 C 217.649 423.328, 220.477 428.953, 221.112 430.921 C 221.746 432.890, 224.006 438.078, 226.133 442.452 C 229.948 450.298, 230 450.560, 230 462.095 C 230 471.565, 230.285 473.895, 231.500 474.362 C 235.948 476.069, 237.549 470.689, 236.806 456.531 C 236.313 447.125, 234.141 441.617, 219.853 413.531 C 211.068 396.260, 209.182 390.759, 208.064 379.139 C 207.557 373.867, 206.750 370.456, 205.880 369.905 C 204.052 368.747, 203.618 368.782, 202.200 370.200 M 66 563.374 C 66 563.580, 66.698 565.718, 67.550 568.124 C 68.403 570.531, 71.815 581.950, 75.133 593.500 C 82.293 618.428, 86.596 630.335, 92.840 642.500 C 100.525 657.473, 106.195 662.019, 112.875 658.564 C 119.303 655.241, 124.051 645.325, 125.357 632.500 L 125.968 626.500 123.928 630.980 C 118.154 643.652, 109.860 648.076, 101.913 642.720 C 96.243 638.899, 91.643 628.807, 83.580 602.500 C 79.009 587.589, 66 558.635, 66 563.374 M 449.102 571.900 C 444.174 572.572, 441.862 574.924, 443.816 577.278 C 444.739 578.390, 448.883 578.850, 461.758 579.270 C 477.707 579.791, 489.679 581.425, 500.357 584.539 C 505.886 586.152, 509 585.206, 509 581.914 C 509 580.582, 507.897 579.441, 505.750 578.552 C 500.195 576.251, 482.071 573.027, 469 572.014 C 455.688 570.982, 455.826 570.983, 449.102 571.900 M 440.113 587.027 C 438.800 587.582, 434.750 590.669, 431.113 593.885 C 427.476 597.102, 422.113 601.197, 419.196 602.986 C 413.635 606.396, 412.637 609.129, 416.151 611.330 C 418.356 612.712, 426.983 607.532, 435.645 599.624 L 442.082 593.748 449.811 594.195 C 458.271 594.685, 463.652 596.709, 475.509 603.860 C 479.257 606.120, 483.797 608.247, 485.597 608.584 C 492.991 609.971, 501.413 604.045, 500.822 597.870 C 500.535 594.864, 500.176 594.500, 497.500 594.500 C 495.180 594.500, 494.430 594.994, 494.190 596.677 C 493.314 602.827, 487.446 602.642, 476.732 596.127 C 472.204 593.374, 465.800 590.230, 462.500 589.140 C 455.260 586.750, 443.410 585.631, 440.113 587.027 M 519.243 595.157 C 515.982 598.418, 519.424 602.675, 523.735 600.711 C 527.067 599.193, 526.546 594.622, 522.993 594.207 C 521.614 594.046, 519.927 594.473, 519.243 595.157 M 528.500 609.085 C 521.972 613.592, 511.540 618, 507.401 618 C 502.714 618, 500.501 619.852, 501.485 622.952 C 502.032 624.677, 502.972 625, 507.442 625 C 513.846 625, 519.191 623.218, 527.360 618.360 C 533.236 614.865, 536 612.472, 536 610.880 C 536 609.951, 533.087 606.998, 532.179 607.007 C 531.805 607.010, 530.150 607.945, 528.500 609.085 M 443.324 622.638 C 436.816 624.944, 430.606 631.126, 425.871 640.012 C 423.549 644.370, 419.663 650.206, 417.236 652.980 C 408.567 662.890, 392.857 672.115, 374.500 678.074 C 363.327 681.701, 362 682.445, 362 685.087 C 362 688.859, 365.050 688.945, 375.656 685.473 C 404.258 676.108, 421.580 663.360, 431.996 644.008 C 438.290 632.313, 444.241 628.021, 454.181 628.006 C 456.206 628.003, 463.181 629.983, 469.681 632.406 C 476.182 634.829, 489.825 638.685, 500 640.974 C 510.175 643.263, 524.242 646.727, 531.260 648.671 C 538.278 650.616, 544.690 651.949, 545.510 651.635 C 547.758 650.772, 547.298 647.241, 544.716 645.550 C 542 643.770, 522.862 638.614, 500 633.501 C 490.925 631.472, 478.182 627.829, 471.681 625.406 C 458.624 620.538, 451.274 619.821, 443.324 622.638 M 127.592 627 C 127.943 628.925, 129.554 634.325, 131.172 639 C 132.790 643.675, 134.716 649.300, 135.451 651.500 C 136.187 653.700, 137.299 659.438, 137.923 664.252 C 139.709 678.028, 143.573 691.185, 149.851 704.867 C 153.039 711.815, 156.217 719.075, 156.912 721 C 157.608 722.925, 158.763 725.625, 159.478 727 C 160.193 728.375, 162.658 734, 164.954 739.500 C 167.251 745, 170.251 750.513, 171.621 751.750 C 177.138 756.735, 185.771 753.009, 187.810 744.764 C 188.390 742.419, 188.882 734.650, 188.903 727.500 C 188.943 714.423, 189.969 708.136, 193.592 698.761 C 195.094 694.873, 195.189 693.797, 194.119 692.761 C 193.060 691.737, 191.659 692.758, 186.658 698.199 C 170.800 715.451, 166.092 715.285, 157.239 697.161 C 153.526 689.560, 152.486 686.327, 152.363 682 C 152.277 678.975, 151.035 672.512, 149.603 667.638 C 148.171 662.764, 147 658.315, 147 657.752 C 147 656.833, 131.726 630.451, 128.327 625.500 C 127.077 623.678, 127.011 623.811, 127.592 627 M 258.553 631.202 C 253.758 636.796, 249.449 644.385, 246.937 651.664 C 244.771 657.938, 241.363 683.731, 242.553 684.833 C 242.950 685.200, 243.455 684.997, 243.676 684.382 C 245.455 679.440, 263.873 651.540, 264.767 652.434 C 264.917 652.583, 263.023 659.409, 260.560 667.603 C 258.096 675.796, 254.682 688.125, 252.973 695 C 251.264 701.875, 247.625 715.482, 244.887 725.238 C 238.965 746.338, 237.895 753, 240.426 753 C 243.696 753, 246.125 750.824, 254.160 740.696 C 258.609 735.088, 262.416 730.314, 262.620 730.088 C 262.824 729.861, 261.880 732.943, 260.522 736.936 C 257.166 746.802, 256.319 752.220, 254.495 775.500 C 252.214 804.607, 251.449 837.268, 252.892 843.959 C 254.156 849.824, 256.298 853, 258.988 853 C 261.687 853, 267.760 846.187, 273.696 836.500 C 276.730 831.550, 278.899 828.400, 278.517 829.500 C 278.135 830.600, 276.657 836.450, 275.232 842.500 C 271.741 857.329, 271.508 877.315, 274.719 886.500 C 277.220 893.655, 299.811 942.405, 307.056 956.280 C 312.377 966.471, 316.309 970.598, 318.146 967.921 C 319.295 966.246, 318.641 953.320, 316.906 943.437 C 315.337 934.504, 314.425 936.964, 315.823 946.359 C 317.720 959.114, 318.041 964.464, 317.001 966 C 315.582 968.096, 313.334 965.038, 307.081 952.500 C 300.772 939.850, 278.259 890.819, 276.318 885.500 C 275.515 883.300, 274.603 877.407, 274.291 872.405 C 273.420 858.414, 276.214 842.397, 283.064 822.126 C 284.766 817.092, 286.008 812.525, 285.826 811.978 C 285.644 811.432, 282.796 816.048, 279.497 822.237 C 268.622 842.641, 261.341 852.112, 257.626 850.687 C 256.862 850.393, 255.670 847.792, 254.978 844.907 C 252.452 834.380, 255.785 762.484, 259.556 746.137 C 260.363 742.638, 262.413 736.338, 264.111 732.137 C 265.808 727.937, 267.450 723.876, 267.758 723.114 C 269.161 719.645, 265.547 723.319, 258.525 732.500 C 254.319 738, 248.767 744.715, 246.189 747.422 L 241.500 752.343 241.185 749.150 C 241.012 747.394, 242.681 739.554, 244.894 731.728 C 247.107 723.903, 250.758 710.300, 253.008 701.500 C 255.258 692.700, 259.094 678.750, 261.532 670.500 C 266.508 653.663, 267.021 650.906, 265.296 650.292 C 263.872 649.786, 253.521 663.455, 248.416 672.584 C 246.443 676.113, 244.663 679, 244.461 679 C 243.908 679, 244.984 669.457, 246.490 661 C 248.153 651.658, 252.304 642.384, 258.484 634.203 C 263.967 626.944, 264.016 624.830, 258.553 631.202 M 452.638 662.585 C 443.888 664.704, 435.143 669.256, 424.258 677.358 C 408.402 689.160, 402.066 697.687, 402.022 707.281 C 402.006 710.800, 402.432 712.229, 403.636 712.691 C 406.294 713.710, 408.462 711.563, 409.042 707.338 C 410.185 698.999, 417.792 690.317, 432.979 680.020 C 450.292 668.282, 461.964 666.114, 489.030 669.611 C 502.668 671.373, 522.867 671.956, 527.313 670.715 C 529.636 670.067, 530.072 669.458, 529.813 667.215 L 529.500 664.500 516.854 664.293 C 509.899 664.179, 498.575 663.391, 491.691 662.543 C 476.441 660.663, 460.508 660.681, 452.638 662.585 M 630.680 666.370 C 628.010 668.386, 626.437 668.527, 601.180 669.006 C 574.613 669.510, 574.472 669.524, 568 672.338 C 564.425 673.892, 559.700 675.842, 557.500 676.670 C 555.300 677.498, 552.150 678.796, 550.500 679.554 C 548.850 680.312, 543.334 682.715, 538.241 684.895 C 521.705 691.973, 509.233 701.868, 504.946 711.310 C 500.022 722.155, 504.078 735.147, 516.158 747.227 C 519.952 751.021, 524.519 754.737, 526.305 755.483 C 531.324 757.580, 553.156 759.341, 564.835 758.590 C 583.490 757.391, 598.196 753.638, 611.723 746.623 C 615.450 744.690, 621.425 742.149, 625 740.976 C 637.168 736.985, 644.125 731.267, 648.693 721.500 C 651.274 715.982, 651.495 714.575, 651.442 704 C 651.372 690.346, 649.981 686.394, 641.621 676.098 C 638.674 672.469, 635.642 668.316, 634.882 666.870 L 633.500 664.240 630.680 666.370" stroke="none" fill="#2a2622" fill-rule="evenodd"/><path d="M 273.226 196.659 C 268.974 198.755, 265.888 202.763, 256.701 218.117 C 234.844 254.646, 218.967 296.841, 214.089 331.358 C 213.351 336.580, 211.561 341.353, 206.579 351.378 C 202.600 359.385, 199.139 368.055, 197.743 373.512 C 196.164 379.683, 194.950 382.578, 193.853 382.790 C 191.614 383.221, 191.118 380.618, 190.364 364.460 C 189.938 355.336, 190.131 347.458, 190.915 341.960 C 192.336 331.995, 199.253 302.724, 201.402 297.581 C 202.225 295.611, 202.761 294, 202.594 294 C 201.848 294, 185.885 315.238, 181.549 322 C 178.904 326.125, 175.441 330.986, 173.855 332.802 C 169.929 337.295, 157.371 356.197, 145.625 375.290 C 124.797 409.147, 110.209 438.236, 104.457 457.382 C 102.756 463.045, 101.040 467, 100.284 467 C 98.217 467, 98.765 463.510, 102.690 451.695 C 109.282 431.850, 130.542 391.941, 153.134 357 C 156.157 352.325, 158.988 347.901, 159.425 347.168 C 159.862 346.436, 158.466 346.944, 156.322 348.296 C 149.018 352.908, 139.625 357.220, 120.810 364.600 C 97.736 373.651, 87.506 378.731, 73.404 388.141 C 60.952 396.451, 41.902 414.675, 35.110 424.776 C 31.281 430.471, 30.983 431.352, 31.892 434.276 C 32.444 436.049, 33.597 453.925, 34.456 474 C 36.063 511.589, 36.639 516.607, 42.595 544.914 C 45.713 559.733, 47.602 563, 53.048 563 C 56.846 563, 61.992 560.153, 62.022 558.034 C 62.117 551.526, 77.995 584.236, 83.547 602.375 C 91.630 628.782, 96.232 638.892, 101.913 642.720 C 110.235 648.328, 118.234 643.657, 124.440 629.565 C 126.853 624.085, 127.154 623.779, 128.377 625.565 C 131.781 630.541, 147 656.844, 147 657.752 C 147 658.315, 148.171 662.764, 149.603 667.638 C 151.035 672.512, 152.277 678.975, 152.363 682 C 152.486 686.327, 153.526 689.560, 157.239 697.161 C 166.092 715.285, 170.800 715.451, 186.658 698.199 C 190.598 693.912, 193.145 691.860, 193.729 692.500 C 194.232 693.050, 196.104 702.050, 197.890 712.500 C 204.191 749.372, 209.549 766.443, 220.507 784.554 C 227.077 795.414, 229.429 797.495, 242.596 804.098 C 251.656 808.642, 252.023 808.738, 252.422 806.659 C 252.649 805.472, 253.344 795.950, 253.964 785.500 C 255.599 757.991, 256.810 748.600, 260.005 738.660 C 261.568 733.798, 262.712 729.973, 262.548 730.160 C 262.383 730.347, 258.609 735.088, 254.160 740.696 C 246.125 750.824, 243.696 753, 240.426 753 C 237.895 753, 238.965 746.338, 244.887 725.238 C 247.625 715.482, 251.264 701.875, 252.973 695 C 254.682 688.125, 258.096 675.796, 260.560 667.603 C 263.023 659.409, 264.917 652.583, 264.767 652.434 C 263.873 651.540, 245.455 679.440, 243.676 684.382 C 243.455 684.997, 242.950 685.200, 242.553 684.833 C 241.363 683.731, 244.771 657.938, 246.937 651.664 C 249.449 644.385, 253.758 636.796, 258.553 631.202 C 264.016 624.830, 263.967 626.944, 258.484 634.203 C 252.304 642.384, 248.153 651.658, 246.490 661 C 244.984 669.457, 243.908 679, 244.461 679 C 244.663 679, 246.443 676.113, 248.416 672.584 C 253.521 663.455, 263.872 649.786, 265.296 650.292 C 267.021 650.906, 266.508 653.663, 261.532 670.500 C 259.094 678.750, 255.258 692.700, 253.008 701.500 C 250.758 710.300, 247.107 723.903, 244.894 731.728 C 242.681 739.554, 241.012 747.394, 241.185 749.150 L 241.500 752.343 246.189 747.422 C 248.767 744.715, 254.319 738, 258.525 732.500 C 265.547 723.319, 269.161 719.645, 267.758 723.114 C 267.450 723.876, 265.808 727.937, 264.111 732.137 C 262.413 736.338, 260.363 742.638, 259.556 746.137 C 255.785 762.484, 252.452 834.380, 254.978 844.907 C 255.670 847.792, 256.862 850.393, 257.626 850.687 C 261.341 852.112, 268.622 842.641, 279.497 822.237 C 282.796 816.048, 285.644 811.432, 285.826 811.978 C 286.008 812.525, 284.766 817.092, 283.064 822.126 C 276.214 842.397, 273.420 858.414, 274.291 872.405 C 274.603 877.407, 275.515 883.300, 276.318 885.500 C 278.259 890.819, 300.772 939.850, 307.081 952.500 C 313.334 965.038, 315.582 968.096, 317.001 966 C 318.041 964.464, 317.720 959.114, 315.823 946.359 C 314.425 936.964, 315.337 934.504, 316.906 943.437 C 318.612 953.154, 319.299 966.242, 318.188 967.853 C 317.428 968.955, 316.812 968.974, 314.877 967.958 L 312.500 966.709 314.454 968.908 C 315.654 970.260, 317.390 971.026, 318.954 970.896 C 323.204 970.542, 327.013 973.094, 329.482 977.949 C 333.598 986.044, 340.105 994, 342.609 994 C 345.335 994, 345.635 993.578, 349.619 984.148 C 351.334 980.088, 352.961 977.156, 353.235 977.633 C 354.739 980.255, 358.118 992.362, 358.759 997.423 C 359.565 1003.796, 361.664 1006.332, 364.600 1004.481 C 365.480 1003.926, 367.718 999.653, 369.574 994.986 C 371.430 990.319, 373.383 985.761, 373.915 984.858 C 374.447 983.955, 375.550 979.680, 376.365 975.358 C 382.311 943.862, 380.391 906.926, 371.420 880.244 C 367.901 869.780, 367.819 869.187, 368.247 857.500 C 368.760 843.486, 369.789 840.321, 377.794 828.127 C 386.075 815.512, 393.047 808.962, 401.197 806.138 C 411.069 802.718, 421.297 802.348, 433.923 804.956 C 446.778 807.611, 455.799 810.994, 477.004 821.114 C 502.363 833.216, 522.072 837.222, 545.520 835.040 C 563.621 833.356, 583.872 826.441, 592.251 819.084 C 597.092 814.834, 604.222 804.038, 607.903 795.385 C 612.917 783.599, 617 763.855, 617 751.399 L 617 747.245 608.912 751.222 C 604.463 753.410, 596.134 756.360, 590.401 757.779 C 581.109 760.078, 580.045 760.566, 580.589 762.279 C 581.493 765.129, 575.664 770.608, 569.122 773.056 C 557.468 777.416, 529.791 779.745, 509.572 778.067 C 494.696 776.833, 489.681 775.059, 489.194 770.861 C 488.909 768.397, 488.459 768.175, 482.444 767.531 C 477.730 767.026, 476 766.443, 476 765.360 C 476 764.114, 477.149 764.007, 483.250 764.689 C 496.011 766.116, 505.270 765.331, 514.773 762.017 C 525.218 758.375, 526.251 757.533, 522.959 755.350 C 521.607 754.453, 517.575 750.726, 514 747.068 C 491.161 723.698, 498.740 701.786, 535.720 684.269 C 542.565 681.026, 544.883 679.483, 544.093 678.693 C 541.804 676.404, 543.213 673.915, 549.750 668.696 C 563.523 657.699, 569.998 647.470, 569.999 636.708 C 570.001 624.502, 564.380 605.992, 556.767 593.136 C 554.970 590.102, 549.655 583.542, 544.955 578.560 C 536.523 569.621, 531.528 562.190, 528.873 554.635 C 527.239 549.984, 523.380 546.543, 516 543.156 C 512.975 541.768, 506.338 538.197, 501.250 535.221 C 493.719 530.816, 490.897 529.710, 486.064 529.272 C 480.274 528.747, 479.971 528.846, 473.814 533.251 C 459.708 543.342, 442.489 559.326, 402.746 599.224 C 373.122 628.964, 360.821 640.697, 360.405 639.613 C 359.796 638.027, 362.166 634.680, 378.538 614 C 397.425 590.144, 410.922 574.907, 429.913 556 C 440.686 545.275, 452.116 534.700, 455.314 532.500 C 458.512 530.300, 465.007 525.657, 469.747 522.181 C 482.038 513.169, 483.421 512.556, 491.500 512.531 C 497.904 512.512, 499.208 512.891, 506.818 516.984 C 514.202 520.955, 520.767 526.234, 536.762 541.058 C 538.557 542.721, 542.607 545.486, 545.762 547.203 C 559.668 554.770, 571.162 563.803, 579.719 573.889 C 582.703 577.406, 589.274 583.436, 594.322 587.289 C 615.894 603.756, 621.796 610.344, 631.069 628.309 C 635.303 636.512, 639.102 642.329, 642.681 646.090 C 645.606 649.165, 648 652.343, 648 653.152 C 648 653.961, 647.077 655.613, 645.950 656.824 C 644.016 658.899, 644.002 659.062, 645.700 659.688 C 646.690 660.054, 648.892 661.398, 650.594 662.676 C 653.967 665.209, 658.321 665.621, 661.571 663.715 C 664.886 661.770, 676.901 648.114, 679.116 643.773 C 680.664 640.738, 680.983 638.822, 680.467 635.650 C 679.629 630.501, 676.097 623.259, 671.782 617.842 C 667.143 612.018, 653.314 601.617, 640.084 594 C 633.874 590.425, 625.127 584.839, 620.647 581.586 C 604.014 569.512, 587.733 550.335, 578.429 531.858 C 572.678 520.439, 566.024 499.566, 563.969 486.500 C 559.503 458.108, 554.775 450.486, 530.390 432.371 C 481.165 395.802, 448.523 378.355, 381.007 352.525 C 357.688 343.604, 346.632 338.366, 343.034 334.536 C 341.218 332.603, 340.679 330.360, 339.915 321.560 C 338.500 305.270, 336.215 297.319, 328.607 282.211 C 326.588 278.202, 321.742 266.952, 317.839 257.211 C 310.135 237.983, 302.254 221.451, 298.262 216.145 C 296.874 214.299, 293.684 211.487, 291.173 209.895 C 281.416 203.707, 274.020 207.312, 266.536 221.902 C 264.951 224.994, 264.937 225.385, 266.386 226.196 C 267.262 226.687, 271.368 229.780, 275.509 233.071 C 293.773 247.585, 307.245 271.888, 313.108 300.898 C 315.202 311.258, 316.967 342.716, 315.400 341.747 C 314.900 341.438, 314.377 335.856, 314.238 329.343 C 313.750 306.450, 308.536 283.937, 299.653 266.361 C 294.304 255.779, 290.230 249.948, 282.549 241.881 C 277.107 236.165, 265.679 227, 263.993 227 C 262.811 227, 246.733 260.125, 242.636 271 C 233.277 295.844, 228.713 315.818, 226.525 341.500 L 225.929 348.500 227.810 344.500 C 231.919 335.762, 239.356 330, 246.526 330 C 250.815 330, 254 331.506, 254 333.535 C 254 334.524, 255.066 335, 257.277 335 C 261.283 335, 265 337.434, 265 340.057 C 265 341.640, 265.704 342, 268.800 342 C 274.865 342, 277.237 346.320, 272.856 349.388 L 270.712 350.890 273.106 351.415 C 274.423 351.704, 276.625 352.066, 278 352.220 C 281.585 352.622, 281.906 356.361, 278.544 358.563 C 276.569 359.857, 276.223 360.564, 277.065 361.578 C 278.895 363.784, 277.150 366.723, 273.032 368.370 C 269.988 369.588, 269.070 370.535, 268.820 372.714 C 268.586 374.751, 267.492 376.038, 264.753 377.500 C 260.289 379.882, 259.985 381, 263.800 381 C 267.336 381, 269 382.644, 269 386.137 C 269 388.493, 269.451 388.917, 272.250 389.187 C 274.960 389.448, 275.553 389.958, 275.817 392.256 C 276.012 393.949, 275.587 395.221, 274.715 395.556 C 273.797 395.908, 273.471 397.013, 273.791 398.688 C 274.157 400.602, 273.663 401.755, 271.893 403.116 C 269.908 404.642, 269.800 404.959, 271.264 404.978 C 272.234 404.990, 274.034 405.520, 275.264 406.155 C 276.494 406.791, 278.175 407.624, 279 408.008 C 281.231 409.044, 281.427 412.706, 279.311 413.807 C 276.979 415.021, 265.416 417, 260.655 417 C 258.630 417, 256.091 416.449, 255.013 415.776 C 253.296 414.703, 252.630 415.013, 249.641 418.276 C 245.076 423.260, 243.876 423.124, 240.453 417.240 C 238.667 414.170, 238.652 413.790, 240.197 410.740 C 241.100 408.958, 242.042 406.375, 242.290 405 C 242.539 403.625, 243.094 401.660, 243.523 400.634 C 244.210 398.992, 244.053 398.901, 242.217 399.884 C 237.321 402.504, 233.314 399.935, 235.075 395.303 C 235.721 393.602, 235.597 393, 234.598 393 C 233.854 393, 232.692 392.334, 232.017 391.521 C 230.828 390.088, 231.040 388.818, 233.470 382.840 C 233.932 381.704, 233.531 380.986, 232.197 380.563 C 231.127 380.223, 229.525 378.270, 228.639 376.222 L 227.029 372.500 227.579 379 C 229.162 397.706, 237.027 422.751, 248.620 446 C 253.145 455.075, 257.388 464.649, 258.048 467.275 C 260.566 477.281, 256.044 517, 252.386 517 C 250.564 517, 250.594 516.592, 253.480 502 C 256.274 487.880, 256.769 472.873, 254.672 465.905 C 253.942 463.479, 251.084 457.396, 248.322 452.389 C 235.387 428.943, 226.878 402.639, 223.935 377 C 222.281 362.597, 223.247 334.882, 225.938 319.500 C 231.203 289.410, 241.630 261.213, 259.959 227.500 C 268.290 212.178, 271.435 207.900, 276.200 205.411 C 280.107 203.370, 286.448 203.678, 291.281 206.144 C 295.151 208.118, 295.370 208.138, 294.044 206.394 C 285.963 195.764, 280.359 193.143, 273.226 196.659 M 202.200 370.200 C 199.264 373.136, 202.197 392.641, 207.301 404.114 C 208.618 407.076, 212.005 413.515, 214.827 418.421 C 217.649 423.328, 220.477 428.953, 221.112 430.921 C 221.746 432.890, 224.006 438.078, 226.133 442.452 C 229.948 450.298, 230 450.560, 230 462.095 C 230 471.565, 230.285 473.895, 231.500 474.362 C 235.948 476.069, 237.549 470.689, 236.806 456.531 C 236.313 447.125, 234.141 441.617, 219.853 413.531 C 211.068 396.260, 209.182 390.759, 208.064 379.139 C 207.557 373.867, 206.750 370.456, 205.880 369.905 C 204.052 368.747, 203.618 368.782, 202.200 370.200 M 23.788 438.549 C 22.720 440.307, 20 450.343, 20.026 452.432 C 20.040 453.569, 21.182 451.178, 22.565 447.119 C 24.775 440.631, 25.466 435.788, 23.788 438.549 M 449.102 571.900 C 444.174 572.572, 441.862 574.924, 443.816 577.278 C 444.739 578.390, 448.883 578.850, 461.758 579.270 C 477.707 579.791, 489.679 581.425, 500.357 584.539 C 505.886 586.152, 509 585.206, 509 581.914 C 509 580.582, 507.897 579.441, 505.750 578.552 C 500.195 576.251, 482.071 573.027, 469 572.014 C 455.688 570.982, 455.826 570.983, 449.102 571.900 M 440.113 587.027 C 438.800 587.582, 434.750 590.669, 431.113 593.885 C 427.476 597.102, 422.113 601.197, 419.196 602.986 C 413.635 606.396, 412.637 609.129, 416.151 611.330 C 418.356 612.712, 426.983 607.532, 435.645 599.624 L 442.082 593.748 449.811 594.195 C 458.271 594.685, 463.652 596.709, 475.509 603.860 C 479.257 606.120, 483.797 608.247, 485.597 608.584 C 492.991 609.971, 501.413 604.045, 500.822 597.870 C 500.535 594.864, 500.176 594.500, 497.500 594.500 C 495.180 594.500, 494.430 594.994, 494.190 596.677 C 493.314 602.827, 487.446 602.642, 476.732 596.127 C 472.204 593.374, 465.800 590.230, 462.500 589.140 C 455.260 586.750, 443.410 585.631, 440.113 587.027 M 519.243 595.157 C 515.982 598.418, 519.424 602.675, 523.735 600.711 C 527.067 599.193, 526.546 594.622, 522.993 594.207 C 521.614 594.046, 519.927 594.473, 519.243 595.157 M 528.500 609.085 C 521.972 613.592, 511.540 618, 507.401 618 C 502.714 618, 500.501 619.852, 501.485 622.952 C 502.032 624.677, 502.972 625, 507.442 625 C 513.846 625, 519.191 623.218, 527.360 618.360 C 533.236 614.865, 536 612.472, 536 610.880 C 536 609.951, 533.087 606.998, 532.179 607.007 C 531.805 607.010, 530.150 607.945, 528.500 609.085 M 443.324 622.638 C 436.816 624.944, 430.606 631.126, 425.871 640.012 C 423.549 644.370, 419.663 650.206, 417.236 652.980 C 408.567 662.890, 392.857 672.115, 374.500 678.074 C 363.327 681.701, 362 682.445, 362 685.087 C 362 688.859, 365.050 688.945, 375.656 685.473 C 404.258 676.108, 421.580 663.360, 431.996 644.008 C 438.290 632.313, 444.241 628.021, 454.181 628.006 C 456.206 628.003, 463.181 629.983, 469.681 632.406 C 476.182 634.829, 489.825 638.685, 500 640.974 C 510.175 643.263, 524.242 646.727, 531.260 648.671 C 538.278 650.616, 544.690 651.949, 545.510 651.635 C 547.758 650.772, 547.298 647.241, 544.716 645.550 C 542 643.770, 522.862 638.614, 500 633.501 C 490.925 631.472, 478.182 627.829, 471.681 625.406 C 458.624 620.538, 451.274 619.821, 443.324 622.638 M 134.681 651 C 135.820 657.157, 137.059 660.006, 136.462 655.096 C 136.168 652.674, 135.501 649.974, 134.981 649.096 C 134.329 647.996, 134.236 648.588, 134.681 651 M 452.638 662.585 C 443.888 664.704, 435.143 669.256, 424.258 677.358 C 408.402 689.160, 402.066 697.687, 402.022 707.281 C 402.006 710.800, 402.432 712.229, 403.636 712.691 C 406.294 713.710, 408.462 711.563, 409.042 707.338 C 410.185 698.999, 417.792 690.317, 432.979 680.020 C 450.292 668.282, 461.964 666.114, 489.030 669.611 C 502.668 671.373, 522.867 671.956, 527.313 670.715 C 529.636 670.067, 530.072 669.458, 529.813 667.215 L 529.500 664.500 516.854 664.293 C 509.899 664.179, 498.575 663.391, 491.691 662.543 C 476.441 660.663, 460.508 660.681, 452.638 662.585 M 630.680 666.370 C 628.010 668.386, 626.437 668.527, 601.180 669.006 C 574.613 669.510, 574.472 669.524, 568 672.338 C 564.425 673.892, 559.700 675.842, 557.500 676.670 C 555.300 677.498, 552.150 678.796, 550.500 679.554 C 548.850 680.312, 543.334 682.715, 538.241 684.895 C 521.705 691.973, 509.233 701.868, 504.946 711.310 C 500.022 722.155, 504.078 735.147, 516.158 747.227 C 519.952 751.021, 524.519 754.737, 526.305 755.483 C 531.324 757.580, 553.156 759.341, 564.835 758.590 C 583.490 757.391, 598.196 753.638, 611.723 746.623 C 615.450 744.690, 621.425 742.149, 625 740.976 C 637.168 736.985, 644.125 731.267, 648.693 721.500 C 651.274 715.982, 651.495 714.575, 651.442 704 C 651.372 690.346, 649.981 686.394, 641.621 676.098 C 638.674 672.469, 635.642 668.316, 634.882 666.870 L 633.500 664.240 630.680 666.370 M 149.030 704.202 C 148.981 705.334, 156.133 721.405, 157.174 722.500 C 157.696 723.050, 156.521 719.747, 154.562 715.161 C 150.884 706.551, 149.083 702.983, 149.030 704.202 M 160 729.366 C 160 730.934, 166.200 746.006, 167.066 746.541 C 168.417 747.376, 168.355 747.177, 164.374 737.926 C 160.759 729.527, 160 728.041, 160 729.366 M 304.520 953 C 305.310 955.570, 307.914 960, 308.635 960 C 309.068 960, 305.095 951.840, 304.253 951 C 303.977 950.725, 304.097 951.625, 304.520 953" stroke="none" fill="#9fa19d" fill-rule="evenodd"/></svg>