<svg xmlns="http://www.w3.org/2000/svg" viewBox="0 0 115.87 86.18"><path d="M15 378.738c8.285 0 15-6.715 15-15V289.98c0-8.285-6.715-15-15-15s-15 6.715-15 15v73.758c0 8.285 6.715 15 15 15m93.219 114.137c8.285 0 15-6.715 15-15V175.84c0-8.281-6.715-15-15-15-8.281 0-15 6.719-15 15v302.035c0 8.285 6.718 15 15 15m93.222 114.137c8.282 0 15-6.715 15-15V61.703c0-8.281-6.718-15-15-15-8.285 0-15 6.719-15 15v530.309c0 8.285 6.715 15 15 15M481.102 650c8.285 0 15-6.715 15-15V18.719c0-8.285-6.715-15-15-15s-15 6.715-15 15V635c0 8.285 6.714 15 15 15M294.66 432.102c8.285 0 15-6.715 15-15V236.617c0-8.285-6.715-15-15-15s-15 6.715-15 15v180.485c0 8.285 6.715 15 15 15m93.219 60.773c8.285 0 15-6.715 15-15V175.84c0-8.281-6.715-15-15-15-8.281 0-15 6.719-15 15v302.035c0 8.285 6.719 15 15 15m186.441 60.777c8.285 0 15-6.718 15-15V115.066c0-8.285-6.715-15-15-15s-15 6.715-15 15v423.586c0 8.282 6.715 15 15 15m186.442 13.34c8.285 0 15-6.715 15-15V101.727c0-8.286-6.715-15-15-15s-15 6.714-15 15v450.265c0 8.285 6.715 15 15 15m-93.223-129.703c8.285 0 15-6.715 15-15V231.43c0-8.285-6.715-15-15-15-8.281 0-15 6.715-15 15v190.859c0 8.285 6.719 15 15 15m186.441-57.976c8.286 0 15-6.715 15-15v-74.907c0-8.285-6.714-15-15-15s-15 6.715-15 15v74.907c0 8.285 6.715 15 15 15" style="fill:#e4fdc3;fill-opacity:1;fill-rule:nonzero;stroke:none" transform="matrix(.13333 0 0 -.13333 0 86.667)"/></svg>