<?xml version="1.0" encoding="utf-8"?>
<!-- Generator: Adobe Illustrator 15.0.0, SVG Export Plug-In . SVG Version: 6.00 Build 0)  -->
<!DOCTYPE svg PUBLIC "-//W3C//DTD SVG 1.1//EN" "http://www.w3.org/Graphics/SVG/1.1/DTD/svg11.dtd">
<svg version="1.1" id="Layer_1" xmlns="http://www.w3.org/2000/svg" xmlns:xlink="http://www.w3.org/1999/xlink" x="0px" y="0px"
	 width="2000px" height="2000px" viewBox="0 0 2000 2000" enable-background="new 0 0 2000 2000" xml:space="preserve">
<g>
	<path fill="#3A1888" d="M714.993,1505.704c77.303,77.287,283.078,287.052,282.98,287.265
		c-0.751,1.369,204.42-204.633,286.141-286.303l-285.049-285.032L714.993,1505.704z"/>
	<path fill="#03A1C4" d="M999.064,1221.634l285.049,285.032c0.423-0.474,0.944-1.011,1.401-1.435l284.771-284.788L1285.27,935.429
		L999.064,1221.634z"/>
	<path fill="#05D0DF" d="M1570.285,1220.443l0.732-0.732c157.523-157.509,157.656-412.784,0.474-570.488L1285.27,935.429
		L1570.285,1220.443z"/>
	<path fill="#761FE8" d="M712.843,935.429L428.82,1219.434c0.082,0.098,0.13,0.195,0.228,0.277l285.472,285.521
		c0.163,0.146,0.326,0.295,0.472,0.473l284.072-284.07L712.843,935.429z"/>
	<path fill="#FFAA01" d="M999.064,649.19l286.205,286.238l286.222-286.206c-0.228-0.164-0.309-0.327-0.474-0.489l-285.503-285.496
		c-0.066-0.082-0.163-0.164-0.245-0.245L999.064,649.19z"/>
	<path fill="#F1175D" d="M427.614,650.201c-156.122,157.703-155.73,412.035,1.206,569.233l284.022-284.005L427.614,650.201z"/>
	<path fill="#FB3A1B" d="M999.064,649.19L713.819,363.954l-284.771,284.78c-0.489,0.489-0.929,1.01-1.434,1.467l285.229,285.228
		L999.064,649.19z"/>
	<path fill="#FBC935" d="M1285.27,362.993c-157.719-157.426-413.144-157.345-570.749,0.245l-0.701,0.716L999.064,649.19
		L1285.27,362.993z"/>
</g>
</svg>
