<svg xmlns="http://www.w3.org/2000/svg" xml:space="preserve" width="2000" height="2000"><path fill="#3A1888" d="M714.993 1505.704c77.303 77.287 283.078 287.052 282.98 287.265-.751 1.369 204.42-204.633 286.141-286.303l-285.049-285.032-284.072 284.07z"/><path fill="#03A1C4" d="m999.064 1221.634 285.049 285.032c.423-.474.944-1.011 1.401-1.435l284.771-284.788-285.015-285.014-286.206 286.205z"/><path fill="#05D0DF" d="m1570.285 1220.443.732-.732c157.523-157.509 157.656-412.784.474-570.488L1285.27 935.429l285.015 285.014z"/><path fill="#761FE8" d="M712.843 935.429 428.82 1219.434c.082.098.13.195.228.277l285.472 285.521c.163.146.326.295.472.473l284.072-284.07-286.221-286.206z"/><path fill="#FFAA01" d="m999.064 649.19 286.205 286.238 286.222-286.206c-.228-.164-.309-.327-.474-.489l-285.503-285.496c-.066-.082-.163-.164-.245-.245L999.064 649.19z"/><path fill="#F1175D" d="M427.614 650.201c-156.122 157.703-155.73 412.035 1.206 569.233l284.022-284.005-285.228-285.228z"/><path fill="#FB3A1B" d="M999.064 649.19 713.819 363.954l-284.771 284.78c-.489.489-.929 1.01-1.434 1.467l285.229 285.228L999.064 649.19z"/><path fill="#FBC935" d="M1285.27 362.993c-157.719-157.426-413.144-157.345-570.749.245l-.701.716L999.064 649.19l286.206-286.197z"/></svg>