<svg xmlns:sodipodi="http://sodipodi.sourceforge.net/DTD/sodipodi-0.dtd" xmlns:inkscape="http://www.inkscape.org/namespaces/inkscape" xmlns:rdf="http://www.w3.org/1999/02/22-rdf-syntax-ns#" xmlns:dc="http://purl.org/dc/elements/1.1/" xmlns:cc="http://creativecommons.org/ns#" xmlns="http://www.w3.org/2000/svg" xmlns:xlink="http://www.w3.org/1999/xlink" version="1.1" id="Layer_1" inkscape:export-filename="/mnt/files/documents/monty-program-ab/logos-dbart/mariadb-seal-flat-browntext.png" inkscape:export-xdpi="89.714859" inkscape:export-ydpi="89.714859" inkscape:version="1.0.2 (e86c870879, 2021-01-15, custom)" sodipodi:docname="Mariadb-seal-browntext.svg" x="0px" y="0px" style="enable-background:new 0 0 512 512;" xml:space="preserve" viewBox="0 85.79 512.01 340.29">
<style type="text/css">
	.st0{fill-rule:evenodd;clip-rule:evenodd;fill:#002B64;}
	.st1{fill:#C49A6C;}
	.st2{fill-rule:evenodd;clip-rule:evenodd;fill:#C49A6C;}
	.st3{fill:#002B64;}
</style>
<g inkscape:export-filename="/mnt/files/documents/monty-program-ab/logos-dbart/MariaDB-seal-flat.png" inkscape:export-xdpi="90" inkscape:export-ydpi="90">
	
		<path inkscape:export-filename="/mnt/files/documents/monty-program-ab/logos/seal-flat.png" inkscape:export-xdpi="90" inkscape:export-ydpi="90" sodipodi:nodetypes="czssccsccssccccsccsssssz" class="st0" d="   M500.7,86.5c-7.9,0.3-5.4,2.5-22.5,6.7c-17.3,4.2-38.4,2.9-57,10.7c-55.5,23.3-66.6,102.8-117.1,131.3   c-37.6,21.3-75.8,23-109.9,33.6c-22.5,7.1-47,21.5-67.5,39c-15.8,13.6-16.2,25.6-32.8,42.7C76.3,368.9,23.6,351,0,379   c7.7,7.7,11.1,9.9,26.2,7.9c-3.1,5.9-21.6,10.9-18,19.7c3.8,9.2,48.4,15.4,88.9-9.1c18.9-11.4,33.9-27.9,63.2-31.9   c38.2-5.1,82,3.2,125.9,9.6c-6.6,19.5-19.7,32.5-30.2,47.8c-3.2,3.5,6.6,3.9,17.7,1.8c20.1-5,34.5-9,49.8-17.8   c18.6-10.9,21.4-38.7,44.4-44.7c12.7,19.6,47.3,24.2,68.9,8.5c-18.9-5.4-24.1-45.6-17.7-63.2c6-16.7,12-43.6,18.1-65.8   c6.5-23.8,8.9-53.8,16.8-65.8c11.9-18.2,25-24.5,36.5-34.7C501.9,131,512.3,121,512,97.4c-0.1-7.6-4-11.8-11.2-11.6L500.7,86.5z"/>
	
		<path inkscape:export-filename="/mnt/files/documents/monty-program-ab/logos/seal-flat.png" inkscape:export-xdpi="90" inkscape:export-ydpi="90" class="st1" d="   M16.5,405.5c28.8,4.1,46.4,0,69.8-10.1c19.7-8.6,38.7-26.2,62.1-33.6c34.2-11,71.8,0,108.5,2.2c8.9,0.5,17.8,0.5,26.5-0.4   c13.6-8.4,13.4-39.6,26.6-42.7c-0.4,43.9-18.4,70.3-37.3,95.7c39.9-7,63.5-29.9,79.5-60.7c4.9-9.3,9-19.3,12.7-29.9   c5.7,4.4,2.5,17.7,5.3,24.8c27.4-15.2,43-50.1,53.5-85.2c12-40.7,16.9-82,24.7-94c7.5-11.8,19.3-19,30.2-26.5   c12.2-8.6,23.1-17.5,24.9-33.9c-12.9-1.2-15.8-4.2-17.7-10.7c-6.4,3.6-12.4,4.4-19.1,4.6c-5.8,0.2-12.2-0.1-20,0.7   c-64.4,6.6-72.6,77.8-113.9,117.9c-3,2.9-6.3,5.7-9.7,8.2c-14.5,10.8-32.2,18.5-48.4,24.7c-26.4,10.1-51.5,10.8-76.3,19.5   c-18.2,6.4-36.7,15.7-51.5,25.9c-3.7,2.6-7.3,5.2-10.5,7.8c-8.8,7.2-14.5,15.1-20.1,23.3c-5.8,8.4-11.3,17.1-19.7,25.4   c-13.7,13.4-64.9,3.9-82.9,16.4c-2,1.4-3.6,3-4.7,5c9.8,4.5,16.4,1.7,27.7,3c1.5,10.7-23.3,17.1-19.7,22L16.5,405.5z"/>
	
		<path inkscape:export-filename="/mnt/files/documents/monty-program-ab/logos/seal-flat.png" inkscape:export-xdpi="90" inkscape:export-ydpi="90" class="st2" d="   M406.7,325.8c0.8,12.3,7.9,36.7,14.2,42.7c-12.4,3-33.6-2-39-10.7c2.8-12.6,17.4-24.1,24.9-31.9L406.7,325.8z"/>
	
		<path inkscape:export-filename="/mnt/files/documents/monty-program-ab/logos/seal-flat.png" inkscape:export-xdpi="90" inkscape:export-ydpi="90" class="st0" d="   M423.8,132.1c9.1,7.9,28.3,1.6,24.8-14.2C434.5,116.7,426.3,121.6,423.8,132.1z"/>
	
		<path inkscape:export-filename="/mnt/files/documents/monty-program-ab/logos/seal-flat.png" inkscape:export-xdpi="90" inkscape:export-ydpi="90" class="st3" d="   M486.5,112.2c-2.4,5.1-7.1,11.6-7.1,24.6c0,2.2-1.7,3.8-1.7,0.3c0.1-12.7,3.5-18.1,7-25.3C486.4,108.8,487.4,110,486.5,112.2   L486.5,112.2z"/>
	
		<path inkscape:export-filename="/mnt/files/documents/monty-program-ab/logos/seal-flat.png" inkscape:export-xdpi="90" inkscape:export-ydpi="90" class="st3" d="   M486.5,112.2c-2.8,4.8-9.7,13.7-10.9,26.6c-0.2,2.2-2,3.6-1.7,0.2c1.2-12.6,6.7-20.5,10.9-27.3   C486.7,108.8,487.6,110.1,486.5,112.2L486.5,112.2z"/>
	
		<path inkscape:export-filename="/mnt/files/documents/monty-program-ab/logos/seal-flat.png" inkscape:export-xdpi="90" inkscape:export-ydpi="90" class="st3" d="   M483.6,109.3c-3.2,4.6-13.9,15.2-16.1,28c-0.4,2.2-2.3,3.4-1.7,0c2.3-12.4,11.4-22.2,16.2-28.8   C484.1,105.9,484.9,107.3,483.6,109.3L483.6,109.3z"/>
	
		<path inkscape:export-filename="/mnt/files/documents/monty-program-ab/logos/seal-flat.png" inkscape:export-xdpi="90" inkscape:export-ydpi="90" class="st3" d="   M480.8,106.5c-3.9,4.1-16.5,17.7-20.5,29.9c-0.7,2.1-2.8,3-1.7-0.2c4-12,15.1-24.9,20.7-30.8c2.5-2.3,3-0.8,1.5,0.9L480.8,106.5z"/>
</g>
</svg>