<?xml version="1.0" encoding="utf-8"?>
<!-- Generator: Adobe Illustrator 27.7.0, SVG Export Plug-In . SVG Version: 6.00 Build 0)  -->
<svg version="1.1" id="Layer_1" xmlns="http://www.w3.org/2000/svg" xmlns:xlink="http://www.w3.org/1999/xlink" x="0px" y="0px"
	 viewBox="0 0 512 512" style="enable-background:new 0 0 512 512;" xml:space="preserve">
<style type="text/css">
	.st0{fill:url(#SVGID_1_);}
	.st1{fill:#FFFFFF;}
</style>
<g>
	
		<linearGradient id="SVGID_1_" gradientUnits="userSpaceOnUse" x1="254" y1="513" x2="254" y2="1" gradientTransform="matrix(1 0 0 -1 2 513)">
		<stop  offset="0" style="stop-color:#6364FF"/>
		<stop  offset="1" style="stop-color:#563ACC"/>
	</linearGradient>
	<path class="st0" d="M494.3,113.4C486.9,58.3,439,15,382.1,6.6C372.5,5.2,336.2,0,252,0h-0.6c-84.2,0-102.2,5.2-111.8,6.6
		c-55.3,8.2-105.7,47.1-118,102.8c-5.9,27.4-6.5,57.8-5.4,85.7c1.6,40,1.9,79.9,5.5,119.7c2.5,26.4,6.9,52.7,13.1,78.5
		c11.6,47.7,58.7,87.4,104.9,103.6c49.4,16.9,102.6,19.7,153.5,8.1c5.6-1.3,11.1-2.8,16.6-4.5c12.4-3.9,26.9-8.3,37.5-16.1
		c0.1-0.1,0.3-0.2,0.4-0.4c0.1-0.2,0.1-0.3,0.1-0.5v-38.6c0-0.2,0-0.3-0.1-0.5c-0.1-0.2-0.2-0.3-0.3-0.4c-0.1-0.1-0.3-0.2-0.5-0.2
		c-0.2,0-0.3,0-0.5,0c-32.6,7.8-66.1,11.7-99.6,11.6c-57.7,0-73.2-27.4-77.7-38.8c-3.6-9.9-5.8-20.1-6.7-30.6c0-0.2,0-0.4,0.1-0.5
		c0.1-0.2,0.2-0.3,0.3-0.4c0.1-0.1,0.3-0.2,0.5-0.2c0.2,0,0.3,0,0.5,0c32.1,7.7,65,11.6,98,11.6c7.9,0,15.8,0,23.8-0.2
		c33.2-0.9,68.2-2.6,100.8-9c0.8-0.2,1.6-0.3,2.3-0.5c51.5-9.9,100.5-40.9,105.5-119.5c0.2-3.1,0.7-32.4,0.7-35.6
		C494.8,220.7,498.3,154.2,494.3,113.4z"/>
	<path class="st1" d="M412.7,175.2v136.7h-54.2V179.2c0-27.9-11.6-42.2-35.3-42.2c-26,0-39.1,16.8-39.1,50.1v72.6h-53.8v-72.6
		c0-33.3-13.1-50.1-39.1-50.1c-23.5,0-35.3,14.2-35.3,42.2v132.6h-54.1V175.2c0-27.9,7.1-50.1,21.4-66.6c14.7-16.4,34-24.8,58-24.8
		c27.7,0,48.7,10.7,62.6,32l13.5,22.6l13.5-22.6c14-21.3,34.9-32,62.6-32c23.9,0,43.2,8.4,58,24.8
		C405.6,125,412.7,147.2,412.7,175.2z"/>
</g>
</svg>
