<svg xmlns="http://www.w3.org/2000/svg" xml:space="preserve" id="Layer_1" x="0" y="0" style="enable-background:new 0 0 184 105" version="1.1" viewBox="0 0 184 105"><style>.st2{fill:#3253a0}.st4{fill:#3152a0}</style><g id="Page-1"><g id="Group-2"><g id="Clipped_00000132076923584011771480000012841867960468401550_" transform="translate(0 6)"><g id="Group"><g id="Clipped" transform="translate(47)"><path id="Path" d="m119.66 54.82.02-.01-.4-.61c-.06-.09-.12-.19-.18-.28L91.32 11.68 55.41 38.4l26.25 40.34c.11.17.22.34.34.52l.14.21.02-.01C86.22 85.22 92.92 89 100.52 89 112.94 89 123 78.95 123 66.55c0-4.31-1.24-8.32-3.34-11.73" style="fill:#95c748"/></g><g id="Clipped_00000156565890445987476050000014506504694279616649_" transform="translate(0 17)"><path id="Path_00000164489280363563238800000005315116896451006370_" d="M58.96 49.55c0-12.4-10.06-22.45-22.48-22.45S14 37.16 14 49.55C14 61.95 24.06 72 36.48 72s22.48-10.05 22.48-22.45" style="fill:#35bfc0"/></g></g></g><g id="Clipped_00000147939797476835010550000017728048315148917166_" transform="translate(2)"><g id="Group_00000041996347613192160670000012959887615955642027_"><g id="Clipped_00000119797419571802010220000000472517779402867840_"><path d="M139.75 29.45c0-12.4-10.06-22.45-22.48-22.45S94.79 17.05 94.79 29.45c0 4.56 1.37 8.79 3.7 12.33h-.01l-17.07-24.1h-.02C77.43 11.28 70.36 7 62.27 7s-15.16 4.28-19.12 10.68h-.02l-27.18 42.3c4.04-5.96 10.88-9.88 18.63-9.88 8.16 0 15.28 4.36 19.22 10.85h.03l17.76 24.9h.03C75.7 91.39 82.26 95 89.69 95c7.42 0 13.98-3.61 18.08-9.14h.03l.18-.28c.46-.65.9-1.32 1.29-2.02l26.61-41.53c2.44-3.59 3.87-7.92 3.87-12.58m-37.89 16.31" class="st2"/><path d="M103.85 47.43c.15.11.29.22.44.33-.14-.11-.29-.22-.44-.33m4.94 2.8c.19.08.38.14.57.21-.19-.08-.39-.14-.57-.21m2.42.81c.27.08.54.14.81.21-.28-.06-.55-.13-.81-.21m2.62.56c.26.04.52.09.78.12-.26-.03-.51-.08-.78-.12m18.22-5.27c.2-.17.4-.35.59-.54-.19.18-.39.36-.59.54m-12.17 5.4c.27-.03.53-.08.79-.12-.26.03-.52.09-.79.12m5.1-1.23c.24-.09.49-.17.72-.26-.23.1-.47.18-.72.26m5.1-2.63c.19-.13.37-.28.56-.42-.19.14-.37.29-.56.42m3.82-3.36c.16-.17.32-.34.47-.52-.15.18-.32.35-.47.52" class="st2"/></g><g id="Clipped_00000095323591476436594370000013345736875122823307_" transform="translate(0 28)"><path id="Path_00000119824573067559202670000017903532598931893941_" d="M15.4 32.87c.17-.27.32-.55.5-.82l-.53.82h.03z" class="st2"/></g></g></g><g id="Clipped_00000008146242298281869190000009154315142859431087_" transform="translate(2)"><g id="Group_00000109007047635814527060000002221774577773934500_"><g id="Clipped_00000118399094085726353540000002205469806798085532_" transform="translate(42)"><path id="Path_00000094590516027603832210000012939577698099016582_" d="M97.66 29.45C97.66 17.05 87.59 7 75.18 7S52.7 17.05 52.7 29.45 62.76 51.9 75.18 51.9s22.48-10.06 22.48-22.45" style="fill:#f38334"/></g><g id="Clipped_00000026148820442578455490000004073509970914938809_"><path id="Path_00000055698958385076460450000012601939943657407392_" d="M117.18 51.89c-7.85 0-14.76-4.03-18.77-10.12h-.01L81.32 17.68h-.02C77.34 11.28 70.27 7 62.18 7s-15.16 4.28-19.12 10.68h-.02l-27.18 42.3c4.04-5.96 10.88-9.88 18.63-9.88 8.16 0 15.28 4.35 19.22 10.85h.03l17.76 24.9h.03C75.62 91.39 82.18 95 89.6 95s13.98-3.61 18.08-9.14h.03l.18-.28c.46-.65.9-1.32 1.29-2.01l26.61-41.53c-4.04 5.94-10.87 9.85-18.61 9.85" class="st4"/></g><g id="Clipped_00000101065216843023044770000011571079917052478350_" transform="translate(0 28)"><path id="Path_00000168093924189456866050000005468021180060944824_" d="M15.28 32.87h.03c.17-.27.32-.55.5-.82l-.53.82z" class="st4"/></g></g></g></g></g></svg>