<svg height="384pt" viewBox="0 -32 384 384" width="384pt" xmlns="http://www.w3.org/2000/svg"><path d="m64 288h-32v-256h32v-32h-64v320h64zm0 0"/><path d="m320 32h32v256h-32v32h64v-320h-64zm0 0"/><path d="m80 64h32v32h-32zm0 0"/><path d="m176 64h32v32h-32zm0 0"/><path d="m272 64h32v32h-32zm0 0"/><path d="m80 144h32v32h-32zm0 0"/><path d="m176 144h32v32h-32zm0 0"/><path d="m272 144h32v32h-32zm0 0"/><path d="m80 224h32v32h-32zm0 0"/><path d="m176 224h32v32h-32zm0 0"/><path d="m272 224h32v32h-32zm0 0"/></svg>