<svg xmlns="http://www.w3.org/2000/svg" viewBox="0 0 27.9 32"><path fill="#040404" d="M27.005 31.205V.705h-2.19v-.732h3.04v32h-3.04v-.732zm-18.87-20.8v1.54h.044a4.486 4.486 0 0 1 1.49-1.37c.58-.323 1.25-.485 1.99-.485.72 0 1.38.14 1.97.42.595.279 1.05.771 1.36 1.48.338-.5.796-.941 1.38-1.32.58-.383 1.27-.574 2.06-.574.602 0 1.16.074 1.67.22.514.148.954.383 1.32.707.366.323.653.746.859 1.27.205.522.308 1.15.308 1.89v7.63h-3.13v-6.46c0-.383-.015-.743-.044-1.08a2.302 2.302 0 0 0-.242-.882 1.47 1.47 0 0 0-.584-.596c-.257-.146-.606-.22-1.05-.22-.44 0-.796.085-1.07.253-.272.17-.485.39-.639.662a2.649 2.649 0 0 0-.308.927 7.075 7.075 0 0 0-.078 1.05v6.35h-3.13v-6.4c0-.338-.007-.673-.021-1a2.826 2.826 0 0 0-.188-.916 1.408 1.408 0 0 0-.55-.673c-.258-.168-.636-.253-1.14-.253a2.334 2.334 0 0 0-.584.1 1.95 1.95 0 0 0-.705.374c-.228.184-.422.449-.584.794-.161.346-.242.798-.242 1.36v6.62h-3.13v-11.4zM.841.737v30.5h2.19v.732h-3.04v-32h3.03v.732z"/></svg>