<svg xmlns:cc="http://creativecommons.org/ns#" xmlns:dc="http://purl.org/dc/elements/1.1/" xmlns:rdf="http://www.w3.org/1999/02/22-rdf-syntax-ns#" xmlns="http://www.w3.org/2000/svg" xmlns:xlink="http://www.w3.org/1999/xlink" version="1.1" id="Layer_1" x="0px" y="0px" style="enable-background:new 0 0 512 512;" xml:space="preserve" viewBox="33.1 0.01 445.8 512">
<style type="text/css">
	.st0{fill:#040404;}
</style>
<g transform="translate(-.095 .005)">
	<path class="st0" d="M465.4,499.7V11.8h-35V0.1H479V512h-48.6v-11.7L465.4,499.7z"/>
	<path class="st0" d="M163.5,167v24.6h0.7c6.2-9,14.3-16.5,23.8-21.9c9.3-5.2,20-7.8,31.8-7.8c11.5,0,22.1,2.2,31.5,6.7   c9.5,4.5,16.8,12.3,21.8,23.7c5.4-8,12.7-15.1,22.1-21.1c9.3-6.1,20.3-9.2,33-9.2c9.6,0,18.6,1.2,26.7,3.5   c8.2,2.4,15.3,6.1,21.1,11.3c5.9,5.2,10.4,11.9,13.7,20.3c3.3,8.4,4.9,18.4,4.9,30.2v122.1h-50.1V246.1c0-6.1-0.2-11.9-0.7-17.3   c-0.3-4.9-1.6-9.7-3.9-14.1c-2.1-4-5.4-7.3-9.3-9.5c-4.1-2.3-9.7-3.5-16.8-3.5c-7,0-12.7,1.4-17.1,4c-4.4,2.7-7.8,6.2-10.2,10.6   c-2.5,4.6-4.2,9.6-4.9,14.8c-0.8,5.6-1.2,11.2-1.2,16.8v101.6h-50.1V247.1c0-5.4-0.1-10.8-0.3-16c-0.2-5-1.2-10-3-14.7   c-1.7-4.4-4.8-8.2-8.8-10.8c-4.1-2.7-10.2-4-18.2-4c-3.2,0.1-6.3,0.7-9.3,1.6c-4.1,1.2-8,3.2-11.3,6c-3.6,2.9-6.8,7.2-9.3,12.7   c-2.6,5.5-3.9,12.8-3.9,21.8v105.9H116V167.2L163.5,167z"/>
	<path class="st0" d="M46.8,12.3v487.9h35v11.7H33.2V0h48.5v11.7L46.8,12.3z"/>
</g>
</svg>