<?xml version="1.0" encoding="UTF-8"?>
<svg id="Layer_1" xmlns="http://www.w3.org/2000/svg" width="512" height="500" version="1.1" xmlns:xlink="http://www.w3.org/1999/xlink" viewBox="0 0 512 500">
  <!-- Generator: Adobe Illustrator 29.2.0, SVG Export Plug-In . SVG Version: 2.1.0 Build 108)  -->
  <defs>
    <style>
      .st0 {
        fill: #0c1221;
      }
    </style>
  </defs>
  <path class="st0" d="M152,128.5c21.5,17.5,47.1,29.2,74.4,34.2V17.1L256.1,0l29.6,17.1v145.5c27.3-4.9,52.9-16.7,74.5-34.2l53.8,31.1c-87.6,86.5-228.5,86.5-316.1,0l54.1-31ZM217.5,500c31.2-119.1-39.4-241.1-158.2-273.5v62.3c25.9,9.9,48.9,26.2,66.8,47.4L0,408.8v34.2l29.7,17,126.1-72.7c9.4,26.1,12,54.2,7.6,81.4l54.1,31.4ZM452.8,226.5c-118.8,32.5-189.2,154.5-158,273.5l54-31.2c-4.4-27.4-1.7-55.4,7.6-81.4l126,72.6,29.6-17.1v-34.2l-126.1-72.7c17.9-21.2,40.9-37.5,66.8-47.4v-62.2Z"/>
</svg>