<svg xmlns="http://www.w3.org/2000/svg" fill="none" id="Matter--Streamline-Outlined-Material.svg" viewBox="2.88 2.4 17.25 16.65"><desc>Matter Streamline Icon: https://streamlinehq.com</desc><path fill="#000000" d="M11.5 9.535416666666666c-0.9583333333333334 0 -1.8607479166666667 -0.17168541666666667 -2.707291666666667 -0.5151041666666667 -0.84654375 -0.34341875 -1.6052083333333333 -0.81060625 -2.276041666666667 -1.4015625l1.3177083333333335 -0.790625c0.38333333333333336 0.2875 0.8225854166666666 0.5390625 1.3177083333333335 0.7546875 0.49512291666666675 0.215625 1.0382104166666668 0.3713541666666667 1.6291666666666667 0.46718750000000003V2.8270833333333334L11.5 2.3958333333333335l0.71875 0.43125v5.222916666666667c0.575 -0.09583333333333334 1.1140625000000002 -0.2515625 1.6171875 -0.46718750000000003 0.503125 -0.215625 0.9463541666666667 -0.46718750000000003 1.3296875 -0.7546875l1.3177083333333335 0.790625c-0.6708333333333333 0.5909562500000001 -1.4294979166666666 1.05814375 -2.276041666666667 1.4015625C13.360747916666666 9.363731249999999 12.458333333333334 9.535416666666666 11.5 9.535416666666666Zm-1.58125 9.511458333333334 -1.3416666666666666 -0.71875c0.01595625 -0.12779375 0.027935416666666667 -0.2475854166666667 0.0359375 -0.359375 0.008002083333333333 -0.11178958333333334 0.011979166666666667 -0.23158125000000002 0.011979166666666667 -0.359375 0 -0.38333333333333336 -0.04393958333333334 -0.7866479166666667 -0.13177083333333334 -1.2098958333333334 -0.08783125 -0.42324791666666667 -0.21164791666666666 -0.84251875 -0.3713541666666667 -1.2578125l-4.504166666666667 2.73125L2.875 17.465625000000003V16.627083333333335l4.480208333333334 -2.707291666666667c-0.36737708333333335 -0.43125 -0.7706437500000001 -0.81060625 -1.2098958333333334 -1.1380208333333335 -0.4392520833333333 -0.32741458333333334 -0.8904354166666667 -0.5789770833333333 -1.3536458333333334 -0.7546875v-1.5333333333333334c1.5333333333333334 0.4632104166666667 2.795122916666667 1.34564375 3.785416666666667 2.6473958333333334 0.9902937500000001 1.3017520833333334 1.4854166666666668 2.7911458333333337 1.4854166666666668 4.468229166666666 0 0.2555395833333333 -0.011979166666666667 0.503125 -0.0359375 0.7427083333333334 -0.023958333333333335 0.23958333333333334 -0.059895833333333336 0.47116458333333333 -0.1078125 0.6947916666666667Zm3.1625 0c-0.04791666666666667 -0.22362708333333334 -0.08385416666666666 -0.4552083333333333 -0.1078125 -0.6947916666666667 -0.023958333333333335 -0.23958333333333334 -0.0359375 -0.48716875 -0.0359375 -0.7427083333333334 0 -1.6770833333333335 0.49512291666666675 -3.1664770833333336 1.4854166666666668 -4.468229166666666 0.9902937500000001 -1.3017520833333334 2.2520833333333337 -2.1841854166666668 3.785416666666667 -2.6473958333333334v1.5333333333333334c-0.4632104166666667 0.17571041666666667 -0.9143937500000001 0.4272729166666667 -1.3536458333333334 0.7546875 -0.4392520833333333 0.32741458333333334 -0.84251875 0.7067708333333333 -1.2098958333333334 1.1380208333333335L20.125 16.627083333333335v0.8385416666666667l-0.7427083333333334 0.40729166666666666 -4.504166666666667 -2.73125c-0.15970625 0.41529375 -0.2835229166666667 0.8345645833333334 -0.3713541666666667 1.2578125 -0.08783125 0.42324791666666667 -0.13177083333333334 0.8265625000000001 -0.13177083333333334 1.2098958333333334 0 0.12779375 0.003977083333333333 0.2475854166666667 0.011979166666666667 0.359375 0.008002083333333333 0.11178958333333334 0.019981250000000002 0.23158125000000002 0.0359375 0.359375l-1.3416666666666666 0.71875Z" stroke-width="1"/></svg>