<svg xmlns="http://www.w3.org/2000/svg" xmlns:xlink="http://www.w3.org/1999/xlink" version="1.1" id="Layer_1" x="0px" y="0px" style="enable-background:new 0 0 512 512;" xml:space="preserve" viewBox="-0.3 55.42 512.23 400.98">
<g>
	<path d="M439.2,291.6c0,0.9,0,1.8,0,2.7c0,8.9,0,17.9,0,26.8c-0.1,2-0.3,3.9-0.4,5.9c-0.4,6.8-3.1,9.6-10,9.6   c-27.4,0-54.8,0-82.3,0c-3.3,0-6.6,0.1-10,0.1c-0.1,0-0.2,0-0.3,0c0,0.1,0.1,0.2,0.1,0.3c0.1,0.9,0,1.7,0.2,2.5   c0.5,1.8,1.2,3,3.6,3c17-0.1,34-0.1,51.1-0.1c25.1,0,50.2-0.1,75.4,0c6.1,0,9.2,2.7,9.3,8.9c0.1,11.9,0.1,23.8,0,35.6   c0,2.2-0.8,4.2-2.4,5.8c-2.9,2.9-6.6,2.9-10.3,2.9c-35.6,0-71.3,0-106.9,0c-3.3,0-6.5-0.1-9.8,0c-0.6,0-1.7,0.6-1.8,1   c-0.6,2.7,0.8,4.4,3.4,4.4c49.9,0,99.9,0,149.8,0c1.4,0,2.7,0,4.1,0c5.8,0.1,9.9,4.6,9.9,8.5c-0.1,11,0.1,22.1,0,33.1   c-0.1,3.7,0.6,7.7-2.5,10.8c-0.6,0.5-1.2,0.9-1.8,1.4c-0.9,0.4-1.9,0.8-2.8,1.2c-1.4,0.1-2.7,0.2-4.1,0.2c-33.7,0-67.5,0-101.2,0   c-15.4,0-30.9,0-46.3,0c-0.2-0.1-0.3-0.2-0.5-0.3c-0.1-0.2-0.3-0.3-0.4-0.5c-0.7-4.5-1.3-9.1-1.9-13.6c-0.1-1.2-0.2-2.5-0.4-3.7   c-0.9-5.5-1.9-10.9-2.7-16.4c-0.9-5.6-1.6-11.1-2.4-16.7c-0.4-0.9-0.9-1.8-1.3-2.7c-3.9,0-7.8,0-12.2,0c0.4,3,0.9,5.7,1.2,8.5   c0.2,1.5,0.2,3.1,0.3,4.6c-4.4-0.1-8.8-0.2-13.1-0.2c-32.1,0-64.3,0-96.4,0c-15,0-30.1,0.1-45.1,0.2c0.1-1.5,0-3,0.2-4.4   c0.3-2.3,0.7-4.6,1.1-6.8c-0.3-0.6-0.6-1.3-0.8-1.9c-4,0-8.1,0-12,0c-0.9,6-1.7,11.8-2.6,17.5c-0.4,2.8-0.9,5.7-1.4,8.5   c-0.7,5.1-1.4,10.3-2.1,15.4c-0.5,3.5-1.2,7-1.5,10.5c-0.1,1.7-0.7,2.1-2.3,2.1c-48.5,0-96.9-0.1-145.4,0c-3.2,0-6.4-0.2-9-2.3   c-0.9-1.5-1.8-3-2.7-4.5c0-13.1,0-26.2-0.1-39.2c0-3.4,1.5-5.7,4.1-7.4c2.9-2,6.3-1.8,9.6-1.8c49.2,0,98.5,0,147.7,0   c1.4,0,2.9,0,4.3,0c0.1-1.2,0.3-2.2,0.4-3.2c-0.5-0.5,1.8-1.6-0.4-1.8c-0.9-0.1-1.7-0.3-2.6-0.3c-39.4,0-78.8,0-118.2-0.1   c-1-0.2-1.9-0.3-2.9-0.5c-1.5-1.1-3-2.1-4.4-3.2c-0.3-0.5-0.6-0.9-0.9-1.4c-0.2-2.3-0.3-4.5-0.5-6.8c0-11,0-21.9,0.1-32.9   c0-1.4,0.3-2.9,0.5-4.3c1.9-2.2,4.1-4,7.2-4.1c0.6,0,1.2,0,1.8,0c0.5,0,1.1,0.1,1.6,0.1c41.8,0,83.5,0,125.3,0c0.4,0,0.9,0,1.6,0   c0.3-1.7,0.6-3.3,0.9-5c-0.3-0.2-0.6-0.5-0.9-0.7c-0.9,0-1.8-0.1-2.7-0.1c-30.3,0-60.7-0.1-91-0.1c-3.4,0-7.4-3.6-7.5-7.1   c-0.1-12.6,0-25.3,0-37.9c0-3.7,2.8-6.9,6.4-7.6c2.3-0.4,4.8-0.6,7.1-0.6c30.6,0,61.3,0,91.9,0c1.5,0,3,0,4.7,0   c0.1-1.5,0.3-3,0.4-4.4c-0.6-0.3-1.2-0.6-1.7-0.8c-21.1-0.1-42.2-0.1-63.3-0.2c-4.6,0-8.8-4.2-8.8-8.8c0-9.8,0-19.5-0.1-29.3   c0-0.6,0-1.2,0-1.8c0.1-1.7,0.1-3.5,0.3-5.2c0.5-5,3.4-7.8,8.3-8.1c2.4-0.1,4.8-0.3,7.3-0.4c19.2,0,38.5,0,57.7,0.1   c0.8,0,1.5,0,2.3,0c0.3,0,0.6,0,0.9-0.1c1.2,0,2.4,0,3.6,0c2.1-0.5,2.6-2,2-5.4c-0.7,0-1.3,0.1-2,0.1c-9-0.1-17.9-0.1-26.9-0.2   c-3.4,0-6.9,0-10.3,0.1c-2.3-1.2-4.6-2.4-5.7-5c-0.3-1.9-0.8-3.8-0.8-5.6c0-11.2,0-22.4,0-33.6c0-3.6,2.2-7.4,5.5-8.3   c2.1-0.6,4.3-0.8,6.4-0.8c12.6-0.1,25.3,0,37.9,0c1.6,0,3.1,0,5.2,0c-2.6,17.6-5.1,34.7-7.6,52c4.5,0,8.9,0,13.3,0   c0.6-4.4,1.3-8.7,1.9-13.1c0.5,0,1.2,0,1.9,0c29.7,0,59.3,0,89,0c0.4,0,0.8,0,1.1,0c1.2-0.1,1.7,0.4,1.8,1.7   c0.3,3.3,0.8,6.6,1.4,9.9c0.1,0.6,1.1,1.6,1.7,1.6c3.8,0.1,7.5,0.1,11.7,0.1c-2.6-17.5-5.1-34.7-7.6-52c0.7-0.1,1.1-0.2,1.5-0.2   c14.3,0,28.6,0,42.9,0.1c1,0,2,0.1,2.9,0.3c4.2,0.7,7.2,2.8,7.9,7.1c0.5,3.2,0.5,6.5,0.5,9.7c0,9.2,0,18.5-0.3,27.7   c-0.2,5.2-4.1,8.5-8.4,8.6c-11.5,0.2-23,0-34.5,0c-1.1,0-2.2,0-3.4,0c0,1.4,0.1,2.4,0,3.5c-0.1,1.5,0.4,2.2,2,2.1   c2.2-0.1,4.4,0,6.6,0c20.8,0,41.6-0.1,62.4,0.1c3.1,0,6.4-0.4,9,2.4c2.4,2.6,3,5.6,3,8.9c0.1,9.2,0.1,18.3,0,27.5   c0,2.3-0.2,4.6-0.4,6.9c-0.5,4.2-4.7,7.7-8.8,7.7c-18.7,0-37.4,0-56.1,0c-3,0-6,0-9.3,0c0.3,1.9,0.5,3.5,0.8,5.4c2.5,0,4.8,0,7,0   c30.7,0,61.4,0,92.2,0C434.6,283.4,437,285.3,439.2,291.6z M199.1,282.5c0.3,0.3,0.5,0.6,0.8,0.9c4.9,0,9.8,0,14.7,0   c32.1,0,64.1,0,96.2,0c1.3,0,2.5-0.5,1.9-1.5c-0.7-1.3,1.1-3.9-2.2-3.9c-33.6,0.1-67.2,0-100.7,0c-3.4,0-6.8,0-10.2,0   C199.4,279.7,199.2,281.1,199.1,282.5z M327,381.2c0.9-0.2,1.3,0,1.4,1.1c0.6,4.1,1.3,8.1,2,12.4c4.1,0,8.1,0,12.1-0.1   c0.3,0,1-1,0.9-1.6c-0.2-1.8-0.7-3.7-0.9-5.5c-0.8-6.1-1.5-12.2-2.3-18.3c-1.1-8.1-2.4-16.2-3.7-24.4c-0.1-0.5-0.7-1.3-1.1-1.3   c-4.1-0.1-8.3-0.1-12.7-0.1c0.8,4.7,1.5,8.9,2.2,13.3c-46.2,0-91.9,0-138.1,0c0.6-4.4,1.2-8.7,1.9-13c-4.1,0-8.4,0-13,0   c-2.7,17-5.2,33.9-7.5,50.7c4.9,0,9.1,0,13.3,0c0.5-3.7,1.2-7.2,1.4-10.7c0.1-2.4,1.3-2.7,3.3-2.7c43.5,0,87,0,130.5,0   c3.3,0,6.5,0.1,9.8,0.1C326.7,381.2,326.8,381.2,327,381.2z M197.2,284.4c-3.8,0-7.3,0.1-10.9,0c-1.4,0-2.1,0.4-2.3,1.8   c-0.4,3.4-0.9,6.8-1.4,10.1c-0.4,2.5-1,4.9-1.4,7.4c-0.8,5.6-1.4,11.1-2.2,16.7c-0.7,5-1.5,10.1-2.3,15.2c4.4,0,8.7,0,13.3,0   c0.4-3.4,1.1-6.8,1.2-10.2c0.1-2.2,0.5-3,2.9-3c41.2,0.1,82.3,0,123.5,0c0.7,0,1.4,0,2.4,0c0.4,3.6,0.8,7.1,1.1,10.7   c0.1,1.2,0,2.5,1.5,2.5c4,0.1,8,0,12.5,0c-2.6-17.3-5.1-34.2-7.6-51.2c-4.7,0-9.2,0-13.4,0c0.5,3.5,1.3,6.9,1.5,10.4   c0.2,3.1,0,3.1-3.1,3.1c-38.3,0-76.6,0-114.9,0c-0.6,0-1.2-0.1-2-0.2C196.2,293.3,196.7,289,197.2,284.4z M326.1,277.1   c-0.2-1.4-0.4-2.4-0.5-3.5c-0.6-5.5-1.2-10.9-1.9-16.4c-0.8-5.7-1.8-11.4-2.6-17.1c-0.6-4.2-1.2-8.4-1.9-12.5   c-0.1-0.7-1-1.7-1.6-1.7c-4-0.2-7.9-0.1-11.9-0.1c0.6,4.5,1.1,8.7,1.6,12.8c-34.5,0-68.9,0-103.2,0c0.7-4.4,1.3-8.5,2-12.8   c-4.4,0-8.2,0-12.1,0.1c-0.5,0-1.3,0.7-1.4,1.2c-0.4,2.4-0.6,4.8-1,7.2c-0.6,3.9-1.2,7.9-1.8,11.8c-0.4,2.6-1,5.2-1.4,7.8   c-0.8,5.2-1.4,10.4-2.2,15.6c-0.3,2.5-0.7,4.9-1.1,7.4c4.4,0,8.7,0,13.2,0c0.6-4,1.3-7.9,1.7-11.8c0.2-1.5,0.7-2,2.1-2   c0.8,0,1.5,0,2.3,0c33,0,66,0,99,0c2,0,3.9-0.1,5.9,0c0.7,0.1,1.9,0.7,2,1.3c0.4,1.7,0.4,3.5,0.6,5.3c0.3,2,0.5,4,1,5.9   c0.1,0.6,1.2,1.3,1.8,1.3C318.5,277.2,322.1,277.1,326.1,277.1z M329.1,395.7c-2.1,0-4.1,0-6,0c-46.1,0-92.1,0-138.2,0   c-3,0-3.8,0.8-3.6,4c0.1,2.4,2.2,1.4,3.3,1.4c46.7,0.1,93.3,0,140,0c1.8,0,3.6,0,5.7,0C329.9,399.2,329.5,397.6,329.1,395.7z    M321.4,342.4c0.4-5.5,0.1-5.8-4.9-5.8c-13.8,0-27.7,0-41.5,0c-26.7,0-53.4,0-80.1-0.1c-4.6,0-4.6,0-4.5,4.6c0,0.4,0.1,0.8,0.1,1.3   C234.2,342.4,277.7,342.4,321.4,342.4z M303.8,218.9c-2.3,0-4.4,0-6.5,0c-27.4,0-54.8,0-82.2,0c-1.8,0-3.6,0-5.4,0   c-0.5,0-1.3,0.4-1.4,0.7c-0.5,1.5-0.7,3.1-1.1,4.8c32.3,0,64.5,0,96.7,0C303.8,222.6,303.8,221,303.8,218.9z" fill="#ffffff"/>
	<path d="M322.9,132.7c-0.2,1.7-0.3,3.4-0.5,5c-0.4,2.4-3.4,4.8-6.3,5c-1.5,0-3,0-4.5,0c-0.3,0-0.6-0.1-0.9-0.1   c-36.7,0-73.3,0-110,0c-1.5,0-3,0-4.5,0c-0.6,0-1.2-0.1-1.8-0.1c-0.3-0.2-0.6-0.4-1-0.5c-2.1-1.5-3.7-3.3-3.7-6.1   c0-16.9-0.2-33.9-0.2-50.8c0-4,0-8,0.2-12c0.2-3,2.3-4.9,5.3-5.4c1.3-0.2,2.7-0.3,4.1-0.3c19.6,0,39.2,0,58.8,0   c1.8,0,2.5-0.2,2.5-2.4c0-3.1-0.1-6.7,3.5-8.4c1.4-0.7,3.1-1.1,4.7-1.1c8.7-0.1,17.4-0.1,26.1,0c5.9,0.1,9,2.8,8.7,8.8   c0,0.8,0.3,1.7,0.5,2.6c-0.1,0.2-0.1,0.4-0.2,0.7c0.2,0,0.4,0,0.6,0c3.5,0,7.1-0.1,10.6,0c4.4,0.1,6.9,2.6,8,6.7   c0,19.1,0,38.3,0,57.4C322.8,132,322.9,132.4,322.9,132.7z" fill="#ffffff"/>
	<path d="M337.5,444.6c0.6,3.8,1.3,7.7,2,11.7c-1.6,0-2.8,0-4,0c-53.2,0-106.5,0-159.7,0c-0.9,0-1.8,0.1-2.7,0.1   c-0.3-0.2-0.6-0.3-1-0.5c0.5-2.8,1-5.6,1.4-8.4c0.4-2.2,0.7-4.5,1.2-7.3c1.5,0,3.2,0,4.9,0c51.8,0,103.6,0,155.4-0.1   c3.1,0,2.3,1.9,2.6,3.6C337.5,444,337.5,444.3,337.5,444.6z" fill="#ffffff"/>
	<path d="M301.4,199.5c-30.6,0-61.1,0-91.4,0c0.6-4.9,1.2-9.5,1.8-14.4c0.8-0.1,1.7-0.2,2.6-0.2c27.5,0,55.1,0,82.6,0   c1.8,0,2.5,0.6,2.8,2.3c0.6,3.8,1.2,7.6,1.8,11.4C301.6,199,301.5,199.3,301.4,199.5z" fill="#ffffff"/>
	<path d="M214.3,168.6c0-0.8,0.1-1.5,0.1-2.6c1.1-0.1,2.3-0.4,3.4-0.4c25.4,0,50.8,0,76.2,0c2.9,0,3.1,0.4,3.4,3.2   c0.3,3.1,0.8,6.2,1.4,9.2c0.3,1.4-0.1,2.1-1.5,2.2c-0.8,0.1-1.7,0.1-2.5,0.1c-26.5,0-52.9,0-79.4,0c-0.2,0-0.4,0.1-0.7,0.1   c-0.4-0.1-0.8-0.2-1.2-0.2c-0.2-0.1-0.4-0.1-0.6-0.2l-0.2,0l-0.2,0c0.4-3,0.9-6,1.3-9C214.1,170.1,214.2,169.4,214.3,168.6z" fill="#ffffff"/>
	<path d="M336,432.9c0,0.7,0.1,1.5,0.1,2.2c-0.2,0-0.3,0-0.5,0.1c-0.3,0-0.6,0-0.9,0c-0.5,0-0.9,0-1.4,0c-0.9,0-1.8-0.1-2.7-0.1   c-50.8,0-101.5,0-152.3,0c-1.1,0-2.2,0-2.9,0c0.4-4.1,1-8,1.2-11.9c0.1-1.9,0.7-2.7,2.7-2.7c51.2,0,102.4,0,153.6,0   c0.4,0,0.7,0,1.1,0c0.6,3.6,1.1,7,1.6,10.4C335.8,431.6,335.9,432.2,336,432.9z" fill="#ffffff"/>
	<path d="M327.5,376.4c-2.2,0-4.1,0-6,0c-45,0-90,0-135.1,0c-2.7,0-2.7-0.1-2.1-2.9c0.6-3.3,1.1-6.6,1.4-9.9   c0.2-1.6,0.8-2.2,2.4-2.2c5.8,0,11.7,0,17.5,0c39.2,0,78.4,0,117.6,0c1.4,0,2.6,0.2,2.8,1.8C326.5,367.5,326.9,371.9,327.5,376.4z" fill="#ffffff"/>
	<path d="M317,302.8c0.7,5,1.4,9.5,2.1,14.3c-41.9,0-83.9,0-126.2,0c0.6-4.8,1.2-9.5,1.8-14.3C235.4,302.8,276.2,302.8,317,302.8z" fill="#ffffff"/>
	<path d="M310.3,258.4c-36.4,0-72.4,0-109,0c0.8-4.8,1.5-9.5,2.4-14.1c0.1-0.3,1-0.7,1.6-0.7c2.6-0.1,5.1,0,7.7,0   c30.8,0,61.6,0,92.3,0c3,0,2.8,0.1,3.1,3c0.3,3.1,1,6.2,1.5,9.4C310.2,256.7,310.2,257.4,310.3,258.4z" fill="#ffffff"/>
</g>
</svg>