<svg xmlns="http://www.w3.org/2000/svg" xmlns:xlink="http://www.w3.org/1999/xlink" version="1.1" id="Layer_1" x="0px" y="0px" style="enable-background:new 0 0 512 512;" xml:space="preserve" viewBox="0 95.58 512 320.92">
<style type="text/css">
	.st0{fill:#F23E94;}
	.st1{fill:#6927DA;}
	.st2{fill:#1570EF;}
	.st3{fill:#22CCEE;}
</style>
<g>
	<path class="st0" d="M412.2,416.5H482c16.5,0,29.9-13.4,30-29.9c0-16.5-13.4-29.9-30-29.9h-69.9c-16.5,0-30,13.4-30,29.9   C382.2,403.1,395.6,416.5,412.2,416.5L412.2,416.5z M99.8,416.5H30c-16.5,0-29.9-13.4-30-29.9c0-16.5,13.4-29.9,30-29.9h69.9   c16.5-0.6,30.4,12.3,31,28.8s-12.3,30.4-28.8,31C101.3,416.5,100.5,416.5,99.8,416.5z M284.2,416.3h-56.9   c-16.5,0.6-30.4-12.3-31-28.8c-0.6-16.5,12.3-30.4,28.8-31c0.7,0,1.5,0,2.2,0h56.9c16.5-0.6,30.4,12.3,31,28.8s-12.3,30.4-28.8,31   C285.7,416.3,285,416.3,284.2,416.3z"/>
	<path class="st1" d="M385,330.3h67.3c16.5,0.6,30.4-12.3,31-28.8c0.6-16.5-12.3-30.4-28.8-31c-0.7,0-1.5,0-2.2,0H385   c-16.5-0.6-30.4,12.3-31,28.8c-0.6,16.5,12.3,30.4,28.8,31C383.6,330.3,384.3,330.3,385,330.3z M125.8,330.3H58.6   c-16.5,0.6-30.4-12.3-31-28.8c-0.6-16.5,12.3-30.4,28.8-31c0.7,0,1.5,0,2.2,0h67.3c16.5-0.6,30.4,12.3,31,28.8   c0.6,16.5-12.3,30.4-28.8,31C127.3,330.3,126.6,330.3,125.8,330.3L125.8,330.3z M305.9,330.1H205.8c-16.5,0-29.9-13.4-30-29.9   c0-16.5,13.4-29.9,30-29.9h100.1c16.5,0.6,29.4,14.5,28.8,31C334.1,317,321.5,329.5,305.9,330.1L305.9,330.1z"/>
	<path class="st2" d="M302.9,241.6h119.5c16.5,0.6,30.4-12.3,31-28.8c0.6-16.5-12.3-30.4-28.8-31c-0.7,0-1.5,0-2.2,0H302.9   c-16.5-0.6-30.4,12.3-31,28.8c-0.6,16.5,12.3,30.4,28.8,31C301.5,241.6,302.2,241.6,302.9,241.6z M216.1,241.6H88.4   c-16.5,0.6-30.4-12.3-31-28.8c-0.6-16.5,12.3-30.4,28.8-31c0.7,0,1.5,0,2.2,0h127.7c16.5-0.6,30.4,12.3,31,28.8   c0.6,16.5-12.3,30.4-28.8,31C217.5,241.6,216.8,241.6,216.1,241.6z"/>
	<path class="st3" d="M393.7,155.4h-67.4c-16.5,0-29.9-13.4-30-29.9c0-16.5,13.4-29.9,30-29.9h67.4c16.5-0.6,30.4,12.3,31,28.8   c0.6,16.5-12.3,30.4-28.8,31C395.2,155.4,394.5,155.4,393.7,155.4z M184.4,155.4H117c-16.5,0.6-30.4-12.3-31-28.8   c-0.6-16.5,12.3-30.4,28.8-31c0.7,0,1.5,0,2.2,0h67.4c16.5-0.6,30.4,12.3,31,28.8c0.6,16.5-12.3,30.4-28.8,31   C185.9,155.4,185.1,155.4,184.4,155.4L184.4,155.4z"/>
</g>
</svg>