<svg height="60" preserveAspectRatio="xMidYMid meet" viewBox="0 0 45 45" width="60" xmlns="http://www.w3.org/2000/svg"><g fill="#e58325" transform="matrix(.00666404 0 0 -.00666404 -1.048555 45.590899)"><path d="m4948 6348c-662-677-956-982-1123-1168-32-36-62-67-65-70s-31-35-62-71c-127-151-157-391-77-600 26-68 117-233 137-249 4-3 25-25 47-48l40-42-1679-1679-1678-1678 244-246 243-247 1200 1200 1199 1199 1192-1192c656-655 1197-1193 1202-1195 10-3 473 459 480 478 2 5-534 547-1191 1204l-1194 1195 185 183c250 248 262 258 296 258 11 0 41-19 66-43 139-131 331-199 538-190 160 6 273 63 475 236 132 114 199 179 845 822l642 640-161 163c-88 90-162 162-164 160-3-1-256-254-564-561l-560-559-160 158c-89 87-161 162-161 165 0 4 251 259 559 567l558 560-159 161c-87 89-161 161-164 161s-258-252-566-559l-560-560-164 162-164 162 560 560c308 308 560 563 560 566 0 5-194 202-292 297l-34 32z"/><path d="m489 6349c-108-115-190-257-254-440-20-57-35-104-34-104s-3-22-9-50c-42-181-46-400-11-568 72-343 178-493 781-1102 199-202 1018-1020 1054-1055 6-5 974 962 974 973 0 9-1704 1713-2130 2130-156 152-291 277-299 277-9 0-41-27-72-61z"/></g></svg>