<?xml version="1.0" encoding="utf-8"?>
<!-- Generator: Adobe Illustrator 27.7.0, SVG Export Plug-In . SVG Version: 6.00 Build 0)  -->
<svg version="1.1" id="Layer_1" xmlns="http://www.w3.org/2000/svg" xmlns:xlink="http://www.w3.org/1999/xlink" x="0px" y="0px"
	 viewBox="0 0 512 512" style="enable-background:new 0 0 512 512;" xml:space="preserve">
<style type="text/css">
	.st0{clip-path:url(#SVGID_00000103948742682014510260000008904442494346400416_);}
	.st1{fill:#17CD8C;}
</style>
<g>
	<g>
		<defs>
			<rect id="SVGID_1_" y="9.5" width="512" height="493.1"/>
		</defs>
		<clipPath id="SVGID_00000023972855899155095260000005936966956080237754_">
			<use xlink:href="#SVGID_1_"  style="overflow:visible;"/>
		</clipPath>
		<g style="clip-path:url(#SVGID_00000023972855899155095260000005936966956080237754_);">
			<path class="st1" d="M307.5,499.4c7,4.1,15.6,4.2,22.7,0.3l156-84.5c15.3-7.5,25.2-22.9,25.8-39.9v-93.7
				c-0.2-5.8-3.4-11.2-8.5-14l-8.2-4.9l-0.5-0.3c10.6-8.2,17-20.8,17.3-34.2v-93.9c-0.1-5.9-3.4-11.3-8.5-14.1L462,94.9
				c-6.9-4-15.4-4.2-22.5-0.5l-47.7,25.8V52c-0.1-5.9-3.3-11.3-8.5-14.1l-41.4-25.1c-7-4.1-15.6-4.2-22.7-0.3L25.8,170.5
				c-15.3,7.6-25.3,23-25.8,40.1v93.7c0.1,5.9,3.4,11.3,8.5,14.1L50,343.8c7,4.1,15.5,4.3,22.7,0.5l56.2-30.4v68.4
				c0.2,5.9,3.5,11.2,8.7,14l41.4,25.5c3.5,2,7.6,3.1,11.5,3c3.9,0,7.7-0.8,11-2.6l56-30.4v68.2c0.1,5.9,3.4,11.3,8.5,14.1
				L307.5,499.4z M44.5,236.1c0-15.3,9.2-29.1,24.3-37.5L347.3,48.4v72.2c-0.5,14.6-8.3,27.9-20.9,35.3l-171.9,92.7l-3.3,2
				L44.4,308.1v-71.8L44.5,236.1z M173.4,313.9c0-14,7.9-27.1,21.4-35.5l171.4-92.7c1.2-0.5,2.3-1.3,3.3-2l98.3-53.1v72.3
				c0,15.1-9.2,28.9-24.3,37.1l-0.5,0.3l-3.5,1.5l-156,84.5c-1.5,0.7-2.8,1.6-4.1,2.5L173.6,386v-72.2L173.4,313.9z M302.1,391.8
				c0-13.6,7.4-26.3,20.2-34.8l145.1-78.6v71.8c0,15.1-9,29.1-24.3,37.3l-141.2,76.4v-72.2L302.1,391.8z"/>
		</g>
	</g>
</g>
</svg>
