<?xml version="1.0" encoding="utf-8"?>
<!-- Generator: Adobe Illustrator 27.7.0, SVG Export Plug-In . SVG Version: 6.00 Build 0)  -->
<svg version="1.1" id="Layer_1" xmlns="http://www.w3.org/2000/svg" xmlns:xlink="http://www.w3.org/1999/xlink" x="0px" y="0px"
	 viewBox="0 0 512 512" style="enable-background:new 0 0 512 512;" xml:space="preserve">
<style type="text/css">
	.st0{fill:url(#SVGID_1_);}
	.st1{fill:#FFFFFF;}
</style>
<linearGradient id="SVGID_1_" gradientUnits="userSpaceOnUse" x1="256" y1="512" x2="256" y2="-9.094947e-13">
	<stop  offset="0" style="stop-color:#9A4DF8"/>
	<stop  offset="0.2367" style="stop-color:#934FF8"/>
	<stop  offset="1" style="stop-color:#8155F9"/>
</linearGradient>
<path class="st0" d="M412,512H100C44.8,512,0,467.2,0,412V100C0,44.8,44.8,0,100,0h312c55.2,0,100,44.8,100,100v312
	C512,467.2,467.2,512,412,512z"/>
<g>
	<path class="st1" d="M195.6,183.7c33.1,19.2,60.5,34.7,60.8,34.6c0.3-0.1,27.6-15.7,60.5-34.8c54.3-31.5,60.3-34.7,64.4-34.8
		c3.9,0,7.3,1.6,30,14.7c14.1,8.1,27.1,16.1,29,17.9l3.4,3l0.3,67.7c0.2,65.7,0.2,67.7-1.7,70.8c-1.1,1.8-2.9,3.8-4.2,4.6
		c-1.3,0.8-41.8,9-90.1,18.3c-48.3,9.2-88.6,17.1-89.4,17.4c-4.6,1.7,5-4,59.7-35.6c47.6-27.5,60-35,61.3-37.4
		c1.7-2.8,1.8-5.8,1.6-37.1l-0.3-34.1L345,239.7c-86.8,50.1-84.8,49-88.9,49c-3.4,0-12.5-4.9-64.4-34.9L131.2,219l-0.3,34
		c-0.2,31.5-0.1,34.3,1.6,37.2c1.4,2.5,13.9,10,61.3,37.4c54.8,31.6,64.3,37.3,59.6,35.6c-0.9-0.3-41.2-8.2-89.4-17.4
		c-68.3-13.2-88.4-17.3-90.5-18.9c-5.7-4-5.6-2.8-5.6-74.2c0-63.4,0.1-65.8,2-68.8c1-1.8,3.5-4.2,5.6-5.6c5.4-3.4,48.2-28,50.7-29.1
		C131.3,147,134.8,148.7,195.6,183.7z"/>
</g>
</svg>
