<?xml version="1.0" encoding="UTF-8" standalone="no"?>
<svg xmlns:rdf="http://www.w3.org/1999/02/22-rdf-syntax-ns#" xmlns="http://www.w3.org/2000/svg" xmlns:osb="http://www.openswatchbook.org/uri/2009/osb" height="660" width="660" version="1.0" xmlns:cc="http://creativecommons.org/ns#" xmlns:xlink="http://www.w3.org/1999/xlink" xmlns:dc="http://purl.org/dc/elements/1.1/">
 <defs>
  <linearGradient id="a" gradientUnits="userSpaceOnUse" gradientTransform="matrix(14.087 1.3386 1.3386 -14.087 95.942 410.68)">
   <stop stop-color="#bdbcbc" offset="0"/>
   <stop stop-color="#5a5758" offset="1"/>
  </linearGradient>
  <linearGradient id="d" gradientUnits="userSpaceOnUse" gradientTransform="matrix(450.65 0 0 450.65 805.45 182.95)">
   <stop stop-color="#fff" offset="0"/>
   <stop stop-color="#d7e2eb" offset="1"/>
  </linearGradient>
  <linearGradient id="c" gradientUnits="userSpaceOnUse" gradientTransform="matrix(453.64 0 0 453.64 827.78 308.43)">
   <stop stop-color="#fff" offset="0"/>
   <stop stop-color="#d2e2f0" offset="1"/>
  </linearGradient>
  <linearGradient id="b" xlink:href="#a" gradientUnits="userSpaceOnUse" gradientTransform="matrix(12.124 -1.1521 1.1521 12.124 815.7 249.3)"/>
  <filter id="g" style="color-interpolation-filters:sRGB">
   <feGaussianBlur stdDeviation="5.8118586"/>
  </filter>
  <linearGradient id="f" xlink:href="#a" gradientUnits="userSpaceOnUse" gradientTransform="matrix(12.124 -1.1521 1.1521 12.124 834.72 342.95)"/>
  <linearGradient id="e" xlink:href="#a" gradientUnits="userSpaceOnUse" gradientTransform="matrix(12.124 -1.1521 1.1521 12.124 873.4 342.95)"/>
 </defs>
 <g transform="translate(-742.67 -55.574)">
  <g>
   <path d="m1236.5 64.63c-105.5 41.311-209.24 86.949-313.84 130.44-36.728 15.368-73.539 30.504-110.19 46.062l42.5 456.31c0.5238 5.5175 5.3524 9.5462 10.781 9.0312l458.28-43.531c5.4287-0.51503 9.3976-5.3888 8.875-10.906l-36.656-385.88c-1.2728-7.7898-12.566-12.216-19.438-10.75-131.16 14.285-262.52 26.774-393.84 39.5 126.86-52.417 253.73-104.83 380.59-157.25l-27.062-73.031z" filter="url(#g)" fill="#231f20"/>
   <path d="m1278.5 253.32-422.38 40.131-15.355 6.4062-2.6625-4.6925-17.891 1.6988c-5.4288 0.515-9.4 5.4037-8.8763 10.921l36.662 385.86c0.5238 5.5175 5.345 9.5687 10.774 9.0537l458.29-43.546c5.4287-0.515 9.4012-5.4013 8.8787-10.919l-36.664-385.86c-0.5238-5.5175-5.3475-9.5675-10.776-9.0525" fill="#231f20"/>
   <path d="m863.95 296.09 392.61-162.23 3.75-11.25-446.83 119.04 32.454 56.144 2.665 4.7125 15.352-6.4237z" fill="#5a5758"/>
  </g>
  <path fill="url(#d)" d="m855.92 291.77 400.18-167.42-45.43-56.648-405.22 169.64 32.455 56.142 2.6637 4.7125 15.354-6.4238z"/>
  <path fill="url(#c)" d="m1281.4 251.34-440.52 43.206 13.388 65.802 421.41-35.705z"/>
  <path d="m1319.2 633.46c0.4272 4.7251-3.0001 8.9109-7.6582 9.3458l-424.39 39.802c-4.6545 0.43875-8.7769-3.0407-9.2052-7.7645l-26.48-293.75c-0.42964-4.7264 2.9988-8.9109 7.6558-9.3471l424.39-39.802c4.6569-0.43744 8.7769 3.0395 9.2052 7.7658l26.576 293.74z" stroke="#231f20" stroke-width="2.6223" fill="none"/>
  <path d="m1229.5 60.84-26.156 9.75 45.344 57.094 12.062-5.1562zm-67.812 26.844-59 25.281 45.375 57.125 59-25.312zm-111.94 46.156-59.031 25.312 45.375 57.094 59.031-25.281zm-108.12 46.25-59.031 25.281 45.375 57.125 59.031-25.312zm-134.93 60.787 23.082 121.98 73.513-4.0744-0.11347-26.994-69.164-94.113-5.1246-3.6238-19.769 2.3493zm475.56 13.713-13.438 71.688 13.062-1.0625 4.2188-69.25zm-62.031 2.5625-62.875 5.9688-13.5 76.031 62.406-7.0312zm-104.75 10.656-62.531 5.25-13.312 73.469 63.25-2.0625zm-113.62 10.781-62.437 6.0938-13.375 72.625 62.438-3.875z" fill="#231f20"/>
  <path fill="url(#b)" d="m821.81 242.64c-0.20574-0.001-0.41471 0.001-0.62402 0.0215-2.721 0.25873-4.846 2.2768-5.3792 4.8198-0.041 0.19541-0.0859 0.37983-0.10755 0.58095-0.0454 0.40914-0.0404 0.82234 0 1.248 0.0199 0.20914 0.046 0.40074 0.0861 0.60247 0.0406 0.20884 0.0897 0.40252 0.15058 0.60247 0.0592 0.1934 0.13812 0.37529 0.21517 0.55944 0.003 0.006-0.003 0.0155 0 0.0215 0.0751 0.17766 0.14597 0.34826 0.23672 0.5164 0.3756 0.70326 0.88036 1.3068 1.4846 1.8074 0.59923 0.4965 1.2908 0.88076 2.0441 1.1189 0.006 0.002 0.0152-0.002 0.0215 0 0.18205 0.0569 0.37105 0.11096 0.55943 0.15061 0.39047 0.0822 0.79361 0.12628 1.2049 0.12911 0.20567 0.001 0.41478-0.001 0.62402-0.0215 0.42772-0.0407 0.83175-0.13527 1.2264-0.2582 0.19348-0.0591 0.37525-0.11654 0.55944-0.19365 0.36843-0.1546 0.70699-0.33954 1.0328-0.55943 0.25077-0.16918 0.48838-0.35631 0.71009-0.55944 0.0664-0.0609 0.12999-0.12995 0.19361-0.19365 0.21841-0.21697 0.41925-0.44141 0.60247-0.68854 0.0487-0.0655 0.10466-0.12614 0.15066-0.19365 0.003-0.005-0.003-0.0164 0-0.0215 0.10933-0.16145 0.20759-0.32327 0.30123-0.49488 0.0936-0.17191 0.18115-0.33547 0.2582-0.51641 0.231-0.54196 0.38689-1.1395 0.45182-1.7428 0.0433-0.40224 0.0397-0.80806 0-1.2265-0.02-0.21044-0.0457-0.42109-0.0861-0.62398-0.0355-0.17896-0.0785-0.34395-0.1291-0.51641-0.006-0.0217-0.0149-0.043-0.0215-0.0645-0.0503-0.16458-0.10879-0.31544-0.17214-0.47337-0.0591-0.14744-0.12373-0.28916-0.19368-0.43033-0.01-0.0201-0.0113-0.0445-0.0215-0.0645-0.0213-0.0419-0.0424-0.0877-0.0646-0.1291-0.0666-0.12352-0.14046-0.24778-0.21517-0.36579-0.0978-0.15468-0.21186-0.3073-0.32271-0.45185-0.28093-0.36814-0.59201-0.69589-0.94674-0.98977-0.13413-0.11112-0.26557-0.22344-0.40885-0.32275-0.0642-0.0445-0.12766-0.087-0.19362-0.1291-0.0136-0.009-0.0294-0.0129-0.043-0.0215-0.14163-0.0887-0.30303-0.18122-0.45189-0.2582-0.014-0.007-0.0289-0.0144-0.043-0.0215-0.23782-0.1207-0.47771-0.21233-0.73157-0.30123-0.0598-0.021-0.11147-0.0454-0.17213-0.0645-0.1919-0.0607-0.3818-0.10908-0.58092-0.15061-0.15362-0.0322-0.31618-0.0658-0.47337-0.0861-0.23796-0.0301-0.48686-0.0414-0.73157-0.043z"/>
  <path fill="url(#f)" d="m840.83 336.29c-0.20574-0.001-0.41471 0.001-0.62402 0.0215-2.721 0.25873-4.846 2.2768-5.3792 4.8198-0.041 0.19541-0.0859 0.37983-0.10755 0.58095-0.0454 0.40914-0.0404 0.82234 0 1.248 0.0199 0.20914 0.046 0.40074 0.0861 0.60247 0.0406 0.20884 0.0897 0.40252 0.15058 0.60247 0.0592 0.1934 0.13812 0.37529 0.21517 0.55944 0.003 0.006-0.003 0.0155 0 0.0215 0.0751 0.17766 0.14597 0.34826 0.23672 0.5164 0.3756 0.70326 0.88036 1.3068 1.4846 1.8074 0.59923 0.4965 1.2908 0.88076 2.0441 1.1189 0.006 0.002 0.0152-0.002 0.0215 0 0.18205 0.0569 0.37105 0.11096 0.55943 0.15061 0.39047 0.0822 0.79361 0.12628 1.2049 0.12911 0.20567 0.001 0.41478-0.001 0.62402-0.0215 0.42772-0.0407 0.83175-0.13527 1.2264-0.2582 0.19348-0.0591 0.37525-0.11654 0.55944-0.19365 0.36843-0.1546 0.70699-0.33954 1.0328-0.55943 0.25077-0.16918 0.48838-0.35631 0.71009-0.55944 0.0664-0.0609 0.12999-0.12995 0.19361-0.19365 0.21841-0.21697 0.41925-0.44141 0.60247-0.68854 0.0487-0.0655 0.10466-0.12614 0.15066-0.19365 0.003-0.005-0.003-0.0164 0-0.0215 0.10933-0.16145 0.20759-0.32327 0.30123-0.49488 0.0936-0.17191 0.18115-0.33547 0.2582-0.51641 0.231-0.54196 0.38689-1.1395 0.45182-1.7428 0.0433-0.40224 0.0397-0.80806 0-1.2265-0.02-0.21044-0.0457-0.42109-0.0861-0.62398-0.0355-0.17896-0.0785-0.34395-0.1291-0.51641-0.006-0.0217-0.0149-0.043-0.0215-0.0645-0.0503-0.16458-0.10879-0.31544-0.17214-0.47337-0.0591-0.14744-0.12373-0.28916-0.19368-0.43033-0.01-0.0201-0.0113-0.0445-0.0215-0.0645-0.0213-0.0419-0.0424-0.0877-0.0646-0.1291-0.0666-0.12352-0.14046-0.24778-0.21517-0.36579-0.0978-0.15468-0.21186-0.3073-0.32271-0.45185-0.28093-0.36814-0.59201-0.69589-0.94674-0.98977-0.13413-0.11112-0.26557-0.22344-0.40885-0.32275-0.0642-0.0445-0.12766-0.087-0.19362-0.1291-0.0136-0.009-0.0294-0.0129-0.043-0.0215-0.14163-0.0887-0.30303-0.18122-0.45189-0.2582-0.014-0.007-0.0289-0.0144-0.043-0.0215-0.23782-0.1207-0.47771-0.21233-0.73157-0.30123-0.0598-0.021-0.11147-0.0454-0.17213-0.0645-0.1919-0.0607-0.3818-0.10908-0.58092-0.15061-0.15362-0.0322-0.31618-0.0658-0.47337-0.0861-0.23796-0.0301-0.48686-0.0414-0.73157-0.043z"/>
  <path fill="url(#e)" d="m879.52 336.29c-0.20574-0.001-0.41471 0.001-0.62402 0.0215-2.721 0.25873-4.846 2.2768-5.3792 4.8198-0.041 0.19541-0.0859 0.37983-0.10755 0.58095-0.0454 0.40914-0.0404 0.82234 0 1.248 0.0199 0.20914 0.046 0.40074 0.0861 0.60247 0.0406 0.20884 0.0897 0.40252 0.15058 0.60247 0.0592 0.1934 0.13812 0.37529 0.21517 0.55944 0.003 0.006-0.003 0.0155 0 0.0215 0.0751 0.17766 0.14597 0.34826 0.23672 0.5164 0.3756 0.70326 0.88036 1.3068 1.4846 1.8074 0.59923 0.4965 1.2908 0.88076 2.0441 1.1189 0.006 0.002 0.0152-0.002 0.0215 0 0.18205 0.0569 0.37105 0.11096 0.55943 0.15061 0.39047 0.0822 0.79361 0.12628 1.2049 0.12911 0.20567 0.001 0.41478-0.001 0.62402-0.0215 0.42772-0.0407 0.83175-0.13527 1.2264-0.2582 0.19348-0.0591 0.37525-0.11654 0.55944-0.19365 0.36843-0.1546 0.70699-0.33954 1.0328-0.55943 0.25077-0.16918 0.48838-0.35631 0.71009-0.55944 0.0664-0.0609 0.12999-0.12995 0.19361-0.19365 0.21841-0.21697 0.41925-0.44141 0.60247-0.68854 0.0487-0.0655 0.10466-0.12614 0.15066-0.19365 0.003-0.005-0.003-0.0164 0-0.0215 0.10933-0.16145 0.20759-0.32327 0.30123-0.49488 0.0936-0.17191 0.18115-0.33547 0.2582-0.51641 0.231-0.54196 0.38689-1.1395 0.45182-1.7428 0.0433-0.40224 0.0397-0.80806 0-1.2265-0.02-0.21044-0.0457-0.42109-0.0861-0.62398-0.0355-0.17896-0.0785-0.34395-0.1291-0.51641-0.006-0.0217-0.0149-0.043-0.0215-0.0645-0.0503-0.16458-0.10879-0.31544-0.17214-0.47337-0.0591-0.14744-0.12373-0.28916-0.19368-0.43033-0.01-0.0201-0.0113-0.0445-0.0215-0.0645-0.0213-0.0419-0.0424-0.0877-0.0646-0.1291-0.0666-0.12352-0.14046-0.24778-0.21517-0.36579-0.0978-0.15468-0.21186-0.3073-0.32271-0.45185-0.28093-0.36814-0.59201-0.69589-0.94674-0.98977-0.13413-0.11112-0.26557-0.22344-0.40885-0.32275-0.0642-0.0445-0.12766-0.087-0.19362-0.1291-0.0136-0.009-0.0294-0.0129-0.043-0.0215-0.14163-0.0887-0.30303-0.18122-0.45189-0.2582-0.014-0.007-0.0289-0.0144-0.043-0.0215-0.23782-0.1207-0.47771-0.21233-0.73157-0.30123-0.0598-0.021-0.11147-0.0454-0.17213-0.0645-0.1919-0.0607-0.3818-0.10908-0.58092-0.15061-0.15362-0.0322-0.31618-0.0658-0.47337-0.0861-0.23796-0.0301-0.48686-0.0414-0.73157-0.043z"/>
 </g>
 <g transform="matrix(.99998 .0065337 -.0065337 .99998 -41.526 -71.345)">
  <text font-family="&apos;Bitstream Vera Sans&apos;" font-weight="bold" xml:space="preserve" transform="rotate(-5.7397)" font-style="oblique" stroke="#000000" line-height="125%" font-size="76.863px" y="653.1615" x="82.7071" stroke-width="1.281" fill="#f0f6fa"><tspan font-family="&apos;Bitstream Vera Sans&apos;" font-weight="bold" font-size="256.21px" font-style="normal" stroke="#000000" y="653.1615" x="82.7071" stroke-width="1.281" fill="#f0f6fa">MV</tspan></text>
 </g>
</svg>
