<svg xmlns="http://www.w3.org/2000/svg" xmlns:xlink="http://www.w3.org/1999/xlink" width="660" height="660" version="1.0"><defs><linearGradient id="a" gradientTransform="matrix(14.087 1.3386 1.3386 -14.087 95.942 410.68)" gradientUnits="userSpaceOnUse"><stop offset="0" stop-color="#bdbcbc"/><stop offset="1" stop-color="#5a5758"/></linearGradient><linearGradient id="c" gradientTransform="translate(805.45 182.95) scale(450.65)" gradientUnits="userSpaceOnUse"><stop offset="0" stop-color="#fff"/><stop offset="1" stop-color="#d7e2eb"/></linearGradient><linearGradient id="d" gradientTransform="translate(827.78 308.43) scale(453.64)" gradientUnits="userSpaceOnUse"><stop offset="0" stop-color="#fff"/><stop offset="1" stop-color="#d2e2f0"/></linearGradient><linearGradient xlink:href="#a" id="e" gradientTransform="rotate(-5.427 3037.114 -8478.654) scale(12.1786)" gradientUnits="userSpaceOnUse"/><linearGradient xlink:href="#a" id="f" gradientTransform="rotate(-5.427 4034.357 -8632.45) scale(12.1786)" gradientUnits="userSpaceOnUse"/><linearGradient xlink:href="#a" id="g" gradientTransform="rotate(-5.427 4053.69 -9040.411) scale(12.1786)" gradientUnits="userSpaceOnUse"/><filter id="b" style="color-interpolation-filters:sRGB"><feGaussianBlur stdDeviation="5.812"/></filter></defs><path fill="#231f20" d="M1236.5 64.63c-105.5 41.311-209.24 86.949-313.84 130.44-36.728 15.368-73.539 30.504-110.19 46.062l42.5 456.31c.524 5.518 5.352 9.546 10.781 9.031l458.28-43.53c5.429-.516 9.398-5.39 8.875-10.907l-36.656-385.88c-1.273-7.79-12.566-12.216-19.438-10.75-131.16 14.285-262.52 26.774-393.84 39.5 126.86-52.417 253.73-104.83 380.59-157.25l-27.062-73.03z" filter="url(#b)" transform="translate(-742.67 -55.574)"/><path fill="#231f20" d="m535.83 197.746-422.38 40.131-15.355 6.406-2.662-4.692-17.891 1.698c-5.43.516-9.4 5.404-8.877 10.922l36.662 385.86c.524 5.517 5.345 9.568 10.774 9.053l458.29-43.546c5.429-.515 9.401-5.401 8.879-10.919L546.606 206.8c-.524-5.517-5.348-9.567-10.776-9.052"/><path fill="#5a5758" d="m121.28 240.516 392.61-162.23 3.75-11.25-446.83 119.04 32.454 56.144 2.665 4.712 15.352-6.423z"/><path fill="url(#c)" d="m855.92 291.77 400.18-167.42-45.43-56.648-405.22 169.64 32.455 56.142 2.664 4.713 15.354-6.424z" transform="translate(-742.67 -55.574)"/><path fill="url(#d)" d="m1281.4 251.34-440.52 43.206 13.388 65.802 421.41-35.705z" transform="translate(-742.67 -55.574)"/><path fill="none" stroke="#231f20" stroke-width="2.622" d="M576.53 577.886c.427 4.725-3 8.91-7.658 9.346l-424.39 39.802c-4.655.439-8.777-3.04-9.205-7.765l-26.48-293.75c-.43-4.726 2.998-8.91 7.655-9.347l424.39-39.802c4.657-.437 8.777 3.04 9.206 7.766l26.576 293.74z"/><path fill="#231f20" d="m486.83 5.266-26.156 9.75 45.344 57.094 12.062-5.156zM419.018 32.11l-59 25.281 45.375 57.125 59-25.312zm-111.94 46.156-59.031 25.312 45.375 57.094 59.031-25.281zm-108.12 46.25-59.031 25.281 45.375 57.125 59.031-25.312zm-134.93 60.787 23.082 121.98 73.513-4.074-.113-26.994-69.164-94.113-5.125-3.624-19.77 2.35zm475.56 13.713-13.438 71.688 13.062-1.063 4.219-69.25zm-62.031 2.563-62.875 5.968-13.5 76.031 62.406-7.03zm-104.75 10.655-62.531 5.25-13.312 73.47 63.25-2.063zm-113.62 10.781-62.437 6.094-13.375 72.625 62.438-3.875z"/><path fill="url(#e)" d="M821.81 242.64a6.087 6.087 0 0 0-.624.021c-2.721.26-4.846 2.277-5.38 4.82-.04.196-.085.38-.107.581-.045.41-.04.823 0 1.248a5.87 5.87 0 0 0 .237 1.205c.06.194.138.375.215.56.003.006-.003.015 0 .021.075.178.146.348.237.517a6.03 6.03 0 0 0 1.484 1.807c.6.496 1.291.88 2.045 1.119.005.002.015-.002.021 0 .182.057.371.11.56.15.39.083.793.127 1.204.13.206 0 .415-.001.624-.022a5.97 5.97 0 0 0 1.227-.258 6.27 6.27 0 0 0 .56-.194 6.109 6.109 0 0 0 1.743-1.119c.065-.06.13-.13.193-.193a6.03 6.03 0 0 0 .602-.689c.049-.065.105-.126.15-.194.004-.005-.002-.016 0-.021.11-.161.208-.323.302-.495s.181-.335.258-.516c.231-.542.387-1.14.452-1.743.043-.402.04-.808 0-1.227a6.23 6.23 0 0 0-.086-.624 5.824 5.824 0 0 0-.13-.516c-.005-.022-.014-.043-.02-.064a5.82 5.82 0 0 0-.173-.474 5.956 5.956 0 0 0-.193-.43c-.01-.02-.012-.045-.022-.065-.021-.042-.042-.087-.065-.129a6.138 6.138 0 0 0-.215-.366 6.229 6.229 0 0 0-.322-.451 5.994 5.994 0 0 0-.947-.99c-.134-.111-.266-.224-.409-.323a6.072 6.072 0 0 0-.194-.129c-.013-.009-.029-.013-.043-.022a6.563 6.563 0 0 0-.452-.258l-.043-.021a5.882 5.882 0 0 0-.731-.301c-.06-.021-.112-.046-.172-.065a5.898 5.898 0 0 0-.581-.15 6.252 6.252 0 0 0-.474-.087 6.21 6.21 0 0 0-.731-.043z" transform="translate(-742.67 -55.574)"/><path fill="url(#f)" d="M840.83 336.29a6.087 6.087 0 0 0-.624.021c-2.721.26-4.846 2.277-5.38 4.82-.04.196-.085.38-.107.581-.045.41-.04.823 0 1.248a5.87 5.87 0 0 0 .237 1.205c.06.194.138.375.215.56.003.006-.003.015 0 .021.075.178.146.348.237.517a6.03 6.03 0 0 0 1.484 1.807c.6.496 1.291.88 2.045 1.119.006.002.015-.002.021 0 .182.057.371.11.56.15.39.083.793.127 1.204.13.206 0 .415-.001.624-.022a5.97 5.97 0 0 0 1.227-.258 6.27 6.27 0 0 0 .56-.194 6.109 6.109 0 0 0 1.743-1.119c.065-.06.13-.13.193-.193a6.03 6.03 0 0 0 .602-.689c.049-.065.105-.126.15-.194.004-.005-.002-.016 0-.021.11-.161.208-.323.302-.495s.181-.335.258-.516c.231-.542.387-1.14.452-1.743.043-.402.04-.808 0-1.227a6.23 6.23 0 0 0-.086-.624 5.824 5.824 0 0 0-.13-.516c-.005-.022-.014-.043-.02-.064a5.82 5.82 0 0 0-.173-.474 5.956 5.956 0 0 0-.193-.43c-.01-.02-.012-.045-.022-.065-.021-.042-.042-.087-.065-.129a6.138 6.138 0 0 0-.215-.366 6.229 6.229 0 0 0-.322-.451 5.994 5.994 0 0 0-.947-.99c-.134-.111-.266-.224-.409-.323a6.072 6.072 0 0 0-.194-.13c-.013-.008-.029-.012-.043-.02a6.563 6.563 0 0 0-.452-.259l-.043-.021a5.882 5.882 0 0 0-.731-.301c-.06-.021-.112-.046-.172-.065a5.898 5.898 0 0 0-.581-.15 6.252 6.252 0 0 0-.474-.087 6.21 6.21 0 0 0-.731-.043z" transform="translate(-742.67 -55.574)"/><path fill="url(#g)" d="M879.52 336.29a6.087 6.087 0 0 0-.624.021c-2.721.26-4.846 2.277-5.38 4.82-.04.196-.085.38-.107.581-.045.41-.04.823 0 1.248a5.87 5.87 0 0 0 .237 1.205c.06.194.138.375.215.56.003.006-.003.015 0 .021.075.178.146.348.237.517a6.03 6.03 0 0 0 1.484 1.807c.6.496 1.291.88 2.045 1.119.006.002.015-.002.021 0 .182.057.371.11.56.15.39.083.793.127 1.204.13.206 0 .415-.001.624-.022a5.97 5.97 0 0 0 1.227-.258 6.27 6.27 0 0 0 .56-.194 6.109 6.109 0 0 0 1.743-1.119c.065-.06.13-.13.193-.193a6.03 6.03 0 0 0 .602-.689c.049-.065.105-.126.15-.194.004-.005-.002-.016 0-.021.11-.161.208-.323.302-.495s.181-.335.258-.516c.231-.542.387-1.14.452-1.743.043-.402.04-.808 0-1.227a6.23 6.23 0 0 0-.086-.624 5.824 5.824 0 0 0-.13-.516c-.005-.022-.014-.043-.02-.064a5.82 5.82 0 0 0-.173-.474 5.956 5.956 0 0 0-.193-.43c-.01-.02-.012-.045-.022-.065-.021-.042-.042-.087-.065-.129a6.138 6.138 0 0 0-.215-.366 6.229 6.229 0 0 0-.322-.451 5.994 5.994 0 0 0-.947-.99c-.134-.111-.266-.224-.409-.323a6.072 6.072 0 0 0-.194-.13c-.013-.008-.029-.012-.043-.02a6.563 6.563 0 0 0-.452-.259l-.043-.021a5.882 5.882 0 0 0-.731-.301c-.06-.021-.112-.046-.172-.065a5.898 5.898 0 0 0-.581-.15 6.252 6.252 0 0 0-.474-.087 6.21 6.21 0 0 0-.731-.043z" transform="translate(-742.67 -55.574)"/><text xml:space="preserve" x="82.707" y="653.162" fill="#f0f6fa" stroke="#000" stroke-width="1.281" font-family="'Bitstream Vera Sans'" font-size="76.863" font-style="oblique" font-weight="bold" transform="rotate(-5.365 -782.083 407.465)"><tspan x="82.707" y="653.162" font-size="256.21" font-style="normal">MV</tspan></text></svg>