<?xml version="1.0" encoding="utf-8"?>
<!-- Generator: Adobe Illustrator 27.7.0, SVG Export Plug-In . SVG Version: 6.00 Build 0)  -->
<svg version="1.1" id="Layer_1" xmlns="http://www.w3.org/2000/svg" xmlns:xlink="http://www.w3.org/1999/xlink" x="0px" y="0px"
	 viewBox="0 0 512 512" style="enable-background:new 0 0 512 512;" xml:space="preserve">
<style type="text/css">
	.st0{fill:#040712;}
</style>
<g>
	<g>
		<path class="st0" d="M433.1,83.1L317.5,16.4c-37.8-21.9-84.2-21.9-122,0L79.4,83.1C42.1,105,18.7,145.5,18.7,188.8v133.9
			c0,43.8,23.4,83.8,60.7,105.7L195,495.6c37.8,21.9,84.2,21.9,122,0l115.6-67.2c37.8-21.9,60.7-61.9,60.7-105.7V188.8
			C494.4,145.5,470.9,105,433.1,83.1z M256.2,375c-65.5,0-118.8-53.4-118.8-119c0-65.6,53.3-119,118.8-119s119.3,53.4,119.3,119
			C375.6,321.6,322.3,375,256.2,375z"/>
	</g>
</g>
</svg>
