<svg xmlns="http://www.w3.org/2000/svg" xmlns:xlink="http://www.w3.org/1999/xlink" version="1.1" id="Layer_1" x="0px" y="0px" style="enable-background:new 0 0 512 512;" xml:space="preserve" viewBox="30.07 0.01 451.66 511.93">
<g transform="translate(26.616 -58.875)">
	<g>
		<path d="M291.9,115.7L291.9,115.7c10,0,19.1,6.7,21.7,16.9l63.2,251.9c3,12.1-4.2,24.4-16.3,27.5L134,470.5    c-12.1,3.1-24.3-4.1-27.3-16.2L43.5,202.4c-3-12.1,4.2-24.4,16.3-27.5l226.4-58.5C288.1,116,290,115.7,291.9,115.7z M348.7,123.2    c12.5-0.3,22.7,9.6,22.8,22.1l1.2,93.9l-28.3-115.9L348.7,123.2z M403.7,134.5c10.8,2.9,17.9,13.3,16.4,24.6l-13.7,100.2    L403.7,134.5z M66.2,432.7l0.1,6.6l-3.7,27.5c-0.8,6.4,1,12.4,4.6,17.1l0.4,19.5c0.3,12.4,9.6,22.3,21.6,23.7l5.4,22.2    c3.7,15.2,18.9,24.4,34.1,20.7l188.9-46.2l60,8c11.5,1.5,22.2-5.8,25.1-16.7c4.2-3.6,7.2-8.6,8.2-14.3c13.3-4.9,21.1-19,17.6-33.2    l-12.5-51l38.9-292.5c1.7-12.6-7.1-24-19.7-25.7l-37.3-5c-4.5-6-11.8-9.9-20-9.7l0,0l-45.5,1l-2-0.3c-5.4-5.4-13-8.5-21-8.2    c-1.9,0.1-3.8,0.3-5.7,0.8l-10.3,2.5L140,59.1c-0.8-0.1-1.6-0.2-2.3-0.2l0,0c-11.6-0.4-21.8,8.1-23.4,19.9l-1.4,10.7l-29.7,0.6    c-13.5,0.3-24.1,11.4-23.8,24.9l0.5,21.8L25,145.3C9.8,149,0.5,164.2,4.3,179.4L66.2,432.7z M351.9,443.1c2.7,0.1,4.6,1.8,5.6,5    c0.6,1.9,0.2,5.1-2.1,5.8c-0.8,0.3-1.5-0.2-1.7-1c-0.4-1.4-0.1-2.9-0.5-4.4c-0.5-1.7-1.8-2.3-3.2-1.8c-3,0.9-4.1,6.6-3.3,9.2    c0.8,2.7,4.2,3.1,7.8,4.2c3.9-4.5,8.1-8.3,10.2-9.6c0.6-0.3,1.2,0.2,1.3,0.9c-1.5,2.5-4.9,6.1-8.3,9.9c2.4,1.1,4.5,3,5.5,6.4    c1.6,5-2.8,12.2-8.4,13.9c-3.6,1.1-7.2-0.7-8.3-4.3c-1-3.3,1-8,4.2-12.5c-2.2-0.5-4.5-1-6.3-2.5c-1,4.9-4.9,10.7-9.5,12.1    c-3.1,1-6.3-1.2-7.9-3.8c-1.4,4.1-3.7,8.3-5.8,8.9c-3.2,1-5.4-3.2-6.4-5.9c-1.8,7.3-5.7,17.2-8.7,18.1c-2.7,0.8-3.6-1.2-4.1-3.5    c-0.6-2.9-0.5-5.9-0.3-8.9c0.1-1.4,0.6-4.9,0.4-6c-2.2,0-4.3,0.2-6.1-0.1c0.2,2.5-3.6,7.4-7,8.9c0,6.4-2.5,12.4-7.1,13.8    c-3.9,1.2-8-2.1-9.8-7.9c-1.5,4.9-3.7,10.1-5.2,10.6c-2.8,0.9-4.3-3-5-5c-1.4-4.6-1.5-9.5-3-14.1c-0.3-0.8-0.6-1.6-1.1-2.3    c-2.6,1.3-2.5,19.6-5.6,20.6c-2.1,0.7-3-2.4-3.4-3.8c-1.2-3.9-2-7.8-3.3-11.7c-0.3-1-0.9-3-1.8-3.7c-2,0.9-1.8,15.5-1.8,18.2    c0,3.2-0.9,7-4.3,8.1c-2.1,0.7-3.1-2.1-3.6-3.6c-0.1-0.4-0.3-1-0.4-1.6c-1.7,4-4.9,8-8.5,9.1c-1.9,0.6-3.8,0-5.4-1.1    c-0.6,8.5-2.4,18.6-8.3,20.4c-3.3,1-8-0.7-9.9-6.9c-3.3-10.6-0.3-23.4-3.4-33.6c-0.3-0.9-0.6-2-1.7-1.6    c-3.4,1.1-8.8,14.5-9.5,24.9c-0.2,2.4,0,4-1.2,5.6c-0.6,0.8-1.3,1.4-2,1.6c-1.5,0.5-2.1-1.3-2.1-1.3c-2.7-8.8-1.4-23.5-3.6-30.7    c-0.1-0.2-0.4-1.2-0.9-1.1c-2.4,0.8-7.1,23.7-7.4,32c-0.1,4.2,1.2,8.9-0.6,12.1c-0.7,1.2-1.5,1.8-2.9,2.3c-1.1,0.3-2,0.4-2.5-1.3    c-0.8-2.7-1.1-5.7-2-12.2c-1.1-7.6-2.1-17.2-2.3-21.6c-0.5-7.6,0.4-12.3,2.3-12.9c1.4-0.4,3.1,1.1,3.8,3.3c1.3,4,1.7,20.7,2,26.3    c1-6.9,2.7-32.8,10.1-35.1c2.7-0.8,5.4,1.4,6.7,5.7c1.4,4.6,1.7,12.9,1.9,17.2c1-7.3,5.2-18.1,11-20c4.4-1.4,6.5,3.1,7.4,6.3    c3.8,12.2,0.1,22.4,3.3,32.7c1.1,3.5,3,3.9,4,3.6c2.9-0.9,4.3-11.1,5.1-19.2c-0.1-0.3-0.2-0.5-0.3-0.8c-1.8-5.6-0.9-15.2,5.7-17.2    c2.5-0.8,4.2,0.2,4.9,2.6c1.3,4.1-1.1,10.8-5.3,12.4l0.1,0.3c0.5,1.6,2.1,3.8,4,3.2c2.8-0.9,5.2-7.2,6.5-11    c-1.1-6.3-1.6-14,1.7-15.1c1.7-0.5,2,0.9,2.4,2.1c1.3,4.1,0.7,8.6,1.6,12.8c0.4-4.5,0.7-18.7,5.9-20.3c3.5-1.1,5.2,3.7,6,6.1    c0.8,2.6,1.2,5.3,1.9,7.8c0.6-4.3,2-14,6.8-15.5c2.7-0.8,4.8,2.1,5.5,4.3c1.1,3.5,1.4,7.1,1.7,10.7c0.2,1.8,0.1,3.9,0.6,5.6    c0,0.1,0.2,0.4,0.4,0.4c1.2-0.6,3.2-7.3,4.5-10.9c0.2-2.3,0.9-4.4,2-6.2l-0.1-0.4c-1-3.2,1.3-7.9,4.3-8.9    c3.7-1.2,8.7,3.3,10.6,9.4c0.3,0.8,0.5,1.6,0.6,2.4c1.7-1.1,4-3.4,5.5-5.4c-1.4-0.7-2.6-2.1-3.1-4.6c-0.8-3.7-0.6-8.6,3.8-10    c2.7-0.8,5.1,2.3,5.6,4.6c0.4,2-0.1,5-1.2,6.9c3.4,0.1,6.5-0.8,7.3,3.1c0.8,3.7-0.9,8.1-0.1,11.7c0.1,0.3,0.2,0.9,0.7,0.8    c1.6-0.5,5.1-11.7,6.5-16.6c-0.7-4.7-0.3-9.9,2.1-10.7c1.5-0.5,2.5-0.4,3,1.2c0.8,2.7-1.2,6.4,1.1,13.9c0.2,0.6,0.7,2,1.6,1.7    c1.3-0.4,2.5-6.5,4-10.1c-0.3-5.2,1.4-11.2,6.5-12.8c2.5-0.8,4.2,0.2,4.9,2.6c1.3,4.1-1.1,10.8-5.3,12.4l0.1,0.3    c0.5,1.6,2.1,3.8,4,3.2c2.8-0.9,5.2-7.1,6.4-11c-0.2-0.4-0.3-0.7-0.4-1.1c-1.9-6.1,0.9-12.7,7.1-14.6    C350,443.2,351,443.1,351.9,443.1L351.9,443.1z M315.6,446.6c1.2,0,2,1.2,2.3,2.3c0.6,1.8,0.3,4.5-1.8,5.2    c-1.4,0.4-2.8-0.9-3.3-2.2c-0.6-1.9-0.3-4.4,2.2-5.2C315.2,446.6,315.4,446.6,315.6,446.6L315.6,446.6z M333.3,454.8L333.3,454.8    c-0.1,0-0.2,0-0.2,0c-2.1,0.7-2.3,7.7-1.9,9.4c1.9-0.7,3.5-6.5,3-8.2C334.1,455.6,333.8,454.9,333.3,454.8L333.3,454.8z     M295.5,462.1c-0.1,0-0.2,0-0.3,0c-1.2,0.4-0.5,3.9-0.4,4.7c0.2,1,0.9,2.6,2,2.8c0.7-1.2,0.4-4.2,0.1-5.5    C296.8,463.6,296.3,462.2,295.5,462.1L295.5,462.1z M354.2,465.5c-2.6,3.5-4.4,6.9-3.6,9.5c0.5,1.6,2.2,2.6,4.1,2    c2.8-0.9,5-5.4,4.3-7.7C358.3,467,356.4,466.1,354.2,465.5L354.2,465.5z M279.2,470.6c-0.1,0-0.2,0-0.3,0.1    c-1.1,0.3-1.9,2-1.5,3.1c0.6,1.9,4.5,4,7.6,4.7c-0.1-0.5-0.2-0.9-0.4-1.4C283.4,473.4,280.9,470.5,279.2,470.6L279.2,470.6z     M277.4,479.7c-0.6,1.7-0.7,5,0,7.3c0.9,3,3.3,5.2,5,4.7c2.3-0.7,3.3-4.7,3.1-9C282.8,482.5,279.8,481.3,277.4,479.7L277.4,479.7z     M223.5,489.1c-0.1,0-0.2,0-0.2,0c-2.1,0.7-2.3,7.7-1.9,9.4c1.9-0.7,3.5-6.5,3-8.2C224.2,489.9,224,489.2,223.5,489.1L223.5,489.1    z" fill="#ffffff"/>
	</g>
	<g>
		<path d="M131.3,211.2c0,0,32.4,59.7,36.9,58.5c4.8-2.4,50.9-79.4,53.3-89C184,172.9,148.7,193.4,131.3,211.2L131.3,211.2z" fill="#ffffff"/>
		<path d="M240.4,182.9c0,0-36.8,57.1-33.6,60.4c4.4,3.1,94,6.5,103.7,4C299.2,210.7,264.3,189.6,240.4,182.9L240.4,182.9z" fill="#ffffff"/>
		<path d="M317.8,263.4c0,0-67.9-2.4-69.1,2.1c-0.4,5.3,42.6,84.1,49.7,91.1C324,328.2,324.2,287.4,317.8,263.4L317.8,263.4z" fill="#ffffff"/>
		<path d="M287,368.7c0,0-33-59.4-37.4-58.1c-4.7,2.4-50.1,79.8-52.5,89.6C234.7,407.5,269.8,386.6,287,368.7L287,368.7z" fill="#ffffff"/>
		<path d="M179.5,396.1c0,0,34.5-58.6,31.1-61.7c-4.5-2.9-94.2-2.7-103.8,0.2C119.6,370.7,155.3,390.3,179.5,396.1L179.5,396.1z" fill="#ffffff"/>
		<path d="M101.3,317.1c0,0,67.9,2.5,69.1-2c0.4-5.3-42.4-84.2-49.5-91.2C95.2,252.3,94.9,293.1,101.3,317.1L101.3,317.1z" fill="#ffffff"/>
	</g>
</g>
</svg>