<svg xmlns="http://www.w3.org/2000/svg" xml:space="preserve" viewBox="0 0 320 320"><path fill="#88898D" d="M197.109 140.363c-.4-.2-3.8-2.1-8.9-2.1-6.8 0-11.6 4.5-11.6 10.6 0 5.9 4.5 10.6 11.6 10.6 5 0 8.4-1.9 8.9-2.1v10.7c-1.3.4-4.9 1.4-9.6 1.4-11.9 0-22.3-7.8-22.3-20.7 0-11.9 9.4-20.6 22.3-20.6 4.9 0 8.6 1.2 9.6 1.4v10.8zm-110.223 0c-.4-.2-3.8-2.1-8.9-2.1-6.8 0-11.6 4.5-11.6 10.6 0 5.9 4.5 10.6 11.6 10.6 5 0 8.4-1.9 8.9-2.1v10.7c-1.3.4-4.9 1.4-9.6 1.4-11.9 0-22.3-7.8-22.3-20.7 0-11.9 9.4-20.6 22.3-20.6 5 0 8.6 1.2 9.6 1.4v10.8zm143.484-1.941c-6.3 0-10.9 4.7-10.9 10.5s4.6 10.5 10.9 10.5c6.3 0 10.9-4.7 10.9-10.5s-4.6-10.5-10.9-10.5m22.1 10.4c0 11.4-9.2 20.7-22.1 20.7-12.9 0-22.1-9.2-22.1-20.7 0-11.4 9.2-20.6 22.1-20.6 12.9 0 22.1 9.3 22.1 20.6m-100.397-10.829c-.1 0-4.6-1.2-8.2-1.2-4.2 0-6.5 1.3-6.5 3.3 0 2.4 3.1 3.3 4.8 3.8l2.9.9c6.8 2.1 10 6.6 10 11.4 0 10-9.3 13.4-17.3 13.4-5.6 0-10.9-1-11.4-1.1v-9.2c.9.2 5.4 1.5 10 1.5 5.2 0 7.7-1.5 7.7-3.7 0-2-2.1-3.2-4.7-4-.6-.2-1.6-.5-2.3-.7-5.9-1.8-10.8-5.1-10.8-11.7 0-7.5 5.9-12.5 15.6-12.5 5.1 0 10 1.2 10.3 1.3v8.5zM43.814 86.065c0-2.7-2.3-5-5.2-5-2.9 0-5.2 2.2-5.2 5v10.5c0 2.8 2.4 5 5.2 5 2.9 0 5.2-2.2 5.2-5v-10.5zm28.757-13.692c0-2.7-2.3-5-5.2-5-2.9 0-5.3 2.2-5.3 5v24.2c0 2.8 2.4 5 5.3 5s5.2-2.2 5.2-5v-24.2zm28.856-18.772c0-2.8-2.3-5-5.2-5-2.9 0-5.2 2.2-5.2 5v52.9c0 2.8 2.4 5 5.2 5 2.9 0 5.2-2.2 5.2-5v-52.9zm28.758 18.772c0-2.7-2.3-5-5.2-5-2.9 0-5.2 2.2-5.2 5v24.2c0 2.8 2.3 5 5.2 5 2.9 0 5.2-2.2 5.2-5v-24.2zm28.752 13.692c0-2.7-2.3-5-5.2-5-2.9 0-5.2 2.2-5.2 5v10.5c0 2.8 2.4 5 5.2 5 2.9 0 5.2-2.2 5.2-5v-10.5zm28.861-13.692c0-2.7-2.3-5-5.2-5-2.9 0-5.2 2.2-5.2 5v24.2c0 2.8 2.3 5 5.2 5 2.9 0 5.2-2.2 5.2-5v-24.2zm28.758-18.772c0-2.8-2.3-5-5.2-5-2.9 0-5.2 2.2-5.2 5v52.9c0 2.8 2.4 5 5.2 5 2.9 0 5.2-2.2 5.2-5v-52.9zm28.862 18.772c0-2.7-2.4-5-5.3-5s-5.2 2.2-5.2 5v24.2c0 2.8 2.4 5 5.2 5 3 0 5.3-2.2 5.3-5v-24.2zm28.748 13.692c0-2.7-2.4-5-5.2-5-2.9 0-5.2 2.2-5.2 5v10.5c0 2.8 2.3 5 5.2 5 2.9 0 5.2-2.2 5.2-5v-10.5zM112 168.8h-10.6V129H112v39.8z"/><path fill="#62B144" d="m51.114 273.162-26.1-61.4v61.4h-5.5v-68.3h8.3l26.4 62.6 24.9-62.6h8v68.3h-5.4v-60.9l-24.6 60.9h-6zm93.569-13.423c-2.5 9-10.5 14.9-21.5 14.9-14 0-24.6-9.2-24.6-26.1 0-16.9 10.3-26.1 23.6-26.1s23.4 8.5 23.4 27.3h-41.5c.5 14 8.9 20.5 19.2 20.5 7.8 0 13.7-4 15.7-10.5h5.7zm-40.5-14.3h35.9c-.7-12.6-8.2-18.9-17.8-18.9-9.5.1-17.1 6.6-18.1 18.9m53.974 27.723v-49.3h4.4l.8 9.5c2.8-7.5 8.1-10.9 14.5-10.9 2.1 0 4.2.4 5.4.8v5c-1.8-.5-3.6-.9-5.7-.9-7.6 0-14 7-14 18.9v26.9h-5.4zm31.883-36.459c.8-8.4 8.7-14.2 20.1-14.2 11.6 0 19.2 6.2 19.2 16.2v34.5h-4.4l-.8-8.2c-3.2 5.1-9.1 9.6-18.3 9.6-10.1 0-17.3-5.2-17.3-13.9 0-8.4 5.4-13.6 19.9-15.8l15.5-2.5v-4.3c0-7.1-5.3-11.5-14.1-11.5-8.3 0-13.6 4.1-14.2 10h-5.6zm34 18.9v-9.2l-13.9 2.3c-12.4 2-15.9 5.7-15.9 11.6 0 6.6 5.4 10 13.1 10 8.2-.1 16.7-6 16.7-14.7m19.13 17.559v-68.3h5.4v39.1l24.8-20.1h7.3l-26.6 21.5 29.9 27.8h-7.3l-28.1-26.1v26.1h-5.4zM290.7 204.9h6.5v7h-6.5v-7zm.5 19h5.4v49.3h-5.4v-49.3z"/></svg>