<?xml version="1.0" encoding="utf-8"?>
<!-- Generator: Adobe Illustrator 24.2.1, SVG Export Plug-In . SVG Version: 6.00 Build 0)  -->
<svg version="1.1" id="Calque_1" xmlns="http://www.w3.org/2000/svg" xmlns:xlink="http://www.w3.org/1999/xlink" x="0px" y="0px"
	 viewBox="0 0 320 320" enable-background="new 0 0 320 320" xml:space="preserve">
<g>
	<g transform="translate(41.309 23.263)">
		<path fill="#88898D" d="M155.8,117.1c-0.4-0.2-3.8-2.1-8.9-2.1c-6.8,0-11.6,4.5-11.6,10.6c0,5.9,4.5,10.6,11.6,10.6
			c5,0,8.4-1.9,8.9-2.1v10.7c-1.3,0.4-4.9,1.4-9.6,1.4c-11.9,0-22.3-7.8-22.3-20.7c0-11.9,9.4-20.6,22.3-20.6c4.9,0,8.6,1.2,9.6,1.4
			V117.1z"/>
	</g>
	<g transform="translate(21.186 23.263)">
		<path fill="#88898D" d="M65.7,117.1c-0.4-0.2-3.8-2.1-8.9-2.1c-6.8,0-11.6,4.5-11.6,10.6c0,5.9,4.5,10.6,11.6,10.6
			c5,0,8.4-1.9,8.9-2.1v10.7c-1.3,0.4-4.9,1.4-9.6,1.4c-11.9,0-22.3-7.8-22.3-20.7c0-11.9,9.4-20.6,22.3-20.6c5,0,8.6,1.2,9.6,1.4
			V117.1z"/>
	</g>
	<g transform="translate(47.37 23.622)">
		<path fill="#88898D" d="M183,114.8c-6.3,0-10.9,4.7-10.9,10.5c0,5.8,4.6,10.5,10.9,10.5c6.3,0,10.9-4.7,10.9-10.5
			C193.9,119.5,189.3,114.8,183,114.8 M205.1,125.2c0,11.4-9.2,20.7-22.1,20.7c-12.9,0-22.1-9.2-22.1-20.7
			c0-11.4,9.2-20.6,22.1-20.6C195.9,104.6,205.1,113.9,205.1,125.2"/>
	</g>
	<g transform="translate(33.073 23.693)">
		<path fill="#88898D" d="M119,114.3c-0.1,0-4.6-1.2-8.2-1.2c-4.2,0-6.5,1.3-6.5,3.3c0,2.4,3.1,3.3,4.8,3.8l2.9,0.9
			c6.8,2.1,10,6.6,10,11.4c0,10-9.3,13.4-17.3,13.4c-5.6,0-10.9-1-11.4-1.1v-9.2c0.9,0.2,5.4,1.5,10,1.5c5.2,0,7.7-1.5,7.7-3.7
			c0-2-2.1-3.2-4.7-4c-0.6-0.2-1.6-0.5-2.3-0.7c-5.9-1.8-10.8-5.1-10.8-11.7c0-7.5,5.9-12.5,15.6-12.5c5.1,0,10,1.2,10.3,1.3V114.3z
			"/>
	</g>
	<g transform="translate(13.314 33.165)">
		<path fill="#88898D" d="M30.5,52.9c0-2.7-2.3-5-5.2-5c-2.9,0-5.2,2.2-5.2,5v10.5c0,2.8,2.4,5,5.2,5c2.9,0,5.2-2.2,5.2-5V52.9z"/>
	</g>
	<g transform="translate(18.571 35.673)">
		<path fill="#88898D" d="M54,36.7c0-2.7-2.3-5-5.2-5c-2.9,0-5.3,2.2-5.3,5v24.2c0,2.8,2.4,5,5.3,5c2.9,0,5.2-2.2,5.2-5V36.7z"/>
	</g>
	<g transform="translate(23.827 39.101)">
		<path fill="#88898D" d="M77.6,14.5c0-2.8-2.3-5-5.2-5c-2.9,0-5.2,2.2-5.2,5v52.9c0,2.8,2.4,5,5.2,5c2.9,0,5.2-2.2,5.2-5V14.5z"/>
	</g>
	<g transform="translate(29.085 35.673)">
		<path fill="#88898D" d="M101.1,36.7c0-2.7-2.3-5-5.2-5c-2.9,0-5.2,2.2-5.2,5v24.2c0,2.8,2.3,5,5.2,5c2.9,0,5.2-2.2,5.2-5V36.7z"/>
	</g>
	<g transform="translate(34.337 33.165)">
		<path fill="#88898D" d="M124.6,52.9c0-2.7-2.3-5-5.2-5c-2.9,0-5.2,2.2-5.2,5v10.5c0,2.8,2.4,5,5.2,5c2.9,0,5.2-2.2,5.2-5V52.9z"/>
	</g>
	<g transform="translate(39.598 35.673)">
		<path fill="#88898D" d="M148.2,36.7c0-2.7-2.3-5-5.2-5c-2.9,0-5.2,2.2-5.2,5v24.2c0,2.8,2.3,5,5.2,5c2.9,0,5.2-2.2,5.2-5V36.7z"/>
	</g>
	<g transform="translate(44.856 39.101)">
		<path fill="#88898D" d="M171.7,14.5c0-2.8-2.3-5-5.2-5c-2.9,0-5.2,2.2-5.2,5v52.9c0,2.8,2.4,5,5.2,5c2.9,0,5.2-2.2,5.2-5V14.5z"/>
	</g>
	<g transform="translate(50.118 35.673)">
		<path fill="#88898D" d="M195.3,36.7c0-2.7-2.4-5-5.3-5c-2.9,0-5.2,2.2-5.2,5v24.2c0,2.8,2.4,5,5.2,5c3,0,5.3-2.2,5.3-5V36.7z"/>
	</g>
	<g transform="translate(55.366 33.165)">
		<path fill="#88898D" d="M218.8,52.9c0-2.7-2.4-5-5.2-5c-2.9,0-5.2,2.2-5.2,5v10.5c0,2.8,2.3,5,5.2,5c2.9,0,5.2-2.2,5.2-5V52.9z"/>
	</g>
	<path fill="#88898D" d="M112,168.8h-10.6V129H112V168.8z"/>
</g>
<g>
	<g transform="translate(75.414 18.062)">
		<path fill="#62B144" d="M-24.3,255.1l-26.1-61.4v61.4h-5.5v-68.3h8.3l26.4,62.6l24.9-62.6h8v68.3H6.3v-60.9l-24.6,60.9H-24.3z"/>
	</g>
	<g transform="translate(96.783 21.139)">
		<path fill="#62B144" d="M47.9,238.6c-2.5,9-10.5,14.9-21.5,14.9c-14,0-24.6-9.2-24.6-26.1c0-16.9,10.3-26.1,23.6-26.1
			c13.3,0,23.4,8.5,23.4,27.3H7.3c0.5,14,8.9,20.5,19.2,20.5c7.8,0,13.7-4,15.7-10.5H47.9z M7.4,224.3h35.9
			c-0.7-12.6-8.2-18.9-17.8-18.9C16,205.5,8.4,212,7.4,224.3"/>
	</g>
	<g transform="translate(99.857 18.062)">
		<path fill="#62B144" d="M58.3,255.1v-49.3h4.4l0.8,9.5c2.8-7.5,8.1-10.9,14.5-10.9c2.1,0,4.2,0.4,5.4,0.8v5
			c-1.8-0.5-3.6-0.9-5.7-0.9c-7.6,0-14,7-14,18.9v26.9H58.3z"/>
	</g>
	<g transform="translate(107.14 26.403)">
		<path fill="#62B144" d="M82.9,210.3c0.8-8.4,8.7-14.2,20.1-14.2c11.6,0,19.2,6.2,19.2,16.2v34.5h-4.4l-0.8-8.2
			c-3.2,5.1-9.1,9.6-18.3,9.6c-10.1,0-17.3-5.2-17.3-13.9c0-8.4,5.4-13.6,19.9-15.8l15.5-2.5v-4.3c0-7.1-5.3-11.5-14.1-11.5
			c-8.3,0-13.6,4.1-14.2,10H82.9z M116.9,229.2V220l-13.9,2.3c-12.4,2-15.9,5.7-15.9,11.6c0,6.6,5.4,10,13.1,10
			C108.4,243.8,116.9,237.9,116.9,229.2"/>
	</g>
	<g transform="translate(119.27 18.062)">
		<path fill="#62B144" d="M123.9,255.1v-68.3h5.4v39.1l24.8-20.1h7.3l-26.6,21.5l29.9,27.8h-7.3L129.3,229v26.1H123.9z"/>
	</g>
	<path fill="#62B144" d="M290.7,204.9h6.5v7h-6.5V204.9z M291.2,223.9h5.4v49.3h-5.4V223.9z"/>
</g>
</svg>
