<svg xmlns="http://www.w3.org/2000/svg" xml:space="preserve" id="Capa_1" width="972.69" height="126.483" x="0" y="0" style="enable-background:new 0 0 972.69 126.483" version="1.1"><style>.st0{fill-rule:evenodd;clip-rule:evenodd;fill:#c72127}</style><path d="M0 31.331c8.1.01 16.206.215 24.298-.03 6.537-.198 11.401 2.588 15.178 7.528 1.905 2.491 3.481 5.263 4.973 8.034 6.66 12.376 13.216 24.808 19.873 37.186.572 1.062 1.608 1.874 2.427 2.802.812-.952 1.849-1.79 2.405-2.873 8.694-16.959 17.362-33.93 25.921-50.957 1.02-2.029 2.067-2.876 4.453-2.829 8.783.176 17.572.07 26.359.07h2.465v88.283H94.778V69.391l-.509-.185c-.391.654-.808 1.294-1.168 1.964-8.229 15.272-16.484 30.527-24.63 45.843-.877 1.647-1.841 2.186-3.639 2.126a187.09 187.09 0 0 0-12.148-.008c-2.896.092-5.376-.836-7.156-2.961-1.873-2.237-3.614-4.674-4.945-7.264-7.426-14.451-14.695-28.982-22.081-43.453-.47-.921-1.483-1.566-2.243-2.34-.355 1.029-1.009 2.056-1.019 3.088-.155 16.817-.228 33.634-.319 50.451-.003.678 0 1.355 0 2.417H0V31.331zm678.84-4.943c2.719.276 5.447.494 8.158.838a2332.556 2332.556 0 0 1 25.68 3.391c.535.075 1.395.809 1.404 1.25.1 5.066.062 10.136.062 15.565-3.205-.227-6.242-.513-9.285-.645-14.938-.65-29.875-1.302-44.818-1.836-2.232-.08-4.512.347-6.729.761-2.104.393-4.023 1.43-4.512 3.687-.467 2.157 1.1 3.57 2.621 4.784.736.587 1.623 1.02 2.5 1.387 12.578 5.264 25.168 10.496 37.746 15.757 6.742 2.819 13.059 6.377 18.709 11.044 1.16.96 2.256 2.007 3.318 3.077 6.6 6.655 7.357 13.856 2.982 22.591-1.883 3.758-4.846 6.631-8.285 8.996-6.771 4.659-14.315 7.105-22.477 7.736-5.949.461-11.898.904-17.848 1.374-.533.043-1.057.221-1.586.336h-13.594c-2.926-.285-5.859-.511-8.775-.87a2478.405 2478.405 0 0 1-26.311-3.371c-.496-.065-1.291-.756-1.297-1.165-.088-5.544-.059-11.089-.059-16.829 4.285.355 8.307.689 12.328 1.024 14.432 1.202 28.871 2.321 43.373 1.864 1.969-.062 3.996-.328 5.865-.919 3.102-.979 3.625-3.327 1.082-5.325-2.291-1.801-4.854-3.396-7.525-4.551-9.246-3.991-18.656-7.607-27.885-11.639-8.771-3.83-16.934-8.683-24.074-15.197-11.881-10.841-7.131-24.325.856-31.287 6.383-5.564 13.908-8.753 22.293-9.688 6.947-.773 13.936-1.201 20.904-1.798.533-.046 1.055-.227 1.582-.345 4.535.003 9.066.003 13.597.003zm196.073 100.095c-2.787-.278-5.582-.505-8.361-.847a2493.748 2493.748 0 0 1-26.514-3.387c-.529-.07-1.379-.829-1.387-1.279-.096-5.475-.062-10.949-.062-16.7 2.531.198 4.826.36 7.119.56 15.93 1.385 31.861 2.743 47.877 2.327 2.039-.054 4.143-.267 6.076-.858 1.152-.354 2.588-1.442 2.869-2.479.236-.875-.731-2.581-1.645-3.17-3.098-1.988-6.293-3.915-9.66-5.375-8.424-3.649-17.016-6.91-25.441-10.553-8.023-3.469-15.568-7.82-22.232-13.546-3.732-3.208-7.176-6.777-8.418-11.683-1.68-6.632.051-12.731 4.303-17.929 6.465-7.903 15.281-11.691 25.148-12.99 6.994-.921 14.068-1.236 21.105-1.838.531-.046 1.053-.229 1.58-.348h13.594c.531.118 1.057.289 1.594.345 7.227.74 14.463 1.392 21.68 2.22 3.998.458 7.965 1.204 11.969 1.824v16.556c-.769 0-1.438.041-2.102-.006-8.619-.603-17.23-1.393-25.859-1.781a521.83 521.83 0 0 0-26.947-.513c-2.783.018-5.738.717-8.291 1.84-2.652 1.168-2.885 3.599-.934 5.765 1.021 1.131 2.35 2.152 3.74 2.754 7.418 3.21 14.932 6.194 22.35 9.405 8.354 3.618 16.758 7.151 24.914 11.185 5.854 2.896 11.076 6.873 15.096 12.181 2.303 3.044 3.641 6.426 3.385 10.32-.469 7.139-3.707 12.8-9.223 17.233-4.006 3.22-8.473 5.815-13.443 6.886-6.469 1.393-13.088 2.115-19.662 2.977-3.519.463-7.082.613-10.623.903l-13.595.001zM356.988 90.714l15.237 27.414c-8.166 0-15.977 0-23.787-.002-2.54-.001-5.085-.115-7.617.02-1.493.078-2.17-.525-2.783-1.791a1430.483 1430.483 0 0 0-10.844-21.936c-.353-.699-1.322-1.539-2.014-1.547-8.715-.096-17.432-.052-26.149-.035-.196 0-.391.098-.82.212v24.692c-.96.047-1.69.114-2.421.115-10.776.006-21.552-.032-32.328.04-1.794.012-2.49-.364-2.485-2.346.063-27.593.042-55.185.048-82.777 0-.665.085-1.329.145-2.202h2.364c27.592-.003 55.184-.015 82.776-.003 5.254.002 10.406.713 15.254 2.85 6.779 2.988 10.555 7.895 10.38 15.661-.205 9.125-.275 18.264.015 27.384.299 9.399-5.111 13.449-13.059 14.083-.534.042-1.066.094-1.912.168zm-58.362-10.273h14.599c5.834.001 11.669.074 17.502-.018 4.54-.072 6.693-2.338 6.697-6.754.005-7.482.006-14.963.001-22.445-.003-5.361-2.108-7.466-7.484-7.479-9.747-.024-19.494-.036-29.24-.053h-2.075v36.749zm-51.268 2.533h-68.894c-.073.691-.163 1.153-.163 1.615-.012 6.314-.019 12.631-.008 18.946.003 2.017.82 2.88 2.81 3.018.683.047 1.372.021 2.059.021 21.143.001 42.286 0 63.429.002 2.701 0 2.705.009 2.709 2.686.003 2.473-.041 4.943.014 7.414.028 1.207-.365 1.812-1.644 1.711-.682-.055-1.372-.004-2.059-.004-26.292 0-52.583.018-78.874-.025-3.004-.004-6.061-.065-9.001-.604-8.761-1.605-14.18-7.707-14.243-16.588-.165-23.132-.058-46.266-.056-69.4 0-.134.052-.269.113-.568h106.317c0 2.168.027 4.397-.008 6.624-.03 1.908.599 4.621-.388 5.512-1.138 1.027-3.728.548-5.688.55-21.005.025-42.011.015-63.017.016-2.829 0-2.832.003-2.832 2.729-.002 6.727.078 13.456-.047 20.182-.038 2.041.643 2.478 2.567 2.472 21.349-.065 42.698-.041 64.047-.041h2.857v13.732zm250.779-51.423h16.621v2.468c0 17.091.203 34.186-.061 51.273-.232 15.046 9.828 20.472 19.457 21.338 7.072.636 14.264.48 21.371.097 8.307-.447 13.01-5.9 13.012-14.213.004-19.22 0-38.439 0-57.658v-2.529h34.926v61.821c0 14.741-6.15 22.853-20.482 26.368-4.289 1.053-8.793 1.564-13.215 1.681-9.397.249-18.805.14-28.207.058-8.895-.076-17.688-.971-25.953-4.574-9.162-3.993-15.52-10.438-17.342-20.629-.203-1.14-.23-2.322-.23-3.483-.014-19.974-.012-39.948-.006-59.922 0-.67.068-1.337.109-2.096zm-10.741 73.497c.07 2.92.21 5.619.169 8.314-.02 1.358-.523 2.711-.533 4.068-.017 2.332-1.391 3.096-3.367 3.219-9.511.594-19.018 1.447-28.538 1.646-9.798.207-19.625.051-29.411-.484a55.733 55.733 0 0 1-22.85-6.261c-12.247-6.39-18.708-16.736-19.592-30.313-.538-8.258-.829-16.63.871-24.832 3.131-15.111 12.806-24.243 27.071-29.017 7.146-2.392 14.543-3.659 22.034-3.634 13.859.046 27.718.442 41.575.822 2.789.077 5.574.67 8.336 1.163.616.109 1.531.726 1.623 1.231.609 3.415 1.137 6.853 1.475 10.305.156 1.594-.768 2.175-2.49 1.878-11.041-1.904-22.134-2.931-33.378-2.465-12.647.525-21.017 7.029-26.229 18.071-.986 2.089-1.36 4.611-1.44 6.954-.199 5.828.194 11.682-.123 17.499-.557 10.24 5.514 20.891 19.302 23.218 13.103 2.211 26.083 1.859 39.1-.291 1.947-.319 3.89-.661 6.395-1.091zm281.936-27.873c.609-.837 1.072-1.452 1.514-2.082 9.609-13.682 19.23-27.354 28.799-41.068.856-1.228 1.725-1.751 3.203-1.742 11.461.068 22.92.038 34.381.038h2.144c-.371.679-.568 1.174-.873 1.577a50515.432 50515.432 0 0 1-39.645 52.279c-2.902 3.818-4.352 8.31-4.658 13.026-.451 6.931-.361 13.901-.496 20.857-.021 1.073-.004 2.148-.004 3.37h-35.084c-.035-.757-.102-1.528-.104-2.3-.01-4.787-.119-9.578.021-14.361.252-8.547-1.857-16.091-6.635-23.199-7.582-11.279-14.531-23.035-21.746-34.59-3.137-5.021-6.273-10.042-9.402-15.068-.361-.58-.672-1.194-1.168-2.084 6.512 0 12.729-.043 18.945.071.586.011 1.277.932 1.713 1.584 9.17 13.747 18.309 27.516 27.455 41.28.472.706.957 1.405 1.64 2.412zm176.475-63.737C945.809 6.015 951.833-.006 959.253 0c7.427.006 13.445 6.031 13.436 13.449-.01 7.427-6.04 13.449-13.453 13.434-7.427-.015-13.432-6.027-13.429-13.445zm2.729.006c.002 5.914 4.796 10.707 10.71 10.709 5.915.003 10.718-4.799 10.715-10.715-.004-5.915-4.795-10.706-10.71-10.709-5.917-.002-10.717 4.798-10.715 10.715z" class="st0"/><path d="M953.359 20.164V6.105c.035-.002.067-.007.101-.007 1.906.001 3.813-.006 5.719.006.923.006 1.839.1 2.72.402.675.232 1.275.582 1.709 1.166.329.441.506.945.586 1.485.105.716.095 1.429-.111 2.128-.293.995-.966 1.648-1.89 2.069a5.02 5.02 0 0 1-.305.126c-.099.038-.199.07-.315.11.085.028.156.049.226.074.594.207 1.047.598 1.425 1.087.34.439.604.924.85 1.42.64 1.292 1.282 2.582 1.924 3.874.018.036.033.073.056.125h-.123c-1.205 0-2.41-.001-3.616.003-.089 0-.133-.028-.171-.107-.583-1.189-1.164-2.379-1.759-3.563a6.215 6.215 0 0 0-.52-.825 1.879 1.879 0 0 0-1.398-.795c-.485-.044-.976-.034-1.479-.048v5.328l-3.629.001zm3.629-7.82c.028.002.047.005.065.005.542 0 1.084.011 1.626-.006.274-.009.552-.048.818-.113.556-.136.929-.478 1.067-1.046.098-.408.104-.819.019-1.229-.111-.534-.41-.913-.947-1.073-.152-.045-.309-.095-.464-.1-.72-.023-1.44-.031-2.159-.045-.007 0-.013.005-.025.012v3.595z" class="st0"/></svg>