<?xml version="1.0" encoding="utf-8"?>
<!-- Generator: Adobe Illustrator 25.2.1, SVG Export Plug-In . SVG Version: 6.00 Build 0)  -->
<svg version="1.1" id="Capa_1" xmlns="http://www.w3.org/2000/svg" xmlns:xlink="http://www.w3.org/1999/xlink" x="0px" y="0px"
	 width="972.69px" height="126.483px" viewBox="0 0 972.69 126.483" style="enable-background:new 0 0 972.69 126.483;"
	 xml:space="preserve">
<style type="text/css">
	.st0{fill-rule:evenodd;clip-rule:evenodd;fill:#C72127;}
</style>
<g>
	<path class="st0" d="M0,31.331c8.1,0.01,16.206,0.215,24.298-0.03c6.537-0.198,11.401,2.588,15.178,7.528
		c1.905,2.491,3.481,5.263,4.973,8.034c6.66,12.376,13.216,24.808,19.873,37.186c0.572,1.062,1.608,1.874,2.427,2.802
		c0.812-0.952,1.849-1.79,2.405-2.873c8.694-16.959,17.362-33.93,25.921-50.957c1.02-2.029,2.067-2.876,4.453-2.829
		c8.783,0.176,17.572,0.07,26.359,0.07c0.801,0,1.603,0,2.465,0c0,29.574,0,58.858,0,88.283c-11.177,0-22.255,0-33.574,0
		c0-16.434,0-32.794,0-49.154c-0.169-0.062-0.339-0.123-0.509-0.185c-0.391,0.654-0.808,1.294-1.168,1.964
		c-8.229,15.272-16.484,30.527-24.63,45.843c-0.877,1.647-1.841,2.186-3.639,2.126c-4.046-0.133-8.103-0.138-12.148-0.008
		c-2.896,0.092-5.376-0.836-7.156-2.961c-1.873-2.237-3.614-4.674-4.945-7.264c-7.426-14.451-14.695-28.982-22.081-43.453
		c-0.47-0.921-1.483-1.566-2.243-2.34c-0.355,1.029-1.009,2.056-1.019,3.088c-0.155,16.817-0.228,33.634-0.319,50.451
		c-0.003,0.678,0,1.355,0,2.417c-5.09,0-10.006,0-14.921,0C0,89.823,0,60.577,0,31.331z"/>
	<path class="st0" d="M678.84,26.388c2.719,0.276,5.447,0.494,8.158,0.838c8.566,1.089,17.127,2.207,25.68,3.391
		c0.535,0.075,1.395,0.809,1.404,1.25c0.1,5.066,0.062,10.136,0.062,15.565c-3.205-0.227-6.242-0.513-9.285-0.645
		c-14.938-0.65-29.875-1.302-44.818-1.836c-2.232-0.08-4.512,0.347-6.729,0.761c-2.104,0.393-4.023,1.43-4.512,3.687
		c-0.467,2.157,1.1,3.57,2.621,4.784c0.736,0.587,1.623,1.02,2.5,1.387c12.578,5.264,25.168,10.496,37.746,15.757
		c6.742,2.819,13.059,6.377,18.709,11.044c1.16,0.96,2.256,2.007,3.318,3.077c6.6,6.655,7.357,13.856,2.982,22.591
		c-1.883,3.758-4.846,6.631-8.285,8.996c-6.771,4.659-14.315,7.105-22.477,7.736c-5.949,0.461-11.898,0.904-17.848,1.374
		c-0.533,0.043-1.057,0.221-1.586,0.336c-4.531,0-9.062,0-13.594,0c-2.926-0.285-5.859-0.511-8.775-0.87
		c-8.775-1.08-17.547-2.197-26.311-3.371c-0.496-0.065-1.291-0.756-1.297-1.165c-0.088-5.544-0.059-11.089-0.059-16.829
		c4.285,0.355,8.307,0.689,12.328,1.024c14.432,1.202,28.871,2.321,43.373,1.864c1.969-0.062,3.996-0.328,5.865-0.919
		c3.102-0.979,3.625-3.327,1.082-5.325c-2.291-1.801-4.854-3.396-7.525-4.551c-9.246-3.991-18.656-7.607-27.885-11.639
		c-8.771-3.83-16.934-8.683-24.074-15.197c-11.881-10.841-7.131-24.325,0.856-31.287c6.383-5.564,13.908-8.753,22.293-9.688
		c6.947-0.773,13.936-1.201,20.904-1.798c0.533-0.046,1.055-0.227,1.582-0.345C669.778,26.388,674.309,26.388,678.84,26.388z"/>
	<path class="st0" d="M874.913,126.483c-2.787-0.278-5.582-0.505-8.361-0.847c-8.842-1.09-17.682-2.202-26.514-3.387
		c-0.529-0.07-1.379-0.829-1.387-1.279c-0.096-5.475-0.062-10.949-0.062-16.7c2.531,0.198,4.826,0.36,7.119,0.56
		c15.93,1.385,31.861,2.743,47.877,2.327c2.039-0.054,4.143-0.267,6.076-0.858c1.152-0.354,2.588-1.442,2.869-2.479
		c0.236-0.875-0.731-2.581-1.645-3.17c-3.098-1.988-6.293-3.915-9.66-5.375c-8.424-3.649-17.016-6.91-25.441-10.553
		c-8.023-3.469-15.568-7.82-22.232-13.546c-3.732-3.208-7.176-6.777-8.418-11.683c-1.68-6.632,0.051-12.731,4.303-17.929
		c6.465-7.903,15.281-11.691,25.148-12.99c6.994-0.921,14.068-1.236,21.105-1.838c0.531-0.046,1.053-0.229,1.58-0.348
		c4.531,0,9.062,0,13.594,0c0.531,0.118,1.057,0.289,1.594,0.345c7.227,0.74,14.463,1.392,21.68,2.22
		c3.998,0.458,7.965,1.204,11.969,1.824c0,5.618,0,11.008,0,16.556c-0.769,0-1.438,0.041-2.102-0.006
		c-8.619-0.603-17.23-1.393-25.859-1.781c-8.973-0.403-17.965-0.574-26.947-0.513c-2.783,0.018-5.738,0.717-8.291,1.84
		c-2.652,1.168-2.885,3.599-0.934,5.765c1.021,1.131,2.35,2.152,3.74,2.754c7.418,3.21,14.932,6.194,22.35,9.405
		c8.354,3.618,16.758,7.151,24.914,11.185c5.854,2.896,11.076,6.873,15.096,12.181c2.303,3.044,3.641,6.426,3.385,10.32
		c-0.469,7.139-3.707,12.8-9.223,17.233c-4.006,3.22-8.473,5.815-13.443,6.886c-6.469,1.393-13.088,2.115-19.662,2.977
		c-3.519,0.463-7.082,0.613-10.623,0.903C883.975,126.483,879.444,126.483,874.913,126.483z"/>
	<path class="st0" d="M356.988,90.714c5.105,9.185,10.11,18.189,15.237,27.414c-8.166,0-15.977,0-23.787-0.002
		c-2.54-0.001-5.085-0.115-7.617,0.02c-1.493,0.078-2.17-0.525-2.783-1.791c-3.555-7.342-7.164-14.656-10.844-21.936
		c-0.353-0.699-1.322-1.539-2.014-1.547c-8.715-0.096-17.432-0.052-26.149-0.035c-0.196,0-0.391,0.098-0.82,0.212
		c0,8.147,0,16.334,0,24.692c-0.96,0.047-1.69,0.114-2.421,0.115c-10.776,0.006-21.552-0.032-32.328,0.04
		c-1.794,0.012-2.49-0.364-2.485-2.346c0.063-27.593,0.042-55.185,0.048-82.777c0-0.665,0.085-1.329,0.145-2.202
		c0.889,0,1.626,0,2.364,0c27.592-0.003,55.184-0.015,82.776-0.003c5.254,0.002,10.406,0.713,15.254,2.85
		c6.779,2.988,10.555,7.895,10.38,15.661c-0.205,9.125-0.275,18.264,0.015,27.384c0.299,9.399-5.111,13.449-13.059,14.083
		C358.366,90.588,357.834,90.64,356.988,90.714z M298.626,80.441c5.01,0,9.805,0,14.599,0c5.834,0.001,11.669,0.074,17.502-0.018
		c4.54-0.072,6.693-2.338,6.697-6.754c0.005-7.482,0.006-14.963,0.001-22.445c-0.003-5.361-2.108-7.466-7.484-7.479
		c-9.747-0.024-19.494-0.036-29.24-0.053c-0.66-0.001-1.318,0-2.075,0C298.626,56.038,298.626,68.092,298.626,80.441z"/>
	<path class="st0" d="M247.358,82.974c-23.021,0-45.92,0-68.894,0c-0.073,0.691-0.163,1.153-0.163,1.615
		c-0.012,6.314-0.019,12.631-0.008,18.946c0.003,2.017,0.82,2.88,2.81,3.018c0.683,0.047,1.372,0.021,2.059,0.021
		c21.143,0.001,42.286,0,63.429,0.002c2.701,0,2.705,0.009,2.709,2.686c0.003,2.473-0.041,4.943,0.014,7.414
		c0.028,1.207-0.365,1.812-1.644,1.711c-0.682-0.055-1.372-0.004-2.059-0.004c-26.292,0-52.583,0.018-78.874-0.025
		c-3.004-0.004-6.061-0.065-9.001-0.604c-8.761-1.605-14.18-7.707-14.243-16.588c-0.165-23.132-0.058-46.266-0.056-69.4
		c0-0.134,0.052-0.269,0.113-0.568c35.281,0,70.595,0,106.317,0c0,2.168,0.027,4.397-0.008,6.624
		c-0.03,1.908,0.599,4.621-0.388,5.512c-1.138,1.027-3.728,0.548-5.688,0.55c-21.005,0.025-42.011,0.015-63.017,0.016
		c-2.829,0-2.832,0.003-2.832,2.729c-0.002,6.727,0.078,13.456-0.047,20.182c-0.038,2.041,0.643,2.478,2.567,2.472
		c21.349-0.065,42.698-0.041,64.047-0.041c0.889,0,1.779,0,2.857,0C247.358,73.752,247.358,78.163,247.358,82.974z"/>
	<path class="st0" d="M498.137,31.551c5.539,0,10.928,0,16.621,0c0,0.873,0,1.67,0,2.468c0,17.091,0.203,34.186-0.061,51.273
		c-0.232,15.046,9.828,20.472,19.457,21.338c7.072,0.636,14.264,0.48,21.371,0.097c8.307-0.447,13.01-5.9,13.012-14.213
		c0.004-19.22,0-38.439,0-57.658c0-0.806,0-1.611,0-2.529c11.701,0,23.191,0,34.926,0c0,0.979,0,1.851,0,2.722
		c0,19.7,0,39.399,0,59.099c0,14.741-6.15,22.853-20.482,26.368c-4.289,1.053-8.793,1.564-13.215,1.681
		c-9.397,0.249-18.805,0.14-28.207,0.058c-8.895-0.076-17.688-0.971-25.953-4.574c-9.162-3.993-15.52-10.438-17.342-20.629
		c-0.203-1.14-0.23-2.322-0.23-3.483c-0.014-19.974-0.012-39.948-0.006-59.922C498.028,32.977,498.096,32.31,498.137,31.551z"/>
	<path class="st0" d="M487.396,105.048c0.07,2.92,0.21,5.619,0.169,8.314c-0.02,1.358-0.523,2.711-0.533,4.068
		c-0.017,2.332-1.391,3.096-3.367,3.219c-9.511,0.594-19.018,1.447-28.538,1.646c-9.798,0.207-19.625,0.051-29.411-0.484
		c-7.983-0.438-15.696-2.529-22.85-6.261c-12.247-6.39-18.708-16.736-19.592-30.313c-0.538-8.258-0.829-16.63,0.871-24.832
		c3.131-15.111,12.806-24.243,27.071-29.017c7.146-2.392,14.543-3.659,22.034-3.634c13.859,0.046,27.718,0.442,41.575,0.822
		c2.789,0.077,5.574,0.67,8.336,1.163c0.616,0.109,1.531,0.726,1.623,1.231c0.609,3.415,1.137,6.853,1.475,10.305
		c0.156,1.594-0.768,2.175-2.49,1.878c-11.041-1.904-22.134-2.931-33.378-2.465c-12.647,0.525-21.017,7.029-26.229,18.071
		c-0.986,2.089-1.36,4.611-1.44,6.954c-0.199,5.828,0.194,11.682-0.123,17.499c-0.557,10.24,5.514,20.891,19.302,23.218
		c13.103,2.211,26.083,1.859,39.1-0.291C482.948,105.82,484.891,105.478,487.396,105.048z"/>
	<path class="st0" d="M769.332,77.175c0.609-0.837,1.072-1.452,1.514-2.082c9.609-13.682,19.23-27.354,28.799-41.068
		c0.856-1.228,1.725-1.751,3.203-1.742c11.461,0.068,22.92,0.038,34.381,0.038c0.611,0,1.223,0,2.144,0
		c-0.371,0.679-0.568,1.174-0.873,1.577c-13.207,17.433-26.416,34.864-39.645,52.279c-2.902,3.818-4.352,8.31-4.658,13.026
		c-0.451,6.931-0.361,13.901-0.496,20.857c-0.021,1.073-0.004,2.148-0.004,3.37c-11.73,0-23.295,0-35.084,0
		c-0.035-0.757-0.102-1.528-0.104-2.3c-0.01-4.787-0.119-9.578,0.021-14.361c0.252-8.547-1.857-16.091-6.635-23.199
		c-7.582-11.279-14.531-23.035-21.746-34.59c-3.137-5.021-6.273-10.042-9.402-15.068c-0.361-0.58-0.672-1.194-1.168-2.084
		c6.512,0,12.729-0.043,18.945,0.071c0.586,0.011,1.277,0.932,1.713,1.584c9.17,13.747,18.309,27.516,27.455,41.28
		C768.164,75.469,768.649,76.168,769.332,77.175z"/>
</g>
<g>
	<path class="st0" d="M945.807,13.438C945.809,6.015,951.833-0.006,959.253,0c7.427,0.006,13.445,6.031,13.436,13.449
		c-0.01,7.427-6.04,13.449-13.453,13.434C951.809,26.868,945.804,20.856,945.807,13.438z M948.536,13.444
		c0.002,5.914,4.796,10.707,10.71,10.709c5.915,0.003,10.718-4.799,10.715-10.715c-0.004-5.915-4.795-10.706-10.71-10.709
		C953.334,2.727,948.534,7.527,948.536,13.444z"/>
	<path class="st0" d="M953.359,20.164c0-4.689,0-9.369,0-14.059c0.035-0.002,0.067-0.007,0.101-0.007
		c1.906,0.001,3.813-0.006,5.719,0.006c0.923,0.006,1.839,0.1,2.72,0.402c0.675,0.232,1.275,0.582,1.709,1.166
		c0.329,0.441,0.506,0.945,0.586,1.485c0.105,0.716,0.095,1.429-0.111,2.128c-0.293,0.995-0.966,1.648-1.89,2.069
		c-0.101,0.046-0.202,0.087-0.305,0.126c-0.099,0.038-0.199,0.07-0.315,0.11c0.085,0.028,0.156,0.049,0.226,0.074
		c0.594,0.207,1.047,0.598,1.425,1.087c0.34,0.439,0.604,0.924,0.85,1.42c0.64,1.292,1.282,2.582,1.924,3.874
		c0.018,0.036,0.033,0.073,0.056,0.125c-0.051,0-0.087,0-0.123,0c-1.205,0-2.41-0.001-3.616,0.003c-0.089,0-0.133-0.028-0.171-0.107
		c-0.583-1.189-1.164-2.379-1.759-3.563c-0.146-0.289-0.33-0.562-0.52-0.825c-0.342-0.475-0.823-0.742-1.398-0.795
		c-0.485-0.044-0.976-0.034-1.479-0.048c0,1.787,0,3.554,0,5.328C955.77,20.164,954.571,20.164,953.359,20.164z M956.988,12.344
		c0.028,0.002,0.047,0.005,0.065,0.005c0.542,0,1.084,0.011,1.626-0.006c0.274-0.009,0.552-0.048,0.818-0.113
		c0.556-0.136,0.929-0.478,1.067-1.046c0.098-0.408,0.104-0.819,0.019-1.229c-0.111-0.534-0.41-0.913-0.947-1.073
		c-0.152-0.045-0.309-0.095-0.464-0.1c-0.72-0.023-1.44-0.031-2.159-0.045c-0.007,0-0.013,0.005-0.025,0.012
		C956.988,9.941,956.988,11.137,956.988,12.344z"/>
</g>
</svg>
