<svg xmlns="http://www.w3.org/2000/svg" xmlns:xlink="http://www.w3.org/1999/xlink" version="1.1" id="Layer_1" x="0px" y="0px" style="enable-background:new 0 0 512 512;" xml:space="preserve" viewBox="0 35.15 512 441.65">
<g>
	<path d="M97.6,62.4c-87.5,87.5-87.5,229.3,0,316.8c0,0,0,0,0,0c6.1,6.4,6,16.5-0.4,22.6c-6.2,6-16,6-22.2,0   c-100-100-100-262.1,0-362c0,0,0,0,0,0c6.4-6.1,16.5-6,22.6,0.4C103.6,46.4,103.6,56.2,97.6,62.4 M165.5,130.3c-50,50-50,131,0,181   c6.3,6.3,6.3,16.4,0,22.7c-6.3,6.3-16.4,6.3-22.7,0c-62.5-62.5-62.5-163.8,0-226.3c0,0,0,0,0,0c6.3-6.3,16.4-6.3,22.7,0   C171.8,113.9,171.8,124.1,165.5,130.3 M346.5,107.7c6.2-6.3,16.4-6.3,22.6,0c0,0,0,0,0,0c62.5,62.5,62.5,163.8,0,226.3c0,0,0,0,0,0   c-6.3,6.3-16.4,6.3-22.7,0c-6.3-6.3-6.3-16.4,0-22.7c50-50,50-131,0-181C340.2,124.1,340.2,114,346.5,107.7   C346.5,107.7,346.5,107.7,346.5,107.7 M414.4,39.8c6.2-6.2,16.4-6.2,22.6,0c100,100,100,262,0,362c-6.4,6.1-16.5,6-22.6-0.4   c-6-6.2-6-16,0-22.2c87.5-87.5,87.5-229.3,0-316.8c0,0,0,0,0,0C408.2,56.2,408.2,46.1,414.4,39.8L414.4,39.8z M192,220.8   c0-35.3,28.7-64,64-64s64,28.7,64,64c0,29.2-19.7,54.7-48,62v178c0,8.8-7.2,16-16,16c-8.8,0-16-7.2-16-16v-178   C211.7,275.5,192,250,192,220.8" fill="#ffffff"/>
</g>
</svg>