<svg xmlns="http://www.w3.org/2000/svg" xmlns:xlink="http://www.w3.org/1999/xlink" version="1.1" id="Layer_1" x="0px" y="0px" style="enable-background:new 0 0 512 512;" xml:space="preserve" viewBox="53.5 0 405 512">
<style type="text/css">
	.st0{fill:#509EE3;}
	.st1{opacity:0.2;fill:#509EE3;enable-background:new    ;}
</style>
<g>
	<ellipse class="st0" cx="84.2" cy="130.9" rx="30.7" ry="31.2"/>
	<ellipse class="st0" cx="84.2" cy="218.2" rx="30.7" ry="31.2"/>
	<ellipse class="st1" cx="170.1" cy="130.9" rx="30.7" ry="31.2"/>
	<ellipse class="st0" cx="170.1" cy="219" rx="30.7" ry="31.2"/>
	<ellipse class="st1" cx="256" cy="130.9" rx="30.7" ry="31.2"/>
	<ellipse class="st1" cx="256" cy="31.2" rx="30.7" ry="31.2"/>
	<ellipse class="st1" cx="256" cy="219" rx="30.7" ry="31.2"/>
	<ellipse class="st1" cx="341.9" cy="130.9" rx="30.7" ry="31.2"/>
	<ellipse class="st0" cx="427.8" cy="130.9" rx="30.7" ry="31.2"/>
	<ellipse class="st0" cx="341.9" cy="219" rx="30.7" ry="31.2"/>
	<ellipse class="st0" cx="427.8" cy="219" rx="30.7" ry="31.2"/>
	<ellipse class="st0" cx="84.2" cy="305.4" rx="30.7" ry="31.2"/>
	<ellipse class="st1" cx="170.1" cy="306.3" rx="30.7" ry="31.2"/>
	<ellipse class="st0" cx="256" cy="306.3" rx="30.7" ry="31.2"/>
	<ellipse class="st1" cx="341.9" cy="306.3" rx="30.7" ry="31.2"/>
	<ellipse class="st0" cx="427.8" cy="306.3" rx="30.7" ry="31.2"/>
	<ellipse class="st0" cx="84.2" cy="392.7" rx="30.7" ry="31.2"/>
	<ellipse class="st1" cx="170.1" cy="393.6" rx="30.7" ry="31.2"/>
	<ellipse class="st1" cx="256" cy="393.6" rx="30.7" ry="31.2"/>
	<ellipse class="st1" cx="256" cy="480.8" rx="30.7" ry="31.2"/>
	<ellipse class="st1" cx="341.9" cy="393.6" rx="30.7" ry="31.2"/>
	<ellipse class="st0" cx="427.8" cy="393.6" rx="30.7" ry="31.2"/>
</g>
</svg>