<svg xmlns="http://www.w3.org/2000/svg" xmlns:xlink="http://www.w3.org/1999/xlink" version="1.1" id="Layer_1" x="0px" y="0px" style="enable-background:new 0 0 512 512;" xml:space="preserve" viewBox="0 74.96 512 362.08">
<style type="text/css">
	.st0{fill:#F55848;}
</style>
<g transform="translate(0.000000,500.000000) scale(0.100000,-0.100000)">
	<path class="st0" d="M1991.3,4245.1c-714.9-17.4-1123.6-41-1303.8-77.8c-415.8-83-594-290.9-664.7-772.3   C1.2,3249.5-8,2266.3,8.4,1875c17.4-401.5,45.1-583.8,113.7-745.6c105.5-246.8,284.7-368.7,635-432.2   c229.4-42,757.9-66.6,1433.9-67.6c414.8,0,1656.2,27.7,1843.6,41c290.9,21.5,544.9,73.7,686.2,140.3   c232.5,110.6,349.3,381,389.2,904.4c13.3,171,13.3,1228,0,1425.7c-22.5,339-55.3,499.8-134.2,662.7   c-89.1,182.3-218.2,285.8-421,338c-131.1,33.8-445.5,67.6-868.5,93.2C3445.7,4250.2,2449.1,4255.3,1991.3,4245.1z M3338.1,3265.9   c0-3.1-173.1-300.1-384.1-659.6c-211-359.5-384.1-656.5-384.1-659.6s173.1-6.1,384.1-6.1h384.1v-163.9v-163.9h-778.4h-778.4v163.9   v163.9h385.1c316.5,0,384.1,2,380,13.3c-3.1,8.2-176.2,305.2-385.1,660.6s-380,648.3-380,651.4s350.3,6.1,778.4,6.1   S3338.1,3269,3338.1,3265.9z"/>
</g>
</svg>