<svg xmlns="http://www.w3.org/2000/svg" xmlns:xlink="http://www.w3.org/1999/xlink" version="1.1" id="image-2" x="0px" y="0px" style="enable-background:new 0 0 512 512;" xml:space="preserve" viewBox="23.3 -0.05 465.5 512.07">
<style type="text/css">
	.st0{fill:url(#SVGID_1_);}
	.st1{fill:url(#SVGID_00000139279571917114118500000003633723368208579721_);}
	.st2{fill:url(#SVGID_00000166669919905173184400000010847059198558906297_);}
	.st3{fill:url(#SVGID_00000065784332491623227540000000301258542248238763_);}
	.st4{fill:url(#SVGID_00000019674619386521290050000004086925096115562407_);}
	.st5{fill:url(#SVGID_00000130620687304150774550000011447745333212767894_);}
	.st6{fill:url(#SVGID_00000090278672175815590100000008291715985880337081_);}
	.st7{fill:url(#SVGID_00000046298303588665527350000009791078494396593025_);}
</style>
<g>
	
		<radialGradient id="SVGID_1_" cx="-44.7939" cy="657.7744" r="11.6368" gradientTransform="matrix(-11.7002 31.247 54.5012 20.4075 -36194.1562 -11923.3662)" gradientUnits="userSpaceOnUse">
		<stop offset="6.441000e-02" style="stop-color:#AE7FE2"/>
		<stop offset="1" style="stop-color:#0078D4"/>
	</radialGradient>
	<path class="st0" d="M210.4,11.9l-2.6,1.6c-4.2,2.5-8.1,5.3-11.7,8.4l7.5-5.3h64l11.6,88.1l-58.2,58.2l-58.2,40.4V250   c0,32.6,17,62.8,44.9,79.6l61.3,37.1l-129.4,75.5h-25L68.2,414c-27.9-16.9-44.9-47.1-44.9-79.6V177.6c0-32.6,17-62.8,44.9-79.7   l139.6-84.5C208.7,12.9,209.6,12.4,210.4,11.9z"/>
	
		<linearGradient id="SVGID_00000139991484741416014370000003493863108051805624_" gradientUnits="userSpaceOnUse" x1="253.6347" y1="138.9119" x2="198.2363" y2="234.7274" gradientTransform="matrix(1 0 0 -1 0 514)">
		<stop offset="0" style="stop-color:#114A8B"/>
		<stop offset="1" style="stop-color:#0078D4;stop-opacity:0"/>
	</linearGradient>
	<path style="fill:url(#SVGID_00000139991484741416014370000003493863108051805624_);" d="M210.4,11.9l-2.6,1.6   c-4.2,2.5-8.1,5.3-11.7,8.4l7.5-5.3h64l11.6,88.1l-58.2,58.2l-58.2,40.4V250c0,32.6,17,62.8,44.9,79.6l61.3,37.1l-129.4,75.5h-25   L68.2,414c-27.9-16.9-44.9-47.1-44.9-79.6V177.6c0-32.6,17-62.8,44.9-79.7l139.6-84.5C208.7,12.9,209.6,12.4,210.4,11.9z"/>
	
		<radialGradient id="SVGID_00000086688982686036698430000014148622824444182658_" cx="-47" cy="627.7985" r="11.6368" gradientTransform="matrix(30.7198 -4.5183 -2.9847 -20.2925 3415.6785 12926.9434)" gradientUnits="userSpaceOnUse">
		<stop offset="0.1339" style="stop-color:#D59DFF"/>
		<stop offset="1" style="stop-color:#5E438F"/>
	</radialGradient>
	<path style="fill:url(#SVGID_00000086688982686036698430000014148622824444182658_);" d="M349.1,197.8v52.1   c0,32.6-17,62.8-44.9,79.6l-139.6,84.5C136,431.4,100.5,432,71.4,416l136.4,82.6c29.6,17.9,66.8,17.9,96.4,0L443.8,414   c27.9-16.9,44.9-47.1,44.9-79.6v-37.7l-11.6-17.5L349.1,197.8z"/>
	
		<linearGradient id="SVGID_00000089534123684519721160000000454129130961413296_" gradientUnits="userSpaceOnUse" x1="389.7425" y1="281.4615" x2="330.3783" y2="196.3403" gradientTransform="matrix(1 0 0 -1 0 514)">
		<stop offset="0" style="stop-color:#493474"/>
		<stop offset="1" style="stop-color:#8C66BA;stop-opacity:0"/>
	</linearGradient>
	<path style="fill:url(#SVGID_00000089534123684519721160000000454129130961413296_);" d="M349.1,197.8v52.1   c0,32.6-17,62.8-44.9,79.6l-139.6,84.5C136,431.4,100.5,432,71.4,416l136.4,82.6c29.6,17.9,66.8,17.9,96.4,0L443.8,414   c27.9-16.9,44.9-47.1,44.9-79.6v-37.7l-11.6-17.5L349.1,197.8z"/>
	
		<radialGradient id="SVGID_00000091701135015010976050000001668859548516091009_" cx="-70.9059" cy="659.4777" r="11.6368" gradientTransform="matrix(-24.1583 -6.1256 -10.3118 40.6682 5541.8994 -26969.0078)" gradientUnits="userSpaceOnUse">
		<stop offset="5.849960e-02" style="stop-color:#50E6FF"/>
		<stop offset="1" style="stop-color:#436DCD"/>
	</radialGradient>
	<path style="fill:url(#SVGID_00000091701135015010976050000001668859548516091009_);" d="M443.8,97.9L304.2,13.4   c-28.7-17.4-64.4-17.9-93.6-1.6l-2.8,1.7c-27.9,16.9-44.9,47.1-44.9,79.7v110.4l44.9-27.2c29.6-17.9,66.7-17.9,96.4,0l139.6,84.5   c27,16.3,43.8,45.2,44.9,76.6c0-1,0.1-2,0.1-3.1V177.6C488.7,145,471.7,114.8,443.8,97.9z"/>
	
		<linearGradient id="SVGID_00000012443509562858402800000012005662509647104930_" gradientUnits="userSpaceOnUse" x1="174.2605" y1="345.2858" x2="261.6648" y2="345.2858" gradientTransform="matrix(1 0 0 -1 0 514)">
		<stop offset="0" style="stop-color:#2D3F80"/>
		<stop offset="1" style="stop-color:#436DCD;stop-opacity:0"/>
	</linearGradient>
	<path style="fill:url(#SVGID_00000012443509562858402800000012005662509647104930_);" d="M443.8,97.9L304.2,13.4   c-28.7-17.4-64.4-17.9-93.6-1.6l-2.8,1.7c-27.9,16.9-44.9,47.1-44.9,79.7v110.4l44.9-27.2c29.6-17.9,66.7-17.9,96.4,0l139.6,84.5   c27,16.3,43.8,45.2,44.9,76.6c0-1,0.1-2,0.1-3.1V177.6C488.7,145,471.7,114.8,443.8,97.9z"/>
	
		<radialGradient id="SVGID_00000157286218981346958460000005394081039811432585_" cx="-54.6527" cy="663.2119" r="0" gradientTransform="matrix(-24.1583 -6.1256 -10.3118 40.6682 5541.8994 -26969.0078)" gradientUnits="userSpaceOnUse">
		<stop offset="5.849960e-02" style="stop-color:#50E6FF"/>
		<stop offset="1" style="stop-color:#436DCD"/>
	</radialGradient>
	<path style="fill:url(#SVGID_00000157286218981346958460000005394081039811432585_);" d="M23.3,337.4L23.3,337.4z"/>
	
		<linearGradient id="SVGID_00000061472142428359702300000000823981040412186759_" gradientUnits="userSpaceOnUse" x1="23.3129" y1="176.5728" x2="23.3129" y2="176.5728" gradientTransform="matrix(1 0 0 -1 0 514)">
		<stop offset="0" style="stop-color:#2D3F80"/>
		<stop offset="1" style="stop-color:#436DCD;stop-opacity:0"/>
	</linearGradient>
	<path style="fill:url(#SVGID_00000061472142428359702300000000823981040412186759_);" d="M23.3,337.4L23.3,337.4z"/>
</g>
</svg>