<svg xmlns="http://www.w3.org/2000/svg" xmlns:xlink="http://www.w3.org/1999/xlink" viewBox="0 0 1007.922 821.827"><defs><radialGradient id="c" cx="410.201" cy="853.349" r="85" gradientTransform="rotate(45 546.823 785.354)" gradientUnits="userSpaceOnUse"><stop offset=".5" stop-opacity=".13"/><stop offset=".994" stop-opacity="0"/></radialGradient><radialGradient xlink:href="#c" id="e" cx="1051.126" cy="1265.852" r="85" gradientTransform="rotate(-135 769.601 767.5)"/><radialGradient xlink:href="#c" id="h" cx="27.608" cy="2001.37" r="85" gradientTransform="scale(1 -1) rotate(45 2979.231 860.248)"/><linearGradient id="a" x1="700.766" x2="749.765" y1="597.024" y2="597.024" gradientTransform="matrix(.867 0 0 1.307 86.603 -142.296)" gradientUnits="userSpaceOnUse"><stop offset="0" stop-opacity=".13"/><stop offset=".994" stop-opacity="0"/></linearGradient><linearGradient xlink:href="#a" id="f" x1="1880.8" x2="1929.799" y1="34.286" y2="34.286" gradientTransform="matrix(.867 0 0 -.796 -1446.031 767.147)"/><linearGradient id="i" x1="308.378" x2="919.318" y1="811.629" y2="200.689" gradientTransform="rotate(-45 613.848 506.16)" gradientUnits="userSpaceOnUse"><stop offset="0" stop-color="#2987e6"/><stop offset=".994" stop-color="#58c1f5"/></linearGradient><mask id="b" width="170" height="205.208" x="317.137" y="651.827" maskUnits="userSpaceOnUse"><path d="m402.137 736.828 60.104 60.104-60.104 60.104-60.104-60.104z" class="a"/></mask><mask id="d" width="205.208" height="205.208" x="837.922" y="95.835" maskUnits="userSpaceOnUse"><path d="M983.025 276.147 862.817 155.94l60.104-60.104 120.208 120.208z" class="a"/></mask><mask id="g" width="205.208" height="205.208" x="-35.208" y="299.482" maskUnits="userSpaceOnUse"><path d="M-35.208 419.69 85 299.482l60.104 60.104L24.896 479.794z" class="a"/></mask><style>.a{fill:#fff}</style></defs><path d="M694.422 269.785h42.5v736.5h-42.5z" style="fill:url(#a)" transform="rotate(45 852.293 570.04)"/><g style="mask:url(#b)"><circle cx="402.137" cy="736.827" r="85" style="fill:url(#c)"/></g><g style="mask:url(#d)"><circle cx="922.922" cy="216.043" r="85" style="fill:url(#e)"/></g><path d="M185.305 515.608h42.5v448.5h-42.5z" style="fill:url(#f)" transform="rotate(135 226.655 679.927)"/><g style="mask:url(#g)"><circle cx="85" cy="419.69" r="85" style="fill:url(#h)"/></g><rect width="288" height="576" x="164.378" y="319.982" rx="42.5" style="fill:#195abd" transform="rotate(-45 163.692 559.456)"/><rect width="288" height="864" x="469.848" y="74.159" rx="42.5" style="fill:url(#i)" transform="rotate(45 750.47 438.164)"/></svg>