<svg xmlns="http://www.w3.org/2000/svg" xmlns:xlink="http://www.w3.org/1999/xlink" viewBox="0 0 1007.922 821.827"><defs><style>.a{fill:#fff;}.b{fill:url(#a);}.c{mask:url(#b);}.d{fill:url(#c);}.e{mask:url(#d);}.f{fill:url(#e);}.g{fill:url(#f);}.h{mask:url(#g);}.i{fill:url(#h);}.j{fill:#195abd;}.k{fill:url(#i);}</style><linearGradient id="a" x1="700.766" y1="597.024" x2="749.765" y2="597.024" gradientTransform="translate(86.603 -142.296) scale(0.867 1.307)" gradientUnits="userSpaceOnUse"><stop offset="0" stop-opacity="0.13"/><stop offset="0.994" stop-opacity="0"/></linearGradient><mask id="b" x="317.137" y="651.827" width="170" height="205.208" maskUnits="userSpaceOnUse"><g transform="translate(-8.064 -116.521)"><rect class="a" x="367.701" y="870.953" width="85" height="85" transform="translate(766.054 -22.512) rotate(45)"/></g></mask><radialGradient id="c" cx="410.201" cy="853.349" r="85" gradientTransform="translate(715.49 -156.637) rotate(45)" gradientUnits="userSpaceOnUse"><stop offset="0.5" stop-opacity="0.13"/><stop offset="0.994" stop-opacity="0"/></radialGradient><mask id="d" x="837.922" y="95.835" width="205.208" height="205.208" maskUnits="userSpaceOnUse"><g transform="translate(-8.064 -116.521)"><rect class="a" x="876.038" y="260.012" width="170" height="85" transform="translate(1426.685 1195.977) rotate(-135)"/></g></mask><radialGradient id="e" cx="1051.126" cy="1265.852" r="85" gradientTransform="translate(771.087 1854.394) rotate(-135)" xlink:href="#c"/><linearGradient id="f" x1="1880.8" y1="34.286" x2="1929.799" y2="34.286" gradientTransform="matrix(0.867, 0, 0, -0.796, -1446.031, 767.147)" xlink:href="#a"/><mask id="g" x="-35.208" y="299.482" width="205.208" height="205.208" maskUnits="userSpaceOnUse"><g transform="translate(-8.064 -116.521)"><rect class="a" x="-21.988" y="463.659" width="170" height="85" transform="translate(-339.453 192.807) rotate(-45)"/></g></mask><radialGradient id="h" cx="27.608" cy="2001.37" r="85" gradientTransform="matrix(0.707, -0.707, -0.707, -0.707, 1480.66, 1854.394)" xlink:href="#c"/><linearGradient id="i" x1="308.378" y1="811.629" x2="919.318" y2="200.689" gradientTransform="translate(-178.117 582.307) rotate(-45)" gradientUnits="userSpaceOnUse"><stop offset="0" stop-color="#2987e6"/><stop offset="0.994" stop-color="#58c1f5"/></linearGradient></defs><title>Todo</title><rect class="b" x="694.422" y="269.785" width="42.5" height="736.5" transform="translate(652.71 -435.701) rotate(45)"/><g class="c"><circle class="d" cx="402.137" cy="736.827" r="85"/></g><g class="e"><circle class="f" cx="922.922" cy="216.043" r="85"/></g><rect class="g" x="185.305" y="515.608" width="42.5" height="448.5" transform="translate(867.705 1000.439) rotate(135)"/><g class="h"><circle class="i" cx="85" cy="419.69" r="85"/></g><rect class="j" x="164.378" y="319.982" width="288" height="576" rx="42.5" transform="translate(-347.651 279.609) rotate(-45)"/><rect class="k" x="469.848" y="74.159" width="288" height="864" rx="42.5" transform="translate(529.636 -402.327) rotate(45)"/></svg>