<svg xmlns="http://www.w3.org/2000/svg" width="512" height="512" viewBox="0 0 48 48"><circle cx="28" cy="23.996" r="7.996" fill="#fff"/><linearGradient id="a" x1="29" x2="49.8" y1="23.513" y2="23.513" gradientUnits="userSpaceOnUse"><stop offset="0" stop-color="#b8b8b8"/><stop offset=".266" stop-color="#bbb"/><stop offset=".499" stop-color="#c6c6c6"/><stop offset=".72" stop-color="#d8d8d8"/><stop offset=".932" stop-color="#f0f0f1"/><stop offset="1" stop-color="#fafafb"/></linearGradient><path fill="url(#a)" d="m42.242 25.832-3.25-1.678c.001-.053.008-.105.008-.158 0-.906-.122-1.782-.328-2.624l2.792-2.369a.999.999 0 0 0 .228-1.247l-1.144-2.064a1 1 0 0 0-1.178-.468l-3.484 1.111a11.042 11.042 0 0 0-2.194-1.74l.299-3.65a1 1 0 0 0-.721-1.043L31 9.252a1 1 0 0 0-1.164.503l-1.678 3.25c-.053-.001-.105-.008-.158-.008-6.075 0-11 4.925-11 11s4.925 11 11 11c.906 0 1.782-.122 2.624-.328l2.369 2.792a.999.999 0 0 0 1.247.228l2.064-1.144a1 1 0 0 0 .468-1.178l-1.111-3.484c.67-.651 1.252-1.39 1.74-2.194l3.65.299a1 1 0 0 0 1.043-.721l.651-2.269c.131-.46-.08-.948-.503-1.166zM28 30.996a7 7 0 1 1 0-14 7 7 0 0 1 0 14zm3-7a3 3 0 1 1-6 0 3 3 0 0 1 6 0z"/><path d="M26.001 17.289A6.983 6.983 0 0 1 28 16.995v-4c-.684 0-1.35.071-2 .19l.001 4.104zM28 20.996c-.771 0-1.467.299-1.999.778v4.445a2.977 2.977 0 0 0 1.999.777v-6zm-1.998 9.707v4.103c.649.119 1.315.19 1.998.19v-4a7.006 7.006 0 0 1-1.998-.293z" opacity=".05"/><path d="M27.5 21.046a2.951 2.951 0 0 0-1 .366v5.168c.305.177.639.305 1 .366v-5.9zm-1-3.885c.325-.071.66-.116 1-.14v-4c-.338.015-.671.044-1 .089v4.051zm1 13.81a6.998 6.998 0 0 1-1-.14v4.051c.329.045.662.074 1 .089v-4z" opacity=".07"/><linearGradient id="b" x1="26.869" x2="5.161" y1="23.992" y2="24.194" gradientUnits="userSpaceOnUse"><stop offset="0" stop-color="#6b6b6b"/><stop offset=".96" stop-color="#464646"/><stop offset="1" stop-color="#444"/></linearGradient><path fill="url(#b)" d="m25.813 42.982-20-3.827A1 1 0 0 1 5 38.172V9.828a1 1 0 0 1 .813-.982l20-3.827A.999.999 0 0 1 27 6v36a1 1 0 0 1-1.187.982z"/><path fill="#fff" d="m21.278 30.874-2.91-.117-.864-3.07-3.897-.047-.695 2.898-2.482-.1 3.545-13.061 2.92-.251 4.383 13.748zm-4.394-5.542-1.264-4.496a6.816 6.816 0 0 1-.202-1.193l-.061.004a6.241 6.241 0 0 1-.172 1.175l-1.102 4.538 2.801-.028z"/></svg>