<?xml version="1.0" encoding="utf-8"?>
<!-- Generator: Adobe Illustrator 27.6.1, SVG Export Plug-In . SVG Version: 6.00 Build 0)  -->
<svg version="1.1" id="Layer_1" xmlns="http://www.w3.org/2000/svg" xmlns:xlink="http://www.w3.org/1999/xlink" x="0px" y="0px"
	 viewBox="0 0 633.3 512" style="enable-background:new 0 0 633.3 512;" xml:space="preserve">
<style type="text/css">
	.st0{fill:url(#SVGID_1_);}
	.st1{fill:url(#SVGID_00000093892213872458176890000014052301266496789927_);}
	.st2{fill:url(#SVGID_00000006706339824719076340000014765999334198128063_);}
	.st3{fill:#231F1F;}
</style>
<g>
	
		<linearGradient id="SVGID_1_" gradientUnits="userSpaceOnUse" x1="62.2297" y1="81.8731" x2="62.4831" y2="81.8731" gradientTransform="matrix(99.8224 -58.9835 -58.9835 -99.8224 -1102.2345 12157.9932)">
		<stop  offset="0" style="stop-color:#909CA9"/>
		<stop  offset="1" style="stop-color:#EDEDEE"/>
	</linearGradient>
	<path class="st0" d="M429.3,163l-69.9,22.8l-60.8,26.9l-17,4.5c-4.3,4.1-8.9,8.3-13.8,12.5c-5.4,4.7-10.4,8.9-14.3,11.9
		c-4.3,3.4-10.6,9.7-13.8,13.7c-4.8,6-8.6,12.4-10.3,17.3c-2.9,8.9-1.5,17.9,4.1,26.2c7.2,10.6,21.5,21.4,38.2,28.7
		c8.5,3.8,22.8,8.6,33.6,11.3c17.9,4.5,52.6,9.5,71.7,10.2c3.9,0.2,9,0.2,9.3,0c0.4-0.3,3.4-5.9,6.8-13
		c11.7-23.9,20.2-46.4,24.8-65.6c2.7-11.6,4.9-27.1,6.3-45.5c0.4-5.1,0.5-22.3,0.2-28.1c-0.5-9.5-1.3-17.2-2.6-24.8
		c-0.2-1.1-0.3-2.1-0.2-2.2c0.2-0.2,0.8-0.4,9.5-2.9L429.3,163L429.3,163L429.3,163L429.3,163z M413.4,172.4
		c0.6,0,2.3,16.2,2.7,26.5c0.1,2.2,0.1,3.6-0.1,3.6c-0.4,0-8.9-5-15-8.8c-5.3-3.3-15.3-10-16.9-11.3c-0.5-0.4-0.5-0.4,3.9-1.9
		C395.4,178,412.8,172.4,413.4,172.4z M377.8,184.1c0.5,0,1.7,0.7,4.6,2.5c10.9,6.8,25.7,15.1,32,17.8c2,0.8,2.2,0.5-2.3,3.6
		c-9.6,6.6-21.6,13-36.3,19.5c-2.6,1.2-4.8,2.1-4.8,2.1c-0.1,0,0.2-1.3,0.6-2.9c3.5-13.2,5.6-26.5,5.7-37.2
		C377.3,184.2,377.3,184.2,377.8,184.1C377.6,184.1,377.7,184.1,377.8,184.1z M370.4,186.9c0.3,0.3,0.1,12.2-0.3,15.4
		c-1,7.7-2.4,14.9-4.9,23c-0.6,2-1.1,3.6-1.2,3.7c-0.2,0.3-7.5-6.8-9.8-9.6c-4.1-4.8-7.3-9.5-9.7-14.2c-1.2-2.4-3.1-7-3-7.2
		C342.3,197.5,370.2,186.7,370.4,186.9z M335.8,200.5c0.1,0,0.1,0,0.2,0.1c0.1,0.1,0.5,1,0.8,1.9c1.7,4.6,5.5,11.4,8.8,15.7
		c3.6,4.8,8.3,9.8,12.2,13.2c1.3,1.1,2.4,2.1,2.6,2.2c0.3,0.3,0.4,0.3-8.2,3.5c-10,3.8-20.9,7.6-33.4,11.6c-3,1-6,1.9-8.9,2.9
		c-0.5,0.2-0.3-0.1,1.1-2.3c6.2-9.7,15.6-28.7,20.9-42.1c0.9-2.3,1.8-4.7,2-5.2c0.2-0.7,0.5-1,1.2-1.4
		C335.3,200.6,335.7,200.5,335.8,200.5z M325.3,204.9c0.2,0.1-2.5,5.8-5.2,10.9c-5.1,10-10.7,19.8-18.2,31.8c-1.3,2.1-2.5,4-2.6,4.2
		c-0.3,0.4-0.4,0.3-1.2-1.4c-1.8-3.5-3.3-8.1-4.1-12.3c-0.8-4.1-0.6-11.3,0.3-15.8c0.7-3.3,0.6-3.2,2.2-4
		C303.2,214.9,325,204.7,325.3,204.9z M416.4,208.6v2.2c0,11.8-1.3,28-3.1,39.8c-0.3,2.1-0.6,3.8-0.6,3.8c0,0-1.5-0.4-3.3-1
		c-7.9-2.5-16.5-6.1-24.3-10.4c-5.1-2.8-12.6-7.4-12.4-7.6c0.1-0.1,2.3-1.2,4.9-2.6c10.4-5.4,20.3-11.2,28.9-17
		c3.2-2.2,8.1-5.7,9.1-6.6L416.4,208.6z M285.3,224.2c0.2,0,0.2,0.4-0.2,2.3c-0.2,1.4-0.5,3.9-0.6,5.7c-0.4,7.7,0.8,13.4,4.7,21.3
		c1.1,2.2,1.9,4,1.9,4c-0.4,0.3-35.4,10.6-46.4,13.6c-3.3,0.9-6.1,1.7-6.3,1.7c-0.4,0.1-0.4,0.1-0.3-0.8c1.2-7.8,7.1-17.9,15.4-26.5
		c5.5-5.7,9.9-9,17.4-13.3c5.4-3.1,13.7-7.7,14.3-7.9C285.2,224.2,285.3,224.2,285.3,224.2z M367.8,239c0.1-0.1,1.3,0.6,2.9,1.5
		c11.3,6.6,27.1,12.6,40.5,15.8l1.2,0.3l-1.7,1c-7,3.9-30.1,13.5-53.8,22.4c-3.4,1.3-6.8,2.5-7.5,2.8c-0.6,0.3-1.2,0.4-1.2,0.4
		c0-0.1,1-1.9,2.2-4.2c6.6-12.4,13.3-27.4,16.7-37.9C367.5,239.9,367.8,239,367.8,239L367.8,239z M359.4,241.7
		c0.1,0.1-0.4,1.2-0.9,2.4c-4.6,11.2-10.6,23.3-18.3,37c-2,3.5-3.6,6.3-3.6,6.3c-0.1,0-1.6-1-3.5-2.1c-11.2-6.9-21.1-15.3-27.6-23.5
		l-1-1.2l4.8-1.3c17.2-4.7,31.9-9.8,46.4-16C357.7,242.4,359.4,241.7,359.4,241.7z M411.6,260C411.6,260,411.7,260,411.6,260
		c0.1,1.2-2.6,12.1-4.9,20c-1.8,6.6-3.4,11.8-6.3,20.9c-1.3,4-2.4,7.3-2.4,7.3c-0.1,0-0.4-0.1-0.7-0.2c-15.7-2.9-29.8-6.8-43-12.1
		c-3.7-1.5-9-3.9-9.3-4.1c-0.1-0.1,3.1-1.6,7.1-3.3c24.1-10.5,49-22.5,57.6-27.6C410.7,260.3,411.5,260,411.6,260z M291.1,264.1
		c0.1,0.1-6.6,9.8-16,22.9c-3.3,4.6-7.1,10-8.5,12c-1.4,2-3.6,5.2-4.8,7.1l-2.2,3.4l-2.4-2c-2.8-2.3-7.7-7.3-9.8-10
		c-4.5-5.7-7.6-11.6-8.8-17.1c-0.6-2.5-0.6-3.8-0.1-4c0.8-0.2,14.9-3.5,28.1-6.6c7.3-1.7,15.9-3.7,18.9-4.4
		C288.5,264.7,291,264.1,291.1,264.1z M297.8,266.7l1.7,1.9c7.6,8.5,15.4,14.8,24.8,20.3c1.7,1,3,1.8,2.9,1.9
		c-0.4,0.3-32.7,11.7-47.6,16.9c-8.4,3-15.3,5.3-15.4,5.3c-0.1,0-0.5-0.3-1.1-0.7l-1-0.7l1.5-2.2c5-7.2,11.2-15.1,24.8-31.5
		L297.8,266.7L297.8,266.7z M340,296.9c0.1-0.1,2.4,0.8,5.2,1.9c6.9,2.6,12.3,4.2,19.6,6.1c9,2.3,22,4.5,29.7,5.1
		c1.2,0.1,1.8,0.2,1.6,0.4c-0.4,0.2-8.1,2.8-13.8,4.6c-9.1,2.9-36.8,11-59.5,17.6c-4.2,1.2-7.8,2.2-8,2.3c-0.5,0.1-2.3-0.4-2.3-0.6
		c0-0.1,1.3-1.7,2.8-3.5c7.6-9.1,15.2-19.2,21.5-28.9C338.5,299.1,340,296.9,340,296.9z M330.7,297.1c0.1,0.1-3.7,6.1-10.3,16.4
		c-2.8,4.4-5.9,9.4-7,11.1c-1.1,1.7-2.6,4.3-3.5,5.8l-1.5,2.7l-0.8-0.2c-1.9-0.5-15.3-5.2-18.8-6.7c-4.4-1.7-8.9-3.9-12.3-5.7
		c-4.2-2.3-9.5-5.7-9.1-5.8c0.1-0.1,7.3-2,16.1-4.4c23.2-6.3,36-9.9,44.4-12.6C329.3,297.5,330.7,297.1,330.7,297.1z M396.5,312.6
		L396.5,312.6c0.3,0.5-8.3,24.3-11.4,31.8c-0.7,1.7-0.9,2.1-1.3,2.1c-0.9-0.1-13.3-1.8-20.9-2.9c-13.2-2-35.3-5.9-40.8-7.1l-1.3-0.3
		l7.9-1.8c16.9-3.8,25.1-5.9,33.3-8.4c10.4-3.2,20.7-7.1,31.1-12C394.8,313.2,396.1,312.6,396.5,312.6z"/>
	
		<linearGradient id="SVGID_00000155855593523797155830000009251291038954575549_" gradientUnits="userSpaceOnUse" x1="61.4397" y1="73.1507" x2="61.693" y2="73.1507" gradientTransform="matrix(80.3196 0 0 -80.3196 -4653.7168 5908.4995)">
		<stop  offset="0" style="stop-color:#939FAB"/>
		<stop  offset="1" style="stop-color:#DCDEE1"/>
	</linearGradient>
	<path style="fill:url(#SVGID_00000155855593523797155830000009251291038954575549_);" d="M357.2,0c-1.2-0.2-19.9,6.6-32,11.5
		c-16.3,6.7-29,13-36.8,18.5c-2.9,2.1-6.6,5.7-7.1,7.1c-0.2,0.5-0.3,1.2-0.3,1.8l7.1,6.7l16.9,5.4l40.1,7.2l45.9,7.9l0.5-4
		c-0.2,0-0.3-0.1-0.4-0.1l-6-1l-1.2-2.2c-6.2-11-13.1-24.6-17.1-33.8c-3.1-7.1-6.1-15.4-7.7-21.3C357.9,0.3,357.8,0.1,357.2,0
		L357.2,0L357.2,0L357.2,0z M356.4,2.7L356.4,2.7c0.1,0.1,0.3,1.5,0.5,3.3c0.9,7.4,2.5,14.5,5.1,22.3c2,5.8,2,5.5-0.3,4.8
		c-5.4-1.5-29.5-5.7-47-8.1c-2.8-0.4-5.2-0.7-5.2-0.8c-0.2-0.2,12.6-6.9,18.3-9.6C335,11.3,354.9,3,356.4,2.7z M305.4,26.4l2.1,0.7
		c11.2,3.8,39.4,9.2,54.9,10.5c1.7,0.2,3.2,0.3,3.3,0.3c0.1,0.1-1.4,0.8-3.3,1.7c-7.5,3.8-15.8,8.4-21.5,11.9
		c-1.7,1.1-3.2,1.9-3.4,1.9c-0.2,0-1.3-0.2-2.5-0.4l-2.1-0.3l-5.3-5.2c-9.3-9-16.6-16-19.4-18.7L305.4,26.4z M303.3,28l7.5,9.3
		c4.1,5.1,8.2,10.1,9.1,11.3c0.9,1.1,1.6,2,1.6,2.1c-0.2,0.2-10.8-1.9-16.4-3.2c-5.8-1.3-8.1-2-11.7-3.1l-2.9-1v-0.7
		c0.1-3.5,4.5-8.8,12.2-14.2L303.3,28z M366.7,40.7c0.2,0,0.5,0.5,1.1,1.9c1.8,4,7.4,14.6,8.8,16.7c0.4,0.7,1.2,0.7-6.3-0.5
		c-17.9-2.9-23.7-3.9-23.7-4c0-0.1,0.5-0.4,1.2-0.8c5.6-3.1,11.2-7,16.1-11.2c1.2-1,2.3-2,2.5-2.1C366.5,40.7,366.6,40.7,366.7,40.7
		z"/>
	
		<radialGradient id="SVGID_00000173846118209748269600000009344715060407138236_" cx="62.5549" cy="82.1448" r="0.146" gradientTransform="matrix(-177.6748 -26.6887 -53.9771 355.3494 15932.1455 -27394.3066)" gradientUnits="userSpaceOnUse">
		<stop  offset="0" style="stop-color:#EE352C"/>
		<stop  offset="1" style="stop-color:#A91D22"/>
	</radialGradient>
	<path style="fill:url(#SVGID_00000173846118209748269600000009344715060407138236_);" d="M281.6,36.4c0,0-1.2,1.9-0.1,4.6
		c0.7,1.7,2.7,3.8,5,5.9c0,0,23.5,22.9,26.4,26.2c13,15,18.7,29.8,19.2,50.2c0.3,13.1-2.2,24.6-8.4,38c-11,24-34.2,50.5-70,79.9
		l5.2-1.7c3.4-2.5,8-5.2,18.8-11.2c24.9-13.6,52.9-26.2,87.3-39.1c49.5-18.6,130.8-40.4,177.1-47.5l4.8-0.7l-0.7-1.2
		c-4.2-6.6-7.1-10.6-10.6-15c-10.1-12.6-22.5-22.8-37.5-31.2c-20.7-11.6-47.5-20.6-81.5-27.3c-6.4-1.3-20.5-3.7-31.9-5.4
		c-24.2-3.8-39.9-6.3-57.1-9.3c-6.2-1.1-15.4-2.6-21.6-4c-3.2-0.7-9.3-2.1-14-3.8C288.3,42.4,282.8,40.9,281.6,36.4z M295.2,49.6
		c0.1-0.1,0.9,0.3,2,0.6c2,0.7,4.6,1.5,7.7,2.3c2.3,0.6,4.6,1.3,7,1.9c3.2,0.8,5.8,1.5,5.9,1.5c0.4,0.4,5.7,17.4,7.5,24
		c0.7,2.5,1.2,4.6,1.2,4.6c-0.1,0.1-0.6-0.8-1.3-2.1c-6.2-10.9-16-21.9-27.3-30.8C296.3,50.6,295.2,49.7,295.2,49.6z M321.2,56.8
		c0.3,0,1.4,0.2,2.9,0.5c9,2,25.1,5.1,35.4,6.8c1.7,0.3,3.1,0.6,3.1,0.7c0,0.1-0.6,0.5-1.4,0.9c-1.7,0.9-8.8,5.1-11.1,6.7
		c-5.9,3.9-11.2,8.1-15,11.9c-1.5,1.5-2.9,2.8-2.9,2.8s-0.3-0.9-0.6-2c-1.9-7.3-5.9-18.2-9.5-25.9C321.7,58,321.2,56.9,321.2,56.8
		C321.2,56.9,321.2,56.8,321.2,56.8L321.2,56.8z M367,65.6c0.3,0.1,0.8,1.9,1.9,5.9c2,7.7,2.9,16.2,2.5,24.2
		c-0.1,2.2-0.2,4.3-0.3,4.5l-0.2,0.5l-2.7-0.9c-5.7-1.8-14.9-4.5-22.7-6.7c-4.5-1.2-8.1-2.3-8.1-2.4c0-0.3,6.6-6.9,9.4-9.4
		C352.1,76.6,366.5,65.4,367,65.6z M370.7,66.1c0.2-0.2,21.9,3.6,31.8,5.5c7.3,1.4,18,3.6,18.7,3.9c0.3,0.1-0.8,0.7-4.3,2.3
		c-14,6.3-24.3,11.9-34.6,18.8c-2.7,1.8-5,3.3-5,3.3c-0.1,0-0.1-1.5-0.1-3.4c0-10-2-20.2-5.7-28.8C370.9,66.9,370.6,66.1,370.7,66.1
		z M426.9,77.2c0.2,0.2-0.5,4.4-1.2,7c-1.9,7.9-7,19.6-13.3,30.6c-1.1,2-2.1,3.5-2.2,3.6c-0.1,0.1-1.5-0.7-3.2-1.7
		c-6.1-3.6-13.1-7-20.7-10.1c-2.1-0.9-4-1.6-4-1.7c-0.4-0.3,16.7-11.6,25.6-17C415,83.4,426.6,77,426.9,77.2z M430.9,77.8
		c0.5,0,10.1,2.6,15.1,4.1c12.4,3.7,26.7,8.9,36,13.2l3.9,1.7l-2.7,0.6c-22.7,5.2-42.2,11.3-60.9,18.9c-1.5,0.6-2.9,1.2-3,1.2
		c-0.1,0,0.4-1.2,1.1-2.7c5.7-12,9.3-24.5,10.2-35.2C430.6,78.6,430.7,77.8,430.9,77.8L430.9,77.8z M335.1,99.8
		c0.2-0.2,7.5,1.6,11.5,2.7c6,1.7,18.8,6,18.8,6.3c0,0.1-1.4,1.3-3.1,2.7c-6.9,5.8-13.6,11.8-21.6,19.6c-2.4,2.3-4.4,4.1-4.5,4.1
		c-0.1,0-0.2-0.3-0.1-0.7c1.2-8.9,1-20.3-0.7-31.9C335.2,101.1,335,99.9,335.1,99.8z M489.5,100c0.1,0.1-3.4,5.6-5.6,8.7
		c-3.2,4.5-7.8,10.6-18.3,23.8c-5.5,7-11.8,14.9-13.8,17.5c-2.1,2.6-3.9,4.9-3.9,4.9c-0.1,0-0.7-1-1.5-2.1
		c-5.9-8.9-13-16.7-21.4-23.6c-1.6-1.3-3.3-2.7-3.9-3.2c-0.6-0.4-1.1-0.8-1.1-0.9c0-0.2,9-4,15.8-6.8c11.9-4.9,28.2-10.7,40.4-14.4
		C482.6,101.8,489.4,99.9,489.5,100z M493.6,101c0.2-0.1,1.5,0.6,3,1.5c12.8,7.3,25.4,16.8,35.4,26.5c2.8,2.7,9.7,9.9,9.6,10
		c0,0-2.4,0.2-5.3,0.4c-22.3,1.7-50.7,6.4-78.1,13c-1.9,0.4-3.5,0.8-3.6,0.8c-0.1,0,2-2.1,4.5-4.5c16.1-15.5,23.4-25.3,32.1-42.7
		C492.4,103.4,493.5,101.2,493.6,101C493.5,101,493.5,101,493.6,101z M375.8,113.1c0.7,0.2,7.6,3.4,12.8,6
		c4.8,2.4,11.9,6.2,12.3,6.5c0.1,0.1-2.5,1.4-5.6,2.9c-9.9,5-18.4,9.7-27.3,15.1c-2.5,1.5-4.7,2.8-4.7,2.8c-0.2,0-0.2-0.2,1.3-2.8
		c4.8-8.7,8.6-19,10.7-29.1C375.5,113.6,375.7,113.1,375.8,113.1z M369,114.3c0.2,0.2-1.6,6.7-2.7,10.2c-2.2,6.7-5.8,15.1-9.4,21.5
		c-0.8,1.5-2.1,3.6-2.8,4.9l-1.3,2.1l-3-2.9c-3.4-3.3-6.2-5.4-9.8-7.2c-1.4-0.7-2.5-1.4-2.5-1.5c0-0.4,9-8.6,16-14.5
		C358.4,122.6,368.8,114.2,369,114.3z M411,131.6l2.6,1.7c5.9,3.9,12.9,9,18.2,13.5c3,2.5,8.8,7.7,10,9l0.6,0.7l-4.3,1.2
		c-24.2,6.7-42.9,12.7-64.8,20.7c-2.4,0.9-4.5,1.6-4.7,1.6c-0.3,0-0.6,0.3,4.9-4.8c14-12.8,26.3-27,35.5-40.8L411,131.6z M400,134.4
		c0.1,0.1-7.1,10.3-11.5,16.1c-5.2,6.9-14.4,18.4-20.7,25.9c-2.6,3.1-4.9,5.7-5,5.8c-0.2,0.1-0.2-0.7-0.2-2c0-6.4-1.6-13.2-4.5-19
		c-1.2-2.4-1.4-3-1.2-3.3c1-0.9,16.4-9.7,26.1-14.9C389.5,139.5,399.8,134.3,400,134.4L400,134.4z M333.1,150.8
		c0.2,0,1.4,0.6,2.7,1.4c3.4,1.8,6.4,3.9,9.1,6.1c0.1,0.1-1.3,1.2-3.1,2.5c-5,3.6-12.6,9.4-17.1,12.9c-4.7,3.7-4.8,3.8-4.3,3
		c3.5-5.3,5.2-8.4,7.1-12.2c1.6-3.4,3.3-7.5,4.4-11C332.5,151.9,333,150.8,333.1,150.8z M351,164.7c0.3-0.1,0.6,0.4,2,2.5
		c3,4.5,5.3,10.5,5.9,15.4l0.1,1.1l-7.2,2.8c-13,5-24.9,10-33,13.7c-2.3,1.1-6.2,3-8.8,4.2c-2.6,1.3-4.7,2.3-4.7,2.3
		c0-0.1,1.6-1.3,3.6-2.7c15.8-11.5,29.5-24.1,39.8-36.6c1.1-1.3,2.1-2.5,2.2-2.6L351,164.7L351,164.7z M342.8,166.7
		c0.2,0.2-5.8,7-9.9,11.2c-10.2,10.4-20.3,18.6-32.8,26.5c-1.6,1-3,1.9-3.2,2c-0.4,0.2,0.1-0.3,5.6-6.3c3.5-3.8,6.1-6.9,9.1-10.8
		c2-2.6,2.4-3,5.3-5C324.6,178.7,342.5,166.5,342.8,166.7z"/>
	<path class="st3" d="M113.8,385.6c-1,0-2,0.1-2.9,0.1c-19.7,1-33,9.7-40.7,26.6c-6.6,15.3-5.9,35.3,0.1,50.7c7,15.1,18.2,23,37,26
		c4,0.7,6.6,2.8,14.3,11.8l9.5,11.1h17.2l-11.4-11.5c-6.3-6.3-11.4-11.8-11.4-12.3s2.4-1.5,5.3-2.4c9.6-2.9,17.7-10.4,23.3-21.8
		c4.5-9.2,5.2-12,5.8-23.4C161.6,406.6,143.7,385.4,113.8,385.6L113.8,385.6z M128.9,474.4c-8.4,4-20.5,4.9-28.4,2
		c-8.2-3-16.1-11.5-19.7-21.2c-4-10.5-3.4-30,1.1-38.7c7.3-13.9,16.9-20.3,31-20.3c20.9,0,32.8,12.8,34.3,36.9
		C148.5,453.1,141.8,468.2,128.9,474.4L128.9,474.4z M425.8,414.6c-7.2,0-12.7,2.9-16.4,8.7l-2.9,4.6V416H394v71h12.5v-22.7
		c0-20.7,0.3-23.2,3.2-28.8c4-7.8,10.9-11.7,17.5-9.8l4.5,1.3v-12.3L425.8,414.6L425.8,414.6L425.8,414.6z M352.5,414
		c-2.4,0-5,0.3-7.6,0.9c-16.7,4.4-26.1,20.3-25.5,36.8c0,13.8,2.7,20.7,9.3,27.9c13.6,11.2,25.9,12.1,42.5,6.1
		c2.8-1.2,5.9-2.6,5.9-2.6v-11.2l-5.9,3.1c-13.4,5.9-23.6,5.9-31.7-1c-5.2-5.3-7.5-11.6-8.5-18.8h50.3v-9.6
		C381.3,426,369.6,413.7,352.5,414L352.5,414L352.5,414z M332.2,445.1c0,0,1.9-12.2,8.8-16.9c3.3-2.3,7.1-3.5,10.9-3.5
		c3.7,0,7.5,1.2,10.5,3.6c6.3,4.9,7.4,16.8,7.4,16.8L332.2,445.1L332.2,445.1L332.2,445.1z M31.4,432.3
		c-13.5-8.2-19.5-14.1-18.8-21.1c2.1-19.3,25.9-16.6,39.1-9.3l0.1-13c0,0-7.3-3.2-17.7-3.3c-16-0.2-26.4,5-31.3,15.7
		c-7.1,15.8-0.8,27.7,22,41c12.8,7.5,18.5,13.9,18.5,21c0,14.6-17.6,19.7-35.7,10.5c-3.7-1.9-6.9-3.4-7.1-3.4
		c-0.7,4.1-0.3,14-0.3,14s5.6,2.3,13.9,4c20.7,4.1,39.6-5.6,41.4-21.4C57.1,452.2,51.7,444.4,31.4,432.3L31.4,432.3z M536.2,413.8
		c-2.4,0-5,0.3-7.7,0.9c-16.7,4.4-26.1,20.3-25.4,36.8c0,13.8,2.7,20.6,9.3,27.8c13.6,11.2,25.9,12.1,42.6,6.1
		c2.8-1.2,5.9-2.6,5.9-2.6v-11.2l-5.9,3.1c-13.5,5.8-23.6,5.8-31.7-1.1c-5.2-5.3-7.5-11.5-8.5-18.8h50.2v-9.6
		C565.1,425.8,553.3,413.5,536.2,413.8L536.2,413.8z M515.9,444.9c0,0,1.9-12.2,8.8-17c3.3-2.3,7.1-3.5,10.8-3.5
		c3.7,0,7.5,1.2,10.5,3.6c6.3,4.9,7.4,16.9,7.4,16.9L515.9,444.9L515.9,444.9L515.9,444.9z M287.2,432.4
		c-13.5-8.2-19.5-14.1-18.8-21.1c2.1-19.3,25.9-16.6,39.1-9.3l0.1-13c0,0-7.3-3.2-17.7-3.3c-16-0.2-26.4,5-31.3,15.7
		c-7.1,15.8-0.7,27.7,22,41c12.8,7.5,18.5,13.8,18.5,20.9c0,14.6-17.6,19.8-35.7,10.5c-3.7-1.9-6.9-3.4-7.1-3.4
		c-0.7,4.1-0.3,14-0.3,14s5.5,2.3,13.8,4c20.8,4.1,39.6-5.6,41.4-21.4C312.8,452.4,307.5,444.6,287.2,432.4L287.2,432.4L287.2,432.4
		z M609.6,414.5c-7.2,0-12.8,2.9-16.4,8.7l-2.9,4.5v-11.8h-12.5v71h12.5v-22.7c0-20.7,0.2-23.2,3.2-28.8c4-7.8,10.9-11.7,17.5-9.8
		l4.5,1.3v-12.3L609.6,414.5L609.6,414.5z M188,432v-45.2h-12.6V487h52.9v-11.8H188L188,432L188,432z M478.9,446.1l-10.4,27
		l-10-27.1l-10.1-30.1h-12.9c8.3,23.7,17.4,47.7,26.6,71c4,0.1,7.9,0,11.9,0l14-35.2l14.3-35.9H490
		C490,415.9,484.5,430.2,478.9,446.1L478.9,446.1z M217,359.5c2,0,3.7-0.6,5.1-2c1.4-1.4,2.1-3,2.1-5c0-2-0.7-3.7-2.1-5
		c-1.4-1.3-3-2-5-2c-2,0-3.7,0.7-5.1,2c-1.4,1.4-2,3.1-2,5c0,2,0.7,3.7,2,5C213.3,358.9,214.9,359.5,217,359.5L217,359.5z
		 M212.5,348c1.2-1.2,2.7-1.8,4.6-1.8c1.8,0,3.2,0.6,4.5,1.8c1.2,1.2,1.9,2.7,1.9,4.5c0,1.8-0.7,3.3-1.9,4.5
		c-1.2,1.2-2.7,1.8-4.5,1.8c-1.8,0-3.3-0.6-4.5-1.8c-1.2-1.2-1.9-2.7-1.9-4.5C210.7,350.7,211.3,349.2,212.5,348z M215.5,353.1h0.8
		c0.6,0,1.1,0.6,1.6,1.6l1,2.2h1.5l-1.2-2.4c-0.5-1-1-1.5-1.5-1.7c0.7-0.2,1.3-0.4,1.7-0.9c0.4-0.4,0.6-1,0.6-1.6
		c0-0.7-0.2-1.3-0.7-1.7c-0.6-0.5-1.4-0.7-2.6-0.7h-2.6v9.1h1.3v-3.8L215.5,353.1z M215.5,348.9h1.1c0.8,0,1.4,0.2,1.7,0.4
		c0.3,0.2,0.4,0.6,0.4,1.1c0,1-0.7,1.5-1.9,1.5h-1.4L215.5,348.9L215.5,348.9z M7.7,352.3c0-3.2-0.1-5.5-0.2-6.9h0.1
		c0.3,1.6,0.7,2.9,1,3.7l12.1,27h2l12.1-27.2c0.3-0.7,0.7-1.9,1.1-3.4H36c-0.2,2.7-0.3,5-0.3,6.9v23.8h4.1v-35.4h-5.2l-11.1,24.6
		c-0.4,1-1,2.4-1.7,4.4h-0.2c-0.2-1-0.8-2.4-1.6-4.2L9.2,340.7H3.7v35.4h4L7.7,352.3L7.7,352.3z M48.9,352.4h3.6v22h-3.6V352.4z
		 M50.7,344.3c0.7,0,1.4-0.3,1.9-0.7c0.5-0.5,0.8-1.1,0.8-1.9c0-0.7-0.2-1.4-0.8-1.9c-0.5-0.5-1.1-0.7-1.9-0.7
		c-0.7,0-1.4,0.3-1.9,0.7c-0.5,0.5-0.8,1.1-0.8,1.9c0,0.8,0.3,1.4,0.8,1.9C49.3,344.1,49.9,344.3,50.7,344.3L50.7,344.3z
		 M77.9,374.9V371c-2,1.5-4.1,2.2-6.2,2.2c-2.6,0-4.7-0.9-6.3-2.6c-1.5-1.7-2.3-4-2.3-7c0-3.1,0.8-5.5,2.5-7.4
		c1.6-1.8,3.7-2.7,6.3-2.7c2.1,0,4.1,0.7,6,2v-4.1c-1.7-0.9-3.6-1.3-5.8-1.3c-4.1,0-7.2,1.3-9.6,3.8c-2.3,2.5-3.5,5.9-3.5,10
		c0,3.7,1,6.7,3.2,9.1c2.3,2.4,5.2,3.6,8.8,3.6C73.7,376.6,75.9,376.1,77.9,374.9z M88.1,363.2c0-2.9,0.7-5.3,1.9-6.9
		c1.1-1.5,2.5-2.2,4.1-2.2c1.4,0,2.4,0.3,3.1,0.8v-4.2c-0.6-0.2-1.4-0.3-2.4-0.3c-1.5,0-2.8,0.5-3.9,1.4c-1.2,1-2.2,2.4-2.7,4.3H88
		v-5.2h-4v25.3H88L88.1,363.2L88.1,363.2z M111.3,376.6c3.8,0,6.9-1.2,9.2-3.7c2.3-2.4,3.4-5.7,3.4-9.7c0-4.1-1-7.3-3.2-9.6
		c-2.1-2.3-5-3.5-8.8-3.5c-3.8,0-6.9,1.1-9.2,3.3c-2.4,2.4-3.7,5.8-3.7,10.2c0,3.8,1,7,3.2,9.3C104.5,375.4,107.5,376.6,111.3,376.6
		L111.3,376.6z M105.6,356.1c1.5-1.6,3.6-2.4,6.1-2.4c2.6,0,4.6,0.8,6,2.4c1.5,1.7,2.2,4.1,2.2,7.4c0,3.1-0.7,5.5-2,7.1
		c-1.4,1.7-3.4,2.6-6.1,2.6c-2.6,0-4.6-0.9-6.2-2.6c-1.5-1.7-2.3-4.1-2.3-7.1C103.2,360.4,104,357.8,105.6,356.1z M141.6,374.4
		c1.5-1.4,2.4-3.1,2.4-5.2c0-1.9-0.7-3.4-1.9-4.6c-1-1-2.5-1.9-4.7-2.8c-2-0.8-3.2-1.5-3.8-2.1c-0.6-0.6-1-1.5-1-2.6
		c0-1,0.4-1.9,1.2-2.5c0.8-0.6,1.9-1,3.3-1c2.2,0,4.1,0.6,5.8,1.8v-4.1c-1.6-0.8-3.4-1.2-5.4-1.2c-2.6,0-4.8,0.7-6.4,2.1
		c-1.7,1.4-2.5,3.2-2.5,5.3c0,1.9,0.6,3.4,1.6,4.5c0.9,1,2.4,2,4.5,2.8c2,0.9,3.4,1.7,4.1,2.3c0.7,0.7,1,1.5,1,2.4
		c0,2.4-1.6,3.6-4.8,3.6c-2.4,0-4.6-0.8-6.6-2.4v4.4c1.8,1.1,3.9,1.5,6.2,1.5C137.6,376.6,140,375.9,141.6,374.4L141.6,374.4z
		 M160.9,350.1c-3.8,0-6.9,1.1-9.2,3.3c-2.4,2.4-3.7,5.8-3.7,10.2c0,3.8,1.1,7,3.2,9.3c2.3,2.4,5.3,3.7,9.1,3.7
		c3.9,0,6.9-1.2,9.2-3.7c2.3-2.4,3.4-5.7,3.4-9.7c0-4.1-1.1-7.3-3.2-9.6C167.6,351.3,164.6,350.1,160.9,350.1L160.9,350.1z
		 M168.8,363.4c0,3.1-0.7,5.5-2,7.1c-1.4,1.7-3.4,2.6-6.1,2.6c-2.6,0-4.6-0.9-6.2-2.6c-1.5-1.7-2.3-4.1-2.3-7.1
		c0-3.3,0.8-5.8,2.4-7.5c1.5-1.6,3.6-2.4,6.1-2.4c2.5,0,4.5,0.8,6,2.4C168,357.8,168.8,360.2,168.8,363.4L168.8,363.4z M179.7,376.1
		h4v-21.9h5.9v-3.4h-5.9v-3.9c0-3.5,1.4-5.3,4.2-5.3c1,0,1.9,0.2,2.7,0.7v-3.7c-0.7-0.3-1.7-0.4-2.9-0.4c-2.2,0-4,0.7-5.4,2
		c-1.7,1.6-2.6,3.7-2.6,6.6v4.1h-4.3v3.4h4.3L179.7,376.1L179.7,376.1z M196.3,369.2c0,4.9,2.2,7.5,6.6,7.5c1.6,0,2.8-0.3,3.8-0.8
		v-3.5c-0.7,0.6-1.6,0.8-2.6,0.8c-1.4,0-2.3-0.3-2.9-1.1c-0.6-0.7-0.9-2-0.9-3.6v-14.3h6.4v-3.4h-6.4v-7.5c-1.4,0.5-2.8,0.9-4.1,1.3
		v6.1h-4.4v3.4h4.4L196.3,369.2L196.3,369.2z M631.1,415.8c-1.4-1.3-3-2-5-2c-2,0-3.7,0.7-5.1,2c-1.4,1.4-2,3.1-2,5c0,2,0.7,3.7,2,5
		c1.4,1.3,3.1,2,5.1,2c2,0,3.7-0.7,5.1-2c1.4-1.4,2.1-3,2.1-5C633.2,418.7,632.5,417.1,631.1,415.8L631.1,415.8z M630.5,425.3
		c-1.2,1.2-2.7,1.8-4.5,1.8c-1.8,0-3.2-0.6-4.5-1.8c-1.2-1.2-1.9-2.8-1.9-4.6c0-1.8,0.6-3.2,1.8-4.5c1.2-1.2,2.7-1.8,4.5-1.8
		c1.8,0,3.2,0.6,4.5,1.8c1.2,1.2,1.9,2.7,1.9,4.5C632.3,422.6,631.8,424.1,630.5,425.3z M626.8,421.2c0.7-0.2,1.3-0.5,1.7-0.9
		c0.4-0.4,0.6-1,0.6-1.6c0-0.7-0.2-1.3-0.7-1.7c-0.6-0.5-1.5-0.7-2.6-0.7h-2.6v9.1h1.3v-3.8h0.8c0.6,0,1.1,0.6,1.6,1.6l1,2.2h1.5
		l-1.2-2.4C627.8,421.8,627.3,421.3,626.8,421.2L626.8,421.2L626.8,421.2z M625.9,420.4h-1.4v-3.1h1.1c0.8,0,1.4,0.1,1.7,0.4
		c0.3,0.2,0.4,0.6,0.4,1.1C627.8,419.9,627.1,420.4,625.9,420.4L625.9,420.4z M399.9,349.7h1.1v-9.1h3v-1.1h-7.1v1.1h3L399.9,349.7
		L399.9,349.7z M406.8,342.9c0-0.9,0-1.6-0.1-2c0.1,0.5,0.2,0.8,0.3,1l3.5,7.8h0.6l3.5-7.9c0.1-0.2,0.2-0.6,0.3-1
		c-0.1,0.8-0.1,1.5-0.1,2v6.9h1.2v-10.2h-1.5l-3.2,7c-0.1,0.3-0.3,0.7-0.5,1.3h-0.1c-0.1-0.3-0.2-0.7-0.5-1.2l-3.2-7.1h-1.6v10.2
		h1.1L406.8,342.9L406.8,342.9z"/>
</g>
</svg>
