<?xml version="1.0" encoding="utf-8"?>
<!-- Generator: Adobe Illustrator 27.7.0, SVG Export Plug-In . SVG Version: 6.00 Build 0)  -->
<svg version="1.1" id="Layer_1" xmlns="http://www.w3.org/2000/svg" xmlns:xlink="http://www.w3.org/1999/xlink" x="0px" y="0px"
	 viewBox="0 0 512 512" style="enable-background:new 0 0 512 512;" xml:space="preserve">
<style type="text/css">
	.st0{fill:url(#SVGID_1_);}
	.st1{opacity:0.35;fill:url(#SVGID_00000170964348535722760670000002878492761704331190_);enable-background:new    ;}
	.st2{fill:url(#SVGID_00000087394710886411756140000016934669198803725447_);}
	.st3{opacity:0.41;fill:url(#SVGID_00000012452874431972915350000015669944219082357657_);enable-background:new    ;}
	.st4{fill:url(#SVGID_00000081632556586690744200000011164301497803790235_);}
	.st5{fill:url(#SVGID_00000055697606007149933070000017765033513520544443_);}
</style>
<g>
	
		<linearGradient id="SVGID_1_" gradientUnits="userSpaceOnUse" x1="121.9963" y1="884.9855" x2="478.5373" y2="884.9855" gradientTransform="matrix(1 0 0 1 -4.6 -531)">
		<stop  offset="0" style="stop-color:#0C59A4"/>
		<stop  offset="1" style="stop-color:#114A8B"/>
	</linearGradient>
	<path class="st0" d="M462.2,381.1c-6.9,3.6-13.9,6.7-21.2,9.4c-23,8.5-47.3,12.9-71.8,12.8c-94.6,0-177-65-177-148.6
		c0.3-22.8,12.8-43.7,32.8-54.6c-85.6,3.6-107.6,92.8-107.6,145c0,148,136.2,162.8,165.6,162.8c15.8,0,39.6-4.6,54-9.2l2.6-0.8
		c55.1-19,102.1-56.3,133.2-105.6c2.3-3.8,1.1-8.7-2.7-11C467.7,379.8,464.7,379.8,462.2,381.1L462.2,381.1z"/>
	
		<radialGradient id="SVGID_00000036948838538312099730000013271255269009535122_" cx="318.9903" cy="918.2373" r="190.7941" gradientTransform="matrix(1 0 0 0.95 -4.6 -515.55)" gradientUnits="userSpaceOnUse">
		<stop  offset="0.7" style="stop-color:#000000;stop-opacity:0"/>
		<stop  offset="0.9" style="stop-color:#000000;stop-opacity:0.5"/>
		<stop  offset="1" style="stop-color:#000000"/>
	</radialGradient>
	<path style="opacity:0.35;fill:url(#SVGID_00000036948838538312099730000013271255269009535122_);enable-background:new    ;" d="
		M462.2,381.1c-6.9,3.6-13.9,6.7-21.2,9.4c-23,8.5-47.3,12.9-71.8,12.8c-94.6,0-177-65-177-148.6c0.3-22.8,12.8-43.7,32.8-54.6
		c-85.6,3.6-107.6,92.8-107.6,145c0,148,136.2,162.8,165.6,162.8c15.8,0,39.6-4.6,54-9.2l2.6-0.8c55.1-19,102.1-56.3,133.2-105.6
		c2.3-3.8,1.1-8.7-2.7-11C467.7,379.8,464.7,379.8,462.2,381.1L462.2,381.1z"/>
	
		<linearGradient id="SVGID_00000081625841849191641880000015442707561928767117_" gradientUnits="userSpaceOnUse" x1="310.0875" y1="730.3793" x2="87.4944" y2="972.9718" gradientTransform="matrix(1 0 0 1 -4.6 -531)">
		<stop  offset="0" style="stop-color:#1B9DE2"/>
		<stop  offset="0.2" style="stop-color:#1595DF"/>
		<stop  offset="0.7" style="stop-color:#0680D7"/>
		<stop  offset="1" style="stop-color:#0078D4"/>
	</linearGradient>
	<path style="fill:url(#SVGID_00000081625841849191641880000015442707561928767117_);" d="M211.4,482.7
		c-17.8-11.1-33.2-25.5-45.4-42.6c-52.6-72-36.9-172.9,35.1-225.5c7.5-5.5,15.5-10.3,23.9-14.5c6.4-3,17-8.2,31.2-8
		c20.3,0.2,39.3,9.8,51.4,26c8,10.8,12.5,23.9,12.6,37.4c0-0.4,49-159.2-160-159.2c-87.8,0-160,83.2-160,156.4
		c-0.3,38.7,7.9,76.9,24.2,112c55.2,117.5,189.6,175.1,312.8,134c-42.2,13.3-88.1,7.5-125.6-16L211.4,482.7z"/>
	
		<radialGradient id="SVGID_00000088813929556855486730000006155492979678472838_" cx="-705.4368" cy="798.7139" r="286.3911" gradientTransform="matrix(0.15 -0.99 0.8 0.12 -392.05 -396.27)" gradientUnits="userSpaceOnUse">
		<stop  offset="0.8" style="stop-color:#000000;stop-opacity:0"/>
		<stop  offset="0.9" style="stop-color:#000000;stop-opacity:0.5"/>
		<stop  offset="1" style="stop-color:#000000"/>
	</radialGradient>
	<path style="opacity:0.41;fill:url(#SVGID_00000088813929556855486730000006155492979678472838_);enable-background:new    ;" d="
		M211.4,482.7c-17.8-11.1-33.2-25.5-45.4-42.6c-52.6-72-36.9-172.9,35.1-225.5c7.5-5.5,15.5-10.3,23.9-14.5c6.4-3,17-8.2,31.2-8
		c20.3,0.2,39.3,9.8,51.4,26c8,10.8,12.5,23.9,12.6,37.4c0-0.4,49-159.2-160-159.2c-87.8,0-160,83.2-160,156.4
		c-0.3,38.7,7.9,76.9,24.2,112c55.2,117.5,189.6,175.1,312.8,134c-42.2,13.3-88.1,7.5-125.6-16L211.4,482.7z"/>
	
		<radialGradient id="SVGID_00000078746190467366911370000017265878677295802027_" cx="247.7214" cy="44.1984" r="404.7875" gradientTransform="matrix(-4.000000e-02 1 -2.13 -8.000000e-02 155.8301 -149.46)" gradientUnits="userSpaceOnUse">
		<stop  offset="0" style="stop-color:#35C1F1"/>
		<stop  offset="0.1" style="stop-color:#34C1ED"/>
		<stop  offset="0.2" style="stop-color:#2FC2DF"/>
		<stop  offset="0.3" style="stop-color:#2BC3D2"/>
		<stop  offset="0.7" style="stop-color:#36C752"/>
	</radialGradient>
	<path style="fill:url(#SVGID_00000078746190467366911370000017265878677295802027_);" d="M304.8,297.7c-1.8,2-6.8,5-6.8,11.2
		c0,5.2,3.4,10.4,9.6,14.6c28.6,20,82.8,17.2,83,17.2c21.3,0,42.2-5.7,60.6-16.6c37.6-22,60.7-62.2,60.8-105.8
		c0.6-44.8-16-74.6-22.6-87.8C446.8,47.7,355.4,0.1,256,0.1C116,0.1,2,112.5,0,252.5c1-73,73.6-132,160-132c7,0,47,0.6,84,20
		c26,12.9,47.5,33.3,61.8,58.6c12.2,21.2,14.4,48.2,14.4,59c0,10.8-5.4,26.6-15.6,39.8L304.8,297.7z"/>
	
		<radialGradient id="SVGID_00000165211972601533117490000007780022410072007055_" cx="616.8088" cy="-181.7162" r="194.594" gradientTransform="matrix(0.28 0.96 -0.78 0.23 165.66 -395.65)" gradientUnits="userSpaceOnUse">
		<stop  offset="0" style="stop-color:#66EB6E"/>
		<stop  offset="1" style="stop-color:#66EB6E;stop-opacity:0"/>
	</radialGradient>
	<path style="fill:url(#SVGID_00000165211972601533117490000007780022410072007055_);" d="M304.8,297.7c-1.8,2-6.8,5-6.8,11.2
		c0,5.2,3.4,10.4,9.6,14.6c28.6,20,82.8,17.2,83,17.2c21.3,0,42.2-5.7,60.6-16.6c37.6-22,60.7-62.2,60.8-105.8
		c0.6-44.8-16-74.6-22.6-87.8C446.8,47.7,355.4,0.1,256,0.1C116,0.1,2,112.5,0,252.5c1-73,73.6-132,160-132c7,0,47,0.6,84,20
		c26,12.9,47.5,33.3,61.8,58.6c12.2,21.2,14.4,48.2,14.4,59c0,10.8-5.4,26.6-15.6,39.8L304.8,297.7z"/>
</g>
</svg>
