<svg xmlns="http://www.w3.org/2000/svg" xmlns:xlink="http://www.w3.org/1999/xlink" version="1.1" id="Livello_1" x="0px" y="0px" style="enable-background:new 0 0 512 512;" xml:space="preserve" viewBox="0 17.9 512 476.2">
<style type="text/css">
	.st0{fill:#41A5EE;}
	.st1{fill:#2B7CD3;}
	.st2{fill:#185ABD;}
	.st3{fill:#103F91;}
	.st4{opacity:0.1;enable-background:new    ;}
	.st5{opacity:0.2;enable-background:new    ;}
	.st6{fill:url(#SVGID_1_);}
	.st7{fill:#FFFFFF;}
</style>
<g>
	<path class="st0" d="M490.2,17.9H140.9c-12.1,0-21.8,9.8-21.8,21.8l0,0v97.2l202.4,59.5L512,136.9V39.7   C512,27.6,502.2,17.9,490.2,17.9L490.2,17.9z"/>
	<path class="st1" d="M512,136.9H119.1V256l202.4,35.7L512,256V136.9z"/>
	<path class="st2" d="M119.1,256v119.1l190.5,23.8L512,375.1V256H119.1z"/>
	<path class="st3" d="M140.9,494.1h349.3c12.1,0,21.8-9.8,21.8-21.8l0,0v-97.2H119.1v97.2C119.1,484.4,128.8,494.1,140.9,494.1   L140.9,494.1z"/>
	<path class="st4" d="M263.9,113.1H119.1v297.7h144.9c12,0,21.8-9.8,21.8-21.8v-254C285.7,122.9,276,113.2,263.9,113.1z"/>
	<path class="st5" d="M252,125h-133v297.7h133c12,0,21.8-9.8,21.8-21.8v-254C273.8,134.8,264.1,125.1,252,125z"/>
	<path class="st5" d="M252,125h-133v273.9h133c12,0,21.8-9.8,21.8-21.8V146.8C273.8,134.8,264.1,125.1,252,125z"/>
	<path class="st5" d="M240.1,125H119.1v273.9h121.1c12,0,21.8-9.8,21.8-21.8V146.8C261.9,134.8,252.2,125.1,240.1,125z"/>
	
		<linearGradient id="SVGID_1_" gradientUnits="userSpaceOnUse" x1="45.5065" y1="-852.0306" x2="216.4468" y2="-555.9691" gradientTransform="matrix(1 0 0 1 0 960)">
		<stop offset="0" style="stop-color:#2368C4"/>
		<stop offset="0.5" style="stop-color:#1A5DBE"/>
		<stop offset="1" style="stop-color:#1146AC"/>
	</linearGradient>
	<path class="st6" d="M21.8,125h218.3c12.1,0,21.8,9.8,21.8,21.8v218.3c0,12.1-9.8,21.8-21.8,21.8H21.8C9.8,387,0,377.2,0,365.2   V146.8C0,134.8,9.8,125,21.8,125z"/>
	<path class="st7" d="M89.6,292.4c0.4,3.4,0.7,6.3,0.8,8.8h0.5c0.2-2.4,0.6-5.3,1.2-8.6c0.6-3.4,1.1-6.2,1.6-8.5l23-99h29.7   l23.8,97.6c1.4,6.1,2.4,12.2,3,18.4h0.4c0.4-6,1.3-12,2.5-17.9l19-98.1h27l-33.4,141.9h-31.6l-22.6-94c-0.7-2.7-1.4-6.2-2.2-10.6   c-0.8-4.3-1.3-7.5-1.5-9.5h-0.4c-0.3,2.3-0.8,5.7-1.5,10.3c-0.8,4.5-1.4,7.9-1.8,10.1l-21.3,93.7H73.6L40,185.1h27.5l20.7,99.2   C88.7,286.3,89.1,289.1,89.6,292.4z"/>
</g>
</svg>