<svg xmlns="http://www.w3.org/2000/svg"  viewBox="0 0 48 48" width="512px" height="512px"><circle cx="28" cy="23.996" r="7.996" fill="#fff"/><linearGradient id="QFWEdHjbi87N8NGZ2VNsga" x1="29" x2="49.8" y1="23.513" y2="23.513" gradientUnits="userSpaceOnUse"><stop offset="0" stop-color="#b8b8b8"/><stop offset=".266" stop-color="#bbb"/><stop offset=".499" stop-color="#c6c6c6"/><stop offset=".72" stop-color="#d8d8d8"/><stop offset=".932" stop-color="#f0f0f1"/><stop offset="1" stop-color="#fafafb"/></linearGradient><path fill="url(#QFWEdHjbi87N8NGZ2VNsga)" d="M42.242,25.832l-3.25-1.678C38.993,24.101,39,24.049,39,23.996 c0-0.906-0.122-1.782-0.328-2.624l2.792-2.369c0.364-0.308,0.459-0.83,0.228-1.247l-1.144-2.064 c-0.231-0.417-0.724-0.613-1.178-0.468l-3.484,1.111c-0.651-0.67-1.39-1.252-2.194-1.74l0.299-3.65 c0.039-0.475-0.263-0.912-0.721-1.043L31,9.252c-0.458-0.131-0.945,0.079-1.164,0.503l-1.678,3.25 c-0.053-0.001-0.105-0.008-0.158-0.008c-6.075,0-11,4.925-11,11s4.925,11,11,11c0.906,0,1.782-0.122,2.624-0.328l2.369,2.792 c0.308,0.364,0.83,0.459,1.247,0.228l2.064-1.144c0.417-0.231,0.613-0.724,0.468-1.178l-1.111-3.484 c0.67-0.651,1.252-1.39,1.74-2.194l3.65,0.299c0.475,0.039,0.912-0.263,1.043-0.721l0.651-2.269 C42.876,26.538,42.665,26.05,42.242,25.832z M28,30.996c-3.866,0-7-3.134-7-7c0-3.866,3.134-7,7-7s7,3.134,7,7 C35,27.862,31.866,30.996,28,30.996z M31,23.996c0,1.657-1.343,3-3,3s-3-1.343-3-3s1.343-3,3-3S31,22.339,31,23.996z"/><g opacity=".05"><path d="M26.001,17.289c0.634-0.189,1.304-0.294,1.999-0.294v-4c-0.684,0-1.35,0.071-2,0.19L26.001,17.289z"/><path d="M28,20.996c-0.771,0-1.467,0.299-1.999,0.778l0,4.445c0.531,0.478,1.227,0.777,1.999,0.777V20.996z"/><path d="M26.002,30.703l0,4.103c0.649,0.119,1.315,0.19,1.998,0.19v-4C27.305,30.996,26.635,30.891,26.002,30.703z"/></g><g opacity=".07"><path d="M27.5,21.046c-0.361,0.061-0.695,0.188-1,0.366v5.168c0.305,0.177,0.639,0.305,1,0.366V21.046z"/><path d="M26.5,17.161c0.325-0.071,0.66-0.116,1-0.14v-4c-0.338,0.015-0.671,0.044-1,0.089V17.161z"/><path d="M27.5,30.971c-0.34-0.024-0.675-0.069-1-0.14v4.051c0.329,0.045,0.662,0.074,1,0.089V30.971z"/></g><linearGradient id="QFWEdHjbi87N8NGZ2VNsgb" x1="26.869" x2="5.161" y1="23.992" y2="24.194" gradientUnits="userSpaceOnUse"><stop offset="0" stop-color="#6b6b6b"/><stop offset=".96" stop-color="#464646"/><stop offset="1" stop-color="#444"/></linearGradient><path fill="url(#QFWEdHjbi87N8NGZ2VNsgb)" d="M25.813,42.982l-20-3.827C5.341,39.065,5,38.653,5,38.172V9.828 c0-0.48,0.341-0.892,0.813-0.982l20-3.827C26.429,4.901,27,5.373,27,6V42C27,42.627,26.429,43.099,25.813,42.982z"/><path fill="#fff" d="M21.278,30.874l-2.91-0.117l-0.864-3.07l-3.897-0.047l-0.695,2.898l-2.482-0.1l3.545-13.061 l2.92-0.251L21.278,30.874z M16.884,25.332l-1.264-4.496c-0.093-0.332-0.159-0.729-0.202-1.193l-0.061,0.004 c-0.019,0.393-0.077,0.784-0.172,1.175l-1.102,4.538L16.884,25.332z"/></svg>