<?xml version="1.0" encoding="utf-8"?>
<!-- Generator: Adobe Illustrator 27.7.0, SVG Export Plug-In . SVG Version: 6.00 Build 0)  -->
<svg version="1.1" id="Layer_1" xmlns="http://www.w3.org/2000/svg" xmlns:xlink="http://www.w3.org/1999/xlink" x="0px" y="0px"
	 viewBox="0 0 512 512" style="enable-background:new 0 0 512 512;" xml:space="preserve">
<style type="text/css">
	.st0{fill:#881421;}
	.st1{fill:#AF2031;}
	.st2{fill:#C94F60;}
	.st3{fill:#E08095;}
	.st4{opacity:0.1;enable-background:new    ;}
	.st5{opacity:0.2;enable-background:new    ;}
	.st6{fill:url(#SVGID_1_);}
	.st7{fill:#FFFFFF;}
</style>
<g>
	<path class="st0" d="M119.1,327.4v119.1c0,32.9,88,59.5,196.5,59.5S512,479.4,512,446.5V327.4H119.1z"/>
	<path class="st1" d="M119.1,196.5v131c0,32.9,88,59.5,196.5,59.5S512,360.3,512,327.4v-131H119.1z"/>
	<path class="st2" d="M119.1,65.5v131c0,32.9,88,59.5,196.5,59.5S512,229.3,512,196.5v-131H119.1z"/>
	<ellipse class="st3" cx="315.5" cy="65.5" rx="196.5" ry="59.5"/>
	<path class="st4" d="M263.9,113.1H119.1v297.7h144.9c12,0,21.8-9.8,21.8-21.8v-254C285.7,122.9,276,113.2,263.9,113.1z"/>
	<path class="st5" d="M252,125h-133v297.7h133c12,0,21.8-9.8,21.8-21.8v-254C273.8,134.8,264.1,125.1,252,125z"/>
	<path class="st5" d="M252,125h-133v273.9h133c12,0,21.8-9.8,21.8-21.8V146.8C273.8,134.8,264.1,125.1,252,125z"/>
	<path class="st5" d="M240.1,125H119.1v273.9h121.1c12,0,21.8-9.8,21.8-21.8V146.8C261.9,134.8,252.2,125.1,240.1,125L240.1,125z"/>
	
		<linearGradient id="SVGID_1_" gradientUnits="userSpaceOnUse" x1="45.5067" y1="-1049.1515" x2="216.4469" y2="-753.09" gradientTransform="matrix(1 0 0 1 0 1157.1207)">
		<stop  offset="0" style="stop-color:#B72C3F"/>
		<stop  offset="0.5" style="stop-color:#B12334"/>
		<stop  offset="1" style="stop-color:#9D1623"/>
	</linearGradient>
	<path class="st6" d="M21.8,125h218.3c12.1,0,21.8,9.8,21.8,21.8v218.3c0,12.1-9.8,21.8-21.8,21.8H21.8C9.8,387,0,377.2,0,365.2
		V146.8C0,134.8,9.8,125,21.8,125z"/>
	<path class="st7" d="M115.3,185h32.1l51.7,141.9h-30.4l-11.4-33.8h-53.1L93,326.9H62.9L115.3,185L115.3,185z M150.5,271.2
		L134,219.9c-1.4-3.8-2.4-7.6-3-11.6h-0.6c-0.6,4.1-1.6,8-3,11.9l-16.7,51.1L150.5,271.2L150.5,271.2z"/>
</g>
</svg>
