<svg xmlns="http://www.w3.org/2000/svg" xmlns:xlink="http://www.w3.org/1999/xlink" version="1.1" id="Livello_1" x="0px" y="0px" style="enable-background:new 0 0 512 512;" xml:space="preserve" viewBox="0 5.9 512 500.1">
<style type="text/css">
	.st0{fill:#036C70;}
	.st1{fill:#1A9BA1;}
	.st2{fill:#37C6D0;}
	.st3{opacity:0.1;enable-background:new    ;}
	.st4{opacity:0.2;enable-background:new    ;}
	.st5{fill:url(#SVGID_1_);}
	.st6{fill:#FFFFFF;}
</style>
<g>
	<circle class="st0" cx="262" cy="148.8" r="142.9"/>
	<circle class="st1" cx="381" cy="279.8" r="131"/>
	<circle class="st2" cx="279.8" cy="404.8" r="101.2"/>
	<path class="st3" d="M285.8,134.9V389c-0.1,8.8-5.4,16.8-13.6,20.1c-2.6,1.1-5.4,1.7-8.2,1.7h-85.3c-0.1-2-0.1-3.9-0.1-6   c0-2,0-4,0.2-6c2.2-38.1,25.6-71.6,60.6-86.8v-22.1c-77.8-12.3-131-85.4-118.6-163.3c0.1-0.5,0.2-1.1,0.3-1.6c0.6-4,1.4-8,2.5-11.9   H264C276,113.2,285.7,122.9,285.8,134.9z"/>
	<path class="st4" d="M252.1,125h-131c-13.2,77.7,39,151.4,116.7,164.7c2.4,0.4,4.7,0.7,7.1,1c-36.9,17.5-63.8,67.2-66.1,108.2   c-0.2,2-0.3,4-0.2,6c0,2,0,3.9,0.1,6c0.2,4,0.7,8,1.5,11.9h71.8c8.8-0.1,16.8-5.4,20.1-13.6c1.1-2.6,1.7-5.4,1.7-8.2V146.8   C273.8,134.8,264.1,125.1,252.1,125z"/>
	<path class="st4" d="M252.1,125h-131c-13.2,77.7,39,151.4,116.8,164.7c1.6,0.3,3.2,0.5,4.8,0.7c-35.7,18.8-61.6,68.4-63.8,108.5   h73.2c12-0.1,21.7-9.8,21.8-21.8V146.8C273.8,134.8,264.1,125.1,252.1,125z"/>
	<path class="st4" d="M240.2,125H121.1c-12.5,73.4,33.5,144,105.6,162.3c-27.3,31.2-44.1,70.2-47.9,111.5h61.3   c12,0,21.7-9.8,21.8-21.8V146.8C261.9,134.8,252.2,125,240.2,125z"/>
	
		<linearGradient id="SVGID_1_" gradientUnits="userSpaceOnUse" x1="45.5066" y1="-1048.0308" x2="216.4467" y2="-751.9695" gradientTransform="matrix(1 0 0 1 0 1156)">
		<stop offset="0" style="stop-color:#058F92"/>
		<stop offset="0.5" style="stop-color:#038489"/>
		<stop offset="1" style="stop-color:#026D71"/>
	</linearGradient>
	<path class="st5" d="M21.8,125h218.3c12.1,0,21.8,9.8,21.8,21.8v218.3c0,12.1-9.8,21.8-21.8,21.8H21.8C9.8,387,0,377.2,0,365.2   V146.8C0,134.8,9.8,125,21.8,125z"/>
	<path class="st6" d="M97.5,253.3c-5.1-3.4-9.4-7.9-12.5-13.2c-3-5.5-4.5-11.8-4.3-18.1c-0.3-8.5,2.6-16.9,8.1-23.4   c5.8-6.6,13.2-11.4,21.5-14c9.5-3.1,19.4-4.7,29.4-4.5c13.1-0.5,26.2,1.4,38.7,5.4v27.4c-5.4-3.3-11.3-5.7-17.5-7.1   c-6.7-1.6-13.6-2.5-20.5-2.5c-7.3-0.3-14.5,1.3-21,4.5c-5,2.2-8.3,7.1-8.3,12.6c0,3.3,1.3,6.5,3.6,9c2.7,2.8,6,5.1,9.5,6.8   c4,2,9.9,4.6,17.9,7.9c0.9,0.3,1.7,0.6,2.5,1c7.8,3.1,15.3,6.8,22.5,11.1c5.4,3.4,10,7.9,13.3,13.4c3.4,6.2,5,13.2,4.8,20.2   c0.4,8.8-2.3,17.4-7.6,24.4c-5.3,6.4-12.3,11.2-20.2,13.6c-9.3,2.9-19.1,4.3-28.9,4.2c-8.8,0-17.5-0.7-26.2-2.1   c-7.3-1.2-14.4-3.3-21.2-6.2v-28.9c6.5,4.6,13.7,8.1,21.4,10.2c7.7,2.4,15.6,3.7,23.6,3.8c7.4,0.5,14.8-1.1,21.4-4.5   c4.6-2.6,7.4-7.5,7.3-12.8c0-3.7-1.4-7.2-4-9.8c-3.3-3.2-7-5.8-11.2-7.8c-4.8-2.4-11.8-5.5-21-9.4   C111.2,261.4,104.1,257.7,97.5,253.3z"/>
</g>
</svg>