<svg xmlns="http://www.w3.org/2000/svg" width="610" height="610" version="1.2" viewBox="0 0 610 610"><title>MikroTik-logo-2021-ai</title><style>.s0{fill:#263037}</style><g id="Layer 1"><path id="&lt;Compound Path&gt;" fill-rule="evenodd" d="m586.8 193.4v222.5c0 13.8-1.7 25.6-5.5 34.3-0.7 1.6-1.5 3.2-2.3 4.7-5.5 8.9-16.6 17.7-31.6 25.9l-203 111.2c-12.6 6.9-24.2 11.4-34 12.7q-2.8 0.4-5.4 0.4-2.7 0-5.5-0.4c-9.8-1.3-21.4-5.8-34-12.7l-101.5-55.6-101.4-55.6c-15.1-8.2-26.2-17-31.6-25.9-5.5-9-7.9-22.5-7.9-39v-222.5c0-13.8 1.7-25.5 5.5-34.2 0.7-1.7 1.5-3.3 2.4-4.7q1.3-2.2 3-4.3c6.1-7.5 16-14.7 28.6-21.7l101.4-55.6 101.5-55.6c15-8.2 28.6-13 39.5-13q2.6 0 5.4 0.4c9.8 1.2 21.4 5.7 34 12.6l101.5 55.6 101.5 55.6c12.6 7 22.4 14.2 28.5 21.7q1.8 2.1 3.1 4.3c0.8 1.4 1.6 3 2.3 4.7 3.8 8.7 5.5 20.4 5.5 34.2zm-102.5 33.2c0-9.8-5.3-18.8-13.8-23.4l-152.7-83.7c-8-4.4-17.7-4.4-25.7 0l-38.9 21.3c-4.6 2.6-4.6 9.2 0 11.7l116.4 63.8c4.6 2.6 4.6 9.2 0 11.7l-51.8 28.4c-8 4.4-17.7 4.4-25.7 0l-112-61.4c-8-4.4-17.7-4.4-25.7 0l-14.9 8.2c-8.6 4.7-13.9 13.6-13.9 23.4v7l135.5 74.3c8.6 4.6 13.9 13.6 13.9 23.3v141.4c0 4.8 2.6 9.3 6.9 11.7l10.2 5.6c8 4.4 17.7 4.4 25.7 0l10.3-5.6c4.2-2.4 6.9-6.9 6.9-11.7v-141.4c0-9.7 5.3-18.7 13.9-23.3l65.5-36c4.5-2.4 9.9 0.8 9.9 5.9v142.4c0 5.1 5.4 8.3 9.9 5.9l36.3-19.9c8.5-4.7 13.8-13.7 13.8-23.4zm-298.7 78.2c0-4.8-2.6-9.3-6.9-11.7l-43.2-23.7c-4.5-2.4-9.9 0.8-9.9 5.9v107.5c0 9.7 5.3 18.7 13.9 23.4l36.3 19.9c4.4 2.4 9.8-0.8 9.8-5.9z" class="s0"/></g></svg>