<svg xmlns="http://www.w3.org/2000/svg" width="1535" height="2949" viewBox="0 0 1535 2949"><g fill="none" fill-rule="evenodd"><path fill="#F15A29" d="M1148.04 144.02s289.46 466.21 386.205 631.903c1.561 2.7.898 6.266-1.429 8.592-2.933 2.908-7.352 3.25-10.26.317l-498.755-521.628 124.24-119.184z"/><path id="body" fill="#000" fill-rule="nonzero" d="M295.342 1842.852c84.658-179.102 198.852-341.148 340.173-482.47 53.75-53.724 110.49-103.51 170.005-149.25v369.123l-510.178 262.597zM.78 2183.76l804.74-409.678v936.515l181.346 238.22V1680.8l110.148-56.658c50.74-25.49 98.327-59.408 140.658-101.765 209.77-209.745 213.103-548.301 9.307-761.7L831.245 327.547c-16.577-17.714-25.276-40.903-24.51-65.28.765-24.536 11.025-47.327 28.872-64.144 36.806-34.607 95.45-32.28 130.056 4.495l58.143 60.602 124.24-119.188C1001.256-46.362 821.648-22.46 717.612 72.776c-51.29 48.28-80.745 113.663-82.97 184.096-2.219 70.541 23.19 137.643 71.496 188.965l.556.607 417.903 435.326c137.434 146.266 134.684 376.317-8.276 519.245-22.29 22.291-46.719 41.169-72.602 56.658l-56.847 29.24V895.255c-173.867 89.602-332.423 204.72-472.209 344.536-174.102 174.076-310.796 376.842-406.296 602.638C61.51 1953.184 25.607 2067.245.781 2183.76z"/></g></svg>