<svg xmlns:cc="http://creativecommons.org/ns#" xmlns:rdf="http://www.w3.org/1999/02/22-rdf-syntax-ns#" xmlns:inkscape="http://www.inkscape.org/namespaces/inkscape" xmlns:svg="http://www.w3.org/2000/svg" xmlns:sodipodi="http://sodipodi.sourceforge.net/DTD/sodipodi-0.dtd" xmlns:dc="http://purl.org/dc/elements/1.1/" xmlns="http://www.w3.org/2000/svg" xmlns:xlink="http://www.w3.org/1999/xlink" version="1.1" id="Layer_1" inkscape:version="0.92.3 (2405546, 2018-03-11)" sodipodi:docname="minio-ar21.svg" x="0px" y="0px" style="enable-background:new 0 0 512 512;" xml:space="preserve" viewBox="122.67 -0.13 266.65 512.13">
<style type="text/css">
	.st0{fill:#F05A28;}
	.st1{fill:#010000;}
</style>
<sodipodi:namedview bordercolor="#666666" borderopacity="1" gridtolerance="10" guidetolerance="10" id="namedview113" inkscape:current-layer="Layer_1" inkscape:cx="108.90445" inkscape:cy="52.970502" inkscape:pageopacity="0" inkscape:pageshadow="2" inkscape:window-height="1001" inkscape:window-maximized="1" inkscape:window-width="1920" inkscape:window-x="-9" inkscape:window-y="-9" inkscape:zoom="3.8592747" objecttolerance="10" pagecolor="#ffffff" showgrid="false">
	</sodipodi:namedview>
<g id="g969" transform="translate(-1.3168877)">
	<g id="g951" transform="matrix(0.92419023,0,0,0.92419023,-186.26192,-7.0233474)">
		<path id="path88" inkscape:connector-curvature="0" class="st0" d="M551.4,34.5c0,0,54.3,87.6,72.6,118.7c0.3,0.5,0.3,1.1,0,1.6    c-0.5,0.5-1.4,0.5-1.9,0l-93.7-98L551.4,34.5z"/>
		<path id="path90" inkscape:connector-curvature="0" class="st1" d="M391.1,353.8c15.9-33.8,37.5-64.5,63.9-90.9    c9.9-10,20.5-19.4,31.7-28.1v69.3L391.1,353.8z M335.7,417.9l151.2-77v176l34.1,44.7V323.3l21.1-10.6    c50.6-25.5,70.9-87.2,45.5-137.7c-4.5-9-10.4-17.3-17.3-24.5l-78.1-81.4c-6.4-7-6-17.8,0.8-24.3c7-6.5,17.9-6.1,24.5,0.8    l10.6,11.4l23.3-22.4c-27.5-35.8-61.3-31.7-80.9-13.4c-19.9,18.8-20.9,50.1-2.1,70.1l0,0l78.5,81.8c26.5,28.3,25.1,72.7-3.2,99.2    c-3.7,3.4-7.7,6.5-12,9.1l-10.6,5.5V175.7c-95,48.9-163,137.7-185.3,242.2"/>
	</g>
</g>
</svg>