<svg xmlns="http://www.w3.org/2000/svg" viewBox="0 0 48 48"><path d="M15.639 9.014A10.657 10.657 0 0 1 20.7 7.79q5.605 0 7.14 4.875a15.482 15.482 0 0 1 4.182-3.458q2.463-1.417 5.492-1.417 4.203 0 6.01 2.569 1.806 2.568 1.804 7.713v19.366c0 .484.068.812.203.988.136.176.43.334.882.46l1.586.528V40.6h-9.401q-1.225 0-1.762-.923-.538-.923-.543-2.767V16.886q0-2.965-.656-4.216-.656-1.25-2.191-1.252-2.441 0-5.198 2.894a23.373 23.373 0 0 1 .274 3.76v19.366c0 .484.068.812.203.988.136.176.43.334.882.46l1.581.528V40.6h-9.403q-1.225 0-1.763-.923-.539-.923-.543-2.767V16.886q0-2.965-.655-4.216-.654-1.25-2.192-1.252-2.397 0-4.927 2.636v23.384c0 .484.067.823.203 1.02.136.197.414.363.837.494l1.536.462V40.6H0v-1.186l1.582-.527q.677-.197.881-.461c.136-.176.204-.504.204-.988V12.539q0-.725-.204-.988-.204-.264-.881-.462L0 10.562V9.377L10.847 7.4h.768v4.611a15.863 15.863 0 0 1 4.024-2.997z" style="stroke-width:1"/></svg>