<?xml version="1.0" encoding="utf-8"?>
<!-- Generator: Adobe Illustrator 27.7.0, SVG Export Plug-In . SVG Version: 6.00 Build 0)  -->
<svg version="1.1" id="Layer_1" xmlns="http://www.w3.org/2000/svg" xmlns:xlink="http://www.w3.org/1999/xlink" x="0px" y="0px"
	 viewBox="0 0 512 512" style="enable-background:new 0 0 512 512;" xml:space="preserve">
<style type="text/css">
	.st0{fill:url(#SVGID_1_);}
	.st1{fill:url(#SVGID_00000028302841081394119900000007469433489358306211_);}
</style>
<g>
	
		<linearGradient id="SVGID_1_" gradientUnits="userSpaceOnUse" x1="-48.4345" y1="652.5867" x2="-48.4281" y2="651.5005" gradientTransform="matrix(456.2 0 0 -456.2 22350.3242 297713.875)">
		<stop  offset="0" style="stop-color:#7F50EF"/>
		<stop  offset="0.2048" style="stop-color:#71D2D7"/>
		<stop  offset="0.4944" style="stop-color:#759CD3"/>
		<stop  offset="0.7849" style="stop-color:#FCE8F4"/>
		<stop  offset="1" style="stop-color:#7260EC"/>
	</linearGradient>
	<path class="st0" d="M256,512l-75-75H75V331L0,256l75-75V75h106l75-75l75,75h106v106l75,75l-75,75v106H331L256,512z M87.1,424.9h99
		l70,70l70-70h99v-99l70-70l-70-70v-99h-99l-70-70l-70,70h-99v99l-70,70l70,70V424.9z M256,467l-61.8-61.8h-87.4v-87.4L45,256
		l61.8-61.8v-87.4h87.4L256,45l61.8,61.8h87.4v87.4L467,256l-61.8,61.8v87.4h-87.4L256,467z M118.9,393.1h80.3l56.8,56.8l56.8-56.8
		h80.3v-80.3l56.8-56.8l-56.8-56.8v-80.3h-80.3L256,62.1l-56.8,56.8h-80.3v80.3L62.1,256l56.8,56.8L118.9,393.1z"/>
	
		<radialGradient id="SVGID_00000036210543339338013190000007444926196832926645_" cx="-48.2849" cy="652.2777" r="1.1223" gradientTransform="matrix(244.356 0 0 -244.357 12054.707 159507.5)" gradientUnits="userSpaceOnUse">
		<stop  offset="0" style="stop-color:#FFFA00"/>
		<stop  offset="0.4138" style="stop-color:#FFFA00"/>
		<stop  offset="1" style="stop-color:#CE94C4"/>
	</radialGradient>
	<path style="fill:url(#SVGID_00000036210543339338013190000007444926196832926645_);" d="M312.8,393.1L256,336.3l-56.8,56.8v-80.3
		h-80.3l56.8-56.8l-56.8-56.8h80.3v-80.3l56.8,56.8l56.8-56.8v80.3h80.3L336.3,256l56.8,56.8h-80.3L312.8,393.1z M144.3,302.3h65.5
		v65.5l46.3-46.3l46.3,46.3v-65.5h65.5L321.5,256l46.3-46.3h-65.5v-65.5L256,190.5l-46.3-46.3v65.5h-65.5l46.3,46.3L144.3,302.3z
		 M285.1,326.3L256,297.2l-29.1,29.1v-41.2h-41.2l29.1-29.1l-29.1-29.1h41.2v-41.2l29.1,29.1l29.1-29.1v41.2h41.2L297.2,256
		l29.1,29.1h-41.2V326.3z M211.1,274.6h26.3v26.3l18.6-18.6l18.6,18.6v-26.3h26.3L282.3,256l18.6-18.6h-26.3v-26.3L256,229.7
		l-18.6-18.6v26.3h-26.3l18.6,18.6L211.1,274.6z"/>
</g>
</svg>
