<?xml version="1.0" encoding="utf-8"?>
<!-- Generator: Adobe Illustrator 27.7.0, SVG Export Plug-In . SVG Version: 6.00 Build 0)  -->
<svg version="1.1" id="Layer_1" xmlns="http://www.w3.org/2000/svg" xmlns:xlink="http://www.w3.org/1999/xlink" x="0px" y="0px"
	 viewBox="0 0 512 512" style="enable-background:new 0 0 512 512;" xml:space="preserve">
<style type="text/css">
	.st0{fill:#84E9F5;}
	.st1{fill:#FFAB4C;}
	.st2{fill:#4F46BB;}
</style>
<g>
	<path class="st0" d="M88.2,0h258.2c47.5,0,86.1,38.5,86.1,86.1v258.2c0,47.5-38.5,86.1-86.1,86.1H88.2c-47.5,0-86.1-38.5-86.1-86.1
		V86.1C2.2,38.5,40.7,0,88.2,0z"/>
	<path class="st1" d="M165.6,81.7h258.2c47.5,0,86.1,38.5,86.1,86.1v258.2c0,47.5-38.5,86.1-86.1,86.1H165.6
		c-47.5,0-86.1-38.5-86.1-86.1V167.8C79.6,120.3,118.1,81.7,165.6,81.7z"/>
	<path class="st2" d="M126.9,47.3h258.2c47.5,0,86.1,38.5,86.1,86.1v258.2c0,47.5-38.5,86.1-86.1,86.1H126.9
		c-47.5,0-86.1-38.5-86.1-86.1V133.4C40.9,85.9,79.4,47.3,126.9,47.3z"/>
</g>
</svg>
