<svg width="745" height="925" viewBox="0 0 745 925" fill="none" xmlns="http://www.w3.org/2000/svg">
<path d="M24.7041 31.9521C41.3932 15.5288 61.4307 -1.90443 86.6238 0.168421C285.245 0.381021 483.92 0.75307 682.542 1.23142C715.601 -0.57568 745.843 29.1352 744.461 62.3008C744.727 287.391 744.408 512.428 744.621 737.518C744.727 755.536 741.857 775.627 727.772 788.383C717.408 800.342 700.825 801.245 686.368 804.275C683.233 837.334 695.563 875.815 673.24 904.144C664.364 916.581 650.014 925.457 634.335 924.287C451.764 924.341 269.247 924.234 86.677 924.394C61.0055 926.467 39.5329 909.565 22.3123 892.663C5.14484 875.921 -1.07372 850.994 0.148733 827.661C0.467633 581.523 0.201886 335.439 0.255036 89.301C0.520786 68.041 9.07795 46.6215 24.7041 31.9521ZM144.451 72.9308C144.292 292.759 144.238 512.588 144.504 732.416C142.112 743.312 152.636 746.076 161.087 744.959C335.313 744.587 509.485 745.491 683.711 744.481C684.349 736.828 684.88 729.068 684.987 721.361C684.827 505.2 685.04 288.932 684.88 72.7713C685.252 67.4032 683.764 58.2614 676.27 59.537C502.841 59.0055 329.413 59.2712 156.038 59.3775C148.225 58.2614 143.175 65.6492 144.451 72.9308ZM18.6981 747.404C17.263 764.997 18.4855 782.643 18.2197 800.235C35.6529 775.095 54.3618 744.959 87.049 739.326C87.1022 723.381 87.1022 707.435 87.049 691.544C55.4779 693.989 30.7631 719.713 18.6981 747.404ZM66.0547 847.964C75.7812 857.318 87.9526 866.567 102.303 865.078C270.789 864.972 439.274 865.078 607.76 865.025C617.699 865.078 628.807 864.069 635.61 855.777C649.961 843.287 645.815 822.186 647.463 805.338C465.849 805.338 284.182 805.338 102.569 805.338C81.2025 803.478 52.3952 824.844 66.0547 847.964Z" fill="black"/>
<path d="M285.245 166.103C371.189 164.933 457.239 165.731 543.235 165.731C551.102 164.455 556.789 171.683 555.407 179.231C555.566 223.664 555.566 268.151 555.407 312.584C557.692 322.895 545.68 324.224 538.611 323.639C456.973 323.586 375.388 323.586 293.749 323.639C286.68 324.171 275.094 323.108 277.432 312.797C277.113 270.064 277.539 227.278 277.273 184.493C277.857 178.008 275.785 166.741 285.245 166.103Z" fill="black"/>
<path d="M144.451 72.9308C143.175 65.6492 148.225 58.2614 156.038 59.3775C329.413 59.2712 502.841 59.0055 676.27 59.537C683.764 58.2614 685.252 67.4032 684.88 72.7713C685.04 288.932 684.827 505.2 684.987 721.361C684.88 729.068 684.349 736.828 683.711 744.481C509.485 745.491 335.313 744.587 161.087 744.959C152.636 746.076 142.112 743.312 144.504 732.416C144.238 512.588 144.292 292.759 144.451 72.9308ZM285.245 166.103C275.785 166.741 277.857 178.008 277.273 184.493C277.539 227.278 277.113 270.064 277.432 312.797C275.094 323.108 286.68 324.171 293.749 323.639C375.388 323.586 456.973 323.586 538.611 323.639C545.68 324.224 557.692 322.895 555.407 312.584C555.566 268.151 555.566 223.664 555.407 179.231C556.789 171.683 551.102 164.455 543.235 165.731C457.239 165.731 371.189 164.933 285.245 166.103Z" fill="white"/>
<path d="M18.6981 747.404C30.7631 719.713 55.4779 693.989 87.049 691.544C87.1022 707.435 87.1022 723.381 87.049 739.326C54.3618 744.959 35.6529 775.095 18.2197 800.235C18.4855 782.643 17.263 764.997 18.6981 747.404Z" fill="white"/>
<path d="M66.0547 847.964C52.3952 824.844 81.2025 803.478 102.569 805.338C284.182 805.338 465.849 805.338 647.463 805.338C645.815 822.186 649.961 843.287 635.61 855.777C628.807 864.069 617.699 865.078 607.76 865.025C439.274 865.078 270.789 864.972 102.303 865.078C87.9526 866.567 75.7812 857.318 66.0547 847.964Z" fill="white"/>
</svg>
