<?xml version="1.0" encoding="UTF-8" ?>
<!DOCTYPE svg PUBLIC "-//W3C//DTD SVG 1.1//EN" "http://www.w3.org/Graphics/SVG/1.1/DTD/svg11.dtd">
<svg width="200pt" height="200pt" viewBox="0 0 200 200" version="1.1" xmlns="http://www.w3.org/2000/svg">
<g id="#000000ff">
<path fill="#000000" opacity="1.00" d=" M 34.33 17.26 C 37.47 14.17 41.24 10.89 45.98 11.28 C 83.35 11.32 120.73 11.39 158.10 11.48 C 164.32 11.14 170.01 16.73 169.75 22.97 C 169.80 65.32 169.74 107.66 169.78 150.01 C 169.80 153.40 169.26 157.18 166.61 159.58 C 164.66 161.83 161.54 162.00 158.82 162.57 C 158.23 168.79 160.55 176.03 156.35 181.36 C 154.68 183.70 151.98 185.37 149.03 185.15 C 114.68 185.16 80.34 185.14 45.99 185.17 C 41.16 185.56 37.12 182.38 33.88 179.20 C 30.65 176.05 29.48 171.36 29.71 166.97 C 29.77 120.66 29.72 74.36 29.73 28.05 C 29.78 24.05 31.39 20.02 34.33 17.26 M 56.86 24.97 C 56.83 66.33 56.82 107.69 56.87 149.05 C 56.42 151.10 58.40 151.62 59.99 151.41 C 92.77 151.34 125.54 151.51 158.32 151.32 C 158.44 149.88 158.54 148.42 158.56 146.97 C 158.53 106.30 158.57 65.61 158.54 24.94 C 158.61 23.93 158.33 22.21 156.92 22.45 C 124.29 22.35 91.66 22.40 59.04 22.42 C 57.57 22.21 56.62 23.60 56.86 24.97 M 33.20 151.87 C 32.93 155.18 33.16 158.50 33.11 161.81 C 36.39 157.08 39.91 151.41 46.06 150.35 C 46.07 147.35 46.07 144.35 46.06 141.36 C 40.12 141.82 35.47 146.66 33.20 151.87 M 42.11 170.79 C 43.94 172.55 46.23 174.29 48.93 174.01 C 80.63 173.99 112.33 174.01 144.03 174.00 C 145.90 174.01 147.99 173.82 149.27 172.26 C 151.97 169.91 151.19 165.94 151.50 162.77 C 117.33 162.77 83.15 162.77 48.98 162.77 C 44.96 162.42 39.54 166.44 42.11 170.79 Z" />
<path fill="#000000" opacity="1.00" d=" M 83.35 42.50 C 99.52 42.28 115.71 42.43 131.89 42.43 C 133.37 42.19 134.44 43.55 134.18 44.97 C 134.21 53.33 134.21 61.70 134.18 70.06 C 134.61 72.00 132.35 72.25 131.02 72.14 C 115.66 72.13 100.31 72.13 84.95 72.14 C 83.62 72.24 81.44 72.04 81.88 70.10 C 81.82 62.06 81.90 54.01 81.85 45.96 C 81.96 44.74 81.57 42.62 83.35 42.50 Z" />
</g>
<g id="#ffffffff">
<path fill="#ffffff" opacity="1.00" d=" M 56.86 24.97 C 56.62 23.60 57.57 22.21 59.04 22.42 C 91.66 22.40 124.29 22.35 156.92 22.45 C 158.33 22.21 158.61 23.93 158.54 24.94 C 158.57 65.61 158.53 106.30 158.56 146.97 C 158.54 148.42 158.44 149.88 158.32 151.32 C 125.54 151.51 92.77 151.34 59.99 151.41 C 58.40 151.62 56.42 151.10 56.87 149.05 C 56.82 107.69 56.83 66.33 56.86 24.97 M 83.35 42.50 C 81.57 42.62 81.96 44.74 81.85 45.96 C 81.90 54.01 81.82 62.06 81.88 70.10 C 81.44 72.04 83.62 72.24 84.95 72.14 C 100.31 72.13 115.66 72.13 131.02 72.14 C 132.35 72.25 134.61 72.00 134.18 70.06 C 134.21 61.70 134.21 53.33 134.18 44.97 C 134.44 43.55 133.37 42.19 131.89 42.43 C 115.71 42.43 99.52 42.28 83.35 42.50 Z" />
<path fill="#ffffff" opacity="1.00" d=" M 33.20 151.87 C 35.47 146.66 40.12 141.82 46.06 141.36 C 46.07 144.35 46.07 147.35 46.06 150.35 C 39.91 151.41 36.39 157.08 33.11 161.81 C 33.16 158.50 32.93 155.18 33.20 151.87 Z" />
<path fill="#ffffff" opacity="1.00" d=" M 42.11 170.79 C 39.54 166.44 44.96 162.42 48.98 162.77 C 83.15 162.77 117.33 162.77 151.50 162.77 C 151.19 165.94 151.97 169.91 149.27 172.26 C 147.99 173.82 145.90 174.01 144.03 174.00 C 112.33 174.01 80.63 173.99 48.93 174.01 C 46.23 174.29 43.94 172.55 42.11 170.79 Z" />
</g>
</svg>
