<svg xmlns="http://www.w3.org/2000/svg" width="60" height="60"><path style="opacity:1;fill:#fea72b;fill-opacity:1;stroke:none;stroke-opacity:1" d="M-5.801-6.164h72.69v72.871h-72.69z"/><g data-name="Calque 2"><g data-name="header"><path d="M26.58 27.06q0 8-4.26 12.3a12.21 12.21 0 0 1-9 3.42 12.21 12.21 0 0 1-9-3.42Q0 35.1 0 27.06q0-8.04 4.26-12.3a12.21 12.21 0 0 1 9-3.42 12.21 12.21 0 0 1 9 3.42q4.32 4.24 4.32 12.3zM13.29 17q-5.67 0-5.67 10.06t5.67 10.08q5.71 0 5.71-10.08T13.29 17z" style="fill:#3a384c;fill-opacity:1" transform="translate(14.627 5.256) scale(1.15671)"/><path d="M9 6.78a7.37 7.37 0 0 1-.6-3 7.37 7.37 0 0 1 .6-3A8.09 8.09 0 0 1 12.83 0a7.05 7.05 0 0 1 3.69.84 7.37 7.37 0 0 1 .6 3 7.37 7.37 0 0 1-.6 3 7.46 7.46 0 0 1-3.87.84A6.49 6.49 0 0 1 9 6.78z" style="fill:#fff" transform="translate(14.627 5.256) scale(1.15671)"/></g></g></svg>