<?xml version="1.0" encoding="utf-8"?>
<!-- Generator: Adobe Illustrator 27.7.0, SVG Export Plug-In . SVG Version: 6.00 Build 0)  -->
<svg version="1.1" id="Layer_1" xmlns="http://www.w3.org/2000/svg" xmlns:xlink="http://www.w3.org/1999/xlink" x="0px" y="0px"
	 viewBox="0 0 512 512" style="enable-background:new 0 0 512 512;" xml:space="preserve">
<style type="text/css">
	.st0{fill:#FEA72B;}
	.st1{fill:#3A384C;}
	.st2{fill:#FFFFFF;}
</style>
<g>
	<path class="st0" d="M393.1,512H118.9C53.6,512,0.6,459.1,0.6,393.8V118.2C0.6,52.9,53.6,0,118.9,0h274.3
		c65.3,0,118.2,52.9,118.2,118.2v275.5C511.4,459.1,458.4,512,393.1,512z"/>
	<g>
		<g>
			<path class="st1" d="M360.2,300.2c0,43.3-11.5,76.7-34.6,100c-19.5,18.9-46,28.9-73.1,27.8c-27.2,1.1-53.6-8.9-73.1-27.8
				c-23.4-23.1-35.1-56.4-35.1-100s11.5-76.9,34.6-100c19.5-18.9,46-28.9,73.1-27.8c27.2-1.1,53.6,8.9,73.1,27.8
				C348.5,223.2,360.2,256.5,360.2,300.2z M252.2,218.4c-30.7,0-46.1,27.3-46.1,81.8s15.4,81.8,46.1,81.9
				c30.9,0,46.4-27.3,46.4-81.9S283.1,218.3,252.2,218.4z"/>
			<path class="st2" d="M217.3,135.3c-3.3-7.7-5-16-4.9-24.4c-0.1-8.4,1.6-16.7,4.9-24.4c9.7-4.6,20.4-6.8,31.1-6.3
				c10.4-0.5,20.8,1.9,30,6.8c3.3,7.7,5,16,4.9,24.4c0.1,8.4-1.6,16.7-4.9,24.4c-9.7,5.1-20.5,7.4-31.5,6.8
				C236.6,143.2,226.3,140.7,217.3,135.3z"/>
		</g>
	</g>
</g>
</svg>
