<svg xmlns="http://www.w3.org/2000/svg" xmlns:xlink="http://www.w3.org/1999/xlink" version="1.1" id="Layer_1" x="0px" y="0px" style="enable-background:new 0 0 512 512;" xml:space="preserve" viewBox="0 24.4 512.1 463.3">
<style type="text/css">
	.st0{fill-rule:evenodd;clip-rule:evenodd;fill:#ffffff;}
	.st1{fill-rule:evenodd;clip-rule:evenodd;fill:#000000;}
	.st2{fill-rule:evenodd;clip-rule:evenodd;fill:#ffffff;}
</style>
<g>
	<path class="st0" d="M260.1,487.7c119.8,0,252.8-77,236-225.1C479.3,114.4,380,37.4,260.1,37.4S41.7,104.9,16,262.6   C-9.7,420.2,140.3,487.7,260.1,487.7z" fill="#000000"/>
	<path class="st1" d="M258.5,444.4c96.1,0,202.8-61.7,189.3-180.5C434.3,145.1,354.7,83.4,258.5,83.4   c-96.1,0-175.2,54.1-195.8,180.5C42.1,390.3,162.4,444.4,258.5,444.4z" fill="#000000"/>
	<path class="st0" d="M68.8,197.6c13,0,18.7-46.5,41.9-67.7c21.4-19.5,70.4-26.1,70.4-48.6c0-47-51-56.9-96.1-56.9   C40.1,24.3,0,72,0,119C0,166,43.8,197.5,68.8,197.6z" fill="#000000"/>
	<path class="st0" d="M443.2,197.6c-13,0-18.7-46.5-41.9-67.7c-21.4-19.5-70.4-26.1-70.4-48.6c0-47,51-56.9,96.1-56.9   c45,0,85.1,47.7,85.1,94.7C512,166,468.2,197.5,443.2,197.6z" fill="#000000"/>
	<path class="st2" d="M361.9,355.8c34.1-8.1,48.3-22.5,48.3-68.8s-21.7-93.3-59.1-93.3s-62.2,33.4-62.2,79.7S327.8,364,361.9,355.8z   " fill="#000000"/>
	<path class="st1" d="M349.4,297.1c9.3,0,12-2.4,16.2-7.7c4.7-6,8.2-12.9,7.1-27.1c-1.9-23.9-12-34.8-31.7-34.8   c-19.7,0-23.5,15.1-23.5,34.8C317.5,282,329.7,297.1,349.4,297.1z" fill="#000000"/>
	<path class="st2" d="M151.4,355.8c-34.1-8.1-48.3-22.5-48.3-68.8s21.7-93.3,59.1-93.3c37.4,0,62.2,33.4,62.2,79.7   S185.5,364,151.4,355.8z" fill="#000000"/>
	<path class="st1" d="M163.9,297.1c-9.3,0-12-2.4-16.2-7.7c-4.7-6-8.2-12.9-7.1-27.1c1.9-23.9,12-34.8,31.7-34.8   c19.7,0,23.5,15.1,23.5,34.8C195.8,282,183.6,297.1,163.9,297.1z" fill="#000000"/>
	<path class="st0" d="M257.6,386.6c18.5,0,36.5-27.2,36.5-38.9c0-11.7-18.2-13.6-36.8-13.6s-36.8,1.9-36.8,13.6   C220.6,359.4,239.1,386.6,257.6,386.6z" fill="#000000"/>
</g>
</svg>