<?xml version="1.0" encoding="UTF-8" standalone="no"?>
<svg
   xmlns:dc="http://purl.org/dc/elements/1.1/"
   xmlns:cc="http://creativecommons.org/ns#"
   xmlns:rdf="http://www.w3.org/1999/02/22-rdf-syntax-ns#"
   xmlns:svg="http://www.w3.org/2000/svg"
   xmlns="http://www.w3.org/2000/svg"
   width="190.73239mm"
   height="130.17635mm"
   viewBox="0 0 190.73239 130.17635"
   version="1.1"
   id="svg856">
  <defs
     id="defs850" />
  <metadata
     id="metadata853">
    <rdf:RDF>
      <cc:Work
         rdf:about="">
        <dc:format>image/svg+xml</dc:format>
        <dc:type
           rdf:resource="http://purl.org/dc/dcmitype/StillImage" />
        <dc:title></dc:title>
      </cc:Work>
    </rdf:RDF>
  </metadata>
  <g
     id="layer1"
     transform="translate(-3.356321,-3.5331223)">
    <path
       class="cls-1"
       d="M 163.59378,133.70947 V 73.810402 q 0,-18.78389 -15.51622,-18.78546 -15.51624,-0.002 -15.52409,18.78546 V 133.70947 H 102.06168 V 73.810402 q 0,-18.78389 -15.24589,-18.78546 -15.520944,0 -15.514659,18.78546 V 133.70947 H 40.809347 V 70.275552 q 0,-19.60433 13.612853,-29.67291 11.981383,-8.98722 32.398307,-8.99193 20.696693,0 30.491783,10.62025 8.43711,-10.62025 30.76841,-10.62025 20.41849,0 32.39516,8.99193 13.61128,10.05914 13.61285,29.67291 v 63.433918 z"
       id="path6"
       style="fill:#f27f22;stroke-width:0.157174" />
    <path
       class="cls-2"
       d="m 100.03256,26.999222 30.2906,-22.1144027 -0.38978,-1.351697 C 75.293356,10.216166 50.428405,14.9644 3.356321,42.249822 l 0.435372,1.24168 3.7438889,0.0346 c -0.347355,3.77218 -0.943045,13.08318 -0.176035,27.08582 C 2.135078,85.728935 7.2259489,95.998695 12.005614,107.16435 12.76005,95.533465 12.681463,82.816502 9.1136099,70.156122 c -0.741862,-13.90519 -0.128882,-23.0543 0.205898,-26.61273 l 31.2069261,0.29863 c 0,0 -0.205898,9.43045 0.924184,18.29665 27.887406,9.79823 55.930422,-0.0346 70.808522,-24.18911 -4.12111,-4.63192 -12.22658,-10.95032 -12.22658,-10.95032 z"
       id="path18"
       style="fill:#333333;stroke-width:0.157174" />
  </g>
</svg>
