<?xml version="1.0" encoding="utf-8"?>
<!-- Generator: Adobe Illustrator 27.7.0, SVG Export Plug-In . SVG Version: 6.00 Build 0)  -->
<svg version="1.1" id="Layer_1" xmlns="http://www.w3.org/2000/svg" xmlns:xlink="http://www.w3.org/1999/xlink" x="0px" y="0px"
	 viewBox="0 0 512 512" style="enable-background:new 0 0 512 512;" xml:space="preserve">
<style type="text/css">
	.st0{fill:#011533;}
	.st1{display:none;fill:#011533;}
	.st2{fill:#1D3964;}
	.st3{fill:#CFE1F3;}
	.st4{fill:#021533;}
	.st5{fill:#85ADD5;}
	.st6{fill:#76A6D8;}
	.st7{fill:#75A7DA;}
	.st8{fill:#77A8DB;}
	.st9{fill:#D7E7F7;}
	.st10{fill:#CAE0F6;}
	.st11{fill:#2B4C79;}
	.st12{fill:#061833;}
	.st13{fill:#0C2345;}
	.st14{fill:#031838;}
	.st15{fill:#274674;}
	.st16{fill:#051733;}
	.st17{fill:#3D679D;}
	.st18{fill:#5281B6;}
	.st19{fill:#234879;}
	.st20{fill:#061732;}
	.st21{fill:#6294CA;}
	.st22{fill:#1F3963;}
	.st23{fill:#F6F9FB;}
	.st24{fill:#426A9D;}
	.st25{fill:#F2F5F7;}
	.st26{fill:#F3F5F8;}
	.st27{fill:#6F9ED0;}
	.st28{fill:#A9CBEB;}
	.st29{fill:#183158;}
	.st30{fill:#2E507E;}
	.st31{fill:#6497CD;}
	.st32{fill:#92BCE6;}
	.st33{fill:#22406B;}
	.st34{fill:#A1C5E9;}
	.st35{fill:#E6EEF6;}
	.st36{fill:#5883B9;}
	.st37{fill:#0B1E3B;}
	.st38{fill:#172E55;}
	.st39{fill:#5B89C0;}
	.st40{fill:#385D8F;}
	.st41{fill:#8BB5DE;}
	.st42{fill:#23406D;}
	.st43{fill:#B5D1ED;}
	.st44{fill:#2D5183;}
	.st45{fill:#EEF1F5;}
	.st46{fill:#EBF0F2;}
	.st47{fill:#588CC1;}
	.st48{fill:#71A1D3;}
	.st49{fill:#EAF1F7;}
	.st50{fill:#E7ECF2;}
	.st51{fill:#537EB5;}
	.st52{fill:#E8F0F6;}
	.st53{fill:#74A8DC;}
	.st54{fill:#1C3760;}
	.st55{fill:#EFF4F7;}
	.st56{fill:#375A8A;}
	.st57{fill:#ADD0F1;}
	.st58{fill:#E9EEF4;}
	.st59{fill:#89B6E1;}
	.st60{fill:#446FA3;}
</style>
<path class="st0" d="M435.8,512H76.2C34.1,512,0,477.9,0,435.8V76.2C0,34.1,34.1,0,76.2,0h359.7C477.9,0,512,34.1,512,76.2v359.7
	C512,477.9,477.9,512,435.8,512z"/>
<g>
	<path class="st1" d="M0,0c169,0,337.9,0,512,0c0,169,0,337.9,0,512c-169,0-337.9,0-512,0C0,343,0,174.1,0,0z"/>
	<path class="st2" d="M82,232c11.8,0.7,17.8,3.4,26,12c0.9,2.4,1.8,4.9,2.8,7.4c1.1,2.2,2.1,4.4,3.2,6.6c3.7,1.3,3.7,1.3,7.9,1.9
		c5.6,0.9,7.5,1.3,10.9,5.9c2,4,3.7,8,5.2,12.2c3.1-0.2,3.1-0.2,6.2-0.5c10.6,0.7,15.9,4.8,23.4,12c3.6,6.8,3.9,12.8,4.4,20.5
		c-1,2-1,2-2,4c1.4-0.9,2.7-1.9,4.1-2.9c7.1-3.8,11.8-5,19.9-5.1c8.7,2.7,14.6,6.1,20,13.5c1,2.2,1,2.2,2,4.5
		c-1.5,0.1-3.1,0.2-4.7,0.3c-2,0.1-4,0.3-6.1,0.5c-2,0.1-4,0.3-6,0.4c-5.5,0.4-5.5,0.4-9.2,4.8c-2.8,7.5-2.3,15.4-2.3,23.3
		c0,1.5,0,2.9,0,4.5c0,3.1,0,6.2,0,9.3c0,4.7,0,9.5-0.1,14.2c0,3,0,6.1,0,9.1c0,1.4,0,2.8,0,4.3c0,11.3,0,11.3,4.5,21.3
		c13.2,5.2,26.5,4.4,40.5,4c3.5-0.1,3.5-0.1,7-0.1c4.9-0.1,9.7-0.2,14.6-0.3c7.5-0.2,14.9-0.3,22.4-0.5c4.7-0.1,9.5-0.2,14.2-0.3
		c2.2,0,4.5-0.1,6.8-0.1c2.1-0.1,4.1-0.1,6.3-0.2c1.8,0,3.6-0.1,5.5-0.1c5-0.2,5-0.2,10.6-2.3c2.6-7.7,2.4-14.9,2.4-22.9
		c0-1.7,0-3.3,0-5c0-3.5,0-7,0-10.5c0-5.4,0.1-10.7,0.1-16.1c0-3.4,0-6.8,0-10.2c0-2.4,0-2.4,0.1-4.9c0-6.6-0.3-11.5-3.4-17.3
		c-4.7-4.3-8.4-4.2-14.7-4.5c-3-0.2-3-0.2-6-0.3c-2.3-0.1-2.3-0.1-4.6-0.2c3.8-7.1,7.1-11.8,14-16c10-1.5,19.2-1.3,28.4,3
		c1.2,1,2.4,2,3.6,3c-0.7-2.5-0.7-2.5-1.5-5c-0.7-9.5,2.1-15.3,7.5-23c6.9-6.2,11.7-8.4,20.8-8.5c2.4,0.2,4.8,0.3,7.2,0.5
		c0.2-1.5,0.3-3,0.5-4.5c1.9-6.8,3.8-9.4,9.5-13.5c6.5-0.5,6.5-0.5,12,0c0.2-1.4,0.3-2.8,0.5-4.2c2.4-9.2,6.8-15.6,14.2-21.5
		c6.1-2.6,10.7-2.7,17.2-2.2c10.8,39.1,3.1,80.8-16,116c-4.9,7.8-10.2,14.9-16,22c-1,1.4-2.1,2.7-3.1,4.1
		c-7.4,9.2-16.1,16.4-25.2,23.8c-1.2,1-2.4,1.9-3.7,2.9c-9,6.9-9,6.9-14.2,8.2c-1.2,0.3-2.5,0.6-3.7,1c-0.7,1.3-1.3,2.6-2,4
		c-4.6,2.1-9.2,4-14,5.9c-1.4,0.5-2.7,1.1-4.2,1.6c-2.7,1.1-5.5,2.1-8.2,3.1c-2.9,1.1-5.8,2.2-8.6,3.4
		c-42.5,15.7-92.8,9.6-133.3-8.9c-4.6-2.3-9.2-4.6-13.7-7.1c0-1.3,0-2.6,0-4c-1.3,0-2.6,0-4,0c0-1.3,0-2.6,0-4c-2,0.7-4,1.3-6,2
		c-8-5.2-14.9-11.7-22-18c-1.6-1.4-3.2-2.8-4.8-4.2c-25.5-23.9-45.3-60.4-47.6-95.7c-0.2-6.5-0.2-13-0.1-19.5c0-2.2,0-4.4,0-6.7
		C77.5,251.2,77.6,242,82,232z"/>
	<path class="st3" d="M285.2,111.1c18.3,10.7,29.4,24.4,36,44.7c1,5.7,1.1,11.2,1.1,16.9c0,2.2,0.1,4.4,0.1,6.7
		c-0.5,6.8-2,12.2-4.5,18.6c-3.3-0.7-6.6-1.3-10-2c0.1-2,0.2-4,0.3-6c0.6-17.9,0.3-30.7-12.3-44.3c-17.2-16.5-31.4-18.6-54.6-18.1
		c-6.1,0.3-11.5,1-17.4,2.4c0,1.3,0,2.6,0,4c3.7,0.7,3.7,0.7,7.4,1.4c8.6,2.1,12.9,5.7,18.6,12.6c1.2,1.4,2.3,2.7,3.5,4.1
		c5.7,8.9,5.7,19.6,4.5,29.9c-3.7,11.7-9.8,19.4-20,26c-7.8,1.6-7.8,1.6-14,2c1.7,4.5,1.7,4.5,6.8,6.2c15.2,3.7,28.4,3.6,42.1-4.3
		c1-0.6,2.1-1.3,3.1-1.9c1.3-0.7,2.6-1.3,4-2c0.7,1.3,1.3,2.6,2,4c6.1,0.9,6.1,0.9,13.1,1.2c2.4,0.1,4.8,0.3,7.3,0.5
		c1.9,0.1,3.7,0.2,5.6,0.3c-10.2,14.1-23.3,21.3-40,26c-21.7,2.4-40-1.7-57.8-14.5c-15.2-12.8-21.5-28-24.2-47.5
		c-0.7-20.1,6.1-36.7,18.5-52.3C225,104.2,258.5,98.4,285.2,111.1z"/>
	<path class="st4" d="M276,129.1c15.1,8.2,28.5,20.3,34,36.9c0.1,4.8,0.2,9.6,0.1,14.4c0,2.5,0,5.1-0.1,7.7c0,2,0,3.9-0.1,5.9
		c-2,0.7-4,1.3-6,2c-0.7-1-1.5-2.1-2.2-3.1c-3.8-3.6-3.8-3.6-10.1-2.2c-1.9,0.5-3.7,0.9-5.6,1.4c-0.8,4-1.4,8-2,12
		c3.6,3.6,9.2,2.8,14.1,3.1c2.2,0.2,4.4,0.3,6.7,0.5c1.7,0.1,3.4,0.2,5.2,0.4c-0.7,2-1.3,4-2,6c-4.2,0.1-8.5,0.2-12.8,0.2
		c-3.6,0.1-3.6,0.1-7.2,0.1C282,214,282,214,278,210c-2.8,1.9-2.8,1.9-5.6,3.9c-11.2,7.2-21.4,7.2-34.4,6.1c-5.2-1.5-9.2-3.4-14-6
		c0-1.3,0-2.6,0-4c1.2-0.3,2.4-0.6,3.6-0.9c14.1-4,19.7-8.9,27-21.7c3.5-13.5,2.2-25.1-4.6-37.4c-7.5-9.5-14.8-12.4-26-16
		c0-1.3,0-2.6,0-4C238.6,122.9,261,123,276,129.1z"/>
	<path class="st5" d="M198,334c14.8,0,29.7-0.1,44.5-0.1c6.9,0,13.8,0,20.7,0c7.9,0,15.8,0,23.7,0c3.7,0,3.7,0,7.5,0
		c2.3,0,4.6,0,6.9,0c2,0,4,0,6.1,0c4.6,0.2,4.6,0.2,6.6,2.2c0.2,5,0.3,10,0.2,15c0,2.1,0,2.1,0,4.3c0,10.5,0,10.5-2.3,12.7
		c-3.5,0.2-7.1,0.3-10.7,0.3c-2.3,0-4.6,0-6.9,0c-2.5,0-5,0-7.5,0c-2.5,0-5,0-7.6,0c-5.3,0-10.7,0-16,0c-6.9,0-13.7,0-20.6,0
		c-6.5,0-13.1,0-19.6,0c-2.5,0-5,0-7.5,0c-2.3,0-4.6,0-6.9,0c-2,0-4,0-6.1,0C198,368,198,368,196,366c-0.2-4.6-0.3-9.2-0.2-13.9
		c0-2.5,0-5.1,0-7.7C196,338,196,338,198,334z"/>
	<path class="st6" d="M196,378c38.9,0,77.9,0,118,0c0,9.9,0,19.8,0,30c-2,2-2,2-6.6,2.2c-2,0-4,0-6.1,0c-2.3,0-4.6,0-6.9,0
		c-2.5,0-5,0-7.5,0c-3.8,0-3.8,0-7.7,0c-6.7,0-13.5,0-20.2,0c-6.9,0-13.7,0-20.6,0c-13.5,0-27-0.1-40.4-0.1
		C193.2,400.4,196,388.7,196,378z"/>
	<path class="st7" d="M428,232c3.2,13.5,4.5,26.1,4,40c-1.5-0.1-3.1-0.1-4.7-0.2c-19.1-0.5-32.1,2.4-47.3,14.2
		c-1.8,2.1-3.6,4.2-5.4,6.4C370,298,370,298,364,300c-2.4,3.3-2.4,3.3-4.4,7.1c-1.2,2.3-2.4,4.5-3.6,6.9c1.3,0.2,2.6,0.4,3.9,0.6
		c1.4,0.5,2.7,0.9,4.1,1.4c0.7,2,1.3,4,2,6c2,1.3,4,2.6,6,4c-4,3.3-7.9,6.6-12,10c-0.7-2-1.3-4-2-6c-8.7-2.3-8.7-2.3-17,0.6
		c-1.6,1.1-3.3,2.2-5,3.4c-4,1.4-8,2.8-12,4c-0.9-1.9-1.7-3.9-2.6-5.9c-3.2-5-4.8-6-10.8-7.4c-5.5-0.5-11-0.7-16.6-0.8
		c3.8-7.1,7.1-11.8,14-16c10-1.5,19.2-1.3,28.4,3c1.2,1,2.4,2,3.6,3c-0.5-1.6-1-3.3-1.5-5c-0.7-9.5,2.1-15.3,7.5-23
		c6.9-6.2,11.7-8.4,20.8-8.5c2.4,0.2,4.8,0.3,7.2,0.5c0.2-1.5,0.3-3,0.5-4.5c1.9-6.8,3.8-9.4,9.5-13.5c6.5-0.5,6.5-0.5,12,0
		c0.2-1.4,0.3-2.8,0.5-4.2c2.4-9.2,6.8-15.6,14.2-21.5C416.9,231.6,421.4,231.5,428,232z"/>
	<path class="st8" d="M82,232c11.8,0.7,17.8,3.4,26,12c0.9,2.4,1.8,4.9,2.8,7.4c1.1,2.2,2.1,4.4,3.2,6.6c3.7,1.3,3.7,1.3,7.9,1.9
		c5.6,0.9,7.5,1.3,10.9,5.9c2,4,3.7,8,5.2,12.2c3.1-0.2,3.1-0.2,6.2-0.5c10.6,0.7,15.9,4.8,23.4,12c3.6,6.8,3.9,12.8,4.4,20.5
		c-1,2-1,2-2,4c1.4-0.9,2.7-1.9,4.1-2.9c7.1-3.8,11.8-5,19.9-5.1c8.7,2.7,14.6,6.1,20,13.5c1,2.2,1,2.2,2,4.5c-1.5,0-3,0.1-4.6,0.1
		c-6,0.3-11.6,0.7-17.4,1.9c-4.6,4.7-4.6,4.7-6,10c-6.6-0.1-12-0.3-17.2-4.7c-5.4-6.2-9.5-12.6-13.5-19.7
		c-4.6-7.8-9.4-10.2-17.6-13.6c-3.7-2-3.7-2-7.5-7.9c-6.2-9.2-15.4-13.9-25.9-17.4c-5.6-1-11-0.9-16.7-0.9c-2.2,0-4.3,0-6.5,0.1
		c-2.5,0-2.5,0-5,0.1c-0.1-4.4-0.2-8.8-0.2-13.2c0-2.5-0.1-4.9-0.1-7.5C78,244.1,79.4,238.7,82,232z"/>
	<path class="st9" d="M255,257.8c7,0.2,7,0.2,9,2.2c0.2,2.7,0.2,5.4,0.2,8.1c0,1.6,0,3.2,0,4.9c0,1.7,0,3.4-0.1,5.2
		c0,1.7,0,3.4,0,5.2c0,4.2-0.1,8.5-0.1,12.7c1.3-1.5,1.3-1.5,2.7-3c3.3-3,3.3-3,8.7-3.4c1.5,0.1,3.1,0.2,4.6,0.4
		c-0.7,10.1-6.1,15-13.1,21.6c-1,1-2.1,2-3.2,3c-2.6,2.5-5.1,4.9-7.7,7.3c-9.1-7.6-18.1-15.1-26-24c0-2.6,0-5.3,0-8
		c3.3,0,6.6,0,10,0c0.7,2,1.3,4,2,6c1.3,0,2.6,0,4,0c0-2.6,0-5.2-0.1-7.8c0-3.4,0-6.7-0.1-10.1c0-1.7,0-3.4-0.1-5.2
		c0-1.6,0-3.2,0-4.9c0-1.5,0-3,0-4.5C246.2,256.9,248.2,258,255,257.8z"/>
	<path class="st10" d="M198,334c14.8,0,29.7-0.1,44.5-0.1c6.9,0,13.8,0,20.7,0c7.9,0,15.8,0,23.7,0c3.7,0,3.7,0,7.5,0
		c2.3,0,4.6,0,6.9,0c2,0,4,0,6.1,0c4.6,0.2,4.6,0.2,6.6,2.2c0.7,11.7,0.7,11.7,0,16c-2,1.3-4,2.6-6,4c-1-4-1-4-2-8
		c-2.6,0.7-5.3,1.3-8,2c0-1.3,0-2.6,0-4c-12.5-0.1-24.9-0.1-37.4-0.1c-4.2,0-8.5,0-12.7,0c-6.1,0-12.2,0-18.3,0c-1.9,0-3.8,0-5.8,0
		c-2.6,0-2.6,0-5.3,0c-1.6,0-3.1,0-4.7,0c-4,0-4,0-7.8,2.2c-5.2-1.9-5.2-1.9-10-4C196.7,340.7,197.3,337.4,198,334z"/>
	<path class="st11" d="M200,92c0,2,0,4,0,6c-2.1,0.8-4.1,1.7-6.2,2.6c-42.6,17.9-80.7,45.6-99.3,89.5c-3,7.3-5.7,14.6-8.5,21.9
		c-2,0-4,0-6,0c1-10.8,3.8-19.4,8.8-29.1c0.7-1.4,1.4-2.8,2.1-4.2c19.5-36.9,49.6-62.7,87-80.6c1.3-0.6,2.6-1.2,3.9-1.9
		C188.5,93.2,192.4,92,200,92z"/>
	<path class="st12" d="M138,316c6.2,0.7,7.9,1.8,12,6.8c1.3,1.7,2.6,3.5,4,5.2c4.3,3.5,4.3,3.5,8,6c-0.7,6.2-1.8,7.9-6.8,12
		c-2.6,2-2.6,2-5.2,4c-3.5,4.3-3.5,4.3-6,8c-6.2-0.7-7.9-1.8-12-6.8c-1.3-1.7-2.6-3.5-4-5.2c-4.3-3.5-4.3-3.5-8-6
		c0.5-7,2.4-8.4,7.9-13.1c2-1.6,4-3.2,6.1-4.9C135.3,320,136.6,318,138,316z"/>
	<path class="st13" d="M221.9,387.8c3.5,0,7.1,0,10.6,0c1.9,0,3.7,0,5.6,0c6,0,11.9,0,17.9,0.1c4,0,8.1,0,12.1,0
		c9.9,0,19.8,0.1,29.8,0.1c0,3.3,0,6.6,0,10c-27.7,0-55.4,0-84,0c-0.7-2.6-1.3-5.3-2-8C214,388,214,388,221.9,387.8z"/>
	<path class="st14" d="M228.2,343.5c1.7,0,3.3,0,5.1,0c2.6,0,2.6,0,5.2,0c3.6,0,7.3,0,10.9,0c5.6,0,11.1,0,16.7,0c3.5,0,7,0,10.6,0
		c1.7,0,3.3,0,5.1,0c11.8,0.1,11.8,0.1,16.2,2.3c0,2.6,0,5.3,0,8c-11.6,0.1-23.2,0.3-34.8,0.3c-3.9,0-7.9,0.1-11.8,0.1
		c-5.7,0.1-11.3,0.1-17,0.1c-1.8,0-3.5,0.1-5.4,0.1c-1.6,0-3.3,0-5,0c-1.4,0-2.9,0-4.4,0C216,354,216,354,212,348
		C217.3,342.7,221.1,343.5,228.2,343.5z"/>
	<path class="st15" d="M366,124c15.7,2.4,27.9,19.3,37.2,31c11.6,16.1,22.3,35.6,26.8,55c-2.6,0-5.3,0-8,0c-0.5-1.6-1.1-3.2-1.6-4.8
		c-10.3-29-27.6-50.9-49.5-72.2C366,128,366,128,366,124z"/>
	<path class="st16" d="M366,340c6.1,0.7,8.1,2.1,12.6,6.5c3.4,5.5,3.4,5.5,3.6,10.5c-3.3,7.2-7.9,10.3-14.2,15
		c-3.3-3.3-6.6-6.6-10-10c-2,3-2,3-4,6c-1.3-1.3-2.6-2.6-4-4c0.2-5,0.2-5,2-10c2.6-1.4,5.3-2.7,8-4C363.5,344.9,363.5,344.9,366,340
		z"/>
	<path class="st17" d="M296.4,188.8c1.9,0.4,3.7,0.8,5.6,1.2c0.7,2,1.3,4,2,6c4.6,0.7,9.2,1.3,14,2c-1.3,3.3-2.6,6.6-4,10
		c-4.6,0.1-9.2,0.2-13.8,0.2c-3.8,0.1-3.8,0.1-7.7,0.1C286,208,286,208,282,204c0.4-6,0.4-6,2-12C290,188,290,188,296.4,188.8z"/>
	<path class="st18" d="M272,84c12.8,0.3,24.4,3,36.5,6.8c1.3,0.4,2.7,0.8,4.1,1.3c8.2,2.7,15.8,5.9,23.4,10c0,2,0,4,0,6
		c-8.1-1.4-15.3-3.8-23-6.8c-13.5-4.9-26.9-8.4-41-11.2C272,88,272,86,272,84z"/>
	<path class="st19" d="M358,302c1.3,0.7,2.6,1.3,4,2c-3,5-3,5-6,10c1.3,0.2,2.6,0.4,3.9,0.6c1.4,0.5,2.7,0.9,4.1,1.4
		c0.7,2,1.3,4,2,6c2,1.3,4,2.6,6,4c-4,3.3-7.9,6.6-12,10c-0.7-2-1.3-4-2-6c-8.4-1.9-12.5-2.3-20,2C350.3,310.9,350.3,310.9,358,302z
		"/>
	<path class="st20" d="M382,354c2.6,1.3,5.3,2.6,8,4c-0.4,3.6-0.4,3.6-2,8c-3.3,2-6.6,4-10,6c-2.7,4.1-2.7,4.1-4,8
		c-7-0.6-9.6-1.6-14.8-6.6c-3.2-5.4-3.2-5.4-2.8-10c0.5-1.1,1-2.2,1.5-3.4c4,3.3,7.9,6.6,12,10C377.6,363,377.6,363,382,354z"/>
	<path class="st21" d="M200,92c0,2,0,4,0,6c-5.1,2.3-10.2,4.5-15.4,6.8c-1.4,0.6-2.9,1.3-4.4,1.9c-7.4,3.2-14.8,6.4-22.3,9.3
		c-0.7-1.3-1.3-2.6-2-4c5.5-6.8,13.1-9.8,20.9-13.4c2-1,2-1,4.1-1.9C187.9,93.4,192.2,92,200,92z"/>
	<path class="st22" d="M410,168c5.3,6.5,8.8,13.3,12.2,21c1,2.2,2.1,4.5,3.1,6.8c2,4.8,3.6,9.1,4.6,14.2c-2.6,0-5.3,0-8,0
		c-0.6-1.7-1.3-3.4-1.9-5.2c-4.6-12.2-9.1-23.7-16.1-34.8C406,169.3,408,168.7,410,168z"/>
	<path class="st23" d="M140,324c4.6,4,9.2,7.9,14,12c-4,4.6-7.9,9.2-12,14c-4.6-4-9.2-7.9-14-12C132,333.4,135.9,328.8,140,324z"/>
	<path class="st24" d="M154,110c1.3,0.7,2.6,1.3,4,2c0,2,0,4,0,6c-4.5,3.9-4.5,3.9-10.5,8c-1.9,1.4-3.9,2.7-5.9,4.1
		c-1.8,1.3-3.7,2.6-5.6,3.9c-2.7,2-5.3,4-8,6c1-8.5,6.1-14.2,12-20C144.5,116.4,149.2,113.2,154,110z"/>
	<path class="st25" d="M368,348c4,3.3,7.9,6.6,12,10c-2.5,7.4-5.9,9.4-12,14c-3.3-4-6.6-7.9-10-12c1.3-0.5,2.6-1,3.9-1.5
		c4.5-2.1,4.5-2.1,5.6-6.8C367.7,350.5,367.8,349.3,368,348z"/>
	<path class="st26" d="M374,194c1.3,0,2.6,0,4,0c0.2,1.2,0.3,2.5,0.5,3.8c1.1,4.6,1.1,4.6,5.6,6.8c1.3,0.5,2.6,1,3.9,1.5
		c-1.2,0.9-2.5,1.7-3.8,2.6c-4.7,3.4-4.7,3.4-8.2,9.4c-1.2-1.6-2.5-3.1-3.8-4.8c-4-5.2-4-5.2-8.2-9.2c1.3-0.5,2.6-1.1,3.9-1.6
		C372.7,200.2,372.7,200.2,374,194z"/>
	<path class="st26" d="M128,194c0.5,1.2,1,2.5,1.5,3.8c2.9,5,5.3,6.2,10.5,8.2c-1.2,0.9-2.5,1.7-3.8,2.6c-4.7,3.4-4.7,3.4-8.2,9.4
		c-0.5-1.6-1-3.1-1.5-4.8c-2.8-5.9-4.5-7.1-10.5-9.2c1.2-0.5,2.5-1.1,3.8-1.6C124.6,200.1,124.6,200.1,128,194z"/>
	<path class="st27" d="M228,232c9.2-0.4,15.5,0.4,24,4c1.3-0.7,2.6-1.3,4-2c2.7,0.7,5.3,1.3,8,2c1.3-0.7,2.6-1.3,4-2
		c4-0.1,8-0.1,12,0c-7.1,7.1-14.9,6.3-24.6,6.4c-10-0.1-18.1-0.9-27.4-4.4C228,234.7,228,233.4,228,232z"/>
	<path class="st28" d="M210,344c4,4,4,4,4,12c-2.4,3.6-2.4,3.6-6,6c-5.4-0.6-5.4-0.6-10-2c0-4.6,0-9.2,0-14c2.4,0.1,2.4,0.1,4.9,0.1
		C207.9,346.6,207.9,346.6,210,344z"/>
	<path class="st29" d="M90,180c3.3,3.2,3.3,3.2,6,8c-1.6,6-1.6,6-4.6,12.5c-1,2.2-2,4.3-3,6.5c-0.8,1.6-1.6,3.3-2.4,5c-2,0-4,0-6,0
		C81,200.1,84.8,190.7,90,180z"/>
	<path class="st30" d="M366,124c7.2,1.2,11.1,4,16.5,8.8c1.4,1.2,2.8,2.4,4.3,3.7c3.2,3.6,3.2,3.6,3.2,9.6
		c-7.6-1.1-11.2-4.4-16.5-9.9c-1.4-1.4-2.8-2.8-4.3-4.3C366,128,366,128,366,124z"/>
	<path class="st31" d="M272,84c11.8,0.9,22.7,2.3,34,6c-9,5.3-16.1,3.9-26,2c-6.1-2.1-6.1-2.1-10-4C270.7,86.7,271.3,85.4,272,84z"
		/>
	<path class="st32" d="M301.4,359.9c3.5,0,3.5,0,7.1,0.1c1.8,0,3.6,0,5.5,0.1c0,2,0,4,0,6c-12.5,0-25.1,0-38,0
		C284.9,360.1,290.9,359.8,301.4,359.9z"/>
	<path class="st26" d="M202.2,257.8c1.9,0.1,3.8,0.2,5.8,0.2c-1.3,1.1-2.6,2.2-4,3.4c-4.5,4.3-4.5,4.3-4.5,10.1
		c0.2,1.5,0.3,3,0.5,4.5c1.3,0,2.6,0,4,0c0,1.3,0,2.6,0,4c-4.8-0.6-4.8-0.6-10-2c-4-6-4-6-3.5-11.1
		C192.8,259.4,194.4,258.1,202.2,257.8z"/>
	<path class="st33" d="M102,160c2.6,0,5.3,0,8,0c-3.3,9.6-8.5,17.6-14,26c-1.3-0.7-2.6-1.3-4-2C93.2,174.5,97.1,168.1,102,160z"/>
	<path class="st34" d="M304,346c1.3,0.7,2.6,1.3,4,2c0.7,2,1.3,4,2,6c1.3-0.7,2.6-1.3,4-2c0,2.6,0,5.3,0,8c-6.6,1.6-9.4,2.2-16,0
		c0-3.3,0-6.6,0-10c2,0,4,0,6,0C304,348.7,304,347.4,304,346z"/>
	<path class="st35" d="M364,316c0.7,2,1.3,4,2,6c2,1.3,4,2.6,6,4c-5.9,5-5.9,5-12,10c-0.7-2-1.3-4-2-6c-3-3.3-3-3.3-6-6
		C359.5,316,359.5,316,364,316z"/>
	<path class="st36" d="M310,256c3.4,2.6,6.7,5.2,10,8c0,1.3,0,2.6,0,4c-2,0-4,0-6,0c-1.3,2.6-2.6,5.3-4,8c-2.8-2.6-5.4-5.3-8-8
		c0-4,0-4,4-8.2C307.3,258.5,308.6,257.3,310,256z"/>
	<path class="st18" d="M180,102c0,1.3,0,2.6,0,4c-10.9,4.9-10.9,4.9-22,10c-0.7-1.3-1.3-2.6-2-4C163.3,104,169.1,101.4,180,102z"/>
	<path class="st37" d="M360,350c2,2,4,4,6,6c-2.4,0.7-2.4,0.7-4.9,1.5c-5.5,1.9-5.5,1.9-6.8,6.8c-0.1,1.2-0.2,2.5-0.4,3.8
		c-1.3-1.3-2.6-2.6-4-4c0.2-5,0.2-5,2-10C356.1,351.4,356.1,351.4,360,350z"/>
	<path class="st38" d="M418,194c2.6,0.7,5.3,1.3,8,2c1.3,4.6,2.6,9.2,4,14c-2.6,0-5.3,0-8,0C420.7,204.7,419.4,199.4,418,194z"/>
	<path class="st39" d="M342,142c1.3,0.7,2.6,1.3,4,2c0,1.3,0,2.6,0,4c1.3,0,2.6,0,4,0c0,1.3,0,2.6,0,4c-4,3.2-4,3.2-8,6
		c-2-2-4-4-6-6C339.8,144.2,339.8,144.2,342,142z"/>
	<path class="st40" d="M138,122c2,0.7,4,1.3,6,2c0,1.3,0,2.6,0,4c-3.5,3-3.5,3-8,6.2c-1.5,1.1-3,2.2-4.5,3.3
		c-1.2,0.8-2.3,1.6-3.5,2.5C129.6,132.3,132.9,128,138,122z"/>
	<path class="st41" d="M280,212c13.9,1,13.9,1,28,2c-3.3,4-6.6,7.9-10,12c-1.3-0.7-2.6-1.3-4-2c2-2.6,4-5.3,6-8c-6.6,0-13.2,0-20,0
		C280,214.7,280,213.4,280,212z"/>
	<path class="st42" d="M400,154c5.6,5.1,8.9,8.4,10,16c-3.8-0.4-3.8-0.4-8-2c-2.6-4.9-2.6-4.9-4-10C398.7,156.7,399.3,155.4,400,154
		z"/>
	<path class="st43" d="M266,312c-5.9,5-5.9,5-12,10c-2-2.6-4-5.3-6-8C261.5,309.8,261.5,309.8,266,312z"/>
	<path class="st44" d="M426,270c2,0.7,4,1.3,6,2c0,4.6,0,9.2,0,14c-2,0-4,0-6,0C426,280.7,426,275.4,426,270z"/>
	<path class="st45" d="M362,162c1.3,0,2.6,0,4,0c0,1.3,0,2.6,0,4c1.3,0,2.6,0,4,0c-1.3,3.3-2.6,6.6-4,10c-4-2.8-4-2.8-8-6
		c0-1.3,0-2.6,0-4c1.3,0,2.6,0,4,0C362,164.7,362,163.4,362,162z"/>
	<path class="st46" d="M140,160c2.6,3.3,5.3,6.6,8,10c-1.3,0-2.6,0-4,0c-0.7,2-1.3,4-2,6c-2.6-2.6-5.3-5.3-8-8
		C136,165.4,138,162.7,140,160z"/>
	<path class="st47" d="M314,92c0.7,2.6,1.3,5.3,2,8c-8.9-2-8.9-2-18-4c0-1.3,0-2.6,0-4C304.1,90,307.9,90,314,92z"/>
	<path class="st48" d="M228,86c-0.7,2-1.3,4-2,6c-4,0.7-7.9,1.3-12,2c-0.7-2-1.3-4-2-6C217.4,85.3,222,85.9,228,86z"/>
	<path class="st49" d="M402,312c2.6,2.6,5.3,5.3,8,8c-2,0.7-4,1.3-6,2c-0.7,1.3-1.3,2.6-2,4c-2-2.6-4-5.3-6-8
		C398,316,400,314,402,312z"/>
	<path class="st50" d="M202.2,257.8c1.9,0.1,3.8,0.2,5.8,0.2c-4.7,5.1-7.3,7.8-14,10c-1.3,1.3-2.6,2.6-4,4
		C192.2,258.2,192.2,258.2,202.2,257.8z"/>
	<path class="st51" d="M380,234c4.1,0.5,4.1,0.5,8,2c0.7,1.3,1.3,2.6,2,4c-1.3,0-2.6,0-4,0c0,1.3,0,2.6,0,4c-2,0-4,0-6,0
		c0-1.3,0-2.6,0-4c-1.3-0.7-2.6-1.3-4-2C377.3,236.7,378.6,235.4,380,234z"/>
	<path class="st52" d="M164,374c2.6,2.6,5.3,5.3,8,8c-1.3,0-2.6,0-4,0c-0.7,2-1.3,4-2,6c-3-2.8-3-2.8-6-6c0-1.3,0-2.6,0-4
		c1.3,0,2.6,0,4,0C164,376.7,164,375.4,164,374z"/>
	<path class="st53" d="M228,232c13-0.7,13-0.7,17.9,3c0.7,1,1.4,2,2.1,3c-13.2,0.2-13.2,0.2-20-2C228,234.7,228,233.4,228,232z"/>
	<path class="st54" d="M90,180c2,2.6,4,5.3,6,8c-2.8,3-2.8,3-6,6c-1.3,0-2.6,0-4,0C87.8,184.5,87.8,184.5,90,180z"/>
	<path class="st55" d="M164,140c2.6,2.6,5.3,5.3,8,8c-2.6,2-5.3,4-8,6c0-1.3,0-2.6,0-4c-1.3,0-2.6,0-4,0
		C161.3,146.7,162.6,143.4,164,140z"/>
	<path class="st56" d="M366,124c3.8,0.6,3.8,0.6,8,2c1.3,2,2.6,4,4,6c-1.3,1.3-2.6,2.6-4,4c-2.8-2.6-5.4-5.3-8-8
		C366,126.7,366,125.4,366,124z"/>
	<path class="st57" d="M304,346c1.3,0.7,2.6,1.3,4,2c-0.7,2.6-1.3,5.3-2,8c-2.6,0-5.3,0-8,0c0-2,0-4,0-6c2,0,4,0,6,0
		C304,348.7,304,347.4,304,346z"/>
	<path class="st58" d="M140,324c0.7,2.6,1.3,5.3,2,8c-3.9,4.5-3.9,4.5-8,8c-2-0.7-4-1.3-6-2C132,333.4,135.9,328.8,140,324z"/>
	<path class="st59" d="M302,312c1.3,0,2.6,0,4,0c-0.7,3.3-1.3,6.6-2,10c-2.6,0-5.3,0-8,0C299.8,314.2,299.8,314.2,302,312z"/>
	<path class="st60" d="M298,190c-2.4,0.7-2.4,0.7-4.9,1.5c-5.5,1.9-5.5,1.9-6.8,6.8c-0.2,1.9-0.2,1.9-0.4,3.8c-1.3,0-2.6,0-4,0
		c1.2-4,2.5-8,4-12C291,187.5,292.8,188.4,298,190z"/>
</g>
</svg>
