<?xml version="1.0" encoding="utf-8"?>
<!-- Generator: Adobe Illustrator 27.7.0, SVG Export Plug-In . SVG Version: 6.00 Build 0)  -->
<svg version="1.1" id="Layer_1" xmlns="http://www.w3.org/2000/svg" xmlns:xlink="http://www.w3.org/1999/xlink" x="0px" y="0px"
	 viewBox="0 0 512 512" style="enable-background:new 0 0 512 512;" xml:space="preserve">
<style type="text/css">
	.st0{filter:url(#F);}
	.st1{fill:url(#SVGID_1_);}
	.st2{fill:url(#H_00000050642818556564104880000015665586615423937968_);}
	.st3{fill:url(#H_00000104671246700122833000000006323538381023482296_);}
	.st4{filter:url(#G);}
	.st5{fill:url(#SVGID_00000034071523298576109590000014726005486407756949_);}
	.st6{filter:url(#E);}
	.st7{fill:url(#SVGID_00000055685533452897042820000015525437539247186309_);}
</style>
<filter  class="B" id="G">
	<feFlood  class="C D"></feFlood>
	<feComposite  in2="SourceGraphic" operator="in"></feComposite>
	<feGaussianBlur  stdDeviation=".2"></feGaussianBlur>
	<feOffset  dy="-0.5"></feOffset>
	<feComposite  in="SourceGraphic" operator="over"></feComposite>
</filter>
<filter  class="B" id="F">
	<feFlood  class="C D"></feFlood>
	<feComposite  in2="SourceGraphic" operator="in"></feComposite>
	<feGaussianBlur  stdDeviation=".6"></feGaussianBlur>
	<feOffset  dy="-1"></feOffset>
	<feComposite  in="SourceGraphic" operator="over"></feComposite>
</filter>
<filter  class="B" id="E" x="-.1" y="-.16">
	<feFlood  class="C D"></feFlood>
	<feComposite  in2="SourceGraphic" operator="in"></feComposite>
	<feGaussianBlur  stdDeviation=".6"></feGaussianBlur>
	<feOffset  dy="-1"></feOffset>
	<feComposite  in="SourceGraphic" operator="over"></feComposite>
</filter>
<g transform="matrix(1.25 0 0 -1.25 0 64)">
	<g transform="matrix(.964286 0 0 .964286 .914286 .914286)" class="st0">
		
			<linearGradient id="SVGID_1_" gradientUnits="userSpaceOnUse" x1="75.101" y1="-764.3789" x2="75.101" y2="-1178.7195" gradientTransform="matrix(1.2054 0 0 1.2054 120.9134 968.928)">
			<stop  offset="0" style="stop-color:#4AA3E0"/>
			<stop  offset="1" style="stop-color:#3096DB"/>
		</linearGradient>
		<path class="st1" d="M53.4-18.8C19.6-56.4-0.9-105.6-0.9-160.2c0-117.3,95.1-212.4,212.4-212.4s212.4,95.1,212.4,212.4
			c0,54.4-20.5,103.8-54.1,141.4c-16.1-5.9-32.1-12.8-48-21.7c31.4-9.2,53.1-38,53.1-70.7c-0.1-40.6-33-73.4-73.5-73.5
			c-34.5,0-63.4,23.8-71.5,55.6h-36.8c-8-31.9-37-55.6-71.5-55.6c-40.6,0-73.8,33.1-73.8,73.5c0,33.8,23.3,62.4,54.6,71
			C86.5-31.6,70.2-24.9,53.4-18.8L53.4-18.8z M211.4-152.1c5.1-18.8,10.4-37.4,32.7-49l-32.7-49l-32.7,49
			C198.2-187.3,207.2-170.4,211.4-152.1L211.4-152.1z"/>
		<g>
			
				<linearGradient id="H_00000114048693046536423620000013041051157149281202_" gradientUnits="userSpaceOnUse" x1="0.5538" y1="-764.3789" x2="0.5538" y2="-1178.7195" gradientTransform="matrix(1.2054 0 0 1.2054 120.9134 968.928)">
				<stop  offset="0" style="stop-color:#4AA3E0"/>
				<stop  offset="1" style="stop-color:#3096DB"/>
			</linearGradient>
			
				<path id="H_00000000943250391264632990000000048547523531495359_" style="fill:url(#H_00000114048693046536423620000013041051157149281202_);" d="
				M121.6-86.7c-13.5,0-24.5-11-24.5-24.5s11-24.5,24.5-24.5s24.5,11,24.5,24.5C146.1-97.7,135.1-86.7,121.6-86.7z"/>
		</g>
		<g>
			
				<linearGradient id="H_00000066478887677977673390000016163315994400910007_" gradientUnits="userSpaceOnUse" x1="133.9234" y1="-764.3789" x2="133.9234" y2="-1178.7195" gradientTransform="matrix(1.2054 0 0 1.2054 139.8674 968.928)">
				<stop  offset="0" style="stop-color:#4AA3E0"/>
				<stop  offset="1" style="stop-color:#3096DB"/>
			</linearGradient>
			
				<path id="H_00000066474959595578937750000010890899805611967403_" style="fill:url(#H_00000066478887677977673390000016163315994400910007_);" d="
				M301.3-86.7c-13.5,0-24.5-11-24.5-24.5s11-24.5,24.5-24.5s24.5,11,24.5,24.5C325.8-97.7,314.8-86.7,301.3-86.7z"/>
		</g>
	</g>
	<g class="st4">
		
			<linearGradient id="SVGID_00000138570794222718144180000003085699526486149266_" gradientUnits="userSpaceOnUse" x1="92.5582" y1="17.9674" x2="373.4825" y2="17.9674">
			<stop  offset="0" style="stop-color:#4AA3E0"/>
			<stop  offset="1" style="stop-color:#3096DB"/>
		</linearGradient>
		<path style="fill:url(#SVGID_00000138570794222718144180000003085699526486149266_);" d="M204.8,51.2c-41.5,0-80-13.3-112.2-34.5
			c34.9-3.7,69.3-12.7,108.3-32c39.5,20.1,80,28.5,116.4,32.7C285,38.8,246.4,51.2,204.8,51.2z"/>
	</g>
	<g class="st6">
		
			<linearGradient id="SVGID_00000143578647314868138510000009513656000247468972_" gradientUnits="userSpaceOnUse" x1="51.0641" y1="-762.8779" x2="51.0641" y2="-886.9336" gradientTransform="matrix(1.25 0 0 1.25 140.6 959.4)">
			<stop  offset="0" style="stop-color:#4AA3E0"/>
			<stop  offset="1" style="stop-color:#3096DB"/>
		</linearGradient>
		<path style="fill:url(#SVGID_00000143578647314868138510000009513656000247468972_);" d="M338.7,7.1c-41-0.3-97.1-20.4-137.8-39.1
			C158-16.5,114.1,8.1,64.5,6.9c-3.3-0.1-6.5-0.2-9.8-0.5L15.8,3.2L52.7-9.1c50.7-16.5,95.2-27,134.4-95.1h35.4
			c39.1,67.6,85.9,78.9,134.2,95.1l36.4,11.8l-37.9,3.7C349.7,6.9,344.2,7.2,338.7,7.1L338.7,7.1z"/>
	</g>
</g>
</svg>
