<svg xmlns="http://www.w3.org/2000/svg" xml:space="preserve" width="64" height="64"><path d="M32 6c-5.265 0-10.156 1.685-14.25 4.375 4.427.475 8.794 1.617 13.75 4.063 5.015-2.555 10.152-3.622 14.781-4.157A25.838 25.838 0 0 0 32 6zm17 5.594c-5.21.034-12.33 1.666-17.5 4.031-5.436-1.964-11.013-4.147-17.313-4-.42.01-.823.031-1.25.063L8 12.094l4.688 1.562c6.43 2.095 12.084 4.395 17.062 13.031l4.5.001c4.958-8.587 10.905-10.983 17.031-13.032l4.625-1.5-4.812-.469A20.561 20.561 0 0 0 49 11.594zm-36.344 3.094C8.513 19.293 6 25.316 6 32c0 14.36 11.64 26 26 26s26-11.64 26-26c0-6.659-2.508-12.713-6.625-17.313-1.968.724-3.932 1.566-5.875 2.657C49.26 18.432 52 21.914 52 26c0 4.945-4.027 9-9 9-4.218 0-7.766-2.914-8.75-6.813h-4.5C28.774 32.087 25.22 35 21 35c-4.973 0-9.031-4.055-9.031-9 0-4.133 2.852-7.644 6.687-8.688-1.945-1.058-3.952-1.88-6-2.625zM21 23a3 3 0 1 0 0 6 3 3 0 0 0 0-6zm22 0a3 3 0 1 0 0 6 3 3 0 0 0 0-6zm-11 8c.618 2.3 1.279 4.582 4 6l-4 6-4-6c2.384-1.689 3.483-3.758 4-6z" style="fill:#3498db;fill-opacity:1;stroke:none"/></svg>