<svg xmlns="http://www.w3.org/2000/svg" xml:space="preserve" baseProfile="tiny" overflow="visible" version="1.2" viewBox="0 0 320 320"><g fill="#606"><path d="M7.1 180.6v117.1c0 8.4 6.8 15.3 15.3 15.3H142c-1-73.2-61.1-132.3-134.9-132.4zm0-96.5v49.8c99 .9 179.4 80.7 180.4 179.1h51.7C238.2 186.6 134.5 84.2 7.1 84.1z"/><path d="M312.9 297.6V193.5C278.1 107.2 207.3 38.9 119 7.1H22.4C14 7.1 7.1 13.9 7.1 22.4v15c152.6.9 276.6 124 277.6 275.6h13c8.4-.1 15.2-6.9 15.2-15.4zM272.6 49.8c14.5 14.4 28.6 31.7 40.4 47.8V22.4c0-8.4-6.8-15.3-15.3-15.3h-77.3c18 12.6 36.2 26.8 52.2 42.7z"/></g></svg>