<?xml version="1.0" encoding="utf-8"?>
<!-- Generator: Adobe Illustrator 27.7.0, SVG Export Plug-In . SVG Version: 6.00 Build 0)  -->
<svg version="1.1" id="Layer_1" xmlns="http://www.w3.org/2000/svg" xmlns:xlink="http://www.w3.org/1999/xlink" x="0px" y="0px"
	 viewBox="0 0 512 512" style="enable-background:new 0 0 512 512;" xml:space="preserve">
<style type="text/css">
	.st0{fill-rule:evenodd;clip-rule:evenodd;fill:#192E45;}
	.st1{fill-rule:evenodd;clip-rule:evenodd;fill:#D2943B;}
	.st2{fill-rule:evenodd;clip-rule:evenodd;fill:#FFCD86;}
	.st3{fill-rule:evenodd;clip-rule:evenodd;fill:#FFD524;}
	.st4{fill:#FFFFFF;}
	.st5{fill:#192E45;}
</style>
<g id="mullvad_svg__mole" transform="translate(-14.095 -14.095) scale(.19048)">
	<path id="mullvad_svg__bg" class="st0" d="M74,1418c0,742.4,602.7,1344,1344,1344s1344-601.6,1344-1344S2160.4,74,1418,74
		S74,675.6,74,1418z"/>
	<g id="mullvad_svg__body">
		<path id="mullvad_svg__fur" class="st1" d="M328.9,1104.4L253.2,1258L355.6,1115c0,1.1-6.4,205.9-6.4,205.9l28.8-154.7
			c76.8,146.1,246.4,371.2,484.3,538.7c18.1,12.8,41.6,35.2,49.1,43.7c0,0,227.2,115.2,577.1-151.5c3.2-2.1,7.5-4.3,10.7-6.4
			l5.3,3.2l76.8,51.2c-26.7-7.5-77.9-20.3-77.9-20.3c-168.5,194.1-442.7,226.1-589.9,128c-6.4-4.3-42.7,10.7-49.1,32
			c-4.3,11.7,0,24.5,5.3,34.1c29.9,55.5,74.7,50.1,53.3,115.2c-14.9,35.2-36.3,69.3-59.7,101.3c-49.1,66.1-125.9,124.8-118.4,160
			c347.7,428.8,1131.7,369.1,1430.4-13.9c-4.3-55.5-91.7-82.1-152.5-217.6c17.1,5.3,42.7,12.8,42.7,11.7
			c0-1.1-72.5-118.4-75.7-130.1l46.9,3.2c0,0-61.9-76.8-64-84.3l62.9-8.5c0,0-78.9-90.7-80-98.1l80,12.8l-87.5-105.6h41.6
			l-49.1-71.5l-397.9-156.8c-152.5-94.9-288-211.2-390.4-300.8L946.5,935.8c-197.3-14.9-381.9-9.6-494.9,12.8l72.5-123.7
			L418.5,950.8c-6.4-2.1-13.9-4.3-13.9-4.3l7.5-160l-35.2,149.3L328.9,1104.4z"/>
		<path id="mullvad_svg__nose" class="st2" d="M376.9,935.8c-52.3-24.5-113.1,10.7-123.7,58.7c-12.8,45.9,19.2,102.4,75.7,109.9
			C382.3,1071.3,428.1,986,376.9,935.8z"/>
	</g>
	<g id="mullvad_svg__g12">
		<path id="mullvad_svg__helmet" class="st3" d="M1153.4,819.6c-16-43.7-11.7-100.3,10.7-153.6c32-73.6,92.8-122.7,150.4-122.7
			c11.7,0,22.4,2.1,33.1,6.4c33.1-29.9,71.5-54.4,114.1-71.5c234.7-93.9,579.2,73.6,667.7,304c42.7,112,29.9,233.6-6.4,345.6
			c-29.9,91.7-138.7,224-98.1,323.2c-16-4.3-349.9-117.3-445.9-168.5c-150.4-93.9-284.8-209.1-386.1-297.6l-3.2-3.2L848.4,819.6
			c-4.3-2.1-8.5-4.3-11.7-6.4C883.6,815.3,1070.2,837.7,1153.4,819.6"/>
		<g id="mullvad_svg__lamp">
			
				<ellipse id="mullvad_svg__lamp-light" transform="matrix(0.4007 -0.9162 0.9162 0.4007 113.6519 1610.244)" class="st4" cx="1287.7" cy="718.2" rx="145.1" ry="86.4"/>
			<path id="mullvad_svg__lamp-ring" class="st5" d="M1355,565.7c-56.5-24.5-132.3,23.5-169.6,107.7
				c-37.3,84.3-20.3,171.7,36.3,197.3c56.5,24.5,132.3-23.5,169.6-107.7C1428.6,678.8,1411.6,591.3,1355,565.7z M1360.4,750.3
				c-29.9,67.2-86.4,107.7-125.9,90.7c-40.5-18.1-49.1-86.4-19.2-154.7c29.9-67.2,86.4-107.7,126.9-90.7
				C1381.7,613.7,1390.2,683.1,1360.4,750.3z"/>
		</g>
	</g>
</g>
</svg>
