<svg xmlns="http://www.w3.org/2000/svg" width="127" height="144"><path fill="#eb743b" d="M66.331 1.238V142.3l59.523-34.286v-72.49z"/><path fill="#ba478f" d="m61.453 60.014-.976-.98v-4.898l.976-.98V41.403h-.976V20.83l.976-.98V1.239L1.93 35.524v72.49L61.453 142.3z"/><path d="M61.433 53.196 35.087 68.87V57.457l26.346-15.879V19.45L29.701 38.326h-.059a2.703 2.713 0 0 0-.254.196l-.205.166a2.83 2.84 0 0 0-.185.216c-.059.068-.127.137-.176.215a2.459 2.469 0 0 0-.146.245 2.732 2.743 0 0 0-.127.245c0 .088-.068.176-.097.274a2.693 2.704 0 0 0-.078.265 2.498 2.508 0 0 0 0 .264 2.927 2.939 0 0 0 0 .314V90.38a10.734 10.776 0 0 0-7.807 1.96c-4.723 3.154-6.323 9.09-3.903 12.734s7.992 3.82 12.685.666c2.693-1.802 5.25-3.987 5.855-6.543a10.353 10.393 0 0 0 0-1.96v-21.55l26.346-15.82z" opacity=".07"/><path fill="#9d356d" d="M61.453 56.096 35.106 71.769V60.014l26.347-15.673V21.81L29.73 41.098h-.059a2.703 2.713 0 0 0-.253.196l-.205.167a2.81 2.821 0 0 0-.186.215c-.058.069-.127.137-.175.216a2.469 2.478 0 0 0-.147.244c0 .079-.097.157-.127.245-.029.089-.068.177-.097.275a2.713 2.723 0 0 0-.078.264 2.508 2.518 0 0 0 0 .265 2.927 2.939 0 0 0 0 .313v49.656a10.734 10.776 0 0 0-7.806 1.959c-4.723 3.154-6.324 9.09-3.904 12.735 2.42 3.644 7.992 3.82 12.686.666 2.693-1.803 5.25-3.987 5.854-6.544a10.353 10.393 0 0 0 0-1.96V78.637L61.58 62.963z"/><path fill="#fffedb" d="M61.453 53.157 35.106 68.83V57.075l26.347-15.673v-22.53L29.7 38.325h-.059a2.703 2.713 0 0 0-.254.196l-.205.166a2.83 2.84 0 0 0-.185.216c-.059.068-.127.137-.176.215a2.459 2.469 0 0 0-.146.245 2.732 2.743 0 0 0-.127.245c0 .088-.068.176-.097.274a2.693 2.704 0 0 0-.078.265 2.498 2.508 0 0 0 0 .264 2.927 2.939 0 0 0 0 .314V90.38a10.734 10.776 0 0 0-7.807 1.96c-4.723 3.154-6.323 9.09-3.903 12.734 2.42 3.644 7.992 3.82 12.685.666 2.693-1.802 5.25-3.987 5.855-6.543a10.353 10.393 0 0 0 0-1.96v-21.55L61.55 60.014z"/><g opacity=".07"><path d="M83.222 91.106a2.059 2.067 0 1 1-.224 1.568 2.05 2.057 0 0 1 .224-1.568zm12.295 21.904a2.03 2.038 0 0 1-1.337.5 2.059 2.067 0 0 1-1.346-3.644 2.03 2.038 0 0 1 1.337-.5 2.069 2.077 0 0 1 2.058 2.233 2.04 2.047 0 0 1-.712 1.411zM75.123 45.918h.205zm11.095 9.452a2.02 2.028 0 0 1 .654-.646 2.059 2.067 0 1 1 1.083 3.83 2.05 2.057 0 0 1-1.093-.323 2.078 2.087 0 0 1-.644-2.86zm6.225-19.777a2.088 2.096 0 0 1-2.84.637l-.097-.06a2.059 2.067 0 1 1 3.21-2.125 2.03 2.038 0 0 1-.273 1.548zm16.364 11.363a2.061 2.07 0 1 1 3.484 2.214 2.088 2.096 0 0 1-2.84.637l-.088-.06a2.05 2.057 0 0 1-.556-2.79zm0 22.981a2.061 2.07 0 1 1 3.484 2.214 2.088 2.096 0 0 1-2.84.637l-.088-.059a2.05 2.057 0 0 1-.556-2.743zm0 25.764a2.061 2.07 0 1 1 3.484 2.213 2.088 2.096 0 0 1-2.84.637l-.088-.059a2.059 2.067 0 0 1-.556-2.782z"/><path d="M98.708 105.183a5.972 5.995 0 0 0-10.46 4.643 19.379 19.455 0 0 1-5.201 1.303 3.903 3.918 0 0 1-2.167-.98 10.45 10.491 0 0 0-4.05-1.812 36.728 36.872 0 0 0 8.383-12.548 5.972 5.995 0 1 0-5.347-9.052 5.972 5.995 0 0 0 1.58 7.896c-3.952 9.032-8.996 12.813-12.265 14.38a1.952 1.96 0 0 0-.352.167 10.987 11.03 0 0 1-2.498.793v3.919a12.285 12.333 0 0 0 4.148-1.166c5.22-1.332 6.674-.343 8.206.695a7.69 7.72 0 0 0 4.157 1.627h.302a23.038 23.128 0 0 0 6.83-1.685 5.982 6.005 0 0 0 4.206 1.685 5.972 5.995 0 0 0 4.528-9.894zM83.222 88.745a2.059 2.067 0 1 1-.224 1.568 2.05 2.057 0 0 1 .224-1.568zm12.295 21.904a2.03 2.038 0 0 1-1.337.5 2.059 2.067 0 0 1-1.346-3.644 2.03 2.038 0 0 1 1.337-.5 2.069 2.077 0 0 1 2.058 2.234 2.04 2.047 0 0 1-.712 1.41zM75.123 43.537h.205zm21.409-12.734a5.972 5.995 0 1 0-10.734 4.721 13.027 13.078 0 0 1-9.699 4.203 28.444 28.555 0 0 0-9.758-2.273v3.918a24.2 24.294 0 0 1 8.529 2.165 21.067 21.15 0 0 1 8.401 6.857 6.167 6.191 0 0 0-.37.53 5.972 5.995 0 1 0 8.245-1.872 6.07 6.093 0 0 0-4.557-.734 25.37 25.47 0 0 0-5.211-5.457 15.954 16.016 0 0 0 7.592-4.996 6.001 6.024 0 0 0 1.727.265 5.982 6.005 0 0 0 5.854-7.298zM86.218 53.01a2.02 2.028 0 0 1 .654-.647 2.059 2.067 0 1 1 1.083 3.83 2.05 2.057 0 0 1-1.093-.323 2.078 2.087 0 0 1-.644-2.86zm6.225-19.778a2.088 2.096 0 0 1-2.84.637l-.097-.06a2.059 2.067 0 1 1 3.21-2.125 2.03 2.038 0 0 1-.273 1.558z"/><path d="M105.021 70.966a5.855 5.878 0 0 0 2.06 2.596l.272.186a5.972 5.995 0 1 0 3.191-11.06h-.36a25.107 25.205 0 0 1 0-11.03h.33a5.972 5.995 0 1 0-4.049-1.597l.069.06a27.956 28.065 0 0 0 0 14.125c-.137.127-.283.245-.42.392a6.089 6.113 0 0 0-.615.803 6.01 6.034 0 0 0-.692 1.548 14.832 14.89 0 0 0-6.616 2.723c-1.952 1.293-3.903 2.518-9.407 2.616a31.85 31.974 0 0 0-5.23-.118c-1.395.049-2.84.108-4.733 0-1.297-.069-2.049-.862-3.376-2.37-1.756-2.009-4.118-4.556-9.143-4.899v3.919c3.21.294 4.684 1.851 6.206 3.595s3.093 3.546 6.109 3.703c2.068.107 3.669.049 5.083 0a23.633 23.726 0 0 1 7.66.685c2.547.627 11.807 9.473 14.413 14.028a4.16 4.16 0 0 0-.303.421 5.952 5.976 0 0 0 1.58 8.082l.274.186a5.972 5.995 0 1 0 3.19-11.06 6.03 6.054 0 0 0-1.502.197c-2.498-4.105-8.44-10.247-12.87-13.51a17.74 17.809 0 0 0 4.108-2.144 11.036 11.08 0 0 1 4.771-2.077zm3.786-26.37a2.061 2.07 0 1 1 3.484 2.213 2.088 2.096 0 0 1-2.84.637l-.088-.059a2.05 2.057 0 0 1-.556-2.782zm0 22.98a2.061 2.07 0 1 1 3.484 2.214 2.088 2.096 0 0 1-2.84.637l-.088-.059a2.05 2.057 0 0 1-.556-2.782zm0 25.764a2.061 2.07 0 1 1 3.484 2.214 2.088 2.096 0 0 1-2.84.636l-.088-.058a2.059 2.067 0 0 1-.556-2.782z"/></g><g stroke-width=".992"><path fill="#d3562c" d="M98.708 108.122a5.972 5.995 0 0 0-10.46 4.643 19.379 19.455 0 0 1-5.201 1.303 3.903 3.918 0 0 1-2.167-.98 10.45 10.491 0 0 0-4.05-1.812 36.728 36.872 0 0 0 8.373-12.568 5.972 5.995 0 1 0-5.347-9.051 5.972 5.995 0 0 0 1.58 7.895c-3.951 9.032-8.996 12.813-12.265 14.38a1.952 1.96 0 0 0-.351.167 10.987 11.03 0 0 1-2.498.793v3.919a12.285 12.333 0 0 0 4.147-1.166c5.22-1.332 6.674-.343 8.206.696a7.69 7.72 0 0 0 4.167 1.645h.302a23.038 23.128 0 0 0 6.83-1.685 5.982 6.005 0 0 0 4.206 1.685 5.972 5.995 0 0 0 4.528-9.894zM83.222 91.684a2.059 2.067 0 1 1-.224 1.568 2.05 2.057 0 0 1 .224-1.568zm12.295 21.904a2.03 2.038 0 0 1-1.337.5 2.059 2.067 0 0 1-1.346-3.645 2.03 2.038 0 0 1 1.337-.5 2.069 2.077 0 0 1 2.058 2.234 2.04 2.047 0 0 1-.712 1.411z"/><path d="M75.123 45.918h.205z"/><path fill="#d3562c" d="M96.532 33.741a5.972 5.995 0 1 0-10.734 4.722 13.027 13.078 0 0 1-9.699 4.202 28.444 28.555 0 0 0-9.758-2.272v3.918a24.21 24.304 0 0 1 8.529 2.165 21.067 21.15 0 0 1 8.401 6.857 6.167 6.191 0 0 0-.37.53 5.972 5.995 0 1 0 8.245-1.872 6.07 6.093 0 0 0-4.557-.735 25.37 25.47 0 0 0-5.211-5.456 15.954 16.016 0 0 0 7.592-4.996 6.001 6.024 0 0 0 1.727.265 5.982 6.005 0 0 0 5.854-7.298zM86.218 55.96a2.02 2.028 0 0 1 .654-.647 2.059 2.067 0 1 1 1.083 3.83 2.05 2.057 0 0 1-1.093-.323 2.078 2.087 0 0 1-.644-2.86zm6.225-19.778a2.088 2.096 0 0 1-2.84.636l-.097-.059a2.059 2.067 0 1 1 3.21-2.125 2.03 2.038 0 0 1-.273 1.548z"/><path fill="#d3562c" d="M105.021 73.905a5.855 5.878 0 0 0 2.06 2.596l.272.186a5.972 5.995 0 1 0 3.191-11.06h-.36a25.107 25.205 0 0 1 0-11.03h.33A5.972 5.995 0 1 0 106.466 53l.069.059a27.956 28.065 0 0 0 0 14.126c-.137.127-.283.245-.42.391a6.089 6.113 0 0 0-.615.804 6.01 6.034 0 0 0-.692 1.548 14.832 14.89 0 0 0-6.616 2.723c-1.952 1.293-3.903 2.517-9.407 2.615a31.85 31.974 0 0 0-5.23-.117c-1.395.049-2.84.107-4.733 0-1.297-.069-2.049-.862-3.376-2.37-1.756-2.009-4.118-4.556-9.143-4.899v3.92c3.21.293 4.684 1.851 6.206 3.595 1.522 1.743 3.093 3.546 6.109 3.702 2.068.108 3.668.05 5.083 0a23.633 23.726 0 0 1 7.66.686c2.547.627 11.807 9.473 14.413 14.028a4.16 4.16 0 0 0-.303.421 5.952 5.976 0 0 0 1.58 8.082l.274.186a5.972 5.995 0 1 0 3.19-11.06 6.03 6.054 0 0 0-1.502.196c-2.498-4.104-8.44-10.246-12.87-13.508a17.74 17.809 0 0 0 4.108-2.146 11.036 11.08 0 0 1 4.771-2.076zm3.786-26.371a2.061 2.07 0 1 1 3.484 2.214 2.088 2.096 0 0 1-2.84.637l-.087-.06a2.05 2.057 0 0 1-.557-2.781zm0 22.981a2.061 2.07 0 1 1 3.484 2.214 2.088 2.096 0 0 1-2.84.637l-.087-.059a2.05 2.057 0 0 1-.557-2.782zm0 25.764a2.061 2.07 0 1 1 3.484 2.213 2.088 2.096 0 0 1-2.84.637l-.087-.059a2.059 2.067 0 0 1-.557-2.782z"/><path fill="#fffedb" d="M98.708 105.183a5.972 5.995 0 0 0-10.46 4.643 19.379 19.455 0 0 1-5.201 1.303 3.903 3.918 0 0 1-2.167-.98 10.45 10.491 0 0 0-4.05-1.812 36.728 36.872 0 0 0 8.383-12.548 5.972 5.995 0 1 0-5.347-9.052 5.972 5.995 0 0 0 1.58 7.896c-3.952 9.032-8.996 12.813-12.265 14.38a1.952 1.96 0 0 0-.352.167 10.987 11.03 0 0 1-2.498.793v3.919a12.285 12.333 0 0 0 4.148-1.166c5.22-1.332 6.674-.343 8.206.695a7.69 7.72 0 0 0 4.157 1.627h.302a23.038 23.128 0 0 0 6.83-1.685 5.982 6.005 0 0 0 4.206 1.685 5.972 5.995 0 0 0 4.528-9.894zM83.222 88.745a2.059 2.067 0 1 1-.224 1.568 2.05 2.057 0 0 1 .224-1.568zm12.295 21.904a2.03 2.038 0 0 1-1.337.5 2.059 2.067 0 0 1-1.346-3.644 2.03 2.038 0 0 1 1.337-.5 2.069 2.077 0 0 1 2.058 2.234 2.04 2.047 0 0 1-.712 1.41zM75.123 43.537h.205zm21.409-12.734a5.972 5.995 0 1 0-10.734 4.721 13.027 13.078 0 0 1-9.699 4.203 28.444 28.555 0 0 0-9.758-2.273v3.918a24.2 24.294 0 0 1 8.529 2.165 21.067 21.15 0 0 1 8.401 6.857 6.167 6.191 0 0 0-.37.53 5.972 5.995 0 1 0 8.245-1.872 6.07 6.093 0 0 0-4.557-.734 25.37 25.47 0 0 0-5.211-5.457 15.954 16.016 0 0 0 7.592-4.996 6.001 6.024 0 0 0 1.727.265 5.982 6.005 0 0 0 5.854-7.298zM86.218 53.01a2.02 2.028 0 0 1 .654-.647 2.059 2.067 0 1 1 1.083 3.83 2.05 2.057 0 0 1-1.093-.323 2.078 2.087 0 0 1-.644-2.86zm6.225-19.778a2.088 2.096 0 0 1-2.84.637l-.097-.06a2.059 2.067 0 1 1 3.21-2.125 2.03 2.038 0 0 1-.273 1.558z"/><path fill="#fffedb" d="M105.021 70.966a5.855 5.878 0 0 0 2.06 2.596l.272.186a5.972 5.995 0 1 0 3.191-11.06h-.36a25.107 25.205 0 0 1 0-11.03h.33a5.972 5.995 0 1 0-4.049-1.597l.069.06a27.956 28.065 0 0 0 0 14.125c-.137.127-.283.245-.42.392a6.089 6.113 0 0 0-.615.803 6.01 6.034 0 0 0-.692 1.548 14.832 14.89 0 0 0-6.616 2.723c-1.952 1.293-3.903 2.518-9.407 2.616a31.85 31.974 0 0 0-5.23-.118c-1.395.049-2.84.108-4.733 0-1.297-.069-2.049-.862-3.376-2.37-1.756-2.009-4.118-4.556-9.143-4.899v3.919c3.21.294 4.684 1.851 6.206 3.595 1.522 1.744 3.093 3.546 6.109 3.703 2.068.107 3.668.049 5.083 0a23.633 23.726 0 0 1 7.66.685c2.547.627 11.807 9.473 14.413 14.028a4.16 4.16 0 0 0-.303.421 5.952 5.976 0 0 0 1.58 8.082l.274.186a5.972 5.995 0 1 0 3.19-11.06 6.03 6.054 0 0 0-1.502.197c-2.498-4.105-8.44-10.247-12.87-13.51a17.74 17.809 0 0 0 4.108-2.144 11.036 11.08 0 0 1 4.771-2.077zm3.786-26.37a2.061 2.07 0 1 1 3.484 2.213 2.088 2.096 0 0 1-2.84.637l-.087-.059a2.05 2.057 0 0 1-.557-2.782zm0 22.98a2.061 2.07 0 1 1 3.484 2.214 2.088 2.096 0 0 1-2.84.637l-.087-.059a2.05 2.057 0 0 1-.557-2.782zm0 25.764a2.061 2.07 0 1 1 3.484 2.214 2.088 2.096 0 0 1-2.84.636l-.087-.058a2.059 2.067 0 0 1-.557-2.782z"/></g></svg>