<svg xmlns:inkscape="http://www.inkscape.org/namespaces/inkscape" xmlns:svg="http://www.w3.org/2000/svg" xmlns:sodipodi="http://sodipodi.sourceforge.net/DTD/sodipodi-0.dtd" xmlns="http://www.w3.org/2000/svg" xmlns:xlink="http://www.w3.org/1999/xlink" version="1.1" id="svg5" inkscape:version="1.2.2 (b0a8486541, 2022-12-01)" sodipodi:docname="myheats.svg" x="0px" y="0px" style="enable-background:new 0 0 512 512;" xml:space="preserve" viewBox="3.73 30.83 504.57 436.17">
<style type="text/css">
	
		.st0{fill:none;stroke:url(#path3136_00000039098540400368401090000006693536854796414347_);stroke-width:28.3465;stroke-linecap:round;stroke-linejoin:round;stroke-miterlimit:11.3386;}
	.st1{fill:none;stroke:#000000;stroke-width:28.3465;stroke-linecap:round;stroke-miterlimit:11.3386;}
	.st2{fill:#FFFFFF;}
</style>
<sodipodi:namedview bordercolor="#666666" borderopacity="1.0" id="namedview7" inkscape:current-layer="layer4" inkscape:cx="519.9207" inkscape:cy="836.59275" inkscape:deskcolor="#d1d1d1" inkscape:document-units="mm" inkscape:pagecheckerboard="0" inkscape:pageopacity="0.0" inkscape:showpageshadow="2" inkscape:window-height="1277" inkscape:window-maximized="0" inkscape:window-width="1855" inkscape:window-x="70" inkscape:window-y="34" inkscape:zoom="1.3136619" pagecolor="#ffffff" showgrid="false">
	</sodipodi:namedview>
<g id="layer3" inkscape:groupmode="layer" inkscape:label="Icon">
	<path id="path2248" inkscape:label="head" sodipodi:nodetypes="cccc" d="M160.4,268.1c-52.2,22.6-65.1,78.6-27.2,115.1   c35.9,24,79.9,4.9,96.4-19.7C267.3,298.1,214,249.8,160.4,268.1L160.4,268.1z"/>
	<path id="path2346" inkscape:label="hand right" sodipodi:nodetypes="ccccccc" d="M255.6,319.6c-2.1,28.6-11.1,49-26.8,63.8   c0,0,30.2,24.5,57,9.5c6.6,1.1-5.5,37-29.2,48.7c-5.1,16.2,1,30.4,32.1,23.7c0,0,56.5-32,37.5-105.3   C326.2,360.1,304.8,328.6,255.6,319.6L255.6,319.6z"/>
	<path id="path2348" inkscape:label="belly" sodipodi:nodetypes="cccc" d="M179.2,254.4c47.8-0.2,73.6,28.2,76.8,59.2   c66.6,14.7,100.5-54.7,70.4-106.1C292.7,157.6,211.5,168.1,179.2,254.4L179.2,254.4z"/>
	<path id="path3111" inkscape:label="foot left" sodipodi:nodetypes="ccccc" d="M320,185.1c-21.6-19.2-48.8-21.2-75.8-11.5   c-7.5-47.2,37.8-55.5,37.8-55.5l67.7,52.1C349.8,170.2,341,185.4,320,185.1L320,185.1z"/>
	<path id="path3123" inkscape:label="foot right" sodipodi:nodetypes="ccccc" d="M332,200c19.6,1.7,34-18.7,34-18.7l56.7,48.6   c0,0-18.3,64.7-77.8,44.9C353.9,236,346.1,212.6,332,200L332,200z"/>
	
		<linearGradient id="path3136_00000106835486497673858610000014369463752056296603_" gradientUnits="userSpaceOnUse" x1="-43.7269" y1="530.955" x2="134.4084" y2="530.955" gradientTransform="matrix(2.8346 0 0 -2.8346 127.4925 1736.4517)">
		<stop offset="0" style="stop-color:#D6EEFF"/>
		<stop offset="1" style="stop-color:#0092FF"/>
	</linearGradient>
	
		<path id="path3136" inkscape:label="wave" sodipodi:nodetypes="cccccsccc" style="fill:none;stroke:url(#path3136_00000106835486497673858610000014369463752056296603_);stroke-width:28.3465;stroke-linecap:round;stroke-linejoin:round;stroke-miterlimit:11.3386;" d="   M174.1,45c14.4,4.6,154,97.7,174.9,118.5c61.8,51.9,139.1,122.7,145.1,147.8c1,16.1-35.8,105.7-54.8,106.5   c22.2-108-14.3-121.4-29.6-148.6c-26.5-53,10.3-121.4-29-148.8c-57.4-40.2-94.2-16.4-141.1-34.2C190.6,119,18.6,127.5,17.9,119.8   C51.2,83.4,109.2,45.7,174.1,45z"/>
	<path id="path3100" inkscape:label="hand left" sodipodi:nodetypes="ccccccc" d="M172.9,254.4c-11.4,1-40.2,8.6-55.9,33.7   c-17.7-30.9-23.4-82-11.2-130.2c22.9-45.5,141.6-89.8,141.6-89.8c27.1-9.2,64.7-12.8,56,14c-64.3,21.8-126.7,63.3-131,82.6   C182.7,193.8,176.5,235.8,172.9,254.4z"/>
	<path id="path5472" inkscape:label="board" sodipodi:nodetypes="cc" class="st1" d="M484,290.8C348.6,154.8,331.8,148.2,202.5,62.2   "/>
	<path id="path5550" inkscape:label="highlight left hand" sodipodi:nodetypes="cccc" class="st2" d="M116.1,154.9   c16.2-25.1,43.4-37.9,57.1-43.4c-13.9,8.1-27.9,30.5-33.6,45.6L116.1,154.9z"/>
	<path id="path5570" inkscape:label="highlight head" sodipodi:nodetypes="ccsc" class="st2" d="M192.4,383.5   c-41.4-16-49.3-64.6-42.4-97.6c-19.1,14.7-44.9,49.6-10.4,90.6C148.6,387.1,181.2,391.4,192.4,383.5z"/>
	<path id="path5591" inkscape:label="highlight left foot" sodipodi:nodetypes="ccccc" class="st2" d="M248.7,157.2   c0,0,15.9-20,28.5-23c10.5,1.6,31.4,11.3,31.4,11.3c-13.7-17.8-28.2-20.8-28.2-20.8C260.9,129.6,251.8,145.8,248.7,157.2   L248.7,157.2z"/>
	<path id="path5593" inkscape:label="highlight right hand" sodipodi:nodetypes="cccc" class="st2" d="M292.8,390.3   c3.3-1.9,13.7-9.4,15.6-12.4c0,29.6-26,59.9-40.6,62.7C278.1,429.4,293.4,411.3,292.8,390.3z"/>
	<path id="path5616" inkscape:label="highlight belly" sodipodi:nodetypes="cccc" class="st2" d="M188.7,248.6   c4-9.3,27.4-54,64.4-62.7c-37,24.1-40.4,66.3-40.4,66.3C207.2,249.8,193.9,247.9,188.7,248.6z"/>
</g>
</svg>