<?xml version="1.0" encoding="utf-8"?>
<!-- Generator: Adobe Illustrator 27.7.0, SVG Export Plug-In . SVG Version: 6.00 Build 0)  -->
<svg version="1.1" id="Layer_1" xmlns="http://www.w3.org/2000/svg" xmlns:xlink="http://www.w3.org/1999/xlink" x="0px" y="0px"
	 viewBox="0 0 512 512" style="enable-background:new 0 0 512 512;" xml:space="preserve">
<style type="text/css">
	.st0{fill:#5D87A1;}
</style>
<g>
	<path class="st0" d="M471.6,393.4c-27.9-0.7-49.4,2.1-67.6,9.8c-5.2,2.1-13.5,2.1-14.3,8.7c2.8,2.8,3.2,7.3,5.6,11.2
		c4.2,7,11.5,16.3,18.1,21.2c7.3,5.6,14.6,11.1,22.3,16c13.5,8.4,28.9,13.3,42.1,21.6c7.7,4.9,15.3,11.1,23,16.4
		c3.8,2.8,6.2,7.3,11.1,9.1v-1.1c-2.5-3.1-3.2-7.7-5.6-11.1L496,485c-10.1-13.6-22.7-25.4-36.2-35.2c-11.1-7.7-35.5-18.1-40.1-31
		l-0.7-0.7c7.7-0.7,16.8-3.5,24-5.6c11.8-3.1,22.7-2.4,34.8-5.5c5.6-1.4,11.1-3.2,16.8-4.9V399c-6.3-6.3-10.8-14.6-17.4-20.5
		c-17.7-15.3-37.3-30.3-57.5-42.8c-10.8-7-24.7-11.5-36.2-17.4c-4.1-2.1-11.1-3.1-13.6-6.6c-6.2-7.7-9.8-17.7-14.3-26.8
		c-10.1-19.1-19.8-40.4-28.5-60.6c-6.3-13.6-10.1-27.1-17.8-39.7c-35.9-59.2-74.9-95-134.8-130.2C161.7,46.9,146.4,43.8,130,40
		l-26.1-1.4c-5.6-2.4-11.2-9.1-16-12.2C68,13.9,16.8-13.3,2.2,22.6C-7.2,45.2,16.1,67.5,24.1,79c5.9,8,13.6,17.1,17.7,26.1
		c2.5,5.9,3.1,12.2,5.6,18.5c5.6,15.3,10.8,32.4,18.1,46.7c3.8,7.3,8,15,12.9,21.6c2.8,3.9,7.7,5.6,8.7,11.9
		c-4.9,6.9-5.2,17.4-8,26.1c-12.5,39.3-7.6,88.1,10.1,117c5.6,8.7,18.8,27.9,36.5,20.5c15.7-6.3,12.2-26.1,16.7-43.5
		c1-4.2,0.4-7,2.4-9.7v0.7c4.9,9.7,9.8,19.1,14.3,28.9c10.8,17,29.6,34.8,45.3,46.6c8.3,6.3,15,17.1,25.4,20.9v-1h-0.7
		c-2.1-3.1-5.2-4.5-8-6.9c-6.3-6.3-13.2-13.9-18.1-20.9c-14.6-19.5-27.5-41.1-39-63.4c-5.6-10.8-10.4-22.6-15-33.4
		c-2.1-4.2-2.1-10.4-5.6-12.5c-5.2,7.7-12.9,14.3-16.7,23.7c-6.6,15-7.3,33.4-9.8,52.6l-1.4,0.7c-11.1-2.8-15-14.3-19.2-24
		c-10.4-24.7-12.2-64.4-3.1-93c2.4-7.3,12.9-30.3,8.7-37.2c-2.1-6.7-9.1-10.5-12.9-15.7c-4.5-6.6-9.4-15-12.5-22.3
		c-8.4-19.5-12.6-41.1-21.6-60.6C51,88,43.7,78.6,37.8,70.3c-6.6-9.4-13.9-16-19.2-27.2c-1.7-3.8-4.2-10.1-1.4-14.3
		c0.7-2.8,2.1-3.8,4.9-4.5c4.5-3.8,17.4,1,21.9,3.1c12.9,5.2,23.7,10.1,34.5,17.4c4.9,3.5,10.1,10.1,16.4,11.9h7.3
		c11.1,2.4,23.7,0.7,34.1,3.8c18.4,5.9,35.2,14.6,50.1,24c45.6,28.9,83.2,70,108.6,119.1c4.2,8,5.9,15.3,9.7,23.7
		c7.3,17.1,16.4,34.5,23.7,51.2c7.3,16.4,14.3,33.1,24.7,46.7c5.2,7.3,26.1,11.1,35.5,15c6.9,3.1,17.8,5.9,24,9.7
		c11.8,7.3,23.6,15.7,34.8,23.7C453.1,377.7,470.5,386.5,471.6,393.4 M116.4,90.8c-4.8,0-9.6,0.5-14.3,1.8v0.7h0.7
		c2.8,5.6,7.7,9.4,11.2,14.3c2.8,5.6,5.2,11.1,8,16.7l0.7-0.7c4.9-3.5,7.4-9.1,7.4-17.4c-2.1-2.5-2.4-4.9-4.2-7.3
		C123.7,95.3,119.2,93.6,116.4,90.8"/>
</g>
</svg>
