<svg xmlns="http://www.w3.org/2000/svg" xmlns:xlink="http://www.w3.org/1999/xlink" version="1.1" id="Layer_1" x="0px" y="0px" style="enable-background:new 0 0 512 512;" xml:space="preserve" viewBox="0 46.5 512.1 419">
<style type="text/css">
	.st0{fill:#0B3D91;}
	.st1{fill:#FFFFFF;}
	.st2{fill:#FC3D21;}
</style>
<g>
	<circle class="st0" cx="238" cy="256" r="209.5"/>
	<g>
		<circle class="st1" cx="225.6" cy="86.7" r="2.3"/>
		<circle class="st1" cx="249.7" cy="89.9" r="2.3"/>
		<circle class="st1" cx="281.4" cy="132.5" r="2.3"/>
		<circle class="st1" cx="107.9" cy="351.7" r="2.3"/>
		<circle class="st1" cx="114" cy="370.5" r="2.3"/>
		<circle class="st1" cx="84.9" cy="354.5" r="1.8"/>
		<circle class="st1" cx="180.4" cy="391.4" r="1.8"/>
		<circle class="st1" cx="330.2" cy="360.3" r="1.8"/>
		<circle class="st1" cx="373.7" cy="313" r="1.8"/>
		<circle class="st1" cx="160.3" cy="146.2" r="1.8"/>
		<circle class="st1" cx="208.2" cy="111" r="1.8"/>
		<circle class="st1" cx="203" cy="107.6" r="1.8"/>
		<circle class="st1" cx="198.3" cy="104.1" r="1.8"/>
		<circle class="st1" cx="167.9" cy="155.3" r="1.8"/>
		<circle class="st1" cx="238.4" cy="63.7" r="1.8"/>
		<circle class="st1" cx="250" cy="114.5" r="1.8"/>
		<circle class="st1" cx="231.7" cy="104.6" r="1.8"/>
		<circle class="st1" cx="200.4" cy="118" r="1.8"/>
		<circle class="st1" cx="338.5" cy="406.7" r="1.8"/>
		<circle class="st1" cx="104.9" cy="363.6" r="1.8"/>
		<circle class="st1" cx="227.3" cy="386.3" r="1.8"/>
		<circle class="st1" cx="141.3" cy="362.2" r="1.8"/>
		<circle class="st1" cx="156.6" cy="387" r="1.8"/>
		<circle class="st1" cx="268.7" cy="371.4" r="1.8"/>
		<circle class="st1" cx="330.5" cy="336.5" r="1.8"/>
		<circle class="st1" cx="377.3" cy="357.9" r="1.8"/>
		<circle class="st1" cx="393.3" cy="368.1" r="1.8"/>
		<circle class="st1" cx="395.9" cy="340.2" r="1.8"/>
		<circle class="st1" cx="163" cy="300.8" r="1.8"/>
		<circle class="st1" cx="163.6" cy="341.2" r="2.3"/>
		<circle class="st1" cx="177.7" cy="370.9" r="2.3"/>
		<circle class="st1" cx="346.5" cy="339.9" r="2.3"/>
		<circle class="st1" cx="407.2" cy="336.5" r="2.3"/>
		<circle class="st1" cx="377.2" cy="323.6" r="2.3"/>
		<circle class="st1" cx="346.5" cy="324.9" r="2.3"/>
		<path class="st1" d="M283.2,85.3l5.8-0.6l-5.8-0.3c-0.2-1.1-1.1-2-2.2-2.2l-0.6-5.8l-0.3,5.9c-1.1,0.2-1.9,1.1-2,2.2l-6,0.5l6,0.3    c0.2,1,1,1.8,2.1,2l0.5,6l0.3-6C282.1,87.2,283,86.3,283.2,85.3z"/>
		<path class="st1" d="M184.6,150.3l5.8-0.6l-5.8-0.3c-0.2-1.1-1.1-2-2.2-2.2l-0.6-5.8l-0.3,5.9c-1.1,0.2-1.9,1.1-2,2.2l-6,0.5    l6,0.3c0.2,1,1,1.8,2.1,2l0.5,6l0.3-6C183.6,152.2,184.4,151.4,184.6,150.3z"/>
		<path class="st1" d="M403,322.2l5.8-0.6l-5.8-0.3c-0.2-1.1-1.1-2-2.2-2.2l-0.6-5.8l-0.3,5.9c-1.1,0.2-1.9,1.1-2,2.2l-6,0.5l6,0.3    c0.2,1,1,1.8,2.1,2l0.5,6l0.3-6C401.9,324.1,402.8,323.3,403,322.2z"/>
		<path class="st1" d="M164.9,412.1l5.8-0.6l-5.8-0.3c-0.2-1.1-1.1-2-2.2-2.2l-0.6-5.8l-0.3,5.9c-1.1,0.2-1.9,1.1-2,2.2l-6,0.5    l6,0.3c0.2,1,1,1.8,2.1,2l0.5,6l0.3-6C163.8,414,164.7,413.1,164.9,412.1z"/>
		<path class="st1" d="M384.4,368.2l5.8-0.6l-5.8-0.3c-0.2-1.1-1.1-2-2.2-2.2l-0.6-5.8l-0.3,5.9c-1.1,0.2-1.9,1.1-2,2.2l-6,0.5    l6,0.3c0.2,1,1,1.8,2.1,2l0.5,6l0.3-6C383.4,370.1,384.2,369.3,384.4,368.2z"/>
		<path class="st2" d="M287.7,205.8c-24.4,9.5-48.1,17.9-68.2,24.2C178.8,242.8,67.3,277.3,0,320.8l5.6,2.2    c41-23.2,67.7-30.5,93.3-38.5c27.9-8.8,118-29.9,158.8-41.3c13.8-3.9,29.9-9,47-15.1c-4-5.5-8.2-11.1-12.6-16.7    C290.7,209.5,289.2,207.6,287.7,205.8z M317.4,246.8c-5.9,4-10.8,7.2-14.3,9.2c-20,11.6-117.7,78.3-140,93.6    c-22.2,15.3-83.9,73.6-102.1,90.5l-0.6,6.9c58.6-52.6,76.9-65.6,100.2-83.3c28.8-21.9,88.4-62.5,108.7-75.5    c19.4-12.4,36.8-23.8,52.5-34.3c-0.3-0.4-0.5-0.9-0.8-1.3C319.9,250.7,318.7,248.8,317.4,246.8z M409,150.2    c-28.5,16.7-73.5,36.9-117.1,54c1,1.3,2.1,2.6,3.1,3.9c4.9,6.1,9.5,12.3,13.8,18.5c34.3-12.6,71.9-29.6,101.8-50.1    c-14.2,13.5-61.2,48.6-89.9,68.2c1.5,2.4,2.9,4.8,4.3,7.2c43.4-29.1,72.7-50.5,89.7-64.8c23.5-19.7,77-63.9,97.4-123.1    C476.3,109.4,434.1,135.4,409,150.2z"/>
		<path class="st1" d="M211,307.9c-4.6-5.8-11-13.6-15.8-19.6c-6.4-8.1-12.3-16.2-17.8-24.4c-1.8,0.4-3.5,0.9-5.3,1.3    c6.6,10.2,13.9,20.5,21.8,30.5c5.8,7.3,11.1,13.2,13.8,16.8c0.5,0.7,1.6,2.4,3.1,4.6c1.7-1.1,3.4-2.3,5.1-3.5    C214.3,311.8,212.6,309.9,211,307.9z M244.8,338.5c-3.8-3.6-13-9.6-22.6-18.6c-2.1,1.5-4.2,2.9-6.4,4.4    c6.2,8.7,14.6,19.4,21.2,22.5C246.9,351.5,249.6,343.1,244.8,338.5z M295,208.1c-54.8-68.9-121.7-106.8-150.5-83.9    c-22.4,17.8-13.2,69.8,17.7,124.4c1.6-0.5,3.2-1.1,4.7-1.6c-31.2-53.2-39.7-102.7-18.6-119.5c26.5-21.1,90.7,16.9,143.8,83.8    c11,13.9,20.7,27.8,28.9,41.3c31.4,51.9,41,98.9,19.3,118.1c-6.6,5.9-26.9,8.2-53.5-3.8c-0.4,0.5,0.2,1.7,0.7,2    c22.9,9.2,44.9,12.7,56,3.9C370.2,351.7,349.7,277,295,208.1z"/>
		<path class="st1" d="M60.1,216.2h35.1l29.4,49.9c0,0,0-36.2,0-39c0-4.4-5.6-10.1-7.5-11c2.3,0,22.9,0,24.3,0    c-1.5,0.4-6.3,6.2-6.3,11c0,2.3,0,54.8,0,57.3c0,3.5,5.1,8.4,7.5,10.3h-33.8l-29.9-50.2c0,0,0,37.4,0,39.5c0,3.9,3.8,7.7,7.8,10.9    H60.9c3.7-1.6,7.2-6.5,7.5-10.4c0.3-3.9,0-54.4,0-56.6C68.4,223.1,63.8,219.2,60.1,216.2z"/>
		<path class="st1" d="M380.9,294.8h46.7c-2.6-0.6-5.5-3.7-7-7.8c-1.6-4.1-26.3-70.8-26.3-70.8h-17.7c-5,3.6-10.4,7.4-16.2,11.5    c0,0.1,0,0.3-0.1,0.4c-0.8,4.7-14.7,55-15.5,57.5c-1.2,3.4-7.2,7.3-9.6,9.3h25.1c-2.5-2.8-4.5-5.6-4.1-8.7    c0.5-3.1,1.9-9.4,1.9-9.4h26c1.2,3.1,2.1,5.9,2.5,8.6C387.1,288.6,383.8,292.2,380.9,294.8z M360.4,266.8l8.8-28.7l11.6,28.7    H360.4z M356.5,219.1c1.3-0.9,2.6-1.9,3.9-2.9h-6.8C354.2,216.9,355.3,217.8,356.5,219.1z"/>
		<path class="st1" d="M178,286.2c0.5-3.1,1.9-9.4,1.9-9.4h26c1.2,3.1,2.1,5.9,2.5,8.6c0.5,3.2-2.7,6.8-5.6,9.3h41.1    c0.9-0.6,1.7-1.1,2.6-1.7c-1.6-1.4-3.1-3.5-4-6c-1.6-4.1-26.3-70.8-26.3-70.8h-40.7c2,1.8,7.6,6.7,6.7,11.9    c-0.8,4.7-14.7,55-15.5,57.5c-1.2,3.4-7.2,7.3-9.6,9.3h25.1C179.6,292.1,177.6,289.3,178,286.2z M191,238.2l11.6,28.7h-20.4    L191,238.2z"/>
		<path class="st1" d="M319.9,255.2c-7.7,5.1-15.7,10.4-24.3,16c3.8,1.9,6.9,4.2,7.2,7.2c0.5,5.6-10.8,8.4-21.1,7.2    c-2.1-0.2-4.1-0.8-6-1.5c-2.1,1.4-4.3,2.8-6.5,4.2c-2.2,1.4-4.9,3.2-8,5.2v8.1c2-4,6.5-7.6,9.9-7.8c1.5-0.1,6.7,4.7,27.9,3.5    c10.3-0.6,30.3-11.6,30-24.3C329,265.6,325.1,259.7,319.9,255.2z M261.3,274.8v8.3c1.9-1.3,3.7-2.5,5.6-3.7    C264,277.4,262,275.5,261.3,274.8z M312.6,250c-2-1.2-4-2.2-5.9-3.1c-10-4.7-20.5-5.6-22.7-11.9c-1.5-4.5,2.8-8.6,13.5-8.5    c10.6,0.2,20.5,6.5,23.2,8.8v-20.2c-0.8,0.8-4.2,4.7-7.4,4.1c-6-1.3-16.3-2.9-28-2.8c-13.5,0.1-25.1,10.5-25.4,23.6    c-0.5,18.4,14.2,23.4,22.5,26.3c0.9,0.3,1.8,0.6,2.9,1c8-5.2,14.3-9.2,17.9-11.3C305.6,254.6,308.8,252.5,312.6,250z"/>
	</g>
</g>
</svg>