<svg xmlns="http://www.w3.org/2000/svg" xmlns:svg="http://www.w3.org/2000/svg" id="svg844" width="256.024" height="256.024" version="1.1" viewBox="0 0 67.74 67.74"><metadata id="metadata841"/><g id="layer3" transform="translate(-108.20242,-83.317504)" style="display:inline"><circle style="fill:#0084ff;fill-opacity:1;stroke:#000;stroke-width:2.74219;stroke-miterlimit:4;stroke-dasharray:none;stroke-opacity:1" id="path862" cx="142.072" cy="117.187" r="32.499"/></g><g id="layer2" transform="translate(-108.20242,-83.317504)"><circle style="fill:#fff;fill-opacity:1;stroke:#000;stroke-width:2.64583;stroke-miterlimit:4;stroke-dasharray:none;stroke-opacity:1" id="path862-3" cx="142.072" cy="117.187" r="11.573"/></g><g id="layer6" transform="translate(-108.20242,-83.317504)"><path id="path862-3-5" d="m 161.58928,117.1873 c 0,10.77898 -8.73809,19.51707 -19.51707,19.51707 M 122.55515,117.1873 c 0,-10.77898 8.73809,-19.517068 19.51706,-19.517067" style="fill:none;fill-opacity:1;stroke:#000;stroke-width:2.64583;stroke-linecap:round;stroke-miterlimit:4;stroke-dasharray:none;stroke-opacity:1"/></g><g id="layer7" transform="translate(-108.20242,-83.317504)"><path id="path862-3-5-3" d="m 167.71209,117.1873 c 0,0.32994 -0.006,0.65843 -0.0186,0.98535 m -0.60107,4.64276 c -2.56514,11.4532 -12.7932,20.01177 -25.02022,20.01177 M 116.43234,117.1873 c 0,-0.29458 0.005,-0.58801 0.0148,-0.88019 m 0.49655,-4.2403 c 2.37274,-11.707 12.7215,-20.519383 25.1285,-20.519383" style="fill:none;fill-opacity:1;stroke:#000;stroke-width:2.64583;stroke-linecap:round;stroke-miterlimit:4;stroke-dasharray:none;stroke-opacity:1"/></g><g id="layer4" transform="translate(-108.20242,-83.317504)" style="display:inline"><circle style="fill:#fff;fill-opacity:1;stroke:#000;stroke-width:2.64583;stroke-miterlimit:4;stroke-dasharray:none;stroke-opacity:1" id="path862-3-6" cx="142.072" cy="117.187" r="2.391"/></g></svg>