<svg xmlns="http://www.w3.org/2000/svg" width="256.024" height="256.024" viewBox="0 0 67.74 67.74"><g style="display:inline"><circle cx="142.072" cy="117.187" r="32.499" style="fill:#0084ff;fill-opacity:1;stroke:#000;stroke-width:2.74219;stroke-miterlimit:4;stroke-dasharray:none;stroke-opacity:1" transform="translate(-108.202 -83.318)"/></g><circle cx="142.072" cy="117.187" r="11.573" style="fill:#fff;fill-opacity:1;stroke:#000;stroke-width:2.64583;stroke-miterlimit:4;stroke-dasharray:none;stroke-opacity:1" transform="translate(-108.202 -83.318)"/><path d="M161.59 117.187c0 10.78-8.739 19.517-19.518 19.517m-19.517-19.517c0-10.779 8.738-19.517 19.517-19.517" style="fill:none;fill-opacity:1;stroke:#000;stroke-width:2.64583;stroke-linecap:round;stroke-miterlimit:4;stroke-dasharray:none;stroke-opacity:1" transform="translate(-108.202 -83.318)"/><path d="M167.712 117.187c0 .33-.006.659-.019.986m-.6 4.642c-2.566 11.454-12.794 20.012-25.02 20.012m-25.64-25.64c0-.294.004-.588.014-.88m.497-4.24c2.372-11.707 12.721-20.52 25.128-20.52" style="fill:none;fill-opacity:1;stroke:#000;stroke-width:2.64583;stroke-linecap:round;stroke-miterlimit:4;stroke-dasharray:none;stroke-opacity:1" transform="translate(-108.202 -83.318)"/><g style="display:inline"><circle cx="142.072" cy="117.187" r="2.391" style="fill:#fff;fill-opacity:1;stroke:#000;stroke-width:2.64583;stroke-miterlimit:4;stroke-dasharray:none;stroke-opacity:1" transform="translate(-108.202 -83.318)"/></g></svg>