<svg xmlns="http://www.w3.org/2000/svg" xml:space="preserve" style="enable-background:new 0 0 100 100" viewBox="0 0 100 100"><path d="M47.8 95c-1.9-1-.5-4.7.8-8.3.5-1.3 1-2.6 1.3-3.9.1-.1.2-.2.2-.4.7-2.6.9-6.2 1.2-8.8l.1-1.1c0-.4-.2-.7-.6-.7-.4 0-.7.2-.7.6l-.1 1.1c-.1 1.5-.3 3.3-.5 5.1-6.3 1.4-15.7-.4-18-1.3l-.1-.1c-.1 0-.2-.1-.3-.2 0-.1-.1-.1-.2-.2-.1 0-.2-.1-.3-.1-1.3-.7-3-1.8-3.8-2.7-.2-.3-.7-.3-.9-.1-.3.2-.3.7-.1.9.9 1.1 2.8 2.3 4.2 3 .1 2.1.9 4.5 1.7 6.8 1.2 3.5 2.4 7.1.8 8.7-.8.8-1.6 1.1-2.5 1-2.9-.3-5.9-4.7-6.7-6.1-7.9-12.8-8.6-32.9-1.6-44.8 1.3-2.3 3.3-5.5 5-7.3l1.5-1.5c.6-.5.9-.9 1.2-1.1 1.9.6 4.2 1.2 6.7 1.2 1.6 0 3.4-.2 5-.9.3-.1.5-.5.4-.9-.1-.3-.5-.5-.9-.4-3.9 1.5-8.2.6-11.1-.4-2.4-1.2-3.5-1.9-5-4.2-1.1-1.8-1.4-4.4-1.6-6.9-.1-1.3-.2-2.5-.4-3.6-1-4.6-4.4-6.5-7.2-6.6-3.5-.2-6.7 1.8-7.8 4.9-.3 1-.4 2.3-.4 3.6-.1 1.8-.1 3.8-1 4.6-.3.3-.7.4-1.2.3-1.4-.1-2.4-.7-3.1-2-1.7-3.2-.6-9 .9-11.4 2.9-4.9 11.6-8.7 17.1-6 1.4.7 4.3 2.1 6 5.1l.3.5c.4.7.9 1.6 1 2.1.2.5.3 1.3.3 1.8.1 2.3.8 7 2 9.6 1.5 3 4.2 4.7 6.9 4.3l6.6-1.1c7.4-1 16.6 2 22.2 7.2 0 0 .1 0 .1.1.1.1.3.3.5.4 3.1 2.6 8.6 12.1 9.6 15.9.1.3.3.5.6.5h.2c.4-.1.6-.5.5-.8-1-4.1-6.7-13.9-10.1-16.7 2.9-4.9 9.7-12.7 14.4-12.1.4.6.4 3.6.4 5.6 0 1.1 0 2.3.1 3.3 0 .6.1 1.2.2 1.7 0 .3.2.5.5.5 1.6.4 6.2 4 9 7.4.3.3.6.7.9 1.2 1.9 2.7 3 6.5 3.2 8.9.3 2.9-.1 5.5-1.1 7.7 1.1.6 2.3 1.1 3.5 1.6.5.2 1 .4 1.4.6.3.1.5.5.4.9-.1.3-.4.4-.6.4-.1 0-.2 0-.3-.1-.5-.2-.9-.4-1.4-.6-1.2-.5-2.5-1-3.7-1.6-.2.4-.5.7-.7 1 1.3 1.3 2.7 2.4 4.1 3.2.3.2.4.6.2.9-.1.2-.3.3-.6.3-.1 0-.2 0-.3-.1-1.5-.9-3-2.1-4.3-3.4-.5.5-1 1-1.6 1.4-3.9 3.1-8.8 3.7-9.9 3.5.2-2.3.2-4.3 0-7.4 0-.4-.3-.6-.7-.6-.4 0-.6.3-.6.7.3 4.4.2 6.6-.5 10.6-.4 1.4-.8 3-1.3 4.7-1.8 6.4-2.8 10.3-2.5 11.5 0 .1.1.3.2.3 1.5 1.1 2.1 2.3 1.7 3.4-.4 1.2-1.8 2-3.3 2.1-1 0-3.3-.3-4.4-3.5-.7-1.9-.8-3.5-.9-5.4 0-.5-.1-.9-.1-1.4 3.3-2.3 6.9-6 7.8-10.3.1-.4-.1-.7-.5-.8-.4-.1-.7.1-.8.5-1 4.2-4.7 7.9-8 10l-.6.3c-.5.2-1.4.7-2.2 1 1.8-4.1 4.8-13.2 2.7-19.6-.1-.3-.5-.5-.8-.4-.4.1-.5.5-.4.8 2.2 6.6-1.5 16.5-3.2 19.7-.7 1-1.4 2.3-2.1 3.7-1.9 3.7-4.3 8.3-7.6 9.3-1.5.9-2.9.7-4.4-.1zm39-41.4c2.1-1.3-1.4-4.3-3.4-3.5-.5.2-.8.5-.9.8-.5 1.4 2.4 3.9 4.3 2.7zm5.7-3.8c0-1-.7-1.9-1.6-1.9-.9 0-1.6.8-1.6 1.9 0 1 .7 1.9 1.6 1.9.8 0 1.6-.9 1.6-1.9zm-55.6-1.1c.1-.8.4-1.5.6-2.2.6.7 1.3 1.3 1.9 1.9l.4.3c.1.1.3.2.5.2s.4-.1.5-.2c.3-.3.2-.7 0-.9l-.4-.3c-.7-.6-1.3-1.3-1.9-1.9.9-.2 1.8-.3 2.8-.3.4 0 .7-.3.7-.7 0-.4-.3-.7-.7-.7-1 0-1.9.1-2.8.2.3-.6.7-1.2 1.1-1.7.2-.3.2-.7-.1-.9-.3-.2-.7-.2-.9.1-.5.7-1 1.4-1.4 2.2-.3-.5-.6-1-.9-1.6-.2-.3-.5-.5-.9-.3-.3.1-.5.5-.3.9.3.7.7 1.3 1.1 2-.7.3-1.4.6-2.3.9-.3.1-.5.5-.3.9.1.2.4.4.6.4.1 0 .2 0 .3-.1.7-.3 1.3-.5 1.8-.8-.2.7-.4 1.5-.6 2.3-.1.4.2.7.5.8h.1c.3.1.6-.1.6-.5zm41.8-3.8c0-1.1-.8-1.9-1.7-1.9-.9 0-1.7.9-1.7 1.9 0 1.1.7 1.9 1.7 1.9s1.7-.9 1.7-1.9zm4-13c0-.2 0-.4-.1-.6.2-.1.5-.3 1.2-.6 1.9-1 7.5-4 8.9-3.4.1 0 .1.1.1.2.3 1.2-.3 3.3-.9 5.6-.5 1.9-1 3.8-1.1 5.5-2.5-3-6.1-6-8.1-6.7z" style="fill-rule:evenodd;clip-rule:evenodd;fill:#fff"/></svg>