<svg xmlns:svg="http://www.w3.org/2000/svg" xmlns:sodipodi="http://sodipodi.sourceforge.net/DTD/sodipodi-0.dtd" xmlns:inkscape="http://www.inkscape.org/namespaces/inkscape" xmlns="http://www.w3.org/2000/svg" xmlns:xlink="http://www.w3.org/1999/xlink" version="1.1" id="_3tPmdtZQ0LGlljQGEkT-3" x="0px" y="0px" style="enable-background:new 0 0 512 512;" xml:space="preserve" viewBox="64.04 -0.04 383.94 512.11">
<style type="text/css">
	.st0{fill:#FFB380;}
	.st1{fill:#8DCAFF;}
	.st2{fill:#C0D9B4;}
</style>
<sodipodi:namedview bordercolor="#666666" borderopacity="1.0" fit-margin-bottom="0" fit-margin-left="0" fit-margin-right="0" fit-margin-top="0" id="namedview21" inkscape:current-layer="_3tPmdtZQ0LGlljQGEkT-3" inkscape:cx="298.83666" inkscape:cy="77.853919" inkscape:document-units="mm" inkscape:pagecheckerboard="0" inkscape:pageopacity="0.0" inkscape:pageshadow="2" inkscape:snap-global="false" inkscape:window-height="1067" inkscape:window-maximized="0" inkscape:window-width="1792" inkscape:window-x="0" inkscape:window-y="25" inkscape:zoom="1.4707031" pagecolor="#ffffff" showgrid="false" units="px">
	</sodipodi:namedview>
<g id="_WTrHMt3eZfxcQKrYJirRK" transform="matrix(0.95294163,0,0,0.95294163,-45.741197,-190.14988)">
	<path id="_1MYZsbAYvxe5D-50H3pho" d="M510,611.2l-42.6,42.6l0,0L510,611.2l-48.6-48.6l0,0L510,611.2z"/>
	<path id="_oL3QJlwkbW1Nmdh3qAlDC" d="M404.2,478.1"/>
	<path id="_sK1htog-8Op55rgRI5hDg" class="st0" d="M384.1,484.4L384.1,484.4L384.1,484.4l-29.4,29.4c15,7.2,25.8,22.8,25.8,41.4   c0,25.2-20.4,45.6-45.6,45.6c-18,0-33.6-10.8-41.4-25.8l-35.4,35.4l-0.6,0.6l125.9,125.9l48.6-48.6l0,0   c-19.2,0-35.4-15.6-35.4-35.4c0-19.8,15.6-35.4,35.4-35.4c19.2,0,35.4,15.6,35.4,35.4l42.6-42.6l-48.6-48l0,0l-3.6-3.6   c0.6,0,1.8,0,2.4,0c19.2,0,35.4-15.6,35.4-35.4c0-9-3.6-16.8-9-23.4c-6-5.4-14.4-9-23.4-9c-19.2,0-35.4,15.6-35.4,35.4   c0,0.6,0,1.8,0,2.4l-2.4-2.4l0,0L384.1,484.4z"/>
	<path id="_OMWHsyuaoclMfPE9tvM7V" class="st1" d="M296.9,464.3c-25.2,0-45.6-20.4-45.6-45.6c0-18,10.2-33.6,25.2-40.8l-35.4-35.4   l0,0L115.2,468.5l133.1,133.1l57-57c-1.8,3.6-2.4,7.8-2.4,12c0,17.4,14.4,31.8,31.8,31.8c17.4,0,31.8-14.4,31.8-31.8   s-14.4-31.8-31.8-31.8c-4.2,0-8.4,0.6-12,2.4l51.6-51.6l-36-36C330.4,453.5,314.8,464.3,296.9,464.3z"/>
	<path id="_jAk8zpl6O80_21e1JT4hk" class="st2" d="M518.1,332.7L466,280.5c0.6,0,1.8,0,2.4,0c19.2,0,35.4-15.6,35.4-35.4   c0-19.2-15.6-34.8-35.4-34.8c-19.2,0-35.4,15.6-35.4,35.4c0,0.6,0,1.8,0,2.4l-48.6-48.6L258.5,325.5l-4.2,4.8l-2.4,2.4l57,57   c-3.6-1.2-7.2-1.8-10.8-1.8c-17.4,0-31.8,14.4-31.8,31.8c0,17.4,14.4,31.8,31.8,31.8c17.4,0,31.8-14.4,31.8-31.8   c0-3-0.6-5.4-1.2-8.4c0-1.2-0.6-1.8-0.6-3l3,3l55.2,55.2l2.4-2.4l4.8-4.8l40.8-40.8l0,0c-19.2,0-35.4-15.6-35.4-35.4   s15.6-35.4,35.4-35.4c19.2,0,35.4,15.6,35.4,35.4l0,0L518.1,332.7z"/>
	<path id="_GDSYpBtYoW2GJpRZoPCot" d="M383.8,484.1"/>
	<path id="_NldltLD5fZQlQrgFsakaC" d="M383.8,484.1"/>
	<path id="_TbX_b0jxU8J0Cb3YWVDy6" d="M328,411.2h1.8l-2.4-3C327.4,408.8,327.4,410,328,411.2z"/>
</g>
</svg>