<svg xmlns="http://www.w3.org/2000/svg" xmlns:xlink="http://www.w3.org/1999/xlink" id="Ebene_1" x="0" y="0" version="1.1" viewBox="0 0 476.3 512" style="enable-background:new 0 0 476.3 512" xml:space="preserve"><style type="text/css"/><g><g><defs><path id="SVGID_1_" d="M0,189v295.1c0,23.1,26.5,36.2,44.9,22.1l176.3-135.5c10-7.7,23.9-7.7,33.9,0l176.3,135.1 c18.3,14.1,44.8,1,44.8-22.1V189c0-8.7-4-16.9-10.9-22.1L255.1,5.8c-10-7.7-23.9-7.7-33.9,0L10.9,166.9C4,172.2,0,180.4,0,189z"/></defs><clipPath id="SVGID_00000074416772545416194290000002021421579722800045_"><use xlink:href="#SVGID_1_" style="overflow:visible"/></clipPath><linearGradient id="SVGID_00000171708737112170308840000009875838656776536251_" x1="-61.327" x2="134.201" y1="367.141" y2="171.617" gradientTransform="matrix(1 0 0 1 0 82.0576)" gradientUnits="userSpaceOnUse"><stop offset="0" style="stop-color:#ff7911"/><stop offset=".565" style="stop-color:#fe7711"/><stop offset=".769" style="stop-color:#fb700f"/><stop offset=".913" style="stop-color:#f5650c"/><stop offset="1" style="stop-color:#f05909"/></linearGradient><path style="clip-path:url(#SVGID_00000074416772545416194290000002021421579722800045_);fill:url(#SVGID_00000171708737112170308840000009875838656776536251_)" d="M2.6,177.3C0.9,181,0,185,0,189v313.8c0,15.5,17.8,24.2,30.1,14.8l208.1-159.9L2.6,177.3z"/></g></g><g><g><defs><path id="SVGID_00000165232816002839960720000015590235609967168178_" d="M0,189v295.1c0,23.1,26.5,36.2,44.9,22.1l176.3-135.5 c10-7.7,23.9-7.7,33.9,0l176.3,135.1c18.3,14.1,44.8,1,44.8-22.1V189c0-8.7-4-16.9-10.9-22.1L255.1,5.8c-10-7.7-23.9-7.7-33.9,0 L10.9,166.9C4,172.2,0,180.4,0,189z"/></defs><clipPath id="SVGID_00000034089732905959685910000004080231764885773461_"><use xlink:href="#SVGID_00000165232816002839960720000015590235609967168178_" style="overflow:visible"/></clipPath><linearGradient id="SVGID_00000106838109971869078070000014834403300805863866_" x1="-79.545" x2="128.419" y1="353.192" y2="178.69" gradientTransform="matrix(1 0 0 1 0 82.0576)" gradientUnits="userSpaceOnUse"><stop offset=".5" style="stop-color:#ff8d15;stop-opacity:0"/><stop offset=".67" style="stop-color:#fe8a14;stop-opacity:.34"/><stop offset=".772" style="stop-color:#fa8212;stop-opacity:.543"/><stop offset=".855" style="stop-color:#f3740f;stop-opacity:.711"/><stop offset=".929" style="stop-color:#ea600a;stop-opacity:.858"/><stop offset=".996" style="stop-color:#de4603;stop-opacity:.992"/><stop offset="1" style="stop-color:#dd4403"/></linearGradient><path style="clip-path:url(#SVGID_00000034089732905959685910000004080231764885773461_);fill:url(#SVGID_00000106838109971869078070000014834403300805863866_)" d="M2.6,177.3C0.9,181,0,185,0,189v313.8c0,15.5,17.8,24.2,30.1,14.8l208.1-159.9L2.6,177.3z"/></g></g><g><g><defs><path id="SVGID_00000064313521954827420220000014502438207524539552_" d="M0,189v295.1c0,23.1,26.5,36.2,44.9,22.1l176.3-135.5 c10-7.7,23.9-7.7,33.9,0l176.3,135.1c18.3,14.1,44.8,1,44.8-22.1V189c0-8.7-4-16.9-10.9-22.1L255.1,5.8c-10-7.7-23.9-7.7-33.9,0 L10.9,166.9C4,172.2,0,180.4,0,189z"/></defs><clipPath id="SVGID_00000029768589240911388820000010176752882955464117_"><use xlink:href="#SVGID_00000064313521954827420220000014502438207524539552_" style="overflow:visible"/></clipPath><path style="clip-path:url(#SVGID_00000029768589240911388820000010176752882955464117_);fill:#ff8f15" d="M2.6,177.3 l235.5,180.4l235.5-180.4c-1.9-4.1-4.7-7.6-8.3-10.4L250.5,2.3c-7.3-5.6-17.4-5.6-24.6,0C177.4,42.8,45.1,134,2.6,177.3z"/></g></g><g><g><defs><path id="SVGID_00000108987615391957923710000004498249062302736257_" d="M0,189v295.1c0,23.1,26.5,36.2,44.9,22.1l176.3-135.5 c10-7.7,23.9-7.7,33.9,0l176.3,135.1c18.3,14.1,44.8,1,44.8-22.1V189c0-8.7-4-16.9-10.9-22.1L255.1,5.8c-10-7.7-23.9-7.7-33.9,0 L10.9,166.9C4,172.2,0,180.4,0,189z"/></defs><clipPath id="SVGID_00000163767609962474852740000015432895989270259890_"><use xlink:href="#SVGID_00000108987615391957923710000004498249062302736257_" style="overflow:visible"/></clipPath><path style="clip-path:url(#SVGID_00000163767609962474852740000015432895989270259890_);fill:#ffa618" d="M238.1,357.7l16.9,13 l0,0c20.4,15.7,175.3,134.2,191.2,146.4c12.3,9.4,30,0.7,30-14.8c0,0,0-313.3,0-313.3c0-4.1-0.9-8.1-2.6-11.7L238.1,357.7z"/></g></g><g><g><defs><path id="SVGID_00000150073691683644983140000002503452036143744949_" d="M0,189v295.1c0,23.1,26.5,36.2,44.9,22.1l176.3-135.5 c10-7.7,23.9-7.7,33.9,0l176.3,135.1c18.3,14.1,44.8,1,44.8-22.1V189c0-8.7-4-16.9-10.9-22.1L255.1,5.8c-10-7.7-23.9-7.7-33.9,0 L10.9,166.9C4,172.2,0,180.4,0,189z"/></defs><clipPath id="SVGID_00000020383052977240441120000013850847685909273776_"><use xlink:href="#SVGID_00000150073691683644983140000002503452036143744949_" style="overflow:visible"/></clipPath><linearGradient id="SVGID_00000157288276306526051550000005163489310510497448_" x1="359.199" x2="532.376" y1="347.638" y2="220.127" gradientTransform="matrix(1 0 0 1 0 82.0576)" gradientUnits="userSpaceOnUse"><stop offset=".436" style="stop-color:#ff8f15"/><stop offset=".741" style="stop-color:#ff9916;stop-opacity:.46"/><stop offset="1" style="stop-color:#ffa618;stop-opacity:0"/></linearGradient><path style="clip-path:url(#SVGID_00000020383052977240441120000013850847685909273776_);fill:url(#SVGID_00000157288276306526051550000005163489310510497448_)" d="M238.1,357.7l16.9,13l0,0c20.4,15.7,175.3,134.2,191.2,146.4c12.3,9.4,30,0.7,30-14.8c0,0,0-313.3,0-313.3c0-4.1-0.9-8.1-2.6-11.7 L238.1,357.7z"/></g></g></svg>