<svg xmlns="http://www.w3.org/2000/svg" viewBox="0 0 320 320"><g fill="#9cc8f8" stroke="#9cc8f8"><circle cx="37" cy="284" r="23"/><circle cx="101" cy="37" r="23"/><circle cx="101" cy="220" r="23"/><circle cx="284" cy="220" r="23"/><path d="M93 37h16v180H93z"/><path d="M101 212h180v16H101z"/><path d="M101 208.686 112.314 220l-63.64 63.64-11.314-11.314z"/></g><g fill="#1685fc" stroke="#1685fc"><circle cx="284" cy="37" r="23"/><circle cx="37" cy="101" r="23"/><circle cx="220" cy="101" r="23"/><circle cx="220" cy="284" r="23"/><path d="M37 93h180v16H37z"/><path d="M212 101h16v180h-16z"/><path d="M220 112.314 208.686 101l63.64-63.64 11.314 11.314z"/></g></svg>