<?xml version="1.0" encoding="utf-8"?>
<!-- Generator: Adobe Illustrator 27.7.0, SVG Export Plug-In . SVG Version: 6.00 Build 0)  -->
<svg version="1.1" id="netgear_logo" xmlns:svg="http://www.w3.org/2000/svg"
	 xmlns="http://www.w3.org/2000/svg" xmlns:xlink="http://www.w3.org/1999/xlink" x="0px" y="0px" viewBox="0 0 512 512"
	 style="enable-background:new 0 0 512 512;" xml:space="preserve">
<style type="text/css">
	.st0{fill:#2B262B;}
	.st1{fill:#FFFFFF;}
</style>
<path class="st0" d="M439.2,512H72.8C32.6,512,0,479.4,0,439.2V72.8C0,32.6,32.6,0,72.8,0h366.5C479.4,0,512,32.6,512,72.8v366.5
	C512,479.4,479.4,512,439.2,512z"/>
<g>
	<g>
		<path id="N_00000130631891317095866100000002649377404225031827_" class="st1" d="M38.4,283.3h14.2v-33.4h0.2l26,33.4H93v-54.5
			H78.7v33.3h-0.1l-26-33.3H38.4V283.3"/>
		<path id="E_00000062896803357476803680000009524465938732858030_" class="st1" d="M147.9,240.8v-12h-31v54.5h31v-12h-16.8v-9.4h16
			v-12h-16v-9.1L147.9,240.8"/>
		<path id="T_00000140698647899921648330000018321955844801881990_" class="st1" d="M195.6,240.8h11.7v-12h-37.6v12h11.7v42.5h14.2
			V240.8"/>
		<path id="G_00000119832437351362209470000009687417899403728265_" class="st1" d="M251.3,252.8V264h11.6
			c-0.6,6.3-5.3,9.5-11.4,9.5c-9.3,0-14.4-8.6-14.4-17.1c0-8.3,4.9-17.2,14.2-17.2c5.7,0,9.8,3.5,11.8,8.7l13.4-5.6
			c-4.7-10.2-13.4-15.3-24.6-15.3c-17.6,0-29.6,11.7-29.6,29.4c0,17.1,11.9,28.8,29.1,28.8c9.1,0,17.1-3.2,22.5-10.7
			c4.9-6.8,5.4-13.6,5.6-21.6L251.3,252.8"/>
		<path id="E_00000059273971181344347650000001944698826323257004_" class="st1" d="M333.2,240.8v-12h-31v54.5h31v-12h-16.8v-9.4h16
			v-12h-16v-9.1L333.2,240.8"/>
		<path id="A_00000132790474060454476260000015411402452479008903_" class="st1" d="M386.7,262.8h-11.8l5.9-17.4h0.1L386.7,262.8z
			 M390.6,273.7l3.6,9.5h15.1l-20.5-54.5h-15.5l-21,54.5h15l3.8-9.5H390.6"/>
		<path id="R_00000106108787231554212230000004576217056645976705_" class="st1" d="M442.4,239.6h1.4c4.6,0,9.8,0.9,9.8,6.8
			s-5.2,6.8-9.8,6.8h-1.4C442.4,253.2,442.4,239.6,442.4,239.6z M456.5,260.9c7.7-1.4,11.9-7.9,11.9-15.4c0-11.6-8.2-16.8-18.9-16.8
			h-21.2v54.5h14.2v-21h0.1l13.4,21h17.6L456.5,260.9"/>
	</g>
</g>
</svg>
