<svg xmlns="http://www.w3.org/2000/svg" width="200" height="29.763"><path d="M-73 541.698V514.57h7.363l12.401 16.664V514.57h7.364v27.128h-7.364l-12.4-16.785v16.785zm35.847 0V514.57h18.02v6.007H-29.79v4.554h10.27v5.91h-10.27v4.65h10.658v6.007zm37.785 0h-7.557v-21.12h-7.17v-6.008H7.802v6.007H.631zm25.093-15.114h14.532c0 10.397-5.467 15.916-14.347 15.916-8.595 0-15.047-5.25-15.047-14.055 0-9.088 5.853-14.708 14.877-14.708 10.203 0 12.99 7.596 12.99 7.596l-6.99 2.782s-1.638-4.282-6.242-4.282c-3.37 0-6.942 2.544-6.942 8.49 0 4.98 3.194 8.42 7.305 8.42 3.677 0 5.49-2.102 5.774-4.734h-5.91zm53.383-12.011-9.93 27.127h7.605l1.695-5.038h9.834l1.696 5.038h7.653l-10.027-27.127h-8.526zm4.263 7.024 3.246 9.737h-6.419l3.173-9.737zm18.796-7.024V541.7h7.363v-10.463h.581l6.782 10.463H126l-8.55-11.153c2.953-.465 6.188-2.721 6.188-7.57 0-4.762-3-8.404-10.306-8.404h-11.165zm7.363 5.425h1.937c3.814 0 4.748 1.391 4.748 3.391 0 2.408-1.54 3.391-4.748 3.391h-1.937v-6.782zm-62.781 21.7V514.57h18.02v6.007H54.112v4.554h10.27v5.91h-10.27v4.65h10.657v6.007z" style="fill:#6b0e89;fill-opacity:1;stroke:none" transform="translate(73.5 -513.237)"/></svg>