<?xml version="1.0" encoding="utf-8"?>
<!-- Generator: Adobe Illustrator 27.7.0, SVG Export Plug-In . SVG Version: 6.00 Build 0)  -->
<svg version="1.1" id="Layer_1" xmlns="http://www.w3.org/2000/svg" xmlns:xlink="http://www.w3.org/1999/xlink" x="0px" y="0px"
	 viewBox="0 0 512 512" style="enable-background:new 0 0 512 512;" xml:space="preserve">
<style type="text/css">
	.st0{fill:url(#SVGID_1_);}
</style>
<g>
	
		<radialGradient id="SVGID_1_" cx="-45.3993" cy="659.4869" r="13.3678" gradientTransform="matrix(0 38.301 44.1228 0 -28842.3789 1738.5546)" gradientUnits="userSpaceOnUse">
		<stop  offset="0" style="stop-color:#20C6B7"/>
		<stop  offset="1" style="stop-color:#4D9ABF"/>
	</radialGradient>
	<path class="st0" d="M370.9,177.7l-0.2-0.1c-0.1,0-0.2-0.1-0.3-0.2c-0.3-0.3-0.4-0.8-0.4-1.2l10.3-63.1l48.4,48.4l-50.3,21.4
		c-0.1,0.1-0.3,0.1-0.4,0.1h-0.2c-0.1,0-0.1-0.1-0.3-0.2C375.7,180.7,373.4,179,370.9,177.7z M441.1,173.8l51.8,51.8
		c10.7,10.8,16.1,16.1,18.1,22.4c0.3,0.9,0.5,1.8,0.7,2.8L388,198.3c-0.1,0-0.1-0.1-0.2-0.1c-0.5-0.2-1.1-0.4-1.1-0.9
		c0-0.5,0.6-0.7,1.1-0.9l0.2-0.1L441.1,173.8z M509.6,267.3c-2.7,5-7.9,10.2-16.7,19.1l-58.4,58.3L359.1,329l-0.4-0.1
		c-0.7-0.1-1.4-0.2-1.4-0.8c-0.6-6.3-3.7-12.1-8.7-15.9c-0.3-0.3-0.2-0.8-0.1-1.2c0-0.1,0-0.1,0-0.2l14.2-87.1l0.1-0.3
		c0.1-0.7,0.2-1.4,0.8-1.4c6.1-0.8,11.7-4,15.5-8.9c0.1-0.1,0.2-0.3,0.4-0.4c0.4-0.2,0.9,0,1.4,0.2L509.6,267.3L509.6,267.3z
		 M421.1,358.2l-96,96l16.4-100.9l0-0.1c0-0.1,0-0.3,0.1-0.4c0.1-0.3,0.5-0.5,0.8-0.6l0.2-0.1c3.6-1.5,6.8-3.9,9.3-6.9
		c0.3-0.4,0.7-0.7,1.2-0.8c0.1,0,0.3,0,0.4,0L421.1,358.2L421.1,358.2z M304.9,474.4l-10.8,10.8L174.5,312.4c0-0.1-0.1-0.1-0.1-0.2
		c-0.2-0.3-0.4-0.5-0.3-0.8c0-0.2,0.1-0.4,0.3-0.6l0.1-0.2c0.4-0.5,0.7-1.1,1-1.6l0.3-0.5l0,0c0.2-0.3,0.4-0.6,0.7-0.8
		c0.3-0.1,0.7-0.1,1,0l132.5,27.3c0.4,0.1,0.7,0.2,1,0.4c0.2,0.2,0.2,0.4,0.3,0.6c1.9,7.1,7,12.9,13.7,15.7c0.4,0.2,0.2,0.6,0,1
		c-0.1,0.2-0.2,0.4-0.2,0.6C323,363.6,308.7,450.9,304.9,474.4z M282.3,497c-8,7.9-12.7,12.1-18,13.8c-5.2,1.7-10.9,1.7-16.1,0
		c-6.2-2-11.6-7.3-22.4-18.1L105.8,372.6l31.4-48.6c0.1-0.2,0.3-0.5,0.5-0.6c0.3-0.2,0.8-0.1,1.2,0c7.2,2.2,14.9,1.8,21.9-1.1
		c0.4-0.1,0.7-0.2,1,0c0.1,0.1,0.3,0.3,0.4,0.4L282.3,497L282.3,497z M94.2,361l-27.5-27.5l54.4-23.2c0.1-0.1,0.3-0.1,0.4-0.1
		c0.5,0,0.7,0.5,1,0.9c0.5,0.8,1.1,1.7,1.7,2.5l0.2,0.2c0.2,0.2,0.1,0.5-0.1,0.7L94.2,361L94.2,361z M54.4,321.2l-34.9-34.9
		c-5.9-5.9-10.2-10.2-13.2-13.9l106,22c0.1,0,0.3,0,0.4,0.1c0.7,0.1,1.4,0.2,1.4,0.8c0,0.7-0.8,1-1.5,1.2l-0.3,0.1L54.4,321.2z
		 M0.3,254.6c0.1-2.2,0.5-4.5,1.2-6.6c2-6.2,7.3-11.6,18.1-22.4L64.2,181c20.5,29.8,41.1,59.6,61.8,89.3c0.4,0.5,0.8,1,0.3,1.4
		c-1.9,2.1-3.9,4.5-5.3,7.1c-0.1,0.3-0.4,0.6-0.7,0.8c-0.2,0.1-0.4,0.1-0.6,0h0L0.3,254.6L0.3,254.6z M76.1,169.1l59.9-60
		c5.6,2.5,26.2,11.1,44.5,18.9c13.9,5.9,26.5,11.2,30.5,13c0.4,0.2,0.8,0.3,0.9,0.7c0.1,0.2,0.1,0.5,0,0.8c-1.9,8.8,0.7,18,7,24.4
		c0.4,0.4,0,1-0.3,1.5l-0.2,0.3l-60.9,94.3c-0.2,0.3-0.3,0.5-0.6,0.7c-0.3,0.2-0.8,0.1-1.1,0c-2.4-0.6-4.8-1-7.3-1
		c-2.2,0-4.6,0.4-7,0.8h0c-0.3,0-0.5,0.1-0.7-0.1c-0.2-0.2-0.4-0.4-0.6-0.7L76.1,169.1L76.1,169.1z M148.2,97l77.6-77.6
		C236.6,8.6,242,3.2,248.2,1.2c5.2-1.7,10.9-1.7,16.1,0c6.2,2,11.6,7.3,22.4,18.1l16.8,16.8l-55.2,85.5c-0.1,0.2-0.3,0.5-0.5,0.6
		c-0.3,0.2-0.8,0.1-1.2,0c-8.8-2.7-18.4-0.8-25.6,4.9c-0.4,0.4-0.9,0.2-1.3,0C212.3,124.1,156.2,100.4,148.2,97z M315.2,47.9l51,51
		L353.9,175v0.2c0,0.2,0,0.3-0.1,0.5c-0.1,0.3-0.4,0.3-0.7,0.4c-2.6,0.8-5.1,2-7.3,3.6c-0.1,0.1-0.2,0.1-0.3,0.2
		c-0.1,0.2-0.3,0.3-0.5,0.3c-0.2,0-0.4,0-0.6-0.1l-77.7-33l-0.1-0.1c-0.5-0.2-1.1-0.4-1.1-0.9c-0.5-4.3-1.9-8.5-4.1-12.2
		c-0.4-0.6-0.8-1.3-0.5-1.9L315.2,47.9z M262.7,162.8l72.8,30.8c0.4,0.2,0.8,0.4,1,0.8c0.1,0.2,0.1,0.5,0,0.8
		c-0.2,1.1-0.4,2.3-0.4,3.5v2c0,0.5-0.5,0.7-1,0.9l-0.1,0.1c-11.5,4.9-162,69.1-162.2,69.1s-0.5,0-0.7-0.2c-0.4-0.4,0-1,0.4-1.5
		c0.1-0.1,0.1-0.2,0.2-0.3l59.8-92.7l0.1-0.2c0.3-0.6,0.7-1.2,1.4-1.2l0.6,0.1c1.4,0.2,2.6,0.4,3.8,0.4c9.1,0,17.5-4.4,22.6-12
		c0.1-0.2,0.3-0.4,0.5-0.5C261.7,162.5,262.3,162.6,262.7,162.8z M179.3,285.5l164-69.9c0,0,0.2,0,0.5,0.2c0.9,0.9,1.7,1.5,2.4,2.1
		l0.4,0.2c0.3,0.2,0.7,0.4,0.7,0.7c0,0.1,0,0.2,0,0.3l-14,86.3l-0.1,0.3c-0.1,0.7-0.2,1.4-0.8,1.4c-7.6,0.5-14.5,4.7-18.3,11.3
		l-0.1,0.1c-0.2,0.3-0.4,0.6-0.7,0.8c-0.3,0.1-0.6,0.1-0.9,0l-130.8-27C181.3,292.4,179.4,285.5,179.3,285.5z"/>
</g>
</svg>
