<svg xmlns="http://www.w3.org/2000/svg" viewBox="0 0 48 48"><defs><linearGradient id="a" x1="24.61" x2="23.593" y1="47.593" y2="-.203" gradientUnits="userSpaceOnUse"><stop stop-color="#ff433a"/><stop offset="1" stop-color="#ff9436"/></linearGradient></defs><rect width="48" height="48" fill="url(#a)" fill-rule="evenodd" rx="2.982"/><path fill="#ffe8e1" d="m24 5-1.041 2.427c.346-.022.689-.051 1.041-.051s.695.029 1.041.051L24 5m0 3.393c-.501 0-.997.03-1.487.077l-.778 1.819c.738-.12 1.492-.2 2.265-.2.773 0 1.527.08 2.265.2l-.778-1.819c-.49-.047-.985-.077-1.487-.077m-13.426 2.176-.005.005.973 2.431c.457-.518.945-1.01 1.463-1.463l-2.431-.973m26.853 0-2.431.973c.518.457 1.01.945 1.463 1.463l.974-2.431-.005-.005m-13.426 1.048a12.48 12.48 0 0 0-2.995.376l-.875 2.039a10.845 10.845 0 0 1 3.87-.718c1.366 0 2.667.26 3.87.718l-.875-2.039a12.492 12.492 0 0 0-2.995-.376m-9.93.352a15.74 15.74 0 0 0-2.101 2.101l.733 1.829a13.946 13.946 0 0 1 3.198-3.198l-1.829-.733m19.86 0-1.829.733a13.946 13.946 0 0 1 3.198 3.198l.733-1.829a15.74 15.74 0 0 0-2.101-2.101m-16.323 1.417a12.614 12.614 0 0 0-4.248 4.154l.812 2.031a10.862 10.862 0 0 1 5.499-5.359l-2.063-.827m12.786 0-2.063.827a10.862 10.862 0 0 1 5.499 5.359l.812-2.031a12.623 12.623 0 0 0-4.248-4.154zm-6.393 1.284a9.498 9.498 0 0 0-9.499 9.499c0 5.247 4.252 9.501 9.499 9.501 5.247 0 9.499-4.255 9.499-9.501a9.498 9.498 0 0 0-9.499-9.499m-10.09 5.516-2.055.879c-.255.995-.405 2.03-.405 3.104 0 .936.111 1.845.306 2.723l2.01.86a10.863 10.863 0 0 1-.617-3.583c0-1.409.278-2.749.764-3.983m20.19 0c.486 1.234.764 2.574.764 3.983 0 1.258-.225 2.461-.617 3.583l2.01-.86c.195-.878.306-1.787.306-2.723 0-1.074-.15-2.108-.405-3.104l-2.055-.879m-23.805 1.549-1.819.778c-.047.49-.077.985-.077 1.487 0 .501.03.997.077 1.487l1.819.778c-.12-.738-.2-1.492-.2-2.265 0-.773.08-1.527.2-2.265m27.422 0c.12.738.2 1.492.2 2.265 0 .773-.08 1.527-.2 2.265l1.819-.778c.047-.49.077-.985.077-1.487 0-.501-.03-.997-.077-1.487l-1.819-.778m-30.28 1.224L5.02 23.999l2.427 1.041c-.022-.346-.051-.689-.051-1.041s.029-.695.051-1.041m33.15 0c.022.346.051.689.051 1.041s-.029.695-.051 1.041l2.427-1.041-2.427-1.041M14.12 28.613l-.819 2.048c1 1.65 2.369 3.049 3.995 4.087l2.01-.807a10.853 10.853 0 0 1-5.19-5.328m19.807 0a10.86 10.86 0 0 1-5.19 5.328l2.01.807a12.631 12.631 0 0 0 3.995-4.087l-.819-2.048m-21.2 3.487-.733 1.829a15.74 15.74 0 0 0 2.101 2.101l1.829-.733a13.946 13.946 0 0 1-3.198-3.198m22.598 0a13.946 13.946 0 0 1-3.198 3.198l1.829.733a15.74 15.74 0 0 0 2.101-2.101l-.733-1.829M20.32 34.37l.865 2.02c.911.211 1.857.335 2.831.335.975 0 1.92-.124 2.831-.335l.865-2.02a10.854 10.854 0 0 1-3.696.655c-1.301 0-2.542-.238-3.696-.655m-8.761.624-.974 2.431.005.005 2.431-.974a16.032 16.032 0 0 1-1.463-1.463m24.916 0c-.457.518-.945 1.01-1.463 1.463l2.431.974.005-.005-.973-2.431M21.751 37.71l.778 1.819c.49.047.985.077 1.487.077.501 0 .997-.03 1.487-.077l.778-1.819c-.738.12-1.492.2-2.265.2-.773 0-1.527-.08-2.265-.2m1.224 2.863L24.016 43l1.041-2.427c-.346.022-.689.051-1.041.051s-.695-.029-1.041-.051" color="#bebebe"/></svg>