<svg xmlns="http://www.w3.org/2000/svg" viewBox="0 0 48 48"><defs><clipPath><path transform="matrix(15.33333 0 0 11.5 415-125.5)" d="m-24 13c0 1.105-.672 2-1.5 2-.828 0-1.5-.895-1.5-2 0-1.105.672-2 1.5-2 .828 0 1.5.895 1.5 2" fill="#1890d0"/></clipPath><linearGradient id="0" gradientUnits="userSpaceOnUse" x1="24.61" y1="47.593" x2="23.593" y2="-.203"><stop stop-color="#ff433a"/><stop stop-color="#ff9436" offset="1"/></linearGradient></defs><rect height="48" width="48" rx="2.982" fill="url(#0)" fill-rule="evenodd"/><path d="m96.41-.695l-1.041 2.427c.346-.022.689-.051 1.041-.051.352 0 .695.029 1.041.051l-1.041-2.427m0 3.393c-.501 0-.997.03-1.487.077l-.778 1.819c.738-.12 1.492-.2 2.265-.2.773 0 1.527.08 2.265.2l-.778-1.819c-.49-.047-.985-.077-1.487-.077m-13.426 2.176l-.005.005.973 2.431c.457-.518.945-1.01 1.463-1.463l-2.431-.973m26.853 0l-2.431.973c.518.457 1.01.945 1.463 1.463l.974-2.431-.005-.005m-13.426 1.048c-1.034 0-2.034.139-2.995.376l-.875 2.039c1.203-.458 2.504-.718 3.87-.718 1.366 0 2.667.26 3.87.718l-.875-2.039c-.962-.237-1.962-.376-2.995-.376m-9.93.352c-.765.633-1.469 1.336-2.101 2.101l.733 1.829c.885-1.233 1.965-2.313 3.198-3.198l-1.829-.733m19.86 0l-1.829.733c1.233.885 2.313 1.965 3.198 3.198l.733-1.829c-.633-.765-1.336-1.469-2.101-2.101m-16.323 1.417c-1.727 1.027-3.184 2.452-4.248 4.154l.812 2.031c1.118-2.39 3.073-4.305 5.499-5.359l-2.063-.827m12.786 0l-2.063.827c2.426 1.054 4.381 2.969 5.499 5.359l.812-2.031c-1.064-1.702-2.522-3.127-4.248-4.154zm-6.393 1.284c-5.247 0-9.499 4.252-9.499 9.499 0 5.247 4.252 9.501 9.499 9.501 5.247 0 9.499-4.255 9.499-9.501 0-5.247-4.252-9.499-9.499-9.499m-10.09 5.516l-2.055.879c-.255.995-.405 2.03-.405 3.104 0 .936.111 1.845.306 2.723l2.01.86c-.391-1.122-.617-2.325-.617-3.583 0-1.409.278-2.749.764-3.983m20.19 0c.486 1.234.764 2.574.764 3.983 0 1.258-.225 2.461-.617 3.583l2.01-.86c.195-.878.306-1.787.306-2.723 0-1.074-.15-2.108-.405-3.104l-2.055-.879m-23.805 1.549l-1.819.778c-.047.49-.077.985-.077 1.487 0 .501.03.997.077 1.487l1.819.778c-.12-.738-.2-1.492-.2-2.265 0-.773.08-1.527.2-2.265m27.422 0c.12.738.2 1.492.2 2.265 0 .773-.08 1.527-.2 2.265l1.819-.778c.047-.49.077-.985.077-1.487 0-.501-.03-.997-.077-1.487l-1.819-.778m-30.28 1.224l-2.427 1.041 2.427 1.041c-.022-.346-.051-.689-.051-1.041 0-.352.029-.695.051-1.041m33.15 0c.022.346.051.689.051 1.041 0 .352-.029.695-.051 1.041l2.427-1.041-2.427-1.041m-26.477 5.655l-.819 2.048c1 1.65 2.369 3.049 3.995 4.087l2.01-.807c-2.298-1.108-4.144-2.994-5.19-5.328m19.807 0c-1.046 2.333-2.892 4.219-5.19 5.328l2.01.807c1.626-1.038 2.992-2.437 3.995-4.087l-.819-2.048m-21.2 3.487l-.733 1.829c.633.765 1.336 1.469 2.101 2.101l1.829-.733c-1.233-.885-2.313-1.965-3.198-3.198m22.598 0c-.885 1.233-1.965 2.313-3.198 3.198l1.829.733c.765-.633 1.469-1.336 2.101-2.101l-.733-1.829m-14.995 2.27l.865 2.02c.911.211 1.857.335 2.831.335.975 0 1.92-.124 2.831-.335l.865-2.02c-1.155.417-2.396.655-3.696.655-1.301 0-2.542-.238-3.696-.655m-8.761.624l-.974 2.431.005.005 2.431-.974c-.518-.457-1.01-.945-1.463-1.463m24.916 0c-.457.518-.945 1.01-1.463 1.463l2.431.974.005-.005-.973-2.431m-14.723 2.716l.778 1.819c.49.047.985.077 1.487.077.501 0 .997-.03 1.487-.077l.778-1.819c-.738.12-1.492.2-2.265.2-.773 0-1.527-.08-2.265-.2m1.224 2.863l1.041 2.427 1.041-2.427c-.346.022-.689.051-1.041.051-.352 0-.695-.029-1.041-.051" fill="#ffe8e1" color="#bebebe" transform="translate(-72.41 5.695)"/></svg>