<?xml version="1.0" encoding="utf-8"?>
<!-- Generator: Adobe Illustrator 27.8.1, SVG Export Plug-In . SVG Version: 6.00 Build 0)  -->
<svg version="1.1" id="Layer_1" xmlns="http://www.w3.org/2000/svg" xmlns:xlink="http://www.w3.org/1999/xlink" x="0px" y="0px"
	 viewBox="0 0 32 32" style="enable-background:new 0 0 32 32;" xml:space="preserve">
<style type="text/css">
	.st0{fill:#0082C9;}
	.st1{fill:#FFFFFF;}
</style>
<path class="st0" d="M5,0h22c2.8,0,5,2.2,5,5v22c0,2.8-2.2,5-5,5H5c-2.8,0-5-2.2-5-5V5C0,2.2,2.2,0,5,0z"/>
<path class="st1" d="M24.5,3.5c-1,0-2,0.4-2.8,1.2l5.7,5.7c1.6-1.6,1.6-4.1,0-5.7C26.5,3.9,25.5,3.5,24.5,3.5z M20.2,6.1l-12,12
	l5.7,5.7l12-12L20.2,6.1L20.2,6.1z M6.8,19.5l-2.1,7.8l7.8-2.1L6.8,19.5z"/>
</svg>
