<?xml version="1.0" encoding="utf-8"?>
<!-- Generator: Adobe Illustrator 27.8.1, SVG Export Plug-In . SVG Version: 6.00 Build 0)  -->
<svg version="1.1" id="Layer_1" xmlns="http://www.w3.org/2000/svg" xmlns:xlink="http://www.w3.org/1999/xlink" x="0px" y="0px"
	 viewBox="0 0 32 32" style="enable-background:new 0 0 32 32;" xml:space="preserve">
<style type="text/css">
	.st0{fill:#0082C9;}
	.st1{fill:#FFFFFF;}
</style>
<g id="background_00000030482991581651019030000011180334072296597416_">
	<path id="background" class="st0" d="M5,0h22c2.8,0,5,2.2,5,5v22c0,2.8-2.2,5-5,5H5c-2.8,0-5-2.2-5-5V5C0,2.2,2.2,0,5,0z"/>
</g>
<g id="logo_00000059992613453838551560000007231393915000769982_">
	<g>
		<path class="st1" d="M24.8,23.1c0-6.5-2.2-14.4-8.7-14.4s-8.8,8.2-8.8,14.7s2.4,5.8,8.9,5.8C22.6,29.1,24.8,29.6,24.8,23.1z
			 M17,24.5v1.1c0,0.4-0.3,0.7-0.7,0.7h-0.6c-0.4,0-0.7-0.3-0.7-0.7v-1c-0.8-0.1-1.8-0.4-2.6-0.9c-0.3-0.2-0.4-0.6-0.2-0.9l0.6-0.9
			c0.2-0.3,0.6-0.4,0.9-0.2c0.7,0.4,1.3,0.6,1.8,0.6c0.9,0,1.2-0.3,1.2-1c0-1.4-4.4-1.6-4.4-4.6c0-1.7,1-2.9,2.6-3.3v-1.1
			c0-0.4,0.3-0.6,0.6-0.6h0.6c0.4,0,0.6,0.3,0.6,0.6v1.1c0.8,0.1,1.5,0.5,2.1,1c0.3,0.2,0.3,0.6,0.1,0.9L18.6,16
			c-0.2,0.3-0.6,0.3-0.9,0.1c-0.4-0.3-0.9-0.5-1.3-0.5c-0.7,0-1.1,0.2-1.1,0.9c0,1.3,4.4,1.4,4.4,4.5C19.7,22.8,18.9,24.1,17,24.5
			L17,24.5z"/>
		<path class="st1" d="M18.6,2.9L16,4.3l-2.6-1.4c-0.5-0.3-1.1,0.2-0.9,0.8l1.4,4.7c0.7-0.2,1.4-0.3,2.1-0.3s1.4,0.1,2.1,0.3
			l1.4-4.7C19.7,3.1,19.1,2.7,18.6,2.9z"/>
	</g>
</g>
</svg>
