<svg xmlns="http://www.w3.org/2000/svg" viewBox="0 0 250 250"><defs><style>.cls-1{fill:#0589d1}.cls-2{fill:#14a3f0}.cls-3{fill:#078dd6}.cls-4{fill:#129fec}.cls-5{fill:#19a7f4}.cls-6{fill:#fbfdfe}.cls-7{fill:#0990d9}.cls-8{fill:#0d95df}.cls-9{fill:#129de9}.cls-10{fill:#139feb}.cls-11{fill:#0f9ae5}.cls-12{fill:#0c94df}.cls-13{fill:#109ae5}.cls-14{fill:#0e96e0}.cls-15{fill:#1099e4}.cls-16{fill:#0d92db}.cls-17{fill:#149ee9}</style></defs><g id="Layer_2" data-name="Layer 2"><g id="Layer_1-2" data-name="Layer 1"><path d="M141,250H105a20.33,20.33,0,0,0-3.53-1.12c-15.94-2-31.46-5.5-45.93-12.78C26.4,221.45,10.82,196.82,4.05,165.8c-1.57-7.22-2.71-14.53-4-21.8V133c1.75-2.5,3.4-5.51,7-2.42q11.89,10.23,23.67,20.6c9.83,8.68,19.56,17.48,29.4,26.15q19.23,17,38.58,33.79c9.38,8.19,18.93,16.18,28.17,24.52C131.79,240.14,136.28,245.19,141,250Z" class="cls-1"/><path d="M105,0h39l1,1.14c1.78,2.47,3.18,5.37,5.41,7.35,14.53,12.88,29.3,25.49,43.87,38.33,15.81,14,31.46,28.08,47.26,42,1.57,1.38,3.71,2.11,5.59,3.14q1.44,7,2.87,14v29c-8.51-7.68-17-15.38-25.53-23q-14.13-12.63-28.33-25.16-19.44-17.11-39-34.15c-12-10.48-24.17-20.81-36.11-31.38C113.86,14.92,107,8.23,99.91,1.68Z" class="cls-2"/><path d="M141,250c-4.72-4.81-9.21-9.86-14.19-14.36-9.24-8.34-18.79-16.33-28.17-24.52q-19.33-16.86-38.58-33.79c-9.84-8.67-19.57-17.47-29.4-26.15Q18.9,140.8,7,130.58c-3.59-3.09-5.24-.08-7,2.42V105a21.05,21.05,0,0,0,1.09-3c1.69-8.33,3.33-16.67,5-25,1.84,1.36,3.76,2.63,5.5,4.1,9.11,7.73,18.18,15.52,27.26,23.28-12.37,12.12-10,31.18-.94,40.11,7.4,7.32,16,9.89,26.11,8.48,6,5.68,11.86,11.53,18,17,10.94,9.69,22.13,19.11,33.13,28.73,13.62,11.93,27.24,23.86,40.68,36,3.7,3.33,6.78,7.37,10.14,11.08L144,250Z" class="cls-3"/><path d="M99.91,1.68c7,6.55,14,13.24,21.14,19.61,11.94,10.57,24.09,20.9,36.11,31.38q19.53,17,39,34.15Q210.36,99.35,224.47,112c8.54,7.64,17,15.34,25.53,23v10l-1.69,5.11c-2.81-1.57-5.85-2.83-8.37-4.77-6.88-5.33-13.54-10.94-20.29-16.43,0-6.63-.35-13.14-4.08-19-6-9.46-20.18-17.93-37.54-9.84-1.47-2.11-2.62-4.57-4.46-6.27-5.25-4.82-10.85-9.26-16.2-14-9.83-8.67-19.53-17.48-29.38-26.13C112.79,40.35,97.5,27.1,82.29,13.76c-2.6-2.28-5-4.8-7.47-7.21Z" class="cls-4"/><path d="M145,1.14c54.89,4,90.08,32.35,100.95,83,.56,2.59.79,5.24,1.18,7.87-1.88-1-4-1.76-5.59-3.14-15.8-14-31.45-28.09-47.26-42C179.71,34,164.94,21.37,150.41,8.49,148.18,6.51,146.78,3.61,145,1.14Z" class="cls-5"/><path d="M178,100.09c17.36-8.09,31.49.38,37.54,9.84,3.73,5.84,4.12,12.35,4.08,19-1,7.25-4.71,13-9.85,18-16.36,11.45-33.34,6.58-42.68-8.38-.1-.15-.54-.09-.39-.07L158.9,152c-7.78,9.43-18,14.44-29.91,16.24-22.21.37-37.37-9.8-45.47-31C78.86,145.25,72.45,150.42,64,153c-10.08,1.41-18.71-1.16-26.11-8.48-9-8.93-11.43-28,.94-40.11,5.2-4,10.75-7.14,17.54-7.51,12.37-.69,20.74,5.55,26.6,14.91l12.19-18.3c8.26-6.34,17.2-11.06,27.84-11.79,21.13.41,35.71,10.35,42.68,28.3Zm-28.86,36c5.53-9.86,2.89-22.74-6.34-31s-22-9.27-31.93-2.3c-10,6.06-14.54,17.21-11.82,28.83,2.4,10.29,12.66,19.07,23.61,20.21S144.57,146.45,149.17,136.05Zm-91.33.2c7.15.09,12-4.32,12.11-11s-4.57-11.39-11.67-11.47c-6.83-.07-11.36,4.28-11.46,11S51.11,136.16,57.84,136.25Zm133.93-22.52c-7.12,0-11.82,4.6-11.76,11.39s4.85,11.17,12,11.12c6.74,0,11.18-4.59,11.12-11.39S198.6,113.69,191.77,113.73Z" class="cls-6"/><path d="M64,153c8.45-2.55,14.86-7.72,19.52-15.79,8.1,21.22,23.26,31.39,45.47,31,1,1.47,1.86,3.19,3.16,4.37,5.16,4.7,10.48,9.22,15.73,13.82,13.12,11.49,26.32,22.9,39.31,34.55,4.26,3.81,8,8.24,11.93,12.38-10.22,6.33-21.41,10.08-33.12,12.45-3.36-3.71-6.44-7.75-10.14-11.08-13.44-12.13-27.06-24.06-40.68-36-11-9.62-22.19-19-33.13-28.73C75.86,164.5,70,158.65,64,153Z" class="cls-7"/><path d="M95.16,93.48,83,111.78c-5.86-9.36-14.23-15.6-26.6-14.91-6.79.37-12.34,3.5-17.54,7.51C29.75,96.62,20.68,88.83,11.57,81.1c-1.74-1.47-3.66-2.74-5.5-4.1,4.21-17.11,12-32.28,24.56-44.81a39.5,39.5,0,0,0,4.11,5C52,52.22,69.44,67.1,86.57,82.33,90,85.39,92.33,89.73,95.16,93.48Z" class="cls-8"/><path d="M178,100.09,165.68,110C158.71,92,144.13,82.1,123,81.69c-1-1.44-1.7-3.13-3-4.27C114,72,107.9,66.63,101.78,61.28c-12.61-11-25.47-21.77-37.72-33.17C60,24.33,53.69,22.2,52.85,15.47l22-8.92c2.49,2.41,4.87,4.93,7.47,7.21,15.21,13.34,30.5,26.59,45.7,40,9.85,8.65,19.55,17.46,29.38,26.13,5.35,4.72,10.95,9.16,16.2,14C175.41,95.52,176.56,98,178,100.09Z" class="cls-9"/><path d="M209.8,146.92c5.14-5,8.86-10.76,9.85-18,6.75,5.49,13.41,11.1,20.29,16.43,2.52,1.94,5.56,3.2,8.37,4.77q-2.51,12.51-5,25c-3.79-3.23-7.56-6.49-11.37-9.69Q220.9,156.17,209.8,146.92Z" class="cls-10"/><path d="M52.85,15.47c.84,6.73,7.15,8.86,11.21,12.64,12.25,11.4,25.11,22.15,37.72,33.17C107.9,66.63,114,72,120.05,77.42c1.25,1.14,2,2.83,3,4.27-10.64.73-19.58,5.45-27.84,11.79-2.83-3.75-5.15-8.09-8.59-11.15C69.44,67.1,52,52.22,34.74,37.15a39.5,39.5,0,0,1-4.11-5Q41.73,23.82,52.85,15.47Z" class="cls-11"/><path d="M199.12,233.32c-4-4.14-7.67-8.57-11.93-12.38-13-11.65-26.19-23.06-39.31-34.55-5.25-4.6-10.57-9.12-15.73-13.82-1.3-1.18-2.12-2.9-3.16-4.37,11.93-1.8,22.13-6.81,29.91-16.24,2.09.91,4.56,1.38,6.2,2.8,16.71,14.48,33.24,29.15,49.91,43.65,4,3.47,8.33,6.54,12.51,9.79A79.35,79.35,0,0,1,199.12,233.32Z" class="cls-12"/><path d="M227.52,208.2c-4.18-3.25-8.52-6.32-12.51-9.79-16.67-14.5-33.2-29.17-49.91-43.65-1.64-1.42-4.11-1.89-6.2-2.8l7.83-13.49c-.15,0,.29-.08.39.07,9.34,15,26.32,19.83,42.68,8.38q11.07,9.26,22.14,18.53c3.81,3.2,7.58,6.46,11.37,9.69A89.47,89.47,0,0,1,227.52,208.2Z" class="cls-13"/><path d="M149.17,136.05c-4.6,10.4-15.51,16.89-26.48,15.76s-21.21-9.92-23.61-20.21c-2.72-11.62,1.86-22.77,11.82-28.83,8.35,7.73,16.59,15.59,25.09,23.14C140.12,129.58,144.76,132.69,149.17,136.05Z" class="cls-14"/><path d="M149.17,136.05c-4.41-3.36-9-6.47-13.18-10.14-8.5-7.55-16.74-15.41-25.09-23.14,9.94-7,22.57-6.06,31.93,2.3S154.7,126.19,149.17,136.05Z" class="cls-15"/><path d="M57.84,136.25c-6.73-.09-11.12-4.66-11-11.48s4.63-11.1,11.46-11c7.1.08,11.8,4.71,11.67,11.47S65,136.34,57.84,136.25Z" class="cls-16"/><path d="M191.77,113.73c6.83,0,11.33,4.35,11.39,11.12S198.78,136.2,192,136.24c-7.18,0-12-4.37-12-11.12S184.65,113.78,191.77,113.73Z" class="cls-17"/></g></g></svg>