<svg xmlns="http://www.w3.org/2000/svg" xmlns:xlink="http://www.w3.org/1999/xlink" id="Layer_1" x="0" y="0" version="1.1" viewBox="0 0 128 128" style="enable-background:new 0 0 128 128" xml:space="preserve"><style type="text/css">.st0{fill:#0082c9}.st1{fill:#fff}</style><g><path d="M20,0h88c11,0,20,9,20,20v88c0,11-9,20-20,20H20c-11,0-20-9-20-20V20C0,9,9,0,20,0z" class="st0"/><path d="M15,94.2V115h20.8l61.4-61.4L76.4,32.7L15,94.2z M113.4,37.5c2.2-2.2,2.2-5.7,0-7.8l-13-13 c-2.2-2.2-5.7-2.2-7.8,0L82.4,26.8l20.8,20.8L113.4,37.5z" class="st1"/></g></svg>