<svg xmlns="http://www.w3.org/2000/svg" xmlns:xlink="http://www.w3.org/1999/xlink" version="1.1" id="Layer_1" x="0px" y="0px" style="enable-background:new 0 0 512 512;" xml:space="preserve" viewBox="0.06 68.8 511.94 374.4">
<style type="text/css">
	.st0{fill:#314BD3;}
</style>
<g>
	<path class="st0" d="M309.2,443.2c-25.9,0-46.8-21-46.8-46.8c0-25.9,21-46.8,46.8-46.8h156c25.9,0,46.8,21,46.8,46.8   c0,25.9-21,46.8-46.8,46.8H309.2z M67,310.9c30.3-30.3,30.3-79.5-0.1-109.7l-53-52.7c-29.5-29.4-8.7-79.7,32.9-79.7   c12.4,0,24.2,4.9,33,13.6l141.1,140.8c18.1,18.4,18.1,48.4,0,66.2L80.7,429.5c-8.8,8.8-20.7,13.7-33.1,13.7   c-41.7,0-62.6-50.4-33.1-79.9L67,310.9z"/>
</g>
</svg>