<svg xmlns="http://www.w3.org/2000/svg" xmlns:xlink="http://www.w3.org/1999/xlink" version="1.1" id="Layer_1" x="0px" y="0px" style="enable-background:new 0 0 512 512;" xml:space="preserve" viewBox="0 139.3 512.2 233.5">
<style type="text/css">
	.st0{fill:#3784C9;}
</style>
<g>
	<g>
		<path class="st0" d="M256,139.3c-53,0-97.9,35.8-112.1,84.4c-12.2-25.5-38.2-43.4-68.2-43.4C34.2,180.2,0,214.4,0,256    s34.2,75.8,75.8,75.8c30,0,55.9-17.9,68.2-43.4c14.1,48.6,59.1,84.4,112.1,84.4s97.9-35.8,112.1-84.4    c12.2,25.5,38.2,43.4,68.2,43.4c41.6,0,75.8-34.2,75.8-75.8s-34.2-75.8-75.8-75.8c-30,0-55.9,17.9-68.2,43.4    C353.9,175.1,309,139.3,256,139.3z M256,184.3c39.9,0,71.7,31.8,71.7,71.7s-31.8,71.7-71.7,71.7s-71.7-31.8-71.7-71.7    S216.1,184.3,256,184.3z M75.8,225.3c17.2,0,30.7,13.5,30.7,30.7S93,286.7,75.8,286.7S45.1,273.2,45.1,256S58.5,225.3,75.8,225.3z     M436.2,225.3c17.2,0,30.7,13.5,30.7,30.7s-13.5,30.7-30.7,30.7s-30.7-13.5-30.7-30.7S419,225.3,436.2,225.3z"/>
	</g>
</g>
</svg>