<?xml version="1.0" encoding="utf-8"?>
<!-- Generator: Adobe Illustrator 27.7.0, SVG Export Plug-In . SVG Version: 6.00 Build 0)  -->
<svg version="1.1"
	 id="svg6" xmlns:dc="http://purl.org/dc/elements/1.1/" xmlns:cc="http://creativecommons.org/ns#" xmlns:svg="http://www.w3.org/2000/svg" xmlns:inkscape="http://www.inkscape.org/namespaces/inkscape" xmlns:sodipodi="http://sodipodi.sourceforge.net/DTD/sodipodi-0.dtd" xmlns:rdf="http://www.w3.org/1999/02/22-rdf-syntax-ns#" inkscape:export-filename="Nextcloud Pi.png" inkscape:export-xdpi="320"
	 xmlns="http://www.w3.org/2000/svg" xmlns:xlink="http://www.w3.org/1999/xlink" x="0px" y="0px" viewBox="0 0 512 512"
	 style="enable-background:new 0 0 512 512;" xml:space="preserve">
<style type="text/css">
	.st0{fill:#0082C9;}
	.st1{fill:#FFFFFF;}
</style>
<g>
	<path id="rect4527" class="st0" d="M256,0L256,0c141.4,0,256,114.6,256,256l0,0c0,141.4-114.6,256-256,256l0,0
		C114.6,512,0,397.4,0,256l0,0C0,114.6,114.6,0,256,0z"/>
	<path id="path4529" inkscape:connector-curvature="0" class="st1" d="M176.8,93.4c-2.2,0.1-4.6,0.9-7.3,3c-6.6-2.5-13-3.4-18.7,1.8
		c-8.8-1.1-11.7,1.2-13.9,4c-1.9,0-14.5-2-20.3,6.6c-14.5-1.7-19.1,8.5-13.9,18.1c-3,4.6-6,9.1,0.9,17.8c-2.4,4.9-0.9,10.1,4.8,16.5
		c-1.5,6.8,1.5,11.7,6.8,15.4c-1,9.4,8.6,14.8,11.4,16.7c1.1,5.4,3.4,10.6,14.3,13.4c1.8,8.1,8.4,9.5,14.8,11.2
		c1.8,5.2,11.3,8.8,30.1,6.8c-10.5,11-18.3,24.6-22.5,39.6c-9.6-21-30.6-35.9-55-35.9c-33.3,0-60.6,27.4-60.6,60.6
		c0,33.3,27.4,60.6,60.6,60.6c24.4,0,45.5-14.9,55-35.9c10.9,39.3,46.8,68.5,89.5,68.5c42.4,0,78.1-28.9,89.3-67.9
		c9.7,20.6,30.4,35.3,54.6,35.3c33.3,0,60.7-27.4,60.6-60.6c0-33.3-27.4-60.6-60.6-60.6c-24.2,0-44.9,14.6-54.6,35.3
		c-4.3-14.9-12.1-28.2-22.5-39.1c19.4,1.3,33.1-1.7,34.5-6.6c6.4-1.7,12.9-3.1,14.8-11.2c10.9-2.8,13.2-8,14.3-13.4
		c2.9-1.9,12.4-7.4,11.4-16.7c5.4-3.8,8.4-8.6,6.8-15.4c5.8-6.4,7.3-11.7,4.8-16.5c6.9-8.7,3.8-13.2,0.9-17.8
		c5.2-9.5,0.6-19.8-13.9-18.1c-5.8-8.6-18.3-6.6-20.3-6.6c-2.2-2.8-5-5.1-13.9-4c-5.7-5.2-12.1-4.3-18.7-1.7
		c-7.8-6.2-13-1.2-18.9,0.6c-9.5-3.1-11.6,1.1-16.3,2.9c-10.3-2.2-13.5,2.6-18.4,7.6l-5.8-0.1c-15.6,9.2-23.3,27.9-26.1,37.5
		c-2.7-9.6-10.5-28.3-26.1-37.5l-5.8,0.1c-5-5-8.1-9.8-18.4-7.6c-4.7-1.7-6.8-6-16.3-2.9C184.5,95.9,181,93.3,176.8,93.4L176.8,93.4
		z M333.7,104.5c-2.2,2.7-5.2,5.3-2,8.4c4.4-2.8,8.9-5.6,19.4-7.6c-2.4,2.7-7.3,5.4-4.3,8c5.6-2.2,11.7-3.7,18.5-4.6
		c-3.3,2.7-6,5.4-3.3,7.5c5.9-1.9,14.1-4.4,22.1-2.2l-5.1,5.2c-0.6,0.7,11.8,0.5,20,0.7c-3,4.2-6,8.3-7.8,15.5
		c0.8,0.8,4.9,0.4,8.7,0c-3.9,8.4-10.7,10.5-12.3,14.1c2.4,1.8,5.7,1.4,9.4,0.1c-2.8,5.9-8.8,10-13.4,14.8c1.2,0.9,3.3,1.4,8.1,0.8
		c-4.3,4.7-9.6,8.9-15.7,12.8c1.1,1.3,4.9,1.2,8.4,1.3c-5.6,5.6-12.8,8.5-19.6,12.1c3.4,2.3,5.8,1.8,8.4,1.8
		c-4.8,4-12.9,6.1-20.5,8.5c1.4,2.3,2.9,2.9,5.9,3.5c-8,4.5-19.4,2.4-22.7,4.7c0.8,2.3,3,3.7,5.6,5c-12.9,0.8-48.1-0.5-54.8-27.5
		c13.2-14.7,37.2-32,78.6-53.3c-32.2,10.9-61.2,25.5-85.5,45.6c-28.6-13.5-8.9-47.6,5.1-61.1c0.7,3.6,1.5,5.8,2.4,6.5
		c4.5-4.9,8.2-10,14.1-14.8c0,2.8-1.4,5.8,2.1,8c3.1-4.3,7.4-8.1,13-11.3c-2.7,4.7-0.5,6.2,1,8.1
		C321.7,111.2,325.8,107.4,333.7,104.5L333.7,104.5z M177.3,104.5c7.9,2.9,12,6.7,16.3,10.5c1.5-2,3.7-3.4,1-8.2
		c5.6,3.2,9.9,7.1,13,11.3c3.5-2.2,2.1-5.2,2.1-8c5.8,4.8,9.6,9.8,14.1,14.8c0.9-0.7,1.7-2.9,2.4-6.5c13.9,13.5,33.6,47.6,5.1,61.1
		c-24.3-20-53.3-34.6-85.5-45.6c41.3,21.3,65.4,38.6,78.6,53.3c-2.3,9.4-8.1,15.6-15.2,19.8c-0.7,0.4-1.3,0.8-2,1.2
		c-13.1,6.8-29.7,7.1-37.7,6.6c2.6-1.2,4.8-2.7,5.6-5c-3.2-2.3-14.7-0.2-22.7-4.7c3.1-0.6,4.5-1.3,5.9-3.5
		c-7.6-2.4-15.7-4.5-20.5-8.5c2.6,0,5,0.6,8.4-1.8c-6.8-3.6-14-6.5-19.6-12.1c3.5-0.1,7.3,0,8.4-1.3c-6.2-3.8-11.4-8.1-15.7-12.8
		c4.9,0.6,7,0.1,8.2-0.8c-4.7-4.8-10.6-8.8-13.4-14.8c3.6,1.3,7,1.7,9.4-0.1c-1.6-3.6-8.4-5.7-12.3-14.1c3.8,0.4,7.9,0.8,8.7,0
		c-1.8-7.2-4.8-11.3-7.8-15.5c8.2-0.1,20.6,0,20-0.7l-5.1-5.2c8-2.2,16.2,0.3,22.1,2.2c2.7-2.1-0.1-4.8-3.3-7.5
		c6.8,0.9,12.9,2.5,18.5,4.6c3-2.7-1.9-5.4-4.3-8c10.5,2,14.9,4.8,19.4,7.6C182.5,109.8,179.5,107.2,177.3,104.5L177.3,104.5z
		 M252.9,231.4L252.9,231.4c31.7-0.1,57.5,25.4,57.7,57.1c0,0.2,0,0.4,0,0.5c0,32.1-25.6,57.7-57.7,57.6
		c-31.7,0.1-57.5-25.4-57.6-57.1c0-0.2,0-0.4,0-0.5C195.3,257,220.9,231.4,252.9,231.4L252.9,231.4z M108.4,264L108.4,264
		c14,0,25,11,25,25c0,14-11,25.1-25,25.1c-14,0-25-11-25-25.1C83.4,275,94.4,264,108.4,264L108.4,264z M396.7,264c14,0,25,11,25,25
		s-11,25.1-25,25.1c-14,0-25-11-25-25.1C371.7,275,382.7,264,396.7,264z"/>
</g>
</svg>
