<svg xmlns="http://www.w3.org/2000/svg" viewBox="0 0 1792 1792"><rect rx="279.90094" ry="279.89218" height="1791.3102" width="1791.3658" y=".45423824" x=".43064034" fill="#0082c9"/><path d="M849.81604 171.87247v569.22395q0 54.25415-31.57414 98.72477-31.57414 44.47063-82.27065 62.25887v692.85224q0 46.2495-33.79767 80.0471-33.79767 33.7977-80.04712 33.7977H508.28167q-46.24945 0-80.04712-33.7977-33.79767-33.7976-33.79767-80.0471V902.08006q-50.69651-17.78824-82.27065-62.25887-31.57414-44.47062-31.57414-98.72477V171.87247q0-23.12473 16.89884-40.02356 16.89883-16.89884 40.02356-16.89884 23.12472 0 40.02355 16.89884 16.89884 16.89883 16.89884 40.02356v369.99556q0 23.12473 16.89884 40.02356 16.89883 16.89884 40.02356 16.89884 23.12472 0 40.02355-16.89884 16.89884-16.89883 16.89884-40.02356V171.87247q0-23.12473 16.89884-40.02356 16.89883-16.89884 40.02356-16.89884 23.12472 0 40.02355 16.89884 16.89884 16.89883 16.89884 40.02356v369.99556q0 23.12473 16.89884 40.02356 16.89883 16.89884 40.02356 16.89884 23.12472 0 40.02355-16.89884 16.89884-16.89883 16.89884-40.02356V171.87247q0-23.12473 16.89884-40.02356 16.89883-16.89884 40.02356-16.89884 23.12472 0 40.02355 16.89884 16.89884 16.89883 16.89884 40.02356zm683.06876 0V1594.9323q0 46.2495-33.7977 80.0471-33.7976 33.7977-80.0471 33.7977h-113.8448q-46.2494 0-80.0471-33.7977-33.7977-33.7976-33.7977-80.0471v-455.3791H992.12198q-11.5623 0-20.0117-8.4495-8.4494-8.4494-8.4494-20.0117V399.56205q0-117.40244 83.60472-201.00721 83.6048-83.60477 201.0072-83.60477h227.6896q23.1247 0 40.0236 16.89884 16.8988 16.89883 16.8988 40.02356z" fill="#fff"/></svg>