<svg xmlns="http://www.w3.org/2000/svg" viewBox="0 0 1792 1792"><rect width="1791.366" height="1791.31" x=".431" y=".454" fill="#0082c9" rx="279.901" ry="279.892"/><path fill="#fff" d="M849.816 171.872v569.224q0 54.255-31.574 98.725-31.574 44.47-82.27 62.26v692.851q0 46.25-33.798 80.047-33.798 33.798-80.048 33.798H508.282q-46.25 0-80.047-33.798-33.798-33.797-33.798-80.047V902.08q-50.697-17.788-82.27-62.259-31.575-44.47-31.575-98.725V171.872q0-23.124 16.899-40.023 16.899-16.899 40.023-16.899 23.125 0 40.024 16.899t16.899 40.023v369.996q0 23.125 16.899 40.024 16.899 16.898 40.023 16.898 23.125 0 40.024-16.898 16.899-16.9 16.899-40.024V171.872q0-23.124 16.899-40.023 16.898-16.899 40.023-16.899 23.125 0 40.024 16.899 16.898 16.899 16.898 40.023v369.996q0 23.125 16.9 40.024 16.898 16.898 40.023 16.898 23.125 0 40.023-16.898 16.9-16.9 16.9-40.024V171.872q0-23.124 16.898-40.023 16.899-16.899 40.024-16.899 23.124 0 40.023 16.899 16.899 16.899 16.899 40.023zm683.069 0v1423.06q0 46.25-33.798 80.047-33.798 33.798-80.047 33.798h-113.845q-46.25 0-80.047-33.798-33.798-33.797-33.798-80.047v-455.379H992.122q-11.562 0-20.012-8.45-8.45-8.449-8.45-20.011v-711.53q0-117.402 83.606-201.007 83.604-83.605 201.007-83.605h227.69q23.124 0 40.023 16.899 16.899 16.899 16.899 40.023z"/></svg>