<?xml version="1.0" encoding="utf-8"?>
<!-- Generator: Adobe Illustrator 27.7.0, SVG Export Plug-In . SVG Version: 6.00 Build 0)  -->
<svg version="1.1" id="Layer_1" xmlns="http://www.w3.org/2000/svg" xmlns:xlink="http://www.w3.org/1999/xlink" x="0px" y="0px"
	 viewBox="0 0 512 512" style="enable-background:new 0 0 512 512;" xml:space="preserve">
<style type="text/css">
	.st0{fill:#3180C7;}
</style>
<g>
	<g>
		<path class="st0" d="M20.7,2.6c-10,0-18.1,8.1-18.1,18.1v36.2c0,10,8.1,18.1,18.1,18.1h470.7c10,0,18.1-8.1,18.1-18.1V20.7
			c0-10-8.1-18.1-18.1-18.1H20.7z M20.7,147.4c-10,0-18.1,8.1-18.1,18.1v36.2c0,10,8.1,18.1,18.1,18.1h325.9
			c10,0,18.1-8.1,18.1-18.1v-36.2c0-10-8.1-18.1-18.1-18.1H20.7z M20.7,292.2c-10,0-18.1,8.1-18.1,18.1v36.2
			c0,10,8.1,18.1,18.1,18.1h434.5c10,0,18.1-8.1,18.1-18.1v-36.2c0-10-8.1-18.1-18.1-18.1H20.7z M20.7,437c-10,0-18.1,8.1-18.1,18.1
			v36.2c0,10,8.1,18.1,18.1,18.1h217.2c10,0,18.1-8.1,18.1-18.1v-36.2c0-10-8.1-18.1-18.1-18.1H20.7z"/>
	</g>
</g>
</svg>
