<svg xmlns="http://www.w3.org/2000/svg" xmlns:svg="http://www.w3.org/2000/svg" xmlns:xlink="http://www.w3.org/1999/xlink" id="svg4551" x="0" y="0" version="1.1" viewBox="0 0 32 32" style="enable-background:new 0 0 32 32" xml:space="preserve"><style type="text/css">.st0{fill:#0082c9}.st1{fill:#fff}</style><g><path d="M5,0h22c2.8,0,5,2.2,5,5v22c0,2.8-2.2,5-5,5H5c-2.8,0-5-2.2-5-5V5C0,2.2,2.2,0,5,0z" class="st0"/><path d="M3.8,3.2c-0.5,0-0.9,0.4-0.9,0.9v1.8c0,0.5,0.4,0.9,0.9,0.9h24c0.5,0,0.9-0.4,0.9-0.9V4.1 c0-0.5-0.4-0.9-0.9-0.9H3.8z M3.8,10.5c-0.5,0-0.9,0.4-0.9,0.9v1.8c0,0.5,0.4,0.9,0.9,0.9h16.6c0.5,0,0.9-0.4,0.9-0.9v-1.8 c0-0.5-0.4-0.9-0.9-0.9H3.8z M3.8,17.9c-0.5,0-0.9,0.4-0.9,0.9v1.8c0,0.5,0.4,0.9,0.9,0.9h22.1c0.5,0,0.9-0.4,0.9-0.9v-1.8 c0-0.5-0.4-0.9-0.9-0.9H3.8z M3.8,25.3c-0.5,0-0.9,0.4-0.9,0.9V28c0,0.5,0.4,0.9,0.9,0.9h11.1c0.5,0,0.9-0.4,0.9-0.9v-1.8 c0-0.5-0.4-0.9-0.9-0.9H3.8z" class="st1"/></g></svg>