<svg xmlns="http://www.w3.org/2000/svg" xmlns:xlink="http://www.w3.org/1999/xlink" x="0" y="0" version="1.1" viewBox="0 0 32 32" style="enable-background:new 0 0 32 32" xml:space="preserve"><style type="text/css">.st0{fill:#0082c9}.st1{fill-rule:evenodd;clip-rule:evenodd;fill:#fff}</style><g id="icon"><g><path d="M5,0h22c2.8,0,5,2.2,5,5v22c0,2.8-2.2,5-5,5H5c-2.8,0-5-2.2-5-5V5C0,2.2,2.2,0,5,0z" class="st0"/><path d="M16,2.8c7.3,0,13.2,5.9,13.2,13.2c0,7.3-5.9,13.2-13.2,13.2C8.7,29.2,2.8,23.3,2.8,16C2.8,8.7,8.7,2.8,16,2.8 z M16,5.6c5.8,0,10.4,4.7,10.4,10.4c0,5.8-4.7,10.4-10.4,10.4c-5.8,0-10.4-4.7-10.4-10.4C5.6,10.2,10.2,5.6,16,5.6z" class="st1"/><path d="M16,6.3c0,0-1.8,8.1-1.8,11.6c0,1,0.8,1.8,1.8,1.8c1,0,1.8-0.8,1.8-1.8C17.8,14.4,16,6.3,16,6.3z" class="st1"/></g></g></svg>