<?xml version="1.0" encoding="utf-8"?>
<!-- Generator: Adobe Illustrator 27.8.1, SVG Export Plug-In . SVG Version: 6.00 Build 0)  -->
<svg version="1.1" id="Layer_1" xmlns="http://www.w3.org/2000/svg" xmlns:xlink="http://www.w3.org/1999/xlink" x="0px" y="0px"
	 viewBox="0 0 24 24.1" style="enable-background:new 0 0 24 24.1;" xml:space="preserve">
<style type="text/css">
	.st0{fill:#FFFFFF;}
	.st1{fill:#0082C9;}
</style>
<g id="background_00000111175435915713341120000014326408812888875660_">
	<path class="st0" d="M3.8,0h16.5c2,0,3.7,1.7,3.7,3.8v16.5c0,2.1-1.7,3.8-3.8,3.8H3.8C1.7,24,0,22.3,0,20.2V3.8C0,1.7,1.7,0,3.8,0z
		"/>
</g>
<g id="logo">
	<path class="st1" d="M12,7.3c-2.2,0-4,1.5-4.5,3.5C7,9.7,5.9,8.9,4.7,8.9C3,8.9,1.6,10.3,1.6,12s1.4,3.1,3.1,3.1
		c1.2,0,2.3-0.8,2.8-1.8c0.6,2,2.4,3.5,4.5,3.5s4-1.5,4.5-3.4c0.5,1,1.5,1.8,2.8,1.8c1.7,0,3.1-1.4,3.1-3.1S21,9,19.3,9
		c-1.2,0-2.3,0.7-2.8,1.8C16,8.7,14.2,7.3,12,7.3L12,7.3z M12,9.1c1.6,0,2.9,1.3,2.9,2.9s-1.3,2.9-2.9,2.9S9.1,13.6,9.1,12l0,0
		C9.1,10.4,10.4,9.1,12,9.1z M4.7,10.7C5.4,10.7,6,11.3,6,12s-0.6,1.3-1.3,1.3s-1.3-0.5-1.3-1.2l0,0C3.4,11.3,4,10.7,4.7,10.7
		L4.7,10.7z M19.3,10.7c0.7,0,1.3,0.6,1.3,1.3s-0.6,1.3-1.3,1.3c-0.7,0-1.3-0.5-1.3-1.2l0,0C18,11.3,18.6,10.7,19.3,10.7L19.3,10.7z
		"/>
</g>
</svg>
