<?xml version="1.0" encoding="utf-8"?>
<!-- Generator: Adobe Illustrator 27.8.1, SVG Export Plug-In . SVG Version: 6.00 Build 0)  -->
<svg version="1.1" id="Layer_1" xmlns="http://www.w3.org/2000/svg" xmlns:xlink="http://www.w3.org/1999/xlink" x="0px" y="0px"
	 viewBox="0 0 32 32" style="enable-background:new 0 0 32 32;" xml:space="preserve">
<style type="text/css">
	.st0{fill:#0082C9;}
	.st1{fill:#FFFFFF;}
</style>
<path id="background" class="st0" d="M5,0h22c2.8,0,5,2.2,5,5v22c0,2.8-2.2,5-5,5H5c-2.8,0-5-2.2-5-5V5C0,2.2,2.2,0,5,0z"/>
<path id="logo" class="st1" d="M13.5,6.1H6.1c-1.4,0-2.5,1.1-2.5,2.5v14.9c0,1.4,1.1,2.5,2.5,2.5h19.9c1.4,0,2.5-1.1,2.5-2.5V11
	c0-1.4-1.1-2.5-2.5-2.5H16L13.5,6.1z"/>
</svg>
