<svg xmlns="http://www.w3.org/2000/svg" xml:space="preserve" width="32" height="32"><rect width="32" height="32" fill="#0082c9" rx="5" ry="5"/><path fill="#fff" d="M8.86 3c-.99 0-1.786.796-1.786 1.786v3.571c0 .99.797 1.786 1.786 1.786s1.786-.797 1.786-1.786V4.786C10.646 3.796 9.849 3 8.86 3zm14.286 0c-.99 0-1.786.796-1.786 1.786v3.571c0 .99.797 1.786 1.786 1.786s1.786-.797 1.786-1.786V4.786c0-.99-.797-1.786-1.786-1.786zM11.539 6.571v1.786c0 1.484-1.195 2.679-2.679 2.679S6.182 9.84 6.182 8.357V6.683a3.565 3.565 0 0 0-2.679 3.46v14.286A3.564 3.564 0 0 0 7.074 28h17.858a3.564 3.564 0 0 0 3.571-3.571V10.143a3.565 3.565 0 0 0-2.679-3.46v1.674c0 1.484-1.194 2.679-2.678 2.679s-2.679-1.195-2.679-2.679V6.571H11.54zm-5.274 8.036H25.74a.08.08 0 0 1 .084.084v10.546a.08.08 0 0 1-.084.084H6.265a.08.08 0 0 1-.083-.084V14.691a.08.08 0 0 1 .083-.084z"/></svg>