<!DOCTYPE svg PUBLIC "-//W3C//DTD SVG 1.1//EN" "http://www.w3.org/Graphics/SVG/1.1/DTD/svg11.dtd">
<svg width="32px" height="32px" enable-background="new 0 0 32 32" version="1.1" viewBox="0 0 32 32" xml:space="preserve" xmlns="http://www.w3.org/2000/svg">
<path d="M5,0h22c2.762,0,5,2.239,5,5v22c0,2.762-2.238,5-5,5H5c-2.761,0-5-2.238-5-5V5C0,2.239,2.239,0,5,0z" fill="#0082C9"/>
<path d="m13.958 27.497s0.248-0.685 0.538-1.308c4.692-10.104 10.719-16.759 13.393-19.78 2.164-2.447 1.317-2.062 0.358-1.438-3.91 2.543-11.228 10.715-14.024 13.546-0.518 0.521-1.691 1.754-1.956 1.754-0.299 0-1.298-0.461-1.869-0.797-2.182-1.279-4.269-2.527-5.578-2.999-2.789-1.003-2-0.05-1.841 0.269 0.498 0.996 7.233 6.396 9.464 8.944 0.691 0.791 1.515 1.809 1.515 1.809z" fill="#fff" stroke="#fff" stroke-miterlimit="10" stroke-width=".75"/>
</svg>