<?xml version="1.0" encoding="utf-8"?>
<!-- Generator: Adobe Illustrator 27.8.1, SVG Export Plug-In . SVG Version: 6.00 Build 0)  -->
<svg version="1.1" id="Layer_1" xmlns="http://www.w3.org/2000/svg" xmlns:xlink="http://www.w3.org/1999/xlink" x="0px" y="0px"
	 viewBox="0 0 32 32" style="enable-background:new 0 0 32 32;" xml:space="preserve">
<style type="text/css">
	.st0{fill:#0082C9;}
	.st1{fill:#FFFFFF;}
</style>
<g>
	<path class="st0" d="M5,0h22c2.8,0,5,2.2,5,5v22c0,2.8-2.2,5-5,5H5c-2.8,0-5-2.2-5-5V5C0,2.2,2.2,0,5,0z"/>
	<path class="st1" d="M5.1,14.2h21.7c1,0,1.8,0.8,1.8,1.8v10.9c0,1-0.8,1.8-1.8,1.8H5.1c-1,0-1.8-0.8-1.8-1.8V16
		C3.3,15,4.1,14.2,5.1,14.2z"/>
	<path class="st1" d="M6,10.6H26c0.5,0,0.9,0.4,0.9,0.9s-0.4,0.9-0.9,0.9H6c-0.5,0-0.9-0.4-0.9-0.9S5.5,10.6,6,10.6z"/>
	<path class="st1" d="M7.9,7h16.3C24.6,7,25,7.4,25,7.9s-0.4,0.9-0.9,0.9H7.9C7.4,8.8,7,8.4,7,7.9S7.4,7,7.9,7z"/>
	<path class="st1" d="M9.7,3.3h12.7c0.5,0,0.9,0.4,0.9,0.9s-0.4,0.9-0.9,0.9H9.7c-0.5,0-0.9-0.4-0.9-0.9S9.2,3.3,9.7,3.3z"/>
</g>
</svg>
