<svg xmlns="http://www.w3.org/2000/svg" xmlns:xlink="http://www.w3.org/1999/xlink" version="1.1" id="Layer_1" x="0px" y="0px" style="enable-background:new 0 0 512 512;" xml:space="preserve" viewBox="33.9 0 444.2 512">
<style type="text/css">
	.st0{fill-rule:evenodd;clip-rule:evenodd;fill:#FAA42F;}
	.st1{fill-rule:evenodd;clip-rule:evenodd;fill:#DDB02A;}
	.st2{fill-rule:evenodd;clip-rule:evenodd;fill:#C47728;}
	.st3{fill-rule:evenodd;clip-rule:evenodd;fill:#F15933;}
	.st4{fill-rule:evenodd;clip-rule:evenodd;fill:#F37132;}
	.st5{fill-rule:evenodd;clip-rule:evenodd;fill:#D6E042;}
	.st6{fill-rule:evenodd;clip-rule:evenodd;fill:#FCEA3B;}
	.st7{fill-rule:evenodd;clip-rule:evenodd;fill:#E22574;}
	.st8{fill-rule:evenodd;clip-rule:evenodd;fill:#EF3839;}
	.st9{fill-rule:evenodd;clip-rule:evenodd;fill:#BBD64B;}
	.st10{fill-rule:evenodd;clip-rule:evenodd;fill:#FFCF29;}
	.st11{fill-rule:evenodd;clip-rule:evenodd;fill:#EE438D;}
	.st12{fill-rule:evenodd;clip-rule:evenodd;fill:#CC3192;}
	.st13{fill-rule:evenodd;clip-rule:evenodd;fill:#BD2025;}
	.st14{fill-rule:evenodd;clip-rule:evenodd;fill:#9B3995;}
	.st15{fill-rule:evenodd;clip-rule:evenodd;fill:#F1EB59;}
	.st16{fill-rule:evenodd;clip-rule:evenodd;fill:#F7975F;}
	.st17{fill-rule:evenodd;clip-rule:evenodd;fill:#D31F26;}
	.st18{fill-rule:evenodd;clip-rule:evenodd;fill:#73206A;}
	.st19{fill-rule:evenodd;clip-rule:evenodd;fill:#853A96;}
	.st20{fill-rule:evenodd;clip-rule:evenodd;fill:#D98A26;}
	.st21{fill-rule:evenodd;clip-rule:evenodd;fill:#8F4F9F;}
	.st22{fill-rule:evenodd;clip-rule:evenodd;fill:#D24B9B;}
	.st23{fill-rule:evenodd;clip-rule:evenodd;fill:#B263A7;}
	.st24{fill-rule:evenodd;clip-rule:evenodd;fill:#6B297A;}
	.st25{fill-rule:evenodd;clip-rule:evenodd;fill:#782A8F;}
	.st26{fill-rule:evenodd;clip-rule:evenodd;fill:#A01664;}
	.st27{fill-rule:evenodd;clip-rule:evenodd;fill:#C02026;}
	.st28{fill-rule:evenodd;clip-rule:evenodd;fill:#9051A0;}
	.st29{fill-rule:evenodd;clip-rule:evenodd;fill:#B01B4A;}
	.st30{fill-rule:evenodd;clip-rule:evenodd;fill:#C54627;}
	.st31{fill-rule:evenodd;clip-rule:evenodd;fill:#A41768;}
	.st32{fill-rule:evenodd;clip-rule:evenodd;fill:#D1499A;}
	.st33{fill-rule:evenodd;clip-rule:evenodd;fill:#85459A;}
	.st34{fill-rule:evenodd;clip-rule:evenodd;fill:#EE3F8A;}
	.st35{fill-rule:evenodd;clip-rule:evenodd;fill:#F4805F;}
	.st36{fill-rule:evenodd;clip-rule:evenodd;fill:#552263;}
</style>
<g>
	<path class="st0" d="M35.7,383.1l-1.8-0.9v1.8l1.8,0.9V383.1z"/>
	<path class="st1" d="M35.7,319.1v-31.7l-1.8-0.9v33.8L35.7,319.1z"/>
	<path class="st2" d="M57.7,331.9l-22-12.8l-1.8,1.2v61.9l1.8,0.9l22-12.8V331.9z"/>
	<path class="st3" d="M91,414.8l27.5,16.1v1.8L89.2,416L91,414.8z"/>
	<path class="st4" d="M57.7,370.3l-22,12.8v1.8L89.2,416l1.8-1.2v-25.3L57.7,370.3z"/>
	<path class="st5" d="M35.7,223.7v-32l-1.8-0.9v33.8L35.7,223.7z"/>
	<path class="st6" d="M33.9,286.5l1.8,0.9l19.2-11c-0.9-6.8-1.3-13.6-1.2-20.4c0-7,0.6-14.3,1.2-21.3l-19.2-11l-1.8,0.9L33.9,286.5z   "/>
	<path class="st0" d="M35.7,319.4l22,12.5L91,313v-25.6l-16.2-9.5c0.3,4.6,1.2,9.1,2.1,13.7L59.2,302c-2.2-8.4-3.6-17-4.3-25.6   l-19.2,11V319.4z"/>
	<path class="st3" d="M91,414.8v-25.3l8.9-5.2l-0.3-0.3c4.3,5.2,8.9,10,13.4,14.6c7.7,7.7,15.9,14.7,24.7,21l-19.2,11.3L91,414.8z    M123.9,370.3l22.3,12.8v18.6c-6.9-5-13.3-10.6-19.2-16.8c-3.6-3.3-7-6.9-10.1-10.7L123.9,370.3z"/>
	<path class="st7" d="M201.5,478.5l-27.8-15.8l-1.5,0.9l29.3,17.1V478.5z"/>
	<path class="st8" d="M172.2,463.6l1.5-0.9v-22.3c-12.7-5.6-24.8-12.5-36-20.7L118.4,431v1.8L172.2,463.6z"/>
	<path class="st9" d="M35.7,128v-0.9l-1.8,0.9v0.9L35.7,128z"/>
	<path class="st5" d="M63.2,143.9L35.7,128l-1.8,0.9v61.9l1.8,0.9l27.5-15.9L63.2,143.9z"/>
	<path class="st10" d="M35.7,223.7l19.2,11c2.1-19,6.8-37.7,14-55.4l-5.8-3.3l-27.5,15.9V223.7z M74.8,232.8l16.2-9.1v-32l-4.9-2.8   C80.5,203,76.7,217.8,74.8,232.8L74.8,232.8z"/>
	<path class="st0" d="M74.8,277.9l16.2,9.5l27.5-15.9v-32L91,223.7l-16.2,9.1c-1,7.7-1.5,15.4-1.5,23.2   C73.3,263.3,73.8,270.7,74.8,277.9L74.8,277.9z"/>
	<path class="st3" d="M173.7,338.6v28.3l-27.5,16.2l-22.3-12.8v-38.4l19.2-11L173.7,338.6z"/>
	<path class="st11" d="M173.7,462.7l27.8,15.8l27.8-15.8v-6.4c-19.5-2.7-38.2-7.9-55.6-15.9V462.7z M229.3,436.5V431l-27.8-16.1   l-16.2,9.4C199.4,430.3,214.2,434.3,229.3,436.5L229.3,436.5z"/>
	<path class="st4" d="M118.5,271.5L91,287.4V313l33,18.9l19.2-11v-35.3L118.5,271.5z"/>
	<path class="st12" d="M229.3,462.6l-27.8,15.8v2.1l53.4,30.8l1.8-0.9v-32L229.3,462.6z"/>
	<path class="st13" d="M185.3,424.3l16.2-9.4v-31.7L173.7,367l-27.5,16.2v18.6C158.2,410.9,171.3,418.5,185.3,424.3L185.3,424.3z"/>
	<path class="st14" d="M256.7,510.5l-1.8,0.9l1.2,0.6l1.5-0.9L256.7,510.5z"/>
	<path class="st15" d="M91,96l-0.9-0.3l-54.3,31.4v0.9l27.5,15.9L91,128V96z"/>
	<path class="st6" d="M63.2,175.9l5.8,3.3c7-17.4,16.5-33.2,27.8-47.9L91,128l-27.8,15.9L63.2,175.9z M86.1,188.9l4.9,2.8l27.5-15.8   v-32l-4.6-2.4C102.3,155.8,93,171.8,86.1,188.9L86.1,188.9z"/>
	<path class="st0" d="M143.2,225.2v-34.1l0.9-0.6l-25.6-14.6L91,191.7v32l27.5,15.8L143.2,225.2z"/>
	<path class="st7" d="M256.7,414.8v-29.3l-0.6,0.3l-29.9-17.1l-24.7,14.3v31.7l27.8,16.1L256.7,414.8z"/>
	<path class="st16" d="M143.2,285.6v-60.3l-24.7,14.3v32L143.2,285.6z"/>
	<path class="st12" d="M229.3,462.6l27.5,15.8l27.8-15.8v-6.7c-9.4,1.2-18.9,1.8-28.4,1.8c-9,0-17.9-0.5-26.9-1.5V462.6z    M284.5,436.1v-5.2l-27.8-16.1l-27.5,16.1v5.5c8.9,1.2,17.9,1.8,26.9,1.8C265.6,438.3,275.1,437.6,284.5,436.1L284.5,436.1z"/>
	<path class="st17" d="M201.5,383.1l24.7-14.3l-52.5-30.2V367L201.5,383.1z"/>
	<path class="st18" d="M312,478.5l-27.5-15.8l-27.8,15.8v32l0.9,0.6l54.3-31.4V478.5z"/>
	<path class="st5" d="M91,96l27.5-15.9v-0.9L90.1,95.7L91,96z"/>
	<path class="st10" d="M91,128l5.8,3.3c5.2-6.4,10.7-12.2,16.2-18c7.9-7.9,16.5-15.2,25.6-21.6l-20.2-11.6L91,96V128z M113.9,141.4   l4.6,2.5l27.8-15.9v-17.7c-6.9,5-13.3,10.6-19.2,16.8C122.4,131.7,118.1,136.2,113.9,141.4L113.9,141.4z"/>
	<path class="st0" d="M173.7,143.9L146.2,128l-27.8,15.9v32l25.6,14.6l29.6-17.1V143.9z"/>
	<path class="st19" d="M339.8,462.7L312,478.5v1.2l28.7-16.5L339.8,462.7z"/>
	<path class="st12" d="M312,383.1l-25.3-14.9l-29.9,17.4v29.3l27.8,16.1l27.5-16.1L312,383.1z"/>
	<path class="st14" d="M284.5,462.6l27.5,15.8l27.8-15.8v-22.9c-17.6,8-36.2,13.4-55.3,16.2V462.6z M327.6,423.9l-15.6-9.1   l-27.5,16.1v5.2C299.5,433.7,314.1,429.7,327.6,423.9z"/>
	<path class="st10" d="M118.4,80.1l20.2,11.6c11-7.9,22.8-14.6,35.1-20.1V48.1l-0.6-0.3l-54.6,31.4L118.4,80.1z"/>
	<path class="st20" d="M146.2,128l27.5,15.9l27.8-15.9V96l-15-8.5c-14.7,5.8-28.1,13.7-40.3,22.9L146.2,128z"/>
	<path class="st21" d="M339.8,462.7l0.9,0.6l54.3-31.4V431l-20.2-11.6c-11,7.9-22.8,14.8-35.1,20.4L339.8,462.7z"/>
	<path class="st4" d="M201.5,128l-27.8,15.9v29.6l53.4-30.8L201.5,128z"/>
	<path class="st22" d="M312,383.1l27.8-16.2v-29.3l-53.1,30.5L312,383.1z"/>
	<path class="st23" d="M312,414.8l15.6,9.1c14.2-6,27.6-13.9,39.7-23.5v-17.4l-27.5-16.2L312,383.1L312,414.8z"/>
	<path class="st10" d="M173.7,48.1l27.8-15.9v-0.9l-28.4,16.5L173.7,48.1z"/>
	<path class="st0" d="M186.5,87.5l15,8.5l22.3-12.5v-7l1.2-0.3C211.8,78.5,198.9,82.3,186.5,87.5z M223.7,45.1l-22.3-12.8   l-27.8,15.9v23.5c16-7,32.8-12,50-14.9L223.7,45.1z"/>
	<path class="st24" d="M374.9,419.4l20.2,11.6l27.8-16.1v-25.3l-33.3-19.2l-22.3,12.8v17.4c3.7-2.4,6.7-5.2,10.1-7.9l17.7,10.1   C388.7,408.6,381.9,414.2,374.9,419.4L374.9,419.4z"/>
	<path class="st25" d="M422.8,414.8L395,430.9v0.9l28.7-16.5L422.8,414.8z"/>
	<path class="st4" d="M256.1,126.2l0.6,0.3v-24.1l-33-18.9L201.5,96v32l25.7,14.6L256.1,126.2z"/>
	<path class="st14" d="M389.5,370.3v-38.4L368.8,320v0.9l-29,16.8v29.3l27.5,16.2L389.5,370.3z"/>
	<path class="st0" d="M256.7,25.9V0.6L256.1,0l-54.6,31.4v0.9l22.3,12.8L256.7,25.9z"/>
	<path class="st3" d="M256.7,102.4L290,83.5L312,96v32l-26.3,15.2l-29-16.8L256.7,102.4z"/>
	<path class="st25" d="M478.1,383.1l-22.3-12.8l-33,19.2v25.3l0.9,0.6l54.3-31.4L478.1,383.1z"/>
	<path class="st26" d="M395.1,271.6v-32l-26.3-15.2v62.2L395.1,271.6z"/>
	<path class="st27" d="M339.8,143.9L312,128l-26.3,15.2l54,31.1V143.9z"/>
	<path class="st14" d="M422.8,313v-25.6L395,271.5l-26.2,14.9V320l20.7,11.9L422.8,313z"/>
	<path class="st3" d="M290,45.1l22-12.8l27.8,15.9v24.1c-8.3-3.8-16.9-6.9-25.7-9.5v20.4c4.3,1.2,8.5,2.8,12.5,4.6L312,96l-22-12.5   V45.1z"/>
	<path class="st28" d="M426.5,321.2c0.6-0.9,1-2,1.2-3.1C427.5,319.3,427.1,320.3,426.5,321.2z M428.3,317   c4.4-12.3,7.3-25.1,8.9-38.1l-14.4,8.5V313l5.8,3.4L428.3,317z M455.8,331.9l22.3-12.8v-31.7l-20.8-11.9   c-1.7,17.5-5.8,34.7-11.9,51.2l0.3-0.6L455.8,331.9z"/>
	<path class="st29" d="M367.3,128l-27.5,15.9v30.5l28.7,16.8l26.6-15.2v-32L367.3,128z"/>
	<path class="st30" d="M312,32.3L256.8,0.6v25.3L290,45.1L312,32.3z"/>
	<path class="st31" d="M422.9,223.7v-32l-27.8-15.8l-26.6,15.2h0.3v33.2l26.3,15.2L422.9,223.7z"/>
	<path class="st8" d="M312,128l27.8,15.9l27.5-15.9v-16.5c-12.4-9.8-26-17.8-40.6-23.8L312,96L312,128z"/>
	<path class="st14" d="M395,271.5l27.8,15.9l14.3-8.5c1-7.6,1.5-15.2,1.5-22.9c0-8-0.6-16.1-1.5-24.1l-14.4-8.2L395,239.5L395,271.5   z"/>
	<path class="st24" d="M457.3,275.5l20.8,11.9v-63.7L457,235.6c0.9,6.8,1.3,13.6,1.2,20.4C458.2,262.7,457.9,269.1,457.3,275.5   L457.3,275.5z"/>
	<path class="st7" d="M367.2,128l27.8,15.9l3.4-1.8c-4-5.3-8.4-10.2-13.1-14.9c-5.7-5.5-11.7-10.7-18-15.5V128z M415.5,132l7.3-4V96   L395,80.1l-20.7,12.2c8.8,6.3,17.1,13.4,24.7,21C404.8,119.3,410.3,125.5,415.5,132L415.5,132z"/>
	<path class="st25" d="M478.1,287.4v32V287.4z"/>
	<path class="st12" d="M395,175.9l27.8,15.9l3.3-1.8c-6.6-17.3-16-33.5-27.8-47.8l-3.3,1.8V175.9z M443.3,179.8l7-4v-32L422.8,128   l-7.3,4C426.8,146.6,436.2,162.7,443.3,179.8L443.3,179.8z"/>
	<path class="st8" d="M374.3,92.3L395,80.1l-55.3-32v24.1C351.9,77.7,363.5,84.5,374.3,92.3z"/>
	<path class="st23" d="M422.8,223.7l14.4,8.2c-2-14.4-5.7-28.5-11-42.1l-3.4,1.8L422.8,223.7z M457,235.6l21.1-11.9v-32l-27.8-15.9   l-7,4C450.3,197.5,455.2,216.1,457,235.6L457,235.6z"/>
	<path class="st32" d="M450.3,143.9l27.8-15.9l-55.3-32v32L450.3,143.9z"/>
	<path class="st14" d="M450.3,143.9v32l27.8,15.9V128L450.3,143.9z"/>
	<path class="st33" d="M478.1,319.1l-22.3,12.8v38.4l22.3,12.8v-63.7V319.1z"/>
	<path class="st3" d="M201.5,287.4v3.1l-2.7-1.5v-3L201.5,287.4z"/>
	<path class="st3" d="M229.3,271.5l-27.8,15.9l-2.7-1.5v-60.7l2.7-1.5l27.8,15.8V271.5z"/>
	<path class="st7" d="M256.7,319.1l-2.8,1.8l2.1,1.2l2.8-1.8L256.7,319.1z"/>
	<path class="st8" d="M229.3,271.5l-27.8,15.9v3.1l52.5,30.5l2.8-1.8v-31.7L229.3,271.5z"/>
	<path class="st34" d="M312,287.4l-27.5-15.8l-27.8,15.8v31.7l2.1,1.2l53.1-30.8L312,287.4z"/>
	<path class="st8" d="M284.5,239.5l-27.8-15.8l-27.5,15.8v32l27.5,15.9l27.8-15.9V239.5z"/>
	<path class="st7" d="M313.2,224.3l-1.2-0.6l-27.5,15.8v32l27.5,15.9l1.2-0.6V224.3z"/>
	<path class="st12" d="M312,287.4v2.1l1.2-0.6v-2.1L312,287.4z"/>
	<path class="st4" d="M201.5,223.7v-2.1l-2.7,1.5v2.1L201.5,223.7z"/>
	<path class="st3" d="M256.7,191.7v32l-27.5,15.8l-27.8-15.8v-2.1l53.4-30.8L256.7,191.7z"/>
	<path class="st35" d="M256.8,191.7l-1.8-0.9l1.2-0.6l1.8,0.9L256.8,191.7z"/>
	<path class="st8" d="M312,222.5l-54-31.4l-1.2,0.6v32l27.8,15.8l27.5-15.8V222.5z"/>
	<path class="st7" d="M313.2,224.3v-1.2l-1.2-0.6v1.2L313.2,224.3z"/>
	<path class="st4" d="M275.7,53.3l-18.9-11l-18.9,11v21.9l18.9,11l18.9-11V53.3z"/>
	<path class="st36" d="M441.8,340.1l-18.9-11l-19.2,11v21.9l19.2,11l18.9-11V340.1z"/>
	<path class="st4" d="M109.9,340.1l-18.9-11l-18.9,11v22L91,373l18.9-11L109.9,340.1z"/>
</g>
</svg>