<svg xmlns="http://www.w3.org/2000/svg" xmlns:xlink="http://www.w3.org/1999/xlink" version="1.1" id="Layer_1" x="0px" y="0px" style="enable-background:new 0 0 512 512;" xml:space="preserve" viewBox="31.76 0 448.51 512">
<style type="text/css">
	.st0{fill:#019639;}
	.st1{fill:#FFFFFF;}
</style>
<g>
	<path class="st0" d="M255,0h1.2c6.1,2.9,12,6.1,17.8,9.7c66.2,38.1,132.4,76.1,198.6,114.2c5.2,2.8,8.2,8.5,7.6,14.4   c-0.1,80.3,0,160.5-0.1,240.7c-0.9,3.8-3.2,7.2-6.5,9.3c-70.4,40.5-140.8,81-211.2,121.5c-3.5,2.7-8.2,2.9-12,0.7   C179.9,470.1,109.5,429.6,39.1,389c-4.7-2.2-7.6-7-7.3-12.2c0-80.2,0-160.5,0-240.7c-0.4-5.1,2.4-10,7.1-12.3   C105,85.9,171.1,47.8,237.2,9.8C243.1,6.4,248.9,2.9,255,0"/>
	<path class="st1" d="M123.7,156.1c0,66.2,0,132.4,0,198.6c-0.2,7.4,2.6,14.6,7.8,19.9c10.1,10,25.8,11.5,37.7,3.8   c7.8-5.3,12.5-14.2,12.5-23.6c0-47.9-0.1-95.8,0-143.7c43.7,52.3,87.5,104.5,131.3,156.7c12.4,12.5,30.3,17.9,47.5,14.3   c12.3-2.4,21.6-12.6,22.9-25.1c0.1-67.6,0.1-135.1,0-202.6c-1.4-15.9-15.4-27.7-31.3-26.3c-14,1.2-25.1,12.3-26.3,26.3   c0,48.7-0.3,97.3,0,146c-42.9-50.6-85.3-101.6-128-152.4c-11.5-14.7-30-22.1-48.4-19.2C135.2,130.2,124.3,141.9,123.7,156.1z"/>
</g>
</svg>