<?xml version="1.0" encoding="utf-8"?>
<!-- Generator: Adobe Illustrator 27.7.0, SVG Export Plug-In . SVG Version: 6.00 Build 0)  -->
<svg version="1.1" id="Layer_1" xmlns="http://www.w3.org/2000/svg" xmlns:xlink="http://www.w3.org/1999/xlink" x="0px" y="0px"
	 viewBox="0 0 512 512" style="enable-background:new 0 0 512 512;" xml:space="preserve">
<style type="text/css">
	.st0{fill:#DD2F28;}
	.st1{fill:#FFFFFF;}
</style>
<path class="st0" d="M432.5,512h-353C35.6,512,0,476.4,0,432.5v-353C0,35.6,35.6,0,79.5,0h353C476.4,0,512,35.6,512,79.5v353
	C512,476.4,476.4,512,432.5,512z"/>
<g transform="translate(0.000000,900.000000) scale(0.100000,-0.100000)">
	<path class="st1" d="M1462.3,8347.3c-382.4-68.4-690.1-351.4-787.1-723.5c-35-134.4-37.4-213.1-33.4-1255.4
		c2.4-957.3,3.2-979.5,19.1-1053.5c88.3-398.3,371.3-682.2,773.6-776c52.5-11.9,119.3-14.3,549.4-16.7
		c445.2-3.2,491.4-2.4,503.3,9.5c11.9,11.9,12.7,165.4,12.7,1905c0,1289.6-2.4,1897-8,1908.2c-8,14.3-21.5,15.1-487.4,14.3
		C1626.1,8358.4,1512.4,8356,1462.3,8347.3z M2181.9,6439.1V4828.3l-323.6,4c-298.1,3.2-330,4.8-389.6,19.9
		c-256,66-446,263.2-499.3,520c-17.5,80.3-17.5,2058.4-0.8,2137.1c47.7,223.4,202.7,408.7,411.8,492.1
		c104.9,42.1,153.4,46.9,493.7,47.7l307.7,0.8V6439.1z"/>
	<path class="st1" d="M1530.7,7564.1c-50.1-9.5-126.4-47.7-167-83.5c-83.5-72.4-124.8-174.9-118.5-295.8
		c3.2-62.8,7.2-79.5,32.6-130.4c37.4-77.1,93.8-133.6,170.9-171.7c53.3-26.2,66.8-29.4,136-31.8c62.8-2.4,85.1,0,127.2,14.3
		c172.5,58,276.7,225.8,247.3,397.5C1925.1,7467.1,1731.1,7603.9,1530.7,7564.1z"/>
	<path class="st1" d="M2887.1,8354.4c-3.2-2.4-5.6-864.2-5.6-1915.3c0-1734,0.8-1909.7,12.7-1914.5c21.5-8,638.4-4.8,714.8,3.2
		c322.8,36.6,607.4,233,762.5,524.7c19.9,37.4,46.1,100.2,59.6,139.1c50.1,149.5,48.5,109.7,48.5,1252.2
		c0,911.9-1.6,1047.9-12.7,1105.9c-78.7,414.2-394.4,726.7-809.4,798.2c-55.7,9.5-141.5,11.9-418.2,11.9
		C3048.5,8360,2889.5,8357.6,2887.1,8354.4z M3736.2,6622.8c124-32.6,225.8-127.2,267.1-248.1c26.2-74.7,25.4-184.5-0.8-252.8
		c-48.5-125.6-143.9-213.9-266.3-246.5c-198.8-51.7-410.3,68.4-468.3,265.6c-17.5,60.4-16.7,162.2,3.2,224.2
		C3330.7,6560,3537.4,6674.5,3736.2,6622.8z"/>
</g>
</svg>
