<svg xmlns="http://www.w3.org/2000/svg" xml:space="preserve" id="Layer_1" x="0" y="0" version="1.1" viewBox="0 18.3 512 475.4"><style>.st0,.st1{fill-rule:evenodd;clip-rule:evenodd;fill:#7ebae4}.st1{fill:#5277c3}</style><path d="M201.1 166.7 76.5 397.9l-29.1-52.8 33.6-62-66.8-.2L0 256.5l14.6-27 95.1.3 34.2-63zM210.8 351.5h249.4L432 404.9l-66.9-.2 33.2 62-14.2 26.5H355L307.7 405l-68.1-.1zM356 250.2 231.3 19l57.3-.6 33.3 62.1 33.5-61.8h28.5l14.5 27-47.8 87.9 33.9 63.2z" class="st0"/><path d="m156.2 261.9 124.7 231.2-57.3.6-33.3-62.2-33.5 61.8h-28.5l-14.6-27 47.8-87.8-33.9-63.2zM301.1 160H51.6l28.2-53.4 66.9.2-33.2-62 14.2-26.5h29.1l47.3 88.2 68.1.1zM310.9 345.4l124.7-231.2 29.1 52.8-33.7 61.9 66.8.2 14.2 26.5-14.6 27-95.1-.3-34.2 63z" class="st1"/></svg>