<svg xmlns="http://www.w3.org/2000/svg" xmlns:xlink="http://www.w3.org/1999/xlink" version="1.1" id="Layer_1" x="0px" y="0px" style="enable-background:new 0 0 512 512;" xml:space="preserve" viewBox="0 0 512 512">
<style type="text/css">
	.st0{fill:url(#SVGID_1_);}
	.st1{fill-rule:evenodd;clip-rule:evenodd;fill:url(#SVGID_00000034787842965407486170000002059694420986661255_);}
</style>
<g>
	
		<linearGradient id="SVGID_1_" gradientUnits="userSpaceOnUse" x1="251.3547" y1="502.4114" x2="251.3547" y2="51.8944" gradientTransform="matrix(1 0 0 -1 0 514)">
		<stop offset="0" style="stop-color:#4351E8"/>
		<stop offset="1" style="stop-color:#2A1EA5"/>
	</linearGradient>
	<path class="st0" d="M128,231.8l58.7,58.8v93H128V231.8z M374.7,106.9v267.2c0,5.5-4.5,9.9-10,9.9c-2.6,0-5.1-1-7-2.9L128,173.9   v-58.6c0-5.5,4.4-9.9,9.9-9.9h0.5c2.6,0,5.2,1.1,7,2.9l170.5,147.9V106.9H374.7z"/>
	
		<linearGradient id="SVGID_00000158013612166233121530000005485803776330509218_" gradientUnits="userSpaceOnUse" x1="102.8829" y1="105.6146" x2="569.6739" y2="570.1736" gradientTransform="matrix(1 0 0 -1 0 514)">
		<stop offset="0" style="stop-color:#4351E8"/>
		<stop offset="1" style="stop-color:#2A1EA5"/>
	</linearGradient>
	<path style="fill-rule:evenodd;clip-rule:evenodd;fill:url(#SVGID_00000158013612166233121530000005485803776330509218_);" d="   M64,0C28.7,0,0,28.7,0,64v384c0,35.3,28.7,64,64,64h384c35.3,0,64-28.7,64-64V64c0-35.3-28.7-64-64-64H64z M77.5,45.5   c-17.7,0-32,14.3-32,32v357c0,17.7,14.3,32,32,32h357c17.7,0,32-14.3,32-32v-357c0-17.7-14.3-32-32-32H77.5z"/>
</g>
</svg>