<?xml version="1.0" encoding="utf-8"?>
<!-- Generator: Adobe Illustrator 27.7.0, SVG Export Plug-In . SVG Version: 6.00 Build 0)  -->
<svg version="1.1"
	 id="Layer_1" xmlns:rdf="http://www.w3.org/1999/02/22-rdf-syntax-ns#" xmlns:cc="http://creativecommons.org/ns#" xmlns:dc="http://purl.org/dc/elements/1.1/"
	 xmlns="http://www.w3.org/2000/svg" xmlns:xlink="http://www.w3.org/1999/xlink" x="0px" y="0px" viewBox="0 0 512 512"
	 style="enable-background:new 0 0 512 512;" xml:space="preserve">
<style type="text/css">
	.st0{fill:#8F0000;}
	.st1{fill:#FFFFFF;}
</style>
<g transform="translate(0 -572.36)">
	<path class="st0" d="M64,572.4h384c35.3,0,64,28.7,64,64v384c0,35.3-28.7,64-64,64H64c-35.3,0-64-28.7-64-64v-384
		C0,601,28.7,572.4,64,572.4z"/>
	<g transform="matrix(8.545 0 0 8.545 -786.19 -1949.8)">
		<path class="st1" d="M104,322.8c0-2.7-2.2-4.9-4.9-4.9H92v3.3h7.1c0.9,0,1.7,0.7,1.7,1.6v4.8c0,0.9-0.8,1.7-1.7,1.7H92v3.2h7.1
			c2.7,0,4.9-2.2,4.9-4.9l0-2.3c11.3,0.2,14.6,3.1,18.1,6.2c3.5,3,7.3,6.3,17.4,6.4l0,1.1c0,2.7,2.2,5,5,5h7.3v-3.5h-7.3
			c-0.9,0-1.6-0.6-1.6-1.5v-4.8c0-0.9,0.7-1.6,1.6-1.6h7.3v-3.2h-7.3c-2.7,0-5,2.1-5,4.9l0,1.1c-9.5,0-12.3-2.7-15.7-5.7
			c-3-2.6-6.4-5.4-14.1-6.5c0.1-0.1,0.1-0.1,0.2-0.2c1.5-1.4,2.3-3,3.1-4.4c0.8-1.4,1.5-2.6,2.7-3.4c1-0.7,2.4-1.2,4.5-1.3l0,1.1
			c0,2.7,2.2,5.1,4.9,5.1h19.7c2.7,0,4.9-2.3,4.9-5.1v-4.8c0-2.7-2.2-4.9-4.9-4.9h-19.7c-2.7,0-4.9,2.2-4.9,4.9l0,1.1
			c-2.6,0.1-4.5,0.7-6,1.7c-1.7,1.2-2.7,2.8-3.5,4.3c-0.8,1.5-1.5,2.8-2.5,3.7C107.3,322,106.1,322.6,104,322.8L104,322.8z
			 M125.1,308.7h19.7c0.9,0,1.6,0.7,1.6,1.6v4.8c0,0.9-0.7,1.6-1.6,1.6h-19.7c-0.9,0-1.7-0.7-1.7-1.6v-4.8
			C123.4,309.3,124.2,308.7,125.1,308.7z"/>
	</g>
</g>
</svg>
