<svg xmlns="http://www.w3.org/2000/svg" xmlns:xlink="http://www.w3.org/1999/xlink" version="1.1" id="Layer_1" x="0px" y="0px" style="enable-background:new 0 0 512 512;" xml:space="preserve" viewBox="0 91.3 511.9 329.3">
<style type="text/css">
	.st0{fill:url(#SVGID_1_);}
</style>
<g transform="translate(1 1)">
	
		<radialGradient id="SVGID_1_" cx="-48.9255" cy="655.6713" r="10.3031" gradientTransform="matrix(-43.5372 31.9464 31.946 43.537 -22741.3086 -26892.4883)" gradientUnits="userSpaceOnUse">
		<stop offset="0" style="stop-color:#2A6CBE"/>
		<stop offset="0.3869" style="stop-color:#2062BC"/>
		<stop offset="0.4918" style="stop-color:#1F5FBC"/>
		<stop offset="0.6658" style="stop-color:#1C5ABD"/>
		<stop offset="0.8535" style="stop-color:#1956BC"/>
		<stop offset="1" style="stop-color:#1851BE"/>
	</radialGradient>
	<path class="st0" d="M248.9,90.4l0,236.1c0,39.3-0.7,66.4-0.7,93.1l0,0H118.8C41.4,419.6-1,383.4-1,326.5   c0-38.1,21.7-65.8,55.6-77.1c-27.8-11.8-44.8-38.1-44.8-70.5c0-52.7,42-88.4,115.5-88.4l0,0H248.9z M384.6,90.4   c73.6,0,115.5,35.7,115.5,88.4c0,32.4-17,58.8-44.8,70.5c33.9,11.3,55.6,39,55.6,77.1c0,56.9-42.4,93.1-119.8,93.1H261.8l0,0   c0-26.7-0.6-53.8-0.7-93.1l0-236.1H384.6z M182.4,278.5H124c-38.7,0-58,14.6-58,43.3c0,30.1,17.9,45.1,53.3,45.1l0,0h30.6   c24.5,0,32.5-11.8,32.5-47.5l0,0V278.5z M386,278.5h-58.5v40.9c0,35.7,8,47.5,32.5,47.5h30.6c35.4,0,53.3-15,53.3-45.1   C444,293.1,424.7,278.5,386,278.5z M182.9,143.1h-53.8c-34.4,0-52.3,15.5-52.3,41.8s17.9,41.8,52.3,41.8l0,0h53.8V143.1z    M380.9,143.1h-53.8v83.7h53.8c34.4,0,52.3-15.5,52.3-41.8S415.3,143.1,380.9,143.1z"/>
</g>
</svg>