<svg xmlns="http://www.w3.org/2000/svg" width="560" height="647"><path fill="#8f0000" d="m280 405.36 280 162.03v323.32L280 1052.4 0 890.7V567.29z" opacity=".98" style="color-rendering:auto;color:#000;isolation:auto;mix-blend-mode:normal;shape-rendering:auto;solid-color:#000;image-rendering:auto" transform="translate(0 -405.36)"/><path fill-opacity=".199" fill-rule="evenodd" d="m278.57 614.14-28.122-14.758-219.32-239.19 3.867-12.478h107.86l19.715-65.534 17.337 24.866 57.948-65.047 47.857-12.857 2.143 33.571 33.571 3.571 33.571.715 87.143 2.143 14.96-70.328 74.71 87.705-2.094 65.238-115.11.03-1.985 60.415 120.23 12.653 1.425 42.694z"/><path fill="#fff" d="M21.75 766.85V875a5 5 0 0 0 2.5 4.33L277.5 1025.3a5.002 5.002 0 0 0 5 0l252.86-145.98c1.547-.893 2.643-2.544 2.643-4.33V583.099c0-1.786-1.096-3.437-2.643-4.33L282.5 432.819a5.002 5.002 0 0 0-2.383-.666 5.003 5.003 0 0 0-2.617.666L24.25 578.769a5 5 0 0 0-2.5 4.33v161.465zM280 442.92l248 143.06v158.38h-99.357c-17.583 0-32.643 14.683-32.643 32.267v4.32c-59.713-.441-77.52-15.896-99.729-35.316-18.46-16.144-41.584-33.808-88.092-41.188 8.671-8.696 13.887-18.575 18.533-27.002 4.994-9.054 9.51-16.227 16.734-21.184 5.626-3.861 15.231-6.188 27.666-6.927v4.06c0 17.583 13.655 31.97 31.238 31.97h127.3c17.583 0 33.352-14.386 33.352-31.97v-31.279c0-17.583-15.706-31.75-33.289-31.75l-127.3-.002c-17.583 0-31.301 14.167-31.301 31.75v5.703c-16.445.811-30.442 4.032-39.949 10.557-11.762 8.073-18.195 19.038-23.461 28.586-5.266 9.549-9.583 17.764-15.855 23.518-5.35 4.906-12.841 8.272-25.018 9.809-1.575-16.163-15.629-27.827-32.172-27.921H31.997v-86.38zm22.414 169.44h127.3c5.937 0 10.289 3.812 10.289 9.75v31.278c0 5.937-4.415 9.972-10.352 9.972h-127.3c-5.937 0-10.766-4.035-10.766-9.972V622.11c0-5.937 4.892-9.749 10.828-9.749zm-270.41 80h102.65c5.937 0 10.348 4.92 10.348 10.857v31.281c0 5.937-4.411 9.862-10.348 9.862H32.004zm135.44 30.243c71.712 1.129 91.494 19.195 114.55 39.359 22.126 19.349 49.351 39.661 114.01 40.516v5.43c0 17.583 15.059 31.452 32.643 31.452h99.357v32.747l-248 143.09-248-143.09v-105.75h102.66c17.583 0 32.777-14.277 32.777-31.86zm261.21 43.757h99.355v51h-99.355c-5.937 0-10.645-4.066-10.645-10.003v-30.73c0-5.937 4.708-10.267 10.645-10.267z" opacity=".98" style="color-rendering:auto;text-decoration-color:#000;color:#000;isolation:auto;mix-blend-mode:normal;shape-rendering:auto;solid-color:#000;block-progression:tb;text-decoration-line:none;text-decoration-style:solid;image-rendering:auto;white-space:normal;text-indent:0;text-transform:none" transform="translate(0 -405.36)"/></svg>