<?xml version="1.0" encoding="utf-8"?>
<!-- Generator: Adobe Illustrator 27.7.0, SVG Export Plug-In . SVG Version: 6.00 Build 0)  -->
<svg version="1.1" id="Layer_1" xmlns="http://www.w3.org/2000/svg" xmlns:xlink="http://www.w3.org/1999/xlink" x="0px" y="0px"
	 viewBox="0 0 512 512" style="enable-background:new 0 0 512 512;" xml:space="preserve">
<style type="text/css">
	.st0{clip-path:url(#SVGID_00000070797465557635024280000012513064944366845106_);}
	.st1{fill:#FFFFFF;}
</style>
<g>
	<path d="M154.6,2.5h202.8c84,0,152.1,68.1,152.1,152.1v202.8c0,84-68.1,152.1-152.1,152.1H154.6c-84,0-152.1-68.1-152.1-152.1
		V154.6C2.4,70.6,70.6,2.5,154.6,2.5z"/>
	<g transform="translate(-65.392282 -65.444691) scale(1.1042818)">
		<g>
			<defs>
				<path id="SVGID_1_" d="M132.8,31.4h316.4c56,0,101.4,45.4,101.4,101.4v316.4c0,56-45.4,101.4-101.4,101.4H132.8
					c-56,0-101.4-45.4-101.4-101.4V132.9C31.4,76.9,76.8,31.4,132.8,31.4z"/>
			</defs>
			<clipPath id="SVGID_00000181052418334525631010000006610250529580435361_">
				<use xlink:href="#SVGID_1_"  style="overflow:visible;"/>
			</clipPath>
			<g style="clip-path:url(#SVGID_00000181052418334525631010000006610250529580435361_);">
				<path class="st1" d="M399.1,377.8c-8.8,25.6-26.3,47.2-49.5,61c-23.2,13.8-50.6,19-77.2,14.6c-26.7-4.4-50.9-18.2-68.3-38.8
					s-27.1-46.8-27.1-73.8v-55.9l40.1,16.8v39.1c0,10.5,2.2,21,6.6,30.5c4.4,9.6,10.7,18.1,18.7,25.1c1.5,1.3,3.1,2.6,4.7,3.8
					c11.8,8.8,26.1,13.9,40.8,14.5c0.5,0,1,0,1.5,0.1c0.5,0,1.1,0,1.7,0h1.7c0.6,0,1,0,1.5-0.1c14.7-0.6,29-5.7,40.8-14.5
					c1.6-1.2,3.2-2.5,4.7-3.8c10.4-9.1,18.1-21,22.1-34.2L399.1,377.8z M405.1,241.4v99.4c0,1.3,0,2.6-0.1,3.9l-40-16.7v-86.5
					c0-19.1-7.4-37.5-20.7-51.3c-13.2-13.8-31.3-21.9-50.4-22.6c-19.1-0.8-37.7,5.9-52,18.6c-14.3,12.7-23.1,30.4-24.6,49.5
					c-0.1,1.9-0.2,3.9-0.2,5.9v24.7l-40.1-16.8v-122H291c30.3,0,59.3,12,80.7,33.4S405.1,211.1,405.1,241.4z"/>
			</g>
		</g>
	</g>
</g>
</svg>
