<svg version="1.1" viewBox="0 0 1000 798.53" xmlns="http://www.w3.org/2000/svg"><g transform="matrix(11.801 0 0 11.801 0 -1275.6)"><path d="m38.631 108.08v26.511l5.622-0.012c6.042-0.012 6.857-0.148 8.517-1.414 1.219-0.93 2.484-3.562 2.694-5.604 0.255-2.483-0.408-4.431-2.03-5.964l-1.291-1.22 0.687-0.632c1.121-1.032 1.934-3.063 1.937-4.835 5e-3 -2.981-1.063-4.89-3.371-6.026-1.179-0.58-1.614-0.624-7.011-0.711zm6.909 4.291c0.257 8e-3 0.594 0.097 1.034 0.229 1.43 0.428 2.111 1.384 2.111 2.961 0 0.948-0.156 1.454-0.611 1.983-0.474 0.551-0.918 0.739-1.984 0.842l-1.374 0.132v-2.952c0-2.505 0.053-3.218 0.824-3.195zm-0.824 10.777 1.5 0.124c1.27 0.105 1.614 0.253 2.249 0.963 0.601 0.673 0.748 1.087 0.745 2.091-5e-3 1.452-0.389 2.329-1.319 3.006-0.726 0.528-2.662 0.923-2.977 0.607-0.109-0.11-0.198-1.682-0.198-3.495zm-24.341-15.008v5.027h3.704l3.704 0.134c0 0.074-1.786 3.783-3.969 8.244l-3.969 8.111v4.943h15.346v-5.292h-4.233c-2.328 0-4.233-0.061-4.233-0.134s1.846-3.823 4.101-8.332l4.101-8.199v-4.501h-7.276zm-20.373-0.02-2e-3 26.608 5.558-0.166-2e-3 -3.092c-1e-3 -3.458-0.46-11.536-0.702-12.352-0.086-0.291-0.06-0.437 0.058-0.325s1.294 3.724 2.613 8.026 2.487 7.812 2.596 7.799 1.568-0.022 3.241-0.022h3.043v-26.458h-5.555v3.51a141.98 141.98 0 0 0 0.279 7.703c0.153 2.306 0.239 4.232 0.189 4.282s-1.173-3.387-2.497-7.636l-2.407-7.726-3.206-0.074z"/><g fill="#c8e5ce"><path d="m30.394 170.82c-9e-3 -0.028-0.134 0.076-0.383 0.287-0.281 0.238-1.046 0.714-1.701 1.058-1.112 0.585-1.417 0.619-4.63 0.522-8.414-0.255-8.879-0.229-10.222 0.56-1.587 0.933-1.932 1.649-0.439 0.911 0.707-0.35 1.574-0.521 2.592-0.511a28.45 28.45 0 0 1 2.683 0.16l1.152 0.146-2.646-0.752 2.117 0.107c1.164 0.059 2.946 0.238 3.959 0.398 3.013 0.475 5.915-0.485 7.204-2.382 0.215-0.316 0.322-0.476 0.313-0.504zm-11.237-19.137a5.35 5.35 0 0 0-0.967 0.114c-1.291 0.275-1.708 0.606-2.719 2.155-1.273 1.951-0.674 2.839 1.276 1.892l0.847-0.411-0.69 0.609a12.08 12.08 0 0 1-1.191 0.928c-0.428 0.272-0.367 0.294 0.418 0.153 0.507-0.091 1.549-0.678 2.325-1.31s1.565-1.146 1.758-1.146c0.738 0 1.745 1.142 2.716 3.081 1.337 2.669 2.805 3.946 5.908 5.141 1.527 0.588 1.576 0.59 0.849 0.03l-0.607-0.467 0.667-0.627c0.623-0.585 0.637-0.651 0.21-0.995-0.252-0.202 0.045-0.123 0.659 0.175a11.84 11.84 0 0 1 2.113 1.401l0.996 0.858-0.493-0.794c-0.271-0.437-0.806-1.144-1.187-1.573l-0.693-0.778 0.794 0.494c0.603 0.375 0.711 0.394 0.452 0.076-0.188-0.23-1.473-0.807-2.856-1.284-2.848-0.982-3.858-1.851-5.033-4.332-0.995-2.102-3.284-3.454-5.552-3.394z"/><path d="m37.945 145.03a5.88 5.88 0 0 0-2.02 0.369c-3.181 1.19-4.619 4.074-4.38 8.778 0.107 2.09 0.259 2.748 0.984 4.258 0.866 1.803 1.283 2.375 0.793 1.087-0.201-0.528-0.173-0.802 0.115-1.124 0.209-0.234 0.421-0.716 0.471-1.07 0.06-0.429 0.443 0.405 1.149 2.504 0.977 2.907 1.057 3.362 1.042 5.936-0.02 3.325-0.472 4.568-2.423 6.666-0.696 0.748-1.026 1.235-0.734 1.081s1.22-1.001 2.062-1.884c2.206-2.313 2.701-3.538 2.686-6.647-0.011-2.157-0.138-2.87-0.9-5.027l-0.891-2.844c-2e-3 -0.182-0.078-0.331-0.168-0.331s-0.176-0.208-0.19-0.463-0.355-1.356-0.756-2.447c-0.654-1.78-0.697-2.099-0.421-3.095 0.341-1.229 1.659-2.725 2.4-2.725a1.16 1.16 0 0 1 0.783 0.369c0.168 0.203 0.689 0.435 1.157 0.516l2.703 0.469-0.84-0.436c-0.462-0.24-1.057-0.679-1.323-0.976-0.482-0.54-0.482-0.54 1.303-0.352 1.977 0.208 2.142 0.06 1.18-1.058-0.869-1.01-2.294-1.56-3.782-1.551zm-14.002-1.608c-1.706 0-2.028 0.08-2.65 0.661-0.389 0.364-0.889 1.01-1.111 1.436-0.406 0.781-0.335 1.529 0.432 4.517l0.204 0.794 0.354-0.741c0.294-0.614 0.394-0.67 0.587-0.325 0.277 0.496 0.725 0.29 0.738-0.339 5e-3 -0.246 0.233-0.92 0.506-1.499 0.335-0.709 0.42-1.197 0.26-1.495-0.284-0.53 0.211-0.799 1.061-0.576 1.313 0.343 1.755 3.452 0.917 6.44-0.405 1.444-0.4 1.55 0.151 2.83 0.74 1.721 1.755 2.671 3.496 3.272l1.576 0.493c0.095 5e-3 -0.165-0.616-0.579-1.38-1.005-1.855-1.312-3.352-1.566-7.626-0.226-3.807-0.471-4.628-1.728-5.802-0.622-0.581-0.943-0.661-2.65-0.661zm12.692-6.678c-0.338 0.011-0.659 0.143-1.227 0.42-0.631 0.308-1.445 0.999-1.809 1.536-0.61 0.9-0.664 1.228-0.697 4.212l-0.214 3.525c-0.332 0.537 0.284 0.295 0.89-0.35 0.331-0.352 0.957-0.788 1.392-0.968 0.668-0.277 0.765-0.434 0.631-1.013-0.087-0.377-0.231-1.344-0.319-2.149-0.198-1.812 0.109-2.135 2.044-2.15 1.297-0.01 2.357-0.371 2.357-0.803 0-0.103-0.364-0.061-0.808 0.094s-0.875 0.214-0.957 0.132 0.157-0.227 0.532-0.321c1.655-0.415 1.295-1.302-0.795-1.959-0.374-0.118-0.638-0.188-0.876-0.204l-0.146-3e-3z"/></g><path d="m36.694 136.34c-1.383-1e-3 -2.562 0.744-3.554 2.243-0.687 1.038-0.726 1.269-0.761 4.426-0.03 2.73-0.167 3.804-0.758 5.958-0.622 2.264-0.707 2.997-0.613 5.292 0.085 2.088 0.235 2.907 0.695 3.788 0.64 1.226 0.454 1.468-0.407 0.529-1.511-1.649-2.135-3.803-2.463-8.492-0.292-4.175-0.741-5.548-2.144-6.548-1.277-0.911-4.199-0.921-5.463-0.019-1.116 0.796-2.016 2.529-1.794 3.453l0.503 2.477 0.337 1.786h-1.119c-0.616 0-1.307 0.072-1.537 0.16-0.374 0.143-0.419-0.452-0.419-5.556v-5.716h-6.085v10.054h-5.027v-10.054h-6.085v26.458h6.085v-5.38l0.109-5.49c0.06-0.061 1.191-0.072 2.513-0.025l2.404 0.085v10.811h6.085v-8.997l0.944-0.89c0.519-0.49 1.234-1.045 1.588-1.235 0.574-0.307 0.718-0.276 1.31 0.28 0.366 0.344 0.978 1.287 1.36 2.095s0.988 1.857 1.348 2.329c0.827 1.086 3.486 2.872 4.91 3.299 0.599 0.18 1.6 0.815 2.223 1.413 0.971 0.93 1.134 1.241 1.134 2.16 0 0.949-0.177 1.256-1.521 2.641-1.213 1.25-1.832 1.664-3.054 2.043-1.827 0.567-5.045 0.633-7.829 0.162-3.178-0.538-5.699 0.024-7.374 1.646-1.489 1.441-1.022 2.504 0.614 1.394 1.327-0.9 3.19-0.867 7.787 0.137 2.983 0.652 3.986 0.76 6.085 0.66 4.18-0.199 7.104-1.357 9.423-3.732 1.853-1.898 2.578-3.76 2.567-6.595-0.01-2.617-0.517-4.581-2.324-8.996-1.811-4.424-1.858-4.657-1.231-6.073 0.653-1.476 1.317-1.863 2.328-1.354 0.411 0.207 1.252 0.522 1.869 0.702l1.122 0.326-0.196 1.48c-0.108 0.814-0.196 3.802-0.196 6.639 0 4.978 0.023 5.205 0.661 6.468 0.864 1.71 1.741 2.32 3.549 2.47 1.987 0.165 2.641-0.048 4.008-1.308l1.175-1.083v1.92h5.027v-26.458h-5.292v4.101c0 2.256-0.101 4.101-0.224 4.101s-0.45-0.251-0.727-0.557c-0.943-1.042-1.92-1.36-3.787-1.234-1.619 0.109-1.807 0.064-2.614-0.634-0.478-0.413-1.077-0.751-1.33-0.751s-0.738-0.194-1.076-0.431c-0.452-0.317-0.95-0.391-1.881-0.281l-1.267 0.15-0.28-1.108c-0.751-2.977-0.692-3.108 1.438-3.19 1.803-0.069 3.225-0.788 2.733-1.381-0.161-0.194-0.228-0.457-0.148-0.585 0.291-0.47-0.645-1.322-1.903-1.734-0.507-0.166-0.992-0.249-1.453-0.25zm-0.057 0.412a1.19 1.19 0 0 1 0.146 3e-3c0.238 0.016 0.502 0.086 0.876 0.204 2.09 0.657 2.45 1.544 0.795 1.959-0.375 0.094-0.614 0.239-0.532 0.321s0.513 0.023 0.957-0.132 0.808-0.197 0.808-0.094c0 0.432-1.061 0.793-2.358 0.803-1.935 0.015-2.242 0.338-2.044 2.15 0.088 0.805 0.231 1.771 0.319 2.149 0.134 0.58 0.037 0.737-0.631 1.013-0.435 0.18-1.061 0.616-1.392 0.968-0.606 0.645-1.222 0.888-0.89 0.35 0.099-0.159 0.195-1.746 0.214-3.525 0.032-2.984 0.087-3.312 0.697-4.212 0.364-0.537 1.177-1.228 1.809-1.536 0.568-0.277 0.889-0.409 1.227-0.42zm-12.693 6.677c1.706 0 2.028 0.08 2.649 0.661 1.257 1.174 1.501 1.995 1.728 5.802 0.254 4.274 0.561 5.771 1.566 7.626 0.414 0.764 0.674 1.385 0.579 1.38s-0.804-0.227-1.576-0.494c-1.742-0.602-2.756-1.551-3.496-3.272-0.551-1.281-0.557-1.387-0.151-2.83 0.839-2.989 0.396-6.097-0.917-6.44-0.85-0.222-1.345 0.046-1.061 0.576 0.16 0.298 0.075 0.786-0.26 1.495-0.274 0.579-0.501 1.253-0.506 1.499-0.013 0.629-0.46 0.835-0.738 0.339-0.193-0.345-0.293-0.289-0.587 0.325l-0.354 0.741-0.204-0.794c-0.766-2.989-0.838-3.737-0.431-4.518 0.222-0.426 0.721-1.072 1.111-1.436 0.622-0.581 0.944-0.661 2.65-0.661zm14.001 1.61c1.487-9e-3 2.913 0.541 3.782 1.551 0.962 1.119 0.798 1.267-1.18 1.058-1.785-0.188-1.786-0.188-1.303 0.352 0.266 0.297 0.861 0.736 1.323 0.976l0.84 0.436-2.703-0.469c-0.468-0.081-0.989-0.313-1.157-0.516a1.16 1.16 0 0 0-0.783-0.369c-0.741 0-2.059 1.497-2.4 2.725-0.277 0.996-0.233 1.315 0.421 3.095 0.401 1.091 0.741 2.193 0.756 2.447s0.1 0.463 0.19 0.463 0.166 0.149 0.168 0.331 0.403 1.462 0.891 2.844c0.761 2.157 0.889 2.87 0.9 5.027 0.015 3.108-0.48 4.334-2.686 6.647-0.842 0.883-1.77 1.73-2.062 1.884s0.038-0.333 0.734-1.081c1.951-2.098 2.403-3.341 2.423-6.666 0.015-2.574-0.064-3.029-1.042-5.936-0.705-2.098-1.089-2.933-1.149-2.504a2.38 2.38 0 0 1-0.471 1.07c-0.288 0.322-0.316 0.596-0.115 1.125 0.49 1.287 0.073 0.716-0.793-1.087-0.725-1.51-0.877-2.168-0.984-4.258-0.24-4.704 1.199-7.588 4.38-8.778a5.88 5.88 0 0 1 2.02-0.369zm-13.867 1.2c0.171-5e-3 0.416 0.221 0.717 0.679 0.552 0.843 0.591 2.965 0.091 5.044-0.35 1.458-0.54 1.637-1.064 1.005-0.175-0.211-0.887-0.667-1.582-1.014-1.068-0.532-1.216-0.695-0.957-1.05 0.169-0.231 0.519-0.4 0.777-0.375 0.337 0.033 0.583-0.291 0.871-1.145 0.221-0.655 0.509-1.304 0.641-1.442s0.239-0.585 0.239-0.992c0-0.467 0.096-0.704 0.266-0.709zm23.183 4.732c0.512-0.027 1.021 0.214 1.347 0.711 0.353 0.539 0.49 1.409 0.565 3.583 0.141 4.13-0.127 6.214-0.9 6.987-0.757 0.757-1.189 0.782-2.008 0.118-0.616-0.499-0.624-0.576-0.624-5.396 0-4.438 0.046-4.942 0.504-5.447 0.318-0.351 0.718-0.534 1.117-0.556zm-28.104 0.718c2.268-0.06 4.557 1.292 5.552 3.394 1.175 2.481 2.184 3.35 5.033 4.332 1.383 0.477 2.668 1.055 2.856 1.284 0.26 0.317 0.151 0.299-0.452-0.077l-0.794-0.494 0.693 0.778a13.96 13.96 0 0 1 1.187 1.572l0.494 0.794-0.996-0.858a11.84 11.84 0 0 0-2.113-1.401c-0.614-0.298-0.911-0.377-0.659-0.175 0.427 0.344 0.413 0.409-0.21 0.995l-0.667 0.627 0.607 0.467c0.727 0.56 0.679 0.558-0.849-0.03-3.103-1.195-4.571-2.472-5.908-5.141-0.971-1.939-1.978-3.081-2.716-3.081-0.193 0-0.984 0.515-1.758 1.146s-1.819 1.22-2.325 1.31c-0.784 0.141-0.845 0.118-0.418-0.153 0.276-0.175 0.811-0.593 1.191-0.928l0.69-0.609-0.847 0.411c-1.95 0.947-2.549 0.059-1.276-1.892 1.011-1.549 1.428-1.88 2.719-2.155a5.35 5.35 0 0 1 0.967-0.114zm11.237 19.138c9e-3 0.028-0.098 0.187-0.313 0.504-1.289 1.897-4.191 2.856-7.204 2.382a45.84 45.84 0 0 0-3.959-0.398l-2.117-0.107 2.646 0.752-1.152-0.146c-0.634-0.08-1.841-0.152-2.683-0.16-1.018-0.01-1.885 0.161-2.592 0.511-1.493 0.739-1.148 0.022 0.439-0.911 1.343-0.789 1.807-0.815 10.222-0.56 3.214 0.097 3.518 0.063 4.63-0.522 0.655-0.344 1.42-0.821 1.701-1.058 0.249-0.211 0.374-0.315 0.383-0.287zm54.122-9.907c-9e-3 -5e-3 -0.017 4e-3 -0.026 0.026-0.072 0.177-0.896 0.923-1.831 1.658s-1.701 1.454-1.701 1.597 0.815 0.26 1.852 0.26h1.852l-0.021-1.918c-0.01-0.923-0.063-1.589-0.125-1.623z" fill="#00a950"/><path d="m17.842 153.4c-0.135-0.026-0.431 0.147-0.71 0.427-0.467 0.467-0.498 0.581-0.158 0.581 0.497 0 1.173-0.726 0.915-0.984a0.09 0.09 0 0 0-0.047-0.024zm3.87-6.89c-0.025 3e-3 -0.053 9e-3 -0.083 0.019-0.182 0.06-0.372 0.391-0.423 0.737-0.08 0.548-0.038 0.583 0.331 0.278 0.468-0.388 0.558-1.078 0.175-1.034z" fill="#008000"/><path d="m67.326 146.47c-0.72 0-1.85 0.727-2.85 1.834-0.534 0.592-1.031 1.076-1.104 1.076s-0.133-0.595-0.133-1.323v-1.323h-4.763v19.844h5.292l1e-3 -5.755 0.277-6.747c0.344-1.237 1.478-1.913 2.797-1.666l0.894 0.168v-3.055c0-2.582-0.064-3.055-0.41-3.055zm9.93-0.12c-2.712 1e-3 -4.143 0.35-5.463 1.335-0.961 0.717-1.817 2.39-2.053 4.01l-0.163 1.125h5.562v-0.674c0-0.926 1.106-1.972 2.086-1.972 0.909 0 1.544 0.538 1.79 1.518 0.141 0.561 4e-3 0.842-0.746 1.529a7.93 7.93 0 0 1-2.223 1.315c-5.251 1.907-6.728 3.418-6.728 6.881 0 2.6 0.857 4.323 2.513 5.054 2.057 0.908 6.482 0.043 6.482-1.266 0-1.057 0.919-2.429 2.393-3.574 1.731-1.344 2.209-2.152 1.843-3.114-0.325-0.856-1.316-1.09-2.348-0.557-0.971 0.502-1.359 1.148-1.359 2.263 0 0.993-0.613 2.26-1.202 2.486-0.963 0.369-1.937 0.16-2.482-0.533-1.135-1.443-0.467-3.087 1.867-4.596 0.875-0.566 2.013-1.168 2.527-1.337 1.342-0.443 3.899-0.206 4.609 0.428l0.575 0.513-0.133-3.589c-0.078-2.098-0.271-3.857-0.465-4.233-1.107-2.146-3.088-3.013-6.882-3.012z" fill="#00a950"/><path d="m38.896 145.95c-0.073 0-0.311 0.117-0.529 0.26-0.353 0.232-0.353 0.29 0 0.521 0.218 0.143 0.456 0.26 0.529 0.26s0.311-0.117 0.529-0.26c0.353-0.232 0.353-0.29 0-0.521-0.218-0.143-0.456-0.26-0.529-0.26zm-2.221-8.18c-0.377 0.032-0.956 0.299-0.956 0.513 0 0.341 0.987 0.312 1.201-0.035 0.096-0.155 0.112-0.345 0.035-0.421-0.052-0.052-0.155-0.067-0.281-0.056z" fill="#008000"/></g></svg>
