<svg xmlns="http://www.w3.org/2000/svg" width="682.667" height="682.667" preserveAspectRatio="xMidYMid meet" version="1.0" viewBox="0 0 512 512"><g fill="#01a299" stroke="none"><path d="M2400 5060 c-438 -29 -878 -178 -1243 -420 -719 -478 -1147 -1275 -1147 -2135 0 -560 181 -1096 523 -1555 101 -134 358 -388 497 -492 214 -158 451 -287 666 -361 l102 -36 -63 94 c-148 221 -244 462 -306 762 -29 142 -37 461 -15 598 40 245 141 459 271 573 59 51 58 71 -5 117 -120 88 -243 255 -296 400 -45 123 -57 215 -51 379 8 220 55 362 172 518 30 40 55 76 55 79 0 4 -21 37 -46 75 -55 81 -88 154 -114 246 -22 81 -36 198 -23 198 5 0 22 -14 39 -31 46 -49 171 -147 269 -212 207 -136 437 -224 673 -258 109 -15 392 -6 492 16 274 60 555 200 766 383 42 37 87 75 100 85 l24 19 0 -37 c0 -109 -58 -282 -136 -404 l-45 -70 45 -55 c113 -139 179 -301 198 -485 33 -329 -92 -647 -326 -826 -36 -27 -65 -57 -65 -65 0 -8 15 -26 34 -40 127 -91 245 -322 303 -590 54 -247 79 -647 65 -1025 -5 -126 -8 -231 -7 -233 5 -8 217 132 321 213 470 364 805 898 932 1486 68 317 70 714 5 1039 -80 397 -268 794 -528 1117 -401 496 -1022 839 -1661 917 -158 19 -333 25 -475 16z" transform="translate(0.000000,512.000000) scale(0.100000,-0.100000)"/></g></svg>