<svg xmlns="http://www.w3.org/2000/svg" width="682.667" height="682.667" version="1.0" viewBox="0 0 512 512"><path fill="#01a299" d="M240 6c-43.8 2.9-87.8 17.8-124.3 42C43.8 95.8 1 175.5 1 261.5c0 56 18.1 109.6 52.3 155.5 10.1 13.4 35.8 38.8 49.7 49.2 21.4 15.8 45.1 28.7 66.6 36.1l10.2 3.6-6.3-9.4c-14.8-22.1-24.4-46.2-30.6-76.2-2.9-14.2-3.7-46.1-1.5-59.8 4-24.5 14.1-45.9 27.1-57.3 5.9-5.1 5.8-7.1-.5-11.7-12-8.8-24.3-25.5-29.6-40-4.5-12.3-5.7-21.5-5.1-37.9.8-22 5.5-36.2 17.2-51.8 3-4 5.5-7.6 5.5-7.9 0-.4-2.1-3.7-4.6-7.5-5.5-8.1-8.8-15.4-11.4-24.6-2.2-8.1-3.6-19.8-2.3-19.8.5 0 2.2 1.4 3.9 3.1 4.6 4.9 17.1 14.7 26.9 21.2 20.7 13.6 43.7 22.4 67.3 25.8 10.9 1.5 39.2.6 49.2-1.6 27.4-6 55.5-20 76.6-38.3 4.2-3.7 8.7-7.5 10-8.5l2.4-1.9v3.7c0 10.9-5.8 28.2-13.6 40.4l-4.5 7 4.5 5.5c11.3 13.9 17.9 30.1 19.8 48.5 3.3 32.9-9.2 64.7-32.6 82.6-3.6 2.7-6.5 5.7-6.5 6.5 0 .8 1.5 2.6 3.4 4 12.7 9.1 24.5 32.2 30.3 59 5.4 24.7 7.9 64.7 6.5 102.5-.5 12.6-.8 23.1-.7 23.3.5.8 21.7-13.2 32.1-21.3 47-36.4 80.5-89.8 93.2-148.6 6.8-31.7 7-71.4.5-103.9-8-39.7-26.8-79.4-52.8-111.7-40.1-49.6-102.2-83.9-166.1-91.7C271.7 5.7 254.2 5.1 240 6z"/></svg>