<?xml version="1.0" encoding="UTF-8"?><svg id="Layer_1" xmlns="http://www.w3.org/2000/svg" width="379.06" height="103.05" xmlns:xlink="http://www.w3.org/1999/xlink" viewBox="0 0 379.06 103.05"><defs><linearGradient id="linear-gradient" x1="37.15" y1="-101.89" x2="79.91" y2="-249.83" gradientTransform="translate(0 -100.1) scale(1 -1)" gradientUnits="userSpaceOnUse"><stop offset="0" stop-color="#ef1970"/><stop offset=".14" stop-color="#f23b5c"/><stop offset=".45" stop-color="#f77d35"/><stop offset=".7" stop-color="#fcad18"/><stop offset=".89" stop-color="#fecb07"/><stop offset="1" stop-color="#ffd600"/></linearGradient></defs><path d="M207.55,28.52c-.28-3.87-.78-7.73-1.49-11.55-.21-1.11-.45-2.47-.78-4.44s-.61-3.46-.83-4.51-.45-2-.68-2.85c-.17-.92-.59-1.77-1.22-2.46-.46-.44-1.01-.78-1.61-1-.65-.2-1.32-.3-2-.28-.78,0-3.16,0-4.16,1.74-.39.67-.74,1.81-.74,5.57-.02.83.02,1.66.14,2.48l.14,1.12c.18,1.76.48,3.5.89,5.22.03.12.07.24.12.35.02.46.07.91.15,1.36.1.84.29,1.67.56,2.47.19.58.29,1.18.3,1.78.48,5.45.35,6.88.3,7.28-.15.06-.32.08-.48.07-1.4,0-15.06,4-18.61,6.36-3.23,1.96-5.91,4.71-7.78,8-1.7,3.22-2.22,21.56-2.22,21.74-.09,4.22.64,6.82,2.27,8.14l.32.35c3.06,3.44,7.28,5.64,11.85,6.2,4.8.64,9.64.88,14.48.73h5.36l7.36-2.4-.24-14c-.04-6.47-.51-27.45-1.4-37.47ZM198.75,66.13c-.11.88-.2,1.55-.27,2-.06.34-.15.68-.28,1-.07.17-.13.29-.14.33l-.24.1c-.26.09-.53.14-.8.15h-1.84c-3.35-.11-6.67-.59-9.91-1.43-2.01-.39-3.98-.99-5.88-1.77h0c-.8-1.88,1.22-16,6.72-20.09s8.27-4.54,9.65-4.11c.38.12,1.54.48,2.33,3,.2,1,.41,7.6.52,11.15.08,2.47.14,4.51.19,5.14.14,1.51.12,3.03-.05,4.53Z"/><path d="M242.72,26.41c-1.13.95-1.98,2.17-2.47,3.56v.06c-.71,2.03-1.58,4-2.6,5.89-.82,1.47-1.29,3.11-1.38,4.79-.04.43-.15.86-.32,1.26-.13.41-.32.8-.55,1.17l-.44-.28c-.87-.65-1.71-1.34-2.5-2.09-1-1-2.35-2.29-4-4-7.07-7.19-11.28-9.75-14.07-8.62-1.59.65-2.4,2.31-2.4,4.94,0,1.63.85,3.69,2.61,6.27,2.35,3.28,4.9,6.4,7.64,9.36,5.21,5.9,8.73,7.54,10.36,8.23.03,1.48-.1,2.95-.37,4.4-.53,1.72-1.16,3.41-1.89,5.06-1.01,2.06-1.84,4.2-2.5,6.39-.61,1.77-.96,3.62-1.06,5.49,0,2.11.3,3.41,1,4.22.65.73,1.6,1.12,2.57,1.06.41,0,.81-.04,1.21-.13,1.07-.15,2.09-.53,3-1.1.89-.5,1.63-1.25,2.12-2.15.18-.34.58-1.13,1.19-2.37s1-2.08,1.24-2.56c.85-1.73,1.49-3.55,1.92-5.43.7-2.58,1.34-5.32,1.88-8.11s1.44-6,2.48-9.67,2-6.73,2.85-9.09c1.16-3.07,2-5.52,2.56-7.5.52-1.69.82-3.44.88-5.21.11-1.42-.38-2.81-1.35-3.85-1.78-1.57-5.51-1.57-7.61.01Z"/><path d="M288.25,27.03c-.36-.39-.81-.69-1.31-.87-.44-.19-.91-.32-1.39-.39-.33,0-.87-.08-1.61-.12s-1.39-.06-2-.08-1.56,0-2.75,0c-6,0-10.18.83-12.84,2.55-3.21,1.88-5.72,4.74-7.18,8.16-1.41,3.3-2.13,7.74-2.13,13.17l-.12,10.68,11,3.6c3.51,1.15,5.37,1.87,6.35,2.3-.84.32-1.71.56-2.6.73-1.72.38-3.48.57-5.24.57-1.63-.03-3.25.04-4.87.21-1.11.04-2.17.46-3.01,1.18-.71.8-1.07,1.86-1,2.93,0,1.71.83,3.32,2.22,4.32,1.46,1.05,3.16,1.74,4.94,2,1.56.27,3.14.41,4.73.4h1.2c2.2-.1,4.39-.48,6.49-1.14,2.08-.62,4.05-1.57,5.84-2.8,1.51-1.03,2.79-2.37,3.76-3.92.78-1.55,1.14-3.27,1.06-5,.16-2.81-1-5.54-3.14-7.37-1.87-1.5-5.33-3-10.56-4.44-5.54-1.67-6.51-2.49-6.7-2.71s-.7-1.29.68-4.65c1.18-2.87,2.93-5.46,5.14-7.64,2.55-2.54,3.78-3.27,4.28-3.48s1.66-.46,4.33-.08c1,.15,1.77.25,2.27.3.59.05,1.17.05,1.76,0,.56-.02,1.1-.15,1.61-.37.55-.29.98-.76,1.24-1.33.25-.49.39-1.03.42-1.58v-2.54c0-.48-.09-.95-.26-1.4-.13-.43-.33-.84-.61-1.19Z"/><path d="M333.32,33.7c-.25-.67-.59-1.32-1-1.91-.48-.72-1.03-1.39-1.64-2l-1.61-1.68c-1.56-1.71-3.4-3.13-5.45-4.2-2.07-.76-4.28-1.1-6.49-1-4.01-.09-7.96,1.04-11.31,3.24h0c-2.43,1.59-4.63,3.52-6.52,5.73-1.59,1.97-2.75,4.25-3.4,6.7-.77,3.15-1.2,6.36-1.29,9.6-.57,10.37,1.22,18.06,5.31,22.88,3.78,4.44,9.71,6.69,17.69,6.69.81,0,1.64,0,2.49-.07l3.38-.25c.82-.06,1.63-.17,2.43-.32.69-.09,1.36-.28,2-.56.53-.27.98-.66,1.33-1.14.4-.5.66-1.11.74-1.75.05-.53.08-1.06.07-1.59,0-1.39-.17-3.34-1.63-4.21-.67-.39-1.77-.68-5.28-.24-3.1.31-6.23-.28-9-1.7-2.69-1.14-4.94-3.13-6.38-5.67l-.84-1.58,5.84-.64c2.72-.2,5.4-.72,8-1.56,2.33-.81,4.53-1.93,6.56-3.33,1.4-1,2.42-1.75,3.07-2.31.82-.72,1.5-1.59,2-2.56.52-.96.88-1.99,1.05-3.07.13-.87.26-2.23.37-4.08.08-1.25.12-2.25.12-3,0-.79-.05-1.58-.15-2.37-.09-.7-.24-1.38-.46-2.05ZM307.88,45.08l-1.68-1.74,4.24-4.11c1.26-1.33,2.64-2.54,4.11-3.63.64-.46,1.31-.89,2-1.27.56.21,1.07.53,1.52.92,1.08.82,2.06,1.76,2.93,2.8l2.54,3-2.26,2c-1.05.87-2.22,1.59-3.48,2.14-1.27.63-2.61,1.1-4,1.4-1.2.28-2.44.33-3.66.14-.89-.33-1.67-.9-2.26-1.65Z"/><path d="M378.9,38.87c-.08-.68-.22-1.35-.43-2-.24-.68-.58-1.33-1-1.92-.42-.64-.89-1.24-1.42-1.8l-1.82-1.91c-1.56-1.71-3.41-3.13-5.46-4.2-2.07-.76-4.28-1.1-6.48-1-4.01-.09-7.96,1.04-11.32,3.24h0c-2.42,1.59-4.61,3.5-6.51,5.69-1.59,1.97-2.74,4.25-3.4,6.7-.77,3.14-1.2,6.36-1.28,9.6-.57,10.37,1.21,18.07,5.31,22.88,3.77,4.44,9.71,6.69,17.68,6.69.81,0,1.64,0,2.49-.07l3.39-.25c.82-.06,1.63-.16,2.43-.32.69-.09,1.36-.28,2-.55.53-.27.99-.66,1.34-1.14.4-.51.66-1.12.74-1.76.05-.53.08-1.06.07-1.59,0-1.39-.17-3.34-1.64-4.21-.67-.39-1.77-.68-5.27-.24-3.1.32-6.23-.27-9-1.7-2.69-1.14-4.93-3.13-6.37-5.67l-.85-1.57,5.85-.65c2.72-.2,5.41-.72,8-1.56,2.33-.81,4.53-1.93,6.56-3.33,1.4-1,2.43-1.75,3.07-2.3.82-.72,1.5-1.59,2-2.56.5-.96.84-2.01,1-3.08.13-.87.26-2.23.37-4.08.08-1.25.11-2.24.11-3,0-.78-.06-1.56-.16-2.34ZM353.04,48.21l-1.68-1.74,4.19-4.11c1.28-1.32,2.67-2.54,4.15-3.63.64-.46,1.31-.88,2-1.26.56.21,1.07.52,1.52.91,1.07.82,2.05,1.76,2.92,2.8l2.55,3-2.27,2c-1.06.87-2.22,1.59-3.47,2.14-1.27.62-2.62,1.09-4,1.39-1.2.29-2.44.34-3.66.14-.89-.33-1.67-.89-2.25-1.64Z"/><path d="M127.2,33.26c1.76-.57,3.59-.9,5.44-1,2.74-.27,5.5-.41,8.25-.4,4.56,0,7.65.16,9.28.62,2.08.72,3.97,1.92,5.51,3.49,1.57,1.51,2.82,3.32,3.68,5.32.93,2.62,1.51,5.35,1.73,8.12.66,5.09.5,10.25-.46,15.29-.95,4.92-2.39,7.92-4.3,9-2.6,1.54-5.09,3.28-7.43,5.2-1.45,1.25-3.16,2.16-5,2.69-2.23.31-4.49.28-6.71-.09-2.48-.37-4.89-1.14-7.13-2.26-2.41-1.41-4.61-3.17-6.51-5.22-1.26-1.24-2.16-2.14-2.7-2.7-.65-.69-1.23-1.43-1.73-2.23-.46-.66-.86-1.37-1.17-2.12-.26-.85-.45-1.73-.56-2.61-.18-1.12-.28-2.26-.29-3.4v-4.84c0-12.68,3.37-20.3,10.1-22.86ZM147.2,42.05c-3.02-2.87-4.91-4.3-5.66-4.3-1.62,0-3.68,1-6.19,2.83-2.37,1.7-4.42,3.8-6.07,6.2-2.53,3.69-3.67,7.02-3.42,10,.25,2.98,1.95,6.18,5.1,9.61l5.23,5.67,6.41-2.93c3.51-1.42,6.48-3.93,8.45-7.16,1.79-3.01,2.4-6.57,1.71-10-.78-3.8-2.71-7.26-5.54-9.92h-.02Z"/><rect x="0" y="0" width="103.05" height="103.05" rx="51.52" ry="51.52" style="fill:url(#linear-gradient);"/></svg>