<svg xmlns="http://www.w3.org/2000/svg" width="100mm" height="100mm" viewBox="0 0 100 100"><path d="M24.326 13.46H78.21v74.867s-.334 7.418-26.072 7.668c-25.739.251-27.813-7.668-27.813-7.668z" style="fill:#faffff;fill-opacity:1;stroke:#000;stroke-width:5.79097;stroke-miterlimit:4;stroke-dasharray:none;stroke-opacity:1"/><path d="m27.04 58.263 23.924 3.624 24.53-3.624v29.122s-.405 6.088-24.43 6.343c-24.027.255-24.024-6.343-24.024-6.343z" style="fill:#72b7f4;fill-opacity:1;stroke:#000;stroke-width:0;stroke-miterlimit:4;stroke-dasharray:none;stroke-opacity:1"/><path d="m26.874 41.794 23.924 2.636 24.53-2.636v21.177s-.406 4.427-24.432 4.612c-24.026.186-24.022-4.612-24.022-4.612z" style="fill:#fff;fill-opacity:1;stroke:#000;stroke-width:0;stroke-miterlimit:4;stroke-dasharray:none;stroke-opacity:1"/><path d="m26.874 16.335 23.924 3.169 24.53-3.169v25.46s-.406 5.322-24.432 5.545c-24.026.223-24.022-5.546-24.022-5.546z" style="fill:#72b7f4;fill-opacity:1;stroke:#000;stroke-width:0;stroke-miterlimit:4;stroke-dasharray:none;stroke-opacity:1"/><ellipse cx="71.078" cy="28.679" rx="13.696" ry="19.291" style="fill:#588000;fill-opacity:1;stroke:#000;stroke-width:4.00217;stroke-miterlimit:4;stroke-dasharray:none;stroke-opacity:1" transform="rotate(25.917)"/><ellipse cx="-50.609" cy="35.115" rx="4.933" ry="4.461" style="fill:#a00;fill-opacity:1;stroke:#000;stroke-width:1.84188;stroke-miterlimit:4;stroke-dasharray:none;stroke-opacity:1" transform="matrix(-.49067 -.87135 .99929 -.03773 0 0)"/><ellipse cx="51.253" cy="10.637" rx="26.898" ry="6.526" style="fill:#e6e6e6;fill-opacity:1;stroke:#000;stroke-width:5.79097;stroke-miterlimit:4;stroke-dasharray:none;stroke-opacity:1"/><path d="M36.494 8.778c1.842-.115 2.47.53 2.656 1.42.187.89-.097 1.788-1.939 1.904-.849.053-2.423-.462-3.065-.678-.75-.251-1.565-.327-1.665-.807-.1-.472.614-.74 1.222-1.077.538-.298 1.927-.707 2.791-.762z" style="fill:#e6e6e6;fill-opacity:1;stroke:#000;stroke-width:.574412;stroke-miterlimit:4;stroke-dasharray:none;stroke-opacity:1"/></svg>