<?xml version="1.0" encoding="utf-8"?>
<!-- Generator: Adobe Illustrator 27.7.0, SVG Export Plug-In . SVG Version: 6.00 Build 0)  -->
<svg version="1.1" id="Layer_1" xmlns="http://www.w3.org/2000/svg" xmlns:xlink="http://www.w3.org/1999/xlink" x="0px" y="0px"
	 viewBox="0 0 512 512" style="enable-background:new 0 0 512 512;" xml:space="preserve">
<style type="text/css">
	.st0{fill:url(#SVGID_1_);}
	.st1{fill:#333333;}
	.st2{fill:#232323;}
	.st3{fill:#FFFFFF;}
	.st4{fill:#BFBFBF;}
</style>
<g>
	
		<linearGradient id="SVGID_1_" gradientUnits="userSpaceOnUse" x1="-61.564" y1="647.1451" x2="-50.8961" y2="647.1451" gradientTransform="matrix(0 -47.9946 -47.9946 0 31315.4844 -2442.74)">
		<stop  offset="0" style="stop-color:#E37200"/>
		<stop  offset="1" style="stop-color:#E3913E"/>
	</linearGradient>
	<path class="st0" d="M0,256c0,141.4,114.6,256,256,256s256-114.6,256-256S397.4,0,256,0S0,114.6,0,256"/>
	<g>
		<g transform="matrix(.05417 0 0 -.05417 -3.9 51.68)">
			<path class="st1" d="M4975.5-3642c46.3,21.8,91.6,45.8,139,64.9c86.4,34.9,177.2,52,269.9,58.6
				c198.3,14.1,382.3-33.2,552.1-134.5c43.5-25.9,86.5-54,123.1-90.8c318.2-319.2,637.8-637.2,955.6-956.9
				c59.7-60,104.5-132.3,141.8-208.3c92.9-189,111.8-388.8,73.8-593.3c-23.1-123.9-71.7-238.9-146.4-342.9
				c-62-86.4-135.7-158.2-220-222.9c-117.2-89.9-248.6-141.5-391.4-166.3c-127.7-22.2-254.9-15.5-381.8,15.2
				c-119,28.9-223.2,87.1-325.6,150.2c-12.9,8-23.5,20-34.7,30.6c-22.5,21.3-45,42.4-66.8,64.3c-291.5,291.3-582.7,583-874.5,874
				c-56.6,56.5-103.2,119.8-145,187.6c-70.2,113.9-106.7,239.1-120.4,369.9c-15.5,147.4,0.7,292.9,56.1,431.8
				c18.9,47.4,43.2,92.5,65.1,138.7l363.1-362.8c-26.8-40.9-27-88.6-23.4-133c9.8-121,55.1-226.4,143.6-314.1
				c287.4-284.8,572.9-571.4,858.4-858c38.5-38.7,82.1-67,130.5-92.7c212.1-112.7,485-10.7,594.1,167.8
				c105.2,172.2,97.8,414.5-66.8,579.2c-287.8,288-576.1,575.5-863.5,863.9c-118.8,119.2-263.2,151.5-424.4,129.9
				c-6.5-0.9-12.2-8.6-18.2-13.2L4975.5-3642 M4560.1-3887.1c-57.2-28.4-113.6-58.4-174.9-78.2c-196.9-63.5-393.3-63.6-590.7-1
				c-137.2,43.5-255.2,117-356.5,218.2c-297,296.7-593,594.3-890.8,890.2c-141.8,141-221.8,313.1-252,506.9
				c-35.2,226,9.3,441,132.3,633.4c113,176.6,267.6,306.6,469.3,378.6c167.3,59.8,337.5,69.6,508.5,36.1
				c125.7-24.6,244.2-72.5,348.8-153c47.1-36.2,91.2-74.4,132.8-116c289.7-289.4,578.4-579.8,869.1-868.2
				c116.3-115.4,189.5-254.6,230.4-410.1c46.8-177.8,41.8-356.7-18.9-531.4c-20.9-60.1-51.3-117-77.4-175.3l-363.1,362.8
				c28.1,32.1,24,74.2,22.9,109.8c-3.9,126.5-44.9,239.4-137.6,331.5c-288.5,286.8-575.6,574.8-863,862.7
				c-27.3,27.4-57.9,49.4-90.3,70.6c-226.7,148.2-539.8,51.5-657.4-182.6c-94.1-187.4-41.6-413.6,86.1-539.7
				c291.3-287.6,579.9-577.8,868.6-868c89.8-90.3,199.7-131,323.7-138.8c40.4-2.6,81.8-1.3,117,24.7L4560.1-3887.1"/>
			<path class="st2" d="M4527.2-3194l363.1-362.8l85.2-85.3l363.2-363c19.6-20.4,38.9-41,58.9-61c172.7-172.9,345.8-345.4,518-518.7
				c21.5-21.6,43.5-44.8,57.5-71.3c51.8-98.2,33.1-193.2-45.7-273.8c-69.6-71.3-150.3-81.1-240.9-53.4c-38.6,11.8-66.1,38-93.6,65.5
				c-194.7,194.5-389.7,388.7-584.6,583l-363.1,362.8c-28.4,28.3-56.7,56.6-85.1,84.9l-362.8,363.4c-21.5,22.1-42.8,44.5-64.6,66.3
				c-125.4,125.6-251.2,250.7-376.1,376.8c-19.6,19.8-39.3,41.4-52.1,65.8c-48.5,91.8-23.9,205.6,44.2,269.1
				c82.8,77.3,194.6,93.6,289.1,32.8c21.3-13.7,39.2-33,57.4-51C4239.4-2907.2,4383.3-3050.6,4527.2-3194"/>
			<path class="st3" d="M4975.5-3642c46.3,21.8,91.6,45.8,139,64.9c86.4,34.9,177.2,52,269.9,58.6
				c198.3,14.1,382.3-33.2,552.1-134.5c43.5-25.9,86.5-54,123.1-90.8c318.2-319.2,637.8-637.2,955.6-956.9
				c59.7-60,104.5-132.3,141.8-208.3c92.9-189,111.8-388.8,73.8-593.3c-23.1-123.9-71.7-238.9-146.4-342.9
				c-62-86.4-135.7-158.2-220-222.9c-117.2-89.9-248.6-141.5-391.4-166.3c-127.7-22.2-254.9-15.5-381.8,15.2
				c-119,28.9-223.2,87.1-325.6,150.2c-12.9,8-23.5,20-34.7,30.6c-22.5,21.3-45,42.4-66.8,64.3c-291.5,291.3-582.7,583-874.5,874
				c-56.6,56.5-103.2,119.8-145,187.6c-70.2,113.9-106.7,239.1-120.4,369.9c-15.5,147.4,0.7,292.9,56.1,431.8
				c18.9,47.4,43.2,92.5,65.1,138.7l363.1-362.8c-26.8-40.9-27-88.6-23.4-133c9.8-121,55.1-226.4,143.6-314.1
				c287.4-284.8,572.9-571.4,858.4-858c38.5-38.7,82.1-67,130.5-92.7c212.1-112.7,485-10.7,594.1,167.8
				c105.2,172.2,97.8,414.5-66.8,579.2c-287.8,288-576.1,575.5-863.5,863.9c-118.8,119.2-263.2,151.5-424.4,129.9
				c-6.5-0.9-12.2-8.6-18.2-13.2L4975.5-3642 M4560.1-3887.1c-57.2-28.4-113.6-58.4-174.9-78.2c-196.9-63.5-393.3-63.6-590.7-1
				c-137.2,43.5-255.2,117-356.5,218.2c-297,296.7-593,594.3-890.8,890.2c-141.8,141-221.8,313.1-252,506.9
				c-35.2,226,9.3,441,132.3,633.4c113,176.6,267.6,306.6,469.3,378.6c167.3,59.8,337.5,69.6,508.5,36.1
				c125.7-24.6,244.2-72.5,348.8-153c47.1-36.2,91.2-74.4,132.8-116c289.7-289.4,578.4-579.8,869.1-868.2
				c116.3-115.4,189.5-254.6,230.4-410.1c46.8-177.8,41.8-356.7-18.9-531.4c-20.9-60.1-51.3-117-77.4-175.3l-363.1,362.8
				c28.1,32.1,24,74.2,22.9,109.8c-3.9,126.5-44.9,239.4-137.6,331.5c-288.5,286.8-575.6,574.8-863,862.7
				c-27.3,27.4-57.9,49.4-90.3,70.6c-226.7,148.2-539.8,51.5-657.4-182.6c-94.1-187.4-41.6-413.6,86.1-539.7
				c291.3-287.6,579.9-577.8,868.6-868c89.8-90.3,199.7-131,323.7-138.8c40.4-2.6,81.8-1.3,117,24.7L4560.1-3887.1"/>
			<path class="st4" d="M4527.2-3194l363.1-362.8l85.2-85.3l363.2-363c19.6-20.4,38.9-41,58.9-61c172.7-172.9,345.8-345.4,518-518.7
				c21.5-21.6,43.5-44.8,57.5-71.3c51.8-98.2,33.1-193.2-45.7-273.8c-69.6-71.3-150.3-81.1-240.9-53.4c-38.6,11.8-66.1,38-93.6,65.5
				c-194.7,194.5-389.7,388.7-584.6,583l-363.1,362.8c-28.4,28.3-56.7,56.6-85.1,84.9l-362.8,363.4c-21.5,22.1-42.8,44.5-64.6,66.3
				c-125.4,125.6-251.2,250.7-376.1,376.8c-19.6,19.8-39.3,41.4-52.1,65.8c-48.5,91.8-23.9,205.6,44.2,269.1
				c82.8,77.3,194.6,93.6,289.1,32.8c21.3-13.7,39.2-33,57.4-51C4239.4-2907.2,4383.3-3050.6,4527.2-3194"/>
			<path class="st3" d="M6197.6-2442.6l-497.2-497.2l-56.2-5.4l-58.4,58.4c0.5,18.7,1.1,39.7,1.7,59.7l486.8,486.8
				c33.3,17,64.4,17.9,92.9-4.2C6197.8-2368.3,6207.2-2400.4,6197.6-2442.6 M6518.6-3153.8l19.4-70.5
				c-18.1-21.2-35.3-41.3-49.2-57.6c-66.7-10.2-589.5-13.1-708-4.5l-57.4,57.4l14.1,69c30.7,30.2,61.6,36.2,95.1,36.2
				c197.4-0.2,394.8-0.2,592.2,0.1C6455.2-3123.7,6483.4-3130,6518.6-3153.8 M5238.4-2051.1l46.5,46.5
				c40.2,10.6,78.9,11.9,112.2-34.2c1.6-14.6,5.8-35.8,5.8-57c0.5-205.5,0.3-410.9,0.1-616.4c0-13.4-2.1-26.8-3.2-39.3
				c-22.9-42.3-57.7-55.7-105.9-48.6l-54.7,54.7C5237.7-2518.8,5238.8-2286.7,5238.4-2051.1"/>
		</g>
	</g>
</g>
</svg>
