<?xml version="1.0" encoding="utf-8"?>
<!-- Generator: Adobe Illustrator 27.7.0, SVG Export Plug-In . SVG Version: 6.00 Build 0)  -->
<svg version="1.1" id="Layer_1" xmlns="http://www.w3.org/2000/svg" xmlns:xlink="http://www.w3.org/1999/xlink" x="0px" y="0px"
	 viewBox="0 0 512 512" style="enable-background:new 0 0 512 512;" xml:space="preserve">
<style type="text/css">
	.st0{fill:#F5E09A;}
	.st1{fill:#3D3D3D;}
</style>
<circle class="st0" cx="256" cy="256.3" r="256"/>
<g>
	<path class="st1" d="M435.2,251.7c0,11.5-2.8,25.4-5.6,37.6v0.1l0,0.1c-7.2,29.2-33.3,49.6-63.4,49.6h-0.8
		c-36.9,0-60.1-30.3-60.1-64.1v-48.5L277.9,267l-1.5,1.2c-11.8,9.8-28.9,9.8-40.7,0l-1.5-1.2l-28.3-41.3v100.1h-27v-109
		c0-20.6,24.5-32.6,40.7-18.2l1.2,1.1l33.1,48.3c1.3,0.6,2.8,0.6,4.1,0l32.4-48.1l1.5-1.2c15.4-12.9,40.4-3.1,40.4,18.5v57.5
		c0,22,14,37.2,33.1,37.2h0.8c17.7,0,32.9-12,37.1-29c2.8-12.1,4.9-23.3,4.9-31.3c-0.4-87-74-153.4-163-147.4
		c-75.1,5.2-135.8,65.9-141,141c-5.8,83.8,57.4,156.4,141.2,162.3c3.5,0.2,7.1,0.4,10.7,0.4v27c-98.9,0.1-179.1-80-179.2-178.9
		c0-4.2,0.1-8.3,0.4-12.5c6.2-88.6,77.5-160,166.1-166.1C347.1,70.4,434.7,148.3,435.2,251.7L435.2,251.7z"/>
</g>
</svg>
