<svg xmlns="http://www.w3.org/2000/svg" version="1.2" viewBox="0 0 1000 1000"><path d="M436.2 660c0-23.9 37.1-23.7 82.8-23.7 45.7 0 82.8-.2 82.8 23.7 0 23.8-37.1 43.1-82.8 43.1-45.7 0-82.8-19.3-82.8-43.1z"/><path d="M965.4 553.7c0 43.1-27.8 79.6-66.4 92.8C843.9 806 692.4 920.9 514.4 920.9c-93.3 0-179.3-31.6-248.1-84.6-18.1 7.8-38.2 12.2-59.2 12.2-82.7 0-149.6-67-149.6-149.6 0-47.1 21.7-89 55.6-116.5-3.8-22.3-5.9-45.2-5.9-68.7 0-80.2 23.4-154.9 63.6-218q-5.2-6.6-9.3-14-4.1-7.4-6.8-15.3-2.8-8-4.2-16.3-1.4-8.3-1.4-16.7c0-55.6 45-100.6 100.6-100.6 25.6 0 48.9 9.6 66.6 25.4 58.7-32.8 126.2-51.6 198.1-51.6 73.5 0 142.5 19.6 202.1 53.9 18-17.1 42.2-27.7 68.9-27.7 55.6 0 100.6 45 100.6 100.6 0 25.5-9.7 48.7-25.4 66.4 5.9 9.5 11.3 19.3 16.5 29.3 19.3 4.5 33.8 21.9 33.8 42.6 0 24.2-19.6 43.8-43.8 43.8-24.1 0-43.7-19.6-43.7-43.8 0-11.8 4.7-22.5 12.3-30.4-58.5-98-167.8-164.1-293.4-164.1-136.5 0-254 78.1-307.6 190.5-22.9 43.7-36 93.4-36 146 0 12.1.8 24 2.1 35.7 2.1-.1 4.2-.2 6.3-.2 82.6 0 149.6 67 149.6 149.7 0 27.4-7.4 53.2-20.4 75.3 50.8 34.8 112.1 55.2 178.1 55.2 132.5 0 246-82.1 292.7-198.1-23.3-17.9-38.3-46-38.3-77.6 0-54.3 44-98.3 98.3-98.3s98.3 44 98.3 98.3z"/><path d="M383.2 508.9c9.3 18.1 31.6 25.1 49.7 15.8 1.9-1 3.6-2.2 5.2-3.5-20.2 47.8-57.9 77.3-89 67.4-34.5-10.9-47.8-65.7-29.8-122.5 18-56.8 60.5-94 94.9-83.1 28.9 9.2 42.9 49.5 36 95.8-.5-1.3-.9-2.6-1.6-3.8-9.4-18.1-31.6-25.2-49.7-15.8-18.1 9.4-25.1 31.6-15.7 49.7zM600 521.2c1.6 1.3 3.3 2.5 5.2 3.5 18.1 9.3 40.3 2.3 49.7-15.8 9.4-18.1 2.3-40.3-15.7-49.7-18.1-9.4-40.4-2.3-49.7 15.8-.7 1.2-1.1 2.5-1.6 3.8-6.9-46.3 7-86.6 36-95.8 34.4-10.9 76.9 26.3 94.9 83.1s4.6 111.6-29.8 122.5c-31.1 9.9-68.8-19.6-89-67.4z"/></svg>