<svg xmlns="http://www.w3.org/2000/svg" xmlns:xlink="http://www.w3.org/1999/xlink" version="1.1" id="Layer_1" x="0px" y="0px" style="enable-background:new 0 0 512 512;" xml:space="preserve" viewBox="19 -0.03 473.9 512.15">
<style type="text/css">
	.st0{fill-rule:evenodd;clip-rule:evenodd;fill:#0D1A2B;}
	.st1{fill:#E7C200;}
	.st2{fill:#FFDA18;}
	.st3{fill:#FFFFFF;}
	.st4{fill:#0D1A2B;}
</style>
<g>
	<path class="st0" d="M273.3,4.4c-10.8-5.9-23.8-5.9-34.6,0L61.4,101.9c-0.1,0.1-0.3,0.2-0.4,0.2L37.6,115   C26.2,121.3,19,133.3,19,146.4v219.2c0,13.1,7.1,25.2,18.6,31.5l179,98.4c0.2,0.1,0.5,0.2,0.7,0.4l21.4,11.8   c10.8,5.9,23.8,5.9,34.6,0l21.5-11.8c0.2-0.1,0.4-0.2,0.6-0.3l178.9-98.4c11.5-6.3,18.6-18.4,18.6-31.5V146.4   c0-13.1-7.1-25.2-18.6-31.5l-23.3-12.8c-0.2-0.1-0.4-0.2-0.5-0.3L273.3,4.4z M284.7,256l165.9-91.2c0.2-0.1,0.3-0.2,0.5-0.3l2-1.1   c5.5-3,12.3,1,12.3,7.3v170.6c0,6.3-6.8,10.3-12.3,7.3l-1.5-0.8c-0.3-0.2-0.6-0.4-1-0.5L284.7,256z M61,164.6   c0.1,0.1,0.3,0.2,0.4,0.2L227.3,256L61.4,347.2c-0.3,0.2-0.6,0.3-0.9,0.5l-1.6,0.9c-5.5,3-12.3-1-12.3-7.3V170.7   c0-6.3,6.8-10.3,12.3-7.3L61,164.6z M437.5,126.2L282.1,40.8c-5.4-3-12.1,0.9-12.3,7c0,0.1,0,0.2,0,0.2v184.6l167.7-92.2   C442.9,137.3,442.9,129.4,437.5,126.2z M74.5,140.5l167.7,92.2V48.1c0-0.1,0-0.2,0-0.2c-0.2-6.2-6.8-10-12.3-7L74.5,126.2   C69.1,129.4,69.1,137.3,74.5,140.5z M74.7,385.9c-5.6-3.1-5.7-11-0.4-14.3l167.9-92.3v184.6c0,0.1,0,0.2,0,0.2   c-0.2,6-6.6,9.9-11.9,7.2L74.7,385.9z M269.8,463.9V279.4l167.9,92.3c5.3,3.3,5.1,11.2-0.5,14.3l-155.5,85.5   c-5.4,2.7-11.8-1.1-12-7.2c0,0,0-0.1,0-0.1C269.8,464,269.8,464,269.8,463.9z"/>
	<path class="st1" d="M252,28.6c2.5-1.4,5.5-1.4,8,0l177.3,97.4c5.7,3.1,5.7,11.4,0,14.5L260,238c-2.5,1.4-5.5,1.4-8,0L74.7,140.6   c-5.7-3.1-5.7-11.4,0-14.5L252,28.6z"/>
	<path class="st2" d="M46.7,170.7c0-6.3,6.8-10.3,12.3-7.3l178.9,98.4c2.6,1.5,4.3,4.2,4.3,7.3v194.9c0,6.3-6.8,10.3-12.3,7.3   L51,372.8c-2.6-1.5-4.3-4.2-4.3-7.3V170.7z"/>
	<path class="st3" d="M453.1,163.4c5.5-3,12.3,1,12.3,7.3v194.9c0,3-1.6,5.8-4.3,7.3l-179,98.4c-5.5,3-12.3-1-12.3-7.3V269.1   c0-3,1.7-5.8,4.3-7.3L453.1,163.4z"/>
	<path class="st4" d="M121.8,323.6c0,0.1,0,0.2,0,0.3l-41.9-22.1c0-0.1,0-0.2,0-0.3c1-13.1,11.2-18.7,22.7-12.6   C114.2,295,122.8,310.5,121.8,323.6z"/>
	<path class="st4" d="M187.8,361.7c0,0.1,0,0.2,0,0.3l-41.9-22.1c0-0.1,0-0.2,0-0.3c1-13.1,11.2-18.7,22.7-12.6   C180.2,333.1,188.8,348.7,187.8,361.7z"/>
</g>
</svg>