<svg xmlns="http://www.w3.org/2000/svg" xmlns:xlink="http://www.w3.org/1999/xlink" version="1.1" id="Layer_1" x="0px" y="0px" style="enable-background:new 0 0 512 512;" xml:space="preserve" viewBox="25.07 0 461.86 511.99">
<style type="text/css">
	.st0{fill:#6BC2F9;}
</style>
<g transform="translate(0.000000,1000.000000) scale(0.100000,-0.100000)">
	<g>
		<path class="st0" d="M1982.9,9999.2c-4.1-1-25.2-4.6-46.3-7.7c-153.5-24.7-328-110.2-476.4-233.8    c-50-41.7-150.9-145.7-196.7-202.4c-93.2-115.9-288.4-406.8-358.9-534.5c-4.6-8.2-13.4-23.7-19.6-33.5    c-14.9-25.7-63.9-112.8-92.7-167.4c-40.2-75.2-148.3-296.6-148.3-303.8c0-1-8.2-20.1-18.5-42.2c-10.3-22.1-23.2-51.5-28.8-65.9    c-5.1-13.9-12.9-32.4-16.5-41.2c-21.6-47.9-76.2-195.2-106.1-285.8c-16.5-50.5-51-160.7-54.1-174.1c-1.5-4.6-10.3-38.6-20.6-75.7    c-9.8-36.6-19.1-71.6-20.6-77.2c-12.4-50.5-24.7-103.5-30.4-131.3c-16-74.7-28.3-137.5-31.4-159.6c-1.5-12.9-4.1-26.8-5.1-30.9    c-2.6-8.8-5.7-28.3-10.3-59.2c-1.5-11.3-5.1-33.5-7.7-48.9c-2.6-15.4-6.2-41.2-7.7-56.6c-2.1-15.4-4.1-34-5.1-41.2    c-1-7.2-3.6-27.8-5.7-46.3s-4.1-39.1-5.1-46.3c-1-7.2-3.1-31.9-4.6-55.6c-2.1-23.2-4.1-46.3-5.1-51.5    c-12.9-69.5-13.4-627.2,0-696.3c1-4.1,3.1-30.9,5.1-59.2c2.1-28.3,4.6-52.5,5.1-54.1c1-1.5,3.1-18,4.6-36.6    c2.1-18,4.1-38.6,5.7-45.3c1-6.7,3.6-25.2,5.7-41.2c1.5-16,4.1-30.4,5.1-31.9c0.5-1.5,3.1-14.4,4.6-28.3    c2.1-13.9,8.2-45.8,13.9-71.6c5.7-25.2,11.3-51.5,12.4-58.2c17-87.5,59.2-222.5,100.9-322.9c168.4-403.2,412.5-627.8,729.7-669    c31.4-4.1,125.7-4.1,164.3-0.5c26.3,3.1,94.8,16,129.8,25.2c7.2,2.1,62.3,21.1,99.4,35l14.4,5.1l-30.9,31.9    c-39.1,39.7-68,76.7-119.5,153.5c-22.1,33-42.2,61.3-44.8,62.8c-2.6,1.5-20.6,5.1-40.2,8.2c-19.6,3.1-42.2,6.7-51,8.2    c-31.4,5.1-101.5,32.4-140.1,54.1c-75.7,42.7-147.3,127.2-194.7,228.7c-29.4,63.9-76.2,200.3-87,254.9    c-1.5,7.2-8.2,40.7-15.4,74.7c-6.7,34-13.9,74.7-15.4,90.6c-2.1,16-4.1,33.5-5.1,38.6c-2.6,13.4-8.8,83.4-11.3,125.1    c-7.2,131.8-8.8,189.5-8.8,312.1s4.1,252.3,9.3,306.4c1,9.8,3.1,38.6,5.1,63.3c1.5,25.2,4.1,53,5.1,61.8c1,9.3,3.1,31.4,5.1,50    c1.5,18.5,4.1,39.1,5.1,46.3c1,7.2,3.1,27.8,5.1,46.3c1.5,18.5,4.1,37.1,5.1,41.2s3.6,18,5.1,30.9c1.5,12.9,5.1,36,7.7,51.5    s6.2,38.6,7.7,51.5s4.1,26.8,5.1,30.9c1,4.1,3.1,17,5.1,28.3c1.5,11.3,3.6,24.2,5.1,28.3c1,4.1,3.1,16,4.6,25.7    s7.2,39.1,12.9,64.4c5.7,25.7,11.3,53.6,12.9,61.8c2.6,11.8,40.7,173.5,52.5,220.4c1,4.6,3.1,12.9,4.1,18    c3.6,14.4,28.3,98.9,37.6,129.8c4.6,15.4,9.3,30.9,9.8,33.5c3.1,17,74.7,232.3,102.5,309c86.5,237.4,189.5,474.8,316.2,728.7    c39.1,77.8,79.3,156.6,89.1,175.1c9.8,18.5,28.3,52,40.2,74.7c103,192.6,244.1,354.8,394,453.2c113.8,74.7,230.2,85.5,343,31.9    l34.5-16.5l40.2,38.1c72.6,67.5,185.9,156,215.8,167.4c2.6,1-6.2,13.9-20.6,28.8c-37.6,39.7-75.7,66.4-156,111.8    c-26.8,14.9-102.5,47.9-116.9,51c-5.7,1-14.9,4.1-20.6,6.7c-33,16-111.2,27.8-193.1,28.8    C2028.7,10000.3,1987,10000.3,1982.9,9999.2z"/>
		<path class="st0" d="M3222.9,9891.1c-1-0.5-16.5-2.6-35-4.6c-214.2-20.6-442.4-145.2-669-366.1    c-66.4-64.4-188.5-198.8-229.7-251.8c-8.2-11.3-24.7-31.9-36.6-46.3c-58.2-72.6-138.5-186.9-219.4-312.1    c-25.2-38.6-91.7-149.3-91.7-152.4c0-1-5.7-10.8-12.4-21.6c-6.2-10.3-19.1-33-28.3-50s-21.6-39.1-27.3-48.9    c-20.6-34.5-147.8-292-192.1-388.8c-112.3-244.6-186.4-440.8-254.4-669.5c-13.9-47.4-55.6-213.2-59.2-235.9    c-1.5-9.3-4.1-20.6-5.1-24.7c-1.5-4.1-3.6-12.9-5.1-20.1c-1-7.2-5.7-30.4-9.8-51.5c-4.6-21.1-9.3-47.4-10.8-58.7    c-2.1-10.8-4.1-21.1-5.1-23.2c-1-1.5-3.6-15.4-5.1-30.9c-2.1-14.9-4.1-28.8-5.1-30.9c-1-1.5-3.1-14.4-5.1-28.8    c-1.5-13.9-4.1-35-5.7-46.3s-4.1-28.8-5.7-38.6s-3.6-26.3-4.6-36c-1.5-19.6-6.7-63.9-10.3-92.7c-1-9.8-3.6-34-5.1-54.1    c-1.5-19.6-3.6-47.4-5.1-61.8c-12.4-143.7-12.9-553.6,0-636c1-7.2,3.1-33.5,5.1-58.7c2.1-25.7,4.1-50,5.1-54.6    c1-5.1,3.1-21.1,5.1-36.6c6.7-56.6,29.4-178.7,44.3-239c69-277.1,208.6-523.2,383.1-674.6c49.4-43.3,143.2-97.3,211.1-122.6    c52-19.6,90.1-28.3,163.2-39.7c32.4-4.6,206-3.6,230.7,2.1c7.2,1,27.3,5.1,45.3,8.2c167.9,29.4,418.7,150.9,611.3,295.1    c108.7,81.9,230.2,202.4,267.3,264.7c4.1,7.7-2.1,5.7-43.3-12.9c-299.7-133.9-566.5-225.6-715.8-246.2    c-12.9-1.5-27.8-4.1-33.5-5.7c-27.3-6.7-177.2-5.7-215.8,1.5c-166.3,30.4-279.1,131.3-352.2,316.2    c-15.4,39.7-44.3,137.5-49.4,169.9c-1.5,9.8-4.1,23.7-5.7,30.9c-11.8,53.6-26.8,191.6-31.4,288.4c-2.1,50.5-2.1,252.9,0,291    c1,14.4,3.6,52.5,5.1,85c2.1,32.4,4.6,68.5,5.7,79.8c1,11.3,3.6,38.1,5.1,59.2c2.1,21.1,4.1,42.2,5.1,46.3    c1,4.1,3.1,26.3,5.1,48.9c1.5,22.7,4.1,44.8,5.1,48.9c1,4.1,3.6,20.6,5.1,36c1.5,15.4,5.1,41.2,7.7,56.6    c3.1,15.4,9.8,58.7,16,95.3c10.8,69,42.2,226.6,52,262.6c2.6,11.3,6.2,26.3,7.7,33.5c6.7,37.6,51.5,202.4,79.8,296.1    c44.3,145.7,128.2,381.6,166.3,468.6c3.6,8.8,11.8,28.3,18,43.8c6.2,15.4,18,42.7,26.3,60.8c8.2,18,14.9,33.5,14.9,35    c0,1,9.3,22.1,20.6,46.3s20.6,44.8,20.6,45.8c0,1.5,60.8,129.3,86,180.2c69.5,141.6,178.2,339.4,272.9,497.5    c27.8,46.3,52.5,88.6,55.6,93.2c25.2,43.8,93.2,148.3,122,188.5c106.1,147.3,250.8,281.7,364.1,338.3    c110.2,55.6,199.8,59.7,314.7,14.4c28.3-11.3,98.9-50.5,115.9-64.4c3.1-2.6,23.2-18.5,45.3-35.5c44.3-34,138-125.7,186.4-181.8    c17-19.6,33.5-38.1,36.6-41.2c17-18,110.7-144.7,151.9-206.5c80.9-120.5,138-219.4,211.1-366.7c25.7-52,47.9-94.2,48.9-94.2    c1.5,0,1.5,1.5,0,4.1c-1,2.1-3.6,26.8-5.1,55.1c-3.1,44.8-8.2,89.6-16.5,136.5c-1,7.2-3.6,21.1-5.1,30.9    c-69,422.3-258.5,804.4-509.3,1024.3c-94.2,82.4-239.5,154-351.2,173c-9.3,1.5-24.7,4.1-33.5,5.7    C3344.5,9889.5,3225.5,9893.7,3222.9,9891.1z"/>
		<path class="st0" d="M4514,8448.1c-30.9-41.2-63.3-85-72.1-96.8c-53.6-75.7-100.9-142.1-121-170.5    c-114.8-161.2-142.1-199.3-146.8-204.4c-3.1-3.6-30.4-40.7-60.8-83.4c-30.4-42.2-75.2-105.1-99.9-139c-24.7-34-69-95.8-98.9-137    c-90.1-124.6-323.9-446-370.8-509.3c-73.1-98.4-137.5-196.7-149.9-229.2c-17-43.8-17-94.2,0-127.7c14.9-29.9,43.8-57.2,86.5-82.4    c92.7-54.1,189-38.6,258.5,42.2c18.5,21.1,69,116.4,87.5,165.3c3.6,9.8,10.3,22.1,14.4,27.3c4.1,4.6,6.2,8.8,4.6,8.8    s5.1,16,14.9,36c9.3,19.6,17.5,37.1,17.5,38.1c0,1.5,12.9,29.4,28.3,62.3c15.4,33.5,28.3,61.3,28.3,61.8c0,1,7.7,18.5,17.5,39.7    c15.4,33,90.1,198.3,129.3,284.8c7.7,17,19.1,42.7,25.7,56.6c6.2,14.4,33,73.1,59.2,131.3c26.3,58.2,53,118.4,60.3,133.9    c7.2,15.4,22.1,49.4,33.5,74.7c23.2,52,33.5,75.7,59.2,131.3c9.8,21.1,20.6,45.8,24.7,54.1c3.6,8.8,12.4,28.3,19.6,43.8    c10.8,23.7,82.9,184.4,117.9,262.6c5.7,12.9,17,37.1,24.7,54.1c8.2,17,20.6,44.3,27.8,60.8c7.2,16,19.1,42.2,26.3,57.7    c7.2,15.4,12.4,28.3,11.3,28.3C4571.1,8523.8,4545.4,8489.8,4514,8448.1z M3631.3,6923.3c23.2-9.3,36.6-34,39.1-72.6    c2.1-29.4,1-36-9.8-51.5c-23.7-34.5-71.1-46.9-109.7-28.3c-25.7,11.8-40.2,34.5-42.7,65.9c-1.5,22.1,0.5,29.9,12.9,48.4    C3546.3,6923.3,3591.1,6938.7,3631.3,6923.3z"/>
		<path class="st0" d="M3609.2,8269.4c-0.5-1-34-3.1-73.6-5.2c-73.6-3.1-107.6-5.7-144.2-11.3c-11.3-1.5-26.8-3.6-34.5-4.6    c-58.7-7.7-154-30.4-224.5-53.6c-175.6-57.7-322.4-146.8-442.4-268.8c-23.2-23.7-47.4-50-54.1-58.7c-6.2-8.2-12.9-16.5-14.4-18    c-20.1-18.5-88.1-125.7-118.4-184.9c-53.6-106.6-102.5-274-115.9-394.5c-1.5-13.9-4.1-31.4-5.1-38.6    c-15.4-83.4-12.4-339.9,5.1-448c1.5-9.8,4.1-25.2,5.1-34c1-8.2,8.2-43.3,15.4-77.2c78.3-350.2,284.3-618,584.5-760.1    c65.9-30.9,188-74.2,236.9-83.4c7.2-1.5,34-6.7,59.2-12.4c25.7-5.7,60.3-11.8,77.2-13.9c17-2.1,36.6-4.6,43.8-5.7    c82.4-10.3,289.4-13.9,374.4-5.7c57.7,5.1,184.9,26.8,235.3,40.2c162.2,42.7,326,122.6,440.8,214.7c70,56.1,154,148.3,202.9,222.5    c13.9,21.1,29.4,44.8,34.5,52c16,23.7,70,139.6,86,184.9c17.5,48.4,33.5,102.5,42.2,141.6c3.6,14.4,7.2,30.4,8.2,36    c4.1,18,22.1,123.1,24.7,144.2c14.4,121.5,14.9,384.7,0.5,440.3c-1,4.1-3.1,17-5.1,28.3c-27.8,191.6-114.3,382.6-241.5,533    c-24.7,28.8-140.1,142.6-150.9,148.3c-8.8,5.1-14.9-4.6-65.4-106.1l-55.6-112.3l60.3-97.3c33.5-54.1,71.6-120,85.5-146.8    c45.3-91.2,77.8-201.4,94.2-321.3c8.2-59.7,9.3-206.5,2.1-273.5c-4.1-36-23.2-143.2-31.9-175.1c-21.6-80.3-42.2-134.4-80.3-211.1    c-86.5-173-203.4-289.4-384.7-382.6c-75.2-38.6-177.2-76.2-233.3-86.5c-7.2-1.5-21.1-4.6-30.9-7.2c-9.8-2.6-31.9-6.2-48.9-8.2    c-17-1.5-35.5-4.1-41.2-5.7c-13.9-2.6-177.7-2.6-190.5,0.5c-5.7,1-25.2,3.6-43.8,5.7c-18.5,2.1-34.5,4.1-36,5.1    c-1.5,1-13.9,3.1-27.8,4.6c-13.9,2.1-27.3,4.6-28.8,5.7c-2.1,1-10.3,3.1-18.5,4.6c-58.7,10.3-208.1,64.4-286.3,103.5    c-138.5,69.5-260.6,179.2-331.6,299.2c-48.9,81.9-102,229.7-112.8,313.6c-1.5,11.3-3.6,28.8-5.1,38.6    c-8.2,60.3-10.3,96.8-10.3,200.8c0,147.8,4.1,190,28.3,298.7c68,305.9,264.2,511.9,576.8,606.6c35.5,10.8,108.7,28.8,139,34    c9.8,1.5,23.7,4.1,30.9,5.7s23.2,4.1,36,5.7c12.9,1.5,35,5.1,48.9,7.7c27.3,4.6,229.7,2.6,260.1-2.6    c65.4-11.8,96.3-15.4,174.6-21.6l45.3-3.1l22.7,35.5c12.4,19.1,48.9,73.1,81.4,119c31.9,46.3,57.2,85,55.6,86.5    s-27.8,8.2-58.7,14.9c-30.4,6.7-71.6,16-91.7,20.1c-19.6,4.6-45.3,9.8-56.6,11.3c-11.3,1.5-24.2,4.1-28.3,4.6    c-36.6,7.2-91.2,11.3-203.4,15.4c-42.2,2.1-79.8,4.1-83.4,5.1C3613.8,8269.9,3610.2,8269.9,3609.2,8269.4z"/>
		<path class="st0" d="M3526.3,7768.9c-0.5-0.5-19.6-2.1-42.2-4.1c-109.7-9.3-243.6-58.7-334.7-124.1    c-135.4-96.8-227.6-228.7-281.2-401.2c-10.3-34-10.8-34.5,33.5,21.1c85,106.1,198.8,196.7,319.3,253.4c34,16,116.4,45.3,139,50    c6.2,1,22.7,4.1,36.6,6.7c51,10.3,68,11.8,123.6,11.3c34.5-0.5,74.7-4.6,103-10.3c25.7-5.7,47.9-8.2,50-6.7    c1.5,2.1,30.9,40.7,65.4,86l61.8,82.4l-21.6,6.2c-27.8,8.2-91.2,20.6-127.2,25.2C3625.1,7767.8,3528.8,7771.4,3526.3,7768.9z"/>
		<path class="st0" d="M4167.9,7353.8l-42.2-83.4l13.9-23.2c7.2-12.9,14.9-24.7,16.5-26.3c8.2-6.7,57.2-110.2,71.1-149.3    c28.8-82.9,39.1-150.9,39.7-261.1c0-109.2-0.5-108.1,28.3-35c38.6,96.8,57.7,192.1,57.2,285.8c0,32.4-1,63.9-2.6,69.5    c-1,5.7-3.6,21.1-5.1,34.5c-5.1,37.1-27.8,110.7-45.3,148.3c-24.2,51-75.2,123.6-86.5,123.6    C4211.2,7437.2,4190.6,7399.6,4167.9,7353.8z"/>
	</g>
</g>
</svg>