<svg xmlns="http://www.w3.org/2000/svg" xml:space="preserve" style="enable-background:new 0 0 511.98 511.98" viewBox="0 0 511.98 511.98"><path d="m433.999 412.734-100.262-42.248L265.334 418l-18-5.266-53.326-31.405-17.765-10.218L138.666 388l-69.997 34-11.328 15.31-5.999 62.686h406.656l5.328-57.998z" style="fill:#e6e9ed"/><path d="M147.994 200.492v31.499l16.499 59.997 41.499 55.998 50.998 22.5 60.998-34.5 47.998-79.996v-55.498z" style="fill:#eac6bb"/><path d="m416.984 41.998-25.5-29.499-39.498-2.5-45.998 23.999-31.999-20.499H235.99l-34.998 13.5-12-10.5h-49.498l-33.248 21.499-8.25 41.999 16.499 40.498 36.999 17.499-5 65.498h214.492l4-62.998 52.998-36.498 7.499-38.749z" style="fill:#e6e9ed"/><path d="m280.489 359.486-31.499 3.75-65.747-24.5v27.5l68.997 46.498 66.498-33.749 11.749-49.498z" style="fill:#eac6bb"/><path d="m324.487 291.238-42.498-18.999H264.49l-18 3.25-9.25-6.499-60.997 29.498 2.75 12.25 21.249 7s30.249-4.25 33.249-4.75c2.999-.5 20.249-13.25 20.249-13.25l39.498 18 40.499-15.25-9.25-11.25z" style="fill:#656d78"/><path d="m339.736 372.486-85.746 47.998-75.747-49.998-4.75 5.749-4 123.245 172.243 1.25z" style="fill:#ed5564"/><path d="m434.155 402.375-1.594-.453c-23.093-6.219-30.905-12.156-41.187-16.078-36.451-13.889-45.951-23.904-48.373-28.639-.078-.156-.156-.344-.234-.531l-.219-31.843a186.172 186.172 0 0 0 5.125-7.218c22.656-10.984 25.718-28.312 21.219-42.655 4.499-13.687 7.093-28.03 7.093-42.592 0-6.531-.375-12.89-1.109-19.031h1.109v-65.201c34.874-6.296 61.325-36.795 61.325-73.481C437.31 33.436 403.89 0 362.658 0c-20.906 0-39.78 8.593-53.326 22.437C295.769 8.593 276.895 0 255.99 0c-18.281 0-35.03 6.578-48.014 17.484C195.008 6.577 178.274 0 159.993 0c-41.232 0-74.669 33.436-74.669 74.653 0 32.842 21.203 60.732 50.67 70.731v67.951h1.109a160.463 160.463 0 0 0-1.109 19.031c0 14.562 2.594 28.905 7.094 42.607-4.5 14.327-1.438 31.655 21.218 42.64 1.656 2.469 3.375 4.858 5.125 7.218l-.219 31.843a8.688 8.688 0 0 1-.234.531c-2.422 4.734-11.921 14.75-48.389 28.639-10.266 3.922-18.077 9.859-41.17 16.078l-1.594.453c-21.015 6.953-35.155 26.452-35.155 48.451v61.154h426.64v-61.154c0-21.999-14.14-41.498-35.155-48.451zM190.539 356.83l.062-8.156c21.733 20.641 46.107 33.421 65.389 33.421 19.28 0 43.654-12.78 65.389-33.421l.062 8.156.031 4.531.719 1.594-66.107 43.17-65.779-44.326.203-.453.031-4.516zm65.451-47.998c10.375 11.359 27.983 18.937 45.404 18.937 1.781 0 3.562-.078 5.344-.25 2.172-.188 4.266-.406 6.297-.672-9.422 9.999-19.672 18.39-29.921 24.483-10.25 6.078-19.89 9.438-27.124 9.438-7.234 0-16.875-3.359-27.124-9.438-10.25-6.094-20.499-14.484-29.921-24.483 2.031.266 4.125.484 6.297.672 1.781.172 3.562.25 5.343.25 17.422-.001 35.03-7.578 45.405-18.937zm48.795-2.547c-1.109.109-2.25.156-3.391.156-14.812 0-28.765-8.312-32.498-16.078-.812-1.672-2.312-4.812 2.516-10.843.219-.281.421-.531.608-.75 2.906 1.547 7.453 4.922 10.406 7.108 10.53 7.812 23.64 17.531 40.576 17.531h.5c-5.108 1.173-11.28 2.204-18.717 2.876zm-61.701-15.922c-1.828 3.797-6.047 7.688-11.577 10.688-6.406 3.469-13.828 5.391-20.922 5.391a34.82 34.82 0 0 1-3.39-.156c-7.438-.672-13.609-1.703-18.719-2.875h.5c16.938 0 30.046-9.719 40.577-17.531 2.953-2.187 7.499-5.562 10.405-7.108.188.219.391.469.609.75 4.829 6.029 3.329 9.169 2.517 10.841zM106.668 74.653c0-29.405 23.921-53.311 53.325-53.311a53.195 53.195 0 0 1 33.765 12.062c-7.859 11.812-12.437 25.999-12.437 41.249 0 5.906 4.78 10.687 10.671 10.687s10.672-4.781 10.672-10.687c0-29.405 23.921-53.311 53.326-53.311 29.404 0 53.326 23.905 53.326 53.311 0 5.906 4.781 10.687 10.672 10.687 5.89 0 10.671-4.781 10.671-10.687v-.047c-.016-12.484-3.094-24.265-8.53-34.608a53.2 53.2 0 0 1 5.452-5.5c9.702-8.5 22.155-13.156 35.077-13.156 29.404 0 53.326 23.905 53.326 53.311 0 12.593-4.453 24.796-12.547 34.374-8.016 9.5-19.108 15.937-31.232 18.125l-17.547 3.156v61.685H157.322v-61.904l-14.469-4.906c-21.655-7.344-36.185-27.656-36.185-50.53zm246.709 138.682c.844 6.156 1.281 12.5 1.281 19.031 0 6.656-.672 13.468-1.984 20.312-2.469-1.531-4.875-2.375-7-2.375h-.234c-14.452.438-21.405 15.438-21.405 15.438a21.472 21.472 0 0 1 6.234-.953c9.968 0 16.062 7.671 3.469 14.468-3.672 1.984-7.25 2.828-10.734 2.828-19.108 0-35.452-25.343-52.091-25.343-4.922 0-9.875 2.219-14.922 7.969-5.047-5.75-10-7.969-14.922-7.969-16.64 0-32.982 25.343-52.092 25.343-3.484 0-7.062-.844-10.749-2.828-12.578-6.797-6.484-14.468 3.484-14.468 1.968 0 4.077.297 6.233.953 0 0-6.952-15-21.405-15.438h-.234c-2.125 0-4.531.844-7 2.375-1.312-6.843-1.983-13.656-1.983-20.312 0-6.531.438-12.875 1.28-19.031h194.774zM63.997 450.826c0-12.688 8.109-23.937 20.202-28.092l.953-.281c17.625-4.75 27.765-9.594 35.171-13.141 3.047-1.453 5.469-2.609 7.875-3.531 13.39-5.109 23.749-9.891 31.795-14.312v99.168H63.997v-39.811zm117.324 39.81V381.485l74.575 50.248 74.763-48.826v107.729H181.321zm266.661 0h-95.996v-99.168c8.047 4.422 18.406 9.203 31.812 14.328 2.39.906 4.812 2.062 7.858 3.516 7.406 3.547 17.547 8.391 35.171 13.156l.953.266c12.093 4.155 20.202 15.404 20.202 28.092v39.81z"/><path d="M223.991 426.639c-5.891 0-10.672 4.781-10.672 10.671 0 5.891 4.781 10.672 10.672 10.672s10.671-4.781 10.671-10.672c0-5.889-4.78-10.671-10.671-10.671zm0 42.671c-5.891 0-10.672 4.78-10.672 10.671s4.781 10.655 10.672 10.655 10.671-4.765 10.671-10.655-4.78-10.671-10.671-10.671zm63.997-21.328c5.891 0 10.672-4.781 10.672-10.672 0-5.89-4.781-10.671-10.672-10.671-5.89 0-10.671 4.781-10.671 10.671 0 5.891 4.781 10.672 10.671 10.672zm0 21.328c-5.89 0-10.671 4.78-10.671 10.671s4.781 10.655 10.671 10.655c5.891 0 10.672-4.765 10.672-10.655s-4.781-10.671-10.672-10.671z"/></svg>