<svg xmlns="http://www.w3.org/2000/svg" xmlns:xlink="http://www.w3.org/1999/xlink" version="1.1" id="bb460724-3675-4b2e-b0fa-530a39eaf356" x="0px" y="0px" style="enable-background:new 0 0 512 512;" xml:space="preserve" viewBox="0 27.6 512 456.8">
<style type="text/css">
	.st0{fill:#004D42;}
	.st1{fill:#FFFFFF;}
	.st2{opacity:0.5;fill:#00BFA6;enable-background:new    ;}
</style>
<g>
	<path id="path1" class="st0" d="M512,106.2v351.6c0,10.7-8.7,19.3-19.3,19.3H277.3c-3.8,0.4-7.5,1.8-10.7,4   c-6.5,4.4-15.1,4.4-21.6,0c-3.2-2.2-6.8-3.5-10.7-4h-215C8.7,477.1,0,468.5,0,457.8V106.2c0-10.7,8.7-19.3,19.3-19.3h473.4   C503.4,86.9,512,95.6,512,106.2L512,106.2z"/>
	<path id="path2" class="st1" d="M36.6,240.6v180.3c0,10.8,8.7,19.5,19.5,19.5c0,0,0,0,0,0h175.4c4.8,0,9.5,1.4,13.5,4.1   c6.6,4.4,15.3,4.4,21.9,0c4-2.7,8.6-4.1,13.4-4.1h175.5c10.8,0,19.5-8.7,19.6-19.5c0,0,0,0,0,0V240.6c0-10.8-8.8-19.5-19.5-19.5   c0,0,0,0,0,0H56.2C45.4,221.1,36.7,229.8,36.6,240.6L36.6,240.6z"/>
	<path id="path3" class="st2" d="M475.4,221.1v201.3c-0.8,10.2-9.4,18.1-19.6,18.1H280.5c-4.7,0-9.4,1.4-13.3,4   c-6.7,4.4-15.4,4.4-22.1,0c-4-2.6-8.6-4-13.3-4H56.3c-10.9,0-19.7-8.8-19.7-19.7l0,0V221.1H475.4z"/>
	<path id="path4" class="st1" d="M475.4,57.5v339.3c0,10.7-8.7,19.3-19.3,19.3H280.4c-4.8,0-9.6,1.4-13.6,4.1   c-6.5,4.4-15.1,4.4-21.6,0c-4-2.7-8.7-4.2-13.6-4.1H55.9c-10.7,0-19.3-8.7-19.3-19.3V57.5c0-9.7,7.3-17.9,16.9-19.1   c0.9,0.2,178.6,0.3,178.6,0.3c4.8,0,9.6,1.4,13.6,4.2c6.5,4.4,15.1,4.4,21.6,0c4-2.7,8.7-4.2,13.6-4.3H459   C468.4,40,475.4,48,475.4,57.5z"/>
	<path id="path5" class="st0" d="M85.4,152.1V82.7c0-4.4,3.6-8,8-8h32.7c4.4,0,8,3.6,8,8l0,0V152c0,4.4-3.6,8.1-8,8.1c0,0,0,0,0,0   H93.4C89,160,85.5,156.5,85.4,152.1z"/>
	<path id="path6" class="st2" d="M165.8,80.9c-3.4,0.2-6,3-5.8,6.4c0.2,3.1,2.7,5.6,5.8,5.8h53.6c3.4,0,6.1-2.7,6.1-6.1   s-2.7-6.1-6.1-6.1L165.8,80.9z M292.7,80.9c-3.4,0.2-6,3-5.8,6.4c0.2,3.1,2.7,5.6,5.8,5.8h134.1c3.4,0,6.1-2.7,6.1-6.1   s-2.7-6.1-6.1-6.1L292.7,80.9z M165.8,117.5c-3.4,0.2-5.9,3.2-5.6,6.5c0.2,3,2.6,5.4,5.6,5.6h53.6c3.4,0.2,6.3-2.3,6.5-5.6   c0.2-3.4-2.3-6.3-5.6-6.5c-0.3,0-0.6,0-0.9,0L165.8,117.5z M292.7,117.5c-3.4-0.2-6.3,2.3-6.5,5.6c-0.2,3.4,2.3,6.3,5.6,6.5   c0.3,0,0.6,0,0.9,0h134.1c3.4-0.2,5.9-3.2,5.6-6.5c-0.2-3-2.6-5.4-5.6-5.6L292.7,117.5z M165.8,154c-3.4,0.2-6,3-5.8,6.4   c0.2,3.1,2.7,5.6,5.8,5.8h53.6c3.4-0.2,6-3,5.8-6.4c-0.2-3.1-2.7-5.6-5.8-5.8H165.8z M292.7,154c-3.4,0.2-6,3-5.8,6.4   c0.2,3.1,2.7,5.6,5.8,5.8h134.1c3.4-0.2,6-3,5.8-6.4c-0.2-3.1-2.7-5.6-5.8-5.8H292.7z M85.4,190.6c-3.4,0-6.1,2.7-6.1,6.1   c0,3.4,2.7,6.1,6.1,6.1h134.1c3.4,0,6.1-2.7,6.1-6.1c0-3.4-2.7-6.1-6.1-6.1H85.4z M292.7,190.6c-3.4,0-6.1,2.7-6.1,6.1   c0,3.4,2.7,6.1,6.1,6.1h134.1c3.4,0,6.1-2.7,6.1-6.1c0-3.4-2.7-6.1-6.1-6.1H292.7z M85.4,227.2c-3.4-0.2-6.2,2.4-6.4,5.8   c-0.2,3.4,2.4,6.2,5.8,6.4c0.2,0,0.4,0,0.6,0h134.1c3.4,0.2,6.2-2.4,6.4-5.8c0.2-3.4-2.4-6.2-5.8-6.4c-0.2,0-0.4,0-0.6,0H85.4z    M292.7,227.2c-3.4-0.2-6.2,2.4-6.4,5.8c-0.2,3.4,2.4,6.2,5.8,6.4c0.2,0,0.4,0,0.6,0h134.1c3.4-0.2,6-3,5.8-6.4   c-0.2-3.1-2.7-5.6-5.8-5.8H292.7z M85.4,263.8c-3.4,0-6.1,2.7-6.1,6.1c0,3.4,2.7,6.1,6.1,6.1l0,0h134.1c3.4,0,6.1-2.7,6.1-6.1   c0-3.4-2.7-6.1-6.1-6.1L85.4,263.8z M292.7,263.8c-3.4,0-6.1,2.7-6.1,6.1c0,3.4,2.7,6.1,6.1,6.1h134.1c3.4,0,6.1-2.7,6.1-6.1   c0-3.4-2.7-6.1-6.1-6.1L292.7,263.8z M292.7,299.7c-7.7,0-7.7,12,0,12h60.7c7.7,0,7.7-12,0-12H292.7z M85.4,300.3   c-3.4-0.2-6.2,2.4-6.4,5.8c-0.2,3.4,2.4,6.2,5.8,6.4c0.2,0,0.4,0,0.6,0h134.1c3.4,0.2,6.2-2.4,6.4-5.8c0.2-3.4-2.4-6.2-5.8-6.4   c-0.2,0-0.4,0-0.6,0H85.4z M85.4,336.8c-3.4-0.2-6.3,2.3-6.5,5.6c-0.2,3.4,2.3,6.3,5.6,6.5c0.3,0,0.6,0,0.9,0h134.1   c3.4,0.2,6.3-2.3,6.5-5.6c0.2-3.4-2.3-6.3-5.6-6.5c-0.3,0-0.6,0-0.9,0H85.4z M292.7,336.8c-3.4-0.2-6.3,2.3-6.5,5.6   c-0.2,3.4,2.3,6.3,5.6,6.5c0.3,0,0.6,0,0.9,0h134.1c3.4-0.2,5.9-3.2,5.6-6.5c-0.2-3-2.6-5.4-5.6-5.6H292.7z M85.4,373.4   c-3.4,0-6.1,2.7-6.1,6.1c0,3.4,2.7,6.1,6.1,6.1h134.1c3.4,0,6.1-2.7,6.1-6.1c0-3.4-2.7-6.1-6.1-6.1H85.4z M292.7,373.4   c-3.4,0-6.1,2.7-6.1,6.1c0,3.4,2.7,6.1,6.1,6.1h134.1c3.4,0,6.1-2.7,6.1-6.1c0-3.4-2.7-6.1-6.1-6.1H292.7z"/>
	<path id="path24" class="st0" d="M410.4,311.7l-15.1-13c-1.6-1.4-3.7-2-5.8-1.9c-1.8,0.2-3.5,0.9-4.8,2.1l-14.9,12.7   c-1.3,0.7-3,0.2-3.7-1.1c-0.2-0.4-0.3-0.9-0.3-1.4V35.3c0-4.2,3.4-7.7,7.6-7.7c0,0,0,0,0,0h33.5c4.2,0,7.7,3.5,7.6,7.7c0,0,0,0,0,0   v273.8c0.1,1.5-1.1,2.8-2.7,2.9C411.3,312,410.8,311.9,410.4,311.7L410.4,311.7z"/>
</g>
</svg>