<svg xmlns="http://www.w3.org/2000/svg" viewBox="3.24 8.54 505.52 494.93"><path d="M480.086 297.473c23.379-121.176-57.856-238.082-181.59-260.95-123.902-22.87-243.2 56.832-266.582 178.004C8.535 335.703 89.77 452.61 213.504 475.477c123.902 22.87 243.2-56.832 266.582-178.004m0 0" style="stroke:none;fill-rule:nonzero;fill:#fff;fill-opacity:1"/><path d="M475.988 256c0 95.063-62.804 175.785-150.187 204.457.344-2.047.515-4.266.515-6.824.168-38.059.34-61.781.34-90.113 0-19.97-.34-30.891-.34-30.891 3.07 0 36.008-10.238 51.028-20.649 15.02-10.414 30.89-30.21 33.11-58.37 2.218-28.329-10.24-61.782-21.165-81.579-21.844-39.594-39.934-63.828-55.805-77.312-15.875-13.313-27.48-10.41-37.718-2.387-10.243 8.02-25.258 32.426-36.012 42.152-5.121 4.782-18.09 20.48-34.817 5.633-4.777-4.097-33.789-43.86-51.71-38.742-22.356 6.316-47.957 46.594-59.903 74.754-15.363 35.84-18.433 57.344-10.414 108.371 8.024 51.031 12.8 102.402 20.14 130.39 1.708 6.829 3.927 12.63 6.829 17.75C73.215 393.728 36.012 329.048 36.012 256c0-118.953 98.472-215.55 219.988-215.55S475.988 137.046 475.988 256m0 0" style="stroke:none;fill-rule:nonzero;fill:#fff;fill-opacity:1"/><path d="M256 8.535C116.395 8.535 3.242 119.297 3.242 256S116.395 503.465 256 503.465 508.758 392.703 508.758 256 395.605 8.535 256 8.535m69.8 451.922c.345-2.047.516-4.266.516-6.824.168-38.059.34-61.781.34-90.113 0-19.97-.34-30.891-.34-30.891 3.07 0 36.008-10.238 51.028-20.649 15.02-10.414 30.89-30.21 33.11-58.37 2.218-28.329-10.24-61.782-21.165-81.579-21.844-39.594-39.934-63.828-55.805-77.312-15.875-13.313-27.48-10.41-37.718-2.387-10.243 8.02-25.258 32.426-36.012 42.152-5.121 4.782-18.09 20.48-34.817 5.633-4.777-4.097-33.789-43.86-51.71-38.742-22.356 6.316-47.957 46.594-59.903 74.754-15.363 35.84-18.433 57.344-10.414 108.371 8.024 51.031 12.8 102.402 20.14 130.39 1.708 6.829 3.927 12.63 6.829 17.75C73.215 393.728 36.012 329.048 36.012 256c0-118.953 98.472-215.55 219.988-215.55S475.988 137.046 475.988 256c0 95.063-62.804 175.785-150.187 204.457m0 0" style="stroke:none;fill-rule:nonzero;fill:#000;fill-opacity:1"/><path d="m80.555 243.71 155.648-16.042-.512-11.945-155.648 16.043Zm0 0" style="stroke:none;fill-rule:nonzero;fill:#fff;fill-opacity:1"/><path d="M276.48 226.477c1.364-16.387-11.093-30.723-27.82-32.086-16.722-1.368-31.402 10.922-32.765 27.304-1.368 16.383 11.093 30.72 27.816 32.086 16.726 1.367 31.402-10.922 32.77-27.304m86.867-12.461c1.367-16.383-11.09-30.72-27.817-32.086-16.726-1.364-31.402 10.922-32.77 27.308-1.363 16.383 11.094 30.719 27.821 32.086 16.727 1.363 31.402-10.926 32.766-27.308m0 0" style="stroke:none;fill-rule:nonzero;fill:#fff;fill-opacity:1"/><path d="m235.863 227.328 115.367-12.457-.851-10.754-115.2 12.457Zm0 0" style="stroke:none;fill-rule:nonzero;fill:#fff;fill-opacity:1"/><path d="m346.625 215.723 84.48-20.82-1.027-10.755-84.476 20.82Zm0 0" style="stroke:none;fill-rule:nonzero;fill:#fff;fill-opacity:1"/></svg>