<?xml version="1.0" encoding="iso-8859-1"?>
<!-- Generator: Adobe Illustrator 19.0.0, SVG Export Plug-In . SVG Version: 6.00 Build 0)  -->
<svg version="1.1" id="Layer_1" xmlns="http://www.w3.org/2000/svg" xmlns:xlink="http://www.w3.org/1999/xlink" x="0px" y="0px"
	 viewBox="0 0 511.98 511.98" style="enable-background:new 0 0 511.98 511.98;" xml:space="preserve">
<polygon style="fill:#E6E9ED;" points="433.999,412.734 333.737,370.486 265.334,418 247.334,412.734 194.008,381.329 
	176.243,371.111 138.666,388 68.669,422 57.341,437.31 51.342,499.996 457.998,499.996 463.326,441.998 "/>
<polygon style="fill:#EAC6BB;" points="147.994,200.492 147.994,231.991 164.493,291.988 205.992,347.986 256.99,370.486 
	317.988,335.986 365.986,255.99 365.986,200.492 "/>
<polygon style="fill:#E6E9ED;" points="416.984,41.998 391.484,12.499 351.986,9.999 305.988,33.998 273.989,13.499 235.99,13.499 
	200.992,26.999 188.992,16.499 139.494,16.499 106.246,37.998 97.996,79.997 114.495,120.495 151.494,137.994 146.494,203.492 
	360.986,203.492 364.986,140.494 417.984,103.996 425.483,65.247 "/>
<polygon style="fill:#EAC6BB;" points="280.489,359.486 248.99,363.236 183.243,338.736 183.243,366.236 252.24,412.734 
	318.738,378.985 330.487,329.487 "/>
<path style="fill:#656D78;" d="M324.487,291.238l-42.498-18.999H264.49l-18,3.25l-9.25-6.499l-60.997,29.498l2.75,12.25l21.249,7
	c0,0,30.249-4.25,33.249-4.75c2.999-0.5,20.249-13.25,20.249-13.25l39.498,18l40.499-15.25L324.487,291.238z"/>
<polygon style="fill:#ED5564;" points="339.736,372.486 253.99,420.484 178.243,370.486 173.493,376.235 169.493,499.48 
	341.736,500.73 "/>
<path d="M434.155,402.375l-1.594-0.453c-23.093-6.219-30.905-12.156-41.187-16.078c-36.451-13.889-45.951-23.904-48.373-28.639
	c-0.078-0.156-0.156-0.344-0.234-0.531l-0.219-31.843c1.75-2.359,3.469-4.749,5.125-7.218
	c22.656-10.984,25.718-28.312,21.219-42.655c4.499-13.687,7.093-28.03,7.093-42.592c0-6.531-0.375-12.89-1.109-19.031h1.109v-65.201
	c34.874-6.296,61.325-36.795,61.325-73.481C437.31,33.436,403.89,0,362.658,0c-20.906,0-39.78,8.593-53.326,22.437
	C295.769,8.593,276.895,0,255.99,0c-18.281,0-35.03,6.578-48.014,17.484C195.008,6.577,178.274,0,159.993,0
	c-41.232,0-74.669,33.436-74.669,74.653c0,32.842,21.203,60.732,50.67,70.731v67.951h1.109c-0.734,6.141-1.109,12.5-1.109,19.031
	c0,14.562,2.594,28.905,7.094,42.607c-4.5,14.327-1.438,31.655,21.218,42.64c1.656,2.469,3.375,4.858,5.125,7.218l-0.219,31.843
	c-0.078,0.188-0.156,0.375-0.234,0.531c-2.422,4.734-11.921,14.75-48.389,28.639c-10.266,3.922-18.077,9.859-41.17,16.078
	l-1.594,0.453c-21.015,6.953-35.155,26.452-35.155,48.451v61.154h213.32h213.32v-61.154
	C469.31,428.827,455.17,409.328,434.155,402.375z M190.539,356.83l0.062-8.156c21.733,20.641,46.107,33.421,65.389,33.421
	c19.28,0,43.654-12.78,65.389-33.421l0.062,8.156l0.031,4.531l0.719,1.594l-66.107,43.17l-65.779-44.326l0.203-0.453L190.539,356.83
	z M255.99,308.832c10.375,11.359,27.983,18.937,45.404,18.937c1.781,0,3.562-0.078,5.344-0.25c2.172-0.188,4.266-0.406,6.297-0.672
	c-9.422,9.999-19.672,18.39-29.921,24.483c-10.25,6.078-19.89,9.438-27.124,9.438c-7.234,0-16.875-3.359-27.124-9.438
	c-10.25-6.094-20.499-14.484-29.921-24.483c2.031,0.266,4.125,0.484,6.297,0.672c1.781,0.172,3.562,0.25,5.343,0.25
	C228.007,327.768,245.615,320.191,255.99,308.832z M304.785,306.285c-1.109,0.109-2.25,0.156-3.391,0.156
	c-14.812,0-28.765-8.312-32.498-16.078c-0.812-1.672-2.312-4.812,2.516-10.843c0.219-0.281,0.421-0.531,0.608-0.75
	c2.906,1.547,7.453,4.922,10.406,7.108c10.53,7.812,23.64,17.531,40.576,17.531c0.172,0,0.328,0,0.5,0
	C318.394,304.582,312.222,305.613,304.785,306.285z M243.084,290.363c-1.828,3.797-6.047,7.688-11.577,10.688
	c-6.406,3.469-13.828,5.391-20.922,5.391c-1.141,0-2.28-0.047-3.39-0.156c-7.438-0.672-13.609-1.703-18.719-2.875
	c0.172,0,0.328,0,0.5,0c16.938,0,30.046-9.719,40.577-17.531c2.953-2.187,7.499-5.562,10.405-7.108
	c0.188,0.219,0.391,0.469,0.609,0.75C245.396,285.551,243.896,288.691,243.084,290.363z M106.668,74.653
	c0-29.405,23.921-53.311,53.325-53.311c12.344,0,24.265,4.266,33.765,12.062c-7.859,11.812-12.437,25.999-12.437,41.249
	c0,5.906,4.78,10.687,10.671,10.687s10.672-4.781,10.672-10.687c0-29.405,23.921-53.311,53.326-53.311
	c29.404,0,53.326,23.905,53.326,53.311l0,0c0,5.906,4.781,10.687,10.672,10.687c5.89,0,10.671-4.781,10.671-10.687
	c0,0,0-0.031,0-0.047c-0.016-12.484-3.094-24.265-8.53-34.608c1.671-1.953,3.499-3.797,5.452-5.5
	c9.702-8.5,22.155-13.156,35.077-13.156c29.404,0,53.326,23.905,53.326,53.311c0,12.593-4.453,24.796-12.547,34.374
	c-8.016,9.5-19.108,15.937-31.232,18.125l-17.547,3.156v17.827v43.858H157.322v-46.608v-15.296l-14.469-4.906
	C121.198,117.839,106.668,97.527,106.668,74.653z M353.377,213.335c0.844,6.156,1.281,12.5,1.281,19.031
	c0,6.656-0.672,13.468-1.984,20.312c-2.469-1.531-4.875-2.375-7-2.375c-0.078,0-0.156,0-0.234,0
	c-14.452,0.438-21.405,15.438-21.405,15.438c2.156-0.656,4.266-0.953,6.234-0.953c9.968,0,16.062,7.671,3.469,14.468
	c-3.672,1.984-7.25,2.828-10.734,2.828c-19.108,0-35.452-25.343-52.091-25.343c-4.922,0-9.875,2.219-14.922,7.969
	c-5.047-5.75-10-7.969-14.922-7.969c-16.64,0-32.982,25.343-52.092,25.343c-3.484,0-7.062-0.844-10.749-2.828
	c-12.578-6.797-6.484-14.468,3.484-14.468c1.968,0,4.077,0.297,6.233,0.953c0,0-6.952-15-21.405-15.438c-0.078,0-0.156,0-0.234,0
	c-2.125,0-4.531,0.844-7,2.375c-1.312-6.843-1.983-13.656-1.983-20.312c0-6.531,0.438-12.875,1.28-19.031H353.377z M63.997,450.826
	c0-12.688,8.109-23.937,20.202-28.092l0.953-0.281c17.625-4.75,27.765-9.594,35.171-13.141c3.047-1.453,5.469-2.609,7.875-3.531
	c13.39-5.109,23.749-9.891,31.795-14.312v99.168H63.997V450.826z M181.321,490.636V381.485l74.575,50.248l74.763-48.826v107.729
	H255.99H181.321z M447.982,490.636h-95.996v-99.168c8.047,4.422,18.406,9.203,31.812,14.328c2.39,0.906,4.812,2.062,7.858,3.516
	c7.406,3.547,17.547,8.391,35.171,13.156l0.953,0.266c12.093,4.155,20.202,15.404,20.202,28.092V490.636z"/>
<path d="M223.991,426.639c-5.891,0-10.672,4.781-10.672,10.671c0,5.891,4.781,10.672,10.672,10.672s10.671-4.781,10.671-10.672
	C234.662,431.421,229.882,426.639,223.991,426.639z"/>
<path d="M223.991,469.31c-5.891,0-10.672,4.78-10.672,10.671s4.781,10.655,10.672,10.655s10.671-4.765,10.671-10.655
	S229.882,469.31,223.991,469.31z"/>
<path d="M287.988,447.982c5.891,0,10.672-4.781,10.672-10.672c0-5.89-4.781-10.671-10.672-10.671
	c-5.89,0-10.671,4.781-10.671,10.671C277.317,443.201,282.098,447.982,287.988,447.982z"/>
<path d="M287.988,469.31c-5.89,0-10.671,4.78-10.671,10.671s4.781,10.655,10.671,10.655c5.891,0,10.672-4.765,10.672-10.655
	S293.879,469.31,287.988,469.31z"/>
<g>
</g>
<g>
</g>
<g>
</g>
<g>
</g>
<g>
</g>
<g>
</g>
<g>
</g>
<g>
</g>
<g>
</g>
<g>
</g>
<g>
</g>
<g>
</g>
<g>
</g>
<g>
</g>
<g>
</g>
</svg>
