<svg xmlns="http://www.w3.org/2000/svg" viewBox="0 0 48 48"><g style="font-style:normal;font-variant:normal;font-weight:400;font-stretch:normal;font-size:28.4212px;line-height:125%;font-family:&quot;M+ 1p&quot;;letter-spacing:0;word-spacing:0"><path d="M425.38 225.69c-44.75 0-81.021 36.251-81.021 80.98 0 5.697.595 11.254 1.715 16.62a85.068 85.068 0 0 1 22.342-2.97c12.394 0 24.163 2.65 34.783 7.418 13.9-9.91 30.93-15.74 49.31-15.74 11.508 0 22.484 2.29 32.488 6.434.053.02.102.041.154.062a1.256 1.256 0 0 1-.559 2.387c-.025 0-1.23-.093-1.807-.131a84.61 84.61 0 0 0-6.043-.219c-28.408 0-53.935 10.432-69.416 31.594-.247.335-.732 1.018-.738 1.018a1.236 1.236 0 0 1-.968.468c-.32 0-.604-.118-.821-.318a.543.543 0 0 1-.108-.096c-14.688-13.81-34.036-19.276-55.753-19.657 11.088 31.517 41.113 54.121 76.437 54.121 44.75 0 81.031-36.262 81.031-80.986.001-44.732-36.28-80.983-81.03-80.983zm63.436 48.465c-.283-.029-.768-.108-1.082-.15-.9-.142-1.814-.257-2.732-.345-16.525-1.558-31.9 3.03-41.934 14.653-.42.43-.789.45-1.203.022-7.977-9.045-19.337-13.059-32.375-14.294a48.908 48.908 0 0 0-13.578.602c-.017 0-.037 0-.057.009-.042 0-.088.011-.138.011a.841.841 0 0 1-.84-.845c0-.271.134-.509.328-.659.08-.045.16-.096.238-.133a48.84 48.84 0 0 1 27.349-5.363c7.117.674 13.738 2.832 19.574 6.145 8.525-4.939 18.623-7.363 29.18-6.366a49.164 49.164 0 0 1 16.711 4.645c.312.16.637.313.951.484.312.155.453.423.453.747 0 .464-.299.903-.845.837z" style="fill:#0e85cd" transform="translate(-102.003 -66.84) scale(.29621)"/><path d="M489.2 272.57c-.314-.171-.639-.324-.951-.484a49.187 49.187 0 0 0-16.711-4.645c-10.557-.997-20.654 1.427-29.18 6.366-5.836-3.312-12.457-5.471-19.574-6.145a48.84 48.84 0 0 0-27.349 5.363c-.078.037-.159.088-.238.133a.837.837 0 0 0 .512 1.504c.049 0 .095-.011.138-.011.02-.009.04-.009.057-.009a48.946 48.946 0 0 1 13.578-.602c13.039 1.235 24.399 5.249 32.375 14.294.414.428.783.407 1.203-.022 10.033-11.623 25.408-16.211 41.934-14.653.918.088 1.832.203 2.732.345.314.042.799.121 1.082.15.547.065.846-.373.846-.838-.001-.323-.141-.591-.454-.746zm-84.4 80.72c.217.2.501.318.821.318.39 0 .742-.183.968-.468.006 0 .491-.683.738-1.018 15.481-21.162 41.007-31.594 69.416-31.594 2.025 0 4.051.076 6.043.219.576.038 1.781.131 1.807.131a1.256 1.256 0 0 0 .559-2.387l-.154-.062c-10.004-4.144-20.98-6.434-32.488-6.434-18.382 0-35.405 5.83-49.314 15.743-10.62-4.768-22.389-7.418-34.783-7.418a85.068 85.068 0 0 0-22.342 2.97 80.222 80.222 0 0 0 2.87 10.245c21.718.381 41.065 5.848 55.753 19.657.03.037.067.074.106.098z" style="fill:#fff" transform="translate(-102.003 -66.84) scale(.29621)"/></g></svg>