<?xml version="1.0" encoding="UTF-8"?>
<!-- Generator: Adobe Illustrator 27.0.0, SVG Export Plug-In . SVG Version: 6.00 Build 0)  -->
<svg version="1.1" id="Layer_1" xmlns="http://www.w3.org/2000/svg" xmlns:xlink="http://www.w3.org/1999/xlink" x="0px" y="0px" viewBox="0 0 500 500" style="enable-background:new 0 0 500 500;" xml:space="preserve">
<style type="text/css">
	.st0{fill:#FFFFFF;}
</style>
<g id="document" transform="scale(1.6666666666666667 1.6666666666666667) translate(150.0 150.0)">
	<path class="st0" d="M131.3,24.3c13.7-71-33.9-139.5-106.4-152.9C-47.7-142-117.6-95.3-131.3-24.3s33.9,139.5,106.4,152.9   C47.7,142,117.6,95.3,131.3,24.3z"/>
	<path class="st0" d="M128.9,0c0,55.7-36.8,103-88,119.8c0.2-1.2,0.3-2.5,0.3-4c0.1-22.3,0.2-36.2,0.2-52.8   c0-11.7-0.2-18.1-0.2-18.1c1.8,0,21.1-6,29.9-12.1S89.2,15.1,90.5-1.4c1.3-16.6-6-36.2-12.4-47.8C65.3-72.4,54.7-86.6,45.4-94.5   c-9.3-7.8-16.1-6.1-22.1-1.4S8.5-76.9,2.2-71.2c-3,2.8-10.6,12-20.4,3.3C-21-70.3-38-93.6-48.5-90.6c-13.1,3.7-28.1,27.3-35.1,43.8   c-9,21-10.8,33.6-6.1,63.5c4.7,29.9,7.5,60,11.8,76.4c1,4,2.3,7.4,4,10.4c-33.2-22.8-55-60.7-55-103.5   c0-69.7,57.7-126.3,128.9-126.3S128.9-69.7,128.9,0z"/>
	<path d="M0-145c-81.8,0-148.1,64.9-148.1,145S-81.8,145,0,145S148.1,80.1,148.1,0S81.8-145,0-145z M40.9,119.8   c0.2-1.2,0.3-2.5,0.3-4c0.1-22.3,0.2-36.2,0.2-52.8c0-11.7-0.2-18.1-0.2-18.1c1.8,0,21.1-6,29.9-12.1S89.2,15.1,90.5-1.4   c1.3-16.6-6-36.2-12.4-47.8C65.3-72.4,54.7-86.6,45.4-94.5c-9.3-7.8-16.1-6.1-22.1-1.4S8.5-76.9,2.2-71.2c-3,2.8-10.6,12-20.4,3.3   C-21-70.3-38-93.6-48.5-90.6c-13.1,3.7-28.1,27.3-35.1,43.8c-9,21-10.8,33.6-6.1,63.5c4.7,29.9,7.5,60,11.8,76.4   c1,4,2.3,7.4,4,10.4c-33.2-22.8-55-60.7-55-103.5c0-69.7,57.7-126.3,128.9-126.3S128.9-69.7,128.9,0   C128.9,55.7,92.1,103,40.9,119.8z"/>
	<path class="st0" d="M-102.8-7.2l91.2-9.4l-0.3-7l-91.2,9.4L-102.8-7.2z"/>
	<path class="st0" d="M12-17.3c0.8-9.6-6.5-18-16.3-18.8s-18.4,6.4-19.2,16S-17-2.1-7.2-1.3S11.2-7.7,12-17.3z"/>
	<path class="st0" d="M62.9-24.6c0.8-9.6-6.5-18-16.3-18.8c-9.8-0.8-18.4,6.4-19.2,16c-0.8,9.6,6.5,18,16.3,18.8S62.1-15,62.9-24.6z   "/>
	<path class="st0" d="M-11.8-16.8l67.6-7.3l-0.5-6.3l-67.5,7.3L-11.8-16.8z"/>
	<path class="st0" d="M53.1-23.6l49.5-12.2l-0.6-6.3L52.5-29.9L53.1-23.6z"/>
</g>
</svg>