<svg xmlns:svg="http://www.w3.org/2000/svg" xmlns="http://www.w3.org/2000/svg" xmlns:xlink="http://www.w3.org/1999/xlink" version="1.1" id="Layer_1" x="0px" y="0px" style="enable-background:new 0 0 512 512;" xml:space="preserve" viewBox="34.3 2.6 443.6 506.7">
<style type="text/css">
	.st0{stroke:#ffffff;stroke-width:10;}
</style>
<g>
	<path id="svg_1" class="st0" d="M112.1,431.5c-24.3-24.3-42.5-51.7-54.6-82.3c-12.1-30.6-18.2-61.7-18.2-93.3   c0-31.6,6-62.7,18.1-93.2c12.1-30.6,30.3-58,54.6-82.3c24.3-24.3,51.7-42.5,82.3-54.6c30.6-12.1,61.7-18.2,93.3-18.2   c31.6,0,62.7,6,93.3,18.2c30.6,12.1,58,30.4,82.3,54.6l9.7,9.7L314,249c1.3,5.4,1.3,10.3,0.1,14.6c-1.2,4.3-3.6,8.3-7.2,11.9   c-5.2,5.2-11.7,7.8-19.4,7.8c-7.8,0-14.3-2.6-19.5-7.8c-5.2-5.2-7.8-11.7-7.8-19.5c0-7.8,2.6-14.2,7.7-19.4c3.6-3.6,7.6-6,12-7.3   c4.4-1.3,9.3-1.2,14.6,0.2l60.3-60.3c-21.7-17.1-46.3-24.9-74-23.4c-27.6,1.5-51.4,12.2-71.4,32.2c-21.4,21.4-32.1,47.4-32.2,78   c0,30.5,10.7,56.5,32.2,78c21.5,21.5,47.5,32.2,78,32.2c30.6,0,56.6-10.7,78-32.2l19.5,19.5c-27.1,27.1-59.6,40.6-97.5,40.7   c-37.9,0-70.4-13.5-97.4-40.6c-27.1-27.1-40.6-59.6-40.7-97.5c0-38,13.5-70.5,40.6-97.6c25.5-25.5,55.9-39,91.2-40.4   c35.3-1.5,66.4,9,93.4,31.4l59-59c-43.3-38.6-94-57-152.2-55.5c-58.1,1.6-108.1,23.2-149.8,65c-43.5,43.5-65.3,95.6-65.3,156   c0,60.5,21.8,112.5,65.3,156c43.6,43.6,95.6,65.3,156,65.3c60.5,0,112.5-21.8,156-65.3l19.6,19.4c-24.3,24.3-51.8,42.6-82.3,54.7   c-30.6,12.1-61.7,18.2-93.3,18.2c-31.6,0-62.7-6-93.2-18.1C163.8,474.1,136.3,455.8,112.1,431.5L112.1,431.5L112.1,431.5z" fill="#ffffff"/>
</g>
</svg>