<svg xmlns="http://www.w3.org/2000/svg" width="128" height="128"><path d="M130.696 505.148h128v128h-128z" style="fill:#5dacdf;fill-opacity:1;stroke:#000;stroke-width:0;stroke-miterlimit:4;stroke-dasharray:none;stroke-opacity:1" transform="translate(-130.696 -505.148)"/><g transform="translate(-130.696 -505.148)"><rect width="103.214" height="93.811" x="143.089" y="522.243" rx="1.857" ry="1.857" style="fill:none;fill-opacity:1;stroke:#fff;stroke-width:4.78585196;stroke-miterlimit:4;stroke-dasharray:none;stroke-opacity:1"/><path d="M163.948 686.423c-.38 0-.689.285-.689.639v7.086c0 .354.308.64.689.64h32.443c.379 0 .688-.288.688-.64v-7.086c0-.354-.307-.639-.688-.639h-32.443zm3.939 1.696a2.486 2.486 0 0 1 2.486 2.486 2.486 2.486 0 0 1-2.486 2.487 2.486 2.486 0 0 1-2.486-2.487 2.486 2.486 0 0 1 2.486-2.486zm0 1.188a1.299 1.299 0 0 0-1.298 1.298 1.299 1.299 0 0 0 1.298 1.299 1.299 1.299 0 0 0 1.299-1.299 1.299 1.299 0 0 0-1.3-1.298zm-3.939 7.519c-.38 0-.689.286-.689.64v7.086c0 .353.308.639.689.639h32.443c.379 0 .688-.288.688-.64v-7.086c0-.353-.307-.639-.688-.639h-32.443zm3.939 1.696a2.486 2.486 0 0 1 2.486 2.486 2.486 2.486 0 0 1-2.486 2.487 2.486 2.486 0 0 1-2.486-2.487 2.486 2.486 0 0 1 2.486-2.486zm0 1.188a1.299 1.299 0 0 0-1.298 1.298 1.299 1.299 0 0 0 1.298 1.3 1.299 1.299 0 0 0 1.299-1.3 1.299 1.299 0 0 0-1.3-1.298zm-3.939 7.52c-.38 0-.689.285-.689.638v7.087c0 .353.308.639.689.639h32.443c.379 0 .688-.288.688-.64v-7.086c0-.353-.307-.638-.688-.638h-32.443zm3.939 1.695a2.486 2.486 0 0 1 2.486 2.487 2.486 2.486 0 0 1-2.486 2.486 2.486 2.486 0 0 1-2.486-2.486 2.486 2.486 0 0 1 2.486-2.487zm0 1.188a1.299 1.299 0 0 0-1.298 1.299 1.299 1.299 0 0 0 1.298 1.299 1.299 1.299 0 0 0 1.299-1.3 1.299 1.299 0 0 0-1.3-1.298z" style="fill:#fff;fill-opacity:1" transform="translate(-228.617 -1077.89) scale(2.34953)"/></g></svg>