<svg xmlns:svg="http://www.w3.org/2000/svg" xmlns:rdf="http://www.w3.org/1999/02/22-rdf-syntax-ns#" xmlns:sodipodi="http://sodipodi.sourceforge.net/DTD/sodipodi-0.dtd" xmlns:cc="http://creativecommons.org/ns#" xmlns:inkscape="http://www.inkscape.org/namespaces/inkscape" xmlns:dc="http://purl.org/dc/elements/1.1/" xmlns="http://www.w3.org/2000/svg" xmlns:xlink="http://www.w3.org/1999/xlink" version="1.1" id="svg4578" inkscape:export-xdpi="135" inkscape:export-ydpi="135" sodipodi:docname="favicon.svg" x="0px" y="0px" style="enable-background:new 0 0 512 512;" xml:space="preserve" viewBox="0 -0.05 512 512">
<style type="text/css">
	.st0{fill:#5DACDF;}
	.st1{fill:none;stroke:#FFFFFF;stroke-width:4.7859;}
	.st2{fill:#FFFFFF;}
</style>
<g id="layer1" transform="translate(-130.69566,-505.14818)" inkscape:groupmode="layer" inkscape:label="Ebene 1">
	<path class="st0" d="M631.2,1017.1h-489c-6.4,0-11.5-5.1-11.5-11.5v-489c0-6.4,5.1-11.5,11.5-11.5h489c6.4,0,11.5,5.1,11.5,11.5   v489C642.7,1012,637.5,1017.1,631.2,1017.1z"/>
	<g id="g4145">
		<path id="rect3772-1-2-9-1-9" class="st1" d="M187.7,573.5h398c4.1,0,7.4,3.3,7.4,7.4v360.4c0,4.1-3.3,7.4-7.4,7.4h-398    c-4.1,0-7.4-3.3-7.4-7.4V581C180.3,576.9,183.6,573.5,187.7,573.5z"/>
		<g id="g4372" transform="matrix(2.3495262,0,0,2.3495262,-228.61678,-1077.8896)">
			<path id="path23-4-1-6-9-0" inkscape:connector-curvature="0" class="st2" d="M197,724.4c-1.5,0-2.8,1.1-2.8,2.6v28.3     c0,1.4,1.2,2.6,2.8,2.6h129.8c1.5,0,2.8-1.2,2.8-2.6v-28.3c0-1.4-1.2-2.6-2.8-2.6H197z M212.8,731.2c5.5,0,9.9,4.5,9.9,9.9     c0,0,0,0,0,0c0,5.5-4.5,9.9-9.9,9.9c0,0,0,0,0,0c-5.5,0-9.9-4.5-9.9-9.9C202.8,735.6,207.3,731.2,212.8,731.2z M212.8,735.9     c-2.9,0-5.2,2.3-5.2,5.2c0,2.9,2.3,5.2,5.2,5.2c2.9,0,5.2-2.3,5.2-5.2c0,0,0,0,0,0C218,738.2,215.6,735.9,212.8,735.9     C212.8,735.9,212.8,735.9,212.8,735.9z"/>
			<path id="path23-4-1-8-7-5" inkscape:connector-curvature="0" class="st2" d="M197,766c-1.5,0-2.8,1.1-2.8,2.6v28.3     c0,1.4,1.2,2.6,2.8,2.6h129.8c1.5,0,2.8-1.2,2.8-2.6v-28.3c0-1.4-1.2-2.6-2.8-2.6H197z M212.8,772.8c5.5,0,9.9,4.5,9.9,9.9     c0,0,0,0,0,0c0,5.5-4.5,9.9-9.9,9.9c0,0,0,0,0,0c-5.5,0-9.9-4.5-9.9-9.9C202.8,777.2,207.3,772.8,212.8,772.8z M212.8,777.5     c-2.9,0-5.2,2.3-5.2,5.2c0,2.9,2.3,5.2,5.2,5.2c0,0,0,0,0,0c2.9,0,5.2-2.3,5.2-5.2c0,0,0,0,0,0     C218,779.9,215.6,777.5,212.8,777.5z"/>
			<path id="path23-4-1-8-3-8-73" inkscape:connector-curvature="0" class="st2" d="M197,807.6c-1.5,0-2.8,1.1-2.8,2.6v28.3     c0,1.4,1.2,2.6,2.8,2.6h129.8c1.5,0,2.8-1.2,2.8-2.6v-28.3c0-1.4-1.2-2.6-2.8-2.6H197z M212.8,814.4c5.5,0,9.9,4.5,9.9,9.9     c0,0,0,0,0,0c0,5.5-4.5,9.9-9.9,9.9c0,0,0,0,0,0c-5.5,0-9.9-4.5-9.9-9.9C202.8,818.8,207.3,814.4,212.8,814.4z M212.8,819.1     c-2.9,0-5.2,2.3-5.2,5.2c0,2.9,2.3,5.2,5.2,5.2c0,0,0,0,0,0c2.9,0,5.2-2.3,5.2-5.2c0,0,0,0,0,0     C218,821.5,215.6,819.1,212.8,819.1C212.8,819.1,212.8,819.1,212.8,819.1z"/>
		</g>
	</g>
</g>
</svg>