<svg xmlns="http://www.w3.org/2000/svg" xmlns:xlink="http://www.w3.org/1999/xlink" version="1.1" id="Layer_1" x="0px" y="0px" style="enable-background:new 0 0 512 512;" xml:space="preserve" viewBox="42.59 0 426.86 511.97">
<style type="text/css">
	.st0{fill:#00ACE2;}
	.st1{fill:#002843;}
</style>
<g transform="matrix(1.0801 0 0 -1.0801 -229.16 210.51)">
	<g>
		<path class="st0" d="M449.1-52.6c-17.8,0.3-32.4-13.8-32.7-31.6c-0.3-17.8,13.8-32.4,31.6-32.7c0.4,0,0.8,0,1.2,0    c17.8,0.3,31.9,15,31.6,32.7C480.4-66.8,466.4-52.9,449.1-52.6 M251.6,112.8l33.5-33.5c43.5,43.6,102.5,68,164.1,67.9    c61.6,0.1,120.6-24.4,164.1-67.9l33.5,33.5c-50.6,50.6-120.5,82.1-197.6,82.1C372,194.9,302.1,163.4,251.6,112.8"/>
		<path class="st0" d="M312,52.4l33.5-33.5c27.5,27.5,64.8,43,103.7,43c38.9,0,76.2-15.4,103.7-43l33.5,33.5    c-35.1,35.1-83.7,57.1-137.2,57.1C395.7,109.5,347.1,87.5,312,52.4"/>
		<path class="st0" d="M372-7.7l33.5-33.5c24.1,24.1,63.2,24.1,87.3,0l33.5,33.5c-20.4,20.5-48.2,31.9-77.1,31.8    C419.3,24.2,392,12,372-7.7"/>
	</g>
	<path class="st1" d="M567.9,1.5c18.3-25,28.2-55.3,28.2-86.3c0-81.1-66-147-147-147c-81.1,0-147,66-147,147   c0,32.2,10.5,62,28.2,86.3l-33.8,33.8c-27.1-34.2-41.8-76.5-41.7-120.1c0-107,87.3-194.3,194.3-194.3c107,0,194.3,87.3,194.3,194.3   c0,45.3-15.8,87-41.7,120.1L567.9,1.5z"/>
</g>
</svg>