<svg xmlns="http://www.w3.org/2000/svg" xmlns:xlink="http://www.w3.org/1999/xlink" version="1.1" id="Ebene_1" x="0px" y="0px" style="enable-background:new 0 0 512 512;" xml:space="preserve" viewBox="29 0.01 453.99 512">
<style type="text/css">
	.st0{fill:#CED83F;}
</style>
<g>
	<path class="st0" d="M136,316.8c-5.3,20.6-10.3,95.2,44.9,98.2c40.7,6.5,117.3-41.5,151.5-69.3L318,315.3   c-49.1,28.6-87.9,52.9-128.3,55.2c-7.2,0.4-13.3-4.6-14.5-11.8c-1.5-9.1-1.1-22.1,1.1-34.3L136,316.8z"/>
	<path class="st0" d="M413.6,29c-64-41.1-135.2-34.3-200.3-5.7C134.9,57.9,65.2,124.5,29,177.8l35,26.3c1.1-1.5,78-93.3,171.7-129.8   c46.4-18.3,97.1-22.8,144.7,4.6c62.4,40,32.7,184.6,0.8,249.4C325.6,441.3,214.1,464.1,166.1,455c-48.4-8.8-68.1-45.3-69.7-75.8   c-3.8-67.8,54.4-131,66.2-142.4l-41.9-30.1C32.8,295.1-11.3,481.7,160,510.6c90.6,9.5,209-27.8,274.5-147.7   C476,288.2,527.8,99,413.6,29z"/>
</g>
</svg>