<svg xmlns="http://www.w3.org/2000/svg" viewBox="0 0 75.591 75.591"><linearGradient id="a" x2="1" gradientTransform="rotate(90 98.803 19.167) scale(49.571)" gradientUnits="userSpaceOnUse"><stop offset="0" stop-color="#36b5f5"/><stop offset=".53" stop-color="#6137f5"/><stop offset="1" stop-color="#5b0d6b"/></linearGradient><linearGradient id="b" x2="1" gradientTransform="rotate(90 103.761 27.049) scale(43.843)" gradientUnits="userSpaceOnUse"><stop offset="0" stop-color="#211060"/><stop offset=".51" stop-color="#9b32bf"/><stop offset="1" stop-color="#fe7a79"/></linearGradient><g stroke-width=".325"><path fill="url(#a)" d="M96.662-54.894c0 13.716 10.798 24.909 24.357 25.545a25.48 25.48 0 0 0 18.262-6.479c-2.998 1.988-6.502 3.132-10.248 3.132-6.09 0-11.544-3.021-15.213-7.785-2.828-3.338-4.66-8.273-4.784-13.81v-1.205c.125-5.537 1.957-10.472 4.784-13.81 3.669-4.765 9.123-7.786 15.214-7.786 3.746 0 7.252 1.145 10.25 3.133a25.476 25.476 0 0 0-16.95-6.509l-.096-.001c-14.124 0-25.574 11.45-25.574 25.575z" transform="translate(-142.85 118.952) scale(1.47783)"/><path fill="url(#b)" d="M113.82-69.306c2.347-2.77 5.378-4.441 8.69-4.441 7.445 0 13.48 8.44 13.48 18.853s-6.036 18.853-13.48 18.853c-3.312 0-6.343-1.671-8.69-4.441 3.67 4.764 9.123 7.785 15.213 7.785 3.746 0 7.25-1.143 10.248-3.132 5.235-4.683 8.531-11.489 8.531-19.066 0-7.575-3.295-14.38-8.529-19.064-2.998-1.988-6.503-3.133-10.25-3.133-6.09 0-11.544 3.021-15.214 7.786z" transform="translate(-142.85 118.952) scale(1.47783)"/></g></svg>