<svg xmlns="http://www.w3.org/2000/svg" xmlns:xlink="http://www.w3.org/1999/xlink" xml:space="preserve" viewBox="0 0 512 512"><g transform="matrix(.9957 0 0 1 -29.69 -15.7)"><defs><path id="a" d="M75.6 94.3V73.8c0-1.7.4-4.7.4-4.7l.9-2.1v-.9l.9-1.7.4-.4.4-.9.4-.4v-.4l.9-.9V61l3-3 .9-.4h.4l1.3-.9h1.3l2.6-1.3C91 55 92.3 55 94 55h404.3v39.3h38.5V15.7H94c-31.2 0-56.8 26.1-56.8 58.1v20.5z"/></defs><clipPath id="b"><use xlink:href="#a" style="overflow:visible"/></clipPath><path d="M38.8 11.4h500.5v51.3H38.8z" style="clip-path:url(#b);fill:#898b8d"/><defs><path id="c" d="M75.6 94.3V73.8c0-1.7.4-4.7.4-4.7l.9-2.1v-.9l.9-1.7.4-.4.4-.9.4-.4v-.4l.9-.9V61l3-3 .9-.4h.4l1.3-.9h1.3l2.6-1.3C91 55 92.3 55 94 55h404.3v39.3h38.5V15.7H94c-31.2 0-56.8 26.1-56.8 58.1v20.5z"/></defs><clipPath id="d"><use xlink:href="#c" style="overflow:visible"/></clipPath><linearGradient id="e" x1="-2155.954" x2="-2070.479" y1="407.417" y2="407.417" gradientTransform="matrix(.1861 .356 .6751 -.353 635.89 960.19)" gradientUnits="userSpaceOnUse"><stop offset="0" style="stop-color:#737373"/><stop offset="1" style="stop-color:#333"/></linearGradient><path d="M481.6 64 538 33.7l15.8 30.7-56.4 30.4z" style="clip-path:url(#d);fill:url(#e)"/><defs><path id="f" d="M75.6 94.3V73.8c0-1.7.4-4.7.4-4.7l.9-2.1v-.9l.9-1.7.4-.4.4-.9.4-.4v-.4l.9-.9V61l3-3 .9-.4h.4l1.3-.9h1.3l2.6-1.3C91 55 92.3 55 94 55h404.3v39.3h38.5V15.7H94c-31.2 0-56.8 26.1-56.8 58.1v20.5z"/></defs><clipPath id="g"><use xlink:href="#f" style="overflow:visible"/></clipPath><linearGradient id="h" x1="-2680.468" x2="-2590.718" y1="-1439.954" y2="-1439.954" gradientTransform="matrix(-.1853 .3564 .5495 .2858 364.69 1415.868)" gradientUnits="userSpaceOnUse"><stop offset="0" style="stop-color:#737373"/><stop offset="1" style="stop-color:#333"/></linearGradient><path d="m46.1 38.8 45.7 24.8L76 94.3 30.3 70z" style="clip-path:url(#g);fill:url(#h)"/><path d="M114 94.3h345.7v39.3H114zm0 315.9h345.7v39.3H114z" style="fill:#403f41"/><defs><path id="i" d="M498.3 449.5V470c0 1.7-.4 4.7-.4 4.7l-.9 2.1v.9l-.9 1.7-.4.4-.4.9-.4.4v.4l-.9.9v.4l-2.1 2.1h-.4l-.4.4-.9.4-.4.4-1.3.9h-1.3l-2.2 1c-1.7.4-3 .4-4.7.4H75.6v-39.3H37.1v78.6h442.8c31.2 0 56.8-26.1 56.8-58.1v-20.5h-38.5z"/></defs><clipPath id="j"><use xlink:href="#i" style="overflow:visible"/></clipPath><path d="M34.6 481.1h500.5v51.3H34.6z" style="clip-path:url(#j);fill:#898b8d"/><defs><path id="k" d="M498.3 449.5V470c0 1.7-.4 4.7-.4 4.7l-.9 2.1v.9l-.9 1.7-.4.4-.4.9-.4.4v.4l-.9.9v.4l-2.1 2.1h-.4l-.4.4-.9.4-.4.4-1.3.9h-1.3l-2.2 1c-1.7.4-3 .4-4.7.4H75.6v-39.3H37.1v78.6h442.8c31.2 0 56.8-26.1 56.8-58.1v-20.5h-38.5z"/></defs><clipPath id="l"><use xlink:href="#k" style="overflow:visible"/></clipPath><linearGradient id="m" x1="811.45" x2="901.2" y1="-1366.885" y2="-1366.885" gradientTransform="matrix(-.1861 -.356 -.6751 .353 -707.314 1267.11)" gradientUnits="userSpaceOnUse"><stop offset="0" style="stop-color:#737373"/><stop offset="1" style="stop-color:#333"/></linearGradient><path d="m92.3 480.3-56.5 30.3L20 479.4l56.4-30.3z" style="clip-path:url(#l);fill:url(#m)"/><defs><path id="n" d="M498.3 449.5V470c0 1.7-.4 4.7-.4 4.7l-.9 2.1v.9l-.9 1.7-.4.4-.4.9-.4.4v.4l-.9.9v.4l-2.1 2.1h-.4l-.4.4-.9.4-.4.4-1.3.9h-1.3l-2.2 1c-1.7.4-3 .4-4.7.4H75.6v-39.3H37.1v78.6h442.8c31.2 0 56.8-26.1 56.8-58.1v-20.5h-38.5z"/></defs><clipPath id="o"><use xlink:href="#n" style="overflow:visible"/></clipPath><linearGradient id="p" x1="1784.506" x2="1869.982" y1="-1110.677" y2="-1110.677" gradientTransform="matrix(.1853 -.3564 -.5495 -.2858 -435.812 810.832)" gradientUnits="userSpaceOnUse"><stop offset="0" style="stop-color:#737373"/><stop offset="1" style="stop-color:#333"/></linearGradient><path d="M528.2 505 482 480.3l15.8-30.8 46.2 24.3z" style="clip-path:url(#o);fill:url(#p)"/><defs><path id="q" d="M75.9 173.4h147.2v39.3H75.9z"/></defs><clipPath id="r"><use xlink:href="#q" style="overflow:visible"/></clipPath><path d="M75.6 173.4h147.9v39.3H75.6z" style="clip-path:url(#r);fill:#58595b"/><defs><path id="s" d="M75.9 173.4h147.2v39.3H75.9z"/></defs><clipPath id="t"><use xlink:href="#s" style="overflow:visible"/></clipPath><linearGradient id="u" x1="2810.619" x2="2973.181" y1="-1931.616" y2="-1931.616" gradientTransform="matrix(-1.5145 -1.0166 -3.14 -1.519 -1537.55 197.892)" gradientUnits="userSpaceOnUse"><stop offset=".107" style="stop-color:#58595b"/><stop offset="1" style="stop-color:#000"/></linearGradient><path d="M207.6 244.3 73.9 172.5l15.8-31.6 134.2 71.8z" style="clip-path:url(#t);fill:url(#u)"/><defs><path id="v" d="M350.7 173.4h147.2v39.3H350.7z"/></defs><clipPath id="w"><use xlink:href="#v" style="overflow:visible"/></clipPath><path d="M350.4 173.4h147.9v39.3H350.4z" style="clip-path:url(#w);fill:#58595b"/><defs><path id="x" d="M350.7 173.4h147.2v39.3H350.7z"/></defs><clipPath id="y"><use xlink:href="#x" style="overflow:visible"/></clipPath><linearGradient id="z" x1="1609.403" x2="1771.965" y1="-1128.194" y2="-1128.194" gradientTransform="matrix(1.5145 -1.0166 3.14 -1.519 1407.127 197.892)" gradientUnits="userSpaceOnUse"><stop offset=".107" style="stop-color:#58595b"/><stop offset="1" style="stop-color:#000"/></linearGradient><path d="m366.2 244.3 134.2-71.8-16.2-31.6-133.8 71.8z" style="clip-path:url(#y);fill:url(#z)"/><defs><path id="A" d="M350.7 331.1h147.2v39.3H350.7z"/></defs><clipPath id="B"><use xlink:href="#A" style="overflow:visible"/></clipPath><path d="M350.4 331.1h147.9v39.3H350.4z" style="clip-path:url(#B);fill:#58595b"/><defs><path id="C" d="M350.7 331.1h147.2v39.3H350.7z"/></defs><clipPath id="D"><use xlink:href="#C" style="overflow:visible"/></clipPath><linearGradient id="E" x1="-2911.86" x2="-2749.299" y1="1028.277" y2="1028.277" gradientTransform="matrix(1.5145 1.0166 3.14 1.519 1467.127 1655.908)" gradientUnits="userSpaceOnUse"><stop offset=".107" style="stop-color:#58595b"/><stop offset="1" style="stop-color:#000"/></linearGradient><path d="m366.2 299.5 134.2 71.8-16.2 31.6-133.8-71.8z" style="clip-path:url(#D);fill:url(#E)"/><defs><path id="F" d="M75.9 331.1h147.2v39.3H75.9z"/></defs><clipPath id="G"><use xlink:href="#F" style="overflow:visible"/></clipPath><path d="M75.6 331.1h147.9v39.3H75.6z" style="clip-path:url(#G);fill:#58595b"/><defs><path id="H" d="M75.9 331.1h147.2v39.3H75.9z"/></defs><clipPath id="I"><use xlink:href="#H" style="overflow:visible"/></clipPath><linearGradient id="J" x1="-1914.024" x2="-1747.346" y1="360.526" y2="360.526" gradientTransform="matrix(-1.5145 1.0166 -3.14 1.519 -1478.55 1655.908)" gradientUnits="userSpaceOnUse"><stop offset=".107" style="stop-color:#58595b"/><stop offset="1" style="stop-color:#000"/></linearGradient><path d="M207.6 299.5 73.9 371.3l15.8 31.6 134.2-71.8z" style="clip-path:url(#I);fill:url(#J)"/><linearGradient id="K" x1="67.312" x2="253.649" y1="386.627" y2="386.627" gradientTransform="matrix(.9957 0 0 -1 -29.902 529.9)" gradientUnits="userSpaceOnUse"><stop offset=".237" style="stop-color:#a6a8ab"/><stop offset="1" style="stop-color:#404040"/></linearGradient><path d="M223.5 173.4v39.3L37.1 113.1V73.8z" style="fill:url(#K)"/><linearGradient id="L" x1="-749.672" x2="-563.335" y1="386.627" y2="386.627" gradientTransform="matrix(-.9957 0 0 -1 -209.722 529.9)" gradientUnits="userSpaceOnUse"><stop offset=".237" style="stop-color:#a6a8ab"/><stop offset="1" style="stop-color:#404040"/></linearGradient><path d="M350.4 173.4v39.3l186.3-99.6V73.8z" style="fill:url(#L)"/><linearGradient id="M" x1="-580.464" x2="-394.127" y1="-993.532" y2="-993.532" gradientTransform="matrix(-.9957 0 0 1 -41.242 1394.3)" gradientUnits="userSpaceOnUse"><stop offset=".237" style="stop-color:#a6a8ab"/><stop offset="1" style="stop-color:#404040"/></linearGradient><path d="M350.4 370.9v-39.8l186.3 99.6v39.7z" style="fill:url(#M)"/><linearGradient id="N" x1="-101.486" x2="84.552" y1="-993.532" y2="-993.532" gradientTransform="matrix(.9957 0 0 1 138.598 1394.3)" gradientUnits="userSpaceOnUse"><stop offset=".237" style="stop-color:#a6a8ab"/><stop offset="1" style="stop-color:#404040"/></linearGradient><path d="M223.5 370.9v-39.8L37.1 430.7v39.7z" style="fill:url(#N)"/><path d="m350.4 291.8 109.4 58.5v-39.7l-35.5-18.8h112.4V252H424.3l35.5-18.8v-39.3L350.4 252zM114 350.3l109.5-58.5V252L114 193.9v39.3l35.9 18.8H37.1v39.8h112.4L114 310.6z" style="fill:#e24525"/></g></svg>