<svg xmlns="http://www.w3.org/2000/svg" xmlns:xlink="http://www.w3.org/1999/xlink" id="Layer_1" x="0" y="0" version="1.1" viewBox="0 0 1044.2 1072.9" style="enable-background:new 0 0 1044.2 1072.9" xml:space="preserve"><style type="text/css">.st0{fill:#e3e4e5}.st1{fill:url(#SVGID_1_)}.st3{fill:#939292}.st6{fill:#aaabab}.st15{fill:#d94f00}</style><g><path d="M1044.2,99.3h-80.3V82.6H118.7c-3.4,0-6.1,0.5-9.6,1.2h-0.2l-4.2,1.5l-0.7,0.2l-0.5,0.3l-0.7,0.5L99.5,88 l-0.7,0.2v0.3l-1.5,0.7l-1.2,1l-0.5,0.5l-0.7,0.5l-0.5,0.2v0.3l-0.5,0.5l-0.7,0.5l-0.5,0.5l-0.5,0.5l-1.2,1.2l-0.3,0.5l-0.7,0.7 l-0.5,0.2h0.2L88.9,97l-0.2,0.2v0.3L88.2,98v0.3l-0.5,0.5l-0.3,0.5H3.2v-5.7C15.7,40,62.9,0,118.7,0h925.5V99.3z" class="st0"/><linearGradient id="SVGID_1_" x1="-436.531" x2="-435.531" y1="1080" y2="1080" gradientTransform="matrix(18.2764 64.3654 -64.3654 18.2764 78487.6094 8429.0996)" gradientUnits="userSpaceOnUse"><stop offset="0" style="stop-color:#e4e4e4"/><stop offset="1" style="stop-color:#a2a2a2"/></linearGradient><polygon points="963.8 82.8 1044.2 39.6 1044.2 122.1 964.1 165.1 963.8 165.1" class="st1"/><linearGradient id="SVGID_00000047022206145113723510000016437312225066538639_" x1="-436.531" x2="-435.531" y1="1080" y2="1080" gradientTransform="matrix(-25.2537 64.1341 -64.1341 -25.2537 58302.6641 55347.2422)" gradientUnits="userSpaceOnUse"><stop offset="0" style="stop-color:#e4e4e4"/><stop offset="1" style="stop-color:#a2a2a2"/></linearGradient><path style="fill:url(#SVGID_00000047022206145113723510000016437312225066538639_)" d="M22.1,51.3l73.5,39.3l-0.7,0.5l-0.5,0.2 v0.3l-0.5,0.5l-0.7,0.5l-0.5,0.5l-0.5,0.5l-1.2,1.2l-0.3,0.5l-0.7,0.7l-0.5,0.2h0.2L88.9,97l-0.2,0.2v0.3L88.2,98v0.3l-0.5,0.5 L87,100l-0.2,0.2l-0.7,1.2l-0.5,0.7v0.2l-1.7,3v0.2l-0.2,0.7l-0.3,0.5l-0.2,0.5v0.3l-1.5,4.7c0-0.2-1.2,6.4-1.2,9.6v43.2L0,122.1 v-0.2C0,95.6,8.1,71.2,22.1,51.3z"/><rect width="722.8" height="82.6" x="160.7" y="165.1" class="st3"/><path d="M0,973.9h80.3v16.5h845.1c3.4,0,6.1-0.2,9.3-1.2h0.3l4.4-1.5l0.5-0.3l0.5-0.2l1-0.2l3-1.7l0.7-0.5h0.2l1.2-1 l1.2-0.7v-0.2l0.7-0.5l0.7-0.5l0.2-0.3l0.7-0.5l0.7-0.7l0.2-0.2v-0.3l0.5-0.2l1.2-1.2v-0.2l0.5-0.2l0.5-0.7l0.5-0.5l0.5-0.7 l0.3-0.3l0.5-0.7l0.5-0.7h0.2l0.2-0.2h84v5.7c-12.5,53.6-59.5,93.4-115.2,93.4H0v-81.6v-1V973.9z" class="st0"/><linearGradient id="SVGID_00000112628465541256169330000007186168219163578302_" x1="-436.531" x2="-435.531" y1="1080" y2="1080" gradientTransform="matrix(-18.2812 -64.3516 64.3516 -18.2812 -77430.6797 -7344.9043)" gradientUnits="userSpaceOnUse"><stop offset="0" style="stop-color:#e4e4e4"/><stop offset="1" style="stop-color:#a2a2a2"/></linearGradient><polygon style="fill:url(#SVGID_00000112628465541256169330000007186168219163578302_)" points="80.3 990.3 0 1033.3 0 991.3 0 990.3 0 950.8 79.8 907.8 80.3 907.8"/><linearGradient id="SVGID_00000111187167366360424160000016725278928859456667_" x1="-436.531" x2="-435.531" y1="1080" y2="1080" gradientTransform="matrix(25.2512 -64.1304 64.1304 25.2512 -57255.6523 -54269.8672)" gradientUnits="userSpaceOnUse"><stop offset="0" style="stop-color:#e4e4e4"/><stop offset="1" style="stop-color:#a2a2a2"/></linearGradient><path style="fill:url(#SVGID_00000111187167366360424160000016725278928859456667_)" d="M1022,1021.5l-73.5-39.3l0.7-0.5l0.2-0.3 l0.7-0.5l0.7-0.7l0.2-0.2v-0.3l0.5-0.2l1.2-1.2v-0.2l0.5-0.2l0.5-0.7l0.5-0.5l0.5-0.7l0.3-0.3l0.5-0.7l0.5-0.7h0.2l0.7-1.2l1-1.5 l0.5-0.7l1.5-3.2l0.2-0.3l0.2-0.5v-0.3l0.2-0.5v-0.3l0.3-0.2l1.5-4.7c0,0,1.2-6.6,1.2-9.8v-43l80.3,42.7v0.2 C1043.9,977.3,1035.8,1001.6,1022,1021.5z"/><rect width="308.8" height="82.6" x="80.3" y="330.2" class="st6"/><linearGradient id="SVGID_00000124163711919934827600000015223392067256565944_" x1="-436.531" x2="-435.531" y1="1080" y2="1080" gradientTransform="matrix(-508.9776 -132.43 132.43 -508.9776 -364719.5312 492323.7812)" gradientUnits="userSpaceOnUse"><stop offset="0" style="stop-color:#aaabab"/><stop offset=".1" style="stop-color:#aaabab"/><stop offset="1" style="stop-color:#4e4e4e"/></linearGradient><polygon style="fill:url(#SVGID_00000124163711919934827600000015223392067256565944_)" points="233.1 412.7 80.3 330.7 80.3 330.2 235.9 330.2 389.2 412.2 389.2 412.7"/><rect width="309.1" height="82.6" x="654.7" y="330.2" class="st6"/><linearGradient id="SVGID_00000161603880371678629700000016987711509589370532_" x1="-436.531" x2="-435.531" y1="1080" y2="1080" gradientTransform="matrix(508.9897 -132.4201 132.4201 508.9897 79730.6406 -607076.5625)" gradientUnits="userSpaceOnUse"><stop offset="0" style="stop-color:#aaabab"/><stop offset=".1" style="stop-color:#aaabab"/><stop offset="1" style="stop-color:#4e4e4e"/></linearGradient><polygon style="fill:url(#SVGID_00000161603880371678629700000016987711509589370532_)" points="810.7 412.7 963.8 330.7 963.8 330.2 808 330.2 654.7 412.2 654.7 412.7"/><rect width="309.1" height="82.6" x="654.7" y="660.4" class="st6"/><linearGradient id="SVGID_00000043436674616112000510000008081731621243629721_" x1="-436.531" x2="-435.531" y1="1080" y2="1080" gradientTransform="matrix(508.982 132.4201 -132.4201 508.982 365754.6875 -491259.6562)" gradientUnits="userSpaceOnUse"><stop offset="0" style="stop-color:#aaabab"/><stop offset=".1" style="stop-color:#aaabab"/><stop offset="1" style="stop-color:#4e4e4e"/></linearGradient><polygon style="fill:url(#SVGID_00000043436674616112000510000008081731621243629721_)" points="810.7 660.4 963.8 742.2 963.8 742.9 808 742.9 654.7 660.6 654.7 660.4"/><rect width="308.8" height="82.6" x="80.3" y="660.4" class="st6"/><linearGradient id="SVGID_00000140695339908375380790000008077092379392045452_" x1="-436.531" x2="-435.531" y1="1080" y2="1080" gradientTransform="matrix(-508.9709 132.4278 -132.4278 -508.9709 -78670.0703 608132.8125)" gradientUnits="userSpaceOnUse"><stop offset="0" style="stop-color:#aaabab"/><stop offset=".1" style="stop-color:#aaabab"/><stop offset="1" style="stop-color:#4e4e4e"/></linearGradient><polygon style="fill:url(#SVGID_00000140695339908375380790000008077092379392045452_)" points="233.1 660.4 80.3 742.2 80.3 742.9 235.9 742.9 389.2 660.6 389.2 660.4"/><linearGradient id="SVGID_00000027604031217678738830000007543440418495460025_" x1="-436.531" x2="-435.531" y1="1080" y2="1080" gradientTransform="matrix(389.1637 0 0 389.1637 169881.8594 -420029.5)" gradientUnits="userSpaceOnUse"><stop offset="0" style="stop-color:#fefefe"/><stop offset=".23" style="stop-color:#fefefe"/><stop offset="1" style="stop-color:#b0b0b0"/></linearGradient><polygon style="fill:url(#SVGID_00000027604031217678738830000007543440418495460025_)" points="389.2 412.7 0 204.4 0 121.9 389.2 330.2"/><linearGradient id="SVGID_00000085942151349815611770000017634209741374218683_" x1="-436.531" x2="-435.531" y1="1080" y2="1080" gradientTransform="matrix(-389.4062 0 0 -389.4062 -168943.5625 420826)" gradientUnits="userSpaceOnUse"><stop offset="0" style="stop-color:#fefefe"/><stop offset=".23" style="stop-color:#fefefe"/><stop offset="1" style="stop-color:#b0b0b0"/></linearGradient><polygon style="fill:url(#SVGID_00000085942151349815611770000017634209741374218683_)" points="654.7 412.7 1044.2 204.4 1044.2 121.9 654.7 330.2"/><rect width="722.8" height="82.3" x="162.2" y="825.5" class="st3"/><linearGradient id="SVGID_00000088101808087792084480000010495248900204035993_" x1="-436.531" x2="-435.531" y1="1080" y2="1080" gradientTransform="matrix(-389.4062 0 0 -389.4062 -168943.5625 421364.4062)" gradientUnits="userSpaceOnUse"><stop offset="0" style="stop-color:#fefefe"/><stop offset=".23" style="stop-color:#fefefe"/><stop offset="1" style="stop-color:#b0b0b0"/></linearGradient><polygon style="fill:url(#SVGID_00000088101808087792084480000010495248900204035993_)" points="654.7 660.4 1044.2 868.5 1044.2 951 654.7 742.9"/><linearGradient id="SVGID_00000016785220900253764290000013796067822628165562_" x1="-436.531" x2="-435.531" y1="1080" y2="1080" gradientTransform="matrix(389.1637 0 0 389.1637 169881.8594 -419491.0625)" gradientUnits="userSpaceOnUse"><stop offset="0" style="stop-color:#fefefe"/><stop offset=".23" style="stop-color:#fefefe"/><stop offset="1" style="stop-color:#b0b0b0"/></linearGradient><polygon style="fill:url(#SVGID_00000016785220900253764290000013796067822628165562_)" points="389.2 660.4 0 868.5 0 951 389.2 742.9"/><polygon points="1044.2 495.3 809 495.3 883.2 455.5 883.2 373 654.7 495.3 654.7 577.8 655 577.8 883.5 699.9 883.5 617.4 809.3 577.8 1044.2 577.8" class="st15"/><polygon points="160.7 373 160.7 455.5 235.1 495.3 0 495.3 0 577.8 234.9 577.8 160.7 617.4 160.7 699.9 389.2 577.8 389.2 577.6 389.2 495.3" class="st15"/></g></svg>