<svg xmlns="http://www.w3.org/2000/svg" xmlns:xlink="http://www.w3.org/1999/xlink" xml:space="preserve" id="cvfy" x="0" y="0" version="1.1" viewBox="0 0 512 512"><style>.st3{fill:#403f41}.st19{fill:#e24525}</style><g transform="matrix(.9957 0 0 1 -29.69 -15.7)"><defs><path id="SVGID_1_" d="M75.6 94.3V73.8c0-1.7.4-4.7.4-4.7l.9-2.1v-.9l.9-1.7.4-.4.4-.9.4-.4v-.4l.9-.9V61l3-3 .9-.4h.4l1.3-.9h1.3l2.6-1.3C91 55 92.3 55 94 55h404.3v39.3h38.5V15.7H94c-31.2 0-56.8 26.1-56.8 58.1v20.5z"/></defs><clipPath id="SVGID_00000161625913714908996350000016893829807554758308_"><use xlink:href="#SVGID_1_" style="overflow:visible"/></clipPath><path d="M38.8 11.4h500.5v51.3H38.8z" style="clip-path:url(#SVGID_00000161625913714908996350000016893829807554758308_);fill:#898b8d"/><defs><path id="SVGID_00000039836262835380498550000011059029963603167132_" d="M75.6 94.3V73.8c0-1.7.4-4.7.4-4.7l.9-2.1v-.9l.9-1.7.4-.4.4-.9.4-.4v-.4l.9-.9V61l3-3 .9-.4h.4l1.3-.9h1.3l2.6-1.3C91 55 92.3 55 94 55h404.3v39.3h38.5V15.7H94c-31.2 0-56.8 26.1-56.8 58.1v20.5z"/></defs><clipPath id="SVGID_00000145031951764524482510000018231235710457635774_"><use xlink:href="#SVGID_00000039836262835380498550000011059029963603167132_" style="overflow:visible"/></clipPath><linearGradient id="SVGID_00000078005731935047407090000014247676509137934225_" x1="-2155.954" x2="-2070.479" y1="407.417" y2="407.417" gradientTransform="matrix(.1861 .356 .6751 -.353 635.89 960.19)" gradientUnits="userSpaceOnUse"><stop offset="0" style="stop-color:#737373"/><stop offset="1" style="stop-color:#333"/></linearGradient><path d="M481.6 64 538 33.7l15.8 30.7-56.4 30.4z" style="clip-path:url(#SVGID_00000145031951764524482510000018231235710457635774_);fill:url(#SVGID_00000078005731935047407090000014247676509137934225_)"/><defs><path id="SVGID_00000076561558978916356880000015140687587276658330_" d="M75.6 94.3V73.8c0-1.7.4-4.7.4-4.7l.9-2.1v-.9l.9-1.7.4-.4.4-.9.4-.4v-.4l.9-.9V61l3-3 .9-.4h.4l1.3-.9h1.3l2.6-1.3C91 55 92.3 55 94 55h404.3v39.3h38.5V15.7H94c-31.2 0-56.8 26.1-56.8 58.1v20.5z"/></defs><clipPath id="SVGID_00000103258313834897957480000003231911644215059134_"><use xlink:href="#SVGID_00000076561558978916356880000015140687587276658330_" style="overflow:visible"/></clipPath><linearGradient id="SVGID_00000021104482084073619980000000310603221330206850_" x1="-2680.468" x2="-2590.718" y1="-1439.954" y2="-1439.954" gradientTransform="matrix(-.1853 .3564 .5495 .2858 364.69 1415.868)" gradientUnits="userSpaceOnUse"><stop offset="0" style="stop-color:#737373"/><stop offset="1" style="stop-color:#333"/></linearGradient><path d="m46.1 38.8 45.7 24.8L76 94.3 30.3 70z" style="clip-path:url(#SVGID_00000103258313834897957480000003231911644215059134_);fill:url(#SVGID_00000021104482084073619980000000310603221330206850_)"/><path d="M114 94.3h345.7v39.3H114zM114 410.2h345.7v39.3H114z" class="st3"/><defs><path id="SVGID_00000114055607210798498370000001002523773793945769_" d="M498.3 449.5V470c0 1.7-.4 4.7-.4 4.7l-.9 2.1v.9l-.9 1.7-.4.4-.4.9-.4.4v.4l-.9.9v.4l-2.1 2.1h-.4l-.4.4-.9.4-.4.4-1.3.9h-1.3l-2.2 1c-1.7.4-3 .4-4.7.4H75.6v-39.3H37.1v78.6h442.8c31.2 0 56.8-26.1 56.8-58.1v-20.5h-38.5z"/></defs><clipPath id="SVGID_00000059296627347981136360000010347353956952511913_"><use xlink:href="#SVGID_00000114055607210798498370000001002523773793945769_" style="overflow:visible"/></clipPath><path d="M34.6 481.1h500.5v51.3H34.6z" style="clip-path:url(#SVGID_00000059296627347981136360000010347353956952511913_);fill:#898b8d"/><defs><path id="SVGID_00000083078593533593096740000013581966812793105295_" d="M498.3 449.5V470c0 1.7-.4 4.7-.4 4.7l-.9 2.1v.9l-.9 1.7-.4.4-.4.9-.4.4v.4l-.9.9v.4l-2.1 2.1h-.4l-.4.4-.9.4-.4.4-1.3.9h-1.3l-2.2 1c-1.7.4-3 .4-4.7.4H75.6v-39.3H37.1v78.6h442.8c31.2 0 56.8-26.1 56.8-58.1v-20.5h-38.5z"/></defs><clipPath id="SVGID_00000062174986535570822790000001001368201827526835_"><use xlink:href="#SVGID_00000083078593533593096740000013581966812793105295_" style="overflow:visible"/></clipPath><linearGradient id="SVGID_00000135670850981559560900000018215134362259054507_" x1="811.45" x2="901.2" y1="-1366.885" y2="-1366.885" gradientTransform="matrix(-.1861 -.356 -.6751 .353 -707.314 1267.11)" gradientUnits="userSpaceOnUse"><stop offset="0" style="stop-color:#737373"/><stop offset="1" style="stop-color:#333"/></linearGradient><path d="m92.3 480.3-56.5 30.3L20 479.4l56.4-30.3z" style="clip-path:url(#SVGID_00000062174986535570822790000001001368201827526835_);fill:url(#SVGID_00000135670850981559560900000018215134362259054507_)"/><defs><path id="SVGID_00000069387802829912992070000017877887322812304551_" d="M498.3 449.5V470c0 1.7-.4 4.7-.4 4.7l-.9 2.1v.9l-.9 1.7-.4.4-.4.9-.4.4v.4l-.9.9v.4l-2.1 2.1h-.4l-.4.4-.9.4-.4.4-1.3.9h-1.3l-2.2 1c-1.7.4-3 .4-4.7.4H75.6v-39.3H37.1v78.6h442.8c31.2 0 56.8-26.1 56.8-58.1v-20.5h-38.5z"/></defs><clipPath id="SVGID_00000008836442898483601820000003705779373768739512_"><use xlink:href="#SVGID_00000069387802829912992070000017877887322812304551_" style="overflow:visible"/></clipPath><linearGradient id="SVGID_00000098932532327988457340000003565367637112387763_" x1="1784.506" x2="1869.982" y1="-1110.677" y2="-1110.677" gradientTransform="matrix(.1853 -.3564 -.5495 -.2858 -435.812 810.832)" gradientUnits="userSpaceOnUse"><stop offset="0" style="stop-color:#737373"/><stop offset="1" style="stop-color:#333"/></linearGradient><path d="M528.2 505 482 480.3l15.8-30.8 46.2 24.3z" style="clip-path:url(#SVGID_00000008836442898483601820000003705779373768739512_);fill:url(#SVGID_00000098932532327988457340000003565367637112387763_)"/><defs><path id="SVGID_00000010996101013734781830000007867714471007731611_" d="M75.9 173.4h147.2v39.3H75.9z"/></defs><clipPath id="SVGID_00000176023620328728773890000003366896823840317880_"><use xlink:href="#SVGID_00000010996101013734781830000007867714471007731611_" style="overflow:visible"/></clipPath><path d="M75.6 173.4h147.9v39.3H75.6z" style="clip-path:url(#SVGID_00000176023620328728773890000003366896823840317880_);fill:#58595b"/><defs><path id="SVGID_00000063603815544437227670000014535972395345575865_" d="M75.9 173.4h147.2v39.3H75.9z"/></defs><clipPath id="SVGID_00000080172769172156080430000009348266803940717726_"><use xlink:href="#SVGID_00000063603815544437227670000014535972395345575865_" style="overflow:visible"/></clipPath><linearGradient id="SVGID_00000061437428820175280410000012910652936243919511_" x1="2810.619" x2="2973.181" y1="-1931.616" y2="-1931.616" gradientTransform="matrix(-1.5145 -1.0166 -3.14 -1.519 -1537.55 197.892)" gradientUnits="userSpaceOnUse"><stop offset=".107" style="stop-color:#58595b"/><stop offset="1" style="stop-color:#000"/></linearGradient><path d="M207.6 244.3 73.9 172.5l15.8-31.6 134.2 71.8z" style="clip-path:url(#SVGID_00000080172769172156080430000009348266803940717726_);fill:url(#SVGID_00000061437428820175280410000012910652936243919511_)"/><defs><path id="SVGID_00000155831191177564464590000000672741723583733403_" d="M350.7 173.4h147.2v39.3H350.7z"/></defs><clipPath id="SVGID_00000153685801618943493350000005915922512874429330_"><use xlink:href="#SVGID_00000155831191177564464590000000672741723583733403_" style="overflow:visible"/></clipPath><path d="M350.4 173.4h147.9v39.3H350.4z" style="clip-path:url(#SVGID_00000153685801618943493350000005915922512874429330_);fill:#58595b"/><defs><path id="SVGID_00000107553520980901561460000016486314101050164627_" d="M350.7 173.4h147.2v39.3H350.7z"/></defs><clipPath id="SVGID_00000060712213222627070190000012103345451443261081_"><use xlink:href="#SVGID_00000107553520980901561460000016486314101050164627_" style="overflow:visible"/></clipPath><linearGradient id="SVGID_00000122707151202761213610000010003090446827164862_" x1="1609.403" x2="1771.965" y1="-1128.194" y2="-1128.194" gradientTransform="matrix(1.5145 -1.0166 3.14 -1.519 1407.127 197.892)" gradientUnits="userSpaceOnUse"><stop offset=".107" style="stop-color:#58595b"/><stop offset="1" style="stop-color:#000"/></linearGradient><path d="m366.2 244.3 134.2-71.8-16.2-31.6-133.8 71.8z" style="clip-path:url(#SVGID_00000060712213222627070190000012103345451443261081_);fill:url(#SVGID_00000122707151202761213610000010003090446827164862_)"/><defs><path id="SVGID_00000074426844654628894550000014179632847424566144_" d="M350.7 331.1h147.2v39.3H350.7z"/></defs><clipPath id="SVGID_00000034082934939390513700000011272967209820827580_"><use xlink:href="#SVGID_00000074426844654628894550000014179632847424566144_" style="overflow:visible"/></clipPath><path d="M350.4 331.1h147.9v39.3H350.4z" style="clip-path:url(#SVGID_00000034082934939390513700000011272967209820827580_);fill:#58595b"/><defs><path id="SVGID_00000137115064005292752050000010886041686049043100_" d="M350.7 331.1h147.2v39.3H350.7z"/></defs><clipPath id="SVGID_00000121238272746715506240000009389978763949670580_"><use xlink:href="#SVGID_00000137115064005292752050000010886041686049043100_" style="overflow:visible"/></clipPath><linearGradient id="SVGID_00000036955702282511980320000012048949119629900468_" x1="-2911.86" x2="-2749.299" y1="1028.277" y2="1028.277" gradientTransform="matrix(1.5145 1.0166 3.14 1.519 1467.127 1655.908)" gradientUnits="userSpaceOnUse"><stop offset=".107" style="stop-color:#58595b"/><stop offset="1" style="stop-color:#000"/></linearGradient><path d="m366.2 299.5 134.2 71.8-16.2 31.6-133.8-71.8z" style="clip-path:url(#SVGID_00000121238272746715506240000009389978763949670580_);fill:url(#SVGID_00000036955702282511980320000012048949119629900468_)"/><defs><path id="SVGID_00000163057097200676911240000003353066092125288875_" d="M75.9 331.1h147.2v39.3H75.9z"/></defs><clipPath id="SVGID_00000118376390153040949260000009539981367530778027_"><use xlink:href="#SVGID_00000163057097200676911240000003353066092125288875_" style="overflow:visible"/></clipPath><path d="M75.6 331.1h147.9v39.3H75.6z" style="clip-path:url(#SVGID_00000118376390153040949260000009539981367530778027_);fill:#58595b"/><defs><path id="SVGID_00000026880314297427201320000000148371263097136561_" d="M75.9 331.1h147.2v39.3H75.9z"/></defs><clipPath id="SVGID_00000007412462534933134820000005287557117453584557_"><use xlink:href="#SVGID_00000026880314297427201320000000148371263097136561_" style="overflow:visible"/></clipPath><linearGradient id="SVGID_00000140003725491096668590000013912226250182393766_" x1="-1914.024" x2="-1747.346" y1="360.526" y2="360.526" gradientTransform="matrix(-1.5145 1.0166 -3.14 1.519 -1478.55 1655.908)" gradientUnits="userSpaceOnUse"><stop offset=".107" style="stop-color:#58595b"/><stop offset="1" style="stop-color:#000"/></linearGradient><path d="M207.6 299.5 73.9 371.3l15.8 31.6 134.2-71.8z" style="clip-path:url(#SVGID_00000007412462534933134820000005287557117453584557_);fill:url(#SVGID_00000140003725491096668590000013912226250182393766_)"/><linearGradient id="SVGID_00000076566193030608922820000018359958889579052706_" x1="67.312" x2="253.649" y1="386.627" y2="386.627" gradientTransform="matrix(.9957 0 0 -1 -29.902 529.9)" gradientUnits="userSpaceOnUse"><stop offset=".237" style="stop-color:#a6a8ab"/><stop offset="1" style="stop-color:#404040"/></linearGradient><path d="M223.5 173.4v39.3L37.1 113.1V73.8z" style="fill:url(#SVGID_00000076566193030608922820000018359958889579052706_)"/><linearGradient id="SVGID_00000075845952153535352390000018436971392597003402_" x1="-749.672" x2="-563.335" y1="386.627" y2="386.627" gradientTransform="matrix(-.9957 0 0 -1 -209.722 529.9)" gradientUnits="userSpaceOnUse"><stop offset=".237" style="stop-color:#a6a8ab"/><stop offset="1" style="stop-color:#404040"/></linearGradient><path d="M350.4 173.4v39.3l186.3-99.6V73.8z" style="fill:url(#SVGID_00000075845952153535352390000018436971392597003402_)"/><linearGradient id="SVGID_00000155848256125861092890000002885250276450038198_" x1="-580.464" x2="-394.127" y1="-993.532" y2="-993.532" gradientTransform="matrix(-.9957 0 0 1 -41.242 1394.3)" gradientUnits="userSpaceOnUse"><stop offset=".237" style="stop-color:#a6a8ab"/><stop offset="1" style="stop-color:#404040"/></linearGradient><path d="M350.4 370.9v-39.8l186.3 99.6v39.7z" style="fill:url(#SVGID_00000155848256125861092890000002885250276450038198_)"/><linearGradient id="SVGID_00000081623276548387145410000003048116308743511709_" x1="-101.486" x2="84.552" y1="-993.532" y2="-993.532" gradientTransform="matrix(.9957 0 0 1 138.598 1394.3)" gradientUnits="userSpaceOnUse"><stop offset=".237" style="stop-color:#a6a8ab"/><stop offset="1" style="stop-color:#404040"/></linearGradient><path d="M223.5 370.9v-39.8L37.1 430.7v39.7z" style="fill:url(#SVGID_00000081623276548387145410000003048116308743511709_)"/><path d="m350.4 291.8 109.4 58.5v-39.7l-35.5-18.8h112.4V252H424.3l35.5-18.8v-39.3L350.4 252zM114 350.3l109.5-58.5V252L114 193.9v39.3l35.9 18.8H37.1v39.8h112.4L114 310.6z" class="st19"/></g></svg>