<svg xmlns="http://www.w3.org/2000/svg" xml:space="preserve" width="283.5" height="283.5"><path fill="#FF7900" d="M0 0h283.5v283.5H0z"/><path fill="#FFF" d="M111.2 256c-4 2.6-8.4 3.9-13 3.9-7.4 0-11.7-4.9-11.7-11.5 0-8.8 8.1-13.5 24.8-15.4v-2.2c0-2.9-2.2-4.5-6.2-4.5s-7.3 1.6-9.6 4.5l-7-4c3.7-5.1 9.3-7.7 16.8-7.7 10.3 0 16.1 4.5 16.1 11.7v28.6h-9.2l-1-3.4zm-14.6-8.3c0 2.6 1.7 5.1 4.7 5.1 3.3 0 6.4-1.4 9.6-4.2v-9.3c-9.7 1.3-14.3 3.7-14.3 8.4zm32.9-26.6 8.6-1.2.9 4.7c4.9-3.5 8.7-5.4 13.6-5.4 8.1 0 12.3 4.3 12.3 12.8v27.5h-10.4v-25.7c0-4.8-1.3-7-5-7-3.1 0-6.2 1.4-9.7 4.4v28.3h-10.3v-38.4zm104.2 39.1c-11.6 0-18.6-7.5-18.6-20.5 0-13.1 7-20.6 18.4-20.6 11.4 0 18.2 7.2 18.2 20.1 0 .7-.1 1.4-.1 2h-26.3c.1 7.5 3.2 11.2 9.3 11.2 3.9 0 6.5-1.6 8.9-5.1l7.6 4.2c-3.3 5.7-9.3 8.7-17.4 8.7zm7.8-25.7c0-5.3-3-8.4-7.9-8.4-4.7 0-7.6 3-8 8.4h15.9zM34.9 260.6c-10.3 0-19.5-6.5-19.5-20.8S24.7 219 34.9 219c10.3 0 19.5 6.5 19.5 20.8s-9.2 20.8-19.5 20.8zm0-32.9c-7.7 0-9.2 7-9.2 12 0 5.1 1.4 12 9.2 12 7.8 0 9.2-7 9.2-12s-1.5-12-9.2-12zm26.6-7.7h9.9v4.6c1.9-2.5 6.5-5.5 10.9-5.5.4 0 .9 0 1.3.1v9.7h-.5c-4.5 0-9.5.7-11 4.2v26.2H61.5V220zm128.8 31c7.9-.1 8.5-8.1 8.5-13.3 0-6.2-3-11.2-8.6-11.2-3.7 0-7.9 2.7-7.9 11.6.1 4.9.4 12.9 8 12.9zm18.6-31.1v37.4c0 6.6-.5 17.4-19.3 17.6-7.8 0-14.9-3.1-16.4-9.8l10.2-1.6c.4 1.9 1.6 3.9 7.4 3.9 5.4 0 8-2.6 8-8.7v-4.6l-.1-.1c-1.6 2.9-4.2 5.7-10.2 5.7-9.2 0-16.4-6.4-16.4-19.7 0-13.2 7.5-20.6 15.9-20.6 7.9 0 10.8 3.6 11.5 5.5h-.1l.9-4.7h8.6zm46.8-13.1h-4.1v11.3h-2.2v-11.3h-4.1v-1.7h10.3v1.7zm17 11.3h-2.2v-10.9h-.1l-4.3 10.9h-1.4l-4.3-10.9h-.1v10.9h-2.2v-13h3.3l3.9 9.9 3.8-9.9h3.3v13z"/></svg>