<svg xmlns="http://www.w3.org/2000/svg" width="773.333" height="773.333" version="1.0" viewBox="0 0 580 580"><path d="M269 2.6c-30.9 2.7-64.7 10.8-89.4 21.4-50.6 21.7-86 48.9-120.2 92.5-23.3 29.7-43.5 73.7-51.8 113-4.9 23.2-6 34.3-6 60.5-.1 26.2 1 37.6 6.1 61.5 8.8 42.1 28.9 84.4 56.2 118.5 14.7 18.3 27.8 31.4 46.1 46.1 34.2 27.5 77 47.7 119 56.3 25.9 5.3 33.8 6.1 61.5 6 27.8-.1 39.4-1.3 64.3-6.8 29.9-6.7 62.4-20.2 90.1-37.4 19.4-12 44.8-33.4 59.3-50 20.6-23.5 30.7-38.2 42.7-62.1 16.3-32.3 24.5-58.5 29.8-94.6 2.5-17.1 2.5-56.3 0-73.5-6.4-44.1-19.6-80.7-42.3-117.7-8.5-13.7-27-36.9-39.9-49.8-12.9-12.9-36.1-31.4-49.8-39.9-47.3-29-95.8-43.3-149.7-44.1-11.8-.1-23.5-.1-26 .1zm44.5 72.3c36.5 7.6 67.3 35.4 79.4 71.6 21.4 64.1-16.1 132.4-79.9 145.7-12.3 2.6-32.5 2.1-44.2-1-41.2-11-72.4-45.8-79.3-88.6-8.7-53.3 20-104.9 68.5-123.3 16.4-6.3 38.1-8 55.5-4.4zM155 229.8c0 27.6-.3 36-1.5 40.5-4.3 16.6-15.7 29.1-31.3 34.3l-6.7 2.3v33.6l13.9.3 13.9.3 5.6-3.7c12.4-8.3 32.4-18.7 46.7-24.5 17.3-6.9 41.5-14.4 44.4-13.6.9.2 13.4 9.7 27.7 21.1l26.1 20.7-5.9 22.7c-3.3 12.5-8.8 33.8-12.3 47.4l-6.4 24.7 12.2 19.8c6.7 10.9 12.6 19.8 13.1 19.7.5-.1 6.8-9.2 13.9-20.3l12.8-20.2-12.7-45.7c-6.9-25.2-12.7-46.5-12.8-47.4-.2-1.8 51.5-42.8 54-42.8 2.7 0 21.8 5.8 34.9 10.6 44.7 16.5 81.2 42.3 101.7 72.1 13.3 19.3 22.4 49.8 18.8 63-3 10.9-17.2 21.5-45.1 33.6-33.1 14.3-67.9 22.5-116 27.3-20.8 2.1-73.2 2.4-94.5.5-48.6-4.1-87.6-13.1-121.1-27.7-9.9-4.4-12.6-6.4-8.5-6.4 4.4 0 16.7-7.5 23.7-14.4 21.2-21.2 21.9-52.8 1.6-74.7-6.8-7.4-13.4-11.5-23.8-15.1l-8.5-2.8H46v-24h51l-.2-17.1-.3-17.1-5.5-1.7c-3-1-7.5-2.8-10-4.1-6.4-3.3-15.3-12.6-19-19.9-5.4-10.7-6-15.9-6-52.9V195h99v34.8zM119.7 382c27.9 9.7 35.9 45.7 14.6 66.1-16.2 15.7-41.2 15.3-56.4-.8-15-15.8-15.1-39.5-.3-55.3 10.7-11.4 26.8-15.3 42.1-10z"/><path d="m74.2 237.2.3 23.3 31.3.3 31.2.2-.2-23.2-.3-23.3-31.3-.3L74 214l.2 23.2zm286.5 165.5c-.4.3-.7 4.4-.7 9v8.3h63.1l-.3-8.8-.3-8.7-30.6-.3c-16.8-.1-30.8.1-31.2.5z"/></svg>