<svg xmlns="http://www.w3.org/2000/svg" viewBox="0 0 90 90"><path d="M0 73.108l2.176.242a19.2 19.2 0 0 0 4.592.242 7.18 7.18 0 0 0 4.592-1.939 15.313 15.313 0 0 0 2.538-3.024 12.6 12.6 0 0 0 1.33-4.109l.725-5.559.846-5.801.484-4.109a36.16 36.16 0 0 1 1.21-5.197l3.024-8.822a27.16 27.16 0 0 1 20.907-17.643 37.965 37.965 0 0 1 5.197-.605 24.3 24.3 0 0 1 5.922.121 15.59 15.59 0 0 1 9.547 3.867 28.98 28.98 0 0 0 3.137 2.188 8.12 8.12 0 0 0 4.713.967l1.934-.363a4.45 4.45 0 0 0 2.779-2.538l1.692-2.905v-2.296l.484-2.538.725-.967a1.66 1.66 0 0 1 1.45-.484l.605.846c.605-.363 1.088-.242 1.33.605a5.04 5.04 0 0 1-.488 4.35l-.242.363 1.692.605a5.413 5.413 0 0 1 2.658 2.779l1.21 2.538.242.363 2.537 2.538a1.68 1.68 0 0 1 0 2.297l-.967.363h-.363v.725l-.846.121-1.688-.968a2.893 2.893 0 0 0-1.692-.605 7.57 7.57 0 0 1-3.263-.725l-1.33 2.538a15.584 15.584 0 0 1-6.647 6.164l-.725.242a3.717 3.717 0 0 0-1.815 1.21l-3.024 3.142-2.055 2.42-.722 1.567a1.16 1.16 0 0 1-1.088.846h-.727l-1.934.363a2.941 2.941 0 0 1-1.45 0l-1.692-.242a.94.94 0 0 1-.725-1.088l.605-.242h.363a1.103 1.103 0 0 1 1.33-.242c.484-.605.967-.363 1.571 0a1.154 1.154 0 0 1 1.451-.363 9.26 9.26 0 0 0 3.143-5.557v-.121l-.605.363a4.81 4.81 0 0 0-1.934 2.9 3.56 3.56 0 0 1-1.815 1.934l-.484.242H58l-.967.121a1.585 1.585 0 0 1-1.934-.967v-.967h1.21c.484-1.088 1.21-.846 2.055-.483.605-.725.725-.725 1.934-.484l1.692-2.539a36.11 36.11 0 0 1-9.547-.967l-1.692 3.629a20.113 20.113 0 0 1-5.194 6.28c-2.538 2.055-5.317 3.629-7.855 5.317a33.634 33.634 0 0 0-7.01 6.043 9.816 9.816 0 0 0-2.538 5.559l-.605 5.801-.24 3.504a3.156 3.156 0 0 1-1.329 2.539l-2.538 1.45-.725.242-.846-.605a1.41 1.41 0 0 1 .363-2.055 1.31 1.31 0 0 0 .605-1.45 4.553 4.553 0 0 1 .846-2.537 3.62 3.62 0 0 0 .725-2.176l.121-5.197-.247-3.262a18.185 18.185 0 0 1 0-3.629 3.816 3.816 0 0 1 1.575-2.657l3.504-2.658a17.44 17.44 0 0 0 2.658-2.538 9.48 9.48 0 0 0 1.934-4.35 28.2 28.2 0 0 0 .846-6.405v-.363a5.165 5.165 0 0 1-1.21-6.284 4.831 4.831 0 0 0-2.176 1.21 21.335 21.335 0 0 0-4.834 6.043 46.29 46.29 0 0 0-3.629 7.855l-1.21 5.317a126.44 126.44 0 0 1-3.497 14.501 14.56 14.56 0 0 1-2.42 4.955 12.12 12.12 0 0 1-7.131 4.234 9.973 9.973 0 0 1-5.922-.967A8.19 8.19 0 0 1 0 73.468v-.36z" fill="#fd8c3a"/></svg>