<svg xmlns="http://www.w3.org/2000/svg" fill="none" viewBox="0 0 1500 1500"><g transform="scale(15.625)"><circle cx="49.343" cy="48.776" r="27.224" fill="#131928" stroke="#131928" stroke-width="20"/><g fill-rule="evenodd" clip-rule="evenodd"><path fill="url(#a)" d="M48 96c26.51 0 48-21.49 48-48S74.51 0 48 0 0 21.49 0 48s21.49 48 48 48zm32-44c0 15.464-12.536 28-28 28S24 67.464 24 52c0-2.87.432-5.638 1.234-8.245C27.429 48.617 32.319 52 38 52c7.732 0 14-6.268 14-14 0-5.68-3.384-10.571-8.245-12.766A27.994 27.994 0 0 1 52 24c15.464 0 28 12.536 28 28z"/><path fill="#131928" d="M80 52c0 15.464-12.536 28-28 28-15.136 0-27.467-12.01-27.983-27.021-.011.339-.017.68-.017 1.02 0 16.569 13.432 30 30 30s30-13.431 30-30-13.432-30-30-30c-.34 0-.68.007-1.017.018C67.993 24.535 80 36.865 80 52z" opacity=".2"/><path fill="url(#b)" d="M48 12c-19.882 0-36 16.118-36 36a4 4 0 0 1-8 0C4 23.7 23.7 4 48 4a4 4 0 0 1 0 8z"/></g></g><defs><linearGradient id="a" x1="48" x2="117.5" y2="69.5" gradientUnits="userSpaceOnUse"><stop offset="0" stop-color="#C395FC"/><stop offset="1" stop-color="#4F65F5"/></linearGradient><linearGradient id="b" x1="28" x2="28" y1="8" y2="48" gradientUnits="userSpaceOnUse"><stop offset="0" stop-color="#fff" stop-opacity=".4"/><stop offset="1" stop-color="#fff" stop-opacity="0"/></linearGradient></defs></svg>