<svg xmlns="http://www.w3.org/2000/svg" xmlns:xlink="http://www.w3.org/1999/xlink" data-name="Layer 1" viewBox="0 0 500 500"><defs><linearGradient id="c" x1="-.23" x2="500" y1="249.66" y2="249.66" gradientUnits="userSpaceOnUse"><stop offset="0" stop-color="#004d7c"/><stop offset="1" stop-color="#102f4e"/></linearGradient><linearGradient id="a" x1="146.61" x2="-101.81" y1="122.96" y2="-149.32" gradientUnits="userSpaceOnUse"><stop offset="0" stop-color="#0f87c9"/><stop offset="1" stop-color="#00b2ec"/></linearGradient><linearGradient xlink:href="#a" id="d" x1="654.26" x2="405.84" y1="-7632.54" y2="-7904.81" gradientTransform="rotate(180 543.165 -3577.34)"/><linearGradient xlink:href="#a" id="e" x1="-623.86" x2="-872.22" y1="-7446.41" y2="-7718.62" gradientTransform="rotate(-161.8 543.162 -3557.14)"/><clipPath id="b"><path d="M-.23-.13H500v499.58H-.23z" style="fill:none"/></clipPath></defs><g style="clip-path:url(#b)"><path d="M-.23-.13H500v499.58H-.23z" style="fill:url(#c)"/><path d="M503.5 0c-1.09 0-2.16-.08-3.25-.08C223.92-.13-.09 223.52-.23 499.45H503.5Z" style="fill:#25292e"/><path d="M174 250.72c-46.23 0-83.71 36.26-83.71 81s37.48 80.86 83.71 80.86 83.63-36.17 83.63-80.86-37.43-81-83.63-81Zm0 12.81c29.22 0 52.88 30.57 52.88 68.15s-23.67 68.06-52.88 68.06-53-30.45-53-68.06 23.75-68.15 53-68.15Z" style="fill:#d1d1d1"/><path d="m222.19 179.44 17.52 11.78L285.82 303l39.33 106H347l44.69-114.24c14.3-37.13 36.82-90.32 45.76-108.18l7.86-7.14h-22.93l.36 1.79L387.35 278l-39.68 95.33-4.65-.72-34-85.33-39.68-102.1a32.39 32.39 0 0 1-.36-5.71h-46.79" style="fill:#fff"/><path d="M488.42-64.63-7.18-16.25l-9.27 522.72 16.22-7C-.1 225.44 214-64.63 488.42-64.63" style="fill:url(#a)"/><path d="m90.26 665.44 495.6-48.38 9.27-522.71-16.22 7c-.13 274-214.24 564.08-488.65 564.08" style="fill:url(#d)"/><path d="m-10.5 550.77 484.55 114.67L652.48 174l-17.62 1.38C545.79 434.52 249.09 639.6-10.5 550.77" style="opacity:.8;fill:url(#e)"/></g></svg>