<svg xmlns="http://www.w3.org/2000/svg" xmlns:xlink="http://www.w3.org/1999/xlink" viewBox="0 0 65 36" fill="#fff" fill-rule="evenodd" stroke="#000" stroke-linecap="round" stroke-linejoin="round"><use xlink:href="#A" x=".5" y=".5"/><symbol id="A" overflow="visible"><path d="M44.004 23.277l.032-.624.008-.3a11.99 11.99 0 0 0-1.028-4.865l-.2-.45-.222-.433a12.15 12.15 0 0 0-4.589-4.701l-.433-.24-.443-.222a11.98 11.98 0 0 0-4.857-1.145l-.28-.007h-.345l-.62.033c-1.9.15-3.68.742-5.232 1.676l-.427.27-.42.3c-.804.58-1.534 1.256-2.174 2.013l-.312.387-.293.394c-1.4 1.974-2.24 4.386-2.24 7 .001.676.058 1.351.172 2.017l.1.562.148.602a11.95 11.95 0 0 0 1.334 3.09l.273.426.293.415.718.9.425.455.4.397a11.96 11.96 0 0 0 8.18 3.2 12 12 0 0 0 7.94-2.994l.36-.33.355-.35a12.02 12.02 0 0 0 3.302-6.836l.064-.617m-23.04 6.03l-.27-.444a13 13 0 0 1-1.45-3.72c-.316-.066-.637-.099-.96-.099l-.103.005a4.63 4.63 0 0 0-.488.036c-.163.021-.324.05-.484.087a4.73 4.73 0 0 0-3.158 2.519c-.073.149-.138.301-.195.456a4.76 4.76 0 0 0-.146.476 4.7 4.7 0 0 0-.145 1.14c0 .907.262 1.752.707 2.472a4.68 4.68 0 0 0 .282.408l.315.368a4.7 4.7 0 0 0 3.414 1.471 4.73 4.73 0 0 0 4.394-3c-.524-.533-1-1.1-1.428-1.728l-.287-.434m36.6-4.463l-.034-.5-.06-.5a9.37 9.37 0 0 0-8.911-7.957l-.34-.01-.15.004-.489.021c-1.334.1-2.6.46-3.715 1.054A12.94 12.94 0 0 1 45 21.845l.013.516-.004.15-.024.656c-.2 3.244-1.588 6.17-3.737 8.348 1.713 1.907 4.197 3.1 6.957 3.1a9.31 9.31 0 0 0 6.213-2.37l.367-.344a9.18 9.18 0 0 0 .351-.366c1.505-1.66 2.424-3.863 2.424-6.276l-.01-.38m1.722-.33c-.253.002-.506.024-.756.066l.022.644a10.29 10.29 0 0 1-2.83 7.092c.866 1 2.14 1.635 3.564 1.635 2.602 0 4.72-2.117 4.72-4.72s-2.117-4.72-4.72-4.72M20.47 9.97l.1.515a8.6 8.6 0 0 0 .338 1.141l.2.483a8.31 8.31 0 0 0 .222.46 8.63 8.63 0 0 0 .794 1.254c.601-.696 1.274-1.327 2.007-1.882l.422-.304a13.09 13.09 0 0 1 .432-.287c1.98-1.264 4.318-2.008 6.828-2.04l.17-.004.487.012a13.19 13.19 0 0 1 .665.042 12.93 12.93 0 0 1 4.255 1.125c.137-.614.207-1.242.207-1.871-.001-.47-.039-.939-.116-1.403a8.9 8.9 0 0 0-.094-.48l-.12-.474A8.63 8.63 0 0 0 28.98 0c-3.246 0-6.077 1.804-7.546 4.462a8.8 8.8 0 0 0-.233.452l-.212.486a8.57 8.57 0 0 0-.625 3.216l.042.853a9.03 9.03 0 0 0 .066.505m22.956 6.13a10.25 10.25 0 0 1 4.12-1.156 8.63 8.63 0 0 0-8.582-7.865 8.66 8.66 0 0 0-.512.016c.08.495.12 1 .12 1.517a9.57 9.57 0 0 1-.286 2.323c2.162 1.2 3.95 2.995 5.14 5.165m-30.2 11.033c.774-1.48 2.178-2.58 3.855-2.94l.483-.08s.324-.034.5-.04l.225-.006c.264 0 .524.02.78.054a13.06 13.06 0 0 1-.124-1.776 12.97 12.97 0 0 1 2.553-7.74c-.364-.453-.687-.939-.965-1.45l-.222-.44a9.19 9.19 0 0 1-.2-.452c-.25-.606-.44-1.244-.56-1.904l-.657-.026a9.3 9.3 0 0 0-4.473 1.141 9.55 9.55 0 0 0-.433.253l-.412.27a9.4 9.4 0 0 0-3.392 4.284 9.38 9.38 0 0 0-.169.466 9.14 9.14 0 0 0-.144.475c-.22.803-.332 1.633-.332 2.466 0 3.036 1.454 5.737 3.702 7.447m-.386.93C10.25 26.2 8.555 23.136 8.555 19.69a10.21 10.21 0 0 1 .32-2.55l-.26-.007A8.63 8.63 0 0 0 0 25.744a8.63 8.63 0 0 0 8.617 8.617 8.57 8.57 0 0 0 4.88-1.52 5.66 5.66 0 0 1-.907-3.078c-.001-.577.087-1.15.26-1.7m.988-17.386a4.45 4.45 0 0 1-.588-2.21 4.49 4.49 0 0 1 4.482-4.482 4.46 4.46 0 0 1 2.474.748 9.54 9.54 0 0 0-.822 3.88l.032.755-.528-.013a10.26 10.26 0 0 0-5.05 1.324" stroke="none" fill="#1d2d44"/></symbol></svg>