<?xml version="1.0" encoding="utf-8"?>
<!-- Generator: Adobe Illustrator 27.7.0, SVG Export Plug-In . SVG Version: 6.00 Build 0)  -->
<svg version="1.1" id="Layer_1" xmlns="http://www.w3.org/2000/svg" xmlns:xlink="http://www.w3.org/1999/xlink" x="0px" y="0px"
	 viewBox="0 0 512 512" style="enable-background:new 0 0 512 512;" xml:space="preserve">
<style type="text/css">
	.st0{fill:#107A66;}
	.st1{fill:#479386;}
	.st2{fill:#00D1B2;}
	.st3{fill:#FFFFFF;}
</style>
<g>
	<path class="st0" d="M423.1,178.8h37.7c23,61.6,17.3,130.2-15.8,187.2c-6.3,10.9-13.7,21.4-21.9,30.9L423.1,178.8L423.1,178.8z"/>
	<path class="st1" d="M485,141.5h-99.2v335C501.8,408.2,545.1,262,485,141.5L485,141.5z"/>
	<path class="st2" d="M256,474.7c-120.5,0-218.7-98.2-218.7-218.7S135.5,37.3,256,37.3c33.4-0.1,66.4,7.6,96.3,22.2H171.4v119.3h124
		v292.3C282.3,473.5,269.2,474.7,256,474.7z"/>
	<path class="st1" d="M134.1,121.5v94.6h124v221.2H256c-100.2,0-181.4-81.3-181.3-181.6c0-48.1,19.1-94.2,53.1-128.1
		C129.7,125.5,131.9,123.5,134.1,121.5 M256,0C114.6,0,0,114.6,0,256s114.6,256,256,256c26,0,51.8-4,76.7-11.7V141.5h-124V96.8
		h247.8C408,35.5,334-0.1,256,0z"/>
	<path class="st2" d="M471.9,165.9c24.5,58.2,24.5,123.8,0,181.9c-16,37.4-41.3,70.1-73.6,94.8v4.7c60.3-44.7,95.7-115.4,95.7-190.5
		c0.1-35.3-7.8-70.1-23-101.9h-4.1C468.6,158.6,470.4,162.2,471.9,165.9z"/>
	<path class="st2" d="M477.2,256.9c0.1-35.4-8.5-70.5-24.9-101.9h-4.2c3,5.7,5.8,11.6,8.3,17.5c22.7,53.9,22.7,114.8,0,168.8
		c-10.9,25.7-26.7,49.2-46.5,69c-3.7,3.7-7.7,7.3-11.7,10.8v4.8C448.4,384,477.2,322.1,477.2,256.9z"/>
	<path class="st2" d="M460.4,256.9c0-35.8-9.3-71-27.2-101.9h-4.3c4.6,7.7,8.6,15.8,12.2,24c31.8,74.9,14.8,161.7-42.7,219.2v5.2
		C438.1,365,460.4,312.2,460.4,256.9z"/>
	<path class="st2" d="M413.5,155h-4.3c6.5,9.7,11.9,19.9,16.4,30.6c26.5,62.8,16,135.1-27.2,187.6v5.8
		C452.6,316,458.7,224.7,413.5,155z"/>
	<path class="st2" d="M398.3,162.4v6.8c33.2,53.7,33.2,121.5,0,175.2v6.8C436.3,294.2,436.3,219.6,398.3,162.4z"/>
	<g>
		<path class="st3" d="M456.4,96.8H208.7v44.7h124v358.8c18.8-5.8,36.7-13.9,53.2-23.7v-335H485C477.1,125.6,467.5,110.6,456.4,96.8
			z"/>
	</g>
</g>
</svg>
