<?xml version="1.0" encoding="UTF-8"?>
<svg version="1.1" xmlns="http://www.w3.org/2000/svg" width="512" height="512">
<path d="M0 0 C168.96 0 337.92 0 512 0 C512 168.96 512 337.92 512 512 C343.04 512 174.08 512 0 512 C0 343.04 0 174.08 0 0 Z " fill="#0055A9" transform="translate(0,0)"/>
<path d="M0 0 C1.67659862 -0.0033756 3.35319483 -0.00823439 5.02978516 -0.01449585 C8.54011381 -0.02184846 12.04980446 -0.01122532 15.56005859 0.01220703 C20.01364278 0.04051778 24.46570824 0.02439474 28.91923523 -0.00565529 C32.38392078 -0.02392434 35.84826044 -0.01787887 39.31295776 -0.00501633 C40.95205879 -0.00172682 42.59119331 -0.00560861 44.23025513 -0.01741409 C59.80337031 -0.10489417 75.21706943 2.3130083 86.890625 13.54296875 C94.734952 21.9640845 98.3881537 31.43804391 98.12109375 42.96875 C97.44410395 52.90753646 93.24116703 62.30294774 85.91796875 69.125 C82.51311889 71.77097799 78.79777427 73.76456246 74.9375 75.6640625 C76.43990234 76.42589844 76.43990234 76.42589844 77.97265625 77.203125 C90.3112336 83.54832481 98.6126453 89.11671277 104.0859375 102.46484375 C105.10481387 106.29264074 105.28047418 109.91906841 105.25 113.8515625 C105.24262817 114.97594727 105.24262817 114.97594727 105.23510742 116.12304688 C104.96971 128.78590647 100.52377817 139.47534419 91.94921875 148.8125 C77.88583278 161.7562766 58.5228547 161.98321995 40.5078125 162 C38.86164236 162.00644455 37.2154733 162.01317407 35.56930542 162.02017212 C32.14546041 162.03205222 28.72171568 162.03586184 25.29785156 162.03466797 C20.92337623 162.03446354 16.54954148 162.06193386 12.17521858 162.09621239 C8.78647932 162.11848418 5.39789538 162.12250568 2.00909042 162.12144852 C0.39602291 162.12379755 -1.21704934 162.13258158 -2.83004379 162.14811325 C-5.08360576 162.16781144 -7.33576878 162.16192521 -9.58935547 162.14990234 C-10.86696747 162.15275238 -12.14457947 162.15560242 -13.46090698 162.15853882 C-19.12960667 161.38026161 -22.83161276 159.21886743 -26.4375 154.6640625 C-28.77372868 150.35102494 -29.18826385 147.0292048 -29.20967102 142.14971924 C-29.21682632 141.02828522 -29.22398163 139.9068512 -29.23135376 138.75143433 C-29.23404266 137.52538483 -29.23673157 136.29933533 -29.23950195 135.03613281 C-29.24607315 133.74142059 -29.25264435 132.44670837 -29.25941467 131.11276245 C-29.28041239 126.82258331 -29.290813 122.532404 -29.30078125 118.2421875 C-29.3048304 116.76268241 -29.30894737 115.2831775 -29.31313133 113.80367279 C-29.33217354 106.85182707 -29.34640663 99.8999919 -29.3547433 92.94812512 C-29.36451261 84.93488876 -29.39082797 76.92192885 -29.43124419 68.90878987 C-29.46144473 62.70735929 -29.47621589 56.50600778 -29.47952431 50.30450511 C-29.48187029 46.60417698 -29.49077135 42.90414453 -29.51598549 39.20389557 C-29.54368523 35.07227794 -29.5394231 30.94127501 -29.5324707 26.80957031 C-29.54528076 25.59161774 -29.55809082 24.37366516 -29.57128906 23.11880493 C-29.52567489 15.67797318 -28.87891993 9.53316811 -23.46788502 4.04743385 C-17.14635822 -1.29099558 -7.77819527 -0.05538487 0 0 Z " fill="#F4FD02" transform="translate(394.0625,171.3359375)"/>
<path d="M0 0 C1.30888687 -0.00637985 2.61777374 -0.0127597 3.96632385 -0.01933289 C5.39934248 -0.02086249 6.8323616 -0.02197595 8.26538086 -0.02270508 C9.73929374 -0.02592028 11.21320631 -0.02928455 12.68711853 -0.03279114 C15.78149148 -0.03878259 18.87583651 -0.04063125 21.97021484 -0.04003906 C25.91178549 -0.03993795 29.85317392 -0.05353703 33.79470158 -0.07081127 C36.84300028 -0.08200461 39.89125614 -0.08395596 42.93957329 -0.08342934 C44.39105286 -0.08460048 45.84253385 -0.08897294 47.293993 -0.0967617 C55.2875895 -0.13560862 62.8956197 0.10251777 70.66772461 2.14526367 C71.44322159 2.346866 72.21871857 2.54846832 73.01771545 2.75617981 C84.58373962 5.95079233 92.90060366 13.06514358 98.90991211 23.25073242 C103.20389241 31.35287774 103.98768854 38.51660398 103.91772461 47.58276367 C103.92932617 49.08033203 103.92932617 49.08033203 103.94116211 50.6081543 C103.90781612 63.28796515 100.27002789 74.68208762 91.41772461 84.08276367 C86.95222002 88.23305618 82.27183013 90.82853377 76.66772461 93.14526367 C75.70092773 93.58805664 75.70092773 93.58805664 74.71459961 94.03979492 C61.95446564 99.48161676 47.40559315 98.39170944 33.85522461 98.27026367 C31.89103648 98.26021004 29.92684336 98.25108842 27.96264648 98.24291992 C23.19754682 98.22110393 18.43269233 98.18670649 13.66772461 98.14526367 C13.67660706 98.79148682 13.6854895 99.43770996 13.69464111 100.10351562 C13.78339286 106.85220461 13.84357439 113.60072676 13.88745117 120.34985352 C13.90751977 122.86587258 13.93478091 125.38184528 13.96948242 127.89770508 C14.01820773 131.52200795 14.04074183 135.14569208 14.05834961 138.77026367 C14.07899475 139.88828369 14.09963989 141.00630371 14.12091064 142.15820312 C14.12285276 148.97528551 13.33687595 153.35098542 9.66772461 159.14526367 C4.57707378 163.87229659 1.22723626 164.50756121 -5.57055664 164.41870117 C-9.50588143 164.02906505 -11.47960671 162.85877778 -14.33227539 160.14526367 C-19.29870136 153.62406944 -18.89980617 147.38890378 -18.84985352 139.41064453 C-18.85527991 138.0203427 -18.86240548 136.63004663 -18.87109375 135.23976135 C-18.88926718 131.47941782 -18.88228511 127.71951522 -18.86957741 123.95916438 C-18.85942055 120.01683701 -18.86885033 116.07454633 -18.87512207 112.13221741 C-18.88238984 105.51402028 -18.87283286 98.89600198 -18.85375977 92.27783203 C-18.83198357 84.63358268 -18.8390511 76.98975997 -18.86106539 69.34552091 C-18.87923358 62.77290418 -18.88177108 56.20041566 -18.87131071 49.62778193 C-18.86508469 45.70628623 -18.86421562 41.78499093 -18.87745667 37.86350822 C-18.8890357 34.17708988 -18.88095275 30.49122031 -18.85787964 26.80486107 C-18.85009289 24.81175866 -18.86193029 22.81860968 -18.87438965 20.82553101 C-18.77138646 9.93151853 -18.77138646 9.93151853 -14.33227539 5.14526367 C-9.56338188 0.84162807 -6.33524487 0.02093651 0 0 Z " fill="#F5FE01" transform="translate(39.332275390625,171.854736328125)"/>
<path d="M0 0 C4.47134955 1.04525054 7.08214468 3.46688772 9.5457859 7.36600113 C10.64366441 10.16854562 10.66404584 12.44597899 10.67367554 15.45648193 C10.68220551 16.6620575 10.69073547 17.86763306 10.69952393 19.10974121 C10.69861755 20.4292981 10.69771118 21.74885498 10.69677734 23.10839844 C10.70276301 24.5147131 10.70956865 25.92102448 10.71713257 27.32733154 C10.73479918 31.14570945 10.73948831 34.96399771 10.74076414 38.78241253 C10.7421863 41.16985441 10.74645718 43.55727355 10.75175858 45.94470978 C10.77026332 54.27923528 10.77842892 62.61369682 10.77685547 70.94824219 C10.77565499 78.7076714 10.79673773 86.46682204 10.8283428 94.22618079 C10.85453318 100.89470974 10.86522156 107.56314788 10.86394465 114.23172784 C10.86343568 118.21148739 10.8690819 122.19099954 10.89030075 126.1707077 C10.9097291 129.91696144 10.90977669 133.66273303 10.89526749 137.40900421 C10.89219417 139.43040819 10.90882495 141.45181244 10.92614746 143.47314453 C10.87669076 150.64703849 10.35376122 155.49926459 6.40625 161.5625 C2.89552502 164.9060476 0.13588091 165.83525047 -4.59375 166.0625 C-9.28280622 165.85801484 -12.04341389 164.76646186 -15.59375 161.5625 C-18.72692745 157.24087593 -19.70699062 153.44002723 -19.75196838 148.17120361 C-19.7617572 147.29904709 -19.77154602 146.42689056 -19.78163147 145.52830505 C-19.79026466 144.10518761 -19.79026466 144.10518761 -19.79907227 142.65332031 C-19.80897186 141.64811844 -19.81887146 140.64291656 -19.82907104 139.60725403 C-19.86065572 136.2850683 -19.88543159 132.96286828 -19.91015625 129.640625 C-19.93072839 127.3370527 -19.95172493 125.03348415 -19.97312927 122.72991943 C-20.02832308 116.66696207 -20.07774429 110.6039708 -20.12597656 104.54095459 C-20.17621118 98.35409527 -20.23188703 92.1672852 -20.28710938 85.98046875 C-20.39465806 73.84118791 -20.4961104 61.7018643 -20.59375 49.5625 C-21.09909271 49.90375916 -21.60443542 50.24501831 -22.12509155 50.59661865 C-24.45368513 52.16651901 -26.7854051 53.73171536 -29.1171875 55.296875 C-29.91181396 55.8336084 -30.70644043 56.3703418 -31.52514648 56.92333984 C-49.11573811 68.7103859 -49.11573811 68.7103859 -57.09375 69.3125 C-62.23495169 68.21081392 -64.82995035 65.96768133 -67.96875 61.6875 C-68.93098181 58.41591185 -69.00375392 55.95967535 -68.59375 52.5625 C-65.09286652 47.49019723 -61.70969585 45.22065919 -56.15625 42.75 C-37.58043843 33.94091836 -23.50565536 22.26195188 -11.984375 5.17578125 C-8.60712103 0.49885371 -5.77651538 -0.41757943 0 0 Z " fill="#F3FC03" transform="translate(235.59375,170.4375)"/>
<path d="M0 0 C4.41070939 2.20535469 7.24755746 4.92230735 10 9 C10.8576666 11.73547408 11.12956906 14.21379186 11.14717102 17.07171631 C11.15432632 17.87341248 11.16148163 18.67510864 11.16885376 19.50109863 C11.17288712 20.80718079 11.17288712 20.80718079 11.17700195 22.13964844 C11.18357315 23.06372498 11.19014435 23.98780151 11.19691467 24.93988037 C11.21661645 27.99637944 11.22830326 31.05282945 11.23828125 34.109375 C11.24235678 35.15484749 11.2464323 36.20031998 11.25063133 37.27747345 C11.27147861 42.81095684 11.28578624 48.34441554 11.29516602 53.87792969 C11.30622848 59.58534926 11.34063064 65.29237876 11.38033772 70.99966049 C11.40651422 75.39553541 11.41485878 79.79131749 11.41844749 84.18726349 C11.42331062 86.2907398 11.43491675 88.39421203 11.45348549 90.497612 C11.47789885 93.44631157 11.47690775 96.39400321 11.4699707 99.34277344 C11.48278076 100.20539795 11.49559082 101.06802246 11.50878906 101.95678711 C11.4592855 107.75261647 10.27212269 112.16141491 7 117 C2.24543232 121.4149557 -1.0077449 122.48535809 -7.390625 122.40234375 C-10.96862718 121.85064581 -12.86168635 120.45157964 -15.52734375 118.09375 C-19.84350359 111.95724689 -20.44008094 105.73399332 -20.38818359 98.48217773 C-20.39344055 97.56566437 -20.39869751 96.649151 -20.40411377 95.7048645 C-20.41723818 92.69759711 -20.40860323 89.69086583 -20.3984375 86.68359375 C-20.40046023 84.58187255 -20.40337333 82.48015203 -20.40713501 80.37843323 C-20.41154798 75.9830962 -20.40515968 71.58794259 -20.39111328 67.19262695 C-20.37401159 61.56820567 -20.38387551 55.9442136 -20.40183067 50.31980801 C-20.4126872 45.98314701 -20.40921374 41.64658727 -20.4014473 37.30992317 C-20.39945101 35.23634858 -20.40188441 33.1627647 -20.40888596 31.08920097 C-20.4165323 28.1886965 -20.40485195 25.28888109 -20.38818359 22.38842773 C-20.39425629 21.53784286 -20.40032898 20.687258 -20.40658569 19.81089783 C-20.34158133 13.68346245 -19.24393811 9.04151824 -15.52734375 4.00390625 C-10.69502192 -0.37724057 -6.40629622 -1.23890357 0 0 Z " fill="#F0FA06" transform="translate(322,214)"/>
<path d="M0 0 C10.76625 -0.12375 10.76625 -0.12375 21.75 -0.25 C23.99006836 -0.28641602 26.23013672 -0.32283203 28.53808594 -0.36035156 C40.94184409 -0.47743486 53.00223731 -0.49809829 63 8 C68.18335415 14.86444198 68.73201956 20.59223247 68 29 C66.31006621 35.71901385 62.88879262 40.41292464 57 44 C45.52150876 49.31288196 33.53399316 48.45636079 21.1875 48.25 C10.6996875 48.12625 10.6996875 48.12625 0 48 C0 32.16 0 16.32 0 0 Z " fill="#0155A9" transform="translate(398,261)"/>
<path d="M0 0 C5.341875 -0.0825 10.68375 -0.165 16.1875 -0.25 C17.84418701 -0.28641602 19.50087402 -0.32283203 21.20776367 -0.36035156 C31.32182789 -0.48871244 42.07769421 0.01071036 50.5625 6.25 C56.76070971 13.24285198 57.66770742 19.05221382 57.37890625 28.43359375 C56.69299136 34.88967925 54.48022713 38.82703054 49.875 43.3125 C39.85429496 51.2089014 25.51107813 50.1412269 13.5 50.0625 C6.8175 50.0315625 6.8175 50.0315625 0 50 C0 33.5 0 17 0 0 Z " fill="#0356A8" transform="translate(53,196)"/>
<path d="M0 0 C9.1884375 -0.12375 9.1884375 -0.12375 18.5625 -0.25 C21.41177124 -0.30462402 21.41177124 -0.30462402 24.31860352 -0.36035156 C49.66821172 -0.64283463 49.66821172 -0.64283463 57.875 7 C61.93673014 12.73420725 61.62319448 19.1624155 61 26 C59.39417747 31.60661468 56.13878512 36.10704564 51 39 C44.34771637 41.63818125 38.15763948 42.42366636 31.0546875 42.29296875 C30.25877197 42.28994751 29.46285645 42.28692627 28.64282227 42.28381348 C25.72007954 42.26832782 22.79752425 42.22644708 19.875 42.1875 C13.31625 42.125625 6.7575 42.06375 0 42 C0 28.14 0 14.28 0 0 Z " fill="#0156A9" transform="translate(398,196)"/>
<path d="M0 0 C3.5012017 1.87670345 5.94181701 3.85015279 7.96875 7.23828125 C8.81988487 12.74382033 8.66140461 17.71976923 6.34375 22.80078125 C2.29281839 26.95831633 -1.2326586 28.40752029 -6.96875 28.73828125 C-11.47116575 28.60246177 -14.13497213 27.46518998 -17.65625 24.72265625 C-21.67443861 20.384839 -21.51061315 15.75874613 -21.4140625 10.08984375 C-21.03125 7.23828125 -21.03125 7.23828125 -18.84375 4.17578125 C-17.915625 3.53640625 -16.9875 2.89703125 -16.03125 2.23828125 C-15.28875 1.64015625 -14.54625 1.04203125 -13.78125 0.42578125 C-9.24713296 -1.53213293 -4.66575956 -1.74965984 0 0 Z " fill="#F3FC04" transform="translate(324.03125,171.76171875)"/>
</svg>
