<svg xmlns="http://www.w3.org/2000/svg" xmlns:svg="http://www.w3.org/2000/svg" xmlns:xlink="http://www.w3.org/1999/xlink" id="svg4812" x="0" y="0" version="1.1" viewBox="0 0 198.4 238.9" style="enable-background:new 0 0 198.4 238.9" xml:space="preserve"><g id="layer1" transform="translate(-9.9999792,-10.000082)"><g id="SvgjsG1020" transform="matrix(0.10341565,0,0,0.10341565,1.2287665,8.3453496)"><path id="path57" fill="#06552a" d="M1967.5,16C1672.7,702,255.4,787,709,1892.5c5.7,14.2-104.9,164.4-178.6,289.1c-17-62.4-36.9-130.4-34-136.1 c368.5-436.5-263.6-683.1-297.6-1040.3C40,1288.7-16.7,1784.8,462.3,2071.1c2.8,0,25.5,107.7,36.9,161.6 c-11.3,22.7-22.7,45.4-28.3,62.4c-11.3,28.3,73.7,25.5,73.7,31.2c8.5-2.8,209.8-357.2,215.4-360 C1899.5,1705.4,2100.8,679.3,1967.5,16z M1386.4,738.8C853.5,1215,762.8,1569.4,779.8,1742.3 C601.2,1319.9,1125.7,855,1386.4,738.8z M357.5,1419.1c102,93.5,272.1,379.8,127.6,547.1C519,1889.7,530.4,1716.8,357.5,1419.1z"/></g></g></svg>