<svg xmlns="http://www.w3.org/2000/svg" xmlns:xlink="http://www.w3.org/1999/xlink" width="501.684" height="485.324" viewBox="0 0 132.737 128.409"><defs><linearGradient xlink:href="#a" id="f" x1="95.532" x2="78.02" y1="47.258" y2="69.132" gradientTransform="translate(35.555 5.615)" gradientUnits="userSpaceOnUse"/><linearGradient id="a"><stop offset="0" style="stop-color:#008b00;stop-opacity:1"/><stop offset="1" style="stop-color:#00cd00;stop-opacity:1"/></linearGradient><linearGradient xlink:href="#b" id="g" x1="99.569" x2="132.077" y1="45.882" y2="47.327" gradientTransform="translate(35.555 5.615)" gradientUnits="userSpaceOnUse"/><linearGradient id="b"><stop offset="0" style="stop-color:#007f00;stop-opacity:1"/><stop offset="1" style="stop-color:#00ce00;stop-opacity:1"/></linearGradient><linearGradient xlink:href="#c" id="i" x1="97.572" x2="127.172" y1="39.673" y2="14.656" gradientTransform="translate(35.555 5.615)" gradientUnits="userSpaceOnUse"/><linearGradient id="c"><stop offset="0" style="stop-color:#00a800;stop-opacity:1"/><stop offset="1" style="stop-color:#00e700;stop-opacity:1"/></linearGradient><linearGradient xlink:href="#a" id="h" x1="119.326" x2="111.513" y1="30.613" y2="52.602" gradientTransform="translate(35.555 5.615)" gradientUnits="userSpaceOnUse"/><filter id="e" style="color-interpolation-filters:sRGB"><feFlood flood-color="#000" flood-opacity=".498" result="flood"/><feComposite in="flood" in2="SourceGraphic" operator="in" result="composite1"/><feGaussianBlur in="composite1" result="blur" stdDeviation=".7"/><feOffset dx=".2" dy=".2" result="offset"/><feComposite in="SourceGraphic" in2="offset" result="fbSourceGraphic"/><feColorMatrix in="fbSourceGraphic" result="fbSourceGraphicAlpha" values="0 0 0 -1 0 0 0 0 -1 0 0 0 0 -1 0 0 0 0 1 0"/><feFlood flood-color="#000" flood-opacity=".498" result="flood"/><feComposite in="flood" in2="fbSourceGraphic" operator="in" result="composite1"/><feGaussianBlur in="composite1" result="blur" stdDeviation="1"/><feOffset dx=".1" dy=".5" result="offset"/><feComposite in="fbSourceGraphic" in2="offset" result="composite2"/></filter><filter id="d" style="color-interpolation-filters:sRGB"><feFlood flood-color="#000" flood-opacity=".498" result="flood"/><feComposite in="flood" in2="SourceGraphic" operator="in" result="composite1"/><feGaussianBlur in="composite1" result="blur" stdDeviation=".7"/><feOffset dy=".2" result="offset"/><feComposite in="SourceGraphic" in2="offset" result="composite2"/></filter></defs><g transform="translate(-35.555 -5.615)"><ellipse cx="96.899" cy="66.179" rx="59.194" ry="58.312" style="fill:#1a1a1a;fill-opacity:1;stroke-width:5.29167"/><path d="M72.171 32.883v67.813L56.402 87.92V32.883Zm46.322 0v67.813l15.77-12.776V32.883Z" style="fill:#ccc;fill-opacity:1;stroke:none;stroke-width:.264583px;stroke-linecap:butt;stroke-linejoin:miter;stroke-opacity:1"/><path d="M50.107 18.844h21.167l43.656 59.532H93.763Z" style="fill:#f2f2f2;fill-opacity:1;stroke:none;stroke-width:.355648px;stroke-linecap:butt;stroke-linejoin:miter;stroke-opacity:1;filter:url(#d)" transform="matrix(.745 0 0 .7429 19.073 18.884)"/><path d="M133.451 18.844 93.763 78.376v42.333h21.167V78.376l39.688-59.532z" style="fill:#f9f9f9;stroke:none;stroke-width:.355648px;stroke-linecap:butt;stroke-linejoin:miter;stroke-opacity:1;filter:url(#e)" transform="matrix(.745 0 0 .7429 19.073 18.884)"/><path d="M118.853 62.966h9.968v5.016h-9.968z" style="fill:#ccc;fill-opacity:1;stroke:none;stroke-width:2.64583;stroke-linecap:square;stroke-linejoin:round;stroke-miterlimit:4;stroke-dasharray:none;stroke-opacity:1"/><path d="M134.043 45.378c-5.803 4.624-12.4 8.98-16.949 15.49-.765 1.096-1.614 2.416-2.133 3.926-.518 1.51-.685 3.298.1 4.997 1.026 2.223 3.141 3.332 4.932 4.023l1.068-2.75c-1.492-.575-2.807-1.403-3.316-2.507-.4-.864-.35-1.754.013-2.809.362-1.055 1.057-2.184 1.762-3.193 4.128-5.91 10.43-10.142 16.368-14.874z" style="color:#000;font-style:normal;font-variant:normal;font-weight:400;font-stretch:normal;font-size:medium;line-height:normal;font-family:sans-serif;font-variant-ligatures:normal;font-variant-position:normal;font-variant-caps:normal;font-variant-numeric:normal;font-variant-alternates:normal;font-variant-east-asian:normal;font-feature-settings:normal;font-variation-settings:normal;text-indent:0;text-align:start;text-decoration:none;text-decoration-line:none;text-decoration-style:solid;text-decoration-color:#000;letter-spacing:normal;word-spacing:normal;text-transform:none;writing-mode:lr-tb;direction:ltr;text-orientation:mixed;dominant-baseline:auto;baseline-shift:baseline;text-anchor:start;white-space:normal;shape-padding:0;shape-margin:0;inline-size:0;clip-rule:nonzero;display:inline;overflow:visible;visibility:visible;isolation:auto;mix-blend-mode:normal;color-interpolation:sRGB;color-interpolation-filters:linearRGB;solid-color:#000;solid-opacity:1;vector-effect:none;fill:url(#f);fill-opacity:1;fill-rule:nonzero;stroke:none;stroke-width:3.96875;stroke-linecap:butt;stroke-linejoin:miter;stroke-miterlimit:4;stroke-dasharray:none;stroke-dashoffset:0;stroke-opacity:1;color-rendering:auto;image-rendering:auto;shape-rendering:auto;text-rendering:auto;enable-background:accumulate;stop-color:#000"/><path d="M166.786 49.619c-1.718-2.072-3.736-3.894-5.922-5.465-5.01-3.6-11.303-6.147-17.575-5.168-4.512.704-8.3 3.892-10.305 7.897l-.011-.002a.06.06 0 0 0 .008.008l-.026.05.085.01c.395.405.795.805 1.201 1.199 4.27 4.137 9.528 7.898 15.664 8.274 6.337.388 12.317-2.322 17.71-5.366l.31.037a27.051 27.051 0 0 0-1.14-1.475z" style="fill:url(#g);fill-opacity:1;stroke:none;stroke-width:.264583px;stroke-linecap:butt;stroke-linejoin:miter;stroke-opacity:1"/><path d="m133.31 58.972-1.11 2.734c1.06.427 2.214.897 3.013 1.45.798.552 1.16 1.018 1.197 1.717.099 1.803-1.55 3.518-3.33 5.124-4.712 4.252-10.793 7.337-15.58 12.394-.682.72-1.45 1.663-1.916 2.844-.466 1.181-.545 2.79.396 4.09 1.053 1.455 2.578 2.12 3.81 2.622l1.118-2.73c-1.12-.455-2.056-.961-2.53-1.617-.293-.405-.28-.684-.043-1.287.238-.603.784-1.338 1.314-1.898 4.324-4.568 10.313-7.628 15.414-12.232 1.816-1.638 4.49-3.99 4.3-7.47-.099-1.806-1.255-3.144-2.465-3.98-1.21-.838-2.554-1.344-3.588-1.76z" style="color:#000;font-style:normal;font-variant:normal;font-weight:400;font-stretch:normal;font-size:medium;line-height:normal;font-family:sans-serif;font-variant-ligatures:normal;font-variant-position:normal;font-variant-caps:normal;font-variant-numeric:normal;font-variant-alternates:normal;font-variant-east-asian:normal;font-feature-settings:normal;font-variation-settings:normal;text-indent:0;text-align:start;text-decoration:none;text-decoration-line:none;text-decoration-style:solid;text-decoration-color:#000;letter-spacing:normal;word-spacing:normal;text-transform:none;writing-mode:lr-tb;direction:ltr;text-orientation:mixed;dominant-baseline:auto;baseline-shift:baseline;text-anchor:start;white-space:normal;shape-padding:0;shape-margin:0;inline-size:0;clip-rule:nonzero;display:inline;overflow:visible;visibility:visible;isolation:auto;mix-blend-mode:normal;color-interpolation:sRGB;color-interpolation-filters:linearRGB;solid-color:#000;solid-opacity:1;vector-effect:none;fill:url(#h);fill-opacity:1;fill-rule:nonzero;stroke:none;stroke-width:3.96875;stroke-linecap:butt;stroke-linejoin:miter;stroke-miterlimit:4;stroke-dasharray:none;stroke-dashoffset:0;stroke-opacity:1;color-rendering:auto;image-rendering:auto;shape-rendering:auto;text-rendering:auto;enable-background:accumulate;stop-color:#000"/><rect width="8.741" height="7.013" x="125.521" y="58.564" rx=".063" ry=".063" style="fill:#ccc;fill-opacity:1;stroke:none;stroke-width:2.64583;stroke-linecap:square;stroke-linejoin:round;stroke-miterlimit:4;stroke-dasharray:none;stroke-opacity:1"/><path d="M162.789 15.948c-3.373-.01-6.745.467-10.009 1.306-7.48 1.922-14.973 5.918-19.048 12.715-2.932 4.891-2.89 11.075-.632 16.202l-.01.01.014-.002.027.065.079-.074a77.34 77.34 0 0 0 2.117-.193c7.406-.784 15.24-2.815 20.513-8.397 5.446-5.766 7.618-13.67 8.999-21.277l.284-.268a34.038 34.038 0 0 0-2.334-.087z" style="fill:url(#i);fill-opacity:1;stroke:none;stroke-width:.264583px;stroke-linecap:butt;stroke-linejoin:miter;stroke-opacity:1"/><rect width="8.426" height="6.572" x="118.571" y="67.911" rx=".063" ry=".063" style="fill:#ccc;fill-opacity:1;stroke:none;stroke-width:2.64583;stroke-linecap:square;stroke-linejoin:round;stroke-miterlimit:4;stroke-dasharray:none;stroke-opacity:1"/><rect width="8.426" height="5.362" x="118.579" y="87.815" rx=".063" ry=".063" style="fill:#ccc;fill-opacity:1;stroke:none;stroke-width:2.64583;stroke-linecap:square;stroke-linejoin:round;stroke-miterlimit:4;stroke-dasharray:none;stroke-opacity:1"/></g></svg>