<?xml version="1.0" encoding="utf-8"?>
<!-- Generator: Adobe Illustrator 27.7.0, SVG Export Plug-In . SVG Version: 6.00 Build 0)  -->
<svg version="1.1" id="Layer_1" xmlns="http://www.w3.org/2000/svg" xmlns:xlink="http://www.w3.org/1999/xlink" x="0px" y="0px"
	 viewBox="0 0 512 512" style="enable-background:new 0 0 512 512;" xml:space="preserve">
<style type="text/css">
	.st0{fill:none;stroke:#808080;stroke-width:2;}
	.st1{fill:#FFFFFF;}
</style>
<g>
	<path vector-effect="non-scaling-stroke" class="st0" d="M283.8,147.5c-15.1-15.2-39.7-15.3-54.9-0.2l-81.4,80.9
		c-15.2,15.1-15.3,39.7-0.2,54.9l80.9,81.4c15.1,15.2,39.7,15.3,54.9,0.2l81.4-80.9c15.2-15.1,15.3-39.7,0.2-54.9L283.8,147.5"/>
	<path d="M232.7,0h47.6C413.7,22,490.9,99.6,512,232.9v47.3C490.2,413.7,412.6,491,279.1,512h-47.6C98.3,490.2,21.1,412.5,0,279
		v-47.5C21.9,98.4,99.5,21.2,232.7,0z M283.8,147.5c-15.1-15.2-39.7-15.3-54.9-0.2l-81.4,80.9c-15.2,15.1-15.3,39.7-0.2,54.9
		l80.9,81.4c15.1,15.2,39.7,15.3,54.9,0.2l81.4-80.9c15.2-15.1,15.3-39.7,0.2-54.9L283.8,147.5z"/>
	<path class="st1" d="M147.5,228.2l81.4-80.9c15.2-15.1,39.8-15,54.9,0.2l80.9,81.4c15.1,15.2,15,39.8-0.2,54.9l-81.4,80.9
		c-15.2,15.1-39.8,15-54.9-0.2l-80.9-81.4C132.2,267.9,132.3,243.3,147.5,228.2z"/>
</g>
</svg>
