<?xml version="1.0" encoding="utf-8"?>
<!-- Generator: Adobe Illustrator 27.7.0, SVG Export Plug-In . SVG Version: 6.00 Build 0)  -->
<svg version="1.1" id="Layer_1" xmlns="http://www.w3.org/2000/svg" xmlns:xlink="http://www.w3.org/1999/xlink" x="0px" y="0px"
	 viewBox="0 0 512 512" style="enable-background:new 0 0 512 512;" xml:space="preserve">
<style type="text/css">
	.st0{fill:#545BEB;}
	.st1{fill:#FC466B;}
</style>
<g>
	<g>
		<path class="st0" d="M486.5,264.4l-222,222c-9.8,9.8-2.1,26.6,11.7,25.5c58.8-4.6,116.4-29.4,161.4-74.4
			c45-45,69.8-102.6,74.4-161.4C513,262.3,496.3,254.6,486.5,264.4z"/>
		<path class="st0" d="M488.3,146.5l-0.4-0.8c-13.1-27.7-49.4-34.4-71-12.7l-284,284c-21.7,21.7-14.9,57.9,12.7,71l0.8,0.4
			c16.6,7.8,36.4,4,49.4-8.9l283.5-283.5C492.4,182.9,496.1,163.1,488.3,146.5z"/>
		<path class="st0" d="M247.6,25.6c9.8-9.8,2.1-26.6-11.7-25.5C177.1,4.7,119.5,29.4,74.5,74.4c-45,45-69.8,102.5-74.4,161.4
			c-1.1,13.8,15.7,21.5,25.5,11.7L247.6,25.6z"/>
	</g>
	<g>
		<path class="st0" d="M65.2,283.5l-32.6,32.6C19.5,329.2,16,349.2,23.9,366l0.3,0.8c13,27.5,49.3,33.8,70.8,12.3l32.8-32.8
			c17.3-17.3,17.3-45.4,0-62.7l0,0C110.6,266.2,82.5,266.2,65.2,283.5L65.2,283.5z"/>
		<path class="st1" d="M230.8,243.4L379.1,95.1c21.5-21.5,15.2-57.8-12.3-70.8l-0.8-0.3c-16.8-7.9-36.7-4.5-49.9,8.7L168,180.8
			c-17.3,17.3-17.3,45.4,0,62.7l0,0C185.4,260.8,213.4,260.8,230.8,243.4L230.8,243.4z"/>
	</g>
</g>
</svg>
