<svg xmlns="http://www.w3.org/2000/svg" xmlns:svg="http://www.w3.org/2000/svg" xmlns:xlink="http://www.w3.org/1999/xlink" id="svg2" width="128" height="128" version="1.1"><defs id="defs4"><linearGradient id="linearGradient3935"><stop style="stop-color:#fff;stop-opacity:1" id="stop3937" offset="0"/><stop style="stop-color:#000;stop-opacity:1" id="stop3939" offset="1"/></linearGradient><linearGradient id="linearGradient3941" x1="156.828" x2="671.876" y1="386.382" y2="386.382" gradientTransform="translate(6.0630807,-15.157702)" gradientUnits="userSpaceOnUse" xlink:href="#linearGradient3935"/></defs><metadata id="metadata7"/><g id="layer1" transform="translate(-20.147583,-341.96661)"><path style="fill:#003849;fill-opacity:1;stroke:none;stroke-width:.93659103" id="path2985" d="M 148.14758,405.96661 A 64,64 0 0 1 84.21127,469.96658 64,64 0 0 1 20.14771,406.09399 64,64 0 0 1 83.956524,341.9669 64,64 0 0 1 148.14708,405.71187"/><path style="fill:none;stroke:#fff;stroke-width:13.784688;stroke-linecap:round;stroke-linejoin:miter;stroke-miterlimit:0;stroke-dasharray:none;stroke-opacity:1" id="path4101" d="m 63.896014,439.50084 3.685001,-18.09777 c 0.18712,-0.91898 0.879642,-4.32009 3.334954,-7.35191 12.619513,-12.87705 32.937431,-3.96758 37.347251,-25.09477 3.77325,-19.0299 -19.635283,-16.4008 -42.610035,-16.4008 h -0.636949"/></g></svg>