<?xml version="1.0" encoding="utf-8"?>
<!-- Generator: Adobe Illustrator 27.7.0, SVG Export Plug-In . SVG Version: 6.00 Build 0)  -->
<svg version="1.1" id="Layer_1" xmlns="http://www.w3.org/2000/svg" xmlns:xlink="http://www.w3.org/1999/xlink" x="0px" y="0px"
	 viewBox="0 0 512 512" style="enable-background:new 0 0 512 512;" xml:space="preserve">
<style type="text/css">
	.st0{fill:#E10600;}
</style>
<g>
	<g>
		<path class="st0" d="M497.2,221.4l-208.4-195c-18-16.9-46.6-16.9-65.2,0l-131,122.8c34.3,12.8,61.1,41.3,71,76.8h177
			c9.3,0,16.3,7.6,16.3,16.3v26.8c0,9.3-7.6,16.3-16.3,16.3h-20.4v37.8c0,9.3-7.6,16.3-16.3,16.3h-44.8c-9.3,0-16.3-7.6-16.3-16.3
			v-37.8h-78.6c-9.9,36.1-36.7,65.2-71.6,77.4l131.6,122.8c18,16.9,46.6,16.9,65.2,0l207.8-195C516.9,272,516.9,240.6,497.2,221.4z"
			/>
		<path class="st0" d="M54.1,202.2c-8.7,0-16.9,2.3-24.4,5.8C12.2,216.7,0,234.8,0,255.7c0,20.4,11.1,37.8,27.9,47.2
			c7.6,4.1,16.3,6.4,25.6,6.4c29.7,0,53.6-23.9,53.6-53.6C108.3,226.6,83.8,202.2,54.1,202.2z"/>
	</g>
</g>
</svg>
