<svg width="100" height="96" viewBox="0 0 100 96" fill="none" xmlns="http://www.w3.org/2000/svg">
<path d="M97.0755 41.1387L56.3793 2.50811C52.8553 -0.836036 47.2852 -0.836036 43.6475 2.50811L18.0703 26.8396C24.7772 29.3766 30.0063 35.027 31.9388 42.0613H47.2851H62.5178H66.4965C68.3153 42.0613 69.6794 43.5604 69.6794 45.2901V50.5946C69.6794 52.4396 68.2016 53.8234 66.4965 53.8234H62.5178V61.3189C62.5178 63.164 61.04 64.5477 59.3349 64.5477H50.5818C48.763 64.5477 47.3989 63.0486 47.3989 61.3189V53.8234H32.0525C30.12 60.973 24.8909 66.7387 18.0703 69.1604L43.7612 93.4919C47.2852 96.836 52.8553 96.836 56.493 93.4919L97.0755 54.8613C100.941 51.1712 100.941 44.9441 97.0755 41.1387Z" fill="#E10600"/>
<path d="M10.5719 37.3333C8.86676 37.3333 7.27531 37.7945 5.79751 38.4864C2.38722 40.2161 0 43.7909 0 47.9423C0 51.9783 2.15984 55.4378 5.45646 57.2828C6.93426 58.09 8.63944 58.5513 10.4583 58.5513C16.2558 58.5513 20.9165 53.8233 20.9165 47.9423C21.1439 42.1765 16.3694 37.3333 10.5719 37.3333Z" fill="#E10600"/>
</svg>
