<?xml version="1.0" encoding="utf-8"?>
<svg version="1.1" id="Layer_1" xmlns="http://www.w3.org/2000/svg" xmlns:xlink="http://www.w3.org/1999/xlink" x="0px" y="0px"
	viewBox="0 0 25 25" style="enable-background:new 0 0 25 25;" xml:space="preserve">
<style type="text/css">
	.st0{fill:#4D87E2;}
	.st1{fill:#FFFFFF;}
</style>
<path class="st0" d="M0,20V5c0-0.33,0.03-0.65,0.1-0.98C0.16,3.7,0.25,3.39,0.38,3.09c0.13-0.3,0.28-0.59,0.46-0.86
	C1.03,1.95,1.23,1.7,1.46,1.46C1.7,1.23,1.95,1.03,2.22,0.84s0.56-0.34,0.86-0.46S3.7,0.16,4.02,0.1S4.67,0,5,0h15
	c0.33,0,0.65,0.03,0.98,0.1c0.32,0.06,0.63,0.16,0.94,0.28s0.59,0.28,0.86,0.46c0.27,0.18,0.53,0.39,0.76,0.62
	c0.23,0.23,0.44,0.48,0.62,0.76c0.18,0.27,0.34,0.56,0.46,0.86c0.13,0.3,0.22,0.62,0.28,0.94C24.97,4.35,25,4.67,25,5v15
	c0,0.33-0.03,0.65-0.1,0.98c-0.06,0.32-0.16,0.63-0.28,0.94s-0.28,0.59-0.46,0.86c-0.18,0.27-0.39,0.53-0.62,0.76
	c-0.23,0.23-0.48,0.44-0.76,0.62c-0.27,0.18-0.56,0.34-0.86,0.46c-0.3,0.13-0.62,0.22-0.94,0.28C20.65,24.97,20.33,25,20,25H5
	c-0.33,0-0.65-0.03-0.98-0.1s-0.63-0.16-0.94-0.28s-0.59-0.28-0.86-0.46c-0.27-0.18-0.53-0.39-0.76-0.62
	c-0.23-0.23-0.44-0.48-0.62-0.76c-0.18-0.27-0.34-0.56-0.46-0.86S0.16,21.3,0.1,20.98C0.03,20.65,0,20.33,0,20z"/>
<path class="st1" d="M16.77,10.45c-0.63,0.69-1.71,0.69-2.34,0c-0.54-0.59-0.54-1.51,0-2.1c0.63-0.69,1.71-0.69,2.34,0
	C17.31,8.94,17.31,9.86,16.77,10.45z M18.06,6.89c-1.9-1.86-4.94-1.85-6.83,0.03c-1.53,1.52-1.82,3.8-0.89,5.62
	c0.03,0.07,0.02,0.16-0.03,0.21l-4.75,4.74c-0.03,0.03-0.05,0.08-0.05,0.13v1.7c0,0.1,0.08,0.18,0.18,0.18h1.71
	c0.05,0,0.09-0.02,0.13-0.05l1.44-1.43c0.03-0.03,0.08-0.05,0.13-0.05h1.9c0.2,0,0.37-0.16,0.37-0.37v-1.9
	c0-0.05,0.02-0.09,0.05-0.13l0.87-0.87c0.06-0.06,0.14-0.07,0.21-0.03c1.82,0.91,4.09,0.61,5.6-0.9
	C19.98,11.87,19.97,8.76,18.06,6.89z"/>
</svg>
