<svg xmlns="http://www.w3.org/2000/svg" xmlns:xlink="http://www.w3.org/1999/xlink" version="1.1" id="Layer_1" x="0px" y="0px" style="enable-background:new 0 0 737 737;" xml:space="preserve" viewBox="68.47 2.87 600.07 733.27">
<style type="text/css">
	.st0{fill:none;stroke:#000000;stroke-width:66.6667;stroke-linecap:round;stroke-linejoin:round;stroke-miterlimit:133.3333;}
</style>
<g>
	<path class="st0" d="M435.2,45.1v137.7c0,18.7,0,28,3.6,35.1c3.2,6.3,8.3,11.4,14.6,14.6c7.1,3.6,16.5,3.6,35.1,3.6h137.7    M635.2,302.4v240.4c0,56,0,84-10.9,105.4c-9.6,18.8-24.9,34.1-43.7,43.7c-21.4,10.9-49.4,10.9-105.4,10.9H261.8   c-56,0-84,0-105.4-10.9c-18.8-9.6-34.1-24.9-43.7-43.7c-10.9-21.4-10.9-49.4-10.9-105.4V196.2c0-56,0-84,10.9-105.4   c9.6-18.8,24.9-34.1,43.7-43.7c21.4-10.9,49.4-10.9,105.4-10.9h107.1c24.5,0,36.7,0,48.2,2.8c10.2,2.4,20,6.5,28.9,12   c10.1,6.2,18.7,14.8,36,32.1l106.3,106.3c17.3,17.3,25.9,25.9,32.1,36c5.5,8.9,9.5,18.7,12,28.9C635.2,265.8,635.2,278,635.2,302.4   z"/>
</g>
</svg>