<?xml version="1.0" encoding="UTF-8"?>
<svg width="605.21" height="512" version="1.1" viewBox="0 0 605.21 512" xml:space="preserve" xmlns="http://www.w3.org/2000/svg"><style type="text/css">.st0{fill:#fada9d}.st1{fill:#d59950}.st2{opacity:.21;enable-background:new}.st3{fill:none;stroke:#000;stroke-width:3.83;stroke-linecap:round;stroke-linejoin:round}</style><g transform="matrix(2.8859 0 0 2.8859 -.14501 .14341)"><path class="st0" d="m96.8 32.7 14.7-14.7 19-12.7s14.6-3.3 15.3-3.4 22.6 2.9 22.6 2.9l11.4 4.8 13 9.7 6.6 8 7.6 18.2 0.8 19.8-11.2 23.3-9.9 9.3-20.4 13.5-20.5 8.8-14.9 6.5-12.9 15.2-12 10.1c-0.1 0.1-25.2 15.6-25.2 15.6l-25.5 7.7-10.4-1-16.2-3.2-7.6-4.6-7 3.1-6.1-2.2-3-6s1.5-11.9 1.5-13.1-2.5-7.5-2.5-7.5l-2-19s5.9-23 6.2-23.5 11.3-16.9 11.3-16.9 16.9-14.8 17.5-15.2 16.7-9.4 16.7-9.4c11.8-3.8 23.3-8.6 34.4-14.4z"/><path class="st1" d="m159.2 17.9c1.1 1.1 3.6 2.9 4 4.4 0.7 2.4-2 3.9-3.7 4.7l-10 4.7c-2.1 1.2-4.5 1.9-6.9 2.2-4.8 0.2-8.9-3.1-12.5-6.2-1.7-1.5-3.6-3.3-3.5-5.5 0.2-1.5 0.9-3 2.1-4 4.6-4.7 11.1-7.1 17.7-6.5 4.9 0.6 9.4 2.8 12.8 6.2z"/><path class="st1" d="m89.4 52.9c1.9-0.9 4.1-2.5 6.2-2.7 3.5-0.4 7.3 4.1 6.7 7.4-0.4 2.8-3.2 4.5-5.7 5.8-15 8.2-30.2 16.4-45.3 24.6-1.4 0.9-3.1 1.5-4.8 1.8-2.4 0.2-4.7-1.1-6.8-2.4-1.7-1-3.5-2.2-4-4.2-0.3-1.7 0.3-3.5 1.6-4.7s2.8-2.1 4.4-2.8l40.3-19.3z"/><path class="st1" d="m38.1 92.7c1.5 2.4-0.9 4.6-2.2 6.6-3.3 4.9-6.9 9.6-10.8 14-1.2 1.6-2.8 2.9-4.7 3.8-1.9 0.7-4.4 0.4-5.5-1.3-1.2-1.9-0.4-4.3 0.4-6.4l4.6-11.1c1.1-2.7 2.3-5.4 4.4-7.3 2.2-1.9 5.1-2.6 7.9-2.1 2.4 0.5 4.5 1.8 5.9 3.8z"/><path class="st1" d="m12.4 130.1c-0.1-3.1 0.2-6.2 0.9-9.3l3.9 1.4c-1.6 2.7-3.2 5.2-4.8 7.9z"/><path class="st1" d="m19.5 151c5-0.8 10-2.1 14.8-3.8 2.6-0.9 6.4-1.9 4.5-5.4-0.7-1.4-1.5-2.7-2.4-3.9-1.6-2.3-3.7-4.3-6-5.9-5.4-3.7-9.3 2.3-11.7 6.8-1.6 2.9-2.6 6-3 9.2-0.2 0.7-0.1 1.5 0.3 2.2 0.7 1.1 2.2 1 3.5 0.8z"/><path class="st1" d="m42.3 157c-4.3 1.4-8.9 2.2-13.4 2.4 4.5 2.3 9.4 3.4 14.4 3.4-0.4-1.9-0.5-4-1-5.8z"/><path class="st1" d="m71.9 156.2c0 1-0.2 2-0.6 2.9-0.9 1.1-2.2 1.9-3.6 2.2-4.5 1.4-9.2 2.2-14 2.3h-0.2c-1.7-0.1-3-1.5-2.9-3.2 0-2 0.5-3.9 1.4-5.6 1.3-2.1 3.5-3.5 5.6-4.7 2.7-1.5 5.4-2.9 8.2-4.2 0.1 0 0.2-0.1 0.3-0.1 1.6-0.5 3.3 0.3 3.9 1.9 1 2.7 2 5.7 1.9 8.5z"/><path class="st1" d="m39.6 132.9c-2.4-2.5-4.9-4.8-7.5-7-1.8-1.6-2.3-4.3-1.1-6.4 3.3-5.6 7.7-10.6 13-14.5 1.6-1.2 3.6-2.4 5.6-2.2 2.2 0.2 4 1.9 5.5 3.6 2.6 2.6 4.9 5.4 6.9 8.4 2 3.1 2.9 6.7 2.6 10.4-0.5 4.3-3.3 8.1-6.7 10.8-2.2 1.7-4.7 3.2-7.2 4.3-2.3 1.1-5.1 0.3-6.6-1.8-1.4-2-2.9-3.8-4.5-5.6z"/><path class="st1" d="m104.8 130.8c0.6 2.9 0.3 6-0.9 8.7-1.7 3.4-5.2 5.5-8.5 7.5l-14 8.3c-0.3 0.2-0.7 0.3-1.1 0.4-1.6 0.2-3.1-0.9-3.3-2.5-0.6-4.4-0.7-8.9 1.2-12.8 1.5-2.7 3.4-5.1 5.7-7.1l8.9-9c0.8-0.8 1.6-1.5 2.6-2 6.6-3.6 8.5 3.9 9.4 8.5z"/><path class="st1" d="m79 84.5c3.6-1.3 7.9 3.3 9.8 6 2.2 3 3.1 6.7 2.8 10.4-0.8 6.3-5.8 11.2-10.6 15.5-1.4 1.4-3 2.6-4.7 3.5s-3.8 1.1-5.7 0.4c-1.8-0.8-3-2.6-4-4.2l-6.6-10.7c-1.3-2.1-2.8-4.6-2.3-7.1 0.6-3.2 3.8-5.1 6.7-6.5 4.7-2.4 9.5-5.5 14.6-7.3z"/><path class="st1" d="m118.6 111.1c1.8 1.3 3.2 3.1 3.9 5.2 0.8 2.8-0.2 5.9-2 8.3-1 1.3-2.2 2.6-3.4 3.7-0.3 0.3-0.6 0.5-1 0.6-1.6 0.6-3.4-0.2-4-1.8l-8.1-21.9c5.3 1.6 10.3 2.5 14.6 5.9z"/><path class="st1" d="m99.3 72.1c-1.7 1.3-5.2 2.7-3.8 5.2 1.1 2 3.7 3.4 5.1 5.3 0.3 0.4 3.2 6 2.9 6 2.6-0.2 5.2-0.8 7.7-1.7s4.5-2.9 5.5-5.3c0.4-1.1 0.5-2.3 0.4-3.4-0.1-3.8-2.1-7.1-4.1-10.2-0.8-1.2-1.8-2.6-3.2-2.7-1.2-0.2-2.4 0.6-3.4 1.4z"/><path class="st1" d="m137.6 106.4c0.3 3.7 1.2 3.4 4.8 3 5.7-0.7 11.3-1.9 16.8-3.6 1.4-0.4 2.6-1.6 3-3 1.3-4.2 1.6-8.6 0.8-12.8-0.1-1.6-0.8-3.1-2-4.3-1.8-1.4-4.3-0.9-6.4-0.4l-16.6 4c-0.9 0.2-1.7 0.6-2.4 1.1-2.6 2.2-1.3 4.7-0.3 7 1.2 2.9 2 5.9 2.3 9z"/><path class="st1" d="m118.5 30c2.5 1 4.6 3 6.8 4.5 1.7 1.2 3.6 3 3.2 5.1-0.3 1.5-1.7 2.5-3 3.3l-6.3 4c-3 1.9-6.6 3.9-10 2.9-2.9-0.9-4.7-3.7-4.4-6.7 0.3-2.5 2.1-4.5 3.9-6.4 2.5-2.8 5.1-8.5 9.8-6.7z"/><path class="st1" d="m123.1 53c-1.9 1.6-4.7 3.6-5 6.3-0.5 4.9 4.8 11.6 8.6 14 3.5 2.2 7.9 2.7 12.1 2.1 4.1-0.8 8.1-2 11.9-3.7 1.4-0.6 3-1.3 3.2-2.8 0-0.9-0.2-1.8-0.7-2.5l-7.5-14.1c-1.5-2.7-3.2-5.7-6.2-6.6-2.5-0.7-5.2 0.3-7.5 1.5-3.2 1.7-6.1 3.6-8.9 5.8z"/><path class="st1" d="m150.3 43.1c-0.7-0.9-2.8-2.8-2.4-4s2.9-2.1 4-2.6c3.1-1.5 6.5-2.6 9.9-3.3 2.6-0.7 5.4-0.6 8 0.2 3.1 1.2 5.3 3.9 6.9 6.8 2.2 3.7 3.2 7.9 3 12.1-0.2 4.3-2.5 8.2-6 10.6-1.8 1.1-4.2 1.7-6 0.7-0.8-0.5-1.5-1.2-2.1-2z"/><path class="st1" d="m186.6 73.1c4 3.9 2.2 12.5 0 16.7-2.7 5.1-7.5 8.8-13.1 10.2l-0.9-15.9c-0.3-1.9-0.1-3.8 0.5-5.6 1.5-4.1 9.5-9.3 13.5-5.4z"/><path class="st1" d="m192.8 30.9c-4-1.4-8.3-0.4-12.3 1.2 2.6 3.1 4.7 6.5 6.3 10.3 2.9-3.3 5-7.2 6-11.5z"/><path class="st1" d="m184 22.2c-3.9 0.4-8.2 1.6-12.1 2-1.3-4.8-4.1-9.1-7.9-12.3 8 0.4 14.6 4.3 20 10.3z"/><path class="st1" d="m198.8 46c-0.9 4.9-2.9 9.5-5.9 13.5 2.1 4.3 3.1 9.1 3 13.9 4.7-8.1 5.2-18.3 2.9-27.4z"/><path class="st2" d="m10.5 168.2c3.4 1.3 7.3 0.4 9.9-2.2 18.6 11.2 42.9 9.6 62.6 0.5s34.9-25.3 49.1-41.6c14.1-4.8 28.3-9.6 41-17.3s24-18.5 29.6-32.3c4.7-11.6 5.5-25.4 1.3-37.2-13.3 25.9-36.2 42.5-64.6 48.7-3 11.1-9.6 21-17.7 29.2s-17.9 14.6-28.1 20c-21.4 11.4-45.6 18.4-69.6 21.2-5 4.3-12.1 5-17.9 1.9 0.3 3.6 1 7.9 4.4 9.1z"/><path class="st3" d="m141.2 98.7c-1.2 12.5-6.9 24.3-14.7 34.1s-17.7 17.8-28.1 24.8c-11.4 7.7-23.8 14.3-37.3 16.8s-29.1 0.7-39.9-7.8c-2.4 1.2-5 1.9-7.7 2.2-2.7 0.1-5.6-0.9-7.1-3s-1.4-4.9-1.2-7.5c0.2-4.1 2.5-8.4 0.9-12.1-7.7-17.9-4.1-39.3 6.5-55.7s27.2-27.9 45.2-35.5 37.1-11.5 56.2-15.3"/><path class="st3" d="m130.9 126.7c18.4-9 37.6-13.5 53.3-26.7 14.9-12.4 25.4-31.4 23.4-50.7-1.3-12.4-7.8-24.1-17.1-32.4-9.7-8.1-21.5-13.2-34-14.6-10.1-1.2-20.5 0-29.5 4.7-18.2 9.5-31.3 34.6-50.7 41.5"/></g></svg>
