<svg xmlns="http://www.w3.org/2000/svg" xmlns:xlink="http://www.w3.org/1999/xlink" version="1.1" id="Layer_1" x="0px" y="0px" style="enable-background:new 0 0 211 211;" xml:space="preserve" viewBox="0.76 16.75 209.7 177.4">
<style type="text/css">
	.st0{fill:#FADA9D;}
	.st1{fill:#D59950;}
	.st2{opacity:0.21;enable-background:new    ;}
	.st3{fill:none;stroke:#000000;stroke-width:3.83;stroke-linecap:round;stroke-linejoin:round;}
</style>
<g id="Layer_17">
	<path class="st0" d="M97.5,49.5l14.7-14.7l19-12.7c0,0,14.6-3.3,15.3-3.4s22.6,2.9,22.6,2.9l11.4,4.8l13,9.7l6.6,8l7.6,18.2   l0.8,19.8l-11.2,23.3l-9.9,9.3L167,128.2l-20.5,8.8l-14.9,6.5l-12.9,15.2l-12,10.1c-0.1,0.1-25.2,15.6-25.2,15.6L56,192.1l-10.4-1   L29.4,188l-7.6-4.6l-7,3.1l-6.1-2.2l-3-6c0,0,1.5-11.9,1.5-13.1s-2.5-7.5-2.5-7.5l-2-19c0,0,5.9-23,6.2-23.5s11.3-16.9,11.3-16.9   s16.9-14.8,17.5-15.2s16.7-9.4,16.7-9.4c11.8-3.8,23.3-8.6,34.4-14.4L97.5,49.5z"/>
	<path class="st1" d="M159.9,34.8c1.1,1.1,3.6,2.9,4,4.4c0.7,2.4-2,3.9-3.7,4.7l-10,4.7c-2.1,1.2-4.5,1.9-6.9,2.2   c-4.8,0.2-8.9-3.1-12.5-6.2c-1.7-1.5-3.6-3.3-3.5-5.5c0.2-1.5,0.9-3,2.1-4c4.6-4.7,11.1-7.1,17.7-6.5   C152,29.1,156.5,31.3,159.9,34.8z"/>
	<path class="st1" d="M90.1,69.8c1.9-0.9,4.1-2.5,6.2-2.7c3.5-0.4,7.3,4.1,6.7,7.4c-0.4,2.8-3.2,4.5-5.7,5.8   c-15,8.2-30.2,16.4-45.3,24.6c-1.4,0.9-3.1,1.5-4.8,1.8c-2.4,0.2-4.7-1.1-6.8-2.4c-1.7-1-3.5-2.2-4-4.2c-0.3-1.7,0.3-3.5,1.6-4.7   s2.8-2.1,4.4-2.8l40.3-19.3L90.1,69.8z"/>
	<path class="st1" d="M38.8,109.5c1.5,2.4-0.9,4.6-2.2,6.6c-3.3,4.9-6.9,9.6-10.8,14c-1.2,1.6-2.8,2.9-4.7,3.8   c-1.9,0.7-4.4,0.4-5.5-1.3c-1.2-1.9-0.4-4.3,0.4-6.4l4.6-11.1c1.1-2.7,2.3-5.4,4.4-7.3c2.2-1.9,5.1-2.6,7.9-2.1   C35.3,106.2,37.4,107.5,38.8,109.5z"/>
	<path class="st1" d="M13.1,147c-0.1-3.1,0.2-6.2,0.9-9.3l3.9,1.4C16.3,141.8,14.7,144.2,13.1,147z"/>
	<path class="st1" d="M20.2,167.9c5-0.8,10-2.1,14.8-3.8c2.6-0.9,6.4-1.9,4.5-5.4c-0.7-1.4-1.5-2.7-2.4-3.9c-1.6-2.3-3.7-4.3-6-5.9   c-5.4-3.7-9.3,2.3-11.7,6.8c-1.6,2.9-2.6,6-3,9.2c-0.2,0.7-0.1,1.5,0.3,2.2C17.4,168.1,18.9,168,20.2,167.9z"/>
	<path class="st1" d="M43,173.9c-4.3,1.4-8.9,2.2-13.4,2.4c4.5,2.3,9.4,3.4,14.4,3.4C43.6,177.8,43.5,175.6,43,173.9z"/>
	<path class="st1" d="M72.6,173c0,1-0.2,2-0.6,2.9c-0.9,1.1-2.2,1.9-3.6,2.2c-4.5,1.4-9.2,2.2-14,2.3c-0.1,0-0.1,0-0.2,0   c-1.7-0.1-3-1.5-2.9-3.2c0-2,0.5-3.9,1.4-5.6c1.3-2.1,3.5-3.5,5.6-4.7c2.7-1.5,5.4-2.9,8.2-4.2c0.1,0,0.2-0.1,0.3-0.1   c1.6-0.5,3.3,0.3,3.9,1.9C71.7,167.2,72.7,170.2,72.6,173z"/>
	<path class="st1" d="M40.3,149.8c-2.4-2.5-4.9-4.8-7.5-7c-1.8-1.6-2.3-4.3-1.1-6.4c3.3-5.6,7.7-10.6,13-14.5   c1.6-1.2,3.6-2.4,5.6-2.2c2.2,0.2,4,1.9,5.5,3.6c2.6,2.6,4.9,5.4,6.9,8.4c2,3.1,2.9,6.7,2.6,10.4c-0.5,4.3-3.3,8.1-6.7,10.8   c-2.2,1.7-4.7,3.2-7.2,4.3c-2.3,1.1-5.1,0.3-6.6-1.8C43.4,153.4,41.9,151.5,40.3,149.8z"/>
	<path class="st1" d="M105.5,147.6c0.6,2.9,0.3,6-0.9,8.7c-1.7,3.4-5.2,5.5-8.5,7.5l-14,8.3c-0.3,0.2-0.7,0.3-1.1,0.4   c-1.6,0.2-3.1-0.9-3.3-2.5c-0.6-4.4-0.7-8.9,1.2-12.8c1.5-2.7,3.4-5.1,5.7-7.1l8.9-9c0.8-0.8,1.6-1.5,2.6-2   C102.7,135.5,104.6,143,105.5,147.6z"/>
	<path class="st1" d="M79.7,101.3c3.6-1.3,7.9,3.3,9.8,6c2.2,3,3.1,6.7,2.8,10.4c-0.8,6.3-5.8,11.2-10.6,15.5   c-1.4,1.4-3,2.6-4.7,3.5s-3.8,1.1-5.7,0.4c-1.8-0.8-3-2.6-4-4.2l-6.6-10.7c-1.3-2.1-2.8-4.6-2.3-7.1c0.6-3.2,3.8-5.1,6.7-6.5   C69.8,106.2,74.6,103.2,79.7,101.3z"/>
	<path class="st1" d="M119.3,127.9c1.8,1.3,3.2,3.1,3.9,5.2c0.8,2.8-0.2,5.9-2,8.3c-1,1.3-2.2,2.6-3.4,3.7c-0.3,0.3-0.6,0.5-1,0.6   c-1.6,0.6-3.4-0.2-4-1.8l-8.1-21.9C110,123.7,115,124.5,119.3,127.9z"/>
	<path class="st1" d="M100,88.9c-1.7,1.3-5.2,2.7-3.8,5.2c1.1,2,3.7,3.4,5.1,5.3c0.3,0.4,3.2,6,2.9,6c2.6-0.2,5.2-0.8,7.7-1.7   c2.5-0.9,4.5-2.9,5.5-5.3c0.4-1.1,0.5-2.3,0.4-3.4c-0.1-3.8-2.1-7.1-4.1-10.2c-0.8-1.2-1.8-2.6-3.2-2.7c-1.2-0.2-2.4,0.6-3.4,1.4   L100,88.9z"/>
	<path class="st1" d="M138.3,123.2c0.3,3.7,1.2,3.4,4.8,3c5.7-0.7,11.3-1.9,16.8-3.6c1.4-0.4,2.6-1.6,3-3c1.3-4.2,1.6-8.6,0.8-12.8   c-0.1-1.6-0.8-3.1-2-4.3c-1.8-1.4-4.3-0.9-6.4-0.4l-16.6,4c-0.9,0.2-1.7,0.6-2.4,1.1c-2.6,2.2-1.3,4.7-0.3,7   C137.2,117.2,138,120.2,138.3,123.2z"/>
	<path class="st1" d="M119.2,46.8c2.5,1,4.6,3,6.8,4.5c1.7,1.2,3.6,3,3.2,5.1c-0.3,1.5-1.7,2.5-3,3.3l-6.3,4c-3,1.9-6.6,3.9-10,2.9   c-2.9-0.9-4.7-3.7-4.4-6.7c0.3-2.5,2.1-4.5,3.9-6.4C111.9,50.8,114.5,45,119.2,46.8z"/>
	<path class="st1" d="M123.8,69.8c-1.9,1.6-4.7,3.6-5,6.3c-0.5,4.9,4.8,11.6,8.6,14c3.5,2.2,7.9,2.7,12.1,2.1   c4.1-0.8,8.1-2,11.9-3.7c1.4-0.6,3-1.3,3.2-2.8c0-0.9-0.2-1.8-0.7-2.5l-7.5-14.1c-1.5-2.7-3.2-5.7-6.2-6.6   c-2.5-0.7-5.2,0.3-7.5,1.5C129.5,65.8,126.6,67.6,123.8,69.8z"/>
	<path class="st1" d="M151,59.9c-0.7-0.9-2.8-2.8-2.4-4s2.9-2.1,4-2.6c3.1-1.5,6.5-2.6,9.9-3.3c2.6-0.7,5.4-0.6,8,0.2   c3.1,1.2,5.3,3.9,6.9,6.8c2.2,3.7,3.2,7.9,3,12.1c-0.2,4.3-2.5,8.2-6,10.6c-1.8,1.1-4.2,1.7-6,0.7c-0.8-0.5-1.5-1.2-2.1-2L151,59.9   z"/>
	<path class="st1" d="M187.3,89.9c4,3.9,2.2,12.5,0,16.7c-2.7,5.1-7.5,8.8-13.1,10.2l-0.9-15.9c-0.3-1.9-0.1-3.8,0.5-5.6   C175.3,91.2,183.3,86,187.3,89.9z"/>
	<path class="st1" d="M193.5,47.8c-4-1.4-8.3-0.4-12.3,1.2c2.6,3.1,4.7,6.5,6.3,10.3C190.4,55.9,192.5,52,193.5,47.8z"/>
	<path class="st1" d="M184.7,39c-3.9,0.4-8.2,1.6-12.1,2c-1.3-4.8-4.1-9.1-7.9-12.3C172.7,29.1,179.3,33,184.7,39z"/>
	<path class="st1" d="M199.5,62.8c-0.9,4.9-2.9,9.5-5.9,13.5c2.1,4.3,3.1,9.1,3,13.9C201.3,82.2,201.8,71.9,199.5,62.8z"/>
	<path class="st2" d="M11.2,185c3.4,1.3,7.3,0.4,9.9-2.2c18.6,11.2,42.9,9.6,62.6,0.5s34.9-25.3,49.1-41.6   c14.1-4.8,28.3-9.6,41-17.3s24-18.5,29.6-32.3c4.7-11.6,5.5-25.4,1.3-37.2c-13.3,25.9-36.2,42.5-64.6,48.7   c-3,11.1-9.6,21-17.7,29.2c-8.1,8.2-17.9,14.6-28.1,20c-21.4,11.4-45.6,18.4-69.6,21.2c-5,4.3-12.1,5-17.9,1.9   C7.1,179.5,7.8,183.9,11.2,185z"/>
	<path class="st3" d="M141.9,115.5c-1.2,12.5-6.9,24.3-14.7,34.1s-17.7,17.8-28.1,24.8c-11.4,7.7-23.8,14.3-37.3,16.8   s-29.1,0.7-39.9-7.8c-2.4,1.2-5,1.9-7.7,2.2c-2.7,0.1-5.6-0.9-7.1-3s-1.4-4.9-1.2-7.5c0.2-4.1,2.5-8.4,0.9-12.1   c-7.7-17.9-4.1-39.3,6.5-55.7s27.2-27.9,45.2-35.5s37.1-11.5,56.2-15.3"/>
	<path class="st3" d="M131.6,143.5c18.4-9,37.6-13.5,53.3-26.7c14.9-12.4,25.4-31.4,23.4-50.7c-1.3-12.4-7.8-24.1-17.1-32.4   c-9.7-8.1-21.5-13.2-34-14.6c-10.1-1.2-20.5,0-29.5,4.7C109.5,33.3,96.4,58.4,77,65.3"/>
</g>
</svg>