<svg xmlns="http://www.w3.org/2000/svg" xmlns:xlink="http://www.w3.org/1999/xlink" id="Layer_1" x="0" y="0" version="1.1" viewBox="0 0 209.6 177.3" style="enable-background:new 0 0 209.6 177.3" xml:space="preserve"><style type="text/css">.st0{fill:#fada9d}.st1{fill:#d59950}.st2{opacity:.21;enable-background:new}.st3{fill:none;stroke:#000;stroke-width:3.83;stroke-linecap:round;stroke-linejoin:round}</style><g id="Layer_17"><path d="M96.8,32.7L111.5,18l19-12.7c0,0,14.6-3.3,15.3-3.4c0.7-0.1,22.6,2.9,22.6,2.9l11.4,4.8l13,9.7l6.6,8l7.6,18.2 l0.8,19.8l-11.2,23.3l-9.9,9.3l-20.4,13.5l-20.5,8.8l-14.9,6.5L118,141.9l-12,10.1c-0.1,0.1-25.2,15.6-25.2,15.6l-25.5,7.7l-10.4-1 l-16.2-3.2l-7.6-4.6l-7,3.1l-6.1-2.2l-3-6c0,0,1.5-11.9,1.5-13.1S4,140.8,4,140.8l-2-19c0,0,5.9-23,6.2-23.5s11.3-16.9,11.3-16.9 s16.9-14.8,17.5-15.2s16.7-9.4,16.7-9.4C65.5,53,77,48.2,88.1,42.4L96.8,32.7z" class="st0"/><path d="M159.2,17.9c1.1,1.1,3.6,2.9,4,4.4c0.7,2.4-2,3.9-3.7,4.7l-10,4.7c-2.1,1.2-4.5,1.9-6.9,2.2 c-4.8,0.2-8.9-3.1-12.5-6.2c-1.7-1.5-3.6-3.3-3.5-5.5c0.2-1.5,0.9-3,2.1-4c4.6-4.7,11.1-7.1,17.7-6.5 C151.3,12.3,155.8,14.5,159.2,17.9z" class="st1"/><path d="M89.4,52.9c1.9-0.9,4.1-2.5,6.2-2.7c3.5-0.4,7.3,4.1,6.7,7.4c-0.4,2.8-3.2,4.5-5.7,5.8 C81.6,71.6,66.4,79.8,51.3,88c-1.4,0.9-3.1,1.5-4.8,1.8c-2.4,0.2-4.7-1.1-6.8-2.4c-1.7-1-3.5-2.2-4-4.2c-0.3-1.7,0.3-3.5,1.6-4.7 c1.3-1.2,2.8-2.1,4.4-2.8l40.3-19.3L89.4,52.9z" class="st1"/><path d="M38.1,92.7c1.5,2.4-0.9,4.6-2.2,6.6c-3.3,4.9-6.9,9.6-10.8,14c-1.2,1.6-2.8,2.9-4.7,3.8 c-1.9,0.7-4.4,0.4-5.5-1.3c-1.2-1.9-0.4-4.3,0.4-6.4l4.6-11.1c1.1-2.7,2.3-5.4,4.4-7.3c2.2-1.9,5.1-2.6,7.9-2.1 C34.6,89.4,36.7,90.7,38.1,92.7z" class="st1"/><path d="M12.4,130.1c-0.1-3.1,0.2-6.2,0.9-9.3l3.9,1.4C15.6,124.9,14,127.4,12.4,130.1z" class="st1"/><path d="M19.5,151c5-0.8,10-2.1,14.8-3.8c2.6-0.9,6.4-1.9,4.5-5.4c-0.7-1.4-1.5-2.7-2.4-3.9c-1.6-2.3-3.7-4.3-6-5.9 c-5.4-3.7-9.3,2.3-11.7,6.8c-1.6,2.9-2.6,6-3,9.2c-0.2,0.7-0.1,1.5,0.3,2.2C16.7,151.3,18.2,151.2,19.5,151z" class="st1"/><path d="M42.3,157c-4.3,1.4-8.9,2.2-13.4,2.4c4.5,2.3,9.4,3.4,14.4,3.4C42.9,160.9,42.8,158.8,42.3,157z" class="st1"/><path d="M71.9,156.2c0,1-0.2,2-0.6,2.9c-0.9,1.1-2.2,1.9-3.6,2.2c-4.5,1.4-9.2,2.2-14,2.3c-0.1,0-0.1,0-0.2,0 c-1.7-0.1-3-1.5-2.9-3.2c0-2,0.5-3.9,1.4-5.6c1.3-2.1,3.5-3.5,5.6-4.7c2.7-1.5,5.4-2.9,8.2-4.2c0.1,0,0.2-0.1,0.3-0.1 c1.6-0.5,3.3,0.3,3.9,1.9C71,150.4,72,153.4,71.9,156.2z" class="st1"/><path d="M39.6,132.9c-2.4-2.5-4.9-4.8-7.5-7c-1.8-1.6-2.3-4.3-1.1-6.4c3.3-5.6,7.7-10.6,13-14.5 c1.6-1.2,3.6-2.4,5.6-2.2c2.2,0.2,4,1.9,5.5,3.6c2.6,2.6,4.9,5.4,6.9,8.4c2,3.1,2.9,6.7,2.6,10.4c-0.5,4.3-3.3,8.1-6.7,10.8 c-2.2,1.7-4.7,3.2-7.2,4.3c-2.3,1.1-5.1,0.3-6.6-1.8C42.7,136.5,41.2,134.7,39.6,132.9z" class="st1"/><path d="M104.8,130.8c0.6,2.9,0.3,6-0.9,8.7c-1.7,3.4-5.2,5.5-8.5,7.5l-14,8.3c-0.3,0.2-0.7,0.3-1.1,0.4 c-1.6,0.2-3.1-0.9-3.3-2.5c-0.6-4.4-0.7-8.9,1.2-12.8c1.5-2.7,3.4-5.1,5.7-7.1l8.9-9c0.8-0.8,1.6-1.5,2.6-2 C102,118.7,103.9,126.2,104.8,130.8z" class="st1"/><path d="M79,84.5c3.6-1.3,7.9,3.3,9.8,6c2.2,3,3.1,6.7,2.8,10.4c-0.8,6.3-5.8,11.2-10.6,15.5c-1.4,1.4-3,2.6-4.7,3.5 c-1.7,0.9-3.8,1.1-5.7,0.4c-1.8-0.8-3-2.6-4-4.2L60,105.4c-1.3-2.1-2.8-4.6-2.3-7.1c0.6-3.2,3.8-5.1,6.7-6.5 C69.1,89.4,73.9,86.3,79,84.5z" class="st1"/><path d="M118.6,111.1c1.8,1.3,3.2,3.1,3.9,5.2c0.8,2.8-0.2,5.9-2,8.3c-1,1.3-2.2,2.6-3.4,3.7c-0.3,0.3-0.6,0.5-1,0.6 c-1.6,0.6-3.4-0.2-4-1.8l-8.1-21.9C109.3,106.8,114.3,107.7,118.6,111.1z" class="st1"/><path d="M99.3,72.1c-1.7,1.3-5.2,2.7-3.8,5.2c1.1,2,3.7,3.4,5.1,5.3c0.3,0.4,3.2,6,2.9,6c2.6-0.2,5.2-0.8,7.7-1.7 c2.5-0.9,4.5-2.9,5.5-5.3c0.4-1.1,0.5-2.3,0.4-3.4C117,74.4,115,71.1,113,68c-0.8-1.2-1.8-2.6-3.2-2.7c-1.2-0.2-2.4,0.6-3.4,1.4 L99.3,72.1z" class="st1"/><path d="M137.6,106.4c0.3,3.7,1.2,3.4,4.8,3c5.7-0.7,11.3-1.9,16.8-3.6c1.4-0.4,2.6-1.6,3-3c1.3-4.2,1.6-8.6,0.8-12.8 c-0.1-1.6-0.8-3.1-2-4.3c-1.8-1.4-4.3-0.9-6.4-0.4l-16.6,4c-0.9,0.2-1.7,0.6-2.4,1.1c-2.6,2.2-1.3,4.7-0.3,7 C136.5,100.3,137.3,103.3,137.6,106.4z" class="st1"/><path d="M118.5,30c2.5,1,4.6,3,6.8,4.5c1.7,1.2,3.6,3,3.2,5.1c-0.3,1.5-1.7,2.5-3,3.3l-6.3,4c-3,1.9-6.6,3.9-10,2.9 c-2.9-0.9-4.7-3.7-4.4-6.7c0.3-2.5,2.1-4.5,3.9-6.4C111.2,33.9,113.8,28.2,118.5,30z" class="st1"/><path d="M123.1,53c-1.9,1.6-4.7,3.6-5,6.3c-0.5,4.9,4.8,11.6,8.6,14c3.5,2.2,7.9,2.7,12.1,2.1c4.1-0.8,8.1-2,11.9-3.7 c1.4-0.6,3-1.3,3.2-2.8c0-0.9-0.2-1.8-0.7-2.5l-7.5-14.1c-1.5-2.7-3.2-5.7-6.2-6.6c-2.5-0.7-5.2,0.3-7.5,1.5 C128.8,48.9,125.9,50.8,123.1,53z" class="st1"/><path d="M150.3,43.1c-0.7-0.9-2.8-2.8-2.4-4s2.9-2.1,4-2.6c3.1-1.5,6.5-2.6,9.9-3.3c2.6-0.7,5.4-0.6,8,0.2 c3.1,1.2,5.3,3.9,6.9,6.8c2.2,3.7,3.2,7.9,3,12.1c-0.2,4.3-2.5,8.2-6,10.6c-1.8,1.1-4.2,1.7-6,0.7c-0.8-0.5-1.5-1.2-2.1-2 L150.3,43.1z" class="st1"/><path d="M186.6,73.1c4,3.9,2.2,12.5,0,16.7c-2.7,5.1-7.5,8.8-13.1,10.2l-0.9-15.9c-0.3-1.9-0.1-3.8,0.5-5.6 C174.6,74.4,182.6,69.2,186.6,73.1z" class="st1"/><path d="M192.8,30.9c-4-1.4-8.3-0.4-12.3,1.2c2.6,3.1,4.7,6.5,6.3,10.3C189.7,39.1,191.8,35.2,192.8,30.9z" class="st1"/><path d="M184,22.2c-3.9,0.4-8.2,1.6-12.1,2c-1.3-4.8-4.1-9.1-7.9-12.3C172,12.3,178.6,16.2,184,22.2z" class="st1"/><path d="M198.8,46c-0.9,4.9-2.9,9.5-5.9,13.5c2.1,4.3,3.1,9.1,3,13.9C200.6,65.3,201.1,55.1,198.8,46z" class="st1"/><path d="M10.5,168.2c3.4,1.3,7.3,0.4,9.9-2.2c18.6,11.2,42.9,9.6,62.6,0.5c19.7-9.1,34.9-25.3,49.1-41.6 c14.1-4.8,28.3-9.6,41-17.3s24-18.5,29.6-32.3c4.7-11.6,5.5-25.4,1.3-37.2c-13.3,25.9-36.2,42.5-64.6,48.7 c-3,11.1-9.6,21-17.7,29.2s-17.9,14.6-28.1,20C72.2,147.4,48,154.4,24,157.2c-5,4.3-12.1,5-17.9,1.9C6.4,162.7,7.1,167,10.5,168.2z" class="st2"/><path d="M141.2,98.7c-1.2,12.5-6.9,24.3-14.7,34.1s-17.7,17.8-28.1,24.8c-11.4,7.7-23.8,14.3-37.3,16.8 c-13.5,2.5-29.1,0.7-39.9-7.8c-2.4,1.2-5,1.9-7.7,2.2c-2.7,0.1-5.6-0.9-7.1-3s-1.4-4.9-1.2-7.5c0.2-4.1,2.5-8.4,0.9-12.1 c-7.7-17.9-4.1-39.3,6.5-55.7S39.8,62.6,57.8,55S94.9,43.5,114,39.7" class="st3"/><path d="M130.9,126.7c18.4-9,37.6-13.5,53.3-26.7c14.9-12.4,25.4-31.4,23.4-50.7c-1.3-12.4-7.8-24.1-17.1-32.4 C180.8,8.8,169,3.7,156.5,2.3c-10.1-1.2-20.5,0-29.5,4.7c-18.2,9.5-31.3,34.6-50.7,41.5" class="st3"/></g></svg>