<?xml version="1.0" encoding="utf-8"?>
<!-- Generator: Adobe Illustrator 27.7.0, SVG Export Plug-In . SVG Version: 6.00 Build 0)  -->
<svg version="1.1"
	 id="svg1" xmlns:svg="http://www.w3.org/2000/svg" xmlns:sodipodi="http://sodipodi.sourceforge.net/DTD/sodipodi-0.dtd" xmlns:inkscape="http://www.inkscape.org/namespaces/inkscape"
	 xmlns="http://www.w3.org/2000/svg" xmlns:xlink="http://www.w3.org/1999/xlink" x="0px" y="0px" viewBox="0 0 512 512"
	 style="enable-background:new 0 0 512 512;" xml:space="preserve">
<style type="text/css">
	.st0{fill:url(#path2_00000074407956531107009650000017923017465014641044_);}
	.st1{clip-path:url(#SVGID_00000153704232776986058940000014758650938427582596_);fill:#0E2132;}
	.st2{clip-path:url(#SVGID_00000124861057835497669440000015001963552418527672_);fill:#0E2132;}
	.st3{clip-path:url(#SVGID_00000125600521760343151760000009020277256321215872_);fill:#F5F7FA;}
	.st4{fill:url(#path11_00000098195711803820772760000000024065029479655819_);}
	.st5{fill:url(#path13_00000015319507520203569300000002599085739973213060_);}
	.st6{clip-path:url(#SVGID_00000127755692391659673720000001125885544269235331_);fill:#0E2132;}
</style>
<sodipodi:namedview  bordercolor="#000000" borderopacity="0.25" id="namedview1" inkscape:deskcolor="#d1d1d1" inkscape:pagecheckerboard="0" inkscape:pageopacity="0.0" inkscape:showpageshadow="2" pagecolor="#ffffff">
	<inkscape:page  bleed="0" height="501.64001" id="page1" inkscape:label="1" margin="0" width="496.67999" x="0" y="0">
		</inkscape:page>
</sodipodi:namedview>
<g id="layer-MC0" inkscape:groupmode="layer" inkscape:label="Layer 1">
	
		<linearGradient id="path2_00000112615815201692094460000003366476865763804578_" gradientUnits="userSpaceOnUse" x1="-48.9181" y1="652.9057" x2="-47.8974" y2="652.9057" gradientTransform="matrix(240.5393 171.5056 171.5056 -240.5393 -100080.6094 165415.9062)">
		<stop  offset="0" style="stop-color:#2AA4DD"/>
		<stop  offset="1" style="stop-color:#5BCAEE"/>
	</linearGradient>
	<path id="path2" style="fill:url(#path2_00000112615815201692094460000003366476865763804578_);" d="M285.3,110.1
		c9.6,6.9,19.3,13.8,28.9,20.7l0,0c10.4,7.4,20.5,15.2,30.9,22.6l0,0c10.9,7.8,22,15.7,34.8,20.2l0,0c12.8,4.5,26.7,6.1,40.3,4.4
		l0,0c6-0.7,11.9-2.1,17.5-4.2l0,0c0.1-0.1,0.3-0.1,0.4-0.1l0,0c-10-4.7-20.9-9.1-30.9-13.8l0,0c-27.1-12.7-54.3-25.2-81.1-38.4l0,0
		c-9.3-4.6-18.4-9.4-27.8-13.8l0,0c-1.6-0.7-3.6-1.9-5.4-1.9l0,0C289.7,105.8,285.3,110.1,285.3,110.1"/>
	<g>
		<defs>
			<rect id="SVGID_1_" x="2.5" y="0" width="506.9" height="512"/>
		</defs>
		<clipPath id="SVGID_00000039813973504461539790000005730254208988759466_">
			<use xlink:href="#SVGID_1_"  style="overflow:visible;"/>
		</clipPath>
		<path id="path3" style="clip-path:url(#SVGID_00000039813973504461539790000005730254208988759466_);fill:#0E2132;" d="
			M437.7,173.8c0.1-0.1,0.3-0.1,0.4-0.1c-10-4.7-20.9-9.1-30.9-13.8c-27.1-12.7-54.3-25.2-81.1-38.4c-9.3-4.6-18.4-9.4-27.8-13.8
			c-1.6-0.7-3.6-1.9-5.4-1.9c-3.2,0-7.6,4.3-7.6,4.3c9.6,6.9,19.3,13.8,28.9,20.7c10.4,7.4,20.5,15.2,30.9,22.6
			c10.9,7.8,22,15.7,34.8,20.2c12.8,4.5,26.7,6.1,40.3,4.4C426.2,177.2,432.1,175.8,437.7,173.8 M285.2,87.9
			c7.6-1.6,15.1,0.2,22.1,3.2c10.6,4.5,20.4,10.7,30.9,15.3l73.8,34.9c9.3,4.4,18.6,8.9,27.9,13.3c8,3.8,16,7.6,24.1,11.1
			c6.2,2.7,13.1,4.9,20.1,4.5c3.4-0.2,6.7-1,9.9-2.2c10,27.5,15.4,57.1,15.4,88.1c0,141.4-113.5,256-253.5,256
			c-53.4,0-103-16.7-143.8-45.2c8.4-16.5,20.2-31.6,33.5-43.6c8.1-7.3,17.1-13.6,26.7-18.8c23.8-12.5,49.7-20.4,75.8-26.6
			c29.8-7.2,60-18.8,83.1-40c25.3-23.1,41.6-57.5,40.8-92c-0.4-17.3-5.1-34.4-13.8-49.4c-8.7-14.8-21.8-26.5-35.1-37.1
			c-8.1-6.5-16.3-12.7-24.7-18.7c-8.3-5.9-17.5-10.9-25.2-17.6c-4.9-4.3-9-9.6-7.7-16.5C267.2,97.1,276,89.8,285.2,87.9"/>
	</g>
	<g>
		<defs>
			<rect id="SVGID_00000074408148733247704550000002190222420975122605_" x="2.5" y="0" width="506.9" height="512"/>
		</defs>
		<clipPath id="SVGID_00000111185367051649914410000007836357283952894379_">
			<use xlink:href="#SVGID_00000074408148733247704550000002190222420975122605_"  style="overflow:visible;"/>
		</clipPath>
		<path id="path5" style="clip-path:url(#SVGID_00000111185367051649914410000007836357283952894379_);fill:#0E2132;" d="
			M288.7,56.7c5.8,0,10.5,4.8,10.5,10.7s-4.7,10.7-10.5,10.7s-10.5-4.8-10.5-10.7S282.9,56.7,288.7,56.7"/>
	</g>
	<g>
		<defs>
			<rect id="SVGID_00000011033689360997666680000014511883265525840561_" x="2.5" width="506.9" height="512"/>
		</defs>
		<clipPath id="SVGID_00000159427575122690292180000016222010123502897025_">
			<use xlink:href="#SVGID_00000011033689360997666680000014511883265525840561_"  style="overflow:visible;"/>
		</clipPath>
		<path id="path7" style="clip-path:url(#SVGID_00000159427575122690292180000016222010123502897025_);fill:#F5F7FA;" d="
			M273.2,123.1c7.7,6.7,16.9,11.7,25.2,17.6c8.4,6,16.6,12.2,24.7,18.7c13.3,10.6,26.4,22.3,35.1,37.1c8.8,15,13.4,32.1,13.8,49.4
			c0.9,34.5-15.5,68.9-40.8,92c-23.1,21.1-53.3,32.8-83.1,40c-26.1,6.3-52,14.1-75.8,26.6c-9.6,5.1-18.6,11.4-26.7,18.8
			c-13.3,12.1-25.2,27.1-33.5,43.6c-3.9,7.6-7,15.5-9.2,23.5c-3.5-16.1-2-32.7,4.3-47.8c7.4-17.8,20.5-32.7,34.9-45.3
			c3.7-3.1,7.7-5.9,11.8-8.5c11.8-7.5,24.2-14,36.9-19.7c6.6-3,13.3-5.8,19.9-8.5c8.4-3.5,16.8-6.7,24.7-11.1c1.5-0.8,3-1.7,4.5-2.6
			c22.2-13.2,42.3-30.4,57.6-51.4c3.3-4.5,6.3-9,8.8-13.9c0.3-0.6,0.6-1.2,0.9-1.8c0.7-1.4,1.4-2.8,2-4.2c5.3-11.9,8.4-25,8.5-38
			c0.1-25.8-13.9-45.9-33.2-61.7c-7.9-6.5-16.3-12.2-24.5-18.4c-14.2-10.8-29.3-23.9-34-41.8c-2.9-10.9-1.6-22.9,4.9-32.4
			c1.4-2.1,3.1-4.1,4.8-5.9c1.3-1.3,2.9-2.9,5.9-5.2c-26,5.7-37.7,22.4-39.6,46.7c-15.4-26-8.6-44.3,13.1-62.2
			c-2.6,0.8-5.3,1.5-8,1.9c-0.9,0.1-1.7,0.2-2.6,0.3c-10,1-19.7-2-26.7-9.3c-2.7-2.9-5.7-6.5-7.2-10.2c1.2,0.7,4.1,1.7,4.5,1.8
			c6.3,1.7,9.4,1.7,16,1.6c19.9-0.5,38.9-8.8,58.6-11.2c21.9-2.7,47.9-1.8,64.1,15.4c6.8,7.2,10.6,17.1,11.6,26.8
			c0.1,0.5,0.4,4.3,0.4,4.3s42.1,19.8,61.9,29.7c33.7,15.7,67.6,31.8,101.5,48.4c5,2.5,10.1,4.9,15.1,7.4c-3.3,1.6-6.8,3.2-10.5,4.5
			c-3.2,1.1-6.6,2-9.9,2.2c-7,0.4-13.9-1.8-20.1-4.5c-8.1-3.5-16.1-7.3-24.1-11.1c-9.3-4.4-18.6-8.9-27.9-13.3l-73.8-34.9
			c-10.6-4.6-20.3-10.8-30.9-15.3c-7-3-14.5-4.8-22.1-3.2c-9.1,1.9-18,9.2-19.7,18.8C264.2,113.5,268.3,118.8,273.2,123.1
			 M278.2,67.4c0,5.9,4.7,10.7,10.5,10.7s10.5-4.8,10.5-10.7s-4.7-10.7-10.5-10.7S278.2,61.5,278.2,67.4"/>
	</g>
	
		<linearGradient id="path11_00000029006541466918256520000000280161039147045037_" gradientUnits="userSpaceOnUse" x1="-49.433" y1="652.662" x2="-48.4123" y2="652.662" gradientTransform="matrix(255.6404 -147.2359 -147.2359 -255.6404 108765.7578 159928.125)">
		<stop  offset="0" style="stop-color:#A0DBE6"/>
		<stop  offset="0.2192" style="stop-color:#A0DBE6"/>
		<stop  offset="0.6001" style="stop-color:#F6F9FB"/>
		<stop  offset="1" style="stop-color:#F6F9FB"/>
	</linearGradient>
	<path id="path11" style="fill:url(#path11_00000029006541466918256520000000280161039147045037_);" d="M231.4,199.1
		c-18.2,4.3-35.4,13-51.7,22.1l0,0c-17.9,10-34.9,21.6-50.4,35.1l0,0c-18.8,16.3-35.5,35.5-47,57.6l0,0
		c-5.3,10.1-9.4,20.7-12.1,31.8l0,0c6.3-12.1,13.2-23.9,20.7-35.2l0,0c8.3-12.4,17.8-23.9,28.3-34.5l0,0
		c28-28.3,62.5-50.6,99.7-64.7l0,0c5.6-2.2,11.4-4,17.3-5.3l0,0c16.7-3.7,35.7-2.8,47.2,11.5l0,0c10.4,13,11,31,9.6,46.8l0,0
		c6.9-16,9.1-34.4-2.2-48.8l0,0c-2.4-3.1-5.2-5.9-8.3-8.4l0,0c-9.5-7.5-20.7-10.4-32.3-10.4l0,0
		C243.9,196.8,237.6,197.7,231.4,199.1"/>
	
		<linearGradient id="path13_00000168113295494978011870000018436753653553034909_" gradientUnits="userSpaceOnUse" x1="-49.4463" y1="652.6309" x2="-48.4256" y2="652.6309" gradientTransform="matrix(239.4607 -142.382 -142.382 -239.4607 104808.4453 149625.2188)">
		<stop  offset="0" style="stop-color:#2AA4DD"/>
		<stop  offset="1" style="stop-color:#5BCAEE"/>
	</linearGradient>
	<path id="path13" style="fill:url(#path13_00000168113295494978011870000018436753653553034909_);" d="M236.1,206
		c-5.9,1.3-11.7,3.1-17.3,5.3l0,0c-37.2,14.1-71.6,36.4-99.7,64.7l0,0c-10.5,10.6-20,22.1-28.3,34.5l0,0
		c-7.6,11.3-14.4,23.1-20.7,35.2l0,0c-0.5,1.9-0.9,3.8-1.3,5.8l0,0c-1.3,6.6-2.1,13.4-2.4,20.1l0,0c-0.1,3.5-0.1,6.9,0,10.4l0,0
		c0.1,1.8,0.2,3.7,0.4,5.5l0,0c0.1,1.2,0.8,3.6,0.5,4.7l0,0c1.6-5,2.4-7.5,3.3-9.9l0,0c3.6-9.9,8.3-19.7,13.8-28.7l0,0
		c10.1-16.4,23.4-31.1,39.6-41.5l0,0c17.2-11.2,35.3-19.2,54.8-25.8l0,0c15.6-5.3,31.7-9.6,47.2-15.3l0,0
		c14.1-5.2,27.9-12.2,37.9-23.4l0,0c-4.6,14.4-15.2,26.2-27.6,34.9l0,0c-12.4,8.6-26.5,14.4-40.7,19.5l0,0
		c-25.5,9.3-50.4,18.5-71.1,36.9l0,0c-28.5,25.3-42.3,60.1-36,97.9l0,0c-0.4-2.6,3.5-8.6,4.7-10.9l0,0c1.9-3.8,4-7.4,6.3-11l0,0
		c4.3-6.7,9.3-13,14.7-18.9l0,0c11.2-12,24.1-22.4,38.3-30.7l0,0c15-8.8,31.7-14.4,47.6-21.2l0,0c16.2-7,32.3-14.8,46.7-25.1l0,0
		c14.9-10.7,28-23.9,38.1-39.4l0,0c3-4.6,5.8-9.7,8.1-15.1l0,0c1.5-15.8,0.8-33.8-9.6-46.8l0,0c-7.9-9.9-19.4-13.4-31.3-13.4l0,0
		C246.7,204.1,241.3,204.9,236.1,206"/>
	<g>
		<defs>
			<rect id="SVGID_00000047057663256363625380000014826767358081698972_" x="2.5" y="0" width="506.9" height="512"/>
		</defs>
		<clipPath id="SVGID_00000038387331610264477540000000997147504814246068_">
			<use xlink:href="#SVGID_00000047057663256363625380000014826767358081698972_"  style="overflow:visible;"/>
		</clipPath>
		<path id="path14" style="clip-path:url(#SVGID_00000038387331610264477540000000997147504814246068_);fill:#0E2132;" d="
			M292.9,264.3c6.9-16,9.1-34.4-2.2-48.8c-2.4-3.1-5.2-5.9-8.3-8.4c-14.6-11.5-33.5-12.2-51-8.1c-18.2,4.3-35.4,13-51.7,22.1
			c-17.9,10-34.9,21.6-50.4,35.1c-18.8,16.3-35.5,35.5-47,57.6c-5.3,10.1-9.4,20.7-12.1,31.8c-0.5,1.9-0.9,3.8-1.3,5.8
			c-1.3,6.6-2.1,13.4-2.4,20.1c-0.1,3.5-0.1,6.9,0,10.4c0.1,1.8,0.2,3.7,0.4,5.5c0.1,1.2,0.8,3.6,0.5,4.7c1.6-5,2.4-7.5,3.3-9.9
			c3.6-9.9,8.3-19.7,13.8-28.7c10.1-16.4,23.4-31.1,39.6-41.5c17.2-11.2,35.3-19.2,54.8-25.8c15.6-5.3,31.7-9.6,47.2-15.3
			c14.1-5.2,27.9-12.2,37.9-23.4c-4.6,14.4-15.2,26.2-27.6,34.9c-12.4,8.6-26.5,14.4-40.7,19.5c-25.5,9.3-50.4,18.5-71.1,36.9
			c-28.5,25.3-42.3,60.1-36,97.9c-0.4-2.6,3.5-8.6,4.7-10.9c1.9-3.8,4-7.4,6.3-11c4.3-6.7,9.3-13,14.7-18.9
			c11.2-12,24.1-22.4,38.3-30.7c15-8.8,31.7-14.4,47.6-21.2c16.2-7,32.3-14.8,46.7-25.1c14.9-10.7,28-23.9,38.1-39.4
			C287.8,274.8,290.6,269.7,292.9,264.3 M215.4,56.7c-21.7,17.9-28.5,36.2-13.1,62.2c1.9-24.3,13.6-41,39.6-46.7
			c-3,2.3-4.6,3.8-5.9,5.2c-1.8,1.8-3.4,3.8-4.8,5.9c-6.5,9.4-7.7,21.4-4.9,32.4c4.7,18,19.8,31.1,34,41.8
			c8.1,6.2,16.6,11.9,24.5,18.4c19.3,15.8,33.3,35.9,33.2,61.7c-0.1,13.1-3.2,26.1-8.5,38c-0.6,1.4-1.3,2.8-2,4.2
			c-0.3,0.6-0.6,1.2-0.9,1.8c-2.6,4.9-5.6,9.5-8.8,13.9c-15.3,20.9-35.3,38.1-57.6,51.4c-1.5,0.9-3,1.7-4.5,2.6
			c-7.9,4.4-16.3,7.6-24.7,11.1c-6.7,2.8-13.4,5.6-19.9,8.5c-12.7,5.7-25.1,12.2-36.9,19.7c-4.1,2.6-8.1,5.4-11.8,8.5
			c-14.4,12.5-27.5,27.5-34.9,45.3c-6.3,15.2-7.8,31.8-4.3,47.8c-24.1-17.9-37-40.5-39.2-67.4C25.7,378.2,2.5,319.8,2.5,256
			C2.5,114.6,116,0,256,0c104.9,0,194.8,64.3,233.4,156c-33.9-16.6-67.7-32.7-101.5-48.4C368.1,97.8,326,78,326,78s-0.4-3.8-0.4-4.3
			c-1-9.7-4.8-19.6-11.6-26.8c-16.2-17.1-42.2-18.1-64.1-15.4c-19.7,2.4-38.7,10.7-58.6,11.2c-6.6,0.2-9.6,0.1-16-1.6
			c-0.4-0.1-3.3-1-4.5-1.8c1.5,3.7,4.5,7.3,7.2,10.2c7,7.3,16.7,10.3,26.7,9.3c0.9-0.1,1.7-0.2,2.6-0.3
			C210.1,58.2,212.8,57.5,215.4,56.7"/>
	</g>
</g>
</svg>
