<?xml version="1.0" encoding="UTF-8" standalone="no"?>
<!-- Created with Inkscape (http://www.inkscape.org/) -->

<svg
   width="73.920174mm"
   height="97.632355mm"
   viewBox="0 0 261.92187 345.94141"
   id="svg2"
   version="1.1"
   inkscape:version="1.2.1 (9c6d41e410, 2022-07-14)"
   sodipodi:docname="penpot-logo-black.svg"
   inkscape:export-filename="/home/elhombretecla/Dropbox/proyectos/UXBOX/logo/uxbox-logo-black.png"
   inkscape:export-xdpi="90"
   inkscape:export-ydpi="90"
   xmlns:inkscape="http://www.inkscape.org/namespaces/inkscape"
   xmlns:sodipodi="http://sodipodi.sourceforge.net/DTD/sodipodi-0.dtd"
   xmlns="http://www.w3.org/2000/svg"
   xmlns:svg="http://www.w3.org/2000/svg"
   xmlns:rdf="http://www.w3.org/1999/02/22-rdf-syntax-ns#"
   xmlns:cc="http://creativecommons.org/ns#"
   xmlns:dc="http://purl.org/dc/elements/1.1/">
  <defs
     id="defs4" />
  <sodipodi:namedview
     id="base"
     pagecolor="#ffffff"
     bordercolor="#666666"
     borderopacity="1.0"
     inkscape:pageopacity="0.0"
     inkscape:pageshadow="2"
     inkscape:zoom="0.7"
     inkscape:cx="92.142857"
     inkscape:cy="-67.142857"
     inkscape:document-units="px"
     inkscape:current-layer="layer1"
     showgrid="false"
     inkscape:window-width="3840"
     inkscape:window-height="2066"
     inkscape:window-x="2869"
     inkscape:window-y="-11"
     inkscape:window-maximized="1"
     borderlayer="true"
     fit-margin-top="0"
     fit-margin-left="0"
     fit-margin-right="0"
     fit-margin-bottom="0"
     inkscape:showpageshadow="2"
     inkscape:pagecheckerboard="0"
     inkscape:deskcolor="#d1d1d1" />
  <metadata
     id="metadata7">
    <rdf:RDF>
      <cc:Work
         rdf:about="">
        <dc:format>image/svg+xml</dc:format>
        <dc:type
           rdf:resource="http://purl.org/dc/dcmitype/StillImage" />
      </cc:Work>
    </rdf:RDF>
  </metadata>
  <g
     inkscape:label="Capa 1"
     inkscape:groupmode="layer"
     id="layer1"
     transform="translate(136.64258,-280.3457)">
    <path
       style="color:#000000;font-style:normal;font-variant:normal;font-weight:normal;font-stretch:normal;font-size:medium;line-height:normal;font-family:sans-serif;text-indent:0;text-align:start;text-decoration:none;text-decoration-line:none;text-decoration-style:solid;text-decoration-color:#000000;letter-spacing:normal;word-spacing:normal;text-transform:none;direction:ltr;block-progression:tb;writing-mode:lr-tb;baseline-shift:baseline;text-anchor:start;white-space:normal;clip-rule:nonzero;display:inline;overflow:visible;visibility:visible;opacity:1;isolation:auto;mix-blend-mode:normal;color-interpolation:sRGB;color-interpolation-filters:linearRGB;solid-color:#000000;solid-opacity:1;fill:#000000;fill-opacity:1;fill-rule:nonzero;stroke:none;stroke-width:11.98258877;stroke-linecap:butt;stroke-linejoin:miter;stroke-miterlimit:4;stroke-dasharray:none;stroke-dashoffset:0;stroke-opacity:1;color-rendering:auto;image-rendering:auto;shape-rendering:auto;text-rendering:auto;enable-background:accumulate"
       d="m -68.324219,280.3457 -36.376951,51.23633 0,28.96289 -31.65625,15.05664 -0.28516,-0.13476 0,11.90234 0,177.05078 123.417971,58.30664 7.5429684,3.56055 7.5410156,-3.56055 123.419925,-58.30664 0,-188.95312 -0.23242,0.10937 -31.666021,-15.06055 0,-28.93359 -1.107421,-1.55859 -35.271485,-49.67774 -36.378906,51.23633 0,0.0508 -26.4707032,-37.28125 -26.2656248,36.99414 -0.939453,-1.32226 -35.271485,-49.67774 z m 6.435547,29.76172 14.070313,19.81641 -41.011719,0 13.90625,-19.58399 13.035156,-0.23242 z m 125.326172,0 14.070312,19.81641 -41.011718,0 13.904297,-19.58399 13.037109,-0.23242 z m -62.84960938,14.00781 14.07031238,19.81446 -41.009765,0 13.904296,-19.58399 13.03515662,-0.23047 z m -93.30664062,15.79493 19.451172,0 0,65.49609 -19.451172,-9.18945 0,-56.30664 z m 29.4375,0 19.353516,0 -0.002,79.35546 -19.353515,-9.14257 0.002,-70.21289 z m 95.886719,0 19.453125,0 -0.002,70.14648 -19.449219,9.1875 -0.002,-79.33398 z m 29.4375,0 19.353515,0 0,56.28515 -19.353515,9.14258 0,-65.42773 z m -92.285157,14.00586 19.451172,0 0,81.0039 -19.451172,-9.18945 0,-71.81445 z m 29.4375005,0 19.3535155,0 -0.002,71.9707 -19.35351562,9.14453 0.001953,-81.11523 z m 94.1835935,21.52539 17.125004,7.00195 -17.125004,8.08984 0,-15.09179 z m -198.080076,0.0254 0,15.08984 -17.12305,-8.08984 17.12305,-7 z m -16.85938,23.80859 108.335941,51.17773 0,155.58985 -108.335941,-51.17774 0,-155.58984 z m 231.75586,0 0,155.58984 -108.335935,51.17774 0,-155.58985 108.335935,-51.17773 z"
       id="rect2990"
       inkscape:connector-curvature="0" />
  </g>
</svg>
