<?xml version="1.0" encoding="utf-8"?>
<!-- Generator: Adobe Illustrator 27.7.0, SVG Export Plug-In . SVG Version: 6.00 Build 0)  -->
<svg version="1.1"
	 id="svg2" xmlns:svg="http://www.w3.org/2000/svg" xmlns:sodipodi="http://sodipodi.sourceforge.net/DTD/sodipodi-0.dtd" xmlns:inkscape="http://www.inkscape.org/namespaces/inkscape" xmlns:rdf="http://www.w3.org/1999/02/22-rdf-syntax-ns#" xmlns:cc="http://creativecommons.org/ns#" xmlns:dc="http://purl.org/dc/elements/1.1/" inkscape:output_extension="org.inkscape.output.svg.inkscape" sodipodi:version="0.32"
	 xmlns="http://www.w3.org/2000/svg" xmlns:xlink="http://www.w3.org/1999/xlink" x="0px" y="0px" viewBox="0 0 512 512"
	 style="enable-background:new 0 0 512 512;" xml:space="preserve">
<style type="text/css">
	.st0{fill-rule:evenodd;clip-rule:evenodd;fill:url(#path3168_00000149383951680672403090000008971530052931154869_);}
	.st1{fill:#FFFFFF;stroke:#FF0000;stroke-width:1.7777;stroke-linejoin:round;stroke-miterlimit:4.2667;}
	.st2{fill-rule:evenodd;clip-rule:evenodd;fill:#FF0000;}
	.st3{fill-opacity:0;}
	.st4{fill:url(#path3355_00000118356489556280360800000000800017374708875697_);}
</style>
<sodipodi:namedview  bordercolor="#666666" borderopacity="1.0" gridtolerance="10" guidetolerance="10" id="base" inkscape:current-layer="layer1" inkscape:cx="53.082942" inkscape:cy="10.912187" inkscape:document-units="px" inkscape:guide-bbox="true" inkscape:object-nodes="true" inkscape:object-paths="true" inkscape:pageopacity="0.0" inkscape:pageshadow="2" inkscape:snap-global="true" inkscape:window-height="1047" inkscape:window-maximized="1" inkscape:window-width="1825" inkscape:window-x="95" inkscape:window-y="33" inkscape:zoom="2.8284271" objecttolerance="10" pagecolor="#ffffff" showgrid="true" showguides="true">
	
		<inkscape:grid  empspacing="4" enabled="true" id="grid3170" originx="0" originy="0" spacingx="10" spacingy="10" type="xygrid" visible="false">
		</inkscape:grid>
</sodipodi:namedview>
<g id="layer1" transform="translate(-278,-494.36)" inkscape:groupmode="layer" inkscape:label="Layer 1">
	<g id="g4525">
		
			<linearGradient id="path3168_00000178207029376651229830000011313847122461221031_" gradientUnits="userSpaceOnUse" x1="1355.8292" y1="-807.0066" x2="1992.4874" y2="-807.0066" gradientTransform="matrix(0.32 0 0 -0.32 66.7647 609.1172)">
			<stop  offset="0" style="stop-color:#FF0000"/>
			<stop  offset="0.8889" style="stop-color:#F30000"/>
			<stop  offset="1" style="stop-color:#E70000"/>
		</linearGradient>
		
			<path id="path3168" inkscape:connector-curvature="0" inkscape:transform-center-x="-8.0246878" inkscape:transform-center-y="13.979829" sodipodi:nodetypes="cssccssc" style="fill-rule:evenodd;clip-rule:evenodd;fill:url(#path3168_00000178207029376651229830000011313847122461221031_);" d="
			M534,748.8c0,0-35.2,21.8-31.6,60.9c3.6,39,68.4,101.1,90.4,129.9c13,16.9,19,34.5,21.8,46.2c33.1-11.3,63-29.5,88.1-52.8
			c-10.6-10.2-28.6-26.7-42.7-36c-20.9-13.8-86-30.1-122.3-64.3C502.5,799.4,534,748.8,534,748.8z"/>
		<circle id="path3223" class="st1" cx="534" cy="750.4" r="248.9"/>
		
			<path id="use3230" inkscape:connector-curvature="0" inkscape:transform-center-x="-8.0246878" inkscape:transform-center-y="13.979828" sodipodi:nodetypes="cssccssc" class="st2" d="
			M534,748.1c0,0-35.2,22.6-31.6,61.7c3.6,39,68.4,101.1,90.4,129.9c13,16.9,19,34.5,21.8,46.2c33.1-11.3,63-29.5,88.1-52.8
			c-10.6-10.2-28.6-26.7-42.7-36c-20.9-13.8-86-30.1-122.3-64.3C502.5,799.4,534,748.1,534,748.1z"/>
		<path id="path3291" inkscape:connector-curvature="0" class="st3" d="M516.5,1005.3c-2.8-0.3-11.6-1.4-19.4-2.5
			c-101.4-14.4-185.8-90.7-210.6-190.3c-10.3-41.3-9.9-89.2,1.1-128.6c12.2-44,34.7-82.6,66.3-113.7c15.4-15.2,23.1-21.5,39.5-32.5
			c67.2-44.9,153-54.8,229.2-26.5c61.1,22.7,111.2,68,140.6,127.1c30.2,60.6,34.2,134.8,10.8,198.8c-13.2,36-32.6,66.5-59.6,93.5
			c-38.6,38.6-86.2,63-140.3,71.8C559.7,1004.7,527.1,1006.4,516.5,1005.3L516.5,1005.3z M569.5,989.8c12.1-1.8,28.2-5.4,38-8.4
			c5.3-1.7,5.1-3-2.9-19.8c-6.6-13.9-12.4-21.8-38.6-52c-24.7-28.5-35.4-41.8-44.9-55.9c-15.4-22.8-20-35.6-19.2-53
			c0.7-14.7,6.2-26.8,17.8-39.2c4.4-4.8,7.7-8.6,7.3-8.6c-2.6,0-19.1,8.6-25.1,13.1c-9.8,7.4-13.8,12.1-18.7,21.8
			c-4,8-4.2,9.1-4.2,23.3c0,23.4,6.2,45.6,25.6,92.6c15.1,36.5,16.7,42.8,18.5,72.9c0.5,8.3,1.5,15.3,2.3,15.9
			C527.3,993.6,553.3,992.2,569.5,989.8L569.5,989.8z M430.9,956.5c7.6-18,8.5-23.6,13.3-86.1c3.1-40.4,5.9-58.6,11.8-76.9
			c4.8-14.8,7.5-19.7,16.4-28.5c12-11.9,25.8-17.3,44.7-17.5l9.8-0.1l-6.7-3.2c-16.4-7.8-39-8.9-52.7-2.6
			c-14.6,6.7-31.2,27-45.6,55.8c-3.6,7.1-11.7,25.4-18.1,40.8c-6.4,15.3-13,30.1-14.6,33c-4,6.9-17.8,24.8-26.6,34.2l-7.1,7.7
			l2.7,3.7c3.4,4.6,18.6,18.4,29.7,26.9c11.2,8.6,35,22.7,37.3,22.3C426.2,965.5,428.8,961.4,430.9,956.5L430.9,956.5z M710.1,916.5
			c5.5-5.9,13.9-16,18.7-22.5c9.7-13.2,22.7-35.3,22-37.3c-0.7-2-20-9.4-30.1-11.6c-4.9-1.1-27.5-3.4-50.3-5.2
			c-50.7-4-68.6-6.4-88.6-11.9c-31.6-8.7-48.9-30.6-49.2-62.4l-0.1-9.8l-3.2,6.7c-7.8,16.4-8.9,38.9-2.7,52.5
			c9.5,20.8,40.9,41.5,98.5,64.9c31.8,12.9,43.4,20.1,64.7,39.9c4.2,4,8.3,7.2,9,7.3C699.5,927.2,704.6,922.4,710.1,916.5
			L710.1,916.5z M320.1,819.9c15-7,20.5-11,53.8-39.6c43.9-37.8,62.9-51.4,82.7-59.8c7.2-3,9.9-3.5,22.4-3.5c13.7,0,14.6,0.2,24,4.7
			c6.3,3,12.9,7.6,18.4,12.8c4.8,4.4,8.6,7.7,8.6,7.2c0-0.5-2-5.1-4.3-10.2c-8.1-17.4-19.5-29.3-33.2-34.8
			c-5.9-2.4-9.5-2.9-21.3-2.8c-23.1,0.2-41.9,5.3-89.9,24.7c-16.7,6.8-33,13-36.2,14c-8.3,2.4-21.7,4.3-38.5,5.3l-14.5,0.9V755
			c0,20.7,4.1,47.1,10.5,67.2C304.3,827.2,304.5,827.2,320.1,819.9L320.1,819.9z M625.8,800c17.1-4.1,34-10,63.1-22
			c35.6-14.7,42.1-16.3,73.7-18.4l13.3-0.9l0-15c-0.1-19.8-5.7-53.9-11.6-69.3l-1.3-3.3l-6.5,2.6c-19.2,7.6-27.3,13.2-61.7,43
			c-28.5,24.7-41.9,35.4-56,44.9c-22.8,15.4-35.6,20-52.9,19.1c-14.8-0.7-26.8-6.2-39.4-18c-9.7-9.1-10.1-8.3-2.9,6
			c8.9,17.7,23,30.4,38.1,34.2C589.5,805.1,610.9,803.6,625.8,800L625.8,800z M600.3,756.2c20.6-9.5,39.2-37.3,62.5-93.2
			c16-38.5,19.4-44.1,39.8-67.3l9-10.2l-10.3-9.9c-17.6-17-54.4-42.2-59.9-41.1c-2.4,0.5-8.7,16.4-11.1,28.2
			c-1.1,5.1-2.6,16.4-3.3,25c-0.7,8.6-2.4,29.3-3.8,46c-4.7,57.5-11.3,82-26,97.6c-11.8,12.5-22.7,17.2-43.2,18.6l-13,0.9l5.2,2.3
			C564.3,761.2,586.6,762.5,600.3,756.2L600.3,756.2z M554,739.4c14.9-7.5,25.3-17.5,31.5-30.7c3-6.4,3.4-8.6,3.4-22
			c0-23.4-6.1-45.6-25.6-92.6c-14.9-36.1-16.5-42.5-18.5-72.6l-0.8-13.3h-13.4c-16.9,0-38.4,2.9-57.3,7.8
			c-8.1,2.1-14.9,3.8-15.2,3.8c-2.6,0,6.5,21,14,32.1c2.5,3.7,16.1,20.2,30.3,36.7c37.7,43.9,51.4,62.9,59.8,82.7
			c3,7.2,3.5,9.9,3.5,22.4c0,13.7-0.2,14.6-4.7,24c-3,6.3-7.6,12.9-13,18.6C539,746.2,539.7,746.5,554,739.4L554,739.4z
			 M541.2,728.7c3-8.7,3.6-12.5,3.7-24.6c0.1-12.9-0.3-14.9-3.4-21.7c-9.8-20.8-39.8-40.7-96.1-63.7c-34.3-14-39.5-17-61.3-35.9
			l-13.5-11.7l-10.5,10.9c-5.8,6-14.2,15.8-18.8,21.8c-9.1,12-23.3,34.6-23.3,37.1c0,1.9,17.2,8.7,28.8,11.5
			c4.4,1.1,26.7,3.4,49.5,5.2c45.6,3.6,64.3,5.8,80.8,9.7c23.9,5.7,36.4,12.8,46.9,26.5c6.8,9,10.1,19.5,11,34.6
			c0.4,7,1.2,12.2,1.7,11.6C537.2,739.6,539.3,734.4,541.2,728.7z"/>
		<path id="path3293" inkscape:connector-curvature="0" class="st3" d="M516.5,1005.3c-2.8-0.3-11.6-1.4-19.4-2.5
			c-101.4-14.4-185.8-90.7-210.6-190.3c-10.3-41.3-9.9-89.2,1.1-128.6c12.2-44,34.7-82.6,66.3-113.7c15.4-15.2,23.1-21.5,39.5-32.5
			c67.2-44.9,153-54.8,229.2-26.5c61.1,22.7,111.2,68,140.6,127.1c30.2,60.6,34.2,134.8,10.8,198.8c-13.2,36-32.6,66.5-59.6,93.5
			c-38.6,38.6-86.2,63-140.3,71.8C559.7,1004.7,527.1,1006.4,516.5,1005.3L516.5,1005.3z M569.5,989.8c12.1-1.8,28.2-5.4,38-8.4
			c5.3-1.7,5.1-3-2.9-19.8c-6.6-13.9-12.4-21.8-38.6-52c-24.7-28.5-35.4-41.8-44.9-55.9c-15.4-22.8-20-35.6-19.2-53
			c0.7-14.7,6.2-26.8,17.8-39.2c4.4-4.8,7.7-8.6,7.3-8.6c-2.6,0-19.1,8.6-25.1,13.1c-9.8,7.4-13.8,12.1-18.7,21.8
			c-4,8-4.2,9.1-4.2,23.3c0,23.4,6.2,45.6,25.6,92.6c15.1,36.5,16.7,42.8,18.5,72.9c0.5,8.3,1.5,15.3,2.3,15.9
			C527.3,993.6,553.3,992.2,569.5,989.8L569.5,989.8z M430.9,956.5c7.6-18,8.5-23.6,13.3-86.1c3.1-40.4,5.9-58.6,11.8-76.9
			c4.8-14.8,7.5-19.7,16.4-28.5c12-11.9,25.8-17.3,44.7-17.5l9.8-0.1l-6.7-3.2c-16.4-7.8-39-8.9-52.7-2.6
			c-14.6,6.7-31.2,27-45.6,55.8c-3.6,7.1-11.7,25.4-18.1,40.8c-6.4,15.3-13,30.1-14.6,33c-4,6.9-17.8,24.8-26.6,34.2l-7.1,7.7
			l2.7,3.7c3.4,4.6,18.6,18.4,29.7,26.9c11.2,8.6,35,22.7,37.3,22.3C426.2,965.5,428.8,961.4,430.9,956.5L430.9,956.5z M710.1,916.5
			c5.5-5.9,13.9-16,18.7-22.5c9.7-13.2,22.7-35.3,22-37.3c-0.7-2-20-9.4-30.1-11.6c-4.9-1.1-27.5-3.4-50.3-5.2
			c-50.7-4-68.6-6.4-88.6-11.9c-31.6-8.7-48.9-30.6-49.2-62.4l-0.1-9.8l-3.2,6.7c-7.8,16.4-8.9,38.9-2.7,52.5
			c9.5,20.8,40.9,41.5,98.5,64.9c31.8,12.9,43.4,20.1,64.7,39.9c4.2,4,8.3,7.2,9,7.3C699.5,927.2,704.6,922.4,710.1,916.5
			L710.1,916.5z M320.1,819.9c15-7,20.5-11,53.8-39.6c43.9-37.8,62.9-51.4,82.7-59.8c7.2-3,9.9-3.5,22.4-3.5c13.7,0,14.6,0.2,24,4.7
			c6.3,3,12.9,7.6,18.4,12.8c4.8,4.4,8.6,7.7,8.6,7.2c0-0.5-2-5.1-4.3-10.2c-8.1-17.4-19.5-29.3-33.2-34.8
			c-5.9-2.4-9.5-2.9-21.3-2.8c-23.1,0.2-41.9,5.3-89.9,24.7c-16.7,6.8-33,13-36.2,14c-8.3,2.4-21.7,4.3-38.5,5.3l-14.5,0.9V755
			c0,20.7,4.1,47.1,10.5,67.2C304.3,827.2,304.5,827.2,320.1,819.9L320.1,819.9z M625.8,800c17.1-4.1,34-10,63.1-22
			c35.6-14.7,42.1-16.3,73.7-18.4l13.3-0.9l0-15c-0.1-19.8-5.7-53.9-11.6-69.3l-1.3-3.3l-6.5,2.6c-19.2,7.6-27.3,13.2-61.7,43
			c-28.5,24.7-41.9,35.4-56,44.9c-22.8,15.4-35.6,20-52.9,19.1c-14.8-0.7-26.8-6.2-39.4-18c-9.7-9.1-10.1-8.3-2.9,6
			c8.9,17.7,23,30.4,38.1,34.2C589.5,805.1,610.9,803.6,625.8,800L625.8,800z M600.3,756.2c20.6-9.5,39.2-37.3,62.5-93.2
			c16-38.5,19.4-44.1,39.8-67.3l9-10.2l-10.3-9.9c-17.6-17-54.4-42.2-59.9-41.1c-2.4,0.5-8.7,16.4-11.1,28.2
			c-1.1,5.1-2.6,16.4-3.3,25c-0.7,8.6-2.4,29.3-3.8,46c-4.7,57.5-11.3,82-26,97.6c-11.8,12.5-22.7,17.2-43.2,18.6l-13,0.9l5.2,2.3
			C564.3,761.2,586.6,762.5,600.3,756.2L600.3,756.2z M554,739.4c14.9-7.5,25.3-17.5,31.5-30.7c3-6.4,3.4-8.6,3.4-22
			c0-23.4-6.1-45.6-25.6-92.6c-14.9-36.1-16.5-42.5-18.5-72.6l-0.8-13.3h-13.4c-16.9,0-38.4,2.9-57.3,7.8
			c-8.1,2.1-14.9,3.8-15.2,3.8c-2.6,0,6.5,21,14,32.1c2.5,3.7,16.1,20.2,30.3,36.7c37.7,43.9,51.4,62.9,59.8,82.7
			c3,7.2,3.5,9.9,3.5,22.4c0,13.7-0.2,14.6-4.7,24c-3,6.3-7.6,12.9-13,18.6C539,746.2,539.7,746.5,554,739.4L554,739.4z
			 M541.2,728.7c3-8.7,3.6-12.5,3.7-24.6c0.1-12.9-0.3-14.9-3.4-21.7c-9.8-20.8-39.8-40.7-96.1-63.7c-34.3-14-39.5-17-61.3-35.9
			l-13.5-11.7l-10.5,10.9c-5.8,6-14.2,15.8-18.8,21.8c-9.1,12-23.3,34.6-23.3,37.1c0,1.9,17.2,8.7,28.8,11.5
			c4.4,1.1,26.7,3.4,49.5,5.2c45.6,3.6,64.3,5.8,80.8,9.7c23.9,5.7,36.4,12.8,46.9,26.5c6.8,9,10.1,19.5,11,34.6
			c0.4,7,1.2,12.2,1.7,11.6C537.2,739.6,539.3,734.4,541.2,728.7z"/>
		<path id="path3295" inkscape:connector-curvature="0" class="st3" d="M516.5,1005.3c-2.8-0.3-11.6-1.4-19.4-2.5
			c-101.4-14.4-185.8-90.7-210.6-190.3c-10.3-41.3-9.9-89.2,1.1-128.6c12.2-44,34.7-82.6,66.3-113.7c15.4-15.2,23.1-21.5,39.5-32.5
			c67.2-44.9,153-54.8,229.2-26.5c61.1,22.7,111.2,68,140.6,127.1c30.2,60.6,34.2,134.8,10.8,198.8c-13.2,36-32.6,66.5-59.6,93.5
			c-38.6,38.6-86.2,63-140.3,71.8C559.7,1004.7,527.1,1006.4,516.5,1005.3L516.5,1005.3z M569.5,989.8c12.1-1.8,28.2-5.4,38-8.4
			c5.3-1.7,5.1-3-2.9-19.8c-6.6-13.9-12.4-21.8-38.6-52c-24.7-28.5-35.4-41.8-44.9-55.9c-15.4-22.8-20-35.6-19.2-53
			c0.7-14.7,6.2-26.8,17.8-39.2c4.4-4.8,7.7-8.6,7.3-8.6c-2.6,0-19.1,8.6-25.1,13.1c-9.8,7.4-13.8,12.1-18.7,21.8
			c-4,8-4.2,9.1-4.2,23.3c0,23.4,6.2,45.6,25.6,92.6c15.1,36.5,16.7,42.8,18.5,72.9c0.5,8.3,1.5,15.3,2.3,15.9
			C527.3,993.6,553.3,992.2,569.5,989.8L569.5,989.8z M430.9,956.5c7.6-18,8.5-23.6,13.3-86.1c3.1-40.4,5.9-58.6,11.8-76.9
			c4.8-14.8,7.5-19.7,16.4-28.5c12-11.9,25.8-17.3,44.7-17.5l9.8-0.1l-6.7-3.2c-16.4-7.8-39-8.9-52.7-2.6
			c-14.6,6.7-31.2,27-45.6,55.8c-3.6,7.1-11.7,25.4-18.1,40.8c-6.4,15.3-13,30.1-14.6,33c-4,6.9-17.8,24.8-26.6,34.2l-7.1,7.7
			l2.7,3.7c3.4,4.6,18.6,18.4,29.7,26.9c11.2,8.6,35,22.7,37.3,22.3C426.2,965.5,428.8,961.4,430.9,956.5L430.9,956.5z M710.1,916.5
			c5.5-5.9,13.9-16,18.7-22.5c9.7-13.2,22.7-35.3,22-37.3c-0.7-2-20-9.4-30.1-11.6c-4.9-1.1-27.5-3.4-50.3-5.2
			c-50.7-4-68.6-6.4-88.6-11.9c-31.6-8.7-48.9-30.6-49.2-62.4l-0.1-9.8l-3.2,6.7c-7.8,16.4-8.9,38.9-2.7,52.5
			c9.5,20.8,40.9,41.5,98.5,64.9c31.8,12.9,43.4,20.1,64.7,39.9c4.2,4,8.3,7.2,9,7.3C699.5,927.2,704.6,922.4,710.1,916.5
			L710.1,916.5z M320.1,819.9c15-7,20.5-11,53.8-39.6c43.9-37.8,62.9-51.4,82.7-59.8c7.2-3,9.9-3.5,22.4-3.5c13.7,0,14.6,0.2,24,4.7
			c6.3,3,12.9,7.6,18.4,12.8c4.8,4.4,8.6,7.7,8.6,7.2c0-0.5-2-5.1-4.3-10.2c-8.1-17.4-19.5-29.3-33.2-34.8
			c-5.9-2.4-9.5-2.9-21.3-2.8c-23.1,0.2-41.9,5.3-89.9,24.7c-16.7,6.8-33,13-36.2,14c-8.3,2.4-21.7,4.3-38.5,5.3l-14.5,0.9V755
			c0,20.7,4.1,47.1,10.5,67.2C304.3,827.2,304.5,827.2,320.1,819.9L320.1,819.9z M625.8,800c17.1-4.1,34-10,63.1-22
			c35.6-14.7,42.1-16.3,73.7-18.4l13.3-0.9l0-15c-0.1-19.8-5.7-53.9-11.6-69.3l-1.3-3.3l-6.5,2.6c-19.2,7.6-27.3,13.2-61.7,43
			c-28.5,24.7-41.9,35.4-56,44.9c-22.8,15.4-35.6,20-52.9,19.1c-14.8-0.7-26.8-6.2-39.4-18c-9.7-9.1-10.1-8.3-2.9,6
			c8.9,17.7,23,30.4,38.1,34.2C589.5,805.1,610.9,803.6,625.8,800L625.8,800z M600.3,756.2c20.6-9.5,39.2-37.3,62.5-93.2
			c16-38.5,19.4-44.1,39.8-67.3l9-10.2l-10.3-9.9c-17.6-17-54.4-42.2-59.9-41.1c-2.4,0.5-8.7,16.4-11.1,28.2
			c-1.1,5.1-2.6,16.4-3.3,25c-0.7,8.6-2.4,29.3-3.8,46c-4.7,57.5-11.3,82-26,97.6c-11.8,12.5-22.7,17.2-43.2,18.6l-13,0.9l5.2,2.3
			C564.3,761.2,586.6,762.5,600.3,756.2L600.3,756.2z M554,739.4c14.9-7.5,25.3-17.5,31.5-30.7c3-6.4,3.4-8.6,3.4-22
			c0-23.4-6.1-45.6-25.6-92.6c-14.9-36.1-16.5-42.5-18.5-72.6l-0.8-13.3h-13.4c-16.9,0-38.4,2.9-57.3,7.8
			c-8.1,2.1-14.9,3.8-15.2,3.8c-2.6,0,6.5,21,14,32.1c2.5,3.7,16.1,20.2,30.3,36.7c37.7,43.9,51.4,62.9,59.8,82.7
			c3,7.2,3.5,9.9,3.5,22.4c0,13.7-0.2,14.6-4.7,24c-3,6.3-7.6,12.9-13,18.6C539,746.2,539.7,746.5,554,739.4L554,739.4z
			 M541.2,728.7c3-8.7,3.6-12.5,3.7-24.6c0.1-12.9-0.3-14.9-3.4-21.7c-9.8-20.8-39.8-40.7-96.1-63.7c-34.3-14-39.5-17-61.3-35.9
			l-13.5-11.7l-10.5,10.9c-5.8,6-14.2,15.8-18.8,21.8c-9.1,12-23.3,34.6-23.3,37.1c0,1.9,17.2,8.7,28.8,11.5
			c4.4,1.1,26.7,3.4,49.5,5.2c45.6,3.6,64.3,5.8,80.8,9.7c23.9,5.7,36.4,12.8,46.9,26.5c6.8,9,10.1,19.5,11,34.6
			c0.4,7,1.2,12.2,1.7,11.6C537.2,739.6,539.3,734.4,541.2,728.7z"/>
		<path id="path3297" inkscape:connector-curvature="0" class="st3" d="M516.5,1005.3c-2.8-0.3-11.6-1.4-19.4-2.5
			c-101.4-14.4-185.8-90.7-210.6-190.3c-10.3-41.3-9.9-89.2,1.1-128.6c12.2-44,34.7-82.6,66.3-113.7c15.4-15.2,23.1-21.5,39.5-32.5
			c67.2-44.9,153-54.8,229.2-26.5c61.1,22.7,111.2,68,140.6,127.1c30.2,60.6,34.2,134.8,10.8,198.8c-13.2,36-32.6,66.5-59.6,93.5
			c-38.6,38.6-86.2,63-140.3,71.8C559.7,1004.7,527.1,1006.4,516.5,1005.3L516.5,1005.3z M569.5,989.8c12.1-1.8,28.2-5.4,38-8.4
			c5.3-1.7,5.1-3-2.9-19.8c-6.6-13.9-12.4-21.8-38.6-52c-24.7-28.5-35.4-41.8-44.9-55.9c-15.4-22.8-20-35.6-19.2-53
			c0.7-14.7,6.2-26.8,17.8-39.2c4.4-4.8,7.7-8.6,7.3-8.6c-2.6,0-19.1,8.6-25.1,13.1c-9.8,7.4-13.8,12.1-18.7,21.8
			c-4,8-4.2,9.1-4.2,23.3c0,23.4,6.2,45.6,25.6,92.6c15.1,36.5,16.7,42.8,18.5,72.9c0.5,8.3,1.5,15.3,2.3,15.9
			C527.3,993.6,553.3,992.2,569.5,989.8L569.5,989.8z M430.9,956.5c7.6-18,8.5-23.6,13.3-86.1c3.1-40.4,5.9-58.6,11.8-76.9
			c4.8-14.8,7.5-19.7,16.4-28.5c12-11.9,25.8-17.3,44.7-17.5l9.8-0.1l-6.7-3.2c-16.4-7.8-39-8.9-52.7-2.6
			c-14.6,6.7-31.2,27-45.6,55.8c-3.6,7.1-11.7,25.4-18.1,40.8c-6.4,15.3-13,30.1-14.6,33c-4,6.9-17.8,24.8-26.6,34.2l-7.1,7.7
			l2.7,3.7c3.4,4.6,18.6,18.4,29.7,26.9c11.2,8.6,35,22.7,37.3,22.3C426.2,965.5,428.8,961.4,430.9,956.5L430.9,956.5z M710.1,916.5
			c5.5-5.9,13.9-16,18.7-22.5c9.7-13.2,22.7-35.3,22-37.3c-0.7-2-20-9.4-30.1-11.6c-4.9-1.1-27.5-3.4-50.3-5.2
			c-50.7-4-68.6-6.4-88.6-11.9c-31.6-8.7-48.9-30.6-49.2-62.4l-0.1-9.8l-3.2,6.7c-7.8,16.4-8.9,38.9-2.7,52.5
			c9.5,20.8,40.9,41.5,98.5,64.9c31.8,12.9,43.4,20.1,64.7,39.9c4.2,4,8.3,7.2,9,7.3C699.5,927.2,704.6,922.4,710.1,916.5
			L710.1,916.5z M320.1,819.9c15-7,20.5-11,53.8-39.6c43.9-37.8,62.9-51.4,82.7-59.8c7.2-3,9.9-3.5,22.4-3.5c13.7,0,14.6,0.2,24,4.7
			c6.3,3,12.9,7.6,18.4,12.8c4.8,4.4,8.6,7.7,8.6,7.2c0-0.5-2-5.1-4.3-10.2c-8.1-17.4-19.5-29.3-33.2-34.8
			c-5.9-2.4-9.5-2.9-21.3-2.8c-23.1,0.2-41.9,5.3-89.9,24.7c-16.7,6.8-33,13-36.2,14c-8.3,2.4-21.7,4.3-38.5,5.3l-14.5,0.9V755
			c0,20.7,4.1,47.1,10.5,67.2C304.3,827.2,304.5,827.2,320.1,819.9L320.1,819.9z M625.8,800c17.1-4.1,34-10,63.1-22
			c35.6-14.7,42.1-16.3,73.7-18.4l13.3-0.9l0-15c-0.1-19.8-5.7-53.9-11.6-69.3l-1.3-3.3l-6.5,2.6c-19.2,7.6-27.3,13.2-61.7,43
			c-28.5,24.7-41.9,35.4-56,44.9c-22.8,15.4-35.6,20-52.9,19.1c-14.8-0.7-26.8-6.2-39.4-18c-9.7-9.1-10.1-8.3-2.9,6
			c8.9,17.7,23,30.4,38.1,34.2C589.5,805.1,610.9,803.6,625.8,800L625.8,800z M600.3,756.2c20.6-9.5,39.2-37.3,62.5-93.2
			c16-38.5,19.4-44.1,39.8-67.3l9-10.2l-10.3-9.9c-17.6-17-54.4-42.2-59.9-41.1c-2.4,0.5-8.7,16.4-11.1,28.2
			c-1.1,5.1-2.6,16.4-3.3,25c-0.7,8.6-2.4,29.3-3.8,46c-4.7,57.5-11.3,82-26,97.6c-11.8,12.5-22.7,17.2-43.2,18.6l-13,0.9l5.2,2.3
			C564.3,761.2,586.6,762.5,600.3,756.2L600.3,756.2z M554,739.4c14.9-7.5,25.3-17.5,31.5-30.7c3-6.4,3.4-8.6,3.4-22
			c0-23.4-6.1-45.6-25.6-92.6c-14.9-36.1-16.5-42.5-18.5-72.6l-0.8-13.3h-13.4c-16.9,0-38.4,2.9-57.3,7.8
			c-8.1,2.1-14.9,3.8-15.2,3.8c-2.6,0,6.5,21,14,32.1c2.5,3.7,16.1,20.2,30.3,36.7c37.7,43.9,51.4,62.9,59.8,82.7
			c3,7.2,3.5,9.9,3.5,22.4c0,13.7-0.2,14.6-4.7,24c-3,6.3-7.6,12.9-13,18.6C539,746.2,539.7,746.5,554,739.4L554,739.4z
			 M541.2,728.7c3-8.7,3.6-12.5,3.7-24.6c0.1-12.9-0.3-14.9-3.4-21.7c-9.8-20.8-39.8-40.7-96.1-63.7c-34.3-14-39.5-17-61.3-35.9
			l-13.5-11.7l-10.5,10.9c-5.8,6-14.2,15.8-18.8,21.8c-9.1,12-23.3,34.6-23.3,37.1c0,1.9,17.2,8.7,28.8,11.5
			c4.4,1.1,26.7,3.4,49.5,5.2c45.6,3.6,64.3,5.8,80.8,9.7c23.9,5.7,36.4,12.8,46.9,26.5c6.8,9,10.1,19.5,11,34.6
			c0.4,7,1.2,12.2,1.7,11.6C537.2,739.6,539.3,734.4,541.2,728.7z"/>
		
			<g id="use3341" transform="matrix(0.70711,0.70711,-0.70711,0.70711,460.80201,-64.286439)" inkscape:transform-center-x="-18.731992" inkscape:transform-center-y="24.685164">
			
				<path id="use3230_00000163042740422760748250000001643100886188746925_" inkscape:connector-curvature="0" inkscape:transform-center-x="-8.0246878" inkscape:transform-center-y="13.979828" sodipodi:nodetypes="cssccssc" class="st2" d="
				M534,748.1c0,0-40.9-8.9-65.9,21.3c-25,30.2-23.2,119.9-27.9,155.8c-2.8,21.2-11,37.8-17.3,48.1c31.4,15.4,65.4,23.6,99.6,25
				c-0.3-14.7-1.3-39.1-4.7-55.6c-5.1-24.6-39.6-82.1-41-132C475.4,762.1,534,748.1,534,748.1z"/>
		</g>
		
			<g id="use3343" transform="rotate(90,307.99928,524.09327)" inkscape:transform-center-x="2.5437072" inkscape:transform-center-y="34.641443">
			
				<path id="use3230_00000109713038484084319690000004924300452325199510_" inkscape:connector-curvature="0" inkscape:transform-center-x="-8.0246878" inkscape:transform-center-y="13.979828" sodipodi:nodetypes="cssccssc" class="st2" d="
				M534,748.1c0,0-22.6-35.2-61.7-31.6c-39,3.6-101.1,68.4-129.9,90.4c-16.9,13-34.5,19-46.2,21.8c11.3,33.1,29.5,63,52.8,88.1
				c10.2-10.6,26.7-28.6,36-42.7c13.8-20.9,30.1-86,64.3-122.3C482.6,716.6,534,748.1,534,748.1z"/>
		</g>
		
			<g id="use3345" transform="matrix(-0.70711,0.70711,-0.70711,-0.70711,896.37899,676.8963)" inkscape:transform-center-x="24.685166" inkscape:transform-center-y="18.731991">
			
				<path id="use3230_00000114796345002747773110000013244598418226107543_" inkscape:connector-curvature="0" inkscape:transform-center-x="-8.0246878" inkscape:transform-center-y="13.979828" sodipodi:nodetypes="cssccssc" class="st2" d="
				M534,748.1c0,0,8.9-40.9-21.3-65.9c-30.2-25-119.9-23.2-155.8-27.9c-21.2-2.8-37.8-11-48.1-17.3c-15.4,31.4-23.6,65.4-25,99.6
				c14.7-0.3,39.1-1.3,55.6-4.7c24.6-5.1,82.1-39.6,132-41C519.9,689.5,534,748.1,534,748.1z"/>
		</g>
		
			<g id="use3347" transform="rotate(180,307.99913,524.09342)" inkscape:transform-center-x="34.641447" inkscape:transform-center-y="-2.5437076">
			
				<path id="use3230_00000178893738348154861990000001568008967946538665_" inkscape:connector-curvature="0" inkscape:transform-center-x="-8.0246878" inkscape:transform-center-y="13.979828" sodipodi:nodetypes="cssccssc" class="st2" d="
				M534,748.1c0,0,35.2-22.6,31.6-61.7c-3.6-39-68.4-101.1-90.4-129.9c-13-16.9-19-34.5-21.8-46.2c-33.1,11.3-63,29.5-88.1,52.8
				c10.6,10.2,28.6,26.7,42.7,36c20.9,13.8,86,30.1,122.3,64.3C565.5,696.7,534,748.1,534,748.1z"/>
		</g>
		
			<g id="use3349" transform="matrix(-0.70711,-0.70711,0.70711,-0.70711,155.19625,1112.4763)" inkscape:transform-center-x="18.731994" inkscape:transform-center-y="-24.685146">
			
				<path id="use3230_00000043416380945085416520000013550710077283009426_" inkscape:connector-curvature="0" inkscape:transform-center-x="-8.0246878" inkscape:transform-center-y="13.979828" sodipodi:nodetypes="cssccssc" class="st2" d="
				M534,748.1c0,0,40.9,8.9,65.9-21.3c25-30.2,23.2-119.9,27.9-155.8c2.8-21.2,11-37.8,17.3-48.1c-31.4-15.4-65.4-23.6-99.6-25
				c0.3,14.7,1.3,39.1,4.7,55.6c5.1,24.6,39.6,82.1,41,132C592.6,734,534,748.1,534,748.1z"/>
		</g>
		
			<g id="use3351" transform="rotate(-90,307.99928,524.09327)" inkscape:transform-center-x="-2.5437062" inkscape:transform-center-y="-34.641447">
			
				<path id="use3230_00000180329497408841900710000015780833188398746020_" inkscape:connector-curvature="0" inkscape:transform-center-x="-8.0246878" inkscape:transform-center-y="13.979828" sodipodi:nodetypes="cssccssc" class="st2" d="
				M534,748.1c0,0,22.6,35.2,61.7,31.6c39-3.6,101.1-68.4,129.9-90.4c16.9-13,34.5-19,46.2-21.8c-11.3-33.1-29.5-63-52.8-88.1
				c-10.2,10.6-26.7,28.6-36,42.7c-13.8,20.9-30.1,86-64.3,122.3C585.4,779.5,534,748.1,534,748.1z"/>
		</g>
		
			<g id="use3353" transform="matrix(0.70711,-0.70711,0.70711,0.70711,-280.38073,371.29054)" inkscape:transform-center-x="-24.685164" inkscape:transform-center-y="-18.731995">
			
				<path id="use3230_00000150816031162710549280000005959824376533342397_" inkscape:connector-curvature="0" inkscape:transform-center-x="-8.0246878" inkscape:transform-center-y="13.979828" sodipodi:nodetypes="cssccssc" class="st2" d="
				M534,748.1c0,0-8.9,40.9,21.3,65.9c30.2,25,119.9,23.2,155.8,27.9c21.2,2.8,37.8,11,48.1,17.3c15.4-31.4,23.6-65.4,25-99.6
				c-14.7,0.3-39.1,1.3-55.6,4.7c-24.6,5.1-82.1,39.6-132,41C548.1,806.6,534,748.1,534,748.1z"/>
		</g>
		
			<radialGradient id="path3355_00000055697748384680328690000003183386167067134362_" cx="1182.1526" cy="-87.0364" r="800.0231" gradientTransform="matrix(0.32 0 0 -0.32 155.7221 722.5092)" gradientUnits="userSpaceOnUse">
			<stop  offset="0" style="stop-color:#FFFFFF;stop-opacity:0"/>
			<stop  offset="0.8056" style="stop-color:#FFFFFF;stop-opacity:0"/>
			<stop  offset="1" style="stop-color:#B00000;stop-opacity:0.7345"/>
		</radialGradient>
		
			<circle id="path3355" style="fill:url(#path3355_00000055697748384680328690000003183386167067134362_);" cx="534" cy="750.4" r="256"/>
	</g>
</g>
</svg>
