<svg xmlns="http://www.w3.org/2000/svg" xmlns:xlink="http://www.w3.org/1999/xlink" version="1.1" id="Layer_1" x="0px" y="0px" style="enable-background:new 0 0 512 512;" xml:space="preserve" viewBox="20.38 0 471.16 512">
<style type="text/css">
	.st0{clip-path:url(#SVGID_00000045594704615638814110000013206312671499216810_);}
	.st1{fill-rule:evenodd;clip-rule:evenodd;fill:#D7F64C;}
	.st2{fill:#D7F64C;}
</style>
<g>
	<g>
		<defs>
			<rect id="SVGID_1_" x="20.5" width="470.9" height="512"/>
		</defs>
		<clipPath id="SVGID_00000182506857589509060970000004416680173210431136_">
			<use xlink:href="#SVGID_1_" style="overflow:visible;"/>
		</clipPath>
		<g style="clip-path:url(#SVGID_00000182506857589509060970000004416680173210431136_);">
			<path class="st1" d="M22,169.5c-2.5,0,4.9-4.7,9-5.8c3.3-0.8,328.6-0.7,332.4,0.1c7.8,1.7,11.2,7.4,11.3,18.8     c0.1,8.4,1,8.7,26.8,9.4c29.1,0.8,39.9,2.7,54.4,10c19.2,9.7,32.6,35.5,35.3,68.3c1.5,18.5-2.1,38.7-10.5,59     c-2.5,6.1-11.3,23.4-12.4,24.5c-0.2,0.2-0.9,1.4-1.6,2.7c-0.7,1.3-1.4,2.4-1.7,2.4c-0.2,0-0.6,0.5-0.8,1.1     c-0.5,1.6-6.2,9.9-7.5,11c-0.2,0.2-0.5,0.6-0.6,1c-0.3,0.7-5.4,6.6-9.6,11.1c-2.1,2.3-10.4,10-14.6,13.7     c-3.7,3.2-11.8,9.2-12.5,9.2c-0.4,0-0.8,0.2-0.9,0.5c-0.9,2.3-36.7,22.4-39.9,22.4c-0.4,0-0.7,0.2-0.7,0.5c0,0.5-4.5,2.4-5.2,2.2     c-0.3-0.1-0.5,0.1-0.5,0.4c0,0.3-1.2,0.9-2.7,1.4c-1.5,0.5-4.5,1.7-6.7,2.6c-2.2,1-5.3,2.2-7,2.7c-1.7,0.5-4.1,1.4-5.4,1.9     c-1.3,0.6-2.4,0.8-2.4,0.6c0-0.2-0.4-0.1-0.8,0.3c-0.7,0.6-6.6,2.3-10.3,3c-0.7,0.1-1.3,0.3-1.3,0.4c-0.1,0.1-2,4-4.4,8.8     c-5.4,10.8-8.7,16.8-9.4,17.1c-0.3,0.1-0.5,0.6-0.5,1c0,0.4-0.8,1.8-1.9,3c-1,1.2-1.9,2.5-1.9,2.9c0,0.4-1,1.8-2.3,3.1     c-1.2,1.3-2.2,2.6-2.2,2.9c0,3.4-15.8,14.7-25.8,18.3c-2.4,0.9-3.3,1.1-6,1.7c-0.7,0.1-1.8,0.6-2.5,1c-0.7,0.4-1.5,0.6-1.8,0.6     s-0.9,0-1.5,0.2c-12.9,4.7-34.8,6.5-77.9,6.5c-35.5,0-43.8-0.3-54.4-2c-1.6-0.3-3.1-0.4-3.3-0.4c-1.3,0.3-17.3-3.1-22.2-4.7     c-1.6-0.5-3.5-1.1-4.1-1.2c-2.2-0.4-7.5-2.4-9.8-3.6c-1.2-0.7-2.7-1.2-3.3-1.2c-0.6,0-1.5-0.4-1.9-0.8c-0.5-0.5-1.8-1.2-2.9-1.7     c-4.7-1.9-26.2-26.1-23.3-26.2c0.3,0,0.2-0.2-0.2-0.5c-1.8-1.2-14.2-25.6-13.8-27c0.1-0.3-0.2-0.5-0.6-0.5     c-0.4,0-0.6-0.2-0.4-0.4c0.2-0.2-0.4-2.2-1.5-4.5c-1-2.2-1.7-4.1-1.5-4.1c0.2,0-0.1-0.6-0.6-1.4c-0.5-0.8-1-2-1.1-2.7     c-0.1-0.7-0.4-1.4-0.7-1.6c-0.3-0.2-0.5-0.9-0.7-1.6c-0.1-0.7-0.4-1.5-0.6-1.9c-0.2-0.3-0.6-1.5-0.8-2.5c-0.2-1-1.2-3.8-2.1-6     c-0.9-2.3-1.6-4.8-1.6-5.6s-0.2-1.4-0.5-1.4c-0.3,0-0.7-0.9-0.9-2.1c-0.2-1.1-0.6-2.9-0.8-4c-0.2-1-0.6-2.2-0.9-2.6     c-0.3-0.4-0.7-1.7-0.8-2.9c-0.2-1.2-0.3-2.2-0.4-2.3c-0.1-0.1-0.2-0.4-0.3-0.6c-0.1-0.3-0.3-0.9-0.5-1.4     c-0.5-1.3-3.5-13.2-3.8-15.6c-0.4-2.8-1.1-5.5-1.8-7.3c-0.6-1.6-3.5-17.1-4.7-24.8c-0.1-0.9-0.3-1.7-0.4-1.9     c-0.1-0.2-0.2-0.6-0.2-1c-0.1-0.3-0.3-1.5-0.5-2.5c-0.6-2.5-1.1-6.4-1.4-9.7c-0.1-1.5-0.4-2.9-0.5-3.2c-0.2-0.3-0.5-2.5-0.7-4.9     c-0.5-5.5-0.7-6.4-1.5-12.7c-0.4-2.8-0.7-5.8-0.7-6.7s-0.1-3.1-0.3-5.1c-0.3-3.4-0.7-10.9-1.3-28.9c-1-29.9-1.5-43.6-2-52.5     c-1.1-23.3-1.1-44.3,0-45.4C22,170,22.2,169.5,22,169.5z M167.8,235.9c0.4,0.3,1.9,1.6,3.4,2.9c1.5,1.2,3.2,2.7,3.7,3.2     c3.3,3.1,28.7,19.7,28.7,19.7l0.6,0.5c0,0,1.9,1.5,4.3,2.7c2.4,1.2,4.4,2.4,4.6,2.6c0.2,0.2,2,1.4,4.1,2.8     c2.1,1.3,4.2,2.8,4.7,3.3c0.5,0.5,1.9,1.6,3.1,2.6c7.8,5.9,22.2,26.7,23.1,31.5c2,4.6,1.6,3.8,2,6.5c0.5,2.4,0.8,3.1,1.2,6     c0.4,3,0.9,6.1,1,7c0.6,3.2,0.2,16.2-0.6,21.3c-0.7,4.3-1.1,6.9-1.3,8.8c-0.1,1-0.5,2.6-0.9,3.5c-0.4,0.9-1,3-1.4,4.6l-0.1,0.4     c-0.6,2.1-0.7,2.7-0.9,3.3c-0.1,0.2-0.2,0.5-0.3,0.8c-1.5,3.7-3.1,8.7-3.2,9.5c0,0.5-1.1,3-2.5,5.5c-1.3,2.5-2,5-2,5l-0.5,1.5     c0,0-0.9,2.6-2.6,5.2c-1.7,2.6-2,2.5-3,4l-1.7,2.7l-0.4-1.8c-0.2-1-0.4-3.5-0.5-5.6c-0.4-20.6-12.2-57.3-25.1-77.9     c-8.7-13.9-31.8-40.2-29.3-33.3c0.5,1.5,4.1,6.4,4.8,7.1c0.5,0.7,0,0,0.5,0.7c0.6,0.6,2.1,3.9,4.6,8.1c2.5,4.1,5.4,9.1,6.5,11     c1,1.9,2,3.6,2.2,3.8c0.5,0.4,3.9,6.7,6.3,11.4c1,1.9,2.4,4.6,2.4,4.6s0.7,2.1,2.1,4.8c3.2,6.5,5.8,12.1,5.8,12.5     c0,0.2,0.9,2.3,2,4.7c1.1,2.4,2.1,4.5,2.1,4.7c0.1,0.9,2.7,6,3,7.3c0.3,1.1,0.5,2.2,0.5,2.2l0.9,2.6c0,0,0.2,1.1,0.7,2.4     c1,2.7,1.5,4.1,1.6,4.8c0,0.3,0.5,1.3,1.1,2.4c0.7,1.9,0,0,0.7,1.9c0.3,0.5,0.1,1.2,0.6,2.7c0.5,1.5,1.1,3.5,1.3,4.6     c0.2,1.1,1.1,4.8,2,8.3c0.1,0.6,0.3,1.1,0.4,1.6c1.2,4.6,1.6,6.4,1,6.9c-0.4,0.3-1.1,0.2-2.4,0c-0.2,0-0.5-0.1-0.7-0.1     c-39.6-6.1-69.3-23.6-83.3-49.1c-14.8-27-14.9-57-0.3-88.8c1.5-3.3,3.1-6.5,3.4-7c0.4-0.5,0.9-1.6,1.3-2.4c0.4-0.8,1-1.9,1.5-2.4     c0.5-0.5,1.8-2.6,3-4.6c1.1-2,2.6-4.2,3.3-4.9c0.7-0.7,1.7-2,2.3-2.9C161.2,237.1,165.6,234.1,167.8,235.9z M457.3,242.9     c-5.5-9.4-15.6-17.9-25.6-21.6c-1.6-0.6-12.9-2.7-13.2-2.5c-0.1,0.1-2.2,0.3-4.6,0.3c-6.3,0.2-11.8,1.6-19,4.9     c-2.4,1.1-4.3,1.6-4.3,1.6s-1,0.4-2.2,1.3l-2.2,1.4l-1.1,0.6c-2.2,1.8-9.2,7-10.2,7.7c-2.2,1.3-2.4,2.6-3,17.8     c-0.2,5.6-0.5,13-0.6,16.5c-0.2,3.5-0.5,9.9-0.6,14.3c-0.4,8.3-1.4,22-1.9,24.8c-0.2,0.9-0.5,3.5-0.7,5.7     c-0.6,5.9-2.6,20-4.2,28.6c-2.5,14.1-3.2,17.5-3.8,20c-0.3,1.4-1.9,7.9-3.5,14.6c-1.6,6.6-2.7,12.2-2.5,12.4     c1.2,1.2,17.9,0.3,22.6-1.1c8.9-2.8,22.7-9.6,26.9-13.2c0.7-0.6,2.5-2,3.9-3.1c1.4-1,2.8-2.3,3.1-2.7c0.3-0.4,0.8-0.8,1.1-0.8     c0.7,0,11.1-10.3,15.7-15.6c3.8-4.4,4.7-5.5,7.8-9.5c1.2-1.6,3-3.9,3.9-5c0.9-1.1,2.6-3.6,3.8-5.5c1.2-1.9,2.4-3.7,2.8-4     s0.5-0.5,0.2-0.5c-0.6,0,4-7.9,4.7-8.2c0.3-0.1,0.4-0.5,0.2-0.8s-0.1-0.6,0.3-0.6s0.6-0.2,0.5-0.5c-0.1-0.3,0.8-2.3,1.8-4.6     c2.1-4.4,3.3-7.2,4.7-10.8c0.5-1.2,1.1-2.5,1.4-2.8c0.3-0.3,0.5-1.3,0.5-2.1c0-0.8,0.3-1.5,0.6-1.5c0.3,0,0.6-0.6,0.6-1.4     c0-0.8,0.6-3.4,1.3-5.9c2.7-9,3.6-26.8,1.6-32.3c-0.5-1.3-0.7-2.4-0.6-2.4C464,256.6,459.5,246.7,457.3,242.9z"/>
			<path class="st2" d="M209.7,2.7c1.4-1,3-2,3.5-2.2c2.4-0.9,2.4-1.1-0.4,5.5c-6.8,16.5-6.5,23.4,2.3,41.7     c12.3,25.7,11.5,41.3-2.9,56.4c-3.4,3.6-11.2,8.6-11.2,8.6l-0.6,0.4l-1.1,0.9c-0.6,0.2-1.5,0.6-2.1,0.9c-5.9,3.4-8.4,3.8-5.4,1     c0.9-0.8,1.2-1.5,1.2-1.5s0.3-0.7,1.2-1.6c0.9-0.9,1.6-1.9,1.6-2.2c0,0,0.7-1.4,1.6-2.5c0.9-1.1,1.2-2,1.2-2s0.1-0.9,0.8-2.1     c0.7-1.1,1.6-3.4,2.1-5.1c0.5-1.7,1.2-3,1.2-3s0.4-0.6,0.4-1.4c0.1-0.8,0.3-2.4,0.4-3.7c0.5-3.5,0.6-10.9,0.1-13.7     c-0.8-4.8-2.8-11.8-4.2-14.8c-0.7-1.7-1.4-3.3-1.5-3.6c-0.1-0.3-0.7-1.8-1.4-3.2c-1.4-2.8-3.4-8.1-4.8-12.4     c-1.1-3.7-0.6-16.6,0-18.3l0.2-0.9c0,0,0.2-1.3,0.8-2.1c0.6-0.9,0.7-1.6,0.7-1.6S201.1,8.4,204.8,6     C206.1,5.2,208.3,3.7,209.7,2.7z"/>
			<path class="st2" d="M269.8,35.3c1.4-1,3-2,3.5-2.2c2.4-0.9,2.4-1.1-0.4,5.5c-6.8,16.5-6.5,23.4,2.3,41.7     c12.3,25.7,11.5,41.3-2.9,56.4c-3.4,3.6-11.2,8.6-11.2,8.6l-0.6,0.4l-1.1,0.9c-0.6,0.2-1.5,0.6-2.1,0.9c-5.9,3.4-8.4,3.8-5.4,1     c0.9-0.8,1.2-1.5,1.2-1.5s0.3-0.7,1.2-1.6c0.9-0.9,1.6-1.9,1.6-2.2c0,0,0.7-1.4,1.6-2.5c0.9-1.1,1.2-2,1.2-2s0.1-0.9,0.8-2.1     c0.7-1.1,1.6-3.4,2.1-5.1c0.5-1.7,1.2-3,1.2-3s0.4-0.6,0.4-1.4c0.1-0.8,0.3-2.4,0.4-3.7c0.5-3.5,0.6-10.9,0.1-13.7     c-0.8-4.8-2.8-11.8-4.2-14.8c-0.7-1.7-1.4-3.3-1.5-3.6c-0.1-0.3-0.7-1.8-1.4-3.2c-1.4-2.8-3.4-8.1-4.8-12.4     c-1.1-3.7-0.6-16.6,0-18.3l0.2-0.9c0,0,0.2-1.3,0.8-2.1c0.6-0.9,0.7-1.6,0.7-1.6s7.4-11.9,11.1-14.3     C266.2,37.8,268.4,36.3,269.8,35.3z"/>
			<path class="st2" d="M142.7,21.6c1.4-1,3-2,3.5-2.2c2.4-0.9,2.4-1.1-0.4,5.5c-6.8,16.5-6.5,23.4,2.3,41.7     c12.3,25.7,11.5,41.3-2.9,56.4c-3.4,3.6-11.2,8.6-11.2,8.6l-0.6,0.4l-1.1,0.9c-0.6,0.2-1.5,0.6-2.1,0.9c-5.9,3.4-8.4,3.8-5.4,1     c0.9-0.8,1.2-1.5,1.2-1.5s0.3-0.7,1.2-1.6c0.9-0.9,1.6-1.9,1.6-2.2c0,0,0.7-1.4,1.6-2.5c0.9-1.1,1.2-2,1.2-2s0.1-0.9,0.8-2.1     c0.7-1.1,1.6-3.4,2.1-5.1c0.5-1.7,1.2-3,1.2-3s0.4-0.6,0.4-1.4c0.1-0.8,0.3-2.4,0.4-3.7c0.5-3.5,0.6-10.9,0.1-13.7     c-0.8-4.8-2.8-11.8-4.2-14.8c-0.7-1.7-1.4-3.3-1.5-3.6c-0.1-0.3-0.7-1.8-1.4-3.2c-1.4-2.8-3.4-8.1-4.8-12.4     c-1.1-3.7-0.6-16.6,0-18.3l0.2-0.9c0,0,0.2-1.3,0.8-2.1c0.6-0.9,0.7-1.6,0.7-1.6s7.4-11.9,11.1-14.3     C139.1,24.1,141.3,22.6,142.7,21.6z"/>
		</g>
	</g>
</g>
</svg>