<?xml version="1.0" encoding="utf-8"?>
<!-- Generator: Adobe Illustrator 27.7.0, SVG Export Plug-In . SVG Version: 6.00 Build 0)  -->
<svg version="1.1" id="Layer_1" xmlns="http://www.w3.org/2000/svg" xmlns:xlink="http://www.w3.org/1999/xlink" x="0px" y="0px"
	 viewBox="0 0 512 512" style="enable-background:new 0 0 512 512;" xml:space="preserve">
<style type="text/css">
	.st0{fill:#233346;}
	.st1{fill:#FFFFFF;}
	.st2{fill:#213040;}
	.st3{fill:#5DEDCF;}
	.st4{fill:#121E30;}
</style>
<g>
	<path class="st0" d="M487.3,311.2c3.3,0.7,6.3,1.3,9.2,2.1c12.2,3.3,17.9,12.5,14.5,24.2c-4.8,16.9-12.5,32.8-20.5,48.5
		c-15.7,30.8-40,54.6-67.8,75.1c-19.6,14.5-40.6,27.2-64.1,35.2c-19.5,6.7-39.5,11.9-60.4,13.9c-19.6,1.9-39.3,1.9-58.7,0.2
		c-28.8-2.5-56.4-9.7-82.9-21.2c-41.7-18.1-76.1-45.1-103.9-79.7C28.4,379.1,11.6,345.1,4.6,307c-9.7-52.8-4.3-103.9,19.7-152.8
		C39.1,123.9,60,97.6,84.7,74.1c31.6-30,69-50.6,111.5-63.2c26.5-7.9,53.4-11.6,81-10.4c38.4,1.8,75,10.4,109.3,27.3
		c9.7,4.8,19.2,10.1,28.8,15.2c2-1,1.9-3,2.6-4.6c3.4-8,9.1-11.9,17-11.9c9.2,0.1,15.8,4,18.4,12.5c6.3,20.3,13.8,40.3,18.7,61
		c0.8,3.2,1.6,6.5,0.7,9.8c-1.8,6.7-6.4,10.7-13.5,11.6c-0.6,0.1-1.2,0.2-1.7,0.1c-23-0.8-45.8,2.2-68.8,1.8
		c-9.6-0.2-16.2-6.6-16.3-15.8c0-3.2-0.4-6.4,1.3-9.4c1.5-2.7-0.7-4.1-2.6-5.4c-7.2-5-15-8.8-23.1-12.3
		c-25.1-10.7-51.5-16.5-79-16.1c-36,0.5-69.8,9.6-100.4,28.5c-21.7,13.3-41.7,28.6-57.8,47.9c-16.2,19.5-29.7,40.7-37.1,65
		c-7.6,24.7-9.8,50-7.7,75.8c3,37.4,19.1,69.5,43.6,97.9c26.3,30.5,59.5,51.5,99.1,62.7c14.1,4,28.6,6.1,43.4,6.8
		c16.2,0.7,32.3,0.6,48.3-1.7c31-4.5,58.6-16.3,83-35c18.2-14,33.4-30.8,46.3-49.2c7.1-10.1,11.5-21.8,15.8-33.2
		c1.1-2.8,0.8-6,1.2-9c1.1-8.4,11.6-17,21.8-13.8C474.8,308.7,480.9,309.7,487.3,311.2"/>
	<path class="st1" d="M395.7,84c2.9,1.8,5.5,4,7.9,6.5c2,2.1,2,3.8-0.6,5.5c-2.1,1.4-4.6,2.5-6,4.7c-0.7,1.1-1.5,2.2-0.9,3.5
		c0.6,1.5,2.1,1.3,3.4,1.2c3.6-0.2,7.2-0.6,10.8-0.8c12.1-0.6,24.2-1.2,36.3-1.6c3.4-0.1,4.3-1.4,3.4-4.5c-1.4-4.8-2.4-9.7-3.7-14.5
		c-3.2-11.6-6.5-23.2-10.2-36c-3.6,5.7-6.4,10.4-9.5,15c-4.9,7.5-8.1,8.2-15.8,3.3c-5.4-3.5-10.2-7.7-15.7-11
		c-47.8-28.8-100-40.5-155.9-33.9c-37.6,4.4-72.3,17.5-103.9,37.9c-22.9,14.8-43.1,32.4-60.4,53.2c-16.9,20.4-31.4,42.2-41.2,66.6
		c-9.2,23.1-13.6,47.2-14.4,72c-0.9,29.3,2.4,57.9,13,85.5c16.7,43.4,44.8,78.9,82.5,107.5c27.4,20.7,57.9,35.2,91.9,43.1
		c31.3,7.2,62.9,7.8,94.6,4.7c18.9-1.9,36.8-7.8,54.6-14.2c28.6-10.3,53.1-26.8,75.2-46.7c26.2-23.6,44.5-52.3,56.6-84.7
		c1.7-4.5,3.4-9.1,4.2-14c-6.5-2.3-13.1-3.3-19.4-4.9c-3.7-1-5.4,0-6.6,3.5c-8.4,23.3-19.9,44.8-37,63.4
		c-13.8,14.9-27.9,29.3-45.2,40.4c-43.1,27.5-90.6,37.9-141.8,31.9c-32.6-3.8-63.2-13.5-91.2-30.5c-47.6-28.9-80.4-68.7-96.9-120.5
		c-8.2-25.7-8.9-52.1-6-78.7c2.6-24,9-46.9,20.6-68.3c12.4-22.9,28.4-43,47.8-60.8c26.1-24,55.9-41.9,90.4-52.3
		c27.1-8.1,54.8-11.9,83.2-9.1c17.3,1.7,34.2,4.8,50.6,10.4C359.8,63.2,377.4,73.5,395.7,84z"/>
	<path class="st2" d="M344,131.5c11.9,3.8,22,10,31.5,17c18.8,13.8,34.2,30.2,43.2,51.6c1.5,3.5,3.3,6.8,5.9,9.7
		c8.3,9,16.2,6.4,21.9-2.7c2.7-4.4,2.9-9.3,2.2-14.2c-1.1-7.5-2.6-14.9-5.8-22.1c-4.9-10.7,2.5-20.6,15.6-21.3
		c10.1-0.6,20.2-1,30.3-0.9c12.3,0.2,18.6,5.7,19.7,17.4c1.2,13,2.8,25.9,3.2,38.9c0.8,23.8-7.9,44.4-24.5,62.2
		c-14.4,15.4-33.1,21.7-53.5,24.5c-15.4,2.1-30.5,0.7-44.3-7.3c-2-1.2-3.5-0.7-5.1,0.4c-2.2,1.6-4.2,3.5-6.9,4.2
		c-5,1.2-5.5,4.4-5.1,8.6c2.1,18.4,2.4,36.8,2.4,55.3c0,2.4,0,4.7-0.2,7.1c-1.2,16-13.7,27.3-30.4,27.6c-12.4,0.2-24.8,0.2-37.2,0.9
		c-19.5,1.1-31.8-14-32.2-30.4c-0.1-2.9-0.1-5.8,0-8.7c0.1-2.4-0.8-3.5-3.5-3.5c-15.7,0-31.5-0.1-47.2-0.3c-3.1,0-4.5,1.1-4.3,4.2
		c0.4,5.7-0.4,11.4-0.8,17c-0.6,7.6-6.3,11.9-12.1,15.9c-3.7,2.5-7.9,4.1-12.5,4.3c-16,0.7-32,2.1-48,0.7c-11.7-1-21.9-9.9-25-20.8
		c-1.2-4.3-1.8-8.7-1.8-13.2c0-28.7,0-57.5,0-86.2c0-1.6,0.3-3.3-0.4-5c-2.1-0.8-3.9,0.4-5.7,1.1c-5.9,2.2-11.4,5.4-17.6,6.9
		c-5.7,1.3-9.5,0-12.3-4.4c-2.9-4.5-2.6-7.6,1.4-12.1c4.6-5,10.9-8.2,16-12.7c5.5-4.9,11.1-9.7,16.8-14.4c3.1-2.6,4.3-6.2,5.4-9.8
		c6.4-20.1,17.1-37.9,32.5-52.9c14.2-13.8,32-22.1,50.4-29.4c3.5-1.4,7.4-1.5,11.1-1.6c2.9-0.1,4.8-1.2,6.7-3.1
		c26-25.7,61-31.2,93.4-10.6C323.6,128.2,334.2,128.6,344,131.5"/>
	<path class="st3" d="M206.1,205.3c-2.3-9.3-4-18.7-2.7-28.4c0.6-4.5,0.8-9.1,1.1-13.7c0.2-2.2-0.4-3.7-3.2-2.8
		c-9.3,3-18.4,6.4-26.2,12.6c-18,14.2-26.6,33.8-33.4,54.3c-1.1,3.4-1.8,7-1.8,10.6c0,39.2-0.6,78.3,0.6,117.5
		c0.2,7.8,3.9,11.7,12.1,11.5c12.4-0.3,24.8-0.6,37.2-0.7c5.2,0,9.3-4.5,9.3-9.6c0-5.3-0.1-10.6-0.2-15.8
		c-0.2-7.3,3.3-15.6,13.8-15.7c4,0,8.1-0.3,12.1-0.3c15.2,0.2,30.3,0.4,45.5,0.5c4.2,0,8.4-0.1,12.6,0c8.2,0.2,11.7,3,12.3,10.8
		c0.5,7.1,0.6,14.1,0.6,21.2c0.1,7.3,2.9,10.4,10.7,10.4c11.3,0.1,22.5,0.1,33.8,0c9.3-0.1,13.5-4.3,13.4-13.4
		c-0.3-24.6-0.7-49.1-1-73.7c-0.1-7.7,2.4-11.1,9.9-13.9c2.6-1,5-2,7.3-3.5c6.1-4,11.9-4.5,18.9-0.9c21.2,11.1,43.1,12.3,65.2,2.1
		c22.4-10.4,33.7-28.2,36.4-51.5c1.7-14.6-2.6-29-1.8-43.6c0.1-1.9-1-3-2.9-2.8c-6.8,0.9-13.8,0.5-20.8,0.9
		c-0.2,3.4,0.9,6.3,1.5,9.2c2.7,11.7,4.1,23.5,0.4,35.3c-2.8,8.9-7.2,16.7-15.8,21.5c-14.1,7.9-33.6,3-43.3-10.6
		c-3.4-4.7-6-9.8-8.2-15.1c-4.9-11.8-11-22.9-20.6-31.9c-8.7-8.1-18.4-14.8-28.8-20.5c-5.2-2.8-10.8-4.9-16.9-3.2
		c-7,2-11.8-0.6-16.3-5.5c-7.3-7.9-15.8-14.5-26.4-17.6c-27.9-8.2-57.3,8.7-63.7,36.2c-1.9,8.4-2.2,16.7-0.8,25.2
		c1.5,9.1,3.9,17.8,9.9,25.4c18.3,23.1,56.1,29,78,8c4.3-4.1,8.3-4.2,12.6-0.8c4.9,3.9,5.4,7.1,1.9,12.3
		c-5.8,8.8-14.5,14.3-24.4,17.8c-14.1,5-28.9,5.3-43.1,1.7C233.8,248.5,215.3,231.8,206.1,205.3z"/>
	<path class="st4" d="M375.7,218.5c-5.8,3.5-11.5,3.1-15.6-0.9c-4.4-4.3-5.2-10-2.1-14.8c3.2-4.9,9.2-6.9,15-4.9
		C381.8,201.1,383.3,211.3,375.7,218.5z"/>
</g>
</svg>
