<svg xmlns="http://www.w3.org/2000/svg" xml:space="preserve" width="491.494" height="491.494" style="enable-background:new 0 0 491.494 491.494"><path d="M39.302 138.132c3.291.714 6.346.662 15.728-6.54 4.168-3.204 10.325-8.59 16.01-16.117l2.491-3.301C94.832 83.842 144.7 17.512 216.727 21.121c59.398 4.331 101.508 49.187 121.757 129.725.691 2.738 1.107 4.413 1.571 5.71 3.097 13.167 8.288 29.575 15.771 34.98a10.406 10.406 0 0 0 6.127 1.98c3.246 0 6.461-1.505 8.509-4.347 3.274-4.533 2.404-10.805-1.891-14.28-2.069-2.68-5.959-13.888-8.276-23.913a10.377 10.377 0 0 0-.566-1.732c-.195-.686-.568-2.18-.908-3.517-3.209-12.77-11.735-46.678-32.417-78.567C299.692 25.977 263.262 3.442 218.121.19c-.07-.011-.14-.011-.221-.011C134.7-4.07 80.083 68.559 56.768 99.568l-2.451 3.257c-6.383 8.44-13.925 13.694-16.524 15.215-.875.351-1.727.821-2.518 1.417-3.263 2.472-4.857 6.689-3.979 10.685a10.497 10.497 0 0 0 8.006 7.99z"/><path d="M43.97 245.815c34.618-9.417 66.601-28.597 68-29.437 45.162-27.656 86.126-71.235 86.469-71.646 16.91-19.369 41.931-37.94 61.447-31.966 11.491 3.519 19.46 9.777 23.681 18.605 5.056 10.563 4.663 24.853-1.075 39.198a70.64 70.64 0 0 1-2.046 4.599c7.374.396 14.57 1.464 21.534 3.136 7.892-19.76 8.087-40.166.501-55.993-6.753-14.137-19.363-24.372-36.447-29.605-25.08-7.675-55.478 6.251-83.33 38.163-.354.392-40 42.09-81.631 67.583-.305.184-30.782 18.461-62.61 27.139-5.589 1.515-8.885 7.286-7.364 12.866 1.514 5.59 7.278 8.892 12.871 7.358zm109.906 49.239c0-4.156.213-8.263.627-12.312-29.438 17.887-67.814 39.939-97.787 52.746-5.327 2.28-7.796 8.434-5.522 13.768a10.488 10.488 0 0 0 9.65 6.369c1.377 0 2.777-.275 4.122-.842 27.386-11.718 61.274-30.707 89.523-47.556a120.92 120.92 0 0 1-.613-12.173zm74.51-250.155c-37.917 3.934-70.342 27.636-95.327 55.151-4.757 5.246-9.028 10.879-13.631 16.25-6.023 7.042-12.607 13.623-19.485 19.829-7.069 6.386-12.791 10.948-21.127 15.746-8.847 5.068-17.865 10.201-27.027 14.666-3.153 1.54-5.865 2.534-9.41 3.601-5.467 1.646-8.863 7.289-7.321 12.902 1.483 5.411 7.424 8.975 12.902 7.332 10.722-3.23 20.441-8.752 30.117-14.252 8.183-4.646 16.301-8.833 23.813-14.55 14.65-11.135 27.252-24.137 38.844-38.373 4.697-5.765 9.713-11.251 14.96-16.525 2.861-2.876 5.818-5.649 8.844-8.366a209.56 209.56 0 0 1 4.793-4.149c.818-.686 1.647-1.367 2.485-2.045.213-.178 1.843-1.461 2.255-1.793 7.305-5.595 15.087-10.568 23.275-14.771 7.734-3.979 15.49-6.756 24.902-8.721 3.123-.648 3.803-.718 6.138-.956 5.683-.586 10.487-4.328 10.487-10.484 0-5.28-4.793-11.082-10.487-10.492z"/><path d="M51.445 300.867c13.922-4.779 63.021-22.953 114.054-57.316 14.353-30.099 40.872-53.322 73.158-63.269 6.34-7.227 12.397-14.798 18.062-22.738 3.358-4.713 2.269-11.257-2.449-14.628-4.716-3.363-11.271-2.267-14.635 2.448-61.784 86.615-173.28 128.203-195.007 135.677-.464.15-.751.248-.851.281-5.417 2.062-8.145 8.114-6.092 13.528 1.588 4.192 5.576 6.765 9.814 6.765 1.184 0 2.396-.195 3.574-.617l.372-.131zm119.327 55.535a119.614 119.614 0 0 1-9.196-19.049c-3.44 2.251-7.009 4.598-10.725 7.045-26.179 17.262-55.862 36.825-68.769 40.299-5.592 1.514-8.906 7.262-7.402 12.854 1.261 4.689 5.494 7.764 10.125 7.764.902 0 1.817-.113 2.725-.355 16.185-4.367 44.692-23.156 74.873-43.045 2.727-1.8 5.532-3.647 8.369-5.513zm139.784 58.27c-2.114-.764-4.56-1.867-7.245-3.221a119.979 119.979 0 0 1-29.371 3.666c-2.133 0-4.251-.059-6.356-.168 13.534 8.344 26.191 15.965 35.858 19.467 5.435 1.967 11.453-.854 13.42-6.311 1.967-5.459-.849-11.466-6.306-13.433zm-119.866-33.19c-14.76 9.119-34.594 23.168-60.247 41.904-5.6 4.078-10.431 7.605-13.783 9.979-4.725 3.35-5.854 9.887-2.518 14.619a10.503 10.503 0 0 0 8.577 4.438c2.091 0 4.204-.627 6.041-1.918 3.484-2.465 8.376-6.045 14.047-10.168 14.189-10.367 46.716-34.113 65.317-44.916a121.192 121.192 0 0 1-17.434-13.938zm84.452 85.327c-5.896-3.846-11.304-7.715-16.556-11.441-17.191-12.291-32.06-22.904-48.355-20.066-18.35 3.17-47.568 32.557-53.244 38.402a10.496 10.496 0 0 0 7.529 17.791c2.744 0 5.483-1.064 7.537-3.193 14.047-14.512 34.003-30.99 41.745-32.33 7.65-1.318 19.229 6.916 32.611 16.469 5.155 3.684 11.001 7.844 17.269 11.939 4.847 3.166 11.352 1.799 14.517-3.053 3.16-4.858 1.787-11.347-3.053-14.518z"/><path d="m454.778 451.717-94.13-94.131c14.188-17.851 22.678-40.424 22.678-64.946 0-57.654-46.905-104.559-104.559-104.559S174.208 234.986 174.208 292.64c0 57.653 46.905 104.558 104.559 104.558 18.336 0 35.58-4.75 50.578-13.074l96.514 96.514a20.387 20.387 0 0 0 14.459 5.988 20.387 20.387 0 0 0 14.459-5.988c7.986-7.988 7.986-20.935.001-28.921zM227.075 346.916c-.292.918-.792 1.377-1.5 1.377a1.34 1.34 0 0 1-.44-.076c-.283-.272-.576-.536-.855-.814a2.98 2.98 0 0 1-.198-.443c-.297-.891-.445-2.521-.445-4.896 0-2.392.148-4.038.445-4.938.296-.898.794-1.349 1.493-1.349.698 0 1.196.466 1.493 1.4.296.933.444 2.562.444 4.887.001 2.317-.145 3.934-.437 4.852zm118.601-15.654c-2.321.104-4.072.961-5.237 2.591-1.184 1.655-1.798 4.224-1.854 7.677a77.398 77.398 0 0 1-4.749 5.279v-15.268h-5.11l-7.205 5.871 2.941 3.619 2.383-1.968c.526-.469.967-.918 1.321-1.349a72.076 72.076 0 0 0-.086 3.703v10.691c-13.392 11.123-30.583 17.822-49.312 17.822-18.805 0-36.057-6.758-49.473-17.961.786-.424 1.454-1 1.992-1.747 1.244-1.728 1.866-4.447 1.866-8.16 0-3.589-.638-6.29-1.916-8.103-1.277-1.813-3.165-2.721-5.663-2.721-2.565 0-4.469.871-5.713 2.612-1.048 1.467-1.648 3.647-1.814 6.526a78.201 78.201 0 0 1-2.806-3.783c-.307-1.021-.713-1.904-1.229-2.637a6.303 6.303 0 0 0-1.447-1.471 76.755 76.755 0 0 1-10.172-27.947c.094.156.185.315.287.461 1.272 1.804 3.163 2.705 5.67 2.705 2.564 0 4.469-.863 5.713-2.59 1.244-1.728 1.866-4.447 1.866-8.162 0-3.588-.639-6.289-1.916-8.103s-3.165-2.72-5.663-2.72c-2.565 0-4.469.871-5.713 2.611-.46.645-.833 1.426-1.123 2.34.2-10.092 2.322-19.724 6.051-28.521.256.021.515.037.785.037 2.564 0 4.469-.864 5.713-2.591 1.244-1.727 1.866-4.447 1.866-8.16 0-1.377-.096-2.62-.284-3.734 14.01-19.804 37.074-32.771 63.123-32.771 25.082 0 47.402 12.017 61.532 30.587l-1.556 1.268 2.942 3.617 1.327-1.096a75.675 75.675 0 0 1 2.29 3.648v8.944h4.553a76.869 76.869 0 0 1 6.205 30.324 76.782 76.782 0 0 1-10.385 38.63zm-139.263-34.305c0-2.392.148-4.037.445-4.938.296-.898.794-1.35 1.493-1.35.698 0 1.196.467 1.493 1.398.296.934.445 2.562.445 4.889 0 2.315-.146 3.933-.438 4.853-.292.918-.792 1.378-1.5 1.378-.699 0-1.197-.445-1.493-1.336-.298-.888-.445-2.519-.445-4.894z"/><path d="M223.494 248.852c.526-.469.967-.918 1.321-1.35a73.289 73.289 0 0 0-.086 3.703v11.11h5.756V241.33h-5.11l-7.206 5.872 2.943 3.617 2.382-1.967zm19.307-7.823c-2.565 0-4.469.871-5.713 2.613-1.245 1.741-1.867 4.479-1.867 8.21 0 3.561.637 6.242 1.91 8.045 1.272 1.805 3.162 2.706 5.67 2.706 2.565 0 4.469-.864 5.712-2.591 1.243-1.727 1.865-4.447 1.865-8.16 0-3.588-.639-6.289-1.916-8.103-1.276-1.814-3.165-2.72-5.661-2.72zm1.5 15.674c-.292.92-.792 1.379-1.5 1.379-.699 0-1.196-.445-1.493-1.336-.297-.89-.445-2.521-.445-4.895 0-2.393.148-4.038.445-4.938.297-.9.794-1.351 1.493-1.351.698 0 1.196.468 1.493 1.399.297.933.445 2.562.445 4.888-.001 2.319-.147 3.936-.438 4.854zm13.643-7.851c.526-.469.967-.918 1.32-1.35a71.01 71.01 0 0 0-.086 3.703v11.11h5.756V241.33h-5.11l-7.206 5.872 2.942 3.617 2.384-1.967zm19.306-7.823c-2.564 0-4.469.871-5.712 2.613-1.244 1.741-1.866 4.479-1.866 8.21 0 3.561.638 6.242 1.909 8.045 1.273 1.805 3.163 2.706 5.67 2.706 2.565 0 4.47-.864 5.713-2.591 1.244-1.727 1.866-4.447 1.866-8.16 0-3.588-.639-6.289-1.917-8.103s-3.165-2.72-5.663-2.72zm1.5 15.674c-.292.92-.792 1.379-1.5 1.379-.697 0-1.195-.445-1.493-1.336-.297-.89-.444-2.521-.444-4.895 0-2.393.147-4.038.444-4.938.298-.9.795-1.351 1.493-1.351.699 0 1.196.468 1.493 1.399.297.933.445 2.562.445 4.888.001 2.319-.146 3.936-.438 4.854zm15.726-15.674c-2.564 0-4.47.871-5.713 2.613-1.244 1.741-1.866 4.479-1.866 8.21 0 3.561.637 6.242 1.91 8.045 1.271 1.805 3.163 2.706 5.669 2.706 2.564 0 4.469-.864 5.713-2.591s1.866-4.447 1.866-8.16c0-3.588-.64-6.289-1.917-8.103-1.277-1.813-3.164-2.72-5.662-2.72zm1.5 15.674c-.292.92-.792 1.379-1.5 1.379-.699 0-1.196-.445-1.493-1.336-.296-.89-.444-2.521-.444-4.895 0-2.393.148-4.038.444-4.938.297-.9.794-1.351 1.493-1.351.697 0 1.196.468 1.493 1.399.297.933.444 2.562.444 4.888.001 2.319-.146 3.936-.437 4.854zm13.644-7.851c.526-.469.967-.918 1.321-1.35a72.131 72.131 0 0 0-.086 3.703v11.11h5.756V241.33h-5.11l-7.207 5.872 2.943 3.617 2.383-1.967zm11.899-1.651 2.941 3.617 2.383-1.967a12.32 12.32 0 0 0 1.321-1.35 72.131 72.131 0 0 0-.086 3.703v11.11h5.756V241.33h-5.109l-7.206 5.871zm-95.944 38.934c-2.565 0-4.469.871-5.713 2.611-1.244 1.742-1.866 4.479-1.866 8.211 0 3.561.636 6.242 1.909 8.045 1.273 1.805 3.163 2.707 5.67 2.707 2.565 0 4.469-.865 5.713-2.592s1.866-4.447 1.866-8.16c0-3.588-.638-6.289-1.916-8.104-1.279-1.814-3.165-2.718-5.663-2.718zm1.5 15.676c-.292.918-.792 1.378-1.5 1.378-.699 0-1.196-.444-1.493-1.336-.297-.89-.445-2.521-.445-4.896 0-2.392.148-4.037.445-4.938.296-.898.794-1.35 1.493-1.35.698 0 1.196.467 1.493 1.398.296.934.444 2.562.444 4.889.001 2.317-.145 3.935-.437 4.855zm14.879 5.611h5.756v-20.985h-5.11l-7.206 5.871 2.942 3.616 2.383-1.967c.526-.467.966-.918 1.32-1.349a72.103 72.103 0 0 0-.086 3.703l.001 11.111zm18.071-21.287c-2.564 0-4.469.871-5.713 2.611-1.244 1.742-1.866 4.479-1.866 8.211 0 3.561.636 6.242 1.909 8.045 1.272 1.805 3.163 2.707 5.67 2.707 2.564 0 4.469-.865 5.713-2.592 1.245-1.727 1.866-4.447 1.866-8.16 0-3.588-.64-6.289-1.916-8.104-1.277-1.812-3.165-2.718-5.663-2.718zm1.501 15.676c-.292.918-.792 1.378-1.5 1.378-.699 0-1.196-.444-1.493-1.336-.296-.89-.444-2.521-.444-4.896 0-2.392.148-4.037.444-4.938.297-.898.794-1.35 1.493-1.35.698 0 1.196.467 1.493 1.398.296.934.443 2.562.443 4.889 0 2.317-.145 3.935-.436 4.855zm8.318-9.503 2.941 3.616 2.383-1.967c.526-.467.967-.918 1.32-1.349a73.26 73.26 0 0 0-.086 3.703v11.11h5.756v-20.985h-5.11l-7.204 5.872zm24.632-6.173c-2.564 0-4.47.871-5.713 2.611-1.244 1.742-1.866 4.479-1.866 8.211 0 3.561.637 6.242 1.91 8.045 1.271 1.805 3.163 2.707 5.669 2.707 2.564 0 4.469-.865 5.713-2.592s1.866-4.447 1.866-8.16c0-3.588-.64-6.289-1.917-8.104-1.277-1.812-3.164-2.718-5.662-2.718zm1.5 15.676c-.292.918-.792 1.378-1.5 1.378-.699 0-1.196-.444-1.493-1.336-.296-.89-.444-2.521-.444-4.896 0-2.392.148-4.037.444-4.938.297-.898.794-1.35 1.493-1.35.697 0 1.196.467 1.493 1.398.297.934.444 2.562.444 4.889.001 2.317-.146 3.935-.437 4.855zm15.725-15.676c-2.565 0-4.469.871-5.713 2.611-1.244 1.742-1.866 4.479-1.866 8.211 0 3.561.636 6.242 1.909 8.045 1.271 1.805 3.163 2.707 5.67 2.707 2.563 0 4.469-.865 5.713-2.592s1.866-4.447 1.866-8.16c0-3.588-.64-6.289-1.916-8.104-1.278-1.814-3.165-2.718-5.663-2.718zm1.5 15.676c-.292.918-.792 1.378-1.5 1.378-.699 0-1.197-.444-1.493-1.336-.297-.89-.445-2.521-.445-4.896 0-2.392.148-4.037.445-4.938.296-.898.794-1.35 1.493-1.35.698 0 1.196.467 1.493 1.398.296.934.443 2.562.443 4.889.001 2.317-.144 3.935-.436 4.855zm8.318-9.503 2.941 3.616 2.383-1.967a12.23 12.23 0 0 0 1.321-1.349 72.103 72.103 0 0 0-.086 3.703v11.11h5.756v-20.985h-5.109l-7.206 5.872zm24.632-6.173c-2.565 0-4.47.871-5.713 2.611-1.245 1.742-1.866 4.479-1.866 8.211 0 3.561.637 6.242 1.909 8.045 1.272 1.805 3.162 2.707 5.67 2.707 2.563 0 4.469-.865 5.713-2.592s1.866-4.447 1.866-8.16c0-3.588-.639-6.289-1.916-8.104-1.277-1.812-3.165-2.718-5.663-2.718zm1.5 15.676c-.292.918-.792 1.378-1.5 1.378-.699 0-1.196-.444-1.493-1.336-.296-.89-.444-2.521-.444-4.896 0-2.392.148-4.037.444-4.938.297-.898.794-1.35 1.493-1.35.697 0 1.195.467 1.493 1.398.296.934.443 2.562.443 4.889.001 2.317-.144 3.935-.436 4.855zm-104.85 29.431c-2.565 0-4.469.871-5.713 2.611-1.245 1.742-1.867 4.479-1.867 8.211 0 3.561.637 6.242 1.91 8.046 1.273 1.804 3.162 2.706 5.67 2.706 2.565 0 4.469-.863 5.712-2.591 1.243-1.728 1.865-4.447 1.865-8.16 0-3.589-.639-6.29-1.916-8.103-1.276-1.815-3.165-2.72-5.661-2.72zm1.5 15.674c-.292.918-.792 1.377-1.5 1.377-.699 0-1.196-.444-1.493-1.334-.297-.891-.445-2.521-.445-4.896 0-2.392.148-4.038.445-4.938.297-.898.794-1.349 1.493-1.349.698 0 1.196.466 1.493 1.4.297.933.445 2.562.445 4.887-.001 2.318-.147 3.935-.438 4.853zm8.318-9.502 2.942 3.617 2.383-1.967c.526-.469.967-.918 1.32-1.35a71.01 71.01 0 0 0-.086 3.703v11.11h5.756v-20.985h-5.11l-7.205 5.872zm17.225 0 2.941 3.617 2.383-1.967c.526-.469.967-.918 1.32-1.35a73.289 73.289 0 0 0-.086 3.703v11.11h5.756v-20.985h-5.11l-7.204 5.872zm17.225 0 2.943 3.617 2.383-1.967c.525-.469.966-.918 1.32-1.35a72.063 72.063 0 0 0-.087 3.703v11.11h5.757v-20.985h-5.11l-7.206 5.872zm24.632-6.172c-2.565 0-4.469.871-5.713 2.611-1.244 1.742-1.866 4.479-1.866 8.211 0 3.561.636 6.242 1.909 8.046 1.271 1.804 3.163 2.706 5.67 2.706 2.563 0 4.469-.863 5.713-2.591s1.866-4.447 1.866-8.16c0-3.589-.64-6.29-1.916-8.103-1.278-1.815-3.165-2.72-5.663-2.72zm1.5 15.674c-.292.918-.792 1.377-1.5 1.377-.699 0-1.197-.444-1.493-1.334-.297-.891-.445-2.521-.445-4.896 0-2.392.148-4.038.445-4.938.296-.898.794-1.349 1.493-1.349.698 0 1.196.466 1.493 1.4.296.933.443 2.562.443 4.887.001 2.318-.144 3.935-.436 4.853z"/></svg>