<svg xmlns="http://www.w3.org/2000/svg" width="16" height="16" viewBox="0 0 4.233 4.233"><path fill="#fff" d="m2.117 0-.185.009L2.117 0zm.179.009.113.014-.113-.014zm-.453.012L1.72.039 1.842.02zm.664.017.099.022-.099-.022zm-.861.019L1.511.09l.134-.034zm1.072.032.09.03-.09-.03zM1.447.111l-.137.05.137-.05zm1.465.045.105.048-.105-.048zM1.253.187l-.138.067.138-.067zm1.846.056.103.058-.103-.058zM1.077.276.931.365l.146-.089zm2.207.076.089.064-.089-.064zM.902.386l-.14.107.14-.107zm2.553.093.082.072-.082-.072zM.734.517l-.128.12.128-.12zm2.878.104.07.076-.07-.076zM.583.661.467.794.583.661zM.467.794c-.129.16-.233.339-.311.529h1.961a.397.397 0 0 1 0 .794H0c0 .481.164.948.465 1.323h1.388v-.794h.265a.929.929 0 0 0 .926-.926.929.929 0 0 0-.926-.926H.467zm-.311.529-.068.196.068-.196zM3.755.778l.063.082-.063-.082zm.126.171.051.082-.051-.082zm.109.185.04.083-.04-.083zm.087.188.038.105-.038-.105zm.068.195.028.111-.028-.111zm-4.065.03-.041.174.041-.174zm4.116.18.015.097-.015-.097zM.03 1.776l-.021.151.021-.151zm4.195.162.009.179-.009-.179zm0 .358-.014.113.014-.113zm-.029.21-.022.099.022-.099zm-.05.21-.03.09.03-.09zm-.068.195-.048.105.048-.105zm-.087.188-.058.103.058-.103zm-.109.185-.064.089.064-.089zm-.126.171-.072.082.072-.082zm-3.274.003.125.14-.125-.14zm.125.14c.049.05.1.098.154.143l-.154-.143zm3.008.015-.076.07.076-.07zm-.158.142-.082.063.082-.063zm-2.661.012.132.1-.132-.1zm2.49.114-.082.051.082-.051zm-2.3.022zm2.115.087-.083.04.083-.04zm-1.953.006.151.072-.151-.072zm1.765.081-.105.038.105-.038zm-1.529.022.114.041-.114-.041zm1.333.047-.111.028.111-.028zm-.21.05-.097.015.097-.015zm-.714.01.122.018-.122-.018zm.503.019-.179.009.179-.009z"/><path d="M2.117 0a2.117 2.117 0 0 0-1.65.794h1.65a.926.926 0 1 1 0 1.852h-.265v.794H.465a2.117 2.117 0 0 0 3.769-1.323A2.117 2.117 0 0 0 2.117 0zM.156 1.323A2.117 2.117 0 0 0 0 2.117h2.117a.397.397 0 1 0 0-.794z"/></svg>