<svg xmlns="http://www.w3.org/2000/svg" xmlns:xlink="http://www.w3.org/1999/xlink" width="24" height="24" viewBox="0 0 6.35 6.35"><defs><linearGradient id="a"><stop offset="0" stop-color="#4ed8ff"/><stop offset="1" stop-color="#ff14b3"/></linearGradient><linearGradient xlink:href="#a" id="b" x1="-582.839" x2="-348.246" y1="320.434" y2="582.166" gradientTransform="translate(243.595 7.31) scale(.30154)" gradientUnits="userSpaceOnUse"/><filter id="c" width="1.04" height="1.061" x="-.02" y="-.03" color-interpolation-filters="sRGB"><feGaussianBlur stdDeviation="6.289"/></filter></defs><g transform="translate(-4.534 -7.673) scale(.0735)"><circle cx="104.886" cy="147.588" r="43.197" fill="url(#b)"/><path d="M648.422 347.873a242.892 248.482 0 0 0-212.375 128.67 181.338 185.518 0 0 0-30.518-2.742 181.338 185.518 0 0 0-181.234 185.517A181.338 185.518 0 0 0 395.77 844.416v.422h449.766v-.106A142.414 145.756 0 0 0 985.043 699.08a142.414 145.756 0 0 0-96.637-137.738A242.892 248.482 0 0 0 648.422 347.98zM518.566 509.449a34.358 35.12 0 0 1 34.357 35.121 34.358 35.12 0 0 1-34.357 35.121 34.358 35.12 0 0 1-34.357-35.12 34.358 35.12 0 0 1 34.357-35.122zm158.607 24.363 181.338 240.15-426.617.317 119.992-159.256a22871.276 23238.74 0 0 1 79.926 119.073l24.186-18.35-54.287-78.785z" filter="url(#c)" opacity=".314" transform="translate(63.079 104.916) scale(.07075)"/><path fill="#fff" d="M107.884 128.766a17.184 17.58 0 0 0-15.024 9.104 12.829 13.125 0 0 0-2.16-.194A12.829 13.125 0 0 0 77.88 150.8a12.829 13.125 0 0 0 12.13 13.095v.03h31.82v-.007a10.075 10.312 0 0 0 9.87-10.304 10.075 10.312 0 0 0-6.838-9.745 17.184 17.58 0 0 0-16.978-15.094zm-9.186 11.432a2.43 2.485 0 0 1 2.43 2.484 2.43 2.485 0 0 1-2.43 2.485 2.43 2.485 0 0 1-2.43-2.485 2.43 2.485 0 0 1 2.43-2.484zm11.22 1.723 12.83 16.99-30.182.022 8.49-11.266a1618.05 1644.047 0 0 1 5.653 8.423l1.711-1.298-3.84-5.573z"/></g></svg>