<svg xmlns="http://www.w3.org/2000/svg" xmlns:xlink="http://www.w3.org/1999/xlink" width="297mm" height="210mm"><defs><linearGradient id="b"><stop offset="0" style="stop-color:#669;stop-opacity:1"/><stop offset="1" style="stop-color:#fff;stop-opacity:1"/></linearGradient><linearGradient id="a"><stop offset="0" style="stop-color:#f90;stop-opacity:1"/><stop offset="1" style="stop-color:#fff;stop-opacity:1"/></linearGradient><linearGradient xlink:href="#a" id="g" x1="962.807" x2="239.323" y1="487.914" y2="-422.628" gradientUnits="userSpaceOnUse"/><linearGradient xlink:href="#b" id="c" x1="996.753" x2="-635.195" y1="572.643" y2="-1226.594" gradientUnits="userSpaceOnUse"/><linearGradient xlink:href="#a" id="h" x1="962.807" x2="239.323" y1="487.914" y2="-422.628" gradientUnits="userSpaceOnUse"/><linearGradient xlink:href="#a" id="i" x1="962.807" x2="239.323" y1="487.914" y2="-422.628" gradientUnits="userSpaceOnUse"/><linearGradient xlink:href="#a" id="j" x1="962.807" x2="239.323" y1="487.914" y2="-422.628" gradientUnits="userSpaceOnUse"/><linearGradient xlink:href="#a" id="k" x1="962.807" x2="239.323" y1="487.914" y2="-422.628" gradientUnits="userSpaceOnUse"/><linearGradient xlink:href="#b" id="d" x1="996.753" x2="-635.195" y1="572.643" y2="-1226.594" gradientUnits="userSpaceOnUse"/><linearGradient xlink:href="#b" id="e" x1="996.753" x2="-635.195" y1="572.643" y2="-1226.594" gradientUnits="userSpaceOnUse"/><linearGradient xlink:href="#b" id="f" x1="996.753" x2="-635.195" y1="572.643" y2="-1226.594" gradientUnits="userSpaceOnUse"/></defs><g style="display:inline"><g fill="none" style="fill:#000;fill-opacity:0;stroke:#000;stroke-width:3.83385825;stroke-linejoin:round;stroke-miterlimit:4;stroke-opacity:.85098039;stroke-dasharray:none"><g style="fill:#000;fill-opacity:0;stroke:#000;stroke-width:3.83385825;stroke-linejoin:round;stroke-miterlimit:4;stroke-opacity:.85098039;stroke-dasharray:none;display:inline"><path fill="none" d="M976.338 451.426c10.718-1.278 17.603-3.578 20.415-6.898L888.81 457.8h-.767L450.63 510.885h-.256c.512 22.97 10.464 40.575 30.624 53.594 5.365 3.564 10.974 6.375 16.082 8.164 4.588-5.366 10.21-9.698 16.586-13.273h.255c57.169-34.7 142.142-40.066 254.429-16.584l1.275.51c12.255 2.55 24.25 5.61 35.733 8.932 3.565.51 6.376-.257 8.676-2.301 4.076-3.066 9.186-5.352 16.072-7.141v-.256c17.873-32.155 42.62-55.894 73.242-71.2 21.183-10.72 45.43-17.356 72.99-19.904zM573.379 152.59c-.255-.256-.511-.51-1.011-.51-.512 0-.767 0-1.021.254-.257.256-.511.768-.767 1.277l-20.415 331.493v.256c.256-.256.51-.256.51-.256s.257-.252.51-.252c.77 0 1.269 0 2.034.252l20.67-331.493c0-.256-.253-.765-.51-1.021zm172.266-81.917c-.256-.257-.512-.768-1.021-.768-.512 0-.768.51-1.277.51a1.952 1.952 0 0 0-.513 1.278l-21.69 392.743h2.043c.254 0 .254 0 .51-.26v-.245h.513L745.39 81.9v-.767h.257l-.256-.255h.256l-.256-.257c0-.254 0-.254.256-.511-.256 0-.256 0-.256-.257v-.252h.256c-.256 0-.256 0-.256-.257h.256l.255-7.653c-.002-.51-.002-.764-.257-1.02z" style="fill:#000;fill-opacity:0;stroke:#000;stroke-width:3.83385825;stroke-linejoin:round;stroke-miterlimit:4;stroke-opacity:.85098039;stroke-dasharray:none" transform="translate(54.355 1.646)"/></g><path fill="none" d="m794.896 309.538-1.277-2.3-55.127-97.235c26.547 55.128 36.243 138.066 29.092 249.076l104.632-12.764-77.32-136.777zM714 461.122l25.002-383.053c-36.487 139.854-94.424 270.257-174.297 391.473L714 461.122zm-169.711 17.093 21.947-323.581-115.862 333.28 93.915-9.7zM746.4 80.369l-.245.254V81.9l-.255.258h.255v.51l26.794 44.396-2.813-4.075c18.883 55.369 26.803 114.84 23.738 177.61v.252l.254.256c.257.512.768.766 1.02 1.277 0 0 0 .256.257.512l24.749 43.642c.254.256.254.51.254 1.023h.257c.51.25.51.508 1.02.765 37.768 33.178 80.64 55.627 127.86 67.366l11.479 18.628c.504 0 1.017 0 1.27.509.257-.254.257-.51.513-.51L746.4 80.37z" style="fill:#000;fill-opacity:0;stroke:#000;stroke-width:3.83385825;stroke-linejoin:round;stroke-miterlimit:4;stroke-opacity:.85098039;stroke-dasharray:none;display:inline" transform="translate(54.355 1.646)"/></g></g><g style="display:inline"><path d="m847.619 307.239 1.277 2.299-1.277-2.3z"/><g style="fill:url(#c);fill-opacity:1" transform="translate(54)"><path d="M976.338 451.426c10.718-1.278 17.603-3.578 20.415-6.898L888.81 457.8h-.767L450.63 510.885h-.256c.512 22.97 10.464 40.575 30.624 53.594 5.365 3.564 10.974 6.375 16.082 8.164 4.588-5.366 10.21-9.698 16.586-13.273h.255c57.169-34.7 142.142-40.066 254.429-16.584l1.275.51c12.255 2.55 24.25 5.61 35.733 8.932 3.565.51 6.376-.257 8.676-2.301 4.076-3.066 9.186-5.352 16.072-7.141v-.256c17.873-32.155 42.62-55.894 73.242-71.2 21.183-10.72 45.43-17.356 72.99-19.904z" style="fill:url(#d);fill-opacity:1"/><path d="M573.379 152.59c-.255-.256-.511-.51-1.011-.51-.512 0-.767 0-1.021.254-.257.256-.511.768-.767 1.277l-20.415 331.493v.256c.256-.256.51-.256.51-.256s.257-.252.51-.252c.77 0 1.269 0 2.034.252l20.67-331.493c0-.256-.253-.765-.51-1.021z" style="fill:url(#e);fill-opacity:1"/><path d="M745.645 70.673c-.256-.257-.512-.768-1.021-.768-.512 0-.768.51-1.277.51a1.952 1.952 0 0 0-.513 1.278l-21.69 392.743h2.043c.254 0 .254 0 .51-.26v-.245h.513L745.39 81.9v-.767h.257l-.256-.255h.256l-.256-.257c0-.254 0-.254.256-.511-.256 0-.256 0-.256-.257v-.252h.256c-.256 0-.256 0-.256-.257h.256l.255-7.653c-.002-.51-.002-.764-.257-1.02z" style="fill:url(#f);fill-opacity:1"/></g><path d="M800.155 79.856v.257h.246l-.246-.257z"/><path d="M485.731 510.312h-.766" style="fill:none;stroke:#000;stroke-width:0;stroke-linecap:round;stroke-linejoin:round" transform="translate(457.079 -52.512)"/><path d="M598.289 478.215h0" style="fill:none;stroke:#000;stroke-width:0;stroke-linecap:round;stroke-linejoin:round"/><path d="M390.54 359.751h0l1.277 2.299" style="fill:none;stroke:#000;stroke-width:0;stroke-linecap:round;stroke-linejoin:round" transform="translate(457.079 -52.512)"/><g style="display:inline"><g style="fill:none;stroke:#00002b"><path d="M213.43 634.596c-5.353-2.045-11.229-3.323-17.348-3.834-12.509-.767-27.56 4.088-45.177 14.552-17.605 10.464-38.786 14.796-64.046 12.508m58.948-25.271c-28.834 13.785-50.016 16.084-63.033 7.4-13.273-8.934-33.689-6.634-61.247 6.385m349.364-37.767c-121.472-25.012-209.01-19.147-262.602 17.862m339.154-5.876c-5.354-2.034-11.229-3.31-17.351-3.819-12.506-1.022-27.557 3.819-45.171 14.282-17.607 10.72-38.791 14.809-64.048 12.763" style="fill:none;stroke:#00002b;stroke-width:1.20000005;stroke-linecap:round;stroke-linejoin:round" transform="translate(457.079 -52.512)"/></g></g></g><g style="display:inline"><g style="fill:url(#g);fill-opacity:1" transform="translate(54)"><path d="m794.896 309.538-1.277-2.3-55.127-97.235c26.547 55.128 36.243 138.066 29.092 249.076l104.632-12.764-77.32-136.777z" style="fill:url(#h);fill-opacity:1;display:inline"/><path d="m714 461.122 25.002-383.053c-36.487 139.854-94.424 270.257-174.297 391.473L714 461.122z" style="fill:url(#i);fill-opacity:1;display:inline"/><path d="m544.289 478.215 21.947-323.581-115.862 333.28 93.915-9.7z" style="fill:url(#j);fill-opacity:1;display:inline"/><path d="m746.4 80.369-.245.254V81.9l-.255.258h.255v.51l26.794 44.396-2.813-4.075c18.883 55.369 26.803 114.84 23.738 177.61v.252l.254.256c.257.512.768.766 1.02 1.277 0 0 0 .256.257.512l24.749 43.642c.254.256.254.51.254 1.023h.257c.51.25.51.508 1.02.765 37.768 33.178 80.64 55.627 127.86 67.366l11.479 18.628c.504 0 1.017 0 1.27.509.257-.254.257-.51.513-.51L746.4 80.37z" style="fill:url(#k);fill-opacity:1;display:inline"/></g></g><g style="display:inline"><path d="M284.374 208.167c-12.495-7.919-25.77-5.874-39.044 6.12-11.74-11.994-24.246-14.039-36.998-6.12m47.718-42.874c-12.762-7.653-25.269-4.855-38.021 9.185-12.506-14.04-25.27-16.838-38.032-9.185" style="fill:none;stroke:#000;stroke-width:2.9000001;stroke-linecap:round;stroke-linejoin:round" transform="translate(554.456 -31.659) scale(.6103)"/><g style="stroke:#000;stroke-opacity:.4807692;display:inline"><path d="M284.374 208.167c-12.495-7.919-25.77-5.874-39.044 6.12-11.74-11.994-24.246-14.039-36.998-6.12m47.718-42.874c-12.762-7.653-25.269-4.855-38.021 9.185-12.506-14.04-25.27-16.838-38.032-9.185" style="fill:none;stroke:#000;stroke-width:2.9000001;stroke-linecap:round;stroke-linejoin:round;stroke-opacity:.4807692" transform="translate(554.136 -30.438) scale(.6103)"/></g></g><g style="display:inline"><g style="font-size:40px;font-style:normal;font-weight:400;fill:#000;fill-opacity:0;stroke:#000;stroke-width:13.81889725;stroke-linejoin:round;stroke-miterlimit:4;stroke-opacity:.85;font-family:Bitstream Vera Sans"><path fill="none" d="M59.713 548.399 45.018 591.64h12.234c8.11 0 14.433-1.711 18.972-5.133 4.538-3.422 8.16-9.117 10.867-17.086 2.613-7.687 2.91-13.113.892-16.277-2.018-3.164-6.848-4.746-14.489-4.746zm-14.47-16.383h38.6c11.626 0 19.533 3.422 23.722 10.266 4.19 6.843 4.206 16.382.049 28.617-1.706 5.015-3.95 9.62-6.735 13.816-2.785 4.195-6.149 8.028-10.092 11.496-4.7 4.172-9.653 7.16-14.86 8.965-5.208 1.805-11.608 2.707-19.202 2.707H39.498l-9.342 27.492h-20.04zm97.232-27.492h19.899l-9.343 27.492h17.79c11.155 0 18.485 2.191 21.987 6.574 3.503 4.383 3.597 11.45.284 21.2l-16.344 48.093h-20.18l15.557-45.773c1.767-5.203 2.02-8.742.758-10.618-1.26-1.874-4.446-2.812-9.555-2.812h-15.961l-20.119 59.203H107.35zm91.895 43.875-14.696 43.242h12.235c8.109 0 14.433-1.711 18.97-5.133 4.539-3.422 8.161-9.117 10.868-17.086 2.614-7.687 2.911-13.113.893-16.277-2.02-3.164-6.849-4.746-14.49-4.746zm-14.472-16.383H258.5c11.625 0 19.532 3.422 23.722 10.266 4.189 6.843 4.205 16.382.048 28.617-1.705 5.015-3.95 9.62-6.735 13.816-2.785 4.195-6.149 8.028-10.092 11.496-4.7 4.172-9.652 7.16-14.86 8.965-5.208 1.805-11.608 2.707-19.202 2.707h-17.226l-9.343 27.492h-20.04zm99.272-27.492h31.923l-.585 79.312 53.319-79.312h31.781l-35.125 103.36h-21.305l29.118-80.509-53.868 80.508h-23.062l.294-81.351-25.466 81.351h-22.149zm138.89 86.625h16.101l20.097-59.133h20.039l-25.089 73.828c-3.41 10.031-8.279 17.461-14.607 22.29-6.328 4.827-14.32 7.241-23.977 7.241H411.32l5.234-15.398h35.859c3.844 0 7.111-.926 9.802-2.777 2.69-1.852 4.634-4.536 5.83-8.051l.43-1.266h-17.719c-11.344 0-18.669-2.238-21.975-6.715-3.306-4.476-3.183-11.941.367-22.394l15.89-46.758h19.83l-15.364 45.21c-1.946 5.72-2.365 9.47-1.26 11.25 1.107 1.782 4.378 2.673 9.816 2.673zm118.859-66.094-28.64 39.797h30.798zm-3.71-20.531h23.063l8.96 103.36h-24.187l-1.13-24.61h-44.929l-17.574 24.61H494.35zM666.3 591.64l14.694-43.241h-12.093c-8.11 0-14.44 1.699-18.993 5.097-4.553 3.399-8.176 9.059-10.868 16.98-2.613 7.688-2.907 13.138-.881 16.349 2.026 3.21 6.835 4.816 14.43 4.816zm14.448 16.243h-38.46c-11.626 0-19.533-3.422-23.722-10.266-4.19-6.843-4.206-16.382-.049-28.617 1.706-5.015 3.95-9.62 6.735-13.816 2.785-4.195 6.149-8.027 10.092-11.496 4.7-4.172 9.664-7.16 14.895-8.965 5.231-1.805 11.62-2.707 19.167-2.707h17.156l9.343-27.492h19.969zm43.291-75.867h76.922c11.156 0 18.455 2.18 21.896 6.539 3.44 4.36 3.495 11.438.164 21.234l-16.343 48.094h-20.18l15.46-45.492c1.896-5.578 2.302-9.258 1.22-11.04-1.083-1.78-4.249-2.671-9.499-2.671h-11.25l-20.118 59.203H741.85l20.118-59.203h-23.414l-20.118 59.203h-20.18zm150.245-8.649H853.26l6.403-18.843h21.023zm-28.723 84.516h-21.024l25.783-75.867h21.024zm43.009-75.867h37.688c11.39 0 18.794 2.145 22.212 6.434 3.417 4.289 3.437 11.402.06 21.34l-16.344 48.093h-20.04l15.51-45.633c1.927-5.672 2.298-9.351 1.113-11.039-1.185-1.687-4.426-2.531-9.723-2.531h-16.101l-20.119 59.203h-20.039z" style="fill:#000;fill-opacity:0;stroke:#000;font-family:HandelGothic BT;-inkscape-font-specification:HandelGothic BT Italic" transform="translate(-2)"/></g></g><g style="display:inline"><g style="font-size:40px;font-style:normal;font-weight:400;fill:#000;fill-opacity:1;stroke:#fff;stroke-width:3.12519693;stroke-linejoin:round;stroke-miterlimit:4;font-family:Bitstream Vera Sans"><path d="m58.067 546.17-14.695 43.242h12.234c8.11 0 14.433-1.71 18.971-5.133 4.538-3.422 8.161-9.117 10.868-17.086 2.613-7.687 2.91-13.113.892-16.277-2.018-3.164-6.848-4.746-14.489-4.746zm-14.471-16.383h38.602c11.624 0 19.532 3.422 23.721 10.266 4.19 6.843 4.206 16.383.049 28.617-1.706 5.016-3.95 9.621-6.735 13.816-2.785 4.196-6.149 8.028-10.092 11.496-4.7 4.172-9.653 7.16-14.86 8.965-5.208 1.805-11.608 2.707-19.202 2.707H37.852l-9.343 27.492H8.47zm97.234-27.492h19.898l-9.343 27.492h17.79c11.155 0 18.485 2.192 21.987 6.574 3.502 4.383 3.597 11.45.284 21.2l-16.344 48.093h-20.18l15.557-45.773c1.767-5.203 2.02-8.742.758-10.617-1.261-1.875-4.446-2.813-9.556-2.813h-15.96l-20.119 59.203h-19.898zm91.893 43.875-14.695 43.242h12.234c8.11 0 14.434-1.71 18.972-5.133 4.538-3.422 8.16-9.117 10.867-17.086 2.614-7.687 2.91-13.113.892-16.277-2.018-3.164-6.848-4.746-14.488-4.746zm-14.47-16.383h38.6c11.626 0 19.533 3.422 23.722 10.266 4.19 6.843 4.206 16.383.049 28.617-1.705 5.016-3.95 9.621-6.735 13.816-2.785 4.196-6.149 8.028-10.092 11.496-4.7 4.172-9.653 7.16-14.86 8.965-5.208 1.805-11.608 2.707-19.202 2.707H212.51l-9.343 27.492h-20.04z" style="fill:#669;fill-opacity:1;stroke:#fff;font-family:HandelGothic BT;-inkscape-font-specification:HandelGothic BT Italic" transform="translate(-2)"/><path d="M317.525 502.295h31.922l-.585 79.312 53.319-79.312h31.781l-35.125 103.36h-21.305l29.118-80.509-53.868 80.508H329.72l.294-81.351-25.466 81.351h-22.149zm138.889 86.625h16.101l20.097-59.133h20.039l-25.089 73.828c-3.41 10.031-8.28 17.461-14.607 22.29-6.328 4.827-14.32 7.241-23.977 7.241h-39.304l5.233-15.398h35.86c3.844 0 7.11-.926 9.802-2.777 2.69-1.852 4.634-4.536 5.83-8.051l.43-1.266H449.11c-11.344 0-18.669-2.238-21.975-6.715-3.306-4.476-3.184-11.941.367-22.394l15.89-46.758h19.829l-15.363 45.211c-1.946 5.719-2.365 9.469-1.26 11.25 1.107 1.781 4.378 2.672 9.816 2.672zm118.859-66.094-28.64 39.797h30.797zm-3.71-20.531h23.063l8.96 103.36H579.4l-1.13-24.61h-44.93l-17.574 24.61h-23.062zm93.09 87.117 14.695-43.242h-12.093c-8.11 0-14.44 1.7-18.994 5.098-4.552 3.398-8.175 9.058-10.867 16.98-2.613 7.688-2.907 13.137-.881 16.348 2.026 3.21 6.835 4.816 14.43 4.816zm14.45 16.242H640.64c-11.625 0-19.532-3.422-23.721-10.265-4.19-6.844-4.206-16.383-.049-28.618 1.705-5.015 3.95-9.62 6.735-13.816 2.785-4.195 6.149-8.027 10.092-11.496 4.7-4.172 9.664-7.16 14.895-8.965 5.231-1.805 11.62-2.707 19.167-2.707h17.156l9.343-27.492h19.969zm43.29-75.867h76.922c11.156 0 18.454 2.18 21.895 6.54 3.441 4.359 3.496 11.437.165 21.233l-16.343 48.094h-20.18l15.46-45.492c1.896-5.578 2.302-9.258 1.22-11.039-1.083-1.781-4.25-2.672-9.499-2.672h-11.25l-20.118 59.203h-20.461l20.118-59.203h-23.414l-20.118 59.203h-20.18zm150.244-8.648h-21.023l6.403-18.844h21.023zm-28.722 84.515H822.89l25.783-75.867h21.024zm43.009-75.867h37.688c11.39 0 18.794 2.145 22.212 6.434 3.417 4.289 3.437 11.402.06 21.34l-16.344 48.093H910.5l15.509-45.633c1.928-5.671 2.299-9.351 1.114-11.039-1.185-1.687-4.426-2.53-9.723-2.53h-16.1l-20.119 59.202h-20.039z" style="fill:#f90;fill-opacity:1;stroke:#fff;font-family:HandelGothic BT;-inkscape-font-specification:HandelGothic BT Italic" transform="translate(-2)"/></g></g></svg>