<svg xmlns="http://www.w3.org/2000/svg" width="3890" height="2168"><g style="fill:#ccc"><path d="m2889.39 6.348-2.04-4.07c-1.01-1.01-2.03-2.04-4.06-2.04l-4.08 1.03c-2.03 2.03-3.05 3.05-3.05 5.08l-86.52 1566.347 13.24-2.035 83.46-1523.702 99.75 163.88h-1.02c75.32 221.88 106.87 458.02 94.66 708.41l6.11 9.16 98.73 175.06 6.1 6.11c151.66 133.336 321.63 222.907 509.94 268.707l45.8 74.309 6.11 2.031 1.02-2.031L2887.35 35.768l2.04-29.52"/><path d="M2858.86 559.028c106.87 218.84 145.54 549.63 117.05 992.392l416.29-50.894zM3807.48 1520.881c42.74-5.086 70.22-14.246 82.44-27.476l-2178.16 265.656h-1.02c1.02 90.586 41.73 161.836 121.12 212.723 21.37 15.269 43.77 26.465 64.12 33.59 19.34-22.387 40.72-38.676 66.17-53.946h1.01c228-138.422 566.94-159.8 1014.78-65.136l5.09 1.011c48.86 10.18 97.71 22.399 143.52 36.645 13.22 2.035 24.42-2.035 33.58-10.18 16.29-12.215 36.65-21.375 64.13-27.476v-1.02c72.27-128.25 169.97-222.906 292.12-284.996 84.48-41.727 182.19-69.215 291.1-79.395M2761.15 1560.585l99.74-1528.787c-144.53 557.77-376.6 1078.9-695.18 1562.369l595.44-33.582M2200.32 329.008l-4.07-2.04-4.07 1.02-2.04 5.08-82.44 1323.188 12.21-1.019 82.45-1322.169-2.04-4.06M2084.29 1627.756l87.53-1290.608-461.08 1330.308 373.55-39.7"/></g><g style="fill:none;stroke:#ccc;stroke-width:12;stroke-linecap:round;stroke-linejoin:round"><path d="M2102.61 2057.953c-115.02 54.961-198.48 64.121-251.41 30.54-52.93-35.626-134.36-27.486-244.28 24.421M2372.33 2066.093c-21.37-7.125-44.78-12.211-69.21-14.25-49.87-4.066-109.93 15.27-180.16 57.004-70.23 42.746-154.71 59.035-255.48 49.871M3000.34 1962.273c-484.5-99.742-833.61-76.336-1047.35 71.25M3305.69 2010.117c-21.38-8.145-44.79-13.235-69.22-14.254-49.87-4.067-109.92 15.269-180.15 57.004-70.23 41.726-154.71 58.011-255.48 49.87"/><path d="M2655.29 341.218c-49.88-30.54-101.78-22.39-155.73 25.44-46.82-47.83-95.67-55.98-146.57-25.44M2542.31 170.218c-50.89-30.53-100.76-18.32-151.66 36.64-49.88-54.96-100.76-67.17-151.66-36.64" style="stroke-width:29"/></g><g style="fill:#6c78af"><path d="M56.77 1763.86h134.915c40.538 0 70.305 11.54 89.303 34.615 18.99 23.081 25.153 55.242 18.485 96.488-2.734 16.92-7.612 32.45-14.637 46.593-7.028 14.145-16.309 27.067-27.846 38.758-13.718 14.068-29.074 24.148-46.078 30.23-17.003 6.082-38.749 9.124-65.23 9.124H85.588l-14.951 92.515H.472L56.77 1763.86zm61.253 55.105L94.41 1965.068h42.675c28.287 0 49.252-5.774 62.9-17.338 13.639-11.565 22.635-30.807 26.99-57.735 4.196-25.968 1.756-44.295-7.3-54.994-9.064-10.688-26.921-16.036-53.578-16.036h-48.074M378.242 1671.345h69.635l-14.952 92.515h61.95c38.99 0 66.012 7.39 81.076 22.157 15.069 14.777 19.952 38.58 14.643 71.433l-26.22 162.217h-70.69l24.953-154.389c2.842-17.551 1.465-29.487-4.124-35.815-5.59-6.32-17.284-9.487-35.069-9.487h-55.579l-32.274 199.691h-69.647l56.298-348.322M666.438 1763.86H801.35c40.547 0 70.305 11.54 89.303 34.615 18.995 23.081 25.154 55.242 18.49 96.488-2.734 16.92-7.616 32.45-14.633 46.593-7.033 14.145-16.322 27.067-27.85 38.758-13.723 14.068-29.077 24.148-46.082 30.23-17 6.082-38.744 9.124-65.235 9.124H695.26l-14.952 92.515h-70.161l56.29-348.323zm61.26 55.105-23.613 146.103h42.675c28.287 0 49.248-5.774 62.89-17.338 13.64-11.565 22.641-30.807 26.995-57.735 4.194-25.968 1.757-44.295-7.304-54.994-9.063-10.688-26.92-16.036-53.568-16.036h-48.075"/></g><g style="fill:#f89c0e"><path d="M1027.749 1597.324h134.947l59.281 323.869 163.973-323.869h134.433l-68.203 422.055h-90.095l60.562-328.744-165.335 328.744h-97.63l-62.092-332.19-44.47 332.19h-93.583l68.212-422.055M1682.335 1951.079h68.129l39.048-241.656h84.693l-48.747 301.634c-6.618 41.009-21.443 71.383-44.451 91.124-23.009 19.731-54.93 29.604-95.75 29.604h-166.078l10.151-62.788h151.499c16.257 0 29.364-3.8 39.322-11.39 9.944-7.604 16.1-18.611 18.427-33.034l.844-5.194h-74.965c-47.951 0-80.653-9.14-98.093-27.422-17.453-18.28-22.717-48.765-15.83-91.453l30.891-191.08h83.737l-29.863 184.764c-3.775 23.372-2.642 38.696 3.434 45.975 6.064 7.278 20.594 10.916 43.602 10.916M2102.304 1597.324h97.52l118.187 422.055h-102.273l-23.907-100.46h-189.955l-55.187 100.46h-97.532l253.147-422.055zm31.651 83.806-90.18 162.444h130.218l-40.038-162.444M2637.303 2019.38h-162.696c-49.164 0-85.267-13.98-108.32-41.942-23.04-27.957-30.505-66.932-22.43-116.913 3.316-20.491 9.228-39.31 17.75-56.446 8.522-17.142 19.771-32.797 33.76-46.972 16.628-17.041 35.31-29.25 56.03-36.624 20.721-7.375 47.045-11.06 78.96-11.06h72.662l18.113-112.099h84.386l-68.215 422.055zm-73.637-66.464 28.57-176.724h-51.223c-34.353 0-59.84 6.95-76.488 20.832-16.622 13.893-27.572 37.027-32.801 69.397-5.08 31.423-2.078 53.69 9.006 66.813 11.084 13.122 32.705 19.682 64.865 19.682h58.07M2761.023 1709.423h325.233c47.155 0 79.702 8.907 97.626 26.7 17.913 17.801 23.651 46.702 17.19 86.701l-31.771 196.555h-85.33l30.043-185.926c3.69-22.794 2.559-37.83-3.383-45.115-5.966-7.278-20.019-10.92-42.181-10.92h-47.51l-39.108 241.961h-86.604l39.108-241.961h-98.978l-39.107 241.961h-85.33l50.102-309.956M3389.651 1674.2h-88.82l12.422-76.876h88.821l-12.423 76.877zm-55.792 345.18h-88.821l50.09-309.957h88.82l-50.089 309.956M3457.211 1709.423h159.352c48.16 0 81.135 8.763 98.912 26.27 17.777 17.515 23.393 46.559 16.835 87.131l-31.76 196.555h-84.704l30.152-186.5c3.742-23.182 2.451-38.22-3.873-45.11-6.325-6.9-20.691-10.352-43.087-10.352h-68.116l-39.108 241.962h-84.692l50.09-309.956"/></g></svg>
