<svg xmlns="http://www.w3.org/2000/svg" width="258.305" height="380"><linearGradient id="a" x1="7.926" x2="204.053" y1="58.61" y2="58.61" gradientUnits="userSpaceOnUse"><stop offset="0" stop-color="#12b212"/><stop offset="1" stop-color="#0f0"/></linearGradient><g stroke-width="2.925"><path fill="url(#a)" d="M106.925 116.781C59.488 111.721 11.7 75.865 7.926 0c73.613 0 112.98 43.577 116.781 112.628 13.922-82.826 79.17-73.116 79.17-73.116 3.1 46.94-35.446 75.398-79.17 77.767C112.424 91.395 38.84 27.9 38.84 27.9a.205.205 0 0 0-.322.234s71.01 61.857 68.407 88.646"/><path fill="#980200" d="M129.153 380c-4.592-.263-47.438-1.901-50.041-50.04-2.106-29.247 20.999-50.802 20.999-79.2-5.235-70.806-100.11-62.032-100.11 0a58.318 58.318 0 0 0 17.05 41.354l70.689 70.718a58.318 58.318 0 0 0 41.354 17.051"/><path fill="red" d="M258.305 250.789c-.263 4.592-1.9 47.438-50.04 50.04-29.247 2.106-50.83-20.998-79.2-20.998-70.806 5.235-62.032 100.081 0 100.081a58.318 58.318 0 0 0 41.355-17.05l70.747-70.69a58.318 58.318 0 0 0 17.05-41.354"/><path fill="#980200" d="M129.153 121.636c4.592.263 47.438 1.901 50.04 50.041 2.106 29.247-20.998 50.801-20.998 79.2 5.235 70.805 100.081 62.031 100.081 0a58.318 58.318 0 0 0-17.05-41.355l-70.719-70.747a58.318 58.318 0 0 0-41.354-17.051"/><path fill="red" d="M.234 250.789c.263-4.592 1.901-47.438 50.04-50.04 29.247-2.107 50.831 20.998 79.2 20.998 70.806-5.323 62.032-100.081 0-100.081a58.318 58.318 0 0 0-41.354 17.05l-70.747 70.718A58.318 58.318 0 0 0 .322 250.79"/></g></svg>