<?xml version="1.0" standalone="no"?>
<!DOCTYPE svg PUBLIC "-//W3C//DTD SVG 1.0//EN" "http://www.w3.org/TR/2001/REC-SVG-20010904/DTD/svg10.dtd">
<svg xmlns="http://www.w3.org/2000/svg" xmlns:xlink="http://www.w3.org/1999/xlink" id="body_1" width="1024" height="1024">

<g transform="matrix(3.7795277 0 0 3.7795277 0 0)">
	<g>
        <path d="M0 -3.5527137E-15L270.93332 -3.5527137E-15L270.93332 270.93332L0 270.93332z" stroke="none" fill="#121212" fill-rule="nonzero" />
		<g transform="matrix(1.018061 0 0 1.0173191 625.67004 338.29425)">
            <path d="M-447.61288 -128.00815C -447.6129 -118.71735 -450.8977 -110.78714 -457.46725 -104.217545C -464.03687 -97.64795 -471.9671 -94.363144 -481.25787 -94.363144C -490.5487 -94.363144 -498.47888 -97.64795 -505.0485 -104.217545C -511.6181 -110.78714 -514.90295 -118.71735 -514.9029 -128.00815C -514.90295 -137.29897 -511.6181 -145.22916 -505.0485 -151.79875C -498.47888 -158.36835 -490.5487 -161.65315 -481.25787 -161.65315C -471.9671 -161.65315 -464.03687 -158.36835 -457.46725 -151.79875C -450.8977 -145.22916 -447.6129 -137.29897 -447.61288 -128.00815C -447.6129 -127.61664 -447.61972 -127.225235 -447.63336 -126.833954" stroke="none" fill="#43A047" fill-rule="nonzero" />
            <path d="M-481.7404 -270.7255L-481.7404 -208.86197" stroke="#43A047" stroke-width="67.3211" stroke-linecap="square" fill="none" />
		</g>
	</g>
</g>
</svg>