<svg xmlns="http://www.w3.org/2000/svg" viewBox="-20.805 0 129.93 129.93"><defs><linearGradient id="New_Gradient_Swatch_1" x1="2.71" x2="69.77" y1="20.04" y2="20.04" gradientUnits="userSpaceOnUse"><stop offset="0" stop-color="#12b212"/><stop offset="1" stop-color="#0f0"/></linearGradient><style>.cls-2{fill:#980200}.cls-3{fill:red}</style></defs><title>NewVortex</title><path fill="url(#New_Gradient_Swatch_1)" d="M36.56 39.93C20.34 38.2 4 25.94 2.71 0c25.17 0 38.63 14.9 39.93 38.51 4.76-28.32 27.07-25 27.07-25 1.06 16.05-12.12 25.78-27.07 26.59-4.2-8.85-29.36-30.56-29.36-30.56a.07.07 0 00-.11.08s24.28 21.15 23.39 30.31"/><path d="M44.16 129.93c-1.57-.09-16.22-.65-17.11-17.11-.72-10 7.18-17.37 7.18-27.08C32.44 61.53 0 64.53 0 85.74a19.94 19.94 0 005.83 14.14L30 124.06a19.94 19.94 0 0014.14 5.83" class="cls-2"/><path d="M88.32 85.75c-.09 1.57-.65 16.22-17.11 17.11-10 .72-17.38-7.18-27.08-7.18-24.21 1.79-21.21 34.22 0 34.22a19.94 19.94 0 0014.14-5.83L82.46 99.9a19.94 19.94 0 005.83-14.14" class="cls-3"/><path d="M44.16 41.59c1.57.09 16.22.65 17.11 17.11.72 10-7.18 17.37-7.18 27.08 1.79 24.21 34.22 21.21 34.22 0a19.94 19.94 0 00-5.83-14.14L58.3 47.45a19.94 19.94 0 00-14.14-5.83" class="cls-2"/><path d="M.08 85.75c.09-1.57.65-16.22 17.11-17.11 10-.72 17.38 7.18 27.08 7.18 24.21-1.82 21.21-34.22 0-34.22a19.94 19.94 0 00-14.14 5.83L5.94 71.61A19.94 19.94 0 00.11 85.75" class="cls-3"/><script/></svg>