<svg xmlns="http://www.w3.org/2000/svg" xmlns:xlink="http://www.w3.org/1999/xlink" version="1.1" id="Layer_2_00000000936060977030920260000014907713547463848612_" x="0px" y="0px" style="enable-background:new 0 0 512 512;" xml:space="preserve" viewBox="-0.04 142.97 512.04 226.03">
<style type="text/css">
	.st0{fill:#43A047;}
</style>
<g>
	<path class="st0" d="M512,357.9c-3.8,8.6-10.4,11.1-19.6,11.1c-138.8-0.2-277.5-0.2-416.3-0.1c-36.4,0-66-23.6-74.3-59.1   c-9.6-41.3,19.4-83.8,61.3-89.9c3.6-0.5,7.3-0.8,10.9-0.9c9.3-0.3,16-6.6,16.1-15c0.1-8.4-7-15-16.5-15.1c-19-0.1-38,0-57,0   c-9.8,0-16.4-5.9-16.5-14.9s6.5-15.1,16.2-15.1c19.7,0,39.3,0,59,0c24.4,0.1,44.5,19.8,44.7,43.8c0.3,25.4-18.9,45.5-44,46.1   c-24.5,0.6-42.4,16.2-45.6,40.4c-2.9,24.2,14.4,46.1,38.6,48.9c0.8,0.1,1.5,0.2,2.3,0.2c16.2,1.3,32.6,0.2,49.1,0.2   c6.6-62.1,35.2-111.3,86.8-146.5c29.9-20.4,63.2-31.1,99.1-32.9c-1.6,7.3-3.6,14.1-4.6,21.2c-5.3,40.1,24.4,78.1,64.8,82.7   c3.6,0.6,7.3,0.8,10.9,0.6c7.8-0.9,13.6-7.6,13.4-15.4c-0.4-8.1-6.9-14-15.7-14.4c-18.3-0.7-31.7-9.3-39.8-25.5   c-8.3-16.5-5-36.5,7.7-50.6c11.9-13.3,30.5-18.1,47.4-12.3c17.3,6.4,29.2,22.4,30.5,40.8c0.3,2.1,1.5,4.1,3.2,5.3   c44.3,30.6,72.6,72,83.9,124.8c1.6,7.5,2.6,15,3.8,22.5L512,357.9z M436,278.9c0-8.3-6.7-15-15-15c-8.3,0-15,6.7-15,15   c0,8.3,6.7,15,15,15c0,0,0,0,0.1,0C429.2,293.6,435.8,287,436,278.9z"/>
</g>
</svg>