<svg id="SvgjsSvg1001" width="288" height="288" xmlns="http://www.w3.org/2000/svg" version="1.1" xmlns:xlink="http://www.w3.org/1999/xlink" xmlns:svgjs="http://svgjs.com/svgjs"><defs id="SvgjsDefs1002"></defs><g id="SvgjsG1008"><svg xmlns="http://www.w3.org/2000/svg" viewBox="0 0 10 10" width="288" height="288"><g transform="translate(-11.627 -.284)" fill="#ffffff" class="color000 svgShape"><text style="line-height:125%;-inkscape-font-specification:'Adobe Garamond Pro Bold';text-align:start" x="17.094" y="9.109" stroke-width=".265" font-family="Adobe Garamond Pro" font-size="2.646" font-weight="700" letter-spacing="0" word-spacing="0" svgjs:data="{&quot;leading&quot;:&quot;1.3&quot;}"><tspan x="17.094" y="9.109"></tspan></text><path stroke-width=".282" d="m 4.2034012,25.805656 q -0.1706667,1.066667 -0.2986667,1.856 -0.128,0.789334 -0.2346667,1.365334 -0.1066666,0.576 -0.192,0.981333 -0.085333,0.405334 -0.1493333,0.725334 -0.2346667,0.981333 -0.5973334,1.472 -0.3413333,0.490666 -0.96,0.490666 -0.5546667,0 -0.87466668,-0.277333 -0.29866668,-0.277333 -0.27733335,-0.874667 0,-0.192 0.12800001,-0.384 0.128,-0.192 0.29866672,-0.298666 0.256,-0.170667 0.512,-0.469334 0.2773333,-0.32 0.5333333,-0.896 0.2773334,-0.576 0.5333334,-1.472 0.256,-0.896 0.4693333,-2.218667 -1.0666667,0 -1.728,0.192 -0.66133339,0.170667 -1.02400007,0.704 -0.10666667,0.170667 -0.23466667,0.149334 -0.12800001,-0.02133 -0.17066667,-0.298667 -0.02133334,-0.149333 0,-0.426667 0.02133333,-0.298666 0.14933333,-0.618666 0.12800001,-0.341334 0.36266668,-0.661334 0.23466668,-0.341333 0.6613334,-0.597333 0.3626666,-0.213333 0.832,-0.298667 0.4906667,-0.08533 1.1733333,-0.08533 h 4.6293335 q 1.2373334,0 1.7493334,-0.04267 0.533333,-0.04267 0.704,-0.149333 0.04267,-0.04267 0.106667,-0.02133 0.08533,0.02133 0.08533,0.192 0,0.469333 -0.213333,1.024 -0.2133336,0.533333 -0.5120003,0.746666 -0.1706667,0.106667 -0.4693334,0.149334 -0.2986666,0.04267 -0.9813333,0.04267 -0.4053334,1.514667 -0.4266667,2.965334 -0.042667,1.024 0.2346667,1.536 0.2773333,0.512 0.7253333,0.512 0.2346667,0 0.5333334,-0.128 0.2986666,-0.149333 0.6613333,-0.576 0.106667,-0.128 0.213333,-0.149333 0.128,-0.04267 0.213334,0 0.08533,0.04267 0.106666,0.170666 0.04267,0.106667 -0.02133,0.32 -0.426667,1.173334 -1.216,1.706667 -0.768,0.533333 -1.7280001,0.533333 -0.6186666,0 -1.0026667,-0.234666 -0.3626666,-0.234667 -0.576,-0.554667 -0.192,-0.341333 -0.256,-0.725333 -0.064,-0.384 -0.064,-0.704 0,-1.152001 0.4053334,-2.346667 0.4266666,-1.194667 0.896,-2.325334 z" aria-label="π" font-family="Adobe Garamond Pro" font-size="21.333" font-weight="700" letter-spacing="0" transform="translate(11.744 -21.123) scale(.93741)" word-spacing="0" fill="#ffffff" class="color000 svgShape"></path></g></svg></g></svg>