<svg xmlns="http://www.w3.org/2000/svg" xmlns:xlink="http://www.w3.org/1999/xlink" version="1.1" id="Layer_1" x="0px" y="0px" style="enable-background:new 0 0 512 512;" xml:space="preserve" viewBox="0 8.6 512 494.93">
<style type="text/css">
	.st0{fill:#46509E;}
	.st1{fill:#37474F;}
	.st2{fill:#FFFFFF;}
</style>
<g>
	<ellipse class="st0" cx="256" cy="255.2" rx="256" ry="246.6"/>
	<ellipse class="st1" cx="256" cy="220.4" rx="126.8" ry="112.4"/>
	<path class="st1" d="M382.8,469.5c-19.9,11.5-66.8,34.9-130.6,34c-43.2-0.7-85.6-12.4-123.1-34V222.9h253.7V469.5z"/>
	<path class="st2" d="M357.7,224.5v258.3c-64.9,27.6-138.2,27.6-203.1,0V224.5c0-51.9,45.5-93.9,101.6-93.9S357.7,172.6,357.7,224.5   z"/>
	<polygon class="st0" points="306.7,242.9 256,287.9 205.3,242.9  "/>
	<ellipse class="st1" cx="205.3" cy="209.2" rx="12.7" ry="11.2"/>
	<ellipse class="st1" cx="306.7" cy="209.2" rx="12.7" ry="11.2"/>
	<path class="st1" d="M357.5,226c0-21.7-19.9-39.3-44.4-39.3c-24.5,0-44.4,17.6-44.4,39.3c0,5.9,1.5,11.7,4.3,16.9H239   c2.8-5.2,4.3-11,4.3-16.9c0-21.7-19.9-39.3-44.4-39.3s-44.4,17.6-44.4,39.3l-25.4-5.6C129.1,158.4,186,108,256,108   s126.8,50.3,126.8,112.4L357.5,226z"/>
</g>
</svg>