<svg xmlns="http://www.w3.org/2000/svg" xmlns:xlink="http://www.w3.org/1999/xlink" width="225" height="225" version="1.1" viewBox="0 0 225 225"><title>logo-resize</title><g id="logo-resize" fill="none" fill-rule="evenodd" stroke="none" stroke-width="1"><g id="Group"><rect id="Rectangle-13" width="225" height="225" x="0" y="0" fill="#F6EA35" rx="28.5"/><path id="Fill-2" fill="#0B0B0A" d="M112.5,118.917642 C100.032082,118.917642 89.8955631,108.83343 89.8955631,96.4421638 C89.8955631,84.0600523 100.032082,73.9895735 112.5,73.9895735 C124.967918,73.9895735 135.104437,84.0600523 135.104437,96.4421638 C135.104437,108.83343 124.967918,118.917642 112.5,118.917642 L112.5,118.917642 Z M112.5,49.5 C86.4445392,49.5 65.25,70.5610332 65.25,96.4421638 L65.25,163.264368 C65.25,170.029899 70.7559727,175.5 77.5658703,175.5 C84.3803754,175.5 89.8955631,170.029899 89.8955631,163.264368 L89.8955631,137.662465 C96.6087031,141.319879 104.317065,143.393483 112.5,143.393483 C138.550853,143.393483 159.75,122.332449 159.75,96.4421638 C159.75,70.5610332 138.550853,49.5 112.5,49.5 L112.5,49.5 Z"/></g></g></svg>