<?xml version="1.0" encoding="utf-8"?>
<!-- Generator: Adobe Illustrator 27.7.0, SVG Export Plug-In . SVG Version: 6.00 Build 0)  -->
<svg version="1.1" id="Layer_1" xmlns="http://www.w3.org/2000/svg" xmlns:xlink="http://www.w3.org/1999/xlink" x="0px" y="0px"
	 viewBox="0 0 512 512" style="enable-background:new 0 0 512 512;" xml:space="preserve">
<style type="text/css">
	.st0{fill:#EC4899;}
	.st1{fill-rule:evenodd;clip-rule:evenodd;fill:#0F172A;}
	.st2{fill:#FDF2F8;}
</style>
<g>
	<circle class="st0" cx="256" cy="256" r="256"/>
	<path class="st1" d="M187.5,391.5h5.3l1.5-5.1c4.8-16.9,10.1-35.6,15.8-56.3l0,0c5.2-19.1,10.5-38.3,15.9-57.4
		c3.7-0.1,8.5-0.4,14.2-0.9c7.8-0.7,16.6-1.8,26.2-3.6c10.1-1.8,20.1-4.4,30.1-7.9c10.2-3.5,19.7-8.2,28.4-14
		c9.2-6,16.7-13.4,22.3-22.3c5.9-9.3,8.7-20.2,8.7-32.5c0-11.6-3.1-22-9.5-30.8c-5.9-8.7-13.7-15.8-23.3-21.3
		c-9.2-5.6-19.3-9.8-30.2-12.4c-10.8-2.9-21.5-4.3-32-4.3c-9.7,0-19.5,1-29.2,3c-9.5,1.9-18.4,4.3-26.7,7.2l0,0l0,0
		c-7.9,2.8-14.9,5.5-21,8.1l-4.3,1.8v4.6c0,3.7,1.8,6.9,3.7,9.4c1.8,2.4,3.9,4.4,6.3,6.3l0.1,0.1l0.1,0.1c1.2,0.9,2.5,1.7,3.8,2.3
		c1.2,0.6,2.9,1.2,4.9,1.2c2,0,4-0.5,5.6-1.1c1.7-0.6,3.6-1.5,5.6-2.5l0.1-0.1l0.1-0.1c3.3-1.9,7.6-4.1,13.2-6.6l0.1,0l0.1,0
		c1.5-0.7,3.2-1.4,5-2.1c-5.7,12.9-10.9,25.3-15.8,37.4l0,0l0,0c-6.3,16.3-12.5,32.5-18.4,48.8l0,0l0,0
		c-5.7,16.1-11.4,32.8-17.1,50.4c-5.7,17.3-11.8,35.9-18.3,55.9l0,0.1l0,0.1c-0.8,2.7-1.8,5.6-2.8,8.7l-0.1,0.2l-0.1,0.2
		c-1,3.6-1.5,7.2-1.5,10.6c0,8.3,4.5,14.6,11.5,18.9l0.1,0l0.1,0C172.7,389.4,179.9,391.5,187.5,391.5z M307.9,212
		c-5,7.5-11.9,13.8-20.8,19c-8.9,5.1-18.9,9.2-30.2,12.2c-8,2.1-15.9,3.7-23.9,4.8c5.4-18.2,11-35.7,16.9-52.5l0,0
		c6.2-18.1,12.7-33.9,19.4-47.4c7.3,0.6,14.2,2.1,20.7,4.7l0,0l0,0c7.8,3,14,7.3,18.6,12.8l0,0.1l0,0c4.3,5,6.8,11.7,6.8,21
		C315.6,196.4,313,204.8,307.9,212L307.9,212L307.9,212z"/>
	<path class="st2" d="M280.5,371.7c0,11.6-9.4,21-21,21c-11.6,0-21-9.4-21-21c0-11.6,9.4-21,21-21
		C271.1,350.7,280.5,360.1,280.5,371.7z"/>
</g>
</svg>
