<?xml version="1.0" encoding="utf-8"?>
<!-- Generator: Adobe Illustrator 27.7.0, SVG Export Plug-In . SVG Version: 6.00 Build 0)  -->
<svg version="1.1"
	 id="svg2" xmlns:svg="http://www.w3.org/2000/svg" xmlns:sodipodi="http://sodipodi.sourceforge.net/DTD/sodipodi-0.dtd" xmlns:inkscape="http://www.inkscape.org/namespaces/inkscape" xmlns:rdf="http://www.w3.org/1999/02/22-rdf-syntax-ns#" xmlns:dc="http://purl.org/dc/elements/1.1/" xmlns:cc="http://creativecommons.org/ns#" inkscape:version="0.92.3 (2405546, 2018-03-11)" sodipodi:docname="Pinterest_Logo.svg"
	 xmlns="http://www.w3.org/2000/svg" xmlns:xlink="http://www.w3.org/1999/xlink" x="0px" y="0px" viewBox="0 0 512 512"
	 style="enable-background:new 0 0 512 512;" xml:space="preserve">
<style type="text/css">
	.st0{fill:#FFFFFF;}
	.st1{fill:#E60023;}
</style>
<g id="g16">
	<g id="g58" transform="translate(245.0344,124.9999)">
		<path id="path60" class="st0" d="M267,131c0,141.4-114.6,256-256,256s-256-114.6-256-256c0-141.4,114.6-256,256-256
			S267-10.4,267,131"/>
	</g>
	<g id="g62" transform="translate(123.0422,246.9921)">
		<path id="path64" class="st1" d="M133-247C-8.4-247-123-132.4-123,9c0,108.5,67.5,201.2,162.7,238.5c-2.2-20.3-4.3-51.4,0.9-73.5
			c4.7-20,30-127.2,30-127.2s-7.7-15.3-7.7-38c0-35.6,20.6-62.2,46.3-62.2c21.8,0,32.4,16.4,32.4,36.1c0,22-14,54.8-21.2,85.2
			c-6,25.5,12.8,46.3,37.9,46.3c45.5,0,80.5-48,80.5-117.2c0-61.3-44-104.2-106.9-104.2C59-107.3,16.3-52.7,16.3,3.8
			c0,22,8.5,45.6,19.1,58.4c2.1,2.5,2.4,4.8,1.8,7.3c-1.9,8.1-6.3,25.5-7.1,29c-1.1,4.7-3.7,5.7-8.6,3.4c-32-14.9-52-61.6-52-99.2
			c0-80.8,58.7-154.9,169.1-154.9c88.8,0,157.8,63.3,157.8,147.9C296.4,84,240.8,155,163.6,155c-25.9,0-50.3-13.5-58.7-29.4
			c0,0-12.8,48.9-15.9,60.9c-5.8,22.2-21.4,50.1-31.8,67.1c24,7.4,49.4,11.4,75.8,11.4c141.4,0,256-114.6,256-256
			C389-132.4,274.3-247,133-247"/>
	</g>
</g>
</svg>
