<svg xmlns="http://www.w3.org/2000/svg" xml:space="preserve" viewBox="0 0 144 144"><path fill="#BD081C" d="M71.9 5.4C35.1 5.4 5.3 35.2 5.3 72c0 28.2 17.5 52.3 42.3 62-.6-5.3-1.1-13.3.2-19.1 1.2-5.2 7.8-33.1 7.8-33.1s-2-4-2-9.9c0-9.3 5.4-16.2 12-16.2 5.7 0 8.4 4.3 8.4 9.4 0 5.7-3.6 14.3-5.5 22.2-1.6 6.6 3.3 12 9.9 12 11.8 0 20.9-12.5 20.9-30.5 0-15.9-11.5-27.1-27.8-27.1-18.9 0-30.1 14.2-30.1 28.9 0 5.7 2.2 11.9 5 15.2.5.7.6 1.2.5 1.9-.5 2.1-1.6 6.6-1.8 7.5-.3 1.2-1 1.5-2.2.9-8.3-3.9-13.5-16-13.5-25.8 0-21 15.3-40.3 44-40.3 23.1 0 41 16.5 41 38.4 0 22.9-14.5 41.4-34.5 41.4-6.7 0-13.1-3.5-15.3-7.6 0 0-3.3 12.7-4.1 15.8-1.5 5.8-5.6 13-8.3 17.5 6.2 1.9 12.8 3 19.7 3 36.8 0 66.6-29.8 66.6-66.6 0-36.7-29.8-66.5-66.6-66.5z"/></svg>