<svg xmlns="http://www.w3.org/2000/svg" width="137" height="146" fill="none"><path fill="#F70" d="M0 109.649V45.561A36.12 36.12 0 0 1 36.12 9.44h84.911l10.369 4.842 4.93 10.5v84.866a36.112 36.112 0 0 1-10.58 25.541 36.113 36.113 0 0 1-25.542 10.579H36.12A36.12 36.12 0 0 1 0 109.649Z"/><path fill="#F70" d="M111.36 0c13.526 0 24.949 10.892 24.949 24.418s-11.423 24.565-24.949 24.565c-13.526 0-61.041-39.514-59.957-39.52 1.084-.006-27.4-.076 9.176 0S95.619.355 111.36 0Z"/><path fill="#fff" d="M111.901 32.576a8.557 8.557 0 1 0 0-17.114 8.557 8.557 0 0 0 0 17.114Zm-43.737 85.455c22.326 0 40.426-18.1 40.426-40.426 0-22.327-18.1-40.426-40.426-40.426-22.327 0-40.426 18.099-40.426 40.426 0 22.326 18.1 40.426 40.426 40.426Z"/><path fill="#3C3C3C" d="M68.164 106.229c15.808 0 28.623-12.815 28.623-28.623 0-15.808-12.815-28.623-28.623-28.623-15.808 0-28.623 12.815-28.623 28.623 0 15.808 12.815 28.623 28.623 28.623Z"/></svg>