<?xml version="1.0" encoding="utf-8"?>
<!-- Generator: Adobe Illustrator 27.7.0, SVG Export Plug-In . SVG Version: 6.00 Build 0)  -->
<svg version="1.1"
	 id="svg102" xmlns:svg="http://www.w3.org/2000/svg" xmlns:rdf="http://www.w3.org/1999/02/22-rdf-syntax-ns#" xmlns:cc="http://creativecommons.org/ns#" xmlns:dc="http://purl.org/dc/elements/1.1/"
	 xmlns="http://www.w3.org/2000/svg" xmlns:xlink="http://www.w3.org/1999/xlink" x="0px" y="0px" viewBox="0 0 512 512"
	 style="enable-background:new 0 0 512 512;" xml:space="preserve">
<style type="text/css">
	.st0{fill:url(#path58_00000157992283680513185340000011641002654659943092_);}
	.st1{fill:url(#path60_00000106113622498669525040000003052449848250739852_);}
	.st2{fill:url(#path62_00000165220582467223360880000014905595724648790197_);}
	.st3{fill:url(#path64_00000101075954062057985120000014715265090430358696_);}
	.st4{fill:url(#path66_00000058553714314804241950000013498557804825384883_);}
	.st5{opacity:0.5443;}
	.st6{fill:url(#path68_00000098905001624299435690000008733606045017529274_);}
	.st7{fill-opacity:0.4999;}
	.st8{opacity:0.1;fill:url(#path74_00000163777939166876725540000014241961857485787306_);enable-background:new    ;}
	.st9{opacity:0.1801;fill:url(#path76_00000119101717251270777190000008232938309924582819_);enable-background:new    ;}
	.st10{opacity:0.1801;}
	.st11{fill:url(#path78_00000167396539916529249190000014421318554161097115_);}
	.st12{fill-opacity:0.7728;}
	.st13{opacity:0.5842;}
	.st14{fill:url(#path84_00000005953946212068890590000005483015768479303348_);}
	.st15{fill-opacity:0.5031;}
	.st16{opacity:0.5622;}
	.st17{fill:url(#path90_00000052821934656951849070000008572845786511008136_);}
	.st18{fill-opacity:0.4962;}
	.st19{fill:#FFFFFF;}
</style>
<g>
	
		<linearGradient id="path58_00000093868132454738114830000004454470452764311190_" gradientUnits="userSpaceOnUse" x1="522.3279" y1="497.7674" x2="214.869" y2="484.513" gradientTransform="matrix(0.6401 0.5371 0.7693 -0.9168 -499.1199 475.6809)">
		<stop  offset="0" style="stop-color:#FF5C34"/>
		<stop  offset="1" style="stop-color:#EB0256"/>
	</linearGradient>
	<path id="path58" style="fill:url(#path58_00000093868132454738114830000004454470452764311190_);" d="M256,256
		c-41.9-57.3-122-70.5-179-29.3S7.9,347.6,49.8,404.9l3.2,4.3c-68.3-89.4-71.7-214.7-3.6-306.6l1.2-1.6C92.8,45,173,34.2,229.7,77
		S298.2,199.9,256,256z"/>
	
		<linearGradient id="path60_00000010988861316000755780000015538138979974625196_" gradientUnits="userSpaceOnUse" x1="297.0129" y1="195.8585" x2="409.8188" y2="461.9663" gradientTransform="matrix(0.9332 0.783 0.5277 -0.6289 -326.9704 299.6886)">
		<stop  offset="0" style="stop-color:#A63FDB"/>
		<stop  offset="1" style="stop-color:#FF257E"/>
	</linearGradient>
	<path id="path60" style="fill:url(#path60_00000010988861316000755780000015538138979974625196_);" d="M256,256
		c-66.7,22.6-101.8,95-78.4,161.9s96.5,102.7,163.2,80.2l4.4-1.5c-82.9,29.7-179.6,15.4-252.6-45.9c-15-12.6-28.2-26.5-39.7-41.5
		l-3.2-4.3C7.9,347.6,20.1,267.8,77,226.7S214.1,198.7,256,256z"/>
	
		<linearGradient id="path62_00000147206798744962591720000001536862431292651694_" gradientUnits="userSpaceOnUse" x1="526.9215" y1="557.5062" x2="776.662" y2="502.5156" gradientTransform="matrix(0.6731 0.5648 0.7316 -0.8719 -472.8751 447.6873)">
		<stop  offset="0" style="stop-color:#00FFF0"/>
		<stop  offset="1" style="stop-color:#0087FF"/>
	</linearGradient>
	<path id="path62" style="fill:url(#path62_00000147206798744962591720000001536862431292651694_);" d="M256,256
		c0.4,70.5,58.1,128.1,128.8,128.5S512.4,328.1,512,257.6l0-1.6c0.8,58.5-18.5,117.4-58.9,165.4c-29.7,35.4-67.1,60.6-107.9,75.2
		l-4.4,1.5c-66.7,22.6-139.8-13.3-163.2-80.2S189.3,278.6,256,256z"/>
	
		<linearGradient id="path64_00000023997841767518520860000003301658502306254209_" gradientUnits="userSpaceOnUse" x1="561.6743" y1="757.1602" x2="372.0405" y2="554.7556" gradientTransform="matrix(0.8028 0.6736 0.6133 -0.731 -389.3063 361.0058)">
		<stop  offset="0" style="stop-color:#17C934"/>
		<stop  offset="1" style="stop-color:#03FF6E"/>
	</linearGradient>
	<path id="path64" style="fill:url(#path64_00000023997841767518520860000003301658502306254209_);" d="M256,256
		c67.4,22.2,139.3-14.1,160.8-81c21.4-67-15.8-139.2-83.2-161.4l-5.5-1.8c32.5,9.9,63.5,26.4,91.2,49.6
		c60.2,50.5,91.7,122.3,92.6,194.6l0,1.6c0.4,70.5-56.5,127.4-127.2,126.9C314.1,384.1,256.4,326.5,256,256z"/>
	
		<linearGradient id="path66_00000147205048977399197160000003086279431967101115_" gradientUnits="userSpaceOnUse" x1="313.405" y1="458.0841" x2="255.7695" y2="789.8855" gradientTransform="matrix(0.8728 0.7323 0.5642 -0.6724 -353.7837 325.6313)">
		<stop  offset="0" style="stop-color:#FFB000"/>
		<stop  offset="1" style="stop-color:#FF7725"/>
	</linearGradient>
	<path id="path66" style="fill:url(#path66_00000147205048977399197160000003086279431967101115_);" d="M256,256
		c42.2-56.1,30.4-136.2-26.3-179S92.8,45,50.6,101l-1.2,1.6c3-4.1,6.2-8.1,9.5-12C126.2,10.5,233-17.2,328.1,11.7l5.5,1.8
		C401,35.7,438.2,108,416.8,175C395.3,241.9,323.4,278.2,256,256z"/>
	<g id="g72" transform="matrix(-0.37460713,0.92718385,-0.92718518,-0.37460659,68.842244,2.122857)" class="st5">
		
			<linearGradient id="path68_00000116215285579196835780000002228177530724228266_" gradientUnits="userSpaceOnUse" x1="1035.0256" y1="-334.3074" x2="1459.374" y2="-308.2865" gradientTransform="matrix(-0.3201 -1.0852 -0.7922 0.4384 -9.8357 859.2789)">
			<stop  offset="0" style="stop-color:#9EE85D"/>
			<stop  offset="1" style="stop-color:#0ED061"/>
		</linearGradient>
		<path id="path68" style="fill:url(#path68_00000116215285579196835780000002228177530724228266_);" d="M67.3-504.3l1.9-0.8
			c65.9-26.3,140.9,5.1,167.5,70.2s-5.2,139.1-71.1,165.4c-0.6-10.4-2.3-20.4-5.2-29.9c35.3-19.1,59.3-56.2,59.3-98.8
			c0-62.2-51.1-112.6-114-112.6C92.2-510.9,79.3-508.6,67.3-504.3z"/>
		<path id="path70" class="st7" d="M67.3-504.3l1.9-0.8c65.9-26.3,140.9,5.1,167.5,70.2s-5.2,139.1-71.1,165.4
			c-0.6-10.4-2.3-20.4-5.2-29.9c35.3-19.1,59.3-56.2,59.3-98.8c0-62.2-51.1-112.6-114-112.6C92.2-510.9,79.3-508.6,67.3-504.3z"/>
	</g>
	
		<linearGradient id="path74_00000083052545292797530320000018432324560858833580_" gradientUnits="userSpaceOnUse" x1="313.405" y1="458.0841" x2="255.7695" y2="789.8855" gradientTransform="matrix(0.8728 0.7323 0.5642 -0.6724 -353.7837 325.6313)">
		<stop  offset="0" style="stop-color:#FFB000"/>
		<stop  offset="1" style="stop-color:#FF7725"/>
	</linearGradient>
	
		<path id="path74" style="opacity:0.1;fill:url(#path74_00000083052545292797530320000018432324560858833580_);enable-background:new    ;" d="
		M256,256c42.2-56.1,30.4-136.2-26.3-179S92.8,45,50.6,101l-1.2,1.6c3-4.1,6.2-8.1,9.5-12C126.2,10.5,233-17.2,328.1,11.7l5.5,1.8
		C401,35.7,438.2,108,416.8,175C395.3,241.9,323.4,278.2,256,256z"/>
	
		<linearGradient id="path76_00000086690030205690658520000003507564617565071544_" gradientUnits="userSpaceOnUse" x1="119.8253" y1="341.3075" x2="-89.4373" y2="332.2863" gradientTransform="matrix(0.7324 -0.4401 -0.6028 -1.0032 375.0722 498.7149)">
		<stop  offset="0" style="stop-color:#FF5C34"/>
		<stop  offset="1" style="stop-color:#EB0256"/>
	</linearGradient>
	
		<path id="path76" style="opacity:0.1801;fill:url(#path76_00000086690030205690658520000003507564617565071544_);enable-background:new    ;" d="
		M49.7,104.3l1.3-1.7c42.9-56.5,123.4-68.1,179.7-26.1s67.2,121.9,24.3,178.4c-5.8-8.6-12.5-16.3-19.9-23
		c20.4-34.6,21.9-78.7-0.1-115.3C202.9,63.5,133.2,46.6,79.2,79C67.7,85.9,57.8,94.5,49.7,104.3L49.7,104.3z"/>
	<g id="g82" transform="matrix(0.85716853,-0.51503807,0.51503881,0.8571673,-5.2722905,4.334214)" class="st10">
		
			<linearGradient id="path78_00000034798417305494730200000018178358729315463562_" gradientUnits="userSpaceOnUse" x1="-64.8448" y1="352.125" x2="-274.1074" y2="343.1038" gradientTransform="matrix(0.7324 0.6028 0.4401 -1.0032 66.9507 614.8055)">
			<stop  offset="0" style="stop-color:#FF5C34"/>
			<stop  offset="1" style="stop-color:#EB0256"/>
		</linearGradient>
		<path id="path78" style="fill:url(#path78_00000034798417305494730200000018178358729315463562_);" d="M-3.7,116.3l1.9-0.8
			c65.9-26.3,140.9,5.1,167.5,70.2s-5.2,139.1-71.1,165.4c-0.6-10.4-2.3-20.4-5.2-29.9c35.3-19.1,59.3-56.2,59.3-98.8
			c0-62.2-51.1-112.6-114-112.6C21.2,109.8,8.2,112.1-3.7,116.3z"/>
		<path id="path80" class="st12" d="M-3.7,116.3l1.9-0.8c65.9-26.3,140.9,5.1,167.5,70.2s-5.2,139.1-71.1,165.4
			c-0.6-10.4-2.3-20.4-5.2-29.9c35.3-19.1,59.3-56.2,59.3-98.8c0-62.2-51.1-112.6-114-112.6C21.2,109.8,8.2,112.1-3.7,116.3z"/>
	</g>
	<g id="g88" transform="matrix(-0.22495138,-0.97437006,0.97437146,-0.22495105,-15.913458,55.421439)" class="st13">
		
			<linearGradient id="path84_00000132074934499289541970000005257725202935243661_" gradientUnits="userSpaceOnUse" x1="-404.2712" y1="-518.1033" x2="-801.1359" y2="-484.3912" gradientTransform="matrix(-0.1922 1.1404 0.8325 0.2633 174.7298 682.9212)">
			<stop  offset="0" style="stop-color:#A63FDB"/>
			<stop  offset="1" style="stop-color:#FF257E"/>
		</linearGradient>
		<path id="path84" style="fill:url(#path84_00000132074934499289541970000005257725202935243661_);" d="M-355.7-14.5l1.9-0.8
			c65.9-26.3,140.9,5.1,167.5,70.2c26.6,65.1-5.2,139.1-71.1,165.4c-0.6-10.4-2.3-20.4-5.2-29.9c35.3-19.1,59.3-56.2,59.3-98.8
			c0-62.2-51.1-112.6-114-112.6C-330.8-21.1-343.7-18.8-355.7-14.5z"/>
		<path id="path86" class="st15" d="M-355.7-14.5l1.9-0.8c65.9-26.3,140.9,5.1,167.5,70.2c26.6,65.1-5.2,139.1-71.1,165.4
			c-0.6-10.4-2.3-20.4-5.2-29.9c35.3-19.1,59.3-56.2,59.3-98.8c0-62.2-51.1-112.6-114-112.6C-330.8-21.1-343.7-18.8-355.7-14.5z"/>
	</g>
	<g id="g94" transform="matrix(-0.99863096,-0.05233596,0.05233603,-0.99862953,57.15441,72.548735)" class="st16">
		
			<linearGradient id="path90_00000152960897177787509900000009527201664660212891_" gradientUnits="userSpaceOnUse" x1="320.0134" y1="-854.8152" x2="224.7774" y2="-1107.7223" gradientTransform="matrix(-0.8533 6.125326e-02 4.471685e-02 1.1688 146.9079 815.5959)">
			<stop  offset="0" style="stop-color:#21EFE3"/>
			<stop  offset="1" style="stop-color:#2598FF"/>
		</linearGradient>
		<path id="path90" style="fill:url(#path90_00000152960897177787509900000009527201664660212891_);" d="M-307.2-408.3l1.9-0.8
			c65.9-26.3,140.9,5.1,167.5,70.2s-5.2,139.1-71.1,165.4c-0.6-10.4-2.3-20.4-5.2-29.9c35.3-19.1,59.3-56.2,59.3-98.8
			c0-62.2-51.1-112.6-114-112.6C-282.3-414.8-295.2-412.5-307.2-408.3z"/>
		<path id="path92" d="M-307.2-408.3l1.9-0.8c65.9-26.3,140.9,5.1,167.5,70.2s-5.2,139.1-71.1,165.4c-0.6-10.4-2.3-20.4-5.2-29.9
			c35.3-19.1,59.3-56.2,59.3-98.8c0-62.2-51.1-112.6-114-112.6C-282.3-414.8-295.2-412.5-307.2-408.3z"/>
	</g>
	<path id="path96" class="st18" d="M331.7,12.9l2,0.6C401,35.7,438.2,108,416.8,175c-21.4,67-93.4,103.2-160.8,81
		c6.2-8.3,11.3-17.1,15.2-26.3c39.4,8.1,81.6-4.9,109-37.6c40-47.7,33.3-119.1-15-159.6C354.9,23.9,343.6,17.4,331.7,12.9z"/>
	<path id="path98" d="M235.8,310.8h46.8c44.1,0,79.9-34.7,79.9-77.4s-35.8-77.4-79.9-77.4h-67.6c-25.5,0-46.1,20-46.1,44.7v173.8
		L235.8,310.8z"/>
	<path id="path100" class="st19" d="M235.8,310.8h46.8c44.1,0,79.9-34.7,79.9-77.4s-35.8-77.4-79.9-77.4h-67.6
		c-25.5,0-46.1,20-46.1,44.7v173.8L235.8,310.8z"/>
</g>
</svg>
