<svg xmlns="http://www.w3.org/2000/svg" xmlns:xlink="http://www.w3.org/1999/xlink" version="1.1" id="Layer_1" x="0px" y="0px" style="enable-background:new 0 0 512 512;" xml:space="preserve" viewBox="28.6 0 454.8 512">
<style type="text/css">
	.st0{fill:#E2E2E2;}
	.st1{fill:#3F444B;}
</style>
<g>
	<path class="st0" d="M263.7,166.3c0,15.8,12.8,28.7,28.7,28.7h162.3c15.8,0,28.7-12.8,28.7-28.7v-32c0-15.8-12.8-28.7-28.7-28.7   H292.2c-15.8,0-28.7,12.8-28.7,28.7v32H263.7z"/>
	<path class="st0" d="M28.6,168.5c0,14.7,12,26.8,26.8,26.8h138.2c14.7,0,26.8-12,26.8-26.8v-35.8c0-14.7-12-26.8-26.8-26.8h-138   c-14.7,0-26.8,12-26.8,26.8v35.8H28.6z"/>
	<path class="st0" d="M28.6,379.8c0,14.7,12,26.8,26.8,26.8h138.2c14.7,0,26.8-12,26.8-26.8v-35.8c0-14.7-12-26.8-26.8-26.8h-138   c-14.7,0-26.8,12-26.8,26.8v35.8H28.6z"/>
	<path class="st0" d="M28.6,485.1c0,14.7,12,26.8,26.8,26.8h138.2c14.7,0,26.8-12,26.8-26.8v-35.8c0-14.7-12-26.8-26.8-26.8h-138   c-14.7,0-26.8,12-26.8,26.8v35.8H28.6z"/>
	<g>
		<path class="st1" d="M28.6,62.6c0,14.7,12,26.8,26.8,26.8h138.2c14.7,0,26.8-12,26.8-26.8V26.8c0-14.7-12-26.8-26.8-26.8H55.4    C40.7,0,28.6,12,28.6,26.8V62.6z"/>
		<path class="st1" d="M28.6,172c0,12.9,10.4,23.4,23.4,23.4h99.1c12.9,0,23.4-10.4,23.4-23.4v-42.7c0-12.9-10.4-23.4-23.4-23.4H52    c-12.9,0-23.4,10.4-23.4,23.4L28.6,172z"/>
		<path class="st1" d="M28.6,274.4c0,14.7,12,26.8,26.8,26.8h138.2c14.7,0,26.8-12,26.8-26.8v-35.8c0-14.7-12-26.8-26.8-26.8H55.4    c-14.7,0-26.8,12-26.8,26.8V274.4z"/>
		<path class="st1" d="M252.7,62.6c0,14.7,12,26.8,26.8,26.8h138.2c14.7,0,26.8-12,26.8-26.8V26.8c0-14.7-12-26.8-26.8-26.8H279.4    c-14.7,0-26.8,12-26.8,26.8L252.7,62.6z"/>
		<path class="st1" d="M306.8,169.6c0,14.1,11.5,25.7,25.7,25.7h125.1c14.1,0,25.7-11.5,25.7-25.7v-37.9c0-14.1-11.5-25.7-25.7-25.7    H332.5c-14.1,0-25.7,11.5-25.7,25.7L306.8,169.6z"/>
		<path class="st1" d="M252.5,275.6c0,14.1,11.5,25.7,25.7,25.7h125.1c14.1,0,25.7-11.5,25.7-25.7v-38.1c0-14.1-11.5-25.7-25.7-25.7    H278.2c-14.1,0-25.7,11.5-25.7,25.7L252.5,275.6z"/>
	</g>
	<path class="st0" d="M252.8,380.4c0,14.1,11.5,25.7,25.7,25.7h125.1c14.1,0,25.7-11.5,25.7-25.7v-38.1c0-14.1-11.5-25.7-25.7-25.7   H278.4c-14.1,0-25.7,11.5-25.7,25.7v38.1H252.8z"/>
	<path class="st0" d="M252.8,486.3c0,14.1,11.5,25.7,25.7,25.7h125.1c14.1,0,25.7-11.5,25.7-25.7v-38.1c0-14.1-11.5-25.7-25.7-25.7   H278.4c-14.1,0-25.7,11.5-25.7,25.7v38.1H252.8z"/>
	<path class="st1" d="M28.6,488.5c0,12.9,10.4,23.4,23.4,23.4h99.1c12.9,0,23.4-10.4,23.4-23.4v-42.7c0-12.9-10.4-23.4-23.4-23.4H52   c-12.9,0-23.4,10.4-23.4,23.4L28.6,488.5z"/>
	<path class="st1" d="M28.6,382.6c0,12.9,10.4,23.4,23.4,23.4h99.1c12.9,0,23.4-10.4,23.4-23.4v-42.7c0-12.9-10.4-23.4-23.4-23.4H52   c-12.9,0-23.4,10.4-23.4,23.4L28.6,382.6z"/>
</g>
</svg>