<svg xmlns="http://www.w3.org/2000/svg" xml:space="preserve" id="Layer_2" x="0" y="0" style="enable-background:new 0 0 360.2 360.2" version="1.1" viewBox="0 0 360.2 360.2"><style>.st0{fill:#e2e2e2}.st1{fill:#3f444b}</style><path d="M200.1 120.8c0 10.6 8.6 19.3 19.3 19.3h109.1c10.6 0 19.3-8.6 19.3-19.3V99.3c0-10.6-8.6-19.3-19.3-19.3H219.3c-10.6 0-19.3 8.6-19.3 19.3v21.5zm-158 1.5c0 9.9 8.1 18 18 18H153c9.9 0 18-8.1 18-18V98.2c0-9.9-8.1-18-18-18H60.2c-9.9 0-18 8.1-18 18v24.1zm0 142c0 9.9 8.1 18 18 18H153c9.9 0 18-8.1 18-18v-24.1c0-9.9-8.1-18-18-18H60.2c-9.9 0-18 8.1-18 18v24.1zm0 70.8c0 9.9 8.1 18 18 18H153c9.9 0 18-8.1 18-18V311c0-9.9-8.1-18-18-18H60.2c-9.9 0-18 8.1-18 18v24.1z" class="st0"/><path d="M42.1 51.1c0 9.9 8.1 18 18 18H153c9.9 0 18-8.1 18-18V27c0-9.9-8.1-18-18-18H60.1c-9.9 0-18 8.1-18 18v24.1zm0 73.5c0 8.7 7 15.7 15.7 15.7h66.6c8.7 0 15.7-7 15.7-15.7V95.9c0-8.7-7-15.7-15.7-15.7H57.8c-8.7 0-15.7 7-15.7 15.7v28.7zm0 68.9c0 9.9 8.1 18 18 18H153c9.9 0 18-8.1 18-18v-24.1c0-9.9-8.1-18-18-18H60.1c-9.9 0-18 8.1-18 18v24.1zM192.7 51.1c0 9.9 8.1 18 18 18h92.9c9.9 0 18-8.1 18-18V27c0-9.9-8.1-18-18-18h-92.9c-9.9 0-18 8.1-18 18v24.1zm36.4 71.9c0 9.5 7.7 17.3 17.3 17.3h84.1c9.5 0 17.3-7.7 17.3-17.3V97.5c0-9.5-7.7-17.3-17.3-17.3h-84.1c-9.5 0-17.3 7.7-17.3 17.3V123zm-36.5 71.3c0 9.5 7.7 17.3 17.3 17.3H294c9.5 0 17.3-7.7 17.3-17.3v-25.6c0-9.5-7.7-17.3-17.3-17.3h-84.1c-9.5 0-17.3 7.7-17.3 17.3v25.6z" class="st1"/><path d="M192.8 264.7c0 9.5 7.7 17.3 17.3 17.3h84.1c9.5 0 17.3-7.7 17.3-17.3v-25.6c0-9.5-7.7-17.3-17.3-17.3H210c-9.5 0-17.3 7.7-17.3 17.3v25.6zm0 71.2c0 9.5 7.7 17.3 17.3 17.3h84.1c9.5 0 17.3-7.7 17.3-17.3v-25.6c0-9.5-7.7-17.3-17.3-17.3H210c-9.5 0-17.3 7.7-17.3 17.3v25.6z" class="st0"/><path d="M42.1 337.4c0 8.7 7 15.7 15.7 15.7h66.6c8.7 0 15.7-7 15.7-15.7v-28.7c0-8.7-7-15.7-15.7-15.7H57.8c-8.7 0-15.7 7-15.7 15.7v28.7zm0-71.2c0 8.7 7 15.7 15.7 15.7h66.6c8.7 0 15.7-7 15.7-15.7v-28.7c0-8.7-7-15.7-15.7-15.7H57.8c-8.7 0-15.7 7-15.7 15.7v28.7z" class="st1"/></svg>