<svg xmlns="http://www.w3.org/2000/svg" xmlns:xlink="http://www.w3.org/1999/xlink" id="Layer_2" x="0" y="0" version="1.1" viewBox="0 0 360.2 360.2" xml:space="preserve" style="enable-background:new 0 0 360.2 360.2"><style type="text/css">.st0{fill:#e2e2e2}.st1{fill:#3f444b}</style><g><path d="M200.1,120.8c0,10.6,8.6,19.3,19.3,19.3h109.1c10.6,0,19.3-8.6,19.3-19.3V99.3c0-10.6-8.6-19.3-19.3-19.3 H219.3c-10.6,0-19.3,8.6-19.3,19.3V120.8z" class="st0"/></g><g><path d="M42.1,122.3c0,9.9,8.1,18,18,18h92.9c9.9,0,18-8.1,18-18V98.2c0-9.9-8.1-18-18-18H60.2c-9.9,0-18,8.1-18,18 V122.3z" class="st0"/></g><g><path d="M42.1,264.3c0,9.9,8.1,18,18,18h92.9c9.9,0,18-8.1,18-18v-24.1c0-9.9-8.1-18-18-18H60.2c-9.9,0-18,8.1-18,18 V264.3z" class="st0"/></g><g><path d="M42.1,335.1c0,9.9,8.1,18,18,18h92.9c9.9,0,18-8.1,18-18V311c0-9.9-8.1-18-18-18H60.2c-9.9,0-18,8.1-18,18 V335.1z" class="st0"/></g><g><path d="M42.1,51.1c0,9.9,8.1,18,18,18H153c9.9,0,18-8.1,18-18V27c0-9.9-8.1-18-18-18H60.1c-9.9,0-18,8.1-18,18V51.1z" class="st1"/></g><g><path d="M42.1,124.6c0,8.7,7,15.7,15.7,15.7h66.6c8.7,0,15.7-7,15.7-15.7V95.9c0-8.7-7-15.7-15.7-15.7H57.8 c-8.7,0-15.7,7-15.7,15.7V124.6z" class="st1"/></g><g><path d="M42.1,193.5c0,9.9,8.1,18,18,18H153c9.9,0,18-8.1,18-18v-24.1c0-9.9-8.1-18-18-18H60.1c-9.9,0-18,8.1-18,18 V193.5z" class="st1"/></g><g><path d="M192.7,51.1c0,9.9,8.1,18,18,18h92.9c9.9,0,18-8.1,18-18V27c0-9.9-8.1-18-18-18h-92.9c-9.9,0-18,8.1-18,18 V51.1z" class="st1"/></g><g><path d="M229.1,123c0,9.5,7.7,17.3,17.3,17.3h84.1c9.5,0,17.3-7.7,17.3-17.3V97.5c0-9.5-7.7-17.3-17.3-17.3h-84.1 c-9.5,0-17.3,7.7-17.3,17.3V123z" class="st1"/></g><g><path d="M192.6,194.3c0,9.5,7.7,17.3,17.3,17.3H294c9.5,0,17.3-7.7,17.3-17.3v-25.6c0-9.5-7.7-17.3-17.3-17.3h-84.1 c-9.5,0-17.3,7.7-17.3,17.3V194.3z" class="st1"/></g><g><path d="M192.8,264.7c0,9.5,7.7,17.3,17.3,17.3h84.1c9.5,0,17.3-7.7,17.3-17.3v-25.6c0-9.5-7.7-17.3-17.3-17.3H210 c-9.5,0-17.3,7.7-17.3,17.3V264.7z" class="st0"/></g><g><path d="M192.8,335.9c0,9.5,7.7,17.3,17.3,17.3h84.1c9.5,0,17.3-7.7,17.3-17.3v-25.6c0-9.5-7.7-17.3-17.3-17.3H210 c-9.5,0-17.3,7.7-17.3,17.3V335.9z" class="st0"/></g><g><path d="M42.1,337.4c0,8.7,7,15.7,15.7,15.7h66.6c8.7,0,15.7-7,15.7-15.7v-28.7c0-8.7-7-15.7-15.7-15.7H57.8 c-8.7,0-15.7,7-15.7,15.7V337.4z" class="st1"/></g><g><path d="M42.1,266.2c0,8.7,7,15.7,15.7,15.7h66.6c8.7,0,15.7-7,15.7-15.7v-28.7c0-8.7-7-15.7-15.7-15.7H57.8 c-8.7,0-15.7,7-15.7,15.7V266.2z" class="st1"/></g></svg>