<svg xmlns:svg="http://www.w3.org/2000/svg" xmlns:sodipodi="http://sodipodi.sourceforge.net/DTD/sodipodi-0.dtd" xmlns:inkscape="http://www.inkscape.org/namespaces/inkscape" xmlns:rdf="http://www.w3.org/1999/02/22-rdf-syntax-ns#" xmlns:dc="http://purl.org/dc/elements/1.1/" xmlns:cc="http://web.resource.org/cc/" xmlns="http://www.w3.org/2000/svg" xmlns:xlink="http://www.w3.org/1999/xlink" version="1.1" id="Layer_1" inkscape:version="0.44.1" sodipodi:docname="Playstation logo colour.svg" x="0px" y="0px" style="enable-background:new 0 0 512 512;" xml:space="preserve" viewBox="0.05 61.53 511.88 389">
<style type="text/css">
	.st0{fill-rule:evenodd;clip-rule:evenodd;fill:#DE0029;}
	.st1{fill-rule:evenodd;clip-rule:evenodd;fill:#F3C202;}
	.st2{fill-rule:evenodd;clip-rule:evenodd;fill:#326DB3;}
	.st3{fill-rule:evenodd;clip-rule:evenodd;fill:#00AA9E;}
</style>
<sodipodi:namedview bordercolor="#666666" borderopacity="1.0" gridtolerance="10.0" guidetolerance="10.0" id="base" inkscape:current-layer="g3" inkscape:cx="145.65542" inkscape:cy="98.001689" inkscape:pageopacity="0.0" inkscape:pageshadow="2" inkscape:window-height="719" inkscape:window-width="1024" inkscape:window-x="-4" inkscape:window-y="-4" inkscape:zoom="1.9023033" objecttolerance="10.0" pagecolor="#ffffff">
	</sodipodi:namedview>
<g id="g3" transform="translate(-61.68556,-312.8684)">
	<path id="path7" class="st0" d="M337.9,455.3l-0.3,308.1L255,736.5V374.4l105.4,27.9c67.4,18.1,108.7,53.4,108.1,115.1   c-0.7,71.8-33.9,100.7-98.7,81.9V457.6C369.8,440.5,337.9,439.5,337.9,455.3L337.9,455.3z"/>
	<path id="path9" class="st1" d="M217.1,676.8l-38.9,13.1c-25.2,8.7-46.6-11.7-23.5-20.1l18.8-6.7l-70.8-22.5   c-21.8,7.4-42.3,23.2-40.9,45.3c1.3,22.5,52.7,27.9,92.3,34.2c36.9,6,70.5,2.7,101-8.1v-23.2L217.1,676.8L217.1,676.8z    M338.3,763.4l72.2-25.2L337.6,715v46.6L338.3,763.4L338.3,763.4z"/>
	<path id="path11" class="st2" d="M530.2,695.9l1.3-0.3c31.5-11.1,45-26.5,41.6-40.9c-5.4-24.2-44-37.3-103.4-41.6   c-42.6-3-84.6,6.4-125.5,20.5l-6.7,2.4l73.5,22.8l43-14.4c45-8.4,63.1,6.4,19.8,20.1l-21.5,7.4L530.2,695.9L530.2,695.9z    M255,589.2l-32.6,11.1l32.6,10.1V589.2L255,589.2z"/>
	<path id="path13" class="st3" d="M410.4,738.2l119.8-42.3l-77.9-24.2L337.6,711v4L410.4,738.2L410.4,738.2z M255,664l-37.9,12.8   l37.9,12.1V664L255,664z M337.6,683.8v-48l73.5,22.8L337.6,683.8L337.6,683.8z M173.5,663l81.5-29.2v-23.5l-32.6-10.1l-118.1,39.9   c-0.3,0-1,0.3-1.7,0.3L173.5,663L173.5,663z"/>
</g>
</svg>