<svg xmlns="http://www.w3.org/2000/svg" id="Layer_1" x="0" y="0" viewBox="0 0 500 253.3" xml:space="preserve">
  <style>
    .st0{fill:#fff}
  </style>
  <path class="st0" d="M53.3 210.2H40.6V77.1c10.6-3.3 21.1-4.9 31.3-4.9 7.5 0 14.2 1.2 20.3 3.5 6.1 2.3 11.3 5.6 15.7 9.7 4.3 4.2 7.7 9.1 10 14.8 2.3 5.7 3.5 12 3.5 18.7 0 8.2-1.4 15.2-4.2 21.1-2.8 5.9-6.5 10.7-11.1 14.5-4.6 3.8-9.8 6.6-15.7 8.3-5.9 1.8-11.9 2.7-18 2.7-3.3 0-6.5-.2-9.7-.7-3.2-.5-6.4-1.2-9.5-2v47.4zm53.7-91.5c0-10.6-3-19.2-8.9-25.7s-14.3-9.8-25-9.8c-3.4 0-6.8.2-10.1.6-3.3.4-6.5 1.2-9.7 2.3V151c2.9 1 6 1.8 9.1 2.5 3.1.7 6.1 1 9.1 1 10.9 0 19.5-3.1 25.9-9.3 6.4-6.2 9.6-15 9.6-26.5zM147.1 164.7V36.4h12.8v128.3h-12.8zM264.8 151.3c-4.3 4.6-9.2 8.2-14.8 10.5-5.6 2.4-12.4 3.6-20.3 3.6-7.3 0-13.7-1.3-19.2-3.8s-10.1-5.9-13.7-10.2c-3.7-4.3-6.4-9.2-8.2-14.7-1.8-5.5-2.7-11.3-2.7-17.4 0-8.1 1.1-15.1 3.3-21 2.2-5.9 5.2-10.8 9-14.8 3.8-3.9 8.2-6.8 13.2-8.7 5-1.9 10.3-2.8 15.9-2.8 13.4 0 23.6 4.1 30.4 12.4 6.8 8.2 10.1 20.2 9.9 36h-68.7c.4 10.4 3.4 18.6 9 24.7 5.6 6.1 13.3 9.2 22.9 9.2 5.4 0 10.3-.9 14.7-2.7 4.4-1.8 8.4-4.6 11.9-8.5l7.4 8.2zm-10.3-41.6c0-3.8-.6-7.3-1.7-10.6-1.2-3.3-2.8-6.1-4.9-8.4-2.1-2.3-4.9-4.2-8.3-5.6-3.4-1.4-7.4-2.1-11.9-2.1-4.6 0-8.6.7-12 2.1-3.4 1.4-6 3.2-8 5.4s-3.8 5-5.4 8.3c-1.7 3.4-2.7 7-3.2 10.9h55.4zM351.3 94.7c-3.2-4-6.7-7-10.4-8.9-3.7-1.9-8.1-2.8-13.2-2.8-6.5 0-11.1 1.2-13.7 3.5-2.6 2.3-3.9 5.3-3.9 8.8 0 2.4.6 4.5 1.8 6.2 1.2 1.7 2.8 3.2 4.8 4.4 2 1.2 4.3 2.3 6.9 3.2 2.6.9 5.3 1.8 8.2 2.7 3.5 1.1 6.9 2.3 10.4 3.6 3.5 1.3 6.6 3 9.5 5 2.9 2.1 5.2 4.6 7 7.6 1.8 3 2.7 6.8 2.7 11.3 0 4.2-.9 7.9-2.7 11.2-1.8 3.3-4.2 6.1-7.3 8.3-3.1 2.3-6.7 4-10.8 5.1-4.2 1.2-8.6 1.7-13.3 1.7-7.3 0-13.8-1.2-19.4-3.6-5.6-2.4-10.9-6.3-15.9-11.8l10-8.8c6.7 8.6 15.3 12.8 25.9 12.8 6.9 0 12-1.3 15.4-3.9 3.3-2.6 5-5.7 5-9.3 0-2.8-.6-5.2-1.8-7.1-1.2-1.9-2.9-3.5-5-4.9-2.1-1.3-4.5-2.5-7.3-3.4-2.8-.9-5.7-1.8-8.7-2.7-3.5-1-6.9-2.1-10.3-3.3-3.4-1.2-6.4-2.8-9.1-4.7-2.7-1.9-4.9-4.3-6.6-7.2-1.7-2.9-2.6-6.7-2.6-11.2 0-8.1 2.9-14.3 8.8-18.7 5.9-4.4 13.5-6.6 22.9-6.6 6.6 0 12.6 1.1 17.8 3.3 5.2 2.2 10.1 6 14.9 11.5l-9.4 8.6-.6.1zM385.4 164.7V36.6h12.8v128.1h-12.8zm12.8-47.3l44-44.4h17.2l-45.1 44 44.9 47.6h-17.8l-43.2-47.2z"></path>
  <g>
    <path d="M191.7 210.2h-77.2v-12.1h77.2v12.1z" fill="#53bce6"></path>
  </g>
</svg>