<?xml version="1.0" encoding="utf-8"?>
<!-- Generator: Adobe Illustrator 27.7.0, SVG Export Plug-In . SVG Version: 6.00 Build 0)  -->
<svg version="1.1" id="Layer_1" xmlns="http://www.w3.org/2000/svg" xmlns:xlink="http://www.w3.org/1999/xlink" x="0px" y="0px"
	 viewBox="0 0 512 512" style="enable-background:new 0 0 512 512;" xml:space="preserve">
<style type="text/css">
	.st0{fill:#FFFFFF;}
	.st1{fill-rule:evenodd;clip-rule:evenodd;fill:#F43E37;}
</style>
<g>
	<circle class="st0" cx="256" cy="240" r="240"/>
	<path class="st1" d="M256,512c141.4,0,256-114.6,256-256S397.4,0,256,0S0,114.6,0,256S114.6,512,256,512z M256,56.9
		C146,56.9,56.9,146,56.9,256S146,455.1,256,455.1v-49.8c-82.5,0-149.3-66.9-149.3-149.3S173.5,106.7,256,106.7
		c82.5,0,149.3,66.8,149.3,149.3h49.8C455.1,146,366,56.9,256,56.9L256,56.9z M136.5,256c0,66,53.5,119.5,119.5,119.5V332
		c-42,0-76-34-76-76c0-42,34-76,76-76c42,0,76,34,76,76h43.4c0-66-53.5-119.5-119.5-119.5S136.5,190,136.5,256L136.5,256z"/>
</g>
</svg>
