<?xml version="1.0" encoding="utf-8"?>
<!-- Generator: Adobe Illustrator 27.7.0, SVG Export Plug-In . SVG Version: 6.00 Build 0)  -->
<svg version="1.1" id="Layer_1" xmlns="http://www.w3.org/2000/svg" xmlns:xlink="http://www.w3.org/1999/xlink" x="0px" y="0px"
	 viewBox="0 0 512 512" style="enable-background:new 0 0 512 512;" xml:space="preserve">
<style type="text/css">
	.st0{fill:#FFFFFF;}
</style>
<circle cx="256" cy="256" r="256"/>
<g>
	<path class="st0" d="M256,296c26.6,0,47.8-21.4,47.8-48l0.2-96c0-26.6-21.4-48-48-48s-48,21.4-48,48v96
		C208,274.6,229.4,296,256,296z M340.8,248c0,48-40.6,81.6-84.8,81.6S171.2,296,171.2,248H144c0,54.6,43.5,99.7,96,107.5V408h32
		v-52.5c52.5-7.7,96-52.8,96-107.5H340.8z"/>
</g>
</svg>
