<?xml version="1.0" encoding="utf-8"?>
<!-- Generator: Adobe Illustrator 27.7.0, SVG Export Plug-In . SVG Version: 6.00 Build 0)  -->
<svg version="1.1" id="Layer_1" xmlns="http://www.w3.org/2000/svg" xmlns:xlink="http://www.w3.org/1999/xlink" x="0px" y="0px"
	 viewBox="0 0 512 512" style="enable-background:new 0 0 512 512;" xml:space="preserve">
<style type="text/css">
	.st0{fill:#3C6EB4;}
	.st1{fill:#CCCCCC;}
	.st2{fill:#E7E8E9;}
	.st3{fill:#A7A9AC;}
	.st4{fill:#FFFFFF;}
	.st5{fill:#808080;}
	.st6{fill:#892CA0;}
	.st7{fill:#60605B;}
</style>
<g>
	<path class="st0" d="M372.8,239.2c0.6,3.7,1.2,7.4,1.9,11h35.8v-11H372.8z M378.7,266.8c0.7,2.5,1.5,5.1,2.4,7.6
		c2.1,1,4.1,2.2,6.1,3.5h45.4v-11.1H378.7z M305,271.9c-1.7,0.6-3.4,1.3-5,2.1v0C301.6,273.3,303.3,272.5,305,271.9z M140,410.2v11
		h132.6v-11H140z M217.2,437.8v11h109.2v-11H217.2z"/>
	<path class="st1" d="M244.5,65c-19.6,0-38.9,2.3-50.3,6.8c-31.6,11.6-55.8,43.1-63,81.3c-9.5,44.7-8.9,79.8-18.3,112.7
		c4.3-3.3,9.1-5.9,14.1-7.8c7.3-2.9,19.6-4.4,32.2-4.4s25.4,1.5,33.7,4.4c18.3,6.7,32.7,23.8,38.7,45.1h38.9
		c8-14.7,20.1-26.1,34.5-31.4c15.7-6.2,52.7-6.2,70.5,0c1.9,0.7,3.8,1.6,5.7,2.5c-12.2-35.5-10.7-72.6-21-121.2
		c-7.2-38.2-31.4-69.8-63-81.3C284.1,67.3,264.1,65,244.5,65z"/>
	<path class="st2" d="M181.1,199.1c-7.4,0-13.4,6.3-13.4,14.1c0,7.8,6,14.1,13.4,14.1c7.4,0,13.4-6.3,13.4-14.1
		C194.5,205.5,188.5,199.2,181.1,199.1L181.1,199.1z M316.3,199.1c-7.4,0-13.4,6.3-13.4,14.1c0,7.8,6,14.1,13.4,14.1
		c7.4,0,13.4-6.3,13.4-14.1c0,0,0,0,0,0C329.7,205.5,323.7,199.1,316.3,199.1C316.3,199.1,316.3,199.1,316.3,199.1z"/>
	<path class="st3" d="M203.6,202.8l-49.7,13.3l1.4,5.3l49.7-13.3L203.6,202.8z M297.7,202.8l-1.4,5.3l49.7,13.3l1.4-5.3L297.7,202.8
		z M208.6,210.9l-50,28.9l2.8,4.8l50-28.9L208.6,210.9z M292.8,210.9l-2.8,4.8l50,28.9l2.8-4.8L292.8,210.9z M212.3,220.4
		l-34.4,34.5c2.3,0.3,4.6,0.7,6.7,1.1l31.6-31.7L212.3,220.4z M289.1,220.4l-3.9,3.9l43.2,43.3c2.4-0.2,4.9-0.3,7.5-0.3L289.1,220.4
		z M213.9,233l-15.8,27.4c1.6,0.8,3.3,1.7,4.8,2.7l15.8-27.4L213.9,233z M287.4,233l-4.8,2.8l21.1,36.7c0.4-0.2,0.8-0.3,1.2-0.5
		c1.2-0.5,2.7-0.9,4.1-1.3L287.4,233z"/>
	<path class="st4" d="M293,203.4c0,22.6-19.2,40.9-42.9,40.9c0,0,0,0,0,0c-23.7,0-42.9-18.3-42.9-40.9c0,0,0,0,0,0
		c0-22.6,19.2-40.9,42.9-40.9c0,0,0,0,0,0C273.8,162.5,293,180.8,293,203.4L293,203.4z"/>
	<path class="st5" d="M268.4,196c-1.4-3.7-1.4-11.2-5.8-11.2c-4.3,0-8.3-2.8-12.6-2.8c-4.3,0-8.2,2.8-12.6,2.8
		c-4.3,0-4.3,7.5-5.8,11.2c-1.4,3.7,18.3,15.9,18.3,15.9S269.9,199.7,268.4,196z"/>
	<path class="st0" d="M229.6,297.2c1.3,3.5,2.4,7.2,3.2,11H268c1.8-3.9,3.8-7.6,6.1-11L229.6,297.2z M406.3,297.2
		c2.3,3.5,4.4,7.2,6.1,11h44.3v-11H406.3z"/>
	<path class="st1" d="M159.2,253.8c-12.6,0-24.9,1.5-32.2,4.4c-20.2,7.4-35.7,27.5-40.3,51.9c-2.4,11.3-3.8,21.6-5,31.2h156.3
		c-1.2-9.7-2.5-19.9-4.9-31.2c-4.6-24.4-20.1-44.5-40.3-51.9C184.5,255.2,171.7,253.8,159.2,253.8L159.2,253.8z"/>
	<path class="st2" d="M118.7,339.4c-1.8,0.1-3.6,0.7-5,1.9h10.2C122.4,340,120.5,339.4,118.7,339.4L118.7,339.4z M205.1,339.4
		c-1.8,0.1-3.6,0.7-5,1.9h10.2C208.9,340,207,339.4,205.1,339.4L205.1,339.4z"/>
	<path class="st3" d="M132.8,340.7l-1.9,0.5h2.1L132.8,340.7z M193.5,340.7l-0.1,0.5h2.1L193.5,340.7z"/>
	<path class="st4" d="M162.8,316c-14.8,0-26.9,11.2-27.4,25.3h54.7C189.7,327.2,177.6,316.1,162.8,316z"/>
	<path class="st5" d="M162.8,328.4c-2.7,0-5.3,1.8-8,1.8s-2.8,4.8-3.7,7.1c-0.3,0.8,1.1,2.3,2.9,3.9h17.6c1.9-1.6,3.2-3.1,2.9-3.9
		c-0.9-2.4-0.9-7.1-3.7-7.1C168.1,330.2,165.5,328.4,162.8,328.4z"/>
	<path class="st6" d="M366.9,5.9L144,6.5c-1.7,0-3.3,0.8-4.3,2.1L1.2,183.5c-1,1.3-1.4,3-1,4.6l50.2,217.5c0.4,1.6,1.5,3,3,3.7
		l201.1,96.2c1.5,0.7,3.3,0.7,4.8,0l200.6-97.4c1.5-0.7,2.6-2.1,3-3.8l49-217.7c0.4-1.6,0-3.3-1.1-4.6L371.3,7.9
		C370.2,6.6,368.6,5.9,366.9,5.9L366.9,5.9z M364.3,16.9l136.2,169.9l-47.8,212.6l-195.8,95.1L60.6,400.6L11.5,188.3L146.7,17.5
		L364.3,16.9z"/>
	<path class="st1" d="M426.6,382.9c-2.4-16.5-3.6-34.4-8.1-55.5c-4.9-26.1-21.5-47.6-43.1-55.5c-17.8-6.2-54.8-6.2-70.5,0
		c-21.6,7.9-38.2,29.4-43.1,55.5c-4.5,21.1-5.7,39.1-8.1,55.5"/>
	<path class="st2" d="M296.1,358.8c-5.1,0-9.1,4.3-9.1,9.6c0,0,0,0,0,0c0,5.3,4.1,9.6,9.1,9.6c0,0,0,0,0,0c5.1,0,9.1-4.3,9.1-9.6
		C305.2,363.1,301.1,358.8,296.1,358.8z M388.5,358.8c-5.1,0-9.1,4.3-9.1,9.6c0,0,0,0,0,0c0,5.3,4.1,9.6,9.1,9.6c0,0,0,0,0,0
		c5.1,0,9.1-4.3,9.1-9.6C397.7,363.1,393.6,358.8,388.5,358.8z"/>
	<path class="st3" d="M311.3,360.4l-34,9.1l1.4,5.3l34-9.1L311.3,360.4z M376,360.4l-1.4,5.3l34,9.1l1.4-5.3L376,360.4z M314.4,366
		l-34.2,19.7l2.8,4.8l34.2-19.7L314.4,366z M372.9,366l-2.8,4.8l34.2,19.7l2.8-4.8L372.9,366z"/>
	<path class="st4" d="M372.6,361.6c0,15.4-13.1,27.9-29.4,27.9c-16.2,0-29.4-12.5-29.4-27.9l0,0c0-15.4,13.2-27.9,29.4-27.9
		c0,0,0,0,0,0C359.5,333.8,372.6,346.2,372.6,361.6z"/>
	<path class="st5" d="M355.8,356.6c-1-2.5-1-7.6-3.9-7.6c-3,0-5.7-1.9-8.6-1.9c-2.9,0-5.6,1.9-8.6,1.9c-3,0-3,5.1-3.9,7.6
		c-1,2.5,12.5,10.8,12.5,10.8S356.8,359.2,355.8,356.6z"/>
	<path class="st7" d="M250.1,158.4c-25.8,0-47.1,20.1-47.1,45s21.2,45,47.1,45c25.8,0,47.1-20.1,47.1-45S275.9,158.4,250.1,158.4z
		 M250.1,166.6c21.6,0,38.8,16.5,38.8,36.7c0,20.2-17.2,36.7-38.8,36.7c-21.6,0-38.8-16.5-38.8-36.7
		C211.3,183.2,228.5,166.6,250.1,166.6z M162.8,311.8c-17,0-31.1,13-31.6,29.4h8.3c0.4-11.7,10.5-21.2,23.3-21.2
		c12.8,0,22.8,9.5,23.3,21.2h8.3C193.9,324.9,179.8,311.8,162.8,311.8z M343.3,329.6c-18.3,0-33.5,14.2-33.5,32
		c0,17.8,15.2,32,33.5,32c18.3,0,33.5-14.3,33.5-32C376.8,343.9,361.6,329.6,343.3,329.6L343.3,329.6z M343.3,337.9
		c14.1,0,25.2,10.7,25.2,23.7c0,13-11.1,23.7-25.2,23.7c-14.1,0-25.2-10.7-25.2-23.8C318,348.6,329.2,337.9,343.3,337.9L343.3,337.9
		z"/>
	<path class="st0" d="M63.8,341.3v11h193.8c0.5-3.6,1-7.3,1.6-11H63.8z M162.1,382.6v11h286.7v-11h-22.2l0,0.3H253.8l0-0.3H162.1z"
		/>
	<path d="M244.5,60.9L244.5,60.9c-19.9,0-39.3,2.2-51.8,7.1c-33.1,12.2-58.1,44.9-65.5,84.3c-6.6,31.3-8.4,57.7-11.9,81.6
		c-1.5,10.2-3.4,20-6,29.5c-13.4,10.6-23.1,27.1-26.6,45.8c-2.5,11.7-3.8,22.2-5,32h8.3c1.2-9.5,2.5-19.4,4.8-30.4l0,0v-0.1
		c4.4-23.1,19.1-42,37.6-48.7l0.1,0l0,0c6.3-2.5,18.4-4.1,30.7-4.1c12.2,0,24.8,1.5,32.3,4.1c18.5,6.8,33.2,25.6,37.6,48.7v0.1l0,0
		c2.3,10.9,3.7,20.9,4.8,30.4h8.3c-1.2-9.8-2.5-20.4-5-32c-4.8-25.6-21.1-47-42.9-55h0l0,0c-9.2-3.2-22.2-4.6-35.1-4.6
		c-12.9,0-25.3,1.3-33.7,4.6c-2.1,0.8-4.1,1.7-6,2.7c1.6-7.2,3-14.5,4-21.8c3.6-24.4,5.3-50.5,11.7-81.1l0,0v-0.1
		c6.9-37,30.4-67.2,60.3-78.2l0,0h0.1c10.4-4.1,29.5-6.5,48.8-6.5c19.3,0,39.1,2.3,51.2,6.6c29.9,10.9,53.4,41.2,60.3,78.2l0,0.1v0
		c6.5,30.6,8.2,56.7,11.8,81.1c1.6,11,3.7,21.6,6.7,32.1c-9.6-2.9-22.4-4.2-35.2-4.2c-13.7,0-27,1.4-35.9,5
		c-23.2,8.5-40.5,31.2-45.7,58.5c-4.5,21.4-5.8,39.5-8.1,55.8l8.2,1.2c2.5-16.7,3.6-34.5,8-55.3l0,0v0c4.7-24.8,20.5-45.1,40.4-52.4
		h0l0.1,0c6.8-2.7,19.8-4.4,32.9-4.4c13.1,0,26.6,1.6,34.7,4.4h0c19.9,7.3,35.7,27.6,40.4,52.4v0.1c4.4,20.8,5.6,38.6,8,55.3
		l8.2-1.2c-2.4-16.3-3.6-34.3-8.1-55.8c-4.6-24.2-18.8-44.9-38.1-55.1c-4-12.1-6.5-24.4-8.4-37.5c-3.5-23.9-5.2-50.3-11.8-81.6
		c-7.4-39.5-32.4-72.3-65.6-84.4h-0.1C284.6,63.1,264.4,60.9,244.5,60.9L244.5,60.9z M182.2,110.8c-8.6,0-16.8,3.9-22,10.7l-2.5,3.3
		l6.6,5.1l2.5-3.3c3.5-4.4,8.7-7.2,14.4-7.5c5.2-0.2,10.6,1.9,14.3,5.5l2.9,2.9l5.9-5.9l-2.9-2.9
		C196.2,113.7,189.3,110.9,182.2,110.8L182.2,110.8z M315.7,110.8c-7.2,0.1-14,2.9-19.1,8l-2.9,2.9l5.8,5.9l2.9-2.9
		c3.8-3.7,9-5.7,14.3-5.5c5.5,0.2,11,3.1,14.4,7.5l2.5,3.3l6.5-5.1l-2.5-3.3C332.4,114.7,324.3,110.7,315.7,110.8z M182,147.2
		c-11.4,0-20.7,9.5-20.7,21.2c0,11.7,9.3,21.2,20.7,21.2c11.4,0,20.7-9.5,20.7-21.2c0,0,0,0,0,0C202.7,156.7,193.4,147.2,182,147.2
		C182,147.2,182,147.2,182,147.2z M315.8,147.2c-11.4,0-20.7,9.5-20.7,21.2c0,11.7,9.3,21.2,20.7,21.2c11.4,0,20.7-9.5,20.7-21.2
		C336.5,156.7,327.3,147.2,315.8,147.2L315.8,147.2z M250.1,177.9c-3,0-5.5,0.9-7.6,1.6c-2.1,0.7-3.7,1.2-5,1.2
		c-2.3,0-4.5,1.2-5.7,2.7c-1.2,1.5-1.8,3-2.2,4.4c-0.9,2.9-1.3,5.8-1.7,6.8c-0.9,2.3,0,4.1,0.7,5.3c0.7,1.2,1.6,2.1,2.5,3.1
		c1.9,1.9,4.4,3.9,6.9,5.7c2.5,1.9,5.1,3.5,7,4.8l-0.1,1.7c-0.9,0.8-3.2,2.8-7,4c-2.2,0.8-4.5,1-6.4,0.5c-1.7-0.4-3.3-1.9-5-4.1
		c0.1-0.9,0.1-1.2,0.3-2.7c0.3-2.5,0.9-5.5,1.1-6.4l-8-2c-0.5,1.9-0.9,4.7-1.2,7.3c-0.4,2.6-0.6,4.8-0.6,4.8l-0.2,1.5l0.8,1.2
		c2.9,4.6,6.8,7.4,10.8,8.4c4,1,7.9,0.4,11.1-0.7c4.2-1.4,7.6-3.7,9.5-5.2c1.9,1.4,5.3,3.7,9.5,5.2c3.2,1.1,7.1,1.7,11.1,0.7
		c4-1,7.9-3.8,10.8-8.4l0.8-1.2l-0.2-1.5c0,0-0.3-2.2-0.6-4.8c-0.4-2.6-0.8-5.4-1.2-7.3l-8,2c0.2,0.9,0.7,3.9,1.1,6.4
		c0.2,1.4,0.2,1.8,0.3,2.6c-1.7,2.2-3.3,3.7-5,4.1c-1.9,0.5-4.2,0.2-6.4-0.5c-3.8-1.3-6-3.3-7-4l-0.1-1.6c1.9-1.2,4.5-3,7.1-4.9
		c2.5-1.8,4.9-3.8,6.9-5.7c1-1,1.8-1.9,2.5-3.1c0.7-1.2,1.5-3,0.7-5.3c-0.4-1-0.8-3.9-1.7-6.8c-0.4-1.4-1-2.9-2.2-4.4
		c-1.2-1.5-3.4-2.7-5.7-2.7c-1.3,0-2.9-0.5-5-1.2C255.6,178.8,253.1,177.9,250.1,177.9L250.1,177.9z M250.1,186.1
		c1.2,0,2.8,0.5,4.9,1.2c1.9,0.6,4.3,1.4,7.1,1.5c0.1,0.1,0.3,0.6,0.6,1.4c0.4,1.4,0.9,3.6,1.5,5.8c-0.2,0.3-0.4,0.6-1,1.1
		c-1.4,1.4-3.6,3.2-5.9,4.8c-3.5,2.6-5.7,3.9-7.2,4.9c-1.5-0.9-3.7-2.3-7.3-4.9c-2.3-1.7-4.5-3.5-5.8-4.8c-0.5-0.5-0.8-0.9-1-1.1
		c0.6-2.1,1.1-4.3,1.5-5.8c0.1-0.5,0.3-1,0.6-1.4c2.7-0.1,5.1-0.8,7-1.5C247.2,186.6,248.9,186.1,250.1,186.1z M118.3,281.5
		c-5.6,0.2-10.8,3-14.3,7.4l-2.5,3.3l6.5,5.1l2.5-3.3c2-2.5,4.9-4,8.1-4.2c3-0.1,5.9,1,8,3.1l2.9,2.9l5.8-5.9l-2.9-2.9
		C128.8,283.3,123.6,281.3,118.3,281.5z M205.7,281.5c-5.3-0.2-10.4,1.8-14.2,5.5l-2.9,2.9l5.8,5.9l2.9-2.9c2.1-2.1,5-3.2,8-3.1
		c3.2,0.2,6.1,1.7,8.1,4.2l2.5,3.3l6.6-5.1l-2.5-3.3C216.5,284.4,211.3,281.7,205.7,281.5z M388.1,297.1L388.1,297.1
		c-5.2,0.1-10.2,2.1-14,5.8l-2.9,2.9l5.8,5.9l2.9-2.9c2.4-2.3,5.5-3.5,8.8-3.4c3.4,0.1,6.8,1.9,8.9,4.6l2.5,3.3l6.5-5.1l-2.5-3.3
		c-3.6-4.7-9.1-7.5-15-7.8C388.8,297.1,388.5,297.1,388.1,297.1z M296.8,297.1c-0.3,0-0.7,0-1,0c-5.9,0.3-11.4,3.1-15.1,7.8
		l-2.5,3.3l6.6,5.1l2.5-3.3c2.2-2.7,5.4-4.4,8.8-4.6c3.3-0.1,6.5,1.1,8.8,3.4l2.9,2.9l5.8-5.9l-2.9-2.9
		C307,299.3,302,297.2,296.8,297.1L296.8,297.1z M119.2,306.2c-7.3,0-13.2,6.1-13.2,13.5c0,7.5,5.9,13.6,13.2,13.6c0,0,0,0,0,0
		c7.3,0,13.2-6.1,13.2-13.5c0,0,0,0,0,0C132.4,312.3,126.5,306.2,119.2,306.2z M204.8,306.2c-7.3,0-13.2,6-13.3,13.5c0,0,0,0,0,0
		c0,7.5,5.9,13.6,13.2,13.6c0,0,0,0,0.1,0c7.3,0,13.2-6.1,13.2-13.5c0,0,0,0,0,0C218.1,312.3,212.1,306.2,204.8,306.2z M296.7,323.3
		c-7.8,0-14.1,6.5-14.1,14.5c0,8,6.3,14.5,14.1,14.5c7.8,0,14.2-6.5,14.2-14.5c0,0,0,0,0,0C310.8,329.8,304.5,323.3,296.7,323.3
		C296.7,323.3,296.7,323.3,296.7,323.3z M388.2,323.3c-7.8,0-14.2,6.5-14.2,14.5c0,0,0,0,0,0c0,8,6.3,14.5,14.2,14.5c0,0,0,0,0,0
		c7.8,0,14.1-6.5,14.1-14.5C402.4,329.8,396,323.3,388.2,323.3z M162.8,324.3c-2.3,0-4,0.7-5.3,1.1c-1.3,0.4-2.2,0.7-2.7,0.7
		c-1.9,0-3.8,1.1-4.8,2.3c-1,1.2-1.4,2.3-1.7,3.3c-0.6,2-0.9,3.9-1,4.2c-0.8,2.1,0,3.8,0.5,4.7c0.2,0.3,0.3,0.5,0.5,0.7h12.6
		c-0.6-0.4-1.2-0.8-1.8-1.3c-1.4-1.1-2.8-2.2-3.6-2.9v0c0.3-1,0.5-2.3,0.7-2.9c0-0.1,0,0,0-0.1c1.5-0.2,2.9-0.5,3.9-0.8
		c1.3-0.4,2.2-0.7,2.7-0.7c0.5,0,1.3,0.2,2.7,0.7c1,0.3,2.5,0.6,3.9,0.8c0,0.1,0,0,0,0.1c0.2,0.6,0.5,1.8,0.8,2.9l0,0
		c-0.8,0.8-2.2,1.9-3.6,2.9c-0.6,0.4-1.2,0.9-1.8,1.3h12.6c0.2-0.2,0.3-0.4,0.5-0.7c0.6-1,1.3-2.6,0.5-4.7c-0.1-0.3-0.5-2.2-1.1-4.2
		c-0.3-1.2-0.9-2.3-1.7-3.3c-1-1.2-2.9-2.3-4.8-2.3c-0.5,0-1.4-0.2-2.7-0.7C166.8,325,165.1,324.3,162.8,324.3z M343.3,342.9
		c-2.4,0-4.2,0.7-5.6,1.2c-1.4,0.5-2.4,0.7-3,0.7c-1.9,0-3.9,1.1-4.9,2.3c-1,1.2-1.4,2.4-1.8,3.5c-0.7,2.1-1,4.1-1.1,4.5
		c-0.8,2.2,0,3.8,0.5,4.8c0.6,1,1.2,1.7,1.9,2.4c1.4,1.4,3.1,2.8,4.8,4c1.4,1,2.8,2,4,2.8c-0.8,0.6-1.8,1.5-3.7,2.1
		c-1.4,0.5-2.6,0.6-3.6,0.3c-0.7-0.2-1.6-1-2.4-2c0.1-0.5,0.1-0.5,0.2-1.2c0.2-1.7,0.6-3.8,0.7-4.3l-8-2c-0.4,1.5-0.6,3.3-0.9,5.1
		c-0.2,1.8-0.4,3.3-0.4,3.3l-0.2,1.5l0.8,1.3c2.1,3.4,5.1,5.5,8.2,6.3c3.1,0.8,5.9,0.3,8.3-0.5c2.2-0.8,4.2-1.8,6.1-3.2
		c1.4,1,3.5,2.3,6.1,3.2c2.4,0.8,5.2,1.3,8.3,0.5c3.1-0.8,6-2.9,8.2-6.3l0.8-1.3l-0.2-1.5c0,0-0.2-1.5-0.5-3.3
		c-0.2-1.8-0.5-3.7-0.9-5.1l-8,2c0.1,0.4,0.5,2.6,0.7,4.3c0.1,0.6,0.1,0.7,0.1,1.2c-0.8,0.9-1.6,1.8-2.4,2c-1,0.3-2.3,0.1-3.6-0.3
		c-1.8-0.6-2.9-1.5-3.6-2.1c1.2-0.8,2.6-1.7,4.1-2.8c1.7-1.3,3.4-2.6,4.8-4c0.8-0.7,1.4-1.5,1.9-2.4c0.6-1,1.4-2.6,0.5-4.8
		c-0.2-0.4-0.5-2.4-1.1-4.5c-0.3-1.1-0.7-2.3-1.7-3.5c-1-1.2-3-2.3-4.9-2.3c-0.6,0-1.6-0.2-3-0.7
		C347.5,343.6,345.6,342.9,343.3,342.9L343.3,342.9z M343.3,351.2c0.5,0,1.5,0.2,2.9,0.7c1.4,0.4,2.9,0.7,4.3,0.9
		c0.1,0.1,0,0,0.1,0.2c0.2,0.7,0.6,2,0.9,3.3l-0.1,0.1c-1.2,1.1-2.5,2.2-3.9,3.2c-2,1.5-3,2-4.2,2.8c-1.2-0.8-2.2-1.3-4.2-2.8
		c-1.4-1-2.7-2-3.9-3.2c-0.1-0.1-0.1-0.1-0.1-0.2c0.3-1.2,0.6-2.5,0.8-3.2c0.1-0.2,0-0.1,0.1-0.2c1.5-0.2,2.9-0.5,4.3-0.9
		C341.7,351.5,342.7,351.2,343.3,351.2L343.3,351.2z"/>
	<path class="st6" d="M182,143.1c-6.6,0-12.9,2.7-17.5,7.5c-2.8,2.9-5,6.5-6.1,10.4c-0.9,2.8-1.2,5.8-1.1,8.8
		c0.4,7.9,4.4,15.2,10.9,19.7c1.7,1.1,3.5,2.1,5.3,2.8c5.9,2.2,12.4,2.1,18.2-0.4c2.2-1,4.3-2.2,6.1-3.8c2.2-1.8,4-4,5.4-6.4
		c3-5.1,4.2-11.1,3.3-16.9c-0.5-3.3-1.6-6.4-3.3-9.3c-1.9-3.1-4.4-5.8-7.3-7.9c-1.7-1.1-3.5-2.1-5.3-2.8
		C187.8,143.6,184.9,143.1,182,143.1L182,143.1z M315.8,143.1c-2.9,0-5.8,0.5-8.5,1.6c-2.3,0.9-4.4,2-6.3,3.5
		c-2.2,1.7-4.2,3.8-5.7,6.2c-3.7,5.7-5.1,12.6-3.7,19.2c1,4.8,3.3,9.3,6.8,12.8c1.7,1.7,3.6,3.2,5.7,4.4c2.1,1.2,4.4,2.1,6.8,2.6
		c2.5,0.5,5,0.7,7.5,0.4c4.9-0.5,9.5-2.5,13.2-5.7c2.5-2.1,4.5-4.6,6-7.5c2.4-4.5,3.4-9.6,2.9-14.6c-0.4-3.7-1.6-7.3-3.5-10.5
		c-2.1-3.5-4.9-6.4-8.3-8.6c-2.1-1.3-4.3-2.3-6.7-2.9C320,143.4,317.9,143.1,315.8,143.1L315.8,143.1z M182,151.3L182,151.3
		c0.9,0,1.7,0.1,2.5,0.2c1.9,0.3,3.7,0.9,5.4,1.8c1.4,0.8,2.7,1.8,3.8,2.9c1.5,1.6,2.7,3.4,3.6,5.4c0.8,1.8,1.2,3.8,1.3,5.8
		c0.1,2-0.2,4.1-0.7,6c-0.6,2.1-1.7,4.1-3,5.8c-1.4,1.7-3,3.1-4.9,4.1c-3.2,1.8-6.8,2.4-10.4,1.8c-4-0.6-7.7-2.8-10.2-6
		c-1.4-1.7-2.4-3.7-3-5.8c-0.5-1.7-0.8-3.4-0.7-5.1c0-1.7,0.3-3.5,0.7-5.1c0.6-2.1,1.7-4.1,3-5.8c1.3-1.7,3-3.1,4.9-4.1
		c2.2-1.2,4.6-1.9,7-2C181.4,151.3,181.7,151.3,182,151.3L182,151.3z M315.8,151.3c1.7,0,3.3,0.3,4.9,0.8c2.1,0.7,4,1.7,5.6,3.1
		c1.7,1.4,3,3.1,4,5c1.1,2,1.7,4.2,1.9,6.4c0.3,3.4-0.3,6.9-1.9,10c-1,1.9-2.4,3.6-4,5c-1.2,1-2.6,1.9-4.1,2.5
		c-4.1,1.8-8.8,1.8-12.9,0c-2-0.9-3.8-2.1-5.3-3.6c-1.5-1.6-2.7-3.4-3.6-5.4c-0.8-1.8-1.2-3.8-1.3-5.8c-0.1-1.5,0-2.9,0.3-4.4
		c0.4-2.2,1.3-4.3,2.5-6.1c1.2-1.8,2.7-3.4,4.5-4.6c1.6-1.1,3.3-1.9,5.1-2.4C313.1,151.5,314.5,151.3,315.8,151.3z M118.8,302.1
		c-0.1,0-0.3,0-0.4,0c-9.2,0.5-16.4,8.3-16.4,17.7c0,9.7,7.7,17.7,17.3,17.7s17.4-8,17.4-17.7c0-9.7-7.8-17.7-17.4-17.7L118.8,302.1
		z M204.4,302.1c-0.2,0-0.3,0-0.5,0c-9.2,0.5-16.5,8.3-16.5,17.7c0,9.7,7.8,17.7,17.4,17.7c9.6,0,17.3-8,17.3-17.7
		c0-9.7-7.7-17.7-17.3-17.7C204.9,302.1,204.4,302.1,204.4,302.1z M119.2,310.4c5,0,9.1,4.1,9.1,9.4c0,5.3-4.1,9.4-9.1,9.4
		c-5,0-9.1-4.1-9.1-9.4C110.1,314.5,114.2,310.4,119.2,310.4z M204.9,310.4c5,0,9.1,4.1,9.1,9.4c0,5.3-4.1,9.4-9.1,9.4
		s-9.1-4.1-9.1-9.4C195.7,314.5,199.8,310.4,204.9,310.4z M296.7,319.2c-10.1,0-18.3,8.4-18.3,18.6c0,10.2,8.2,18.6,18.3,18.6
		c10.1,0,18.3-8.4,18.3-18.6C314.9,327.6,306.8,319.2,296.7,319.2z M388.2,319.2c-10.1,0-18.3,8.4-18.3,18.6
		c0,10.2,8.2,18.6,18.3,18.6c10.1,0,18.3-8.4,18.3-18.6C406.5,327.6,398.3,319.2,388.2,319.2z M296.4,327.5l0.3,0
		c5.5,0,10,4.5,10,10.3c0,5.8-4.5,10.4-10,10.4c-5.5,0-10-4.5-10-10.4c0-5.6,4.2-10.1,9.5-10.3C296.2,327.5,296.3,327.5,296.4,327.5
		L296.4,327.5z M388,327.5l0.3,0c5.5,0,10,4.5,10,10.3c0,5.8-4.5,10.4-10,10.4c-5.5,0-10-4.5-10-10.4c0-5.6,4.2-10.1,9.5-10.3
		C387.8,327.5,387.9,327.5,388,327.5L388,327.5z"/>
	<path class="st4" d="M175.1,151.9c-5.6,0-10.2,4.7-10.2,10.6c0,5.8,4.5,10.6,10.1,10.6c0,0,0,0,0,0c5.6,0,10.2-4.7,10.2-10.6
		c0,0,0,0,0,0C185.3,156.6,180.7,151.9,175.1,151.9z M308.9,151.9c-5.6,0-10.2,4.7-10.2,10.6c0,5.8,4.5,10.6,10.1,10.6c0,0,0,0,0,0
		c5.6,0,10.2-4.7,10.2-10.6c0,0,0,0,0,0C319.1,156.6,314.5,151.9,308.9,151.9z M114.8,309.2c-3.6,0-6.5,3-6.5,6.7
		c0,3.7,2.9,6.7,6.5,6.8c0,0,0,0,0,0c3.6,0,6.5-3,6.5-6.7c0,0,0,0,0,0C121.3,312.2,118.4,309.2,114.8,309.2
		C114.8,309.2,114.8,309.2,114.8,309.2L114.8,309.2z M201.3,310.2c-3.6,0-6.5,3-6.5,6.7c0,0,0,0,0,0c0,3.7,2.9,6.7,6.5,6.7
		c0,0,0,0,0,0c3.6,0,6.5-3,6.5-6.7c0,0,0,0,0,0C207.8,313.2,204.9,310.2,201.3,310.2C201.3,310.2,201.3,310.2,201.3,310.2z
		 M292,326.5c-3.8,0-6.9,3.2-7,7.2c0,4,3.1,7.2,6.9,7.2c0,0,0,0,0,0c3.8,0,7-3.2,7-7.2c0,0,0,0,0,0
		C298.9,329.7,295.8,326.5,292,326.5z M384.9,327.5c-3.8,0-7,3.2-7,7.2c0,0,0,0,0,0c0,4,3.1,7.2,7,7.2c3.8,0,7-3.2,7-7.2
		C391.9,330.7,388.8,327.5,384.9,327.5C385,327.5,385,327.5,384.9,327.5z"/>
</g>
</svg>
