<svg xmlns="http://www.w3.org/2000/svg" width="924" height="1074" baseProfile="tiny-ps" version="1.2"><defs><clipPath id="a" clipPathUnits="userSpaceOnUse"><path d="M-1254.94-16433.57h31976.01V1561.99H-1254.94v-17995.56Z"/></clipPath><clipPath id="b" clipPathUnits="userSpaceOnUse"><path d="M2446.78 6.38v1075.73H.12V6.38"/></clipPath></defs><g clip-path="url(#a)"><g clip-path="url(#b)"><path fill-rule="evenodd" d="M923.09 536.58 534.38 763.36l-10.99 6.99-4 2-18.15 10.17-5 2-13.99 8.16-14.15 7-8 5.17-11.99 4.99-12.15 5-10 5.17-10.99 4-11.16 3v1l-10.99 3.16-9.99 3-10.16 2-9.99 2h-1l-9.99 2-10.16 1-9 1-9.99 1H293.4l-9-1-10.16-1-8.99-1-7.99-1-9-2-10.16-2-5.99-2-9.99-3.16-9.16-3-10-3-14.98-6-9.16-5.17-9-4-9.99-4.99-6-4.17-9.16-5-7.99-5.16h-1l-5.99-5-8-6v223.61L.12 1073.95V559.91l1-15.17.99-10.16 1-13.16 1-12.17 2-12.16 4-22.16v-1l2-10.17 2.99-11.16 3.17-9 3-10.16v-1l3.99-9.17 3-9.16 4-9 4.99-9.16 4-8v-1.17l5-8 5.16-8.16 5-8 5.99-8.16 6-7 4.99-6.17 6-6.99 7.16-8.17 4-4 6.99-7.16 8-7 7.99-6.17 8.16-7 5-2.99 7.99-6.17 8-6 9.16-5.16 6.99-4 8.99-5 8-5.17h1l7.16-4 4-1 4.99-1.99L.12 141.01V.38l389.7 225.61 11 6 3.99 2 18.16 11.16 3.99 2 13.99 9.16 13.16 8.17 7.99 6 10.99 7.16 10.16 8 9 7.17 8.99 6.99 9.16 7.17v1l7.99 7 8 8.16 6.99 7 7 8.16 7.16 8.17 5.99 8 5 8.16 6 8 4.99 8.16 5.17 8 3.99 9.17 4 8.16 4 9 3.99 9.16 3 7.17 3 9 2 10.16 2 6 1.99 9.16 2 10.17 2.17 9.99 2 11.17v5.16l1.99 11v10.17l1 10.16v18.16l-1 9.17v9.16l-1.99 10 192.68-112.31 121.58 70.82Zm-432.84 0c0-101.14-81.44-183.12-182.86-183.12-100.43 0-181.7 81.98-181.7 183.12 0 101.31 81.27 183.12 181.7 183.12 101.42 0 182.86-81.81 182.86-183.12Z" style="fill:#ff3900"/></g></g></svg>