<svg xmlns="http://www.w3.org/2000/svg" width="35" height="35" fill="none"><path fill="#88CFB0" d="M11.974 34V23.54h10.885v4.25c0 3.378-2.721 6.211-6.205 6.211h-4.68Z"/><path fill="#F2C94C" d="M23.077 23.32V12.205h10.886v4.904c0 3.378-2.722 6.211-6.205 6.211h-4.68Z"/><path fill="#BD83CE" d="M22.86 12.205H11.973v11.006h10.885V12.205Z"/><path fill="#40BE88" d="M.871 11.988V7.084C.871 3.705 3.593.872 7.076.872h4.68v11.115H.872Z"/><path fill="#FF7474" d="M23.077 11.988V.872h4.68c3.375 0 6.206 2.724 6.206 6.212v4.904H23.077Z"/><path fill="#6776F9" d="M22.86.872H11.973v11.006h10.885V.873Z"/><path fill="#37C2E2" d="M.871 27.788v-4.25h10.886V34H7.076C3.593 34 .87 31.276.87 27.788Z"/><path fill="#F2994A" d="M11.757 12.205H.87v11.006h10.886V12.205Z"/><path fill="#2F2F3A" fill-rule="evenodd" d="M0 27.788V7.083A7.065 7.065 0 0 1 7.076 0h20.683a7.065 7.065 0 0 1 7.075 7.083V17.11a7.065 7.065 0 0 1-7.076 7.083h-4.027v3.596a7.065 7.065 0 0 1-7.076 7.084h-9.58A7.065 7.065 0 0 1 0 27.788Zm10.886-16.782H1.85V6.974c0-2.833 2.286-5.23 5.225-5.23h3.81v9.262ZM27.759 22.45h-3.81v-9.372h9.034v4.141c0 2.833-2.285 5.23-5.224 5.23ZM16.655 33.13h-3.81v-8.61h9.035v3.378c0 2.834-2.286 5.231-5.225 5.231Zm-3.81-10.68h9.035v-9.372h-9.035v9.372Zm11.103-11.443h9.035V7.083c0-2.942-2.394-5.23-5.224-5.23h-3.81v9.153Zm-2.068 0h-9.035V1.744h9.035v9.262ZM1.742 24.41v3.378c0 2.943 2.395 5.231 5.225 5.231h3.919V24.41H1.742Zm9.144-1.961H1.742v-9.372h9.144v9.372Z" clip-rule="evenodd"/></svg>