<svg version="1.2" baseProfile="tiny-ps" xmlns="http://www.w3.org/2000/svg" viewBox="0 0 924 1074" width="924" height="1074">
	<title>Q2'22-Earnings-Presentation-2-pdf-svg</title>
	<defs>
		<clipPath clipPathUnits="userSpaceOnUse" id="cp1">
			<path d="M-1254.94 -16433.57L30721.07 -16433.57L30721.07 1561.99L-1254.94 1561.99L-1254.94 -16433.57Z" />
		</clipPath>
		<clipPath clipPathUnits="userSpaceOnUse" id="cp2">
			<path d="M2446.78 6.38L2446.78 1082.11L0.12 1082.11L0.12 6.38" />
		</clipPath>
	</defs>
	<style>
		tspan { white-space:pre }
		.shp0 { fill: #ff3900 } 
	</style>
	<g id="Clip-Path: Page 1" clip-path="url(#cp1)">
		<g id="Page 1">
			<g id="Clip-Path: Mask" clip-path="url(#cp2)">
				<g id="Mask">
					<path id="Path 6" fill-rule="evenodd" class="shp0" d="M923.09 536.58L534.38 763.36L523.39 770.35L519.39 772.35L501.24 782.52L496.24 784.52L482.25 792.68L468.1 799.68L460.1 804.85L448.11 809.84L435.96 814.84L425.96 820.01L414.97 824.01L403.81 827.01L403.81 828.01L392.82 831.17L382.83 834.17L372.67 836.17L362.68 838.17L361.68 838.17L351.69 840.17L341.53 841.17L332.53 842.17L322.54 843.17L293.4 843.17L284.4 842.17L274.24 841.17L265.25 840.17L257.26 839.17L248.26 837.17L238.1 835.17L232.11 833.17L222.12 830.01L212.96 827.01L202.96 824.01L187.98 818.01L178.82 812.84L169.82 808.84L159.83 803.85L153.83 799.68L144.67 794.68L136.68 789.52L135.68 789.52L129.69 784.52L121.69 778.52L121.69 1002.13L0.12 1073.95L0.12 559.91L1.12 544.74L2.11 534.58L3.11 521.42L4.11 509.25L6.11 497.09L10.11 474.93L10.11 473.93L12.11 463.76L15.1 452.6L18.27 443.6L21.27 433.44L21.27 432.44L25.26 423.27L28.26 414.11L32.26 405.11L37.25 395.95L41.25 387.95L41.25 386.78L46.25 378.78L51.41 370.62L56.41 362.62L62.4 354.46L68.4 347.46L73.39 341.29L79.39 334.3L86.55 326.13L90.55 322.13L97.54 314.97L105.54 307.97L113.53 301.8L121.69 294.8L126.69 291.81L134.68 285.64L142.68 279.64L151.84 274.48L158.83 270.48L167.82 265.48L175.82 260.31L176.82 260.31L183.98 256.31L187.98 255.31L192.97 253.32L0.12 141.01L0.12 0.38L389.82 225.99L400.82 231.99L404.81 233.99L422.97 245.15L426.96 247.15L440.95 256.31L454.11 264.48L462.1 270.48L473.09 277.64L483.25 285.64L492.25 292.81L501.24 299.8L510.4 306.97L510.4 307.97L518.39 314.97L526.39 323.13L533.38 330.13L540.38 338.29L547.54 346.46L553.53 354.46L558.53 362.62L564.53 370.62L569.52 378.78L574.69 386.78L578.68 395.95L582.68 404.11L586.68 413.11L590.67 422.27L593.67 429.44L596.67 438.44L598.67 448.6L600.67 454.6L602.66 463.76L604.66 473.93L606.83 483.92L608.83 495.09L608.83 500.25L610.82 511.25L610.82 521.42L611.82 531.58L611.82 549.74L610.82 558.91L610.82 568.07L608.83 578.07L801.51 465.76L923.09 536.58ZM490.25 536.58C490.25 435.44 408.81 353.46 307.39 353.46C206.96 353.46 125.69 435.44 125.69 536.58C125.69 637.89 206.96 719.7 307.39 719.7C408.81 719.7 490.25 637.89 490.25 536.58Z" />
				</g>
			</g>
		</g>
	</g>
</svg>