<?xml version="1.0" encoding="utf-8"?>
<!-- Generator: Adobe Illustrator 27.7.0, SVG Export Plug-In . SVG Version: 6.00 Build 0)  -->
<svg version="1.1" id="Layer_1" xmlns="http://www.w3.org/2000/svg" xmlns:xlink="http://www.w3.org/1999/xlink" x="0px" y="0px"
	 viewBox="0 0 512 512" style="enable-background:new 0 0 512 512;" xml:space="preserve">
<style type="text/css">
	.st0{fill:#13BEF9;}
	.st1{fill:#FFFFFF;}
	.st2{fill-rule:evenodd;clip-rule:evenodd;fill:#FFFFFF;}
</style>
<circle class="st0" cx="256" cy="256" r="256"/>
<g>
	<path class="st1" d="M207.3,141.3H201v32.4h6.2V141.3z M234.1,141.3h-6.2v32.4h6.2V141.3z M270.8,79.5l-6.4-11.1l-106.8,61.8
		l6.4,11.1L270.8,79.5z"/>
	<path class="st1" d="M270.2,79.5l6.4-11.1l106.8,61.8l-6.4,11.1L270.2,79.5z"/>
	<path class="st1" d="M402.4,141.4v-12.8H109.6v12.8H402.4z"/>
	<path class="st2" d="M286.5,322.4V132.5h12.8v199.2C295.8,327.8,291.5,324.9,286.5,322.4z M264.6,319.2v-268h12.8v269.5
		C273.8,319,265.1,319.2,264.6,319.2z M143.2,345.9c-15.6-11.6-25.9-30-25.9-51c0-11.1,3-22,8.4-31.6h109.3
		c5.6,9.5,8.4,20.5,8.4,31.6c0,9.7-1.2,18.8-5.2,26.9c-8.3-8-20.5-11.4-32.8-11.4c-21.9,0-40.6,13.6-45.5,33.9
		c-1.7-0.2-2.8-0.3-4.5-0.3C151.3,344.2,147.3,344.8,143.2,345.9L143.2,345.9z"/>
	<path class="st1" d="M197,188h-33.1v33.3H197V188z M159.6,188h-33.1v33.3h33.1V188z M159.6,225h-33.1v33.3h33.1V225z M197,225
		h-33.1v33.3H197V225z M234.1,225H201v33.3h33.1V225z M234.1,170.2H201v33.3h33.1V170.2z"/>
	<path class="st2" d="M165.6,350.9c4.5-19.2,21.9-33.6,42.5-33.6c13.3,0,25.1,5.9,33.3,15.3c7-4.8,15.5-7.7,24.7-7.7
		c24.1,0,43.6,19.5,43.6,43.6c0,5-0.8,9.7-2.3,14.2c5.3,7.2,8.6,16.3,8.6,26c0,24.1-19.5,43.6-43.6,43.6c-10.6,0-20.3-3.8-27.8-10
		c-8,11.1-20.9,18.4-35.6,18.4c-16.9,0-31.6-9.7-38.9-23.8c-3,0.6-5.9,0.9-9.1,0.9c-24.1,0-43.7-19.5-43.7-43.6s19.5-43.6,43.7-43.6
		C162.4,350.6,164,350.6,165.6,350.9L165.6,350.9z"/>
</g>
</svg>
