<svg xmlns="http://www.w3.org/2000/svg" xmlns:xlink="http://www.w3.org/1999/xlink" version="1.1" id="Layer_1" x="0px" y="0px" style="enable-background:new 0 0 512 512;" xml:space="preserve" viewBox="26.74 0.02 460.94 509.34">
<style type="text/css">
	.st0{fill:#612BD3;}
	.st1{fill:none;stroke:#ffffff;stroke-width:4.9373;}
	.st2{fill:#000000;}
	.st3{fill:#ffffff;}
</style>
<g>
	<path class="st0" d="M103.4,82.6c0.4,5.6,0.8,12,1.4,19.1L125,362.4c2.3,29.1,3.4,43.8,9.9,54.4c5.7,9.4,14.4,16.7,24.5,21   c11.6,4.9,26.1,3.7,55.2,1.4l199.8-15.4c18.9-1.5,31.7-2.5,41.2-4.8c-3.2,7.5-8.1,14.3-14.5,19.5c-9.6,8-23.9,11.4-52.4,17.9   l-195,45c-28.5,6.5-42.8,9.9-54.8,6.8c-10.7-2.7-20.3-8.6-27.3-17.1c-8-9.6-11.4-23.9-17.9-52.4L34.7,184   c-6.5-28.5-9.9-42.8-6.8-54.8c2.7-10.7,8.6-20.3,17.1-27.3c9.6-8,23.9-11.4,52.4-17.9L103.4,82.6z" fill="#000000"/>
	<path class="st1" d="M112.8,101.1c-1.1-14.8-2-25.2-1.9-33.6c0-8.2,0.9-13.6,2.8-18c3.6-8.6,9.8-15.8,17.7-20.8   c4.1-2.5,9.2-4.2,17.4-5.4c8.2-1.3,18.8-2.2,33.5-3.3L382,4.4c14.8-1.1,25.2-2,33.6-1.9c8.2,0,13.6,0.9,18,2.8   c8.6,3.6,15.8,9.8,20.8,17.7c2.5,4.1,4.2,9.2,5.4,17.4s2.2,18.8,3.3,33.5l20.2,260.8c1.1,14.8,2,25.2,1.9,33.6   c0,8.2-0.9,13.6-2.8,18c-3.6,8.6-9.8,15.8-17.7,20.8c-4.1,2.5-9.2,4.2-17.4,5.4c-8.2,1.3-18.8,2.2-33.5,3.3l-199.7,15.4   c-14.8,1.1-25.2,2-33.6,1.9c-8.2,0-13.6-0.9-18-2.8c-8.6-3.6-15.8-9.8-20.8-17.7c-2.5-4.1-4.2-9.2-5.4-17.4   c-1.3-8.2-2.2-18.8-3.3-33.5L112.8,101.1z" fill="#000000"/>
	<path class="st2" d="M182.9,27.9l199.7-15.4c14.9-1.2,25-1.9,33-1.9c7.7,0,11.9,0.9,14.9,2.2c7,3,13,8,17,14.6   c1.7,2.9,3.2,6.8,4.5,14.5c1.3,7.8,2.1,18,3.2,32.9l20.2,260.8c1.2,14.9,1.9,25,1.9,33c0,7.7-0.9,11.9-2.2,14.9c-3,7-8,13-14.6,17   c-2.9,1.7-6.8,3.2-14.5,4.5c-7.8,1.3-18,2.1-32.9,3.2l-199.7,15.3c-14.8,1.2-25,1.9-33,1.9c-7.7,0-11.9-0.9-14.9-2.2   c-7-3-13-8-17-14.6c-1.7-2.9-3.2-6.8-4.5-14.5c-1.3-7.8-2.1-18-3.2-32.9l-20.2-260.8c-1.2-14.8-1.9-25-1.9-33   c0-7.7,0.9-11.9,2.2-14.9c3-7,8-13,14.6-17c2.9-1.7,6.8-3.2,14.5-4.5C157.9,29.9,168.1,29.1,182.9,27.9z" fill="#000000"/>
	<path class="st3" d="M269.4,88.3l1.9,24.8c3.5-4.3,7.9-7.9,13.4-11c5.4-3.3,12.3-5.2,20.4-5.8c7.4-0.6,14.7,0.3,21.4,2.7   c7,2.4,13.3,6.4,18.8,12.5c5.7,5.7,10.6,13.7,14.5,23.8s6.3,22.5,7.5,37.2c0.8,10.5,0.7,21.2-0.5,31.9c-1,10.7-3.4,20.4-7.3,29.1   c-4,8.7-9.7,16-17.2,21.9c-7.3,5.6-16.7,8.9-28.4,9.8c-8.3,0.7-15,0.1-20-1.8c-5-2.1-8.8-4.6-11.5-7.4l6.2,80l-46.5,15.5L221.8,92   L269.4,88.3z M295.8,237.3c5.7-0.4,10.4-2.7,14.1-6.7c3.7-4.3,6.3-9.5,8-15.8c2-6.3,3.1-13.3,3.4-20.8c0.5-7.7,0.5-15.3-0.1-22.9   c-0.9-12.1-2.8-21.6-5.5-28.4c-2.5-6.8-5.3-11.9-8.4-14.9c-3.2-3.3-6.1-5.2-9.1-5.9c-2.7-0.7-4.9-1-6.3-0.8   c-4,0.3-7.7,2.1-11.2,5.1c-3.6,3-5.9,7.2-7.3,12.9l7.1,91.9c1.2,1.7,3.2,3.3,5.6,4.9C288.6,237.1,291.8,237.6,295.8,237.3z" fill="#000000"/>
</g>
</svg>