<svg viewBox="0 0 445 445" xmlns="http://www.w3.org/2000/svg"><g fill="none" stroke="#fff" stroke-linecap="round" stroke-linejoin="round" stroke-width="12.465"><path fill="#000" stroke="#000" stroke-linecap="butt" stroke-linejoin="miter" stroke-width="37.395" d="M329.437 323.93c2.833-23.601 1.984-27.062 19.563-23.24l4.463.393c13.517.615 31.199-2.174 41.587-7 22.362-10.376 35.622-27.7 13.572-23.148-50.297 10.376-53.755-6.655-53.755-6.655 53.11-78.803 75.313-178.836 56.149-203.322-52.27-66.79-142.748-35.206-144.262-34.386l-.482.089c-9.938-2.062-21.06-3.294-33.554-3.496-22.761-.374-40.032 5.967-53.133 15.904 0 0-161.408-66.498-153.9 83.628 1.598 31.936 45.778 241.655 98.47 178.31 19.26-23.163 37.872-42.748 37.872-42.748 9.242 6.14 20.307 9.272 31.912 8.147l.897-.765c-.281 2.876-.157 5.689.359 9.019-13.572 15.167-9.584 17.83-36.723 23.416-27.457 5.659-11.326 15.734-.797 18.367 12.768 3.193 42.305 7.716 62.268-20.224l-.795 3.188c5.325 4.26 4.965 30.619 5.72 49.452.756 18.834 2.017 36.409 5.856 46.77 3.839 10.36 8.369 37.05 44.036 29.407 29.809-6.388 52.6-15.582 54.677-101.107"/><path fill="#336791" d="M408.627 270.933c-50.302 10.376-53.76-6.655-53.76-6.655 53.11-78.808 75.313-178.843 56.153-203.326-52.27-66.785-142.752-35.2-144.262-34.38l-.486.087c-9.938-2.063-21.06-3.292-33.56-3.496-22.761-.373-40.026 5.967-53.127 15.902 0 0-161.411-66.495-153.904 83.63 1.597 31.938 45.776 241.657 98.47 178.312 19.26-23.163 37.87-42.748 37.87-42.748 9.243 6.14 20.308 9.272 31.908 8.147l.9-.765c-.28 2.876-.151 5.689.362 9.019-13.575 15.167-9.586 17.83-36.723 23.416-27.46 5.659-11.328 15.734-.796 18.367 12.768 3.193 42.307 7.716 62.266-20.224l-.796 3.188c5.319 4.26 9.054 27.71 8.428 48.969-.626 21.259-1.044 35.854 3.147 47.254 4.19 11.4 8.368 37.05 44.042 29.406 29.809-6.388 45.256-22.942 47.405-50.555 1.525-19.631 4.976-16.73 5.194-34.28l2.768-8.31c3.192-26.61.507-35.195 18.872-31.202l4.463.392c13.517.615 31.208-2.174 41.59-7 22.359-10.376 35.619-27.7 13.574-23.148z" stroke="none"/><path d="M222.098 286.187c-1.385 49.516.348 99.377 5.193 111.495 4.848 12.118 15.223 35.688 50.9 28.045 29.806-6.39 40.65-18.756 45.357-46.051 3.466-20.082 10.148-75.854 11.005-87.281M179.336 37.959S17.815-28.057 25.324 122.068c1.597 31.938 45.779 241.664 98.473 178.316 19.256-23.166 36.67-41.335 36.67-41.335m106.114-233.14c-5.591 1.754 89.848-34.888 144.087 34.418 19.159 24.484-3.043 124.519-56.153 203.329"/><path stroke-linejoin="bevel" d="M354.514 263.656s3.46 17.036 53.764 6.653c22.04-4.552 8.776 12.774-13.577 23.155-18.345 8.514-59.474 10.696-60.146-1.07-1.73-30.354 21.647-21.132 19.96-28.738-1.525-6.85-11.98-13.573-18.894-30.338-6.037-14.633-82.796-126.85 21.287-110.183 3.813-.79-27.146-99.002-124.553-100.6-97.385-1.596-94.19 119.763-94.19 119.763"/><path d="M194.836 274.037c-13.577 15.166-9.584 17.829-36.723 23.417-27.46 5.66-11.326 15.733-.797 18.365 12.768 3.195 42.307 7.718 62.266-20.23 6.078-8.508-.036-22.085-8.385-25.546-4.034-1.671-9.428-3.765-16.361 3.994z"/><path d="M193.947 273.772c-1.368-8.917 2.93-19.528 7.536-31.942 6.922-18.626 22.893-37.255 10.117-96.34-9.523-44.028-73.396-9.162-73.436-3.192-.04 5.968 2.889 30.26-1.067 58.548-5.162 36.913 23.488 68.132 56.479 64.938"/><path fill="#fff" stroke-linecap="butt" stroke-linejoin="miter" stroke-width="4.155" d="M178.749 141.403c-.288 2.039 3.733 7.48 8.976 8.207 5.234.73 9.714-3.522 9.998-5.56.284-2.038-3.732-4.284-8.977-5.014-5.237-.731-9.72.333-9.996 2.367z"/><path fill="#fff" stroke-linecap="butt" stroke-linejoin="miter" stroke-width="2.078" d="M338.173 137.246c.284 2.039-3.732 7.48-8.976 8.207-5.238.73-9.718-3.522-10.005-5.56-.277-2.038 3.74-4.284 8.979-5.014 5.239-.73 9.718.333 10.002 2.368z"/><path d="M356.908 123.135c.863 15.994-3.445 26.888-3.988 43.914-.804 24.748 11.799 53.074-7.191 81.435"/></g></svg>