<?xml version="1.0" encoding="utf-8"?>
<!-- Generator: Adobe Illustrator 22.0.1, SVG Export Plug-In . SVG Version: 6.00 Build 0)  -->
<svg version="1.1" id="Layer_1" xmlns="http://www.w3.org/2000/svg" xmlns:xlink="http://www.w3.org/1999/xlink" x="0px" y="0px"
	 width="800.3px" height="246.3px" viewBox="0 0 800.3 246.3" style="enable-background:new 0 0 800.3 246.3;" xml:space="preserve"
	>
<title>Prime Video Logo</title>
<g id="Layer_2_1_">
	<g id="Ebene_1">
		<path style="fill:#D1EFFA;" d="M396.5,246.3v-0.4c0.4-0.5,1.1-0.8,1.7-0.7c2.9-0.1,5.7-0.1,8.6,0c0.6,0,1.3,0.2,1.7,0.7v0.4H396.5
			z"/>
		<path style="fill:#00A8E1;" d="M408.5,245.9c-4-0.1-8-0.1-12,0c-5.5-0.3-11-0.5-16.5-0.9c-14.6-1.1-29.1-3.3-43.3-6.6
			c-49.1-11.4-92.2-34.3-129.8-67.6c-3.5-3.1-6.8-6.3-10.2-9.5c-0.8-0.7-1.5-1.7-1.9-2.7c-0.6-1.4-0.3-2.9,0.7-4
			c1-1.1,2.6-1.5,4-0.9c0.9,0.4,1.8,0.8,2.6,1.3c35.9,22.2,75.1,38.4,116.2,48c13.8,3.2,27.7,5.7,41.7,7.5
			c20.1,2.5,40.4,3.4,60.6,2.7c10.9-0.3,21.7-1.3,32.5-2.7c25.2-3.2,50.1-8.9,74.2-16.9c12.7-4.2,25.1-9,37.2-14.6
			c1.8-1,4-1.3,6-0.8c3.3,0.8,5.3,4.2,4.5,7.5c-0.1,0.4-0.3,0.9-0.5,1.3c-0.8,1.5-1.9,2.8-3.3,3.8c-11.5,9-23.9,16.9-37,23.5
			c-24.7,12.5-51.1,21.4-78.3,26.5C440.2,243.6,424.4,245.3,408.5,245.9z"/>
		<path style="fill:#00A8E1;" d="M260.4,43.2c2.5-1.5,5.1-3.1,7.8-4.5c7-3.6,14.8-5.4,22.7-5c5.7,0.3,10.9,1.9,14.9,6.1
			c3.8,3.9,5.2,8.7,5.6,13.9c0.1,1.1,0.1,2.2,0.1,3.4v51.8c0,4.5-0.6,5.1-5.1,5.1h-12.2c-0.8,0-1.6,0-2.4-0.1
			c-1.2-0.1-2.2-1.1-2.4-2.3c-0.2-1.1-0.2-2.2-0.2-3.3V62c0.1-1.9-0.1-3.7-0.6-5.5c-0.8-3.1-3.6-5.3-6.8-5.5
			c-5.9-0.4-11.8,0.8-17.2,3.3c-0.8,0.2-1.3,1-1.2,1.8v52.6c0,1,0,1.9-0.2,2.9c0,1.4-1.1,2.4-2.5,2.4c0,0,0,0,0,0
			c-1.5,0.1-3,0.1-4.6,0.1h-10.6c-3.7,0-4.5-0.9-4.5-4.6V62.2c0-1.7-0.1-3.5-0.5-5.2c-0.7-3.4-3.6-5.8-7-6c-6-0.4-12.1,0.8-17.5,3.4
			c-0.8,0.2-1.3,1.1-1.1,1.9v53.3c0,3.7-0.8,4.5-4.5,4.5H197c-3.5,0-4.4-1-4.4-4.4V40.3c0-0.8,0.1-1.6,0.3-2.4
			c0.4-1.2,1.6-1.9,2.8-1.9h12.5c1.8,0,2.9,1.1,3.5,2.8c0.5,1.4,0.8,2.7,1.3,4.2c1,0,1.6-0.7,2.3-1.1c5.5-3.4,11.3-6.3,17.8-7.5
			c5-1,10-1,15,0c4.7,1,8.9,3.8,11.6,7.8c0.2,0.3,0.4,0.5,0.6,0.7C260.2,43,260.3,43,260.4,43.2z"/>
		<path style="fill:#232F3E;" d="M467.7,93c0.6-2,1.2-3.9,1.8-5.9c4.6-15.5,9.2-30.9,13.8-46.4l0.6-1.8c0.5-1.8,2.2-2.9,4-2.9h15.2
			c3.8,0,4.6,1.1,3.3,4.7l-6,15.9c-6.7,17.4-13.4,34.9-20.1,52.3c-0.2,0.6-0.5,1.2-0.7,1.8c-0.7,2.1-2.8,3.5-5,3.3
			c-4.4-0.1-8.8-0.1-13.2,0c-3.1,0.1-4.9-1.3-6-4.1c-2.5-6.6-5.1-13.3-7.6-19.9c-6-15.7-12.1-31.4-18.1-47.2c-0.6-1.2-1-2.6-1.3-3.9
			c-0.3-2,0.4-3,2.4-3c5.7-0.1,11.4,0,17,0c2.4,0,3.5,1.6,4.1,3.7c1.1,3.8,2.2,7.7,3.4,11.5c4.1,13.9,8.1,27.9,12.2,41.8
			C467.4,93,467.5,93,467.7,93z"/>
		<path style="fill:#00A8E1;" d="M112.6,47c0.7-0.2,1.3-0.6,1.7-1.2c1.8-1.8,3.7-3.5,5.7-5.1c5.2-4,11.7-6,18.2-5.5
			c2.6,0.1,3.5,0.9,3.7,3.4c0.2,3.4,0.1,6.9,0.1,10.3c0.1,1.4,0,2.7-0.2,4.1c-0.4,1.8-1.1,2.5-2.9,2.7c-1.4,0.1-2.7,0-4.1-0.1
			c-6.7-0.6-13.2,0.7-19.5,2.8c-1.4,0.5-1.4,1.5-1.4,2.6v48c0,0.9,0,1.7-0.1,2.6c-0.1,1.3-1.1,2.3-2.4,2.3c-0.7,0.1-1.5,0.1-2.2,0.1
			h-13c-0.7,0-1.5,0-2.2-0.1c-1.3-0.1-2.3-1.2-2.4-2.5c-0.1-0.8-0.1-1.6-0.1-2.4V41c0-4.6,0.5-5.1,5.1-5.1h9.6
			c2.6,0,3.8,0.9,4.5,3.4S112,44.3,112.6,47z"/>
		<path style="fill:#00A8E1;" d="M580.4,148.4c6.6,0.2,13.1,0.6,19.5,2.3c1.8,0.5,3.5,1.1,5.2,1.9c2.3,0.9,3.8,3.1,4.1,5.5
			c0.4,2.8,0.5,5.7,0.3,8.6c-1.3,17.1-6.6,33.6-15.4,48.3c-3.2,5.3-7.1,10.1-11.6,14.3c-0.9,0.9-2,1.6-3.2,2
			c-1.9,0.5-3.1-0.5-3.2-2.4c0.1-1,0.3-2,0.7-3c3.5-9.4,6.9-18.7,9.6-28.4c1.6-5.3,2.7-10.7,3.4-16.2c0.2-2,0.3-4,0.1-6
			c-0.1-3.4-2.3-6.3-5.6-7.3c-3.1-1-6.3-1.6-9.6-1.8c-9.2-0.4-18.4,0-27.5,1.2l-12.1,1.5c-1.3,0.1-2.5,0-3.2-1.2s-0.4-2.4,0.3-3.6
			c0.8-1.1,1.8-2.1,3-2.8c7.4-5.3,15.7-8.5,24.5-10.6C566.5,149.3,573.4,148.6,580.4,148.4z"/>
		<path style="fill:#232F3E;" d="M538.5,75v36c-0.2,2-1.1,2.9-3.1,3c-5.4,0.1-10.7,0.1-16.1,0c-2,0-2.9-1-3.1-2.9
			c-0.1-0.6-0.1-1.3-0.1-1.9V40c0.1-3.1,0.9-4,4-4h14.4c3.1,0,4,0.9,4,4L538.5,75L538.5,75z"/>
		<path style="fill:#00A8E1;" d="M151.6,74.8V39.3c0.1-2.4,1-3.3,3.4-3.4c5.2-0.1,10.4-0.1,15.6,0c2.3,0,3,0.7,3.2,3
			c0.1,0.9,0.1,1.7,0.1,2.6v66.6c0,1.1-0.1,2.2-0.2,3.3c-0.1,1.3-1.1,2.2-2.4,2.3c-0.6,0.1-1.1,0.1-1.7,0.1h-13.9
			c-0.5,0-0.9,0-1.4-0.1c-1.4-0.1-2.6-1.2-2.7-2.6c-0.1-0.8-0.1-1.6-0.1-2.4C151.6,97.6,151.6,86.2,151.6,74.8z"/>
		<path style="fill:#00A8E1;" d="M163.2,0.1c1.6-0.1,3.2,0.2,4.7,0.7c5.4,1.8,8.2,6.5,7.7,12.6c-0.4,5.2-4.3,9.4-9.5,10.2
			c-2.2,0.4-4.5,0.4-6.7,0c-5.7-1.1-9.9-5.3-9.5-12.5C150.5,4,155.2,0.1,163.2,0.1z"/>
		<path style="fill:#232F3E;" d="M527.4,0.1c2-0.2,4,0.2,5.9,1c3.9,1.5,6.6,5.1,6.8,9.3c0.8,9.1-5.3,13.7-13.4,13.5
			c-1.1,0-2.2-0.2-3.3-0.4c-6.2-1.5-9.4-6.3-8.8-13.2c0.5-5.5,4.8-9.6,10.7-10.1C526,0.1,526.7,0,527.4,0.1z"/>
		<path style="fill:#00A8E1;" d="M76.7,66.6c-0.4-5.2-1.8-10.3-3.9-15c-4.1-8.6-10.4-14.9-20-17.1c-11-2.4-20.9,0-29.9,6.7
			c-0.6,0.6-1.3,1.1-2.1,1.5c-0.2-0.1-0.4-0.2-0.4-0.3c-0.3-1-0.5-2-0.8-3c-0.8-2.5-1.8-3.4-4.5-3.4c-3,0-6.1,0.1-9.1,0
			c-2.3-0.1-4.4,0.2-6,2C0,73,0,108.1,0.1,143c1.3,2.1,3.3,2.5,5.6,2.4c3.6-0.1,7.2,0,10.8,0c6.3,0,6.3,0,6.3-6.2v-28.5
			c0-0.7-0.3-1.5,0.4-2.1c5,3.9,11.1,6.3,17.4,6.9c8.8,0.9,16.8-1.3,23.5-7.3c4.9-4.5,8.5-10.3,10.4-16.7
			C77.2,83.3,77.4,75,76.7,66.6z M52.8,87.3c-0.7,3.1-2.3,5.9-4.6,8c-2.6,2.2-5.8,3.5-9.2,3.5c-5.1,0.3-10.1-0.8-14.6-3.2
			c-1.1-0.5-1.8-1.6-1.7-2.8V74.7c0-6,0.1-12,0-18c-0.1-1.4,0.7-2.6,2-3.1c5.5-2.6,11.2-3.8,17.2-2.6c4.2,0.6,7.8,3.3,9.5,7.2
			c1.5,3.2,2.4,6.7,2.6,10.2C54.6,74.8,54.6,81.2,52.8,87.3z"/>
		<path style="fill:#232F3E;" d="M800.1,82.2C800.1,82.2,800.1,82.1,800.1,82.2C800.1,82.1,800.1,82.1,800.1,82.2z"/>
		<path style="fill:#232F3E;" d="M800.2,68.8v0.4c-0.4-0.4-0.6-1-0.4-1.5v-0.8c0,0,0-0.1,0.1-0.1h-0.1v-1h0.2c0-0.1-0.1-0.1-0.1-0.2
			c-0.2-1.9-0.6-3.8-1.1-5.6c-3.7-13.2-12-21.9-25.5-25.3c-6.3-1.5-12.7-1.7-19.1-0.7c-13.5,2-23.2,9.2-27.9,22
			c-4.6,12.2-4.5,25.6,0.1,37.8c4,11.1,12,18.1,23.5,21c6.1,1.5,12.5,1.9,18.8,1c21-2.5,29.7-18.4,31.1-32.2h-0.1v-1.4
			c-0.1-0.6-0.2-1.1,0.4-1.5v0.2c0-0.1,0.1-0.3,0.2-0.4V69C800.3,68.9,800.2,68.9,800.2,68.8z M776.2,87.8c-0.6,2.1-1.5,4-2.8,5.8
			c-2.2,3.1-5.7,5.1-9.5,5.4c-1.9,0.2-3.8,0.2-5.7-0.2c-4.2-0.8-7.7-3.6-9.4-7.5c-1.5-3.1-2.4-6.5-2.7-9.9
			c-0.5-5.9-0.6-11.8,0.8-17.6c0.5-2.3,1.5-4.6,2.7-6.6c2.2-3.6,6-5.9,10.2-6.2c1.9-0.2,3.8-0.2,5.7,0.2c4,0.8,7.3,3.4,9.1,7.1
			c1.7,3.5,2.7,7.4,2.9,11.3c0.1,1.8,0.2,3.6,0.1,5.4C777.9,79.4,777.4,83.7,776.2,87.8z"/>
		<path style="fill:#232F3E;" d="M624.9,0.8H611c-3.8,0-4.5,0.7-4.5,4.5v32.4c0,0.7,0.3,1.4-0.2,2.1c-0.9-0.1-1.4-0.7-2.1-1.1
			c-10.4-6.1-21.3-7.2-32.3-2.1c-7.7,3.6-12.5,10.1-15.6,17.8c-3,7.4-3.7,15.2-3.5,23.1c0,7.4,1.7,14.7,5,21.3
			c3.8,7.3,9.3,12.9,17.3,15.3c10.9,3.4,21.1,1.7,30.4-5.2c0.7-0.4,1.1-1.1,2-1.3c0.5,1.1,0.9,2.3,1.1,3.5c0.4,1.6,1.8,2.7,3.5,2.7
			h2.4c3.6,0,7.1,0.1,10.6,0c2.8,0,3.6-0.9,3.7-3.8V4.6C628.7,1.5,627.9,0.8,624.9,0.8z M606.6,74.4v18.2c0.2,1.2-0.5,2.3-1.6,2.8
			c-4.8,2.7-10.3,3.8-15.7,3c-4.6-0.5-8.6-3.3-10.7-7.4c-1.6-3.2-2.5-6.6-2.8-10.1c-0.8-6.3-0.3-12.7,1.2-18.8
			c0.5-1.7,1.1-3.3,2-4.9c2.1-3.9,6.1-6.4,10.5-6.7c5.3-0.5,10.6,0.5,15.4,2.7c1.2,0.4,1.9,1.6,1.8,2.9
			C606.5,62.3,606.6,68.3,606.6,74.4L606.6,74.4z"/>
		<path style="fill:#00A8E1;" d="M348,81.3c7.5,1.4,15.2,1.5,22.7,0.3c4.4-0.6,8.6-1.9,12.5-4c4.5-2.6,7.8-6.2,9.2-11.2
			c3.5-12.6-1.9-25.3-15-30c-6.4-2.1-13.2-2.8-19.9-1.9c-15.8,1.8-26.1,10.5-30.8,25.6c-3.3,10.3-2.9,20.8-0.2,31.2
			c3.5,13.3,12.3,21.2,25.6,24c7.6,1.7,15.3,1.4,22.9,0.2c4-0.7,8-1.7,11.8-3.2c2.3-0.9,3.5-2.3,3.4-4.9c-0.1-2.4,0-4.9,0-7.4
			c0-3-1.2-3.9-4.1-3.2s-5.7,1.3-8.6,1.9c-6.2,1.3-12.6,1.3-18.8,0.2c-8.5-1.7-14-9-13.5-18C346.1,81,347.1,81.1,348,81.3z
			 M345.5,66c0.3-2.4,1-4.7,1.9-6.9c3-7.3,9.3-9.8,15.7-9.4c1.8,0.1,3.6,0.5,5.3,1.2c2.6,1.1,4.3,3.5,4.6,6.3
			c0.3,1.7,0.2,3.5-0.3,5.2c-1.2,3.6-4.1,5.1-7.6,5.8c-2.1,0.5-4.3,0.7-6.5,0.5c-3.9,0-7.9-0.3-11.8-0.9
			C345.3,67.6,345.3,67.6,345.5,66z"/>
		<path style="fill:#232F3E;" d="M685.3,82.3c5.8-0.4,11.6-1.5,16.8-4.3c5.3-2.6,9-7.5,10.1-13.3c0.7-3.6,0.7-7.4-0.1-11
			c-2.1-9-7.8-14.6-16.4-17.5c-4.8-1.5-9.9-2.1-14.9-1.9c-16.8,0.4-29.6,8.9-34.8,25.7c-3.5,11.1-3,22.4,0.4,33.5
			c3.5,11.4,11.5,18.3,22.9,21.4c4.9,1.2,10,1.7,15,1.5c7.3-0.1,14.6-1.5,21.5-4.1c2.9-1.1,3.6-2.1,3.6-5.2v-7.2
			c-0.1-2.9-1.3-3.9-4.2-3.2c-2.2,0.6-4.3,1.1-6.5,1.6c-6.7,1.6-13.7,1.9-20.5,0.7c-6.8-1.3-11.4-5.2-13.2-12c-0.5-2-0.9-4-1.1-6.1
			c0.5,0,1,0,1.4,0.2C671.9,82.3,678.6,82.8,685.3,82.3z M664.4,66.3c0.7-3.9,1.6-7.7,4-10.9c3.7-4.9,8.8-6.3,14.6-5.7
			c0.5,0,0.9,0.2,1.4,0.2c7,1.1,8.7,6.7,7.4,12.1c-1,4-4.3,5.5-8,6.2c-2,0.4-4.1,0.6-6.2,0.5c-4.1-0.1-8.1-0.4-12.1-1
			C664.6,67.6,664.2,67.2,664.4,66.3L664.4,66.3z"/>
	</g>
</g>
</svg>
