<svg xmlns="http://www.w3.org/2000/svg" xmlns:svg="http://www.w3.org/2000/svg" xmlns:xlink="http://www.w3.org/1999/xlink" id="svg2994" width="48" height="48"><defs id="defs3"><radialGradient id="radialGradient6719" cx="605.714" cy="486.648" r="117.143" fx="605.714" fy="486.648" gradientTransform="matrix(-2.774389,0,0,1.969706,112.7623,-872.8854)" gradientUnits="userSpaceOnUse" xlink:href="#linearGradient5060"/><linearGradient id="linearGradient5060"><stop style="stop-color:black;stop-opacity:1" id="stop5062" offset="0"/><stop style="stop-color:black;stop-opacity:0" id="stop5064" offset="1"/></linearGradient><radialGradient id="radialGradient6717" cx="605.714" cy="486.648" r="117.143" fx="605.714" fy="486.648" gradientTransform="matrix(2.774389,0,0,1.969706,-1891.633,-872.8854)" gradientUnits="userSpaceOnUse" xlink:href="#linearGradient5060"/><linearGradient id="linearGradient5048"><stop style="stop-color:black;stop-opacity:0" id="stop5050" offset="0"/><stop id="stop5056" offset=".5" style="stop-color:black;stop-opacity:1"/><stop style="stop-color:black;stop-opacity:0" id="stop5052" offset="1"/></linearGradient><linearGradient id="linearGradient6715" x1="302.857" x2="302.857" y1="366.648" y2="609.505" gradientTransform="matrix(2.774389,0,0,1.969706,-1892.179,-872.8854)" gradientUnits="userSpaceOnUse" xlink:href="#linearGradient5048"/><linearGradient id="linearGradient4762"><stop style="stop-color:#fff;stop-opacity:.12371134" id="stop4764" offset="0"/><stop id="stop4768" offset=".103" style="stop-color:#fff;stop-opacity:1"/><stop style="stop-color:#fff;stop-opacity:0" id="stop4766" offset="1"/></linearGradient><linearGradient id="linearGradient4741"><stop id="stop4743" offset="0" style="stop-color:#dcdcda;stop-opacity:1"/><stop id="stop4745" offset="1" style="stop-color:#bab9b7;stop-opacity:1"/></linearGradient><linearGradient id="linearGradient4733"><stop id="stop4735" offset="0" style="stop-color:#000;stop-opacity:.2371134"/><stop id="stop4737" offset="1" style="stop-color:#000;stop-opacity:0"/></linearGradient><linearGradient id="linearGradient4698"><stop id="stop4700" offset="0" style="stop-color:#fffffd;stop-opacity:1"/><stop style="stop-color:#bbbbb9;stop-opacity:1" id="stop4706" offset=".5"/><stop id="stop4702" offset="1" style="stop-color:#000;stop-opacity:1"/></linearGradient><linearGradient id="linearGradient4688"><stop id="stop4690" offset="0" style="stop-color:#666;stop-opacity:1"/><stop id="stop4692" offset="1" style="stop-color:#000;stop-opacity:0"/></linearGradient><linearGradient id="linearGradient4680"><stop id="stop4682" offset="0" style="stop-color:#f7f6f5;stop-opacity:1"/><stop id="stop4684" offset="1" style="stop-color:#f7f6f5;stop-opacity:0"/></linearGradient><linearGradient id="linearGradient4668"><stop id="stop4670" offset="0" style="stop-color:#8e8d87;stop-opacity:1"/><stop style="stop-color:#cbc9c1;stop-opacity:1" id="stop4676" offset=".276"/><stop id="stop4672" offset="1" style="stop-color:#8e8d87;stop-opacity:1"/></linearGradient><linearGradient id="linearGradient259"><stop id="stop260" offset="0" style="stop-color:#e0e0e0;stop-opacity:1"/><stop style="stop-color:#fff;stop-opacity:1" id="stop4886" offset=".405"/><stop style="stop-color:#cdcdcd;stop-opacity:1" id="stop4884" offset=".534"/><stop id="stop261" offset="1" style="stop-color:#494949;stop-opacity:1"/></linearGradient><linearGradient id="linearGradient15662"><stop id="stop15664" offset="0" style="stop-color:#fff;stop-opacity:0"/><stop id="stop15666" offset="1" style="stop-color:#f8f8f8;stop-opacity:1"/></linearGradient><radialGradient id="radialGradient1433" cx="9.13" cy="26.926" r="2.123" fx="9.13" fy="26.926" gradientUnits="userSpaceOnUse" xlink:href="#linearGradient4698"/><linearGradient id="linearGradient1447" x1="9.87" x2="9.913" y1="57.228" y2="72.064" gradientTransform="matrix(2.772086,0.000000,0.000000,0.360739,0.618718,2.883883)" gradientUnits="userSpaceOnUse" xlink:href="#linearGradient4733"/><linearGradient id="linearGradient1451" x1="10.338" x2="10.338" y1="64.652" y2="54.136" gradientTransform="matrix(2.369844,0.000000,0.000000,0.421969,0.000000,2.000000)" gradientUnits="userSpaceOnUse" xlink:href="#linearGradient4680"/><linearGradient id="linearGradient1453" x1="9.732" x2="9.705" y1="70.725" y2="62.282" gradientTransform="matrix(2.369844,0.000000,0.000000,0.421969,0.000000,2.000000)" gradientUnits="userSpaceOnUse" xlink:href="#linearGradient4688"/><linearGradient id="linearGradient1456" x1="20.771" x2="20.718" y1="25.14" y2="19.337" gradientTransform="matrix(1.198769,0,0,0.853565,-0.143086,2.034513)" gradientUnits="userSpaceOnUse" xlink:href="#linearGradient15662"/><linearGradient id="linearGradient1459" x1="25.057" x2="24.79" y1="3.679" y2="25.247" gradientTransform="matrix(0.94571,0,0,1.076032,5.016683e-2,4.095404)" gradientUnits="userSpaceOnUse" xlink:href="#linearGradient259"/><linearGradient id="linearGradient1464" x1="15.388" x2="15.488" y1="32.539" y2="58.831" gradientTransform="matrix(1.492569,0,0,0.668741,8.188072e-2,2)" gradientUnits="userSpaceOnUse" xlink:href="#linearGradient4762"/><linearGradient id="linearGradient1468" x1="1.846" x2="18.972" y1="88.295" y2="88.295" gradientTransform="matrix(2.291824,0,0,0.434269,8.855179e-2,2)" gradientUnits="userSpaceOnUse" xlink:href="#linearGradient4741"/><linearGradient id="linearGradient1471" x1="1.846" x2="18.972" y1="88.295" y2="88.295" gradientTransform="matrix(2.30272,0,0,0.437918,0,0.584034)" gradientUnits="userSpaceOnUse" xlink:href="#linearGradient4668"/></defs><metadata id="metadata4"/><g id="layer1"><g id="g6707" transform="matrix(2.311016e-2,0,0,2.271533e-2,44.68502,39.36099)"><rect style="opacity:.40206185;color:#000;fill:url(#linearGradient6715);fill-opacity:1;fill-rule:nonzero;stroke:none;stroke-width:1;stroke-linecap:round;stroke-linejoin:miter;marker:none;marker-start:none;marker-mid:none;marker-end:none;stroke-miterlimit:4;stroke-dasharray:none;stroke-dashoffset:0;stroke-opacity:1;visibility:visible;display:inline;overflow:visible" id="rect6709" width="1339.633" height="478.357" x="-1559.252" y="-150.697"/><path style="opacity:.40206185;color:#000;fill:url(#radialGradient6717);fill-opacity:1;fill-rule:nonzero;stroke:none;stroke-width:1;stroke-linecap:round;stroke-linejoin:miter;marker:none;marker-start:none;marker-mid:none;marker-end:none;stroke-miterlimit:4;stroke-dasharray:none;stroke-dashoffset:0;stroke-opacity:1;visibility:visible;display:inline;overflow:visible" id="path6711" d="M -219.61876,-150.68038 C -219.61876,-150.68038 -219.61876,327.65041 -219.61876,327.65041 C -76.744594,328.55086 125.78146,220.48075 125.78138,88.454235 C 125.78138,-43.572302 -33.655436,-150.68036 -219.61876,-150.68038 z"/><path id="path6713" d="M -1559.2523,-150.68038 C -1559.2523,-150.68038 -1559.2523,327.65041 -1559.2523,327.65041 C -1702.1265,328.55086 -1904.6525,220.48075 -1904.6525,88.454235 C -1904.6525,-43.572302 -1745.2157,-150.68036 -1559.2523,-150.68038 z" style="opacity:.40206185;color:#000;fill:url(#radialGradient6719);fill-opacity:1;fill-rule:nonzero;stroke:none;stroke-width:1;stroke-linecap:round;stroke-linejoin:miter;marker:none;marker-start:none;marker-mid:none;marker-end:none;stroke-miterlimit:4;stroke-dasharray:none;stroke-dashoffset:0;stroke-opacity:1;visibility:visible;display:inline;overflow:visible"/></g><rect id="rect4652" width="38.438" height="6.492" x="4.75" y="36.004" rx="1.712" ry="1.712" style="fill:url(#linearGradient1471);fill-opacity:1;stroke:#595959;stroke-width:.99999982;stroke-miterlimit:4;stroke-opacity:1"/><path id="rect4609" d="M 7.1308961,21.5 L 40.870615,21.5 C 41.255661,21.5 41.747648,21.788155 42.051049,22.223919 C 42.354451,22.659684 43.787518,24.83394 44.109448,25.297964 C 44.431378,25.761987 44.502397,26.201852 44.502397,26.774049 L 44.502397,38.850951 C 44.502397,39.764524 43.770402,40.5 42.861152,40.5 L 5.1403596,40.5 C 4.2311094,40.5 3.4991138,39.764524 3.4991138,38.850951 L 3.4991138,26.774049 C 3.4991138,26.280031 3.6002798,25.571641 3.9455202,25.120718 C 4.3811666,24.551713 5.5498664,22.57277 5.8581276,22.153118 C 6.1663887,21.733467 6.7324461,21.5 7.1308961,21.5 z" style="color:#000;fill:url(#linearGradient1468);fill-opacity:1;fill-rule:nonzero;stroke:#676767;stroke-width:1.00000036;stroke-linecap:butt;stroke-linejoin:miter;marker:none;marker-start:none;marker-mid:none;marker-end:none;stroke-miterlimit:4;stroke-dashoffset:0;stroke-opacity:1;visibility:visible;display:inline;overflow:visible"/><path id="path4718" d="M 7.4246212,21.975532 C 6.9218931,21.975532 6.3048776,22.053784 6.0546019,22.46703 L 4.1542523,25.604816 C 3.8721285,26.070648 4.1881986,26.868141 5.0873106,26.868141 L 42.730786,26.868141 C 44.040732,26.868141 43.950533,25.858073 43.663844,25.428039 L 41.896077,22.776389 C 41.575544,22.295589 41.459199,21.975532 40.65864,21.975532 L 7.4246212,21.975532 z" style="fill:#fbfbfb;fill-opacity:1;fill-rule:evenodd;stroke:none;stroke-width:1px;stroke-linecap:butt;stroke-linejoin:miter;stroke-opacity:1"/><path style="color:#000;fill:none;fill-opacity:1;fill-rule:nonzero;stroke:url(#linearGradient1464);stroke-width:.94696712;stroke-linecap:butt;stroke-linejoin:miter;marker:none;marker-start:none;marker-mid:none;marker-end:none;stroke-miterlimit:4;stroke-dashoffset:0;stroke-opacity:1;visibility:visible;display:inline;overflow:visible" id="path4750" d="M 7.60536,22.445756 L 40.432673,22.445756 C 40.798351,22.445756 41.265592,22.718629 41.553733,23.131283 C 41.841873,23.543938 42.849964,25.160945 43.155701,25.60036 C 43.461437,26.039775 43.59127,26.456312 43.59127,26.998164 L 43.59127,38.279261 C 43.59127,39.144385 43.457547,39.528356 42.594031,39.528356 L 5.5322268,39.528356 C 4.6687108,39.528356 4.4726047,39.144385 4.4726047,38.279261 L 4.4726047,26.998164 C 4.4726047,26.530345 4.6934498,25.859523 5.0213249,25.432514 C 5.435059,24.893685 6.1038541,23.461633 6.3966101,23.064237 C 6.6893662,22.666841 7.2269515,22.445756 7.60536,22.445756 z"/><path id="rect15391" d="M 11.672962,4.4999475 L 36.325116,4.4999475 C 36.975881,4.4999475 37.49978,5.0100777 37.49978,5.6437371 L 37.49978,24.348176 L 10.498298,24.348176 L 10.498298,5.6437371 C 10.498298,5.0100777 11.022197,4.4999475 11.672962,4.4999475 z" style="color:#000;fill:url(#linearGradient1459);fill-opacity:1;fill-rule:nonzero;stroke:#898989;stroke-width:1.00000036;stroke-linecap:round;stroke-linejoin:miter;marker:none;marker-start:none;marker-mid:none;marker-end:none;stroke-miterlimit:4;stroke-dashoffset:0;stroke-opacity:1;visibility:visible;display:block;overflow:visible"/><rect style="color:#000;fill:none;fill-opacity:1;fill-rule:nonzero;stroke:url(#linearGradient1456);stroke-width:1.00000024;stroke-linecap:round;stroke-linejoin:round;marker:none;marker-start:none;marker-mid:none;marker-end:none;stroke-miterlimit:4;stroke-dashoffset:0;stroke-opacity:1;visibility:visible;display:block;overflow:visible" id="rect15660" width="25.001" height="18.836" x="11.499" y="5.499" rx=".177" ry=".177"/><rect id="rect4678" width="33.75" height="5.188" x="6.875" y="27.375" rx="1.712" ry="1.712" style="fill:url(#linearGradient1451);fill-opacity:1;stroke:url(#linearGradient1453);stroke-width:1;stroke-miterlimit:4;stroke-opacity:1"/><path id="path4696" d="M 10.871767 27.626486 A 1.2816310 1.2816310 0 1 1 8.3085046,27.626486 A 1.2816310 1.2816310 0 1 1 10.871767 27.626486 z" transform="translate(0.000000,2.000000)" style="fill:url(#radialGradient1433);fill-opacity:1;stroke:none;stroke-width:1;stroke-miterlimit:4;stroke-opacity:1"/><path id="path4731" d="M 11.743718,25.416053 L 37.306218,25.478553 C 37.993716,25.480234 38.294038,25.107558 38.243718,24.478553 L 38.118718,22.916053 L 39.984835,22.916053 C 40.797335,22.916053 40.975035,23.108616 41.172335,23.478553 L 41.672335,24.416053 C 42.199130,25.403793 43.483508,26.390165 42.170495,26.390165 C 37.667784,26.390165 13.993718,26.041053 11.743718,25.416053 z" style="fill:url(#linearGradient1447);fill-opacity:1;fill-rule:evenodd;stroke:none;stroke-width:1px;stroke-linecap:butt;stroke-linejoin:miter;stroke-opacity:1;opacity:.36571429"/><path style="fill:none;fill-opacity:.75;fill-rule:evenodd;stroke:#fff;stroke-width:.99999994px;stroke-linecap:round;stroke-linejoin:round;stroke-opacity:1" id="path4760" d="M 43.488808,26.5 L 4.5111805,26.5"/><g transform="translate(0.000000,2.000000)" style="opacity:.43575415" id="g4849"><rect id="rect4833" width="19" height="1" x="14" y="7" style="color:#000;fill:#000;fill-opacity:.29239765;fill-rule:nonzero;stroke:none;stroke-width:1;stroke-linecap:round;stroke-linejoin:round;marker:none;marker-start:none;marker-mid:none;marker-end:none;stroke-miterlimit:4;stroke-dashoffset:0;stroke-opacity:1;visibility:visible;display:inline;overflow:visible"/><rect style="color:#000;fill:#000;fill-opacity:.29239765;fill-rule:nonzero;stroke:none;stroke-width:1;stroke-linecap:round;stroke-linejoin:round;marker:none;marker-start:none;marker-mid:none;marker-end:none;stroke-miterlimit:4;stroke-dashoffset:0;stroke-opacity:1;visibility:visible;display:inline;overflow:visible" id="rect4835" width="19" height="1" x="14" y="9"/><rect id="rect4837" width="19" height="1" x="14" y="11" style="color:#000;fill:#000;fill-opacity:.29239765;fill-rule:nonzero;stroke:none;stroke-width:1;stroke-linecap:round;stroke-linejoin:round;marker:none;marker-start:none;marker-mid:none;marker-end:none;stroke-miterlimit:4;stroke-dashoffset:0;stroke-opacity:1;visibility:visible;display:inline;overflow:visible"/><rect style="color:#000;fill:#000;fill-opacity:.29239765;fill-rule:nonzero;stroke:none;stroke-width:1;stroke-linecap:round;stroke-linejoin:round;marker:none;marker-start:none;marker-mid:none;marker-end:none;stroke-miterlimit:4;stroke-dashoffset:0;stroke-opacity:1;visibility:visible;display:inline;overflow:visible" id="rect4839" width="11" height="1" x="14" y="13"/><rect style="color:#000;fill:#000;fill-opacity:.29239765;fill-rule:nonzero;stroke:none;stroke-width:1;stroke-linecap:round;stroke-linejoin:round;marker:none;marker-start:none;marker-mid:none;marker-end:none;stroke-miterlimit:4;stroke-dashoffset:0;stroke-opacity:1;visibility:visible;display:inline;overflow:visible" id="rect4843" width="19" height="1" x="14" y="17"/><rect id="rect4845" width="19" height="1" x="14" y="19" style="color:#000;fill:#000;fill-opacity:.29239765;fill-rule:nonzero;stroke:none;stroke-width:1;stroke-linecap:round;stroke-linejoin:round;marker:none;marker-start:none;marker-mid:none;marker-end:none;stroke-miterlimit:4;stroke-dashoffset:0;stroke-opacity:1;visibility:visible;display:inline;overflow:visible"/></g></g></svg>