<svg xmlns="http://www.w3.org/2000/svg" xmlns:xlink="http://www.w3.org/1999/xlink" width="48" height="48"><defs><linearGradient id="i"><stop offset="0" style="stop-color:black;stop-opacity:1"/><stop offset="1" style="stop-color:black;stop-opacity:0"/></linearGradient><linearGradient id="a"><stop offset="0" style="stop-color:black;stop-opacity:0"/><stop offset=".5" style="stop-color:black;stop-opacity:1"/><stop offset="1" style="stop-color:black;stop-opacity:0"/></linearGradient><linearGradient xlink:href="#a" id="k" x1="302.857" x2="302.857" y1="366.648" y2="609.505" gradientTransform="matrix(2.77439 0 0 1.9697 -1892.179 -872.885)" gradientUnits="userSpaceOnUse"/><linearGradient id="f"><stop offset="0" style="stop-color:#fff;stop-opacity:.12371134"/><stop offset=".103" style="stop-color:#fff;stop-opacity:1"/><stop offset="1" style="stop-color:#fff;stop-opacity:0"/></linearGradient><linearGradient id="g"><stop offset="0" style="stop-color:#dcdcda;stop-opacity:1"/><stop offset="1" style="stop-color:#bab9b7;stop-opacity:1"/></linearGradient><linearGradient id="b"><stop offset="0" style="stop-color:#000;stop-opacity:.2371134"/><stop offset="1" style="stop-color:#000;stop-opacity:0"/></linearGradient><linearGradient id="j"><stop offset="0" style="stop-color:#fffffd;stop-opacity:1"/><stop offset=".5" style="stop-color:#bbbbb9;stop-opacity:1"/><stop offset="1" style="stop-color:#000;stop-opacity:1"/></linearGradient><linearGradient id="c"><stop offset="0" style="stop-color:#f7f6f5;stop-opacity:1"/><stop offset="1" style="stop-color:#f7f6f5;stop-opacity:0"/></linearGradient><linearGradient id="h"><stop offset="0" style="stop-color:#8e8d87;stop-opacity:1"/><stop offset=".276" style="stop-color:#cbc9c1;stop-opacity:1"/><stop offset="1" style="stop-color:#8e8d87;stop-opacity:1"/></linearGradient><linearGradient id="e"><stop offset="0" style="stop-color:#e0e0e0;stop-opacity:1"/><stop offset=".405" style="stop-color:#fff;stop-opacity:1"/><stop offset=".534" style="stop-color:#cdcdcd;stop-opacity:1"/><stop offset="1" style="stop-color:#494949;stop-opacity:1"/></linearGradient><linearGradient id="d"><stop offset="0" style="stop-color:#fff;stop-opacity:0"/><stop offset="1" style="stop-color:#f8f8f8;stop-opacity:1"/></linearGradient><linearGradient xlink:href="#b" id="u" x1="9.87" x2="9.913" y1="57.228" y2="72.064" gradientTransform="matrix(2.77209 0 0 .36074 .619 2.884)" gradientUnits="userSpaceOnUse"/><linearGradient xlink:href="#c" id="s" x1="10.338" x2="10.338" y1="64.652" y2="54.136" gradientTransform="matrix(2.36984 0 0 .42197 0 2)" gradientUnits="userSpaceOnUse"/><linearGradient xlink:href="#d" id="r" x1="20.771" x2="20.718" y1="25.14" y2="19.337" gradientTransform="matrix(1.19877 0 0 .85357 -.143 2.035)" gradientUnits="userSpaceOnUse"/><linearGradient xlink:href="#e" id="q" x1="25.057" x2="24.79" y1="3.679" y2="25.247" gradientTransform="matrix(.94571 0 0 1.07603 .05 4.095)" gradientUnits="userSpaceOnUse"/><linearGradient xlink:href="#f" id="p" x1="15.388" x2="15.488" y1="32.539" y2="58.831" gradientTransform="matrix(1.49257 0 0 .66874 .082 2)" gradientUnits="userSpaceOnUse"/><linearGradient xlink:href="#g" id="o" x1="1.846" x2="18.972" y1="88.295" y2="88.295" gradientTransform="matrix(2.29182 0 0 .43427 .089 2)" gradientUnits="userSpaceOnUse"/><linearGradient xlink:href="#h" id="n" x1="1.846" x2="18.972" y1="88.295" y2="88.295" gradientTransform="matrix(2.30272 0 0 .43792 0 .584)" gradientUnits="userSpaceOnUse"/><radialGradient xlink:href="#i" id="m" cx="605.714" cy="486.648" r="117.143" fx="605.714" fy="486.648" gradientTransform="matrix(-2.77439 0 0 1.9697 112.762 -872.885)" gradientUnits="userSpaceOnUse"/><radialGradient xlink:href="#i" id="l" cx="605.714" cy="486.648" r="117.143" fx="605.714" fy="486.648" gradientTransform="matrix(2.77439 0 0 1.9697 -1891.633 -872.885)" gradientUnits="userSpaceOnUse"/><radialGradient xlink:href="#j" id="t" cx="9.13" cy="26.926" r="2.123" fx="9.13" fy="26.926" gradientUnits="userSpaceOnUse"/></defs><path d="M-1559.252-150.697h1339.633V327.66h-1339.633z" style="opacity:.40206185;color:#000;fill:url(#k);fill-opacity:1;fill-rule:nonzero;stroke:none;stroke-width:1;stroke-linecap:round;stroke-linejoin:miter;marker:none;marker-start:none;marker-mid:none;marker-end:none;stroke-miterlimit:4;stroke-dasharray:none;stroke-dashoffset:0;stroke-opacity:1;visibility:visible;display:inline;overflow:visible" transform="matrix(.02311 0 0 .02272 44.685 39.361)"/><path d="M-219.619-150.68v478.33c142.874.9 345.4-107.17 345.4-239.196S-33.655-150.68-219.619-150.68z" style="opacity:.40206185;color:#000;fill:url(#l);fill-opacity:1;fill-rule:nonzero;stroke:none;stroke-width:1;stroke-linecap:round;stroke-linejoin:miter;marker:none;marker-start:none;marker-mid:none;marker-end:none;stroke-miterlimit:4;stroke-dasharray:none;stroke-dashoffset:0;stroke-opacity:1;visibility:visible;display:inline;overflow:visible" transform="matrix(.02311 0 0 .02272 44.685 39.361)"/><path d="M-1559.252-150.68v478.33c-142.875.9-345.4-107.17-345.4-239.196s159.436-239.134 345.4-239.134z" style="opacity:.40206185;color:#000;fill:url(#m);fill-opacity:1;fill-rule:nonzero;stroke:none;stroke-width:1;stroke-linecap:round;stroke-linejoin:miter;marker:none;marker-start:none;marker-mid:none;marker-end:none;stroke-miterlimit:4;stroke-dasharray:none;stroke-dashoffset:0;stroke-opacity:1;visibility:visible;display:inline;overflow:visible" transform="matrix(.02311 0 0 .02272 44.685 39.361)"/><rect width="38.438" height="6.492" x="4.75" y="36.004" rx="1.712" ry="1.712" style="fill:url(#n);fill-opacity:1;stroke:#595959;stroke-width:.99999982;stroke-miterlimit:4;stroke-opacity:1"/><path d="M7.13 21.5h33.74c.386 0 .878.288 1.181.724.303.436 1.737 2.61 2.058 3.074.322.464.393.904.393 1.476v12.077c0 .914-.732 1.649-1.64 1.649H5.14a1.64 1.64 0 0 1-1.64-1.649V26.774c0-.494.1-1.202.446-1.653.435-.57 1.604-2.548 1.912-2.968.308-.42.874-.653 1.273-.653z" style="color:#000;fill:url(#o);fill-opacity:1;fill-rule:nonzero;stroke:#676767;stroke-width:1.00000036;stroke-linecap:butt;stroke-linejoin:miter;marker:none;marker-start:none;marker-mid:none;marker-end:none;stroke-miterlimit:4;stroke-dashoffset:0;stroke-opacity:1;visibility:visible;display:inline;overflow:visible"/><path d="M7.425 21.976c-.503 0-1.12.078-1.37.491l-1.9 3.138c-.283.466.033 1.263.932 1.263h37.644c1.31 0 1.22-1.01.933-1.44l-1.768-2.652c-.32-.48-.437-.8-1.237-.8H7.425z" style="fill:#fbfbfb;fill-opacity:1;fill-rule:evenodd;stroke:none;stroke-width:1px;stroke-linecap:butt;stroke-linejoin:miter;stroke-opacity:1"/><path d="M7.605 22.446h32.828c.365 0 .833.273 1.12.685.289.413 1.297 2.03 1.603 2.47.305.439.435.855.435 1.397V38.28c0 .865-.133 1.25-.997 1.25H5.532c-.863 0-1.06-.385-1.06-1.25V27c0-.469.221-1.14.55-1.566.413-.54 1.082-1.971 1.375-2.369.292-.397.83-.618 1.208-.618z" style="color:#000;fill:none;fill-opacity:1;fill-rule:nonzero;stroke:url(#p);stroke-width:.94696712;stroke-linecap:butt;stroke-linejoin:miter;marker:none;marker-start:none;marker-mid:none;marker-end:none;stroke-miterlimit:4;stroke-dashoffset:0;stroke-opacity:1;visibility:visible;display:inline;overflow:visible"/><path d="M11.673 4.5h24.652c.65 0 1.175.51 1.175 1.144v18.704H10.498V5.644c0-.634.524-1.144 1.175-1.144z" style="color:#000;fill:url(#q);fill-opacity:1;fill-rule:nonzero;stroke:#898989;stroke-width:1.00000036;stroke-linecap:round;stroke-linejoin:miter;marker:none;marker-start:none;marker-mid:none;marker-end:none;stroke-miterlimit:4;stroke-dashoffset:0;stroke-opacity:1;visibility:visible;display:block;overflow:visible"/><rect width="25.001" height="18.836" x="11.499" y="5.499" rx=".177" ry=".177" style="color:#000;fill:none;fill-opacity:1;fill-rule:nonzero;stroke:url(#r);stroke-width:1.00000024;stroke-linecap:round;stroke-linejoin:round;marker:none;marker-start:none;marker-mid:none;marker-end:none;stroke-miterlimit:4;stroke-dashoffset:0;stroke-opacity:1;visibility:visible;display:block;overflow:visible"/><rect width="33.75" height="5.188" x="6.875" y="27.375" rx="1.712" ry="1.712" style="fill:url(#s);fill-opacity:1;stroke:url(#linearGradient1453);stroke-width:1;stroke-miterlimit:4;stroke-opacity:1"/><path d="M10.872 27.626a1.282 1.282 0 1 1-2.563 0 1.282 1.282 0 1 1 2.563 0z" style="fill:url(#t);fill-opacity:1;stroke:none;stroke-width:1;stroke-miterlimit:4;stroke-opacity:1" transform="translate(0 2)"/><path d="m11.744 25.416 25.562.063c.688.001.988-.371.938-1l-.125-1.563h1.866c.812 0 .99.193 1.187.563l.5.937c.527.988 1.812 1.974.498 1.974-4.502 0-28.176-.349-30.426-.974z" style="fill:url(#u);fill-opacity:1;fill-rule:evenodd;stroke:none;stroke-width:1px;stroke-linecap:butt;stroke-linejoin:miter;stroke-opacity:1;opacity:.36571429"/><path d="M43.489 26.5H4.51" style="fill:none;fill-opacity:.75;fill-rule:evenodd;stroke:#fff;stroke-width:.99999994px;stroke-linecap:round;stroke-linejoin:round;stroke-opacity:1"/><g style="opacity:.43575415"><path d="M14 7h19v1H14z" style="color:#000;fill:#000;fill-opacity:.29239765;fill-rule:nonzero;stroke:none;stroke-width:1;stroke-linecap:round;stroke-linejoin:round;marker:none;marker-start:none;marker-mid:none;marker-end:none;stroke-miterlimit:4;stroke-dashoffset:0;stroke-opacity:1;visibility:visible;display:inline;overflow:visible" transform="translate(0 2)"/><path d="M14 9h19v1H14z" style="color:#000;fill:#000;fill-opacity:.29239765;fill-rule:nonzero;stroke:none;stroke-width:1;stroke-linecap:round;stroke-linejoin:round;marker:none;marker-start:none;marker-mid:none;marker-end:none;stroke-miterlimit:4;stroke-dashoffset:0;stroke-opacity:1;visibility:visible;display:inline;overflow:visible" transform="translate(0 2)"/><path d="M14 11h19v1H14z" style="color:#000;fill:#000;fill-opacity:.29239765;fill-rule:nonzero;stroke:none;stroke-width:1;stroke-linecap:round;stroke-linejoin:round;marker:none;marker-start:none;marker-mid:none;marker-end:none;stroke-miterlimit:4;stroke-dashoffset:0;stroke-opacity:1;visibility:visible;display:inline;overflow:visible" transform="translate(0 2)"/><path d="M14 13h11v1H14z" style="color:#000;fill:#000;fill-opacity:.29239765;fill-rule:nonzero;stroke:none;stroke-width:1;stroke-linecap:round;stroke-linejoin:round;marker:none;marker-start:none;marker-mid:none;marker-end:none;stroke-miterlimit:4;stroke-dashoffset:0;stroke-opacity:1;visibility:visible;display:inline;overflow:visible" transform="translate(0 2)"/><path d="M14 17h19v1H14z" style="color:#000;fill:#000;fill-opacity:.29239765;fill-rule:nonzero;stroke:none;stroke-width:1;stroke-linecap:round;stroke-linejoin:round;marker:none;marker-start:none;marker-mid:none;marker-end:none;stroke-miterlimit:4;stroke-dashoffset:0;stroke-opacity:1;visibility:visible;display:inline;overflow:visible" transform="translate(0 2)"/><path d="M14 19h19v1H14z" style="color:#000;fill:#000;fill-opacity:.29239765;fill-rule:nonzero;stroke:none;stroke-width:1;stroke-linecap:round;stroke-linejoin:round;marker:none;marker-start:none;marker-mid:none;marker-end:none;stroke-miterlimit:4;stroke-dashoffset:0;stroke-opacity:1;visibility:visible;display:inline;overflow:visible" transform="translate(0 2)"/></g></svg>