<svg xmlns="http://www.w3.org/2000/svg" width="169" height="169"><path d="M59.063 38.75c-7.774 0-12.666 1.978-14.72 5.938-1.026 2.053-1.706 3.886-2 5.5-.146 1.613-.218 4.126-.218 7.5V179.5H79.75v-38c5.427 6.747 14.16 10.125 26.188 10.125 12.026 0 23.314-5.644 33.874-16.938 10.707-11.293 16.063-24.414 16.063-39.375 0-14.96-5.356-28.112-16.063-39.406-10.706-11.293-22.067-16.937-34.093-16.937-11.88 0-20.614 3.81-26.188 11.437-.44-3.813-2.057-6.655-4.844-8.562-2.64-2.053-7.851-3.094-15.624-3.094zm40.062 37.844c5.72 0 10.324 1.977 13.844 5.937 3.52 3.814 5.28 8.16 5.281 13 0 4.84-1.905 9.156-5.719 12.969-3.666 3.813-8.23 5.719-13.656 5.719-5.28 0-9.668-1.906-13.188-5.719-3.373-3.96-5.062-8.275-5.062-12.969 0-4.693 1.69-9.04 5.063-13 3.373-3.96 7.864-5.937 13.437-5.937z" style="fill:#fff;fill-opacity:1;stroke:none" transform="translate(-10.5 -10.5)"/><path d="M0 0v169h31.625V47.187c0-3.373.072-5.886.219-7.5.293-1.613.973-3.446 2-5.5 2.053-3.96 6.945-5.937 14.718-5.937 7.774 0 12.985 1.04 15.626 3.094 2.786 1.907 4.403 4.749 4.843 8.562C74.605 32.28 83.34 28.47 95.22 28.47c12.026 0 23.387 5.644 34.094 16.937 10.706 11.294 16.062 24.447 16.062 39.407 0 14.96-5.356 28.081-16.063 39.374-10.56 11.294-21.848 16.938-33.875 16.938-12.026 0-20.76-3.378-26.187-10.125v38H169V0H0zm88.625 66.094c-5.573 0-10.064 1.977-13.438 5.937-3.373 3.96-5.062 8.307-5.062 13 0 4.694 1.69 9.009 5.063 12.969 3.52 3.813 7.907 5.719 13.187 5.719 5.427 0 9.99-1.906 13.656-5.719 3.813-3.813 5.719-8.129 5.719-12.969s-1.761-9.186-5.281-13c-3.52-3.96-8.124-5.937-13.844-5.937z" style="fill:#2e4153;fill-opacity:1;stroke:none"/></svg>