<?xml version="1.0" encoding="UTF-8" standalone="no"?>
<!-- Created with Inkscape (http://www.inkscape.org/) -->

<svg
   xmlns:dc="http://purl.org/dc/elements/1.1/"
   xmlns:cc="http://creativecommons.org/ns#"
   xmlns:rdf="http://www.w3.org/1999/02/22-rdf-syntax-ns#"
   xmlns:svg="http://www.w3.org/2000/svg"
   xmlns="http://www.w3.org/2000/svg"
   xmlns:sodipodi="http://sodipodi.sourceforge.net/DTD/sodipodi-0.dtd"
   xmlns:inkscape="http://www.inkscape.org/namespaces/inkscape"
   id="svg2"
   version="1.1"
   inkscape:version="0.91 r13725"
   xml:space="preserve"
   width="1600"
   height="1280"
   viewBox="0 0 1600 1280"
   sodipodi:docname="only logo white background.svg"><metadata
     id="metadata8"><rdf:RDF><cc:Work
         rdf:about=""><dc:format>image/svg+xml</dc:format><dc:type
           rdf:resource="http://purl.org/dc/dcmitype/StillImage" /><dc:title></dc:title></cc:Work></rdf:RDF></metadata><defs
     id="defs6"><clipPath
       clipPathUnits="userSpaceOnUse"
       id="clipPath16"><path
         d="m 0,1024 1280,0 L 1280,0 0,0 0,1024 Z"
         id="path18"
         inkscape:connector-curvature="0" /></clipPath></defs><sodipodi:namedview
     pagecolor="#ffffff"
     bordercolor="#666666"
     borderopacity="1"
     objecttolerance="10"
     gridtolerance="10"
     guidetolerance="10"
     inkscape:pageopacity="0"
     inkscape:pageshadow="2"
     inkscape:window-width="1600"
     inkscape:window-height="1149"
     id="namedview4"
     showgrid="false"
     inkscape:zoom="0.26074563"
     inkscape:cx="906.13516"
     inkscape:cy="683.10025"
     inkscape:window-x="0"
     inkscape:window-y="27"
     inkscape:window-maximized="1"
     inkscape:current-layer="g10" /><g
     id="g10"
     inkscape:groupmode="layer"
     inkscape:label="only logo white background"
     transform="matrix(1.25,0,0,-1.25,0,1280)"><g
       id="g12"
       transform="matrix(2.0467721,0,0,2.0467721,-667.88766,-535.45945)"><g
         id="g14"
         clip-path="url(#clipPath16)"><g
           id="g20"
           transform="translate(416.1574,511.7812)"><path
             d="m 0,0 c 0,123.015 99.724,222.739 222.739,222.739 123.015,0 222.739,-99.724 222.739,-222.739 0,-123.015 -99.724,-222.739 -222.739,-222.739 C 99.724,-222.739 0,-123.015 0,0"
             style="fill:#1c6b8f;fill-opacity:1;fill-rule:nonzero;stroke:none"
             id="path22"
             inkscape:connector-curvature="0" /></g><g
           id="g24"
           transform="translate(533.2743,420.8088)"><path
             d="m 0,0 119.792,-131.766 c 0,0 111.646,-5.709 183.371,119.762 0,0 28.08,67.151 25.198,102.976 -2.882,35.826 -0.457,14.262 -0.457,14.262 l -102.296,114.738 -24.384,-27.801 -36.94,0 -44.492,0 -58.498,0 -52.964,0 L -14.365,181.944 27.279,143.262 -3.523,115.239 8.33,44.083 0,0 Z"
             style="fill:#16536f;fill-opacity:1;fill-rule:nonzero;stroke:none"
             id="path26"
             inkscape:connector-curvature="0" /></g><g
           id="g28"
           transform="translate(518.909,640.7811)"><path
             d="m 0,0 101.934,-16.153 c 11.961,-1.896 24.145,-1.896 36.106,0 L 239.974,0 l 0,-38.028 -101.934,-16.154 c -11.961,-1.895 -24.145,-1.895 -36.106,0 L 0,-38.028 0,0 Z"
             style="fill:#99bf00;fill-opacity:1;fill-rule:nonzero;stroke:none"
             id="path30"
             inkscape:connector-curvature="0" /></g><g
           id="g32"
           transform="translate(518.909,640.7811)"><path
             d="m 0,0 101.934,-16.153 c 11.961,-1.896 24.145,-1.896 36.106,0 L 239.974,0 l 0,-38.028 -101.934,-16.154 c -11.961,-1.895 -24.145,-1.895 -36.106,0 L 0,-38.028 0,0 Z"
             style="fill:none;stroke:#ffffff;stroke-width:1;stroke-linecap:butt;stroke-linejoin:miter;stroke-miterlimit:10;stroke-dasharray:none;stroke-opacity:1"
             id="path34"
             inkscape:connector-curvature="0" /></g><g
           id="g36"
           transform="translate(553.9865,526.0424)"><path
             d="m 0,0 0,-57.042 c 0,-11.147 3.714,-20.326 11.147,-27.538 13.768,-13.769 38.136,-20.654 73.106,-20.654 41.522,0 67.748,7.433 78.68,22.293 4.806,6.777 7.213,15.408 7.213,25.899 L 170.146,0 0,0 Z m -19.66,38.028 208.446,0 c 8.898,0 16.11,-7.212 16.11,-16.11 l 0,-81.256 c 0,-55.945 -40.324,-83.924 -120.971,-83.924 -33.879,0 -61.745,6.449 -83.596,19.342 -11.147,6.557 -19.835,15.357 -26.063,26.39 -6.229,11.039 -9.343,23.768 -9.343,38.192 l 0,81.948 c 0,8.515 6.902,15.418 15.417,15.418"
             style="fill:#00b4ff;fill-opacity:1;fill-rule:nonzero;stroke:none"
             id="path38"
             inkscape:connector-curvature="0" /></g><g
           id="g40"
           transform="translate(553.9865,526.0424)"><path
             d="m 0,0 0,-57.042 c 0,-11.147 3.714,-20.326 11.147,-27.538 13.768,-13.769 38.136,-20.654 73.106,-20.654 41.522,0 67.748,7.433 78.68,22.293 4.806,6.777 7.213,15.408 7.213,25.899 L 170.146,0 0,0 Z m -19.66,38.028 208.446,0 c 8.898,0 16.11,-7.212 16.11,-16.11 l 0,-81.256 c 0,-55.945 -40.324,-83.924 -120.971,-83.924 -33.879,0 -61.745,6.449 -83.596,19.342 -11.147,6.557 -19.835,15.357 -26.063,26.39 -6.229,11.039 -9.343,23.768 -9.343,38.192 l 0,81.948 c 0,8.515 6.902,15.418 15.417,15.418 z"
             style="fill:none;stroke:#ffffff;stroke-width:1;stroke-linecap:butt;stroke-linejoin:miter;stroke-miterlimit:10;stroke-dasharray:none;stroke-opacity:1"
             id="path42"
             inkscape:connector-curvature="0" /></g><g
           id="g44"
           transform="translate(523.1484,439.9793)"><path
             d="m 0,0 30.838,13.372 0,72.691 170.146,0 0,-14.261 34.75,14.261 0,21.919 c 0,0 -1.928,16.109 -16.109,16.109 l -208.447,0 c 0,0 -15.417,-0.45 -15.417,-15.417 l 0,-88.214 L 0,0 Z"
             style="fill:#5dcfff;fill-opacity:1;fill-rule:nonzero;stroke:none"
             id="path46"
             inkscape:connector-curvature="0" /></g></g></g></g></svg>