<svg xmlns="http://www.w3.org/2000/svg" width="457" height="512"><defs><linearGradient id="a" x1="50%" x2="50%" y1="99.881%" y2="8.745%"><stop offset="0%" stop-color="#4BB749"/><stop offset="100%" stop-color="#79B481"/></linearGradient><linearGradient id="c" x1="-48.652%" x2="56.562%" y1="-66.533%" y2="57.745%"><stop offset="0%" stop-color="#23FF16"/><stop offset="100%" stop-color="#189A33"/></linearGradient><linearGradient id="d" x1="174.299%" x2="24.299%" y1="-115.996%" y2="84.384%"><stop offset="0%" stop-color="#23FF16"/><stop offset="100%" stop-color="#189A33"/></linearGradient><radialGradient id="b" cx="51.142%" cy="55.228%" r="46.892%" fx="51.142%" fy="55.228%" gradientTransform="matrix(.11891 0 0 1 .45 0)"><stop offset="0%"/><stop offset="19.01%" stop-color="#030303"/><stop offset="32.36%" stop-color="#0C0C0C"/><stop offset="43.97%" stop-color="#1C1C1C"/><stop offset="54.61%" stop-color="#323232"/><stop offset="64.56%" stop-color="#4E4E4E"/><stop offset="74.02%" stop-color="#717171"/><stop offset="83.09%" stop-color="#9A9A9A"/><stop offset="91.61%" stop-color="#C9C9C9"/><stop offset="99.85%" stop-color="#FEFEFE"/><stop offset="100%" stop-color="#FFF"/></radialGradient></defs><g fill="none"><path fill="#349334" d="M416.842 185.459v.015H396.05v-18.576C396.05 74.72 320.877 0 228.13 0 135.4 0 60.226 74.72 60.226 166.898v18.576H39.465C17.661 185.474 0 203.02 0 224.695V377.92c.045 10.204.656 17.622 4.65 23.03 4.143 5.421 11.103 7.358 21.491 7.328h33.4l5.096 80.678c0 .194-.015.507-.015.91.015 2.144.254 7.045 2.966 11.752 2.668 4.752 8.272 8.998 17.333 8.923h84.877l44.07-46.73h32.937l42.61 48.19h76.128c6.558-.03 12.564.134 17.765-3.173 5.187-3.381 8.302-9.802 9.807-20.989 2.19-16.267 2.697-60.777 3.696-79.546h33.37c10.268-.03 16.975-1.013 21.327-5.69 4.202-4.767 4.754-11.56 4.814-21.749V224.695c-.03-21.674-17.691-39.221-39.48-39.236Z"/><path fill="#4BB749" d="M451.465 381.166c.06 10.043-.97 15.661-3.445 18.254-2.31 2.697-7.366 4.008-17.431 3.978h-38.397l-.134 2.474c-.925 17.703-1.551 65.059-3.773 81.644-1.446 10.699-4.235 15.229-7.47 17.315-3.251 2.19-8.247 2.354-14.897 2.325h-73.782l-42.632-48.22h-37.592l-44.108 46.76H85.149c-7.53-.075-10.736-2.966-12.779-6.304-1.968-3.383-2.281-7.525-2.266-9.164 0-.507.015-.716.015-.716l.015-.208-5.458-85.92H26.353c-9.975-.015-14.762-1.848-17.297-5.246-2.684-3.427-3.638-9.88-3.609-19.893V224.986c.03-18.79 15.33-33.974 34.237-34.004h26.05V167.17c.15-89.318 72.843-161.574 162.73-161.723 89.871.149 162.58 72.405 162.744 161.723v23.812h26.065c18.893.03 34.177 15.214 34.207 34.004v156.18h-.015Z"/><path fill="#118011" d="M70.203 398.827h315.915v10.47H70.203z"/><path fill="#118011" d="M65.362 402.459V204.558h5.34v197.9zm321.361 0V204.558h5.341v197.9z"/><ellipse cx="225.74" cy="246.922" fill="url(#a)" rx="113.173" ry="20.577"/><path fill="#FFF" d="M331.045 194.27v-30.18c0-56.864-46.189-102.965-103.18-102.965-56.99 0-103.194 46.101-103.194 102.966v30.179h206.374Z"/><path fill="url(#b)" d="M184.586 162.799h91.991v10.939h-91.991z"/><circle cx="193.967" cy="117.106" r="19.064" fill="#000"/><circle cx="261.749" cy="117.106" r="19.064" fill="#000"/><path fill="#FFF" d="M191.243 309.258h68.993V360.7h-68.993zm10.652-5.448c3.11-10.864 12.755-18.746 24.155-18.761 11.4.015 21.045 7.897 24.17 18.762h8.2c-3.303-15.17-16.46-26.629-32.385-26.629-15.925.015-29.067 11.459-32.37 26.629h8.23Z"/><path fill="#118011" d="M435.38 413.228c1.855-.015 3.56-.06 5.206-.134V407.3c-3.007.463-6.463.627-10.487.642h-33.496c-.51 9.363-.883 25.072-1.407 40.512h5.46c.45-13.663.794-26.938 1.243-35.226h33.481Z"/><path fill="url(#c)" d="M440.586 416.213v-2.86c-1.63.073-3.336.133-5.206.133h-33.495c-.45 8.227-.793 21.405-1.242 34.968h7.764c17.788.015 32.18-14.423 32.18-32.24Z"/><path fill="#118011" d="M59.799 408.294H26.357c-5.178.015-9.476-.46-13.043-1.599v6.676c2.105.252 4.403.355 6.925.355l33.456-.014 2.209 34.742h6.432l-2.537-40.16Z"/><path fill="url(#d)" d="M20.202 413.708c-2.509 0-4.795-.104-6.888-.356v2.888c0 17.788 14.28 32.214 31.9 32.214h10.464l-2.196-34.761-33.28.015Z"/></g></svg>