<?xml version="1.0" encoding="utf-8"?>
<!-- Generator: Adobe Illustrator 27.7.0, SVG Export Plug-In . SVG Version: 6.00 Build 0)  -->
<svg version="1.1"
	 id="Layer_1" xmlns:rdf="http://www.w3.org/1999/02/22-rdf-syntax-ns#" xmlns:cc="http://creativecommons.org/ns#" xmlns:dc="http://purl.org/dc/elements/1.1/"
	 xmlns="http://www.w3.org/2000/svg" xmlns:xlink="http://www.w3.org/1999/xlink" x="0px" y="0px" viewBox="0 0 512 512"
	 style="enable-background:new 0 0 512 512;" xml:space="preserve">
<style type="text/css">
	.st0{fill:url(#SVGID_1_);stroke:#000000;stroke-width:0.7515;stroke-linecap:round;stroke-linejoin:round;stroke-miterlimit:10;}
</style>
<g>
	
		<radialGradient id="SVGID_1_" cx="3316.6868" cy="-3371.835" r="4986.6919" gradientTransform="matrix(9.217000e-02 6.728410e-05 7.231800e-05 -9.926000e-02 -49.4552 -78.9115)" gradientUnits="userSpaceOnUse">
		<stop  offset="0" style="stop-color:#FFFF00"/>
		<stop  offset="1" style="stop-color:#FFAA00"/>
	</radialGradient>
	<path class="st0" d="M256.2,0L20.9,127.5l-0.4,256L255.8,512l235.3-127.5l0.4-256L256.2,0z M255.5,101.5L255.5,101.5
		c3.9,0,7.9,0.3,11.9,0.9c42.6,6.4,74.8,42.1,68.8,73.1c-6,30.9-34.5,58-41.6,63.9c-7,5.9,38.5,171,38.5,171H178.7
		c0,0,47.9-162.7,37.8-171c-10.1-8.4-42.7-38.2-37.7-71.4c5-33.3,39-66.3,76.9-66.4L255.5,101.5z"/>
</g>
</svg>
