<svg xmlns="http://www.w3.org/2000/svg" xmlns:xlink="http://www.w3.org/1999/xlink" width="457" height="512" version="1.1" viewBox="0 0 457 512"><title>pia-robot</title><desc>Created with Sketch.</desc><defs><linearGradient id="linearGradient-1" x1="50%" x2="50%" y1="99.881%" y2="8.745%"><stop offset="0%" stop-color="#4BB749"/><stop offset="100%" stop-color="#79B481"/></linearGradient><radialGradient id="radialGradient-2" cx="51.142%" cy="55.228%" r="46.892%" fx="51.142%" fy="55.228%" gradientTransform="translate(0.511419,0.552282),scale(0.118914,1.000000),translate(-0.511419,-0.552282)"><stop offset="0%" stop-color="#000"/><stop offset="19.01%" stop-color="#030303"/><stop offset="32.36%" stop-color="#0C0C0C"/><stop offset="43.97%" stop-color="#1C1C1C"/><stop offset="54.61%" stop-color="#323232"/><stop offset="64.56%" stop-color="#4E4E4E"/><stop offset="74.02%" stop-color="#717171"/><stop offset="83.09%" stop-color="#9A9A9A"/><stop offset="91.61%" stop-color="#C9C9C9"/><stop offset="99.85%" stop-color="#FEFEFE"/><stop offset="100%" stop-color="#FFF"/></radialGradient><linearGradient id="linearGradient-3" x1="-48.652%" x2="56.562%" y1="-66.533%" y2="57.745%"><stop offset="0%" stop-color="#23FF16"/><stop offset="100%" stop-color="#189A33"/></linearGradient><linearGradient id="linearGradient-4" x1="174.299%" x2="24.299%" y1="-115.996%" y2="84.384%"><stop offset="0%" stop-color="#23FF16"/><stop offset="100%" stop-color="#189A33"/></linearGradient></defs><g id="Page-1" fill="none" fill-rule="evenodd" stroke="none" stroke-width="1"><g id="pia-robot" fill-rule="nonzero"><path id="Shape" fill="#349334" d="M416.841609,185.458672 L416.841609,185.473568 L396.050947,185.473568 L396.050947,166.897908 C396.050947,74.7197347 320.87668,0 228.130949,0 C135.400122,0 60.2258552,74.7197347 60.2258552,166.897908 L60.2258552,185.473568 L39.4649999,185.473568 C17.6608855,185.473568 0,203.021384 0,224.69547 L0,377.918594 C0.0447111026,388.122545 0.655762838,395.540892 4.64995467,400.948241 C8.79318351,406.370487 15.7532118,408.307003 26.1410913,408.27721 L59.5402849,408.27721 L64.6373506,488.955457 C64.6373506,489.149108 64.6224469,489.46193 64.6224469,489.86413 C64.6373506,492.009194 64.8758099,496.91007 67.5882834,501.617294 C70.2560459,506.369207 75.8598374,510.614646 84.9212875,510.540165 L169.797864,510.540165 L213.868107,463.810538 L246.805286,463.810538 L289.414967,512 L290.607263,512 C290.607263,512 306.032594,512 323.127138,512 C340.191876,512 358.925828,512 365.528167,512 L365.543071,512 C372.100699,511.970207 378.106891,512.134067 383.308282,508.827093 C388.49477,505.445637 391.609644,499.025341 393.114918,487.838236 C395.305762,471.571499 395.812488,427.061418 396.811035,408.292107 L430.180422,408.292107 C440.449072,408.262314 447.155737,407.27916 451.507618,402.601728 C455.710461,397.834919 456.261898,391.042216 456.321513,380.853161 L456.321513,224.69547 C456.291706,203.021384 438.63082,185.473568 416.841609,185.458672 Z"/><path id="Shape" fill="#4BB749" d="M451.464994,381.165819 C451.52464,391.209232 450.495747,396.826986 448.02044,399.419796 C445.70916,402.116914 440.654165,403.42822 430.588911,403.398418 L392.19183,403.398418 L392.057627,405.872018 C391.133114,423.574651 390.506832,470.930684 388.28502,487.515726 C386.838606,498.214792 384.050158,502.744759 380.814365,504.830928 C377.563661,507.021405 372.568312,507.185318 365.917789,507.155516 L365.902877,507.155516 C353.764926,507.155516 300.78441,507.155516 292.135747,507.155516 L249.503804,458.935213 L211.911943,458.935213 L167.803762,505.695198 L85.1493858,505.695198 C77.6190845,505.620692 74.4131146,502.729858 72.3702408,499.391988 C70.4019244,496.009414 70.0887831,491.866879 70.1036946,490.227746 C70.1036946,489.721105 70.1186061,489.512488 70.1186061,489.512488 L70.1335176,489.303871 L64.6759131,403.383517 L26.3533896,403.383517 C16.3776043,403.368616 11.5910167,401.535767 9.05606377,398.138292 C6.37199598,394.711015 5.41766076,388.258793 5.44748373,378.245182 L5.44748373,224.986278 C5.47730671,206.195857 20.7764931,191.011528 39.6842596,190.981725 L65.7346287,190.981725 L65.7346287,167.169598 C65.8837436,77.8517689 138.577246,5.59582057 228.463695,5.44680851 C318.335231,5.59582057 391.043646,77.8517689 391.207672,167.169598 L391.207672,190.981725 L417.272953,190.981725 C436.165808,191.011528 451.450082,206.195857 451.479905,224.986278 L451.479905,381.165819 L451.464994,381.165819 Z"/><rect id="Rectangle-path" width="315.915" height="10.47" x="70.203" y="398.827" fill="#118011"/><polygon id="Shape" fill="#118011" points="65.362 402.459 65.362 204.558 70.703 204.558 70.703 402.459"/><polygon id="Shape" fill="#118011" points="386.723 402.459 386.723 204.558 392.064 204.558 392.064 402.459"/><ellipse id="Oval" cx="225.74" cy="246.922" fill="url(#linearGradient-1)" rx="113.173" ry="20.577"/><path id="Shape" fill="#FFF" d="M331.044917,194.269504 L331.044917,164.090546 C331.044917,107.226255 284.856345,61.1252955 227.865606,61.1252955 C170.874867,61.1252955 124.671395,107.226255 124.671395,164.090546 L124.671395,194.269504 L331.044917,194.269504 Z"/><rect id="Rectangle-path" width="91.991" height="10.939" x="184.586" y="162.799" fill="url(#radialGradient-2)"/><circle id="Oval" cx="193.967" cy="117.106" r="19.064" fill="#000"/><circle id="Oval" cx="261.749" cy="117.106" r="19.064" fill="#000"/><rect id="Rectangle-path" width="68.993" height="51.442" x="191.243" y="309.258" fill="#FFF"/><path id="Shape" fill="#FFF" d="M201.894674,303.810875 C205.005248,292.945595 214.649517,285.063814 226.049995,285.048971 C237.450473,285.063814 247.094741,292.945595 250.220199,303.810875 L258.420804,303.810875 C255.116749,288.641044 241.960061,277.182033 226.035112,277.182033 C210.110162,277.196876 196.968358,288.641044 193.664303,303.810875 L201.894674,303.810875 Z"/><path id="Shape" fill="#118011" d="M435.380044,413.228395 C437.235143,413.213462 438.940637,413.168665 440.586288,413.094003 L440.586288,407.300236 C437.579234,407.76314 434.123365,407.927397 430.098998,407.942329 L396.602502,407.942329 C396.093846,417.304937 395.719834,433.01381 395.196217,448.453901 L400.65679,448.453901 C401.105604,434.790765 401.449695,421.515871 401.898509,413.228395 L435.380044,413.228395 Z"/><path id="Shape" fill="url(#linearGradient-3)" d="M440.586288,416.213148 L440.586288,413.352246 C438.955646,413.426363 437.250203,413.485656 435.3802,413.485656 L401.884708,413.485656 C401.435907,421.712604 401.091827,434.890543 400.643026,448.453901 L408.407278,448.453889 C426.194746,448.468713 440.586288,434.03079 440.586288,416.213148 Z"/><path id="Shape" fill="#118011" d="M59.7988277,408.293744 L26.3569157,408.293744 C21.1787169,408.308547 16.8809612,407.834856 13.3144208,406.695035 L13.3144208,413.371125 C15.4185304,413.622773 17.7166359,413.726393 20.2385829,413.726393 L53.6954176,413.711591 L55.9039865,448.453901 L62.3356974,448.453901 L59.7988277,408.293744 Z"/><path id="Shape" fill="url(#linearGradient-4)" d="M20.2019214,413.707706 C17.6933274,413.707706 15.4073897,413.60403 13.3144208,413.352246 L13.3144208,416.240357 C13.3144208,434.028157 27.5941095,448.453901 45.2136423,448.453901 L55.678487,448.453901 L53.4816118,413.692895 L20.2019214,413.707706 Z"/></g></g></svg>