<svg xmlns="http://www.w3.org/2000/svg" xmlns:xlink="http://www.w3.org/1999/xlink" version="1.1" id="Layer_1" x="0px" y="0px" style="enable-background:new 0 0 512 512;" xml:space="preserve" viewBox="65.4 0 381 512">
<style type="text/css">
	.st0{fill:url(#Path_28986_00000141442100203127245770000005343710992437852841_);}
	.st1{fill:url(#Path_28987_00000168104357191402899170000004428117298094867878_);}
	.st2{fill:#56B14E;}
	.st3{fill:url(#Path_28989_00000132068730546696294400000000731497602057906340_);}
	.st4{fill:url(#Path_28991_00000060728345099143767250000006181759633133586060_);}
	.st5{fill:#FEFEFE;}
</style>
<g>
	
		<linearGradient id="Path_28986_00000080196820180635181070000003915430606437598860_" gradientUnits="userSpaceOnUse" x1="-37.6959" y1="644.2598" x2="-37.6492" y2="633.0545" gradientTransform="matrix(26.666 0 0 -17.655 1262.0109 11381.4131)">
		<stop offset="0" style="stop-color:#56B14E"/>
		<stop offset="0.539" style="stop-color:#4A9E41"/>
		<stop offset="1" style="stop-color:#357C2A"/>
	</linearGradient>
	<path id="Path_28986" style="fill:url(#Path_28986_00000080196820180635181070000003915430606437598860_);" d="M260.8,0h-5.8   c-84.3,0-152.7,68.4-152.7,152.7c0,0,0,0,0,0v41c0,6.8,5.5,12.4,12.4,12.4c0,0,0,0,0,0h33c6.8,0,12.4-5.5,12.4-12.4c0,0,0,0,0,0   v-43.5c0-52.8,42.8-95.6,95.6-95.6h4.7c52.8,0,95.6,42.8,95.6,95.6v43.5c0,6.8,5.5,12.4,12.4,12.4c0,0,0,0,0,0h33   c6.8-0.1,12.3-5.6,12.3-12.4v-41C413.5,68.4,345.1,0,260.8,0L260.8,0z"/>
	
		<linearGradient id="Path_28987_00000052821315404787666290000015583019804057102773_" gradientUnits="userSpaceOnUse" x1="-39.7016" y1="630.4104" x2="-39.7016" y2="641.5923" gradientTransform="matrix(32.638 0 0 -28.251 1551.7816 18311.5254)">
		<stop offset="0" style="stop-color:#4A9E41"/>
		<stop offset="1" style="stop-color:#56B14E"/>
	</linearGradient>
	<path id="Path_28987" style="fill:url(#Path_28987_00000052821315404787666290000015583019804057102773_);" d="M103.6,489.6   c6,13.6,19.6,22.4,34.5,22.4h42.8c14.2,0,27.2-8,33.6-20.6h78.6c6.4,12.6,19.4,20.6,33.6,20.6h42.8c14.5,0,27.7-8.3,33.9-21.4   c24.8-4.2,43-25.6,43-50.8V244.1c0-8.9-2.3-17.7-6.8-25.5v-0.2c0-19.9-16.2-36.1-36.1-36.1h-69.3c-9.4,0-18.4,3.7-25.2,10.2h-106   c-6.7-6.6-15.7-10.2-25.1-10.2h-69.3c-19.8,0-35.9,16-36.1,35.8c-4.6,7.9-7.1,16.9-7.1,26v195.8C65.5,463.1,81.1,483.5,103.6,489.6   z"/>
	<path id="Path_28981" class="st2" d="M230.6,123c0-9.6-7.8-17.3-17.3-17.3c-9.6,0-17.3,7.8-17.3,17.3c0,9.6,7.8,17.3,17.3,17.3   C222.8,140.3,230.6,132.5,230.6,123C230.6,123,230.6,123,230.6,123 M298.8,105.6c-9.6,0-17.3,7.7-17.3,17.3s7.7,17.3,17.3,17.3   c9.6,0,17.3-7.7,17.3-17.3c0,0,0,0,0,0C316.1,113.4,308.3,105.7,298.8,105.6 M280.1,151.6c-13.7,12.3-34.5,12.3-48.2,0   c-1.9-1.6-4.7-1.4-6.3,0.5c-1.5,1.8-1.4,4.4,0.2,6.1c17,16,43.4,16,60.4,0c1.8-1.7,1.9-4.5,0.2-6.4   C284.8,150,281.9,149.9,280.1,151.6L280.1,151.6"/>
	<g id="Group_37088" transform="translate(11.298 20.612)">
		
			<linearGradient id="Path_28989_00000041293337072631049470000015287022498111551415_" gradientUnits="userSpaceOnUse" x1="-30.8996" y1="600.3253" x2="-31.1447" y2="608.2507" gradientTransform="matrix(10.0442 0 0 -16.638 557.08 10374.8242)">
			<stop offset="0" style="stop-color:#56B14E"/>
			<stop offset="0.3" style="stop-color:#4A9E41"/>
			<stop offset="0.355" style="stop-color:#45973C"/>
			<stop offset="0.523" style="stop-color:#3C8732"/>
			<stop offset="0.717" style="stop-color:#367E2B"/>
			<stop offset="1" style="stop-color:#357C2A"/>
		</linearGradient>
		<path id="Path_28989" style="fill:url(#Path_28989_00000041293337072631049470000015287022498111551415_);" d="M238.1,220.3    c-32.2,3.6-55.3,32.7-51.6,64.8c1.7,14.8,8.9,28.4,20.2,38l-9.5,64.6c-1.8,12.6,6.9,24.3,19.5,26.2c1.1,0.2,2.2,0.2,3.3,0.2h49.4    c12.8,0,23.1-10.3,23.1-23.1c0-1.1-0.1-2.2-0.2-3.4l-9.5-64.5c24.6-21,27.6-58,6.6-82.6c-11.1-13.1-27.4-20.6-44.6-20.6    C242.5,220,240.3,220.1,238.1,220.3"/>
		
			<linearGradient id="Path_28991_00000132789444845044131340000011598481224839523229_" gradientUnits="userSpaceOnUse" x1="-30.8996" y1="600.3253" x2="-31.1447" y2="608.2507" gradientTransform="matrix(10.0442 0 0 -16.638 557.08 10374.8242)">
			<stop offset="0" style="stop-color:#56B14E;stop-opacity:0.153"/>
			<stop offset="1" style="stop-color:#9BF893;stop-opacity:0.263"/>
		</linearGradient>
		<path id="Path_28991" style="fill:url(#Path_28991_00000132789444845044131340000011598481224839523229_);" d="M238.1,220.3    c-32.2,3.6-55.3,32.7-51.6,64.8c1.7,14.8,8.9,28.4,20.2,38l-9.5,64.6c-1.8,12.6,6.9,24.3,19.5,26.2c1.1,0.2,2.2,0.2,3.3,0.2h49.4    c12.8,0,23.1-10.3,23.1-23.1c0-1.1-0.1-2.2-0.2-3.4l-9.5-64.5c24.6-21,27.6-58,6.6-82.6c-11.1-13.1-27.4-20.6-44.6-20.6    C242.5,220,240.3,220.1,238.1,220.3"/>
		<path id="Path_28990" class="st5" d="M286.8,278.6c0-23.3-18.9-42.1-42.1-42.1c-23.3,0-42.1,18.9-42.1,42.1    c0,14,6.9,27.1,18.5,34.9c2.1,1.4,3.1,3.9,2.8,6.3l-10.4,70.3c-0.5,3.6,1.9,6.9,5.5,7.5c0.3,0,0.6,0.1,1,0.1h49.5    c3.6,0,6.6-3,6.6-6.6c0-0.3,0-0.6-0.1-0.9l-10.4-70.3c-0.4-2.5,0.7-5,2.8-6.4C280,305.6,286.9,292.5,286.8,278.6"/>
	</g>
</g>
</svg>