<svg xmlns="http://www.w3.org/2000/svg" width="234.265" height="252.252"><g transform="translate(-2.5 -2.125)"><linearGradient id="a" x1="31.526" x2="197.464" y1="211.011" y2="50.767" gradientUnits="userSpaceOnUse"><stop offset=".168" style="stop-color:#5219b3"/><stop offset=".813" style="stop-color:#3072bf"/></linearGradient><path fill="url(#a)" d="M233.21 158.034h-7.522c-38.087-1.299-74.943-8.889-110.774-21.676-27.899-9.983-54.293-22.907-77.473-41.711-7.658-6.154-14.565-13.06-20.856-20.65-1.299-1.641-1.436-2.393.615-3.487L139.873 3.839c6.633-3.556 12.787-1.504 16.684 5.47 19.283 35.352 38.497 70.772 57.78 106.124 7.043 12.992 14.154 25.984 21.197 38.976 1.916 3.556 1.916 3.556-2.324 3.625zM3.799 130.545a178707.34 178707.34 0 0 0 63.182 115.971c4.513 8.274 10.325 9.915 18.667 5.402 48.002-26.121 95.936-52.241 143.869-78.362.957-.479 2.051-.752 2.735-1.846-79.25-.137-156.313-11.215-229.752-43.763.547 1.026.889 1.846 1.299 2.598z" style="fill:url(#a)"/></g></svg>