<svg xmlns="http://www.w3.org/2000/svg" width="979" height="785" fill="none"><path fill="#6D4AFF" d="M0 22.554C0 3.486 22.212-6.946 36.874 5.236L424.677 327.46c37.5 31.159 91.869 31.159 129.369 0L941.85 5.236c14.661-12.182 36.873-1.75 36.873 17.318V683.7c0 55.946-45.33 101.3-101.247 101.3H101.247C45.33 785 0 739.646 0 683.7V22.554Z"/><path fill="url(#a)" fill-rule="evenodd" d="m621.492 271.42.054.044-195.302 172.607c-33.269 29.404-82.998 30.145-117.128 1.746L0 188.604V22.554C0 3.486 22.212-6.946 36.874 5.236L424.677 327.46c37.5 31.159 91.869 31.159 129.369 0l67.446-56.04Z" clip-rule="evenodd"/><path fill="url(#b)" fill-rule="evenodd" d="M770.604 147.526V785h106.872c55.917 0 101.247-45.358 101.247-101.301V22.555c0-19.068-22.213-29.502-36.874-17.318L770.604 147.526Z" clip-rule="evenodd"/><defs><linearGradient id="a" x1="738.261" x2="514.95" y1="384.02" y2="-568.829" gradientUnits="userSpaceOnUse"><stop stop-color="#E2DBFF"/><stop offset="1" stop-color="#6D4AFF"/></linearGradient><linearGradient id="b" x1="1276.84" x2="514.868" y1="1301.35" y2="-325.532" gradientUnits="userSpaceOnUse"><stop offset=".271" stop-color="#E2DBFF"/><stop offset="1" stop-color="#6D4AFF"/></linearGradient></defs></svg>