<?xml version="1.0" encoding="utf-8"?>
<!-- Generator: Adobe Illustrator 27.7.0, SVG Export Plug-In . SVG Version: 6.00 Build 0)  -->
<svg version="1.1" id="Layer_1" xmlns="http://www.w3.org/2000/svg" xmlns:xlink="http://www.w3.org/1999/xlink" x="0px" y="0px"
	 viewBox="0 0 512 512" style="enable-background:new 0 0 512 512;" xml:space="preserve">
<style type="text/css">
	.st0{fill-rule:evenodd;clip-rule:evenodd;fill:url(#SVGID_1_);}
	.st1{fill-rule:evenodd;clip-rule:evenodd;fill:#B8D7FF;}
	.st2{fill:#8F69FF;}
	.st3{fill-rule:evenodd;clip-rule:evenodd;fill:url(#SVGID_00000018958809708218258400000005932805555365536447_);}
</style>
<g>
	
		<radialGradient id="SVGID_1_" cx="-50.0343" cy="652.1229" r="0.5576" gradientTransform="matrix(1874.62 0 0 -1592.0601 94287.6797 1037914)" gradientUnits="userSpaceOnUse">
		<stop  offset="0.5563" style="stop-color:#6D4AFF"/>
		<stop  offset="0.9944" style="stop-color:#06B8FF"/>
	</radialGradient>
	<path class="st0" d="M361.9,108.6H0v305c0,29,23.7,52.5,53,52.5h270.7h-91.2v-24.5c0-12.5,4.5-24.6,12.6-34L338.3,299v0.1
		c-0.1,0.1-0.1,0.2-0.2,0.2c10.8-12.3,26.7-20,44.3-20h20.6V149.5C403.1,126.9,384.7,108.6,361.9,108.6z"/>
	<path class="st1" d="M338.4,299.1c-9.2,10.3-14.7,23.8-14.7,38.6l0,128.4h-91.2v-24.5c0-12.5,4.5-24.6,12.6-34L338.4,299.1
		L338.4,299.1z"/>
	<path class="st2" d="M375.2,399.4h18.6c0.8,3.2,2.6,6.1,5.3,8c2.6,2,5.9,3,9.3,2.8c8.4,0,14-4.6,14-11.3s-5.8-10.5-17.2-10.5h-7.4
		v-15.2h6.4c11.1,0,15.6-4.1,15.6-10.1c0-6.1-4.9-10.2-11.7-10.2c-3-0.2-6,0.8-8.3,2.8c-2.3,2-3.7,4.8-4,7.8h-18
		c0.6-10.6,9.1-25.8,30.2-25.8c17,0,28.7,9.6,28.7,23.1c0,4.3-1.3,8.6-3.9,12c-2.6,3.5-6.2,6.1-10.4,7.4v0.3
		c4.9,0.9,9.2,3.4,12.3,7.2c3.1,3.8,4.7,8.6,4.5,13.5c0,14.6-13.5,24.2-30.9,24.2C389.8,425.5,376.6,415,375.2,399.4z"/>
	<path class="st2" d="M471.8,339.1h13.6v85.1h-17.5v-65.3L451,370.2v-17.2L471.8,339.1z"/>
	
		<linearGradient id="SVGID_00000075866441165799631890000012216016573787856512_" gradientUnits="userSpaceOnUse" x1="428.1763" y1="177.4655" x2="111.5304" y2="617.8053" gradientTransform="matrix(1 0 0 -1 0 512)">
		<stop  offset="0" style="stop-color:#BFE8FF"/>
		<stop  offset="0.3075" style="stop-color:#BFABFF"/>
		<stop  offset="1" style="stop-color:#7341FF"/>
	</linearGradient>
	<path style="fill-rule:evenodd;clip-rule:evenodd;fill:url(#SVGID_00000075866441165799631890000012216016573787856512_);" d="
		M53,45.9H459c29.3,0,53,23.5,53,52.5v180.9H403.1V149.5c0-22.6-18.5-40.8-41.2-40.8H0V98.4C0,69.4,23.7,45.9,53,45.9z"/>
</g>
</svg>
