<svg xmlns="http://www.w3.org/2000/svg" xml:space="preserve" id="Layer_1" x="0" y="0" style="enable-background:new 0 0 949 785" version="1.1" viewBox="0 0 949 785"><style>.st2{fill-rule:evenodd;clip-rule:evenodd;fill:url(#SVGID_00000049928086156242330450000000658400609715644852_)}</style><path d="M0 686.9V98.1C0 43.9 43.9 0 98.1 0h184c18.6 0 36.7 5.9 51.6 16.9l61.6 45.2c15 11 33.1 16.9 51.6 16.9h403.4c54.2 0 98.1 43.9 98.1 98.1v509.7c0 54.2-43.9 98.1-98.1 98.1H98.1C43.9 785 0 741.1 0 686.9z" style="fill:#6851f6"/><radialGradient id="SVGID_1_" cx="169.056" cy="788.929" r="1" gradientTransform="matrix(-601.2473 1228.601 1911.4396 935.4119 -1405567.625 -946020.625)" gradientUnits="userSpaceOnUse"><stop offset=".556" style="stop-color:#ff62c0;stop-opacity:0"/><stop offset=".994" style="stop-color:#ff62c0"/></radialGradient><path d="M0 686.9V98.1C0 43.9 43.9 0 98.1 0h184c18.6 0 36.7 5.9 51.6 16.9l61.6 45.2c15 11 33.1 16.9 51.6 16.9h403.4c54.2 0 98.1 43.9 98.1 98.1v509.7c0 54.2-43.9 98.1-98.1 98.1H98.1C43.9 785 0 741.1 0 686.9z" style="fill:url(#SVGID_1_)"/><linearGradient id="SVGID_00000019652434788841659490000008021016220503567533_" x1="-12.632" x2="1173.045" y1="1195.555" y2="-107.328" gradientTransform="matrix(1 0 0 -1 0 786)" gradientUnits="userSpaceOnUse"><stop offset="0" style="stop-color:#6d4aff"/><stop offset=".359" style="stop-color:#ae8cff"/><stop offset="1" style="stop-color:#f8ccff"/></linearGradient><path d="M447 79h403.4c54.2 0 98.1 43.9 98.1 98.1v509.7c0 54.2-43.9 98.1-98.1 98.1H746.8V273c0-42.3-34.4-76.6-76.8-76.3l-371.5 2.1c-16 .1-31.6-4.8-44.7-14.1l-82.7-58.8c-12.9-9.2-28.4-14.1-44.2-14.1H0V98.1C0 43.9 43.9 0 98.1 0h184c18.6 0 36.7 5.9 51.6 16.9l61.6 45.2c15 11 33.1 16.9 51.7 16.9z" style="fill-rule:evenodd;clip-rule:evenodd;fill:url(#SVGID_00000019652434788841659490000008021016220503567533_)"/></svg>