<?xml version="1.0" encoding="utf-8"?>
<!-- Generator: Adobe Illustrator 27.7.0, SVG Export Plug-In . SVG Version: 6.00 Build 0)  -->
<svg version="1.1"
	 id="svg10" xmlns:svg="http://www.w3.org/2000/svg" xmlns:sodipodi="http://sodipodi.sourceforge.net/DTD/sodipodi-0.dtd" xmlns:inkscape="http://www.inkscape.org/namespaces/inkscape" xmlns:rdf="http://www.w3.org/1999/02/22-rdf-syntax-ns#" xmlns:cc="http://creativecommons.org/ns#" xmlns:dc="http://purl.org/dc/elements/1.1/" inkscape:export-xdpi="1.5" inkscape:export-ydpi="1.5"
	 xmlns="http://www.w3.org/2000/svg" xmlns:xlink="http://www.w3.org/1999/xlink" x="0px" y="0px" viewBox="0 0 512 512"
	 style="enable-background:new 0 0 512 512;" xml:space="preserve">
<style type="text/css">
	.st0{fill-rule:evenodd;clip-rule:evenodd;fill:#FFE6D5;}
	.st1{fill:#83331B;}
	.st2{fill:#F8A37B;}
	.st3{fill:#DA845D;}
	.st4{fill:#DEE6E3;}
	.st5{fill:#D4541E;}
	.st6{fill:#852E1B;}
	.st7{fill:#FFFFFF;}
	.st8{fill:#E2591E;}
	.st9{fill:#83BAD2;}
	.st10{fill:#BA4A1F;}
	.st11{fill:#6F2717;}
	.st12{fill:#E66733;}
	.st13{fill:#94401D;}
	.st14{fill:#EF5D22;}
	.st15{fill:#C74D1F;}
	.st16{fill:#F46A2F;}
	.st17{fill:#FDDD04;}
	.st18{fill:#391913;}
	.st19{fill:#A33F1E;}
	.st20{fill:#DE581D;}
	.st21{fill:#D5D0CD;}
	.st22{fill:#A6B9B5;}
	.st23{fill:#F6854F;}
	.st24{fill:#F06C34;}
	.st25{fill-rule:evenodd;clip-rule:evenodd;fill:#E66001;}
</style>
<sodipodi:namedview  bordercolor="#666666" borderopacity="1" fit-margin-bottom="0" fit-margin-left="0" fit-margin-right="0" fit-margin-top="0" gridtolerance="10" guidetolerance="10" id="namedview12" inkscape:current-layer="g18" inkscape:cx="341.56775" inkscape:cy="474.60369" inkscape:document-rotation="0" inkscape:pagecheckerboard="false" inkscape:pageopacity="0" inkscape:pageshadow="2" inkscape:window-height="997" inkscape:window-maximized="1" inkscape:window-width="1680" inkscape:window-x="0" inkscape:window-y="25" inkscape:zoom="0.60971844" objecttolerance="10" pagecolor="#ffffff" showgrid="false">
	</sodipodi:namedview>
<g id="g18" transform="matrix(1.3333333,0,0,-1.3333333,198.62766,515.8368)" inkscape:groupmode="layer" inkscape:label="ink_ext_XXXXXX">
	<g id="g2248" transform="matrix(4.0960001,0,0,4.0960001,425.09731,-1123.3485)">
		<circle id="path2188" class="st0" cx="-93.3" cy="321.8" r="45"/>
		<path id="path568" inkscape:connector-curvature="0" class="st1" d="M-124.1,313.6l8.1,9.5l60.7,0.2l-7.9-9.7L-124.1,313.6"/>
		<path id="path570" inkscape:connector-curvature="0" class="st2" d="M-124.1,313.6v-25.5c4.6-0.2,8.1-2,8.1-4.1h47.2
			c-0.4,0.5-0.6,1.1-0.6,1.7c0,2.2,2.7,4,6.2,4.2v23.7H-124.1z"/>
		<path id="path572" inkscape:connector-curvature="0" class="st3" d="M-89.2,309.3c1,0.5,2.5,2.1,1.6,3.7c-0.2,0.3-0.3,0.5-0.5,0.6
			h4.1c-0.5-1.2-2.4-2.6-2.4-2.6s-0.2-0.3-1-1C-88,309.7-88.7,309.4-89.2,309.3 M-101.3,309.4c-0.5,0.2-1.2,0.6-1.7,1.2
			c-0.9,0.9-1,2.1-1,2.1l-0.6,1h2.4c-0.2-0.1-0.3-0.3-0.5-0.6C-103.6,311.5-102.2,310-101.3,309.4 M-90.1,309.8
			c-0.5,0.1-1.5,0.2-2.5,0.5c-1.5,0.5-2.3,1.6-2.3,1.6s-1.6-1-3.8-1.4c-0.7-0.1-1.2-0.2-1.5-0.2c0,0,0,0,0,0c0,0.7-0.2,1.5-0.2,1.5
			s-0.4,1.3-1,1.7h2.6h10c-0.6-0.4-1-1.7-1-1.7S-90.1,310.7-90.1,309.8"/>
		<path id="path574" inkscape:connector-curvature="0" class="st4" d="M-100.5,311.9c0,0,0.5-2.4,0-2.7c-0.5-0.3-3.5,1.8-2.2,3.9
			C-101.5,315.1-100.5,311.9-100.5,311.9"/>
		<path id="path576" inkscape:connector-curvature="0" class="st4" d="M-89.9,311.9c0,0-0.5-2.4,0-2.7c0.5-0.3,3.5,1.8,2.2,3.9
			C-88.9,315.1-89.9,311.9-89.9,311.9"/>
		<path id="path578" inkscape:connector-curvature="0" class="st5" d="M-107.7,332.1c0.6-2.7-1.2-5.3-3.8-5.8
			c-2.7-0.6-5.3,1.2-5.8,3.8c-0.6,2.7,1.2,5.3,3.8,5.8C-110.9,336.5-108.3,334.8-107.7,332.1"/>
		<path id="path580" inkscape:connector-curvature="0" class="st6" d="M-109.6,335.1c-1.1,0.8-2.5,1.1-3.9,0.8
			c-2.7-0.6-4.4-3.2-3.8-5.8c0.1-0.6,0.3-1.1,0.6-1.6C-114.6,329.2-111.3,331-109.6,335.1"/>
		<path id="path582" inkscape:connector-curvature="0" class="st7" d="M-109.9,331.6c0.3-1.5-0.6-2.9-2.1-3.3
			c-1.5-0.3-2.9,0.6-3.3,2.1c-0.3,1.5,0.6,2.9,2.1,3.3C-111.6,334.1-110.2,333.1-109.9,331.6"/>
		<path id="path584" inkscape:connector-curvature="0" class="st8" d="M-76.1,333c-1.1,0-2.2,0.7-2.6,1.9c-0.5,1.4,0.3,3,1.7,3.4
			c0.8,0.3,4.6,1.8,3.5,5.4c-0.8,2.6-2.4,3-7,3.5c-0.9,0.1-1.7,0.2-2.6,0.3c-3.3,0.5-5.7,1.8-7.2,4c-2.2,3.2-1.3,6.9-1.2,7.3
			c0.4,1.5,1.9,2.3,3.3,2c1.5-0.4,2.3-1.9,2-3.3c0,0-0.4-1.7,0.5-2.9c0.6-0.9,1.7-1.4,3.4-1.6c0.8-0.1,1.6-0.2,2.4-0.3
			c4.3-0.5,9.7-1,11.7-7.2c2.1-6.6-3-10.9-7-12.2C-75.5,333-75.8,333-76.1,333"/>
		<path id="path588" inkscape:connector-curvature="0" class="st6" d="M-85.8,354.5l-0.1,0.1c-1.8-1.1-4.1-1.4-5.3-1.4
			c0.2-0.6,0.5-1.1,0.9-1.7c0.5-0.7,1.1-1.3,1.8-1.9c2.4,0.4,4.3,2.2,5.4,3.4C-84.4,353.3-85.3,353.8-85.8,354.5"/>
		<path id="path590" inkscape:connector-curvature="0" class="st6" d="M-80,347.1c2-0.2,3.3-0.4,4.3-0.8c0.7,1.1,1.6,3,2,5.1
			c-1.4,0.6-3,0.9-4.5,1.1C-78.1,351-78.2,348.7-80,347.1"/>
		<path id="path592" inkscape:connector-curvature="0" class="st6" d="M-68,340.3c0.3,1.2,0.3,2.6,0,4.1c-0.5-0.4-1.2-0.8-2.1-1.1
			c-1.5-0.4-2.5-0.4-3.2-0.3c0.3-1.5-0.3-2.6-1.1-3.3C-72,338.8-69.6,339.5-68,340.3"/>
		<path id="path594" inkscape:connector-curvature="0" class="st9" d="M-73.3,341.8C-73.3,341.8-73.3,341.8-73.3,341.8
			C-73.3,341.8-73.3,341.8-73.3,341.8L-73.3,341.8l0,0.2c0,0.1,0,0.3,0,0.4l0,0.1c0,0.2,0,0.3,0,0.5l0,0c0,0.2-0.1,0.5-0.2,0.7
			c0.1-0.2,0.1-0.3,0.1-0.5c0,0,0,0,0,0C-73.2,342.7-73.2,342.2-73.3,341.8 M-73.4,343.7C-73.4,343.7-73.4,343.7-73.4,343.7
			c-0.4,1.3-1.1,2.1-2.2,2.6l0,0C-74.5,345.8-73.9,345-73.4,343.7C-73.4,343.7-73.4,343.7-73.4,343.7 M-80,347.1
			c-0.2,0-0.4,0-0.5,0.1c-0.9,0.1-1.7,0.2-2.6,0.3c0,0,0,0-0.1,0c0,0,0,0,0.1,0c0.9-0.1,1.8-0.2,2.6-0.3
			C-80.3,347.1-80.1,347.1-80,347.1L-80,347.1 M-83.2,347.5C-83.2,347.5-83.2,347.5-83.2,347.5C-83.2,347.5-83.2,347.5-83.2,347.5
			 M-83.3,347.5C-83.3,347.5-83.3,347.5-83.3,347.5C-83.3,347.5-83.3,347.5-83.3,347.5"/>
		<path id="path596" inkscape:connector-curvature="0" class="st10" d="M-68.4,339.1c-0.3,0.2-0.6,0.4-0.9,0.7
			c0.5,0.2,0.9,0.4,1.3,0.6c0,0,0,0,0,0C-68.1,339.9-68.2,339.5-68.4,339.1 M-72.4,343.1c-0.4,0-0.7,0-0.9,0.1
			c0,0.2-0.1,0.3-0.1,0.5c0,0,0,0,0,0c0,0,0,0,0,0c-0.4,1.3-1.1,2.1-2.2,2.6c0.2,0.4,0.5,0.9,0.8,1.5c1.4-0.6,2.3-1.4,3-2.8
			c0.3-0.6,0.4-1.2,0.3-1.8C-71.8,343.1-72.1,343.1-72.4,343.1 M-80,347.1c-0.2,0-0.4,0-0.5,0.1c-0.9,0.1-1.7,0.2-2.6,0.3
			c0,0,0,0-0.1,0c0,0,0,0,0,0c0,0,0,0,0,0c0,0,0,0,0,0c0,0,0,0,0,0c-2.4,0.4-4.4,1.2-5.8,2.6c0.2-0.2,0.3-0.3,0.5-0.5
			c0.3,0,0.6,0.1,0.8,0.2c1.4-0.4,3.1-0.8,5.2-0.9c1.4-0.1,2.6-0.2,3.7-0.3C-79.1,348.1-79.4,347.6-80,347.1"/>
		<path id="path598" inkscape:connector-curvature="0" class="st11" d="M-88.6,349.6c-0.2,0.1-0.4,0.3-0.5,0.5
			c-0.2,0.1-0.3,0.3-0.4,0.4c0.5-0.2,1.1-0.5,1.8-0.7C-88,349.7-88.3,349.7-88.6,349.6"/>
		<path id="path600" inkscape:connector-curvature="0" class="st11" d="M-75.6,346.3c-1,0.4-2.4,0.6-4.3,0.8l0,0
			c0.5,0.5,0.9,1,1.2,1.5c1.6-0.2,2.9-0.4,4-0.8C-75.1,347.2-75.4,346.7-75.6,346.3L-75.6,346.3"/>
		<path id="path602" inkscape:connector-curvature="0" class="st11" d="M-69.3,339.8c-1.2,0.8-2.5,1.5-4,2c0.1,0.4,0.1,0.9,0,1.4
			c0,0,0,0,0,0c0.2,0,0.5-0.1,0.9-0.1c0.3,0,0.6,0,0.9,0.1c0-0.3-0.1-0.6-0.1-0.8c1.3-0.6,2.5-1.2,3.6-2
			C-68.4,340.1-68.9,339.9-69.3,339.8"/>
		<path id="path604" inkscape:connector-curvature="0" class="st12" d="M-69.1,344.9c0,0-2.2,3.1-5,4.6c0.1,0.4,0.2,0.7,0.3,1.1
			c0.5-0.2,0.9-0.5,1.2-0.8C-70.1,347.9-69.1,344.9-69.1,344.9 M-78.2,351.2c-1.6,0.6-2.8,0.9-2.8,0.9s1.2,0,2.8-0.3
			C-78.2,351.7-78.2,351.4-78.2,351.2"/>
		<path id="path606" inkscape:connector-curvature="0" class="st13" d="M-74.1,349.6c-0.2,0.1-0.5,0.2-0.7,0.4
			c-1.2,0.5-2.3,0.9-3.3,1.3c0,0.2,0,0.4,0,0.6c1.4-0.2,3-0.6,4.3-1.2C-73.9,350.3-74,349.9-74.1,349.6"/>
		<path id="path608" inkscape:connector-curvature="0" class="st14" d="M-98.9,336.2c0,0,7.2,8.5,21.9,6.5
			c14.7-2.1,20.1-21.2,20.1-21.2l-6.3-7.9h-35.7V336.2"/>
		<path id="path610" inkscape:connector-curvature="0" class="st6" d="M-96.6,338.3c1.6,0.4,4,0.8,7.9,0.5
			c9.3-0.6,21.3-15.5,21.3-15.5s-5.3,16.9-22.3,18.5C-92.8,340.8-95.1,339.4-96.6,338.3"/>
		<path id="path612" inkscape:connector-curvature="0" class="st15" d="M-67.6,316h-2.1c-0.6,1.6-3.5,9.2-8.1,13.2
			c-3.8,3.3-9.3,7.1-16.2,7.4c0.4,0,0.7,0,1,0c5,0,9.3-1.8,12.7-4.1c0,0.1,0,0.1,0,0.2c0.1,0.7,0.4,1.3,0.8,1.9
			c2.8-2,5.4-4.4,7.4-6.5c-0.5-0.5-1.1-0.8-1.7-1.1C-70.2,323-68,317.4-67.6,316 M-70.7,329.9c-1.4,2.2-3.4,4.6-5.9,6.6
			c0.1,0,0.1,0,0.2,0.1l0.1,0c0.1,0,0.3,0,0.4,0.1l0.1,0c0.1,0,0.3,0,0.4,0c0,0,0.1,0,0.1,0c0,0,0,0,0,0c0.1,0,0.2,0,0.4,0
			c0,0,0.1,0,0.1,0c0.2,0,0.3,0,0.5-0.1c2.7-0.6,4.4-3.2,3.8-5.8C-70.5,330.4-70.6,330.2-70.7,329.9L-70.7,329.9
			C-70.7,329.9-70.7,329.9-70.7,329.9"/>
		<path id="path614" inkscape:connector-curvature="0" class="st11" d="M-71.9,328.2c-2,2.1-4.6,4.5-7.4,6.5
			c0.3,0.4,0.7,0.8,1.1,1.1l0,0c0.1,0.1,0.3,0.2,0.4,0.3l0,0c0.1,0.1,0.3,0.2,0.4,0.2l0,0c0.1,0.1,0.3,0.1,0.4,0.2l0.1,0
			c0.1,0,0.1,0,0.2,0.1c2.6-2.1,4.5-4.5,5.9-6.6c-0.1-0.3-0.2-0.5-0.4-0.7v0C-71.3,328.8-71.6,328.5-71.9,328.2"/>
		<path id="path616" inkscape:connector-curvature="0" class="st5" d="M-82.2,332.8c-0.6-2.7,1.2-5.3,3.8-5.8
			c2.7-0.6,5.3,1.2,5.8,3.8c0.6,2.7-1.2,5.3-3.8,5.8C-79,337.1-81.7,335.4-82.2,332.8"/>
		<path id="path618" inkscape:connector-curvature="0" class="st6" d="M-80.3,335.7c1.1,0.8,2.5,1.1,3.9,0.8
			c2.7-0.6,4.4-3.2,3.8-5.8c-0.1-0.6-0.3-1.1-0.6-1.6C-75.4,329.9-78.7,331.6-80.3,335.7"/>
		<path id="path620" inkscape:connector-curvature="0" class="st7" d="M-80.1,332.3c-0.3-1.5,0.6-2.9,2.1-3.3
			c1.5-0.3,2.9,0.6,3.3,2.1c0.3,1.5-0.6,2.9-2.1,3.3C-78.3,334.7-79.8,333.8-80.1,332.3"/>
		<path id="path622" inkscape:connector-curvature="0" class="st16" d="M-117.9,313.6l-2.4,2.5c0,0,7.7,15.7,18.4,19.4
			c10.6,3.6,19-1.8,24.2-6.3c5.2-4.5,8.2-13.5,8.2-13.5l-1.9-2.1L-117.9,313.6"/>
		<path id="path624" inkscape:connector-curvature="0" class="st6" d="M-105.6,329.1c0,0,8.7,6.9,10.4,6.9c1.7,0,10-6,10-6l-1.4-1.7
			c0,0-7.3,5.9-8.7,5.9s-8.2-5.9-8.2-5.9L-105.6,329.1"/>
		<path id="path626" inkscape:connector-curvature="0" class="st6" d="M-101.3,326.5c0,0,5,4.2,6.4,4.2s6.2-3.7,6.2-3.7l-1.3-2.5
			c0,0-3.8,4.1-4.9,4.1s-5.4-3.8-5.4-3.8L-101.3,326.5"/>
		<path id="path628" inkscape:connector-curvature="0" class="st7" d="M-120.3,316.1l6.7,2.3c0,0-2.2,7,4.1,10.4
			c6.3,3.4,9.1-0.1,9.9-2.1c0.9-2,0.9-7.3,0.9-7.3h7.5c0,0-0.1,7.9,3.1,10.1c3.2,2.2,8,2.5,9.9-1.6c1.9-4.2,0-7.8,0-7.8l8.6-4.3
			l-1.9-2.1h-46.4L-120.3,316.1"/>
		<path id="path630" inkscape:connector-curvature="0" class="st17" d="M-100.5,323.3c0-1.6-1.3-3-3-3c-1.6,0-3,1.3-3,3
			c0,1.6,1.3,3,3,3C-101.8,326.3-100.5,325-100.5,323.3"/>
		<path id="path632" inkscape:connector-curvature="0" class="st18" d="M-101.3,323.3c0-1.2-1-2.1-2.1-2.1c-1.2,0-2.1,1-2.1,2.1
			s1,2.1,2.1,2.1C-102.3,325.4-101.3,324.5-101.3,323.3"/>
		<path id="path634" inkscape:connector-curvature="0" class="st7" d="M-103.9,324.6c0-0.5-0.4-0.9-0.9-0.9c-0.5,0-0.9,0.4-0.9,0.9
			c0,0.5,0.4,0.9,0.9,0.9C-104.3,325.5-103.9,325.1-103.9,324.6"/>
		<path id="path636" inkscape:connector-curvature="0" class="st17" d="M-83.6,323.3c0-1.6-1.3-3-3-3c-1.6,0-3,1.3-3,3
			c0,1.6,1.3,3,3,3C-84.9,326.3-83.6,325-83.6,323.3"/>
		<path id="path638" inkscape:connector-curvature="0" class="st18" d="M-84.4,323.3c0-1.2-1-2.1-2.1-2.1c-1.2,0-2.1,1-2.1,2.1
			s0.9,2.1,2.1,2.1C-85.4,325.4-84.4,324.5-84.4,323.3"/>
		<path id="path640" inkscape:connector-curvature="0" class="st7" d="M-87,324.6c0-0.5-0.4-0.9-0.9-0.9c-0.5,0-0.9,0.4-0.9,0.9
			c0,0.5,0.4,0.9,0.9,0.9C-87.4,325.5-87,325.1-87,324.6"/>
		<path id="path642" inkscape:connector-curvature="0" class="st15" d="M-63.2,313.6h-6.2l1.9,2.1c0,0,0,0.1-0.1,0.3h4.4l5.8,7.1
			c0.4-1,0.5-1.6,0.5-1.6l0,0l0,0L-63.2,313.6"/>
		<path id="path644" inkscape:connector-curvature="0" class="st19" d="M-69.4,313.6h-2.1l1.9,2.1c0,0,0,0.1-0.1,0.3h2.1
			c0.1-0.2,0.1-0.3,0.1-0.3L-69.4,313.6"/>
		<path id="path646" inkscape:connector-curvature="0" class="st20" d="M-69.5,315.7l-0.6,0.3h0.5
			C-69.6,315.8-69.5,315.7-69.5,315.7L-69.5,315.7"/>
		<path id="path648" inkscape:connector-curvature="0" class="st21" d="M-71.5,313.6h-46.4l-2.4,2.4h50.1l0.6-0.3L-71.5,313.6"/>
		<path id="path650" inkscape:connector-curvature="0" class="st7" d="M-99.6,320.1c0,0-2.8-0.7-3.9-3.4c-1-2.7,0.4-4.7,2.7-5.2
			c2.4-0.5,5.8,1.2,5.8,1.2s2.8-2.7,6.2-2c3.4,0.7,4.5,4.5,2.8,6.9c-1.6,2.3-5.6,2.6-5.6,2.6S-97.7,318.4-99.6,320.1"/>
		<path id="path652" inkscape:connector-curvature="0" class="st22" d="M-94.9,312.7c0,0,0.1-0.1,0.4-0.3v4.3c0,0.2-0.2,0.3-0.3,0.3
			c-0.2,0-0.3-0.2-0.3-0.3v-4.1C-95,312.6-94.9,312.7-94.9,312.7"/>
		<path id="path654" inkscape:connector-curvature="0" class="st6" d="M-91.2,317.1c0,0,2.2,2.6,0.8,3.7c-1.4,1.1-2.8-0.8-4.6-0.6
			c-1.8,0.2-3.7,1.5-4.4,0.3c-0.8-1.3,1.2-2.8,1.2-2.8s0.5,1.3,1.6,0.7c1.1-0.6,0.2-2,0.2-2s0.8-0.6,1.5-0.7
			c0.7-0.1,1.8,0.8,1.8,0.8s-0.6,1.5,0.6,2.1C-91.4,319.2-91.2,317.1-91.2,317.1"/>
		<path id="path656" inkscape:connector-curvature="0" class="st6" d="M-113,325.1c0,0-1.7-2.2-1.5-5.4c0.1-3.2,4.8-6.1,4.8-6.1
			l-1.8,2.8c-0.5,0.7-0.3,1.6,0.4,2.2l2.8,2.3c0,0-3.8-1.2-4.5-0.3C-113.5,321.5-113,325.1-113,325.1"/>
		<path id="path658" inkscape:connector-curvature="0" class="st6" d="M-77.8,327c0,0-0.3-2.8-1-4.2c-0.7-1.4-3.1-0.8-3.1-0.8
			s2.7-1.4,2.7-2.2c0-0.9-1.8-3.6-1.8-3.6S-75.1,319.9-77.8,327"/>
		<path id="path660" inkscape:connector-curvature="0" class="st6" d="M-113.1,313.6c0,0-1.2,0.9-1.9,2.1c-0.8,1.2-1,2-1,2
			s-0.1-1.6,0.4-2.7c0.5-1.1,0.8-1.4,0.8-1.4H-113.1"/>
		<path id="path662" inkscape:connector-curvature="0" class="st6" d="M-76.9,313.6c0,0,1.1,0.9,2.1,2.6c1,1.7,1.3,3.9,1.3,3.9
			s0.5-3.2,0.2-4.5c-0.3-1.4-0.8-1.9-0.8-1.9H-76.9"/>
		<path id="path664" inkscape:connector-curvature="0" class="st6" d="M-72.5,341.4c-1.4,0.6-2.9,1-4.5,1.3
			c-1.4,0.2-2.6,0.3-3.9,0.3c2.4-0.6,7.4-2.1,11.4-5.8c5.5-5,7.6-9.6,7.6-9.6S-65.2,336.7-72.5,341.4"/>
		<path id="path666" inkscape:connector-curvature="0" class="st6" d="M-69.1,335.3c0,0,3.6-2.8,5.7-8.3c2.1-5.5,2.1-6.9,2.1-6.9
			l-9,11.3l6-5.5C-64.4,325.9-64.6,329.1-69.1,335.3"/>
		<path id="path668" inkscape:connector-curvature="0" class="st23" d="M-55.3,323.3l-7.9-9.7v-22.5c0.6,0.8,1.3,1.2,2,1.2
			c0.7,0,1.4-0.4,1.9-1.1l3.9,7.1V323.3z"/>
		<path id="path670" inkscape:connector-curvature="0" class="st6" d="M-71.7,304.6h3.5v3h1.6l-3.4,3.8l-3.4-3.8h1.6V304.6"/>
		<path id="path672" inkscape:connector-curvature="0" class="st6" d="M-70,303.7h-3.4v-1.2h6.7v1.2H-70L-70,303.7"/>
		<path id="path674" inkscape:connector-curvature="0" class="st24" d="M-72.2,339.4c-1.7,0.6-4,1.2-6.5,1.3c-0.3,0-0.7,0-1,0
			c-1.4,0-2.8-0.1-4.1-0.1c-0.7,0.2-1.4,0.4-2.1,0.6c1.6,0.4,3.6,0.7,5.8,0.7c0.6,0,1.2,0,1.8-0.1c0.8-0.1,1.6-0.2,2.3-0.3
			C-74.9,340.9-73.5,340.2-72.2,339.4"/>
		<path id="path676" inkscape:connector-curvature="0" class="st13" d="M-90,339.9c0,0,1.6,0.7,4,1.3c0.7-0.2,1.4-0.4,2.1-0.6
			C-87.2,340.3-90,339.9-90,339.9"/>
		<path id="path678" inkscape:connector-curvature="0" class="st13" d="M-69.5,338.2c0,0-1,0.6-2.7,1.2c-1.3,0.9-2.6,1.5-3.9,2.1
			C-71.5,340.5-69.5,338.2-69.5,338.2"/>
		<path id="path1131" inkscape:connector-curvature="0" class="st25" d="M-93.3,368.7c-25.9,0-46.9-21-46.9-46.9l0,0
			c0-25.9,21-46.9,46.9-46.9s46.9,21,46.9,46.9C-46.4,347.7-67.4,368.7-93.3,368.7L-93.3,368.7z M-93.3,359.3
			c20.7,0,37.5-16.8,37.5-37.5c0-20.7-16.8-37.5-37.5-37.5s-37.5,16.8-37.5,37.5C-130.8,342.5-114,359.3-93.3,359.3z"/>
		<path id="path586" inkscape:connector-curvature="0" class="st7" d="M-85.8,354.5c-0.8,1.2-0.5,2.9-0.5,2.9c0.4,1.5-0.5,2.9-2,3.3
			c-1.5,0.4-2.9-0.5-3.3-2c-0.1-0.4-0.9-3.8,1-6.9c1.5,0.3,3.6,0.9,5.1,2.3C-85.5,354.3-85.7,354.4-85.8,354.5"/>
	</g>
</g>
</svg>
