<svg xmlns="http://www.w3.org/2000/svg" viewBox="0 0 48 48"><g transform="matrix(.256 0 0 -.256 35.887 94.397)"><circle cx="-46.403" cy="-274.96" r="90" fill="#ffe6d5" fill-rule="evenodd" transform="scale(1 -1)"/><path fill="#83331b" d="m-108.1 258.51 16.177 19.001 121.48.403L13.79 258.51H-108.1"/><path fill="#f8a37b" d="M-108.097 258.507v-51.063a18.027 8.163 0 0 0 16.264-8.114H2.495a13.606 8.503 0 0 0-1.131 3.392 13.606 8.503 0 0 0 12.43 8.47v47.316z"/><path fill="#da845d" d="M-38.324 249.9c1.962 1.06 4.991 4.244 3.122 7.428-.346.589-.684.968-1.008 1.183h8.145c-1.06-2.333-4.89-5.155-4.89-5.155s-.313-.606-2.011-1.941c-.961-.754-2.341-1.237-3.358-1.515m-24.041.131c-1.001.465-2.455 1.262-3.478 2.348-1.708 1.813-2.052 4.191-2.052 4.191l-1.208 1.941h4.853c-.324-.215-.661-.594-1.007-1.183-1.797-3.062.935-6.124 2.892-7.297m22.287.961c-1.065.104-3.04.372-5.015 1.03-2.911.97-4.609 3.153-4.609 3.153s-3.275-2.001-7.641-2.796c-1.458-.265-2.408-.354-3.028-.354h-.029c-.087 1.464-.387 3.029-.387 3.029s-.827 2.653-2.068 3.457h25.251c-1.241-.804-2.069-3.457-2.069-3.457s-.464-2.425-.405-4.062"/><path fill="#dee6e3" d="M-60.787 255.05s.923-4.821 0-5.458c-.922-.637-6.926 3.548-4.47 7.732s4.47-2.274 4.47-2.274M-39.673 255.05s-.922-4.821 0-5.458c.923-.637 6.927 3.548 4.471 7.732s-4.471-2.274-4.471-2.274"/><path fill="#d4541e" d="M-75.274 295.46c1.117-5.335-2.302-10.566-7.637-11.683s-10.565 2.302-11.682 7.637 2.302 10.566 7.637 11.683 10.565-2.302 11.682-7.637"/><path fill="#852e1b" d="M-79.137 301.41a9.83 9.83 0 0 1-7.819 1.686c-5.335-1.117-8.754-6.348-7.637-11.683a9.818 9.818 0 0 1 1.282-3.177c4.349 1.479 10.933 5.007 14.174 13.174"/><path fill="#fff" d="M-79.556 294.56a5.495 5.495 0 1 0-10.756-2.25 5.495 5.495 0 0 0 10.756 2.25"/><path fill="#e2591e" d="M-11.971 297.29a5.461 5.461 0 0 0-1.736 10.639c1.578.545 9.258 3.6 6.96 10.765-1.66 5.18-4.8 5.934-14.08 6.919-1.702.18-3.461.368-5.289.629-6.567.938-11.396 3.654-14.351 8.072-4.312 6.445-2.622 13.751-2.415 14.562a5.46 5.46 0 1 0 10.582-2.697c.002 0-.74-3.391.946-5.845 1.168-1.701 3.45-2.804 6.783-3.281 1.632-.233 3.292-.409 4.897-.58 8.623-.915 19.355-2.056 23.327-14.443 4.228-13.187-6.004-21.855-13.912-24.464a5.468 5.468 0 0 0-1.712-.276"/><g fill="#852e1b"><path d="m-31.354 340.34-.162.262c-3.6-2.3-8.146-2.791-10.691-2.868a16.51 16.51 0 0 1 1.74-3.414c.966-1.445 2.153-2.688 3.516-3.766 4.784.793 8.636 4.38 10.757 6.815-2.455.573-4.194 1.564-5.16 2.971M-19.759 325.5c3.913-.433 6.655-.862 8.622-1.688 1.349 2.24 3.232 5.957 3.93 10.147-2.897 1.167-6.016 1.739-9.03 2.126.263-2.716.078-7.398-3.522-10.585M4.156 311.99c.613 2.488.673 5.256-.025 8.278a11.04 11.04 0 0 0-4.202-2.11c-2.954-.768-5.066-.721-6.408-.509.581-2.947-.577-5.128-2.15-6.674 4.852-2.119 9.593-.653 12.785 1.015"/></g><path fill="#83bad2" d="m-6.447 314.86-.009.004c.012.064.024.128.034.193l.001.002.028.238c.031.251.052.506.056.77l.001.16a7.664 7.664 0 0 1-.08 1.047v-.001c-.066.45-.167.916-.322 1.404.111-.352.2-.693.265-1.025l-.006.001c.201-1.021.194-1.95.032-2.793m-.292 3.82-.008.022c-.856 2.671-2.105 4.165-4.386 5.121 2.281-.956 3.53-2.45 4.386-5.121l.008-.022m-13.018 6.825c-.347.039-.704.077-1.07.116-1.702.18-3.46.368-5.29.629l-.146.022.147-.022c1.828-.261 3.587-.449 5.29-.629.365-.039.722-.077 1.07-.116m-6.54.772-.024.003.023-.003m-.075.011h-.003.003"/><path fill="#ba4a1f" d="M3.323 309.51c-.608.453-1.229.89-1.865 1.311.962.334 1.851.733 2.646 1.146l.037-.026a16.41 16.41 0 0 0-.818-2.431m-7.988 8.008c-.71 0-1.312.056-1.808.134a9.692 9.692 0 0 1-.265 1.025v.003c-.004.007-.006.015-.009.022-.856 2.671-2.105 4.165-4.386 5.121.494.82 1.06 1.839 1.612 3.006 2.75-1.108 4.625-2.821 6.016-5.603.566-1.131.757-2.351.695-3.592a15.624 15.624 0 0 0-1.855-.116m-15.092 7.987c-.347.039-.704.077-1.07.116-1.702.18-3.46.368-5.289.629l-.147.022a.398.398 0 0 0-.034.005l-.023.003-.052.008h-.003c-4.878.737-8.769 2.481-11.64 5.178.341-.316.696-.619 1.064-.91.568.094 1.123.228 1.664.394 2.752-.893 6.221-1.645 10.437-1.887 2.795-.16 5.246-.326 7.403-.556a10.023 10.023 0 0 0-2.31-3.002"/><g fill="#6f2717"><path d="M-36.951 330.55c-.368.291-.723.594-1.064.91-.306.287-.6.585-.883.893a32.585 32.585 0 0 1 3.611-1.409c-.541-.166-1.096-.3-1.664-.394M-11.133 323.82c-1.97.825-4.707 1.249-8.624 1.682a10.023 10.023 0 0 1 2.31 3.002c3.255-.346 5.842-.838 7.926-1.678a34.463 34.463 0 0 0-1.612-3.006M1.458 310.82a38.286 38.286 0 0 1-7.905 4.039c.162.843.17 1.772-.032 2.793l.006-.001a11.636 11.636 0 0 1 1.808-.134c.552 0 1.17.034 1.855.116a10.66 10.66 0 0 0-.219-1.652 39.164 39.164 0 0 0 7.133-4.015 19.965 19.965 0 0 0-2.646-1.146"/></g><path fill="#e66733" d="M1.956 321.14s-4.428 6.195-10.044 9.266c.233.715.442 1.456.617 2.217.927-.436 1.771-.935 2.477-1.507 4.964-4.019 6.95-9.976 6.95-9.976m-18.127 12.572c-3.248 1.173-5.535 1.865-5.535 1.865s2.427-.091 5.54-.568a16.57 16.57 0 0 0-.005-1.297"/><path fill="#94401d" d="M-8.088 330.41c-.478.261-.964.5-1.456.71a126.006 126.006 0 0 1-6.627 2.596c.02.453.02.888.005 1.297 2.763-.423 6.066-1.15 8.695-2.386a25.89 25.89 0 0 0-.617-2.217"/><path fill="#ef5d22" d="M-57.687 303.78s14.474 17.064 43.825 12.94 40.267-42.45 40.267-42.45l-12.614-15.767h-71.478v45.277"/><path fill="#852e1b" d="M-53.065 307.89c3.118.854 8.074 1.536 15.715 1.011 18.532-1.273 42.591-30.99 42.591-30.99s-10.668 33.893-44.619 36.942c-6.085-1.951-10.642-4.693-13.687-6.963"/><path fill="#c74d1f" d="M5.028 263.3H.844c-1.15 3.215-6.923 18.376-16.16 26.318-7.614 6.544-18.655 14.166-32.41 14.879a40.95 40.95 0 0 0 2.091.054c9.92 0 18.501-3.657 25.49-8.144.021.129.034.258.061.388a9.768 9.768 0 0 0 1.665 3.758c5.534-3.983 10.713-8.764 14.808-12.906a9.888 9.888 0 0 0-3.497-2.159c6.883-8.215 11.163-19.471 12.136-22.188m-6.338 27.706c-2.837 4.334-6.709 9.107-11.819 13.25.15.042.3.08.451.116l.167.041c.26.056.521.099.786.134l.227.033c.25.027.501.04.754.048.091.003.181.012.273.012h.023c.245 0 .492-.016.74-.034.09-.006.18-.006.271-.015a9.817 9.817 0 0 0 1.035-.159c5.335-1.117 8.754-6.347 7.637-11.682a9.844 9.844 0 0 0-.492-1.606l-.034-.091a.924.924 0 0 0-.019-.047"/><path fill="#6f2717" d="M-3.61 287.65c-4.096 4.142-9.275 8.923-14.809 12.906a9.94 9.94 0 0 0 3.033 2.738l.017.01c.278.161.564.309.857.443l.053.025c.278.125.562.236.852.335l.105.038c.124.04.248.078.373.114 5.11-4.143 8.982-8.916 11.82-13.25a9.777 9.777 0 0 0-.738-1.433v-.001a9.854 9.854 0 0 0-1.564-1.925"/><path fill="#d4541e" d="M-24.269 296.79c-1.117-5.335 2.303-10.565 7.637-11.682 5.335-1.117 10.566 2.302 11.683 7.637s-2.302 10.565-7.637 11.682-10.565-2.302-11.683-7.637"/><path fill="#852e1b" d="M-20.406 302.74a9.832 9.832 0 0 0 7.82 1.686c5.335-1.117 8.754-6.347 7.637-11.682a9.837 9.837 0 0 0-1.282-3.178c-4.35 1.48-10.934 5.007-14.175 13.174"/><path fill="#fff" d="M-19.986 295.9a5.494 5.494 0 1 1 10.756-2.25 5.494 5.494 0 0 1-10.756 2.25"/><path fill="#f46a2f" d="m-95.609 258.51-4.852 4.94s15.465 31.449 36.75 38.724c21.286 7.276 38.024-3.64 48.394-12.554 10.37-8.915 16.373-26.926 16.373-26.926l-3.82-4.184h-92.845"/><path fill="#852e1b" d="M-71.124 289.57s17.435 13.737 20.853 13.737c3.419 0 20.078-12.054 20.078-12.054l-2.762-3.317s-14.548 11.807-17.316 11.807-16.459-11.807-16.459-11.807l-4.394 1.634"/><path fill="#852e1b" d="M-62.485 284.29s10.016 8.491 12.885 8.491 12.401-7.399 12.401-7.399l-2.597-5.067s-7.579 8.22-9.804 8.22-10.777-7.641-10.777-7.641l-2.108 3.396"/><path fill="#fff" d="m-100.46 263.45 13.49 4.52s-4.302 14.009 8.251 20.74 18.102-.182 19.83-4.184c1.729-4.003 1.729-14.555 1.729-14.555h14.954s-.157 15.707 6.271 20.194c6.428 4.488 16.095 5.094 19.873-3.274 3.778-8.369 0-15.646 0-15.646l17.119-8.551-3.82-4.184h-92.845l-4.852 4.94"/><path fill="#fddd04" d="M-60.787 277.91a5.943 5.943 0 1 0-11.885 0 5.943 5.943 0 0 0 11.885 0"/><path fill="#391913" d="M-62.485 277.91a4.246 4.246 0 1 0-8.491.001 4.246 4.246 0 0 0 8.491-.001"/><path fill="#fff" d="M-67.622 280.55a1.751 1.751 0 1 0-3.502 0 1.751 1.751 0 0 0 3.502 0"/><path fill="#fddd04" d="M-27.012 277.91a5.943 5.943 0 1 0-11.887 0 5.943 5.943 0 0 0 11.887 0"/><path fill="#391913" d="M-28.71 277.91a4.246 4.246 0 1 0-8.491.001 4.246 4.246 0 0 0 8.491-.001"/><path fill="#fff" d="M-33.847 280.55a1.751 1.751 0 1 0-3.503 0 1.751 1.751 0 0 0 3.503 0"/><path fill="#c74d1f" d="M13.791 258.51H1.42l3.821 4.184s-.072.214-.213.608h8.763l11.536 14.197c.723-1.989 1.073-3.206 1.078-3.222L13.791 258.51"/><path fill="#a33f1e" d="M1.42 258.51h-4.184l3.82 4.184s-.07.214-.212.608h4.184c.141-.394.213-.608.213-.608l-3.82-4.184"/><path fill="#de581d" d="m1.056 262.69-1.217.608H.844c.141-.394.212-.608.212-.608"/><path fill="#d5d0cd" d="M-2.764 258.51h-92.845l-4.706 4.792H-.165l1.217-.608-3.82-4.184"/><path fill="#fff" d="M-58.975 271.48s-5.68-1.462-7.755-6.855c-2.075-5.394.745-9.305 5.475-10.397 4.731-1.091 11.553 2.456 11.553 2.456s5.602-5.458 12.352-4.093c6.75 1.364 8.934 9.096 5.659 13.736-3.275 4.639-11.28 5.153-11.28 5.153s-12.179-3.488-16.004 0"/><path fill="#a6b9b5" d="M-49.702 256.69s.282-.27.773-.664v8.605a.672.672 0 0 1-1.342 0v-8.217c.356.167.569.276.569.276"/><g fill="#852e1b"><path d="M-42.306 265.56s4.394 5.176 1.554 7.403c-2.841 2.228-5.535-1.611-9.101-1.267s-7.301 3.095-8.825.572c-1.523-2.522 2.303-5.562 2.303-5.562s.908 2.659 3.196 1.379c2.289-1.28.361-3.99.361-3.99s1.685-1.104 3.059-1.331c1.374-.228 3.509 1.549 3.509 1.549s-1.109 3.074 1.246 4.262c2.356 1.189 2.698-3.015 2.698-3.015M-85.905 281.53s-3.367-4.374-3.094-10.832c.273-6.459 9.56-12.189 9.56-12.189l-3.656 5.688a3.291 3.291 0 0 0 .717 4.353l5.659 4.513s-7.641-2.456-8.914-.637c-1.274 1.82-.272 9.104-.272 9.104M-15.458 285.38s-.525-5.679-1.92-8.498c-1.396-2.82-6.217-1.547-6.217-1.547s5.367-2.729 5.367-4.457c0-1.729-3.639-7.186-3.639-7.186s11.817 7.446 6.409 21.688M-86.027 258.51s-2.365 1.758-3.882 4.245c-1.516 2.486-2.001 4.002-2.001 4.002s-.182-3.275.728-5.458 1.637-2.789 1.637-2.789h3.518M-13.741 258.51s2.209 1.81 4.124 5.185c1.915 3.374 2.608 7.791 2.608 7.791s.909-6.366.303-9.095c-.607-2.729-1.577-3.881-1.577-3.881h-5.458M-4.788 314.17c-2.809 1.198-5.822 2.093-9.074 2.55a65.16 65.16 0 0 1-7.739.628c4.835-1.15 14.841-4.264 22.793-11.581 10.901-10.029 15.146-19.22 15.146-19.22S9.781 304.645-4.788 314.17"/><path d="M1.956 301.95s7.105-5.586 11.35-16.571 4.124-13.897 4.124-13.897L-.642 294.164l12.008-11.037s-.486 6.443-9.41 18.823"/></g><path fill="#f6854f" d="m29.559 277.91-15.767-19.403v-44.945a6.973 12.926 0 0 0 4.065 2.423 6.973 12.926 0 0 0 3.898-2.207l7.804 14.163z"/><path fill="#852e1b" d="M-3.31 240.43h7.034v5.97h3.188l-6.705 7.626-6.705-7.626h3.188v-5.97M.207 238.62h-6.705v-2.309h13.41v2.309H.207"/><path fill="#f06c34" d="M-4.287 310.02c-3.32 1.214-7.933 2.459-13.09 2.58-.666.016-1.34.023-2.016.023-2.736 0-5.535-.12-8.147-.292a47.617 47.617 0 0 1-4.25 1.261c3.254.749 7.275 1.374 11.627 1.374 1.151 0 2.323-.044 3.511-.14a37.464 37.464 0 0 0 4.61-.658c2.49-1.076 5.144-2.437 7.755-4.148"/><path fill="#94401d" d="M-39.796 311.08s3.151 1.392 8.006 2.508a47.617 47.617 0 0 0 4.25-1.261c-6.75-.447-12.256-1.247-12.256-1.247M1.056 307.63s-2.028 1.18-5.343 2.392c-2.61 1.711-5.266 3.072-7.755 4.148 9.116-1.899 13.098-6.54 13.098-6.54"/><path fill="#e66001" fill-rule="evenodd" d="M-46.403 368.71a93.75 93.75 0 0 1-93.75-93.75 93.75 93.75 0 0 1 93.75-93.75 93.75 93.75 0 0 1 93.75 93.75 93.75 93.75 0 0 1-93.75 93.75zm0-18.75a75 75 0 0 0 75-75 75 75 0 0 0-75-75 75 75 0 0 0-75 75 75 75 0 0 0 75 75z"/><path fill="#fff" d="M-31.354 340.34c-1.686 2.454-.944 5.845-.946 5.845a5.46 5.46 0 1 1-10.582 2.697c-.2-.781-1.757-7.578 1.972-13.834 2.907.545 7.163 1.779 10.204 4.534-.24.239-.463.488-.648.758"/></g></svg>