<svg xmlns="http://www.w3.org/2000/svg" viewBox="0 0 590.8 512">
  <path fill="#e57000" d="M441.24,256.01l149.56,164.35c-16.43,16.99-39.44,27.39-64.65,27.39-26.84,0-50.39-11.5-66.83-29.59l-82.72-90.94-64.64-71.22,64.64-70.68,82.72-90.94c16.43-18.07,39.99-29.59,66.83-29.59,25.2,0,48.21,10.41,64.65,26.84l-149.56,164.35h0Z"/>
  <path fill="#e57000" d="M149.56,256.01L0,420.36c16.43,16.99,39.44,27.39,64.65,27.39,26.84,0,50.39-11.5,66.83-29.59l82.72-90.94,64.64-71.22-64.64-70.68-82.72-90.94c-16.43-18.07-39.99-29.59-66.83-29.59-25.2,0-48.21,10.41-64.65,26.84l149.56,164.35h0Z"/>
  <path fill="#000" d="M354.33,337.49l-59-65.01-59.01,65.01-136.51,150.01c15,15,36,24.5,59,24.5,24.51,0,45.01-10,60.51-27l76.01-83,75.5,83c15,16.5,36.5,27,61,27,23.01,0,44.01-9.5,59.01-24.5l-136.51-150.01Z"/>
  <path fill="#000" d="M354.33,174.52l-59,65.01-59.01-65.01L99.81,24.5C114.81,9.5,135.81,0,158.81,0c24.51,0,45.01,10,60.51,27l76.01,83,75.5-83c15-16.5,36.5-27,61-27,23.01,0,44.01,9.5,59.01,24.5l-136.51,150.01h0Z"/>
</svg>