<svg version="1.2" xmlns="http://www.w3.org/2000/svg" viewBox="0 0 839 512" width="839" height="512">
	<title>Nový projekt</title>
	<style>
		.s0 { fill: #000000 } 
	</style>
	<g id="Layer 1">
		<path id="&lt;Compound Path&gt;" fill-rule="evenodd" class="s0" d="m41.2 117h40.7q16.5 0 28.1-4.8 11.5-4.8 18.8-12.7 7.3-7.9 10.6-18.1 3.3-10.2 3.3-20.8 0-10.9-3.3-21-3.3-10-10.6-17.9-7.3-7.9-18.8-12.7-11.6-4.8-28.1-4.8h-79.3v175.8h38.6zm0-82.7h30.1q6.6 0 12.8 1 6.2 0.9 10.8 3.8 4.7 2.8 7.5 8 2.9 5.2 2.9 13.5 0 8.4-2.9 13.6-2.8 5.1-7.5 8-4.6 2.8-10.8 3.8-6.2 1-12.8 1h-30.1z"/>
		<path id="&lt;Compound Path&gt;" fill-rule="evenodd" class="s0" d="m205 111.3h38.7q14.5 0 20.9 6.4 6.4 6.4 8.4 20.2 1.5 10.6 2.2 22.2 0.7 11.5 3.9 19.9h38.7q-2.7-3.7-4.1-9-1.3-5.3-1.9-11.2-0.7-5.9-0.9-11.6-0.3-5.6-0.5-9.8-0.5-6.7-1.8-13.3-1.4-6.6-4.4-12.2-2.9-5.5-7.6-9.6-4.7-4.1-11.8-6v-0.5q14.8-5.9 21.3-17.3 6.5-11.3 6.5-26.8 0-10.1-3.5-18.8-3.6-8.8-10.4-15.4-6.8-6.7-16.2-10.5-9.5-3.8-21.3-3.8h-94.9v175.8h38.7zm0-77.1h42.4q13.3 0 19.9 5.8 6.7 5.8 6.7 18.6 0 13.3-6.7 19.2-6.6 5.9-19.9 5.9h-42.4z"/>
		<path id="&lt;Path&gt;" fill-rule="evenodd" class="s0" d="m417.8 184q35.2 0 55.1-17.4 20-17.4 20-53.1v-109.3h-38.7v109.3q0 19.7-7.9 29-7.8 9.2-28.5 9.2-11.8 0-18.9-3.3-7-3.4-10.9-8.6-4-5.3-5.2-12.2-1.2-6.9-1.2-14.1v-109.3h-38.7v109.3q0 36 19.6 53.2 19.6 17.3 55.3 17.3z"/>
		<path id="&lt;Path&gt;" fill-rule="evenodd" class="s0" d="m613.1 150q-5.2 2.4-11.1 3.3-5.9 0.9-11.1 0.9-7.6 0-14.8-1.9-7.1-1.8-12.4-5.7-5.3-3.8-8.5-9.9-3.2-6.2-3.2-15h-37.5q-0.2 16.2 6 28 6.1 11.8 16.6 19.5 10.4 7.6 24.1 11.2 13.7 3.6 28.2 3.6 18 0 31.7-4.2 13.6-4.2 22.9-11.7 9.2-7.5 13.9-17.9 4.6-10.3 4.6-22.4 0-14.8-6.2-24.2-6.3-9.5-14.9-15.2-8.7-5.7-17.4-8.2-8.7-2.6-13.7-3.6-16.5-4.2-26.7-6.9-10.2-2.7-16-5.4-5.8-2.7-7.7-5.9-2-3.2-2-8.4 0-5.7 2.5-9.4 2.4-3.7 6.2-6.1 3.8-2.5 8.5-3.5 4.7-1 9.4-1 7.1 0 13.2 1.3 6 1.2 10.7 4.2 4.6 2.9 7.5 8.1 2.8 5.2 3.3 13h37.4q0-15.2-5.7-25.9-5.8-10.8-15.7-17.6-9.8-6.9-22.5-10-12.7-3.1-26.5-3.1-11.8 0-23.6 3.2-11.9 3.2-21.2 9.9-9.4 6.6-15.2 16.6-5.7 9.9-5.7 23.5 0 12.1 4.5 20.6 4.6 8.5 12 14.1 7.3 5.7 16.7 9.2 9.4 3.6 19.2 6.1 9.6 2.7 19 4.9 9.3 2.2 16.7 5.2 7.4 2.9 12 7.4 4.5 4.4 4.5 11.5 0 6.7-3.4 11-3.5 4.3-8.6 6.8z"/>
		<path id="&lt;Compound Path&gt;" fill-rule="evenodd" class="s0" d="m719.2 140.9h65.7l13.3 39.1h40.2l-65.8-175.8h-39.6l-66.5 175.8h38.9zm33-93.3h0.5l22.2 64.5h-45.6z"/>
		<path id="&lt;Path&gt;" fill-rule="evenodd" class="s0" d="m102.2 292.9q3.8-3.4 3.8-10.8 0-7.2-3.8-10.5-3.7-3.3-11.2-3.3h-23.8v27.9h23.8q7.5 0 11.2-3.3z"/>
		<path id="&lt;Path&gt;" fill-rule="evenodd" class="s0" d="m565.2 292.9q3.7-3.4 3.7-10.8 0-7.2-3.7-10.5-3.8-3.3-11.3-3.3h-23.8v27.9h23.8q7.5 0 11.3-3.3z"/>
		<path id="&lt;Path&gt;" fill-rule="evenodd" class="s0" d="m451.8 275.8h-0.2l-12.9 36.3h25.6z"/>
		<path id="&lt;Compound Path&gt;" fill-rule="evenodd" class="s0" d="m2 200.5h835.2v199.1h-835.2zm708.5 50.9h21.7v38h40v-38h21.8v98.9h-21.8v-42.7h-40v42.7h-21.7zm-103.4 29.3q3.3-9.5 9.6-16.6 6.2-7 15.3-11 9.1-4.1 20.4-4.1 8.2 0 15.5 2.4 7.2 2.4 13 6.9 5.7 4.5 9.5 11.1 3.7 6.7 4.7 15.2h-21.1q-0.5-3.7-2.5-6.8-1.9-3.1-4.8-5.5-2.9-2.3-6.6-3.7-3.7-1.3-7.7-1.3-7.3 0-12.4 2.9-5.2 2.8-8.4 7.6-3.1 4.8-4.6 10.9-1.5 6.1-1.5 12.6 0 6.2 1.5 12.1 1.5 5.9 4.6 10.6 3.2 4.7 8.4 7.5 5.1 2.9 12.4 2.9 10 0 15.6-6.1 5.6-6.1 6.9-16.1h21q-0.8 9.3-4.3 16.8-3.4 7.5-9.1 12.7-5.7 5.3-13.3 8.1-7.6 2.7-16.8 2.7-11.3 0-20.4-3.9-9.1-4-15.3-10.9-6.3-6.9-9.6-16.3-3.3-9.3-3.3-20.1 0-11.1 3.3-20.6zm-98.7-29.3h53.3q6.6 0 12 2.1 5.3 2.2 9.1 5.9 3.8 3.8 5.8 8.7 2 4.9 2 10.6 0 8.7-3.6 15.1-3.7 6.4-12 9.7v0.3q4 1.1 6.6 3.4 2.7 2.2 4.3 5.4 1.7 3.1 2.5 6.8 0.7 3.8 1 7.5 0.1 2.4 0.3 5.5 0.1 3.2 0.5 6.5 0.3 3.4 1.1 6.3 0.7 3 2.2 5.1h-21.7q-1.8-4.7-2.2-11.2-0.4-6.5-1.3-12.5-1.1-7.7-4.7-11.3-3.6-3.6-11.7-3.6h-21.8v38.6h-21.7zm-67.6 0h22.3l36.9 98.9h-22.5l-7.5-22h-37l-7.8 22h-21.8zm-116.5 0h73.9v18.3h-52.2v21.2h47.9v16.9h-47.9v24.2h53.3v18.3h-75zm-36.3 65.5q-2.5-2.5-6.7-4.1-4.1-1.7-9.4-2.9-5.3-1.3-10.7-2.8-5.5-1.4-10.8-3.4-5.2-2-9.4-5.2-4.1-3.2-6.7-8-2.6-4.7-2.6-11.5 0-7.6 3.3-13.3 3.2-5.6 8.5-9.3 5.3-3.7 11.9-5.5 6.7-1.8 13.3-1.8 7.8 0 14.9 1.7 7.1 1.7 12.7 5.6 5.5 3.9 8.8 9.9 3.2 6 3.2 14.6h-21q-0.3-4.4-1.9-7.3-1.6-2.9-4.2-4.6-2.6-1.7-6-2.4-3.4-0.6-7.4-0.6-2.7 0-5.3 0.5-2.6 0.6-4.8 1.9-2.1 1.4-3.5 3.5-1.4 2.1-1.4 5.3 0 2.9 1.1 4.7 1.1 1.8 4.4 3.3 3.2 1.5 9 3.1 5.7 1.5 15 3.8 2.8 0.6 7.7 2 4.9 1.5 9.7 4.7 4.9 3.2 8.4 8.5 3.6 5.3 3.6 13.6 0 6.8-2.7 12.7-2.6 5.8-7.8 10-5.2 4.2-12.9 6.6-7.7 2.3-17.8 2.3-8.2 0-15.8-2-7.7-2-13.6-6.3-5.9-4.3-9.4-10.9-3.4-6.7-3.3-15.8h21.1q0 5 1.8 8.4 1.8 3.5 4.7 5.6 3 2.2 7 3.2 4.1 1.1 8.4 1.1 2.9 0 6.2-0.5 3.3-0.5 6.2-1.9 2.9-1.4 4.9-3.8 1.9-2.4 1.9-6.2 0-4-2.6-6.5zm-142.8-65.5h73.9v18.3h-52.2v21.2h47.9v16.9h-47.9v24.2h53.3v18.3h-75zm-99.8 0h53.4q6.6 0 11.9 2.2 5.4 2.1 9.2 5.8 3.8 3.8 5.8 8.7 2 4.9 2 10.6 0 8.7-3.7 15.1-3.6 6.4-11.9 9.7v0.3q4 1.1 6.6 3.4 2.6 2.3 4.3 5.4 1.7 3.1 2.4 6.8 0.8 3.8 1.1 7.5 0.1 2.4 0.2 5.5 0.2 3.2 0.5 6.6 0.4 3.3 1.1 6.3 0.8 2.9 2.3 5h-21.7q-1.8-4.7-2.2-11.2-0.5-6.5-1.3-12.5-1.1-7.7-4.7-11.3-3.6-3.6-11.8-3.6h-21.7v38.6h-21.8z"/>
		<path id="&lt;Compound Path&gt;" fill-rule="evenodd" class="s0" d="m19.8 460.6q-3.9 0-6.5 1.6-2.2 1.4-4 3.9v-17.4h-9.4v48.7h9.3v-4.5q1.9 2.6 3.5 3.7 2.8 1.8 7.2 1.8 7.2 0 11.2-5.5 4-5.6 4-14 0-8.1-4.1-13.2-4-5.1-11.2-5.1zm3.3 27.1q-2 2.9-5.7 2.9-4.2 0-6.3-3-2-3.1-2-7.7 0-3.9 1-6.4 1.9-4.7 7.1-4.7 5.1 0 7 4.8 1 2.5 1 6.3 0 4.8-2.1 7.8z"/>
		<path id="&lt;Path&gt;" fill-rule="evenodd" class="s0" d="m56.2 488l-7.8-26.6h-10.5l13.2 37.6q0.1 0.4-0.6 2.2-0.7 1.8-1.5 2.3-0.9 0.6-2.1 0.8-1.3 0.2-2.7 0.1l-1.2-0.1v7.6q1.6 0.1 2.3 0.1 0.8 0 2 0 6.3 0 8.4-2.5 2.1-2.4 5.7-12.7l12.3-35.4h-10z"/>
		<path id="&lt;Path&gt;" fill-rule="evenodd" class="s0" d="m127.5 474.8q0 5.4-1 7.7-1.7 3.9-6.9 3.9-5.3 0-6.9-3.5-1.6-3.6-1.8-12.3v-1.7h-14.9v1.7q0 13.3 4.9 21 4.9 7.7 19.2 7.7 14.4 0 19.9-9.5 3.2-5.7 3.2-15.3v-52.4h-15.7z"/>
		<path id="&lt;Compound Path&gt;" fill-rule="evenodd" class="s0" d="m193.2 419.8q-16.2 0-24.7 8.8-11.4 10.4-11.4 31.1 0 20.2 11.4 31 8.5 8.8 24.7 8.8 16.1 0 24.7-8.8 11.4-10.8 11.4-31 0-20.7-11.4-31.1-8.6-8.8-24.7-8.8zm14.8 59.5q-5.5 6.9-14.8 6.9-9.4 0-14.9-6.9-5.6-6.9-5.6-19.6 0-12.8 5.6-19.7 5.5-6.9 14.9-6.9 9.3 0 14.8 7 5.5 6.9 5.5 19.6 0 12.7-5.5 19.6z"/>
		<path id="&lt;Path&gt;" fill-rule="evenodd" class="s0" d="m293.3 460q-4.3-3.4-13-5.5l-13.2-3.1q-7.7-1.8-10-3.1-3.7-2-3.7-6 0-4.4 3.7-6.9 3.7-2.4 10-2.4 5.6 0 9.3 1.9 5.7 2.8 6.1 9.6h15.2q-0.5-12-9-18.3-8.5-6.3-20.5-6.3-14.5 0-21.9 6.7-7.5 6.7-7.5 16.8 0 11.1 7.6 16.3 4.5 3.1 16.6 5.8l8.1 1.8q7.2 1.5 10.5 3.5 3.3 2 3.3 5.8 0 6.4-6.8 8.7-3.5 1.2-9.2 1.2-9.5 0-13.4-4.6-2.1-2.6-2.9-7.7h-15q0 11.7 8.5 18.4 8.5 6.8 23.4 6.8 14.6 0 22.6-6.9 8-6.8 8-17.1 0-10.1-6.8-15.4z"/>
		<path id="&lt;Path&gt;" fill-rule="evenodd" class="s0" d="m326.9 464.5h36.6v-13.1h-36.6v-16h39.9v-13.3h-55.2v75.3h57v-13.5h-41.7z"/>
		<path id="&lt;Path&gt;" fill-rule="evenodd" class="s0" d="m380.9 497.4h15.6v-31.6h33.4v-13h-33.4v-17.4h38.1v-13.2h-53.7z"/>
		<path id="&lt;Compound Path&gt;" fill-rule="evenodd" class="s0" d="m524.4 427.9q-6.6-5.8-17.8-5.8h-32.3v75.3h15.6v-27.1h15.7q12.3 0 18.9-5.5 6.6-5.5 6.6-18.8 0-12.3-6.7-18.1zm-11.9 26.7q-3 2.8-8.4 2.8h-14.2v-22.2h14.2q5.4 0 8.4 2.5 3 2.5 3 8.4 0 5.8-3 8.5z"/>
		<path id="&lt;Compound Path&gt;" fill-rule="evenodd" class="s0" d="m602.5 491.2q-0.4-1.8-0.4-7v-5q0-7.9-2.1-11.8-2.2-3.9-7.4-6 6.2-2.1 8.9-7.3 2.7-5.2 2.7-10.5 0-4.5-1.4-8-1.4-3.4-3.8-6.3-2.9-3.5-7-5.3-4.2-1.8-11.9-1.9h-36v75.3h15.4v-29.5h15.3q6.6 0 9 2.4 2.4 2.4 2.5 9.6l0.1 7q0 3.3 0.7 6.5 0.3 1.5 1 4h17.3v-1.9q-2.2-1.4-2.9-4.3zm-18.5-37q-2.6 1.2-7.6 1.2h-16.9v-20.2h17.3q4.9 0 7.3 1.3 4.3 2.4 4.3 9.2 0 6.3-4.4 8.5z"/>
		<path id="&lt;Path&gt;" fill-rule="evenodd" class="s0" d="m663.8 468.4q0 7.7-1.9 11.3-2.8 6.3-12.3 6.3-9.6 0-12.5-6.3-1.8-3.6-1.8-11.3v-46.3h-16v46.3q0 12 3.7 18.7 7 12.3 26.6 12.3 19.5 0 26.4-12.3 3.8-6.7 3.8-18.7v-46.3h-16z"/>
		<path id="&lt;Path&gt;" fill-rule="evenodd" class="s0" d="m746.9 460q-4.3-3.4-13-5.5l-13.2-3.1q-7.7-1.8-10-3.1-3.7-2-3.7-6 0-4.4 3.7-6.9 3.7-2.4 10-2.4 5.6 0 9.3 1.9 5.7 2.8 6.1 9.6h15.1q-0.4-12-8.9-18.3-8.5-6.3-20.5-6.3-14.5 0-21.9 6.7-7.5 6.7-7.5 16.8 0 11.1 7.6 16.3 4.5 3.1 16.6 5.8l8.1 1.8q7.2 1.5 10.5 3.5 3.3 2 3.3 5.8 0 6.4-6.8 8.7-3.5 1.2-9.2 1.2-9.5 0-13.4-4.6-2.1-2.6-2.9-7.7h-15q0 11.7 8.5 18.4 8.5 6.8 23.4 6.8 14.6 0 22.6-6.9 7.9-6.8 7.9-17.1 0-10.1-6.7-15.4z"/>
		<path id="&lt;Compound Path&gt;" fill-rule="evenodd" class="s0" d="m786.2 422.1l-26.9 75.3h16.5l5.1-15.5h27.7l5 15.5h17.1l-26.7-75.3zm-1 46.9l9.8-29.7 9.5 29.7z"/>
	</g>
</svg>