<?xml version="1.0" encoding="utf-8"?>
<!-- Generator: Adobe Illustrator 27.7.0, SVG Export Plug-In . SVG Version: 6.00 Build 0)  -->
<svg version="1.1" id="Layer_1" xmlns="http://www.w3.org/2000/svg" xmlns:xlink="http://www.w3.org/1999/xlink" x="0px" y="0px"
	 viewBox="0 0 512 512" style="enable-background:new 0 0 512 512;" xml:space="preserve">
<style type="text/css">
	.st0{fill:#904A04;}
	.st1{fill:#B26734;}
	.st2{fill:#6D3C0F;}
	.st3{fill:#BD6E35;}
	.st4{fill:#A56032;}
	.st5{fill:#3A3A3A;}
	.st6{fill:#444444;}
	.st7{fill:#515151;}
	.st8{fill:#303030;}
	.st9{fill:#AAAAAA;}
	.st10{fill:#A4571F;}
	.st11{fill:#824009;}
	.st12{fill:#3F3F3F;}
	.st13{fill:#CB63D3;}
	.st14{fill:#B25F8C;}
	.st15{fill:#FFFFFF;}
	.st16{fill:#91562D;}
	.st17{fill:#232323;}
	.st18{fill:#161616;}
	.st19{fill:#7C441E;}
	.st20{fill:none;}
	.st21{fill:#FFC33E;}
</style>
<g id="Layer_1_00000116227508903199095330000009523330652403328137_">
	<path class="st0" d="M372.1,250.4c0,0-0.9,3.9-0.9,4.6c0,0.7-22.7-2-22.7-2l0.9-7.2L372.1,250.4z"/>
	<path class="st0" d="M368.2,248.6c0,0-57.6-17.2-82.5-12.6c-24.9,4.6-8.8,18-8.8,18L368.2,248.6z"/>
	<path class="st0" d="M139.8,251c0,0,0.9,3.9,0.9,4.6c0,0.7,22.7-2,22.7-2l-0.9-7.2L139.8,251z"/>
	<path class="st0" d="M143.7,249.3c0,0,57.6-17.2,82.5-12.6s8.8,18,8.8,18L143.7,249.3z"/>
	<ellipse class="st1" cx="259.6" cy="291" rx="105.4" ry="53.7"/>
	<path class="st1" d="M228.2,239.9l-58.2,9.2l-37.6,5.8l-10.1,10.4v18.4l1.9,22.9l31.7,11.5l24.7,1.6
		C173.4,246,228.2,239.9,228.2,239.9z"/>
	<path class="st2" d="M199.2,298.2c0,0-11.8-18.3-42.5-8.5c-30.8,9.8,17,18.3,17,18.3L199.2,298.2z"/>
	<path class="st2" d="M111,447.1c0,0,20.3-22.7,66.6-26.3c18.1-1.4,13.9,41,13.9,41l30.8-27.5l60.3,4.9l24.4,18
		c0,0,15.6-38.7,45.4-37.9c29.8,0.8,47.8,24.4,47.8,24.4l-37.9-119.5H143.3L111,447.1z"/>
	<path class="st1" d="M311,352.9c-12.2,50.4-15.3,102.2-54.1,102.2c-38.7,0-41.4-46.4-52-98.2c-9.7-47.4,20.9-79,52-79
		c10,0.1,19.8,2.8,28.4,7.8C304.9,297.2,318.8,320.6,311,352.9z"/>
	<path class="st3" d="M295.6,366.5c0,36.4-25.4,76.9-44.5,68.6c-20-8.7-30.7-34.6-34.6-72.4c-3.8-36,19.1-62.7,39.1-62.7
		C275.5,300,295.6,330.1,295.6,366.5z"/>
	<path class="st1" d="M283.8,239.2l58.2,9.2l37.5,5.7l10.1,10.4V283l-1.9,22.9l-31.7,11.5l-24.7,1.6
		C338.6,245.3,283.8,239.2,283.8,239.2z"/>
	<polygon class="st4" points="217,241.9 239.8,291 262.7,315 281.3,289 302.8,241.9 271.6,236.6 241.2,238.9 	"/>
	<path class="st5" d="M307.8,317.8c0,0,6,30.8-5.8,34.7c-11.8,3.9-22.9-25.5-22.9-25.5h-24.9l-0.7-15.7l40.6-7.9L307.8,317.8z"/>
	<path class="st5" d="M207.3,317.8c0,0-6,30.8,5.8,34.7s22.9-25.5,22.9-25.5h24.9l0.7-15.7l-40.6-7.9L207.3,317.8z"/>
	<polygon class="st6" points="219,323.7 224.9,319.8 227.5,316.5 287.7,316.5 289.7,319.8 294.9,322.4 291,304 251.1,301.4 
		224.2,304 	"/>
	<path class="st7" d="M307.5,307.7c0,0,3.3,14.1-6.5,17s-13.1-17.4-13.1-17.4l7.2-2L307.5,307.7z"/>
	<path class="st7" d="M207.2,307.7c0,0-3.3,14.1,6.5,17s13.1-17.4,13.1-17.4l-7.2-2L207.2,307.7z"/>
	<polygon class="st8" points="270.1,295.5 296.9,295.5 308,308 296.2,308.6 281.8,306.7 270.7,308 	"/>
	<polygon class="st8" points="245.2,295.5 218.4,295.5 207.3,308 219.1,308.6 233.5,306.7 244.6,308 	"/>
	<polygon class="st7" points="270.7,308 243.9,308 238,295.5 277.9,295.5 	"/>
	<circle class="st9" cx="270" cy="300.1" r="2"/>
	<path class="st9" d="M254.8,304h5.7c0.2,0,0.4,0.2,0.4,0.4v0.4c0,0.2-0.2,0.4-0.4,0.4h-5.7c-0.2,0-0.4-0.2-0.4-0.4v-0.4
		C254.3,304.2,254.5,304,254.8,304z"/>
	<path class="st5" d="M215.3,322c2-3.7,3.3-7.8,3.9-12c0.1-0.4-0.6-0.4-0.7,0c-0.5,4.1-1.8,8.1-3.8,11.7
		C214.6,322,215.1,322.4,215.3,322L215.3,322z"/>
	<path class="st5" d="M299.6,321.7c-2-3.6-3.3-7.6-3.8-11.7c-0.1-0.4-0.7-0.4-0.7,0c0.5,4.2,1.9,8.3,3.9,12
		C299.3,322.4,299.8,322,299.6,321.7L299.6,321.7z"/>
	<path class="st10" d="M234,301.5c-57.3,55.6-69.5,164.7-69.5,164.7s-11-49.4-22.1-51.2c-14.7-2.5-31.1,30.2-31.1,30.2
		s14.9-60.8,9.5-82.2c-5-20.2-32.3-50.9-15.9-88.5c0,0,14.5-23.8,51.3-27.3c0,0-113,34.4,74.8,52.7h6.3L234,301.5z"/>
	<path class="st0" d="M218.8,308.5c-45.6,44.3-54.6,135.2-54.6,135.2s-10.4-39.3-19.1-40.8c-11.7-2-25.6,23.7-25.6,23.7
		s15.7-49.1,8.4-65.1c-21.3-46.5-22.6-59.1-20.6-71.4c0,0,0-22.3,21.5-32c0,0-61.8,33.3,87.7,47.8h4.9L218.8,308.5z"/>
	<path class="st2" d="M316.7,297.5c0,0,11.8-18.3,42.5-8.5s-17,18.3-17,18.3L316.7,297.5z"/>
	<path class="st10" d="M277.9,300.8c57.3,55.6,69.5,164.7,69.5,164.7s11-49.4,22.1-51.2c14.7-2.5,31.2,30.2,31.2,30.2
		s-14.9-60.8-9.5-82.2c5-20.2,32.3-50.9,15.9-88.5c0,0-14.5-23.8-51.3-27.3c0,0,113,34.4-74.8,52.7h-6.3L277.9,300.8z"/>
	<path class="st0" d="M293.2,307.8c45.6,44.3,54.6,135.2,54.6,135.2s10.4-39.3,19.1-40.8c11.7-2,25.6,23.7,25.6,23.7
		s-15.7-49.1-8.4-65.1c21.3-46.5,22.6-59.1,20.6-71.4c0,0,0-22.3-21.5-32c0,0,61.8,33.3-87.7,47.8h-4.9L293.2,307.8z"/>
	<path class="st4" d="M183.9,246.6c0,0,9.5,18.2,46.3,18.2c1.7,0-3.8-2.8-3.8-2.8s-23.8,1.4-38.7-15.7
		C186.1,244.4,183.9,246.6,183.9,246.6z"/>
	<polygon class="st10" points="138.7,290.1 138.7,306.9 146.9,292.6 	"/>
	<polygon class="st10" points="133.6,286.5 133.6,298.7 139.5,288.3 	"/>
	<polygon class="st10" points="373.2,289.4 373.2,306.3 365.1,291.9 	"/>
	<polygon class="st10" points="378.3,285.9 378.3,298 372.4,287.6 	"/>
	<polygon class="st11" points="218.5,235.9 216.9,241.7 230.8,241.9 231.4,236.6 	"/>
	<polygon class="st11" points="303.2,235.5 302.7,242 290.8,239.7 291.6,234.7 	"/>
	<path class="st1" d="M238.5,458.7c-5.5,16.1-9.4,27.4-18.1,27.4c-8.7,0-17.8-15.9-17.8-32.9s7.9-38.9,16.7-38.9
		C228,414.3,244.6,440.7,238.5,458.7z"/>
	<polygon class="st1" points="229.7,493 211.5,491.3 216.2,477.6 228.1,477.2 	"/>
	<path class="st10" d="M212,489.8l17.6,2.3l8,19.8c-19.5-21.4-39.1-3.1-39.1-3.1L212,489.8z"/>
	<path class="st10" d="M213,498.9c0,0-5.9,8.7-3.9,13.1l6.5-6.5l7.7-6.5L213,498.9z"/>
	<path class="st1" d="M275.6,455.7c4.8,16.3,6.9,28.2,15.6,28.2c8.7,0,17.8-15.9,17.8-32.9c0-17-7.9-38.9-16.7-38.9
		S270.3,437.7,275.6,455.7z"/>
	<polygon class="st1" points="281.9,490.7 300.1,489 295.4,475.3 283.4,474.8 	"/>
	<path class="st10" d="M299.6,487.5l-17.6,2.3l-8,19.8c19.5-21.4,39.1-3.1,39.1-3.1L299.6,487.5z"/>
	<path class="st10" d="M297.1,496.9c0,0,5.9,8.7,3.9,13.1l-6.5-6.5l-7.7-6.5L297.1,496.9z"/>
	<path class="st12" d="M222.3,263.3H236c1.5,0,2.7,1.2,2.7,2.7v3.2c0,1.5-1.2,2.7-2.7,2.7h-13.6c-1.5,0-2.7-1.2-2.7-2.7v-3.2
		C219.7,264.5,220.9,263.3,222.3,263.3z"/>
	<path class="st8" d="M319.7,106.8c0,0,0-4.5-9.3-5.9c-3.8-0.6-25.6-0.3-25.6-0.3l-6.8-15c0,0,30.1,0.3,39.6,5
		c9.5,4.6,7.4,11.8,6.5,19.3"/>
	<path class="st8" d="M183.2,115.7c0,0-0.6-4.5,8.4-7.1c3.7-1,25.3-3.6,25.3-3.6l8.8-16c0,0-33.9,4.5-42.7,10.3
		c-8.8,5.8-5.8,12.7-3.9,19.9"/>
	<path class="st1" d="M215.8,224.3c-0.6,1.7,1.9,4.4,2.8,5.5c7.2,9,12.8,19.2,19.2,28.8c2.8,4.2,20.3,30,25.7,24.3
		c9.2-9.7,15.9-21.8,22.5-33.3c6.9-12.2,13.1-24.9,16.9-38.3c0.2-0.4,0.2-0.9,0.2-1.4c-0.4-3.6-16.1-3.9-19.1-4.4l-9-1.4
		c-0.8-0.1-2.9-0.9-3.7-0.6l-42.1,15.7l-8.4,3.1c-1.1,0.4-4.3,0.6-4.9,1.8C215.9,224.2,215.9,224.3,215.8,224.3z"/>
	<polygon class="st10" points="221.9,227.6 246.8,266.7 252.9,272.1 260.6,278.8 268.2,271.1 290,236.9 301.4,209.8 269.7,205.5 	
		"/>
	<polyline class="st13" points="285.3,239.1 232.3,236.4 246.1,264.6 251.3,269.8 258.5,275.7 263.1,271.8 266.3,268.5 269.6,263.9 
			"/>
	<polygon class="st14" points="247.4,257.2 251.9,265 257.8,270.9 280,251.3 254.6,248.7 	"/>
	<path class="st3" d="M263.9,0c-2,0.3-4.2,2.7-5.2,3.9c-14,17-22.5,37.8-29.8,58.6c-4,11.3-7.7,22.7-12,33.9
		c-4.2,10.9-10,21.2-13.8,32.2c-4.2,12.5-5.8,25.8-5,38.9c1,18.9,3.7,42.4,17.4,56.8c21,22.1,36.1,37.8,36.1,37.8l8.9,7.1l9.1-8.2
		c0,0,24.4-21.7,27.1-31.3c2.7-9.6,2.8-8.9,5-14s5.9-5.4,8.7-19.5c6.7-34-5.3-68.6-17.1-100.1c-6.7-17.9-13.8-35.7-18.3-54.2
		c-2-8-3.4-16.1-5.1-24.2c-0.8-4-1.7-8-2.7-12c-0.3-1.4-0.5-4.8-2-5.5C264.7,0,264.3,0,263.9,0z"/>
	<path class="st1" d="M265.6,0.5c1.5,2-0.8,3.6-0.6,6c0.3,3,0.6,5.9,0.9,8.8c0.7,6.1,1.6,12.1,2.7,18.2c2.1,11.9,4.8,23.6,8.2,35.2
		c9.3,32,23.4,63.2,24.2,96.5c0.9,33.9-12.5,67-31.1,95.4c19.9-17.1,34.5-36.2,40.8-66.1c3.5-16.6,1.8-34.4-1.8-51
		c-1.8-8.1-5.8-15.4-7.9-23.3c-2.3-8.7-5.2-17.2-8.2-25.7c-6-16.9-12.7-33.7-17.7-50.9c-3.3-11.5-4.4-23.5-7.3-35.1
		c-0.2-0.8-1.1-9.8-4-8.3"/>
	<path class="st15" d="M230.3,183.1c0.3,4.9-3.1,9.2-7.6,9.5c-4.5,0.3-8.5-3.5-8.8-8.4c-0.3-5,3.3-5.7,7.8-6
		C226.2,177.9,229.9,178.2,230.3,183.1z"/>
	<path class="st15" d="M302.1,178.9c0.3,5.2-3.4,9.6-8.4,10s-9.3-3.6-9.6-8.8s3.6-6.1,8.6-6.4S301.7,173.7,302.1,178.9z"/>
	
		<ellipse transform="matrix(0.9507 -0.3102 0.3102 0.9507 -56.5344 86.1925)" class="st16" cx="242.8" cy="220.9" rx="2.2" ry="4.4"/>
	
		<ellipse transform="matrix(0.3102 -0.9507 0.9507 0.3102 -20.9034 412.8058)" class="st16" cx="274" cy="220.8" rx="4.4" ry="2.2"/>
	<circle class="st17" cx="224.6" cy="187.6" r="3.3"/>
	<circle class="st17" cx="291.3" cy="183.1" r="3.4"/>
	<path class="st12" d="M308.8,142.2l8.6-0.6c0.9-0.1,1.6,0.6,1.7,1.5l3.2,49c0.1,0.9-0.6,1.6-1.5,1.7l-8.6,0.6
		c-0.9,0.1-1.6-0.6-1.7-1.5l-3.2-49C307.3,143,308,142.2,308.8,142.2z"/>
	
		<rect x="322.6" y="143.8" transform="matrix(0.9979 -6.488065e-02 6.488065e-02 0.9979 -10.1535 21.4127)" class="st18" width="3.9" height="46.5"/>
	<path class="st18" d="M326.6,146.9l3.9-0.3c0.7,0,1.3,0.5,1.4,1.2l2.5,38.5c0,0.7-0.5,1.3-1.2,1.4l-3.9,0.3c-0.7,0-1.3-0.5-1.4-1.2
		l-2.5-38.5C325.3,147.6,325.8,147,326.6,146.9z"/>
	<polygon class="st8" points="318.3,195.3 318,186.1 320.3,182.1 318,146.1 314.1,141.8 313.7,140.5 318.9,139.5 322.3,141.3 
		325.6,192.2 322.5,195 	"/>
	<polygon class="st8" points="322.8,138.6 324.7,143.7 327.8,191.4 325.8,194.8 331.6,193.1 328.2,140.9 	"/>
	<polygon class="st8" points="319.8,106.8 324.3,108.6 326.6,137.5 322.7,138.2 	"/>
	<polygon class="st8" points="322.8,138.6 322.7,128.1 328.2,140.9 	"/>
	<path class="st8" d="M176.1,184.2l2.2-0.1c0.7,0,1.2,0.5,1.3,1.1l0.5,7.4c0,0.7-0.5,1.2-1.1,1.3l-2.2,0.1c-0.7,0-1.2-0.5-1.3-1.1
		l-0.5-7.4C174.9,184.8,175.4,184.3,176.1,184.2z"/>
	<path class="st8" d="M174.7,181c0,0-33.1,96.6,55.7,90.8l1.9-0.1l-0.4-5.9c0,0-72.4,15.8-54.5-71.9c2.9-14.1-0.8-12.4-0.8-12.4
		L174.7,181z"/>
	<path class="st12" d="M202,201.5l-8.6,0.6c-0.9,0.1-1.6-0.6-1.7-1.5l-3.2-49c-0.1-0.9,0.6-1.6,1.5-1.7l8.6-0.6
		c0.9-0.1,1.6,0.6,1.7,1.5l3.2,49C203.5,200.7,202.9,201.5,202,201.5z"/>
	
		<rect x="184.2" y="152.8" transform="matrix(0.9979 -6.488066e-02 6.488066e-02 0.9979 -11.0283 12.4503)" class="st18" width="3.9" height="46.5"/>
	<path class="st18" d="M184.3,197.5l-3.9,0.3c-0.7,0-1.3-0.5-1.4-1.2l-2.5-38.5c0-0.7,0.5-1.3,1.2-1.4l3.9-0.3
		c0.7,0,1.3,0.5,1.4,1.2l2.5,38.5C185.6,196.8,185,197.4,184.3,197.5z"/>
	<polygon class="st8" points="196.1,203.3 195.2,194.1 192.4,190.4 190,154.5 193.3,149.7 193.6,148.3 188.3,148 185.1,150.2 
		188.5,201.1 191.9,203.5 	"/>
	<polygon class="st8" points="184.2,147.6 183,153 186.1,200.6 188.6,203.7 182.7,202.8 179.3,150.6 	"/>
	<polygon class="st8" points="183.3,115.6 179.2,119 180.4,147 184.4,147.1 	"/>
	<polygon class="st8" points="184.3,147.6 183,137.2 179.3,150.6 	"/>
	<path class="st19" d="M200.9,137.6c3.2-2.2,7.4-2.5,11.1-2.9c4.3-0.5,8.7-0.8,12.9,0.3c3.7,1,5.2-4.7,1.6-5.7
		c-5-1.3-10.1-1.1-15.2-0.5c-4.5,0.6-9.4,1-13.3,3.6C194.8,134.6,197.8,139.7,200.9,137.6L200.9,137.6z"/>
	<path class="st19" d="M282.5,132.9c7-2.9,14.8-3.4,22.1-1.3c3.7,1,5.2-4.7,1.6-5.7c-8.3-2.4-17.2-1.9-25.3,1.3
		c-1.5,0.6-2.5,2-2.1,3.6C279.3,132.2,281.1,133.5,282.5,132.9L282.5,132.9z"/>
	<g id="Glasses">
		<path class="st17" d="M266.7,173.9c-0.2-3-5.6-6.7-12.1-6.4s-11.6,4.5-11.4,7.5c0.2,3,5.2-1.5,11.7-1.8
			C261.4,172.9,266.8,176.9,266.7,173.9z"/>
		
			<ellipse transform="matrix(0.9987 -5.024432e-02 5.024432e-02 0.9987 -8.2826 11.3501)" class="st15" cx="221.6" cy="170.4" rx="23" ry="31.8"/>
		
			<ellipse transform="matrix(0.9987 -5.024432e-02 5.024432e-02 0.9987 -8.0322 14.6684)" class="st15" cx="287.7" cy="167.1" rx="23" ry="31.8"/>
		<path class="st20" d="M242.9,170.6l23.6-1.2"/>
		<path class="st17" d="M207.6,148c-3.6,5.1-5.7,7.9-8.1,8c-2.4,0.1-4.7-4.2-4.9-9.5c-0.3-5.2,14.9-6,17.4-6.1
			C214.3,140.3,208.4,146.8,207.6,148z"/>
		<path class="st17" d="M298.3,143.4c4,4.8,6.5,7.3,8.9,7.2c2.4-0.1,4.2-4.7,4-9.9c-0.3-5.2-15.5-4.5-17.9-4.3
			C290.8,136.5,297.3,142.3,298.3,143.4z"/>
	</g>
	<circle class="st17" cx="222.5" cy="189" r="7.8"/>
	<circle class="st17" cx="290" cy="185.6" r="8.5"/>
	<circle class="st15" cx="224.2" cy="192.6" r="2.1"/>
	<circle class="st15" cx="287.8" cy="189.8" r="2.3"/>
	<ellipse transform="matrix(0.943 -0.3328 0.3328 0.943 -37.2591 74.0124)" class="st21" cx="197.4" cy="145.8" rx="1.4" ry="0.6"/>
	
		<ellipse transform="matrix(0.4315 -0.9021 0.9021 0.4315 48.8181 357.7332)" class="st21" cx="308.2" cy="140.1" rx="0.6" ry="1.4"/>
	<path class="st11" d="M183.9,246.9c0,0-2.3-5.1-2.5-6.8c-0.1-0.4,2.8-0.5,2.8-0.5l3.6,6.6L183.9,246.9z"/>
</g>
</svg>
