<svg xmlns="http://www.w3.org/2000/svg" width="400" height="400" display="block"><g fill-rule="evenodd" fill="#00a9e1"><path d="M363.728 215.9c5.24.063 13.7.063 18.8 0 5.099-.064.812-.115-9.528-.115s-14.513.052-9.272.115M329.6 146c0 .22.405.397.9.394.728-.005.785-.08.3-.394-.776-.501-1.2-.501-1.2 0M189.979 15.822c-.528.562-.691.919-.361.792.521-.199 1.816-1.814 1.455-1.814-.073 0-.566.46-1.094 1.022M226.4 24.4c1.368.438 2.419.438 1.4 0-.44-.189-1.16-.338-1.6-.332-.643.009-.604.075.2.332m-60.851 6.1c.303.386 1.021.676 1.6.646l1.051-.055-1-.184c-.55-.101-1.27-.391-1.6-.645-.522-.402-.529-.371-.051.238M88.6 52.4c1.196.514 2.195.514 1.4 0-.33-.213-.96-.378-1.4-.366l-.8.022.8.344M341 74.657c2.037 1.807 2.787 2.334 2.002 1.406-.436-.515-1.155-1.122-1.598-1.349-.442-.227-.624-.252-.404-.057M53.7 101.476c.385.1 1.015.1 1.4 0 .385-.101.07-.183-.7-.183s-1.085.082-.7.183M.905 146.687c.609.092 1.509.09 2-.005.492-.095-.005-.171-1.105-.168-1.1.003-1.503.081-.895.173m4.795-.011c.385.1 1.015.1 1.4 0 .385-.101.07-.183-.7-.183s-1.085.082-.7.183M356.12 172.4c0 1.21.075 1.705.167 1.1a8.899 8.899 0 0 0 0-2.2c-.092-.605-.167-.11-.167 1.1m-52.419-.2c.004.88.086 1.193.182.695.096-.497.092-1.217-.008-1.6-.1-.382-.179.025-.174.905m88.699 6.6c0 .88.14 1.6.311 1.6.17 0 .241-.72.158-1.6-.084-.88-.224-1.6-.311-1.6s-.158.72-.158 1.6m.893 4.8c0 .77.082 1.085.183.7.1-.385.1-1.015 0-1.4-.101-.385-.183-.07-.183.7m.581 9.9c-.096.165-.029.66.148 1.1.281.698.325.66.35-.3.028-1.085-.16-1.386-.498-.8m-51.52 1.645c-.525.41-1.359.872-1.854 1.027-.495.155-.9.436-.9.624 0 .189.495.087 1.1-.225 1.239-.64 3.23-2.148 2.854-2.162-.135-.005-.675.326-1.2.736m51.739 10.455c0 .77.082 1.085.183.7.1-.385.1-1.015 0-1.4-.101-.385-.183-.07-.183.7m-34.693 9.882c12.467.273 33 .294 33 .033 0-.157-8.595-.254-19.1-.216-10.505.037-16.76.12-13.9.183m-88.967 2.262c.092.079.707.264 1.367.412.876.196 1.038.159.6-.138-.54-.365-2.368-.62-1.967-.274M8.3 253.482a5.661 5.661 0 0 0 1.8 0c.495-.095.09-.173-.9-.173s-1.395.078-.9.173m106.1 4.273c0 .085.53.232 1.179.327.648.095 1.088.026.976-.154-.198-.321-2.155-.478-2.155-.173m240.846 5.265c-.025.451-.225 1.037-.445 1.301-.219.265-.111.232.239-.072.35-.305.55-.891.445-1.302-.173-.673-.197-.666-.239.073m-9.144 16.68c-.566.715-1.362 2.3-1.156 2.3.096 0 .547-.63 1.001-1.4.826-1.399.902-1.843.155-.9m-13.632 18.426c-.479.509-.87 1.062-.87 1.228 0 .315.603-.252 1.549-1.456.794-1.009.34-.858-.679.228M83.505 348.283c.497.096 1.217.092 1.6-.008.382-.1-.025-.179-.905-.174-.88.004-1.193.086-.695.182m246.922.717c-.266 1.154-.21 2.543.091 2.242.19-.19.267-.861.173-1.493-.094-.632-.213-.969-.264-.749M228.8 350.418c-.438.297-.276.334.6.138 1.471-.329 1.79-.558.767-.55-.422.003-1.037.189-1.367.412m-13.5.673c.825.087 2.175.087 3 0 .825-.086.15-.157-1.5-.157s-2.325.071-1.5.157m5.405-.008c.497.096 1.217.092 1.6-.008.382-.1-.025-.179-.905-.174-.88.004-1.193.086-.695.182M296 357.756c0 .086.617.229 1.372.317.755.088 1.284.017 1.176-.157-.193-.313-2.548-.461-2.548-.16m4.4.929c0 .349 1.599 1.453 1.8 1.243.067-.071-.311-.451-.839-.847-.529-.395-.961-.573-.961-.396" fill="#00a9e1"/><path d="M199.8 1.84c-.88 1.005-1.874 2.308-2.21 2.894-1.096 1.916-2.124 3.45-2.9 4.331-.42.475-1.162 1.645-1.651 2.6-1.469 2.872-1.997 3.688-2.939 4.543-.495.45-.9 1.037-.9 1.305s-.18.487-.4.487c-.22 0-.4.36-.4.8 0 .44-.18.8-.4.8-.22 0-.4.45-.4 1s-.18 1-.4 1c-.22 0-.4.27-.4.6 0 .33-.18.6-.4.6-.22 0-.4.268-.4.597 0 .328-.36.821-.8 1.096-.44.275-.805.681-.811.903-.033 1.232-2.242 2.99-3.888 3.095-.935.06-1.7.225-1.7.367-.001.142-.676.352-1.501.467-2.399.335-4.631.898-5.574 1.405-1.391.748-5.229.59-6.464-.267-.957-.664-2.028-1.253-4.759-2.615-.493-.247-.898-.583-.9-.748-.002-.165-.292-.3-.645-.3-.354 0-.962-.406-1.353-.902-.39-.497-1.406-1.139-2.257-1.427-2.329-.788-3.344-1.354-3.111-1.731.116-.187-.16-.34-.613-.34-.453 0-.824-.18-.824-.4 0-.22-.36-.4-.8-.4-.44 0-.801-.135-.803-.3-.004-.509-2.407-1.7-3.429-1.7-.533 0-.968-.18-.968-.4 0-.22-.255-.4-.567-.4-.311 0-.626-.142-.7-.315-.494-1.167-5.91-3.05-6.194-2.153-.116.367-.4 1.118-.631 1.668-1.212 2.886-1.453 3.514-1.845 4.8-.547 1.799-.841 3.313-1.124 5.8-.125 1.1-.387 2.171-.583 2.38-.196.209-.356.963-.356 1.676s-.18 1.408-.4 1.544c-.22.136-.4.741-.4 1.344 0 .603-.193 1.289-.429 1.525s-.483 1.152-.549 2.036c-.066.883-.216 1.762-.335 1.954-.118.191-.334 1.066-.481 1.944-.794 4.759-2.407 7.334-5.432 8.673-.646.285-1.174.636-1.174.778 0 .143-.443.37-.984.506-.542.136-1.624.905-2.405 1.709-.92.948-1.871 1.512-2.701 1.603-.705.077-1.459.317-1.676.534-.501.501-4.123.518-4.301.021-.073-.205-1.236-.457-2.585-.56-1.348-.103-2.837-.393-3.308-.645-.471-.253-1.035-.349-1.253-.214-.219.135-.963-.037-1.654-.381-.691-.345-1.758-.627-2.371-.627s-1.204-.144-1.313-.32c-.109-.176-.967-.366-1.908-.421-.941-.056-1.897-.256-2.126-.444-.228-.189-1.675-.442-3.215-.562l-6.115-.479-3.315-.26.049 7.133c.027 3.924.207 7.427.398 7.785.192.359.378 2.597.413 4.975.034 2.377.225 4.878.422 5.557.913 3.138.257 11.036-.916 11.036-.185 0-.336.27-.336.6 0 .33-.18.6-.4.6-.22 0-.4.167-.4.372 0 .204-.63 1.039-1.4 1.855-.77.817-1.4 1.695-1.4 1.951 0 .613-2.299 3.09-3.735 4.022-1.233.802-3.223 1.26-7.865 1.81-1.65.195-3.72.453-4.6.572-.88.119-2.299.305-3.154.413-.855.108-1.761.369-2.014.579-.254.21-2.124.416-4.155.457-2.032.041-3.792.231-3.91.422-.118.191-.913.347-1.767.347-.854 0-1.664.18-1.8.4-.136.22-.678.4-1.205.4-2.222 0-4.074 2.086-2.639 2.973.195.121.457.806.581 1.523.52 3.014.773 3.904 1.108 3.904.195 0 .355.27.355.6 0 .33.18.6.4.6a.4.4 0 0 1 .4.397c0 .683 1.373 3.603 1.694 3.603.168 0 .306.423.306.94 0 1.258.789 3.46 1.239 3.46.199 0 .361.319.361.709 0 .39.617 1.646 1.371 2.79.753 1.145 1.607 2.761 1.897 3.591.29.831.629 1.6.752 1.71 1.468 1.308 2.745 7.945 1.602 8.326-.232.077-.422.576-.422 1.107 0 .532-.18.967-.4.967-.22 0-.4.54-.4 1.2 0 .66-.18 1.2-.4 1.2-.22 0-.403.585-.406 1.3-.006 1.216-.67 3.589-1.261 4.503-.143.222-.387 1.077-.541 1.9-.155.823-.441 1.497-.637 1.497-.195 0-.355.302-.355.672 0 .651-.579 2.692-1.228 4.328-.429 1.08-.761 3.079-1.031 6.2-.124 1.43-.386 2.771-.583 2.98-.197.209-.376.929-.398 1.6-.022.671-.157 1.635-.3 2.143l-.26.923-.909-.847c-.5-.466-.82-.991-.711-1.167.109-.176-.787-1.409-1.991-2.739-1.204-1.33-2.189-2.536-2.189-2.678 0-.452-2.556-2.615-3.089-2.615-.281 0-.511-.162-.511-.36 0-.634-2.649-3.034-4.25-3.85-.853-.435-1.82-1.02-2.15-1.302-1.96-1.673-2.643-2.134-3.474-2.342-.509-.128-.926-.393-.926-.589 0-.197-.525-.357-1.167-.357-.641 0-1.226-.135-1.3-.3-.208-.469-4.464-2.5-5.239-2.5-.382 0-.694-.18-.694-.4 0-.22-.324-.4-.72-.4-.396 0-.891-.171-1.101-.381-.209-.209-1.055-.426-1.88-.482-.824-.055-1.499-.228-1.499-.383 0-.156-2.61-.305-5.8-.331l-5.8-.049v106.895l5.1-.234c4.818-.222 7.958-.688 10-1.484a87.712 87.712 0 0 1 1.8-.675c.495-.178 2.25-.992 3.9-1.809 1.65-.816 3.315-1.481 3.7-1.476.385.005.7-.171.7-.391s.315-.4.7-.4c.628-.001 1.839-.816 3.761-2.531.363-.325 1.083-.721 1.6-.882 1.429-.444 3.062-1.715 3.344-2.602.138-.436.822-1.089 1.518-1.449 1.478-.764 3.332-2.648 3.677-3.736.132-.417.586-.869 1.008-1.002.803-.256 3.192-3.489 3.192-4.322 0-.533 1.576-1.667 1.64-1.179.021.166.086.753.143 1.303.056.55.307 1.72.558 2.6.25.88.456 2.635.457 3.9.001 1.265.182 2.3.402 2.3.22 0 .4.709.4 1.576 0 .867.18 1.688.4 1.824.22.136.4.777.4 1.424 0 .647.18 1.176.4 1.176.22 0 .4.372.4.826 0 .455.193 1.186.428 1.626.235.44.502 1.193.592 1.674.09.481.325 1.234.522 1.674.979 2.186 1.258 3.147 1.258 4.339 0 .715.179 1.48.398 1.699.218.218.438.884.487 1.48.049.595.194 1.082.322 1.082 1.51 0 1.507 5.425-.005 8.525-.661 1.355-1.202 2.781-1.202 3.169 0 .388-.141.706-.314.706-.173 0-.848 1.035-1.5 2.3s-1.321 2.36-1.486 2.433c-.165.074-.3.353-.3.621 0 .709-.949 2.639-1.3 2.643-.165.002-.313.588-.329 1.303-.016.715-.372 1.84-.791 2.5-.42.66-1.079 1.875-1.466 2.7-.386.825-.84 1.5-1.008 1.5-.168 0-.306.529-.306 1.176 0 .647-.18 1.288-.4 1.424-.22.136-.4.856-.4 1.6 0 .744-.18 1.464-.4 1.6-1.392.86.18 2.6 2.35 2.6.662 0 1.299.156 1.417.346.117.19.983.47 1.923.621.941.151 2.16.349 2.71.44.55.091 2.21.253 3.688.359 1.479.106 3.02.37 3.424.587.404.216 1.265.334 1.912.262.647-.073 1.896.11 2.776.405.88.296 3.001.574 4.713.618 1.712.044 3.207.233 3.323.421.116.187.833.341 1.593.341 2.244 0 6.971 3.443 6.971 5.078 0 .287.18.522.4.522.22 0 .4.188.4.418 0 .23.405.852.9 1.381 1.097 1.174 1.45 1.616 2.689 3.372 1.037 1.47 1.373 9.021.477 10.714-.208.393-.408 2.96-.444 5.705-.036 2.744-.214 5.084-.395 5.2-.181.115-.361 3.41-.401 7.321l-.073 7.111 3.429-.058c1.886-.032 3.527-.217 3.647-.411.12-.194 1.478-.353 3.018-.353 1.765 0 2.709-.148 2.553-.4-.152-.246.521-.4 1.753-.4 1.1 0 2.099-.161 2.221-.358.121-.197.897-.455 1.723-.574 1.987-.286 4.953-.904 5.703-1.188.33-.125 1.41-.315 2.4-.422.99-.108 2.307-.39 2.926-.627 1.562-.598 3.177-.538 4.528.167.63.328 1.416.599 1.746.601.33.003 1.14.504 1.8 1.114.66.611 1.74 1.379 2.4 1.709 2.777 1.384 5.832 3.679 6.425 4.826.72 1.393.674 1.226 1.762 6.352.917 4.319 1.689 7.199 2.099 7.834.154.239.325 1.094.379 1.9.054.806.242 1.466.417 1.466s.318.883.318 1.962.432 3.239.96 4.8.878 2.838.778 2.838c-.101 0 .075.495.391 1.1.634 1.216 1.279 2.727 1.622 3.8.297.93 1.504.887 2.758-.1.56-.44 1.259-.8 1.554-.8.295-.001 1.066-.456 1.712-1.012.647-.556 1.637-1.107 2.2-1.224.564-.117 1.475-.481 2.025-.808.55-.327 1.495-.783 2.1-1.014.605-.231 1.1-.583 1.1-.781 0-.199.294-.361.653-.361.359 0 .944-.323 1.3-.717.356-.394 1.443-.973 2.415-1.286.973-.314 2.18-.981 2.682-1.484.503-.502 1.102-.913 1.332-.913.23 0 .418-.148.418-.329 0-.18.945-.749 2.1-1.262 1.155-.514 2.568-1.259 3.14-1.656 1.706-1.185 3.949-1.509 5.978-.865 3.891 1.235 6.37 1.84 9.582 2.339 2.15.334 2.297.426 3.348 2.09.54.855 1.228 1.809 1.529 2.119.839.863 2.323 3.539 2.323 4.187 0 .317.18.577.4.577.22 0 .4.36.4.8 0 .44.18.8.4.8.22 0 .4.196.4.436s.601 1.139 1.335 1.997c.735.858 1.757 2.416 2.273 3.463.516 1.047 1.674 2.894 2.574 4.104.9 1.21 1.901 2.718 2.223 3.352 1.261 2.48 5.195 5.69 5.195 4.239 0-.224.495-.629 1.1-.9 1.47-.656 2.5-1.554 2.5-2.18 0-.281.15-.511.332-.511.183 0 .574-.45.868-1 .294-.55.759-1 1.033-1 .274 0 1.188-.841 2.032-1.868.844-1.027 2.39-2.687 3.435-3.687 1.045-1.001 1.9-1.962 1.9-2.136 0-.344 1.778-2.469 2.9-3.465.385-.342.7-.775.7-.961 0-.187.225-.572.5-.856.275-.284 1.04-1.204 1.7-2.046 1.262-1.609 2.597-2.96 2.975-3.012.124-.016.585-.128 1.025-.248.701-.19 9.868-.915 12.6-.996 2.822-.084 4.691.816 7.63 3.675 3.166 3.08 4.719 4.4 5.177 4.4.216 0 .393.156.393.347 0 .191.765.848 1.7 1.461.935.612 2.33 1.79 3.1 2.615.77.826 1.85 1.626 2.4 1.778.55.151 1.45.761 2 1.355 1.329 1.436 3.998 3.429 4.006 2.991.003-.191.138-.163.3.062.996 1.387 2.38 1.765 3.18.868 1.186-1.328 2.604-3.477 2.295-3.477-.15 0 .018-.444.373-.986s.646-1.253.646-1.579c0-.561.773-2.13 2.733-5.547.477-.832.867-1.867.867-2.3 0-.433.18-.788.4-.788.22 0 .4-.504.4-1.12 0-1.216.816-3.272 1.3-3.277.165-.002.306-.318.313-.703.006-.385.455-1.6.996-2.7.541-1.1.985-2.506.987-3.124.002-.618.146-1.036.319-.928.173.107.353-.266.4-.828.173-2.09 3.489-4.92 5.765-4.92.616 0 1.12-.18 1.12-.4 0-.22.272-.4.605-.4.566 0 2.146-.737 2.595-1.211.11-.116.965-.548 1.9-.961.935-.412 1.7-.902 1.7-1.089 0-.472 4.152-.427 4.629.05.213.213.787.449 1.275.523.488.075 1.307.485 1.819.912.513.427 1.19.835 1.505.906.315.072.632.297.705.5.074.204.558.37 1.077.37.518 0 1.054.18 1.19.4.136.22.957.4 1.824.4.867 0 1.576.18 1.576.4 0 .22.255.4.568.4.312 0 1.077.253 1.7.563 1.481.737 4.163 1.837 5.932 2.435.44.148 1.7.367 2.8.487 1.1.119 2.06.374 2.133.566.074.192.533.349 1.02.349.488 0 1.058.171 1.267.38.982.98 3.731.958 3.956-.032.533-2.343.68-3.59.844-7.148.097-2.09.276-5.51.398-7.6.123-2.09.312-6.59.422-10 .226-7.055.347-7.452 3.239-10.63.483-.531 1.023-1.193 1.2-1.472.177-.278 1.081-.998 2.01-1.6.929-.602 1.956-1.611 2.282-2.242.327-.632 1.187-1.432 1.911-1.778.725-.347 1.765-1.361 2.312-2.254.547-.893 1.191-1.624 1.431-1.624.57 0 2.175-1.716 2.175-2.326 0-.261.18-.474.4-.474.22 0 .4-.36.4-.8 0-.44.238-.8.528-.8.677 0 2.657-1.818 3.847-3.531.508-.733 1.307-1.745 1.775-2.249 1.619-1.746 2.65-3.09 2.65-3.454a.37.37 0 0 1 .373-.366c.205 0 .481-.339.612-.752.228-.718 1.303-2.19 2.225-3.048 1.24-1.153 1.748-1.833 1.841-2.465.149-1.017 1.023-2.535 1.459-2.535.582 0 2.038-2.025 2.576-3.584.267-.773.672-1.469.9-1.545.228-.076.414-.305.414-.508 0-.47 2.813-4.518 3.264-4.696.185-.074.336-.479.336-.9 0-.422.18-.767.4-.767.22 0 .4-.362.4-.805 0-.817.637-2.165 1.44-3.048.49-.54 2.65-4.835 3.443-6.847.282-.715.648-1.3.815-1.3.166 0 .315-.315.331-.7.016-.385.371-1.24.787-1.9 1.262-1.997 1.984-3.835 1.984-5.049 0-.633.18-1.151.4-1.151.22 0 .4-.45.4-1s.18-1 .4-1c.22 0 .4-.36.4-.8 0-.44.136-.8.302-.8.395 0 1.431-2.32 1.609-3.6.076-.55.307-1.171.514-1.38.206-.209.375-1.154.375-2.1 0-.946.18-1.72.4-1.72.22 0 .4-.36.4-.8 0-.44.151-.8.335-.8.185 0 .361-.674.392-1.497.031-.824.24-1.559.464-1.633.225-.075.409-.536.409-1.023 0-.488.153-1.058.341-1.267.326-.363 1.106-2.988 1.448-4.87.205-1.131-1.455-2.51-3.019-2.51-.618 0-1.234-.18-1.37-.4-.136-.22-1.137-.4-2.224-.4-1.087 0-1.976-.18-1.976-.4 0-.22-.45-.4-1-.4s-1-.153-1-.339c0-.187-.72-.664-1.6-1.061-.88-.397-1.6-.874-1.6-1.061 0-.186-.272-.339-.605-.339-.333 0-.918-.16-1.3-.356-.382-.196-1.566-.773-2.631-1.282-1.065-.509-2.709-1.605-3.652-2.435-.944-.831-2.188-1.69-2.766-1.909-.577-.22-1.623-1.214-2.325-2.209-.701-.995-1.422-1.809-1.602-1.809-.572 0-2.719-2.264-2.719-2.868 0-.32-.338-.944-.752-1.388-1.391-1.493-2.779-4.008-2.48-4.493.225-.364 4.873-.452 19.331-.365 16.571.099 19.082.036 19.405-.486 1.116-1.804.785-33.9-.353-34.333-.193-.074-.351-1.389-.351-2.924 0-1.758-.148-2.699-.4-2.543-.248.153-.4-.569-.4-1.896 0-1.179-.163-2.315-.361-2.524-.199-.209-.449-1.19-.556-2.18-.107-.99-.41-2.52-.673-3.4-.264-.88-.651-2.95-.861-4.6-.211-1.65-.493-3.27-.627-3.6-.135-.33-.311-1.05-.392-1.6-.14-.946-.581-2.131-1.377-3.695-.194-.382-.353-1.023-.353-1.424 0-.402-.351-1.457-.78-2.346-.429-.888-.825-2.362-.878-3.275-.054-.913-.235-1.66-.402-1.66-.167 0-.422-.632-.567-1.404-.145-.773-.423-1.503-.618-1.624-.195-.121-.355-.569-.355-.996 0-.427-.18-.776-.4-.776-.22 0-.4-.349-.4-.776 0-.427-.18-.888-.4-1.024-.22-.136-.4-.597-.4-1.024 0-.427-.18-.776-.4-.776-.22 0-.403-.405-.406-.9-.008-1.157-.922-3.788-1.527-4.393-.257-.257-.467-.701-.467-.987 0-.286-.157-.52-.35-.52-.192 0-.454-.518-.58-1.152-.127-.633-.51-1.43-.85-1.771-.341-.341-.62-.965-.62-1.387 0-.974-.908-2.794-2.861-5.734-.846-1.274-1.539-2.686-1.539-3.137 0-.45-.18-.819-.4-.819-.22 0-.4-.345-.4-.767 0-.421-.151-.826-.336-.9-.469-.186-3.264-4.235-3.264-4.729a.403.403 0 0 0-.4-.404c-.22 0-.4-.36-.4-.8 0-.44-.136-.8-.302-.8-.167 0-.561-.585-.876-1.3-.626-1.42-1.363-2.3-1.926-2.3-.386 0-1.201-1.412-1.385-2.4-.061-.33-.606-1.097-1.211-1.703-.605-.607-1.1-1.239-1.1-1.405 0-.165-.413-.748-.917-1.296s-1.486-1.806-2.181-2.796c-.695-.99-1.768-2.368-2.383-3.063-1.833-2.069-2.519-2.933-2.519-3.172 0-.397-2.173-2.401-2.9-2.676-.385-.145-.7-.54-.7-.876 0-.337-.18-.613-.4-.613-.22 0-.4-.193-.4-.429 0-.528-.661-1.202-2.1-2.144-.605-.395-1.1-.935-1.1-1.198 0-.549-1.682-2.162-3.3-3.165-.605-.376-1.1-.849-1.1-1.053 0-.52-1.806-2.411-2.303-2.411-.226 0-.515-.27-.642-.6-.126-.33-.461-.607-.742-.616-.282-.008-1.095-.773-1.806-1.7-.71-.926-1.733-2.224-2.272-2.884-.936-1.146-.984-1.483-1.082-7.5-.056-3.465-.212-6.3-.346-6.3-.135 0-.297-2.385-.361-5.3-.186-8.472-.31-10.065-1.078-13.803-.191-.935-2.945-.966-3.948-.046-.209.192-.794.349-1.3.349s-.92.18-.92.4c0 .22-.752.4-1.672.4-2.283 0-4.513.745-9.722 3.249-1.317.633-2.793 1.151-3.281 1.151-1.248 0-4.113 1.165-6.617 2.691-.821.5-1.766.909-2.1.909-.334 0-.608.18-.608.4 0 .222-1.067.4-2.4.4-1.32 0-2.4-.14-2.4-.31 0-.171-.808-.666-1.796-1.1-.988-.435-1.798-.925-1.8-1.09-.002-.165-.24-.3-.529-.3-.289 0-1.27-.36-2.181-.8-.91-.44-2.114-.8-2.675-.8-.56 0-1.019-.18-1.019-.4 0-.22-.227-.4-.505-.4s-.863-.48-1.3-1.066c-.437-.586-1.02-1.293-1.295-1.571-.275-.278-.5-.868-.5-1.311 0-.443-.18-.916-.4-1.052-.22-.136-.4-.66-.4-1.164 0-.504-.45-1.763-1-2.798-.55-1.034-1-2.141-1-2.459 0-.319-.135-.58-.3-.582-.485-.005-1.3-2.062-1.3-3.282 0-.619-.165-1.438-.367-1.82-.202-.382-.727-1.515-1.166-2.517-.439-1.003-1.084-2.06-1.433-2.349-.349-.29-.634-.85-.634-1.245 0-.394-.169-.777-.375-.851-.207-.073-.448-.583-.537-1.133-.466-2.889-3.909-7.966-4.448-6.56-.142.371-.37.563-.506.428-.292-.292-2.534.963-2.534 1.418 0 .173-.233.314-.517.314-.284 0-1.409.809-2.5 1.798s-2.214 1.799-2.496 1.8c-.283.001-1.104.587-1.825 1.302-.722.715-1.827 1.66-2.457 2.1-.629.44-1.539 1.205-2.02 1.7-.482.495-.985.9-1.117.9-.306 0-2.547 1.996-5.278 4.7-1.166 1.155-2.391 2.1-2.722 2.1-.331 0-.661.17-.735.379-.073.208-.763.488-1.533.622-.77.134-1.558.4-1.751.592-.199.198-.803.168-1.4-.07-.577-.23-3.389-.546-6.249-.701-6.623-.36-7.902-.883-9.971-4.079-.829-1.281-2.075-2.951-2.768-3.713-1.928-2.118-2.413-2.748-3.029-3.936-.312-.602-.807-1.094-1.1-1.094-.292 0-.532-.18-.532-.4 0-.22-.274-.4-.61-.4-.335 0-.773-.43-.973-.955-.436-1.146-3.061-3.944-4.317-4.602-.495-.259-.9-.735-.9-1.057 0-.322-.18-.586-.4-.586-.22 0-.4-.241-.4-.536 0-.294-.72-.879-1.599-1.3-.879-.42-1.702-1.079-1.827-1.464-.383-1.177-1.496-.778-3.174 1.14m134.306 144.415c1.269.133 2.405.4 2.524.594.119.193.621.351 1.114.351.493 0 1.067.165 1.276.367.209.203 1.01.428 1.78.5.852.081 1.685.485 2.129 1.033.401.495.894.9 1.095.9.441 0 1.787 1.065 2.905 2.3.448.495 1.01.9 1.248.9s.791.478 1.228 1.062a33.46 33.46 0 0 0 1.893 2.241c.605.648.999 1.34.877 1.538-.122.197-.032.359.201.359s.424.36.424.8c0 .44.135.801.3.803.379.004 1.134 1.528 2.279 4.597.99 2.652 1.303 13.899.404 14.515-.229.157-.661 1.045-.96 1.975-.299.929-.877 2.046-1.284 2.483-.406.436-.739 1.06-.739 1.387 0 .326-.18.704-.4.84-.22.136-.4.543-.4.905 0 .731-6.249 6.895-6.99 6.895-.259 0-.871.426-1.361.948-1.854 1.973-4.4 2.801-10.449 3.396-3.511.346-12.8-.478-12.8-1.134 0-.171-.495-.41-1.1-.533-.605-.122-1.46-.554-1.9-.96-1.465-1.353-3.315-2.517-3.999-2.517-.372 0-.77-.36-.885-.8-.115-.44-.368-.8-.563-.8-.194 0-.353-.178-.353-.397 0-.218-.585-.941-1.3-1.607-.715-.666-1.705-1.586-2.2-2.045-.495-.459-.9-1.159-.9-1.555 0-.396-.344-1.412-.764-2.258-2.306-4.641-2.635-6.1-2.615-11.601.011-2.925.2-5.501.427-5.8.224-.295.649-1.302.944-2.237.295-.935.698-1.7.896-1.7.197 0 .264-.153.148-.341-.116-.188.048-.683.364-1.1.316-.417.58-1.254.587-1.859.007-.605.148-1.1.313-1.1.165-.001.823-.451 1.462-1 .639-.55 1.065-1 .947-1-.444 0 2.799-3.084 4.61-4.385 1.035-.743 1.881-1.495 1.881-1.673 0-.449 2.351-1.62 2.753-1.371.181.112.671-.055 1.088-.371.417-.316 1.176-.58 1.685-.587.51-.007 1.239-.18 1.621-.385.382-.204 1.638-.452 2.792-.551 1.154-.099 2.224-.307 2.378-.461.155-.154.911-.173 1.682-.041.77.131 2.439.347 3.707.48M171.997 157.3c.002.165.461.3 1.02.3.559 0 1.285.225 1.614.5 1.217 1.019 1.621 1.312 2.526 1.83.769.439.872.439.603 0-.179-.292.268-.034.992.573.724.606 1.48 1.001 1.682.876.201-.124.366-.036.366.197s.54.424 1.2.424c.66 0 1.2.18 1.2.4 0 .22.255.4.567.4.311 0 .626.155.7.345.196.507 5.344 3.255 6.099 3.255.642 0 2.253.768 2.634 1.256.392.503 5.372 3.277 5.881 3.277.285 0 .519.15.519.334 0 .183.45.333 1 .333s1 .168 1 .373.362.488.804.628c.442.141 2.014.963 3.494 1.827 1.479.865 3.105 1.572 3.612 1.572.508 0 1.3.351 1.76.779.46.429 1.813 1.274 3.008 1.878 1.194.604 2.261 1.244 2.37 1.421.11.177.775.322 1.479.322.847 0 1.45.271 1.78.8.275.44.768.8 1.096.8.329 0 .597.18.597.4 0 .22.262.4.582.4.32 0 1.246.45 2.056 1 .811.55 1.955 1 2.542 1 .588 0 1.456.36 1.928.8.472.44 1.046.8 1.275.8.229 0 .417.167.417.372s.405.45.9.546c.772.148.743.181-.2.228-.605.029-1.103.189-1.107.354-.003.165-1.081.833-2.395 1.484s-2.976 1.686-3.693 2.299c-.718.613-1.67 1.116-2.116 1.116-.87.001-5.178 2.104-6.22 3.036-.348.311-.843.565-1.1.565-.258 0-.469.18-.469.4 0 .22-.495.404-1.1.409-.605.005-1.55.361-2.1.791-.55.43-1.315.786-1.7.791-.385.005-.7.189-.7.409 0 .22-.329.4-.73.4-.402 0-1.153.45-1.67 1-.611.65-1.374 1-2.181 1-.784 0-1.455.296-1.819.8-.317.44-.779.8-1.027.8-.719 0-2.973 1.224-2.973 1.614 0 .195-.744.555-1.653.8-1.754.473-2.969 1.066-3.864 1.89-.301.277-.713.401-.915.276-.203-.125-.368-.037-.368.196a.423.423 0 0 1-.419.424c-.231 0-1.404.63-2.608 1.4-1.204.77-2.45 1.4-2.769 1.4-.319 0-1.26.39-2.092.868a68 68 0 0 1-2.987 1.597c-.811.401-1.586.91-1.723 1.132-.137.222-.592.403-1.012.403-.948 0-3.59 1.232-3.59 1.674 0 .179-.326.326-.725.326-.398 0-1.123.372-1.611.826-.821.765-2.814.971-2.547.264.155-.412-1.203-2.69-1.603-2.69-.173 0-.314-.349-.314-.776 0-.427-.161-.876-.358-.998-.197-.121-.452-.897-.567-1.723-.368-2.64-.951-4.872-1.419-5.436-.25-.301-.571-1.398-.714-2.437-.142-1.039-.464-2.101-.715-2.36-.251-.258-.509-1.28-.574-2.27-.064-.99-.282-1.971-.485-2.18-.46-.474-.492-18.896-.033-19.18.184-.113.359-.878.39-1.7.031-.821.345-2.101.698-2.844.352-.744.537-1.623.41-1.954-.127-.331.039-.871.368-1.2.33-.33.599-1.104.599-1.722 0-.617.277-1.785.615-2.594.338-.81.718-2.227.845-3.149.126-.922.39-1.737.585-1.81.195-.074.355-.479.355-.9 0-.422.18-.767.4-.767.22 0 .4-.305.4-.678 0-1.356 1.937-2.875 3.024-2.372.533.248.971.585.973.75m154.203 2.144c-.88.335-1.96.719-2.4.855-1.748.538-3.359 1.806-3.993 3.143-.367.773-.924 1.505-1.237 1.625-.314.12-.57.549-.57.952 0 .404-.18.845-.4.981-.22.136-.4.651-.4 1.144 0 .493-.209 1.105-.465 1.361-.594.594-.573 5.416.024 5.615.243.081.441.464.441.852 0 .855 1.078 3.083 1.958 4.048.353.387.965 1.171 1.361 1.742.395.571.961 1.038 1.257 1.038.296 0 .642.27.769.6.126.33.506.6.842.6.337 0 .613.162.613.36 0 .198.765.462 1.7.587.935.125 2.477.343 3.427.485 1.031.153 2.481.042 3.6-.277 1.03-.294 1.996-.498 2.146-.454.989.293 4.727-2.156 4.727-3.097 0-.151.72-1.031 1.6-1.956 1.106-1.162 1.6-2.037 1.6-2.832 0-.632.212-1.22.471-1.306.616-.206.604-5.448-.015-6.605-.251-.469-.456-1.224-.456-1.679 0-.454-.18-.826-.4-.826-.22 0-.4-.264-.4-.586 0-.322-.36-.779-.8-1.014-.44-.235-.8-.615-.8-.843 0-.228-.225-.649-.5-.937-.275-.287-.764-.903-1.087-1.369-.323-.466-1.178-.958-1.9-1.094-.722-.135-1.313-.362-1.313-.504 0-1.156-6.805-1.596-9.4-.609m-59.8 57.558c.77.123 2.39.376 3.6.561 1.21.185 3.19.633 4.4.996 1.21.364 2.74.761 3.4.884.66.123 1.371.388 1.58.59.209.202 1.053.367 1.876.367s1.588.147 1.699.328c.112.18 1.157.37 2.324.422 1.166.053 2.292.265 2.501.473.209.207.783.377 1.276.377s1.008.18 1.144.4c.136.22.599.4 1.029.4.43 0 1.094.179 1.476.397 1.434.819 5.145 2.11 6.495 2.259 1.296.143 2.336.496 4.095 1.391.382.194.967.353 1.3.353.333 0 .605.153.605.339 0 .518 3.989 2.121 5.7 2.291.385.039.835.114 1 .167.165.054.435.076.6.05.165-.026.3.133.3.353 0 .22.345.4.767.4.421 0 .826.135.9.3.217.49 7.821 4.1 8.635 4.1.411 0 1.134.36 1.606.8.472.44 1.026.8 1.23.8.432 0 1.835.726 3.274 1.695.556.375 1.726.787 2.6.916.873.129 1.858.54 2.188.912.33.372 1.14.944 1.8 1.269.66.326 1.865 1.018 2.677 1.538s1.653.837 1.868.704c.215-.133.675.043 1.023.391.347.348.632.495.632.328 0-.167.373.096.828.585.455.489 1.535 1.195 2.4 1.57.865.374 1.572.818 1.572.986 0 .168.293.306.651.306.901 0 4.962 2.369 5.222 3.047.117.304.463.553.77.553.306 0 .557.18.557.4 0 .22.272.4.605.4.584 0 2.183.758 2.595 1.229.11.126.515.346.9.488.916.338.875 1.436-.1 2.683-.43.55-.786 1.369-.791 1.82-.005.451-.159.991-.342 1.2-.182.209-.555 1.162-.827 2.117-.272.955-1.086 2.575-1.81 3.6-.723 1.025-1.561 2.718-1.86 3.763-.3 1.045-.673 1.9-.83 1.9-.158 0-.406.405-.554.9-.147.495-.76 1.53-1.363 2.3-.602.77-1.791 2.693-2.641 4.274-.85 1.58-2.229 3.636-3.064 4.567-.835.932-1.518 2.031-1.518 2.443 0 .411-.698 1.432-1.551 2.268-.853.836-1.878 2.209-2.277 3.051-.4.842-1.457 2.28-2.349 3.197-.893.916-1.983 2.18-2.423 2.808-.44.628-1.385 1.732-2.1 2.454-.715.721-1.3 1.497-1.3 1.725a.406.406 0 0 1-.396.413c-.218 0-1.703 1.387-3.3 3.081-4.89 5.188-10.729 10.67-12.225 11.477-.374.201-1.309 1.018-2.079 1.815-.77.796-1.968 1.683-2.663 1.971-.695.287-2.093 1.318-3.107 2.289-1.014.972-2.138 1.767-2.497 1.767-.539 0-2.35 1.29-5.616 3.999-.266.221-.7.401-.965.401-.514 0-4.196 2.241-5.081 3.092-.29.279-.796.508-1.123.508-.327 0-.497.16-.376.355.12.195-.094.457-.476.582-2.959.969-5.346 2.052-6.761 3.068-.916.657-1.921 1.195-2.234 1.195-.312 0-.691.123-.842.274-.444.444-3.183 1.313-4.159 1.32-.495.003-.9.186-.9.406 0 .22-.27.4-.6.4-.33 0-.6.18-.6.4a.4.4 0 0 1-.397.4c-.683 0-3.603 1.373-3.603 1.694 0 .168-.712.306-1.581.306-.87 0-2.085.202-2.7.45-2.449.984-7.453 2.703-8.819 3.029-.495.118-.9.344-.9.502 0 .158-1.112.328-2.47.377-1.359.049-2.787.258-3.174.466-.387.207-1.515.376-2.506.376-.992 0-1.902.161-2.024.358-.223.36-1.786.647-5.826 1.066-1.21.126-2.56.391-3 .59-.44.198-2.271.437-4.069.531-1.798.093-3.49.306-3.76.473-.766.474-19.644.572-21.625.113-.96-.223-2.646-.462-3.746-.532-2.769-.176-8.149-.972-9.628-1.424-.676-.206-1.891-.375-2.7-.375-.81 0-1.472-.163-1.472-.361 0-.345-1.219-.541-6.6-1.062-2.044-.198-5.183-1.158-8.4-2.57-.44-.193-1.745-.578-2.9-.855-1.155-.277-2.1-.649-2.1-.828 0-.178-.792-.324-1.759-.324-1.141 0-2.371-.35-3.5-.995-.958-.548-2.041-.998-2.408-1-.366-.003-.726-.148-.8-.324-.224-.537-3.864-2.081-4.905-2.081-.539 0-1.092-.18-1.228-.4-.136-.22-.597-.4-1.024-.4-.427 0-.776-.165-.776-.366 0-.377-3.426-2.434-4.055-2.434-.571 0-4.133-1.732-4.278-2.081-.074-.176-.332-.319-.575-.319-.242 0-.812-.335-1.266-.743-.454-.409-1.816-1.264-3.026-1.9-1.21-.637-2.26-1.292-2.333-1.457-.074-.165-.366-.3-.65-.3-.284 0-1.304-.729-2.266-1.619-.963-.891-2.24-1.722-2.838-1.848-.598-.125-2.119-1.196-3.381-2.38-1.263-1.184-2.608-2.153-2.991-2.153s-.953-.367-1.267-.815c-.314-.449-1.459-1.484-2.545-2.3-2.339-1.76-3.165-2.535-10.625-9.968-5.798-5.778-9.578-9.851-9.861-10.627-.246-.675-2.77-3.09-3.23-3.09-.227 0-.413-.377-.413-.838 0-.984-1.34-2.982-2.865-4.273-.592-.501-1.193-1.444-1.336-2.095-.143-.651-.787-1.681-1.43-2.288-.643-.607-1.169-1.329-1.169-1.605 0-.275-.18-.501-.4-.501-.22 0-.4-.242-.4-.538 0-.296-.36-.864-.8-1.262-.44-.398-.8-.931-.8-1.184 0-.253-.578-1.35-1.283-2.438-1.797-2.769-2.72-4.443-3.519-6.378-.638-1.545-1.673-3.544-1.968-3.8-.471-.41-1.23-2.01-1.23-2.595 0-.333-.18-.605-.4-.605-.22 0-.4-.328-.4-.729 0-1.236-1.196-4.316-2.019-5.199-.429-.461-.781-1.296-.781-1.855 0-.559-.136-1.017-.302-1.017-.558 0-1.284-2.2-1.356-4.109-.04-1.04-.194-1.891-.344-1.891-.238 0-1.195-2.682-1.247-3.496-.01-.167-.163-.484-.339-.704-.176-.22-.445-.985-.598-1.7-.152-.715-.443-1.3-.646-1.3-.202 0-.368-.18-.368-.4 0-.831 1.845-.355 2.882.743.593.629 1.628 1.371 2.298 1.649.671.278 1.22.674 1.22.88 0 .206.18.264.4.128.22-.136.4-.057.4.176 0 .233.287.424.638.424.654 0 3.056 1.52 3.295 2.086.074.172.389.314.7.314.312 0 .567.18.567.4 0 .22.45.4 1 .4s1 .18 1 .4c0 .22.338.4.751.4s.975.27 1.249.6c.274.33.681.6.905.6.669 0 3.895 1.715 3.895 2.071 0 .181.324.329.72.329.396 0 .891.163 1.1.363.209.199 1.589.731 3.067 1.183 1.478.451 3.224 1.098 3.88 1.437.656.339 1.562.617 2.013.617.451 0 .82.18.82.4 0 .22.349.4.776.4.427 0 .865.142.972.316.108.174.883.363 1.723.42.84.056 1.699.274 1.908.483.21.21 1.569.381 3.021.381s2.814.174 3.028.388c.213.213 1.824.495 3.58.627 5.396.405 5.789.449 6.015.675.25.25 3.336.089 6.577-.344 2.433-.325 3.644-.439 5.324-.503.639-.025 1.017-.216.876-.443-.154-.249.741-.419 2.376-.45 3.706-.071 4.12-.112 4.457-.45.165-.165.71-.3 1.21-.3s1.021-.18 1.157-.4c.136-.22.741-.4 1.344-.4.603 0 1.267-.15 1.476-.333.741-.648 5.447-2.467 6.383-2.467.522 0 1.061-.18 1.197-.4.136-.22.687-.4 1.224-.4.537 0 .976-.18.976-.4 0-.22.27-.4.6-.4.33 0 .6-.18.6-.4 0-.22.26-.4.577-.4.66 0 3.487-1.567 3.893-2.158.149-.216.779-.457 1.4-.533 1.333-.165 3.472-1.108 4.227-1.863.61-.61 6.373-3.446 7.002-3.446.229 0 .523-.279.653-.62.131-.342 1.006-.967 1.943-1.389.938-.423 2.245-1.133 2.905-1.577.66-.445 1.438-.81 1.729-.811.29-.002.765-.228 1.055-.503 1.338-1.27 2.273-1.9 2.821-1.9.327 0 .595-.18.595-.4 0-.22.462-.4 1.027-.4.564 0 1.616-.45 2.337-1 .722-.55 1.475-1 1.674-1.001.199 0 .992-.54 1.762-1.199 1.318-1.128 1.784-1.36 2.5-1.247.165.026.3-.11.3-.301s.855-.581 1.9-.865c1.045-.284 2.437-.893 3.094-1.352 1.666-1.165 3-1.835 3.652-1.835.305 0 .554-.18.554-.4 0-.22.356-.4.791-.4.918 0 6.076-1.882 6.394-2.333.377-.535 4.483-2.067 5.54-2.067 1.046 0 3.337-.626 4.57-1.249.382-.193 1.134-.351 1.671-.351.537 0 1.215-.229 1.505-.51.291-.28.889-.503 1.329-.494.44.008 1.34-.14 2-.331 3.052-.881 5.172-1.181 10-1.414 5.917-.286 20.895-.187 23 .151" fill="#00a9e1"/><path d="M249.149 347.1c-.477.609-.471.64.051.243.33-.251.96-.545 1.4-.654.76-.186.757-.199-.051-.243-.468-.025-1.098.269-1.4.654M394.101 201.8c.004.88.086 1.193.182.695.096-.497.092-1.217-.008-1.6-.1-.382-.179.025-.174.905" fill="#00a9e1"/></g></svg>