<svg xmlns="http://www.w3.org/2000/svg" width="1425" height="1400"><path fill="none" d="M4.643 319.658h2135.829v2135.829H4.643z" style="fill:#fff;fill-opacity:0"/><path d="M619.344 671.408 654 620l34.72 51.403.073 55.666-18.083-26.954-14.416 22.135 17.96 26.943-19.704-.168-20.64.015 17.759-26.8-14.376-21.888c-5.297 9.238-11.494 17.41-17.822 25.942z" class="st0" style="fill:#f2f2f2" transform="matrix(.00135 10.95919 -10.95919 .00135 8208.705 -6467.195)"/><path d="m620 671 34-51 34 51-34 51z" class="st0" style="fill:#8c96ff" transform="scale(5.35934)rotate(89.993 650.241 127.059)"/><path d="m620 671 34-51 34 51-34 51z" class="st0" style="fill:#7057ff" transform="scale(5.35934)rotate(89.993 658.768 169.564)"/><path d="m620 671 34-51 34 51-34 51z" class="st0" style="fill:#7057ff" transform="scale(5.35934)rotate(89.993 692.722 135.52)"/><path d="m620 671 34-51 34 51-34 51z" class="st0" style="fill:#4a2bc5" transform="scale(5.35934)rotate(89.993 701.201 177.978)"/><path d="m620 671 34-51v102z" class="st0" style="fill:#8c96ff" transform="scale(5.35934)rotate(89.993 616.263 161.032)"/><path d="M654 722V620l34 51z" class="st0" style="fill:#8c96ff" transform="scale(5.35934)rotate(89.993 684.243 93.062)"/><path d="m620 671 34-51 34 51z" class="st0" style="fill:#c9cfff" transform="scale(5.35934)rotate(89.993 599.336 76.085)"/><path d="M277 396.8c0 20.6-17 37.2-38 37.2s-38-16.7-38-37.2 38-62.8 38-62.8 38 42.2 38 62.8" class="st0" style="fill:#c9cfff" transform="rotate(-90.849 833.417 101.718)scale(.99856)"/></svg>