<svg xmlns="http://www.w3.org/2000/svg" xmlns:xlink="http://www.w3.org/1999/xlink" id="Calque_1" x="0" y="0" version="1.1" viewBox="0 0 60 60" style="enable-background:new 0 0 60 60" xml:space="preserve"><style type="text/css">.st0{fill:#156faf}.st1{fill:#fb725c}</style><circle cx="29.6" cy="29.2" r="15.7" class="st0"/><g><circle cx="47.9" cy="19.2" r="2.1" class="st1"/></g><path d="M24.5,44.1c-1.7,2.3-3.4,4.3-4.9,6.2c-3.4,3.9-5.5,5.6-6.7,6.3c0.1-1.4,0.7-4.1,2.6-8.9	c2.3-5.8,6-12.8,10.3-19.8c4.3-7,8.9-13.4,13-18.1c3.4-3.9,5.5-5.6,6.7-6.3c-0.1,1.4-0.7,4.1-2.6,8.9c-0.7,1.7-1.5,3.6-2.4,5.5	c0.8,0.7,1.4,1.5,2,2.4c5.1-10.5,7.3-18.5,5-20C47.2,0.1,46.9,0,46.6,0c-4,0-14,11.2-23.3,26.4C13.2,42.8,7.6,57.8,10.9,59.8	c0.2,0.1,0.5,0.2,0.8,0.2c2.9,0,9.1-6,15.8-15.2C26.5,44.6,25.5,44.4,24.5,44.1z" class="st1"/></svg>