<svg xmlns="http://www.w3.org/2000/svg" width="1000pt" height="998pt" viewBox="0 0 1000 998"><path d="M174.96 5.41c11.34-.13 22.72.49 34.03-.59 54.34.02 108.68-.02 163.03.02 23.97-.8 47.97-.25 71.95-.41 61.33-.01 122.65.02 183.98-.01 31.65 1.24 63.4-.64 95.02 1.19 4.33.76 8.75 1.52 12.76 3.45 2.15 1.53 4.21 3.21 6.51 4.54 1.79.6 3.09-1.07 4.48-1.91 1.46-1.04 2.95-2.06 4.48-3.03 6.34-2.25 12.99-3.78 19.77-3.23 13.98-1.08 28.02-.44 42.03-.61 6.86.15 13.76-.38 20.6.42 7.66.71 15.43-.6 23.03.91 11.66.96 23.16 3.83 34.06 8.03 1.63.66 3.28 1.3 4.92 1.96 1.34.67 2.68 1.36 4.02 2.06.51.25 1.54.75 2.06 1 6.06 2.7 11.1 7.11 16.85 10.37 2.37 2.3 4.77 4.59 7.47 6.51 3.11 2.87 6.19 5.8 8.9 9.06.37.39 1.1 1.16 1.47 1.54 1.12 1.6 2.38 3.1 3.51 4.71l.46-.01c.8 1.36 1.63 2.71 2.44 4.08l.52-.1c1.84 3.08 3.91 6.02 5.86 9.03.72 1.02 1.47 2.03 2.24 3.04.42 1.06.85 2.12 1.29 3.18.72.24 1.45.5 2.19.75-.49.06-1.46.17-1.95.23 1 1.19 2.02 2.37 2.97 3.62.2.52.61 1.56.81 2.08.25.5.76 1.48 1.01 1.97 1.02 2.01 2.04 4.03 3.07 6.04.97 2.36 1.91 4.75 3.01 7.06 1.65 3.18 2.6 6.65 3.93 9.97 1.93 4.87 3.41 9.9 5.1 14.85 5.41 16.61 8.84 33.76 12.73 50.77 4.02 21 7.91 42.11 9.24 63.46 1.16 4.74.54 9.62.89 14.43 1.59 8.97.62 18.12.85 27.17-.58 6.23.41 12.46-.04 18.68-.29-4.35.28-8.77-.74-13.06-.26 20.05-3.4 39.97-7.45 59.6-2.74 12.31-6.34 24.41-10.09 36.44-3.83 10.34-7.19 20.86-11.5 31.02-.87 2.36-1.8 4.71-2.97 6.95-.67 1.67-1.31 3.36-1.96 5.05-.67 1.32-1.35 2.64-2.02 3.96-.64 1.69-1.29 3.38-1.95 5.07-.85 1.6-1.69 3.2-2.5 4.83-.39.74-.76 1.49-1.12 2.25-1.27 1.88-2.39 3.84-3.43 5.84-2.2 4.19-4.65 8.25-7.58 11.97-2.15 3.33-4.41 6.59-6.86 9.71-2.1 2.58-4.19 5.17-6.38 7.68-3.92 4.8-9.06 8.25-13.58 12.42-1.26.79-2.51 1.61-3.76 2.39v.51c-1.13.67-2.22 1.35-3.36 1.97-3.15 1.98-6.3 3.97-9.66 5.57-.49.24-1.47.71-1.96.95-2.21 1.2-4.5 2.26-6.88 3.09-2.61 1.09-5.23 2.14-7.93 2.98-10.35 3.09-21.04 4.85-31.77 5.7-5.04-.12-10.06.04-15.06.57-27.69.08-55.37-.02-83.06.04-3.44.19-7.1.02-10.19 1.8-.72 2.81.04 5.66 1.11 8.27.92 3.51 1.74 7.09 1.72 10.75-.01 23.66-.04 47.33.01 71-.35 14.7-4 29.18-9.74 42.67-.32 1.03-.66 2.05-1.03 3.07a58.834 58.834 0 0 1-4.08 8.88c-.42 1.22-.84 2.45-1.23 3.7-.59 1.09-1.18 2.18-1.77 3.28-1.63 3.71-3.19 7.46-4.96 11.11-.68 1.33-1.36 2.65-2.04 3.99-.65 1.33-1.32 2.65-1.98 3.99-.99 2.01-2 4.01-3.02 6-.79 1.62-1.6 3.24-2.4 4.86a95.778 95.778 0 0 0-3.16 5.24c-.47.94-.93 1.89-1.38 2.85-.25.49-.74 1.48-.98 1.97-.24.52-.73 1.57-.97 2.09-1.35 2.32-2.71 4.63-4.09 6.94-1.2 2.39-2.56 4.7-4.06 6.92-.2.54-.62 1.62-.83 2.16-1.31 2.3-2.7 4.56-4.15 6.78-.44 1.03-.87 2.07-1.29 3.12-4.86 7.53-9.01 15.48-13.74 23.09-1.01 1.67-2.03 3.32-3.01 5.01-.98 1.62-1.96 3.23-2.9 4.88-7.42 11.96-14.64 24.05-22.02 36.04-3.71 5.57-6.93 11.45-10.89 16.86-2.54 4.88-5.84 9.31-8.56 14.09-3.96 5.51-7.47 11.33-11.4 16.87-1.92 3.86-4.41 7.41-7.02 10.84-.46 1.45-.87 2.92-1.3 4.4-.11-.46-.34-1.37-.45-1.82-1.14 1.89-2.25 3.8-3.34 5.73-.82 1.25-1.65 2.49-2.42 3.77-.73 1.09-1.47 2.17-2.19 3.27a156.35 156.35 0 0 0-3.93 5.94c-4.72 6.96-9.38 13.96-13.99 20.99-4.07 5.84-7.82 11.89-11.96 17.68-7.58 11.5-15.63 22.69-23 34.33l-.47-.02c-2.12 3.36-4.4 6.62-6.53 9.98l-.51.07c-.88 1.44-1.8 2.85-2.72 4.27-4.95 5.85-8.34 12.82-13.21 18.74-2.98 4.81-8.35 7.17-13.14 9.76-.48.1-1.42.29-1.9.39-4.71 1.45-9.85.89-14.67.3-1-.58-2.02-1.11-3.04-1.59-.44.11-1.33.34-1.77.46l.21-1.16c-5.44-1.31-9.1-6.08-12.52-10.16l-.35-.01c-1.37-2.42-2.93-4.73-4.74-6.83-1.06-1.51-2.14-2.99-3.25-4.43-2.2-2.9-4.28-5.87-6.75-8.53-.92-1.4-1.94-2.72-2.96-4.02-1.03-1.49-2.14-2.91-3.26-4.31-2.96-4.03-5.94-8.03-9-11.97-1.92-2.59-3.83-5.17-5.6-7.85l-.48-.11c-.81-1.35-1.65-2.66-2.45-3.99l-.53-.02c-.83-1.34-1.67-2.66-2.47-3.99l-.5-.01c-1.46-2.34-3.01-4.61-4.55-6.88l-.39-.17c-1.02-1.43-2.06-2.82-3.11-4.21-1.52-2.22-3.05-4.42-4.48-6.69l-.51-.03c-.81-1.34-1.65-2.65-2.47-3.97l-.5-.05c-3.08-5.3-7.61-9.55-10.51-14.98l-.51.01c-.82-1.35-1.66-2.67-2.47-4.01l-.5-.04c-1.49-2.33-3.04-4.62-4.53-6.94l-.41-.06c-1.17-1.72-2.51-3.3-3.7-4.98-.64-1-1.28-2-1.87-3-1.03-1.3-2.07-2.57-3.08-3.86-.47-.83-.95-1.65-1.42-2.45-5.83-7.89-11.28-16.04-17.09-23.93-.88-1.39-1.77-2.77-2.62-4.16l-2.07-2.25c-.97-1.61-2.09-3.12-3.27-4.57-2.18-3.23-4.34-6.47-6.49-9.71l-.47-.08c-2.99-4.73-6.09-9.4-9.45-13.87-.54-.81-1.07-1.61-1.6-2.4-6.01-8.85-11.91-17.79-17.84-26.7-4.68-6.09-8.68-12.65-13-18.99-.72-1.01-1.42-2.03-2.09-3.05-.85-1.36-1.73-2.67-2.6-3.99-3.42-5.79-7.31-11.26-10.85-16.97-.77-1.28-1.54-2.54-2.34-3.79-2-3.02-3.83-6.14-5.67-9.26-3.36-5.25-6.56-10.6-9.97-15.82-1.19-2.11-2.45-4.19-3.67-6.27-1.01-2-2.14-3.93-3.33-5.81-1.26-2.06-2.49-4.14-3.68-6.23-1.21-2.37-2.58-4.63-4.06-6.83-.42-1.01-.83-2.02-1.23-3.02-1.23-2-2.51-3.96-3.7-5.97-.76-1.64-1.55-3.25-2.31-4.88-1.25-2.37-2.43-4.77-3.64-7.16-.65-1.34-1.31-2.67-1.98-3.98-.98-2.01-1.99-4.01-3.02-5.99-.48-.98-.96-1.95-1.44-2.91-.65-1.68-1.3-3.36-1.99-5.02-.81-1.56-1.51-3.17-2.11-4.81-.73-2.06-1.47-4.12-2.37-6.1-4.35-13.11-6.16-26.92-5.92-40.7-.01-28.32.04-56.64-.03-84.96-7.04 2.37-14.45 2.85-21.8 3.48-16.68.03-33.36-.02-50.04.02-6.33.16-12.58-1.18-18.91-1.05-14.63-1.42-29.29-4.51-42.7-10.7-1.98-.8-3.97-1.59-5.96-2.39-2.21-1.36-4.45-2.67-6.7-3.96-3.89-2.21-7.75-4.48-11.27-7.25a38.727 38.727 0 0 0-4.04-2.96c-1.53-1.48-3.13-2.89-4.97-3.95-4.24-3.95-8.34-8.06-12.3-12.29-3.9-4.6-7.5-9.44-11.21-14.19-2.4-3.89-5.19-7.52-7.39-11.53-.75-1.22-1.53-2.41-2.28-3.62-1.01-1.99-2-3.98-2.96-5.98-.68-1.34-1.37-2.66-2.05-3.99-1.14-2.29-2.13-4.66-3.04-7.05-13.18-31.18-19.67-64.66-25.2-97.9-1.44-9.23-2.49-18.51-3.5-27.78.26-5.69-1.27-11.25-1.06-16.92.19-12.61-.29-25.25.29-37.84-1.09.73-1.18 2.48-1.22 3.67.16 13.26.15 26.53.04 39.8-.28-14.52.03-29.07-.25-43.58 2.57-4 .6-8.82 1.18-13.28.09 3.54.06 7.12.78 10.61-.08-9.54 1.59-18.94 2.46-28.41 2.81-20.27 6.7-40.38 11.64-60.23 2.93-12.13 6.58-24.09 11.39-35.62 1.12-2.66 2.25-5.32 3.51-7.92.82-1.61 1.64-3.23 2.44-4.86.98-1.93 1.95-3.88 2.89-5.83.59-.7 1.18-1.39 1.77-2.09.43-1.04.86-2.07 1.29-3.1 2.92-3.83 5.43-7.94 8.08-11.96l.42-.06c1.2-1.65 2.46-3.26 3.64-4.92l.29-.16c1.62-1.84 3.16-3.75 4.64-5.71 1.12-1.17 2.26-2.33 3.38-3.5 2.61-2.95 5.36-5.78 8.32-8.38 2.19-1.23 3.97-3.01 5.69-4.81 1.86-1.11 3.61-2.4 5.27-3.81l.1-.38c2.37-1.41 4.7-2.92 6.7-4.85 3.05-1.93 6.19-3.69 9.19-5.7.51-.23 1.54-.68 2.05-.91 3.88-2.21 7.78-4.41 11.95-6.02 1.66-.87 3.32-1.75 4.95-2.67.52-.04 1.56-.11 2.08-.15.49-.32 1.48-.98 1.97-1.31 4.94-1.65 9.8-3.58 14.83-4.96 12.94-3.84 26.37-5.69 39.79-6.72M74.15 72.17c-19.02 21.07-30.81 47.81-36.75 75.37-10.97 44.15-17.07 89.9-13.4 135.41 1.83 23.61 6.34 46.92 11.13 70.09 2.81 11.33 5.33 22.76 9.25 33.78 8.67 28.88 24.71 56.35 48.8 74.99 18.88 14.88 42.93 22.27 66.83 22.55 25.91.05 51.82.06 77.73-.03-.06-31.44.04-62.88.41-94.31.21-9.66-.32-19.38 1.41-28.93 5.01-30.5 22.5-57.85 45.26-78.27 23.32-20.86 52.74-35.41 83.97-39.05 17.33-2.04 34.79-.84 52.19-1.09 66.69-.06 133.39.04 200.08-.29 46.01-1.81 88.92-34.13 103.6-77.74 6.51-18.09 6.77-37.64 6.26-56.64.04-27.64-.07-55.28-.02-82.93-32.97-.43-65.95-.15-98.93-.31-149.66-.45-299.33.24-448.99.2-40.69.02-81.4 16.92-108.83 47.2m680.86-47.23v76.03c-.05 12.35.29 24.72-.68 37.06-1.72 17.52-6.69 34.76-14.87 50.37-22.54 44.42-68.62 76.28-118.44 80.33-15.33 1.04-30.71.41-46.07.58-59.32 0-118.64-.01-177.96-.01-10.34.05-20.68-.25-30.99.61-17.63 1.83-34.88 7.63-49.88 17.12-32.8 20.2-55 57.3-55.26 96.07-.2 70.97-.01 141.95-.1 212.92-.05 4.85.29 9.74 1.61 14.43 4.28 16.33 12.64 31.11 20.12 46.11 20.61 37.57 43.94 73.56 67.89 109.07 20.48 30.62 41.92 60.59 63.38 90.53 16.66 23.57 34 46.65 51.04 69.95 13.19 17.65 26.57 35.15 39.75 52.81 29.02-41.6 57.73-83.43 85.39-125.95 35.97-54.71 71.09-110.07 102.34-167.65 6.29-12.43 13.06-24.63 18.54-37.46 7.64-16.99 15.98-34.77 15.15-53.85-.02-26.69 0-53.38-.01-80.07H493.51c0-9.6-.02-19.2.01-28.8 112.48.04 224.97 0 337.46.01 10.05 0 20.18.13 30.14-1.45 16.41-2.24 32.3-8.86 44.98-19.58 14.76-12.21 25.09-28.77 33.45-45.78 5.75-12.73 11.26-25.58 15.76-38.8 14.59-38.71 22.02-80.14 21.11-121.53-.5-40.63-8.51-80.69-18.22-120-5.55-20.92-12.76-41.61-23.98-60.21-8.89-14.87-20.66-28.3-35.42-37.57-16.51-10.64-36.33-15.11-55.81-15.23-29.33-.14-58.65-.02-87.98-.06Z"/><path d="M614.51 572.73c9.99-2.19 20.77-.97 29.86 3.79 10.53 5.31 18.71 15.15 21.82 26.55 3.28 11.41 1.42 24.16-4.88 34.22-5.54 8.82-14.27 15.7-24.31 18.59-11.47 3.56-24.42 2.07-34.77-4.04-9.75-5.65-17.15-15.23-20.04-26.13-2.84-10.51-1.53-22.15 3.85-31.65 5.85-10.76 16.54-18.64 28.47-21.33m1.73 21.45c-2.68 1.31-5.23 2.85-7.56 4.71l-.13.27c-1.11.61-2.01 1.45-2.52 2.62-.72 1.63-1.52 3.23-2.39 4.8-1.68 4.35-1.02 9.07-.99 13.61.39 1.04.76 2.09 1.13 3.16 2.23 5.77 7.07 9.93 12.86 11.92 5.87 1.45 12.09 1.39 17.74-.95 4.02-1.97 6.93-5.56 9.64-9.01.94-3.41 2.19-6.79 2.43-10.34-.12-3.42-1.26-6.71-2.2-9.97-.78-1.14-1.5-2.3-2.07-3.55-2.03-2.69-4.72-4.74-7.64-6.37-5.74-1.65-11.75.17-17.61-.6 4.82-.13 9.68.23 14.45-.7-5.03-.16-10.2-.8-15.14.4Z"/><path fill="#3673a5" d="M74.15 72.17c27.43-30.28 68.14-47.18 108.83-47.2 149.66.04 299.33-.65 448.99-.2 32.98.16 65.96-.12 98.93.31-.05 27.65.06 55.29.02 82.93.51 19 .25 38.55-6.26 56.64-14.68 43.61-57.59 75.93-103.6 77.74-66.69.33-133.39.23-200.08.29-17.4.25-34.86-.95-52.19 1.09-31.23 3.64-60.65 18.19-83.97 39.05-22.76 20.42-40.25 47.77-45.26 78.27-1.73 9.55-1.2 19.27-1.41 28.93-.37 31.43-.47 62.87-.41 94.31-25.91.09-51.82.08-77.73.03-23.9-.28-47.95-7.67-66.83-22.55-24.09-18.64-40.13-46.11-48.8-74.99-3.92-11.02-6.44-22.45-9.25-33.78-4.79-23.17-9.3-46.48-11.13-70.09-3.67-45.51 2.43-91.26 13.4-135.41 5.94-27.56 17.73-54.3 36.75-75.37Z"/><path fill="#ffd147" d="M755.01 24.94c29.33.04 58.65-.08 87.98.06 19.48.12 39.3 4.59 55.81 15.23 14.76 9.27 26.53 22.7 35.42 37.57 11.22 18.6 18.43 39.29 23.98 60.21 9.71 39.31 17.72 79.37 18.22 120 .91 41.39-6.52 82.82-21.11 121.53-4.5 13.22-10.01 26.07-15.76 38.8-8.36 17.01-18.69 33.57-33.45 45.78-12.68 10.72-28.57 17.34-44.98 19.58-9.96 1.58-20.09 1.45-30.14 1.45-112.49-.01-224.98.03-337.46-.01-.03 9.6-.01 19.2-.01 28.8h232.45c.01 26.69-.01 53.38.01 80.07.83 19.08-7.51 36.86-15.15 53.85-5.48 12.83-12.25 25.03-18.54 37.46-31.25 57.58-66.37 112.94-102.34 167.65-27.66 42.52-56.37 84.35-85.39 125.95-13.18-17.66-26.56-35.16-39.75-52.81-17.04-23.3-34.38-46.38-51.04-69.95-21.46-29.94-42.9-59.91-63.38-90.53-23.95-35.51-47.28-71.5-67.89-109.07-7.48-15-15.84-29.78-20.12-46.11-1.32-4.69-1.66-9.58-1.61-14.43.09-70.97-.1-141.95.1-212.92.26-38.77 22.46-75.87 55.26-96.07 15-9.49 32.25-15.29 49.88-17.12 10.31-.86 20.65-.56 30.99-.61 59.32 0 118.64.01 177.96.01 15.36-.17 30.74.46 46.07-.58 49.82-4.05 95.9-35.91 118.44-80.33 8.18-15.61 13.15-32.85 14.87-50.37.97-12.34.63-24.71.68-37.06V24.94m-140.5 547.79c-11.93 2.69-22.62 10.57-28.47 21.33-5.38 9.5-6.69 21.14-3.85 31.65 2.89 10.9 10.29 20.48 20.04 26.13 10.35 6.11 23.3 7.6 34.77 4.04 10.04-2.89 18.77-9.77 24.31-18.59 6.3-10.06 8.16-22.81 4.88-34.22-3.11-11.4-11.29-21.24-21.82-26.55-9.09-4.76-19.87-5.98-29.86-3.79Z"/></svg>