<?xml version="1.0" encoding="utf-8"?>
<!-- Generator: Adobe Illustrator 27.7.0, SVG Export Plug-In . SVG Version: 6.00 Build 0)  -->
<svg version="1.1"
	 id="svg2" xmlns:dc="http://purl.org/dc/elements/1.1/" xmlns:cc="http://creativecommons.org/ns#" xmlns:rdf="http://www.w3.org/1999/02/22-rdf-syntax-ns#" xmlns:svg="http://www.w3.org/2000/svg" xmlns:sodipodi="http://sodipodi.sourceforge.net/DTD/sodipodi-0.dtd" xmlns:inkscape="http://www.inkscape.org/namespaces/inkscape" inkscape:export-filename="python-logo-only.png"
	 xmlns="http://www.w3.org/2000/svg" xmlns:xlink="http://www.w3.org/1999/xlink" x="0px" y="0px" viewBox="0 0 512 512"
	 style="enable-background:new 0 0 512 512;" xml:space="preserve">
<style type="text/css">
	.st0{fill:url(#path1948_00000164512524769639617290000007701214754312236421_);}
	.st1{fill:url(#path1950_00000073683781325410490490000008106546262285949572_);}
</style>
<sodipodi:namedview  bordercolor="#666666" borderopacity="1.0" gridtolerance="10.0" guidetolerance="10.0" height="40mm" id="base" inkscape:current-layer="svg2" inkscape:cx="91.558698" inkscape:cy="47.9926" inkscape:deskcolor="#d1d1d1" inkscape:document-units="pt" inkscape:pagecheckerboard="0" inkscape:pageopacity="0.0" inkscape:pageshadow="2" inkscape:showpageshadow="2" inkscape:window-height="2080" inkscape:window-maximized="0" inkscape:window-width="1976" inkscape:window-x="1092" inkscape:window-y="72" inkscape:zoom="2.1461642" objecttolerance="10.0" pagecolor="#ffffff" showgrid="false" units="mm" width="210mm">
	</sodipodi:namedview>
<g>
	
		<linearGradient id="path1948_00000141439342825999592830000011578373960121641655_" gradientUnits="userSpaceOnUse" x1="47.6674" y1="363.376" x2="544.3029" y2="-63.912" gradientTransform="matrix(0.5625 0 0 -0.568 -36.442 220.9665)">
		<stop  offset="0" style="stop-color:#5A9FD4"/>
		<stop  offset="1" style="stop-color:#306998"/>
	</linearGradient>
	<path id="path1948" style="fill:url(#path1948_00000141439342825999592830000011578373960121641655_);" d="M253,0
		c-20.9,0.1-40.8,1.9-58.4,5c-51.7,9.1-61.1,28.2-61.1,63.5V115h122.1v15.5H133.5H87.7c-35.5,0-66.6,21.3-76.3,61.9
		C0.2,239-0.3,268,11.4,316.6c8.7,36.2,29.4,61.9,64.9,61.9h42v-55.8c0-40.3,34.9-75.9,76.3-75.9h122c34,0,61.1-28,61.1-62.1V68.5
		c0-33.1-27.9-58-61.1-63.5C295.6,1.5,273.9-0.1,253,0z M186.9,37.4c12.6,0,22.9,10.5,22.9,23.3c0,12.8-10.3,23.2-22.9,23.2
		C174.3,84,164,73.6,164,60.8C164,47.9,174.3,37.4,186.9,37.4z"/>
	
		<linearGradient id="path1950_00000088850351494719377020000004400103180734816896_" gradientUnits="userSpaceOnUse" x1="736.3053" y1="-322.5245" x2="558.9571" y2="-71.6074" gradientTransform="matrix(0.5625 0 0 -0.568 -36.442 220.9665)">
		<stop  offset="0" style="stop-color:#FFD43B"/>
		<stop  offset="1" style="stop-color:#FFE873"/>
	</linearGradient>
	<path id="path1950" style="fill:url(#path1950_00000088850351494719377020000004400103180734816896_);" d="M392.9,130.6v54.2
		c0,42.1-35.7,77.4-76.3,77.4h-122c-33.4,0-61.1,28.6-61.1,62.1v116.3c0,33.1,28.8,52.6,61.1,62.1c38.7,11.4,75.7,13.4,122,0
		c30.8-8.9,61.1-26.8,61.1-62.1v-46.6h-122v-15.5h122h61.1c35.5,0,48.7-24.8,61.1-61.9c12.8-38.3,12.2-75.1,0-124.1
		c-8.8-35.3-25.5-61.9-61.1-61.9L392.9,130.6z M324.3,425.1c12.7,0,22.9,10.4,22.9,23.2c0,12.9-10.3,23.3-22.9,23.3
		c-12.6,0-22.9-10.5-22.9-23.3C301.4,435.5,311.7,425.1,324.3,425.1z"/>
</g>
</svg>
