<?xml version="1.0" encoding="utf-8"?>
<!-- Generator: Adobe Illustrator 27.7.0, SVG Export Plug-In . SVG Version: 6.00 Build 0)  -->
<svg version="1.1" id="Layer_1" xmlns="http://www.w3.org/2000/svg" xmlns:xlink="http://www.w3.org/1999/xlink" x="0px" y="0px"
	 viewBox="0 0 1024 1024" style="enable-background:new 0 0 1024 1024;" xml:space="preserve">
<style type="text/css">
	.st0{fill-rule:evenodd;clip-rule:evenodd;fill:url(#SVGID_1_);stroke:#DAEFFF;stroke-width:32;}
	.st1{fill-rule:evenodd;clip-rule:evenodd;fill:#FFFFFF;}
	.st2{fill-rule:evenodd;clip-rule:evenodd;fill:#C8E8FF;}
</style>
<g>
	
		<linearGradient id="SVGID_1_" gradientUnits="userSpaceOnUse" x1="-446.2981" y1="1052.9238" x2="-445.8745" y2="1052.1558" gradientTransform="matrix(992 0 0 -992 442993 1044565)">
		<stop  offset="0" style="stop-color:#72B4F5"/>
		<stop  offset="1" style="stop-color:#356EBF"/>
	</linearGradient>
	<circle class="st0" cx="512" cy="512" r="496"/>
	<path class="st1" d="M712.9,332.4c44.4,0,78.9,15.2,103.4,45.7c24.7,30.2,37,73.1,37,128.7c0,55.5-12.4,98.8-37.3,129.6
		c-24.7,30.7-59,46-103.1,46c-22,0-42.2-4-60.5-12c-18.1-8.2-33.3-20.8-45.7-37.6H603l-10.8,43.5h-36.7V196h51.2v116.6
		c0,26.1-0.8,49.6-2.5,70.4h2.5C630.6,349.3,666,332.4,712.9,332.4L712.9,332.4z M705.5,375.3c-35,0-60.2,10.1-75.6,30.2
		c-15.4,20-23.1,53.7-23.1,101.2s7.9,81.6,23.8,102.1c15.8,20.4,41.2,30.5,76.2,30.5c31.5,0,54.9-11.4,70.4-34.3
		c15.4-23,23.1-56.1,23.1-99.1c0-44-7.7-76.8-23.1-98.4C761.7,386.1,737.8,375.3,705.5,375.3L705.5,375.3z"/>
	<path class="st2" d="M317.3,639.5c34.2,0,59-9.2,74.7-27.5c15.6-18.3,24-49.2,25-92.6V508c0-47.3-8-81.4-24.1-102.1
		c-16-20.8-41.5-31.2-76.2-31.2c-30,0-53.1,11.7-69.1,35.2c-15.8,23.2-23.8,56.2-23.8,98.8c0,42.6,7.8,75.1,23.5,97.5
		C263.1,628.3,286.4,639.4,317.3,639.5L317.3,639.5z M309.6,682.3c-43.6,0-77.7-15.3-102.1-46c-24.5-30.7-36.7-73.4-36.7-128.4
		c0-55.3,12.3-98.5,37-129.6c24.7-31.1,59-46.6,103.1-46.6c46.3,0,81.9,17.5,106.8,52.5h2.8l7.4-46.3h40.4v490h-51.2V683.3
		c0-20.6,1.1-38.1,3.4-52.5h-4C392.7,665.2,357.1,682.3,309.6,682.3L309.6,682.3z"/>
</g>
</svg>
