<svg xmlns="http://www.w3.org/2000/svg" xmlns:xlink="http://www.w3.org/1999/xlink" width="48" height="48" viewBox="0 0 48 48"><linearGradient id="a"><stop offset="0" stop-color="#292c2f"/><stop offset="1" stop-opacity="0"/></linearGradient><linearGradient id="b" x1="0" x2="0" y1="44" y2="4" gradientUnits="userSpaceOnUse"><stop offset="0" stop-color="#b0b8b8"/><stop offset="1" stop-color="#eff1f1"/></linearGradient><linearGradient id="c" x1="8" x2="8" y1="16" y2="8" gradientUnits="userSpaceOnUse"><stop offset="0" stop-color="#54a3d8"/><stop offset="1" stop-color="#7cbcec"/></linearGradient><linearGradient id="d" x1="18" x2="18" y1="27" y2="19" gradientUnits="userSpaceOnUse"><stop offset="0" stop-color="#b154d8"/><stop offset="1" stop-color="#cb7cec"/></linearGradient><linearGradient id="e" x1="28" x2="28" y1="38" y2="30" gradientUnits="userSpaceOnUse"><stop offset="0" stop-color="#ffa92d"/><stop offset="1" stop-color="#ffc169"/></linearGradient><linearGradient id="f" x1="8.292" x2="44" y1="26.146" y2="26.146" gradientUnits="userSpaceOnUse"><stop offset="0"/><stop offset="1" stop-opacity="0"/></linearGradient><linearGradient id="g" x1="8.292" x2="36.584" y1="15.708" y2="44" gradientUnits="userSpaceOnUse" xlink:href="#a"/><linearGradient id="h" x1="18.292" x2="35.585" y1="26.708" y2="44" gradientUnits="userSpaceOnUse" xlink:href="#a"/><linearGradient id="i" x1="28.292" x2="34.584" y1="37.708" y2="44" gradientUnits="userSpaceOnUse" xlink:href="#a"/><rect width="40" height="40" x="4" y="4" fill="url(#b)" rx="4"/><path fill="#536161" d="m11 17v6h1 5v-1h-5v-5z"/><path fill="#536161" d="m21 28v6h1 5v-1h-5v-5z"/><g fill="url(#f)" opacity=".2"><path fill="url(#g)" d="m8.292225 15.707775 9.707775 9.707775 17-5.83095-11.2923-11.2923z" opacity="1"/><path fill="url(#h)" d="m18.2923 26.7077 9.7077 9.7077 11.7078-6.1232 4.2922 4.2922v-7l-8.2922-8.2922z" opacity="1"/><path fill="url(#i)" d="m28.2922 37.7078 6.2922 6.2922h9.4156v-9.4156l-4.2922-4.2922z" opacity="1"/></g><rect width="16" height="8" x="8" y="8" fill="url(#c)" rx="1"/><rect width="18" height="8" x="18" y="19" fill="url(#d)" rx="1"/><rect width="12" height="8" x="28" y="30" fill="url(#e)" rx="1"/><path fill="#292c2f" d="m4 39v1c0 2.216 1.784 4 4 4h32c2.216 0 4-1.784 4-4v-1c0 2.216-1.784 4-4 4h-32c-2.216 0-4-1.784-4-4z" opacity=".2"/></svg>