<svg height="48" viewBox="0 0 48 48" width="48" xmlns="http://www.w3.org/2000/svg" xmlns:xlink="http://www.w3.org/1999/xlink"><linearGradient id="a"><stop offset="0" stop-color="#292c2f"/><stop offset="1" stop-opacity="0"/></linearGradient><linearGradient id="b" gradientUnits="userSpaceOnUse" x1="0" x2="0" y1="44" y2="4"><stop offset="0" stop-color="#b0b8b8"/><stop offset="1" stop-color="#eff1f1"/></linearGradient><linearGradient id="c" gradientUnits="userSpaceOnUse" x1="8" x2="8" y1="16" y2="8"><stop offset="0" stop-color="#54a3d8"/><stop offset="1" stop-color="#7cbcec"/></linearGradient><linearGradient id="d" gradientUnits="userSpaceOnUse" x1="18" x2="18" y1="27" y2="19"><stop offset="0" stop-color="#b154d8"/><stop offset="1" stop-color="#cb7cec"/></linearGradient><linearGradient id="e" gradientUnits="userSpaceOnUse" x1="28" x2="28" y1="38" y2="30"><stop offset="0" stop-color="#ffa92d"/><stop offset="1" stop-color="#ffc169"/></linearGradient><linearGradient id="f" gradientUnits="userSpaceOnUse" x1="8.292225" x2="44" y1="26.14615" y2="26.14615"><stop offset="0"/><stop offset="1" stop-opacity="0"/></linearGradient><linearGradient id="g" gradientUnits="userSpaceOnUse" x1="8.292225" x2="36.58445" xlink:href="#a" y1="15.707775" y2="44"/><linearGradient id="h" gradientUnits="userSpaceOnUse" x1="18.292299" x2="35.584599" xlink:href="#a" y1="26.707701" y2="44"/><linearGradient id="i" gradientUnits="userSpaceOnUse" x1="28.2922" x2="34.584396" xlink:href="#a" y1="37.707802" y2="44"/><rect fill="url(#b)" height="40" rx="4" width="40" x="4" y="4"/><path d="m11 17v6h1 5v-1h-5v-5z" fill="#536161"/><path d="m21 28v6h1 5v-1h-5v-5z" fill="#536161"/><g fill="url(#f)" opacity=".2"><path d="m8.292225 15.707775 9.707775 9.707775 17-5.83095-11.2923-11.2923z" fill="url(#g)" opacity="1"/><path d="m18.2923 26.7077 9.7077 9.7077 11.7078-6.1232 4.2922 4.2922v-7l-8.2922-8.2922z" fill="url(#h)" opacity="1"/><path d="m28.2922 37.7078 6.2922 6.2922h9.4156v-9.4156l-4.2922-4.2922z" fill="url(#i)" opacity="1"/></g><rect fill="url(#c)" height="8" rx="1" width="16" x="8" y="8"/><rect fill="url(#d)" height="8" rx="1" width="18" x="18" y="19"/><rect fill="url(#e)" height="8" rx="1" width="12" x="28" y="30"/><path d="m4 39v1c0 2.216 1.784 4 4 4h32c2.216 0 4-1.784 4-4v-1c0 2.216-1.784 4-4 4h-32c-2.216 0-4-1.784-4-4z" fill="#292c2f" opacity=".2"/></svg>