<!DOCTYPE svg PUBLIC "-//W3C//DTD SVG 20010904//EN" "http://www.w3.org/TR/2001/REC-SVG-20010904/DTD/svg10.dtd">
<svg version="1.0" xmlns="http://www.w3.org/2000/svg" width="630px" height="604px" viewBox="0 0 6300 6040" preserveAspectRatio="xMidYMid meet">
<g id="layer101" fill="#0e331c" stroke="none">
 <path d="M2868 5943 c-37 -3 -48 -8 -48 -21 -1 -25 -66 -53 -96 -42 -13 5 -24 14 -24 20 0 5 -6 10 -14 10 -14 0 -26 -29 -26 -63 0 -10 -10 -29 -23 -42 -19 -21 -36 -26 -125 -35 -69 -7 -108 -7 -121 -1 -15 8 -24 5 -45 -15 -26 -26 -59 -27 -55 -2 1 7 1 26 0 42 -1 25 -4 27 -23 22 -13 -4 -28 -8 -34 -9 -7 -2 -18 -8 -25 -13 -23 -18 -143 -46 -163 -38 -11 4 -21 2 -26 -6 -4 -6 -25 -13 -45 -13 -34 -2 -40 -6 -47 -32 -15 -57 -41 -93 -83 -114 -37 -19 -48 -20 -104 -10 -52 10 -65 9 -72 -2 -13 -20 -11 -27 6 -31 12 -2 9 -11 -15 -40 -37 -44 -53 -49 -44 -12 7 26 6 26 -30 20 -108 -18 -100 -14 -124 -74 -12 -31 -18 -58 -14 -62 13 -10 43 -73 37 -78 -3 -4 -15 -1 -25 6 -27 17 -37 15 -43 -8 -5 -18 -8 -19 -37 -6 -37 15 -61 46 -35 46 8 0 15 -4 15 -10 0 -16 32 -11 46 8 17 22 17 44 1 66 -12 17 -15 16 -43 -13 -16 -17 -36 -31 -44 -31 -25 0 -103 -44 -114 -65 -15 -26 -23 -34 -78 -75 -48 -35 -60 -63 -33 -74 24 -9 18 -23 -15 -35 -31 -10 -35 -18 -22 -37 10 -16 69 -27 77 -15 9 16 25 13 25 -4 0 -8 -18 -24 -40 -35 -47 -24 -50 -24 -50 -4 0 13 -7 15 -31 10 -26 -5 -32 -2 -36 15 -10 35 -46 20 -57 -24 -9 -35 -12 -37 -38 -32 -31 7 -35 -4 -18 -51 9 -22 7 -30 -10 -46 -11 -10 -20 -23 -20 -28 0 -5 -21 -10 -48 -12 -38 -2 -46 -6 -44 -20 4 -26 -16 -58 -44 -68 -27 -11 -32 -41 -9 -60 24 -20 18 -28 -24 -40 -23 -6 -42 -18 -46 -29 -4 -13 -12 -17 -30 -13 -14 2 -25 1 -25 -4 0 -25 24 -141 31 -150 10 -13 2 -24 -18 -24 -8 0 -13 11 -13 29 0 16 -9 39 -20 52 -17 21 -21 22 -30 9 -13 -19 -13 -60 0 -60 6 0 10 -5 10 -11 0 -6 -8 -8 -18 -5 -14 5 -23 -4 -40 -44 -12 -27 -26 -50 -32 -50 -5 0 -10 -9 -10 -19 0 -10 -7 -21 -15 -25 -8 -3 -15 -15 -15 -27 0 -39 -42 -153 -60 -164 -11 -7 -6 -48 10 -89 5 -13 6 -26 2 -28 -4 -2 -15 -16 -24 -33 -15 -27 -21 -30 -57 -27 -40 4 -41 4 -47 -37 -4 -23 -11 -44 -15 -47 -5 -3 -9 -19 -9 -36 0 -17 -10 -42 -24 -59 -21 -25 -23 -32 -13 -54 13 -27 28 -31 57 -15 29 15 20 -17 -15 -54 -21 -22 -37 -30 -54 -27 -20 3 -23 1 -18 -18 3 -11 1 -24 -4 -27 -5 -3 -9 -22 -9 -42 1 -20 -2 -54 -5 -74 -6 -27 -3 -44 8 -61 13 -20 13 -27 2 -48 -28 -48 -46 -94 -46 -111 1 -10 1 -28 1 -40 0 -13 5 -35 11 -50 8 -19 8 -32 0 -46 -17 -32 -25 -140 -12 -156 8 -10 25 -12 53 -8 l41 5 -6 -41 c-8 -44 4 -57 36 -40 22 11 37 2 37 -22 0 -11 -11 -22 -28 -28 -26 -9 -29 -7 -39 19 -12 31 -40 38 -61 17 -18 -18 -15 -48 5 -55 30 -10 52 -34 46 -49 -3 -8 2 -17 11 -20 13 -5 14 -10 5 -20 -11 -14 -3 -38 10 -30 4 3 8 -1 8 -9 0 -8 -4 -15 -9 -15 -4 0 -8 -13 -8 -29 0 -38 38 -80 74 -83 15 -1 33 -9 39 -17 10 -12 7 -13 -24 -7 -25 4 -40 2 -48 -7 -6 -8 -9 -16 -6 -19 3 -3 -2 -11 -11 -18 -13 -12 -17 -11 -25 1 -8 12 -10 12 -19 -1 -15 -24 -12 -55 10 -83 11 -14 18 -32 14 -40 -3 -8 2 -17 10 -20 9 -4 16 -15 16 -25 0 -11 7 -26 17 -33 32 -27 53 -92 47 -151 -4 -42 -1 -58 10 -68 10 -7 14 -21 10 -35 -9 -38 31 -75 82 -75 36 0 43 -3 48 -25 5 -21 12 -25 46 -25 47 0 49 -6 13 -37 -18 -16 -39 -23 -70 -23 -41 0 -43 -1 -43 -29 0 -16 6 -31 15 -35 8 -3 15 -14 15 -25 0 -11 4 -23 10 -26 5 -3 10 -13 10 -21 0 -8 9 -23 21 -35 18 -18 24 -20 44 -9 50 27 71 -10 35 -60 -14 -20 -18 -37 -14 -61 10 -59 12 -63 29 -49 12 10 20 7 46 -14 17 -14 34 -26 38 -26 4 0 6 -14 3 -31 -4 -29 -3 -30 29 -27 47 4 47 28 -1 60 -24 17 -40 36 -40 48 0 15 -7 20 -26 20 -35 0 -28 31 10 45 27 9 32 6 92 -60 66 -71 78 -99 46 -109 -23 -8 -58 -66 -45 -75 6 -3 13 -15 17 -27 5 -16 12 -20 31 -16 30 5 33 22 5 22 -27 0 -25 11 5 44 14 15 25 32 25 37 0 6 6 9 13 6 6 -2 11 -13 9 -24 -1 -11 4 -26 13 -33 8 -7 15 -21 15 -31 0 -10 9 -26 19 -36 24 -23 34 -63 21 -83 -9 -13 -14 -11 -34 14 -30 36 -47 30 -52 -17 -2 -30 1 -40 21 -53 14 -9 25 -23 25 -30 0 -8 7 -14 16 -14 12 0 15 6 10 24 -8 32 26 54 77 49 20 -3 37 0 37 5 0 25 37 3 55 -33 28 -55 78 -124 91 -125 37 -1 36 -55 -1 -64 -34 -9 -54 -32 -48 -56 7 -26 19 -25 56 6 24 20 37 24 63 19 18 -3 35 -1 39 5 10 16 22 12 28 -9 3 -13 21 -24 51 -33 42 -12 46 -15 34 -30 -7 -9 -26 -18 -43 -20 -25 -3 -31 1 -33 22 -4 28 -31 62 -43 55 -7 -5 -3 -51 7 -66 2 -4 -6 -15 -18 -23 l-22 -16 29 -30 c30 -32 55 -39 55 -16 0 18 26 40 34 28 3 -6 -1 -15 -9 -22 -14 -12 -13 -16 6 -37 13 -12 30 -23 39 -23 9 0 27 -11 40 -25 13 -14 31 -25 41 -25 9 0 24 -11 33 -25 14 -21 20 -23 36 -15 12 7 21 7 25 0 3 -5 19 -10 34 -10 15 0 36 -9 46 -20 10 -11 22 -20 28 -20 5 0 18 -11 29 -25 11 -14 28 -25 39 -25 10 0 19 -4 19 -10 0 -13 102 -77 153 -96 23 -9 51 -20 61 -26 11 -5 54 -13 97 -15 71 -5 79 -4 85 13 13 34 25 45 39 34 10 -8 11 -20 3 -47 -11 -41 -5 -50 38 -59 27 -5 32 -2 44 25 14 35 22 38 44 15 14 -14 14 -17 0 -39 -14 -22 -14 -24 6 -35 25 -13 109 -40 128 -40 6 0 12 8 12 18 0 10 6 26 13 37 13 17 16 17 62 2 55 -19 118 -64 110 -78 -10 -16 25 -22 61 -11 30 9 34 8 34 -9 0 -20 -12 -20 218 -10 13 1 22 7 22 17 0 11 5 14 18 9 57 -23 72 -24 86 -3 l15 21 27 -22 c15 -12 41 -21 60 -21 30 0 34 3 34 25 0 14 -7 28 -15 31 -8 4 -15 12 -15 20 0 8 7 14 15 14 8 0 15 5 15 12 0 6 10 2 23 -10 13 -12 39 -22 62 -24 36 -3 40 -6 43 -31 3 -26 6 -28 30 -22 15 5 35 7 45 7 9 0 18 3 18 9 1 5 2 15 3 22 2 19 59 16 74 -5 20 -28 78 -24 97 6 15 22 21 24 73 19 31 -3 60 -9 65 -12 11 -11 120 4 125 17 2 6 10 8 18 5 8 -3 22 1 32 10 9 8 42 18 72 22 30 4 60 11 65 15 6 4 35 13 65 20 30 7 68 21 85 32 16 10 41 18 54 18 13 0 36 11 52 24 18 15 36 22 48 19 16 -4 19 -1 16 16 -3 18 0 19 25 14 45 -8 79 4 86 32 5 22 9 23 55 18 41 -5 49 -3 49 11 0 9 -7 16 -15 16 -8 0 -15 4 -15 9 0 6 19 9 42 8 25 -1 43 3 46 11 2 7 14 12 26 12 12 0 33 11 46 25 13 14 34 25 46 25 24 0 70 47 85 87 11 30 34 39 66 24 21 -10 29 -9 43 4 9 8 21 15 27 15 6 0 26 16 44 35 19 19 41 35 51 35 10 0 18 7 18 15 0 8 6 15 14 15 7 0 25 11 40 25 15 14 31 25 37 25 5 0 9 11 9 25 0 19 5 25 23 25 15 0 35 14 55 38 18 20 36 42 41 47 4 6 4 20 -3 34 -8 19 -7 26 9 37 11 8 35 13 53 12 40 -3 62 20 62 63 0 45 17 79 40 79 11 0 20 5 20 10 0 6 -4 10 -10 10 -13 0 -13 37 -1 45 12 7 33 -29 24 -39 -3 -3 3 -6 15 -6 12 0 22 4 22 9 0 5 14 23 30 39 17 17 30 38 30 46 0 9 5 16 10 16 6 0 10 9 10 20 0 11 -4 20 -10 20 -5 0 -10 11 -10 23 0 16 9 28 26 36 21 9 25 16 20 36 -7 29 7 40 32 24 11 -7 27 -9 36 -6 15 6 14 11 -8 52 -14 25 -22 46 -18 47 4 0 24 2 44 2 21 1 38 6 39 11 0 6 9 20 20 32 32 33 22 66 -23 77 -36 9 -38 12 -38 48 0 33 3 38 23 38 12 0 31 8 42 16 20 15 20 15 1 29 -16 12 -19 29 -21 107 -1 51 -6 104 -12 118 -13 32 -5 53 30 80 15 12 25 25 22 29 -2 4 0 25 6 45 7 27 7 41 -1 51 -7 8 -9 19 -5 25 3 5 8 20 10 32 3 12 11 26 20 30 19 11 19 34 0 42 -9 3 -15 18 -15 39 0 19 -6 40 -13 46 -8 6 -12 23 -9 39 3 24 8 28 28 24 15 -3 24 -11 24 -23 0 -11 7 -19 15 -19 15 0 48 42 51 67 3 15 -32 18 -41 3 -10 -16 -22 -12 -28 10 -3 10 1 24 9 31 22 18 17 43 -22 93 -42 55 -39 75 14 102 20 10 49 29 64 42 l26 24 11 -21 c7 -12 21 -21 32 -21 19 0 20 4 15 33 -6 31 -4 34 30 46 48 17 59 6 44 -48 -6 -23 -9 -50 -5 -60 3 -9 -2 -32 -11 -51 -20 -39 -13 -56 35 -82 52 -30 72 -17 71 45 -2 104 10 272 20 298 8 19 8 38 0 67 -6 23 -8 53 -4 67 4 15 2 25 -5 25 -6 0 -11 7 -11 15 0 8 7 15 16 15 13 0 15 10 9 68 -9 103 -13 114 -34 107 -15 -4 -20 1 -24 27 -2 18 0 39 6 46 8 10 7 16 -4 23 -11 7 -12 11 -1 18 11 7 11 14 -1 42 -7 19 -17 61 -21 95 -8 74 -40 162 -69 190 -77 76 -81 83 -68 123 14 50 14 51 -8 51 -12 0 -23 -11 -30 -30 -14 -40 -28 -38 -40 8 -17 60 -14 88 14 109 l26 18 -32 63 c-17 35 -38 66 -45 69 -8 3 -14 17 -14 31 0 14 -6 33 -14 41 -8 9 -25 36 -39 61 -13 25 -35 65 -48 89 -13 24 -34 48 -46 54 -13 6 -23 18 -23 28 0 30 -46 110 -71 122 -13 7 -26 25 -29 42 -13 64 -100 175 -137 175 -13 0 -23 6 -23 14 0 8 -10 16 -22 18 -18 2 -22 9 -20 29 3 35 -86 135 -131 147 -22 6 -33 15 -35 30 -2 12 -21 40 -42 62 -29 30 -46 40 -70 40 -31 0 -32 2 -27 29 5 24 1 32 -19 46 -24 16 -26 15 -31 -4 -8 -30 -27 -32 -57 -4 -20 18 -25 28 -17 36 6 6 11 15 11 19 0 16 -22 7 -60 -23 -21 -17 -43 -28 -49 -24 -18 11 -12 25 14 35 28 11 64 72 46 78 -6 2 -17 10 -25 17 -7 7 -23 15 -37 17 -13 1 -29 14 -36 27 -17 35 -40 45 -52 24 -9 -17 -12 -17 -38 -2 -21 11 -28 22 -26 42 1 22 -5 31 -36 46 -51 26 -104 35 -130 22 -14 -8 -21 -8 -21 -1 0 6 7 13 15 16 31 12 15 40 -38 67 -64 32 -82 33 -124 7 -35 -21 -50 -12 -33 19 20 38 7 50 -59 56 -19 2 -44 8 -55 14 -56 27 -94 38 -107 30 -23 -15 -52 -10 -75 12 -29 27 -45 21 -81 -33 -16 -23 -37 -45 -48 -47 -17 -3 -16 1 8 32 36 47 35 61 -3 54 -22 -5 -30 -3 -30 8 0 35 -30 46 -122 44 -75 -1 -91 1 -102 16 -10 14 -21 16 -62 11 -57 -8 -68 -14 -77 -39 -9 -25 -41 -17 -45 11 -4 23 -37 31 -44 10 -3 -7 -9 -8 -19 -3 -8 5 -23 8 -33 6 -14 -2 -17 2 -13 13 5 12 0 16 -23 16 -24 0 -30 -4 -30 -21 0 -12 -11 -34 -25 -51 -16 -19 -25 -24 -25 -14 0 8 4 18 10 21 6 4 4 17 -5 36 -14 25 -21 29 -60 29 -38 0 -45 -3 -45 -20 0 -26 -27 -26 -60 0 -25 20 -87 23 -222 13z m661 -117 l24 -13 -22 -12 c-26 -14 -41 -7 -41 20 0 22 6 23 39 5z m204 -24 c-3 -9 -15 -24 -26 -33 -15 -13 -17 -20 -9 -35 9 -17 -1 -58 -10 -44 -2 3 -10 19 -19 36 -16 30 -16 32 2 48 11 9 23 16 28 16 5 0 11 9 14 21 3 12 10 18 16 15 6 -4 7 -14 4 -24z m365 -38 c28 -19 21 -33 -13 -26 -16 3 -25 11 -25 23 0 23 9 24 38 3z m-1118 -13 c0 -12 -20 -25 -27 -18 -7 7 6 27 18 27 5 0 9 -4 9 -9z m-347 -34 c-3 -5 -10 -4 -15 1 -6 6 -7 16 -3 22 6 9 9 9 16 -1 4 -7 5 -17 2 -22z m237 -46 c0 -5 -7 -14 -15 -21 -12 -10 -15 -10 -15 2 0 8 3 18 7 21 9 10 23 9 23 -2z m1370 -1 c0 -5 -7 -10 -15 -10 -8 0 -15 5 -15 10 0 6 7 10 15 10 8 0 15 -4 15 -10z m-161 -50 c-16 -11 -25 11 -14 38 6 15 9 14 18 -6 8 -18 8 -25 -4 -32z m359 -32 c-6 -18 -28 -21 -28 -4 0 9 7 16 16 16 9 0 14 -5 12 -12z m-330 -133 c-2 -25 -28 -36 -28 -12 0 11 19 37 27 37 1 0 2 -11 1 -25z m-1352 -18 c1 -12 3 -26 3 -31 1 -9 28 -7 285 22 98 11 183 16 202 12 18 -4 53 -5 78 -3 27 3 64 -1 93 -10 26 -9 75 -21 108 -27 33 -7 67 -15 75 -20 9 -4 31 -11 50 -14 19 -4 47 -12 62 -18 36 -14 62 -4 50 18 -10 17 -5 54 7 54 3 0 16 -22 28 -48 19 -42 28 -50 70 -64 26 -9 68 -19 92 -22 24 -4 56 -13 72 -21 15 -8 37 -15 47 -15 10 0 29 -9 42 -20 13 -11 29 -20 35 -20 7 0 29 -7 49 -15 20 -8 39 -15 42 -14 3 0 14 -9 23 -20 10 -12 23 -21 28 -21 5 0 32 -16 59 -35 27 -19 59 -35 70 -35 12 0 27 -7 34 -15 7 -8 18 -15 24 -15 7 0 30 -18 51 -40 35 -36 43 -39 75 -34 l35 5 -24 -19 c-29 -23 -25 -31 42 -83 29 -23 95 -81 147 -130 52 -49 113 -105 135 -125 22 -20 48 -43 59 -52 10 -10 29 -34 42 -54 13 -21 33 -44 44 -50 11 -7 20 -21 20 -31 0 -10 11 -33 25 -51 14 -18 25 -36 25 -40 0 -9 43 -70 53 -74 4 -2 7 -10 7 -18 0 -8 4 -14 8 -14 5 0 14 -17 20 -38 7 -21 21 -47 32 -57 11 -10 25 -37 31 -59 6 -23 18 -56 26 -73 15 -33 16 -33 69 -27 53 7 54 6 54 -20 0 -29 -24 -35 -61 -16 -16 9 -19 7 -19 -9 0 -11 6 -21 13 -24 9 -3 9 -7 -1 -20 -10 -12 -12 -31 -7 -67 6 -43 10 -50 25 -45 15 5 18 -1 18 -42 1 -94 3 -105 16 -118 15 -15 38 -119 41 -180 1 -22 5 -73 10 -112 7 -71 7 -73 -14 -73 -12 0 -24 -6 -27 -14 -6 -15 45 -136 57 -136 13 0 0 -44 -16 -56 -22 -17 -18 -46 11 -77 14 -15 23 -35 20 -43 -8 -21 -22 -17 -40 11 -19 29 -42 34 -31 8 15 -34 15 -109 1 -178 -9 -38 -17 -83 -18 -100 -2 -22 -9 -31 -25 -33 -25 -4 -40 -40 -29 -69 5 -12 9 -14 18 -5 18 18 31 14 25 -8 -3 -11 -1 -23 4 -26 5 -3 9 -14 9 -25 0 -11 7 -27 15 -35 8 -9 15 -22 15 -30 0 -17 -21 -19 -37 -3 -16 16 -63 2 -63 -19 0 -9 14 -29 32 -45 32 -26 32 -28 14 -42 -11 -8 -28 -15 -38 -15 -10 0 -18 -7 -18 -15 0 -8 -6 -15 -14 -15 -24 0 -30 -39 -9 -55 17 -13 16 -15 -14 -27 -30 -11 -46 -38 -23 -38 6 0 10 -11 10 -25 0 -17 -5 -25 -18 -25 -37 0 -59 -51 -27 -64 27 -10 17 -36 -13 -36 -29 0 -76 -35 -68 -49 3 -4 -8 -21 -24 -36 -17 -16 -30 -37 -30 -46 0 -10 -4 -19 -9 -21 -5 -1 -27 -26 -48 -53 -33 -42 -39 -57 -35 -83 2 -18 8 -35 13 -38 5 -3 9 -12 9 -20 0 -19 -46 -18 -54 1 -3 8 -9 15 -14 15 -12 0 -214 -199 -240 -237 -12 -17 -32 -35 -44 -39 -30 -9 -88 -70 -88 -92 0 -9 -5 -24 -10 -32 -8 -13 -13 -13 -31 -2 -17 11 -24 11 -45 -3 -27 -18 -31 -33 -9 -41 8 -4 15 -13 15 -20 0 -8 -7 -17 -15 -20 -8 -4 -15 -12 -15 -20 0 -20 -24 -17 -45 6 -15 16 -22 43 -24 97 -1 20 -93 82 -122 83 -14 0 -34 -6 -45 -14 -16 -13 -17 -18 -6 -33 50 -72 52 -114 7 -159 -14 -14 -25 -31 -25 -37 0 -9 -22 -13 -78 -12 -73 2 -79 3 -109 33 -17 18 -40 32 -51 32 -21 0 -51 38 -57 72 -3 12 -14 31 -25 43 -11 12 -25 36 -30 54 -10 36 -1 171 11 171 5 0 9 6 9 14 0 12 55 133 83 182 14 23 80 84 93 84 4 0 28 17 53 39 26 21 56 41 69 45 12 4 22 13 22 20 0 14 68 66 86 66 5 0 29 18 53 40 23 22 46 40 49 40 4 0 12 8 17 19 6 10 29 44 53 74 23 31 42 67 42 80 0 14 9 31 20 38 14 11 20 27 21 64 2 106 -9 202 -27 235 -11 18 -23 41 -29 51 -5 11 -19 19 -30 19 -11 0 -31 9 -45 19 -20 16 -22 21 -11 35 11 13 11 19 1 31 -16 20 -6 45 19 45 34 0 65 19 89 55 26 41 28 82 6 113 -21 30 -10 41 16 17 19 -17 20 -17 26 0 9 22 -15 41 -70 56 -27 7 -41 8 -44 1 -10 -31 -66 -102 -85 -108 -78 -26 -199 15 -254 84 -93 120 -172 305 -159 376 7 34 9 36 45 36 31 0 42 -5 56 -26 9 -14 35 -34 58 -44 57 -24 166 -35 200 -19 21 10 32 9 62 -5 20 -10 43 -17 53 -16 9 1 69 1 133 0 103 0 117 2 134 20 13 14 16 29 12 55 -4 27 -1 41 12 54 12 12 16 23 10 32 -5 8 -9 37 -9 66 0 67 -31 149 -76 201 -50 59 -18 55 44 -5 58 -57 77 -104 69 -179 -3 -30 -2 -56 3 -59 4 -2 22 3 40 12 18 9 49 16 68 17 31 1 40 -5 84 -61 32 -42 43 -63 33 -63 -8 0 -22 8 -30 18 -55 64 -56 65 -97 59 -47 -6 -57 -14 -64 -51 -4 -24 -2 -26 19 -20 21 5 27 0 46 -38 23 -47 26 -73 12 -82 -5 -3 -12 6 -16 22 -8 32 -33 62 -52 62 -25 0 -37 -44 -20 -76 33 -64 48 -283 25 -344 -4 -8 -9 -35 -12 -60 -6 -52 -42 -170 -56 -184 -6 -6 -10 -27 -10 -49 0 -21 -5 -70 -11 -109 -9 -60 -9 -73 3 -82 8 -6 18 -27 22 -47 3 -21 14 -43 22 -50 20 -17 145 -21 176 -7 23 11 58 58 58 78 0 5 -31 6 -69 4 -67 -5 -70 -4 -104 28 -40 38 -61 97 -47 134 5 13 7 24 5 24 -3 0 4 15 15 33 11 17 20 39 20 48 0 9 12 25 28 34 15 10 34 26 43 37 13 17 31 21 110 24 52 2 108 7 124 10 17 4 62 6 102 5 l71 -2 23 41 c12 22 27 40 32 40 10 0 36 30 37 43 0 4 -15 7 -34 7 -37 0 -60 19 -51 42 7 17 -35 30 -55 18 -20 -13 -119 49 -146 91 -20 32 -24 52 -25 121 -2 96 -11 130 -34 122 -17 -7 -20 7 -4 23 27 27 32 331 6 415 -15 51 -22 59 -63 80 -25 12 -55 35 -66 51 -15 20 -23 25 -32 17 -20 -16 -107 -25 -115 -11 -9 15 -65 31 -78 22 -5 -3 -12 -14 -16 -23 -7 -21 -37 -24 -37 -5 0 7 5 18 11 24 18 18 -114 24 -184 9 -49 -11 -152 -15 -152 -6 0 1 -9 3 -20 5 -61 11 -113 28 -134 44 -20 15 -21 21 -11 38 11 17 9 24 -16 52 -110 124 -236 233 -251 217 -4 -4 35 -49 87 -101 92 -91 127 -143 116 -172 -8 -20 -56 13 -56 39 0 24 -18 58 -30 58 -6 0 -19 -9 -30 -20 -11 -11 -25 -20 -30 -20 -15 0 -12 26 5 40 8 7 15 18 15 25 0 21 -45 70 -100 109 l-50 36 0 -25 c0 -23 -41 -75 -60 -75 -19 0 -16 27 6 53 28 33 31 73 7 99 -24 27 -32 23 -53 -27 -11 -25 -26 -45 -35 -45 -21 0 -19 17 5 47 33 43 24 72 -27 87 -19 6 -25 1 -37 -28 -17 -41 -52 -51 -43 -13 21 88 21 85 -19 102 -43 18 -54 10 -54 -37 0 -17 -8 -31 -20 -38 -28 -15 -35 8 -16 53 21 51 11 75 -37 88 -42 11 -57 3 -57 -33 0 -9 -5 -28 -11 -42 -10 -20 -8 -29 9 -53 11 -16 24 -42 28 -59 4 -16 13 -37 22 -46 9 -11 12 -24 6 -35 -7 -16 -8 -16 -11 4 -5 24 -39 41 -54 26 -6 -6 -2 -17 11 -28 11 -10 20 -24 20 -30 0 -7 6 -18 14 -24 10 -9 16 -8 26 4 7 8 27 15 44 15 35 0 69 18 49 26 -26 11 -77 50 -81 62 -3 10 5 12 34 6 56 -10 71 -20 99 -64 15 -24 33 -40 44 -40 11 0 42 -18 70 -40 28 -22 57 -40 66 -40 8 0 15 -9 15 -20 0 -20 17 -25 63 -21 9 1 17 -3 17 -9 0 -6 12 -16 27 -23 41 -18 103 -78 103 -98 0 -28 -33 -40 -94 -33 l-54 7 -17 -37 c-17 -36 -16 -46 7 -78 10 -14 8 -23 -10 -48 -21 -28 -22 -32 -7 -52 19 -28 19 -65 0 -84 -8 -9 -15 -31 -15 -50 0 -28 5 -36 26 -44 34 -13 77 -13 92 2 8 8 14 4 22 -18 9 -22 8 -31 -3 -39 -37 -27 -47 -60 -37 -115 22 -114 4 -139 -23 -32 -21 82 -21 96 -2 112 22 18 19 24 -22 45 -31 15 -143 30 -143 19 0 -1 14 -25 31 -52 33 -53 94 -299 79 -316 -5 -5 -14 11 -21 35 -13 43 -13 43 -17 13 -2 -17 5 -55 15 -85 14 -41 23 -54 38 -54 11 0 21 -8 23 -18 2 -9 -1 -17 -7 -17 -6 0 -11 -5 -11 -11 0 -6 7 -9 15 -6 17 7 30 -9 15 -18 -17 -10 -11 -25 9 -25 28 0 78 -67 63 -82 -9 -9 -6 -18 10 -35 26 -28 34 -29 41 -3 9 36 35 24 39 -17 2 -30 7 -39 25 -41 12 -2 36 -21 54 -43 17 -21 39 -39 49 -39 10 0 20 -9 23 -20 6 -23 39 -39 45 -22 4 13 32 17 32 4 0 -4 -5 -13 -12 -20 -9 -9 -1 -23 34 -60 25 -27 48 -62 52 -78 3 -16 9 -45 13 -64 10 -51 4 -131 -12 -163 -8 -15 -12 -34 -9 -41 3 -7 -2 -16 -10 -19 -9 -4 -16 -18 -16 -32 0 -18 -11 -32 -39 -51 -21 -14 -41 -34 -44 -46 -4 -15 -11 -18 -27 -13 -15 5 -31 -1 -56 -20 -23 -17 -41 -24 -54 -20 -11 3 -25 3 -32 -1 -7 -5 -34 -9 -60 -11 -38 -2 -48 1 -48 12 0 9 -8 19 -18 23 -20 8 -69 43 -107 79 -53 48 -38 120 33 158 70 38 49 101 -33 98 -66 -2 -131 -46 -163 -108 -13 -26 -1 -104 30 -185 12 -33 84 -89 144 -112 l47 -19 23 28 c18 21 23 24 24 11 0 -9 -5 -20 -11 -24 -8 -4 -8 -9 0 -17 24 -24 11 -60 -39 -109 -27 -28 -54 -65 -60 -84 -6 -19 -17 -34 -24 -34 -13 0 -52 -63 -74 -120 -32 -82 -43 -135 -32 -158 5 -13 10 -31 10 -41 0 -9 11 -32 25 -51 14 -19 25 -44 25 -56 0 -12 16 -44 35 -70 20 -27 38 -57 41 -66 4 -10 10 -18 14 -18 4 0 10 -9 13 -19 5 -20 59 -49 127 -70 43 -13 114 -15 158 -6 36 8 42 -3 14 -28 -11 -10 -26 -14 -40 -10 -14 3 -30 -1 -40 -10 -9 -8 -29 -18 -44 -22 -15 -4 -32 -13 -38 -20 -6 -8 -17 -12 -25 -9 -7 3 -26 -1 -42 -9 -15 -8 -46 -18 -68 -22 -22 -4 -67 -18 -100 -32 -58 -25 -106 -37 -190 -49 -39 -6 -40 -5 -57 35 -10 23 -18 49 -18 59 0 19 -71 92 -107 111 -12 6 -48 13 -80 15 -60 3 -111 25 -147 62 -30 30 -60 44 -97 44 -42 0 -97 20 -104 38 -3 7 0 23 6 34 10 18 6 26 -27 57 -22 21 -54 54 -73 74 -39 44 -68 46 -63 4 4 -31 0 -33 -22 -11 -9 9 -16 32 -16 55 0 39 0 39 -39 39 -34 0 -40 -4 -51 -31 -11 -25 -43 -49 -66 -49 -14 0 -1 37 17 48 l21 14 -28 29 c-29 31 -62 37 -82 17 -10 -10 -18 -6 -37 16 -14 16 -24 30 -23 31 2 1 48 -2 103 -6 55 -5 165 -13 245 -18 152 -11 196 -18 270 -46 61 -23 250 -17 278 8 10 9 23 17 29 17 14 0 56 47 60 68 15 69 14 99 -1 114 -9 9 -16 21 -16 26 0 14 -21 20 -50 12 -17 -4 -32 -20 -46 -49 -26 -55 -48 -71 -98 -71 -55 0 -256 51 -256 65 0 14 58 36 66 24 12 -19 44 -8 59 21 19 37 19 40 -2 40 -14 0 -14 2 2 20 10 11 30 20 44 20 20 1 33 11 55 48 29 46 29 50 31 202 1 85 3 155 5 155 1 0 4 36 6 79 3 62 10 89 30 123 24 42 20 57 -10 28 -18 -18 -26 -19 -26 -2 0 7 17 30 39 51 36 35 41 37 92 34 38 -2 55 -7 57 -18 2 -12 -9 -15 -49 -15 -35 0 -54 -4 -57 -14 -3 -10 3 -12 27 -6 25 5 39 0 78 -27 27 -18 51 -37 54 -42 4 -5 14 -6 23 -3 12 5 15 20 13 69 l-2 63 -45 22 c-129 64 -263 -10 -312 -172 -13 -41 -27 -73 -33 -72 -5 2 -15 24 -22 50 -6 26 -21 61 -34 79 -30 45 -126 135 -150 141 -26 7 -37 -14 -13 -27 28 -16 104 -97 121 -130 11 -22 12 -34 4 -52 -7 -16 -7 -32 -1 -50 14 -35 13 -44 -5 -44 -9 0 -18 -7 -21 -15 -4 -8 -10 -15 -15 -15 -14 0 -10 65 6 96 19 37 19 64 -1 92 -22 32 -34 27 -34 -13 0 -52 -16 -42 -30 18 -8 33 -23 63 -42 82 -17 16 -34 40 -39 53 -5 12 -17 25 -26 28 -10 3 -44 17 -75 32 -32 14 -60 23 -64 20 -3 -4 2 -21 11 -38 24 -46 5 -62 -30 -24 -40 43 -31 75 25 91 40 12 48 11 84 -8 22 -12 47 -30 54 -40 20 -29 34 -12 17 21 -9 18 -40 43 -80 65 -63 36 -85 38 -85 9 0 -22 -11 -17 -52 23 -28 28 -47 38 -73 38 -19 1 -35 -2 -35 -7 0 -4 7 -8 15 -8 8 0 15 -7 15 -15 0 -9 16 -25 35 -36 58 -35 46 -49 -37 -43 -97 7 -121 16 -184 66 -60 48 -71 85 -32 110 l22 15 -23 32 c-17 24 -20 36 -12 44 8 8 8 14 0 24 -9 10 -4 13 25 13 38 0 43 8 24 39 -9 15 -7 26 10 55 17 28 20 46 16 79 -4 31 -2 46 8 55 12 10 13 21 2 69 -7 32 -13 60 -13 62 -1 3 -6 0 -13 -7 -18 -18 -25 -15 -32 14 -9 35 -1 41 23 20 29 -26 44 -11 38 36 -6 46 -29 75 -66 83 -25 5 -26 9 -28 75 -2 63 0 71 20 81 12 7 47 29 77 51 110 77 164 109 177 104 7 -3 29 4 49 15 31 17 41 18 70 9 19 -7 42 -9 50 -6 9 3 48 -1 87 -10 40 -9 91 -20 113 -24 23 -5 58 -20 79 -34 21 -15 48 -26 60 -26 21 0 128 -63 170 -100 20 -17 135 -50 176 -50 12 0 30 7 40 16 10 9 37 16 69 16 49 1 54 4 64 30 6 15 14 28 18 28 4 0 17 -22 29 -50 20 -48 23 -50 60 -50 44 0 53 9 40 42 -6 16 -23 29 -49 37 -38 13 -40 16 -46 63 -12 86 -39 118 -101 118 -28 0 -38 -10 -69 -65 -20 -37 -25 -40 -68 -43 -32 -2 -59 3 -87 17 -22 12 -46 21 -54 21 -8 0 -22 9 -32 20 -10 11 -46 34 -79 51 -34 16 -70 40 -81 52 -11 12 -56 43 -100 69 -63 36 -99 50 -167 62 -121 23 -235 30 -283 18 -161 -41 -275 -89 -275 -117 0 -8 -6 -15 -13 -15 -8 0 -22 -9 -31 -19 -10 -10 -34 -22 -54 -26 -68 -12 -232 -69 -229 -80 2 -5 16 -11 31 -13 49 -6 22 -27 -34 -27 -55 0 -79 18 -40 30 30 9 13 28 -21 23 -19 -3 -29 0 -29 8 0 7 -7 17 -16 22 -9 5 -20 31 -25 57 -7 39 -5 58 12 106 20 54 53 99 64 87 3 -3 1 -18 -5 -33 -9 -24 -7 -32 11 -51 18 -20 20 -27 11 -54 -12 -33 -14 -32 43 -46 27 -6 39 -6 83 0 7 1 18 8 24 14 7 7 17 12 24 12 6 0 21 19 32 43 19 41 77 107 94 107 5 0 13 11 19 24 6 13 19 27 28 30 9 3 30 16 46 29 17 12 55 28 85 36 59 15 90 35 90 60 0 13 -11 50 -38 121 -3 8 -6 65 -8 125 -3 143 -10 185 -34 210 -24 26 -26 45 -4 45 12 0 15 6 9 23 -4 12 -7 43 -7 69 0 41 -5 51 -42 85 -36 34 -113 85 -183 122 -12 6 -44 14 -70 17 -26 3 -53 10 -60 16 -14 11 -36 1 -27 -13 3 -5 10 -7 15 -4 5 4 13 -5 18 -19 6 -13 20 -27 31 -31 12 -4 30 -13 39 -20 9 -8 26 -22 38 -32 17 -13 20 -22 13 -33 -7 -12 -16 -13 -55 -2 -25 7 -59 12 -76 12 -25 0 -62 12 -78 26 -2 2 8 17 23 34 26 32 33 50 18 50 -5 0 -14 11 -20 24 -8 19 -7 27 11 45 l21 21 -34 -11 c-19 -6 -43 -13 -52 -16 -19 -6 -25 -23 -8 -23 6 0 10 -9 10 -20 0 -11 -4 -20 -10 -20 -16 0 -90 -71 -90 -87 0 -8 9 -17 20 -20 28 -7 26 -12 -21 -60 -44 -46 -44 -63 2 -63 45 0 34 -16 -31 -46 -33 -14 -57 -30 -54 -35 8 -14 71 -11 109 6 40 16 53 38 35 60 -11 13 -8 22 19 55 17 21 31 46 31 54 0 12 6 13 28 6 15 -5 44 -11 65 -13 25 -3 50 -16 69 -33 27 -27 29 -33 23 -79 -3 -27 -10 -59 -15 -70 -27 -62 -49 -137 -44 -150 4 -10 0 -15 -10 -15 -9 0 -16 -8 -16 -20 0 -24 -25 -35 -102 -45 -31 -4 -70 -16 -88 -26 -38 -24 -37 -53 3 -57 31 -4 33 -10 13 -37 -13 -18 -14 -18 -51 0 -43 20 -70 12 -70 -21 0 -13 11 -22 33 -29 33 -10 42 -29 18 -38 -8 -3 -38 -3 -68 -1 -40 4 -58 2 -73 -11 -14 -11 -16 -18 -8 -21 7 -3 23 -14 35 -24 29 -24 13 -49 -20 -31 -31 17 -60 13 -72 -8 -16 -30 -12 -39 19 -46 32 -7 58 -31 47 -43 -4 -3 -34 -5 -66 -4 -50 3 -60 0 -74 -19 -21 -31 -11 -41 37 -37 35 3 43 -1 52 -19 5 -13 18 -23 27 -23 22 0 23 -13 3 -30 -13 -10 -19 -9 -36 5 -23 21 -104 29 -117 11 -11 -13 -35 -107 -29 -112 2 -2 14 5 27 16 26 22 51 25 81 9 35 -18 5 -39 -57 -39 -29 0 -56 -5 -60 -11 -9 -14 27 -62 49 -65 31 -4 49 -25 36 -40 -6 -8 -16 -14 -22 -14 -20 0 -57 -43 -57 -67 0 -20 5 -23 33 -22 47 3 57 0 57 -12 0 -16 -31 -38 -52 -39 -29 0 -58 -37 -58 -73 0 -41 27 -134 41 -143 6 -3 21 4 34 16 26 24 58 24 63 -1 2 -11 -6 -19 -22 -23 -40 -10 -56 -33 -49 -69 3 -18 7 -33 8 -35 2 -2 20 8 40 23 47 31 67 32 63 3 -2 -16 -14 -27 -38 -35 -34 -11 -35 -12 -32 -58 3 -38 13 -60 53 -116 28 -38 55 -69 59 -69 5 0 15 -10 22 -23 16 -28 168 -164 219 -195 20 -12 47 -22 60 -22 13 0 32 -11 44 -27 23 -28 45 -25 45 7 0 18 53 70 71 70 5 0 9 -7 9 -15 0 -8 -3 -15 -7 -15 -5 0 -19 -16 -31 -35 -24 -34 -23 -55 4 -55 7 0 19 -9 26 -20 18 -28 48 -26 48 3 0 26 26 67 42 67 11 0 7 -59 -7 -92 -5 -12 2 -21 24 -32 39 -21 38 -21 45 18 4 19 15 45 26 58 31 37 43 6 20 -52 -21 -53 -15 -70 25 -73 24 -2 28 2 32 28 6 45 11 55 29 55 13 0 15 -6 9 -32 -12 -56 -11 -72 8 -76 9 -2 17 2 17 8 0 24 33 80 46 80 17 0 18 -21 2 -55 -10 -21 -9 -29 5 -42 15 -15 18 -13 36 30 12 27 27 47 36 47 18 0 20 -29 3 -65 -10 -22 -9 -28 3 -36 22 -14 65 -11 79 6 19 23 40 18 40 -9 0 -27 39 -46 96 -46 31 0 34 -3 35 -32 1 -18 1 -39 0 -45 -2 -16 14 -17 40 -2 12 6 28 8 37 4 15 -6 14 -9 -5 -25 -35 -28 -30 -50 12 -50 38 0 42 -5 20 -34 -18 -24 -4 -53 27 -58 16 -2 24 -11 26 -28 2 -14 7 -29 12 -34 5 -5 4 -20 -1 -34 -13 -34 -4 -69 21 -82 27 -14 25 -28 -5 -42 -28 -13 -33 -39 -10 -58 21 -18 19 -40 -5 -40 -23 0 -24 -4 -9 -29 10 -15 8 -22 -10 -40 -11 -11 -32 -21 -46 -21 -22 0 -24 -3 -15 -19 16 -31 12 -49 -12 -49 -40 -1 -80 -10 -91 -21 -15 -15 -27 -14 -27 4 0 18 -31 35 -62 33 -13 0 -54 9 -92 20 -37 12 -78 22 -90 22 -11 0 -46 12 -76 27 -30 14 -59 27 -65 27 -50 7 -106 22 -135 37 -19 10 -69 33 -110 53 -52 24 -82 45 -98 69 -27 41 -21 71 14 63 12 -3 25 -2 28 3 8 12 92 22 225 27 106 4 117 6 141 29 14 14 31 25 37 25 27 0 50 178 32 240 -14 47 -67 110 -93 110 -18 0 -22 -15 -6 -25 6 -3 10 -13 10 -21 0 -12 -4 -12 -25 2 -14 9 -25 22 -25 30 0 17 -35 26 -84 22 -28 -2 -42 -10 -54 -31 -23 -38 -6 -48 74 -40 54 5 63 3 81 -17 27 -28 46 -101 34 -132 -24 -63 -99 -100 -209 -102 -31 -1 -61 -4 -67 -7 -24 -14 -67 -19 -86 -9 -29 16 -117 -7 -125 -32 -4 -13 -15 -18 -39 -18 -19 0 -37 -5 -41 -11 -6 -11 -49 -8 -106 6 -25 6 -28 4 -28 -16 0 -12 8 -31 17 -41 14 -16 15 -23 5 -38 -19 -31 -14 -50 16 -61 15 -5 45 -19 68 -30 22 -10 49 -19 60 -19 11 0 52 -16 93 -35 40 -19 82 -35 94 -35 21 0 153 -46 172 -60 6 -4 30 -11 55 -15 45 -7 100 -33 100 -47 0 -4 -54 -7 -120 -6 -81 0 -125 -3 -134 -12 -9 -6 -19 -9 -24 -6 -5 3 -67 0 -138 -5 -136 -11 -232 0 -255 27 -13 16 -39 19 -39 4 0 -5 -14 -10 -31 -10 -23 0 -32 -5 -36 -21 -4 -15 -11 -19 -24 -15 -11 3 -27 8 -36 11 -11 4 -42 -10 -78 -34 -33 -22 -66 -41 -72 -41 -15 0 -17 -19 -5 -38 12 -18 44 -24 147 -29 65 -3 100 -9 127 -24 33 -17 52 -19 180 -16 85 2 152 9 165 16 19 10 29 8 61 -13 56 -35 112 -118 112 -165 0 -10 12 -23 26 -30 21 -9 25 -16 20 -36 -5 -19 1 -32 24 -56 16 -18 30 -38 30 -45 0 -15 81 -71 115 -80 13 -3 29 -12 35 -19 14 -17 114 -52 172 -60 26 -3 50 -10 53 -16 9 -14 51 -11 65 6 16 19 40 19 69 -1 20 -14 33 -15 94 -6 146 23 231 25 263 9 20 -10 44 -14 70 -10 36 5 45 1 96 -41 56 -46 107 -105 91 -107 -51 -7 -115 -10 -258 -14 -93 -2 -178 -4 -187 -4 -13 -1 -18 -9 -18 -27 0 -20 -4 -25 -16 -20 -9 3 -22 6 -30 6 -8 0 -14 6 -14 14 0 18 -25 28 -54 20 -13 -3 -48 2 -80 11 -31 9 -66 15 -79 14 -12 -1 -38 1 -57 4 -19 4 -48 9 -65 11 -16 3 -64 14 -105 25 -41 12 -85 21 -98 21 -12 0 -45 11 -72 25 -27 14 -60 25 -74 25 -14 0 -28 4 -31 10 -3 5 -27 16 -52 23 -39 11 -58 27 -69 55 -4 10 -33 -13 -38 -30 -4 -18 -7 -19 -20 -8 -9 7 -16 18 -16 25 0 7 -9 15 -20 18 -13 3 -18 10 -14 21 5 14 -3 16 -52 16 -55 0 -60 2 -79 31 -18 28 -123 89 -153 89 -7 0 -12 4 -12 10 0 5 -7 7 -15 4 -9 -4 -15 0 -15 9 0 9 -14 30 -32 47 -28 28 -36 31 -70 26 -29 -5 -38 -3 -38 8 0 8 6 16 13 19 17 6 -31 57 -54 57 -9 0 -24 10 -32 23 -8 13 -30 28 -48 33 -26 8 -36 17 -44 44 -14 49 -21 57 -55 63 -27 6 -29 10 -27 44 l2 38 -60 5 c-55 5 -60 7 -58 27 2 13 -8 39 -22 59 -14 20 -25 47 -25 60 0 27 -28 64 -48 64 -8 0 -11 7 -7 18 3 11 -3 29 -13 43 -11 13 -22 40 -26 60 -3 20 -17 45 -31 57 -25 22 -34 62 -14 62 8 0 8 5 -1 15 -7 8 -23 15 -36 15 -28 0 -42 19 -23 31 11 8 10 13 -8 28 -22 19 -31 41 -15 41 4 0 7 18 7 40 0 27 -7 44 -20 55 -14 12 -16 18 -7 21 17 8 15 29 -4 44 -8 7 -14 23 -13 34 3 38 -1 44 -20 39 -29 -7 -46 30 -31 67 13 32 7 83 -15 126 -17 33 -20 94 -5 94 6 0 10 5 10 10 0 6 -7 10 -15 10 -12 0 -15 15 -15 73 0 40 -5 78 -10 83 -10 10 -15 139 -10 265 2 46 -3 76 -15 103 -10 20 -16 38 -14 39 2 1 13 7 23 13 18 9 23 21 30 69 2 11 6 37 11 58 5 24 3 42 -4 51 -9 10 -8 16 4 26 8 7 13 16 10 20 -2 4 5 18 16 31 13 15 18 31 14 44 -14 47 -13 55 6 65 10 6 19 21 19 33 0 12 7 33 16 46 13 18 14 28 5 47 -9 21 -8 28 9 46 11 12 20 30 20 40 0 10 5 18 10 18 6 0 10 8 10 18 0 10 5 23 12 30 6 6 11 26 10 44 -1 33 32 98 49 98 5 0 9 13 9 28 0 15 4 32 9 37 20 21 50 85 57 120 4 24 14 40 30 47 12 6 28 24 35 39 6 16 23 39 38 52 14 12 32 35 38 50 8 17 19 27 30 25 11 -2 19 5 21 17 2 11 12 29 22 40 10 11 20 31 22 44 2 17 10 25 26 26 25 2 51 27 69 68 7 15 16 27 21 27 16 0 92 77 92 93 0 10 8 17 19 17 11 0 31 14 44 30 14 17 35 30 46 30 12 0 21 4 21 10 0 5 19 18 43 29 43 21 72 38 93 56 6 6 21 17 33 25 11 8 21 19 21 26 0 6 11 16 25 22 14 6 25 16 25 22 0 5 7 10 15 10 8 0 24 9 35 20 11 11 21 19 23 19 7 -5 47 14 47 22 0 5 5 9 11 9 6 0 19 10 29 23 15 18 27 22 65 20 32 -1 48 3 52 13 3 8 14 14 25 14 11 0 39 14 63 31 28 20 50 29 61 25 10 -4 25 0 35 10 11 10 43 18 85 22 55 4 68 2 76 -12 5 -9 15 -16 23 -16 19 0 29 38 15 55 -12 15 10 26 65 31 151 16 176 27 157 69 -7 15 -9 31 -6 36 8 14 17 4 20 -24z m-726 6 c0 -5 -4 -15 -10 -23 -11 -18 -25 -7 -17 15 6 15 27 21 27 8z m181 -126 c-8 -8 -11 -5 -11 9 0 27 14 41 18 19 2 -9 -1 -22 -7 -28z m1966 7 c11 -11 13 -18 5 -26 -14 -14 -32 -1 -32 23 0 23 6 24 27 3z m117 -81 c6 -27 4 -33 -9 -33 -13 0 -15 7 -10 34 4 20 2 36 -4 41 -6 3 -8 11 -5 17 8 13 17 -7 28 -59z m84 39 c2 -7 -3 -12 -12 -12 -9 0 -16 7 -16 16 0 17 22 14 28 -4z m-3156 -94 c-9 -9 -12 -7 -12 12 0 19 3 21 12 12 9 -9 9 -15 0 -24z m3302 19 c-5 -13 -44 -41 -44 -31 0 3 5 14 10 25 12 21 42 27 34 6z m539 -20 c-3 -5 -10 -4 -15 1 -6 6 -7 16 -3 22 6 9 9 9 16 -1 4 -7 5 -17 2 -22z m-475 -23 c25 -17 21 -34 -9 -34 -29 0 -51 24 -36 39 14 14 18 14 45 -5z m-3238 -8 c0 -8 -4 -18 -10 -21 -5 -3 -10 3 -10 14 0 12 5 21 10 21 6 0 10 -6 10 -14z m3783 -37 c-8 -8 -14 -6 -22 9 -13 25 -2 37 18 17 11 -11 12 -18 4 -26z m-575 -10 c-19 -13 -28 -11 -28 5 0 9 7 12 21 9 16 -4 17 -8 7 -14z m-3012 -18 c-8 -13 -36 -15 -36 -3 0 4 5 13 12 20 14 14 34 0 24 -17z m-200 -32 c8 -14 -11 -33 -25 -25 -11 7 -4 36 9 36 5 0 12 -5 16 -11z m3489 -36 c-9 -21 -9 -33 0 -90 7 -41 7 -42 -30 -57 -21 -9 -39 -16 -41 -16 -11 0 -1 31 17 53 16 21 18 31 10 46 -16 28 -14 51 3 45 9 -3 17 3 21 15 3 12 11 21 17 21 6 0 7 -7 3 -17z m-3617 -191 c10 -7 8 -15 -9 -36 -17 -21 -24 -24 -35 -15 -35 29 5 75 44 51z m3785 -36 c3 -8 3 -17 -1 -21 -4 -4 -7 -16 -7 -28 0 -11 -6 -22 -12 -24 -8 -3 -13 5 -13 21 0 14 -4 26 -10 26 -5 0 -10 9 -10 20 0 14 7 20 24 20 13 0 26 -6 29 -14z m481 -115 c3 -5 -1 -11 -9 -15 -9 -3 -15 0 -15 9 0 16 16 20 24 6z m-4444 -154 c0 -14 -6 -18 -27 -15 -20 2 -28 9 -28 23 0 11 5 20 12 20 6 0 15 3 19 8 10 9 24 -12 24 -36z m1321 21 c1 -7 2 -48 3 -90 1 -82 -10 -99 -34 -54 -12 23 -11 42 6 129 6 27 23 38 25 15z m-201 -38 c0 -12 -33 -30 -54 -30 -25 0 -19 15 12 27 36 14 42 15 42 3z m40 -78 c0 -13 -71 -72 -87 -72 -26 0 -53 20 -53 40 0 17 7 20 48 20 26 0 54 5 62 10 18 12 30 13 30 2z m-240 -115 c0 -14 -20 -37 -32 -37 -12 0 -10 24 4 38 16 16 28 15 28 -1z m290 3 c0 -12 -40 -34 -47 -26 -9 8 17 36 33 36 8 0 14 -4 14 -10z m70 -106 c0 -8 -3 -14 -7 -14 -12 0 -43 33 -43 47 0 11 5 10 25 -3 14 -9 25 -23 25 -30z m-122 -5 c2 -19 -13 -40 -71 -95 -40 -39 -83 -75 -96 -79 -33 -10 -115 33 -119 63 -5 35 15 52 64 52 58 0 94 17 94 46 0 25 21 45 28 26 6 -18 38 -33 56 -26 9 3 16 15 16 26 0 28 24 17 28 -13z m-1398 -39 c0 -11 -4 -20 -10 -20 -5 0 -10 9 -10 20 0 11 5 20 10 20 6 0 10 -9 10 -20z m3100 -60 c-12 -22 -40 -24 -47 -4 -2 6 9 23 24 39 27 26 28 26 31 7 2 -12 -2 -30 -8 -42z m-2116 15 c-6 -16 -24 -21 -24 -7 0 11 11 22 21 22 5 0 6 -7 3 -15z m-1224 -9 c0 -16 -18 -31 -27 -22 -8 8 5 36 17 36 5 0 10 -6 10 -14z m5035 -116 c8 -12 -41 -32 -69 -28 -28 4 -31 26 -4 31 43 8 67 7 73 -3z m-3795 -59 c0 -10 -30 -24 -37 -17 -3 3 -2 9 2 15 8 13 35 15 35 2z m-60 -57 c0 -9 -7 -14 -17 -12 -25 5 -28 28 -4 28 12 0 21 -6 21 -16z m311 -9 c0 -5 -7 -12 -16 -13 -23 -5 -47 6 -40 19 8 13 56 8 56 -6z m549 -3 c0 -14 -148 -82 -178 -82 -13 0 -11 5 8 20 14 11 32 20 40 20 9 0 31 11 50 25 34 23 80 33 80 17z m1484 -1 c4 -5 37 -21 74 -35 40 -15 82 -40 100 -59 42 -43 82 -135 89 -202 6 -55 23 -83 43 -70 18 11 11 103 -11 146 -26 52 -19 75 10 29 41 -66 58 -182 32 -214 -7 -9 -28 -16 -46 -16 -27 0 -34 5 -49 38 -9 20 -16 53 -14 72 4 77 -49 200 -87 200 -11 0 -10 -7 5 -32 25 -44 43 -125 35 -165 -9 -51 -20 -39 -21 25 -1 71 -29 136 -78 186 -49 48 -64 37 -26 -19 17 -24 37 -71 46 -105 14 -55 14 -63 0 -92 -9 -17 -16 -36 -16 -41 0 -6 -7 -18 -15 -27 -12 -13 -13 -23 -5 -44 14 -38 13 -79 -2 -74 -7 3 -14 15 -16 29 -2 13 -8 34 -14 46 -9 18 -8 27 4 40 8 10 20 38 27 62 11 39 10 51 -10 114 -20 62 -27 73 -67 98 -43 27 -76 40 -134 53 -16 4 -28 13 -28 20 0 17 41 29 54 16 6 -6 21 -10 33 -10 13 0 35 -7 49 -16 13 -9 27 -14 30 -12 10 11 -10 39 -32 44 -13 3 -24 10 -24 15 0 12 57 12 64 0z m-2294 -36 c0 -26 -14 -33 -25 -15 -9 14 1 40 15 40 5 0 10 -11 10 -25z m-49 2 c-1 -12 -15 -9 -19 4 -3 6 1 10 8 8 6 -3 11 -8 11 -12z m1063 4 c7 -11 -49 -25 -64 -16 -5 3 -10 10 -10 16 0 12 67 12 74 0z m-1114 -30 c0 -12 -20 -25 -27 -18 -7 7 6 27 18 27 5 0 9 -4 9 -9z m2646 -9 c25 -21 38 -82 18 -82 -12 0 -64 77 -64 93 0 13 25 6 46 -11z m173 -9 c13 -10 38 -33 57 -50 18 -18 38 -33 43 -33 6 0 29 -38 51 -84 35 -72 41 -93 38 -137 -4 -63 -23 -76 -32 -22 -11 56 -38 113 -54 113 -10 0 -12 7 -8 26 9 33 -43 106 -108 152 -25 18 -46 37 -46 43 0 15 34 10 59 -8z m-500 -42 c13 -9 35 -23 49 -31 28 -17 45 -64 35 -95 -3 -11 -7 -42 -7 -69 -2 -40 -7 -53 -30 -72 -33 -29 -56 -31 -56 -4 0 11 6 20 14 20 19 0 56 48 56 72 0 15 -7 18 -42 16 -40 -3 -43 -1 -46 25 -4 33 15 36 27 5 8 -21 9 -19 16 16 7 34 5 42 -15 58 -12 10 -30 18 -40 18 -10 0 -21 7 -24 16 -6 15 -8 15 -25 0 -18 -16 -19 -15 -24 11 -3 15 -3 31 0 35 7 12 85 -2 112 -21z m-1828 -20 c-8 -13 -22 -21 -39 -21 -15 0 -45 -3 -67 -6 -36 -6 -39 -5 -25 9 20 20 123 56 133 47 5 -4 4 -17 -2 -29z m158 -8 c-42 -46 -85 -73 -116 -73 -26 0 -10 19 62 70 88 63 111 64 54 3z m2568 21 c2 -7 -8 -14 -22 -18 -38 -10 -35 -52 5 -59 34 -7 39 -23 10 -32 -31 -10 -70 22 -70 57 0 46 65 89 77 52z m-3295 -111 c-4 -106 -21 -144 -23 -50 -1 81 2 151 8 160 13 22 19 -17 15 -110z m-1222 20 c0 -15 -16 -17 -25 -3 -3 6 -15 10 -25 10 -27 0 -31 13 -13 40 l16 23 24 -29 c12 -16 23 -35 23 -41z m114 25 c-9 -14 -24 2 -24 25 1 21 1 21 15 3 8 -10 12 -23 9 -28z m1879 -4 c-34 -34 -51 -26 -19 9 14 16 30 26 35 22 6 -3 -2 -17 -16 -31z m2093 2 c50 -57 67 -100 62 -151 -6 -52 -11 -60 -31 -52 -10 4 -17 29 -22 74 -4 43 -15 83 -31 110 -13 23 -24 44 -24 47 0 15 19 3 46 -28z m-2698 -44 c4 -25 -13 -30 -22 -6 -9 25 -7 36 7 32 6 -3 13 -14 15 -26z m349 -37 c1 -49 -2 -65 -12 -65 -7 0 -22 -11 -32 -25 -14 -20 -27 -25 -63 -25 -48 0 -75 3 -102 14 -10 3 -25 8 -33 11 -23 7 -18 31 11 50 19 12 29 14 37 6 19 -19 37 -12 59 24 14 24 26 34 37 31 11 -4 95 34 96 43 0 1 1 -28 2 -64z m-227 5 c0 -5 -7 -10 -15 -10 -8 0 -15 5 -15 10 0 6 7 10 15 10 8 0 15 -4 15 -10z m2041 -25 c-1 -15 -24 -12 -29 3 -3 9 2 13 12 10 10 -1 17 -7 17 -13z m1010 -28 c19 -12 35 -31 37 -41 4 -16 2 -16 -27 -2 -36 19 -92 21 -109 4 -14 -14 -24 -6 -17 14 5 13 57 45 76 47 3 1 21 -9 40 -22z m702 -13 c-27 -20 -39 -17 -18 6 10 11 22 17 27 14 5 -3 1 -12 -9 -20z m-113 1 c0 -9 7 -18 15 -21 20 -8 9 -24 -17 -24 -14 0 -18 5 -15 15 4 8 2 17 -3 20 -15 9 -12 25 5 25 8 0 15 -7 15 -15z m-3788 -42 c2 -22 15 -34 63 -60 33 -18 68 -31 79 -28 10 2 30 -1 45 -6 14 -6 50 -8 80 -4 44 6 62 14 92 43 63 61 99 86 110 75 14 -14 0 -43 -21 -43 -28 0 -34 -18 -20 -61 11 -33 11 -42 -4 -63 -37 -57 -149 -82 -230 -51 -63 24 -54 39 21 36 45 -2 75 3 112 20 28 12 51 25 51 30 0 13 -17 11 -53 -7 -25 -13 -50 -16 -122 -11 -76 4 -100 10 -150 37 -33 17 -64 38 -68 46 -6 11 -17 13 -38 9 -36 -8 -37 1 -1 36 34 36 50 36 54 2z m4298 7 c0 -13 -22 -17 -62 -12 -58 7 -48 28 12 24 27 -2 50 -8 50 -12z m-5705 -20 c-10 -11 -20 -18 -23 -15 -7 6 18 35 31 35 5 0 2 -9 -8 -20z m1215 -20 c8 -5 12 -11 10 -13 -63 -51 -120 -47 -73 5 18 20 40 23 63 8z m2660 -55 c0 -25 -4 -45 -9 -45 -12 0 -21 41 -14 68 9 38 23 24 23 -23z m-3860 5 c0 -10 2 -25 5 -32 4 -11 -3 -13 -30 -10 -19 2 -35 8 -35 13 0 5 4 9 9 9 5 0 12 11 15 25 7 28 36 24 36 -5z m3650 20 c0 -5 -9 -14 -20 -20 -16 -8 -20 -8 -20 4 0 13 13 23 33 25 4 1 7 -3 7 -9z m270 -35 c0 -19 -4 -35 -10 -35 -5 0 -10 16 -10 35 0 19 5 35 10 35 6 0 10 -16 10 -35z m-440 5 c0 -11 -4 -20 -10 -20 -5 0 -10 9 -10 20 0 11 5 20 10 20 6 0 10 -9 10 -20z m568 -31 c-1 -13 -7 -23 -13 -22 -13 3 -18 30 -11 50 10 24 29 1 24 -28z m116 25 c11 -28 7 -66 -6 -62 -13 5 -29 63 -20 73 10 9 20 5 26 -11z m62 -5 c4 -8 9 -8 17 0 17 17 24 13 31 -15 8 -31 -10 -57 -20 -31 -8 21 -24 22 -24 1 0 -29 -25 -8 -28 24 -3 31 10 43 24 21z m118 -28 c6 -21 6 -35 -2 -43 -18 -18 -32 1 -32 43 0 49 20 49 34 0z m-4454 23 c0 -4 -7 -12 -15 -18 -8 -6 -16 -24 -17 -41 -1 -16 -8 -36 -15 -43 -17 -18 -16 -39 1 -45 16 -6 10 -47 -6 -47 -6 0 -8 -17 -5 -38 3 -30 -1 -45 -19 -68 -17 -21 -24 -24 -24 -12 0 9 4 18 9 20 5 2 3 26 -5 53 -13 52 -9 96 8 92 12 -2 19 27 21 91 1 25 8 46 17 52 17 11 50 13 50 4z m4215 -22 c0 -18 -20 -15 -23 4 -3 10 1 15 10 12 7 -3 13 -10 13 -16z m-590 -76 c19 -31 37 -109 33 -142 -5 -49 -23 -32 -30 31 -4 33 -15 79 -24 103 -9 25 -13 50 -8 60 6 14 8 13 12 -7 2 -14 10 -34 17 -45z m2275 49 c0 -8 -7 -15 -15 -15 -8 0 -15 7 -15 15 0 8 7 15 15 15 8 0 15 -7 15 -15z m-5800 -33 c0 -10 -12 -22 -29 -29 -25 -9 -30 -8 -34 8 -4 13 0 19 13 19 10 0 21 7 24 16 7 19 26 9 26 -14z m1345 -32 c-3 -16 -2 -31 4 -35 6 -3 11 -13 11 -20 0 -24 -26 -6 -46 30 -18 34 -18 35 1 49 26 19 38 10 30 -24z m595 28 c0 -7 -7 -26 -15 -42 -8 -15 -15 -46 -15 -68 0 -32 -7 -47 -34 -74 -19 -19 -43 -34 -54 -34 -12 0 -23 -9 -27 -22 l-8 -23 -4 21 c-5 24 -42 36 -66 22 -11 -6 -19 -3 -25 8 -13 24 -45 10 -37 -15 3 -11 2 -22 -3 -25 -11 -7 -22 26 -22 67 0 22 4 27 25 27 26 0 34 15 13 23 -29 10 7 20 68 19 l67 -1 53 51 c30 28 54 57 54 64 0 8 7 14 15 14 8 0 15 -6 15 -12z m-1602 -39 c-2 -6 -8 -10 -13 -10 -5 0 -11 4 -13 10 -2 6 4 11 13 11 9 0 15 -5 13 -11z m1242 1 c0 -5 -12 -10 -26 -10 -14 0 -23 4 -19 10 3 6 15 10 26 10 10 0 19 -4 19 -10z m-1658 -42 c-6 -6 -15 -8 -19 -4 -4 4 -1 11 7 16 19 12 27 3 12 -12z m4748 3 c0 -5 -7 -11 -15 -15 -9 -3 -15 0 -15 9 0 8 7 15 15 15 8 0 15 -4 15 -9z m-89 -111 c11 -67 6 -140 -10 -140 -8 0 -19 81 -25 182 -5 104 15 79 35 -42z m1203 81 c15 -16 15 -21 2 -47 -8 -16 -20 -41 -27 -56 -7 -16 -19 -28 -27 -28 -12 0 -14 11 -9 60 5 56 19 90 37 90 4 0 14 -8 24 -19z m-5586 -18 c2 -8 -5 -13 -17 -13 -12 0 -21 6 -21 16 0 18 31 15 38 -3z m122 -12 c0 -14 -18 -23 -30 -16 -6 4 -8 11 -5 16 8 12 35 12 35 0z m-69 -43 c28 -35 24 -56 -6 -28 -14 13 -25 29 -25 37 0 19 9 16 31 -9z m1255 11 c8 -14 -18 -31 -30 -19 -9 9 0 30 14 30 5 0 12 -5 16 -11z m-176 -14 c0 -15 -58 -51 -67 -41 -10 10 7 37 29 46 33 13 38 12 38 -5z m70 0 c7 -9 11 -18 8 -20 -9 -10 -38 7 -38 21 0 18 14 18 30 -1z m-1208 -20 c0 -5 -5 -11 -11 -13 -6 -2 -11 4 -11 13 0 9 5 15 11 13 6 -2 11 -8 11 -13z m-217 -23 c1 -12 -4 -22 -12 -22 -7 0 -13 11 -13 26 0 31 23 28 25 -4z m3737 -36 c11 -23 27 -45 34 -49 17 -9 19 -27 3 -27 -23 0 -89 99 -89 132 0 19 31 -15 52 -56z m-3861 10 c0 -3 6 -24 14 -46 9 -26 10 -42 4 -46 -6 -3 -11 -4 -13 -3 -39 59 -43 73 -23 93 11 13 19 14 18 2z m160 -29 c-13 -13 -26 -3 -16 12 3 6 11 8 17 5 6 -4 6 -10 -1 -17z m4747 14 c11 -6 10 -11 -4 -25 -9 -9 -23 -15 -31 -12 -8 3 -19 6 -24 6 -16 0 -9 28 9 33 28 7 36 7 50 -2z m-3353 -21 c0 -15 -50 -48 -59 -39 -3 3 0 18 7 32 13 29 52 35 52 7z m-1445 -5 c10 -12 10 -15 -4 -15 -9 0 -16 7 -16 15 0 8 2 15 4 15 2 0 9 -7 16 -15z m1538 3 c-6 -17 -36 -34 -44 -25 -4 4 1 14 12 22 23 18 37 19 32 3z m242 2 c0 -12 -35 -31 -44 -23 -3 3 2 12 12 19 20 16 32 17 32 4z m3036 -25 c-1 -9 -19 -24 -39 -35 l-37 -20 0 26 c0 21 4 25 20 21 10 -3 24 1 31 9 15 18 28 18 25 -1z m-4468 -3 c9 -7 8 -13 -8 -27 -12 -11 -19 -29 -18 -44 2 -31 -8 -51 -26 -51 -16 0 -30 43 -16 48 6 2 10 15 10 28 0 41 29 64 58 46z m1330 -64 c50 -17 141 -30 211 -30 13 0 30 7 39 16 14 14 13 16 -10 25 -14 5 -44 7 -67 4 -25 -3 -41 -2 -41 5 0 11 54 22 90 18 14 -2 31 -4 38 -5 6 0 12 -8 12 -16 0 -8 7 -15 16 -15 11 0 14 -6 9 -21 -9 -26 1 -66 18 -72 6 -2 3 -2 -8 0 -60 14 -75 15 -75 4 0 -6 7 -14 15 -17 9 -4 14 -13 13 -22 -2 -10 8 -18 29 -24 41 -11 52 -28 18 -28 -54 0 -115 50 -115 95 0 19 -6 21 -62 22 -41 1 -80 9 -111 23 -57 26 -92 20 -83 -15 4 -15 -1 -28 -14 -40 -26 -23 -34 -15 -18 19 9 22 9 32 -1 48 -11 18 -11 20 4 14 16 -6 16 -4 4 11 -8 10 -18 21 -23 24 -5 4 -5 12 -1 18 5 9 14 8 32 -4 14 -9 50 -26 81 -37z m-1658 34 c0 -13 -12 -22 -22 -16 -10 6 -1 24 13 24 5 0 9 -4 9 -8z m4921 -29 c4 -12 5 -24 1 -27 -12 -7 -29 7 -37 32 -6 19 -4 23 10 20 10 -1 21 -13 26 -25z m52 13 c6 -16 -18 -54 -28 -45 -8 9 5 59 15 59 4 0 10 -6 13 -14z m-4593 -15 c0 -5 -7 -12 -16 -15 -22 -9 -24 -8 -24 9 0 8 9 15 20 15 11 0 20 -4 20 -9z m1104 -35 c-19 -31 -34 -33 -34 -7 0 21 43 58 48 42 2 -5 -4 -21 -14 -35z m3816 19 c28 -33 -16 -84 -46 -53 -16 16 -16 18 0 42 19 30 29 32 46 11z m-1366 -50 c32 -8 67 -13 79 -11 62 13 107 15 107 6 0 -17 -82 -50 -124 -50 l-41 -1 23 -19 c12 -10 28 -20 35 -23 9 -3 9 -8 1 -16 -8 -9 -19 -6 -42 14 -17 14 -34 34 -37 45 -3 10 -16 22 -28 26 -32 10 -88 55 -81 65 3 5 15 2 28 -6 13 -9 49 -22 80 -30z m834 3 c13 -13 16 -58 4 -58 -15 0 -32 24 -32 47 0 25 10 29 28 11z m-148 -19 c0 -11 -4 -17 -10 -14 -5 3 -10 13 -10 21 0 8 5 14 10 14 6 0 10 -9 10 -21z m214 5 c4 -9 4 -19 2 -21 -8 -8 -26 8 -26 23 0 19 16 18 24 -2z m73 -4 c16 -19 16 -30 2 -30 -12 0 -38 29 -39 43 0 12 24 3 37 -13z m-4556 -15 c-1 -15 -24 -12 -29 3 -3 9 2 13 12 10 10 -1 17 -7 17 -13z m1467 -17 c-6 -18 -28 -21 -28 -4 0 9 7 16 16 16 9 0 14 -5 12 -12z m-128 -22 c0 -12 -40 -46 -55 -46 -11 0 -4 29 11 44 19 20 44 21 44 2z m-1347 -60 c8 -19 -15 -37 -32 -26 -17 10 -7 40 13 40 7 0 16 -6 19 -14z m-262 -38 c-5 -26 -12 -34 -34 -36 -19 -2 -27 1 -27 12 0 27 24 56 46 56 19 0 21 -4 15 -32z m209 -34 c0 -33 -16 -30 -28 5 -9 26 -8 28 9 24 12 -3 19 -14 19 -29z m-331 -12 c25 4 28 2 21 -12 -21 -38 -37 -42 -59 -14 -24 31 -28 52 -6 34 8 -7 28 -10 44 -8z m4114 -29 c9 -9 -12 -33 -29 -33 -17 0 -18 27 -1 33 18 8 23 8 30 0z m-3727 -24 c2 -35 5 -39 25 -39 18 0 20 -4 14 -27 -4 -16 -7 -41 -8 -57 -4 -63 -36 -32 -52 52 -4 17 -11 32 -16 32 -14 0 -11 48 4 53 18 8 32 2 33 -14z m-266 -83 c0 -2 3 -11 6 -20 4 -12 0 -16 -15 -16 -14 0 -21 6 -21 20 0 11 7 20 15 20 8 0 15 -2 15 -4z m2428 -24 c3 -19 -1 -23 -15 -20 -10 2 -19 14 -21 26 -3 19 1 23 15 20 10 -2 19 -14 21 -26z m-2318 -37 c7 -9 11 -18 8 -20 -9 -10 -38 7 -38 21 0 18 14 18 30 -1z m-234 -53 c-9 -9 -37 8 -31 18 5 8 11 7 21 -1 8 -6 12 -14 10 -17z m342 -18 c-10 -10 -28 6 -28 24 0 15 1 15 17 -1 9 -9 14 -19 11 -23z m-320 -13 c11 -7 11 -9 -1 -14 -16 -6 -27 0 -27 15 0 10 11 10 28 -1z m2922 -165 c0 -41 3 -81 6 -90 4 -10 1 -16 -7 -16 -18 0 -45 83 -30 88 6 2 11 24 11 48 0 24 5 44 10 44 6 0 10 -31 10 -74z m-80 35 c0 -12 -29 -35 -36 -28 -11 10 5 37 21 37 8 0 15 -4 15 -9z m-2758 -73 c-5 -33 -18 -58 -31 -58 -7 0 -4 51 4 78 3 6 10 12 18 12 10 0 12 -10 9 -32z m120 -11 c-7 -8 -9 -17 -5 -20 7 -8 -16 -37 -29 -37 -6 0 -8 6 -5 14 3 7 1 18 -5 24 -7 7 -1 15 18 25 32 17 43 14 26 -6z m5198 -7 c0 -13 -7 -20 -18 -20 -26 0 -34 11 -21 27 17 20 39 16 39 -7z m-4950 -17 c9 -8 -25 -23 -54 -23 -22 0 -27 4 -22 16 3 9 6 20 6 24 0 8 57 -6 70 -17z m58 -8 c5 -16 -25 -17 -31 -2 -3 8 1 13 11 12 10 0 18 -5 20 -10z m2256 -42 c-8 -56 -12 -63 -25 -43 -27 42 -18 90 18 90 11 0 13 -10 7 -47z m-2283 -48 c24 15 -15 -41 -47 -68 -19 -16 -32 -32 -29 -36 6 -11 -40 -31 -71 -31 -33 0 -26 25 7 26 27 0 102 70 93 86 -3 5 -3 16 0 25 5 12 9 13 21 3 8 -6 19 -9 26 -5z m4529 -62 c0 -47 -15 -75 -29 -54 -10 15 -9 24 7 64 16 37 22 34 22 -10z m-1252 -81 c2 -7 -3 -12 -12 -12 -9 0 -16 7 -16 16 0 17 22 14 28 -4z m1262 -32 c0 -9 -31 -23 -37 -16 -3 3 1 11 8 19 14 15 29 13 29 -3z m-2270 -90 c0 -11 -4 -20 -9 -20 -5 0 -16 -3 -25 -6 -22 -9 -21 22 2 35 25 15 32 13 32 -9z m-2482 1 c11 -7 11 -9 -1 -14 -9 -3 -18 1 -21 9 -6 16 2 18 22 5z m272 -42 c0 -15 -22 -21 -31 -8 -14 22 -11 28 11 22 11 -3 20 -9 20 -14z m2140 -28 c0 -12 -20 -25 -27 -18 -7 7 6 27 18 27 5 0 9 -4 9 -9z m-2147 -45 c22 -7 25 -76 2 -76 -7 0 -18 -8 -23 -17 -6 -9 -16 -18 -23 -19 -8 -1 -22 -5 -33 -10 -16 -6 -17 -4 -11 17 4 13 14 31 21 40 19 21 18 46 -3 57 -10 6 -14 16 -10 26 6 16 9 16 34 2 16 -8 36 -17 46 -20z m217 24 c0 -5 -6 -13 -13 -17 -7 -4 -17 -21 -22 -37 -6 -16 -16 -31 -24 -34 -18 -6 -5 56 17 81 16 18 42 23 42 7z m4248 -87 c6 -19 -25 -16 -32 3 -4 11 -1 14 11 12 9 -2 18 -9 21 -15z m-4338 -34 c0 -5 -5 -9 -11 -9 -7 0 -9 -11 -6 -26 4 -23 2 -25 -22 -19 -36 9 -36 10 -10 43 22 27 49 33 49 11z m784 15 c21 -8 21 -30 0 -38 -16 -6 -54 9 -54 23 0 20 24 26 54 15z m3424 -45 c-23 -30 -55 -38 -76 -17 -24 24 -13 38 27 38 22 0 43 5 46 10 4 6 11 8 16 5 5 -4 -1 -19 -13 -36z m-3008 14 c47 -2 89 -8 94 -13 9 -9 -21 -67 -40 -74 -15 -6 -167 77 -172 94 -3 9 1 11 14 6 11 -5 57 -10 104 -13z m224 -13 c15 -15 3 -20 -37 -13 -22 3 -37 11 -37 19 0 11 9 13 33 9 17 -4 36 -10 41 -15z m2576 -25 c7 -9 9 -26 5 -47 -10 -44 -13 -48 -30 -41 -18 6 -19 35 -3 51 10 10 10 17 0 32 -10 16 -10 20 2 20 7 0 19 -7 26 -15z m-2516 -11 c9 -3 16 -15 16 -25 0 -17 -3 -18 -20 -7 -37 23 -34 47 4 32z m-1564 -39 c0 -8 -4 -15 -9 -15 -13 0 -22 16 -14 24 11 11 23 6 23 -9z m156 1 c11 -8 53 -18 92 -22 59 -5 76 -4 90 9 15 14 21 13 60 -10 48 -29 51 -36 20 -57 -30 -22 -78 -20 -108 4 -32 25 -58 25 -85 0 -20 -18 -23 -19 -35 -5 -15 18 -41 20 -37 3 5 -29 -29 -10 -50 27 -28 50 -28 53 0 58 12 2 24 5 27 6 3 0 15 -5 26 -13z m4534 -50 c0 -2 -3 -11 -6 -20 -9 -23 -24 -20 -24 4 0 11 7 20 15 20 8 0 15 -2 15 -4z m-3016 -41 c31 -53 61 -68 96 -46 10 7 19 2 32 -20 10 -16 26 -29 37 -29 11 0 32 -16 47 -36 15 -19 43 -44 63 -54 20 -10 44 -27 54 -37 16 -19 16 -20 -7 -33 -18 -9 -51 -11 -116 -8 -50 3 -93 2 -96 -3 -3 -5 8 -17 23 -26 43 -28 42 -47 -3 -40 -49 8 -77 34 -69 64 5 20 -1 26 -37 42 -24 11 -60 35 -82 53 -31 28 -39 43 -43 80 -6 51 9 81 49 103 28 16 39 14 52 -10z m2551 -14 c-3 -6 -18 -11 -33 -11 -29 0 -20 15 13 22 24 5 29 3 20 -11z m-3808 -61 c-1 -12 -12 -20 -36 -24 -19 -3 -38 -3 -43 0 -15 10 -8 34 11 34 10 0 24 7 31 15 16 19 39 3 37 -25z m3953 14 c19 -22 8 -59 -18 -62 -20 -3 -23 0 -17 17 7 24 -13 28 -45 9 -31 -20 -36 0 -6 31 28 30 64 32 86 5z m-4290 -9 c0 -8 -4 -15 -10 -15 -5 0 -10 7 -10 15 0 8 5 15 10 15 6 0 10 -7 10 -15z m422 -17 c7 -19 -2 -38 -18 -38 -8 0 -14 8 -14 18 0 30 23 44 32 20z m-222 -47 c0 -5 -7 -11 -15 -15 -15 -5 -20 5 -8 17 9 10 23 9 23 -2z m138 -37 c4 -27 -26 -54 -38 -35 -4 8 -6 21 -5 30 2 9 4 20 4 24 2 18 36 1 39 -19z m-338 -9 c0 -8 -7 -15 -15 -15 -16 0 -20 12 -8 23 11 12 23 8 23 -8z m468 -17 c20 -20 15 -58 -7 -58 -22 0 -29 15 -23 47 5 26 12 29 30 11z m-292 -36 c1 -33 -3 -36 -30 -26 -19 7 -21 35 -4 52 19 19 33 8 34 -26z m188 -27 c7 -20 -5 -55 -20 -55 -16 0 -29 43 -20 65 6 17 32 10 40 -10z m-126 -13 c2 -7 -6 -12 -17 -12 -21 0 -27 11 -14 24 9 9 26 2 31 -12z m490 -7 c35 -12 27 -33 -13 -33 -30 0 -35 3 -35 23 0 23 3 24 48 10z m3522 6 c0 -10 -47 -51 -59 -51 -16 0 -13 11 9 35 19 20 50 30 50 16z m-3690 -72 c0 -10 -4 -21 -10 -24 -5 -3 -10 -28 -10 -56 0 -56 -10 -61 -45 -21 -25 28 -33 62 -15 62 21 0 9 27 -17 40 l-28 14 42 6 c24 3 46 9 49 13 11 10 34 -13 34 -34z m-341 -35 c3 -16 1 -17 -13 -5 -19 16 -21 34 -3 29 6 -3 14 -13 16 -24z m436 -31 c30 -35 30 -41 3 -65 -32 -27 -43 -18 -46 40 -3 60 7 66 43 25z m3395 17 c0 -5 -9 -10 -20 -10 -11 0 -20 5 -20 10 0 6 9 10 20 10 11 0 20 -4 20 -10z m-3655 -41 c9 -29 -4 -38 -21 -15 -18 25 -18 36 0 36 8 0 18 -9 21 -21z m3613 -35 c-10 -10 -28 6 -28 24 0 15 1 15 17 -1 9 -9 14 -19 11 -23z m-3145 -10 c16 -21 16 -28 6 -41 -12 -13 -15 -13 -31 7 -18 22 -38 23 -80 5 -14 -5 -18 -2 -18 13 0 14 10 22 43 29 60 15 60 15 80 -13z m247 -39 c-7 -8 -19 -15 -26 -15 -8 0 -14 7 -14 15 0 10 10 15 26 15 22 0 25 -2 14 -15z m80 -20 c0 -13 -4 -26 -9 -30 -13 -7 -34 33 -27 51 8 21 36 5 36 -21z m2660 0 c0 -8 -7 -15 -15 -15 -8 0 -15 7 -15 15 0 8 7 15 15 15 8 0 15 -7 15 -15z m-2514 -10 c-26 -19 -42 -19 -26 0 7 8 20 15 29 15 13 -1 13 -3 -3 -15z m-546 -16 c6 -11 10 -30 8 -42 -3 -19 -9 -22 -47 -20 -24 1 -46 5 -49 8 -3 3 2 21 11 40 20 41 59 48 77 14z m2960 12 c0 -12 -20 -25 -27 -18 -7 7 6 27 18 27 5 0 9 -4 9 -9z m-3121 -36 c-35 -44 -73 -75 -90 -75 -10 0 -19 3 -19 7 0 15 105 102 114 93 5 -5 3 -16 -5 -25z m253 23 c12 -10 14 -19 7 -35 -11 -31 -35 -29 -43 2 -11 42 6 56 36 33z m353 -48 c-4 -13 -1 -22 9 -26 22 -9 20 -41 -3 -47 -11 -3 -22 -2 -25 1 -8 7 -8 56 0 76 9 23 26 20 19 -4z m-319 -23 c1 -9 -3 -17 -10 -17 -6 0 -12 9 -13 21 -2 24 19 21 23 -4z m433 -58 c-16 -14 -22 -31 -23 -64 -1 -29 -5 -45 -13 -45 -7 0 -13 8 -13 18 0 9 -7 30 -15 46 -17 32 -6 56 24 56 9 0 25 10 36 23 18 20 20 20 23 4 2 -10 -6 -27 -19 -38z m-620 19 c-5 -10 -12 -18 -14 -18 -3 0 -5 8 -5 18 0 10 7 19 14 19 11 0 13 -5 5 -19z m1515 16 c20 -8 11 -24 -15 -24 -10 0 -19 7 -19 15 0 16 9 19 34 9z m-1274 -24 c0 -11 -4 -20 -9 -20 -11 0 -22 26 -14 34 12 12 23 5 23 -14z m243 -84 c6 -15 -1 -26 -15 -26 -4 0 -8 9 -8 20 0 23 15 27 23 6z m2108 -39 c-8 -8 -11 -5 -11 9 0 27 14 41 18 19 2 -9 -1 -22 -7 -28z m116 28 c8 -22 -6 -33 -17 -15 -13 20 -12 30 0 30 6 0 13 -7 17 -15z m-2059 -18 c2 -9 -3 -17 -10 -17 -8 0 -14 9 -15 21 -2 24 20 20 25 -4z m-434 -6 c16 -17 16 -21 -1 -55 -18 -35 -36 -45 -48 -26 -3 5 0 18 7 30 10 16 10 24 0 40 -16 26 -15 30 6 30 11 0 27 -8 36 -19z m875 3 c7 -6 -21 -34 -35 -34 -7 0 -18 -8 -23 -17 -9 -16 -12 -16 -21 -3 -7 11 -6 16 4 18 8 2 17 14 20 28 5 20 11 24 29 18 12 -3 24 -8 26 -10z m-369 -14 c0 -12 -28 -25 -36 -17 -9 9 6 27 22 27 8 0 14 -5 14 -10z m1550 -20 c8 -5 11 -12 8 -16 -10 -9 -38 3 -38 16 0 12 10 13 30 0z m-1723 -15 c0 -18 -19 -15 -25 3 -2 7 3 12 11 12 7 0 14 -7 14 -15z m-249 -27 c10 -27 9 -35 -3 -47 -12 -13 -15 -11 -25 13 -14 37 -13 66 3 66 7 0 18 -14 25 -32z m485 -5 c6 -32 3 -38 -12 -28 -13 8 -15 55 -2 55 5 0 11 -12 14 -27z m-69 -1 c8 -13 -18 -81 -33 -87 -17 -7 -26 2 -36 33 -5 16 -2 22 9 22 9 0 21 9 28 20 14 21 24 25 32 12z m-307 -17 c8 -9 13 -18 10 -21 -10 -10 -47 7 -47 22 0 18 18 18 37 -1z m1755 -37 c-9 -9 -12 -7 -12 12 0 19 3 21 12 12 9 -9 9 -15 0 -24z m-1082 -23 c0 -8 -4 -15 -10 -15 -5 0 -10 7 -10 15 0 8 5 15 10 15 6 0 10 -7 10 -15z m-425 -61 c0 -12 -8 -20 -22 -22 -25 -4 -31 16 -11 36 17 17 33 10 33 -14z m255 12 c0 -2 -7 -9 -15 -16 -12 -10 -15 -10 -15 4 0 9 7 16 15 16 8 0 15 -2 15 -4z m-213 -80 c-6 -17 -31 -13 -35 6 -2 12 2 15 18 11 11 -3 19 -11 17 -17z m449 -44 c-4 -3 -11 -1 -18 6 -8 8 -8 15 3 28 13 16 14 16 17 -5 2 -13 1 -25 -2 -29z"/>
 <path d="M3535 5300 c-7 -11 19 -59 33 -61 4 -1 32 -2 63 -4 83 -4 172 -68 197 -142 16 -49 3 -46 -39 7 -44 55 -83 80 -128 80 -16 0 -42 6 -58 14 -52 26 -104 46 -118 46 -16 0 -39 -36 -31 -49 11 -17 124 -53 145 -46 22 7 54 -13 114 -70 31 -29 31 -30 10 -33 -39 -6 -21 -55 22 -66 25 -6 26 -10 23 -59 -3 -46 -1 -52 17 -52 34 0 42 55 16 116 -12 28 -20 54 -16 57 12 12 44 -35 59 -87 18 -63 14 -76 -50 -138 -50 -49 -74 -63 -106 -63 -45 0 -51 -13 -27 -55 l23 -38 -34 -29 c-40 -33 -51 -34 -75 -8 -12 13 -15 27 -11 45 8 30 36 34 36 5 0 -20 25 -38 37 -26 3 3 1 24 -6 47 l-12 41 -67 -6 c-37 -4 -83 -7 -102 -7 -19 0 -50 -10 -70 -22 -62 -37 -80 -77 -35 -77 18 0 28 -7 35 -24 13 -36 40 -46 113 -44 48 2 71 -2 84 -14 10 -8 30 -18 46 -22 15 -3 27 -11 27 -16 0 -6 15 -10 34 -10 25 0 35 -5 39 -20 4 -16 14 -20 45 -20 30 0 42 -5 46 -18 6 -17 87 -72 107 -72 6 0 19 -11 30 -24 10 -13 32 -29 49 -36 18 -7 46 -26 63 -42 65 -58 78 -68 87 -68 24 0 5 27 -57 84 -38 33 -93 86 -123 117 -30 31 -66 60 -80 64 -94 28 -170 94 -170 145 0 59 73 110 136 94 32 -8 26 -25 -14 -43 -17 -8 -34 -21 -37 -30 -11 -27 28 -63 90 -84 55 -17 61 -18 86 -3 17 10 51 16 91 16 34 0 70 5 78 10 12 8 12 10 -5 11 -11 1 -33 0 -49 -1 -20 -1 -27 2 -24 12 4 10 40 13 164 13 148 0 165 -2 241 -28 45 -15 87 -34 93 -42 16 -19 3 -19 -50 0 -48 17 -60 18 -60 7 0 -4 22 -15 49 -25 57 -20 180 -112 200 -150 9 -17 11 -40 7 -71 -6 -37 -13 -48 -42 -65 -38 -23 -44 -49 -16 -74 32 -29 75 -21 113 20 19 21 35 49 35 63 1 14 5 34 8 45 5 15 -2 32 -23 59 -17 21 -31 48 -31 59 0 43 -113 168 -187 205 -60 31 -179 69 -288 92 -55 11 -119 30 -142 41 -48 23 -123 102 -123 130 0 39 -11 50 -46 43 -34 -6 -48 8 -19 20 12 4 14 15 9 48 -9 59 -22 73 -45 52 -10 -9 -23 -13 -28 -9 -14 8 -14 35 -1 35 6 0 10 11 10 25 0 16 -6 25 -15 25 -8 0 -15 5 -15 11 0 13 -94 112 -133 141 -15 11 -62 29 -104 39 -88 22 -90 22 -98 9z m443 -446 c27 -18 29 -34 4 -34 -21 0 -62 27 -62 41 0 14 33 11 58 -7z m136 -133 c6 -9 135 -53 194 -66 32 -7 45 -25 18 -25 -8 0 -56 11 -106 25 -92 24 -140 47 -140 65 0 12 27 13 34 1z m-106 -73 c19 -19 14 -45 -10 -62 -31 -22 -47 -20 -59 8 -22 47 33 90 69 54z m477 -42 c19 -8 35 -19 35 -25 0 -13 -73 12 -78 27 -5 15 1 15 43 -2z m172 -102 c3 -8 1 -20 -6 -27 -14 -14 -47 15 -37 32 10 16 36 13 43 -5z"/>
 <path d="M3955 4620 c-8 -12 20 -24 35 -15 6 3 8 11 5 16 -8 12 -32 12 -40 -1z"/>
 <path d="M3330 5121 c0 -15 6 -21 21 -21 25 0 22 33 -4 38 -12 2 -17 -3 -17 -17z"/>
 <path d="M3402 5123 c4 -20 54 -29 77 -14 23 15 2 31 -40 31 -33 0 -40 -3 -37 -17z"/>
 <path d="M3516 5116 c7 -19 38 -22 32 -3 -3 6 -12 13 -21 15 -12 2 -15 -1 -11 -12z"/>
 <path d="M2648 4552 c3 -37 0 -53 -13 -65 -23 -24 -35 -13 -35 32 l0 38 -40 -19 c-36 -18 -40 -24 -40 -59 l0 -39 44 0 c92 0 114 -24 96 -104 -8 -38 -7 -51 6 -71 15 -23 14 -25 -10 -50 -14 -14 -30 -25 -36 -25 -13 0 -13 23 1 37 19 19 3 41 -36 52 -57 15 -65 8 -65 -64 0 -44 -5 -66 -15 -75 -23 -19 -16 -94 8 -98 25 -5 127 46 127 63 0 7 -12 23 -27 34 -24 17 -26 22 -13 31 24 16 37 12 65 -21 18 -23 25 -41 23 -63 -2 -25 1 -31 16 -29 10 0 47 -3 82 -8 67 -9 94 -5 94 16 0 16 -41 32 -98 38 -50 6 -57 10 -49 32 5 11 21 15 65 15 112 0 98 50 -19 74 -79 16 -87 38 -16 46 61 7 82 27 68 63 -10 25 -15 27 -65 27 -59 0 -76 11 -55 37 10 12 23 14 59 8 58 -10 118 -9 154 0 37 10 32 -12 -9 -35 -18 -10 -29 -25 -31 -43 -1 -15 -6 -37 -10 -49 -5 -17 1 -27 27 -49 30 -25 32 -29 21 -53 -6 -15 -23 -31 -37 -38 -32 -14 -31 -19 5 -40 25 -15 30 -23 30 -57 0 -38 2 -41 38 -50 87 -22 122 -24 129 -5 9 25 -28 51 -87 59 -74 10 -65 31 18 38 77 6 104 15 99 31 -6 20 -65 53 -104 59 -41 7 -82 31 -71 42 4 4 41 8 82 9 42 1 81 7 87 13 18 18 3 42 -28 48 -15 4 -36 10 -45 16 -10 5 -31 9 -47 9 -27 0 -49 15 -38 26 2 2 31 8 63 12 75 9 83 30 25 66 -41 26 -47 40 -53 126 -3 32 -6 35 -46 43 -51 10 -58 6 -41 -22 11 -17 10 -27 -9 -66 -31 -63 -55 -61 -46 4 4 31 2 51 -5 55 -6 4 -11 16 -11 27 0 15 -7 19 -36 19 -35 0 -36 -1 -30 -27 9 -38 7 -96 -4 -107 -5 -5 -16 -6 -25 -2 -12 4 -14 14 -10 40 10 49 -17 96 -54 96 -28 0 -28 -1 -23 -48z"/>
 <path d="M3026 4573 c-3 -4 -6 -30 -6 -59 l0 -53 55 -26 c60 -28 68 -46 39 -89 -14 -23 -14 -25 8 -40 26 -18 61 -21 89 -6 25 14 25 50 0 50 -10 0 -21 9 -24 19 -6 24 0 31 25 31 16 0 18 6 12 58 -9 79 -18 94 -57 90 -30 -3 -32 -6 -35 -45 -4 -58 -28 -57 -36 1 -4 24 -12 49 -19 54 -18 14 -44 21 -51 15z"/>
 <path d="M4202 4575 c7 -8 193 -45 222 -45 31 0 -1 29 -38 34 -63 10 -190 17 -184 11z"/>
 <path d="M3262 4493 c-1 -27 -2 -68 -3 -93 -1 -25 3 -61 8 -80 9 -33 11 -35 52 -34 24 0 49 8 58 17 15 15 13 17 -20 33 -35 17 -49 34 -28 34 12 0 44 102 39 126 -2 13 -13 20 -33 22 -17 2 -34 8 -39 13 -22 20 -33 8 -34 -38z"/>
 <path d="M2523 4403 c-16 -6 -17 -35 -1 -51 7 -7 29 -12 50 -12 67 0 61 51 -7 63 -16 2 -36 3 -42 0z"/>
 <path d="M3148 4220 c-16 -15 -28 -31 -28 -34 0 -14 71 -36 114 -36 52 0 78 -8 70 -22 -3 -5 12 -26 35 -47 28 -26 41 -46 41 -64 0 -21 12 -35 50 -63 28 -20 50 -40 50 -45 0 -25 151 -61 165 -39 4 6 -1 20 -11 31 -9 10 -15 22 -12 24 3 3 39 -6 81 -20 89 -29 96 -30 104 -9 7 19 -53 84 -79 84 -10 0 -34 7 -53 14 -34 15 -35 14 -35 -8 0 -21 -5 -23 -54 -25 -67 -2 -106 12 -106 38 0 31 21 36 40 10 16 -21 21 -22 45 -11 27 13 27 13 9 34 -11 11 -33 27 -49 34 -17 7 -39 22 -49 33 -23 26 -54 27 -72 4 -9 -12 -13 -14 -14 -5 0 7 -15 19 -32 27 l-33 13 28 11 c20 8 27 17 27 36 0 30 -30 45 -90 45 -21 0 -42 5 -45 10 -12 20 -69 8 -97 -20z m302 -206 c0 -17 -22 -14 -28 4 -2 7 3 12 12 12 9 0 16 -7 16 -16z"/>
 <path d="M3527 4153 c-13 -12 -7 -23 13 -23 10 0 24 -9 30 -21 21 -39 180 -93 180 -61 0 13 -99 86 -133 99 -36 13 -80 16 -90 6z"/>
 <path d="M3175 4091 c-3 -6 -26 -13 -50 -17 -50 -7 -66 -21 -38 -31 10 -3 29 -15 42 -25 30 -23 176 -26 206 -4 18 13 18 14 -3 31 -11 10 -47 27 -79 37 -68 21 -70 21 -78 9z"/>
 <path d="M3800 4001 c0 -40 81 -76 120 -51 12 7 12 12 -4 29 -10 11 -32 23 -50 26 -17 4 -39 9 -48 11 -13 4 -18 0 -18 -15z"/>
 <path d="M3156 3967 c-28 -21 -14 -47 26 -47 18 0 47 -9 63 -20 23 -15 47 -20 103 -20 83 0 88 7 43 60 -29 35 -29 35 -122 38 -70 3 -99 0 -113 -11z"/>
 <path d="M3695 3840 c-19 -36 -16 -43 25 -60 29 -12 80 -7 80 8 0 11 -70 82 -80 82 -5 0 -17 -14 -25 -30z"/>
 <path d="M1257 3838 c-23 -28 -97 -173 -97 -189 0 -7 -7 -17 -15 -23 -10 -7 -12 -16 -6 -25 8 -12 14 -13 35 -3 21 9 26 9 26 -2 0 -7 3 -27 6 -43 5 -25 2 -31 -15 -36 -15 -3 -21 -13 -21 -31 0 -39 -27 -32 -34 8 -4 19 -4 46 0 60 3 15 2 26 -4 26 -11 0 -62 -57 -62 -69 0 -5 -12 -20 -26 -34 -22 -22 -24 -31 -19 -64 14 -83 15 -103 5 -103 -6 0 -15 11 -20 25 -5 14 -12 25 -16 25 -3 0 -3 -8 1 -17 13 -33 12 -62 -1 -67 -8 -3 -14 -12 -14 -19 0 -8 -10 -18 -23 -24 -15 -7 -28 -28 -40 -65 -21 -68 -21 -68 3 -68 24 0 26 -26 5 -54 -16 -21 -21 -67 -7 -65 4 0 25 22 47 48 22 26 54 53 71 60 20 7 34 21 38 36 3 13 16 34 28 45 l23 21 -23 6 c-24 6 -27 25 -12 69 9 24 16 29 44 29 19 0 38 -3 42 -7 4 -4 10 -5 15 -3 8 6 -11 67 -25 77 -14 10 57 79 85 82 33 4 69 -46 75 -105 5 -39 27 -96 43 -109 3 -3 14 -22 24 -43 18 -39 39 -45 45 -13 2 10 -3 25 -11 34 -14 17 -40 114 -53 200 -3 23 -16 55 -28 70 -20 23 -22 35 -18 90 3 42 1 62 -7 62 -6 0 -11 -9 -11 -20 0 -41 -28 -20 -35 25 -7 52 1 99 22 132 18 27 13 87 -7 90 -8 2 -23 -7 -33 -19z m-7 -229 c0 -10 -4 -19 -10 -19 -5 0 -10 12 -10 26 0 14 4 23 10 19 6 -3 10 -15 10 -26z m-136 -140 c4 -22 -1 -42 -17 -70 -26 -46 -42 -50 -41 -9 2 43 2 44 21 29 15 -13 16 -11 11 21 -9 60 14 87 26 29z m-54 -294 c11 -13 8 -21 -15 -45 -37 -39 -51 -38 -58 3 -8 49 43 78 73 42z"/>
 <path d="M3415 3840 c-76 -7 -52 -22 30 -18 36 2 60 8 63 16 2 7 -4 11 -15 10 -10 -1 -45 -4 -78 -8z"/>
 <path d="M3736 3688 c9 -64 11 -68 40 -68 26 0 27 1 20 47 -6 48 -18 63 -49 63 -15 0 -16 -6 -11 -42z"/>
 <path d="M2610 3674 c-34 -12 -74 -34 -89 -48 -32 -31 -66 -86 -52 -86 5 0 11 6 14 13 2 6 8 9 12 4 5 -4 1 -24 -9 -43 -17 -37 -16 -51 3 -39 6 3 29 33 52 66 48 71 95 96 197 105 60 5 87 2 185 -22 40 -9 33 8 -15 35 -70 40 -209 47 -298 15z"/>
 <path d="M3085 3479 c-22 -5 -50 -11 -62 -14 -14 -3 -23 -13 -23 -24 0 -14 -10 -21 -35 -25 -36 -7 -55 -30 -55 -64 0 -32 -55 -71 -110 -78 -44 -6 -50 -10 -55 -35 -4 -16 -11 -29 -16 -29 -6 0 -17 -16 -25 -36 -31 -73 26 -310 91 -384 51 -58 75 -80 87 -80 7 0 18 -10 23 -22 6 -13 21 -24 35 -26 14 -2 32 -9 40 -16 33 -26 77 -37 181 -43 106 -6 110 -5 135 18 23 21 26 22 35 8 21 -39 159 46 159 97 0 23 24 54 41 54 5 0 9 6 9 13 0 7 10 24 23 37 19 21 22 37 25 120 3 81 1 102 -16 131 -13 24 -26 33 -40 32 -25 -3 -64 47 -68 86 -2 14 -12 32 -24 40 -15 10 -20 24 -20 59 0 28 -6 52 -17 64 -21 24 -9 36 15 15 21 -19 42 -22 42 -7 0 33 -123 100 -183 100 -13 0 -28 5 -35 12 -21 21 -25 0 -6 -31 24 -41 8 -54 -21 -17 -15 19 -29 27 -39 23 -10 -4 -16 -1 -16 7 0 11 -25 30 -33 25 -1 -1 -20 -5 -42 -10z m-15 -104 c0 -10 -10 -15 -30 -15 -47 0 -35 27 13 29 9 1 17 -6 17 -14z m160 -388 c0 -7 -7 -22 -15 -33 -12 -16 -14 -17 -15 -2 0 23 11 48 21 48 5 0 9 -6 9 -13z m328 -26 c3 -8 -1 -12 -9 -9 -7 2 -15 10 -17 17 -3 8 1 12 9 9 7 -2 15 -10 17 -17z"/>
 <path d="M2840 3374 c0 -10 -5 -14 -16 -10 -9 3 -12 2 -9 -5 4 -5 -1 -21 -9 -34 -15 -23 -15 -25 1 -25 23 0 73 49 73 72 0 11 -7 18 -20 18 -12 0 -20 -7 -20 -16z"/>
 <path d="M1224 3355 c21 -16 32 -13 21 4 -3 6 -14 11 -23 11 -15 -1 -15 -2 2 -15z"/>
 <path d="M3458 3339 c-24 -14 -23 -27 11 -99 35 -73 57 -100 84 -100 15 0 18 4 12 23 -4 12 -6 36 -6 52 1 21 -9 41 -34 68 -19 21 -35 45 -35 53 0 16 -8 17 -32 3z"/>
 <path d="M1450 3122 c0 -19 36 -59 45 -50 3 2 -1 19 -7 36 -13 35 -38 43 -38 14z"/>
 <path d="M860 3075 c0 -10 7 -15 18 -13 21 4 19 22 -2 26 -10 2 -16 -3 -16 -13z"/>
 <path d="M837 2973 c-4 -3 -7 -29 -7 -56 0 -43 -2 -48 -15 -37 -21 17 -32 -15 -14 -38 26 -31 49 -79 57 -118 l8 -39 32 35 c30 32 33 33 48 18 10 -10 17 -33 17 -57 0 -23 3 -41 7 -41 16 0 60 65 54 80 -3 8 -9 23 -11 33 -3 9 -9 17 -13 17 -21 0 -40 35 -41 73 -1 25 -3 32 -6 17 -9 -56 -14 -70 -28 -70 -15 0 -20 40 -15 112 1 22 -2 26 -19 21 -16 -4 -21 -1 -21 15 0 21 -23 46 -33 35z"/>
 <path d="M2455 2880 c5 -14 2 -20 -9 -20 -9 0 -16 4 -16 9 0 13 -32 23 -42 13 -6 -6 -3 -25 6 -47 9 -21 16 -49 16 -64 0 -51 60 -101 121 -101 20 0 20 1 -4 30 -27 31 -43 68 -33 77 3 3 25 8 51 10 49 6 59 19 22 28 -13 4 -39 24 -58 46 -37 42 -65 52 -54 19z"/>
 <path d="M1040 2752 c0 -5 9 -17 20 -27 22 -20 26 -14 10 16 -11 19 -30 26 -30 11z"/>
 <path d="M1040 2670 c0 -21 16 -44 23 -33 4 6 0 19 -8 29 -11 15 -14 16 -15 4z"/>
 <path d="M2062 3149 c6 -18 47 -24 61 -10 8 8 7 11 -3 11 -8 0 -26 3 -39 7 -18 4 -23 2 -19 -8z"/>
 <path d="M5938 2650 c-8 -25 5 -122 17 -126 24 -9 65 26 65 55 -1 45 -70 105 -82 71z"/>
 <path d="M5883 2491 c0 -36 6 -38 37 -11 26 23 25 26 -11 35 -23 6 -26 4 -26 -24z"/>
 <path d="M961 1033 c-6 -21 -11 -42 -11 -46 0 -17 21 6 35 36 13 31 14 31 20 10 8 -24 20 -29 30 -13 14 22 -6 50 -35 50 -25 0 -31 -5 -39 -37z"/>
 <path d="M1050 980 c0 -15 5 -20 18 -18 9 2 17 10 17 18 0 8 -8 16 -17 18 -13 2 -18 -3 -18 -18z"/>
 </g>

</svg>