<svg xmlns="http://www.w3.org/2000/svg" xml:space="preserve" width="170" height="121"><path fill="#27387D" d="M123.583 3.836v-.088h-3.47c-.13 0-.247-.011-.375-.011v.011H50.137c-23.839 0-35.744 9.614-35.744 28.837v52.941c0 19.101 11.908 28.658 35.744 28.658h69.692v-.034c23.751-.029 35.638-9.57 35.638-28.626V32.583c-.002-18.176-10.634-27.75-31.884-28.747zm-7.628 83.479H58.152V30.012h57.803v57.303z"/><path fill="#EC2727" stroke="#FFF" stroke-width="1.433" d="M81.054 72.543s43.898 25.216 53.042 45.215h34.16c-2.832-6.715-19.113-36.586-87.202-45.215z"/></svg>