<?xml version="1.0" encoding="UTF-8"?>
<svg width="11.5in" height="11.5in" version="1.1" viewBox="0 0 11.5 11.5" xmlns="http://www.w3.org/2000/svg">
 <path d="m3.55 1.25c-0.647 0-1.23 0.16-1.74 0.481-0.514 0.314-0.918 0.744-1.21 1.29-0.287 0.547-0.43 1.16-0.43 1.83 0 0.594 0.117 1.14 0.35 1.65 0.234 0.507 0.561 0.928 0.981 1.26 0.42 0.334 0.901 0.547 1.44 0.641l-1.12 0.41c-0.18 0.0667-0.27 0.204-0.27 0.41 0 0.12 0.0434 0.227 0.13 0.32 0.0934 0.1 0.204 0.15 0.33 0.15 0.14 0 0.29-0.04 0.451-0.12 0.0667-0.0334 0.133-0.0634 0.2-0.0901 0.0734-0.02 0.15-0.03 0.23-0.03 0.18 0 0.337 0.0234 0.471 0.0701 0.133 0.0534 0.304 0.137 0.511 0.25 0.274 0.154 0.537 0.27 0.791 0.35 0.254 0.0801 0.584 0.12 0.991 0.12 0.254 0 0.534-0.05 0.841-0.15 0.307-0.1 0.567-0.23 0.781-0.39 0.214-0.16 0.32-0.327 0.32-0.501 0-0.12-0.0467-0.227-0.14-0.32-0.0868-0.0868-0.187-0.13-0.3-0.13-0.0601-2e-7 -0.12 0.0133-0.18 0.04-0.0534 0.0334-0.117 0.0767-0.19 0.13-0.0667 0.0601-0.127 0.11-0.18 0.15-0.127 0.0934-0.26 0.167-0.4 0.22-0.14 0.0534-0.307 0.0801-0.501 0.0801-0.22 0-0.42-0.0334-0.601-0.1-0.18-0.0601-0.39-0.15-0.631-0.27-0.194-0.1-0.36-0.18-0.501-0.24-0.133-0.0534-0.284-0.0901-0.451-0.11l0.761-0.28c0.521-0.107 0.981-0.327 1.38-0.661 0.4-0.334 0.711-0.747 0.931-1.24 0.227-0.494 0.34-1.03 0.34-1.62 0-0.674-0.147-1.28-0.44-1.83-0.287-0.547-0.687-0.978-1.2-1.29-0.514-0.32-1.09-0.481-1.74-0.481zm0 0.951c0.454 0 0.858 0.117 1.21 0.35 0.36 0.227 0.641 0.544 0.841 0.951 0.2 0.4 0.3 0.851 0.3 1.35 0 0.501-0.1 0.954-0.3 1.36-0.2 0.4-0.481 0.717-0.841 0.951-0.354 0.227-0.758 0.34-1.21 0.34-0.454 0-0.861-0.113-1.22-0.34-0.354-0.234-0.631-0.551-0.831-0.951-0.2-0.407-0.3-0.861-0.3-1.36 0-0.507 0.1-0.961 0.3-1.36 0.2-0.407 0.477-0.724 0.831-0.951 0.36-0.227 0.768-0.34 1.22-0.34zm7.15 0.791c-0.374 0.00667-0.707 0.113-1 0.32-0.294 0.2-0.514 0.464-0.661 0.791v-0.511c0-0.133-0.0467-0.247-0.14-0.34-0.0868-0.0934-0.2-0.14-0.34-0.14-0.133 1e-7 -0.247 0.0467-0.34 0.14-0.0868 0.0934-0.13 0.207-0.13 0.34v4.28c0 0.14 0.0434 0.257 0.13 0.35 0.0868 0.0868 0.2 0.13 0.34 0.13 0.14 0 0.254-0.0467 0.34-0.14 0.0934-0.0934 0.14-0.207 0.14-0.34v-2.41c0-0.307 0.0601-0.584 0.18-0.831 0.127-0.254 0.287-0.45 0.481-0.591 0.2-0.147 0.404-0.22 0.611-0.22 0.0801 0 0.19 0.0234 0.33 0.0701 0.12 0.04 0.21 0.0601 0.27 0.0601 0.12 0 0.22-0.04 0.3-0.12 0.0868-0.0868 0.13-0.21 0.13-0.37 0-0.133-0.0634-0.244-0.19-0.33-0.127-0.0934-0.277-0.14-0.451-0.14z" fill="#34a19b"/>
</svg>
