<svg xmlns="http://www.w3.org/2000/svg" xmlns:xlink="http://www.w3.org/1999/xlink" width="1024" height="1024" version="1.1" viewBox="0 0 1024 1024"><defs><rect id="artboard_1" width="1024" height="1024"/><clipPath id="clip_1"><use clip-rule="evenodd" xlink:href="#artboard_1"/></clipPath></defs><g id="Simple-Logo-Light" clip-path="url(#clip_1)"><use fill="#FFF" fill-opacity="0" stroke="none" xlink:href="#artboard_1"/><g id="Group-Copy" transform="translate(70 21.00012)"><path id="Shape" fill="#24292E" stroke="none" d="M105.302 154.943L112.824 869.492C52.651 877.014 7.52158 846.927 7.52158 786.755L0 192.55C0 4.51106 172.996 -40.6184 278.298 34.5974L812.33 342.982C887.546 395.633 902.589 493.413 864.981 561.107C857.46 508.456 834.895 478.37 789.765 448.284L188.039 109.813C142.91 79.7268 105.302 87.2484 105.302 154.943Z"/><path id="Shape" fill="#24292E" stroke="none" d="M0 376.079C45.1295 391.122 90.259 383.6 127.867 361.036L744.636 0C782.244 52.651 774.723 105.302 729.593 135.388L210.604 436.251C135.388 473.859 37.6079 436.251 0 376.079Z" transform="translate(60.17249 531.0214)"/><path id="Shape" fill="#FFC230" stroke="none" d="M0 413.687L368.557 203.083L7.52157 0L0 413.687Z" transform="translate(240.6902 282.8092)"/></g></g></svg>