<svg width="196" height="196" xmlns="http://www.w3.org/2000/svg">

 <g>
  <title>background</title>
  <rect fill="none" id="canvas_background" height="198" width="198" y="-1" x="-1"/>
 </g>
 <g>
  <title>Layer 1</title>
  <g id="svg_12">
   <path id="svg_1" d="m0,25l39.150002,0c-5.970001,5.42 -12.600002,10.209999 -20.960001,10.889999c23.190001,22.790001 46.119997,45.850006 68.939997,69c3.290001,3.489998 7.389999,7.040001 12.690002,6.040001c6,-2.599998 10.419998,-7.620003 15.040001,-12.059998c20.919998,-21.410004 42.309998,-42.360004 63.339996,-63.650002c-6.839996,-0.16 -13.679993,-0.320004 -20.529999,-0.500004c3.25,-3.279997 6.479996,-6.579998 9.869995,-9.719997l28.460007,0l0,40.139999c-5.899994,-6.130001 -10.479996,-13.260002 -10.729996,-22.059998c-17.949997,18.23 -36.090012,36.279999 -54.26001,54.299995c18.139999,18.389999 36.450012,36.620003 54.779999,54.829994c0.12001,-5.819992 0.26001,-11.639984 0.400009,-17.449982c3.319992,3.22998 6.779999,6.349991 9.809998,9.86998l0,24.37001l-38.190002,0c5.779999,-4.940002 12.01001,-9.410004 19.440002,-11.529999c-18.089996,-17.539993 -35.770004,-35.510002 -53.529999,-53.380005c-8.360001,7.350006 -15.93,19.390007 -28.639999,17.870003c-9.380005,-3.129997 -15.639999,-11.239998 -23.099998,-17.299995c-18.180004,17.929993 -36.200005,36.009995 -54.200003,54.12999c6.16,0.130005 12.32,0.230011 18.469999,0.380005c-3.23,3.330002 -6.35,6.790009 -9.879999,9.830002l-26.370001,0l0,-39.149994c5.42,5.970001 10.21,12.589996 10.89,20.959991c17.62,-18.139999 35.81,-35.709999 53.480002,-53.799995c-17.940002,-18.190002 -36.040003,-36.220001 -54.160003,-54.220001c-0.13,5.809998 -0.26,11.629997 -0.4,17.450001c-3.320001,-3.230003 -6.78,-6.350002 -9.81,-9.869999l0,-25.370003z" fill="#000000"/>
   <path id="svg_3" d="m66.440002,25l24.519997,0c-2.169998,1.830002 -4.239998,3.769999 -6.400002,5.610001c-6.829994,7.959999 -18.409996,3.09 -27.349998,4.239998c2.880001,-3.459999 6,-6.719997 9.230003,-9.849998z" fill="#000000"/>
   <path id="svg_4" d="m117.529999,25l25.040009,0c-3.430008,3.16 -6.690002,6.49 -9.970001,9.789997c-8.320007,0.110001 -16.640007,0.140003 -24.960007,0.070004c3.25,-3.330002 6.489998,-6.68 9.889999,-9.860001z" fill="#000000"/>
   <path id="svg_7" d="m0,78.029999c3.21,4.010002 7.26,7.5 9.61,12.110001c0.990001,7.370003 0.35,14.879997 0.48,22.300003c-3.42,-3.260002 -6.84,-6.510002 -10.09,-9.950005l0,-24.459999z" fill="#000000"/>
   <path id="svg_8" d="m185.910004,82.559998c3.419998,3.260002 6.839996,6.510002 10.089996,9.950005l0,24.459999c-3.210007,-4.010002 -7.259995,-7.5 -9.610001,-12.110001c-0.990005,-7.370003 -0.350006,-14.889999 -0.479996,-22.300003z" fill="#000000"/>
   <path id="svg_10" d="m54.029999,169c4.010002,-3.190002 7.460003,-7.259995 12.07,-9.589996c7.380005,-1.01001 14.910004,-0.37001 22.340004,-0.5c-3.260002,3.419998 -6.510002,6.839996 -9.950005,10.089996l-24.459999,0z" fill="#000000"/>
   <path id="svg_11" d="m106.029999,169c4.010002,-3.190002 7.459999,-7.259995 12.07,-9.600006c7.419998,-1.009995 14.989998,-0.299988 22.470009,-0.37999c-3.560013,3.409988 -7.090012,6.849991 -10.900009,9.979996l-23.639999,0z" fill="#000000"/>
  </g>
 </g>
</svg>