<svg xmlns="http://www.w3.org/2000/svg" xml:space="preserve" style="enable-background:new 0 0 242.2 107.4" viewBox="0 0 242.2 107.4"><path d="m229 23.6-2.5-14.9c-.8-4.8-2.7-8.7-4.1-8.7-1.5 0-2.7 4-2.7 8.8v3.9c0 4.8-4 8.8-8.8 8.8h-4.7v10.7h15.5c4.8 0 8.1-3.9 7.3-8.6M193.9 11h-48.7c-.3 0-.6 0-.8.1V8.8c0-4.8-1.2-8.8-2.7-8.8s-3.3 3.9-4.1 8.7l-2.5 14.9c-.8 4.8 2.5 8.7 7.4 8.7h14.6c1.5 0 2.9-.2 4.2-.6-.5 2.5-2.6 4.4-5.3 4.4h-20.5c-3.3 0-5.8-3-5.3-6.3l2.1-12.5c.5-3.3-2-6.3-5.3-6.3H24.8c-2.2 0-4 1.3-4.9 3.2L.7 43.5c-.3.5-.3 1.1.1 1.6l3.7 4.4c.5.6 1.3.6 1.9.2l13.1-10.3V102c0 3 2.4 5.4 5.4 5.4h29c3 0 5.4-2.4 5.4-5.4V80.2c0-3 2.4-5.4 5.4-5.4h72.4c3 0 5.4 2.4 5.4 5.4V102c0 3 2.4 5.4 5.4 5.4h29c3 0 5.4-2.4 5.4-5.4V78.6h-15.4c-4.8 0-8.8-4-8.8-8.8V54.7c0-2.9 1.4-5.4 3.5-7v18c0 4.8 4 8.8 8.8 8.8h23.7c4.8 0 8.8-4 8.8-8.8V19.9c-.2-5-4.1-8.9-9-8.9m36.7-5.4c0-3.9 2.9-5.6 5.6-5.6s5.6 1.7 5.6 5.6c0 3.8-2.9 5.5-5.6 5.5s-5.6-1.7-5.6-5.5zm9.9 0c0-3.1-2-4.4-4.2-4.4S232 2.5 232 5.6c0 3 2.1 4.4 4.3 4.4 2.2-.1 4.2-1.4 4.2-4.4zm-6.1-2.8h2c1 0 2 .3 2 1.7 0 .8-.6 1.3-1.3 1.5l1.3 2.3h-1.2L236 6.1h-.5v2.2h-1.1V2.8zm2 2.5c.5 0 .9-.3.9-.8 0-.6-.5-.7-.9-.7h-1v1.5h1z" style="fill:#2453ff"/></svg>