<svg xmlns="http://www.w3.org/2000/svg" xmlns:xlink="http://www.w3.org/1999/xlink" version="1.1" id="Layer_1" x="0px" y="0px" style="enable-background:new 0 0 512 512;" xml:space="preserve" viewBox="55.52 0 400.93 512.02">
<style type="text/css">
	.st0{fill:#75A928;}
	.st1{fill:#BC1142;}
</style>
<g transform="matrix(.0944166 0 0 .0944166 177.621 71.7093)">
	<path d="M-143.6-759.4c-27.4,0.8-57,11-90.4,37.4c-82.1-31.6-161.6-42.6-232.8,21.8c-109.9-14.3-145.6,15.2-172.6,49.5   c-24.1-0.5-180.5-24.8-252.2,82.2c-180.2-21.3-237.1,106-172.6,224.7c-36.8,57-74.9,113.2,11.1,221.9   c-30.4,60.5-11.6,126.1,60.1,205.5c-18.9,85,18.3,145,85,191.8c-12.5,116.4,106.7,184,142.3,208.1   c13.7,67.8,42.1,131.8,178.3,167.2c22.4,101,104.3,118.5,183.5,139.7c-261.9,152.2-486.4,352.5-484.9,843.9l-38.4,68.4   c-300.3,182.6-570.4,769.5-148,1246.5c27.6,149.3,73.9,256.6,115.1,375.3c61.6,478.3,463.8,702.3,569.9,728.8   c155.4,118.4,321,230.8,545,309.5c211.2,217.8,440,300.8,670.1,300.7c3.4,0,6.8,0,10.2,0c230.1,0.1,458.9-82.9,670-300.7   c224-78.7,389.6-191.1,545.1-309.5c106.1-26.5,508.3-250.5,569.9-728.8c41.2-118.7,87.5-226,115.1-375.3   c422.4-477,152.3-1064-148-1246.6l-38.4-68.4c1.5-491.4-223-691.6-484.9-843.9c79.2-21.2,161.1-38.7,183.5-139.7   c136.1-35.4,164.6-99.4,178.3-167.2c35.6-24.1,154.8-91.8,142.3-208.1c66.7-46.8,103.9-106.8,85-191.8   c71.7-79.4,90.6-145,60.1-205.5c86.1-108.6,47.9-164.8,11.1-221.8c64.5-118.7,7.6-246-172.7-224.7c-71.7-107-228-82.7-252.1-82.2   c-27.1-34.3-62.7-63.7-172.6-49.5c-71.1-64.4-150.7-53.4-232.8-21.8c-97.4-76.9-161.9-15.3-235.5,8   c-118-38.5-144.9,14.3-202.9,35.8c-128.6-27.2-167.7,32-229.4,94.5l-71.7-1.4C960.5-470.8,864.2-238,830-118.3   C795.8-238,699.6-470.8,505.6-585.2l-71.7,1.4c-61.8-62.5-100.8-121.7-229.5-94.5c-58-21.5-84.9-74.3-202.9-35.8   C-46.9-729.3-91.3-761.1-143.6-759.4L-143.6-759.4z"/>
	<g transform="matrix(7.72887 0 0 7.72887 25.194 6.21913)">
		<path class="st0" d="M-71.7-33.9C-5.2,0.4,33.5,28.2,54.7,51.8C43.9,95.4-12.8,97.3-33.5,96.1c4.2-2,7.8-4.3,9-8    c-5.2-3.7-23.6-0.4-36.5-7.6c4.9-1,7.3-2,9.6-5.7c-12.2-3.9-25.3-7.2-33-13.6c4.2,0.1,8,0.9,13.5-2.8    c-10.9-5.9-22.5-10.5-31.5-19.5c5.6-0.1,11.7-0.1,13.5-2.1c-10-6.2-18.4-13-25.3-20.6c7.9,1,11.2,0.1,13.1-1.2    c-7.5-7.7-17.1-14.2-21.6-23.7c5.9,2,11.2,2.8,15.1-0.2c-2.6-5.8-13.5-9.2-19.8-22.7c6.2,0.6,12.7,1.3,14,0    c-2.9-11.6-7.8-18.2-12.6-25c13.2-0.2,33.2,0.1,32.3-1.1l-8.2-8.3c12.9-3.5,26.1,0.6,35.6,3.5c4.3-3.4-0.1-7.7-5.3-12.1    c10.9,1.5,20.8,4,29.8,7.4c4.8-4.3-3.1-8.6-6.9-12.9c16.9,3.2,24.1,7.7,31.2,12.2c5.2-5,0.3-9.2-3.2-13.5    C-8.2-76.6-1.6-70.5,5.3-64.4c2.3-3.2,6-5.5,1.6-13.1c9.1,5.2,15.9,11.4,20.9,18.3c5.6-3.6,3.3-8.4,3.4-12.9    c9.4,7.7,15.4,15.8,22.7,23.7c1.5-1.1,2.8-4.7,3.9-10.5c22.4,21.8,54.2,76.6,8.2,98.4C26.8,7.1-20-16.3-71.7-33.9L-71.7-33.9    L-71.7-33.9L-71.7-33.9z M281.6-34C229.8-16.4,183,7.1,143.9,39.4c-46-21.7-14.3-76.6,8.2-98.4c1.1,5.7,2.4,9.4,3.9,10.5    c7.3-8,13.3-16.1,22.7-23.7c0,4.5-2.2,9.4,3.4,12.9c5-6.9,11.9-13,20.9-18.3c-4.4,7.6-0.7,10,1.6,13.1c6.9-6,13.5-12.1,26.2-16.8    c-3.5,4.3-8.4,8.5-3.2,13.5c7.1-4.5,14.3-9,31.2-12.2c-3.8,4.3-11.7,8.6-6.9,12.9c8.9-3.5,18.8-6,29.8-7.4    c-5.2,4.4-9.6,8.7-5.3,12.1c9.6-3,22.7-7,35.6-3.5l-8.2,8.3c-0.9,1.1,19.1,0.9,32.3,1.1c-4.8,6.8-9.7,13.3-12.6,25    c1.3,1.3,7.8,0.6,14,0c-6.3,13.5-17.3,16.9-19.8,22.7c3.9,3,9.2,2.2,15.1,0.2c-4.5,9.5-14.1,16-21.6,23.7    c1.9,1.4,5.2,2.2,13.1,1.2c-7,7.5-15.4,14.4-25.3,20.6c1.8,2.1,7.8,2,13.5,2.1c-9,9-20.7,13.6-31.5,19.5c5.4,3.8,9.3,2.9,13.5,2.8    c-7.7,6.4-20.8,9.8-33,13.6c2.3,3.6,4.6,4.6,9.6,5.7c-12.9,7.2-31.3,3.9-36.5,7.6c1.3,3.6,4.8,6,9,8c-20.7,1.2-77.4-0.8-88.3-44.3    C176.3,28.1,215,0.4,281.6-34L281.6-34L281.6-34L281.6-34z"/>
		<path class="st1" d="M106.1,506.2c32.1-1.4,75.1,10.3,75.1,25.9c0.5,15.1-39,49.2-77.3,48.6c-39.6,1.7-78.5-32.5-78-44.3    C25.4,519,74.3,505.4,106.1,506.2z M219.9,405.4c-24.7,28.9-38.4,81.7-20.4,98.7c17.2,13.2,63.5,11.4,97.6-36    c24.8-31.8,16.5-85,2.3-99.1C278.4,352.6,248.2,373.4,219.9,405.4L219.9,405.4z M-12.3,414.1c22.8,27.5,33.2,75.8,14.2,90    c-18,10.9-61.8,6.4-92.9-38.3c-21-37.5-18.3-75.6-3.5-86.8C-72.5,365.6-38.5,383.7-12.3,414.1L-12.3,414.1z M185.6,409.4v0.4    c0,40.4-36,73.6-79.8,73.6C62,483.4,26,450.2,26,409.8c0-0.1,0-0.3,0-0.4c0-0.1,0-0.3,0-0.4c0-40.4,36-73.6,79.8-73.6    c43.8,0,79.8,33.2,79.8,73.6V409.4z M-105.6,234.7c35.7-9.6,12,147.7-17,134.8C-154.6,343.7-164.8,268.5-105.6,234.7z     M306.9,232.7c-35.7-9.6-12,147.7,17,134.8C355.8,341.8,366.1,266.5,306.9,232.7z M59.6,199.3c32.8,21.5,38.8,71,13.3,109.7    c-25.5,38.6-73.6,52.7-106.4,31.2c-32.8-21.5-38.8-71-13.3-109.7C-21.3,191.8,26.8,177.7,59.6,199.3z M148.8,195.3    c-32.8,21.5-38.8,71-13.3,109.7c25.5,38.6,73.6,52.7,106.4,31.2c32.8-21.5,38.8-71,13.3-109.7    C229.7,187.9,181.7,173.8,148.8,195.3z M185.6,115.6c61.6-10.4,112.9,26.2,110.8,93C294.3,234.2,162.9,119.4,185.6,115.6z     M15.4,113.7c-61.6-10.4-112.9,26.2-110.8,93C-93.4,232.3,38.1,117.5,15.4,113.7z M103.9,98.1c-36.8-1-72,27.3-72.1,43.7    c-0.1,19.9,29.1,40.3,72.4,40.8c44.2,0.3,72.5-16.3,72.6-36.9C176.9,122.4,136.5,97.7,103.9,98.1L103.9,98.1z"/>
	</g>
</g>
</svg>