<?xml version="1.0" encoding="UTF-8" standalone="no"?>
<svg
   xmlns:dc="http://purl.org/dc/elements/1.1/"
   xmlns:cc="http://creativecommons.org/ns#"
   xmlns:rdf="http://www.w3.org/1999/02/22-rdf-syntax-ns#"
   xmlns:svg="http://www.w3.org/2000/svg"
   xmlns="http://www.w3.org/2000/svg"
   xmlns:sodipodi="http://sodipodi.sourceforge.net/DTD/sodipodi-0.dtd"
   xmlns:inkscape="http://www.inkscape.org/namespaces/inkscape"
   width="64"
   height="64"
   viewBox="0 0 64 64"
   version="1.1"
   xml:space="preserve"
   style="clip-rule:evenodd;fill-rule:evenodd;stroke-linejoin:round;stroke-miterlimit:1.41420996"
   id="svg50"
   sodipodi:docname="rclone-icon.svg"
   inkscape:version="0.92.4 (5da689c313, 2019-01-14)"><metadata
   id="metadata56"><rdf:RDF><cc:Work
       rdf:about=""><dc:format>image/svg+xml</dc:format><dc:type
         rdf:resource="http://purl.org/dc/dcmitype/StillImage" /><dc:title></dc:title></cc:Work></rdf:RDF></metadata><defs
   id="defs54">
        
    
            
            <clipPath
   id="_clip1">
                <rect
   x="14"
   y="579"
   width="257"
   height="84"
   id="rect4" />
            </clipPath>
            
        
                
            
                    
                    
                    
                    
                    
                    
                    
                    
                    
                
                        
                    
                        
                    
                        
                    
                        
                    
                        
                    
                        
                    
                        
                    
                        
                    
                        
                    </defs><sodipodi:namedview
   pagecolor="#ffffff"
   bordercolor="#666666"
   borderopacity="1"
   objecttolerance="10"
   gridtolerance="10"
   guidetolerance="10"
   inkscape:pageopacity="0"
   inkscape:pageshadow="2"
   inkscape:window-width="1531"
   inkscape:window-height="807"
   id="namedview52"
   showgrid="false"
   units="px"
   inkscape:zoom="1.539823"
   inkscape:cx="-84.425288"
   inkscape:cy="26.5"
   inkscape:window-x="70"
   inkscape:window-y="27"
   inkscape:window-maximized="0"
   inkscape:current-layer="svg50" />
    <g
   id="g824"
   transform="matrix(1.3422256,0,0,1.3422256,-2.2309418e-8,3.8420351)"><path
     d="m 45.726917,21.83581 c -1.507672,-2.611426 -3.701518,-4.579735 -6.222732,-5.808561 -0.322585,1.72227 -0.932898,3.419936 -1.857594,5.021921 l -1.459147,2.532147 c 0.971853,0.539918 1.817954,1.334759 2.414598,2.368122 1.753027,3.035842 0.712146,6.919151 -2.324383,8.672176 -3.035847,1.753025 -6.919159,0.712829 -8.672186,-2.323698 l -2.944264,-5.091631 h -4.751283 l -2.375642,4.114312 2.946315,5.090948 c 4.025469,6.971776 12.939592,9.360401 19.911375,5.334937 6.971101,-4.024782 9.359727,-12.938896 5.334943,-19.910673"
     style="fill:#70caf2;fill-rule:nonzero;stroke-width:0.68344086"
     id="path7"
     inkscape:connector-curvature="0" /><path
     d="M 31.127807,0.45456543 C 24.156023,-3.5702158 15.2419,-1.1815912 11.217114,5.7895021 9.7087599,8.4009285 9.1018638,11.285048 9.2980112,14.083052 10.950572,13.501445 12.726153,13.180911 14.576228,13.180911 l 2.921711,-0.0027 c -0.01845,-1.111274 0.247406,-2.241684 0.843367,-3.2743635 1.75371,-3.036526 5.636339,-4.0774059 8.672868,-2.3236971 3.03653,1.7530242 4.076727,5.6356506 2.323701,8.6721766 l -2.936747,5.095732 2.374958,4.114995 4.751283,-6.83e-4 2.93538,-5.097099 C 40.488218,13.394145 38.099591,4.4793466 31.127807,0.45456543"
     style="fill:#b4e3f9;fill-rule:nonzero;stroke-width:0.68344086"
     id="path11"
     inkscape:connector-curvature="0" /><path
     d="m 19.297646,37.095505 -1.463932,-2.529413 c -0.9534,0.57204 -2.064675,0.906925 -3.25728,0.906925 -3.506736,0 -6.3491688,-2.842428 -6.3491688,-6.349162 0,-3.50605 2.8424328,-6.348479 6.3491688,-6.348479 l 5.881011,-0.0041 2.376326,-4.114312 -2.376326,-4.114312 -5.881695,0.0055 C 6.5254965,14.548074 1.6621211e-8,21.074248 1.6621211e-8,29.12381 1.6621211e-8,37.174056 6.5254965,43.70023 14.57575,43.70023 c 3.014659,0 5.814718,-0.915811 8.139101,-2.48294 -1.329976,-1.140662 -2.49251,-2.520528 -3.417205,-4.12183"
     style="fill:#3f79ad;fill-rule:nonzero;stroke-width:0.68344086"
     id="path15"
     inkscape:connector-curvature="0" /></g>
</svg>