<svg xmlns:serif="http://www.serif.com/" xmlns="http://www.w3.org/2000/svg" xmlns:xlink="http://www.w3.org/1999/xlink" version="1.1" id="Layer_1" x="0px" y="0px" style="enable-background:new 0 0 512 512;" xml:space="preserve" viewBox="0.01 13.26 512 485.36">
<style type="text/css">
	.st0{fill:#70CAF2;}
	.st1{fill:#B4E3F9;}
	.st2{fill:#3F79AD;}
</style>
<g transform="matrix(1.13717,0,0,1.61538,-414.712,-364.725)">
	<g transform="matrix(0.775519,0,0,0.775519,428.888,631.261)">
		<path class="st0" d="M474-312.2c-18.4-22.4-45.1-39.3-75.8-49.8c-3.9,14.8-11.4,29.3-22.6,43l-17.8,21.7    c11.8,4.6,22.1,11.4,29.4,20.3c21.3,26,8.7,59.3-28.3,74.3c-37,15-84.2,6.1-105.6-19.9l-35.8-43.6h-57.9l-28.9,35.3l35.9,43.6    c49,59.8,157.5,80.2,242.4,45.7C493.9-176,523-252.4,474-312.2"/>
	</g>
	<g transform="matrix(0.775519,0,0,0.775519,412.322,610.24)">
		<path class="st1" d="M317.6-468.4c-84.9-34.5-193.4-14-242.4,45.7c-18.4,22.4-25.8,47.1-23.4,71.1c20.1-5,41.7-7.7,64.3-7.7    l35.6,0c-0.2-9.5,3-19.2,10.3-28.1c21.4-26,68.6-34.9,105.6-19.9c37,15,49.6,48.3,28.3,74.3L260-289.3l28.9,35.3l57.9,0l35.7-43.7    C431.6-357.4,402.5-433.9,317.6-468.4"/>
	</g>
	<g transform="matrix(0.775519,0,0,0.775519,398.898,609.91)">
		<path class="st2" d="M190.9-153.9L173-175.6c-11.6,4.9-25.1,7.8-39.7,7.8c-42.7,0-77.3-24.4-77.3-54.4c0-30.1,34.6-54.4,77.3-54.4    l71.6,0l28.9-35.3L205-347.2l-71.6,0c-98,0-177.5,55.9-177.5,124.9c0,69,79.5,124.9,177.5,124.9c36.7,0,70.8-7.8,99.1-21.3    C216.3-128.3,202.1-140.1,190.9-153.9"/>
	</g>
</g>
</svg>