<?xml version="1.0" encoding="utf-8"?>
<!-- Generator: Adobe Illustrator 27.7.0, SVG Export Plug-In . SVG Version: 6.00 Build 0)  -->
<svg version="1.1" id="Layer_1" xmlns="http://www.w3.org/2000/svg" xmlns:xlink="http://www.w3.org/1999/xlink" x="0px" y="0px"
	 viewBox="0 0 512 512" style="enable-background:new 0 0 512 512;" xml:space="preserve">
<style type="text/css">
	.st0{fill-rule:evenodd;clip-rule:evenodd;fill:#FAFAFA;}
</style>
<g>
	<path d="M160,0h192c88.4,0,160,71.6,160,160v192c0,88.4-71.6,160-160,160H160C71.6,512,0,440.4,0,352V160C0,71.6,71.6,0,160,0z"/>
	<g>
		<path class="st0" d="M335.4,321.8l-69,91.9l71.9,0l32.9-43.8l32.9,43.8H476L338.3,230l-71.9,0L335.4,321.8z M379,263.6l25.1-33.6
			H476l-60.9,81.5L379,263.6z M36,98.2v237.4h67.1v-63.1h36.7c33,0,74.9-7.2,96.7-40c8.6-13.1,12.9-28.6,12.9-46.5
			c0-18.1-4.3-33.7-12.9-46.8c-8.6-13.3-20.8-23.5-36.6-30.5c-15.6-7-33.7-10.5-55.4-10.5L36,98.2z M202.8,272.7
			c0,0-27.4,11.5-63.6,11.1l38.8,51.8h71.9L202.8,272.7z M103.1,220.6h37.3c14,0,24.4-3.1,31.2-9.2c7-6.1,10.5-14.6,10.5-25.4
			c0-11.1-3.5-19.7-10.5-25.8c-6.8-6.1-17.2-9.2-31.2-9.2h-37.3V220.6z"/>
	</g>
</g>
</svg>
