<svg xmlns="http://www.w3.org/2000/svg" viewBox="0 0 1000 1000"><g stroke="#443c3c" stroke-width="1.5" transform="translate(-2.203 -2.203) scale(.97895)"><circle cx="513" cy="513" r="510" fill="#eee"/><circle cx="513" cy="513" r="440" fill="#443c3c"/><circle cx="513" cy="513" r="387" fill="#8e2222"/></g><g stroke-width="1.5" transform="translate(-2.203 -2.203) scale(.97895)"><circle cx="513" cy="513" r="378" fill="#eee" stroke="#8e2222"/><circle cx="511.67" cy="514.33" r="265" fill="#443c3c" stroke="#443c3c"/></g><g stroke="#8e2222"><path fill="#eee" stroke-width="9.79" d="m170.788 665.676-5.59-349.162c.62-51.988 17.131-46.822 29.813-48.365 194.4 10.602 265.207 69.752 269.554 71.952 13.042 4.912 20.496 31.113 19.874 30.468.621.644 4.348 411.746 3.727 411.1 3.105 21.982-13.042 20.56-13.664 19.915-122.359-96.086-291.296-120.264-291.913-120.91-11.801-.779-11.801-15.004-11.801-15.004zm655.974.803 5.591-350.014c-.621-52.115-17.132-46.937-29.815-48.483-194.42 10.628-265.227 69.922-269.583 72.128-13.044 4.924-20.498 31.188-19.876 30.542-.622.646-4.349 412.755-3.727 412.109-3.107 22.036 13.044 20.61 13.665 19.963 122.369-96.32 291.316-120.557 291.942-121.203 11.802-.78 11.802-15.04 11.802-15.04z"/><path fill="#8e2222" stroke-width="4.895" d="m168.272 721.8-5.68-349.163c.631-51.988 17.408-46.822 30.293-48.365 197.543 10.602 269.486 69.752 273.91 71.952 13.255 4.913 20.828 31.113 20.196 30.468.632.644 4.418 411.746 3.787 411.1 3.156 21.983-13.254 20.56-13.884 19.915-124.327-96.086-295.996-120.264-296.632-120.91-11.991-.778-11.991-15.003-11.991-15.003zm661.006.48 5.681-350.015c-.631-52.115-17.41-46.936-30.296-48.483-197.562 10.628-269.515 69.922-273.93 72.128-13.255 4.924-20.83 31.188-20.198 30.542-.631.646-4.418 412.755-3.787 412.109-3.157 22.036 13.255 20.61 13.885 19.964C644.98 762.204 816.658 737.967 817.284 737.32c11.992-.78 11.992-15.04 11.992-15.04z"/></g></svg>