<svg xmlns="http://www.w3.org/2000/svg" version="1.0" width="512.000000pt" height="512.000000pt" viewBox="0 0 512.000000 512.000000" preserveAspectRatio="xMidYMid meet">
<metadata fill="#22d152">
Created by potrace 1.11, written by Peter Selinger 2001-2013
</metadata>
<g transform="translate(0.000000,512.000000) scale(0.100000,-0.100000)" fill="#22d152" stroke="none">
<path d="M4195 4793 c-22 -1 -112 -8 -200 -14 -1001 -67 -1894 -323 -2485 -710 -214 -140 -440 -344 -571 -514 -119 -154 -225 -346 -293 -527 -147 -394 -165 -880 -51 -1403 29 -136 101 -386 145 -506 l30 -79 -29 -73 c-39 -98 -114 -326 -136 -412 -21 -83 -15 -131 22 -175 36 -43 74 -60 135 -60 67 0 117 31 140 87 9 21 37 106 63 188 26 83 72 213 102 290 72 184 259 563 368 745 336 560 755 1021 1243 1368 138 99 162 128 162 203 0 77 -52 142 -127 159 -59 14 -110 -7 -229 -91 -592 -423 -1064 -965 -1447 -1663 l-66 -119 -10 39 c-98 374 -129 666 -101 945 41 402 190 731 459 1011 285 297 650 511 1166 683 450 150 1033 257 1594 291 l114 7 -32 -54 c-168 -284 -277 -629 -331 -1054 -23 -179 -40 -456 -40 -642 0 -481 -134 -850 -403 -1110 -229 -222 -509 -345 -942 -415 -112 -19 -178 -22 -485 -23 -397 -2 -398 -2 -441 -72 -30 -48 -32 -125 -3 -173 11 -19 40 -46 65 -60 l44 -25 335 0 c364 0 448 7 695 56 444 88 804 280 1051 561 270 306 414 743 414 1257 0 273 28 592 71 817 84 440 262 805 467 954 42 30 75 63 85 85 36 75 10 173 -56 214 -32 20 -47 21 -243 19 -115 -1 -227 -3 -249 -5z" fill="#22d152"/>
</g>
</svg>