<svg xmlns="http://www.w3.org/2000/svg" width="682.667" height="682.667" version="1.0" viewBox="0 0 512 512"><path fill="#22d152" d="M419.5 32.7c-2.2.1-11.2.8-20 1.4-100.1 6.7-189.4 32.3-248.5 71-21.4 14-44 34.4-57.1 51.4-11.9 15.4-22.5 34.6-29.3 52.7-14.7 39.4-16.5 88-5.1 140.3 2.9 13.6 10.1 38.6 14.5 50.6l3 7.9-2.9 7.3c-3.9 9.8-11.4 32.6-13.6 41.2-2.1 8.3-1.5 13.1 2.2 17.5 3.6 4.3 7.4 6 13.5 6 6.7 0 11.7-3.1 14-8.7.9-2.1 3.7-10.6 6.3-18.8 2.6-8.3 7.2-21.3 10.2-29 7.2-18.4 25.9-56.3 36.8-74.5 33.6-56 75.5-102.1 124.3-136.8 13.8-9.9 16.2-12.8 16.2-20.3 0-7.7-5.2-14.2-12.7-15.9-5.9-1.4-11 .7-22.9 9.1-59.2 42.3-106.4 96.5-144.7 166.3l-6.6 11.9-1-3.9C86.3 322 83.2 292.8 86 264.9c4.1-40.2 19-73.1 45.9-101.1 28.5-29.7 65-51.1 116.6-68.3 45-15 103.3-25.7 159.4-29.1l11.4-.7-3.2 5.4C399.3 99.5 388.4 134 383 176.5c-2.3 17.9-4 45.6-4 64.2 0 48.1-13.4 85-40.3 111-22.9 22.2-50.9 34.5-94.2 41.5-11.2 1.9-17.8 2.2-48.5 2.3-39.7.2-39.8.2-44.1 7.2-3 4.8-3.2 12.5-.3 17.3 1.1 1.9 4 4.6 6.5 6l4.4 2.5H196c36.4 0 44.8-.7 69.5-5.6 44.4-8.8 80.4-28 105.1-56.1 27-30.6 41.4-74.3 41.4-125.7 0-27.3 2.8-59.2 7.1-81.7 8.4-44 26.2-80.5 46.7-95.4 4.2-3 7.5-6.3 8.5-8.5 3.6-7.5 1-17.3-5.6-21.4-3.2-2-4.7-2.1-24.3-1.9-11.5.1-22.7.3-24.9.5z"/></svg>