<?xml version="1.0" encoding="UTF-8" standalone="no"?><!-- Generator: Gravit.io --><svg xmlns="http://www.w3.org/2000/svg" xmlns:xlink="http://www.w3.org/1999/xlink" style="isolation:isolate" viewBox="-14.89 -13.85 597.902 556.138" width="597.902pt" height="556.138pt"><defs><clipPath id="_clipPath_kxzbGs1Hee9e3zvHrniW5FQL5aez2ahl"><rect x="-14.89" y="-13.85" width="597.902" height="556.138"/></clipPath></defs><g clip-path="url(#_clipPath_kxzbGs1Hee9e3zvHrniW5FQL5aez2ahl)"><g style="isolation:isolate"><linearGradient id="_lgradient_0" x1="0" y1="0.5" x2="0.5486270515186763" y2="1.0898276164793064" gradientTransform="matrix(597.902,0,0,556.138,-14.89,-13.85)" gradientUnits="userSpaceOnUse"><stop offset="0%" stop-opacity="1" style="stop-color:rgb(160,119,225)"/><stop offset="100%" stop-opacity="1" style="stop-color:rgb(83,34,151)"/></linearGradient><path d=" M 159.572 311.781 C 159.462 311.631 159.355 311.48 159.248 311.329 L 95.881 356.145 C 74.525 325.911 61.975 289.024 61.975 249.228 L 61.975 249.228 C 61.975 146.78 145.15 63.605 247.598 63.605 C 264.849 63.605 281.554 65.964 297.407 70.376 L 297.387 70.446 L 297.387 70.446 C 335.967 81.782 358.679 121.966 348.215 161.017 C 345.765 170.162 341.708 178.451 336.428 185.661 C 336.619 185.921 336.807 186.185 336.994 186.449 L 399.34 142.347 L 399.34 142.347 C 420.68 172.574 433.221 209.448 433.221 249.228 C 433.221 351.676 350.046 434.851 247.598 434.851 C 230.636 434.851 214.202 432.571 198.587 428.301 L 198.587 428.301 L 198.591 428.286 C 159.537 417.266 136.446 376.804 146.981 337.489 C 149.553 327.888 153.896 319.231 159.572 311.781 Z  M 465.833 394.46 L 546.881 475.508 L 583.012 511.639 L 468.629 542.288 L 393.297 466.956 C 351.602 494.852 301.485 511.126 247.598 511.126 C 102.727 511.126 -14.89 393.509 -14.89 248.638 C -14.89 103.767 102.727 -13.85 247.598 -13.85 C 392.469 -13.85 510.086 103.767 510.086 248.638 C 510.086 302.578 493.78 352.74 465.833 394.46 L 465.833 394.46 L 465.833 394.46 L 465.833 394.46 L 465.833 394.46 Z " fill-rule="evenodd" fill="url(#_lgradient_0)"/><linearGradient id="_lgradient_1" x1="1.8470219133279322" y1="2.0995678214453686" x2="-1.00589590327627" y2="-0.371131363950834" gradientTransform="matrix(156.129,0,0,180.282,193.61,159.087)" gradientUnits="userSpaceOnUse"><stop offset="0%" stop-opacity="1" style="stop-color:rgb(83,34,151)"/><stop offset="97.3913043478261%" stop-opacity="1" style="stop-color:rgb(160,119,225)"/></linearGradient><path d=" M 336.417 256.92 L 271.675 294.299 L 206.933 331.678 C 199.58 335.923 193.61 332.476 193.61 323.986 L 193.61 249.228 L 193.61 174.47 C 193.61 165.98 199.58 162.533 206.933 166.779 L 271.675 204.158 L 336.417 241.537 C 343.77 245.782 343.77 252.675 336.417 256.92 Z " fill="url(#_lgradient_1)"/></g></g></svg>