<?xml version="1.0" encoding="utf-8"?>
<!-- Generator: Adobe Illustrator 27.7.0, SVG Export Plug-In . SVG Version: 6.00 Build 0)  -->
<svg version="1.1" id="Layer_1" xmlns="http://www.w3.org/2000/svg" xmlns:xlink="http://www.w3.org/1999/xlink" x="0px" y="0px"
	 viewBox="0 0 512 512" style="enable-background:new 0 0 512 512;" xml:space="preserve">
<style type="text/css">
	.st0{fill-rule:evenodd;clip-rule:evenodd;fill:#FCEE21;}
</style>
<g>
	<path class="st0" d="M100.6,363.2c43.6-25.5,0,0.1,43.6-25.5c23.8,37,35.7,85.3,83.7,92.6c49.4,7.5,97.7-22.9,119-43.3
		c44.9-42.9,72-151.4,27-208.3c-40.6-51.4-141.1-78.1-205.6-48.7c-65.8,30-101.7,122.1-73.6,217c1.2,4.1,6.7,19,5.9,16.3l-67.5,37.2
		c-17.3-59.9-37.3-107-32.5-170.4C10.7,99.1,106.5-5.5,260.4,5.5c79.8,5.7,154.1,40.1,197.5,89.3c137,155.1-5.2,433.6-213.7,411.2
		c-66.3-7.1-113.1-62.7-137.3-126.3C104,372.1,100.8,363.7,100.6,363.2z"/>
</g>
</svg>
