<?xml version="1.0" encoding="utf-8"?>
<!-- Generator: Adobe Illustrator 27.7.0, SVG Export Plug-In . SVG Version: 6.00 Build 0)  -->
<svg version="1.1" id="Layer_1" xmlns="http://www.w3.org/2000/svg" xmlns:xlink="http://www.w3.org/1999/xlink" x="0px" y="0px"
	 viewBox="0 0 512 512" style="enable-background:new 0 0 512 512;" xml:space="preserve">
<style type="text/css">
	.st0{fill:#101823;}
	.st1{fill:#FF4654;stroke:#FF4654;stroke-width:0.1022;}
</style>
<path class="st0" d="M425.5,512h-339C38.7,512,0,473.3,0,425.5v-339C0,38.7,38.7,0,86.5,0h339C473.3,0,512,38.7,512,86.5v339
	C512,473.3,473.3,512,425.5,512z"/>
<path class="st1" d="M297.4,213.7c0,18.9-10.3,30.3-32.3,30.3h-36.4v-59.9h36.4C287.1,184.1,297.4,195.8,297.4,213.7z M134.8,135.2
	l35.2,49v192.5h58.7v-91.1h14.1l50.1,91.2h66.2l-55.6-95.6c15.5-3.8,29.3-12.8,39-25.5c9.7-12.7,14.9-28.3,14.5-44.4
	c0-42-29.5-76-88.5-76h-98.5H134.8z"/>
</svg>
