<svg xmlns="http://www.w3.org/2000/svg" version="1.0" viewBox="0 0 1029 1029"><path d="M482 2c-3 .5-10 1.5-15.5 2.4-5.5.8-11.8 1.8-14 2.1-2.2.4-5.1.8-6.5 1-16.9 2.7-22.1 3.5-25.5 4-2.2.4-7.6 1.3-12 2-4.4.8-9.6 1.7-11.5 2-3.8.6-42.2 7.4-45.5 8-1.1.2-3.1.6-4.5.9-1.3.3-4.2.8-6.4 1.2-2.2.3-4.3.7-4.7 1-.3.2-2.1.6-4 .8-1.9.3-4.5.7-5.9 1-1.4.3-4.1.9-6 1.2-6.7 1.2-63.6 13.5-71.5 15.6-4.4 1.1-8.7 2.1-9.5 2.3-.8.2-3.5.8-6 1.5-4.4 1.2-5.7 1.5-10.2 2.5-13.6 2.9-51.9 13.7-78.8 22.2-21.5 6.7-60.6 20.8-74.5 26.8-1.6.8-6.1 2.7-9.8 4.3-8.9 3.8-15.1 9-18.4 15.5-2.4 4.9-10.7 28.8-11.7 33.9-.2 1.3-1.4 5.7-2.5 9.9-1.2 4.2-2.8 10.9-3.6 15-.8 4.1-1.6 8.4-1.9 9.5-.2 1.2-.7 3.9-1 6-.3 2.2-.8 5-1.1 6.4-.7 3.9-1.7 11.6-3 22.5C14 245 14 300 16.4 320c.2 1.9.7 6.7 1 10.5.4 3.9.8 8.1 1.1 9.5.2 1.4.7 4.7 1 7.3.7 6.5 4 26.3 6 36.2.9 4.4 1.9 9.1 2.1 10.5 4.8 24.3 24 86.5 32.4 104.5.5 1.1 3.2 7.5 5.9 14.1 24.4 59.1 59.9 121.9 103.4 182.9 14 19.6 43.5 57.8 55.3 71.5 1.2 1.4 6.8 7.9 12.4 14.5 28.7 33.5 48.6 55 81.6 87.9 15.2 15.3 36.2 35.5 49 47.2 13.7 12.6 22.6 20.7 26.4 24 2.5 2.1 5.4 4.8 6.5 5.9 1.1 1.1 4.7 4.2 8 7 3.3 2.7 6.2 5.2 6.5 5.5.3.3 3.7 3.2 7.5 6.5 3.9 3.3 7.2 6.2 7.5 6.5.4.5 19.3 16.1 25.4 21 1 .8 2.3 2 3 2.5.6.6 6.3 5.3 12.6 10.4 6.3 5.1 13.5 10.9 15.9 13 13.1 10.7 11.8 10.1 21.2 10.1 6.8 0 8.9-.4 10.5-1.8 1-1 3.7-3.1 5.9-4.7 2.2-1.7 4.2-3.2 4.5-3.5.5-.5 8.2-6.7 12-9.7 8.3-6.5 50.3-41.4 60.5-50.4 11.7-10.2 21.2-18.6 22.5-19.9.9-.8 4.9-4.4 8.9-8 4-3.6 8.7-7.9 10.5-9.5 1.8-1.7 9.7-9.1 17.6-16.5 16.9-15.7 61.8-60.7 73.6-73.6 4.5-4.9 9.9-10.8 12.1-13.1 2.2-2.3 6.9-7.5 10.4-11.4 3.5-4 6.9-7.7 7.4-8.3 2.9-3 25.5-29.8 35.6-42.1 83.5-102.2 142.3-206.7 174.3-309.6 3.9-12.8 10-34.6 11.1-39.7.2-.9 1.5-6.9 2.9-13.2 1.4-6.3 2.8-12.7 3.1-14.3.3-1.5.7-3.7.9-5 1-5 3.5-20.5 4.1-25.2.4-2.8.8-6.2 1.1-7.6.2-1.4.6-5.2 1-8.5.3-3.2.7-7.5.9-9.4 2.6-24.6 2.6-80.6 0-100.5-.2-1.7-.9-7.3-1.6-12.5-.6-5.2-1.3-10.4-1.5-11.5-.2-1-.6-3.7-1-6-2.7-19.2-12.1-53.3-19.6-71.3-3.3-8-8.4-13.3-14.7-15.3-2-.6-4.1-1.5-4.6-2-.6-.4-10.3-4.4-21.5-8.9-28-11.1-74.5-26.6-104-34.6-3-.8-6.9-1.9-8.6-2.5-3.5-1-56.9-14.6-60.6-15.3-1.3-.3-9.5-2.1-18.3-4.1-8.8-2-17.1-3.9-18.5-4.1-1.4-.3-3.3-.7-4.2-1-1-.3-2.9-.7-4.4-1-1.4-.3-12.5-2.5-24.7-4.9-12.2-2.4-23.3-4.6-24.7-4.9-1.4-.2-8.8-1.5-16.5-2.9-7.7-1.4-22.3-4-32.5-5.7-10.2-1.6-19.6-3.2-21-3.4-1.4-.3-7.4-1.2-13.5-2.1-6-.9-12.1-1.8-13.5-2-7-1.1-32.5-4.5-39.5-5.3C520.9 1.1 489.7 1 482 2zm43 79.4c1.4.3 4.5.8 7 1.1 2.5.3 5.6.8 7 1 1.4.3 4.8.7 7.5 1 4.3.5 10.9 1.5 20.5 3 1.4.2 4.5.7 7 1 4.6.6 20.8 3.1 27 4.1 16.3 2.6 22.3 3.6 35 5.8 8 1.4 15.4 2.8 16.5 3 1.1.2 4 .7 6.5 1.1 2.5.4 5.4.9 6.5 1.1 12.5 2.6 17.5 3.6 20 3.9 1.7.3 10.4 2.1 19.5 4 9.1 2 17.6 3.8 19 4.1 1.4.3 5.4 1.2 9 2 3.6.9 7.6 1.8 9 2 6.5 1.2 47.2 11.8 61 15.9 8.5 2.5 16.4 4.8 17.6 5 12.6 2.8 83.5 28.4 86.8 31.3 1 .9 2.5 3.1 3.2 4.7 1.2 3 4.7 17.5 5.8 24.5.4 1.9.8 4.4 1 5.6.2 1.2.7 5.7 1.1 10 .4 4.3.9 9 1.1 10.4 2.3 13.3 2.3 71.9-.1 96.5-.7 7.6-3 26.1-4 31.5-.5 3.2-2.6 14.7-3.2 17.9-4.3 23.5-20.3 73.8-30.4 95.8-1 2.4-1.9 4.5-1.9 4.7 0 1.3-18 40.5-24.5 53.6-6.4 12.8-17.8 34-25.2 47-9.8 17.1-39.1 62.9-42.8 66.8-1 1.1-2.1 1.1-5.6.2-2.4-.7-5.5-1.4-6.9-1.7-5.8-1-44.6-11.6-63-17.3-39.2-11.9-102.9-35.1-130-47.3-3-1.3-14-6.2-24.5-10.8-18.9-8.3-80.5-38.8-90-44.6-2.7-1.6-9.9-5.8-16-9.2-6-3.4-11.7-6.6-12.5-7.1-.8-.5-7.3-4.5-14.5-8.8-46.1-27.8-88.5-58.3-129.9-93.2-30.2-25.4-72.7-67.6-95.6-94.9-2.5-3-5.4-6.3-6.5-7.5-1.1-1.2-3.6-4.1-5.5-6.6s-4.1-5.1-4.8-5.9c-3.2-3.3-30.6-40.7-37.9-51.6-12.4-18.7-23.1-35.5-26.1-41.5-.7-1.4-3.5-6.3-6.2-11-3.5-6.1-4.6-8.8-3.8-9.7 2.5-3 57.5-22.8 93.8-33.7 31-9.3 70.7-19 110-27.1 15.1-3 28.6-5.8 30-6.2 1.4-.3 3.4-.7 4.5-.8 1.1-.2 6.1-1 11-2 5-.9 9.7-1.8 10.5-2 1.7-.3 31.2-5.4 35-6 1.4-.3 4.2-.7 6.4-1 2.1-.4 4.6-.8 5.5-1 3.1-.5 9.6-1.6 12.6-1.9 1.7-.2 7.7-1.1 13.5-2 5.8-.8 12.2-1.8 14.2-2 2.1-.3 10.9-1.5 19.5-2.6 8.7-1.2 17.8-2.4 20.3-2.7 2.5-.3 4.6-.6 4.8-.8.5-.4 22.7.4 25.2.9z" fill="#00ace8"/><path d="M785.1 239.9c-2.9 4.7-7 11.5-9.2 15-2.7 4.4-3.9 7.4-3.9 10v3.8l9.3-.2c12.8-.1 12.5-.3 12.3 5.7-.2 5.7.8 6.6 7.2 6l3.9-.4-.3-4.6c-.2-5.4.4-6.7 3.1-6.7 1.2 0 2.1-.9 2.5-2.5 1-3.9.1-5.9-2.9-6.2l-2.6-.3v-28l-7.1-.1h-7l-5.3 8.5zm8.5 10.6l-.1 9.5h-5.2c-2.9 0-5.3-.2-5.3-.4s1.8-3.4 4-7.1c2.3-3.6 4.5-7.7 5-9.1.5-1.3 1.1-2.4 1.3-2.4.2 0 .3 4.3.3 9.5zM820.9 231.9c-.3 1.3-.8 5.1-1.8 13.6-.6 4.9-1.3 9.5-1.5 10.1-.3.7 1.9 1.1 6.4 1.2 10.8.1 15.6 4 13.1 10.5-1.6 4.2-11.6 5.9-18.3 3.2-1.3-.5-1.9 0-2.4 2.2-.3 1.5-.8 3.6-1 4.5-.4 1.3.7 1.9 5.2 2.8 10.2 2.1 19.3 0 24.6-5.6 2.6-2.9 5-9.4 4.3-11.7-.2-.7-.6-2.4-.9-3.9-1.3-5.6-7-9.6-15.1-10.3-2.2-.2-4.3-.4-4.7-.4-1.1-.1-1-4.3.1-6 .6-.9 3.5-1.3 9.7-1.5l8.9-.1v-9l-13.3-.1c-7.2 0-13.3.2-13.3.5zM682.2 274.2l.3 13.3h7.5l7.5.1v49.2l.1 49.2-4.1.1c-2.2.1-5.7.1-7.7.1H682V413h60.6l-.1-13.3v-13.2l-6.8-.2c-3.8 0-7.1-.4-7.4-.7-.3-.3-.6-8.7-.7-18.7-.1-20.9-.4-20.2 10-25.3 10.1-4.9 18.6-3.1 22.8 4.9 2 3.8 2.1 5.7 2.3 34 .1 16.5.2 30.6.3 31.2 0 1 5.2 1.3 22.5 1.3H808v-26.9h-13.7c-1-.1-1.3-5.3-1.3-22.4 0-16.6-.4-23.7-1.5-28.1-4.3-16.3-15.2-24.7-33.1-25.3-10.8-.3-16.5 1.1-24.4 6.1-3 1.9-5.7 3.3-6 3.1-.3-.2-.4-13.4-.4-29.4l.2-29.1h-45.9l.3 13.2zM538 278.3v13.4l7.1-.2c3.9 0 7.3.3 7.6.8.6 1 .6 92.7 0 93.4-.2.2-3.6.4-7.6.5l-7.1.1v3.9c-.1 2.1-.1 7.6-.1 12.3 0 4.7 0 8.9.1 9.5 0 1.2 61 1.4 61.1.2.1-1.2.1-22.5 0-24.5-.1-1.5-.9-1.7-6.6-1.4l-6.5.3-.1-3.5c-.3-21.6-.3-27.4.2-28.3.4-.7 4.6-.9 11.2-.6 9.6.4 11.1.7 15.3 3.4 6.3 3.8 9 9.2 11.4 22.5 1.9 10.8 2.2 12.4 4.1 25.1l1.2 7.8h43.2l-.2-12.7c0-7.1-.1-13.6-.2-14.5-.1-1.3-1.1-1.6-5.6-1.6-3 .1-5.7-.1-6.1-.4-.3-.4-2.1-6.4-4-13.5-3.9-14.2-6.7-19.9-12-23.9l-3.5-2.7 5.8-3.7c9.3-5.9 15-13.6 16.9-23 4-20.2-4.8-38.3-22.7-46.8-10.5-4.9-13.6-5.2-59.9-5.2h-43v13.3zm74.2 14.1c10.9 1.5 17 7.9 17 17.7-.1 8-4.5 13.6-12.5 16-4.9 1.5-30.7 1.9-30.8.5-.1-1.6-.1-32.9 0-34.1.1-1.2 18.5-1.2 26.3-.1z" fill="#00ace8"/></svg>