<?xml version="1.0" encoding="utf-8"?>
<!-- Generator: Adobe Illustrator 27.7.0, SVG Export Plug-In . SVG Version: 6.00 Build 0)  -->
<svg version="1.1"
	 id="svg8" xmlns:sodipodi="http://sodipodi.sourceforge.net/DTD/sodipodi-0.dtd" xmlns:svg="http://www.w3.org/2000/svg" xmlns:inkscape="http://www.inkscape.org/namespaces/inkscape" xmlns:rdf="http://www.w3.org/1999/02/22-rdf-syntax-ns#" xmlns:dc="http://purl.org/dc/elements/1.1/" xmlns:cc="http://creativecommons.org/ns#" inkscape:version="1.2 (dc2aedaf03, 2022-05-15)" sodipodi:docname="logo.svg"
	 xmlns="http://www.w3.org/2000/svg" xmlns:xlink="http://www.w3.org/1999/xlink" x="0px" y="0px" viewBox="0 0 512 512"
	 style="enable-background:new 0 0 512 512;" xml:space="preserve">
<style type="text/css">
	.st0{clip-path:url(#SVGID_00000068662754599082430690000002129606805272952199_);fill:#2962FF;}
</style>
<g>
	<defs>
		<ellipse id="SVGID_1_" cx="256" cy="256" rx="253.8" ry="247.2"/>
	</defs>
	<use xlink:href="#SVGID_1_"  style="overflow:visible;fill:#FFFFFF;"/>
	<clipPath id="SVGID_00000100343860565167864800000010048442657418704781_">
		<use xlink:href="#SVGID_1_"  style="overflow:visible;"/>
	</clipPath>
	
		<path id="path122_00000100341075899606043960000011661191306250185890_" inkscape:connector-curvature="0" inkscape:export-filename="/tmp/test.png" inkscape:export-xdpi="309.245" inkscape:export-ydpi="309.245" style="clip-path:url(#SVGID_00000100343860565167864800000010048442657418704781_);fill:#2962FF;" d="
		M215.9,689.4c-0.2-0.7-0.4-31.4-0.4-68.2v-66.9h-2.4c-1.3,0-8.3-0.4-15.5-0.9c-64.5-4.4-123.8-16.1-181.8-36.2L4,513l-0.2-58.6
		l-0.2-58.6l15.9,7.4c51,24,96.8,37.7,146.9,44.5c14,2,36,3.9,43.6,3.9h6.5v-70.4c0-66.3,0-70.4-1.5-70.8c-0.9-0.2-7-1.5-13.7-2.6
		c-55.6-10-98.3-23.8-128.4-41.4c-44.5-26.2-67.1-65.8-70-121.9C0.3,89.7,14,48.2,45.6,16.6c20.9-20.9,44-34.7,76.1-45.3
		c24.6-8.1,66.1-15.3,88.7-15.3h5.2l0.2-52.3l0.2-52.3l36.2-0.2l36.2-0.2v51.4c0,40.3,0.2,51.4,1.1,51.7c0.7,0.2,8.1,0.9,16.8,1.7
		c44.9,4.1,93.7,12.4,141,24l22.7,5.4v56.7c0,31.2-0.2,56.7-0.7,56.7c-0.4,0-4.8-1.7-10-3.7c-50.6-20.3-112.1-34.7-161.3-37.5
		l-9.6-0.7v65.4v65.4l8.7,1.5c57.1,9.8,89.8,18.5,120.3,32.3c56.5,25.3,84.6,64.5,91.6,127.7c1.3,12.2,1.1,41.9-0.4,53.8
		c-11.8,90.5-78.7,138.9-207.1,149.8c-5.7,0.4-10.9,0.9-11.8,0.9c-1.3,0-1.5,3.9-1.5,68.7v68.7h-36
		C220.5,690.7,216.3,690.5,215.9,689.4L215.9,689.4z M306.8,448.9c31.6-3.5,51.9-17.4,58.4-40.1c4.8-17,2.2-41.6-6.1-54.5
		c-10.7-16.6-29.4-25.1-66.9-30.3l-3.7-0.4v63.2V450h5.2C296.3,449.8,302.2,449.4,306.8,448.9L306.8,448.9z M216.3,117.6
		c0-32.5-0.2-59.1-0.7-59.3c-1.3-0.9-19.8,2.2-26.6,4.4c-18.5,5.9-32.7,16.8-39.2,30.5c-3.9,8.1-5,13.5-4.8,23.8
		c0.2,27,14.2,44.9,42.5,54.3c5.7,2,22.5,5.4,26.2,5.4h2.8v-59.1H216.3z"/>
</g>
</svg>
