<svg xmlns="http://www.w3.org/2000/svg" viewBox="0 0 24 24" id="riot"><path fill="#A5DCF1" d="M19.147 15.13C20.939 13.537 22 11.143 22 8.576 22 3.768 18.411 0 13.83 0H6.158C3.865 0 2 1.872 2 4.174l.002.02L2 4.203v16.112C2 22.347 3.646 24 5.671 24s3.671-1.653 3.671-3.685v-3.163h1.866l3.083 5.079A3.674 3.674 0 0 0 17.433 24c.666 0 1.322-.184 1.906-.542l.414-.254a3.696 3.696 0 0 0 1.223-5.062l-1.829-3.012z"></path><path d="m20.389 23.361-.01.006-.001.001zM9.233 1.453l-.007-.01.012.019.002.002-.007-.011z"></path><path fill="#3D89DC" d="M5.671 24A3.682 3.682 0 0 1 2 20.315V4.203a.75.75 0 0 1 1.5 0v16.112c0 1.204.974 2.185 2.171 2.185s2.171-.98 2.171-2.185v-3.913a.75.75 0 0 1 1.5 0v3.913A3.682 3.682 0 0 1 5.671 24z"></path><path fill="#3D89DC" d="M11.62 17.152H8.592a.75.75 0 0 1 0-1.5h3.028a.75.75 0 0 1 0 1.5zm6.554-1.428a.749.749 0 0 1-.448-1.353c1.763-1.307 2.773-3.419 2.773-5.795 0-4.034-2.867-7.076-6.67-7.076H6.158a.75.75 0 0 1 0-1.5h7.672C18.411 0 22 3.768 22 8.576c0 2.813-1.264 5.431-3.381 7a.74.74 0 0 1-.445.148zm-8.229-1.995H5.914a.75.75 0 0 1-.75-.75V7.598a.75.75 0 0 1 1.5 0v4.631h3.281a.75.75 0 0 1 0 1.5z"></path><path fill="#3D89DC" d="M16.157 12.407a.75.75 0 0 1-.541-1.27c.638-.665.989-1.574.989-2.562 0-2.082-1.523-3.652-3.544-3.652H9.565a.75.75 0 0 1 0-1.5h3.496c2.828 0 5.044 2.263 5.044 5.152 0 1.376-.5 2.654-1.407 3.601a.745.745 0 0 1-.541.231z"></path><path fill="#3D89DC" d="M11.737 10.794h-1.685a.75.75 0 0 1-.75-.75V7.108a.75.75 0 0 1 .75-.75h2.327c1.3 0 2.317.975 2.317 2.218 0 .608-.244 1.172-.687 1.585a.75.75 0 1 1-1.024-1.096.644.644 0 0 0 .21-.489c0-.416-.344-.718-.817-.718h-1.577v1.436h.935a.75.75 0 0 1 .001 1.5z"></path><path fill="#3D89DC" d="M6.158 8.348C3.865 8.348 2 6.476 2 4.174S3.865 0 6.158 0c2.292 0 4.157 1.872 4.157 4.174S8.45 8.348 6.158 8.348zm11.276 15.653a3.674 3.674 0 0 1-3.142-1.769L9.73 14.716a3.696 3.696 0 0 1 1.222-5.062l.414-.254a3.622 3.622 0 0 1 2.775-.438 3.644 3.644 0 0 1 2.273 1.664l4.563 7.518a3.695 3.695 0 0 1-1.223 5.062l-.414.254a3.645 3.645 0 0 1-1.906.541zM5.914 20.821a.75.75 0 0 1-.75-.75v-7.093a.75.75 0 0 1 1.5 0v7.093a.75.75 0 0 1-.75.75z"></path></svg>