<svg xmlns="http://www.w3.org/2000/svg" xmlns:xlink="http://www.w3.org/1999/xlink" version="1.1" id="Layer_1" x="0px" y="0px" style="enable-background:new 0 0 512 512;" xml:space="preserve" viewBox="0 27.37 512.1 457.17">
<style type="text/css">
	.st0{fill:#F5455C;}
</style>
<g>
	<path class="st0" d="M488.7,178.7c-13.9-21.6-33.3-40.7-57.8-56.8C383.6,90.8,321.5,73.7,256,73.7c-21.9,0-43.5,1.9-64.4,5.7   c-13-12.5-28.2-23.8-44.3-32.7C87.7,16.9,35.1,28,8.6,37.6c-8.7,3.1-11.4,14.2-5,20.9c18.7,19.4,49.7,57.6,42.1,92.4   C16.1,181.1,0,217.6,0,255.6c0,38.7,16.1,75.2,45.7,105.5c7.6,34.8-23.4,73.1-42.1,92.4c-6.4,6.6-3.8,17.7,5,20.8   c26.6,9.6,79.1,20.7,138.8-9.1c16.1-8.9,31.3-20.2,44.3-32.7c20.9,3.8,42.5,5.7,64.4,5.7c65.5,0,127.6-17.1,174.9-48.2   c24.5-16.1,43.9-35.2,57.8-56.8c15.5-24,23.3-49.9,23.3-76.9C512,228.6,504.2,202.8,488.7,178.7z M253.3,393.4   c-28.3,0-55.3-3.7-79.9-10.3l-18,17.3c-9.8,9.4-21.2,17.9-33.2,24.6c-15.8,7.8-31.5,12-46.9,13.3c0.9-1.6,1.7-3.2,2.5-4.8   c18-33.2,22.9-62.9,14.6-89.4C62.9,321,45.2,291.3,45.2,259c0-74.2,93.2-134.4,208.1-134.4c114.9,0,208.1,60.2,208.1,134.4   C461.5,333.3,368.3,393.4,253.3,393.4z"/>
	<path class="st0" d="M153.8,228.1c-16.9,0-30.7,13.6-30.7,30.5s13.7,30.5,30.7,30.5c16.9,0,30.7-13.6,30.7-30.5   S170.7,228.1,153.8,228.1z"/>
	<path class="st0" d="M252.5,228.1c-16.9,0-30.7,13.6-30.7,30.5s13.7,30.5,30.7,30.5c16.9,0,30.7-13.6,30.7-30.5   S269.4,228.1,252.5,228.1z"/>
	<path class="st0" d="M351.2,228.1c-16.9,0-30.7,13.6-30.7,30.5s13.7,30.5,30.7,30.5s30.7-13.6,30.7-30.5S368.2,228.1,351.2,228.1z"/>
</g>
</svg>