<?xml version="1.0" encoding="utf-8"?>
<!-- Generator: Adobe Illustrator 27.7.0, SVG Export Plug-In . SVG Version: 6.00 Build 0)  -->
<svg version="1.1" id="Layer_1" xmlns="http://www.w3.org/2000/svg" xmlns:xlink="http://www.w3.org/1999/xlink" x="0px" y="0px"
	 viewBox="0 0 375 375" style="enable-background:new 0 0 375 375;" xml:space="preserve">
<style type="text/css">
	.st0{fill:#FFFFFF;}
	.st1{clip-path:url(#SVGID_00000083065992740852811830000006036505526628833937_);}
	.st2{clip-path:url(#SVGID_00000090285154566753123320000005906725596919418285_);}
	.st3{fill:url(#SVGID_00000056405814513005525790000007163037878311803050_);}
	.st4{clip-path:url(#SVGID_00000168091368647554135680000003425608006035136412_);}
	.st5{clip-path:url(#SVGID_00000103971547527392988760000007827662078717655729_);}
	.st6{clip-path:url(#SVGID_00000109016842106468348300000015292390642498648984_);}
	.st7{clip-path:url(#SVGID_00000163792735224568954600000013767272205843730595_);}
</style>
<circle class="st0" cx="187.5" cy="187.5" r="187.5"/>
<g>
	<defs>
		<rect id="SVGID_1_" x="0" width="375" height="375"/>
	</defs>
	<clipPath id="SVGID_00000072279833737604392370000004338197760053628839_">
		<use xlink:href="#SVGID_1_"  style="overflow:visible;"/>
	</clipPath>
	
		<g transform="translate(-45.27)scale(1.2407)" style="clip-path:url(#SVGID_00000072279833737604392370000004338197760053628839_);">
		<g>
			<defs>
				<path id="SVGID_00000142888420141514284810000016700275482799577984_" d="M187.6,0C104.1,0,36.5,67.6,36.5,151.1
					c0,83.5,67.6,151.1,151.1,151.1s151.1-67.6,151.1-151.1C338.7,67.6,271.1,0,187.6,0 M187.6,252.1c-46.8,0-85.9-31.8-97.5-74.9
					c16.5-1.8,35.3-1.8,55.5,1.5l-0.3,0.1c10.4,1.8,20,7.4,26.2,16.1l18.7,26c9.1,12.7,26.3,17.4,41,10.1
					c15.1-7.5,21.1-26.1,15.2-41.9c-12.9-34.8-31.1-83.4-35.5-92.5c-12-25.1-44.2-26.7-65.5-12c-0.3,0.2-0.6,0.4-0.9,0.6
					c-0.1,0.1-0.1,0.1-0.2,0.1c-3,2-6.7,3.6-10.6,4.6c-10.2,3.7-20.5,5.3-30.7,5.6C121.2,68.2,152.2,50,187.5,50
					c55.8,0,101,45.2,101,101C288.6,206.8,243.4,252.1,187.6,252.1"/>
			</defs>
			<clipPath id="SVGID_00000137118830269794756450000001746896425858232995_">
				<use xlink:href="#SVGID_00000142888420141514284810000016700275482799577984_"  style="overflow:visible;"/>
			</clipPath>
			<g style="clip-path:url(#SVGID_00000137118830269794756450000001746896425858232995_);">
				
					<linearGradient id="SVGID_00000106105771922199022650000015914332399769532305_" gradientUnits="userSpaceOnUse" x1="280.4029" y1="-275.9977" x2="790.5188" y2="18.517" gradientTransform="matrix(0.8697 0 0 -0.8697 -235.0275 14.3185)">
					<stop  offset="0" style="stop-color:#3A00CD"/>
					<stop  offset="0.125" style="stop-color:#3A00CD"/>
					<stop  offset="0.133" style="stop-color:#3A00CD"/>
					<stop  offset="0.137" style="stop-color:#3B00CD"/>
					<stop  offset="0.141" style="stop-color:#3C00CE"/>
					<stop  offset="0.144" style="stop-color:#3C00CE"/>
					<stop  offset="0.148" style="stop-color:#3D00CE"/>
					<stop  offset="0.152" style="stop-color:#3E00CF"/>
					<stop  offset="0.156" style="stop-color:#3F00CF"/>
					<stop  offset="0.16" style="stop-color:#4000CF"/>
					<stop  offset="0.164" style="stop-color:#4100CF"/>
					<stop  offset="0.168" style="stop-color:#4200D0"/>
					<stop  offset="0.172" style="stop-color:#4300D0"/>
					<stop  offset="0.18" style="stop-color:#4400D0"/>
					<stop  offset="0.184" style="stop-color:#4500D1"/>
					<stop  offset="0.188" style="stop-color:#4600D1"/>
					<stop  offset="0.191" style="stop-color:#4700D1"/>
					<stop  offset="0.195" style="stop-color:#4800D1"/>
					<stop  offset="0.203" style="stop-color:#4800D2"/>
					<stop  offset="0.207" style="stop-color:#4A00D2"/>
					<stop  offset="0.211" style="stop-color:#4B00D2"/>
					<stop  offset="0.215" style="stop-color:#4C00D2"/>
					<stop  offset="0.219" style="stop-color:#4D00D3"/>
					<stop  offset="0.223" style="stop-color:#4E00D3"/>
					<stop  offset="0.227" style="stop-color:#4F00D3"/>
					<stop  offset="0.231" style="stop-color:#5000D3"/>
					<stop  offset="0.234" style="stop-color:#5000D4"/>
					<stop  offset="0.238" style="stop-color:#5100D4"/>
					<stop  offset="0.242" style="stop-color:#5200D4"/>
					<stop  offset="0.246" style="stop-color:#5300D4"/>
					<stop  offset="0.25" style="stop-color:#5400D5"/>
					<stop  offset="0.254" style="stop-color:#5500D5"/>
					<stop  offset="0.258" style="stop-color:#5600D6"/>
					<stop  offset="0.266" style="stop-color:#5600D6"/>
					<stop  offset="0.27" style="stop-color:#5800D6"/>
					<stop  offset="0.273" style="stop-color:#5900D7"/>
					<stop  offset="0.277" style="stop-color:#5A00D7"/>
					<stop  offset="0.281" style="stop-color:#5B00D7"/>
					<stop  offset="0.285" style="stop-color:#5C00D7"/>
					<stop  offset="0.289" style="stop-color:#5C00D8"/>
					<stop  offset="0.293" style="stop-color:#5D00D8"/>
					<stop  offset="0.297" style="stop-color:#5E00D8"/>
					<stop  offset="0.301" style="stop-color:#5F00D8"/>
					<stop  offset="0.305" style="stop-color:#6000D9"/>
					<stop  offset="0.309" style="stop-color:#6100D9"/>
					<stop  offset="0.313" style="stop-color:#6200D9"/>
					<stop  offset="0.316" style="stop-color:#6200DA"/>
					<stop  offset="0.32" style="stop-color:#6300DA"/>
					<stop  offset="0.324" style="stop-color:#6400DA"/>
					<stop  offset="0.328" style="stop-color:#6500DA"/>
					<stop  offset="0.332" style="stop-color:#6600DB"/>
					<stop  offset="0.336" style="stop-color:#6700DB"/>
					<stop  offset="0.34" style="stop-color:#6800DB"/>
					<stop  offset="0.344" style="stop-color:#6900DB"/>
					<stop  offset="0.348" style="stop-color:#6900DC"/>
					<stop  offset="0.352" style="stop-color:#6A00DC"/>
					<stop  offset="0.355" style="stop-color:#6B00DC"/>
					<stop  offset="0.359" style="stop-color:#6C00DC"/>
					<stop  offset="0.363" style="stop-color:#6D00DD"/>
					<stop  offset="0.367" style="stop-color:#6E00DD"/>
					<stop  offset="0.371" style="stop-color:#6E00DE"/>
					<stop  offset="0.375" style="stop-color:#6F00DE"/>
					<stop  offset="0.379" style="stop-color:#7000DE"/>
					<stop  offset="0.383" style="stop-color:#7100DE"/>
					<stop  offset="0.387" style="stop-color:#7200DF"/>
					<stop  offset="0.391" style="stop-color:#7300DF"/>
					<stop  offset="0.395" style="stop-color:#7400DF"/>
					<stop  offset="0.398" style="stop-color:#7500DF"/>
					<stop  offset="0.406" style="stop-color:#7600E0"/>
					<stop  offset="0.41" style="stop-color:#7700E0"/>
					<stop  offset="0.414" style="stop-color:#7800E0"/>
					<stop  offset="0.418" style="stop-color:#7900E0"/>
					<stop  offset="0.422" style="stop-color:#7A00E1"/>
					<stop  offset="0.426" style="stop-color:#7B00E1"/>
					<stop  offset="0.43" style="stop-color:#7C00E1"/>
					<stop  offset="0.434" style="stop-color:#7C00E1"/>
					<stop  offset="0.438" style="stop-color:#7D00E2"/>
					<stop  offset="0.441" style="stop-color:#7E00E2"/>
					<stop  offset="0.445" style="stop-color:#7F00E2"/>
					<stop  offset="0.449" style="stop-color:#8000E2"/>
					<stop  offset="0.453" style="stop-color:#8100E3"/>
					<stop  offset="0.461" style="stop-color:#8200E3"/>
					<stop  offset="0.465" style="stop-color:#8300E3"/>
					<stop  offset="0.469" style="stop-color:#8400E4"/>
					<stop  offset="0.473" style="stop-color:#8500E4"/>
					<stop  offset="0.477" style="stop-color:#8600E4"/>
					<stop  offset="0.48" style="stop-color:#8700E4"/>
					<stop  offset="0.484" style="stop-color:#8800E5"/>
					<stop  offset="0.488" style="stop-color:#8800E5"/>
					<stop  offset="0.492" style="stop-color:#8900E6"/>
					<stop  offset="0.496" style="stop-color:#8A00E6"/>
					<stop  offset="0.5" style="stop-color:#8B00E6"/>
					<stop  offset="0.504" style="stop-color:#8C00E6"/>
					<stop  offset="0.508" style="stop-color:#8D00E7"/>
					<stop  offset="0.512" style="stop-color:#8E00E7"/>
					<stop  offset="0.516" style="stop-color:#8F00E7"/>
					<stop  offset="0.519" style="stop-color:#9000E8"/>
					<stop  offset="0.523" style="stop-color:#9000E8"/>
					<stop  offset="0.527" style="stop-color:#9100E8"/>
					<stop  offset="0.531" style="stop-color:#9200E8"/>
					<stop  offset="0.535" style="stop-color:#9300E9"/>
					<stop  offset="0.539" style="stop-color:#9400E9"/>
					<stop  offset="0.543" style="stop-color:#9400E9"/>
					<stop  offset="0.547" style="stop-color:#9500E9"/>
					<stop  offset="0.551" style="stop-color:#9600EA"/>
					<stop  offset="0.555" style="stop-color:#9700EA"/>
					<stop  offset="0.559" style="stop-color:#9800EA"/>
					<stop  offset="0.563" style="stop-color:#9900EA"/>
					<stop  offset="0.566" style="stop-color:#9A00EB"/>
					<stop  offset="0.57" style="stop-color:#9B00EB"/>
					<stop  offset="0.574" style="stop-color:#9C00EB"/>
					<stop  offset="0.578" style="stop-color:#9C00EB"/>
					<stop  offset="0.582" style="stop-color:#9D00EC"/>
					<stop  offset="0.586" style="stop-color:#9E00EC"/>
					<stop  offset="0.59" style="stop-color:#9F00EC"/>
					<stop  offset="0.594" style="stop-color:#A000EC"/>
					<stop  offset="0.598" style="stop-color:#A100EC"/>
					<stop  offset="0.602" style="stop-color:#A200ED"/>
					<stop  offset="0.606" style="stop-color:#A200ED"/>
					<stop  offset="0.609" style="stop-color:#A300ED"/>
					<stop  offset="0.613" style="stop-color:#A400ED"/>
					<stop  offset="0.617" style="stop-color:#A500EE"/>
					<stop  offset="0.621" style="stop-color:#A600EE"/>
					<stop  offset="0.625" style="stop-color:#A700EF"/>
					<stop  offset="0.629" style="stop-color:#A800EF"/>
					<stop  offset="0.633" style="stop-color:#A800EF"/>
					<stop  offset="0.637" style="stop-color:#A900EF"/>
					<stop  offset="0.641" style="stop-color:#AA00F0"/>
					<stop  offset="0.644" style="stop-color:#AB00F0"/>
					<stop  offset="0.648" style="stop-color:#AC00F0"/>
					<stop  offset="0.652" style="stop-color:#AD00F0"/>
					<stop  offset="0.656" style="stop-color:#AE00F1"/>
					<stop  offset="0.664" style="stop-color:#AE00F1"/>
					<stop  offset="0.668" style="stop-color:#B000F1"/>
					<stop  offset="0.672" style="stop-color:#B100F2"/>
					<stop  offset="0.676" style="stop-color:#B200F2"/>
					<stop  offset="0.68" style="stop-color:#B300F2"/>
					<stop  offset="0.684" style="stop-color:#B400F3"/>
					<stop  offset="0.688" style="stop-color:#B500F3"/>
					<stop  offset="0.691" style="stop-color:#B600F3"/>
					<stop  offset="0.695" style="stop-color:#B600F3"/>
					<stop  offset="0.699" style="stop-color:#B700F4"/>
					<stop  offset="0.703" style="stop-color:#B800F4"/>
					<stop  offset="0.707" style="stop-color:#B900F4"/>
					<stop  offset="0.711" style="stop-color:#BA00F4"/>
					<stop  offset="0.715" style="stop-color:#BA00F5"/>
					<stop  offset="0.719" style="stop-color:#BB00F5"/>
					<stop  offset="0.723" style="stop-color:#BC00F5"/>
					<stop  offset="0.727" style="stop-color:#BD00F5"/>
					<stop  offset="0.731" style="stop-color:#BE00F6"/>
					<stop  offset="0.734" style="stop-color:#BF00F6"/>
					<stop  offset="0.738" style="stop-color:#C000F7"/>
					<stop  offset="0.742" style="stop-color:#C100F7"/>
					<stop  offset="0.75" style="stop-color:#C200F7"/>
					<stop  offset="0.754" style="stop-color:#C300F8"/>
					<stop  offset="0.758" style="stop-color:#C400F8"/>
					<stop  offset="0.762" style="stop-color:#C500F8"/>
					<stop  offset="0.766" style="stop-color:#C600F8"/>
					<stop  offset="0.769" style="stop-color:#C700F8"/>
					<stop  offset="0.773" style="stop-color:#C800F9"/>
					<stop  offset="0.777" style="stop-color:#C800F9"/>
					<stop  offset="0.781" style="stop-color:#C900F9"/>
					<stop  offset="0.785" style="stop-color:#CA00F9"/>
					<stop  offset="0.789" style="stop-color:#CB00FA"/>
					<stop  offset="0.793" style="stop-color:#CC00FA"/>
					<stop  offset="0.797" style="stop-color:#CD00FA"/>
					<stop  offset="0.801" style="stop-color:#CE00FA"/>
					<stop  offset="0.805" style="stop-color:#CE00FB"/>
					<stop  offset="0.809" style="stop-color:#CF00FB"/>
					<stop  offset="0.813" style="stop-color:#D000FB"/>
					<stop  offset="0.816" style="stop-color:#D100FB"/>
					<stop  offset="0.82" style="stop-color:#D200FC"/>
					<stop  offset="0.824" style="stop-color:#D300FC"/>
					<stop  offset="0.828" style="stop-color:#D400FC"/>
					<stop  offset="0.836" style="stop-color:#D400FC"/>
					<stop  offset="0.84" style="stop-color:#D600FD"/>
					<stop  offset="0.844" style="stop-color:#D700FD"/>
					<stop  offset="0.848" style="stop-color:#D800FD"/>
					<stop  offset="0.852" style="stop-color:#D900FE"/>
					<stop  offset="0.856" style="stop-color:#DA00FE"/>
					<stop  offset="0.859" style="stop-color:#DB00FF"/>
					<stop  offset="0.863" style="stop-color:#DC00FF"/>
					<stop  offset="0.867" style="stop-color:#DC00FF"/>
					<stop  offset="0.875" style="stop-color:#DC00FF"/>
					<stop  offset="1" style="stop-color:#DC00FF"/>
				</linearGradient>
				<path style="fill:url(#SVGID_00000106105771922199022650000015914332399769532305_);" d="M36.5,0v302.2h302.2V0H36.5z"/>
			</g>
		</g>
	</g>
</g>
<path class="st0" d="M173.9,146.3c0,0.6-0.1,1.2-0.2,1.8c-0.2,1.2-0.7,2.3-1.4,3.3c-0.3,0.5-0.7,1-1.1,1.4c-0.4,0.4-0.9,0.8-1.4,1.1
	c-0.5,0.3-1,0.6-1.6,0.8c-0.6,0.2-1.1,0.4-1.7,0.5c-0.6,0.1-1.2,0.2-1.8,0.2c-0.6,0-1.2-0.1-1.8-0.2c-0.6-0.1-1.2-0.3-1.7-0.5
	c-1.7-0.7-3.1-1.9-4.1-3.4c-0.7-1-1.1-2.1-1.4-3.3c-0.1-0.6-0.2-1.2-0.2-1.8c0-0.6,0.1-1.2,0.2-1.8c0.1-0.6,0.3-1.2,0.5-1.7
	c0.2-0.6,0.5-1.1,0.8-1.6c0.3-0.5,0.7-1,1.1-1.4c0.4-0.4,0.9-0.8,1.4-1.1c0.5-0.3,1-0.6,1.6-0.8c0.6-0.2,1.1-0.4,1.7-0.5
	c1.2-0.2,2.4-0.2,3.6,0c0.6,0.1,1.2,0.3,1.7,0.5c0.6,0.2,1.1,0.5,1.6,0.8c0.5,0.3,1,0.7,1.4,1.1c0.8,0.8,1.5,1.9,2,3
	C173.7,143.9,173.9,145.1,173.9,146.3 M173.9,182.4c0,1.2-0.2,2.4-0.7,3.5c-0.2,0.6-0.5,1.1-0.8,1.6c-0.3,0.5-0.7,1-1.1,1.4
	c-0.4,0.4-0.9,0.8-1.4,1.1c-0.5,0.3-1,0.6-1.6,0.8c-1.1,0.5-2.3,0.7-3.5,0.7c-1.2,0-2.4-0.2-3.5-0.7c-0.6-0.2-1.1-0.5-1.6-0.8
	c-0.5-0.3-1-0.7-1.4-1.1c-0.8-0.8-1.5-1.9-2-3c-0.2-0.6-0.4-1.1-0.5-1.7c-0.2-1.2-0.2-2.4,0-3.6c0.1-0.6,0.3-1.2,0.5-1.7
	c0.2-0.6,0.5-1.1,0.8-1.6c0.3-0.5,0.7-1,1.1-1.4c0.8-0.9,1.9-1.5,3-2c0.6-0.2,1.1-0.4,1.7-0.5c0.6-0.1,1.2-0.2,1.8-0.2
	c0.6,0,1.2,0.1,1.8,0.2c0.6,0.1,1.2,0.3,1.7,0.5c0.6,0.2,1.1,0.5,1.6,0.8c0.5,0.3,1,0.7,1.4,1.1c0.4,0.4,0.8,0.9,1.1,1.4
	c0.3,0.5,0.6,1,0.8,1.6c0.2,0.6,0.4,1.1,0.5,1.7C173.9,181.2,173.9,181.8,173.9,182.4 M155.8,164.3c0,0.6-0.1,1.2-0.2,1.8
	c-0.1,0.6-0.3,1.2-0.5,1.7c-0.2,0.6-0.5,1.1-0.8,1.6c-0.3,0.5-0.7,1-1.1,1.4c-0.4,0.4-0.9,0.8-1.4,1.1c-0.5,0.3-1,0.6-1.6,0.8
	c-0.6,0.2-1.1,0.4-1.7,0.5c-0.6,0.1-1.2,0.2-1.8,0.2c-0.6,0-1.2-0.1-1.8-0.2c-0.6-0.1-1.2-0.3-1.7-0.5c-0.6-0.2-1.1-0.5-1.6-0.8
	c-1-0.7-1.9-1.5-2.5-2.5c-0.3-0.5-0.6-1-0.8-1.6c-0.2-0.6-0.4-1.1-0.5-1.7c-0.2-1.2-0.2-2.4,0-3.6c0.1-0.6,0.3-1.2,0.5-1.7
	c0.2-0.6,0.5-1.1,0.8-1.6c0.3-0.5,0.7-1,1.1-1.4c0.4-0.4,0.9-0.8,1.4-1.1c0.5-0.3,1-0.6,1.6-0.8c0.6-0.2,1.1-0.4,1.7-0.5
	c1.2-0.2,2.4-0.2,3.6,0c1.2,0.2,2.3,0.7,3.3,1.4c0.5,0.3,1,0.7,1.4,1.1c0.4,0.4,0.8,0.9,1.1,1.4
	C155.3,160.7,155.8,162.5,155.8,164.3 M191.9,164.3c0,0.6-0.1,1.2-0.2,1.8c-0.1,0.6-0.3,1.2-0.5,1.7c-0.2,0.6-0.5,1.1-0.8,1.6
	c-0.7,1-1.5,1.9-2.5,2.5c-0.5,0.3-1,0.6-1.6,0.8c-0.6,0.2-1.1,0.4-1.7,0.5c-0.6,0.1-1.2,0.2-1.8,0.2c-0.6,0-1.2-0.1-1.8-0.2
	c-0.6-0.1-1.2-0.3-1.7-0.5c-0.6-0.2-1.1-0.5-1.6-0.8c-0.5-0.3-1-0.7-1.4-1.1c-0.4-0.4-0.8-0.9-1.1-1.4c-0.3-0.5-0.6-1-0.8-1.6
	c-0.2-0.6-0.4-1.1-0.5-1.7c-0.2-1.2-0.2-2.4,0-3.6c0.2-1.2,0.7-2.3,1.4-3.3c0.3-0.5,0.7-1,1.1-1.4c0.4-0.4,0.9-0.8,1.4-1.1
	c1.5-1,3.3-1.5,5.1-1.5c0.6,0,1.2,0.1,1.8,0.2c0.6,0.1,1.2,0.3,1.7,0.5c0.6,0.2,1.1,0.5,1.6,0.8c1,0.7,1.9,1.5,2.5,2.5
	c0.3,0.5,0.6,1,0.8,1.6c0.2,0.6,0.4,1.1,0.5,1.7C191.9,163.1,191.9,163.7,191.9,164.3"/>
<g>
	<defs>
		<rect id="SVGID_00000163060032647553068260000000962900277165205145_" x="5.4" y="219.9" width="68.4" height="54.6"/>
	</defs>
	<clipPath id="SVGID_00000086687585781442128230000000809897454899032449_">
		<use xlink:href="#SVGID_00000163060032647553068260000000962900277165205145_"  style="overflow:visible;"/>
	</clipPath>
	
		<g transform="matrix(1.25036 0 0 1.24183 -46.065 -.325)" style="clip-path:url(#SVGID_00000086687585781442128230000000809897454899032449_);">
		<g>
			<defs>
				<path id="SVGID_00000085932225698318203000000013450077864223406265_" d="M90.1,177.3c-20.3,2.1-37.4,6.7-48.9,10.7
					c1.4,5.6,3.1,11.1,5.2,16.5c0.1,0.3,0.2,0.6,0.4,1c2,5.4,4.4,10.7,7.1,15.8c11-16,27.5-24,42.1-28
					C93.5,188.2,91.6,182.9,90.1,177.3"/>
			</defs>
			<clipPath id="SVGID_00000029029883593032635160000009824851849227194274_">
				<use xlink:href="#SVGID_00000085932225698318203000000013450077864223406265_"  style="overflow:visible;"/>
			</clipPath>
			<g style="clip-path:url(#SVGID_00000029029883593032635160000009824851849227194274_);">
				<path class="st0" d="M40.8,177.3v44.1h55.1v-44.1H40.8z"/>
			</g>
		</g>
	</g>
</g>
<g>
	<defs>
		<rect id="SVGID_00000064333383630658303650000016133160354206449540_" x="17.7" y="74.4" width="74.5" height="44.6"/>
	</defs>
	<clipPath id="SVGID_00000051352640695829168020000009305295195480371135_">
		<use xlink:href="#SVGID_00000064333383630658303650000016133160354206449540_"  style="overflow:visible;"/>
	</clipPath>
	
		<g transform="matrix(1.25008 0 0 1.24758 -46.214 -.66)" style="clip-path:url(#SVGID_00000051352640695829168020000009305295195480371135_);">
		<g>
			<defs>
				<path id="SVGID_00000080913081478702307690000012173330867034827183_" d="M103.2,95.6c2.3-3.4,4.8-6.8,7.5-9.9h-0.1
					c0,0-25.9-6.1-43.5-25.6c-3.1,4.1-6,8.4-8.6,12.8L58.5,73c-2.7,4.4-5.1,9-7.4,13.6C65,91.5,83.7,96,103.2,95.6"/>
			</defs>
			<clipPath id="SVGID_00000057850377171293196700000015587195546557772206_">
				<use xlink:href="#SVGID_00000080913081478702307690000012173330867034827183_"  style="overflow:visible;"/>
			</clipPath>
			<g style="clip-path:url(#SVGID_00000057850377171293196700000015587195546557772206_);">
				<path class="st0" d="M51.1,60.1v35.8h59.6V60.1L51.1,60.1z"/>
			</g>
		</g>
	</g>
</g>
</svg>
