<svg xmlns="http://www.w3.org/2000/svg" xmlns:xlink="http://www.w3.org/1999/xlink" xml:space="preserve" id="Layer_1" x="0" y="0" version="1.1" viewBox="0 0 375 375"><style>.st0{fill:#fff}</style><circle cx="187.5" cy="187.5" r="187.5" class="st0"/><defs><path id="SVGID_1_" d="M0 0h375v375H0z"/></defs><clipPath id="SVGID_00000072279833737604392370000004338197760053628839_"><use xlink:href="#SVGID_1_" style="overflow:visible"/></clipPath><g style="clip-path:url(#SVGID_00000072279833737604392370000004338197760053628839_)" transform="translate(-45.27)scale(1.2407)"><defs><path id="SVGID_00000142888420141514284810000016700275482799577984_" d="M187.6 0C104.1 0 36.5 67.6 36.5 151.1s67.6 151.1 151.1 151.1 151.1-67.6 151.1-151.1S271.1 0 187.6 0m0 252.1c-46.8 0-85.9-31.8-97.5-74.9 16.5-1.8 35.3-1.8 55.5 1.5l-.3.1c10.4 1.8 20 7.4 26.2 16.1l18.7 26c9.1 12.7 26.3 17.4 41 10.1 15.1-7.5 21.1-26.1 15.2-41.9-12.9-34.8-31.1-83.4-35.5-92.5-12-25.1-44.2-26.7-65.5-12l-.9.6c-.1.1-.1.1-.2.1-3 2-6.7 3.6-10.6 4.6-10.2 3.7-20.5 5.3-30.7 5.6C121.2 68.2 152.2 50 187.5 50c55.8 0 101 45.2 101 101 .1 55.8-45.1 101.1-100.9 101.1"/></defs><clipPath id="SVGID_00000137118830269794756450000001746896425858232995_"><use xlink:href="#SVGID_00000142888420141514284810000016700275482799577984_" style="overflow:visible"/></clipPath><g style="clip-path:url(#SVGID_00000137118830269794756450000001746896425858232995_)"><linearGradient id="SVGID_00000106105771922199022650000015914332399769532305_" x1="280.403" x2="790.519" y1="-275.998" y2="18.517" gradientTransform="matrix(.8697 0 0 -.8697 -235.028 14.319)" gradientUnits="userSpaceOnUse"><stop offset="0" style="stop-color:#3a00cd"/><stop offset=".125" style="stop-color:#3a00cd"/><stop offset=".133" style="stop-color:#3a00cd"/><stop offset=".137" style="stop-color:#3b00cd"/><stop offset=".141" style="stop-color:#3c00ce"/><stop offset=".144" style="stop-color:#3c00ce"/><stop offset=".148" style="stop-color:#3d00ce"/><stop offset=".152" style="stop-color:#3e00cf"/><stop offset=".156" style="stop-color:#3f00cf"/><stop offset=".16" style="stop-color:#4000cf"/><stop offset=".164" style="stop-color:#4100cf"/><stop offset=".168" style="stop-color:#4200d0"/><stop offset=".172" style="stop-color:#4300d0"/><stop offset=".18" style="stop-color:#4400d0"/><stop offset=".184" style="stop-color:#4500d1"/><stop offset=".188" style="stop-color:#4600d1"/><stop offset=".191" style="stop-color:#4700d1"/><stop offset=".195" style="stop-color:#4800d1"/><stop offset=".203" style="stop-color:#4800d2"/><stop offset=".207" style="stop-color:#4a00d2"/><stop offset=".211" style="stop-color:#4b00d2"/><stop offset=".215" style="stop-color:#4c00d2"/><stop offset=".219" style="stop-color:#4d00d3"/><stop offset=".223" style="stop-color:#4e00d3"/><stop offset=".227" style="stop-color:#4f00d3"/><stop offset=".231" style="stop-color:#5000d3"/><stop offset=".234" style="stop-color:#5000d4"/><stop offset=".238" style="stop-color:#5100d4"/><stop offset=".242" style="stop-color:#5200d4"/><stop offset=".246" style="stop-color:#5300d4"/><stop offset=".25" style="stop-color:#5400d5"/><stop offset=".254" style="stop-color:#5500d5"/><stop offset=".258" style="stop-color:#5600d6"/><stop offset=".266" style="stop-color:#5600d6"/><stop offset=".27" style="stop-color:#5800d6"/><stop offset=".273" style="stop-color:#5900d7"/><stop offset=".277" style="stop-color:#5a00d7"/><stop offset=".281" style="stop-color:#5b00d7"/><stop offset=".285" style="stop-color:#5c00d7"/><stop offset=".289" style="stop-color:#5c00d8"/><stop offset=".293" style="stop-color:#5d00d8"/><stop offset=".297" style="stop-color:#5e00d8"/><stop offset=".301" style="stop-color:#5f00d8"/><stop offset=".305" style="stop-color:#6000d9"/><stop offset=".309" style="stop-color:#6100d9"/><stop offset=".313" style="stop-color:#6200d9"/><stop offset=".316" style="stop-color:#6200da"/><stop offset=".32" style="stop-color:#6300da"/><stop offset=".324" style="stop-color:#6400da"/><stop offset=".328" style="stop-color:#6500da"/><stop offset=".332" style="stop-color:#6600db"/><stop offset=".336" style="stop-color:#6700db"/><stop offset=".34" style="stop-color:#6800db"/><stop offset=".344" style="stop-color:#6900db"/><stop offset=".348" style="stop-color:#6900dc"/><stop offset=".352" style="stop-color:#6a00dc"/><stop offset=".355" style="stop-color:#6b00dc"/><stop offset=".359" style="stop-color:#6c00dc"/><stop offset=".363" style="stop-color:#6d00dd"/><stop offset=".367" style="stop-color:#6e00dd"/><stop offset=".371" style="stop-color:#6e00de"/><stop offset=".375" style="stop-color:#6f00de"/><stop offset=".379" style="stop-color:#7000de"/><stop offset=".383" style="stop-color:#7100de"/><stop offset=".387" style="stop-color:#7200df"/><stop offset=".391" style="stop-color:#7300df"/><stop offset=".395" style="stop-color:#7400df"/><stop offset=".398" style="stop-color:#7500df"/><stop offset=".406" style="stop-color:#7600e0"/><stop offset=".41" style="stop-color:#7700e0"/><stop offset=".414" style="stop-color:#7800e0"/><stop offset=".418" style="stop-color:#7900e0"/><stop offset=".422" style="stop-color:#7a00e1"/><stop offset=".426" style="stop-color:#7b00e1"/><stop offset=".43" style="stop-color:#7c00e1"/><stop offset=".434" style="stop-color:#7c00e1"/><stop offset=".438" style="stop-color:#7d00e2"/><stop offset=".441" style="stop-color:#7e00e2"/><stop offset=".445" style="stop-color:#7f00e2"/><stop offset=".449" style="stop-color:#8000e2"/><stop offset=".453" style="stop-color:#8100e3"/><stop offset=".461" style="stop-color:#8200e3"/><stop offset=".465" style="stop-color:#8300e3"/><stop offset=".469" style="stop-color:#8400e4"/><stop offset=".473" style="stop-color:#8500e4"/><stop offset=".477" style="stop-color:#8600e4"/><stop offset=".48" style="stop-color:#8700e4"/><stop offset=".484" style="stop-color:#8800e5"/><stop offset=".488" style="stop-color:#8800e5"/><stop offset=".492" style="stop-color:#8900e6"/><stop offset=".496" style="stop-color:#8a00e6"/><stop offset=".5" style="stop-color:#8b00e6"/><stop offset=".504" style="stop-color:#8c00e6"/><stop offset=".508" style="stop-color:#8d00e7"/><stop offset=".512" style="stop-color:#8e00e7"/><stop offset=".516" style="stop-color:#8f00e7"/><stop offset=".519" style="stop-color:#9000e8"/><stop offset=".523" style="stop-color:#9000e8"/><stop offset=".527" style="stop-color:#9100e8"/><stop offset=".531" style="stop-color:#9200e8"/><stop offset=".535" style="stop-color:#9300e9"/><stop offset=".539" style="stop-color:#9400e9"/><stop offset=".543" style="stop-color:#9400e9"/><stop offset=".547" style="stop-color:#9500e9"/><stop offset=".551" style="stop-color:#9600ea"/><stop offset=".555" style="stop-color:#9700ea"/><stop offset=".559" style="stop-color:#9800ea"/><stop offset=".563" style="stop-color:#9900ea"/><stop offset=".566" style="stop-color:#9a00eb"/><stop offset=".57" style="stop-color:#9b00eb"/><stop offset=".574" style="stop-color:#9c00eb"/><stop offset=".578" style="stop-color:#9c00eb"/><stop offset=".582" style="stop-color:#9d00ec"/><stop offset=".586" style="stop-color:#9e00ec"/><stop offset=".59" style="stop-color:#9f00ec"/><stop offset=".594" style="stop-color:#a000ec"/><stop offset=".598" style="stop-color:#a100ec"/><stop offset=".602" style="stop-color:#a200ed"/><stop offset=".606" style="stop-color:#a200ed"/><stop offset=".609" style="stop-color:#a300ed"/><stop offset=".613" style="stop-color:#a400ed"/><stop offset=".617" style="stop-color:#a500ee"/><stop offset=".621" style="stop-color:#a600ee"/><stop offset=".625" style="stop-color:#a700ef"/><stop offset=".629" style="stop-color:#a800ef"/><stop offset=".633" style="stop-color:#a800ef"/><stop offset=".637" style="stop-color:#a900ef"/><stop offset=".641" style="stop-color:#aa00f0"/><stop offset=".644" style="stop-color:#ab00f0"/><stop offset=".648" style="stop-color:#ac00f0"/><stop offset=".652" style="stop-color:#ad00f0"/><stop offset=".656" style="stop-color:#ae00f1"/><stop offset=".664" style="stop-color:#ae00f1"/><stop offset=".668" style="stop-color:#b000f1"/><stop offset=".672" style="stop-color:#b100f2"/><stop offset=".676" style="stop-color:#b200f2"/><stop offset=".68" style="stop-color:#b300f2"/><stop offset=".684" style="stop-color:#b400f3"/><stop offset=".688" style="stop-color:#b500f3"/><stop offset=".691" style="stop-color:#b600f3"/><stop offset=".695" style="stop-color:#b600f3"/><stop offset=".699" style="stop-color:#b700f4"/><stop offset=".703" style="stop-color:#b800f4"/><stop offset=".707" style="stop-color:#b900f4"/><stop offset=".711" style="stop-color:#ba00f4"/><stop offset=".715" style="stop-color:#ba00f5"/><stop offset=".719" style="stop-color:#bb00f5"/><stop offset=".723" style="stop-color:#bc00f5"/><stop offset=".727" style="stop-color:#bd00f5"/><stop offset=".731" style="stop-color:#be00f6"/><stop offset=".734" style="stop-color:#bf00f6"/><stop offset=".738" style="stop-color:#c000f7"/><stop offset=".742" style="stop-color:#c100f7"/><stop offset=".75" style="stop-color:#c200f7"/><stop offset=".754" style="stop-color:#c300f8"/><stop offset=".758" style="stop-color:#c400f8"/><stop offset=".762" style="stop-color:#c500f8"/><stop offset=".766" style="stop-color:#c600f8"/><stop offset=".769" style="stop-color:#c700f8"/><stop offset=".773" style="stop-color:#c800f9"/><stop offset=".777" style="stop-color:#c800f9"/><stop offset=".781" style="stop-color:#c900f9"/><stop offset=".785" style="stop-color:#ca00f9"/><stop offset=".789" style="stop-color:#cb00fa"/><stop offset=".793" style="stop-color:#cc00fa"/><stop offset=".797" style="stop-color:#cd00fa"/><stop offset=".801" style="stop-color:#ce00fa"/><stop offset=".805" style="stop-color:#ce00fb"/><stop offset=".809" style="stop-color:#cf00fb"/><stop offset=".813" style="stop-color:#d000fb"/><stop offset=".816" style="stop-color:#d100fb"/><stop offset=".82" style="stop-color:#d200fc"/><stop offset=".824" style="stop-color:#d300fc"/><stop offset=".828" style="stop-color:#d400fc"/><stop offset=".836" style="stop-color:#d400fc"/><stop offset=".84" style="stop-color:#d600fd"/><stop offset=".844" style="stop-color:#d700fd"/><stop offset=".848" style="stop-color:#d800fd"/><stop offset=".852" style="stop-color:#d900fe"/><stop offset=".856" style="stop-color:#da00fe"/><stop offset=".859" style="stop-color:#db00ff"/><stop offset=".863" style="stop-color:#dc00ff"/><stop offset=".867" style="stop-color:#dc00ff"/><stop offset=".875" style="stop-color:#dc00ff"/><stop offset="1" style="stop-color:#dc00ff"/></linearGradient><path d="M36.5 0v302.2h302.2V0z" style="fill:url(#SVGID_00000106105771922199022650000015914332399769532305_)"/></g></g><path d="M173.9 146.3c0 .6-.1 1.2-.2 1.8-.2 1.2-.7 2.3-1.4 3.3-.3.5-.7 1-1.1 1.4s-.9.8-1.4 1.1-1 .6-1.6.8-1.1.4-1.7.5-1.2.2-1.8.2-1.2-.1-1.8-.2-1.2-.3-1.7-.5c-1.7-.7-3.1-1.9-4.1-3.4-.7-1-1.1-2.1-1.4-3.3-.1-.6-.2-1.2-.2-1.8s.1-1.2.2-1.8.3-1.2.5-1.7c.2-.6.5-1.1.8-1.6s.7-1 1.1-1.4.9-.8 1.4-1.1 1-.6 1.6-.8 1.1-.4 1.7-.5q1.8-.3 3.6 0c.6.1 1.2.3 1.7.5.6.2 1.1.5 1.6.8s1 .7 1.4 1.1c.8.8 1.5 1.9 2 3 .6 1.2.8 2.4.8 3.6m0 36.1c0 1.2-.2 2.4-.7 3.5-.2.6-.5 1.1-.8 1.6s-.7 1-1.1 1.4-.9.8-1.4 1.1-1 .6-1.6.8c-1.1.5-2.3.7-3.5.7s-2.4-.2-3.5-.7c-.6-.2-1.1-.5-1.6-.8s-1-.7-1.4-1.1c-.8-.8-1.5-1.9-2-3-.2-.6-.4-1.1-.5-1.7q-.3-1.8 0-3.6c.1-.6.3-1.2.5-1.7.2-.6.5-1.1.8-1.6s.7-1 1.1-1.4c.8-.9 1.9-1.5 3-2 .6-.2 1.1-.4 1.7-.5s1.2-.2 1.8-.2 1.2.1 1.8.2 1.2.3 1.7.5c.6.2 1.1.5 1.6.8s1 .7 1.4 1.1.8.9 1.1 1.4.6 1 .8 1.6.4 1.1.5 1.7c.3.7.3 1.3.3 1.9m-18.1-18.1c0 .6-.1 1.2-.2 1.8s-.3 1.2-.5 1.7c-.2.6-.5 1.1-.8 1.6s-.7 1-1.1 1.4-.9.8-1.4 1.1-1 .6-1.6.8-1.1.4-1.7.5-1.2.2-1.8.2-1.2-.1-1.8-.2-1.2-.3-1.7-.5c-.6-.2-1.1-.5-1.6-.8-1-.7-1.9-1.5-2.5-2.5-.3-.5-.6-1-.8-1.6s-.4-1.1-.5-1.7q-.3-1.8 0-3.6c.1-.6.3-1.2.5-1.7.2-.6.5-1.1.8-1.6s.7-1 1.1-1.4.9-.8 1.4-1.1 1-.6 1.6-.8 1.1-.4 1.7-.5q1.8-.3 3.6 0c1.2.2 2.3.7 3.3 1.4.5.3 1 .7 1.4 1.1s.8.9 1.1 1.4c1 1.4 1.5 3.2 1.5 5m36.1 0c0 .6-.1 1.2-.2 1.8s-.3 1.2-.5 1.7c-.2.6-.5 1.1-.8 1.6-.7 1-1.5 1.9-2.5 2.5-.5.3-1 .6-1.6.8s-1.1.4-1.7.5-1.2.2-1.8.2-1.2-.1-1.8-.2-1.2-.3-1.7-.5c-.6-.2-1.1-.5-1.6-.8s-1-.7-1.4-1.1-.8-.9-1.1-1.4-.6-1-.8-1.6-.4-1.1-.5-1.7q-.3-1.8 0-3.6c.2-1.2.7-2.3 1.4-3.3.3-.5.7-1 1.1-1.4s.9-.8 1.4-1.1c1.5-1 3.3-1.5 5.1-1.5.6 0 1.2.1 1.8.2s1.2.3 1.7.5c.6.2 1.1.5 1.6.8 1 .7 1.9 1.5 2.5 2.5.3.5.6 1 .8 1.6s.4 1.1.5 1.7.1 1.2.1 1.8" class="st0"/><defs><path id="SVGID_00000163060032647553068260000000962900277165205145_" d="M5.4 219.9h68.4v54.6H5.4z"/></defs><clipPath id="SVGID_00000086687585781442128230000000809897454899032449_"><use xlink:href="#SVGID_00000163060032647553068260000000962900277165205145_" style="overflow:visible"/></clipPath><g style="clip-path:url(#SVGID_00000086687585781442128230000000809897454899032449_)" transform="matrix(1.25036 0 0 1.24183 -46.065 -.325)"><defs><path id="SVGID_00000085932225698318203000000013450077864223406265_" d="M90.1 177.3c-20.3 2.1-37.4 6.7-48.9 10.7 1.4 5.6 3.1 11.1 5.2 16.5.1.3.2.6.4 1 2 5.4 4.4 10.7 7.1 15.8 11-16 27.5-24 42.1-28-2.5-5.1-4.4-10.4-5.9-16"/></defs><clipPath id="SVGID_00000029029883593032635160000009824851849227194274_"><use xlink:href="#SVGID_00000085932225698318203000000013450077864223406265_" style="overflow:visible"/></clipPath><path d="M40.8 177.3v44.1h55.1v-44.1z" class="st0" style="clip-path:url(#SVGID_00000029029883593032635160000009824851849227194274_)"/></g><defs><path id="SVGID_00000064333383630658303650000016133160354206449540_" d="M17.7 74.4h74.5V119H17.7z"/></defs><clipPath id="SVGID_00000051352640695829168020000009305295195480371135_"><use xlink:href="#SVGID_00000064333383630658303650000016133160354206449540_" style="overflow:visible"/></clipPath><g style="clip-path:url(#SVGID_00000051352640695829168020000009305295195480371135_)" transform="matrix(1.25008 0 0 1.24758 -46.214 -.66)"><defs><path id="SVGID_00000080913081478702307690000012173330867034827183_" d="M103.2 95.6c2.3-3.4 4.8-6.8 7.5-9.9h-.1s-25.9-6.1-43.5-25.6c-3.1 4.1-6 8.4-8.6 12.8v.1c-2.7 4.4-5.1 9-7.4 13.6 13.9 4.9 32.6 9.4 52.1 9"/></defs><clipPath id="SVGID_00000057850377171293196700000015587195546557772206_"><use xlink:href="#SVGID_00000080913081478702307690000012173330867034827183_" style="overflow:visible"/></clipPath><path d="M51.1 60.1v35.8h59.6V60.1z" class="st0" style="clip-path:url(#SVGID_00000057850377171293196700000015587195546557772206_)"/></g></svg>