<svg xmlns="http://www.w3.org/2000/svg" xmlns:svg="http://www.w3.org/2000/svg" id="svg16" width="60" height="60" version="1.1" viewBox="9.14 141.8 60 60"><metadata id="metadata22"/><style id="style2">.st0,.st3{fill-rule:evenodd;clip-rule:evenodd;fill:#404f54}.st3{fill:#37beff}</style><path id="path4" d="M 69.14,184.47097 39.13948,167.14298 V 148.64773 L 69.14,165.97676 Z" class="st3" style="stroke-width:.104593"/><path id="path6" d="M 9.14,184.47097 39.13948,167.14298 V 148.64773 L 9.14,165.97676 Z" class="st0" style="stroke-width:.104593"/><path id="path8" fill="#ccc" fill-rule="evenodd" d="m 39.13948,141.8 c 11.45925,0 20.75237,9.29312 20.75237,20.75238 0,11.45925 -9.29312,20.75237 -20.75237,20.75237 -11.45926,0 -20.75238,-9.29312 -20.75238,-20.75237 0,-11.45926 9.29312,-20.75238 20.75238,-20.75238" clip-rule="evenodd" style="stroke-width:.104593"/><path id="path10" fill="#e5e5e5" fill-rule="evenodd" d="m 39.13948,141.8 c 11.46343,0 20.75969,9.29312 20.75969,20.75238 0,11.45925 -9.29626,20.75237 -20.75969,20.75237 -6.57997,-4.42848 -9.30254,-13.3503 -9.30254,-20.74087 0,-7.39057 2.72257,-16.32703 9.30254,-20.76388" clip-rule="evenodd" style="stroke-width:.104593"/><path id="path12" d="M 69.14,165.97676 39.13948,183.30475 V 201.8 L 69.14,184.47097 Z" class="st3" style="stroke-width:.104593"/><path id="path14" d="m 9.14,165.97676 29.99948,17.32799 V 201.8 L 9.14,184.47097 Z" class="st0" style="stroke-width:.104593"/></svg>