<svg xmlns="http://www.w3.org/2000/svg" xmlns:xlink="http://www.w3.org/1999/xlink" width="350" height="400"><defs><linearGradient id="m" x1="39.51" x2="39.51" y1="35.482" y2="36.404" gradientTransform="translate(-8.03 84.71) scale(7.5382)" gradientUnits="userSpaceOnUse"><stop offset="0" stop-color="#fff"/><stop offset=".091" stop-color="#e8f7d6"/><stop offset=".227" stop-color="#c8ed9e"/><stop offset=".365" stop-color="#ade46d"/><stop offset=".5" stop-color="#97dc46"/><stop offset=".633" stop-color="#85d627"/><stop offset=".762" stop-color="#79d212"/><stop offset=".886" stop-color="#72d004"/><stop offset="1" stop-color="#6fcf00"/></linearGradient><linearGradient id="l" x1="39.487" x2="39.54" y1="36.679" y2="35.269" gradientTransform="translate(-8.03 84.71) scale(7.5382)" gradientUnits="userSpaceOnUse"><stop offset=".006" stop-color="#3c3"/><stop offset=".358" stop-color="#1bb433"/><stop offset=".74" stop-color="#07a033"/><stop offset="1" stop-color="#093"/></linearGradient><linearGradient id="k" x1="-323.35" x2="-323.35" y1="37.987" y2="36.076" gradientTransform="matrix(-7.5382 0 0 5.6536 -2147.6 147.19)" gradientUnits="userSpaceOnUse"><stop offset=".006" stop-color="#9f6"/><stop offset=".236" stop-color="#68de56"/><stop offset=".478" stop-color="#3bc147"/><stop offset=".695" stop-color="#1bab3c"/><stop offset=".877" stop-color="#079e35"/><stop offset="1" stop-color="#093"/></linearGradient><linearGradient id="j" x1="39.51" x2="39.51" y1="37.225" y2="35.381" gradientTransform="translate(-8.03 84.71) scale(7.5382)" gradientUnits="userSpaceOnUse"><stop offset=".006" stop-color="#b6b6b6"/><stop offset=".367" stop-color="#9d9d9d"/><stop offset=".743" stop-color="#898989"/><stop offset="1" stop-color="#828282"/></linearGradient><linearGradient id="i" x1="39.51" x2="39.51" y1="37.324" y2="35.181" gradientTransform="translate(-8.03 84.71) scale(7.5382)" gradientUnits="userSpaceOnUse"><stop offset=".006" stop-color="#fff"/><stop offset="1" stop-color="#b6b6b6"/></linearGradient><linearGradient id="h" x1="291.55" x2="291.55" y1="862.34" y2="864.61" gradientTransform="matrix(0 -6.91 -7.3395 0 6535.8 2380.6)" gradientUnits="userSpaceOnUse"><stop offset="0" stop-color="#cecedb"/><stop offset=".191" stop-color="#fff"/><stop offset=".483" stop-color="#cecedb"/><stop offset=".753" stop-color="#b3b3c6"/><stop offset=".994" stop-color="#828282"/></linearGradient><linearGradient id="g" x1="24" x2="24" y1="38.25" y2="27.376" gradientTransform="translate(-8.03 84.71) scale(7.5382)" gradientUnits="userSpaceOnUse"><stop offset="0" stop-color="#fff"/><stop offset="1" stop-color="#ccc"/></linearGradient><linearGradient id="f" x1="24" x2="24" y1="28.283" y2="38.753" gradientTransform="translate(-8.03 84.71) scale(7.5382)" gradientUnits="userSpaceOnUse"><stop offset="0" stop-color="#fff"/><stop offset="1" stop-color="#ccc"/></linearGradient><linearGradient id="e" x1="4.393" x2="43.607" y1="28.4" y2="28.4" gradientTransform="translate(-8.03 84.71) scale(7.5382)" gradientUnits="userSpaceOnUse"><stop offset="0" stop-color="#fff"/><stop offset="1" stop-color="#ccc"/></linearGradient><linearGradient id="d" x1="4.393" x2="43.607" y1="28.4" y2="28.4" gradientTransform="translate(-8.03 84.71) scale(7.5382)" gradientUnits="userSpaceOnUse"><stop offset="0" stop-color="#9a9ab1"/><stop offset=".258" stop-color="#7d7d99"/><stop offset="1" stop-color="#585868"/></linearGradient><linearGradient id="c" x1="41.872" x2="5.738" y1="9.407" y2="29.21" gradientTransform="translate(-8.03 84.71) scale(7.5382)" gradientUnits="userSpaceOnUse"><stop offset="0" stop-color="#fff"/><stop offset=".071" stop-color="#f5f5f7"/><stop offset=".312" stop-color="#d7d7e1"/><stop offset=".55" stop-color="#c2c2d2"/><stop offset=".782" stop-color="#b5b5c8"/><stop offset="1" stop-color="#b1b1c5"/></linearGradient><linearGradient id="b" x1="24" x2="24" y1="41.438" y2="6.562" gradientTransform="translate(-8.03 84.71) scale(7.5382)" gradientUnits="userSpaceOnUse"><stop offset="0" stop-color="#cecedb"/><stop offset=".584" stop-color="#b1b1c5"/><stop offset="1" stop-color="#9a9ab1"/></linearGradient><linearGradient id="a" x1="24" x2="24" y1="39.073" y2="8.931" gradientTransform="translate(-8.03 84.71) scale(7.5382)" gradientUnits="userSpaceOnUse"><stop offset="0" stop-color="#7d7d99"/><stop offset="1" stop-color="#585868"/></linearGradient><linearGradient id="n" x1="32.812" x2="32.812" y1="21" y2="26.205" gradientTransform="matrix(2.5512 0 0 2.5486 -11.58 273.17)" gradientUnits="userSpaceOnUse"><stop offset="0" stop-color="#2e3436"/><stop offset="1" stop-color="#555753"/></linearGradient><linearGradient id="s" x1="39.51" x2="39.51" y1="35.482" y2="36.404" gradientTransform="matrix(3.7949 0 0 6.7546 -86.26 110.52)" gradientUnits="userSpaceOnUse"><stop offset="0" stop-color="#fff"/><stop offset=".091" stop-color="#e8f7d6"/><stop offset=".227" stop-color="#c8ed9e"/><stop offset=".365" stop-color="#ade46d"/><stop offset=".5" stop-color="#97dc46"/><stop offset=".633" stop-color="#85d627"/><stop offset=".762" stop-color="#79d212"/><stop offset=".886" stop-color="#72d004"/><stop offset="1" stop-color="#6fcf00"/></linearGradient><linearGradient id="r" x1="39.487" x2="39.54" y1="36.679" y2="35.269" gradientTransform="matrix(3.7949 0 0 6.7546 -86.26 110.52)" gradientUnits="userSpaceOnUse"><stop offset=".006" stop-color="#3c3"/><stop offset=".358" stop-color="#1bb433"/><stop offset=".74" stop-color="#07a033"/><stop offset="1" stop-color="#093"/></linearGradient><linearGradient id="q" x1="-323.35" x2="-323.35" y1="37.987" y2="36.076" gradientTransform="matrix(-3.7949 0 0 5.066 -1163.4 166.5)" gradientUnits="userSpaceOnUse"><stop offset=".006" stop-color="#9f6"/><stop offset=".236" stop-color="#68de56"/><stop offset=".478" stop-color="#3bc147"/><stop offset=".695" stop-color="#1bab3c"/><stop offset=".877" stop-color="#079e35"/><stop offset="1" stop-color="#093"/></linearGradient><linearGradient id="p" x1="39.51" x2="39.51" y1="37.225" y2="35.381" gradientTransform="matrix(3.7949 0 0 6.7546 -86.26 110.52)" gradientUnits="userSpaceOnUse"><stop offset=".006" stop-color="#b6b6b6"/><stop offset=".367" stop-color="#9d9d9d"/><stop offset=".743" stop-color="#898989"/><stop offset="1" stop-color="#828282"/></linearGradient><linearGradient id="o" x1="39.51" x2="39.51" y1="37.324" y2="35.181" gradientTransform="matrix(3.7949 0 0 6.7546 -86.26 110.52)" gradientUnits="userSpaceOnUse"><stop offset=".006" stop-color="#fff"/><stop offset="1" stop-color="#b6b6b6"/></linearGradient></defs><path fill="#707e7e" fill-rule="evenodd" stroke="#4d4d4d" stroke-linejoin="round" stroke-width="5" d="M125.25 14.71 72.614 172.1l26.548 7.888 41.844-160.59s-4.369-8.63-6.732-9.333c-2.364-.702-9.024 4.651-9.024 4.651z"/><path d="M70.29 152.55c-11.239 0-20.481 8.435-21.506 19.622l.226-1.274-.663 3.686.233-1.296-.67 3.678.225-1.274-.663 3.664.226-1.274-.67 3.678.225-1.274-.67 3.672.226-1.26-.664 3.65.226-1.275-.67 3.656.226-1.244-.664 3.634.22-1.237-.664 3.649.226-1.259-.663 3.64.218-1.235-.663 3.625.218-1.22-.656 3.618.226-1.244-.663 3.626.218-1.229-.656 3.626.211-1.221-.655 3.633.218-1.214-.656 3.611.211-1.206-.656 3.596.219-1.214-.656 3.611.218-1.206-.656 3.596.211-1.191-.655 3.595.21-1.206s-.648 3.58-.648 3.588c0-.006.211-1.183.211-1.183l-.648 3.596.211-1.191-.648 3.565.211-1.176s-.648 3.58-.648 3.588c0-.006.21-1.183.21-1.183l-.647 3.588.21-1.183-.648 3.573.204-1.176-.656 3.55.203-1.153-.64 3.558.202-1.176-.64 3.558.203-1.153-.64 3.55.202-1.153-.648 3.558.203-1.154-.64 3.543.203-1.138-.64 3.543.202-1.146-.64 3.543.203-1.146-.64 3.543.202-1.138-.64 3.528.196-1.13-.641 3.52.196-1.124-.64 3.52.195-1.115-.633 3.52.196-1.123-.633 3.528.196-1.123-.634 3.512.196-1.123-.633 3.505.196-1.1-.633 3.505.196-1.108-.633 3.498.196-1.101-.64 3.513.195-1.1-.633 3.49.196-1.109-.64 3.52.195-1.1-.633 3.49.188-1.093-.626 3.49.189-1.093s-.626 3.46-.626 3.468c0-.006.188-1.078.188-1.078l-.633 3.49.188-1.093-.656 3.453.188-1.093-.633 3.482.188-1.07-.625 3.46.188-1.078-.626 3.475.188-1.078-.625 3.46.188-1.063-.626 3.445.18-1.055-.625 3.475.181-1.063-.625 3.445.18-1.056-.61 3.445.18-1.04a25.008 25.008 0 0 0-.753 5.993v44.483c0 13.644 11.096 24.733 24.733 24.733h261.17c13.644 0 24.733-11.096 24.733-24.733v-44.483c0-1.983-.256-4.003-.769-6.016l.188 1.078-.618-3.444.181 1.055-.633-3.46.188 1.055-.633-3.467.188 1.078-.626-3.438.181 1.055-.633-3.475.188 1.1-.618-3.467c.18 1.07-.445-2.397-.445-2.397v-.006l.181 1.056-.633-3.46.188 1.1-.625-3.482.188 1.078-.633-3.49.188 1.085-.633-3.475.188 1.1-.626-3.475.181 1.086-.626-3.49.181 1.07-.625-3.468.188 1.093-.633-3.482.188 1.093-.641-3.513.196 1.108-.633-3.498.188 1.116-.633-3.52.196 1.115-.641-3.52.196 1.108-.633-3.498.188 1.131-.648-3.566.203 1.169-.633-3.528.188 1.093-.626-3.483.188 1.093-.64-3.505.195 1.13-.64-3.527.196 1.13-.641-3.535.203 1.146-.656-3.565.211 1.168-.64-3.543.196 1.116s-.641-3.513-.641-3.52l.196 1.138-.64-3.543.195 1.138-.648-3.55.203 1.168-.648-3.58.21 1.198-.647-3.58.203 1.168-.648-3.566.203 1.184-.648-3.596.203 1.199-.641-3.58.203 1.152-.656-3.573.212 1.176-.664-3.595.218 1.25-.648-3.617.203 1.183-.655-3.596.218 1.214-.52-3.588.21 1.198-.655-3.595.21 1.19-.655-3.603c0 .006.211 1.2.211 1.2l-.656-3.604.219 1.251-.664-3.633.218 1.213-.655-3.61.21 1.213-.663-3.61.219 1.236-.664-3.641.219 1.236-.656-3.618.218 1.228-.663-3.626.218 1.237-.67-3.649.225 1.26-.656-3.634.212 1.221-.664-3.626c0 .006.226 1.251.226 1.251l-.678-3.67.233 1.288-.663-3.656.219 1.26s-.664-3.664-.671-3.672c.006.006.226 1.266.226 1.266s-.663-3.648-.663-3.663c0 .018.218 1.259.218 1.259l-.663-3.649.226 1.274-.671-3.686.226 1.29-.678-3.695.233 1.29c-.965-11.21-10.207-19.645-21.454-19.645z" opacity=".2"/><path d="M68.87 149.73c-11.239 0-20.481 8.435-21.506 19.622l.226-1.274-.663 3.679.233-1.297-.67 3.679.225-1.274-.67 3.663.226-1.274-.664 3.686.226-1.274-.67 3.671.226-1.259-.664 3.649.226-1.274-.67 3.656.226-1.244-.664 3.634.219-1.237-.656 3.641.226-1.259-.663 3.641.218-1.236-.663 3.626.218-1.221-.656 3.618.226-1.244-.663 3.626.218-1.229-.656 3.626.211-1.221-.655 3.61.218-1.213-.656 3.61.211-1.205-.656 3.595.219-1.213-.656 3.61.218-1.205-.656 3.595.211-1.19-.655 3.595.21-1.206s-.648 3.58-.648 3.588c0-.006.211-1.183.211-1.183l-.648 3.595.211-1.19-.648 3.565.211-1.176s-.648 3.58-.648 3.588c0-.006.21-1.183.21-1.183l-.648 3.588.212-1.184-.649 3.573.204-1.176-.641 3.558.203-1.153-.64 3.558.202-1.176-.64 3.558.203-1.153-.64 3.55.202-1.153-.648 3.558.203-1.153-.64 3.543.203-1.139-.64 3.543.202-1.146-.64 3.543.203-1.146-.64 3.543.202-1.138-.64 3.528.196-1.13-.679 3.527.196-1.123-.633 3.52.196-1.115-.633 3.52.196-1.123-.633 3.528.196-1.124-.634 3.513.196-1.123-.633 3.505.196-1.1-.633 3.505.196-1.108-.648 3.49.196-1.1-.641 3.512.196-1.1-.633 3.482.196-1.108-.641 3.52.196-1.1-.633 3.49.188-1.093-.626 3.49.188-1.093s-.625 3.46-.625 3.468c0-.006.188-1.078.188-1.078l-.633 3.49.188-1.093-.626 3.483.188-1.093-.633 3.482.188-1.07-.626 3.46.189-1.078-.626 3.482.188-1.078-.626 3.468.189-1.063-.626 3.445.18-1.055-.625 3.46.181-1.063-.626 3.445.181-1.056L20.95 313l.18-1.04a25.008 25.008 0 0 0-.753 5.992v44.483c0 13.644 11.096 24.733 24.733 24.733h261.17c13.644 0 24.733-11.096 24.733-24.733v-44.483c0-1.982-.257-4.002-.77-6.015l.19 1.078-.62-3.445.182 1.055-.633-3.46.188 1.056-.633-3.468.188 1.078-.626-3.437.181 1.055-.633-3.475.188 1.1-.618-3.467c.18 1.07-.445-2.397-.445-2.397v-.006l.18 1.055-.633-3.46.189 1.1-.626-3.482.188 1.078-.633-3.49.188 1.085-.633-3.475.188 1.1-.626-3.474.181 1.085-.625-3.49.18 1.07-.625-3.467.188 1.093-.633-3.483.188 1.093-.64-3.512.195 1.108-.633-3.498.188 1.116-.633-3.52.196 1.115-.64-3.52.195 1.108-.633-3.498.188 1.13-.648-3.565.203 1.168-.633-3.528.188 1.093-.626-3.482.188 1.093-.64-3.505.196 1.13-.641-3.528.196 1.131-.64-3.535.203 1.146-.55-3.574.21 1.169-.64-3.543.196 1.116s-.64-3.513-.64-3.52l.195 1.138-.64-3.543.195 1.138-.648-3.55.203 1.168-.648-3.58.211 1.198-.633-3.566.203 1.169-.648-3.566.203 1.184-.648-3.596.203 1.198-.64-3.58.202 1.153-.655-3.573.21 1.176-.663-3.596.219 1.252-.649-3.619.204 1.184-.656-3.596.218 1.214-.656-3.596.211 1.199-.656-3.596.212 1.191-.656-3.603c0 .006.21 1.198.21 1.198l-.655-3.603.218 1.251-.663-3.633.218 1.214-.656-3.611.211 1.213-.663-3.61.218 1.236-.663-3.64.218 1.235-.655-3.618.218 1.229-.663-3.626.218 1.236-.671-3.648.226 1.259-.656-3.634.211 1.221-.663-3.625c0 .006.226 1.251.226 1.251l-.678-3.671.233 1.289-.663-3.656.218 1.259s-.663-3.664-.67-3.671c.005.006.225 1.266.225 1.266s-.663-3.648-.663-3.664c0 .013.218 1.26.218 1.26l-.663-3.65.226 1.275-.67-3.686.225 1.289-.678-3.694.233 1.289c-1.025-11.187-10.267-19.622-21.514-19.622H68.86z" opacity=".2"/><path fill="url(#a)" d="M66.04 146.9c-11.239 0-20.481 8.435-21.506 19.622l.226-1.274-.663 3.686.233-1.304-.67 3.679.225-1.274-.663 3.663.226-1.274-.67 3.686.225-1.274-.67 3.671.226-1.258-.664 3.648.226-1.274-.67 3.656.226-1.244-.664 3.634.219-1.237-.656 3.641.226-1.259-.663 3.649.218-1.236-.663 3.625.218-1.22-.656 3.618.226-1.244-.663 3.626.218-1.23-.656 3.627.211-1.222-.655 3.611.218-1.213-.656 3.633.211-1.206-.656 3.596.219-1.214-.656 3.61.218-1.205-.656 3.595.211-1.19-.655 3.595.21-1.206s-.648 3.58-.648 3.588c0-.006.211-1.183.211-1.183l-.648 3.595.211-1.19-.648 3.565.211-1.176s-.648 3.58-.648 3.588c0-.006.21-1.183.21-1.183l-.648 3.588.212-1.184-.649 3.574.204-1.176-.641 3.558.203-1.154-.64 3.558.202-1.176-.64 3.558.203-1.153-.64 3.55.202-1.153-.648 3.558.203-1.153-.64 3.543.203-1.139-.64 3.543.202-1.145-.64 3.542.203-1.145-.64 3.543.202-1.139-.64 3.528.196-1.13-.641 3.52.196-1.123-.64 3.52.195-1.116-.633 3.52.196-1.123-.633 3.528.196-1.123-.671 3.49.196-1.123-.633 3.505.196-1.1-.634 3.505.196-1.108-.633 3.497.196-1.1-.64 3.505.195-1.1-.633 3.49.196-1.108-.64 3.52.195-1.1-.633 3.49.188-1.094-.625 3.49.188-1.092s-.626 3.46-.626 3.467c0-.006.188-1.078.188-1.078l-.633 3.49.188-1.093-.625 3.483.188-1.093-.633 3.483.188-1.07-.626 3.46.188-1.079-.625 3.475.188-1.078-.626 3.46.188-1.063-.626 3.445.181-1.055-.625 3.46.18-1.063-.625 3.46.18-1.055-.625 3.437.181-1.04a25.008 25.008 0 0 0-.754 5.993v44.483c0 13.644 11.096 24.733 24.733 24.733h261.17c13.644 0 24.733-11.096 24.733-24.733v-44.483c0-1.983-.256-4.003-.769-6.016l.189 1.078-.619-3.445.181 1.056-.633-3.46.188 1.055-.633-3.468.188 1.078-.625-3.437.18 1.055-.633-3.475.188 1.1-.618-3.467c.181 1.07-.445-2.397-.445-2.397v-.006l.181 1.055-.633-3.46.188 1.101-.626-3.483.189 1.078-.634-3.49.189 1.086-.634-3.475.189 1.1-.626-3.475.18 1.086-.625-3.49.181 1.07-.626-3.468.188 1.093-.633-3.482.188 1.093-.64-3.506.196 1.109-.634-3.498.189 1.115-.634-3.52.196 1.116-.64-3.52.196 1.107-.634-3.497.189 1.13-.649-3.565.204 1.168-.634-3.528.189 1.093-.626-3.482.188 1.093-.64-3.505.195 1.13-.64-3.527.196 1.13-.641-3.535.203 1.146-.656-3.566.211 1.168-.64-3.542.195 1.115s-.64-3.513-.64-3.52c0 .006.196 1.138.196 1.138l-.641-3.543.196 1.139-.648-3.55.203 1.167-.648-3.58.21 1.198-.648-3.58.204 1.168-.649-3.565.204 1.183-.649-3.596.204 1.2-.52-3.582.203 1.154-.656-3.573.211 1.176-.663-3.596.218 1.251-.648-3.618.203 1.183-.656-3.595.219 1.213-.656-3.595.21 1.198-.655-3.595.211 1.19-.656-3.603c0 .006.211 1.199.211 1.199l-.655-3.603.218 1.251-.664-3.633.22 1.213-.656-3.61.21 1.213-.663-3.61.219 1.236-.664-3.641.219 1.236-.656-3.618.218 1.228-.663-3.625.218 1.236-.671-3.649.226 1.26-.656-3.634.211 1.221-.663-3.626c0 .006.226 1.251.226 1.251l-.678-3.67.233 1.288-.663-3.656.218 1.26s-.663-3.664-.67-3.672c.005.006.225 1.267.225 1.267s-.663-3.649-.663-3.664c0 .018.218 1.259.218 1.259l-.663-3.649.226 1.274-.595-3.716.226 1.29-.678-3.695.233 1.29c-1.025-11.188-10.267-19.623-21.514-19.623H66.023z"/><path fill="url(#b)" d="M320.16 310.96a17.3 17.3 0 0 0-.445-2.39 15.641 15.641 0 0 0-.445-2.397 15.986 15.986 0 0 0-.445-2.397 16.63 16.63 0 0 0-.437-2.382 15.715 15.715 0 0 0-.445-2.39 15.641 15.641 0 0 0-.445-2.397 16.941 16.941 0 0 0-.437-2.397 17.73 17.73 0 0 0-.445-2.39 16.75 16.75 0 0 0-.445-2.389 15.64 15.64 0 0 0-.445-2.397 15.544 15.544 0 0 0-.445-2.39 15.642 15.642 0 0 0-.444-2.397 15.703 15.703 0 0 0-.437-2.39c-.09-.821-.242-1.62-.445-2.396a15.716 15.716 0 0 0-.445-2.39 15.641 15.641 0 0 0-.446-2.397 15.544 15.544 0 0 0-.444-2.39 14.891 14.891 0 0 0-.437-2.397 15.715 15.715 0 0 0-.445-2.39 15.812 15.812 0 0 0-.445-2.396 14.15 14.15 0 0 0-.445-2.398 14.958 14.958 0 0 0-.437-2.397 15.64 15.64 0 0 0-.444-2.397 15.716 15.716 0 0 0-.445-2.39 15.64 15.64 0 0 0-.446-2.397 15.464 15.464 0 0 0-.437-2.39 15.64 15.64 0 0 0-.444-2.396 15.987 15.987 0 0 0-.445-2.397 15.055 15.055 0 0 0-.445-2.397 14.966 14.966 0 0 0-.445-2.398 14.722 14.722 0 0 0-.445-2.39 13.918 13.918 0 0 0-.437-2.389 14.9 14.9 0 0 0-.445-2.397 14.898 14.898 0 0 0-.445-2.397 14.899 14.899 0 0 0-.445-2.397 14.743 14.743 0 0 0-.437-2.397 14.993 14.993 0 0 0-.444-2.405 14.81 14.81 0 0 0-.445-2.39 13.956 13.956 0 0 0-.445-2.396 14.747 14.747 0 0 0-.445-2.398 14.742 14.742 0 0 0-.437-2.397 14.813 14.813 0 0 0-.445-2.397 14.748 14.748 0 0 0-.445-2.397 14.657 14.657 0 0 0-.445-2.39 14.151 14.151 0 0 0-.445-2.397 14.138 14.138 0 0 0-.437-2.397 14.658 14.658 0 0 0-.445-2.39 13.956 13.956 0 0 0-.445-2.396 14.013 14.013 0 0 0-.444-2.397 14.227 14.227 0 0 0-.438-2.405 14.722 14.722 0 0 0-.445-2.39 14.748 14.748 0 0 0-.445-2.397 13.956 13.956 0 0 0-.445-2.397 13.346 13.346 0 0 0-.444-2.397 14.004 14.004 0 0 0-.437-2.397 13.956 13.956 0 0 0-.445-2.397 14.18 14.18 0 0 0-.445-2.405 14.064 14.064 0 0 0-.445-2.39 13.294 13.294 0 0 0-.445-2.397 13.293 13.293 0 0 0-.445-2.397c-.648-7.176-6.679-12.792-14.021-12.792h-213.5c-7.342 0-13.365 5.616-14.021 12.792a13.87 13.87 0 0 0-.437 2.397 14.818 14.818 0 0 0-.445 2.397 13.916 13.916 0 0 0-.438 2.39c-.21.724-.37 1.523-.445 2.344a14.6 14.6 0 0 0-.444 2.398 14.594 14.594 0 0 0-.437 2.397 14.602 14.602 0 0 0-.445 2.397 14.659 14.659 0 0 0-.437 2.397 15.476 15.476 0 0 0-.445 2.397 15.62 15.62 0 0 0-.445 2.39 14.898 14.898 0 0 0-.437 2.404 15.548 15.548 0 0 0-.445 2.397 14.658 14.658 0 0 0-.438 2.397 15.62 15.62 0 0 0-.445 2.39 14.959 14.959 0 0 0-.437 2.397 15.816 15.816 0 0 0-.444 2.397 14.714 14.714 0 0 0-.437 2.39 15.816 15.816 0 0 0-.445 2.397 15.718 15.718 0 0 0-.445 2.397 14.807 14.807 0 0 0-.437 2.397c-.181.777-.34 1.576-.415 2.397a14.807 14.807 0 0 0-.437 2.397 15.547 15.547 0 0 0-.445 2.39 15.742 15.742 0 0 0-.445 2.405 14.659 14.659 0 0 0-.437 2.397 15.717 15.717 0 0 0-.445 2.397 15.603 15.603 0 0 0-.43 2.39 15.817 15.817 0 0 0-.444 2.397 15.621 15.621 0 0 0-.446 2.39 16.541 16.541 0 0 0-.437 2.389 15.892 15.892 0 0 0-.445 2.397 15.88 15.88 0 0 0-.437 2.397 15.892 15.892 0 0 0-.445 2.397c-.196.784-.362 1.575-.437 2.397a15.621 15.621 0 0 0-.445 2.39 16.837 16.837 0 0 0-.438 2.397 15.547 15.547 0 0 0-.444 2.39 16.655 16.655 0 0 0-.445 2.396c-.18.792-.339 1.591-.422 2.413a15.892 15.892 0 0 0-.445 2.397 16.837 16.837 0 0 0-.437 2.397 16.943 16.943 0 0 0-.445 2.39 16.78 16.78 0 0 0-.445 2.397 16.46 16.46 0 0 0-.437 2.39 16.793 16.793 0 0 0-.445 2.396 16.843 16.843 0 0 0-.437 2.39 16.85 16.85 0 0 0-.445 2.397 16.927 16.927 0 0 0-.437 2.39 17.93 17.93 0 0 0-.445 2.397 17.913 17.913 0 0 0-.445 2.39 17.927 17.927 0 0 0-.445 2.396 16.843 16.843 0 0 0-.437 2.39 18.045 18.045 0 0 0-.445 2.39 16.946 16.946 0 0 0-.437 2.397 16.752 16.752 0 0 0-.437 2.397 18.043 18.043 0 0 0-.445 2.39 16.738 16.738 0 0 0-.438 2.381 18.154 18.154 0 0 0-.445 2.398 16.836 16.836 0 0 0-.437 2.397 17.599 17.599 0 0 0-.445 2.39 17.317 17.317 0 0 0-.528 4.175v44.483c0 9.514 7.712 17.217 17.217 17.217h261.17c9.514 0 17.217-7.704 17.217-17.217v-44.483c.03-1.394-.165-2.789-.497-4.123z"/><path fill="url(#c)" d="M82.29 154.41 32.84 308.5c94.084-11.285 185.65-11.337 278.35-6.226l-47.596-147.87z"/><path fill="url(#d)" d="M27.82 300.49a18.141 18.141 0 0 0-.445 2.39 16.822 16.822 0 0 0-.437 2.382 18.038 18.038 0 0 0-.445 2.404 16.647 16.647 0 0 0-.437 2.39 17.595 17.595 0 0 0-.444 2.39 17.38 17.38 0 0 0-.528 4.183v18.25a17.786 17.786 0 0 0 12.25 4.87h271.12c4.741 0 9.038-1.854 12.242-4.87v-18.25a17.4 17.4 0 0 0-.528-4.183 17.3 17.3 0 0 0-.445-2.39 15.379 15.379 0 0 0-.445-2.39 15.911 15.911 0 0 0-.444-2.404 16.63 16.63 0 0 0-.437-2.382 15.716 15.716 0 0 0-.446-2.39 15.64 15.64 0 0 0-.445-2.397 16.646 16.646 0 0 0-.437-2.39c-.09-.821-.248-1.62-.445-2.397a16.749 16.749 0 0 0-.444-2.39 15.641 15.641 0 0 0-.445-2.396 15.716 15.716 0 0 0-.445-2.39 15.545 15.545 0 0 0-.445-2.39 15.632 15.632 0 0 0-.437-2.397c-.09-.821-.241-1.62-.445-2.397a15.715 15.715 0 0 0-.445-2.39 15.813 15.813 0 0 0-.445-2.397 15.544 15.544 0 0 0-.445-2.39 14.891 14.891 0 0 0-.437-2.396 15.812 15.812 0 0 0-.445-2.397 15.544 15.544 0 0 0-.445-2.39 14.013 14.013 0 0 0-.444-2.397 14.717 14.717 0 0 0-.438-2.39 15.934 15.934 0 0 0-.308-1.824 17.96 17.96 0 0 0-1.727-.098H37.334c-.58 0-1.153.042-1.726.098a15.942 15.942 0 0 0-.316 1.824 16.733 16.733 0 0 0-.438 2.39 15.816 15.816 0 0 0-.444 2.397 16.46 16.46 0 0 0-.437 2.39c-.196.784-.362 1.575-.445 2.397a16.848 16.848 0 0 0-.445 2.397 16.541 16.541 0 0 0-.437 2.39 17.048 17.048 0 0 0-.445 2.396 16.927 16.927 0 0 0-.437 2.39 16.85 16.85 0 0 0-.445 2.397 16.837 16.837 0 0 0-.438 2.397 17.819 17.819 0 0 0-.444 2.39 18.043 18.043 0 0 0-.445 2.39 17.93 17.93 0 0 0-.445 2.397 16.928 16.928 0 0 0-.437 2.39 18.027 18.027 0 0 0-.445 2.396 16.927 16.927 0 0 0-.438 2.39c-.165.776-.323 1.575-.407 2.397z"/><path fill="url(#e)" d="M319.72 308.56a15.641 15.641 0 0 0-.445-2.397 15.987 15.987 0 0 0-.445-2.397 16.545 16.545 0 0 0-.437-2.382 15.716 15.716 0 0 0-.445-2.39 15.64 15.64 0 0 0-.445-2.397 17.027 17.027 0 0 0-.437-2.397 17.93 17.93 0 0 0-.445-2.39 16.665 16.665 0 0 0-.445-2.39 15.64 15.64 0 0 0-.445-2.396 15.545 15.545 0 0 0-.445-2.39 15.641 15.641 0 0 0-.445-2.397 15.703 15.703 0 0 0-.437-2.39c-.09-.821-.241-1.62-.445-2.397a15.715 15.715 0 0 0-.444-2.39 15.641 15.641 0 0 0-.445-2.396 15.545 15.545 0 0 0-.446-2.39 14.89 14.89 0 0 0-.437-2.397 15.716 15.716 0 0 0-.445-2.39 15.81 15.81 0 0 0-.444-2.397 13.707 13.707 0 0 0-.34-1.945 17.141 17.141 0 0 0-7.545-1.756H42.303c-2.707 0-5.27.64-7.546 1.756-.15.634-.279 1.282-.34 1.945a16.752 16.752 0 0 0-.436 2.397 16.944 16.944 0 0 0-.445 2.39 16.85 16.85 0 0 0-.445 2.397 16.541 16.541 0 0 0-.438 2.39 16.85 16.85 0 0 0-.445 2.397 16.927 16.927 0 0 0-.437 2.39 16.85 16.85 0 0 0-.445 2.396 16.928 16.928 0 0 0-.437 2.39 17.927 17.927 0 0 0-.445 2.397 17.817 17.817 0 0 0-.445 2.39 18.026 18.026 0 0 0-.445 2.397 16.928 16.928 0 0 0-.437 2.39 18.142 18.142 0 0 0-.445 2.389 17.03 17.03 0 0 0-.437 2.397 16.837 16.837 0 0 0-.437 2.397 18.143 18.143 0 0 0-.445 2.39 16.821 16.821 0 0 0-.438 2.382 18.154 18.154 0 0 0-.444 2.397 16.754 16.754 0 0 0-.437 2.397 17.598 17.598 0 0 0-.445 2.39 17.208 17.208 0 0 0-.527 4.168v5.918c0 9.513 7.711 17.217 17.217 17.217h261.17c9.513 0 17.217-7.704 17.217-17.217v-5.91c0-1.44-.196-2.834-.528-4.176-.068-.822-.226-1.613-.414-2.39z"/><path fill="url(#f)" d="M25.09 359.59c0 9.513 7.712 17.217 17.217 17.217h261.17c9.513 0 17.217-7.704 17.217-17.217v-44.483c0-9.513-7.704-17.217-17.217-17.217H42.307c-9.506 0-17.217 7.704-17.217 17.217z"/><path fill="url(#g)" d="M42.31 306.93c-4.523 0-8.201 3.679-8.201 8.201v44.484c0 4.522 3.678 8.201 8.201 8.201h261.17c4.523 0 8.201-3.679 8.201-8.201v-44.483c0-4.523-3.678-8.202-8.201-8.202z"/><path fill="url(#h)" d="M300.25 310.18c4.404 0 7.985 3.372 7.985 7.518v40.776c0 4.146-3.581 7.518-7.985 7.518H45.96c-4.404 0-7.985-3.372-7.985-7.518v-40.776c0-4.146 3.581-7.518 7.985-7.518z"/><path fill="url(#i)" d="M286.77 348.09c-5.737 0-10.214 3.694-10.214 8.413s4.485 8.412 10.214 8.412h6.068c5.73 0 10.214-3.694 10.214-8.412s-4.493-8.413-10.214-8.413z"/><path fill="url(#j)" d="M286.77 350.39c-4.395 0-7.968 2.767-7.968 6.159s3.573 6.15 7.968 6.15h6.068c4.395 0 7.96-2.758 7.96-6.15s-3.565-6.159-7.96-6.159z"/><path fill="url(#k)" d="M300.04 356.59c0 2.985-3.226 5.405-7.207 5.405h-6.068c-3.98 0-7.214-2.412-7.214-5.405 0-2.985 3.234-5.405 7.214-5.405h6.069c3.98 0 7.206 2.412 7.206 5.405z"/><path fill="url(#l)" d="M286.77 352.69c-3.098 0-5.714 1.87-5.714 4.086 0 2.223 2.616 4.093 5.714 4.093h6.068c3.09 0 5.707-1.87 5.707-4.093 0-2.217-2.616-4.086-5.707-4.086z"/><path fill="url(#m)" d="M286.53 351.79c-2.548 0-4.53 1.568-4.53 2.917 0 1.35 1.982 2.91 4.53 2.91h6.55c2.594 0 4.524-1.538 4.524-2.91 0-1.38-1.93-2.917-4.523-2.917z"/><g id="u"><g id="t"><path fill="url(#n)" fill-rule="evenodd" stroke="#dedede" stroke-opacity=".988" stroke-width="2.5" d="M61.28 317.77c-1.5 0-2.71 1.21-2.71 2.708v.675c0 .688-.539 1.274-1.276 1.274h-3.668c-1.499 0-2.71 1.65-2.71 3.148v15.119a2.707 2.707 0 0 0 2.71 2.708h20.091c1.5 0 2.71-1.21 2.71-2.708v-15.12c0-1.497-1.21-3.147-2.71-3.147H70.05a1.21 1.21 0 0 1-1.276-1.234v-.715a2.707 2.707 0 0 0-2.71-2.708z"/><path fill="none" d="M61.48 316.29c-2.603 0-4.656 2.13-4.838 4.692h-2.2c-2.719 0-4.985 2.266-4.985 4.985v13.782c0 2.72 2.266 4.985 4.985 4.985h18.474c2.72 0 4.985-2.266 4.985-4.985v-13.782c0-2.72-2.266-4.985-4.985-4.985h-2.2c-.182-2.562-2.235-4.692-4.838-4.692z"/><path fill="none" stroke="#e4e40d" stroke-linecap="round" stroke-width="3" d="M56.64 337.59v-4.692m4.69 4.692v-4.692m4.69 4.692v-4.692m4.69 4.692v-4.692"/><path fill="url(#o)" d="M62.15 346.59c-2.888 0-5.142 3.31-5.142 7.538s2.258 7.538 5.142 7.538h3.055c2.884 0 5.142-3.31 5.142-7.538s-2.262-7.538-5.142-7.538z"/><path fill="url(#p)" d="M62.15 348.59c-2.212 0-4.011 2.479-4.011 5.519s1.799 5.511 4.011 5.511h3.055c2.212 0 4.007-2.472 4.007-5.512s-1.795-5.518-4.007-5.518z"/><path fill="url(#q)" d="M68.83 354.09c0 2.675-1.624 4.843-3.628 4.843h-3.055c-2.004 0-3.632-2.161-3.632-4.843 0-2.675 1.628-4.843 3.632-4.843h3.055c2.004 0 3.628 2.161 3.628 4.843z"/><path fill="url(#r)" d="M62.15 350.59c-1.56 0-2.877 1.675-2.877 3.661 0 1.993 1.317 3.668 2.877 3.668h3.055c1.556 0 2.873-1.675 2.873-3.668 0-1.986-1.317-3.661-2.873-3.661z"/><path fill="url(#s)" d="M62.03 349.79c-1.283 0-2.28 1.405-2.28 2.614 0 1.21.997 2.607 2.28 2.607h3.298c1.305 0 2.277-1.378 2.277-2.607 0-1.236-.972-2.614-2.277-2.614z"/></g><use xlink:href="#t" transform="translate(32.6)"/></g><use xlink:href="#u" transform="translate(65.21)"/></svg>