<svg xmlns="http://www.w3.org/2000/svg" viewBox="0 0 37.02 22.28">
    <path fill="#0473e7" class="cls-1" d="M7.58,13.16h8.15a2,2,0,0,0,0-4H2a2,2,0,0,0,0,4Z"/>
    <path fill="#0473e7" d="M37,9.19H30.41v4H37"/>
    <path fill="#0473e7"
          d="M7.32,13.85l4.15,0v3A1.58,1.58,0,0,0,13,18.39H24.12a1.57,1.57,0,0,0,1.56-1.57V5.74a1.56,1.56,0,0,0-1.56-1.56H13a1.57,1.57,0,0,0-1.57,1.56V8.57H7.38V5.47A5.49,5.49,0,0,1,12.86,0H24.19a5.49,5.49,0,0,1,5.48,5.47V16.81a5.49,5.49,0,0,1-5.48,5.47H12.86a5.49,5.49,0,0,1-5.48-5.47v-3"/>
</svg>
