<?xml version="1.0" encoding="utf-8"?>
<!-- Generator: Adobe Illustrator 27.7.0, SVG Export Plug-In . SVG Version: 6.00 Build 0)  -->
<svg version="1.1" id="Layer_1" xmlns="http://www.w3.org/2000/svg" xmlns:xlink="http://www.w3.org/1999/xlink" x="0px" y="0px"
	 viewBox="0 0 512 512" style="enable-background:new 0 0 512 512;" xml:space="preserve">
<style type="text/css">
	.st0{fill:#D35400;}
	.st1{fill:#E67E22;}
	.st2{fill:#FFFFFF;}
</style>
<g transform="matrix(9.941784858703613, 0, 0, 9.941784858703613, 168.02456665039062, -10144.9716796875)">
	<g>
		<path class="st0" d="M-11.8,1020.4c-2.8,0-5.1,2.3-5.1,5.1v41.2c0,2.8,2.3,5.2,5.1,5.2h41.2c2.8,0,5.1-2.3,5.1-5.2v-41.2
			c0-2.8-2.3-5.1-5.1-5.1H-11.8z"/>
		<path class="st1" d="M-11.8,1020.4c-2.8,0-5.1,2.2-5.1,4.9v39.6c0,2.7,2.3,4.9,5.1,4.9h41.2c2.8,0,5.2-2.2,5.2-4.9v-39.6
			c0-2.7-2.3-4.9-5.2-4.9H-11.8z"/>
	</g>
	<g>
		<g transform="matrix(1, 0, 0, 1, 2.816392, 0)">
			<path class="st0" d="M25.8,1069.9l-6.4-0.1l-11.5-19.3c-0.1,0-0.2,0-0.3,0c-0.1,0-0.3,0-0.5,0c-0.2,0-0.6,0-1,0c-0.5,0-1,0-1.8,0
				v-4.4h3.4c0.7,0,1.5-0.1,2.2-0.4c0.7-0.3,1.4-0.7,2-1.2c0.6-0.6,1.1-1.4,1.5-2.4c0.4-1,0.6-2.3,0.6-3.8c0-0.6-0.1-1.3-0.3-2.1
				c-0.2-0.8-0.5-1.5-1-2.3c-0.5-0.7-1.2-1.3-2.2-1.8s-2.2-0.7-3.7-0.7l0.1-4.6c1.6,0,3.1,0.3,4.7,0.8c1.5,0.5,2.9,1.3,4.1,2.3
				c1.2,1,2.2,2.2,3,3.6c0.8,1.4,1.1,3,1.1,4.8c0,2.7-0.6,5-1.9,6.8c-1.2,1.9-2.9,3.3-5,4.2L25.8,1069.9L25.8,1069.9z"/>
			<path class="st2" d="M26.8,1069.9l-6.4-0.1l-11.5-19.3c-0.1,0-0.2,0-0.3,0c-0.1,0-0.3,0-0.5,0c-0.2,0-0.6,0-1,0c-0.5,0-1,0-1.8,0
				v-4.4h3.4c0.7,0,1.5-0.1,2.2-0.4c0.7-0.3,1.4-0.7,2-1.2c0.6-0.6,1.1-1.4,1.5-2.4c0.4-1,0.6-2.3,0.6-3.8c0-0.6-0.1-1.3-0.3-2.1
				c-0.2-0.8-0.5-1.5-1-2.3c-0.5-0.7-1.2-1.3-2.2-1.8c-0.9-0.5-2.2-0.7-3.7-0.7l-27.5,0v-4.6l27.6,0c1.6,0,3.1,0.3,4.7,0.8
				s2.9,1.3,4.1,2.3c1.2,1,2.2,2.2,3,3.6c0.8,1.4,1.1,3,1.1,4.8c0,2.7-0.6,5-1.9,6.8c-1.2,1.9-2.9,3.3-5,4.2L26.8,1069.9
				L26.8,1069.9z"/>
		</g>
		<g transform="matrix(1, 0, 0, 1, 2.816392, -1.808975)">
			<path class="st0" d="M-5.3,1035.1h6l0,36.6h-6V1035.1z"/>
			<path class="st2" d="M-4.3,1035.1h6l0,36.6h-6V1035.1z"/>
		</g>
	</g>
</g>
</svg>
