<svg xmlns="http://www.w3.org/2000/svg" viewBox="0 0 48 48"><defs><linearGradient id="a" x1="23.299" x2="24.13" y1="47.874" y2=".989" gradientUnits="userSpaceOnUse"><stop stop-color="#197cf1"/><stop offset="1" stop-color="#21c9fb"/></linearGradient></defs><circle cx="24" cy="24" r="24" fill="url(#a)"/><path fill="#ecf0f1" d="m29.295 35.989-5.124-10.057c-.316.044-.641.076-.978.097a15.882 15.882 0 0 1-2.246-.018 31.562 31.562 0 0 1-1.284-.13v8.266l3.678 1.171v.668h-9.664v-.668l2.993-1.171V13.823l-2.993-1.172v-.667h9.16c1.41 0 2.662.162 3.757.487 1.095.316 2.02.765 2.766 1.352a5.74 5.74 0 0 1 1.724 2.116c.39.815.584 1.718.584 2.72 0 1.463-.38 2.765-1.14 3.904-.749 1.128-1.859 1.99-3.335 2.586l4.735 9.243 2.391.926v.668h-5.027m-5.986-22.293H19.66v10.462c.446.053.862.097 1.252.13.401.02.79.032 1.172.032 4.185 0 6.281-1.8 6.281-5.402 0-1.748-.434-3.052-1.302-3.92-.867-.868-2.12-1.302-3.757-1.302"/></svg>