<svg xmlns="http://www.w3.org/2000/svg" xmlns:xlink="http://www.w3.org/1999/xlink" width="610" height="524" version="1.1" viewBox="0 0 610 524"><title>RTL-Logo-Single</title><desc>Created with Sketch.</desc><defs><polygon id="path-1" points=".452 .257 52.68 .257 52.68 52 .452 52"/></defs><g id="RTL-Logo-Single" fill="none" fill-rule="evenodd" stroke="none" stroke-width="1"><g id="BY_-_RTL_logo_wht" transform="translate(58.000000, 54.000000)"><g id="Group-3" fill="#FFFFFE" transform="translate(0.000000, 0.737000)"><path id="Fill-1" d="M360.6201,52.8608 C362.5721,57.4638 363.3541,61.1008 363.2471,63.1018 C355.6871,58.5468 344.3161,54.6748 338.1131,53.5648 C334.0751,52.8408 347.2931,49.6338 360.6201,52.8608 M371.6051,222.1978 C373.9431,221.7028 376.2931,221.2298 378.6451,220.7688 C381.1041,220.2858 383.5691,219.8228 386.0431,219.3858 C384.0591,218.1358 382.0681,216.8978 380.0641,215.6788 C354.6091,200.1908 327.4751,187.0398 300.6651,174.3118 C283.7451,166.2788 266.5131,158.2938 248.9661,151.0968 C264.2721,130.9078 283.8701,113.7738 304.8171,99.0968 C304.8351,99.0848 304.9201,99.0258 305.0521,98.9328 C309.6371,105.1898 315.4331,109.4478 318.3391,111.0478 C324.0201,114.1778 331.1751,117.1028 337.7531,117.9968 C350.6891,119.7558 361.3701,119.4848 373.1871,117.4478 C374.2521,117.2648 375.3251,117.1348 376.3931,116.9568 C383.9711,115.6898 388.8201,115.4978 393.2591,115.4148 C399.1381,115.3048 402.0501,116.5498 402.7421,116.7298 C404.8421,117.2728 406.6271,118.1718 407.6191,119.3778 C408.7711,120.8458 410.0021,122.2308 411.3211,123.4988 C415.2771,127.4358 419.2051,129.6158 424.9041,130.2408 C432.2391,131.0448 437.4311,128.1758 441.1021,123.4128 C442.8361,121.1638 442.0011,117.6318 441.8111,116.9388 C440.8481,113.3958 438.6251,108.2418 437.0161,103.4438 C436.5991,102.2038 434.5781,98.3918 432.1461,95.8048 C431.3431,94.9488 430.5351,94.0948 429.7281,93.2418 C425.9511,89.2468 422.1441,85.2818 418.3701,81.2898 C403.3111,65.3718 386.9861,50.7158 370.1561,36.7028 C368.4121,35.2508 366.6651,33.7948 364.9151,32.3418 C363.6461,31.2868 362.3721,30.2378 361.1001,29.1868 C360.4531,28.6528 359.8071,28.1198 359.1581,27.5868 C357.7891,26.4608 356.4161,25.3428 355.0401,24.2258 C354.4971,23.7858 353.9521,23.3488 353.4081,22.9098 C352.5511,22.2198 350.5951,20.5728 348.9481,19.2538 C354.4071,13.8118 358.8121,10.4238 366.6311,5.3008 C367.7521,4.5668 373.7921,1.3448 373.5791,0.5268 C373.4511,0.0328 363.5341,0.1448 352.1711,1.6088 C348.1791,2.1228 325.8041,5.4268 310.4411,8.7748 C294.0871,12.3378 276.8181,17.3188 260.9121,22.3258 C214.9671,36.7898 171.0961,56.3918 130.9221,83.0318 C107.8341,98.3418 86.2221,115.2368 65.3621,133.4398 C55.6411,141.9208 45.9791,150.5378 36.5451,159.3928 C35.0671,160.7798 33.6011,162.1788 32.1351,163.5788 C34.1441,163.9548 36.1521,164.3478 38.1561,164.7598 C54.7691,168.1718 71.2001,172.7318 87.1751,177.2978 C106.7131,182.8818 126.4791,188.9018 145.5921,196.2918 C134.7011,206.6528 124.0761,217.2688 113.9611,228.5028 C94.9141,249.6538 77.1581,271.9988 60.5891,295.1368 C38.9991,325.2848 20.5681,357.7988 4.5021,391.3058 C2.9801,394.4758 1.4761,397.6528 0.0001,400.8388 C2.9721,398.4598 5.9621,396.1018 8.9741,393.7648 C34.9841,373.5938 62.4081,354.9428 89.7891,336.9238 C128.3171,311.5688 169.6651,290.6218 212.5711,273.7668 C264.2991,253.4468 317.1251,233.7338 371.6051,222.1978"/></g><g id="Group-24" transform="translate(172.000000, 352.737000)"><mask id="mask-2" fill="#fff"><use xlink:href="#path-1"/></mask></g></g></g></svg>