<svg xmlns="http://www.w3.org/2000/svg" xmlns:xlink="http://www.w3.org/1999/xlink" version="1.1" id="Layer_1" x="0px" y="0px" style="enable-background:new 0 0 512 512;" xml:space="preserve" viewBox="0 13.88 512.01 484.23">
<g transform="translate(0.000000,256.000000) scale(0.100000,-0.100000)">
	<path d="M2353,2396.7c-181.3-61.4-276.2-120-385-239.9c-106-117.2-186.9-279-186.9-371c0-33.5-33.5-67-94.9-92.1   c-329.2-139.5-446.4-507.7-256.7-797.9c92.1-136.7,256.7-217.6,443.6-220.4h131.1V549.9V424.3h-318c-412.9,0-491,41.8-571.9,292.9   c-75.3,237.1-94.9,496.6-58.6,725.3c33.5,217.6,145.1,449.2,226,468.7c58.6,16.7,69.7,89.3,19.5,120   c-50.2,30.7-203.7-159-273.4-340.4c-89.3-234.3-92.1-725.3-2.8-982c53-153.4,55.8-189.7,25.1-273.4   c-30.7-83.7-27.9-103.2,27.9-175.8C1189.7,109.1,1164.6,70,952.6,53.3C645.7,31,662.4,97.9,670.8-1115.6l8.4-1026.6H550.8   c-120,0-220.4-55.8-220.4-125.5c0-11.2-19.5-36.3-47.4-55.8c-128.3-94.9-39.1-97.6,2293.2-97.6c2072.8,0,2296,5.6,2312.7,44.6   c11.2,30.7-2.8,50.2-39.1,58.6c-30.7,8.4-55.8,36.3-55.8,61.4c0,80.9-61.4,114.4-217.6,114.4c-133.9,0-147.9,5.6-128.3,50.2   c13.9,25.1,25.1,491,25.1,1029.4c0,976.4,0,984.8-61.4,1046.2c-47.4,44.6-106,64.2-231.6,72.5C4026.9,67.3,4013,72.8,4013,134.2   c0,36.3,25.1,92.1,55.8,122.8c64.2,64.2,69.7,136.7,16.7,209.2c-30.7,44.6-30.7,67,13.9,167.4c72.5,164.6,117.2,499.4,97.6,717   c-19.5,214.8-114.4,493.8-173,516.1c-69.7,25.1-72.5-8.4-13.9-125.5c131.1-253.9,142.3-675.1,27.9-1018.3   c-86.5-262.2-159-298.5-585.9-298.5h-332v125.5v125.5h136.7c75.3,0,173,13.9,217.6,30.7c94.9,36.3,223.2,153.4,276.2,253.9   c47.4,89.3,50.2,320.8,8.4,432.4c-39.1,108.8-186.9,253.9-290.1,287.3c-69.7,22.3-92.1,50.2-120,156.2   c-64.2,237.1-234.3,424-491,535.6C2738,2424.6,2478.6,2438.6,2353,2396.7z M2858,2265.6c192.5-83.7,401.7-334.8,401.7-485.4   c0-22.3-39.1-53-83.7-69.7c-78.1-25.1-92.1-19.5-206.4,92.1c-228.8,228.8-571.9,234.3-806.3,13.9c-100.4-97.6-125.5-106-209.2-92.1   c-86.5,16.7-94.9,25.1-78.1,100.4c22.3,120,167.4,315.2,287.3,387.8C2386.5,2352.1,2620.9,2368.8,2858,2265.6z M2835.7,1802.5   c41.8-33.5,106-103.2,142.3-159c61.4-94.9,69.7-97.6,125.5-61.4c198.1,142.3,566.3-64.2,594.2-332c19.5-159-25.1-270.6-150.6-379.4   l-94.9-83.7h-889.9h-892.7l-108.8,108.8c-186.9,186.9-181.3,443.6,11.2,613.8c111.6,97.6,186.9,122.8,323.6,108.8   c89.3-8.4,94.9-13.9,94.9-111.6c0-139.5,44.6-136.7,86.5,8.4c39.1,131.1,153.4,265,276.2,320.8   C2473,1891.8,2738,1872.3,2835.7,1802.5z M2464.6,600.1c58.6-69.7,67-106,69.7-304.1V67.3l-239.9-8.4   c-226-11.2-242.7-16.7-312.5-94.9c-44.6-53-75.3-69.7-83.7-47.4c-19.5,64.2-92.1,117.2-161.8,120c-36.3,2.8-92.1,8.4-122.8,11.2   c-30.7,2.8-131.1,8.4-223.2,11.2c-150.6,2.8-167.4,8.4-167.4,61.4c0,30.7,36.3,94.9,80.9,139.5c80.9,80.9,83.7,80.9,432.4,80.9   H2088V508v167.4h153.4C2375.4,675.4,2406,664.3,2464.6,600.1z M2609.7,658.7c-8.4-8.4-33.5-11.2-53-2.8   c-22.3,8.4-13.9,16.7,16.7,16.7C2604.1,675.4,2620.9,667.1,2609.7,658.7z M3042.1,516.4l8.4-161.8l359.9-8.4   c337.6-5.6,365.5-11.2,421.3-72.5c33.5-36.3,69.7-100.4,80.9-139.5l16.7-72.5h-245.5c-281.8,0-412.9-36.3-438-114.4   c-16.7-53-22.3-53-83.7,13.9c-67,72.5-189.7,106-348.7,97.6c-203.7-11.2-195.3-22.3-195.3,242.7c0,320.8,36.3,371,256.7,373.8h159   L3042.1,516.4z M1245.5,385.3c16.7-80.9-41.8-120-97.6-67c-39.1,39.1-39.1,55.8-8.4,92.1C1184.1,463.4,1234.3,452.2,1245.5,385.3z    M4013,407.6c30.7-33.5,27.9-50.2-8.4-89.3c-44.6-41.8-50.2-41.8-94.9,0c-36.3,39.1-39.1,55.8-8.4,89.3   c19.5,25.1,44.6,44.6,55.8,44.6S3993.4,432.7,4013,407.6z M1809-102.9c39.1-75.3,39.1-1883.1,0-1958.4c-27.9-50.2-64.2-53-510.5-53   c-337.6,0-493.8,11.2-516.1,33.5c-47.4,47.4-47.4,1950.1,0,1997.5c22.3,22.3,178.5,33.5,516.1,33.5   C1744.9-49.9,1781.1-52.7,1809-102.9z M3086.8-83.4c47.4-47.4,47.4-1950.1,0-1997.5s-1001.5-47.4-1049,0   c-47.4,47.4-47.4,1950.1,0,1997.5C2085.2-36,3039.3-36,3086.8-83.4z M4370.1-1051.5c5.6-705.8-2.8-998.7-25.1-1023.9   c-41.8-53-973.6-55.8-1023.9-5.6c-47.4,47.4-47.4,1950.1,0,1997.5c25.1,25.1,170.2,33.5,538.4,27.9l502.2-8.4L4370.1-1051.5z    M4702-2273.4c11.2-27.9-440.8-36.3-2125.8-41.8c-1177.3-5.6-2145.4,0-2153.7,13.9c-5.6,11.2-2.8,33.5,5.6,47.4   C456-2209.2,4688.1-2228.7,4702-2273.4z"/>
	<path d="M2182.9,1275.2c-22.3-58.6,5.6-125.5,53-125.5c58.6,0,106,69.7,86.5,122.8C2300,1328.2,2202.4,1331,2182.9,1275.2z"/>
	<path d="M2506.5,1275.2c-30.7-36.3-30.7-53,8.4-89.3c58.6-58.6,136.7-25.1,125.5,53S2556.7,1336.6,2506.5,1275.2z"/>
	<path d="M2824.5,1278c-25.1-67,11.2-133.9,64.2-122.8c67,11.2,67,145.1,0,156.2C2863.6,1317.1,2832.9,1300.3,2824.5,1278z"/>
	<path d="M963.7-206.1c-47.4-50.2,39.1-67,318-67c251.1,0,304.1,8.4,304.1,41.8s-53,41.8-301.3,41.8   C1117.2-189.4,972.1-197.8,963.7-206.1z"/>
	<path d="M849.3-429.3c-53-53-61.4-318-11.2-368.3c22.3-22.3,164.6-33.5,460.3-33.5c482.6,0,482.6,0,482.6,231.6   c0,200.9-33.5,214.8-496.6,214.8C966.5-384.7,885.6-393.1,849.3-429.3z M1691.9-613.5l8.4-106h-404.5H888.4v111.6v114.4l398.9-8.4   l396.2-8.4L1691.9-613.5z"/>
	<path d="M972.1-1012.4c0-33.5,53-41.8,306.9-41.8s306.9,8.4,306.9,41.8s-53,41.8-306.9,41.8S972.1-978.9,972.1-1012.4z"/>
	<path d="M866.1-1210.5c-50.2-33.5-61.4-69.7-61.4-189.7c0-78.1,13.9-159,30.7-175.8c22.3-22.3,22.3-36.3,0-47.4   c-41.8-27.9-39.1-304.1,2.8-345.9c47.4-47.4,862-47.4,909.5,0c41.8,41.8,44.6,256.7,5.6,329.2c-19.5,36.3-19.5,58.6,0,69.7   c13.9,8.4,27.9,83.7,27.9,167.4c0,220.4-33.5,237.1-488.2,237.1C1008.4-1165.8,916.3-1174.2,866.1-1210.5z M1691.9-1386.2   c5.6-55.8-5.6-103.2-27.9-117.2c-41.8-27.9-664-33.5-730.9-8.4c-44.6,16.7-64.2,178.5-25.1,217.6c11.2,8.4,189.7,13.9,396.2,11.2   l379.4-8.4L1691.9-1386.2z M1652.8-1684.7c27.9-11.2,44.6-50.2,44.6-111.6c0-120-27.9-128.3-460.3-117.2l-334.8,8.4L894-1827   c-19.5,156.2-8.4,159,368.3,159C1451.9-1668,1627.7-1676.4,1652.8-1684.7z"/>
	<path d="M2247-206.1c-55.8-55.8,8.4-67,309.7-61.4c192.5,5.6,326.4,19.5,326.4,36.3C2883.1-200.6,2277.7-175.5,2247-206.1z"/>
	<path d="M2115.9-440.5c-75.3-75.3-78.1-279-5.6-343.1c44.6-39.1,120-47.4,468.7-47.4c287.3,0,429.6,11.2,451.9,33.5   c19.5,19.5,33.5,97.6,33.5,175.8c0,226-25.1,237.1-496.6,237.1C2208-384.7,2166.1-390.3,2115.9-440.5z M2975.2-616.2l8.4-106   l-412.9,8.4c-407.3,8.4-412.9,8.4-421.3,72.5c-22.3,142.3-8.4,147.9,418.5,139.5l398.9-8.4L2975.2-616.2z"/>
	<path d="M2247-987.3c-55.8-55.8,8.4-67,309.7-61.4c192.5,5.6,326.4,19.5,326.4,36.3C2883.1-981.7,2277.7-956.6,2247-987.3z"/>
	<path d="M2143.8-1202.1c-55.8-27.9-72.5-58.6-78.1-159c-5.6-67,5.6-150.6,25.1-186.9c27.9-50.2,27.9-72.5,2.8-97.6   c-41.8-41.8-44.6-228.8-5.6-304.1c27.9-50.2,64.2-53,468.7-53c306.9,0,451.9,11.2,474.3,33.5c41.8,41.8,44.6,256.7,5.6,329.2   c-19.5,36.3-19.5,58.6,0,69.7c13.9,8.4,27.9,83.7,27.9,167.4c0,220.4-33.5,237.1-488.2,237.1   C2341.9-1165.8,2188.4-1179.8,2143.8-1202.1z M2975.2-1386.2c5.6-55.8-5.6-103.2-27.9-117.2c-58.6-39.1-730.9-30.7-770,8.4   c-36.3,36.3-44.6,167.4-13.9,200.9c11.2,8.4,195.3,13.9,410.1,11.2l393.4-8.4L2975.2-1386.2z M2966.8-1793.5v-111.6l-373.8-8.4   c-393.4-8.4-449.2,5.6-449.2,117.2c0,117.2,44.6,131.1,446.4,122.8l376.6-8.4V-1793.5z"/>
	<path d="M3510.8-231.3c0-36.3,44.6-41.8,315.2-36.3c184.1,5.6,312.5,19.5,312.5,36.3s-128.3,30.7-312.5,36.3   C3555.4-189.4,3510.8-195,3510.8-231.3z"/>
	<path d="M3393.6-415.4c-39.1-22.3-50.2-64.2-50.2-186.9c0-89.3,13.9-175.8,33.5-195.3c47.4-47.4,862-47.4,909.5,0   c19.5,19.5,33.5,97.6,33.5,175.8c0,226-25.1,237.1-491,237.1C3616.8-384.7,3418.7-398.6,3393.6-415.4z M4230.6-613.5l8.4-106   h-404.5h-407.3v92.1c0,53,8.4,103.2,19.5,114.4c11.2,8.4,189.7,13.9,396.2,11.2l379.4-8.4L4230.6-613.5z"/>
	<path d="M3530.3-987.3c-53-53,5.6-67,304.1-67c245.5,0,320.8,8.4,312.5,36.3C4132.9-981.7,3566.6-953.8,3530.3-987.3z"/>
	<path d="M3404.8-1210.5c-50.2-33.5-61.4-69.7-61.4-189.7c0-78.1,13.9-159,30.7-175.8c22.3-22.3,22.3-36.3,0-47.4   c-41.8-27.9-39.1-304.1,2.8-345.9c22.3-22.3,167.4-33.5,471.5-33.5c373.8,0,440.8,5.6,454.7,44.6c25.1,69.7,19.5,259.5-11.2,318   c-19.5,36.3-19.5,58.6,0,69.7c13.9,8.4,27.9,83.7,27.9,167.4c0,220.4-33.5,237.1-488.2,237.1   C3547.1-1165.8,3455-1174.2,3404.8-1210.5z M4230.6-1394.6c11.2-131.1-11.2-139.5-454.7-128.3l-334.8,8.4l-8.4,78.1   c-19.5,159-13.9,161.8,404.5,153.4l385-8.4L4230.6-1394.6z M4222.2-1793.5v-111.6h-390.6h-390.6l-8.4,78.1   c-19.5,159-13.9,161.8,404.5,153.4l385-8.4V-1793.5z"/>
	<path d="M3817.7,2000.6c-27.9-30.7-27.9-53-5.6-75.3c41.8-41.8,122.8-5.6,111.6,53C3912.5,2042.4,3862.3,2053.6,3817.7,2000.6z"/>
	<path d="M562,1339.4c-142.3-69.7-139.5-295.7,5.6-362.7c161.8-72.5,332,92.1,265,253.9c-16.7,44.6-64.2,92.1-100.4,111.6   C651.3,1378.5,642.9,1378.5,562,1339.4z M735,1166.4c0-47.4-19.5-92.1-50.2-111.6c-41.8-25.1-61.4-19.5-103.2,33.5   c-72.5,89.3-30.7,181.3,78.1,167.4C721,1250.1,735,1233.4,735,1166.4z"/>
	<path d="M4403.5,1336.6c-39.1-19.5-78.1-72.5-94.9-125.5c-50.2-181.3,147.9-320.8,306.9-214.8c97.6,64.2,94.9,239.9-5.6,318   C4523.5,1381.2,4498.4,1384,4403.5,1336.6z M4587.7,1188.8c19.5-72.5-27.9-150.6-89.3-150.6c-19.5,0-58.6,33.5-86.5,72.5   c-44.6,72.5-44.6,75.3,13.9,125.5C4504,1297.6,4565.3,1278,4587.7,1188.8z"/>
	<path d="M587.1,600.1c5.6-27.9,27.9-50.2,50.2-50.2s44.6,22.3,50.2,50.2c5.6,33.5-8.4,47.4-50.2,47.4S581.5,633.6,587.1,600.1z"/>
	<path d="M4663,326.7c-39.1-30.7-44.6-50.2-19.5-89.3c47.4-78.1,133.9-64.2,145.1,22.3C4799.7,349,4738.3,379.7,4663,326.7z"/>
	<path d="M202.1-144.8c-27.9-72.5,11.2-133.9,78.1-122.8c47.4,5.6,64.2,27.9,64.2,78.1s-16.7,72.5-64.2,78.1   C244-105.7,210.5-119.7,202.1-144.8z"/>
	<path d="M4774.6-878.5c-50.2-19.5-44.6-145.1,8.4-167.4c64.2-25.1,142.3,64.2,106,122.8C4855.5-870.1,4824.8-856.2,4774.6-878.5z"/>
	<path d="M216.1-1126.8c-44.6-55.8,0-136.7,75.3-136.7c97.6,0,78.1,178.5-19.5,181.3C260.7-1082.1,238.4-1101.7,216.1-1126.8z"/>
	<path d="M6.8-2340.3c-27.9-47.4,36.3-100.4,75.3-61.4c33.5,33.5,11.2,92.1-30.7,92.1C37.5-2309.6,18-2323.6,6.8-2340.3z"/>
	<path d="M5028.5-2340.3c-27.9-47.4,36.3-100.4,75.3-61.4c33.5,33.5,11.2,92.1-30.7,92.1C5059.1-2309.6,5039.6-2323.6,5028.5-2340.3   z"/>
</g>
</svg>