<svg xmlns="http://www.w3.org/2000/svg" xmlns:xlink="http://www.w3.org/1999/xlink" version="1.1" id="Layer_1" x="0px" y="0px" style="enable-background:new 0 0 512 512;" xml:space="preserve" viewBox="28.3 0 455.4 512.1">
<style type="text/css">
	.st0{clip-path:url(#SVGID_00000042729002630760173440000010811066528432309406_);}
	.st1{fill:#9B592C;}
	.st2{fill:#FF8533;}
	.st3{fill:#DC5800;}
</style>
<g>
	<g>
		<defs>
			<rect id="SVGID_1_" x="28.3" width="455.3" height="512"/>
		</defs>
		<clipPath id="SVGID_00000001624670604833432010000001191098203330620312_">
			<use xlink:href="#SVGID_1_" style="overflow:visible;"/>
		</clipPath>
		<g style="clip-path:url(#SVGID_00000001624670604833432010000001191098203330620312_);">
			<path class="st1" d="M477.8,127.9c3.9,6.8,5.8,14.2,5.9,21.5v62.9l-151.8,87.5v87.6l151.8-87.5v62.5c0,15-7.9,29.6-21.8,37.7     l-150,86.5L278,506.1c-6.5,3.8-14,5.9-21.9,5.9V256L477.8,127.9z"/>
			<path class="st2" d="M34.2,127.9c4-7,9.7-12.4,16.3-16.1L190.6,31l43.7-25.2C240.6,2.1,248.1,0,256,0c7.9,0,15.3,2.1,21.7,5.8     l159.2,91.8l24.7,14.2c6.6,3.7,12.3,9.2,16.3,16.1l-70,40.6L256,80.8l-75.9,43.8L332,212.2L256.1,256L34.2,127.9z"/>
			<path class="st3" d="M34.2,127.9c-3.9,6.8-5.9,14.2-5.9,21.5v62.9l151.8,87.5v87.6L28.3,299.9v62.5c0,15,7.9,29.6,21.8,37.7     l150.1,86.5l33.9,19.6c6.5,3.8,14,5.9,21.9,5.9V256L34.2,127.9z"/>
		</g>
	</g>
</g>
</svg>