<svg xmlns="http://www.w3.org/2000/svg" xmlns:xlink="http://www.w3.org/1999/xlink" id="Layer_1" x="0" y="0" version="1.1" viewBox="0 0 133.4 142.3" style="enable-background:new 0 0 133.4 142.3" xml:space="preserve"><style type="text/css">.st0{clip-path:url(#SVGID_2_);fill:url(#SVGID_3_)}.st1{fill:url(#SVGID_4_)}.st1,.st2,.st3,.st4,.st5{clip-path:url(#SVGID_2_)}.st2{fill:url(#SVGID_5_)}.st3{fill:url(#SVGID_6_)}.st4{fill:url(#SVGID_7_)}.st5{fill:url(#SVGID_8_)}.st10{clip-path:url(#SVGID_2_)}.st6{fill:url(#SVGID_9_)}.st6,.st7,.st8,.st9{clip-path:url(#SVGID_2_)}.st7{fill:url(#SVGID_10_)}.st8{fill:url(#SVGID_11_)}.st9{fill:url(#SVGID_12_)}.st10{fill:url(#SVGID_13_)}.st11{fill:url(#SVGID_14_)}.st11,.st12,.st13,.st14,.st15{clip-path:url(#SVGID_2_)}.st12{fill:url(#SVGID_15_)}.st13{fill:url(#SVGID_16_)}.st14{fill:url(#SVGID_17_)}.st15{fill:url(#SVGID_18_)}.st16{fill:url(#SVGID_19_)}.st16,.st17,.st18,.st19,.st20{clip-path:url(#SVGID_2_)}.st17{fill:url(#SVGID_20_)}.st18{fill:url(#SVGID_21_)}.st19{fill:url(#SVGID_22_)}.st20{fill:url(#SVGID_23_)}.st21{fill:url(#SVGID_24_)}.st21,.st22,.st23,.st24,.st25{clip-path:url(#SVGID_2_)}.st22{fill:url(#SVGID_25_)}.st23{fill:url(#SVGID_26_)}.st24{fill:url(#SVGID_27_)}.st25{fill:url(#SVGID_28_)}</style><g><g><defs><polyline id="SVGID_1_" points="6.5 6.5 131.1 6.5 131.1 134.9 6.5 134.9 6.5 6.5"/></defs><clipPath id="SVGID_2_"><use xlink:href="#SVGID_1_" style="overflow:visible"/></clipPath><linearGradient id="SVGID_3_" x1="0" x2="1" y1=".076" y2=".076" gradientTransform="matrix(-140.3131 140.3131 140.3131 140.3131 137.5244 -1.2847)" gradientUnits="userSpaceOnUse"><stop offset="0" style="stop-color:#fff"/><stop offset=".033" style="stop-color:#f1f1f1"/><stop offset=".168" style="stop-color:#bfbfbf"/><stop offset=".305" style="stop-color:#939393"/><stop offset=".442" style="stop-color:#6f6f6f"/><stop offset=".58" style="stop-color:#535353"/><stop offset=".718" style="stop-color:#404040"/><stop offset=".858" style="stop-color:#343434"/><stop offset="1" style="stop-color:#303030"/></linearGradient><polyline points="131.1 25.6 125.8 25.6 125.8 27.7 125.3 27.7 125.3 32.9 130.5 32.9 130.5 30.9 131.1 30.9 131.1 25.6" class="st0"/><linearGradient id="SVGID_4_" x1="0" x2="1" y1="-.131" y2="-.131" gradientTransform="matrix(-140.3131 140.3131 140.3131 140.3131 137.5244 -1.2847)" gradientUnits="userSpaceOnUse"><stop offset="0" style="stop-color:#fff"/><stop offset=".033" style="stop-color:#f1f1f1"/><stop offset=".168" style="stop-color:#bfbfbf"/><stop offset=".305" style="stop-color:#939393"/><stop offset=".442" style="stop-color:#6f6f6f"/><stop offset=".58" style="stop-color:#535353"/><stop offset=".718" style="stop-color:#404040"/><stop offset=".858" style="stop-color:#343434"/><stop offset="1" style="stop-color:#303030"/></linearGradient><polyline points="40.5 49.4 35.8 49.4 35.3 49.4 30.5 49.4 30.5 54.1 30.5 54.6 30.5 59.4 30.5 64.1 30.5 68.9 35.3 68.9 35.8 68.9 40.5 68.9 45.3 68.9 50 68.9 50 63.7 50 58.9 45.3 58.9 45.3 54.1 40.5 54.1 40.5 49.4" class="st1"/><linearGradient id="SVGID_5_" x1="0" x2="1" y1="-.155" y2="-.155" gradientTransform="matrix(-140.3131 140.3131 140.3131 140.3131 137.5244 -1.2847)" gradientUnits="userSpaceOnUse"><stop offset="0" style="stop-color:#fff"/><stop offset=".033" style="stop-color:#f1f1f1"/><stop offset=".168" style="stop-color:#bfbfbf"/><stop offset=".305" style="stop-color:#939393"/><stop offset=".442" style="stop-color:#6f6f6f"/><stop offset=".58" style="stop-color:#535353"/><stop offset=".718" style="stop-color:#404040"/><stop offset=".858" style="stop-color:#343434"/><stop offset="1" style="stop-color:#303030"/></linearGradient><polyline points="72.6 20.1 67.4 20.1 67.4 25.4 72.6 25.4 72.6 20.1" class="st2"/><linearGradient id="SVGID_6_" x1="0" x2="1" y1="-.134" y2="-.134" gradientTransform="matrix(-140.3131 140.3131 140.3131 140.3131 137.5244 -1.2847)" gradientUnits="userSpaceOnUse"><stop offset="0" style="stop-color:#fff"/><stop offset=".033" style="stop-color:#f1f1f1"/><stop offset=".168" style="stop-color:#bfbfbf"/><stop offset=".305" style="stop-color:#939393"/><stop offset=".442" style="stop-color:#6f6f6f"/><stop offset=".58" style="stop-color:#535353"/><stop offset=".718" style="stop-color:#404040"/><stop offset=".858" style="stop-color:#343434"/><stop offset="1" style="stop-color:#303030"/></linearGradient><polyline points="46.7 46.8 41.5 46.8 41.5 52 46.7 52 46.7 57.3 51.9 57.3 51.9 52 46.7 52 46.7 46.8" class="st3"/><linearGradient id="SVGID_7_" x1="0" x2="1" y1="-.063" y2="-.063" gradientTransform="matrix(-140.3131 140.3131 140.3131 140.3131 137.5244 -1.2847)" gradientUnits="userSpaceOnUse"><stop offset="0" style="stop-color:#fff"/><stop offset=".033" style="stop-color:#f1f1f1"/><stop offset=".168" style="stop-color:#bfbfbf"/><stop offset=".305" style="stop-color:#939393"/><stop offset=".442" style="stop-color:#6f6f6f"/><stop offset=".58" style="stop-color:#535353"/><stop offset=".718" style="stop-color:#404040"/><stop offset=".858" style="stop-color:#343434"/><stop offset="1" style="stop-color:#303030"/></linearGradient><polyline points="61.1 43 55.9 43 55.9 48.3 55.9 52.5 55.9 53 55.9 57.3 55.9 57.8 55.9 62.5 60.7 62.5 61.1 62.5 65.4 62.5 65.9 62.5 70.7 62.5 70.7 62.5 75.4 62.5 75.4 57.3 70.7 57.3 70.7 52.5 65.9 52.5 65.9 47.8 61.1 47.8 61.1 43" class="st4"/><linearGradient id="SVGID_8_" x1="0" x2="1" y1="-.105" y2="-.105" gradientTransform="matrix(-140.3131 140.3131 140.3131 140.3131 137.5244 -1.2847)" gradientUnits="userSpaceOnUse"><stop offset="0" style="stop-color:#fff"/><stop offset=".033" style="stop-color:#f1f1f1"/><stop offset=".168" style="stop-color:#bfbfbf"/><stop offset=".305" style="stop-color:#939393"/><stop offset=".442" style="stop-color:#6f6f6f"/><stop offset=".58" style="stop-color:#535353"/><stop offset=".718" style="stop-color:#404040"/><stop offset=".858" style="stop-color:#343434"/><stop offset="1" style="stop-color:#303030"/></linearGradient><polyline points="68.2 38.6 63 38.6 63 43.8 68.2 43.8 68.2 38.6" class="st5"/><linearGradient id="SVGID_9_" x1="0" x2="1" y1="-.111" y2="-.111" gradientTransform="matrix(-140.3131 140.3131 140.3131 140.3131 137.5244 -1.2847)" gradientUnits="userSpaceOnUse"><stop offset="0" style="stop-color:#fff"/><stop offset=".033" style="stop-color:#f1f1f1"/><stop offset=".168" style="stop-color:#bfbfbf"/><stop offset=".305" style="stop-color:#939393"/><stop offset=".442" style="stop-color:#6f6f6f"/><stop offset=".58" style="stop-color:#535353"/><stop offset=".718" style="stop-color:#404040"/><stop offset=".858" style="stop-color:#343434"/><stop offset="1" style="stop-color:#303030"/></linearGradient><polyline points="94.9 10.2 89.7 10.2 89.7 15.4 94.9 15.4 94.9 10.2" class="st6"/><linearGradient id="SVGID_10_" x1="0" x2="1" y1="-.064" y2="-.064" gradientTransform="matrix(-140.3131 140.3131 140.3131 140.3131 137.5244 -1.2847)" gradientUnits="userSpaceOnUse"><stop offset="0" style="stop-color:#fff"/><stop offset=".033" style="stop-color:#f1f1f1"/><stop offset=".168" style="stop-color:#bfbfbf"/><stop offset=".305" style="stop-color:#939393"/><stop offset=".442" style="stop-color:#6f6f6f"/><stop offset=".58" style="stop-color:#535353"/><stop offset=".718" style="stop-color:#404040"/><stop offset=".858" style="stop-color:#343434"/><stop offset="1" style="stop-color:#303030"/></linearGradient><polyline points="73.8 44.3 68.6 44.3 68.6 49.6 73.8 49.6 73.8 44.3" class="st7"/><linearGradient id="SVGID_11_" x1="0" x2="1" y1="-.044" y2="-.044" gradientTransform="matrix(-140.3131 140.3131 140.3131 140.3131 137.5244 -1.2847)" gradientUnits="userSpaceOnUse"><stop offset="0" style="stop-color:#fff"/><stop offset=".033" style="stop-color:#f1f1f1"/><stop offset=".168" style="stop-color:#bfbfbf"/><stop offset=".305" style="stop-color:#939393"/><stop offset=".442" style="stop-color:#6f6f6f"/><stop offset=".58" style="stop-color:#535353"/><stop offset=".718" style="stop-color:#404040"/><stop offset=".858" style="stop-color:#343434"/><stop offset="1" style="stop-color:#303030"/></linearGradient><polyline points="114.1 6.5 114.1 6.5 108.8 6.5 108.8 11.7 111.7 11.7 111.7 15.5 116.9 15.5 116.9 10.2 114.1 10.2 114.1 6.5" class="st8"/><linearGradient id="SVGID_12_" x1="0" x2="1" y1="-.037" y2="-.037" gradientTransform="matrix(-140.3131 140.3131 140.3131 140.3131 137.5244 -1.2847)" gradientUnits="userSpaceOnUse"><stop offset="0" style="stop-color:#fff"/><stop offset=".033" style="stop-color:#f1f1f1"/><stop offset=".168" style="stop-color:#bfbfbf"/><stop offset=".305" style="stop-color:#939393"/><stop offset=".442" style="stop-color:#6f6f6f"/><stop offset=".58" style="stop-color:#535353"/><stop offset=".718" style="stop-color:#404040"/><stop offset=".858" style="stop-color:#343434"/><stop offset="1" style="stop-color:#303030"/></linearGradient><polyline points="104.8 21.1 99.6 21.1 99.6 26.3 104.8 26.3 104.8 21.1" class="st9"/><linearGradient id="SVGID_13_" x1="0" x2="1" y1="-.025" y2="-.025" gradientTransform="matrix(-140.3131 140.3131 140.3131 140.3131 137.5244 -1.2847)" gradientUnits="userSpaceOnUse"><stop offset="0" style="stop-color:#fff"/><stop offset=".033" style="stop-color:#f1f1f1"/><stop offset=".168" style="stop-color:#bfbfbf"/><stop offset=".305" style="stop-color:#939393"/><stop offset=".442" style="stop-color:#6f6f6f"/><stop offset=".58" style="stop-color:#535353"/><stop offset=".718" style="stop-color:#404040"/><stop offset=".858" style="stop-color:#343434"/><stop offset="1" style="stop-color:#303030"/></linearGradient><polyline points="79.3 49.8 74 49.8 74 55.1 79.3 55.1 79.3 49.8" class="st10"/><linearGradient id="SVGID_14_" x1="0" x2="1" y1=".013" y2=".013" gradientTransform="matrix(-140.3131 140.3131 140.3131 140.3131 137.5244 -1.2847)" gradientUnits="userSpaceOnUse"><stop offset="0" style="stop-color:#fff"/><stop offset=".033" style="stop-color:#f1f1f1"/><stop offset=".168" style="stop-color:#bfbfbf"/><stop offset=".305" style="stop-color:#939393"/><stop offset=".442" style="stop-color:#6f6f6f"/><stop offset=".58" style="stop-color:#535353"/><stop offset=".718" style="stop-color:#404040"/><stop offset=".858" style="stop-color:#343434"/><stop offset="1" style="stop-color:#303030"/></linearGradient><polyline points="60.8 69.7 55.6 69.7 50.8 69.7 50.8 74.4 50.8 74.9 50.8 79.2 50.8 79.7 50.8 84.4 50.8 89.2 55.6 89.2 56.1 89.2 60.3 89.2 60.8 89.2 65.1 89.2 65.6 89.2 70.3 89.2 70.3 84.4 70.3 83.9 70.3 79.2 65.6 79.2 65.6 74.4 60.8 74.4 60.8 69.7" class="st11"/><linearGradient id="SVGID_15_" x1="0" x2="1" y1=".013" y2=".013" gradientTransform="matrix(-140.3131 140.3131 140.3131 140.3131 137.5244 -1.2847)" gradientUnits="userSpaceOnUse"><stop offset="0" style="stop-color:#fff"/><stop offset=".033" style="stop-color:#f1f1f1"/><stop offset=".168" style="stop-color:#bfbfbf"/><stop offset=".305" style="stop-color:#939393"/><stop offset=".442" style="stop-color:#6f6f6f"/><stop offset=".58" style="stop-color:#535353"/><stop offset=".718" style="stop-color:#404040"/><stop offset=".858" style="stop-color:#343434"/><stop offset="1" style="stop-color:#303030"/></linearGradient><polyline points="67.3 67.5 62.1 67.5 62.1 72.7 67.3 72.7 67.3 77.9 72.6 77.9 72.6 72.7 67.3 72.7 67.3 67.5" class="st12"/><linearGradient id="SVGID_16_" x1="0" x2="1" y1=".023" y2=".023" gradientTransform="matrix(-140.3131 140.3131 140.3131 140.3131 137.5244 -1.2847)" gradientUnits="userSpaceOnUse"><stop offset="0" style="stop-color:#fff"/><stop offset=".033" style="stop-color:#f1f1f1"/><stop offset=".168" style="stop-color:#bfbfbf"/><stop offset=".305" style="stop-color:#939393"/><stop offset=".442" style="stop-color:#6f6f6f"/><stop offset=".58" style="stop-color:#535353"/><stop offset=".718" style="stop-color:#404040"/><stop offset=".858" style="stop-color:#343434"/><stop offset="1" style="stop-color:#303030"/></linearGradient><polyline points="108.4 34.3 103.2 34.3 103.2 39.6 108.4 39.6 108.4 34.3" class="st13"/><linearGradient id="SVGID_17_" x1="0" x2="1" y1=".013" y2=".013" gradientTransform="matrix(-140.3131 140.3131 140.3131 140.3131 137.5244 -1.2847)" gradientUnits="userSpaceOnUse"><stop offset="0" style="stop-color:#fff"/><stop offset=".033" style="stop-color:#f1f1f1"/><stop offset=".168" style="stop-color:#bfbfbf"/><stop offset=".305" style="stop-color:#939393"/><stop offset=".442" style="stop-color:#6f6f6f"/><stop offset=".58" style="stop-color:#535353"/><stop offset=".718" style="stop-color:#404040"/><stop offset=".858" style="stop-color:#343434"/><stop offset="1" style="stop-color:#303030"/></linearGradient><polyline points="87.8 37.9 82.6 37.9 82.6 42.7 82.6 42.7 82.6 47.9 82.6 52.2 82.6 52.7 82.6 57.5 87.8 57.5 87.8 57.5 92.1 57.4 92.1 57.5 97.3 57.4 102.1 57.4 102.1 52.2 97.3 52.2 97.3 47.5 96.2 47.5 96.2 44.1 92.5 44.1 92.5 42.7 87.8 42.7 87.8 37.9" class="st14"/><linearGradient id="SVGID_18_" x1="0" x2="1" y1=".053" y2=".053" gradientTransform="matrix(-140.3131 140.3131 140.3131 140.3131 137.5244 -1.2847)" gradientUnits="userSpaceOnUse"><stop offset="0" style="stop-color:#fff"/><stop offset=".033" style="stop-color:#f1f1f1"/><stop offset=".168" style="stop-color:#bfbfbf"/><stop offset=".305" style="stop-color:#939393"/><stop offset=".442" style="stop-color:#6f6f6f"/><stop offset=".58" style="stop-color:#535353"/><stop offset=".718" style="stop-color:#404040"/><stop offset=".858" style="stop-color:#343434"/><stop offset="1" style="stop-color:#303030"/></linearGradient><polyline points="90.4 60.7 85.1 60.7 85.1 66 90.4 66 90.4 60.7" class="st15"/><linearGradient id="SVGID_19_" x1="0" x2="1" y1=".067" y2=".067" gradientTransform="matrix(-140.3131 140.3131 140.3131 140.3131 137.5244 -1.2847)" gradientUnits="userSpaceOnUse"><stop offset="0" style="stop-color:#fff"/><stop offset=".033" style="stop-color:#f1f1f1"/><stop offset=".168" style="stop-color:#bfbfbf"/><stop offset=".305" style="stop-color:#939393"/><stop offset=".442" style="stop-color:#6f6f6f"/><stop offset=".58" style="stop-color:#535353"/><stop offset=".718" style="stop-color:#404040"/><stop offset=".858" style="stop-color:#343434"/><stop offset="1" style="stop-color:#303030"/></linearGradient><polyline points="120.8 34.4 115.5 34.4 115.5 39.6 120.8 39.6 120.8 34.4" class="st16"/><linearGradient id="SVGID_20_" x1="0" x2="1" y1=".091" y2=".091" gradientTransform="matrix(-140.3131 140.3131 140.3131 140.3131 137.5244 -1.2847)" gradientUnits="userSpaceOnUse"><stop offset="0" style="stop-color:#fff"/><stop offset=".033" style="stop-color:#f1f1f1"/><stop offset=".168" style="stop-color:#bfbfbf"/><stop offset=".305" style="stop-color:#939393"/><stop offset=".442" style="stop-color:#6f6f6f"/><stop offset=".58" style="stop-color:#535353"/><stop offset=".718" style="stop-color:#404040"/><stop offset=".858" style="stop-color:#343434"/><stop offset="1" style="stop-color:#303030"/></linearGradient><polyline points="95.7 66.2 90.4 66.2 90.4 71.4 95.7 71.4 95.7 66.2" class="st17"/><linearGradient id="SVGID_21_" x1="0" x2="1" y1=".117" y2=".117" gradientTransform="matrix(-140.3131 140.3131 140.3131 140.3131 137.5244 -1.2847)" gradientUnits="userSpaceOnUse"><stop offset="0" style="stop-color:#fff"/><stop offset=".033" style="stop-color:#f1f1f1"/><stop offset=".168" style="stop-color:#bfbfbf"/><stop offset=".305" style="stop-color:#939393"/><stop offset=".442" style="stop-color:#6f6f6f"/><stop offset=".58" style="stop-color:#535353"/><stop offset=".718" style="stop-color:#404040"/><stop offset=".858" style="stop-color:#343434"/><stop offset="1" style="stop-color:#303030"/></linearGradient><polyline points="123.4 45.8 118.2 45.8 118.2 51 123.4 51 123.4 45.8" class="st18"/><linearGradient id="SVGID_22_" x1="0" x2="1" y1=".132" y2=".132" gradientTransform="matrix(-140.3131 140.3131 140.3131 140.3131 137.5244 -1.2847)" gradientUnits="userSpaceOnUse"><stop offset="0" style="stop-color:#fff"/><stop offset=".033" style="stop-color:#f1f1f1"/><stop offset=".168" style="stop-color:#bfbfbf"/><stop offset=".305" style="stop-color:#939393"/><stop offset=".442" style="stop-color:#6f6f6f"/><stop offset=".58" style="stop-color:#535353"/><stop offset=".718" style="stop-color:#404040"/><stop offset=".858" style="stop-color:#343434"/><stop offset="1" style="stop-color:#303030"/></linearGradient><polyline points="101.5 71.8 96.3 71.8 96.3 77.1 101.5 77 101.5 71.8" class="st19"/><linearGradient id="SVGID_23_" x1="0" x2="1" y1=".09" y2=".09" gradientTransform="matrix(-140.3131 140.3131 140.3131 140.3131 137.5244 -1.2847)" gradientUnits="userSpaceOnUse"><stop offset="0" style="stop-color:#fff"/><stop offset=".033" style="stop-color:#f1f1f1"/><stop offset=".168" style="stop-color:#bfbfbf"/><stop offset=".305" style="stop-color:#939393"/><stop offset=".442" style="stop-color:#6f6f6f"/><stop offset=".58" style="stop-color:#535353"/><stop offset=".718" style="stop-color:#404040"/><stop offset=".858" style="stop-color:#343434"/><stop offset="1" style="stop-color:#303030"/></linearGradient><polyline points="82.7 64.6 77.5 64.6 77.5 69.8 77.5 74.1 77.5 74.6 77.5 78.9 77.5 79.3 77.5 84.1 82.2 84.1 82.7 84.1 87 84.1 87.5 84.1 91.7 84.1 92.2 84.1 97 84.1 97 78.9 92.2 78.9 92.2 74.1 87.5 74.1 87.5 69.3 82.7 69.3 82.7 64.6" class="st20"/><linearGradient id="SVGID_24_" x1="0" x2="1" y1=".142" y2=".142" gradientTransform="matrix(-140.3131 140.3131 140.3131 140.3131 137.5244 -1.2847)" gradientUnits="userSpaceOnUse"><stop offset="0" style="stop-color:#fff"/><stop offset=".033" style="stop-color:#f1f1f1"/><stop offset=".168" style="stop-color:#bfbfbf"/><stop offset=".305" style="stop-color:#939393"/><stop offset=".442" style="stop-color:#6f6f6f"/><stop offset=".58" style="stop-color:#535353"/><stop offset=".718" style="stop-color:#404040"/><stop offset=".858" style="stop-color:#343434"/><stop offset="1" style="stop-color:#303030"/></linearGradient><polyline points="88 88.1 82.8 88.1 82.8 93.3 88 93.3 88 88.1" class="st21"/><linearGradient id="SVGID_25_" x1="0" x2="1" y1=".185" y2=".185" gradientTransform="matrix(-140.3131 140.3131 140.3131 140.3131 137.5244 -1.2847)" gradientUnits="userSpaceOnUse"><stop offset="0" style="stop-color:#fff"/><stop offset=".033" style="stop-color:#f1f1f1"/><stop offset=".168" style="stop-color:#bfbfbf"/><stop offset=".305" style="stop-color:#939393"/><stop offset=".442" style="stop-color:#6f6f6f"/><stop offset=".58" style="stop-color:#535353"/><stop offset=".718" style="stop-color:#404040"/><stop offset=".858" style="stop-color:#343434"/><stop offset="1" style="stop-color:#303030"/></linearGradient><polyline points="120.4 67.7 115.2 67.7 115.2 72.9 120.4 72.9 120.4 67.7" class="st22"/><linearGradient id="SVGID_26_" x1="0" x2="1" y1=".179" y2=".179" gradientTransform="matrix(-140.3131 140.3131 140.3131 140.3131 137.5244 -1.2847)" gradientUnits="userSpaceOnUse"><stop offset="0" style="stop-color:#fff"/><stop offset=".033" style="stop-color:#f1f1f1"/><stop offset=".168" style="stop-color:#bfbfbf"/><stop offset=".305" style="stop-color:#939393"/><stop offset=".442" style="stop-color:#6f6f6f"/><stop offset=".58" style="stop-color:#535353"/><stop offset=".718" style="stop-color:#404040"/><stop offset=".858" style="stop-color:#343434"/><stop offset="1" style="stop-color:#303030"/></linearGradient><polyline points="93.2 93.3 88 93.3 88 98.6 93.2 98.6 93.2 93.3" class="st23"/><linearGradient id="SVGID_27_" x1="0" x2="1" y1=".158" y2=".158" gradientTransform="matrix(-140.3131 140.3131 140.3131 140.3131 137.5244 -1.2847)" gradientUnits="userSpaceOnUse"><stop offset="0" style="stop-color:#fff"/><stop offset=".033" style="stop-color:#f1f1f1"/><stop offset=".168" style="stop-color:#bfbfbf"/><stop offset=".305" style="stop-color:#939393"/><stop offset=".442" style="stop-color:#6f6f6f"/><stop offset=".58" style="stop-color:#535353"/><stop offset=".718" style="stop-color:#404040"/><stop offset=".858" style="stop-color:#343434"/><stop offset="1" style="stop-color:#303030"/></linearGradient><polyline points="81.1 90 75.9 90 71.1 90 71.1 95.2 71.1 99.5 71.1 99.9 71.1 104.2 71.1 104.7 71.1 109.5 76.4 109.5 80.6 109.5 81.1 109.5 85.4 109.5 85.9 109.5 90.6 109.5 90.6 104.2 90.6 99.5 85.9 99.5 85.9 94.7 81.1 94.7 81.1 90" class="st24"/><linearGradient id="SVGID_28_" x1="0" x2="1" y1=".022" y2=".022" gradientTransform="matrix(-140.3131 140.3131 140.3131 140.3131 137.5244 -1.2847)" gradientUnits="userSpaceOnUse"><stop offset="0" style="stop-color:#fff"/><stop offset=".033" style="stop-color:#f1f1f1"/><stop offset=".168" style="stop-color:#bfbfbf"/><stop offset=".305" style="stop-color:#939393"/><stop offset=".442" style="stop-color:#6f6f6f"/><stop offset=".58" style="stop-color:#535353"/><stop offset=".718" style="stop-color:#404040"/><stop offset=".858" style="stop-color:#343434"/><stop offset="1" style="stop-color:#303030"/></linearGradient><polyline points="27.4 56.9 6.5 56.9 6.5 77.8 6.5 96.9 6.5 114 6.5 114 6.5 134.9 6.5 134.9 27.4 134.9 46.5 134.9 65.4 134.9 65.4 134.9 86.3 134.9 86.3 114 65.5 114 65.5 95 46.5 95 46.5 75.9 27.4 75.9 27.4 56.9" class="st25"/></g></g></svg>