<svg xmlns="http://www.w3.org/2000/svg" xmlns:xlink="http://www.w3.org/1999/xlink" xml:space="preserve" style="enable-background:new 0 0 133.4 142.3" viewBox="0 0 133.4 142.3"><defs><path id="a" d="M6.5 6.5h124.6v128.4H6.5V6.5"/></defs><clipPath id="b"><use xlink:href="#a" style="overflow:visible"/></clipPath><path d="M131.1 25.6h-5.3v2.1h-.5v5.2h5.2v-2h.6v-5.3" style="clip-path:url(#b);fill:url(#SVGID_3_)"/><path d="M40.5 49.4h-10v19.5H50v-10h-4.7v-4.8h-4.8v-4.7" style="clip-path:url(#b);fill:url(#SVGID_4_)"/><path d="M72.6 20.1h-5.2v5.3h5.2v-5.3" style="clip-path:url(#b);fill:url(#SVGID_5_)"/><path d="M46.7 46.8h-5.2V52h5.2v5.3h5.2V52h-5.2v-5.2" style="clip-path:url(#b);fill:url(#SVGID_6_)"/><path d="M61.1 43h-5.2v19.5h19.5v-5.2h-4.7v-4.8h-4.8v-4.7h-4.8V43" style="clip-path:url(#b);fill:url(#SVGID_7_)"/><path d="M68.2 38.6H63v5.2h5.2v-5.2" style="clip-path:url(#b);fill:url(#SVGID_8_)"/><path d="M94.9 10.2h-5.2v5.2h5.2v-5.2" style="clip-path:url(#b);fill:url(#SVGID_9_)"/><path d="M73.8 44.3h-5.2v5.3h5.2v-5.3" style="clip-path:url(#b);fill:url(#SVGID_10_)"/><path d="M114.1 6.5h-5.3v5.2h2.9v3.8h5.2v-5.3h-2.8V6.5" style="clip-path:url(#b);fill:url(#SVGID_11_)"/><path d="M104.8 21.1h-5.2v5.2h5.2v-5.2" style="clip-path:url(#b);fill:url(#SVGID_12_)"/><path d="M79.3 49.8H74v5.3h5.3v-5.3" style="clip-path:url(#b);fill:url(#SVGID_13_)"/><path d="M60.8 69.7h-10v19.5h19.5v-10h-4.7v-4.8h-4.8v-4.7" style="clip-path:url(#b);fill:url(#SVGID_14_)"/><path d="M67.3 67.5h-5.2v5.2h5.2v5.2h5.3v-5.2h-5.3v-5.2" style="clip-path:url(#b);fill:url(#SVGID_15_)"/><path d="M108.4 34.3h-5.2v5.3h5.2v-5.3" style="clip-path:url(#b);fill:url(#SVGID_16_)"/><path d="M87.8 37.9h-5.2v19.6h5.2l4.3-.1v.1l5.2-.1h4.8v-5.2h-4.8v-4.7h-1.1v-3.4h-3.7v-1.4h-4.7v-4.8" style="clip-path:url(#b);fill:url(#SVGID_17_)"/><path d="M90.4 60.7h-5.3V66h5.3v-5.3" style="clip-path:url(#b);fill:url(#SVGID_18_)"/><path d="M120.8 34.4h-5.3v5.2h5.3v-5.2" style="clip-path:url(#b);fill:url(#SVGID_19_)"/><path d="M95.7 66.2h-5.3v5.2h5.3v-5.2" style="clip-path:url(#b);fill:url(#SVGID_20_)"/><path d="M123.4 45.8h-5.2V51h5.2v-5.2" style="clip-path:url(#b);fill:url(#SVGID_21_)"/><path d="M101.5 71.8h-5.2v5.3l5.2-.1v-5.2" style="clip-path:url(#b);fill:url(#SVGID_22_)"/><path d="M82.7 64.6h-5.2v19.5H97v-5.2h-4.8v-4.8h-4.7v-4.8h-4.8v-4.7" style="clip-path:url(#b);fill:url(#SVGID_23_)"/><path d="M88 88.1h-5.2v5.2H88v-5.2" style="clip-path:url(#b);fill:url(#SVGID_24_)"/><path d="M120.4 67.7h-5.2v5.2h5.2v-5.2" style="clip-path:url(#b);fill:url(#SVGID_25_)"/><path d="M93.2 93.3H88v5.3h5.2v-5.3" style="clip-path:url(#b);fill:url(#SVGID_26_)"/><path d="M81.1 90h-10v19.5h19.5v-10h-4.7v-4.8h-4.8V90" style="clip-path:url(#b);fill:url(#SVGID_27_)"/><path d="M27.4 56.9H6.5v78h79.8V114H65.5V95h-19V75.9H27.4v-19" style="clip-path:url(#b);fill:url(#SVGID_28_)"/></svg>