<svg xmlns="http://www.w3.org/2000/svg" width="100" height="100"><path fill="none" d="M-1-1h802v602H-1z"/><path fill="#6875f5" fill-opacity=".8" d="M83.45 36.55h-4.2c-2-1.8-4.6-2.8-7.4-2.8h-9.4c-4 0-7.5 2.2-9.5 5.4-1.2-.9-2.6-1.4-4.2-1.4s-3 .5-4.2 1.4c-1.9-3.2-5.5-5.4-9.5-5.4h-9.4c-2.8 0-5.4 1-7.4 2.8h-4.2c-1.3 0-2.3 1-2.3 2.3s1 2.3 2.3 2.3h1.2c-.4 1.2-.6 2.4-.6 3.7v3.9c0 8.3 6.8 15 15 15h1.5c8.3 0 15-6.8 15-15v-3.9c0-1.4 1.2-2.6 2.6-2.6s2.6 1.2 2.6 2.6v3.9c0 8.3 6.8 15 15 15h1.5c8.3 0 15-6.8 15-15v-3.9c0-1.3-.2-2.5-.6-3.7h1.2c1.3 0 2.3-1 2.3-2.3s-1-2.3-2.3-2.3zm-52.3 22.7h-1.5c-5.8 0-10.5-4.7-10.5-10.5v-3.9c0-1.7.6-3.2 1.7-4.4 1.2-1.3 2.9-2.2 4.9-2.2h9.4c3.6 0 6.6 2.9 6.6 6.6v3.9c-.1 5.8-4.8 10.5-10.6 10.5zm36.7 0h-1.5c-5.8 0-10.5-4.7-10.5-10.5v-3.9c0-3.6 2.9-6.6 6.6-6.6h9.4c3.6 0 6.6 2.9 6.6 6.6v3.9c0 5.8-4.8 10.5-10.6 10.5z"/><path fill="#f05252" fill-opacity=".8" d="M85.95 39.05h-4.2c-2-1.8-4.6-2.8-7.4-2.8h-9.4c-4 0-7.5 2.2-9.5 5.4-1.2-.9-2.6-1.4-4.2-1.4s-3 .5-4.2 1.4c-1.9-3.2-5.5-5.4-9.5-5.4h-9.4c-2.8 0-5.4 1-7.4 2.8h-4.2c-1.3 0-2.3 1-2.3 2.3s1 2.3 2.3 2.3h1.2c-.4 1.2-.6 2.4-.6 3.7v3.9c0 8.3 6.8 15 15 15h1.5c8.3 0 15-6.8 15-15v-3.9c0-1.4 1.2-2.6 2.6-2.6s2.6 1.2 2.6 2.6v3.9c0 8.3 6.8 15 15 15h1.5c8.3 0 15-6.8 15-15v-3.9c0-1.3-.2-2.5-.6-3.7h1.2c1.3 0 2.3-1 2.3-2.3s-1-2.3-2.3-2.3zm-52.3 22.7h-1.5c-5.8 0-10.5-4.7-10.5-10.5v-3.9c0-1.7.6-3.2 1.7-4.4 1.2-1.3 2.9-2.2 4.9-2.2h9.4c3.6 0 6.6 2.9 6.6 6.6v3.9c-.1 5.8-4.8 10.5-10.6 10.5zm36.7 0h-1.5c-5.8 0-10.5-4.7-10.5-10.5v-3.9c0-3.6 2.9-6.6 6.6-6.6h9.4c3.6 0 6.6 2.9 6.6 6.6v3.9c0 5.8-4.8 10.5-10.6 10.5z"/><path d="M84.7 37.8h-4.2c-2-1.8-4.6-2.8-7.4-2.8h-9.4c-4 0-7.5 2.2-9.5 5.4C53 39.5 51.6 39 50 39s-3 .5-4.2 1.4c-1.9-3.2-5.5-5.4-9.5-5.4h-9.4c-2.8 0-5.4 1-7.4 2.8h-4.2c-1.3 0-2.3 1-2.3 2.3s1 2.3 2.3 2.3h1.2c-.4 1.2-.6 2.4-.6 3.7V50c0 8.3 6.8 15 15 15h1.5c8.3 0 15-6.8 15-15v-3.9c0-1.4 1.2-2.6 2.6-2.6s2.6 1.2 2.6 2.6V50c0 8.3 6.8 15 15 15h1.5c8.3 0 15-6.8 15-15v-3.9c0-1.3-.2-2.5-.6-3.7h1.2c1.3 0 2.3-1 2.3-2.3s-1-2.3-2.3-2.3zM32.4 60.5h-1.5c-5.8 0-10.5-4.7-10.5-10.5v-3.9c0-1.7.6-3.2 1.7-4.4 1.2-1.3 2.9-2.2 4.9-2.2h9.4c3.6 0 6.6 2.9 6.6 6.6V50c-.1 5.8-4.8 10.5-10.6 10.5zm36.7 0h-1.5c-5.8 0-10.5-4.7-10.5-10.5v-3.9c0-3.6 2.9-6.6 6.6-6.6h9.4c3.6 0 6.6 2.9 6.6 6.6V50c0 5.8-4.8 10.5-10.6 10.5z"/></svg>