<svg xmlns:serif="http://www.serif.com/" xmlns="http://www.w3.org/2000/svg" xmlns:xlink="http://www.w3.org/1999/xlink" version="1.1" id="Layer_1" x="0px" y="0px" style="enable-background:new 0 0 512 512;" xml:space="preserve" viewBox="0 91.1 511.9 330">
<style type="text/css">
	.st0{fill:url(#SVGID_1_);}
</style>
<g>
	
		<linearGradient id="SVGID_1_" gradientUnits="userSpaceOnUse" x1="-50.5653" y1="653.1926" x2="-48.4299" y2="653.1926" gradientTransform="matrix(9.458481e-15 154.4688 154.4688 -9.458481e-15 -100641.8906 7901.8335)">
		<stop offset="0" style="stop-color:#FAD956"/>
		<stop offset="1" style="stop-color:#FFA10F"/>
	</linearGradient>
	<path class="st0" d="M0,235.2c0-8.5,6.9-15.4,15.5-15.4c4.1,0,7.7,1.6,10.5,4.2c-0.1-1.4-0.2-2.7-0.2-4.1   c0-28.5,23.1-51.6,51.6-51.6c7.4,0,14.4,1.5,20.8,4.4c-0.1-1.5-0.2-2.9-0.2-4.3c0-42.7,34.6-77.3,77.3-77.3   c42.4,0,76.8,34.2,77.3,76.5c-14,12.3-25.1,27.8-32.3,45.3c-13.8-8.6-30.1-13.8-47.6-13.8c-36,0-67,20.4-81.5,51.3H36H15.5   C6.9,250.4,0,243.7,0,235.2z M407.1,189c-19.1-19.1-45.5-31-74.7-31c-53.3,0-97.4,39.4-104.6,90.8c-13.1-17.5-34.1-28.9-57.7-28.9   c-39.9,0-72.2,32.4-72.2,72.2c0,11.6,2.8,22.5,7.6,32.3c-25.1,5.1-43.7,24.5-43.7,47.7c0,27.1,25.4,49,56.7,49   c13.8,0,26.5-4.3,36.4-11.4l116-114.1c12.8-11.8,29.9-18.9,48.6-18.9c39.2,0,71.1,31.3,72.2,70.2c0,0,0-0.1-0.1-0.1   c0.6,11.5-5.4,23.1-16.4,29.5c-15.5,8.9-34.8,4.2-43.3-10.5c-8.5-14.8-2.9-33.9,12.5-42.8c3.6-2.1,7.4-3.4,11.2-4.1   c-3.3-0.7-6.8-1-10.3-1c-28.4,0-51.6,23.1-51.6,51.6c0,28.5,23.1,51.6,51.6,51.6c1.2,0,2.5-0.1,3.8-0.2l-0.1-0.2l1.5-0.2h101.2v0.4   c31-1.4,60.2-29.9,60.2-64.6c0-35.6-30.4-64.6-66-64.6c-0.1,0-0.1,0-0.2,0c-5.8,10.3-12.8,16.3-20.7,22.7   c8.3-15.1,13.1-32.4,13.1-50.8C438.1,234.4,426.2,208.1,407.1,189L407.1,189z"/>
</g>
</svg>