<svg xmlns="http://www.w3.org/2000/svg" viewBox="0 0 312.59 171"><defs><style>.cls-1{fill:#fff}.cls-2{fill:#1976d2}</style></defs><g id="Layer_1" data-name="Layer 1"><g id="Onion"><path id="Flesh" d="M155.46,107.65A1.62,1.62,0,0,0,156,107a5.55,5.55,0,0,0,.73-2.82c-.14-8-.27-15.23-4.68-17.1-4.8-2-11.1,3.71-12.67,5.14a23.53,23.53,0,0,0-7.3,14.6c-.12,1.19-.9,11,6.45,18.23s18.28,7.16,25.7,4.17c8.19-3.31,12-10.15,13.15-12.36,6.28-11.8,1.91-24,1-26.38C172.49,75.26,155.43,66,139.5,66.78c-2.56.13-18.71,1.2-28.58,14.68a36.27,36.27,0,0,0-6.76,21.48c.18,19.09,15.83,34.9,31,41,14.92,6,28.39,3.26,34,2,5.81-1.35,20.24-4.7,30.18-17.83A40.72,40.72,0,0,0,208,106.27a41.21,41.21,0,0,0-4-20.49c-1.32-2.72-7.29-14.3-20.11-20.06-12.31-5.53-22.28-1.79-25.68-8a10.07,10.07,0,0,1-.48-7.35,1.24,1.24,0,0,0-1.25-1.52l-1.88.06a1.25,1.25,0,0,0-1.17.94c-.79,3-1.33,7.14.6,10.84,4.57,8.8,17.46,4.35,30.09,13.18,9.81,6.85,16.73,19.74,15.63,32.28a33.16,33.16,0,0,1-7.1,17.32c-8.22,10.68-20.1,13.35-25.81,14.64C162,139.18,151.19,141.5,139,137c-3.14-1.15-24-9.8-26.47-29.51-1.55-12.61,7-26.39,20.31-31.09,15.39-5.44,32.25,3.26,38,15.69.68,1.47,5.73,12.93-.7,22.13-4.79,6.86-15.46,11.77-23.38,7.11a16,16,0,0,1-7-17.34c1.68-6,7.54-10.32,9.62-9.28,2.23,1.12,3.48,7.27,3.61,11.65A1.64,1.64,0,0,0,155.46,107.65Z" class="cls-1"/><path id="Stem" d="M139.63,55.37l-4.93,1.51a1.37,1.37,0,0,1-1.76-1.1l-.13-.85a31.93,31.93,0,0,0-5.36-13.11,1.37,1.37,0,0,1,.43-1.94l1.26-.74a1.35,1.35,0,0,1,1.8.38c.48.68,1,1.38,1.45,2.1l1.75,2.6c3.63-12.34,14-20.8,24.68-20.94,14.05-.19,22.91,12.62,25.75,20.85a26.57,26.57,0,0,1,1.11,4.3,1.08,1.08,0,0,1-1.34,1.21l-3.14-.86a1.79,1.79,0,0,1-1.26-1.28,23.44,23.44,0,0,0-2.23-5.68c-3.58-6.43-11.44-13.26-19.58-12.52-9.16.82-18,11.18-17.56,24.73A1.34,1.34,0,0,1,139.63,55.37Z" class="cls-2"/></g><path d="M217,127a16.64,16.64,0,0,0,5.45,6.5,22.8,22.8,0,0,0,8.19,3.46,46.64,46.64,0,0,0,10.12,1,29,29,0,0,0,6.71-.87,23.59,23.59,0,0,0,6.77-2.81,17.13,17.13,0,0,0,5.22-4.95,12.58,12.58,0,0,0,2.09-7.32,10.76,10.76,0,0,0-1.48-5.72,13.82,13.82,0,0,0-3.85-4.07,23.25,23.25,0,0,0-5.23-2.69,48.72,48.72,0,0,0-5.61-1.7l-17.49-4.29a54.5,54.5,0,0,1-6.65-2.2,19,19,0,0,1-5.67-3.52,16.8,16.8,0,0,1-3.9-5.4,18.36,18.36,0,0,1-1.49-7.8,25,25,0,0,1,1.1-6.71,18.53,18.53,0,0,1,4.13-7.26,23.9,23.9,0,0,1,8.3-5.78Q229,62.5,237.24,62.5A39.71,39.71,0,0,1,248.35,64a27.31,27.31,0,0,1,9.24,4.63,22.18,22.18,0,0,1,8.69,18.25H258.8a18.25,18.25,0,0,0-2-7.86A17.53,17.53,0,0,0,252,73.45,20.84,20.84,0,0,0,245.33,70a27.26,27.26,0,0,0-8-1.16,32.83,32.83,0,0,0-7.42.83,18.48,18.48,0,0,0-6.27,2.64,13.72,13.72,0,0,0-4.35,4.78,15,15,0,0,0-1.65,7.37,11.28,11.28,0,0,0,.94,4.79,10,10,0,0,0,2.58,3.46,13.64,13.64,0,0,0,3.8,2.32,30,30,0,0,0,4.56,1.43l19.14,4.72a56.37,56.37,0,0,1,7.87,2.7,26,26,0,0,1,6.49,4,16.78,16.78,0,0,1,4.4,5.78,19.39,19.39,0,0,1,1.59,8.25,30.14,30.14,0,0,1-.27,3.51,18.27,18.27,0,0,1-1.32,4.68,23.68,23.68,0,0,1-3,5,19,19,0,0,1-5.28,4.56,30.5,30.5,0,0,1-8.31,3.3A48.67,48.67,0,0,1,239,144.24a49.64,49.64,0,0,1-12.87-1.6A27.67,27.67,0,0,1,216,137.75a21.61,21.61,0,0,1-6.43-8.47,27.7,27.7,0,0,1-1.93-12.44h7.48A22.12,22.12,0,0,0,217,127Z" class="cls-1"/><path d="M53,127a16.51,16.51,0,0,0,5.44,6.49,22.62,22.62,0,0,0,8.2,3.47,46.58,46.58,0,0,0,10.12,1,28.47,28.47,0,0,0,6.71-.88,23.23,23.23,0,0,0,6.76-2.8,17.27,17.27,0,0,0,5.23-4.95A12.58,12.58,0,0,0,97.5,122,10.74,10.74,0,0,0,96,116.29a13.57,13.57,0,0,0-3.85-4.07,23.18,23.18,0,0,0-5.22-2.69,50.89,50.89,0,0,0-5.61-1.71l-17.49-4.29a53.47,53.47,0,0,1-6.66-2.19,19.08,19.08,0,0,1-5.66-3.53,16.52,16.52,0,0,1-3.91-5.39,18.42,18.42,0,0,1-1.48-7.81,24.72,24.72,0,0,1,1.1-6.71,18.77,18.77,0,0,1,4.12-7.26,24.16,24.16,0,0,1,8.31-5.77q5.28-2.37,13.53-2.37A39.76,39.76,0,0,1,84.3,64a27.31,27.31,0,0,1,9.24,4.63,22.26,22.26,0,0,1,8.69,18.25H94.75a18.26,18.26,0,0,0-2-7.86A17.41,17.41,0,0,0,88,73.45,20.73,20.73,0,0,0,81.27,70a27.19,27.19,0,0,0-8-1.16,33,33,0,0,0-7.43.83,18.65,18.65,0,0,0-6.27,2.64,13.7,13.7,0,0,0-4.34,4.78,15,15,0,0,0-1.65,7.37,11.43,11.43,0,0,0,.93,4.79,10.13,10.13,0,0,0,2.59,3.46,13.32,13.32,0,0,0,3.79,2.31,28,28,0,0,0,4.57,1.43l19.14,4.73a56.23,56.23,0,0,1,7.86,2.7,25.78,25.78,0,0,1,6.49,4,16.72,16.72,0,0,1,4.4,5.77,19.3,19.3,0,0,1,1.6,8.25,28.55,28.55,0,0,1-.28,3.52,17.5,17.5,0,0,1-1.32,4.68,22.58,22.58,0,0,1-3,5,18.63,18.63,0,0,1-5.28,4.57,30.3,30.3,0,0,1-8.3,3.3A48.71,48.71,0,0,1,75,144.23a49.65,49.65,0,0,1-12.87-1.59A27.61,27.61,0,0,1,52,137.74a21.58,21.58,0,0,1-6.44-8.47,27.8,27.8,0,0,1-1.92-12.43h7.48A22.12,22.12,0,0,0,53,127Z" class="cls-1"/></g></svg>