<svg xmlns="http://www.w3.org/2000/svg" xmlns:xlink="http://www.w3.org/1999/xlink" version="1.1" id="Layer_1" x="0px" y="0px" style="enable-background:new 0 0 512 512;" xml:space="preserve" viewBox="64 0 384.4 512">
<style type="text/css">
	.st0{fill:#ffffff;}
</style>
<g>
	<path class="st0" d="M440.4,205.8c4.8,0,8-3.2,8-8V67.3c0-4.8-4-8-8.8-8c-72.1,5.6-150.6-30.4-177.8-56.9c-3.2-3.2-8-3.2-11.2,0   C223.4,29.6,144.9,64.9,72.8,59.3c-4.8,0-8.8,3.2-8.8,8v193c0,61.7,27.2,119.3,74.5,157.8l112.1,92.1c3.2,2.4,7.2,2.4,10.4,0   l112.1-92.1c47.3-39.2,74.5-96.9,74.5-157.8v-25.6c0-4.8-3.2-8-8-8c-4.8,0-8,3.2-8,8v25.6c0,52.1-20.8,100.1-57.7,136.2v-44.9   c0-12-9.6-22.4-22.4-22.4h-49.7V310h49.7c12,0,22.4-9.6,22.4-22.4v-29.6h4.8c17.6,0,32-14.4,32-32c0-17.6-14.4-32-32-32H374V157   c0-12-9.6-22.4-22.4-22.4h-52.1c-3.2-18.4-17.6-32.8-35.2-36V76.9c0-4.8-3.2-8-8-8c-4.8,0-8,3.2-8,8v21.6   c-17.6,3.2-32,17.6-35.2,36h-52.1c-12,0-22.4,9.6-22.4,22.4v36.8h-4.8c-17.6,0-32,14.4-32,32c0,17.6,14.4,32,32,32h4.8v30.4   c0,12,9.6,22.4,22.4,22.4h49.7V330h-49.7c-12,0-22.4,9.6-22.4,22.4v44.9c-36.8-35.2-57.7-84.1-57.7-136.2v-185   C151.3,78.5,225,46.5,257,19.2c32,28,105.7,59.3,175.4,56.9v121.7C432.4,201.8,436.4,205.8,440.4,205.8z M257,114.5   c12.8,0,24,8.8,27.2,20.8h-54.5C233,123.3,244.2,114.5,257,114.5z M379.6,210.6c8.8,0,16,7.2,16,16c0,8.8-7.2,16-16,16h-4.8v-32   H379.6z M134.5,242.7c-8.8,0-16-7.2-16-16c0-8.8,7.2-16,16-16h4.8v32H134.5z M155.3,288.3c0-3.2,0-129,0-130.6   c0-3.2,2.4-6.4,6.4-6.4h191.4c3.2,0,6.4,2.4,6.4,6.4c0,28.8,0,101.7,0,130.6c0,3.2-3.2,6.4-6.4,6.4c-10.4,0-187.4,0-191.4,0   C157.7,294.7,155.3,291.5,155.3,288.3z M226.6,310.8h60.1V330h-60.1V310.8z M161.7,346c98.5,0,60.1,0,191.4,0   c3.2,0,6.4,2.4,6.4,6.4v58.5L257,494.2l-101.7-84.1v-58.5C155.3,348.4,157.7,346,161.7,346z" fill="#000000"/>
	<path class="st0" d="M226.6,250.7c0,16.8,13.6,30.4,30.4,30.4c16.8,0,30.4-13.6,30.4-30.4c0-4.8-3.2-8-8-8c-4.8,0-8,3.2-8,8   c0,8-6.4,14.4-14.4,14.4c-8,0-14.4-6.4-14.4-14.4c0-4.8-3.2-8-8-8S226.6,245.9,226.6,250.7z" fill="#000000"/>
	<path class="st0" d="M239.4,197.8c0-20-16-36-36-36c-20,0-36,16-36,36c0,20,16,36,36,36C222.6,233.9,239.4,217.9,239.4,197.8z    M182.5,197.8c0-11.2,8.8-20,20-20s20,8.8,20,20s-8.8,20-20,20S182.5,209,182.5,197.8z" fill="#000000"/>
	<path class="st0" d="M311.5,233.9c20,0,36-16,36-36c0-20-16-36-36-36c-20,0-36,16-36,36C274.6,217.9,291.5,233.9,311.5,233.9z    M311.5,177c11.2,0,20,8.8,20,20c0,11.2-8.8,20-20,20c-11.2,0-20-8.8-20-20C290.7,186.6,300.3,177,311.5,177z" fill="#000000"/>
	<path class="st0" d="M233,434.1h48.1c4.8,0,8-3.2,8-8V378c0-4.8-3.2-8-8-8H233c-4.8,0-8,3.2-8,8v48.1   C225,430.1,228.2,434.1,233,434.1z M241,386.1h32v32h-32V386.1z" fill="#000000"/>
</g>
</svg>