<?xml version="1.0" encoding="utf-8"?>
<!-- Generator: Adobe Illustrator 27.7.0, SVG Export Plug-In . SVG Version: 6.00 Build 0)  -->
<svg version="1.1" id="Layer_1" xmlns="http://www.w3.org/2000/svg" xmlns:xlink="http://www.w3.org/1999/xlink" x="0px" y="0px"
	 viewBox="0 0 512 512" style="enable-background:new 0 0 512 512;" xml:space="preserve">
<style type="text/css">
	.st0{fill:#10B981;}
	.st1{fill:#FFFFFF;}
</style>
<g transform="translate(361.47 -305.25)">
	<path class="st0" d="M-246.7,305.2H35.8c63.4,0,114.8,56.1,114.8,125.2V692c0,69.1-51.4,125.2-114.8,125.2h-282.5
		c-63.4,0-114.8-56.1-114.8-125.2V430.5C-361.5,361.3-310.1,305.2-246.7,305.2z"/>
	<path class="st1" d="M-176.6,702c0,26.2-21.3,47.5-47.5,47.5h0c-26.2,0-47.5-21.3-47.5-47.5v0c0-26.2,21.3-47.5,47.5-47.5h0
		C-197.9,654.5-176.6,675.8-176.6,702L-176.6,702z M55.9,422.9c0,26.2-21.3,47.5-47.5,47.5h0c-26.2,0-47.5-21.3-47.5-47.5v0
		c0-26.2,21.3-47.5,47.5-47.5h0C34.6,375.4,55.9,396.7,55.9,422.9L55.9,422.9z M-155.3,374.8c-16.6,0-32.1,3.1-46.5,9.4
		c-14.5,6.1-27.1,14.5-37.8,25.2c-10.7,10.7-19.2,23.3-25.5,37.8c-6.1,14.5-9.1,30-9.1,46.5s3,32.1,9.1,46.5
		c6.3,14.5,14.8,27.2,25.5,38.1c10.7,10.7,23.3,19.2,37.8,25.5c14.5,6.3,30,9.4,46.5,9.4H-56c6.5,0,12.1,1,16.8,3.1
		c4.7,2.1,7,6.5,7,13.3c0,6.5-2.3,12.1-7,16.8c-4.7,4.7-10.3,7-16.8,7h-101.3c10,13.7,16.1,30.3,16.1,48.4
		c0,17.3-5.5,33.4-14.7,46.8H-56c16.3,0,31.7-3,46.2-9.1c14.5-6.3,27.1-14.8,37.8-25.5c10.7-11,19.2-23.6,25.5-37.8
		c6.3-14.5,9.4-30,9.4-46.5c0-16.3-3.1-31.4-9.4-45.1c-6.3-13.8-14.8-25.5-25.5-35.3C17.3,539.6,4.7,532-9.8,526.6
		c-14.5-5.6-29.9-8.4-46.2-8.4h-99.4c-6.5,0-12.1-2.3-16.8-7c-4.7-4.9-7-10.7-7-17.5c0-6.5,2.3-12.1,7-16.8c4.7-4.7,10.3-7,16.8-7
		h95.6c-9.4-13.4-14.9-29.6-14.9-47c0-17.9,6-34.5,15.9-48.2H-155.3z"/>
</g>
</svg>
