<svg xmlns="http://www.w3.org/2000/svg" xml:space="preserve" id="Layer_1" x="0" y="0" version="1.1" viewBox="118.8 -0.04 274.4 512.18"><style>.st0{fill:#e52a1c}</style><g id="_x3C_Group_x3E_"><path d="M176 390.1 141.7 410c-14.1 8.1-22.9 23.3-22.9 39.6v39.6c0 17.6 19 28.6 34.3 19.9l34.3-19.9c14.1-8.1 22.9-23.3 22.9-39.6V410c0-17.6-19-28.6-34.3-19.9M267.4 196.6l-125.7 72.6c-14.1 8.1-22.9 23.3-22.9 39.6v39.6c0 17.6 19 28.6 34.3 19.9l125.7-72.6c14.1-8.1 22.9-23.3 22.9-39.6v-39.6c0-17.6-19-28.6-34.3-19.9M358.8 3 141.7 128.5c-14.1 8.1-22.9 23.3-22.9 39.6v39.6c0 17.6 19 28.6 34.3 19.9L370.3 102c14.1-8.1 22.9-23.3 22.9-39.6V22.9C393.1 5.3 374.1-5.7 358.8 3" class="st0"/></g></svg>