<?xml version="1.0" encoding="UTF-8" standalone="no"?>
<svg
   xmlns:dc="http://purl.org/dc/elements/1.1/"
   xmlns:cc="http://creativecommons.org/ns#"
   xmlns:rdf="http://www.w3.org/1999/02/22-rdf-syntax-ns#"
   xmlns:svg="http://www.w3.org/2000/svg"
   xmlns="http://www.w3.org/2000/svg"
   width="64mm"
   height="64mm"
   viewBox="0 0 64 64"
   version="1.1"
   id="svg898">
  <defs
     id="defs892" />
  <metadata
     id="metadata895">
    <rdf:RDF>
      <cc:Work
         rdf:about="">
        <dc:format>image/svg+xml</dc:format>
        <dc:type
           rdf:resource="http://purl.org/dc/dcmitype/StillImage" />
        <dc:title></dc:title>
      </cc:Work>
    </rdf:RDF>
  </metadata>
  <g
     id="layer1">
    <path
       id="cloud-upload"
       d="m 63.999948,34.285731 a 17.033293,17.033293 0 0 1 -4.406235,11.428568 14.856655,14.856655 0 0 1 -10.55805,4.571428 h -2.178561 v -6.857139 h 2.178561 A 8.0044292,8.0044292 0 0 0 54.504416,41.118327 10.183788,10.183788 0 0 0 57.14281,34.285731 11.442004,11.442004 0 0 0 45.714251,22.857173 c -0.37683,0 -2.312648,0.241803 -3.490288,0.393502 A 1.1359993,1.1359993 0 0 1 41.00286,22.487082 L 40.537483,21.129528 A 14.102711,14.102711 0 0 0 28.821257,11.497829 13.665957,13.665957 0 0 0 14.091416,28.276812 l 0.488099,2.087681 a 1.1428564,1.1428564 0 0 1 -0.782255,1.354176 l -2.053987,0.62062 a 6.7940986,6.7940986 0 0 0 -4.8860757,6.517846 4.6043628,4.6043628 0 0 0 0.9464197,2.808045 5.5388308,5.5388308 0 0 0 4.089282,1.763384 h 5.250006 v 6.857137 H 11.892899 A 12.235604,12.235604 0 0 1 2.2121047,45.633903 11.506439,11.506439 0 0 1 5.8514086e-5,38.857135 13.5727,13.5727 0 0 1 6.9442617,26.97321 C 6.8863778,26.359414 6.8571876,25.747771 6.8571876,25.142857 A 20.563484,20.563484 0 0 1 45.843766,16.000009 18.306983,18.306983 0 0 1 64,34.285707 Z M 32.923239,32.122512 a 1.1428564,1.1428564 0 0 0 -1.846543,0 l -8.591651,11.775239 a 1.1428564,1.1428564 0 0 0 0.923268,1.816548 h 5.163091 v 12.571418 a 1.1428564,1.1428564 0 0 0 1.14285,1.142858 h 4.571428 a 1.1428564,1.1428564 0 0 0 1.142859,-1.142858 V 45.714299 h 5.163084 a 1.1428564,1.1428564 0 0 0 0.923265,-1.816548 z"
       style="stroke-width:2.28572;fill:#45a1ff;fill-opacity:1" />
  </g>
</svg>
