<svg xmlns="http://www.w3.org/2000/svg" width="256" height="256" preserveAspectRatio="xMidYMid"><path fill="#73CC58" d="M256 127.948 128.052 0 0 127.948 128.052 256 256 127.948ZM128.052 34.023l47.1 47.17c-15.43-4.149-31.3-6.281-47.162-6.281a179.015 179.015 0 0 0-47.162 6.28l47.224-47.169ZM86.104 179.857a86.402 86.402 0 0 1 41.948-10.766c14.913 0 29.235 3.75 41.947 10.766l-41.947 41.948-41.948-41.948Zm101.389-17.493a110.701 110.701 0 0 0-59.503-17.335 110.613 110.613 0 0 0-59.51 17.335l-33.019-33.02c26.704-19.618 58.85-30.267 92.639-30.267 33.79 0 65.9 10.58 92.639 30.268l-33.246 33.019Z"/></svg>