<svg xmlns="http://www.w3.org/2000/svg" xmlns:xlink="http://www.w3.org/1999/xlink" version="1.1" id="Layer_1" x="0px" y="0px" style="enable-background:new 0 0 512 512;" xml:space="preserve" viewBox="-0.05 27.99 512.05 456.01">
<g>
	<path d="M505.4,460.4c8.8-14.8,8.8-33.2,0-48L296.8,51c-8.4-14.6-24.1-23.4-40.9-23c-16.8-0.2-32.4,8.5-40.9,23l-67.2,117.1   l16.6,10.2c50.3,28.9,92,70.6,120.9,120.9c25.8,44.3,40.7,94,43.5,145.2h-47.3c-3-42.8-15.7-84.4-37.1-121.5   c-24.6-43.4-60.4-79.4-103.6-104.3l-17.3-9.6L60.8,317.7L77.4,328c42.4,24.8,70.9,67.8,77.4,116.4H46.1c-2.7-0.1-5.1-1.5-6.4-3.8   c-1.6-2.5-1.6-5.8,0-8.3l30.7-51.2c-10.2-8.8-21.9-15.8-34.5-20.5L6.4,413c-8.6,14.6-8.6,32.7,0,47.3c8.3,14.7,24,23.8,40.9,23.7   h148.4v-20.5c0-34.3-8.8-68-25.6-97.9c-14.1-24.1-33-45-55.6-61.4l23.7-40.9c29.6,20.5,54.3,47.4,72.3,78.7   c21.3,37,32.6,78.9,32.6,121.5v19.2h126v-19.2c-0.1-64.7-17.3-128.3-49.9-184.2c-28.7-50.7-69-93.9-117.7-126l48-83.2   c1.3-2.3,3.7-3.8,6.4-3.8c2.7,0.1,5.1,1.5,6.4,3.8l209.2,361.4c1.4,2.4,1.4,5.3,0,7.7c-1.2,2.4-3.7,3.9-6.4,3.8h-49.3v39.7h49.3   c16.8,0.2,32.3-8.9,40.3-23.7V460.4z"/>
</g>
</svg>