<svg xmlns="http://www.w3.org/2000/svg" width="256" height="256" viewBox="0 0 256 256"><defs><style>.\38 bdb9b56-9f7f-496f-ad48-075fec5a3a72{fill:#24292e;}.\35 f1d6284-1e62-4658-a518-417396b7a9ac{fill:#d66b1d;}.dc64e4d7-e07a-47f5-b4f9-1057f1b9448a{fill:#fff;}.dd31b318-7fe9-40fd-b237-51834167b4b2{fill:none;}</style></defs><title>servarr_light_</title><g id="1b20c530-7405-41bf-b1d2-5838acbfeda5" data-name="Layer 2"><g id="abda4e0e-64b9-4ab8-afd5-32789e8c6a96" data-name="servarr"><g id="94d21c39-7d00-4bb5-b0ce-c7db4832bb7a" data-name="servarr_light_"><circle class="8bdb9b56-9f7f-496f-ad48-075fec5a3a72" cx="128" cy="128" r="126.061"/><path class="5f1d6284-1e62-4658-a518-417396b7a9ac" d="M128,3.879a124.121,124.121,0,0,1,87.767,211.888A124.121,124.121,0,0,1,40.233,40.233,123.311,123.311,0,0,1,128,3.879M128,0A128,128,0,1,0,256,128,128,128,0,0,0,128,0Z"/><circle class="dc64e4d7-e07a-47f5-b4f9-1057f1b9448a" cx="128" cy="128" r="111"/><polygon class="5f1d6284-1e62-4658-a518-417396b7a9ac" points="95 110.728 95 148.833 128 167.886 161 148.833 161 110.728 128 91.675 95 110.728"/><polygon class="8bdb9b56-9f7f-496f-ad48-075fec5a3a72" points="177 56.685 177 74.006 192 82.666 207 74.006 207 56.685 192 48.025 177 56.685"/><polygon class="8bdb9b56-9f7f-496f-ad48-075fec5a3a72" points="48 56.685 48 74.006 63 82.666 78 74.006 78 56.685 63 48.025 48 56.685"/><polygon class="8bdb9b56-9f7f-496f-ad48-075fec5a3a72" points="48 182.498 48 199.818 63 208.478 78 199.818 78 182.498 63 173.837 48 182.498"/><polygon class="8bdb9b56-9f7f-496f-ad48-075fec5a3a72" points="177 182.498 177 199.818 192 208.478 207 199.818 207 182.498 192 173.837 177 182.498"/><path class="dd31b318-7fe9-40fd-b237-51834167b4b2" d="M205.829,78.563,192.064,86.51l-12.279-7.089L156.336,102.87l-3.778-2.182L176.007,77.24,174,76.081V55.223l5.836-3.369a91.973,91.973,0,0,0-103.672,0L82,55.223V76.081l-2.195,1.268L103.253,100.8l-3.778,2.181L76.026,79.53l-12.09,6.98L50.171,78.563a92.074,92.074,0,0,0,0,99.326l13.765-7.947,12.279,7.089,21.56-21.56,3.778,2.181-21.56,21.56L82,180.371v20.858L76.164,204.6a91.973,91.973,0,0,0,103.672,0L174,201.229V180.371l1.818-1.05-21.56-21.56,3.778-2.181,21.56,21.56,12.468-7.2,13.765,7.947a92.074,92.074,0,0,0,0-99.326ZM127.5,131.371l-3-3,3-3,3,3Z"/><path class="5f1d6284-1e62-4658-a518-417396b7a9ac" d="M220.507,128.226a92.352,92.352,0,0,1-14.619,49.927l2.594,1.5a95.542,95.542,0,0,0,0-102.849l-2.594,1.5A92.352,92.352,0,0,1,220.507,128.226Z"/><path class="5f1d6284-1e62-4658-a518-417396b7a9ac" d="M127.645,35.365a92.323,92.323,0,0,1,52.112,16.083l2.876-1.661a95.5,95.5,0,0,0-109.975,0l2.876,1.661A92.322,92.322,0,0,1,127.645,35.365Z"/><path class="5f1d6284-1e62-4658-a518-417396b7a9ac" d="M34.784,128.226A92.343,92.343,0,0,1,49.4,78.3l-2.594-1.5a95.542,95.542,0,0,0,0,102.849l2.594-1.5A92.343,92.343,0,0,1,34.784,128.226Z"/><path class="5f1d6284-1e62-4658-a518-417396b7a9ac" d="M127.645,221.087A92.322,92.322,0,0,1,75.534,205l-2.876,1.66a95.5,95.5,0,0,0,109.975,0L179.757,205A92.325,92.325,0,0,1,127.645,221.087Z"/><polygon class="5f1d6284-1e62-4658-a518-417396b7a9ac" points="102.767 100.652 79.194 77.078 75.396 79.271 98.969 102.845 102.767 100.652"/><polygon class="5f1d6284-1e62-4658-a518-417396b7a9ac" points="154.043 157.918 175.717 179.593 179.515 177.4 157.841 155.725 154.043 157.918"/><polygon class="5f1d6284-1e62-4658-a518-417396b7a9ac" points="97.26 155.616 75.586 177.29 79.384 179.483 101.058 157.809 97.26 155.616"/><polygon class="5f1d6284-1e62-4658-a518-417396b7a9ac" points="156.132 102.735 179.705 79.162 175.907 76.969 152.334 100.542 156.132 102.735"/><rect class="5f1d6284-1e62-4658-a518-417396b7a9ac" x="125.378" y="126.258" width="4.236" height="4.236" transform="translate(-53.433 127.753) rotate(-45)"/></g></g></g></svg>