<?xml version="1.0" encoding="UTF-8"?>
<svg xmlns="http://www.w3.org/2000/svg" xmlns:xlink="http://www.w3.org/1999/xlink" width="463px" height="512px" viewBox="0 0 463 512" version="1.1">
<g id="surface1">
<path style=" stroke:none;fill-rule:evenodd;fill:rgb(12.54902%,68.235294%,41.960784%);fill-opacity:1;" d="M 100.621094 2.71875 C 60.257812 13.019531 25.679688 42.703125 10.46875 80.113281 C -0.832031 107.914062 -1.625 146.046875 8.484375 175.824219 C 16.25 198.699219 32.785156 222.59375 50.96875 237.210938 C 61.371094 245.574219 91.617188 263.488281 140.484375 290.21875 L 164.871094 303.558594 L 125.710938 304.136719 C 87.898438 304.695312 86.160156 304.84375 75.269531 308.449219 C 48.34375 317.351562 23.980469 337.5625 12.808594 360.257812 C 3.785156 378.59375 0.902344 392.3125 1.765625 412.792969 C 2.59375 432.261719 6.113281 445.238281 14.828125 460.894531 C 25.265625 479.648438 49.300781 499.230469 72.105469 507.5625 L 82.328125 511.296875 L 217.363281 511.675781 C 371.019531 512.109375 361.820312 512.738281 388.34375 499.964844 C 417.808594 485.777344 439.402344 464.175781 452.105469 436.171875 C 466.289062 404.902344 466.914062 364.09375 453.71875 330.550781 C 448.515625 317.335938 441.515625 305.304688 432.230469 293.644531 C 417.25 274.828125 404.746094 266.375 333.746094 227.066406 L 300.886719 208.878906 L 339.375 208.070312 C 376.105469 207.300781 378.371094 207.09375 389.117188 203.535156 C 420.175781 193.25 446.480469 168.730469 456.828125 140.417969 C 463.742188 121.496094 465.054688 97.242188 460.207031 77.9375 C 452.503906 47.292969 430.441406 21.285156 400.566406 7.652344 C 383.324219 -0.21875 387.695312 -0.0078125 243.519531 0.105469 C 120.589844 0.199219 109.722656 0.398438 100.621094 2.71875 M 118.210938 2.296875 C 68.859375 5.992188 25.824219 40.84375 8.660156 91.019531 C 4.019531 104.59375 2.382812 118.488281 3.230469 137.144531 C 4.820312 172.132812 19.308594 203.585938 45.859375 229.703125 C 57.621094 241.273438 63.476562 245.25 90.769531 260.21875 C 124.296875 278.601562 126.304688 279.71875 147.0625 291.507812 C 165.972656 302.246094 170.1875 304.953125 168.804688 305.464844 C 168.457031 305.59375 149.171875 306.140625 125.953125 306.671875 C 82.472656 307.675781 81.636719 307.78125 64.734375 314.464844 C 43.003906 323.058594 21.160156 345.132812 10.464844 369.300781 C 2.007812 388.410156 0.523438 419.664062 7.164062 438.855469 C 18.0625 470.378906 43.097656 496.050781 71.773438 505.121094 C 87.691406 510.15625 107.117188 510.773438 233.75 510.25 L 355.34375 509.746094 L 368.003906 505.988281 C 404.46875 495.160156 431.964844 471.847656 449.191406 437.140625 C 458.835938 417.714844 462.324219 399.539062 461.148438 374.855469 C 459.328125 336.5625 442.34375 302.671875 411.425781 275.628906 C 402.738281 268.035156 395.4375 263.554688 360.972656 244.695312 C 347.8125 237.496094 328.300781 226.648438 317.609375 220.59375 C 306.917969 214.539062 297.578125 209.582031 296.851562 209.582031 C 294.183594 209.582031 295.632812 207.050781 298.746094 206.265625 C 300.515625 205.824219 317.140625 205.4375 335.6875 205.40625 C 374.875 205.34375 382.390625 204.421875 399.671875 197.550781 C 419.476562 189.671875 440.867188 169.335938 451.46875 148.296875 C 458.886719 133.578125 460.871094 124.101562 460.871094 103.382812 C 460.867188 82.722656 458.914062 73.480469 451.351562 58.375 C 439.359375 34.40625 416.414062 14.65625 390.523438 6.007812 L 379.265625 2.246094 L 251.90625 2.035156 C 181.859375 1.917969 121.695312 2.035156 118.210938 2.296875 M 121.730469 31.847656 C 98.589844 36.570312 84.300781 42.714844 70.023438 54.074219 C 47.664062 71.871094 33.773438 100.554688 33.773438 128.933594 C 33.773438 171.074219 53.9375 204.34375 93.074219 226.785156 C 108.136719 235.425781 137.65625 251.777344 159.726562 263.710938 C 165.144531 266.640625 179.488281 274.648438 191.601562 281.507812 C 203.714844 288.367188 214.320312 293.976562 215.171875 293.976562 C 217.066406 293.976562 216.84375 300.34375 217.164062 237.714844 C 217.3125 208.703125 217.984375 183.835938 218.65625 182.453125 C 221.808594 175.976562 223.609375 175.824219 297.722656 175.824219 C 374.683594 175.824219 376.886719 175.621094 393.050781 167.039062 C 404.722656 160.839844 412.933594 153.0625 419.523438 141.976562 C 427.402344 128.722656 430.632812 117.613281 430.632812 103.761719 C 430.632812 68.484375 405.09375 38.476562 370.003906 32.519531 C 361.207031 31.023438 128.835938 30.394531 121.730469 31.847656 M 113.359375 36.082031 C 92.949219 40.453125 73.265625 51.617188 59.859375 66.425781 C 50.394531 76.878906 44.828125 86.476562 39.851562 100.914062 C 36.59375 110.378906 36.082031 114.15625 36.003906 129.40625 C 35.898438 150.503906 37.980469 159.507812 47.378906 178.632812 C 56.65625 197.507812 71.644531 212.304688 94.289062 224.945312 C 103.191406 229.914062 124.722656 242.007812 142.136719 251.820312 C 186.695312 276.925781 213.027344 290.945312 214.261719 290.214844 C 214.839844 289.875 215.316406 265.71875 215.316406 236.535156 C 215.316406 178.425781 215.160156 179.566406 223.773438 175.113281 C 227.222656 173.332031 238.507812 173.011719 297.980469 173.011719 C 375.316406 173.011719 376.824219 172.871094 393.1875 164.175781 C 425.804688 146.84375 438.550781 106.164062 422.007812 72.207031 C 417.523438 63.011719 402.289062 48.050781 391.800781 42.546875 C 374.800781 33.628906 377.554688 33.789062 244.164062 33.894531 C 142.554688 33.972656 121.570312 34.324219 113.359375 36.082031 M 247.261719 221.890625 C 246.839844 224.015625 246.496094 248.351562 246.503906 275.964844 C 246.511719 303.582031 246.097656 327.484375 245.59375 329.082031 C 243.390625 336.015625 241.617188 336.175781 166.6875 336.175781 C 88.746094 336.175781 87.210938 336.328125 70.371094 345.6875 C 34.671875 365.523438 22.734375 412.644531 44.78125 446.734375 C 54.984375 462.511719 70.410156 473.398438 89.484375 478.273438 C 99.90625 480.9375 105.410156 481.054688 218.9375 481.054688 C 316.167969 481.054688 339.40625 480.691406 348.070312 479.035156 C 413.167969 466.585938 447.851562 401.523438 422.210938 339.964844 C 414.929688 322.484375 403.765625 308.019531 388.414062 296.175781 C 381.257812 290.65625 352.125 273.871094 314.53125 253.613281 C 306.015625 249.023438 288.195312 239.140625 274.933594 231.644531 C 261.667969 224.152344 250.1875 218.023438 249.425781 218.023438 C 248.660156 218.023438 247.6875 219.761719 247.261719 221.890625 M 249.089844 274.675781 C 249.089844 333.652344 249.257812 332.429688 240.632812 336.886719 C 237.183594 338.667969 225.898438 338.988281 166.425781 338.988281 C 89.242188 338.988281 87.53125 339.148438 71.472656 347.703125 C 49.527344 359.394531 37.511719 378.398438 35.636719 404.394531 C 33.6875 431.453125 47.757812 456.15625 72.675781 469.421875 C 89.835938 478.558594 86.855469 478.390625 224.199219 477.878906 C 362.257812 477.359375 354.085938 477.917969 374.714844 467.589844 C 402.347656 453.753906 419.15625 433.023438 426.605469 403.585938 C 432.867188 378.835938 427.445312 348.035156 412.792969 325.144531 C 402.191406 308.582031 387.730469 296.265625 363.785156 283.402344 C 356.820312 279.660156 340.988281 270.792969 328.601562 263.699219 C 305.144531 250.257812 251.054688 220.835938 249.808594 220.835938 C 249.414062 220.835938 249.089844 245.0625 249.089844 274.675781 "/>
<path style=" stroke:none;fill-rule:evenodd;fill:rgb(2.352941%,96.078431%,51.372549%);fill-opacity:1;" d="M 118.210938 2.296875 C 68.859375 5.992188 25.824219 40.84375 8.660156 91.019531 C 4.019531 104.59375 2.382812 118.488281 3.230469 137.144531 C 4.820312 172.132812 19.308594 203.585938 45.859375 229.703125 C 57.621094 241.273438 63.476562 245.25 90.769531 260.21875 C 124.296875 278.601562 126.304688 279.71875 147.0625 291.507812 C 165.972656 302.246094 170.1875 304.953125 168.804688 305.464844 C 168.457031 305.59375 149.171875 306.140625 125.953125 306.671875 C 82.472656 307.675781 81.636719 307.78125 64.734375 314.464844 C 43.003906 323.058594 21.160156 345.132812 10.464844 369.300781 C 2.007812 388.410156 0.523438 419.664062 7.164062 438.855469 C 18.0625 470.378906 43.097656 496.050781 71.773438 505.121094 C 87.691406 510.15625 107.117188 510.773438 233.75 510.25 L 355.34375 509.746094 L 368.003906 505.988281 C 404.46875 495.160156 431.964844 471.847656 449.191406 437.140625 C 458.835938 417.714844 462.324219 399.539062 461.148438 374.855469 C 459.328125 336.5625 442.34375 302.671875 411.425781 275.628906 C 402.738281 268.035156 395.4375 263.554688 360.972656 244.695312 C 347.8125 237.496094 328.300781 226.648438 317.609375 220.59375 C 306.917969 214.539062 297.578125 209.582031 296.851562 209.582031 C 294.183594 209.582031 295.632812 207.050781 298.746094 206.265625 C 300.515625 205.824219 317.140625 205.4375 335.6875 205.40625 C 374.875 205.34375 382.390625 204.421875 399.671875 197.550781 C 419.476562 189.671875 440.867188 169.335938 451.46875 148.296875 C 458.886719 133.578125 460.871094 124.101562 460.871094 103.382812 C 460.867188 82.722656 458.914062 73.480469 451.351562 58.375 C 439.359375 34.40625 416.414062 14.65625 390.523438 6.007812 L 379.265625 2.246094 L 251.90625 2.035156 C 181.859375 1.917969 121.695312 2.035156 118.210938 2.296875 M 121.730469 31.847656 C 98.589844 36.570312 84.300781 42.714844 70.023438 54.074219 C 47.664062 71.871094 33.773438 100.554688 33.773438 128.933594 C 33.773438 171.074219 53.9375 204.34375 93.074219 226.785156 C 108.136719 235.425781 137.65625 251.777344 159.726562 263.710938 C 165.144531 266.640625 179.488281 274.648438 191.601562 281.507812 C 203.714844 288.367188 214.320312 293.976562 215.171875 293.976562 C 217.066406 293.976562 216.84375 300.34375 217.164062 237.714844 C 217.3125 208.703125 217.984375 183.835938 218.65625 182.453125 C 221.808594 175.976562 223.609375 175.824219 297.722656 175.824219 C 374.683594 175.824219 376.886719 175.621094 393.050781 167.039062 C 404.722656 160.839844 412.933594 153.0625 419.523438 141.976562 C 427.402344 128.722656 430.632812 117.613281 430.632812 103.761719 C 430.632812 68.484375 405.09375 38.476562 370.003906 32.519531 C 361.207031 31.023438 128.835938 30.394531 121.730469 31.847656 M 247.261719 221.890625 C 246.839844 224.015625 246.496094 248.351562 246.503906 275.964844 C 246.511719 303.582031 246.097656 327.484375 245.59375 329.082031 C 243.390625 336.015625 241.617188 336.175781 166.6875 336.175781 C 88.746094 336.175781 87.210938 336.328125 70.371094 345.6875 C 34.671875 365.523438 22.734375 412.644531 44.78125 446.734375 C 54.984375 462.511719 70.410156 473.398438 89.484375 478.273438 C 99.90625 480.9375 105.410156 481.054688 218.9375 481.054688 C 316.167969 481.054688 339.40625 480.691406 348.070312 479.035156 C 413.167969 466.585938 447.851562 401.523438 422.210938 339.964844 C 414.929688 322.484375 403.765625 308.019531 388.414062 296.175781 C 381.257812 290.65625 352.125 273.871094 314.53125 253.613281 C 306.015625 249.023438 288.195312 239.140625 274.933594 231.644531 C 261.667969 224.152344 250.1875 218.023438 249.425781 218.023438 C 248.660156 218.023438 247.6875 219.761719 247.261719 221.890625 "/>
</g>
</svg>
