<svg id="Layer_1" data-name="Layer 1" xmlns="http://www.w3.org/2000/svg" viewBox="0 0 79.37 90.71"><defs><style>.cls-1{fill:#1b1b1f;}</style></defs><title>BASH_logo-transparent-bg-bw</title><path class="cls-1" d="M73.85,18.52l-28.64-17a10.79,10.79,0,0,0-11,0l-28.64,17A11.42,11.42,0,0,0,0,28.36v34a11.42,11.42,0,0,0,5.52,9.84l28.64,17a10.79,10.79,0,0,0,11,0l28.64-17a11.42,11.42,0,0,0,5.52-9.84v-34A11.42,11.42,0,0,0,73.85,18.52ZM51.67,71.61l0,2.44a0.9,0.9,0,0,1-.42.75l-1.45.83c-0.23.12-.42,0-0.42-0.32l0-2.4a4.71,4.71,0,0,1-3.3.32,0.44,0.44,0,0,1-.16-0.54l0.52-2.21A0.92,0.92,0,0,1,46.73,70a0.58,0.58,0,0,1,.14-0.1,0.29,0.29,0,0,1,.23,0,4,4,0,0,0,3-.38,4,4,0,0,0,2.24-3.43c0-1.24-.68-1.76-2.32-1.77-2.08,0-4-.4-4.05-3.47a8.89,8.89,0,0,1,3.36-6.8l0-2.47a0.89,0.89,0,0,1,.42-0.76l1.4-.89c0.23-.12.42,0,0.42,0.33l0,2.47a4.56,4.56,0,0,1,2.74-.33,0.44,0.44,0,0,1,.18.57L54,55.16a0.94,0.94,0,0,1-.25.44,0.58,0.58,0,0,1-.14.11,0.33,0.33,0,0,1-.21,0,3.63,3.63,0,0,0-2.64.43,3.32,3.32,0,0,0-2,2.94c0,1.12.59,1.46,2.57,1.5,2.65,0,3.79,1.2,3.82,3.86A9.48,9.48,0,0,1,51.67,71.61Zm15-4.11a0.57,0.57,0,0,1-.22.55l-7.24,4.4a0.21,0.21,0,0,1-.34-0.21V70.37a0.52,0.52,0,0,1,.33-0.46l7.13-4.27a0.21,0.21,0,0,1,.34.21V67.5Zm5-41.81L44.57,42.43c-3.38,2-5.87,4.19-5.87,8.26V84.07c0,2.44,1,4,2.5,4.48a8.77,8.77,0,0,1-1.5.15,8.87,8.87,0,0,1-4.52-1.25l-28.64-17A9.42,9.42,0,0,1,2,62.36v-34a9.42,9.42,0,0,1,4.54-8.1l28.64-17a8.83,8.83,0,0,1,9,0l28.64,17a9.36,9.36,0,0,1,4.4,6.55C76.29,24.79,74.15,24.23,71.66,25.69Z"/></svg>