<?xml version="1.0" encoding="UTF-8"?><svg id="shelly-logo" xmlns="http://www.w3.org/2000/svg" viewBox="0 0 104 28.81"><defs><style>.cls-1{fill:#4495d1;}</style></defs><path id="Shelly_Logo" class="cls-1" d="M25.52,6.24l1.8-3.58h-3.38c-1.53,0-2.27,.64-2.27,1.9,.24,1.51,.69,2.98,1.33,4.36,.75,1.67,1.2,3.47,1.33,5.3,0,2.74-1.5,4.78-4.54,6.17-2.5,1.06-5.2,1.58-7.92,1.53-2.5,.04-4.98-.35-7.35-1.16-3.04-1.09-4.54-2.74-4.54-4.98,0-3.26,2.76-4.88,8.31-4.88h7.25c-.22,.77-.74,1.42-1.43,1.82-.7,.39-1.49,.6-2.29,.59h-1.18c-1-.03-2,.17-2.91,.59-.97,.34-1.62,1.25-1.63,2.27,0,1.13,.74,2.02,2.22,2.66,1.17,.49,2.43,.74,3.7,.74,1.46,.05,2.9-.33,4.14-1.08,1.24-.77,1.97-2.14,1.92-3.6-.13-1.61-.55-3.18-1.23-4.64-.69-1.49-1.11-3.1-1.23-4.74C15.69,1.95,18.57,.13,24.39,0h2.42c1.26-.02,2.52,.2,3.7,.64,1.23,.32,2.12,1.38,2.22,2.64,.03,1.23-.63,2.36-1.7,2.96h-5.5Zm78.48,12.35c-.42,1.5-1.82,2.51-3.38,2.44h-3.72c-.63,1.92-1.57,3.73-2.79,5.35-1.23,1.55-3.11,2.44-5.08,2.42-1.1,.07-2.17-.34-2.96-1.11-.61-.69-.94-1.59-.91-2.52,0-.82,.17-1.63,.52-2.37,.29-.7,.77-1.3,1.38-1.75h-1.16c-.61,.03-1.21-.2-1.65-.62l-.3,.15c-.65,.3-1.36,.46-2.07,.47h-5.87c-.7,.08-1.41-.14-1.95-.59-.1,.05-.17,.1-.27,.15-.64,.32-1.35,.49-2.07,.49H39.04c-1.13,0-1.7-.42-1.7-1.23,.02-.39,.1-.78,.22-1.16l1.08-3.18-5.67,4.69c-.6,.57-1.39,.89-2.22,.91h-3.08L34.08,3.03h5.4l-4.51,12.75,4.07-3.35c1.13-.94,2.55-1.45,4.02-1.45,.99,0,2,.25,2,1.26-.09,.57-.25,1.12-.47,1.65l-1.7,4.88h5.15c-.34-.61-.52-1.3-.49-2-.03-1.81,.92-3.5,2.49-4.41,1.52-.94,3.29-1.42,5.08-1.38h2.17c1.15-.02,2.29,.18,3.35,.59,1.1,.29,1.9,1.24,2,2.37,.07,1.12-.54,2.17-1.55,2.66-1.26,.67-5.2,2.17-5.2,2.17l1.95-5.4h-3.26l-1.23,3.6c-.07,.18-.1,.37-.1,.57,0,.81,.64,1.21,1.95,1.21h8.56s.03-.05,.03-.1l5.55-15.61h5.4l-5.57,15.61h4.78l5.55-15.61h5.4l-5.57,15.61h4.29c.03-.2,.07-.4,.12-.59l2.59-7.15h5.55l-2.79,7.72h3.11l2.74-7.72h5.5l-2.71,7.72,6.29-.02Zm-12.78,2.86c-.77,.05-1.47,.47-1.87,1.13-.54,.64-.84,1.44-.86,2.27-.01,.66,.33,1.28,.89,1.63l1.85-5.03Z"/></svg>