<svg xmlns="http://www.w3.org/2000/svg" xmlns:xlink="http://www.w3.org/1999/xlink" version="1.1" id="Layer_1" x="0px" y="0px" style="enable-background:new 0 0 512 512;" xml:space="preserve" viewBox="-0.03 80.39 512.03 351.21">
<style type="text/css">
	.st0{fill:#6C79CA;}
</style>
<g>
	<g>
		<g>
			<path class="st0" d="M119.9,409.4c0,7.3,0,14,0,22.2c-34.6,0-63.9-12.8-86.7-38.2c-33-36.8-42.4-80-23.8-126.1     C31.8,211,76.3,187.7,136.1,190c4.9-36.6,21.4-66.7,51.7-88c21.9-15.5,46.6-22.6,73.3-21.5c54.5,2.3,106.4,41.8,115.6,109.7     c48-3.4,87.5,13.2,115.1,54.1c18.2,26.9,23.8,57.1,18,89.1C499.4,390,441.1,438.8,393,430.6c0-6.8,0-13.7,0-21.5     c33.7-2.5,61.1-16.4,80-45.2c13.8-21,18.4-44.3,14.3-68.8c-5.1-30.8-21.5-54.1-48.5-69.5c-27-15.5-55.4-15.5-85.8-5.5     c3.2-37.9-6.4-70.1-35.3-94.1c-17.8-14.9-38.5-22.2-61.8-22.1c-30,0.4-54.7,12.3-74.1,35.2c-19.2,23.1-24.5,50.5-22.1,81.1     c-36-11.7-68.8-8.9-98.1,14c-20.7,16.2-33.2,37.7-36.4,63.8C18.2,351.8,54.4,404.4,119.9,409.4z"/>
			<path class="st0" d="M179.4,431.5c-6-5.2-11.6-9.8-18-14.9c10.4-12.6,20.5-24.9,30.5-37.2c6.2-7.5,12.2-15.3,18.7-22.4     c4.2-4.6,4.4-7.6,0.4-12.6c-15.9-19.4-31.4-39.1-47.5-59.4c6-4.8,11.5-9.4,18.7-15.5c1.1,1.8,1.8,3.7,3,5.3     c17.3,21.7,34.6,43.4,51.9,65.1c7.1,8.9,7.1,13-0.2,21.9C218,384.7,199,408,179.4,431.5z"/>
			<path class="st0" d="M338.4,409.4c0,7.5,0,14.4,0,21.9c-28.4,0-56.5,0-84.9,0c0-7.5,0-14.4,0-21.9     C281.9,409.4,310,409.4,338.4,409.4z"/>
		</g>
	</g>
</g>
</svg>