<svg xmlns="http://www.w3.org/2000/svg" width="442.857" height="442.857" viewBox="0 0 117.173 117.173"><g transform="translate(-39.688 -207.42)"><circle cx="98.274" cy="266.006" r="58.586" style="opacity:1;fill:#f44336;fill-opacity:1;stroke:none;stroke-width:.35299999;stroke-miterlimit:4;stroke-dasharray:.353,.70599999;stroke-dashoffset:0;stroke-opacity:1"/><g style="font-style:normal;font-variant:normal;font-weight:400;font-stretch:normal;font-size:81.49136353px;line-height:1.25;font-family:&quot;Source Sans Pro&quot;;-inkscape-font-specification:&quot;Source Sans Pro, Normal&quot;;font-variant-ligatures:normal;font-variant-caps:normal;font-variant-numeric:normal;font-feature-settings:normal;text-align:start;letter-spacing:0;word-spacing:0;writing-mode:lr-tb;text-anchor:start;fill:#fff;fill-opacity:1;stroke:none;stroke-width:.26458329"><path d="M61.03 268.553h32.15v-7.64h6.367v7.64h31.833v5.73h-28.013q11.778 12.096 29.923 18.144l-3.502 6.685q-18.144-7.322-30.24-21.965v24.512H93.18v-24.83q-10.824 13.37-29.605 21.646l-4.138-5.411q17.826-7.003 28.65-18.782H61.03Zm16.87-32.47H64.532v-5.73h29.923v5.73H83.949v8.595h10.823v5.73H83.95q-1.273 10.823-14.325 17.826l-3.501-5.411q10.505-5.094 11.46-12.415H62.62v-5.73H77.9Zm21.01-5.73h31.515v5.73h-13.688v8.595h15.28v5.73h-15.28v17.19h-6.048v-17.19H98.274v-5.73h12.415v-8.595H98.91Z" aria-label="цаЮ" style="font-style:normal;font-variant:normal;font-weight:300;font-stretch:normal;font-size:81.4916687px;font-family:&quot;Source Sans Pro&quot;;-inkscape-font-specification:&quot;Source Sans Pro, Light&quot;;font-variant-ligatures:normal;font-variant-caps:normal;font-variant-numeric:normal;font-feature-settings:normal;text-align:start;writing-mode:lr-tb;text-anchor:start;fill:#fff;fill-opacity:1;stroke-width:.26458329" transform="translate(1.91)"/></g></g></svg>