<?xml version="1.0" encoding="utf-8"?>
<!-- Generator: Adobe Illustrator 27.7.0, SVG Export Plug-In . SVG Version: 6.00 Build 0)  -->
<svg version="1.1" id="Layer_1" xmlns="http://www.w3.org/2000/svg" xmlns:xlink="http://www.w3.org/1999/xlink" x="0px" y="0px"
	 viewBox="0 0 512 512" style="enable-background:new 0 0 512 512;" xml:space="preserve">
<style type="text/css">
	.st0{fill:#4696E5;}
</style>
<g>
	<path class="st0" d="M2.5,73.3c-7.1-38.5,28.1-76.6,67-73.1c36.8,1.2,66.2,38.4,59.3,74.5c17.7,17.4,34.8,35.4,52.9,52.4
		c11.4-24.7,22.9-49.4,34.6-73.9c7.1-14,26.1-19.5,39.5-11.3c8.8,6.4,15.9,14.6,23.5,22.4c9.9,10.8,9.2,28.5-1,38.8
		C220.5,161,162.6,218.8,104.8,276.6c-10.5,10.5-28.8,10.8-39.6,0.6c-7.3-7.6-15.6-14.4-21.7-23c-8.2-13.4-2.6-32.4,11.4-39.5
		c24.5-11.7,49.2-23.2,73.9-34.6c-16.9-18.1-35-35.2-52.4-52.9C42.4,133.6,6.5,107.9,2.5,73.3z"/>
	<path class="st0" d="M200.7,200.1c22-21.7,60.8-22,82.9-0.4c19.8,19.5,39.5,39.1,58.9,59c23.6,25.2,18.5,69.6-9.9,89.1
		c-6.5-6.6-13.4-13-19.5-20c17.2-9.7,22.5-35,9.3-50.1c-16.3-16.9-33.1-33.1-49.5-49.8c-7.4-7.8-15.8-16.1-27.1-16.6
		c-23.7-3.1-44.6,23.8-34.8,45.9c7.2,14.4,21.5,23.5,31.8,35.7c-3.5,10.6-6,21.7-5.8,33c-13.9-13.3-27.4-27-40.8-40.8
		C174.2,261.6,176.5,221.1,200.7,200.1z"/>
	<path class="st0" d="M275.6,364.8c-23.6-25.2-18.5-69.6,9.9-89.1c6.5,6.6,13.4,13,19.6,19.9c-17.2,9.7-22.5,35-9.3,50.1
		c16.3,16.9,33.1,33.1,49.5,49.8c7.4,7.8,15.8,16.1,27.2,16.6c23.7,3.2,44.6-23.8,34.8-45.9c-7.2-14.5-21.5-23.5-31.8-35.7
		c3.5-10.6,6-21.7,5.8-33c13.9,13.3,27.4,27,40.8,40.8c21.7,23.5,19.4,64-4.7,85c-21.9,21.7-60.7,22-82.9,0.4
		C314.8,404.3,295,384.7,275.6,364.8z"/>
	<path class="st0" d="M437.4,421.3c10.8-10.7,21.3-21.6,32.3-32c10.1,10.1,22.1,19.9,25.4,34.5c5.8,26,10,52.4,15.1,78.6
		c1.4,5.8-4.7,11.1-10.3,9.3c-27-5.6-54.4-9.3-81-16.1c-13.1-4.2-21.8-15.4-31.2-24.6c10.7-10.7,21.4-21.5,32.2-32
		C431.2,453.6,452.3,432.4,437.4,421.3z"/>
</g>
</svg>
