<svg xmlns="http://www.w3.org/2000/svg" width="75" height="75" fill="none"><path fill="#279CEB" fill-rule="evenodd" d="M15.469.055c-.34.014-.619.058-.619.098s-.186.072-.412.072c-.227 0-.413.034-.413.075 0 .041-.135.075-.3.075-.165 0-.3.034-.3.075 0 .041-.135.075-.3.075-.17 0-.3.036-.3.083 0 .051-.091.07-.232.05-.15-.022-.245.001-.27.066-.022.056-.118.1-.214.1-.097 0-.198.038-.226.083-.028.045-.131.067-.23.048-.117-.023-.178 0-.178.068 0 .059-.08.102-.188.102-.103 0-.187.034-.187.075 0 .041-.084.075-.188.075-.103 0-.187.034-.187.075 0 .041-.084.075-.188.075-.103 0-.187.034-.187.075 0 .041-.067.075-.15.075-.082 0-.15.034-.15.075 0 .041-.068.075-.15.075-.083 0-.15.034-.15.075 0 .041-.068.075-.15.075-.083 0-.15.035-.15.078 0 .052-.045.053-.141.002-.114-.061-.14-.05-.132.053.007.08-.04.125-.12.119-.073-.006-.133.028-.134.075-.002.082-.494.348-.644.348-.039 0-.12.067-.179.15-.06.082-.16.15-.225.15-.064 0-.166.067-.225.15-.06.082-.16.15-.225.15-.064 0-.166.067-.225.15-.06.082-.154.15-.21.15-.056 0-.231.135-.39.3-.159.165-.325.3-.37.3a.082.082 0 0 0-.08.083c0 .046-.052.063-.116.038-.064-.024-.097-.013-.074.026.057.091-1.672 1.82-1.763 1.763-.039-.023-.05.01-.026.073.025.065.008.117-.038.117a.083.083 0 0 0-.083.082c0 .046-.101.177-.225.293-.124.116-.225.25-.225.297 0 .048-.034.066-.075.04-.041-.025-.075.016-.075.092s-.068.186-.15.246c-.083.06-.15.16-.15.225 0 .064-.068.165-.15.225-.083.06-.15.16-.15.225 0 .064-.068.165-.15.225-.083.06-.15.156-.15.214 0 .058-.07.167-.157.242-.086.075-.135.172-.108.216.027.043-.004.1-.07.124a.162.162 0 0 0-.098.169c.014.08-.028.118-.119.11-.101-.008-.117.011-.056.072.115.115.104.227-.018.18-.072-.027-.09.013-.066.142.02.104-.001.18-.05.18-.045 0-.083.068-.083.15 0 .083-.034.15-.075.15-.041 0-.075.068-.075.15 0 .083-.034.15-.075.15-.041 0-.075.085-.075.188s-.034.188-.075.188c-.041 0-.075.084-.075.187s-.034.188-.075.188c-.041 0-.075.084-.075.187 0 .109-.043.188-.102.188-.069 0-.09.062-.066.187.02.11 0 .188-.048.188-.046 0-.084.101-.084.225S.791 12.3.75 12.3c-.041 0-.075.118-.075.262 0 .145-.034.263-.075.263-.041 0-.075.118-.075.262 0 .145-.034.263-.075.263-.041 0-.075.152-.075.337 0 .186-.034.338-.075.338-.041 0-.075.183-.075.406 0 .258-.034.418-.094.438-.138.046-.138 45.216 0 45.262.06.02.094.18.094.438 0 .223.034.406.075.406.041 0 .075.152.075.337 0 .186.034.338.075.338.041 0 .075.118.075.262 0 .145.034.263.075.263.041 0 .075.118.075.262 0 .145.034.263.075.263.041 0 .075.101.075.225s.034.225.075.225c.041 0 .075.084.075.187s.034.188.075.188c.041 0 .075.084.075.187s.034.188.075.188c.041 0 .075.084.075.187s.034.188.075.188c.041 0 .075.084.075.187s.034.188.075.188c.041 0 .075.067.075.15 0 .082.034.15.075.15.041 0 .075.067.075.15 0 .082.034.15.075.15.041 0 .075.067.075.15 0 .082.037.15.083.15.046 0 .063.052.039.115-.025.065.002.134.062.156a.114.114 0 0 1 .066.148c-.023.058-.007.106.035.106s.154.16.249.356c.094.196.232.422.306.502.074.08.135.19.135.243 0 .055.028.099.062.099.035 0 .11.093.169.206.058.114.165.261.237.328.073.067.132.159.132.205 0 .046.16.254.356.463.765.813 2.409 2.473 2.45 2.473.024 0 .183.135.353.3.17.165.348.3.396.3.048 0 .136.067.195.15.06.082.16.15.225.15.064 0 .166.067.225.15.06.082.16.15.225.15.064 0 .166.067.225.15.06.082.168.15.241.15.074 0 .134.03.134.068 0 .037.101.103.225.146s.225.115.225.16c0 .046.059.073.131.06.086-.014.128.023.121.108-.008.104.018.114.132.053.096-.051.141-.05.141.002 0 .043.067.078.15.078.082 0 .15.034.15.075 0 .041.067.075.15.075.082 0 .15.034.15.075 0 .041.067.075.15.075.083 0 .15.034.15.075 0 .041.084.075.188.075.103 0 .187.034.187.075 0 .041.084.075.188.075.103 0 .187.034.187.075 0 .041.084.075.188.075.108 0 .187.043.187.102 0 .069.062.09.188.066.109-.02.187 0 .187.048 0 .046.098.084.217.084.12 0 .234.045.255.1.026.066.12.09.271.067.14-.02.232-.001.232.05 0 .047.13.083.305.083.183 0 .285.03.257.075-.028.046.087.075.296.075.188 0 .342.034.342.075 0 .041.183.075.406.075.259 0 .418.034.438.094.046.138 45.216.138 45.262 0 .02-.06.18-.094.438-.094.223 0 .406-.034.406-.075 0-.041.152-.075.337-.075.186 0 .338-.034.338-.075 0-.041.118-.075.263-.075.144 0 .262-.034.262-.075 0-.041.118-.075.263-.075.144 0 .262-.034.262-.075 0-.041.101-.075.225-.075s.225-.038.225-.084c0-.049.078-.069.188-.048.125.024.187.002.187-.066 0-.059.08-.102.188-.102.103 0 .187-.034.187-.075 0-.041.084-.075.188-.075.103 0 .187-.034.187-.075 0-.041.084-.075.188-.075.103 0 .187-.034.187-.075 0-.041.067-.075.15-.075.082 0 .15-.034.15-.075 0-.041.067-.075.15-.075.083 0 .15-.034.15-.075 0-.041.067-.075.15-.075.082 0 .15-.033.15-.073 0-.04.05-.053.112-.03a.12.12 0 0 0 .156-.072c.025-.064.088-.099.14-.079.054.02.12-.018.145-.087.027-.069.093-.107.148-.086.055.021.147-.026.204-.105.057-.079.163-.143.237-.143.073 0 .133-.034.133-.075 0-.041.05-.075.112-.075s.113-.034.113-.075c0-.041.043-.075.096-.075.053 0 .144-.068.204-.15.06-.083.16-.15.225-.15.064 0 .165-.068.225-.15.06-.083.147-.15.195-.15.048 0 .226-.135.396-.3.17-.165.343-.3.384-.3a.075.075 0 0 0 .075-.075c0-.041.05-.075.113-.075.061 0 .112-.032.112-.072 0-.078 1.46-1.544 1.718-1.726.086-.06.157-.153.157-.206 0-.053.135-.235.3-.405.165-.17.3-.348.3-.396 0-.048.068-.136.15-.195.082-.06.15-.156.15-.214 0-.058.06-.16.132-.227.072-.067.18-.214.237-.328.059-.113.134-.206.169-.206.034 0 .062-.068.062-.15 0-.083.03-.15.068-.15.037 0 .103-.101.146-.225s.117-.225.165-.225.068-.05.044-.113c-.027-.07 0-.112.075-.112.083 0 .107-.047.08-.15-.021-.083-.008-.15.029-.15.037 0 .068-.068.068-.15 0-.083.034-.15.075-.15.041 0 .075-.068.075-.15 0-.083.034-.15.075-.15.041 0 .075-.068.075-.15 0-.083.034-.15.075-.15.041 0 .075-.085.075-.188s.034-.187.075-.187c.041 0 .075-.085.075-.188s.034-.187.075-.187c.041 0 .075-.084.075-.188 0-.108.043-.187.102-.187.069 0 .09-.062.066-.188-.02-.11 0-.187.048-.187.046 0 .084-.101.084-.225s.034-.225.075-.225c.041 0 .075-.118.075-.263 0-.144.034-.262.075-.262.041 0 .075-.116.075-.258 0-.142.034-.28.075-.305.041-.025.075-.179.075-.342 0-.162.034-.295.075-.295.041 0 .075-.183.075-.406 0-.259.034-.418.094-.438.075-.025.094-4.618.094-22.631 0-18.013-.02-22.606-.094-22.631-.06-.02-.094-.18-.094-.438 0-.223-.034-.406-.075-.406-.041 0-.075-.154-.075-.342 0-.209-.03-.324-.075-.296-.045.028-.075-.074-.075-.258 0-.167-.034-.304-.075-.304-.041 0-.075-.118-.075-.263 0-.144-.034-.262-.075-.262-.041 0-.075-.101-.075-.225s-.038-.225-.084-.225c-.049 0-.069-.078-.048-.188.024-.125.003-.187-.066-.187-.059 0-.102-.08-.102-.188 0-.103-.034-.187-.075-.187-.041 0-.075-.085-.075-.188s-.034-.187-.075-.187c-.041 0-.075-.085-.075-.188s-.034-.187-.075-.187c-.041 0-.075-.068-.075-.15 0-.083-.034-.15-.075-.15-.041 0-.075-.068-.075-.15 0-.083-.03-.15-.069-.15-.037 0-.09-.134-.118-.298-.028-.165-.09-.29-.138-.281-.048.009-.079-.039-.068-.106a.162.162 0 0 0-.098-.169c-.065-.025-.1-.074-.079-.11.022-.035-.026-.135-.108-.222-.08-.087-.147-.202-.147-.257 0-.054-.068-.148-.15-.207-.082-.06-.15-.16-.15-.225 0-.064-.068-.166-.15-.225-.082-.06-.15-.16-.15-.225 0-.064-.067-.166-.15-.225-.082-.06-.15-.154-.15-.21 0-.056-.135-.231-.3-.39-.165-.159-.3-.31-.3-.335 0-.062-2.15-2.215-2.213-2.215-.027 0-.178-.135-.337-.3-.159-.165-.334-.3-.39-.3-.056 0-.15-.068-.21-.15-.06-.083-.156-.15-.214-.15-.058 0-.16-.06-.227-.132a1.405 1.405 0 0 0-.328-.237c-.113-.059-.206-.135-.206-.169s-.053-.062-.118-.062a.394.394 0 0 1-.23-.113.424.424 0 0 0-.258-.112c-.079 0-.144-.05-.144-.11 0-.067-.044-.094-.112-.067-.065.024-.132-.01-.16-.082-.026-.069-.094-.107-.15-.085-.057.021-.103.007-.103-.034 0-.04-.067-.072-.15-.072-.083 0-.15-.034-.15-.075 0-.041-.067-.075-.15-.075-.082 0-.15-.034-.15-.075 0-.041-.068-.075-.15-.075-.082 0-.15-.034-.15-.075 0-.041-.084-.075-.188-.075-.103 0-.187-.034-.187-.075 0-.041-.084-.075-.188-.075-.103 0-.187-.034-.187-.075 0-.041-.084-.075-.188-.075-.103 0-.187-.034-.187-.075 0-.041-.084-.075-.188-.075-.103 0-.187-.034-.187-.075 0-.041-.101-.075-.225-.075S62.7.79 62.7.75c0-.041-.118-.075-.263-.075-.144 0-.262-.034-.262-.075 0-.041-.135-.075-.3-.075-.165 0-.3-.034-.3-.075 0-.041-.135-.075-.3-.075-.165 0-.3-.034-.3-.075 0-.041-.183-.075-.406-.075-.259 0-.418-.034-.438-.094-.029-.087-42.69-.16-44.662-.076Zm43.712 2.94.931.157c5.957 1 10.85 6.041 11.83 12.191.14.88.14 43.441 0 44.332A14.764 14.764 0 0 1 59.674 71.94c-.89.14-43.453.142-44.331.002-6.157-.983-11.173-5.85-12.19-11.83l-.16-.932c-.093-.545-.093-42.818 0-43.362.039-.224.11-.643.158-.932.236-1.408 1.06-3.637 1.72-4.65.107-.165.238-.385.29-.49.087-.172.372-.57.96-1.34.268-.35 1.936-2.017 2.285-2.285.77-.588 1.168-.873 1.34-.96.105-.052.325-.183.49-.29 1-.65 3.241-1.483 4.613-1.714.268-.045.656-.112.863-.149.51-.09 42.939-.105 43.468-.015Zm-23.668 9.687c-.248.036-.737.102-1.088.148-.35.046-.756.111-.9.145a27.1 27.1 0 0 1-.675.146c-5.596 1.149-9.991 4.594-11.439 8.966-1.038 3.138-.734 7.27.733 9.938.853 1.552 1.706 2.504 3.591 4.01.936.748 3.684 2.232 5.352 2.89.33.13.702.281.826.335.123.053.343.138.487.189.144.05.33.118.413.15a8.9 8.9 0 0 0 .412.15c.144.05.33.12.413.155.175.076 1.645.549 2.925.943 4.119 1.266 6.477 2.669 7.265 4.32.673 1.41.665 3.354-.018 4.783-.262.548-1.512 1.95-1.739 1.95-.045 0-.222.095-.395.21-2.386 1.603-8.427 1.554-12.169-.097l-.538-.236a18.604 18.604 0 0 1-4.24-2.574c-.733-.588-.803-.611-1.02-.334-.085.107-.433.503-.775.88a196.481 196.481 0 0 1-1.409 1.55l-.675.75c-.35.392-.705.782-.788.868-.082.086-.369.405-.637.708-.268.304-.597.673-.73.82-.329.36-.282.437.805 1.325.144.118.28.235.3.26.16.192 2.407 1.795 2.516 1.795.027 0 .138.062.247.139.192.133 1.2.693 1.587.88.196.096.501.231 1.403.623 1.238.539 3.654 1.23 5.253 1.503 1.13.193 1.37.228 2.044.3 2.889.31 5.723.287 8.25-.066a23.203 23.203 0 0 0 3.788-.827c8.022-2.473 12.092-8.913 10.645-16.84-.098-.538-.424-1.763-.558-2.1-.877-2.201-2.273-4.093-3.975-5.386a8.67 8.67 0 0 1-.45-.356c-.062-.07-.677-.477-1.237-.818-.64-.39-3.35-1.727-3.5-1.727a.309.309 0 0 1-.18-.064c-.039-.035-.357-.173-.708-.307-.35-.134-.705-.272-.787-.308-.19-.081-1.59-.541-3.188-1.046-1.471-.466-3.437-1.156-4.163-1.462l-.9-.38c-2.55-1.075-3.665-2.396-3.665-4.346 0-1.696.843-2.94 2.553-3.77.443-.214.532-.247 1.075-.402 1.918-.548 4.826-.576 6.825-.067 1.408.36 1.79.478 2.663.825 1.263.504 2.783 1.38 4.012 2.313.564.428.442.49 1.524-.765.075-.087.31-.358.525-.602l.501-.571.488-.569c.206-.242.51-.59.675-.776l.535-.601c.13-.145.512-.585.85-.976l.613-.71-.362-.34a13.097 13.097 0 0 0-.69-.602 13.31 13.31 0 0 1-.412-.34c-.875-.8-3.572-2.347-5.147-2.951-.35-.135-.696-.276-.768-.314a.701.701 0 0 0-.277-.07c-.08 0-.167-.033-.193-.074-.025-.041-.112-.075-.193-.075a.686.686 0 0 1-.276-.071c-.15-.082-.751-.237-1.93-.498-1.37-.304-1.469-.32-3.413-.554-.755-.091-5.241-.087-5.887.005Z" clip-rule="evenodd"/><path fill="#171C28" fill-rule="evenodd" d="M15.787 3.118c-6.638.8-11.886 6.08-12.671 12.747-.173 1.47-.173 41.8 0 43.27.207 1.76.608 3.118 1.394 4.727 1.553 3.18 4.341 5.772 7.64 7.105.103.041.246.105.318.142a.704.704 0 0 0 .266.066.37.37 0 0 1 .207.062c.088.076.68.244 1.609.455 1.203.274.886.27 22.95.27 17.192 0 21.6-.019 22.05-.096a21.51 21.51 0 0 0 1.556-.325 13.264 13.264 0 0 0 1.425-.446l.338-.137c1.918-.761 3.991-2.219 5.397-3.796.633-.709 1.709-2.19 1.709-2.35 0-.041.026-.086.057-.1.053-.023.78-1.468.927-1.843.036-.093.097-.245.136-.338.119-.286.359-1.05.441-1.406.202-.87.24-1.05.33-1.575.077-.45.097-4.865.097-22.087 0-23.213.022-21.68-.343-23.213a10.455 10.455 0 0 1-.121-.582c-.022-.134-.07-.263-.107-.286-.037-.022-.067-.121-.067-.22 0-.098-.034-.199-.075-.225-.041-.025-.075-.112-.075-.192a.73.73 0 0 0-.066-.277 5.016 5.016 0 0 1-.142-.318c-1.103-2.73-3.03-5.065-5.62-6.812-.255-.172-.497-.313-.537-.313-.04 0-.084-.026-.098-.059-.023-.054-1.1-.598-1.712-.866-1-.436-2.537-.828-3.865-.984-1.358-.16-42.022-.158-43.347.002Zm25.104 9.409c1.797.179 2.502.283 3.884.575 1.228.259 3 .796 3.55 1.076.16.081.354.147.432.147.079 0 .143.034.143.075 0 .041.049.075.109.075.665 0 4.435 2.414 5.774 3.697.454.434.495.306-.43 1.358-.215.244-.509.58-.653.747-.144.167-.414.477-.6.688a159.1 159.1 0 0 0-.747.857c-.226.261-.446.512-.489.558a28.3 28.3 0 0 0-.49.568c-.384.453-.53.62-1.21 1.38-.303.338-.4.33-.843-.069a4.013 4.013 0 0 0-.506-.39c-.118-.07-.215-.153-.215-.185 0-.033-.036-.059-.08-.059-.043 0-.282-.139-.532-.308a11.2 11.2 0 0 0-.84-.514 42.142 42.142 0 0 1-.648-.352c-.371-.208-1.666-.731-2.288-.925-4.542-1.415-9.186-.895-11.04 1.238-.293.337-.364.453-.527.861-.041.103-.11.272-.154.375-.227.538-.239 1.88-.021 2.438.36.924.69 1.363 1.458 1.938.557.417 2.292 1.324 2.533 1.324.077 0 .139.034.139.075 0 .041.06.075.135.075.074 0 .167.027.206.06.04.032.206.102.371.155.166.052.385.13.488.175.207.088.358.144.75.276l1.125.38c.474.159 1.47.481 2.213.715.742.235 1.417.455 1.5.49.082.035.369.137.637.225.268.089.63.226.806.305.174.08.348.144.386.144.038 0 .215.072.395.16.179.089.393.187.475.218.579.218 2.583 1.207 2.9 1.431.11.078.22.141.247.141.058 0 1.112.678 1.166.75.02.028.092.081.159.119.847.48 2.796 2.51 3.353 3.493.078.138.24.42.36.625a11.631 11.631 0 0 1 .773 1.632c.039.093.11.303.16.468.05.166.116.368.148.45.03.083.096.353.145.6.05.248.118.585.153.75.245 1.16.294 4.45.081 5.513-.045.227-.118.581-.161.788-.044.206-.098.485-.12.619-.024.134-.073.263-.11.286-.036.022-.066.117-.066.209 0 .092-.027.2-.06.24a1.69 1.69 0 0 0-.155.37 6.904 6.904 0 0 1-.25.638l-.238.525c-.658 1.468-2.242 3.435-3.722 4.622-.582.467-1.455 1.078-1.54 1.078-.027 0-.151.073-.276.162-.387.275-1.707.92-2.572 1.256l-.975.38c-.082.033-.301.1-.487.15-.186.05-.396.122-.468.16a.813.813 0 0 1-.314.067c-.101 0-.203.03-.226.067-.022.037-.168.085-.323.108-.155.022-.45.078-.656.124-2.905.65-7.574.778-10.988.303-1.432-.2-2.773-.49-4.237-.917-.29-.084-.593-.18-.675-.214-.083-.034-.37-.135-.638-.225-.73-.246-2.056-.81-2.625-1.117a54.28 54.28 0 0 0-.6-.317 3.609 3.609 0 0 1-.375-.212c-.074-.074-.49-.31-.619-.35-.072-.024-.131-.072-.131-.109 0-.036-.036-.066-.08-.066-.302 0-3.604-2.62-3.685-2.925-.024-.09 1.39-1.766 1.962-2.325.064-.062.368-.4.677-.75.308-.35.612-.688.675-.75.062-.062.245-.264.406-.45.16-.186.448-.506.64-.712.19-.207.528-.587.75-.844.435-.507.502-.537.737-.338.342.29.464.387.925.744 1.251.968 2.868 1.89 4.418 2.517.103.041.246.105.318.142a.729.729 0 0 0 .277.066c.08 0 .167.034.192.075.026.041.113.075.193.075.081 0 .206.03.277.068.072.037.282.107.468.155.186.048.441.119.568.157.127.038.318.07.427.07.108 0 .214.03.237.066.022.036.235.088.473.116.238.028.669.084.958.123 1.74.237 4.204.164 5.587-.165.637-.151.708-.174 1.201-.39.145-.064.348-.15.45-.194 1.008-.424 2.124-1.464 2.544-2.368.312-.672.375-.892.462-1.611.356-2.937-1.114-4.906-4.713-6.311a54.25 54.25 0 0 1-.357-.141 31.681 31.681 0 0 0-.356-.14 63.975 63.975 0 0 1-.356-.139 30.91 30.91 0 0 0-1.762-.593c-2.06-.647-3.926-1.272-4.388-1.468a13.944 13.944 0 0 0-.356-.145l-.338-.13c-.652-.251-1.033-.425-2.494-1.135-.7-.342-1.452-.734-1.67-.873-.217-.139-.413-.252-.435-.252-.052 0-.91-.577-1.162-.781a18.05 18.05 0 0 0-.447-.344c-1.93-1.424-4.123-4.564-4.123-5.902 0-.09-.03-.183-.067-.206-.037-.022-.086-.168-.109-.323a16.684 16.684 0 0 0-.125-.694c-.279-1.377-.22-5.187.084-5.509.037-.039.067-.18.067-.314s.034-.264.075-.29c.041-.025.075-.129.075-.23s.031-.243.069-.314c.038-.072.145-.333.239-.58.42-1.114 1.322-2.579 2.13-3.457.04-.046.216-.236.388-.425.952-1.037 2.755-2.327 4.224-3.02.31-.146.621-.298.693-.338a.607.607 0 0 1 .244-.073c.062 0 .113-.034.113-.075 0-.041.068-.075.15-.075.084 0 .21-.03.282-.066 1.104-.562 3.736-1.166 6.205-1.426.873-.092 4.03-.096 4.93-.006Z" clip-rule="evenodd"/><path fill="#279CEB" fill-rule="evenodd" d="M15.469.054c.113.017.299.017.412 0 .114-.017.02-.032-.206-.032-.227 0-.32.015-.206.032Zm43.65 0c.113.017.299.017.412 0 .114-.017.02-.032-.206-.032-.227 0-.32.015-.206.032ZM14.325.15c0 .041.118.075.263.075.144 0 .262-.034.262-.075 0-.041-.118-.075-.262-.075-.145 0-.263.034-.263.075Zm45.825 0c0 .041.118.075.263.075.144 0 .262-.034.262-.075 0-.041-.118-.075-.262-.075-.145 0-.263.034-.263.075ZM13.575.3c0 .041.101.075.225.075s.225-.034.225-.075c0-.041-.101-.075-.225-.075s-.225.034-.225.075Zm47.4 0c0 .041.101.075.225.075s.225-.034.225-.075c0-.041-.101-.075-.225-.075s-.225.034-.225.075Zm-48 .15c0 .041.101.075.225.075s.225-.034.225-.075c0-.041-.101-.075-.225-.075s-.225.034-.225.075Zm48.6 0c0 .041.101.075.225.075s.225-.034.225-.075c0-.041-.101-.075-.225-.075s-.225.034-.225.075ZM12.525.6c0 .041.067.075.15.075.082 0 .15-.034.15-.075 0-.041-.067-.075-.15-.075-.083 0-.15.034-.15.075Zm49.65 0c0 .041.068.075.15.075.082 0 .15-.034.15-.075 0-.041-.068-.075-.15-.075-.083 0-.15.034-.15.075ZM12.037.75c-.025.041.023.075.108.075.085 0 .155-.034.155-.075 0-.041-.049-.075-.108-.075-.06 0-.129.034-.155.075ZM62.7.75c0 .041.067.075.15.075.082 0 .15-.034.15-.075 0-.041-.068-.075-.15-.075-.083 0-.15.034-.15.075ZM11.55.9c0 .041.065.075.145.075.08 0 .167-.034.192-.075.027-.043-.036-.075-.145-.075-.106 0-.192.034-.192.075Zm51.6 0c0 .041.068.075.15.075.083 0 .15-.034.15-.075 0-.041-.068-.075-.15-.075-.082 0-.15.034-.15.075Zm-51.975.15c0 .041.067.075.15.075.083 0 .15-.034.15-.075 0-.041-.067-.075-.15-.075-.082 0-.15.034-.15.075Zm52.35 0c0 .041.07.075.154.075.085 0 .134-.034.108-.075-.025-.041-.095-.075-.154-.075-.06 0-.108.034-.108.075ZM10.8 1.2c0 .041.067.075.15.075.083 0 .15-.034.15-.075 0-.041-.067-.075-.15-.075-.082 0-.15.034-.15.075Zm53.1 0c0 .041.068.075.15.075.082 0 .15-.034.15-.075 0-.041-.068-.075-.15-.075-.082 0-.15.034-.15.075Zm-53.4.15c0 .041.05.075.113.075.061 0 .112-.034.112-.075 0-.041-.05-.075-.112-.075s-.113.034-.113.075Zm53.775 0c0 .041.05.075.112.075s.113-.034.113-.075c0-.041-.05-.075-.112-.075s-.113.034-.113.075Zm-54.843.437c-.237.11-.431.243-.432.294 0 .134.146.116.2-.023.024-.064.09-.099.147-.077.057.021.103.007.103-.033s.067-.073.15-.073c.082 0 .15-.034.15-.075 0-.041.067-.075.15-.075.082 0 .15-.034.15-.075 0-.115-.147-.082-.618.137ZM64.95 1.65c0 .041.067.075.15.075.082 0 .15.034.15.075 0 .041.067.075.15.075.082 0 .15.036.15.08 0 .043.036.057.08.03.044-.028.126.012.181.089.056.076.13.11.164.076.078-.078-.142-.248-.563-.433-.367-.16-.462-.175-.462-.067Zm-56.642.773a7.92 7.92 0 0 0-.65.44c-.08.069-.224.167-.32.218-.23.124-.392.29-.335.347.025.025.11-.027.186-.116.078-.09.189-.162.247-.162.058 0 .155-.068.214-.15.06-.083.16-.15.225-.15.064 0 .166-.068.225-.15.06-.083.14-.15.18-.15.156 0 .641-.268.643-.356.003-.14-.063-.115-.615.229Zm57.767-.21c0 .061.065.112.144.112.08 0 .196.05.258.112a.394.394 0 0 0 .23.113c.065 0 .118.028.118.062 0 .035.093.11.206.169.114.058.261.165.328.237.067.073.164.132.216.132.052 0 .158.073.236.162.077.089.162.14.189.113.05-.051-.254-.35-.356-.35-.032 0-.103-.044-.157-.097-.433-.425-1.412-.956-1.412-.766Zm-50.363.797a98.51 98.51 0 0 1-.862.148c-1.372.23-3.613 1.063-4.612 1.714a6.547 6.547 0 0 1-.491.29c-.172.087-.57.372-1.34.96-.35.268-2.017 1.936-2.285 2.285-.588.77-.873 1.168-.96 1.34a6.546 6.546 0 0 1-.29.49c-.66 1.013-1.484 3.242-1.72 4.65l-.157.932c-.094.544-.094 42.818 0 43.362l.158.931c1.018 5.98 6.034 10.848 12.19 11.83.88.14 43.441.14 44.332 0A14.764 14.764 0 0 0 71.94 59.674c.14-.89.142-43.453.002-44.331-.982-6.15-5.874-11.192-11.83-12.192l-.932-.157c-.53-.091-42.958-.076-43.468.015Zm43.423.106c1.328.156 2.864.548 3.865.984.612.268 1.69.812 1.712.866.014.033.058.059.098.059s.282.141.538.313c2.59 1.747 4.516 4.082 5.619 6.812.041.103.105.246.142.318a.728.728 0 0 1 .066.277c0 .08.034.167.075.193.041.025.075.126.075.224 0 .099.03.198.067.22.036.023.084.152.107.286.022.134.076.396.12.582.366 1.533.343 0 .343 23.212 0 17.223-.019 21.638-.096 22.088-.09.526-.128.704-.33 1.575-.082.355-.322 1.12-.44 1.406-.04.093-.1.245-.137.338-.147.376-.874 1.82-.927 1.843-.031.014-.057.059-.057.1 0 .16-1.076 1.641-1.709 2.35-1.406 1.577-3.479 3.035-5.397 3.796l-.338.137c-.643.267-1.818.571-2.981.77-.45.078-4.858.098-22.05.098-22.064 0-21.747.003-22.95-.27-.928-.212-1.521-.38-1.609-.456a.37.37 0 0 0-.207-.062.701.701 0 0 1-.266-.066 4.985 4.985 0 0 0-.318-.142c-3.299-1.333-6.087-3.926-7.64-7.105-.786-1.609-1.187-2.967-1.394-4.727-.173-1.47-.173-41.8 0-43.27C3.9 9.198 9.149 3.919 15.787 3.118c1.326-.16 41.99-.162 43.348-.002Zm9.04.374c0 .077.535.575.575.535.022-.022-.08-.16-.228-.307-.255-.256-.347-.316-.347-.228Zm-61.727.262c-.134.125-.224.247-.2.27.023.024.164-.079.312-.227.327-.327.23-.363-.112-.043Zm-.598.523c0 .041-.037.075-.082.075-.124 0-1.583 1.491-1.552 1.586.015.046.38-.268.812-.696.9-.895 1.027-1.04.906-1.04-.046 0-.084.034-.084.075Zm63.235.051c.447.548 1.715 1.733 1.715 1.603 0-.114-1.618-1.729-1.732-1.729-.058 0-.053.041.017.126ZM3.697 6.502c-.132.15-.219.308-.192.35.029.048.061.036.084-.03.02-.06.131-.199.248-.308.117-.11.213-.22.213-.244 0-.106-.129-.021-.353.232Zm67.253-.237c0 .077.535.575.575.535.022-.022-.08-.16-.228-.307-.255-.256-.347-.316-.347-.228Zm-67.714.83c-.136.155-.049.228.098.082.064-.064.116-.136.116-.16 0-.078-.111-.038-.214.078Zm68.314-.077c0 .08.232.275.275.232.023-.024-.01-.095-.073-.159-.12-.119-.202-.149-.202-.073ZM2.998 7.48c-.25.294-.462.631-.422.67.056.057.274-.166.274-.28 0-.05.07-.151.157-.226.087-.076.146-.173.13-.217-.014-.046-.074-.024-.139.053Zm68.852-.048c0 .06.067.159.15.218.082.06.15.154.15.21 0 .122.215.35.274.29.043-.042-.202-.422-.44-.683-.102-.11-.134-.119-.134-.035Zm-69.512.975c-.054.087-.08.175-.06.197.052.051.272-.17.272-.274 0-.13-.107-.092-.212.077Zm70.112-.083c0 .04.059.143.131.227.072.085.131.192.131.239 0 .047.043.099.094.116.052.017.094-.022.094-.087 0-.066-.026-.119-.057-.119-.031 0-.101-.101-.156-.225-.096-.216-.237-.306-.237-.151ZM2.1 8.812c0 .07.036.113.08.099.045-.015.081-.06.081-.099 0-.039-.036-.083-.08-.098-.045-.014-.081.03-.081.098Zm-.177.357-.054.206c-.006.02-.074.127-.152.237-.078.11-.142.25-.142.314 0 .063-.034.136-.075.162-.041.025-.075.095-.075.154 0 .06.034.108.075.108.041 0 .075-.067.075-.15 0-.082.034-.15.075-.15.041 0 .075-.068.075-.15 0-.083.034-.15.075-.15.041 0 .075-.068.075-.15 0-.083.037-.15.083-.15.046 0 .065-.048.042-.106a.119.119 0 0 1 .072-.15c.062-.024.092-.077.066-.118-.077-.126-.168-.086-.215.093Zm70.943-.1c-.052.084.067.173.136.104.071-.071.058-.173-.023-.173a.15.15 0 0 0-.113.07Zm.225.4c.029.134.082.255.118.268.036.014.066.09.066.17 0 .078.034.143.075.143.041 0 .075.067.075.15 0 .083.034.15.075.15.093 0 .096-.11.009-.282a21.03 21.03 0 0 1-.23-.487c-.192-.415-.263-.457-.188-.112ZM1.275 10.613c0 .061.034.112.075.112.041 0 .075-.05.075-.112s-.034-.113-.075-.113c-.041 0-.075.05-.075.113Zm72.3 0c0 .061.034.112.075.112.041 0 .075-.05.075-.112s-.034-.113-.075-.113c-.041 0-.075.05-.075.113Zm-72.45.337c0 .083.034.15.075.15.041 0 .075-.067.075-.15 0-.082-.034-.15-.075-.15-.041 0-.075.067-.075.15Zm72.6 0c0 .083.034.15.075.15.041 0 .075-.067.075-.15 0-.082-.034-.15-.075-.15-.041 0-.075.067-.075.15Zm-72.75.375c0 .083.034.15.075.15.041 0 .075-.067.075-.15 0-.082-.034-.15-.075-.15-.041 0-.075.067-.075.15Zm72.9 0c0 .083.034.15.075.15.041 0 .075-.067.075-.15 0-.082-.034-.15-.075-.15-.041 0-.075.067-.075.15ZM.825 11.7c0 .083.034.15.075.15.041 0 .075-.067.075-.15 0-.082-.034-.15-.075-.15-.041 0-.075.067-.075.15Zm73.2 0c0 .083.034.15.075.15.041 0 .075-.067.075-.15 0-.082-.034-.15-.075-.15-.041 0-.075.067-.075.15Zm-73.3.275c-.078.078-.059.325.025.325.041 0 .075-.084.075-.188 0-.196-.017-.22-.1-.137Zm73.45.133c0 .105.034.192.075.192.041 0 .075-.066.075-.146 0-.08-.034-.166-.075-.191-.043-.027-.075.036-.075.145Zm-73.6.392c-.078.078-.059.325.025.325.041 0 .075-.084.075-.188 0-.196-.017-.22-.1-.137Zm35.387.033c-2.47.26-5.101.864-6.205 1.426a.74.74 0 0 1-.281.066c-.083 0-.151.034-.151.075 0 .041-.051.075-.113.075a.607.607 0 0 0-.244.073c-.072.04-.384.192-.693.338-1.469.693-3.272 1.983-4.224 3.02l-.389.424c-.807.88-1.71 2.344-2.13 3.457a8.03 8.03 0 0 1-.238.58.802.802 0 0 0-.07.315c0 .101-.033.205-.074.23-.041.026-.075.156-.075.29 0 .134-.03.275-.067.314-.305.322-.363 4.133-.084 5.509.046.227.102.54.125.694.023.155.072.3.109.323.037.023.067.116.067.206 0 1.338 2.194 4.478 4.123 5.902.14.103.34.258.447.344.252.204 1.11.781 1.162.781.022 0 .218.113.435.252.218.139.97.532 1.67.873 1.46.71 1.842.884 2.494 1.135l.338.13c.093.036.253.1.356.145.462.196 2.329.821 4.388 1.468.858.27 1.442.467 1.762.593l.356.14c.093.035.253.098.356.139.104.041.264.105.357.14 3.599 1.406 5.069 3.375 4.713 6.311-.087.72-.15.94-.462 1.611-.42.905-1.536 1.945-2.544 2.37-.102.042-.305.13-.45.193-.493.216-.564.239-1.201.39-1.383.33-3.847.402-5.587.165a66.77 66.77 0 0 0-.958-.123c-.238-.028-.451-.08-.473-.116-.023-.037-.13-.066-.237-.066-.109 0-.3-.032-.427-.07-.127-.038-.382-.11-.568-.157a3.066 3.066 0 0 1-.468-.155.71.71 0 0 0-.277-.068c-.08 0-.167-.034-.193-.075-.025-.041-.112-.075-.192-.075a.727.727 0 0 1-.277-.066 4.875 4.875 0 0 0-.318-.142c-1.55-.628-3.167-1.549-4.418-2.517a21.15 21.15 0 0 1-.925-.744c-.236-.2-.302-.169-.738.338-.221.258-.559.637-.75.843-.19.207-.478.527-.64.713-.16.186-.343.388-.405.45-.063.062-.367.4-.675.75-.309.35-.613.688-.677.75-.571.56-1.986 2.235-1.962 2.325.081.304 3.383 2.925 3.686 2.925.043 0 .079.03.079.066 0 .037.059.085.131.108.129.04.545.277.619.351.02.02.19.116.375.212.186.096.456.239.6.316.569.307 1.896.872 2.625 1.118.268.09.555.191.637.225.35.142 1.844.548 2.738.743 2.288.5 3.885.648 6.937.647 2.857 0 4.294-.13 6.226-.562.206-.046.501-.102.656-.124.155-.023.3-.071.323-.108.023-.037.125-.067.226-.067s.242-.03.314-.068A3.22 3.22 0 0 1 45 60.45c.186-.05.405-.118.487-.15l.975-.38c.865-.337 2.184-.982 2.572-1.257.124-.09.249-.162.276-.162.085 0 .958-.61 1.54-1.078 1.48-1.187 3.064-3.154 3.722-4.622.046-.103.153-.34.238-.525.085-.186.198-.472.25-.637.053-.166.122-.333.155-.372a.454.454 0 0 0 .06-.239c0-.093.03-.187.067-.21.036-.022.085-.15.108-.285.023-.134.077-.413.12-.62a66.1 66.1 0 0 0 .162-.787c.212-1.063.164-4.352-.081-5.513a72.16 72.16 0 0 1-.153-.75 5.668 5.668 0 0 0-.145-.6 8.995 8.995 0 0 1-.148-.45 6.385 6.385 0 0 0-.16-.468 11.596 11.596 0 0 0-.773-1.631 79.55 79.55 0 0 1-.36-.626c-.558-.983-2.506-3.013-3.353-3.493a.664.664 0 0 1-.16-.119c-.053-.072-1.107-.75-1.165-.75-.026 0-.138-.063-.247-.14-.317-.225-2.321-1.214-2.9-1.432a7.466 7.466 0 0 1-.475-.217c-.18-.089-.357-.161-.395-.161-.038 0-.212-.065-.387-.144a10.273 10.273 0 0 0-.805-.305 12.71 12.71 0 0 1-.637-.225 46.696 46.696 0 0 0-1.5-.49 150.32 150.32 0 0 1-2.213-.716l-1.125-.379a9.031 9.031 0 0 1-.75-.276 6.708 6.708 0 0 0-.487-.175 1.69 1.69 0 0 1-.372-.155.378.378 0 0 0-.206-.06c-.074 0-.135-.034-.135-.075 0-.041-.063-.075-.139-.075-.242 0-1.976-.907-2.533-1.324-.767-.575-1.097-1.014-1.459-1.939-.217-.556-.205-1.9.022-2.437.043-.103.113-.272.154-.375.163-.408.234-.524.527-.861 1.854-2.133 6.498-2.653 11.04-1.238.622.194 1.917.717 2.288.925.144.081.436.24.648.352.213.113.59.344.84.514.25.17.49.308.533.308.043 0 .079.026.079.059 0 .032.096.116.214.185a4 4 0 0 1 .507.39c.442.4.54.407.843.07.68-.762.826-.928 1.21-1.38.226-.268.447-.524.49-.57.043-.045.263-.296.489-.557.225-.26.561-.646.747-.857.186-.211.456-.52.6-.688.144-.167.438-.503.652-.747.926-1.052.885-.924.431-1.358-1.34-1.284-5.109-3.697-5.774-3.697-.06 0-.11-.034-.11-.075 0-.041-.063-.075-.142-.075-.078 0-.273-.066-.431-.147-.552-.28-2.323-.817-3.551-1.076-1.382-.292-2.087-.396-3.884-.575-.899-.09-4.056-.086-4.928.006Zm38.363.104c0 .104.034.188.075.188.041 0 .075-.084.075-.188 0-.103-.034-.187-.075-.187-.041 0-.075.084-.075.188Zm-32.925.04c1.944.234 2.044.25 3.413.553 1.179.262 1.78.417 1.93.499a.684.684 0 0 0 .276.071c.081 0 .168.034.194.075.025.041.112.075.192.075.081 0 .206.031.277.07.072.037.417.178.768.313 1.575.604 4.272 2.15 5.147 2.952.047.042.233.195.413.339.18.144.49.415.69.602l.361.34-.614.71a124.582 124.582 0 0 1-1.385 1.577c-.165.185-.468.534-.674.776a86.193 86.193 0 0 1-.99 1.14c-.213.244-.45.515-.524.602-1.082 1.255-.96 1.193-1.524.765-1.23-.933-2.749-1.809-4.013-2.313-.872-.347-1.254-.466-2.662-.825-2-.509-4.907-.48-6.825.067-.543.155-.632.188-1.075.403-1.71.828-2.553 2.073-2.553 3.77 0 1.948 1.114 3.27 3.666 4.346l.9.379c.725.306 2.69.996 4.162 1.462 1.597.505 2.997.965 3.188 1.046.082.036.436.174.787.308.35.134.67.272.709.307a.31.31 0 0 0 .178.064c.15 0 2.861 1.338 3.5 1.727.561.341 1.176.748 1.238.818.02.024.223.184.45.356 1.702 1.293 3.098 3.185 3.975 5.386.924 2.32 1.078 6.405.342 9.076-1.291 4.68-5.002 8.19-10.43 9.864-1.588.49-3.133.787-5.1.98-1.31.128-3.98.168-5.137.076-2.55-.202-3.621-.366-5.723-.872a23.634 23.634 0 0 1-5.565-2.133c-.33-.179-.69-.388-.799-.464-.11-.077-.22-.139-.247-.139-.109 0-2.356-1.603-2.516-1.795a4.618 4.618 0 0 0-.3-.26c-1.087-.888-1.134-.965-.806-1.325.134-.147.463-.516.73-.82.27-.303.556-.622.639-.708.082-.086.436-.476.787-.868.35-.391.654-.728.675-.749.038-.038.28-.305 1.409-1.55.342-.378.69-.774.774-.881.218-.277.288-.254 1.021.334a18.601 18.601 0 0 0 4.24 2.574l.538.236c3.742 1.651 9.783 1.7 12.169.098.172-.116.35-.211.395-.211.227 0 1.477-1.401 1.74-1.95.682-1.429.69-3.372.017-4.782-.788-1.652-3.146-3.055-7.266-4.321-1.28-.394-2.748-.867-2.924-.943a7.443 7.443 0 0 0-.413-.154c-.144-.05-.33-.117-.413-.15a12.472 12.472 0 0 0-.412-.151 8.51 8.51 0 0 1-.488-.19 38.594 38.594 0 0 0-.825-.334c-1.668-.658-4.416-2.142-5.352-2.89-1.22-.974-1.562-1.294-2.41-2.25-2.733-3.085-3.347-8.907-1.372-13.01 1.807-3.752 5.901-6.628 10.897-7.653.227-.047.53-.113.675-.147.144-.034.55-.099.9-.145.35-.046.84-.112 1.088-.148.646-.092 5.132-.097 5.887-.005Zm-41.025.486c0 .103.034.187.075.187.041 0 .075-.084.075-.188 0-.103-.034-.187-.075-.187-.041 0-.075.084-.075.188Zm74.1.041c0 .134.031.21.075.183.041-.025.075-.128.075-.229 0-.1-.034-.183-.075-.183-.041 0-.075.103-.075.23Zm-74.2.421c-.079.078-.058.4.025.4.041 0 .075-.101.075-.225 0-.233-.015-.26-.1-.175Zm74.35.17c0 .127.034.23.075.23.041 0 .075-.082.075-.183 0-.1-.034-.204-.075-.23-.044-.027-.075.05-.075.184Zm-74.55.793c0 .144.034.262.075.262.041 0 .075-.118.075-.262 0-.145-.034-.263-.075-.263-.041 0-.075.118-.075.263Zm74.7 0c0 .144.034.262.075.262.041 0 .075-.118.075-.262 0-.145-.034-.263-.075-.263-.041 0-.075.118-.075.263Zm.174 1.087c0 .268.014.378.03.244a2.378 2.378 0 0 0 0-.488c-.016-.134-.03-.024-.03.244Zm-74.926.037c0 .248.015.34.031.205a2.001 2.001 0 0 0 0-.45c-.017-.112-.031-.002-.03.245Zm0 43.576c0 .247.015.34.031.204a2.001 2.001 0 0 0 0-.45c-.017-.112-.031-.002-.03.245Zm74.926.075c0 .288.014.397.03.242a2.802 2.802 0 0 0 0-.525c-.017-.134-.03-.006-.03.282ZM.076 60.412c0 .144.034.262.075.262.041 0 .075-.118.075-.262 0-.145-.034-.263-.075-.263-.041 0-.075.118-.075.263Zm74.7 0c0 .144.034.262.075.262.041 0 .075-.118.075-.262 0-.145-.034-.263-.075-.263-.041 0-.075.118-.075.263Zm-74.55.745c0 .1.034.204.075.23.044.026.075-.05.075-.183 0-.127-.034-.23-.075-.23-.041 0-.075.082-.075.183Zm74.4.042c0 .124.034.225.075.225.041 0 .075-.101.075-.225s-.034-.225-.075-.225c-.041 0-.075.101-.075.225Zm-.1.425c-.079.078-.059.4.025.4.041 0 .075-.101.075-.225 0-.233-.015-.26-.1-.175Zm-74.15.212c0 .104.034.188.075.188.041 0 .075-.084.075-.188 0-.103-.034-.187-.075-.187-.041 0-.075.084-.075.188Zm.15.483c0 .08.034.167.075.193.043.026.075-.037.075-.146 0-.106-.034-.192-.075-.192-.041 0-.075.065-.075.146Zm73.8.042c0 .104.034.188.075.188.041 0 .075-.084.075-.188 0-.103-.034-.187-.075-.187-.041 0-.075.084-.075.188Zm-73.65.483c0 .08.034.167.075.193.043.026.075-.037.075-.146 0-.106-.034-.192-.075-.192-.041 0-.075.065-.075.145Zm73.5.047c0 .109.032.172.075.145.041-.025.075-.111.075-.191s-.034-.146-.075-.146c-.041 0-.075.086-.075.192ZM.825 63.3c0 .083.034.15.075.15.041 0 .075-.068.075-.15 0-.082-.034-.15-.075-.15-.041 0-.075.068-.075.15Zm73.2 0c0 .083.034.15.075.15.041 0 .075-.068.075-.15 0-.082-.034-.15-.075-.15-.041 0-.075.068-.075.15Zm-73.05.333c0 .06.034.129.075.154.041.026.075-.023.075-.108 0-.085-.034-.154-.075-.154-.041 0-.075.049-.075.108Zm72.9.042c0 .083.034.15.075.15.041 0 .075-.068.075-.15 0-.082-.034-.15-.075-.15-.041 0-.075.068-.075.15Zm-72.75.375c0 .082.034.15.075.15.041 0 .075-.068.075-.15 0-.082-.034-.15-.075-.15-.041 0-.075.068-.075.15Zm72.6 0c0 .082.034.15.075.15.041 0 .075-.068.075-.15 0-.082-.034-.15-.075-.15-.041 0-.075.068-.075.15Zm-72.45.338c0 .061.034.112.075.112.041 0 .075-.05.075-.112s-.034-.113-.075-.113c-.041 0-.075.05-.075.112Zm72.3 0c0 .061.034.112.075.112.041 0 .075-.05.075-.112s-.034-.113-.075-.113c-.041 0-.075.05-.075.112Zm-72.15.36c0 .053.028.129.063.168.035.04.107.19.162.334.156.417.38.755.466.703.049-.03.033-.074-.04-.115-.066-.037-.1-.117-.077-.178.023-.06.005-.11-.041-.11s-.083-.067-.083-.15c0-.083-.034-.15-.075-.15-.041 0-.075-.067-.075-.15 0-.082-.034-.15-.075-.15-.041 0-.075-.068-.075-.15 0-.082-.034-.15-.075-.15-.041 0-.075.044-.075.097Zm72 .052c0 .082-.034.15-.075.15-.041 0-.075.067-.075.15 0 .083-.034.15-.075.15-.041 0-.075.065-.075.144 0 .079-.033.155-.073.168-.041.015-.045.069-.009.127.046.074.11 0 .232-.262.092-.2.198-.423.234-.495.087-.172.084-.282-.009-.282-.041 0-.075.067-.075.15ZM2.1 66.105c0 .093.338.645.395.645.037 0 .054-.025.038-.056l-.157-.338c-.104-.228-.276-.384-.276-.25Zm70.564.195c-.043.124-.11.225-.146.225-.038 0-.068.05-.068.112 0 .2.118.12.286-.194.188-.352.192-.368.085-.368-.043 0-.114.101-.157.225Zm-70.114.57c0 .066.322.513.391.542.032.014.059.065.059.113 0 .125.366.534.425.475.027-.027-.024-.112-.113-.19-.09-.077-.162-.172-.162-.21 0-.04-.06-.137-.131-.217a2.004 2.004 0 0 1-.238-.352c-.095-.184-.231-.28-.231-.161Zm69.67.161a1.439 1.439 0 0 1-.238.328c-.073.067-.132.164-.132.216 0 .052-.073.158-.162.236-.09.077-.14.162-.113.189.057.057.35-.26.35-.378 0-.044.076-.149.169-.233.157-.142.356-.436.356-.526 0-.112-.138-.011-.23.168Zm-.994 1.378c-.158.168-.268.324-.245.346.046.047.569-.5.569-.595 0-.09-.015-.08-.324.25ZM3.45 68.215c0 .068.684.727.718.693.018-.018-.116-.19-.298-.382-.306-.325-.42-.409-.42-.31Zm.75.863c0 .108 1.62 1.723 1.73 1.723.122 0 .023-.116-.885-1.028-.773-.777-.845-.836-.845-.695Zm65.672.788c-.71.705-.896.935-.753.935.05 0 1.437-1.384 1.598-1.594.287-.373-.14-.04-.845.66ZM6.225 70.99c0 .079.522.56.607.56.047 0-.053-.135-.223-.3-.296-.288-.384-.347-.384-.26Zm62.147.266c-.16.162-.259.294-.22.294.078 0 .623-.484.623-.554 0-.101-.126-.02-.403.26Zm-61.397.341c0 .073.402.403.49.403.042 0 .126.067.185.15.06.082.138.15.174.15.036 0 .155.064.264.141.225.16.748.459.802.459.132 0-.006-.172-.19-.236-.124-.043-.225-.11-.225-.146 0-.038-.06-.068-.134-.068-.073 0-.182-.068-.241-.15-.06-.082-.16-.15-.225-.15-.064 0-.166-.068-.225-.15-.06-.082-.16-.15-.225-.15-.064 0-.166-.067-.225-.15-.105-.145-.225-.2-.225-.103ZM67.8 71.7c-.06.082-.16.15-.225.15-.064 0-.166.068-.225.15-.06.082-.151.15-.204.15-.053 0-.096.034-.096.075 0 .041-.05.075-.112.075s-.113.034-.113.075c0 .041-.053.075-.118.075-.133 0-.372.21-.31.273.045.044.975-.562 1.015-.662.014-.034.065-.061.113-.061.096 0 .5-.326.5-.403 0-.097-.12-.042-.225.103Zm-1.675 1.025c-.086.086-.055.175.063.175.061 0 .112-.05.112-.113 0-.117-.089-.148-.175-.062Zm-57.084.169c-.03.05-.044.097-.03.105.605.338 1.039.484 1.039.351 0-.041-.068-.075-.15-.075-.083 0-.15-.034-.15-.075 0-.041-.068-.075-.15-.075-.083 0-.15-.036-.15-.08 0-.043-.036-.057-.08-.03-.044.028-.123-.01-.176-.082-.071-.096-.111-.107-.153-.04Zm56.78.046c-.027.073-.094.108-.16.083-.06-.024-.111-.01-.111.03s-.068.072-.15.072c-.083 0-.15.034-.15.075 0 .041-.068.075-.15.075-.082 0-.15.034-.15.075 0 .149.568-.045 1.045-.356.018-.012-.003-.057-.046-.1-.055-.055-.094-.041-.127.046Zm-55.321.71c0 .041.05.075.113.075.061 0 .112-.034.112-.075 0-.041-.05-.075-.112-.075s-.113.034-.113.075Zm53.775 0c0 .041.05.075.112.075s.113-.034.113-.075c0-.041-.05-.075-.112-.075s-.113.034-.113.075ZM10.8 73.8c0 .041.067.075.15.075.083 0 .15-.034.15-.075 0-.041-.067-.075-.15-.075-.082 0-.15.034-.15.075Zm53.1 0c0 .041.068.075.15.075.082 0 .15-.034.15-.075 0-.041-.068-.075-.15-.075-.082 0-.15.034-.15.075Zm-52.725.15c0 .041.067.075.15.075.083 0 .15-.034.15-.075 0-.041-.067-.075-.15-.075-.082 0-.15.034-.15.075Zm52.35 0c0 .041.068.075.15.075.083 0 .15-.034.15-.075 0-.041-.068-.075-.15-.075-.082 0-.15.034-.15.075Zm-51.975.15c0 .041.067.075.15.075.083 0 .15-.034.15-.075 0-.041-.067-.075-.15-.075-.082 0-.15.034-.15.075Zm51.6 0c0 .041.068.075.15.075.083 0 .15-.034.15-.075 0-.041-.068-.075-.15-.075-.082 0-.15.034-.15.075ZM12 74.25c0 .041.068.075.15.075.082 0 .15-.034.15-.075 0-.041-.068-.075-.15-.075-.082 0-.15.034-.15.075Zm50.7 0c0 .041.067.075.15.075.082 0 .15-.034.15-.075 0-.041-.068-.075-.15-.075-.083 0-.15.034-.15.075Zm-50.175.15c0 .041.067.075.15.075.082 0 .15-.034.15-.075 0-.041-.067-.075-.15-.075-.083 0-.15.034-.15.075Zm49.65 0c0 .041.068.075.15.075.082 0 .15-.034.15-.075 0-.041-.068-.075-.15-.075-.083 0-.15.034-.15.075Zm-49.2.15c0 .041.082.075.183.075.1 0 .204-.034.23-.075.027-.044-.05-.075-.184-.075-.126 0-.23.034-.23.075Zm48.675 0c0 .041.084.075.187.075.104 0 .188-.034.188-.075 0-.041-.084-.075-.188-.075-.103 0-.187.034-.187.075Zm-48.075.15c0 .041.101.075.225.075s.225-.034.225-.075c0-.041-.101-.075-.225-.075s-.225.034-.225.075Zm47.4 0c0 .041.101.075.225.075s.225-.034.225-.075c0-.041-.101-.075-.225-.075s-.225.034-.225.075Zm-46.65.15c0 .041.118.075.263.075.144 0 .262-.034.262-.075 0-.041-.118-.075-.262-.075-.145 0-.263.034-.263.075Zm45.825 0c0 .041.118.075.263.075.144 0 .262-.034.262-.075 0-.041-.118-.075-.262-.075-.145 0-.263.034-.263.075Zm-44.681.129c.113.017.299.017.412 0 .114-.017.02-.031-.206-.031-.227 0-.32.014-.206.03Zm43.65 0c.113.017.299.017.412 0 .114-.017.02-.031-.206-.031-.227 0-.32.014-.206.03Z" clip-rule="evenodd"/></svg>