<?xml version="1.0" encoding="utf-8"?>
<!-- Generator: Adobe Illustrator 27.7.0, SVG Export Plug-In . SVG Version: 6.00 Build 0)  -->
<svg version="1.1" id="Layer_1" xmlns="http://www.w3.org/2000/svg" xmlns:xlink="http://www.w3.org/1999/xlink" x="0px" y="0px"
	 viewBox="0 0 512 512" style="enable-background:new 0 0 512 512;" xml:space="preserve">
<style type="text/css">
	.st0{fill-rule:evenodd;clip-rule:evenodd;fill:#279CEB;}
	.st1{fill-rule:evenodd;clip-rule:evenodd;fill:#171C28;}
</style>
<g>
	<path class="st0" d="M105.5,0.3c-2.3,0.1-4.2,0.4-4.2,0.7c0,0.3-1.3,0.5-2.8,0.5c-1.5,0-2.8,0.2-2.8,0.5s-0.9,0.5-2,0.5
		s-2,0.2-2,0.5s-0.9,0.5-2,0.5c-1.2,0-2,0.2-2,0.6c0,0.3-0.6,0.5-1.6,0.3c-1-0.2-1.7,0-1.8,0.5c-0.1,0.4-0.8,0.7-1.5,0.7
		c-0.7,0-1.4,0.3-1.5,0.6c-0.2,0.3-0.9,0.5-1.6,0.3c-0.8-0.2-1.2,0-1.2,0.5c0,0.4-0.5,0.7-1.3,0.7c-0.7,0-1.3,0.2-1.3,0.5
		c0,0.3-0.6,0.5-1.3,0.5c-0.7,0-1.3,0.2-1.3,0.5c0,0.3-0.6,0.5-1.3,0.5c-0.7,0-1.3,0.2-1.3,0.5c0,0.3-0.5,0.5-1,0.5
		c-0.6,0-1,0.2-1,0.5c0,0.3-0.5,0.5-1,0.5c-0.6,0-1,0.2-1,0.5c0,0.3-0.5,0.5-1,0.5c-0.6,0-1,0.2-1,0.5c0,0.4-0.3,0.4-1,0
		c-0.8-0.4-1-0.3-0.9,0.4c0,0.5-0.3,0.9-0.8,0.8c-0.5,0-0.9,0.2-0.9,0.5c0,0.6-3.4,2.4-4.4,2.4c-0.3,0-0.8,0.5-1.2,1
		c-0.4,0.6-1.1,1-1.5,1c-0.4,0-1.1,0.5-1.5,1c-0.4,0.6-1.1,1-1.5,1c-0.4,0-1.1,0.5-1.5,1c-0.4,0.6-1.1,1-1.4,1c-0.4,0-1.6,0.9-2.7,2
		c-1.1,1.1-2.2,2-2.5,2c-0.3,0-0.6,0.3-0.6,0.6c0,0.3-0.4,0.4-0.8,0.3c-0.4-0.2-0.7-0.1-0.5,0.2c0.4,0.6-11.4,12.4-12,12
		c-0.3-0.2-0.3,0.1-0.2,0.5c0.2,0.4,0,0.8-0.3,0.8c-0.3,0-0.6,0.3-0.6,0.6c0,0.3-0.7,1.2-1.5,2c-0.8,0.8-1.5,1.7-1.5,2
		c0,0.3-0.2,0.5-0.5,0.3c-0.3-0.2-0.5,0.1-0.5,0.6c0,0.5-0.5,1.3-1,1.7s-1,1.1-1,1.5c0,0.4-0.5,1.1-1,1.5c-0.6,0.4-1,1.1-1,1.5
		c0,0.4-0.5,1.1-1,1.5c-0.6,0.4-1,1.1-1,1.5c0,0.4-0.5,1.1-1.1,1.7c-0.6,0.5-0.9,1.2-0.7,1.5c0.2,0.3,0,0.7-0.5,0.9
		c-0.4,0.2-0.7,0.7-0.7,1.1c0.1,0.5-0.2,0.8-0.8,0.8c-0.7-0.1-0.8,0.1-0.4,0.5c0.8,0.8,0.7,1.6-0.1,1.2c-0.5-0.2-0.6,0.1-0.5,1
		c0.1,0.7,0,1.2-0.3,1.2c-0.3,0-0.6,0.5-0.6,1c0,0.6-0.2,1-0.5,1c-0.3,0-0.5,0.5-0.5,1s-0.2,1-0.5,1c-0.3,0-0.5,0.6-0.5,1.3
		c0,0.7-0.2,1.3-0.5,1.3c-0.3,0-0.5,0.6-0.5,1.3c0,0.7-0.2,1.3-0.5,1.3c-0.3,0-0.5,0.6-0.5,1.3c0,0.7-0.3,1.3-0.7,1.3
		c-0.5,0-0.6,0.4-0.5,1.3c0.1,0.7,0,1.3-0.3,1.3c-0.3,0-0.6,0.7-0.6,1.5c0,0.8-0.2,1.5-0.5,1.5s-0.5,0.8-0.5,1.8
		c0,1-0.2,1.8-0.5,1.8s-0.5,0.8-0.5,1.8c0,1-0.2,1.8-0.5,1.8s-0.5,1-0.5,2.3c0,1.3-0.2,2.3-0.5,2.3c-0.3,0-0.5,1.2-0.5,2.8
		c0,1.8-0.2,2.9-0.6,3c-0.9,0.3-0.9,308.8,0,309.1c0.4,0.1,0.6,1.2,0.6,3c0,1.5,0.2,2.8,0.5,2.8c0.3,0,0.5,1,0.5,2.3
		c0,1.3,0.2,2.3,0.5,2.3s0.5,0.8,0.5,1.8s0.2,1.8,0.5,1.8s0.5,0.8,0.5,1.8c0,1,0.2,1.8,0.5,1.8s0.5,0.7,0.5,1.5
		c0,0.8,0.2,1.5,0.5,1.5s0.5,0.6,0.5,1.3c0,0.7,0.2,1.3,0.5,1.3s0.5,0.6,0.5,1.3s0.2,1.3,0.5,1.3c0.3,0,0.5,0.6,0.5,1.3
		c0,0.7,0.2,1.3,0.5,1.3c0.3,0,0.5,0.6,0.5,1.3c0,0.7,0.2,1.3,0.5,1.3c0.3,0,0.5,0.5,0.5,1c0,0.6,0.2,1,0.5,1c0.3,0,0.5,0.5,0.5,1
		c0,0.6,0.2,1,0.5,1c0.3,0,0.5,0.5,0.5,1c0,0.6,0.3,1,0.6,1c0.3,0,0.4,0.4,0.3,0.8c-0.2,0.4,0,0.9,0.4,1.1c0.4,0.2,0.6,0.6,0.4,1
		c-0.2,0.4,0,0.7,0.2,0.7c0.3,0,1,1.1,1.7,2.4c0.6,1.3,1.6,2.9,2.1,3.4c0.5,0.5,0.9,1.3,0.9,1.7c0,0.4,0.2,0.7,0.4,0.7
		c0.2,0,0.8,0.6,1.1,1.4c0.4,0.8,1.1,1.8,1.6,2.2c0.5,0.5,0.9,1.1,0.9,1.4c0,0.3,1.1,1.7,2.4,3.2c5.2,5.6,16.4,16.9,16.7,16.9
		c0.2,0,1.2,0.9,2.4,2c1.2,1.1,2.4,2,2.7,2c0.3,0,0.9,0.5,1.3,1c0.4,0.6,1.1,1,1.5,1c0.4,0,1.1,0.5,1.5,1c0.4,0.6,1.1,1,1.5,1
		c0.4,0,1.1,0.5,1.5,1c0.4,0.6,1.1,1,1.6,1c0.5,0,0.9,0.2,0.9,0.5c0,0.3,0.7,0.7,1.5,1c0.8,0.3,1.5,0.8,1.5,1.1
		c0,0.3,0.4,0.5,0.9,0.4c0.6-0.1,0.9,0.2,0.8,0.7c-0.1,0.7,0.1,0.8,0.9,0.4c0.7-0.4,1-0.3,1,0c0,0.3,0.5,0.5,1,0.5
		c0.6,0,1,0.2,1,0.5c0,0.3,0.5,0.5,1,0.5c0.6,0,1,0.2,1,0.5c0,0.3,0.5,0.5,1,0.5c0.6,0,1,0.2,1,0.5c0,0.3,0.6,0.5,1.3,0.5
		c0.7,0,1.3,0.2,1.3,0.5c0,0.3,0.6,0.5,1.3,0.5c0.7,0,1.3,0.2,1.3,0.5c0,0.3,0.6,0.5,1.3,0.5c0.7,0,1.3,0.3,1.3,0.7
		c0,0.5,0.4,0.6,1.3,0.5c0.7-0.1,1.3,0,1.3,0.3c0,0.3,0.7,0.6,1.5,0.6c0.8,0,1.6,0.3,1.7,0.7c0.2,0.4,0.8,0.6,1.8,0.5
		c1-0.1,1.6,0,1.6,0.3c0,0.3,0.9,0.6,2.1,0.6c1.3,0,2,0.2,1.8,0.5c-0.2,0.3,0.6,0.5,2,0.5c1.3,0,2.3,0.2,2.3,0.5
		c0,0.3,1.2,0.5,2.8,0.5c1.8,0,2.9,0.2,3,0.6c0.3,0.9,308.8,0.9,309.1,0c0.1-0.4,1.2-0.6,3-0.6c1.5,0,2.8-0.2,2.8-0.5
		c0-0.3,1-0.5,2.3-0.5c1.3,0,2.3-0.2,2.3-0.5c0-0.3,0.8-0.5,1.8-0.5s1.8-0.2,1.8-0.5c0-0.3,0.8-0.5,1.8-0.5c1,0,1.8-0.2,1.8-0.5
		c0-0.3,0.7-0.5,1.5-0.5c0.8,0,1.5-0.3,1.5-0.6c0-0.3,0.5-0.5,1.3-0.3c0.9,0.2,1.3,0,1.3-0.5c0-0.4,0.5-0.7,1.3-0.7
		c0.7,0,1.3-0.2,1.3-0.5c0-0.3,0.6-0.5,1.3-0.5c0.7,0,1.3-0.2,1.3-0.5c0-0.3,0.6-0.5,1.3-0.5c0.7,0,1.3-0.2,1.3-0.5
		c0-0.3,0.5-0.5,1-0.5c0.6,0,1-0.2,1-0.5c0-0.3,0.5-0.5,1-0.5c0.6,0,1-0.2,1-0.5c0-0.3,0.5-0.5,1-0.5c0.6,0,1-0.2,1-0.5
		c0-0.3,0.3-0.4,0.8-0.2c0.4,0.2,0.9-0.1,1.1-0.5c0.2-0.4,0.6-0.7,1-0.5c0.4,0.1,0.8-0.1,1-0.6c0.2-0.5,0.6-0.7,1-0.6
		c0.4,0.1,1-0.2,1.4-0.7c0.4-0.5,1.1-1,1.6-1c0.5,0,0.9-0.2,0.9-0.5c0-0.3,0.3-0.5,0.8-0.5s0.8-0.2,0.8-0.5c0-0.3,0.3-0.5,0.7-0.5
		c0.4,0,1-0.5,1.4-1c0.4-0.6,1.1-1,1.5-1s1.1-0.5,1.5-1c0.4-0.6,1-1,1.3-1c0.3,0,1.5-0.9,2.7-2c1.2-1.1,2.3-2,2.6-2
		c0.3,0,0.5-0.2,0.5-0.5c0-0.3,0.3-0.5,0.8-0.5c0.4,0,0.8-0.2,0.8-0.5c0-0.5,10-10.5,11.7-11.8c0.6-0.4,1.1-1,1.1-1.4
		c0-0.4,0.9-1.6,2-2.8c1.1-1.2,2-2.4,2-2.7c0-0.3,0.5-0.9,1-1.3c0.6-0.4,1-1.1,1-1.5c0-0.4,0.4-1.1,0.9-1.6c0.5-0.5,1.2-1.5,1.6-2.2
		c0.4-0.8,0.9-1.4,1.1-1.4c0.2,0,0.4-0.5,0.4-1c0-0.6,0.2-1,0.5-1c0.3,0,0.7-0.7,1-1.5c0.3-0.8,0.8-1.5,1.1-1.5s0.5-0.3,0.3-0.8
		c-0.2-0.5,0-0.8,0.5-0.8c0.6,0,0.7-0.3,0.5-1c-0.1-0.6-0.1-1,0.2-1c0.3,0,0.5-0.5,0.5-1c0-0.6,0.2-1,0.5-1c0.3,0,0.5-0.5,0.5-1
		c0-0.6,0.2-1,0.5-1c0.3,0,0.5-0.5,0.5-1c0-0.6,0.2-1,0.5-1c0.3,0,0.5-0.6,0.5-1.3c0-0.7,0.2-1.3,0.5-1.3c0.3,0,0.5-0.6,0.5-1.3
		c0-0.7,0.2-1.3,0.5-1.3c0.3,0,0.5-0.6,0.5-1.3c0-0.7,0.3-1.3,0.7-1.3c0.5,0,0.6-0.4,0.5-1.3c-0.1-0.7,0-1.3,0.3-1.3
		c0.3,0,0.6-0.7,0.6-1.5c0-0.8,0.2-1.5,0.5-1.5c0.3,0,0.5-0.8,0.5-1.8c0-1,0.2-1.8,0.5-1.8c0.3,0,0.5-0.8,0.5-1.8
		c0-1,0.2-1.9,0.5-2.1c0.3-0.2,0.5-1.2,0.5-2.3c0-1.1,0.2-2,0.5-2c0.3,0,0.5-1.2,0.5-2.8c0-1.8,0.2-2.9,0.6-3
		c0.5-0.2,0.6-31.5,0.6-154.6s-0.1-154.4-0.6-154.5c-0.4-0.1-0.6-1.2-0.6-3c0-1.5-0.2-2.8-0.5-2.8c-0.3,0-0.5-1.1-0.5-2.3
		c0-1.4-0.2-2.2-0.5-2c-0.3,0.2-0.5-0.5-0.5-1.8c0-1.1-0.2-2.1-0.5-2.1c-0.3,0-0.5-0.8-0.5-1.8c0-1-0.2-1.8-0.5-1.8
		c-0.3,0-0.5-0.7-0.5-1.5c0-0.8-0.3-1.5-0.6-1.5c-0.3,0-0.5-0.5-0.3-1.3c0.2-0.9,0-1.3-0.5-1.3c-0.4,0-0.7-0.5-0.7-1.3
		c0-0.7-0.2-1.3-0.5-1.3c-0.3,0-0.5-0.6-0.5-1.3c0-0.7-0.2-1.3-0.5-1.3c-0.3,0-0.5-0.6-0.5-1.3c0-0.7-0.2-1.3-0.5-1.3
		c-0.3,0-0.5-0.5-0.5-1s-0.2-1-0.5-1c-0.3,0-0.5-0.5-0.5-1c0-0.6-0.2-1-0.5-1c-0.3,0-0.6-0.9-0.8-2c-0.2-1.1-0.6-2-0.9-1.9
		c-0.3,0.1-0.5-0.3-0.5-0.7c0.1-0.5-0.2-1-0.7-1.1c-0.4-0.2-0.7-0.5-0.5-0.7c0.1-0.2-0.2-0.9-0.7-1.5c-0.6-0.6-1-1.4-1-1.8
		c0-0.4-0.5-1-1-1.4c-0.6-0.4-1-1.1-1-1.5c0-0.4-0.5-1.1-1-1.5c-0.6-0.4-1-1.1-1-1.5c0-0.4-0.5-1.1-1-1.5c-0.6-0.4-1-1.1-1-1.4
		c0-0.4-0.9-1.6-2-2.7s-2-2.1-2-2.3c0-0.4-14.7-15.1-15.1-15.1c-0.2,0-1.2-0.9-2.3-2c-1.1-1.1-2.3-2-2.7-2c-0.4,0-1-0.5-1.4-1
		c-0.4-0.6-1.1-1-1.5-1c-0.4,0-1.1-0.4-1.6-0.9c-0.5-0.5-1.5-1.2-2.2-1.6c-0.8-0.4-1.4-0.9-1.4-1.1c0-0.2-0.4-0.4-0.8-0.4
		c-0.4,0-1.1-0.3-1.6-0.8c-0.4-0.4-1.2-0.8-1.8-0.8c-0.5,0-1-0.3-1-0.8c0-0.5-0.3-0.6-0.8-0.5c-0.4,0.2-0.9-0.1-1.1-0.6
		c-0.2-0.5-0.6-0.7-1-0.6c-0.4,0.1-0.7,0-0.7-0.2c0-0.3-0.5-0.5-1-0.5c-0.6,0-1-0.2-1-0.5c0-0.3-0.5-0.5-1-0.5c-0.6,0-1-0.2-1-0.5
		c0-0.3-0.5-0.5-1-0.5c-0.6,0-1-0.2-1-0.5c0-0.3-0.6-0.5-1.3-0.5c-0.7,0-1.3-0.2-1.3-0.5c0-0.3-0.6-0.5-1.3-0.5
		c-0.7,0-1.3-0.2-1.3-0.5c0-0.3-0.6-0.5-1.3-0.5c-0.7,0-1.3-0.2-1.3-0.5c0-0.3-0.6-0.5-1.3-0.5c-0.7,0-1.3-0.2-1.3-0.5
		c0-0.3-0.7-0.5-1.5-0.5c-0.8,0-1.5-0.2-1.5-0.5c0-0.3-0.8-0.5-1.8-0.5c-1,0-1.8-0.2-1.8-0.5s-0.9-0.5-2-0.5s-2-0.2-2-0.5
		s-0.9-0.5-2-0.5c-1.1,0-2-0.2-2-0.5s-1.2-0.5-2.8-0.5c-1.8,0-2.9-0.2-3-0.6C410.3,0.2,119-0.3,105.5,0.3z M404,20.3
		c1.5,0.3,4.4,0.7,6.4,1.1c40.7,6.8,74.1,41.3,80.8,83.3c1,6,0.9,296.7,0,302.7c-6.8,43-40.7,77-83.8,83.8c-6.1,1-296.7,1-302.7,0
		c-42-6.7-76.3-40-83.2-80.8c-0.3-2-0.8-4.8-1.1-6.4c-0.6-3.7-0.6-292.4,0-296.1c0.3-1.5,0.7-4.4,1.1-6.4
		c1.6-9.6,7.2-24.8,11.7-31.8c0.7-1.1,1.6-2.6,2-3.3c0.6-1.2,2.5-3.9,6.6-9.1c1.8-2.4,13.2-13.8,15.6-15.6c5.3-4,8-6,9.1-6.6
		c0.7-0.4,2.2-1.3,3.3-2c6.8-4.4,22.1-10.1,31.5-11.7c1.8-0.3,4.5-0.8,5.9-1C110.6,19.8,400.4,19.7,404,20.3z M242.4,86.5
		c-1.7,0.2-5,0.7-7.4,1c-2.4,0.3-5.2,0.8-6.1,1c-1,0.2-3.1,0.7-4.6,1c-38.2,7.8-68.2,31.4-78.1,61.2c-7.1,21.4-5,49.6,5,67.9
		c5.8,10.6,11.7,17.1,24.5,27.4c6.4,5.1,25.2,15.2,36.6,19.7c2.3,0.9,4.8,1.9,5.6,2.3c0.8,0.4,2.3,0.9,3.3,1.3c1,0.3,2.3,0.8,2.8,1
		s1.8,0.7,2.8,1c1,0.3,2.3,0.8,2.8,1.1c1.2,0.5,11.2,3.7,20,6.4c28.1,8.7,44.2,18.2,49.6,29.5c4.6,9.6,4.5,22.9-0.1,32.7
		c-1.8,3.7-10.3,13.3-11.9,13.3c-0.3,0-1.5,0.6-2.7,1.4c-16.3,10.9-57.5,10.6-83.1-0.7c-1-0.4-2.6-1.2-3.7-1.6
		c-10.4-4.6-19.9-10.3-29-17.6c-5-4-5.5-4.2-7-2.3c-0.6,0.7-3,3.4-5.3,6c-7.7,8.5-9.4,10.3-9.6,10.6c-0.1,0.1-2.2,2.4-4.6,5.1
		c-2.4,2.7-4.8,5.3-5.4,5.9s-2.5,2.8-4.4,4.8c-1.8,2.1-4.1,4.6-5,5.6c-2.2,2.5-1.9,3,5.5,9.1c1,0.8,1.9,1.6,2,1.8
		c1.1,1.3,16.4,12.3,17.2,12.3c0.2,0,0.9,0.4,1.7,0.9c1.3,0.9,8.2,4.7,10.8,6c1.3,0.6,3.4,1.6,9.6,4.3c8.5,3.7,25,8.4,35.9,10.3
		c7.7,1.3,9.4,1.6,14,2.1c19.7,2.1,39.1,2,56.3-0.5c9.6-1.3,17.5-3.1,25.9-5.6c54.8-16.9,82.6-60.9,72.7-115
		c-0.7-3.7-2.9-12-3.8-14.3c-6-15-15.5-28-27.1-36.8c-1.5-1.2-2.9-2.3-3.1-2.4c-0.4-0.5-4.6-3.3-8.5-5.6
		c-4.4-2.7-22.9-11.8-23.9-11.8c-0.4,0-1-0.2-1.2-0.4c-0.3-0.2-2.4-1.2-4.8-2.1c-2.4-0.9-4.8-1.9-5.4-2.1
		c-1.3-0.6-10.9-3.7-21.8-7.1c-10-3.2-23.5-7.9-28.4-10c-0.8-0.4-3.6-1.5-6.1-2.6c-17.4-7.3-25-16.4-25-29.7
		c0-11.6,5.8-20.1,17.4-25.7c3-1.5,3.6-1.7,7.3-2.8c13.1-3.7,33-3.9,46.6-0.5c9.6,2.4,12.2,3.3,18.2,5.6c8.6,3.4,19,9.4,27.4,15.8
		c3.9,2.9,3,3.3,10.4-5.2c0.5-0.6,2.1-2.4,3.6-4.1c1.5-1.7,3-3.4,3.4-3.9c0.4-0.5,1.9-2.2,3.3-3.9c1.4-1.7,3.5-4,4.6-5.3
		c1.1-1.3,2.8-3.1,3.7-4.1c0.9-1,3.5-4,5.8-6.7l4.2-4.9l-2.5-2.3c-1.4-1.3-3.5-3.1-4.7-4.1c-1.2-1-2.5-2-2.8-2.3
		c-6-5.5-24.4-16-35.2-20.2c-2.4-0.9-4.8-1.9-5.2-2.1c-0.5-0.3-1.3-0.5-1.9-0.5c-0.6,0-1.1-0.2-1.3-0.5c-0.2-0.3-0.8-0.5-1.3-0.5
		c-0.6,0-1.4-0.2-1.9-0.5c-1-0.6-5.1-1.6-13.2-3.4c-9.3-2.1-10-2.2-23.3-3.8C277.4,85.8,246.8,85.9,242.4,86.5z"/>
	<path class="st1" d="M107.7,21.2c-45.3,5.5-81.2,41.5-86.5,87.1c-1.2,10-1.2,285.5,0,295.5c1.4,12,4.1,21.3,9.5,32.3
		c10.6,21.7,29.6,39.4,52.2,48.5c0.7,0.3,1.7,0.7,2.2,1c0.5,0.2,1.3,0.5,1.8,0.5c0.5,0,1.1,0.2,1.4,0.4c0.6,0.5,4.6,1.7,11,3.1
		c8.2,1.9,6.1,1.8,156.7,1.8c117.4,0,147.5-0.1,150.6-0.7c3.7-0.6,5.4-1,10.6-2.2c2.5-0.6,7.8-2.2,9.7-3c0.6-0.3,1.7-0.7,2.3-0.9
		c13.1-5.2,27.3-15.2,36.9-25.9c4.3-4.8,11.7-15,11.7-16.1c0-0.3,0.2-0.6,0.4-0.7c0.4-0.2,5.3-10,6.3-12.6c0.2-0.6,0.7-1.7,0.9-2.3
		c0.8-2,2.4-7.2,3-9.6c1.4-5.9,1.6-7.2,2.3-10.8c0.5-3.1,0.7-33.2,0.7-150.8c0-158.5,0.2-148-2.3-158.5c-0.3-1.3-0.7-3.1-0.8-4
		c-0.2-0.9-0.5-1.8-0.7-2c-0.3-0.2-0.5-0.8-0.5-1.5c0-0.7-0.2-1.4-0.5-1.5c-0.3-0.2-0.5-0.8-0.5-1.3c0-0.6-0.2-1.4-0.5-1.9
		c-0.2-0.5-0.7-1.5-1-2.2c-7.5-18.6-20.7-34.6-38.4-46.5c-1.7-1.2-3.4-2.1-3.7-2.1c-0.3,0-0.6-0.2-0.7-0.4
		c-0.2-0.4-7.5-4.1-11.7-5.9c-6.8-3-17.3-5.7-26.4-6.7C394.4,20.1,116.7,20.1,107.7,21.2z M279.1,85.4c12.3,1.2,17.1,1.9,26.5,3.9
		c8.4,1.8,20.5,5.4,24.2,7.4c1.1,0.6,2.4,1,2.9,1c0.5,0,1,0.2,1,0.5c0,0.3,0.3,0.5,0.7,0.5c4.5,0,30.3,16.5,39.4,25.2
		c3.1,3,3.4,2.1-2.9,9.3c-1.5,1.7-3.5,4-4.5,5.1c-1,1.1-2.8,3.3-4.1,4.7c-1.3,1.4-3.6,4.1-5.1,5.9c-1.5,1.8-3,3.5-3.3,3.8
		c-0.3,0.3-1.8,2.1-3.3,3.9c-2.6,3.1-3.6,4.2-8.3,9.4c-2.1,2.3-2.7,2.3-5.8-0.5c-1.1-1-2.7-2.2-3.5-2.7c-0.8-0.5-1.5-1-1.5-1.3
		c0-0.2-0.2-0.4-0.5-0.4s-1.9-0.9-3.6-2.1c-1.7-1.2-4.3-2.7-5.7-3.5c-1.4-0.8-3.4-1.9-4.4-2.4c-2.5-1.4-11.4-5-15.6-6.3
		c-31-9.7-62.7-6.1-75.4,8.5c-2,2.3-2.5,3.1-3.6,5.9c-0.3,0.7-0.8,1.9-1.1,2.6c-1.5,3.7-1.6,12.8-0.1,16.6c2.5,6.3,4.7,9.3,10,13.2
		c3.8,2.8,15.6,9,17.3,9c0.5,0,0.9,0.2,0.9,0.5c0,0.3,0.4,0.5,0.9,0.5c0.5,0,1.1,0.2,1.4,0.4c0.3,0.2,1.4,0.7,2.5,1.1
		c1.1,0.4,2.6,0.9,3.3,1.2c1.4,0.6,2.4,1,5.1,1.9c1,0.3,4.4,1.5,7.7,2.6c3.2,1.1,10,3.3,15.1,4.9c5.1,1.6,9.7,3.1,10.2,3.3
		c0.6,0.2,2.5,0.9,4.4,1.5c1.8,0.6,4.3,1.5,5.5,2.1c1.2,0.5,2.4,1,2.6,1c0.3,0,1.5,0.5,2.7,1.1c1.2,0.6,2.7,1.3,3.2,1.5
		c3.9,1.5,17.6,8.2,19.8,9.8c0.7,0.5,1.5,1,1.7,1c0.4,0,7.6,4.6,8,5.1c0.1,0.2,0.6,0.6,1.1,0.8c5.8,3.3,19.1,17.1,22.9,23.9
		c0.5,0.9,1.6,2.9,2.5,4.3c1.5,2.6,3.5,6.7,4.4,8.8c0.2,0.6,0.7,1.7,0.9,2.3c0.3,0.6,0.8,2.1,1.1,3.2c0.3,1.1,0.8,2.5,1,3.1
		c0.2,0.6,0.7,2.4,1,4.1c0.3,1.7,0.8,4,1,5.1c1.7,7.9,2,30.4,0.6,37.6c-0.3,1.5-0.8,4-1.1,5.4c-0.3,1.4-0.7,3.3-0.8,4.2
		c-0.2,0.9-0.5,1.8-0.7,1.9c-0.3,0.2-0.5,0.8-0.5,1.4c0,0.6-0.2,1.4-0.4,1.6s-0.7,1.4-1.1,2.5c-0.4,1.1-1.1,3.1-1.7,4.4
		c-0.6,1.3-1.3,2.9-1.6,3.6c-4.5,10-15.3,23.5-25.4,31.6c-4,3.2-9.9,7.4-10.5,7.4c-0.2,0-1,0.5-1.9,1.1c-2.6,1.9-11.7,6.3-17.6,8.6
		c-3.1,1.2-6.1,2.4-6.7,2.6c-0.6,0.2-2.1,0.7-3.3,1c-1.3,0.3-2.7,0.8-3.2,1.1c-0.5,0.3-1.5,0.5-2.1,0.5c-0.7,0-1.4,0.2-1.5,0.5
		c-0.2,0.3-1.1,0.6-2.2,0.7c-1.1,0.2-3.1,0.5-4.5,0.8c-19.8,4.4-51.7,5.3-75,2.1c-9.8-1.4-18.9-3.3-28.9-6.3c-2-0.6-4-1.2-4.6-1.5
		c-0.6-0.2-2.5-0.9-4.4-1.5c-5-1.7-14-5.5-17.9-7.6c-1-0.5-2.8-1.5-4.1-2.2c-1.3-0.7-2.4-1.3-2.6-1.4c-0.5-0.5-3.3-2.1-4.2-2.4
		c-0.5-0.2-0.9-0.5-0.9-0.7c0-0.2-0.2-0.5-0.5-0.5c-2.1,0-24.6-17.9-25.2-20c-0.2-0.6,9.5-12.1,13.4-15.9c0.4-0.4,2.5-2.7,4.6-5.1
		c2.1-2.4,4.2-4.7,4.6-5.1c0.4-0.4,1.7-1.8,2.8-3.1c1.1-1.3,3.1-3.5,4.4-4.9c1.3-1.4,3.6-4,5.1-5.8c3-3.5,3.4-3.7,5-2.3
		c2.3,2,3.2,2.6,6.3,5.1c8.5,6.6,19.6,12.9,30.2,17.2c0.7,0.3,1.7,0.7,2.2,1c0.5,0.2,1.3,0.5,1.9,0.5c0.6,0,1.1,0.2,1.3,0.5
		c0.2,0.3,0.8,0.5,1.3,0.5c0.6,0,1.4,0.2,1.9,0.5c0.5,0.3,1.9,0.7,3.2,1.1c1.3,0.3,3,0.8,3.9,1.1c0.9,0.3,2.2,0.5,2.9,0.5
		c0.7,0,1.5,0.2,1.6,0.4c0.2,0.2,1.6,0.6,3.2,0.8c1.6,0.2,4.6,0.6,6.5,0.8c11.9,1.6,28.7,1.1,38.2-1.1c4.4-1,4.8-1.2,8.2-2.7
		c1-0.4,2.4-1,3.1-1.3c6.9-2.9,14.5-10,17.4-16.2c2.1-4.6,2.6-6.1,3.2-11c2.4-20.1-7.6-33.5-32.2-43.1c-0.6-0.2-1.7-0.7-2.4-1
		c-0.7-0.3-1.8-0.7-2.4-1c-0.6-0.2-1.7-0.7-2.4-0.9c-2.2-0.9-6.2-2.2-12-4c-14.1-4.4-26.8-8.7-30-10c-0.7-0.3-1.8-0.7-2.4-1
		c-0.6-0.2-1.7-0.6-2.3-0.9c-4.5-1.7-7.1-2.9-17-7.8c-4.8-2.3-9.9-5-11.4-6c-1.5-0.9-2.8-1.7-3-1.7c-0.4,0-6.2-3.9-7.9-5.3
		c-0.7-0.6-2.1-1.6-3.1-2.3c-13.2-9.7-28.2-31.2-28.2-40.3c0-0.6-0.2-1.3-0.5-1.4c-0.3-0.2-0.6-1.1-0.7-2.2
		c-0.2-1.1-0.5-3.2-0.9-4.7c-1.9-9.4-1.5-35.4,0.6-37.6c0.3-0.3,0.5-1.2,0.5-2.1c0-0.9,0.2-1.8,0.5-2c0.3-0.2,0.5-0.9,0.5-1.6
		c0-0.7,0.2-1.7,0.5-2.1c0.3-0.5,1-2.3,1.6-4c2.9-7.6,9-17.6,14.5-23.6c0.3-0.3,1.5-1.6,2.7-2.9c6.5-7.1,18.8-15.9,28.8-20.6
		c2.1-1,4.2-2,4.7-2.3c0.5-0.3,1.2-0.5,1.7-0.5c0.4,0,0.8-0.2,0.8-0.5c0-0.3,0.5-0.5,1-0.5c0.6,0,1.4-0.2,1.9-0.5
		c7.5-3.8,25.5-8,42.4-9.7C251.4,84.8,273,84.8,279.1,85.4z"/>
	<path class="st0" d="M105.5,0.2c0.8,0.1,2,0.1,2.8,0c0.8-0.1,0.1-0.2-1.4-0.2C105.4,0,104.7,0.1,105.5,0.2z M403.6,0.2
		c0.8,0.1,2,0.1,2.8,0c0.8-0.1,0.1-0.2-1.4-0.2C403.4,0,402.8,0.1,403.6,0.2z M97.7,0.9c0,0.3,0.8,0.5,1.8,0.5c1,0,1.8-0.2,1.8-0.5
		s-0.8-0.5-1.8-0.5C98.5,0.4,97.7,0.6,97.7,0.9z M410.6,0.9c0,0.3,0.8,0.5,1.8,0.5c1,0,1.8-0.2,1.8-0.5s-0.8-0.5-1.8-0.5
		C411.4,0.4,410.6,0.6,410.6,0.9z M92.6,1.9c0,0.3,0.7,0.5,1.5,0.5c0.8,0,1.5-0.2,1.5-0.5s-0.7-0.5-1.5-0.5
		C93.3,1.4,92.6,1.6,92.6,1.9z M416.3,1.9c0,0.3,0.7,0.5,1.5,0.5c0.8,0,1.5-0.2,1.5-0.5s-0.7-0.5-1.5-0.5
		C417,1.4,416.3,1.6,416.3,1.9z M88.5,3c0,0.3,0.7,0.5,1.5,0.5c0.8,0,1.5-0.2,1.5-0.5S90.8,2.4,90,2.4C89.2,2.4,88.5,2.7,88.5,3z
		 M420.4,3c0,0.3,0.7,0.5,1.5,0.5c0.8,0,1.5-0.2,1.5-0.5s-0.7-0.5-1.5-0.5C421,2.4,420.4,2.7,420.4,3z M85.4,4c0,0.3,0.5,0.5,1,0.5
		c0.6,0,1-0.2,1-0.5s-0.5-0.5-1-0.5C85.9,3.5,85.4,3.7,85.4,4z M424.5,4c0,0.3,0.5,0.5,1,0.5c0.6,0,1-0.2,1-0.5s-0.5-0.5-1-0.5
		C424.9,3.5,424.5,3.7,424.5,4z M82.1,5c-0.2,0.3,0.2,0.5,0.7,0.5c0.6,0,1.1-0.2,1.1-0.5s-0.3-0.5-0.7-0.5C82.7,4.5,82.2,4.7,82.1,5
		z M428,5c0,0.3,0.5,0.5,1,0.5c0.6,0,1-0.2,1-0.5s-0.5-0.5-1-0.5C428.5,4.5,428,4.7,428,5z M78.7,6c0,0.3,0.4,0.5,1,0.5
		c0.5,0,1.1-0.2,1.3-0.5c0.2-0.3-0.3-0.5-1-0.5C79.3,5.5,78.7,5.7,78.7,6z M431.1,6c0,0.3,0.5,0.5,1,0.5c0.6,0,1-0.2,1-0.5
		s-0.5-0.5-1-0.5C431.6,5.5,431.1,5.7,431.1,6z M76.2,7c0,0.3,0.5,0.5,1,0.5c0.6,0,1-0.2,1-0.5s-0.5-0.5-1-0.5
		C76.6,6.5,76.2,6.8,76.2,7z M433.7,7c0,0.3,0.5,0.5,1.1,0.5c0.6,0,0.9-0.2,0.7-0.5c-0.2-0.3-0.6-0.5-1.1-0.5
		C434,6.5,433.7,6.8,433.7,7z M73.6,8.1c0,0.3,0.5,0.5,1,0.5c0.6,0,1-0.2,1-0.5c0-0.3-0.5-0.5-1-0.5C74.1,7.6,73.6,7.8,73.6,8.1z
		 M436.2,8.1c0,0.3,0.5,0.5,1,0.5c0.6,0,1-0.2,1-0.5c0-0.3-0.5-0.5-1-0.5C436.7,7.6,436.2,7.8,436.2,8.1z M71.6,9.1
		c0,0.3,0.3,0.5,0.8,0.5c0.4,0,0.8-0.2,0.8-0.5s-0.3-0.5-0.8-0.5C71.9,8.6,71.6,8.8,71.6,9.1z M438.8,9.1c0,0.3,0.3,0.5,0.8,0.5
		c0.4,0,0.8-0.2,0.8-0.5s-0.3-0.5-0.8-0.5C439.1,8.6,438.8,8.8,438.8,9.1z M64.3,12.1c-1.6,0.8-2.9,1.7-2.9,2c0,0.9,1,0.8,1.4-0.2
		c0.2-0.4,0.6-0.7,1-0.5c0.4,0.1,0.7,0,0.7-0.2c0-0.3,0.5-0.5,1-0.5s1-0.2,1-0.5c0-0.3,0.5-0.5,1-0.5s1-0.2,1-0.5
		C68.5,10.4,67.5,10.6,64.3,12.1z M443.4,11.1c0,0.3,0.5,0.5,1,0.5c0.6,0,1,0.2,1,0.5c0,0.3,0.5,0.5,1,0.5c0.6,0,1,0.2,1,0.5
		c0,0.3,0.2,0.4,0.5,0.2c0.3-0.2,0.9,0.1,1.2,0.6c0.4,0.5,0.9,0.8,1.1,0.5c0.5-0.5-1-1.7-3.8-3C444.1,10.5,443.4,10.4,443.4,11.1z
		 M56.6,16.4c-1.9,1.2-3.9,2.5-4.4,3c-0.5,0.5-1.5,1.1-2.2,1.5c-1.6,0.8-2.7,2-2.3,2.4c0.2,0.2,0.7-0.2,1.3-0.8
		c0.5-0.6,1.3-1.1,1.7-1.1c0.4,0,1.1-0.5,1.5-1c0.4-0.6,1.1-1,1.5-1s1.1-0.5,1.5-1c0.4-0.6,1-1,1.2-1c1.1,0,4.4-1.8,4.4-2.4
		C60.8,13.9,60.4,14.1,56.6,16.4z M451.1,15c0,0.4,0.4,0.8,1,0.8c0.5,0,1.3,0.3,1.8,0.8c0.4,0.4,1.1,0.8,1.6,0.8
		c0.4,0,0.8,0.2,0.8,0.4c0,0.2,0.6,0.8,1.4,1.1c0.8,0.4,1.8,1.1,2.2,1.6c0.5,0.5,1.1,0.9,1.5,0.9c0.4,0,1.1,0.5,1.6,1.1
		c0.5,0.6,1.1,1,1.3,0.8c0.3-0.3-1.7-2.4-2.4-2.4c-0.2,0-0.7-0.3-1.1-0.7C457.8,17.3,451.1,13.7,451.1,15z M107.2,20.4
		c-1.4,0.3-4.1,0.7-5.9,1c-9.4,1.6-24.7,7.3-31.5,11.7c-1.1,0.7-2.6,1.6-3.3,2c-1.2,0.6-3.9,2.5-9.1,6.6
		c-2.4,1.8-13.8,13.2-15.6,15.6c-4,5.3-6,8-6.6,9.1c-0.4,0.7-1.3,2.2-2,3.3c-4.5,6.9-10.1,22.1-11.7,31.8c-0.3,2-0.8,4.8-1.1,6.4
		c-0.6,3.7-0.6,292.4,0,296.1c0.3,1.5,0.7,4.4,1.1,6.4c7,40.8,41.2,74.1,83.2,80.8c6,1,296.7,0.9,302.7,0c43-6.8,77-40.7,83.8-83.8
		c1-6.1,1-296.7,0-302.7c-6.7-42-40.1-76.4-80.8-83.3c-2-0.3-4.8-0.8-6.4-1.1C400.4,19.7,110.6,19.8,107.2,20.4z M403.7,21.2
		c9.1,1.1,19.6,3.7,26.4,6.7c4.2,1.8,11.5,5.5,11.7,5.9c0.1,0.2,0.4,0.4,0.7,0.4c0.3,0,1.9,1,3.7,2.1c17.7,11.9,30.8,27.9,38.4,46.5
		c0.3,0.7,0.7,1.7,1,2.2c0.2,0.5,0.5,1.3,0.5,1.9c0,0.6,0.2,1.1,0.5,1.3c0.3,0.2,0.5,0.9,0.5,1.5c0,0.7,0.2,1.3,0.5,1.5
		c0.2,0.2,0.6,1,0.7,2c0.2,0.9,0.5,2.7,0.8,4c2.5,10.5,2.3,0,2.3,158.5c0,117.6-0.1,147.8-0.7,150.8c-0.6,3.6-0.9,4.8-2.3,10.8
		c-0.6,2.4-2.2,7.7-3,9.6c-0.3,0.6-0.7,1.7-0.9,2.3c-1,2.6-6,12.4-6.3,12.6c-0.2,0.1-0.4,0.4-0.4,0.7c0,1.1-7.3,11.2-11.7,16.1
		c-9.6,10.8-23.8,20.7-36.9,25.9c-0.6,0.3-1.7,0.7-2.3,0.9c-4.4,1.8-12.4,3.9-20.4,5.3c-3.1,0.5-33.2,0.7-150.6,0.7
		c-150.7,0-148.5,0-156.7-1.8c-6.3-1.4-10.4-2.6-11-3.1c-0.3-0.2-0.9-0.4-1.4-0.4c-0.5,0-1.3-0.2-1.8-0.5c-0.5-0.2-1.5-0.7-2.2-1
		c-22.5-9.1-41.6-26.8-52.2-48.5c-5.4-11-8.1-20.3-9.5-32.3c-1.2-10-1.2-285.5,0-295.5c5.4-45.5,41.2-81.6,86.5-87.1
		C116.7,20.1,394.4,20.1,403.7,21.2z M465.4,23.7c0,0.5,3.7,3.9,3.9,3.7c0.1-0.2-0.5-1.1-1.6-2.1C466.1,23.5,465.4,23.1,465.4,23.7z
		 M43.9,25.5c-0.9,0.9-1.5,1.7-1.4,1.8c0.2,0.2,1.1-0.5,2.1-1.6C46.9,23.6,46.2,23.3,43.9,25.5z M39.8,29.1c0,0.3-0.3,0.5-0.6,0.5
		c-0.9,0-10.8,10.2-10.6,10.8c0.1,0.3,2.6-1.8,5.5-4.8c6.1-6.1,7-7.1,6.2-7.1C40.1,28.6,39.8,28.8,39.8,29.1z M471.6,29.4
		c3.1,3.7,11.7,11.8,11.7,10.9c0-0.8-11.1-11.8-11.8-11.8C471.1,28.6,471.2,28.8,471.6,29.4z M25.1,44.3c-0.9,1-1.5,2.1-1.3,2.4
		c0.2,0.3,0.4,0.2,0.6-0.2c0.1-0.4,0.9-1.4,1.7-2.1c0.8-0.7,1.5-1.5,1.5-1.7C27.5,42,26.6,42.6,25.1,44.3z M484.4,42.7
		c0,0.5,3.7,3.9,3.9,3.7c0.2-0.2-0.5-1.1-1.6-2.1C485,42.5,484.4,42.1,484.4,42.7z M22,48.3c-0.9,1.1-0.3,1.6,0.7,0.6
		c0.4-0.4,0.8-0.9,0.8-1.1C23.4,47.3,22.7,47.5,22,48.3z M488.5,47.8c0,0.5,1.6,1.9,1.9,1.6c0.2-0.2-0.1-0.6-0.5-1.1
		C489,47.5,488.5,47.3,488.5,47.8z M20.3,51c-1.7,2-3.2,4.3-2.9,4.6c0.4,0.4,1.9-1.1,1.9-1.9c0-0.3,0.5-1,1.1-1.5
		c0.6-0.5,1-1.2,0.9-1.5C21.2,50.3,20.8,50.4,20.3,51z M490.5,50.6c0,0.4,0.5,1.1,1,1.5c0.6,0.4,1,1,1,1.4c0,0.8,1.5,2.4,1.9,2
		c0.3-0.3-1.4-2.9-3-4.7C490.7,50.1,490.5,50.1,490.5,50.6z M15.8,57.3c-0.4,0.6-0.6,1.2-0.4,1.3c0.4,0.4,1.9-1.2,1.9-1.9
		C17.3,55.9,16.5,56.1,15.8,57.3z M494.6,56.7c0,0.3,0.4,1,0.9,1.6c0.5,0.6,0.9,1.3,0.9,1.6c0,0.3,0.3,0.7,0.6,0.8
		c0.4,0.1,0.6-0.2,0.6-0.6c0-0.4-0.2-0.8-0.4-0.8c-0.2,0-0.7-0.7-1.1-1.5C495.6,56.3,494.6,55.7,494.6,56.7z M14.2,60.1
		c0,0.5,0.2,0.8,0.6,0.7c0.3-0.1,0.6-0.4,0.6-0.7c0-0.3-0.2-0.6-0.6-0.7C14.4,59.3,14.2,59.6,14.2,60.1z M13,62.5
		c-0.2,0.6-0.3,1.3-0.4,1.4c0,0.1-0.5,0.9-1,1.6c-0.5,0.7-1,1.7-1,2.1c0,0.4-0.2,0.9-0.5,1.1s-0.5,0.6-0.5,1.1
		c0,0.4,0.2,0.7,0.5,0.7s0.5-0.5,0.5-1c0-0.6,0.2-1,0.5-1c0.3,0,0.5-0.5,0.5-1c0-0.6,0.2-1,0.5-1c0.3,0,0.5-0.5,0.5-1
		c0-0.6,0.3-1,0.6-1c0.3,0,0.4-0.3,0.3-0.7c-0.2-0.4,0.1-0.9,0.5-1c0.4-0.2,0.6-0.5,0.4-0.8C13.9,61,13.3,61.3,13,62.5z M497.5,61.8
		c-0.3,0.6,0.5,1.2,0.9,0.7c0.5-0.5,0.4-1.2-0.2-1.2C498,61.3,497.6,61.6,497.5,61.8z M499,64.5c0.2,0.9,0.6,1.7,0.8,1.8
		c0.2,0.1,0.4,0.6,0.4,1.2c0,0.5,0.2,1,0.5,1c0.3,0,0.5,0.5,0.5,1c0,0.6,0.2,1,0.5,1c0.6,0,0.7-0.8,0.1-1.9c-0.2-0.5-1-2-1.6-3.3
		C499,62.5,498.5,62.2,499,64.5z M8.6,72.4c0,0.4,0.2,0.8,0.5,0.8c0.3,0,0.5-0.3,0.5-0.8c0-0.4-0.2-0.8-0.5-0.8
		C8.8,71.6,8.6,71.9,8.6,72.4z M502.3,72.4c0,0.4,0.2,0.8,0.5,0.8c0.3,0,0.5-0.3,0.5-0.8c0-0.4-0.2-0.8-0.5-0.8
		C502.5,71.6,502.3,71.9,502.3,72.4z M7.5,74.7c0,0.6,0.2,1,0.5,1c0.3,0,0.5-0.5,0.5-1c0-0.6-0.2-1-0.5-1
		C7.8,73.6,7.5,74.1,7.5,74.7z M503.3,74.7c0,0.6,0.2,1,0.5,1c0.3,0,0.5-0.5,0.5-1c0-0.6-0.2-1-0.5-1
		C503.6,73.6,503.3,74.1,503.3,74.7z M6.5,77.2c0,0.6,0.2,1,0.5,1c0.3,0,0.5-0.5,0.5-1c0-0.6-0.2-1-0.5-1
		C6.7,76.2,6.5,76.7,6.5,77.2z M504.4,77.2c0,0.6,0.2,1,0.5,1c0.3,0,0.5-0.5,0.5-1c0-0.6-0.2-1-0.5-1
		C504.6,76.2,504.4,76.7,504.4,77.2z M5.5,79.8c0,0.6,0.2,1,0.5,1s0.5-0.5,0.5-1c0-0.6-0.2-1-0.5-1S5.5,79.2,5.5,79.8z M505.4,79.8
		c0,0.6,0.2,1,0.5,1c0.3,0,0.5-0.5,0.5-1c0-0.6-0.2-1-0.5-1C505.6,78.8,505.4,79.2,505.4,79.8z M4.8,81.7c-0.5,0.5-0.4,2.2,0.2,2.2
		c0.3,0,0.5-0.6,0.5-1.3C5.5,81.3,5.4,81.1,4.8,81.7z M506.4,82.6c0,0.7,0.2,1.3,0.5,1.3c0.3,0,0.5-0.4,0.5-1c0-0.5-0.2-1.1-0.5-1.3
		C506.6,81.4,506.4,81.8,506.4,82.6z M3.8,85.2c-0.5,0.5-0.4,2.2,0.2,2.2c0.3,0,0.5-0.6,0.5-1.3C4.5,84.8,4.4,84.7,3.8,85.2z
		 M245.4,85.5c-16.9,1.8-34.8,5.9-42.4,9.7c-0.5,0.2-1.4,0.5-1.9,0.5c-0.6,0-1,0.2-1,0.5c0,0.3-0.3,0.5-0.8,0.5
		c-0.4,0-1.2,0.2-1.7,0.5c-0.5,0.3-2.6,1.3-4.7,2.3c-10,4.7-22.3,13.5-28.8,20.6c-1.2,1.3-2.4,2.6-2.7,2.9c-5.5,6-11.7,16-14.5,23.6
		c-0.6,1.7-1.4,3.5-1.6,4c-0.3,0.5-0.5,1.5-0.5,2.1c0,0.7-0.2,1.4-0.5,1.6c-0.3,0.2-0.5,1.1-0.5,2c0,0.9-0.2,1.9-0.5,2.1
		c-2.1,2.2-2.5,28.2-0.6,37.6c0.3,1.5,0.7,3.7,0.9,4.7c0.2,1.1,0.5,2.1,0.7,2.2c0.3,0.2,0.5,0.8,0.5,1.4c0,9.1,15,30.6,28.2,40.3
		c1,0.7,2.3,1.8,3.1,2.3c1.7,1.4,7.6,5.3,7.9,5.3c0.2,0,1.5,0.8,3,1.7c1.5,0.9,6.6,3.6,11.4,6c10,4.9,12.6,6,17,7.8
		c0.6,0.2,1.7,0.6,2.3,0.9c0.6,0.2,1.7,0.7,2.4,1c3.2,1.3,15.9,5.6,30,10c5.9,1.8,9.9,3.2,12,4c0.7,0.3,1.8,0.7,2.4,0.9
		c0.6,0.2,1.7,0.7,2.4,1c0.7,0.3,1.8,0.7,2.4,1c24.6,9.6,34.6,23,32.2,43.1c-0.6,4.9-1,6.4-3.2,11c-2.9,6.2-10.5,13.3-17.4,16.2
		c-0.7,0.3-2.1,0.9-3.1,1.3c-3.4,1.5-3.9,1.6-8.2,2.7c-9.4,2.2-26.3,2.7-38.2,1.1c-2-0.3-4.9-0.6-6.5-0.8c-1.6-0.2-3.1-0.6-3.2-0.8
		c-0.2-0.2-0.9-0.4-1.6-0.4c-0.7,0-2-0.2-2.9-0.5c-0.9-0.3-2.6-0.7-3.9-1.1c-1.3-0.3-2.7-0.8-3.2-1.1c-0.5-0.3-1.3-0.5-1.9-0.5
		c-0.6,0-1.1-0.2-1.3-0.5c-0.2-0.3-0.8-0.5-1.3-0.5c-0.6,0-1.4-0.2-1.9-0.5c-0.5-0.2-1.5-0.7-2.2-1c-10.6-4.3-21.6-10.6-30.2-17.2
		c-3.2-2.4-4-3.1-6.3-5.1c-1.6-1.4-2.1-1.2-5,2.3c-1.5,1.8-3.8,4.4-5.1,5.8c-1.3,1.4-3.3,3.6-4.4,4.9c-1.1,1.3-2.3,2.7-2.8,3.1
		c-0.4,0.4-2.5,2.7-4.6,5.1c-2.1,2.4-4.2,4.7-4.6,5.1c-3.9,3.8-13.6,15.3-13.4,15.9c0.6,2.1,23.1,20,25.2,20c0.3,0,0.5,0.2,0.5,0.5
		c0,0.2,0.4,0.6,0.9,0.7c0.9,0.3,3.7,1.9,4.2,2.4c0.1,0.1,1.3,0.8,2.6,1.4c1.3,0.7,3.1,1.6,4.1,2.2c3.9,2.1,12.9,6,17.9,7.6
		c1.8,0.6,3.8,1.3,4.4,1.5c2.4,1,12.6,3.7,18.7,5.1c15.6,3.4,26.5,4.4,47.4,4.4c19.5,0,29.3-0.9,42.5-3.8c1.4-0.3,3.4-0.7,4.5-0.8
		c1.1-0.2,2.1-0.5,2.2-0.7c0.2-0.3,0.8-0.5,1.5-0.5c0.7,0,1.7-0.2,2.1-0.5c0.5-0.3,1.9-0.7,3.2-1.1c1.3-0.3,2.8-0.8,3.3-1
		c0.6-0.2,3.6-1.4,6.7-2.6c5.9-2.3,14.9-6.7,17.6-8.6c0.9-0.6,1.7-1.1,1.9-1.1c0.6,0,6.5-4.2,10.5-7.4c10.1-8.1,20.9-21.5,25.4-31.6
		c0.3-0.7,1-2.3,1.6-3.6c0.6-1.3,1.3-3.2,1.7-4.4c0.4-1.1,0.8-2.3,1.1-2.5s0.4-1,0.4-1.6c0-0.6,0.2-1.3,0.5-1.4
		c0.2-0.2,0.6-1,0.7-1.9c0.2-0.9,0.5-2.8,0.8-4.2c0.3-1.4,0.8-3.8,1.1-5.4c1.4-7.3,1.1-29.7-0.6-37.6c-0.2-1.1-0.7-3.4-1-5.1
		c-0.3-1.7-0.8-3.5-1-4.1c-0.2-0.6-0.7-1.9-1-3.1c-0.3-1.1-0.8-2.6-1.1-3.2c-0.3-0.6-0.7-1.7-0.9-2.3c-0.8-2.2-2.9-6.3-4.4-8.8
		c-0.8-1.4-1.9-3.3-2.5-4.3c-3.8-6.7-17.1-20.6-22.9-23.9c-0.5-0.3-0.9-0.6-1.1-0.8c-0.4-0.5-7.6-5.1-8-5.1c-0.2,0-0.9-0.4-1.7-1
		c-2.2-1.5-15.8-8.3-19.8-9.8c-0.6-0.2-2-0.9-3.2-1.5c-1.2-0.6-2.4-1.1-2.7-1.1c-0.3,0-1.4-0.4-2.6-1c-1.2-0.5-3.7-1.5-5.5-2.1
		c-1.8-0.6-3.8-1.3-4.4-1.5c-0.6-0.2-5.2-1.7-10.2-3.3c-5.1-1.6-11.9-3.8-15.1-4.9c-3.2-1.1-6.7-2.3-7.7-2.6
		c-2.7-0.9-3.7-1.3-5.1-1.9c-0.7-0.3-2.2-0.8-3.3-1.2c-1.1-0.4-2.3-0.8-2.5-1.1c-0.3-0.2-0.9-0.4-1.4-0.4c-0.5,0-0.9-0.2-0.9-0.5
		c0-0.3-0.4-0.5-0.9-0.5c-1.6,0-13.5-6.2-17.3-9c-5.2-3.9-7.5-6.9-10-13.2c-1.5-3.8-1.4-13,0.1-16.6c0.3-0.7,0.8-1.9,1.1-2.6
		c1.1-2.8,1.6-3.6,3.6-5.9c12.7-14.6,44.4-18.1,75.4-8.5c4.2,1.3,13.1,4.9,15.6,6.3c1,0.6,3,1.6,4.4,2.4c1.4,0.8,4,2.3,5.7,3.5
		c1.7,1.2,3.3,2.1,3.6,2.1c0.3,0,0.5,0.2,0.5,0.4c0,0.2,0.7,0.8,1.5,1.3c0.8,0.5,2.4,1.7,3.5,2.7c3,2.7,3.7,2.8,5.8,0.5
		c4.6-5.2,5.6-6.3,8.3-9.4c1.5-1.8,3.1-3.6,3.3-3.9c0.3-0.3,1.8-2,3.3-3.8c1.5-1.8,3.8-4.4,5.1-5.9c1.3-1.4,3.1-3.6,4.1-4.7
		c1-1.1,3-3.4,4.5-5.1c6.3-7.2,6-6.3,2.9-9.3c-9.1-8.8-34.9-25.2-39.4-25.2c-0.4,0-0.7-0.2-0.7-0.5c0-0.3-0.4-0.5-1-0.5
		c-0.5,0-1.9-0.5-2.9-1c-3.8-1.9-15.9-5.6-24.2-7.4c-9.4-2-14.3-2.7-26.5-3.9C273,84.8,251.4,84.8,245.4,85.5z M507.4,86.2
		c0,0.7,0.2,1.3,0.5,1.3c0.3,0,0.5-0.6,0.5-1.3c0-0.7-0.2-1.3-0.5-1.3C507.7,84.9,507.4,85.5,507.4,86.2z M282.6,86.4
		c13.3,1.6,14,1.7,23.3,3.8c8.1,1.8,12.2,2.8,13.2,3.4c0.5,0.3,1.3,0.5,1.9,0.5c0.6,0,1.1,0.2,1.3,0.5c0.2,0.3,0.8,0.5,1.3,0.5
		c0.6,0,1.4,0.2,1.9,0.5c0.5,0.3,2.8,1.2,5.2,2.1c10.8,4.1,29.2,14.7,35.2,20.2c0.3,0.3,1.6,1.3,2.8,2.3c1.2,1,3.3,2.8,4.7,4.1
		l2.5,2.3l-4.2,4.9c-2.3,2.7-4.9,5.7-5.8,6.7c-0.9,1-2.5,2.8-3.7,4.1c-1.1,1.3-3.2,3.6-4.6,5.3c-1.4,1.7-2.9,3.4-3.3,3.9
		c-0.4,0.5-2,2.2-3.4,3.9c-1.5,1.7-3.1,3.5-3.6,4.1c-7.4,8.6-6.6,8.2-10.4,5.2c-8.4-6.4-18.8-12.4-27.4-15.8
		c-6-2.4-8.6-3.2-18.2-5.6c-13.7-3.5-33.5-3.3-46.6,0.5c-3.7,1.1-4.3,1.3-7.3,2.8c-11.7,5.7-17.4,14.2-17.4,25.7
		c0,13.3,7.6,22.3,25,29.7c2.5,1.1,5.3,2.2,6.1,2.6c5,2.1,18.4,6.8,28.4,10c10.9,3.5,20.5,6.6,21.8,7.1c0.6,0.2,3,1.2,5.4,2.1
		c2.4,0.9,4.6,1.9,4.8,2.1c0.3,0.2,0.8,0.4,1.2,0.4c1,0,19.5,9.1,23.9,11.8c3.8,2.3,8,5.1,8.5,5.6c0.1,0.2,1.5,1.3,3.1,2.4
		c11.6,8.8,21.2,21.7,27.1,36.8c6.3,15.8,7.4,43.7,2.3,62c-8.8,32-34.2,55.9-71.2,67.4c-10.8,3.3-21.4,5.4-34.8,6.7
		c-8.9,0.9-27.2,1.1-35.1,0.5c-17.4-1.4-24.7-2.5-39.1-6c-13-3.1-26.5-8.3-38-14.6c-2.3-1.2-4.7-2.6-5.5-3.2
		c-0.7-0.5-1.5-0.9-1.7-0.9c-0.7,0-16.1-10.9-17.2-12.3c-0.1-0.2-1.1-1-2-1.8c-7.4-6.1-7.7-6.6-5.5-9.1c0.9-1,3.2-3.5,5-5.6
		c1.8-2.1,3.8-4.2,4.4-4.8c0.6-0.6,3-3.3,5.4-5.9c2.4-2.7,4.5-5,4.6-5.1c0.3-0.3,1.9-2.1,9.6-10.6c2.3-2.6,4.7-5.3,5.3-6
		c1.5-1.9,2-1.7,7,2.3c9.1,7.3,18.5,13,29,17.6c1.1,0.5,2.7,1.2,3.7,1.6c25.6,11.3,66.8,11.6,83.1,0.7c1.2-0.8,2.4-1.4,2.7-1.4
		c1.6,0,10.1-9.6,11.9-13.3c4.7-9.8,4.7-23,0.1-32.7c-5.4-11.3-21.5-20.9-49.6-29.5c-8.7-2.7-18.8-5.9-20-6.4
		c-0.6-0.2-1.8-0.7-2.8-1.1c-1-0.3-2.3-0.8-2.8-1c-0.6-0.2-1.8-0.7-2.8-1c-1-0.3-2.5-0.9-3.3-1.3c-0.8-0.4-3.4-1.4-5.6-2.3
		c-11.4-4.5-30.2-14.6-36.6-19.7c-8.3-6.7-10.7-8.8-16.5-15.4c-18.7-21.1-22.9-60.8-9.4-88.8c12.3-25.6,40.3-45.3,74.4-52.3
		c1.5-0.3,3.6-0.8,4.6-1c1-0.2,3.8-0.7,6.1-1c2.4-0.3,5.7-0.8,7.4-1C246.8,85.9,277.4,85.8,282.6,86.4z M2.4,89.8
		c0,0.7,0.2,1.3,0.5,1.3s0.5-0.6,0.5-1.3c0-0.7-0.2-1.3-0.5-1.3S2.4,89.1,2.4,89.8z M508.5,90.1c0,0.9,0.2,1.4,0.5,1.2
		c0.3-0.2,0.5-0.9,0.5-1.6c0-0.7-0.2-1.2-0.5-1.2C508.7,88.5,508.5,89.2,508.5,90.1z M1.7,92.9c-0.5,0.5-0.4,2.7,0.2,2.7
		c0.3,0,0.5-0.7,0.5-1.5C2.4,92.5,2.3,92.3,1.7,92.9z M509.5,94.1c0,0.9,0.2,1.6,0.5,1.6c0.3,0,0.5-0.6,0.5-1.2
		c0-0.7-0.2-1.4-0.5-1.6C509.7,92.7,509.5,93.2,509.5,94.1z M0.4,99.5c0,1,0.2,1.8,0.5,1.8s0.5-0.8,0.5-1.8c0-1-0.2-1.8-0.5-1.8
		S0.4,98.5,0.4,99.5z M510.5,99.5c0,1,0.2,1.8,0.5,1.8c0.3,0,0.5-0.8,0.5-1.8c0-1-0.2-1.8-0.5-1.8C510.7,97.7,510.5,98.5,510.5,99.5
		z M511.7,106.9c0,1.8,0.1,2.6,0.2,1.7c0.1-0.9,0.1-2.4,0-3.3C511.8,104.3,511.7,105.1,511.7,106.9z M0,107.2c0,1.7,0.1,2.3,0.2,1.4
		c0.1-0.9,0.1-2.3,0-3.1S0,105.5,0,107.2z M0,404.8c0,1.7,0.1,2.3,0.2,1.4s0.1-2.3,0-3.1S0,403.1,0,404.8z M511.7,405.3
		c0,2,0.1,2.7,0.2,1.7c0.1-1.1,0.1-2.7,0-3.6C511.8,402.4,511.7,403.3,511.7,405.3z M0.4,412.4c0,1,0.2,1.8,0.5,1.8s0.5-0.8,0.5-1.8
		c0-1-0.2-1.8-0.5-1.8S0.4,411.5,0.4,412.4z M510.5,412.4c0,1,0.2,1.8,0.5,1.8c0.3,0,0.5-0.8,0.5-1.8c0-1-0.2-1.8-0.5-1.8
		C510.7,410.6,510.5,411.5,510.5,412.4z M1.4,417.5c0,0.7,0.2,1.4,0.5,1.6c0.3,0.2,0.5-0.3,0.5-1.2c0-0.9-0.2-1.6-0.5-1.6
		S1.4,416.8,1.4,417.5z M509.5,417.8c0,0.8,0.2,1.5,0.5,1.5c0.3,0,0.5-0.7,0.5-1.5c0-0.8-0.2-1.5-0.5-1.5
		C509.7,416.3,509.5,417,509.5,417.8z M508.8,420.7c-0.5,0.5-0.4,2.7,0.2,2.7c0.3,0,0.5-0.7,0.5-1.5
		C509.5,420.3,509.4,420.1,508.8,420.7z M2.4,422.2c0,0.7,0.2,1.3,0.5,1.3s0.5-0.6,0.5-1.3c0-0.7-0.2-1.3-0.5-1.3
		S2.4,421.5,2.4,422.2z M3.4,425.5c0,0.5,0.2,1.1,0.5,1.3c0.3,0.2,0.5-0.3,0.5-1c0-0.7-0.2-1.3-0.5-1.3
		C3.7,424.5,3.4,424.9,3.4,425.5z M507.4,425.8c0,0.7,0.2,1.3,0.5,1.3c0.3,0,0.5-0.6,0.5-1.3c0-0.7-0.2-1.3-0.5-1.3
		C507.7,424.5,507.4,425.1,507.4,425.8z M4.5,429.1c0,0.5,0.2,1.1,0.5,1.3c0.3,0.2,0.5-0.3,0.5-1c0-0.7-0.2-1.3-0.5-1.3
		S4.5,428.5,4.5,429.1z M506.4,429.4c0,0.7,0.2,1.2,0.5,1c0.3-0.2,0.5-0.8,0.5-1.3c0-0.5-0.2-1-0.5-1
		C506.6,428.1,506.4,428.7,506.4,429.4z M5.5,432.2c0,0.6,0.2,1,0.5,1s0.5-0.5,0.5-1c0-0.6-0.2-1-0.5-1S5.5,431.6,5.5,432.2z
		 M505.4,432.2c0,0.6,0.2,1,0.5,1c0.3,0,0.5-0.5,0.5-1c0-0.6-0.2-1-0.5-1C505.6,431.1,505.4,431.6,505.4,432.2z M6.5,434.4
		c0,0.4,0.2,0.9,0.5,1.1c0.3,0.2,0.5-0.2,0.5-0.7c0-0.6-0.2-1.1-0.5-1.1C6.7,433.7,6.5,434,6.5,434.4z M504.4,434.7
		c0,0.6,0.2,1,0.5,1c0.3,0,0.5-0.5,0.5-1c0-0.6-0.2-1-0.5-1C504.6,433.7,504.4,434.2,504.4,434.7z M7.5,437.3c0,0.6,0.2,1,0.5,1
		c0.3,0,0.5-0.5,0.5-1c0-0.6-0.2-1-0.5-1C7.8,436.3,7.5,436.7,7.5,437.3z M503.3,437.3c0,0.6,0.2,1,0.5,1c0.3,0,0.5-0.5,0.5-1
		c0-0.6-0.2-1-0.5-1C503.6,436.3,503.3,436.7,503.3,437.3z M8.6,439.6c0,0.4,0.2,0.8,0.5,0.8c0.3,0,0.5-0.3,0.5-0.8
		c0-0.4-0.2-0.8-0.5-0.8C8.8,438.8,8.6,439.2,8.6,439.6z M502.3,439.6c0,0.4,0.2,0.8,0.5,0.8c0.3,0,0.5-0.3,0.5-0.8
		c0-0.4-0.2-0.8-0.5-0.8C502.5,438.8,502.3,439.2,502.3,439.6z M9.6,442c0,0.4,0.2,0.9,0.4,1.2c0.2,0.3,0.7,1.3,1.1,2.3
		c1.1,2.8,2.6,5.2,3.2,4.8c0.3-0.2,0.2-0.5-0.3-0.8c-0.4-0.2-0.7-0.8-0.5-1.2c0.2-0.4,0-0.8-0.3-0.8c-0.3,0-0.6-0.5-0.6-1
		c0-0.6-0.2-1-0.5-1c-0.3,0-0.5-0.5-0.5-1c0-0.6-0.2-1-0.5-1c-0.3,0-0.5-0.5-0.5-1c0-0.6-0.2-1-0.5-1S9.6,441.7,9.6,442z
		 M501.3,442.4c0,0.6-0.2,1-0.5,1c-0.3,0-0.5,0.5-0.5,1c0,0.6-0.2,1-0.5,1c-0.3,0-0.5,0.4-0.5,1c0,0.5-0.2,1.1-0.5,1.2
		c-0.3,0.1-0.3,0.5-0.1,0.9c0.3,0.5,0.8,0,1.6-1.8c0.6-1.4,1.4-2.9,1.6-3.4c0.6-1.2,0.6-1.9-0.1-1.9
		C501.5,441.4,501.3,441.8,501.3,442.4z M14.2,451.3c0,0.6,2.3,4.4,2.7,4.4c0.3,0,0.4-0.2,0.3-0.4c-0.1-0.2-0.6-1.2-1.1-2.3
		C15.4,451.5,14.2,450.4,14.2,451.3z M496.1,452.6c-0.3,0.8-0.7,1.5-1,1.5c-0.3,0-0.5,0.3-0.5,0.8c0,1.4,0.8,0.8,2-1.3
		c1.3-2.4,1.3-2.5,0.6-2.5C496.9,451.1,496.4,451.8,496.1,452.6z M17.3,456.5c0,0.5,2.2,3.5,2.7,3.7c0.2,0.1,0.4,0.4,0.4,0.8
		c0,0.9,2.5,3.6,2.9,3.2c0.2-0.2-0.2-0.8-0.8-1.3c-0.6-0.5-1.1-1.2-1.1-1.4c0-0.3-0.4-0.9-0.9-1.5c-0.5-0.5-1.2-1.6-1.6-2.4
		C18.2,456.4,17.3,455.7,17.3,456.5z M493,457.6c-0.4,0.8-1.1,1.8-1.6,2.2c-0.5,0.5-0.9,1.1-0.9,1.5c0,0.4-0.5,1.1-1.1,1.6
		c-0.6,0.5-1,1.1-0.8,1.3c0.4,0.4,2.4-1.8,2.4-2.6c0-0.3,0.5-1,1.2-1.6c1.1-1,2.4-3,2.4-3.6C494.6,455.7,493.7,456.4,493,457.6z
		 M486.3,467.1c-1.1,1.1-1.8,2.2-1.7,2.4c0.3,0.3,3.9-3.4,3.9-4.1C488.5,464.7,488.4,464.8,486.3,467.1z M23.4,465.7
		c0,0.5,4.7,5,4.9,4.7c0.1-0.1-0.8-1.3-2-2.6C24.2,465.6,23.4,465,23.4,465.7z M28.5,471.6c0,0.7,11.1,11.8,11.8,11.8
		c0.8,0,0.2-0.8-6-7C29,471.1,28.5,470.6,28.5,471.6z M477,477c-4.9,4.8-6.1,6.4-5.1,6.4c0.3,0,9.8-9.5,10.9-10.9
		C484.8,469.9,481.8,472.2,477,477z M42.4,484.7c0,0.5,3.6,3.8,4.1,3.8c0.3,0-0.4-0.9-1.5-2C43,484.5,42.4,484.1,42.4,484.7z
		 M466.8,486.5c-1.1,1.1-1.8,2-1.5,2c0.5,0,4.3-3.3,4.3-3.8C469.5,484,468.7,484.6,466.8,486.5z M47.5,488.8c0,0.5,2.7,2.7,3.3,2.7
		c0.3,0,0.9,0.5,1.3,1c0.4,0.6,0.9,1,1.2,1c0.2,0,1.1,0.4,1.8,1c1.5,1.1,5.1,3.1,5.5,3.1c0.9,0,0-1.2-1.3-1.6
		c-0.8-0.3-1.5-0.7-1.5-1c0-0.3-0.4-0.5-0.9-0.5c-0.5,0-1.2-0.5-1.6-1c-0.4-0.6-1.1-1-1.5-1s-1.1-0.5-1.5-1c-0.4-0.6-1.1-1-1.5-1
		c-0.4,0-1.1-0.5-1.5-1C48.3,488.5,47.5,488.2,47.5,488.8z M462.9,489.5c-0.4,0.6-1.1,1-1.5,1c-0.4,0-1.1,0.5-1.5,1
		c-0.4,0.6-1,1-1.4,1c-0.4,0-0.7,0.2-0.7,0.5c0,0.3-0.3,0.5-0.8,0.5c-0.4,0-0.8,0.2-0.8,0.5c0,0.3-0.4,0.5-0.8,0.5
		c-0.9,0-2.5,1.4-2.1,1.9c0.3,0.3,6.7-3.8,6.9-4.5c0.1-0.2,0.4-0.4,0.8-0.4c0.7,0,3.4-2.2,3.4-2.7
		C464.4,488.2,463.6,488.5,462.9,489.5z M451.4,496.5c-0.6,0.6-0.4,1.2,0.4,1.2c0.4,0,0.8-0.3,0.8-0.8
		C452.6,496.1,452,495.9,451.4,496.5z M61.6,497.7c-0.2,0.3-0.3,0.7-0.2,0.7c4.1,2.3,7.1,3.3,7.1,2.4c0-0.3-0.5-0.5-1-0.5
		s-1-0.2-1-0.5c0-0.3-0.5-0.5-1-0.5s-1-0.2-1-0.5c0-0.3-0.2-0.4-0.5-0.2c-0.3,0.2-0.8-0.1-1.2-0.6C62.2,497.3,61.9,497.2,61.6,497.7
		z M449.4,498c-0.2,0.5-0.6,0.7-1.1,0.6c-0.4-0.2-0.8-0.1-0.8,0.2c0,0.3-0.5,0.5-1,0.5c-0.6,0-1,0.2-1,0.5c0,0.3-0.5,0.5-1,0.5
		c-0.6,0-1,0.2-1,0.5c0,1,3.9-0.3,7.1-2.4c0.1-0.1,0-0.4-0.3-0.7C449.9,497.3,449.6,497.4,449.4,498z M71.6,502.8
		c0,0.3,0.3,0.5,0.8,0.5c0.4,0,0.8-0.2,0.8-0.5c0-0.3-0.3-0.5-0.8-0.5C71.9,502.3,71.6,502.6,71.6,502.8z M438.8,502.8
		c0,0.3,0.3,0.5,0.8,0.5c0.4,0,0.8-0.2,0.8-0.5c0-0.3-0.3-0.5-0.8-0.5C439.1,502.3,438.8,502.6,438.8,502.8z M73.6,503.9
		c0,0.3,0.5,0.5,1,0.5c0.6,0,1-0.2,1-0.5c0-0.3-0.5-0.5-1-0.5C74.1,503.4,73.6,503.6,73.6,503.9z M436.2,503.9c0,0.3,0.5,0.5,1,0.5
		c0.6,0,1-0.2,1-0.5c0-0.3-0.5-0.5-1-0.5C436.7,503.4,436.2,503.6,436.2,503.9z M76.2,504.9c0,0.3,0.5,0.5,1,0.5c0.6,0,1-0.2,1-0.5
		c0-0.3-0.5-0.5-1-0.5C76.6,504.4,76.2,504.6,76.2,504.9z M433.7,504.9c0,0.3,0.5,0.5,1,0.5c0.6,0,1-0.2,1-0.5c0-0.3-0.5-0.5-1-0.5
		C434.1,504.4,433.7,504.6,433.7,504.9z M78.7,505.9c0,0.3,0.5,0.5,1,0.5c0.6,0,1-0.2,1-0.5c0-0.3-0.5-0.5-1-0.5
		C79.2,505.4,78.7,505.6,78.7,505.9z M431.1,505.9c0,0.3,0.5,0.5,1,0.5c0.6,0,1-0.2,1-0.5c0-0.3-0.5-0.5-1-0.5
		C431.6,505.4,431.1,505.6,431.1,505.9z M81.8,506.9c0,0.3,0.5,0.5,1,0.5c0.6,0,1-0.2,1-0.5c0-0.3-0.5-0.5-1-0.5
		C82.3,506.4,81.8,506.7,81.8,506.9z M428,506.9c0,0.3,0.5,0.5,1,0.5c0.6,0,1-0.2,1-0.5c0-0.3-0.5-0.5-1-0.5
		C428.5,506.4,428,506.7,428,506.9z M85.4,508c0,0.3,0.5,0.5,1,0.5c0.6,0,1-0.2,1-0.5c0-0.3-0.5-0.5-1-0.5
		C85.9,507.4,85.4,507.7,85.4,508z M424.5,508c0,0.3,0.5,0.5,1,0.5c0.6,0,1-0.2,1-0.5c0-0.3-0.5-0.5-1-0.5
		C424.9,507.4,424.5,507.7,424.5,508z M88.5,509c0,0.3,0.6,0.5,1.3,0.5c0.7,0,1.4-0.2,1.6-0.5c0.2-0.3-0.3-0.5-1.2-0.5
		C89.2,508.5,88.5,508.7,88.5,509z M420.9,509c0,0.3,0.6,0.5,1.3,0.5c0.7,0,1.3-0.2,1.3-0.5c0-0.3-0.6-0.5-1.3-0.5
		C421.4,508.5,420.9,508.7,420.9,509z M92.6,510c0,0.3,0.7,0.5,1.5,0.5c0.8,0,1.5-0.2,1.5-0.5c0-0.3-0.7-0.5-1.5-0.5
		C93.3,509.5,92.6,509.7,92.6,510z M416.3,510c0,0.3,0.7,0.5,1.5,0.5c0.8,0,1.5-0.2,1.5-0.5c0-0.3-0.7-0.5-1.5-0.5
		C417,509.5,416.3,509.7,416.3,510z M97.7,511c0,0.3,0.8,0.5,1.8,0.5c1,0,1.8-0.2,1.8-0.5c0-0.3-0.8-0.5-1.8-0.5
		C98.5,510.5,97.7,510.8,97.7,511z M410.6,511c0,0.3,0.8,0.5,1.8,0.5c1,0,1.8-0.2,1.8-0.5c0-0.3-0.8-0.5-1.8-0.5
		C411.4,510.5,410.6,510.8,410.6,511z M105.5,511.9c0.8,0.1,2,0.1,2.8,0c0.8-0.1,0.1-0.2-1.4-0.2
		C105.4,511.7,104.7,511.8,105.5,511.9z M403.6,511.9c0.8,0.1,2,0.1,2.8,0c0.8-0.1,0.1-0.2-1.4-0.2
		C403.4,511.7,402.8,511.8,403.6,511.9z"/>
</g>
</svg>
