<svg xmlns="http://www.w3.org/2000/svg" width="75" height="75" fill="none" viewBox="0 0 75 75"><path fill="#279CEB" fill-rule="evenodd" d="M15.4687 0.0546591C15.1284 0.0690966 14.85 0.113347 14.85 0.152909C14.85 0.192472 14.6643 0.224909 14.4375 0.224909C14.2106 0.224909 14.025 0.258659 14.025 0.299909C14.025 0.341159 13.89 0.374909 13.725 0.374909C13.56 0.374909 13.425 0.408659 13.425 0.449909C13.425 0.491159 13.29 0.524909 13.125 0.524909C12.9545 0.524909 12.825 0.560909 12.825 0.608347C12.825 0.659159 12.7338 0.678472 12.593 0.657847C12.4425 0.635722 12.3476 0.659159 12.3225 0.724409C12.3013 0.779722 12.2051 0.824909 12.1089 0.824909C12.0125 0.824909 11.9109 0.861847 11.8832 0.907034C11.8552 0.952034 11.7519 0.973597 11.6537 0.954847C11.5361 0.932347 11.475 0.955597 11.475 1.02272C11.475 1.08178 11.3957 1.12491 11.2875 1.12491C11.1843 1.12491 11.1 1.15866 11.1 1.19991C11.1 1.24116 11.0156 1.27491 10.9125 1.27491C10.8093 1.27491 10.725 1.30866 10.725 1.34991C10.725 1.39116 10.6406 1.42491 10.5375 1.42491C10.4343 1.42491 10.35 1.45866 10.35 1.49991C10.35 1.54116 10.2825 1.57491 10.2 1.57491C10.1175 1.57491 10.05 1.60866 10.05 1.64991C10.05 1.69116 9.98246 1.72491 9.89996 1.72491C9.81746 1.72491 9.74996 1.75866 9.74996 1.79991C9.74996 1.84116 9.68246 1.87491 9.59996 1.87491C9.51746 1.87491 9.44996 1.90978 9.44996 1.95253C9.44996 2.00541 9.40477 2.00597 9.30859 1.9546C9.19477 1.89366 9.16927 1.90416 9.17734 2.00822C9.18371 2.08847 9.13777 2.13347 9.05621 2.12691C8.98403 2.12128 8.92402 2.15503 8.92309 2.20191C8.92121 2.28366 8.42865 2.54991 8.2794 2.54991C8.24021 2.54991 8.1594 2.61741 8.09996 2.69991C8.04052 2.78241 7.93927 2.84991 7.87496 2.84991C7.81065 2.84991 7.7094 2.91741 7.64996 2.99991C7.59052 3.08241 7.48927 3.14991 7.42496 3.14991C7.36065 3.14991 7.2594 3.21741 7.19996 3.29991C7.14052 3.38241 7.04602 3.44991 6.98996 3.44991C6.93409 3.44991 6.75859 3.58491 6.59996 3.74991C6.44134 3.91491 6.2754 4.04991 6.23077 4.04991C6.18634 4.04991 6.14996 4.08722 6.14996 4.13297C6.14996 4.17853 6.09765 4.19578 6.03352 4.17122C5.96959 4.14666 5.93659 4.1581 5.9604 4.19653C6.01684 4.28803 4.28809 6.01678 4.19659 5.96035C4.15815 5.93653 4.14671 5.96953 4.17127 6.03347C4.19584 6.0976 4.17859 6.14991 4.13302 6.14991C4.08727 6.14991 4.04996 6.18704 4.04996 6.23241C4.04996 6.2776 3.94871 6.40922 3.82496 6.52491C3.70121 6.6406 3.59996 6.7741 3.59996 6.82191C3.59996 6.86972 3.56621 6.88791 3.52496 6.86241C3.48371 6.83691 3.44996 6.87816 3.44996 6.95391C3.44996 7.02985 3.38246 7.14047 3.29996 7.19991C3.21746 7.25935 3.14996 7.3606 3.14996 7.42491C3.14996 7.48922 3.08246 7.59047 2.99996 7.64991C2.91746 7.70935 2.84996 7.8106 2.84996 7.87491C2.84996 7.93922 2.78246 8.04047 2.69996 8.09991C2.61746 8.15935 2.54996 8.25572 2.54996 8.31385C2.54996 8.37216 2.47927 8.4811 2.39302 8.55591C2.30677 8.63072 2.25821 8.72766 2.2854 8.77153C2.3124 8.81522 2.28109 8.87147 2.21584 8.89641C2.15059 8.92154 2.10634 8.99728 2.1174 9.06479C2.13052 9.14447 2.08871 9.18328 1.99815 9.1756C1.89652 9.16716 1.88134 9.18629 1.9419 9.24685C2.05702 9.36197 2.04596 9.4741 1.92409 9.42722C1.8519 9.39966 1.83315 9.43979 1.8579 9.56935C1.87777 9.67285 1.85677 9.74991 1.80877 9.74991C1.76265 9.74991 1.72496 9.81741 1.72496 9.89991C1.72496 9.98241 1.69121 10.0499 1.64996 10.0499C1.60871 10.0499 1.57496 10.1174 1.57496 10.1999C1.57496 10.2824 1.54121 10.3499 1.49996 10.3499C1.45871 10.3499 1.42496 10.4343 1.42496 10.5374C1.42496 10.6405 1.39121 10.7249 1.34996 10.7249C1.30871 10.7249 1.27496 10.8093 1.27496 10.9124C1.27496 11.0155 1.24121 11.0999 1.19996 11.0999C1.15871 11.0999 1.12496 11.1843 1.12496 11.2874C1.12496 11.3956 1.08184 11.4749 1.02277 11.4749C0.954335 11.4749 0.932585 11.5366 0.956585 11.6624C0.977585 11.7719 0.957523 11.8499 0.908773 11.8499C0.862648 11.8499 0.82496 11.9512 0.82496 12.0749C0.82496 12.1987 0.79121 12.2999 0.74996 12.2999C0.70871 12.2999 0.67496 12.418 0.67496 12.5624C0.67496 12.7068 0.64121 12.8249 0.59996 12.8249C0.55871 12.8249 0.52496 12.943 0.52496 13.0874C0.52496 13.2318 0.49121 13.3499 0.44996 13.3499C0.40871 13.3499 0.37496 13.5018 0.37496 13.6874C0.37496 13.873 0.34121 14.0249 0.29996 14.0249C0.25871 14.0249 0.22496 14.2077 0.22496 14.4312C0.22496 14.6894 0.190835 14.8488 0.13121 14.8687C-0.00679005 14.9146 -0.00679005 60.0852 0.13121 60.1312C0.190835 60.151 0.22496 60.3104 0.22496 60.5686C0.22496 60.7921 0.25871 60.9749 0.29996 60.9749C0.34121 60.9749 0.37496 61.1268 0.37496 61.3124C0.37496 61.498 0.40871 61.6499 0.44996 61.6499C0.49121 61.6499 0.52496 61.768 0.52496 61.9124C0.52496 62.0568 0.55871 62.1749 0.59996 62.1749C0.64121 62.1749 0.67496 62.293 0.67496 62.4374C0.67496 62.5818 0.70871 62.6999 0.74996 62.6999C0.79121 62.6999 0.82496 62.8012 0.82496 62.9249C0.82496 63.0487 0.85871 63.1499 0.89996 63.1499C0.94121 63.1499 0.97496 63.2343 0.97496 63.3374C0.97496 63.4405 1.00871 63.5249 1.04996 63.5249C1.09121 63.5249 1.12496 63.6093 1.12496 63.7124C1.12496 63.8155 1.15871 63.8999 1.19996 63.8999C1.24121 63.8999 1.27496 63.9843 1.27496 64.0874C1.27496 64.1905 1.30871 64.2749 1.34996 64.2749C1.39121 64.2749 1.42496 64.3593 1.42496 64.4624C1.42496 64.5655 1.45871 64.6499 1.49996 64.6499C1.54121 64.6499 1.57496 64.7174 1.57496 64.7999C1.57496 64.8824 1.60871 64.9499 1.64996 64.9499C1.69121 64.9499 1.72496 65.0174 1.72496 65.0999C1.72496 65.1824 1.75871 65.2499 1.79996 65.2499C1.84121 65.2499 1.87496 65.3174 1.87496 65.3999C1.87496 65.4824 1.91227 65.5499 1.95802 65.5499C2.00359 65.5499 2.02102 65.6018 1.99684 65.6652C1.97209 65.7297 1.99946 65.7987 2.0589 65.8214C2.11759 65.8439 2.14721 65.9101 2.12471 65.9686C2.10221 66.0271 2.11834 66.0749 2.16034 66.0749C2.20215 66.0749 2.3139 66.2352 2.40859 66.4312C2.50309 66.6271 2.64109 66.8529 2.71534 66.9327C2.7894 67.0128 2.84996 67.1225 2.84996 67.1765C2.84996 67.2307 2.87809 67.2749 2.91221 67.2749C2.94652 67.2749 3.02227 67.3677 3.08059 67.4812C3.13871 67.5946 3.24577 67.742 3.31815 67.8087C3.39071 67.8755 3.44996 67.9677 3.44996 68.0138C3.44996 68.06 3.61027 68.2681 3.80621 68.4766C4.57084 69.29 6.21502 70.9499 6.25627 70.9499C6.28027 70.9499 6.4389 71.0849 6.60896 71.2499C6.77902 71.4149 6.95715 71.5499 7.00496 71.5499C7.05277 71.5499 7.14052 71.6174 7.19996 71.6999C7.2594 71.7824 7.36065 71.8499 7.42496 71.8499C7.48927 71.8499 7.59052 71.9174 7.64996 71.9999C7.7094 72.0824 7.81065 72.1499 7.87496 72.1499C7.93927 72.1499 8.04052 72.2174 8.09996 72.2999C8.1594 72.3824 8.26815 72.4499 8.34146 72.4499C8.41496 72.4499 8.47496 72.4803 8.47496 72.5176C8.47496 72.5547 8.57621 72.6205 8.69996 72.6637C8.82371 72.7068 8.92496 72.7792 8.92496 72.8243C8.92496 72.8695 8.98403 72.8965 9.05621 72.8845C9.14171 72.8701 9.1839 72.9074 9.17734 72.9916C9.16927 73.0957 9.19477 73.1062 9.30859 73.0452C9.40477 72.9939 9.44996 72.9944 9.44996 73.0473C9.44996 73.09 9.51746 73.1249 9.59996 73.1249C9.68246 73.1249 9.74996 73.1587 9.74996 73.1999C9.74996 73.2412 9.81746 73.2749 9.89996 73.2749C9.98246 73.2749 10.05 73.3087 10.05 73.3499C10.05 73.3912 10.1175 73.4249 10.2 73.4249C10.2825 73.4249 10.35 73.4587 10.35 73.4999C10.35 73.5412 10.4343 73.5749 10.5375 73.5749C10.6406 73.5749 10.725 73.6087 10.725 73.6499C10.725 73.6912 10.8093 73.7249 10.9125 73.7249C11.0156 73.7249 11.1 73.7587 11.1 73.7999C11.1 73.8412 11.1843 73.8749 11.2875 73.8749C11.3957 73.8749 11.475 73.918 11.475 73.9771C11.475 74.0455 11.5367 74.0673 11.6625 74.0433C11.772 74.0223 11.85 74.0424 11.85 74.0911C11.85 74.1372 11.9476 74.1749 12.0669 74.1749C12.1863 74.1749 12.3013 74.2201 12.3225 74.2754C12.3476 74.3407 12.4425 74.3641 12.593 74.342C12.7338 74.3214 12.825 74.3407 12.825 74.3915C12.825 74.4391 12.9558 74.4749 13.1295 74.4749C13.3132 74.4749 13.4154 74.5045 13.3875 74.5499C13.3592 74.5957 13.4743 74.6249 13.683 74.6249C13.871 74.6249 14.025 74.6587 14.025 74.6999C14.025 74.7412 14.2078 74.7749 14.4313 74.7749C14.6895 74.7749 14.8488 74.809 14.8687 74.8687C14.9147 75.0067 60.0853 75.0067 60.1312 74.8687C60.1511 74.809 60.3105 74.7749 60.5687 74.7749C60.7922 74.7749 60.975 74.7412 60.975 74.6999C60.975 74.6587 61.1268 74.6249 61.3125 74.6249C61.4981 74.6249 61.65 74.5912 61.65 74.5499C61.65 74.5087 61.7681 74.4749 61.9125 74.4749C62.0569 74.4749 62.175 74.4412 62.175 74.3999C62.175 74.3587 62.2931 74.3249 62.4375 74.3249C62.5818 74.3249 62.7 74.2912 62.7 74.2499C62.7 74.2087 62.8012 74.1749 62.925 74.1749C63.0487 74.1749 63.15 74.1372 63.15 74.0911C63.15 74.0424 63.228 74.0223 63.3375 74.0433C63.4633 74.0673 63.525 74.0455 63.525 73.9771C63.525 73.918 63.6043 73.8749 63.7125 73.8749C63.8156 73.8749 63.9 73.8412 63.9 73.7999C63.9 73.7587 63.9843 73.7249 64.0875 73.7249C64.1906 73.7249 64.275 73.6912 64.275 73.6499C64.275 73.6087 64.3593 73.5749 64.4625 73.5749C64.5656 73.5749 64.65 73.5412 64.65 73.4999C64.65 73.4587 64.7175 73.4249 64.8 73.4249C64.8825 73.4249 64.95 73.3912 64.95 73.3499C64.95 73.3087 65.0175 73.2749 65.1 73.2749C65.1825 73.2749 65.25 73.2412 65.25 73.1999C65.25 73.1587 65.3175 73.1249 65.4 73.1249C65.4825 73.1249 65.55 73.0923 65.55 73.0524C65.55 73.0122 65.6002 72.9989 65.6619 73.0225C65.7247 73.0467 65.7932 73.0148 65.8181 72.95C65.8425 72.8864 65.9059 72.851 65.9589 72.8714C66.0122 72.8919 66.0772 72.8525 66.1035 72.7839C66.1297 72.7154 66.1963 72.6766 66.2514 72.6978C66.3065 72.719 66.3982 72.6719 66.4548 72.5932C66.5117 72.5144 66.6182 72.4499 66.6915 72.4499C66.765 72.4499 66.825 72.4162 66.825 72.3749C66.825 72.3337 66.8756 72.2999 66.9375 72.2999C66.9994 72.2999 67.05 72.2662 67.05 72.2249C67.05 72.1837 67.0931 72.1499 67.146 72.1499C67.1987 72.1499 67.2905 72.0824 67.35 71.9999C67.4094 71.9174 67.5107 71.8499 67.575 71.8499C67.6393 71.8499 67.7405 71.7824 67.8 71.6999C67.8594 71.6174 67.9472 71.5499 67.995 71.5499C68.0428 71.5499 68.2209 71.4149 68.391 71.2499C68.561 71.0849 68.7339 70.9499 68.775 70.9499C68.8162 70.9499 68.85 70.9162 68.85 70.8749C68.85 70.8337 68.9006 70.7999 68.9625 70.7999C69.0243 70.7999 69.075 70.7675 69.075 70.7277C69.075 70.6497 70.5343 69.1842 70.7932 69.0022C70.8795 68.9414 70.95 68.8486 70.95 68.7959C70.95 68.7432 71.085 68.561 71.25 68.3909C71.415 68.2209 71.55 68.0427 71.55 67.9949C71.55 67.9471 71.6175 67.8594 71.7 67.7999C71.7825 67.7405 71.85 67.6441 71.85 67.586C71.85 67.5277 71.9092 67.4255 71.9818 67.3587C72.0542 67.292 72.1612 67.1446 72.2194 67.0312C72.2777 66.9177 72.3534 66.8249 72.3877 66.8249C72.4219 66.8249 72.45 66.7574 72.45 66.6749C72.45 66.5924 72.4803 66.5249 72.5177 66.5249C72.5548 66.5249 72.6206 66.4237 72.6637 66.2999C72.7069 66.1762 72.7813 66.0749 72.8291 66.0749C72.8769 66.0749 72.8966 66.0243 72.8728 65.9624C72.8456 65.8915 72.8737 65.8499 72.9485 65.8499C73.0305 65.8499 73.0552 65.8034 73.0282 65.6999C73.0067 65.6174 73.0196 65.5499 73.0569 65.5499C73.0944 65.5499 73.125 65.4824 73.125 65.3999C73.125 65.3174 73.1587 65.2499 73.2 65.2499C73.2412 65.2499 73.275 65.1824 73.275 65.0999C73.275 65.0174 73.3087 64.9499 73.35 64.9499C73.3912 64.9499 73.425 64.8824 73.425 64.7999C73.425 64.7174 73.4587 64.6499 73.5 64.6499C73.5412 64.6499 73.575 64.5655 73.575 64.4624C73.575 64.3593 73.6087 64.2749 73.65 64.2749C73.6912 64.2749 73.725 64.1905 73.725 64.0874C73.725 63.9843 73.7587 63.8999 73.8 63.8999C73.8412 63.8999 73.875 63.8155 73.875 63.7124C73.875 63.6042 73.9181 63.5249 73.9772 63.5249C74.0456 63.5249 74.0674 63.4632 74.0434 63.3374C74.0224 63.2279 74.0424 63.1499 74.0912 63.1499C74.1373 63.1499 74.175 63.0487 74.175 62.9249C74.175 62.8012 74.2087 62.6999 74.25 62.6999C74.2912 62.6999 74.325 62.5818 74.325 62.4374C74.325 62.293 74.3587 62.1749 74.4 62.1749C74.4412 62.1749 74.475 62.0588 74.475 61.9169C74.475 61.775 74.5087 61.6379 74.55 61.6124C74.5912 61.5869 74.625 61.433 74.625 61.2704C74.625 61.1078 74.6587 60.9749 74.7 60.9749C74.7412 60.9749 74.775 60.7921 74.775 60.5686C74.775 60.3104 74.8091 60.151 74.8687 60.1312C74.9435 60.1062 74.9625 55.5132 74.9625 37.4999C74.9625 19.4866 74.9435 14.8936 74.8687 14.8687C74.8091 14.8488 74.775 14.6894 74.775 14.4312C74.775 14.2077 74.7412 14.0249 74.7 14.0249C74.6587 14.0249 74.625 13.871 74.625 13.6829C74.625 13.4742 74.5957 13.3591 74.55 13.3874C74.5046 13.4153 74.475 13.3132 74.475 13.1294C74.475 12.962 74.4412 12.8249 74.4 12.8249C74.3587 12.8249 74.325 12.7068 74.325 12.5624C74.325 12.418 74.2912 12.2999 74.25 12.2999C74.2087 12.2999 74.175 12.1987 74.175 12.0749C74.175 11.9512 74.1373 11.8499 74.0912 11.8499C74.0424 11.8499 74.0224 11.7719 74.0434 11.6624C74.0674 11.5366 74.0456 11.4749 73.9772 11.4749C73.9181 11.4749 73.875 11.3956 73.875 11.2874C73.875 11.1843 73.8412 11.0999 73.8 11.0999C73.7587 11.0999 73.725 11.0155 73.725 10.9124C73.725 10.8093 73.6912 10.7249 73.65 10.7249C73.6087 10.7249 73.575 10.6405 73.575 10.5374C73.575 10.4343 73.5412 10.3499 73.5 10.3499C73.4587 10.3499 73.425 10.2824 73.425 10.1999C73.425 10.1174 73.3912 10.0499 73.35 10.0499C73.3087 10.0499 73.275 9.98241 73.275 9.89991C73.275 9.81741 73.2442 9.74991 73.2065 9.74991C73.1689 9.74991 73.1156 9.61585 73.0879 9.45197C73.0599 9.28679 72.9986 9.16154 72.95 9.17072C72.9018 9.17991 72.8715 9.1321 72.8825 9.06479C72.8936 8.99728 72.8493 8.92154 72.7841 8.89641C72.7188 8.87147 72.6832 8.82216 72.7052 8.78672C72.7269 8.75147 72.6785 8.65135 72.5974 8.56435C72.5163 8.47735 72.45 8.36166 72.45 8.3071C72.45 8.25253 72.3825 8.15935 72.3 8.09991C72.2175 8.04047 72.15 7.93922 72.15 7.87491C72.15 7.8106 72.0825 7.70935 72 7.64991C71.9175 7.59047 71.85 7.48922 71.85 7.42491C71.85 7.3606 71.7825 7.25935 71.7 7.19991C71.6175 7.14047 71.55 7.04597 71.55 6.98991C71.55 6.93403 71.415 6.75853 71.25 6.59991C71.085 6.44129 70.95 6.29072 70.95 6.26504C70.95 6.2026 68.7997 4.04991 68.7373 4.04991C68.7103 4.04991 68.5586 3.91491 68.4 3.74991C68.2413 3.58491 68.0658 3.44991 68.01 3.44991C67.9539 3.44991 67.8594 3.38241 67.8 3.29991C67.7405 3.21741 67.6442 3.14991 67.586 3.14991C67.5277 3.14991 67.4255 3.09066 67.3588 3.0181C67.292 2.94572 67.1447 2.83866 67.0312 2.78053C66.9178 2.72222 66.825 2.64647 66.825 2.61216C66.825 2.57803 66.7719 2.54991 66.707 2.54991C66.6423 2.54991 66.5387 2.49928 66.4768 2.43741C66.4149 2.37553 66.2992 2.32491 66.2195 2.32491C66.14 2.32491 66.075 2.27541 66.075 2.21485C66.075 2.14791 66.0309 2.12147 65.963 2.14753C65.8984 2.17247 65.831 2.13797 65.8035 2.06597C65.7772 1.99735 65.7094 1.9591 65.6527 1.98066C65.5963 2.00241 65.55 1.9876 65.55 1.94747C65.55 1.90753 65.4825 1.87491 65.4 1.87491C65.3175 1.87491 65.25 1.84116 65.25 1.79991C65.25 1.75866 65.1825 1.72491 65.1 1.72491C65.0175 1.72491 64.95 1.69116 64.95 1.64991C64.95 1.60866 64.8825 1.57491 64.8 1.57491C64.7175 1.57491 64.65 1.54116 64.65 1.49991C64.65 1.45866 64.5656 1.42491 64.4625 1.42491C64.3593 1.42491 64.275 1.39116 64.275 1.34991C64.275 1.30866 64.1906 1.27491 64.0875 1.27491C63.9843 1.27491 63.9 1.24116 63.9 1.19991C63.9 1.15866 63.8156 1.12491 63.7125 1.12491C63.6093 1.12491 63.525 1.09116 63.525 1.04991C63.525 1.00866 63.4406 0.974909 63.3375 0.974909C63.2343 0.974909 63.15 0.941159 63.15 0.899909C63.15 0.858659 63.0487 0.824909 62.925 0.824909C62.8012 0.824909 62.7 0.791159 62.7 0.749909C62.7 0.708659 62.5818 0.674909 62.4375 0.674909C62.2931 0.674909 62.175 0.641159 62.175 0.599909C62.175 0.558659 62.04 0.524909 61.875 0.524909C61.71 0.524909 61.575 0.491159 61.575 0.449909C61.575 0.408659 61.44 0.374909 61.275 0.374909C61.11 0.374909 60.975 0.341159 60.975 0.299909C60.975 0.258659 60.7922 0.224909 60.5687 0.224909C60.3105 0.224909 60.1511 0.190784 60.1312 0.131159C60.1022 0.0441591 17.4416 -0.0289659 15.4687 0.0546591ZM59.1812 2.99447C59.4047 3.03272 59.8237 3.1036 60.1125 3.15216C66.0694 4.15191 70.9614 9.19322 71.9428 15.3434C72.0829 16.2222 72.0814 58.7843 71.9411 59.6748C70.9483 65.9782 65.9782 70.9482 59.6748 71.941C58.7844 72.0813 16.2223 72.0828 15.3435 71.9427C9.18709 70.9604 4.17109 66.0925 3.15334 60.1124C3.10421 59.8237 3.03277 59.4046 2.99452 59.1811C2.90134 58.6364 2.90134 16.3634 2.99452 15.8187C3.03277 15.5952 3.10365 15.1762 3.15221 14.8874C3.38846 13.4791 4.2129 11.2503 4.87177 10.2374C4.97921 10.0724 5.11009 9.85172 5.16277 9.74691C5.24902 9.57516 5.53421 9.1771 6.1224 8.40722C6.38959 8.05754 8.05759 6.38953 8.40728 6.12235C9.17715 5.53416 9.57521 5.24897 9.74696 5.16272C9.85178 5.11003 10.0725 4.97916 10.2375 4.87172C11.2374 4.2211 13.478 3.38878 14.85 3.15835C15.1181 3.11335 15.5062 3.04641 15.7125 3.00947C16.2227 2.91853 58.6515 2.90372 59.1812 2.99447ZM35.5125 12.6824C35.265 12.7178 34.7756 12.7842 34.425 12.83C34.0743 12.8759 33.6693 12.9412 33.525 12.9751C33.3806 13.009 33.0768 13.075 32.85 13.1215C27.2544 14.2696 22.859 17.7151 21.4115 22.0874C20.3728 25.2252 20.6771 29.3577 22.1437 32.0249C22.9968 33.5767 23.85 34.5292 25.7351 36.0357C26.6709 36.7835 29.4195 38.2673 31.0875 38.9253C31.4175 39.0554 31.7887 39.206 31.9125 39.2596C32.0362 39.3134 32.2556 39.3983 32.4 39.4486C32.5443 39.4989 32.73 39.5669 32.8125 39.5999C32.895 39.6329 33.0806 39.7004 33.225 39.7499C33.3693 39.7994 33.555 39.869 33.6375 39.9044C33.8135 39.9798 35.2826 40.453 36.5625 40.8466C40.682 42.1133 43.0404 43.516 43.8283 45.1679C44.5007 46.5777 44.4933 48.521 43.8103 49.9499C43.548 50.4985 42.2981 51.8999 42.071 51.8999C42.0262 51.8999 41.8485 51.9946 41.676 52.1105C39.2902 53.7127 33.2488 53.6645 29.507 52.0133C29.3657 51.9509 29.1234 51.8446 28.9687 51.7769C27.4423 51.1092 26.0567 50.2681 24.729 49.2031C23.9955 48.6147 23.9261 48.592 23.7082 48.869C23.6242 48.9758 23.2758 49.3718 22.934 49.7493C21.8058 50.9945 21.5628 51.262 21.525 51.2999C21.5043 51.3205 21.2006 51.6577 20.85 52.0492C20.4993 52.4407 20.145 52.8312 20.0625 52.9171C19.98 53.003 19.6931 53.3217 19.425 53.6253C19.1568 53.929 18.828 54.2978 18.6941 54.4448C18.3663 54.8052 18.4128 54.8817 19.5 55.7705C19.6443 55.8884 19.7793 56.0052 19.8 56.03C19.9601 56.2218 22.2073 57.8249 22.3162 57.8249C22.3427 57.8249 22.4538 57.8874 22.5633 57.9637C22.755 58.0974 23.7628 58.6569 24.15 58.8445C24.3461 58.9396 24.6512 59.0752 25.5528 59.4674C26.7907 60.0057 29.2074 60.697 30.8062 60.9698C31.9355 61.1626 32.1767 61.198 32.85 61.2702C35.739 61.5798 38.5732 61.5573 41.1 61.2042C42.5042 61.0083 43.6607 60.7557 44.8875 60.3773C52.9095 57.9037 56.9801 51.4644 55.533 43.5374C55.4347 42.9995 55.1092 41.7743 54.975 41.4374C54.098 39.2358 52.7017 37.3437 51 36.0511C50.7731 35.8788 50.5706 35.7187 50.55 35.6952C50.4883 35.6251 49.8731 35.2182 49.3125 34.8768C48.6735 34.4877 45.9622 33.1499 45.8124 33.1499C45.7533 33.1499 45.6729 33.1214 45.6337 33.0863C45.5945 33.0515 45.2756 32.9133 44.925 32.7792C44.5743 32.6453 44.22 32.5066 44.1375 32.4713C43.9473 32.3898 42.5471 31.93 40.95 31.4247C39.4787 30.9593 37.5129 30.2688 36.7875 29.963C36.6637 29.9107 36.2587 29.74 35.8875 29.5835C33.3365 28.508 32.2218 27.1865 32.2218 25.2374C32.2218 23.5409 33.0647 22.2963 34.7748 21.4679C35.2183 21.2532 35.3075 21.2197 35.85 21.0648C37.7681 20.5175 40.6758 20.4892 42.675 20.9984C44.0829 21.3571 44.4654 21.4756 45.3375 21.8232C46.6014 22.327 48.1209 23.2028 49.35 24.136C49.914 24.5643 49.7923 24.6254 50.8738 23.3705C50.9486 23.2835 51.1848 23.0129 51.3988 22.7692C51.6125 22.5254 51.8381 22.2682 51.9 22.1975C51.9618 22.127 52.1812 21.8712 52.3875 21.6293C52.5937 21.3875 52.8975 21.0382 53.0625 20.8531C53.2275 20.6678 53.4686 20.3973 53.5982 20.252C53.7277 20.1065 54.1098 19.6673 54.4473 19.2764L55.061 18.5652L54.6993 18.2255C54.5002 18.0385 54.1901 17.768 54.0099 17.624C53.8297 17.4802 53.6441 17.3273 53.5974 17.2848C52.7222 16.4838 50.0246 14.9369 48.45 14.3328C48.0993 14.1983 47.7538 14.0572 47.6822 14.0191C47.6105 13.981 47.486 13.9499 47.4054 13.9499C47.3248 13.9499 47.238 13.9162 47.2125 13.8749C47.187 13.8337 47.1002 13.7999 47.0195 13.7999C46.9389 13.7999 46.8144 13.7678 46.7428 13.7287C46.5932 13.6469 45.992 13.4917 44.8125 13.2305C43.4439 12.9273 43.3442 12.9112 41.4 12.6766C40.6445 12.5855 36.159 12.59 35.5125 12.6824Z" clip-rule="evenodd"/><path fill="#171C28" fill-rule="evenodd" d="M15.7875 3.11772C9.14888 3.91891 3.90076 9.19834 3.11588 15.8649C2.94282 17.3345 2.94282 57.6654 3.11588 59.135C3.32307 60.8951 3.72357 62.2533 4.50976 63.8625C6.06282 67.0413 8.85132 69.6341 12.15 70.9666C12.2531 71.0085 12.3962 71.0722 12.4678 71.1088C12.5394 71.1451 12.6593 71.175 12.7341 71.175C12.8089 71.175 12.9021 71.2029 12.9413 71.2368C13.029 71.3131 13.6217 71.481 14.55 71.6923C15.7528 71.9662 15.4361 71.9625 37.5 71.9625C54.6919 71.9625 59.1 71.9431 59.55 71.8659C60.0926 71.7725 60.3422 71.7206 61.1063 71.5415C61.4794 71.454 62.2431 71.2147 62.5313 71.0951C62.6241 71.0565 62.7759 70.9948 62.8688 70.958C64.7874 70.1968 66.8603 68.7392 68.2663 67.1625C68.8989 66.4531 69.975 64.9726 69.975 64.8118C69.975 64.7709 70.0007 64.7263 70.0322 64.7124C70.0854 64.6891 70.8116 63.2445 70.9588 62.8687C70.9952 62.7759 71.0565 62.624 71.0951 62.5312C71.2138 62.2453 71.4538 61.4801 71.5363 61.125C71.7383 60.2542 71.7756 60.0759 71.866 59.55C71.9432 59.1 71.9625 54.6849 71.9625 37.4625C71.9625 14.25 71.9852 15.7832 71.6196 14.25C71.5753 14.0643 71.521 13.8024 71.4988 13.668C71.4765 13.5335 71.4283 13.4051 71.3918 13.3824C71.355 13.3597 71.325 13.2607 71.325 13.1625C71.325 13.0642 71.2913 12.963 71.25 12.9375C71.2088 12.912 71.175 12.8252 71.175 12.7445C71.175 12.6639 71.1452 12.5394 71.1088 12.4678C71.0723 12.3962 71.0085 12.2531 70.9667 12.15C69.8638 9.4196 67.9378 7.08466 65.3479 5.33828C65.0923 5.16597 64.8504 5.02497 64.8103 5.02497C64.7704 5.02497 64.7263 4.99853 64.7124 4.96628C64.6894 4.9121 63.6126 4.3676 63 4.10022C61.9995 3.66353 60.4629 3.27222 59.1351 3.11585C57.777 2.95591 17.1135 2.95778 15.7875 3.11772ZM40.8911 12.5267C42.6883 12.7055 43.3933 12.81 44.775 13.1017C46.0031 13.361 47.7743 13.898 48.3259 14.1783C48.4845 14.259 48.6786 14.325 48.7571 14.325C48.8357 14.325 48.9 14.3587 48.9 14.4C48.9 14.4412 48.9489 14.475 49.0089 14.475C49.6742 14.475 53.4439 16.8885 54.7832 18.1717C55.2369 18.6065 55.2778 18.4779 54.3521 19.5305C54.1378 19.7741 53.8444 20.1103 53.7 20.2773C53.5556 20.4444 53.2856 20.7536 53.1 20.9645C52.9144 21.1755 52.578 21.5615 52.3526 21.8223C52.1271 22.0832 51.9071 22.334 51.864 22.3796C51.8207 22.4252 51.6002 22.6809 51.3739 22.9481C50.9903 23.4009 50.8444 23.5672 50.1636 24.3283C49.8609 24.6663 49.7633 24.6585 49.3208 24.2593C49.1604 24.1145 48.9326 23.939 48.8145 23.8693C48.6966 23.7997 48.6 23.7161 48.6 23.6838C48.6 23.6514 48.5644 23.625 48.5209 23.625C48.4774 23.625 48.2376 23.4862 47.988 23.3167C47.7384 23.1472 47.3606 22.9162 47.1484 22.8033C46.9361 22.6905 46.6444 22.532 46.5 22.4512C46.1289 22.2433 44.8344 21.72 44.2125 21.5261C39.6696 20.1107 35.0256 20.6313 33.1721 22.7638C32.8793 23.1009 32.8084 23.2166 32.6451 23.625C32.6038 23.7281 32.5344 23.8968 32.4909 24C32.2641 24.5379 32.2523 25.8808 32.4696 26.4375C32.8305 27.3622 33.1607 27.8012 33.9281 28.3762C34.4846 28.7934 36.2196 29.7 36.4611 29.7C36.5376 29.7 36.6 29.7337 36.6 29.775C36.6 29.8162 36.6608 29.85 36.735 29.85C36.8093 29.85 36.9021 29.8768 36.9413 29.9096C36.9804 29.9424 37.1475 30.0122 37.3125 30.0647C37.4775 30.117 37.6969 30.1959 37.8 30.24C38.007 30.3283 38.1579 30.384 38.55 30.516C38.6944 30.5645 39.2006 30.7352 39.675 30.8951C40.1494 31.055 41.145 31.3773 41.8875 31.6115C42.63 31.8455 43.305 32.0658 43.3875 32.1011C43.47 32.1363 43.7569 32.2376 44.025 32.3263C44.2931 32.415 44.6556 32.5522 44.8305 32.6312C45.0053 32.7103 45.1793 32.775 45.2171 32.775C45.2548 32.775 45.4324 32.8473 45.6116 32.9356C45.7909 33.024 46.005 33.1217 46.0875 33.1528C46.6659 33.3707 48.6698 34.3599 48.9866 34.5842C49.0961 34.6616 49.2075 34.725 49.2343 34.725C49.2923 34.725 50.3458 35.4031 50.4 35.4753C50.4206 35.5027 50.4921 35.5561 50.5586 35.5938C51.4058 36.0737 53.3545 38.1037 53.9123 39.0873C53.9903 39.225 54.1523 39.5062 54.2723 39.7125C54.4899 40.0869 54.7856 40.6871 54.9096 41.0062C54.9456 41.099 55.0065 41.2509 55.0451 41.3437C55.0836 41.4365 55.1558 41.6475 55.2054 41.8125C55.2551 41.9775 55.3213 42.18 55.3526 42.2625C55.3838 42.345 55.4494 42.615 55.4983 42.8625C55.5473 43.11 55.6157 43.4475 55.6506 43.6125C55.8958 44.7727 55.9446 48.0615 55.7323 49.125C55.6871 49.3518 55.6144 49.7062 55.5709 49.9125C55.5274 50.1187 55.473 50.3975 55.4501 50.532C55.4273 50.6664 55.3783 50.7948 55.3418 50.8175C55.305 50.8402 55.275 50.9345 55.275 51.027C55.275 51.1194 55.2482 51.227 55.2154 51.2662C55.1826 51.3054 55.1126 51.4725 55.0601 51.6375C55.0076 51.8025 54.8953 52.0893 54.8104 52.275C54.7254 52.4606 54.6182 52.6968 54.5719 52.8C53.9139 54.2679 52.3299 56.2351 50.85 57.4224C50.268 57.8893 49.395 58.5 49.3095 58.5C49.2827 58.5 49.1586 58.5727 49.0337 58.6616C48.6465 58.9372 47.3267 59.5824 46.4625 59.9184C46.0088 60.0946 45.57 60.2658 45.4875 60.2985C45.405 60.3311 45.1856 60.3988 45 60.4486C44.8144 60.4987 44.6038 60.57 44.5322 60.6073C44.4606 60.6446 44.3192 60.675 44.2179 60.675C44.1167 60.675 44.0153 60.7051 43.9924 60.7421C43.9697 60.779 43.8242 60.8274 43.6693 60.8497C43.5143 60.872 43.2188 60.9279 43.0125 60.974C40.1076 61.6235 35.4388 61.752 32.025 61.2765C30.5933 61.077 29.2523 60.7871 27.7875 60.3601C27.4988 60.276 27.195 60.1796 27.1125 60.146C27.03 60.1123 26.7431 60.0108 26.475 59.9206C25.7456 59.6748 24.4191 59.1103 23.85 58.8035C23.7056 58.7257 23.4356 58.5832 23.25 58.4872C23.0644 58.391 22.8956 58.2956 22.875 58.275C22.8008 58.2007 22.3847 57.9648 22.2563 57.9241C22.1841 57.9013 22.125 57.8527 22.125 57.8161C22.125 57.7798 22.0894 57.75 22.0459 57.75C21.7431 57.75 18.441 55.1295 18.36 54.825C18.3362 54.7353 19.7509 53.0591 20.3224 52.4998C20.3858 52.4379 20.6901 52.1004 20.9987 51.7498C21.3073 51.3993 21.6111 51.0618 21.6737 51C21.7363 50.9381 21.9191 50.7356 22.0798 50.55C22.2407 50.3643 22.5283 50.0437 22.7192 49.8375C22.9101 49.6312 23.2478 49.2515 23.4694 48.9937C23.9049 48.4873 23.9715 48.4567 24.2072 48.6562C24.549 48.9453 24.6707 49.0432 25.1321 49.4002C26.3831 50.3685 27.9996 51.2891 29.55 51.9166C29.6531 51.9583 29.7962 52.0222 29.8678 52.0588C29.9394 52.0951 30.0639 52.125 30.1446 52.125C30.2252 52.125 30.312 52.1587 30.3375 52.2C30.363 52.2412 30.4498 52.275 30.5304 52.275C30.6111 52.275 30.7356 52.3053 30.8072 52.3427C30.8788 52.38 31.0894 52.4497 31.275 52.4977C31.4606 52.5457 31.7162 52.6166 31.8428 52.655C31.9695 52.6935 32.1615 52.725 32.2697 52.725C32.3777 52.725 32.4844 52.7544 32.5067 52.7906C32.529 52.8266 32.742 52.8791 32.9799 52.9072C33.2179 52.9353 33.6488 52.9905 33.9375 53.0298C35.6783 53.2668 38.1422 53.1943 39.525 52.8652C40.1623 52.7137 40.2326 52.6908 40.7261 52.475C40.8711 52.4115 41.0736 52.3243 41.1761 52.2812C42.1836 51.8572 43.3005 50.8173 43.7203 49.9125C44.0319 49.2408 44.0949 49.0207 44.1821 48.3015C44.538 45.3646 43.0676 43.3957 39.4688 41.9908C39.3759 41.9546 39.2156 41.8912 39.1125 41.85C39.0094 41.8087 38.8491 41.7457 38.7563 41.7101C38.6634 41.6743 38.5031 41.6116 38.4 41.571C38.0801 41.4448 37.4963 41.2485 36.6375 40.9785C34.5788 40.331 32.7124 39.7061 32.25 39.5096C32.1469 39.4657 31.9866 39.4007 31.8938 39.3648C31.8009 39.3292 31.6491 39.2707 31.5563 39.2351C30.9045 38.984 30.5228 38.8104 29.0625 38.0998C28.3613 37.7585 27.6098 37.3657 27.3923 37.2271C27.1749 37.0884 26.979 36.975 26.9569 36.975C26.9053 36.975 26.0469 36.398 25.7946 36.1936C25.6886 36.1078 25.4874 35.9531 25.3478 35.85C23.4188 34.4265 21.225 31.2862 21.225 29.9484C21.225 29.8578 21.1948 29.7652 21.1579 29.7423C21.1209 29.7197 21.0722 29.5742 21.0493 29.4193C21.0264 29.2642 20.97 28.9518 20.9241 28.725C20.6453 27.3485 20.7032 23.5385 21.0077 23.2162C21.0446 23.177 21.075 23.0357 21.075 22.902C21.075 22.7683 21.1088 22.638 21.15 22.6125C21.1913 22.587 21.225 22.4833 21.225 22.382C21.225 22.2808 21.2561 22.1394 21.294 22.0678C21.3319 21.9962 21.4393 21.735 21.5327 21.4875C21.9525 20.3739 22.8548 18.9092 23.6621 18.0305C23.7036 17.9853 23.8787 17.7945 24.0514 17.6062C25.0026 16.569 26.8061 15.2792 28.275 14.5858C28.5844 14.4399 28.8962 14.2877 28.9678 14.2477C29.0394 14.2076 29.1491 14.175 29.2116 14.175C29.274 14.175 29.325 14.1412 29.325 14.1C29.325 14.0587 29.3929 14.025 29.4759 14.025C29.559 14.025 29.6856 13.9952 29.7572 13.9588C30.861 13.3972 33.4928 12.7925 35.9625 12.533C36.8351 12.4413 39.9923 12.4372 40.8911 12.5267Z" clip-rule="evenodd"/><path fill="#279CEB" fill-rule="evenodd" d="M15.4687 0.0537734C15.5821 0.0708359 15.7678 0.0708359 15.8812 0.0537734C15.9946 0.0365234 15.9018 0.0224609 15.6749 0.0224609C15.4481 0.0224609 15.3553 0.0365234 15.4687 0.0537734ZM59.1187 0.0537734C59.2321 0.0708359 59.4178 0.0708359 59.5312 0.0537734C59.6446 0.0365234 59.5518 0.0224609 59.325 0.0224609C59.0981 0.0224609 59.0053 0.0365234 59.1187 0.0537734ZM14.325 0.149961C14.325 0.191211 14.4431 0.224961 14.5875 0.224961C14.7318 0.224961 14.8499 0.191211 14.8499 0.149961C14.8499 0.108711 14.7318 0.0749609 14.5875 0.0749609C14.4431 0.0749609 14.325 0.108711 14.325 0.149961ZM60.1499 0.149961C60.1499 0.191211 60.2681 0.224961 60.4125 0.224961C60.5568 0.224961 60.6749 0.191211 60.6749 0.149961C60.6749 0.108711 60.5568 0.0749609 60.4125 0.0749609C60.2681 0.0749609 60.1499 0.108711 60.1499 0.149961ZM13.575 0.299961C13.575 0.341211 13.6762 0.374961 13.7999 0.374961C13.9237 0.374961 14.025 0.341211 14.025 0.299961C14.025 0.258711 13.9237 0.224961 13.7999 0.224961C13.6762 0.224961 13.575 0.258711 13.575 0.299961ZM60.975 0.299961C60.975 0.341211 61.0762 0.374961 61.2 0.374961C61.3237 0.374961 61.4249 0.341211 61.4249 0.299961C61.4249 0.258711 61.3237 0.224961 61.2 0.224961C61.0762 0.224961 60.975 0.258711 60.975 0.299961ZM12.9749 0.449961C12.9749 0.491211 13.0762 0.524961 13.2 0.524961C13.3237 0.524961 13.4249 0.491211 13.4249 0.449961C13.4249 0.408711 13.3237 0.374961 13.2 0.374961C13.0762 0.374961 12.9749 0.408711 12.9749 0.449961ZM61.575 0.449961C61.575 0.491211 61.6762 0.524961 61.7999 0.524961C61.9237 0.524961 62.0249 0.491211 62.0249 0.449961C62.0249 0.408711 61.9237 0.374961 61.7999 0.374961C61.6762 0.374961 61.575 0.408711 61.575 0.449961ZM12.525 0.599961C12.525 0.641211 12.5925 0.674961 12.6749 0.674961C12.7575 0.674961 12.825 0.641211 12.825 0.599961C12.825 0.558711 12.7575 0.524961 12.6749 0.524961C12.5925 0.524961 12.525 0.558711 12.525 0.599961ZM62.1749 0.599961C62.1749 0.641211 62.2425 0.674961 62.325 0.674961C62.4074 0.674961 62.475 0.641211 62.475 0.599961C62.475 0.558711 62.4074 0.524961 62.325 0.524961C62.2425 0.524961 62.1749 0.558711 62.1749 0.599961ZM12.0374 0.749961C12.0119 0.791211 12.0605 0.824961 12.1455 0.824961C12.2304 0.824961 12.2999 0.791211 12.2999 0.749961C12.2999 0.708711 12.2514 0.674961 12.192 0.674961C12.1325 0.674961 12.063 0.708711 12.0374 0.749961ZM62.7 0.749961C62.7 0.791211 62.7675 0.824961 62.85 0.824961C62.9325 0.824961 63 0.791211 63 0.749961C63 0.708711 62.9325 0.674961 62.85 0.674961C62.7675 0.674961 62.7 0.708711 62.7 0.749961ZM11.55 0.899961C11.55 0.941211 11.6154 0.974961 11.6955 0.974961C11.7755 0.974961 11.862 0.941211 11.8875 0.899961C11.9137 0.857399 11.8507 0.824961 11.742 0.824961C11.6364 0.824961 11.55 0.858711 11.55 0.899961ZM63.1499 0.899961C63.1499 0.941211 63.2175 0.974961 63.2999 0.974961C63.3825 0.974961 63.45 0.941211 63.45 0.899961C63.45 0.858711 63.3825 0.824961 63.2999 0.824961C63.2175 0.824961 63.1499 0.858711 63.1499 0.899961ZM11.175 1.04996C11.175 1.09121 11.2425 1.12496 11.325 1.12496C11.4075 1.12496 11.475 1.09121 11.475 1.04996C11.475 1.00871 11.4075 0.974961 11.325 0.974961C11.2425 0.974961 11.175 1.00871 11.175 1.04996ZM63.5249 1.04996C63.5249 1.09121 63.5945 1.12496 63.6795 1.12496C63.7644 1.12496 63.813 1.09121 63.7875 1.04996C63.762 1.00871 63.6924 0.974961 63.6329 0.974961C63.5735 0.974961 63.5249 1.00871 63.5249 1.04996ZM10.8 1.19996C10.8 1.24121 10.8675 1.27496 10.95 1.27496C11.0325 1.27496 11.1 1.24121 11.1 1.19996C11.1 1.15871 11.0325 1.12496 10.95 1.12496C10.8675 1.12496 10.8 1.15871 10.8 1.19996ZM63.8999 1.19996C63.8999 1.24121 63.9675 1.27496 64.0499 1.27496C64.1325 1.27496 64.2 1.24121 64.2 1.19996C64.2 1.15871 64.1325 1.12496 64.0499 1.12496C63.9675 1.12496 63.8999 1.15871 63.8999 1.19996ZM10.5 1.34996C10.5 1.39121 10.5506 1.42496 10.6125 1.42496C10.6743 1.42496 10.725 1.39121 10.725 1.34996C10.725 1.30871 10.6743 1.27496 10.6125 1.27496C10.5506 1.27496 10.5 1.30871 10.5 1.34996ZM64.2749 1.34996C64.2749 1.39121 64.3256 1.42496 64.3875 1.42496C64.4493 1.42496 64.5 1.39121 64.5 1.34996C64.5 1.30871 64.4493 1.27496 64.3875 1.27496C64.3256 1.27496 64.2749 1.30871 64.2749 1.34996ZM9.43158 1.78702C9.19476 1.89727 9.0007 2.02965 9.00033 2.08121C8.99976 2.21452 9.14601 2.19746 9.19945 2.05815C9.2242 1.99384 9.29058 1.95915 9.3472 1.98071C9.40364 2.00246 9.44995 1.98765 9.44995 1.94752C9.44995 1.90759 9.51745 1.87496 9.59995 1.87496C9.68245 1.87496 9.74995 1.84121 9.74995 1.79996C9.74995 1.75871 9.81745 1.72496 9.89995 1.72496C9.98245 1.72496 10.05 1.69121 10.05 1.64996C10.05 1.5354 9.90276 1.56802 9.43158 1.78702ZM64.95 1.64996C64.95 1.69121 65.0175 1.72496 65.1 1.72496C65.1824 1.72496 65.25 1.75871 65.25 1.79996C65.25 1.84121 65.3175 1.87496 65.3999 1.87496C65.4824 1.87496 65.5499 1.91077 65.5499 1.95446C65.5499 1.99815 65.586 2.01165 65.63 1.98446C65.6739 1.95727 65.7556 1.9974 65.8113 2.07352C65.867 2.14984 65.9407 2.18415 65.975 2.15002C66.0534 2.07165 65.8325 1.90177 65.4125 1.71746C65.0448 1.55621 64.95 1.54234 64.95 1.64996ZM8.30751 2.42302C8.02983 2.5959 7.73714 2.7939 7.65726 2.8629C7.5772 2.9319 7.43395 3.02996 7.3387 3.08096C7.10751 3.20471 6.94626 3.3714 7.00308 3.42802C7.02839 3.45334 7.1122 3.40102 7.18945 3.31196C7.26689 3.2229 7.3777 3.14996 7.43601 3.14996C7.49414 3.14996 7.59051 3.08246 7.64995 2.99996C7.70939 2.91746 7.81064 2.84996 7.87495 2.84996C7.93926 2.84996 8.04051 2.78246 8.09995 2.69996C8.15939 2.61746 8.2402 2.54996 8.27939 2.54996C8.43633 2.54996 8.9212 2.28165 8.92308 2.19371C8.92589 2.0544 8.86026 2.07877 8.30751 2.42302ZM66.075 2.21246C66.075 2.27434 66.14 2.32496 66.2195 2.32496C66.2992 2.32496 66.4149 2.37559 66.4768 2.43746C66.5386 2.49934 66.6423 2.54996 66.707 2.54996C66.7719 2.54996 66.825 2.57809 66.825 2.61221C66.825 2.64652 66.9178 2.72227 67.0312 2.78059C67.1446 2.83871 67.292 2.94577 67.3588 3.01815C67.4255 3.09071 67.5228 3.14996 67.575 3.14996C67.6271 3.14996 67.733 3.2229 67.8105 3.31196C67.8877 3.40102 67.973 3.45202 68 3.42502C68.0508 3.37402 67.7465 3.07496 67.6438 3.07496C67.6119 3.07496 67.541 3.03109 67.4866 2.97765C67.0541 2.55296 66.075 2.02215 66.075 2.21246ZM15.7125 3.00952C15.5062 3.04646 15.1181 3.1134 14.8499 3.1584C13.478 3.38884 11.2374 4.22115 10.2375 4.87177C10.0725 4.97921 9.85176 5.11009 9.74695 5.16277C9.5752 5.24902 9.17714 5.53421 8.40726 6.1224C8.05758 6.38959 6.38958 8.05759 6.12239 8.40728C5.5342 9.17715 5.24901 9.57521 5.16276 9.74696C5.11008 9.85178 4.9792 10.0725 4.87176 10.2375C4.21289 11.2503 3.38845 13.4792 3.1522 14.8875C3.10364 15.1762 3.03276 15.5953 2.99451 15.8188C2.90133 16.3635 2.90133 58.6365 2.99451 59.1812C3.03276 59.4047 3.1042 59.8237 3.15333 60.1125C4.17108 66.0926 9.18708 70.9605 15.3435 71.9428C16.2223 72.0828 58.7844 72.0814 59.6748 71.9411C65.9782 70.9483 70.9483 65.9782 71.9411 59.6748C72.0813 58.7844 72.0828 16.2223 71.9428 15.3435C70.9614 9.19327 66.0693 4.15196 60.1124 3.15221C59.8237 3.10365 59.4046 3.03277 59.1811 2.99452C58.6515 2.90377 16.2226 2.91859 15.7125 3.00952ZM59.135 3.11584C60.4629 3.27221 61.9995 3.66352 63 4.10021C63.6125 4.36759 64.6893 4.91209 64.7124 4.96627C64.7263 4.99852 64.7703 5.02496 64.8103 5.02496C64.8504 5.02496 65.0923 5.16596 65.3478 5.33827C67.9378 7.08465 69.8638 9.41959 70.9666 12.15C71.0085 12.2531 71.0722 12.3962 71.1088 12.4678C71.1451 12.5394 71.1749 12.6639 71.1749 12.7445C71.1749 12.8252 71.2087 12.912 71.25 12.9375C71.2912 12.963 71.325 13.0642 71.325 13.1625C71.325 13.2607 71.3549 13.3597 71.3917 13.3824C71.4283 13.4051 71.4764 13.5335 71.4988 13.668C71.5209 13.8024 71.5753 14.0643 71.6195 14.25C71.9851 15.7832 71.9624 14.25 71.9624 37.4625C71.9624 54.6849 71.9431 59.1 71.8659 59.55C71.7755 60.0759 71.7382 60.2542 71.5363 61.125C71.4538 61.4801 71.2138 62.2453 71.0951 62.5312C71.0564 62.624 70.9951 62.7759 70.9588 62.8687C70.8116 63.2445 70.0854 64.6892 70.0321 64.7124C70.0006 64.7263 69.975 64.7709 69.975 64.8118C69.975 64.9727 68.8989 66.4532 68.2663 67.1625C66.8602 68.7392 64.7874 70.1968 62.8687 70.958C62.7759 70.9948 62.624 71.0565 62.5312 71.0951C61.8875 71.3623 60.713 71.666 59.5499 71.8659C59.1 71.9432 54.6918 71.9625 37.5 71.9625C15.4361 71.9625 15.7528 71.9662 14.5499 71.6923C13.6216 71.481 13.0289 71.3132 12.9412 71.2368C12.902 71.2029 12.8088 71.175 12.734 71.175C12.6592 71.175 12.5394 71.1452 12.4678 71.1088C12.3961 71.0722 12.2531 71.0085 12.15 70.9667C8.85126 69.6341 6.06276 67.0414 4.5097 63.8625C3.72351 62.2533 3.32301 60.8951 3.11583 59.135C2.94276 57.6654 2.94276 17.3345 3.11583 15.8649C3.9007 9.19834 9.14882 3.9189 15.7874 3.11771C17.1134 2.95777 57.777 2.9559 59.135 3.11584ZM68.1749 3.4899C68.1749 3.56659 68.7103 4.06459 68.75 4.02502C68.7719 4.0029 68.6696 3.86452 68.5224 3.71752C68.2672 3.46234 68.1749 3.40177 68.1749 3.4899ZM6.44751 3.75221C6.31383 3.87709 6.22364 3.99859 6.24708 4.02221C6.2707 4.04565 6.41151 3.94346 6.56001 3.79496C6.88664 3.46834 6.79064 3.43177 6.44751 3.75221ZM5.84995 4.27496C5.84995 4.31621 5.8132 4.34996 5.7682 4.34996C5.64351 4.34996 4.18458 5.84115 4.21626 5.93621C4.23145 5.98196 4.59689 5.66846 5.02814 5.23965C5.92758 4.34546 6.05451 4.19996 5.93414 4.19996C5.88783 4.19996 5.84995 4.23371 5.84995 4.27496ZM69.0845 4.32596C69.5324 4.87402 70.7999 6.05865 70.7999 5.92927C70.7999 5.81509 69.1818 4.19996 69.0676 4.19996C69.0097 4.19996 69.0151 4.24102 69.0845 4.32596ZM3.69708 6.50246C3.5647 6.65246 3.47808 6.80996 3.50451 6.85252C3.53395 6.90015 3.56639 6.88815 3.58851 6.82121C3.60839 6.7614 3.72033 6.62302 3.83733 6.51371C3.95433 6.40421 4.04995 6.29452 4.04995 6.26996C4.04995 6.16365 3.92114 6.24859 3.69708 6.50246ZM70.95 6.2649C70.95 6.34159 71.4853 6.83959 71.525 6.80002C71.547 6.7779 71.4446 6.63952 71.2974 6.49252C71.0422 6.23734 70.95 6.17677 70.95 6.2649ZM3.2362 7.09534C3.09951 7.24984 3.18745 7.32315 3.33389 7.17671C3.39764 7.11296 3.44995 7.04134 3.44995 7.0179C3.44995 6.93915 3.33858 6.97946 3.2362 7.09534ZM71.5499 7.0179C71.5499 7.0974 71.7817 7.29315 71.825 7.25002C71.8484 7.2264 71.8156 7.15496 71.7517 7.09102C71.6326 6.97196 71.5499 6.94196 71.5499 7.0179ZM2.99826 7.47952C2.74833 7.77371 2.53589 8.11102 2.57564 8.15077C2.63208 8.20703 2.84995 7.98446 2.84995 7.87027C2.84995 7.82077 2.92083 7.71859 3.00745 7.64359C3.09389 7.5684 3.15276 7.4709 3.13795 7.42665C3.12276 7.3809 3.06276 7.4034 2.99826 7.47952ZM71.85 7.43171C71.85 7.49228 71.9174 7.59052 72 7.64996C72.0825 7.7094 72.1499 7.80371 72.1499 7.8594C72.1499 7.98165 72.365 8.21002 72.4243 8.15077C72.4672 8.10765 72.2223 7.72778 71.9833 7.46715C71.882 7.35671 71.85 7.34828 71.85 7.43171ZM2.33789 8.40728C2.2837 8.49371 2.25708 8.58221 2.27864 8.60378C2.3302 8.65515 2.54995 8.43371 2.54995 8.3304C2.54995 8.19971 2.44326 8.23834 2.33789 8.40728ZM72.45 8.32403C72.45 8.3649 72.509 8.46728 72.5812 8.55146C72.6534 8.63584 72.7124 8.74309 72.7124 8.78996C72.7124 8.83665 72.7546 8.88896 72.8062 8.90621C72.8578 8.92346 72.8999 8.88409 72.8999 8.81865C72.8999 8.7534 72.8745 8.69996 72.8433 8.69996C72.812 8.69996 72.7417 8.59871 72.687 8.47496C72.5915 8.25915 72.45 8.16915 72.45 8.32403ZM2.09995 8.81246C2.09995 8.88128 2.13633 8.92534 2.18058 8.91052C2.22501 8.8959 2.2612 8.85165 2.2612 8.81246C2.2612 8.77328 2.22501 8.72921 2.18058 8.7144C2.13633 8.69959 2.09995 8.74365 2.09995 8.81246ZM1.92333 9.16871C1.89914 9.26153 1.87458 9.35434 1.86876 9.37496C1.86314 9.39559 1.7947 9.50209 1.7167 9.61159C1.6387 9.72109 1.57495 9.86246 1.57495 9.92584C1.57495 9.98921 1.5412 10.062 1.49995 10.0875C1.4587 10.113 1.42495 10.1825 1.42495 10.242C1.42495 10.3014 1.4587 10.35 1.49995 10.35C1.5412 10.35 1.57495 10.2825 1.57495 10.2C1.57495 10.1175 1.6087 10.05 1.64995 10.05C1.6912 10.05 1.72495 9.98246 1.72495 9.89996C1.72495 9.81746 1.7587 9.74996 1.79995 9.74996C1.8412 9.74996 1.87495 9.68246 1.87495 9.59996C1.87495 9.51746 1.91226 9.44996 1.95801 9.44996C2.00358 9.44996 2.0227 9.40215 2.0002 9.34365C1.9777 9.28515 2.01014 9.21803 2.07201 9.19421C2.13389 9.1704 2.16351 9.11696 2.13783 9.07553C2.06058 8.95046 1.97001 8.98984 1.92333 9.16871ZM72.8656 9.06971C72.8145 9.15259 72.9328 9.24221 73.002 9.17284C73.0734 9.10159 73.0601 8.99996 72.9794 8.99996C72.9406 8.99996 72.8895 9.03146 72.8656 9.06971ZM73.0906 9.46871C73.1195 9.60278 73.1728 9.72371 73.2091 9.7374C73.2453 9.75128 73.2749 9.82721 73.2749 9.90615C73.2749 9.98528 73.3087 10.05 73.35 10.05C73.3912 10.05 73.4249 10.1175 73.4249 10.2C73.4249 10.2825 73.4587 10.35 73.5 10.35C73.5926 10.35 73.5961 10.2395 73.5089 10.0678C73.4726 9.99615 73.3689 9.77715 73.2787 9.58121C73.0874 9.16628 73.0162 9.12371 73.0906 9.46871ZM1.27495 10.6125C1.27495 10.6743 1.3087 10.725 1.34995 10.725C1.3912 10.725 1.42495 10.6743 1.42495 10.6125C1.42495 10.5506 1.3912 10.5 1.34995 10.5C1.3087 10.5 1.27495 10.5506 1.27495 10.6125ZM73.575 10.6125C73.575 10.6743 73.6087 10.725 73.6499 10.725C73.6912 10.725 73.725 10.6743 73.725 10.6125C73.725 10.5506 73.6912 10.5 73.6499 10.5C73.6087 10.5 73.575 10.5506 73.575 10.6125ZM1.12495 10.95C1.12495 11.0325 1.1587 11.1 1.19995 11.1C1.2412 11.1 1.27495 11.0325 1.27495 10.95C1.27495 10.8675 1.2412 10.8 1.19995 10.8C1.1587 10.8 1.12495 10.8675 1.12495 10.95ZM73.725 10.95C73.725 11.0325 73.7587 11.1 73.7999 11.1C73.8412 11.1 73.875 11.0325 73.875 10.95C73.875 10.8675 73.8412 10.8 73.7999 10.8C73.7587 10.8 73.725 10.8675 73.725 10.95ZM0.974951 11.325C0.974951 11.4075 1.0087 11.475 1.04995 11.475C1.0912 11.475 1.12495 11.4075 1.12495 11.325C1.12495 11.2425 1.0912 11.175 1.04995 11.175C1.0087 11.175 0.974951 11.2425 0.974951 11.325ZM73.875 11.325C73.875 11.4075 73.9087 11.475 73.95 11.475C73.9912 11.475 74.0249 11.4075 74.0249 11.325C74.0249 11.2425 73.9912 11.175 73.95 11.175C73.9087 11.175 73.875 11.2425 73.875 11.325ZM0.824951 11.7C0.824951 11.7825 0.858701 11.85 0.899951 11.85C0.941201 11.85 0.974951 11.7825 0.974951 11.7C0.974951 11.6175 0.941201 11.55 0.899951 11.55C0.858701 11.55 0.824951 11.6175 0.824951 11.7ZM74.0249 11.7C74.0249 11.7825 74.0587 11.85 74.1 11.85C74.1412 11.85 74.1749 11.7825 74.1749 11.7C74.1749 11.6175 74.1412 11.55 74.1 11.55C74.0587 11.55 74.0249 11.6175 74.0249 11.7ZM0.725013 11.975C0.647201 12.0528 0.666138 12.3 0.749951 12.3C0.791201 12.3 0.824951 12.2156 0.824951 12.1125C0.824951 11.9161 0.807701 11.8923 0.725013 11.975ZM74.1749 12.108C74.1749 12.2135 74.2087 12.3 74.25 12.3C74.2912 12.3 74.325 12.2345 74.325 12.1545C74.325 12.0744 74.2912 11.988 74.25 11.9625C74.2074 11.9362 74.1749 11.9992 74.1749 12.108ZM0.575013 12.5C0.497201 12.5778 0.516138 12.825 0.599951 12.825C0.641201 12.825 0.674951 12.7406 0.674951 12.6375C0.674951 12.4411 0.657701 12.4173 0.575013 12.5ZM35.9625 12.533C33.4927 12.7925 30.861 13.3972 29.7571 13.9588C29.6855 13.9951 29.559 14.025 29.4759 14.025C29.3928 14.025 29.3249 14.0587 29.3249 14.1C29.3249 14.1412 29.274 14.175 29.2115 14.175C29.1491 14.175 29.0394 14.2076 28.9678 14.2477C28.8961 14.2877 28.5843 14.4399 28.275 14.5858C26.8061 15.2792 25.0025 16.569 24.0513 17.6062C23.8786 17.7945 23.7035 17.9853 23.6621 18.0305C22.8547 18.9092 21.9525 20.3739 21.5326 21.4875C21.4393 21.735 21.3318 21.9962 21.294 22.0678C21.2561 22.1394 21.2249 22.2808 21.2249 22.382C21.2249 22.4833 21.1912 22.587 21.15 22.6125C21.1087 22.638 21.075 22.7683 21.075 22.902C21.075 23.0357 21.0446 23.177 21.0076 23.2162C20.7031 23.5385 20.6452 27.3485 20.924 28.725C20.9699 28.9518 21.0264 29.2642 21.0493 29.4193C21.0721 29.5742 21.1209 29.7197 21.1578 29.7423C21.1948 29.7652 21.2249 29.8578 21.2249 29.9484C21.2249 31.2862 23.4187 34.4265 25.3477 35.85C25.4874 35.9531 25.6886 36.1078 25.7945 36.1937C26.0469 36.398 26.9053 36.975 26.9568 36.975C26.979 36.975 27.1749 37.0884 27.3922 37.2272C27.6097 37.3657 28.3612 37.7585 29.0625 38.0998C30.5227 38.8104 30.9045 38.984 31.5562 39.2351C31.649 39.2707 31.8009 39.3292 31.8937 39.3648C31.9865 39.4007 32.1468 39.4657 32.25 39.5096C32.7123 39.7061 34.5787 40.331 36.6375 40.9785C37.4962 41.2485 38.0801 41.4448 38.4 41.571C38.5031 41.6117 38.6634 41.6743 38.7562 41.7101C38.849 41.7457 39.0093 41.8087 39.1124 41.85C39.2156 41.8912 39.3759 41.9546 39.4687 41.9908C43.0676 43.3957 44.5379 45.3647 44.1821 48.3015C44.0949 49.0207 44.0319 49.2408 43.7203 49.9125C43.3004 50.8173 42.1835 51.8572 41.1761 52.2812C41.0735 52.3243 40.871 52.4115 40.7261 52.475C40.2326 52.6908 40.1623 52.7137 39.525 52.8652C38.1421 53.1943 35.6782 53.2668 33.9375 53.0298C33.6487 52.9905 33.2178 52.9353 32.9799 52.9072C32.742 52.8791 32.5289 52.8266 32.5066 52.7906C32.4843 52.7544 32.3776 52.725 32.2696 52.725C32.1614 52.725 31.9695 52.6935 31.8427 52.655C31.7161 52.6166 31.4606 52.5457 31.275 52.4977C31.0893 52.4497 30.8788 52.38 30.8071 52.3427C30.7355 52.3053 30.611 52.275 30.5304 52.275C30.4498 52.275 30.363 52.2412 30.3375 52.2C30.312 52.1587 30.2251 52.125 30.1445 52.125C30.0639 52.125 29.9394 52.0952 29.8678 52.0588C29.7961 52.0222 29.6531 51.9583 29.55 51.9167C27.9995 51.2891 26.3831 50.3685 25.1321 49.4002C24.6706 49.0432 24.549 48.9453 24.2071 48.6562C23.9714 48.4567 23.9049 48.4873 23.4693 48.9937C23.2477 49.2515 22.91 49.6312 22.7191 49.8375C22.5283 50.0437 22.2406 50.3643 22.0798 50.55C21.9191 50.7356 21.7363 50.9381 21.6736 51C21.611 51.0618 21.3073 51.3993 20.9986 51.7498C20.69 52.1004 20.3857 52.4379 20.3223 52.4998C19.7508 53.0591 18.3361 54.7353 18.36 54.825C18.441 55.1295 21.743 57.75 22.0458 57.75C22.0893 57.75 22.125 57.7798 22.125 57.8162C22.125 57.8527 22.184 57.9013 22.2562 57.9242C22.3846 57.9648 22.8007 58.2007 22.875 58.275C22.8956 58.2956 23.0643 58.391 23.25 58.4872C23.4356 58.5832 23.7056 58.7257 23.8499 58.8035C24.419 59.1103 25.7456 59.6748 26.4749 59.9207C26.7431 60.0108 27.03 60.1123 27.1125 60.146C27.4621 60.2885 28.9561 60.6941 29.8499 60.8891C32.1382 61.3884 33.7353 61.5375 36.7874 61.5365C39.6442 61.5358 41.0806 61.406 43.0125 60.974C43.2187 60.9279 43.5142 60.872 43.6693 60.8497C43.8241 60.8274 43.9696 60.779 43.9923 60.7421C44.0152 60.7052 44.1166 60.675 44.2179 60.675C44.3191 60.675 44.4605 60.6446 44.5321 60.6073C44.6038 60.57 44.8143 60.4987 45 60.4487C45.1856 60.3988 45.405 60.3311 45.4874 60.2985C45.57 60.2659 46.0087 60.0947 46.4625 59.9184C47.3266 59.5824 48.6465 58.9372 49.0336 58.6616C49.1585 58.5727 49.2826 58.5 49.3095 58.5C49.395 58.5 50.268 57.8893 50.85 57.4224C52.3299 56.2352 53.9139 54.2679 54.5718 52.8C54.6181 52.6968 54.7254 52.4606 54.8103 52.275C54.8953 52.0893 55.0076 51.8025 55.0601 51.6375C55.1126 51.4725 55.1825 51.3054 55.2153 51.2662C55.2481 51.227 55.2749 51.1194 55.2749 51.027C55.2749 50.9345 55.305 50.8402 55.3417 50.8175C55.3783 50.7948 55.4272 50.6664 55.4501 50.532C55.473 50.3975 55.5273 50.1187 55.5708 49.9125C55.6143 49.7062 55.6871 49.3518 55.7323 49.125C55.9445 48.0615 55.8958 44.7727 55.6505 43.6125C55.6156 43.4475 55.5472 43.11 55.4983 42.8625C55.4493 42.615 55.3837 42.345 55.3526 42.2625C55.3213 42.18 55.2551 41.9775 55.2054 41.8125C55.1557 41.6475 55.0835 41.4365 55.0451 41.3437C55.0065 41.2509 54.9455 41.099 54.9095 41.0062C54.7856 40.6871 54.4899 40.0869 54.2722 39.7125C54.1522 39.5062 53.9902 39.225 53.9122 39.0873C53.3544 38.1037 51.4057 36.0737 50.5586 35.5938C50.492 35.5562 50.4206 35.5027 50.3999 35.4753C50.3458 35.4032 49.2922 34.725 49.2343 34.725C49.2075 34.725 49.0961 34.6616 48.9866 34.5842C48.6697 34.3599 46.6659 33.3707 46.0875 33.1528C46.005 33.1217 45.7908 33.024 45.6116 32.9357C45.4323 32.8473 45.2548 32.775 45.2171 32.775C45.1792 32.775 45.0052 32.7103 44.8304 32.6312C44.6555 32.5522 44.2931 32.415 44.025 32.3263C43.7568 32.2376 43.4699 32.1363 43.3875 32.1011C43.305 32.0658 42.6299 31.8455 41.8875 31.6115C41.145 31.3773 40.1493 31.055 39.6749 30.8951C39.2006 30.7352 38.6943 30.5645 38.5499 30.516C38.1579 30.384 38.007 30.3283 37.7999 30.24C37.6968 30.1959 37.4775 30.117 37.3125 30.0647C37.1474 30.0122 36.9804 29.9424 36.9412 29.9096C36.902 29.8768 36.8092 29.85 36.735 29.85C36.6607 29.85 36.5999 29.8162 36.5999 29.775C36.5999 29.7337 36.5375 29.7 36.461 29.7C36.2195 29.7 34.4846 28.7934 33.9281 28.3762C33.1606 27.8012 32.8305 27.3622 32.4695 26.4375C32.2522 25.8808 32.264 24.5379 32.4909 24C32.5344 23.8968 32.6038 23.7281 32.645 23.625C32.8083 23.2166 32.8792 23.1009 33.1721 22.7638C35.0255 20.6313 39.6695 20.1107 44.2125 21.5261C44.8344 21.72 46.1289 22.2433 46.5 22.4512C46.6443 22.532 46.9361 22.6905 47.1483 22.8033C47.3606 22.9162 47.7384 23.1472 47.988 23.3167C48.2375 23.4862 48.4773 23.625 48.5208 23.625C48.5643 23.625 48.6 23.6514 48.6 23.6838C48.6 23.7161 48.6965 23.7997 48.8144 23.8693C48.9326 23.939 49.1604 24.1145 49.3207 24.2593C49.7632 24.6585 49.8609 24.6663 50.1635 24.3283C50.8443 23.5672 50.9902 23.4009 51.3738 22.9481C51.6001 22.6809 51.8206 22.4252 51.864 22.3796C51.9071 22.334 52.127 22.0832 52.3526 21.8223C52.5779 21.5615 52.9143 21.1755 53.1 20.9645C53.2856 20.7536 53.5556 20.4444 53.7 20.2773C53.8443 20.1103 54.1378 19.7741 54.3521 19.5305C55.2778 18.4779 55.2369 18.6065 54.7831 18.1717C53.4438 16.8885 49.6741 14.475 49.0089 14.475C48.9489 14.475 48.8999 14.4412 48.8999 14.4C48.8999 14.3587 48.8356 14.325 48.7571 14.325C48.6785 14.325 48.4845 14.259 48.3258 14.1783C47.7742 13.898 46.0031 13.361 44.775 13.1017C43.3933 12.81 42.6883 12.7055 40.8911 12.5266C39.9922 12.4372 36.8351 12.4413 35.9625 12.533ZM74.325 12.6375C74.325 12.7406 74.3587 12.825 74.3999 12.825C74.4412 12.825 74.475 12.7406 74.475 12.6375C74.475 12.5343 74.4412 12.45 74.3999 12.45C74.3587 12.45 74.325 12.5343 74.325 12.6375ZM41.4 12.6767C43.3441 12.9112 43.4439 12.9273 44.8125 13.2305C45.992 13.4917 46.5931 13.647 46.7428 13.7287C46.8144 13.7679 46.9389 13.8 47.0195 13.8C47.1001 13.8 47.187 13.8337 47.2125 13.875C47.2379 13.9162 47.3248 13.95 47.4054 13.95C47.486 13.95 47.6105 13.9811 47.6821 14.0191C47.7538 14.0572 48.0993 14.1984 48.45 14.3328C50.0246 14.937 52.7221 16.4838 53.5974 17.2848C53.6441 17.3274 53.8297 17.4802 54.0099 17.624C54.1901 17.768 54.5002 18.0386 54.6993 18.2255L55.061 18.5653L54.4473 19.2765C54.1098 19.6674 53.7277 20.1065 53.5981 20.252C53.4686 20.3973 53.2275 20.6679 53.0625 20.8532C52.8974 21.0382 52.5937 21.3875 52.3875 21.6294C52.1812 21.8713 51.9618 22.127 51.8999 22.1975C51.8381 22.2682 51.6125 22.5255 51.3988 22.7692C51.1848 23.013 50.9486 23.2835 50.8738 23.3705C49.7923 24.6255 49.914 24.5643 49.35 24.1361C48.1209 23.2029 46.6014 22.3271 45.3375 21.8233C44.4654 21.4757 44.0829 21.3572 42.6749 20.9985C40.6758 20.4892 37.7681 20.5175 35.8499 21.0648C35.3075 21.2197 35.2183 21.2533 34.7748 21.468C33.0646 22.2963 32.2218 23.541 32.2218 25.2375C32.2218 27.1865 33.3365 28.508 35.8875 29.5835C36.2587 29.7401 36.6637 29.9107 36.7874 29.963C37.5129 30.2688 39.4786 30.9594 40.95 31.4248C42.5471 31.9301 43.9473 32.3898 44.1375 32.4714C44.2199 32.5067 44.5743 32.6454 44.9249 32.7793C45.2756 32.9133 45.5945 33.0515 45.6337 33.0864C45.6729 33.1215 45.7533 33.15 45.8124 33.15C45.9622 33.15 48.6735 34.4878 49.3125 34.8768C49.8731 35.2183 50.4883 35.6252 50.5499 35.6953C50.5706 35.7187 50.7731 35.8788 51 36.0512C52.7017 37.3438 54.098 39.2358 54.975 41.4375C55.8991 43.7576 56.0529 47.8423 55.3168 50.5125C54.026 55.1938 50.3152 58.7038 44.8875 60.3774C43.2991 60.8672 41.7545 61.1638 39.7874 61.3563C38.4772 61.4848 35.8061 61.5245 34.65 61.4328C32.0996 61.2307 31.0286 61.0674 28.9275 60.5606C27.0296 60.1027 25.0518 59.3448 23.3624 58.4282C23.0324 58.2491 22.6728 58.0402 22.5633 57.9637C22.4538 57.8874 22.3426 57.825 22.3162 57.825C22.2073 57.825 19.9601 56.2218 19.7999 56.03C19.7793 56.0053 19.6443 55.8885 19.5 55.7705C18.4128 54.8818 18.3663 54.8053 18.6941 54.4449C18.828 54.2979 19.1568 53.9291 19.4249 53.6253C19.6931 53.3218 19.9799 53.003 20.0625 52.9172C20.145 52.8313 20.4993 52.4407 20.8499 52.0492C21.2006 51.6577 21.5043 51.3206 21.525 51.3C21.5628 51.2621 21.8058 50.9945 22.934 49.7493C23.2758 49.3719 23.6242 48.9759 23.7082 48.869C23.9261 48.5921 23.9955 48.6148 24.729 49.2032C26.0566 50.2682 27.4423 51.1093 28.9687 51.777C29.1234 51.8447 29.3656 51.951 29.507 52.0134C33.2488 53.6645 39.2902 53.7127 41.6759 52.1105C41.8484 51.9947 42.0262 51.9 42.071 51.9C42.2981 51.9 43.548 50.4986 43.8103 49.95C44.4933 48.521 44.5006 46.5778 43.8283 45.168C43.0404 43.5161 40.682 42.1134 36.5625 40.8467C35.2826 40.4531 33.8135 39.9798 33.6375 39.9045C33.555 39.869 33.3693 39.7995 33.2249 39.75C33.0806 39.7005 32.895 39.633 32.8125 39.6C32.7299 39.567 32.5443 39.4989 32.4 39.4487C32.2556 39.3984 32.0362 39.3135 31.9124 39.2597C31.7887 39.206 31.4175 39.0555 31.0875 38.9253C29.4195 38.2674 26.6709 36.7835 25.7351 36.0358C24.5154 35.061 24.1728 34.7411 23.3246 33.7841C20.5916 30.7003 19.9779 24.878 21.9532 20.775C23.7596 17.0225 27.8544 14.1467 32.8499 13.1216C33.0768 13.0751 33.3806 13.0091 33.525 12.9751C33.6693 12.9412 34.0743 12.876 34.4249 12.83C34.7756 12.7843 35.2649 12.7179 35.5125 12.6825C36.159 12.59 40.6445 12.5855 41.4 12.6767ZM0.374951 13.1625C0.374951 13.2656 0.408701 13.35 0.449951 13.35C0.491201 13.35 0.524951 13.2656 0.524951 13.1625C0.524951 13.0593 0.491201 12.975 0.449951 12.975C0.408701 12.975 0.374951 13.0593 0.374951 13.1625ZM74.475 13.2045C74.475 13.3382 74.5063 13.4145 74.5499 13.3875C74.5912 13.362 74.625 13.2587 74.625 13.158C74.625 13.0573 74.5912 12.975 74.5499 12.975C74.5087 12.975 74.475 13.0783 74.475 13.2045ZM0.275013 13.625C0.196451 13.7034 0.216513 14.025 0.299951 14.025C0.341201 14.025 0.374951 13.9237 0.374951 13.8C0.374951 13.5669 0.359763 13.5403 0.275013 13.625ZM74.625 13.7955C74.625 13.9216 74.6587 14.025 74.7 14.025C74.7412 14.025 74.7749 13.9426 74.7749 13.842C74.7749 13.7413 74.7412 13.638 74.7 13.6125C74.6563 13.5855 74.625 13.6618 74.625 13.7955ZM0.0749509 14.5875C0.0749509 14.7318 0.108701 14.85 0.149951 14.85C0.191201 14.85 0.224951 14.7318 0.224951 14.5875C0.224951 14.4431 0.191201 14.325 0.149951 14.325C0.108701 14.325 0.0749509 14.4431 0.0749509 14.5875ZM74.7749 14.5875C74.7749 14.7318 74.8087 14.85 74.85 14.85C74.8912 14.85 74.9249 14.7318 74.9249 14.5875C74.9249 14.4431 74.8912 14.325 74.85 14.325C74.8087 14.325 74.7749 14.4431 74.7749 14.5875ZM74.949 15.675C74.949 15.9431 74.9626 16.0528 74.9791 15.9187C74.9958 15.7847 74.9958 15.5653 74.9791 15.4312C74.9626 15.2972 74.949 15.4068 74.949 15.675ZM0.0232009 15.7125C0.0235759 15.96 0.0376384 16.0522 0.0543259 15.9174C0.0710134 15.7826 0.0706384 15.5801 0.0535759 15.4674C0.0365134 15.3547 0.0228259 15.465 0.0232009 15.7125ZM0.0232009 59.2875C0.0235759 59.535 0.0376384 59.6272 0.0543259 59.4924C0.0710134 59.3576 0.0706384 59.1551 0.0535759 59.0424C0.0365134 58.9297 0.0228259 59.04 0.0232009 59.2875ZM74.9495 59.3625C74.9499 59.6512 74.9634 59.7602 74.9797 59.6045C74.996 59.4489 74.9956 59.2127 74.9791 59.0795C74.9624 58.9464 74.9491 59.0737 74.9495 59.3625ZM0.0749509 60.4125C0.0749509 60.5569 0.108701 60.675 0.149951 60.675C0.191201 60.675 0.224951 60.5569 0.224951 60.4125C0.224951 60.2681 0.191201 60.15 0.149951 60.15C0.108701 60.15 0.0749509 60.2681 0.0749509 60.4125ZM74.7749 60.4125C74.7749 60.5569 74.8087 60.675 74.85 60.675C74.8912 60.675 74.9249 60.5569 74.9249 60.4125C74.9249 60.2681 74.8912 60.15 74.85 60.15C74.8087 60.15 74.7749 60.2681 74.7749 60.4125ZM0.224951 61.158C0.224951 61.2587 0.258701 61.362 0.299951 61.3875C0.343638 61.4145 0.374951 61.3382 0.374951 61.2045C0.374951 61.0783 0.341201 60.975 0.299951 60.975C0.258701 60.975 0.224951 61.0573 0.224951 61.158ZM74.625 61.2C74.625 61.3237 74.6587 61.425 74.7 61.425C74.7412 61.425 74.7749 61.3237 74.7749 61.2C74.7749 61.0762 74.7412 60.975 74.7 60.975C74.6587 60.975 74.625 61.0762 74.625 61.2ZM74.525 61.625C74.4464 61.7034 74.4665 62.025 74.5499 62.025C74.5912 62.025 74.625 61.9237 74.625 61.8C74.625 61.5669 74.6098 61.5403 74.525 61.625ZM0.374951 61.8375C0.374951 61.9406 0.408701 62.025 0.449951 62.025C0.491201 62.025 0.524951 61.9406 0.524951 61.8375C0.524951 61.7343 0.491201 61.65 0.449951 61.65C0.408701 61.65 0.374951 61.7343 0.374951 61.8375ZM0.524951 62.3205C0.524951 62.4005 0.558701 62.487 0.599951 62.5125C0.642513 62.5387 0.674951 62.4757 0.674951 62.367C0.674951 62.2614 0.641201 62.175 0.599951 62.175C0.558701 62.175 0.524951 62.2404 0.524951 62.3205ZM74.325 62.3625C74.325 62.4656 74.3587 62.55 74.3999 62.55C74.4412 62.55 74.475 62.4656 74.475 62.3625C74.475 62.2593 74.4412 62.175 74.3999 62.175C74.3587 62.175 74.325 62.2593 74.325 62.3625ZM0.674951 62.8455C0.674951 62.9255 0.708701 63.012 0.749951 63.0375C0.792513 63.0637 0.824951 63.0007 0.824951 62.892C0.824951 62.7864 0.791201 62.7 0.749951 62.7C0.708701 62.7 0.674951 62.7654 0.674951 62.8455ZM74.1749 62.892C74.1749 63.0007 74.2074 63.0637 74.25 63.0375C74.2912 63.012 74.325 62.9255 74.325 62.8455C74.325 62.7654 74.2912 62.7 74.25 62.7C74.2087 62.7 74.1749 62.7864 74.1749 62.892ZM0.824951 63.3C0.824951 63.3825 0.858701 63.45 0.899951 63.45C0.941201 63.45 0.974951 63.3825 0.974951 63.3C0.974951 63.2175 0.941201 63.15 0.899951 63.15C0.858701 63.15 0.824951 63.2175 0.824951 63.3ZM74.0249 63.3C74.0249 63.3825 74.0587 63.45 74.1 63.45C74.1412 63.45 74.1749 63.3825 74.1749 63.3C74.1749 63.2175 74.1412 63.15 74.1 63.15C74.0587 63.15 74.0249 63.2175 74.0249 63.3ZM0.974951 63.633C0.974951 63.6924 1.0087 63.762 1.04995 63.7875C1.0912 63.813 1.12495 63.7644 1.12495 63.6795C1.12495 63.5945 1.0912 63.525 1.04995 63.525C1.0087 63.525 0.974951 63.5735 0.974951 63.633ZM73.875 63.675C73.875 63.7575 73.9087 63.825 73.95 63.825C73.9912 63.825 74.0249 63.7575 74.0249 63.675C74.0249 63.5925 73.9912 63.525 73.95 63.525C73.9087 63.525 73.875 63.5925 73.875 63.675ZM1.12495 64.05C1.12495 64.1325 1.1587 64.2 1.19995 64.2C1.2412 64.2 1.27495 64.1325 1.27495 64.05C1.27495 63.9675 1.2412 63.9 1.19995 63.9C1.1587 63.9 1.12495 63.9675 1.12495 64.05ZM73.725 64.05C73.725 64.1325 73.7587 64.2 73.7999 64.2C73.8412 64.2 73.875 64.1325 73.875 64.05C73.875 63.9675 73.8412 63.9 73.7999 63.9C73.7587 63.9 73.725 63.9675 73.725 64.05ZM1.27495 64.3875C1.27495 64.4493 1.3087 64.5 1.34995 64.5C1.3912 64.5 1.42495 64.4493 1.42495 64.3875C1.42495 64.3256 1.3912 64.275 1.34995 64.275C1.3087 64.275 1.27495 64.3256 1.27495 64.3875ZM73.575 64.3875C73.575 64.4493 73.6087 64.5 73.6499 64.5C73.6912 64.5 73.725 64.4493 73.725 64.3875C73.725 64.3256 73.6912 64.275 73.6499 64.275C73.6087 64.275 73.575 64.3256 73.575 64.3875ZM1.42495 64.7475C1.42495 64.8011 1.45326 64.877 1.48795 64.9162C1.52264 64.9554 1.59539 65.1056 1.64958 65.25C1.80614 65.6668 2.03095 66.0052 2.11608 65.9525C2.16464 65.9223 2.14926 65.879 2.0752 65.8376C2.00976 65.801 1.97526 65.7213 1.99851 65.6604C2.02195 65.5997 2.00358 65.55 1.95801 65.55C1.91226 65.55 1.87495 65.4825 1.87495 65.4C1.87495 65.3175 1.8412 65.25 1.79995 65.25C1.7587 65.25 1.72495 65.1825 1.72495 65.1C1.72495 65.0175 1.6912 64.95 1.64995 64.95C1.6087 64.95 1.57495 64.8825 1.57495 64.8C1.57495 64.7175 1.5412 64.65 1.49995 64.65C1.4587 64.65 1.42495 64.6938 1.42495 64.7475ZM73.4249 64.8C73.4249 64.8825 73.3912 64.95 73.35 64.95C73.3087 64.95 73.2749 65.0175 73.2749 65.1C73.2749 65.1825 73.2412 65.25 73.2 65.25C73.1587 65.25 73.125 65.3147 73.125 65.3938C73.125 65.4727 73.0923 65.5487 73.0524 65.5625C73.0106 65.5768 73.0066 65.6308 73.043 65.6893C73.0886 65.7626 73.1536 65.6887 73.2746 65.4268C73.3672 65.2263 73.4726 65.0038 73.5089 64.9322C73.5961 64.7604 73.5926 64.65 73.5 64.65C73.4587 64.65 73.4249 64.7175 73.4249 64.8ZM2.09995 66.1053C2.09995 66.198 2.43839 66.75 2.4952 66.75C2.53214 66.75 2.54939 66.7247 2.53345 66.6937C2.51751 66.6628 2.44683 66.5109 2.37633 66.3562C2.27226 66.1284 2.09995 65.9718 2.09995 66.1053ZM72.6637 66.3C72.6206 66.4237 72.5548 66.525 72.5176 66.525C72.4803 66.525 72.45 66.5756 72.45 66.6375C72.45 66.8377 72.5683 66.7573 72.7361 66.4428C72.9241 66.0905 72.9277 66.075 72.821 66.075C72.7777 66.075 72.7068 66.1762 72.6637 66.3ZM2.54995 66.8696C2.54995 66.9358 2.87245 67.3833 2.94108 67.4124C2.97333 67.4263 2.99995 67.4769 2.99995 67.5249C3.00014 67.6498 3.36595 68.0589 3.42483 68C3.45183 67.973 3.40101 67.8877 3.31195 67.8105C3.22289 67.733 3.14995 67.638 3.14995 67.5992C3.14995 67.5602 3.09089 67.4628 3.0187 67.3828C2.94651 67.3029 2.83964 67.1447 2.78095 67.0312C2.68589 66.8469 2.54995 66.7518 2.54995 66.8696ZM72.2193 67.0312C72.1612 67.1447 72.0541 67.292 71.9818 67.3588C71.9092 67.4255 71.85 67.5229 71.85 67.575C71.85 67.6271 71.777 67.733 71.688 67.8105C71.5989 67.8877 71.5479 67.973 71.5749 68C71.6319 68.0568 71.9249 67.7405 71.9249 67.6222C71.9249 67.5782 72.0009 67.4733 72.0937 67.389C72.2505 67.2468 72.45 66.9525 72.45 66.8634C72.45 66.7509 72.3116 66.8516 72.2193 67.0312ZM71.2258 68.4095C71.0681 68.577 70.9576 68.7326 70.9805 68.7555C71.0268 68.8018 71.5499 68.2552 71.5499 68.1603C71.5499 68.0696 71.5353 68.0807 71.2258 68.4095ZM3.44995 68.2145C3.44995 68.282 4.13358 68.9413 4.16808 68.907C4.18589 68.889 4.05183 68.717 3.87014 68.5247C3.56358 68.2003 3.44995 68.1163 3.44995 68.2145ZM4.19995 69.0769C4.19995 69.1848 5.82089 70.8 5.92926 70.8C6.05245 70.8 5.95251 70.6837 5.04464 69.7715C4.27195 68.9953 4.19995 68.936 4.19995 69.0769ZM69.872 69.8653C69.1614 70.5697 68.9759 70.8 69.1192 70.8C69.1681 70.8 70.5562 69.4157 70.7173 69.2062C71.0045 68.8331 70.5763 69.1668 69.872 69.8653ZM6.22495 70.9899C6.22495 71.0685 6.74658 71.55 6.83151 71.55C6.87914 71.55 6.77901 71.415 6.60895 71.25C6.31251 70.9623 6.22495 70.9031 6.22495 70.9899ZM68.3722 71.2562C68.2124 71.4178 68.1131 71.55 68.1513 71.55C68.2303 71.55 68.7749 71.0664 68.7749 70.9961C68.7749 70.8948 68.6488 70.9762 68.3722 71.2562ZM6.97495 71.5974C6.97495 71.6696 7.37676 71.9998 7.4647 72C7.50708 72 7.59051 72.0675 7.64995 72.15C7.70939 72.2325 7.78758 72.3 7.82376 72.3C7.85976 72.3 7.97883 72.3635 8.08833 72.4412C8.31276 72.6003 8.83608 72.9 8.8897 72.9C9.02208 72.9 8.88389 72.7279 8.69995 72.6637C8.5762 72.6206 8.47495 72.5548 8.47495 72.5177C8.47495 72.4803 8.41495 72.45 8.34145 72.45C8.26814 72.45 8.15939 72.3825 8.09995 72.3C8.04051 72.2175 7.93926 72.15 7.87495 72.15C7.81064 72.15 7.70939 72.0825 7.64995 72C7.59051 71.9175 7.48926 71.85 7.42495 71.85C7.36064 71.85 7.25939 71.7825 7.19995 71.7C7.09533 71.5548 6.97495 71.5001 6.97495 71.5974ZM67.7999 71.7C67.7405 71.7825 67.6393 71.85 67.575 71.85C67.5106 71.85 67.4094 71.9175 67.35 72C67.2905 72.0825 67.1986 72.15 67.146 72.15C67.0931 72.15 67.0499 72.1837 67.0499 72.225C67.0499 72.2662 66.9993 72.3 66.9375 72.3C66.8756 72.3 66.825 72.3337 66.825 72.375C66.825 72.4162 66.7719 72.45 66.707 72.45C66.5741 72.45 66.3354 72.6603 66.3978 72.7228C66.4421 72.7672 67.3719 72.1612 67.4124 72.0615C67.4263 72.0275 67.4769 72 67.5249 72C67.6205 71.9998 68.0249 71.6743 68.0249 71.5974C68.0249 71.5001 67.9046 71.5548 67.7999 71.7ZM66.125 72.725C66.0386 72.8113 66.0703 72.9 66.1875 72.9C66.2493 72.9 66.2999 72.8493 66.2999 72.7875C66.2999 72.6703 66.2113 72.6386 66.125 72.725ZM9.04139 72.8936C9.01026 72.9438 8.99676 72.9915 9.0112 72.9995C9.61645 73.3372 10.05 73.4833 10.05 73.35C10.05 73.3087 9.98245 73.275 9.89995 73.275C9.81745 73.275 9.74995 73.2412 9.74995 73.2C9.74995 73.1587 9.68245 73.125 9.59995 73.125C9.51745 73.125 9.44995 73.0892 9.44995 73.0455C9.44995 73.0018 9.41395 72.9883 9.36989 73.0155C9.32601 73.0427 9.2467 73.0059 9.19383 72.9335C9.12295 72.8366 9.08301 72.8261 9.04139 72.8936ZM65.8218 72.9403C65.7939 73.0128 65.7268 73.0475 65.6619 73.0226C65.6002 72.999 65.5499 73.0123 65.5499 73.0524C65.5499 73.0923 65.4824 73.125 65.3999 73.125C65.3175 73.125 65.25 73.1587 65.25 73.2C65.25 73.2412 65.1824 73.275 65.1 73.275C65.0175 73.275 64.95 73.3087 64.95 73.35C64.95 73.4985 65.5179 73.3048 65.9949 72.9937C66.0129 72.9821 65.9921 72.9371 65.9486 72.8936C65.8936 72.8387 65.8554 72.8527 65.8218 72.9403ZM10.5 73.65C10.5 73.6912 10.5506 73.725 10.6125 73.725C10.6743 73.725 10.725 73.6912 10.725 73.65C10.725 73.6087 10.6743 73.575 10.6125 73.575C10.5506 73.575 10.5 73.6087 10.5 73.65ZM64.2749 73.65C64.2749 73.6912 64.3256 73.725 64.3875 73.725C64.4493 73.725 64.5 73.6912 64.5 73.65C64.5 73.6087 64.4493 73.575 64.3875 73.575C64.3256 73.575 64.2749 73.6087 64.2749 73.65ZM10.8 73.8C10.8 73.8412 10.8675 73.875 10.95 73.875C11.0325 73.875 11.1 73.8412 11.1 73.8C11.1 73.7587 11.0325 73.725 10.95 73.725C10.8675 73.725 10.8 73.7587 10.8 73.8ZM63.8999 73.8C63.8999 73.8412 63.9675 73.875 64.0499 73.875C64.1325 73.875 64.2 73.8412 64.2 73.8C64.2 73.7587 64.1325 73.725 64.0499 73.725C63.9675 73.725 63.8999 73.7587 63.8999 73.8ZM11.175 73.95C11.175 73.9912 11.2425 74.025 11.325 74.025C11.4075 74.025 11.475 73.9912 11.475 73.95C11.475 73.9087 11.4075 73.875 11.325 73.875C11.2425 73.875 11.175 73.9087 11.175 73.95ZM63.5249 73.95C63.5249 73.9912 63.5925 74.025 63.6749 74.025C63.7575 74.025 63.825 73.9912 63.825 73.95C63.825 73.9087 63.7575 73.875 63.6749 73.875C63.5925 73.875 63.5249 73.9087 63.5249 73.95ZM11.55 74.1C11.55 74.1412 11.6175 74.175 11.7 74.175C11.7825 74.175 11.85 74.1412 11.85 74.1C11.85 74.0587 11.7825 74.025 11.7 74.025C11.6175 74.025 11.55 74.0587 11.55 74.1ZM63.1499 74.1C63.1499 74.1412 63.2175 74.175 63.2999 74.175C63.3825 74.175 63.45 74.1412 63.45 74.1C63.45 74.0587 63.3825 74.025 63.2999 74.025C63.2175 74.025 63.1499 74.0587 63.1499 74.1ZM12 74.25C12 74.2912 12.0675 74.325 12.15 74.325C12.2325 74.325 12.2999 74.2912 12.2999 74.25C12.2999 74.2087 12.2325 74.175 12.15 74.175C12.0675 74.175 12 74.2087 12 74.25ZM62.7 74.25C62.7 74.2912 62.7675 74.325 62.85 74.325C62.9325 74.325 63 74.2912 63 74.25C63 74.2087 62.9325 74.175 62.85 74.175C62.7675 74.175 62.7 74.2087 62.7 74.25ZM12.525 74.4C12.525 74.4412 12.5925 74.475 12.6749 74.475C12.7575 74.475 12.825 74.4412 12.825 74.4C12.825 74.3587 12.7575 74.325 12.6749 74.325C12.5925 74.325 12.525 74.3587 12.525 74.4ZM62.1749 74.4C62.1749 74.4412 62.2425 74.475 62.325 74.475C62.4074 74.475 62.475 74.4412 62.475 74.4C62.475 74.3587 62.4074 74.325 62.325 74.325C62.2425 74.325 62.1749 74.3587 62.1749 74.4ZM12.9749 74.55C12.9749 74.5912 13.0573 74.625 13.158 74.625C13.2586 74.625 13.362 74.5912 13.3875 74.55C13.4145 74.5063 13.3381 74.475 13.2045 74.475C13.0783 74.475 12.9749 74.5087 12.9749 74.55ZM61.6499 74.55C61.6499 74.5912 61.7343 74.625 61.8374 74.625C61.9406 74.625 62.0249 74.5912 62.0249 74.55C62.0249 74.5087 61.9406 74.475 61.8374 74.475C61.7343 74.475 61.6499 74.5087 61.6499 74.55ZM13.575 74.7C13.575 74.7412 13.6762 74.775 13.7999 74.775C13.9237 74.775 14.025 74.7412 14.025 74.7C14.025 74.6587 13.9237 74.625 13.7999 74.625C13.6762 74.625 13.575 74.6587 13.575 74.7ZM60.975 74.7C60.975 74.7412 61.0762 74.775 61.2 74.775C61.3237 74.775 61.4249 74.7412 61.4249 74.7C61.4249 74.6587 61.3237 74.625 61.2 74.625C61.0762 74.625 60.975 74.6587 60.975 74.7ZM14.325 74.85C14.325 74.8912 14.4431 74.925 14.5875 74.925C14.7318 74.925 14.8499 74.8912 14.8499 74.85C14.8499 74.8087 14.7318 74.775 14.5875 74.775C14.4431 74.775 14.325 74.8087 14.325 74.85ZM60.1499 74.85C60.1499 74.8912 60.2681 74.925 60.4125 74.925C60.5568 74.925 60.6749 74.8912 60.6749 74.85C60.6749 74.8087 60.5568 74.775 60.4125 74.775C60.2681 74.775 60.1499 74.8087 60.1499 74.85ZM15.4687 74.9788C15.5821 74.9958 15.7678 74.9958 15.8812 74.9788C15.9946 74.9615 15.9018 74.9475 15.6749 74.9475C15.4481 74.9475 15.3553 74.9615 15.4687 74.9788ZM59.1187 74.9788C59.2321 74.9958 59.4178 74.9958 59.5312 74.9788C59.6446 74.9615 59.5518 74.9475 59.325 74.9475C59.0981 74.9475 59.0053 74.9615 59.1187 74.9788Z" clip-rule="evenodd"/></svg>