<?xml version="1.0" encoding="utf-8"?>
<!-- Generator: Adobe Illustrator 27.7.0, SVG Export Plug-In . SVG Version: 6.00 Build 0)  -->
<svg version="1.1" id="svg103" xmlns:svg="http://www.w3.org/2000/svg"
	 xmlns="http://www.w3.org/2000/svg" xmlns:xlink="http://www.w3.org/1999/xlink" x="0px" y="0px" viewBox="0 0 512 512"
	 style="enable-background:new 0 0 512 512;" xml:space="preserve">
<style type="text/css">
	.st0{fill:#95BF47;}
	.st1{fill:#5E8E3E;}
	.st2{fill:#FFFFFF;}
</style>
<g>
	<path id="path69" class="st0" d="M425.9,98.7c-0.3-2.7-2.7-3.9-4.5-4.2c-1.8-0.3-38.1-0.6-38.1-0.6s-30.6-29.7-33.6-32.7
		s-8.8-2.1-11.2-1.5c0,0-5.8,1.8-15.4,4.8c-1.5-5.1-3.9-11.5-7.3-17.9c-10.9-20.9-26.6-31.8-46-31.8c-1.2,0-2.7,0-3.9,0.3
		c-0.6-0.6-1.2-1.2-1.8-2.1C255.4,4,244.8-0.3,232.1,0c-24.8,0.6-49.4,18.5-69.6,50.6c-14.2,22.4-24.8,50.6-27.9,72.4
		c-28.5,8.8-48.4,14.8-48.7,15.1c-14.2,4.5-14.8,4.8-16.7,18.5c-1.5,10-39.1,301-39.1,301L345.3,512l136.5-33.9
		C481.9,478.1,426.2,101.1,425.9,98.7z M307.2,69.3c-7.3,2.1-15.4,4.8-24.5,7.6c-0.3-12.4-1.8-30-7.6-45.1
		C294.1,35.4,303.2,56.6,307.2,69.3z M266.3,82.1c-16.7,5.1-34.5,10.6-52.7,16.3c5.1-19.4,14.8-38.8,26.6-51.5
		c4.5-4.8,10.6-10,17.9-13C265.1,48.2,266.3,68.4,266.3,82.1z M232.4,16.7c5.8,0,10.6,1.2,14.8,3.9c-6.7,3.3-13.3,8.5-19.4,15.1
		c-15.7,17-27.9,43-32.7,68.4c-15.1,4.5-29.7,9.1-43.3,13.3C160.9,77.5,194.2,17.9,232.4,16.7z"/>
	<path id="path71" class="st1" d="M421.3,94.5c-1.8-0.3-38.1-0.6-38.1-0.6s-30.6-29.7-33.6-32.7c-1.2-1.2-2.7-1.8-4.2-1.8V512
		l136.5-33.9c0,0-55.7-376.6-56-379.4C425.2,96,423.1,94.8,421.3,94.5z"/>
	<path id="path73" class="st2" d="M269.6,164.7l-15.7,59.3c0,0-17.6-8.2-38.8-6.7c-30.9,1.8-31.2,21.2-30.9,26.3
		c1.8,26.6,71.5,32.4,75.4,94.5c3,49-26,82.4-67.8,85.1c-50.3,3-77.8-26.3-77.8-26.3l10.6-45.1c0,0,27.9,20.9,50,19.7
		c14.5-0.9,19.7-12.7,19.1-21.2c-2.1-34.5-59-32.7-62.7-89.3c-3-47.8,28.5-96.3,97.8-100.8C256,157.8,269.6,164.7,269.6,164.7
		L269.6,164.7z"/>
</g>
</svg>
