<svg xmlns="http://www.w3.org/2000/svg" width="1024" height="1024" viewBox="0 0 819.2 819.2"><path d="M129.04 3.83c8.75-4.94 19.91-4.36 28.54.57 10.21 5.66 18.5 14.16 26.26 22.74 5.3 5.7 9.8 12.22 16.07 16.94 10.09 7.8 20.45 15.7 27.77 26.32 3.51 4.97 4.63 11.07 6.16 16.84 2.19 8.4 2.35 17.14 2.51 25.76-.22 10.32-.71 20.69-2.75 30.83-.86 4.41-1.67 9.19.23 13.46 1.89 4.17 5.09 7.56 7.23 11.59 3.67 6.84 7.26 14.21 6.88 22.18.01 3.89-1.75 7.44-3.43 10.85.89 5.39 3.51 10.5 3.39 16.04-.12 4.93-4.08 8.76-8.3 10.7-3.47 1.68-7.43 1.04-11.1.69-3.91 3.17-.59 8.65-2.64 12.67-2.92 6.14-10.18 9.58-16.83 8.78-3.64-.11-6.86-1.92-9.91-3.72-1.97 2.65-3.9 5.6-7 7.07-5.77 2.72-13.53 1.43-17.49-3.78-3.71-4.94-5.1-11.34-4.5-17.43.43-4.06.56-8.15-.07-12.2-3.02.41-6.16.79-8.78 2.46-3.2 1.69-5.57 4.48-8.33 6.74-3.35 2.63-7.88 2.3-11.9 2.34-2.85 2.4-5.36 5.32-8.74 7-4.56 1.94-10.12 1.34-14.21-1.44-2.59-1.81-3.59-5-5.65-7.29-1.59-1.27-3.5-2.06-5.3-2.98-3.15.1-6.4.46-9.48-.43-2.76-.9-4.51-3.36-6.56-5.25-2.03-2.06-4.73-3.25-6.91-5.12-1.57-1.43-2.85-3.15-4.22-4.76.13 2.56.52 5.1 1.23 7.57 1.5 4.75-.56 9.59-.46 14.41-.36 4.41.79 9.28-1.56 13.31-2.73 4.37-7.6 8.15-13.04 7.31-4.92-.63-9.94.22-14.8-.72-5.51-1.38-8.4-6.66-10.76-11.34-3.61-.36-7.52-.4-10.63-2.52-2.63-1.76-3.96-4.73-5.43-7.4-4.63-.4-9.61-1.72-12.35-5.8-3.39-5.27-3.7-11.97-2.83-18.01.76-6.8 3.08-13.34 6.23-19.38 3.12-5.64 6.67-11.14 8.62-17.34 1.15-3.63.77-7.51-.19-11.14-1.86-7.02-3.13-14.19-4.96-21.22-3.6-13.34-4.52-27.49-2.24-41.14 3.53-15.85 11.52-31.17 24.35-41.42 7.05-6.07 15.76-10 22.17-16.84 6.53-6.8 12.58-14.08 19.51-20.49 6.43-5.73 13.12-11.47 21.22-14.68 7.78-3.5 16.9-4.3 24.98-1.33m1.06 5.52c-3.13-1.66-6.39-3.41-10.02-3.49-7.2-.62-13.86 2.85-19.85 6.43-8.91 5.87-16.32 13.66-23.4 21.56-4.12 4.53-8.22 9.11-12.96 13-4.26 3.53-9.2 6.1-13.61 9.41-6.46 4.82-12.19 10.72-16.34 17.66-7.49 12.17-10.33 26.89-9.05 41.03 1.04 9.06 2.53 18.07 5.07 26.83 1.45 7.4 4.39 14.64 3.91 22.3-.11 5.57-2.73 10.65-5.27 15.47-3.45 6.61-7.7 12.93-9.63 20.21a38.634 38.634 0 0 0-.76 14.17c.38 4.2 6.68 5.88 9.2 2.5 1.06-2.24 1.82-4.61 2.88-6.86.75 5.56.33 11.68 3.54 16.57 1.83 2.87 6.53 2.82 8.44.05 1.05-2.19.98-4.71 1.33-7.06a92.8 92.8 0 0 1 1.92-1.08c.16 4.77.25 9.73 2.36 14.12 1.4 2.84 2.83 5.94 5.5 7.79 2.62 1.29 5.26-.49 7.65-1.46 2.2.81 4.41 2.28 6.85 1.8 1.69-.41 3.65-1.66 3.64-3.61.17-4.26.57-8.68-.95-12.76.84-1.3 1.96-2.48 2.37-4-.16-3.35-2.73-6.3-2.02-9.74.95-5.61 1.66-11.28 1.4-16.98 3.66 1.09 7.48 1.73 11.3 1.29 1.49 1.5 3.34 2.83 4.07 4.91.82 1.84 1.12 3.97 2.37 5.6 1.81 1.77 4.6.98 6.88 1.19.92 2.83 1.23 7.6 5.18 7.59 2.71.4 4.53-1.89 6.32-3.51.41.08 1.25.25 1.67.33 1.05 1.73 1.82 3.76 3.44 5.07 1.99.94 4.3.47 6.44.58.54 2.32.95 4.69 1.85 6.91 1.01 2.81 5.1 4.21 7.45 2.22 2.19-1.85 4.43-3.72 6.24-5.95.44-1.36.63-2.77.89-4.17 3.14 1.04 6.2 2.49 9.5 2.93 3.46-.21 4.08-4.13 5.36-6.63 5.26-.13 9.24-4.17 14.37-4.85 5.22-.96 10.08-3.11 14.67-5.71-.54 3.32-1.26 6.63-1.51 9.99-.34 4.49 1.72 8.87.82 13.37-.92 5.56-1.42 11.99 2.24 16.73 2.05 2.96 7.92 2.12 8.57-1.63 1.32-5.63 2.68-11.53 6.93-15.77 1.15 2.12 1.53 5.14 3.95 6.23 2.06 1.07 4.12-.61 6.07-1.17.71 2.48 1.05 5.2 2.61 7.33 2.3 2.56 7.25.96 7.76-2.41.31-2.18-1-4.13-1.79-6.06 1.32-3.34 3.72-6.02 6.01-8.73 2.38-2.7 2.8-6.39 3.39-9.79 1.52 2.28 2.96 4.66 4.97 6.56 2.31 2.41 6.54 1.41 8.33-1.14.91-7.22-4.29-13.85-3.2-21.1.98-1.92 2.81-3.39 3.36-5.52.48-3.46.03-7.1-1.55-10.23-3.03-6.07-7.58-11.24-10.57-17.33-1.31-2.56-1.7-5.47-1.64-8.31.11-8.49 1.96-16.81 2.91-25.22 2.26-12.56 2.95-25.72-.46-38.14-2.11-10.08-6.82-19.72-14.07-27.1-6.16-6.29-13.59-11.11-20.4-16.64-6.26-5.07-10.88-11.74-16.4-17.53-7.42-7.96-15.09-16.15-24.95-21.09-4.09-2.15-8.92-2.88-13.44-1.88-3.1.89-5.54 3.12-8.14 4.92z" style="fill:#9b6c28" transform="translate(-2.855 -1.288) scale(3.21096)"/><path d="M130.1 9.35c2.6-1.8 5.04-4.03 8.14-4.92 4.52-1 9.35-.27 13.44 1.88 9.86 4.94 17.53 13.13 24.95 21.09 5.52 5.79 10.14 12.46 16.4 17.53 6.81 5.53 14.24 10.35 20.4 16.64 7.25 7.38 11.96 17.02 14.07 27.1 3.41 12.42 2.72 25.58.46 38.14-.95 8.41-2.8 16.73-2.91 25.22-.06 2.84.33 5.75 1.64 8.31 2.99 6.09 7.54 11.26 10.57 17.33 1.58 3.13 2.03 6.77 1.55 10.23-.55 2.13-2.38 3.6-3.36 5.52-1.09 7.25 4.11 13.88 3.2 21.1-1.79 2.55-6.02 3.55-8.33 1.14-2.01-1.9-3.45-4.28-4.97-6.56-.59 3.4-1.01 7.09-3.39 9.79-2.29 2.71-4.69 5.39-6.01 8.73.79 1.93 2.1 3.88 1.79 6.06-.51 3.37-5.46 4.97-7.76 2.41-1.56-2.13-1.9-4.85-2.61-7.33-1.95.56-4.01 2.24-6.07 1.17-2.42-1.09-2.8-4.11-3.95-6.23-4.25 4.24-5.61 10.14-6.93 15.77-.65 3.75-6.52 4.59-8.57 1.63-3.66-4.74-3.16-11.17-2.24-16.73.9-4.5-1.16-8.88-.82-13.37.25-3.36.97-6.67 1.51-9.99-4.59 2.6-9.45 4.75-14.67 5.71-5.13.68-9.11 4.72-14.37 4.85-1.28 2.5-1.9 6.42-5.36 6.63-3.3-.44-6.36-1.89-9.5-2.93-.26 1.4-.45 2.81-.89 4.17-1.81 2.23-4.05 4.1-6.24 5.95-2.35 1.99-6.44.59-7.45-2.22-.9-2.22-1.31-4.59-1.85-6.91-2.14-.11-4.45.36-6.44-.58-1.62-1.31-2.39-3.34-3.44-5.07-.42-.08-1.26-.25-1.67-.33-1.79 1.62-3.61 3.91-6.32 3.51-3.95.01-4.26-4.76-5.18-7.59-2.28-.21-5.07.58-6.88-1.19-1.25-1.63-1.55-3.76-2.37-5.6-.73-2.08-2.58-3.41-4.07-4.91-3.82.44-7.64-.2-11.3-1.29.26 5.7-.45 11.37-1.4 16.98-.71 3.44 1.86 6.39 2.02 9.74-.41 1.52-1.53 2.7-2.37 4 1.52 4.08 1.12 8.5.95 12.76.01 1.95-1.95 3.2-3.64 3.61-2.44.48-4.65-.99-6.85-1.8-2.39.97-5.03 2.75-7.65 1.46-2.67-1.85-4.1-4.95-5.5-7.79-2.11-4.39-2.2-9.35-2.36-14.12-.64.35-1.28.71-1.92 1.08-.35 2.35-.28 4.87-1.33 7.06-1.91 2.77-6.61 2.82-8.44-.05-3.21-4.89-2.79-11.01-3.54-16.57-1.06 2.25-1.82 4.62-2.88 6.86-2.52 3.38-8.82 1.7-9.2-2.5-.62-4.71-.37-9.55.76-14.17 1.93-7.28 6.18-13.6 9.63-20.21 2.54-4.82 5.16-9.9 5.27-15.47.48-7.66-2.46-14.9-3.91-22.3-2.54-8.76-4.03-17.77-5.07-26.83-1.28-14.14 1.56-28.86 9.05-41.03 4.15-6.94 9.88-12.84 16.34-17.66 4.41-3.31 9.35-5.88 13.61-9.41 4.74-3.89 8.84-8.47 12.96-13 7.08-7.9 14.49-15.69 23.4-21.56 5.99-3.58 12.65-7.05 19.85-6.43 3.63.08 6.89 1.83 10.02 3.49m8.43.29c-3.53 1.56-5.4 5.2-7.44 8.26-1.88-2.12-3.66-4.57-6.39-5.64-4.8-1.83-10.32-1.57-14.98.56-5.04 2.28-9.57 5.54-13.8 9.08-12.75 10.53-21.65 25.3-35.95 34.03-11.34 6.72-21.25 16.64-25.95 29.16-5.07 11.72-5.16 24.94-3.24 37.38 1.35 7.25 3.07 14.43 5.02 21.54 2.19 8.55 4.53 17.56 2.31 26.35-3.18 11.14-11.3 20.1-14.31 31.31-1 3.75-.62 7.67-.44 11.5.72-4.73 1.53-9.61 4.33-13.62.35 1.89.67 3.8.98 5.71.72-3.33 1.26-6.76 2.74-9.85 1.78-3.55 5.27-5.68 8.58-7.59-.09 4.1-.75 8.16-2.08 12.04-2.41 7.52-3.53 16.23.29 23.47.24-3.48.67-6.95 1.69-10.3.85.25 1.69.51 2.54.77 1.09-8.97 8.92-15.01 10.37-23.87 1.18 5.31 1.34 10.86.04 16.17-1.55 6.15-2.89 12.56-1.81 18.91.6 3.58 2.51 6.73 4.23 9.86.46-.16 1.37-.46 1.82-.62l2.58-3.93c2.28 1.99 4.6 3.93 6.88 5.92a63.741 63.741 0 0 1-3.29-7.24c.94-.04 2.82-.13 3.76-.17-1.63-1.68-3.47-3.26-4.54-5.38-.79-2.77-.21-5.69-.13-8.52 1.44 1.05 2.86 2.12 4.28 3.19-1.17-4.06-1.12-8.3-.21-12.41 1.53-7.17.3-14.46-.13-21.66-.18-2.7-.55-5.37-1.04-8.02 1.15 1.76 2.35 3.48 3.58 5.19.56-1.43 1.11-2.86 1.65-4.3.37 2.32.8 4.63 1.33 6.93.64-.99 1.27-1.98 1.9-2.97.08 2.43.2 4.86.35 7.29 1.44-2.68 2.99-5.3 4.83-7.73.21 3.27.34 6.54.54 9.81 1.3-2.8 2.46-5.66 3.57-8.54 1.75 4.24 3.66 8.51 6.84 11.9l2.1-2.67c.56 3.41 1.16 6.82 1.62 10.25 1.09-2.24 1.01-6.63 4.34-6.4 3.43 4.09 3.82 9.63 4.95 14.63 1.54-4.21 2.23-8.68 4-12.8 1.45 2.88 2.9 5.77 4.4 8.63.32-2.94.63-6.05 2.71-8.34 2.04 2.25 3.03 5.11 3.33 8.1.43-.17 1.29-.52 1.72-.69-.91 2.32-1.82 4.63-2.62 7 2.66-2.59 4.91-5.53 7.04-8.55.46 6.19.87 12.48 3.06 18.36.39-4.71.53-9.43.77-14.14-.05-1.32.71-2.4 1.35-3.48 1.48 4.5 1.4 9.31 2.62 13.87.56-4.46-.25-9.35 2.36-13.3 2.17 2.39 4.3 4.81 6.49 7.18.25-3.01-.58-6.45 1.64-8.9 1.64 3.49 2.59 7.24 3.21 11.02 1.36-3.89 3.09-7.87 6.68-10.21.56.46 1.68 1.38 2.24 1.83.97-1.81 1.97-3.6 3.03-5.36.14 1.46.27 2.93.39 4.4.99-2.82 2.6-5.5 5.65-6.4.2 1.49.39 2.97.57 4.46 1.4-3.05 2.94-6.03 4.68-8.91.82.92 1.51 1.92 2.08 3.01-.08 1.67-.49 3.3-.83 4.94 2.05-4.03 4.16-8.09 7.26-11.43-.57 3.13-1.45 6.2-2.52 9.2 4.16-3.24 8.38-6.82 9.94-12.08.29.52.88 1.56 1.18 2.08.72-.23 1.45-.46 2.18-.68.57 1.92 1.14 3.84 1.73 5.76-1.37 3.57-3.11 7-4.3 10.63-1.52 4.78-.94 9.85-.31 14.72a65.743 65.743 0 0 1 10.45-16.25c-2.16 8.03-8.44 14.19-10.44 22.28-1.09 4.28-.36 8.72.84 12.89 1.46-4.66 2.36-9.58 4.97-13.78 2.81-5.08 8.33-7.91 11.16-12.99 2.67-4.15 3.03-9.62.99-14.1-1.41-3.03-2.42-6.27-2.22-9.66 3.05 3.43 5.1 7.71 5.87 12.22.63 4.69-1.4 9.12-2.4 13.6-.86 3.5-.59 7.12-.33 10.67 2.08-5.93 2.9-13.12 8.52-16.94.64 2.06 1.32 4.24.54 6.38-1.53 5.74-2.36 12.29.72 17.69.27-2.99.26-6.03 1-8.96 1.09-4.12 4.8-6.84 6.19-10.8.77-3.41.55-6.96.11-10.39-1.23-8.87-8.83-16.14-7.45-25.48 1.89.93 4.52 1.56 5.01 3.96 1.43 6.29.44 13.67 5.43 18.62-.58-3.12-1.45-6.2-1.65-9.37-.18-2.39 1.3-4.43 2.3-6.47 3.75 6.03 2.51 13.41 4.51 19.96.85 3.58 2.71 6.83 5.13 9.58-.81-3.63-2.03-7.16-2.84-10.8-.96-4.28-.78-8.69-.73-13.04 1.22-.12 2.44-.23 3.66-.34-.18-3.06-.01-6.35-1.7-9.05-2.81-4.73-7.46-8.05-10.09-12.9-2.03-3.61-2.43-7.83-2.53-11.89-.37-11.61 2.96-22.87 4.82-34.23 1.3-15.46-.2-31.75-7.68-45.6-7.18-12.33-20.27-19.02-30.48-28.39-6.81-6.88-12.62-14.68-19.58-21.43-5.08-4.98-10.33-9.98-16.7-13.28-3.47-1.82-7.65-2.49-11.44-1.41z" style="fill:#fffff3;fill-opacity:1" transform="translate(-2.855 -1.288) scale(3.21096)"/><path d="M138.53 9.64c3.79-1.08 7.97-.41 11.44 1.41 6.37 3.3 11.62 8.3 16.7 13.28 6.96 6.75 12.77 14.55 19.58 21.43 10.21 9.37 23.3 16.06 30.48 28.39 7.48 13.85 8.98 30.14 7.68 45.6-1.86 11.36-5.19 22.62-4.82 34.23.1 4.06.5 8.28 2.53 11.89 2.63 4.85 7.28 8.17 10.09 12.9 1.69 2.7 1.52 5.99 1.7 9.05-1.22.11-2.44.22-3.66.34-.05 4.35-.23 8.76.73 13.04.81 3.64 2.03 7.17 2.84 10.8-2.42-2.75-4.28-6-5.13-9.58-2-6.55-.76-13.93-4.51-19.96-1 2.04-2.48 4.08-2.3 6.47.2 3.17 1.07 6.25 1.65 9.37-4.99-4.95-4-12.33-5.43-18.62-.49-2.4-3.12-3.03-5.01-3.96-1.38 9.34 6.22 16.61 7.45 25.48.44 3.43.66 6.98-.11 10.39-1.39 3.96-5.1 6.68-6.19 10.8-.74 2.93-.73 5.97-1 8.96-3.08-5.4-2.25-11.95-.72-17.69.78-2.14.1-4.32-.54-6.38-5.62 3.82-6.44 11.01-8.52 16.94-.26-3.55-.53-7.17.33-10.67 1-4.48 3.03-8.91 2.4-13.6-.77-4.51-2.82-8.79-5.87-12.22-.2 3.39.81 6.63 2.22 9.66 2.04 4.48 1.68 9.95-.99 14.1-2.83 5.08-8.35 7.91-11.16 12.99-2.61 4.2-3.51 9.12-4.97 13.78-1.2-4.17-1.93-8.61-.84-12.89 2-8.09 8.28-14.25 10.44-22.28a65.743 65.743 0 0 0-10.45 16.25c-.63-4.87-1.21-9.94.31-14.72 1.19-3.63 2.93-7.06 4.3-10.63-.59-1.92-1.16-3.84-1.73-5.76-.73.22-1.46.45-2.18.68-.3-.52-.89-1.56-1.18-2.08-1.56 5.26-5.78 8.84-9.94 12.08 1.07-3 1.95-6.07 2.52-9.2-3.1 3.34-5.21 7.4-7.26 11.43.34-1.64.75-3.27.83-4.94-.57-1.09-1.26-2.09-2.08-3.01-1.74 2.88-3.28 5.86-4.68 8.91-.18-1.49-.37-2.97-.57-4.46-3.05.9-4.66 3.58-5.65 6.4-.12-1.47-.25-2.94-.39-4.4-1.06 1.76-2.06 3.55-3.03 5.36-.56-.45-1.68-1.37-2.24-1.83-3.59 2.34-5.32 6.32-6.68 10.21-.62-3.78-1.57-7.53-3.21-11.02-2.22 2.45-1.39 5.89-1.64 8.9-2.19-2.37-4.32-4.79-6.49-7.18-2.61 3.95-1.8 8.84-2.36 13.3-1.22-4.56-1.14-9.37-2.62-13.87-.64 1.08-1.4 2.16-1.35 3.48-.24 4.71-.38 9.43-.77 14.14-2.19-5.88-2.6-12.17-3.06-18.36-2.13 3.02-4.38 5.96-7.04 8.55.8-2.37 1.71-4.68 2.62-7-.43.17-1.29.52-1.72.69-.3-2.99-1.29-5.85-3.33-8.1-2.08 2.29-2.39 5.4-2.71 8.34-1.5-2.86-2.95-5.75-4.4-8.63-1.77 4.12-2.46 8.59-4 12.8-1.13-5-1.52-10.54-4.95-14.63-3.33-.23-3.25 4.16-4.34 6.4-.46-3.43-1.06-6.84-1.62-10.25l-2.1 2.67c-3.18-3.39-5.09-7.66-6.84-11.9-1.11 2.88-2.27 5.74-3.57 8.54-.2-3.27-.33-6.54-.54-9.81-1.84 2.43-3.39 5.05-4.83 7.73-.15-2.43-.27-4.86-.35-7.29-.63.99-1.26 1.98-1.9 2.97-.53-2.3-.96-4.61-1.33-6.93-.54 1.44-1.09 2.87-1.65 4.3a140.62 140.62 0 0 1-3.58-5.19c.49 2.65.86 5.32 1.04 8.02.43 7.2 1.66 14.49.13 21.66-.91 4.11-.96 8.35.21 12.41-1.42-1.07-2.84-2.14-4.28-3.19-.08 2.83-.66 5.75.13 8.52 1.07 2.12 2.91 3.7 4.54 5.38-.94.04-2.82.13-3.76.17.95 2.48 2.04 4.9 3.29 7.24-2.28-1.99-4.6-3.93-6.88-5.92l-2.58 3.93c-.45.16-1.36.46-1.82.62-1.72-3.13-3.63-6.28-4.23-9.86-1.08-6.35.26-12.76 1.81-18.91 1.3-5.31 1.14-10.86-.04-16.17-1.45 8.86-9.28 14.9-10.37 23.87-.85-.26-1.69-.52-2.54-.77-1.02 3.35-1.45 6.82-1.69 10.3-3.82-7.24-2.7-15.95-.29-23.47 1.33-3.88 1.99-7.94 2.08-12.04-3.31 1.91-6.8 4.04-8.58 7.59-1.48 3.09-2.02 6.52-2.74 9.85-.31-1.91-.63-3.82-.98-5.71-2.8 4.01-3.61 8.89-4.33 13.62-.18-3.83-.56-7.75.44-11.5 3.01-11.21 11.13-20.17 14.31-31.31 2.22-8.79-.12-17.8-2.31-26.35-1.95-7.11-3.67-14.29-5.02-21.54-1.92-12.44-1.83-25.66 3.24-37.38 4.7-12.52 14.61-22.44 25.95-29.16 14.3-8.73 23.2-23.5 35.95-34.03 4.23-3.54 8.76-6.8 13.8-9.08 4.66-2.13 10.18-2.39 14.98-.56 2.73 1.07 4.51 3.52 6.39 5.64 2.04-3.06 3.91-6.7 7.44-8.26m-35.95 32.92C96.61 46.5 92 52.13 88.05 58.02c-3.98 5.87-6.22 12.77-10.68 18.33-1.41 1.89-3.56 2.94-5.58 4.02.9-2.76 1.99-5.45 3.25-8.07-1.91 1.41-3.91 2.7-5.97 3.87 1.7-4 3.64-7.9 4.98-12.05-8.83 6.91-14.17 17.73-15.11 28.82-.22 2.86-.4 5.86.65 8.6 1.14 2.98 2.62 5.83 3.73 8.82-3.48-1.18-6.69-2.97-9.75-4.99-2.21 10.74 1.71 21.65 7.4 30.66 6.85 10.28 16.61 18.93 28.24 23.35.06-4.44-.5-8.89-.07-13.31.2-2.54 1.91-4.7 4.13-5.82 6.05-3.17 12.91-5 19.76-4.64 6.34.43 12.21 3.12 17.97 5.58 3.34-2.13 6.68-4.51 10.62-5.38 9.62-1.84 19.47.45 28.36 4.18 1.95.88 4.06 2.15 4.59 4.39.9 4.32.19 8.77.26 13.14 14.21-6.23 24.7-19.23 30.2-33.49 2.3-5.46 1.71-11.49 1.48-17.25-.77.7-1.54 1.4-2.3 2.12.42-3.91.1-7.89-1.52-11.51-1.93 4.52-2.46 9.62-5.32 13.73.4-4.46 1.98-9.34-.56-13.46-1.08 1.88-2.13 3.79-3.23 5.66-.39-6.82.05-13.77-1.62-20.46-1.44-5.7-4.93-10.59-8.84-14.87.19 4.13 1.16 8.17 2.64 12.02-3.98-3.12-6.56-7.5-8.56-12.07-.22 5.49.65 10.94 2.56 16.09-1.8-2.19-3.61-4.41-4.81-7-2.35-4.77-3.18-10.07-5.05-15.02-.95-2.62-3.01-4.58-4.95-6.49-.46 4.21-.09 8.44.66 12.6-3.83-9.12-5.94-20.13-14.77-25.96-9.62-5.3-21.04-5.29-31.72-4.68-5.75.6-11.68 1.77-16.54 5.08m7.24 110.37c-4.53 1.28-8.3 5.77-7.64 10.64 6.57 3.53 14.11.3 20.94-.66 9.86-1.77 18.83 5.05 28.66 3.84 4.66-.55 6.43-6.41 4.86-10.29-.92-2.53-3.81-3.23-6.16-3.71-8.43-1.44-17.01-1.46-25.54-1.44-5.06.08-10.22.19-15.12 1.62z" style="fill:#215f2f" transform="translate(-2.855 -1.288) scale(3.21096)"/><path d="M91.43 94.38c3.28-1.13 7.3-.08 9.39 2.76 2.79 3.75 1.68 10.01-2.72 12.02-3.8 2.13-8.92.46-11.03-3.25-2.26-4.15-.35-10.13 4.36-11.53zm74.09 6.04c2.22-.63 4.67.32 6.09 2.08.38 2.04.4 4.55-1.22 6.09-1.99 1.14-4.81 1.2-6.6-.38-2.06-2.29-1.32-6.76 1.73-7.79z" style="fill:#215f2f" transform="translate(-2.855 -1.288) scale(3.21096)"/><path d="M102.58 42.56c4.86-3.31 10.79-4.48 16.54-5.08 10.68-.61 22.1-.62 31.72 4.68 8.83 5.83 10.94 16.84 14.77 25.96-.75-4.16-1.12-8.39-.66-12.6 1.94 1.91 4 3.87 4.95 6.49 1.87 4.95 2.7 10.25 5.05 15.02 1.2 2.59 3.01 4.81 4.81 7a41.425 41.425 0 0 1-2.56-16.09c2 4.57 4.58 8.95 8.56 12.07-1.48-3.85-2.45-7.89-2.64-12.02 3.91 4.28 7.4 9.17 8.84 14.87 1.67 6.69 1.23 13.64 1.62 20.46 1.1-1.87 2.15-3.78 3.23-5.66 2.54 4.12.96 9 .56 13.46 2.86-4.11 3.39-9.21 5.32-13.73 1.62 3.62 1.94 7.6 1.52 11.51.76-.72 1.53-1.42 2.3-2.12.23 5.76.82 11.79-1.48 17.25-5.5 14.26-15.99 27.26-30.2 33.49-.07-4.37.64-8.82-.26-13.14-.53-2.24-2.64-3.51-4.59-4.39-8.89-3.73-18.74-6.02-28.36-4.18-3.94.87-7.28 3.25-10.62 5.38-5.76-2.46-11.63-5.15-17.97-5.58-6.85-.36-13.71 1.47-19.76 4.64-2.22 1.12-3.93 3.28-4.13 5.82-.43 4.42.13 8.87.07 13.31-11.63-4.42-21.39-13.07-28.24-23.35-5.69-9.01-9.61-19.92-7.4-30.66 3.06 2.02 6.27 3.81 9.75 4.99-1.11-2.99-2.59-5.84-3.73-8.82-1.05-2.74-.87-5.74-.65-8.6.94-11.09 6.28-21.91 15.11-28.82-1.34 4.15-3.28 8.05-4.98 12.05 2.06-1.17 4.06-2.46 5.97-3.87a65.393 65.393 0 0 0-3.25 8.07c2.02-1.08 4.17-2.13 5.58-4.02 4.46-5.56 6.7-12.46 10.68-18.33 3.95-5.89 8.56-11.52 14.53-15.46M91.43 94.38c-4.71 1.4-6.62 7.38-4.36 11.53 2.11 3.71 7.23 5.38 11.03 3.25 4.4-2.01 5.51-8.27 2.72-12.02-2.09-2.84-6.11-3.89-9.39-2.76m74.09 6.04c-3.05 1.03-3.79 5.5-1.73 7.79 1.79 1.58 4.61 1.52 6.6.38 1.62-1.54 1.6-4.05 1.22-6.09-1.42-1.76-3.87-2.71-6.09-2.08z" style="fill:#c7db40" transform="translate(-2.855 -1.288) scale(3.21096)"/><path d="M109.82 152.93c4.9-1.43 10.06-1.54 15.12-1.62 8.53-.02 17.11 0 25.54 1.44 2.35.48 5.24 1.18 6.16 3.71 1.57 3.88-.2 9.74-4.86 10.29-9.83 1.21-18.8-5.61-28.66-3.84-6.83.96-14.37 4.19-20.94.66-.66-4.87 3.11-9.36 7.64-10.64z" style="fill:#c7db40" transform="translate(-2.855 -1.288) scale(3.21096)"/></svg>