<?xml version="1.0" encoding="UTF-8"?>
<svg id="Layer_1" data-name="Layer 1" xmlns="http://www.w3.org/2000/svg" viewBox="0 0 125 120">
  <defs>
    <style>
      .cls-1 {
        fill: none;
      }

      .cls-2 {
        fill: #2e2f71;
      }
    </style>
  </defs>
  <path class="cls-1" d="m106.0054666,59.5341344c.1631748-21.7122202-15.2355924-40.8850604-36.1752438-45.2527776-23.3215729-4.864695-42.4655221,8.4854089-49.3035023,22.1426897,1.496472-1.8439781,2.7498044-3.6087424,4.2211237-5.1675602,17.398564-18.4338178,45.5387061-20.0429068,64.9368547-3.7484099,13.3880481,11.2459178,18.3296062,30.0529162,12.1303009,46.1661435-7.6157207,19.7948078-28.797858,31.4789467-50.5446454,27.795715-11.9971811-2.0319903-21.7637355-7.9009153-29.348398-17.4529804,6.7341125,12.6592888,25.4223936,24.2210065,45.7974866,20.545664,22.3269809-4.0274697,38.1180899-22.6847556,38.2860235-45.028484Z"/>
  <path class="cls-2" d="m120.606581,51.9593852c-2.6205776-5.2871376-6.2942631-9.2303941-10.6642336-12.9774279-7.1007398-6.0887237-7.9071763-9.5507349-10.3548265-19.0156511-2.6620192-10.2939312-16.9300529-19.229441-27.3805309-16.9966873-8.0005517,1.7093101-15.8115489,2.1589065-23.7595131.2649784-.8412903-.2005341-1.7323243-.2236056-2.6032281-.2629602-4.2260143-.1909019-7.6631996,1.3471837-10.2866955,4.7001672-1.5772739,2.015753-2.9618514,4.1653025-4.1110581,6.4340166-3.048639,6.0184083-7.7231202,10.2897572-13.653812,13.3621213-2.7096242,1.4037387-5.3854897,2.9229268-7.8926763,4.6561799-3.8611416,2.6693695-7.0162627,5.9615322-7.619694,10.9408509-.4395972,3.6277317.672921,6.9764036,2.3781662,10.0485384,3.1351629,5.6480715,4.677497,11.5856148,4.0575992,17.4435775,0,2.4206283-.065161,4.244241.0117938,6.0617992.265116,6.2590767,1.7304953,11.9861785,7.249277,15.8514138,2.0961937,1.4681372,4.3218895,2.7394096,6.6753329,3.6980471,6.8985544,2.8098167,12.4552974,7.1448302,16.2451202,13.6446212.5063807.868553,1.2445946,1.6141803,1.9369063,2.3596241,3.1467331,3.3884393,7.0062176,5.0958688,11.6685152,4.9425786,3.4736101-.1142109,6.7943026-.9422626,9.9241391-2.3573766,9.3668279-4.2352968,18.8435895-7.8881182,29.1243394-9.5375708,7.2749629-1.1671984,12.017231-6.127803,14.5370771-13.1069128.8238204-2.2818781,1.2300086-4.6475568,1.5774975-7.0174094.6915262-4.7161292,2.9851751-8.283774,7.1490443-10.6444989.9478126-.5373415,1.3182297-1.1593091,2.2012769-1.8000367,3.1642087-2.2957302,5.0458557-5.3871295,5.6108899-9.260621.5879337-4.0303135-.2290295-7.8166561-2.0207068-11.4313614ZM76.7759064,7.3762319c.0425883-.2969483.3848769-.153015.5886676-.1542535,5.8825249-.036098,10.3515526,2.4028316,13.2368391,7.5925918.1093259.1966353.1658408.426479.2221837.6471491.0291777.1140274-.0224523.2261742-.1778926.2734181-.2570777.0390794-.475592-.0881121-.6544879-.2734639-.3980639-.4126269-.8088847-.8170893-1.1682935-1.2622365-2.3540569-2.9158173-5.4005114-4.7136982-9.0009518-5.6406409-.8443061-.2173217-1.6757234-.4858778-2.5092851-.7431045-.2355026-.0726088-.5780091-.1520518-.5367796-.4394596ZM20.3168581,43.8441295c-.3223762.86892-.6238711,1.7506829-1.0206679,2.5859359-2.5993465,5.4715263-3.0851097,11.1687681-1.914024,17.0632874.2745934,1.3822267.4656329,2.7815163.6747099,4.1759897.0590491.3939128.183133.9485924-.2644165,1.0898194-.4624394.1458597-.4924025-.4535869-.6369263-.7495719-4.1722056-8.5446243-3.7487654-16.7633577,1.7912874-24.6012507.2099083-.2969483.5051595-.5402312.7871778-.7769091.145745-.1222836.3451725-.125632.5229333.0677468.2369417.3471277.2047539.7545715.0599263,1.1449525Zm1.6050985,40.1728249c7.5846624,9.5520651,17.3512169,15.4209901,29.348398,17.4529804,21.7467874,3.6832317,42.9289247-8.0009072,50.5446454-27.795715,6.1993052-16.1132273,1.2577472-34.9202257-12.1303009-46.1661435-19.3981486-16.2944969-47.5382908-14.6854079-64.9368547,3.7484099-1.4713192,1.5588178-2.7246517,3.3235822-4.2211237,5.1675602,6.8379802-13.6572808,25.9819294-27.0073847,49.3035023-22.1426897,20.9396513,4.3677172,36.3384185,23.5405574,36.1752438,45.2527776-.1679336,22.3437284-15.9590426,41.0010142-38.2860235,45.028484-20.375093,3.6753425-39.0633741-7.8863752-45.7974866-20.545664Zm36.0308461-24.9968606c.024545,0,.0490499-.0000459.0735949-.0000459,0-4.8684103.0719781-9.7380591-.0149816-14.604864-.1803408-10.0942227,8.4640001-13.3001081,15.644441-10.928329,1.4023111.4632191,2.7168771,1.0927549,3.7397696,2.2018388.9492173,1.029228,1.0763113,2.2828414.352993,3.3042718-.6970704.9842775-1.61453,1.1729777-3.0042218.5713296-1.0364751-.4487707-2.0287967-1.0100094-3.0858894-1.3985098-2.6337187-.9678569-5.6240024-.1271915-7.1157213,1.9171831-.642826.8809832-.8143831,1.9087893-.934058,2.9472367-.2311337,2.005708-.1424712,4.0217363-.1439103,6.0338657-.0060259,8.5196722.0086059,17.0393444-.0068114,25.5589707-.0093914,5.194714-2.7450055,9.1066427-7.6023158,10.3836028-4.191774,1.1019744-8.2534382.7026033-11.6503917-2.3799435-1.0185293-.9242366-1.1791699-2.2505504-.580893-3.1990052.6443569-1.0214763,1.6328772-1.309251,2.8509602-.7800281,1.3326035.5788519,2.5457098,1.4491479,4.0286852,1.6579382,4.3844762.6171515,7.4599765-1.2875097,7.450889-6.0562034-.0096093-5.0764209-.0021386-10.1528876-.0021386-15.2293085Zm22.4997649-5.4290068c2.7356542.0313277,4.9361456,2.2488992,4.9449695,4.9833551.00895,2.794818-2.2338603,5.034406-5.023369,5.0162882-2.7267902-.017705-4.9451013-2.2393128-4.9601689-4.9673472-.0152453-2.7602795,2.2910746-5.0637155,5.0385685-5.032296Zm-39.0065496,9.9991387c-2.7810805-.0179343-4.9982105-2.2960972-4.952658-5.0890345.0444172-2.7230807,2.3015612-4.930286,5.0201812-4.909141,2.708661.0210533,4.9471539,2.2637145,4.9682015,4.9775299.0214489,2.766334-2.2576198,5.0385799-5.0357247,5.0206456Zm64.4117771,20.4130601c-2.5451365,9.1618675-8.3133129,15.03171-17.6580841,17.2226781-.3540824.0830208-.7363849.0692604-1.1043996.0593071-.1902081-.0051831-.3416751-.1349431-.3464396-.3975364.0529372-.4169385.347271-.7004933.7145862-.8965783.8175767-.4364323,1.6280725-.8963948,2.4790582-1.2582919,5.5744307-2.3705865,9.716851-6.3120541,12.7501586-11.5000714.7112665-1.2165522,1.4964777-2.3904014,2.2649586-3.5727362.2170695-.3339636.4920986-.8313542.9206933-.6401772.4428309.1975068.067655.6660925-.0205316.983406Z"/>
</svg>