<svg version="1.1" id="katman_1" xmlns="http://www.w3.org/2000/svg" xmlns:xlink="http://www.w3.org/1999/xlink" x="0px" y="0px"
	 viewBox="0 0 256 256" enable-background="new 0 0 256 256" xml:space="preserve">
	<title>WebAilesi</title>
	<desc>WebAilesi'nin izni olmadan kopyalanması ve dağıtılması kesinlikle yasaktır.</desc>
<g>
	<path fill="#E13438" d="M108.2,0.6c-2.7,0.4-5.2,1.2-5.6,1.6c-0.4,0.4,0.7,3,2.4,5.7c4.4,6.8,10.2,21,17.2,42.5
		c6.4,18.1,12.4,38.6,20.1,53.9c2.8,4.4,7,11,11.8,11.1c8.3,0,14.3-11.6,29.6-57.6c5.3-15.6,10.4-30.4,11.4-33
		c1.5-3.7,1.7-4.9,0.8-5.9c-1.5-1.8-18-9.8-26-12.5c-14.5-5.1-20.7-6-39.4-6.3C121-0.1,110.9,0.2,108.2,0.6L108.2,0.6z M73.5,11.6
		c-16.8,8-32.2,19.9-43.7,33.7C3.4,77.3-6.4,121.1,4.2,160l1.5,5.4l4.6-5.9c11.5-14.9,21.3-30.4,28.4-44.9
		c12.9-23.1,19.5-43.5,25.7-62.1C71.5,30.9,76.8,17.1,80,11.4c1.2-2,2.1-3.7,2-3.7S78.1,9.4,73.5,11.6z M245.8,89.1
		c-20.3,25.1-38.1,52.8-50.1,83c-9.4,26.3-16.7,51.2-28.3,77.9l5.6-2.1c41.9-15.6,72.3-52.2,80.9-97.2c3.6-18.2,2.1-44.2-3.5-60.3
		l-1.6-4.7L245.8,89.1z M86.6,148.9c-5.5,6.4-8.2,13.9-11.4,21.7c-6.7,18-12.2,36.7-18.8,54.7l-2.6,7.1l5.5,3.6
		c22.3,14.2,50.5,21.6,76.3,19.9l9-0.6l-3-4.9c-4.2-7-8.4-17.9-18-46.4c-6-15.9-13.3-44.8-24.4-56.3C94.2,143,91.9,143.3,86.6,148.9
		z"/>
</g>
</svg>
