<?xml version="1.0" encoding="utf-8"?>
<!-- Generator: Adobe Illustrator 27.7.0, SVG Export Plug-In . SVG Version: 6.00 Build 0)  -->
<svg version="1.1" id="Layer_1" xmlns="http://www.w3.org/2000/svg" xmlns:xlink="http://www.w3.org/1999/xlink" x="0px" y="0px"
	 viewBox="0 0 512 512" style="enable-background:new 0 0 512 512;" xml:space="preserve">
<style type="text/css">
	.st0{fill:#E01E5A;}
	.st1{fill:#36C5F0;}
	.st2{fill:#2EB67D;}
	.st3{fill:#ECB22E;}
</style>
<g>
	<path class="st0" d="M107.9,323.6c0,29.7-24,53.8-53.8,53.8s-53.8-24-53.8-53.8c0-29.7,24-53.8,53.8-53.8h53.8V323.6z M134.8,323.6
		c0-29.7,24-53.8,53.8-53.8s53.8,24,53.8,53.8V458c0,29.7-24,53.8-53.8,53.8s-53.8-24-53.8-53.8V323.6z"/>
	<path class="st1" d="M188.6,107.7c-29.7,0-53.8-24-53.8-53.8s24-53.8,53.8-53.8s53.8,24,53.8,53.8v53.8H188.6z M188.6,135
		c29.7,0,53.8,24,53.8,53.8s-24,53.8-53.8,53.8H53.8C24,242.6,0,218.5,0,188.8S24,135,53.8,135H188.6z"/>
	<path class="st2" d="M404.1,188.8c0-29.7,24-53.8,53.8-53.8s53.8,24,53.8,53.8s-24,53.8-53.8,53.8h-53.8V188.8z M377.2,188.8
		c0,29.7-24,53.8-53.8,53.8c-29.7,0-53.8-24-53.8-53.8V54c0-29.7,24-53.8,53.8-53.8s53.8,24,53.8,53.8
		C377.2,54,377.2,188.8,377.2,188.8z"/>
	<path class="st3" d="M323.4,404.3c29.7,0,53.8,24,53.8,53.8c0,29.7-24,53.8-53.8,53.8c-29.7,0-53.8-24-53.8-53.8v-53.8H323.4z
		 M323.4,377.4c-29.7,0-53.8-24-53.8-53.8s24-53.8,53.8-53.8h134.8c29.7,0,53.8,24,53.8,53.8c0,29.7-24,53.8-53.8,53.8H323.4z"/>
</g>
</svg>
