<svg xmlns="http://www.w3.org/2000/svg" width="40" height="40" fill="none"><path fill="#494be4" fill-rule="evenodd" d="M4.008 17.375a5.859 5.859 0 0 1 1.647-4.41l3.629-3.72a7.462 7.462 0 0 1 2.532-1.706A4.238 4.238 0 0 1 13.882 7h12.236c.728 0 1.438.189 2.066.54a7.46 7.46 0 0 1 2.532 1.705l3.629 3.72a5.859 5.859 0 0 1 1.647 4.41 5.859 5.859 0 0 1-1.647 4.411l-8.75 8.97A7.36 7.36 0 0 1 20 32.993a7.36 7.36 0 0 1-5.595-2.239l-8.75-8.969a5.86 5.86 0 0 1-1.647-4.41Zm9.874-6.513H25.43c.984 0 1.927.4 2.623 1.113l3.629 3.72a1.965 1.965 0 0 1 0 2.73 1.851 1.851 0 0 1-2.664 0l-2.525-2.588a3.665 3.665 0 0 0-2.623-1.114h-2.952c-.31 0-.465.384-.246.609l4.39 4.5a3.87 3.87 0 0 1 0 5.378l-2.745 2.815a3.646 3.646 0 0 1-5.246 0l-8.75-8.97a1.965 1.965 0 0 1 0-2.73 1.851 1.851 0 0 1 2.663 0l7.378 7.562a1.852 1.852 0 0 0 2.664 0 1.965 1.965 0 0 0 0-2.731l-7.54-7.729a1.722 1.722 0 0 1 .001-2.394.548.548 0 0 1 .396-.171Z" clip-rule="evenodd"/></svg>