<?xml version="1.0" encoding="utf-8"?>
<!-- Generator: Adobe Illustrator 26.1.0, SVG Export Plug-In . SVG Version: 6.00 Build 0)  -->
<svg version="1.1" id="Capa_1" xmlns="http://www.w3.org/2000/svg" xmlns:xlink="http://www.w3.org/1999/xlink" x="0px" y="0px"
	 viewBox="0 0 490 490" style="enable-background:new 0 0 490 490;" xml:space="preserve">
<style type="text/css">
	.st0{fill:url(#SVGID_1_);}
</style>
<linearGradient id="SVGID_1_" gradientUnits="userSpaceOnUse" x1="0" y1="245.0005" x2="490" y2="245.0005">
	<stop  offset="0" style="stop-color:#00C6FF"/>
	<stop  offset="1" style="stop-color:#0072FF"/>
</linearGradient>
<path class="st0" d="M464,58.2c-24.5-14.9-57.5-22.8-95.5-22.8c-58.3,0-122.5,18.4-180.2,50.4l-0.4-0.2c0,0-0.1,0.3-0.1,0.5
	c-17.5,9.7-34.4,20.5-50.3,32.6C43.8,190,17.6,274.6,39.7,319.8C15.5,361.1,0.6,403.9,0,454.6C46.5,365.9,74.5,294,226.1,173
	c-43.3,9.3-118.2,53.3-168.6,120.2c-4.8-39.1,26.1-102.2,95-154.6c8.7-6.6,17.8-12.8,27-18.7c-7.2,22.5-4.9,16.9-19.9,48.4
	c22.2-21,36.8-33.9,58.7-69.9c28.4-14,58-24.4,87.3-30.7c-4.9,16.1-14.1,43.3-26.6,64.9c0,0,31.7-6.8,57.9-5.3
	c-14.3,15.8-27.2,32.9-40.3,50.4c-17.9,23.9-36.4,48.7-60.1,71.7c-2.9,2.8-5.6,5.3-8.3,7.9c-36.4-3.5-60.5,10.1-83,34.2
	c17.8-8.3,41.6-15.1,56.6-11c-27.6,22.5-71,52.1-106.7,49.7c-6.8,10.3-7.2,10.6-14.6,23.1c57.9,14.4,130.6-44.4,173.3-86
	c25.1-24.4,44.2-49.9,62.7-74.6c38-50.9,70.9-94.8,143.8-111.5l29.7-6.8L464,58.2z"/>
</svg>
