<svg xmlns="http://www.w3.org/2000/svg" width="512pt" height="512pt" preserveAspectRatio="xMidYMid meet" version="1.0" viewBox="0 0 512 512"><style>path,rect{fill:#000}@media (prefers-color-scheme:dark){path,rect{fill:#000}rect{transform:scale(1,-1)}}</style><g stroke="none" transform="translate(0.000000,512.000000) scale(0.100000,-0.100000)"><path fill="#000" d="M933 3908 c-150 -150 -276 -281 -279 -291 -5 -16 51 -77 272 -298 l279 -279 177 0 c98 0 178 3 178 7 0 4 -89 97 -197 206 -157 157 -195 200 -183 207 9 6 257 10 613 10 l597 0 0 134 c0 113 -2 135 -16 140 -9 3 -283 6 -610 6 -327 0 -594 3 -594 8 0 4 90 97 199 206 110 110 198 203 195 208 -3 4 -84 8 -181 8 l-176 0 -274 -272z"/><path fill="#000" d="M3560 4173 c0 -4 88 -96 196 -204 115 -115 194 -201 190 -208 -5 -8 -178 -11 -611 -11 -540 0 -603 -2 -609 -16 -3 -9 -6 -67 -6 -129 0 -103 2 -115 19 -125 13 -6 224 -10 615 -10 328 0 596 -3 596 -8 0 -4 -90 -97 -200 -207 -110 -110 -200 -203 -200 -207 0 -5 82 -8 182 -8 l182 0 285 286 285 285 -285 285 -284 284 -177 0 c-98 0 -178 -3 -178 -7z"/><path fill="#000" d="M640 2317 l0 -1163 28 -27 28 -27 1865 0 1865 0 27 28 27 28 0 1156 c0 636 -4 1159 -8 1162 -5 3 -41 -27 -80 -67 l-72 -72 -2 -1030 -3 -1030 -1755 0 -1755 0 -3 1030 -2 1030 -72 72 c-40 40 -76 73 -80 73 -5 0 -8 -523 -8 -1163z"/><path fill="#000" d="M1290 2972 c0 -4 84 -92 188 -195 l187 -187 895 0 895 0 188 188 c103 103 187 191 187 195 0 4 -75 7 -168 7 l-168 0 -69 -70 -69 -70 -796 0 -796 0 -69 70 -69 70 -168 0 c-93 0 -168 -3 -168 -8z"/><rect width="105.704" height="113.393" x="965.825" y="-1995.056" fill="#000" ry="0"/><rect width="105.704" height="113.393" x="968.171" y="-1775.339" fill="#000" ry="0"/><rect width="105.704" height="113.393" x="1544.743" y="-1770.834" fill="#000" ry="0"/><rect width="105.704" height="113.393" x="1201.284" y="-2214.654" fill="#000" ry="0"/><rect width="105.704" height="113.393" x="1529.886" y="-2211.156" fill="#000" ry="0"/><rect width="105.704" height="113.393" x="1766.14" y="-2213.186" fill="#000" ry="0"/><rect width="105.704" height="113.393" x="1767.395" y="-1976.642" fill="#000" ry="0"/><rect width="105.704" height="113.393" x="2112.529" y="-2219.311" fill="#000" ry="0"/><rect width="105.704" height="113.393" x="2677.813" y="-2214.965" fill="#000" ry="0"/><rect width="105.704" height="113.393" x="2672.628" y="-1988.655" fill="#000" ry="0"/><rect width="105.704" height="113.393" x="2673.453" y="-1762.207" fill="#000" ry="0"/><rect width="105.704" height="113.393" x="2898.873" y="-2216.276" fill="#000" ry="0"/><rect width="105.704" height="113.393" x="3249.094" y="-2212.257" fill="#000" ry="0"/><rect width="105.704" height="113.393" x="3251.061" y="-1984.478" fill="#000" ry="0"/><rect width="105.704" height="113.393" x="3251.56" y="-1774.923" fill="#000" ry="0"/><rect width="105.704" height="113.393" x="3470.185" y="-2214.272" fill="#000" ry="0"/><rect width="105.704" height="113.393" x="3829.944" y="-2215.038" fill="#000" ry="0"/><rect width="105.704" height="113.393" x="4044.099" y="-2214.53" fill="#000" ry="0"/><rect width="105.704" height="113.393" x="4041.513" y="-1999.062" fill="#000" ry="0"/><rect width="105.704" height="113.393" x="4043.404" y="-1785.199" fill="#000" ry="0"/><rect width="105.704" height="113.393" x="3830.52" y="-1781.447" fill="#000" ry="0"/></g></svg>