<?xml version="1.0" encoding="UTF-8" standalone="no"?>
<!-- Created with Inkscape (http://www.inkscape.org/) -->

<svg
   width="485.96609"
   height="485.96609"
   viewBox="0 0 485.96609 485.96609"
   version="1.1"
   id="svg5"
   inkscape:version="1.2 (dc2aedaf03, 2022-05-15)"
   sodipodi:docname="drawing.svg"
   xml:space="preserve"
   xmlns:inkscape="http://www.inkscape.org/namespaces/inkscape"
   xmlns:sodipodi="http://sodipodi.sourceforge.net/DTD/sodipodi-0.dtd"
   xmlns="http://www.w3.org/2000/svg"
   xmlns:svg="http://www.w3.org/2000/svg"><sodipodi:namedview
     id="namedview7"
     pagecolor="#505050"
     bordercolor="#ffffff"
     borderopacity="1"
     inkscape:showpageshadow="0"
     inkscape:pageopacity="0"
     inkscape:pagecheckerboard="1"
     inkscape:deskcolor="#505050"
     inkscape:document-units="px"
     showgrid="false"
     inkscape:zoom="0.921875"
     inkscape:cx="1099.9322"
     inkscape:cy="383.45763"
     inkscape:window-width="3440"
     inkscape:window-height="1371"
     inkscape:window-x="0"
     inkscape:window-y="0"
     inkscape:window-maximized="1"
     inkscape:current-layer="svg5" /><defs
     id="defs2" /><g
     inkscape:label="Layer 1"
     inkscape:groupmode="layer"
     id="layer1"
     transform="translate(858.03389,254.91525)" /><circle
     style="fill:#4285f4;stroke-width:2.05;fill-opacity:1"
     id="path353"
     cx="242.98305"
     cy="242.98305"
     r="242.98305" /><path
     d="m 242.98302,221.23546 c -18.05464,0 -32.82654,14.77193 -32.82654,32.82656 0,18.05459 14.7719,32.82653 32.82654,32.82653 18.05453,0 32.82654,-14.77194 32.82654,-32.82653 0,-18.05463 -14.77201,-32.82656 -32.82654,-32.82656 z m 98.47964,32.82656 c 0,-54.32796 -44.15167,-98.47968 -98.47964,-98.47968 -54.32792,0 -98.47966,44.15172 -98.47966,98.47968 0,36.43747 19.86004,68.11508 49.23979,85.18489 l 16.41333,-28.55909 c -19.53182,-11.4893 -32.82657,-32.33415 -32.82657,-56.6258 0,-36.27336 29.37978,-65.65312 65.65311,-65.65312 36.27334,0 65.65309,29.37976 65.65309,65.65312 0,24.29165 -13.29475,45.1365 -32.82655,56.6258 l 16.41333,28.55909 c 29.37976,-17.06981 49.23977,-48.74742 49.23977,-85.18489 z M 242.98302,89.929237 c -90.60129,0 -164.132776,73.531473 -164.132776,164.132783 0,60.72911 32.990696,113.57986 81.902286,141.97484 l 16.41326,-28.39498 c -39.06361,-22.81445 -65.48898,-64.99657 -65.48898,-113.57986 0,-72.5467 58.75954,-131.30623 131.30621,-131.30623 72.54677,0 131.30619,58.75953 131.30619,131.30623 0,48.58329 -26.42536,90.76541 -65.6531,113.57986 l 16.41332,28.39498 c 49.07571,-28.39498 82.06642,-81.24573 82.06642,-141.97484 0,-90.60131 -73.53153,-164.132783 -164.13283,-164.132783 z"
     id="path3"
     style="fill:#fbfcfe;fill-opacity:1;stroke-width:16.4132" /></svg>
