<svg xmlns="http://www.w3.org/2000/svg" xml:space="preserve" width="792" height="464" style="fill-rule:evenodd;clip-rule:evenodd;stroke-linejoin:round;stroke-miterlimit:1.41421"><path d="M643.711 144.938c-9.862 0-16.864-7.217-16.864-16.903 0-9.694 7.002-16.912 16.864-16.912 9.939 0 16.941 7.218 16.941 16.912 0 9.686-7.002 16.903-16.941 16.903Zm-.03-50.354c-19.527 0-33.393 14.277-33.393 33.451 0 19.165 13.866 33.443 33.393 33.443 19.654 0 33.521-14.278 33.521-33.443 0-19.174-13.867-33.451-33.521-33.451Zm-.029 84.227c-29.633 0-50.687-21.681-50.687-50.776 0-29.103 21.054-50.775 50.687-50.775 29.828 0 50.873 21.671 50.873 50.775 0 29.095-21.045 50.776-50.873 50.776Zm-.039-120.323c-40.581 0-69.401 29.691-69.401 69.547 0 39.847 28.82 69.529 69.401 69.529 40.845 0 69.675-29.682 69.675-69.529 0-39.856-28.83-69.547-69.675-69.547ZM157.492 182.836l-20.839-4.965c-18.969-4.358-28.605-9.333-28.605-23.013 0-15.551 15.855-21.779 30.162-21.779 14.542 0 25.167 7.266 31.425 18.577a.886.886 0 0 0 .088.156c.127.245.274.48.401.725l.03-.02c1.968 2.977 5.278 4.965 8.843 4.965 6.071 0 10.468-4.387 10.468-10.458 0-2.321-.499-4.779-1.586-6.63-10.674-18.146-28.272-25.97-48.425-25.97-27.361 0-53.802 13.68-53.802 43.842 0 27.684 27.371 35.772 37.32 38.25l19.899 4.671c15.238 3.731 27.675 8.716 27.675 23.317 0 16.794-17.412 24.266-34.206 24.266-17.099 0-29.761-8.745-38.486-21.652h-.01c-1.939-2.83-4.945-4.818-8.627-4.818-5.934 0-10.713 4.877-10.498 10.802.098 2.418.901 4.465 2.135 6.218 13.67 20.457 33.442 28.105 55.486 28.105 28.301 0 56.602-13.063 56.602-44.782 0-20.516-15.238-35.136-35.45-39.807Zm139.125 65.846c-33.579 0-54.731-25.187-54.731-57.836 0-32.659 21.152-57.846 54.731-57.846 33.903 0 55.045 25.187 55.045 57.846 0 32.649-21.142 57.836-55.045 57.836Zm0-134.337c-45.086 0-77.118 32.649-77.118 76.501 0 43.842 32.032 76.491 77.118 76.491 45.399 0 77.431-32.649 77.431-76.491 0-43.852-32.032-76.501-77.431-76.501Zm218.368 118.473a42.26 42.26 0 0 1-2.379 2.154 49.547 49.547 0 0 1-3.82 3.183c-8.754 6.336-19.81 10.008-32.737 10.008-33.589 0-54.731-25.187-54.731-57.836 0-32.659 21.142-57.846 54.731-57.846 33.893 0 55.035 25.187 55.035 57.846 0 17.049-5.768 32.042-16.099 42.491Zm-50.188 82.915c2.507 0 5.102-.167 7.795-.5 4.975-.626 9.509-.901 13.612-.901 19.077.108 28.791 5.651 34.647 12.055 5.846 6.444 8.099 15.179 8.089 22.602.01 3.555-.549 6.737-1.166 8.647-2.918 8.852-8.813 14.875-17.842 19.409-8.96 4.446-20.917 6.718-33.422 6.698-4.476 0-9.029-.284-13.524-.822-8.5-.98-19.742-4.632-27.89-10.998-4.103-3.172-7.482-6.933-9.861-11.389-2.36-4.475-3.829-9.665-3.839-16.304v-.735c.255-12.241 5.876-20.369 12.035-26.274 3.046-2.879 6.18-5.023 8.461-6.385.363-.215.705-.411 1.019-.587 6.042 3.574 13.543 5.513 21.886 5.484Zm11.252-201.907c-45.085 0-77.127 32.649-77.127 76.501 0 29.633 14.64 54.134 38.054 66.914-.313.313-.617.636-.91.959-6.052 6.63-9.147 15.12-9.157 23.709a33.446 33.446 0 0 0 1.959 11.398 71.207 71.207 0 0 0-10.371 8.079c-8.95 8.334-18.576 22.347-18.86 41.737-.01.45-.01.823-.01 1.107-.01 9.988 2.36 18.997 6.404 26.548 6.082 11.369 15.551 19.281 25.324 24.56 9.832 5.288 20.085 8.098 29.026 9.195 5.327.637 10.733.979 16.129.979 15.022-.019 30.004-2.555 43.039-8.94 12.975-6.287 24.129-17.108 28.947-32.287 1.43-4.514 2.193-9.636 2.213-15.296-.02-11.497-3.32-25.54-13.651-37.134-10.331-11.634-27.42-19.4-50.854-19.292-5.092 0-10.517.353-16.285 1.067a42.618 42.618 0 0 1-5.122.333c-7.178-.048-10.781-2.036-12.926-4.064-2.115-2.066-3.173-4.798-3.202-7.99-.01-3.252 1.273-6.669 3.437-9 2.213-2.311 4.965-3.878 9.763-3.937.431 0 .892.01 1.362.049 3.075.216 6.061.324 8.96.324 23.982.048 42.021-7.384 54.291-17.608 12.309-10.223 18.812-22.66 21.887-32.482l-.04-.01c3.34-8.823 5.151-18.557 5.151-28.918 0-43.852-32.032-76.501-77.431-76.501Z" style="fill:#50bd37;fill-rule:nonzero"/></svg>