<svg xmlns="http://www.w3.org/2000/svg" xmlns:xlink="http://www.w3.org/1999/xlink" version="1.1" id="Layer_1" x="0px" y="0px" style="enable-background:new 0 0 512 512;" xml:space="preserve" viewBox="31.65 0 448.68 511.99">
<g transform="translate(0.000000,700.000000) scale(0.100000,-0.100000)">
	<path d="M2693.4,6998.4c-1.1-1.1-66.6-5.5-145.2-9.8c-147.4-7.6-214-13.1-278.4-24c-20.7-3.3-55.7-8.7-76.4-10.9   c-20.7-3.3-55.7-9.8-76.4-15.3s-57.9-13.1-80.8-17.5c-51.3-7.6-221.6-64.4-323.2-108.1c-484.8-205.3-785-489.1-933.5-885.5   c-27.3-73.2-68.8-254.4-76.4-337.4c-6.6-61.1-6.6-343.9-1.1-376.7c2.2-15.3,7.6-54.6,12-87.3c24-192.2,101.5-392,209.6-543.7   c232.6-326.4,642-536.1,1460.8-750.1c234.7-61.1,431.3-140.8,504.4-205.3c44.8-39.3,79.7-103.7,81.9-152.9   c5.5-95-34.9-159.4-127.7-203.1c-124.5-57.9-420.3-65.5-684.6-16.4c-105.9,18.6-286.1,78.6-400.7,132.1   c-127.7,59-395.2,235.8-424.7,280.6c-4.4,6.6-22.9,26.2-41.5,42.6l-34.9,31.7l-245.7-250c-135.4-136.5-347.2-351.6-470.6-478.2   L316.5,2784l62.2-60c318.8-303.5,671.5-505.5,1177-674.7c121.2-41.5,277.3-85.2,342.8-96.1c15.3-3.3,44.8-9.8,65.5-15.3   c37.1-8.7,149.6-28.4,229.3-38.2c196.5-26.2,673.6-26.2,878.9,0c777.4,100.4,1334.2,494.6,1517.6,1071.1   c72.1,228.2,85.2,555.7,32.8,857.1c-12,69.9-55.7,187.8-105.9,288.2c-149.6,300.2-357,491.3-747.9,686.7   c-158.3,79.7-529.5,208.5-696.6,242.4c-101.5,19.7-378.9,110.3-472.7,152.9c-147.4,67.7-204.2,133.2-202,236.9   c1.1,87.3,79.7,166,196.5,199.8c64.4,18.6,322.1,26.2,407.2,10.9c144.1-24,361.4-93.9,474.9-150.7   c79.7-41.5,220.5-145.2,312.3-231.5l79.7-74.2l473.8,476c424.7,426.9,472.8,478.2,459.6,494.6c-41.5,51.3-62.2,75.3-92.8,105.9   c-275.1,276.2-572.1,446.5-1014.3,583c-277.3,86.3-481.5,123.4-775.2,138.7c-65.5,4.4-143,8.7-171.4,10.9   C2720.7,7000.5,2695.6,7000.5,2693.4,6998.4z"/>
</g>
</svg>