<?xml version="1.0" encoding="utf-8"?>
<!-- Generator: Adobe Illustrator 21.0.0, SVG Export Plug-In . SVG Version: 6.00 Build 0)  -->
<svg version="1.1" xmlns="http://www.w3.org/2000/svg" xmlns:xlink="http://www.w3.org/1999/xlink" x="0px" y="0px"
	 viewBox="0 0 1024 1024" style="enable-background:new 0 0 1024 1024;" xml:space="preserve">
<style type="text/css">
	.st0{fill:#055BB5;}
	.st1{fill:#FFFFFF;}
</style>
<g id="Guides">
</g>
<g id="Icon">
	<circle class="st0" cx="512" cy="512" r="512"/>
	<path class="st1" d="M381.4,472c7.1,9.3,11,24.4,11,42.1c0,20.1-6.4,36.6-17.7,45.7c-8.6,6.9-21.6,10.7-37.1,10.7
		c-22,0-39.4-7.2-48.3-20.1c-6.7-9.4-10-22-10-37.3c0-22,6-38.7,17.4-47.6c8.9-7.2,23-11.2,39.2-11.2
		C356.3,454.2,372.7,460.6,381.4,472 M311.5,485.2c-3.6,5.7-5.3,14.8-5.3,27c0,26.8,9.3,39,29.9,39c20.3,0,29.6-12.2,29.6-38.7
		c0-26.8-9.1-38.8-29.6-38.8C324.9,473.7,316.1,477.8,311.5,485.2 M431.4,570.4H407V455.8h57.2c20.1,0,27.1,2.1,34.7,10.5
		c6.7,7.2,10.3,16.7,10.3,26.8c0,12-4.8,23.2-12.7,29.9c-6.7,5.7-12.9,7.4-25.9,7.4h-39.2V570.4z M464.6,509.9
		c6.5,0,10.3-0.9,12.9-3.3c3.1-2.6,5-8.1,5-14.4c0-7.6-3.1-13.1-8.4-14.9c-1.9-0.7-5-1-8.9-1h-33.7v33.7H464.6z M616.4,455.8H592
		v46.9h-44.2v-46.9h-24.4v114.6h24.4v-47.2H592v47.2h24.4V455.8z M733.3,472c7.1,9.3,11,24.4,11,42.1c0,20.1-6.4,36.6-17.7,45.7
		c-8.6,6.9-21.6,10.7-37.1,10.7c-22,0-39.3-7.2-48.3-20.1c-6.7-9.4-10-22-10-37.3c0-22,6-38.7,17.4-47.6c8.9-7.2,23-11.2,39.2-11.2
		C708.2,454.2,724.5,460.6,733.3,472 M663.4,485.2c-3.6,5.7-5.3,14.8-5.3,27c0,26.8,9.3,39,29.9,39c20.3,0,29.6-12.2,29.6-38.7
		c0-26.8-9.1-38.8-29.6-38.8C676.8,473.7,668,477.8,663.4,485.2 M164.2,570.4h61.8c17.3,0,24.7-1.1,30.5-4.7
		c9.1-5.6,14.9-17.2,14.9-29.6c0-10.2-3.5-20.5-8.8-25.7c-6.8-7-16.1-9.6-33.3-9.6h-18.7c-8.4,0-14.6-0.4-18.1-1.9
		c-4.2-1.9-6.7-6.1-6.7-11.4c0-6.1,3-10.7,7.9-11.9c3.7-0.9,7.9-0.9,19-1h55.3v-20.8H207c-13.7,0-19.8,0.5-25,2.5
		c-12.1,4.2-20.3,17.2-20.3,32c0,10.2,4,19.6,11,25.8c6.1,5.3,15.2,7.7,29.2,7.7h24.9c5.6,0,10.2,0.7,12.6,2.1
		c4.7,2.3,7.5,7,7.5,12.4c0,4.6-2.1,8.4-5.8,10.7c-3,1.9-8.1,2.8-17.3,2.8h-59.8V570.4z M755.2,570.4H817c17.3,0,24.7-1.1,30.5-4.7
		c9.1-5.6,14.9-17.2,14.9-29.6c0-10.2-3.5-20.5-8.7-25.7c-6.8-7-16.1-9.6-33.3-9.6h-18.7c-8.4,0-14.6-0.4-18.1-1.9
		c-4.2-1.9-6.7-6.1-6.7-11.4c0-6.1,3-10.7,7.9-11.9c3.7-0.9,7.9-0.9,19-1H859v-20.8h-60.9c-13.7,0-19.8,0.5-25,2.5
		c-12.1,4.2-20.3,17.2-20.3,32c0,10.2,4,19.6,11,25.8c6.1,5.3,15.2,7.7,29.2,7.7h24.9c5.6,0,10.2,0.7,12.6,2.1
		c4.7,2.3,7.5,7,7.5,12.4c0,4.6-2.1,8.4-5.8,10.7c-3,1.9-8.1,2.8-17.3,2.8h-59.7V570.4z"/>
</g>
</svg>
