<svg xmlns="http://www.w3.org/2000/svg" xmlns:xlink="http://www.w3.org/1999/xlink" viewBox="0 0 48 48"><defs><linearGradient xlink:href="#a" id="b" x1="-423.09" x2="-424.98" y1="519.48" y2="227.95" gradientUnits="userSpaceOnUse"/><linearGradient xlink:href="#a" id="c" x1="-206.67" x2="-208.33" y1="315.36" y2="23.362" gradientTransform="matrix(.99785 0 0 1 -218.94 203)" gradientUnits="userSpaceOnUse"/><linearGradient id="a"><stop stop-color="#f16419"/><stop offset="1" stop-color="#feb600"/></linearGradient></defs><g transform="matrix(-.099 0 0 .099 -17.961 -9.608)"><path fill="#f88d0c" d="M-201.476 163.771a8.317 8.317 0 0 1 8.336 8.336v161.409l-462.61 1V213.32a8.317 8.317 0 0 1 8.336-8.336h250.767c8.498.75 9.59-.375 13.787-5.98 5.955-7.969 14.945-21.443 20.805-29.216 4.705-6.805 5.468-6.013 13.27-6.013z" color="#000"/><rect width="463.85" height="295.13" x="-655.5" y="225.84" fill="url(#b)" rx="9.63"/><rect width="462.85" height="295.13" x="-654.92" y="225.8" fill="none" stroke="url(#c)" stroke-linecap="round" stroke-width="2" rx="9.63"/><path fill="#feebd8" d="M-420.65 273.333c9.625 2.648 18.006 10.403 20.14 20.719 4.325 12.541 7.944 25.33 12.1 37.93 15.815.363 31.716-.771 47.475.654 16.89 3.87 24.975 29.608 10.827 41.379-11.505 10.053-24.183 18.594-36.226 27.978 4.41 15.946 10.657 31.456 13.725 47.736 1.13 18.813-23.703 33.362-37.936 20.297-11.095-8.25-22.134-16.572-33.2-24.85-13.202 9.355-25.47 20.209-39.378 28.443-15.788 7.13-35.971-9.355-31.307-26.945 3.717-15.088 8.904-29.782 13.272-44.695-12.65-9.981-26.205-18.842-38.176-29.681-9.555-10.68-6.007-28.168 5.102-36.068 9.965-6.75 22.261-3.564 33.47-4.277h22.12c5.2-15.583 9.455-31.558 15.25-46.878 1.837-6.984 13.71-11.785 22.756-11.785zm-3.11 41.902c-4.254 12.63-6.714 26.058-12.24 38.12-7.604 10.053-20.636 7.522-31.476 7.798h-20.325c10.883 8.41 22.43 15.932 32.847 24.967 1.131.785 3.04 9.006 2.064 3.826 4.947 8.628-1.046 18.012-3.053 26.655a50507.41 50507.41 0 0 0-6.7 21.838c10.657-7.55 20.31-16.935 31.66-23.22 8.128-2.518 17.16-.524 23.209 5.66 7.618 5.848 15.236 11.697 22.854 17.56-3.576-12.978-8.72-25.636-11.222-38.847-.297-8.57 4.537-16.382 11.844-20.223a26661.05 26661.05 0 0 0 24.55-18.216c-13.3-.349-26.712.713-39.956-.596-8.014-1.906-13.102-9.326-14.643-17.256-3.152-9.355-6.304-18.71-9.455-28.08" color="#000"/></g></svg>