<svg xmlns="http://www.w3.org/2000/svg" viewBox="0 0 100 100"><style>@media (prefers-color-scheme:dark){svg{fill:#fff}}</style><path fill="#094c75" d="M67.78 71.526c0-2.72.736-7.634 1.636-10.917 2.076-7.583 3.222-16.976 2.071-16.976-.485 0-3.994 3.173-7.797 7.051C49.24 65.42 33.737 73.752 20.774 73.752c-7.4 0-12.43-1.87-17.287-6.43C.543 64.557.012 63.192.012 58.385c0-4.945.486-6.109 3.783-9.055 2.988-2.67 4.875-3.38 8.978-3.38 3.163.711 5.033.664 6.064 1.917 1.045 1.232 1.406 5.263.143 7.624-.675 1.26-2.436 2.043-4.597 2.043-2.04 0-3.204-.483-2.787-1.158 1.314-2.126-.56-3.567-2.966-2.28-2.907 1.556-2.957 7.07-.088 9.666 4.034 3.651 15.19 5.024 21.902 2.695 7.25-2.517 16.739-8.579 24.308-15.532l6.657-6.115-8.688-.05c-9.098-.052-15.018-1.138-34.174-6.27-6.371-1.707-12.497-3.184-13.612-3.281-1.264-.111-2.093-1.141-2.027-2.733.112-2.688 1.572-4.688 3.299-5.443 1.037-.453 8.229-1.139 15.854-3.167 29.699-7.899 31.502-6.78 51.287-1.772 6.461 1.636 13.942 3.415 17.257 3.475 5.106.092 6.211.515 7.24 2.77.667 1.463 1.214 2.858 1.214 3.1s-2.894 1.764-6.43 3.383c-12.985 5.945-17.083 9.094-12.855 15.13 1.753 2.504 1.718 2.77-.58 4.379-1.345.942-2.457 2.856-2.47 4.254-.038 3.777-2.425 11.884-5.894 15.08l-3.05 2.808zm6.634-34.658c5.17-1.44 8.302-3.07 14.729-6.501-5.293-1.549-18.571-3.724-18.571-3.724-9.797-1.965-8.77-1.865-9.214.297a14.42 14.42 0 0 1-1.872 4.596c-2.251 3.528-10.49 4.271-15.214 2.01-1.483-.71-2.972-3.416-2.95-5.337.028-2.705-1.506-3.336-2.488-2.975-.796.292-3.384.33-9.07 1.864-18.786 5.068-21.356 4.487-9.112 6.223 1.473.209 9.253 2.382 13.052 3.394 9.319 2.483 11.065 2.665 23.126 2.415 8.386-.175 11.89-.676 17.584-2.262zM3.059 14.916c.233-2.402.365-2.923 7.042-4.268 3.824-.77 13.254-3.267 20.956-5.548C48.76-.144 53.79-.157 72.149 4.995c7.923 2.223 16.798 4.047 19.723 4.054 4.567.01 6.942 2.029 6.942 2.029 2.101 4.825 1.718 5.158-6.485 5.158-5.714 0-10.641-.963-18.245-3.566C68.3 10.69 60.06 8.832 55.558 8.492c-8.216-.621-8.204-.623-33.595 6.364-4.46 1.227-10.62 2.598-13.691 3.047l-5.582.816z"/></svg>