<svg xmlns="http://www.w3.org/2000/svg" xmlns:xlink="http://www.w3.org/1999/xlink" width="256" height="256"><defs><linearGradient id="h"><stop offset="0" style="stop-color:#a2a2a2;stop-opacity:1"/><stop offset="1" style="stop-color:#4e4e4e;stop-opacity:1"/></linearGradient><linearGradient id="i"><stop offset="0" style="stop-color:#fff;stop-opacity:1"/><stop offset="1" style="stop-color:#fff;stop-opacity:0"/></linearGradient><linearGradient id="g"><stop offset="0" style="stop-color:#ababab;stop-opacity:1"/><stop offset=".194" style="stop-color:#f6f6f6;stop-opacity:1"/><stop offset=".397" style="stop-color:#b0b0b0;stop-opacity:1"/><stop offset="1" style="stop-color:#585858;stop-opacity:1"/></linearGradient><linearGradient id="d"><stop offset="0" style="stop-color:#ababab;stop-opacity:1"/><stop offset=".194" style="stop-color:#f6f6f6;stop-opacity:1"/><stop offset=".397" style="stop-color:#b0b0b0;stop-opacity:1"/><stop offset="1" style="stop-color:#585858;stop-opacity:1"/></linearGradient><linearGradient id="e"><stop offset="0" style="stop-color:#a2a2a2;stop-opacity:1"/><stop offset="1" style="stop-color:#4e4e4e;stop-opacity:1"/></linearGradient><linearGradient id="f"><stop offset="0" style="stop-color:#fff;stop-opacity:1"/><stop offset="1" style="stop-color:#fff;stop-opacity:0"/></linearGradient><linearGradient id="a"><stop offset="0" style="stop-color:#ababab;stop-opacity:1"/><stop offset=".194" style="stop-color:#f6f6f6;stop-opacity:1"/><stop offset=".397" style="stop-color:#b0b0b0;stop-opacity:1"/><stop offset="1" style="stop-color:#585858;stop-opacity:1"/></linearGradient><linearGradient id="b"><stop offset="0" style="stop-color:#a2a2a2;stop-opacity:1"/><stop offset="1" style="stop-color:#4e4e4e;stop-opacity:1"/></linearGradient><linearGradient id="c"><stop offset="0" style="stop-color:#fff;stop-opacity:1"/><stop offset="1" style="stop-color:#fff;stop-opacity:0"/></linearGradient><linearGradient xlink:href="#a" id="j" x1="10.116" x2="38.013" y1="17.512" y2="17.512" gradientTransform="translate(0 -1.714)" gradientUnits="userSpaceOnUse"/><linearGradient xlink:href="#b" id="k" x1="24" x2="24" y1="15.149" y2="13.285" gradientUnits="userSpaceOnUse"/><linearGradient xlink:href="#c" id="l" x1="16.071" x2="16.19" y1="19.5" y2="24.04" gradientTransform="translate(-.143 .929)" gradientUnits="userSpaceOnUse"/><linearGradient xlink:href="#d" id="m" x1="10.116" x2="38.013" y1="17.512" y2="17.512" gradientTransform="translate(0 -1.714)" gradientUnits="userSpaceOnUse"/><linearGradient xlink:href="#e" id="n" x1="24" x2="24" y1="15.149" y2="13.285" gradientUnits="userSpaceOnUse"/><linearGradient xlink:href="#f" id="o" x1="16.071" x2="16.19" y1="19.5" y2="24.04" gradientTransform="translate(-.143 .929)" gradientUnits="userSpaceOnUse"/><linearGradient xlink:href="#g" id="p" x1="10.116" x2="38.013" y1="17.512" y2="17.512" gradientTransform="translate(0 -1.714)" gradientUnits="userSpaceOnUse"/><linearGradient xlink:href="#h" id="q" x1="24" x2="24" y1="15.149" y2="13.285" gradientUnits="userSpaceOnUse"/><linearGradient xlink:href="#i" id="r" x1="16.071" x2="16.19" y1="19.5" y2="24.04" gradientTransform="translate(-.143 .929)" gradientUnits="userSpaceOnUse"/></defs><g transform="matrix(8.59688 0 0 6.30047 -78.796 85.965)"><path d="M23.941 8.037c-7.625 0-13.825 2.13-13.825 5.475v6.558c0 3.345 6.2 5.648 13.825 5.648 7.625 0 14.072-2.303 14.072-5.648v-6.558c0-3.345-6.447-5.475-14.072-5.475z" style="color:#000;display:block;overflow:visible;visibility:visible;fill:url(#j);fill-opacity:1;fill-rule:nonzero;stroke:none;stroke-width:.769;marker:none"/><ellipse cx="24" cy="14.071" rx="12.857" ry="5.5" style="color:#000;display:block;overflow:visible;visibility:visible;fill:#c3c3c3;fill-opacity:1;fill-rule:nonzero;stroke:url(#k);stroke-width:1.00493;stroke-linecap:butt;stroke-linejoin:miter;stroke-miterlimit:10;stroke-dasharray:none;stroke-dashoffset:0;stroke-opacity:1;marker:none" transform="matrix(1.0373 0 0 .95462 -.895 -.076)"/><path d="m13.643 18 .256 5.876 4.672 1.084-.142-5.603s2.071-.04 5.428-.254c-5.216-.233-11.183-2.725-13.214-4.18 1.417 2.093 3 3.077 3 3.077z" style="color:#000;display:block;overflow:visible;visibility:visible;opacity:.493671;fill:url(#l);fill-opacity:1;fill-rule:nonzero;stroke:none;stroke-width:1;marker:none"/></g><g transform="matrix(8.59688 0 0 6.30047 -78.967 22.701)"><path d="M23.941 8.036c-7.625 0-13.825 2.131-13.825 5.476v6.558c0 3.345 6.2 5.648 13.825 5.648 7.625 0 14.072-2.303 14.072-5.648v-6.558c0-3.345-6.447-5.476-14.072-5.476z" style="color:#000;display:block;overflow:visible;visibility:visible;fill:url(#m);fill-opacity:1;fill-rule:nonzero;stroke:none;stroke-width:.769;marker:none"/><ellipse cx="24" cy="14.071" rx="12.857" ry="5.5" style="color:#000;display:block;overflow:visible;visibility:visible;fill:#c3c3c3;fill-opacity:1;fill-rule:nonzero;stroke:url(#n);stroke-width:1.00493;stroke-linecap:butt;stroke-linejoin:miter;stroke-miterlimit:10;stroke-dasharray:none;stroke-dashoffset:0;stroke-opacity:1;marker:none" transform="matrix(1.0373 0 0 .95462 -.895 -.076)"/><path d="m13.643 18 .256 5.876 4.672 1.084-.142-5.603s2.071-.04 5.428-.254c-5.216-.233-11.183-2.725-13.214-4.179 1.417 2.092 3 3.076 3 3.076z" style="color:#000;display:block;overflow:visible;visibility:visible;opacity:.493671;fill:url(#o);fill-opacity:1;fill-rule:nonzero;stroke:none;stroke-width:1;marker:none"/></g><g transform="matrix(8.59688 0 0 6.30047 -78.956 -40.054)"><path d="M23.941 8.037c-7.625 0-13.825 2.13-13.825 5.475v6.558c0 3.345 6.2 5.648 13.825 5.648 7.625 0 14.072-2.303 14.072-5.648v-6.558c0-3.345-6.447-5.475-14.072-5.475z" style="color:#000;display:block;overflow:visible;visibility:visible;fill:url(#p);fill-opacity:1;fill-rule:nonzero;stroke:none;stroke-width:.769;marker:none"/><ellipse cx="24" cy="14.071" rx="12.857" ry="5.5" style="color:#000;display:block;overflow:visible;visibility:visible;fill:#c3c3c3;fill-opacity:1;fill-rule:nonzero;stroke:url(#q);stroke-width:1.00493;stroke-linecap:butt;stroke-linejoin:miter;stroke-miterlimit:10;stroke-dasharray:none;stroke-dashoffset:0;stroke-opacity:1;marker:none" transform="matrix(1.0373 0 0 .95462 -.895 -.076)"/><path d="m13.643 18 .256 5.876 4.672 1.084-.142-5.603s2.071-.04 5.428-.255c-5.216-.233-11.183-2.724-13.214-4.178 1.417 2.093 3 3.076 3 3.076z" style="color:#000;display:block;overflow:visible;visibility:visible;opacity:.493671;fill:url(#r);fill-opacity:1;fill-rule:nonzero;stroke:none;stroke-width:1;marker:none"/></g></svg>