<svg xmlns="http://www.w3.org/2000/svg" xmlns:xlink="http://www.w3.org/1999/xlink" width="100" height="100" viewBox="0 0 26.458 26.458"><defs><linearGradient id="g"><stop offset="0" stop-color="#ffcd91"/><stop offset="1" stop-color="#fc7778"/></linearGradient><linearGradient id="e"><stop offset="0" stop-color="#f9f9f9"/><stop offset="1" stop-color="#fff" stop-opacity=".973"/></linearGradient><linearGradient id="b"><stop offset="0" stop-color="#857679"/><stop offset="1" stop-color="#110c0c"/></linearGradient><linearGradient id="f"><stop offset="0" stop-color="#573a3d" stop-opacity="0"/><stop offset="1" stop-opacity=".314"/></linearGradient><linearGradient id="d"><stop offset="0" stop-color="#ffa56a" stop-opacity=".286"/><stop offset="1" stop-color="#474747" stop-opacity=".026"/></linearGradient><linearGradient id="a"><stop offset="0" stop-color="#ff8aa1"/><stop offset="1" stop-color="#ffd850"/></linearGradient><linearGradient id="c"><stop offset="0" stop-color="#f87191"/><stop offset="1" stop-color="#ffdb80"/></linearGradient><linearGradient id="h" x1="23.028" x2="3.652" y1="275.69" y2="292.656" gradientTransform="translate(-26.458 -270.542)" gradientUnits="userSpaceOnUse" xlink:href="#a"/><linearGradient id="j" x1="22.61" x2="3.761" y1="274.975" y2="291.502" gradientTransform="matrix(.75629 0 0 .7566 -23.234 -201.473)" gradientUnits="userSpaceOnUse" xlink:href="#b"/><linearGradient id="m" x1="10.743" x2="15.005" y1="290.297" y2="279.374" gradientTransform="translate(-.286 -276.701) scale(1.02168)" gradientUnits="userSpaceOnUse" xlink:href="#c"/><linearGradient id="k" x1="27.634" x2="-.797" y1="281.029" y2="279.599" gradientTransform="matrix(0 -.75629 .7566 0 -201.48 23.234)" gradientUnits="userSpaceOnUse" xlink:href="#d"/><linearGradient id="i" x1="24.15" x2="2.249" y1="275.271" y2="292.105" gradientTransform="matrix(.87494 0 0 .8753 -24.804 -235.158)" gradientUnits="userSpaceOnUse" xlink:href="#e"/><linearGradient id="l" x1="10.018" x2="18.201" y1="284.135" y2="283.889" gradientTransform="translate(-.236 -276.701) scale(1.02168)" gradientUnits="userSpaceOnUse" xlink:href="#f"/><linearGradient id="n" x1="9.695" x2="17.024" y1="281.826" y2="282.863" gradientTransform="translate(-.286 -276.702) scale(1.02168)" gradientUnits="userSpaceOnUse" xlink:href="#g"/></defs><rect width="26.458" height="26.458" x="-26.458" fill="url(#h)" paint-order="stroke markers fill" ry="13.229" transform="rotate(-90)"/><rect width="23.149" height="23.159" x="-24.804" y="1.65" fill="url(#i)" paint-order="stroke markers fill" ry="11.575" transform="rotate(-90)"/><rect width="20.01" height="20.018" x="-23.234" y="3.219" fill="url(#j)" paint-order="stroke markers fill" ry="10.005" transform="rotate(-90)"/><path fill="url(#k)" d="M13.219 3.224a9.983 9.983 0 0 0-10.005 9.985v.04a9.979 9.979 0 0 0 8.254 9.83l4.59-19.45a10.06 10.06 0 0 0-2.83-.405z" paint-order="stroke markers fill"/><path fill="url(#l)" d="M9.385 6.343c-.06 0-.103.008-.139.013a1.391 1.391 0 0 0-1.248 1.372v.54a.09.09 0 0 0 0 .003c.006.5.283.962.723 1.203l6.68 3.672-6.668 3.822h.011a.09.09 0 0 0-.033.012 1.39 1.39 0 0 0-.713 1.207v.571c.012 1.035 1.191 1.696 2.08 1.178l7.791-4.506.002-.002a.09.09 0 0 0 .004-.002c.428-.25.688-.712.684-1.207v-2.13a1.387 1.387 0 0 0-.709-1.207h-.002c-2.598-1.453-7.787-4.36-7.787-4.36a.09.09 0 0 0-.002 0 .912.912 0 0 0-.309-.102.935.935 0 0 0-.363-.076z" color="#000" font-family="sans-serif" font-weight="400" letter-spacing="0" overflow="visible" paint-order="stroke markers fill" word-spacing="0"/><path fill="url(#m)" d="M9.337 6.433c-.054 0-.087.007-.126.013a1.302 1.302 0 0 0-1.173 1.282v.54c.006.47.265.901.676 1.127l6.785 3.731v.039l-6.792 3.892h-.002a1.3 1.3 0 0 0-.667 1.13v.568c.01.967 1.115 1.585 1.946 1.1l7.793-4.508h.004c.4-.234.644-.668.64-1.13V12.08a1.298 1.298 0 0 0-.665-1.124l-7.79-4.357a.835.835 0 0 0-.301-.1.837.837 0 0 0-.329-.067z" color="#000" font-family="sans-serif" font-weight="400" letter-spacing="0" overflow="visible" paint-order="stroke markers fill" word-spacing="0"/><path fill="url(#n)" d="M9.337 6.432c-.054 0-.087.007-.126.013a1.303 1.303 0 0 0-1.173 1.282v.531a1.305 1.305 0 0 0 .676 1.136l6.785 3.732v.032l1.049-.583c2.282-1.196 1.108-1.67-.67-2.662-2.596-1.452-5.912-3.314-5.912-3.314a.835.835 0 0 0-.301-.098.838.838 0 0 0-.329-.068z" color="#000" font-family="sans-serif" font-weight="400" letter-spacing="0" overflow="visible" paint-order="stroke markers fill" word-spacing="0"/></svg>