<svg xmlns="http://www.w3.org/2000/svg" xmlns:xlink="http://www.w3.org/1999/xlink" version="1.1" id="Layer_1" x="0px" y="0px" style="enable-background:new 0 0 512 512;" xml:space="preserve" viewBox="0 33.4 512 445.2">
<style type="text/css">
	.st0{fill:#DB2D54;}
</style>
<g>
	<g>
		<path class="st0" d="M269,33.4h-26L0,173.8v45l243,140.5h26l243-140.5v-45L269,33.4z M447.5,196.1H256V86L447.5,196.1z M256,306.7    L64.5,196.1L211,111.5v84.6v22.2v2.7l34.2,19.5h124.2L256,306.7z"/>
		<polygon class="st0" points="0,278.5 0,338.2 243,478.6 269,478.6 512,338.2 512,278.5 256,426.6   "/>
		<polygon class="st0" points="476.2,478.6 512,458 512,398.4 372.6,478.6   "/>
		<polygon class="st0" points="0,458 35.8,478.6 139.4,478.6 0,398.4   "/>
	</g>
</g>
</svg>