<svg xmlns="http://www.w3.org/2000/svg" xmlns:xlink="http://www.w3.org/1999/xlink" xml:space="preserve" width="376.207" height="359.846" viewBox="0 0 99.538 95.209"><defs><linearGradient id="l"><stop offset="0" style="stop-color:#ccd6d7;stop-opacity:1"/><stop offset="1" style="stop-color:#0f3a3f;stop-opacity:1"/></linearGradient><linearGradient id="k"><stop offset="0" style="stop-color:#4b0005;stop-opacity:1"/><stop offset="1" style="stop-color:#8f000c;stop-opacity:1"/></linearGradient><linearGradient id="j"><stop offset="0" style="stop-color:#4b0005;stop-opacity:1"/><stop offset="1" style="stop-color:#8f000c;stop-opacity:1"/></linearGradient><linearGradient id="i"><stop offset="0" style="stop-color:#6a0007;stop-opacity:1"/><stop offset="1" style="stop-color:#b8000f;stop-opacity:1"/></linearGradient><linearGradient id="h"><stop offset="0" style="stop-color:#f7f6f8;stop-opacity:1"/><stop offset="1" style="stop-color:#b7b7b5;stop-opacity:1"/></linearGradient><linearGradient id="g"><stop offset="0" style="stop-color:#f4f2f4;stop-opacity:1"/><stop offset="1" style="stop-color:#57767b;stop-opacity:1"/></linearGradient><linearGradient id="f"><stop offset="0" style="stop-color:#285459;stop-opacity:1"/><stop offset="1" style="stop-color:#a6b6af;stop-opacity:1"/></linearGradient><linearGradient id="e"><stop offset="0" style="stop-color:#da453f;stop-opacity:1"/><stop offset="1" style="stop-color:#a60008;stop-opacity:1"/></linearGradient><linearGradient id="d"><stop offset="0" style="stop-color:#3a4b4f;stop-opacity:1"/><stop offset="1" style="stop-color:#617979;stop-opacity:.97461927"/></linearGradient><linearGradient id="c"><stop offset="0" style="stop-color:#401016;stop-opacity:1"/><stop offset="1" style="stop-color:#761f19;stop-opacity:1"/></linearGradient><linearGradient id="b"><stop offset="0" style="stop-color:#8ea8ad;stop-opacity:1"/><stop offset="1" style="stop-color:#e9e7eb;stop-opacity:1"/></linearGradient><linearGradient id="a"><stop offset="0" style="stop-color:#9b0e11;stop-opacity:1"/><stop offset="1" style="stop-color:#370707;stop-opacity:1"/></linearGradient><linearGradient xlink:href="#a" id="q" x1="120.067" x2="135.163" y1="63.258" y2="78.079" gradientUnits="userSpaceOnUse"/><linearGradient xlink:href="#b" id="o" x1="127.97" x2="133.89" y1="101.661" y2="104.77" gradientUnits="userSpaceOnUse"/><linearGradient xlink:href="#c" id="s" x1="117.928" x2="130.674" y1="86.055" y2="76.946" gradientUnits="userSpaceOnUse"/><linearGradient xlink:href="#d" id="r" x1="130.982" x2="135.721" y1="82.403" y2="86.452" gradientUnits="userSpaceOnUse"/><linearGradient xlink:href="#e" id="t" x1="63.798" x2="96.637" y1="74.818" y2="120.293" gradientUnits="userSpaceOnUse"/><linearGradient xlink:href="#f" id="p" x1="120.545" x2="128.042" y1="124.769" y2="126.07" gradientUnits="userSpaceOnUse"/><linearGradient xlink:href="#g" id="n" x1="113.846" x2="119.659" y1="114.043" y2="128.502" gradientUnits="userSpaceOnUse"/><linearGradient xlink:href="#h" id="x" x1="73.993" x2="94.845" y1="114.139" y2="71.247" gradientUnits="userSpaceOnUse"/><linearGradient xlink:href="#i" id="u" x1="95.854" x2="103.778" y1="114.667" y2="120.189" gradientUnits="userSpaceOnUse"/><linearGradient xlink:href="#j" id="w" x1="98.58" x2="118.097" y1="87.187" y2="101.194" gradientUnits="userSpaceOnUse"/><linearGradient xlink:href="#k" id="v" x1="78.278" x2="92.313" y1="97.433" y2="104.335" gradientUnits="userSpaceOnUse"/><linearGradient xlink:href="#l" id="m" x1="125.766" x2="123.333" y1="138.468" y2="126.033" gradientUnits="userSpaceOnUse"/></defs><g style="display:inline"><path d="M84.146 134.739s11.721 2.483 17.939 2.916c6.217.434 14.752.6 22.412-.433 8.01-1.081 13.2-2.228 14.5-2.662 1.302-.433 4.008-1.243 4.153-2.255.145-1.012-3.47-2.747-6.218-3.325-2.747-.579-12.724-1.446-14.893-1.446-2.169 0-37.893 7.205-37.893 7.205z" style="display:inline;fill:url(#m);fill-opacity:1;stroke:none;stroke-width:.264583px;stroke-linecap:butt;stroke-linejoin:miter;stroke-opacity:1" transform="translate(-51.42 -44.47)"/></g><g style="display:inline"><path d="m84.46 134.867 35.166-6.857 16.155-42.738z" style="display:inline;fill:url(#n);fill-opacity:1;stroke:none;stroke-width:.264583px;stroke-linecap:butt;stroke-linejoin:miter;stroke-opacity:1" transform="translate(-51.42 -44.47)"/><path d="m135.715 85.428.398 45.05-9.662-20.463z" style="fill:url(#o);fill-opacity:1;stroke:none;stroke-width:.264583px;stroke-linecap:butt;stroke-linejoin:miter;stroke-opacity:1" transform="translate(-51.42 -44.47)"/><path d="m119.605 128.003 16.534 2.487-9.688-20.551z" style="display:inline;fill:url(#p);fill-opacity:1;stroke:none;stroke-width:.264583px;stroke-linecap:butt;stroke-linejoin:miter;stroke-opacity:1" transform="translate(-51.42 -44.47)"/><path d="m118.422 57.023 12.704-2.767-.078 25.087-12.439-13.377z" style="display:inline;fill:url(#q);fill-opacity:1;stroke:none;stroke-width:.264583px;stroke-linecap:butt;stroke-linejoin:miter;stroke-opacity:1" transform="translate(-51.42 -44.47)"/><path d="m135.721 85.387-4.842-6.46.03 11.127z" style="display:inline;fill:url(#r);fill-opacity:1;stroke:none;stroke-width:.264583px;stroke-linecap:butt;stroke-linejoin:miter;stroke-opacity:1" transform="translate(-51.42 -44.47)"/><path d="m119.103 65.682 11.969 13.45-.09 10.82-11.886 11.43z" style="display:inline;fill:url(#s);fill-opacity:1;stroke:none;stroke-width:.264583px;stroke-linecap:butt;stroke-linejoin:miter;stroke-opacity:1" transform="translate(-51.42 -44.47)"/><path d="m62.146 130.156-.103-64.72s.18-2.779 1.896-4.037c1.874-1.374 4.341-1.894 4.341-1.894l50.918-11.35-.011 53.145-34.733 33.566z" style="display:inline;fill:url(#t);fill-opacity:1;stroke:none;stroke-width:.264583px;stroke-linecap:butt;stroke-linejoin:miter;stroke-opacity:1" transform="translate(-51.42 -44.47)"/></g><g style="display:inline"><path d="m94.78 91.407 16.871 17.075-23.723 23.002-18.122-17.998 5.497-2.806 18.404-.051 2.352-8.23z" style="display:inline;fill:url(#u);fill-opacity:1;stroke:none;stroke-width:.264583px;stroke-linecap:butt;stroke-linejoin:miter;stroke-opacity:1" transform="translate(-51.42 -44.47)"/><path d="m72.44 92.225 16.155 15.745 4.09-6.799z" style="display:inline;fill:url(#v);fill-opacity:1;stroke:none;stroke-width:.264583px;stroke-linecap:butt;stroke-linejoin:miter;stroke-opacity:1" transform="translate(-51.42 -44.47)"/><path d="m95.139 84.965 1.124-14.11 22.925 22.287.008 8.165-3.289 3.166z" style="display:inline;fill:url(#w);fill-opacity:1;stroke:none;stroke-width:.264583px;stroke-linecap:butt;stroke-linejoin:miter;stroke-opacity:1" transform="translate(-51.42 -44.47)"/><path d="M95.139 84.965h1.227l-.051-14.11s-5.777-3.22-12.168-2.402c-6.39.818-8.151 2.125-10.582 4.396-1.902 1.778-2.914 3.528-3.987 7.158-.513 1.733-.282 5.988.613 8.537.665 1.891 2.454 4.294 4.959 6.135 2.662 1.956 8.282 3.527 8.282 3.527s5.134 1.887 5.572 4.294c.308 1.695-.102 3.221-1.636 4.96-1.258 1.425-3.63 1.993-6.288 1.073-2.658-.92-6.14-3.85-7.106-4.908-.818-.895-2.82-3.062-2.89-4.294-.012-.214-1.23-.096-1.23-.096l-.072 14.257 5.88 2.25s5.214 1.788 8.946 1.43c3.731-.357 7.617-.51 11.604-5.163 3.988-4.652 3.681-12.832 2.147-15.899-1.533-3.067-3.56-6.139-10.48-8.282-5.776-1.789-7.872-3.016-8.128-4.396-.256-1.38.009-4.254 2.76-5.215 3.221-1.124 5.624-.05 7.055 1.125 1.432 1.176 5.573 5.623 5.573 5.623z" style="display:inline;fill:url(#x);fill-opacity:1;stroke:none;stroke-width:.264583px;stroke-linecap:butt;stroke-linejoin:miter;stroke-opacity:1" transform="translate(-51.42 -44.47)"/></g></svg>