<?xml version="1.0" encoding="UTF-8"?>
<svg xmlns="http://www.w3.org/2000/svg" xmlns:xlink="http://www.w3.org/1999/xlink" width="512px" height="512px" viewBox="0 0 512 512" version="1.1">
<g id="surface1">
<path style=" stroke:none;fill-rule:nonzero;fill:rgb(20%,23.921569%,30.196078%);fill-opacity:1;" d="M 257.242188 22.339844 C 239.761719 22.359375 77.375 263.554688 82.082031 325.566406 C 86.792969 387.578125 149.277344 498.371094 252.292969 498.367188 C 355.300781 498.359375 429.289062 432.710938 431.164062 336.128906 C 433.035156 239.546875 274.726562 22.320312 257.242188 22.339844 Z M 257.242188 22.339844 "/>
<path style=" stroke:none;fill-rule:nonzero;fill:rgb(37.254902%,43.137255%,50.980392%);fill-opacity:1;" d="M 232.351562 488.953125 C 185.785156 476.953125 169.363281 465.796875 169.363281 465.796875 C 151.847656 453.984375 136.335938 440.757812 126.628906 427.148438 C 119.609375 417.300781 109.757812 396.457031 106.222656 385.476562 C 87.140625 325.628906 111.472656 257.933594 148.210938 218.003906 C 171.136719 194.121094 201.761719 185.65625 236.738281 181.125 C 277.5 175.84375 314.824219 183.570312 340.992188 209.742188 C 358.089844 223.984375 361.789062 235.863281 361.507812 257.824219 C 361.59375 266.78125 361.460938 267.609375 359.640625 269.433594 C 357.949219 271.125 356.898438 271.371094 351.902344 271.230469 C 348.605469 271.136719 341.136719 269.777344 334.511719 268.066406 C 320.609375 264.472656 315.746094 263.703125 311.71875 264.457031 C 309.03125 264.960938 308.234375 265.808594 304.664062 271.957031 C 302.449219 275.765625 299.671875 279.519531 298.488281 280.292969 C 295.304688 282.378906 290.246094 281.8125 281.335938 278.371094 C 267.539062 273.042969 261.566406 273.324219 255.921875 279.570312 C 252.09375 283.808594 250.132812 287.679688 247.425781 296.332031 C 243.105469 310.128906 242.710938 323.375 246.316406 333.59375 C 252.226562 346.402344 261.003906 356.84375 270.789062 366.621094 C 278.359375 373.941406 291.070312 384.566406 326.773438 410.667969 C 356.019531 432.050781 373.152344 442.925781 373.152344 446.214844 C 373.152344 449.457031 354.078125 461.546875 337.300781 469.640625 C 323.152344 476.46875 309.769531 480.484375 295.074219 484.355469 C 272.949219 489.03125 250.527344 490.519531 232.351562 488.953125 Z M 232.351562 488.953125 "/>
<path style=" stroke:none;fill-rule:nonzero;fill:rgb(16.470588%,19.607843%,23.921569%);fill-opacity:1;" d="M 242.492188 503.84375 C 241.347656 503.710938 237.460938 503.3125 233.859375 502.953125 C 220.265625 501.601562 204.835938 498.203125 191.253906 493.578125 C 124.28125 470.765625 78.941406 414.871094 71.402344 345.828125 C 68.8125 322.117188 69.949219 304.617188 75.523438 282.421875 C 87.816406 233.464844 123.617188 165.65625 173.902344 96.078125 C 207.039062 50.226562 244.507812 7.660156 254.9375 4.027344 C 257.710938 3.058594 260.953125 5.074219 270.050781 13.425781 C 291.769531 33.359375 328.949219 79.527344 358.914062 123.761719 C 413.332031 204.089844 442.53125 272.304688 442.53125 319.09375 C 442.53125 370.796875 423.09375 418.289062 387.976562 452.414062 C 359.378906 480.195312 323.867188 496.976562 281.488281 502.726562 C 274.746094 503.644531 247.585938 504.417969 242.492188 503.84375 Z M 292.824219 484.832031 C 308.773438 480.589844 319.539062 476.71875 332.984375 470.398438 C 350.183594 462.3125 369.300781 449.539062 369.300781 446.128906 C 369.300781 445.605469 367.894531 443.683594 366.175781 441.855469 C 359.761719 435.039062 353.6875 431.179688 302.484375 393.167969 C 287.855469 381.589844 271.894531 369.78125 259.125 353.652344 C 257.179688 336.425781 259.257812 306.125 273.976562 295.734375 C 276.25 294.289062 277.277344 294.03125 280.710938 294.03125 C 284.796875 294.03125 287.800781 294.847656 300.242188 299.335938 C 310.550781 303.054688 312.929688 301.878906 319.980469 289.570312 C 322.457031 285.25 325.378906 283.339844 329.535156 283.324219 C 331.078125 283.320312 338.253906 284.78125 345.488281 286.578125 C 367.757812 292.101562 372.382812 292.242188 374.84375 287.484375 C 376.460938 284.359375 375.980469 269.304688 374.074219 263.371094 C 372.070312 257.132812 368.027344 249.511719 363.628906 243.679688 C 361.46875 240.816406 359.214844 237.515625 358.613281 236.335938 C 356.988281 233.15625 347.378906 220.546875 342.714844 215.484375 C 324.792969 196.011719 298.832031 183.5625 269.292969 180.261719 C 261.578125 179.402344 242.828125 179.886719 234.273438 181.167969 C 191.253906 187.609375 158.316406 208.371094 135.035156 243.722656 C 107.253906 290.554688 95.402344 338.613281 110.691406 385.203125 C 114.003906 395.152344 122.628906 412.863281 128.628906 422.03125 C 137.984375 436.324219 149.835938 448.121094 167.925781 461.148438 C 170.789062 463.214844 174.605469 465.632812 176.40625 466.53125 C 178.207031 467.425781 181.023438 469.066406 182.660156 470.183594 C 190.296875 475.378906 209.289062 482.074219 223.441406 484.5625 C 239.226562 488.03125 248.792969 487.40625 259.78125 487.445312 C 271.261719 487.613281 281.769531 487.167969 292.824219 484.832031 Z M 292.824219 484.832031 "/>
</g>
</svg>
