<svg xmlns="http://www.w3.org/2000/svg" xml:space="preserve" id="Layer_1" x="0" y="0" version="1.1" viewBox="0 0 512 512"><style>.st1{fill:#f6005b}</style><circle cx="256" cy="256" r="256" style="fill:#1f1c3b"/><path d="M327.2 293.5c6.8-11.8 2.8-26.9-9-33.7s-26.9-2.8-33.7 9l-67.8 117.5c-6.8 11.8-2.8 26.9 9 33.7s26.9 2.8 33.7-9zM272.4 265.9c6.8-11.8 2.8-26.9-9-33.7s-26.9-2.8-33.7 9l-6.2 10.7c-6.8 11.8-2.8 26.9 9 33.7s26.9 2.8 33.7-9zM286.1 120.2c6.8-11.8 2.8-26.9-9-33.7s-26.9-2.8-33.7 9L175.6 213c-6.8 11.8-2.8 26.9 9 33.7s26.9 2.8 33.7-9z" class="st1"/></svg>