<?xml version="1.0" encoding="utf-8"?>
<!-- Generator: Adobe Illustrator 27.7.0, SVG Export Plug-In . SVG Version: 6.00 Build 0)  -->
<svg version="1.1" id="Layer_1" xmlns="http://www.w3.org/2000/svg" xmlns:xlink="http://www.w3.org/1999/xlink" x="0px" y="0px"
	 viewBox="0 0 512 512" style="enable-background:new 0 0 512 512;" xml:space="preserve">
<style type="text/css">
	.st0{fill:#1F1C3B;}
	.st1{fill:#F6005B;}
</style>
<g>
	<circle class="st0" cx="256" cy="256" r="256"/>
	<path class="st1" d="M327.2,293.5c6.8-11.8,2.8-26.9-9-33.7c-11.8-6.8-26.9-2.8-33.7,9l-67.8,117.5c-6.8,11.8-2.8,26.9,9,33.7
		c11.8,6.8,26.9,2.8,33.7-9L327.2,293.5z"/>
	<path class="st1" d="M272.4,265.9c6.8-11.8,2.8-26.9-9-33.7c-11.8-6.8-26.9-2.8-33.7,9l-6.2,10.7c-6.8,11.8-2.8,26.9,9,33.7
		c11.8,6.8,26.9,2.8,33.7-9L272.4,265.9z"/>
	<path class="st1" d="M286.1,120.2c6.8-11.8,2.8-26.9-9-33.7c-11.8-6.8-26.9-2.8-33.7,9L175.6,213c-6.8,11.8-2.8,26.9,9,33.7
		c11.8,6.8,26.9,2.8,33.7-9L286.1,120.2z"/>
</g>
</svg>
