<?xml version="1.0" encoding="UTF-8"?>
<!-- Generator: visioncortex VTracer 0.6.3 -->
<svg version="1.1" xmlns="http://www.w3.org/2000/svg" width="512" height="512">
<path d="M0 0 C66.39 -1.25 131.71 24.58 179.73 70.23 C188.54 78.74 197.15 87.31 204.52 97.12 C204.92 97.64 205.32 98.16 205.73 98.7 C238.92 141.66 257.79 193.83 259.52 248.12 C259.56 249.27 259.6 250.41 259.64 251.59 C260.42 294.97 249.89 337.9 229.52 376.12 C229.17 376.77 228.83 377.42 228.48 378.09 C219.09 395.85 207.2 411.96 193.64 426.77 C191.84 428.77 190.11 430.8 188.39 432.87 C149.72 476.95 89.91 503.52 32.52 510.12 C31.71 510.22 30.91 510.31 30.09 510.41 C21.72 511.28 13.35 511.36 4.95 511.37 C4.19 511.37 3.42 511.37 2.63 511.37 C-11.57 511.35 -25.46 510.44 -39.48 508.12 C-40.9 507.89 -40.9 507.89 -42.34 507.65 C-102.78 497.11 -161.59 462.44 -198.2 412.84 C-199.48 411.13 -200.79 409.44 -202.11 407.76 C-226.23 376.54 -242.06 337.97 -248.48 299.12 C-248.65 298.15 -248.81 297.18 -248.97 296.18 C-259.25 230.54 -243.66 160.98 -204.48 107.12 C-198.87 99.52 -192.92 92.28 -186.51 85.33 C-184.73 83.39 -183.04 81.4 -181.36 79.37 C-139.81 32.01 -75.25 5 -13.31 0.49 C-8.88 0.23 -4.44 0.15 0 0 Z " fill="#F4E6DE" transform="translate(252.484375,-0.12109375)"/>
<path d="M0 0 C2.13 -0.02 4.26 -0.04 6.39 -0.08 C9.48 -0.14 12.57 -0.16 15.66 -0.17 C16.6 -0.2 17.54 -0.22 18.51 -0.24 C26.48 -0.22 31.99 2.37 37.95 7.6 C38.57 8.32 39.19 9.04 39.83 9.79 C40.78 10.87 40.78 10.87 41.76 11.97 C45.36 17.23 45.69 22.54 45.65 28.75 C45.66 29.54 45.66 30.34 45.66 31.15 C45.66 32.83 45.66 34.5 45.65 36.17 C45.64 38.71 45.65 41.25 45.66 43.79 C45.66 45.42 45.66 47.05 45.65 48.69 C45.66 49.44 45.66 50.18 45.67 50.96 C45.56 62.65 41.01 74.15 33.11 82.84 C30.41 85.21 27.38 86.97 24.24 88.7 C21.67 90.99 21.67 93.01 21.39 96.35 C22.19 96.36 22.99 96.38 23.81 96.39 C32.12 96.75 39.05 98.32 46.39 102.35 C46.9 102.91 47.41 103.47 47.94 104.05 C49.33 105.6 49.33 105.6 51.55 105.31 C52.77 105.02 52.77 105.02 54.01 104.73 C55.34 104.42 55.34 104.42 56.69 104.1 C59.22 103.4 61.67 102.6 64.14 101.73 C67.68 100.49 70.6 99.9 74.39 100.35 C75.38 101.01 76.37 101.67 77.39 102.35 C77.7 106.52 77.37 110.29 76.39 114.35 C77.15 114.45 77.91 114.56 78.7 114.66 C81.65 115.42 82.73 115.81 84.39 118.35 C84.81 121.92 84.29 124.97 83.45 128.41 C82.53 132.34 81.98 136.21 81.58 140.23 C81.47 141.32 81.36 142.41 81.24 143.53 C81.06 146.37 81.06 146.37 82.88 147.73 C84.39 149.35 84.39 149.35 84.69 152.86 C84.49 158.06 83.55 163.12 82.58 168.23 C82.33 169.65 82.33 169.65 82.07 171.1 C81.9 172.01 81.73 172.91 81.56 173.84 C81.4 174.66 81.25 175.48 81.1 176.32 C80.39 178.35 80.39 178.35 77.39 180.35 C76.07 180.35 74.75 180.35 73.39 180.35 C73.34 181.06 73.29 181.78 73.24 182.51 C72.75 188.77 72.24 194.66 69.39 200.35 C71.7 200.68 74.01 201.01 76.39 201.35 C76.5 200.37 76.61 199.4 76.72 198.39 C76.88 197.12 77.04 195.85 77.2 194.54 C77.43 192.64 77.43 192.64 77.66 190.71 C78.37 187.45 78.67 186.19 81.39 184.35 C82.05 184.35 82.71 184.35 83.39 184.35 C86.01 179.56 86.87 174.46 88.01 169.16 C88.24 168.16 88.47 167.16 88.71 166.12 C90.03 160.06 90.77 154.55 90.39 148.35 C89.41 147 88.41 145.67 87.39 144.35 C86.95 139.48 87.54 135.16 88.39 130.35 C89.64 123.37 89.64 123.37 89.39 116.35 C87.97 114.48 86.41 112.87 84.77 111.21 C83.08 108.94 82.96 107.52 82.83 104.73 C82.63 101.26 82.42 100.4 80.39 97.35 C76.26 94.6 73.34 93.83 68.39 94.35 C65.1 95.35 61.89 96.4 58.71 97.7 C55.84 98.8 53.97 99.51 50.95 98.7 C49.68 98.03 49.68 98.03 48.39 97.35 C47.06 96.83 45.73 96.33 44.4 95.84 C43.69 95.58 42.99 95.31 42.26 95.04 C41.54 94.77 40.82 94.5 40.08 94.23 C38.97 93.81 38.97 93.81 37.83 93.39 C36.02 92.71 34.2 92.03 32.39 91.35 C33.23 90.38 34.08 89.41 34.95 88.41 C38.59 84.18 41.99 79.78 45.39 75.35 C59.59 76.83 73.51 86.6 84.39 95.35 C84.98 95.82 85.57 96.3 86.18 96.78 C108.62 114.94 123.67 137.9 132.39 165.35 C132.6 165.99 132.81 166.63 133.03 167.29 C136.77 179.16 136.78 191.28 136.83 203.6 C136.84 204.82 136.84 204.82 136.84 206.06 C136.92 220.89 134.92 234.3 129.7 248.29 C129.38 249.17 129.06 250.06 128.73 250.97 C127.96 253.1 127.18 255.23 126.39 257.35 C122.31 257.35 121.23 255.59 118.4 252.86 C113.01 248.82 106.83 249.02 100.4 248.94 C99.45 248.92 98.5 248.9 97.53 248.88 C94.52 248.82 91.52 248.77 88.51 248.73 C86.47 248.69 84.42 248.65 82.38 248.61 C77.38 248.51 72.39 248.43 67.39 248.35 C67.39 247.03 67.39 245.71 67.39 244.35 C65.41 244.35 63.43 244.35 61.39 244.35 C61.06 247.65 60.73 250.95 60.39 254.35 C61.87 254.33 63.35 254.31 64.88 254.29 C70.4 254.21 75.91 254.17 81.42 254.13 C83.81 254.11 86.19 254.08 88.57 254.05 C92 254 95.43 253.98 98.86 253.96 C99.93 253.94 100.99 253.92 102.09 253.9 C109.33 253.89 112.75 254.9 118.03 259.91 C122.12 264.95 122.5 268.33 122.63 274.7 C122.67 276 122.7 277.31 122.73 278.65 C122.75 279.35 122.76 280.05 122.78 280.77 C123.09 294.56 123.63 308.33 124.33 322.1 C125.11 337.82 125.79 353.55 126.38 369.28 C126.47 371.63 126.56 373.97 126.65 376.31 C126.78 379.63 126.9 382.94 127.02 386.26 C127.06 387.21 127.1 388.17 127.13 389.15 C127.46 398.23 127.39 407.24 127.39 416.35 C98.68 416.35 69.97 416.35 40.39 416.35 C40.39 414.37 40.39 412.39 40.39 410.35 C67.12 410.35 93.85 410.35 121.39 410.35 C121.08 403.81 120.77 397.27 120.45 390.54 C119.71 374.63 119.09 358.72 118.73 342.8 C118.58 336.68 118.37 330.6 117.89 324.5 C117.19 315.35 117.04 306.19 116.84 297.02 C116.73 292.5 116.61 287.98 116.46 283.47 C116.41 282.07 116.37 280.68 116.33 279.28 C116.28 277.37 116.19 275.45 116.11 273.54 C116.07 272.46 116.02 271.38 115.98 270.27 C115.25 266.65 113.96 264.96 111.39 262.35 C108.34 260.48 106.08 260.1 102.53 260.12 C101.09 260.12 101.09 260.12 99.62 260.12 C98.59 260.13 97.56 260.14 96.5 260.15 C95.44 260.16 94.38 260.16 93.29 260.16 C89.9 260.17 86.52 260.2 83.14 260.23 C80.84 260.24 78.55 260.24 76.26 260.25 C70.63 260.27 65.01 260.31 59.39 260.35 C58.93 261.48 58.48 262.62 58.01 263.79 C56.39 267.35 56.39 267.35 54.39 268.35 C49.79 268.72 47.01 268.03 43.01 265.79 C42.06 265.25 41.1 264.72 40.11 264.16 C37.48 262.41 35.6 260.58 33.45 258.29 C31.05 256.09 30.09 255.34 26.79 255.4 C23.56 256.18 20.52 257.21 17.39 258.35 C15.31 259.04 13.22 259.71 11.13 260.36 C9.75 260.8 8.37 261.26 7 261.72 C3 263.04 -0.41 263.71 -4.61 263.35 C-7.17 261.5 -7.59 260.41 -8.61 257.35 C-12.01 257.42 -15.28 257.63 -18.61 258.35 C-20.71 260.56 -20.71 260.56 -22.61 263.35 C-29.57 268.26 -37.82 273.68 -46.61 272.35 C-50.69 268.81 -50.99 265.53 -51.61 260.35 C-57.63 260.25 -63.64 260.18 -69.65 260.13 C-71.7 260.11 -73.74 260.08 -75.79 260.05 C-78.73 260 -81.67 259.98 -84.62 259.96 C-85.53 259.94 -86.44 259.92 -87.38 259.9 C-92.94 259.89 -96.28 260.5 -100.61 264.35 C-102.39 267.27 -102.91 269.63 -103.11 273.03 C-103.17 273.95 -103.23 274.87 -103.3 275.82 C-103.35 276.8 -103.41 277.79 -103.46 278.8 C-103.53 279.82 -103.59 280.83 -103.66 281.88 C-103.86 285.12 -104.05 288.36 -104.24 291.6 C-104.37 293.8 -104.51 296 -104.64 298.19 C-104.97 303.58 -105.3 308.96 -105.61 314.35 C-103.04 314.21 -100.47 314.07 -97.9 313.92 C-97.18 313.88 -96.46 313.84 -95.71 313.8 C-92.01 313.58 -88.51 313.26 -84.92 312.29 C-74.25 309.62 -64.23 311.09 -54.69 316.42 C-49.66 320.08 -46.86 325.54 -43.89 330.88 C-41.58 335.01 -39.11 338.09 -35.61 341.35 C-34.51 342.56 -33.43 343.79 -32.36 345.04 C-31.61 345.91 -31.61 345.91 -30.85 346.8 C-27 351.64 -28.16 358.51 -28.61 364.35 C-29.51 367.66 -30.86 370.41 -32.61 373.35 C-33.03 374.08 -33.45 374.81 -33.89 375.57 C-37.79 382.11 -40.62 384.71 -48.11 386.79 C-48.86 387 -49.61 387.21 -50.38 387.43 C-82.42 396.26 -82.42 396.26 -96.16 392.33 C-99.65 391.34 -102.44 391.14 -106.05 391.23 C-107.1 391.24 -108.15 391.26 -109.23 391.28 C-110.02 391.3 -110.8 391.33 -111.61 391.35 C-111.6 392.14 -111.59 392.92 -111.58 393.73 C-111.57 394.78 -111.56 395.83 -111.55 396.91 C-111.54 397.95 -111.53 398.98 -111.51 400.04 C-111.61 403.35 -111.61 403.35 -112.61 410.35 C-99.41 410.35 -86.21 410.35 -72.61 410.35 C-72.61 412.33 -72.61 414.31 -72.61 416.35 C-87.79 416.35 -102.97 416.35 -118.61 416.35 C-118.61 403.98 -118.61 403.98 -118.22 398.83 C-118.13 397.66 -118.04 396.5 -117.95 395.29 C-117.85 394.06 -117.76 392.82 -117.66 391.55 C-117.56 390.2 -117.46 388.86 -117.35 387.52 C-117.14 384.66 -116.92 381.8 -116.7 378.94 C-116.12 371.33 -115.55 363.72 -114.99 356.11 C-114.93 355.34 -114.87 354.56 -114.81 353.76 C-113.37 334.37 -112.11 314.97 -110.87 295.56 C-110.75 293.74 -110.75 293.74 -110.63 291.88 C-110.49 289.64 -110.35 287.4 -110.21 285.16 C-110.02 282.22 -109.82 279.29 -109.61 276.35 C-109.55 275.35 -109.5 274.35 -109.44 273.32 C-109.34 271.86 -109.34 271.86 -109.23 270.38 C-109.18 269.52 -109.13 268.66 -109.07 267.77 C-108.09 262.59 -104.64 258.98 -100.65 255.76 C-96.2 253.69 -92.12 253.98 -87.28 254.06 C-85.79 254.06 -85.79 254.06 -84.27 254.07 C-81.12 254.09 -77.96 254.12 -74.8 254.16 C-72.65 254.18 -70.51 254.19 -68.36 254.2 C-63.11 254.24 -57.86 254.29 -52.61 254.35 C-53.11 249.9 -53.11 249.9 -53.61 245.35 C-54.64 245.33 -55.67 245.31 -56.74 245.29 C-64.09 244.38 -72.97 240.28 -77.91 234.8 C-82.41 228.32 -82.59 223.18 -81.61 215.35 C-79.05 209.39 -74.49 205.78 -68.61 203.35 C-61.12 202.43 -53.88 204.63 -46.61 206.35 C-46.61 204.7 -46.61 203.05 -46.61 201.35 C-47.73 201.38 -48.85 201.42 -50.01 201.46 C-51.48 201.48 -52.95 201.51 -54.42 201.54 C-55.16 201.56 -55.9 201.59 -56.66 201.61 C-62.16 201.69 -62.16 201.69 -64.3 200.08 C-65.81 198.08 -66.1 196.88 -66.39 194.41 C-66.49 193.66 -66.59 192.91 -66.7 192.14 C-66.89 190.57 -67.08 189 -67.25 187.42 C-67.56 184.87 -67.56 184.87 -68.61 181.35 C-71 179.84 -71 179.84 -73.61 179.35 C-75.94 177.03 -76.08 175.98 -76.68 172.81 C-76.86 171.9 -77.03 170.99 -77.21 170.05 C-77.38 169.1 -77.56 168.14 -77.74 167.16 C-77.92 166.23 -78.1 165.29 -78.29 164.33 C-79.24 159.27 -79.97 154.5 -79.61 149.35 C-78.24 147.41 -78.24 147.41 -76.61 146.35 C-75.95 146.35 -75.29 146.35 -74.61 146.35 C-74.73 145.72 -74.85 145.09 -74.98 144.44 C-75.53 141.56 -76.07 138.67 -76.61 135.79 C-76.8 134.8 -76.99 133.81 -77.19 132.79 C-79.72 119.16 -79.72 119.16 -77.42 115.41 C-75.07 114.03 -73.3 114.28 -70.61 114.35 C-70.71 113.51 -70.8 112.66 -70.9 111.8 C-71.01 110.7 -71.12 109.6 -71.24 108.48 C-71.35 107.38 -71.47 106.29 -71.59 105.17 C-71.6 103.77 -71.6 103.77 -71.61 102.35 C-69.61 100.35 -69.61 100.35 -67.72 100.23 C-62.33 100.79 -57.73 101.98 -52.61 103.79 C-47.78 105.33 -47.78 105.33 -42.99 104.38 C-41.38 103.3 -39.8 102.18 -38.25 101.03 C-31.76 96.91 -23.16 96.14 -15.61 96.35 C-15.75 93.94 -15.75 93.94 -16.61 91.35 C-18.66 89.73 -18.66 89.73 -21.24 88.54 C-26.57 85.56 -29.99 82.22 -33.61 77.35 C-34.08 76.73 -34.56 76.12 -35.05 75.48 C-42.18 65.27 -42.1 53.04 -42 41.08 C-41.99 38.59 -42 36.11 -42.02 33.62 C-42.02 32.01 -42.02 30.41 -42.01 28.8 C-42.02 28.07 -42.02 27.34 -42.03 26.59 C-41.92 18.47 -39.4 12.14 -33.61 6.35 C-23.58 -1.32 -12.08 0.07 0 0 Z " fill="#57351D" transform="translate(255.611572265625,27.64990234375)"/>
<path d="M0 0 C2.13 -0.02 4.26 -0.04 6.39 -0.08 C9.48 -0.14 12.57 -0.16 15.66 -0.17 C16.6 -0.2 17.54 -0.22 18.51 -0.24 C26.48 -0.22 31.99 2.37 37.95 7.6 C38.88 8.68 38.88 8.68 39.83 9.79 C40.46 10.51 41.1 11.23 41.76 11.97 C45.36 17.23 45.69 22.54 45.65 28.75 C45.66 29.54 45.66 30.34 45.66 31.15 C45.66 32.83 45.66 34.5 45.65 36.17 C45.64 38.71 45.65 41.25 45.66 43.79 C45.66 45.42 45.66 47.05 45.65 48.69 C45.66 49.44 45.66 50.18 45.67 50.96 C45.56 62.65 41.01 74.15 33.11 82.84 C30.41 85.21 27.38 86.97 24.24 88.7 C21.7 90.62 21.7 90.62 21.39 96.35 C25.68 96.68 29.97 97.01 34.39 97.35 C34.39 98.67 34.39 99.99 34.39 101.35 C26.03 102.39 26.03 102.39 22.33 102.16 C18.71 102.39 16.36 103.65 13.22 105.38 C7.59 108.37 0.84 108.13 -5.26 106.75 C-11.08 104.88 -11.08 104.88 -13.61 102.35 C-21.41 101.64 -29.82 103.34 -36.61 107.35 C-36.94 108.01 -37.27 108.67 -37.61 109.35 C-36.74 109.53 -36.74 109.53 -35.85 109.72 C-35.07 109.88 -34.29 110.05 -33.49 110.23 C-32.72 110.39 -31.96 110.55 -31.17 110.72 C-28.61 111.35 -28.61 111.35 -25.83 112.4 C-21.95 113.54 -18.3 113.56 -14.3 113.6 C-6.99 113.82 -2.11 115.22 3.39 120.35 C5.04 119.03 6.69 117.71 8.39 116.35 C8.39 117.34 8.39 118.33 8.39 119.35 C31.49 119.35 54.59 119.35 78.39 119.35 C78.39 127.23 78.39 127.23 77.51 131.41 C77.33 132.29 77.15 133.17 76.97 134.07 C76.78 134.97 76.58 135.87 76.39 136.79 C76.2 137.71 76.01 138.63 75.81 139.58 C75.34 141.84 74.87 144.1 74.39 146.35 C73.78 146.4 73.17 146.45 72.54 146.51 C71.33 146.62 71.33 146.62 70.1 146.74 C69.3 146.81 68.51 146.89 67.69 146.96 C63.22 147.72 60.35 150.02 57.75 153.62 C55.16 158.81 55.45 165.02 57.01 170.55 C59.45 175.55 63.46 177.42 68.39 179.35 C68.25 181.41 68.1 183.48 67.95 185.54 C67.83 187.26 67.83 187.26 67.7 189.02 C67.39 192.35 67.39 192.35 66.39 197.35 C49.23 197.68 32.07 198.01 14.39 198.35 C24.62 198.68 34.85 199.01 45.39 199.35 C45.39 199.68 45.39 200.01 45.39 200.35 C44.49 200.34 43.58 200.34 42.65 200.33 C39.28 200.32 35.9 200.35 32.53 200.39 C31.07 200.41 29.62 200.41 28.16 200.39 C19.69 200.08 19.69 200.08 12.01 202.94 C10.21 204.81 10.21 204.81 8.71 206.77 C7.39 208.35 7.39 208.35 4.69 209.24 C3.49 209.2 3.49 209.2 2.26 209.16 C1.46 209.17 0.65 209.18 -0.18 209.18 C-2.61 208.35 -2.61 208.35 -4.78 205.35 C-7.01 202.59 -7.48 202.38 -11.21 201.58 C-12.58 201.54 -13.95 201.53 -15.32 201.55 C-16.04 201.53 -16.77 201.52 -17.52 201.5 C-19.82 201.47 -22.12 201.47 -24.42 201.48 C-25.99 201.46 -27.56 201.44 -29.13 201.41 C-32.95 201.36 -36.78 201.35 -40.61 201.35 C-40.53 201.98 -40.44 202.6 -40.36 203.25 C-40.2 204.47 -40.2 204.47 -40.05 205.73 C-39.89 206.94 -39.89 206.94 -39.73 208.19 C-39.61 210.35 -39.61 210.35 -40.61 212.35 C-39.62 212.68 -38.63 213.01 -37.61 213.35 C-40.63 214.3 -42.57 214.35 -45.62 213.57 C-46.76 213.3 -46.76 213.3 -47.92 213.02 C-49.49 212.62 -51.05 212.22 -52.62 211.82 C-62.33 209.46 -62.33 209.46 -71.55 212.1 C-75.3 216.19 -75.89 218.73 -75.75 224.38 C-75.58 226.76 -75.19 229.03 -74.61 231.35 C-76.26 231.68 -77.91 232.01 -79.61 232.35 C-83.03 227.22 -82.36 221.32 -81.61 215.35 C-79.05 209.39 -74.49 205.78 -68.61 203.35 C-61.12 202.43 -53.88 204.63 -46.61 206.35 C-46.61 204.7 -46.61 203.05 -46.61 201.35 C-47.73 201.38 -48.85 201.42 -50.01 201.46 C-51.48 201.48 -52.95 201.51 -54.42 201.54 C-55.16 201.56 -55.9 201.59 -56.66 201.61 C-62.16 201.69 -62.16 201.69 -64.3 200.08 C-65.81 198.08 -66.1 196.88 -66.39 194.41 C-66.49 193.66 -66.59 192.91 -66.7 192.14 C-66.89 190.57 -67.08 189 -67.25 187.42 C-67.56 184.87 -67.56 184.87 -68.61 181.35 C-71 179.84 -71 179.84 -73.61 179.35 C-75.94 177.03 -76.08 175.98 -76.68 172.81 C-76.86 171.9 -77.03 170.99 -77.21 170.05 C-77.38 169.1 -77.56 168.14 -77.74 167.16 C-77.92 166.23 -78.1 165.29 -78.29 164.33 C-79.24 159.27 -79.97 154.5 -79.61 149.35 C-78.24 147.41 -78.24 147.41 -76.61 146.35 C-75.95 146.35 -75.29 146.35 -74.61 146.35 C-74.73 145.72 -74.85 145.09 -74.98 144.44 C-75.53 141.56 -76.07 138.67 -76.61 135.79 C-76.8 134.8 -76.99 133.81 -77.19 132.79 C-79.72 119.16 -79.72 119.16 -77.42 115.41 C-75.07 114.03 -73.3 114.28 -70.61 114.35 C-70.71 113.51 -70.8 112.66 -70.9 111.8 C-71.01 110.7 -71.12 109.6 -71.24 108.48 C-71.35 107.38 -71.47 106.29 -71.59 105.17 C-71.6 104.24 -71.6 103.31 -71.61 102.35 C-69.61 100.35 -69.61 100.35 -67.72 100.23 C-62.33 100.79 -57.73 101.98 -52.61 103.79 C-47.78 105.33 -47.78 105.33 -42.99 104.38 C-41.38 103.3 -39.8 102.18 -38.25 101.03 C-31.76 96.91 -23.16 96.14 -15.61 96.35 C-15.75 93.94 -15.75 93.94 -16.61 91.35 C-18.66 89.73 -18.66 89.73 -21.24 88.54 C-26.57 85.56 -29.99 82.22 -33.61 77.35 C-34.08 76.73 -34.56 76.12 -35.05 75.48 C-42.18 65.27 -42.1 53.04 -42 41.08 C-41.99 38.59 -42 36.11 -42.02 33.62 C-42.02 32.01 -42.02 30.41 -42.01 28.8 C-42.02 27.71 -42.02 27.71 -42.03 26.59 C-41.92 18.47 -39.4 12.14 -33.61 6.35 C-23.58 -1.32 -12.08 0.07 0 0 Z " fill="#58371F" transform="translate(255.611572265625,27.64990234375)"/>
<path d="M0 0 C1.66 1.79 1.66 1.79 3.06 4.19 C3.57 5.01 4.07 5.83 4.59 6.68 C5.29 7.83 5.29 7.83 6 9 C8.19 11.88 10.43 14.47 13 17 C11.66 17.49 11.66 17.49 10.3 17.99 C8.54 18.64 8.54 18.64 6.75 19.31 C5.59 19.74 4.43 20.17 3.23 20.61 C0.39 21.83 -1.57 23.15 -4 25 C-8.58 24.78 -17.63 23.37 -21 20 C-26.68 19.44 -29.57 20.41 -34 24 C-35.14 26.28 -35.13 27.78 -35.25 30.31 C-35.62 34.11 -35.92 34.91 -38.5 38 C-39.32 38.66 -40.15 39.32 -41 40 C-42.57 41.57 -42.17 43.13 -42.19 45.31 C-42.15 50.38 -41.4 55.17 -40.44 60.14 C-39.25 67.93 -39.25 67.93 -41.47 71.1 C-41.98 71.73 -42.48 72.35 -43 73 C-44.49 80.07 -42.5 87.87 -41.25 94.88 C-41.09 95.79 -40.94 96.71 -40.78 97.65 C-39.8 102.74 -38.84 106.26 -35 110 C-34.01 110.66 -33.02 111.32 -32 112 C-31.31 114.12 -31.31 114.12 -31 117 C-30.79 118.3 -30.59 119.6 -30.38 120.94 C-30.39 123.03 -30.39 123.03 -31 125 C-33.09 126.75 -35.3 128 -37.67 129.36 C-42.46 132.72 -44.86 138.37 -46 144 C-46.68 151.93 -44.33 157.9 -40.44 164.75 C-36.5 168.38 -31.77 170.61 -27 173 C-27 173.33 -27 173.66 -27 174 C-28.26 174.02 -28.26 174.02 -29.55 174.04 C-32.7 174.11 -35.85 174.18 -39.01 174.26 C-40.36 174.3 -41.72 174.32 -43.08 174.35 C-55.31 174.46 -55.31 174.46 -65.69 180.25 C-71.45 187.1 -72.68 192.16 -73 201 C-73.66 201 -74.32 201 -75 201 C-86.39 178.06 -94.58 157.05 -94.45 131.19 C-94.44 128.7 -94.47 126.21 -94.5 123.71 C-94.56 109.12 -92.1 95.16 -86.88 81.5 C-86.44 80.34 -86.44 80.34 -85.99 79.15 C-76.81 55.77 -61.04 35.11 -41 20 C-40.2 19.4 -39.4 18.79 -38.58 18.17 C-11.03 -1.81 -11.03 -1.81 0 0 Z " fill="#DAAE95" transform="translate(214,102)"/>
<path d="M0 0 C14.2 1.48 28.12 11.25 39 20 C39.59 20.47 40.18 20.95 40.79 21.43 C63.23 39.59 78.28 62.55 87 90 C87.32 90.96 87.32 90.96 87.64 91.94 C91.38 103.81 91.39 115.93 91.44 128.25 C91.44 129.06 91.45 129.88 91.46 130.71 C91.53 145.54 89.53 158.95 84.31 172.94 C83.99 173.82 83.67 174.71 83.34 175.62 C82.57 177.75 81.79 179.88 81 182 C76.92 182 75.84 180.24 73.01 177.51 C67.62 173.47 61.45 173.67 55.01 173.59 C54.06 173.57 53.12 173.55 52.14 173.53 C49.14 173.47 46.13 173.42 43.12 173.38 C41.08 173.34 39.04 173.3 36.99 173.26 C31.99 173.16 27 173.08 22 173 C22 171.68 22 170.36 22 169 C20.68 168.67 19.36 168.34 18 168 C19.1 167.64 20.19 167.27 21.32 166.9 C22.78 166.39 24.23 165.88 25.69 165.38 C26.77 165.02 26.77 165.02 27.87 164.66 C34.09 162.45 36.69 159.55 40.29 154.02 C42.34 148.18 41.94 141.03 39.38 135.5 C35.88 131.82 32.24 128.83 28 126 C28.99 126 29.98 126 31 126 C31.11 125.02 31.22 124.05 31.33 123.04 C31.49 121.77 31.65 120.5 31.81 119.19 C31.96 117.92 32.11 116.66 32.27 115.36 C32.98 112.1 33.28 110.84 36 109 C36.66 109 37.32 109 38 109 C40.62 104.21 41.48 99.11 42.62 93.81 C42.97 92.31 42.97 92.31 43.32 90.77 C44.64 84.71 45.39 79.2 45 73 C44.02 71.65 43.02 70.32 42 69 C41.56 64.13 42.16 59.81 43 55 C44.25 48.02 44.25 48.02 44 41 C42.59 39.13 41.02 37.52 39.38 35.86 C37.69 33.59 37.58 32.17 37.44 29.38 C37.24 25.91 37.03 25.05 35 22 C30.87 19.25 27.95 18.48 23 19 C19.71 20 16.5 21.05 13.32 22.35 C10.46 23.45 8.58 24.16 5.57 23.35 C4.72 22.9 3.87 22.46 3 22 C1.68 21.48 0.35 20.98 -0.99 20.49 C-1.69 20.23 -2.4 19.96 -3.13 19.69 C-3.85 19.42 -4.57 19.15 -5.31 18.88 C-6.05 18.6 -6.79 18.32 -7.56 18.04 C-9.37 17.36 -11.19 16.68 -13 16 C-12.15 15.03 -11.31 14.06 -10.44 13.06 C-6.8 8.83 -3.39 4.43 0 0 Z " fill="#D9AE95" transform="translate(301,103)"/>
<path d="M0 0 C6.45 0.54 12.33 2.33 17 7 C22.06 6.67 27 5.06 31.75 3.38 C35.3 2.14 38.21 1.55 42 2 C42.99 2.66 43.98 3.32 45 4 C45.31 8.17 44.98 11.94 44 16 C44.76 16.1 45.53 16.21 46.31 16.31 C49.27 17.07 50.34 17.46 52 20 C52.42 23.57 51.9 26.62 51.06 30.06 C50.14 33.98 49.59 37.86 49.19 41.88 C49.08 42.97 48.97 44.06 48.86 45.18 C48.67 48.02 48.67 48.02 50.49 49.38 C52 51 52 51 52.3 54.51 C52.1 59.71 51.16 64.77 50.19 69.88 C50.02 70.82 49.86 71.77 49.69 72.75 C49.51 73.65 49.34 74.56 49.17 75.49 C49.02 76.31 48.86 77.13 48.71 77.97 C48 80 48 80 45 82 C43.68 82 42.36 82 41 82 C40.93 83.07 40.93 83.07 40.85 84.16 C40.36 90.42 39.85 96.31 37 102 C37.57 102.14 38.14 102.27 38.72 102.41 C45.69 104.35 50.26 107.69 54.16 113.83 C56.23 119.19 56.08 126.15 54.05 131.49 C50.1 138.09 45.05 141.28 37.81 143.75 C36.58 144.18 35.35 144.61 34.08 145.05 C31 146 31 146 29 146 C28.67 149.3 28.34 152.6 28 156 C29.48 155.98 30.97 155.96 32.49 155.94 C38.01 155.86 43.52 155.82 49.03 155.78 C51.42 155.76 53.8 155.73 56.19 155.7 C59.62 155.65 63.05 155.63 66.48 155.61 C67.54 155.59 68.6 155.57 69.7 155.55 C76.94 155.54 80.37 156.55 85.64 161.56 C89.74 166.6 90.11 169.98 90.25 176.35 C90.28 177.65 90.31 178.96 90.34 180.3 C90.36 181 90.37 181.7 90.39 182.42 C90.7 196.21 91.25 209.98 91.94 223.75 C92.72 239.47 93.4 255.2 93.99 270.93 C94.08 273.28 94.17 275.62 94.26 277.96 C94.39 281.28 94.51 284.59 94.63 287.91 C94.67 288.86 94.71 289.82 94.75 290.8 C95.07 299.88 95 308.89 95 318 C66.29 318 37.58 318 8 318 C8 316.02 8 314.04 8 312 C34.73 312 61.46 312 89 312 C88.69 305.46 88.38 298.92 88.06 292.19 C87.32 276.28 86.7 260.37 86.34 244.45 C86.19 238.33 85.98 232.25 85.5 226.15 C84.8 217 84.65 207.84 84.45 198.67 C84.34 194.15 84.22 189.63 84.07 185.12 C84.02 183.72 83.98 182.33 83.94 180.93 C83.89 179.02 83.8 177.1 83.72 175.19 C83.66 173.57 83.66 173.57 83.59 171.92 C82.86 168.3 81.57 166.61 79 164 C75.95 162.13 73.69 161.75 70.14 161.77 C68.7 161.77 68.7 161.77 67.23 161.77 C66.2 161.78 65.17 161.79 64.11 161.8 C63.05 161.81 61.99 161.81 60.9 161.81 C57.52 161.82 54.13 161.85 50.75 161.88 C48.46 161.89 46.16 161.89 43.87 161.9 C38.24 161.92 32.62 161.96 27 162 C26.55 163.13 26.09 164.27 25.62 165.44 C24 169 24 169 22 170 C17.4 170.37 14.63 169.68 10.62 167.44 C9.19 166.63 9.19 166.63 7.72 165.81 C5.09 164.06 3.21 162.23 1.06 159.94 C-1.39 157.67 -2.32 156.98 -5.7 157.09 C-8.9 157.86 -11.91 158.87 -15 160 C-17.33 160.76 -19.66 161.51 -22 162.25 C-23.58 162.78 -23.58 162.78 -25.19 163.33 C-27.99 164 -29.34 164 -32 163 C-32 162.34 -32 161.68 -32 161 C-33.32 160.67 -34.64 160.34 -36 160 C-35.67 158.68 -35.34 157.36 -35 156 C-35 156.99 -35 157.98 -35 159 C-27.53 157.1 -20.17 155.12 -12.88 152.62 C-6.8 150.55 -0.68 148.73 5.5 147 C13 144.9 20.39 142.62 27.76 140.08 C30.68 139.11 33.59 138.29 36.56 137.5 C41.9 135.92 45.51 133.57 48.38 128.62 C49.54 123.75 49.66 119.76 47.38 115.25 C45.1 111.75 43.07 110.26 39 109 C30.69 108.12 23.27 109.91 15.32 112.19 C13.34 112.76 11.36 113.31 9.38 113.86 C6.77 114.57 4.16 115.3 1.55 116.02 C-2.99 117.27 -7.54 118.46 -12.12 119.56 C-13.39 119.87 -14.65 120.18 -15.95 120.5 C-18.78 120.96 -20.35 121 -23 120 C-22.01 118.51 -22.01 118.51 -21 117 C-21.95 117.11 -22.9 117.22 -23.87 117.34 C-34.77 118.43 -44.25 117.05 -54.88 114.62 C-56.42 114.29 -57.97 113.96 -59.52 113.62 C-70.52 111.24 -70.52 111.24 -73 110 C-73 107.69 -73 105.38 -73 103 C-68.39 102.85 -63.79 102.74 -59.18 102.67 C-57.61 102.64 -56.04 102.6 -54.48 102.55 C-52.22 102.47 -49.96 102.44 -47.71 102.41 C-47.01 102.38 -46.31 102.35 -45.6 102.32 C-42.79 102.32 -40.64 102.43 -38.5 104.35 C-37.28 105.85 -36.13 107.43 -35 109 C-31.54 110.19 -28.52 109.94 -25 109 C-22.21 107 -20.09 104.72 -18 102 C-18.33 101.01 -18.66 100.02 -19 99 C-1.51 99 15.98 99 34 99 C34.33 94.71 34.66 90.42 35 86 C35.33 84.35 35.66 82.7 36 81 C35.28 80.92 34.56 80.83 33.81 80.75 C29.31 79.55 26.89 77.22 24.19 73.5 C22.26 67.82 21.54 61.42 23.95 55.77 C26.33 52.24 28.99 49.55 33 48 C36.02 47.78 38.98 47.82 42 48 C42.12 47.06 42.24 46.11 42.37 45.14 C42.53 43.86 42.7 42.57 42.88 41.25 C43.04 40 43.2 38.74 43.37 37.45 C44.15 31.95 45.09 26.48 46 21 C10.86 21.5 10.86 21.5 -25 22 C-25 21.01 -25 20.02 -25 19 C-26.65 20.32 -28.3 21.64 -30 23 C-30.38 22.58 -30.76 22.16 -31.15 21.72 C-36.45 16.79 -41.35 16.51 -48.27 16.4 C-56.12 16.19 -62.73 13.87 -70 11 C-69.02 8.46 -68.49 7.25 -66.01 5.99 C-65.24 5.77 -64.48 5.54 -63.69 5.31 C-62.88 5.08 -62.07 4.84 -61.23 4.59 C-60.13 4.3 -60.13 4.3 -59 4 C-58.15 3.77 -57.31 3.55 -56.44 3.31 C-47.29 2.14 -47.29 2.14 -43.94 4.38 C-43.3 4.91 -42.66 5.45 -42 6 C-33.05 9.47 -24.61 8.8 -15.9 4.97 C-14.04 4.14 -14.04 4.14 -13 3 C-10.47 2.93 -7.97 2.91 -5.44 2.94 C-4.37 2.94 -4.37 2.94 -3.28 2.95 C-1.52 2.96 0.24 2.98 2 3 C2 2.34 2 1.68 2 1 C1.01 0.5 1.01 0.5 0 0 Z " fill="#593721" transform="translate(288,126)"/>
<path d="M0 0 C0.5 9.41 0.5 9.41 1 19 C-0.33 19.53 -1.66 20.07 -3.03 20.62 C-14.78 25.43 -25.58 30.73 -36 38 C-36.56 38.38 -37.11 38.76 -37.68 39.16 C-69.42 61.28 -89.55 94.79 -96.7 132.47 C-102.51 165.21 -98.05 198.77 -82 228 C-81.47 228.97 -81.47 228.97 -80.94 229.96 C-76.88 237.82 -76.88 237.82 -71.25 244.53 C-67.18 249.26 -68.77 256.09 -69.19 261.88 C-69.26 263.14 -69.33 264.4 -69.4 265.7 C-69.58 268.8 -69.78 271.9 -70 275 C-75.5 273.17 -78.52 267.46 -82 263 C-82.74 262.08 -83.48 261.15 -84.24 260.2 C-98.71 241.61 -108.09 220.72 -114 198 C-114.31 196.85 -114.62 195.7 -114.93 194.51 C-120.41 172.67 -120.45 145.9 -115 124 C-114.67 122.5 -114.33 121 -114 119.5 C-107.56 91.66 -93.31 66.01 -73.47 45.52 C-71.94 43.94 -70.44 42.35 -68.94 40.75 C-52.72 23.76 -32.73 11.69 -11 3 C-9.94 2.58 -9.94 2.58 -8.86 2.14 C-5.78 0.94 -3.34 0 0 0 Z " fill="#CF9A78" transform="translate(208,72)"/>
<path d="M0 0 C7.53 2.06 14.36 4.78 21.38 8.19 C22.9 8.92 22.9 8.92 24.45 9.67 C31.76 13.27 38.48 17.08 45 22 C46.05 22.76 47.11 23.52 48.19 24.3 C63.69 35.75 77.54 49.8 88 66 C88.42 66.65 88.84 67.29 89.28 67.96 C99.74 84.25 107.34 101.89 111.51 120.8 C111.96 122.84 112.46 124.86 112.96 126.88 C121.08 163.95 113.15 205.1 95 238 C94.42 239.07 93.85 240.13 93.25 241.23 C89.13 248.6 84.38 255.49 79 262 C78.67 262 78.34 262 78 262 C76.35 244.07 75.44 230.05 84.83 214.1 C100.38 186.05 98.79 147.23 90.65 117.25 C83.84 93.64 71.85 73.82 55 56 C54.3 55.25 53.61 54.5 52.89 53.73 C39.24 39.51 22.64 29.86 4.81 21.83 C2.85 20.93 0.93 19.96 -1 19 C-0.67 12.73 -0.34 6.46 0 0 Z " fill="#CF9A78" transform="translate(307,73)"/>
<path d="M0 0 C1.3 0 2.6 0 3.94 0 C5.37 0.01 6.79 0.01 8.22 0.02 C9.67 0.02 11.13 0.02 12.58 0.02 C16.41 0.02 20.24 0.03 24.08 0.04 C27.98 0.06 31.89 0.06 35.8 0.06 C43.47 0.08 51.14 0.09 58.81 0.11 C58.83 4.27 58.78 8.1 57.93 12.17 C57.66 13.49 57.66 13.49 57.38 14.84 C57.1 16.18 57.1 16.18 56.81 17.55 C56.52 18.93 56.52 18.93 56.23 20.35 C55.76 22.6 55.29 24.86 54.81 27.11 C54.2 27.17 53.59 27.22 52.96 27.27 C52.15 27.35 51.35 27.42 50.52 27.5 C49.72 27.58 48.92 27.65 48.1 27.72 C43.64 28.48 40.76 30.78 38.17 34.39 C35.58 39.57 35.86 45.79 37.43 51.31 C39.86 56.31 43.88 58.19 48.81 60.11 C48.67 62.22 48.52 64.32 48.37 66.43 C48.29 67.6 48.21 68.77 48.12 69.98 C47.81 73.11 47.81 73.11 46.81 76.11 C45.79 76.12 45.79 76.12 44.75 76.12 C37.67 76.14 30.6 76.19 23.53 76.27 C20.89 76.29 18.25 76.3 15.61 76.31 C11.81 76.32 8.02 76.36 4.23 76.41 C3.05 76.4 1.86 76.4 0.64 76.39 C-5.75 76.3 -5.75 76.3 -10.85 79.66 C-11.29 80.47 -11.74 81.28 -12.19 82.11 C-12.85 82.11 -13.51 82.11 -14.19 82.11 C-14.33 72.59 -14.44 63.06 -14.5 53.53 C-14.54 49.11 -14.58 44.68 -14.65 40.26 C-14.71 35.98 -14.75 31.71 -14.76 27.44 C-14.77 25.81 -14.8 24.18 -14.83 22.56 C-15.1 8.21 -15.1 8.21 -11.28 3.62 C-7.05 0.18 -5.38 -0.01 0 0 Z " fill="#F2E5DD" transform="translate(275.19384765625,146.886474609375)"/>
<path d="M0 0 C8.24 -0.09 16.48 -0.16 24.72 -0.21 C28.55 -0.23 32.38 -0.26 36.2 -0.3 C39.9 -0.35 43.59 -0.37 47.29 -0.38 C48.7 -0.39 50.11 -0.4 51.51 -0.42 C53.49 -0.45 55.47 -0.45 57.44 -0.45 C58.57 -0.46 59.69 -0.47 60.85 -0.48 C65.6 0.24 68.66 2.66 72 6 C72.19 8.41 72.25 10.7 72.23 13.11 C72.23 13.84 72.23 14.58 72.23 15.33 C72.23 17.75 72.21 20.18 72.2 22.6 C72.19 24.28 72.19 25.96 72.19 27.64 C72.18 32.06 72.16 36.48 72.14 40.9 C72.12 45.42 72.11 49.93 72.1 54.44 C72.08 63.29 72.04 72.15 72 81 C69 80 69 80 67 77 C64.58 76.52 64.58 76.52 61.72 76.57 C60.07 76.54 60.07 76.54 58.39 76.51 C57.2 76.5 56 76.49 54.77 76.49 C53.56 76.47 52.34 76.45 51.08 76.43 C47.18 76.38 43.28 76.35 39.38 76.31 C36.73 76.28 34.09 76.24 31.45 76.21 C24.97 76.12 18.48 76.06 12 76 C11.68 74.4 11.36 72.8 11.04 71.21 C10.86 70.32 10.68 69.43 10.5 68.51 C9.36 62.76 9.36 62.76 10 60 C11.9 58.59 13.89 57.48 15.95 56.33 C19.26 54.18 20.84 51.74 22 48 C22.77 42.95 22.61 39.22 20.31 34.62 C16.57 30.38 13.9 28.04 8.32 26.89 C7.51 26.72 6.7 26.55 5.87 26.38 C5.25 26.25 4.64 26.13 4 26 C3.32 22.79 2.66 19.58 2 16.38 C1.81 15.47 1.62 14.57 1.42 13.64 C1.24 12.75 1.06 11.87 0.88 10.96 C0.62 9.75 0.62 9.75 0.37 8.52 C-0.05 5.65 -0.02 2.89 0 0 Z " fill="#F3E6DD" transform="translate(183,147)"/>
<path d="M0 0 C2.17 1.71 2.17 1.71 4.19 3.81 C5.2 4.84 5.2 4.84 6.23 5.89 C10.22 10.64 10.5 14.56 10.37 20.64 C9.24 30.86 4.63 39.22 -3 46 C-5.55 48 -8.09 49.58 -11 51 C-11.63 51.32 -12.26 51.64 -12.91 51.96 C-21.21 55.43 -31.93 55.6 -40.48 52.9 C-51.58 47.63 -59.44 40.14 -63.81 28.62 C-65.53 22.78 -66.68 17.11 -63.68 11.54 C-61.93 9.17 -60.07 7.09 -58 5 C-57.51 4.45 -57.01 3.9 -56.5 3.33 C-51.71 -1.11 -46.03 -0.44 -39.82 -0.27 C-36.54 -0.04 -33.31 0.35 -30.06 0.78 C-26.5 1.16 -22.95 1.18 -19.38 1.19 C-18.65 1.2 -17.93 1.21 -17.18 1.22 C-13.69 1.23 -11.14 1.05 -7.79 -0.07 C-4.59 -1.14 -3.15 -1.14 0 0 Z " fill="#F2E5DD" transform="translate(285,63)"/>
<path d="M0 0 C4.71 3.75 6.76 7.01 7.5 13 C6.74 19 4.53 22.45 -0.16 26.24 C-3.26 28.33 -6.63 29.35 -10.19 30.44 C-10.97 30.69 -11.76 30.94 -12.57 31.2 C-18.73 33.14 -24.95 34.86 -31.18 36.54 C-36.5 37.99 -41.72 39.65 -46.94 41.44 C-53.18 43.57 -59.46 45.53 -65.81 47.31 C-66.57 47.53 -67.32 47.74 -68.1 47.96 C-71.54 48.91 -74.34 49.44 -77.94 49.44 C-79.26 45.42 -80.57 41.4 -81.88 37.38 C-82.25 36.24 -82.62 35.11 -83.01 33.94 C-84.79 28.44 -86.41 23.21 -86.94 17.44 C-79.98 15 -72.99 13.13 -65.82 11.41 C-64.68 11.13 -63.54 10.85 -62.36 10.57 C-58.74 9.69 -55.12 8.81 -51.5 7.94 C-47.88 7.06 -44.27 6.19 -40.65 5.31 C-38.41 4.76 -36.16 4.22 -33.92 3.68 C-28.22 2.3 -22.6 0.79 -17 -0.97 C-11.43 -2.57 -5.25 -2.6 0 0 Z " fill="#F1E4DC" transform="translate(330.9375,235.5625)"/>
<path d="M0 0 C4.15 0.79 8.29 1.58 12.44 2.38 C13.6 2.6 14.77 2.82 15.97 3.05 C21.03 4.02 26.08 5 31.1 6.15 C38.18 7.69 44.86 6.93 52 6 C51.14 8.82 51.14 8.82 49 12 C45.72 13.49 42.33 14.16 38.81 14.88 C37.4 15.19 37.4 15.19 35.96 15.52 C33.65 16.03 31.33 16.53 29 17 C30.31 24.16 32.1 31 34.32 37.92 C35.6 42.08 36.26 45.59 36 50 C37.98 50.5 37.98 50.5 40 51 C40.5 52.98 40.5 52.98 41 55 C35.51 55.37 35.51 55.37 33.19 53.69 C32 52 32 52 31 49 C29 47.79 29 47.79 27 47 C27.33 45.68 27.66 44.36 28 43 C26.19 43.28 24.37 43.58 22.56 43.88 C21.55 44.04 20.54 44.2 19.5 44.37 C18.68 44.58 17.85 44.78 17 45 C16.5 45.99 16.5 45.99 16 47 C15.34 47 14.68 47 14 47 C13.34 44.69 12.68 42.38 12 40 C10.68 40 9.36 40 8 40 C8.25 40.83 8.25 40.83 8.5 41.67 C9.06 44.27 9.1 46.6 9.06 49.25 C9.05 50.14 9.04 51.03 9.04 51.95 C9.02 52.63 9.01 53.3 9 54 C7.35 54.66 5.7 55.32 4 56 C3.94 55.28 3.88 54.55 3.82 53.8 C3.39 48.83 2.93 43.91 2 39 C-0.47 39.5 -0.47 39.5 -3 40 C-2.86 40.55 -2.71 41.09 -2.56 41.65 C-1.18 47.25 -0.82 52.24 -1 58 C-2.98 58.5 -2.98 58.5 -5 59 C-5.99 54.38 -6.98 49.76 -8 45 C-9.32 44.67 -10.64 44.34 -12 44 C-12 42.68 -12 41.36 -12 40 C-12.66 40 -13.32 40 -14 40 C-14 39.01 -14 38.02 -14 37 C-15.03 36.98 -16.06 36.96 -17.12 36.94 C-21.59 36.4 -25.34 34.62 -29.31 32.62 C-29.92 32.32 -30.53 32.02 -31.16 31.7 C-34.17 30.14 -36.9 28.71 -39 26 C-39 25.34 -39 24.68 -39 24 C-37.68 23.67 -36.36 23.34 -35 23 C-35.33 22.34 -35.66 21.68 -36 21 C-37.25 17.26 -37.62 13.87 -37 10 C-34.99 6.2 -32.92 2.91 -29 1 C-22.64 0.39 -16.77 1.48 -10.62 3 C-9.06 3.38 -7.49 3.75 -5.91 4.12 C-4.89 4.38 -4.89 4.38 -3.85 4.63 C-1.82 5.1 -1.82 5.1 1 5 C0.34 4.67 -0.32 4.34 -1 4 C-0.67 2.68 -0.34 1.36 0 0 Z " fill="#58361F" transform="translate(216,236)"/>
<path d="M0 0 C3.49 3.49 6 7.36 8.56 11.56 C11.2 15.8 13.59 18.55 17.56 21.56 C20.28 27.01 17.79 32.59 16.02 37.98 C13.24 42.91 8.99 44.58 3.73 46.05 C1.93 46.48 0.12 46.9 -1.69 47.31 C-3.02 47.64 -3.02 47.64 -4.39 47.98 C-12.89 49.97 -20.52 50.22 -28.99 48.07 C-33.74 47.08 -38.6 46.87 -43.44 46.56 C-43.76 30.81 -42.77 15.26 -41.44 -0.44 C-40.86 -0.43 -40.28 -0.43 -39.68 -0.42 C-37.04 -0.4 -34.39 -0.39 -31.75 -0.38 C-30.38 -0.36 -30.38 -0.36 -28.99 -0.35 C-27.66 -0.34 -27.66 -0.34 -26.3 -0.34 C-25.49 -0.33 -24.68 -0.33 -23.84 -0.32 C-3.12 -1.3 -3.12 -1.3 0 0 Z " fill="#EEE1D8" transform="translate(189.4375,356.4375)"/>
<path d="M0 0 C3.1 2.13 5.37 3.74 6.8 7.23 C7.98 15.07 7.44 22.13 3.42 29.04 C-0.81 34.75 -5.29 38.41 -12.2 40.23 C-21.23 41.09 -27.61 40.43 -35.08 35.23 C-37.83 33.48 -39.71 32.69 -42.77 31.8 C-46.99 30.5 -49.36 28.7 -52.2 25.23 C-54.09 21.45 -53.8 17.35 -53.2 13.23 C-51.87 9.96 -50.16 8.15 -47.2 6.23 C-43.58 4.92 -40 3.93 -36.25 3.06 C-33.12 2.48 -33.12 2.48 -31.2 0.23 C-28.52 -0.36 -28.52 -0.36 -25.33 -0.83 C-21.18 -1.43 -21.18 -1.43 -17.09 -2.3 C-10.98 -3.8 -5.42 -3.17 0 0 Z " fill="#EBDED5" transform="translate(361.203125,306.765625)"/>
<path d="M0 0 C1.32 0.33 2.64 0.66 4 1 C4 3.31 4 5.62 4 8 C4.61 7.99 5.23 7.98 5.86 7.97 C12.25 7.88 18.64 7.82 25.03 7.78 C27.42 7.76 29.8 7.73 32.19 7.7 C35.62 7.65 39.05 7.63 42.48 7.61 C43.54 7.59 44.6 7.57 45.7 7.55 C52.94 7.54 56.37 8.55 61.64 13.56 C65.74 18.6 66.11 21.98 66.25 28.35 C66.28 29.65 66.31 30.96 66.34 32.3 C66.36 33 66.37 33.7 66.39 34.42 C66.7 48.21 67.25 61.98 67.94 75.75 C68.72 91.47 69.4 107.2 69.99 122.93 C70.08 125.28 70.17 127.62 70.26 129.96 C70.39 133.28 70.51 136.59 70.63 139.91 C70.67 140.86 70.71 141.82 70.75 142.8 C71.07 151.88 71 160.89 71 170 C42.29 170 13.58 170 -16 170 C-16 168.02 -16 166.04 -16 164 C10.73 164 37.46 164 65 164 C64.69 157.46 64.38 150.92 64.06 144.19 C63.32 128.28 62.7 112.37 62.34 96.45 C62.19 90.33 61.98 84.25 61.5 78.15 C60.8 69 60.65 59.84 60.45 50.67 C60.34 46.15 60.22 41.63 60.07 37.12 C60.02 35.72 59.98 34.33 59.94 32.93 C59.89 31.02 59.8 29.1 59.72 27.19 C59.68 26.11 59.63 25.03 59.59 23.92 C58.86 20.3 57.57 18.61 55 16 C51.95 14.13 49.69 13.75 46.14 13.77 C45.18 13.77 44.22 13.77 43.23 13.77 C41.68 13.79 41.68 13.79 40.11 13.8 C39.05 13.81 37.99 13.81 36.9 13.81 C33.52 13.82 30.13 13.85 26.75 13.88 C24.46 13.89 22.16 13.89 19.87 13.9 C14.24 13.92 8.62 13.96 3 14 C2.01 16.31 1.02 18.62 0 21 C-0.99 20.67 -1.98 20.34 -3 20 C-3.42 12.75 -2.44 6.83 0 0 Z " fill="#5E3E27" transform="translate(312,274)"/>
<path d="M0 0 C6.45 0.54 12.33 2.33 17 7 C22.06 6.67 27 5.06 31.75 3.38 C35.3 2.14 38.21 1.55 42 2 C42.99 2.66 43.98 3.32 45 4 C45.31 8.17 44.98 11.94 44 16 C44.78 16.1 45.57 16.21 46.38 16.31 C49 17 49 17 51 20 C50.62 23.19 50.62 23.19 50 26 C49.01 26 48.02 26 47 26 C46.67 24.35 46.34 22.7 46 21 C10.86 21.5 10.86 21.5 -25 22 C-25 21.01 -25 20.02 -25 19 C-26.65 20.32 -28.3 21.64 -30 23 C-30.38 22.58 -30.76 22.16 -31.15 21.72 C-36.45 16.79 -41.35 16.51 -48.27 16.4 C-56.12 16.19 -62.73 13.87 -70 11 C-69.02 8.46 -68.49 7.25 -66.01 5.99 C-65.24 5.77 -64.48 5.54 -63.69 5.31 C-62.88 5.08 -62.07 4.84 -61.23 4.59 C-60.13 4.3 -60.13 4.3 -59 4 C-58.15 3.77 -57.31 3.55 -56.44 3.31 C-47.29 2.14 -47.29 2.14 -43.94 4.38 C-43.3 4.91 -42.66 5.45 -42 6 C-33.05 9.47 -24.61 8.8 -15.9 4.97 C-14.04 4.14 -14.04 4.14 -13 3 C-10.47 2.93 -7.97 2.91 -5.44 2.94 C-4.37 2.94 -4.37 2.94 -3.28 2.95 C-1.52 2.96 0.24 2.98 2 3 C2 2.34 2 1.68 2 1 C1.01 0.5 1.01 0.5 0 0 Z " fill="#55321A" transform="translate(288,126)"/>
<path d="M0 0 C1.34 -0 1.34 -0 2.71 -0.01 C3.67 -0.01 4.63 -0.01 5.63 -0 C6.62 -0 7.61 -0.01 8.63 -0.01 C10.72 -0.01 12.81 -0.01 14.9 -0 C18.11 0 21.32 -0 24.53 -0.01 C26.57 -0.01 28.6 -0.01 30.63 -0 C31.59 -0.01 32.56 -0.01 33.55 -0.01 C34.44 -0.01 35.33 -0 36.25 0 C37.04 0 37.82 0 38.63 0 C40.56 0.13 40.56 0.13 42.56 1.13 C42.64 4.03 42.7 6.92 42.75 9.82 C42.77 10.63 42.8 11.45 42.82 12.29 C42.88 17.03 42.84 20.42 39.56 24.13 C32.92 28.44 24.82 28.15 17.21 26.67 C16.54 26.49 15.87 26.31 15.19 26.13 C6.62 23.95 -3.44 23.35 -11.25 27.88 C-13.69 29.54 -15.31 30.96 -17.08 33.33 C-17.53 33.93 -17.98 34.52 -18.44 35.13 C-19.1 35.13 -19.76 35.13 -20.44 35.13 C-21.45 14.45 -21.45 14.45 -15.44 7.13 C-10.74 2.69 -6.58 0.01 0 0 Z " fill="#F0E3DB" transform="translate(239.439697265625,32.87060546875)"/>
<path d="M0 0 C0.73 -0.02 1.45 -0.04 2.2 -0.06 C8.22 -0.11 13.01 1.11 17.75 5.09 C22.15 10.18 25.41 15.38 28.62 21.28 C30.74 24.53 33.09 26.7 36 29.25 C39.62 32.73 41.3 34.86 41.56 39.94 C41.11 44.96 39.69 49.55 37.94 54.25 C37.7 54.89 37.47 55.52 37.23 56.17 C35.25 60.89 32.92 62.73 28.56 65.25 C25.04 66.44 25.04 66.44 21.18 67.39 C20.48 67.56 19.79 67.73 19.07 67.91 C17.61 68.27 16.14 68.62 14.67 68.97 C12.46 69.49 10.26 70.05 8.05 70.6 C-2.88 73.28 -12.45 74.53 -23.44 71.25 C-27.76 70.79 -32.09 70.5 -36.44 70.25 C-36.44 68.27 -36.44 66.29 -36.44 64.25 C-31.06 61.56 -24.2 63.31 -18.7 64.78 C-4.34 67.75 10.98 62.78 24.56 58.25 C25.68 56.13 25.68 56.13 26.56 53.25 C26.82 52.61 27.08 51.97 27.35 51.3 C29.6 45.43 31.02 39.48 29.56 33.25 C27.82 30.91 25.93 29.18 23.72 27.29 C21.36 25.06 19.97 22.88 18.38 20.06 C15.13 14.35 12.01 10.24 5.56 8.25 C2.74 8.08 0.02 8.02 -2.8 8.05 C-3.99 8.06 -3.99 8.06 -5.2 8.06 C-7.72 8.07 -10.23 8.1 -12.75 8.12 C-14.46 8.14 -16.17 8.14 -17.88 8.15 C-22.07 8.17 -26.25 8.21 -30.44 8.25 C-30.77 6.6 -31.1 4.95 -31.44 3.25 C-30.28 3.12 -29.12 2.98 -27.93 2.85 C-26.39 2.67 -24.85 2.49 -23.31 2.31 C-22.55 2.23 -21.79 2.14 -21.01 2.05 C-17.79 1.67 -14.6 1.28 -11.41 0.7 C-7.59 0.12 -3.86 0.03 0 0 Z " fill="#E9DCD3" transform="translate(181.4375,343.75)"/>
<path d="M0 0 C3.01 3.01 2.6 5.82 3 10 C3.84 9.99 3.84 9.99 4.69 9.97 C10.81 10.21 13.92 11.97 18.37 16.11 C22.01 20.33 22.49 23.95 22.39 29.39 C21.61 34.63 18.72 38.44 14.88 41.94 C13 43 13 43 10 44 C10.14 45.92 10.29 47.83 10.44 49.75 C10.52 50.82 10.6 51.88 10.68 52.98 C10.95 56.19 10.95 56.19 12 60 C29.16 60.33 46.32 60.66 64 61 C64 61.33 64 61.66 64 62 C62.14 62.04 62.14 62.04 60.25 62.08 C55.68 62.17 51.11 62.27 46.54 62.37 C44.56 62.42 42.57 62.46 40.59 62.5 C37.75 62.55 34.91 62.62 32.07 62.68 C30.73 62.71 30.73 62.71 29.36 62.73 C25.36 62.44 25.36 62.44 22 64 C19.69 64.29 17.38 64.51 15.06 64.69 C13.16 64.85 13.16 64.85 11.22 65.01 C8 65 8 65 6 63 C5.36 59.38 4.84 55.77 4.41 52.12 C4.08 49.56 4.08 49.56 3 46 C0.61 44.49 0.61 44.49 -2 44 C-4.32 41.68 -4.47 40.63 -5.07 37.46 C-5.24 36.55 -5.42 35.64 -5.6 34.7 C-5.77 33.75 -5.95 32.79 -6.12 31.81 C-6.4 30.41 -6.4 30.41 -6.68 28.98 C-7.62 23.92 -8.36 19.15 -8 14 C-6.62 12.06 -6.62 12.06 -5 11 C-4.34 11 -3.68 11 -3 11 C-2.88 10.3 -2.75 9.6 -2.62 8.88 C-1.96 5.82 -1.03 2.95 0 0 Z " fill="#583720" transform="translate(184,163)"/>
<path d="M0 0 C1.01 0.22 2.02 0.44 3.06 0.67 C6.25 1.38 9.43 2.09 12.62 2.81 C14.8 3.3 16.97 3.78 19.15 4.26 C24.45 5.43 29.76 6.62 35.06 7.81 C34.4 8.8 33.74 9.79 33.06 10.81 C32.66 13.14 32.32 15.47 32.06 17.81 C25.46 18.19 19.67 18.38 13.5 15.81 C7.76 13.43 2.22 12.96 -3.94 13.81 C-6.62 16.49 -6.33 18.2 -6.57 21.94 C-6.64 23.03 -6.72 24.13 -6.79 25.26 C-6.84 26.1 -6.89 26.94 -6.94 27.81 C-14.95 26.57 -20.98 24.14 -26.44 18 C-28.3 14.06 -28.8 11.09 -27.94 6.81 C-21.51 -5.36 -11.65 -2.66 0 0 Z " fill="#EEE1D8" transform="translate(206.94140625,239.1875)"/>
<path d="M0 0 C3.1 2.13 5.37 3.74 6.8 7.23 C7.98 15.07 7.44 22.13 3.42 29.04 C-0.81 34.75 -5.29 38.41 -12.2 40.23 C-21.23 41.09 -27.61 40.43 -35.08 35.23 C-37.83 33.48 -39.71 32.69 -42.77 31.8 C-46.99 30.5 -49.36 28.7 -52.2 25.23 C-54.09 21.45 -53.8 17.35 -53.2 13.23 C-51.87 9.96 -50.16 8.15 -47.2 6.23 C-43.58 4.92 -40 3.93 -36.25 3.06 C-33.12 2.48 -33.12 2.48 -31.2 0.23 C-28.52 -0.36 -28.52 -0.36 -25.33 -0.83 C-21.18 -1.43 -21.18 -1.43 -17.09 -2.3 C-10.98 -3.8 -5.42 -3.17 0 0 Z M-21.2 5.23 C-22.72 5.58 -24.24 5.88 -25.77 6.17 C-36.67 7.9 -36.67 7.9 -46.45 12.55 C-48.61 15.86 -49.01 17.36 -48.2 21.23 C-44.95 25.74 -41.59 26.93 -36.48 28.41 C-32.88 29.71 -30.24 31.92 -27.2 34.23 C-22.13 35.93 -16.34 36.18 -11.17 34.62 C-6.03 31.97 -0.45 26.83 1.47 21.29 C2.12 17.23 2.4 13.32 1.8 9.23 C-0.73 5.89 -2.24 4.55 -6.2 3.23 C-11.69 2.83 -16.15 2.96 -21.2 5.23 Z " fill="#58361E" transform="translate(361.203125,306.765625)"/>
<path d="M0 0 C4.98 -0.38 8.33 -0.02 12.94 1.94 C20.38 4.91 28.09 4.81 36 5 C36.67 7.1 37.34 9.21 38 11.31 C38.37 12.48 38.74 13.66 39.12 14.86 C40 18 40 18 40 21 C39.15 21.19 38.29 21.39 37.41 21.59 C36.31 21.85 35.2 22.11 34.06 22.38 C32.96 22.63 31.86 22.89 30.72 23.15 C29.82 23.43 28.93 23.71 28 24 C27.67 24.66 27.34 25.32 27 26 C26.34 26 25.68 26 25 26 C24.34 23.69 23.68 21.38 23 19 C21.68 19 20.36 19 19 19 C19.25 19.83 19.25 19.83 19.5 20.67 C20.06 23.27 20.1 25.6 20.06 28.25 C20.05 29.14 20.04 30.03 20.04 30.95 C20.02 31.63 20.01 32.3 20 33 C18.35 33.66 16.7 34.32 15 35 C14.94 34.28 14.88 33.55 14.82 32.8 C14.39 27.83 13.93 22.91 13 18 C11.35 18.33 9.7 18.66 8 19 C8.14 19.55 8.29 20.09 8.44 20.65 C9.82 26.25 10.18 31.24 10 37 C8.02 37.5 8.02 37.5 6 38 C3.13 25.42 1.13 12.86 0 0 Z " fill="#ECDFD6" transform="translate(205,257)"/>
<path d="M0 0 C4.61 -0.15 9.21 -0.26 13.82 -0.33 C15.39 -0.36 16.96 -0.4 18.52 -0.45 C20.78 -0.53 23.04 -0.56 25.29 -0.59 C25.99 -0.62 26.69 -0.65 27.4 -0.68 C30.21 -0.68 32.36 -0.58 34.5 1.35 C35.72 2.86 36.87 4.43 38 6 C40.43 6.93 40.43 6.93 42.94 6.75 C44.16 6.77 44.16 6.77 45.4 6.8 C48.33 6.18 48.33 6.18 50.29 2.98 C53.06 -0.01 55.46 -0.41 59.48 -0.57 C63.11 -0.59 66.74 -0.5 70.38 -0.38 C71.89 -0.34 73.4 -0.32 74.92 -0.29 C78.61 -0.23 82.31 -0.12 86 0 C86 1.32 86 2.64 86 4 C84.9 4.29 83.79 4.58 82.65 4.88 C81.91 5.08 81.17 5.27 80.41 5.47 C78.74 5.91 77.07 6.35 75.4 6.79 C70.56 8.06 65.72 9.35 60.9 10.67 C58.87 11.22 56.84 11.76 54.81 12.31 C53.86 12.58 52.9 12.85 51.92 13.12 C51 13.37 50.09 13.61 49.14 13.86 C47.94 14.19 47.94 14.19 46.72 14.53 C40.19 15.66 34.24 14.88 27.85 13.5 C27.11 13.35 26.37 13.2 25.61 13.04 C24.07 12.72 22.52 12.39 20.98 12.06 C18.61 11.56 16.24 11.07 13.87 10.58 C12.36 10.26 10.86 9.95 9.35 9.63 C8.64 9.48 7.93 9.33 7.21 9.18 C2.23 8.12 2.23 8.12 0 7 C0 4.69 0 2.38 0 0 Z " fill="#EFE1D9" transform="translate(215,229)"/>
<path d="M0 0 C0.64 0.54 1.28 1.07 1.94 1.62 C10.89 5.1 19.33 4.43 28.04 0.6 C29.9 -0.23 29.9 -0.23 30.94 -1.38 C39.22 -1.44 46.36 0.42 53.94 3.62 C53.94 4.62 53.94 5.6 53.94 6.62 C44.88 10.11 37.06 12.18 27.28 12.29 C21.92 12.83 18.06 15.29 13.94 18.62 C13.56 18.2 13.18 17.78 12.79 17.35 C7.49 12.42 2.59 12.13 -4.33 12.03 C-12.18 11.82 -18.79 9.49 -26.06 6.62 C-25.08 4.08 -24.55 2.87 -22.07 1.61 C-21.31 1.39 -20.54 1.17 -19.75 0.94 C-18.94 0.7 -18.13 0.46 -17.3 0.22 C-16.56 0.02 -15.82 -0.17 -15.06 -0.38 C-14.22 -0.6 -13.37 -0.83 -12.5 -1.06 C-3.35 -2.24 -3.35 -2.24 0 0 Z " fill="#ECDED5" transform="translate(244.0625,130.375)"/>
<path d="M0 0 C0 0.99 0 1.98 0 3 C0.99 3.5 0.99 3.5 2 4 C0.44 4.65 -1.12 5.3 -2.69 5.94 C-3.56 6.3 -4.43 6.66 -5.32 7.03 C-7.88 7.96 -10.32 8.54 -13 9 C-13 10.65 -13 12.3 -13 14 C-13.5 13.01 -13.5 13.01 -14 12 C-16.02 11.35 -16.02 11.35 -18 11 C-19.3 16.78 -20.12 22.05 -20 28 C-20.5 29.49 -20.5 29.49 -21 31 C-20.34 31.33 -19.68 31.66 -19 32 C-20 33 -20 33 -22.73 33.22 C-26.32 32.98 -28.26 32.19 -31.38 30.44 C-32.33 29.9 -33.29 29.37 -34.28 28.81 C-36.91 27.06 -38.79 25.23 -40.94 22.94 C-43.39 20.67 -44.32 19.98 -47.7 20.09 C-50.9 20.86 -53.91 21.87 -57 23 C-59.33 23.76 -61.66 24.51 -64 25.25 C-65.05 25.61 -66.1 25.96 -67.19 26.33 C-69.99 27 -71.34 27 -74 26 C-74 25.34 -74 24.68 -74 24 C-75.32 23.67 -76.64 23.34 -78 23 C-77.67 21.68 -77.34 20.36 -77 19 C-77 19.99 -77 20.98 -77 22 C-69.53 20.1 -62.17 18.12 -54.88 15.62 C-47.91 13.25 -40.87 11.23 -33.79 9.24 C-28.37 7.71 -23.01 6.07 -17.69 4.25 C-5.21 0 -5.21 0 0 0 Z " fill="#593720" transform="translate(330,263)"/>
<path d="M0 0 C1.65 0 3.3 0 5 0 C5 31.02 5 62.04 5 94 C3.35 94 1.7 94 0 94 C0 62.98 0 31.96 0 0 Z " fill="#4F2913" transform="translate(280,321)"/>
<path d="M0 0 C2.61 1.5 4.87 2.87 7 5 C7.69 11.93 7.69 11.93 5.23 15.73 C0.32 19.18 -4.27 18.65 -10.12 18.5 C-11.22 18.5 -12.32 18.51 -13.45 18.51 C-21.47 18.41 -21.47 18.41 -23.81 16.59 C-25.3 14.61 -25.4 13.46 -25.38 11 C-25.38 10.32 -25.39 9.64 -25.4 8.94 C-24.87 6.36 -24.13 5.54 -22 4 C-19.44 3.34 -19.44 3.34 -16.56 2.94 C-10.52 2.07 -6.25 -0.65 0 0 Z " fill="#58361F" transform="translate(182,373)"/>
<path d="M0 0 C1.98 0 3.96 0 6 0 C6 25.08 6 50.16 6 76 C4.02 76 2.04 76 0 76 C0 50.92 0 25.84 0 0 Z " fill="#5F412B" transform="translate(325,357)"/>
<path d="M0 0 C1.68 0.29 3.34 0.62 5 1 C4.32 3.97 3.39 6.73 2.29 9.57 C-2.15 21.26 -5.73 32.7 -8 45 C-8.19 45.97 -8.37 46.94 -8.56 47.95 C-9.13 51.92 -9.36 55.87 -9.56 59.88 C-9.61 60.66 -9.65 61.44 -9.69 62.25 C-9.8 64.17 -9.9 66.08 -10 68 C-11.98 68 -13.96 68 -16 68 C-16.97 45.44 -11.13 21.16 -1 1 C-0.67 0.67 -0.34 0.34 0 0 Z " fill="#5A3922" transform="translate(406,376)"/>
<path d="M0 0 C0.33 0 0.66 0 1 0 C1 1.98 1 3.96 1 6 C1.66 6 2.32 6 3 6 C3 7.65 3 9.3 3 11 C-25.38 11 -53.76 11 -83 11 C-83 9.68 -83 8.36 -83 7 C-42.9 6.5 -42.9 6.5 -2 6 C-1.34 4.02 -0.68 2.04 0 0 Z " fill="#502D14" transform="translate(380,432)"/>
<path d="M0 0 C1.75 3.08 1.47 5.41 1.06 8.88 C-2.01 14.41 -2.01 14.41 -4.94 15.88 C-6.6 16 -8.27 16.05 -9.94 16.06 C-11.27 16.08 -11.27 16.08 -12.62 16.11 C-14.94 15.88 -14.94 15.88 -16.94 13.88 C-17.76 13.57 -18.59 13.26 -19.44 12.94 C-21.94 11.88 -21.94 11.88 -23.94 8.88 C-24.28 6.14 -24.46 4.58 -22.78 2.33 C-16.95 -2.27 -6.53 -3.79 0 0 Z " fill="#56331B" transform="translate(350.9375,319.125)"/>
<path d="M0 0 C1.17 -0 1.17 -0 2.37 -0.01 C4.56 0.12 4.56 0.12 7.56 1.12 C7.08 8.72 5.56 15.8 3.56 23.12 C-3.64 23.61 -3.64 23.61 -7.31 21.38 C-10.99 17.48 -11.95 14.66 -11.83 9.16 C-11.12 5.51 -9.06 3.69 -6.44 1.12 C-4.08 -0.05 -2.62 -0.01 0 0 Z " fill="#ECDFD6" transform="translate(327.4375,178.875)"/>
<path d="M0 0 C3.13 1.44 5.14 3.09 7 6 C8.06 10.22 8.06 14.08 5.93 17.94 C4.19 20.11 2.49 21.75 0 23 C-2.67 23.13 -5.32 23.04 -8 23 C-8.51 20.46 -9.01 17.92 -9.5 15.38 C-9.64 14.66 -9.79 13.95 -9.93 13.21 C-10.73 9.08 -11.16 5.24 -11 1 C-7.46 -0.77 -3.85 -0.63 0 0 Z " fill="#F0E3DA" transform="translate(193,179)"/>
<path d="M0 0 C1.98 0 3.96 0 6 0 C6 16.83 6 33.66 6 51 C4.02 51 2.04 51 0 51 C0 34.17 0 17.34 0 0 Z " fill="#5E3F29" transform="translate(313,366)"/>
<path d="M0 0 C1.98 0 3.96 0 6 0 C6 16.5 6 33 6 50 C4.02 50 2.04 50 0 50 C0 33.5 0 17 0 0 Z " fill="#61422C" transform="translate(268,335)"/>
<path d="M0 0 C0.99 0.33 1.98 0.66 3 1 C4.28 3.62 4.28 3.62 5.5 7 C6.15 8.78 6.15 8.78 6.8 10.6 C7.2 11.72 7.59 12.84 8 14 C8.44 15.17 8.44 15.17 8.88 16.37 C12.39 26.15 15.22 37.45 15.06 47.88 C15.05 48.66 15.04 49.44 15.04 50.24 C15.02 50.82 15.01 51.4 15 52 C13.02 52 11.04 52 9 52 C8.9 50.89 8.8 49.77 8.7 48.62 C7.36 34.52 4.92 21.46 -0.95 8.45 C-1.87 6.3 -2.51 4.29 -3 2 C-2.01 1.34 -1.02 0.68 0 0 Z " fill="#5A3821" transform="translate(121,392)"/>
<path d="M0 0 C1.65 0 3.3 0 5 0 C5 18.15 5 36.3 5 55 C3.35 55 1.7 55 0 55 C0 36.85 0 18.7 0 0 Z " fill="#522E14" transform="translate(337,370)"/>
<path d="M0 0 C7.65 0.79 14.79 2.85 22.11 5.12 C21.12 5.61 21.12 5.61 20.11 6.12 C20.44 7.11 20.77 8.1 21.11 9.12 C20.45 9.12 19.79 9.12 19.11 9.12 C19.11 9.78 19.11 10.44 19.11 11.12 C20.06 11.24 21.01 11.36 21.98 11.49 C25.11 12.12 25.11 12.12 27.11 14.12 C19.19 14.12 11.27 14.12 3.11 14.12 C2.78 12.8 2.45 11.48 2.11 10.12 C1.45 10.12 0.79 10.12 0.11 10.12 C0.11 9.46 0.11 8.8 0.11 8.12 C-1.21 8.12 -2.53 8.12 -3.89 8.12 C-4.02 5.24 -4.02 5.24 -3.89 2.12 C-1.89 0.12 -1.89 0.12 0 0 Z " fill="#5A3921" transform="translate(187.890625,127.8828125)"/>
<path d="M0 0 C1.98 0 3.96 0 6 0 C6 13.53 6 27.06 6 41 C4.02 41 2.04 41 0 41 C0 27.47 0 13.94 0 0 Z " fill="#5F402B" transform="translate(231,309)"/>
<path d="M0 0 C0.33 0 0.66 0 1 0 C1 3.3 1 6.6 1 10 C15.52 10 30.04 10 45 10 C43.77 8.54 43.77 8.54 40.03 8.89 C38.26 8.89 36.49 8.89 34.71 8.9 C33.78 8.9 32.85 8.91 31.89 8.91 C28.91 8.91 25.92 8.92 22.94 8.94 C20.92 8.94 18.9 8.95 16.88 8.95 C11.92 8.96 6.96 8.98 2 9 C2.33 6.69 2.66 4.38 3 2 C3.33 2.99 3.66 3.98 4 5 C17.86 5 31.72 5 46 5 C46 6.98 46 8.96 46 11 C30.82 11 15.64 11 0 11 C0 7.37 0 3.74 0 0 Z " fill="#6C503D" transform="translate(137,433)"/>
<path d="M0 0 C1.32 0.66 2.64 1.32 4 2 C3.42 5.66 2.4 8.44 0.62 11.69 C-4.57 21.92 -5.41 30.63 -5 42 C-6.98 42 -8.96 42 -11 42 C-11.67 26.47 -9.35 14.47 -1 1 C-0.67 0.67 -0.34 0.34 0 0 Z " fill="#57341D" transform="translate(411,402)"/>
<path d="M0 0 C-0.99 5.28 -1.98 10.56 -3 16 C-10.9 14.87 -10.9 14.87 -15.38 11.56 C-16.66 10.64 -16.66 10.64 -17.96 9.69 C-20 8 -20 8 -21 6 C-18.06 4.99 -15.13 4 -12.19 3 C-11.35 2.71 -10.52 2.43 -9.66 2.13 C-8.46 1.73 -8.46 1.73 -7.23 1.31 C-6.49 1.06 -5.75 0.81 -4.99 0.55 C-3 0 -3 0 0 0 Z " fill="#E6D8CF" transform="translate(312,274)"/>
<path d="M0 0 C1.98 0.79 1.98 0.79 3.68 4.36 C4.22 5.91 4.74 7.47 5.23 9.04 C5.63 10.25 5.63 10.25 6.03 11.48 C8.15 18.4 8.67 24.55 7.98 31.79 C6 31.79 4.02 31.79 1.98 31.79 C1.94 30.48 1.94 30.48 1.9 29.15 C1.55 21.72 0.55 15.37 -2.08 8.41 C-2.99 5.87 -3.56 3.43 -4.02 0.79 C-2.02 -0.21 -2.02 -0.21 0 0 Z " fill="#583721" transform="translate(117.0185546875,412.2138671875)"/>
<path d="M0 0 C3.75 1.2 5.42 3.5 7.23 6.92 C8.63 10.71 8.42 14.45 8.25 18.44 C8.23 19.26 8.21 20.09 8.2 20.94 C8.15 22.96 8.08 24.98 8 27 C6.68 26.12 5.37 25.22 4.06 24.31 C3.33 23.81 2.6 23.31 1.85 22.8 C-0.54 20.48 -0.74 19.31 -1 16 C-0.92 13.21 -0.78 10.47 -0.56 7.69 C-0.51 6.95 -0.46 6.21 -0.4 5.44 C-0.28 3.63 -0.14 1.81 0 0 Z " fill="#E4D7CD" transform="translate(287,38)"/>
<path d="M0 0 C0.68 0.16 1.37 0.32 2.07 0.49 C10.21 1.9 18.88 1.3 27 0 C26.81 2.31 26.81 2.31 26 5 C21.95 8.19 18.63 8.41 13.56 8.38 C11.65 8.39 11.65 8.39 9.69 8.4 C5.81 7.98 3.34 6.95 0 5 C0 3.35 0 1.7 0 0 Z " fill="#E9DCD3" transform="translate(245,121)"/>
<path d="M0 0 C0.33 0.33 0.66 0.66 1 1 C0.4 7.6 0.4 7.6 -2 10 C-8.04 10.71 -11.1 9.2 -16 6 C-15.67 5.01 -15.34 4.02 -15 3 C-12.89 2.05 -12.89 2.05 -10.25 1.31 C-9.39 1.06 -8.53 0.81 -7.64 0.55 C-4.99 -0 -2.69 -0.17 0 0 Z " fill="#E8DBD2" transform="translate(347,321)"/>
<path d="M0 0 C0.04 2.33 0.04 4.67 0 7 C-1 8 -1 8 -3.32 8.11 C-4.32 8.11 -5.32 8.1 -6.35 8.1 C-7.43 8.09 -8.51 8.09 -9.62 8.09 C-10.76 8.08 -11.89 8.07 -13.06 8.06 C-14.2 8.06 -15.34 8.05 -16.52 8.05 C-19.35 8.04 -22.17 8.02 -25 8 C-24 6 -24 6 -21.3 5 C-20.17 4.67 -19.04 4.34 -17.88 4 C-16.7 3.65 -15.52 3.31 -14.31 2.95 C-13.22 2.64 -12.12 2.32 -11 2 C-10.25 1.77 -9.5 1.54 -8.72 1.3 C-5.6 0.34 -3.33 0 0 0 Z " fill="#DFD1C7" transform="translate(327,134)"/>
<path d="M0 0 C7 3.11 11.54 8.25 15 15 C15 16.32 15 17.64 15 19 C12.72 19.3 12.72 19.3 10 19 C8.16 16.95 8.16 16.95 6.5 14.25 C4.02 10.42 1.85 7.57 -2 5 C-1.34 3.35 -0.68 1.7 0 0 Z " fill="#58361E" transform="translate(238,424)"/>
<path d="M0 0 C1.65 0 3.3 0 5 0 C5 7.92 5 15.84 5 24 C3.35 24 1.7 24 0 24 C0 16.08 0 8.16 0 0 Z " fill="#522F14" transform="translate(221,314)"/>
<path d="M0 0 C21.43 4.43 21.43 4.43 25 8 C21.02 8.03 17.04 8.05 13.06 8.06 C11.36 8.08 11.36 8.08 9.62 8.09 C8.54 8.09 7.46 8.09 6.35 8.1 C4.85 8.11 4.85 8.11 3.32 8.11 C1 8 1 8 0 7 C-0.04 4.67 -0.04 2.33 0 0 Z " fill="#E2D4CB" transform="translate(190,134)"/>
<path d="M0 0 C1.98 0 3.96 0 6 0 C6 6.27 6 12.54 6 19 C4.02 19 2.04 19 0 19 C0 12.73 0 6.46 0 0 Z " fill="#64442F" transform="translate(258,425)"/>
<path d="M0 0 C0.66 0.66 1.32 1.32 2 2 C1.67 3.32 1.34 4.64 1 6 C-5.6 6.33 -12.2 6.66 -19 7 C-19 5.68 -19 4.36 -19 3 C-18.31 2.87 -17.63 2.73 -16.92 2.6 C-15.57 2.33 -15.57 2.33 -14.19 2.06 C-12.85 1.8 -12.85 1.8 -11.48 1.54 C-3.37 -0.22 -3.37 -0.22 0 0 Z " fill="#E5D8CF" transform="translate(182,379)"/>
<path d="M0 0 C1.65 0.33 3.3 0.66 5 1 C4.87 1.63 4.73 2.26 4.6 2.91 C3.49 8.26 2.6 13.56 2 19 C0.35 19 -1.3 19 -3 19 C-3.39 12.02 -2.63 6.48 0 0 Z " fill="#543119" transform="translate(269,424)"/>
<path d="M0 0 C0.88 3.1 0.99 4.91 0 8 C1.32 8.33 2.64 8.66 4 9 C3.8 9.64 3.59 10.29 3.38 10.95 C1.19 18.3 0.35 25.35 0 33 C-0.33 33 -0.66 33 -1 33 C-1.33 29.37 -1.66 25.74 -2 22 C-2.33 23.98 -2.66 25.96 -3 28 C-3.33 28 -3.66 28 -4 28 C-4.24 21.56 -3.35 15.79 -2 9.5 C-1.81 8.58 -1.62 7.66 -1.42 6.72 C-0.95 4.48 -0.48 2.24 0 0 Z " fill="#DBCDC3" transform="translate(400,407)"/>
<path d="M0 0 C1.48 0.99 1.48 0.99 3 2 C3.66 2 4.32 2 5 2 C5.66 1.34 6.32 0.68 7 0 C8.32 6.43 9.25 12.43 9 19 C8.01 18.01 7.02 17.02 6 16 C5.67 17.98 5.34 19.96 5 22 C4.67 22 4.34 22 4 22 C3.96 21.33 3.93 20.67 3.89 19.98 C3.39 13.02 2.05 6.67 0 0 Z " fill="#E1D3C9" transform="translate(121,420)"/>
<path d="M0 0 C21.45 0 42.9 0 65 0 C65 2.31 65 4.62 65 7 C64.71 6.36 64.42 5.72 64.12 5.06 C63.17 2.85 63.17 2.85 61 2 C59.06 1.88 57.12 1.82 55.17 1.79 C53.95 1.77 52.73 1.75 51.47 1.73 C50.14 1.72 48.8 1.7 47.46 1.68 C46.1 1.66 44.73 1.64 43.37 1.62 C39.77 1.57 36.18 1.52 32.59 1.47 C28.92 1.42 25.25 1.36 21.59 1.31 C14.39 1.2 7.2 1.1 0 1 C0 0.67 0 0.34 0 0 Z " fill="#B19F95" transform="translate(269,147)"/>
<path d="M0 0 C0.66 0 1.32 0 2 0 C2.94 3.16 3.11 5.97 3.06 9.25 C3.05 10.14 3.04 11.03 3.04 11.95 C3.02 12.63 3.01 13.3 3 14 C1.35 14.66 -0.3 15.32 -2 16 C-2 12.37 -2 8.74 -2 5 C-1.01 5 -0.02 5 1 5 C0.67 3.35 0.34 1.7 0 0 Z " fill="#C7B6AC" transform="translate(222,276)"/>
<path d="M0 0 C0.66 0 1.32 0 2 0 C2.08 2.29 2.14 4.58 2.19 6.88 C2.22 8.15 2.26 9.43 2.29 10.74 C2.2 11.82 2.1 12.89 2 14 C1.01 14.66 0.02 15.32 -1 16 C-1 14.68 -1 13.36 -1 12 C-1.66 12 -2.32 12 -3 12 C-3 11.01 -3 10.02 -3 9 C-2.01 9 -1.02 9 0 9 C0 6.03 0 3.06 0 0 Z " fill="#694A33" transform="translate(225,378)"/>
<path d="M0 0 C0.66 0 1.32 0 2 0 C2 4.29 2 8.58 2 13 C0.02 13 -1.96 13 -4 13 C-3.67 10.36 -3.34 7.72 -3 5 C-2.67 5 -2.34 5 -2 5 C-2 6.98 -2 8.96 -2 11 C-1.34 11 -0.68 11 0 11 C0 7.37 0 3.74 0 0 Z " fill="#694A34" transform="translate(123,431)"/>
<path d="M0 0 C2.47 1.15 4.05 2.05 6 4 C4.33 4.04 2.67 4.04 1 4 C0.67 3.67 0.34 3.34 0 3 C0 4.98 0 6.96 0 9 C0.66 9.33 1.32 9.66 2 10 C2 10.66 2 11.32 2 12 C0.06 11.44 0.06 11.44 -2 10 C-2.94 6.56 -2.94 6.56 -3 3 C-1.56 1.06 -1.56 1.06 0 0 Z " fill="#63432E" transform="translate(330,320)"/>
<path d="M0 0 C1.23 0.01 1.23 0.01 2.48 0.03 C3.42 0.04 3.42 0.04 4.38 0.06 C4.04 0.72 3.72 1.38 3.38 2.06 C1.05 2.47 -1.28 2.81 -3.62 3.06 C-3.96 4.38 -4.28 5.7 -4.62 7.06 C-5.28 7.06 -5.94 7.06 -6.62 7.06 C-6.62 5.08 -6.62 3.1 -6.62 1.06 C-4.22 -0.14 -2.68 -0.04 0 0 Z " fill="#DECFC6" transform="translate(188.625,178.9375)"/>
<path d="M0 0 C0.56 0.27 1.11 0.54 1.69 0.81 C0.7 0.81 -0.29 0.81 -1.31 0.81 C-3.05 4.04 -4.2 7.33 -5.31 10.81 C-5.97 10.81 -6.63 10.81 -7.31 10.81 C-7.79 6.7 -7.63 5.23 -5.06 1.88 C-2.31 -0.19 -2.31 -0.19 0 0 Z " fill="#DCCEC4" transform="translate(320.3125,317.1875)"/>
<path d="M0 0 C-4.46 1.49 -4.46 1.49 -9 3 C-8.34 3.66 -7.68 4.32 -7 5 C-8.65 5 -10.3 5 -12 5 C-12 3.68 -12 2.36 -12 1 C-10.38 0.64 -8.75 0.29 -7.12 -0.06 C-6.22 -0.26 -5.32 -0.46 -4.38 -0.66 C-2 -1 -2 -1 0 0 Z " fill="#CEBEB4" transform="translate(175,381)"/>
<path d="M0 0 C5.28 0.66 10.56 1.32 16 2 C16 2.33 16 2.66 16 3 C7.59 3.5 7.59 3.5 -1 4 C-0.67 2.68 -0.34 1.36 0 0 Z " fill="#4F2808" transform="translate(169,352)"/>
<path d="M0 0 C-0.38 2.44 -0.38 2.44 -1 5 C-1.99 5.5 -1.99 5.5 -3 6 C-3 5.34 -3 4.68 -3 4 C-3.66 4 -4.32 4 -5 4 C-5 3.34 -5 2.68 -5 2 C-5.99 1.67 -6.98 1.34 -8 1 C-5.07 0.02 -3.04 -0.08 0 0 Z " fill="#DBCDC3" transform="translate(272,121)"/>
<path d="M0 0 C1.32 0.33 2.64 0.66 4 1 C2.02 2.98 0.04 4.96 -2 7 C-2.99 6.67 -3.98 6.34 -5 6 C-3.35 4.02 -1.7 2.04 0 0 Z " fill="#E1D3C9" transform="translate(227,37)"/>
<path d="M0 0 C1.49 0.99 1.49 0.99 3 2 C3.38 5.5 3.38 5.5 3 9 C2.01 9.66 1.02 10.32 0 11 C-0.19 9.35 -0.38 7.71 -0.56 6.06 C-0.67 5.15 -0.77 4.23 -0.88 3.29 C-0.92 2.53 -0.96 1.78 -1 1 C-0.67 0.67 -0.34 0.34 0 0 Z " fill="#DBCDC3" transform="translate(135,424)"/>
<path d="M0 0 C0.88 3.1 0.99 4.91 0 8 C1.32 8.33 2.64 8.66 4 9 C3.67 9.99 3.34 10.98 3 12 C1.68 12 0.36 12 -1 12 C-2.46 7.48 -1.27 4.48 0 0 Z " fill="#C9B9AF" transform="translate(400,407)"/>
<path d="M0 0 C0.33 0 0.66 0 1 0 C1 5.28 1 10.56 1 16 C-0.32 15.67 -1.64 15.34 -3 15 C-2.01 10.05 -1.02 5.1 0 0 Z " fill="#CCBCB2" transform="translate(328,213)"/>
<path d="M0 0 C0.99 0 1.98 0 3 0 C3 2.31 3 4.62 3 7 C2.01 7.33 1.02 7.66 0 8 C0 5.36 0 2.72 0 0 Z " fill="#F3E6DD" transform="translate(221,283)"/>
<path d="M0 0 C-0.99 0 -1.98 0 -3 0 C-3 0.66 -3 1.32 -3 2 C-4.32 2 -5.64 2 -7 2 C-7 2.99 -7 3.98 -7 5 C-7.99 4.67 -8.98 4.34 -10 4 C-9 1 -9 1 -6.69 -0.25 C-3.9 -1.03 -2.67 -0.99 0 0 Z " fill="#D4C5BB" transform="translate(341,323)"/>
<path d="M0 0 C2.64 0 5.28 0 8 0 C8 0.66 8 1.32 8 2 C5.36 2.33 2.72 2.66 0 3 C0 2.01 0 1.02 0 0 Z " fill="#B4A297" transform="translate(307,228)"/>
</svg>
