<svg xmlns="http://www.w3.org/2000/svg" xml:space="preserve" id="Layer_1" x="0" y="0" style="enable-background:new 0 0 231.7 122.9" version="1.1" viewBox="0 0 231.7 122.9"><style>.st1{fill:#003a70}</style><ellipse cx="118.9" cy="56.2" rx="100.8" ry="50.5" style="fill:#fff" transform="matrix(.9961 -.08771 .08771 .9961 -4.472 10.65)"/><path d="M220.2 45.9c3.9 31.4-42.3 62.9-103.2 70.4S4.1 104.4.2 73s42-62.9 102.9-70.4 113.3 11.9 117.1 43.3zm-105.7-40C59 10.8 16 37.3 18.5 65.1s49.4 46.4 104.9 41.5 98.5-31.4 96-59.2C216.9 19.5 170 1 114.5 5.9z" style="fill:#00953b"/><circle cx="218.9" cy="61.6" r="11.6" style="fill:#d7282f"/><path d="M215.5 19.9c.5 0 .9.1 1.4.4.4.2.8.6 1 1 .3.5.4.9.4 1.4 0 .5-.1 1-.4 1.4-.2.4-.6.8-1 1-.4.2-.9.4-1.4.4-.5 0-1-.1-1.4-.4-.4-.2-.8-.6-1-1-.2-.4-.4-.9-.4-1.4 0-.5.1-1 .4-1.4.3-.4.6-.8 1.1-1 .4-.3.9-.4 1.3-.4zm0 .2c-.4 0-.8.1-1.3.3s-.7.5-1 .9c-.2.4-.3.8-.3 1.3 0 .4.1.9.3 1.3.2.4.5.7.9.9.4.2.8.3 1.3.3.4 0 .9-.1 1.3-.3.4-.2.7-.5.9-.9.2-.4.3-.8.3-1.3 0-.4-.1-.9-.3-1.3-.2-.4-.5-.7-1-.9s-.6-.3-1.1-.3zm-1.5.8h1.5c.4 0 .7.1.9.3s.3.4.3.6c0 .2-.1.4-.2.5-.1.2-.4.3-.7.3l.8 1.2.3.3c.1 0 .1.1.2.1v.1h-.7l-1.2-1.6h-.3V24c0 .1.1.2.1.2.1 0 .2.1.4.1v.1h-1.5v-.1h.3c.1 0 .1-.1.1-.1v-2.8c0-.1-.1-.1-.1-.1h-.3v-.4zm.9 1.7c.3 0 .5 0 .7-.1.1-.1.3-.1.3-.3.1-.1.1-.2.1-.4s-.1-.4-.2-.5c-.1-.1-.3-.2-.6-.2-.1 0-.2 0-.3.1v1.4zM59.3 51.8h.4c1.3.1 1.9.5 2.1.7.2.2.5.9.5 3v8.4c0 2-.2 3.5-.7 4.4-.8 1.6-2.4 2.4-4.9 2.4-2.2 0-3.7-.8-4.5-2.3-.4-.9-.6-2.1-.6-3.8V54.2c0-1.4.3-1.8.4-1.9.2-.1.7-.4 2.1-.5h.4v-1.5H44.4v1.5h.4c1.5.1 1.9.4 2.1.5.1.1.4.5.4 1.9v10.1c0 2.1.4 3.8 1.1 5.1 1.4 2.4 3.9 3.7 7.6 3.7 3.7 0 6.3-1.2 7.6-3.7.7-1.3 1.1-3.2 1.1-5.5v-8.4c0-2.1.3-2.7.5-2.9.2-.3.7-.6 2.1-.7h.4v-1.5h-8.5v1.4zm-21 5.4L34.8 55c-1.3-.8-2.2-1.5-2.8-2.2-.6-.6-.8-1.4-.8-2.3 0-1 .3-1.8 1-2.3.7-.6 1.6-.9 2.6-.9 1.3 0 2.6.5 4 1.4 1.3.9 2.3 2.7 2.9 5.1l.1.4h1.9l-1-9.4H41v.3c-.1.4-.2.6-.4.8-.1.1-.3.2-.6.2 0 0-.4-.1-2.1-.6-1.3-.5-2.5-.7-3.4-.7-2.3 0-4.2.7-5.7 2.1-1.4 1.4-2.1 3.2-2.1 5.4 0 1.6.6 3.1 1.8 4.5.6.7 1.5 1.4 2.5 2.1l3.4 2.1c1.9 1.2 3.2 2.1 3.8 2.7.9.9 1.3 1.9 1.3 3.1 0 1.3-.4 2.3-1.2 3-.8.7-1.8 1.1-3 1.1-2.2 0-4-.9-5.5-2.6-.9-1-1.6-2.4-2.3-4.1l-.1-.3h-1.8l1.3 9.5h1.7l.1-.4c0-.3.1-.5.3-.8.1-.1.3-.2.5-.2 0 0 .4 0 2.2.7 1.4.5 2.8.7 4 .7 2.6 0 4.7-.8 6.4-2.2 1.7-1.5 2.5-3.4 2.5-5.6 0-1.7-.5-3.1-1.4-4.3-1.1-1.5-2.6-2.8-4.9-4.1zm38.1 6.1h1.4c2.5 0 4.6-.5 6.3-1.6 1.8-1.1 2.6-2.8 2.6-5.2 0-1.9-.8-3.4-2.4-4.6-1.5-1.1-3.7-1.7-6.6-1.7h-9v1.5h.4c1.4.1 1.8.4 1.9.5.1.1.4.6.4 1.9v14c0 1.6-.2 2.1-.3 2.3-.1.1-.5.4-2 .6h-.4v1.5h10V71h-.4c-1.6-.1-2.1-.4-2.2-.5-.1-.1-.4-.5-.4-1.9v-5.4c.2 0 .4.1.7.1zM75.7 53c0-.4.1-.5.1-.5s.2-.1.9-.1c1.3 0 2.4.2 3.3.6 1.5.7 2.3 1.9 2.3 3.6 0 1.9-.7 3.2-2.1 3.9-.8.4-1.9.6-3.3.6h-.5c-.1 0-.4 0-.7-.1v-8z" class="st1"/><path d="m103.2 66.2-.1.3c-.8 1.7-1.6 2.8-2.6 3.2-1 .4-2.5.7-4.7.7-2.6 0-3.3-.1-3.5-.2-.1 0-.3-.1-.3-.7V62h4.5c1.6 0 2.1.3 2.3.5.2.2.5.8.8 2.3l.1.4h1.6v-8.4h-1.6l-.1.4c-.3 1.4-.6 2-.8 2.2-.2.2-.7.5-2.3.5H92V53c0-.4.1-.5 0-.5 0 0 .2-.1.5-.1h4.4c2.3 0 3.1.3 3.4.5.3.2.7.9 1.1 2.5l.1.4h1.7l-.1-5.6H85v1.5h.4c1.4.1 1.9.4 2 .5.1.1.4.6.4 1.9v14.4c0 1.5-.3 1.8-.4 1.9-.2.1-.6.4-2.1.5h-.4v1.5h18.4L105 66h-1.8z" class="st1"/><path d="M124.2 70.7c-.4-.2-.7-.5-1.1-1l-6.2-7.6c1.5-.3 2.8-.9 3.7-1.7 1.2-1 1.8-2.3 1.8-4.1 0-2.6-1.3-4.4-3.9-5.4-1.3-.5-2.9-.7-4.8-.7h-9.5v1.5h.4c1.4.1 1.8.4 2 .5.1.1.4.6.4 1.9v14c0 1.7-.2 2.1-.3 2.3-.1.1-.5.4-2 .6h-.4v1.5h10V71h-.4c-1.5-.1-1.9-.4-2.1-.5-.1-.1-.4-.5-.4-1.9v-5.9h.7l8.1 10h5.9v-1.5h-.4c-.6-.2-1.1-.3-1.5-.5zm-12.9-10.2V53c0-.4.1-.5.1-.5s.3-.1 1.4-.1c1.3 0 2.3.2 3.1.5 1.4.6 2 1.7 2 3.4s-.7 2.9-2.3 3.5c-.8.4-2.3.7-4.3.7zm30.1 5.2-7.1-15.5h-7.2v1.5h.5c1.6.1 2.1.4 2.2.5.2.1.4.6.4 1.9v13.2c0 2.1-.3 2.7-.5 3-.2.2-.7.6-2.3.7h-.4v1.5h8.6V71h-.4c-1.4-.1-1.8-.4-2-.6-.3-.3-.6-1.1-.6-3.1V56.7l7.4 16h1.1l7.5-16.7v12.3c0 1.7-.3 2.2-.4 2.3-.1.1-.5.4-2.1.5h-.4v1.5h10v-1.5h-.4c-1.4-.1-1.9-.4-2-.5-.1-.1-.4-.5-.4-1.9V54.2c0-1.3.2-1.8.4-1.9.1-.1.6-.4 2-.5h.4v-1.5h-7.2l-7.1 15.4zm23 4.9c-.1-.1-.4-.4-.4-1.9V54.2c0-1.4.3-1.8.4-1.9.2-.2.7-.4 2.3-.5h.5v-1.5h-10.5v1.5h.5c1.6.1 2.1.3 2.3.5.1.1.4.5.4 1.9v14.4c0 1.5-.3 1.9-.4 1.9-.2.1-.7.4-2.3.5h-.4v1.5h10.5V71h-.4c-1.8 0-2.4-.3-2.5-.4z" class="st1"/><path d="M184.3 67.6c-.9.9-1.8 1.6-2.6 2-1.3.8-2.8 1.1-4.4 1.1-2.2 0-4-.8-5.4-2.4-1.4-1.6-2.2-3.8-2.2-6.6 0-3 .7-5.4 2.1-7.1 1.4-1.7 3.1-2.5 5.2-2.5s3.7.8 5 2.3c.7.8 1.2 2 1.6 3.3l.1.3h1.6l-.3-8.2h-1.5l-.1.3c-.1.2-.2.4-.4.5-.2.1-.4.2-.6.2-.1 0-.4-.1-2-.5-1.3-.4-2.5-.5-3.7-.5-3.5 0-6.4 1.2-8.5 3.5-2.1 2.2-3.1 5-3.1 8.3 0 3.2 1 5.9 3 8 2.1 2.3 5 3.5 8.6 3.5 2.2 0 4.3-.6 6.2-1.8 1.1-.7 2-1.6 2.8-2.5l.3-.3-1.2-1.2-.5.3zm23 3.5c-.6-.1-1-.2-1.4-.4-.4-.2-.7-.5-1.1-1l-6.2-7.6c1.5-.3 2.8-.9 3.7-1.7 1.2-1 1.8-2.3 1.8-4.1 0-2.6-1.3-4.4-3.9-5.4-1.3-.5-2.9-.7-4.8-.7H186v1.5h.4c1.4.1 1.8.4 2 .5.1.1.4.6.4 1.9v14c0 1.7-.2 2.1-.3 2.3-.1.1-.5.4-2 .6h-.4v1.5h10V71h-.4c-1.5-.1-1.9-.4-2.1-.5-.1-.1-.4-.5-.4-1.9v-5.9h.7l8.1 10h5.9v-1.5l-.6-.1zM193 60.5V53c0-.4.1-.5.1-.5s.3-.1 1.4-.1c1.3 0 2.3.2 3.1.5 1.4.6 2 1.7 2 3.4s-.7 2.9-2.3 3.5c-.8.4-2.3.7-4.3.7z" class="st1"/></svg>