<svg xmlns="http://www.w3.org/2000/svg" width="2500" height="2500" viewBox="0 0 192.756 192.756"><g fill-rule="evenodd" clip-rule="evenodd"><path fill="#fff" fill-opacity="0" d="M0 0h192.756v192.756H0V0z"/><path d="M96.002 70.865c28.458 0 56.917 4.982 77.404 12.889-17.873-9.417-45.885-15.502-77.404-15.502-31.762 0-59.981 6.153-77.821 15.708 20.451-8.043 49.085-13.095 77.821-13.095zM23.062 92.142c1.236 3.299 2.509 6.631 3.715 10.586h.033c1.307-3.955 2.612-7.288 3.952-10.586l3.23.619-7.079 15.913c-.791 1.754-2.544 5.225-6.291 5.225h-1.58v-2.543h.995c1.752 0 3.162-.721 4.675-5.498l-5.466-13.029 3.816-.687zM39.802 94.134h.035c.995-1.306 2.854-2.062 4.538-2.062 1.823 0 3.368.723 4.228 2.062 1.202-1.168 3.058-2.028 4.743-2.062 3.231 0 4.916 1.96 4.984 5.257v9.383h-3.815V98.02c0-1.65-.585-3.368-2.476-3.368-1.821 0-2.955 1.065-2.955 3.575v8.523H45.27v-8.73c0-1.992-.895-3.368-2.511-3.368-1.822 0-2.922 1.202-2.922 3.644v8.455h-3.815V92.417h3.781v1.717h-.001zM65.03 94.134h.071c.961-1.306 2.818-2.062 4.537-2.062 1.787 0 3.333.723 4.192 2.062 1.203-1.168 3.061-2.028 4.744-2.062 3.265 0 4.948 1.96 4.984 5.257v9.383h-3.783V98.02c0-1.65-.583-3.368-2.473-3.368-1.822 0-2.991 1.065-2.991 3.575v8.523h-3.814v-8.73c0-1.992-.859-3.368-2.509-3.368-1.788 0-2.922 1.202-2.922 3.644v8.455h-3.815V92.417h3.779v1.717zM92.668 104.412c.413.139.822.207 1.272.207 1.408 0 2.921-.479 3.849-1.135l1.1 1.994c-1.96 1.168-3.988 1.615-5.638 1.615-.205 0-.377 0-.583-.035v-2.646zm0-12.306c.103-.033.24-.033.343-.033 3.95 0 5.842 2.784 6.051 6.392V99.946h-6.395v-2.062h2.818c.137-2.201-.654-3.678-2.544-3.678h-.274v-2.1h.001zm-2.889 7.839c-.067 2.164 1.136 3.881 2.889 4.467v2.646c-4.022-.273-6.979-3.266-6.979-7.77 0-4.261 3.06-7.044 6.979-7.183v2.099c-1.995.17-2.854 1.823-2.854 3.678h2.854v2.062h-2.889v.001zM106.143 92.417h3.779v1.958h-3.779v7.047c0 2.338.721 3.369 1.992 3.369.822 0 1.309-.24 1.822-.516l.652 1.891c-1.1.619-2.475.928-3.746.928-3.129 0-4.502-1.65-4.502-4.572v-8.146h-2.029v-1.958h2.029v-3.439l3.781-.859v4.297h.001zM116.59 94.96h.035l.789-1.133c.447-.586 1.273-1.754 2.475-1.754.859 0 1.754.48 2.578 1.307l-1.441 2.648c-.617-.346-1.033-.518-1.824-.518-1.305 0-2.576 1.066-2.576 4.161v7.08h-3.816V92.417h3.781v2.543h-.001zM124.291 92.417h3.816v14.331h-3.816V92.417zM142.197 105.996c-1.205.684-2.785 1.098-4.057 1.098-5.98 0-7.902-4.537-7.902-7.459 0-3.987 3.023-7.562 8.109-7.562 1.135 0 2.543.308 3.713.996l-.93 2.201c-.824-.345-1.684-.618-2.543-.618-2.131 0-4.328 1.477-4.328 4.812 0 2.854 1.648 5.051 4.363 5.051.895 0 1.857-.203 2.818-.721l.757 2.202zM150.484 92.073c3.848.033 7.523 2.715 7.523 7.355 0 4.436-3.059 7.666-7.523 7.666v-2.129c2.746 0 3.467-3.027 3.467-5.537 0-2.371-.82-5.223-3.467-5.223v-2.132zm-7.529 7.355c0-4.64 3.678-7.355 7.492-7.355h.037v2.132h-.037c-2.578 0-3.439 2.852-3.439 5.223 0 2.51.723 5.537 3.439 5.537h.037v2.129h-.037c-4.468 0-7.492-3.231-7.492-7.666zM163.439 94.134h.07c.963-1.306 2.816-2.062 4.502-2.062 1.822 0 3.369.723 4.227 2.062 1.207-1.168 3.059-2.028 4.744-2.062 3.229 0 4.914 1.96 4.984 5.257v9.383h-3.816V98.02c0-1.65-.549-3.368-2.439-3.368-1.855 0-2.99 1.065-2.99 3.575v8.523h-3.816v-8.73c0-1.992-.893-3.368-2.508-3.368-1.824 0-2.922 1.202-2.922 3.644v8.455h-3.814V92.417h3.779v1.717h-.001z"/><path d="M123.912 88.291c0-1.098.926-2.197 2.197-2.197 1.307 0 2.338 1.099 2.338 2.197 0 1.238-.857 2.406-2.266 2.406-1.343 0-2.269-1.168-2.269-2.406zM164.711 68.185c-3.4-5.776-31.621-3.231-56.953.17.617.034 1.199.07 1.82.102 21-2.198 44.857-3.64 47.502.999 2.854 5.02-11.342 10.14-26.326 17.014.1.31.273.961.273 1.272 0 .172 0 .377-.035.584 21.897-8.042 37.158-14.23 33.719-20.141z" fill="#00a0e2"/><path d="M184.406 92.417h-.789v1.993h-.344v-1.993h-.793v-.275h1.926v.275zM187.086 94.41h-.34v-1.787l-.689.894h-.069l-.685-.894v1.787h-.344v-2.268h.309l.755.927.756-.927h.307v2.268zM16.497 90.114c-.893-.619-2.061-1.169-3.263-1.169-1.686 0-2.58.963-2.58 2.131 0 1.306 1.375 2.304 3.747 4.194 2.68 2.131 4.124 3.816 4.124 6.291 0 2.508-2.405 5.43-6.943 5.43-2.097 0-4.399-.619-5.913-1.992l1.48-2.305c1.064.791 2.301 1.617 4.09 1.617 1.647 0 3.128-.895 3.128-2.787 0-2.199-2.683-3.676-4.297-4.914-1.961-1.582-3.575-2.818-3.575-5.464 0-2.716 2.717-4.882 6.358-4.882 2.27 0 4.126.826 5.052 1.752l-1.408 2.098z"/><path d="M49.766 112.721h4.566l-.15.562h-.566c-.369 0-.595.135-.674.406l-.824 2.918h3.689l.801-2.828a.509.509 0 0 0 .017-.139.298.298 0 0 0-.143-.26c-.097-.064-.259-.098-.485-.098h-.655l.145-.562h4.54l-.153.562h-.546c-.231 0-.403.045-.52.137-.115.092-.208.27-.28.535l-1.865 6.604a.302.302 0 0 0-.013.09c0 .086.036.156.108.201.107.066.25.1.428.1h.761l-.156.545h-4.474l.158-.545h.648c.3 0 .5-.166.598-.492l.883-3.129h-3.671l-.906 3.131a.613.613 0 0 0-.02.139c0 .111.042.201.125.26.081.061.208.092.38.092h.83l-.144.545h-4.451l.145-.545h.453a.84.84 0 0 0 .453-.115c.122-.08.2-.174.232-.285l1.937-6.852a.28.28 0 0 0-.015-.188.313.313 0 0 0-.171-.168.836.836 0 0 0-.343-.059h-.824l.152-.562zM62.248 116.713c.266-.354.552-.529.859-.529.155 0 .281.061.385.176.102.119.152.279.152.486 0 .5-.222.947-.667 1.346-.324.291-.842.502-1.553.631.158-.895.432-1.598.824-2.11zm1.535 1.982c.534-.23.919-.504 1.158-.82.238-.314.356-.631.356-.947 0-.379-.148-.689-.446-.938-.296-.246-.715-.369-1.253-.369-.736 0-1.424.17-2.061.508a3.897 3.897 0 0 0-1.508 1.383c-.368.586-.552 1.195-.552 1.834 0 .719.221 1.285.662 1.701.441.416 1.045.623 1.813.623.544 0 1.05-.105 1.521-.316.468-.211.947-.572 1.437-1.08l-.42-.309c-.424.406-.783.678-1.077.814a2.097 2.097 0 0 1-.897.205c-.361 0-.651-.111-.867-.334-.216-.225-.325-.543-.325-.961 0-.1.008-.225.025-.375 1.089-.179 1.899-.386 2.434-.619zM70.769 116.697c.123.156.185.426.185.811a5.171 5.171 0 0 1-.353 1.818c-.225.572-.483.98-.773 1.223-.291.244-.564.365-.817.365-.241 0-.425-.084-.553-.252-.13-.166-.194-.453-.194-.859 0-.875.203-1.65.611-2.326.407-.674.867-1.01 1.376-1.01.223 0 .394.076.518.23zm.019-.701c-.23-.168-.535-.252-.91-.252-.548 0-1.084.166-1.608.498-.522.332-.95.795-1.283 1.387a3.768 3.768 0 0 0-.498 1.865c0 .676.186 1.207.557 1.594.372.389.843.582 1.416.582.334 0 .649-.076.948-.229.299-.15.606-.418.925-.799.03.344.126.6.291.771.167.17.399.256.699.256.876 0 1.687-.674 2.427-2.021l-.48-.246c-.503.914-.913 1.371-1.229 1.371-.055 0-.096-.016-.123-.047s-.042-.076-.042-.133c0-.08.042-.262.126-.551l1.252-4.246-1.609.123-.344.867c-.115-.358-.286-.622-.515-.79zM75.481 115.902l2.478-.105-.605 2.543c.411-.943.785-1.584 1.125-1.92.472-.449 1.014-.676 1.62-.676.349 0 .626.094.834.277.206.186.31.426.31.721a.993.993 0 0 1-.267.707.83.83 0 0 1-.619.283.738.738 0 0 1-.519-.195.612.612 0 0 1-.212-.469c0-.105.017-.223.051-.354a.423.423 0 0 0 .019-.102c0-.043-.021-.08-.059-.115a.227.227 0 0 0-.143-.049c-.168 0-.366.08-.594.246-.229.162-.489.518-.783 1.062-.396.75-.704 1.508-.927 2.273l-.421 1.463-1.68.07.883-3.139c.171-.59.258-1.057.258-1.402 0-.24-.057-.404-.172-.486-.116-.082-.364-.121-.741-.117l.164-.516zM83.644 114.004h1.662l-.542 1.916h1.309l-.194.617h-1.287l-1.029 3.648a.987.987 0 0 0-.05.312c0 .119.025.209.075.271a.249.249 0 0 0 .202.092c.334 0 .822-.463 1.464-1.389l.463.271c-.417.668-.857 1.154-1.313 1.463-.46.311-.9.463-1.321.463-.37 0-.663-.098-.879-.293a.983.983 0 0 1-.321-.762c0-.24.04-.504.121-.791l.929-3.287H81.73l.195-.617h1.181l.538-1.914zM91.338 116.789c.145.182.219.469.219.865 0 .658-.12 1.285-.36 1.877-.239.594-.53 1.035-.876 1.326-.257.213-.522.32-.804.32a.768.768 0 0 1-.612-.262c-.152-.174-.229-.439-.229-.797 0-.615.13-1.24.387-1.871.259-.631.563-1.1.919-1.404.254-.217.507-.324.759-.324.252.001.45.09.597.27zm-3.474-3.506h.261c.203 0 .348.031.433.09.087.061.13.146.13.258 0 .07-.011.141-.032.211l-1.464 5.174c-.06.215-.088.445-.088.693 0 .369.094.709.284 1.016.189.307.457.541.804.703s.757.242 1.233.242a3.932 3.932 0 0 0 3.439-1.959 3.83 3.83 0 0 0 .558-1.984c0-.648-.18-1.158-.539-1.537-.357-.379-.82-.568-1.386-.568-.358 0-.683.07-.979.207-.296.139-.627.391-.998.758l1.145-3.971-2.628.105-.173.562zM97.361 116.713c.266-.354.555-.529.861-.529a.5.5 0 0 1 .385.176c.102.119.152.279.152.486 0 .5-.221.947-.666 1.346-.326.291-.844.502-1.556.631.16-.895.435-1.598.824-2.11zm1.537 1.982c.533-.23.92-.504 1.156-.82.24-.314.357-.631.357-.947a1.17 1.17 0 0 0-.445-.938c-.297-.246-.715-.369-1.254-.369-.734 0-1.424.17-2.06.508a3.894 3.894 0 0 0-1.507 1.383c-.369.586-.554 1.195-.554 1.834 0 .719.221 1.285.662 1.701.439.416 1.044.623 1.814.623.543 0 1.051-.105 1.52-.316.471-.211.949-.572 1.438-1.08l-.42-.309c-.424.406-.783.678-1.076.814a2.109 2.109 0 0 1-.896.205c-.363 0-.653-.111-.869-.334-.217-.225-.325-.543-.325-.961 0-.1.009-.225.024-.375 1.09-.179 1.9-.386 2.435-.619zM105.883 116.697c.123.156.186.426.186.811-.012.639-.129 1.246-.354 1.818s-.48.98-.773 1.223c-.291.244-.562.365-.814.365-.242 0-.428-.084-.557-.252-.127-.166-.191-.453-.191-.859 0-.875.201-1.65.609-2.326.41-.674.867-1.01 1.379-1.01.22 0 .392.076.515.23zm.019-.701c-.23-.168-.535-.252-.91-.252-.549 0-1.084.166-1.607.498a3.83 3.83 0 0 0-1.283 1.387 3.77 3.77 0 0 0-.5 1.865c0 .676.188 1.207.559 1.594.371.389.844.582 1.414.582.334 0 .65-.076.949-.229.299-.15.605-.418.924-.799.029.344.127.6.291.771.166.17.398.256.699.256.877 0 1.688-.674 2.428-2.021l-.48-.246c-.504.914-.914 1.371-1.23 1.371-.055 0-.096-.016-.123-.047-.029-.031-.041-.076-.041-.133 0-.08.043-.262.127-.551l1.252-4.246-1.609.123-.342.867c-.115-.358-.287-.622-.518-.79zM112.066 114.004h1.662l-.541 1.916h1.309l-.195.617h-1.287l-1.029 3.648a1.05 1.05 0 0 0-.051.312c0 .119.025.209.076.271a.25.25 0 0 0 .203.092c.334 0 .82-.463 1.463-1.389l.461.271c-.416.668-.855 1.154-1.314 1.463-.459.311-.896.463-1.318.463-.371 0-.664-.098-.879-.293a.98.98 0 0 1-.322-.762c0-.24.041-.504.123-.791l.928-3.287h-1.203l.195-.617h1.18l.539-1.914zM123.299 116.416c.182.201.271.482.271.842 0 .645-.143 1.34-.426 2.084-.281.746-.582 1.262-.898 1.551a1.11 1.11 0 0 1-.75.285c-.295 0-.535-.096-.713-.293-.182-.195-.271-.471-.271-.832 0-.465.113-1.078.342-1.842.229-.762.523-1.328.879-1.697.26-.266.553-.398.875-.398a.887.887 0 0 1 .691.3zm-2.645-.334a3.532 3.532 0 0 0-1.354 1.305 3.376 3.376 0 0 0-.514 1.783c0 .73.252 1.33.762 1.799.506.467 1.17.701 1.99.701 1.127 0 2.029-.359 2.719-1.084.689-.723 1.037-1.541 1.037-2.457 0-.725-.258-1.326-.766-1.799-.51-.473-1.168-.709-1.977-.709-.703 0-1.336.154-1.897.461zM129.873 115.92h1.162l-.164.617h-1.174l-1.277 4.527c-.256.91-.592 1.709-1.01 2.404-.479.062-.99.16-1.541.295-.184.047-.295.07-.334.07-.066 0-.098-.033-.098-.096 0-.037.021-.096.072-.176.314-.508.568-.99.76-1.443.369-.854.619-1.516.754-1.986l1.014-3.596h-1.152l.213-.617h1.113c.65-2.273 1.676-3.41 3.076-3.41.365 0 .652.09.859.271.209.18.312.402.312.668 0 .223-.08.412-.236.568a.797.797 0 0 1-.578.232c-.215 0-.383-.059-.506-.176-.121-.119-.197-.318-.227-.602-.023-.242-.078-.365-.166-.365-.115 0-.223.107-.318.32-.148.35-.333 1.182-.554 2.495zM137.146 114.004h1.66l-.539 1.916h1.309l-.197.617h-1.287l-1.029 3.648a1.045 1.045 0 0 0-.049.312c0 .119.023.209.074.271a.252.252 0 0 0 .203.092c.332 0 .822-.463 1.463-1.389l.461.271c-.416.668-.854 1.154-1.312 1.463-.459.311-.9.463-1.322.463-.369 0-.66-.098-.877-.293a.985.985 0 0 1-.32-.762c0-.24.039-.504.119-.791l.93-3.287h-1.201l.193-.617h1.18l.541-1.914zM141.625 112.703l2.836-.105-1.4 4.949c.488-.779.947-1.295 1.385-1.549.434-.25.873-.377 1.312-.377.393 0 .713.117.961.346.246.23.369.523.369.877 0 .309-.066.656-.201 1.043l-.711 2.457a.841.841 0 0 0-.045.264c0 .072.018.127.055.164s.084.055.143.055c.355 0 .775-.475 1.262-1.424l.52.156c-.34.727-.721 1.248-1.143 1.566-.422.316-.852.475-1.285.475-.35 0-.625-.088-.826-.266s-.301-.414-.301-.709c0-.283.094-.74.283-1.365.273-.896.439-1.475.496-1.736.057-.26.086-.459.086-.598a.455.455 0 0 0-.119-.336.406.406 0 0 0-.316-.123c-.396 0-.857.326-1.383.982-.527.656-.926 1.457-1.193 2.41l-.463 1.635-1.676.053 2.191-7.754a.584.584 0 0 0 .033-.186.298.298 0 0 0-.146-.262c-.096-.064-.264-.098-.504-.098h-.389l.169-.544zM151.818 116.713c.268-.354.555-.529.863-.529.154 0 .281.061.383.176.104.119.152.279.152.486 0 .5-.221.947-.666 1.346-.326.291-.844.502-1.555.631.159-.895.433-1.598.823-2.11zm1.537 1.982c.535-.23.92-.504 1.156-.82.24-.314.359-.631.359-.947 0-.379-.15-.689-.445-.938-.299-.246-.715-.369-1.256-.369-.734 0-1.422.17-2.059.508a3.91 3.91 0 0 0-1.51 1.383c-.367.586-.551 1.195-.551 1.834 0 .719.221 1.285.662 1.701.439.416 1.043.623 1.814.623.541 0 1.049-.105 1.52-.316.469-.211.947-.572 1.436-1.08l-.418-.309c-.426.406-.783.678-1.078.814s-.594.205-.896.205c-.361 0-.65-.111-.867-.334-.217-.225-.326-.543-.326-.961 0-.1.01-.225.025-.375 1.091-.179 1.901-.386 2.434-.619zM161.514 112.721h2.809l3.15 6.119 1.113-4.311c.051-.18.076-.324.076-.439 0-.248-.09-.449-.268-.6s-.418-.225-.715-.225h-.27l.156-.545h3.195l-.166.545c-.336.018-.59.104-.766.258-.248.223-.424.525-.529.906l-1.807 7.064h-.713l-3.629-6.963-1.439 4.84a2.193 2.193 0 0 0-.096.553c0 .303.111.549.332.734s.541.283.959.291l-.137.545h-3.59l.145-.545c.416-.016.756-.129 1.014-.336.26-.209.443-.498.547-.869l1.684-5.656c.043-.141.062-.242.062-.305a.426.426 0 0 0-.211-.379c-.141-.092-.391-.139-.746-.139h-.322l.162-.543zM173.203 116.713c.266-.354.553-.529.861-.529.154 0 .281.061.383.176.102.119.154.279.154.486 0 .5-.225.947-.67 1.346-.324.291-.842.502-1.553.631.159-.895.433-1.598.825-2.11zm1.535 1.982c.535-.23.92-.504 1.156-.82.24-.314.359-.631.359-.947a1.17 1.17 0 0 0-.445-.938c-.297-.246-.715-.369-1.256-.369-.734 0-1.422.17-2.059.508a3.89 3.89 0 0 0-1.508 1.383c-.371.586-.553 1.195-.553 1.834 0 .719.219 1.285.662 1.701.439.416 1.043.623 1.812.623.543 0 1.051-.105 1.521-.316.469-.211.947-.572 1.438-1.08l-.422-.309c-.424.406-.783.678-1.078.814-.291.137-.59.205-.895.205-.361 0-.652-.111-.869-.334-.215-.225-.324-.543-.324-.961 0-.1.008-.225.025-.375 1.091-.179 1.903-.386 2.436-.619zM179.307 114.004h1.662l-.541 1.916h1.309l-.195.617h-1.287l-1.031 3.648a1.118 1.118 0 0 0-.051.312c0 .119.025.209.076.271a.252.252 0 0 0 .203.092c.334 0 .822-.463 1.465-1.389l.461.271c-.418.668-.854 1.154-1.314 1.463-.459.311-.898.463-1.318.463-.371 0-.664-.098-.879-.293a.974.974 0 0 1-.322-.762c0-.24.041-.504.121-.791l.928-3.287h-1.201l.195-.617h1.18l.539-1.914z" fill="#808183"/></g></svg>
