<svg enable-background="new 0 0 117.3 117.3" viewBox="0 0 117.3 117.3" xmlns="http://www.w3.org/2000/svg" xmlns:xlink="http://www.w3.org/1999/xlink"><linearGradient id="a" gradientUnits="userSpaceOnUse" x1="58.666" x2="58.666" y1="117.332" y2="0"><stop offset="0" stop-color="#0882c8"/><stop offset="1" stop-color="#26b6db"/></linearGradient><circle cx="58.7" cy="58.7" fill="url(#a)" r="58.7"/><circle cx="58.7" cy="58.5" fill="none" r="43.7" stroke="#fff" stroke-miterlimit="10" stroke-width="6"/><path d="m94.7 47.8c4.7 1.6 9.8-.9 11.4-5.6s-.9-9.8-5.6-11.4-9.8.9-11.4 5.6.9 9.8 5.6 11.4z" fill="#fff"/><path d="m97.6 39.4-30.1 25" fill="none" stroke="#fff" stroke-miterlimit="10" stroke-width="6"/><path d="m77.6 91c-.4 4.9 3.2 9.3 8.2 9.8 5 .4 9.3-3.2 9.8-8.2.4-4.9-3.2-9.3-8.2-9.8-5-.4-9.4 3.2-9.8 8.2z" fill="#fff"/><path d="m86.5 91.8-19-27.4" fill="none" stroke="#fff" stroke-miterlimit="10" stroke-width="6"/><path d="m60 69.3c2.7 4.2 8.3 5.4 12.4 2.7 4.2-2.7 5.4-8.3 2.7-12.4-2.7-4.2-8.3-5.4-12.4-2.7-4.2 2.6-5.4 8.2-2.7 12.4z" fill="#fff"/><path d="m21.2 61.4c-4.3-2.5-9.8-1.1-12.3 3.1-2.5 4.3-1.1 9.8 3.1 12.3 4.3 2.5 9.8 1.1 12.3-3.1s1.1-9.7-3.1-12.3z" fill="#fff"/><path d="m16.6 69.1 50.9-4.7" fill="none" stroke="#fff" stroke-miterlimit="10" stroke-width="6"/></svg>