<?xml version="1.0" encoding="utf-8"?><!-- Uploaded to: SVG Repo, www.svgrepo.com, Generator: SVG Repo Mixer Tools -->
<svg width="800px" height="800px" viewBox="0 0 1024 1024" xmlns="http://www.w3.org/2000/svg">
   <circle cx="512" cy="512" r="512" style="fill:#b6b5b6"/>
   <path d="M582 410.81 552.75 423l1.84 3.85a20.51 20.51 0 0 1 7-1.78 6.17 6.17 0 0 1 4.15 1.51c1.09.92 1.91 2.67 2.37 5.27s.72 9.55.72 20.87v90.08c0 6.22-.43 10.4-1.38 12.54a9.71 9.71 0 0 1-3.89 4.68c-1.75 1-4.84 1.48-9.42 1.48v4h48.76v-4c-5.07 0-8.59-.56-10.54-1.58a9.55 9.55 0 0 1-4.15-4.68c-.86-2-1.32-6.16-1.32-12.45v-132zM196.07 422c-10.87 0-20 1.65-27.66 4.84a38.27 38.27 0 0 0-17.58 14.36 35.66 35.66 0 0 0-6.09 20.15c0 11.13 4.31 20.64 12.94 28.45 6.06 5.5 16.69 10.17 31.87 13.89 11.79 3 19.33 5 22.65 6.29a23 23 0 0 1 10.21 6 13 13 0 0 1 2.9 8.53c0 5.1-2.3 9.58-6.91 13.5s-11.52 5.79-20.68 5.79q-12.94 0-20.58-6.49c-5.08-4.31-8.4-11.13-10.14-20.31l-27.53 2.6q2.77 23.71 17 36.09t41 12.45c12.22 0 22.39-1.78 30.62-5.14a41.58 41.58 0 0 0 25.71-38.49 42.47 42.47 0 0 0-5.63-22.52 39.61 39.61 0 0 0-15.54-14.39c-6.59-3.52-16.73-6.91-30.52-10.21s-22.49-6.35-26-9.42a10.73 10.73 0 0 1 .3-17.25c4.61-3.46 11.06-5.14 19.29-5.14 7.9 0 13.89 1.61 17.85 4.77s6.55 8.43 7.8 15.51l28.45-.92c-.43-13-5.07-23.38-14-31.25S213.62 422 196 422zm217.77 39.28c-13.5 0-24.76 5.6-33.68 16.92v-15h-24.83v102.26h26.8v-46.13c0-11.46.72-19.2 2.07-23.48a19.2 19.2 0 0 1 7.7-10.08 21.93 21.93 0 0 1 12.68-3.89 16.53 16.53 0 0 1 9.45 2.7 14.56 14.56 0 0 1 5.6 7.54c1.22 3.26 1.78 10.34 1.78 21.27v52.06h26.87v-63.34a83.63 83.63 0 0 0-1.52-18.11 30.46 30.46 0 0 0-5.27-11.29 27.33 27.33 0 0 0-11.23-8.23 42.31 42.31 0 0 0-16.42-3.19zm87.25 0a56 56 0 0 0-27.2 6.59 45.77 45.77 0 0 0-18.8 19.29 55.45 55.45 0 0 0-6.65 26.11c0 11.72 2.24 21.63 6.65 29.76a43.11 43.11 0 0 0 19.36 18.64 59.35 59.35 0 0 0 26.8 6.39c15.15 0 27.69-5.14 37.67-15.24s15-23 15-38.42-4.94-28-14.85-38.06-22.49-15-38-15zm240.85 1.65c-11.56 0-21.07 3.56-28.48 10.63a34.49 34.49 0 0 0-6.22 42.93A34 34 0 0 0 721.16 529c-7.34 6.16-12.05 11-14.13 14.49a18.11 18.11 0 0 0-3 8.92 9 9 0 0 0 2.34 6.06c1.51 1.84 4.18 3.82 7.9 6.16q-5.56 5.71-10.83 11.69c-3.72 4.77-6.26 8.33-7.44 11.06a13.5 13.5 0 0 0-1.12 5.17c0 4 2.67 7.64 8.1 11.29 9.58 6.26 21.37 9.35 35.26 9.35q27.16 0 44-15.71c7.64-7.11 11.52-14.82 11.52-22.85a20.18 20.18 0 0 0-6-14.82 27.59 27.59 0 0 0-16.13-7.47 279.14 279.14 0 0 0-28.91-1.75 140.17 140.17 0 0 1-15.15-.89c-3.46-.49-5.83-1.32-7-2.47a5.06 5.06 0 0 1-1.84-3.69 12.18 12.18 0 0 1 1.65-5.24 28.58 28.58 0 0 1 6.12-7.3 50 50 0 0 0 15.11 2.3q17.78 0 28.45-9.91a31.48 31.48 0 0 0 10.63-23.77q0-12.2-6.16-20.08h13c3.19 0 4.94-.07 5.5-.33a1.84 1.84 0 0 0 1.15-.82 9.52 9.52 0 0 0 .59-4 7 7 0 0 0-.66-3.46 2.73 2.73 0 0 0-1.09-.92 27.33 27.33 0 0 0-5.47-.26h-21a43 43 0 0 0-24.56-6.91zm-90.61 0a46.39 46.39 0 0 0-23.51 6.39 47.31 47.31 0 0 0-18 20.08 59.79 59.79 0 0 0-6.75 27.16 55.7 55.7 0 0 0 11.19 33.91 42.47 42.47 0 0 0 35.89 17.88 46.51 46.51 0 0 0 25-6.95c7.57-4.61 13.47-11.52 17.78-20.64a63 63 0 0 0 6.39-27 52.54 52.54 0 0 0-11.66-33.65 44.25 44.25 0 0 0-36.38-17.19zm-401.1.3 38.65 102.5a39.28 39.28 0 0 1-6.88 14.19c-3 3.69-7.57 5.5-13.8 5.5a54.7 54.7 0 0 1-11.33-1.32l2.21 21.24a71.94 71.94 0 0 0 15.25 1.66 53.35 53.35 0 0 0 13.76-1.71 34.24 34.24 0 0 0 10.21-4.54 28.38 28.38 0 0 0 7.38-7.7 72.44 72.44 0 0 0 6.75-13.63l6.57-17.91 35.72-98.28h-27.81l-23.77 72.57-24.36-72.57zm547.58 2.57v4a27.66 27.66 0 0 1 8.07 3 29.55 29.55 0 0 1 4.48 5.17 61.8 61.8 0 0 1 5.2 8.4l35.82 74.91-7 17.32c-2.6 6.39-5.2 10.73-7.77 12.94s-4.94 3.42-7.14 3.42a28.91 28.91 0 0 1-5.5-1.65 30.42 30.42 0 0 0-9.88-2.3c-3.46 0-6.26.82-8.23 2.77a9.42 9.42 0 0 0-3 7.24 11 11 0 0 0 4.15 8.46 15 15 0 0 0 10.6 3.69c5.93 0 12.05-2.37 18.44-7.34s11.52-12.18 15.44-21.86l40.37-99.24a52.68 52.68 0 0 1 3.72-8.36 18.11 18.11 0 0 1 4.77-4.81 15.57 15.57 0 0 1 6.19-1.75v-4H874.3v4a19.49 19.49 0 0 1 6.49.76 5.66 5.66 0 0 1 2.73 1.88 4.81 4.81 0 0 1 .76 2.86 23.41 23.41 0 0 1-1.84 8.92l-22.22 55-24.27-50.38c-2.44-4.94-3.62-8.82-3.62-11.72a6.91 6.91 0 0 1 2.44-5.27 11.39 11.39 0 0 1 7.38-2.07h2.24v-4zm-57.72 2.63c5.76 0 10.4 2.44 14.16 7.14 4.94 6.45 7.38 15.34 7.38 26.83q0 13.09-5.27 19.23a17 17 0 0 1-13.5 6.19 17.38 17.38 0 0 1-14.16-7.11c-4.91-6.26-7.34-15.08-7.34-26.41 0-8.82 1.78-15.18 5.37-19.43a17 17 0 0 1 13.37-6.49zM648 470.21c8 0 14.49 3.36 19.69 10.27 7.57 10.14 11.39 23.94 11.39 41.58 0 14.13-2.3 24-6.88 29.8a21.27 21.27 0 0 1-17.38 8.69c-9.42 0-17-5.3-22.75-15.71s-8.66-22.88-8.66-37.37c0-9 1.22-16.23 3.62-22a24.07 24.07 0 0 1 9.38-11.89 22 22 0 0 1 11.59-3.37zm-147 13a23.16 23.16 0 0 1 17.88 8.13c4.74 5.33 7.11 13.07 7.11 23.15 0 10.24-2.37 18.11-7.11 23.44a23.62 23.62 0 0 1-35.72 0c-4.84-5.3-7.24-13.1-7.24-23.31s2.4-17.94 7.24-23.28a23.18 23.18 0 0 1 17.84-8.13zm219.28 82.25c8.73 1.19 21.3 2.14 37.6 2.63 11.19.23 18.64 1.12 22.39 2.73s5.6 4.28 5.6 7.94q0 7.75-9.28 14.55c-6.26 4.54-15.8 6.85-28.78 6.85-13.63 0-24.1-2.3-31.31-6.72-4.21-2.57-6.26-5.53-6.26-9.12a17.6 17.6 0 0 1 2.5-8.56 49.72 49.72 0 0 1 7.51-10.31z" style="fill:#fff"/>
</svg>