  <svg version="1.1" xmlns="http://www.w3.org/2000/svg" width="1024" height="1024" viewBox="0 0 1024 1024">
    <path fill="#aabb11" d="M149.083 283.372c25.968 10.51 53.082 16.992 80.768 21.241 37.973 5.837 76.188 7.204 114.457 5.412 47.505-2.235 94.972-5.098 142.457-8.053 41.261-2.568 82.505-5.966 123.784-8.349 89.782-5.19 179.618-10.030 269.436-14.868 43.7-2.346 39.34-2.9 30.697-41.446-16.716-74.673-60.174-128.051-131.21-157.972-9.512-3.989-19.227-7.573-29.054-10.713-32.674-10.453-66.418-15.68-100.513-17.732-45.453-2.733-90.981-0.869-136.4 1.441-59.879 3.066-119.702 7.204-179.563 10.879 0-0.147-0.018-0.296-0.018-0.462-11.34 0.609-22.718 1.201-34.059 1.847-62.945 3.638-125.908 7.277-188.872 11.008-34.040 2.014-68.097 4.267-102.138 6.501-5.91 0.387-9.734 4.765-8.681 10.343 2.733 14.166 4.489 28.757 9.105 42.315 24.085 70.536 70.425 120.589 139.798 148.607z"></path>
    <path fill="#aabb11" d="M903.111 802.077c-24.121-12.134-49.61-20.447-76.059-25.784-47.836-9.641-96.19-12.67-144.896-10.048-8.238 0.425-16.494 1.201-24.73 1.607-71.163 3.509-142.364 6.982-213.529 10.472 0 0.166 0.018 0.351 0.018 0.536-52.583 3.14-105.149 6.41-157.75 9.401-50.533 2.881-101.067 5.448-151.6 8.293-6.132 0.351-12.245 1.478-18.341 2.439-3.564 0.572-7.093 5.374-6.557 9.216 1.441 10.195 2.086 20.649 4.876 30.493 20.132 70.369 62.335 122.603 128.789 154.315 26.264 12.541 54.080 20.225 82.616 25.563 38.824 7.277 78.053 8.736 117.302 7.148 60.895-2.493 121.752-5.928 182.573-9.438 49.499-2.862 98.925-6.668 148.405-9.605 51.549-3.084 103.135-5.615 154.702-8.532 24.75-1.385 49.499-3.029 74.231-4.618 4.118-0.258 8.22-0.647 12.32-1.145 5.079-0.609 8.7-5.505 8.514-11.008-0.665-18.839-6.039-36.607-11.951-54.264-18.969-56.813-55.576-98.241-108.935-125.040z"></path>
    <path fill="#aabb11" d="M203.458 697.981c31.029 12.061 63.221 19.189 96.228 22.57 39.138 4.007 78.331 5.301 117.634 1.663 12.338-1.127 24.787-1.145 37.143-1.847 42.296-2.364 84.61-4.691 126.888-7.277 57.755-3.527 115.51-7.369 173.246-10.915 64.995-3.989 129.954-7.905 194.967-11.618 18.395-1.034 19.153-5.172 16.845-21.019-1.348-9.179-3.509-18.266-5.91-27.262-18.155-68.061-58.585-117.523-123.119-146.595-9.401-4.229-19.024-8.053-28.812-11.322-31.509-10.528-63.925-16.66-97.077-18.784-63.056-4.064-126.001-0.203-188.964 2.9-19.615 0.979-39.193 2.457-58.789 3.584-20.63 1.201-41.261 2.235-61.911 3.344 0 0.111 0.018 0.222 0.018 0.351-49.517 2.862-99.035 5.817-148.571 8.589-49.517 2.77-99.054 5.319-148.589 8.163-13.408 0.758-26.8 2.086-40.172 3.344-3.011 0.276-6.132 0.979-8.847 2.253-1.514 0.72-3.251 3.066-3.251 4.672 0.111 17.768 4.045 34.907 10.27 51.383 25.913 68.468 72.124 117.135 140.776 143.824z"></path>
  </svg>
