<svg xmlns="http://www.w3.org/2000/svg" xml:space="preserve" style="fill-rule:evenodd;clip-rule:evenodd;stroke-linejoin:round;stroke-miterlimit:2" viewBox="0 0 512 512"><g transform="matrix(.92371 0 0 .95776 3.713 -54.33)"><ellipse cx="273.123" cy="324.015" rx="259.822" ry="250.584" style="fill:url(#a)"/><clipPath id="b"><ellipse cx="273.123" cy="324.015" rx="259.822" ry="250.584"/></clipPath><g clip-path="url(#b)"><path d="m156.285 427.208 233.269 233.269 279.249-164.926-294.791-294.79-217.727 226.447Z" style="fill:#161616" transform="matrix(1.10322 0 0 1.064 -5.583 50.579)"/><path d="m208.628 178.613 277.307 277.306 104.092-91.289L296.923 71.526l-2.748 67.463-85.547 39.624Z" style="fill:#161616" transform="matrix(1.10322 0 0 1.064 -10.24 51.404)"/><path d="m310.385 145.641 277.307 277.307 2.7-61.591L297.288 68.253l-3.113 70.736 16.21 6.652Z" style="fill:#161616" transform="matrix(1.10322 0 0 1.064 -99.784 80.212)"/></g></g><path d="M256.049 220c30.173-.006 56.607-12.69 73.339-25.866 16.962-13.38 41.511-10.728 55.223 5.966 22.518 27.276 35.987 61.844 35.987 99.43 0 61.55-37.994 137.571-90.834 164.176-22.729 11.444-46.298 16.88-73.666 16.893H256c-27.368-.013-50.937-5.449-73.666-16.893C129.494 437.101 91.5 361.08 91.5 299.53c0-37.586 13.469-72.154 35.987-99.43 13.712-16.694 38.261-19.346 55.223-5.966 16.732 13.176 43.166 25.86 73.339 25.866Z" style="fill:#ffcb76" transform="translate(16 15.999) scale(.9375)"/><g transform="matrix(.61548 0 0 .56833 -138.257 -438.603)"><path d="M604.408 844.314c-2.427-3.469-2.446-8.258-.046-11.749 2.401-3.491 6.643-4.844 10.407-3.319 19.101 7.623 44.064 19.383 63.438 35.206 40.319 32.929 51.343 54.955 60.345 77.639 10.656 26.852 12.233 54.589 9.963 73.989-6.497 55.53-48.16 101.42-107.481 101.42s-106.541-45.45-107.481-101.42c-.567-33.708 10.432-60.637 22.435-79.86 2.994-4.783 8.606-6.751 13.621-4.776 5.014 1.975 8.148 7.387 7.606 13.136-1.722 12.136-2.853 24.792-2.283 34.904 1.931 34.216 22.239 43.016 43.151 42.806 22.288-.21 44.842-19.12 36.714-67.395-7.107-42.214-32.435-84.701-50.389-110.581Z" style="fill:#ff6f00"/><clipPath id="c"><path d="M604.408 844.314c-2.427-3.469-2.446-8.258-.046-11.749 2.401-3.491 6.643-4.844 10.407-3.319 19.101 7.623 44.064 19.383 63.438 35.206 40.319 32.929 51.343 54.955 60.345 77.639 10.656 26.852 12.233 54.589 9.963 73.989-6.497 55.53-48.16 101.42-107.481 101.42s-106.541-45.45-107.481-101.42c-.567-33.708 10.432-60.637 22.435-79.86 2.994-4.783 8.606-6.751 13.621-4.776 5.014 1.975 8.148 7.387 7.606 13.136-1.722 12.136-2.853 24.792-2.283 34.904 1.931 34.216 22.239 43.016 43.151 42.806 22.288-.21 44.842-19.12 36.714-67.395-7.107-42.214-32.435-84.701-50.389-110.581Z"/></clipPath><g clip-path="url(#c)"><path d="M255.004 46.957c24.543 11.588 50.996 38.49 58.303 73.204 12.13 57.63-21.736 73.628-50.811 72.242-46.607-2.222-62.302-39.157-31.17-83.503 19.305-27.499 1.337-72.492 23.678-61.943Z" style="fill:#ffd100" transform="matrix(1.28784 -.2706 .28594 1.59598 247.349 825.209)"/></g></g><path d="M228.197 408.524c-5.499 0-10.384-1.836-14.173-4.905a6.838 6.838 0 0 1 4.308-12.147c13.882-.072 37.78-.076 37.78-.076s23.897.004 37.779.076a6.837 6.837 0 0 1 4.308 12.147c-3.789 3.069-8.673 4.905-14.172 4.905h-55.83Zm-10.957-29.647a11.42 11.42 0 0 1-11.42-11.441l.022-12.897a9.158 9.158 0 0 0-6.711-8.825c-13.818-3.873-23.931-16.246-23.931-30.891 0-17.753 14.859-32.166 33.162-32.166a16.601 16.601 0 0 0 15.655-11.076c3.226-9.191 12.394-19.566 31.983-19.583h.223c19.589.017 28.757 10.392 31.983 19.583a16.602 16.602 0 0 0 15.655 11.076c18.303 0 33.162 14.413 33.162 32.166 0 14.645-10.112 27.018-23.93 30.891a9.16 9.16 0 0 0-6.712 8.825l.01 12.908a11.42 11.42 0 0 1-11.42 11.43H217.24Z" style="fill:#161616" transform="translate(7.734 15.597) scale(.96937)"/><defs><linearGradient id="a" x1="0" x2="1" y1="0" y2="0" gradientTransform="matrix(0 0 0 0 3755.77 81.718)" gradientUnits="userSpaceOnUse"><stop offset="0" style="stop-color:#272727;stop-opacity:1"/><stop offset="1" style="stop-color:#6c6c6c;stop-opacity:1"/></linearGradient></defs></svg>