<svg xmlns="http://www.w3.org/2000/svg" xmlns:xlink="http://www.w3.org/1999/xlink" version="1.1" id="Layer_1" x="0px" y="0px" style="enable-background:new 0 0 512 512;" xml:space="preserve" viewBox="91.61 0 328.89 512.14">
<style type="text/css">
	.st0{fill:#FD8935;}
	.st1{fill-rule:evenodd;clip-rule:evenodd;fill:#352B21;}
	.st2{fill-rule:evenodd;clip-rule:evenodd;fill:#85D023;}
	.st3{fill:#352B21;}
	.st4{fill-rule:evenodd;clip-rule:evenodd;fill:#FFE2CC;}
</style>
<g>
	<path class="st0" d="M406.4,369.8c-4.6,23.8-41.4,49.8-83.6,54.8c-22,2.6-43.7,5-66.8,4c-37.8-1.7-58.3-17.3-64.8-8.2   c-3.6,5.1-3.5,10.6-2.7,15.2c6.9,37.4,30.6,43.7,59.7,34.9c16.6-5,60.3-38,60.3,0.5c0,25.3-14.3,31.3-52.5,33.4   c-21.1,1.2-47.2-0.5-77.7-8.6c-66.1-17.5-77.5-87.9-79.2-159.4c-0.5-21.2-0.2-41.2-0.2-58c0-73.1,47.9-94.5,47.9-94.5   c24.1-11.1,65.6-15.8,108.7-16.1h1.1c43.1,0.4,84.5,5,108.7,16.1c0,0,47.9,21.4,47.9,94.5C413.1,278.4,413.7,332.4,406.4,369.8z"/>
	<path class="st1" d="M413.6,371.2c-2.1,10.9-9.8,22.3-21.7,32.3c-16.6,13.9-41.3,25.1-68.1,28.4c-22.4,2.7-44.5,5.1-68,4   c-23.3-1.1-40.2-7.2-51.5-10c-1.9-0.5-3.5-0.8-5-1c-0.7-0.1-1.8,0-2.3,0c-2.1,3.2-1.8,6.6-1.3,9.4c2.9,15.7,8.8,25.3,17.6,29.6   c9,4.4,20.4,3.5,32.9-0.3c4.7-1.4,11.7-5.3,19.3-8.9c8.7-4.2,18.1-8.1,25.8-9.1c7.1-0.8,13.2,0.7,17.6,4.9c4,3.8,6.9,10.1,6.9,20.6   c0,9.2-1.8,16.3-5.2,21.8c-4.2,6.6-10.8,11.3-20.7,14.3c-8.3,2.5-19.3,3.8-33.4,4.6h0c-21.7,1.2-48.6-0.5-80-8.8   c-35.5-9.4-56.5-32.9-68.6-63.8c-11.6-29.5-15.1-65.8-16-102.4c-0.5-21.3-0.2-41.4-0.2-58.2c0-77.6,51-100.6,52.1-101.1   c24.8-11.4,67.3-16.4,111.6-16.8c0,0,0,0,0.1,0h1.1c0,0,0,0,0.1,0c44.2,0.4,86.8,5.4,111.6,16.7c0.5,0.2,52.2,23,52.2,101.1   C420.4,279.7,420.9,333.6,413.6,371.2z M399.3,368.4c7.2-36.8,6.5-89.9,6.5-89.9c0,0,0-0.1,0-0.1c0-67.7-43.6-87.9-43.6-87.9   c0,0,0,0-0.1,0c-23.5-10.8-63.8-15.1-105.7-15.4h-1c-41.9,0.3-82.2,4.7-105.7,15.4c0,0,0,0-0.1,0c0,0-43.6,20.2-43.6,87.9   c0,16.7-0.3,36.6,0.2,57.8v0c0.8,34.8,3.9,69.5,15,97.5c10.5,26.6,28.3,47,58.8,55.1c29.6,7.8,55,9.5,75.4,8.4   c12.7-0.7,22.6-1.8,30.1-4c5.9-1.8,10.1-4.1,12.6-8c2.2-3.6,3-8.2,3-14.1c0-5.6-0.5-9-3-10.5c-1.7-1-4-0.8-6.5-0.4   c-3.8,0.6-8.1,2.2-12.4,4c-11.1,4.7-22.3,11.3-29.1,13.3c-16.6,5-31.6,5.3-43.5-0.6c-12.1-6-21.5-18.3-25.5-40   c-1.1-6.2-1-13.7,3.9-20.7c3.4-4.8,8.7-6.7,16.7-5.5c10.5,1.6,28.3,9.5,54.4,10.7c22.7,1,44-1.4,65.6-3.9   c23.8-2.8,45.8-12.7,60.5-25.1C391.5,384.8,397.7,376.6,399.3,368.4z"/>
	<path class="st2" d="M256,7.3c21.7,0,48.7,52.7,48.7,79.6c0,21.7-14.2,40.1-33.7,46.4c-3.6,1.2-1.9,34.6-2.9,34.6   c-1.4,0-22.5,0-23.7,0c-1.5,0,1.3-33.1-3.4-34.6c-19.6-6.3-33.7-24.7-33.7-46.4C207.3,59.9,234.4,7.3,256,7.3z"/>
	<path class="st1" d="M276.6,138.9c-0.2,2-0.6,5.2-0.7,7.9c-0.3,8.2-0.1,17.7-0.4,20.7c-0.6,6.7-6.4,7.6-7.5,7.6   c-1.4,0-22.5,0-23.7,0c-1.8,0-3.6-0.6-5.2-2.1c-0.6-0.6-1.5-1.7-2-3.4c-0.2-0.8-0.5-2.6-0.6-5.1c-0.1-4.6,0.2-12.8-0.2-19.7   c-0.1-1.9-0.4-4.3-0.6-5.8c-21-8.1-35.8-28.4-35.8-52.2c0-20.2,14-53.9,30.5-72.3C238.8,5.3,247.9,0,256,0   c8.1,0,17.2,5.3,25.5,14.5C298,32.9,312,66.7,312,86.8C312,110.4,297.3,130.7,276.6,138.9z M251.3,160.6c3.1,0,6.7,0,9.8,0   c0-7.4,0.3-19.9,1.3-25.3c0.5-2.7,1.3-4.6,2.1-5.7c1.3-1.8,2.8-2.8,4.3-3.3c16.7-5.4,28.7-21,28.7-39.5c0-15-9.3-38.6-20.9-55.1   c-3.7-5.3-7.7-9.9-11.7-13.1c-3-2.4-6-4.1-8.9-4.1c-2.9,0-5.8,1.7-8.9,4.1c-4,3.2-8,7.8-11.7,13.1c-11.6,16.5-20.9,40.1-20.9,55.1   c0,18.4,12.1,34.1,28.7,39.5c2.4,0.8,5.5,3.4,6.7,8.9C251.2,140.6,251.4,153.3,251.3,160.6z"/>
	<path class="st3" d="M324.7,231.8c1.1,6.1,6.9,10.2,13,9.1c6.1-1.1,10.2-6.9,9.1-13c-1.1-6.1-6.9-10.2-13-9.1   C327.7,219.9,323.7,225.7,324.7,231.8z"/>
	<path class="st3" d="M316.1,259.5c1.1,6.1,6.9,10.2,13,9.1c6.1-1.1,10.2-6.9,9.1-13c-1.1-6.1-6.9-10.2-13-9.1   C319.1,247.6,315,253.4,316.1,259.5z"/>
	<path class="st3" d="M344.6,252.7c1.1,6.1,6.9,10.2,13,9.1c6.1-1.1,10.2-6.9,9.1-13c-1.1-6.1-6.9-10.2-13-9.1   C347.6,240.8,343.5,246.6,344.6,252.7z"/>
	<path class="st4" d="M162.7,201.9c5.9-2.3,12.6,0.6,14.9,6.6c2.3,5.9-0.6,12.6-6.6,14.9c-5.5,2.1-10,6.3-13.3,13.6   c-2.6,5.8-9.4,8.4-15.2,5.8c-5.8-2.6-8.4-9.4-5.8-15.2C143.1,213.6,152.2,206,162.7,201.9z"/>
</g>
</svg>