<?xml version="1.0" encoding="UTF-8" standalone="no"?>
<svg
   xmlns:dc="http://purl.org/dc/elements/1.1/"
   xmlns:cc="http://creativecommons.org/ns#"
   xmlns:rdf="http://www.w3.org/1999/02/22-rdf-syntax-ns#"
   xmlns:svg="http://www.w3.org/2000/svg"
   xmlns="http://www.w3.org/2000/svg"
   xmlns:sodipodi="http://sodipodi.sourceforge.net/DTD/sodipodi-0.dtd"
   xmlns:inkscape="http://www.inkscape.org/namespaces/inkscape"
   inkscape:version="1.0 (4035a4fb49, 2020-05-01)"
   height="800"
   width="800"
   sodipodi:docname="taskcafe.svg"
   id="svg951"
   version="1.1"
   viewBox="0 0 800 800">
  <metadata
     id="metadata957">
    <rdf:RDF>
      <cc:Work
         rdf:about="">
        <dc:format>image/svg+xml</dc:format>
        <dc:type
           rdf:resource="http://purl.org/dc/dcmitype/StillImage" />
        <dc:title />
      </cc:Work>
    </rdf:RDF>
  </metadata>
  <defs
     id="defs955">
    <inkscape:path-effect
       effect="bspline"
       id="path-effect1706"
       is_visible="true"
       lpeversion="1"
       weight="33.333333"
       steps="2"
       helper_size="0"
       apply_no_weight="true"
       apply_with_weight="true"
       only_selected="false" />
    <inkscape:path-effect
       effect="bspline"
       id="path-effect1697"
       is_visible="true"
       lpeversion="1"
       weight="33.333333"
       steps="2"
       helper_size="0"
       apply_no_weight="true"
       apply_with_weight="true"
       only_selected="false" />
    <inkscape:path-effect
       only_selected="false"
       apply_with_weight="true"
       apply_no_weight="true"
       helper_size="0"
       steps="2"
       weight="33.333333"
       lpeversion="1"
       is_visible="true"
       id="path-effect917"
       effect="bspline" />
    <inkscape:path-effect
       effect="bspline"
       id="path-effect950"
       is_visible="true"
       lpeversion="1"
       weight="33.333333"
       steps="2"
       helper_size="0"
       apply_no_weight="true"
       apply_with_weight="true"
       only_selected="false" />
    <inkscape:path-effect
       only_selected="false"
       apply_with_weight="true"
       apply_no_weight="true"
       helper_size="0"
       steps="2"
       weight="33.333333"
       lpeversion="1"
       is_visible="true"
       id="path-effect969"
       effect="bspline" />
    <inkscape:path-effect
       only_selected="false"
       apply_with_weight="true"
       apply_no_weight="true"
       helper_size="0"
       steps="2"
       weight="33.333333"
       lpeversion="1"
       is_visible="true"
       id="path-effect2614"
       effect="bspline" />
    <inkscape:path-effect
       effect="bspline"
       id="path-effect2633"
       is_visible="true"
       lpeversion="1"
       weight="33.333333"
       steps="2"
       helper_size="0"
       apply_no_weight="true"
       apply_with_weight="true"
       only_selected="false" />
  </defs>
  <sodipodi:namedview
     inkscape:current-layer="g974"
     inkscape:window-maximized="1"
     inkscape:window-y="-18"
     inkscape:window-x="0"
     inkscape:cy="334.70969"
     inkscape:cx="-85.878541"
     inkscape:zoom="0.60974149"
     units="px"
     showgrid="false"
     id="namedview953"
     inkscape:window-height="1032"
     inkscape:window-width="1920"
     inkscape:pageshadow="2"
     inkscape:pageopacity="0"
     guidetolerance="10"
     gridtolerance="10"
     objecttolerance="10"
     borderopacity="1"
     bordercolor="#666666"
     pagecolor="#ffffff"
     inkscape:document-rotation="0" />
  <g
     transform="matrix(7.6408653,0,0,7.6408653,40.593299,-53.251254)"
     id="g974">
    <g
       id="g2427"
       transform="matrix(1.0804825,0,0,1.0804825,-3.6048898,-9.073961)">
      <path
         transform="matrix(0.13087523,0,0,0.13087523,-5.3126573,6.9692701)"
         style="fill:#7367f0;fill-opacity:1;stroke-width:0.399296"
         d="m 372.01783,403.60348 c -54.69036,0 -99.02539,44.33501 -99.02539,99.02537 0,54.69035 44.33503,99.02537 99.02539,99.02537 54.69036,0 99.02538,-44.33502 99.02538,-99.02537 0,-54.69036 -44.33502,-99.02538 -99.02538,-99.02537 z m 0,19.16619 c 44.13497,0 79.85917,35.71742 79.85917,79.85918 0,44.13497 -35.71741,79.85919 -79.85917,79.85919 -44.13497,0 -79.85918,-35.71742 -79.85918,-79.85919 0,-44.13498 35.71742,-79.85918 79.85918,-79.85918 m 55.98288,52.01507 -8.99853,-9.0712 c -1.86352,-1.87869 -4.89736,-1.89107 -6.77605,-0.0272 L 355.78487,521.674 331.91016,497.60565 c -1.86352,-1.87869 -4.89736,-1.89107 -6.77605,-0.0275 l -9.07159,8.99853 c -1.8787,1.86352 -1.89108,4.89736 -0.0272,6.77646 l 36.24849,36.54196 c 1.86352,1.87869 4.89736,1.89107 6.77605,0.0272 l 68.9141,-68.36106 c 1.87828,-1.86392 1.89025,-4.89778 0.0268,-6.77646 z"
         id="path1636" />
      <g
         transform="translate(-0.16733365,0.61658838)"
         id="g2513">
        <path
           d="m 30.6478,96.94626 h 24.589822 c 6.787817,0 12.294912,-5.507095 12.294912,-12.29491 h 4.098304 c 9.041883,0 16.393214,-7.351333 16.393214,-16.393215 0,-9.041883 -7.351331,-16.393214 -16.393214,-16.393214 H 21.426617 c -1.703357,0 -3.073728,1.37037 -3.073728,3.073727 V 84.65135 c 0,6.787815 5.507096,12.29491 12.294911,12.29491 z M 71.630838,60.061528 c 4.520942,0 8.196607,3.675666 8.196607,8.196607 0,4.520941 -3.675665,8.196607 -8.196607,8.196607 H 67.532534 V 60.061528 Z m 6.109033,49.179642 H 12.243857 c -6.0962274,0 -7.8123921,-8.19661 -4.6105921,-8.19661 H 82.337657 c 3.201799,0 1.511249,8.19661 -4.597786,8.19661 z"
           id="path949"
           style="fill:#7367f0;fill-opacity:1;stroke-width:0.128071" />
        <g
           style="stroke:#7367f0;stroke-width:3.3915463;stroke-miterlimit:4;stroke-dasharray:none;stroke-opacity:1"
           id="g1711"
           transform="translate(-0.91048867,42.172992)">
          <g
             style="stroke-width:3.3915463;stroke-miterlimit:4;stroke-dasharray:none;stroke:#7367f0;stroke-opacity:1"
             id="g2505"
             transform="translate(0.09191978,50.168306)">
            <g
               style="stroke-width:3.3915463;stroke-miterlimit:4;stroke-dasharray:none;stroke:#7367f0;stroke-opacity:1"
               transform="translate(-0.68526563,40.225035)"
               id="g2638">
              <path
                 style="fill:none;stroke:#7367f0;stroke-width:3.3915463;stroke-linecap:butt;stroke-linejoin:miter;stroke-miterlimit:4;stroke-dasharray:none;stroke-opacity:1"
                 d="m 34.769434,-84.879608 c -1.513055,-1.532226 -2.968787,-3.006403 -2.895671,-4.268256 0.07312,-1.261854 1.703997,-2.281876 3.242849,-3.677242 1.538852,-1.395366 2.985679,-3.166058 1.805573,-4.837199 -1.180106,-1.671141 -4.987365,-3.242735 -4.929449,-5.195115 0.05792,-1.95238 3.981161,-4.28523 4.510279,-6.39714 0.529119,-2.11191 -2.336082,-4.003 -5.201646,-5.89433"
                 id="path915"
                 inkscape:original-d="m 34.769434,-84.879608 c -1.48426,-1.560661 -2.968784,-3.006405 -4.453574,-4.510003 1.631212,-1.019797 3.262093,-2.039821 4.892743,-3.060127 1.447149,-1.770498 2.893976,-3.54119 4.340567,-5.312182 -3.807146,-1.571393 -7.614404,-3.14299 -11.422003,-4.71488 3.923669,-2.33269 7.846916,-4.66554 11.769976,-6.99871 -2.86505,-1.8909 -5.730251,-3.78199 -8.595774,-5.67338"
                 inkscape:path-effect="#path-effect917" />
              <path
                 inkscape:path-effect="#path-effect2614"
                 inkscape:original-d="m 45.467515,-84.87961 c -1.48426,-1.56066 -2.968784,-3.006404 -4.453574,-4.510002 1.631212,-1.019797 3.262093,-2.039821 4.892743,-3.060127 1.447149,-1.770498 2.893976,-3.54119 4.340567,-5.312182 -3.807146,-1.571393 -7.614404,-3.142989 -11.422003,-4.714879 3.923669,-2.33269 7.846916,-4.66555 11.769976,-6.99871 -2.86505,-1.8909 -5.730251,-3.78199 -8.595774,-5.67338"
                 id="path915-9"
                 d="m 45.467515,-84.87961 c -1.513055,-1.532226 -2.968786,-3.006402 -2.895671,-4.268255 0.07312,-1.261854 1.703997,-2.281876 3.242849,-3.677242 1.538852,-1.395366 2.985679,-3.166058 1.805573,-4.837199 -1.180106,-1.671141 -4.987365,-3.242734 -4.929449,-5.195114 0.05792,-1.95238 3.981165,-4.28524 4.510282,-6.39714 0.529116,-2.11191 -2.336085,-4.003 -5.201649,-5.89433"
                 style="fill:none;stroke:#7367f0;stroke-width:3.3915463;stroke-linecap:butt;stroke-linejoin:miter;stroke-miterlimit:4;stroke-dasharray:none;stroke-opacity:1" />
              <path
                 style="fill:none;stroke:#7367f0;stroke-width:3.3915463;stroke-linecap:butt;stroke-linejoin:miter;stroke-miterlimit:4;stroke-dasharray:none;stroke-opacity:1"
                 d="m 56.1656,-84.87961 c -1.513055,-1.532227 -2.968786,-3.006403 -2.895671,-4.268257 0.07312,-1.261854 1.703997,-2.281876 3.242849,-3.677242 1.538852,-1.395366 2.985678,-3.166057 1.805572,-4.837198 -1.180105,-1.671141 -4.987363,-3.242733 -4.929448,-5.195113 0.05792,-1.95238 3.981162,-4.28524 4.510282,-6.39715 0.529119,-2.11191 -2.336084,-4.00299 -5.201649,-5.89432"
                 id="path915-9-0"
                 inkscape:original-d="m 56.1656,-84.87961 c -1.48426,-1.560662 -2.968784,-3.006405 -4.453574,-4.510004 1.631212,-1.019796 3.262093,-2.03982 4.892743,-3.060127 1.447149,-1.770498 2.893976,-3.541189 4.340567,-5.312182 -3.807146,-1.571393 -7.614404,-3.142987 -11.422003,-4.714877 3.923669,-2.33269 7.846916,-4.66555 11.769976,-6.99872 -2.86505,-1.89089 -5.730251,-3.78198 -8.595774,-5.67337"
                 inkscape:path-effect="#path-effect2633" />
            </g>
          </g>
        </g>
      </g>
    </g>
    <path
       style="fill:#262c49;fill-opacity:1;stroke-width:0.0704688"
       d="m 43.261321,54.502368 c -9.651936,0 -17.476342,7.824397 -17.476342,17.476337 0,9.651936 7.824406,17.476332 17.476342,17.476332 9.651936,0 17.476341,-7.824396 17.476341,-17.476332 0,-9.65194 -7.824405,-17.476337 -17.476341,-17.476337 z m 0,3.382516 c 7.789101,0 14.093823,6.303527 14.093823,14.093821 0,7.789092 -6.303515,14.093814 -14.093823,14.093814 -7.78907,0 -14.093824,-6.303524 -14.093824,-14.093814 0,-7.789096 6.303547,-14.093821 14.093824,-14.093821 m 9.880072,9.179792 -1.588108,-1.600905 c -0.32889,-0.331567 -0.864317,-0.333743 -1.195884,-0.005 l -9.960922,9.880789 -4.21349,-4.247674 c -0.328891,-0.331551 -0.864317,-0.333729 -1.195884,-0.005 l -1.60096,1.588096 c -0.331567,0.32888 -0.333754,0.864301 -0.0033,1.195929 l 6.397254,6.449049 c 0.328858,0.331555 0.864285,0.333745 1.195852,0.005 L 53.138136,68.26044 c 0.331501,-0.328947 0.333621,-0.86437 0.0032,-1.19593 z"
       id="path2782" />
  </g>
</svg>
