<svg version="1.1" viewBox="0 0 1000 1000" xmlns="http://www.w3.org/2000/svg"><g transform="scale(2.879)"><circle cx="173.67" cy="173.67" r="173.67" fill="#282a2d"/><path d="m266.01 238.92c-10.935 0-20.375 6.382-24.809 15.623l-39.383-5.715c-0.139-15.068-12.393-27.242-27.493-27.242a27.36 27.36 0 0 0-14.646 4.229l-55.963-63.414c3.224-4.505 5.127-10.02 5.127-15.981 0-15.188-12.312-27.5-27.5-27.5s-27.5 12.312-27.5 27.5 12.312 27.5 27.5 27.5a27.37 27.37 0 0 0 12.934-3.23l56.56 64.089c-2.544 4.168-4.012 9.064-4.012 14.307 0 15.188 12.312 27.5 27.5 27.5 10.872 0 20.269-6.311 24.731-15.467l39.463 5.727c0.229 14.99 12.443 27.074 27.49 27.074 15.188 0 27.5-12.313 27.5-27.5s-12.312-27.5-27.499-27.5z" fill="#fff"/><path d="m266.01 53.423c-15.188 0-27.5 12.312-27.5 27.5 0 7.48 2.99 14.258 7.836 19.216l-60.943 86.113c-3.389-1.493-7.135-2.329-11.076-2.329-15.188 0-27.5 12.313-27.5 27.5a27.47 27.47 0 0 0 1.125 7.783l-46.306 28.668c-5.028-5.5-12.261-8.951-20.3-8.951-15.188 0-27.5 12.313-27.5 27.5s12.312 27.5 27.5 27.5 27.5-12.313 27.5-27.5a27.48 27.48 0 0 0-1.064-7.57l46.396-28.724c5.022 5.407 12.189 8.794 20.15 8.794 15.188 0 27.5-12.313 27.5-27.5 0-6.701-2.399-12.84-6.382-17.611l61.515-86.92c2.837 0.988 5.88 1.532 9.052 1.532 15.188 0 27.5-12.312 27.5-27.5s-12.316-27.501-27.503-27.501z" fill="#e5a00d"/></g></svg>
