<svg xmlns="http://www.w3.org/2000/svg" enable-background="new 0 0 70 70" version="1.1" viewBox="0 0 70 70" xml:space="preserve"><linearGradient id="d" x1="1.774" x2="40.166" y1="31.273" y2="31.273" gradientUnits="userSpaceOnUse"><stop offset="0" stop-color="#905CFB"/><stop offset=".068" stop-color="#776CF9"/><stop offset=".173" stop-color="#5681F7"/><stop offset=".286" stop-color="#3B92F5"/><stop offset=".41" stop-color="#269FF4"/><stop offset=".547" stop-color="#17A9F3"/><stop offset=".711" stop-color="#0FAEF2"/><stop offset=".968" stop-color="#0CB0F2"/></linearGradient><path fill="url(#d)" d="m39.7 47.9-6.1-34c-0.4-2.4-1.2-4.8-2.7-7.1-2-3.2-5.2-5.4-8.8-6.3-14.2-3.4-24.7 10.8-18.5 23.4l14.8 31.7c0.4 1 1 2 1.7 2.9 1.2 1.6 2.8 2.8 4.7 3.4 9.6 3 17.3-5.5 14.9-14z"/><linearGradient id="c" x1="5.311" x2="69.228" y1="9.669" y2="43.866" gradientUnits="userSpaceOnUse"><stop offset="0" stop-color="#905CFB"/><stop offset=".068" stop-color="#776CF9"/><stop offset=".173" stop-color="#5681F7"/><stop offset=".286" stop-color="#3B92F5"/><stop offset=".41" stop-color="#269FF4"/><stop offset=".547" stop-color="#17A9F3"/><stop offset=".711" stop-color="#0FAEF2"/><stop offset=".968" stop-color="#0CB0F2"/></linearGradient><path fill="url(#c)" d="m67.4 26.5c-1.4-2.2-3.4-3.9-5.7-4.9l-36.2-19.9c-1-0.5-2.1-1-3.3-1.3-15.5-3.6-26.6 13.4-16.7 26.6 1.5 2 3.6 3.6 6 4.5l36.5 16.4c0.8 0.5 1.6 0.8 2.5 1.1 14 4.4 24.6-10.4 16.9-22.5z"/><linearGradient id="b" x1="-19.284" x2="55.983" y1="70.82" y2="33.186" gradientUnits="userSpaceOnUse"><stop offset="0" stop-color="#3BEA62"/><stop offset=".117" stop-color="#31DE80"/><stop offset=".302" stop-color="#24CEA8"/><stop offset=".484" stop-color="#1AC1C9"/><stop offset=".659" stop-color="#12B7DF"/><stop offset=".824" stop-color="#0EB2ED"/><stop offset=".968" stop-color="#0CB0F2"/></linearGradient><path fill="url(#b)" d="m67.4 26.5c-1.8-2.8-4.6-4.8-7.9-5.6-3.5-0.8-6.8-0.5-9.6 0.7l-38.5 14.5s-0.2 0.1-0.6 0.4c-9.9 3.9-14.8 16.8-6.8 27.5 1.8 2.4 4.3 4.2 7.1 5 5.3 1.6 10.1 1 14-1.1h0.1l37.6-20.1 0.1-0.1c6.6-3.8 9.7-13.1 4.5-21.2z"/><linearGradient id="a" x1="38.944" x2="5.423" y1="5.85" y2="77.509" gradientUnits="userSpaceOnUse"><stop offset="0" stop-color="#3BEA62"/><stop offset=".094" stop-color="#2FDB87"/><stop offset=".196" stop-color="#24CEA8"/><stop offset=".306" stop-color="#1BC3C3"/><stop offset=".426" stop-color="#14BAD8"/><stop offset=".56" stop-color="#10B5E7"/><stop offset=".719" stop-color="#0DB1EF"/><stop offset=".968" stop-color="#0CB0F2"/></linearGradient><path fill="url(#a)" d="m50.3 12.8c1.2-2.7 1.1-6-0.9-9-1.1-1.8-2.9-3-4.9-3.5-4.5-1.1-8.3 1-10.1 4.2l-30.9 37.5v0.1c-4.4 5.8-5.1 14.4 0.5 21.9 1.8 2.4 4.3 4.2 7.1 5 10.5 3.3 19.3-2.5 22.1-10.8l17.1-45.4z"/><rect width="43.2" height="43.2" x="13.4" y="13.4"/><rect width="16.2" height="2.7" x="17.5" y="48.5" fill="#fff"/><polygon fill="#fff" points="22.9 22.7 17.5 22.7 17.5 19.1 32.3 19.1 32.3 22.7 26.8 22.7 26.8 37 22.9 37"/><path fill="#fff" d="m32.5 28.1c0-5.1 3.8-9.3 9.3-9.3 3.4 0 5.4 1.1 7.1 2.8l-2.5 2.9c-1.4-1.3-2.8-2-4.6-2-3 0-5.2 2.5-5.2 5.6v-0.1c0 3.1 2.1 5.6 5.2 5.6 2 0 3.3-0.8 4.7-2.1l2.5 2.5c-1.8 2-3.9 3.2-7.3 3.2-5.3 0.1-9.2-4-9.2-9.1"/></svg>