<svg xmlns="http://www.w3.org/2000/svg" xmlns:xlink="http://www.w3.org/1999/xlink" id="Calque_1" x="0" y="0" version="1.1" viewBox="0 0 512 512" style="enable-background:new 0 0 512 512" xml:space="preserve"><style type="text/css">.st0{fill:url(#SVGID_1_)}.st0,.st2,.st4,.st6,.st9{fill-rule:evenodd;clip-rule:evenodd}.st2{fill:#4dcaed}.st4{fill:#b7bdd2}.st6{fill:#d1d1e0}.st9{fill:#94a2c1}</style><g><g transform="matrix(1,0,0,1,3,0) matrix(1.30256,0,0,1.30256,292.473,-10.7761)"><linearGradient id="SVGID_1_" x1="-1277.564" x2="-1276.699" y1="619.433" y2="619.433" gradientTransform="matrix(1.402593e-14 -229.0611 -229.0611 -1.402593e-14 141738.5156 -292349.5938)" gradientUnits="userSpaceOnUse"><stop offset="0" style="stop-color:#4b69b6"/><stop offset="1" style="stop-color:#435ea5"/></linearGradient><circle cx="-149.6" cy="214.6" r="76.1" class="st0"/></g><g transform="matrix(1,0,0,1,3,0) matrix(1.30256,0,0,1.30256,292.473,-10.7761)"><linearGradient id="SVGID_00000173119616044842645010000018170336070743425456_" x1="-1277.564" x2="-1276.699" y1="619.433" y2="619.433" gradientTransform="matrix(3.003093e-06 -229.0611 -229.0611 -3.003093e-06 141738.5312 -292349.5938)" gradientUnits="userSpaceOnUse"><stop offset="0" style="stop-color:#5773bb"/><stop offset="1" style="stop-color:#3a5290"/></linearGradient><path style="fill-rule:evenodd;clip-rule:evenodd;fill:url(#SVGID_00000173119616044842645010000018170336070743425456_)" d="M-149.6,138.5c42,0,76.1,34.1,76.1,76.1s-34.1,76.1-76.1,76.1s-76.1-34.1-76.1-76.1S-191.6,138.5-149.6,138.5z M-149.6,143.3 c39.4,0,71.3,32,71.3,71.3s-32,71.3-71.3,71.3s-71.3-31.9-71.3-71.3S-189,143.3-149.6,143.3z"/></g><g transform="matrix(1,0,0,1,3,0) matrix(1.30256,0,0,1.30256,292.473,-10.7761)"><circle cx="-149.6" cy="214.6" r="57" class="st2"/></g><g transform="matrix(1,0,0,1,3,0) matrix(1.30256,0,0,1.30256,292.473,-10.7761)"><linearGradient id="SVGID_00000018929752625409573960000018444748600461060511_" x1="-1277.561" x2="-1276.696" y1="619.396" y2="619.396" gradientTransform="matrix(5.341540e-13 -157.4792 -157.4792 -5.341540e-13 97392.4531 -200922.3906)" gradientUnits="userSpaceOnUse"><stop offset="0" style="stop-color:#22b2e7"/><stop offset="1" style="stop-color:#177a9e"/></linearGradient><circle style="fill-rule:evenodd;clip-rule:evenodd;fill:url(#SVGID_00000018929752625409573960000018444748600461060511_)" cx="-149.6" cy="214.6" r="52.3"/></g><g transform="matrix(1,0,0,1,3,0) matrix(1.30256,0,0,1.30256,292.473,-10.7761)"><circle cx="-149.6" cy="214.6" r="39.2" class="st4"/></g><g transform="matrix(1,0,0,1,3,0) matrix(1.30256,0,0,1.30256,292.473,-10.7761)"><linearGradient id="SVGID_00000095323593069601683160000006668851309279763364_" x1="-1277.569" x2="-1276.704" y1="619.522" y2="619.522" gradientTransform="matrix(2.522901e-14 -412.0207 -412.0207 -2.522901e-14 255200.875 -526038.6875)" gradientUnits="userSpaceOnUse"><stop offset="0" style="stop-color:#4b69b6"/><stop offset="1" style="stop-color:#435ea5"/></linearGradient><path style="fill-rule:evenodd;clip-rule:evenodd;fill:url(#SVGID_00000095323593069601683160000006668851309279763364_)" d="M-58.6,75.4c2.1,1.3,4,2.7,5.6,4.2c20.2,18.7,30.1,37.1,35.7,62.6c4.9,22.6,7.3,33.5-4.6,41.7c-16,11.1,17.1,58.6,23.6,72.3 c-8.5,10.9-19.7,10.7-25.5,13.7c-3.3,1.7-1.9,7.9-1.4,12.7c0.5,4.7,4.8,7.6,2.5,11.3c-2.1,3.3-10.2,3.5-13.6,5.7 c3.4,3.7,10.8,7.4,9.8,12.2c-0.8,3.7-9.1,3.1-12.4,11.5c-1.7,4.5-0.8,12.9-4.4,17.2c-5.4,6.4-11,9.3-19,10.1 c-4.3,0.5-8.6,0-12.7-1.3c-13.3-4.4-25.7-10.7-36.8-18.5c4.6,0.8,9.5,1.5,14.8,2.1c15.2,1.7,22.8,0.2,30.1-8.4 c3.1-3.7,2.4-11.1,3.9-15.1c2.8-7.4,10.2-6.9,10.9-10.1c0.9-4.2-5.7-7.5-8.6-10.7c3.1-2,10.1-2.2,12-5c2.1-3.2-1.7-5.8-2.2-9.9 c-0.5-4.2-1.7-9.7,1.2-11.2c5.2-2.7,15-2.5,22.5-12.1c-5.7-12.1-34.8-53.8-20.7-63.6c10.4-7.2,8.3-16.8,4-36.7 c-4.9-22.5-13.7-38.6-31.4-55.1c-3.8-3.5-9.5-6.5-15.8-8.7C-80.9,81.5-69.9,77.8-58.6,75.4z"/></g><g><path d="M-26.4,72.7c3,0.1,6,0.3,9.1,0.5c78.1,7.1,135.7,76.2,128.6,154.3c-6.5,72-65.9,126.6-136.3,129.1 c1-0.8,2-1.6,2.9-2.6c6-6.2,7.2-13.6,8.2-21.3c0.5-3.9,3.4-4.1,5.9-5.6c10.7-6.2,6.2-20.5,6.2-20.5c3.1-2.4,5.4-5.9,6.1-9.8 c1-5.4-2.7-10.1-3.5-16.3c1.5-0.4,3-0.9,4.5-1.3c12.1-4,28.6-13.6,22.4-26.6c-6.9-14.4-16.6-28-22.9-43 c-2.5-5.9-5.3-11.8-4.3-17.2c11.8-8.5,14.2-22.2,12.5-34.7C8.3,124.8-4.3,95-26.4,72.7z" class="st6" transform="matrix(1,0,0,1,3,0) matrix(1.30256,0,0,1.30256,292.473,-10.7761)"/></g><g transform="matrix(1,0,0,1,3,0) matrix(1.30256,0,0,1.30256,292.473,-10.7761)"><linearGradient id="SVGID_00000016798262513760073760000016866132397764073601_" x1="-1277.57" x2="-1276.705" y1="619.476" y2="619.476" gradientTransform="matrix(1.897166e-14 -309.831 -309.831 -1.897166e-14 191983.0469 -395520.625)" gradientUnits="userSpaceOnUse"><stop offset="0" style="stop-color:#a7b1cd"/><stop offset=".46" style="stop-color:#c8cbdc"/><stop offset="1" style="stop-color:#d1d2e0"/></linearGradient><path style="fill-rule:evenodd;clip-rule:evenodd;fill:url(#SVGID_00000016798262513760073760000016866132397764073601_)" d="M6.3,93.6c19.1,7.2,36.6,18.1,50.7,32.7c26.9,27.8,42.9,68.2,35.1,105.9c-7.3,35.7-38.3,65.4-58.8,74.5 c-9.8,4.4-17.8,3.7-17.7,2.5c0.1-1.2,1.3-3.7,7.4-11.1c22-26.5,35-65.3,15.6-95.5c-3.9-6.1-8.7-11.3-14.1-15.7 c4.4-8.2,5.1-17.8,3.9-26.9C25.2,135.8,17.9,113.3,6.3,93.6z"/></g><g transform="matrix(1,0,0,1,3,0) matrix(1.30256,0,0,1.30256,292.473,-10.7761)"><linearGradient id="SVGID_00000082337533641583670750000009305790811494690449_" x1="-1277.588" x2="-1276.723" y1="619.514" y2="619.514" gradientTransform="matrix(110.7201 -345.8607 -345.8607 -110.7201 355560.125 -373025.4062)" gradientUnits="userSpaceOnUse"><stop offset="0" style="stop-color:#b7bdd2"/><stop offset="1" style="stop-color:#607bb6"/></linearGradient><path style="fill-rule:evenodd;clip-rule:evenodd;fill:url(#SVGID_00000082337533641583670750000009305790811494690449_)" d="M-33.6,19.4c-69.1,37.7-116,111-116,195.2c0,13.3,1.2,26.4,3.4,39.1c-1.1,0.1-2.3,0.2-3.4,0.2c-21.6,0-39.2-17.6-39.2-39.2 c0-65,23.8-124.6,63.2-170.3C-98.3,28.9-67,19.9-33.6,19.4z"/></g><g><path d="M-125.7,44.2c28.2-15.9,60.8-24.9,95.4-24.9c107.8,0,195.3,87.5,195.3,195.3c0,104.4-94.8,200.6-235.7,169.8 l-0.3-0.3c84.3,9,146.5-25.4,180.1-75.6l0.2-0.3c18-26.8,28.5-59,28.5-93.7v0c0-92.8-75.4-168.1-168.2-168.1 c-60.8,0-114,32.3-143.6,80.7C-162.9,96.5-146.5,68.4-125.7,44.2z" class="st9" transform="matrix(1,0,0,1,3,0) matrix(1.30256,0,0,1.30256,292.473,-10.7761)"/></g><g><path d="M-30.2,19.3c107.8,0,195.3,87.5,195.3,195.3c0,41.8-15.2,82.4-42.5,113.9c23.8-31.8,37.8-71.2,37.8-113.9 C160.3,109.4,75,24.1-30.2,24.1c-38.5,0-74.4,11.4-104.3,31.1c2.9-3.7,5.8-7.4,8.9-10.9c11.9-6.7,24.6-12.2,37.8-16.3l0.1,0 l1.4-0.4l0,0l1.5-0.4l1.5-0.4l0,0l1.4-0.4l0.1,0l1.4-0.4c0.5-0.1,1-0.3,1.5-0.4l1.4-0.4l0.2-0.1l1.3-0.3l0.2,0l1.5-0.3l1.5-0.3 l0.2,0l1.2-0.3l0.3-0.1l1.3-0.3l0.1,0l1.5-0.3l0.1,0l1.3-0.3l0.3-0.1l1.2-0.2l0.3-0.1l1.4-0.3l1.4-0.2l0.3-0.1l1.1-0.2l0.4-0.1 l1.2-0.2l0.2,0l1.5-0.2l0.2,0L-56,21l0.4-0.1l1.1-0.1l0.4,0l1.4-0.2l1.4-0.2l0.4,0l1.1-0.1l0.5,0l1.1-0.1l0.3,0l1.4-0.1l0.3,0 l1.1-0.1l0.5,0l1-0.1l0.4,0l1.5-0.1l1.5-0.1l0.4,0l1,0l0.5,0l1.1,0l0.3,0l1.5,0l0.3,0l1.1,0l0.5,0l1,0l0.5,0L-30.2,19.3z" class="st4" transform="matrix(1,0,0,1,3,0) matrix(1.30256,0,0,1.30256,292.473,-10.7761)"/></g></g></svg>