<svg xmlns="http://www.w3.org/2000/svg" xmlns:xlink="http://www.w3.org/1999/xlink" id="Ebene_1" x="0" y="0" version="1.1" viewBox="0 0 429.2 512" style="enable-background:new 0 0 429.2 512" xml:space="preserve"><style type="text/css">.st0{fill:#e20074}</style><g><path d="M967.2,1693.2v-126h-86.6c-149.4,0-218-88.8-218-219.5V27.1h25.7c279.8,0,457.5,185.7,457.5,458.7v24.5h106.4 V-98.9H-249.9v609.2h106.4v-24.5c0-273,177.7-458.7,457.5-458.7h25.7v1320.6c0,130.7-68.6,219.5-218,219.5H35.1v126H967.2z" class="st0" transform="matrix(.2857 0 0 .2857 71.408 28.262)"/><path d="M1252.2,1084H895V725.6h357.2V1084z" class="st0" transform="matrix(.2857 0 0 .2857 71.408 28.262)"/><path d="M107.3,1084h-357.2V725.6h357.2V1084z" class="st0" transform="matrix(.2857 0 0 .2857 71.408 28.262)"/></g></svg>