<svg xmlns="http://www.w3.org/2000/svg" xmlns:xlink="http://www.w3.org/1999/xlink" width="130" height="137"><defs><linearGradient id="c" x1="50%" x2="50%" y1="0%" y2="100%"><stop offset="0%" stop-color="#1E2751"/><stop offset="100%" stop-color="#0C143D"/></linearGradient><linearGradient id="d" x1="0%" x2="100%" y1="3.35%" y2="100%"><stop offset="0%" stop-color="#3849B5"/><stop offset="100%" stop-color="#1A237E"/></linearGradient><linearGradient id="e" x1="79.399%" x2="13.46%" y1="-85.398%" y2="191.967%"><stop offset="0%" stop-color="#FFF"/><stop offset="18.227%" stop-color="#FFF"/><stop offset="100%" stop-color="#E8EAF6" stop-opacity=".24"/></linearGradient><filter id="b" width="113.9%" height="117.4%" x="-7%" y="-7%" filterUnits="objectBoundingBox"><feOffset dy="4" in="SourceAlpha" result="shadowOffsetOuter1"/><feGaussianBlur in="shadowOffsetOuter1" result="shadowBlurOuter1" stdDeviation="2"/><feComposite in="shadowBlurOuter1" in2="SourceAlpha" operator="out" result="shadowBlurOuter1"/><feColorMatrix in="shadowBlurOuter1" result="shadowMatrixOuter1" values="0 0 0 0 0 0 0 0 0 0 0 0 0 0 0 0 0 0 0.24 0"/><feOffset in="SourceAlpha" result="shadowOffsetOuter2"/><feGaussianBlur in="shadowOffsetOuter2" result="shadowBlurOuter2" stdDeviation="2"/><feComposite in="shadowBlurOuter2" in2="SourceAlpha" operator="out" result="shadowBlurOuter2"/><feColorMatrix in="shadowBlurOuter2" result="shadowMatrixOuter2" values="0 0 0 0 0 0 0 0 0 0 0 0 0 0 0 0 0 0 0.12 0"/><feMerge><feMergeNode in="shadowMatrixOuter1"/><feMergeNode in="shadowMatrixOuter2"/></feMerge></filter><filter id="f" width="313.9%" height="302.6%" x="-106.9%" y="-101.3%" filterUnits="objectBoundingBox"><feOffset dy="8" in="SourceAlpha" result="shadowOffsetOuter1"/><feGaussianBlur in="shadowOffsetOuter1" result="shadowBlurOuter1" stdDeviation="16"/><feColorMatrix in="shadowBlurOuter1" result="shadowMatrixOuter1" values="0 0 0 0 0 0 0 0 0 0 0 0 0 0 0 0 0 0 0.24 0"/><feMerge><feMergeNode in="shadowMatrixOuter1"/><feMergeNode in="SourceGraphic"/></feMerge></filter><filter id="g" width="313.9%" height="302.6%" x="-106.9%" y="-101.3%" filterUnits="objectBoundingBox"><feOffset dy="8" in="SourceAlpha" result="shadowOffsetOuter1"/><feGaussianBlur in="shadowOffsetOuter1" result="shadowBlurOuter1" stdDeviation="16"/><feColorMatrix in="shadowBlurOuter1" result="shadowMatrixOuter1" values="0 0 0 0 0 0 0 0 0 0 0 0 0 0 0 0 0 0 0.24 0"/><feMerge><feMergeNode in="shadowMatrixOuter1"/><feMergeNode in="SourceGraphic"/></feMerge></filter><circle id="a" cx="57.5" cy="57.5" r="57.5"/></defs><g fill="none"><g transform="translate(8 4)"><use xlink:href="#a" fill="#000" filter="url(#b)"/><circle cx="57.5" cy="57.5" r="56.5" fill="url(#c)" fill-rule="evenodd" stroke="url(#d)" stroke-linejoin="square" stroke-width="2"/></g><g fill="url(#e)" filter="url(#f)" style="mix-blend-mode:overlay" transform="translate(29 23)"><path d="M71.353 48.731c.52.371.706 1.076.447 1.67-1.484 4.563-4.04 8.904-7.191 12.502-.444.52-1.074.705-1.668.445l-9.155-3.19a28.065 28.065 0 0 1-7.56 4.415l-1.817 9.498c-.111.593-.63 1.15-1.26 1.224-2.372.446-4.745.705-7.19.705-2.447 0-4.82-.26-7.191-.705-.63-.074-1.15-.63-1.26-1.224l-1.817-9.498c-2.742-1.076-5.374-2.56-7.56-4.415l-9.155 3.19c-.593.26-1.224.075-1.669-.445-3.15-3.598-5.707-7.939-7.19-12.502a1.381 1.381 0 0 1 .445-1.67l7.263-6.306c-.26-1.41-.333-2.932-.333-4.416 0-1.483.074-3.005.333-4.415L.561 27.287a1.381 1.381 0 0 1-.445-1.67c1.483-4.562 4.04-8.903 7.19-12.502.446-.52 1.076-.705 1.67-.445l9.154 3.19c2.187-1.855 4.818-3.338 7.561-4.415l1.816-9.497c.111-.594.63-1.15 1.26-1.225a36.094 36.094 0 0 1 14.38 0c.631.074 1.15.631 1.262 1.225l1.815 9.497a28.085 28.085 0 0 1 7.561 4.415l9.155-3.19c.593-.26 1.224-.075 1.668.445 3.15 3.598 5.707 7.94 7.19 12.502a1.38 1.38 0 0 1-.445 1.67l-7.264 6.307c.26 1.41.334 2.931.334 4.415s-.074 3.005-.334 4.415l7.264 6.307ZM36 62.51c13.542 0 24.52-10.974 24.52-24.51 0-13.536-10.978-24.51-24.52-24.51S11.48 24.464 11.48 38c0 13.536 10.978 24.51 24.52 24.51Zm0-3.093c-11.833 0-21.425-9.588-21.425-21.417 0-11.829 9.592-21.417 21.425-21.417S57.425 26.17 57.425 38c0 11.829-9.592 21.417-21.425 21.417ZM24.006 28v6.002h8.997v15.006H40V34.002h9.004V28H24.006Z"/></g><g fill="url(#e)" filter="url(#g)" opacity=".441" style="mix-blend-mode:overlay" transform="translate(29 23)"><path d="M71.353 48.731c.52.371.706 1.076.447 1.67-1.484 4.563-4.04 8.904-7.191 12.502-.444.52-1.074.705-1.668.445l-9.155-3.19a28.065 28.065 0 0 1-7.56 4.415l-1.817 9.498c-.111.593-.63 1.15-1.26 1.224-2.372.446-4.745.705-7.19.705-2.447 0-4.82-.26-7.191-.705-.63-.074-1.15-.63-1.26-1.224l-1.817-9.498c-2.742-1.076-5.374-2.56-7.56-4.415l-9.155 3.19c-.593.26-1.224.075-1.669-.445-3.15-3.598-5.707-7.939-7.19-12.502a1.381 1.381 0 0 1 .445-1.67l7.263-6.306c-.26-1.41-.333-2.932-.333-4.416 0-1.483.074-3.005.333-4.415L.561 27.287a1.381 1.381 0 0 1-.445-1.67c1.483-4.562 4.04-8.903 7.19-12.502.446-.52 1.076-.705 1.67-.445l9.154 3.19c2.187-1.855 4.818-3.338 7.561-4.415l1.816-9.497c.111-.594.63-1.15 1.26-1.225a36.094 36.094 0 0 1 14.38 0c.631.074 1.15.631 1.262 1.225l1.815 9.497a28.085 28.085 0 0 1 7.561 4.415l9.155-3.19c.593-.26 1.224-.075 1.668.445 3.15 3.598 5.707 7.94 7.19 12.502a1.38 1.38 0 0 1-.445 1.67l-7.264 6.307c.26 1.41.334 2.931.334 4.415s-.074 3.005-.334 4.415l7.264 6.307ZM36 62.51c13.542 0 24.52-10.974 24.52-24.51 0-13.536-10.978-24.51-24.52-24.51S11.48 24.464 11.48 38c0 13.536 10.978 24.51 24.52 24.51Zm0-3.093c-11.833 0-21.425-9.588-21.425-21.417 0-11.829 9.592-21.417 21.425-21.417S57.425 26.17 57.425 38c0 11.829-9.592 21.417-21.425 21.417ZM24.006 28v6.002h8.997v15.006H40V34.002h9.004V28H24.006Z"/></g></g></svg>