<?xml version="1.0" encoding="utf-8"?>
<!-- Generator: Adobe Illustrator 27.7.0, SVG Export Plug-In . SVG Version: 6.00 Build 0)  -->
<svg version="1.1" id="Livello_1" xmlns="http://www.w3.org/2000/svg" xmlns:xlink="http://www.w3.org/1999/xlink" x="0px" y="0px"
	 viewBox="0 0 512 512" style="enable-background:new 0 0 512 512;" xml:space="preserve">
<style type="text/css">
	.st0{fill:url(#SVGID_1_);}
	.st1{fill:#C8DAEA;}
	.st2{fill:#A9C6D8;}
	.st3{fill:#FFFFFF;}
</style>
<g>
	
		<linearGradient id="SVGID_1_" gradientUnits="userSpaceOnUse" x1="256" y1="2" x2="256" y2="514" gradientTransform="matrix(1 0 0 -1 0 514)">
		<stop  offset="0" style="stop-color:#1D93D2"/>
		<stop  offset="1" style="stop-color:#38B0E3"/>
	</linearGradient>
	<circle class="st0" cx="256" cy="256" r="256"/>
	<path class="st1" d="M173.3,274.7l30.4,84.1c0,0,3.8,7.9,7.9,7.9s64.5-62.9,64.5-62.9l67.3-129.9L174.4,253L173.3,274.7z"/>
	<path class="st2" d="M213.6,296.3l-5.8,62c0,0-2.4,19,16.5,0c19-19,37.2-33.6,37.2-33.6"/>
	<path class="st3" d="M173.8,277.7l-62.5-20.4c0,0-7.5-3-5.1-9.9c0.5-1.4,1.5-2.6,4.5-4.7C124.6,233.1,367,146,367,146
		s6.8-2.3,10.9-0.8c2,0.6,3.6,2.3,4,4.4c0.4,1.8,0.6,3.7,0.5,5.5c0,1.6-0.2,3.1-0.4,5.4c-1.5,23.8-45.7,201.6-45.7,201.6
		s-2.6,10.4-12.1,10.8c-4.7,0.2-9.3-1.6-12.6-4.9c-18.6-16-82.8-59.2-97-68.6c-0.6-0.4-1.1-1.1-1.2-1.9c-0.2-1,0.9-2.2,0.9-2.2
		s111.8-99.4,114.8-109.8c0.2-0.8-0.6-1.2-1.8-0.9c-7.4,2.7-136.2,84.1-150.4,93C176,277.8,174.9,277.9,173.8,277.7z"/>
</g>
</svg>
