<?xml version="1.0" encoding="UTF-8" standalone="no"?>
<svg xmlns:dc="http://purl.org/dc/elements/1.1/" xmlns:cc="http://creativecommons.org/ns#" xmlns:rdf="http://www.w3.org/1999/02/22-rdf-syntax-ns#" xmlns:svg="http://www.w3.org/2000/svg" xmlns="http://www.w3.org/2000/svg" xmlns:xlink="http://www.w3.org/1999/xlink" viewBox="0 0 128 128" style="display:inline;enable-background:new" version="1.0" id="svg11300" height="128" width="128">


  <title id="title4162">Adwaita Icon Template</title>
  <defs id="defs3">
    <linearGradient id="linearGradient1948">
      <stop id="stop1944" offset="0" style="stop-color:#2d2839;stop-opacity:1;"/>
      <stop id="stop1946" offset="1" style="stop-color:#282433;stop-opacity:1"/>
    </linearGradient>
    <linearGradient id="linearGradient1020">
      <stop id="stop1016" offset="0" style="stop-color:#ffffff;stop-opacity:1;"/>
      <stop id="stop1018" offset="1" style="stop-color:#ffffff;stop-opacity:0.09411765"/>
    </linearGradient>
    <linearGradient id="linearGradient1001">
      <stop id="stop989" offset="0" style="stop-color:#77767b;stop-opacity:1"/>
      <stop style="stop-color:#c0bfbc;stop-opacity:1" offset="0.05" id="stop991"/>
      <stop id="stop993" offset="0.09999998" style="stop-color:#9a9996;stop-opacity:1"/>
      <stop style="stop-color:#9a9996;stop-opacity:1" offset="0.89999938" id="stop995"/>
      <stop id="stop997" offset="0.94999999" style="stop-color:#c0bfbc;stop-opacity:1"/>
      <stop id="stop999" offset="1" style="stop-color:#77767b;stop-opacity:1"/>
    </linearGradient>
    <linearGradient gradientUnits="userSpaceOnUse" y2="44" x2="464" y1="44" x1="48" id="linearGradient965" xlink:href="#linearGradient1001"/>
    <radialGradient gradientUnits="userSpaceOnUse" gradientTransform="matrix(-4.7272726,7.935912e-7,-3.0301491e-7,-1.6363636,238.54547,49.766183)" r="44" fy="194.19048" fx="63.999996" cy="194.19048" cx="63.999996" id="radialGradient1030" xlink:href="#linearGradient1020"/>
    <linearGradient gradientUnits="userSpaceOnUse" y2="269.13693" x2="70.346565" y1="245.39511" x1="70.346565" id="linearGradient1950" xlink:href="#linearGradient1948"/>
  </defs>
  <metadata id="metadata4">
    
  </metadata>
  <g transform="translate(0,-172)" style="display:inline" id="layer1">
    <g style="display:inline" id="layer9">
      <g transform="rotate(-30,420.69873,288.4192)" id="g1710" style="display:inline;enable-background:new"/>
      <rect transform="matrix(0.25,0,0,0.25,0,225)" style="display:inline;opacity:1;fill:url(#linearGradient965);fill-opacity:1;stroke:none;stroke-width:1;stroke-linecap:butt;stroke-linejoin:miter;stroke-miterlimit:4;stroke-dasharray:none;stroke-dashoffset:0;stroke-opacity:1;marker:none;marker-start:none;marker-mid:none;marker-end:none;paint-order:normal;enable-background:new" id="rect953" width="416" height="376" x="48" y="-124" rx="32" ry="32"/>
      <rect ry="32" rx="32" y="-164" x="48" height="384" width="416" id="rect950" style="display:inline;opacity:1;fill:#deddda;fill-opacity:1;stroke:none;stroke-width:1;stroke-linecap:butt;stroke-linejoin:miter;stroke-miterlimit:4;stroke-dasharray:none;stroke-dashoffset:0;stroke-opacity:1;marker:none;marker-start:none;marker-mid:none;marker-end:none;paint-order:normal;enable-background:new" transform="matrix(0.25,0,0,0.25,0,225)"/>
      <rect transform="scale(1,-1)" ry="3.9999695" rx="4" y="-276" x="16" height="87.999969" width="96" id="rect1004" style="display:inline;opacity:1;vector-effect:none;fill:#241f31;fill-opacity:1;stroke:none;stroke-width:0.01121096px;stroke-linecap:butt;stroke-linejoin:miter;stroke-miterlimit:4;stroke-dasharray:none;stroke-dashoffset:0;stroke-opacity:1;marker:none;marker-start:none;marker-mid:none;marker-end:none;paint-order:normal;enable-background:new"/>
      <rect transform="scale(-1)" style="display:inline;opacity:0.05;vector-effect:none;fill:url(#radialGradient1030);fill-opacity:1;stroke:none;stroke-width:0.01121096px;stroke-linecap:butt;stroke-linejoin:miter;stroke-miterlimit:4;stroke-dasharray:none;stroke-dashoffset:0;stroke-opacity:1;marker:none;marker-start:none;marker-mid:none;marker-end:none;paint-order:normal;enable-background:new" id="rect968" width="88" height="78" x="-108" y="-272"/>
      <g id="g976" transform="translate(-2,-2)" style="fill:#ffffff">
        <path d="M 44.012301,210.88755 30,203.27182 V 208 l 9.710724,4.62951 v 0.1422 L 30,218 v 4.72818 l 14.012301,-8.21451 z" style="font-style:normal;font-variant:normal;font-weight:bold;font-stretch:normal;font-size:medium;line-height:1.25;font-family:'Source Code Pro';-inkscape-font-specification:'Source Code Pro, Bold';font-variant-ligatures:normal;font-variant-caps:normal;font-variant-numeric:normal;font-feature-settings:normal;text-align:start;letter-spacing:0px;word-spacing:0px;writing-mode:lr-tb;text-anchor:start;fill:#ffffff;fill-opacity:1;stroke:none;stroke-width:0.24999999" id="path972"/>
        <path d="m 47.999998,226 2e-6,4 h 16.00001 l -2e-6,-4 z" style="font-style:normal;font-variant:normal;font-weight:bold;font-stretch:normal;font-size:medium;line-height:1.25;font-family:'Source Code Pro';-inkscape-font-specification:'Source Code Pro, Bold';font-variant-ligatures:normal;font-variant-caps:normal;font-variant-numeric:normal;font-feature-settings:normal;text-align:start;letter-spacing:0px;word-spacing:0px;writing-mode:lr-tb;text-anchor:start;fill:#ffffff;fill-opacity:1;stroke:none;stroke-width:0.24999999" id="path974"/>
      </g>
      <path d="m 100,244 h 4 v 4 h -4 z m -8,0 h 4 v 4 h -4 z m -8,0 h 4 v 4 h -4 z m -8,0 h 4 v 4 h -4 z m -8,0 h 4 v 4 h -4 z m -8,0 h 4 v 4 h -4 z m -8,0 h 4 v 4 h -4 z m -8,0 h 4 v 4 h -4 z m -8,0 h 4 v 4 h -4 z m -8,0 h 4 v 4 h -4 z m -8,0 h 4 v 4 h -4 z m 84,4 h 4 v 4 h -4 z m -8,0 h 4 v 4 h -4 z m -8,0 h 4 v 4 h -4 z m -8,0 h 4 v 4 h -4 z m -8,0 h 4 v 4 h -4 z m -8,0 h 4 v 4 h -4 z m -8,0 h 4 v 4 h -4 z m -8,0 h 4 v 4 h -4 z m -8,0 h 4 v 4 h -4 z m -8,0 h 4 v 4 h -4 z m -8,0 h 4 v 4 h -4 z m 76,4 h 4 v 4 h -4 z m -8,0 h 4 v 4 h -4 z m -8,0 h 4 v 4 h -4 z m -8,0 h 4 v 4 h -4 z m -8,0 h 4 v 4 h -4 z m -8,0 h 4 v 4 h -4 z m -8,0 h 4 v 4 h -4 z m -8,0 h 4 v 4 h -4 z m -8,0 h 4 v 4 h -4 z m -8,0 h 4 v 4 h -4 z m -8,0 h 4 v 4 h -4 z m 84,4 h 4 v 4 h -4 z m -8,0 h 4 v 4 h -4 z m -8,0 h 4 v 4 h -4 z m -8,0 h 4 v 4 h -4 z m -8,0 h 4 v 4 h -4 z m -8,0 h 4 v 4 h -4 z m -8,0 h 4 v 4 h -4 z m -8,0 h 4 v 4 h -4 z m -8,0 h 4 v 4 h -4 z m -8,0 h 4 v 4 h -4 z m -8,0 h 4 v 4 h -4 z m 76,4 h 4 v 4 h -4 z m -8,0 h 4 v 4 h -4 z m -8,0 h 4 v 4 h -4 z m -8,0 h 4 v 4 h -4 z m -8,0 h 4 v 4 h -4 z m -8,0 h 4 v 4 h -4 z m -8,0 h 4 v 4 h -4 z m -8,0 h 4 v 4 h -4 z m -8,0 h 4 v 4 h -4 z m -8,0 h 4 v 4 h -4 z m -8,0 h 4 v 4 h -4 z m 84,4 h 4 v 4 h -4 z m -8,0 h 4 v 4 h -4 z m -8,0 h 4 v 4 h -4 z m -8,0 h 4 v 4 h -4 z m -8,0 h 4 v 4 h -4 z m -8,0 h 4 v 4 h -4 z m -8,0 h 4 v 4 h -4 z m -8,0 h 4 v 4 h -4 z m -8,0 h 4 v 4 h -4 z m -8,0 h 4 v 4 h -4 z m -8,0 h 4 v 4 h -4 z m 76,4 h 4 v 4 h -4 z m -8,0 h 4 v 4 h -4 z m -8,0 h 4 v 4 h -4 z m -8,0 h 4 v 4 h -4 z m -8,0 h 4 v 4 h -4 z m -8,0 h 4 v 4 h -4 z m -8,0 h 4 v 4 h -4 z m -8,0 h 4 v 4 h -4 z m -8,0 h 4 v 4 h -4 z m -8,0 h 4 v 4 h -4 z m -8,0 h 4 v 4 h -4 z" style="opacity:1;vector-effect:none;fill:url(#linearGradient1950);fill-opacity:1;stroke:none;stroke-width:8;stroke-linecap:round;stroke-linejoin:round;stroke-miterlimit:4;stroke-dasharray:none;stroke-dashoffset:0;stroke-opacity:1;marker:none;marker-start:none;marker-mid:none;marker-end:none;paint-order:normal" id="rect1059"/>
    </g>
  </g>
</svg>
