<svg xmlns="http://www.w3.org/2000/svg" preserveAspectRatio="xMinYMin meet" viewBox="0 0 1150 540.6"><path d="M880.199 2.8C1028.1 2.8 1147.9 122.6 1147.9 270.5c0 147.8-119.8 267.7-267.7 267.7H290.1c-21.1 0-38.2-17.1-38.2-38.2s17.1-38.2 38.2-38.2h137.5c21 0 38.1-17.1 38.1-38.2s-17.1-38.2-38.1-38.2h-30.601c-21.099 0-38.199-17.1-38.199-38.2S375.9 309 397 309h91.703c21.215-.059 37.67-17.35 38.197-38.2 0-21.1-17.1-38.2-38.2-38.2H167.8c-21.1 0-38.2-17.1-38.2-38.2s17.1-38.2 38.2-38.2h236.804c21.214-.059 37.669-17.35 38.196-38.2 0-21.1-17.1-38.2-38.2-38.2h-53.4c-21.1 0-38.2-17.1-38.2-38.2s17.1-39.2 38.2-39.2l528.999.4zM837.4 92c-82.2 0-148.7 66.6-148.7 148.7v59.5c0 82.2 66.5 148.7 148.7 148.7 82.1 0 148.7-66.5 148.7-148.7v-59.5c0-82.1-66.6-148.7-148.7-148.7zm50.8 140.6c19.8 0 35.9 16.1 35.9 35.9v4.6c0 19.8-16.1 35.9-35.9 35.9H776.6c-19.8 0-35.9-16.1-35.9-35.9v-4.6c0-19.8 16.1-35.9 35.9-35.9h111.6zM170.1 461.8c19.9 0 35.9 16 35.9 35.9v4.6c0 19.8-16 35.9-35.9 35.9H38c-19.8 0-35.9-16.1-35.9-35.9v-4.6c0-19.9 16.1-35.9 35.9-35.9h132.1z"/><path d="M231.3 3.4c19.8 0 35.8 16.1 35.8 35.9V44c0 19.8-16 35.8-35.8 35.8H83.8c-19.8 0-35.9-16-35.9-35.8v-4.7C47.9 19.5 64 3.4 83.8 3.4h147.5zM277.1 309c19.8 0 35.9 16.1 35.9 35.9v4.6c0 19.8-16.1 35.9-35.9 35.9h-81c-19.8 0-35.9-16.1-35.9-35.9v-4.6c0-19.8 16.1-35.9 35.9-35.9h81z"/></svg>