<svg xmlns="http://www.w3.org/2000/svg" width="320" height="320"><g fill="#305680" stroke-width="28"><path d="M151.13 732.36c-28.363 0-54.915 7.915-77.613 21.537a36.578 36.578 0 0 0-23.067-8.194 8.766 8.766 0 0 0-.004 0c-20.154.001-36.679 16.528-36.678 36.682a8.766 8.766 0 0 0 0 .01 36.69 36.69 0 0 0 8.104 22.928c-13.83 22.83-21.87 49.58-21.87 78.17a8.766 8.766 0 1 0 17.53 0c0-24.702 6.72-47.748 18.379-67.574 4.566 1.985 9.472 3.15 14.519 3.157a8.766 8.766 0 0 0 .012 0c20.155 0 36.683-16.527 36.682-36.682a8.766 8.766 0 0 0 0-.004c-.001-5-1.138-9.863-3.083-14.397 19.717-11.484 42.585-18.095 67.085-18.095a8.766 8.766 0 1 0 0-17.53zM50.44 763.24c5.913.002 11.191 2.512 14.836 7.077a8.766 8.766 0 0 0 .183.214 19.137 19.137 0 0 1 4.134 11.863c-.002 10.677-8.468 19.144-19.144 19.148a19.145 19.145 0 0 1-12-4.254 8.766 8.766 0 0 0-.013-.01 19.136 19.136 0 0 1-7.144-14.892c.003-10.677 8.47-19.144 19.148-19.146z" style="color-rendering:auto;text-decoration-color:#305680;color:#305680;isolation:auto;mix-blend-mode:normal;shape-rendering:auto;solid-color:#305680;block-progression:tb;text-decoration-line:none;text-decoration-style:solid;image-rendering:auto;white-space:normal;text-indent:0;text-transform:none" transform="translate(0 -732.36)"/><path fill-rule="evenodd" d="M66.992 835.19a8.187 8.187 0 0 0-2.258 6.071 8.604 8.604 0 0 0 2.338 5.518c6.805 6.856 20.223 20.223 20.223 20.223l11.844-11.83s-12.973-12.961-20.176-20.171c-1.604-1.633-3.75-2.314-6.012-2.324a8.15 8.15 0 0 0-5.96 2.512zm32.147 19.983L62.5 891.812c-3.975 3.976-3.975 10.421 0 14.397l18.156 18.156 31.753 31.753 30.478 30.478c3.976 3.976 10.422 3.976 14.398 0l24.791-24.791 37.914-37.914 36.639-36.639c3.975-3.976 3.975-10.422 0-14.398l-18.63-18.63-31.75-31.76-30.01-30c-3.977-3.975-10.422-3.975-14.398 0l-24.79 24.79-37.91 37.91zm37.911-37.91s-12.973-12.961-20.176-20.171c-1.604-1.633-3.75-2.314-6.012-2.324-4.717-.023-8.434 3.861-8.217 8.583a8.604 8.604 0 0 0 2.337 5.518c6.805 6.856 20.223 20.223 20.223 20.223l11.844-11.83zm69.193 5.213s12.961-12.973 20.171-20.176c1.633-1.604 2.314-3.75 2.324-6.012.023-4.716-3.861-8.434-8.583-8.217a8.604 8.604 0 0 0-5.518 2.338c-6.856 6.805-20.223 20.223-20.223 20.223l11.83 11.844zm31.753 31.753s12.961-12.973 20.171-20.176c1.633-1.604 2.314-3.75 2.324-6.012.023-4.716-3.861-8.434-8.583-8.217a8.604 8.604 0 0 0-5.518 2.338c-6.856 6.805-20.223 20.223-20.223 20.223l11.83 11.844zm-18.009 69.667s12.973 12.961 20.178 20.17c1.604 1.632 3.75 2.313 6.012 2.324 4.717.022 8.434-3.862 8.217-8.584l-.002.002a8.606 8.606 0 0 0-2.338-5.518c-6.805-6.856-20.222-20.222-20.222-20.222l-11.844 11.83zm-37.914 37.914s12.973 12.961 20.178 20.17c1.604 1.632 3.75 2.313 6.012 2.323 4.717.023 8.434-3.861 8.217-8.583h-.002a8.603 8.603 0 0 0-2.337-5.518c-6.805-6.856-20.223-20.223-20.223-20.223l-11.844 11.83zm-69.667-5.687s-12.961 12.973-20.169 20.178c-1.632 1.604-2.314 3.75-2.324 6.012-.023 4.717 3.861 8.434 8.583 8.217h-.002a8.602 8.602 0 0 0 5.518-2.337c6.856-6.805 20.223-20.223 20.223-20.223l-11.82-11.84zm-31.743-31.74s-12.961 12.973-20.169 20.178c-1.632 1.604-2.314 3.75-2.324 6.012-.023 4.717 3.861 8.434 8.583 8.217h-.002a8.604 8.604 0 0 0 5.518-2.337c6.856-6.805 20.223-20.223 20.223-20.223l-11.83-11.85zM167.9 833.83c1.68-1.706 3.967-2.66 6.297-2.626a7.89 7.89 0 0 1 4.563 1.51l16.499 12.1c3.2 2.297 4.144 6.659 2.23 10.312-1.913 3.653-6.123 5.524-9.95 4.423l6.124 23.948c1.113 4.351-1.564 8.967-5.984 10.317l-44.642 13.63 8.246 31.884c1.173 4.37-1.502 9.044-5.955 10.407s-8.975-1.111-10.068-5.505l-10.282-39.77c-1.126-4.355 1.55-8.984 5.976-10.337l44.661-13.637-4.122-16.118c-2.763 3.064-7.233 3.808-10.586 1.761-3.353-2.047-4.614-6.29-2.986-10.047l8.117-19.454a8.872 8.872 0 0 1 1.863-2.797z" style="color-rendering:auto;text-decoration-color:#305680;color:#305680;isolation:auto;mix-blend-mode:normal;shape-rendering:auto;solid-color:#305680;block-progression:tb;text-decoration-line:none;text-decoration-style:solid;image-rendering:auto;white-space:normal;text-indent:0;text-transform:none" transform="translate(0 -732.36)"/><path d="M168.87 1052.4c28.363 0 54.915-7.915 77.614-21.538a36.578 36.578 0 0 0 23.067 8.194 8.766 8.766 0 0 0 .004 0c20.155 0 36.68-16.528 36.679-36.682a8.766 8.766 0 0 0 0-.011 36.688 36.688 0 0 0-8.103-22.927c13.825-22.82 21.866-49.572 21.866-78.162a8.766 8.766 0 1 0-17.531 0c0 24.703-6.72 47.749-18.378 67.575-4.567-1.985-9.473-3.15-14.52-3.157a8.766 8.766 0 0 0-.012 0c-20.155-.001-36.683 16.527-36.682 36.682.002 4.999 1.139 9.862 3.083 14.397-19.717 11.484-42.586 18.095-67.086 18.095a8.766 8.766 0 1 0 0 17.53zm100.69-30.875c-5.913 0-11.191-2.512-14.836-7.077a8.766 8.766 0 0 0-.183-.214 19.136 19.136 0 0 1-4.134-11.863c.002-10.677 8.468-19.144 19.144-19.148a19.145 19.145 0 0 1 12 4.254 8.766 8.766 0 0 0 .013.01 19.136 19.136 0 0 1 7.144 14.892c-.003 10.677-8.47 19.145-19.148 19.146z" style="color-rendering:auto;text-decoration-color:#305680;color:#305680;isolation:auto;mix-blend-mode:normal;shape-rendering:auto;solid-color:#305680;block-progression:tb;text-decoration-line:none;text-decoration-style:solid;image-rendering:auto;white-space:normal;text-indent:0;text-transform:none" transform="translate(0 -732.36)"/></g></svg>