<?xml version="1.0" encoding="utf-8"?>
<!-- Generator: Adobe Illustrator 22.0.0, SVG Export Plug-In . SVG Version: 6.00 Build 0)  -->
<svg version="1.1" id="Layer_1" xmlns="http://www.w3.org/2000/svg" xmlns:xlink="http://www.w3.org/1999/xlink" x="0px" y="0px"
	 viewBox="0 0 246.96 242.808" style="enable-background:new 0 0 246.96 242.808;" xml:space="preserve">
<style type="text/css">
	.st0{fill:#363959;}
	.st1{fill:url(#SVGID_1_);}
	.st2{fill:#FBFBFB;}
	.st3{fill:#999999;}
	.st4{fill:#F8F8F8;}
	.st5{fill:url(#SVGID_2_);}
	.st6{fill:url(#SVGID_3_);}
	.st7{fill:url(#SVGID_4_);}
	.st8{fill:#3F6499;}
	.st9{fill:url(#SVGID_5_);}
	.st10{fill:url(#SVGID_6_);}
	.st11{fill:url(#SVGID_7_);}
	.st12{fill:url(#SVGID_8_);}
	.st13{filter:url(#Adobe_OpacityMaskFilter);}
	.st14{fill:url(#SVGID_10_);}
	.st15{mask:url(#SVGID_9_);}
	.st16{opacity:0.6;}
	.st17{opacity:0.2;}
	.st18{fill:url(#SVGID_11_);}
	.st19{fill:url(#SVGID_12_);}
	.st20{opacity:0.1;fill:#F2F2F2;}
	.st21{fill:#2F4282;}
	.st22{fill:url(#SVGID_13_);}
	.st23{fill:url(#SVGID_14_);}
	.st24{fill:#FFFFFF;}
	.st25{fill:url(#SVGID_15_);}
	.st26{fill:url(#SVGID_16_);}
	.st27{fill:url(#SVGID_17_);}
	.st28{fill:url(#SVGID_18_);}
	.st29{fill:url(#SVGID_19_);}
	.st30{fill:url(#SVGID_20_);}
	.st31{fill:url(#SVGID_21_);}
	.st32{fill:url(#SVGID_22_);}
	.st33{fill:url(#SVGID_23_);}
	.st34{fill:url(#SVGID_24_);}
	.st35{filter:url(#Adobe_OpacityMaskFilter_1_);}
	.st36{fill:url(#SVGID_26_);}
	.st37{mask:url(#SVGID_25_);}
	.st38{fill:url(#SVGID_27_);}
	.st39{fill:url(#SVGID_28_);}
	.st40{fill:url(#SVGID_29_);}
	.st41{fill:url(#SVGID_30_);}
	.st42{fill:url(#SVGID_31_);}
	.st43{fill:url(#SVGID_32_);}
	.st44{fill:url(#SVGID_33_);}
	.st45{fill:url(#SVGID_34_);}
	.st46{fill:url(#SVGID_35_);}
	.st47{fill:url(#SVGID_36_);}
	.st48{fill:url(#SVGID_37_);}
	.st49{fill:url(#SVGID_38_);}
	.st50{fill:url(#SVGID_39_);}
	.st51{fill:url(#SVGID_40_);}
	.st52{filter:url(#Adobe_OpacityMaskFilter_2_);}
	.st53{fill:url(#SVGID_42_);}
	.st54{mask:url(#SVGID_41_);}
	.st55{fill:url(#SVGID_43_);}
	.st56{fill:url(#SVGID_44_);}
	.st57{fill:url(#SVGID_45_);}
	.st58{fill:url(#SVGID_46_);}
	.st59{fill:url(#SVGID_47_);}
	.st60{fill:url(#SVGID_48_);}
</style>
<g>
	<g>
		<linearGradient id="SVGID_1_" gradientUnits="userSpaceOnUse" x1="199.533" y1="201.907" x2="39.6787" y2="42.0527">
			<stop  offset="0" style="stop-color:#130036"/>
			<stop  offset="0.2297" style="stop-color:#18023B"/>
			<stop  offset="0.5122" style="stop-color:#26094A"/>
			<stop  offset="0.8211" style="stop-color:#3D1563"/>
			<stop  offset="1" style="stop-color:#4E1D75"/>
		</linearGradient>
		<path class="st1" d="M188.887,35.492c-14.501-9.472-33.046-12.538-43.281-13.609c-10.954-1.145-20.468-0.943-28.836,0.285
			c-0.709-0.009-1.414-0.037-2.127-0.037c-0.544,0-1.08,0.023-1.627,0.029c0.225-0.275,0.381-0.445,0.381-0.445
			s-0.44,0.069-1.304,0.46c-2.717,0.044-5.421,0.138-8.085,0.32c3.711-4.068,6.751-6.2,6.751-6.2s-3.608,0.528-10.192,6.496
			c-3.132,0.288-6.221,0.67-9.258,1.145c6.918-9.362,14.155-13.304,14.155-13.304s-8.772-1.786-22.507,12.016
			c-1.149,1.155-2.215,2.356-3.246,3.572C39.68,35.907,11.03,61.758,11.03,92.139c0,5.958-1.829,12.511,0.143,19.054
			c-0.788,10.453,0.89,38.975,0.89,38.975s10.837,58.649,52.51,68.846c0.662,0.158-8.707-14.62-12.851-32.442
			c8.069,8.208,17.685,14.699,28.478,15.824c1.325,0.137-6.165-8.64-12.725-19.234l94.698,31.906
			c49.529-21.274,43.763-19.357,54.397-30.875c23.428-25.36,26.708-39.75,20.806-82.235
			C233.383,73.279,212.216,44.875,188.887,35.492z"/>
		<polygon class="st2" points="22.687,62.276 8.546,142.68 16.387,166.974 172.911,219.015 201.939,95.591 		"/>
		<g>
			<path class="st3" d="M23.128,65.01c0.785,1.689,0.554,2.089,0.065,2.089c-0.22,0-0.492-0.081-0.747-0.161
				c-0.255-0.081-0.494-0.161-0.648-0.161c-0.433,0-0.189,0.639,2.263,3.72c3.468,4.406,54.399,81.293,57.182,81.293
				c0.015,0,0.028-0.002,0.04-0.006c23.71-8.448,124.543-43.058,124.543-43.058L195.51,93.697L23.128,65.01"/>
		</g>
		<path class="st4" d="M24.607,63.121c0,0,0.76,3.932,4.281,8.284c3.5,4.392,50.51,75.571,52.869,74.944
			c30.795-8.176,142.525-51.674,142.525-51.674L24.607,63.121z"/>
		<polygon class="st3" points="167.321,217.161 18.568,167.703 19.094,171.178 168.976,221.012 		"/>
		<linearGradient id="SVGID_2_" gradientUnits="userSpaceOnUse" x1="10.2428" y1="95.3113" x2="57.7039" y2="95.3113">
			<stop  offset="0" style="stop-color:#3156A8"/>
			<stop  offset="0.2474" style="stop-color:#3351A4"/>
			<stop  offset="0.5365" style="stop-color:#3B4397"/>
			<stop  offset="0.8453" style="stop-color:#472C82"/>
			<stop  offset="1" style="stop-color:#4E1D75"/>
		</linearGradient>
		<path class="st5" d="M57.704,59.795c0,0-54.122,15.85-29.288,71.033c0,0-11.387-10.426-18.167-23.757
			C9.944,106.474,21.55,65.242,21.55,65.242L57.704,59.795z"/>
		
			<radialGradient id="SVGID_3_" cx="59.0732" cy="113.9232" r="85.2466" gradientTransform="matrix(1 0 0 1.45 0 -51.2654)" gradientUnits="userSpaceOnUse">
			<stop  offset="0.1654" style="stop-color:#14CDDA"/>
			<stop  offset="0.5478" style="stop-color:#2061BD"/>
			<stop  offset="0.6546" style="stop-color:#2658AC"/>
			<stop  offset="0.864" style="stop-color:#373F81"/>
			<stop  offset="1" style="stop-color:#432D62"/>
		</radialGradient>
		<path class="st6" d="M28.416,130.828c-4.707-0.081-12.269-3.964-14.722-8.665c-3.066,51.098,17.782,80.939,50.88,96.853
			C53.759,217.776,0,189.407,0,121.14C0,63.093,46.06,11.208,118.142,8.831c0.442,3.254-35.736,11.414-36.893,15.251
			c-1.796,5.972-5.924,12.473-9.406,17.684c-4.718,7.061,6.557,13.099-1.729,15.001c-12.468,2.861-29.098,1.277-41.361,17.219
			C10.319,97.951,22.62,125.365,28.416,130.828z"/>
		<g>
			<linearGradient id="SVGID_4_" gradientUnits="userSpaceOnUse" x1="44.5387" y1="57.8975" x2="191.515" y2="57.8975">
				<stop  offset="0" style="stop-color:#2061BD"/>
				<stop  offset="0.1846" style="stop-color:#2B51AC"/>
				<stop  offset="0.6826" style="stop-color:#442C84"/>
				<stop  offset="0.9409" style="stop-color:#4E1D75"/>
			</linearGradient>
			<path class="st7" d="M137.048,10.699c-46.682-3.582-70.707,15.097-86.13,36.817c-5.617,7.906-5.002,15.166-3.068,23.937
				c0.831,3.744,1.671,5.538,0.659,9.355c-0.558,2.106-0.465,4.072-1.158,5.314c-0.959,1.717-2.18,3.594-2.589,6.677
				c-1.022,7.699,1.703,10.151,3.406,12.741c2.426-2.409,7.165-8.079,15.71-11.466c8.545-3.387,14.167-8.477,24.876-13.941
				c14.632-7.463,31.782,3.859,64.3-6.796c10.006-3.279,33.002-37.344,38.461-38.652C176.312,17.873,150.448,11.726,137.048,10.699z
				"/>
		</g>
		<path class="st8" d="M106.207,0.032c0,0-8.335,4.026-11.965,11.301c8.381-4.225,13.246-6.533,15.546-6.808
			c0,0-2.203,1.067-4.935,6.87c4.83-1.547,6.493-2.522,7.819-2.537c0,0-0.385,0.61-0.737,6.402
			c-7.417-2.404-21.693,0.397-29.287,5.153C80.072,6.678,106.207,0.032,106.207,0.032z"/>
		<linearGradient id="SVGID_5_" gradientUnits="userSpaceOnUse" x1="66.1736" y1="23.2056" x2="167.2642" y2="111.0823">
			<stop  offset="0.0202" style="stop-color:#48A8E0"/>
			<stop  offset="0.3883" style="stop-color:#2061BD"/>
			<stop  offset="0.4968" style="stop-color:#2B51AC"/>
			<stop  offset="0.7892" style="stop-color:#442C84"/>
			<stop  offset="0.9409" style="stop-color:#4E1D75"/>
		</linearGradient>
		<path class="st9" d="M139.379,8.63C125.07,6.776,113.109,7.141,102.94,9.1c3.198-3.065,6.898-4.575,6.898-4.575
			c-4.795,0.424-10.781,3.554-15.917,6.868c-2.588,0.826-5.054,1.758-7.39,2.799c1.43-1.885,3.094-3.899,4.72-5.445
			c6.039-5.743,15.006-8.715,15.006-8.715C98.603-0.53,72.989,6.027,57.576,37.245c-2.526,3.077-4.883,6.235-7.129,9.398
			c-5.798,8.164-5.162,15.658-3.162,24.715c0.852,3.867,1.009,10.04,0.168,14.029c-0.168,0.799-2.363,2.863-2.926,8.428
			c-0.602,5.905,1.505,8.804,3.582,11.203c7.38-10.792,14.661-12.931,14.661-12.931C73.1,87.855,77.4,83.335,88.458,77.694
			c15.108-7.709,67.939,17.45,101.512,6.448c10.332-3.384-3.977-47.359,1.663-48.709C175.934,18.073,153.139,10.413,139.379,8.63z"
			/>
		<linearGradient id="SVGID_6_" gradientUnits="userSpaceOnUse" x1="19.6762" y1="337.4139" x2="217.8353" y2="43.6309">
			<stop  offset="0.3787" style="stop-color:#3156A8"/>
			<stop  offset="1" style="stop-color:#4E1D75"/>
		</linearGradient>
		<path class="st10" d="M244.176,103.288c-8.276-43.237-48.096-82.572-80.117-84.752c-14.211-0.968-9.847,6.319-18.739,9.094
			c-38.32,11.959-38.906,18.941-38.906,18.941c81.252,3.819,82.484,84.064,60.724,104.366c6.123-1.428,12.762-8.914,18.859-20.666
			c-0.732,4.931-1.36,10.98-2.274,17.729c-2.788,20.595,0.823,63.614-58.356,92.405c0,0,32.372-2.646,48.425-20.717
			c-6.528,15.012-24.441,23.121-24.441,23.121c13.182-1.928,47.81-12.146,69.868-39.732
			C244.185,171.852,251.693,142.558,244.176,103.288z"/>
		<linearGradient id="SVGID_7_" gradientUnits="userSpaceOnUse" x1="96.7452" y1="278.6458" x2="206.3175" y2="32.5423">
			<stop  offset="0" style="stop-color:#29ABE2"/>
			<stop  offset="0.7733" style="stop-color:#385AA6"/>
			<stop  offset="0.8575" style="stop-color:#414293"/>
			<stop  offset="1" style="stop-color:#4E1D75"/>
		</linearGradient>
		<path class="st11" d="M164.993,182.221c0,0,26.396-7.38,34.903-21.633c-1.032,16.619-16.107,33.662-16.107,33.662
			s22.038-4.46,31.436-19.968c-1.224,13.994-18.191,32.907-18.191,32.907c17.346-3.113,60.93-30.645,47.143-103.901
			c-8.142-43.262-48.096-82.572-80.117-84.752c-14.211-0.968-9.847,6.319-18.739,9.094c-38.32,11.959-38.906,18.941-38.906,18.941
			c81.252,3.819,102.844,46.344,60.724,103.231c6.123-1.429,8.578-4.794,13.178-10.301
			C180.315,139.501,182.401,161.281,164.993,182.221z"/>
		<linearGradient id="SVGID_8_" gradientUnits="userSpaceOnUse" x1="48.2686" y1="92.0337" x2="54.2414" y2="95.4683">
			<stop  offset="0" style="stop-color:#B0DCD6"/>
			<stop  offset="1" style="stop-color:#53ACE0"/>
		</linearGradient>
		<path class="st12" d="M60.609,85.567c0,0-4.719,3.301-8.136,2.46c-4.045-0.993-4.73-4.913-4.73-4.913
			c-0.089,0.803-0.192,1.578-0.341,2.273c-0.168,0.799-2.363,2.863-2.926,8.428c-0.602,5.905,1.615,9.325,3.692,11.724
			C55.549,94.747,62.72,92.087,62.72,92.087C59.911,91.105,60.609,85.567,60.609,85.567z"/>
		<defs>
			<filter id="Adobe_OpacityMaskFilter" filterUnits="userSpaceOnUse" x="162.68" y="18.355" width="14.927" height="6.629">
				<feColorMatrix  type="matrix" values="1 0 0 0 0  0 1 0 0 0  0 0 1 0 0  0 0 0 1 0"/>
			</filter>
		</defs>
		<mask maskUnits="userSpaceOnUse" x="162.68" y="18.355" width="14.927" height="6.629" id="SVGID_9_">
			<g class="st13">
				<radialGradient id="SVGID_10_" cx="154.384" cy="67.9985" r="51.9675" gradientUnits="userSpaceOnUse">
					<stop  offset="0.868" style="stop-color:#FFFFFF"/>
					<stop  offset="1" style="stop-color:#000000"/>
				</radialGradient>
				<rect x="91.295" y="-7.218" class="st14" width="100.015" height="93.339"/>
			</g>
		</mask>
		<g class="st15">
			<g class="st16">
				<g class="st17">
					<linearGradient id="SVGID_11_" gradientUnits="userSpaceOnUse" x1="176.2139" y1="23.0851" x2="164.2403" y2="20.5554">
						<stop  offset="0" style="stop-color:#3092B9"/>
						<stop  offset="0.2199" style="stop-color:#258DB6"/>
						<stop  offset="0.6564" style="stop-color:#1685B1"/>
						<stop  offset="1" style="stop-color:#1082AF"/>
					</linearGradient>
					<path class="st18" d="M163.513,18.434c1.106-0.287,5.621,0.204,8.584,1.533c2.964,1.329,8.073,3.679,3.986,4.701
						c-4.088,1.022-6.438-0.613-8.482-2.351S160.754,19.149,163.513,18.434z"/>
				</g>
			</g>
		</g>
		<linearGradient id="SVGID_12_" gradientUnits="userSpaceOnUse" x1="80.7838" y1="38.0252" x2="90.637" y2="77.5443">
			<stop  offset="0.0074" style="stop-color:#1398D1;stop-opacity:0"/>
			<stop  offset="0.2482" style="stop-color:#1187C2;stop-opacity:0.6197"/>
			<stop  offset="0.6422" style="stop-color:#3F6499;stop-opacity:0.71"/>
			<stop  offset="1" style="stop-color:#2F4282;stop-opacity:0.5"/>
		</linearGradient>
		<path class="st19" d="M61.051,84.921c0,0,25.888-42.662,49.292-54.175c2.173-1.093-32.405,9.191-46.32,24.55
			C55.752,64.425,60.132,82.298,61.051,84.921z"/>
		<path class="st20" d="M61.051,84.921c0.024-0.015,0.05-0.03,0.075-0.045c6.694-4.136,18.166-6.518,21.864-14.015
			c14.237-28.869,27.354-40.115,27.354-40.115C86.939,42.259,61.051,84.921,61.051,84.921z"/>
		<path class="st21" d="M63.512,77.118c0,0-4.666-7.159,2.053-13.687c3.546-3.44,8.919-1.529,9.54-0.91
			c2.644,2.622,0.982,8.156-1.398,11.288C72.362,75.573,68.448,78.319,63.512,77.118z"/>
		
			<linearGradient id="SVGID_13_" gradientUnits="userSpaceOnUse" x1="48.7383" y1="14.373" x2="43.1993" y2="11.3027" gradientTransform="matrix(0.9994 0.0349 -0.0349 0.9994 24.5906 57.1202)">
			<stop  offset="0" style="stop-color:#F9C21B"/>
			<stop  offset="0.1479" style="stop-color:#F3BA1B"/>
			<stop  offset="0.3787" style="stop-color:#E3A41B"/>
			<stop  offset="0.6634" style="stop-color:#C9801C"/>
			<stop  offset="0.9884" style="stop-color:#A44E1C"/>
			<stop  offset="1" style="stop-color:#A34C1C"/>
		</linearGradient>
		<path class="st22" d="M66.187,76.674c0,0-3.224-4.949,1.422-9.459c2.446-2.376,6.161-1.056,6.592-0.63
			c1.826,1.812,0.676,5.637-0.968,7.8C72.304,75.608,69.598,77.504,66.187,76.674z"/>
		<path d="M72.623,71.393c-0.072,1.978-1.746,3.522-3.738,3.454c-1.996-0.069-3.558-1.726-3.487-3.704
			c0.071-1.977,1.744-3.521,3.741-3.453C71.131,67.759,72.692,69.417,72.623,71.393z"/>
	</g>
	<circle class="st24" cx="66.725" cy="70.287" r="1.136"/>
	<linearGradient id="SVGID_14_" gradientUnits="userSpaceOnUse" x1="206.2113" y1="130.1391" x2="169.4298" y2="47.5264">
		<stop  offset="0" style="stop-color:#409EC3"/>
		<stop  offset="0.62" style="stop-color:#2061BD"/>
	</linearGradient>
	<path class="st23" d="M228.505,65.01c-17.721-26.976-31.761-33.831-31.761-33.831s0.645,19.65,10.484,29.128
		c1.124,1.083-11.774-8.432-11.774-8.432s-2.758,9.076,3.562,19.51c-1.836-2.439-3.051-3.363-3.051-3.363
		s-11.908,5.491-15.423,13.109c-1.815-3.426-3.176-5.444-3.176-5.444s-8.236,16.437-7.201,35.495
		c1.684,30.988-5.803,42.404-5.803,42.404s20.057-7.695,29.676-32.468c3.974,10.533-0.121,21.619-0.121,21.619
		s16.206-12.109,19.691-34.18c3.863,6.23,2.727,18.664,2.727,18.664s10.344-14.402,10.596-30.086
		c4.794,3.343,5.235,16.399,5.235,16.399S247.502,93.928,228.505,65.01z"/>
	<linearGradient id="SVGID_15_" gradientUnits="userSpaceOnUse" x1="176.7603" y1="103.061" x2="150.4069" y2="21.9536">
		<stop  offset="0" style="stop-color:#14B2DA"/>
		<stop  offset="0.4028" style="stop-color:#297CCC"/>
		<stop  offset="0.5077" style="stop-color:#256FC5"/>
		<stop  offset="0.6492" style="stop-color:#2164BF"/>
		<stop  offset="0.8162" style="stop-color:#2061BD"/>
		<stop  offset="0.9835" style="stop-color:#2061BD"/>
	</linearGradient>
	<path class="st25" d="M211.282,46.158c-4.631-8.63-12.803-14.13-19.986-18.582c-17.909-11.105-29.427-12.665-29.427-12.665
		s-16.528,3.074-13.689,7.672c0.146,0.236,0.487,0.535,0.968,0.877c-14.498-6.678-22.722,8.677-22.722,8.677
		c-8.284-0.503-18.371,3.575-21.312,14.499c-0.305,1.134,3.711,0.496,5.777,0.945c12.079,2.626,23.45,8.32,28.675,11.134
		c12.154,6.548,19.365,17.451,23.528,25.629c5.037,9.894,7.094,27.304,7.094,27.304s13.253-18.205,10.086-27.552
		c5.249,3.26,6.285,14.891,6.285,14.891s8.835-13.838,6.223-25.891c6.815,4.153,7.042,12.601,7.042,12.601s6.939-9.631,3.803-25.427
		c6.858,5.453,8.293,12.517,8.293,12.517S217.526,57.794,211.282,46.158z"/>
</g>
</svg>
