<svg xmlns:xl="http://www.w3.org/1999/xlink" xmlns="http://www.w3.org/2000/svg" xmlns:xlink="http://www.w3.org/1999/xlink" version="1.1" id="Layer_1" x="0px" y="0px" style="enable-background:new 0 0 512 512;" xml:space="preserve" viewBox="-0.2 100.2 511.9 311.7">
<g>
	<g>
		<path d="M167.7,367.8l2.9,0.9c3.7-1.6,11.1,0.9,15,2.1c-7.2-8-18.1-19.8-26-27.2c-2.6-9-1.5-18-0.9-27.2l0.1-0.8    c-3.1,7.3-7,14.5-9.1,22.2c-2.5,10.4,11,21.7,16.2,28.1L167.7,367.8z M391.8,411.9c-20.2-0.6-29-0.5-39.3-17.4l-8,0.2    c-9.3-0.4-5.4-0.2-11.7-0.5c-10.4-0.4-8.7-10.3-10.6-15.5c-2.9-17.7,3.9-35.5,3.7-53.2c-0.1-6.3-9-28.6-12.2-36.5    c-10,1.9-20,2.2-30.1,2.7c-23.3-0.1-46.5-2.9-69.5-6.5c-4.5,18.5-17.8,44.4-6.8,63.2c13.4,19.5,22.7,24.8,37.3,26    c14.5,1.2,17.8,17.6,14.3,23.4c-3.1,4-8.6,4.8-13.2,5.8l-9.3,0.4c-7.3-0.2-13.9-2.2-20.4-5.3c-10.9-6.1-22.1-18.7-30.5-27.8    c1.9,3.6,3.1,10.7,1.3,14c-4.9,7-26.3,7-36.1,2.6c-11.1-4.9-38-39.6-42.1-65.6c11-20.9,27.1-39.1,35.3-61.8    c-17.7-11.3-27.2-29.7-26-50.6l0.4-2.4c-17.5,3.3-8.4,2.1-27.2,3.5c-59.8-0.2-112.4-40.7-82.8-103.7c1.9-3.7,3.8-7.1,7-5.5    c2.6,1.3,2.2,6.5,0.9,12.3c-16.9,75.3,65.8,75.9,116.7,61.9c5-1.4,15.1-10.7,22-13.8c11.4-5,23.7-7.1,35.9-8.6    c30.5-3.5,67.1,12.6,85.6,13.1c18.6,0.5,45.1-4.5,61.3-3.4c11.8,0.5,23.4,2.7,34.7,5.7c7.4-35.9,7.9-62.3,25.3-68.4    c10.2,1.6,18.1,15.6,24,23l0,0c11.9-0.5,23.2,2.5,34.5,5.9c20.4-2.9,37.5-14.3,55.5-23.2c-0.1,0.3-0.4,0.4-0.5,0.6    c-17.7,14.3-20.2,38.5-18.1,60.9c0.8,11.6-2.5,24.2-6.6,36.1c-7.6,19.4-22.3,39.8-39.3,38.8c-6.4-0.2-10.2-3.8-15-7.7    c-0.9,7.9-4.6,14.9-8.1,21.9c-8.1,15.5-29.3,22.3-49,38.8c-19.6,16.5,6.3,75.4,12.6,86.2c6.3,10.7,23.8,14.7,17,24.4    c-2.1,3.2-5.3,4.3-8.7,5.6L391.8,411.9z" fill="#ffffff"/>
	</g>
</g>
</svg>