<?xml version="1.0" encoding="utf-8"?>
<!-- Generator: Adobe Illustrator 27.7.0, SVG Export Plug-In . SVG Version: 6.00 Build 0)  -->
<svg version="1.1" id="Layer_1" xmlns="http://www.w3.org/2000/svg" xmlns:xlink="http://www.w3.org/1999/xlink" x="0px" y="0px"
	 viewBox="0 0 512 512" style="enable-background:new 0 0 512 512;" xml:space="preserve">
<style type="text/css">
	.st0{clip-path:url(#SVGID_00000149374379146749586460000016402727136448137119_);}
	.st1{fill:#3E63DD;}
	.st2{fill:#FDFDFE;}
</style>
<g>
	<g>
		<defs>
			<rect id="SVGID_1_" width="512" height="512"/>
		</defs>
		<clipPath id="SVGID_00000104707186462142099530000006135870283117189765_">
			<use xlink:href="#SVGID_1_"  style="overflow:visible;"/>
		</clipPath>
		<g style="clip-path:url(#SVGID_00000104707186462142099530000006135870283117189765_);">
			<path class="st1" d="M441.6,0H70.4C32,0,0,32,0,70.4v371.2C0,480,32,512,70.4,512h371.2c38.4,0,70.4-32,70.4-70.4V70.4
				C512,32,480,0,441.6,0z"/>
			<path class="st2" d="M243.2,406.4c0-19.2,0-41.6,0-60.8c0-3.2,0-6.4-3.2-9.6c-22.4-22.4-41.6-41.6-64-64
				c-3.2-3.2-3.2-3.2-6.4-3.2c-19.2,0-41.6,0-60.8,0h-3.2c6.4-16,12.8-32,25.6-44.8c9.6-12.8,19.2-19.2,35.2-22.4c6.4,0,9.6,0,16,0
				c9.6,0,19.2,0,25.6,0c3.2,0,3.2,0,6.4-3.2c25.6-32,57.6-57.6,99.2-76.8c22.4-9.6,44.8-16,70.4-16c9.6,0,19.2,0,28.8,0
				c0,12.8,0,25.6,0,41.6c0,22.4-9.6,44.8-19.2,64c-16,35.2-41.6,64-70.4,86.4c-3.2,0-3.2,3.2-3.2,6.4c0,9.6,0,19.2,0,32
				c0,16-6.4,32-19.2,41.6c-6.4,6.4-12.8,9.6-22.4,12.8C262.4,396.8,252.8,400,243.2,406.4z M336,198.4c0-12.8-9.6-22.4-22.4-22.4
				c-12.8,0-25.6,9.6-25.6,22.4c0,12.8,12.8,25.6,25.6,25.6C326.4,224,336,211.2,336,198.4z"/>
			<path class="st2" d="M192,358.4c-19.2,22.4-44.8,32-73.6,38.4c3.2-32,9.6-57.6,35.2-76.8C166.4,332.8,179.2,345.6,192,358.4z"/>
		</g>
	</g>
</g>
</svg>
