<svg xmlns="http://www.w3.org/2000/svg" xmlns:xlink="http://www.w3.org/1999/xlink" version="1.1" id="Calque_1" x="0px" y="0px" style="enable-background:new 0 0 512 512;" xml:space="preserve" viewBox="0 9.18 512.1 493.73">
<style type="text/css">
	.st0{fill:#FFC3B8;}
	.st1{opacity:0.5;fill:#FD9A95;enable-background:new    ;}
	.st2{fill:#318BC3;}
	.st3{fill:#79CDE3;}
	.st4{fill:#FFFFFF;}
	.st5{fill:#1B1A44;}
	.st6{opacity:0.5;fill:url(#SVGID_1_);enable-background:new    ;}
</style>
<g>
	<path class="st0" d="M45,53.1h-8.6C16.3,53.1,0,69.4,0,89.4c0,0,0,0,0,0v94.4c0,20.1,16.3,36.4,36.4,36.4l0,0H45v8.4   c0,16.8,13.6,30.4,30.4,30.4h108.5V53.1H45z"/>
	<path class="st0" d="M475.6,53.1H328.2V259h108.5c16.8,0,30.4-13.6,30.4-30.4v-8.4h8.6c20.1,0,36.4-16.3,36.4-36.4V89.4   C512,69.4,495.7,53.1,475.6,53.1C475.6,53.1,475.6,53.1,475.6,53.1z"/>
	<path class="st1" d="M45,53.1h-8.6C16.3,53.1,0,69.4,0,89.4c0,0,0,0,0,0v94.4c0,20.1,16.3,36.4,36.4,36.4l0,0H45v8.4   c0,16.8,13.6,30.4,30.4,30.4h108.5V53.1H45z"/>
	<path class="st1" d="M475.6,53.1H328.2V259h108.5c16.8,0,30.4-13.6,30.4-30.4v-8.4h8.6c20.1,0,36.4-16.3,36.4-36.4V89.4   C512,69.4,495.7,53.1,475.6,53.1C475.6,53.1,475.6,53.1,475.6,53.1z"/>
	<path class="st0" d="M344,84.4l-51.6-51.6c-5.8-5.8-15.2-5.8-21,0l-5,5L241.6,13c-5.1-5.1-13.3-5.1-18.4,0c0,0,0,0,0,0L169,67.2   c-5.1,5.1-5.1,13.3,0,18.4c0,0,0,0,0,0l54.2,54.2c5.1,5.1,13.3,5.1,18.4,0c0,0,0,0,0,0l6.3-6.3l23.5,23.5c5.8,5.8,15.2,5.8,21,0   l51.6-51.6C349.8,99.6,349.8,90.2,344,84.4z"/>
	<path class="st0" d="M345.1,502.8H169.5c-29.9,0-54.1-24.2-54.1-54.1l-0.1-341c0-29.9,24.2-54.1,54.1-54.1H345   c29.9,0,54.1,24.2,54.1,54.1l0.1,341C399.2,478.6,374.9,502.8,345.1,502.8z"/>
	<path class="st2" d="M115.3,386.3l0,62.4c0,29.9,24.2,54.1,54.1,54.1h175.6c29.9,0,54.1-24.2,54.1-54.1l0-62.4H115.3z"/>
	<rect x="115.3" y="259" class="st3" width="283.8" height="127.3"/>
	<polygon class="st4" points="257.3,358 330.8,259 183.8,259  "/>
	<polygon class="st2" points="257.3,294.7 293.9,259 220.7,259  "/>
	<ellipse class="st5" cx="202.8" cy="163.4" rx="20.4" ry="27.8"/>
	<ellipse class="st1" cx="152" cy="212.2" rx="25.2" ry="18.3"/>
	<path class="st4" d="M186.9,216l0.9,24.9c0.3,8.1,7.1,14.4,15.2,14.1c1.4,0,2.7-0.3,4-0.7l6.5-2.1c7.7-2.5,12-10.7,9.5-18.4   c-0.4-1.3-1-2.5-1.8-3.6l-13.8-20.8C201.1,200.1,186.5,204.8,186.9,216z"/>
	<path class="st4" d="M327.5,216l-0.9,24.9c-0.3,8.1-7.1,14.4-15.2,14.1c-1.4,0-2.7-0.3-4-0.7l-6.5-2.1c-7.7-2.5-12-10.7-9.5-18.4   c0.4-1.3,1-2.5,1.8-3.6l13.8-20.8C313.3,200.1,327.9,204.8,327.5,216z"/>
	<ellipse class="st5" cx="311.6" cy="163.4" rx="20.4" ry="27.8"/>
	<ellipse class="st1" cx="362.4" cy="212.2" rx="25.2" ry="18.3"/>
	<polygon class="st2" points="257.3,274.8 226.2,316.4 257.3,358 288.3,316.4  "/>
	<circle class="st0" cx="179.7" cy="444.6" r="58.3"/>
	<circle class="st0" cx="332.7" cy="444.6" r="58.3"/>
	<circle class="st0" cx="201.6" cy="343" r="43.3"/>
	<circle class="st0" cx="312.9" cy="343" r="43.3"/>
	<path class="st4" d="M179.7,409.5c11,0,20.6-7.8,22.8-18.6c-14.5-6.2-31-6.2-45.5,0C159.1,401.7,168.6,409.5,179.7,409.5z"/>
	<path class="st4" d="M152.8,422c7.1-8.5,7.3-20.7,0.4-29.4c-14.1,7.2-24.6,19.8-29.3,34.9C133.6,432.8,145.7,430.5,152.8,422z"/>
	<path class="st4" d="M206.1,392.6c-8,10-6.3,24.7,3.7,32.6c7.3,5.8,17.3,6.7,25.5,2.2C230.8,412.4,220.2,399.8,206.1,392.6z"/>
	<path class="st4" d="M201.6,316.9c8.2,0,15.3-5.8,16.9-13.8c-10.8-4.6-23-4.6-33.8,0C186.3,311.1,193.4,316.9,201.6,316.9z"/>
	<path class="st4" d="M181.6,326.2c5.3-6.3,5.4-15.4,0.3-21.8c-10.5,5.3-18.3,14.7-21.7,25.9C167.4,334.2,176.3,332.5,181.6,326.2z"/>
	<path class="st4" d="M221.3,304.4c-5.9,7.5-4.7,18.3,2.8,24.3c5.4,4.3,12.9,5,19,1.7C239.6,319.1,231.7,309.7,221.3,304.4z"/>
	<path class="st4" d="M312.9,316.9c-8.2,0-15.3-5.8-16.9-13.8c10.8-4.6,23-4.6,33.8,0C328.2,311.1,321.1,316.9,312.9,316.9z"/>
	<path class="st4" d="M332.8,326.2c-5.3-6.3-5.4-15.4-0.3-21.8c10.5,5.3,18.3,14.7,21.7,25.9C347.1,334.2,338.1,332.5,332.8,326.2z"/>
	<path class="st4" d="M293.2,304.4c5.9,7.5,4.7,18.3-2.8,24.3c-5.4,4.3-12.9,5-19,1.7C274.9,319.1,282.7,309.7,293.2,304.4z"/>
	<path class="st4" d="M332.7,409.5c11,0,20.6-7.8,22.8-18.6c-14.5-6.2-31-6.2-45.5,0C312.2,401.7,321.7,409.5,332.7,409.5z"/>
	<path class="st4" d="M305.9,422c7.1-8.5,7.3-20.7,0.4-29.4c-14.1,7.2-24.6,19.8-29.3,34.9C286.7,432.8,298.8,430.5,305.9,422z"/>
	<path class="st4" d="M359.2,392.6c-8,10-6.3,24.7,3.7,32.6c7.3,5.8,17.3,6.7,25.5,2.2C383.8,412.4,373.3,399.8,359.2,392.6z"/>
	<path class="st0" d="M291.2,163.4c0,123.5,77.5,102.6,78.1,107.4s0,21.1,0,26c0,4.9-166.5,40.1-146.1-133.4L291.2,163.4z"/>
	
		<linearGradient id="SVGID_1_" gradientUnits="userSpaceOnUse" x1="680.1592" y1="-76.6811" x2="680.1592" y2="-166.8705" gradientTransform="matrix(1 0 0 -1 -384.65 93.66)">
		<stop offset="0" style="stop-color:#FD9A95;stop-opacity:0"/>
		<stop offset="1" style="stop-color:#FD9A95"/>
	</linearGradient>
	<path class="st6" d="M291.2,163.4c0,123.5,77.5,102.6,78.1,107.4s0,21.1,0,26c0,4.9-166.5,40.1-146.1-133.4L291.2,163.4z"/>
</g>
</svg>