<?xml version="1.0" encoding="UTF-8"?>
<svg version="1.1" viewBox="0 0 30 30" xmlns="http://www.w3.org/2000/svg">
<g transform="matrix(.46875 0 0 .46875 0 9.375e-5)">
<circle transform="rotate(-30)" cx="11.713" cy="43.713" r="27.722" fill="#fff"/>
<circle transform="rotate(-30)" cx="9.4578" cy="43.713" r="2.255"/>
<path d="m36.965 24.251-2.8161 3.5788c0.65721 0.51713 1.313 1.1467 1.7567 1.9151 0.44368 0.76847 0.66098 1.6512 0.78022 2.4789l4.5073-0.6494c-0.192-1.408-0.627-2.779-1.381-4.085-0.755-1.306-1.724-2.369-2.847-3.239z"/>
<path d="m42.405 17.042-2.8161 3.5788c1.5919 1.2239 3.0623 2.7672 4.1287 4.6142s1.6677 3.8921 1.9317 5.8827l4.5073-0.6494c-0.33647-2.571-1.156-5.1028-2.5332-7.4883s-3.1601-4.3611-5.2185-5.938z"/>
<path transform="rotate(-30)" d="m2.6927 52.733a9.0201 9.0201 0 0 1-7.8116-4.5101 9.0201 9.0201 0 0 1-1e-7 -9.0201 9.0201 9.0201 0 0 1 7.8116-4.5101l-1e-7 9.0201z"/>
<path d="m17.639 7.1258c-13.738 7.9312-18.445 25.497-10.513 39.235 7.931 13.738 25.497 18.445 39.235 10.513 13.738-7.931 18.445-25.497 10.513-39.235-7.931-13.738-25.497-18.445-39.235-10.513zm1.6895 2.9264c12.122-6.9981 27.621-2.845 34.62 9.276 6.998 12.122 2.845 27.621-9.276 34.62-12.122 6.998-27.621 2.845-34.62-9.276-6.9981-12.122-2.845-27.621 9.276-34.62z"/>
</g>
</svg>
