<svg xmlns="http://www.w3.org/2000/svg" viewBox="0 0 30 30"><g transform="scale(.46875)"><circle cx="11.713" cy="43.713" r="27.722" fill="#fff" transform="rotate(-30)"/><circle cx="9.458" cy="43.713" r="2.255" transform="rotate(-30)"/><path d="m36.965 24.251-2.816 3.579c.657.517 1.313 1.147 1.757 1.915.443.768.66 1.651.78 2.479l4.507-.65a11.073 11.073 0 0 0-1.38-4.085 11.09 11.09 0 0 0-2.848-3.239zm5.44-7.209-2.816 3.579c1.592 1.224 3.062 2.767 4.129 4.614s1.667 3.892 1.931 5.883l4.508-.65c-.337-2.57-1.156-5.102-2.534-7.488s-3.16-4.361-5.218-5.938zm-13.707 27.28a9.02 9.02 0 0 1-9.02 0 9.02 9.02 0 0 1-4.51-7.812 9.02 9.02 0 0 1 4.51-7.812l4.51 7.812z"/><path d="M17.639 7.126C3.901 15.057-.806 32.623 7.126 46.36c7.931 13.738 25.497 18.445 39.235 10.513 13.738-7.931 18.445-25.497 10.513-39.235C48.943 3.9 31.377-.806 17.639 7.126zm1.69 2.926c12.121-6.998 27.62-2.845 34.62 9.276 6.997 12.122 2.844 27.621-9.277 34.62-12.121 6.998-27.62 2.845-34.62-9.276-6.998-12.122-2.844-27.62 9.277-34.62z"/></g></svg>