<svg xmlns="http://www.w3.org/2000/svg" xmlns:xlink="http://www.w3.org/1999/xlink" width="2119" height="2500" fill="#fff" fill-rule="evenodd" stroke="#000" stroke-linecap="round" stroke-linejoin="round" viewBox="-0.12 -0.79 56.172 65.621"><use x=".5" y=".5" xlink:href="#a"/><symbol id="a" overflow="visible"><g fill-rule="nonzero" stroke="none"><path fill="#c9781f" d="M8.467 25.152s4.6-3.998 18.212-3.998c12.488 0 15.998 2.83 19.562 4l-18.596 9.075z"/><path fill="#f6d2a2" d="M6.526 37.187c.084 1.735 1.82.932 2.605.4.746-.515.964-.087 1.03-1.103l.082-2.006c-1.13-.102-2.355.166-3.28.837-.478.348-1.37 1.45-.435 1.882"/><path fill="#c6b198" d="M6.526 37.187c.253-.093.52-.16.69-.39"/><path fill="#37abc8" d="M10.535 16.524c-6.65-1.87-1.705-10.314 3.634-6.84zm29.54-7.474c5.263-3.692 10.02 4.637 3.902 6.733z"/><path fill="#f6d2a2" d="M41.21 58.534c1.337.826 3.78 3.324 1.775 4.535-1.927 1.762-3.005-1.934-4.696-2.446.728-.988 1.65-1.888 2.92-2.09zm-23.883 2.823c-1.57.242-2.452 1.656-3.76 2.374-1.233.734-1.704-.235-1.815-.432-.196-.088-.177.082-.475-.218-1.143-1.8 1.19-3.118 2.406-4.012 1.692-.342 2.753 1.123 3.645 2.288z"/><path fill="#077e91" d="M10.813 14.2c-.877-.46-1.52-1.092-.984-2.106.497-.938 1.42-.836 2.297-.373zm31.78-.88c.877-.463 1.52-1.093.984-2.106-.497-.938-1.42-.836-2.297-.373z"/><path fill="#f6d2a2" d="M48.63 36.966c-.084 1.734-1.82.932-2.605.4-.746-.515-.964-.087-1.03-1.103l-.082-2.006c1.13-.102 2.355.166 3.28.837.478.348 1.37 1.45.435 1.882"/><path fill="#c6b198" d="M48.63 36.967c-.253-.093-.52-.16-.69-.388"/><path fill="#37abc8" d="M26.912 5.54c6.657 0 12.897.95 16.15 7.337 2.92 7.16 1.882 14.878 2.327 22.444.383 6.496 1.23 14-1.788 20.022-3.175 6.334-11.11 7.927-17.643 7.693-5.134-.183-11.335-1.856-14.232-6.54-3.4-5.495-1.8-13.666-1.543-19.78.292-7.243-1.964-14.507.418-21.595 2.472-7.352 9.138-9.014 16.312-9.58"/><path d="M28.087 14.465c1.195 6.938 12.55 5.104 10.92-1.89-1.462-6.275-11.317-4.538-10.92 1.89m-13.57 1.122c1.55 6.04 11.233 4.494 10.868-1.565-.435-7.257-12.35-5.856-10.868 1.565m15.775 6.966c.005.927.217 1.833.034 2.874-.23.435-.683.48-1.073.657a1.58 1.58 0 0 1-1.209-.942c-.14-1.095.052-2.156.087-3.25z"/><path fill="#000" d="M15.553 14.602c0-.98.73-1.77 1.635-1.77s1.635.79 1.635 1.77-.73 1.77-1.635 1.77-1.635-.79-1.635-1.77z"/><path d="M17.546 15c0-.25.172-.45.386-.45s.385.2.385.45-.172.45-.385.45-.386-.2-.386-.45z"/><path fill="#000" d="M29.28 14.162c0-.98.717-1.77 1.608-1.77s1.608.79 1.608 1.77-.717 1.77-1.608 1.77-1.608-.79-1.608-1.77z"/><path d="M31.24 14.56c0-.25.17-.45.38-.45s.38.2.38.45-.17.45-.38.45-.38-.2-.38-.45zm-5.62 8.132c-.713 1.727.398 5.18 2.334 2.63-.14-1.095.052-2.156.086-3.25z"/><path fill="#f6d2a2" d="M25.506 19.367c-1.33.113-2.417 1.692-1.725 2.942.916 1.652 2.96-.146 4.232.022 1.465.03 2.665 1.547 3.842.274 1.31-1.413-.563-2.794-2.026-3.4z"/><path fill="#ef9325" d="M8.467 25.152l.392 6.517c-.03 1.963 1.854.723 1.952 3.81s-1.14 2.502-1.794 4.013-1.096 8.587-1.096 8.587.67 1.322 2.76 2.513 5.457 1.86 8.367 1.728 4.992-.755 5.513-1.1 1.383-1.434 1.708-2.277 1.003-7.785.956-11.757-.705-7.637-.705-7.637z"/><path fill="#e5e5e5" d="M26.914 44.493c-8.576.956-18.527-1.687-18.527-1.687s.146-2.68.8-3.624c8.92 2.76 17.918 1.885 17.918 1.885.133 1.25.04 2.246-.18 3.426zm-1.077 5.283c-8.576.956-17.913-1.793-17.913-1.793s-.03-2.575.31-3.706c8.92 2.76 18.446 2.072 18.446 2.072-.08 1.36-.272 2.696-.844 3.426z"/><path fill="#ef9325" d="M46.242 25.152l-.03 6.517c.03 1.963-1.14.723-1.24 3.81s1.155 2.502 1.816 4.013 1.1 8.587 1.1 8.587-.678 1.322-2.796 2.513-5.523 1.86-8.472 1.728-5.055-.755-5.582-1.1-1.4-1.434-1.73-2.277-1.016-7.785-.967-11.757.713-7.637.713-7.637z"/><path fill="#e5e5e5" d="M28.667 44.493c8.684.956 18.762-1.687 18.762-1.687s-.148-2.68-.8-3.624c-9.032 2.76-18.143 1.885-18.143 1.885-.135 1.25-.04 2.246.183 3.426zm1.093 5.283c8.684.956 18.138-1.793 18.138-1.793s.03-2.575-.315-3.706c-9.03 2.76-18.678 2.072-18.678 2.072.08 1.36.275 2.696.855 3.426z"/><path fill="#d2e261" d="M49.705 33.504c-.27.51-.804.754-1.193.548l-.312-.165c-.39-.206-.486-.783-.216-1.294l6.077-11.455c.27-.51.804-.754 1.193-.548l.312.165c.39.206.486.783.216 1.294z"/><path fill="#000" d="M46.836 38.914c-.157.296-.6.37-.99.164l-.312-.165c-.39-.206-.577-.613-.42-.91l2.85-5.374c.157-.296.6-.37.99-.164l.312.165c.39.206.577.613.42.91z"/><path fill="#9b9b9b" d="M49.37 32.435l-.312-.165c-.39-.206-.787-.217-.89-.025l-.182.343c.102-.192.5-.18.89.025l.312.165c.39.206.622.528.52.72l.182-.343c.102-.192-.13-.515-.52-.72z"/><path fill="#f6d2a2" d="M45.55 35.076c.2-.537.92-.76 1.614-.502s1.093.9.893 1.435-.92.76-1.614.502-1.093-.9-.893-1.435z"/><path fill="#d2e261" d="M5.67 33.687c.246.52.77.8 1.167.602l.32-.15c.398-.188.52-.762.275-1.282l-5.545-11.72c-.246-.52-.768-.8-1.167-.602l-.32.15c-.398.188-.52.762-.275 1.282z"/><path fill="#000" d="M8.3 39.225c.143.303.583.397.978.21l.32-.15c.398-.188.604-.586.46-.89l-2.6-5.497c-.143-.303-.583-.396-.978-.21l-.32.15c-.398.188-.604.586-.46.89z"/><path fill="#9b9b9b" d="M6.055 32.637l.32-.15c.398-.188.796-.18.89.016l.166.352c-.093-.197-.49-.203-.89-.016l-.32.15c-.398.188-.646.5-.553.696l-.166-.352c-.093-.196.152-.508.553-.696z"/><path fill="#f6d2a2" d="M10 35.226c.2.537-.2 1.177-.893 1.435s-1.415.035-1.614-.502.2-1.177.893-1.435S9.8 34.69 10 35.226z"/><path fill="#960000" d="M11.316 19.126c-.264.48-.888.644-1.393.367l-.58-.32c-.505-.277-.7-.89-.436-1.37L14.95 6.825c.264-.48.888-.644 1.393-.367l.58.32c.505.277.635.796.436 1.37-2.118 6.1-6.045 10.978-6.045 10.978z"/><path fill="#595959" d="M12.915 12.856c1.838-3.338 3.044-6.2 2.758-6.535l.006-.012-.022-.01-.003-.002C12.828 4.767 9.027 6.28 7.15 9.69s-1.122 7.426 1.684 8.99h-.001c.012.004.018.01.026.014l.007-.012c.43.068 2.2-2.488 4.048-5.826z"/><path fill="#960000" d="M43.207 19.15c.25.487.87.67 1.382.407l.6-.304c.513-.263.726-.87.475-1.358L39.93 6.746c-.25-.487-.87-.67-1.382-.407l-.6.304c-.513.263-.658.778-.475 1.358 1.94 6.16 5.725 11.148 5.725 11.148z"/><path fill="#595959" d="M41.79 12.838c-1.74-3.4-2.865-6.295-2.568-6.612l-.007-.012c.008-.004.017-.006.024-.01l.003-.001c2.87-1.446 6.623.174 8.4 3.64s.907 7.454-1.943 8.936v.002c-.012.004-.02.01-.027.014l-.007-.012c-.43.056-2.138-2.55-3.88-5.94z"/><path fill="#353535" d="M47.457 11.406s-2.115-5.3-4.568-8.087-26.453-3.75-30.394 0-5.427 8.088-5.427 8.088v-1.174S8.89 5.08 12.495 2.145s27.288-2.783 30.344 0 4.618 8.087 4.618 8.087z"/><path fill="#960000" d="M48.165 9.638c.5.996.593 1.967.185 2.176s-1.148-.424-1.66-1.42-.593-1.966-.185-2.176 1.148.424 1.66 1.42zM6.638 9.48c.54-.98 1.297-1.593 1.7-1.372s.292 1.2-.248 2.17-1.297 1.593-1.7 1.37-.292-1.2.248-2.17z"/><path d="M38.414 10.29H16.03c-4.02 0-4.005 10.666-.232 11.28l7.805-.5c.944 0 2.827-3.65 3.18-3.936s1.518-.322 1.976 0 1.5 3.568 2.444 3.568l7.805.87c3.645-1.675 2.726-11.28-.587-11.28z" opacity=".6"/><path d="M21.972 12.495l-8.43-.015c-.353 1.157-.747 2.62-.552 4.044l9.033.01c1.78 0 3.28.336 4.674.7a.79.79 0 0 1 .086-.094c.353-.287 1.517-.322 1.976 0 .118.083.277.364.462.732a10.92 10.92 0 0 0 2.164.262l9.782.01c.387-1.292.102-2.678.015-3.98-2.968 0-7.686-.067-9.948-.067-3.187 0-5.97-1.526-9.258-1.6z" opacity=".5"/><path fill="#000" d="M25.338 19.297c-.098-2.3 4.294-2.588 4.813-.662s-4.596 2.37-4.812.662c-.173-1.36 0 0 0 0z"/></g></symbol></svg>