<svg xmlns="http://www.w3.org/2000/svg" xml:space="preserve" id="Layer_1" x="0" y="0" version="1.1" viewBox="0 0 512 512"><style>.st0{fill:#ed2224}</style><path d="M104.3 395.3c37.5 41 91.6 66.5 151.7 66.5 30.8 0 59.8-6.7 85.9-18.7L199.1 300.6z" class="st0"/><path d="M198.4 214.3 90.2 322.1l-14.5-14.5 113.9-113.9 133-133c-20.9-7.1-43.1-11-66.5-11-114 .2-206.2 92.4-206.2 206.3 0 46.3 15.2 89.1 41.4 123.8L199.1 272l7.4 7.1L361 433.5c3.2-1.8 6-3.5 8.8-5.7L199.1 257.1 95.5 360.7 81 346.2l118.1-118.1 7.4 7.1 180.3 180c2.8-2.1 5.3-4.6 7.8-6.7L200.1 213.9z" class="st0"/><path d="M409.1 393.9c32.9-36.4 53-84.9 53-137.9 0-82.7-48.8-153.8-118.8-186.7L213.6 198.7zM263.4 236.2l-14.5-14.5 102.2-102.2 14.5 14.5zm96.9-140.4L242.6 213.6l-14.5-14.5L345.8 81.3z" style="fill:#ed1c24"/><path d="M256 512C114.9 512 0 397.1 0 256S114.9 0 256 0s256 114.9 256 256-114.9 256-256 256m0-486.2C129.1 25.8 25.8 129.1 25.8 256S129.1 486.2 256 486.2 486.2 382.9 486.2 256 382.9 25.8 256 25.8" class="st0"/></svg>