<svg xmlns="http://www.w3.org/2000/svg" xmlns:svg="http://www.w3.org/2000/svg" xmlns:xlink="http://www.w3.org/1999/xlink" id="svg5186" width="48" height="48"><defs id="defs5188"><linearGradient id="linearGradient9795"><stop style="stop-color:#fff;stop-opacity:1" id="stop9797" offset="0"/><stop style="stop-color:#fff;stop-opacity:0" id="stop9799" offset="1"/></linearGradient><linearGradient id="linearGradient9783"><stop style="stop-color:#000;stop-opacity:1" id="stop9785" offset="0"/><stop style="stop-color:#000;stop-opacity:0" id="stop9787" offset="1"/></linearGradient><linearGradient id="linearGradient9775"><stop style="stop-color:#f9f9f9;stop-opacity:1" id="stop9777" offset="0"/><stop style="stop-color:#eeeeec;stop-opacity:.62037037" id="stop9779" offset="1"/></linearGradient><linearGradient id="linearGradient5948"><stop style="stop-color:#787b76;stop-opacity:1" id="stop5950" offset="0"/><stop id="stop5956" offset=".871" style="stop-color:#babcb9;stop-opacity:1"/><stop style="stop-color:#787b76;stop-opacity:1" id="stop5952" offset="1"/></linearGradient><linearGradient id="linearGradient5908"><stop style="stop-color:#fff;stop-opacity:1" id="stop5910" offset="0"/><stop style="stop-color:#fff;stop-opacity:0" id="stop5912" offset="1"/></linearGradient><linearGradient id="linearGradient5898"><stop style="stop-color:#c00;stop-opacity:1" id="stop5900" offset="0"/><stop id="stop5906" offset=".365" style="stop-color:#ef0000;stop-opacity:1"/><stop style="stop-color:#a00;stop-opacity:1" id="stop5902" offset="1"/></linearGradient><linearGradient id="linearGradient5871"><stop style="stop-color:#f0f2ef;stop-opacity:1" id="stop5873" offset="0"/><stop style="stop-color:#cdd1c8;stop-opacity:1" id="stop5875" offset="1"/></linearGradient><linearGradient id="linearGradient5843"><stop style="stop-color:#888a85;stop-opacity:1" id="stop5845" offset="0"/><stop style="stop-color:#2e3436;stop-opacity:1" id="stop5847" offset="1"/></linearGradient><linearGradient id="linearGradient5835"><stop style="stop-color:#555753;stop-opacity:1" id="stop5837" offset="0"/><stop style="stop-color:#2e3436;stop-opacity:1" id="stop5839" offset="1"/></linearGradient><linearGradient id="linearGradient5823"><stop style="stop-color:#2e3436;stop-opacity:1" id="stop5825" offset="0"/><stop style="stop-color:#2e3436;stop-opacity:0" id="stop5827" offset="1"/></linearGradient><linearGradient id="linearGradient5234"><stop style="stop-color:#babdb6;stop-opacity:1" id="stop5236" offset="0"/><stop id="stop5242" offset=".133" style="stop-color:#eeeeec;stop-opacity:1"/><stop style="stop-color:#babdb6;stop-opacity:1" id="stop5238" offset="1"/></linearGradient><linearGradient id="linearGradient5240" x1="23.739" x2="23.739" y1="4.157" y2="19.466" gradientUnits="userSpaceOnUse" xlink:href="#linearGradient5234"/><linearGradient id="linearGradient5829" x1="23.732" x2="23.688" y1="30.057" y2="22.633" gradientUnits="userSpaceOnUse" xlink:href="#linearGradient5823"/><linearGradient id="linearGradient5841" x1="23.938" x2="23.938" y1="30.617" y2="36.358" gradientUnits="userSpaceOnUse" xlink:href="#linearGradient5835"/><linearGradient id="linearGradient5849" x1="20.771" x2="20.563" y1="32.248" y2="23.939" gradientUnits="userSpaceOnUse" xlink:href="#linearGradient5843"/><linearGradient id="linearGradient5904" x1="14.813" x2="14.813" y1="5.624" y2="9" gradientUnits="userSpaceOnUse" xlink:href="#linearGradient5898"/><linearGradient id="linearGradient5914" x1="24.041" x2="24.041" y1="5.069" y2="10.009" gradientUnits="userSpaceOnUse" xlink:href="#linearGradient5908"/><linearGradient id="linearGradient5928" x1="13.625" x2="14.125" y1="33.125" y2="24" gradientUnits="userSpaceOnUse" xlink:href="#linearGradient5871"/><linearGradient id="linearGradient5954" x1="10.188" x2="10.188" y1="20.25" y2="42.5" gradientUnits="userSpaceOnUse" xlink:href="#linearGradient5948"/><filter id="filter9771" width="1.06" height="1.28" x="-.03" y="-.14"><feGaussianBlur id="feGaussianBlur9773" stdDeviation=".52"/></filter><linearGradient id="linearGradient9781" x1="24.719" x2="23.937" y1="35.959" y2="17.071" gradientUnits="userSpaceOnUse" xlink:href="#linearGradient9775"/><linearGradient id="linearGradient9789" x1="18.313" x2="18.313" y1="20.744" y2="21.814" gradientUnits="userSpaceOnUse" xlink:href="#linearGradient9783"/><linearGradient id="linearGradient9801" x1="30.438" x2="29.742" y1="31.829" y2="27.454" gradientUnits="userSpaceOnUse" xlink:href="#linearGradient9795"/></defs><metadata id="metadata5191"/><g id="layer1"><rect style="opacity:.28240741;fill:#2e3436;fill-opacity:1;stroke:none;stroke-width:1;stroke-linecap:round;stroke-linejoin:round;stroke-miterlimit:4;stroke-dasharray:none;stroke-dashoffset:0;stroke-opacity:1;filter:url(#filter9771)" id="rect9761" width="41.901" height="8.912" x="3" y="39" rx="2.298" ry="2.298"/><path style="fill:url(#linearGradient5954);fill-rule:evenodd;stroke:#555753;stroke-width:1.00000011999999994px;stroke-linecap:butt;stroke-linejoin:miter;stroke-opacity:1;fill-opacity:1" id="path5232" d="M 10,16.59375 C 8.8196081,16.548814 7.6402135,17.571722 7.53125,18.8125 C 6.643292,26.100083 5.3269606,33.403527 4.65625,40.6875 L 4.65625,43.75 C 4.6900093,45.329492 5.7271791,46.392039 6.875,46.59375 L 41.5,46.59375 C 42.479024,46.569246 43.565009,45.89005 43.53125,44.59375 L 43.53125,40.65625 L 40.40625,19.4375 C 40.152431,18.135677 39.039534,16.752716 37.5,16.59375 L 10,16.59375 z"/><path style="fill:url(#linearGradient5928);fill-opacity:1;fill-rule:evenodd;stroke:#555753;stroke-width:.99999994000000003px;stroke-linecap:butt;stroke-linejoin:miter;stroke-opacity:1" id="path5230" d="M 10.601853,39.624614 C 9.47224,39.502143 8.6733861,38.760954 8.7014295,37.401046 L 10.601853,21.407733 C 10.893931,20.339398 11.586949,19.485349 12.680909,19.488442 L 34.605501,19.488442 C 35.691818,19.455762 36.778134,20.208796 37.062569,21.104687 L 39.478435,37.237611 C 39.535481,38.706714 38.931012,39.557098 37.913093,39.523599 L 10.601853,39.624614 z"/><path style="fill:url(#linearGradient5841);fill-rule:evenodd;stroke:url(#linearGradient5849);stroke-width:1px;stroke-linecap:butt;stroke-linejoin:miter;stroke-opacity:1;fill-opacity:1" id="path5197" d="M 20.46875,20.4375 L 18.40625,32.46875 L 15.4375,32.46875 L 23.46875,37.625 L 32.4375,32.46875 L 29.46875,32.46875 L 27.59375,20.4375 L 20.46875,20.4375 z"/><rect style="opacity:1;fill:url(#linearGradient5904);fill-opacity:1;stroke:#930000;stroke-width:1.00000011999999994;stroke-linecap:round;stroke-linejoin:round;stroke-miterlimit:4;stroke-dasharray:none;stroke-dashoffset:0;stroke-opacity:1" id="rect5224" width="31.113" height="6.061" x="8.485" y="4.514" rx="5.016" ry="1.985"/><rect style="opacity:.58333333;fill:none;fill-opacity:1;stroke:url(#linearGradient5914);stroke-width:1.00000011999999994;stroke-linecap:round;stroke-linejoin:round;stroke-miterlimit:4;stroke-dasharray:none;stroke-dashoffset:0;stroke-opacity:1" id="rect5896" width="29.08" height="3.94" x="9.5" y="5.569" rx="1.834" ry="1.278"/><path style="opacity:.24537036000000001;fill:none;fill-opacity:1;fill-rule:evenodd;stroke:url(#linearGradient9781);stroke-width:1.00000011999999994px;stroke-linecap:butt;stroke-linejoin:miter;stroke-opacity:1" id="path5881" d="M 10.592965,17.57221 C 9.474152,17.53019 8.3562869,18.486727 8.2530054,19.647002 L 5.4687498,39.722803 C 5.4796612,39.847886 5.4997885,39.979699 5.5279893,40.102694 L 5.5279893,42.966491 C 5.559989,44.443503 6.5430497,45.407885 7.6309909,45.596509 L 40.479283,45.596509 C 41.407232,45.573597 42.406944,44.967688 42.374947,43.755497 L 42.374947,40.073472 C 42.382229,40.044972 42.398547,40.013922 42.404566,39.985805 L 42.374947,39.781247 L 42.374947,39.576691 L 42.345327,39.576691 L 39.442592,20.202228 C 39.202015,18.98487 38.147175,17.72086 36.687956,17.57221 L 10.592965,17.57221 z"/><path style="fill:url(#linearGradient9789);fill-rule:evenodd;stroke:none;stroke-width:1px;stroke-linecap:butt;stroke-linejoin:miter;stroke-opacity:1;fill-opacity:1;opacity:.20833333000000001" id="path5926" d="M 10.210155,29.955767 L 12.048004,22 L 36.07815,22.05802 L 37.857941,31.044156 L 36.681164,21.969631 C 36.460193,20.967897 35.929863,20 34.957591,20.025088 L 13.037281,19.980893 C 11.606886,19.936699 11.32554,20.864777 11,21.969631 L 10.210155,29.955767 z"/><rect style="opacity:1;fill:url(#linearGradient5240);fill-opacity:1;stroke:#888a85;stroke-width:1;stroke-linecap:round;stroke-linejoin:round;stroke-miterlimit:4;stroke-dasharray:none;stroke-dashoffset:0;stroke-opacity:1" id="rect5226" width="7.096" height="25.97" x="20.484" y="3.604" rx="1.076" ry="1.076"/><rect style="opacity:1;fill:url(#linearGradient5829);fill-opacity:1;stroke:none;stroke-width:1;stroke-linecap:round;stroke-linejoin:round;stroke-miterlimit:4;stroke-dasharray:none;stroke-dashoffset:0;stroke-opacity:1" id="rect5244" width="8.132" height="8.043" x="19.976" y="22.014" rx="1.076" ry="1.076"/><path style="opacity:.43518521;fill:none;fill-rule:evenodd;stroke:#fff;stroke-width:1px;stroke-linecap:round;stroke-linejoin:miter;stroke-opacity:1" id="path5879" d="M 11.423372,41.486321 L 39.533811,41.486321"/><rect style="opacity:.22685185;fill:none;fill-opacity:1;stroke:#fff;stroke-width:1;stroke-linecap:round;stroke-linejoin:round;stroke-miterlimit:4;stroke-dasharray:none;stroke-dashoffset:0;stroke-opacity:1" id="rect5892" width="5.152" height="23.937" x="21.428" y="4.632" rx="1.076" ry="1.076"/><g id="g5972" style="opacity:.62037037"><path id="path5831" d="M 20.4375,30.5 L 27.5,30.5" style="fill:none;fill-rule:evenodd;stroke:#888a85;stroke-width:1px;stroke-linecap:round;stroke-linejoin:miter;stroke-opacity:1;opacity:1"/><path id="path5833" d="M 19.960998,32.5 L 27.976504,32.5" style="fill:none;fill-rule:evenodd;stroke:#888a85;stroke-width:1px;stroke-linecap:round;stroke-linejoin:miter;stroke-opacity:1;opacity:.68055556"/><path id="path5958" d="M 20.273498,31.5 L 27.726504,31.5" style="fill:none;fill-rule:evenodd;stroke:#5d5d5c;stroke-width:1px;stroke-linecap:round;stroke-linejoin:miter;stroke-opacity:1;opacity:1"/><path id="path5960" d="M 19.869986,33.488738 L 28.141277,33.488738" style="fill:none;fill-rule:evenodd;stroke:#5d5d5c;stroke-width:.99999994000000003px;stroke-linecap:round;stroke-linejoin:miter;stroke-opacity:1;opacity:.68055556"/></g><path style="fill:none;fill-rule:evenodd;stroke:#fff;stroke-width:1px;stroke-linecap:round;stroke-linejoin:miter;stroke-opacity:1" id="path9791" d="M 14.381412,31.513733 L 17.519198,31.513733"/><path style="fill:none;fill-rule:evenodd;stroke:#fff;stroke-width:1px;stroke-linecap:round;stroke-linejoin:miter;stroke-opacity:1" id="path9803" d="M 30.443912,31.451233 L 33.581698,31.451233"/><path style="opacity:.33500001;fill:#fff;fill-opacity:1;stroke:none;stroke-width:1;stroke-linecap:round;stroke-linejoin:round;stroke-miterlimit:4;stroke-dasharray:none;stroke-dashoffset:0;stroke-opacity:1" id="path5119" d="M 11.048544,42.188465 A 1.1932427,1.0827572 0 1 1 8.6620582,42.188465 A 1.1932427,1.0827572 0 1 1 11.048544,42.188465 z" transform="matrix(0.4216252,0,0,0.4766032,5.3634688,21.39228)"/></g></svg>