<svg xmlns="http://www.w3.org/2000/svg" width="53" height="40"><path fill="#4FA52B" d="M41.604.77C38.8.683 37.347 1.996 36.996 2.117c.32-.604.533-.985 1.35-1.835-2.778-.03-5.352.572-7.317 2.41-2.635 2.464-2.43 4.506-2.435 4.496 0 .001-.416-1.332-.54-2.757-2.868 3.97-4 9.228-1.826 13.151 1.35-3.255 3.492-6.06 6.254-8.273.09-2.321 1.024-4.283 2.5-5.73-1.332 1.593-1.92 3.41-1.86 5.24 3.212-2.396 7.149-3.993 11.473-4.517-3.13.575-5.967 1.823-8.447 3.525 1.552.709 3.324.82 5.187.171-1.786.837-3.768.974-5.774.245a25.137 25.137 0 0 0-4.723 4.537c2.415.79 5.057.626 7.687-.714-2.414 1.559-5.25 2.143-8.28 1.48a26.665 26.665 0 0 0-3.011 5.156c.974.719 5.205 2.974 12.46-2.377a11.775 11.775 0 0 1-1.855-.732c.023.01.748.077 2.867-1.192 1.874-1.096 3.486-3.08 4.675-4.626a19.864 19.864 0 0 1-1.8-.765s1.308.088 3.337-1.466c1.81-1.385 3.832-3.394 3.838-3.338.013.012-4.458-3.291-9.152-3.436"/><path fill="#E47B19" d="M9.283 7.988c2.128-.619 3.483.095 3.775.119-.357-.398-.591-.647-1.374-1.134 2.118-.569 4.198-.618 6.043.395 2.473 1.36 2.697 2.957 2.699 2.948 0 .001.07-1.097-.1-2.208 2.931 2.46 4.776 6.246 3.844 9.665-1.638-2.215-3.798-3.932-6.322-5.074-.501-1.751-1.58-3.063-2.979-3.876 1.315.953 2.103 2.222 2.399 3.629-2.903-1.194-6.21-1.635-9.614-1.182 2.501-.179 7.799.184 12.097 3.75-1.7 1.079-3.75 1.475-6.01.971 2.136.713 4.413.6 6.606-.503a20.553 20.553 0 0 1 3.263 3.337c-.612.74-3.426 3.292-9.97.644a9.45 9.45 0 0 0 1.282-.924c-.015.013-.557.206-2.414-.344-1.637-.466-3.238-1.661-4.436-2.605a15.888 15.888 0 0 0 1.234-.938s-.983.325-2.824-.459c-1.643-.7-3.562-1.833-3.556-1.788-.008.011 2.796-3.388 6.357-4.423"/><path fill="#E33F3B" d="M24.56 37.248c-1.552-1.444-1.619-2.914-1.741-3.166-.157.492-.25.808-.274 1.694-1.506-1.46-2.56-3.147-2.616-5.17-.074-2.711 1.145-3.69 1.137-3.687.001 0-.947.488-1.788 1.18.618-3.636 2.869-7.037 6.168-7.97a15.438 15.438 0 0 0-1.141 7.727c-1.213 1.284-1.778 2.824-1.773 4.379.152-1.556.824-2.836 1.85-3.779.422 2.983 1.666 5.924 3.702 8.5-1.367-1.969-3.648-6.51-2.775-11.821 1.725.863 3.055 2.353 3.737 4.464-.448-2.113-1.652-3.93-3.638-5.187.232-1.505.635-2.97 1.186-4.345.914.135 4.41 1.182 5.394 7.886a8.976 8.976 0 0 0-1.393-.596c.018.007.444.356.89 2.158.41 1.579.197 3.492-.004 4.946a15.14 15.14 0 0 0-1.382-.549s.75.648.994 2.553c.218 1.7.211 3.843.245 3.816.014 0-4.181-.616-6.778-3.033"/></svg>