<?xml version="1.0" standalone="no"?>
<!DOCTYPE svg PUBLIC "-//W3C//DTD SVG 20010904//EN"
 "http://www.w3.org/TR/2001/REC-SVG-20010904/DTD/svg10.dtd">
<svg version="1.0" xmlns="http://www.w3.org/2000/svg"
 width="428.000000pt" height="290.000000pt" viewBox="0 0 428.000000 290.000000"
 preserveAspectRatio="xMidYMid meet">

<g transform="translate(0.000000,342.000000) scale(0.100000,-0.100000)"
fill="#000000" stroke="none">
<path d="M1625 3179 c-231 -132 -421 -242 -423 -243 -4 -5 366 -216 378 -216
5 0 114 59 240 131 l230 132 0 218 c0 121 -1 219 -3 219 -1 0 -191 -108 -422
-241z"/>
<path d="M2220 3205 l0 -215 38 -24 c77 -50 424 -246 435 -246 12 0 354 193
370 209 6 6 -821 491 -838 491 -3 0 -5 -97 -5 -215z"/>
<path d="M1949 2727 c-96 -56 -177 -106 -178 -112 -4 -12 350 -216 370 -212
21 3 368 200 369 209 0 8 -364 218 -376 217 -5 0 -88 -47 -185 -102z"/>
<path d="M508 2537 c-230 -132 -415 -244 -410 -248 16 -17 358 -209 370 -209
14 0 426 234 455 258 15 14 17 38 17 229 0 117 -3 213 -7 212 -5 0 -196 -109
-425 -242z"/>
<path d="M1110 2563 l0 -219 229 -132 c127 -73 235 -132 242 -132 11 0 330
178 363 203 13 10 -41 45 -341 217 -196 113 -387 222 -425 243 l-68 39 0 -219z"/>
<path d="M2742 2541 c-227 -132 -414 -243 -414 -247 -1 -5 82 -57 183 -116
l184 -106 30 18 c17 10 118 68 225 130 107 62 201 117 208 122 9 8 12 65 12
224 0 118 -3 214 -7 213 -5 0 -194 -107 -421 -238z"/>
<path d="M3340 2562 l0 -220 221 -127 c122 -70 230 -130 239 -132 15 -4 397
205 388 212 -2 2 -746 428 -840 482 -5 2 -8 -95 -8 -215z"/>
<path d="M832 2083 c-148 -86 -181 -108 -170 -118 18 -18 351 -208 363 -208
11 0 343 190 363 208 9 8 -29 35 -169 115 -100 58 -187 106 -193 107 -6 1 -93
-46 -194 -104z"/>
<path d="M3065 2085 c-99 -57 -181 -107 -182 -112 -2 -4 81 -56 184 -114 l186
-106 181 104 c100 58 184 108 189 112 6 6 -358 221 -373 221 -3 0 -86 -47
-185 -105z"/>
<path d="M2 1920 l3 -221 460 -265 c253 -145 463 -264 467 -264 5 0 7 98 6
217 l-3 217 -415 238 c-228 132 -439 253 -468 269 l-52 31 2 -222z"/>
<path d="M3807 1873 l-466 -268 -1 -217 c0 -120 3 -218 6 -218 3 0 215 120
470 267 l464 266 0 219 c0 120 -1 218 -3 218 -1 0 -213 -120 -470 -267z"/>
<path d="M1623 1892 c-226 -130 -414 -239 -417 -242 -2 -3 81 -54 185 -114
l190 -108 234 133 234 134 1 218 c0 119 -3 217 -7 217 -5 0 -193 -107 -420
-238z"/>
<path d="M2220 1921 l0 -210 28 -19 c15 -10 122 -74 239 -140 l212 -122 186
107 c147 84 183 109 173 118 -18 17 -818 475 -829 475 -5 0 -9 -90 -9 -209z"/>
<path d="M1950 1439 c-96 -55 -178 -104 -182 -108 -6 -5 322 -203 364 -219 10
-4 378 207 378 216 -1 10 -356 212 -372 212 -7 0 -92 -45 -188 -101z"/>
<path d="M1112 1273 l3 -218 430 -248 c237 -136 447 -257 468 -268 l37 -19 0
218 0 219 -463 267 c-255 146 -467 266 -471 266 -3 0 -5 -98 -4 -217z"/>
<path d="M2710 1237 c-240 -139 -448 -260 -463 -270 l-27 -17 0 -215 c0 -118
2 -215 5 -215 3 0 215 120 470 267 l465 268 0 217 c0 120 -3 218 -7 217 -5 0
-204 -114 -443 -252z"/>
</g>
</svg>
