<svg xmlns="http://www.w3.org/2000/svg" xmlns:xlink="http://www.w3.org/1999/xlink" version="1.1" id="Layer_1" x="0px" y="0px" style="enable-background:new 0 0 512 512;" xml:space="preserve" viewBox="0 82.54 512 346.92">
<style type="text/css">
	.st0{fill:#53BCEA;}
	.st1{fill:#3793D3;}
	.st2{fill:#ADADAD;}
</style>
<g transform="matrix(.1 0 0 -.1 0 342)">
	<path class="st0" d="M1943.9,2306.3c-276.3-157.9-503.6-289.5-506-290.7c-4.8-6,437.8-258.4,452.2-258.4   c6,0,136.4,70.6,287.1,156.7l275.1,157.9v260.8c0,144.7-1.2,262-3.6,262C2447.6,2594.6,2220.3,2465.4,1943.9,2306.3z"/>
	<path class="st1" d="M2655.7,2337.4v-257.2l45.5-28.7c92.1-59.8,507.2-294.3,520.4-294.3c14.4,0,423.5,230.9,442.6,250   c7.2,7.2-982.1,587.4-1002.5,587.4C2658.1,2594.6,2655.7,2478.5,2655.7,2337.4z"/>
	<path class="st2" d="M2331.5,1765.6c-114.8-67-211.7-126.8-212.9-134c-4.8-14.4,418.7-258.4,442.6-253.6   c25.1,3.6,440.2,239.3,441.4,250c0,9.6-435.4,260.8-449.8,259.6C2546.8,1887.6,2447.6,1831.4,2331.5,1765.6z"/>
	<path class="st0" d="M607.7,1538.3c-275.1-157.9-496.4-291.9-490.5-296.7c19.1-20.3,428.3-250,442.6-250   c16.7,0,509.6,279.9,544.3,308.6c17.9,16.7,20.3,45.5,20.3,273.9c0,140-3.6,254.8-8.4,253.6   C1110.1,1827.8,881.6,1697.4,607.7,1538.3z"/>
	<path class="st1" d="M1327.9,1569.4v-262l273.9-157.9c151.9-87.3,281.1-157.9,289.5-157.9c13.2,0,394.8,212.9,434.2,242.8   c15.6,12-49,53.8-407.9,259.6c-234.5,135.2-463,265.6-508.4,290.7l-81.3,46.7V1569.4z"/>
	<path class="st0" d="M3280.1,1543.1c-271.6-157.9-495.3-290.7-495.3-295.5c-1.2-6,98.1-68.2,218.9-138.8L3223.9,982l35.9,21.5   c20.3,12,141.2,81.3,269.2,155.5s240.4,140,248.8,145.9c10.8,9.6,14.4,77.8,14.4,268c0,141.2-3.6,256-8.4,254.8   C3777.8,1827.8,3551.7,1699.8,3280.1,1543.1z"/>
	<path class="st1" d="M3995.5,1568.2V1305l264.4-151.9c145.9-83.7,275.1-155.5,285.9-157.9c17.9-4.8,474.9,245.2,464.1,253.6   c-2.4,2.4-892.4,512-1004.9,576.6C3999.1,1827.8,3995.5,1711.7,3995.5,1568.2z"/>
	<path class="st2" d="M995.3,995.2C818.2,892.3,778.8,866,791.9,854c21.5-21.5,419.9-248.8,434.2-248.8   c13.2,0,410.3,227.3,434.2,248.8c10.8,9.6-34.7,41.9-202.2,137.6c-119.6,69.4-223.7,126.8-230.9,128   C1220.2,1120.8,1116.1,1064.6,995.3,995.2z"/>
	<path class="st2" d="M3666.5,997.6c-118.4-68.2-216.5-128-217.7-134c-2.4-4.8,96.9-67,220.1-136.4l222.5-126.8L4108,724.8   c119.6,69.4,220.1,129.2,226.1,134c7.2,7.2-428.3,264.4-446.2,264.4C3884.3,1123.2,3785,1067,3666.5,997.6z"/>
	<path class="st1" d="M2.4,800.2L6,535.8l550.3-317C858.9,45.3,1110.1-97,1114.9-97c6,0,8.4,117.2,7.2,259.6l-3.6,259.6L622.1,706.9   C349.3,864.8,96.9,1009.5,62.2,1028.7L0,1065.8L2.4,800.2z"/>
	<path class="st0" d="M4554.2,744l-557.5-320.6l-1.2-259.6c0-143.6,3.6-260.8,7.2-260.8c3.6,0,257.2,143.6,562.2,319.4L5120,540.6   v262c0,143.6-1.2,260.8-3.6,260.8C5115.2,1063.4,4861.6,919.8,4554.2,744z"/>
	<path class="st0" d="M1941.5,766.7c-270.4-155.5-495.3-285.9-498.8-289.5c-2.4-3.6,96.9-64.6,221.3-136.4l227.3-129.2l279.9,159.1   L2451.1,531l1.2,260.8c0,142.4-3.6,259.6-8.4,259.6C2438,1051.4,2213.1,923.4,1941.5,766.7z"/>
	<path class="st1" d="M2655.7,801.4V550.2l33.5-22.7c17.9-12,145.9-88.5,285.9-167.5L3228.7,214l222.5,128   c175.9,100.5,218.9,130.4,207,141.2c-21.5,20.3-978.5,568.2-991.7,568.2C2660.5,1051.4,2655.7,943.7,2655.7,801.4z"/>
	<path class="st2" d="M2332.7,224.8C2217.9,159,2119.8,100.4,2115,95.6c-7.2-6,385.2-242.8,435.4-262   c12-4.8,452.2,247.6,452.2,258.4c-1.2,12-425.9,253.6-445,253.6C2549.2,345.6,2447.6,291.8,2332.7,224.8z"/>
	<path class="st1" d="M1330.2,26.2l3.6-260.8l514.4-296.7c283.5-162.7,534.7-307.4,559.9-320.6l44.3-22.7v260.8v262L1898.5-32.4   c-305,174.7-558.7,318.2-563.4,318.2C1331.4,285.8,1329,168.6,1330.2,26.2z"/>
	<path class="st0" d="M3241.9-16.9c-287.1-166.3-535.9-311-553.9-323l-32.3-20.3v-257.2c0-141.2,2.4-257.2,6-257.2   c3.6,0,257.2,143.6,562.2,319.4l556.3,320.6V25c0,143.6-3.6,260.8-8.4,259.6C3765.8,284.6,3527.8,148.2,3241.9-16.9z"/>
</g>
</svg>