<svg xmlns="http://www.w3.org/2000/svg" width="512" height="512"><path d="M201.383 385.835c.002-66.914.393-109.518 1.071-116.761 2.572-27.458 10.339-44.718 27.946-62.108 10.334-10.205 20.87-18.27 93.98-71.937l68.5-50.283.284 108.366c.295 112.353-.04 124.679-3.783 139.41-2.526 9.94-8.324 22.116-14.277 29.985-7.205 9.522-21.27 22.423-37.985 34.84-26.47 19.664-130.015 91.648-134.07 93.204-1.553.596-1.67-6.706-1.666-104.716zm-93.004-69.337c0-70.426.376-111.969 1.07-118.186 1.098-9.856 4.594-23.511 7.98-31.176 5.698-12.895 19.134-28.002 38.05-42.785 12.347-9.647 142.598-105.373 143.38-105.373.296 0 .422 22.584.28 50.186l-.26 50.187-34.105 25.063c-39.645 29.136-50.51 37.79-59.99 47.787-16.241 17.125-23.015 33.083-25.372 59.777-.559 6.325-1.036 37.15-1.062 68.5l-.046 57-6.712 4.533c-3.692 2.493-18.863 12.867-33.713 23.052-14.85 10.185-27.562 18.86-28.25 19.276-.997.604-1.25-21.225-1.25-107.841z" style="fill:#000"/></svg>