<?xml version="1.0" encoding="UTF-8" standalone="no"?>
<svg
   width="512"
   height="512"
   viewBox="0 0 512 512"
   version="1.1"
   id="svg12"
   xmlns="http://www.w3.org/2000/svg"
   xmlns:svg="http://www.w3.org/2000/svg">
  <defs
     id="defs16" />
  <path
     style="fill:#000000"
     d="m 201.38267,385.83503 c 0.002,-66.91434 0.3932,-109.51819 1.07167,-116.7613 2.57196,-27.45742 10.33867,-44.71814 27.94608,-62.10734 10.33341,-10.20535 20.86959,-18.2704 93.97883,-71.93737 l 68.5,-50.283481 0.28469,108.366261 c 0.29516,112.35352 -0.0393,124.67912 -3.7832,139.41076 -2.5261,9.93982 -8.32362,22.11555 -14.27722,29.98447 -7.2043,9.52196 -21.26962,22.42306 -37.98441,34.84035 -26.46948,19.66397 -130.01555,91.64801 -134.06976,93.20376 -1.55363,0.59619 -1.66986,-6.70626 -1.66668,-104.71611 z m -93.00343,-69.33739 c 0,-70.42606 0.37575,-111.96819 1.06899,-118.18522 1.09903,-9.8562 4.59505,-23.51177 7.98171,-31.17682 5.69712,-12.89433 19.13298,-28.00199 38.04971,-42.78413 12.34625,-9.64775 142.59738,-105.373427 143.37854,-105.373427 0.29676,0 0.4229,22.583883 0.28031,50.186405 l -0.25925,50.186402 -34.10491,25.0636 c -39.64523,29.13517 -50.5102,37.78984 -59.99098,47.78679 -16.24074,17.12496 -23.01399,33.08321 -25.3714,59.7768 -0.55858,6.325 -1.03629,37.15 -1.06158,68.5 l -0.046,57 -6.71258,4.53304 c -3.6919,2.49318 -18.86256,12.86648 -33.71256,23.05179 -14.85,10.18531 -27.5625,18.85949 -28.25,19.27597 -0.99698,0.60396 -1.25,-21.22526 -1.25,-107.8412 z"
     id="path176" />
</svg>
