<svg xmlns="http://www.w3.org/2000/svg" xmlns:xlink="http://www.w3.org/1999/xlink" version="1.1" id="Layer_1" x="0px" y="0px" style="enable-background:new 0 0 512 512;" xml:space="preserve" viewBox="102.4 0 307.19 512">
<style type="text/css">
	.st0{fill-rule:evenodd;clip-rule:evenodd;fill:#101010;}
</style>
<g>
	<path class="st0" d="M102.4,217.8V440c0,0,36.5-24.8,75.9-52.2V270.9c0-60,18.3-79.4,67.7-115.8l62.9-46.3V0c0,0-98,72-138.8,102   C120.6,138.4,102.4,157.8,102.4,217.8z M203,512V289.9c0-60,18.2-79.4,67.6-115.8C311.4,144.1,409.4,72,409.4,72v193.8   c0,5.6,0,10.9,0.1,16c0.5,53.7,0.7,82.3-54.7,123.8C309,440,203,512,203,512L203,512z"/>
</g>
</svg>