<svg xmlns="http://www.w3.org/2000/svg" xmlns:xlink="http://www.w3.org/1999/xlink" version="1.1" id="Layer_1" x="0px" y="0px" style="enable-background:new 0 0 512 512;" xml:space="preserve" viewBox="0 47.86 512 416.14">
<style type="text/css">
	.st0{fill:#1D9BF0;}
</style>
<g>
	<path class="st0" d="M459.6,151.6c0.3,4.5,0.3,9,0.3,13.6C459.9,303.9,354.2,464,161,464v-0.1C103.9,464,48,447.7,0,416.8   c8.3,1,16.6,1.5,25,1.5c47.3,0,93.2-15.8,130.5-45.1c-44.9-0.9-84.4-30.2-98.1-72.9c15.7,3,32,2.4,47.4-1.8   c-49-9.9-84.3-53-84.3-103v-1.3c14.6,8.1,31,12.6,47.7,13.1C22,176.6,7.8,115.2,35.7,67.1c53.3,65.6,132,105.5,216.5,109.7   c-8.5-36.5,3.1-74.7,30.4-100.4c42.3-39.8,108.8-37.7,148.6,4.6c23.5-4.6,46.1-13.3,66.7-25.5c-7.8,24.3-24.3,45-46.2,58.1   c20.8-2.5,41.2-8,60.3-16.5C497.9,118.3,480.1,136.7,459.6,151.6L459.6,151.6z"/>
</g>
</svg>