<svg xmlns="http://www.w3.org/2000/svg" width="800" height="800" preserveAspectRatio="xMidYMid" viewBox="-2 0 260 260"><path fill="#F49700" d="M109.525 4.053c-4.714 4.032-8.064 8.747-8.064 22.827 0 38.315 48.363 153.408 81.302 153.408 3.7.05 7.384-.475 10.922-1.557l-.069.019-.842 1.35c-28.427 45.312-62.64 78.55-83.344 79.218l-.63.01C63.83 259.328 0 123.563 0 63.829c0-9.408 2.133-16.789 5.376-21.376 15.467-18.901 63.83-33.706 104.15-38.4ZM172.672 0C214.315 0 256 6.72 256 30.23c0 47.7-30.25 105.514-45.696 105.514-27.541 0-61.867-76.608-61.867-114.923C148.437 3.35 155.136 0 172.608 0h.064Z"/></svg>