<?xml version="1.0" encoding="UTF-8"?>
<!-- Created with Inkscape (http://www.inkscape.org/) -->
<svg width="1069.3" height="1204" version="1.1" viewBox="0 0 1069.3 1204" xmlns="http://www.w3.org/2000/svg">
 <g transform="translate(5.8617 -37.515)" stroke-width="1.3333">
  <path d="m506.67 1168.4c-119.67-4.3208-222.45-40.152-298.71-104.14-28.004-23.497-58.887-59.047-76.663-88.245-9.8783-16.226-27.251-51.625-32.629-66.485-10.766-29.751-17.64-58.068-22.321-91.951-2.1661-15.681-2.342-35.984-2.342-270.29v-253.33h56l0.66666 156 0.66667 156h56l0.66666-28 0.66667-28h56l0.66667 62.667 0.66666 62.667h56l0.66667-105.33 0.66666-105.33h56l0.73616 221.33c0.7872 236.68 0.4915 226.09 7.1943 257.74 13.772 65.022 47.834 124.39 100.48 175.14 15.107 14.561 39.508 34.092 53.905 43.146 8.7975 5.5326 9.1398 7.3778 1.3075 7.048-3.4603-0.1457-10.791-0.4274-16.291-0.626zm13.333-4.179c-28.059-19.052-70.111-57.873-89.814-82.911-35.882-45.599-59.231-96.858-68.032-149.35-4.4855-26.754-4.7979-43.277-4.8093-254.33l-0.0114-211h-52v104.4c0 79.422-0.3828 104.78-1.6 106-2.265 2.265-57.202 2.265-59.467 0-1.1984-1.1984-1.6-17.096-1.6-63.333v-61.733h-52v27.067c0 19.274-0.46064 27.527-1.6 28.667-1.1433 1.1433-9.6296 1.6-29.733 1.6-20.104 0-28.59-0.45666-29.733-1.6-1.2261-1.2261-1.6-37.837-1.6-156.67v-155.07h-52.079l0.45171 253c0.40652 227.69 0.67426 254.53 2.6761 268.33 4.8676 33.553 11.292 60.073 21.802 90 5.867 16.706 24.483 54.817 34.519 70.667 72.692 114.8 205.53 181.74 372.63 187.78 5.5 0.1985 11.2 0.4488 12.667 0.556 2.3518 0.172 2.2731-0.072-0.66667-2.0684zm-331.39-672.61c-0.36543-0.95228-0.50128-13.715-0.30191-28.36l0.36251-26.629h56v56l-27.698 0.36048c-21.742 0.28296-27.841-0.012-28.363-1.371zm54.061-26.99v-26h-52v52h52zm3.2727-58.344c-0.36542-0.95228-0.50128-13.715-0.3019-28.36l0.3625-26.629h56v56l-27.698 0.36048c-21.742 0.28296-27.841-0.012-28.363-1.3709zm54.061-26.99v-26h-52v52h52zm3.2721-45.012c-0.36577-0.95322-0.50164-13.415-0.30189-27.694l0.36314-25.961h56v54.667l-27.698 0.36048c-21.756 0.28314-27.841-0.012-28.363-1.3726zm54.061-26.321v-25.333h-52v50.667h52zm-168.73-1.6771c-0.36543-0.95228-0.50128-13.715-0.30191-28.36l0.36251-26.629 56.614-0.71954 0.35977-28.307 0.35977-28.307h56v56l-56.614 0.71955-0.35978 28.307-0.35977 28.307-27.698 0.36048c-21.742 0.28296-27.841-0.012-28.363-1.3709zm54.061-26.99v-26h-52v52h52zm57.333-57.333v-26h-52v52h52zm-226.06-30.344c-0.36543-0.95228-0.50128-13.715-0.3019-28.36l0.36251-26.629h56v56l-27.698 0.36048c-21.742 0.28296-27.841-0.012-28.363-1.371zm54.061-26.99v-26h-52v52h52z" fill="#50ace3"/>
  <path d="m556 1155.9c-64.894-36.574-111.41-84.549-142.11-146.59-12.2-24.648-24.231-59.434-21.5-62.165 0.52157-0.52156 3.7977 0.69397 7.2803 2.7012 40.028 23.07 90.147 38.223 149 45.047 19.335 2.2419 87.161 2.194 107.33-0.0759 37.623-4.2334 79.656-13.372 108.21-23.526 17.439-6.2021 47.347-20.531 63.785-30.56 35.399-21.597 68.146-51.789 95.543-88.087 21.949-29.081 43.835-70.901 59.124-112.97 3.32-9.1362 6.2458-15.292 7.0362-14.803 1.9605 1.2116 0.28028 66.59-2.2426 87.263-7.099 58.169-25.239 113.35-51.673 157.19-48.84 80.994-120.77 137.48-217.78 171.04-35.376 12.236-91.028 23.212-130.04 25.647l-12.629 0.7884-19.333-10.896zm43.333 7.4865c51.42-6.1223 110.43-20.886 141.67-35.444l5.6667-2.6409v-71.993c0-39.596-0.30493-71.993-0.67764-71.993-0.37269 0-7.1227 1.541-15 3.4245-42.169 10.083-76.479 14.091-119.65 13.977-48.168-0.1272-81.933-3.1759-114.01-10.294-32.795-7.2782-63.275-18.198-89-31.886-16.284-8.6641-16.011-9.1051-8.5086 13.741 20.947 63.79 64.521 121.44 123.08 162.85 13.892 9.8229 54.007 32.159 57.759 32.16 1.4667 6e-4 9.8667-0.8562 18.667-1.904zm95.883-198.56c-0.41197-1.0736 0.20608-8.1522 1.3734-15.73 1.1674-7.5781 2.8063-19.178 3.6421-25.778 1.0755-8.4928 1.7679-102.6 2.3691-322l0.84952-310 3.4536-15.333c7.5696-33.608 19.846-56.272 41.944-77.431 40.592-38.869 117.7-61.056 214.49-61.713l28-0.19006 0.33683 248.94 0.33684 248.94-13.24 43.059c-18.801 61.143-26.828 82.301-42.736 112.63-17.241 32.876-35.014 57.707-59.25 82.78-27.143 28.081-51.791 45.996-86.778 63.074-23.926 11.679-41.202 18.031-66.669 24.514-24.17 6.1524-27.205 6.6094-28.117 4.2335zm28.117-5.5669c25.467-6.4825 42.743-12.835 66.669-24.514 34.773-16.974 59.785-35.109 86.178-62.484 23.619-24.498 41.456-49.504 58.517-82.037 15.908-30.333 23.935-51.49 42.736-112.63l13.24-43.059-0.33684-248.27-0.33684-248.27-27.333 0.19437c-66.767 0.47479-126.78 11.764-168.8 31.75-48.455 23.049-74.075 54.781-85.628 106.06l-3.4548 15.333-0.80569 309.33c-0.82687 317.46-0.78821 315.23-6.0258 348.32-1.0724 6.7754-1.9498 13.253-1.9498 14.394 0 2.5478 2.9268 2.1084 27.333-4.1042z" fill="#959393"/>
  <path d="m508 1165.8c-167.1-6.0331-299.94-72.973-372.63-187.78-10.036-15.85-28.652-53.961-34.519-70.667-10.51-29.927-16.934-56.447-21.802-90-2.0019-13.799-2.2696-40.646-2.6761-268.33l-0.45171-253h52.079v155.07c0 118.83 0.37389 155.44 1.6 156.67 1.1433 1.1433 9.6296 1.6 29.733 1.6 20.104 0 28.59-0.45666 29.733-1.6 1.1394-1.1394 1.6-9.3926 1.6-28.667v-27.067h52v61.733c0 46.237 0.40163 62.135 1.6 63.333 2.265 2.265 57.202 2.265 59.467 0 1.2172-1.2172 1.6-26.578 1.6-106v-104.4h52l0.012 211c0.012 211.06 0.32384 227.58 4.8093 254.33 8.801 52.495 32.15 103.75 68.032 149.35 19.702 25.038 61.755 63.858 89.814 82.911 2.9398 1.9961 3.0185 2.2404 0.66667 2.0684-1.4667-0.1072-7.1667-0.3575-12.667-0.556zm-317.33-701.11v-26h52v52h-52zm57.333-85.333v-26h52v52h-52zm57.333-71.333v-25.333h52v50.667h-52zm-114.67-28.667v-26h52v52h-52zm57.333-57.333v-26h52v52h-52zm-172-57.333v-26h52v52h-52z" fill="#38a0df"/>
  <path d="m579.67 1164.4c1.65-0.3179 4.35-0.3179 6 0 1.65 0.3178 0.3 0.5778-3 0.5778s-4.65-0.26-3-0.5778zm12-1.3334c1.65-0.3178 4.35-0.3178 6 0s0.3 0.5779-3 0.5779-4.65-0.2601-3-0.5779zm13.349-1.3353c1.6585-0.319 4.0585-0.3069 5.3333 0.027 1.2748 0.3337-0.0823 0.5947-3.0156 0.5799-2.9333-0.015-3.9763-0.2879-2.3178-0.6068zm10.01-1.3144c1.2973-0.338 3.0973-0.3158 4 0.05 0.90271 0.3653-0.1587 0.6418-2.3587 0.6147-2.2-0.027-2.9386-0.326-1.6413-0.6641zm8.7246-1.3201c0.96249-0.3852 2.1125-0.3378 2.5556 0.1052s-0.34445 0.7582-1.75 0.7003c-1.5533-0.064-1.8692-0.3799-0.80556-0.8056zm9.3333-1.3333c0.9625-0.3852 2.1125-0.3378 2.5556 0.1052 0.44306 0.443-0.34445 0.7581-1.75 0.7002-1.5533-0.064-1.8692-0.3799-0.80556-0.8055zm13.937-2.6789c2.2165-0.5779 2.35-5.1722 2.2907-78.845l-0.06293-78.232 15.571-1.6423c19.402-2.0463 42.929-6.1449 64.108-11.168 8.9434-2.1211 16.593-3.8565 17-3.8565s0.73924 32.397 0.73924 71.993v71.993l-5.6667 2.6409c-21.26 9.9079-84.964 28.534-89.019 26.028-0.62137-0.3841-1.5066-0.088-1.9673 0.6568-0.46062 0.7453-1.8521 1.2855-3.0921 1.2004-2.0115-0.138-2.0009-0.2208 0.0991-0.7683zm-137.86-32.077c-1.6585-2.1147-1.6113-2.1619 0.50341-0.5034 1.2833 1.0065 2.3333 2.0565 2.3333 2.3333 0 1.0974-1.0949 0.3911-2.8367-1.8299zm-7.2899-6-2.54-3 3 2.54c2.8192 2.3869 3.607 3.46 2.54 3.46-0.25301 0-1.603-1.35-3-3zm-9.9451-8.6667-4.5949-5 5 4.5949c2.75 2.5272 5 4.7772 5 5 0 1.0182-1.1283 0.059-5.4051-4.5949zm-14.64-13.333-7.2878-7.6667 7.6667 7.2878c7.1226 6.7706 8.2774 8.0456 7.2878 8.0456-0.20839 0-3.6584-3.45-7.6667-7.6667zm-13.288-14.333c-3.2387-3.3-5.5886-6-5.2219-6 0.36667 0 3.3165 2.7 6.5552 6s5.5886 6 5.2219 6c-0.36666 0-3.3165-2.7-6.5552-6zm-8.7934-10.333-2.54-3 3 2.54c2.8193 2.387 3.607 3.46 2.54 3.46-0.25301 0-1.603-1.35-3-3zm-5.3333-6.6666-2.54-3 3 2.54c1.65 1.3969 3 2.7469 3 3 0 1.067-1.073 0.2792-3.46-2.54zm135.86-64.662c7.1881-0.2402 18.588-0.23915 25.333 3e-3 6.7452 0.24148 0.86408 0.43801-13.069 0.43673-13.933-1e-3 -19.452-0.19887-12.264-0.43907zm42.014 0.084c0.96249-0.38516 2.1125-0.3378 2.5556 0.1052 0.44305 0.44305-0.34445 0.75819-1.75 0.70029-1.5533-0.064-1.8692-0.37992-0.80556-0.80554zm-69.446-1.3848c2.367-0.29454 6.567-0.29938 9.3333-0.0107 2.7663 0.28864 0.82973 0.52962-4.3036 0.53554-5.1333 5e-3 -7.3967-0.23024-5.0297-0.52478zm-14.637-1.312c1.65-0.31781 4.35-0.31781 6 0 1.65 0.3178 0.3 0.57783-3 0.57783s-4.65-0.26003-3-0.57783zm-9.9746-1.3163c1.2973-0.33806 3.0973-0.31583 4 0.0495 0.90271 0.36524-0.1587 0.64183-2.3587 0.61466-2.2-0.0272-2.9386-0.326-1.6413-0.66406zm-10.025-1.2924c0.91667-0.36988 2.4167-0.36988 3.3333 0 0.91667 0.36988 0.16667 0.67252-1.6667 0.67252-1.8333 0-2.5833-0.30264-1.6667-0.67252z" fill="#817f80"/>
  <path d="m573.33 1162c-1.8333-1.048-2.7333-1.9055-2-1.9055 0.73333 0 2.8333 0.8575 4.6667 1.9055 1.8333 1.048 2.7333 1.9055 2 1.9055-0.73333 0-2.8333-0.8575-4.6667-1.9055zm13.333-77.46c0-51.915 0.45941-79.206 1.3333-79.206 0.73333 0 1.3333-1.1063 1.3333-2.4585 0-2.289 1.9941-2.5138 28.914-3.259 15.903-0.44025 29.403-0.49849 30-0.12947 0.59716 0.36908 1.0858 35.364 1.0858 77.767v77.096l-5.6667 1.4151c-4.944 1.2347-34.778 5.5064-51.333 7.35l-5.6667 0.631v-79.206zm-60.17 50.46c-1.6585-2.1147-1.6113-2.1619 0.50341-0.5034 2.221 1.7418 2.9273 2.8367 1.8299 2.8367-0.27686 0-1.3269-1.05-2.3333-2.3333zm-9.3333-6.6667c-1.6585-2.1147-1.6113-2.1619 0.50341-0.5034 1.2833 1.0065 2.3333 2.0565 2.3333 2.3334 0 1.0973-1.0949 0.391-2.8367-1.83zm-5.9566-4.6666-2.54-3 3 2.54c2.8192 2.3869 3.607 3.46 2.54 3.46-0.25302 0-1.603-1.35-3-3zm-6.2067-132.55c0.91667-0.36988 2.4167-0.36988 3.3333 0 0.91666 0.36988 0.16666 0.67252-1.6667 0.67252s-2.5833-0.30264-1.6667-0.67252z" fill="#807d7e"/>
  <path d="m572 1160.2c-4.0333-1.9955-12.733-6.6088-19.333-10.252-6.6-3.643-13.645-7.5304-15.655-8.6388-5.591-3.0823-28.256-19.735-38.869-28.56-13.48-11.207-35.175-33.853-47.515-49.598-23.531-30.024-42.086-65.174-52.602-99.651-1.9724-6.4664-3.3052-12.038-2.962-12.381 0.34329-0.34329 6.2528 2.3833 13.132 6.059 44.752 23.911 96.36 37.512 158.14 41.676 20.851 1.4053 23 1.7785 23 3.9948 0 1.3445-0.6 2.4446-1.3333 2.4446-0.87394 0-1.3333 27.333-1.3333 79.333v79.333l-3.6667-0.066c-2.0167-0.037-6.9667-1.6991-11-3.6946zm124.5-196.86c-0.41283-1.0758-0.49329-2.7258-0.1788-3.6667 0.31449-0.94085 0.88789-0.0607 1.2742 1.956 0.75432 3.9376 0.132 4.9094-1.0954 1.7106zm4.501-0.26036c0.91666-0.36988 2.4167-0.36988 3.3333 0s0.16667 0.67252-1.6667 0.67252c-1.8333 0-2.5833-0.30264-1.6667-0.67252zm6.6667-1.3333c0.91667-0.36988 2.4167-0.36988 3.3333 0 0.91666 0.36988 0.16666 0.67252-1.6667 0.67252s-2.5833-0.30264-1.6667-0.67252zm6.75-1.3611c0.9625-0.38516 2.1125-0.3378 2.5556 0.1052 0.44306 0.44305-0.34445 0.75819-1.75 0.70029-1.5533-0.064-1.8692-0.37992-0.80556-0.80554zm5.3333-1.3333c0.96249-0.38516 2.1125-0.3378 2.5556 0.1052 0.44305 0.44305-0.34446 0.75818-1.75 0.70029-1.5533-0.064-1.8692-0.37992-0.80556-0.80555zm5.3333-1.3333c0.96249-0.38516 2.1125-0.3378 2.5556 0.1052 0.44305 0.44306-0.34445 0.75819-1.75 0.7003-1.5533-0.064-1.8692-0.37992-0.80556-0.80555zm-27.49-3.7558c0.0272-2.2 0.326-2.9386 0.66406-1.6413 0.33805 1.2973 0.31582 3.0973-0.0495 4-0.36521 0.9027-0.6418-0.15871-0.61462-2.3587zm36.823 1.0892c0.9625-0.38516 2.1125-0.3378 2.5556 0.1052 0.44306 0.44305-0.34445 0.75818-1.75 0.70029-1.5533-0.064-1.8692-0.37992-0.80556-0.80555zm-35.441-9.7559c0-2.5667 0.2744-3.6167 0.60977-2.3333 0.33536 1.2833 0.33536 3.3833 0 4.6667-0.33537 1.2833-0.60977 0.23333-0.60977-2.3333zm65.024 0c1.1-0.71088 2.6-1.2925 3.3333-1.2925s0.43333 0.58161-0.66667 1.2925-2.6 1.2925-3.3333 1.2925-0.43333-0.58162 0.66667-1.2925zm8-3.3333c1.8333-1.048 3.9333-1.9055 4.6667-1.9055 0.73334 0-0.16666 0.85748-2 1.9055-1.8333 1.048-3.9333 1.9055-4.6667 1.9055-0.73334 0 0.16666-0.85748 2-1.9055zm-71.664-6.6667c0.0148-2.9333 0.28785-3.9763 0.60677-2.3178 0.31892 1.6585 0.30681 4.0585-0.0269 5.3333-0.33372 1.2748-0.59467-0.0823-0.57987-3.0156zm78.442 4.1531c1.3563-1.2537 27.889-14.107 27.889-13.511 0 0.73928-26.08 14.024-27.531 14.024-0.50221 0-0.66311-0.23109-0.35756-0.51353zm-77.045-16.82c0-4.0333 0.24996-5.6833 0.55545-3.6667 0.30551 2.0167 0.30551 5.3167 0 7.3333-0.30549 2.0167-0.55545 0.36667-0.55545-3.6667zm106.27 2.0685c0-0.36667 1.8-1.5975 4-2.7352s4-1.7685 4-1.4018c0 0.36666-1.8 1.5975-4 2.7351-2.2 1.1377-4 1.7685-4 1.4018zm-104.86-21.402c-4e-3 -6.6 0.2214-9.4681 0.50103-6.3736s0.28296 8.4945 8e-3 12c-0.27617 3.5055-0.50497 0.97356-0.50903-5.6264zm130.19 5.4966c0-0.27687 1.05-1.3269 2.3333-2.3333 2.1148-1.6585 2.1619-1.6113 0.50341 0.50341-1.7418 2.221-2.8367 2.9273-2.8367 1.8299zm5.3333-4c0-0.27687 1.05-1.3269 2.3333-2.3333 2.1148-1.6585 2.1619-1.6113 0.50342 0.50341-1.7418 2.221-2.8368 2.9273-2.8368 1.8299zm5.3333-4c0-0.27687 1.05-1.3269 2.3333-2.3333 2.1147-1.6585 2.1619-1.6113 0.50341 0.50341-1.7418 2.221-2.8368 2.9273-2.8368 1.8299zm8-6.8299c1.7223-1.8333 3.4315-3.3333 3.7982-3.3333 0.36666 0-0.74251 1.5-2.4648 3.3333-1.7223 1.8333-3.4315 3.3333-3.7982 3.3333-0.36666 0 0.74251-1.5 2.4648-3.3333zm-147.35-296.67c0-161.7 0.15529-227.85 0.34508-147 0.1898 80.85 0.1898 213.15 0 294-0.18979 80.85-0.34508 14.7-0.34508-147zm165.99 279.67c7.6869-7.8833 14.137-14.333 14.333-14.333 0.96294 0-0.66307 1.7091-13.976 14.69l-14.333 13.976zm14.69-16.084c0-0.22947 1.95-2.1795 4.3333-4.3333l4.3333-3.9161-3.9161 4.3333c-3.6504 4.0393-4.7505 4.9462-4.7505 3.9161zm10-11.583c1.3273-1.4667 2.7133-2.6667 3.08-2.6667s-0.41932 1.2-1.7466 2.6667c-1.3273 1.4667-2.7133 2.6667-3.08 2.6667-0.36667 0 0.41932-1.2 1.7466-2.6667zm3.3333-4.5034c0-0.27687 1.05-1.3269 2.3333-2.3333 2.1148-1.6585 2.1619-1.6113 0.50342 0.50341-1.7418 2.221-2.8368 2.9273-2.8368 1.8299zm6.6667-9.3333c0-0.27687 1.05-1.3269 2.3333-2.3333 2.1147-1.6585 2.1619-1.6113 0.50341 0.50342-1.7418 2.221-2.8367 2.9273-2.8367 1.8299zm13.333-19.497c0.78493-1.4667 1.7272-2.6667 2.0938-2.6667 0.36667 0 0.0244 1.2-0.76049 2.6667-0.78493 1.4667-1.7272 2.6667-2.0938 2.6667-0.36666 0-0.0244-1.2 0.7605-2.6667zm4-6.6667c0.78493-1.4667 1.7272-2.6667 2.0938-2.6667 0.36667 0 0.0244 1.2-0.76049 2.6667-0.78493 1.4667-1.7272 2.6667-2.0938 2.6667-0.36666 0-0.0244-1.2 0.7605-2.6667zm4.6667-8c1.1377-2.2 2.3685-4 2.7352-4s-0.26415 1.8-1.4018 4c-1.1377 2.2-2.3685 4-2.7352 4s0.26415-1.8 1.4018-4zm9.6169-17.947c3.4463-6.9378 6.4798-12.4 6.7411-12.139 0.5913 0.5913-11.476 24.753-12.363 24.753-0.35448 0 2.1752-5.6764 5.6215-12.614zm7.1443-14.719c0-0.73334 0.85748-2.8333 1.9055-4.6667s1.9055-2.7333 1.9055-2-0.85748 2.8333-1.9055 4.6667c-1.048 1.8333-1.9055 2.7333-1.9055 2zm4-9.3333c0-0.73333 0.85748-2.8333 1.9055-4.6667 1.048-1.8333 1.9055-2.7333 1.9055-2 0 0.73333-0.85748 2.8333-1.9055 4.6667-1.048 1.8333-1.9055 2.7333-1.9055 2zm3.9464-9.3333c0-0.73333 0.58161-2.2333 1.2925-3.3333s1.2925-1.4 1.2925-0.66667-0.58162 2.2333-1.2925 3.3333-1.2925 1.4-1.2925 0.66667zm4-10.667c0-0.73333 0.58161-2.2333 1.2925-3.3333s1.2925-1.4 1.2925-0.66667c0 0.73334-0.58162 2.2333-1.2925 3.3333s-1.2925 1.4-1.2925 0.66666zm12.064-36.111c0.064-1.5533 0.37992-1.8692 0.80554-0.80556 0.38516 0.96249 0.3378 2.1125-0.1052 2.5556-0.44305 0.44305-0.75818-0.34446-0.70029-1.75zm5.3333-17.333c0.064-1.5533 0.37992-1.8692 0.80555-0.80556 0.38516 0.9625 0.3378 2.1125-0.1052 2.5556-0.44306 0.44306-0.75819-0.34445-0.7003-1.75zm5.3333-17.333c0.064-1.5533 0.37992-1.8692 0.80555-0.80556 0.38516 0.96249 0.3378 2.1125-0.1052 2.5556-0.44305 0.44305-0.75819-0.34445-0.70029-1.75zm5.3333-17.333c0.064-1.5533 0.37992-1.8692 0.80554-0.80556 0.38516 0.96249 0.3378 2.1125-0.1052 2.5556-0.44305 0.44305-0.75818-0.34446-0.70029-1.75zm4-13.333c0.064-1.5533 0.37992-1.8692 0.80554-0.80556 0.38516 0.9625 0.3378 2.1125-0.1052 2.5556-0.44305 0.44306-0.75818-0.34445-0.70029-1.75zm1.5578-250.85-0.32979-248.3-39.333-0.81496 19.709-0.29484c14.763-0.22084 19.868 0.12347 20.342 1.3718 0.34847 0.91667 0.47804 112.97 0.28795 249l-0.34564 247.33zm-283.95-90.369c0.0107-3.6667 0.26896-5.0084 0.57542-2.9817 0.30648 2.0268 0.29828 5.0268-0.0181 6.6667-0.31648 1.6399-0.56723-0.0183-0.55723-3.685zm1.2119-10.667c0.0272-2.2 0.326-2.9386 0.66405-1.6413 0.33805 1.2973 0.31583 3.0973-0.0495 4-0.36524 0.9027-0.64182-0.15871-0.61465-2.3587zm1.2839-7.3333c0-1.8333 0.30264-2.5833 0.67252-1.6667s0.36988 2.4167 0 3.3333c-0.36988 0.91667-0.67252 0.16667-0.67252-1.6667zm1.3333-6.6667c0-1.8333 0.30264-2.5833 0.67252-1.6667 0.36988 0.91667 0.36988 2.4167 0 3.3333-0.36988 0.91666-0.67252 0.16666-0.67252-1.6667zm1.2281-6.1111c0.064-1.5533 0.37992-1.8692 0.80555-0.80556 0.38516 0.9625 0.3378 2.1125-0.1052 2.5556-0.44306 0.44306-0.75819-0.34445-0.7003-1.75zm5.2689-15.889c0-0.73333 0.58161-2.2333 1.2925-3.3333s1.2925-1.4 1.2925-0.66667-0.58161 2.2333-1.2925 3.3333-1.2925 1.4-1.2925 0.66667zm2.6258-6.4888c0-1.4446 6.6265-14.178 7.3783-14.178 0.36666 0-0.91562 3.15-2.8495 7-3.7194 7.4045-4.5287 8.6873-4.5287 7.1779zm9.3333-18.178c0.78493-1.4667 1.7272-2.6667 2.0938-2.6667 0.36667 0 0.0244 1.2-0.76049 2.6667-0.78493 1.4667-1.7272 2.6667-2.0938 2.6667-0.36666 0-0.0244-1.2 0.7605-2.6667zm2.6667-4.5034c0-0.27687 1.05-1.3269 2.3333-2.3333 2.1147-1.6585 2.1619-1.6113 0.50341 0.50341-1.7418 2.221-2.8368 2.9273-2.8368 1.8299zm4-5.3333c0-0.27687 1.05-1.3269 2.3333-2.3333 2.1147-1.6585 2.1619-1.6113 0.50341 0.50342-1.7418 2.221-2.8368 2.9273-2.8368 1.8299zm12-13.497c4.7243-4.7667 8.8896-8.6667 9.2563-8.6667 0.36666 0-3.1987 3.9-7.923 8.6667-4.7243 4.7667-8.8896 8.6667-9.2563 8.6667-0.36666 0 3.1987-3.9 7.923-8.6667zm10.667-9.1701c0-0.27687 1.05-1.3269 2.3333-2.3333 2.1148-1.6585 2.1619-1.6113 0.50342 0.50341-1.7418 2.221-2.8368 2.9273-2.8368 1.8299zm21.333-14.825c0-0.88837 21.495-11.621 22.088-11.028 0.26322 0.26324-4.5989 2.9968-10.805 6.0745-6.2058 3.0778-11.283 5.307-11.283 4.9538zm25.333-12.672c1.1-0.71088 2.6-1.2925 3.3333-1.2925 0.73333 0 0.43333 0.58161-0.66667 1.2925s-2.6 1.2925-3.3333 1.2925c-0.73334 0-0.43334-0.58162 0.66666-1.2925zm14.667-5.3333c1.1-0.71088 2.6-1.2925 3.3333-1.2925 0.73334 0 0.43334 0.58161-0.66666 1.2925s-2.6 1.2925-3.3333 1.2925c-0.73333 0-0.43333-0.58161 0.66667-1.2925zm6.4167-2.2442c0.96249-0.38516 2.1125-0.3378 2.5556 0.1052 0.44305 0.44307-0.34446 0.75819-1.75 0.7003-1.5533-0.064-1.8692-0.37992-0.80556-0.80555zm13.333-4c0.96249-0.38516 2.1125-0.3378 2.5556 0.1052 0.44305 0.44307-0.34445 0.75819-1.75 0.7003-1.5533-0.064-1.8692-0.37992-0.80556-0.80555zm5.3333-1.3333c0.9625-0.38516 2.1125-0.3378 2.5556 0.1052 0.44306 0.44307-0.34445 0.75819-1.75 0.70029-1.5533-0.064-1.8692-0.37992-0.80556-0.80554zm5.3333-1.3333c0.96249-0.38516 2.1125-0.3378 2.5556 0.1052 0.44305 0.44306-0.34446 0.75818-1.75 0.70029-1.5533-0.064-1.8692-0.37992-0.80556-0.80555zm5.25-1.3056c0.91666-0.36988 2.4167-0.36988 3.3333 0s0.16667 0.67252-1.6667 0.67252c-1.8333 0-2.5833-0.30264-1.6667-0.67252zm6.6667-1.3333c0.91667-0.36988 2.4167-0.36988 3.3333 0 0.91666 0.36988 0.16666 0.67252-1.6667 0.67252s-2.5833-0.30264-1.6667-0.67252zm7.3587-1.3743c1.2973-0.33805 3.0973-0.31582 4 0.0493 0.90271 0.36524-0.15871 0.64182-2.3587 0.61465-2.2-0.0272-2.9386-0.326-1.6413-0.66405zm8-1.3333c1.2973-0.33805 3.0973-0.31583 4 0.0493 0.90271 0.36524-0.15871 0.64183-2.3587 0.61466-2.2-0.0272-2.9386-0.326-1.6413-0.66406zm8-1.3333c1.2973-0.33806 3.0973-0.31583 4 0.0493 0.90271 0.36524-0.15871 0.64183-2.3587 0.61465-2.2-0.0272-2.9386-0.326-1.6413-0.66405zm8.6568-1.3524c1.6586-0.31892 4.0586-0.30682 5.3333 0.0269 1.2748 0.33372-0.0823 0.59467-3.0155 0.57987-2.9333-0.0148-3.9763-0.28786-2.3178-0.60678zm11.336-1.3471c2.0268-0.30648 5.0267-0.29828 6.6667 0.0181 1.6399 0.31648-0.0183 0.56722-3.685 0.55722-3.6667-0.0107-5.0084-0.26896-2.9817-0.57542zm13.333-1.3333c2.0268-0.30648 5.0268-0.29828 6.6667 0.0181 1.6399 0.31648-0.0183 0.56723-3.685 0.55723-3.6667-0.0107-5.0084-0.26896-2.9817-0.57543zm15.315-1.3528c3.1167-0.28071 8.2167-0.28071 11.333 0 3.1167 0.28072 0.56667 0.5104-5.6667 0.5104-6.2333 0-8.7833-0.22968-5.6667-0.5104z" fill="#737071"/>
  <path d="m697.33 962.68c0-0.7552 0.87743-6.9166 1.9498-13.692 5.2375-33.091 5.1989-30.856 6.0257-348.32l0.8057-309.33 3.4548-15.333c11.521-51.134 36.266-81.876 84.294-104.72 41.175-19.586 95.614-30.072 167.14-32.193l28.333-0.84054v496.33l-13.237 43.047c-18.797 61.131-26.826 82.291-42.733 112.62-35.11 66.948-80.895 112.68-143.36 143.2-23.933 11.691-44.34 19.087-69.577 25.215-22.954 5.5735-23.092 5.5975-23.092 4.0267z" fill="#0c0c0c"/>
 </g>
</svg>
