<svg enable-background="new 0 0 365 365" height="316.227766" viewBox="0 0 365 365" width="316.227766" xmlns="http://www.w3.org/2000/svg" xmlns:xlink="http://www.w3.org/1999/xlink"><linearGradient id="a" gradientTransform="matrix(0 -300 -300 0 144278 -70954.5469)" gradientUnits="userSpaceOnUse" x1="-237.7318" x2="-236.5152" y1="480.3183" y2="480.3183"><stop offset="0" stop-color="#ff780b"/><stop offset="1" stop-color="#ffa322"/></linearGradient><path d="m284.9 365h-204.8c-44.2 0-80.1-35.9-80.1-80.1v-204.8c0-44.2 35.9-80.1 80.1-80.1h204.8c44.2 0 80.1 35.9 80.1 80.1v204.8c0 44.2-35.9 80.1-80.1 80.1z" fill="url(#a)"/><g fill="#fff"><path d="m141.3 318.1c-.4-.1-.9-.3-1.3-.4-37.7-10.6-55.4-52.5-45.2-86.5 5.4-17.9 17-31.1 32.1-41.4 10.2-6.9 20.7-13.3 30.9-20.2 14.5-9.9 25.5-22.8 31-39.8 6.7-20.8 4.5-40.3-10.4-56.9-15.6-17.5-35.8-24.3-58.9-21.3-29.6 3.8-51.8 19.4-67.9 44.2-.7 1-1.1 2.1-1.7 3.2 6.7-4.3 13.6-7.1 21.3-8 15.6-1.9 30.6 8.4 33.5 23.4 2.3 11.5-.7 22.1-7.6 31.2-7.3 9.7-15.4 18.9-23.3 28.2-18.3 21.3-27.8 45.5-23.8 73.9 3.3 23.9 15.5 42.5 35.3 55.9 16.8 11.3 36 14.6 56 14.5"/><path d="m191.4 164.5c10.8-.1 21.4 2 31.8 5 14.9 4.3 28.8 10.7 41.9 18.8 12.4 7.7 25.7 9.9 39.9 7.5 2.8-.5 5.5-1.4 8.1-2.4.9-.4 2-1.8 2-2.8.2-3.4.2-6.9-.1-10.3-1-11.6-4.7-22.3-11.3-31.9-8-11.7-19.2-19-32.4-23.5-2.2-.8-3.1-1.9-3.5-4-.6-3-1.5-5.9-2.5-8.8-2-5.4-4.7-10.5-9.3-14.7-.8 1-1.6 1.8-2.2 2.7-6.3 9-8.8 19.3-8.8 30.1 0 3.1-.9 5.4-3.4 7-6.9 4.5-13.5 9.5-20.8 13.4-9.4 5.2-19.5 9.4-29.4 13.9"/><path d="m229 295.7c3.3-9.6 4.9-18.8 4.8-28.3-.1-12.5-2.3-24.6-8.6-35.4-14.3-24.4-35.7-37.1-64.2-36.9-14.1.1-26.6 4.9-36.9 14.9-5 4.9-8.9 10.6-11.8 17.8 26.8-28.3 70.3-19.8 86.9 5.7 10.1 15.5 12.6 32.1 6.6 49.6-6 17.6-19 28.5-36.1 35.2 31.9-.1 63.6-.5 96.1-3.5-7.8-15.8-21.9-18-36.8-19.1"/><path d="m316.4 229.3c-.3-5.8-3.2-9.7-7.5-12.6-5.3-3.5-11.5-4.5-17.7-5-11.3-1-22.1-3.7-32.1-9.2-8.5-4.7-16.7-10.1-25.4-14.4-13.8-6.7-28.5-10-43.7-11.4-10.4-1-20.6-.1-30.6 3.1-1.2.4-2.3 1-3.4 1.5 1.3.5 2.4.5 3.5.5 11.7-.3 23.2 1.4 34.2 5.5 22.8 8.7 39.4 24.5 51.1 45.5 1.1 2 2.5 3.5 4.6 3.7 5.3.5 10.7 1.2 16.1.9 6.9-.4 13-3.5 19.2-6.4 7.3-3.4 14.9-5.1 23-3.8 2.6.6 5.4 1.3 8.7 2.1"/><path d="m141.3 318.1c-20 .1-39.2-3.2-56-14.5-19.8-13.4-32-32-35.3-55.9-3.9-28.4 5.5-52.6 23.9-73.9 8-9.2 16-18.4 23.3-28.2 6.9-9.1 9.9-19.7 7.6-31.2-2.9-15-17.9-25.3-33.5-23.4-7.7.9-14.6 3.7-21.3 8 .6-1.1 1.1-2.2 1.7-3.2 16-24.8 38.2-40.5 67.8-44.3 23.1-3 43.2 3.8 58.9 21.3 14.9 16.6 17.1 36.1 10.4 56.9-5.5 17-16.5 29.9-31 39.8-10.2 6.9-20.7 13.3-30.9 20.2-15.1 10.3-26.7 23.6-32.1 41.4-10.3 34 7.5 75.9 45.2 86.5.4.2.8.3 1.3.5"/><path d="m191.4 164.5c9.9-4.6 19.9-8.8 29.5-13.9 7.3-3.9 13.9-8.9 20.8-13.4 2.5-1.6 3.4-3.9 3.4-7 0-10.8 2.5-21 8.8-30.1.6-.9 1.3-1.6 2.2-2.7 4.5 4.2 7.2 9.3 9.3 14.7 1 2.9 1.9 5.8 2.5 8.8.5 2.1 1.3 3.3 3.5 4 13.2 4.4 24.4 11.8 32.4 23.5 6.6 9.6 10.3 20.3 11.3 31.9.3 3.4.3 6.9.1 10.3-.1 1-1.1 2.4-2 2.8-2.6 1.1-5.4 2-8.1 2.4-14.2 2.4-27.5.2-39.9-7.5-13.1-8.1-27-14.6-41.9-18.8-10.5-3-21.1-5.1-31.9-5"/><path d="m229 295.7c14.9 1.1 29 3.4 36.9 19-32.5 2.9-64.2 3.4-96.1 3.5 17.1-6.7 30.1-17.6 36.1-35.2 6-17.5 3.4-34.1-6.6-49.6-16.6-25.5-60.1-34-86.9-5.7 2.9-7.2 6.7-12.9 11.8-17.8 10.2-10 22.8-14.8 36.9-14.9 28.5-.2 49.9 12.6 64.2 36.9 6.3 10.8 8.5 22.9 8.6 35.4 0 9.6-1.6 18.8-4.9 28.4"/><path d="m316.4 229.3c-3.3-.7-6.1-1.5-8.9-2-8-1.3-15.7.4-23 3.8-6.2 2.9-12.3 6-19.2 6.4-5.3.3-10.7-.4-16.1-.9-2.1-.2-3.5-1.7-4.6-3.7-11.8-21.1-28.3-36.9-51.1-45.5-11-4.2-22.4-5.8-34.2-5.5-1.1 0-2.1 0-3.5-.5 1.1-.5 2.2-1.1 3.4-1.5 10-3.2 20.1-4.1 30.6-3.1 15.2 1.4 30 4.7 43.7 11.4 8.7 4.3 16.9 9.7 25.4 14.4 10 5.5 20.8 8.2 32.1 9.2 6.2.6 12.4 1.5 17.7 5 4.5 2.8 7.4 6.7 7.7 12.5"/><path d="m152.9 226.4c-21.5 0-39 17.4-39 38.8-.1 21.6 17.4 39 39.1 38.9 21.6 0 38.8-17.3 38.8-38.9-.1-21.5-17.4-38.8-38.9-38.8zm-.3 56.8c-9.8 0-17.8-8.1-17.9-17.9 0-9.8 8.2-18 18.1-18s18 8.2 17.9 18.1c-.1 10.1-7.9 17.8-18.1 17.8z"/></g></svg>