<svg xmlns="http://www.w3.org/2000/svg" xmlns:xlink="http://www.w3.org/1999/xlink" version="1.1" id="Layer_1" x="0px" y="0px" style="enable-background:new 0 0 512 512;" xml:space="preserve" viewBox="30.46 0.05 451.09 511.95">
<style type="text/css">
	.st0{fill:#5D51F8;}
	.st1{fill-rule:evenodd;clip-rule:evenodd;fill:#5D51F8;}
</style>
<g>
	<g>
		<path class="st0" d="M258.4,512c8.5,0,18.6-1.6,30.5-4.7c39.9-15,59.8-43.7,59.8-86.4V299c0-2.3-0.2-4.3-0.5-6.1    c0-0.3,0-0.5-0.1-0.6c-0.1-0.1-0.2-0.3-0.4-0.6c-4.1-10.4-10.7-15.6-19.7-15.6h-1.2l-2.6,0.2H323c-0.3,0-0.7,0.2-1.1,0.5    c-10.4,4-15.6,12.6-15.6,25.6v125c0,6.8-1.7,13.4-5.2,19.8c-9.7,15.3-24.1,22.9-43.2,22.9c-14.4,0-26.7-4.5-36.7-13.5    c-8.2-6.7-12.4-18.9-12.6-36.8l-0.3-122.9c0-1.1-0.1-2.3-0.3-3.5c0-0.4,0-0.7-0.1-0.8s-0.2-0.4-0.5-0.8    c-4.2-10.6-11-15.9-20.2-15.9c-2.9,0.3-4.9,0.7-5.9,1.1c-10.1,4-15.2,10.9-15.2,20.5l0.5,127.4c0.1,19,5.4,36.1,15.8,51.4    C201.9,500,227,512,257.8,512H258.4z"/>
		<path class="st1" d="M113.3,197.1c-23.1,0-37.3,6.8-46.3,17.4c-7.4,8.7-20.4,9.8-29.2,2.4c-8.7-7.4-9.8-20.4-2.4-29.2    c18.9-22.3,46.2-32,77.9-32c26.7,0,51.1,6.8,72.8,20.4c22.5-13.3,46.2-20.4,70.9-20.4c24.1,0,46.9,6.8,68.1,19.7    c18.9-12.7,41.6-18.6,66.9-18.6c31.7,0,59.6,9.2,82.3,28.5c8.7,7.4,9.7,20.5,2.3,29.2s-20.5,9.7-29.2,2.3    c-14.2-12.1-32.2-18.6-55.5-18.6c-22,0-37.8,5.8-49.4,15.8c-9,7.8-22.2,8.4-31.9,1.5l-0.4-0.3c-17.5-12.4-35.1-18.1-53.3-18.1    c-18.5,0-37.3,5.9-56.7,19c-9.1,6.2-21.1,5.9-29.9-0.7l-0.6-0.5C153.5,203.2,134.9,197.1,113.3,197.1z"/>
		<path class="st1" d="M371.7,79.9c-30.2-26.2-69.1-39.5-118.5-38.5c-49.6,1-88.2,15.2-117.4,41.4c-29.5,26.4-51.5,66.6-64.5,123    c-2.6,11.1-13.7,18.1-24.8,15.5c-11.1-2.6-18.1-13.7-15.5-24.8C45.2,134.7,70.5,85.7,108.2,52c38-34,86.7-50.8,144.2-51.9    c57.8-1.1,107.2,14.6,146.4,48.6c38.8,33.7,65.7,83.6,82.1,147.3c2.8,11.1-3.8,22.3-14.9,25.2c-11.1,2.8-22.3-3.8-25.2-14.9    C425.8,147.7,402.2,106.4,371.7,79.9z"/>
	</g>
</g>
</svg>