<svg xmlns="http://www.w3.org/2000/svg" width="136" height="153" fill="none"><path fill="#5351FB" d="M68.901 153c2.536 0 5.57-.468 9.1-1.404 11.924-4.467 17.885-13.07 17.885-25.807V89.341c0-.695-.045-1.298-.136-1.811a.47.47 0 0 0-.022-.182 2.223 2.223 0 0 0-.113-.18c-1.238-3.11-3.2-4.664-5.886-4.664h-.363l-.77.045h-.407c-.09 0-.196.045-.317.136-3.109 1.207-4.663 3.758-4.663 7.652v37.353c0 2.023-.514 4-1.54 5.931-2.897 4.558-7.199 6.837-12.904 6.837-4.316 0-7.968-1.343-10.957-4.029-2.445-1.993-3.697-5.66-3.758-11.003l-.09-36.72c0-.331-.03-.678-.09-1.04a.915.915 0 0 0-.023-.25 1.173 1.173 0 0 0-.159-.249c-1.268-3.17-3.275-4.754-6.022-4.754-.875.09-1.464.196-1.766.317-3.018 1.207-4.527 3.245-4.527 6.112l.136 38.078c.03 5.675 1.6 10.791 4.708 15.349C52.013 149.423 59.514 153 68.72 153h.181Z"/><path fill="#5351FB" fill-rule="evenodd" d="M25.52 58.913c-6.917 0-11.155 2.022-13.85 5.201a6.182 6.182 0 0 1-9.43-7.994c5.653-6.67 13.792-9.571 23.28-9.571 7.975 0 15.284 2.025 21.77 6.105 6.72-3.983 13.8-6.105 21.176-6.105 7.212 0 14.02 2.03 20.35 5.892 5.649-3.803 12.429-5.551 19.984-5.551 9.476 0 17.823 2.744 24.606 8.521a6.182 6.182 0 0 1-8.017 9.412c-4.246-3.616-9.631-5.57-16.589-5.57-6.572 0-11.296 1.74-14.748 4.719a7.727 7.727 0 0 1-9.545.435l-.11-.078c-5.225-3.71-10.498-5.416-15.93-5.416-5.532 0-11.148 1.77-16.945 5.692a7.728 7.728 0 0 1-8.945-.202l-.192-.143c-4.85-3.55-10.398-5.348-16.864-5.348Z" clip-rule="evenodd"/><path fill="#5351FB" fill-rule="evenodd" d="M102.749 23.886c-9.016-7.82-20.638-11.792-35.402-11.508-14.833.285-26.352 4.547-35.094 12.368-8.816 7.887-15.392 19.916-19.275 36.76A6.182 6.182 0 1 1 .931 58.73c4.261-18.487 11.803-33.11 23.078-43.197C35.36 5.379 49.904.347 67.11.016c17.275-.332 32.033 4.375 43.741 14.53 11.605 10.066 19.632 24.98 24.534 44.031a6.182 6.182 0 0 1-11.974 3.08c-4.505-17.51-11.544-29.864-20.661-37.771Z" clip-rule="evenodd"/></svg>