<svg xmlns="http://www.w3.org/2000/svg" version="1.2" viewBox="0 0 1000 1000"><path fill="#5351fb" d="M501.4 1000q-90.2 0-147-70.1-30.5-44.7-30.8-100.4l-.9-248.8q0-28.1 29.6-40 3-1.2 11.5-2.1 27 0 39.4 31.1.9 1.2 1 1.6.2.5.2 1.7.6 3.5.6 6.8l.6 240q.5 52.4 24.5 71.9 29.3 26.3 71.6 26.3 56 0 84.4-44.7 10-18.9 10-38.7V590.4q0-38.1 30.5-50 1.2-.9 2.1-.9h2.7l5-.3h2.3q26.4 0 38.5 30.5l.8 1.2q.1.3.1 1.2.9 5 .9 11.8v238.3q0 124.8-116.9 168.6-34.6 9.2-59.5 9.2z"/><path fill="#5351fb" fill-rule="evenodd" d="M219.1 385c-45.2 0-72.9 13.3-90.5 34-14.5 17.1-40 19.2-57 4.7-17-14.4-19.1-39.9-4.7-56.9 37-43.6 90.2-62.6 152.2-62.6 52.1 0 99.9 13.3 142.3 39.9 43.9-26 90.2-39.9 138.4-39.9 47.1 0 91.6 13.3 133 38.6 36.9-24.9 81.2-36.3 130.6-36.3 61.9 0 116.5 17.9 160.8 55.7 17 14.4 19 39.9 4.6 56.9-14.5 17-40 19.1-57 4.6-27.7-23.7-62.9-36.4-108.4-36.4-43 0-73.8 11.3-96.4 30.8-17.6 15.2-43.4 16.4-62.4 2.9l-.7-.5c-34.2-24.3-68.6-35.5-104.1-35.5-36.2 0-72.9 11.6-110.8 37.3-17.8 12-41.2 11.5-58.4-1.4l-1.3-.9c-31.7-23.2-67.9-35-110.2-35z"/><path fill="#5351fb" fill-rule="evenodd" d="M723.8 156.1C664.9 105 589 79 492.5 80.9c-97 1.9-172.3 29.7-229.4 80.8-57.6 51.6-100.6 130.2-126 240.3-5 21.7-26.7 35.3-48.4 30.3-21.8-5-35.3-26.7-30.3-48.5C86.2 263 135.5 167.4 209.2 101.5 283.4 35.2 378.5 2.3 490.9.1c112.9-2.2 209.4 28.6 285.9 95 75.8 65.8 128.3 163.2 160.4 287.8 5.5 21.6-7.5 43.6-29.1 49.2-21.6 5.5-43.6-7.5-49.2-29.1-29.5-114.5-75.5-195.2-135.1-246.9z"/></svg>