<svg xmlns:serif="http://www.serif.com/" xmlns="http://www.w3.org/2000/svg" xmlns:xlink="http://www.w3.org/1999/xlink" version="1.1" id="Layer_1" x="0px" y="0px" style="enable-background:new 0 0 512 512;" xml:space="preserve" viewBox="66.5 2.55 379 506.9">
<style type="text/css">
	.st0{fill:#2D2E83;}
	.st1{fill:url(#SVGID_1_);}
	.st2{fill:#1FC2D7;}
</style>
<g>
	<g>
		<path class="st0" d="M356.9,24.3V311L259,367.4c-2,1-4.3,1-6.3,0L154.8,311V24.3L85.4,64.4c-11.7,6.8-18.9,19.3-18.9,32.9V384    c0.1,13.5,7.3,26,18.9,32.9l151.7,87.6c11.7,6.6,26.1,6.6,37.8,0l151.7-87.6c11.7-6.8,18.9-19.3,18.9-32.9V97.3    c-0.1-13.5-7.3-26-18.9-32.9C426.6,64.4,356.9,24.3,356.9,24.3z"/>
		
			<linearGradient id="SVGID_1_" gradientUnits="userSpaceOnUse" x1="-48.4841" y1="649.6391" x2="-45.1657" y2="649.6391" gradientTransform="matrix(114.2 0 0 -114.2 5603.3999 74455.6484)">
			<stop offset="0" style="stop-color:#0D0D27"/>
			<stop offset="2.000000e-02" style="stop-color:#10102F"/>
			<stop offset="0.1" style="stop-color:#1A1B4D"/>
			<stop offset="0.19" style="stop-color:#232365"/>
			<stop offset="0.28" style="stop-color:#282976"/>
			<stop offset="0.38" style="stop-color:#2C2D80"/>
			<stop offset="0.5" style="stop-color:#2D2E83"/>
			<stop offset="0.62" style="stop-color:#2C2D80"/>
			<stop offset="0.72" style="stop-color:#282976"/>
			<stop offset="0.81" style="stop-color:#232365"/>
			<stop offset="0.9" style="stop-color:#1A1B4D"/>
			<stop offset="0.98" style="stop-color:#10102F"/>
			<stop offset="1" style="stop-color:#0D0D27"/>
		</linearGradient>
		<path class="st1" d="M356.9,24.3V311L259,367.4c-2,1-4.3,1-6.3,0L154.8,311V24.3L85.4,64.4c-11.7,6.8-18.9,19.3-18.9,32.9V384    c0.1,13.5,7.3,26,18.9,32.9l151.7,87.6c11.7,6.6,26.1,6.6,37.8,0l151.7-87.6c11.7-6.8,18.9-19.3,18.9-32.9V97.3    c-0.1-13.5-7.3-26-18.9-32.9C426.6,64.4,356.9,24.3,356.9,24.3z"/>
		<path class="st2" d="M445.5,97.3c-0.1-13.5-7.3-26-18.9-32.9L325.7,6c-7.8-4.6-17.5-4.6-25.2,0c-7.8,4.5-12.6,12.9-12.6,21.9v221    c0.1,13.5,7.3,26,18.9,32.9l119.8,69.4c11.7,6.8,18.9,19.3,18.9,32.9C445.5,384,445.5,97.3,445.5,97.3z"/>
		<path class="st2" d="M66.5,97.3c0.1-13.5,7.3-26,18.9-32.9L186.6,6c7.8-4.6,17.5-4.6,25.2,0c7.8,4.5,12.6,12.9,12.6,21.9v221    c-0.1,13.5-7.3,26-18.9,32.9L85.8,351.2c-11.7,6.8-18.9,19.3-18.9,32.9C66.8,384,66.5,97.3,66.5,97.3z"/>
	</g>
</g>
</svg>