<?xml version="1.0" encoding="utf-8"?>
<!-- Generator: Adobe Illustrator 27.7.0, SVG Export Plug-In . SVG Version: 6.00 Build 0)  -->
<svg version="1.1" id="Layer_1" xmlns="http://www.w3.org/2000/svg" xmlns:xlink="http://www.w3.org/1999/xlink" x="0px" y="0px"
	 viewBox="0 0 512 512" style="enable-background:new 0 0 512 512;" xml:space="preserve">
<style type="text/css">
	.st0{fill-rule:evenodd;clip-rule:evenodd;fill:#EAEDEF;}
	.st1{fill-rule:evenodd;clip-rule:evenodd;fill:#139CDA;}
</style>
<g>
	<path class="st0" d="M172.4,95.8c-11.6,2.1-20.1,5.3-28.6,10.9c-19.7,12.9-31.2,33.5-32.5,58c-1.2,21.9,9.2,44.8,26.6,58.5
		c23.8,18.7,56.3,21.1,82.2,6.1c8.7-5.1,19.6-15.8,25.1-24.6c5.4-8.7,8.3-17.3,10-29.2c2.1-14.7-1.4-31.4-9.5-45
		c-11.4-19.4-30.7-31.8-54.6-35.1C181.9,94.1,181.9,94.1,172.4,95.8 M171.6,106.7c-12.3,2.2-21.6,7.4-31.6,17.5
		c-13.9,14.1-19.7,30.4-17.5,49.5c2.9,25.4,18.7,44.2,44.5,52.7c7.9,2.6,25.3,2.7,33.2,0c18.3-6.1,30.9-16.8,38.7-32.8
		c6.4-13.2,8.1-24.5,5.5-37.3c-4.3-22-19.5-39.5-40.8-47.2C195.6,106.3,180.3,105.1,171.6,106.7 M176.7,135.7
		c-7.4,0.8-17.9,5.5-25.3,11.4c-6.3,5-7.1,9-2.5,12c3,2,2.6,2.2,13.4-5.2c14.2-9.8,30.3-8.6,46,3.4c6.3,4.8,6.9,4.9,10.2,2.7
		c3.5-2.5,3-6.3-1.5-10.5C205.6,138.8,191.8,134.1,176.7,135.7 M272.1,139.9c-0.4,0.6-0.3,1.6,0.1,2.2c0.4,0.6,1.3,3.3,1.9,6
		l1.2,4.8l56.4,0.5l56.4,0.5l0.3,113.7c0.1,62.6-0.1,113.7-0.5,113.7c-0.4,0-1.9-0.7-3.4-1.5c-5.3-3-7.1-2.1-19.9,9.9l-12.2,11.5
		l-3-2.4c-1.7-1.3-6.9-6-11.7-10.3c-10-9.1-12-10.3-14.9-9.2c-1.2,0.4-7.1,5.3-13.2,10.8c-6.1,5.5-11.6,9.9-12.4,9.9
		c-0.7,0-6-4.1-11.7-9.2c-17-15-16.4-15-31.1-0.9c-6.1,5.8-11.4,10.8-11.8,10.9c-0.4,0.2-5.8-4.4-11.8-10.1
		c-6.1-5.7-12.3-10.9-13.8-11.5c-3.4-1.3-4-1-18.3,11.9l-11.2,10l-12.2-11.4c-12.9-12.1-15.5-13.4-20.2-9.9
		c-1.1,0.8-2.4,1.5-2.9,1.5c-0.5,0-0.8-28.6-0.8-63.6v-63.6l-6.6-3.3c-3.6-1.8-6.9-3.3-7.3-3.3s-0.6,33.6-0.6,74.6
		c0,73.2,0,74.7,2.1,76.7c2.9,2.9,7,2.6,13.8-1.1c3.2-1.8,6.3-3,6.8-2.9c0.5,0.2,5.9,5,12,10.7c12.3,11.5,14.6,13.1,17.7,11.9
		c1.1-0.4,7.4-5.5,13.8-11.3c6.5-5.8,11.9-10.5,12.1-10.5s5.2,4.5,11.1,10c12.9,12.1,14.6,13.2,17.8,12.4c1.4-0.3,7.4-5.3,13.4-11
		c6-5.7,11.5-10.4,12.3-10.4c0.8,0,5.1,3.3,9.7,7.4c10.5,9.3,15.9,13.3,18.1,13.3c2.3,0,6.9-3.5,17.9-13.6l9.1-8.3l11.2,10
		c13.6,12.2,15.1,13.3,17.8,12.4c1.2-0.4,7.7-5.8,14.6-12c6.9-6.2,12.7-11.3,13-11.3s3.7,1.7,7.7,3.8c7,3.7,7.3,3.7,9.9,2
		c1.5-1,3.1-2.9,3.7-4.4c0.6-1.6,1-50.4,1-126.8V145.2l-2.7-3.2l-2.7-3.2h-62.6C294.7,138.8,272.5,139.2,272.1,139.9 M175.2,159.1
		c-7,1.9-15.3,7.4-16.2,10.6c-0.7,2.5,0.8,4.9,3.9,6.5c1.4,0.8,3.6,0.1,9.2-2.8c9.3-4.9,14.3-5,22.3-0.5c6.9,3.9,10.3,4.1,12.5,0.7
		c2-3.1,1-5.5-3.9-9.3C195,158.4,184.6,156.5,175.2,159.1 M178.4,180.9c-1.3,0.9-3,3.1-3.8,4.9c-1.1,2.7-1.1,3.8,0.1,6.8
		c1.9,4.6,4.2,6.3,8.8,6.3c8.7,0.1,12.6-10.3,6.2-16.6C186.3,178.8,182.1,178.3,178.4,180.9 M275.7,217.6v7.3l10.1,0.1
		c30.5,0.3,62.9-0.2,63.7-1c0.5-0.5,0.8-3.7,0.6-7l-0.3-6.1l-37.1-0.3l-37.1-0.3V217.6 M195.4,259l-5.2,0.6v6.2v6.2l76.9,0.3
		l76.9,0.3l0.5-2.3c0.4-1.9,0.3-6.4-0.4-11.4C344.1,257.9,203.1,258,195.4,259 M189.7,312.9v7.3h77.2h77.2v-7.3v-7.3h-77.2h-77.2
		V312.9"/>
	<path class="st1" d="M98.5,1.1c-3.7,0.5-8.6,1.4-10.9,2.1c-14.5,4.3-14.8,4.5-23.8,9c-8.2,4.2-8.9,4.6-16.6,10.1
		C35.6,30.8,21.7,45.9,16,56.5c-1.1,2.1-6.2,12.1-7.6,15c-0.4,0.9-1.6,4.4-2.6,7.8c-1,3.4-2.2,7.4-2.7,8.8c-2.7,7.7-3,26.5-3,167.9
		s0.3,160.2,3,167.9c0.5,1.4,1.7,5.4,2.7,8.8c1,3.4,2.2,6.9,2.6,7.8c1.4,2.9,6.5,13,7.6,15c2.7,5,12.2,17.1,17.8,22.7
		c5.6,5.6,17.7,15.1,22.7,17.8c2.1,1.1,12.1,6.2,15,7.6c0.9,0.4,4.4,1.6,7.8,2.6c3.4,1,7.4,2.2,8.8,2.7c7.7,2.7,26.5,3,167.9,3
		s160.2-0.3,167.9-3c1.4-0.5,5.4-1.7,8.8-2.7c3.4-1,6.9-2.2,7.8-2.6c2.9-1.4,13-6.5,15-7.6c1.1-0.6,5.3-3.5,9.3-6.4
		c15.7-11.4,27.6-25.9,37.2-45.5c2-4.2,2.5-5.3,4.3-11.4c1-3.4,2.2-7.4,2.7-8.8c2.7-7.7,3-26.5,3-167.9S511.7,95.8,509,88
		c-0.5-1.4-1.7-5.4-2.7-8.8c-1-3.4-2.2-6.9-2.6-7.8c-1.4-2.9-6.5-13-7.6-15c-2.7-5-12.2-17.1-17.8-22.7s-17.7-15.1-22.7-17.8
		c-2.1-1.1-12.1-6.2-15-7.6c-0.9-0.4-4.4-1.6-7.8-2.6c-3.4-1-7.4-2.2-8.8-2.7c-7.8-2.7-26.2-3-169.4-2.9
		C172.4,0.1,102.2,0.6,98.5,1.1 M172.4,95.8c-11.6,2.1-20.1,5.3-28.6,10.9c-19.7,12.9-31.2,33.5-32.5,58
		c-1.2,21.9,9.2,44.8,26.6,58.5c23.8,18.7,56.3,21.1,82.2,6.1c8.7-5.1,19.6-15.8,25.1-24.6c5.4-8.7,8.3-17.3,10-29.2
		c2.1-14.7-1.4-31.4-9.5-45c-11.4-19.4-30.7-31.8-54.6-35.1C181.9,94.1,181.9,94.1,172.4,95.8 M171.6,106.7
		c-12.3,2.2-21.6,7.4-31.6,17.5c-13.9,14.1-19.7,30.4-17.5,49.5c2.9,25.4,18.7,44.2,44.5,52.7c7.9,2.6,25.3,2.7,33.2,0
		c18.3-6.1,30.9-16.8,38.7-32.8c6.4-13.2,8.1-24.5,5.5-37.3c-4.3-22-19.5-39.5-40.8-47.2C195.6,106.3,180.3,105.1,171.6,106.7
		 M176.7,135.7c-7.4,0.8-17.9,5.5-25.3,11.4c-6.3,5-7.1,9-2.5,12c3,2,2.6,2.2,13.4-5.2c14.2-9.8,30.3-8.6,46,3.4
		c6.3,4.8,6.9,4.9,10.2,2.7c3.5-2.5,3-6.3-1.5-10.5C205.6,138.8,191.8,134.1,176.7,135.7 M272.1,139.9c-0.4,0.6-0.3,1.6,0.1,2.2
		c0.4,0.6,1.3,3.3,1.9,6l1.2,4.8l56.4,0.5l56.4,0.5l0.3,113.7c0.1,62.6-0.1,113.7-0.5,113.7c-0.4,0-1.9-0.7-3.4-1.5
		c-5.3-3-7.1-2.1-19.9,9.9l-12.2,11.5l-3-2.4c-1.7-1.3-6.9-6-11.7-10.3c-10-9.1-12-10.3-14.9-9.2c-1.2,0.4-7.1,5.3-13.2,10.8
		c-6.1,5.5-11.6,9.9-12.4,9.9c-0.7,0-6-4.1-11.7-9.2c-17-15-16.4-15-31.1-0.9c-6.1,5.8-11.4,10.8-11.8,10.9
		c-0.4,0.2-5.8-4.4-11.8-10.1c-6.1-5.7-12.3-10.9-13.8-11.5c-3.4-1.3-4-1-18.3,11.9l-11.2,10l-12.2-11.4
		c-12.9-12.1-15.5-13.4-20.2-9.9c-1.1,0.8-2.4,1.5-2.9,1.5c-0.5,0-0.8-28.6-0.8-63.6v-63.6l-6.6-3.3c-3.6-1.8-6.9-3.3-7.3-3.3
		s-0.6,33.6-0.6,74.6c0,73.2,0,74.7,2.1,76.7c2.9,2.9,7,2.6,13.8-1.1c3.2-1.8,6.3-3,6.8-2.9c0.5,0.2,5.9,5,12,10.7
		c12.3,11.5,14.6,13.1,17.7,11.9c1.1-0.4,7.4-5.5,13.8-11.3c6.5-5.8,11.9-10.5,12.1-10.5s5.2,4.5,11.1,10
		c12.9,12.1,14.6,13.2,17.8,12.4c1.4-0.3,7.4-5.3,13.4-11c6-5.7,11.5-10.4,12.3-10.4c0.8,0,5.1,3.3,9.7,7.4
		c10.5,9.3,15.9,13.3,18.1,13.3c2.3,0,6.9-3.5,17.9-13.6l9.1-8.3l11.2,10c13.6,12.2,15.1,13.3,17.8,12.4c1.2-0.4,7.7-5.8,14.6-12
		c6.9-6.2,12.7-11.3,13-11.3s3.7,1.7,7.7,3.8c7,3.7,7.3,3.7,9.9,2c1.5-1,3.1-2.9,3.7-4.4c0.6-1.6,1-50.4,1-126.8V145.2l-2.7-3.2
		l-2.7-3.2h-62.6C294.7,138.8,272.5,139.2,272.1,139.9 M175.2,159.1c-7,1.9-15.3,7.4-16.2,10.6c-0.7,2.5,0.8,4.9,3.9,6.5
		c1.4,0.8,3.6,0.1,9.2-2.8c9.3-4.9,14.3-5,22.3-0.5c6.9,3.9,10.3,4.1,12.5,0.7c2-3.1,1-5.5-3.9-9.3
		C195,158.4,184.6,156.5,175.2,159.1 M178.4,180.9c-1.3,0.9-3,3.1-3.8,4.9c-1.1,2.7-1.1,3.8,0.1,6.8c1.9,4.6,4.2,6.3,8.8,6.3
		c8.7,0.1,12.6-10.3,6.2-16.6C186.3,178.8,182.1,178.3,178.4,180.9 M275.7,217.6v7.3l10.1,0.1c30.5,0.3,62.9-0.2,63.7-1
		c0.5-0.5,0.8-3.7,0.6-7l-0.3-6.1l-37.1-0.3l-37.1-0.3V217.6 M195.4,259l-5.2,0.6v6.2v6.2l76.9,0.3l76.9,0.3l0.5-2.3
		c0.4-1.9,0.3-6.4-0.4-11.4C344.1,257.9,203.1,258,195.4,259 M189.7,312.9v7.3h77.2h77.2v-7.3v-7.3h-77.2h-77.2V312.9"/>
</g>
</svg>
