<?xml version="1.0" encoding="UTF-8" standalone="no"?>
<svg
   version="1.1"
   viewBox="0 0 24 24"
   id="svg1"
   sodipodi:docname="unified-remote.svg"
   width="24"
   height="24"
   inkscape:version="1.4-beta (62f545ba5e, 2024-04-22)"
   xmlns:inkscape="http://www.inkscape.org/namespaces/inkscape"
   xmlns:sodipodi="http://sodipodi.sourceforge.net/DTD/sodipodi-0.dtd"
   xmlns="http://www.w3.org/2000/svg"
   xmlns:svg="http://www.w3.org/2000/svg">
  <defs
     id="defs1" />
  <sodipodi:namedview
     id="namedview1"
     pagecolor="#ffffff"
     bordercolor="#666666"
     borderopacity="1.0"
     inkscape:showpageshadow="2"
     inkscape:pageopacity="0.0"
     inkscape:pagecheckerboard="0"
     inkscape:deskcolor="#d1d1d1"
     inkscape:zoom="4.515942"
     inkscape:cx="86.360719"
     inkscape:cy="86.25"
     inkscape:window-width="1920"
     inkscape:window-height="991"
     inkscape:window-x="-9"
     inkscape:window-y="-9"
     inkscape:window-maximized="1"
     inkscape:current-layer="svg1" />
  <circle
     cx="5.133913"
     cy="18.866087"
     fill="#1f4820"
     r="5.133913"
     id="circle1"
     style="stroke-width:0.13913" />
  <path
     d="M 23.986086,6.9843475 V 3.4086955 C 23.986086,1.5304347 22.455651,0 20.57739,0 h -3.575652 c 2.810435,1.7808695 5.203478,4.1739129 6.984348,6.9843475 z M 5.1339128,0.01391304 c -0.1391304,0 -0.2782608,0 -0.4034782,0 C 3.0330433,0.22260869 1.7113043,1.6556521 1.7113043,3.4086955 V 3.8260868 C 2.8104347,3.575652 3.9652172,3.4365216 5.1339128,3.4365216 c 8.5147822,0 15.4017382,6.9008694 15.4017382,15.4017384 0,1.168696 -0.125217,2.309565 -0.375652,3.408696 h 0.403478 c 1.808696,0 3.297392,-1.405218 3.408696,-3.186087 0,-0.06957 0,-0.139131 0,-0.222609 C 23.986086,8.4591301 15.540869,0.01391304 5.1339128,0.01391304 Z m 0,6.85913016 c -1.1965217,0 -2.3373912,0.1808695 -3.4226085,0.5008695 v 3.6869563 c 1.0434782,-0.45913 2.2121738,-0.723478 3.4226085,-0.723478 4.7026085,0 8.5147822,3.812174 8.5147822,8.514782 0,1.210435 -0.250435,2.365217 -0.709565,3.408696 h 3.686956 c 0.32,-1.085218 0.486957,-2.226087 0.486957,-3.408696 C 17.126956,12.243478 11.756521,6.8730432 5.1339128,6.8730432 Z"
     fill="#439b45"
     id="path1"
     style="stroke-width:0.13913" />
</svg>
