<svg xmlns="http://www.w3.org/2000/svg" xmlns:xlink="http://www.w3.org/1999/xlink" version="1.1" id="Layer_1" x="0px" y="0px" style="enable-background:new 0 0 512 512;" xml:space="preserve" viewBox="0 108.3 512 295.4">
<style type="text/css">
	.st0{fill:url(#SVGID_1_);}
</style>
<g>
	
		<linearGradient id="SVGID_1_" gradientUnits="userSpaceOnUse" x1="91.0585" y1="93.4504" x2="420.9415" y2="423.3334" gradientTransform="matrix(1 0 0 -1 0 514.2)">
		<stop offset="0" style="stop-color:#E32929"/>
		<stop offset="1" style="stop-color:#FF8D30"/>
	</linearGradient>
	<path class="st0" d="M243.3,181.9h24.9v147.8h-24.9V181.9z M24.9,329.7H0V181.9h24.9V329.7z M121.7,347.3h24.9v56.4h-24.9V347.3z    M60.6,284h24.9v91.3H60.6C60.6,375.4,60.6,284,60.6,284z M182.3,284h24.9v91.3h-24.9V284z M487.1,181.9H512v147.8h-24.9   C487.1,329.7,487.1,181.9,487.1,181.9z M390.3,164.7h-24.9v-56.4h24.9C390.3,108.2,390.3,164.7,390.3,164.7z M451.4,227.6h-24.9   v-91h24.9V227.6z M329.3,227.6h-24.9v-91h24.9V227.6z"/>
</g>
</svg>