<svg xmlns="http://www.w3.org/2000/svg" xmlns:xlink="http://www.w3.org/1999/xlink" viewBox="0 0 76 82" fill="#fff" fill-rule="evenodd" stroke="#000" stroke-linecap="round" stroke-linejoin="round"><use xlink:href="#A" x=".5" y=".5"/><symbol id="A" overflow="visible"><g stroke="none"><path d="M62.048 30.574v-1.309q.022-.129.13-.193l3.4-1.909q.108-.043.108.064v1.394q0 .064-.108.129l-3.4 1.901q-.13.051-.13-.077z" fill="#eceff1"/><path d="M50.602 41.474v38.49L0 51.32V13.427z" fill="#90a4ae"/><path d="M50.602 42.07l24.096-13.725L24.096 0 0 13.427z" fill="#eceff1"/><path d="M50.602 42.666V79.32q-.301 1.088 1.205.435l21.687-12.324q1.205-.597 1.506-1.79V28.834q-.301-1.086-1.506-.49L51.506 40.876q-.904.597-.904 1.79z" fill="#788f9b"/><path d="M51.944 43.381v33.28q-.274.988 1.094.395l19.691-11.19q1.094-.542 1.367-1.625V30.822q-.273-.986-1.367-.444L52.765 41.755q-.82.542-.82 1.626z" fill="#cfd8dc"/><path d="M53.745 46.148v28.219q-.232.838.928.335l16.696-9.488q.928-.459 1.16-1.378V35.499q-.232-.836-1.16-.377L54.44 44.77q-.696.459-.696 1.378z" fill="#b0bec5"/><path d="M63.513 57.297q3.2-1.591 3.584 2.029.256 4.227-3.412 6.027-2.818 1.031-3.287-1.631-.469-4.227 3.115-6.425z" fill="#cfd8dc"/><use xlink:href="#C" fill="#43a047"/><use xlink:href="#C" x="0.414" y="0.205" fill="#66bb6a"/><g fill="#ff9800"><use xlink:href="#D"/><use xlink:href="#D" y="-2.349"/><use xlink:href="#D" y="-4.662"/></g><g fill="#788f9b"><path d="M34.967 20.705l-3.676 2.103-1.073-.613 9.391-5.371 3 1.715c.89.509 1.325 1.058 1.305 1.647s-.462 1.13-1.326 1.624c-.912.521-1.86.782-2.846.781s-1.939-.264-2.858-.79l-1.915-1.096zm1.013-.579l1.927 1.102c.573.328 1.169.49 1.787.486s1.221-.175 1.812-.512c.56-.32.855-.664.886-1.031s-.214-.706-.733-1.018l-1.988-1.137-3.689 2.11zm7.603 4.985c-.615-.701-.909-1.298-.883-1.792s.366-.928 1.02-1.302c.739-.423 1.607-.626 2.603-.61s1.903.259 2.722.727c.559.319.932.676 1.12 1.068s.183.783-.015 1.172-.558.731-1.078 1.029l-1.078-.617c.569-.326.861-.671.874-1.036s-.265-.711-.835-1.037c-.529-.302-1.076-.461-1.641-.476a2.94 2.94 0 0 0-1.565.387c-.383.219-.567.485-.551.798s.252.724.708 1.237.743.953.86 1.322.092.708-.077 1.015-.491.597-.968.87c-.761.435-1.627.637-2.599.605s-1.888-.294-2.748-.786c-.559-.319-.956-.688-1.193-1.106s-.271-.825-.104-1.221.524-.75 1.07-1.063l1.078.617c-.568.325-.834.685-.8 1.08s.355.767.962 1.114c.566.324 1.133.496 1.701.516s1.082-.102 1.542-.365.676-.547.649-.85-.285-.735-.774-1.295z"/><use xlink:href="#E"/></g><g fill="#b0bec5"><path d="M34.967 19.899l-3.676 2.103-1.072-.613 9.391-5.371 3 1.715c.89.509 1.325 1.058 1.305 1.646s-.462 1.13-1.326 1.624c-.912.521-1.86.782-2.846.781s-1.939-.264-2.858-.79l-1.915-1.096zm1.013-.579l1.927 1.102c.573.328 1.169.49 1.786.486s1.221-.175 1.812-.512c.56-.32.855-.664.886-1.031s-.214-.706-.733-1.018L39.67 17.21l-3.689 2.11zm7.603 4.984c-.615-.701-.909-1.298-.883-1.792s.366-.928 1.02-1.302c.739-.423 1.607-.626 2.603-.61s1.903.259 2.722.727c.559.319.932.675 1.12 1.068s.183.783-.015 1.172-.558.731-1.078 1.029l-1.078-.617c.569-.326.861-.671.874-1.036s-.265-.711-.835-1.037c-.529-.302-1.076-.461-1.641-.476a2.94 2.94 0 0 0-1.565.387c-.383.219-.567.485-.551.798s.252.724.708 1.237.743.953.86 1.322.092.708-.077 1.015-.491.597-.968.87c-.761.435-1.627.637-2.599.605s-1.888-.294-2.748-.786c-.559-.319-.956-.688-1.193-1.107s-.271-.825-.104-1.221.524-.75 1.07-1.063l1.078.617c-.568.325-.834.685-.8 1.081s.355.767.962 1.114c.566.324 1.133.496 1.701.516s1.082-.102 1.542-.365.676-.546.649-.85-.285-.735-.774-1.295z"/><use xlink:href="#E" y="-0.807"/></g></g></symbol><defs ><path id="C" d="M63.557 57.674q2.977-1.48 3.334 1.887.238 3.932-3.174 5.606-2.621.96-3.057-1.517-.437-3.932 2.897-5.976z"/><path id="D" d="M62.896 53.515v1.53l2.496-1.413v-1.53z"/><path id="E" d="M37.966 15.872l-6.385 3.652c-.89.504-1.855.781-2.897.829s-2.007-.142-2.895-.571l-.298-.156c-.89-.509-1.322-1.073-1.296-1.693s.521-1.209 1.485-1.769l6.398-3.659 1.061.607-6.359 3.637c-.68.389-1.045.783-1.098 1.184s.221.772.821 1.115c.607.347 1.258.506 1.955.476s1.384-.239 2.063-.627l6.366-3.641 1.078.616z"/></defs></svg>