<svg xmlns="http://www.w3.org/2000/svg" viewBox="0 0 256 256"><defs><style>.cls-1{fill:#feb555}.cls-2{fill:#fec377}.cls-3{fill:#fed299}.cls-4{fill:#fed298}.cls-5{fill:#fefae3}.cls-6{fill:#b6b520}</style></defs><g id="Layer_2" data-name="Layer 2"><g id="Layer_1-2" data-name="Layer 1"><path d="M256,70V186c-3.29,7.24-9.5,11-16.32,14.39C203.05,218.79,166.55,237.44,130,256h-5l.06-125.91c16.78-8.25,33.55-16.54,50.37-24.74a58.76,58.76,0,0,1,6.46-2.27c0,11,0,22,.15,33,.08,4.68,3.38,7.85,7.43,7.82,3.82,0,6.9-3.09,7.4-7.42A29,29,0,0,0,197,133q0-19.48-.05-39c8.13-3.73,16.29-7.38,24.37-11.21C232.22,77.6,243.09,72.27,254,67Z" class="cls-1"/><path d="M125.06,130.1,125,256h-3c-2.42-1.09-4.91-2.05-7.25-3.29-32.52-17.21-65-34.52-97.54-51.66C10.22,197.36,3.52,193.56,0,186V70l2.06-3c1.84.75,3.75,1.36,5.51,2.26Q33.73,82.81,59.86,96.4,92.46,113.28,125.06,130.1ZM54.61,161.51c-1.73-3.08-3-5.4-4.31-7.67-2.64-4.45-6.58-6-10.39-4-4,2-5.22,6.36-2.81,11.16,2.3,4.6,4.79,9.12,7.42,13.54,3.2,5.39,7,6.25,12.56,3,8.19-4.76,16.31-9.61,24.51-14.35,6.92-4,9-7.89,6.31-12.4S81,146.09,74,150.17C67.71,153.83,61.44,157.51,54.61,161.51Z" class="cls-2"/><path d="M254,67c-10.9,5.26-21.77,10.59-32.71,15.77C213.2,86.61,205,90.26,196.91,94c-2.95-2.12-5.7-4.6-8.88-6.29C161.79,73.74,135.46,60,109.19,46c-12.46-6.6-24.84-13.36-37.26-20,1.57-.92,3.11-1.89,4.71-2.75Q98.3,11.6,120,0h10a3.75,3.75,0,0,0,.75.64C169.06,20,207.42,39.3,245.63,58.88,248.94,60.57,251.23,64.25,254,67Z" class="cls-3"/><path d="M2.06,67c2.55-2.72,4.63-6.28,7.73-8,14.31-8,28.9-15.54,43.43-23.18a18,18,0,0,1,3.78-1,28.48,28.48,0,0,0,3.23,2.27Q119,68.22,177.68,99.35c1.61.86,2.81,2.47,4.21,3.73a58.76,58.76,0,0,0-6.46,2.27c-16.82,8.2-33.59,16.49-50.37,24.74Q92.47,113.26,59.86,96.4,33.7,82.87,7.57,69.29C5.81,68.39,3.9,67.78,2.06,67Z" class="cls-4"/><path d="M181.89,103.08c-1.4-1.26-2.6-2.87-4.21-3.73Q119,68.15,60.23,37.08A28.48,28.48,0,0,1,57,34.81L71.93,26C84.35,32.68,96.73,39.44,109.19,46,135.46,60,161.79,73.74,188,87.7c3.18,1.69,5.93,4.17,8.88,6.29q0,19.49.05,39a29,29,0,0,1-.09,3.49c-.5,4.33-3.58,7.38-7.4,7.42-4.05,0-7.35-3.14-7.43-7.82C181.85,125.06,181.92,114.07,181.89,103.08Z" class="cls-5"/><path d="M54.61,161.51c6.83-4,13.1-7.68,19.38-11.34,7-4.08,11.24-3.88,13.91.64s.61,8.41-6.31,12.4c-8.2,4.74-16.32,9.59-24.51,14.35-5.55,3.22-9.36,2.36-12.56-3-2.63-4.42-5.12-8.94-7.42-13.54-2.41-4.8-1.2-9.12,2.81-11.16,3.81-1.94,7.75-.44,10.39,4C51.64,156.11,52.88,158.43,54.61,161.51Z" class="cls-6"/></g></g></svg>