<svg viewBox="0 0 256 256" xmlns="http://www.w3.org/2000/svg"><path d="m256 70v116c-3.29 7.24-9.5 11-16.32 14.39-36.63 18.4-73.13 37.05-109.68 55.61h-5l.06-125.91c16.78-8.25 33.55-16.54 50.37-24.74a58.76 58.76 0 0 1 6.46-2.27c0 11 0 22 .15 33 .08 4.68 3.38 7.85 7.43 7.82 3.82 0 6.9-3.09 7.4-7.42a29 29 0 0 0 .13-3.48q0-19.48-.05-39c8.13-3.73 16.29-7.38 24.37-11.21 10.9-5.19 21.77-10.52 32.68-15.79z" fill="#feb555"/><path d="m125.06 130.1-.06 125.9h-3c-2.42-1.09-4.91-2.05-7.25-3.29-32.52-17.21-65-34.52-97.54-51.66-6.99-3.69-13.69-7.49-17.21-15.05v-116l2.06-3c1.84.75 3.75 1.36 5.51 2.26q26.16 13.55 52.29 27.14 32.6 16.88 65.2 33.7zm-70.45 31.41c-1.73-3.08-3-5.4-4.31-7.67-2.64-4.45-6.58-6-10.39-4-4 2-5.22 6.36-2.81 11.16 2.3 4.6 4.79 9.12 7.42 13.54 3.2 5.39 7 6.25 12.56 3 8.19-4.76 16.31-9.61 24.51-14.35 6.92-4 9-7.89 6.31-12.4s-6.9-4.7-13.9-.62c-6.29 3.66-12.56 7.34-19.39 11.34z" fill="#fec377"/><path d="m254 67c-10.9 5.26-21.77 10.59-32.71 15.77-8.09 3.84-16.29 7.49-24.38 11.23-2.95-2.12-5.7-4.6-8.88-6.29-26.24-13.97-52.57-27.71-78.84-41.71-12.46-6.6-24.84-13.36-37.26-20 1.57-.92 3.11-1.89 4.71-2.75q21.66-11.65 43.36-23.25h10a3.75 3.75 0 0 0 .75.64c38.31 19.36 76.67 38.66 114.88 58.24 3.31 1.69 5.6 5.37 8.37 8.12z" fill="#fed299"/><path d="m2.06 67c2.55-2.72 4.63-6.28 7.73-8 14.31-8 28.9-15.54 43.43-23.18a18 18 0 0 1 3.78-1 28.48 28.48 0 0 0 3.23 2.27q58.77 31.13 117.45 62.26c1.61.86 2.81 2.47 4.21 3.73a58.76 58.76 0 0 0 -6.46 2.27c-16.82 8.2-33.59 16.49-50.37 24.74q-32.59-16.83-65.2-33.69-26.16-13.53-52.29-27.11c-1.76-.9-3.67-1.51-5.51-2.29z" fill="#fed298"/><path d="m181.89 103.08c-1.4-1.26-2.6-2.87-4.21-3.73q-58.68-31.2-117.45-62.27a28.48 28.48 0 0 1 -3.23-2.27l14.93-8.81c12.42 6.68 24.8 13.44 37.26 20 26.27 14 52.6 27.74 78.81 41.7 3.18 1.69 5.93 4.17 8.88 6.29q0 19.49.05 39a29 29 0 0 1 -.09 3.49c-.5 4.33-3.58 7.38-7.4 7.42-4.05 0-7.35-3.14-7.43-7.82-.16-11.02-.09-22.01-.12-33z" fill="#fefae3"/><path d="m54.61 161.51c6.83-4 13.1-7.68 19.38-11.34 7-4.08 11.24-3.88 13.91.64s.61 8.41-6.31 12.4c-8.2 4.74-16.32 9.59-24.51 14.35-5.55 3.22-9.36 2.36-12.56-3-2.63-4.42-5.12-8.94-7.42-13.54-2.41-4.8-1.2-9.12 2.81-11.16 3.81-1.94 7.75-.44 10.39 4 1.34 2.25 2.58 4.57 4.31 7.65z" fill="#b6b520"/></svg>