<?xml version="1.0" encoding="utf-8"?>
<!-- Generator: Adobe Illustrator 26.3.1, SVG Export Plug-In . SVG Version: 6.00 Build 0)  -->
<svg version="1.1" id="Layer_1" xmlns:serif="http://www.serif.com/"
	 xmlns="http://www.w3.org/2000/svg" xmlns:xlink="http://www.w3.org/1999/xlink" x="0px" y="0px" viewBox="0 0 512 512"
	 style="enable-background:new 0 0 512 512;" xml:space="preserve">
<style type="text/css">
	
		.st0{fill-rule:evenodd;clip-rule:evenodd;fill:#5BDAFD;stroke:#341B06;stroke-width:2.186;stroke-linecap:round;stroke-linejoin:round;stroke-miterlimit:10;}
	.st1{fill-rule:evenodd;clip-rule:evenodd;fill:#341B06;}
	.st2{fill-rule:evenodd;clip-rule:evenodd;fill:#FFFFFF;}
	.st3{fill-rule:evenodd;clip-rule:evenodd;fill:#55BCD9;}
	
		.st4{fill-rule:evenodd;clip-rule:evenodd;fill:#FBF8D7;stroke:#341B06;stroke-width:2.186;stroke-linecap:round;stroke-linejoin:round;stroke-miterlimit:10;}
	.st5{fill:none;stroke:#341B06;stroke-width:1.5898;stroke-linecap:round;stroke-linejoin:round;stroke-miterlimit:10;}
	
		.st6{fill-rule:evenodd;clip-rule:evenodd;fill:#FFFFFF;stroke:#341B06;stroke-width:2.186;stroke-linecap:round;stroke-linejoin:round;stroke-miterlimit:10;}
	.st7{fill:none;stroke:#341B06;stroke-width:1.6296;stroke-linecap:round;stroke-linejoin:round;stroke-miterlimit:10;}
	.st8{fill-rule:evenodd;clip-rule:evenodd;fill:#FFBAAB;}
	.st9{fill-rule:evenodd;clip-rule:evenodd;fill:#957240;}
	.st10{fill-rule:evenodd;clip-rule:evenodd;fill:#D4A35C;}
	.st11{fill:none;stroke:#341B06;stroke-width:2.186;stroke-linecap:round;stroke-linejoin:round;stroke-miterlimit:10;}
	.st12{clip-path:url(#SVGID_00000140015582116606216990000002395103499774312597_);}
	.st13{fill:#55BCD9;}
	.st14{fill:#FFFFFF;}
	.st15{font-family:'Calibri-Bold';}
	.st16{font-size:8.153px;}
	.st17{fill-rule:evenodd;clip-rule:evenodd;fill:#FBF8D7;}
</style>
<g id="UpSnap-Gopher" serif:id="UpSnap Gopher">
	<g id="Ear-Right" serif:id="Ear Right">
		<path class="st0" d="M356.2,43.4c-1.3-9.1,12.6-28.1,31.4-26.2c18.8,2,26.2,16.4,25.1,27.4c-1,10.9-9.5,24.9-18.9,27.4
			S357.5,52.5,356.2,43.4z"/>
		<path id="inside" class="st1" d="M397,44.7c0.4,0,1.3,4.9-0.4,6.4c-1.9,1.7-7.5,6.9-11.5,7.3c-4,0.4-9.1-0.9-8-6.7
			c1.1-5.8,2.7-5.3,4.1-1.8c1.4,3.5,2.2,5.7,8,2.5C395,49.2,395.8,44.7,397,44.7z"/>
		<path id="light" class="st2" d="M382.1,20.2c0,0,10.6,1.9,18.7,10.9c4.6,5.1,8,15.2,4.9,25.6c5.6-7.4,6.7-21.3-2.4-29.8
			C393.7,18,382.1,20.2,382.1,20.2z"/>
	</g>
	<g id="Body">
		<path id="Body1" serif:id="Body" class="st0" d="M246,3c-22.6,1.2-97.9,2.6-150.4,70.6C57.6,122.8,59,196.1,61,265.1
			c2,72.4,15.2,146.1,33,176.3c18.5,31.4,52.6,42.3,73.4,44.5c50.3,5.3,103.2,6.3,149-0.2c45.2-6.3,86.1-20.1,109.8-51
			c20.4-26.5,24.3-44.8,22.5-99c-1-30.6-7.8-52.4-8.1-81.3c-0.3-35.3-3.5-74.5-10.1-97.7c-13.4-47-24.6-74.3-59.4-108.7
			C335.9,13.3,285.3,1,246,3z"/>
		<path id="Shadow-Left" serif:id="Shadow Left" class="st3" d="M100,73c-8.2,41.4-11.1,109.2-6.6,181.9
			c4.5,73.7,18.7,136.5,40.8,175.6c20.1,35.6,44.3,49.9,59.5,54.9c-17.8-1.3-37.1-2.6-52.7-8.6c-26.5-10.2-45.3-27.4-57.1-67.8
			c-8.9-30.4-17.2-78.8-20.3-157.3c-2.2-56,0.1-101.1,14.1-138.1C84.7,94.8,93.2,80.6,100,73z"/>
		<path id="light1" serif:id="light" class="st2" d="M311.6,15.5c4,1.2,31.1,10.2,51.7,29c20.6,18.8,39.9,43.8,48.4,64.9
			c8.5,21.1,23.3,57.1,25.3,115.6c1.5,38,2.4,52.8,4.4,68.3c4.5,32.9,11.9,96.4-6.7,123.4c9.9-34.9,9-67.7,7.2-86.9
			c-1.8-19.9-8.4-58.9-9.2-89.1c-0.8-28.3-1.5-58.4-13.2-97.9c-12.4-42-23.8-61.8-51.8-88.5C343.6,31.4,323.1,19.8,311.6,15.5z"/>
	</g>
	<g id="Ear-Left" serif:id="Ear Left">
		<path class="st0" d="M79.1,50.8c-9.4,0.8-22.9,8.2-25.3,21.8c-2.6,15.3,1.7,26.1,16.9,35.4c10.5,6.4,29.3-2.7,36.7-14.6
			c8.3-13.3,1.3-27.7-3.9-33.3C98.2,54.6,90.4,49.8,79.1,50.8z"/>
		<g id="light2" transform="matrix(0.989123,0,0,0.989123,4.25244,5.1511)" serif:id="light">
			<path class="st2" d="M100.7,60.4c-8.8-11.7-19.3-11.9-25.6-11.1c6.4,1.3,16.8,6.7,21.7,14.3c4.7,7.2,6.1,22.8,1.3,28.9
				C108.3,82,106.2,67.8,100.7,60.4z"/>
		</g>
		<path class="st1" d="M77.8,81.4c0,0,1,7.1,5.8,6.9c5.4-0.2,6.5-6.8,7.9-6.7c1.8,0.2,0,6-1.8,7.8c-1.8,1.8-7.4,3.8-11.2,0.5
			c-3.9-3.3-3.9-5.4-3.1-6.6C76.1,82.3,77.8,81.4,77.8,81.4z"/>
	</g>
	<g id="Foot-Right" serif:id="Foot Right">
		<path class="st4" d="M389.5,465.4c0,0,25.2,2.3,32.4,7.8c6.2,4.7,4.1,14.9-11.8,17.5c-15.7,2.6-48.7-8.7-53.5-12.9
			C366.4,475.3,389.5,465.4,389.5,465.4z"/>
		<path class="st5" d="M423.7,483.5c0,0-7.6-1.3-10.2-2.8"/>
	</g>
	<g id="Foot-Left" transform="matrix(-1,0,0,1,2185.49,67.7977)" serif:id="Foot Left">
		<path class="st4" d="M2033.5,415.7c0,0,24.2,2.8,31.4,8.3c6.2,4.7,4.1,14.9-11.8,17.5c-15.7,2.6-50.4-16.8-55.1-21.1
			C2009.7,419.7,2033.5,415.7,2033.5,415.7z"/>
		<path class="st5" d="M2064.3,434.9c0,0-6.2-3.5-9.4-4.1"/>
	</g>
	<g id="Eye-Left" serif:id="Eye Left">
		<path id="Eye" class="st6" d="M239.1,118.6c0.3-26.5-24.4-39.9-40.5-39.2c-19.3,0.8-39.1,15-38.9,40.2c0.2,20,15.7,38.3,39.8,38.4
			C224.1,158.1,238.9,136.2,239.1,118.6z"/>
		<g id="Eyeball" transform="matrix(1.51613,0,0,1.61404,-594.349,-371.989)">
			<ellipse class="st1" cx="514" cy="298.8" rx="5.2" ry="4.8"/>
		</g>
	</g>
	<g id="Eye-Right" serif:id="Eye Right">
		<path class="st6" d="M354.2,68.4c-22,0-40.3,14.7-40.3,36.7s15.5,39.5,39.9,39.5c24.4,0,39.2-20.7,39.2-39.5
			S374.7,68.4,354.2,68.4z"/>
		<g transform="matrix(0.730769,0,0,0.764706,368.924,106.009)">
			<ellipse class="st1" cx="-3.4" cy="-2.2" rx="10.8" ry="10.6"/>
		</g>
	</g>
	<g id="Mouth">
		<path class="st6" d="M264.1,176c0,0-0.6,34.1,3.7,35.2c4.3,1,34.3-0.7,34.4-4.8c0.1-4.2-3.3-29.2-4.4-31.9
			C296.5,171.7,264.1,176,264.1,176z"/>
		<path class="st7" d="M281.4,178.2c0,0,1.3,13.7,1.6,16.6c0.5,4.6,1.4,13.1,1.7,15.7"/>
		<path class="st4" d="M278,134.7c-13.1,0.2-31,6.4-36,18.9c-4,10,4.4,24.1,35,24.6c30.6,0.5,38.9-12.5,37.9-22
			C314,146.3,302.5,134.3,278,134.7z"/>
	</g>
	<g id="Blush">
		<path class="st8" d="M177.1,163.7c-8.7,0.2-15.8,6.5-15.7,11.7c0.2,5.3,8.1,11.3,17.5,11.3c9.4-0.1,18.6-4.9,17.7-12.3
			C195.7,166.9,188,163.5,177.1,163.7z"/>
		<path class="st8" d="M378.3,144.7c-5.2,0.7-13.6,4.3-13.7,9c-0.1,5.3,5,10.1,13.6,11c10.1,1.2,18-2.2,19.4-7.4
			c1.4-5.1-1.8-10.4-5.2-11.6C388.6,144.4,383.4,144.1,378.3,144.7z"/>
	</g>
	<g id="Package">
		<path id="Fill-brown-darker" serif:id="Fill brown darker" class="st9" d="M272.4,190.8l63.4,22.2l-1.3,115.7l-63.2-26.3
			L272.4,190.8z"/>
		<path id="Fill-brown" serif:id="Fill brown" class="st10" d="M274.3,189.4l95.4-8l58.4,23.4l-2,114.9l-91.2,8.9l1.2-114.9
			L274.3,189.4z"/>
		<path id="Package-outline" serif:id="Package outline" class="st11" d="M369.8,181.7c2.8,0.2,56.7,21.1,57.6,23.1
			c1.3,2.8,0.4,113.2-1.6,114.8c-1.4,1.1-87.2,9.8-90.9,9.5c-3.3-0.3-62.6-25.3-63.2-26c-0.9-1,0-113.8,1-115
			C273.5,187.1,366.9,181.5,369.8,181.7z"/>
		<path id="Line-left" serif:id="Line left" class="st11" d="M272.8,191.1l62.8,22l-0.7,115"/>
		<path id="Line-Top" serif:id="Line Top" class="st11" d="M335.3,213.3l90.6-7.4"/>
	</g>
	<g id="QR">
		<path class="st2" d="M345.2,262.8l0.3,50.8l47.5-3.9l0.1-52L345.2,262.8z"/>
		<g id="QR1" transform="matrix(0.172421,-0.0174752,-0.000604188,0.174254,1448.49,1167.64)" serif:id="QR">
			<g transform="matrix(1,0,0,1,-531.875,-620.52)">
				<g>
					<defs>
						<polygon id="SVGID_1_" points="-5894.3,-5221.8 -5601.5,-5221.8 -5601.5,-4880.2 -5894.3,-4880.2 						"/>
					</defs>
					<clipPath id="SVGID_00000135669044667775001860000002089858140639985296_">
						<use xlink:href="#SVGID_1_"  style="overflow:visible;"/>
					</clipPath>
					<g style="clip-path:url(#SVGID_00000135669044667775001860000002089858140639985296_);">
						<g id="Ebene-1" serif:id="Ebene 1">
							<g transform="matrix(1,0,0,1,1019.43,265.936)">
								<path class="st13" d="M-6633.2-5219.4c0,7.3-6.1,12.2-12.2,12.2l-244,0c-7.3,0-12.2-6.1-12.2-12.2v-244
									c0-7.3,6.1-12.2,12.2-12.2h244c7.3,0,12.2,6.1,12.2,12.2V-5219.4z M-6636.8-5487.7h-261.1c-8.5,0-15.9,7.3-15.9,15.9
									l0,308.6c0,9.8,7.3,17.1,15.9,17.1l259.8,0c8.5,0,15.9-7.3,15.9-15.9l0-309.8C-6621-5480.4-6628.3-5487.7-6636.8-5487.7"/>
							</g>
							<g transform="matrix(5.80179,0.581837,0.0201165,5.74078,-7895.47,-6925.41)">
								<g>
									
										<image style="overflow:visible;enable-background:new    ;" width="185" height="235" id="_Image2" xlink:href="9B6043F2.png"  transform="matrix(0.2752 0 0 0.2752 343.8081 256.7736)">
									</image>
								</g>
							</g>
							<g transform="matrix(1,0,0,1,244.375,212.173)">
								<path d="M-6071.4-5389.5v13.9c0,4.7-4.1,8.9-8.9,8.9h-13.9c-5.1,0-8.9-3.8-8.9-8.9v-13.9c0-4.7,4.1-8.9,8.9-8.9h13.9
									C-6075.2-5398.4-6071.4-5394.6-6071.4-5389.5 M-6095.2-5360.4h16.1c7.6,0,13.9-6.3,13.9-13.9v-16.1
									c0-7.9-6.3-14.2-14.2-14.2h-16.1c-7.6,0-13.9,6.3-13.9,13.9v16.1C-6109.4-5366.7-6103.1-5360.4-6095.2-5360.4"/>
							</g>
							<g transform="matrix(1,0,0,1,221.375,201.823)">
								<path d="M-6054.7-5376.3v8.5c0,2.5-2.5,5.1-5.4,5.1h-8.2c-3.2,0-5.4-2.2-5.4-5.4v-8.2c0-2.8,2.5-5.4,5.4-5.4h8.5
									C-6057-5381.7-6054.7-5379.5-6054.7-5376.3"/>
							</g>
							<g transform="matrix(1,0,0,1,934.375,212.173)">
								<path d="M-6571.5-5389.5v13.9c0,4.7-4.1,8.9-8.9,8.9h-13.9c-5.1,0-8.9-3.8-8.9-8.9v-13.9c0-4.7,4.1-8.9,8.9-8.9h13.9
									C-6575.3-5398.4-6571.5-5394.6-6571.5-5389.5 M-6595.3-5360.4h16.1c7.6,0,13.9-6.3,13.9-13.9v-16.1
									c0-7.9-6.3-14.2-14.2-14.2h-16.1c-7.6,0-13.9,6.3-13.9,13.9v16.1C-6609.5-5366.7-6603.2-5360.4-6595.3-5360.4"/>
							</g>
							<g transform="matrix(1,0,0,1,911.375,201.823)">
								<path d="M-6554.8-5376.3v8.5c0,2.5-2.5,5.1-5.4,5.1h-8.2c-3.2,0-5.4-2.2-5.4-5.4v-8.2c0-2.8,2.5-5.4,5.4-5.4h8.5
									C-6557.1-5381.7-6554.8-5379.5-6554.8-5376.3"/>
							</g>
							<g transform="matrix(1,0,0,1,244.375,902.173)">
								<path d="M-6071.4-5889.6v13.9c0,4.7-4.1,8.9-8.9,8.9h-13.9c-5.1,0-8.9-3.8-8.9-8.9v-13.9c0-4.7,4.1-8.9,8.9-8.9h13.9
									C-6075.2-5898.5-6071.4-5894.7-6071.4-5889.6 M-6095.2-5860.5h16.1c7.6,0,13.9-6.3,13.9-13.9v-16.1
									c0-7.9-6.3-14.2-14.2-14.2h-16.1c-7.6,0-13.9,6.3-13.9,13.9v16.1C-6109.4-5866.8-6103.1-5860.5-6095.2-5860.5"/>
							</g>
							<g transform="matrix(1,0,0,1,221.375,891.823)">
								<path d="M-6054.7-5876.4v8.5c0,2.5-2.5,5.1-5.4,5.1h-8.2c-3.2,0-5.4-2.2-5.4-5.4v-8.2c0-2.8,2.5-5.4,5.4-5.4h8.5
									C-6057-5881.8-6054.7-5879.6-6054.7-5876.4"/>
							</g>
							<g transform="matrix(1,0,0,1,195.438,-16.4159)">
								<g transform="matrix(170,0,0,170,661.911,1196.17)">
								</g>
								<text transform="matrix(5.7387 0 0 5.7387 -6034.0723 -4880.6772)" class="st14 st15 st16">P</text>
								<text transform="matrix(5.7387 0 0 5.7387 -6012.3384 -4880.6772)" class="st14 st15 st16">A</text>
								<text transform="matrix(5.7387 0 0 5.7387 -5984.541 -4880.6885)" class="st14 st15 st16">C</text>
								<text transform="matrix(5.7387 0 0 5.7387 -5959.7754 -4880.6772)" class="st14 st15 st16">K</text>
								<text transform="matrix(5.7387 0 0 5.7387 -5934.1929 -4880.6772)" class="st14 st15 st16">A</text>
								<text transform="matrix(5.7387 0 0 5.7387 -5906.4067 -4880.6772)" class="st14 st15 st16">G</text>
								<text transform="matrix(5.7387 0 0 5.7387 -5876.5981 -4880.6772)" class="st14 st15 st16">E</text>
							</g>
						</g>
					</g>
				</g>
			</g>
		</g>
	</g>
	<g id="Arm-Left" serif:id="Arm Left">
		<path id="Fill" class="st17" d="M179.9,253.5c0,0,48.2,16,63.2,18.9c8.6,1.7,19.7-2.7,25.3-0.4c4.9,2,8.7,8.8,8.5,13.8
			c-0.2,5-4.1,13.3-9,16.7c-5.8,4.1-25.7,7.8-25.7,7.8l-34.3-2.5l-46.1-15.2l-29.6-18.7C147.9,270.6,164.1,265,179.9,253.5z"/>
		<path id="Outline" class="st11" d="M179.4,254.1c0,0,42.9,18.3,63.7,18.3c14.2,0,27.9-5.4,31.4,5.6c5.3,16.7-6.4,27-17.6,29.2
			c-20.6,4-46.1,2.9-70.7-5.6s-38.7-15-52.9-26.2"/>
		<path class="st5" d="M275.7,283.8c0,0-4.5,3.7-13.5,3.6"/>
	</g>
	<g id="Arm-Right" serif:id="Arm Right">
		<path id="Fill1" serif:id="Fill" class="st4" d="M427.8,217.7c0,0,30.7,9.2,31.1,33.1c-0.7,19.5-12.6,30.6-31.6,36.3
			c-22.1-0.6-16.7-24.9,0.4-33.2C427.8,246.2,427.8,217.7,427.8,217.7z"/>
		<path class="st5" d="M415,276.1c0,0,6.3-1,10.8-3.3"/>
	</g>
</g>
</svg>
