<svg height="640" preserveAspectRatio="xMidYMid meet" viewBox="0 0 640 640" width="640" xmlns="http://www.w3.org/2000/svg" xmlns:xlink="http://www.w3.org/1999/xlink"><defs><linearGradient id="a" gradientUnits="userSpaceOnUse" x1="256.07" x2="609.11" y1="1132.14" y2="1480.42"><stop offset="0" stop-color="#c2efd2"/><stop offset="1" stop-color="#8ff0e5"/></linearGradient><path id="b" d="m-96.99-586.14c39.75-33.71 91.2-18.61 116.25 5.68 12.17 11.8 37.31 34.1 21.71 88.79-8.21 28.8-30.56 55.27-67.02 79.4 10.98 34.42 20.45 67.51 28.41 99.27 11.93 47.64 11.19 123.33-28.41 157.6-41.22 35.67-140.86 51.31-208.19 52.31-67.33.99-171.95-10-227.36-52.31-55.41-42.3-50.64-101.67-36.44-157.6 9.46-37.28 21.61-70.38 36.44-99.27-43.94-29.03-68.94-55.49-75-79.4-9.08-35.87 5.67-73.94 35.48-94.47s65.94-20.76 100.67 0c23.15 13.84 45.66 44.01 67.53 90.52 45.07-9.63 77.96-13.95 98.68-12.98 19.5.92 47.67 5.24 84.52 12.98 13.91-42.33 31.49-72.5 52.73-90.52z"/><linearGradient id="c" gradientUnits="userSpaceOnUse" x1="-440.25" x2="-100.49" y1="-388.59" y2="-147.33"><stop offset="0" stop-color="#5cdd8b"/><stop offset="1" stop-color="#7ae6a1"/></linearGradient><path id="d" d="m-86.03-10.69c24.68 0 44.69 20.01 44.69 44.7v380.64c0 24.68-20.01 44.69-44.69 44.69-49.98 0-155.22 0-205.2 0-24.69 0-44.7-20.01-44.7-44.69 0-85.07 0-295.58 0-380.64 0-24.69 20.01-44.7 44.7-44.7z"/><linearGradient id="e" gradientUnits="userSpaceOnUse" x1="-791.65" x2="892.1" y1="-33.27" y2="418.94"><stop offset="0" stop-color="#5cdd8b"/><stop offset="1" stop-color="#5ae98f"/></linearGradient><path id="f" d="m-257.95 458.12c10.03-8.5 23.02-4.69 29.34 1.44 3.07 2.98 9.42 8.61 5.48 22.41-2.07 7.27-7.71 13.95-16.92 20.04 2.78 8.69 5.17 17.05 7.17 25.06 3.02 12.03 2.83 31.14-7.17 39.79-10.4 9-35.55 12.95-52.55 13.2s-43.41-2.52-57.39-13.2c-13.99-10.68-12.78-25.67-9.2-39.79 2.39-9.41 5.46-17.76 9.2-25.06-11.09-7.32-17.4-14-18.93-20.04-2.3-9.05 1.43-18.66 8.95-23.85 7.53-5.18 16.65-5.24 25.41 0 5.85 3.5 11.53 11.11 17.05 22.85 11.38-2.43 19.68-3.52 24.91-3.27 4.92.23 12.04 1.32 21.34 3.27 3.51-10.68 7.94-18.3 13.31-22.85z"/><path id="g" d="m490.4 235.64c53.69 122.74 53.69 199.7 0 230.86-80.55 46.74-290.44 60.99-350.86-10.86-40.28-47.9-40.28-121.24 0-220 40.96-67.46 99.17-101.19 174.63-101.19 75.47 0 134.21 33.73 176.23 101.19z"/><linearGradient id="h"><stop offset="0" stop-color="#5cdd8b"/><stop offset="1" stop-color="#86e6a9"/></linearGradient><linearGradient id="i" gradientUnits="userSpaceOnUse" x1="259.78" x2="463.85" xlink:href="#h" y1="261.15" y2="456.49"/><linearGradient id="j" gradientUnits="userSpaceOnUse" x1="330.1" x2="419.69" xlink:href="#h" y1="-733.26" y2="-707.1"/><linearGradient id="k" gradientUnits="userSpaceOnUse" x1="605.5" x2="630.64" xlink:href="#h" y1="-400.8" y2="-310.92"/></defs><path d="m407.55 916.24c63.7 0 115.34 51.64 115.34 115.33v296.17c0 63.7-51.64 115.34-115.34 115.34-82.3 0-213.87 0-296.17 0-63.69 0-115.33-51.64-115.33-115.34 0-82.3 0-213.86 0-296.17 0-63.69 51.64-115.33 115.33-115.33z" fill="url(#a)"/><path d="m-467.41 394.63c0 160.13-130.01 290.13-290.14 290.13s-290.14-130-290.14-290.13 130.01-290.14 290.14-290.14 290.14 130.01 290.14 290.14z" fill="#ebf0ed"/><use fill="url(#c)" xlink:href="#b"/><use fill="none" stroke="#fff" stroke-opacity=".57" stroke-width="98" xlink:href="#b"/><use fill="url(#e)" xlink:href="#d"/><use fill="none" stroke="#f2f2f2" stroke-opacity=".51" stroke-width="60" xlink:href="#d"/><use fill="#d8ad9a" xlink:href="#f"/><use fill="none" stroke="#fff" stroke-width="17" xlink:href="#f"/><use fill="url(#i)" xlink:href="#g"/><use fill="none" stroke="#f2f2f2" stroke-opacity=".51" stroke-width="200" xlink:href="#g"/><path d="m393.81-775.89c34.45 27.8 46.18 50.35 35.19 67.67-16.49 25.98-75.84 62.15-104.5 50.29-19.11-7.9-30.28-29.39-33.53-64.48 1.72-26.02 13.64-44.78 35.76-56.28s44.48-10.57 67.08 2.8z" fill="url(#j)"/><path d="m675.36-369.24c-5.39 43.93-18.34 65.81-38.85 65.63-30.77-.26-92.84-31.54-97.92-62.13-3.39-20.4 8.95-41.25 37.02-62.55 23-12.29 45.22-12.08 66.68.62 21.45 12.7 32.48 32.18 33.07 58.43z" fill="url(#k)"/></svg>