<?xml version="1.0" encoding="UTF-8"?>
<svg xmlns="http://www.w3.org/2000/svg" id="Layer_2" data-name="Layer 2" viewBox="0 0 100 95">
  <defs>
    <style>.cls-2{fill:#52aeff}</style>
  </defs>
  <g id="Layer_1-2" data-name="Layer 1">
    <path d="M46.87 90.08c-3.06-4.86-3.48-5.49-4.31-6.47-.54-.64-2.36-2.45-3.13-3.13-3.15-2.77-6.35-5.07-12.59-9.08a72.181 72.181 0 0 1-7.54-5.6c-1.67-1.43-4.21-3.9-5.6-5.43C4.69 50.42 0 38.69 0 26.11c0-7.19 1.5-14.19 4.46-20.73C5.4 3.28 7.23-.08 7.37 0c.73.42 11.87 7.25 11.87 7.28 0 .02-.21.41-.47.87a36.128 36.128 0 0 0-4.4 22.99c1.41 9.89 7.24 19.01 16.7 26.12 1.36 1.02 2.27 1.65 4.05 2.79 3.75 2.41 5.9 3.88 8.53 5.83 2.35 1.75 3.85 2.98 6.09 5.01l.26.24.19-.17c4.63-4.19 7.97-6.6 15.02-11.13 7.82-5.02 13.57-11.11 17.04-18.04 3-5.99 4.21-12.51 3.57-19.15A36.07 36.07 0 0 0 81.2 8.09c-.25-.44-.45-.81-.45-.83 0-.02.45-.3.99-.63C82.89 5.93 92.43.11 92.58.01c.1-.06.12-.04.51.62C97.65 8.4 100 17.08 100 26.12c0 12.01-4.35 23.38-12.6 32.98a67.437 67.437 0 0 1-6.13 6.18c-2.73 2.4-5.32 4.32-9.02 6.69-8.15 5.23-13.02 9.17-15.63 12.65-.22.29-1.79 2.74-3.49 5.44-1.7 2.7-3.11 4.92-3.13 4.92s-1.43-2.21-3.13-4.92Z" style="fill:#0076ff"></path>
    <path class="cls-2" d="M48.85 57.65c-3.58-1.63-7.42-3.82-10.59-6.04-4.42-3.09-7.68-6.23-9.84-9.46-2.13-3.19-3.13-6.47-2.99-9.8.16-3.81.96-6.99 2.6-10.28a23.22 23.22 0 0 1 2.79-4.39c4-5 9.79-8.26 16.11-9.05 1.77-.22 4.19-.24 5.89-.03 7.54.9 14.11 5.1 18.12 11.58.57.92 1.51 2.8 1.91 3.8 1.06 2.7 1.61 5.36 1.73 8.43.25 6.21-3.51 12.26-11.23 18.04-2.82 2.12-5.69 3.91-9.17 5.74-1.4.74-4.01 1.96-4.17 1.95-.04 0-.56-.21-1.15-.48Zm2.07-8.99c3.13-1.67 6.14-3.62 8.54-5.54 3.97-3.17 6.35-6.3 6.86-9.01.12-.62.08-2.4-.08-3.4-.73-4.76-3.28-8.77-7.25-11.42-2.05-1.36-4.39-2.23-6.97-2.59-.91-.12-3.14-.13-4.03 0-2.05.28-3.57.75-5.35 1.64-4.57 2.28-7.84 6.64-8.8 11.72-.25 1.35-.33 3.23-.17 4.08.81 4.32 6.52 9.73 15.25 14.43.58.31 1.06.57 1.07.57.01 0 .43-.22.93-.48Z"></path>
    <path class="cls-2" d="M49.05 41.71c-1.65-.19-3.34-.87-4.71-1.9-.52-.39-1.48-1.35-1.86-1.86-.9-1.2-1.54-2.68-1.81-4.14-.11-.63-.16-2.19-.08-2.84.35-2.84 1.88-5.33 4.23-6.89 1.19-.79 2.37-1.25 3.8-1.5.7-.12 2.02-.12 2.75 0 4.18.69 7.38 3.97 8 8.19.1.67.1 2 0 2.69-.39 2.76-1.91 5.17-4.25 6.73-1.76 1.17-4.06 1.75-6.08 1.52Z"></path>
  </g>
</svg>
