<?xml version="1.0" encoding="utf-8"?>
<!-- Generator: Adobe Illustrator 27.7.0, SVG Export Plug-In . SVG Version: 6.00 Build 0)  -->
<svg version="1.1" id="Layer_1" xmlns="http://www.w3.org/2000/svg" xmlns:xlink="http://www.w3.org/1999/xlink" x="0px" y="0px"
	 viewBox="0 0 512 512" style="enable-background:new 0 0 512 512;" xml:space="preserve">
<style type="text/css">
	.st0{fill-rule:evenodd;clip-rule:evenodd;fill:#123678;}
</style>
<g id="Group-copy">
	<path id="Path" class="st0" d="M126.1,431.2l-91.7-57.4V128.6L258.7,0l218.9,128.8v258L255.2,512l-77.2-48.3V360.3v-14.1L136.2,320
		V187l121.2-69.5l118.4,69.7v139.4L282,379.4v-56.1c28.1-10.8,48.3-38.6,48.3-71.5c0-42.3-33.5-76.3-74.3-76.3
		c-40.8,0-74.3,34-74.3,76.3c0,32.8,20.2,60.6,48.3,71.5v106.3l26.8,16.8l164.4-92.6V161.1L258.3,65.3l-167.5,96v181.3l35.3,22.1
		V431.2z M256,216.7c18.5,0,33.1,15.9,33.1,35.1c0,19.1-14.6,35.1-33.1,35.1c-18.5,0-33.1-15.9-33.1-35.1
		C222.9,232.6,237.5,216.7,256,216.7z"/>
</g>
</svg>
