<?xml version="1.0" encoding="utf-8"?>
<!-- Generator: Adobe Illustrator 27.7.0, SVG Export Plug-In . SVG Version: 6.00 Build 0)  -->
<svg version="1.1" id="Layer_1" xmlns="http://www.w3.org/2000/svg" xmlns:xlink="http://www.w3.org/1999/xlink" x="0px" y="0px"
	 viewBox="0 0 512 512" style="enable-background:new 0 0 512 512;" xml:space="preserve">
<g>
	<path d="M40.6,65.6l174.1,156.7c23.9,21.5,60.1,21.4,83.9-0.1L471.4,65.6C506.7,32.8,408.6,0.2,256.8,0h-0.3H256h-0.5h-0.3
		C103.5,0.2,5.3,32.8,40.6,65.6z M33.4,195.6l181.3,163.2c23.9,21.5,60.1,21.4,83.9-0.1l180.1-163.1v-71.2L289.4,295.8
		c-18.6,16.9-46.9,16.9-65.5,0.1L33.4,124.4V195.6z M214.7,495.9L43.8,342c-6.7-5.9-10.4-14.5-10.4-23.4v-57.1L224,433.1
		c18.6,16.8,46.9,16.8,65.5-0.1l189.2-171.4v57.2c0,8.8-3.7,17.3-10.3,23.3L298.5,495.9C274.8,517.3,238.6,517.4,214.7,495.9z"/>
</g>
</svg>
