<svg xmlns="http://www.w3.org/2000/svg" width="256" height="256"><path d="M27.194 128.873c-7.592-.031-22.642-19.675-22.631-22.216.007-1.58 15.101 9.822 22.685 9.854 7.61.031 22.903-11.247 22.896-9.665-.01 2.54-15.348 22.059-22.95 22.027z" style="fill:#58cc00;fill-opacity:1;fill-rule:nonzero;stroke:none;stroke-width:.41678113;stroke-linecap:round;stroke-linejoin:miter;stroke-miterlimit:4;stroke-opacity:1" transform="translate(-7.562 -72.567) scale(1.88475)"/><path d="M116.657 83.958c7.592.032 22.642 19.675 22.631 22.217-.007 1.58-15.101-9.823-22.685-9.854-7.61-.032-22.903 11.246-22.896 9.665.01-2.54 15.348-22.06 22.95-22.028z" style="fill:#005ebd;fill-opacity:1;fill-rule:nonzero;stroke:none;stroke-width:.41678113;stroke-linecap:round;stroke-linejoin:miter;stroke-miterlimit:4;stroke-opacity:1" transform="translate(-7.562 -72.567) scale(1.88475)"/><path d="M106.278 70.013c7.145-2.567 28.006 10.745 28.865 13.137.534 1.486-17.55-4.066-24.687-1.501-7.162 2.573-17.676 18.401-18.21 16.913-.858-2.39 6.878-25.978 14.032-28.549zm-68.705 72.805c-7.145 2.567-28.006-10.745-28.865-13.136-.534-1.487 17.55 4.065 24.687 1.5 7.162-2.573 17.676-18.401 18.21-16.913.858 2.39-6.878 25.979-14.032 28.549z" style="fill:#005ebd;fill-opacity:1;fill-rule:nonzero;stroke:none;stroke-width:.41678113;stroke-linecap:round;stroke-linejoin:miter;stroke-miterlimit:4;stroke-opacity:1" transform="translate(-7.562 -72.567) scale(1.88475)"/><path d="M91.756 60.46c5.836-4.856 29.992.517 31.617 2.471 1.01 1.215-17.882 2.183-23.712 7.033-5.85 4.868-10.315 23.338-11.327 22.122-1.623-1.953-2.422-26.764 3.422-31.627zm-39.661 91.912c-5.836 4.856-29.992-.518-31.617-2.472-1.01-1.214 17.882-2.182 23.712-7.033 5.85-4.867 10.315-23.337 11.327-22.121 1.623 1.952 2.421 26.764-3.422 31.626z" style="fill:#005ebd;fill-opacity:1;fill-rule:nonzero;stroke:none;stroke-width:.41678113;stroke-linecap:round;stroke-linejoin:miter;stroke-miterlimit:4;stroke-opacity:1" transform="translate(-7.562 -72.567) scale(1.88475)"/><path d="M74.842 56.448c3.824-6.559 28.36-9.77 30.556-8.49 1.364.795-16.057 8.166-19.877 14.718-3.832 6.575-1.711 25.458-3.077 24.662-2.194-1.28-11.43-24.322-7.602-30.89zm-5.833 99.935c-3.824 6.559-28.36 9.771-30.556 8.49-1.364-.795 16.057-8.166 19.876-14.718 3.833-6.575 1.712-25.458 3.078-24.661 2.194 1.279 11.43 24.321 7.602 30.889z" style="fill:#005ebd;fill-opacity:1;fill-rule:nonzero;stroke:none;stroke-width:.41678113;stroke-linecap:round;stroke-linejoin:miter;stroke-miterlimit:4;stroke-opacity:1" transform="translate(-7.562 -72.567) scale(1.88475)"/><path d="M57.577 58.464c1.349-7.47 23.308-18.882 25.808-18.43 1.555.282-12.295 13.167-13.643 20.63-1.353 7.489 7.098 24.508 5.542 24.227-2.499-.452-19.059-18.946-17.707-26.427Zm28.697 95.903c-1.349 7.471-23.308 18.882-25.808 18.43-1.555-.281 12.295-13.166 13.643-20.63 1.353-7.489-7.098-24.508-5.542-24.227 2.499.452 19.059 18.946 17.707 26.427z" style="fill:#005ebd;fill-opacity:1;fill-rule:nonzero;stroke:none;stroke-width:.41678113;stroke-linecap:round;stroke-linejoin:miter;stroke-miterlimit:4;stroke-opacity:1" transform="translate(-7.562 -72.567) scale(1.88475)"/><path d="M42.042 66.263C40.754 58.781 57.486 40.55 59.99 40.118c1.556-.267-7.051 16.578-5.765 24.052 1.29 7.5 15.052 20.602 13.494 20.87-2.503.43-24.39-11.285-25.678-18.777Zm59.768 80.305c1.287 7.482-15.445 25.714-17.95 26.145-1.556.267 7.051-16.578 5.765-24.052-1.29-7.5-15.052-20.602-13.494-20.87 2.503-.43 24.39 11.285 25.678 18.777z" style="fill:#005ebd;fill-opacity:1;fill-rule:nonzero;stroke:none;stroke-width:.41678113;stroke-linecap:round;stroke-linejoin:miter;stroke-miterlimit:4;stroke-opacity:1" transform="translate(-7.562 -72.567) scale(1.88475)"/><path d="M30.111 78.906c-3.769-6.59 5.718-29.447 7.924-30.708 1.372-.783-.956 17.99 2.81 24.573 3.777 6.607 21.19 14.212 19.817 14.997-2.204 1.26-26.777-2.263-30.551-8.862zm83.629 55.019c3.769 6.59-5.718 29.447-7.925 30.708-1.37.783.957-17.99-2.808-24.573-3.778-6.606-21.192-14.212-19.819-14.997 2.205-1.26 26.778 2.263 30.552 8.862z" style="fill:#005ebd;fill-opacity:1;fill-rule:nonzero;stroke:none;stroke-width:.41678113;stroke-linecap:round;stroke-linejoin:miter;stroke-miterlimit:4;stroke-opacity:1" transform="translate(-7.562 -72.567) scale(1.88475)"/><path d="M23.224 94.866c-5.796-4.904-4.698-29.626-3.056-31.566 1.02-1.205 5.254 17.232 11.044 22.13 5.809 4.917 24.774 6.107 23.752 7.314-1.641 1.939-25.937 7.033-31.74 2.122zm97.403 23.099c5.796 4.904 4.698 29.626 3.056 31.566-1.02 1.205-5.254-17.232-11.044-22.13-5.809-4.916-24.774-6.107-23.752-7.314 1.64-1.938 25.937-7.033 31.74-2.122z" style="fill:#005ebd;fill-opacity:1;fill-rule:nonzero;stroke:none;stroke-width:.41678113;stroke-linecap:round;stroke-linejoin:miter;stroke-miterlimit:4;stroke-opacity:1" transform="translate(-7.562 -72.567) scale(1.88475)"/><path d="M22.21 112.22c-7.122-2.626-14.547-26.233-13.667-28.617.547-1.482 10.831 14.395 17.947 17.018 7.14 2.633 25.368-2.735 24.82-1.25-.878 2.382-21.967 15.478-29.1 12.849Zm99.43-11.609c7.123 2.626 14.548 26.233 13.668 28.617-.547 1.482-10.831-14.395-17.947-17.018-7.14-2.633-25.368 2.735-24.821 1.25.879-2.381 21.967-15.478 29.1-12.849z" style="fill:#005ebd;fill-opacity:1;fill-rule:nonzero;stroke:none;stroke-width:.41678113;stroke-linecap:round;stroke-linejoin:miter;stroke-miterlimit:4;stroke-opacity:1" transform="translate(-7.562 -72.567) scale(1.88475)"/></svg>