<?xml version="1.0" ?><svg enable-background="new 0 0 24 24" id="Layer_1" version="1.1" viewBox="0 0 24 24" xml:space="preserve" xmlns="http://www.w3.org/2000/svg" xmlns:xlink="http://www.w3.org/1999/xlink"><g><path d="M22.8823242,21.6010742l-2.1689453-5.6391602C20.4921875,15.3867188,19.9296875,15,19.3129883,15H4.6870117   c-0.6166992,0-1.1791992,0.3867188-1.4003906,0.9614258l-2.168457,5.6386719C1.0395508,21.8027344,1,22.0161133,1,22.2348633   C1,23.2080078,1.7919922,24,2.7651367,24h18.4697266C22.2080078,24,23,23.2080078,23,22.2348633   C23,22.0161133,22.9604492,21.8027344,22.8823242,21.6010742z" fill="#F7901E"/><path d="M4.520813,15.25h14.958374c0.4241333,0,0.8134155,0.1853027,1.0981445,0.4747925   C20.3076172,15.2884521,19.8366699,15,19.3129883,15H4.6870117c-0.5238037,0-0.994873,0.2886353-1.2645264,0.7247925   C3.7072144,15.4353638,4.0965576,15.25,4.520813,15.25z" fill="#FFFFFF" opacity="0.2"/><path d="M15.8098755,8.196167l-1.210083-4.0700684C13.8147583,4.2384644,12.9456177,4.2999878,12,4.2999878   c-0.9458008,0-1.8151245-0.0615845-2.6002197-0.1739502L8.1898804,8.1960449   C9.2514038,8.4555664,10.5363159,8.5999756,12,8.5999756C13.463501,8.5999756,14.7484131,8.4556885,15.8098755,8.196167z" fill="#F2F2F2"/><path d="M14.5997925,4.1260986l-0.9078979-3.053833C13.5039062,0.440918,12.9125977,0,12.2543945,0h-0.5087891   c-0.6582031,0-1.2495117,0.440918-1.4379883,1.0722656l-0.9078369,3.053772   C10.1848755,4.2384033,11.0541992,4.2999878,12,4.2999878C12.9456177,4.2999878,13.8147583,4.2384644,14.5997925,4.1260986z" fill="#F7901E"/><path d="M5.9211426,15.8278809l-0.9006348,3.029541C5.0068359,18.9038086,5,18.9584961,5,19.0068359   c0,1.9487305,3.6064453,3,7,3S19,20.9555664,19,19c0-0.0483398-0.0068359-0.0961914-0.0205078-0.1425781l-0.9006958-3.02948   C16.9086304,16.6768188,14.78125,17.2000122,12,17.2000122S7.0913086,16.6767578,5.9211426,15.8278809z" fill="#F7901E"/><path d="M21.2348633,23.75H2.7651367c-0.9324951,0-1.6907959-0.7294922-1.7531128-1.6464233   C1.0087891,22.1474609,1,22.1904907,1,22.2348633C1,23.2080078,1.7919922,24,2.7651367,24h18.4697266   C22.2080078,24,23,23.2080078,23,22.2348633c0-0.0444336-0.0087891-0.0874634-0.0120239-0.1314087   C22.9255981,23.0205078,22.1673584,23.75,21.2348633,23.75z" opacity="0.1"/><path d="M12,21.7568359c-3.3127441,0-6.8186035-1.0042725-6.9842529-2.8647461   C5.0076904,18.9300537,5,18.9697266,5,19.0068359c0,1.9487305,3.6064453,3,7,3S19,20.9555664,19,19   c0-0.0378418-0.0076904-0.0748291-0.0160522-0.1116333C18.8152466,20.753479,15.3111572,21.7568359,12,21.7568359z" opacity="0.1"/><path d="M12,8.5999756c-1.4636841,0-2.7485962-0.1444092-3.8101196-0.4039307l-1.1659546,3.9222412   C8.2476807,12.6099243,9.9413452,12.8999634,12,12.8999634c2.0585327,0,3.7521973-0.2900391,4.9759521-0.7816162   L15.8098755,8.196167C14.7484131,8.4556885,13.463501,8.5999756,12,8.5999756z" fill="#F7901E"/><path d="M7.0239258,12.1182861l-1.1027832,3.7095947C7.0913086,16.6767578,9.21875,17.2000122,12,17.2000122   s4.9086304-0.5231934,6.0787964-1.3720703l-1.1028442-3.7095947C15.7521973,12.6099243,14.0585327,12.8999634,12,12.8999634   C9.9413452,12.8999634,8.2476807,12.6099243,7.0239258,12.1182861z" fill="#F2F2F2"/><path d="M10.2547607,1.3222656C10.4490967,0.690918,11.0588989,0.25,11.7376709,0.25h0.5246582   c0.678772,0,1.2885742,0.440918,1.4824219,1.0722656l0.708313,2.3102417l-0.7611694-2.5602417   C13.5039062,0.440918,12.9125977,0,12.2543945,0h-0.5087891c-0.6582031,0-1.2495117,0.440918-1.4379883,1.0722656   L9.5465088,3.6325684L10.2547607,1.3222656z" fill="#FFFFFF" opacity="0.2"/><linearGradient gradientUnits="userSpaceOnUse" id="SVGID_1_" x1="5.5494351" x2="24.2976742" y1="11.1005249" y2="19.8429718"><stop offset="0" style="stop-color:#FFFFFF;stop-opacity:0.2"/><stop offset="1" style="stop-color:#FFFFFF;stop-opacity:0"/></linearGradient><path d="M22.8823242,21.6010742l-2.1689453-5.6391602C20.4921875,15.3867188,19.9296875,15,19.3129883,15   h-1.4803467L13.6918945,1.0722656C13.5039062,0.440918,12.9125977,0,12.2543945,0h-0.5087891   c-0.6582031,0-1.2495117,0.440918-1.4379883,1.0722656L6.1672363,15H4.6870117   c-0.6166992,0-1.1791992,0.3867188-1.4003906,0.9614258l-2.168457,5.6386719C1.0395508,21.8027344,1,22.0161133,1,22.2348633   C1,23.2080078,1.7919922,24,2.7651367,24h18.4697266C22.2080078,24,23,23.2080078,23,22.2348633   C23,22.0161133,22.9604492,21.8027344,22.8823242,21.6010742z" fill="url(#SVGID_1_)"/></g><g/><g/><g/><g/><g/><g/><g/><g/><g/><g/><g/><g/><g/><g/><g/></svg>