<?xml version="1.0" encoding="utf-8"?>
<!-- Generator: Adobe Illustrator 27.7.0, SVG Export Plug-In . SVG Version: 6.00 Build 0)  -->
<svg version="1.1" id="Layer_1" xmlns:serif="http://www.serif.com/"
	 xmlns="http://www.w3.org/2000/svg" xmlns:xlink="http://www.w3.org/1999/xlink" x="0px" y="0px" viewBox="0 0 512 512"
	 style="enable-background:new 0 0 512 512;" xml:space="preserve">
<style type="text/css">
	.st0{fill:#FFFFFF;}
</style>
<circle cx="256" cy="256" r="256"/>
<path class="st0" d="M334.6,237.1c-0.1-1.1-0.2-2.1-0.5-3.2c-0.3-1.1-0.8-2.2-1.3-3.3c0,0,0-0.1-0.1-0.1c0-0.1-0.1-0.2-0.1-0.3
	c-0.6-1.2-1.3-2.3-2.4-3.2c-1.5-1.4-3.4-2.5-5.2-3.4c-2.8-1.3-5.9-1.4-9-1.4c-3.8,0-38-0.3-41.9-0.4l0,0c0,0,16.9-101.5,16.9-101.7
	c0.4-2.3,0.7-4.6,0.7-6.9c0-1.2-0.1-2.4-0.3-3.5c-0.2-1.1-0.4-2.2-0.8-3.2c-0.1-0.1-0.1-0.2-0.2-0.4c-0.7-1.4-1.8-2.7-3.1-3.6
	c-2.5-1.8-6.8-1.8-9.5-0.3c-2.4,1.4-4.5,3.9-6,6.2c-3.5,5.4-7.2,10.8-10.6,16.3c-1.1,1.9-2.2,3.8-3.4,5.7c-0.8,1.3-1.6,2.7-2.4,4
	l-2.7,4.6c-1,1.7-2,3.4-3,5.1c-1.1,1.8-2.2,3.7-3.3,5.5c-1.2,2-2.3,3.9-3.5,5.9c-1.2,2.1-2.4,4.1-3.7,6.2c-1.3,2.1-2.5,4.3-3.8,6.4
	c-1.3,2.2-2.6,4.4-3.9,6.6c-1.3,2.3-2.7,4.5-4,6.8l-4.1,6.9c-1.4,2.3-2.7,4.6-4.1,6.9c-1.4,2.3-2.7,4.6-4.1,6.9
	c-1.3,2.3-2.7,4.5-4,6.8c-1.3,2.2-2.6,4.4-3.9,6.6c-1.3,2.1-2.6,4.3-3.8,6.4c-1.2,2.1-2.4,4.1-3.7,6.2c-1.2,2-2.3,3.9-3.5,5.9
	c-1.1,1.8-2.2,3.7-3.3,5.5c-1,1.7-2,3.4-3,5.1c-0.9,1.5-1.8,3.1-2.7,4.6c-1.2,2-2.4,4.1-3.6,6.1c-1.2,2-2.2,4.2-3.3,6.3
	c-2,4-3.4,8.7-3.2,13.3c0.1,1.1,0.2,2.1,0.5,3.2c0.3,1.1,0.8,2.2,1.3,3.3c0,0,0,0.1,0.1,0.1c0,0.1,0.1,0.2,0.1,0.3
	c0.6,1.2,1.3,2.3,2.4,3.2c1.5,1.4,3.4,2.5,5.2,3.4c2.8,1.3,5.9,1.4,9,1.4c3.8,0,38,0.3,41.9,0.4l0,0c0,0-16.9,101.5-16.9,101.7
	c-0.4,2.3-0.7,4.6-0.7,6.9c0,1.2,0.1,2.4,0.3,3.5c0.2,1.1,0.4,2.2,0.8,3.2c0.1,0.1,0.1,0.2,0.2,0.4c0.7,1.4,1.8,2.7,3.1,3.6
	c2.5,1.8,6.8,1.8,9.5,0.3c2.4-1.4,4.5-3.9,6-6.2c3.5-5.4,7.2-10.8,10.6-16.3c1.1-1.9,2.2-3.8,3.4-5.7c0.8-1.3,1.6-2.7,2.4-4
	c0.9-1.5,1.8-3,2.7-4.6c1-1.7,2-3.4,3-5.1c1.1-1.8,2.2-3.7,3.3-5.5c1.2-2,2.3-3.9,3.5-5.9c1.2-2.1,2.4-4.1,3.7-6.2
	c1.3-2.1,2.5-4.3,3.8-6.4c1.3-2.2,2.6-4.4,3.9-6.6c1.3-2.3,2.7-4.5,4-6.8c1.4-2.3,2.7-4.6,4.1-6.9c1.4-2.3,2.7-4.6,4.1-6.9
	c1.4-2.3,2.7-4.6,4.1-6.9c1.3-2.3,2.7-4.5,4-6.8c1.3-2.2,2.6-4.4,3.9-6.6c1.3-2.1,2.6-4.3,3.8-6.4c1.2-2.1,2.4-4.1,3.7-6.2
	c1.2-2,2.3-3.9,3.5-5.9c1.1-1.8,2.2-3.7,3.3-5.5l3-5.1c0.9-1.5,1.8-3.1,2.7-4.6c1.2-2,2.4-4.1,3.6-6.1c1.2-2,2.2-4.2,3.3-6.3
	C333.4,246.3,334.8,241.6,334.6,237.1"/>
</svg>
