<svg xmlns="http://www.w3.org/2000/svg" id="Layer_1" x="0" y="0" viewBox="0 0 300 300" xml:space="preserve"><style>.st2{fill:#007bfc}</style><path d="M107.4 44.1c-2.4-3.9-6.7-6.3-11.3-6.4H27.8c-7.4 0-13.4 6-13.4 13.4 0 2.5.7 5 2 7.1L34 84.1 122.1 65l-14.7-20.9z" fill="#c9f4ff"></path><path d="M122.5 65.5c-2.4-3.9-6.7-6.3-11.3-6.4H43c-7.3-.3-13.5 5.3-13.9 12.7-.1 2.8.6 5.6 2.2 7.9L51 110.9l91-14.2-19.5-31.2z" fill="#51b9ff"></path><path class="st2" d="M50.1 109.6c-2.2-3.6-2.7-8-1.2-12 2-5.2 7.1-8.6 12.7-8.5h68.2c4.6 0 8.9 2.4 11.3 6.4l61.2 97.1c1.3 2.1 2 4.6 2 7.1s-.7 5-2 7.1L168.1 261c-4 6.3-12.3 8.1-18.5 4.1-1.7-1.1-3.1-2.5-4.1-4.1L50.1 109.6zM222.6 140.7c4 6.3 12.3 8.1 18.5 4.1 1.7-1.1 3.1-2.5 4.1-4.1L257 122l22.4-35.6c1.3-2.1 2-4.6 2-7.1s-.7-5-2-7.1l-17.8-28.1c-2.4-3.9-6.7-6.3-11.3-6.4h-68.4c-7.4 0-13.4 6-13.4 13.4 0 2.5.7 5 2.1 7.1l52 82.5z"></path></svg>