<?xml version="1.0" encoding="utf-8"?>
<!-- Generator: Adobe Illustrator 27.7.0, SVG Export Plug-In . SVG Version: 6.00 Build 0)  -->
<svg version="1.1"
	 id="svg900" xmlns:svg="http://www.w3.org/2000/svg" xmlns:rdf="http://www.w3.org/1999/02/22-rdf-syntax-ns#" xmlns:sodipodi="http://sodipodi.sourceforge.net/DTD/sodipodi-0.dtd" xmlns:cc="http://creativecommons.org/ns#" xmlns:inkscape="http://www.inkscape.org/namespaces/inkscape" xmlns:dc="http://purl.org/dc/elements/1.1/" sodipodi:docname="logo-dark-bg.svg"
	 xmlns="http://www.w3.org/2000/svg" xmlns:xlink="http://www.w3.org/1999/xlink" x="0px" y="0px" viewBox="0 0 512 512"
	 style="enable-background:new 0 0 512 512;" xml:space="preserve">
<style type="text/css">
	.st0{fill:#2F855A;}
</style>
<g id="g16">
	<g id="g40" transform="translate(503.8398,367.5195)">
		<path id="path42" class="st0" d="M2.6-111.5c0,5.3-0.2,10.6-0.5,15.8C0.6-72.5-3.9-50.3-11.1-29.3
			c-32.5,94.7-119.6,164-223.7,170.4c-5.2,0.4-10.5,0.5-15.8,0.5c-5.3,0-10.6-0.2-15.8-0.5c-127.2-7.8-229-109.6-236.8-236.8
			c-0.4-5.3-0.5-10.6-0.5-15.8c0-5.3,0.2-10.6,0.5-15.8c7.8-127.2,109.6-229,236.8-236.9c5.3-0.4,10.5-0.5,15.8-0.5
			c5.3,0,10.6,0.2,15.8,0.5v68.1h-31.7v-27.4c-104.7,7.7-188.4,91.5-196.2,196.2h24.5v31.7h-24.5C-454.9,9-371.1,92.8-266.5,100.5
			V72.6h31.7v27.9c77.3-5.7,143.3-53,175.6-119.5c11.4-23.5,18.6-49.4,20.6-76.7h-0.1l14.8-31.7H2.1C2.4-122.1,2.6-116.8,2.6-111.5"
			/>
	</g>
	<g id="g44" transform="translate(504.2754,431.2373)">
		<path id="path46" class="st0" d="M7.7-256.3l-28.5-13.8l-7.8,16.2l-16.1,33.4l-63.4,131.6l-0.1,0.1h-62.5l0-0.1l0-0.1l24.6-51.1
			l6.3-13.1l0.3-0.7l32.1-66.5l12.3-25.5l3.8-7.9l19.6-40.7l-9.6-4.6l-16-7.7l83.4-38.8L7.7-256.3z"/>
	</g>
	<g id="g48" transform="translate(258.5654,361.2139)">
		<path id="path50" class="st0" d="M-66.7-89.7L-66.7-89.7L-98-24.5L-155-143l-16-33.4h62.6l16.1,33.4L-66.7-89.7z"/>
	</g>
	<g id="g52" transform="translate(320.9248,367.3867)">
		<path id="path54" class="st0" d="M-47.2-111.2l-41.6,86.3v0h-62.7v0l31.4-65.1l32.1-66.7l9.4-19.6l9.5,19.6l15.5,32.1L-47.2-111.2
			z"/>
	</g>
	<g id="g56" transform="translate(383.7656,359.833)">
		<path id="path58" class="st0" d="M-27.6-86.5l-6.3,13.1l-24.7,51.1l0,0.1l-42.2-87.7l-15.2-31.6l-16-33.4h61.9L-27.6-86.5z"/>
	</g>
</g>
</svg>
