<svg xmlns="http://www.w3.org/2000/svg" xmlns:xlink="http://www.w3.org/1999/xlink" version="1.1" id="Calque_1" x="0px" y="0px" width="200px" height="237px" viewBox="0 0 200 237" enable-background="new 0 0 200 237" xml:space="preserve">
<g>
	<g>
		<path d="M78.59,49.445c2.014-1.237,12.868-7.004,30.379,0.224c18.012,7.434,29.188,0.978,30.574,0.099    c-4.354-7.159-9.533-13.389-15.259-17.578c0.381-0.104,0.771-0.209,1.183-0.332c7.594-2.196,9.522-8.625,9.929-14.131    c0.458-6.245,0.776-6.341,2.133-11.96c1.302-5.396-0.149-6.476-1.488-5.386c-0.722,0.586-6.998,2.037-10.721,4.94    c-6.011,4.69-9.716,13.608-11.396,18.538c-0.032,0.076-0.258,0.761-0.334,0.999c-0.783,1.889-2.342,1.883-2.342,1.883v0.001    c-0.755-0.083-1.515-0.126-2.279-0.126c-0.682,0-1.359,0.037-2.037,0.102c-0.015,0.003-0.023,0-0.039,0.001    c-1.993,0.293-3.09-2.14-3.318-2.72c-2.328-6.687-8.593-19.872-22.671-23.419c0,0-2.557-1.959-1.777,1.354    C79.867,5.1,81.4,8.3,81.06,12.954c-0.156,2.148-1.489,13.164,8.636,18.896c0.961,0.544,1.817,1.002,2.585,1.387    C87.184,37.319,82.552,42.998,78.59,49.445z" fill="#00acc1"/>
		<path d="M145.06,150.186c-12.406-7.687-16.582-10.39-16.321-13.33c0,0,0.003-0.478,0.126-1.207c0.3-1.56,1.254-4.221,4.294-5.738    c0.101-0.049,0.185-0.105,0.263-0.162c9.666-5.61,16.729-14.642,19.22-25.917c-2.511,6.228-21.098,11.068-43.675,11.068    c-22.569,0-41.161-4.84-43.669-11.068c0.558,2.531,1.353,4.944,2.35,7.238c0.839,4.722,1.968,15.838-3.37,25.569    c-4.704,8.571-27.923,20.258-62.382,13.548c0,0-1.383-0.964-1.8-0.17c-0.618,1.174,1.912,2.123,4.519,2.811    c23.991,6.353,60.202,3.769,71.574-5.601c5.188-4.271,7.19-10.026,7.699-16.22l0.004,0.01c0,0,0.139-1.622,2.167-0.403    c0.581,0.35,2.678,1.716,3.013,3.259c0.292,2.197,0.312,4.895-0.822,6.785c-1.622,2.701-1.64,3.09,0.495,4.616    c1.311,0.936,6.666,4.871,14.116,9.347c0.02,0.013,0.029,0.023,0.048,0.034c1.577,0.949,3.767,3.274,3.767,3.274l0,0    c3.354,3.881,10.654,11.691,13.832,10.222c1.501-0.694-0.064-3.823-0.064-3.823s2.496,3.241,3.837,2.137    c1.019-0.843-0.597-4.069-0.597-4.069s2.179,1.889,3.475,1.189c1.586-0.855-0.234-5.817-12.705-13.397    c-12.475-7.585-15.856-8.748-16.154-12.134c0,0-0.005-0.171,0.005-0.462c0.098-0.747,0.522-2.327,2.335-2.158    c2.699,0.437,5.481,0.67,8.331,0.67c3.262,0,6.437-0.3,9.5-0.871l0.001,0.005c0,0,0.159-0.032,0.206-0.04    c0.358-0.045,1.057-0.021,1.06,0.846c-0.113,1.101-0.418,2.207-1.065,3.176c-1.825,2.733-1.225,3.107,0.68,4.864    c1.177,1.083,6.569,5.827,13.957,10.417c0.014,0.011,0.021,0.021,0.039,0.03c1.575,0.947,4.299,3.551,4.299,3.551v-0.001    c3.061,3.107,8.689,8.314,11.758,8.001c2.073-0.213,0.385-3.785,0.385-3.785s2.62,2.528,3.905,1.785    c1.439-0.831-0.596-3.473-0.596-3.473s1.687,0.893,2.879,0.596C157.168,160.904,157.464,157.869,145.06,150.186z" fill="#00acc1"/>
	</g>
	<path d="M131.198,63.329c-1.488,0-2.725,0.448-3.671,1.333c-0.957,0.896-1.441,1.93-1.441,3.073v20.24   c0,2.717-0.481,4.718-1.431,5.952c-0.918,1.193-2.384,1.773-4.482,1.773c-2.146,0-3.609-0.576-4.473-1.759   c-0.903-1.235-1.36-3.241-1.36-5.965V67.655c0-1.384-0.63-2.516-1.825-3.273c-1.624-1.023-3.24-1.394-5.206-0.74   c-0.6,0.201-1.164,0.461-1.679,0.776c-0.548,0.333-1.011,0.752-1.378,1.241c-0.406,0.544-0.612,1.136-0.612,1.759v20.556   c0,2.721-0.457,4.728-1.36,5.964c-0.867,1.185-2.33,1.761-4.473,1.761c-2.149,0-3.627-0.579-4.518-1.766   c-0.926-1.235-1.396-3.24-1.396-5.958v-20.24c0-1.144-0.484-2.178-1.443-3.073c-0.947-0.884-2.208-1.333-3.748-1.333   c-1.586,0-2.895,0.444-3.89,1.317c-1.021,0.896-1.54,1.936-1.54,3.089V87.66c0,2.506,0.245,4.877,0.726,7.044   c0.494,2.215,1.357,4.16,2.565,5.781c1.22,1.637,2.876,2.929,4.923,3.845c2.026,0.902,4.56,1.36,7.532,1.36   c3.097,0,5.691-0.575,7.709-1.706c1.692-0.95,3.117-2.199,4.249-3.721c1.092,1.522,2.484,2.771,4.153,3.719   c1.991,1.133,4.626,1.708,7.829,1.708c2.973,0,5.495-0.459,7.498-1.363c2.018-0.915,3.659-2.207,4.881-3.842   c1.21-1.626,2.073-3.571,2.564-5.781c0.481-2.167,0.726-4.538,0.726-7.044V67.734c0-1.148-0.503-2.185-1.491-3.082   C134.165,63.774,132.84,63.329,131.198,63.329z" fill="#00acc1"/>
	<g>
		<path d="M40.224,210.632c-0.662,0-1.211,0.198-1.631,0.59c-0.424,0.399-0.64,0.858-0.64,1.366v8.989    c0,1.206-0.214,2.097-0.636,2.644c-0.406,0.53-1.059,0.788-1.99,0.788c-0.955,0-1.604-0.256-1.987-0.783    c-0.401-0.546-0.604-1.439-0.604-2.648v-9.025c0-0.615-0.28-1.118-0.81-1.453c-0.721-0.456-1.439-0.621-2.312-0.33    c-0.266,0.092-0.518,0.206-0.747,0.347c-0.243,0.147-0.449,0.332-0.611,0.55c-0.181,0.241-0.272,0.505-0.272,0.782v9.13    c0,1.209-0.203,2.1-0.604,2.648c-0.386,0.527-1.036,0.783-1.988,0.783c-0.954,0-1.61-0.258-2.006-0.785    c-0.411-0.547-0.62-1.44-0.62-2.646v-8.989c0-0.508-0.215-0.967-0.641-1.366c-0.421-0.392-0.98-0.59-1.665-0.59    c-0.704,0-1.287,0.195-1.728,0.582c-0.454,0.398-0.684,0.86-0.684,1.374v8.851c0,1.111,0.108,2.166,0.323,3.128    c0.218,0.983,0.601,1.849,1.139,2.568c0.542,0.728,1.277,1.302,2.188,1.708c0.9,0.401,2.024,0.604,3.345,0.604    c1.375,0,2.528-0.256,3.425-0.759c0.751-0.422,1.384-0.977,1.887-1.652c0.485,0.676,1.103,1.23,1.844,1.65    c0.885,0.505,2.055,0.761,3.478,0.761c1.319,0,2.44-0.205,3.33-0.606c0.896-0.407,1.625-0.981,2.168-1.706    c0.538-0.723,0.921-1.588,1.139-2.568c0.213-0.962,0.322-2.017,0.322-3.128v-8.851c0-0.511-0.223-0.97-0.662-1.368    C41.541,210.827,40.952,210.632,40.224,210.632z" fill="#00acc1"/>
		<path d="M66.316,212.703c-0.624-0.648-1.434-1.163-2.406-1.527c-0.965-0.362-2.121-0.544-3.433-0.544    c-1.415,0-2.671,0.25-3.735,0.744c-1.062,0.495-1.956,1.15-2.656,1.951c-0.7,0.793-1.238,1.699-1.598,2.686    c-0.361,0.989-0.544,2-0.544,3.011v3.079c0,0.915,0.14,1.818,0.416,2.684c0.28,0.873,0.707,1.662,1.264,2.343    c0.563,0.685,1.292,1.247,2.168,1.673c0.88,0.429,1.915,0.646,3.076,0.646c0.718,0,1.334-0.058,1.833-0.164    c0.505-0.113,0.954-0.277,1.328-0.489c0.375-0.212,0.7-0.462,0.965-0.739c0.158-0.165,0.312-0.343,0.459-0.532v0.142    c0,0.509,0.216,0.968,0.64,1.366c0.42,0.393,0.968,0.59,1.63,0.59c0.729,0,1.318-0.197,1.75-0.587    c0.439-0.399,0.662-0.86,0.662-1.369v-9.794c0-1.034-0.147-1.994-0.436-2.863C67.406,214.126,66.941,213.352,66.316,212.703z     M58.962,215.373c0.447-0.203,0.956-0.306,1.515-0.306c0.969,0,1.719,0.217,2.231,0.646c0.494,0.412,0.746,1.162,0.746,2.228    v3.288c0,0.628-0.108,1.184-0.323,1.652c-0.214,0.473-0.496,0.869-0.835,1.177c-0.341,0.307-0.736,0.546-1.174,0.706    c-0.441,0.162-0.905,0.244-1.379,0.244c-0.857,0-1.554-0.27-2.127-0.824c-0.571-0.55-0.849-1.184-0.849-1.941v-3.359    c0-0.517,0.092-1.008,0.274-1.456c0.183-0.453,0.44-0.863,0.764-1.22C58.122,215.859,58.512,215.575,58.962,215.373z" fill="#00acc1"/>
		<path d="M80.556,204.685c-0.704,0-1.286,0.195-1.728,0.586c-0.454,0.397-0.684,0.859-0.684,1.37v20.849    c0,0.511,0.23,0.973,0.684,1.373c0.442,0.388,1.024,0.585,1.728,0.585c0.685,0,1.245-0.2,1.666-0.593    c0.424-0.399,0.642-0.857,0.642-1.365v-20.849c0-0.508-0.217-0.967-0.642-1.365C81.801,204.883,81.241,204.685,80.556,204.685z" fill="#00acc1"/>
		<path d="M95.493,204.685c-0.704,0-1.286,0.195-1.728,0.586c-0.453,0.397-0.684,0.859-0.684,1.37v20.849    c0,0.511,0.23,0.973,0.684,1.373c0.442,0.388,1.024,0.585,1.728,0.585c0.685,0,1.246-0.2,1.666-0.593    c0.425-0.399,0.642-0.857,0.642-1.365v-20.849c0-0.508-0.217-0.967-0.642-1.365C96.738,204.883,96.178,204.685,95.493,204.685z" fill="#00acc1"/>
		<path d="M121.726,212.703c-0.624-0.648-1.434-1.163-2.405-1.527c-0.968-0.362-2.122-0.544-3.435-0.544    c-1.414,0-2.671,0.25-3.733,0.744c-1.062,0.495-1.956,1.15-2.658,1.951c-0.697,0.793-1.234,1.696-1.597,2.686    c-0.36,0.989-0.544,2-0.544,3.011v3.079c0,0.912,0.14,1.816,0.417,2.684c0.279,0.873,0.703,1.662,1.264,2.343    c0.562,0.685,1.292,1.247,2.168,1.673c0.88,0.429,1.915,0.646,3.076,0.646c0.718,0,1.334-0.058,1.833-0.164    c0.506-0.113,0.953-0.277,1.328-0.489c0.374-0.212,0.697-0.462,0.964-0.739c0.158-0.165,0.312-0.343,0.459-0.532v0.142    c0,0.509,0.216,0.968,0.642,1.366c0.419,0.393,0.969,0.59,1.63,0.59c0.729,0,1.317-0.197,1.75-0.587    c0.438-0.399,0.661-0.86,0.661-1.369v-9.794c0-1.034-0.146-1.994-0.436-2.863C122.816,214.129,122.351,213.354,121.726,212.703z     M114.371,215.373c0.446-0.203,0.956-0.306,1.515-0.306c0.969,0,1.719,0.217,2.23,0.646c0.495,0.412,0.746,1.162,0.746,2.228    v3.288c0,0.625-0.108,1.184-0.321,1.652c-0.214,0.473-0.495,0.869-0.835,1.177c-0.341,0.307-0.735,0.546-1.174,0.706    c-0.441,0.162-0.906,0.244-1.381,0.244c-0.856,0-1.552-0.27-2.126-0.824c-0.571-0.55-0.85-1.184-0.85-1.941v-3.359    c0-0.517,0.093-1.008,0.276-1.456c0.18-0.453,0.437-0.863,0.762-1.22C113.533,215.859,113.923,215.575,114.371,215.373z" fill="#00acc1"/>
		<path d="M147.924,213.071c-0.634-0.77-1.449-1.377-2.422-1.803c-0.973-0.422-2.132-0.637-3.45-0.637    c-0.925,0-1.769,0.168-2.506,0.497c-0.578,0.261-1.087,0.612-1.519,1.05v-5.538c0-0.508-0.216-0.967-0.642-1.365    c-0.42-0.393-0.98-0.591-1.665-0.591c-0.704,0-1.285,0.195-1.728,0.586c-0.453,0.397-0.685,0.859-0.685,1.37v15.566    c0,1.038,0.18,2.014,0.53,2.895c0.354,0.891,0.891,1.679,1.6,2.338c0.705,0.653,1.594,1.17,2.647,1.536    c1.039,0.356,2.269,0.541,3.652,0.541c1.344,0,2.533-0.229,3.538-0.674c1.003-0.45,1.857-1.062,2.536-1.829    c0.681-0.764,1.189-1.659,1.516-2.664c0.324-0.995,0.489-2.068,0.489-3.191v-2.03c0-1.211-0.16-2.344-0.47-3.362    C149.034,214.741,148.557,213.835,147.924,213.071z M141.738,225.077c-1.076,0-1.986-0.23-2.7-0.685    c-0.681-0.433-1.011-1.104-1.011-2.046v-4.011c0.043-1.137,0.376-1.974,0.988-2.482c0.629-0.522,1.426-0.786,2.372-0.786    c1.112,0,1.982,0.341,2.661,1.042c0.673,0.694,1.017,1.735,1.017,3.09v2.099c0,1.151-0.311,2.081-0.921,2.766    C143.538,224.748,142.75,225.077,141.738,225.077z" fill="#00acc1"/>
		<path d="M172.868,212.703c-0.623-0.648-1.433-1.163-2.405-1.527c-0.968-0.362-2.121-0.544-3.435-0.544    c-1.415,0-2.67,0.25-3.735,0.744c-1.061,0.495-1.953,1.15-2.656,1.951c-0.697,0.793-1.235,1.696-1.596,2.686    c-0.362,0.989-0.544,2-0.544,3.011v3.079c0,0.912,0.141,1.816,0.415,2.684c0.28,0.873,0.706,1.662,1.264,2.343    c0.562,0.685,1.293,1.247,2.169,1.673c0.88,0.429,1.915,0.646,3.074,0.646c0.721,0,1.335-0.058,1.835-0.164    c0.506-0.113,0.953-0.277,1.329-0.489c0.374-0.212,0.698-0.462,0.962-0.739c0.159-0.165,0.312-0.343,0.459-0.532v0.142    c0,0.509,0.217,0.968,0.642,1.366c0.421,0.393,0.968,0.59,1.63,0.59c0.73,0,1.318-0.197,1.75-0.587    c0.439-0.399,0.661-0.86,0.661-1.369v-9.794c0-1.034-0.146-1.994-0.434-2.863C173.959,214.129,173.495,213.354,172.868,212.703z     M165.513,215.373c0.447-0.203,0.959-0.306,1.516-0.306c0.97,0,1.72,0.217,2.23,0.646c0.495,0.412,0.745,1.162,0.745,2.228v3.288    c0,0.625-0.108,1.184-0.321,1.652c-0.215,0.473-0.494,0.869-0.836,1.177c-0.34,0.307-0.736,0.546-1.172,0.706    c-0.442,0.162-0.907,0.244-1.38,0.244c-0.856,0-1.552-0.27-2.128-0.824c-0.572-0.55-0.85-1.184-0.85-1.941v-3.359    c0-0.517,0.094-1.008,0.274-1.456c0.185-0.453,0.44-0.863,0.764-1.22C164.675,215.859,165.064,215.575,165.513,215.373z" fill="#00acc1"/>
		<path d="M199.508,214.828c-0.294-0.856-0.762-1.609-1.388-2.234c-0.623-0.624-1.431-1.119-2.406-1.473    c-0.964-0.35-2.118-0.524-3.429-0.524c-1.414,0-2.666,0.25-3.719,0.747c-1.052,0.494-1.938,1.155-2.64,1.966    c-0.7,0.809-1.233,1.758-1.582,2.819c-0.347,1.052-0.521,2.155-0.521,3.279v2.065c0,2.445,0.626,4.4,1.859,5.82    c1.247,1.429,3.032,2.153,5.307,2.153c1.214,0,2.214-0.214,2.97-0.637c0.514-0.286,0.95-0.635,1.302-1.041v1.014    c0,0.774-0.088,1.402-0.261,1.867c-0.168,0.451-0.399,0.811-0.685,1.065c-0.285,0.256-0.629,0.432-1.019,0.525    c-0.418,0.099-0.887,0.148-1.396,0.148c-0.841,0-1.497-0.047-1.953-0.135c-0.5-0.1-0.882-0.146-1.162-0.146    c-0.733,0-1.294,0.185-1.667,0.541c-0.377,0.363-0.569,0.852-0.569,1.45c0,0.811,0.438,1.5,1.354,2.076    c0.33,0.127,0.844,0.234,1.577,0.332c0.711,0.095,1.527,0.144,2.42,0.144c1.052,0,2.074-0.159,3.032-0.47    c0.967-0.315,1.835-0.799,2.577-1.445c0.741-0.645,1.34-1.469,1.776-2.449c0.435-0.98,0.656-2.159,0.656-3.505v-11.229    C199.943,216.589,199.796,215.675,199.508,214.828z M190.78,215.367c0.442-0.222,0.95-0.333,1.505-0.333    c0.973,0,1.726,0.201,2.239,0.6c0.494,0.385,0.736,0.967,0.736,1.78v4.361c-0.044,1.129-0.377,1.929-1.02,2.445    c-0.662,0.53-1.429,0.788-2.34,0.788c-2.238,0-3.327-1.113-3.327-3.398v-2.343c0-0.59,0.094-1.147,0.278-1.658    c0.184-0.512,0.441-0.959,0.767-1.339C189.94,215.897,190.33,215.593,190.78,215.367z" fill="#00acc1"/>
	</g>
</g>
</svg>