<svg width="1177" height="600" viewBox="0 0 1177 600" fill="none" xmlns="http://www.w3.org/2000/svg">
<path d="M91.2 3.2C75.2 8 59.2 16 44.8 25.6L27.2 44.8C17.6 57.6 9.6 72 6.4 88L91.2 3.2Z" fill="#83A7FF"/>
<path d="M8 140.8L140.8 1.6C134.4 -1.54972e-06 128 0 121.6 0L4.8 121.6C4.8 128 6.4 134.4 8 140.8Z" fill="#80A8FE"/>
<path d="M158.4 8L16 164.8C17.6 166.4 17.6 169.6 19.2 171.2C19.2 171.2 20.8 174.4 24 179.2L171.2 16C168 12.8 163.2 11.2 158.4 8Z" fill="#7DA9FD"/>
<path d="M200 38.4C196.8 33.6 192 30.4 188.8 27.2L38.4 200L48 214.4L200 38.4Z" fill="#7AAAFC"/>
<path d="M219.2 67.2C214.4 59.2 211.2 52.8 209.6 52.8L60.8 235.2C64 240 67.2 244.8 70.4 249.6L219.2 67.2Z" fill="#77ABFB"/>
<path d="M238.4 97.6C235.2 92.8 232 88 228.8 83.2L83.2 270.4C86.4 275.2 89.6 280 92.8 284.8L238.4 97.6Z" fill="#74ACFA"/>
<path d="M259.2 128C256 123.2 252.8 118.4 249.6 113.6L107.2 307.2C110.4 312 113.6 316.8 116.8 321.6L259.2 128Z" fill="#71ADF9"/>
<path d="M278.4 160C275.2 155.2 272 150.4 268.8 145.6L129.6 344L139.2 358.4L278.4 160Z" fill="#6EAEF8"/>
<path d="M299.2 192C296 187.2 292.8 182.4 289.6 177.6L153.6 380.8C156.8 385.6 160 390.4 163.2 395.2L299.2 192Z" fill="#6BAFF7"/>
<path d="M320 225.6C316.8 220.8 313.6 216 310.4 211.2L177.6 420.8L187.2 435.2L320 225.6Z" fill="#68B0F6"/>
<path d="M340.8 259.2C337.6 254.4 334.4 249.6 331.2 244.8L201.6 460.8C204.8 465.6 208 470.4 211.2 475.2L340.8 259.2Z" fill="#65B1F5"/>
<path d="M512 32C505.6 38.4 499.2 44.8 494.4 52.8L364.8 257.6L227.2 500.8C230.4 505.6 233.6 512 236.8 516.8L512 32Z" fill="#62B2F4"/>
<path d="M537.6 12.8L254.4 540.8C256 544 257.6 547.2 257.6 547.2C259.2 550.4 262.4 553.6 264 556.8L560 4.8C552 6.4 544 9.6 537.6 12.8Z" fill="#5FB3F3"/>
<path d="M593.6 0C592 0 590.4 0 590.4 0C585.6 0 580.8 -1.54972e-06 576 1.6L286.4 577.6C291.2 580.8 296 584 299.2 585.6L593.6 0Z" fill="#5CB4F2"/>
<path d="M606.4 1.6L324.8 595.2C329.6 596.8 336 596.8 340.8 598.4L622.4 4.8C616 3.2 611.2 1.6 606.4 1.6Z" fill="#59B5F1"/>
<path d="M646.4 16C641.6 12.8 636.8 11.2 632 8L371.2 598.4C377.6 596.8 384 595.2 390.4 593.6L646.4 16Z" fill="#56B6F0"/>
<path d="M475.2 505.6L668.8 33.6C665.6 28.8 660.8 25.6 656 22.4L430.4 569.6C436.8 563.2 443.2 556.8 448 548.8L475.2 505.6Z" fill="#53B7EF"/>
<path d="M585.6 329.6L689.6 60.8L684.8 52.8C683.2 49.6 680 46.4 678.4 43.2L540.8 398.4L585.6 329.6Z" fill="#50B8EE"/>
<path d="M708.8 89.6L697.6 72L601.6 339.2C604.8 344 608 350.4 612.8 356.8L708.8 89.6Z" fill="#4DB9ED"/>
<path d="M728 121.6L716.8 104L625.6 379.2C628.8 385.6 633.6 390.4 636.8 396.8L728 121.6Z" fill="#4ABAEC"/>
<path d="M748.8 153.6L737.6 136L651.2 419.2C654.4 425.6 659.2 430.4 662.4 436.8L748.8 153.6Z" fill="#47BBEB"/>
<path d="M769.6 187.2L758.4 169.6L678.4 460.8C681.6 467.2 686.4 473.6 689.6 478.4L769.6 187.2Z" fill="#44BCEA"/>
<path d="M792 224L780.8 204.8L705.6 505.6C710.4 512 713.6 518.4 716.8 524.8L792 224Z" fill="#41BDE9"/>
<path d="M816 260.8L803.2 241.6L734.4 552C737.6 556.8 742.4 563.2 747.2 568L816 260.8Z" fill="#3EBEE8"/>
<path d="M854.4 235.2L830.4 273.6L769.6 584C774.4 587.2 779.2 588.8 784 592L854.4 235.2Z" fill="#3BBFE7"/>
<path d="M897.6 166.4L875.2 201.6L806.4 598.4C811.2 600 817.6 600 822.4 600L897.6 166.4Z" fill="#38C0E6"/>
<path d="M936 105.6L915.2 139.2L846.4 598.4C852.8 596.8 857.6 595.2 864 593.6L936 105.6Z" fill="#35C1E5"/>
<path d="M969.6 52.8L950.4 81.6L889.6 580.8C896 576 902.4 571.2 907.2 566.4L971.2 51.2C969.6 51.2 969.6 51.2 969.6 52.8Z" fill="#32C2E4"/>
<path d="M1000 20.8C993.6 25.6 987.2 30.4 982.4 36.8L934.4 528C939.2 520 945.6 510.4 953.6 497.6L1000 20.8Z" fill="#2FC3E3"/>
<path d="M1027.2 6.4C1020.8 8 1016 11.2 1011.2 14.4L977.6 460.8C984 451.2 988.8 441.6 995.2 432L1027.2 6.4Z" fill="#2CC4E2"/>
<path d="M1051.2 0C1046.4 0 1040 1.6 1035.2 3.2L1016 396.8C1022.4 387.2 1027.2 379.2 1033.6 369.6L1051.2 0Z" fill="#29C5E1"/>
<path d="M1076.8 1.6C1072 1.6 1065.6 0 1060.8 0L1052.8 340.8C1059.2 331.2 1064 323.2 1068.8 315.2L1076.8 1.6Z" fill="#26C6E0"/>
<path d="M1102.4 8C1097.6 6.4 1091.2 4.8 1086.4 3.2V288C1091.2 280 1097.6 270.4 1102.4 262.4V8Z" fill="#23C7DF"/>
<path d="M1126.4 20.8C1121.6 17.6 1115.2 14.4 1110.4 11.2L1115.2 238.4C1120 228.8 1126.4 220.8 1131.2 214.4L1126.4 20.8Z" fill="#20C8DE"/>
<path d="M1153.6 44.8C1148.8 38.4 1142.4 32 1136 27.2L1144 193.6C1152 179.2 1158.4 171.2 1158.4 171.2V169.6L1153.6 44.8Z" fill="#1DC9DD"/>
<path d="M1171.2 145.6C1180.8 115.2 1177.6 86.4 1164.8 64L1171.2 145.6Z" fill="#1ACADC"/>
<path d="M0 116.8C1.6 134.4 6.4 153.6 17.6 171.2L254.4 547.2C259.2 553.6 264 560 268.8 566.4L0 116.8Z" fill="#17CBDB"/>
<path d="M3.2 84.8C1.6 92.8 0 100.8 0 110.4L304 590.4C312 593.6 320 596.8 328 598.4L3.2 84.8Z" fill="#14CCDA"/>
<path d="M11.2 64C8 70.4 4.8 75.2 3.2 81.6L348.8 600C355.2 600 361.6 600 366.4 598.4L11.2 64Z" fill="#11CDD9"/>
<path d="M20.8 48C17.6 51.2 14.4 56 11.2 62.4L385.6 593.6C390.4 592 395.2 588.8 400 587.2L20.8 48Z" fill="#0ECED8"/>
<path d="M33.6 33.6C28.8 36.8 25.6 41.6 22.4 44.8L416 576C420.8 572.8 424 569.6 427.2 564.8L33.6 33.6Z" fill="#0BCFD7"/>
<path d="M46.4 22.4C43.2 25.6 38.4 28.8 35.2 32L440 552C443.2 547.2 446.4 542.4 448 537.6L46.4 22.4Z" fill="#08D0D6"/>
<path d="M62.4 12.8C57.6 14.4 52.8 17.6 48 20.8L456 518.4C457.6 512 459.2 505.6 460.8 497.6L62.4 12.8Z" fill="#05D1D5"/>
<path d="M64 11.2L460.8 470.4C459.2 456 452.8 441.6 444.8 427.2C444.8 427.2 444.8 425.6 443.2 424L80 4.8C73.6 6.4 68.8 9.6 64 11.2Z" fill="#02D2D4"/>
<path d="M99.2 0C94.4 1.6 88 3.2 81.6 4.8L393.6 348.8C379.2 324.8 361.6 297.6 344 270.4L99.2 0Z" fill="#00D3D3"/>
<path d="M124.8 0C116.8 0 110.4 0 102.4 0L313.6 220.8C299.2 196.8 283.2 172.8 270.4 152L124.8 0Z" fill="#00D4D2"/>
<path d="M129.6 1.6L251.2 123.2C233.6 96 219.2 73.6 212.8 62.4L163.2 12.8C152 6.4 140.8 3.2 129.6 1.6Z" fill="#00D5D1"/>
<path d="M179.2 22.4L195.2 36.8C190.4 32 185.6 27.2 179.2 22.4Z" fill="#00D6D0"/>
</svg>
