<svg width="512" height="512" viewBox="0 0 512 512" fill="none" xmlns="http://www.w3.org/2000/svg">
<g clip-path="url(#clip0_1_51)">
<path d="M39.6724 127.391C32.7123 129.479 25.7522 132.959 19.4882 137.135L11.8321 145.487C7.65606 151.055 4.17603 157.319 2.78401 164.279L39.6724 127.391Z" fill="#83A7FF"/>
<path d="M3.48004 187.247L61.2486 126.695C58.4646 125.999 55.6805 125.999 52.8965 125.999L2.08803 178.895C2.08803 181.679 2.78403 184.463 3.48004 187.247Z" fill="#80A8FE"/>
<path d="M68.9047 129.479L6.96007 197.687C7.65607 198.383 7.65607 199.775 8.35208 200.471C8.35208 200.471 9.04809 201.863 10.4401 203.951L74.4727 132.959C73.0807 131.567 70.9927 130.871 68.9047 129.479Z" fill="#7DA9FD"/>
<path d="M87.0008 142.703C85.6088 140.615 83.5208 139.223 82.1288 137.831L16.7042 213L20.8802 219.264L87.0008 142.703Z" fill="#7AAAFC"/>
<path d="M95.3529 155.231C93.2649 151.751 91.8729 148.967 91.1769 148.967L26.4482 228.312C27.8403 230.4 29.2323 232.488 30.6243 234.576L95.3529 155.231Z" fill="#77ABFB"/>
<path d="M103.705 168.455C102.313 166.367 100.921 164.279 99.529 162.191L36.1924 243.624C37.5844 245.712 38.9764 247.8 40.3684 249.888L103.705 168.455Z" fill="#74ACFA"/>
<path d="M112.753 181.679C111.361 179.591 109.969 177.503 108.577 175.415L46.6325 259.632C48.0245 261.72 49.4165 263.808 50.8085 265.896L112.753 181.679Z" fill="#71ADF9"/>
<path d="M121.105 195.599C119.713 193.511 118.321 191.423 116.929 189.335L56.3765 275.64L60.5526 281.904L121.105 195.599Z" fill="#6EAEF8"/>
<path d="M130.153 209.52C128.761 207.432 127.369 205.344 125.977 203.255L66.8167 291.648C68.2087 293.736 69.6007 295.824 70.9927 297.912L130.153 209.52Z" fill="#6BAFF7"/>
<path d="M139.201 224.136C137.809 222.048 136.417 219.96 135.025 217.872L77.2568 309.048L81.4328 315.313L139.201 224.136Z" fill="#68B0F6"/>
<path d="M148.249 238.752C146.857 236.664 145.465 234.576 144.073 232.488L87.6969 326.449C89.0889 328.537 90.4809 330.625 91.8729 332.713L148.249 238.752Z" fill="#65B1F5"/>
<path d="M222.722 139.919C219.938 142.703 217.154 145.487 215.066 148.967L158.69 238.056L98.833 343.849C100.225 345.937 101.617 348.721 103.009 350.809L222.722 139.919Z" fill="#62B2F4"/>
<path d="M233.858 131.567L110.665 361.249C111.361 362.641 112.057 364.033 112.057 364.033C112.753 365.425 114.145 366.817 114.841 368.209L243.602 128.087C240.122 128.783 236.642 130.175 233.858 131.567Z" fill="#5FB3F3"/>
<path d="M258.219 125.999C257.523 125.999 256.827 125.999 256.827 125.999C254.739 125.999 252.65 125.999 250.562 126.695L124.585 377.257C126.673 378.649 128.761 380.041 130.153 380.737L258.219 125.999Z" fill="#5CB4F2"/>
<path d="M263.787 126.695L141.289 384.913C143.377 385.609 146.161 385.609 148.249 386.305L270.747 128.087C267.963 127.391 265.875 126.695 263.787 126.695Z" fill="#59B5F1"/>
<path d="M281.187 132.959C279.099 131.567 277.011 130.871 274.923 129.479L161.474 386.305C164.258 385.609 167.042 384.913 169.826 384.217L281.187 132.959Z" fill="#56B6F0"/>
<path d="M206.714 345.937L290.931 140.615C289.539 138.527 287.451 137.135 285.363 135.743L187.226 373.777C190.01 370.993 192.794 368.209 194.882 364.729L206.714 345.937Z" fill="#53B7EF"/>
<path d="M254.738 269.376L299.979 152.447L297.891 148.967C297.195 147.575 295.803 146.183 295.107 144.791L235.25 299.304L254.738 269.376Z" fill="#50B8EE"/>
<path d="M308.331 164.975L303.459 157.319L261.699 273.552C263.091 275.64 264.483 278.424 266.571 281.208L308.331 164.975Z" fill="#4DB9ED"/>
<path d="M316.683 178.895L311.811 171.239L272.139 290.952C273.531 293.736 275.619 295.824 277.011 298.608L316.683 178.895Z" fill="#4ABAEC"/>
<path d="M325.731 192.815L320.859 185.159L283.275 308.353C284.667 311.137 286.755 313.225 288.147 316.009L325.731 192.815Z" fill="#47BBEB"/>
<path d="M334.779 207.431L329.907 199.775L295.107 326.449C296.499 329.233 298.587 332.017 299.979 334.105L334.779 207.431Z" fill="#44BCEA"/>
<path d="M344.523 223.44L339.651 215.088L306.939 345.937C309.027 348.721 310.419 351.505 311.811 354.289L344.523 223.44Z" fill="#41BDE9"/>
<path d="M354.963 239.448L349.395 231.096L319.467 366.121C320.859 368.209 322.947 370.993 325.035 373.081L354.963 239.448Z" fill="#3EBEE8"/>
<path d="M371.668 228.312L361.228 245.016L334.779 380.041C336.867 381.433 338.955 382.129 341.043 383.521L371.668 228.312Z" fill="#3BBFE7"/>
<path d="M390.46 198.383L380.716 213.696L350.787 386.305C352.875 387.001 355.659 387.001 357.748 387.001L390.46 198.383Z" fill="#38C0E6"/>
<path d="M407.164 171.935L398.116 186.551L368.188 386.305C370.972 385.609 373.06 384.913 375.844 384.217L407.164 171.935Z" fill="#35C1E5"/>
<path d="M421.78 148.967L413.428 161.495L386.98 378.649C389.764 376.561 392.548 374.473 394.636 372.385L422.476 148.271C421.78 148.271 421.78 148.271 421.78 148.967Z" fill="#32C2E4"/>
<path d="M435.004 135.047C432.22 137.135 429.436 139.223 427.348 142.007L406.468 355.681C408.556 352.201 411.34 348.025 414.82 342.457L435.004 135.047Z" fill="#2FC3E3"/>
<path d="M446.836 128.783C444.052 129.479 441.964 130.871 439.876 132.263L425.26 326.449C428.044 322.273 430.132 318.097 432.916 313.921L446.836 128.783Z" fill="#2CC4E2"/>
<path d="M457.276 125.999C455.188 125.999 452.404 126.695 450.316 127.391L441.964 298.608C444.748 294.432 446.836 290.952 449.62 286.776L457.276 125.999Z" fill="#29C5E1"/>
<path d="M468.413 126.695C466.325 126.695 463.541 125.999 461.453 125.999L457.973 274.248C460.757 270.072 462.845 266.592 464.933 263.112L468.413 126.695Z" fill="#26C6E0"/>
<path d="M479.549 129.479C477.461 128.783 474.677 128.087 472.589 127.391V251.28C474.677 247.8 477.461 243.624 479.549 240.144V129.479Z" fill="#23C7DF"/>
<path d="M489.989 135.047C487.901 133.655 485.117 132.263 483.029 130.871L485.117 229.704C487.205 225.528 489.989 222.048 492.077 219.264L489.989 135.047Z" fill="#20C8DE"/>
<path d="M501.821 145.487C499.733 142.703 496.949 139.919 494.165 137.831L497.645 210.216C501.125 203.951 503.909 200.471 503.909 200.471V199.775L501.821 145.487Z" fill="#1DC9DD"/>
<path d="M509.477 189.335C513.653 176.111 512.261 163.583 506.693 153.839L509.477 189.335Z" fill="#1ACADC"/>
<path d="M0 176.807C0.696007 184.463 2.78403 192.815 7.65607 200.471L110.665 364.033C112.753 366.817 114.841 369.601 116.929 372.385L0 176.807Z" fill="#17CBDB"/>
<path d="M1.39201 162.887C0.696007 166.367 0 169.847 0 174.023L132.241 382.825C135.721 384.217 139.201 385.609 142.681 386.305L1.39201 162.887Z" fill="#14CCDA"/>
<path d="M4.87205 153.839C3.48003 156.623 2.08802 158.711 1.39201 161.495L151.729 387.001C154.513 387.001 157.298 387.001 159.386 386.305L4.87205 153.839Z" fill="#11CDD9"/>
<path d="M9.0481 146.879C7.65608 148.271 6.26407 150.359 4.87206 153.143L167.738 384.217C169.826 383.521 171.914 382.129 174.002 381.433L9.0481 146.879Z" fill="#0ECED8"/>
<path d="M14.6161 140.615C12.5281 142.007 11.1361 144.095 9.74408 145.487L180.962 376.561C183.05 375.169 184.442 373.777 185.834 371.689L14.6161 140.615Z" fill="#0BCFD7"/>
<path d="M20.1842 135.743C18.7922 137.135 16.7042 138.527 15.3122 139.919L191.402 366.121C192.794 364.033 194.186 361.945 194.882 359.857L20.1842 135.743Z" fill="#08D0D6"/>
<path d="M27.1442 131.567C25.0562 132.263 22.9682 133.655 20.8802 135.047L198.362 351.505C199.058 348.721 199.754 345.937 200.45 342.457L27.1442 131.567Z" fill="#05D1D5"/>
<path d="M27.8403 130.871L200.45 330.625C199.754 324.361 196.97 318.097 193.49 311.833C193.49 311.833 193.49 311.137 192.794 310.441L34.8003 128.087C32.0163 128.783 29.9283 130.175 27.8403 130.871Z" fill="#02D2D4"/>
<path d="M43.1524 125.999C41.0644 126.695 38.2804 127.391 35.4964 128.087L171.218 277.728C164.954 267.288 157.298 255.456 149.641 243.624L43.1524 125.999Z" fill="#00D3D3"/>
<path d="M54.2885 125.999C50.8085 125.999 48.0245 125.999 44.5444 125.999L136.417 222.048C130.153 211.608 123.193 201.167 117.625 192.119L54.2885 125.999Z" fill="#00D4D2"/>
<path d="M56.3765 126.695L109.273 179.591C101.617 167.759 95.3529 158.015 92.5689 153.143L70.9927 131.567C66.1206 128.783 61.2486 127.391 56.3765 126.695Z" fill="#00D5D1"/>
<path d="M77.9528 135.743L84.9128 142.007C82.8248 139.919 80.7368 137.831 77.9528 135.743Z" fill="#00D6D0"/>
</g>
<defs>
<clipPath id="clip0_1_51">
<rect width="512" height="261.003" fill="white" transform="translate(0 125.999)"/>
</clipPath>
</defs>
</svg>
