<svg xmlns="http://www.w3.org/2000/svg" xmlns:svg="http://www.w3.org/2000/svg" id="svg4585" version="1.1" viewBox="0 0 475 210"><metadata id="metadata4589"/><defs id="defs4559"><style id="style4557">.a{fill:#c73a63}.b{fill:#4b4b4b}.c{fill:#4a4a4a}</style></defs><title id="title4561">integration-tile</title><g style="font-style:normal;font-variant:normal;font-weight:700;font-stretch:normal;font-size:42.66666794px;line-height:125%;font-family:Sans;-inkscape-font-specification:'Sans, Bold';font-variant-ligatures:normal;font-variant-caps:normal;font-variant-numeric:normal;font-feature-settings:normal;text-align:start;letter-spacing:0;word-spacing:0;writing-mode:lr-tb;text-anchor:start;fill:green;fill-opacity:1;stroke:none;stroke-width:1px;stroke-linecap:butt;stroke-linejoin:miter;stroke-opacity:1" id="text4593" aria-label="d"><path style="font-style:normal;font-variant:normal;font-weight:700;font-stretch:normal;font-size:42.66666794px;font-family:Sans;-inkscape-font-specification:'Sans, Bold';font-variant-ligatures:normal;font-variant-caps:normal;font-variant-numeric:normal;font-feature-settings:normal;text-align:start;writing-mode:lr-tb;text-anchor:start;fill:green" id="path4639" d="m 385.52907,99.918309 v -12.5 h 7.5 v 32.416671 h -7.5 v -3.375 q -1.54166,2.0625 -3.39583,3.02083 -1.85417,0.95833 -4.29167,0.95833 -4.3125,0 -7.08333,-3.41666 -2.77083,-3.4375 -2.77083,-8.83334 0,-5.39583 2.77083,-8.812498 2.77083,-3.4375 7.08333,-3.4375 2.41667,0 4.27084,0.979167 1.875,0.958333 3.41666,3 z m -4.91666,15.104171 q 2.39583,0 3.64583,-1.75 1.27083,-1.75 1.27083,-5.08334 0,-3.33333 -1.27083,-5.08333 -1.25,-1.75 -3.64583,-1.75 -2.375,0 -3.64584,1.75 -1.25,1.75 -1.25,5.08333 0,3.33334 1.25,5.08334 1.27084,1.75 3.64584,1.75 z"/></g><path id="path4563" d="M128,98.15c-3.78,6.36-7.41,12.52-11.11,18.64a4.87,4.87,0,0,0-.66,4.84A9.06,9.06,0,0,1,109.84,134c-5.24,1.37-10.35-2.07-11.39-7.68-.92-5,2.93-9.84,8.41-10.61.46-.07.93-.07,1.7-.13l8.33-14c-5.24-5.21-8.36-11.3-7.67-18.85A21.42,21.42,0,0,1,115.64,69a21.79,21.79,0,0,1,27.19-2.85c8.3,5.33,12.11,15.73,8.87,24.62l-7.61-2.07c1-4.94.27-9.39-3.07-13.19a13.17,13.17,0,0,0-8.25-4.31,13.41,13.41,0,0,0-14.65,9.49C116,87.87,119.22,93.73,128,98.15Z" class="a"/><path id="path4565" d="M138.84,90.63l8.06,14.21c13.56-4.2,23.78,3.31,27.45,11.35a21.92,21.92,0,0,1-7.3,27.19c-8.93,6.15-20.22,5.1-28.14-2.8l6.21-5.2c7.82,5.06,14.65,4.82,19.72-1.17a13.6,13.6,0,0,0-.22-17.74c-5.14-5.78-12-6-20.34-.41-3.45-6.12-7-12.2-10.3-18.36A6.27,6.27,0,0,0,129.06,94a8.74,8.74,0,0,1-7.14-8.46,9.22,9.22,0,0,1,16.41-6.25,8.68,8.68,0,0,1,1.6,8.59C139.64,88.74,139.25,89.59,138.84,90.63Z" class="b"/><path id="path4567" d="M145.21,129.08H128.88c-1.56,6.44-4.94,11.63-10.77,14.94a21.77,21.77,0,0,1-14.6,2.6,22.18,22.18,0,0,1-18.07-19.84,22,22,0,0,1,16.83-22.93l2.09,7.58c-9.23,4.71-12.42,10.64-9.84,18.06,2.27,6.53,8.73,10.11,15.75,8.72s10.77-7.36,10.33-16.92c6.79,0,13.58-.07,20.37,0,2.65,0,4.7-.23,6.7-2.57,3.29-3.85,9.34-3.5,12.88.13a9.25,9.25,0,1,1-13.37,12.79A31.92,31.92,0,0,1,145.21,129.08Z" class="c"/><path id="path4569" d="M197,96.06h6.27l3.6,17,3.69-17H217l-6.86,23.65H203.8l-3.71-17.23-3.75,17.23h-6.42l-6.64-23.65h6.64l3.69,17Z" class="b"/><path id="path4571" d="M234.22,96.54a9.62,9.62,0,0,1,4.09,3.5,11.63,11.63,0,0,1,1.88,4.89,30.27,30.27,0,0,1,.2,4.69H223.17q.14,3.56,2.47,5a6.28,6.28,0,0,0,3.41.89,4.8,4.8,0,0,0,4.71-2.71h6.31a7.72,7.72,0,0,1-2.29,4.27q-3.18,3.45-8.9,3.45a12.89,12.89,0,0,1-8.33-2.91q-3.61-2.91-3.61-9.47,0-6.15,3.26-9.42a11.4,11.4,0,0,1,8.46-3.28A13.45,13.45,0,0,1,234.22,96.54ZM225,101.89a6.42,6.42,0,0,0-1.65,3.66H234a5.16,5.16,0,0,0-1.65-3.74,5.42,5.42,0,0,0-3.67-1.28A4.9,4.9,0,0,0,225,101.89Z" class="b"/><path id="path4573" d="M263.21,98.91a13.59,13.59,0,0,1,2.65,8.68,15.2,15.2,0,0,1-2.62,9.14,9.5,9.5,0,0,1-12,2.45,9.4,9.4,0,0,1-2.31-2.43v3h-6.1V87.77H249V99.14a9.06,9.06,0,0,1,2.6-2.52,7.76,7.76,0,0,1,4.28-1.08A8.84,8.84,0,0,1,263.21,98.91ZM258,113.31a8.76,8.76,0,0,0,1.34-5.08,11.35,11.35,0,0,0-.66-4.17,4.57,4.57,0,0,0-4.59-3.12,4.64,4.64,0,0,0-4.66,3.06,11.39,11.39,0,0,0-.66,4.21,8.76,8.76,0,0,0,1.36,5,4.65,4.65,0,0,0,4.13,2A4.29,4.29,0,0,0,258,113.31Z" class="b"/><path id="path4575" d="M286,96.19a6.94,6.94,0,0,1,2.93,2.32,6.2,6.2,0,0,1,1.19,2.73,33.62,33.62,0,0,1,.22,4.57v13.9H284v-14.4a6.38,6.38,0,0,0-.65-3.08,3.24,3.24,0,0,0-3.19-1.65,4.37,4.37,0,0,0-3.69,1.64,7.55,7.55,0,0,0-1.26,4.68v12.82H269V87.84h6.18V99.12a7.58,7.58,0,0,1,3.1-2.87,8.73,8.73,0,0,1,3.71-.81A10,10,0,0,1,286,96.19Z" class="b"/><path id="path4577" d="M314.44,116.82q-3,3.7-9.09,3.7t-9.09-3.7a14.68,14.68,0,0,1,0-17.77q3-3.75,9.09-3.75t9.09,3.75a14.67,14.67,0,0,1,0,17.77Zm-4.95-3.42a9,9,0,0,0,1.45-5.48,8.92,8.92,0,0,0-1.45-5.47,5.5,5.5,0,0,0-8.34,0,8.86,8.86,0,0,0-1.46,5.47,8.91,8.91,0,0,0,1.46,5.48,5.48,5.48,0,0,0,8.34,0Z" class="b"/><path id="path4579" d="M340.37,116.82q-3,3.7-9.09,3.7t-9.09-3.7a14.67,14.67,0,0,1,0-17.77q3-3.75,9.09-3.75t9.09,3.75a14.67,14.67,0,0,1,0,17.77Zm-4.95-3.42a9,9,0,0,0,1.45-5.48,8.92,8.92,0,0,0-1.45-5.47,5.5,5.5,0,0,0-8.34,0,8.86,8.86,0,0,0-1.46,5.47,8.91,8.91,0,0,0,1.46,5.48,5.48,5.48,0,0,0,8.34,0Z" class="b"/><path id="path4581" d="M346.43,87.84h6.08v17.25l7.8-8.92H368L359.52,105l8.81,14.73H360.8l-5.73-10.11-2.56,2.66v7.44h-6.08Z" class="b"/><rect style="fill:green;fill-opacity:1" id="rect4618" width="30.514" height="5.425" x="394.705" y="115.014"/></svg>