<svg xmlns="http://www.w3.org/2000/svg" width="800" height="800" preserveAspectRatio="xMidYMid" viewBox="-19.5 0 295 295"><path fill="#EB324B" d="M125.331 293.51c-3.118-1.658-121.475-70.037-122.633-70.849-2.463-1.729-2.297 3.704-2.297-75.23 0-78.936-.166-73.502 2.297-75.232.61-.427 28.67-16.687 62.355-36.133C107.32 11.668 126.75.658 127.751.54c1.811-.214-4.43-3.711 67.33 37.72 42.38 24.468 59.226 34.391 59.85 35.255l.869 1.202v145.427l-.869 1.202c-.624.864-17.465 10.784-59.851 35.255-67.06 38.716-65.522 37.846-66.92 37.853-.573.004-1.846-.421-2.829-.944Z"/><path fill="#333943" d="M126.397 275.238c-.44-.188-24.952-14.3-54.47-31.361-34.351-19.855-53.962-31.413-54.485-32.113-.813-1.09-.816-1.326-.816-64.334 0-63.047.002-63.243.818-64.335.525-.703 20.06-12.217 54.485-32.112 29.517-17.06 54.116-31.194 54.665-31.411.548-.217 1.553-.29 2.232-.163.967.181 104.484 59.604 108.805 62.458.584.386 1.247 1.188 1.475 1.783.276.722.456 22.028.54 64.05l.129 62.968-.839 1.132c-.553.747-12.01 7.575-33.653 20.056-81.042 46.735-75.862 43.807-77.41 43.75-.37-.015-1.035-.18-1.476-.368Zm2.77-69.648c1.108-2.144 5.303-7.487 8.675-11.05 1.858-1.962 8.967-8.558 15.798-14.658 15.764-14.076 20.858-19.385 26.141-27.244 6.775-10.078 10.003-22.102 8.497-31.649-1.65-10.458-8.018-19.169-17.411-23.816-4.05-2.004-6.983-2.692-12.42-2.914-3.993-.163-5.418-.051-8.413.66-8.679 2.059-16.207 7.752-20.303 15.353-.683 1.267-1.394 2.304-1.58 2.304-.186 0-.785-.883-1.332-1.962-1.429-2.82-5.446-7.664-7.916-9.544-6.925-5.274-12.884-7.18-21.304-6.817-5.447.235-8.748 1.08-13.113 3.36-7.469 3.9-13.574 11.516-15.849 19.77-.893 3.24-.993 13.34-.169 17.027 1.92 8.59 6.36 17.046 13.251 25.24 3.87 4.6 11.215 11.695 22.243 21.481 13.554 12.028 18.433 17.105 22.404 23.312.802 1.254 1.628 2.28 1.836 2.28.208 0 .642-.51.964-1.133Z"/><path fill="#252A32" d="M151.605 228.562c-12.322-11.157-22.463-20.551-22.536-20.877-.146-.653 1.673-3.682 4.067-6.771 3.656-4.717 8.413-9.417 20.1-19.861 19.503-17.427 24.871-23.372 30.363-33.623 3.733-6.968 5.5-13.982 5.49-21.786-.007-5.914-.768-9.263-3.275-14.435-.632-1.303-1.099-2.488-1.037-2.635.113-.268 52.387 48.13 53.696 49.715.651.788.7 2.65.699 26.344-.002 23.55-.056 25.582-.701 26.626-.512.829-9.06 5.96-31.948 19.182-17.187 9.928-31.534 18.13-31.882 18.228-.41.115-8.524-6.968-23.036-20.107Z"/></svg>