<?xml version="1.0" encoding="utf-8"?>
<!-- Generator: Adobe Illustrator 27.7.0, SVG Export Plug-In . SVG Version: 6.00 Build 0)  -->
<svg version="1.1"
	 id="svg8" xmlns:cc="http://creativecommons.org/ns#" xmlns:sodipodi="http://sodipodi.sourceforge.net/DTD/sodipodi-0.dtd" xmlns:inkscape="http://www.inkscape.org/namespaces/inkscape" xmlns:svg="http://www.w3.org/2000/svg" xmlns:rdf="http://www.w3.org/1999/02/22-rdf-syntax-ns#" xmlns:dc="http://purl.org/dc/elements/1.1/" inkscape:export-ydpi="96" sodipodi:docname="logo.svg"
	 xmlns="http://www.w3.org/2000/svg" xmlns:xlink="http://www.w3.org/1999/xlink" x="0px" y="0px" viewBox="0 0 512 512"
	 style="enable-background:new 0 0 512 512;" xml:space="preserve">
<style type="text/css">
	.st0{fill:#2A4C7D;stroke:#2A4C7D;stroke-width:0.7112;stroke-miterlimit:11.3386;}
	.st1{fill:#FFFFFF;}
</style>
<sodipodi:namedview  bordercolor="#666666" borderopacity="1.0" fit-margin-bottom="0" fit-margin-left="0" fit-margin-right="0" fit-margin-top="0" id="base" inkscape:current-layer="layer1" inkscape:cx="278.65121" inkscape:cy="155.36463" inkscape:document-rotation="0" inkscape:document-units="mm" inkscape:guide-bbox="true" inkscape:pageopacity="0.0" inkscape:pageshadow="2" inkscape:window-height="1030" inkscape:window-maximized="0" inkscape:window-width="1942" inkscape:window-x="2563" inkscape:window-y="51" inkscape:zoom="0.9899495" pagecolor="#ffffff" showgrid="false" showguides="true">
	</sodipodi:namedview>
<g id="layer1" transform="translate(-77.424902,-67.793738)" inkscape:groupmode="layer" inkscape:label="Ebene 1">
	
		<path id="path28-3" inkscape:export-xdpi="96" inkscape:export-ydpi="96" sodipodi:nodetypes="ccsscsaccssascsasccssc" class="st0" d="
		M317.9,577.6c-65.5-30.4-118.7-62.1-185.6-99.5c-30.2-16.9-32-19.3-41.1-29.4c-3.6-4.1-5.5-9.1-5.5-12.2c0-36.2,0-113.5,0-113.5
		V209.5c0-3.1,2.3-8.3,4.9-11.6c11-14,11.8-14.5,43.2-31.6c49.9-28.3,103.6-51.5,153.3-79.9c32.5-18.6,41-21.1,57.2-17
		c10.4,2.6,214.2,110.2,222.5,118c3,2.8,6.7,6.7,9.2,10.6c2.2,3.5,5,8.3,5,11.5v112.7V435c0,3.3-2.4,6.3-4.3,9
		c-5.8,8.3-12.7,15.9-21.2,21.6c-2.2,1.5-9.1,5.8-13.3,8.4c-54.5,29.1-107.7,58.4-157.1,84.7c-4.5,2.4-10.1,5.4-12.6,6.8
		c-22.6,12.9-24.6,13.7-36.1,14.2C328.3,580.1,323.3,579.5,317.9,577.6L317.9,577.6z"/>
	<path id="path981" inkscape:export-xdpi="96" inkscape:export-ydpi="96" class="st1" d="M224.5,228.2v13.6h-34v13.6h-34V303h-13.6
		v40.8h13.6v47.7h34v13.6h34v13.6h47.7v-74.9h122.5v74.9h47.7v-13.6h34v-13.6h34v-47.7H524V303h-13.6v-47.7h-34v-13.6h-34v-13.6
		h-47.7V303H272.2v-74.9H224.5z M238.1,241.8h20.4v163.4h-20.4V241.8z M408.3,241.8h20.4v163.4h-20.4V241.8z M204.1,255.4h20.4
		v136.2h-20.4V255.4z M442.4,255.4h20.4v136.2h-20.4V255.4z M170,269h20.4v108.9H170V269z M476.4,269h20.4v108.9h-20.4V269z
		 M272.2,316.7h122.5v13.6H272.2V316.7z"/>
</g>
</svg>
