<svg xmlns="http://www.w3.org/2000/svg" xml:space="preserve" viewBox="0 100.45 512.01 311.14"><path d="M114.81 101c-.21.32-1.11.9-2.02 1.33-5.36 2.55-13.84 9.07-19.51 14.9-4.56 4.83-10.45 12.41-12.99 16.92-3.34 5.89-5.89 11.93-7.37 17.5-.37 1.43-.95 3.5-1.27 4.51s-.58 2.6-.58 3.55c0 1.91-.64 2.28-2.92 1.7-.85-.21-5.89-.69-11.19-1.06-23.33-1.54-43.01 2.92-54.41 12.41-2.23 1.8-2.55 2.33-2.55 4.03 0 3.23 2.97 10.5 6.63 16.23 6.26 9.86 17.76 20.2 28.64 25.83 10.82 5.62 23.28 8.54 38.98 9.28l7.69.32 1.11 2.7c7.58 18.19 16.28 36.75 21.37 45.61 1.38 2.33 2.65 4.67 2.86 5.09s.9 1.64 1.54 2.76c.69 1.06 1.91 3.08 2.76 4.51 4.03 6.73 14.95 22.54 15.8 22.86.21.11.42.53.42.9 0 .42.32.95.69 1.17.32.21 2.44 2.7 4.67 5.46 5.36 6.73 15.75 17.92 20.95 22.64 2.28 2.07 4.83 4.35 5.57 5.04 24.82 22.48 58.17 40.57 94.34 51.28 2.17.64 4.77 1.43 5.78 1.75 1.8.53 4.98 1.33 11.45 2.76 1.75.42 4.24 1.01 5.57 1.33 5.94 1.43 21.8 4.03 29.43 4.83 21.64 2.28 38.98 2.92 56.32 2.12 7.53-.32 15.86-.85 18.45-1.06 10.13-1.01 19.14-2.12 20.95-2.65 1.01-.27 2.55-.53 3.34-.53 1.33 0 7-1.11 13.63-2.7 1.33-.32 3.82-.9 5.57-1.33 1.75-.37 4.88-1.22 6.89-1.8 2.07-.64 4.77-1.38 6.1-1.7s2.65-.74 2.92-1.01c.32-.21 1.54-.64 2.65-.95 6.26-1.54 18.67-7.32 25.77-12.04 2.39-1.59 4.51-2.86 4.77-2.86.21 0 .64-.32.85-.69s1.06-1.06 1.86-1.59c2.39-1.48 17.61-16.81 21.21-21.32 3.61-4.56 9.76-13.68 11.88-17.66.69-1.33 1.48-2.65 1.75-2.97s.58-1.06.8-1.64c.32-1.06.11-1.06-27.2-.9l-27.52.16-1.48-1.33-1.54-1.27-.27-62.52-.27-62.47-15.48-.16-15.54-.11-.11 49.16c-.16 45.23-.27 49.48-1.11 52.34-4.03 13.58-14.74 23.33-28.16 25.72-1.75.32-8.43.58-14.9.58-9.97 0-12.41-.16-15.86-1.06-9.86-2.49-18.08-9.01-22.86-18.08-3.87-7.37-3.66-4.24-3.98-59.07l-.27-49.32-15.48-.16-15.54-.11v47.41c0 53.61.11 52.23-3.92 60.45-4.19 8.64-11.3 14.9-20.73 18.19-4.08 1.38-4.72 1.48-16.7 1.64-14.32.27-17.82-.16-24.23-2.92-4.03-1.7-4.45-1.75-5.57-1.01-.69.42-3.13 1.43-5.46 2.23-4.14 1.43-4.67 1.48-17.39 1.7-10.76.16-13.84.05-17.02-.64-7.42-1.7-15.43-6.58-19.89-12.14-2.39-2.97-5.41-8.17-6.1-10.45-.21-.74-.64-2.17-1.01-3.18-.42-1.33-.69-16.6-.9-51.44l-.27-49.58-4.51-.37c-2.44-.21-5.57-.58-6.89-.9-1.33-.27-3.45-.64-4.77-.85-1.33-.16-3.71-.69-5.3-1.11-6.52-1.86-10.39-3.08-11.67-3.66-.74-.37-2.23-1.06-3.29-1.59l-1.91-.9 2.86-5.67c2.92-5.73 4.72-10.34 5.52-14.11.27-1.17.69-2.81 1.01-3.61.32-.85.85-4.93 1.22-9.12.69-8.43.05-19.51-1.43-25.4-1.43-5.57-2.44-8.96-3.5-11.72-.53-1.48-1.01-2.86-1.01-3.08 0-.58-1.75-4.51-4.3-9.65-2.39-4.72-2.65-5.25-5.09-8.86-.95-1.38-1.75-2.65-1.75-2.81 0-.21-.74-1.27-1.7-2.44-1.6-2.05-3.19-2.69-3.88-1.57"/><path d="M200.29 208.44c-.21.21-.37 20.95-.37 46.08 0 34.79.16 45.82.64 46.29.42.42 3.08.64 8.48.64 7.69 0 7.85 0 8.11-1.22.16-.64.21-21.58.16-46.51l-.16-45.34-8.27-.16c-4.5-.05-8.38.06-8.59.22m52.24 46.18.16 46.56h16.44l.16-46.56.11-46.51h-16.98zm118.25 0 .16 46.56h16.44l.16-46.56.11-46.51h-16.96zm118.42-33.67c-.16.37-.21 18.56-.16 40.46l.16 39.77h16.44v-80.6l-8.11-.16c-6.16-.11-8.17 0-8.33.53"/></svg>