<svg xmlns="http://www.w3.org/2000/svg" version="1.0" width="989.000000pt" height="989.000000pt" viewBox="0 0 989.000000 989.000000" preserveAspectRatio="xMidYMid meet">

<g transform="translate(0.000000,989.000000) scale(0.100000,-0.100000)" fill="#000e34" stroke="none">
<path d="M2165 8020 c-4 -6 -21 -17 -38 -25 -101 -48 -261 -171 -368 -281 -86 -91 -197 -234 -245 -319 -63 -111 -111 -225 -139 -330 -7 -27 -18 -66 -24 -85 -6 -19 -11 -49 -11 -67 0 -36 -12 -43 -55 -32 -16 4 -111 13 -211 20 -440 29 -811 -55 -1026 -234 -42 -34 -48 -44 -48 -76 0 -61 56 -198 125 -306 118 -186 335 -381 540 -487 204 -106 439 -161 735 -175 l145 -6 21 -51 c143 -343 307 -693 403 -860 26 -44 50 -88 54 -96 4 -8 17 -31 29 -52 13 -20 36 -58 52 -85 76 -127 282 -425 298 -431 4 -2 8 -10 8 -17 0 -8 6 -18 13 -22 6 -4 46 -51 88 -103 101 -127 297 -338 395 -427 43 -39 91 -82 105 -95 468 -424 1097 -765 1779 -967 41 -12 90 -27 109 -33 34 -10 94 -25 216 -52 33 -8 80 -19 105 -25 112 -27 411 -76 555 -91 408 -43 735 -55 1062 -40 142 6 299 16 348 20 191 19 361 40 395 50 19 5 48 10 63 10 25 0 132 21 257 51 25 6 72 17 105 25 33 7 92 23 130 34 39 12 90 26 115 32 25 6 50 14 55 19 6 4 29 12 50 18 118 29 352 138 486 227 45 30 85 54 90 54 4 0 12 6 16 13 4 7 20 20 35 30 45 28 332 317 400 402 68 86 184 258 224 333 13 25 28 50 33 56 5 6 11 20 15 31 6 20 2 20 -513 17 l-519 -3 -28 25 -29 24 -5 1179 -5 1178 -292 3 -293 2 -2 -927 c-3 -853 -5 -933 -21 -987 -76 -256 -278 -440 -531 -485 -33 -6 -159 -11 -281 -11 -188 0 -234 3 -299 20 -186 47 -341 170 -431 341 -73 139 -69 80 -75 1114 l-5 930 -292 3 -293 2 0 -894 c0 -1011 2 -985 -74 -1140 -79 -163 -213 -281 -391 -343 -77 -26 -89 -28 -315 -31 -270 -5 -336 3 -457 55 -76 32 -84 33 -105 19 -13 -8 -59 -27 -103 -42 -78 -27 -88 -28 -328 -32 -203 -3 -261 -1 -321 12 -140 32 -291 124 -375 229 -45 56 -102 154 -115 197 -4 14 -12 41 -19 60 -8 25 -13 313 -17 970 l-5 935 -85 7 c-46 4 -105 11 -130 17 -25 5 -65 12 -90 16 -25 3 -70 13 -100 21 -123 35 -196 58 -220 69 -14 7 -42 20 -62 30 l-36 17 54 107 c55 108 89 195 104 266 5 22 13 53 19 68 6 16 16 93 23 172 13 159 1 368 -27 479 -27 105 -46 169 -66 221 -10 28 -19 54 -19 58 0 11 -33 85 -81 182 -45 89 -50 99 -96 167 -18 26 -33 50 -33 53 0 4 -14 24 -32 46 -30 38 -60 50 -73 29z" fill="#000e34"/>
<path d="M3777 5994 c-4 -4 -7 -395 -7 -869 0 -656 3 -864 12 -873 8 -8 58 -12 160 -12 145 0 148 0 153 23 3 12 4 407 3 877 l-3 855 -156 3 c-85 1 -158 -1 -162 -4z" fill="#000e34"/>
<path d="M4762 5123 l3 -878 155 0 155 0 3 878 2 877 -160 0 -160 0 2 -877z" fill="#000e34"/>
<path d="M6992 5123 l3 -878 155 0 155 0 3 878 2 877 -160 0 -160 0 2 -877z" fill="#000e34"/>
<path d="M9225 5758 c-3 -7 -4 -350 -3 -763 l3 -750 155 0 155 0 0 760 0 760 -153 3 c-116 2 -154 0 -157 -10z" fill="#000e34"/>
</g>
</svg>
