<svg xmlns="http://www.w3.org/2000/svg" viewBox="0 0 1200 1200"><circle cx="600" cy="600" r="566" fill="#ff69b4" stroke="#333" stroke-width="60" paint-order="fill"/><path fill="#333" d="M143.133 291.96q-1.926 0-1.312-2.461.587-2.354 3.42-5.992l28.067-29.746q12.938-13.696 19.727-22.47 6.788-8.774 7.695-12.412.427-1.712-.644-2.568-1.07-.856-2.702-1.177-1.632-.321-3.13-.321-9.095 0-28.134 11.128-5.374 3.103-10.187 6.955-4.812 3.852-9.223 8.239-8.607 8.774-10.101 14.766-1.148 4.601 2.892 5.564 1.499.428 3.532.428 3.852 0 8.184-1.926 4.332-1.926 8.717-4.922 3.369-2.354 3.797-2.354.428 0 .134.749-1.202 2.247-4.17 4.28-2.968 2.033-6.805 3.691-3.838 1.659-7.542 2.568-3.704.91-6.38.91-4.28 0-6.942-2.194-2.664-2.193-1.596-6.473 1.627-6.527 11.598-16.05 9.57-9.202 22.058-16.371 5.134-2.996 11.7-5.725 6.565-2.728 12.997-4.494 6.432-1.765 11.14-1.765 8.453 0 7.066 5.564-1.681 6.741-15.954 23.219-9.997 11.342-25.662 26.964-12.965 12.947-13.072 12.947.32 0 13.02-11.021 7.806-6.848 14.557-12.252 6.75-5.403 12.365-9.469 2.754-2.033 6.724-5.083l9.264-7.115q4.6-3.424 8.877-6.206 4.278-2.782 7.274-2.782 3.103 0 3.693 1.498-12.885 12.198-25.847 29.853-9.247 12.626-10.875 19.153-.96 3.852.646 5.564 1.606 1.712 4.923 1.712 3.638 0 8.158-2.033 4.519-2.033 9.278-5.243 4.76-3.21 9.064-6.741 15.4-12.412 26.277-26.857 8.5-11.342 10.18-18.083.16-.642.24-1.177.08-.535.08-.963-2.248 0-4.229-2.354-1.285-1.284-.938-2.675.32-1.284 1.604-2.14 1.283-.856 2.674-.856 2.033 0 2.543 1.819.214.856 1.178 2.14.643.856.429 1.284.402.963 1.9.963 1.498 0 3.156-1.284 1.657-1.284 3.262-1.284.856 0 .696.642-.293 1.177-2.593 2.247-1.257.749-2.808.963-.883.107-1.752.16-.87.054-1.672-.16.217 4.28-.29 6.313-2.134 8.56-13.655 22.149-5.773 6.848-12.537 12.947-6.763 6.099-14.624 11.449-15.668 10.914-25.726 10.914-11.021 0-8.46-10.272 1.2-4.815 4.767-10.968 3.567-6.152 7.87-12.251l11.892-16.799q-5.615 3.638-9.13 5.938-3.517 2.301-5.897 3.906-2.38 1.605-4.558 3.263-2.18 1.659-5.227 4.013-3.342 2.675-9.077 7.65-5.734 4.976-13.567 12.359l-16.2 15.194q-1.39 1.284-3.048 2.354-1.658 1.07-3.049 1.07Z" transform="matrix(7.98613 .00046 -.13594 8.98858 -961.198 -1658.145)" style="white-space:pre"/></svg>