<svg viewBox="0 0 256 256" fill="none" xmlns="http://www.w3.org/2000/svg" width="32px" height="32px" class="logo__4fxrRzyG logo-bgRoundedSquare__4fxrRzyG logo-light" lightclassname="motif-active__4fxrRzyG" darkclassname="" alt="WifiMan Logo" prefixid="56d04e84-fc9e-493f-b8c1-3cf3b3de4aa5"><g clip-path="url(#56d04e84-fc9e-493f-b8c1-3cf3b3de4aa5__f405ce)" role="bgSquare" class="motif-active__4fxrRzyG"><path fill="url(#56d04e84-fc9e-493f-b8c1-3cf3b3de4aa5__376722)" d="M0 0h256v256H0z"></path><path fill-rule="evenodd" clip-rule="evenodd" d="M186.136 112.678h-2.648s-2.353 11.512-8.729 13.082c-6.375 1.569-11.278-1.57-13.142-4.315-1.864-2.747-5.493-8.533-6.375-10.005-.883-1.471-.294-3.53.981-4.609 1.275-1.079 4.316-1.177 5.688 2.844 0-.196 2.815-9.905 8.568-12.946 5.751-3.04 14.873-1.275 19.678.784 0 0-.097 2.747-.588 4.512-.093.334-.154.661-.212.971-.249 1.332-.443 2.364-2.829 2.364-.694 0-1.531.011-2.414.022-2.82.037-6.114.08-6.779-.206-.01-.008-.018-.012-.026-.012l.026.012c.041.031.105.12.2.25.546.752 2.076 2.859 5.463 2.778l4.119-.098-.981 4.572Zm-11.865 16.763s5.685 1.81 10.393-10.155c0 .098 19.714-5.394 22.263-6.375 2.55-.981 3.237 1.275 1.962 4.022-1.275 2.745-6.375 11.377-32.072 25.205-.098-.097-2.546-12.697-2.546-12.697Zm-16.676-6.724c6.081 7.356 13.044 7.16 13.044 7.16s1.766 10.298 1.849 13.436l.005.193c.085 3.093.182 6.627-5.679 9.125-31.776 14.417-57.963 11.671-62.181 11.083-3.107-.434-.41-1.613 4.443-3.735 1.732-.757 3.739-1.634 5.855-2.641 8.043-3.824 7.258-8.532 7.258-8.336 18.242-5.493 24.814-10.69 28.247-13.437 3.433-2.746 2.255-5.001-1.766-5.884-7.258-.883-18.34 1.177-20.988 1.863-2.649.687-2.354.883-.856.883 1.5 0 14.292-.49 18.411-.784 4.12-.295 3.433 1.372-.588 4.118-10.736 6.71-23.674 8.687-30.48 9.726-.655.1-1.254.192-1.788.278-6.08.981-6.963-2.452-4.315-6.473 16.183-22.361 28.933-27.952 32.66-29.128 3.727-1.178 9.514.472 9.514.472s1.275 4.726 7.355 12.081Z" fill="url(#56d04e84-fc9e-493f-b8c1-3cf3b3de4aa5__72a542)"></path><path fill-rule="evenodd" clip-rule="evenodd" d="M147 105.004s-29.161-12.423-37.138-14.908C101.885 87.612 73.508 82.511 45 109.19c0 .131 11.638 12.946 11.638 12.946s16.608-16.085 37.139-17.785c20.531-1.7 37.4 6.292 37.4 6.292s7.977-4.853 15.823-5.638Z" fill="#003C9E"></path><path fill-rule="evenodd" clip-rule="evenodd" d="M123.985 115.337s-11.638 9.547-16.477 17.132c-.13-.262-15.954-3.009-31.515 9.676 0-.13-11.77-12.423-11.77-12.423s16.87-21.577 59.762-14.385Zm-40.67 35.568 10.789 11.508s7.388-3.401 13.927-5.754c6.538-2.354 8.5-5.754 8.5-5.754s-19.223.915-14.123-8.762c-.131-.262-8.5-2.484-19.093 8.762Z" fill="#003C9E"></path></g><defs><radialGradient id="56d04e84-fc9e-493f-b8c1-3cf3b3de4aa5__376722" cx="0" cy="0" r="1" gradientUnits="userSpaceOnUse" gradientTransform="matrix(0 256 -256 0 128 0)"><stop stop-color="#006FFF"></stop><stop offset="1" stop-color="#003C9E"></stop></radialGradient><linearGradient id="56d04e84-fc9e-493f-b8c1-3cf3b3de4aa5__72a542" x1="146.283" y1="212.453" x2="210.191" y2="111.209" gradientUnits="userSpaceOnUse"><stop stop-color="#C2C4CE"></stop><stop offset="0.397" stop-color="#D6D9E2"></stop><stop offset="1" stop-color="#fff"></stop></linearGradient><clipPath id="56d04e84-fc9e-493f-b8c1-3cf3b3de4aa5__f405ce"><path d="M0 0h256v256H0V0Z" fill="#fff"></path></clipPath></defs><g clip-path="url(#56d04e84-fc9e-493f-b8c1-3cf3b3de4aa5__a279b0)" role="bgRoundedSquare" class="motif-active__4fxrRzyG"><rect width="256" height="256" rx="51" fill="url(#56d04e84-fc9e-493f-b8c1-3cf3b3de4aa5__57a381)"></rect><path fill-rule="evenodd" clip-rule="evenodd" d="M186.136 112.678h-2.648s-2.353 11.512-8.729 13.082c-6.375 1.569-11.278-1.57-13.142-4.315-1.864-2.747-5.493-8.533-6.375-10.005-.883-1.471-.294-3.53.981-4.609 1.275-1.079 4.316-1.177 5.688 2.844 0-.196 2.815-9.905 8.568-12.946 5.751-3.04 14.873-1.275 19.678.784 0 0-.097 2.747-.588 4.512-.093.334-.154.661-.212.971-.249 1.332-.443 2.364-2.829 2.364-.694 0-1.531.011-2.414.022-2.82.037-6.114.08-6.779-.206-.01-.008-.018-.012-.026-.012l.026.012c.041.031.105.12.2.25.546.752 2.076 2.859 5.463 2.778l4.119-.098-.981 4.572Zm-11.865 16.763s5.685 1.81 10.393-10.155c0 .098 19.714-5.394 22.263-6.375 2.55-.981 3.237 1.275 1.962 4.022-1.275 2.745-6.375 11.377-32.072 25.205-.098-.097-2.546-12.697-2.546-12.697Zm-16.676-6.724c6.081 7.356 13.044 7.16 13.044 7.16s1.766 10.298 1.849 13.436l.005.193c.085 3.093.182 6.627-5.679 9.125-31.776 14.417-57.963 11.671-62.181 11.083-3.107-.434-.41-1.613 4.443-3.735 1.732-.757 3.739-1.634 5.855-2.641 8.043-3.824 7.258-8.532 7.258-8.336 18.242-5.493 24.814-10.69 28.247-13.437 3.433-2.746 2.255-5.001-1.766-5.884-7.258-.883-18.34 1.177-20.988 1.863-2.649.687-2.354.883-.856.883 1.5 0 14.292-.49 18.411-.784 4.12-.295 3.433 1.372-.588 4.118-10.736 6.71-23.674 8.687-30.48 9.726-.655.1-1.254.192-1.788.278-6.08.981-6.963-2.452-4.315-6.473 16.183-22.361 28.933-27.952 32.66-29.128 3.727-1.178 9.514.472 9.514.472s1.275 4.726 7.355 12.081Z" fill="url(#56d04e84-fc9e-493f-b8c1-3cf3b3de4aa5__3f2642)"></path><path fill-rule="evenodd" clip-rule="evenodd" d="M147 105.004s-29.161-12.423-37.138-14.908C101.885 87.612 73.508 82.511 45 109.19c0 .131 11.638 12.946 11.638 12.946s16.608-16.085 37.139-17.785c20.531-1.7 37.4 6.292 37.4 6.292s7.977-4.853 15.823-5.638Z" fill="#003C9E"></path><path fill-rule="evenodd" clip-rule="evenodd" d="M123.985 115.337s-11.638 9.547-16.477 17.132c-.13-.262-15.954-3.009-31.515 9.676 0-.13-11.77-12.423-11.77-12.423s16.87-21.577 59.762-14.385Zm-40.67 35.568 10.789 11.508s7.388-3.401 13.927-5.754c6.538-2.354 8.5-5.754 8.5-5.754s-19.223.915-14.123-8.762c-.131-.262-8.5-2.484-19.093 8.762Z" fill="#003C9E"></path></g><defs><radialGradient id="56d04e84-fc9e-493f-b8c1-3cf3b3de4aa5__57a381" cx="0" cy="0" r="1" gradientUnits="userSpaceOnUse" gradientTransform="matrix(0 256 -256 0 128 0)"><stop stop-color="#006FFF"></stop><stop offset="1" stop-color="#003C9E"></stop></radialGradient><linearGradient id="56d04e84-fc9e-493f-b8c1-3cf3b3de4aa5__3f2642" x1="146.283" y1="212.453" x2="210.191" y2="111.209" gradientUnits="userSpaceOnUse"><stop stop-color="#C2C4CE"></stop><stop offset="0.397" stop-color="#D6D9E2"></stop><stop offset="1" stop-color="#fff"></stop></linearGradient><clipPath id="56d04e84-fc9e-493f-b8c1-3cf3b3de4aa5__a279b0"><path fill="#fff" d="M0 0h256v256H0z"></path></clipPath></defs><g clip-path="url(#56d04e84-fc9e-493f-b8c1-3cf3b3de4aa5__e1a789)" role="bgSquare" class=""><path fill="url(#56d04e84-fc9e-493f-b8c1-3cf3b3de4aa5__f51dba)" d="M0 0h256v256H0z"></path><path fill-rule="evenodd" clip-rule="evenodd" d="M186.136 112.678h-2.648s-2.354 11.512-8.729 13.081c-6.375 1.57-11.278-1.569-13.142-4.315-1.864-2.746-5.493-8.533-6.376-10.004-.882-1.471-.293-3.531.982-4.61 1.275-1.079 4.315-1.176 5.688 2.845 0-.197 2.815-9.906 8.568-12.947 5.751-3.04 14.873-1.275 19.678.785 0 0-.097 2.746-.588 4.512-.093.334-.154.66-.212.971-.25 1.331-.443 2.363-2.829 2.363-.694 0-1.531.011-2.414.023-2.82.037-6.114.08-6.779-.207-.01-.008-.019-.012-.026-.012l.018.008a.02.02 0 0 0 .008.004c.04.031.105.121.199.25.546.752 2.077 2.859 5.464 2.778l4.119-.098-.981 4.573Zm-11.865 16.762s5.685 1.811 10.392-10.154c0 .098 19.714-5.394 22.264-6.376 2.55-.98 3.237 1.275 1.962 4.022-1.276 2.746-6.376 11.377-32.072 25.205-.098-.097-2.546-12.697-2.546-12.697Zm-16.676-6.723c6.081 7.356 13.044 7.159 13.044 7.159s1.766 10.298 1.849 13.437l.005.192c.085 3.094.182 6.627-5.679 9.125-31.777 14.418-57.963 11.672-62.181 11.083-3.108-.434-.41-1.613 4.442-3.734 1.733-.757 3.74-1.635 5.856-2.641 8.043-3.825 7.258-8.533 7.258-8.337 18.242-5.492 24.814-10.69 28.246-13.436 3.433-2.746 2.256-5.002-1.765-5.885-7.258-.883-18.341 1.178-20.988 1.864-2.649.686-2.354.882-.856.882 1.499 0 14.292-.489 18.411-.784 4.119-.294 3.433 1.373-.588 4.119-10.736 6.71-23.675 8.686-30.48 9.726-.655.1-1.254.191-1.788.277-6.081.982-6.963-2.451-4.315-6.472 16.183-22.361 28.933-27.952 32.66-29.129 3.726-1.177 9.513.473 9.513.473s1.275 4.725 7.356 12.081Z" fill="url(#56d04e84-fc9e-493f-b8c1-3cf3b3de4aa5__df6bd1)"></path><path fill-rule="evenodd" clip-rule="evenodd" d="M147 105.004s-29.161-12.423-37.138-14.908C101.885 87.612 73.508 82.511 45 109.19c0 .131 11.638 12.946 11.638 12.946s16.608-16.085 37.139-17.785c20.531-1.7 37.4 6.292 37.4 6.292s7.977-4.853 15.823-5.638Z" fill="#003C9E"></path><path fill-rule="evenodd" clip-rule="evenodd" d="M123.985 115.337s-11.638 9.547-16.477 17.132c-.131-.262-15.954-3.009-31.515 9.676 0-.13-11.77-12.423-11.77-12.423s16.87-21.577 59.762-14.385Zm-40.67 35.569 10.79 11.507s7.387-3.4 13.926-5.754c6.538-2.354 8.5-5.753 8.5-5.753s-19.223.915-14.123-8.763c-.131-.261-8.5-2.484-19.093 8.763Z" fill="#003C9E"></path></g><defs><radialGradient id="56d04e84-fc9e-493f-b8c1-3cf3b3de4aa5__f51dba" cx="0" cy="0" r="1" gradientUnits="userSpaceOnUse" gradientTransform="matrix(0 256 -256 0 128 0)"><stop stop-color="#005ED9"></stop><stop offset="1" stop-color="#003386"></stop></radialGradient><linearGradient id="56d04e84-fc9e-493f-b8c1-3cf3b3de4aa5__df6bd1" x1="146.283" y1="212.452" x2="210.191" y2="111.209" gradientUnits="userSpaceOnUse"><stop stop-color="#C2C4CE"></stop><stop offset="0.397" stop-color="#D6D9E2"></stop><stop offset="1" stop-color="#fff"></stop></linearGradient><clipPath id="56d04e84-fc9e-493f-b8c1-3cf3b3de4aa5__e1a789"><path d="M0 0h256v256H0V0Z" fill="#fff"></path></clipPath></defs><g clip-path="url(#56d04e84-fc9e-493f-b8c1-3cf3b3de4aa5__dfb98d)" role="bgRoundedSquare" class=""><path d="M0 80c0-28.003 0-42.004 5.45-52.7A50 50 0 0 1 27.3 5.45C37.996 0 51.998 0 80 0h96c28.003 0 42.004 0 52.7 5.45a49.995 49.995 0 0 1 21.85 21.85C256 37.996 256 51.998 256 80v96c0 28.003 0 42.004-5.45 52.7a49.99 49.99 0 0 1-21.85 21.85C218.004 256 204.003 256 176 256H80c-28.003 0-42.004 0-52.7-5.45A49.995 49.995 0 0 1 5.45 228.7C0 218.004 0 204.003 0 176V80Z" fill="url(#56d04e84-fc9e-493f-b8c1-3cf3b3de4aa5__b97a7f)"></path><path fill-rule="evenodd" clip-rule="evenodd" d="M186.136 112.678h-2.648s-2.354 11.512-8.729 13.082c-6.375 1.569-11.278-1.57-13.142-4.315-1.864-2.747-5.493-8.533-6.376-10.005-.882-1.471-.293-3.53.982-4.609 1.275-1.079 4.315-1.177 5.688 2.844 0-.196 2.815-9.905 8.568-12.946 5.751-3.04 14.873-1.275 19.678.784 0 0-.097 2.747-.588 4.512-.093.334-.154.661-.212.971-.25 1.332-.443 2.364-2.829 2.364-.694 0-1.531.011-2.414.022-2.82.037-6.114.08-6.779-.206-.01-.008-.019-.012-.026-.012l.026.012c.04.031.105.12.199.25.546.752 2.077 2.859 5.464 2.778l4.119-.098-.981 4.572Zm-11.865 16.763s5.685 1.81 10.392-10.155c0 .098 19.714-5.394 22.264-6.375 2.55-.981 3.237 1.275 1.962 4.022-1.276 2.745-6.376 11.377-32.072 25.205-.098-.097-2.546-12.697-2.546-12.697Zm-16.676-6.724c6.081 7.356 13.044 7.16 13.044 7.16s1.766 10.298 1.849 13.436l.005.193c.085 3.093.182 6.627-5.679 9.125-31.777 14.417-57.963 11.671-62.181 11.083-3.108-.434-.41-1.613 4.442-3.735 1.733-.757 3.74-1.634 5.856-2.641 8.043-3.824 7.258-8.532 7.258-8.336 18.242-5.493 24.814-10.69 28.246-13.437 3.433-2.746 2.256-5.001-1.765-5.884-7.258-.883-18.341 1.177-20.988 1.863-2.649.687-2.354.883-.856.883 1.499 0 14.292-.49 18.411-.784 4.119-.295 3.433 1.372-.588 4.118-10.736 6.71-23.675 8.687-30.48 9.726-.655.1-1.254.192-1.788.278-6.081.981-6.963-2.452-4.315-6.473 16.183-22.361 28.933-27.952 32.66-29.128 3.726-1.178 9.513.472 9.513.472s1.275 4.726 7.356 12.081Z" fill="url(#56d04e84-fc9e-493f-b8c1-3cf3b3de4aa5__bdf889)"></path><path fill-rule="evenodd" clip-rule="evenodd" d="M147 105.004s-29.161-12.423-37.138-14.908C101.885 87.612 73.508 82.511 45 109.19c0 .131 11.638 12.946 11.638 12.946s16.608-16.085 37.139-17.785c20.531-1.7 37.4 6.292 37.4 6.292s7.977-4.853 15.823-5.638Z" fill="#003C9E"></path><path fill-rule="evenodd" clip-rule="evenodd" d="M123.985 115.337s-11.638 9.547-16.477 17.132c-.131-.262-15.954-3.009-31.515 9.676 0-.13-11.77-12.423-11.77-12.423s16.87-21.577 59.762-14.385Zm-40.67 35.568 10.79 11.508s7.387-3.401 13.926-5.754c6.538-2.354 8.5-5.754 8.5-5.754s-19.223.915-14.123-8.762c-.131-.262-8.5-2.484-19.093 8.762Z" fill="#003C9E"></path></g><defs><radialGradient id="56d04e84-fc9e-493f-b8c1-3cf3b3de4aa5__b97a7f" cx="0" cy="0" r="1" gradientUnits="userSpaceOnUse" gradientTransform="matrix(0 256 -256 0 128 0)"><stop stop-color="#005ED9"></stop><stop offset="1" stop-color="#003386"></stop></radialGradient><linearGradient id="56d04e84-fc9e-493f-b8c1-3cf3b3de4aa5__bdf889" x1="146.283" y1="212.453" x2="210.191" y2="111.209" gradientUnits="userSpaceOnUse"><stop stop-color="#C2C4CE"></stop><stop offset="0.397" stop-color="#D6D9E2"></stop><stop offset="1" stop-color="#fff"></stop></linearGradient><clipPath id="56d04e84-fc9e-493f-b8c1-3cf3b3de4aa5__dfb98d"><path fill="#fff" d="M0 0h256v256H0z"></path></clipPath></defs></svg>