<svg xmlns="http://www.w3.org/2000/svg" xmlns:xlink="http://www.w3.org/1999/xlink" version="1.1" id="Layer_1" x="0px" y="0px" style="enable-background:new 0 0 512 512;" xml:space="preserve" viewBox="23.6 81.5 464.7 348.9">
<style type="text/css">
	.st0{fill:#4CAF50;stroke:#FFFFFF;stroke-width:15;stroke-linejoin:round;}
</style>
<path class="st0" d="M467.2,89h-82.3c-7.6,0-13.7,6.1-13.7,13.7V290c0,7.6-6.1,13.7-13.7,13.7h-41.1c-7.6,0-13.7-6.1-13.7-13.7  V102.7c0-7.6-6.1-13.7-13.7-13.7h-65.8c-7.6,0-13.7,6.1-13.7,13.7V290c0,7.6-6.1,13.7-13.7,13.7h-41.1c-7.6,0-13.7-6.1-13.7-13.7  V102.7c0-7.6-6.1-13.7-13.7-13.7H44.8c-7.6,0-13.7,6.1-13.7,13.7v233.4c0,45.5,35,82.8,79.4,86.5v0.3h356.6  c7.6,0,13.7-6.1,13.7-13.7V102.7C480.9,95.1,474.8,89,467.2,89z"/>
</svg>