<?xml version="1.0" encoding="utf-8"?>
<!-- Generator: Adobe Illustrator 27.7.0, SVG Export Plug-In . SVG Version: 6.00 Build 0)  -->
<svg version="1.1" id="Layer_1" xmlns="http://www.w3.org/2000/svg" xmlns:xlink="http://www.w3.org/1999/xlink" x="0px" y="0px"
	 viewBox="0 0 905 905" style="enable-background:new 0 0 905 905;" xml:space="preserve">
<style type="text/css">
	.st0{fill:#663366;stroke:#663366;stroke-width:34.45;stroke-linecap:round;stroke-linejoin:round;}
	.st1{fill:none;stroke:#FCE187;stroke-width:30;stroke-linecap:round;stroke-linejoin:round;}
</style>
<g id="LOGO_2">
	<circle class="st0" cx="452.5" cy="452.5" r="432.2"/>
	<path class="st1" d="M550.6,542.1V388.6c0-54.2-43.9-98.2-98.1-98.2c0,0-0.1,0-0.1,0h0.1c-54.2,0-98.2,43.9-98.2,98.1
		c0,0,0,0.1,0,0.1v153.5"/>
	<path class="st1" d="M632.8,620V392.9c0.1-99.6-80.6-180.3-180.2-180.4c-0.1,0-0.1,0-0.2,0h0.1c-99.6-0.1-180.3,80.6-180.4,180.2
		c0,0.1,0,0.1,0,0.2V620"/>
	<path class="st1" d="M713.2,691.7V401.5c0-144.1-116.6-260.8-260.8-260.8h0.1c-144.1,0-260.8,116.6-260.8,260.8v290.1"/>
	<line class="st1" x1="452.5" y1="393.8" x2="452.5" y2="734.2"/>
</g>
</svg>
