<svg xmlns="http://www.w3.org/2000/svg" width="1079.9" height="933.7" viewBox="0 0 1079.9 933.69"><path fill="#3d87cf" d="m455.82 720.582 104.072-257.71c49.56-2.724 129.971 8.426 179.778 20.444L632.622 748.459c-48.567-12.018-128.236-26.638-176.803-27.877"/><path fill="#fac705" d="m923.66 587.049-108.165 266.38c-36.178-29.735-135.296-86.235-182.873-104.942L739.67 483.344c48.443 17.221 151.9 69.135 183.99 103.702"/><path fill="#66c557" d="M1029.598 340.283 923.415 587.087c-34.693-31.718-135.049-85.86-183.99-103.702l107.296-265.638c48.941 16.354 151.032 86.234 182.874 122.536"/><path fill="#f3632e" d="m559.854 463.031 105.56-260.807c49.436-1.735 131.827 6.07 181.51 15.611L739.63 483.473c-49.189-13.505-130.59-21.434-179.778-20.443"/><path fill="#3d87cf" d="m202.392 558.82-50.923-.866c3.469-10.284 7.93-21.806 12.266-31.47l51.418-.127c-3.717 10.531-8.177 21.93-12.761 32.46m78.661 42.505-64.178-.371 17.965-43.613c21.187-.126 42.623 0 63.93.743l-17.716 43.24m106.571-10.783c-7.433 17.098-13.752 35.435-21.434 52.658l-72.231-.866 21.31-52.284 72.355.495m-253.744-84.056-37.046-.254c2.972-8.549 6.69-18.089 10.531-26.638 12.638-.127 25.276-.866 37.913-.371l-11.4 27.257m-66.923-54.232c-9.54.254-19.204 1.24-28.744.99l9.292-22.55c9.54-.494 19.08-.989 28.62-.989l-9.168 22.55m169.057 22.836-51.047-.618 12.266-31.347c17.346.495 34.693-.494 51.913.127l-13.133 31.842m78.345 43.132-63.684-.253 17.222-43.365c21.435-.127 42.87-.254 64.305.254l-17.84 43.364m85.953 40.917-72.482-1.611 21.062-51.418 72.235.742-20.815 52.284M169.088 419.895c-12.39-.371-25.151.618-37.665-.127l11.399-28.125 36.923.99c-2.725 8.796-6.567 18.46-10.656 27.257m-67.243-53.916-28.62.619 8.796-22.426c9.293-.866 19.328-.866 28.993-.866l-9.169 22.674"/><path fill="#f3632e" d="m305.476 303.173-51.17-.371 12.513-31.966c17.222.254 34.442 0 51.789.371l-13.133 31.966m14.908 43.137 17.222-43.86h63.807l-17.222 43.86h-63.807m150.344 38.06-72.482-.494 20.938-52.16 72.355.253-20.815 52.408M238.868 247.349c-12.142.618-24.903 0-37.294.254l10.408-27.754c12.142-.99 25.027.495 37.294.127l-10.408 27.382m-67.559-54.247c-9.54.254-19.08 1.24-28.745.866l9.417-22.55 28.372-1.363-9.044 23.045m168.739 24.425c-17.098 0-34.195-.254-51.294-.99l12.638-31.346c17.222.254 34.442-.37 51.665.127l-13.01 32.213m78.345 43.132c-21.31 0-42.747.372-64.178-.253l17.841-43.612c21.434-.254 42.746.126 64.178.253l-17.841 43.613m85.321 41.55-71.984-.742 20.94-52.41 72.481.494-21.434 52.658M273.123 161.71h-37.417l11.026-28.125c12.638.619 25.028 0 37.542.743l-11.15 27.381m-66.926-54.554-28.744 1.24 8.92-22.673c9.54-1.116 19.205-.618 28.745-1.24l-8.92 22.674"/><path d="M170.04 646.361c-20.196.254-40.514.127-60.835-.494l14.496-35.93c20.32 0 40.764.618 61.33.37l-14.992 36.054m465.304-398.378-91.066.619 31.966-79.419c30.974-3.47 62.196-6.815 93.295-5.823l-34.195 84.623M242.04 25.64l-34.567.742L217.51.735c11.647-.254 23.293-.742 34.94-.742L242.043 25.64m68.825 50.749c-15.364-.495-30.727-.371-46.213-.99l12.142-29.735c15.487.495 30.974-.254 46.46.742l-12.39 29.983m231.859 143.682-86.108-.37 25.028-62.57 86.235.741-25.152 62.196M381.282 176.3l18.709-47.329 75.948.127-19.08 47.7-75.578-.494m-3.805-43.457-60.96-.495 14.125-35.683c20.32 0 40.764-.742 61.33 0l-14.496 36.178m224.564 197.92c-30.355.742-60.835 1.24-91.313 1.364l29.736-73.471 90.818-.372-29.24 72.482m-34.256 84.367-91.066 1.24-.495-.253 29.488-73.472 91.808-1.364-29.736 73.843M104.384 281.922l10.036-25.4 35.064-1.24-10.284 26.143-34.817.494m338.432 217.905 29.364-73.224 91.189-1.116-29.116 73.347-91.437.99M206.516 334.573l-46.214-.618 12.142-29.736c15.488.495 30.85-.253 46.337.743l-12.266 29.611m232.176 142.731-86.108-.618 24.78-62.196 86.355.742-25.027 62.072m-85.955-42.502-75.207-.253-.618-.254 19.204-47.206 75.825.127-19.204 47.577m-79.613-43.444-60.835-.619 14-35.683c20.568-.253 41.26-.126 61.826.254l-14.992 36.054m226.785 192.522-.371.866-91.19 1.116 29.86-75.206 91.684-.99-29.983 74.214m-34.255 84.687-91.437 2.23-.619-.254 30.356-74.464 91.065-.866-29.364 73.348M34.604 539.789c-11.522-.371-23.045.742-34.566 0l10.036-24.532c11.77-.99 23.54-.742 35.435-1.24l-10.903 25.77m394.57 218.856c-30.48-.742-60.835-.99-91.437 1.488l31.842-79.048 91.808-1.611-32.213 79.171M102.48 593.075l-46.587.254 11.523-29.612c15.735 0 31.222-.495 46.958-.127l-11.894 29.488m232.81 140.191-85.736-1.24 25.151-62.071 85.737.866-25.151 62.446m-161.128-43.455 19.204-47.824 75.454.494-19.204 47.949-75.454-.619"/><path fill-rule="evenodd" d="M982.338 353.921c-31.842-36.3-76.073-62.072-125.013-78.305l-76.57 189.442c48.816 17.966 91.93 42.623 126.624 74.214zM882.972 601.1c-32.09-34.566-78.055-59.1-126.377-76.32l-77.808 193.53c47.453 18.709 91.932 40.888 128.112 70.624zm196.75-269.232L836.508 933.78c-63.065-85.984-172.714-140.253-282.861-160.82-37.913-6.938-75.949-12.141-113.861-13.628l31.841-78.306c48.567 1.364 97.26 7.063 145.83 19.205l78.553-194.644c-49.807-12.018-99.49-13.505-149.05-10.78l25.524-63.93c49.064-.99 98.253 2.106 147.438 15.61l75.825-187.459c-49.683-9.664-99.366-13.133-148.802-11.399l33.948-84.747c112.748-.495 243.213 30.975 335.64 105.808 23.416 18.585 44.976 39.153 63.188 63.189"/></svg>