<svg xmlns="http://www.w3.org/2000/svg" width="642.03" height="408.18"><path fill="#3d87cf" d="m312.537 245.978 35.522-87.962c16.916-.93 44.362 2.876 61.362 6.978l-36.538 90.499c-16.577-4.102-43.77-9.092-60.346-9.515"/><path fill="#fac705" d="m472.22 200.4-36.919 90.921c-12.348-10.15-46.179-29.433-62.418-35.819l36.538-90.499c16.534 5.879 51.847 23.598 62.8 35.396"/><path fill="#66c557" d="m508.379 116.174-36.242 84.24c-11.842-10.827-46.095-29.307-62.8-35.396L445.96 74.35c16.704 5.582 51.55 29.434 62.418 41.824"/><path fill="#f3632e" d="m348.046 158.07 36.03-89.018c16.873-.593 44.995 2.072 61.953 5.328l-36.622 90.668c-16.79-4.61-44.573-7.316-61.362-6.978"/><path fill="#3d87cf" d="m226.037 190.765-17.381-.296c1.184-3.51 2.706-7.442 4.186-10.741l17.55-.043a171.42 171.42 0 0 1-4.355 11.08m26.848 14.507-21.905-.127 6.132-14.886c7.232-.043 14.548 0 21.821.254l-6.047 14.759m36.374-3.681c-2.536 5.836-4.693 12.095-7.315 17.973l-24.654-.295 7.273-17.846 24.697.17m-86.608-28.691-12.645-.086a115.608 115.608 0 0 1 3.595-9.093c4.313-.043 8.627-.295 12.94-.126l-3.89 9.303m-22.843-18.51c-3.256.086-6.555.423-9.811.337l3.172-7.696c3.256-.169 6.512-.338 9.768-.338l-3.13 7.697m57.704 7.794-17.424-.21 4.187-10.7c5.92.17 11.841-.169 17.719.043l-4.483 10.869m26.741 14.722-21.737-.087 5.878-14.801c7.316-.043 14.633-.087 21.95.086l-6.09 14.802m29.337 13.965-24.74-.55 7.19-17.55 24.655.254-7.105 17.845m-78.921-47.525c-4.23-.127-8.585.211-12.856-.043l3.89-9.6 12.603.338c-.93 3.002-2.241 6.301-3.637 9.304m-22.951-18.403-9.77.211 3.003-7.654c3.172-.296 6.597-.296 9.896-.296l-3.13 7.74"/><path fill="#f3632e" d="m261.221 103.507-17.465-.126 4.271-10.91c5.878.086 11.756 0 17.677.126l-4.483 10.91m5.089 14.723 5.878-14.97h21.779l-5.879 14.97H266.31m51.315 12.992-24.74-.169 7.147-17.803 24.696.086-7.104 17.888m-79.137-46.77c-4.144.21-8.5 0-12.73.086l3.553-9.472c4.144-.338 8.542.168 12.73.043l-3.553 9.346m-23.06-18.516c-3.256.087-6.512.424-9.81.296l3.213-7.697 9.685-.465-3.088 7.865m57.595 8.337c-5.836 0-11.672-.086-17.508-.337l4.314-10.7c5.878.087 11.755-.126 17.634.044l-4.44 10.995M299.762 89c-7.274 0-14.59.127-21.905-.086l6.09-14.886c7.315-.086 14.59.044 21.905.087L299.762 89m29.122 14.183-24.57-.254 7.147-17.889 24.74.17-7.316 17.973m-78.706-47.959h-12.771l3.763-9.6c4.314.211 8.543 0 12.814.253l-3.806 9.346m-22.843-18.62-9.811.423 3.045-7.739c3.256-.38 6.555-.21 9.81-.423l-3.044 7.739"/><path d="M214.994 220.645a481.32 481.32 0 0 1-20.764-.17l4.948-12.263c6.935 0 13.914.211 20.933.127l-5.117 12.306M373.812 84.67l-31.083.211 10.91-27.107c10.573-1.184 21.23-2.326 31.844-1.988L373.812 84.67M239.57 8.78l-11.799.253L231.197.28c3.975-.086 7.95-.253 11.926-.253L239.57 8.78m23.492 17.322c-5.244-.17-10.488-.127-15.774-.338l4.145-10.15c5.286.17 10.572-.086 15.858.254l-4.23 10.234M342.2 75.143l-29.39-.126 8.542-21.357 29.434.254-8.585 21.228m-55.105-14.939 6.385-16.154 25.923.043-6.512 16.281-25.797-.168m-1.299-14.833-20.806-.169 4.821-12.18c6.935 0 13.914-.253 20.933 0l-4.948 12.349m76.649 67.554c-10.361.253-20.765.423-31.167.466l10.149-25.078 30.998-.126-9.98 24.74m-11.693 28.795-31.082.424-.169-.087 10.065-25.077 31.336-.466-10.15 25.204M192.585 96.254l3.425-8.67 11.968-.422-3.51 8.922-11.883.17m115.513 74.375 10.023-24.993 31.124-.381-9.938 25.035-31.209.338m-80.654-56.403-15.773-.21 4.144-10.15c5.286.169 10.53-.087 15.816.253l-4.187 10.107m79.246 48.717-29.39-.21 8.458-21.23 29.475.254-8.542 21.186m-29.339-14.507-25.67-.086-.21-.087 6.554-16.112 25.881.043-6.555 16.24m-27.173-14.829-20.764-.211 4.778-12.18c7.02-.086 14.083-.043 21.102.087l-5.117 12.306m77.407 65.712-.127.295-31.125.381 10.192-25.67 31.294-.337-10.234 25.33m-11.692 28.906-31.21.761-.21-.087 10.36-25.416 31.083-.295-10.023 25.035M168.767 184.27c-3.932-.127-7.865.253-11.798 0l3.426-8.374c4.017-.338 8.035-.253 12.095-.423l-3.722 8.796m134.675 74.7c-10.403-.253-20.764-.338-31.21.508l10.869-26.981 31.336-.55-10.995 27.023m-111.508-56.512-15.901.087 3.933-10.107c5.37 0 10.657-.17 16.028-.044l-4.06 10.065m79.463 47.85-29.264-.423 8.585-21.187 29.264.296-8.585 21.314m-54.996-14.832 6.555-16.323 25.754.169-6.555 16.366-25.754-.212M492.248 120.83c-10.868-12.391-25.965-21.187-42.67-26.728l-26.134 64.66c16.662 6.132 31.378 14.548 43.22 25.331zm-33.915 84.366c-10.953-11.798-26.642-20.172-43.136-26.05l-26.557 66.056c16.197 6.386 31.378 13.956 43.728 24.106zm67.154-91.894-83.013 205.445c-21.526-29.348-58.951-47.872-96.547-54.891-12.94-2.368-25.923-4.145-38.863-4.652l10.868-26.727c16.577.465 33.197 2.41 49.775 6.554l26.812-66.435c-17-4.102-33.958-4.61-50.874-3.68l8.712-21.82c16.747-.338 33.535.718 50.323 5.328l25.881-63.984c-16.958-3.299-33.916-4.483-50.79-3.89l11.588-28.927c38.483-.168 83.014 10.573 114.56 36.115 7.993 6.343 15.352 13.364 21.568 21.567"/><g stroke-width=".136"><path fill-rule="evenodd" d="M541.223 325.475c13.422 0 22.466 8.742 22.466 20.893 0 10.897-10.244 20.646-23.137 20.646-12.098 0-20.875-8.477-20.875-19.745 0-12.787 9.307-21.794 21.547-21.794zm24.725 33.432v1.519c0 25.45-9.714 38.87-26.986 38.87-8.513 0-15.03-4.043-19.692-12.15l-9.29 3.161c4.91 11.656 15.012 17.732 29.9 17.732 22.077 0 37.23-18.367 37.23-48.622 0-27.234-13.687-42.81-36.17-42.81-10.084 0-19.533 4.061-25.52 11.02-4.91 5.704-7.576 12.803-7.576 19.638 0 16.584 13.157 28.858 30.448 28.858 12.22 0 22.342-6.199 27.656-17.22"/><path d="M58.883 406.365h23.913l11.056-44.947 11.444 44.947h23.418l22.624-78.645h-20.063l-12.045 45.318-11.797-45.618H85.657L74.16 373.48l-11.674-46.06H36.383l22.501 78.946m118.644.029 23.207-.035v-36.435c0-5.528 2.543-8.424 6.658-8.424 3.992 0 6.076 3.585 6.076 9.113v35.78l23.455-.034v-38.977c0-14.994-5.687-21.9-20.098-21.9-8.23 0-14.394 3.461-17.785 10.032v-8.425l-21.494.053-.034 59.252m202.83 0h17.308l8.884-33.115 8.07 33.115h17.557l19.886-59.288h-16.814l-8.848 29.865-7.754-29.865h-18.156l-7.505 29.052-8.584-29.052h-23.736l19.692 59.288"/><path d="M149.344 342.355h23.489v-14.641h-23.489zm0 64.01h23.489v-59.27h-23.489zm293.759-17.01c3.515 11.798 14.994 18.332 33.221 18.332 20.116 0 32.373-9.043 32.373-21.07 0-4.91-2.014-9.148-5.881-12.363-4.75-3.886-10.367-4.68-17.238-5.828-11.868-1.943-17.785-1.484-17.732-5.157.034-1.96 2.366-4.098 7.117-4.098 5.864 0 9.608 1.925 11.868 5.599l19.233-3.108c-4.238-10.173-14.606-15.771-29.847-15.771-19.003 0-29.988 8.689-29.988 20.362 0 5.034 2.615 9.838 7.118 13.052 5.616 3.992 11.868 4.91 18.985 6.058 8.866 1.484 13.618 1.06 13.987 4.345.281 2.278-3.108 4.009-8.99 4.009-8.247 0-12.857-2.296-13.987-6.64l-20.239 2.278"/><path fill-rule="evenodd" d="M277.063 381.335c0 2.914.248 5.016-1.484 7.594-1.36 1.978-2.967 3.038-5.44 3.038-7.682 0-8.741-9.343-8.724-14.606.034-10.985 3.214-17.397 8.848-17.414 1.978 0 4.204.83 5.316 2.349 1.608 1.872 1.484 4.662 1.484 7.011zm24.142 25.008v-80.145h-23.842v25.344c-3.833-3.62-9.025-6.075-15.1-6.075-19.056 0-25.556 16-25.556 31.313 0 14.712 6.623 30.73 24.814 30.73 7.93 0 13.246-2.579 16.831-9.113h.248v7.947h22.607m33.806-13.069c-5.81 0-9.59-5.333-9.59-16.425 0-11.109 3.744-16.425 9.572-16.425 5.829 0 9.573 5.316 9.573 16.425 0 11.091-3.727 16.425-9.555 16.425zm-.034 14.906c20.275 0 33.75-12.592 33.75-31.331 0-18.862-13.476-31.349-33.75-31.349-20.151 0-33.733 12.486-33.733 31.349 0 18.738 13.581 31.331 33.733 31.331"/><path d="M0 327.455h5.016v-39.119l15.718 39.119h4.114l15.913-38.871v38.871h5.67v-43.693h-8.46l-14.658 36.682-14.8-36.682H0v43.693"/><path fill-rule="evenodd" d="M54.732 288.515h5.316v-4.75h-5.316zm0 38.942h5.316v-32.444h-5.316zm47.42-.002h5.369v-16.443c0-7.435 4.398-11.992 11.25-11.992h.9v-4.821c-.688-.053-1.324-.124-1.942-.124-4.963 0-8.318 2.702-10.49 8.124v-7.188h-5.087v32.444m34.473.56c9.555 0 16.196-6.623 16.196-16.937 0-10.367-6.64-16.937-16.196-16.937-9.501 0-16.072 6.57-16.072 16.937 0 10.314 6.57 16.937 16.072 16.937zm0-3.991c-6.146 0-10.261-4.769-10.261-12.946 0-8.248 4.044-12.946 10.261-12.946s10.332 4.75 10.332 12.946c0 8.124-4.186 12.946-10.332 12.946m68.588 3.991c9.572 0 16.213-6.623 16.213-16.937 0-10.367-6.64-16.937-16.213-16.937-9.484 0-16.054 6.57-16.054 16.937 0 10.314 6.57 16.937 16.054 16.937zm0-3.991c-6.128 0-10.261-4.769-10.261-12.946 0-8.248 4.062-12.946 10.261-12.946 6.217 0 10.349 4.75 10.349 12.946 0 8.124-4.203 12.946-10.349 12.946"/><path d="M235.583 295.015c0-.37-.071-.812-.071-1.183 0-4.557 2.013-6.676 6.41-6.676.99 0 2.456.106 4.346.424v-3.992c-1.749-.317-3.497-.441-5.316-.441-7.26 0-10.685 3.815-10.685 11.62v.248h-6.358v3.514h6.358v28.928h5.316V298.53h13.546v16.99c0 4.115 0 7.118 1.466 8.99 2.031 2.685 4.963 3.815 9.22 3.815 1.465 0 3.001-.194 4.467-.495v-3.991c-1.324.3-2.578.353-3.709.353-5.44 0-6.075-2.543-6.075-8.548V298.53h8.53v-3.514h-8.53v-8.124l-5.369.512v7.612h-13.546M90.76 306.275l5.016-.689c-1.183-7.311-6.058-11.444-12.893-11.444-9.502 0-16.054 6.623-16.054 16.955 0 10.473 6.217 16.973 15.206 16.973 7.259 0 12.345-4.009 13.74-11.197l-4.804-.83c-1.112 5.087-4.397 7.895-8.724 7.895-5.652 0-9.626-4.751-9.626-12.84 0-8.195 4.186-12.946 9.767-12.946 4.186 0 7.683 3.002 8.371 8.124m65.828 12.419c1.66 5.793 7.064 9.22 14.906 9.22 8.177 0 13.581-4.24 13.581-9.962 0-4.927-3.532-7.47-10.95-9.166-6.87-1.554-10.879-1.625-10.879-5.598 0-3.056 2.702-5.051 7.206-5.051 4.291 0 7.064 1.73 8.177 5.05l4.91-.936c-1.731-5.245-6.305-8.106-12.875-8.106-7.771 0-12.77 4.168-12.77 9.59 0 5.369 3.621 7.418 11.374 9.113 6.517 1.43 10.26 1.801 10.26 5.722 0 3.126-3.055 5.422-8.035 5.422-4.927 0-8.672-2.243-10.12-6.164l-4.786.866"/><path fill-rule="evenodd" d="M592.053 360.675c-14.87 5.404-22.183 12.928-22.183 22.819 0 14.394 15.03 24.549 36.364 24.549 21.335 0 35.799-10.031 35.799-24.814 0-6.853-3.514-13.458-9.272-17.414-3.373-2.243-5.334-3.303-12.91-6.729 11.922-3.956 18.103-10.809 18.103-20.045 0-13.599-12.345-22.448-31.296-22.448-19.233 0-32.285 9.254-32.285 22.836 0 9.502 5.74 16.372 17.678 21.246zm14.182-5.546c-12.363-2.772-20.08-9.095-20.08-16.619 0-8.177 8.283-13.599 20.911-13.599 12.645 0 20.646 5.281 20.646 13.6 0 8.053-6.182 12.927-21.476 16.618zm-1.272 10.155c17.697 4.628 25.556 10.561 25.556 19.144 0 9.36-9.554 15.294-24.566 15.294-14.87 0-24.566-6.199-24.566-15.7 0-8.973 7.86-15.172 23.577-18.739"/></g></svg>