<svg xmlns="http://www.w3.org/2000/svg" xml:space="preserve" id="Layer_1" x="0" y="0" version="1.1" viewBox="0 0 512 512"><style>.st1{fill:#82201e}</style><g id="wireguard_svg__g327" transform="scale(.16)"><ellipse cx="1634.6" cy="1599.8" rx="206.5" ry="251.4" style="fill:#fff"/><path id="wireguard_svg__path80" d="M3197.2 1552.6S3271.2 0 1564.8 0C55.7 0 8.6 1489.4 8.6 1489.4s-222 1710.6 1591 1710.6c1738.9 0 1597.6-1647.4 1597.6-1647.4m-2109.8-542.5c320.2-195.9 729.2-76.2 882.5 218.4 29 55.8 32.7 141.8 14.3 200.3-63.5 202.2-213.5 315.6-419.3 363.8 60.7-51.9 109-110.9 124.4-192.3 16.2-78-1.4-159.2-48.5-223.5-74.9-103-209-143.8-328.6-100.2-126.7 48.1-196.2 163.8-183.6 306 11.6 132.1 111.8 217.7 299.3 250.2-28 14.8-49.6 25.7-70.7 37.5a682.4 682.4 0 0 0-219.1 190.6c-19 25.7-32.1 27.8-61.1 10-377-230.5-401.2-809 10.4-1060.8M805.3 2434.4c-60.6 15.4-119.2 38.1-181.1 58.4 30.3-204.3 269.5-392.4 471.8-371-58.6 80.7-92.8 176.6-98.6 276.2-67.3 12.5-130.6 20.8-192.1 36.4M2093.7 440c59.8 2.2 119.8 1.3 179.7 2.7 14.9 1 29.8 3.1 44.4 6.2-13.4 20.6-28.5 40-45.2 58-21.4 19.9-45.6 39.4-76.4 9.1-7.4-7.3-24.9-5.6-37.9-5.8-59.5-.8-119.2-2.7-178.6-.4-51.6 1.7-103 6.9-153.9 15.7-9.5 1.7-23.8 33.4-19.4 45.1 10.3 27.6 25.4 58 47.8 75.6 82.6 65.2 170.4 123.7 253.3 188.4 80.6 62.9 155.6 131.8 201.3 226.7 59.6 123.6 61.3 253.3 35.6 383.5-42.9 217.4-152.9 397.4-331 528.2-71.8 52.7-160.6 82.6-242.8 120.5-72.3 33.3-146.7 62-219.2 94.9-130.7 59.4-204.1 201.2-182.5 348.7 19.8 135.3 138.5 248.2 274.5 271.5 163.1 28 331.4-78 371.3-243.8 44.9-186.4-56.4-352.9-246-403.3-8.4-2.2-16.7-4.3-34.1-8.8 50.7-22.7 94.5-38.8 135-61.1 70.5-38.8 139.8-79.9 207.8-123.3 20-12.8 30.8-12.8 47.9 1.9 130.4 112.7 208.2 253 230 425 36.1 284.6-98.6 546.1-352.8 680.1-393.2 207.4-874.3-28.7-961.1-464.5-74.4-373.4 189.1-712 506.3-777.4 136.4-28.1 261.1-84.9 358.1-189.9 62.6-67.8 92.9-125.9 103.2-152.2 19.2-49.2 29.1-101.5 29-154.3-2.1-45.7-12.8-90.6-31.6-132.2-33.1-75.5-159.9-195.5-191.3-220.8l-298.7-233.8c-10.5-8.7-22.4-8-48.1-6.3-30.5 2.1-108.5 6.4-142.2-2.4 27.2-20.6 101.5-50.6 133.3-74.7-96.8-65.4-207.3-41.8-308.7-61.3 23.4-43.7 139.5-110.8 205.5-118.3-3.9-36.9-9.9-73.5-18-109.7-4-14.8-20.6-29.2-35.1-37.7-35.1-20.6-72.2-37.5-112.5-58 36.1-23.3 77.9-36.3 120.9-37.4 40.7-1.5 81.4 2.4 121 11.8 71.9 16.4 129.3 5.7 186.5-43.2-45-18.1-90.1-34.7-133.7-54.3-43-19.6-85-41.5-125.6-65.7 113.3 15.7 222.9 58.2 338.7 42.7l3-15.8L1432.3 57c160.4-14.7 309.8-17.1 451.2 51.8 39.8 19.4 81.4 35.4 119.6 57.6 18.6 10.8 31.1 32.1 46.4 48.6 12.1 13.1 21.9 30.8 36.8 38.7 56.5 30.1 118.8 31.2 182.2 29.7l1.4-21.3c63.8 19.9 135.6 93.5 135.5 147.3-103.4 0-206.7-.4-309.9.6-11 .1-22 8.2-33 12.5 10.3 6.1 20.6 17.1 31.2 17.5" class="st1"/><path id="wireguard_svg__path82" d="M1960.4 287c-7.4 4.6-9.6 14.4-5 21.8.8 1.3 1.8 2.5 3 3.5 6.5 11.4 21 15.4 32.5 8.9.1-.1.2-.1.3-.2 10-5 19.7-10.4 31.7-16.7-9.7-8.3-17.5-15.1-25.5-21.7-14.1-11.5-25.7-4.2-37 4.4" class="st1"/></g></svg>