<svg viewBox="0 0 1000 1000" xmlns="http://www.w3.org/2000/svg"><path d="m500 996.2c-562.1 0-493.3-530.4-493.3-530.4s14.6-461.8 482.5-461.8c529.1 0 506.2 481.4 506.2 481.4 0 .1 43.8 510.8-495.4 510.8zm-162.1-350c9 5.4 13.1 4.8 19-3.2q6.8-9.1 14.5-17.4 7.7-8.3 16.3-15.8 8.5-7.4 17.8-13.9 9.4-6.5 19.3-12c6.6-3.6 13.3-7 21.9-11.6-58.1-10.1-89.2-36.6-92.8-77.6-3.8-44 17.7-79.9 57-94.8 8.9-3.3 18.4-5.1 27.9-5.3 9.6-.3 19.1 1 28.2 3.8 9.2 2.7 17.8 7 25.6 12.5 7.7 5.6 14.6 12.3 20.2 20 3.6 5 6.6 10.2 9.1 15.8 2.5 5.5 4.5 11.3 5.7 17.3 1.3 5.9 2 12 2 18.1s-.6 12.2-1.8 18.1c-4.8 25.3-19.7 43.5-38.6 59.7 63.9-15 110.4-50.1 130.1-112.8 5.7-18.2 4.5-44.8-4.5-62.1-47.5-91.4-174.3-128.5-273.6-67.8-127.7 78.1-120.1 257.5-3.3 329zm-24.6 101.4q.6-11.5 2.9-22.8 2.3-11.4 6.2-22.2 3.9-10.9 9.3-21.1 5.3-10.2 12.1-19.5c-62.7-6.7-136.9 51.6-146.3 115 19.2-6.3 37.4-13.4 56.2-18.1 19.1-4.9 38.7-7.5 59.6-11.3zm330.2-612.6c3.4-1.3 6.8-3.8 10.2-3.8 32-.3 64.1-.2 96.1-.2 0-16.7-22.2-39.5-42-45.7-.2 2.3-.3 4.4-.4 6.6-19.7.5-39 .1-56.5-9.2-4.6-2.5-7.7-7.9-11.4-12-4.8-5.1-8.6-11.7-14.4-15.1-11.8-6.8-24.7-11.8-37.1-17.8-43.8-21.4-90.1-20.6-139.9-16.1 29.7 6.9 56.6 13.2 83.5 19.4q-.5 2.5-1 4.9c-35.9 4.8-69.9-8.3-105-13.2q4.7 2.8 9.5 5.5t9.7 5.2q4.9 2.6 9.8 5 5 2.4 10 4.7c13.5 6 27.5 11.2 41.4 16.8-17.7 15.2-35.5 18.5-57.8 13.4q-4.6-1.1-9.3-1.9-4.6-.8-9.4-1.2-4.7-.5-9.4-.6-4.7-.1-9.4 0-5 .2-9.9 1t-9.7 2.2q-4.7 1.5-9.2 3.6-4.5 2.1-8.7 4.8c12.5 6.4 24 11.6 34.9 18 4.5 2.6 9.6 7.1 10.8 11.7q1 4.2 1.8 8.4.8 4.3 1.5 8.5.7 4.3 1.3 8.5.6 4.3 1 8.6c-20.5 2.3-56.4 23.1-63.7 36.7 31.4 6 65.7-1.3 95.7 19-9.9 7.5-32.9 16.8-41.3 23.1 10.4 2.8 34.6 1.4 44 .8 8-.5 11.7-.7 15 2l92.6 72.5c9.7 7.8 49 45 59.3 68.4q2.2 4.9 3.9 9.9 1.7 5 2.9 10.2 1.3 5.1 2 10.4.8 5.2 1 10.5 0 6.2-.6 12.3-.5 6.1-1.7 12.1-1.1 6-2.8 11.9-1.7 5.9-3.9 11.6c-3.2 8.1-12.6 26.2-32 47.2-30.1 32.5-68.7 50.1-111 58.9-98.4 20.2-180.1 125.2-157 241 26.9 135.2 176.1 208.3 298 144 78.8-41.5 120.6-122.6 109.4-210.8-6.8-53.4-30.9-96.8-71.3-131.8-5.3-4.6-8.7-4.6-14.9-.6q-31.6 20.2-64.4 38.2c-12.5 6.9-26.1 11.9-41.8 19 5.4 1.4 8 2 10.5 2.7 58.8 15.7 90.2 67.3 76.3 125.1-12.3 51.4-64.5 84.2-115.1 75.6-42.2-7.3-79-42.3-85.1-84.2-6.7-45.7 16-89.7 56.6-108.1 22.4-10.2 45.5-19.1 67.9-29.5 25.5-11.7 53.1-21 75.3-37.3 55.2-40.6 89.4-96.4 102.7-163.8 7.9-40.4 7.4-80.6-11.1-118.9-14.2-29.4-37.4-50.8-62.4-70.3-25.7-20.1-53-38.2-78.6-58.4-6.9-5.5-11.6-14.9-14.8-23.5-1.3-3.6 3.1-13.4 6-13.9q6-1.1 11.9-1.9 5.9-.8 11.9-1.4 6-.6 12-1t12-.6c18.4-.7 36.9-.1 55.3.1 4 .1 9.5-.4 11.8 1.8 9.5 9.4 17 3.4 23.7-2.8q1.9-2.1 3.8-4.3l3.6-4.4 3.4-4.6q1.6-2.3 3.2-4.7-1.7-.3-3.4-.7-1.7-.3-3.5-.5l-3.4-.4q-1.8-.2-3.5-.3c-18.6-.4-37.2-.2-55.7-.8-3.3-.2-6.5-3.6-9.7-5.5z" fill="#88171a" fill-rule="evenodd"/><path d="m623.3 91.7c2.5 2 4.9 4.1 7.9 6.7-3.7 2-6.7 3.6-9.8 5.2q-1.3.7-2.8.9-1.4.2-2.9-.1-1.4-.4-2.6-1.3-1.1-.9-1.9-2.2-.8-.8-1.3-1.9-.4-1.1-.3-2.2.1-1.2.7-2.2.6-.9 1.6-1.6c3.5-2.7 7.1-4.9 11.4-1.3z"/></svg>