<svg xmlns="http://www.w3.org/2000/svg" width="284.538" height="253.96">
  <style>
    @media (prefers-color-scheme: dark) {
      path {
        fill: white;
      }
    }
  </style>
  <path d="M162.51 33.188c-26.77.411-54.004 6.885-71.494 3.745-1.313-.232-2.124 1.338-1.171 2.265 14.749 14.003 20.335 28.16 36.718 30.065l.476.103c-7.567 7.799-14.028 18.018-18.571 31.171-4.89 14.106-6.268 29.421-7.89 47.105-2.445 26.332-5.173 56.152-20.038 93.54a246.489 246.489 0 0 0-13.27 45.946h22.652a221.202 221.202 0 0 1 11.249-37.786c16.049-40.374 19.073-73.257 21.505-99.693 1.493-16.255 2.806-30.309 6.796-41.853 11.647-33.527 39.408-40.889 61.056-36.693 21.004 4.067 41.673 20.502 40.592 44.016-.772 15.985-7.76 23.166-12.87 28.43-2.793 2.883-5.47 5.611-6.731 9.498-3.037 9.19.101 19.434 8.494 27.568 22.24 20.734 34.338 59.717 33.681 106.513h22.176c.592-52.935-13.951-97.839-40.503-122.626-2.097-2.021-2.69-3.604-3.191-3.347 1.222-1.544 3.217-3.346 4.633-4.813 29.382-21.79 77.813-1.892 107.054 9.653 7.58 2.985 11.274-4.338 4.067-8.623-25.097-14.84-76.54-54.016-105.368-79.718-4.029-3.54-6.796-7.8-11.455-11.738-15.547-27.439-41.84-33.127-68.597-32.728Zm35.238 60.27a15.161 15.161 0 0 0-2.008.232 15.161 15.161 0 0 0-1.506 29.434 15.154 15.154 0 0 0 9.473-28.79 15.161 15.161 0 0 0-5.959-.876zm-44.286 147.17a2.033 2.033 0 0 0-1.133.374c-1.08.772-1.93 3.05-.772 5.701 5.38 12.394 9.1 25.445 12.536 40.413h22.484c-5.676-16.629-16.307-34.055-27.851-43.978-2.008-1.737-3.913-2.574-5.251-2.51z" style="stroke-width:12.8704" transform="translate(-67.27 -33.169)"/>
</svg>
