<svg xmlns="http://www.w3.org/2000/svg" width="1827" height="2500" viewBox="0 0 1104.586 1511.305">
    <g fill="#ffffff">
        <path d="M980.83 320.625L880.432 218.694 772.637 112.111H331.949L226.946 218.694 126.548 320.625h321.275v920.68l105.875 104.697 105.855-104.697v-920.68h.02z" fill="#ffffff"/>
        <path d="M876.758 420.251H775.692v410.793L670.098 935.38l74.357 72.191 75.098 72.943 161.602-159.801.037-500.462zM331.726 831.044V420.251H126.201v500.462l161.664 159.801 75.099-72.943 74.312-72.191z" fill="#ffffff"/>
        <path d="M316.11 55.984L56.036 315.941V946.07l496.271 487.021 496.251-487.021V315.96L788.496 55.984H316.11zM8.304 284.584L284.914 8.24 293.096 0h518.379l8.18 8.24 276.629 276.344 8.303 8.316v676.439l-8.406 8.229-524.299 514.538-19.574 19.197-19.6-19.197L8.429 977.571 0 969.341V292.905l8.304-8.321z" fill="#ffffff"/>
    </g>
</svg>