<?xml version="1.0" encoding="utf-8"?>
<!-- Generator: Adobe Illustrator 27.7.0, SVG Export Plug-In . SVG Version: 6.00 Build 0)  -->
<svg version="1.1"
	 id="svg2" xmlns:dc="http://purl.org/dc/elements/1.1/" xmlns:inkscape="http://www.inkscape.org/namespaces/inkscape" xmlns:rdf="http://www.w3.org/1999/02/22-rdf-syntax-ns#" xmlns:svg="http://www.w3.org/2000/svg" xmlns:cc="http://creativecommons.org/ns#" xmlns:sodipodi="http://sodipodi.sourceforge.net/DTD/sodipodi-0.dtd"
	 xmlns="http://www.w3.org/2000/svg" xmlns:xlink="http://www.w3.org/1999/xlink" x="0px" y="0px" viewBox="0 0 512 512"
	 style="enable-background:new 0 0 512 512;" xml:space="preserve">
<style type="text/css">
	.st0{fill:#292929;}
	.st1{fill:#FFFFFF;}
</style>
<path class="st0" d="M422.2,511.5h-332c-49.6,0-89.8-40.2-89.8-89.8v-332C0.5,40.2,40.7,0,90.2,0h332C471.8,0,512,40.2,512,89.8v332
	C512,471.3,471.8,511.5,422.2,511.5z"/>
<sodipodi:namedview  bordercolor="#666666" borderopacity="1.0" fit-margin-bottom="0" fit-margin-left="0" fit-margin-right="0" fit-margin-top="0" id="base" inkscape:current-layer="layer1" inkscape:cx="-36.448977" inkscape:cy="-13.073394" inkscape:document-units="px" inkscape:pageopacity="0.0" inkscape:pageshadow="2" inkscape:window-height="722" inkscape:window-maximized="1" inkscape:window-width="1280" inkscape:window-x="0" inkscape:window-y="26" inkscape:zoom="3.959798" pagecolor="#ffffff" showgrid="false">
	</sodipodi:namedview>
<g id="layer1" transform="translate(-191.62389,-331.91299)" inkscape:groupmode="layer" inkscape:label="Layer 1">
	<g id="text4136">
		<path id="path4140" class="st1" d="M634.5,613.8c-5.9,15.8-13.3,30.6-22.2,44.2c-9,13.7-19.2,25.5-30.7,35.6
			c-11.5,10.1-24.1,18.2-37.8,24c-13.4,5.7-27.7,8.5-42.7,8.5c-6.2,0-12.6-0.9-19.1-2.8c-6.4-1.9-12.2-5.2-17.5-10.1
			c-5.1-5-9.4-11.6-12.6-19.9c-3.3-8.4-4.9-19-4.9-31.8c0-4.7,0.2-9.8,0.8-15.3h-1c-3.6,10.4-8.6,20.4-15,30
			c-6.2,9.7-13.3,18.2-21.5,25.6c-8.1,7.4-16.9,13.3-26.4,17.9c-9.3,4.3-18.8,6.5-28.5,6.5c-10.4,0-19-1.8-26.1-5.5
			c-6.9-3.6-12.5-8.5-16.8-14.7c-4.3-6.4-7.4-13.7-9.3-22c-1.9-8.4-2.8-17.4-2.8-26.9c0-14,0.7-28.5,2.1-43.7
			c1.6-15.1,3.2-29.8,4.9-43.9c1.7-14.1,3.3-27.1,4.7-39c1.6-12.1,2.3-21.9,2.3-29.5c0-3.3-0.2-6.4-0.5-9.3c-0.2-3.1-0.8-5.8-1.8-8
			c-1-2.3-2.5-4.1-4.4-5.5c-1.9-1.4-4.4-2.1-7.7-2.1c-3,0-6,0.9-9.3,2.8c-3.3,1.7-6.6,4.7-9.8,8.8c-3.1,4-6.2,9.2-9.3,15.8
			c-3.1,6.6-5.9,14.5-8.5,23.8l-14.7-3.1c1.2-6.2,3.4-13.5,6.5-22c3.3-8.6,7.6-16.8,12.9-24.6c5.5-8,12.2-14.6,19.9-19.9
			c8-5.5,17.2-8.3,27.9-8.3c14,0,24.6,4.4,31.8,13.2c7.4,8.8,11.1,21.5,11.1,38.2c0,7.7-0.3,16.5-1,26.4c-0.7,9.7-1.6,19.7-2.8,30.3
			c-1,10.5-2.2,21.2-3.4,32.1c-1.2,10.7-2.4,20.9-3.6,30.7c-1,9.7-1.9,18.4-2.6,26.4c-0.7,8-1,14.4-1,19.4c0,4,0.3,7.9,1,11.6
			c0.7,3.8,1.9,7.2,3.6,10.1c1.7,3,4.1,5.3,6.9,7.3c3,1.9,6.6,2.8,11.1,2.8c11.4,0,22.5-4.1,33.6-12.4c11-8.3,20.8-20.3,29.5-36
			c8.8-15.7,15.8-34.9,21.2-57.6c5.5-22.9,8.3-48.9,8.3-78.1c0-9.1-0.2-18.5-0.8-28.2c-0.5-9.8-1.5-19.9-2.8-30.3h45.2
			c0.3,1.6,0.6,3.4,0.8,5.7c0.3,2.1,0.6,4.2,0.8,6.5s0.2,4.4,0.2,6.7c0.2,2.1,0.2,3.7,0.2,4.9c0,17.8-0.9,34.8-2.8,51.2
			c-1.7,16.2-3.7,31.7-5.9,46.6c-2.3,14.7-4.3,28.7-6.2,42.1c-1.7,13.4-2.6,26.2-2.6,38.2c0,5.1,0.3,10.2,1,15.3
			c0.9,5,2.3,9.4,4.4,13.2c2.3,3.8,5.2,6.9,9,9.3c4,2.3,9,3.4,15.3,3.4c8.6,0,17.2-1.8,25.8-5.5c8.8-3.8,17.2-9,25-15.8
			c8-6.7,15.3-14.7,22-24c6.9-9.3,12.9-19.6,17.9-30.7c5.1-11.4,9.1-23.4,11.9-36.2c3-12.9,4.4-26.3,4.4-40.1
			c0-6.7-0.5-13.3-1.3-19.7c-0.9-6.4-2.3-12.3-4.1-17.9c-1.9-5.5-4.6-10.2-8-14.2c-3.3-4.1-7.3-7.3-12.2-9.3c-2.1,4.7-5.1,8-9,10.1
			c-4,2.1-8.2,3.1-12.6,3.1c-2.4,0-4.9-0.5-7.5-1.3c-2.6-0.9-5-2.3-7.3-4.1c-2.1-1.9-3.8-4.2-5.1-6.9c-1.4-3-2.1-6.4-2.1-10.4
			c0-3,0.5-5.9,1.6-9c1.2-3.1,3-5.9,5.5-8.3c2.4-2.6,5.6-4.7,9.6-6.2c4.1-1.7,9.2-2.6,15.3-2.6c10.7,0,20,2.5,27.9,7.5
			c8,5,14.5,11.7,19.7,20.1c5.1,8.4,9,18.3,11.6,29.5c2.6,11.2,3.9,23.1,3.9,35.6c0,11.7-1.1,23.7-3.4,36
			C642,590.4,638.8,602.1,634.5,613.8L634.5,613.8z"/>
	</g>
</g>
</svg>
