<svg version="1.1" id="Layer_1" xmlns="http://www.w3.org/2000/svg" xmlns:xlink="http://www.w3.org/1999/xlink" x="0px" y="0px"
	 width="100%" viewBox="0 0 400 400" enable-background="new 0 0 400 400" xml:space="preserve">
<path fill="#1CF1BB" opacity="1.000000" stroke="none" 
	d="
M225.000000,401.000000 
	C151.356201,401.000000 78.212349,400.973938 5.068713,401.085632 
	C1.796491,401.090637 0.893399,400.636292 0.896749,397.070984 
	C1.019512,266.445282 1.021600,135.819382 0.891347,5.193670 
	C0.887601,1.436523 1.848396,0.912455 5.303848,0.915116 
	C135.762985,1.015575 266.222229,1.014784 396.681396,0.918512 
	C400.096954,0.915991 401.115509,1.380956 401.111603,5.178918 
	C400.977570,135.804611 400.980957,266.430511 401.101593,397.056244 
	C401.104858,400.591400 400.250183,401.095734 396.945984,401.088623 
	C339.797516,400.965576 282.648712,401.000000 225.000000,401.000000 
z"/>
<path fill="#38043E" opacity="1.000000" stroke="none" 
	d="
M72.181671,239.663116 
	C66.202423,240.827255 63.381538,238.487869 61.007366,233.215836 
	C51.046127,211.096130 40.557682,189.212753 30.144794,167.298676 
	C28.602114,164.052078 28.591539,163.137482 32.767353,162.820572 
	C39.717770,162.293121 43.559242,164.154114 46.475887,171.187241 
	C53.074741,187.099518 60.964092,202.476639 68.711365,218.881973 
	C72.850723,210.109680 76.647255,202.039047 80.470703,193.981186 
	C81.275009,192.286102 80.013252,191.131424 79.424339,189.858154 
	C75.388184,181.131592 71.276070,172.440155 66.841476,162.998749 
	C71.243439,162.998749 75.127594,163.089691 79.005119,162.968430 
	C81.834297,162.879959 82.040901,165.245407 82.821136,166.887054 
	C90.239670,182.496063 97.556641,198.153320 104.936272,213.780914 
	C105.626198,215.241943 105.880112,216.998505 107.699951,218.158417 
	C115.007324,202.630203 122.780167,187.382904 129.330963,171.627502 
	C132.360336,164.341522 136.352493,161.979141 143.800919,162.829773 
	C147.531708,163.255875 147.423462,164.069580 146.068405,166.874863 
	C141.515106,176.301346 137.153442,185.820267 132.703171,195.296631 
	C126.416817,208.682724 120.052330,222.032745 113.871910,235.467499 
	C112.474876,238.504318 110.869858,239.999069 107.202400,239.936539 
	C103.768715,239.877991 102.254097,238.617035 100.938049,235.667084 
	C96.948914,226.725372 92.657455,217.918533 88.082489,208.207352 
	C85.915741,212.689804 84.062706,216.622223 82.123825,220.511856 
	C78.951904,226.875092 76.641899,233.670090 72.181671,239.663116 
z"/>
<path fill="#37063F" opacity="1.000000" stroke="none" 
	d="
M289.037659,182.063690 
	C277.546173,196.898331 266.257416,211.440002 254.309723,226.830505 
	C267.380371,226.830505 279.446259,226.772202 291.510712,226.877045 
	C294.090576,226.899475 297.702454,225.519241 299.047577,227.691406 
	C300.829773,230.569382 299.521576,234.487976 299.638489,237.955017 
	C299.690491,239.498108 298.449890,239.764191 297.195587,239.764374 
	C274.455597,239.767502 251.715622,239.766663 227.907455,239.766663 
	C244.605988,218.215088 260.662354,197.492310 276.730774,176.753983 
	C275.765015,175.166214 274.286804,175.906906 273.119629,175.900391 
	C261.293243,175.834412 249.464752,175.752045 237.640686,175.929794 
	C234.389923,175.978668 233.354385,175.089355 233.380478,171.748352 
	C233.448883,162.990051 233.283142,162.988739 241.927490,162.988739 
	C260.583740,162.988724 279.240021,162.988724 297.896271,162.988724 
	C299.493225,162.988724 301.090149,162.988724 303.801117,162.988724 
	C298.514252,169.808350 293.877350,175.789536 289.037659,182.063690 
z"/>
<path fill="#37053F" opacity="1.000000" stroke="none" 
	d="
M174.505600,176.434052 
	C179.725174,184.731079 184.732986,192.732239 190.112976,201.328018 
	C197.065277,190.260406 203.992691,179.801437 210.272430,168.967056 
	C212.938980,164.366470 215.854095,162.039154 221.234756,162.924988 
	C223.600922,163.314545 226.084549,162.990601 229.273788,162.990601 
	C226.002029,168.236099 223.135956,172.842926 220.258072,177.442368 
	C216.203171,183.922943 212.593185,190.743301 207.982422,196.801498 
	C199.178391,208.369400 194.199448,220.820480 196.540070,235.551331 
	C197.140045,239.327408 195.192673,239.881226 191.961533,239.844009 
	C183.768692,239.749634 183.181702,239.827347 183.908035,231.763916 
	C184.928650,220.433395 181.826874,210.902649 175.333939,201.611771 
	C166.800049,189.400513 159.358368,176.425949 150.961365,163.003311 
	C155.933533,163.003311 160.163254,163.059021 164.390350,162.978043 
	C166.290405,162.941650 166.942139,164.322998 167.721191,165.549545 
	C169.948395,169.056030 172.107788,172.605576 174.505600,176.434052 
z"/>
<path fill="#37063F" opacity="1.000000" stroke="none" 
	d="
M339.000305,226.493073 
	C349.808929,226.493179 360.119141,226.594147 370.425262,226.433533 
	C373.640411,226.383423 375.119873,226.888809 375.028687,230.692825 
	C374.810944,239.778519 375.034668,239.783890 365.804443,239.783875 
	C348.180023,239.783829 330.554871,239.699142 312.931793,239.853226 
	C309.294617,239.885040 307.607239,239.331863 307.761505,235.057404 
	C308.070282,226.502869 307.797333,226.492935 316.552887,226.492859 
	C323.868683,226.492798 331.184479,226.492935 339.000305,226.493073 
z"/>
<path fill="#38013C" opacity="1.000000" stroke="none" 
	d="
M374.466919,163.510269 
	C375.241821,176.074051 375.241821,176.074036 362.999237,176.074066 
	C346.219177,176.074097 329.437042,175.931961 312.660553,176.177063 
	C308.613373,176.236191 307.689423,174.983063 307.803589,171.175293 
	C308.048523,163.005569 307.849426,162.983643 315.837769,163.002701 
	C335.272400,163.049057 354.706970,163.111725 374.466919,163.510269 
z"/>
<path fill="#38033D" opacity="1.000000" stroke="none" 
	d="
M317.026947,194.730728 
	C335.146118,194.730682 352.769135,194.850052 370.388153,194.636490 
	C374.211945,194.590134 375.105225,195.724030 375.004700,199.388962 
	C374.770111,207.941284 374.966766,207.946701 366.287598,207.946671 
	C348.333527,207.946609 330.377991,207.824554 312.426605,208.043610 
	C308.576538,208.090591 307.709808,206.926010 307.797455,203.281662 
	C308.002960,194.735489 307.813507,194.730927 317.026947,194.730728 
z"/>
</svg>