<?xml version="1.0" encoding="utf-8"?>
<!-- Generator: Adobe Illustrator 27.7.0, SVG Export Plug-In . SVG Version: 6.00 Build 0)  -->
<svg version="1.1" id="Layer_1" xmlns="http://www.w3.org/2000/svg" xmlns:xlink="http://www.w3.org/1999/xlink" x="0px" y="0px"
	 viewBox="0 0 512 512" style="enable-background:new 0 0 512 512;" xml:space="preserve">
<style type="text/css">
	.st0{fill:#107C10;}
	.st1{fill:#FFFFFF;}
</style>
<g id="Layer_2_00000077301010510097263710000004683292546382700958_">
	<path class="st0" d="M53.3,0h405.3c29.2-0.3,53.1,23.2,53.3,52.4c0,0,0,0,0,0.1v407.1c-0.2,29.2-24.1,52.7-53.3,52.4c0,0,0,0-0.1,0
		H53.3C24.1,512.3,0.3,488.8,0,459.6c0,0,0,0,0-0.1V52.4C0.2,23.2,24.1-0.2,53.3,0C53.3,0,53.3,0,53.3,0z"/>
	<path class="st1" d="M186.3,83.4L186.3,83.4c-35.7,35.2-39.7,91.4-9.3,131.3c0.2,0.1,0.4,0.1,0.5,0c0.1-0.2,0.1-0.4,0-0.6
		c-7.7-23.4,31.3-80,51.2-104.2c0-0.1,0-0.3,0-0.4c0,0,0,0,0-0.4c-33.9-33.4-42.7-25.8-42.7-26"/>
	<path class="st1" d="M326,83.4L326,83.4c35.7,35.2,39.7,91.4,9.3,131.3c-0.2,0.1-0.4,0.1-0.5,0c-0.1-0.2-0.1-0.4,0-0.6
		c7.5-23.4-31.1-80.4-51.2-104.2c0-0.1,0-0.3,0-0.4c0,0,0,0,0-0.4c33.9-33.4,42.7-25.8,42.7-26"/>
	<path class="st1" d="M256,54.7c18.4-0.1,36.5,5,52.1,14.7c0.1,0.2,0.1,0.4,0,0.6c0,0-0.4,0-0.6,0c-19.2-4.2-48.6,12.4-51.4,14.1
		H256c-7.3-4.2-34.4-18.5-51.6-14.1c-0.2,0.1-0.4,0.1-0.5,0c-0.1-0.2-0.1-0.4,0-0.6C219.6,59.7,237.6,54.6,256,54.7"/>
	<path class="st1" d="M256,134.6c0,0,0,0,0.4,0c30,22.9,81,78.8,65.4,94.8l0,0c-37.4,32.9-93.5,32.9-130.9,0l0,0
		c-15.5-16,35.5-71.9,65.1-94.6l0,0"/>
	<path class="st1" d="M192.4,390.2c-4-2.6-8.8-3.9-13.5-3.7h-30v69.9h7.8V427h20.7c5.9,0.2,11.8-1.7,16.4-5.3
		c4.1-3.8,6.3-9.2,6-14.8C200.5,400.4,197.6,394.1,192.4,390.2z M156.7,393.9h22c6.7-0.7,12.6,4.2,13.3,10.9c0.1,0.7,0.1,1.4,0,2.1
		c0.1,3.1-1,6.2-3.1,8.6c-2.9,3-7,4.5-11.1,4.2h-21.3v-25.8H156.7z"/>
	<path class="st1" d="M226.2,386.6h-6.9l-28.2,69.9h8.4l8.4-21.3H237l8.4,21.3h8.4L226.2,386.6z M210.7,427.9l12.1-30.6l11.5,30.6
		H210.7z"/>
	<path class="st1" d="M285.8,417.3c-0.5,0-1.1,0-1.7-0.4c-12.1-2.3-19.4-4.6-19.4-12.6c-0.1-3.9,1.9-7.6,5.3-9.5
		c7.9-4,17.3-3.6,24.9,1.1c3.5,2.7,5.4,6.9,5.3,11.3v1.9h7.9v-2c-0.6-14.1-10.7-22.3-27.3-22.3c-12.1,0-24.2,6-24.2,19.6
		c-0.3,5.9,2.8,11.4,8.1,14.2c5,2.6,10.4,4.4,16,5.3h1.1c12.4,2.6,20.1,4.8,20.1,13.4c0.2,4.2-2,8.1-5.7,10.2
		c-3.5,1.9-7.5,3-11.5,2.9c-6.6,0.5-13.1-1.7-18.1-6.1c-2.9-3.2-4.3-7.5-3.8-11.8v-2h-7.5v1.8c-0.4,6.4,1.8,12.7,6.2,17.4
		c11.4,9,27.1,10.4,39.9,3.5c5.5-3.4,8.9-9.5,8.7-16C309.9,422.2,296.1,419.5,285.8,417.3z"/>
	<path class="st1" d="M347.6,417.3c-0.6-0.1-1.1-0.2-1.7-0.4c-12.1-2.3-19.4-4.6-19.4-12.6c-0.1-3.9,1.9-7.6,5.3-9.5
		c7.9-4,17.3-3.6,24.9,1.1c3.5,2.7,5.4,6.9,5.3,11.3v1.9h7.8v-2c-0.5-14.1-10.7-22.3-27.2-22.3c-12.1,0-24.2,6-24.2,19.6
		c-0.3,5.9,2.8,11.4,8.1,14.2c5,2.6,10.4,4.4,16,5.3h1.1c12.4,2.6,20.1,4.8,20.1,13.4c0.2,4.1-1.9,8-5.4,10.2
		c-3.5,1.9-7.5,3-11.5,2.9c-6.6,0.5-13.1-1.7-18.1-6.1c-2.9-3.2-4.3-7.5-3.8-11.8v-2h-7.7v1.8c-0.4,6.4,1.8,12.7,6.2,17.4
		c11.4,9,27.1,10.4,39.9,3.5c5.5-3.4,8.9-9.5,8.7-16C371.7,422.2,357.9,419.5,347.6,417.3z"/>
	<polygon class="st1" points="344.5,353.3 344.5,327.5 382.9,327.5 382.9,320.5 344.5,320.5 344.5,297.1 385.4,297.1 385.4,290.4 
		336.8,290.4 336.8,360.1 386,360.1 386,353.3 	"/>
	<polygon class="st1" points="319.1,290.4 294.8,348.9 270.2,290.4 261.3,290.4 261.3,360.1 269.2,360.1 269.2,306.1 291.5,360.1 
		298.1,360.1 320.2,306.3 320.2,360.1 328.1,360.1 328.1,290.4 	"/>
	<path class="st1" d="M229.3,290.4h-6.9l-28,69.7h8.3l8.4-21.3h29.1l8.2,21.3h8.4L229.3,290.4z M213.8,331.5l11.9-30.3l11.5,30.3
		H213.8z"/>
	<path class="st1" d="M159.5,324v7.4h23c0.2,6.1-2,12.1-6,16.6c-4.5,4.4-10.7,6.8-17,6.6c-3.8,0-7.6-0.7-11.1-2.2
		c-3-1.4-5.7-3.5-7.9-6c-2.1-2.8-3.7-5.9-4.7-9.2c-1.1-3.7-1.7-7.5-1.7-11.3c-0.1-7.4,2.1-14.7,6.4-20.7c4.5-5.8,11.5-9,18.8-8.7
		c10.3-0.2,19.3,6.9,21.3,17h7.7v-0.7c-1.1-6.9-4.8-13.1-10.2-17.4c-5.5-4.1-12.2-6.3-19-6.2c-4.8,0-9.6,1-14.1,2.9
		c-4.1,1.9-7.8,4.6-10.7,8.1c-5.7,7.3-8.7,16.3-8.6,25.6c0,4.7,0.8,9.4,2.3,13.9c1.4,4.2,3.6,8.1,6.4,11.5c6.1,7,15,10.9,24.3,10.7
		c5.9,0.1,11.7-1.4,16.8-4.4c2.5-1.5,4.8-3.5,6.6-5.8v8.7h7.3V324H159.5z"/>
</g>
</svg>
