<svg xmlns="http://www.w3.org/2000/svg" xmlns:xlink="http://www.w3.org/1999/xlink" version="1.1" id="Layer_1" x="0px" y="0px" style="enable-background:new 0 0 512 512;" xml:space="preserve" viewBox="-0.03 83.1 512.03 345.9">
<style type="text/css">
	.st0{fill:#606060;}
	.st1{fill:#34495E;}
	.st2{fill:#41B883;}
</style>
<g id="Layer_2_00000133492266069356788250000005938006672642412161_">
	<g id="Layer_1-2">
		<path class="st0" d="M413.4,120.5c0,0-53.1,0.8-125.6,20l8.2,6.9c0,0,54.3-7.8,99.8-4.1L413.4,120.5z"/>
		<path class="st1" d="M453.3,429c-39.8-46.7-124.1-152.2-393.2-145c0,0-2.2,12.1-41.4,61.4C239.5,326.3,315.8,340,453.3,429z"/>
		<path class="st2" d="M449.5,424.5c3,2.7,4.6,4.3,4.8,4.4c-72.4-169.1-286.6-186.2-286.6-186.2c-3.4,12.5-21.6,28.5-43.7,41.8    C335.5,293.7,411.6,380,449.5,424.5z"/>
		<path class="st1" d="M454.2,428.9c-10.6-42.9-43.8-147.3-195.1-222.3c0,0-0.7,20.1-24.5,49.1C303.8,274.8,407.9,320.8,454.2,428.9    z"/>
		<path class="st0" d="M503.4,83.6c-0.2,0-8.1-0.5-22.1-0.5c-20.1,0-52.8,1.1-92.9,6.4c-20.1,2.7-43.5,6.6-69.1,12.4    c-42.7-2.6-114.6-7-116.7-7.2c-31.8-3.3-65.2,31.9-65.2,31.9s-4.8,26.8-8.5,47.8c-2.8,1.5-5.6,3.1-8.4,4.7    c-0.2,0.1-0.3,0.2-0.5,0.3l-5.4,3.6c2.9-16.5,6-34.1,6.9-38.8c-23.9,7.9-44.1,29.2-44.1,29.2s-0.1,16-0.1,34.4l-64.8,43    c-1,0.7-1.7,1.7-2,2.8L0.1,298c-0.6,2.5,1,5,3.5,5.6c0.3,0.1,0.6,0.1,1,0.1l44.5,0.5c2.4-3.7,4.3-6.8,5.8-9.3l-44.3-0.5l8.5-37    L125,187.2l0.1-0.1c6.7-3.8,13.1-7.3,19.8-10.9c91.3-49.4,183.5-69.4,244.7-77.5c39.5-5.2,71.6-6.3,91.7-6.3    c5.1,0,9.3,0.1,12.7,0.2c-9.9,13.3-32,43.7-54.8,77.8c-33.8,50.6-55.9,89.5-65.9,116.2c2.5,2.5,4.9,5,7.3,7.5    C402.7,229,505.7,92.5,506.8,91.1l5.2-5.9L503.4,83.6z"/>
	</g>
</g>
</svg>