<svg xmlns="http://www.w3.org/2000/svg" viewBox="0 0 1127.48 761.83"><defs><style>.cls-1{fill:#606060;}.cls-2{fill:#34495e;}.cls-3{fill:#41b883;}</style></defs><g id="Layer_2" data-name="Layer 2"><g id="Layer_1-2" data-name="Layer 1"><path class="cls-1" d="M910.39,82.46s-117,1.73-276.6,44.13l18.14,15.09s119.65-17.27,219.87-9Z"/><path class="cls-2" d="M998.21,761.83c-87.73-102.91-273.33-335.07-865.8-319.31,0,0-4.85,26.75-91.18,135.11C527.39,535.8,695.47,566,998.21,761.83Z"/><path class="cls-3" d="M989.74,751.87c6.61,5.94,10.17,9.39,10.47,9.69C840.69,389.18,369,351.53,369,351.53c-7.46,27.49-47.67,62.74-96.28,92C738.86,464,906.42,654,989.74,751.87Z"/><path class="cls-2" d="M1000.21,761.56c-23.32-94.37-96.42-324.42-429.66-489.44,0,0-1.46,44.26-54,108.13C668.94,422.37,898.29,523.65,1000.21,761.56Z"/><path class="cls-1" d="M1108.47,1.19c-.42,0-17.89-1.19-48.66-1.19-44.34,0-116.3,2.41-204.6,14.1C810.94,20,759.4,28.62,703,41.41,609,35.67,450.71,26,446,25.5c-69.93-7.34-143.51,70.16-143.51,70.16s-10.54,58.92-18.62,105.24c-6.16,3.41-12.32,6.85-18.55,10.36a9.2,9.2,0,0,0-1.1.63l-12,7.93c6.39-36.41,13.29-75.09,15.14-85.45-52.69,17.38-97.22,64.26-97.22,64.26s-.13,35.22-.25,75.75L27.17,369a10.31,10.31,0,0,0-4.35,6.27L.26,473.43A10.31,10.31,0,0,0,10.19,486l98,1c5.34-8.15,9.51-14.93,12.76-20.55l-97.59-1,18.74-81.58L275.16,229.44l.29-.16c14.66-8.26,28.92-16.13,43.59-24.05C520.19,96.54,723.11,52.45,857.92,34.6c86.92-11.5,157.77-13.92,201.89-13.92,11.15,0,20.5.16,27.86.35-21.76,29.39-70.54,96.23-120.78,171.41-74.4,111.34-123,197.1-145.12,255.82q8.25,8.3,16,16.56c49-143.34,275.78-444,278.19-447.14l11.52-13.06Z"/></g></g></svg>