<?xml version="1.0" encoding="utf-8"?>
<!-- Generator: Adobe Illustrator 27.7.0, SVG Export Plug-In . SVG Version: 6.00 Build 0)  -->
<svg version="1.1" id="Layer_1" xmlns="http://www.w3.org/2000/svg" xmlns:xlink="http://www.w3.org/1999/xlink" x="0px" y="0px"
	 viewBox="0 0 512 512" style="enable-background:new 0 0 512 512;" xml:space="preserve">
<style type="text/css">
	.st0{fill:#3B5EDA;}
</style>
<g>
	<path class="st0" d="M413.3,234.5h-93.6c-2,0-4.5,1.4-5.5,3.1L258,328.9c-1,1.7-2.7,1.7-3.7,0l-55.5-91.3c-1-1.7-3.5-3.1-5.5-3.1
		H99.2c-2,0-2.7,1.3-1.6,3l110.9,163.1c1.1,1.6,2,4.6,2,6.5V505c0,2,1.6,3.6,3.6,3.6h84.1c2,0,3.6-1.6,3.6-3.6v-97.9
		c0-2,0.9-4.9,2-6.5l111-163.1C416,235.9,415.3,234.5,413.3,234.5L413.3,234.5z"/>
	<path class="st0" d="M249.8,93.4c2.4,1.3,4.8,2.4,6.1,2.4c1.2,0,3.3-0.7,6-2.4c53-33.5,8.9-74.5-6-90
		C240.9,18.9,196.8,59.9,249.8,93.4z"/>
	<path class="st0" d="M194,215.5c3-0.2,5.8-0.7,6.9-1.4c1.1-0.7,2.6-2.6,4-5.8c27.4-61.6-37.5-72.4-60.4-77.5
		C140.5,153.6,125.8,216.7,194,215.5L194,215.5z"/>
	<path class="st0" d="M107.2,202c2.6-1.6,4.8-3.3,5.5-4.4c0.6-1.2,1-3.5,0.8-6.9c-5-67-67.5-46.8-90.1-40.7
		C30.5,172,47.5,234.6,107.2,202L107.2,202z"/>
	<path class="st0" d="M118,314.4c1.1-2.8,1.9-5.5,1.7-6.8c-0.2-1.3-1.3-3.4-3.6-6c-44.5-51-82.5,1.9-97.1,20.1
		C38.2,335.1,89.6,375.5,118,314.4L118,314.4z"/>
	<path class="st0" d="M255.9,110.4c-11.7,13-46.2,47.5-4.7,75.7c1.9,1.1,3.8,2,4.7,2c1,0,2.6-0.6,4.7-2
		C302.1,157.9,267.6,123.4,255.9,110.4z"/>
	<path class="st0" d="M141.6,343.1c-0.7-0.5-2.1-0.8-4.2-0.8c-41.6-0.2-34.6,39.2-32.9,53.5c14.1-3.4,54-10.8,39.3-49.1
		C143.1,345,142.3,343.5,141.6,343.1L141.6,343.1z"/>
	<path class="st0" d="M251.1,275.6c1.9,1.1,3.8,2,4.7,2c1,0,2.6-0.6,4.7-2c41.5-28.1,7-62.7-4.7-75.7
		C244.2,212.9,209.6,247.5,251.1,275.6z"/>
	<path class="st0" d="M76.1,254.6c1.3-1.8,2.4-3.5,2.5-4.5c0.1-1-0.4-2.6-1.6-4.8c-24.7-43.2-62.7-12.5-76.9-2.1
		C12.1,255.9,43.9,292.8,76.1,254.6L76.1,254.6z"/>
	<path class="st0" d="M118.8,135.6c2.2-0.2,4.3-0.4,5.1-1c0.8-0.6,1.8-2,2.7-4.3C144.4,83.8,96,74.8,78.9,70.7
		C76.8,88,68.5,135.8,118.8,135.6L118.8,135.6z"/>
	<path class="st0" d="M186.9,120.6c2.5,0.4,4.8,0.7,5.8,0.3c1-0.4,2.5-1.7,4.1-4c32.1-45.8-18-68.4-35.6-77.4
		C154.3,57.7,132.1,107.5,186.9,120.6L186.9,120.6z"/>
	<path class="st0" d="M311,214.1c1.1,0.7,3.9,1.2,6.9,1.4c68.2,1.3,53.5-61.9,49.5-84.7c-22.9,5.1-87.7,16-60.4,77.5
		C308.4,211.4,309.9,213.4,311,214.1L311,214.1z"/>
	<path class="st0" d="M398.6,190.7c-0.2,3.4,0.1,5.7,0.8,6.9c0.6,1.2,2.9,2.8,5.5,4.4c59.7,32.5,76.7-30.1,83.9-52.1
		C466.1,143.9,403.6,123.7,398.6,190.7L398.6,190.7z"/>
	<path class="st0" d="M395.8,301.6c-2.2,2.6-3.4,4.7-3.6,6c-0.2,1.3,0.6,4,1.7,6.8c28.4,61.1,79.8,20.7,98.9,7.3
		C478.3,303.5,440.3,250.7,395.8,301.6L395.8,301.6z"/>
	<path class="st0" d="M374.5,342.2c-2.1,0-3.5,0.4-4.2,0.8c-0.7,0.4-1.5,1.9-2.2,3.6c-14.7,38.3,25.2,45.7,39.3,49.1
		C409.1,381.5,416.1,342.1,374.5,342.2L374.5,342.2z"/>
	<path class="st0" d="M435.1,245.3c-1.2,2.2-1.7,3.9-1.6,4.8c0.1,1,1.2,2.7,2.5,4.5c32.2,38.2,64,1.2,76.1-11.4
		C497.8,232.9,459.8,202.1,435.1,245.3L435.1,245.3z"/>
	<path class="st0" d="M388.1,134.6c0.8,0.5,2.9,0.8,5.1,1c50.4,0.2,42-47.5,39.9-64.8c-17.1,4.1-65.5,13.1-47.7,59.5
		C386.3,132.6,387.3,134,388.1,134.6L388.1,134.6z"/>
	<path class="st0" d="M319.3,120.9c1,0.4,3.3,0.2,5.8-0.3c54.8-13.2,32.6-62.9,25.6-81.1c-17.5,9-67.6,31.6-35.6,77.4
		C316.8,119.2,318.2,120.5,319.3,120.9L319.3,120.9z"/>
</g>
</svg>
