<svg xmlns="http://www.w3.org/2000/svg" xmlns:xlink="http://www.w3.org/1999/xlink" version="1.1" id="Layer_1" x="0px" y="0px" style="enable-background:new 0 0 512 512;" xml:space="preserve" viewBox="0 166.9 512 178.2">
<style type="text/css">
	.st0{fill-rule:evenodd;clip-rule:evenodd;fill:#026090;}
	.st1{fill:#FFFFFF;}
	.st2{fill:none;stroke:#FFFFFF;stroke-width:1.626;}
</style>
<g>
	<g>
		<path class="st0" d="M353.1,170.4h68.6c47.2,0,85.4,38.3,85.4,85.6c0,47.2-38.2,85.5-85.4,85.5h-68.6c-47.2,0-85.4-38.3-85.4-85.5    C267.7,208.7,305.9,170.4,353.1,170.4L353.1,170.4z M353.1,225.3c-16.9,0-30.6,13.7-30.6,30.7c0,0,0,0,0,0    c0,16.9,13.7,30.7,30.6,30.7h68.6c16.9,0,30.6-13.8,30.6-30.7c0-16.9-13.7-30.7-30.6-30.7H353.1L353.1,225.3z"/>
		<path class="st1" d="M351.7,178.4c-42.8,0-77.5,34.7-77.5,77.6s34.7,77.6,77.5,77.6h71.4c42.8,0,77.5-34.7,77.5-77.6    s-34.7-77.6-77.5-77.6H351.7z M351.7,166.9h71.4c49.1,0,88.9,39.9,88.9,89.1c0,49.2-39.8,89.1-88.9,89.1h-71.4    c-49.1,0-88.9-39.9-88.9-89.1S302.6,166.9,351.7,166.9z M351.7,235.5c-11.3,0-20.4,9.2-20.4,20.5c0,11.3,9.1,20.5,20.4,20.5h71.4    c11.3,0,20.4-9.2,20.4-20.5c0-11.3-9.1-20.5-20.4-20.5l0,0L351.7,235.5L351.7,235.5z M351.7,224.1h71.4    c17.6,0,31.9,14.3,31.9,31.9c0,0,0,0,0,0c0,17.6-14.3,31.9-31.9,31.9c0,0,0,0,0,0h-71.4c-17.6,0-31.9-14.3-31.9-31.9c0,0,0,0,0,0    C319.8,238.4,334,224.1,351.7,224.1C351.7,224.1,351.7,224.1,351.7,224.1L351.7,224.1z"/>
		<path class="st0" d="M91.3,172.9h66.6c45.8,0,82.9,37.2,82.9,83.1s-37.1,83.1-82.9,83.1H91.3c-45.8,0-82.9-37.2-82.9-83.1    S45.5,172.9,91.3,172.9z M91.3,226.2c-16.4,0-29.8,13.4-29.7,29.8v0c0,16.4,13.3,29.8,29.7,29.8h66.6c16.4,0,29.8-13.3,29.7-29.8    c0-16.4-13.3-29.8-29.7-29.8c0,0,0,0,0,0H91.3z"/>
		<path class="st1" d="M88.9,178.4c-42.8,0-77.5,34.7-77.5,77.6s34.7,77.6,77.5,77.6h71.4c42.8,0,77.5-34.7,77.5-77.6    s-34.7-77.6-77.5-77.6H88.9z M88.9,166.9h71.4c49.1,0,88.9,39.9,88.9,89.1c0,49.2-39.8,89.1-88.9,89.1H88.9    C39.8,345.1,0,305.2,0,256S39.8,166.9,88.9,166.9z M88.9,235.5c-11.3,0-20.4,9.2-20.4,20.5c0,11.3,9.1,20.5,20.4,20.5h71.4    c11.3,0,20.4-9.2,20.4-20.5c0-11.3-9.1-20.5-20.4-20.5l0,0L88.9,235.5L88.9,235.5z M88.9,224.1h71.4c17.6,0,31.9,14.3,31.9,31.9    c0,0,0,0,0,0c0,17.6-14.3,31.9-31.9,31.9l0,0H88.9C71.3,287.9,57,273.6,57,256c0,0,0,0,0,0C57,238.4,71.3,224.1,88.9,224.1    C88.9,224.1,88.9,224.1,88.9,224.1L88.9,224.1z"/>
		<path class="st1" d="M175.4,287.9c-17.6,0-31.9-14.3-31.9-31.9l0,0c0-17.6,14.3-31.9,31.9-31.9l0,0H338    c17.6,0,31.9,14.3,31.9,31.9l0,0c0,17.6-14.3,31.9-31.9,31.9l0,0H175.4z"/>
		<g transform="translate(419.61 166.186)">
			<g>
				<path id="a" class="st0" d="M-244.2,110.3h162.6c11.3,0,20.4-9.2,20.4-20.5c0-11.3-9.1-20.5-20.4-20.5h0h-162.6      c-11.3,0-20.4,9.2-20.4,20.5C-264.7,101.1-255.5,110.3-244.2,110.3z"/>
			</g>
			<path class="st2" d="M-244.2,116h162.6c14.5,0,26.2-11.7,26.2-26.2c0-14.5-11.7-26.2-26.2-26.2c0,0,0,0,0,0h-162.6     c-14.5,0-26.2,11.7-26.2,26.2c0,0,0,0,0,0C-270.4,104.3-258.7,116-244.2,116L-244.2,116z"/>
		</g>
	</g>
</g>
</svg>