<svg xmlns="http://www.w3.org/2000/svg" xmlns:svg="http://www.w3.org/2000/svg" id="svg841" width="904.215" height="904.232" version="1.1" viewBox="0 0 239.24 239.245"><defs id="defs835"><marker style="overflow:visible" id="marker2105" orient="auto" refX="0" refY="0"><path transform="matrix(0.8,0,0,0.8,10,0)" style="fill:#2ebd59;fill-opacity:1;fill-rule:evenodd;stroke:#fff;stroke-width:1pt;stroke-opacity:1" id="path2103" d="M 0,0 5,-5 -12.5,0 5,5 Z"/></marker><marker style="overflow:visible" id="Arrow1Lstart" orient="auto" refX="0" refY="0"><path transform="matrix(0.8,0,0,0.8,10,0)" style="fill:#fff;fill-opacity:.0081081;fill-rule:evenodd;stroke:#fff;stroke-width:1pt;stroke-opacity:1" id="path1593" d="M 0,0 5,-5 -12.5,0 5,5 Z"/></marker><marker style="overflow:visible" id="marker2105-7" orient="auto" refX="0" refY="0"><path transform="matrix(0.8,0,0,0.8,10,0)" style="fill:#2ebd59;fill-opacity:1;fill-rule:evenodd;stroke:#fff;stroke-width:1pt;stroke-opacity:1" id="path2103-5" d="M 0,0 5,-5 -12.5,0 5,5 Z"/></marker></defs><metadata id="metadata838"/><g id="layer1" style="display:inline" transform="translate(14.314513,-28.765695)"><circle style="opacity:.815668;fill:#fff;fill-opacity:.0081081;stroke:#fff;stroke-width:.750001;stroke-linecap:round;stroke-linejoin:round;marker-mid:url(#Arrow1Lstart)" id="path1404" cx="-16.294" cy="181.225" r="36.332" transform="rotate(-40.5)"/><path id="path1410" style="display:inline;opacity:1;fill:#2ebd59;fill-opacity:1;stroke:#fff;stroke-width:0;stroke-linecap:round;stroke-linejoin:round;stroke-miterlimit:4;stroke-dasharray:none;marker-mid:url(#marker2105)" d="m 27.55249,57.485723 a 119.61891,119.61891 45 0 0 -13.2047,168.587347 119.61891,119.61891 45 0 0 156.62573,22.29617 l -27.85543,-32.61452 a 77.253882,77.253882 0 0 1 -96.55581,-17.19543 77.253882,77.253882 0 0 1 8.515713,-108.868418 77.253882,77.253882 0 0 1 0.05619,-0.04799 77.253882,77.253882 0 0 1 108.916807,8.571574 77.253882,77.253882 0 0 1 1.87907,98.057004 l 27.85575,32.6149 A 119.61891,119.61891 45 0 0 196.26548,70.700681 119.61891,119.61891 45 0 0 27.620078,57.427998 a 119.61891,119.61891 45 0 0 -0.06759,0.05772 z m 47.003202,54.896817 a 47.34915,47.34915 0 0 0 -5.25375,66.75525 47.34915,47.34915 0 0 0 66.755248,5.25375 47.34915,47.34915 0 0 0 5.25414,-66.75558 47.34915,47.34915 0 0 0 -66.755638,-5.25342 z"/></g></svg>