<?xml version="1.0" encoding="utf-8"?>
<!-- Generator: Adobe Illustrator 27.7.0, SVG Export Plug-In . SVG Version: 6.00 Build 0)  -->
<svg version="1.1"
	 id="svg841" xmlns:dc="http://purl.org/dc/elements/1.1/" xmlns:inkscape="http://www.inkscape.org/namespaces/inkscape" xmlns:rdf="http://www.w3.org/1999/02/22-rdf-syntax-ns#" xmlns:svg="http://www.w3.org/2000/svg" xmlns:cc="http://creativecommons.org/ns#" xmlns:sodipodi="http://sodipodi.sourceforge.net/DTD/sodipodi-0.dtd" inkscape:version="1.0.2 (e86c870879, 2021-01-15)"
	 xmlns="http://www.w3.org/2000/svg" xmlns:xlink="http://www.w3.org/1999/xlink" x="0px" y="0px" viewBox="0 0 512 512"
	 style="enable-background:new 0 0 512 512;" xml:space="preserve">
<style type="text/css">
	.st0{opacity:0.8157;}
	.st1{fill:#46BB5C;}
</style>
<g id="layer1" transform="translate(14.314513,-28.765695)" inkscape:groupmode="layer" inkscape:label="Layer 1">
	<g>
		<g id="path1404_00000168837372976549077490000005625265257550997166_" class="st0">
			
				<ellipse transform="matrix(0.7071 -0.7071 0.7071 0.7071 -130.5694 254.3043)" class="st1" cx="241.7" cy="284.8" rx="77.8" ry="77.8"/>
		</g>
		<path class="st1" d="M75.3,90.2C-32.1,182.1-44.7,343.6,47,451c83.8,98.1,227.4,118.5,335.2,47.7l-59.6-69.8
			c-68.8,38.6-155.4,23.2-206.6-36.8c-59.3-69.4-51.1-173.7,18.2-233c0,0,0.1-0.1,0.1-0.1c69.4-59.3,173.8-51.1,233.1,18.3
			c0,0,0,0,0,0c51.3,60,52.9,147.9,4,209.8L431,457c86.8-95.4,89.1-240.5,5.3-338.5C344.5,11,182.9-1.7,75.4,90.1c0,0,0,0,0,0
			C75.4,90.1,75.3,90.2,75.3,90.2L75.3,90.2zz"/>
	</g>
</g>
</svg>
