<svg xmlns="http://www.w3.org/2000/svg" xml:space="preserve" id="svg34961" x="0" y="0" style="enable-background:new 0 0 833 673.7" version="1.1" viewBox="0 0 833 673.7"><style>.st0{fill:#282828}</style><path id="path34644" d="M568.4 291.4c-1.5-.6-3-1.2-4.4-1.9-46.9-22.2-197.5-71.3-227.5-80.1-5.1-1.5-20.4-6.2-26.4-1.8-5.9 4.4-2.2 22.2-1.5 27 2.5 17.3 24.2 174 26.8 190.5l.5 3c2.2 13.7 5.4 42 13.4 46s28.4-9.4 39.3-17.9l149.7-105.6c9.5-6.7 19-13.4 28.5-20l3.6-2.4c6.5-4.1 14.8-9.1 14.2-19.5-.6-10.4-9.5-14.6-16.2-17.3zM364.5 445.3c-7.9-28.9-30.9-176.7-32.9-211.8 33.6 4 176.8 54.6 220.1 77.8-8.5 6-165.7 121.9-187.2 134z" class="st0"/><path id="path34646" d="M808.2 402.3c-1.3-38.1-12.5-183-14.8-200.6-4.3-30.9-12.2-60.9-23.8-90-9.2-23.4-24.4-42-45.5-55.8-35-25.1-63.3-29.2-99-29.2-25 0-42 1.5-53.1 2.2-84 5.3-167.5 15.2-250.5 29.6-58.4 9.4-115.3 24.4-170.7 45-32.7 11.7-61.5 29.7-86.3 54-35.7 36.4-45.1 70-37.1 110.2 10.5 54.6 27.6 181 28.4 187.9 3.5 37.8 11.3 74.7 23.4 110.6 6.2 19.7 17 36.5 32.3 50.3 15.3 13.9 33.1 22.9 53.4 27.2 27.5 6.7 56 4.4 92.9-4.2 50-11.8 99.8-23.1 150.6-32.4 66.4-11.5 133.2-18.9 200.4-22.2 15.4-1 52.8-4 56-4.4 10.2-1.3 20.4-3 30.4-5.3 26.9-6.5 50-19.7 69.2-39.7 11.6-11.3 21-24.1 28.4-38.5 15.2-31.7 16.4-65.6 15.4-94.7zm-237.6-74-3.6 2.4c-9.6 6.6-19.1 13.3-28.5 20L388.7 456.2c-10.9 8.5-31.3 22.2-39.3 17.9-8-4.3-11.3-32.2-13.4-46l-.5-3c-2.6-16.4-24.3-173.3-26.8-190.5-.7-4.9-4.2-22.7 1.5-27 5.6-4.2 21.2 0 26.4 1.8 29.7 8.8 180.5 57.8 227.5 80.1 1.4.7 2.9 1.3 4.4 1.9 6.7 2.7 15.9 6.3 16.3 17.3.5 11-7.7 15.6-14.2 19.6z" style="fill:red"/><path id="path34648" d="M551.8 311c-8.6 6.3-165.8 122.2-187.3 134.3-7.9-28.9-30.9-176.7-32.9-211.8 33.6 3.9 176.8 54.6 220.2 77.5z" style="fill:#fff"/><path id="path34650" d="M26.5 264.7c8-55.5 37.1-74.6 58.1-90.1 35-26 65.3-40.1 114.3-53.6C338.2 82.6 422 71.2 565.6 66.6c38.6-1.2 100.1-4.1 136 12.7 28.9 13.5 52 29.6 79.7 66.6-3.4-11.8-7.4-23.2-11.9-34.3-9.2-23.4-24.4-42-45.5-55.8-34.9-25.1-63.2-29.2-99-29.2-22.9 0-39 1.2-50.1 2h-3c-84 5.3-167.5 15.2-250.5 29.6-58.4 9.4-115.3 24.4-170.7 45C118 115 89.2 133 64.4 157.3c-3.3 3.3-6.2 6.6-9.1 9.8-27.2 32.3-34.8 62.4-28.8 97.6z" style="fill:#ff8983"/><path id="path34652" d="M832.1 388c-.7-20.1-9.3-162.9-12.9-185.9-5.9-38-13-74.6-29.7-108.5C772.8 59.7 758 40.8 733.1 27 687 1.9 658.6-1.8 591.3.7c-33.1 1.2-228.9 24.7-271.6 31.8-61.5 9.4-121.3 25.1-179.4 47.2-31.8 11.8-60.2 29.1-85.3 51.8C8 175-8.2 222.5 3.8 280.7c9.1 44.4 23.8 166.5 25.8 182.1 4.2 38.5 12.7 76.1 25.5 112.7 19.8 53.2 56.7 84.3 112.8 95.3 10.2 1.9 20.5 2.8 30.8 2.9 22.1-.8 43.9-3.9 65.3-9.3 11.1-2.6 46.3-11 113.7-25.2 111.4-23.5 244.2-30.7 269.7-32.7 3.7 0 34.8-2.4 46.5-4.7 46.8-8.7 75.3-35.5 102.7-64.1 19.9-22.2 31.5-48.2 34.7-77.9 2-23.8 2.2-47.8.8-71.8zm-39.6 109.2c-7.3 14.4-16.8 27.2-28.4 38.5-19.2 20-42.2 33.2-69.2 39.7-10.1 2.3-20.2 4.1-30.4 5.3-3.2 0-40.5 3.4-56 4.4-67.3 3.3-134.1 10.7-200.4 22.2-50.6 9.3-100.4 20.7-150.3 32.4-37.1 8.7-65.3 10.9-92.9 4.2-20.3-4.2-38.2-13.2-53.5-27C96 603 85.2 586.2 78.9 566.5c-12.1-36-19.9-72.8-23.4-110.6-.8-6.9-17.9-133.3-28.4-187.9-7.4-40.3 1.6-74 37.1-110.2 24.8-24.4 53.6-42.4 86.4-54.1C206 83 263 68 321.4 58.6c82.9-14.5 166.3-24.4 250.2-29.8 11.1-.7 28.1-2.2 53.1-2.2 35.9 0 64 4.1 99 29.2 21.1 13.8 36.3 32.4 45.5 55.8 11.6 29 19.5 59 23.8 90 2.5 17.7 13.7 162.9 14.8 200.6 1.4 29.2.2 63.1-15.3 95z" class="st0"/></svg>