<svg xmlns="http://www.w3.org/2000/svg" width="64" height="64" version="1"><path d="M27.395 52.964c-9.256-.18-13.012-.338-15.31-.646-1.684-.226-2.512-.446-3.445-.917-1.541-.777-2.5-1.861-3.191-3.61-.633-1.598-.89-2.867-1.126-5.552-.267-3.03-.288-3.578-.316-8.298-.032-5.551.033-7.37.399-11.055.191-1.932.47-3.215.995-4.577.478-1.24.914-1.923 1.708-2.677.997-.948 2.092-1.524 3.474-1.828C12.646 13.35 21.973 13 32.005 13s19.358.35 21.422.804c1.492.328 2.587.934 3.656 2.024.836.853 1.267 1.627 1.78 3.201.527 1.622.73 3.057 1.03 7.303.143 2.017.143 11.3 0 13.316-.167 2.358-.371 4.458-.508 5.21-.35 1.931-1.038 3.74-1.814 4.768-.532.706-1.582 1.547-2.46 1.97-.89.428-1.738.641-3.104.778-4.234.425-17.163.735-24.612.59z" style="opacity:.2"/><path d="M27.395 51.964c-9.256-.18-13.012-.338-15.31-.646-1.684-.226-2.512-.446-3.445-.917-1.541-.777-2.5-1.861-3.191-3.61-.633-1.598-.89-2.867-1.126-5.552-.267-3.03-.288-3.578-.316-8.298-.032-5.551.033-7.37.399-11.055.191-1.932.47-3.215.995-4.577.478-1.24.914-1.923 1.708-2.677.997-.948 2.092-1.524 3.474-1.828C12.646 12.35 21.973 12 32.005 12s19.358.35 21.422.804c1.492.328 2.587.934 3.656 2.024.836.853 1.267 1.627 1.78 3.201.527 1.622.73 3.057 1.03 7.303.143 2.017.143 11.3 0 13.316-.167 2.358-.371 4.458-.508 5.21-.35 1.931-1.038 3.74-1.814 4.768-.532.706-1.582 1.547-2.46 1.97-.89.428-1.738.641-3.104.778-4.234.425-17.163.735-24.612.59z" style="fill:#c2352a"/><path d="M33.233 37.53C41.17 33.014 41 33.113 41 33.023c0-.085-13.893-8.069-13.961-8.023-.046.031-.054 15.936-.01 15.986.018.018.066.019.108.001.041-.018 2.785-1.573 6.096-3.457z" style="opacity:.2"/><path d="M33.233 36.53C41.17 32.014 41 32.113 41 32.023c0-.085-13.893-8.069-13.961-8.023-.046.031-.054 15.935-.01 15.986.018.018.066.019.108.001.041-.018 2.785-1.573 6.096-3.457z" style="fill:#fff"/><path d="M32.004 12c-10.032 0-19.359.35-21.422.805-1.382.304-2.476.88-3.473 1.828-.793.754-1.229 1.436-1.707 2.676-.524 1.36-.804 2.646-.996 4.578-.299 3.015-.392 4.89-.4 8.476.022-3.007.127-4.722.4-7.476.192-1.932.472-3.217.996-4.578.478-1.24.914-1.922 1.707-2.676.997-.948 2.09-1.524 3.473-1.828C12.645 13.35 21.972 13 32.004 13s19.358.35 21.422.805c1.492.328 2.587.934 3.656 2.023.836.853 1.269 1.626 1.781 3.2.528 1.62.731 3.057 1.032 7.304.07.984.087 3.567.085 6.264.001.138.004.258.004.396.013-3.202-.007-6.5-.09-7.66-.3-4.247-.503-5.683-1.03-7.305-.513-1.573-.946-2.346-1.782-3.199-1.069-1.09-2.164-1.695-3.656-2.023C51.362 12.35 42.036 12 32.004 12Z" style="opacity:.2;fill:#fff"/><path d="M63.958 45.894A15 15 0 0 1 49 60a15 15 0 0 1-14.958-13.894A15 15 0 0 0 34 47a15 15 0 0 0 15 15 15 15 0 0 0 15-15 15 15 0 0 0-.042-1.106Z" style="opacity:.2"/><circle cx="49" cy="46" r="15" style="fill:#03a9f4"/><path d="M52 37v8h3l-6 8-6-8h3v-8ZM42 53h14v2H42Z" style="fill:#fff"/></svg>