<svg xmlns="http://www.w3.org/2000/svg" xmlns:xlink="http://www.w3.org/1999/xlink" version="1.1" id="Layer_1" x="0px" y="0px" style="enable-background:new 0 0 512 512;" xml:space="preserve" viewBox="0.03 42.5 511.97 418.3">
<style type="text/css">
	.st0{fill:#C2352A;}
	.st1{fill:#FFFFFF;}
	.st2{fill:#03A9F4;}
</style>
<g>
	<path class="st0" d="M199.6,383.7c-79-1.5-111-2.9-130.6-5.5c-14.4-1.9-21.4-3.8-29.4-7.8c-13.2-6.6-21.3-15.9-27.2-30.8   c-5.4-13.6-7.6-24.5-9.6-47.4c-2.3-25.9-2.5-30.5-2.7-70.8C-0.2,174,0.3,158.5,3.5,127c1.6-16.5,4-27.4,8.5-39.1   c4.1-10.6,7.8-16.4,14.6-22.9c8.5-8.1,17.9-13,29.6-15.6c17.6-3.9,97.2-6.9,182.8-6.9s165.2,3,182.8,6.9c12.7,2.8,22.1,8,31.2,17.3   c7.1,7.3,10.8,13.9,15.2,27.3c4.5,13.8,6.2,26.1,8.8,62.3c1.2,17.2,1.2,96.4,0,113.6c-1.4,20.1-3.2,38-4.3,44.5   c-3,16.5-8.9,31.9-15.5,40.7c-4.5,6-13.5,13.2-21,16.8c-7.6,3.7-14.8,5.5-26.5,6.6C373.5,382.3,263.2,384.9,199.6,383.7   L199.6,383.7z"/>
	<path class="st1" d="M249.5,252c67.7-38.5,66.3-37.7,66.3-38.5c0-0.7-118.6-68.9-119.1-68.5c-0.4,0.3-0.5,136-0.1,136.4   c0.1,0.2,0.6,0.2,0.9,0C197.8,281.3,221.2,268.1,249.5,252L249.5,252z"/>
	<g>
		<circle class="st2" cx="384" cy="332.8" r="128"/>
		<path class="st1" d="M409.6,256v68.3h25.6L384,392.5l-51.2-68.3h25.6V256H409.6z M324.3,392.5h119.5v17.1H324.3V392.5z"/>
	</g>
</g>
</svg>