<svg xmlns="http://www.w3.org/2000/svg" xml:space="preserve" width="92" height="38" viewBox="-6 -2.501 92 38"><g fill="#6AC045"><path d="M15.541 32.485c-10.379 0-18.795-8.415-18.795-18.795C-3.254 6.795.462.769 5.999-2.501-.892.624-5.687 7.555-5.687 15.614c0 10.981 8.902 19.885 19.885 19.885 10.477 0 19.057-8.106 19.824-18.387-1.61 8.745-9.27 15.373-18.481 15.373z"/><circle cx="19.497" cy="23.161" r="5.006"/><circle cx="6.433" cy="19.749" r="5.008"/><circle cx="8.465" cy="6.832" r="5.008"/><circle cx="14.489" cy="14.743" r="1.888"/><path d="m32.618 28.049 2.039-10.796L29.516 1.59h6.046l2.787 10.196L45.022 1.59h6.751L40.351 17.136 38.27 27.177l-5.652.872z"/><path d="M56.601 6.537h-9.642l3.765-4.946h21.681s-3.704 2.292-4.248 4.946h-5.901l-4.044 20.64-5.651-.435 4.04-20.205z"/><path d="M67.63 21.924c1.569.941 3.809 1.688 6.243 1.688 2.197 0 4.199-1.021 4.199-3.101 0-1.49-1.138-2.472-3.573-3.728-2.827-1.531-5.496-3.572-5.496-7.027 0-5.34 4.674-8.597 10.442-8.597 3.22 0 5.104.706 6.241 1.333L83.92 7.203c-.865-.47-2.748-1.216-4.944-1.177-2.632 0-4.008 1.335-4.008 2.789 0 1.529 1.608 2.472 3.848 3.728 3.22 1.688 5.26 3.847 5.26 6.987 0 5.888-4.869 8.909-10.757 8.909-3.688 0-6.319-.94-7.575-1.884l1.886-4.631zM16.488 35.367c1.144.072 30.557-6.929 59.615.132 0 0-16.943-6.134-37.771-4.253 0 0 12.188-3.197 38.858 1.588 0 0-26.56-8.367-51.317-1.128-3.655.889-10.527 3.59-9.385 3.661z"/></g></svg>