<?xml version="1.0" encoding="UTF-8"?>
<!-- Generator: Adobe Illustrator 16.0.0, SVG Export Plug-In . SVG Version: 6.00 Build 0)  -->
<!DOCTYPE svg PUBLIC "-//W3C//DTD SVG 1.1//EN" "http://www.w3.org/Graphics/SVG/1.1/DTD/svg11.dtd">
<svg version="1.1" id="Layer_1" xmlns="http://www.w3.org/2000/svg" xmlns:xlink="http://www.w3.org/1999/xlink" x="0px" y="0px" width="92px" height="38px" viewBox="-6 -2.501 92 38" enable-background="new -6 -2.501 92 38" xml:space="preserve">
<g>
	<path fill="#6AC045" d="M15.541,32.485c-10.379,0-18.795-8.415-18.795-18.795c0-6.895,3.716-12.921,9.253-16.191   C-0.892,0.624-5.687,7.555-5.687,15.614c0,10.981,8.902,19.885,19.885,19.885c10.477,0,19.057-8.106,19.824-18.387   C32.412,25.857,24.752,32.485,15.541,32.485z"/>
	<circle fill="#6AC045" cx="19.497" cy="23.161" r="5.006"/>
	<circle fill="#6AC045" cx="6.433" cy="19.749" r="5.008"/>
	<circle fill="#6AC045" cx="8.465" cy="6.832" r="5.008"/>
	<circle fill="#6AC045" cx="14.489" cy="14.743" r="1.888"/>
	<g>
		<path fill="#6AC045" d="M32.618,28.049l2.039-10.796L29.516,1.59h6.046l2.787,10.196L45.022,1.59h6.751L40.351,17.136    L38.27,27.177L32.618,28.049z"/>
		<path fill="#6AC045" d="M56.601,6.537h-9.642l3.765-4.946h21.681c0,0-3.704,2.292-4.248,4.946h-5.901l-4.044,20.64l-5.651-0.435    L56.601,6.537z"/>
		<path fill="#6AC045" d="M67.63,21.924c1.569,0.941,3.809,1.688,6.243,1.688c2.197,0,4.199-1.021,4.199-3.101    c0-1.49-1.138-2.472-3.573-3.728c-2.827-1.531-5.496-3.572-5.496-7.027c0-5.34,4.674-8.597,10.442-8.597    c3.22,0,5.104,0.706,6.241,1.333l-1.766,4.711c-0.865-0.47-2.748-1.216-4.944-1.177c-2.632,0-4.008,1.335-4.008,2.789    c0,1.529,1.608,2.472,3.848,3.728c3.22,1.688,5.26,3.847,5.26,6.987c0,5.888-4.869,8.909-10.757,8.909    c-3.688,0-6.319-0.94-7.575-1.884L67.63,21.924z"/>
	</g>
	<path fill="#6AC045" d="M16.488,35.367c1.144,0.072,30.557-6.929,59.615,0.132c0,0-16.943-6.134-37.771-4.253   c0,0,12.188-3.197,38.858,1.588c0,0-26.56-8.367-51.317-1.128C22.218,32.595,15.346,35.296,16.488,35.367z"/>
</g>
</svg>