<?xml version="1.0" encoding="utf-8"?>
<!-- Generator: Adobe Illustrator 27.7.0, SVG Export Plug-In . SVG Version: 6.00 Build 0)  -->
<svg version="1.1" id="Layer_1" xmlns="http://www.w3.org/2000/svg" xmlns:xlink="http://www.w3.org/1999/xlink" x="0px" y="0px"
	 viewBox="0 0 512 512" style="enable-background:new 0 0 512 512;" xml:space="preserve">
<style type="text/css">
	.st0{fill:#0071BC;}
</style>
<g transform="translate(0.000000,800.000000) scale(0.100000,-0.100000)">
	<path class="st0" d="M1033.2,7993c-41-9.6-73.7-36.5-103.8-85.2c-15.4-25-201.9-346.7-414-715.1
		c-212.7-368.5-399.2-691.4-414-717.7c-15.4-26.3-25.6-50-23.1-52.5c6.4-6.4,259.5-152.5,264.7-152.5c2.6,0,186.5,316.6,409.5,703.6
		c223,386.4,406.3,703.6,406.9,704.9c0.6,0.6,371,1.3,822.1,1.3h821.5v160.2V8000l-872.8-0.6C1449.7,7998.7,1046,7996.2,1033.2,7993
		z"/>
	<path class="st0" d="M1365.1,7394.4c-55.7-19.9-53.2-16-421.6-654.3c-192.9-334.5-351.2-610-351.2-612.6
		c0-4.5,269.1-161.5,271.7-157.6c0.6,1.3,146.7,253.8,323.6,561.3l322.3,558.8h646.6h646.6v157v157h-706.2
		C1512.5,7403.4,1385.6,7402.1,1365.1,7394.4z"/>
	<path class="st0" d="M1697.7,6779.9c-17.3-8.3-38.4-21.8-46.1-30.1c-7.7-8.3-253.1-430-546-937.5
		c-403.7-699.1-533.1-928.5-536.4-949.7c-5.1-34,0.6-67.9,16.7-98.7c41.7-80.7,1054.8-1826.3,1068.2-1841
		c9.6-9.6,28.8-23.1,43.6-30.1c26.3-12.8,39.7-12.8,1106-12.8h1079.7l33.3,16.7c18.6,9,40.4,25.6,48.7,37.2
		c30.8,40.4,203.1,345.4,198,350.5c-2.6,2.6-62.8,37.8-133.3,78.2c-86.5,50.6-130.1,72.4-135.2,67.9c-3.8-3.2-37.2-57.7-73.7-121.1
		l-66-115.3l-950.9,1.3l-950.9,1.9l-472.9,820.2l-473.6,820.2l10.9,19.2c6.4,10.3,220.4,380.6,474.8,822.1l463.3,802.3h949.7h949
		l471-815.7c258.9-447.9,471-820.9,471-827.9c0-12.2-487-864.4-508.2-888.8c-9-10.9-58.3-11.5-860.6-11.5
		c-467.8,0-852.3,1.9-853.5,5.1c-1.9,2.6,220.4,390.9,493.4,863.2c273,472.3,505,876,515.8,897.1c44.2,86.5,12.8,183.9-71.1,220.4
		l-32,13.5l-726-1.3l-726-1.9v-153.8v-153.8l572.2-1.9c315.3-0.6,571.6-3.8,570.3-6.4c-1.3-3.2-232.6-404.3-514.6-892.6l-512-886.9
		l-2.6-42.9c-1.3-23.7,0.6-53.2,5.1-66c10.3-30.8,46.1-70.5,79.5-88.4l26.3-14.1h1083h1083l25.6,14.1c14.1,7.7,34.6,23.1,45.5,35.2
		c11.5,11.5,160.8,264,331.9,561.3c228.8,396,313.4,548.5,317.8,570.3c6.4,34.6,0.6,71.8-16,103.8
		c-28.8,55.7-1045.1,1812.8-1058.6,1830.8c-9,11.5-30.8,27.6-48.7,37.2l-32.7,16H2806.9H1729.7L1697.7,6779.9z"/>
</g>
</svg>
