<svg xmlns="http://www.w3.org/2000/svg" xmlns:xlink="http://www.w3.org/1999/xlink" width="126" height="108" version="1.1" viewBox="0 0 42 36"><title>logo</title><desc>Created with Sketch.</desc><g id="Page-1" fill="none" fill-rule="evenodd" stroke="none" stroke-width="1"><g id="logo"><g id="Shape"><path fill="#CA2317" d="M27.3375,12.6 L36.72,9.72 L31.1625,13.2525 L27.3375,12.6 Z" transform="translate(1.000000, 0.000000)"/><path fill="#E84F83" d="M33.0525,19.62 L31.1625,13.2525 L36.72,9.72 L35.055,15.435 L33.0525,19.62 Z" transform="translate(1.000000, 0.000000)"/><path fill="#CA2317" d="M39.465,7.9875 L38.43,9.72 L35.055,15.435 L36.72,9.72 L39.465,7.9875 Z" transform="translate(1.000000, 0.000000)"/><path fill="#E54011" d="M39.8025,9.1125 L37.1925,11.79 L38.43,9.72 L39.8025,9.1125 Z" transform="translate(1.000000, 0.000000)"/><path fill="#E54011" d="M27.9,10.8225 L35.5725,10.0575 L30.24,11.7 L27.9,10.8225 Z" transform="translate(1.000000, 0.000000)"/><path fill="#CA2317" d="M28.1925,15.165 L31.1625,13.2525 L33.0525,19.62 L32.0625,21.645 L28.1925,15.165 Z" transform="translate(1.000000, 0.000000)"/><path fill="#B7DFF2" d="M23.76,22.725 L22.3425,5.4 L32.0625,21.645 L23.76,22.725 Z" transform="translate(1.000000, 0.000000)"/><path fill="#E54011" d="M19.7325,27.1575 L23.76,22.725 L32.0625,21.645 L19.7325,27.1575 Z" transform="translate(1.000000, 0.000000)"/><path fill="#FFCE33" d="M0.1575,35.865 L19.7325,27.1575 L23.76,22.725 L17.37,22.0725 L0.1575,35.865 Z" transform="translate(1.000000, 0.000000)"/><path fill="#D6B12D" d="M0.9,28.755 L10.9575,27.225 L14.085,24.705 L12.555,24.03 L0.9,28.755 Z" transform="translate(1.000000, 0.000000)"/><path fill="#FFDE85" d="M4.5225,20.5425 L14.085,24.705 L17.37,22.0725 L4.5225,20.5425 Z" transform="translate(1.000000, 0.000000)"/><path fill="#009EC6" d="M21.6225,11.6775 L20.4075,11.88 L17.37,22.0725 L20.655,20.0025 L21.6225,11.6775 Z" transform="translate(1.000000, 0.000000)"/><path fill="#5EAFCE" d="M23.4,18.2475 L20.655,20.0025 L22.3425,5.4 L23.4,18.2475 Z" transform="translate(1.000000, 0.000000)"/><path fill="#045972" d="M13.0275,13.05 L21.6225,11.6775 L22.005,8.28 L13.0275,13.05 Z" transform="translate(1.000000, 0.000000)"/><path fill="#5A8591" d="M12.105,5.085 L19.575,9.585 L22.005,8.28 L22.0725,7.8075 L12.105,5.085 Z" transform="translate(1.000000, 0.000000)"/><path fill="#009EC6" d="M13.5675,0.18 L20.3625,7.335 L22.0725,7.8075 L22.3425,5.4 L13.5675,0.18 Z" transform="translate(1.000000, 0.000000)"/><path fill="#F39804" d="M17.37,22.0725 L23.4,18.2475 L23.76,22.725 L17.37,22.0725 Z" transform="translate(1.000000, 0.000000)"/></g></g></g></svg>