<svg xmlns="http://www.w3.org/2000/svg" width="126" height="108" viewBox="0 0 42 36"><g fill="none" fill-rule="evenodd"><path fill="#CA2317" d="m28.337 12.6 9.383-2.88-5.557 3.532-3.825-.652Z"/><path fill="#E84F83" d="m34.053 19.62-1.89-6.368L37.72 9.72l-1.665 5.715-2.002 4.185Z"/><path fill="#CA2317" d="M40.465 7.987 39.43 9.72l-3.375 5.715L37.72 9.72l2.745-1.733Z"/><path fill="#E54011" d="m40.803 9.113-2.61 2.677 1.237-2.07 1.373-.607ZM28.9 10.822l7.672-.764L31.24 11.7l-2.34-.877Z"/><path fill="#CA2317" d="m29.192 15.165 2.97-1.912 1.89 6.367-.99 2.025-3.87-6.48Z"/><path fill="#B7DFF2" d="M24.76 22.725 23.342 5.4l9.72 16.245-8.302 1.08Z"/><path fill="#E54011" d="m20.733 27.157 4.027-4.432 8.302-1.08-12.33 5.512Z"/><path fill="#FFCE33" d="m1.157 35.865 19.576-8.708 4.027-4.432-6.39-.652L1.157 35.864Z"/><path fill="#D6B12D" d="m1.9 28.755 10.057-1.53 3.128-2.52-1.53-.675L1.9 28.755Z"/><path fill="#FFDE85" d="m5.522 20.543 9.563 4.162 3.285-2.632-12.848-1.53Z"/><path fill="#009EC6" d="m22.622 11.678-1.215.202-3.037 10.193 3.285-2.07.967-8.325Z"/><path fill="#5EAFCE" d="m24.4 18.247-2.745 1.756L23.343 5.4 24.4 18.247Z"/><path fill="#045972" d="m14.027 13.05 8.595-1.373.383-3.397-8.977 4.77Z"/><path fill="#5A8591" d="m13.105 5.085 7.47 4.5 2.43-1.305.068-.472-9.968-2.723Z"/><path fill="#009EC6" d="m14.568.18 6.795 7.155 1.71.473.27-2.408L14.568.18Z"/><path fill="#F39804" d="m18.37 22.073 6.03-3.826.36 4.478-6.39-.652Z"/></g></svg>