<svg viewBox="0 0 90 90" xmlns="http://www.w3.org/2000/svg"><g fill="none"><path fill="#FEB355" d="M0 0h90v90H0z"/><path d="M80 11v3H46.5l.001 7.045C59.333 21.821 69.5 32.473 69.5 45.5c0 13.027-10.167 23.68-22.999 24.455L46.5 81h-3V69.955c-12.832-.775-23-11.428-23-24.455 0-13.027 10.168-23.68 23-24.455V14H10v-3h70ZM23.5 45.5c0 11.37 8.826 20.679 20 21.449V24.05c-11.174.77-20 10.079-20 21.449Zm23-21.448v42.896c11.175-.77 20-10.078 20-21.448 0-11.37-8.825-20.678-20-21.448Z" fill="#000"/></g></svg>