<svg xmlns="http://www.w3.org/2000/svg" width="1000" height="1000" class="thumb" viewBox="0 0 600 600"><svg width="186.77" height="186.769" transform="matrix(3.0453 0 0 3.0548 15.612 14.726)" viewBox="-5 -5 186.77 186.769"><defs><linearGradient id="a" x1="0" x2="1" y1=".5" y2=".5"><stop offset="0%"/><stop offset="100%"/></linearGradient></defs><path fill="url('#a')" d="M51.774 176.769 0 124.995V51.774L51.774 0h73.221l51.775 51.774v73.221l-51.775 51.774z"/></svg><svg width="186.77" height="186.769" transform="translate(22.309 23.223) scale(2.9634)" viewBox="-5 -5 186.77 186.769"><defs><linearGradient id="b" x1="0" x2="1" y1=".5" y2=".5"><stop offset="0%" stop-color="#ffc038"/><stop offset="100%" stop-color="#ffc038"/></linearGradient></defs><path fill="url('#b')" d="M51.774 176.769 0 124.995V51.774L51.774 0h73.221l51.775 51.774v73.221l-51.775 51.774z"/></svg><svg width="27.265" height="16.607" transform="translate(263.532 238.624) scale(2.9528)" viewBox="36.308 71.828 27.265 16.607"><defs><linearGradient id="c" x1="0" x2="1" y1=".5" y2=".5"><stop offset="0%"/><stop offset="100%"/></linearGradient></defs><path fill="url('#c')" d="M41.308 76.828c1.197 2.07 2.931 3.953 5.371 5.497 0 0 1.453 1.163 3.373 1.108 1.918.051 3.375-1.107 3.375-1.107 2.289-1.446 3.958-3.192 5.146-5.112-2.274.496-4.875.754-7.556.754-3.303 0-6.701-.385-9.709-1.14z"/></svg><svg width="31.992" height="16.8" transform="translate(257.626 213.021) scale(2.9528)" viewBox="34.051 63.36 31.992 16.8"><defs><linearGradient id="d" x1="0" x2="1" y1=".5" y2=".5"><stop offset="0%" stop-color="#fff"/><stop offset="100%" stop-color="#fff"/></linearGradient></defs><path fill="url('#d')" d="M39.051 68.36c.055 1.736.307 3.47.818 5.141 5.94 2.063 15.1 2.206 20.244.407.563-1.692.85-3.453.93-5.221-2.995.938-6.551 1.364-10.114 1.364-4.27.001-8.535-.617-11.878-1.691z"/></svg><svg width="31.868" height="16.631" transform="translate(257.626 189.247) scale(2.9528)" viewBox="34.128 55.641 31.868 16.631"><defs><linearGradient id="e" x1="0" x2="1" y1=".5" y2=".5"><stop offset="0%"/><stop offset="100%"/></linearGradient></defs><path fill="url('#e')" d="M50.929 62.06c-3.902 0-7.81-.511-11.006-1.419a31.477 31.477 0 0 0-.795 4.812c5.78 2.114 15.619 2.598 21.868.309a31.3 31.3 0 0 0-.745-4.846c-2.824.776-6.064 1.144-9.322 1.144z"/></svg><svg width="28.836" height="15.788" transform="translate(262.055 168.777) scale(2.9528)" viewBox="35.678 48.491 28.836 15.788"><defs><linearGradient id="f" x1="0" x2="1" y1=".5" y2=".5"><stop offset="0%" stop-color="#fff"/><stop offset="100%" stop-color="#fff"/></linearGradient></defs><path fill="url('#f')" d="M59.514 58.241a36.436 36.436 0 0 0-1.862-4.75c-2.599.543-5.42.809-8.212.809a43.01 43.01 0 0 1-7.097-.579 37.169 37.169 0 0 0-1.665 4.246c5.384 1.534 13.17 1.846 18.836.274z"/></svg><svg width="108.33" height="57.541" transform="translate(143.941 57.39) scale(2.9528)" viewBox="-4.359 10.889 108.33 57.541"><defs><linearGradient id="g" x1="0" x2="1" y1=".5" y2=".5"><stop offset="0%"/><stop offset="100%"/></linearGradient></defs><path fill="url('#g')" d="M58.786 38.047a17.897 17.897 0 0 0-1.406-2.589c-.11-.123-.253-.232-.394-.342a8.655 8.655 0 0 0 .659-3.324c0-3.374-1.896-6.271-4.6-7.523l2.116-7.369 6.143-.228a.394.394 0 0 0 .378-.405.401.401 0 0 0-.406-.378l-6.396.238a.385.385 0 0 0-.346.239l-3.563 7.305a7.153 7.153 0 0 0-.92-.065c-.314 0-.621.026-.924.066l-3.565-7.308a.394.394 0 0 0-.349-.237l-6.393-.236a.4.4 0 0 0-.407.376.392.392 0 0 0 .38.405l6.143.23 2.118 7.368c-2.703 1.252-4.598 4.147-4.597 7.52 0 1.184.239 2.307.659 3.323-.148.11-.288.223-.393.344 0 0-.739 1.108-1.38 2.663-12.159 3.542-43.982 8-40.427 17.816 3.944 10.877 25.455 7.546 29.052 4.598 5.007-4.104 9.231-7.95 11.843-11 .224.512.459.979.694 1.396 4.583.822 10.289.82 14.998-.245.166-.346.332-.731.496-1.137 2.625 3.011 6.768 6.769 11.648 10.77 3.596 2.949 25.106 6.275 29.048-4.599 3.507-9.681-27.4-14.153-39.909-17.672z"/></svg><svg width="91.9" height="160" style="overflow:visible" transform="matrix(1.0086 -.0176 .0176 1.0086 260.206 308.968)"><defs><linearGradient id="h" x1="0" x2="1" y1=".5" y2=".5"><stop offset="0%"/><stop offset="100%"/></linearGradient></defs><path fill="url('#h')" d="M28.2-77.4V5.4q0 1.9-.85 2.75Q26.5 9 24.6 9H10.1q-1.9 0-2.75-.85Q6.5 7.3 6.5 5.4v-82.8q0-1.9.85-2.75Q8.2-81 10.1-81h14.5q1.9 0 2.75.85.85.85.85 2.75Zm57.2 0V5.4q0 1.9-.85 2.75Q83.7 9 81.8 9H67.3q-1.9 0-2.75-.85-.85-.85-.85-2.75v-82.8q0-1.9.85-2.75.85-.85 2.75-.85h14.5q1.9 0 2.75.85.85.85.85 2.75Z" data-dx="0" data-dy="0" data-font="Bungee" data-font-scale="contain" data-font-size="100" data-font-src="/Content/clientfonts/bungee.woff" data-letterspacing="0" data-offset=".5" data-side="left" data-text-anchor="middle" data-textpath="| |" data-x="0" data-xmlspace="preserve" data-y="0" transform="translate(0 75)"/></svg><svg width="289.3" height="160" style="overflow:visible" transform="translate(173.757 435.983) scale(.9144)"><defs><linearGradient id="i" x1="0" x2="1" y1=".5" y2=".5"><stop offset="0%"/><stop offset="100%"/></linearGradient></defs><path fill="url('#i')" d="M25.4 0H10.5Q8.6 0 7.75-.85 6.9-1.7 6.9-3.6v-64.8q0-1.9.85-2.75Q8.6-72 10.5-72h16.1q1.6 0 2.65.7 1.05.7 1.95 2.3l9 16.3q.5.9.85 1.3t.95.4h.9q.6 0 .95-.4t.85-1.3L53.6-69q.9-1.6 1.95-2.3 1.05-.7 2.65-.7h16.2q1.9 0 2.75.85.85.85.85 2.75v64.8q0 1.9-.85 2.75Q76.3 0 74.4 0H59q-1.9 0-2.75-.85-.85-.85-.85-2.75v-35.2l-5.9 10.9q-.9 1.7-2.15 2.45-1.25.75-3.15.75h-4q-1.9 0-3.15-.75T34.9-27.9L29-38.8v35.2q0 1.9-.85 2.75Q27.3 0 25.4 0Zm104 9H114q-1.9 0-2.75-.85-.85-.85-.85-2.75V-.1Q98.8-1.8 94.75-7.05 90.7-12.3 90.7-19.8V-53q0-4.6 1.35-8.35t4.8-6.45q3.45-2.7 9.55-4.2 6.1-1.5 15.4-1.5t15.35 1.5q6.05 1.5 9.5 4.2t4.8 6.45q1.35 3.75 1.35 8.35v33.2q0 3.8-.9 7.05T148.8-7q-2.2 2.5-6.05 4.3Q138.9-.9 133-.1v5.5q0 1.9-.85 2.75-.85.85-2.75.85Zm-16-58.3V-22q0 2 1.5 3.35t6.9 1.35q5.4 0 6.9-1.35t1.5-3.35v-27.3q0-1.9-1.5-3.25t-6.9-1.35q-5.4 0-6.9 1.35t-1.5 3.25ZM199 0h-16.2q-1.9 0-2.75-.85-.85-.85-.85-2.75v-49.1h-14.7q-1.9 0-2.75-.85-.85-.85-.85-2.75v-12.1q0-1.9.85-2.75.85-.85 2.75-.85h52.8q1.9 0 2.75.85.85.85.85 2.75v12.1q0 1.9-.85 2.75-.85.85-2.75.85h-14.7v49.1q0 1.9-.85 2.75Q200.9 0 199 0Zm65.6 0h-16.2q-1.9 0-2.75-.85-.85-.85-.85-2.75v-49.1h-14.7q-1.9 0-2.75-.85-.85-.85-.85-2.75v-12.1q0-1.9.85-2.75.85-.85 2.75-.85h52.8q1.9 0 2.75.85.85.85.85 2.75v12.1q0 1.9-.85 2.75-.85.85-2.75.85h-14.7v49.1q0 1.9-.85 2.75-.85.85-2.75.85Z" data-dx="0" data-dy="0" data-font="Bungee" data-font-scale="contain" data-font-size="100" data-font-src="/Content/clientfonts/bungee.woff" data-letterspacing="0" data-offset=".5" data-side="left" data-text-anchor="middle" data-textpath="MQTT" data-x="0" data-xmlspace="preserve" data-y="0" transform="translate(0 75)"/></svg></svg>