<?xml version="1.0" encoding="utf-8"?>
<!-- Generator: Adobe Illustrator 27.7.0, SVG Export Plug-In . SVG Version: 6.00 Build 0)  -->
<svg version="1.1"
	 id="svg5" xmlns:inkscape="http://www.inkscape.org/namespaces/inkscape" xmlns:svg="http://www.w3.org/2000/svg" xmlns:sodipodi="http://sodipodi.sourceforge.net/DTD/sodipodi-0.dtd" inkscape:version="1.1.2 (0a00cf5339, 2022-02-04)"
	 xmlns="http://www.w3.org/2000/svg" xmlns:xlink="http://www.w3.org/1999/xlink" x="0px" y="0px" viewBox="0 0 512 512"
	 style="enable-background:new 0 0 512 512;" xml:space="preserve">
<style type="text/css">
	.st0{fill:#FDBE36;}
	.st1{fill:#FFFFFF;stroke:#FFFFFF;stroke-width:0.7499;stroke-miterlimit:11.337;}
	.st2{fill:#FFFFFF;}
</style>
<g id="layer1" transform="translate(2395.5935,912.90546)" inkscape:groupmode="layer" inkscape:label="Layer 1">
	<g id="g9724" transform="matrix(0.99985825,0,0,0.99985825,-162.74705,-401.70841)">
		<path id="path1240" d="M-2157.6-74.2l-74.8-75l0-106v-106l74.8-75l74.8-75h105.7h105.7l74.8,75l74.8,75v106v106l-74.7,75l-74.7,75
			l-105.7,0l-105.7,0L-2157.6-74.2z"/>
		<path id="path1244" class="st0" d="M-2153.7-79.6l-72.7-72.7v-102.9v-102.9l72.7-72.7l72.7-72.7h102.9h102.9l72.7,72.7l72.7,72.7
			v102.9v102.9l-72.7,72.7l-72.7,72.7H-1978H-2081L-2153.7-79.6z"/>
		<path id="path1867" d="M-2070.5-338.3c-1.7-0.1-5.6-0.4-7.4-0.6c-16.7-2.1-27.8-8.8-32-19.4c-0.8-2.1-1.1-3.2-1-5.1
			c0-1.3,0.1-1.7,0.3-2.6c2.2-8.2,13.6-15.6,35-22.8c12.1-4,24.6-7.3,53.6-14c12-2.8,18.5-4.3,23.3-5.7l1.7-0.5l0.4-1
			c1.2-2.8,3.1-6.2,3.9-6.9l0.6-0.5l-0.5-1.5c-1.9-5.5-1.7-11.4,0.4-16.8c2-5.1,5.9-9.4,10.5-11.7c0.4-0.2,0.7-0.4,0.7-0.4
			c0-0.1-5.9-20.6-5.9-20.6c0,0-3.5-0.2-7.8-0.3c-10-0.4-9.8-0.4-10.1-0.7c-0.6-0.5-0.3-1.5,0.4-1.7c0.5-0.1,18.4,0.6,18.7,0.7
			c0.2,0.1,0.5,0.8,1,1.7c0.4,0.9,2.7,5.6,5.1,10.4l4.3,8.8l2.7,0l2.7,0l5-10.3c3.4-7,5.1-10.4,5.3-10.5c0.2-0.1,1.8-0.2,8.9-0.5
			c10.8-0.4,9.9-0.4,10.3,0c0.5,0.5,0.4,1.2-0.1,1.6c-0.2,0.1-2.5,0.2-8.9,0.5c-4.8,0.2-8.7,0.4-8.8,0.4c-0.1,0.1-5.9,20.4-5.9,20.5
			c0,0,0.3,0.2,0.7,0.4c3.9,2,7.5,5.7,9.6,9.9c1.7,3.5,2.5,6.8,2.5,10.8c0,3.1-0.5,5.8-1.4,8.3l-0.4,0.9l0.6,0.5
			c0.7,0.6,2,2.7,3.4,5.6c0.6,1.1,1.1,2.1,1.2,2.1c0.2,0.1,4,1.1,7.6,2c3.8,1,8.6,2.1,17.9,4.2c26.6,6.1,39.4,9.5,51.3,13.4
			c21.5,7.2,32.9,14.6,35.1,22.8c0.2,0.9,0.3,1.4,0.3,2.6c0,2.3-0.4,3.8-1.8,6.7c-2.6,5.3-6.9,9.6-13,12.7c-2.2,1.1-3.3,1.5-5.8,2.4
			c-4.7,1.6-9.4,2.5-15.6,3.1c-2.6,0.2-10.6,0.3-13.6,0.2c-11.8-0.7-23-3.1-29.4-6.2c-1.7-0.9-2.1-1.1-4.4-3
			c-12.3-10.1-23.1-20.1-29.5-27.1c-0.8-0.9-1.5-1.6-1.5-1.6c0,0-0.3,0.6-0.7,1.4c-0.3,0.8-0.7,1.5-0.8,1.6
			c-0.3,0.3-5.9,1.3-9.8,1.7c-9.8,1.1-20.1,0.9-30-0.6c-1.6-0.2-2-0.3-2.2-0.5c-0.1-0.1-0.6-1-1.1-2c-0.8-1.7-0.9-1.7-1-1.5
			c-0.1,0.1-0.8,0.9-1.6,1.8c-1.8,2-9.2,9.4-12.1,12.1c-7.5,6.9-18.5,16.3-20.6,17.5c-4.9,2.9-14.8,5.6-25.2,6.6
			C-2060.6-338.3-2065.9-338.1-2070.5-338.3L-2070.5-338.3z"/>
		<path id="path1865" d="M-1975.5-327.8c-10-0.5-18.6-2-25.9-4.4l-1.8-0.6v-0.4c0-1,0.5-5,1-7.7c0.3-1.8,1-5.1,1.1-5.2
			c0,0,0.7,0.1,1.5,0.3c6.2,1.7,14.5,2.9,22.7,3.4c2.8,0.2,10,0.2,12.7,0c6.6-0.4,12.8-1.3,18-2.6c0.8-0.2,1.6-0.4,1.7-0.4
			c0.3,0,1.7,7.8,2,11.5c0.1,0.8,0.1,1.5,0.2,1.7c0,0.2-0.1,0.3-0.8,0.5c-5.2,1.8-11.9,3.1-19.6,3.7
			C-1965.2-327.8-1972.9-327.7-1975.5-327.8L-1975.5-327.8z"/>
		<path id="path1863" d="M-1975.3-281.1c-1.7-0.2-3.5-0.8-5.2-1.7c-1.2-0.6-4.9-3.1-6.7-4.6c-1.8-1.4-5.3-4.8-6.6-6.5
			c-1.2-1.5-2.2-3-3-4.2c-0.3-0.5-0.7-1.1-0.8-1.2c-0.2-0.2-0.1-0.2,1.2,0.1c11.6,2.8,26.1,3.5,38.7,2.1c2-0.2,4.9-0.7,6.6-1
			c0.7-0.2,1.4-0.3,1.4-0.3c0.1,0-1,1.6-1.8,2.7c-2.3,3.2-5.7,6.6-9,9.1c-1.9,1.4-4.9,3.4-6,3.9c-1.3,0.6-2.5,1-3.9,1.3
			C-1971.3-281-1974.2-280.9-1975.3-281.1z"/>
		<path id="path1861" d="M-1950.2-167.6c-1.3-0.2-2.1-1-2.3-2.4c-0.1-0.8-1.5-79.7-1.4-80.7c0.1-1.3,0.7-2.1,1.7-2.5
			c0.6-0.2,4-0.4,11.5-0.4l5.4,0l0.5,0.3c0.3,0.1,0.7,0.4,0.8,0.6c0.7,0.9,0.6-1.6,1.3,39.2c0.8,44,0.8,43.3,0.5,44
			c-0.4,1-1.2,1.5-2.5,1.7c-0.5,0.1-3.3,0.1-6.3,0.2c-3,0-6.2,0.1-7,0.1C-1948.8-167.5-1949.8-167.6-1950.2-167.6L-1950.2-167.6z"/>
		<path id="path1859" d="M-2004.9-166.7c-1.5-0.4-2.1-1.1-2.2-2.9c-0.1-0.6-0.4-18.9-0.8-40.7c-0.7-43-0.7-40.2-0.1-41.2
			c0.4-0.6,1.1-0.9,2.3-1c1.6-0.2,14.7-0.3,15.4-0.2c1.7,0.3,2.3,1.2,2.3,3.7c0,0.8,0.4,19.1,0.7,40.5c0.6,35.4,0.7,39,0.5,39.6
			c-0.2,0.9-0.6,1.4-1.4,1.7c-0.6,0.3-0.7,0.3-3.7,0.4C-1996.3-166.7-2004.7-166.6-2004.9-166.7L-2004.9-166.7z"/>
		<path id="path1857" d="M-1882.9-61.5c-0.6-0.2-1-0.5-1.3-1.1l-0.2-0.5l0-21.9l0-21.9l-7,0c-6.8,0-7,0-7.5-0.3
			c-0.6-0.3-1-0.6-1.2-1.3c-0.2-0.5-0.2-1.1-0.2-6.1c0-3.6,0-5.9,0.1-6.5c0.2-1.1,0.5-1.7,1.2-2.1l0.5-0.3h24.2h24.2l0.5,0.3
			c1.2,0.7,1.2,1,1.2,8.3c0,5.7,0,5.9-0.3,6.4c-0.3,0.6-0.6,0.9-1.2,1.2c-0.4,0.2-1,0.2-7.4,0.2l-7,0v21.7c0,23.9,0,22.5-0.7,23.2
			c-0.8,0.7-0.5,0.7-9.3,0.7C-1880.8-61.3-1882.5-61.4-1882.9-61.5L-1882.9-61.5z"/>
		<path id="path1855" d="M-1939.7-61.5c-0.7-0.2-1-0.5-1.3-1.1l-0.3-0.6l0-21.9l0-21.9l-6.7,0c-4.1,0-6.9,0-7.2-0.1
			c-0.7-0.2-1.3-0.6-1.6-1.2l-0.3-0.5l0-6.4c0-7.1,0-7.1,0.7-7.8c0.8-0.7-0.9-0.7,25.2-0.7c15.6,0,23.9,0,24.1,0.1
			c0.7,0.2,1.1,0.6,1.5,1.2l0.3,0.6v6.4v6.4l-0.3,0.6c-0.3,0.6-0.4,0.7-1,1l-0.6,0.3l-7,0l-7,0l0,22l0,22l-0.3,0.5
			c-0.2,0.3-0.5,0.6-0.8,0.8l-0.5,0.3l-8.2,0C-1937.9-61.3-1939.4-61.4-1939.7-61.5L-1939.7-61.5z"/>
		<path id="path1853" d="M-2089.2-61.5c-0.7-0.2-1-0.5-1.3-1.1l-0.3-0.6l0-28.9c0-20,0-29.1,0.1-29.5c0.2-0.8,0.6-1.4,1.2-1.7
			l0.5-0.3l8,0c8.9,0,8.7,0,9.7,0.7c0.3,0.2,0.7,0.6,0.9,0.9c0.2,0.3,2.3,3.9,4.6,8.1c2.3,4.1,4.3,7.7,4.6,8l0.4,0.5h0.9h0.9
			l0.4-0.5c0.2-0.3,2.2-3.8,4.4-7.9c2.2-4.1,4.2-7.7,4.4-8c0.2-0.3,0.7-0.8,1-1.1c1-0.8,0.8-0.8,9.8-0.8l8.1,0l0.5,0.3
			c0.6,0.3,0.9,0.7,1.1,1.4c0.1,0.5,0.2,4.1,0.2,29.4s0,28.9-0.2,29.4c-0.2,0.7-0.5,1.1-1.1,1.4l-0.5,0.3l-7.8,0
			c-8.6,0-8.5,0-9.2-0.7c-0.7-0.8-0.7,0.1-0.7-17.1c0-9,0-15.6-0.1-15.6c-0.1,0-1.3,2.3-2.8,5c-2.4,4.4-2.8,5.1-3.4,5.7
			c-0.5,0.5-0.9,0.8-1.4,1c-0.7,0.3-0.8,0.3-3.8,0.3c-3.5,0-3.9-0.1-4.9-0.9c-0.8-0.6-1.1-1.1-4-6.5l-2.6-4.7l-0.1,15.8l-0.1,15.8
			l-0.3,0.7c-0.2,0.5-0.4,0.7-0.9,1l-0.5,0.3l-7.6,0C-2087.4-61.3-2088.8-61.4-2089.2-61.5L-2089.2-61.5z"/>
		<path id="path1849" d="M-1999.1-53.6c-0.7-0.2-1.2-0.5-1.5-1.1l-0.3-0.5l0-3c0-3,0-3-0.3-3.1c-0.1,0-1-0.2-2-0.4
			c-4.1-0.8-7-1.9-9.3-3.6c-2.5-1.8-4.3-5-5.2-9l-0.3-1.2v-17.1c0-16.1,0-17.2,0.2-18.3c0.9-5.3,3.4-8.5,8.1-10.8
			c4.7-2.2,11.7-3.3,20.2-3.1c5.6,0.1,9.3,0.6,12.9,1.6c7.9,2.3,11.6,6.4,12.2,13.9c0.2,1.8,0.2,31.6,0,33.3c-0.6,6-3,9.6-8.1,12.2
			c-2,1-4.3,1.7-7.1,2.2c-0.8,0.1-1.5,0.3-1.6,0.3c-0.2,0.1-0.2,0.1-0.3,3c0,2.9,0,3-0.3,3.5c-0.3,0.6-0.9,1-1.6,1.2
			C-1984.1-53.5-1998.5-53.5-1999.1-53.6L-1999.1-53.6z"/>
		<path id="path1847" class="st0" d="M-1802.4-79.6l72.7-72.7v-102.9v-102.9l-72.7-72.7l-72.7-72.7H-1978H-2081l-72.7,72.7
			l-72.7,72.7v102.9v102.9l72.8,72.8l72.8,72.8h102.9h102.9L-1802.4-79.6z"/>
		<path id="path1492" class="st1" d="M-1964-349.6c6.3-0.4,10.4-1,15.4-2.2c1.3-0.3,2.1-0.6,2.1-0.7c0-0.2-1.1-3.5-1.8-5.3
			c-1-2.7-3.1-7.5-3.3-7.8c-0.1-0.1-0.4-0.1-0.8,0c-5.5,1.1-10.5,1.7-16.1,2c-2.8,0.1-9.8,0.1-12.5,0c-4.2-0.2-9.3-0.8-12.5-1.3
			c-0.5-0.1-1-0.1-1.1-0.1c-0.5,0.5-4.8,11.6-4.6,11.8c0.2,0.2,4.9,1.3,7.5,1.8c5,0.9,11.3,1.6,16,1.8
			C-1972.5-349.4-1966.4-349.5-1964-349.6L-1964-349.6z"/>
		<path id="path1486" class="st2" d="M-1962.1-304.9c6.6-0.5,11.9-1.4,16.4-2.8l1.4-0.4l0.4-1.2c0.7-2.4,1.3-5.2,1.7-7.5
			c0.2-1.5,0.5-4.6,0.5-5.4v-0.5l-1.3,0.4c-16.7,4.8-40.7,4.5-58.7-0.9l-1.5-0.5l0.1,1.4c0.2,3.5,0.7,7.1,1.6,10.5
			c0.7,2.8,0.4,2.5,2.5,3.1c7.5,2.3,16.4,3.7,25.9,4C-1971.1-304.6-1964.4-304.7-1962.1-304.9L-1962.1-304.9z"/>
		<path id="path1490" d="M-2061.3-338.3c6.3-0.4,11.9-1.1,17-2.2c7.6-1.7,12.5-3.6,15.6-6c4.4-3.4,14.2-11.9,20.4-17.7
			c2.7-2.5,8.6-8.4,10.3-10.4c0.8-0.9,1.6-1.8,1.8-2l0.4-0.4l1,1.9l1,1.9l0.7,0.1c1,0.2,4.5,0.7,6.4,0.9c8.6,0.9,18,0.9,26.2-0.2
			c3.6-0.5,8.7-1.4,8.8-1.6c1-2.3,1.3-2.9,1.3-2.9c0,0,0.5,0.5,1.1,1.2c6.6,7.3,15.9,15.9,28.3,26.2c4,3.4,4.7,3.8,6.9,4.8
			c8.5,3.8,23.2,6.2,36,5.9c17.7-0.4,30.7-5.2,37.6-13.8c1.6-2,3-4.6,3.9-6.9c0.7-1.9,0.8-2.4,0.8-4.5c0-1.7,0-2-0.3-2.9
			c-0.6-2-1.6-3.7-3.2-5.6c-6.2-7.3-19.7-13.7-42.8-20.4c-9.1-2.6-22-5.8-39.8-9.9c-14.7-3.4-26-6.1-26.4-6.5c0,0-0.5-1-1-2
			c-1.4-2.8-2.7-4.9-3.4-5.6l-0.6-0.5l0.4-1.2c1.6-4.5,1.8-9.5,0.6-14.2c-1.6-6.3-5.7-11.7-11.2-14.6l-0.9-0.5l3-10.3
			c1.6-5.7,3-10.3,3-10.3c0,0,3.9-0.2,8.7-0.3c5.8-0.2,8.7-0.4,8.9-0.4c0.2-0.1,0.4-0.3,0.5-0.6l0.2-0.4l-0.2-0.4
			c-0.2-0.3-0.3-0.5-0.6-0.6c-0.3-0.1-2.5-0.1-9.2,0.2c-4.9,0.2-9,0.4-9.2,0.4c-0.2,0-0.5,0.2-0.6,0.3c-0.1,0.1-2.5,4.9-5.2,10.5
			l-5,10.2l-0.8-0.1c-0.5,0-1.3-0.1-1.8-0.1c-0.5,0-1.3,0-1.8,0.1l-0.8,0.1l-5-10.3c-2.8-5.6-5.1-10.4-5.3-10.5
			c-0.3-0.3,0.5-0.3-10.2-0.7c-9.1-0.3-9-0.3-9.4,0.2c-0.3,0.4-0.2,0.8,0.1,1.3c0.4,0.4-0.7,0.4,9.9,0.8l8,0.3l2.9,10
			c1.6,5.5,2.9,10.1,2.9,10.3c0.1,0.4,0.1,0.4-0.7,0.8c-4.9,2.5-8.9,7.3-10.8,12.9c-0.9,2.7-1.2,4.7-1.2,7.8c0,2.9,0.4,5.3,1.3,8
			l0.4,1.2l-0.6,0.6c-0.9,0.8-2.6,3.8-3.8,6.7l-0.5,1.2l-1.4,0.4c-5.9,1.6-11.8,3.1-24,5.9c-20.7,4.7-31.5,7.4-40.9,10.1
			c-23.6,6.7-37.6,13.3-44,20.7c-1.6,1.9-2.6,3.6-3.2,5.6c-0.4,1.4-0.5,3.6-0.2,5.1c0.7,3.7,3.3,8.2,6.6,11.5
			c6.8,6.8,18.1,10.7,32.8,11.5C-2069.8-338.2-2063-338.2-2061.3-338.3L-2061.3-338.3z"/>
		<path id="path1488" d="M-1963.3-327.9c7.6-0.5,13.6-1.5,19.4-3.4c1.4-0.5,1.8-0.6,1.8-0.8c0-0.4-0.4-3.7-0.6-5.3
			c-0.3-2.4-1.4-7.9-1.5-8.1c0,0-0.6,0.1-1.3,0.3c-11.7,3.1-28.4,3.7-42.9,1.5c-3.9-0.6-8.6-1.5-11.4-2.3c-0.7-0.2-1.2-0.3-1.3-0.3
			c-0.2,0.3-1.3,5.9-1.6,8.4c-0.2,1.4-0.6,4.6-0.6,4.9c0,0.3,6.8,2.2,10.6,3c4.7,1,12.1,1.9,16.8,2
			C-1972.9-327.7-1965.6-327.7-1963.3-327.9L-1963.3-327.9z"/>
		<path id="path1484" d="M-1970.3-281.2c3-0.6,5.6-1.9,10-5.2c3.1-2.4,6.4-5.6,8.7-8.5c0.7-0.9,2.3-3.3,2.3-3.4c0,0-0.4,0-0.8,0.1
			c-1.8,0.4-5.8,1-8.9,1.3c-7.2,0.7-15.8,0.7-23.3,0c-4.8-0.5-10-1.3-14-2.3c-0.7-0.2-1.3-0.3-1.3-0.2c0,0,0.2,0.5,0.6,1.1
			c2.7,4.4,6.2,8.2,10.4,11.4c1.8,1.4,5.1,3.6,6.3,4.2c1.3,0.6,3.1,1.3,4.3,1.5C-1974.7-280.9-1971.7-280.9-1970.3-281.2
			L-1970.3-281.2z"/>
		<path id="path1482" d="M-1936.6-167.7c2.3-0.1,2.6-0.1,3.1-0.3c1-0.4,1.5-1.2,1.6-2.5c0.1-1.2-1.3-79.9-1.4-80.7
			c-0.2-1.6-1-2.3-2.5-2.5c-0.4,0-4,0-8.1,0.1c-8.1,0.1-8.1,0.2-9,0.8c-0.5,0.4-0.8,1.1-0.9,2c-0.1,1.1,1.3,80.9,1.4,81.3
			c0.2,0.7,0.6,1.3,1,1.5c0.9,0.5,1,0.6,6.9,0.5C-1941.5-167.6-1937.9-167.7-1936.6-167.7z"/>
		<path id="path1480" d="M-1994.6-166.7c3-0.1,5.7-0.2,5.9-0.2c0.8-0.2,1.5-0.7,1.8-1.3c0.3-0.5,0.3-0.7,0.3-2.3
			c0-1-0.3-19.3-0.7-40.7c-0.8-43.5-0.6-39.8-1.5-40.7c-0.3-0.3-0.7-0.5-1.2-0.7c-0.6-0.2-1.2-0.2-8.4-0.1c-8.2,0.1-8.5,0.2-9.3,0.7
			c-0.2,0.1-0.5,0.5-0.7,0.8c-0.3,0.5-0.3,0.7-0.4,2.3c0,1,0.3,19.3,0.6,40.7c0.6,32.3,0.7,39.1,0.9,39.5c0.4,1.3,1.1,1.8,2.5,2
			C-2003.9-166.5-2003.4-166.5-1994.6-166.7L-1994.6-166.7z"/>
		<path id="path1478" d="M-1865.7-61.6c0.7-0.4,1.2-1,1.3-1.9c0.1-0.4,0.1-8.6,0.1-22.1V-107l6.8,0c4.2,0,7,0,7.2-0.1
			c0.6-0.2,1.2-0.6,1.5-1.1l0.3-0.5l0-6.3c0-6.9,0-7.1-0.6-7.8c-0.2-0.2-0.5-0.4-0.8-0.6l-0.5-0.2h-24c-19.7,0-24,0-24.4,0.2
			c-0.6,0.2-1.1,0.6-1.4,1.2c-0.3,0.5-0.3,0.5-0.3,7v6.5l0.3,0.6c0.2,0.4,0.5,0.7,0.8,0.9l0.6,0.3l7,0l7,0l0,21.8l0,21.8l0.3,0.6
			c0.4,0.8,0.9,1.2,1.9,1.4c0.1,0,3.8,0,8.2,0l8,0L-1865.7-61.6L-1865.7-61.6z"/>
		<path id="path1476" d="M-1922.6-61.5c0.3-0.1,0.7-0.4,0.8-0.6c0.7-0.8,0.7,0.5,0.7-23.2V-107l6.8,0c4.2,0,7,0,7.2-0.1
			c0.6-0.2,1.2-0.6,1.5-1.1l0.3-0.5v-6.5v-6.5l-0.3-0.6c-0.2-0.5-0.4-0.6-1-0.9l-0.7-0.3h-24c-26.1,0-24.4,0-25.2,0.6
			c-0.8,0.7-0.8,0.7-0.8,7.8c0,7,0,6.8,0.7,7.6c0.7,0.7,0.8,0.7,8.3,0.7h6.8l0,21.2c0,13,0,21.5,0.1,22c0.2,1.4,0.8,2.1,2,2.4
			c0.2,0,3.9,0.1,8.3,0.1C-1923.3-61.3-1923.1-61.3-1922.6-61.5L-1922.6-61.5z"/>
		<path id="path1474" d="M-2073.2-61.5c0.6-0.3,0.9-0.6,1.2-1.2l0.2-0.5l0.1-15.8l0.1-15.8l2.7,5c3.8,7.1,3.8,7.1,8,7.2
			c3.4,0.1,4.6-0.1,5.7-1c0.7-0.6,1-1,3.8-6.3l2.5-4.7l0.1,15.8c0.1,14.9,0.1,15.8,0.3,16.2c0.3,0.6,0.7,1,1.3,1.3
			c0.5,0.2,1.1,0.2,8.3,0.2h7.8l0.6-0.3c0.4-0.2,0.7-0.5,0.9-0.8l0.3-0.6v-29.5v-29.5l-0.3-0.5c-0.2-0.4-0.5-0.6-1-0.9l-0.7-0.3
			h-8.1h-8.1l-0.6,0.3c-0.7,0.3-1.7,1.2-2.2,2.1c-0.2,0.3-2.1,3.8-4.3,7.8c-2.2,4-4.1,7.4-4.3,7.6c-0.3,0.4-0.4,0.4-1.2,0.4
			c-0.9,0-1.1-0.1-1.5-0.7c-0.1-0.2-2-3.6-4.2-7.5c-2.2-3.9-4.2-7.5-4.5-7.9c-0.6-0.9-1.1-1.3-1.9-1.7l-0.5-0.3h-8.1h-8.1l-0.7,0.3
			c-0.5,0.2-0.7,0.4-1,0.9l-0.3,0.5v29.5c0,28.4,0,29.5,0.2,29.9c0.4,0.7,0.9,1,1.7,1.3c0.2,0,3.7,0.1,7.7,0.1
			C-2074.2-61.3-2073.6-61.3-2073.2-61.5L-2073.2-61.5z"/>
		<path id="path1470" d="M-1990.2-124.9c-0.8,0-1.5,0-2.4,0c-5.6,0.1-8.6,0.4-12.1,1.3c-6.9,1.7-10.9,4.9-12.5,9.7
			c-0.5,1.4-0.8,3.1-0.9,4.7c-0.2,1.9-0.2,31.2,0,32.7c0.5,5.2,2.7,9.3,6.1,11.5c2.2,1.5,5.7,2.7,9.7,3.4l1.1,0.2l0,2.9l0,2.9
			l0.3,0.7c0.4,0.8,1,1.2,2,1.3c0.4,0.1,3.9,0.1,7.9,0.1c6.6,0,7.2,0,7.7-0.2h0c0.6-0.2,1.3-0.9,1.5-1.5c0.1-0.3,0.2-1.6,0.2-3.3
			c0-1.6,0.1-2.9,0.1-2.9s0.7-0.1,1.4-0.2c8.2-1.4,13.1-5,14.8-10.7c0.7-2.5,0.7-1.3,0.7-19.8c0-11.5,0-17.1-0.1-17.8
			c-0.4-3-1.1-5.1-2.2-6.9c-2.1-3.3-5.7-5.5-11.1-6.8C-1981.5-124.5-1984.9-124.9-1990.2-124.9L-1990.2-124.9z M-1990.8-107.9
			c1.3,0,2.6,0.1,3.1,0.2c2.2,0.4,3.4,1.5,3.7,3.3c0.1,0.8,0.1,23.7,0,24.7c-0.1,0.9-0.5,1.6-1.1,2.2c-0.5,0.6-1.1,0.8-2.2,1.1h0
			c-0.6,0.1-1.5,0.2-3.6,0.2c-3,0-4.2-0.1-5.4-0.5c-0.9-0.3-1.8-1.2-2.1-2.1c-0.2-0.6-0.2-0.7-0.2-13.2c0-12.4,0-12.6,0.2-13.2
			c0.5-1.3,1.5-2,3.2-2.4C-1994.4-107.9-1992.5-107.9-1990.8-107.9L-1990.8-107.9z"/>
	</g>
</g>
</svg>
