<svg xmlns="http://www.w3.org/2000/svg" xmlns:xlink="http://www.w3.org/1999/xlink" version="1.1" id="Layer_1" x="0px" y="0px" style="enable-background:new 0 0 512 512;" xml:space="preserve" viewBox="87.58 2.6 336.7 506.87">
<style type="text/css">
	.st0{fill:#4D77BD;}
</style>
<g>
	<g>
		<path class="st0" d="M214.6,201.3c-1.4-3.9-2.2-6.4-3.3-8.8c-23.7-55.4-47.4-110.7-71-166.1c-6.5-15.3-0.9-23.8,15.8-23.8    c57.3,0,114.6,0,171.9,0c12.4,0,16.5,3.3,19.8,15.3c25.1,91.5,50.3,183,75.4,274.5c3.6,13-1.9,20.1-15.2,20.2c-1.7,0-3.5,0-5.2,0    c-27.7,0-55.3,0-83,0H310c1.2,4.5,1.8,7.8,2.8,10.9c17.9,55.9,35.9,111.7,53.9,167.6c1.8,5.6,2.4,11.3-2.5,14.9    c-3.4,2.4-8.6,3.8-12.8,3.4c-3.3-0.4-6.7-3.9-9.3-6.7c-36.8-40.7-73.4-81.5-110-122.2c-45.9-51.3-92-102.6-138.1-153.8    c-1.6-1.8-3.4-3.7-4.6-5.8c-4.3-7.7-0.7-16.5,7.9-18.6c3.5-0.9,7.3-1,11-1c32.1-0.1,64.2,0,96.3,0    C207.6,201.3,210.5,201.3,214.6,201.3L214.6,201.3z M247.6,23.5c-23.5,0-46.9,0-70.4,0c-2.2,0-4.9-0.5-6.5,0.5    c-2.2,1.3-5.2,4-5.1,5.9c0.2,2.4,2.8,5.5,5.1,6.6c2.7,1.3,6.3,0.8,9.5,0.8c43,0,85.9,0.1,128.9-0.1c6.4,0,9.7,1.8,11.5,8.3    c17.7,65.4,35.7,130.7,53.7,196.1c3.9,14.3,7.9,28.5,11.8,42.8c1.2,4.5,3.4,8.1,8.7,6.8c5.1-1.3,6-5.3,4.5-10    c-0.3-0.9-0.4-1.9-0.6-2.9c-22.5-81.8-45.1-163.5-67.5-245.3c-1.9-6.9-5.2-9.7-12.4-9.7C295,23.7,271.3,23.5,247.6,23.5    L247.6,23.5z M176.8,222.1c-14.1,0-28.1,0.1-42.2,0c-4.7,0-8.9,1-8.9,6.4c0,5.3,4.1,6.7,8.8,6.7c27.9,0,55.8,0,83.7,0    c4.6,0,8.7-1.1,8.8-6.6c0.1-5.6-4-6.6-8.7-6.6C204.5,222.2,190.7,222.1,176.8,222.1L176.8,222.1z M328.6,439.6    c-1.1-3.8-1.6-6.2-2.4-8.5c-7-22-14.1-44.1-21.2-66.1c-0.7-2.1-1.1-4.8-2.6-6c-2-1.6-5.7-3.5-7.4-2.7c-2.2,1.1-3.5,4.6-4.4,7.3    c-0.5,1.3,0.7,3.3,1.2,4.9c7.1,22.3,14.3,44.5,21.5,66.8c0.7,2.1,0.9,4.7,2.4,6.1c1.9,1.8,5.1,4,7.1,3.5    C325.1,444.5,326.9,441.3,328.6,439.6L328.6,439.6z"/>
	</g>
</g>
</svg>