<svg xmlns="http://www.w3.org/2000/svg" width="1375.237" height="499.359" viewBox="0 0 363.865 132.122"><path d="M21.761 201.389c-7.038 0-13.494 2.804-18.52 7.514-.371.344-.98.08-.98-.423v-4.26a1.09 1.09 0 0 0-1.085-1.085h-12.091A1.09 1.09 0 0 0-12 204.22v93.768a1.09 1.09 0 0 0 1.085 1.085H1.176a1.09 1.09 0 0 0 1.085-1.085v-38.364c0-.503.609-.768.98-.424 5.026 4.683 11.482 7.514 18.52 7.514 16.034 0 29.051-14.605 29.051-32.65 0-18.044-13.017-32.675-29.051-32.675zm-2.937 52.546c-9.816 0-17.78-9.102-17.78-20.346 0-11.245 7.964-20.347 17.78-20.347s17.78 9.102 17.78 20.347c0 11.244-7.964 20.346-17.78 20.346zm72.999-50.826h12.091a1.09 1.09 0 0 1 1.085 1.084v59.611a1.09 1.09 0 0 1-1.085 1.085H91.823a1.09 1.09 0 0 1-1.085-1.085v-59.61a1.09 1.09 0 0 1 1.085-1.085zm143.483 6.985c-5.291-5.795-12.488-8.705-21.563-8.705-9.023 0-16.246 2.99-21.696 8.943-5.424 6.059-8.123 13.97-8.123 23.733 0 9.869 2.805 17.78 8.387 23.733 5.583 5.927 12.991 8.89 22.199 8.89 3.228 0 6.191-.344 8.943-1.005 2.752-.688 5.318-1.747 7.673-3.202 2.381-1.455 4.577-3.334 6.667-5.583a35.02 35.02 0 0 0 1.773-2.09 1.093 1.093 0 0 0-.185-1.534l-9.314-7.012c-.476-.37-1.164-.264-1.534.212-1.693 2.222-3.255 3.863-4.71 4.921-2.328 1.693-5.265 2.54-8.81 2.54-4.578 0-8.308-1.482-11.245-4.445-2.91-3.016-4.577-7.038-4.948-12.118h43.207c.608 0 1.084-.476 1.084-1.085l.053-2.275c.027-10.187-2.593-18.177-7.858-23.918zm-5.82 15.954h-30.719c1.958-7.435 8.096-12.859 15.373-12.859 7.25.027 13.361 5.45 15.345 12.859zm-269.902-22.94h12.091a1.09 1.09 0 0 1 1.085 1.085v59.611a1.09 1.09 0 0 1-1.085 1.085h-12.091a1.09 1.09 0 0 1-1.085-1.085v-59.61c0-.61.476-1.085 1.085-1.085zm102.764-34.157H74.44a1.09 1.09 0 0 1 1.084 1.085v93.768a1.09 1.09 0 0 1-1.084 1.085H62.348a1.09 1.09 0 0 1-1.085-1.085v-93.768c-.026-.609.477-1.085 1.085-1.085zm111.125 58.076v36.777c0 .609-.503 1.111-1.111 1.111H160.27a1.118 1.118 0 0 1-1.11-1.111v-36.116c0-8.995-5.504-13.255-12.278-13.255-6.773 0-12.276 5.265-12.276 13.255v36.116c0 .609-.503 1.111-1.111 1.111h-12.092a1.118 1.118 0 0 1-1.111-1.111V204.22c0-.609.503-1.111 1.111-1.111h12.092c.608 0 1.11.502 1.11 1.11v3.229c0 .502.61.767.98.423 4.736-4.34 10.054-6.482 15.901-6.482 7.197 0 12.806 2.275 16.828 6.8 3.413 3.836 5.16 10.133 5.16 18.838zm-207.83-58.076a8.542 8.542 0 0 1 8.546 8.546c0 4.71-3.837 8.546-8.546 8.546-4.71 0-8.546-3.837-8.546-8.546 0-4.71 3.81-8.546 8.546-8.546zm132.239 0a8.542 8.542 0 0 1 8.546 8.546c0 4.71-3.837 8.546-8.546 8.546a8.542 8.542 0 0 1-8.546-8.546c0-4.71 3.81-8.546 8.546-8.546zm-210.424 34.158h59.294c.873 0 1.402.979.926 1.693l-27.782 42.122c-.608.9-2.01.476-2.01-.609v-26.75c0-.423-.265-.82-.662-1.005l-30.214-13.36c-1.085-.476-.741-2.09.45-2.09zm54.24 61.806h-59.293c-.873 0-1.402-.979-.926-1.693L-90.74 221.1c.609-.9 2.011-.476 2.011.609v26.75c0 .422.265.82.661 1.005l30.216 13.361c1.085.476.74 2.09-.45 2.09z" style="stroke-width:.26458332" transform="translate(119.7 -167.95)"/></svg>