<?xml version="1.0" encoding="utf-8"?>
<!-- Generator: Adobe Illustrator 27.7.0, SVG Export Plug-In . SVG Version: 6.00 Build 0)  -->
<svg version="1.1" id="Layer_1" xmlns:serif="http://www.serif.com/"
	 xmlns="http://www.w3.org/2000/svg" xmlns:xlink="http://www.w3.org/1999/xlink" x="0px" y="0px" viewBox="0 0 512 512"
	 style="enable-background:new 0 0 512 512;" xml:space="preserve">
<style type="text/css">
	.st0{fill-rule:evenodd;clip-rule:evenodd;fill:#101010;}
	.st1{fill-rule:evenodd;clip-rule:evenodd;fill:url(#SVGID_1_);}
	.st2{fill-rule:evenodd;clip-rule:evenodd;fill:url(#SVGID_00000013901609296258796510000011676003416150716323_);}
	.st3{fill-rule:evenodd;clip-rule:evenodd;fill:url(#SVGID_00000124870998805531965750000006731077308164062380_);}
	.st4{fill-rule:evenodd;clip-rule:evenodd;fill:url(#SVGID_00000008122633393967830960000010169132216989295005_);}
	.st5{fill-rule:evenodd;clip-rule:evenodd;fill:url(#SVGID_00000122680435206054713950000015878360152790483368_);}
	.st6{fill-rule:evenodd;clip-rule:evenodd;fill:url(#SVGID_00000133487215991093363890000017578858802299910273_);}
	.st7{fill:none;}
</style>
<g transform="matrix(2.73916,0,0,1.55095,-35271.3,23.6234)">
	<g transform="matrix(0.160219,-0.0758207,0.0429306,0.282967,12622.8,-105.843)">
		<path class="st0" d="M2017.7,1754.9l0-142.2h22l0,180.7l-517.3-302.7l517.3-300.8l0,180.6h-22l0-142.3l-451.5,262.6L2017.7,1754.9
			z"/>
	</g>
	<g>
		<g transform="matrix(-0.0429306,-0.282967,0.160219,-0.0758207,12884.5,137.392)">
			
				<linearGradient id="SVGID_1_" gradientUnits="userSpaceOnUse" x1="-841.4508" y1="-387.6175" x2="-837.9131" y2="-387.6175" gradientTransform="matrix(-131.1984 -75.7481 -75.7477 131.1977 -139971.7188 -12969.6289)">
				<stop  offset="0" style="stop-color:#FF8F00"/>
				<stop  offset="1" style="stop-color:#FE00FF"/>
			</linearGradient>
			<path class="st1" d="M-114.8,162.4l-89,0l-76.3-132.1l-76.3,132.1l-89,0l165.3-286.2L-114.8,162.4z"/>
		</g>
		<g transform="matrix(0.160219,0.0758207,-0.0429306,0.282967,12878.9,10.8747)">
			
				<linearGradient id="SVGID_00000011002782207945317180000006283963174081033372_" gradientUnits="userSpaceOnUse" x1="230.435" y1="1334.7086" x2="233.9727" y2="1334.7086" gradientTransform="matrix(131.1977 -75.7477 -75.7481 -131.1984 70892.6875 192633.25)">
				<stop  offset="0" style="stop-color:#FF8F00"/>
				<stop  offset="1" style="stop-color:#FE00FF"/>
			</linearGradient>
			<path style="fill-rule:evenodd;clip-rule:evenodd;fill:url(#SVGID_00000011002782207945317180000006283963174081033372_);" d="
				M923.2-9.1l-89,0l-76.3-132.1L681.6-9.1l-89,0l165.3-286.2L923.2-9.1z"/>
		</g>
		<g transform="matrix(-0.117289,0.207146,-0.117289,-0.207146,12943.8,65.7)">
			
				<linearGradient id="SVGID_00000016790098903637759710000015797680102993170069_" gradientUnits="userSpaceOnUse" x1="1181.2272" y1="-454.1572" x2="1184.7649" y2="-454.1572" gradientTransform="matrix(5.594022e-05 151.4955 151.4955 5.594022e-05 69561.9141 -179168.4844)">
				<stop  offset="0" style="stop-color:#FF8F00"/>
				<stop  offset="1" style="stop-color:#FE00FF"/>
			</linearGradient>
			<path style="fill-rule:evenodd;clip-rule:evenodd;fill:url(#SVGID_00000016790098903637759710000015797680102993170069_);" d="
				M256-826h-89L90.7-958.1L14.5-826h-89l165.3-286.2L256-826z"/>
		</g>
		<g transform="matrix(-0.160219,-0.0758207,0.0429306,-0.282967,12917.4,132.195)">
			
				<linearGradient id="SVGID_00000147192582952929876330000007095644198870153877_" gradientUnits="userSpaceOnUse" x1="102.3441" y1="-989.5063" x2="105.8818" y2="-989.5063" gradientTransform="matrix(131.1977 -75.7477 -75.7481 -131.1984 -88288.7031 -122590.6328)">
				<stop  offset="0" style="stop-color:#FF8F00"/>
				<stop  offset="1" style="stop-color:#FE00FF"/>
			</linearGradient>
			<path style="fill-rule:evenodd;clip-rule:evenodd;fill:url(#SVGID_00000147192582952929876330000007095644198870153877_);" d="
				M-439.5-479.9l68.8,183.5l-137.7,0L-439.5-479.9z"/>
		</g>
		<g transform="matrix(-0.117289,0.207146,0.117289,0.207146,12897.8,5.87512)">
			
				<linearGradient id="SVGID_00000089549978495846429710000003092585180124942212_" gradientUnits="userSpaceOnUse" x1="1132.0414" y1="797.1497" x2="1135.579" y2="797.1497" gradientTransform="matrix(5.594022e-05 -151.4955 -151.4955 5.594022e-05 121094.8047 171677.0781)">
				<stop  offset="0" style="stop-color:#FF8F00"/>
				<stop  offset="1" style="stop-color:#FE00FF"/>
			</linearGradient>
			<path style="fill-rule:evenodd;clip-rule:evenodd;fill:url(#SVGID_00000089549978495846429710000003092585180124942212_);" d="
				M48.7,333.5l68.8,183.5H-20.1L48.7,333.5z"/>
		</g>
		<g transform="matrix(-0.0429306,-0.282967,-0.160219,0.0758207,12936.8,97.6441)">
			
				<linearGradient id="SVGID_00000016049997037203010980000012160594364936706228_" gradientUnits="userSpaceOnUse" x1="-891.9229" y1="727.5671" x2="-888.3853" y2="727.5671" gradientTransform="matrix(-131.1984 75.7481 75.7477 131.1977 -172238.9531 -27509.8125)">
				<stop  offset="0" style="stop-color:#FF8F00"/>
				<stop  offset="1" style="stop-color:#FE00FF"/>
			</linearGradient>
			<path style="fill-rule:evenodd;clip-rule:evenodd;fill:url(#SVGID_00000016049997037203010980000012160594364936706228_);" d="
				M-336.3-649.7l68.8,183.5l-137.7,0L-336.3-649.7z"/>
		</g>
	</g>
	<g transform="matrix(0.160219,-0.0758207,0.0429306,0.282967,12622.6,-105.767)">
		
			<ellipse transform="matrix(0.9985 -5.551378e-02 5.551378e-02 0.9985 -72.9285 114.7062)" class="st0" cx="2028.2" cy="1370" rx="23.3" ry="23.3"/>
	</g>
	<g transform="matrix(0.160219,-0.0758207,0.0429306,0.282967,12624.1,-96.4295)">
		
			<ellipse transform="matrix(0.9985 -5.551376e-02 5.551376e-02 0.9985 -84.582 115.2008)" class="st0" cx="2031.3" cy="1580" rx="23.3" ry="23.3"/>
	</g>
	<g transform="matrix(0.160219,-0.0758207,0.0429306,0.282967,12625,-90.2042)">
		
			<ellipse transform="matrix(0.9985 -5.551375e-02 5.551375e-02 0.9985 -92.3024 115.3248)" class="st0" cx="2029.7" cy="1719.1" rx="23.3" ry="23.3"/>
	</g>
	<g transform="matrix(0.160219,-0.0758207,0.0429306,0.282967,12612.8,-96.1272)">
		
			<ellipse transform="matrix(0.9985 -5.551377e-02 5.551377e-02 0.9985 -79.3738 91.7875)" class="st0" cx="1612.5" cy="1474.6" rx="23.3" ry="23.3"/>
	</g>
	<g transform="matrix(0.160219,-0.0758207,0.0429306,0.282967,12621.7,-111.993)">
		
			<ellipse transform="matrix(0.9985 -5.551378e-02 5.551378e-02 0.9985 -65.2078 114.5844)" class="st0" cx="2029.9" cy="1231" rx="23.3" ry="23.3"/>
	</g>
	<g transform="matrix(0.160219,-0.0758207,0.0375643,0.247596,12637.2,-10.9628)">
		<path class="st0" d="M2060.2,1135.8c0,0-13.9-9.5-16.6-19c-2.1-7.5-3.2-33.3-3.4-38.2c-1-19.8,19.6-32,19.6-32l-67.5,1.4
			c0,0,23-0.9,25.3,30.6c0.4,4.9-1.7,25.5-3.4,38.2c-0.7,9.2-13.2,18.1-13.2,18.1L2060.2,1135.8z"/>
	</g>
	<g transform="matrix(0.160219,-0.0758207,0.0375643,0.247596,12639.5,4.60032)">
		<path class="st7" d="M2026.6,1549.8l0-117.4"/>
	</g>
	<g transform="matrix(0.160219,-0.0758207,0.0375643,0.247596,12639.5,4.60032)">
		<path class="st0" d="M2050.6,1528.4c0,0-11.4-4.5-11.9-16.7c0-8.4-0.1-11.1,0-20.4c-0.2-5-0.4-10.3,0-15.2
			c1-22.8,13.6-27.8,13.6-27.8l-51.7-1.7c0,0,14,5.8,16.1,28.6c0.4,4.8,0.3,12.5,0,17.5c-0.1,8.2-0.1,8.8,0,16.9
			c0.2,13.3-7.9,16.9-7.9,16.9L2050.6,1528.4z"/>
	</g>
	<g transform="matrix(0.160219,-0.0758207,0.0375643,0.247596,12627.7,-0.733956)">
		<path class="st7" d="M1629.5,1285.2l435.7-289.6"/>
	</g>
	<g transform="matrix(0.160219,-0.0758207,0.0375643,0.247596,12627.7,-0.733956)">
		<path class="st0" d="M1663.9,1304.1c0,0-7.3-12.2,16.4-33.8c13.4-12.2,31.1-24.3,50.6-38.2c35.5-25.4,78.5-53.7,121.4-82.2
			c36.2-24.1,72.4-48.2,104.9-68.8c27.2-17.1,51.6-32.2,71.3-43.2c3.9-2.2,7.8-3.5,11.1-5.7c19.7-13,35.2-0.4,35.2-0.4l-33.9-63.7
			c0,0-1.8,23.3-16.4,34.6c-3.2,2.5-6.2,5.5-9.8,8.2c-18.1,14.2-41.7,31-68.1,49.5c-31.8,22.2-68,46.2-104.2,70.2
			c-42.9,28.4-85.6,57.2-122.6,79.9c-20.2,12.4-38.2,23.8-54,31.3c-23,10.9-42.9,0.1-42.9,0.1L1663.9,1304.1z"/>
	</g>
	<g transform="matrix(0.160219,-0.0758207,-0.0375643,-0.247596,12684.9,376.33)">
		<path class="st7" d="M1629.3,208.8L2065-80.8"/>
	</g>
	<g transform="matrix(0.160219,-0.0758207,-0.0375643,-0.247596,12684.9,376.33)">
		<path class="st0" d="M1628.7,171.3c0,0,8.1,9.1,36.9-5.6c15.6-8,33.8-18.9,54-31.3c36.9-22.7,79.7-51.5,122.6-79.9
			c36.3-24,71.6-48.5,103.3-70.7c26.4-18.5,74.1-49.5,77.4-51.8c21.6-14.8,17.4-26.1,17.4-26.1l22.8,43.7c0,0-11.1-9.2-28.7,3.9
			c-3.2,2.4-50.3,34.3-77.4,51.4c-32.6,20.5-68.8,44.7-104.9,68.8c-42.9,28.6-85.9,56.8-121.4,82.2c-19.4,13.9-37.4,25.8-50.6,38.2
			c-26.6,24.8-13.4,42.8-13.4,42.8L1628.7,171.3z"/>
	</g>
</g>
</svg>
