<?xml version="1.0" encoding="utf-8"?>
<!-- Generator: Adobe Illustrator 21.0.2, SVG Export Plug-In . SVG Version: 6.00 Build 0)  -->
<svg version="1.1" id="Layer_1" xmlns="http://www.w3.org/2000/svg" xmlns:xlink="http://www.w3.org/1999/xlink" x="0px" y="0px"
	 viewBox="0 0 1024 1024" style="enable-background:new 0 0 1024 1024;" xml:space="preserve">
<style type="text/css">
	.st1{fill:#F9B21D;}
	.st2{fill:#226DB4;}
</style>
<g>
	<g class="st0">
		<path class="st1" d="M811.1,690.3c-16.5,0-29.9-13.4-29.9-29.9V497.6c0-16.8-13.7-30.5-30.5-30.5H273.3
			c-16.8,0-30.5,13.7-30.5,30.5v34.1c0,16.5-13.4,29.9-29.9,29.9S183,548.2,183,531.7v-34.1c0-49.8,40.5-90.4,90.4-90.4h477.4
			c49.8,0,90.4,40.5,90.4,90.4v162.7C841,676.9,827.7,690.3,811.1,690.3z"/>
	</g>
	<g class="st0">
		<path class="st2" d="M932.1,1022.3H91.9c-49.8,0-90.4-40.5-90.4-90.4V693.2c0-16.5,13.4-29.9,29.9-29.9s29.9,13.4,29.9,29.9v238.7
			c0,16.8,13.7,30.5,30.5,30.5h840.2c16.8,0,30.5-13.7,30.5-30.5V425.4c0-9.4-4.2-18.1-11.6-23.9L531,68.2c-11.2-8.9-26.8-8.9-38,0
			L72.9,401.4c-7.3,5.8-11.6,14.5-11.6,23.9l0,102.4c0,11.3,6.2,21.6,16.2,27l420.1,223.4c9,4.8,19.7,4.8,28.7,0l270.7-144.2
			c14.6-7.8,32.7-2.2,40.5,12.3c7.8,14.6,2.2,32.7-12.3,40.5L554.5,830.9c-26.6,14.2-58.3,14.2-84.9,0L49.5,607.5
			c-29.6-15.7-47.9-46.3-47.9-79.8l0-102.4c0-27.7,12.5-53.5,34.2-70.8L455.8,21.3C471.7,8.7,491.7,1.7,512,1.7c0,0,0,0,0,0
			c20.3,0,40.3,7,56.2,19.6l420.1,333.3c21.7,17.2,34.2,43,34.2,70.8v506.5C1022.4,981.7,981.9,1022.3,932.1,1022.3z"/>
	</g>
</g>
</svg>
