<svg xmlns="http://www.w3.org/2000/svg" xml:space="preserve" style="enable-background:new 0 0 1024 1024" viewBox="0 0 1024 1024"><path d="M811.1 690.3c-16.5 0-29.9-13.4-29.9-29.9V497.6c0-16.8-13.7-30.5-30.5-30.5H273.3c-16.8 0-30.5 13.7-30.5 30.5v34.1c0 16.5-13.4 29.9-29.9 29.9S183 548.2 183 531.7v-34.1c0-49.8 40.5-90.4 90.4-90.4h477.4c49.8 0 90.4 40.5 90.4 90.4v162.7c-.2 16.6-13.5 30-30.1 30z" class="st0" style="fill:#f9b21d"/><path d="M932.1 1022.3H91.9c-49.8 0-90.4-40.5-90.4-90.4V693.2c0-16.5 13.4-29.9 29.9-29.9s29.9 13.4 29.9 29.9v238.7c0 16.8 13.7 30.5 30.5 30.5H932c16.8 0 30.5-13.7 30.5-30.5V425.4c0-9.4-4.2-18.1-11.6-23.9L531 68.2c-11.2-8.9-26.8-8.9-38 0L72.9 401.4c-7.3 5.8-11.6 14.5-11.6 23.9v102.4c0 11.3 6.2 21.6 16.2 27l420.1 223.4c9 4.8 19.7 4.8 28.7 0L797 633.9c14.6-7.8 32.7-2.2 40.5 12.3 7.8 14.6 2.2 32.7-12.3 40.5L554.5 830.9c-26.6 14.2-58.3 14.2-84.9 0L49.5 607.5c-29.6-15.7-47.9-46.3-47.9-79.8V425.3c0-27.7 12.5-53.5 34.2-70.8l420-333.2C471.7 8.7 491.7 1.7 512 1.7c20.3 0 40.3 7 56.2 19.6l420.1 333.3c21.7 17.2 34.2 43 34.2 70.8v506.5c-.1 49.8-40.6 90.4-90.4 90.4z" class="st0" style="fill:#226db4"/></svg>