<?xml version="1.0" encoding="utf-8"?>
<!-- Generator: Adobe Illustrator 27.7.0, SVG Export Plug-In . SVG Version: 6.00 Build 0)  -->
<svg version="1.1" id="圖層_1" xmlns="http://www.w3.org/2000/svg" xmlns:xlink="http://www.w3.org/1999/xlink" x="0px" y="0px"
	 viewBox="0 0 512 512" style="enable-background:new 0 0 512 512;" xml:space="preserve">
<style type="text/css">
	.st0{fill:#213040;}
	.st1{fill:#A9D1F3;}
</style>
<g>
	<g>
		<path class="st0" d="M427.1,65.6L369,130.3c34.4,30.9,56,75.8,56,125.7c0,49.9-21.6,94.8-56,125.7l58.1,64.7
			C479.2,399.5,512,331.6,512,256C512,180.4,479.2,112.5,427.1,65.6z"/>
		<path class="st0" d="M84.9,446.4l58.1-64.7c-34.4-30.9-56-75.8-56-125.7c0-49.9,21.6-94.8,56-125.7L84.9,65.6
			C32.8,112.5,0,180.4,0,256C0,331.6,32.8,399.5,84.9,446.4z"/>
	</g>
	<polygon class="st1" points="310.7,32.8 256,98.5 201.3,32.8 	"/>
	<polygon class="st1" points="310.7,413.5 256,479.2 201.3,413.5 	"/>
	<circle class="st1" cx="256" cy="256" r="81.2"/>
</g>
</svg>
